   <svg
            id="prefix__Layer_1"
            xmlns="http://www.w3.org/2000/svg"
            xmlnsXlink="http://www.w3.org/1999/xlink"
            x={0}
            y={0}
            viewBox="0 0 186 181"
            xmlSpace="preserve"
            {...props}>
            <style>
                {
                    ".prefijost47b1{fill:#fff}"
                }</style>
            <path
                d="M182.8 90.47c.02 47.82-40.17 86.6-89.77 86.62-49.59.02-89.81-38.74-89.83-86.56S43.38 3.93 92.97 3.91s89.81 38.74 89.83 86.56"
                fill="#e8e8e8"/>
            <path
                d="M181.3 90.47c-.03 17.74-5.8 35.03-16.3 49.32-10.38 14.11-25.17 24.86-41.67 30.66-17.42 6.11-36.61 6.8-54.43 1.94-17.03-4.64-32.52-14.35-44.03-27.75-11.41-13.29-18.56-30.1-19.91-47.58-1.38-17.73 3.02-35.54 12.47-50.59 9.28-14.78 23.09-26.43 39.03-33.46 16.91-7.46 36.18-9.47 54.3-5.88 17.37 3.44 33.57 11.98 46.06 24.56 12.29 12.37 20.62 28.37 23.44 45.6.7 4.35 1.03 8.77 1.04 13.18 0 1.93 3 1.93 3 0-.04-18.28-5.97-36.25-16.84-50.95-10.81-14.62-25.94-25.69-43.07-31.76C106.4 1.38 86.44.71 68.04 5.74 50.5 10.54 34.43 20.57 22.6 34.42 10.78 48.24 3.45 65.52 1.98 83.67.5 101.98 5.09 120.55 14.87 136.1c9.61 15.28 23.9 27.44 40.44 34.65 17.53 7.64 37.2 9.73 55.97 6.08 17.97-3.5 34.81-12.42 47.7-25.43 12.69-12.8 21.39-29.44 24.23-47.27.72-4.52 1.09-9.08 1.09-13.65 0-1.94-3-1.94-3-.01z"/>
            <path
                d="M181.3 90.47c-.03 17.74-5.8 35.03-16.3 49.32-10.38 14.11-25.17 24.86-41.67 30.66-17.42 6.11-36.61 6.8-54.43 1.94-17.03-4.64-32.52-14.35-44.03-27.75-11.41-13.29-18.56-30.1-19.91-47.58-1.38-17.73 3.02-35.54 12.47-50.59 9.28-14.78 23.09-26.43 39.03-33.46 16.91-7.46 36.18-9.47 54.3-5.88 17.37 3.44 33.57 11.98 46.06 24.56 12.29 12.37 20.62 28.37 23.44 45.6.7 4.35 1.03 8.77 1.04 13.18 0 1.93 3 1.93 3 0-.04-18.28-5.97-36.25-16.84-50.95-10.81-14.62-25.94-25.69-43.07-31.76C106.4 1.38 86.44.71 68.04 5.74 50.5 10.54 34.43 20.57 22.6 34.42 10.78 48.24 3.45 65.52 1.98 83.67.5 101.98 5.09 120.55 14.87 136.1c9.61 15.28 23.9 27.44 40.44 34.65 17.53 7.64 37.2 9.73 55.97 6.08 17.97-3.5 34.81-12.42 47.7-25.43 12.69-12.8 21.39-29.44 24.23-47.27.72-4.52 1.09-9.08 1.09-13.65 0-1.94-3-1.94-3-.01z"/>
            <defs>
                <path
                    id="prefijosd1b1svg"
                    d="M181.38 89.79c.02 47.44-39.85 85.92-89.06 85.94-49.2.02-89.1-38.43-89.12-85.88S43.06 3.93 92.26 3.91s89.1 38.43 89.12 85.88"/>
            </defs>
            <clipPath id="prefixSVGI2x3">
                <use xlinkHref="#prefijosd1b1svg" overflow="visible"/>
            </clipPath>
            <defs>
                <path
                    id="prefsvg3idb1"
                    d="M181.38 89.79c.02 47.44-39.85 85.92-89.06 85.94-49.2.02-89.1-38.43-89.12-85.88S43.06 3.93 92.26 3.91s89.1 38.43 89.12 85.88"/>
            </defs>
            <defs>
                <path
                    id="prefsvg4b1"
                    d="M181.38 89.79c.02 47.44-39.85 85.92-89.06 85.94-49.2.02-89.1-38.43-89.12-85.88S43.06 3.93 92.26 3.91s89.1 38.43 89.12 85.88"/>
            </defs>
            <clipPath id="pref4sSVGID5">
                <use xlinkHref="#prefsvg3idb1" overflow="visible"/>
            </clipPath>
            <clipPath id="prefb67SVGID6" clipPath="url(#pref4sSVGID5)">
                <use xlinkHref="#prefsvg4b1" overflow="visible"/>
            </clipPath>
            <g clipPath="url(#prefb67SVGID6)">
                <path
                    d="M26.47 47.94c-2.9.16-5.62-1.44-7.27-4-2.04-3.15-2.26-7.07-1.83-10.71.92-7.56 4.41-15 9.26-20.82 1.03-1.23 1.21-3 0-4.21-1.06-1.06-3.17-1.24-4.21 0-4.78 5.74-8.31 12.46-10.08 19.74-1.76 7.28-1.8 15.68 3.63 21.47 2.68 2.86 6.54 4.7 10.5 4.48 1.61-.09 2.98-1.3 2.98-2.98-.01-1.54-1.37-3.06-2.98-2.97z"/>
            </g>
            <defs>
                <path
                    id="prefix__SVGID_7_"
                    d="M181.38 89.79c.02 47.44-39.85 85.92-89.06 85.94-49.2.02-89.1-38.43-89.12-85.88S43.06 3.93 92.26 3.91s89.1 38.43 89.12 85.88"/>
            </defs>
            <clipPath id="prefix__SVGID_8_">
                <use xlinkHref="#prefix__SVGID_7_" overflow="visible"/>
            </clipPath>
            <defs>
                <path
                    id="prefix__SVGID_9_"
                    d="M181.38 89.79c.02 47.44-39.85 85.92-89.06 85.94-49.2.02-89.1-38.43-89.12-85.88S43.06 3.93 92.26 3.91s89.1 38.43 89.12 85.88"/>
            </defs>
            <defs>
                <path
                    id="prefix__SVGID_10_"
                    d="M181.38 89.79c.02 47.44-39.85 85.92-89.06 85.94-49.2.02-89.1-38.43-89.12-85.88S43.06 3.93 92.26 3.91s89.1 38.43 89.12 85.88"/>
            </defs>
            <clipPath id="prefix__SVGID_11_">
                <use xlinkHref="#prefix__SVGID_9_" overflow="visible"/>
            </clipPath>
            <clipPath id="prefix__SVGID_12_" clipPath="url(#prefix__SVGID_11_)">
                <use xlinkHref="#prefix__SVGID_10_" overflow="visible"/>
            </clipPath>
            <g clipPath="url(#prefix__SVGID_12_)">
                <path
                    d="M120.72 102.29c-4.19-3.92-6.75-5.42-11.38-9.89-1.63-2.25-2.16-4.41-3.47-7.74-.32-.81 35.02-13.01 35.88-13.17 1.03-.19 17.32-1.32 17.89-.44 1.52 2.36 3.03 4.72 3.13 7.55-8.9 24.02-17.96 50.39-27.06 73.49-.2.51-.4 1.09-.16 1.59.2.41 5.47-3.75 5.7-3.36 2.27 3.54 4 4.94 4.13 7.55-1.67 4.31-3.71 9.7-5.39 14.01-.21.55-.47 1.14-.99 1.41-.46.24-1 .16-1.51.07-5.74-1.01-11.33-2.76-16.9-4.5-7.79-2.44-15.58-4.88-23.36-7.31-1.48-2.92-2.01-5.07-3.53-7.43-.29-.45 10.76-9.19 11.27-9.34.51-.15 1.04.06 1.53.27l9.34 3.89c6.29-19.17 15.91-39.64 23.66-58.27-6.46 4.5-12.31 7.11-18.78 11.62z"
                    fill="#666"/>
                <path
                    d="M121.77 101.24c-3.45-3.2-7.28-5.96-10.69-9.23-1.69-1.62-2.37-3.97-3.16-6.1-.09-.25-.43-1.6-.62-1.64.24.05-.17 1.52-.56 1.53.11 0 .37-.21.47-.27.23-.12.46-.22.68-.32.55-.24.48-.21.87-.37.93-.38 1.87-.74 2.8-1.11 2.5-.96 5.02-1.89 7.55-2.8 5.52-1.99 11.05-3.95 16.6-5.85 1.76-.61 3.5-1.21 5.27-1.79.36-.12.72-.22 1.08-.35.28-.1-.45.03.03-.01.41-.03.81-.08 1.22-.11 2.82-.23 5.64-.39 8.45-.51 1.47-.06 2.95-.11 4.41-.11.54 0 1.07 0 1.61.03.25.01.5.03.74.04.4.03-.06.1.27.03 0 0 .15.02.16.04.19.2-.27-.19-.3-.18-.13.04-.27-.33.13.34.14.24.3.48.45.71.68 1.12 1.33 2.27 1.71 3.54.18.63.36 1.23.22 1.88-.14.64-.49 1.31-.71 1.92-.51 1.37-1 2.73-1.51 4.1-1.97 5.41-3.93 10.81-5.88 16.23-3.93 10.89-7.83 21.79-11.87 32.64-1.95 5.25-3.93 10.49-5.96 15.7-.53 1.34-2.73 5.95.38 5.97 1.1.01 2.27-1.05 3.13-1.63.56-.38 1.1-.76 1.67-1.13.27-.18.55-.36.82-.53.08-.05.21-.1.27-.15.13-.13.04.02.03-.02l-1.29-.27c.09.13.17.26.26.38.12.31.42.62.61.88.33.47.66.92.99 1.39.55.76 1.14 1.55 1.5 2.42.42 1.04.09 1.64-.3 2.65-.5 1.28-.98 2.56-1.48 3.84-.96 2.51-1.91 5.02-2.89 7.52-.13.33-.29 1.23-.65 1.41-.39.19-1.63-.27-2-.34-1.47-.3-2.93-.63-4.38-1-2.91-.73-5.77-1.6-8.64-2.49-5.74-1.79-11.48-3.59-17.21-5.39-2.81-.87-5.61-1.76-8.41-2.63.3.23.6.46.89.68-.98-1.97-1.71-4.07-2.73-6.03-.12-.24-.25-.47-.38-.69-.25-.59-.35-.46-.28.4-.03.11-.13.44-.24.44.1 0 .54-.56.63-.63 1.6-1.52 3.34-2.89 5.06-4.28 1.53-1.23 3.05-2.5 4.66-3.62.09-.06.22-.12.29-.2.22-.25.14.24-.18.05.84.52 2.05.8 2.97 1.18 2.37.99 4.74 1.97 7.11 2.97.76.32 1.61-.36 1.84-1.04 5.13-15.59 11.81-30.61 18.29-45.65 1.81-4.2 3.61-8.39 5.37-12.61.5-1.19-1.17-2.38-2.18-1.68-3.09 2.14-6.32 4.04-9.57 5.92-1.56.9-3.11 1.8-4.63 2.74-.79.49-1.58.98-2.35 1.49-.7.46-1.45 1.13-2.2 1.48-1.74.81-.23 3.37 1.5 2.57.7-.33 1.36-.93 2-1.35.77-.51 1.57-1 2.36-1.5 1.6-.98 3.21-1.91 4.83-2.86 3.25-1.89 6.49-3.78 9.57-5.92-.72-.56-1.46-1.12-2.18-1.68-6.3 15.12-13.16 30-19.03 45.3-1.65 4.29-3.2 8.6-4.64 12.96l1.84-1.04c-1.71-.71-3.4-1.42-5.11-2.13-1.65-.68-3.42-1.72-5.18-2.04-1.45-.27-2.3.54-3.36 1.35-2.83 2.15-5.63 4.37-8.28 6.71-.69.62-1.79 1.38-2.02 2.32-.3 1.17 1.01 2.61 1.47 3.61.68 1.5 1.22 3.1 2 4.55.79 1.47 2.88 1.67 4.38 2.14 1.87.59 3.74 1.17 5.61 1.76l10.74 3.36c6.86 2.14 13.87 4.77 21.02 5.73 3.68.5 4.35-3.61 5.37-6.28 1.22-3.18 2.44-6.38 3.67-9.56.94-2.43-.7-4.77-2.07-6.69-.39-.54-.77-1.07-1.15-1.62-.38-.56-.71-1.35-1.32-1.7-.77-.45-1.57-.07-2.25.33-1.44.83-2.77 1.87-4.17 2.76-.1.06-.3.12-.38.21.48-.51.1.06.1-.04.58.21 1.15.42 1.73.62.1-.27.2-.54.31-.8.16-.42.33-.82.49-1.23.65-1.67 1.3-3.33 1.93-5 5.12-13.32 9.94-26.75 14.78-40.18 2.48-6.89 4.96-13.78 7.48-20.65.58-1.58 1.16-3.15 1.75-4.73.27-.71.54-1.32.51-2.09-.04-.94-.28-1.9-.6-2.8-.51-1.42-1.24-2.75-2.03-4.03-.51-.8-.87-1.6-1.84-1.89-1.14-.34-2.51-.25-3.68-.25-1.87 0-3.74.08-5.61.17-2.88.14-5.79.23-8.65.6-1.43.18-2.85.83-4.2 1.29-3.07 1.04-6.13 2.1-9.19 3.17-6.53 2.29-13.08 4.56-19.51 7.12-1.22.49-3.63 1.03-4.36 2.3-.6 1.04.38 2.57.74 3.56.5 1.33.98 2.68 1.64 3.94 1.39 2.67 3.94 4.55 6.23 6.45 2.18 1.81 4.39 3.58 6.47 5.52 1.34 1.28 3.46-.81 2.05-2.12z"/>
            </g>
            <defs>
                <path
                    id="prefix__SVGID_13_"
                    d="M181.38 89.79c.02 47.44-39.85 85.92-89.06 85.94-49.2.02-89.1-38.43-89.12-85.88S43.06 3.93 92.26 3.91s89.1 38.43 89.12 85.88"/>
            </defs>
            <clipPath id="prefix__SVGID_14_">
                <use xlinkHref="#prefix__SVGID_13_" overflow="visible"/>
            </clipPath>
            <defs>
                <path
                    id="prefix__SVGID_15_"
                    d="M181.38 89.79c.02 47.44-39.85 85.92-89.06 85.94-49.2.02-89.1-38.43-89.12-85.88S43.06 3.93 92.26 3.91s89.1 38.43 89.12 85.88"/>
            </defs>
            <defs>
                <path
                    id="prefix__SVGID_16_"
                    d="M181.38 89.79c.02 47.44-39.85 85.92-89.06 85.94-49.2.02-89.1-38.43-89.12-85.88S43.06 3.93 92.26 3.91s89.1 38.43 89.12 85.88"/>
            </defs>
            <clipPath id="prefix__SVGID_17_">
                <use xlinkHref="#prefix__SVGID_15_" overflow="visible"/>
            </clipPath>
            <clipPath id="prefix__SVGID_18_" clipPath="url(#prefix__SVGID_17_)">
                <use xlinkHref="#prefix__SVGID_16_" overflow="visible"/>
            </clipPath>
            <g clipPath="url(#prefix__SVGID_18_)">
                <path
                    d="M86.81 49.19c-1.14-4.9-2.71-9.84-5.87-13.56-1.79-2.1-4.09-6.31-6.6-7.33l-2.56-1.24c-7.3-3.64-16.96-6.9-33.06 2.06-7.3 4.07-12.09 12.03-15.83 19.83-5.89 12.27-8.8 26.37-6.55 39.72s10.03 25.72 21.51 31.45c11.48 5.73 26.52 3.89 35.89-5.68 5.47-5.59 8.71-13.19 10.94-20.84 5.01-17.15 6.11-27.23 2.13-44.41zM66.82 83.24c-1.14 4.04-2.73 8.07-5.3 11.08-4.41 5.16-11.27 6.36-16.39 3.54-5.12-2.82-8.46-9.17-9.27-16.12-.8-6.94.73-14.38 3.6-20.88 1.83-4.15 4.13-8.38 7.5-10.64 7.45-4.95 11.79-3.4 15.04-1.61l1.14.61c1.12.5 2.09 2.66 2.88 3.73 1.38 1.89 2.01 4.45 2.45 7 1.56 8.94.9 14.23-1.65 23.29z"
                    fill="#848484"/>
                <path
                    d="M88.23 48.79c-1.16-4.95-2.76-9.9-5.99-13.91-2.39-2.96-4.19-6.44-7.73-8.16-5.45-2.63-10.79-4.93-16.99-4.87-4.29.04-8.52 1.05-12.5 2.62-4.8 1.89-9.41 4.3-13.09 7.97-3.43 3.43-6.11 7.59-8.38 11.86-2.47 4.63-4.59 9.47-6.17 14.49-5.94 18.83-4.25 41.34 10.4 55.86 6.37 6.31 14.79 10.13 23.81 10.2 9.08.07 18.1-3.6 24.18-10.42 7.06-7.91 10.13-18.54 12.55-28.63 1.15-4.79 2.01-9.66 2.29-14.58.27-4.83-.08-9.65-.81-14.43-.4-2.69-.95-5.35-1.57-8-.43-1.87-3.3-1.07-2.87.79 2.13 9.26 3.08 18.61 1.59 28.05-.77 4.87-2 9.66-3.36 14.41-1.35 4.71-2.95 9.37-5.32 13.67-2.23 4.06-5.13 7.83-8.9 10.57-3.35 2.44-7.19 4.11-11.25 4.96-8.16 1.73-16.7-.06-23.54-4.77-15.59-10.73-19.79-31.6-16.3-49.18 1.9-9.57 5.76-19.02 11.22-27.12 2.47-3.66 5.5-7.08 9.32-9.38 4.09-2.45 8.63-4.37 13.29-5.35 6.15-1.29 12.18-.3 17.83 2.37 2.29 1.08 4.56 1.97 6.24 3.95 1.29 1.54 2.35 3.25 3.61 4.8 1.52 1.86 2.69 3.95 3.56 6.18.86 2.22 1.48 4.52 2.02 6.84.43 1.87 3.31 1.08 2.86-.79z"/>
                <path
                    d="M65.4 82.84c-1.28 4.49-3.08 9.27-6.83 12.29-2.98 2.4-7.03 3.36-10.72 2.26-8.35-2.5-10.97-13.22-10.67-20.81.19-4.84 1.39-9.64 3.22-14.12 1.7-4.13 3.87-8.72 7.74-11.21 2.92-1.88 6.46-3.48 9.99-2.63 1.13.28 2.14.75 3.17 1.3.41.22.85.4 1.23.65.71.49 1.13 1.38 1.57 2.09.6.98 1.29 1.89 1.74 2.96.52 1.24.82 2.57 1.08 3.88.52 2.66.84 5.36.91 8.06.12 5.23-1.04 10.27-2.43 15.28-.52 1.85 2.35 2.64 2.87.79 1.41-5.06 2.59-10.21 2.54-15.49-.03-2.72-.35-5.43-.79-8.12-.43-2.58-1-5.28-2.46-7.51-1.05-1.62-1.95-3.61-3.68-4.61-1.13-.65-2.32-1.26-3.55-1.73-3.63-1.37-7.42-.71-10.85.9-2.38 1.12-4.61 2.61-6.33 4.61-1.68 1.96-2.97 4.21-4.08 6.52-2.41 5-4.07 10.26-4.68 15.76-1 9.08 1.49 21.14 10.59 25.49 4.5 2.15 9.87 1.68 14.05-1.01 5.13-3.3 7.61-9.16 9.23-14.81.53-1.84-2.34-2.63-2.86-.79z"/>
            </g>
            <defs>
                <path
                    id="prefix__SVGID_19_"
                    d="M181.38 89.79c.02 47.44-39.85 85.92-89.06 85.94-49.2.02-89.1-38.43-89.12-85.88S43.06 3.93 92.26 3.91s89.1 38.43 89.12 85.88"/>
            </defs>
            <clipPath id="prefix__SVGID_20_">
                <use xlinkHref="#prefix__SVGID_19_" overflow="visible"/>
            </clipPath>
            <defs>
                <path
                    id="prefix__SVGID_21_"
                    d="M181.38 89.79c.02 47.44-39.85 85.92-89.06 85.94-49.2.02-89.1-38.43-89.12-85.88S43.06 3.93 92.26 3.91s89.1 38.43 89.12 85.88"/>
            </defs>
            <defs>
                <path
                    id="prefix__SVGID_22_"
                    d="M181.38 89.79c.02 47.44-39.85 85.92-89.06 85.94-49.2.02-89.1-38.43-89.12-85.88S43.06 3.93 92.26 3.91s89.1 38.43 89.12 85.88"/>
            </defs>
            <clipPath id="prefix__SVGID_23_">
                <use xlinkHref="#prefix__SVGID_21_" overflow="visible"/>
            </clipPath>
            <clipPath id="prefix__SVGID_24_" clipPath="url(#prefix__SVGID_23_)">
                <use xlinkHref="#prefix__SVGID_22_" overflow="visible"/>
            </clipPath>
            <g clipPath="url(#prefix__SVGID_24_)">
                <path
                    d="M41.12 114.31a77.1 77.1 0 007.48 18.74c.36-1.36.71-2.72 1.07-4.07-5.15 2.42-10.63 4.07-16.23 5.03-1.54.27-2.54 2.24-2.08 3.66 1.16 3.57 2.63 7.04 4.39 10.37.75 1.42 2.73 1.86 4.07 1.07 1.44-.84 1.82-2.65 1.07-4.07a55.83 55.83 0 01-3.78-8.95c-.69 1.22-1.39 2.44-2.08 3.66 6.13-1.05 12.02-2.99 17.65-5.63 1.48-.69 1.8-2.77 1.07-4.07-3.07-5.46-5.35-11.25-6.89-17.32-.94-3.7-6.68-2.14-5.74 1.58z"/>
            </g>
            <defs>
                <path
                    id="prefix__SVGID_25_"
                    d="M181.38 89.79c.02 47.44-39.85 85.92-89.06 85.94-49.2.02-89.1-38.43-89.12-85.88S43.06 3.93 92.26 3.91s89.1 38.43 89.12 85.88"/>
            </defs>
            <clipPath id="prefix__SVGID_26_">
                <use xlinkHref="#prefix__SVGID_25_" overflow="visible"/>
            </clipPath>
            <defs>
                <path
                    id="prefix__SVGID_27_"
                    d="M181.38 89.79c.02 47.44-39.85 85.92-89.06 85.94-49.2.02-89.1-38.43-89.12-85.88S43.06 3.93 92.26 3.91s89.1 38.43 89.12 85.88"/>
            </defs>
            <defs>
                <path
                    id="prefix__SVGID_28_"
                    d="M181.38 89.79c.02 47.44-39.85 85.92-89.06 85.94-49.2.02-89.1-38.43-89.12-85.88S43.06 3.93 92.26 3.91s89.1 38.43 89.12 85.88"/>
            </defs>
            <clipPath id="prefix__SVGID_29_">
                <use xlinkHref="#prefix__SVGID_27_" overflow="visible"/>
            </clipPath>
            <clipPath id="prefix__SVGID_30_" clipPath="url(#prefix__SVGID_29_)">
                <use xlinkHref="#prefix__SVGID_28_" overflow="visible"/>
            </clipPath>
            <g clipPath="url(#prefix__SVGID_30_)">
                <path
                    d="M68.59 113.01c1.14 3.34 2.27 6.7 3.41 10.04.56 1.64 1.11 3.26 1.67 4.9.27.77.53 1.56.79 2.33.16.47.32.93.48 1.4.05.16.11.31.16.47.17.65.23.41.18-.74l1.07-1.07c-1.7 1.28-4.08 2.02-6.07 2.74a50 50 0 01-3.41 1.08c-1.18.33-2.57.49-3.63 1.12-2.67 1.61-2.1 4.73-1.66 7.33.44 2.55 1.3 4.97 2.38 7.31.67 1.46 2.78 1.83 4.07 1.07 1.5-.87 1.75-2.61 1.07-4.07-.77-1.66-1.31-3.43-1.67-5.23-.06-.29-.23-2.59-.33-2.64.42.23-2.41 1.82-.39 1.31.44-.11.86-.22 1.3-.34 1.87-.51 3.71-1.12 5.52-1.84 1.83-.71 3.86-1.43 5.53-2.49 2.33-1.49 2.25-3.74 1.46-6.07-.68-2.02-1.38-4.05-2.06-6.07-1.38-4.05-2.75-8.1-4.13-12.14-.52-1.52-2.04-2.52-3.66-2.08-1.48.44-2.61 2.16-2.08 3.68z"/>
            </g>
            <defs>
                <path
                    id="prefix__SVGID_31_"
                    d="M181.38 89.79c.02 47.44-39.85 85.92-89.06 85.94-49.2.02-89.1-38.43-89.12-85.88S43.06 3.93 92.26 3.91s89.1 38.43 89.12 85.88"/>
            </defs>
            <clipPath id="prefixSVGID32">
                <use xlinkHref="#prefix__SVGID_31_" overflow="visible"/>
            </clipPath>
            <defs>
                <path
                    id="prefix__SVGID_33_"
                    d="M181.38 89.79c.02 47.44-39.85 85.92-89.06 85.94-49.2.02-89.1-38.43-89.12-85.88S43.06 3.93 92.26 3.91s89.1 38.43 89.12 85.88"/>
            </defs>
            <defs>
                <path
                    id="prefix__SVGID_34_"
                    d="M181.38 89.79c.02 47.44-39.85 85.92-89.06 85.94-49.2.02-89.1-38.43-89.12-85.88S43.06 3.93 92.26 3.91s89.1 38.43 89.12 85.88"/>
            </defs>
            <clipPath id="prefix__SVGID_35_">
                <use xlinkHref="#prefix__SVGID_33_" overflow="visible"/>
            </clipPath>
            <clipPath id="prefix__SVGID_36_" clipPath="url(#prefix__SVGID_35_)">
                <use xlinkHref="#prefix__SVGID_34_" overflow="visible"/>
            </clipPath>
            <g clipPath="url(#prefix__SVGID_36_)">
                <path
                    d="M93.43 61.35c7.56-2.99 14.92-7.69 19.99-14.15 2.74-3.49 4.33-7.48 4.4-11.95.07-4.37-1.22-8.59-3.06-12.51-.68-1.46-2.78-1.83-4.07-1.07-1.49.87-1.76 2.61-1.07 4.07 1.39 2.96 2.3 6.22 2.24 9.5-.05 3.29-1.33 6.23-3.45 8.72-4.4 5.13-10.29 9.16-16.56 11.64-1.5.59-2.54 1.99-2.08 3.66.39 1.44 2.16 2.68 3.66 2.09z"/>
            </g>
            <defs>
                <path
                    id="prefix__SVGID_37_"
                    d="M181.38 89.79c.02 47.44-39.85 85.92-89.06 85.94-49.2.02-89.1-38.43-89.12-85.88S43.06 3.93 92.26 3.91s89.1 38.43 89.12 85.88"/>
            </defs>
            <clipPath id="prefix__SVGID_38_">
                <use xlinkHref="#prefix__SVGID_37_" overflow="visible"/>
            </clipPath>
            <defs>
                <path
                    id="prefix__SVGID_39_"
                    d="M181.38 89.79c.02 47.44-39.85 85.92-89.06 85.94-49.2.02-89.1-38.43-89.12-85.88S43.06 3.93 92.26 3.91s89.1 38.43 89.12 85.88"/>
            </defs>
            <defs>
                <path
                    id="prefix__SVGID_40_"
                    d="M181.38 89.79c.02 47.44-39.85 85.92-89.06 85.94-49.2.02-89.1-38.43-89.12-85.88S43.06 3.93 92.26 3.91s89.1 38.43 89.12 85.88"/>
            </defs>
            <clipPath id="prefix__SVGID_41_">
                <use xlinkHref="#prefix__SVGID_39_" overflow="visible"/>
            </clipPath>
            <clipPath id="prefix__SVGID_42_" clipPath="url(#prefix__SVGID_41_)">
                <use xlinkHref="#prefix__SVGID_40_" overflow="visible"/>
            </clipPath>
            <g clipPath="url(#prefix__SVGID_42_)">
                <path
                    d="M99.94 20.29c2.83 3.58 7.58 5.4 12.06 4.53 4.03-.77 7.76-4.34 8.34-8.45.22-1.54-.38-3.27-2.08-3.66-1.41-.32-3.42.43-3.66 2.08-.05.36-.12.7-.23 1.05-.01.03-.19.69-.07.25.12-.43-.07.13-.12.23-.12.23-.34.78-.57.91.25-.14.29-.34-.01-.01a7.006 7.006 0 01-.77.77c-.21.18-.28.44.01.01-.15.23-.67.45-.92.58-.16.09-.33.16-.49.24-.35.18.66-.21 0-.02-.35.1-.69.2-1.05.28-.49.11.12 0 .13-.01-.01.04-.66.04-.7.04-.16 0-.32 0-.48-.01-.12 0-.24-.01-.36-.02-.23-.02-.16-.01.21.04-.32.06-.85-.17-1.15-.25-.15-.04-.31-.09-.46-.14-.01 0-.7-.28-.31-.11.39.17-.22-.11-.29-.15-.18-.09-.35-.19-.53-.29-.17-.1-.34-.21-.51-.32 0 0-.61-.44-.28-.19.33.25-.19-.17-.25-.22-.15-.13-.3-.27-.44-.41-.31-.31-.6-.63-.86-.98-.97-1.23-3.2-1.09-4.21 0-1.14 1.32-.98 2.92.05 4.23z"/>
            </g>
            <g>
                <defs>
                    <path
                        id="prefix__SVGID_43_"
                        d="M181.38 89.79c.02 47.44-39.85 85.92-89.06 85.94-49.2.02-89.1-38.43-89.12-85.88S43.06 3.93 92.26 3.91s89.1 38.43 89.12 85.88"/>
                </defs>
                <clipPath id="prefix__SVGID_44_">
                    <use xlinkHref="#prefix__SVGID_43_" overflow="visible"/>
                </clipPath>
                <defs>
                    <path
                        id="prefix__SVGID_45_"
                        d="M181.38 89.79c.02 47.44-39.85 85.92-89.06 85.94-49.2.02-89.1-38.43-89.12-85.88S43.06 3.93 92.26 3.91s89.1 38.43 89.12 85.88"/>
                </defs>
                <defs>
                    <path
                        id="prefix__SVGID_46_"
                        d="M181.38 89.79c.02 47.44-39.85 85.92-89.06 85.94-49.2.02-89.1-38.43-89.12-85.88S43.06 3.93 92.26 3.91s89.1 38.43 89.12 85.88"/>
                </defs>
                <clipPath id="prefix__SVGID_47_">
                    <use xlinkHref="#prefix__SVGID_45_" overflow="visible"/>
                </clipPath>
                <clipPath id="prefix__SVGID_48_" clipPath="url(#prefix__SVGID_47_)">
                    <use xlinkHref="#prefix__SVGID_46_" overflow="visible"/>
                </clipPath>
                <g clipPath="url(#prefix__SVGID_48_)">
                    <path
                        d="M106.92 15.58c.07.15.13.3.2.45-.1-.24-.2-.48-.3-.71 1.04 2.46 1.79 5.03 2.15 7.68-.04-.27-.07-.53-.11-.79.01.1.03.2.04.3.11.82.27 1.5.87 2.1.52.52 1.36.9 2.1.87.77-.03 1.57-.29 2.1-.87.5-.54.97-1.34.87-2.1-.22-1.7-.51-3.35-.97-5-.48-1.7-1.12-3.32-1.83-4.93-.28-.63-1.14-1.19-1.78-1.37-.71-.2-1.66-.11-2.29.3s-1.19 1.02-1.37 1.78c-.04.27-.07.53-.11.79.02.53.16 1.03.43 1.5z"/>
                </g>
            </g>
            <g>
                <defs>
                    <path
                        id="prefix__SVGID_49_"
                        d="M181.38 89.79c.02 47.44-39.85 85.92-89.06 85.94-49.2.02-89.1-38.43-89.12-85.88S43.06 3.93 92.26 3.91s89.1 38.43 89.12 85.88"/>
                </defs>
                <clipPath id="prefix__SVGID_50_">
                    <use xlinkHref="#prefix__SVGID_49_" overflow="visible"/>
                </clipPath>
                <defs>
                    <path
                        id="prefix__SVGID_51_"
                        d="M181.38 89.79c.02 47.44-39.85 85.92-89.06 85.94-49.2.02-89.1-38.43-89.12-85.88S43.06 3.93 92.26 3.91s89.1 38.43 89.12 85.88"/>
                </defs>
                <defs>
                    <path
                        id="prefix__SVGID_52_"
                        d="M181.38 89.79c.02 47.44-39.85 85.92-89.06 85.94-49.2.02-89.1-38.43-89.12-85.88S43.06 3.93 92.26 3.91s89.1 38.43 89.12 85.88"/>
                </defs>
                <clipPath id="prefix__SVGID_53_">
                    <use xlinkHref="#prefix__SVGID_51_" overflow="visible"/>
                </clipPath>
                <clipPath id="prefix__SVGID_54_" clipPath="url(#prefix__SVGID_53_)">
                    <use xlinkHref="#prefix__SVGID_52_" overflow="visible"/>
                </clipPath>
                <g clipPath="url(#prefix__SVGID_54_)">
                    <path
                        d="M124.26 105.27c-3.11-.08-6.22-.01-9.32-.37-1.14-.13-2.77-.48-4.07-.93-1.09-.39-2.1-1-2.97-1.83-2.31-2.19-4.57-4.79-5.49-7.91-.72-2.48-.62-5.69-.25-8.51.43-3.22 1.26-6.49 2.5-9.49 1.05-2.55 3.02-5.52 4.83-7.95 2.93-3.92 6.93-6.94 10.75-9.94 4.54-3.58 9.51-7.13 14.12-10.98 1.23-1.03 1.06-3.15 0-4.21-1.22-1.22-2.98-1.03-4.21 0-.85.71-1.73 1.41-2.61 2.1-.38.3-1.11.86-1.27.99-.3.23-1.14.87-1.65 1.27-2.56 1.95-5.12 3.91-7.66 5.89-4.38 3.42-8.76 6.83-12.15 11.26-4.44 5.8-7.35 12.21-8.4 19.48-.52 3.56-.72 7.18.01 10.72.81 3.91 3.27 7.36 5.97 10.21 2.81 2.96 6.07 4.75 10.1 5.44 3.89.66 7.8.61 11.73.7 3.87.11 3.87-5.85.04-5.94z"/>
                </g>
            </g>
            <g>
                <defs>
                    <path
                        id="prefix__SVGID_55_"
                        d="M181.38 89.79c.02 47.44-39.85 85.92-89.06 85.94-49.2.02-89.1-38.43-89.12-85.88S43.06 3.93 92.26 3.91s89.1 38.43 89.12 85.88"/>
                </defs>
                <clipPath id="prefix__SVGID_56_">
                    <use xlinkHref="#prefix__SVGID_55_" overflow="visible"/>
                </clipPath>
                <defs>
                    <path
                        id="prefix__SVGID_57_"
                        d="M181.38 89.79c.02 47.44-39.85 85.92-89.06 85.94-49.2.02-89.1-38.43-89.12-85.88S43.06 3.93 92.26 3.91s89.1 38.43 89.12 85.88"/>
                </defs>
                <defs>
                    <path
                        id="prefix__SVGID_58_"
                        d="M181.38 89.79c.02 47.44-39.85 85.92-89.06 85.94-49.2.02-89.1-38.43-89.12-85.88S43.06 3.93 92.26 3.91s89.1 38.43 89.12 85.88"/>
                </defs>
                <clipPath id="prefix__SVGID_59_">
                    <use xlinkHref="#prefix__SVGID_57_" overflow="visible"/>
                </clipPath>
                <clipPath id="prefix__SVGID_60_" clipPath="url(#prefix__SVGID_59_)">
                    <use xlinkHref="#prefix__SVGID_58_" overflow="visible"/>
                </clipPath>
                <g clipPath="url(#prefix__SVGID_60_)">
                    <path
                        d="M123.18 39.45c-2.24 1.97-4.36 4.61-4.88 7.63-.57 3.27.63 6.37 3.25 8.4 2.25 1.74 5.15 2.5 7.97 2.16 3.27-.39 6.21-1.84 8.99-3.56 1.32-.82 1.95-2.7 1.07-4.07-.85-1.33-2.66-1.94-4.07-1.07-1.01.63-2.03 1.23-3.11 1.76-.1.05-1.11.48-.54.26-.26.1-.51.2-.76.29-.52.17-1.03.32-1.56.43-.18.04-.36.07-.53.1.35-.04.34-.05-.01-.01-.26.01-.51.03-.75.03-.22 0-.44-.02-.65-.03-.66-.04.53.14-.07-.01-.41-.1-1.13-.15-1.47-.42.34.15.41.18.21.09-.1-.05-.2-.09-.29-.14-.23-.12-.44-.25-.65-.38-.63-.42.25.3-.16-.11-.15-.15-.31-.29-.46-.44l-.21-.24c-.14-.17-.09-.11.15.19-.17-.05-.26-.51-.38-.63-.1-.2-.07-.12.08.23-.05-.13-.1-.27-.14-.41-.05-.17-.15-.85-.08-.16-.02-.25-.03-.49-.03-.73 0-.16.02-.33.03-.49-.05.35-.05.41-.01.19.1-.26.16-.56.23-.83.17-.59-.24.38.09-.21.28-.5.54-.97.86-1.43l.23-.32c-.2.26-.19.26.03-.01.18-.19.35-.4.53-.59.42-.45.85-.85 1.31-1.26 1.17-1.03 1.13-3.17 0-4.21-1.27-1.15-2.97-1.1-4.22 0z"/>
                </g>
            </g>
            <g>
                <defs>
                    <path
                        id="prefix__SVGID_61_"
                        d="M181.38 89.79c.02 47.44-39.85 85.92-89.06 85.94-49.2.02-89.1-38.43-89.12-85.88S43.06 3.93 92.26 3.91s89.1 38.43 89.12 85.88"/>
                </defs>
                <clipPath id="prefix__SVGID_62_">
                    <use xlinkHref="#prefix__SVGID_61_" overflow="visible"/>
                </clipPath>
                <defs>
                    <path
                        id="prefix__SVGID_63_"
                        d="M181.38 89.79c.02 47.44-39.85 85.92-89.06 85.94-49.2.02-89.1-38.43-89.12-85.88S43.06 3.93 92.26 3.91s89.1 38.43 89.12 85.88"/>
                </defs>
                <defs>
                    <path
                        id="prefix__SVGID_64_"
                        d="M181.38 89.79c.02 47.44-39.85 85.92-89.06 85.94-49.2.02-89.1-38.43-89.12-85.88S43.06 3.93 92.26 3.91s89.1 38.43 89.12 85.88"/>
                </defs>
                <clipPath id="prefix__SVGID_65_">
                    <use xlinkHref="#prefix__SVGID_63_" overflow="visible"/>
                </clipPath>
                <clipPath id="prefix__SVGID_66_" clipPath="url(#prefix__SVGID_65_)">
                    <use xlinkHref="#prefix__SVGID_64_" overflow="visible"/>
                </clipPath>
                <g clipPath="url(#prefix__SVGID_66_)">
                    <path
                        d="M142.65 114.38c7.1 9.14 19.15 14.06 30.6 12.28 5.79-.89 11.37-3.8 14.84-8.61 1.75-2.42 2.89-5.45 2.83-8.45-.06-3.28-1.51-6.2-3.5-8.73-4.18-5.31-10.16-9.47-16.27-12.23-1.47-.66-3.2-.42-4.07 1.07-.74 1.27-.41 3.4 1.07 4.07 4.73 2.13 9.06 5.02 12.74 8.7 1.58 1.58 3.2 3.36 3.83 5.56.59 2.03.08 4.04-.99 5.84-2.36 3.99-6.87 6.1-11.27 6.92-4.48.82-9.12.12-13.37-1.47-4.85-1.81-9.05-5.09-12.21-9.16-.99-1.27-3.17-1.04-4.21 0-1.27 1.27-1.01 2.94-.02 4.21z"/>
                </g>
            </g>
            <g>
                <defs>
                    <path
                        id="prefix__SVGID_67_"
                        d="M181.38 89.79c.02 47.44-39.85 85.92-89.06 85.94-49.2.02-89.1-38.43-89.12-85.88S43.06 3.93 92.26 3.91s89.1 38.43 89.12 85.88"/>
                </defs>
                <clipPath id="prefix__SVGID_68_">
                    <use xlinkHref="#prefix__SVGID_67_" overflow="visible"/>
                </clipPath>
                <defs>
                    <path
                        id="prefix__SVGID_69_"
                        d="M181.38 89.79c.02 47.44-39.85 85.92-89.06 85.94-49.2.02-89.1-38.43-89.12-85.88S43.06 3.93 92.26 3.91s89.1 38.43 89.12 85.88"/>
                </defs>
                <defs>
                    <path
                        id="prefix__SVGID_70_"
                        d="M181.38 89.79c.02 47.44-39.85 85.92-89.06 85.94-49.2.02-89.1-38.43-89.12-85.88S43.06 3.93 92.26 3.91s89.1 38.43 89.12 85.88"/>
                </defs>
                <clipPath id="prefix__SVGID_71_">
                    <use xlinkHref="#prefix__SVGID_69_" overflow="visible"/>
                </clipPath>
                <clipPath id="prefix__SVGID_72_" clipPath="url(#prefix__SVGID_71_)">
                    <use xlinkHref="#prefix__SVGID_70_" overflow="visible"/>
                </clipPath>
                <g clipPath="url(#prefix__SVGID_72_)">
                    <path
                        d="M165.77 101.27c4.09-.01 8.58-1.1 11.56-4.08 3.02-3.02 3.24-7.38 1.23-11.01-1.22-2.19-3.12-3.93-5.18-5.31-1.3-.86-3.35-.3-4.07 1.07-.79 1.5-.32 3.15 1.07 4.07.28.18.55.37.8.57-.41-.31-.04-.03.14.14.41.35.78.72 1.14 1.11.02.03.41.51.43.5-.25-.32-.27-.36-.08-.09.08.11.16.23.24.35.22.34.4.69.6 1.05.14.3.11.24-.07-.18.05.12.09.24.13.36.06.18.12.36.16.54.03.13.11.85.09.31-.02-.57.01.21.01.31.01.18-.01.35-.01.52 0 .53.17-.74-.02.06-.04.17-.1.33-.14.5-.14.55.36-.62.01-.01-.1.17-.19.35-.29.51-.05.07-.09.14-.14.21-.13.18-.06.1.21-.26-.3.18-.6.65-.87.89-.56.48.01-.01.02 0s-.6.4-.64.43c-.38.23-.77.42-1.17.62-.2.09-.13.06.23-.09-.13.05-.27.11-.4.16-.21.08-.42.15-.63.21-.51.16-1.02.29-1.54.4-.23.05-.46.08-.69.13-.34.05-.32.05.08-.01-.16.02-.32.04-.49.05-.58.05-1.15.07-1.74.07-1.56 0-3.05 1.37-2.98 2.98.09 1.56 1.32 2.93 3 2.92z"/>
                </g>
            </g>
            <g>
                <defs>
                    <path
                        id="prefix__SVGID_73_"
                        d="M181.38 89.79c.02 47.44-39.85 85.92-89.06 85.94-49.2.02-89.1-38.43-89.12-85.88S43.06 3.93 92.26 3.91s89.1 38.43 89.12 85.88"/>
                </defs>
                <clipPath id="prefix__SVGID_74_">
                    <use xlinkHref="#prefix__SVGID_73_" overflow="visible"/>
                </clipPath>
                <defs>
                    <path
                        id="prefix__SVGID_75_"
                        d="M181.38 89.79c.02 47.44-39.85 85.92-89.06 85.94-49.2.02-89.1-38.43-89.12-85.88S43.06 3.93 92.26 3.91s89.1 38.43 89.12 85.88"/>
                </defs>
                <defs>
                    <path
                        id="prefix__SVGID_76_"
                        d="M181.38 89.79c.02 47.44-39.85 85.92-89.06 85.94-49.2.02-89.1-38.43-89.12-85.88S43.06 3.93 92.26 3.91s89.1 38.43 89.12 85.88"/>
                </defs>
                <clipPath id="prefix__SVGID_77_">
                    <use xlinkHref="#prefix__SVGID_75_" overflow="visible"/>
                </clipPath>
                <clipPath id="prefix__SVGID_78_" clipPath="url(#prefix__SVGID_77_)">
                    <use xlinkHref="#prefix__SVGID_76_" overflow="visible"/>
                </clipPath>
                <g clipPath="url(#prefix__SVGID_78_)">
                    <path
                        d="M117.36 94.44c-4.19-3.92-6.75-5.42-11.38-9.89 8.79-5.78 22.49-14.1 30.11-19.7.7-.52 1.44-1.04 2.3-1.2 1.03-.19 2.07.17 3.06.53 7.87 2.87 10.09 3.72 17.96 6.59-8.9 24.02-17.96 50.39-27.06 73.49-.2.51-.4 1.09-.16 1.59.2.41.63.62 1.05.8 4.82 2.19 3.97 1.19 8.78 3.38-1.67 4.31-3.71 9.7-5.39 14.01-.21.55-.47 1.14-.99 1.41-.46.24-1 .16-1.51.07-5.74-1.01-11.33-2.76-16.9-4.5-7.79-2.44-15.58-4.88-23.36-7.31 1.89-6.23 2.89-10.36 6.58-15.72.3-.44.64-.9 1.16-1.04.51-.15 1.04.06 1.53.27l9.34 3.89c6.29-19.17 15.91-39.64 23.66-58.27-6.46 4.48-12.32 7.1-18.78 11.6z"
                        fill="#9e9e9e"/>
                    <path
                        d="M118.41 93.39c-3.68-3.42-7.75-6.4-11.38-9.89l-.3 2.34c6.62-4.36 13.36-8.51 20-12.83 3.08-2 6.15-4.03 9.14-6.17.67-.49 1.33-1.04 2.06-1.44 1.12-.61 2.22-.11 3.34.3 1.95.7 3.91 1.43 5.86 2.14 3.96 1.46 7.91 2.92 11.87 4.36l-1.04-1.84c-9.02 24.35-17.55 48.85-26.9 73.07-.55 1.42-.76 2.84.51 3.93 1.04.88 2.66 1.35 3.93 1.83 1.93.71 3.88 1.26 5.76 2.11-.23-.56-.46-1.12-.68-1.68-1.61 4.16-3.19 8.33-4.8 12.5-.19.5-.35 1.04-.59 1.52-.31.61-.48.47-1.13.36-1.24-.2-2.48-.49-3.7-.77-2.38-.56-4.73-1.21-7.07-1.9-9.71-2.89-19.36-6.03-29.02-9.06l1.04 1.84c1.27-4.22 2.41-8.49 4.56-12.37.57-1.01 1.15-2.08 1.87-3 .34-.43.17-.38.63-.24.65.2 1.29.54 1.92.79 2.59 1.08 5.19 2.16 7.78 3.24.76.32 1.61-.36 1.84-1.04 5.13-15.59 11.81-30.61 18.29-45.65 1.81-4.2 3.61-8.39 5.37-12.61.5-1.19-1.17-2.38-2.18-1.68-3.09 2.14-6.32 4.04-9.57 5.92-1.56.9-3.11 1.8-4.63 2.74-.79.49-1.58.98-2.35 1.49-.7.46-1.45 1.13-2.2 1.48-1.74.81-.23 3.37 1.5 2.57.7-.33 1.36-.93 2-1.35.77-.51 1.57-1 2.36-1.5 1.6-.98 3.21-1.91 4.83-2.86 3.25-1.89 6.49-3.78 9.57-5.92-.72-.56-1.46-1.12-2.18-1.68-6.3 15.12-13.16 30-19.03 45.3-1.65 4.29-3.2 8.6-4.64 12.96l1.84-1.04c-2.97-1.23-5.92-2.48-8.89-3.7-1.24-.52-2.47-.82-3.65.01-1.01.7-1.68 2.02-2.31 3.06-2.7 4.42-4.09 9.37-5.57 14.29-.24.79.29 1.6 1.04 1.84 8.31 2.6 16.63 5.22 24.95 7.81 3.99 1.24 8 2.45 12.07 3.36 1.66.37 4.09 1.29 5.72.51 1.54-.73 1.95-2.63 2.51-4.09 1.58-4.1 3.14-8.2 4.72-12.3.22-.56-.13-1.43-.68-1.68-1.71-.77-3.42-1.42-5.2-1.98-.81-.26-1.62-.55-2.4-.88-.31-.13-1.45-.47-1.51-.75-.12-.51.57-1.6.76-2.12 2.2-5.64 4.35-11.29 6.45-16.96 4.36-11.74 8.57-23.52 12.82-35.3 2.36-6.54 4.73-13.07 7.14-19.58.3-.79-.34-1.58-1.04-1.84a3520.9 3520.9 0 01-10.93-4.01c-1.89-.69-3.8-1.4-5.69-2.08-2.28-.83-4.44-1.68-6.74-.4-1.51.84-2.89 2.03-4.32 3.03-1.58 1.09-3.18 2.16-4.79 3.21-3.53 2.32-7.1 4.59-10.68 6.87-3.82 2.43-7.64 4.84-11.42 7.33-.78.52-1.02 1.65-.3 2.34 3.63 3.49 7.69 6.47 11.38 9.89 1.38 1.26 3.49-.84 2.08-2.15z"/>
                </g>
            </g>
            <g>
                <defs>
                    <path
                        id="prefix__SVGID_79_"
                        d="M181.38 89.79c.02 47.44-39.85 85.92-89.06 85.94-49.2.02-89.1-38.43-89.12-85.88S43.06 3.93 92.26 3.91s89.1 38.43 89.12 85.88"/>
                </defs>
                <clipPath id="prefix__SVGID_80_">
                    <use xlinkHref="#prefix__SVGID_79_" overflow="visible"/>
                </clipPath>
                <defs>
                    <path
                        id="prefix__SVGID_81_"
                        d="M181.38 89.79c.02 47.44-39.85 85.92-89.06 85.94-49.2.02-89.1-38.43-89.12-85.88S43.06 3.93 92.26 3.91s89.1 38.43 89.12 85.88"/>
                </defs>
                <defs>
                    <path
                        id="prefix__SVGID_82_"
                        d="M181.38 89.79c.02 47.44-39.85 85.92-89.06 85.94-49.2.02-89.1-38.43-89.12-85.88S43.06 3.93 92.26 3.91s89.1 38.43 89.12 85.88"/>
                </defs>
                <clipPath id="prefix__SVGID_83_">
                    <use xlinkHref="#prefix__SVGID_81_" overflow="visible"/>
                </clipPath>
                <clipPath id="prefix__SVGID_84_" clipPath="url(#prefix__SVGID_83_)">
                    <use xlinkHref="#prefix__SVGID_82_" overflow="visible"/>
                </clipPath>
                <g clipPath="url(#prefix__SVGID_84_)">
                    <path
                        d="M93.89 44.65c-1.14-4.9-2.71-9.84-5.87-13.56-1.79-2.1-4.09-6.31-6.6-7.33l-2.56-1.24c-7.3-3.64-16.96-6.9-33.06 2.06-7.3 4.07-12.09 12.03-15.83 19.83-5.88 12.27-8.79 26.37-6.55 39.71s10.03 25.72 21.51 31.45c11.48 5.73 26.52 3.89 35.89-5.68 5.47-5.59 8.71-13.19 10.94-20.84 5.03-17.14 6.12-27.22 2.13-44.4zM73.92 78.7c-1.14 4.04-2.73 8.07-5.3 11.08-4.41 5.16-11.27 6.36-16.39 3.54s-8.46-9.17-9.27-16.12c-.8-6.94.73-14.38 3.6-20.88 1.83-4.15 4.13-8.38 7.5-10.64 7.45-4.95 11.79-3.4 15.04-1.61l1.14.61c1.12.5 2.09 2.66 2.88 3.73 1.38 1.89 2.01 4.45 2.45 7 1.55 8.94.9 14.23-1.65 23.29z"
                        fill="#bfbfbf"/>
                    <path
                        d="M95.33 44.25c-1.16-4.95-2.76-9.9-5.99-13.91-2.39-2.96-4.19-6.44-7.73-8.16-5.45-2.63-10.79-4.93-16.99-4.87-4.29.04-8.52 1.05-12.5 2.62-4.8 1.89-9.41 4.3-13.09 7.97-3.43 3.43-6.11 7.59-8.38 11.86-2.47 4.63-4.59 9.47-6.17 14.49-5.94 18.83-4.25 41.34 10.4 55.86 6.37 6.31 14.79 10.13 23.81 10.2 9.08.07 18.1-3.6 24.18-10.42 7.06-7.91 10.13-18.54 12.55-28.63 1.15-4.79 2.01-9.66 2.29-14.58.27-4.83-.08-9.65-.81-14.43-.42-2.68-.97-5.35-1.57-8-.43-1.87-3.3-1.07-2.87.79 2.13 9.26 3.08 18.61 1.59 28.05-.77 4.87-2 9.66-3.36 14.41-1.35 4.71-2.95 9.37-5.32 13.67-2.23 4.06-5.13 7.83-8.9 10.57-3.35 2.44-7.19 4.11-11.25 4.96-8.16 1.73-16.7-.06-23.54-4.77-15.59-10.73-19.79-31.59-16.3-49.17 1.9-9.57 5.76-19.02 11.22-27.12 2.47-3.66 5.5-7.08 9.32-9.38 4.09-2.45 8.63-4.37 13.29-5.35 6.15-1.29 12.18-.3 17.83 2.37 2.29 1.08 4.56 1.97 6.24 3.95 1.29 1.54 2.35 3.25 3.61 4.8 1.52 1.86 2.69 3.95 3.56 6.18.86 2.22 1.48 4.52 2.02 6.84.43 1.86 3.29 1.06 2.86-.8z"/>
                    <path
                        d="M72.48 78.3c-1.28 4.49-3.08 9.27-6.83 12.29-2.98 2.4-7.03 3.36-10.72 2.26-8.35-2.5-10.97-13.22-10.67-20.81.19-4.84 1.39-9.64 3.22-14.12 1.7-4.13 3.87-8.72 7.74-11.21 2.92-1.88 6.46-3.48 9.99-2.63 1.13.28 2.14.75 3.17 1.3.41.22.85.4 1.23.65.71.49 1.13 1.38 1.57 2.09.6.98 1.29 1.89 1.74 2.96.52 1.24.82 2.57 1.08 3.88.52 2.66.84 5.36.91 8.06.13 5.23-1.03 10.28-2.43 15.28-.52 1.85 2.35 2.64 2.87.79 1.41-5.06 2.59-10.21 2.54-15.49-.03-2.72-.35-5.43-.79-8.12-.43-2.58-1-5.28-2.46-7.51-1.05-1.62-1.95-3.61-3.68-4.61-1.13-.65-2.32-1.26-3.55-1.73-3.63-1.37-7.42-.71-10.85.9-2.38 1.12-4.61 2.61-6.33 4.61-1.68 1.96-2.97 4.21-4.08 6.52-2.39 4.98-4.06 10.24-4.66 15.74-1 9.08 1.49 21.14 10.59 25.49 4.5 2.15 9.87 1.68 14.05-1.01 5.13-3.3 7.61-9.16 9.23-14.81.52-1.82-2.35-2.62-2.88-.77z"/>
                </g>
            </g>
            <g>
                <defs>
                    <path
                        id="prefix__SVGID_85_"
                        d="M181.38 89.79c.02 47.44-39.85 85.92-89.06 85.94-49.2.02-89.1-38.43-89.12-85.88S43.06 3.93 92.26 3.91s89.1 38.43 89.12 85.88"/>
                </defs>
                <clipPath id="prefix__SVGID_86_">
                    <use xlinkHref="#prefix__SVGID_85_" overflow="visible"/>
                </clipPath>
                <defs>
                    <path
                        id="prefix__SVGID_87_"
                        d="M181.38 89.79c.02 47.44-39.85 85.92-89.06 85.94-49.2.02-89.1-38.43-89.12-85.88S43.06 3.93 92.26 3.91s89.1 38.43 89.12 85.88"/>
                </defs>
                <defs>
                    <path
                        id="prefix__SVGID_88_"
                        d="M181.38 89.79c.02 47.44-39.85 85.92-89.06 85.94-49.2.02-89.1-38.43-89.12-85.88S43.06 3.93 92.26 3.91s89.1 38.43 89.12 85.88"/>
                </defs>
                <clipPath id="prefix__SVGID_89_">
                    <use xlinkHref="#prefix__SVGID_87_" overflow="visible"/>
                </clipPath>
                <clipPath id="prefix__SVGID_90_" clipPath="url(#prefix__SVGID_89_)">
                    <use xlinkHref="#prefix__SVGID_88_" overflow="visible"/>
                </clipPath>
                <g clipPath="url(#prefix__SVGID_90_)">
                    <path
                        d="M139.38 71.5c-.02-.01-.03-.02-.05-.03.1.08.2.16.3.23-.12-.1-.22-.2-.32-.32.08.1.16.2.23.3-.09-.12-.17-.25-.23-.39l.15.36c-.07-.18-.12-.36-.15-.55.04.14.06.26.07.4a1.77 1.77 0 010-.46c-.02.13-.04.27-.05.4.02-.15.06-.3.11-.44-.48.37-.95.72-1.44 1.09.11 0 .23.01.34.02a5.46 5.46 0 00-.4-.05c.21.03.41.09.6.17l-.36-.15c.19.08.37.18.54.31-.1-.08-.2-.16-.3-.23.13.11.25.22.35.35-.08-.1-.16-.2-.23-.3.09.12.16.24.22.38l-.15-.36c.05.12.08.23.1.36a5.46 5.46 0 01-.05-.4c.02.14.02.27 0 .41.02-.13.04-.27.05-.4-.02.14-.06.27-.11.4l.15-.36c-.06.14-.14.28-.23.4.08-.1.16-.2.23-.3-.08.09-.16.18-.25.25.1-.08.2-.16.3-.23-.09.07-.19.13-.3.18l.36-.15c-.09.04-.19.06-.29.08.13-.02.27-.04.4-.05-.1.01-.19.01-.29 0 .13.02.27.04.4.05-.16-.02-.31-.06-.46-.13l.36.15c-.17-.08-.33-.17-.48-.28.1.08.2.16.3.23a2.04 2.04 0 01-.41-.42c.08.1.16.2.23.3a2.98 2.98 0 01-.34-.6l.15.36c-.09-.22-.15-.44-.18-.66.02.13.04.27.05.4-.03-.23-.03-.45-.01-.67-.02.13-.04.27-.05.4.03-.19.07-.37.14-.54l-.15.36c.06-.14.14-.28.23-.4-.08.1-.16.2-.23.3.09-.11.19-.21.3-.3-.1.08-.2.16-.3.23.1-.07.2-.14.31-.18l-.36.15c.11-.04.22-.07.33-.09-.13.02-.27.04-.4.05.13-.01.26-.01.38 0a5.46 5.46 0 00-.4-.05c.16.02.31.07.46.13l-.36-.15c.16.07.32.16.46.27-.1-.08-.2-.16-.3-.23.14.11.26.23.37.37-.08-.1-.16-.2-.23-.3.08.11.16.23.21.36l-.15-.36c.05.11.08.23.1.35a5.46 5.46 0 01-.05-.4c.01.09.01.18 0 .28.02-.13.04-.27.05-.4-.01.1-.04.18-.07.27l.15-.36c-.09.21-.2.41-.3.62l.15-.36c-.02.05-.05.09-.08.14.08-.1.16-.2.23-.3-.05.06-.1.12-.17.17.1-.08.2-.16.3-.23-.06.05-.13.08-.21.12l.36-.15c-.09.03-.18.06-.27.07.13-.02.27-.04.4-.05-.11.01-.22.01-.33 0 .13.02.27.04.4.05-.11-.01-.21-.04-.32-.08l.36.15a.946.946 0 01-.24-.14c.1.08.2.16.3.23a.912.912 0 01-.17-.17c.08.1.16.2.23.3a.95.95 0 01-.1-.17l.15.36c-.01-.04-.03-.08-.04-.12-.2-.75-1.07-1.29-1.84-1.04s-1.25 1.02-1.04 1.84c.29 1.08 1.28 1.71 2.35 1.77.47.03.95-.1 1.36-.32.2-.1.39-.25.54-.41.27-.29.4-.56.55-.91l-.15.36c.27-.38.39-.85.41-1.31.03-.47-.12-.89-.31-1.31-.28-.61-.83-1.14-1.41-1.45-.71-.38-1.61-.57-2.39-.3-.87.29-1.53.93-1.89 1.77-.61 1.45-.21 3.22.9 4.33.77.76 1.88 1.19 2.96.94.99-.23 1.72-1.07 2.03-2 .37-1.07.01-2.23-.73-3.05-.69-.75-1.76-1.15-2.76-1.16-.33 0-.64.12-.9.32-.28.21-.41.45-.54.77-.24.62-.23 1.38-.04 2.01.1.32.23.63.42.91.28.41.54.64.93.93.29.22.81.24 1.15.15.35-.1.72-.36.89-.68.18-.35.28-.76.15-1.15l-.15-.36c-.08-.18-.26-.36-.49-.5z"/>
                </g>
            </g>
            <g>
                <defs>
                    <path
                        id="prefix__SVGID_91_"
                        d="M181.38 89.79c.02 47.44-39.85 85.92-89.06 85.94-49.2.02-89.1-38.43-89.12-85.88S43.06 3.93 92.26 3.91s89.1 38.43 89.12 85.88"/>
                </defs>
                <clipPath id="prefix__SVGID_92_">
                    <use xlinkHref="#prefix__SVGID_91_" overflow="visible"/>
                </clipPath>
                <defs>
                    <path
                        id="prefix__SVGID_93_"
                        d="M181.38 89.79c.02 47.44-39.85 85.92-89.06 85.94-49.2.02-89.1-38.43-89.12-85.88S43.06 3.93 92.26 3.91s89.1 38.43 89.12 85.88"/>
                </defs>
                <defs>
                    <path
                        id="prefix__SVGID_94_"
                        d="M181.38 89.79c.02 47.44-39.85 85.92-89.06 85.94-49.2.02-89.1-38.43-89.12-85.88S43.06 3.93 92.26 3.91s89.1 38.43 89.12 85.88"/>
                </defs>
                <clipPath id="prefix__SVGID_95_">
                    <use xlinkHref="#prefix__SVGID_93_" overflow="visible"/>
                </clipPath>
                <clipPath id="prefix__SVGID_96_" clipPath="url(#prefix__SVGID_95_)">
                    <use xlinkHref="#prefix__SVGID_94_" overflow="visible"/>
                </clipPath>
                <g clipPath="url(#prefix__SVGID_96_)">
                    <path
                        d="M148.68 72.86c-.06-.04-.12-.07-.18-.12.1.08.2.16.3.23-.1-.08-.18-.16-.26-.26.08.1.16.2.23.3-.06-.09-.11-.18-.16-.27l.15.36c-.05-.12-.08-.23-.1-.35.02.13.04.27.05.4 0-.02 0-.04-.01-.05-.15.35-.29.7-.44 1.05l.03-.03c-.1.08-.2.16-.3.23.05-.04.1-.07.16-.09l-.36.15.09-.03c-.13.02-.27.04-.4.05.04 0 .07-.01.11 0a5.46 5.46 0 00-.4-.05c.03.01.05.01.07.02l-.36-.15c.02.01.04.02.06.04-.1-.08-.2-.16-.3-.23.03.02.05.05.07.08-.08-.1-.16-.2-.23-.3.03.04.05.08.07.13l-.15-.36c.03.08.05.15.06.23a5.46 5.46 0 01-.05-.4c.02.13.02.27 0 .4.02-.13.04-.27.05-.4-.02.14-.06.28-.11.42l.15-.36c-.04.1-.09.19-.15.27l.54-.54c-.17.12-.35.23-.54.31l.36-.15c-.11.04-.23.08-.35.1.13-.02.27-.04.4-.05-.1.01-.19.01-.29 0 .13.02.27.04.4.05-.1-.02-.19-.04-.28-.08l.36.15c-.14-.06-.27-.14-.39-.24.1.08.2.16.3.23-.23-.18-.44-.39-.63-.61.08.1.16.2.23.3-.11-.14-.2-.29-.27-.46l.15.36c-.07-.18-.12-.36-.15-.55.02.13.04.27.05.4-.03-.21-.03-.41 0-.62-.02.13-.04.27-.05.4.03-.2.08-.4.16-.59l-.15.36c.06-.15.14-.28.24-.41-.08.1-.16.2-.23.3.09-.11.19-.22.3-.31-.1.08-.2.16-.3.23.12-.09.24-.16.37-.22l-.36.15c.13-.05.26-.09.4-.11-.13.02-.27.04-.4.05.15-.02.31-.02.46 0a5.46 5.46 0 00-.4-.05c.18.03.36.08.53.15l-.36-.15c.16.07.3.15.44.26-.1-.08-.2-.16-.3-.23.12.09.23.2.33.32-.08-.1-.16-.2-.23-.3.08.11.15.23.21.35l-.15-.36c.05.12.08.23.1.36a5.46 5.46 0 01-.05-.4c.01.12.01.24 0 .36.02-.13.04-.27.05-.4-.02.12-.05.24-.1.36l.15-.36c-.06.13-.12.25-.21.36.08-.1.16-.2.23-.3-.1.12-.21.23-.33.33.1-.08.2-.16.3-.23-.13.1-.26.18-.4.24l.36-.15c-.14.06-.29.1-.45.13.13-.02.27-.04.4-.05-.12.01-.24.02-.37 0 .13.02.27.04.4.05-.12-.02-.24-.05-.35-.09l.36.15a1.35 1.35 0 01-.33-.19c.1.08.2.16.3.23-.1-.08-.19-.17-.27-.27.08.1.16.2.23.3-.1-.13-.17-.26-.24-.4l.15.36c-.06-.15-.1-.3-.13-.45.02.13.04.27.05.4-.02-.16-.02-.31 0-.47-.02.13-.04.27-.05.4.02-.14.06-.28.11-.41l-.15.36c.05-.1.1-.2.17-.29-.43.25-.85.5-1.29.73.12-.01.23-.01.34.01a5.46 5.46 0 00-.4-.05c.11.02.22.05.33.09l-.36-.15c.14.06.26.13.38.22-.1-.08-.2-.16-.3-.23.1.08.19.18.28.28-.08-.1-.16-.2-.23-.3.07.09.13.19.18.29l-.15-.36c.05.11.08.21.1.33.06.35.39.71.68.89.32.19.79.27 1.15.15.36-.12.7-.34.89-.68.2-.38.23-.73.15-1.15-.02-.11-.05-.21-.09-.31-.08-.21-.16-.43-.29-.62-.27-.39-.55-.66-.93-.93-.09-.06-.18-.11-.28-.15-.21-.09-.42-.19-.63-.24-.22-.04-.44-.08-.66-.08-.12 0-.23.02-.35.03-.19.03-.39.08-.56.18-.23.13-.39.33-.54.54-.35.48-.53 1.15-.5 1.74.03.61.2 1.24.56 1.74.43.59.99 1.08 1.73 1.24.76.17 1.53.05 2.21-.32.55-.29 1.06-.79 1.32-1.36.2-.42.31-.79.33-1.26.01-.21-.03-.43-.06-.63-.02-.1-.04-.19-.07-.28-.15-.43-.34-.73-.62-1.08-.19-.23-.42-.41-.65-.58-.51-.37-1.13-.53-1.75-.59-.6-.05-1.25.11-1.76.42-.52.32-.97.79-1.22 1.34-.26.58-.43 1.18-.39 1.82.05.63.2 1.25.55 1.79.76 1.14 2.14 2.14 3.57 1.68.34-.11.66-.26.95-.47.27-.19.51-.41.66-.7.1-.19.19-.4.25-.6.1-.29.14-.62.14-.91 0-.35-.07-.67-.2-.99-.17-.39-.42-.73-.79-.94a1.81 1.81 0 00-1.42-.16c-.18.06-.37.14-.53.25-.23.17-.41.32-.57.57-.24.38-.21.78-.14 1.2.02.11.05.22.09.33.09.22.17.44.31.63.27.38.58.69.98.93.34.19.77.26 1.15.15.35-.1.71-.36.89-.68.46-.72.27-1.64-.46-2.05z"/>
                </g>
            </g>
            <g>
                <defs>
                    <path
                        id="prefix__SVGID_97_"
                        d="M181.38 89.79c.02 47.44-39.85 85.92-89.06 85.94-49.2.02-89.1-38.43-89.12-85.88S43.06 3.93 92.26 3.91s89.1 38.43 89.12 85.88"/>
                </defs>
                <clipPath id="prefix__SVGID_98_">
                    <use xlinkHref="#prefix__SVGID_97_" overflow="visible"/>
                </clipPath>
                <defs>
                    <path
                        id="prefix__SVGID_99_"
                        d="M181.38 89.79c.02 47.44-39.85 85.92-89.06 85.94-49.2.02-89.1-38.43-89.12-85.88S43.06 3.93 92.26 3.91s89.1 38.43 89.12 85.88"/>
                </defs>
                <defs>
                    <path
                        id="prefix__SVGID_100_"
                        d="M181.38 89.79c.02 47.44-39.85 85.92-89.06 85.94-49.2.02-89.1-38.43-89.12-85.88S43.06 3.93 92.26 3.91s89.1 38.43 89.12 85.88"/>
                </defs>
                <clipPath id="prefix__SVGID_101_">
                    <use xlinkHref="#prefix__SVGID_99_" overflow="visible"/>
                </clipPath>
                <clipPath id="prefix__SVGID_102_" clipPath="url(#prefix__SVGID_101_)">
                    <use xlinkHref="#prefix__SVGID_100_" overflow="visible"/>
                </clipPath>
                <g clipPath="url(#prefix__SVGID_102_)">
                    <path
                        d="M114.74 91.13c4.48-1.39 8.36-4.5 10.64-8.63.39-.7.17-1.63-.54-2.03-.68-.4-1.65-.17-2.03.54-.25.46-.53.91-.81 1.34-.14.21-.29.41-.44.62-.06.08-.06.08.01 0l-.09.12c-.09.12-.19.23-.29.35a16.4 16.4 0 01-2.18 2.15c-.1.08-.2.16-.29.24.16-.12-.06.04-.12.09-.2.15-.41.29-.62.44-.44.29-.88.57-1.35.81-.44.24-.88.46-1.35.65.23-.1-.2.08-.2.08-.12.05-.24.09-.35.13-.26.09-.52.18-.78.26-.76.24-1.26 1.04-1.04 1.84.21.71 1.06 1.24 1.83 1z"/>
                </g>
            </g>
            <g>
                <defs>
                    <path
                        id="prefix__SVGID_103_"
                        d="M181.38 89.79c.02 47.44-39.85 85.92-89.06 85.94-49.2.02-89.1-38.43-89.12-85.88S43.06 3.93 92.26 3.91s89.1 38.43 89.12 85.88"/>
                </defs>
                <clipPath id="prefix__SVGID_104_">
                    <use xlinkHref="#prefix__SVGID_103_" overflow="visible"/>
                </clipPath>
                <defs>
                    <path
                        id="prefix__SVGID_105_"
                        d="M181.38 89.79c.02 47.44-39.85 85.92-89.06 85.94-49.2.02-89.1-38.43-89.12-85.88S43.06 3.93 92.26 3.91s89.1 38.43 89.12 85.88"/>
                </defs>
                <defs>
                    <path
                        id="prefix__SVGID_106_"
                        d="M181.38 89.79c.02 47.44-39.85 85.92-89.06 85.94-49.2.02-89.1-38.43-89.12-85.88S43.06 3.93 92.26 3.91s89.1 38.43 89.12 85.88"/>
                </defs>
                <clipPath id="prefix__SVGID_107_">
                    <use xlinkHref="#prefix__SVGID_105_" overflow="visible"/>
                </clipPath>
                <clipPath id="prefix__SVGID_108_" clipPath="url(#prefix__SVGID_107_)">
                    <use xlinkHref="#prefix__SVGID_106_" overflow="visible"/>
                </clipPath>
                <g clipPath="url(#prefix__SVGID_108_)">
                    <path
                        d="M52.26 29.95c.09.05.17.1.26.17-.1-.08-.2-.16-.3-.23.11.09.21.19.3.3-.08-.1-.16-.2-.23-.3.1.13.18.27.25.42l-.15-.36c.06.15.1.31.13.47a5.46 5.46 0 01-.05-.4c.02.14.02.28 0 .43l1.49-1.49c-.08 0-.16 0-.24-.01.13.02.27.04.4.05-.14-.02-.27-.06-.4-.11l.36.15c-.13-.06-.24-.13-.35-.21.1.08.2.16.3.23-.14-.11-.25-.23-.36-.37.08.1.16.2.23.3-.11-.15-.21-.32-.28-.49l.15.36c-.07-.18-.12-.36-.14-.55.02.13.04.27.05.4a1.77 1.77 0 010-.46c-.02.13-.04.27-.05.4.02-.14.05-.27.1-.4l-.15.36c.05-.11.11-.22.18-.32-.08.1-.16.2-.23.3.08-.1.16-.19.26-.27-.1.08-.2.16-.3.23.1-.07.2-.13.31-.18l-.36.15c.14-.06.28-.1.43-.12-.13.02-.27.04-.4.05.17-.02.33-.02.5 0a5.46 5.46 0 00-.4-.05c.2.03.39.08.58.16l-.36-.15c.17.07.33.17.48.28-.1-.08-.2-.16-.3-.23.12.09.23.2.32.32-.08-.1-.16-.2-.23-.3.08.11.15.22.21.34l-.15-.36c.05.13.09.26.11.39a5.46 5.46 0 01-.05-.4c.02.15.01.31-.01.46.02-.13.04-.27.05-.4-.03.15-.07.29-.12.44l.15-.36c-.08.18-.17.35-.29.51.08-.1.16-.2.23-.3-.12.15-.26.29-.42.41.1-.08.2-.16.3-.23-.13.09-.26.17-.41.24l.36-.15c-.19.08-.38.13-.59.16.13-.02.27-.04.4-.05-.2.02-.41.02-.61 0 .13.02.27.04.4.05-.22-.03-.43-.09-.63-.17l.36.15a2.43 2.43 0 01-.52-.3c.1.08.2.16.3.23-.13-.1-.25-.22-.35-.35.08.1.16.2.23.3-.1-.13-.19-.28-.25-.43l.15.36c-.05-.14-.09-.27-.11-.42.02.13.04.27.05.4a1.62 1.62 0 010-.44c-.02.13-.04.27-.05.4.03-.18.08-.36.15-.53l-.15.36c.08-.17.17-.33.28-.48-.08.1-.16.2-.23.3.11-.15.24-.28.39-.4-.1.08-.2.16-.3.23.15-.11.3-.2.47-.28l-.36.15c.13-.05.27-.09.41-.11-.13.02-.27.04-.4.05.15-.02.29-.02.43 0a5.46 5.46 0 00-.4-.05c.11.02.22.05.32.09l-.36-.15c.12.05.23.12.34.2-.1-.08-.2-.16-.3-.23.1.08.19.18.27.28-.08-.1-.16-.2-.23-.3.1.13.18.27.24.42l-.15-.36c.07.17.12.34.14.52a5.46 5.46 0 01-.05-.4c.02.18.03.35.01.53.02-.13.04-.27.05-.4-.02.16-.06.31-.12.46l.15-.36c-.05.1-.1.2-.17.29.08-.1.16-.2.23-.3-.07.09-.15.17-.24.24.1-.08.2-.16.3-.23-.05.04-.1.07-.15.1.25-.07.5-.14.75-.2h-.05c.13.02.27.04.4.05a.737.737 0 01-.14-.04l.36.15a.218.218 0 01-.08-.05c.1.08.2.16.3.23-.04-.03-.07-.06-.11-.1.08.1.16.2.23.3-.03-.04-.05-.08-.08-.13l.15.36a.737.737 0 01-.04-.14c.02.13.04.27.05.4a.379.379 0 010-.15c-.02.13-.04.27-.05.4.01-.03.01-.06.03-.09l-.15.36c.01-.01.01-.03.02-.04.18-.36.26-.74.15-1.15-.1-.35-.36-.71-.68-.89-.67-.36-1.67-.21-2.03.54-.32.63-.33 1.29-.01 1.92.24.48.71.85 1.22.99.44.12.92.07 1.31-.16.18-.11.34-.24.5-.38.22-.2.41-.45.54-.7.27-.54.42-1.14.36-1.75-.07-.61-.22-1.21-.58-1.71-.43-.59-.98-1.06-1.7-1.24-.78-.2-1.61-.07-2.31.33-1.34.74-2.05 2.34-1.74 3.83.27 1.27 1.47 2.28 2.71 2.53.65.13 1.35.15 1.98-.06.8-.27 1.42-.75 1.9-1.44.87-1.23.75-2.98-.32-4.04-.87-.85-2.26-1.28-3.44-.89-1.31.42-2.24 1.71-2.09 3.11.07.63.24 1.24.62 1.77.45.62.98 1.05 1.7 1.31.3.11.63.15.94.14.37-.01.79-.16 1.05-.44.29-.31.39-.63.44-1.05.07-.61-.12-1.24-.4-1.78-.28-.53-.74-.99-1.26-1.28-.68-.38-1.66-.19-2.03.54-.43.65-.26 1.59.47 1.99z"/>
                </g>
            </g>
            <g>
                <defs>
                    <path
                        id="prefix__SVGID_109_"
                        d="M181.38 89.79c.02 47.44-39.85 85.92-89.06 85.94-49.2.02-89.1-38.43-89.12-85.88S43.06 3.93 92.26 3.91s89.1 38.43 89.12 85.88"/>
                </defs>
                <clipPath id="prefix__SVGID_110_">
                    <use xlinkHref="#prefix__SVGID_109_" overflow="visible"/>
                </clipPath>
                <defs>
                    <path
                        id="prefix__SVGID_111_"
                        d="M181.38 89.79c.02 47.44-39.85 85.92-89.06 85.94-49.2.02-89.1-38.43-89.12-85.88S43.06 3.93 92.26 3.91s89.1 38.43 89.12 85.88"/>
                </defs>
                <defs>
                    <path
                        id="prefix__SVGID_112_"
                        d="M181.38 89.79c.02 47.44-39.85 85.92-89.06 85.94-49.2.02-89.1-38.43-89.12-85.88S43.06 3.93 92.26 3.91s89.1 38.43 89.12 85.88"/>
                </defs>
                <clipPath id="prefix__SVGID_113_">
                    <use xlinkHref="#prefix__SVGID_111_" overflow="visible"/>
                </clipPath>
                <clipPath id="prefix__SVGID_114_" clipPath="url(#prefix__SVGID_113_)">
                    <use xlinkHref="#prefix__SVGID_112_" overflow="visible"/>
                </clipPath>
                <g clipPath="url(#prefix__SVGID_114_)">
                    <path
                        d="M73.04 28.04c-.03-.05-.05-.1-.08-.15l.15.36a.898.898 0 01-.07-.27c.02.13.04.27.05.4a1.71 1.71 0 010-.32c-.02.13-.04.27-.05.4.02-.12.05-.24.09-.36l-.15.36c.05-.13.12-.25.21-.36-.08.1-.16.2-.23.3.07-.09.15-.16.23-.23-.1.08-.2.16-.3.23.09-.07.18-.12.28-.16l-.36.15c.1-.04.19-.06.29-.07-.13.02-.27.04-.4.05.11-.01.21-.01.32.01a5.46 5.46 0 00-.4-.05c.11.02.21.05.31.09l-.36-.15c.13.06.25.12.36.21-.1-.08-.2-.16-.3-.23.11.09.21.19.3.3-.08-.1-.16-.2-.23-.3.07.1.14.21.19.32l-.15-.36c.05.12.08.24.1.36a5.46 5.46 0 01-.05-.4c.01.11.01.22 0 .33.02-.13.04-.27.05-.4-.02.14-.06.28-.11.41l.15-.36c-.06.13-.13.25-.22.37.08-.1.16-.2.23-.3-.09.11-.19.21-.31.3.1-.08.2-.16.3-.23-.12.09-.24.16-.37.22l.36-.15c-.13.06-.27.1-.41.12.13-.02.27-.04.4-.05-.15.02-.29.02-.44 0 .13.02.27.04.4.05a1.93 1.93 0 01-.47-.13l.36.15c-.17-.07-.32-.16-.46-.27.1.08.2.16.3.23-.13-.1-.24-.22-.35-.35.08.1.16.2.23.3-.1-.13-.18-.27-.25-.42l.15.36c-.06-.14-.1-.28-.12-.43.02.13.04.27.05.4-.02-.16-.02-.33 0-.49-.02.13-.04.27-.05.4.02-.16.06-.32.12-.47l-.15.36c.06-.13.13-.26.22-.38-.08.1-.16.2-.23.3.07-.09.15-.17.24-.24-.1.08-.2.16-.3.23.09-.07.19-.13.3-.18l-.36.15c.08-.03.16-.05.24-.07-.13.02-.27.04-.4.05.11-.01.22-.01.34 0a5.46 5.46 0 00-.4-.05c.11.02.22.05.33.09l-.36-.15c.12.05.23.11.33.19-.1-.08-.2-.16-.3-.23.09.07.16.15.23.24-.08-.1-.16-.2-.23-.3.06.08.1.16.14.25l-.15-.36c.03.08.05.15.06.23a5.46 5.46 0 01-.05-.4c.01.08.01.16 0 .25.02-.13.04-.27.05-.4-.01.06-.03.12-.05.18l.15-.36c-.03.06-.05.11-.09.16.08-.1.16-.2.23-.3-.03.04-.06.07-.1.1.1-.08.2-.16.3-.23-.04.03-.07.05-.12.07l.36-.15c-.03.01-.06.02-.09.02.13-.02.27-.04.4-.05h-.09c.13.02.27.04.4.05-.03-.01-.06-.01-.08-.03l.36.15c-.03-.01-.05-.03-.07-.04.1.08.2.16.3.23l-.06-.06c.08.1.16.2.23.3a.161.161 0 01-.04-.07l.15.36a.188.188 0 01-.02-.08c.02.13.04.27.05.4v-.04c-.02.13-.04.27-.05.4 0-.01.01-.03.01-.04.09-.39.05-.8-.15-1.15-.18-.31-.54-.61-.89-.68-.38-.09-.81-.07-1.15.15-.32.21-.6.51-.68.89-.14.6-.01 1.23.43 1.68.35.36.81.56 1.31.58.9.04 1.67-.69 1.89-1.53.17-.62.06-1.26-.24-1.82-.23-.43-.64-.81-1.06-1.04-.45-.24-.97-.4-1.48-.35-.64.06-1.2.29-1.68.72-.66.6-1.05 1.61-.97 2.49.05.55.17 1.05.47 1.53s.68.85 1.15 1.15c.48.31 1.01.45 1.57.5.56.05 1.1-.11 1.6-.35.99-.48 1.63-1.53 1.71-2.61.08-1.07-.59-2.13-1.5-2.66-.63-.36-1.31-.46-2.01-.33-.5.09-1.02.41-1.36.78-.8.9-1.08 2.23-.44 3.31.19.33.53.59.89.68.36.1.83.05 1.15-.15.65-.45.94-1.35.52-2.06z"/>
                </g>
            </g>
            <g>
                <defs>
                    <path
                        id="prefix__SVGID_115_"
                        d="M181.38 89.79c.02 47.44-39.85 85.92-89.06 85.94-49.2.02-89.1-38.43-89.12-85.88S43.06 3.93 92.26 3.91s89.1 38.43 89.12 85.88"/>
                </defs>
                <clipPath id="prefix__SVGID_116_">
                    <use xlinkHref="#prefix__SVGID_115_" overflow="visible"/>
                </clipPath>
                <defs>
                    <path
                        id="prefix__SVGID_117_"
                        d="M181.38 89.79c.02 47.44-39.85 85.92-89.06 85.94-49.2.02-89.1-38.43-89.12-85.88S43.06 3.93 92.26 3.91s89.1 38.43 89.12 85.88"/>
                </defs>
                <defs>
                    <path
                        id="prefix__SVGID_118_"
                        d="M181.38 89.79c.02 47.44-39.85 85.92-89.06 85.94-49.2.02-89.1-38.43-89.12-85.88S43.06 3.93 92.26 3.91s89.1 38.43 89.12 85.88"/>
                </defs>
                <clipPath id="prefix__SVGID_119_">
                    <use xlinkHref="#prefix__SVGID_117_" overflow="visible"/>
                </clipPath>
                <clipPath id="prefix__SVGID_120_" clipPath="url(#prefix__SVGID_119_)">
                    <use xlinkHref="#prefix__SVGID_118_" overflow="visible"/>
                </clipPath>
                <g clipPath="url(#prefix__SVGID_120_)">
                    <path
                        d="M59.07 33.57c-.06 2.03 1.4 3.84 3.28 4.47 1.95.65 4.03-.35 5.08-2.02.63-.99.78-2.12.6-3.26-.13-.77-1.12-1.27-1.84-1.04-.83.27-1.18 1-1.04 1.84.05.27-.02-.4-.01.01v.25c-.02.41.07-.25 0 .01l-.06.24c-.02.07-.07.16-.08.23.1-.23.12-.27.05-.13-.02.05-.05.1-.07.15-.04.07-.08.15-.12.22-.03.05-.06.09-.09.14-.09.13-.06.09.08-.1-.14.1-.24.27-.37.39-.26.24.25-.16.01 0-.07.05-.14.09-.21.14-.08.05-.22.09-.29.15l.21-.09-.15.06c-.09.03-.18.05-.28.07-.35.08.32 0 .03 0-.08 0-.17.01-.25.01-.42-.01.24.06-.02.01-.18-.04-.35-.09-.52-.15-.11-.04-.05-.02.17.07-.05-.02-.1-.05-.15-.07-.07-.04-.15-.08-.22-.13-.12-.08-.33-.32-.04-.01-.06-.06-.13-.11-.19-.17-.08-.08-.16-.16-.23-.24-.19-.2.18.28.03.04-.1-.15-.18-.37-.29-.51.09.22.11.27.07.17-.02-.04-.03-.08-.04-.12-.04-.11-.06-.21-.09-.32-.07-.27.02.36.01.07 0-.11-.01-.22-.01-.34.02-.78-.7-1.53-1.49-1.49-.81.01-1.44.62-1.47 1.45z"/>
                </g>
            </g>
            <g>
                <defs>
                    <path
                        id="jdkasjda87d"
                        d="M181.38 89.79c.02 47.44-39.85 85.92-89.06 85.94-49.2.02-89.1-38.43-89.12-85.88S43.06 3.93 92.26 3.91s89.1 38.43 89.12 85.88"/>
                </defs>
                <clipPath id="prefix__SVGID_122_">
                    <use xlinkHref="#jdkasjda87d" overflow="visible"/>
                </clipPath>
                <defs>
                    <path
                        id="jadas7"
                        d="M181.38 89.79c.02 47.44-39.85 85.92-89.06 85.94-49.2.02-89.1-38.43-89.12-85.88S43.06 3.93 92.26 3.91s89.1 38.43 89.12 85.88"/>
                </defs>
                <defs>
                    <path
                        id="prefix__SVGID_124_"
                        d="M181.38 89.79c.02 47.44-39.85 85.92-89.06 85.94-49.2.02-89.1-38.43-89.12-85.88S43.06 3.93 92.26 3.91s89.1 38.43 89.12 85.88"/>
                </defs>
                <clipPath id="akjdsd7">
                    <use xlinkHref="#jadas7" overflow="visible"/>
                </clipPath>
                <clipPath id="adksd7" clipPath="url(#akjdsd7)">
                    <use xlinkHref="#prefix__SVGID_124_" overflow="visible"/>
                </clipPath>
                <g clipPath="url(#adksd7)">
                    <path
                        className="prefijost47b1"
                        d="M53.83 27.05c-.08-.02-.16-.04-.24-.05-.2-.06-.4-.07-.6-.03-.2.01-.39.07-.56.18-.17.09-.32.22-.42.39-.13.14-.22.31-.27.51-.02.13-.04.27-.05.4 0 .27.07.52.2.75.08.1.16.2.23.3.19.19.41.31.65.39.08.02.16.04.24.05.2.06.4.07.6.03.2-.01.39-.07.56-.18.17-.09.32-.22.42-.39.13-.14.22-.31.27-.51.02-.13.04-.27.05-.4 0-.27-.07-.52-.2-.75-.08-.1-.16-.2-.23-.3-.18-.2-.39-.32-.65-.39z"/>
                </g>
            </g>
            <g>
                <defs>
                    <path
                        id="prefix__SVGID_127_"
                        d="M181.38 89.79c.02 47.44-39.85 85.92-89.06 85.94-49.2.02-89.1-38.43-89.12-85.88S43.06 3.93 92.26 3.91s89.1 38.43 89.12 85.88"/>
                </defs>
                <clipPath id="prefix__SVGID_128_">
                    <use xlinkHref="#prefix__SVGID_127_" overflow="visible"/>
                </clipPath>
                <defs>
                    <path
                        id="shdjsd87"
                        d="M181.38 89.79c.02 47.44-39.85 85.92-89.06 85.94-49.2.02-89.1-38.43-89.12-85.88S43.06 3.93 92.26 3.91s89.1 38.43 89.12 85.88"/>
                </defs>
                <defs>
                    <path
                        id="prefix__SVGID_130_"
                        d="M181.38 89.79c.02 47.44-39.85 85.92-89.06 85.94-49.2.02-89.1-38.43-89.12-85.88S43.06 3.93 92.26 3.91s89.1 38.43 89.12 85.88"/>
                </defs>
                <clipPath id="ahdskajsd7">
                    <use xlinkHref="#shdjsd87" overflow="visible"/>
                </clipPath>
                <clipPath id="ahsdia7" clipPath="url(#ahdskajsd7)">
                    <use xlinkHref="#prefix__SVGID_130_" overflow="visible"/>
                </clipPath>
                <g clipPath="url(#ahsdia7)">
                    <path
                        className="prefijost47b1"
                        d="M72.37 29.3c1.91 0 1.91-2.98 0-2.98s-1.91 2.98 0 2.98z"/>
                </g>
            </g>
            <g>
                <defs>
                    <path
                        id="prefix__SVGID_133_"
                        d="M181.38 89.79c.02 47.44-39.85 85.92-89.06 85.94-49.2.02-89.1-38.43-89.12-85.88S43.06 3.93 92.26 3.91s89.1 38.43 89.12 85.88"/>
                </defs>
                <clipPath id="prefix__SVGID_134_">
                    <use xlinkHref="#prefix__SVGID_133_" overflow="visible"/>
                </clipPath>
                <defs>
                    <path
                        id="asm78d"
                        d="M181.38 89.79c.02 47.44-39.85 85.92-89.06 85.94-49.2.02-89.1-38.43-89.12-85.88S43.06 3.93 92.26 3.91s89.1 38.43 89.12 85.88"/>
                </defs>
                <defs>
                    <path
                        id="svgid16d33d"
                        d="M181.38 89.79c.02 47.44-39.85 85.92-89.06 85.94-49.2.02-89.1-38.43-89.12-85.88S43.06 3.93 92.26 3.91s89.1 38.43 89.12 85.88"/>
                </defs>
                <clipPath id="svgi137da34d">
                    <use xlinkHref="#asm78d" overflow="visible"/>
                </clipPath>
                <clipPath id="svg38dk911id" clipPath="url(#svgi137da34d)">
                    <use xlinkHref="#svgid16d33d" overflow="visible"/>
                </clipPath>
                <g clipPath="url(#svg38dk911id)">
                    <path
                        className="prefijost47b1"
                        d="M138.53 72.73c1.91 0 1.91-2.98 0-2.98-1.93.01-1.93 2.98 0 2.98z"/>
                </g>
            </g>
            <g>
                <defs>
                    <path
                        id="svg139x45id"
                        d="M181.38 89.79c.02 47.44-39.85 85.92-89.06 85.94-49.2.02-89.1-38.43-89.12-85.88S43.06 3.93 92.26 3.91s89.1 38.43 89.12 85.88"/>
                </defs>
                <clipPath id="prefix__SVGID_140_">
                    <use xlinkHref="#svg139x45id" overflow="visible"/>
                </clipPath>
                <defs>
                    <path
                        id="prefix__SVGID_141_"
                        d="M181.38 89.79c.02 47.44-39.85 85.92-89.06 85.94-49.2.02-89.1-38.43-89.12-85.88S43.06 3.93 92.26 3.91s89.1 38.43 89.12 85.88"/>
                </defs>
                <defs>
                    <path
                        id="prefix__SVGID_142_"
                        d="M181.38 89.79c.02 47.44-39.85 85.92-89.06 85.94-49.2.02-89.1-38.43-89.12-85.88S43.06 3.93 92.26 3.91s89.1 38.43 89.12 85.88"/>
                </defs>
                <clipPath id="prefix__SVGID_143_">
                    <use xlinkHref="#prefix__SVGID_141_" overflow="visible"/>
                </clipPath>
                <clipPath id="prefix__SVGID_144_" clipPath="url(#prefix__SVGID_143_)">
                    <use xlinkHref="#prefix__SVGID_142_" overflow="visible"/>
                </clipPath>
                <g clipPath="url(#prefix__SVGID_144_)">
                    <path
                        className="prefijost47b1"
                        d="M145.29 71.63c-.02.08-.04.16-.05.24-.06.2-.07.4-.03.6.01.2.07.39.18.56.09.17.22.32.39.42.14.13.31.22.51.27.13.02.27.04.4.05.27 0 .52-.07.75-.2.1-.08.2-.16.3-.23.19-.19.31-.41.39-.65.02-.08.04-.16.05-.24.06-.2.07-.4.03-.6-.01-.2-.07-.39-.18-.56a1.05 1.05 0 00-.39-.42c-.14-.13-.31-.22-.51-.27a5.46 5.46 0 00-.4-.05c-.27 0-.52.07-.75.2-.1.08-.2.16-.3.23-.19.19-.32.4-.39.65z"/>
                </g>
            </g>
        </svg>
 