<svg xmlns="http://www.w3.org/2000/svg" viewBox="0 0 381.28 380.33"><defs><style>.cls-1{fill:#ffda83;}.cls-2{fill:#ffe9b5;}.cls-3{fill:#f0a4a5;stroke-miterlimit:10;}.cls-3,.cls-4{stroke:#000;}.cls-4{fill:#fdeaab;stroke-linecap:round;stroke-linejoin:round;}.cls-5{fill:#e66869;}.cls-6{fill:#f7c402;}.cls-7{fill:#4386c6;}.cls-8{fill:#7dc4ca;}</style></defs><title>Automata 1 prueba 4 nueva</title><g id="gráficos"><rect class="cls-1" x="4.14" y="3.67" width="373" height="373" rx="23.02" ry="23.02"/><path d="M354.12,375.17H33.62c-7.27,0-14.13.11-20.23-5-7.09-5.91-7.75-13.81-7.75-22.11V63.81c0-12.34-.38-24.75,0-37.09C6.06,13,17,5.17,29.81,5.17h278.9c14.84,0,29.68-.13,44.51,0,12.75.11,22.3,9.5,22.42,22.3.05,4.81,0,9.62,0,14.43V350.79c0,12.86-7.62,24-21.52,24.38-1.92.05-1.93,3.05,0,3,14.41-.44,24.44-11.7,24.52-25.81,0-5.5,0-11,0-16.51V71.74c0-14.81.15-29.62,0-44.43A24.94,24.94,0,0,0,354,2.17c-4-.09-8,0-12.05,0H29.62C18.24,2.17,7.78,7.5,3.92,18.89,2.25,23.81,2.64,29.14,2.64,34.26v314.1c0,7.22.37,14,5,20.15,5.85,7.69,14.43,9.66,23.47,9.66h323A1.5,1.5,0,0,0,354.12,375.17Z"/><rect class="cls-2" x="27.63" y="27.15" width="326.03" height="326.03" rx="23.02" ry="23.02"/><path d="M330.64,351.68H74.24c-12,0-30.23,2.95-39.27-6.77-8.71-9.38-5.84-27.11-5.84-38.93V152.58c0-34.08-1.06-68.34,0-102.41.41-13.42,11-21.52,23.74-21.52H293.44c12.23,0,24.5-.3,36.73,0,12.51.31,21.85,9.62,22,22.19,0,4.16,0,8.32,0,12.48V328.13c0,12.66-8.24,23.15-21.52,23.55-1.93.06-1.94,3.06,0,3,14-.42,24.37-11.28,24.52-25.19,0-4.31,0-8.62,0-12.93v-227c0-12.93.24-25.89,0-38.82-.27-13.81-10.58-24.68-24.53-25-3-.08-6,0-8.95,0h-269c-9.9,0-19.12,4.13-23.84,13.3-2.72,5.29-2.71,10.74-2.71,16.43V325.53c0,6.4.33,12.51,4,18.12,5.26,8,13.78,11,22.9,11H330.64A1.5,1.5,0,0,0,330.64,351.68Z"/><circle class="cls-3" cx="264" cy="255.72" r="52.54"/><circle class="cls-4" cx="136.82" cy="144.15" r="68.42"/><path class="cls-5" d="M142.87,103.69a40.92,40.92,0,1,0,34.42,46.51A40.93,40.93,0,0,0,142.87,103.69Z"/><path d="M142.87,102.19a42.4,42.4,0,1,0,36.32,39.74c-1.06-20-16.31-36.42-35.92-39.69-1.89-.31-2.71,2.58-.8,2.9,16.08,2.67,29.31,14.43,32.86,30.53a39.44,39.44,0,1,1-75.5-5.2c6.46-17.67,24.7-27.71,43-25.28C144.77,105.44,144.76,102.44,142.87,102.19Z"/><path class="cls-6" d="M255.37,228.09A28.66,28.66,0,0,0,237,262.76a28.33,28.33,0,1,0,18.36-34.67Z"/><path d="M255,226.64A30.64,30.64,0,0,0,234.49,254a29.92,29.92,0,0,0,18.21,28.51c25.38,10.7,50.78-17.41,37.81-41.63-6.84-12.76-21.91-18.34-35.54-14.2-1.85.56-1.06,3.46.79,2.9,13.67-4.15,28.66,2.47,33.67,16.18a26.82,26.82,0,0,1-50.13,19.07c-5.56-14.19,2.32-30.18,16.46-35.25C257.57,228.89,256.79,226,255,226.64Z"/><path class="cls-7" d="M212.77,192A88.52,88.52,0,0,0,222,172.47l-12.5-10.25c.56-2.29,1-4.62,1.38-7,.14-.81.22-1.63.32-2.45l15.32-5.22a89.33,89.33,0,0,0-1.73-21.45l-16-2.63a72.45,72.45,0,0,0-3.23-9l10.65-12.16a90.34,90.34,0,0,0-12.25-17.71l-15.16,5.71a73.7,73.7,0,0,0-7.3-6.22L184.6,68.2A89.15,89.15,0,0,0,165.13,59L154.87,71.51c-2.28-.57-4.6-1-7-1.39-.83-.12-1.64-.21-2.45-.3l-5.21-15.34a90,90,0,0,0-21.47,1.74l-2.62,16a74.14,74.14,0,0,0-9,3.24L94.93,64.8a88.93,88.93,0,0,0-17.7,12.27l5.71,15.14a75,75,0,0,0-6.23,7.3L60.85,96.36a89,89,0,0,0-9.18,19.49L64.18,126.1c-.57,2.29-1.05,4.61-1.41,7-.12.82-.2,1.63-.29,2.45l-15.34,5.21a89.84,89.84,0,0,0,1.75,21.46l16,2.63a74.74,74.74,0,0,0,3.24,9L57.45,186a89.42,89.42,0,0,0,12.27,17.71L84.86,198a74.88,74.88,0,0,0,7.31,6.23L89,220.12a88.63,88.63,0,0,0,19.47,9.18l10.27-12.5c2.28.56,4.61,1,7,1.4.82.12,1.63.2,2.44.29l5.21,15.35a89.88,89.88,0,0,0,21.47-1.74l2.64-16a78.84,78.84,0,0,0,9-3.24l12.17,10.65a90.62,90.62,0,0,0,17.7-12.26l-5.71-15.15a79.28,79.28,0,0,0,6.23-7.31Zm-89.39,8.25a57.63,57.63,0,1,1,69.47-42.6A57.69,57.69,0,0,1,123.38,200.2Z"/><path d="M214.07,192.71a97.47,97.47,0,0,0,9.33-19.85,1.46,1.46,0,0,0-.38-1.46l-8.46-6.92c-.86-.71-3.39-2.08-3.82-3.13.14.32,1.16-3.36,1.26-3.95.27-1.53.48-3.07.66-4.62l-1.1,1.45L226.88,149a1.54,1.54,0,0,0,1.1-1.45,98.28,98.28,0,0,0-1.79-21.85,1.45,1.45,0,0,0-1.05-1l-9.42-1.55a33.16,33.16,0,0,1-4.9-.8c-2.26-.75-1-.82-2.09-3.81.13.37-2-4.42-2.1-3.06,0-.32.73-.7.87-1,.67-1.4,2.41-2.76,3.45-3.94l6.28-7.17a1.56,1.56,0,0,0,.24-1.82,100.33,100.33,0,0,0-12.49-18,1.47,1.47,0,0,0-1.46-.39L193.27,87c-1,.39-3.54,1.92-4.63,1.75.5.08-1.93-2.36-2.36-2.73-1.32-1.13-2.69-2.19-4.07-3.24l.69,1.69,3.15-15.85a1.55,1.55,0,0,0-.69-1.69,98.83,98.83,0,0,0-19.84-9.36,1.43,1.43,0,0,0-1.45.39l-6.94,8.46c-.71.87-2.08,3.4-3.13,3.83.33-.14-3.35-1.16-3.94-1.27-1.53-.26-3.07-.46-4.62-.64l1.44,1.1-5.2-15.34a1.57,1.57,0,0,0-1.45-1.1,99.07,99.07,0,0,0-21.87,1.8,1.46,1.46,0,0,0-1,1l-1.77,10.82c-.18,1.08-.1,4-.8,4.88.27-.34-3,.53-3.59.72-1.62.59-3.22,1.25-4.81,1.92l1.82.23L96,63.73a1.57,1.57,0,0,0-1.82-.23A99,99,0,0,0,76.17,76a1.45,1.45,0,0,0-.39,1.45l3.87,10.25c.38,1,1.92,3.53,1.74,4.63.09-.51-2.37,1.92-2.74,2.35-1.12,1.32-2.18,2.69-3.23,4.06l1.69-.69L61.25,94.91a1.56,1.56,0,0,0-1.69.69,98.55,98.55,0,0,0-9.34,19.85,1.44,1.44,0,0,0,.39,1.46l8.45,6.93c.87.71,3.4,2.08,3.83,3.13-.13-.33-1.17,3.36-1.27,3.94-.27,1.54-.47,3.07-.64,4.62l1.1-1.44L46.74,139.3a1.55,1.55,0,0,0-1.1,1.44,99.54,99.54,0,0,0,1.8,21.86,1.47,1.47,0,0,0,1.05,1.05l9.42,1.55a33.39,33.39,0,0,1,4.9.81c2.25.74,1,.81,2.09,3.8-.13-.37,2,4.41,2.1,3.06,0,.32-.73.69-.87,1-.67,1.4-2.42,2.75-3.46,3.94L56.39,185a1.54,1.54,0,0,0-.23,1.81,99.09,99.09,0,0,0,12.5,18,1.46,1.46,0,0,0,1.46.39l10.24-3.87c1-.38,3.53-1.92,4.63-1.74-.51-.08,1.93,2.37,2.36,2.74,1.32,1.13,2.68,2.19,4.06,3.23l-.69-1.69-3.15,15.86a1.57,1.57,0,0,0,.69,1.69,98.38,98.38,0,0,0,19.83,9.34,1.44,1.44,0,0,0,1.46-.39l7-8.45c.71-.87,2.08-3.4,3.13-3.82-.33.13,3.36,1.16,3.94,1.26,1.54.27,3.07.47,4.61.64l-1.45-1.1,5.21,15.35a1.57,1.57,0,0,0,1.45,1.1,99.67,99.67,0,0,0,21.87-1.79,1.47,1.47,0,0,0,1.05-1.05l1.4-8.48c.3-1.81.32-4.11,1-5.85.1-.28,0-1.12.23-1.38a25.69,25.69,0,0,0,3.57-.73c.72-.26,3.61-1.84,3.22-1.94.37.09.73.74,1.05.92,1.48.84,2.81,2.46,4.09,3.58l6.8,6a1.56,1.56,0,0,0,1.82.24,99.87,99.87,0,0,0,18-12.5,1.44,1.44,0,0,0,.38-1.46L194,200.62c-.39-1-1.92-3.54-1.75-4.63-.07.49,2.36-1.94,2.73-2.37,1.13-1.32,2.19-2.69,3.24-4.06l-1.69.69,15.85,3.15c1.89.38,2.69-2.51.8-2.89l-15.85-3.15a1.6,1.6,0,0,0-1.7.68,86.86,86.86,0,0,1-6,7,1.49,1.49,0,0,0-.38,1.46l4.47,11.87a8.91,8.91,0,0,1,.92,2.45c0,1-.59.76-2,1.7-5,3.2-9.42,6.86-14.65,9.7l1.82.23L167.6,211.81a1.48,1.48,0,0,0-1.46-.39c-3,1.23-6,2.3-9,3.24a1.5,1.5,0,0,0-1,1.05L154,228.24a8.91,8.91,0,0,1-.43,2.6c-.55.85-.86.37-2.59.46-5.91.3-11.62,1.21-17.58,1l1.44,1.1-5.2-15.35a1.58,1.58,0,0,0-1.45-1.1,72.58,72.58,0,0,1-9-1.64,1.51,1.51,0,0,0-1.46.39l-8,9.8c-.42.51-1.07,1.72-1.66,2-.9.46-1-.15-2.53-.93-5.26-2.66-10.62-4.7-15.68-7.82l.69,1.7,3.14-15.86a1.6,1.6,0,0,0-.68-1.7,85.17,85.17,0,0,1-7-6,1.49,1.49,0,0,0-1.46-.39L72.6,201.06a8.66,8.66,0,0,1-2.46.92c-1,0-.76-.58-1.69-2-3.21-5-6.87-9.42-9.7-14.67l-.24,1.82,10.66-12.16a1.49,1.49,0,0,0,.38-1.46,90.67,90.67,0,0,1-3.23-9,1.47,1.47,0,0,0-1-1.05l-12.52-2.06a8.85,8.85,0,0,1-2.6-.43c-.85-.55-.37-.86-.46-2.59-.3-5.9-1.21-11.6-1-17.57l-1.1,1.45L62.88,137a1.58,1.58,0,0,0,1.1-1.45,75.15,75.15,0,0,1,1.64-9,1.49,1.49,0,0,0-.38-1.46l-9.81-8c-.51-.43-1.72-1.07-2-1.67-.46-.89.15-1,.93-2.53,2.66-5.26,4.7-10.63,7.82-15.7l-1.69.69L76.32,101a1.59,1.59,0,0,0,1.69-.69,83.26,83.26,0,0,1,6-7,1.49,1.49,0,0,0,.38-1.46L79.91,80A8.69,8.69,0,0,1,79,77.49c0-1,.59-.76,2-1.7,5-3.21,9.43-6.86,14.67-9.7l-1.82-.23L106,76.52a1.59,1.59,0,0,0,1.82.23,82.7,82.7,0,0,1,8.67-3.09,1.47,1.47,0,0,0,1-1l2.06-12.53a8.78,8.78,0,0,1,.42-2.59c.55-.85.87-.38,2.59-.46,5.91-.3,11.62-1.22,17.58-1.05l-1.44-1.1L144,70.21a1.6,1.6,0,0,0,1.45,1.11,77.55,77.55,0,0,1,9,1.64,1.49,1.49,0,0,0,1.46-.39l8-9.8c.42-.52,1.07-1.73,1.66-2,.9-.47,1,.14,2.53.92,5.26,2.68,10.63,4.71,15.69,7.84l-.69-1.7L180,83.66a1.57,1.57,0,0,0,.69,1.69,85,85,0,0,1,7,6,1.49,1.49,0,0,0,1.46.38L201,87.25a8.69,8.69,0,0,1,2.46-.93c1,.05.76.6,1.7,2.05,3.19,5,6.85,9.43,9.69,14.66l.23-1.81-10.65,12.16a1.49,1.49,0,0,0-.39,1.46,87.61,87.61,0,0,1,3.24,9,1.46,1.46,0,0,0,1,1L220.88,127a8.53,8.53,0,0,1,2.6.42c.85.55.37.86.46,2.59.31,5.9,1.22,11.6,1,17.56l1.1-1.44-15.32,5.22a1.57,1.57,0,0,0-1.1,1.44,81.17,81.17,0,0,1-1.65,9,1.48,1.48,0,0,0,.38,1.46l9.8,8c.52.42,1.72,1.07,2,1.66.46.9-.14,1-.92,2.53-2.66,5.27-4.7,10.64-7.83,15.7C210.46,192.85,213.05,194.35,214.07,192.71Z"/><path d="M123.77,198.75C101,193,83.53,173.74,81,150.19a56.14,56.14,0,1,1,106.87,17.34c-11.14,24.25-38.24,37.09-64.09,31.22-1.88-.42-2.68,2.47-.79,2.9,23.79,5.39,48.85-4,62.72-24.23,14.23-20.78,13.33-49.13-1.9-69.1a59.12,59.12,0,0,0-106,32.91c-1.45,28.24,18,53.54,45.23,60.42C124.85,202.12,125.65,199.23,123.77,198.75Z"/><path class="cls-8" d="M330.77,278.12a71.81,71.81,0,0,0,3.43-15l-10.92-5.55a63.71,63.71,0,0,0-.38-9.64l10.49-6.34a69.71,69.71,0,0,0-1.87-7.47,68.85,68.85,0,0,0-2.66-7.2l-12.24.67a58.9,58.9,0,0,0-5.12-8.18l5.92-10.73a71.27,71.27,0,0,0-11.26-10.44L295.88,205a61.17,61.17,0,0,0-8.5-4.51l-.26-12.28a70.31,70.31,0,0,0-14.95-3.39l-5.56,10.91a58.61,58.61,0,0,0-9.62.38l-6.35-10.49a69.42,69.42,0,0,0-7.46,1.85,73.54,73.54,0,0,0-7.21,2.65l.66,12.26a60.47,60.47,0,0,0-8.18,5.12l-10.72-5.91a70.6,70.6,0,0,0-10.44,11.23L214,223.08a61.73,61.73,0,0,0-4.49,8.51l-12.27.26a70.79,70.79,0,0,0-3.42,15l10.93,5.54a61.31,61.31,0,0,0,.36,9.65l-10.49,6.33a68.15,68.15,0,0,0,1.86,7.45,71.23,71.23,0,0,0,2.65,7.22l12.26-.66a60.36,60.36,0,0,0,5.12,8.17l-5.91,10.74a70.9,70.9,0,0,0,11.23,10.42l10.3-6.69a57.13,57.13,0,0,0,8.51,4.5l.25,12.28a71.39,71.39,0,0,0,15,3.41l5.53-10.92a60,60,0,0,0,9.64-.38l6.37,10.5A69.71,69.71,0,0,0,292,319.84l-.66-12.23a60.84,60.84,0,0,0,8.18-5.12l10.73,5.9a69.69,69.69,0,0,0,10.43-11.24L314,286.85a58.83,58.83,0,0,0,4.5-8.49Zm-78.35,21a45.66,45.66,0,1,1,55.75-32.58A45.7,45.7,0,0,1,252.42,299.13Z"/><path d="M332.22,278.51a82.51,82.51,0,0,0,3.48-15.36,1.48,1.48,0,0,0-.75-1.3l-5.88-3c-1.11-.56-2.87-1.06-3.78-1.92-.16-.15-1-.36-1.16-.59a15.83,15.83,0,0,0,.64-3.55c0-.38-.89-4.05-1-3.59.07-.24.71-.33.86-.53.65-.84,2.58-1.55,3.48-2.1l6.07-3.66a1.56,1.56,0,0,0,.69-1.7,80.06,80.06,0,0,0-4.53-14.67,1.56,1.56,0,0,0-1.45-1.1l-7.08.39c-1.12.06-3,.52-4,.22-.26-.07-.78.2-1,.06.92.58-1.39-3.77-1.21-3.47-.41-.66-2.19-2.54-2.22-2.61-.21-.49-.25.35-.1-.56s1.36-2.47,1.87-3.39l3.65-6.62a1.56,1.56,0,0,0-.23-1.82A82.34,82.34,0,0,0,306.92,197a1.46,1.46,0,0,0-1.51,0l-6,3.88c-.95.62-2.31,1.93-3.41,2.22-.26.07-.58.57-.84.56,1.15,0-3.06-2.55-2.73-2.38-.7-.37-3.15-1.09-3.24-1.15-.44-.34-.05.4-.38-.46s-.06-2.82-.08-3.87l-.16-7.59a1.54,1.54,0,0,0-1.1-1.44,80.6,80.6,0,0,0-15.35-3.45,1.45,1.45,0,0,0-1.29.75l-3,5.88c-.56,1.11-1.07,2.87-1.92,3.77-.15.16-.37,1-.6,1.16a14.36,14.36,0,0,0-3.54-.65c-.38,0-4.05.89-3.58,1-.23-.07-.32-.71-.52-.86-.85-.65-1.56-2.58-2.1-3.48l-3.68-6.06a1.53,1.53,0,0,0-1.69-.69,79.44,79.44,0,0,0-14.67,4.5,1.54,1.54,0,0,0-1.1,1.44l.38,7.09c.06,1.13.52,3,.22,4.06-.07.26.2.79.05,1,.59-.91-3.75,1.4-3.46,1.21-.65.41-2.54,2.19-2.6,2.22-.5.21.34.24-.57.1s-2.46-1.36-3.38-1.87l-6.63-3.64a1.54,1.54,0,0,0-1.81.23A81.06,81.06,0,0,0,206,212a1.46,1.46,0,0,0,0,1.51l3.88,5.95c.61.95,1.92,2.31,2.21,3.41.07.26.57.58.55.85.05-1.15-2.53,3.05-2.36,2.73-.36.7-1.08,3.15-1.15,3.24-.33.44.41.05-.45.38s-2.82.06-3.87.08l-7.58.16a1.54,1.54,0,0,0-1.44,1.1,80.94,80.94,0,0,0-3.48,15.36,1.44,1.44,0,0,0,.74,1.29l5.9,3c1.11.56,2.87,1.06,3.78,1.92.18.16,1,.35,1.17.59-.15-.26-.69,2.94-.66,3.55,0,.39.87,4.05,1,3.6-.08.24-.72.32-.87.53-.64.84-2.57,1.55-3.47,2.09L193.85,267a1.53,1.53,0,0,0-.69,1.69,78.16,78.16,0,0,0,4.51,14.66,1.56,1.56,0,0,0,1.44,1.11l7.09-.39c1.13-.06,3-.51,4.06-.21.26.07.79-.2,1-.06-.92-.59,1.4,3.76,1.21,3.46.41.66,2.19,2.54,2.22,2.6.21.49.24-.34.1.57s-1.36,2.46-1.87,3.39l-3.64,6.63a1.56,1.56,0,0,0,.23,1.82A80.77,80.77,0,0,0,221.05,313a1.48,1.48,0,0,0,1.52,0l6-3.87c.95-.61,2.31-1.92,3.41-2.21.26-.07.59-.56.85-.55-1.15-.05,3.05,2.54,2.73,2.37.7.37,3.15,1.08,3.24,1.15.46.34.05-.42.38.45s.06,2.82.08,3.88l.16,7.58a1.54,1.54,0,0,0,1.1,1.44,81.69,81.69,0,0,0,15.36,3.47,1.42,1.42,0,0,0,1.29-.74l3-5.89c.56-1.12,1.06-2.88,1.92-3.79.16-.17.34-1,.58-1.16-.25.15,2.95.68,3.56.66.38,0,4-.89,3.58-1,.24.07.33.71.53.87.85.64,1.56,2.57,2.11,3.47l3.69,6.07a1.53,1.53,0,0,0,1.69.69,77,77,0,0,0,14.64-4.52,1.55,1.55,0,0,0,1.1-1.45l-.38-7.07c-.06-1.13-.51-3-.22-4.06.08-.26-.19-.78-.05-1-.58.93,3.76-1.39,3.46-1.21.66-.41,2.54-2.19,2.61-2.22.49-.2-.34-.24.56-.09s2.47,1.35,3.39,1.86l6.63,3.65a1.55,1.55,0,0,0,1.82-.24A80.38,80.38,0,0,0,322,297.91a1.48,1.48,0,0,0,0-1.52l-3.88-5.95c-.61-.95-1.92-2.31-2.21-3.41-.07-.26-.57-.59-.55-.85-.06,1.15,2.54-3,2.36-2.72.37-.69,1.09-3.14,1.16-3.23.34-.45-.41-.05.45-.38s2.82-.06,3.88-.08l7.57-.15c1.93,0,1.93-3,0-3l-12.27.24a1.47,1.47,0,0,0-1.29.75,72.61,72.61,0,0,1-4.51,8.49,1.48,1.48,0,0,0,0,1.51l5.12,7.87a8.65,8.65,0,0,1,1.13,1.74c.16,1.23-.19.63-1.41,1.55-3,2.26-5.48,6-8.34,8.56l1.82-.23-10.73-5.91a1.5,1.5,0,0,0-1.52,0,71.21,71.21,0,0,1-8.17,5.12,1.51,1.51,0,0,0-.75,1.3l.66,12.23,1.11-1.44A77.36,77.36,0,0,1,277,322.92l1.7.69-6.38-10.5a1.45,1.45,0,0,0-1.29-.74,73.87,73.87,0,0,1-9.64.38,1.46,1.46,0,0,0-1.29.74l-4.23,8.35c-1.16,2.28-.67,2.39-3,1.41-3.47-1.46-7.93-1.74-11.56-2.94l1.1,1.45-.25-12.28a1.48,1.48,0,0,0-.75-1.3,69.17,69.17,0,0,1-8.51-4.5,1.48,1.48,0,0,0-1.51,0l-7.86,5.11a8.31,8.31,0,0,1-1.75,1.13c-1.23.17-.63-.18-1.54-1.4-2.26-3-6-5.48-8.55-8.33l.23,1.81,5.9-10.74a1.48,1.48,0,0,0,0-1.51,74.09,74.09,0,0,1-5.12-8.17,1.46,1.46,0,0,0-1.29-.74l-12.26.66,1.45,1.1a78.48,78.48,0,0,1-4.51-14.67l-.69,1.7,10.48-6.34a1.48,1.48,0,0,0,.75-1.29,75.88,75.88,0,0,1-.36-9.65,1.5,1.5,0,0,0-.74-1.3l-8.35-4.23c-2.28-1.16-2.4-.67-1.41-3,1.45-3.48,1.73-7.92,2.94-11.56l-1.45,1.1,12.27-.26a1.5,1.5,0,0,0,1.3-.74,72,72,0,0,1,4.49-8.51,1.5,1.5,0,0,0,0-1.52l-5.12-7.85a8.72,8.72,0,0,1-1.13-1.75c-.17-1.23.19-.63,1.42-1.54,3-2.26,5.48-6,8.34-8.56l-1.82.24,10.73,5.9a1.49,1.49,0,0,0,1.51,0,71.26,71.26,0,0,1,8.18-5.11,1.48,1.48,0,0,0,.74-1.3l-.66-12.26-1.1,1.45A80,80,0,0,1,251,187l-1.7-.69,6.35,10.49a1.46,1.46,0,0,0,1.3.74,71.79,71.79,0,0,1,9.62-.38,1.47,1.47,0,0,0,1.29-.75l4.25-8.32c1.16-2.27.68-2.39,3-1.42,3.47,1.45,7.91,1.71,11.55,2.92l-1.1-1.45.26,12.28a1.49,1.49,0,0,0,.74,1.3,71.18,71.18,0,0,1,8.5,4.51,1.5,1.5,0,0,0,1.52,0l7.85-5.12a8.28,8.28,0,0,1,1.74-1.14c1.23-.17.64.2,1.56,1.42,2.25,3,6,5.49,8.57,8.34l-.24-1.81-5.91,10.72a1.44,1.44,0,0,0,0,1.51,71.46,71.46,0,0,1,5.12,8.19,1.46,1.46,0,0,0,1.29.74l12.24-.67-1.44-1.1A80,80,0,0,1,331.94,242l.69-1.69-10.49,6.34a1.46,1.46,0,0,0-.74,1.29,79.6,79.6,0,0,1,.38,9.64,1.49,1.49,0,0,0,.75,1.3l8.33,4.23c2.29,1.16,2.39.67,1.41,3-1.46,3.48-1.74,7.93-2.95,11.57C328.71,279.55,331.61,280.34,332.22,278.51Z"/><path d="M252.82,297.69c-17.92-5-31.37-20.5-32.85-39.22a44.16,44.16,0,1,1,83.74,15.82c-9.21,18.89-30.66,28.37-50.89,23.4-1.88-.46-2.68,2.43-.8,2.89A47.16,47.16,0,1,0,217,251.66c-1.65,22.54,13.54,42.93,35.07,48.92A1.5,1.5,0,0,0,252.82,297.69Z"/></g></svg>