<svg xmlns="http://www.w3.org/2000/svg" viewBox="0 0 205 185"><defs><style>.cls-1{fill:#fff;}.cls-2{fill:#7ec7cd;}.cls-3{fill:#183e42;}.cls-4{fill:#e4252e;}.cls-5{fill:#183e41;}.cls-6{fill:#2f5454;}.cls-7{fill:#7bc5cc;}.cls-8{fill:#fac706;}.cls-9{fill:#f7c402;}.cls-10{fill:#7dc4ca;}.cls-11{fill:#e1262f;}</style></defs><title>Logos, redes y disclaimer plataforma</title><g id="graficos"><path class="cls-1" d="M12.5,19h0a.59.59,0,0,0,.77-.31.7.7,0,0,0,.05-.8c-1.22-2.07-.77-4.78-2-6.93-1-1.75-3.35-3-5.21-1.73s-1.5,3.74-.37,5.34C7.31,16.75,10,18,12.47,19Z"/><path class="cls-1" d="M12.72,21.5a3.44,3.44,0,0,1-.83-.11l-.28-.08c-2.85-1.12-6-2.6-7.91-5.34s-2-6.68,1-8.82A5.4,5.4,0,0,1,9,6.28a7.06,7.06,0,0,1,4.5,3.4A12.31,12.31,0,0,1,14.79,14a7.88,7.88,0,0,0,.68,2.57A3.19,3.19,0,0,1,15.39,20,3.11,3.11,0,0,1,12.72,21.5Zm-1.56-2.38Zm-3.38-8a.31.31,0,0,0-.22.08c-.45.31-.17,1.31.22,1.85A7.11,7.11,0,0,0,9.88,15l0-.15a8.34,8.34,0,0,0-.7-2.65,2.16,2.16,0,0,0-1.23-1Z"/><path class="cls-1" d="M16.49,18.15a.7.7,0,0,0,.8.08h0l.11-.08a.73.73,0,0,0,.29-.37c1-3,6.11-11.68-.48-12.15-2-.14-3.43,1.62-3.75,3.46-.52,3,1.39,6.23,2.78,8.74A.7.7,0,0,0,16.49,18.15Z"/><path class="cls-1" d="M16.93,20.82a3.15,3.15,0,0,1-2-.7,3.12,3.12,0,0,1-.95-1.2l-.09-.17c-1.5-2.68-3.55-6.34-2.9-10.08A6.29,6.29,0,0,1,17.4,3.14a5.73,5.73,0,0,1,4.82,2.62c2,3.25,0,7.85-1.49,11.22-.27.64-.54,1.24-.67,1.63a3.3,3.3,0,0,1-1.23,1.6,2.47,2.47,0,0,1-.35.22l-.17.08A3.22,3.22,0,0,1,16.93,20.82ZM17,8.12c-.49,0-1,.73-1.08,1.4a7.31,7.31,0,0,0,.85,4C17.91,10.66,18.3,8.94,18,8.35A1.76,1.76,0,0,0,17,8.12Z"/><path class="cls-1" d="M19.61,18.54a.62.62,0,0,0,.67.13c.88-.3,1.77-.58,2.67-.82,1.63-.42,3.42-.26,5-.84a3.32,3.32,0,0,0,1.64-5.23,4.56,4.56,0,0,0-6.14-1.22A9.56,9.56,0,0,0,19.33,18,.63.63,0,0,0,19.61,18.54Z"/><path class="cls-1" d="M20,21.22a3.28,3.28,0,0,1-3.2-3.4,12.07,12.07,0,0,1,5.32-9.39,7.05,7.05,0,0,1,9.49,1.92,6,6,0,0,1,.89,5.24,6,6,0,0,1-3.72,3.77,13.45,13.45,0,0,1-3.39.65,11.47,11.47,0,0,0-1.84.26c-.78.21-1.59.45-2.48.76A3.14,3.14,0,0,1,20,21.22Zm5.87-8.85a2.17,2.17,0,0,0-1.14.32,6.29,6.29,0,0,0-2.25,2.69A17.64,17.64,0,0,1,24.93,15a9,9,0,0,0,2.16-.37,1,1,0,0,0,.67-.58,1,1,0,0,0-.22-.88A2,2,0,0,0,25.9,12.37Z"/><path class="cls-1" d="M46.83,79.58a2.09,2.09,0,0,0-1.44-2.74A2.28,2.28,0,0,0,42.74,78s0,0,0,0l0,.09,0,.09s0,0,0,.08a2.14,2.14,0,0,0,1.24,2.91A2.43,2.43,0,0,0,46.83,79.58Z"/><path class="cls-1" d="M44.55,83.8a5,5,0,0,1-1.46-.23,4.44,4.44,0,0,1-2.64-2.21,5,5,0,0,1-.26-3.7,2.38,2.38,0,0,1,.11-.38l.07-.15,0-.09a2.24,2.24,0,0,1,.22-.4A4.79,4.79,0,0,1,46,74.42a4.6,4.6,0,0,1,2.89,2.26,4.68,4.68,0,0,1,.29,3.72h0A5,5,0,0,1,44.55,83.8Z"/><path class="cls-1" d="M162.09,85.27c6.47.56,13,1,19.45,1.18,2.74.08,6.94,1.22,9.21-.69a.79.79,0,0,0,1.18.19c4.25-3.67,6.18-6.72,6.7-12.34.65-7,1.58-14.1,1.53-21.18a.75.75,0,0,0-.55-.72,168.28,168.28,0,0,0-20-2.33c-4.39-.32-6.93-.51-9.58,3.49a.64.64,0,0,0,.06.82.7.7,0,0,0,0,.14l-2-.22c.24-1.32,1.75-2.42,2.71-3.2a37.38,37.38,0,0,1,4.44-3,.75.75,0,0,0-.76-1.29,33.6,33.6,0,0,0-6,4.36,5.73,5.73,0,0,0-1.84,3l-2.06-.22c.69-2.25,1.37-4.5,2.06-6.75.28-.92-1.17-1.32-1.45-.4q-1.06,3.49-2.12,7l-2.57-.28c.3-2.88.72-6.24-1.43-8.37a.75.75,0,0,0-1.06,1.06c1.68,1.67,1.31,4.71,1,7.15L155,52.18a11.67,11.67,0,0,0-4.4-8.86c-.75-.59-1.82.46-1.06,1.07a10.77,10.77,0,0,1,2.26,2.47,72,72,0,0,0-9.43-1.21c-4.36-.1-8.28,1.52-12.16,3.3l-.42,0a.74.74,0,0,0-.72.55,159.85,159.85,0,0,0-3.15,19.33c-.26,2.7-2.14,9.89,0,12.11.89.93,2.74.8,3.87.93l11.29,1.27q5.8.66,11.62,1.26a30.43,30.43,0,0,0-.73,3.64,1,1,0,0,0-.05.38,12,12,0,0,0-.08,1.33l-.91-.12c-5-.62-11.37-2.17-16.4-1.16-3.83.78-5.55,4.28-7.07,7.55a.88.88,0,0,0-.06.48.65.65,0,0,0-.24,0c-4.62,1.26-8.12,6.93-9.54,11.68a32.74,32.74,0,0,0-.87-3.23,16.66,16.66,0,0,0-6.48-8.51c-.88-.64-2-1.49-3.27-2.34l.82-1.65s0-.05,0-.07a.6.6,0,0,0-.13-.84,16.45,16.45,0,0,0-6.83-3.27c0-.19-.08-.38-.12-.57-.35-1.57-.62-2.66-1.45-3.2a.72.72,0,0,0-.4-.3c-5.08-1.44-10.21-2.75-15.39-3.84a.88.88,0,0,0,.32-.6v-.28l6.16-3c1.72-.82,4.58-1.57,5.86-3,1.56-1.78,1.17-5.8,1.18-7.9a192.83,192.83,0,0,0-2.2-28.9.71.71,0,0,0-.74-.54c-.19-.85-1.61-.93-3-1.35a92.51,92.51,0,0,0-19.26-3.5,1.66,1.66,0,0,0-.3-.22.39.39,0,0,0-.38,0,1.14,1.14,0,0,0-.16.15c-.87-.08-1.73-.14-2.6-.2a1.34,1.34,0,0,0-.47-.45.37.37,0,0,0-.38,0,2.5,2.5,0,0,0-.38.35l-1.45-.09c-.18-1.92-.58-3.4-1.39-3.32-1.17.12-1.3,2.22-1.41,3.17h-.76c-.14-2.39-.53-4.43-1.48-4.34-1.25.13-1.31,2.56-1.42,3.37q-.09.69-.15,1.38a51.58,51.58,0,0,0-6.4,2.52c-2,.81-5.31,1.58-6.91,3.21a.76.76,0,0,0-.23.24l-.11.12a.6.6,0,0,0-.05.65,274.68,274.68,0,0,0-3,36.11l-.11.2a.77.77,0,0,0,.11.91c1.07,1.34,2.72,1.11,4.33,1.29l4.08.45a17.92,17.92,0,0,0,.33,1.94,82.67,82.67,0,0,0-8.82,4.75,7.63,7.63,0,0,0-6.05-8.61.7.7,0,0,0-.67.19.73.73,0,0,0-.26.33c-.37,1-.74,2-1.12,3.05a28.59,28.59,0,0,1-10.8-5.56c-6.25-5.5-6.8-13.38-5.3-21.12,1.83-9.38,6.76-21.44,2.33-30.73a.3.3,0,0,0,0-.08l0-.08a.57.57,0,0,0-.12-.15h0a.65.65,0,0,0-.18-.15c-1.21-.89-4.65-1.08-5.72-.47-.45.26-.68.25-1,.76s.27,3.39.29,3.82c.1,1.79.11,3.59,0,5.38-.45,12.08-8,24.76-3.93,36.8,3,9,10.41,15.84,19.21,19.16.68.25,1.41.5,2.16.72-.14.37-.28.75-.41,1.13a.75.75,0,0,0,.34.84,8.17,8.17,0,0,0,5.78.71,50.16,50.16,0,0,0-.48,7.72c-.27,6-.37,11.92-.42,17.88a12.73,12.73,0,0,0-5.2.17c-2.07.63-2.25,1.7-3.29,3.57-.9,1.65-1.77,3.3-2.6,5a.81.81,0,0,0-.5,1.07A65.44,65.44,0,0,0,19,140.33c-.85,4.38-2.09,8.74,2.58,11A29.11,29.11,0,0,0,32,153.85c4.45,1.06,11.59-2.24,15.13-4.07,3.09-1.52,8.79-3.56,10-7.22a5.81,5.81,0,0,0,.2-.94c3.48.79,7,1.56,10.46,2.23a119.2,119.2,0,0,0,12.35,1.77,43.89,43.89,0,0,0,6.09.56c-.91,4.29-2.89,10.57.77,13.5,2,1.55,4.41,2,6.71,2.85,2.72,1,5.56,2.21,8.52,1.94a.67.67,0,0,0,.35-.13c3.92-.36,8.7-2.74,11.79-4.59s8.59-4.31,9.7-8.16a8.08,8.08,0,0,0,.26-2.4l1.3.1c.8,4.5,1.42,9,2.06,13.56.29,2.1.59,4.21.9,6.31.24,1.59.19,4.72,1.08,6.11,1.3,2,3.77,2,5.54.68,2.48-1.24,4.28-5.67,4.91-7.74.68-2.24.21-4.57,0-6.87-.31-3.6-.63-7.19-.94-10.79,7.75.78,15.49,1.6,23.25,2.17h0c-.56,2.87-1,5.75-1.61,8.62-.49,2.4-1.88,5.33-1.64,7.76.2,2.11,1.81,4.42,2.69,6.31a16.18,16.18,0,0,0,1.23,2.64.82.82,0,0,0,.72.63,3.94,3.94,0,0,0,.87.4c4,1.38,4.05-2.58,4.75-5.44,1.6-6.54,2.76-13.18,4.61-19.66a.68.68,0,0,0-.16-.66c3,.09,6,.13,9,.09a.75.75,0,0,0,1.09-.2c2.23-3.58,5.55-7.45,6.87-11.44s-.22-9.15-.51-13.16a14.1,14.1,0,0,0,1.56-1.62,17.34,17.34,0,0,0,3.86-11.21l.11-.21a.76.76,0,0,0-.18-.88,13.07,13.07,0,0,0-6.81-10.81q-.24-3.37-.57-6.73a.85.85,0,0,0-.56-.81c-8.7-2-17.44-3.79-26.25-5.23,0-.3.07-.6.1-.91C161.73,88.56,161.9,86.91,162.09,85.27Zm19.46,16.16,0,2.87c-.06-1-.12-1.9-.19-2.85ZM110.27,121l.09.92a4.38,4.38,0,0,0-1.69-.18c-.58-.06-1.2-.14-1.85-.24-.28-1.25-.55-2.51-.8-3.77-.9-4.54-1.62-9.13-2.34-13.71C107.94,108.29,109.65,114.33,110.27,121Zm10.25,2.11c-.22,1.19-.44,2.38-.65,3.57a33.94,33.94,0,0,1-.78-5.72A15.74,15.74,0,0,0,120.52,123.15ZM163,98.53c4.26.6,8.49,1.35,12.71,2.2l-31-2a2.7,2.7,0,0,0-1.76-.85,2.77,2.77,0,0,0-2.07.6l-4.48-.3a.68.68,0,0,0-.44-.18c-1.06-.07-2.12-.06-3.18,0l-4-.27a.7.7,0,0,0-.25-.57A192.5,192.5,0,0,1,163,98.53Zm2.23,54.57-.12-.2,3.3.19-.06.28Zm7.41.49a.74.74,0,0,1,0,.14l-2.75-.24c0-.1,0-.21.07-.32,1,.05,1.93.08,2.89.12A.87.87,0,0,0,172.63,153.59Z"/><path class="cls-1" d="M166.2,181.88a7.11,7.11,0,0,1-2.3-.42,8.5,8.5,0,0,1-1-.42,3.29,3.29,0,0,1-2-1.86,10.1,10.1,0,0,1-.79-1.66c-.13-.31-.27-.66-.46-1.05s-.51-1-.8-1.57a15,15,0,0,1-2.1-5.55,16,16,0,0,1,1-6.17c.25-.84.5-1.64.63-2.33.32-1.55.6-3.1.88-4.66.07-.4.15-.8.22-1.19-5.79-.47-11.6-1.06-17.25-1.63l-.28,0,.3,3.47.38,4.31c0,.43.08.85.13,1.27a15.86,15.86,0,0,1-.24,6.54c-.51,1.68-2.42,7.19-6,9.14a6.68,6.68,0,0,1-5,1.24,5.92,5.92,0,0,1-4-2.69c-1-1.54-1.16-3.73-1.31-5.66,0-.54-.08-1-.14-1.43-.31-2-.59-4.06-.88-6.09l-.17-1.28c-.28-2-.57-4-.87-6a29,29,0,0,1-7.33,5.1l-1.26.7c-2.64,1.58-7.75,4.3-12.37,4.87a3.39,3.39,0,0,1-.78.17c-3.22.29-6.17-.8-8.78-1.77l-.83-.31c-.55-.2-1.11-.37-1.67-.55a17.08,17.08,0,0,1-5.74-2.7c-4-3.23-3.26-8.68-2.3-13.1l-1.69-.22c-.57-.08-1.09-.16-1.53-.19a122.94,122.94,0,0,1-12.6-1.82c-2.92-.56-5.78-1.17-8.35-1.75-1.82,3.38-6,5.31-9.21,6.76l-1.53.71c-7.11,3.67-12.7,5.12-16.58,4.31a31,31,0,0,1-11.18-2.72c-6.09-3-4.93-8.73-4.09-12.92l.17-.84a67.46,67.46,0,0,1,5.23-15.5,3.43,3.43,0,0,1,.31-1.24,3.24,3.24,0,0,1,.81-1.09c.73-1.46,1.52-3,2.36-4.48l.44-.83a6.53,6.53,0,0,1,4.3-3.92,11.62,11.62,0,0,1,3.43-.46h0c.05-4.73.15-10,.39-15.32,0-.63,0-1.3.05-2,0-.92,0-1.9.09-2.9a11,11,0,0,1-4.1-1.2,3.26,3.26,0,0,1-1.7-2.53l-.11,0C18.11,84.58,10.57,77,7.4,67.65c-2.76-8.2-.68-16.41,1.34-24.36,1.18-4.65,2.3-9,2.46-13.34.07-1.73.06-3.46,0-5.15,0,0,0-.22-.07-.45-.36-2.39-.47-3.62.06-4.65A3.65,3.65,0,0,1,12.94,18l.14-.07c1.95-1.12,6.31-.82,8.32.54a3.05,3.05,0,0,1,.7.6l0,0a2.81,2.81,0,0,1,.47.69s0,.1.07.15l0,.08c3.79,8.05,1.42,17.5-.68,25.84-.56,2.25-1.1,4.38-1.48,6.37C18.88,60.73,20.35,66.87,25,71a23.21,23.21,0,0,0,7.64,4.3l.29-.77a3.08,3.08,0,0,1,1-1.37,3.19,3.19,0,0,1,2.84-.73,10.82,10.82,0,0,1,3,1.16,2.67,2.67,0,0,1,.09-.26,276.43,276.43,0,0,1,3-35.37,3.1,3.1,0,0,1,.59-2.29l.18-.2a3.32,3.32,0,0,1,.52-.54c1.61-1.54,4-2.37,6-3.05.59-.2,1.15-.39,1.62-.58.77-.32,1.47-.63,2.12-.91,1-.45,2-.86,2.92-1.2v-.12c.14-1.34.5-4.9,3.62-5.22a3.07,3.07,0,0,1,2.35.75,3.64,3.64,0,0,1,.54.57,4.15,4.15,0,0,1,.75-.15,3.11,3.11,0,0,1,2.3.7A4.47,4.47,0,0,1,67.75,28a3,3,0,0,1,1.3.32c.14.08.28.16.41.25l1,.07a2.92,2.92,0,0,1,2.22.19h0a93.9,93.9,0,0,1,19.14,3.54c.29.09.58.16.86.23a6,6,0,0,1,3,1.44,3.1,3.1,0,0,1,1.57,2.25,195.1,195.1,0,0,1,2.22,29.27c0,.32,0,.68,0,1.07.06,2.63.13,6.24-1.82,8.47-1.32,1.5-3.36,2.3-5.16,3-.54.22-1.06.42-1.5.63l-1,.49c3,.74,6.18,1.57,9.54,2.52a3.14,3.14,0,0,1,1.43.86,6.12,6.12,0,0,1,2,3.57,19.21,19.21,0,0,1,6.31,3.39,3.09,3.09,0,0,1,.9,3.67l1.16.85.4.29a19.79,19.79,0,0,1,6.19,6.94,16.29,16.29,0,0,1,7.49-6.92C126.86,91.3,129.1,87,134,86c4.29-.87,9.21-.1,13.55.58.69.11,1.37.22,2,.31,0-.1,0-.21,0-.32-2.95-.31-5.91-.64-8.86-1l-11.29-1.28-.66,0c-1.33-.08-3.36-.2-4.74-1.65-2.33-2.44-1.82-6.86-1-12,.14-.86.27-1.61.32-2.11a161.44,161.44,0,0,1,3.19-19.64,3.23,3.23,0,0,1,3.11-2.5h0c3.84-1.75,8-3.36,12.65-3.26a37.31,37.31,0,0,1,4.38.38,3.22,3.22,0,0,1,.68-1.61,3.33,3.33,0,0,1,4.67-.55,14,14,0,0,1,3,3.28,3.28,3.28,0,0,1,5.53-2,7.53,7.53,0,0,1,1.87,3l.1-.31A3.2,3.2,0,0,1,165,43.13a3.31,3.31,0,0,1,3.17,1,3.14,3.14,0,0,1,.83,2.54,44.94,44.94,0,0,1,4.1-2.7,3.18,3.18,0,0,1,3.21,0A3.35,3.35,0,0,1,178,46.75v0l1.74.12a168.07,168.07,0,0,1,20.35,2.36,3.27,3.27,0,0,1,2.57,3.16,157.09,157.09,0,0,1-1.08,16.78c-.16,1.55-.32,3.1-.46,4.65-.56,6-2.53,9.68-7.56,14a3.25,3.25,0,0,1-2.56.77l-.1,0c-2.34,1.09-5.13.78-7.46.53-.73-.08-1.42-.16-2-.17-5.36-.17-11-.49-17.15-1,0,.36-.07.72-.11,1.08,7.19,1.23,14.91,2.79,24.08,4.87a3.15,3.15,0,0,1,2.28,2,3.08,3.08,0,0,1,.23,1.16c.16,1.65.32,3.37.47,5.34a15.64,15.64,0,0,1,6.84,11.47,3.22,3.22,0,0,1,.14,2.44,19.89,19.89,0,0,1-4.43,12.29c-.28.33-.57.66-.88,1,.08.75.2,1.54.32,2.36.49,3.43,1.05,7.3-.05,10.62a35.53,35.53,0,0,1-5,8.81c-.78,1.11-1.51,2.16-2.14,3.17a3.25,3.25,0,0,1-3.71,1.39c-2,0-4.05,0-6.23,0-.95,3.5-1.73,7.1-2.48,10.59-.56,2.55-1.13,5.18-1.76,7.77-.1.38-.18.8-.26,1.21-.41,2-.91,4.57-3.06,5.8A4.72,4.72,0,0,1,166.2,181.88Zm-1.08-5.34h0a1.44,1.44,0,0,0,.39.18,2.72,2.72,0,0,0,.56.14,11.19,11.19,0,0,0,.65-2.39c.1-.49.19-1,.3-1.42.62-2.53,1.18-5.12,1.73-7.64.66-3.06,1.35-6.2,2.15-9.33l-1.29-.1a2.67,2.67,0,0,1-.75-.19,2.33,2.33,0,0,1-.75.06l-3.12-.27a2.36,2.36,0,0,1-.53-.1c-.1.53-.19,1.06-.29,1.59-.29,1.59-.57,3.18-.89,4.76-.19.93-.48,1.88-.76,2.8a13,13,0,0,0-.85,4.22,12,12,0,0,0,1.53,3.67c.34.64.68,1.26.95,1.85s.38.88.53,1.25A7,7,0,0,0,165.12,176.54Zm-1-.33h0Zm-39.79-29.52h.19l1.31.1a2.51,2.51,0,0,1,2.26,2.06c.75,4.2,1.35,8.47,1.93,12.61l.18,1.28c.28,2,.56,4,.86,6,.08.49.13,1.1.18,1.78a13,13,0,0,0,.54,3.35.88.88,0,0,0,.61.46,1.73,1.73,0,0,0,1.29-.41,2.26,2.26,0,0,1,.42-.26c1.28-.64,2.85-3.67,3.63-6.23a11.9,11.9,0,0,0,.05-4.55c-.05-.46-.1-.92-.14-1.37l-.38-4.32q-.28-3.24-.56-6.48a2.51,2.51,0,0,1,2.74-2.7l3.28.33c6.53.67,13.27,1.35,19.91,1.84a2.47,2.47,0,0,1,1.29.47,2.53,2.53,0,0,1,1.33-.3l3.26.19a2.41,2.41,0,0,0,1.5.08c.95.05,1.91.09,2.86.12a2.62,2.62,0,0,1,.56.09,2.45,2.45,0,0,1,.55,0c3,.1,5.81.13,8.46.1.54-.81,1.1-1.62,1.65-2.42,1.74-2.49,3.53-5.06,4.34-7.52.73-2.2.28-5.32-.15-8.33-.2-1.35-.38-2.62-.47-3.86a2.55,2.55,0,0,1,.81-2,12,12,0,0,0,1.32-1.36,14.87,14.87,0,0,0,3.28-9.58,3.11,3.11,0,0,1,0-.43,3.86,3.86,0,0,1-.09-.49,10.68,10.68,0,0,0-5.49-8.82,2.47,2.47,0,0,1-1.32-2c-.15-2.09-.3-3.89-.46-5.57-9.49-2.13-17.41-3.7-24.83-4.91a2.5,2.5,0,0,1-2.07-2.8c0-.27.06-.54.08-.81.15-1.7.33-3.39.52-5a2.48,2.48,0,0,1,2.7-2.19c7,.6,13.34,1,19.3,1.17.76,0,1.54.11,2.37.2,1.79.19,4.25.46,5.16-.31a2.46,2.46,0,0,1,2-.56h.06c3.38-3.1,4.58-5.56,5-9.91.15-1.56.3-3.12.46-4.69.49-4.86,1-9.88,1.06-14.81a177,177,0,0,0-18.27-2c-3.84-.29-5.23-.39-6.84,1.71a2.19,2.19,0,0,1,0,.51.11.11,0,0,1,0,0,2.46,2.46,0,0,1-.81,1.54,2.5,2.5,0,0,1-1.94.62l-2-.22a2.33,2.33,0,0,1-.73-.2,2.4,2.4,0,0,1-.76,0l-2.06-.23a2.32,2.32,0,0,1-.74-.2,2.83,2.83,0,0,1-.77,0l-2.58-.28a2.48,2.48,0,0,1-.72-.2,2.61,2.61,0,0,1-.74,0l-3.89-.43a2.51,2.51,0,0,1-2.23-2.42,9.14,9.14,0,0,0-.54-2.9,3.25,3.25,0,0,1-.54,0L149.19,49a48.45,48.45,0,0,0-6.88-.83c-3.85-.06-7.43,1.41-11.05,3.08h0A157.5,157.5,0,0,0,128.41,69c-.06.67-.2,1.5-.36,2.46-.27,1.61-1.08,6.43-.39,7.61a7,7,0,0,0,1.45.17l.94.07,11.28,1.28q5.79.66,11.59,1.25a2.5,2.5,0,0,1,1.79,1.06,2.46,2.46,0,0,1,.38,2,31.83,31.83,0,0,0-.67,3.35l0,.18s0,.1,0,.15a10,10,0,0,0-.07,1.08,2.51,2.51,0,0,1-2.82,2.46l-.9-.12c-1.21-.15-2.49-.35-3.82-.56-3.92-.62-8.37-1.31-11.78-.62-1.79.36-3,1.68-4,3.61a190.27,190.27,0,0,1,32.38,1.56h0c3.95.55,8.15,1.28,12.85,2.22a2.5,2.5,0,0,1-.65,5l-31-2a2.49,2.49,0,0,1-1.62-.74.32.32,0,0,0-.12-.1,1.24,1.24,0,0,0-.31,0,2.5,2.5,0,0,1-1.77.58l-4.48-.29a2.53,2.53,0,0,1-.85-.21c-.72,0-1.45,0-2.22,0h-.56l-4-.26a2.51,2.51,0,0,1-1.75-.89c-3,1.49-5.67,5.77-6.82,9.61a2.5,2.5,0,0,1-4.84-.18,27.71,27.71,0,0,0-.79-3,14.14,14.14,0,0,0-5.58-7.29l-.41-.3c-.78-.57-1.76-1.29-2.79-2a2.49,2.49,0,0,1-.84-3.19l.18-.36a13.55,13.55,0,0,0-4.55-1.9,2.51,2.51,0,0,1-2-1.93l-.11-.55a10.25,10.25,0,0,0-.48-1.72l-.06,0C92.39,85,87.55,83.75,83,82.78a2.49,2.49,0,0,1-1.64-3.72,2.53,2.53,0,0,1,1.39-1.86l6.16-3c.57-.27,1.18-.52,1.83-.77A10.62,10.62,0,0,0,94,71.82c.67-.77.61-3.78.58-5.06,0-.44,0-.85,0-1.21a189.28,189.28,0,0,0-2-27.48,2.61,2.61,0,0,1-.43-.45l-.55-.14c-.37-.1-.77-.19-1.16-.31A88.64,88.64,0,0,0,71.6,33.78a3.1,3.1,0,0,1-.42-.08h-.41c-.85-.08-1.71-.14-2.56-.2a2.63,2.63,0,0,1-.62-.13,2.35,2.35,0,0,1-.59,0l-1.44-.09a2.49,2.49,0,0,1-1.36-.51,2.5,2.5,0,0,1-1.33.36H62.2a2.33,2.33,0,0,1-1.32-.34,2.5,2.5,0,0,1-1.17.68A25.54,25.54,0,0,0,55.87,35c-.68.3-1.41.62-2.22.95-.55.23-1.2.45-1.89.69a16.1,16.1,0,0,0-3.9,1.72,271.4,271.4,0,0,0-3,35.36c.25,0,.59.06,1,.08s.73,0,1.1.08L51,74.3a2.5,2.5,0,0,1,2.21,2.17,13.54,13.54,0,0,0,.28,1.65A2.5,2.5,0,0,1,52.09,81a70,70,0,0,0-7.32,3.9l-1.23.72a2.49,2.49,0,0,1-3.72-2.57,5,5,0,0,0-2.74-5.25l-.55,1.49a2.5,2.5,0,0,1-3.08,1.53,31.64,31.64,0,0,1-11.72-6.08c-6-5.33-8.1-13.22-6.1-23.47.41-2.13,1-4.32,1.54-6.64,1.86-7.4,4-15.77,1.16-22.16a7.68,7.68,0,0,0-2.48-.23c.06.51.15,1.09.19,1.35.06.44.11.79.12.93.1,1.84.11,3.72,0,5.61C16,35,14.78,39.82,13.59,44.52c-1.93,7.58-3.74,14.73-1.45,21.53,2.65,7.85,9.27,14.43,17.73,17.62.65.24,1.32.47,2,.66a2.46,2.46,0,0,1,1.53,1.27A2.56,2.56,0,0,1,33.63,87a5.44,5.44,0,0,0,2.6,0,2.5,2.5,0,0,1,3.07,2.93,28.58,28.58,0,0,0-.38,5.17c0,.75,0,1.47-.05,2.15-.29,6.23-.37,12.49-.42,17.79a2.51,2.51,0,0,1-.86,1.86,2.47,2.47,0,0,1-2,.6,10.77,10.77,0,0,0-4.16.08c-.7.21-.71.24-1.31,1.41-.16.3-.32.63-.52,1-.91,1.66-1.77,3.3-2.54,4.87a3,3,0,0,1-.31.48,2.31,2.31,0,0,1-.19.56,63,63,0,0,0-5.13,14.94l-.18.87c-1,4.84-.91,6.31,1.4,7.45a27,27,0,0,0,9.46,2.22,3.11,3.11,0,0,1,.44.06c2.58.62,7.46-.79,13.4-3.85.54-.27,1.1-.52,1.7-.8,2.54-1.16,6.39-2.92,7.07-5a2.75,2.75,0,0,0,.1-.49,2.53,2.53,0,0,1,1.06-1.72,2.47,2.47,0,0,1,2-.38c3,.7,6.65,1.5,10.37,2.21a118.36,118.36,0,0,0,12.09,1.74c.52.05,1.13.13,1.79.22a23.74,23.74,0,0,0,4,.33,2.5,2.5,0,0,1,2.56,3c-.11.49-.23,1-.35,1.54-.8,3.5-1.8,7.86.23,9.49a12.72,12.72,0,0,0,4.13,1.83c.63.2,1.26.4,1.87.63l.86.32c2.21.81,4.29,1.6,6.29,1.49a2.37,2.37,0,0,1,.64-.14c2.7-.26,6.71-1.84,10.73-4.25.46-.27.91-.51,1.39-.77,2.59-1.43,6.52-3.58,7.2-5.94a5.58,5.58,0,0,0,.16-1.64,2.51,2.51,0,0,1,2.5-2.57ZM26.64,123.78Zm167.25-7.33Zm-51.45-16.07Zm44.73-1.6h0Zm-1.37-1.84Zm-78-4.58h0ZM98.2,86.58h0Zm-54-8c.09.23.17.46.25.7l1-.58C45.07,78.72,44.64,78.69,44.18,78.63Zm128.35-24.8h0Zm1.34-8.6ZM70.06,33.05h0ZM18.88,22.78h0Zm101,106.44a2.51,2.51,0,0,1-2.42-1.87,34.33,34.33,0,0,1-.81-5.61l0-.52a2.5,2.5,0,0,1,4.67-1.43,12.8,12.8,0,0,0,1.2,1.8,2.51,2.51,0,0,1,.51,2l-.11.57-.54,3a2.49,2.49,0,0,1-2.36,2.06Zm-9.51-4.76a2.51,2.51,0,0,1-.72-.11,2.08,2.08,0,0,0-.74-.08,2.09,2.09,0,0,1-.5,0c-.62-.07-1.27-.16-2-.26a2.49,2.49,0,0,1-2.07-1.92c-.29-1.27-.56-2.55-.81-3.83-.89-4.44-1.6-9-2.29-13.34l-.07-.47a2.5,2.5,0,0,1,4.23-2.17c4.2,4.17,6.53,10.06,7.32,18.53l.09.92a2.51,2.51,0,0,1-2.49,2.73ZM181.6,106.8a2.49,2.49,0,0,1-2.49-2.33l-.06-1c0-.62-.08-1.24-.13-1.86A2.5,2.5,0,0,1,181,99a2.57,2.57,0,0,1,2.05.53,2.52,2.52,0,0,1,1,1.87l0,2.88a2.49,2.49,0,0,1-2.39,2.54Zm0-5.37h0Z"/><path class="cls-1" d="M155.77,49.11c2.68-.77,1.13-3.08,1.18-5,.06-2.16,1.32-3.91,2.62-5.53s2.5-3.47,3.88-5.05l.17,0A31.88,31.88,0,0,0,167,34c.95,5.18,1.68,9.88,0,15-.3.91,1.14,1.31,1.45.39,1.73-5.2,1.08-10.09.13-15.31.59,0,1.18.05,1.78.05a.81.81,0,0,0,.37-.1.77.77,0,0,0,.3,0c1.25-.26,2.93-.61,2.88-2.21s-1.67-2-3.07-2.3c.89-1.81,2-3.89,1.64-5.85a4,4,0,0,0-3.62-3.19c-4.39-.46-6.92,4.37-6.94,8.17a2.51,2.51,0,0,0-2.37.79,1.77,1.77,0,0,0-.1,2.41,4.36,4.36,0,0,0,2.36,1.22,36.1,36.1,0,0,0-5.38,7.45,8.88,8.88,0,0,0-1,3.51c0,1,1.2,3.24,0,3.58A.75.75,0,0,0,155.77,49.11Zm6.89-18.81a.61.61,0,0,0,.71-.71l6,3.09a29.67,29.67,0,0,1-5.39-.61l-.55-.09a.59.59,0,0,0-.43-.07,3.82,3.82,0,0,1-1.61-.51C159.53,29.85,161.94,30.21,162.66,30.3Z"/><path class="cls-1" d="M167.67,52.49a3.4,3.4,0,0,1-1.08-.18,3.16,3.16,0,0,1-2-4c1.31-3.94,1-7.58.27-12l-.39-.06c-.43.54-.85,1.12-1.28,1.71-.54.74-1.08,1.47-1.64,2.17-1.07,1.34-2,2.65-2.07,4a6.51,6.51,0,0,0,.16,1.15c.24,1.25,1,5-3.15,6.24h0a3.2,3.2,0,0,1-4-2.23,3.25,3.25,0,0,1,.74-3.14s0-.1,0-.14a7,7,0,0,1-.34-1.94,10.67,10.67,0,0,1,1.29-4.58,29.63,29.63,0,0,1,3.69-5.59,4.38,4.38,0,0,1-.36-.39,4.27,4.27,0,0,1,.18-5.69,4.83,4.83,0,0,1,1.94-1.34A11.74,11.74,0,0,1,163,20.05a7.62,7.62,0,0,1,6-2,6.52,6.52,0,0,1,5.82,5.23,8.8,8.8,0,0,1-.68,4.85,4.23,4.23,0,0,1,2.15,3.66c.12,3.69-3.63,4.48-4.86,4.74h0c.67,4.48.89,9-.7,13.71A3.24,3.24,0,0,1,167.67,52.49Zm-11.9-3.38h0Zm8.72-21.75h0l3.78,1.93a2.68,2.68,0,0,1,.25-.82l.12-.26c.7-1.4,1.49-3,1.3-4.05A1.53,1.53,0,0,0,168.53,23a2.73,2.73,0,0,0-2.18.74A6.76,6.76,0,0,0,164.49,27.36Z"/><path class="cls-1" d="M176.17,23c-.73.64.34,1.7,1.06,1.06a4.5,4.5,0,0,1,4-1c.94.2,1.34-1.24.4-1.45A6.13,6.13,0,0,0,176.17,23Z"/><path class="cls-1" d="M176.73,26.78a3.09,3.09,0,0,1-1-.17,3.31,3.31,0,0,1-2.21-2.47,3.11,3.11,0,0,1,1-3,8.64,8.64,0,0,1,7.62-2,3.13,3.13,0,0,1,2.36,2.11,3.33,3.33,0,0,1-.71,3.24,3.24,3.24,0,0,1-3.1,1,2,2,0,0,0-1.79.47A3.23,3.23,0,0,1,176.73,26.78Zm1.1-1.89h0ZM176.17,23h0Zm5.56-2.42Z"/><path class="cls-1" d="M176.49,19.85l4.32-4.14c.69-.67-.37-1.73-1.07-1.06l-4.31,4.14C174.74,19.46,175.8,20.52,176.49,19.85Z"/><path class="cls-1" d="M176,22.57a3.5,3.5,0,0,1-.9-.13,3.33,3.33,0,0,1-2.3-2.39,3.14,3.14,0,0,1,.9-3.06L178,12.85a3.22,3.22,0,0,1,4.6.11,3.18,3.18,0,0,1-.07,4.55l-4.31,4.14A3.21,3.21,0,0,1,176,22.57ZM174.76,18h0Z"/><path class="cls-1" d="M173.55,17.6l2.55-4.26a.75.75,0,0,0-1.29-.76q-1.29,2.13-2.56,4.26C171.75,17.67,173.05,18.42,173.55,17.6Z"/><path class="cls-1" d="M172.93,20.46a3.35,3.35,0,0,1-1.7-.48,3.2,3.2,0,0,1-1.12-4.43l2.55-4.25a3.25,3.25,0,0,1,5.58,3.32l-2.55,4.26h0A3.2,3.2,0,0,1,172.93,20.46Zm.62-2.86Zm-2.15-1.29Z"/><path class="cls-2" d="M19.7,21.24c1.6,2.68,1.66,6.07,1.47,9.24A76.78,76.78,0,0,1,19.59,42c-.88,4.07-2.09,8.07-2.7,12.2a24,24,0,0,0,1,12.36,20.27,20.27,0,0,0,9.61,10c4.09,2.16,8.58,3.25,13,4.32.63,1.54-.32,5.54-1.81,6.07s-5.06-.29-6.57-.71a33.41,33.41,0,0,1-13.67-7.53,27.68,27.68,0,0,1-7.68-11.27c-2.91-7.3-.7-15.69,1.42-23.27A59.34,59.34,0,0,0,14.1,21.05c-.08-.62,5.62-.43,5.6.19"/><path class="cls-3" d="M19.05,21.62c3.77,7.72.23,18.42-1.63,26.25-1.4,5.88-2.57,12.15-.56,18a20.32,20.32,0,0,0,9,10.62,35.32,35.32,0,0,0,7.77,3.32c1.31.42,4,.53,5,1.35,2.23,2,.9,4.88-2,5.14-6.48.58-14.56-5-18.79-9.23A25.27,25.27,0,0,1,10.19,57.6c.47-7.52,3.54-14.58,4.53-22a58.81,58.81,0,0,0,.48-10c-.06-1.5-.66-3.41.76-4.14a5.41,5.41,0,0,1,3.21.34c.68.69,1.74-.37,1.06-1.06-1-1-4.78-1.27-5.91-.62-.45.26-.68.25-1,.76s.27,3.39.29,3.82c.1,1.79.11,3.59,0,5.38-.45,12.08-8,24.76-3.93,36.8,3,9,10.42,15.84,19.22,19.16,5.36,2,14.22,3.62,12.24-5.33a.77.77,0,0,0-.53-.52c-6.09-1.48-12.49-3-17.32-7.29-6.25-5.5-6.8-13.38-5.3-21.12,1.84-9.43,6.82-21.57,2.26-30.89-.42-.86-1.72-.1-1.29.76Z"/><path class="cls-3" d="M15,30.16a12.08,12.08,0,0,1,5.69-.5c.94.15,1.35-1.29.4-1.44a13.6,13.6,0,0,0-6.49.5c-.91.3-.52,1.75.4,1.44Z"/><path class="cls-3" d="M13.58,38.89a12.18,12.18,0,0,1,5.45,2c.76.59,1.51-.72.76-1.3A13,13,0,0,0,14,37.45c-.94-.16-1.35,1.29-.39,1.44Z"/><path class="cls-3" d="M10.84,48.54a27.48,27.48,0,0,1,6.23,1.81c.89.37,1.28-1.08.4-1.45a27.63,27.63,0,0,0-6.23-1.81c-.94-.16-1.35,1.29-.4,1.45Z"/><path class="cls-3" d="M15.84,57.93c-1.46,1.26-3.86,1.43-5.67,1.17-.95-.13-1.36,1.31-.4,1.45,2.38.34,5.22.09,7.13-1.56.73-.63-.33-1.69-1.06-1.06Z"/><path class="cls-3" d="M16.93,67.54a10,10,0,0,1-3.72,3.13c-.87.44-.11,1.73.75,1.3a11.52,11.52,0,0,0,4.26-3.67c.56-.79-.74-1.54-1.29-.76Z"/><path class="cls-3" d="M22.53,74.06a10.3,10.3,0,0,1-2.73,5.15c-.7.68.36,1.74,1.06,1.06A11.65,11.65,0,0,0,24,74.46c.15-.94-1.29-1.35-1.45-.4Z"/><path class="cls-3" d="M29.5,78.24a6.13,6.13,0,0,1-1.95,5.59c-.8.54-.05,1.84.75,1.29A7.54,7.54,0,0,0,31,77.85a.75.75,0,0,0-1.45.39Z"/><path class="cls-4" d="M12.67,18.23a16.71,16.71,0,0,1-5.22-2.94A5.5,5.5,0,0,1,5.63,12.6a2.69,2.69,0,0,1,1-2.9,2.82,2.82,0,0,1,3.38.74,7.49,7.49,0,0,1,1.52,3.38C11.87,15,12,17.21,12.67,18.23Z"/><path class="cls-3" d="M12.87,17.51A17.11,17.11,0,0,1,8.33,15a5,5,0,0,1-2-2.64,1.71,1.71,0,0,1,2.87-1.67c2.29,1.91,1.39,5.5,2.79,7.88a.75.75,0,0,0,1.3-.76c-1.22-2.07-.77-4.78-2-6.93-1-1.75-3.35-3-5.21-1.73s-1.5,3.75-.37,5.34C7.31,16.75,10,18,12.47,19,13.37,19.31,13.76,17.86,12.87,17.51Z"/><path class="cls-4" d="M17,17.58c-1.31-2.33-2.89-5.3-2.82-8,0-1.31,1.13-3,2.42-3.23a3.33,3.33,0,0,1,2.87,1.2,5.24,5.24,0,0,1,.32,2.55C19.66,12.31,17.64,15.49,17,17.58Z"/><path class="cls-3" d="M17.62,17.2a24.16,24.16,0,0,1-2.33-5.06,5.06,5.06,0,0,1,0-3.71c.71-1.41,2-1.67,3.1-.61,2.27,2.26-1.23,7.09-2.1,9.56-.32.92,1.13,1.31,1.45.4,1-3,6.11-11.67-.47-12.15-2-.14-3.44,1.62-3.76,3.46-.52,3,1.46,6.35,2.86,8.87C16.8,18.8,18.09,18.05,17.62,17.2Z"/><path class="cls-4" d="M20.08,18a7.09,7.09,0,0,1,1-3.51c1-1.69,2.3-3.46,4.23-3.81a3.81,3.81,0,0,1,4.15,2.45,2.61,2.61,0,0,1,.09,1.49,2.83,2.83,0,0,1-2,1.8,13.47,13.47,0,0,1-2.77.36A27.11,27.11,0,0,0,20.08,18Z"/><path class="cls-3" d="M20.83,18a8.35,8.35,0,0,1,2.71-5.57A3.18,3.18,0,0,1,27,11.6c1.39.61,2.63,2.57,1,3.74-1.28.9-3.46.59-5,.95a31.62,31.62,0,0,0-3.15.94c-.91.31-.52,1.76.4,1.44s1.77-.58,2.67-.82c1.63-.42,3.42-.26,5-.84a3.32,3.32,0,0,0,1.64-5.23,4.56,4.56,0,0,0-6.14-1.22A9.56,9.56,0,0,0,19.33,18C19.28,18.91,20.78,18.91,20.83,18Z"/><path class="cls-3" d="M36,75.58a6.76,6.76,0,1,1-4.58,12.48Z"/><path class="cls-3" d="M35.83,76.31a6,6,0,1,1-4,11.1l.34.85,4.58-12.48c.33-.9-1.12-1.3-1.45-.4L30.73,87.86a.75.75,0,0,0,.34.84c4.12,2.15,9.26.61,10.89-3.93a7.59,7.59,0,0,0-5.73-9.91C35.29,74.65,34.88,76.1,35.83,76.31Z"/><path class="cls-1" d="M46.3,37.49c.11.09-.17.19-.2.06s.11-.25.24-.32C50.45,35,53.93,34.24,58,32a4.06,4.06,0,0,1,2.83-.68,196.67,196.67,0,0,1,20.9,2,71,71,0,0,1,11.66,3s1.24.39-10.8,7.53"/><path class="cls-5" d="M45.65,37.11c-.34.8,5.64-1.34,6-1.5,1.19-.49,2.41-.93,3.58-1.45a17.63,17.63,0,0,1,7.56-2,102.38,102.38,0,0,1,20.43,2.13,41.65,41.65,0,0,1,8.3,2.21c1.13.48,1.38-1,.62.26-1.57,2.62-7.48,5-9.91,6.45A.75.75,0,0,0,83,44.49c2.89-1.72,5.83-3.43,8.56-5.41.64-.47,1.94-1.16,2.3-1.91.9-1.87-1-1.84-2.77-2.39C82.25,32,73,31.23,63.77,30.7c-4.74-.27-6.62,1.07-11.07,2.9-2.11.87-5.82,1.68-7.25,3.57-.32.42,0,.95.45,1.1l.15.06A.76.76,0,0,0,46.9,38l.05-.11c.38-.87-.91-1.64-1.3-.76Z"/><path class="cls-2" d="M83.14,79l11.3-5.42a2.44,2.44,0,0,0,1-.71,2.34,2.34,0,0,0,.34-.85,24.66,24.66,0,0,0,.47-5.43,180.88,180.88,0,0,0-2.17-29.67,5.36,5.36,0,0,0-2.65,1.19c-2.77,1.87-5.73,1.87-8.82,3.13"/><path class="cls-3" d="M83.52,79.6,90,76.5c1.72-.82,4.58-1.57,5.86-3,1.56-1.78,1.17-5.8,1.19-7.9a195.51,195.51,0,0,0-2.2-28.9.77.77,0,0,0-.93-.53c-2,.6-3.47,1.8-5.48,2.56s-4,1.08-6,1.77c-.91.32-.52,1.77.4,1.45,2-.69,4-1.05,6-1.77,1.34-.5,3.43-2.24,4.84-1.16.85.65.94,7.61,1.08,9,.23,2.41.41,4.83.54,7.24s.21,4.94.24,7.41c0,2.24.69,7.18-.44,9.08s-4,2.56-5.85,3.44L82.76,78.3c-.87.42-.11,1.72.76,1.3Z"/><path class="cls-2" d="M39.92,116.34c-2.54-.3-6.49-1-9-.44a2.69,2.69,0,0,0-1.34.57c-.38.34-.44.94-.7,1.36-5.05,8-9.48,19.39-9.95,28.91a2.67,2.67,0,0,0,.56,2.18,19.19,19.19,0,0,0,2.88,2c2.9.68,10.16,2.65,13.19,2.11"/><path class="cls-3" d="M39.92,115.59c-2.82-.35-6.36-1.26-9.17-.41-2.07.63-2.25,1.7-3.28,3.57-3.77,6.82-6.94,13.89-8.44,21.58-.86,4.38-2.1,8.74,2.57,11a29.55,29.55,0,0,0,14,2.43c.95-.09,1-1.59,0-1.5a30.47,30.47,0,0,1-12.18-1.89c-5.78-2-3.23-9.12-2-13.68A70.74,70.74,0,0,1,28,120.86c1.51-2.68,2-4.37,5.39-4.4a49.56,49.56,0,0,1,6.55.63c1,.12.95-1.38,0-1.5Z"/><path class="cls-2" d="M46.77,149.13a53.59,53.59,0,0,0,7.43-4.25,5.18,5.18,0,0,0,2.21-2.42,5.47,5.47,0,0,0-.15-3.12c-1.83-6.52-4.11-11-7.22-16.75-1.39-2.58-3.11-4-5.29-5.65-.82-.63-2.88-.07-3.83.14a5.5,5.5,0,0,0-3.24,2.61,137.09,137.09,0,0,0-7.56,26c-.41,2.07-.38,5.66,1.27,6.94a5.5,5.5,0,0,0,4.24.64A39.44,39.44,0,0,0,46.77,149.13Z"/><path class="cls-3" d="M47.15,149.78c3.09-1.52,8.79-3.56,10-7.22,1.34-4.09-2.62-10.76-4.38-14.41-2.46-5.1-7.84-16.55-15.18-10.67-3.39,2.72-4.37,9.11-5.55,13.06-1.61,5.42-4,11.84-3.89,17.56.14,10.55,13.66,4.44,19,1.68.86-.44.1-1.74-.76-1.29a39.45,39.45,0,0,1-10.45,3.76c-3.22.62-6.23-.47-6.29-4.15a25.74,25.74,0,0,1,.94-5.78c1.44-6.55,2.86-13.85,5.8-19.91,5.55-11.44,12.29.7,15.08,6.5,1.25,2.59,4.25,7.63,4.06,10.62-.32,5.12-5.18,7-9.14,9C45.53,148.91,46.29,150.2,47.15,149.78Z"/><path class="cls-3" d="M31,131.89c-2.61.09-.27-3.88,0-5a3.25,3.25,0,0,0-.41-2.49,3,3,0,0,0-2-1.35c-1.2-.19-2.19.92-3.32.69-.94-.19-1.34,1.26-.39,1.45,1.28.26,3.2-1.16,4.23-.26,1.34,1.17-.51,3.9-.86,5.12-.56,2,.75,3.44,2.79,3.37,1,0,1-1.53,0-1.5Z"/><path class="cls-3" d="M29.15,141.32a3.74,3.74,0,0,1-3.6-3.9,11.14,11.14,0,0,0,.23-3.59.73.73,0,0,0-.72-.55c-.54,0-2.46,1-2.74.68-.63-.73-1.69.34-1.06,1.06,1.27,1.46,2.41-.18,3.8-.24l-.72-.55c.37,2-1,4,.23,5.91a6.15,6.15,0,0,0,4.58,2.68c1,.08,1-1.42,0-1.5Z"/><path class="cls-6" d="M34,139.35a36.73,36.73,0,0,0,4.88-3.5,1.83,1.83,0,0,0,.6-.76,1.68,1.68,0,0,0-.18-1.13A30.66,30.66,0,0,0,37,129.6c.79-2,1.6-3.92,2.34-5.73a3.69,3.69,0,0,1,2.18-1.79,2.36,2.36,0,0,1,1.83.75A11.81,11.81,0,0,1,47,126.74a52.86,52.86,0,0,1,4.92,11.57,3.87,3.87,0,0,1,.12,2.15,3.49,3.49,0,0,1-1.49,1.66,35,35,0,0,1-5,2.91c-2.34,1.31-5.24,1.66-7.89,2.06-1,.15-3.21,1.27-4,.62-1.12-.88-.05-3.67,0-5.12A23.2,23.2,0,0,1,34,139.35Z"/><path class="cls-5" d="M34.4,140c2.05-1.28,5.78-3,5.73-5.66-.05-2.52-2.17-4-1.47-6.73.49-2,3-4,5.25-3.38,1.31.34,2.61,3.34,3.18,4.36,1.3,2.34,3.34,5.67,3.59,8.3.24,2.42.16,3.89-2.36,5.78a17.25,17.25,0,0,1-3.16,1.73c-2.25,1-6.63,2.57-9.2,2.41-2.1-.14-2.06-.79-1.73-3,.21-1.41.3-2.84.51-4.24.15-1-1.3-1.35-1.44-.4-.32,2.06-2.08,7.23-.32,8.94,1.39,1.35,4.15-.09,5.67-.4,4.42-.88,8.66-2,12.25-4.92,2.34-1.93,2.11-3.47,1.23-6.29-1.2-3.87-5.12-15.84-10.77-15.13-2.66.34-3.8,4.65-4.45,6.57s-.55,1.22-.1,2.77c.38,1.29,2.13,3.08,1.56,4.63-.45,1.19-3.69,2.73-4.73,3.38C32.83,139.21,33.58,140.51,34.4,140Z"/><path class="cls-7" d="M40.2,135.72a1.81,1.81,0,0,1-.6.75c-1.52,1.31-3.86,1.84-5.58,2.88a54.62,54.62,0,0,1,3-9.75,42.28,42.28,0,0,1,3,5A1.7,1.7,0,0,1,40.2,135.72Z"/><path class="cls-5" d="M39.55,135.34c-1.08,1.81-4.16,2.38-5.91,3.36l1.1.85a57.3,57.3,0,0,1,3-9.75l-1.37.18c1,1.54,3.1,3.83,3.06,5.74a.75.75,0,0,0,1.5,0c0-2.32-2.08-4.65-3.26-6.5a.76.76,0,0,0-1.37.18,56.41,56.41,0,0,0-3,9.75.75.75,0,0,0,1.1.84c2.08-1.16,5.15-1.71,6.45-3.89A.75.75,0,0,0,39.55,135.34Z"/><path class="cls-5" d="M49.87,138.67a65,65,0,0,0-9.59-2.7c-.94-.18-1.34,1.26-.4,1.45a63.82,63.82,0,0,1,9.59,2.7c.91.33,1.3-1.12.4-1.45Z"/><path class="cls-3" d="M38.1,129.15a7.41,7.41,0,0,0,2.34.34,5,5,0,0,0,3.91-1.66,2.52,2.52,0,0,0-.58-3.65s-.58-2.43-2.28-1.2S38.1,129.15,38.1,129.15Z"/><path class="cls-3" d="M37.9,129.87c2.52.72,6.38.47,7.49-2.4A3.35,3.35,0,0,0,45,124.3a6.35,6.35,0,0,0-.58-.58c.17.18.13.26,0,.08s-.25-.68-.47-1c-2.7-3.87-6,4.34-6.59,6.13-.32.91,1.13,1.31,1.45.4s2.27-6.51,3.7-5.9c.34.14.36.63.51.91.36.64,1,.92,1.07,1.75.16,2.84-4,2.83-5.81,2.31A.75.75,0,0,0,37.9,129.87Z"/><path class="cls-1" d="M42.6,124.4a2.58,2.58,0,0,1,1.09,2.71c-.33.86-2.1,1.21-2.85.79-.9-.51-.59-2.46.08-3.08a3,3,0,0,1,2.06-.31c1,.1,1-1.41,0-1.5-1.61-.17-3,.2-3.73,1.74s-.73,4,1.21,4.62c1.51.48,3.78,0,4.53-1.5a4,4,0,0,0-1.63-4.76.75.75,0,0,0-.76,1.29Z"/><path class="cls-2" d="M40,85.6l10.57-5.68a15.58,15.58,0,0,1,3.45-1.51,14.83,14.83,0,0,1,3.77-.32c13.88.09,27.57,3,40.86,6.81,0,0-9.19,9.59-15.64,12.54"/><path class="cls-3" d="M40.41,86.25c3.87-2.08,7.7-4.45,11.69-6.27,4.71-2.14,11.06-1.07,16.1-.57a177,177,0,0,1,30.29,6.21l-.33-1.25c-4.54,4.7-9.6,9.5-15.49,12.42-.87.43-.11,1.73.76,1.3,6-3,11.17-7.88,15.79-12.66a.75.75,0,0,0-.33-1.25,173.23,173.23,0,0,0-32.57-6.44c-4.41-.37-9.49-1.16-13.74.38-4.46,1.62-8.75,4.59-12.92,6.83-.85.46-.1,1.76.75,1.3Z"/><path class="cls-2" d="M88,145.05c4.5-1.15,8.3-4.58,11.28-6.79,5-3.71,5.35-5.83,7.4-7a3,3,0,0,0,1.22-.94,1.42,1.42,0,0,0,.24-1.08c-4.07-13.07-4.91-27.37-8.5-43.28a1.6,1.6,0,0,0-.85-1.13,1.9,1.9,0,0,0-1.11,0c-4.18.8-7.72,3.72-12.59,4.82"/><path class="cls-3" d="M88.15,145.77c6.85-2.15,12.33-7.35,17.21-12.37,1.27-1.3,3.28-2,3.46-4,.11-1.31-.79-3-1.13-4.35-.64-2.42-1.18-4.86-1.67-7.32-2-10-3.06-20.15-5.29-30.09-.53-2.38-.85-3.7-3.3-3.58-4.24.21-8.55,3.72-12.58,4.81a.75.75,0,0,0,.39,1.45,66.58,66.58,0,0,0,8.64-3.47c3.37-1.43,4.49-.27,5.8,3.07a31.66,31.66,0,0,1,1.06,5.57c1.3,7.26,2.27,14.57,3.68,21.81.61,3.18,2.46,7.36,2.48,10.53,0,2.33-1.44,3.26-2.85,4.76-4.45,4.77-10,9.7-16.3,11.69-.91.29-.52,1.74.4,1.45Z"/><path class="cls-1" d="M51.48,76.51a10,10,0,0,0,.8,3.28c.5.93,1.45,1.5,2.21,1s1-2.18,1.11-3.51"/><path class="cls-5" d="M50.73,76.51c.23,1.77.6,5,3,5.19s2.56-2.84,2.66-4.45c0-1-1.45-1-1.5,0,0,.62-.08,3.15-1.16,2.93s-1.35-2.8-1.46-3.67-1.62-1-1.5,0Z"/><path class="cls-1" d="M73.08,79a10,10,0,0,0,.8,3.28c.5.93,1.45,1.5,2.21,1s1-2.17,1.11-3.51"/><path class="cls-5" d="M72.33,79c.23,1.77.6,5,3,5.19s2.56-2.84,2.66-4.45c0-1-1.45-1-1.5,0,0,.62-.08,3.15-1.16,2.93S73.94,79.9,73.83,79s-1.62-1-1.5,0Z"/><path class="cls-4" d="M55.18,38.86a14,14,0,0,1,.07-4.66c.37-1.46,1.48-2.39,2.11-1.36s.27,3.32.65,4.87"/><path class="cls-3" d="M55.55,38.86a23.34,23.34,0,0,1-.15-3c0-.49.34-3.74,1.63-2.82.54.38.39,2.08.41,2.62a13,13,0,0,0,.2,2.16c.1.47.83.27.73-.2-.23-1.12.35-5.81-1.81-5.57-.87.1-1.39,1.15-1.62,1.88a12.83,12.83,0,0,0-.14,4.94c.05.48.8.48.75,0Z"/><path class="cls-4" d="M59.3,37.79A43.33,43.33,0,0,1,59.72,29a6.87,6.87,0,0,1,.45-1.8c.23-.48.58-.71.84-.37a3.16,3.16,0,0,1,.35,1.24,44.63,44.63,0,0,1,.31,9.7"/><path class="cls-3" d="M59.67,37.79a45.4,45.4,0,0,1,0-4.81c.06-1.13-.09-4.8.91-5.3.62-.3.56,1.76.62,2.38.08.8.13,1.61.17,2.41a49.9,49.9,0,0,1-.09,5.33c0,.48.72.48.75,0,.08-1.25.74-11.68-1.37-11.47-1.26.13-1.32,2.56-1.43,3.37a44.69,44.69,0,0,0-.33,8.09c0,.48.77.49.75,0Z"/><path class="cls-4" d="M66.42,38.24a11.89,11.89,0,0,1,.9-6.91c.12-.21.25-.43.41-.45s.42.43.54.85A23.62,23.62,0,0,1,69,38.29"/><path class="cls-3" d="M66.78,38.14a12.72,12.72,0,0,1-.06-3.32c0-.4.4-3.19.93-3.3.75-.15,1,6.08,1,6.77a.38.38,0,0,0,.75,0A26.17,26.17,0,0,0,69,33.45c-.16-.88-.21-2.43-1.11-2.89a.37.37,0,0,0-.38,0c-.92.63-1.22,2.18-1.42,3.2a13.54,13.54,0,0,0-.06,4.58c.07.47.79.27.72-.2Z"/><path class="cls-4" d="M73.42,39.43a11,11,0,0,1,.29-3.76c.36-1.1,1.31-1.53,1.67-.48s-.16,2.9.29,3.92"/><path class="cls-3" d="M73.79,39.43a19,19,0,0,1,0-2.39,5,5,0,0,1,.26-1.27c.17-.47.79-1.13,1-.28.3,1.22-.21,2.51.23,3.72.16.44.89.25.72-.2-.38-1,.56-4.73-1.26-4.8-2.08-.07-1.77,4-1.73,5.22,0,.48.77.48.75,0Z"/><path class="cls-4" d="M62.94,39a42.72,42.72,0,0,1,.43-8.77,6.7,6.7,0,0,1,.44-1.79c.23-.48.58-.71.84-.37A3.11,3.11,0,0,1,65,29.27,44.51,44.51,0,0,1,65.32,39"/><path class="cls-3" d="M63.31,39c-.07-1.61-.07-3.21,0-4.82.06-1.13-.09-4.8.91-5.29.62-.31.56,1.76.62,2.37.08.81.14,1.61.17,2.42A49.67,49.67,0,0,1,64.94,39c0,.49.72.48.75,0,.08-1.24.74-11.68-1.37-11.46-1.25.12-1.32,2.55-1.43,3.37A46.5,46.5,0,0,0,62.56,39c0,.48.77.48.75,0Z"/><path class="cls-4" d="M70,38.74a11.84,11.84,0,0,1,.9-6.9c.12-.22.25-.43.41-.45s.42.43.54.85a23.5,23.5,0,0,1,.75,6.55"/><path class="cls-3" d="M70.39,38.64a12.72,12.72,0,0,1-.06-3.32c0-.4.4-3.19.93-3.3.75-.15,1,6.08,1,6.77a.38.38,0,0,0,.75,0A26.17,26.17,0,0,0,72.64,34c-.16-.88-.21-2.43-1.11-2.89a.42.42,0,0,0-.38,0c-.92.63-1.22,2.18-1.41,3.2a13.55,13.55,0,0,0-.07,4.58c.07.48.79.27.72-.2Z"/><path class="cls-1" d="M43.11,74.14a280.55,280.55,0,0,1,3.1-36.72c11.8,0,24.51,2,36.41,3.77.76,12,.71,26.57.44,38.55-13.7-1.65-26.18-3-39.14-4.46-.65-.08-1.44-.94-.81-1.14"/><path class="cls-5" d="M43.86,74.14c.08-5.56.36-11.12.8-16.67q.35-4.34.82-8.65c.22-2,0-8.37,1.22-9.66,1.77-1.83,6.12-.82,8.51-.65,3.06.21,6.12.52,9.17.88,3.61.42,7.22.93,10.82,1.46,3.39.49,6.2,0,6.86,3.67,1,5.61.4,12,.43,17.75,0,3,0,6,0,9,0,1.93.7,6.09-.72,7.19s-7.24-.45-9.21-.68l-9.31-1.07-9.18-1c-1-.11-10-1.59-10.27-1.12a.75.75,0,0,0-1.3-.76l-.21.37a.77.77,0,0,0,.12.91c1.06,1.34,2.71,1.11,4.32,1.29l11.93,1.32Q70.85,79,83.06,80.49a.76.76,0,0,0,.75-.75c.27-12.85.33-25.71-.44-38.55a.77.77,0,0,0-.55-.72c-12.14-1.81-24.3-3.71-36.61-3.8a.77.77,0,0,0-.72.55,273.52,273.52,0,0,0-3.13,36.92.75.75,0,0,0,1.5,0Z"/><path class="cls-2" d="M51.58,55.43c-.34-2.88.14-8,.42-10.86,7.6.33,15.21,2.26,22.82,2.59A84.08,84.08,0,0,0,75,57.53a.65.65,0,0,1-.21.52,1,1,0,0,1-.65.15c-7.07-.09-15.53-2.69-22.59-2.77"/><path class="cls-3" d="M52.33,55.43a42.83,42.83,0,0,1,0-6.1c0-.81-.17-2.52.24-3.15.71-1,1.53-.66,2.92-.61,3.44.14,6.92.92,10.33,1.4,1.68.24,6,0,7.22.84,1.4,1,1.67,6.4,1.08,7.95-1.09,2.91-5.75,1.2-8,.85-4.87-.76-9.66-1.76-14.59-1.93-1,0-1,1.46,0,1.5,7.2.24,14.68,3.22,21.87,2.74,1.14-.07,1.63,0,2.2-.93s-.05-3-.09-4c-.09-2.28,0-4.56,0-6.85a.77.77,0,0,0-.75-.75C67.16,46,59.65,44.27,52,43.82a.75.75,0,0,0-.75.75,61.61,61.61,0,0,0-.42,10.86c.07,1,1.57,1,1.5,0Z"/><path class="cls-1" d="M39.88,137a3.69,3.69,0,0,1-3.32-3.51c.15-11.49,0-31.42.95-42.57.16-1.89.42-4,1.83-5.22a7.54,7.54,0,0,1,4.43-1.38c12.65-1.13,25.27,2,38,3.78a5.38,5.38,0,0,1,2.47.58c1,.73,1.25,2.13,1.39,3.38,1.48,13.6,3,36.75,4,50.4.07,1,.12,2.15-1.64,2.61a4.89,4.89,0,0,1-1.27.13C71.17,145.13,55.51,139.93,39.88,137Z"/><path class="cls-5" d="M40.08,136.26c-4-1.34-2.71-8.9-2.69-12,0-3.55,0-7.1.08-10.65.08-6.79.16-13.6.61-20.38.29-4.27,0-6.68,5.69-8.19a23.46,23.46,0,0,1,5.69-.24,104.41,104.41,0,0,1,15,1.27c4.45.64,8.87,1.45,13.31,2.14,2.17.34,5.79.23,7,2.75.61,1.32.46,3.92.61,5.42,1.34,13.87,2.24,27.79,3.21,41.69.08,1.13.68,3.31.31,4.36-1,2.95-4.6,2-6.82,1.83a116.53,116.53,0,0,1-14.75-2.05c-9.1-1.79-18.08-4.19-27.19-6-.94-.19-1.35,1.26-.4,1.44,9.42,1.83,18.7,4.35,28.13,6.15a122.4,122.4,0,0,0,12.35,1.78c2.4.2,7,1.36,9.18-.39,1.14-.93,1-2.06,1-3.4,0-3.56-.5-7.19-.75-10.75-.54-7.75-1.09-15.49-1.72-23.22-.27-3.38-.55-6.77-.87-10.14-.22-2.33.06-6.36-1.24-8.43s-3.35-1.89-5.65-2.23c-4.77-.69-9.51-1.58-14.27-2.3-7.48-1.12-17.18-3.12-24.56-.8-5.44,1.7-4.65,8.53-4.86,13.16-.38,8.3-.42,16.62-.47,24.93,0,5.09-2.34,13.61,3.78,15.64C40.6,138,41,136.56,40.08,136.26Z"/><path class="cls-8" d="M44.42,117.88c-1.35-.14-2.35-1-2.27-2,.54-5.85.73-14.47,1.19-20.28a3,3,0,0,1,1.52-2.56,7.08,7.08,0,0,1,3.24-.47c9.18.09,19.15,2.83,28.29,3.75a4.31,4.31,0,0,1,1.76.43A2.05,2.05,0,0,1,79,98.57c.56,7,.82,15.62,1,22.63,0,.52,0,1.1-1.28,1.24a4.71,4.71,0,0,1-.92,0C66.65,121.6,55.58,119,44.42,117.88Z"/><path class="cls-3" d="M44.62,117.15c-3-.89-1.09-11.59-1-13.89.09-1.8-.27-4.54.35-6.24,1.57-4.38,4.5-3.74,7.59-3.52,5.33.37,10.58,1.43,15.85,2.31,1.83.31,3.66.61,5.5.87,3.65.51,4.82.07,5.53,4.39s.49,9,.63,13.3c0,1.11.88,6,.21,6.83-1.08,1.27-4.73.2-6.11,0-9.63-1.08-19.14-3.06-28.77-4.12-1-.11-1,1.39,0,1.5,8.33.91,16.55,2.51,24.85,3.63,2.49.34,9.61,2.63,11.39-.16.73-1.16,0-4.62,0-6-.11-3.58-.24-7.15-.43-10.72s.86-8.52-3.17-9.72c-3.13-.93-6.88-.92-10.12-1.48s-6.68-1.18-10-1.64-11-2.5-13.53.82c-1,1.38-.87,3.5-1,5.1-.2,3.25-.32,6.51-.49,9.76-.19,3.71-2.21,9,2.32,10.35C45.15,118.88,45.54,117.43,44.62,117.15Z"/><path class="cls-3" d="M48.92,98.21a1.09,1.09,0,0,0-.49,1.54,1.58,1.58,0,0,0,1.61.67,1.88,1.88,0,0,0,1.55-1.59,1.57,1.57,0,0,0-1.34-1.67,1.36,1.36,0,0,0-1.41,1.5"/><path class="cls-3" d="M48.54,97.56a1.87,1.87,0,0,0-.15,3.21A2.59,2.59,0,0,0,52,100a2.34,2.34,0,0,0-1-3.38,2.09,2.09,0,0,0-2.87,2.07c.1,1,1.61,1,1.5,0,0-.47.36-.93.83-.67a.81.81,0,0,1,.24,1.21,1.09,1.09,0,0,1-1.25.43c-.38-.15-.53-.59-.11-.77.87-.4.11-1.69-.76-1.3Z"/><path class="cls-3" d="M71.73,100.32a1.7,1.7,0,0,0-.67,2.52,1.81,1.81,0,0,0,2.67,0,1.93,1.93,0,0,0-.31-2.69c-.51-.38-1.4-.4-1.66.19"/><path class="cls-3" d="M71.35,99.67A2.46,2.46,0,0,0,70.28,103a2.53,2.53,0,0,0,3.42.85,2.6,2.6,0,0,0,.82-3.53c-.69-1.18-2.64-1.73-3.41-.33-.47.85.83,1.6,1.29.76.28-.5.9.43.95.65a1,1,0,0,1-.59,1.23,1,1,0,0,1-1.21-.43,1,1,0,0,1,.56-1.25c.88-.39.11-1.68-.76-1.29Z"/><path class="cls-3" d="M41.58,91.41a2.46,2.46,0,0,1,2-3c.94-.11.95-1.61,0-1.5a4,4,0,0,0-3.43,4.9.75.75,0,0,0,1.45-.4Z"/><path class="cls-3" d="M78,92.47c2.29-.46,2.8,2.72,3,4.28.13,1,1.58.55,1.45-.39-.36-2.58-1.59-6-4.87-5.34-.94.19-.54,1.64.4,1.45Z"/><path class="cls-2" d="M48.91,109.82a17,17,0,0,1,.7-5.48c6.21,3.44,14.17,3.88,21.66,2.1,0,2-.33,4.67-.45,6.59a.28.28,0,0,1-.22.26c-.16.06-.42-.06-.63,0-8.38,2.42-16.43.65-21.06-3.47"/><path class="cls-3" d="M49.66,109.82a18.85,18.85,0,0,1,.67-5.28l-1.1.45c7,3.59,14.65,3.82,22.24,2.18l-1-.73c-.06,1.35.38,4.74-.45,5.73-1,1.19-4.9,1.36-6.27,1.43a20.66,20.66,0,0,1-14.36-4.31c-.75-.61-1.81.45-1.07,1.06A22.51,22.51,0,0,0,65.31,115c1.45-.16,5.14,0,6-1.41,1-1.55.59-5.27.67-7.12a.76.76,0,0,0-1-.72c-7.17,1.56-14.45,1.37-21.08-2a.76.76,0,0,0-1.1.45,20.22,20.22,0,0,0-.73,5.68c0,1,1.53,1,1.5,0Z"/><path class="cls-3" d="M53.45,112.19c.12-.91.25-1.82.37-2.72L54,108.3l.11-.78c.1-.42.09-.51,0-.25H53l.07.07v-1.06l0,0c-.62.73.43,1.8,1.06,1.06l.05,0a.77.77,0,0,0,0-1.06l-.07-.07a.77.77,0,0,0-1.06,0c-.55.47-.46,1.63-.55,2.27L52,111.79c-.13.94,1.32,1.35,1.45.4Z"/><path class="cls-3" d="M58.34,112.82c.13-1.53.25-3.06.38-4.6.08-1-1.42-1-1.5,0-.13,1.54-.25,3.07-.38,4.6-.08,1,1.42,1,1.5,0Z"/><path class="cls-3" d="M62.94,114.37a51.45,51.45,0,0,0,.67-6.07c0-1-1.45-1-1.5,0A47,47,0,0,1,61.5,114c-.17.94,1.28,1.35,1.44.4Z"/><path class="cls-3" d="M67.59,113.63c.09-2.08.33-4.14.47-6.21h-1.5l0,.43a.75.75,0,0,0,1.5,0l0-.43c0-1-1.44-1-1.5,0-.14,2.07-.38,4.13-.47,6.21,0,1,1.46,1,1.5,0Z"/><path class="cls-3" d="M51.48,68.39c.06-1.94.47-5.85.53-7.79,6,4.29,14.25,3.08,21.72,2-.06,2.24-.09,5.54-.14,7.78-8.47,2.34-16.6,2.34-22.11-2"/><path class="cls-3" d="M52.23,68.39c.13-2.6.41-5.19.53-7.79l-1.12.65c6.74,4.35,14.75,3.15,22.29,2.07l-1-.73c0,1.74.39,4.25-.11,5.92-.71,2.41-5.16,2.41-7.32,2.57-4.92.38-9.62-.42-13.69-3.33-.78-.57-1.53.73-.76,1.29,6.71,4.81,15.09,4,22.69,2a.76.76,0,0,0,.55-.72c0-2.59.08-5.18.14-7.78a.76.76,0,0,0-1-.72c-7.13,1-14.74,2.21-21.14-1.92a.76.76,0,0,0-1.13.65c-.12,2.6-.4,5.19-.53,7.79,0,1,1.46,1,1.5,0Z"/><path class="cls-1" d="M50.11,64.52c1.64,1.21,2.7,2.43,4.59,3.11a.77.77,0,0,0,.85-.35c.1-.14,1.16-2,1.22-2-.22,0,.43,4,.61,4.62a.75.75,0,0,0,1.44,0,23,23,0,0,1,2-4.48l-1.37-.18c.73,5,3.23,4,7.66,3.3a.71.71,0,0,0,.52-.52l1.12-2.12-1.37-.18c.49,1.25,1,2.51,1.42,3.77a.76.76,0,0,0,1.45,0,17.69,17.69,0,0,1,.63-2.3c.42-.41,3.31-.17,4.36-.22s1-1.55,0-1.5a31.57,31.57,0,0,1-4.86-.12.75.75,0,0,0-.72.55,32.68,32.68,0,0,1-.86,3.19h1.45c-.46-1.26-.94-2.51-1.42-3.77a.76.76,0,0,0-1.37-.18c-1.86,2.43-5.91,4.11-6.57-.3-.09-.65-1.07-.7-1.37-.17a24.17,24.17,0,0,0-2.12,4.83h1.44c-.54-2-.43-4-2-5.42a.76.76,0,0,0-1.18.15c-.64,1.22-.47,1.54-1.68,1.33-.88-.16-2.34-1.8-3.08-2.35s-1.53.73-.76,1.3Z"/><path class="cls-3" d="M56.35,50.65a1.69,1.69,0,0,0,.74,2,1.52,1.52,0,0,0,2.1-.69,1.41,1.41,0,0,0-.73-2,1.51,1.51,0,0,0-1.89.68c-.4.87.89,1.64,1.29.76.12-.24,0,0,0-.06,0,.18.16-.1,0-.07v0a.14.14,0,0,1,0,.06c-.11,0,0,.11-.06.06s-.06-.2,0-.32a.75.75,0,1,0-1.45-.4Z"/><path class="cls-1" d="M55.18,49.05a1.53,1.53,0,0,0,1.17,2.4,1.87,1.87,0,0,0,1.81-2.53,1.71,1.71,0,0,0-3,.13"/><path class="cls-3" d="M54.53,48.67A2.34,2.34,0,0,0,55.59,52a2.6,2.6,0,0,0,3.33-1.63,2.24,2.24,0,0,0-1.49-2.94,2.45,2.45,0,0,0-3,1.39.75.75,0,0,0,1.45.4c.34-.82,1.91-.35,1.62.61a1.11,1.11,0,0,1-1.29.81c-.59-.17-.63-.75-.4-1.24.4-.87-.89-1.63-1.3-.76Z"/><path class="cls-3" d="M67.88,52.17a1.69,1.69,0,0,0,.74,2,1.53,1.53,0,0,0,2.1-.69,1.42,1.42,0,0,0-.72-2,1.52,1.52,0,0,0-1.9.68c-.4.87.89,1.64,1.3.76.11-.24,0,0,0-.06,0,.18.16-.1,0-.07v0a.14.14,0,0,1,0,.06c-.11,0,0,.11-.06.06s0-.2,0-.33a.76.76,0,0,0-.52-.92.78.78,0,0,0-.93.53Z"/><path class="cls-1" d="M66.94,50.72a1.53,1.53,0,0,0,1.17,2.4,1.87,1.87,0,0,0,1.81-2.53,1.71,1.71,0,0,0-3,.13"/><path class="cls-3" d="M66.29,50.34a2.34,2.34,0,0,0,1.06,3.36,2.58,2.58,0,0,0,3.32-1.63,2.22,2.22,0,0,0-1.48-2.93,2.43,2.43,0,0,0-3,1.38.75.75,0,1,0,1.45.4c.34-.82,1.91-.35,1.62.61a1.11,1.11,0,0,1-1.29.81c-.59-.17-.64-.75-.41-1.24.41-.87-.88-1.63-1.29-.76Z"/><path class="cls-3" d="M59,41.65a.59.59,0,0,0,.35,1,.73.73,0,0,0,.8-.9A.66.66,0,0,0,59,41.65"/><path class="cls-1" d="M58.31,41.27a1.37,1.37,0,0,0,.49,1.95,1.45,1.45,0,0,0,2-.72c.74-1.57-1.59-2.63-2.44-1.23A.75.75,0,0,0,59.6,42c-.07.12-.13,0-.17-.05.14.32,0-.14-.06-.09l.14,0q0,.31.09.12c.46-.85-.83-1.61-1.29-.76Z"/><path class="cls-3" d="M65.91,42.54a.58.58,0,0,0,.36,1,.72.72,0,0,0,.79-.9.66.66,0,0,0-1.15-.06"/><path class="cls-1" d="M65.26,42.16a1.37,1.37,0,0,0,.49,2,1.45,1.45,0,0,0,2-.72c.74-1.57-1.59-2.63-2.44-1.23a.75.75,0,0,0,1.3.76c-.08.12-.14,0-.18-.05.15.32,0-.14-.06-.09l.14,0c0,.21.05.25.1.12.45-.85-.84-1.61-1.3-.76Z"/><path class="cls-3" d="M61.07,41.84a.76.76,0,0,0,.46,1.25.94.94,0,0,0,1-1.16.85.85,0,0,0-1.48-.09"/><path class="cls-1" d="M60.42,41.46A1.53,1.53,0,0,0,61,43.67a1.67,1.67,0,0,0,2.21-.78c.89-1.76-1.81-3.06-2.75-1.43a.75.75,0,0,0,1.29.76s0,0,.11,0,0-.07,0,0a.24.24,0,0,1-.19.15s0,0,.06-.13c.48-.84-.82-1.6-1.29-.76Z"/><path class="cls-3" d="M63.59,42.17a.76.76,0,0,0,.46,1.24.93.93,0,0,0,1-1.16.85.85,0,0,0-1.48-.08"/><path class="cls-1" d="M62.94,41.79a1.53,1.53,0,0,0,.54,2.2,1.66,1.66,0,0,0,2.21-.77c.89-1.77-1.81-3.07-2.75-1.43a.75.75,0,0,0,1.3.75s0,0,.11,0,0-.06,0,0a.23.23,0,0,1-.19.15s0,0,.07-.13a.75.75,0,0,0-1.3-.75Z"/><path class="cls-8" d="M46.44,70.6a1.25,1.25,0,0,0,.33,2.33,1.25,1.25,0,0,0,1.15-2.1,1.2,1.2,0,0,0-1.48-.23"/><path class="cls-3" d="M46.06,70a2,2,0,0,0-.75,2.76A2,2,0,1,0,46.06,70c-.86.44-.1,1.74.76,1.3.54-.28,1,.58.47.88s-1-.53-.47-.88c.82-.51.07-1.81-.76-1.3Z"/><path class="cls-8" d="M46.21,70.76l1.59,1.95"/><path class="cls-3" d="M45.68,71.29l1.59,1.95a.75.75,0,0,0,1.06,0,.77.77,0,0,0,0-1.06l-1.59-2a.75.75,0,0,0-1.06,0,.77.77,0,0,0,0,1.06Z"/><path class="cls-8" d="M48.65,39.72a1.26,1.26,0,1,0,1.48.23,1.2,1.2,0,0,0-1.48-.23"/><path class="cls-3" d="M48.27,39.07A2,2,0,1,0,51,39.9a2,2,0,0,0-2.74-.83c-.86.44-.1,1.73.76,1.3a.5.5,0,0,1,.47.88c-.59.34-1-.53-.47-.88.82-.51.07-1.81-.76-1.3Z"/><path class="cls-8" d="M48.43,39.88,50,41.83"/><path class="cls-3" d="M47.9,40.41l1.58,2a.76.76,0,0,0,1.06,0,.77.77,0,0,0,0-1.06L49,39.35a.75.75,0,1,0-1.06,1.06Z"/><path class="cls-8" d="M77.67,42.24a1.57,1.57,0,0,0-.8,1.57,1.54,1.54,0,1,0,2.62-1.29,1.47,1.47,0,0,0-1.82-.28"/><path class="cls-3" d="M77.29,41.59a2.34,2.34,0,0,0-.93,3,2.28,2.28,0,1,0,.93-3c-.86.44-.1,1.74.76,1.29a.79.79,0,0,1,.69,1.42c-.93.45-1.55-.89-.69-1.42s.07-1.8-.76-1.29Z"/><path class="cls-8" d="M77.39,42.43l2,2.4"/><path class="cls-3" d="M76.86,43l2,2.4a.75.75,0,0,0,1.06,0,.77.77,0,0,0,0-1.06l-2-2.4a.76.76,0,0,0-1.06,0,.75.75,0,0,0,0,1.06Z"/><path class="cls-8" d="M78.72,74.36a1.57,1.57,0,1,0,2.12,2.15,1.62,1.62,0,0,0-.26-1.86,1.52,1.52,0,0,0-1.86-.29"/><path class="cls-3" d="M78.34,73.71a2.37,2.37,0,0,0-.94,3.09,2.31,2.31,0,1,0,.94-3.09c-.86.44-.1,1.73.76,1.29a.82.82,0,0,1,.72,1.48c-1,.47-1.61-.94-.72-1.48s.07-1.8-.76-1.29Z"/><path class="cls-8" d="M78.43,74.56l2,2.44"/><path class="cls-3" d="M77.9,75.09l2,2.44a.75.75,0,0,0,1.06,0,.77.77,0,0,0,0-1.06L79,74a.75.75,0,0,0-1.06,0,.77.77,0,0,0,0,1.06Z"/><path class="cls-8" d="M41.47,128.28a2.86,2.86,0,1,0,4,3.8,2.91,2.91,0,0,0-.57-3.36,2.76,2.76,0,0,0-3.38-.44"/><path class="cls-3" d="M41.09,127.64a3.67,3.67,0,0,0-1.39,4.79,3.58,3.58,0,1,0,1.39-4.79c-.85.46-.09,1.75.76,1.29,2.45-1.33,4.45,2.56,1.9,3.74-2.38,1.1-4-2.35-1.9-3.74.81-.52.06-1.82-.76-1.29Z"/><path class="cls-8" d="M41,128.66,44.69,133"/><path class="cls-3" d="M40.43,129.19l3.73,4.34c.63.73,1.68-.33,1.06-1.06l-3.73-4.34c-.63-.73-1.68.33-1.06,1.06Z"/><path class="cls-8" d="M81.22,133.39a2.86,2.86,0,1,0,4,3.8,2.91,2.91,0,0,0-.57-3.36,2.74,2.74,0,0,0-3.38-.44"/><path class="cls-3" d="M80.84,132.74a3.68,3.68,0,0,0-1.38,4.8,3.58,3.58,0,1,0,1.38-4.8c-.84.47-.09,1.76.76,1.3,2.46-1.33,4.45,2.56,1.9,3.73-2.38,1.1-4-2.34-1.9-3.73.81-.52.06-1.82-.76-1.3Z"/><path class="cls-8" d="M80.72,133.77l3.72,4.33"/><path class="cls-3" d="M80.19,134.3l3.72,4.34c.63.73,1.69-.34,1.06-1.07l-3.72-4.33c-.63-.73-1.69.33-1.06,1.06Z"/><path class="cls-4" d="M43.35,78.4a1.39,1.39,0,0,0,1.13,2.15,1.7,1.7,0,0,0,1.58-2.34,1.56,1.56,0,0,0-2.71.19"/><path class="cls-3" d="M42.7,78a2.2,2.2,0,0,0,1.15,3.17,2.43,2.43,0,0,0,3-1.61,2.09,2.09,0,0,0-1.44-2.74,2.28,2.28,0,0,0-2.76,1.36c-.34.9,1.11,1.29,1.45.4.25-.68,1.58-.35,1.35.46a1,1,0,0,1-1,.73c-.51-.09-.62-.57-.43-1a.78.78,0,0,0-.27-1,.76.76,0,0,0-1,.27Z"/><path class="cls-2" d="M108.89,122.56c-2.7-.25-9.14-1.15-11.79-.53a3,3,0,0,0-1.45.64c-.41.38-.49,1-.79,1.47-5.59,8.7-8.32,21.64-9.08,31.76a2.75,2.75,0,0,0,.54,2.3,19.49,19.49,0,0,0,3,2.07c3.07.63,9.68,4.1,12.91,3.45"/><path class="cls-3" d="M108.89,121.81c-4.51-.45-11.42-2.52-14.5,1.57-4.53,6-6.62,14.79-8,22-.81,4.28-3.28,11.16.62,14.27,1.94,1.55,4.4,2,6.7,2.86,2.73,1,5.56,2.2,8.52,1.93,1-.09,1-1.59,0-1.5-3.73.35-9.67-1.78-13-3.57-5.07-2.73-1.79-12.19-.79-16.66a65,65,0,0,1,6.29-17c2.64-4.84,9.46-2.88,14.12-2.42,1,.1,1-1.4,0-1.5Z"/><path class="cls-2" d="M114,159.1a50.7,50.7,0,0,0,7.19-4.78,5.53,5.53,0,0,0,2.14-2.73,7,7,0,0,0-.15-3.51c-1.76-7.32-4-12.34-7-18.83a18.31,18.31,0,0,0-5.12-6.36c-.79-.71-2.79-.08-3.7.16a5.58,5.58,0,0,0-3.15,2.94,173.87,173.87,0,0,0-7.31,29.21c-.4,2.32-.37,6.36,1.23,7.8a4.66,4.66,0,0,0,4.1.72A34.59,34.59,0,0,0,114,159.1Z"/><path class="cls-3" d="M114.39,159.75c3.15-1.8,8.59-4.31,9.7-8.16,1.35-4.69-2.64-12.22-4.44-16.49-2.07-4.88-7.29-18.23-14.62-11.47-3.59,3.31-4.45,11.13-5.57,15.62-1.45,5.82-3.39,12.23-3.5,18.26-.22,11.56,12.36,5.87,18.43,2.24a.75.75,0,0,0-.76-1.29c-3.21,1.92-7.6,4.4-11.46,4.45-6.21.08-4.76-6.23-4-10.32,1.35-7.55,2.75-15.7,5.59-22.87.87-2.2,2-5.73,4.69-6.18,2.24-.37,3.75,1.22,5,2.69,2.54,3.06,4,7.2,5.45,10.84A48,48,0,0,1,122,146.5c.71,4.17,0,6.32-3.29,8.74a57.53,57.53,0,0,1-5.1,3.22C112.79,158.93,113.55,160.23,114.39,159.75Z"/><path class="cls-3" d="M98.74,139.8c-3.12.11-.42-4.42-.14-5.78a3.48,3.48,0,0,0-.45-2.72,3.35,3.35,0,0,0-2.22-1.48c-1.36-.21-2.46,1-3.76.78-.94-.19-1.35,1.26-.4,1.45,1.5.29,3.61-1.36,4.85-.27,1.56,1.38-.54,4.42-1,5.85-.62,2.2.83,3.75,3.07,3.67,1,0,1-1.53,0-1.5Z"/><path class="cls-3" d="M96.94,150.41c-2.1-.12-4.66-1.79-4.59-4.06,0-1.56.66-2.85.34-4.44a.75.75,0,0,0-.72-.55c-.82,0-2.94,1.27-3.44.74-.67-.7-1.73.36-1.07,1.06,1.5,1.59,2.87-.23,4.51-.3l-.72-.55c.47,2.4-1.28,4.64.42,6.84a7.46,7.46,0,0,0,5.27,2.76c1,.06,1-1.44,0-1.5Z"/><path class="cls-6" d="M101.66,148.1a35.22,35.22,0,0,0,4.72-3.94,2,2,0,0,0,.58-.85,2.12,2.12,0,0,0-.17-1.28,35.26,35.26,0,0,0-2.2-4.89c.76-2.24,1.55-4.42,2.26-6.45a3.72,3.72,0,0,1,2.11-2c.62-.16,1.24.36,1.77.85a12.77,12.77,0,0,1,3.47,4.4,65.14,65.14,0,0,1,4.76,13,5,5,0,0,1,.12,2.42,3.83,3.83,0,0,1-1.44,1.87,33.34,33.34,0,0,1-4.83,3.27c-2.26,1.47-5.07,1.87-7.64,2.32-.93.16-3.1,1.42-3.89.69-1.08-1,0-4.13,0-5.76A29.16,29.16,0,0,1,101.66,148.1Z"/><path class="cls-5" d="M102,148.74c2.52-1.84,5.92-3.52,5.47-6.91-.16-1.27-1.19-2.26-1.46-3.48a8.78,8.78,0,0,1,1-5.91c1.73-2.56,3.31-2.57,5-.46a19.14,19.14,0,0,1,2.51,4.48,45.29,45.29,0,0,1,3.3,9c.94,4.88-2.8,7.24-6.77,9a22.35,22.35,0,0,1-4.52,1.34s-3.43,1-3.57,1c-2.32-.49-.77-7.11-.56-8.67.13-1-1.37-.95-1.5,0-.23,1.75-2.09,8.23-.22,9.86,1.56,1.36,4.56-.34,6.25-.7a22.61,22.61,0,0,0,11.23-5.51c2.37-2.32,1.76-4.35.88-7.42-1.09-3.82-4.59-16.93-10.19-16.4-2.46.24-3.25,4-3.85,5.71-.44,1.27-1.14,2.56-1.07,3.87.08,1.53,2.26,3.13,2.13,4.72-.18,2.18-3.32,4.15-4.79,5.22C100.51,148,101.26,149.31,102,148.74Z"/><path class="cls-7" d="M107.65,144a2.07,2.07,0,0,1-.59.84c-1.46,1.47-3.73,2.07-5.4,3.24a67.4,67.4,0,0,1,2.93-11,47.69,47.69,0,0,1,2.88,5.6A2.19,2.19,0,0,1,107.65,144Z"/><path class="cls-5" d="M107,143.64c-1,2-4,2.67-5.72,3.81l1.1.85a72.58,72.58,0,0,1,2.93-11l-1.37.17c1,1.85,3,4.33,3,6.51a.75.75,0,0,0,1.5,0c0-2.53-2-5.14-3.17-7.26a.76.76,0,0,0-1.37.18,71.39,71.39,0,0,0-2.92,11c-.1.59.5,1.23,1.1.84,2-1.32,5.07-2,6.25-4.35C108.73,143.54,107.44,142.78,107,143.64Z"/><path class="cls-5" d="M117.19,147.5a57.23,57.23,0,0,0-9.46-3.11c-.94-.22-1.34,1.23-.4,1.45a54.13,54.13,0,0,1,9.11,3c.87.37,1.64-.92.75-1.3Z"/><path class="cls-3" d="M105.61,136.62a6.1,6.1,0,0,0,2.27.39,4.51,4.51,0,0,0,3.78-1.87,3.13,3.13,0,0,0-.56-4.11s-.56-2.73-2.21-1.34S105.61,136.62,105.61,136.62Z"/><path class="cls-3" d="M105.42,137.35c2.61.86,6.25.31,7.27-2.64a4,4,0,0,0-.36-3.46c-.25-.39-.42-.42-.58-.71s-.26-.74-.49-1.08c-2.74-4-5.88,5.31-6.37,7a.75.75,0,0,0,1.45.4c.3-1,2.14-7.23,3.54-6.7.35.13.34.81.49,1.08.39.7,1,1,1,1.89.29,3.06-3.49,3.51-5.6,2.81C104.9,135.6,104.5,137,105.42,137.35Z"/><path class="cls-3" d="M95.16,123.58l-1.45-.81a.66.66,0,0,0-.48-.12.7.7,0,0,0-.28.23,8,8,0,0,0-1.45,6.88"/><path class="cls-3" d="M95.54,122.94c-.66-.37-1.67-1.25-2.51-1s-1.32,1.36-1.63,2a9,9,0,0,0-.62,6c.21.94,1.66.54,1.44-.4a7.44,7.44,0,0,1,.16-4,5.2,5.2,0,0,1,.84-1.74c.35-.39-.17-.24.35-.22a5.31,5.31,0,0,1,1.21.68c.85.47,1.61-.82.76-1.29Z"/><path class="cls-1" d="M110,131.21a3.19,3.19,0,0,1,1.08,2.92c-.21,1.05-2.21,2-3,1-.57-.73-.19-2.57.29-3.26s1.35-.59,2-.51c1,.11,1-1.39,0-1.5a3.11,3.11,0,0,0-3.64,1.93c-.62,1.58-.8,4.3,1.16,5,1.57.57,3.84-.06,4.49-1.71a4.67,4.67,0,0,0-1.63-5.15c-.8-.54-1.55.75-.76,1.3Z"/><path class="cls-2" d="M96.5,98.86a19.87,19.87,0,0,1,12.64,11.78c1.9,5,1.7,10.45,2.38,15.72s2.66,10.91,7.28,13.55c3.07,1.76,6.8,1.88,10.33,1.65a5,5,0,0,0,2.84-.78c1.48-1.15,1.32-3.39,1-5.24a38,38,0,0,1-7.13-1.66,11,11,0,0,1-4.73-2.68c-1.67-1.81-2.16-4.39-2.45-6.83-.75-6.2-.68-12.55-2.46-18.54a16,16,0,0,0-2.49-5.27,17.59,17.59,0,0,0-3.86-3.49,49.13,49.13,0,0,0-10.65-5.75c-.21-.08-.48-.14-.62,0s.29.4.27.18"/><path class="cls-3" d="M96.3,99.58c9.91,3.43,13.07,11.75,14,21.46.54,5.72.9,11.93,4.72,16.57,4.53,5.48,20.18,8.68,18.75-2.07,0-.3-.2-.67-.55-.72-3.08-.49-6.8-1-9.5-2.64-4.15-2.52-4.24-7.25-4.63-11.55-.48-5.25-.65-10.65-2.34-15.7a16.69,16.69,0,0,0-6.47-8.51c-2.77-2-8-6-11.65-5.82-.44,0-.91.47-.72,1l.09.24a.77.77,0,0,0,.92.53l.18-.07c.91-.31.52-1.75-.4-1.44.34-.12,4.88,3.28,5.67,3.71a42.44,42.44,0,0,1,3.72,2.22c3.33,2.23,5.85,4.75,7.21,8.59,2.16,6.08,1.82,12.73,2.66,19,.42,3.18,1.12,6.37,3.85,8.38a15.82,15.82,0,0,0,4.76,2.13c2.82.88,8.23.89,4.24,4.45-5.85,5.24-15-1.27-17.21-7.43-1.78-5-1.54-10.32-2.28-15.47-1.24-8.68-6.21-15.39-14.59-18.3-.92-.31-1.31,1.13-.4,1.45Z"/><path class="cls-4" d="M135.55,137a16.91,16.91,0,0,1,6,.12,5.42,5.42,0,0,1,2.88,1.52,2.69,2.69,0,0,1,.46,3,2.83,2.83,0,0,1-3.33.94,7.54,7.54,0,0,1-2.94-2.27C137.76,139.48,136.66,137.6,135.55,137Z"/><path class="cls-3" d="M135.55,137.79a15.81,15.81,0,0,1,5.78.1,4.13,4.13,0,0,1,2.76,1.61c1,1.83-.52,2.8-2,2.52-2.86-.55-3.88-4.19-6.17-5.63-.82-.52-1.58.78-.76,1.3,2.2,1.39,3.05,4.21,5.5,5.42,1.52.75,3.65.68,4.7-.82,1.21-1.73.2-3.93-1.41-5-2.41-1.54-5.72-1.36-8.41-1C134.6,136.4,134.59,137.9,135.55,137.79Z"/><path class="cls-4" d="M135.39,134.33c2.66.33,6,.67,8.46-.41,1.2-.53,2.38-2.19,2.08-3.46-.21-.84-1.33-2.15-2.2-2.2a5.35,5.35,0,0,0-2.49.66C139.26,129.86,137.08,132.93,135.39,134.33Z"/><path class="cls-3" d="M135.39,135.08c2.77.34,6.24.84,8.84-.51,1.8-.93,3.12-3.14,2.09-5.08-3.08-5.74-9.09,2.22-11.46,4.31-.72.64.34,1.7,1.06,1.06,1.66-1.46,6.17-7.9,8.71-5.13,2.31,2.5-2.13,4-3.92,4.14a26.35,26.35,0,0,1-5.32-.29C134.44,133.47,134.45,135,135.39,135.08Z"/><path class="cls-4" d="M133.32,133.23a7.17,7.17,0,0,0,3.37-1.39c1.55-1.2,3.15-2.7,3.26-4.66a3.79,3.79,0,0,0-2.92-3.82,2.55,2.55,0,0,0-1.5.09,2.82,2.82,0,0,0-1.54,2.19,13,13,0,0,0,0,2.79A27.56,27.56,0,0,1,133.32,133.23Z"/><path class="cls-3" d="M133.52,134a9.46,9.46,0,0,0,6.73-5,4.52,4.52,0,0,0-2.11-6,3.32,3.32,0,0,0-4.88,2.47c-.3,1.4,0,2.88-.11,4.3a30.93,30.93,0,0,1-.55,3.29c-.21.94,1.24,1.34,1.44.4s.36-1.83.49-2.76c.22-1.55-.25-3.62.3-5,.69-1.79,2.58-1.92,3.73-.41a3.15,3.15,0,0,1,0,3.71,8.23,8.23,0,0,1-5.43,3.56C132.17,132.67,132.57,134.12,133.52,134Z"/><path class="cls-3" d="M105.28,103.29c1.34-1.91,3-4.08,5.56-3.93,1,0,1-1.45,0-1.5-3.18-.18-5.2,2.32-6.86,4.68-.55.79.75,1.54,1.3.75Z"/><path class="cls-3" d="M108.76,109c2.57-1,4.61-2,7.44-1.33l-.18-1.37-.34.23c-.8.53-.05,1.83.75,1.29l.35-.23a.76.76,0,0,0-.18-1.37,10.77,10.77,0,0,0-4-.17,22.41,22.41,0,0,0-4.28,1.5c-.9.33-.51,1.79.4,1.45Z"/><path class="cls-3" d="M111.17,118.26a10.08,10.08,0,0,1,3-.46c.27,0,2.73.13,2.78.36a.75.75,0,0,0,1.45-.39c-.27-1.12-1.88-1.23-2.83-1.36a11.39,11.39,0,0,0-4.82.4.75.75,0,0,0,.39,1.45Z"/><path class="cls-3" d="M112.25,129.09a5.5,5.5,0,0,1,3.75-1.33,12.15,12.15,0,0,1,1.81.13c.22,0,1.34.29,1,.15l-.27-1,0,.08,1-.27,0,0c-.82-.51-1.58.78-.76,1.3l0,0a.76.76,0,0,0,1-.27l0-.08a.75.75,0,0,0-.27-1,9.25,9.25,0,0,0-4.43-.45,6.87,6.87,0,0,0-4,1.72c-.72.65.34,1.71,1.06,1.07Z"/><path class="cls-3" d="M118.87,138.46a9.22,9.22,0,0,1,1.17-2.62c.2-.3,1.5-2.21,1.93-2.11a.75.75,0,0,0,.4-1.44c-1.26-.32-2.34,1.1-3,2a10.85,10.85,0,0,0-1.91,3.79.75.75,0,0,0,1.45.4Z"/><path class="cls-3" d="M128.11,140.85a12.1,12.1,0,0,1-.11-2.48c0-.25.44-2.42.23-2.47.93.22,1.33-1.22.39-1.45-2.68-.65-2.16,5.43-2,6.8.14.95,1.59.55,1.45-.4Z"/><path class="cls-4" d="M89.85,87.82a1.39,1.39,0,0,0,1.4,2,1.7,1.7,0,0,0,1.25-2.54,1.55,1.55,0,0,0-2.65.56"/><path class="cls-3" d="M89.12,87.62a2.19,2.19,0,0,0,1.51,2.88,2.42,2.42,0,0,0,2.8-1.85A2.09,2.09,0,0,0,91.82,86a2.3,2.3,0,0,0-2.7,1.59c-.22.94,1.23,1.34,1.45.4s1.6-.71,1.41.23a.93.93,0,0,1-.91.8c-.58,0-.63-.58-.5-1a.75.75,0,0,0-1.45-.4Z"/><path class="cls-3" d="M107.15,92.05c-3.12-2.74-7.43-4-10.47-2.93s-4.65,4.21-3.9,7.75a14,14,0,0,0,7.45,8.95Z"/><path class="cls-3" d="M107.68,91.52c-4-3.24-11.51-5.8-14.82-.21-3.45,5.8,2,12.55,7,15.16a.76.76,0,0,0,1-.27l6.92-13.77c.43-.86-.87-1.62-1.3-.76l-6.92,13.78,1-.27c-4-2.09-8.42-6.82-7-11.74,1.77-6.28,9.54-3.72,13.05-.86C107.36,93.19,108.43,92.13,107.68,91.52Z"/><path class="cls-9" d="M126.36,149c1.37,7.43,2.55,18.24,3.92,25.67a1.62,1.62,0,0,0,.28.78.79.79,0,0,0,.44.23c.52.14,1.75.38,2.26.52,0,0,4-.66,4.47-8.57s-3.25-22.95-3.25-22.95"/><path class="cls-5" d="M125.64,149.21c.8,4.53,1.43,9.08,2.07,13.64.29,2.1.59,4.21.9,6.31.24,1.59.19,4.72,1.09,6.11,1.39,2.18,4.14,2,5.92.37,4-3.82,3-11.3,2.41-16.19a131,131,0,0,0-2.83-15,.75.75,0,0,0-1.44.4c1.92,7.81,5.39,18.87,2.52,26.7-.45,1.22-1.52,3.7-3.16,3.89-3,.33-2.78-4.85-3.06-6.72-1-6.65-1.8-13.33-3-19.95-.16-.95-1.61-.55-1.44.4Z"/><path class="cls-3" d="M187.53,97.07c-16.54-3.78-33.36-7-50.26-8a9.38,9.38,0,0,0-3.42.22c-2.82.91-4.44,4.13-5.77,7.07A186.53,186.53,0,0,1,181,101.08c2.2-1.25,5.14-2.49,6.54-4"/><path class="cls-5" d="M187.73,96.35a374.29,374.29,0,0,0-36.83-6.76c-5-.62-11.37-2.17-16.4-1.15-3.83.77-5.55,4.27-7.06,7.54a.76.76,0,0,0,.64,1.13A193.18,193.18,0,0,1,163,98.53c5.34.75,10.65,1.75,15.92,2.87,3.53.75,6.48-1.47,9.14-3.8.73-.64-.34-1.69-1.06-1.06-5.11,4.48-9.69,2.9-15.8,1.8-4.35-.78-8.72-1.44-13.11-1.92a196.57,196.57,0,0,0-30-.81l.65,1.13c1-2.17,2.17-5,4.36-6.28,2.54-1.43,7.21-.45,10-.2,5.13.46,10.25,1.1,15.34,1.88,9.7,1.49,19.31,3.48,28.87,5.65.94.22,1.34-1.23.4-1.44Z"/><path class="cls-1" d="M180.64,101.06c1.44,17.47.85,34.14,2.3,51.61-23.12.44-41.86-3.39-64.93-4.67-1.07-8.33-1.16,1.54,3.66-27,1.31-7.79,4.66-14.3,6.32-23.41"/><path class="cls-5" d="M179.89,101.06c.75,9.53,1,19.09,1.22,28.65.13,5.08.28,10.17.56,15.25.07,1.32,1,4.82.37,5.78-1.29,2.1-4.48,1.22-6.66,1.18-17.62-.34-35.06-3.12-52.63-4.37-.89-.06-3.73.18-4.09-.29s-.13-1.26-.25-1.67a7.15,7.15,0,0,1-.24-1.66,21.31,21.31,0,0,1,.85-4.68c1.29-6,2.23-12,3.37-18,1.51-8,4.75-15.46,6.33-23.42.18-.94-1.26-1.34-1.45-.39-1.57,8-4.82,15.44-6.33,23.41-1.13,6-2.08,12-3.37,18a23.32,23.32,0,0,0-.31,9.15.78.78,0,0,0,.75.75c21.68,1.27,43.16,5,64.93,4.67a.76.76,0,0,0,.75-.75c-1.35-17.18-.95-34.43-2.3-51.61-.08-1-1.58-1-1.5,0Z"/><path class="cls-3" d="M187.53,97.07c1.49,14,1.35,26.87,2.84,40.88a8.79,8.79,0,0,1,0,2.94,8.27,8.27,0,0,1-1.25,2.63l-5.79,9.32-1-51.79"/><path class="cls-5" d="M186.78,97.07c.94,9.24,1.27,18.51,1.81,27.78.25,4.27,1.15,8.83,1,13.1-.14,5.35-4.18,10.06-7,14.51l1.4.38-1-51.79a.75.75,0,0,0-1.5,0l1,51.79a.75.75,0,0,0,1.39.38c2.23-3.57,5.55-7.45,6.87-11.44s-.24-9.21-.51-13.23c-.71-10.5-1-21-2-31.48-.1-.95-1.6-1-1.5,0Z"/><path class="cls-3" d="M191.4,85.42c2.29-1.94,4.67-4,5.71-6.9a17.61,17.61,0,0,0,.77-4.91c.47-7.88,1.7-13.29,1.53-21.18-7.47-1.57-16.95-2-24.62-2.65,0,0-3,1.23-4.14,3.47"/><path class="cls-5" d="M191.93,86c4.25-3.67,6.18-6.72,6.7-12.34.65-7,1.58-14.1,1.53-21.18a.75.75,0,0,0-.55-.72,168.28,168.28,0,0,0-20-2.33c-4.39-.32-6.93-.51-9.57,3.49-.54.81.76,1.56,1.29.76,3-4.55,7.83-2.8,12.47-2.43,3.5.28,13.48-.32,14.91,3.15.68,1.65-.22,5.24-.38,7-.2,2.25-.48,4.48-.71,6.73-.33,3.3-.12,6.91-1.27,10-1.06,2.89-3.17,4.81-5.45,6.77-.73.63.33,1.69,1.06,1.06Z"/><path class="cls-1" d="M161.08,84.8a.29.29,0,0,1,.35-.3c-.27,2.17-.5,4.34-.66,6.52a3,3,0,0,1-3.1,2.84,14.52,14.52,0,0,1-2.07-.21A3.37,3.37,0,0,1,152.84,92a3.52,3.52,0,0,1-.17-1.37,29.3,29.3,0,0,1,1-7.1.85.85,0,0,1,.31.63"/><path class="cls-5" d="M161.73,85.18l-.1,0-.95-.72c-.2,1.63-.37,3.26-.53,4.89-.2,2.21-.65,3.76-3.17,3.68a5.34,5.34,0,0,1-2.64-.59c-.94-.81-.93-2.39-.85-3.49a29.65,29.65,0,0,1,.9-5.3l-1.37.17.22.46c.23.94,1.68.54,1.45-.4a1.64,1.64,0,0,0-.38-.81.76.76,0,0,0-1.37.18c-.63,2.48-1.58,6-.9,8.53.52,1.93,2.47,2.47,4.25,2.68s3.56,0,4.63-1.63a5.58,5.58,0,0,0,.66-2.66c.18-1.91.37-3.81.6-5.71.06-.5-.53-.84-1-.73a1,1,0,0,0-.8.65c-.38.87.91,1.64,1.3.76Z"/><path class="cls-9" d="M156.64,101.55a5.23,5.23,0,0,1,4.2,3.9,5.63,5.63,0,0,1-1.29,5.14,5.36,5.36,0,0,1-4.57,1.52,5.42,5.42,0,0,1-4.64-8C151.46,101.69,153.92,101.08,156.64,101.55Z"/><path class="cls-5" d="M156.44,102.28a4.68,4.68,0,0,1,3.81,4.86c-.25,3.31-3.48,4.92-6.47,4a4.84,4.84,0,0,1-3.05-5.75c.64-2.78,3.18-3.49,5.71-3.11.95.13,1.36-1.31.4-1.45-3.23-.48-6.52.41-7.49,3.9-.88,3.19.73,6.92,4,7.86,3.67,1,7.4-.69,8.26-4.54a6.18,6.18,0,0,0-4.8-7.22C155.91,100.6,155.5,102.05,156.44,102.28Z"/><path class="cls-3" d="M156.27,103.83a3,3,0,0,1,2.37,2.21,3.14,3.14,0,0,1-.73,2.9,3,3,0,0,1-2.58.87,3.46,3.46,0,0,1-1.54-.47,3.35,3.35,0,0,1-1.09-4C153.33,103.91,154.73,103.56,156.27,103.83Z"/><path class="cls-1" d="M153.71,52l-23.92-2.38A150.39,150.39,0,0,0,126,78.92a2,2,0,0,0,.31,1.39,2.29,2.29,0,0,0,1.51.55c21.16,2.34,40,4.89,61.33,5,2.45,0,2.86-6.09,3-7,1-8.67,1.08-14,1.6-22.75-7-.7-16-1.42-23-2.12"/><path class="cls-5" d="M153.71,51.29l-23.92-2.38a.75.75,0,0,0-.72.55,157.88,157.88,0,0,0-3.14,19.33c-.27,2.7-2.15,9.89,0,12.11.89.93,2.74.8,3.88.93l11.28,1.28c6.71.75,13.43,1.49,20.15,2.08s13.55,1,20.34,1.26c3.09.09,8,1.53,10-1.58,1.56-2.5,1.47-6.82,1.74-9.62.64-6.39.85-12.81,1.22-19.22a.77.77,0,0,0-.75-.75c-7.66-.75-15.33-1.37-23-2.12-1-.1-.95,1.4,0,1.5,3.26.32,6.52.61,9.79.91,3.06.27,7.18,0,10.09.91,2.32.77,2.06.75,2.16,3.1.07,1.55-.16,3.26-.24,4.81-.16,3.07-.34,6.15-.62,9.21a67.13,67.13,0,0,1-.89,7.88c-1,4.61-5.68,3.59-9.5,3.47-7.4-.23-14.79-.74-22.16-1.42s-14.71-1.51-22-2.35c-1.87-.21-3.82-.28-5.66-.64l-1.9-.21q-3.89-.15-2.92-3.25c-.72-3.08.5-7.9.87-11,.47-4.06.78-8.65,2-12.57.49-1.53.3-2.36,1.9-2.88,1-.33,3,.3,4.12.41l18,1.79c1,.1.95-1.4,0-1.5Z"/><path class="cls-9" d="M181.83,63.13c4.08,2,3.1,12.14,1.7,10.84-2.63-2.47-7.61-1.67-14.61,0-2.27.55-1.66-5.78.87-9.41S178.4,60.89,181.83,63.13Z"/><path class="cls-5" d="M181.45,63.78c2.55,1.48,3.13,6.23,2.32,8.86-.27.87,0,.39-.28.33-.5-.11-1.09-.65-1.62-.83a12.12,12.12,0,0,0-5.15-.38c-2.19.2-4.3.9-6.46,1.15-1.72.21-2-.11-2-1.73a11.81,11.81,0,0,1,.72-3.31c1.87-5.37,7.67-6.93,12.45-4.09a.75.75,0,0,0,.76-1.3c-5-3-11.69-1.81-14.17,3.73-.85,1.9-1.83,5-1.09,7.06.85,2.44,3.28,1.16,5.18.76a29.28,29.28,0,0,1,6.45-.87,9.23,9.23,0,0,1,2.34.26c.79.22,1.44.93,2.15,1.13,1,.3,1.44.23,2-.87,1.53-3.24.37-9.35-2.81-11.2A.75.75,0,0,0,181.45,63.78Z"/><path class="cls-5" d="M168.09,54.66c-.68-1.79,1.4-3.27,2.62-4.25a36.47,36.47,0,0,1,4.43-3,.75.75,0,0,0-.76-1.29,33.6,33.6,0,0,0-6,4.36c-1.26,1.18-2.37,2.84-1.69,4.61.34.89,1.79.51,1.44-.4Z"/><path class="cls-5" d="M164,54.58l2.47-8.11c.28-.92-1.17-1.32-1.45-.4l-2.47,8.12c-.28.92,1.17,1.32,1.45.39Z"/><path class="cls-5" d="M160.23,54.11c.23-3.12,1.2-7.24-1.3-9.71a.75.75,0,0,0-1.06,1.06c2,2,1,6.1.86,8.65-.07,1,1.43,1,1.5,0Z"/><path class="cls-5" d="M155,53.31a11.66,11.66,0,0,0-4.39-10c-.75-.59-1.82.46-1.06,1.07a10.27,10.27,0,0,1,4,8.92c-.06,1,1.44,1,1.5,0Z"/><path class="cls-5" d="M191.09,62.68A11,11,0,0,0,191.2,60a3.63,3.63,0,0,0-.45-1.81c-.37-.5-1-.53-1.55-.64L186.33,57c-1-.18-1.35,1.27-.4,1.45l1.61.31a7.56,7.56,0,0,1,1.8.35c.49.27-.07-.23.25.22a2.48,2.48,0,0,1,.14,1,8.92,8.92,0,0,1-.09,1.93c-.14.95,1.31,1.36,1.45.4Z"/><path class="cls-5" d="M134.47,77.48a18.34,18.34,0,0,1-4-.73l.52.52a9.21,9.21,0,0,1-.05-3c.14-.94-1.31-1.35-1.45-.4a11.33,11.33,0,0,0,.06,3.81.72.72,0,0,0,.52.52,19.61,19.61,0,0,0,4.43.79c1,.07,1-1.43,0-1.5Z"/><path class="cls-3" d="M152.74,47.75c-.94-.12-4.25-.65-5.18-.78a35.1,35.1,0,0,0-6.93-.55c-3.72.24-7.23,1.86-10.64,3.46L153.71,52Z"/><path class="cls-5" d="M152.94,47c-3.5-.47-7-1.3-10.57-1.37-4.58-.1-8.68,1.69-12.76,3.58-.74.34-.28,1.34.38,1.4l23.72,2.16a.75.75,0,0,0,.72-.95l-1-4.29c-.21-.95-1.66-.55-1.45.39l1,4.3.73-1L130,49.13l.38,1.39c4.55-2.11,8.67-3.66,13.73-3.25,2.83.23,5.63.82,8.44,1.2C153.48,48.6,153.89,47.15,152.94,47Z"/><path class="cls-5" d="M160.41,87.87a11.46,11.46,0,0,1-7.62-.28c-.9-.34-1.29,1.11-.4,1.45a12.84,12.84,0,0,0,8.41.28.75.75,0,0,0-.39-1.45Z"/><path class="cls-10" d="M181.46,120.57q-29.15-2.14-58.19-5.38l-1.74,8.1c19.76,2.82,39.86,3.69,59.68,6.27"/><path class="cls-5" d="M181.46,119.82q-29.15-2.16-58.19-5.38a.75.75,0,0,0-.72.55l-1.75,8.1c-.07.36.11.87.53.92,19.89,2.78,40,3.76,59.88,6.3,1,.12.95-1.38,0-1.5-11.21-1.43-22.47-2.37-33.72-3.39-5.79-.53-11.57-1.09-17.34-1.76-1.43-.17-7.77-.64-7.79-.69-.24-.68.62-2.9.76-3.53s.22-2.74.7-3.24c.85-.88,0-.06,1.39,0s2.6.28,3.87.42q8.71.94,17.44,1.78,17.46,1.68,34.94,3c1,.07,1-1.43,0-1.5Z"/><path class="cls-5" d="M135.94,98c-1.34-.08-2.67,0-4,0-.72,0-1.37-.19-1.77.51a6.63,6.63,0,0,0-.54,2.11c-.17,1-.31,2-.42,3s1.39.94,1.5,0c.08-.71.18-1.41.29-2.11a15.28,15.28,0,0,0,.41-2,2.58,2.58,0,0,1,.08-.26c-.33.26-.29.35.11.27a4,4,0,0,0,1.25,0c1,0,2.07,0,3.1.06s1-1.44,0-1.5Z"/><path class="cls-5" d="M178.42,107.92a15.44,15.44,0,0,0,0-4.4.81.81,0,0,0-.55-.73,5.07,5.07,0,0,0-2-.53.75.75,0,0,0,0,1.5,4.09,4.09,0,0,1,1.57.48l-.55-.72a14.11,14.11,0,0,1,0,4c-.21.94,1.23,1.34,1.45.4Z"/><path class="cls-5" d="M178.11,143.06a32.43,32.43,0,0,0-1,5.16c-.11,1,1.39.95,1.5,0a29.69,29.69,0,0,1,.94-4.76.75.75,0,0,0-1.44-.4Z"/><path class="cls-5" d="M175.53,144.72a23.17,23.17,0,0,0-1.24,3.41.75.75,0,0,0,1.44.4,21.29,21.29,0,0,1,1.1-3.05c.39-.88-.9-1.64-1.3-.76Z"/><path class="cls-5" d="M172.89,145.13l-1.08,1.77c-.51.83.79,1.58,1.29.76l1.08-1.77a.75.75,0,0,0-1.29-.76Z"/><path class="cls-5" d="M124.66,142.82l-.11,1.47c-.07,1,1.43,1,1.5,0l.11-1.47c.07-1-1.43-1-1.5,0Z"/><path class="cls-5" d="M125.41,143.57a.75.75,0,0,0,0-1.5.75.75,0,0,0,0,1.5Z"/><path class="cls-5" d="M121.35,136.93l-.82,7.07c-.11,1,1.39.95,1.5,0l.82-7.07c.11-1-1.39-.94-1.5,0Z"/><path class="cls-5" d="M122.68,140.89l-.32,4.43c-.07,1,1.43,1,1.5,0l.32-4.43c.07-1-1.43-1-1.5,0Z"/><path class="cls-5" d="M184.58,72.41c1.35.57,3.4,1,4.16-.67.39-.88-.9-1.64-1.29-.76s-1.48.4-2.11.13a.79.79,0,0,0-1,.27.76.76,0,0,0,.27,1Z"/><path class="cls-5" d="M185.86,69.19a4.2,4.2,0,0,0,3.61-1.86c.55-.8-.75-1.55-1.3-.76a2.64,2.64,0,0,1-2.31,1.12c-1,0-1,1.47,0,1.5Z"/><path class="cls-5" d="M185.38,66.63a6.91,6.91,0,0,0,3.17-2.83.75.75,0,0,0-1.3-.75,5.54,5.54,0,0,1-2.62,2.28c-.89.38-.12,1.68.75,1.3Z"/><path class="cls-5" d="M184.5,70.55c-5-1.37-9.33-4.32-14.38-5.48-.47-.11-.67.61-.2.72,5,1.16,9.41,4.11,14.38,5.48a.37.37,0,0,0,.2-.72Z"/><path class="cls-5" d="M181.6,72.83A81,81,0,0,0,183,63.28c0-.45-.6-.48-.74-.1l-.28.79c-.16.46.57.65.73.2l.28-.79-.74-.1a79.7,79.7,0,0,1-1.33,9.35c-.11.47.61.67.72.2Z"/><path class="cls-5" d="M179.6,62.58c-.68,3.27-1.42,6.51-2.26,9.75a.38.38,0,0,0,.73.2c.83-3.24,1.58-6.48,2.25-9.75.1-.47-.63-.68-.72-.2Z"/><path class="cls-5" d="M176.18,61.65c-.66,3.65-1.26,7.27-2.16,10.87-.12.47.61.67.72.2.9-3.6,1.51-7.22,2.16-10.87.08-.47-.64-.67-.72-.2Z"/><path class="cls-5" d="M172,63.06q-.93,5.3-2.09,10.52c-.1.47.62.67.72.2.78-3.49,1.47-7,2.1-10.52.08-.47-.64-.67-.73-.2Z"/><path class="cls-5" d="M185.13,68.11q-6.8-2.52-13.6-5c-.29-.1-.62.3-.42.55l.29.39c.29.38.94,0,.64-.38l-.29-.38-.42.55q6.81,2.45,13.6,5c.45.17.65-.55.2-.72Z"/><path class="cls-5" d="M184.32,72.76Q176.61,70.09,169,67c-.44-.18-.64.54-.2.72q7.57,3.06,15.28,5.73c.45.16.65-.57.2-.73Z"/><path class="cls-5" d="M175.52,72.55c-.39-.14-1.13-.56-1.57-.33a.37.37,0,0,0-.13.51.7.7,0,0,0,.57.33.38.38,0,0,0,.32-.56c-.31-.65-1.67-1.11-2.24-1.46A16.48,16.48,0,0,0,168.25,69a.37.37,0,0,0-.2.72,14.65,14.65,0,0,1,3.68,1.76c.49.29,2.11.94,2.33,1.4l.33-.56c.09,0,0,0,.07,0l-.13.51c-.14.07.83.35,1,.41.46.16.65-.56.2-.72Z"/><path class="cls-5" d="M171.26,73.17,167.71,71a.38.38,0,0,0-.38.65l3.55,2.13c.41.25.79-.4.38-.65Z"/><path class="cls-5" d="M182.79,64.69A47.63,47.63,0,0,1,174,62.26c-.45-.18-.64.55-.2.72a47.06,47.06,0,0,0,8.76,2.43c.48.09.68-.63.2-.72Z"/><path class="cls-9" d="M173.35,153.79c-2.24,7.58-3.61,16.8-5.86,24.38-.22.76-2.55.15-3.47.08l-3.68-8a3.77,3.77,0,0,1-.38-1.13,4.37,4.37,0,0,1,.22-1.63c1.56-5.82,1.82-8.65,3-14.55"/><path class="cls-5" d="M172.63,153.59c-1.22,4.3-2.16,8.66-3.11,13-.42,1.94-1.37,11-3.5,11.15s-3.81-4.86-4.3-6.31c-.88-2.62-.62-4.37,0-7,.87-3.76,1.47-7.58,2.21-11.37.18-.94-1.26-1.35-1.45-.4-.56,2.87-1,5.75-1.61,8.62-.49,2.4-1.88,5.33-1.64,7.76.2,2.11,1.82,4.42,2.69,6.31,1,2.14.9,3,2.82,3.67,4,1.38,4.05-2.58,4.75-5.44,1.6-6.54,2.76-13.18,4.61-19.66a.75.75,0,0,0-1.45-.4Z"/><path class="cls-9" d="M138.41,150c.43,5.23.89,10,1.32,15.24a7.53,7.53,0,0,1,0,1.71,5.63,5.63,0,0,1-.62,1.77,55.07,55.07,0,0,1-3.05,5.45c-.6.94-1.47,1.92-2.37,1.4L130.54,149"/><path class="cls-5" d="M137.66,150c.37,4.4,1,8.88,1.16,13.3.05,2.06-.88,10.66-4,10.43-1.69-.12-3.19-21.84-3.53-24.66-.11-.94-1.62-1-1.5,0l3.16,26.5a.78.78,0,0,0,.75.75c3.27.29,5.69-5.58,6.44-8.06.68-2.24.21-4.57,0-6.87-.33-3.8-.67-7.59-1-11.39-.08-.95-1.58-1-1.5,0Z"/><path class="cls-5" d="M164.58,178.17c1.64-8.57,3.76-17,5.46-25.6.18-.94-1.26-1.35-1.45-.4-1.69,8.56-3.81,17-5.46,25.6-.18.94,1.27,1.34,1.45.4Z"/><path class="cls-5" d="M163.54,169.36a8.93,8.93,0,0,0,.24-3c-.07-1-1.58-1-1.5,0a7.86,7.86,0,0,1-.19,2.56.75.75,0,0,0,1.45.4Z"/><path class="cls-5" d="M136.92,167.81a11.59,11.59,0,0,1,.49-2.48c.29-.93-1.16-1.32-1.45-.4a13.43,13.43,0,0,0-.54,2.88c-.09,1,1.41.95,1.5,0Z"/><path class="cls-5" d="M168.59,157.88a43.22,43.22,0,0,1-4-5.86c-.45-.85-1.74-.09-1.29.76a42.25,42.25,0,0,0,4,5.86c.58.76,1.88,0,1.3-.76Z"/><path class="cls-5" d="M136.21,149.76a45.55,45.55,0,0,0-4.63,5.47c-.56.78.74,1.53,1.3.76a43.3,43.3,0,0,1,4.39-5.17.75.75,0,0,0-1.06-1.06Z"/><path class="cls-5" d="M170.29,32.7a30.73,30.73,0,0,1-6.27-.63,7.55,7.55,0,0,1-2.59-.67c-1.9-1.55.52-1.19,1.23-1.1,1,.12,1-1.38,0-1.5-1.27-.16-2.26-.32-3.18.7a1.77,1.77,0,0,0-.1,2.41c.92,1.12,2.94,1.33,4.24,1.61a32.54,32.54,0,0,0,6.67.68.75.75,0,0,0,0-1.5Z"/><path class="cls-11" d="M170.77,33.37a5,5,0,0,0,2.1-.74,1.2,1.2,0,0,0-.24-1.69,1.64,1.64,0,0,0-.78-.32l-2.17-.5,1.11-2.45c.65-1.41,1.3-3,.7-4.48A3.47,3.47,0,0,0,168,21.27a5.49,5.49,0,0,0-3.61,2.1,7.89,7.89,0,0,0-1.76,5.83"/><path class="cls-5" d="M171,34.09c1.24-.26,2.92-.61,2.87-2.21-.07-2-2.48-2.14-4-2.48l.45,1.1c.91-2,2.49-4.47,2.08-6.77a4,4,0,0,0-3.62-3.19c-4.58-.48-7.14,4.81-6.93,8.66,0,1,1.55,1,1.5,0-.15-2.76,1.06-6.34,4.12-7.08,2.6-.63,3.82,1.52,3.19,3.88A24.81,24.81,0,0,1,169,29.74a.76.76,0,0,0,.45,1.1,10.52,10.52,0,0,1,2.18.5c.7.9-.54,1.19-1.09,1.31-.95.19-.55,1.64.4,1.44Z"/><path class="cls-5" d="M166.88,33.55c1,5.37,1.83,10.2.05,15.52-.3.91,1.15,1.31,1.45.39,1.85-5.53,1-10.71,0-16.31-.18-.94-1.62-.54-1.45.4Z"/><path class="cls-5" d="M162.65,32.12a39.75,39.75,0,0,0-6.29,8.46,8.88,8.88,0,0,0-1,3.51c0,1,1.2,3.24,0,3.58a.75.75,0,0,0,.4,1.44c2.68-.77,1.13-3.08,1.18-5,.06-2.16,1.33-3.91,2.62-5.53s2.64-3.71,4.14-5.35c.65-.71-.41-1.77-1.06-1.06Z"/><path class="cls-5" d="M177.23,24.08a4.52,4.52,0,0,1,4-1c.94.2,1.34-1.24.4-1.45A6.13,6.13,0,0,0,176.17,23c-.73.64.34,1.7,1.06,1.06Z"/><path class="cls-5" d="M176.5,19.85l4.31-4.14c.69-.67-.37-1.73-1.06-1.06l-4.31,4.14c-.7.67.36,1.73,1.06,1.06Z"/><path class="cls-5" d="M173.55,17.6l2.55-4.26a.75.75,0,0,0-1.29-.76l-2.56,4.26c-.5.83.8,1.58,1.3.76Z"/><path class="cls-9" d="M139.18,58.66c-4.36,1.27-5.13,11.44-3.53,10.39,3-2,7.78-.34,14.39,2.54,2.14.93,2.62-5.42.75-9.42S142.94,57,139.18,58.66Z"/><path class="cls-5" d="M139,57.94c-3.58,1.33-5.28,6.56-4.82,10.11.13,1,.41,1.83,1.53,1.79.59,0,1.21-.61,1.81-.77a7.87,7.87,0,0,1,3,0,28.39,28.39,0,0,1,5.68,1.72c1.87.73,4.37,2.82,5.82.55,1.26-2,.72-5.39.16-7.48-1.54-5.73-7.88-7.93-13.2-5.92-.9.34-.51,1.79.4,1.45,4.73-1.79,10.23,0,11.46,5.26.46,2,1.33,6-1.69,5.75-1.22-.11-2.82-1.18-4-1.6-1-.35-2-.68-3-.93a11.84,11.84,0,0,0-4.39-.35,8.6,8.6,0,0,0-1.93.58c-.85.33-.08.66-.13-.18-.17-2.79.75-7.43,3.72-8.53C140.27,59.05,139.89,57.6,139,57.94Z"/><path class="cls-5" d="M134.42,65.91c-.62.14-1.88.47-2.1-.41a.75.75,0,0,0-1.44.4c.45,1.82,2.47,1.8,3.94,1.46.94-.22.54-1.67-.4-1.45Z"/><path class="cls-5" d="M134.5,62.49a2.75,2.75,0,0,1-2.21-1.64c-.4-.87-1.7-.11-1.3.76a4.08,4.08,0,0,0,3.11,2.32.77.77,0,0,0,.92-.52.75.75,0,0,0-.52-.92Z"/><path class="cls-5" d="M135.94,60.28a5.36,5.36,0,0,1-2.07-2.56c-.34-.9-1.79-.51-1.44.4a7,7,0,0,0,2.76,3.45c.8.54,1.56-.76.75-1.29Z"/><path class="cls-5" d="M135.31,66.26c5.14-.5,9.94-2.64,15.11-2.93.48,0,.48-.78,0-.75-5.17.29-10,2.43-15.11,2.93-.47,0-.48.8,0,.75Z"/><path class="cls-5" d="M138.6,68.21a74.19,74.19,0,0,1-.15-8.82l-.48.36.07,0a.39.39,0,0,0,.43-.17c.22-.31.35-.31.05-.41.46.15.66-.58.2-.72l-.07,0a.41.41,0,0,0-.43.17c-.22.31-.35.31-.05.41a.37.37,0,0,0-.47.36,74.19,74.19,0,0,0,.15,8.82c0,.48.78.48.75,0Z"/><path class="cls-5" d="M140.73,58.54c.1,3.34.28,6.66.54,10,0,.48.79.49.75,0-.26-3.33-.44-6.65-.54-10,0-.48-.77-.49-.75,0Z"/><path class="cls-5" d="M144.25,58.21c0,3.71,0,7.38.27,11.08,0,.48.78.48.75,0-.27-3.7-.25-7.37-.27-11.08a.38.38,0,0,0-.75,0Z"/><path class="cls-5" d="M148.13,60.32q0,5.37.26,10.72c0,.48.78.48.75,0q-.24-5.36-.26-10.72a.38.38,0,0,0-.75,0Z"/><path class="cls-5" d="M135.21,63.74q7.13-1.31,14.25-2.56l-.36-.63-.36.33c-.35.33.18.85.53.53l.36-.33c.29-.28,0-.69-.37-.63Q142.14,61.71,135,63c-.47.09-.27.81.2.72Z"/><path class="cls-5" d="M135.22,68.47q8-1.32,16-3c.47-.1.28-.83-.2-.72q-8,1.71-16,3c-.48.08-.28.8.2.73Z"/><path class="cls-5" d="M143.92,69.76a2.89,2.89,0,0,1,1.12-.15l-.26-.46c0-.21.15-.22.29-.13l.07.59A11.14,11.14,0,0,1,148,68.53a15.66,15.66,0,0,1,4-1.07c.48,0,.49-.79,0-.75a17.65,17.65,0,0,0-4.6,1.26,10,10,0,0,0-2.72,1.11.38.38,0,0,0,.08.59.6.6,0,0,0,.81-.33.38.38,0,0,0-.26-.46,3.58,3.58,0,0,0-1.52.16c-.48.08-.27.8.2.72Z"/><path class="cls-5" d="M148.11,71.08,152,69.59c.44-.17.25-.9-.2-.72l-3.86,1.49c-.45.17-.25.9.2.72Z"/><path class="cls-5" d="M138,60.79a48.44,48.44,0,0,0,9.15-.91c.47-.1.27-.82-.2-.73A47.24,47.24,0,0,1,138,60a.38.38,0,0,0,0,.75Z"/><path class="cls-3" d="M155.41,74a7.75,7.75,0,0,0,1.07,4.68,2,2,0,0,0,1.64,1.2,6.37,6.37,0,0,0,2.6-.88c1.12-1.24,1.38-5.32,1.53-7a5.7,5.7,0,0,1-7.14,1.92"/><path class="cls-5" d="M154.66,74c-.11,2,.32,4.47,1.82,5.91,1.11,1.07,2.63.7,3.91.13,2.59-1.15,2.4-5.63,2.61-8,.07-.81-1-.93-1.4-.38a5,5,0,0,1-6.11,1.65c-.87-.4-1.63.89-.76,1.29a6.54,6.54,0,0,0,8.17-2.19L161.5,72c-.16,1.88-.11,4.28-1,6a2.5,2.5,0,0,1-2.63,1c-1.54-.69-1.75-3.57-1.67-5,.06-1-1.44-1-1.5,0Z"/><path class="cls-10" d="M167.61,110.5c-.56-3.16,1.19-5.37.25-8.29-.17-.54-1.64-1-2.17-.85a2.11,2.11,0,0,0-1.23,1.33c-.38,2.71,1.44,6,3.15,7.81-1.29-1.9-3.92-4.31-6.16-4.33-.71,0-1.59.89-1.79,1.66-.65,2.94,4.83,2.52,8,2.67"/><path class="cls-5" d="M168.34,110.3c-.36-2.6,1-5.13.4-7.72a2.69,2.69,0,0,0-3.34-1.9c-4.39,1.42,0,8.51,1.68,10.35.56.63,1.68-.21,1.18-.91-1.37-1.92-3.32-3.93-5.69-4.55a2.89,2.89,0,0,0-3.7,2.48c-.35,3.82,6.54,3.11,8.74,3.2,1,0,1-1.46,0-1.5-2-.08-4.69.34-6.47-.6-.5-.27-.86-.47-.76-1.13.23-1.56,2.15-1,3-.49a11.27,11.27,0,0,1,3.59,3.35l1.17-.91a12.26,12.26,0,0,1-2.58-4.3c-.3-.9-.8-4.69,1.23-3.36,1.23.8.42,3.32.21,4.55a12.38,12.38,0,0,0-.11,3.84c.13,1,1.58.55,1.45-.4Z"/><path class="cls-10" d="M187.41,104c3,.81,6.1,5.08,7.08,8.32s1.17,5,.09,8.25a17.51,17.51,0,0,1-5.83,8.45,11.51,11.51,0,0,1-9.21,2.25,9.18,9.18,0,0,1-5.56-2.85,44.27,44.27,0,0,1-4.4-6.06,16.72,16.72,0,0,1-1.87-5.81c-.18-1.57-.61-1.89.73-3.21A3.56,3.56,0,0,1,171.6,112a.09.09,0,0,1,.07,0,7.58,7.58,0,0,1,.89,1.51c.8,1.6,2.05,4.48,2.78,5.8,2.25,4.09,6.32,5.29,10.41,3.62a8.05,8.05,0,0,0,1.86-1.65,10.35,10.35,0,0,0,1.39-2.63c.85-3.92-1.14-7.12-3.59-10a1.51,1.51,0,0,1-.44-.81,1.56,1.56,0,0,1,.56-1.12c.62-.68,1.26-2,1.88-2.69"/><path class="cls-5" d="M187.21,104.72c7,2.87,8.72,12.14,5.54,18.26-3.37,6.5-12.22,10.84-18.24,4.9-2.76-2.73-6.06-7.58-6.08-11.54,0-2.16,1.53-4,3.18-3,.48.28,1.25,2.56,1.42,2.91a24.32,24.32,0,0,0,2.54,4.78c3,3.85,9.36,4.82,12.63.71a8.08,8.08,0,0,0,1.43-7.21c-.49-2-1.7-3.24-2.56-5-1.15-2.37-.45-3.18,1-5.12.58-.78-.72-1.53-1.29-.76-.84,1.14-2.42,2.68-2.54,4.19-.16,2.07,3.11,4.28,3.77,6.35,2.71,8.42-7.86,11.52-12,4.76-1.22-2-1.68-5.4-3.4-6.93s-4.31-.44-5.39,1.66c-1.58,3.09,1,7.88,2.61,10.48,2.2,3.47,4.69,6.71,8.84,7.71,5.09,1.22,10-.87,13.23-4.83,6-7.23,5.39-19.79-4.27-23.73-.9-.37-1.29,1.08-.4,1.45Z"/><path class="cls-10" d="M127.33,97.2c-2.62.31-6.46,5.25-7.84,8.28s-2.15,5.32-1.81,8.69a16.63,16.63,0,0,0,3.73,8.7,8.84,8.84,0,0,0,7.27,3.74,13.39,13.39,0,0,0,6.38-2.55,18.6,18.6,0,0,0,4.14-4.55,26,26,0,0,0,2.92-6.46c.42-1.51.79-.86-.1-2.37-.71-1.22-2.71-1.89-3.9-2a18.93,18.93,0,0,1-1.46,2.85c-.93,1.44-3.28,5.31-4.29,6.2-3,2.56-3.42,2-6.54-.3a7.76,7.76,0,0,1-1.26-1.93,8.67,8.67,0,0,1-.71-2.82c.42-3.53.31-3.65,1.4-6.26.11-.26.69-2.89.77-3.2s.51-2.14.64-2.55c.52-1.69.09-2.14.66-3.46"/><path class="cls-5" d="M127.13,96.48c-5.31,1.45-9.13,8.71-10,13.71-1.11,6.15,2.28,14.65,8.62,16.74S138.27,123.21,141,118c2.35-4.56,3.74-8.86-2.63-10a.76.76,0,0,0-.85.34,28.62,28.62,0,0,1-4.62,7.69c-4.25,4.53-8.47.44-8.07-4.82.33-4.24,2.12-9.63,3.27-13.76a.75.75,0,0,0-1.44-.4c-.81,2.89-1.11,5.92-2,8.81-.75,2.57-1.84,5.08-1.42,7.85.58,3.9,4.72,8.07,8.54,5.5,2.74-1.83,4.13-5.25,5.91-7.9.37-.55.55-1.77,1.25-1.67,2,.28,2.13,3.58,1.94,4.84-.36,2.33-2.56,5.39-4.14,7.06-3.56,3.76-9.43,6.12-13.79,2a15.57,15.57,0,0,1-4.59-10.9c.06-4.95,4-13.22,9.18-14.65a.75.75,0,0,0-.4-1.44Z"/><path class="cls-10" d="M141.91,108.12c1-4.88-1.71-4.13-1.06-8.47.15-1,2.07-1.26,2.83-.87a5.13,5.13,0,0,1,1.47,2.37c.47,3-1.16,4.77-3.24,7,1.56-2.25,4.17-4.48,6.9-4.73.86-.08,2.57.53,2.2,1.65-.81,4.39-6.22,1.75-9.1,3.08"/><path class="cls-5" d="M142.64,108.32a8,8,0,0,0,0-4,14,14,0,0,1-1.1-3.13c-.08-1,.46-2.28,1.65-1.8a3.06,3.06,0,0,1,1.31,2.33c.22,2.39-1.58,4.23-3.09,5.83l1.18.91a11,11,0,0,1,4.81-4c.9-.33,2.38-.75,2.71.36s-.65,1.68-1.47,1.94c-2.23.69-4.66-.3-6.9.58-.88.36-.5,1.81.4,1.45,2.82-1.12,9.67,1.14,9.67-4,0-1.89-2.24-2.39-3.76-2.1-2.83.53-5.12,2.74-6.75,5-.51.69.6,1.52,1.17.91,1.83-2,3.68-4,3.53-6.89-.1-1.69-1.17-3.78-3-3.9-2.44-.15-3.16,1.67-2.89,3.79a7.87,7.87,0,0,0,.75,2.27,6.23,6.23,0,0,1,.39,4c-.17.94,1.27,1.35,1.45.4Z"/><path class="cls-1" d="M140,107.24c-.15-1.67-.18-4.38-1.14-5.76a2.85,2.85,0,0,0-1.3-.83,3,3,0,0,0-1.74.23,2.19,2.19,0,0,0-.86,1.07,1.34,1.34,0,0,0,.51,1.49c1.74,1,3.19.49,4.53,3.8"/><path class="cls-5" d="M140.72,107.24c-.16-1.94-.07-4.31-1.17-6a3.14,3.14,0,0,0-4.29-.88,2.23,2.23,0,0,0,0,3.87c.66.36,1.41.5,2.08.85a4.69,4.69,0,0,1,1.94,2.55c.38.89,1.67.12,1.3-.75a6.16,6.16,0,0,0-2.08-2.86c-.76-.5-1.74-.59-2.48-1.09-1.07-.72.22-1.66,1.09-1.55a1.83,1.83,0,0,1,1.49,1.47,19.17,19.17,0,0,1,.58,4.4c.08,1,1.58,1,1.5,0Z"/><path class="cls-1" d="M169.82,109.77a7.42,7.42,0,0,1,2.25-3.5c1-.81,2.1-1.18,2.27-2.46a1.77,1.77,0,0,0-2.41-2,4.71,4.71,0,0,0-1.62,1.55c-1.13,1.81-.51,4.3-.49,6.43"/><path class="cls-5" d="M170.54,110a6.36,6.36,0,0,1,2.06-3.15,8,8,0,0,0,2.1-1.82,2.67,2.67,0,0,0-1.11-3.87c-1.59-.71-3.11.5-3.93,1.83-1.24,2-.66,4.57-.59,6.81,0,1,1.53,1,1.5,0a37.48,37.48,0,0,1-.17-4.1,3.8,3.8,0,0,1,1-2.51c.55-.72,1.29-.64,2.23.24a1.56,1.56,0,0,1-.81,1.43c-1.67,1.38-3.1,2.53-3.72,4.74a.75.75,0,0,0,1.45.4Z"/><path class="cls-1" d="M166.73,112.32c-.85-.46-5.13-.51-6.48.32a4.21,4.21,0,0,0-1.52,2.25,2,2,0,0,0,.58,1.58c.41.16,1.19.73,1.61.58,1.8-.68,2.46-3.92,5.81-4.73"/><path class="cls-5" d="M167.11,111.67a10.4,10.4,0,0,0-5.51-.23c-1.84.32-3.92,1.93-3.6,4,.25,1.63,2.28,2.9,3.76,2,2.05-1.3,2.6-3.68,5.17-4.41a.75.75,0,0,0-.4-1.45,7.16,7.16,0,0,0-3.47,2.21c-.68.75-1.62,2.69-2.75,2.34-1.31-.4-.7-1.79,0-2.5a3,3,0,0,1,2-.8,8.75,8.75,0,0,1,4,.12c.88.38,1.64-.91.76-1.29Z"/><path class="cls-1" d="M143,109.54c1.46-.83,4.7-1.56,6.06-.57a4,4,0,0,1,1.25,1.62,2.42,2.42,0,0,1-.72,1.93,1.93,1.93,0,0,1-1.66.28c-1.24-.27-1.48-.93-2.4-1.81a18.61,18.61,0,0,0-2.53-1.45"/><path class="cls-5" d="M143.33,110.19a8.1,8.1,0,0,1,3.64-.94,2.61,2.61,0,0,1,1.8.5c.88.7,1.2,2.49-.69,2.32-1.05-.09-1.68-1.35-2.48-1.92a12.56,12.56,0,0,0-2.27-1.25c-.88-.38-1.64.91-.76,1.29a13.13,13.13,0,0,1,2,1.06c.74.47,1.2,1.24,1.92,1.74a2.81,2.81,0,0,0,4.47-1.36c.51-1.72-1.07-3.41-2.68-3.77a8.76,8.76,0,0,0-5.66,1c-.85.45-.1,1.74.76,1.29Z"/><path class="cls-5" d="M139.67,116.23c-1.75.43-3.34-1.06-3.7-2.68-.21-.94-1.66-.54-1.45.4a4.78,4.78,0,0,0,5.55,3.73c.93-.23.54-1.68-.4-1.45Z"/><path class="cls-5" d="M135.45,122.06a3.11,3.11,0,0,1-3.62-2.76c-.11-.94-1.61-1-1.5,0a4.64,4.64,0,0,0,5.52,4.21c.94-.22.54-1.66-.4-1.45Z"/><path class="cls-5" d="M125.85,117.69a6,6,0,0,0-2.81,7c.32.9,1.77.51,1.44-.4a4.55,4.55,0,0,1,2.13-5.26c.87-.41.11-1.7-.76-1.29Z"/><path class="cls-5" d="M123.71,112.27c-3-.63-5.74,2.67-6,5.33-.1,1,1.4,1,1.5,0a4.51,4.51,0,0,1,1.69-2.9,3.27,3.27,0,0,1,2.43-1c.94.2,1.34-1.24.4-1.45Z"/><path class="cls-5" d="M125.57,106.13a6.91,6.91,0,0,0-5.72-1.58c-.95.16-.54,1.6.4,1.45a5.28,5.28,0,0,1,4.26,1.19c.73.61,1.8-.44,1.06-1.06Z"/><path class="cls-5" d="M191.62,109.23l.1.07-.37-.64a1.78,1.78,0,0,1-1.18,1.7,6.32,6.32,0,0,1-2.7.28c-1-.06-1,1.44,0,1.5a6.14,6.14,0,0,0,4.27-1c.82-.67,1.67-2.46.64-3.23-.77-.59-1.52.72-.76,1.29Z"/><path class="cls-5" d="M194.55,114.83a5.09,5.09,0,0,1-1.89,2.51,3,3,0,0,1-3-.32c-.84-.47-1.6.83-.75,1.3,3.07,1.72,5.63.3,7-2.74.39-.87-.9-1.63-1.3-.75Z"/><path class="cls-5" d="M189.5,126.79c-1.93-.18-3.8-1.58-3-3.68.34-.91-1.11-1.3-1.44-.4a3.83,3.83,0,0,0,.51,3.64,5.36,5.36,0,0,0,4,1.94c1,.09,1-1.41,0-1.5Z"/><path class="cls-5" d="M178.88,122.6c-2.62,2.1-3.18,6.77-.58,9,.73.63,1.79-.43,1.06-1.06-2-1.76-1.42-5.32.58-6.92.75-.61-.32-1.66-1.06-1.06Z"/><path class="cls-5" d="M174.8,117.6a5.66,5.66,0,0,0-5,4.34c-.21.94,1.23,1.34,1.44.4a4.15,4.15,0,0,1,3.58-3.24c.95-.09,1-1.59,0-1.5Z"/><path class="cls-5" d="M169.31,27.19a4.57,4.57,0,0,0,.76-3.08c-.16-.84-.81-2-1.75-1.21-.76.6.31,1.66,1.06,1.06l.05,0-.73.19c-.32-.1-.1.22-.08.42a2.18,2.18,0,0,1-.06.67,4.25,4.25,0,0,1-.55,1.23c-.5.83.8,1.58,1.3.76Z"/><path class="cls-1" d="M198.45,51.94l-3.15,2.19c-.78.55,0,1.85.76,1.3l3.14-2.19c.79-.55,0-1.85-.75-1.3Z"/><path class="cls-1" d="M185.81,97.17a27.63,27.63,0,0,0-4.34,1.94c-.84.47-.08,1.77.76,1.3a25.36,25.36,0,0,1,4-1.79c.9-.31.51-1.76-.4-1.45Z"/><path class="cls-1" d="M185.58,101.16a13.74,13.74,0,0,0-2.51,1.12.75.75,0,0,0,.76,1.3,11.93,11.93,0,0,1,2.15-1c.91-.3.52-1.75-.4-1.44Z"/><path class="cls-1" d="M195.57,77a14.68,14.68,0,0,1-2.48,2.18c-.79.54,0,1.84.76,1.3A16,16,0,0,0,196.63,78c.65-.72-.41-1.78-1.06-1.06Z"/><path class="cls-1" d="M188.47,139.57a43.1,43.1,0,0,1-4.36,5.08.75.75,0,0,0,1.06,1.06,45.27,45.27,0,0,0,4.59-5.38c.57-.78-.73-1.53-1.29-.76Z"/><path class="cls-1" d="M188.58,135.29a19.4,19.4,0,0,0-2.82,3,.75.75,0,1,0,1.29.76,17.28,17.28,0,0,1,2.59-2.68c.74-.62-.33-1.68-1.06-1.06Z"/></g></svg>