<?xml version="1.0" encoding="utf-8"?>
<!-- Generator: Adobe Illustrator 24.2.0, SVG Export Plug-In . SVG Version: 6.00 Build 0)  -->
<svg version="1.1" id="Layer_1" xmlns="http://www.w3.org/2000/svg" xmlns:xlink="http://www.w3.org/1999/xlink" x="0px" y="0px"
	 viewBox="0 0 418 400" style="enable-background:new 0 0 418 400;" xml:space="preserve">
<style type="text/css">
	.st0{fill:#F8DAD4;}
	.st1{clip-path:url(#SVGID_2_);}
	.st2{fill:#F3F0E7;}
	.st3{fill:#183E41;}
	.st4{fill:#868686;}
	.st5{fill:#7FC7CD;}
	.st6{fill:#FFFFFF;}
	.st7{fill:#E83947;}
	.st8{fill:#FBC80A;}
	.st9{fill:#183E41;stroke:#183E41;stroke-width:2.7626;stroke-linecap:round;stroke-linejoin:round;stroke-miterlimit:10;}
	.st10{fill:#F5AFA3;}
	.st11{fill:#7DC4CA;}
	.st12{opacity:0.32;}
	.st13{fill:#1D1D1B;}
	.st14{opacity:0.42;}
	.st15{fill:#D2E8EB;}
	.st16{fill:#42797D;}
	.st17{fill:#F7C402;}
	.st18{fill:#F72872;}
	.st19{fill:#E66869;}
	.st20{fill:#390075;}
	.st21{fill:#FFDA83;}
	.st22{fill:#AA8B12;}
	.st23{fill:#993637;}
	.st24{fill:#729496;}
	.st25{fill:#FDEAAB;}
	.st26{fill:#F5C3C3;}
	.st27{fill:#E7F3F4;}
	.st28{fill:#FFF0D1;}
	.st29{fill:#BFA362;}
	.st30{fill:#C2E1E3;}
</style>
<circle class="st0" cx="194.5" cy="194.5" r="160.5"/>
<g>
	<defs>
		<circle id="SVGID_1_" cx="194.5" cy="194.5" r="160.5"/>
	</defs>
	<clipPath id="SVGID_2_">
		<use xlink:href="#SVGID_1_"  style="overflow:visible;"/>
	</clipPath>
	<g class="st1">
		<path class="st2" d="M193.2,121.3c0.2-2.3,0.3-4.1,0.4-6c0.3-5.7-0.1-11.4-1.8-16.9c-0.8-2.4-1.8-4.6-3.5-6.5
			c-2.7-3.1-6.1-4.6-10.2-4.2c-1.9,0.2-3,1-3.3,2.9c-0.3,1.4-0.4,3-0.3,4.4c0.2,8.2,0.5,16.4,0.7,24.5c0,0.6,0,1.2-0.1,2
			c-2.5,0.2-4.8,0.3-7.1,0.1c-0.4-9.8-2.8-19.2-6.2-28.2c-0.2-0.5-0.4-0.9-0.6-1.4c-0.5-0.9-1.3-1.5-2.4-1.6c-1.3-0.1-2.5,0-3.5,0.9
			c-0.9,0.8-2,1.5-2.9,2.3c-3.2,2.7-4.8,6.1-4.7,10.4c0.1,5.5,0.6,10.9,1.9,16.2c0.1,0.6,0.2,1.1,0.3,1.7c-4,0.6-13.5,0.9-16.6,0.5
			c-0.6-2.6-1.1-5.2-1.8-7.8c-1.3-5.7-2.7-11.3-5.1-16.7c-0.9-2-2-4-3.3-5.8c-2.4-3.2-6.5-2.7-8.8-0.6c-1.9,1.7-3.1,3.9-3.5,6.4
			c-0.4,3.2-0.6,6.4-1,9.6c-1.6,14.4-2.5,28.9-2.8,43.4c-0.1,3.1-0.4,6.2-0.5,9.3c-0.1,2.7-0.1,5.5,0.1,8.2c0.4,4.7,3,8.1,7.2,10.1
			c2.3,1.1,4.8,2.1,7.3,2.8c4.3,1.1,8.7,1.8,13.1,2.7c13.4,2.9,26.9,4.5,40.5,5.4c13.4,0.9,26.8,1.1,40.2,0.9
			c7.9-0.1,15.9-0.4,23.8-0.8c2.4-0.1,4.9-0.7,7.3-1.2c1-0.2,1.8-0.9,1.9-2.1c0.1-0.7,0.1-1.5,0.2-2.2c0.5-5.2,0.7-10.4,1.4-15.6
			c1.9-12.9,4-25.7,6.1-38.5c1.2-7.2,2.6-14.4,3.7-21.6c0.7-4.7,0.8-9.4-0.3-14.1c-0.4-1.8-1.2-3.5-2.4-5c-2.4-2.8-6.1-3.2-8.9-0.9
			c-1,0.9-2,1.9-2.6,3.1c-1,1.7-1.8,3.5-2.4,5.4c-0.9,2.9-1.6,6-2.3,9c-1.2,5.3-2.6,10.5-4.1,15.6c-4.1,0.4-12.2,0.2-15.1-0.4
			c0-0.5-0.1-1,0-1.4c0.7-3.6,0.7-7.2,0-10.7c-0.8-4.3-1.6-8.5-2.4-12.8c-0.3-1.3-0.8-2.6-1.3-3.9c-1.9-4.6-5.8-6.5-10.8-6
			c-2.8,0.2-4.6,1.8-5.4,4.4c-0.5,1.7-0.8,3.4-0.9,5.1c-0.4,6.8-0.5,13.6,0.4,20.4c0.2,1.5,0.5,3.1,0.2,4.8H193.2z"/>
		<path class="st3" d="M212,316.3c0.5,0,0.9,0.2,1.5,0.3c0.1,0.8,0.1,1.6,0.2,2.3c0.6,7.7,1.2,15.3,1.8,23c0.3,4,0.8,8.1,1.2,12.1
			c2.1-0.9,4.2-1.4,6.3-1.6c-0.2-1.8-0.4-3.7-0.5-5.5c-0.9-9-1.6-18-3-27c-0.2-1.2-0.3-2.4-0.4-3.6c1.7-0.3,3.2-0.5,4.6-0.8
			c1.9-0.5,3.9-0.9,5.7-1.6c3-1,5.6-2.7,7.8-4.9c3.4-3.3,4.1-7,2.1-11.2c-0.8-1.8-2-3.4-3.1-5.1c-1.2-1.7-2.5-3.4-3.9-5
			c-0.9-1.1-1.3-2.3-1.2-3.8c0.4-5.7,0.6-11.4,0.9-17.1c0.5-8.8,3.4-16.7,9.6-23.2c1.5-1.6,2.7-3.5,4-5.3c0.4-0.6,0.8-1.2,1.2-1.8
			c5.2,1.4,10.3,1.5,15.3,0.4c12.7-2.8,23.6-9,32.6-18.3c4.8-5,8.1-10.9,9.1-18c0.1-0.5,0.3-0.9,0.4-1.4c1-0.5,2.1-0.9,3-1.4
			c4.2-2.1,7.1-5.4,8.6-9.8c0.5-1.4,0.7-2.9,0.9-4.4c0.1-1.3-0.9-2.5-2.2-2.6c-2.6-0.1-4.4,0.6-4.7,3c0,0.2-0.1,0.5-0.1,0.7
			c-0.4,2.6-1.7,4.6-3.6,6.3c-0.4,0.3-1,0.4-1.8,0.7c0-2.1,0.1-3.8,0-5.6c-0.1-1.7-1.3-2.7-3-2.6c-0.6,0-1.2,0.2-1.8,0.3
			c-1.2,0.4-1.9,1.1-1.9,2.4c0,1.2,0,2.3-0.1,3.5c-1-0.1-1.2-0.8-1.4-1.3c-0.5-1.5-0.9-3.1-1.3-4.6c-0.3-1.4-1.1-2.2-2.5-2.4
			c-2.8-0.5-4.6,1.3-4.2,4c0.7,4.7,2.9,8.7,6.7,11.6c0.8,0.6,1.5,1.2,2.3,1.9c-0.3,1.3-0.5,2.5-0.8,3.7c-1.3,5.1-4.2,9.2-7.8,12.9
			c-7,7.1-15.4,12-25,14.9c-4.5,1.3-9,1.7-13.6,0.7c-0.8-0.2-1.6-0.5-2.2-0.8c-1.1-9.1-4.6-15.3-11.2-20c-6.5-4.5-13.8-6.7-21.5-7.5
			c-7.4-0.8-14.8-0.8-22.3-0.6c-11.3,0.4-22.6,0.5-33.8,2.1c-6.5,0.9-13,2.2-19.1,4.4c-2,0.7-3.9,1.6-5.7,2.7
			c-3.9,2.4-6.2,6-6.6,10.6c-0.1,1-0.2,1.9-0.3,2.9c-2.1,0.8-4.1,1.5-6,2.3c-3,1.1-5.9,2.6-8.4,4.6c-4.2,3.3-6.6,7.6-6.9,13
			c-0.2,3.4,0.7,6.6,2.2,9.7c1.3,2.8,3.1,5.4,5.1,7.7c2.1,2.4,4.3,4.8,6.5,7.1c2.2,2.4,4.2,4.9,5.8,7.7c0.6,1.1,1.3,2.1,0.8,3.6
			c-3.8,0.5-7.2-0.8-10.4-2.9c-0.8-0.6-1.5-1.3-2.3-1.9c-1.5-1.1-3.8-0.7-5,0.6c-0.8,0.9-1,2.1-0.2,3c0.9,1,2,1.8,3,2.8
			c0.7,0.6,1.8,0.8,2.2,2.1c-0.8,0.1-1.5,0.1-2.2,0.2c-0.7,0.1-1.5,0.3-2.1,0.6c-1.1,0.5-1.6,1.5-1.5,2.7c0.1,1.1,0.8,1.8,1.8,2.1
			c1,0.2,1.9,0.4,2.9,0.3c1.2,0,2.4-0.2,4-0.3c-0.5,0.6-0.7,1.1-1,1.3c-0.7,0.6-1.4,1-2.1,1.6c-1.6,1.5-1.2,3.6,0.8,4.5
			c1.5,0.7,2.8,0.6,4.2-0.4c3-2.1,5.6-4.4,8.1-7.1c1.1-1.2,2.3-2.1,3.5-3.2c1.1-1.2,2.2-2.5,3.3-3.7c0.6-3.6-0.3-6.9-2.4-9.8
			c-1.9-2.6-3.9-5.1-5.9-7.6c-2.1-2.5-4.3-4.7-6.5-7.2c-1.9-2.1-3.4-4.5-4.6-7.2c-2.8-6.6-1.1-12.2,4.8-16.2
			c2.9-1.9,6.1-3.1,9.6-4.2c0.3,0.7,0.7,1.4,0.9,2c2.7,8.5,6,16.8,11.1,24.2c2.4,3.5,3.1,7.2,2.1,11.3c-0.6,2.6-1.2,5.3-1.9,7.9
			c-0.5,2-1.5,3.6-3.4,4.7c-0.9,0.6-1.7,1.4-2.6,2.1c-0.9,1.2-1.7,2.5-2.6,3.7c-2.7,5.8-1.7,11.1,2.4,15.9c2,2.3,4.4,3.9,7.3,5
			c3.2,1.2,6.4,1.8,9.8,2.2c0.7,0.1,1.4,0.3,2.2,0.5c-0.3,3.4-0.7,6.6-1,9.8c-0.9,9.6-1.7,19.2-2.7,28.7c1.7,0.5,3.4,1.1,4.9,2
			c0.5-0.1,1.1-0.1,1.6-0.1c0.2-1.7,0.5-3.5,0.7-5.2c1.3-10.8,2-21.7,1.6-32.7c0-0.7,0.2-1.4,0.2-2.1c0.6,0,1-0.1,1.3-0.1
			c5.1,0.5,10.1,0.9,15.2,1.4c5.7,0.6,11.3,1.3,17,1.9C198.9,315.3,205.4,316.4,212,316.3z M214.1,306.7c-0.5,2.5-1.7,3.6-4.3,3.7
			c-4.1,0.2-8.1-0.6-12.5-1.9c1.8-4.5,3.6-8.7,5.3-13c3.4-1.4,6.9-2.8,10.6-4.2c0.3,0.8,0.7,1.5,0.7,2.2c0.1,4.1,0.2,8.1,0.2,12.2
			C214.2,306,214.1,306.4,214.1,306.7z M237,219.1c3.2,4.2,4.6,9,3.8,14.3c-0.4,2.3-2,4-3.4,5.7c-1,1.1-2.1,2.1-3.1,3.2
			c-4.3,4.4-6.5,9.7-7.6,15.8c-0.7,3.8-0.6,7.6-0.7,11.5c0,3.6,0,7.2,0,10.8c0,1.5,0,2.9-1,4.2c-1,1.3-0.5,2.8,0.4,3.8
			c2.1,2.2,3.4,5.2,6.2,6.8c2.5,1.5,3.9,3.9,3.2,6.9c-0.5,2.3-1.7,4.5-3.8,5.8c-3.4,2.2-7.1,3.3-11.4,2.3c0-0.6,0-1.2,0-1.8
			c0.1-1.1,0.4-2.2,0.4-3.3c0.1-3.3,0-6.7,0-10c0-1,0-2-0.3-2.9c-0.8-2.5-0.5-4.5,1.6-6.4c1.5-1.4,0.8-4.1-1.1-4.8
			c-0.5-0.2-1.2,0-1.9,0c-1.5-2.1-1.4-4.7-1-7c0.5-3.3,1.3-6.5,2.8-9.5c3.4-7,6.4-14.2,8-21.9c0.6-2.9,1.2-5.8,1.1-8.8
			c-0.1-2.3,0-4.7,0-7.1c0-1.5,0-2.9,0.5-4.4c0.7-2.1,0.2-4.2-1.4-5.9c-0.9-1-1.8-2-1.8-4C230.7,213.7,234.4,215.6,237,219.1z
			 M222.8,233c-0.7,8.1-3,15.8-6.1,23.2c-1.1,2.6-2.2,5.2-3.3,7.9c-1.9,4.9-2.6,10-1.7,15.3c0.3,1.6,0.4,3.2,0.6,5.1
			c-2.7,1.7-5.2,3.3-8.2,4.3c0-0.7-0.1-1.2,0-1.7c0.9-7.5-0.3-14.6-3.8-21.2c-1.7-3.2-2-6.2-1-9.6c1.7-5.8,3.3-11.7,4.8-17.5
			c0.5-2,1-4.1,1.4-6.1c3-0.9,5.8-1.6,8.6-2.5c2.8-0.9,5.5-2.1,8.5-3.2C223.1,229.1,222.9,231.1,222.8,233z M218.1,210.4
			c1.2,2.8,2.4,5.8,3.1,8.9c-1,1.7-2.5,2.5-4,3.3c-3.5,1.8-7.1,3.2-11.2,4.1c0-6.3-1.8-11.8-5.3-16.9
			C203.7,208.8,214,209.2,218.1,210.4z M187.9,308.1c-0.5,0-1,0-1.5,0c-3.2-0.4-6.3-0.9-9.5-1.3c-0.9-0.1-1.7-0.1-2.6-0.2
			c-2.2-0.1-4.4-0.1-6.6-0.6c-2-0.4-4.2-0.2-6.3-0.2c-5.4,0.1-10.5-1.1-15.5-3.1c-2.7-1.1-4.8-3-6.6-5.3c-1.1-1.4-1.4-3.1-0.8-4.9
			c1.2-4.1,3.6-7.3,7-9.7c2-1.5,3.7-3.2,5-5.4c2.3-3.9,2.3-8,1-12.2c-1.2-4.1-3.2-7.7-5.3-11.4c-3.4-5.8-6.6-11.6-9.1-17.8
			c-2.8-7.1,0-16.7,6.2-21.3c1.1-0.8,2.4-1.4,3.6-1.8c2.7-0.8,5.5-1.3,8.3-1.7c4.3-0.7,8.6-0.2,12.9-1.3c0.9-0.2,2-0.1,3-0.1
			c1.2-0.1,2.4-0.3,3.7-0.4c0.4-0.1,0.7-0.2,1.1-0.2c5.1-0.3,10.1-0.5,15.2-0.8c2.3-0.2,3.9,0.8,4.9,2.6c1.7,2.9,3.3,5.8,4.2,9
			c0.7,2.4,0.6,4.8,0.2,7.4c-1,0.1-1.8,0.3-2.7,0.3c-3.5,0-6.9,0.1-10.4,0c-1.7-0.1-3.4-0.5-5.1-0.7c-1.8-0.1-3.7-0.3-5.5-0.6
			c-4.3-0.6-8.4-1.9-12.6-2.9c-4.9-1.2-9.8-2.5-14.7-3.6c-1.2-0.3-2.4-0.3-3.7-0.4c-0.7,0-1.4,0.2-1.4,0.9c0,0.5,0.3,1.3,0.7,1.6
			c1.3,0.9,2.7,1.8,4.1,2.6c5.9,3.3,12.2,5.4,18.7,6.8c5.9,1.3,11.8,2.4,17.9,2.3c1,0,2,0.1,2.9,0.3c2.3,0.5,4.6,0.6,7-0.1
			c1.2-0.4,2.4-0.4,3.9,0c-0.1,0.6-0.1,1.2-0.2,1.7c-1.2,4.7-2.4,9.3-3.7,14c-0.7,2.7-1.6,5.5-2.2,8.2c-0.8,3.4-0.2,6.6,1.4,9.7
			c1.2,2.3,2.2,4.7,2.9,7.2c0.5,2,0.7,3.9,0.7,5.9c0,2.1,0.1,4.2-0.1,6.3c-0.1,1.1-0.3,2.2-0.8,3.2c-0.3,0.6-1,1.3-1.6,1.4
			c-3.3,0.7-6.4,1.8-9.8,1.7c-1.1,0-2.2,0.1-3.3,0.3c-2.6,0.5-5.1,0.6-7.7,0c-0.7-0.2-1.5-0.3-2.2-0.3c-5.6-0.1-10.9-1.7-16.2-3.7
			c-2.7-1-5.3-2.1-7.6-3.8c-0.9-0.6-2-0.9-3.3-1.5c0,0.9-0.2,1.5,0,2c0.8,2.1,2.3,3.5,4.1,4.7c3.6,2.6,7.6,4.5,12.1,5.4
			c2.7,0.6,5.3,1,8,1.4c6.3,1.1,12.6,0.4,18.9,0.6c1.1,0,2.2-0.3,3.3-0.5c1-0.2,2-0.4,3.1,0.3c-0.1,0.5-0.2,1.1-0.5,1.6
			c-1,2-2,4-3,6C191,307.4,189.8,308.3,187.9,308.1z"/>
		<path class="st4" d="M134.5,283.6c-0.9,1.2-1.7,2.5-2.6,3.7c-0.6,0-1.3,0-1.9,0c1.1-1.2,2.2-2.5,3.3-3.7
			C133.7,283.5,134.1,283.6,134.5,283.6"/>
		<path class="st3" d="M163.3,121.9c-0.1-5.4-4.2-20.7-6.2-23.5c-0.4,0.6-0.9,1.2-1.3,1.8c-1.4,2.8-1.4,5.7-1,8.7
			c0.5,3.9,1.3,7.8,1.2,11.8c0,0.3,0.2,0.7,0.4,1.1c0.6,0.1,1.2,0.2,1.8,0.1C159.8,122,161.4,122,163.3,121.9 M182,92.4
			c-1.3,1.1-1.4,2.3-1.4,3.5c0,2.1-0.2,4.2,0.2,6.3c0.7,4.4,0.6,8.9,0.8,13.3c0.1,1.8,0.3,3.7,0.4,5.4c3.2,0.7,3.7,0.7,6.5-0.1
			c0.1-0.4,0.2-0.9,0.2-1.4c0.3-4.2-0.2-8.4-0.9-12.6c-0.5-3.4-1.5-6.8-2.8-10C184.3,95.4,183.7,93.7,182,92.4 M207.9,121.2
			c2.7,0.4,5.3,0.5,7.7,0.1c0.2-0.3,0.4-0.5,0.4-0.8c0.1-0.7,0.1-1.5,0.2-2.2c0.3-7-1.4-13.7-3.1-20.4c-0.7-2.7-3-4.1-6.4-4.3
			C206.5,102.8,206.4,111.9,207.9,121.2 M142.2,136.1c-0.5,1.5-0.7,3.1-1.4,4.6c-1.6,3.5-5.5,4.2-8.3,1.7c-1.5-1.4-2.6-3.1-3-5
			c-0.4-1.7-0.6-3.4-0.9-5.1c-0.3-2.5-0.5-4.9-1-7.4c-1.6-7.5-3.3-15-4.9-22.5c-0.2-1-0.5-1.9-0.9-2.8c-0.5-1.2-1.8-1.4-2.7-0.5
			c-1.1,1-1.4,2.3-1.8,3.6c-1.4,5.7-2.2,11.4-2.3,17.3c-0.1,6.8-0.6,13.6-0.8,20.4c-0.2,7.9-0.3,15.9-0.5,23.8
			c-0.1,2.3,0.8,4.1,2.4,5.6c3.1,2.9,6.6,5.2,10.6,6.8c5.7,2.3,11.6,3.6,17.6,4.3c8.8,1.1,17.7,2.2,26.6,2.9
			c9.5,0.8,19,1.2,28.6,1.8c1.4,0.1,2.7,0.1,4.1,0.2c10,0.7,20.1,0.5,30.1-0.4c2.2-0.2,4.4-0.8,6.5-1.4c1.1-0.3,2.1-0.7,2.8-1.7
			c0.3-3.2,0.6-6.4,1-9.6c0.6-5.2,1.3-10.3,2-15.5c1-6.9,2.2-13.7,3.3-20.5c1-6,1.9-12,2.9-18c0.6-3.3,1-6.6,1.8-9.9
			c0.9-3.6-0.9-7.1-0.2-10.7c0.1-0.3-0.2-0.7-0.4-1.2c-0.5,0.1-1,0-1.4,0.2c-1.7,0.9-2.9,2.3-3.4,4.2c-1,3.8-2.2,7.6-3.2,11.5
			c-2.2,8.3-4.3,16.5-6.6,24.8c-1.2,4.3-1.3,4.3-5.4,5.5c-3.1,0.9-3.8,0.7-5.7-1.8c-0.6-0.8-1.3-1.6-1.5-2.5c-0.7-3-2.8-3.5-5.3-3.3
			c-1.6,0.1-3.2-0.1-4.8,0.6c-0.5,1.3-0.4,2.9-1.9,3.8c-2.3,1.3-4.5,2.7-7.1,3.1c-3.9,0.6-7.8,1.4-11.8,1.5
			c-12.5,0.2-25,0.1-37.6,0.2c-3.4,0-5.8-1-6.6-4.6c-0.1-0.4-0.1-0.8-0.4-1c-0.7-0.8-1.4-1.9-2.3-2.3
			C146.4,135.8,144.3,135.1,142.2,136.1 M193.2,121.3h7.5c0.2-1.6-0.1-3.2-0.2-4.8c-0.9-6.8-0.8-13.6-0.4-20.4
			c0.1-1.7,0.4-3.5,0.9-5.1c0.8-2.6,2.6-4.2,5.4-4.4c5-0.4,8.9,1.5,10.8,6c0.5,1.3,1,2.5,1.3,3.9c0.9,4.2,1.7,8.5,2.4,12.8
			c0.6,3.6,0.7,7.2,0,10.7c-0.1,0.5,0,1,0,1.4c2.9,0.6,11,0.8,15.1,0.4c1.5-5.1,2.9-10.3,4.1-15.6c0.7-3,1.4-6,2.3-9
			c0.6-1.9,1.5-3.7,2.4-5.4c0.7-1.2,1.6-2.2,2.6-3.1c2.8-2.4,6.5-1.9,8.9,0.9c1.2,1.5,1.9,3.1,2.4,5c1.1,4.7,1,9.4,0.3,14.1
			c-1.1,7.2-2.5,14.4-3.7,21.6c-2.1,12.8-4.2,25.7-6.1,38.5c-0.8,5.1-1,10.4-1.4,15.6c-0.1,0.7-0.1,1.5-0.2,2.2
			c-0.1,1.2-0.9,1.8-1.9,2.1c-2.4,0.5-4.8,1.1-7.3,1.2c-7.9,0.4-15.9,0.7-23.8,0.8c-13.4,0.2-26.8,0-40.2-0.9
			c-13.6-0.9-27.1-2.6-40.5-5.4c-4.4-0.9-8.8-1.6-13.1-2.7c-2.5-0.6-4.9-1.6-7.3-2.8c-4.2-2-6.8-5.4-7.2-10.1
			c-0.2-2.7-0.2-5.4-0.1-8.2c0.1-3.1,0.4-6.2,0.5-9.3c0.2-14.5,1.2-29,2.8-43.4c0.4-3.2,0.6-6.4,1-9.6c0.3-2.5,1.5-4.7,3.5-6.4
			c2.3-2.1,6.5-2.6,8.8,0.6c1.3,1.8,2.4,3.7,3.3,5.8c2.4,5.3,3.8,11,5.1,16.7c0.6,2.6,1.2,5.3,1.8,7.8c3.1,0.4,12.6,0.2,16.6-0.5
			c-0.1-0.6-0.2-1.1-0.3-1.7c-1.3-5.3-1.8-10.7-1.9-16.2c-0.1-4.3,1.5-7.7,4.7-10.4c0.9-0.8,2-1.5,2.9-2.3c1-0.9,2.3-0.9,3.5-0.9
			c1.1,0.1,1.9,0.6,2.4,1.6c0.2,0.4,0.4,0.9,0.6,1.4c3.4,9.1,5.8,18.4,6.2,28.2c2.3,0.2,4.6,0.1,7.1-0.1c0-0.8,0.1-1.4,0.1-2
			c-0.2-8.2-0.5-16.4-0.7-24.5c0-1.5,0.1-3,0.3-4.4c0.4-1.9,1.5-2.7,3.3-2.9c4.1-0.4,7.5,1.1,10.2,4.2c1.6,1.9,2.7,4.1,3.5,6.5
			c1.7,5.5,2.1,11.2,1.8,16.9C193.5,117.2,193.3,119.1,193.2,121.3"/>
		<path class="st5" d="M147.3,239c1.4-0.1,2-0.1,2.6-0.2c1.5-0.3,2.1-2,1-3.1c-0.6-0.6-1.4-1.1-2.1-1.2c-1.3-0.2-2.7-0.1-4-0.1
			c-0.9,0-1.6,0.5-1.9,1.4c-0.3,0.9,0.2,1.8,1.4,2.3C145.4,238.6,146.8,238.8,147.3,239 M144.7,226.8c-1.1,0.2-1.8,0.3-2.5,0.5
			c-0.9,0.3-1,1.6-0.3,2.1c0.5,0.4,1,0.7,1.6,0.9c1.9,0.6,3.7,1.2,5.6,1.7c1.1,0.3,2-0.3,2.3-1.3c0.3-1,0-2.1-1.1-2.4
			C148.4,227.7,146.4,227.3,144.7,226.8 M149.6,242.1c-1.5,0.2-2.7,1.9-2.3,3.1c0.8,1.8,1.7,3.5,2.6,5.3c0.5,1,1.5,1.3,2.5,1
			c0.9-0.3,1.7-1.3,1.3-2.3c-0.6-2-1.4-3.9-2.3-5.8C151.1,242.7,150.1,242.4,149.6,242.1 M200.4,227.5c-1,0.1-1.8,0.3-2.7,0.3
			c-3.5,0-6.9,0.1-10.4,0c-1.7-0.1-3.4-0.5-5.1-0.7c-1.8-0.1-3.7-0.4-5.5-0.6c-4.3-0.6-8.4-1.9-12.6-2.9c-4.9-1.2-9.8-2.5-14.7-3.6
			c-1.2-0.3-2.4-0.3-3.7-0.4c-0.7,0-1.4,0.2-1.4,0.9c0,0.5,0.3,1.3,0.7,1.6c1.3,0.9,2.7,1.8,4.1,2.6c5.9,3.2,12.2,5.4,18.7,6.8
			c5.9,1.3,11.8,2.4,17.9,2.3c1,0,2,0.1,2.9,0.3c2.3,0.5,4.6,0.6,7-0.1c1.2-0.4,2.4-0.4,3.9,0c-0.1,0.6-0.1,1.2-0.2,1.7
			c-1.2,4.7-2.4,9.3-3.7,14c-0.7,2.7-1.6,5.5-2.2,8.2c-0.8,3.4-0.2,6.6,1.4,9.7c1.2,2.3,2.2,4.7,2.9,7.2c0.5,2,0.7,3.9,0.7,5.9
			c0,2.1,0.1,4.2-0.1,6.3c-0.1,1.1-0.3,2.2-0.8,3.2c-0.3,0.6-1,1.3-1.6,1.4c-3.3,0.7-6.4,1.8-9.8,1.7c-1.1,0-2.2,0.1-3.3,0.3
			c-2.6,0.5-5.1,0.6-7.7,0c-0.7-0.2-1.5-0.3-2.2-0.3c-5.6-0.1-10.9-1.7-16.2-3.7c-2.7-1-5.3-2.1-7.6-3.8c-0.9-0.6-2-0.9-3.3-1.5
			c0,0.9-0.2,1.5,0,2c0.8,2.1,2.3,3.5,4.1,4.7c3.6,2.6,7.6,4.5,12.1,5.4c2.7,0.6,5.3,1,8,1.4c6.3,1.1,12.6,0.4,18.9,0.6
			c1.1,0,2.2-0.3,3.3-0.5c1-0.2,2-0.4,3.1,0.3c-0.1,0.5-0.2,1.1-0.5,1.6c-1,2-2,4-3,6c-0.8,1.6-2,2.5-3.9,2.3c-0.5,0-1,0-1.5,0
			c-3.2-0.4-6.3-0.9-9.5-1.3c-0.9-0.1-1.7-0.1-2.6-0.2c-2.2-0.1-4.4-0.1-6.6-0.6c-2-0.4-4.2-0.2-6.3-0.2c-5.4,0.1-10.5-1.1-15.5-3.1
			c-2.7-1.1-4.8-3-6.6-5.3c-1.1-1.4-1.4-3.1-0.8-4.9c1.2-4.1,3.6-7.3,7-9.7c2-1.5,3.7-3.2,5-5.4c2.3-3.9,2.3-8,1-12.2
			c-1.2-4.1-3.2-7.7-5.3-11.4c-3.4-5.8-6.6-11.6-9.1-17.8c-2.8-7.1,0-16.7,6.2-21.3c1.1-0.8,2.4-1.4,3.6-1.8
			c2.7-0.8,5.5-1.3,8.3-1.7c4.3-0.7,8.6-0.2,12.9-1.3c0.9-0.2,2-0.1,3-0.1c1.2-0.1,2.4-0.3,3.7-0.4c0.4-0.1,0.7-0.2,1.1-0.2
			c5.1-0.3,10.1-0.5,15.2-0.8c2.3-0.2,3.9,0.8,4.9,2.6c1.7,2.9,3.3,5.8,4.2,9C201,222.5,200.8,224.9,200.4,227.5"/>
		<path class="st6" d="M212.2,284.5c-2.7,1.7-5.2,3.3-8.2,4.3c0-0.7-0.1-1.2,0-1.7c0.9-7.5-0.3-14.6-3.8-21.2c-1.7-3.2-2-6.2-1-9.6
			c1.7-5.8,3.3-11.7,4.9-17.5c0.5-2,1-4.1,1.4-6.1c3-0.9,5.8-1.6,8.6-2.5c2.8-0.9,5.5-2.1,8.5-3.2c0.5,2.2,0.3,4.2,0.2,6.1
			c-0.7,8.1-3,15.8-6.1,23.2c-1.1,2.6-2.2,5.2-3.3,7.9c-1.9,4.9-2.6,10-1.7,15.3C211.9,281,212,282.6,212.2,284.5"/>
		<path class="st5" d="M226.3,212.1c4.4,1.6,8.1,3.5,10.7,6.9c3.2,4.2,4.6,9,3.8,14.3c-0.4,2.3-2,4-3.4,5.7c-1,1.1-2.1,2.1-3.1,3.2
			c-4.3,4.4-6.5,9.7-7.6,15.8c-0.7,3.8-0.6,7.6-0.7,11.5c0,3.6,0,7.2,0,10.8c0,1.5,0,2.9-1,4.2c-1,1.3-0.5,2.8,0.4,3.8
			c2.1,2.2,3.4,5.2,6.2,6.8c2.5,1.5,3.9,3.9,3.2,6.9c-0.5,2.3-1.7,4.5-3.7,5.8c-3.4,2.2-7.1,3.3-11.4,2.3c0-0.6,0-1.2,0-1.8
			c0.1-1.1,0.4-2.2,0.4-3.3c0.1-3.3,0-6.7,0-10c0-1,0-2-0.3-2.9c-0.8-2.5-0.5-4.5,1.6-6.4c1.5-1.4,0.8-4.1-1.1-4.8
			c-0.5-0.2-1.2,0-1.9,0c-1.5-2.1-1.4-4.7-1-7c0.5-3.3,1.3-6.5,2.8-9.5c3.4-7,6.4-14.2,8-21.9c0.6-2.9,1.2-5.8,1.1-8.8
			c-0.1-2.3,0-4.7,0-7.1c0-1.5,0-2.9,0.5-4.4c0.7-2.1,0.2-4.2-1.4-5.9C227.2,215.1,226.3,214.2,226.3,212.1"/>
		<path class="st6" d="M206,226.7c0-6.3-1.8-11.8-5.3-16.9c3-1,13.2-0.6,17.4,0.6c1.2,2.8,2.4,5.8,3.1,8.9c-0.9,1.7-2.5,2.5-4,3.3
			C213.7,224.4,210.1,225.8,206,226.7"/>
		<path class="st6" d="M197.3,308.5c1.8-4.5,3.6-8.7,5.3-13c3.4-1.4,6.9-2.8,10.6-4.2c0.3,0.8,0.7,1.5,0.7,2.2
			c0.1,4.1,0.2,8.1,0.2,12.2c0,0.4-0.1,0.7-0.1,1.1c-0.5,2.5-1.7,3.6-4.3,3.7C205.6,310.6,201.7,309.9,197.3,308.5"/>
		<path class="st6" d="M142.2,136.1c2.2-1,4.2-0.3,6.1,0.5c0.9,0.4,1.6,1.5,2.3,2.3c0.2,0.3,0.3,0.7,0.4,1c0.8,3.5,3.2,4.6,6.6,4.6
			c12.5-0.1,25,0,37.6-0.2c3.9-0.1,7.9-0.9,11.8-1.5c2.6-0.4,4.8-1.8,7.1-3.1c1.5-0.9,1.4-2.5,1.9-3.8c1.6-0.7,3.2-0.6,4.8-0.6
			c2.6-0.1,4.7,0.3,5.3,3.3c0.2,0.9,0.9,1.7,1.5,2.5c1.9,2.5,2.6,2.7,5.7,1.8c4.1-1.2,4.2-1.1,5.4-5.5c2.3-8.2,4.4-16.5,6.6-24.8
			c1-3.8,2.1-7.6,3.2-11.5c0.5-1.9,1.7-3.3,3.4-4.2c0.4-0.2,0.9-0.1,1.4-0.2c0.2,0.5,0.4,0.9,0.4,1.2c-0.7,3.6,1,7.1,0.2,10.7
			c-0.8,3.2-1.3,6.6-1.8,9.9c-1,6-2,12-2.9,18c-1.1,6.8-2.3,13.7-3.3,20.5c-0.8,5.1-1.4,10.3-2,15.5c-0.4,3.2-0.7,6.4-1,9.6
			c-0.7,1-1.7,1.5-2.8,1.7c-2.2,0.5-4.3,1.2-6.5,1.4c-10,1-20,1.1-30.1,0.4c-1.4-0.1-2.7-0.1-4.1-0.2c-9.5-0.6-19.1-1-28.6-1.8
			c-8.9-0.7-17.7-1.8-26.6-2.9c-6-0.8-12-2.1-17.6-4.3c-4-1.6-7.5-3.8-10.6-6.8c-1.6-1.5-2.5-3.3-2.4-5.6c0.2-7.9,0.3-15.9,0.5-23.8
			c0.2-6.8,0.7-13.6,0.8-20.4c0.1-5.9,0.9-11.6,2.3-17.3c0.3-1.3,0.7-2.6,1.8-3.6c1-0.9,2.2-0.7,2.7,0.5c0.4,0.9,0.6,1.9,0.9,2.8
			c1.7,7.5,3.4,15,4.9,22.5c0.5,2.4,0.6,4.9,1,7.4c0.2,1.7,0.5,3.4,0.9,5.1c0.5,2,1.5,3.7,3,5c2.8,2.6,6.8,1.8,8.3-1.7
			C141.4,139.2,141.7,137.6,142.2,136.1"/>
		<path class="st7" d="M207.9,121.2c-1.5-9.2-1.4-18.4-1.2-27.7c3.4,0.2,5.7,1.6,6.4,4.3c1.7,6.7,3.4,13.4,3.1,20.4
			c0,0.7-0.1,1.5-0.2,2.2c0,0.2-0.2,0.4-0.4,0.8C213.1,121.7,210.6,121.6,207.9,121.2"/>
		<path class="st8" d="M182,92.4c1.6,1.3,2.3,3,3,4.6c1.3,3.2,2.3,6.6,2.8,10c0.6,4.2,1.1,8.3,0.9,12.6c0,0.5-0.2,1-0.2,1.4
			c-2.8,0.8-3.2,0.8-6.5,0.1c-0.1-1.8-0.4-3.6-0.4-5.4c-0.2-4.4-0.1-8.9-0.8-13.3c-0.3-2.1-0.2-4.2-0.2-6.3
			C180.6,94.7,180.8,93.5,182,92.4"/>
		<path class="st7" d="M163.3,121.9c-1.9,0-3.5,0.1-5.1,0.1c-0.6,0-1.2-0.1-1.8-0.1c-0.2-0.5-0.4-0.8-0.4-1.1
			c0.1-4-0.7-7.9-1.2-11.8c-0.4-3-0.5-5.9,1-8.7c0.3-0.6,0.8-1.2,1.3-1.8C159.1,101.3,163.2,116.5,163.3,121.9"/>
		<path class="st3" d="M149.6,242.1c0.5,0.3,1.5,0.6,1.8,1.2c0.9,1.8,1.7,3.8,2.3,5.8c0.3,1-0.4,2-1.3,2.3c-1,0.4-1.9,0.1-2.5-1
			c-0.9-1.7-1.8-3.5-2.6-5.3C146.9,244,148.1,242.2,149.6,242.1"/>
		<path class="st3" d="M144.7,226.8c1.7,0.4,3.7,0.9,5.7,1.5c1,0.3,1.4,1.4,1.1,2.4c-0.3,1-1.2,1.6-2.3,1.3
			c-1.9-0.5-3.8-1.1-5.6-1.7c-0.6-0.2-1.1-0.6-1.6-0.9c-0.8-0.6-0.6-1.8,0.3-2.1C142.9,227.1,143.6,227,144.7,226.8"/>
		<path class="st3" d="M147.3,239c-0.6-0.1-1.9-0.4-3.1-0.8c-1.2-0.5-1.6-1.4-1.4-2.3c0.3-0.9,1-1.4,1.9-1.4c1.3,0,2.7-0.1,4,0.1
			c0.8,0.1,1.6,0.7,2.1,1.2c1.1,1.1,0.5,2.8-1,3.1C149.3,238.9,148.7,238.9,147.3,239"/>
		<g>
			<path class="st3" d="M151.7,166.7c-6.3,0.2-10.6-3.6-10.6-6.9c-0.1-4.9,4.8-8.7,11-8.6c5.6,0.1,10.7,3.7,10.8,7.7
				C162.9,162.1,159.1,167,151.7,166.7"/>
			<circle class="st6" cx="150.1" cy="157.9" r="3.2"/>
			<path class="st3" d="M141.7,158.5c-1.6,0-4.2-0.2-5.9-1.6c-1-0.9-1.6-2-1.7-3.4c0-0.6,0.4-1.1,1-1.2c0.6-0.1,1.1,0.4,1.2,1
				c0.1,0.8,0.4,1.4,0.9,1.9c1.5,1.3,4.6,1.2,5.7,1.1c0.6-0.1,1.1,0.4,1.2,1s-0.4,1.1-1,1.2C143,158.5,142.5,158.5,141.7,158.5z"/>
			<path class="st3" d="M146.4,155.4c0,0-0.1,0-0.1,0c-0.2,0-4.7-0.7-6.7-3.3c-0.8-1.1-1.1-2.3-0.8-3.7c0.1-0.6,0.7-1,1.3-0.9
				c0.6,0.1,1,0.7,0.9,1.3c-0.1,0.8,0,1.4,0.4,2c1.2,1.6,4.1,2.3,5.2,2.5c0.6,0.1,1,0.6,0.9,1.2C147.4,155,146.9,155.4,146.4,155.4z
				"/>
		</g>
		<g>
			<path class="st3" d="M217.1,166.7c6.3,0.2,10.6-3.6,10.6-6.9c0.1-4.9-4.8-8.7-11-8.6c-5.6,0.1-10.7,3.7-10.8,7.7
				C205.9,162.1,209.6,167,217.1,166.7"/>
			<circle class="st6" cx="218.7" cy="157.9" r="3.2"/>
			<path class="st3" d="M227.1,158.5c-0.8,0-1.4-0.1-1.4-0.1c-0.6-0.1-1-0.6-1-1.2c0.1-0.6,0.6-1,1.2-1c1,0.1,4.1,0.2,5.6-1.1
				c0.6-0.5,0.9-1.1,0.9-1.8c0-0.6,0.6-1.1,1.2-1c0.6,0,1.1,0.6,1,1.2c-0.1,1.4-0.7,2.5-1.7,3.4
				C231.3,158.3,228.7,158.5,227.1,158.5z"/>
			<path class="st3" d="M222.4,155.4c-0.5,0-1-0.4-1.1-0.9c-0.1-0.6,0.3-1.1,0.9-1.2c1.1-0.1,4-0.9,5.2-2.5c0.4-0.6,0.6-1.3,0.4-2
				c-0.1-0.6,0.3-1.2,0.9-1.3c0.6-0.1,1.2,0.3,1.3,0.9c0.2,1.4,0,2.6-0.8,3.7c-2,2.7-6.5,3.3-6.7,3.3
				C222.5,155.4,222.4,155.4,222.4,155.4z"/>
		</g>
		<path class="st9" d="M171.4,164.2c0.3,13.3,20.6,16.9,23.5,0.4C194.8,164.6,185.8,171.4,171.4,164.2z"/>
		<ellipse class="st10" cx="144.3" cy="172.3" rx="7.8" ry="3.4"/>
		<ellipse class="st10" cx="224" cy="172.8" rx="7.8" ry="3.4"/>
	</g>
</g>
<g>
	<g>
		<path class="st11" d="M361.3,276.2c12.4-24.9,19.4-52.9,19.4-82.6c0-102.4-83.1-185.5-185.5-185.5S9.6,91.2,9.6,193.6
			s83.1,185.5,185.5,185.5c37.9,0,73.1-11.4,102.5-30.9c6.6,24.4,29,42.4,55.5,42.4c31.8,0,57.5-25.7,57.5-57.5
			C410.6,304.1,389.2,280.1,361.3,276.2z M195.1,354.6c-88.9,0-161-72.1-161-161s72.1-161,161-161s161,72.1,161,161
			S284,354.6,195.1,354.6z M353.1,373.6c-22.4,0-40.5-18.1-40.5-40.5s18.1-40.5,40.5-40.5s40.5,18.1,40.5,40.5
			S375.5,373.6,353.1,373.6z"/>
	</g>
</g>
<g class="st12">
	<path class="st13" d="M214.1,336.6c-88.9,0-161-72.1-161-161c0-41.3,15.6-79,41.2-107.5c-36.7,29.5-60.2,74.8-60.2,125.5
		c0,88.9,72.1,161,161,161c47.6,0,90.4-20.7,119.8-53.5C287.4,323.3,252.3,336.6,214.1,336.6z"/>
</g>
<g class="st14">
	<path class="st6" d="M182.1,50.6c88.9,0,161,72.1,161,161c0,31.2-8.9,60.3-24.2,85c23.2-27.9,37.2-63.8,37.2-103
		c0-88.9-72.1-161-161-161c-57.7,0-108.4,30.4-136.8,76C87.9,73.2,132.4,50.6,182.1,50.6z"/>
</g>
<g>
	<circle class="st6" cx="353.1" cy="333.1" r="40.5"/>
	<g>
		<path class="st13" d="M391.1,333.1c-0.1,15.7-10,30.3-24.9,35.7c-15.1,5.5-32.2,0.8-42.5-11.6c-10.2-12.2-11.3-30.2-3.1-43.7
			c8.2-13.6,24.5-20.8,40.1-17.6c15.4,3.2,27.4,15.8,30,31.3C391,329.2,391.1,331.1,391.1,333.1c0,3.2,5,3.2,5,0
			c-0.1-18-11.4-34.2-28.3-40.4c-16.8-6.2-36.4-0.9-47.8,12.9c-11.5,14-13.2,34.1-3.8,49.7c9.3,15.5,27.7,23.5,45.4,20
			c17.2-3.4,31.2-17.9,33.9-35.2c0.4-2.3,0.6-4.6,0.6-6.9C396.1,329.9,391.1,329.9,391.1,333.1z"/>
	</g>
</g>
<g>
	<path class="st15" d="M188.1,20.1c102.4,0,181.5,75.1,181.5,177.5c0,36.9-2.5,44.5-8.5,78.5c13-35,19.5-37.1,19.5-82.5
		c0-102.4-83.1-185.5-185.5-185.5C129.6,8.1,72,42.1,39,93.5C73,52.9,131,20.1,188.1,20.1z"/>
</g>
<g>
	<path class="st16" d="M200.1,366.1C97.7,366.1,15.6,283,15.6,180.6c0-34,10.1-65.8,27.4-93.2C22,117.5,9.6,154.1,9.6,193.6
		c0,102.4,83.1,185.5,185.5,185.5c34.1,0,66.1-9.2,93.6-25.3C264.4,361.9,227.7,366.1,200.1,366.1z"/>
</g>
<g class="st12">
	<path class="st13" d="M359.1,364.6c-22.4,0-40.5-18.1-40.5-40.5c0-6.4,1.5-12.4,4.1-17.7c-6.3,7.1-10.1,16.5-10.1,26.7
		c0,22.4,18.1,40.5,40.5,40.5c16,0,29.9-9.3,36.4-22.8C382.1,359.3,371.3,364.6,359.1,364.6z"/>
</g>
<g>
	<g>
		<path class="st17" d="M341.3,345.5c0.1,0.3,0.1,0.7,0.2,1c0.1,0.7,0.1,1.3,0.7,1.7c0.6,0.4,1.2,0.2,1.8,0c0.5-0.2,1-0.3,1.5-0.2
			l20.1-30.1l-4.1-2.7L341.3,345.5z"/>
	</g>
	<polygon class="st18" points="360.4,309.4 362.9,305.6 360.4,309.4 	"/>
	<path class="st19" d="M366.6,307.6l-2.7,4l4.1,2.7l2-3c1.2-1.7,3.1-3.6,1.4-4.8l1.3,0.8l-1.6-1
		C369.2,305.3,367.7,305.9,366.6,307.6z"/>
	<path class="st18" d="M368.2,304.6c-1.7-1.2-4.1-0.7-5.2,1C364.1,303.9,366.4,303.4,368.2,304.6z"/>
	<polygon class="st20" points="360.4,309.4 360.4,309.4 360.4,309.4 360.4,309.4 	"/>
	<path class="st20" d="M360.4,309.4l-1.6,2.4L360.4,309.4z"/>
	<path class="st20" d="M368.8,319.9l1.2-1.9L368.8,319.9z"/>
	<path class="st21" d="M340.3,347.3l-0.8-0.1l-4.9,10.6l8.9-6.8l0.3-0.3l1.6-2.5c-0.4-0.1-0.9,0.1-1.3,0.2c-0.7,0.2-1.3,0.4-2,0
		s-0.7-1.1-0.8-1.8c0-0.3-0.1-0.6-0.1-0.9l-0.6,0.8C340.4,346.7,340.3,347,340.3,347.3z"/>
	<path class="st20" d="M344,348.2c-0.6,0.2-1.2,0.4-1.8,0c-0.6-0.4-0.7-1-0.7-1.7c0-0.4-0.1-0.7-0.2-1l-0.1,0.1
		c0.3,0.9,0,2.1,0.9,2.7c1.1,0.7,2.2-0.4,3.3-0.2l0.1-0.1C345,347.9,344.5,348.1,344,348.2z"/>
	<path class="st20" d="M342.1,348.3c-1-0.6-0.6-1.8-0.9-2.7l-0.1,0.1c0.1,0.3,0.1,0.6,0.1,0.9C341.3,347.2,341.4,347.9,342.1,348.3
		c0.6,0.5,1.3,0.3,1.9,0.1c0.4-0.1,0.9-0.3,1.3-0.2l0.1-0.1C344.3,347.9,343.2,349,342.1,348.3z"/>
	<path class="st20" d="M371,306.5l-2.8-1.9L371,306.5z"/>
	<path class="st22" d="M338.4,344.8c0.7-0.3,1.3-0.7,2.1-0.3c0.4,0.2,0.6,0.6,0.8,0.9l20.2-30.3l-3.4-2.3l-21.3,32l-0.1,0.3l0,0
		C337.3,345.4,337.8,345.1,338.4,344.8z"/>
	<path class="st23" d="M363.9,311.7l2.7-4c1.2-1.7,2.7-2.3,4.4-1.2l-2.8-1.9c-1.7-1.2-4.1-0.7-5.2,1l-2.5,3.8L363.9,311.7z"/>
	
		<rect x="359.1" y="310.3" transform="matrix(0.5552 -0.8317 0.8317 0.5552 -99.1314 439.1689)" class="st24" width="3.9" height="4"/>
	<path class="st20" d="M340.5,344.7c0.4,0.2,0.6,0.6,0.7,0.9l0.1-0.1C341.2,345.1,340.9,344.8,340.5,344.7c-0.8-0.5-1.5-0.2-2.1,0.2
		c-0.6,0.3-1.1,0.6-1.7,0.3l0,0v0.1C338,345.8,339,343.9,340.5,344.7z"/>
	<polygon class="st6" points="371.1,316.5 371.1,316.5 373.6,312.7 	"/>
	<path class="st25" d="M365.6,317.9L345.5,348c0.2,0,0.5,0.1,0.7,0.3c0.7,0.6,0.7,1.4,0.6,2.1c-0.1,0.6-0.1,1.2,0.3,1.7l0,0l0.3-0.2
		l21.3-32l0,0L365.6,317.9z"/>
	<path class="st26" d="M369.9,311.4l-2,3l3.1,2.1l2.5-3.8c1.2-1.7,0.7-4.1-1-5.2l-1.3-0.8C373,307.8,371.1,309.7,369.9,311.4z"/>
	
		<rect x="366.4" y="315.3" transform="matrix(0.5553 -0.8317 0.8317 0.5553 -99.921 447.3256)" class="st27" width="3.9" height="3.6"/>
	<path class="st28" d="M343.4,350.9l-8.9,6.8l-2,4.2c0.1,0.1,0.2,0.2,0.3,0.3c0.3,0.2,0.7,0.3,1.1,0l13-10c-0.4-0.5-0.4-1.2-0.3-1.8
		c0.1-0.7,0.1-1.4-0.5-1.9c-0.2-0.2-0.5-0.3-0.7-0.3l-1.6,2.5L343.4,350.9z"/>
	<path class="st6" d="M346.8,350.4c0.1-0.7,0.1-1.5-0.6-2.1c-0.2-0.2-0.5-0.3-0.7-0.3l-0.1,0.1c0.2,0,0.5,0.1,0.7,0.3
		c1.3,1.1-0.1,2.7,0.9,3.8l0.1-0.1l0,0C346.7,351.7,346.7,351.1,346.8,350.4z"/>
	<path class="st29" d="M340.4,344.7c-0.7-0.4-1.3-0.1-2,0.3c-0.5,0.3-1.1,0.6-1.8,0.4l-4.3,15.8c0,0.1,0,0.3,0,0.4s0.1,0.3,0.2,0.4
		l2-4.2l4.2-7.6l1.6-2.8c0.1-0.3,0.2-0.5,0.4-0.8l0.6-0.8C341.1,345.3,340.9,345,340.4,344.7z"/>
	
		<rect x="362.8" y="312.3" transform="matrix(0.5553 -0.8317 0.8317 0.5553 -99.5672 443.3284)" class="st30" width="3.9" height="4.9"/>
	<g>
		<g>
			<path class="st13" d="M373.3,306.2c-1.5-1-2.9-2-4.4-2.9c-1.7-1.1-3.8-1.1-5.5-0.1c-1.1,0.7-1.7,1.7-2.4,2.7
				c-0.6,0.9-1.2,1.8-1.8,2.7c-0.5,0.7-0.1,1.6,0.5,2.1c2.6,1.8,5.3,3.5,7.9,5.3c0.9,0.6,1.8,1.2,2.7,1.8c0.7,0.5,1.6,0.1,2.1-0.5
				c0.8-1.2,1.6-2.4,2.4-3.6C376.4,311.1,375.7,307.9,373.3,306.2c-0.7-0.5-1.7-0.1-2.1,0.5c-0.4,0.7-0.1,1.6,0.5,2.1
				c0.3,0.2,0.6,0.6,0.8,1c0.1,0.2,0.2,0.8,0.1,1c-0.1,0.6-0.4,1.1-0.8,1.6c-0.7,1.1-1.4,2.2-2.2,3.2c0.7-0.2,1.4-0.4,2.1-0.5
				c-2.7-1.8-5.3-3.6-8-5.3c-0.9-0.6-1.8-1.2-2.6-1.8c0.2,0.7,0.4,1.4,0.5,2.1c0.5-0.7,0.9-1.4,1.4-2c0.4-0.6,0.9-1.5,1.4-2
				c0.8-0.8,1.9-0.9,3-0.2c0.8,0.5,1.6,1.1,2.4,1.6c0.6,0.4,1.3,0.9,1.9,1.3c0.7,0.4,1.7,0.1,2.1-0.5
				C374.3,307.5,374,306.7,373.3,306.2z"/>
		</g>
	</g>
	<g>
		<g>
			<path class="st13" d="M368.7,313.2c-2.5-1.7-5-3.4-7.5-5c-0.7-0.5-1.6-0.1-2.1,0.5c-1,1.5-2.1,3-3.1,4.5
				c-0.5,0.7-0.1,1.6,0.5,2.1c2.7,1.8,5.3,3.6,8,5.3c0.9,0.6,1.7,1.2,2.6,1.7c0.7,0.5,1.6,0.1,2.1-0.5c1-1.5,2.1-3,3.1-4.5
				c0.5-0.7,0.1-1.6-0.5-2.1C370.7,314.6,369.7,313.9,368.7,313.2c-1.6-1.1-3.1,1.5-1.5,2.6c1,0.7,2.1,1.4,3.1,2.1
				c-0.2-0.7-0.4-1.4-0.5-2.1c-1,1.5-2.1,3-3.1,4.5c0.7-0.2,1.4-0.4,2.1-0.5c-2.7-1.8-5.3-3.6-8-5.3c-0.9-0.6-1.7-1.2-2.6-1.8
				c0.2,0.7,0.4,1.4,0.5,2.1c1-1.5,2.1-3,3.1-4.5c-0.7,0.2-1.4,0.4-2.1,0.5c2.5,1.7,5,3.4,7.5,5
				C368.8,316.9,370.3,314.3,368.7,313.2z"/>
		</g>
	</g>
	<g>
		<g>
			<path class="st13" d="M365.5,317.9c-2.5-1.7-5-3.3-7.5-5c-0.7-0.5-1.6-0.1-2.1,0.5c-6.1,9.1-12.1,18.2-18.2,27.3
				c-0.8,1.2-2.1,2.6-2.5,4.1c-0.2,0.8,0.3,1.6,1,1.8c0.6,0.2,1.3,0.1,1.8,0c0.4-0.1,1.5-0.9,1.8-0.6s0.1,1.3,0.3,1.7
				c0.2,0.7,0.6,1.3,1.1,1.7c0.6,0.4,1.3,0.6,2,0.5c0.4,0,1.7-0.7,2-0.3c0.2,0.2-0.1,1.6,0,1.9c0.1,0.6,0.3,1.2,0.8,1.7
				c0.4,0.4,1.3,0.6,1.8,0.2c1.1-0.8,1.8-2.2,2.5-3.3c1.6-2.4,3.2-4.9,4.9-7.3c3.7-5.6,7.5-11.2,11.2-16.9c0.9-1.3,1.8-2.6,2.6-4
				c0.5-0.7,0.1-1.6-0.5-2.1C367.5,319.3,366.5,318.6,365.5,317.9c-1.6-1.1-3.1,1.5-1.5,2.6c1,0.7,2.1,1.4,3.1,2.1
				c-0.2-0.7-0.4-1.4-0.5-2.1c-6,9-12,18.1-18.1,27.1c-0.6,0.9-1.2,1.7-1.7,2.6c-0.2,0.2-0.3,0.5-0.5,0.7c-0.4,0.7,0.7-0.5,0.1-0.1
				c0.6,0.1,1.2,0.2,1.8,0.2c0.1,0.2,0.1-0.6,0.1-0.8c0-0.3,0-0.6,0-1c-0.1-0.8-0.4-1.5-1-2s-1.3-0.8-2.1-0.8
				c-0.4,0-1.9,0.5-2.1,0.4c-0.1-0.1-0.1-0.7-0.1-0.9c-0.1-0.4-0.1-0.8-0.3-1.2c-0.3-0.6-0.7-1.1-1.3-1.5c-0.7-0.4-1.5-0.5-2.3-0.3
				c-0.4,0.1-1.6,0.9-1.9,0.8c0.3,0.6,0.7,1.2,1,1.8c0.2-0.6-0.2,0.3,0-0.1c0.1-0.2,0.2-0.4,0.4-0.6c0.5-0.7,1-1.5,1.4-2.2
				c1.6-2.4,3.2-4.8,4.8-7.3c3.7-5.6,7.4-11.1,11.1-16.7c0.8-1.3,1.7-2.5,2.5-3.8c-0.7,0.2-1.4,0.4-2.1,0.5c2.5,1.7,5,3.3,7.5,5
				C365.6,321.6,367.1,319,365.5,317.9z"/>
		</g>
	</g>
	<g>
		<g>
			<path class="st13" d="M348.1,350.4c0.1-1.6-0.5-3.1-2.1-3.6c-0.7-0.2-1.4-0.1-2.1,0.1c-0.4,0.1-0.9,0.4-1.1,0.2
				c-0.1-0.2-0.1-0.6-0.1-0.8c0-0.4-0.1-0.8-0.2-1.2c-0.2-0.7-0.7-1.3-1.3-1.6c-0.7-0.4-1.6-0.5-2.4-0.2c-0.4,0.1-1.3,0.8-1.7,0.7
				c-0.8-0.2-1.6,0.2-1.8,1c-1.3,4.9-2.6,9.8-3.9,14.7c-0.3,0.9-0.6,1.9-0.1,2.9c0.8,1.6,2.6,1.6,3.9,0.6c2.2-1.7,4.4-3.4,6.6-5.1
				c2-1.5,4-3,5.9-4.6c0.6-0.5,1-1.3,0.5-2.1C348,351.1,348.1,350.8,348.1,350.4c0.2-1.9-2.8-1.9-3,0c-0.1,0.9,0,1.8,0.5,2.5
				c0.2-0.7,0.4-1.4,0.5-2.1c-3.8,2.9-7.6,5.9-11.5,8.8c-0.3,0.3-0.7,0.5-1,0.8c-0.1,0.1-0.5,0.3-0.5,0.4c0.1-0.4,1,0.5,0.7,0.7
				c0,0,0-0.2,0.1-0.2c0.1-0.3,0.2-0.6,0.2-0.9c0.7-2.7,1.5-5.4,2.2-8.1c0.6-2.2,1.2-4.4,1.8-6.6c-0.6,0.3-1.2,0.7-1.8,1
				c0.7,0.1,1.4,0.1,2.1-0.2c0.4-0.1,1-0.7,1.4-0.6c-0.3,0,0,0.6,0,0.8c0.1,0.6,0.2,1.2,0.5,1.7c0.7,1.2,2.1,1.7,3.4,1.4
				c0.3-0.1,1.1-0.5,1.4-0.4c0,0-0.1-0.1,0,0s0,0.6,0,0.7C344.9,352.3,347.9,352.3,348.1,350.4z"/>
		</g>
	</g>
	<g>
		<g>
			<path class="st13" d="M332.5,361.2c0,0.1,0,0.3,0,0.4s0.1,0.3,0.2,0.4s0.2,0.2,0.3,0.3c0.3,0.2,0.7,0.3,1.1,0l6.3-4.8
				c-1.7-1.5-3.7-2.7-5.8-3.3L332.5,361.2z"/>
		</g>
	</g>
</g>
<g>
	<path class="st16" d="M296.7,346.2c6.6,24.4,29,42.4,55.5,42.4c16,0,30.4-6.5,40.8-17c-9.5,6.9-21.2,11-33.8,11
		c-26.5,0-48.8-18-55.5-42.4L296.7,346.2z"/>
</g>
<g>
	<g>
		<path class="st15" d="M344.9,280.7"/>
	</g>
	<g>
		<path class="st15" d="M346.7,280.6c20.9-0.7,41,11,50.1,31.3c9.5,21.1,4,45-11.8,60.1c21.2-13,29.9-40,19.4-63.3
			C394.4,286.3,369.8,274.9,346.7,280.6z"/>
	</g>
</g>
<g>
	<g>
		<path class="st13" d="M363.4,277.5c18.4-37.1,24.1-79.8,16.1-120.4c-6.5-32.9-22-63.7-44.3-88.7c-22.2-24.8-50.9-43.5-82.6-53.7
			C219.4,4,183.3,2.9,149.4,11.3C117,19.4,87,36.3,63.2,59.7S22,112.8,13.4,145c-9,33.5-8.5,69.5,1.5,102.7
			c9.6,32.1,27.9,61.4,52.5,84.1s55.1,38.7,87.8,45.7c39.1,8.4,80.4,4.1,116.9-12.3c9.3-4.2,18.2-9.1,26.7-14.7
			c-1.2-0.5-2.4-1-3.7-1.5c4.6,16.4,16.1,30.6,31.4,38.1c15.6,7.6,34.1,8.1,50.1,1.3c15-6.4,26.8-18.9,32.5-34.1
			c6.1-16,4.8-34.3-3.3-49.4c-8.9-16.6-25.5-28.3-44.1-31c-1.3-0.2-2.7,0.3-3.1,1.7c-0.3,1.2,0.4,2.9,1.7,3.1
			c15.3,2.2,29.3,10.7,38.1,23.6c8.7,13,11.7,29.3,7.8,44.4c-3.7,14.6-13.5,27.2-26.7,34.6c-13.8,7.7-30.7,8.9-45.5,3.5
			c-16.6-6-29.4-20.2-34.2-37.2c-0.4-1.5-2.3-2.4-3.7-1.5c-34.1,22.6-75.1,33.2-115.9,30c-32.9-2.6-64.8-14.3-91.6-33.4
			c-26.3-18.7-47.4-44.5-60.7-73.9C14.3,238,9.4,203.6,13.6,170.2c4.1-32.5,17.2-63.8,37.5-89.5c20-25.4,46.6-45.5,76.7-57.3
			c31.4-12.4,66.1-15.9,99.4-10c32.2,5.7,62.6,20.1,87.4,41.5c24.5,21.2,43.3,48.7,53.8,79.4c12.2,35.8,13,75.2,2.2,111.6
			c-3,10-6.8,19.7-11.4,29.1C357.7,277.8,362,280.3,363.4,277.5z"/>
	</g>
</g>
<g>
	<g>
		<path class="st13" d="M353.6,193.6c0,16.7-2.6,33.3-7.8,49.1c-4.9,15.2-12.2,29.6-21.5,42.7c-9.1,12.9-20.3,24.5-32.8,34.1
			c-12.7,9.7-26.8,17.5-41.8,23c-15.6,5.7-32,8.9-48.5,9.5c-16.7,0.6-33.4-1.3-49.4-5.9c-15.5-4.4-30.3-11.2-43.8-20
			c-13.2-8.7-25.1-19.4-35.2-31.6s-18.5-26.1-24.5-40.8c-6.2-15.2-10-31.3-11.3-47.6c-1.3-16.8,0-33.7,4-50
			c3.8-15.6,10-30.6,18.4-44.4C67.8,97.9,78.1,85.6,90,75s25.4-19.3,39.8-25.9c14.8-6.7,30.8-11.2,46.9-13
			c16.7-1.9,33.6-1.2,50.1,2.1c15.9,3.2,31.3,8.9,45.4,16.8c13.9,7.7,26.5,17.5,37.5,29s20.3,24.7,27.4,39
			c7.2,14.5,12.2,30.2,14.7,46.2C353,177.3,353.6,185.5,353.6,193.6c0,3.2,5,3.2,5,0c0-17.1-2.7-34.2-7.9-50.4
			c-5.1-15.7-12.6-30.6-22.1-44c-9.6-13.4-21.1-25.4-34.2-35.4s-27.6-18-43.1-23.7c-15.9-5.9-32.8-9.1-49.8-9.8
			c-17.2-0.7-34.5,1.4-51,6c-15.9,4.5-31.1,11.5-45,20.6C91.8,65.9,79.4,77,69,89.6c-10.5,12.8-19,27-25.3,42.3
			c-6.4,15.6-10.3,32.3-11.6,49.1c-1.3,17.2,0.1,34.6,4.1,51.4c3.9,16.1,10.3,31.6,18.9,45.8c8.5,14,19.1,26.8,31.4,37.7
			c12.3,10.9,26.1,19.9,41.1,26.7c15.4,7,31.8,11.5,48.6,13.4c17.2,2,34.7,1.2,51.6-2.2c16.3-3.3,32.1-9.2,46.7-17.3
			c14.3-8,27.5-18.2,38.8-30s20.8-25.4,28.1-40c7.5-15,12.6-31.1,15.1-47.6c1.3-8.3,1.9-16.8,1.9-25.2
			C358.6,190.4,353.6,190.4,353.6,193.6z"/>
	</g>
</g>
</svg>
