<?xml version="1.0" encoding="utf-8"?>
<!-- Generator: Adobe Illustrator 24.2.0, SVG Export Plug-In . SVG Version: 6.00 Build 0)  -->
<svg version="1.1" id="Layer_1" xmlns="http://www.w3.org/2000/svg" xmlns:xlink="http://www.w3.org/1999/xlink" x="0px" y="0px"
	 viewBox="0 0 418 400" style="enable-background:new 0 0 418 400;" xml:space="preserve">
<style type="text/css">
	.st0{fill:#F8DAD4;}
	.st1{fill:#EDEDF0;}
	.st2{fill:#183E41;}
	.st3{fill:#EDC259;}
	.st4{fill:#F0C459;}
	.st5{fill:#EDC257;}
	.st6{fill:#E33845;}
	.st7{fill:#E3BD17;}
	.st8{fill:#663812;}
	.st9{fill:#45B2BD;}
	.st10{fill:#FFFFFF;}
	.st11{fill:#183E42;}
	.st12{fill:none;stroke:#183E42;stroke-width:5.4129;stroke-linecap:round;stroke-linejoin:round;stroke-miterlimit:10;}
	.st13{fill:#7DC4CA;}
	.st14{opacity:0.32;}
	.st15{fill:#1D1D1B;}
	.st16{opacity:0.42;}
	.st17{fill:#D2E8EB;}
	.st18{fill:#42797D;}
	.st19{fill:#F7C402;}
	.st20{fill:#F72872;}
	.st21{fill:#E66869;}
	.st22{fill:#390075;}
	.st23{fill:#FFDA83;}
	.st24{fill:#AA8B12;}
	.st25{fill:#993637;}
	.st26{fill:#729496;}
	.st27{fill:#FDEAAB;}
	.st28{fill:#F5C3C3;}
	.st29{fill:#E7F3F4;}
	.st30{fill:#FFF0D1;}
	.st31{fill:#BFA362;}
	.st32{fill:#C2E1E3;}
</style>
<circle class="st0" cx="196.8" cy="194" r="159.2"/>
<g>
	<g>
		<path class="st1" d="M78.2,140.5c3.6,5.2,8,9.5,12.9,13.3c11.9,9,25.5,13.8,40.1,16c6.1,0.9,12.1,1.3,18.3,1.5
			c3.4-0.1,6.8-0.3,10.1-0.2c2,0,3.7-1.8,2.8-4.4c-0.2-0.5-0.5-1-0.8-1.5c-9-14.1-18.4-27.9-29-40.9c-9-11.1-20.7-17.9-34.1-21.9
			c-3.9-1.2-7.9-1.7-12-0.9c-6.1,1.2-10.7,4.5-13.3,10.2c-2.3,4.9-2.6,9.9-1.4,15.1C73,131.8,75.3,136.3,78.2,140.5z"/>
		<path class="st1" d="M220.2,157.5c-0.3,0.9-0.6,1.8-0.7,2.7c-0.1,1.8,1,3,2.9,3.1c0.7,0,1.5-0.1,2.2-0.3
			c9.8-1.8,19.4-4.3,28.7-8.1c9.7-4,18.7-9.3,26.4-16.5c7.3-6.7,13-14.5,16.8-23.8c1.7-4.3,2.9-8.7,2.8-13.6c0.1-4.7-1-9.2-3.7-13.2
			c-3.9-6-11-9.9-19.6-8c-3.4,0.8-6.6,2.1-9.6,3.9c-4.1,2.4-7.8,5.3-11.4,8.2c-6.7,5.5-12,12.1-15.7,20c-2.2,4.7-4.4,9.3-6.5,14.1
			C228.2,136.5,224,146.9,220.2,157.5z"/>
		<path class="st2" d="M297.6,185.6c-0.5-2.9-1-4.2-1.3-6.1c-0.2-1.1-0.4-2-0.6-2.9c-0.5-2.2-0.9-4.4-1.5-6.6
			c-2.3-7.5-6.8-10.2-13.7-10.1c-4.1,0.1-8,1-11.9,2.2c-5.6,1.7-11.1,3.5-16.6,5.3c-3.3,1.1-6.6,1.5-10,0.9
			c-2.2-0.3-4.4-0.8-6.6-1.2c-4.4-0.8-8.8-1.8-13.3-2.5c-5.5-0.9-11-1.2-16.6-1.2c-0.6,0-1.1-0.1-1.7-0.1c-0.2-0.9-0.4-1.7-0.5-2.6
			c-0.9-7.7-1.6-15.4-1.6-23.1c-0.1-5.4,0.2-10.7,0.3-16.1c0.2-6.5,1-12.9,1.9-19.4c1.3-8.7,3.1-17.4,5.5-25.9
			c1.3-4.7,2.5-9.4,4.5-13.9c0.8-2,1.9-3.9,3.3-5.5c1.3-1.4,2.7-2.5,4.6-3c2.7-0.7,4.8,0.1,6.4,2.3c0.4,0.5,0.7,1.1,0.9,1.7
			c1.4,3.5,1.6,7.1,0.6,10.8c-0.3,1.2-0.9,2.3-1.7,3.2c-1.1,1.1-2.7,1.4-4.2,0.8c-1.1-0.4-1.3-1.8-0.4-2.5c0.4-0.3,1-0.5,1.5-0.8
			c0.5-0.4,1.1-0.8,1.4-1.3c0.5-1.1,0.3-2.2-0.5-3.2c-0.8-0.9-1.8-1.3-3-1c-3,0.8-5.1,3.2-5.6,6.4c-0.4,3.1,0.8,5.9,3.5,7.4
			c2.6,1.5,5.4,1.5,8.1,0.4c3.3-1.3,5.4-3.8,6.4-7.1c1.7-5.4,1.4-10.8-0.9-16c-0.6-1.3-1.5-2.6-2.5-3.7c-2.3-2.6-5.3-3.9-8.8-3.7
			c-3,0.2-5.7,1.3-8,3.1c-2.2,1.7-3.9,3.8-5.2,6.3c-0.8,1.6-1.5,3.2-2.2,4.9c-2,5.1-3.4,10.4-4.7,15.6c-2.5,9.6-4.4,19.2-5.5,29.1
			c-0.5,4.5-0.9,9-1.2,13.5c-0.7,8.8-0.6,17.7,0,26.5c0.3,4.9,0.9,9.7,1.3,14.6c0.1,0.7,0,1.5,0,2.5c-1.5,0.1-2.9,0.5-4.4,0.2
			c-0.4-4.4-0.8-8.7-1.1-13c-0.7-8.9-1.6-17.8-2.8-26.6c-1.7-12.7-4.1-25.2-7.5-37.6c-1.2-4.4-2.6-8.8-4.5-13.1
			c-1.1-2.5-2.4-4.9-4.3-6.9c-1.7-1.9-3.8-3.4-6.2-4.2c-5.4-1.7-11.2,0.1-15,4.6c-4.7,5.7-5,13.9-1.5,19.8c0.6,1,1.4,2,2.3,2.8
			c2.3,2,5,2.5,7.9,1.4c2.5-0.9,4-2.9,4.2-5.5c0.2-2.4-0.8-4.4-2.8-5.7c-1.6-1-3-0.9-4.1,0.3c-1.1,1.2-1.1,2.5,0.2,4
			c0.3,0.3,0.5,0.7,0.9,1.1c-1.3,0.7-2.2,0.3-2.9-0.5c-0.7-0.8-1.2-1.7-1.5-2.7c-1.1-3.3-0.8-6.5,0.8-9.6c0.9-1.7,2.2-3,3.9-3.9
			c2.9-1.5,5.7-1.3,8.2,0.8c1.2,1,2.3,2.3,3.1,3.6c1.2,2.1,2.2,4.4,3,6.6c1.3,3.7,2.4,7.5,3.4,11.3c4.3,15.8,6.8,32,8.4,48.3
			c0.8,8,1.3,15.9,2,23.9c0,0.5,0,1.1,0,1.7c-0.4,0.1-0.8,0.2-1.1,0.3c-6.4,1.1-12.7,2.7-18.8,4.9c-5.8,2-11.3,4.6-16.8,7.3
			c-3.5,1.7-7.1,3.4-10.9,4.6c-4.9,1.6-9.9,2-15,0.9c-2.8-0.6-5.5-1.1-8.3-1.5c-6.6-1-11.8,1.4-15.6,6.8c-1.6,2.3-2.7,4.9-3.4,7.7
			c-0.3,1.2-0.6,2.3-0.9,3.5c-0.3,1.7-0.3,3-0.5,6.1c0.1,1.4,0.1,2.8,0.2,4.1c0.4,4.4,1.4,8.5,3.5,12.4c1.1,2.1,2.5,4,4.3,5.5
			c3.4,2.9,7.2,3.9,11.5,2.9c2.3-0.5,4.5-1.4,6.6-2.5c2.3-1.2,4.4-2.4,6.7-3.6c2.1-1,4.2-2,6.4-2.9c1.9-0.8,4-1,6.1-0.7
			c11.4,1.6,22.8,2.6,34.3,2.8c11.4,0.2,22.7-0.4,34-2.3c11.1-1.9,21.8-4.8,32.2-9.2c3.1-1.3,6.3-2.6,9.4-3.7
			c4.7-1.7,9.7-2.5,14.7-1.9c1.8,0.2,3.5,0.6,5.3,0.9c3.2,0.6,6.5,1.3,9.7,1.7c3.9,0.5,7.7-0.3,11.1-2.3c6.1-3.5,8.3-8.2,7.1-15.1
			C298.4,189.7,298,187.7,297.6,185.6z M134.2,215.4c-3.8,1.1-7.3,3-10.7,4.9c-1.8,1-3.6,1.9-5.5,2.8c-1.6,0.8-3.3,1.4-5.1,1.6
			c-1.9,0.3-3.5-0.2-5-1.4c-1.3-1-2.3-2.2-3.1-3.6c-1.2-2.1-2-4.4-2.5-6.9c-1.1-5.1-1.2-10.2,0.2-15.3c0.6-2.2,1.5-4.2,2.8-6.1
			c2.1-3,5-4.5,8.7-4.3c1.7,0.1,3.4,0.3,5,0.7c4.5,1.1,9,2,14,1.3c0,4.6,0,8.9,0,13.2c0,4.2,0.8,8.4,1.6,12.4
			C134.5,215.2,134.4,215.4,134.2,215.4z M139.5,214.9c-2.7-8.6-2-17.3-1.7-25.9c1.5-0.9,5.5-2.2,7.9-2.7c0.3,9.8,0.7,19.6,2.8,29.4
			C145.3,215.8,142.5,215.1,139.5,214.9z M153.7,216.4c-0.5-1.4-1.1-2.7-1.3-4.1c-0.5-2.9-1-5.7-1.3-8.6c-0.4-3.5-0.6-6.9-0.9-10.4
			c-0.2-3.2-0.2-6.4,0.7-9.6c4.2-2.1,8.5-4.2,13.1-6.1c0.2,0.8,0.4,1.3,0.4,1.9c0.3,3.9,0.5,7.9,0.8,11.8c0.5,6.3,1,12.5,1.5,18.8
			c0.2,2.2,0.2,4.5,0.3,7.1C162.4,217.4,158.1,216.7,153.7,216.4z M170.3,217.5c-0.1-0.5-0.3-1-0.4-1.5c-0.3-4.3-0.4-8.6-0.7-12.9
			c-0.4-5.5-1-11-1.4-16.5c-0.2-3.1-0.2-6.2-0.3-9.3c0-0.3,0.1-0.5,0.2-0.9c3-1.1,6-2.3,9.5-2.8c0.2,0.6,0.4,1.1,0.4,1.6
			c0.2,3.8,0.3,7.7,0.6,11.5c0.6,7.9,1.2,15.7,1.9,23.6c0.2,2.1,0.5,4.1,0.8,6.1c0,0.4,0,0.7,0,1.1
			C178.8,217.9,173.8,218,170.3,217.5z M209.2,213c-0.2,0.7-0.4,1.4-0.7,2.4c-8.1,1.5-16.2,2.1-24.2,2.4c-1.5-5.4-4.2-39.3-3.6-45
			c4.5-1.9,20.8-3.7,26.8-2.9c0.8,1.7,0.8,3.8,1.1,5.7c1,6.1,1.8,12.3,2.1,18.5C211.1,200.4,210.7,206.7,209.2,213z M240.5,206
			c-4,2.2-11.5,4.8-14.3,5c0.5-3.1,1-5.9,1.4-8.8c0.8-6,0.6-12,0.1-18c-0.3-3.8-0.9-7.7-1.3-11.5c0-0.3,0-0.5,0.1-0.7
			c0.1-0.1,0.2-0.2,0.2-0.3c0.1,0,0.2,0,0.3,0c1.1,0.2,2.2,0.4,3.3,0.6c3.6,0.8,7.1,1.6,10.9,2.4C244.3,185.1,244.8,195.6,240.5,206
			z M255.6,196.8c-0.1,0.6-0.4,1.3-0.4,1.9c0.2,2.3-1.3,2.9-3.1,3.2c-1.9,0.3-3.5,1.4-5.4,1.3c-0.1,0.1-0.2,0.1-0.3,0.2
			c0.1-0.1,0.1-0.2,0.2-0.3c0.1-0.7,0.2-1.5,0.3-2.2c0.8-3.8,1.5-7.6,1.3-11.4c-0.2-3.5-0.5-7.1-1.3-10.6c-0.3-1.2-0.4-2.4-0.7-3.7
			c2.9-0.2,5.6-1.2,8.5-0.7c0.2,0.7,0.3,1.5,0.5,2.2c0.6,2.8,1,5.5,1,8.4C256.2,189,256.3,192.9,255.6,196.8z M291.2,199.8
			c-2.3,2.1-4.9,3.4-8.1,3.5c-2.7,0.1-5.2-0.4-7.8-0.9c-2.7-0.6-5.3-1.1-8-1.5c-2-0.3-4.1-0.3-6.2-0.5c-0.5,0-0.9-0.1-1.4-0.1
			c0.3-3.3,0.8-6.4,0.9-9.6c0.1-3.1,0.1-6.2-0.2-9.3c-0.3-3.2-0.9-6.3-1.4-9.6c0.4-0.2,0.7-0.4,1.2-0.6c4.2-1.3,8.4-2.7,12.6-3.9
			c1.9-0.5,3.8-0.9,5.8-1.2c1.3-0.2,2.6-0.2,3.9-0.1c2.5,0.2,4.5,1.5,5.3,3.9c0.6,1.8,1.2,3.6,1.5,5.4c0.9,5.2,2,10.3,3.2,15.4
			c0.3,1.5,0.4,3,0.5,4.5C293.2,197.1,292.5,198.6,291.2,199.8z"/>
		<path class="st2" d="M151,161c0.2,0.1,0.4,0.2,0.6,0.2c-0.1-0.2-0.1-0.4-0.2-0.7c-0.2-0.3-0.3-0.7-0.5-1
			c-6.5-9.8-13.2-19.4-20.5-28.7c-2.4-3-4.9-6-7.7-8.6c-6.9-6.6-15.4-10.7-24.3-13.9c-1.2-0.4-2.5-0.7-3.8-1
			c-2.2-0.5-4.5-0.5-6.7-0.2c-3.9,0.6-6.8,2.7-8.7,6.1c-2.2,3.8-2.5,7.8-1.6,12c0.7,3.1,1.9,5.9,3.5,8.6c3.7,6.2,8.6,11.4,14.4,15.7
			c8.6,6.4,18.2,10.4,28.6,12.9c6.9,1.6,13.9,2.3,20.9,2.7c1.9,0.1,3.8,0,5.6,0c0,0,0.1-0.1,0.1-0.2c-1.4-1.5-8.7-6.6-10.8-7.5
			c-2.6,0.9-5.1,1.8-7.6,2.5c-2.2,0.6-4.4,1-6.7,1c-0.7,0-1.3-0.5-1.4-1.2c-0.1-0.6,0.3-1.4,1-1.6c0.5-0.2,1.1-0.2,1.7-0.3
			c2.9-0.3,5.7-1,8.5-2c0.4-0.2,1-0.2,1.1-0.8c-1.4-1.5-10.4-7.6-12.8-8.7c-1,0.5-2.1,1-3.1,1.7c-2.2,1.4-4.6,2.1-7.1,2.5
			c-1.5,0.2-3,0.4-4.5,0.5c-1.2,0.1-2.4,0.1-3.7,0.1c-0.7,0-1.2-0.6-1.3-1.2c0-0.6,0.4-1.4,1-1.5c0.5-0.1,0.9-0.1,1.4-0.2
			c2.8-0.3,5.6-0.6,8.4-1.1c2.2-0.4,4.2-1.3,6.1-2.9c-0.5-0.4-0.8-0.7-1.2-1c-4.8-3.2-9.5-6.4-14.3-9.6c-1.2-0.8-2.3-1.1-3.7-1.1
			c-4.5,0.1-9-0.5-13.5-1.2c-0.5-0.1-0.9-0.1-1.4-0.3c-0.6-0.2-0.9-0.6-0.9-1.3c0-0.6,0.6-1.3,1.2-1.4c0.4-0.1,0.7-0.1,1.1,0
			c0.9,0.1,1.9,0.2,2.8,0.3c2.4,0.3,4.8,0.5,7.8,0.9c-0.8-0.7-1.2-1.1-1.7-1.4c-3.4-2.2-6.8-4.4-10.1-6.7c-0.6-0.4-1.2-0.8-1.8-1.3
			c-0.5-0.4-0.5-1.2,0-1.8c0.4-0.6,1.1-0.8,1.7-0.5c0.7,0.4,1.3,0.8,1.9,1.2c5.8,3.8,11.6,7.7,17.4,11.5c0.7,0.4,1.4,0.8,2.3,1.4
			c0-0.6,0.1-1,0.1-1.3c-0.4-4-1.4-7.7-2.7-11.5c-0.2-0.7-0.5-1.4-0.7-2.2c-0.1-0.6,0.1-1.1,0.7-1.4c0.6-0.3,1.4-0.2,1.8,0.3
			c0.2,0.2,0.4,0.5,0.4,0.7c1.7,5,3.3,10,3.5,15.3c0,0.8,0.1,1.7,0.1,2.3c7.6,5.5,16,11,17.9,11.6c0-0.5,0.1-0.9,0.1-1.4
			c-0.2-2.8-1-5.5-1.9-8.2c-0.2-0.6-0.5-1.2-0.7-1.9c-0.2-0.8,0.3-1.5,1.1-1.6c0.9-0.1,1.5,0.2,1.9,1.3c1.1,2.6,1.9,5.3,2.3,8.1
			c0.3,2.1,0.5,4.3,0.7,6.4c0.4,0.3,0.7,0.6,1.1,0.8c5,3.5,10.1,6.9,15.1,10.4C150,160.5,150.5,160.7,151,161 M149.5,171.3
			c-6.1-0.2-12.2-0.6-18.3-1.5c-14.6-2.2-28.2-7-40.1-16c-5-3.8-9.4-8.1-12.9-13.3c-2.9-4.2-5.2-8.7-6.3-13.7
			c-1.1-5.2-0.9-10.3,1.4-15.1c2.7-5.7,7.2-8.9,13.3-10.2c4.1-0.8,8.1-0.3,12,0.9c13.4,4.1,25.1,10.9,34.1,21.9
			c10.6,13,20,26.8,29,40.9c0.3,0.5,0.6,1,0.8,1.5c0.9,2.6-0.9,4.4-2.8,4.4C156.3,171.1,152.9,171.2,149.5,171.3"/>
		<path class="st2" d="M275.1,109.1c2.6-0.8,5.2-1.7,7.8-2.5c0.7-0.2,1.4-0.5,2.1-0.7c0.7-0.1,1.3,0.4,1.3,1.1
			c-0.1,0.5-0.3,1.1-0.6,1.5c-0.5,0.4-1.1,0.6-1.8,0.9c-4.1,1.6-8.3,3-12.6,4c-1.2,0.3-2.1,0.7-2.9,1.6c-4,4.2-8,8.4-12.1,12.7
			c-0.3,0.3-0.5,0.7-0.9,1.2c2.1,0.8,4.1,1.5,6.2,1.4c2.8-0.2,5.6-0.5,8.4-0.8c0.6-0.1,1.1-0.2,1.7-0.2c0.8,0,1.4,0.7,1.4,1.5
			c0.1,0.7-0.3,1.2-1.2,1.3c-1.7,0.3-3.3,0.6-5,0.8c-4,0.4-8.1,0.7-11.9-1c-0.7-0.3-1.4-0.4-2-0.5c-0.3,0.2-0.5,0.3-0.7,0.4
			c-3.2,3.4-6.5,6.8-9.7,10.3c-0.2,0.2-0.2,0.6-0.3,1c3.3,0.4,6.4,0.8,9.5,0.3c0.6-0.1,1.3-0.1,2-0.1c0.9,0,1.6,0.8,1.6,1.7
			c0,0.6-0.5,1-1.3,1.2c-3.1,0.6-6.2,0.6-9.3,0.2c-1.8-0.2-3.5-0.5-5.3-0.8c-1.6,1.7-3.2,3.2-4.6,4.9c-1.4,1.6-3.1,3-4.3,5
			c0.4,0,0.6,0.1,0.8,0c7.6-1.8,15.1-4,22.2-7.2c9.6-4.3,18.4-9.9,25.7-17.6c5.8-6.2,10.4-13.1,12.9-21.3c1-3.1,1.6-6.2,1.4-9.4
			c-0.2-3.9-1.3-7.4-3.8-10.4c-2.8-3.3-6.4-4.8-10.8-4.2c-3.5,0.4-6.7,1.8-9.7,3.5c-4.5,2.5-8.3,5.8-12.1,9.1
			c-5,4.4-9,9.6-11.9,15.6c-0.4,0.8-0.8,1.7-1.2,2.5c-5.3,10.8-10,21.9-14.3,33.1c-0.3,0.7-0.4,1.4-0.6,2.2
			c-0.1,0.2-0.1,0.4-0.2,0.6c0.1-0.1,0.3-0.2,0.4-0.3c0.4-0.3,0.8-0.5,1.1-0.8c4.3-4.6,8.6-9.2,12.9-13.8c0.4-0.5,0.8-1,1.1-1.3
			c-0.3-2.4-0.6-4.5-0.7-6.7c-0.2-2.9,0.1-5.8,0.7-8.7c0.1-0.8,0.7-1.1,1.4-1c0.8,0.1,1.4,0.7,1.4,1.5c0,0.3,0,0.6-0.1,0.8
			c-0.5,3.2-0.5,6.4-0.3,9.6c0,0.4,0.2,0.8,0.4,1.5c0.6-0.5,1.1-0.9,1.4-1.3c4.2-4.3,8.3-8.7,12.4-13.1c0.2-0.2,0.4-0.4,0.6-0.6
			c0.2-0.4,0.4-0.8,0.4-1.3c0-0.6-0.1-1.1-0.2-1.7c-0.9-5.1-0.6-10.1,0-15.2c0.1-0.5,0.2-0.9,0.3-1.4c0.2-0.6,1.1-0.9,1.7-0.7
			c0.6,0.2,1,0.6,0.9,1.2c0,1-0.2,2.1-0.2,3.1c-0.1,3.2-0.2,6.4-0.2,9.6c0,0.8,0.1,1.6,0.8,2.5c0.8-0.7,1.4-1.4,2.1-2
			c4.6-4.8,9.3-9.6,13.9-14.4c0.6-0.6,1.2-1.2,1.8-1.8c0.6-0.5,1.2-0.5,1.8,0c0.6,0.5,0.8,1.4,0.3,2c-0.4,0.5-0.9,1-1.3,1.5
			c-2.4,2.5-4.9,5-7.3,7.5c-0.6,0.6-1.1,1.3-1.6,1.9c-0.1,0.2-0.2,0.3-0.3,0.5C274.6,109.2,274.8,109.2,275.1,109.1 M299.3,101.2
			c0.1,4.8-1.1,9.3-2.8,13.6c-3.7,9.2-9.5,17-16.8,23.8c-7.8,7.2-16.7,12.5-26.4,16.5c-9.3,3.8-18.9,6.3-28.7,8.1
			c-0.7,0.1-1.5,0.3-2.2,0.3c-1.8,0-3-1.2-2.9-3.1c0.1-0.9,0.4-1.8,0.7-2.7c3.8-10.6,8-21.1,12.6-31.4c2.1-4.7,4.3-9.4,6.5-14.1
			c3.7-7.9,9-14.5,15.7-20c3.6-3,7.3-5.9,11.4-8.3c3-1.8,6.2-3.1,9.6-3.9c8.6-1.9,15.7,2,19.6,8C298.3,92,299.4,96.5,299.3,101.2"/>
		<path class="st3" d="M196.4,205.1c1.9,0,3.7-0.9,4.8-2.8c1.1-1.7,1.4-3.7,1.7-5.6c0.1-0.6-0.2-1.1-0.8-1.3
			c-0.6-0.2-1.2-0.2-1.6,0.3c-0.3,0.4-0.6,1-0.7,1.5c-0.3,0.9-0.4,1.8-0.7,2.7c-0.6,1.6-1.6,2.3-2.9,2.2c-1.1-0.1-2.2-1.1-2.6-2.6
			c-0.2-0.7-0.1-1.5-0.3-2.2c-0.1-0.7-0.7-1.1-1.4-1.1c-0.9,0-1.5,0.7-1.5,1.7c-0.1,2.4,0.7,4.4,2.5,6
			C193.9,204.7,195.1,205.1,196.4,205.1 M208.5,215.4c-8.1,1.5-16.2,2.1-24.2,2.4c-1.5-5.4-4.2-39.3-3.6-45
			c4.6-1.9,20.9-3.7,26.8-2.9c0.8,1.7,0.8,3.8,1.1,5.7c1,6.1,1.8,12.3,2.1,18.5c0.4,6.4-0.1,12.8-1.6,19
			C209,213.7,208.8,214.4,208.5,215.4"/>
		<path class="st4" d="M259.7,200.3c0.3-3.3,0.8-6.4,1-9.6c0.1-3.1,0.1-6.2-0.2-9.3c-0.3-3.2-0.9-6.3-1.4-9.6
			c0.4-0.2,0.7-0.4,1.2-0.6c4.2-1.3,8.4-2.7,12.6-3.9c1.9-0.5,3.8-0.9,5.8-1.2c1.3-0.2,2.6-0.2,3.9-0.1c2.5,0.2,4.5,1.5,5.3,3.9
			c0.6,1.8,1.2,3.6,1.5,5.4c0.9,5.2,2,10.3,3.2,15.4c0.3,1.5,0.4,3,0.5,4.5c0.1,1.8-0.6,3.3-1.9,4.5c-2.3,2.1-4.9,3.4-8.1,3.5
			c-2.7,0.1-5.2-0.4-7.8-0.9c-2.7-0.6-5.3-1.1-8-1.5c-2-0.3-4.1-0.3-6.2-0.5C260.7,200.3,260.2,200.3,259.7,200.3"/>
		<path class="st4" d="M133.1,189.3c0,4.6,0,8.9,0,13.2c0,4.2,0.8,8.4,1.6,12.4c-0.2,0.2-0.3,0.4-0.5,0.5c-3.8,1.1-7.3,3-10.7,4.9
			c-1.8,1-3.6,1.9-5.5,2.9c-1.6,0.8-3.3,1.4-5.1,1.6c-1.9,0.3-3.5-0.2-5-1.4c-1.3-1-2.3-2.2-3.1-3.6c-1.2-2.1-2-4.4-2.5-6.9
			c-1.1-5.1-1.2-10.2,0.2-15.3c0.6-2.2,1.5-4.2,2.8-6.1c2.1-3,5-4.5,8.7-4.3c1.7,0.1,3.4,0.3,5,0.7
			C123.6,189.1,128.1,189.9,133.1,189.3"/>
		<path class="st5" d="M163.5,194.5c0-2.3-2.1-4.6-4.4-4.6c-2.4-0.1-4.6,2.1-4.5,4.7c0,2.4,1.9,4.2,4.3,4.2
			C161.4,198.8,163.5,196.9,163.5,194.5 M167,217.3c-4.7,0.2-8.9-0.5-13.3-0.8c-0.5-1.4-1.1-2.7-1.3-4.1c-0.5-2.9-1-5.7-1.3-8.6
			c-0.4-3.5-0.6-6.9-0.9-10.4c-0.2-3.2-0.2-6.4,0.7-9.6c4.2-2.1,8.5-4.2,13.1-6.1c0.2,0.8,0.4,1.3,0.4,1.9c0.3,3.9,0.5,7.9,0.8,11.8
			c0.5,6.3,1,12.5,1.5,18.8C166.9,212.4,166.9,214.7,167,217.3"/>
		<path class="st5" d="M239.4,186.5c0-2.6-2-4.7-4.6-4.8c-2.5-0.1-4.6,2.1-4.6,4.7c0,2.6,1.8,4.4,4.4,4.5
			C237.3,191,239.4,189.1,239.4,186.5 M226.2,211c0.5-3.1,1-5.9,1.4-8.8c0.8-6,0.6-12,0.1-18c-0.3-3.8-0.9-7.7-1.3-11.5
			c0-0.3,0-0.5,0.1-0.7c0.1-0.1,0.2-0.2,0.2-0.3c0.1,0,0.2-0.1,0.3,0c1.1,0.2,2.2,0.4,3.3,0.6c3.6,0.8,7.1,1.6,10.9,2.4
			c3.1,10.5,3.7,20.9-0.7,31.3C236.5,208.1,228.9,210.8,226.2,211"/>
		<path class="st6" d="M167.7,176.3c3-1.1,6-2.3,9.5-2.8c0.2,0.6,0.4,1.1,0.4,1.6c0.2,3.8,0.3,7.7,0.6,11.5
			c0.6,7.9,1.2,15.7,1.9,23.6c0.2,2.1,0.5,4.1,0.8,6.1c0,0.4,0,0.7,0,1.1c-2.1,0.5-7.1,0.5-10.6,0.1c-0.1-0.5-0.3-1-0.4-1.5
			c-0.3-4.3-0.4-8.6-0.7-12.9c-0.4-5.5-1-11-1.4-16.6c-0.2-3.1-0.2-6.2-0.3-9.3C167.5,177,167.6,176.7,167.7,176.3"/>
		<path class="st7" d="M148.4,215.7c-3.1,0.1-5.9-0.6-8.9-0.8c-2.7-8.6-2-17.3-1.7-25.9c1.5-0.9,5.5-2.2,7.9-2.7
			C145.9,196.1,146.3,205.9,148.4,215.7"/>
		<path class="st8" d="M246.5,203.1c0.1-0.7,0.2-1.5,0.3-2.2c0.8-3.8,1.5-7.6,1.3-11.4c-0.2-3.5-0.5-7.1-1.3-10.6
			c-0.3-1.2-0.4-2.4-0.7-3.7c2.9-0.2,5.6-1.2,8.5-0.7c0.2,0.7,0.3,1.5,0.5,2.2c0.6,2.8,1,5.5,1,8.3c0,3.9,0.1,7.9-0.6,11.8
			c-0.1,0.6-0.4,1.3-0.4,1.9c0.2,2.3-1.3,2.9-3.1,3.2c-1.9,0.3-3.5,1.4-5.4,1.3L246.5,203.1z"/>
		<path class="st8" d="M246.7,203.2c-0.1,0.1-0.2,0.1-0.3,0.2c0.1-0.1,0.1-0.2,0.2-0.3L246.7,203.2"/>
		<path class="st9" d="M151,161c-0.5-0.3-1-0.5-1.5-0.8c-5.1-3.4-10.1-6.9-15.1-10.3c-0.4-0.3-0.7-0.6-1.1-0.9
			c-0.2-2.2-0.5-4.3-0.7-6.4c-0.4-2.8-1.2-5.5-2.3-8.1c-0.5-1.1-1-1.4-1.9-1.3c-0.8,0.1-1.4,0.8-1.1,1.6c0.2,0.6,0.5,1.2,0.7,1.9
			c0.9,2.7,1.7,5.4,1.9,8.2c0,0.4,0,0.9-0.1,1.4c-2-0.7-10.4-6.1-17.9-11.6c0-0.7-0.1-1.5-0.1-2.3c-0.2-5.3-1.8-10.4-3.5-15.3
			c-0.1-0.3-0.3-0.5-0.4-0.7c-0.4-0.5-1.2-0.6-1.8-0.3c-0.6,0.3-0.8,0.8-0.7,1.4c0.2,0.7,0.4,1.4,0.7,2.2c1.2,3.8,2.3,7.6,2.7,11.5
			c0,0.3,0,0.7-0.1,1.3c-0.9-0.5-1.6-0.9-2.3-1.4c-5.8-3.8-11.6-7.7-17.4-11.5c-0.6-0.4-1.3-0.8-1.9-1.2c-0.6-0.3-1.3-0.1-1.7,0.5
			c-0.4,0.6-0.5,1.4,0,1.8c0.6,0.5,1.2,0.9,1.8,1.3c3.4,2.2,6.8,4.4,10.1,6.7c0.4,0.3,0.8,0.7,1.7,1.4c-3-0.3-5.4-0.6-7.8-0.9
			c-0.9-0.1-1.9-0.3-2.8-0.3c-0.4,0-0.8,0-1.1,0c-0.6,0.1-1.2,0.8-1.2,1.4c0,0.6,0.4,1.1,0.9,1.3c0.4,0.2,0.9,0.2,1.4,0.3
			c4.5,0.7,8.9,1.3,13.5,1.2c1.4,0,2.5,0.3,3.7,1.1c4.7,3.2,9.5,6.4,14.3,9.6c0.4,0.3,0.7,0.6,1.2,1c-1.8,1.6-3.9,2.6-6.1,2.9
			c-2.8,0.5-5.6,0.7-8.4,1.1c-0.5,0.1-0.9,0.1-1.4,0.2c-0.6,0.1-1.1,0.9-1,1.5c0,0.7,0.6,1.2,1.3,1.2c1.2,0,2.4,0,3.7-0.1
			c1.5-0.1,3-0.3,4.5-0.5c2.5-0.4,4.9-1.1,7.1-2.5c1-0.6,2.2-1.1,3.1-1.7c2.5,1.1,11.4,7.2,12.8,8.7c-0.1,0.6-0.7,0.6-1.1,0.8
			c-2.7,1.1-5.6,1.7-8.5,2c-0.6,0.1-1.1,0.1-1.7,0.3c-0.6,0.2-1,0.9-1,1.6c0.1,0.6,0.6,1.1,1.4,1.2c2.3,0,4.5-0.3,6.7-1
			c2.5-0.7,5-1.7,7.6-2.5c2.1,1,9.4,6,10.8,7.5c0,0.1-0.1,0.2-0.1,0.2c-1.9,0-3.8,0.1-5.6,0c-7-0.4-14.1-1.1-20.9-2.7
			c-10.4-2.4-20-6.5-28.6-12.9c-5.8-4.3-10.7-9.5-14.4-15.7c-1.6-2.7-2.9-5.5-3.5-8.6c-0.9-4.2-0.6-8.2,1.6-12
			c1.9-3.4,4.8-5.5,8.7-6.1c2.2-0.3,4.5-0.2,6.7,0.2c1.3,0.3,2.6,0.5,3.8,1c8.9,3.1,17.4,7.3,24.3,13.9c2.8,2.6,5.3,5.6,7.7,8.6
			c7.3,9.2,14,18.9,20.5,28.7c0.2,0.3,0.4,0.7,0.5,1C151.3,160.7,151.2,160.8,151,161"/>
		<path class="st9" d="M151.5,160.6c0.1,0.2,0.1,0.4,0.2,0.7c-0.2-0.1-0.4-0.2-0.6-0.2C151.2,160.8,151.3,160.7,151.5,160.6"/>
		<path class="st9" d="M228.9,151.6c0.2-0.7,0.3-1.5,0.6-2.2c4.3-11.2,9-22.3,14.3-33.1c0.4-0.8,0.8-1.7,1.2-2.5
			c3-6,6.9-11.2,11.9-15.6c3.8-3.4,7.7-6.6,12.1-9.1c3-1.7,6.2-3.1,9.7-3.5c4.4-0.5,8,0.9,10.8,4.2c2.5,3,3.6,6.6,3.8,10.4
			c0.2,3.2-0.4,6.4-1.4,9.4c-2.5,8.2-7.1,15.1-12.9,21.3c-7.3,7.7-16,13.3-25.7,17.6c-7.2,3.2-14.6,5.4-22.2,7.2c-0.2,0-0.4,0-0.8,0
			c1.1-2,2.9-3.4,4.3-5c1.5-1.7,3.1-3.3,4.6-4.9c1.8,0.3,3.6,0.6,5.3,0.8c3.1,0.4,6.2,0.3,9.3-0.2c0.9-0.2,1.3-0.6,1.3-1.2
			c0-0.9-0.7-1.6-1.6-1.7c-0.7,0-1.3,0-2,0.1c-3.1,0.5-6.2,0-9.5-0.3c0.1-0.4,0.1-0.8,0.3-1c3.2-3.4,6.4-6.9,9.7-10.3
			c0.1-0.1,0.3-0.2,0.6-0.4c0.6,0.2,1.3,0.3,2,0.5c3.9,1.6,7.9,1.4,12,1c1.7-0.2,3.3-0.5,5-0.8c0.9-0.2,1.2-0.7,1.2-1.3
			c-0.1-0.8-0.7-1.5-1.4-1.5c-0.6,0-1.1,0.1-1.7,0.2c-2.8,0.3-5.6,0.6-8.4,0.8c-2.1,0.1-4-0.6-6.2-1.4c0.4-0.5,0.6-0.9,0.9-1.2
			c4-4.2,8.1-8.4,12.1-12.7c0.8-0.9,1.7-1.3,2.9-1.6c4.3-1,8.5-2.4,12.6-4c0.6-0.2,1.3-0.4,1.8-0.9c0.4-0.3,0.6-0.9,0.6-1.5
			c0.1-0.7-0.6-1.3-1.3-1.1c-0.7,0.2-1.4,0.4-2.1,0.7c-2.6,0.8-5.2,1.7-7.8,2.5c-0.1-0.1-0.2-0.3-0.4-0.4c0.5-0.7,1-1.3,1.6-1.9
			c2.4-2.5,4.9-5,7.3-7.5c0.5-0.5,0.9-0.9,1.3-1.5c0.5-0.6,0.3-1.5-0.3-2c-0.5-0.5-1.1-0.5-1.8,0c-0.6,0.5-1.2,1.2-1.8,1.8
			c-4.6,4.8-9.3,9.6-13.9,14.4c-0.6,0.7-1.3,1.3-2.1,2c-0.7-0.8-0.8-1.7-0.8-2.5c0-3.2,0.1-6.4,0.2-9.6c0-1,0.2-2.1,0.2-3.1
			c0-0.6-0.3-1.1-0.9-1.2c-0.6-0.2-1.5,0.2-1.7,0.7c-0.2,0.4-0.3,0.9-0.3,1.4c-0.6,5.1-0.9,10.1,0,15.2c0.1,0.6,0.2,1.1,0.2,1.7
			c0,0.4-0.2,0.9-0.4,1.3c-0.1,0.2-0.4,0.4-0.6,0.6c-4.1,4.4-8.3,8.7-12.4,13.1c-0.4,0.4-0.8,0.7-1.4,1.3c-0.2-0.7-0.4-1.1-0.4-1.5
			c-0.2-3.2-0.3-6.4,0.3-9.6c0-0.3,0.1-0.6,0.1-0.8c0-0.8-0.6-1.4-1.4-1.5c-0.7-0.1-1.3,0.3-1.4,1c-0.5,2.9-0.9,5.8-0.7,8.7
			c0.2,2.2,0.5,4.3,0.7,6.7c-0.3,0.3-0.6,0.8-1.1,1.3c-4.3,4.6-8.6,9.2-12.9,13.8c-0.3,0.3-0.7,0.6-1.1,0.8
			C229.1,151.7,229,151.7,228.9,151.6"/>
		<path class="st9" d="M275.1,109.1c-0.2,0-0.4,0.1-0.7,0.1c0.1-0.2,0.2-0.3,0.3-0.5C274.8,108.9,274.9,109,275.1,109.1"/>
		<path class="st9" d="M229.1,151.8c-0.1,0.1-0.3,0.2-0.4,0.3c0.1-0.2,0.1-0.4,0.2-0.6C229,151.7,229.1,151.7,229.1,151.8"/>
		<path class="st2" d="M196.4,205.1c-1.3-0.1-2.5-0.4-3.5-1.3c-1.8-1.6-2.6-3.6-2.5-6c0-1,0.6-1.6,1.5-1.7c0.7,0,1.3,0.4,1.4,1.1
			c0.1,0.7,0.1,1.5,0.3,2.2c0.4,1.6,1.4,2.6,2.6,2.6c1.3,0.1,2.3-0.7,2.9-2.2c0.3-0.9,0.4-1.8,0.7-2.7c0.2-0.5,0.4-1.1,0.7-1.5
			c0.4-0.5,1-0.5,1.6-0.3c0.6,0.2,0.9,0.8,0.8,1.3c-0.3,2-0.6,3.9-1.7,5.6C200.1,204.2,198.4,205.2,196.4,205.1"/>
		<path class="st2" d="M163.5,194.5c0,2.4-2.1,4.3-4.6,4.3c-2.4-0.1-4.3-1.9-4.3-4.2c0-0.3,0-0.6,0.1-0.9c0.4-2.2,2.3-3.8,4.4-3.8
			C161.4,189.9,163.5,192.1,163.5,194.5"/>
		<path class="st2" d="M239.4,186.5c0,2.6-2.1,4.5-4.8,4.4c-2.6-0.1-4.4-1.9-4.4-4.5c0-2.6,2.1-4.8,4.6-4.7
			C237.4,181.8,239.4,183.9,239.4,186.5"/>
	</g>
	<circle class="st10" cx="159.9" cy="192.9" r="1.6"/>
	<circle class="st10" cx="233.4" cy="185.2" r="1.6"/>
	<g>
		<line class="st2" x1="151.8" y1="192.3" x2="154.6" y2="193.6"/>
		<path class="st11" d="M154.6,194.6c-0.1,0-0.3,0-0.4-0.1l-2.8-1.3c-0.5-0.2-0.7-0.8-0.5-1.3c0.2-0.5,0.8-0.7,1.3-0.5l2.8,1.3
			c0.5,0.2,0.7,0.8,0.5,1.3C155.3,194.3,155,194.6,154.6,194.6z"/>
	</g>
	<g>
		<line class="st2" x1="153.9" y1="189.8" x2="156.4" y2="191.6"/>
		<path class="st11" d="M156.4,192.6c-0.2,0-0.4-0.1-0.5-0.2l-2.5-1.8c-0.4-0.3-0.5-0.9-0.2-1.3c0.3-0.4,0.9-0.5,1.3-0.2l2.5,1.8
			c0.4,0.3,0.5,0.9,0.2,1.3C157,192.4,156.7,192.6,156.4,192.6z"/>
	</g>
	<g>
		<line class="st2" x1="241.5" y1="185.1" x2="238.7" y2="186.4"/>
		<path class="st11" d="M238.7,187.4c-0.4,0-0.7-0.2-0.9-0.6c-0.2-0.5,0-1,0.5-1.3l2.8-1.3c0.5-0.2,1,0,1.3,0.5c0.2,0.5,0,1-0.5,1.3
			l-2.8,1.3C239,187.3,238.8,187.4,238.7,187.4z"/>
	</g>
	<g>
		<line class="st2" x1="239.6" y1="182.7" x2="237" y2="184.4"/>
		<path class="st11" d="M237,185.4c-0.3,0-0.6-0.1-0.8-0.4c-0.3-0.4-0.2-1,0.2-1.3l2.6-1.8c0.4-0.3,1-0.2,1.3,0.2
			c0.3,0.4,0.2,1-0.2,1.3l-2.6,1.8C237.4,185.3,237.2,185.4,237,185.4z"/>
	</g>
	<path class="st12" d="M98.4,200.7c-25.4,6.1-37.8,35.7,27.5,81.9c15.2,11,59.4,33.5,19,44.3"/>
	<path class="st12" d="M293.4,176.1c24-1,44.3,31.5-12.1,86.4c-11.5,11.4-45,34.8-14.4,46.1"/>
</g>
<g>
	<g>
		<path class="st13" d="M361.3,276.2c12.4-24.9,19.4-52.9,19.4-82.6c0-102.4-83.1-185.5-185.5-185.5S9.6,91.2,9.6,193.6
			s83.1,185.5,185.5,185.5c37.9,0,73.1-11.4,102.5-30.9c6.6,24.4,29,42.4,55.5,42.4c31.8,0,57.5-25.7,57.5-57.5
			C410.6,304.1,389.2,280.1,361.3,276.2z M195.1,354.6c-88.9,0-161-72.1-161-161s72.1-161,161-161s161,72.1,161,161
			S284,354.6,195.1,354.6z M353.1,373.6c-22.4,0-40.5-18.1-40.5-40.5s18.1-40.5,40.5-40.5s40.5,18.1,40.5,40.5
			S375.5,373.6,353.1,373.6z"/>
	</g>
</g>
<g class="st14">
	<path class="st15" d="M214.1,336.6c-88.9,0-161-72.1-161-161c0-41.3,15.6-79,41.2-107.5c-36.7,29.5-60.2,74.8-60.2,125.5
		c0,88.9,72.1,161,161,161c47.6,0,90.4-20.7,119.8-53.5C287.4,323.3,252.3,336.6,214.1,336.6z"/>
</g>
<g class="st16">
	<path class="st10" d="M182.1,50.6c88.9,0,161,72.1,161,161c0,31.2-8.9,60.3-24.2,85c23.2-27.9,37.2-63.8,37.2-103
		c0-88.9-72.1-161-161-161c-57.7,0-108.4,30.4-136.8,76C87.9,73.2,132.4,50.6,182.1,50.6z"/>
</g>
<g>
	<circle class="st10" cx="353.1" cy="333.1" r="40.5"/>
	<g>
		<path class="st15" d="M391.1,333.1c-0.1,15.7-10,30.3-24.9,35.7c-15.1,5.5-32.2,0.8-42.5-11.6c-10.2-12.2-11.3-30.2-3.1-43.7
			c8.2-13.6,24.5-20.8,40.1-17.6c15.4,3.2,27.4,15.8,30,31.3C391,329.2,391.1,331.1,391.1,333.1c0,3.2,5,3.2,5,0
			c-0.1-18-11.4-34.2-28.3-40.4c-16.8-6.2-36.4-0.9-47.8,12.9c-11.5,14-13.2,34.1-3.8,49.7c9.3,15.5,27.7,23.5,45.4,20
			c17.2-3.4,31.2-17.9,33.9-35.2c0.4-2.3,0.6-4.6,0.6-6.9C396.1,329.9,391.1,329.9,391.1,333.1z"/>
	</g>
</g>
<g>
	<path class="st17" d="M188.1,20.1c102.4,0,181.5,75.1,181.5,177.5c0,36.9-2.5,44.5-8.5,78.5c13-35,19.5-37.1,19.5-82.5
		c0-102.4-83.1-185.5-185.5-185.5C129.6,8.1,72,42.1,39,93.5C73,52.9,131,20.1,188.1,20.1z"/>
</g>
<g>
	<path class="st18" d="M200.1,366.1C97.7,366.1,15.6,283,15.6,180.6c0-34,10.1-65.8,27.4-93.2C22,117.5,9.6,154.1,9.6,193.6
		c0,102.4,83.1,185.5,185.5,185.5c34.1,0,66.1-9.2,93.6-25.3C264.4,361.9,227.7,366.1,200.1,366.1z"/>
</g>
<g class="st14">
	<path class="st15" d="M359.1,364.6c-22.4,0-40.5-18.1-40.5-40.5c0-6.4,1.5-12.4,4.1-17.7c-6.3,7.1-10.1,16.5-10.1,26.7
		c0,22.4,18.1,40.5,40.5,40.5c16,0,29.9-9.3,36.4-22.8C382.1,359.3,371.3,364.6,359.1,364.6z"/>
</g>
<g>
	<g>
		<path class="st19" d="M341.3,345.5c0.1,0.3,0.1,0.7,0.2,1c0.1,0.7,0.1,1.3,0.7,1.7c0.6,0.4,1.2,0.2,1.8,0c0.5-0.2,1-0.3,1.5-0.2
			l20.1-30.1l-4.1-2.7L341.3,345.5z"/>
	</g>
	<polygon class="st20" points="360.4,309.4 362.9,305.6 360.4,309.4 	"/>
	<path class="st21" d="M366.6,307.6l-2.7,4l4.1,2.7l2-3c1.2-1.7,3.1-3.6,1.4-4.8l1.3,0.8l-1.6-1
		C369.2,305.3,367.7,305.9,366.6,307.6z"/>
	<path class="st20" d="M368.2,304.6c-1.7-1.2-4.1-0.7-5.2,1C364.1,303.9,366.4,303.4,368.2,304.6z"/>
	<polygon class="st22" points="360.4,309.4 360.4,309.4 360.4,309.4 360.4,309.4 	"/>
	<path class="st22" d="M360.4,309.4l-1.6,2.4L360.4,309.4z"/>
	<path class="st22" d="M368.8,319.9l1.2-1.9L368.8,319.9z"/>
	<path class="st23" d="M340.3,347.3l-0.8-0.1l-4.9,10.6l8.9-6.8l0.3-0.3l1.6-2.5c-0.4-0.1-0.9,0.1-1.3,0.2c-0.7,0.2-1.3,0.4-2,0
		s-0.7-1.1-0.8-1.8c0-0.3-0.1-0.6-0.1-0.9l-0.6,0.8C340.4,346.7,340.3,347,340.3,347.3z"/>
	<path class="st22" d="M344,348.2c-0.6,0.2-1.2,0.4-1.8,0c-0.6-0.4-0.7-1-0.7-1.7c0-0.4-0.1-0.7-0.2-1l-0.1,0.1
		c0.3,0.9,0,2.1,0.9,2.7c1.1,0.7,2.2-0.4,3.3-0.2l0.1-0.1C345,347.9,344.5,348.1,344,348.2z"/>
	<path class="st22" d="M342.1,348.3c-1-0.6-0.6-1.8-0.9-2.7l-0.1,0.1c0.1,0.3,0.1,0.6,0.1,0.9C341.3,347.2,341.4,347.9,342.1,348.3
		c0.6,0.5,1.3,0.3,1.9,0.1c0.4-0.1,0.9-0.3,1.3-0.2l0.1-0.1C344.3,347.9,343.2,349,342.1,348.3z"/>
	<path class="st22" d="M371,306.5l-2.8-1.9L371,306.5z"/>
	<path class="st24" d="M338.4,344.8c0.7-0.3,1.3-0.7,2.1-0.3c0.4,0.2,0.6,0.6,0.8,0.9l20.2-30.3l-3.4-2.3l-21.3,32l-0.1,0.3l0,0
		C337.3,345.4,337.8,345.1,338.4,344.8z"/>
	<path class="st25" d="M363.9,311.7l2.7-4c1.2-1.7,2.7-2.3,4.4-1.2l-2.8-1.9c-1.7-1.2-4.1-0.7-5.2,1l-2.5,3.8L363.9,311.7z"/>
	
		<rect x="359.1" y="310.3" transform="matrix(0.5552 -0.8317 0.8317 0.5552 -99.1314 439.1689)" class="st26" width="3.9" height="4"/>
	<path class="st22" d="M340.5,344.7c0.4,0.2,0.6,0.6,0.7,0.9l0.1-0.1C341.2,345.1,340.9,344.8,340.5,344.7c-0.8-0.5-1.5-0.2-2.1,0.2
		c-0.6,0.3-1.1,0.6-1.7,0.3l0,0v0.1C338,345.8,339,343.9,340.5,344.7z"/>
	<polygon class="st10" points="371.1,316.5 371.1,316.5 373.6,312.7 	"/>
	<path class="st27" d="M365.6,317.9L345.5,348c0.2,0,0.5,0.1,0.7,0.3c0.7,0.6,0.7,1.4,0.6,2.1c-0.1,0.6-0.1,1.2,0.3,1.7l0,0l0.3-0.2
		l21.3-32l0,0L365.6,317.9z"/>
	<path class="st28" d="M369.9,311.4l-2,3l3.1,2.1l2.5-3.8c1.2-1.7,0.7-4.1-1-5.2l-1.3-0.8C373,307.8,371.1,309.7,369.9,311.4z"/>
	
		<rect x="366.4" y="315.3" transform="matrix(0.5553 -0.8317 0.8317 0.5553 -99.921 447.3256)" class="st29" width="3.9" height="3.6"/>
	<path class="st30" d="M343.4,350.9l-8.9,6.8l-2,4.2c0.1,0.1,0.2,0.2,0.3,0.3c0.3,0.2,0.7,0.3,1.1,0l13-10c-0.4-0.5-0.4-1.2-0.3-1.8
		c0.1-0.7,0.1-1.4-0.5-1.9c-0.2-0.2-0.5-0.3-0.7-0.3l-1.6,2.5L343.4,350.9z"/>
	<path class="st10" d="M346.8,350.4c0.1-0.7,0.1-1.5-0.6-2.1c-0.2-0.2-0.5-0.3-0.7-0.3l-0.1,0.1c0.2,0,0.5,0.1,0.7,0.3
		c1.3,1.1-0.1,2.7,0.9,3.8l0.1-0.1l0,0C346.7,351.7,346.7,351.1,346.8,350.4z"/>
	<path class="st31" d="M340.4,344.7c-0.7-0.4-1.3-0.1-2,0.3c-0.5,0.3-1.1,0.6-1.8,0.4l-4.3,15.8c0,0.1,0,0.3,0,0.4s0.1,0.3,0.2,0.4
		l2-4.2l4.2-7.6l1.6-2.8c0.1-0.3,0.2-0.5,0.4-0.8l0.6-0.8C341.1,345.3,340.9,345,340.4,344.7z"/>
	
		<rect x="362.8" y="312.3" transform="matrix(0.5553 -0.8317 0.8317 0.5553 -99.5672 443.3284)" class="st32" width="3.9" height="4.9"/>
	<g>
		<g>
			<path class="st15" d="M373.3,306.2c-1.5-1-2.9-2-4.4-2.9c-1.7-1.1-3.8-1.1-5.5-0.1c-1.1,0.7-1.7,1.7-2.4,2.7
				c-0.6,0.9-1.2,1.8-1.8,2.7c-0.5,0.7-0.1,1.6,0.5,2.1c2.6,1.8,5.3,3.5,7.9,5.3c0.9,0.6,1.8,1.2,2.7,1.8c0.7,0.5,1.6,0.1,2.1-0.5
				c0.8-1.2,1.6-2.4,2.4-3.6C376.4,311.1,375.7,307.9,373.3,306.2c-0.7-0.5-1.7-0.1-2.1,0.5c-0.4,0.7-0.1,1.6,0.5,2.1
				c0.3,0.2,0.6,0.6,0.8,1c0.1,0.2,0.2,0.8,0.1,1c-0.1,0.6-0.4,1.1-0.8,1.6c-0.7,1.1-1.4,2.2-2.2,3.2c0.7-0.2,1.4-0.4,2.1-0.5
				c-2.7-1.8-5.3-3.6-8-5.3c-0.9-0.6-1.8-1.2-2.6-1.8c0.2,0.7,0.4,1.4,0.5,2.1c0.5-0.7,0.9-1.4,1.4-2c0.4-0.6,0.9-1.5,1.4-2
				c0.8-0.8,1.9-0.9,3-0.2c0.8,0.5,1.6,1.1,2.4,1.6c0.6,0.4,1.3,0.9,1.9,1.3c0.7,0.4,1.7,0.1,2.1-0.5
				C374.3,307.5,374,306.7,373.3,306.2z"/>
		</g>
	</g>
	<g>
		<g>
			<path class="st15" d="M368.7,313.2c-2.5-1.7-5-3.4-7.5-5c-0.7-0.5-1.6-0.1-2.1,0.5c-1,1.5-2.1,3-3.1,4.5
				c-0.5,0.7-0.1,1.6,0.5,2.1c2.7,1.8,5.3,3.6,8,5.3c0.9,0.6,1.7,1.2,2.6,1.7c0.7,0.5,1.6,0.1,2.1-0.5c1-1.5,2.1-3,3.1-4.5
				c0.5-0.7,0.1-1.6-0.5-2.1C370.7,314.6,369.7,313.9,368.7,313.2c-1.6-1.1-3.1,1.5-1.5,2.6c1,0.7,2.1,1.4,3.1,2.1
				c-0.2-0.7-0.4-1.4-0.5-2.1c-1,1.5-2.1,3-3.1,4.5c0.7-0.2,1.4-0.4,2.1-0.5c-2.7-1.8-5.3-3.6-8-5.3c-0.9-0.6-1.7-1.2-2.6-1.8
				c0.2,0.7,0.4,1.4,0.5,2.1c1-1.5,2.1-3,3.1-4.5c-0.7,0.2-1.4,0.4-2.1,0.5c2.5,1.7,5,3.4,7.5,5
				C368.8,316.9,370.3,314.3,368.7,313.2z"/>
		</g>
	</g>
	<g>
		<g>
			<path class="st15" d="M365.5,317.9c-2.5-1.7-5-3.3-7.5-5c-0.7-0.5-1.6-0.1-2.1,0.5c-6.1,9.1-12.1,18.2-18.2,27.3
				c-0.8,1.2-2.1,2.6-2.5,4.1c-0.2,0.8,0.3,1.6,1,1.8c0.6,0.2,1.3,0.1,1.8,0c0.4-0.1,1.5-0.9,1.8-0.6s0.1,1.3,0.3,1.7
				c0.2,0.7,0.6,1.3,1.1,1.7c0.6,0.4,1.3,0.6,2,0.5c0.4,0,1.7-0.7,2-0.3c0.2,0.2-0.1,1.6,0,1.9c0.1,0.6,0.3,1.2,0.8,1.7
				c0.4,0.4,1.3,0.6,1.8,0.2c1.1-0.8,1.8-2.2,2.5-3.3c1.6-2.4,3.2-4.9,4.9-7.3c3.7-5.6,7.5-11.2,11.2-16.9c0.9-1.3,1.8-2.6,2.6-4
				c0.5-0.7,0.1-1.6-0.5-2.1C367.5,319.3,366.5,318.6,365.5,317.9c-1.6-1.1-3.1,1.5-1.5,2.6c1,0.7,2.1,1.4,3.1,2.1
				c-0.2-0.7-0.4-1.4-0.5-2.1c-6,9-12,18.1-18.1,27.1c-0.6,0.9-1.2,1.7-1.7,2.6c-0.2,0.2-0.3,0.5-0.5,0.7c-0.4,0.7,0.7-0.5,0.1-0.1
				c0.6,0.1,1.2,0.2,1.8,0.2c0.1,0.2,0.1-0.6,0.1-0.8c0-0.3,0-0.6,0-1c-0.1-0.8-0.4-1.5-1-2s-1.3-0.8-2.1-0.8
				c-0.4,0-1.9,0.5-2.1,0.4c-0.1-0.1-0.1-0.7-0.1-0.9c-0.1-0.4-0.1-0.8-0.3-1.2c-0.3-0.6-0.7-1.1-1.3-1.5c-0.7-0.4-1.5-0.5-2.3-0.3
				c-0.4,0.1-1.6,0.9-1.9,0.8c0.3,0.6,0.7,1.2,1,1.8c0.2-0.6-0.2,0.3,0-0.1c0.1-0.2,0.2-0.4,0.4-0.6c0.5-0.7,1-1.5,1.4-2.2
				c1.6-2.4,3.2-4.8,4.8-7.3c3.7-5.6,7.4-11.1,11.1-16.7c0.8-1.3,1.7-2.5,2.5-3.8c-0.7,0.2-1.4,0.4-2.1,0.5c2.5,1.7,5,3.3,7.5,5
				C365.6,321.6,367.1,319,365.5,317.9z"/>
		</g>
	</g>
	<g>
		<g>
			<path class="st15" d="M348.1,350.4c0.1-1.6-0.5-3.1-2.1-3.6c-0.7-0.2-1.4-0.1-2.1,0.1c-0.4,0.1-0.9,0.4-1.1,0.2
				c-0.1-0.2-0.1-0.6-0.1-0.8c0-0.4-0.1-0.8-0.2-1.2c-0.2-0.7-0.7-1.3-1.3-1.6c-0.7-0.4-1.6-0.5-2.4-0.2c-0.4,0.1-1.3,0.8-1.7,0.7
				c-0.8-0.2-1.6,0.2-1.8,1c-1.3,4.9-2.6,9.8-3.9,14.7c-0.3,0.9-0.6,1.9-0.1,2.9c0.8,1.6,2.6,1.6,3.9,0.6c2.2-1.7,4.4-3.4,6.6-5.1
				c2-1.5,4-3,5.9-4.6c0.6-0.5,1-1.3,0.5-2.1C348,351.1,348.1,350.8,348.1,350.4c0.2-1.9-2.8-1.9-3,0c-0.1,0.9,0,1.8,0.5,2.5
				c0.2-0.7,0.4-1.4,0.5-2.1c-3.8,2.9-7.6,5.9-11.5,8.8c-0.3,0.3-0.7,0.5-1,0.8c-0.1,0.1-0.5,0.3-0.5,0.4c0.1-0.4,1,0.5,0.7,0.7
				c0,0,0-0.2,0.1-0.2c0.1-0.3,0.2-0.6,0.2-0.9c0.7-2.7,1.5-5.4,2.2-8.1c0.6-2.2,1.2-4.4,1.8-6.6c-0.6,0.3-1.2,0.7-1.8,1
				c0.7,0.1,1.4,0.1,2.1-0.2c0.4-0.1,1-0.7,1.4-0.6c-0.3,0,0,0.6,0,0.8c0.1,0.6,0.2,1.2,0.5,1.7c0.7,1.2,2.1,1.7,3.4,1.4
				c0.3-0.1,1.1-0.5,1.4-0.4c0,0-0.1-0.1,0,0s0,0.6,0,0.7C344.9,352.3,347.9,352.3,348.1,350.4z"/>
		</g>
	</g>
	<g>
		<g>
			<path class="st15" d="M332.5,361.2c0,0.1,0,0.3,0,0.4s0.1,0.3,0.2,0.4s0.2,0.2,0.3,0.3c0.3,0.2,0.7,0.3,1.1,0l6.3-4.8
				c-1.7-1.5-3.7-2.7-5.8-3.3L332.5,361.2z"/>
		</g>
	</g>
</g>
<g>
	<path class="st18" d="M296.7,346.2c6.6,24.4,29,42.4,55.5,42.4c16,0,30.4-6.5,40.8-17c-9.5,6.9-21.2,11-33.8,11
		c-26.5,0-48.8-18-55.5-42.4L296.7,346.2z"/>
</g>
<g>
	<g>
		<path class="st17" d="M344.9,280.7"/>
	</g>
	<g>
		<path class="st17" d="M346.7,280.6c20.9-0.7,41,11,50.1,31.3c9.5,21.1,4,45-11.8,60.1c21.2-13,29.9-40,19.4-63.3
			C394.4,286.3,369.8,274.9,346.7,280.6z"/>
	</g>
</g>
<g>
	<g>
		<path class="st15" d="M363.4,277.5c18.4-37.1,24.1-79.8,16.1-120.4c-6.5-32.9-22-63.7-44.3-88.7c-22.2-24.8-50.9-43.5-82.6-53.7
			C219.4,4,183.3,2.9,149.4,11.3C117,19.4,87,36.3,63.2,59.7S22,112.8,13.4,145c-9,33.5-8.5,69.5,1.5,102.7
			c9.6,32.1,27.9,61.4,52.5,84.1s55.1,38.7,87.8,45.7c39.1,8.4,80.4,4.1,116.9-12.3c9.3-4.2,18.2-9.1,26.7-14.7
			c-1.2-0.5-2.4-1-3.7-1.5c4.6,16.4,16.1,30.6,31.4,38.1c15.6,7.6,34.1,8.1,50.1,1.3c15-6.4,26.8-18.9,32.5-34.1
			c6.1-16,4.8-34.3-3.3-49.4c-8.9-16.6-25.5-28.3-44.1-31c-1.3-0.2-2.7,0.3-3.1,1.7c-0.3,1.2,0.4,2.9,1.7,3.1
			c15.3,2.2,29.3,10.7,38.1,23.6c8.7,13,11.7,29.3,7.8,44.4c-3.7,14.6-13.5,27.2-26.7,34.6c-13.8,7.7-30.7,8.9-45.5,3.5
			c-16.6-6-29.4-20.2-34.2-37.2c-0.4-1.5-2.3-2.4-3.7-1.5c-34.1,22.6-75.1,33.2-115.9,30c-32.9-2.6-64.8-14.3-91.6-33.4
			c-26.3-18.7-47.4-44.5-60.7-73.9C14.3,238,9.4,203.6,13.6,170.2c4.1-32.5,17.2-63.8,37.5-89.5c20-25.4,46.6-45.5,76.7-57.3
			c31.4-12.4,66.1-15.9,99.4-10c32.2,5.7,62.6,20.1,87.4,41.5c24.5,21.2,43.3,48.7,53.8,79.4c12.2,35.8,13,75.2,2.2,111.6
			c-3,10-6.8,19.7-11.4,29.1C357.7,277.8,362,280.3,363.4,277.5z"/>
	</g>
</g>
<g>
	<g>
		<path class="st15" d="M353.6,193.6c0,16.7-2.6,33.3-7.8,49.1c-4.9,15.2-12.2,29.6-21.5,42.7c-9.1,12.9-20.3,24.5-32.8,34.1
			c-12.7,9.7-26.8,17.5-41.8,23c-15.6,5.7-32,8.9-48.5,9.5c-16.7,0.6-33.4-1.3-49.4-5.9c-15.5-4.4-30.3-11.2-43.8-20
			c-13.2-8.7-25.1-19.4-35.2-31.6s-18.5-26.1-24.5-40.8c-6.2-15.2-10-31.3-11.3-47.6c-1.3-16.8,0-33.7,4-50
			c3.8-15.6,10-30.6,18.4-44.4C67.8,97.9,78.1,85.6,90,75s25.4-19.3,39.8-25.9c14.8-6.7,30.8-11.2,46.9-13
			c16.7-1.9,33.6-1.2,50.1,2.1c15.9,3.2,31.3,8.9,45.4,16.8c13.9,7.7,26.5,17.5,37.5,29s20.3,24.7,27.4,39
			c7.2,14.5,12.2,30.2,14.7,46.2C353,177.3,353.6,185.5,353.6,193.6c0,3.2,5,3.2,5,0c0-17.1-2.7-34.2-7.9-50.4
			c-5.1-15.7-12.6-30.6-22.1-44c-9.6-13.4-21.1-25.4-34.2-35.4s-27.6-18-43.1-23.7c-15.9-5.9-32.8-9.1-49.8-9.8
			c-17.2-0.7-34.5,1.4-51,6c-15.9,4.5-31.1,11.5-45,20.6C91.8,65.9,79.4,77,69,89.6c-10.5,12.8-19,27-25.3,42.3
			c-6.4,15.6-10.3,32.3-11.6,49.1c-1.3,17.2,0.1,34.6,4.1,51.4c3.9,16.1,10.3,31.6,18.9,45.8c8.5,14,19.1,26.8,31.4,37.7
			c12.3,10.9,26.1,19.9,41.1,26.7c15.4,7,31.8,11.5,48.6,13.4c17.2,2,34.7,1.2,51.6-2.2c16.3-3.3,32.1-9.2,46.7-17.3
			c14.3-8,27.5-18.2,38.8-30s20.8-25.4,28.1-40c7.5-15,12.6-31.1,15.1-47.6c1.3-8.3,1.9-16.8,1.9-25.2
			C358.6,190.4,353.6,190.4,353.6,193.6z"/>
	</g>
</g>
</svg>
