<?xml version="1.0" encoding="utf-8"?>
<!-- Generator: Adobe Illustrator 24.2.0, SVG Export Plug-In . SVG Version: 6.00 Build 0)  -->
<svg version="1.1" id="Layer_1" xmlns="http://www.w3.org/2000/svg" xmlns:xlink="http://www.w3.org/1999/xlink" x="0px" y="0px"
	 viewBox="0 0 418 400" style="enable-background:new 0 0 418 400;" xml:space="preserve">
<style type="text/css">
	.st0{fill:#C2E1E3;}
	.st1{clip-path:url(#SVGID_2_);}
	.st2{fill:#FFFFFF;}
	.st3{fill:#183E41;}
	.st4{fill:#183E42;}
	.st5{fill:#7EC7CD;}
	.st6{fill:#FAC706;}
	.st7{fill:#7CC6CD;}
	.st8{fill:#E4252E;}
	.st9{fill:#7DC4CA;}
	.st10{opacity:0.32;}
	.st11{fill:#1D1D1B;}
	.st12{opacity:0.42;}
	.st13{fill:#D2E8EB;}
	.st14{fill:#42797D;}
	.st15{fill:#F7C402;}
	.st16{fill:#F72872;}
	.st17{fill:#E66869;}
	.st18{fill:#390075;}
	.st19{fill:#FFDA83;}
	.st20{fill:#AA8B12;}
	.st21{fill:#993637;}
	.st22{fill:#729496;}
	.st23{fill:#FDEAAB;}
	.st24{fill:#F5C3C3;}
	.st25{fill:#E7F3F4;}
	.st26{fill:#FFF0D1;}
	.st27{fill:#BFA362;}
</style>
<g>
	<circle class="st0" cx="196.9" cy="192.8" r="157.8"/>
</g>
<g>
	<defs>
		<circle id="SVGID_1_" cx="196.9" cy="192.8" r="157.8"/>
	</defs>
	<clipPath id="SVGID_2_">
		<use xlink:href="#SVGID_1_"  style="overflow:visible;"/>
	</clipPath>
	<g class="st1">
		<g>
			<g>
				<g>
					<g>
						<path class="st2" d="M148.3,249.2c-12.5-5-32.9-28.2-39.2-40c-10.2-19.1-15.5-41.8-9.3-62.4c1.8-5.9,3.2-12.3,7.3-16.8
							c2.2-2.4,6.9-8.3,13.2-13.4c3.8-3.1,9.7-6.4,14.5-7.5c5.5-1.3,12.3-4.7,15.9-7.3c3.9-2.9,4.7-5.4,3.7-10.2
							c-1-4.7-5.4-8.1-10.1-8.9c-4.7-0.9-9.5,0.4-14,2.2c-5.5,2.3-11.4,3.8-16.5,6.9c-14.3,8.9-27.6,19.9-34.3,35.3
							c-3.1,7-6.3,14.6-7.3,22.2c-0.8,6.6-3.2,24.8-2.4,31.4c4.9,38,32.8,73.2,59.5,97.3"/>
					</g>
					<g>
						<g>
							<path class="st3" d="M149,246.4c-5.5-2.3-10.2-6.6-14.5-10.6c-5.3-4.9-10.2-10.3-14.7-15.9c-9.5-11.9-15.9-26.1-18.7-41.1
								c-1.7-9-1.8-18.3,0.2-27.2c1.8-7.7,4-15.4,9.2-21.5c5.2-5.9,10.6-11.7,17.6-15.5c3.6-2,7.4-2.7,11.2-4.1
								c4-1.4,7.9-3.2,11.4-5.6c2.5-1.7,5.1-3.7,6.2-6.7c1.1-3.1,0.7-7-0.7-10c-3.3-7.4-11.9-9.8-19.4-8.6c-4,0.7-7.6,2.4-11.3,3.7
								c-4.2,1.5-8.5,2.9-12.4,5.2c-7.1,4.1-14,9.2-20,14.8c-6,5.5-11.3,12-14.9,19.3c-4,8-7.6,16.8-8.8,25.6
								c-1.7,12.1-3.9,24.8-1.8,37c6.4,37.4,32.3,69.7,59.7,94.5c2.7,2.4,6.7-1.6,4-4c-24-21.7-46.1-48.6-55.4-80.1
								c-2-6.6-3.6-13.6-3.4-20.5c0.2-6.5,0.9-12.9,1.7-19.3c1.8-15.4,7-30.9,17.5-42.8c5.4-6.1,11.7-11.2,18.4-15.8
								c7.2-4.8,14.9-7.9,23-10.8c7-2.5,18.8-2.3,18.8,7.8c0,3.3-2.9,5-5.5,6.6c-3.6,2.1-7.4,3.9-11.5,5c-7.7,2.1-14.3,6-20.1,11.4
								c-4.8,4.4-10.5,9.9-13.4,15.8c-3.4,6.7-5.4,14.7-6.5,22.1c-1.2,8.3-0.8,16.7,0.7,25c3,16,10,30.9,20.1,43.6
								c4.9,6.1,10.1,11.8,15.9,17.1c4.7,4.3,9.8,8.4,15.8,10.9C150.9,253.3,152.4,247.8,149,246.4L149,246.4z"/>
						</g>
					</g>
				</g>
				<g>
					<g>
						<path class="st4" d="M135.3,105.4c-3.5-4.4-5.6-9.9-5.9-15.6c-0.1-1.9,0.4-4.3-1.2-5.8c-1.4-1.3-3.4-1-4.7,0.3
							c-0.7,0.7-1,1.8-0.7,2.8c0,0.1,0.1,0.2,0.1,0.3c1,3.5,6.5,2,5.5-1.5c0-0.1-0.1-0.2-0.1-0.3c-0.2,0.9-0.5,1.8-0.7,2.8
							c0.1-0.1,0.2-0.2,0.3-0.3c-0.7,0.3-1.3,0.6-2,0.8c0.1,0,0.3,0,0.4,0c-0.8-0.5-1.6-0.9-2.5-1.4c-0.4-0.6-0.1,1.4-0.1,1.8
							c0,1,0.1,2.1,0.2,3.1c0.3,2.1,0.7,4.2,1.4,6.3c1.3,4,3.4,7.5,5.9,10.7C133.6,112.3,137.6,108.2,135.3,105.4L135.3,105.4z"/>
					</g>
				</g>
				<g>
					<g>
						<path class="st4" d="M102.4,101.4c1.8,7.2,6,13.2,12,17.6c2.9,2.2,5.8-2.8,2.9-4.9c-4.8-3.5-8-8.5-9.4-14.2
							C106.9,96.4,101.5,97.9,102.4,101.4L102.4,101.4z"/>
					</g>
				</g>
				<g>
					<g>
						<path class="st4" d="M82.6,120.1c2.4,8.3,8.9,14.8,17.2,17.2c3.5,1,5-4.5,1.5-5.5C94.9,130,90,125,88.1,118.6
							C87.1,115.1,81.6,116.6,82.6,120.1L82.6,120.1z"/>
					</g>
				</g>
				<g>
					<g>
						<path class="st4" d="M70.5,149.4c5.9,7.2,15.5,10.2,24.3,12c-0.7-0.9-1.4-1.8-2.1-2.7c0,0.4,0.1,0.8,0.1,1.3
							c0.4,3.6,6,3.6,5.7,0c0-0.4-0.1-0.8-0.1-1.3c-0.1-1.2-0.8-2.5-2.1-2.7c-7.9-1.7-16.5-4.1-21.8-10.6
							C72.3,142.5,68.3,146.5,70.5,149.4L70.5,149.4z"/>
					</g>
				</g>
				<g>
					<g>
						<path class="st4" d="M70.8,187.2c4.4,0.8,8.8,0.9,13.2,0.1c2.1-0.4,4.2-1,6.1-1.7c0.7-0.3,4.8-2.5,5-2.3
							c-0.4-0.6-0.9-1.1-1.3-1.7c0.1,0.2,0.1,0.3,0.2,0.5c1.4,3.3,6.9,1.9,5.5-1.5c-2-4.7-6.2-2.6-9.7-1c-5.5,2.5-11.7,3.2-17.6,2.2
							C68.7,181.1,67.2,186.6,70.8,187.2L70.8,187.2z"/>
					</g>
				</g>
				<g>
					<g>
						<path class="st4" d="M80.4,214.6c4.4,0.1,8.5-1.1,12.4-2.9c2-0.9,3.9-2,5.9-3.1c1.3-0.7,4.7-3.5,6.1-3.2
							c3.6,0.7,5.1-4.8,1.5-5.5c-4.4-0.9-8.6,2.7-12.3,4.8c-4.3,2.4-8.6,4.4-13.6,4.3C76.7,208.9,76.7,214.5,80.4,214.6L80.4,214.6z
							"/>
					</g>
				</g>
				<g>
					<g>
						<path class="st4" d="M95.1,238.9c9.4-3.5,17.3-9.4,23.2-17.5c2.2-3-2.8-5.8-4.9-2.9c-5,6.8-11.9,12-19.8,14.9
							C90.2,234.7,91.6,240.1,95.1,238.9L95.1,238.9z"/>
					</g>
				</g>
				<g>
					<g>
						<path class="st4" d="M114.7,261c7.8-6.1,13-15.1,14.6-24.9c0.5-3.6-4.9-5.1-5.5-1.5c-1.4,9-5.9,16.8-13.1,22.4
							C107.8,259.2,111.8,263.2,114.7,261L114.7,261z"/>
					</g>
				</g>
			</g>
			<g>
				<g>
					<g>
						<path class="st2" d="M167.8,91.7c-3.2-2.9-6.7-5.9-10.9-6.7c-5.9-1.1-12.3,2.9-14,8.8c-1.6,5.9,1.8,12.8,7.4,15
							c-0.7,0.7-1.5,1.4-2.2,2.1"/>
					</g>
					<g>
						<g>
							<path class="st4" d="M169.8,89.7c-3.9-3.5-8.3-7.2-13.8-7.6c-4.9-0.4-9.9,1.8-13,5.6c-6.3,7.6-3.2,19.7,5.8,23.6
								c-0.2-1.5-0.4-3-0.6-4.5c-0.7,0.7-1.5,1.4-2.2,2.1c-2.6,2.5,1.4,6.5,4,4c0.7-0.7,1.5-1.4,2.2-2.1c1.2-1.1,1.1-3.7-0.6-4.5
								c-5.9-2.6-8.7-10.2-4.1-15.3c5.8-6.5,13-1.9,18.1,2.7C168.5,96.2,172.5,92.2,169.8,89.7L169.8,89.7z"/>
						</g>
					</g>
				</g>
				<g>
					<g>
						<path class="st5" d="M205.1,104.9c-8.5-3.7-14.7-11.9-23.7-14.5c-4.9-1.4-10.3-0.9-15.2,0.4c-5.7,1.6-11.2,4.5-14.9,9
							s-5.6,10.9-3.7,16.6c1,3.2,3.1,5.9,5.3,8.5c8.1,9.6,17.7,17.9,28.3,24.5c3.7-3,6.9-6.6,9.4-10.6c-4.4-4-8.9-8-13.3-12
							c-2.1-1.9-4.2-3.8-5.4-6.3s-1.3-5.7,0.5-7.8c1.7-2,4.7-2.4,7.2-1.8c2.5,0.6,4.7,2.2,6.8,3.7c5.2,3.9,10.2,8,15,12.3
							c3.6-5.2,6.5-9.2,10.1-14.4c0.4-0.6,0.8-1.3,0.7-2c-0.2-0.8-1-1.2-1.7-1.5c-2.7-1.2-4.5-3.8-7.2-5"/>
					</g>
					<g>
						<g>
							<path class="st4" d="M206.5,102.4c-7.8-3.5-13.5-10.3-21.3-13.6c-8.4-3.6-18-2.1-26,1.6c-7.7,3.6-13.9,10.3-15,18.9
								c-1.2,9.2,5.1,16.2,10.9,22.4c7.3,7.8,15.6,14.5,24.6,20.2c1.1,0.7,2.5,0.4,3.4-0.4c3.9-3.2,7.1-6.9,9.8-11.2
								c0.6-1,0.5-2.6-0.4-3.4c-4.1-3.7-8.3-7.4-12.4-11.2c-2.2-2-9.7-8.4-5-11.5c3.7-2.5,8.9,2.3,11.6,4.4
								c4.3,3.3,8.5,6.8,12.6,10.5c1.4,1.3,3.4,1,4.5-0.6c1.9-2.7,3.8-5.4,5.7-8.1c1.7-2.4,4.4-5.2,5.3-8c0.7-2.4-0.5-4.4-2.5-5.6
								c-2.6-1.6-4.9-3.8-7.6-5.2c-3.2-1.7-6.1,3.2-2.9,4.9c1.9,1,3.4,2.5,5.1,3.7c0.3,0.2,2.4,1.8,2.1,0.9c0.1,0.4-1.8,2.5-2,2.8
								c-2.7,3.9-5.4,7.7-8.1,11.6c1.5-0.2,3-0.4,4.5-0.6c-5.3-4.8-10.9-9.4-16.7-13.6c-4.4-3.1-11-5.4-15.6-1.2
								c-4.6,4.1-3,10.8,0.5,15c4.8,5.8,11.4,10.6,17,15.6c-0.1-1.1-0.3-2.3-0.4-3.4c-2.5,3.8-5.4,7.1-8.9,10
								c1.1-0.1,2.3-0.3,3.4-0.4c-8.6-5.4-16.5-11.8-23.4-19.3c-3.3-3.5-7.3-7.4-8.8-12.1c-1.6-4.7,0-10,3-13.8
								c5.9-7.4,18.3-11.4,27.4-8.7c8.8,2.5,14.8,10.5,23,14.2C207,108.8,209.9,104,206.5,102.4L206.5,102.4z"/>
						</g>
					</g>
				</g>
				<g>
					<g>
						<path class="st3" d="M198.1,104.3c-1.4,1.8-2.8,3.7-4.2,5.5c-0.7,0.9-1.4,1.8-2.1,2.8c-0.4,0.5-0.7,0.9-1.1,1.4
							c-0.8,0.7-0.7,0.9,0.1,0.6c0.7,0.3,1.3,0.6,2,0.8c-0.1-0.1-0.2-0.2-0.3-0.3c-2.5-2.7-6.5,1.3-4,4c2.8,3,5.7-0.5,7.3-2.6
							c2.4-3.1,4.8-6.2,7.2-9.3c0.9-1.2,0.2-3.2-1-3.9C200.5,102.4,199,103.1,198.1,104.3L198.1,104.3z"/>
					</g>
				</g>
				<g>
					<g>
						<path class="st3" d="M176.9,130.5c-2.5,2.9-5.1,5.7-7.6,8.6c-2.4,2.7,1.6,6.8,4,4c2.5-2.9,5.1-5.7,7.6-8.6
							C183.3,131.8,179.3,127.8,176.9,130.5L176.9,130.5z"/>
					</g>
				</g>
			</g>
			<g>
				<g>
					<path class="st4" d="M145.5,142.9c3.4,5.1,6.9,10.2,10.3,15.4c2,3,6.9,0.2,4.9-2.9c-3.4-5.1-6.9-10.2-10.3-15.4
						C148.4,137,143.5,139.8,145.5,142.9L145.5,142.9z"/>
				</g>
			</g>
			<g>
				<g>
					<path class="st4" d="M134.6,145.7c1.7,7,5.8,12.8,11.5,17.2c2.9,2.2,5.7-2.7,2.9-4.9c-4.5-3.4-7.5-8.3-8.9-13.8
						C139.2,140.6,133.7,142.1,134.6,145.7L134.6,145.7z"/>
				</g>
			</g>
			<g>
				<g>
					<path class="st4" d="M181.9,81.6c4,1.2,7.7,2.9,11.2,5.1c3.1,2,5.9-2.9,2.9-4.9c-3.9-2.5-8.1-4.4-12.5-5.7
						C179.8,75.1,178.3,80.6,181.9,81.6L181.9,81.6z"/>
				</g>
			</g>
			<g>
				<g>
					<path class="st4" d="M186.6,74.3c5.2,1,10,3.1,14.2,6.5c2.8,2.3,6.9-1.7,4-4c-4.9-4-10.5-6.7-16.7-8
						C184.6,68.2,183,73.6,186.6,74.3L186.6,74.3z"/>
				</g>
			</g>
		</g>
		<g>
			<g>
				<g>
					<g>
						<path class="st4" d="M213.6,542.2c-2.7,0.2-8,9.2-7.2,11.7c0.8,2.6,3,4.4,5.1,6c12.2,8.7,26.4,14,40.9,17.9
							c5.3,1.4,10.9,2.6,16.2,1.3s10.1-6.1,9.8-11.5c-0.4-6.3-6.8-10.1-12.4-12.9c-8.2-4-16.3-8.1-24.5-12.1"/>
					</g>
					<g>
						<g>
							<path class="st4" d="M212.9,539.5c-3.3,0.6-5.7,4.6-7.1,7.2c-1.8,3.3-3.1,6.8-1.1,10.3c2.6,4.4,8.1,7.3,12.3,9.8
								c5.2,3.1,10.8,5.6,16.4,7.8c5.6,2.2,11.4,4,17.2,5.6c6,1.6,12.6,3.2,18.7,1.6c9.5-2.5,15.5-13.1,9-21.6
								c-3.5-4.5-8.8-7-13.8-9.4c-7.2-3.6-14.5-7.2-21.7-10.7c-3.3-1.6-6.1,3.3-2.9,4.9c9,4.5,18.4,8.6,27.2,13.5
								c3,1.7,6.7,3.9,7.9,7.4c1.4,4-1.4,7.7-4.8,9.5c-4.4,2.3-9.8,1.5-14.4,0.4c-4.7-1.1-9.3-2.5-13.9-4c-8.9-3-17.6-6.8-25.6-11.9
								c-2.5-1.6-8.3-4.5-7.1-8c0.6-1.8,2.7-6.6,4.9-7C218,544.3,216.5,538.8,212.9,539.5L212.9,539.5z"/>
						</g>
					</g>
				</g>
				<g>
					<g>
						<path class="st6" d="M258.4,557.3c3,0.8,5.8,2,8.3,3.9c1.9,1.4,5.9,4.7,4.1,7.2c-2.1,3,2.8,5.9,4.9,2.9
							c6.2-9-8.8-17.8-15.8-19.5C256.4,550.9,254.9,556.4,258.4,557.3L258.4,557.3z"/>
					</g>
				</g>
			</g>
			<g>
				<g>
					<path class="st4" d="M246.1,535.4c2.9,6.4-1.1,14.3-7.2,17.7c-6.5,3.6-15.1,3.1-21-1.3c-6-4.4-9.1-12.4-7.5-19.7"/>
				</g>
				<g>
					<g>
						<path class="st4" d="M243.4,536.2c4,9.6-6.5,17-15.2,16.5c-9.9-0.7-16.9-10.1-15.1-19.8c0.7-3.6-4.8-5.1-5.5-1.5
							c-2.4,13.4,6.8,26.1,20.6,26.9c12.1,0.8,26-10.7,20.6-23.6C247.5,531.4,242,532.8,243.4,536.2L243.4,536.2z"/>
					</g>
				</g>
			</g>
			<g>
				<g>
					<path class="st4" d="M246.1,520c3.3,4.1,1,10.7-3.4,13.6c-4.4,2.9-9.9,3.3-15.2,3.5c-4.5,0.2-9.4,0.2-12.8-2.7
						c-4.5-3.9-3.9-11.2-1-16.4"/>
				</g>
				<g>
					<g>
						<path class="st4" d="M243.7,521.5c2.3,3.3,0.6,7.5-2.4,9.7c-3.9,2.9-9.6,3-14.2,3.1c-4,0.1-9.3,0.4-11.7-3.5
							c-2.1-3.4-1-8,0.8-11.3c1.7-3.2-3.2-6.1-4.9-2.9c-2.7,5-3.8,11.5-1,16.7c3.4,6.1,10.5,6.9,16.8,6.7c6.6-0.2,14.3-0.7,19.3-5.7
							c4-4.1,5.8-10.8,2.2-15.7C246.5,515.7,241.6,518.5,243.7,521.5L243.7,521.5z"/>
					</g>
				</g>
			</g>
			<g>
				<g>
					<path class="st4" d="M248.5,438.5c1.6,0.9,2.8,2.8,3.1,4.9c0.4,3-0.9,6-2.8,7.8c-1.9,1.8-4.3,2.6-6.6,3.2
						c-8.9,2.5-19.1,3.2-26.4-4.1c-1.1-1.1-2.1-2.4-2.5-4c-0.4-1.6-0.1-3.7,1.1-4.5"/>
				</g>
				<g>
					<g>
						<path class="st4" d="M247.1,440.9c4.1,2.7,0.7,8.2-2.5,9.7c-3.2,1.5-7.1,2.2-10.6,2.6c-3.4,0.3-6.9,0.2-10.2-1
							c-1.9-0.7-10.4-5.4-7.5-8.3c2.6-2.6-1.4-6.6-4-4c-5,5-0.2,11.7,4.3,14.9c5.3,3.8,11.9,4.7,18.3,4c5.7-0.6,13-1.9,16.8-6.5
							c4-4.9,3.8-12.6-1.8-16.2C246.9,434,244,438.9,247.1,440.9L247.1,440.9z"/>
					</g>
				</g>
			</g>
			<g>
				<g>
					<path class="st4" d="M247.5,450c3.1,2.5,4.5,7,3.6,10.9c-0.9,3.7-3.6,6.6-6.8,8.3s-6.8,2.4-10.4,2.7c-4.7,0.5-9.6,0.6-14-1.3
						s-8.1-6.1-8.3-11.1c-0.1-2.6,0.8-5.2,2.5-7.2"/>
				</g>
				<g>
					<g>
						<path class="st4" d="M245.5,452c3.8,3.4,4,8.7,0.4,12.4c-3.3,3.5-8.5,4.3-13.1,4.8c-4.7,0.4-9.8,0.4-13.8-2.4
							c-4-2.7-6.3-8.3-2.9-12.5c2.3-2.8-1.7-6.9-4-4c-4.4,5.6-4.2,12.8,0.4,18.2c5,5.9,13,7,20.3,6.3c7-0.6,14.5-2.3,18.8-8.4
							c4.1-5.8,3.2-13.7-2.1-18.5C246.8,445.6,242.8,449.6,245.5,452L245.5,452z"/>
					</g>
				</g>
			</g>
			<g>
				<g>
					<path class="st4" d="M246.8,468.4c3.4,1.9,3.8,6.7,3.7,10.7c0,1.1-0.1,2.2-0.6,3.1c-0.6,1-1.6,1.7-2.6,2.2
						c-7.9,4.2-17.3,5.2-25.9,2.7c-2.5-0.7-5.1-1.9-6.6-4.1c-1.2-1.8-1.4-4-1.7-6.2c-0.3-2.3-2.3-7,1.5-10.3"/>
				</g>
				<g>
					<g>
						<path class="st4" d="M245.4,470.9c1.9,1.2,2.1,3.7,2.2,5.8c0,0.8,0.1,1.7,0,2.5c-0.1,2-1.1,2.5-2.7,3.4
							c-4.8,2.4-10.3,3.4-15.6,3.1c-4.3-0.2-11.3-0.9-12.8-5.8c-0.5-1.7-0.6-3.6-0.9-5.3c-0.4-2.2-0.7-4.1,1.1-5.8
							c2.6-2.6-1.4-6.6-4-4c-2.4,2.4-3.3,5.3-3,8.6c0.3,2.9,0.7,6.3,1.6,9c2.6,7.5,12.2,9,19.1,9.1c4.1,0.1,8.4-0.6,12.3-1.8
							c3.2-1.1,7.5-2.4,9.5-5.4c1.8-2.8,1.4-7.1,0.9-10.2c-0.5-3.3-1.9-6-4.8-7.9C245.2,464,242.3,468.9,245.4,470.9L245.4,470.9z"
							/>
					</g>
				</g>
			</g>
			<g>
				<g>
					<path class="st4" d="M249.1,487.2c1.1,3.3,2,6.9,1.1,10.2c-1,3.6-4.2,6.3-7.7,7.7c-3.5,1.4-7.3,1.7-11,2
						c-6.4,0.4-14.2-0.2-17.3-5.9c-2.5-4.6-0.6-10.2,1.5-14.9"/>
				</g>
				<g>
					<g>
						<path class="st4" d="M246.4,488c1.8,5.5,2.1,10.8-3.6,13.9c-4.2,2.3-9.6,2.5-14.3,2.5c-3.6,0-8.2-0.3-10.8-3.2
							c-3.6-3.9-1-10,0.8-14.1c1.4-3.4-4.1-4.8-5.5-1.5c-2.5,6.1-4.5,13.5,0.2,19.1c3.7,4.4,9.9,5.4,15.4,5.4c6.5,0,14-0.6,19.3-4.7
							c6.2-4.8,6.3-11.9,4-18.9C250.7,483,245.2,484.5,246.4,488L246.4,488z"/>
					</g>
				</g>
			</g>
			<g>
				<g>
					<path class="st4" d="M248.5,504.8c2.6,4.8,0,11.1-4.3,14.2c-4.3,3.1-9.8,3.7-15,4.3c-2.7,0.3-5.4,0.6-8-0.4
						c-3.7-1.3-6.3-4.9-7.2-8.8c-0.9-3.9-0.4-8,0.6-11.9"/>
				</g>
				<g>
					<g>
						<path class="st4" d="M246,506.3c1.7,3.5-0.1,7.7-2.9,10c-3.5,2.9-8.5,3.6-12.9,4.1c-4.6,0.5-9.1,0.9-12-3.4
							c-2.7-4.2-2.1-9.4-0.9-14c0.9-3.5-4.6-5.1-5.5-1.5c-1.6,6.4-2,13.5,2,19.1c4.3,6,10.7,6.2,17.4,5.4c6.1-0.7,12.8-2,17.1-6.9
							c3.8-4.4,5.2-10.3,2.6-15.6C249.3,500.1,244.4,503,246,506.3L246,506.3z"/>
					</g>
				</g>
			</g>
			<g>
				<g>
					<path class="st6" d="M248,443.7c-0.3,5.4-7.1,6.1-11.1,6.2c-4.7,0.1-9.5,0-14-1.5c-3.5-1.1-5,4.3-1.5,5.5
						c6.4,2.1,14.2,2.3,20.8,1.2c6-1,11.2-5,11.6-11.4C253.9,440.1,248.2,440.1,248,443.7L248,443.7z"/>
				</g>
			</g>
			<g>
				<g>
					<path class="st6" d="M247.4,456.5c-2.3,11.3-16.6,9.4-24.9,7.6c-3.6-0.8-5.1,4.7-1.5,5.5c6.9,1.5,14.4,2.9,21.2,0.2
						c5.2-2.1,9.5-6.2,10.7-11.8C253.6,454.4,248.2,452.9,247.4,456.5L247.4,456.5z"/>
				</g>
			</g>
			<g>
				<g>
					<path class="st6" d="M246,475c0.7,2.9,0.5,5.1-2.3,6.6c-1.9,1-4.3,1.3-6.4,1.6c-4.6,0.5-9.1,0-13.5-1.3c-3.5-1-5,4.5-1.5,5.5
						c10.6,3,33.6,3.1,29.3-13.8C250.6,469.9,245.1,471.4,246,475L246,475z"/>
				</g>
			</g>
			<g>
				<g>
					<path class="st6" d="M245.9,491.1c0.5,11.4-16.8,12.4-23.9,8.3c-3.2-1.8-6,3.1-2.9,4.9c10.8,6.2,33.2,2.8,32.5-13.2
						C251.4,487.4,245.7,487.4,245.9,491.1L245.9,491.1z"/>
				</g>
			</g>
			<g>
				<g>
					<path class="st6" d="M246,507.9c1.5,5-5.2,7.1-8.8,8c-4.8,1.2-9.8,1.3-14.7,0.5c-3.6-0.6-5.1,4.9-1.5,5.5
						c7.3,1.3,14.8,0.9,21.8-1.7c5.7-2.2,10.7-7.1,8.7-13.7C250.4,502.9,245,504.4,246,507.9L246,507.9z"/>
				</g>
			</g>
			<g>
				<g>
					<path class="st6" d="M243.7,524.2c1.2,5.3-6.5,7.6-10.2,8.4c-5.1,1.2-10.2,0.9-15.2-0.5c-3.5-1-5,4.5-1.5,5.5
						c7.3,2.1,15.2,2,22.4-0.7c6-2.3,11.6-7,10-14.2C248.3,519.1,242.8,520.6,243.7,524.2L243.7,524.2z"/>
				</g>
			</g>
			<g>
				<g>
					<path class="st6" d="M242.2,538.9c-0.3,2.4-0.8,5-2.6,6.7c-2.3,2.2-6.1,3.1-9.2,3.3c-6.3,0.5-11-1.8-16.2-5.2
						c-3.1-2-5.9,2.9-2.9,4.9c7.2,4.7,14.3,7.2,23,5.4c3.7-0.7,7.7-2.4,10.2-5.3c2.3-2.8,3-6.3,3.4-9.8
						C248.3,535.3,242.6,535.3,242.2,538.9L242.2,538.9z"/>
				</g>
			</g>
		</g>
		<g>
			<g>
				<g>
					<path class="st4" d="M157.4,545.3c2.6,0.7,6.1,11,4.9,13.5c-1.2,2.5-3.7,4-6.2,5.2c-13.6,6.7-28.6,9.4-43.5,10.5
						c-5.5,0.4-11.2,0.6-16.1-1.8c-5-2.4-8.8-8.2-7.5-13.8c1.6-6.4,8.6-9.1,14.6-10.9c8.8-2.6,17.5-5.2,26.3-7.7"/>
				</g>
				<g>
					<g>
						<path class="st4" d="M156.7,548.1c-0.6-0.3,0,0.2,0.2,0.5c0.3,0.6,0.6,1.1,0.9,1.7c0.7,1.5,1.2,3.1,1.6,4.7
							c0.2,0.8,0.6,2,0.3,2.8c-0.5,1.7-3.2,2.9-4.6,3.6c-8.8,4.5-18.5,7-28.2,8.6c-4.7,0.8-9.5,1.3-14.3,1.7
							c-4.8,0.4-10.2,0.7-14.7-1.4c-3.5-1.7-6.6-5.5-6.3-9.6c0.3-3.8,3.6-6.2,6.7-7.7c4.5-2.2,9.7-3.3,14.4-4.7
							c6-1.8,12-3.5,17.9-5.3c3.5-1,2-6.5-1.5-5.5c-6.8,2-13.6,4-20.3,6c-5.3,1.5-10.9,2.8-15.6,5.8c-9.1,5.8-9.4,17.4-1,24
							c4.5,3.6,10.4,4.4,16,4.3c6.2-0.1,12.5-0.9,18.6-1.9c6.3-1,12.6-2.4,18.6-4.3c5.4-1.8,11.5-3.8,16.1-7.3
							c4-3.1,4.4-6.7,3.2-11.4c-1-3.7-2.7-8.6-6.5-10.1C154.8,541.2,153.3,546.7,156.7,548.1L156.7,548.1z"/>
					</g>
				</g>
			</g>
			<g>
				<g>
					<path class="st4" d="M159,535.7c2.3,6.9-2.4,14.8-8.8,17.8c-6.8,3.2-15.3,1.8-20.8-3.4c-5.5-5.2-7.8-13.9-5.6-21.3"/>
				</g>
				<g>
					<g>
						<path class="st4" d="M156.2,536.4c3,10.1-8.2,17.4-17.1,15.6c-10.2-2.1-15.3-12.9-12.7-22.5c1-3.5-4.5-5-5.5-1.5
							c-3.6,13.3,4.4,27.8,18.5,29.8c12.6,1.7,26.3-9.4,22.3-22.8C160.7,531.4,155.2,532.9,156.2,536.4L156.2,536.4z"/>
					</g>
				</g>
			</g>
			<g>
				<g>
					<path class="st4" d="M160.4,519.6c2.9,4.6-0.1,11.2-4.7,13.9s-10.2,2.5-15.4,2.2c-4.5-0.2-9.4-0.7-12.5-4.1
						c-4.1-4.5-2.8-12.1,0.5-17.2"/>
				</g>
				<g>
					<g>
						<path class="st4" d="M158,521c2,3.6-0.4,8-3.7,10c-4.2,2.5-9.8,2-14.4,1.8c-4-0.2-9.1-0.6-11-4.7c-1.9-3.9-0.2-8.8,2-12.2
							c1.9-3.1-3-6-4.9-2.9c-3.2,5.2-4.9,12.3-2,18c3.1,6,9.8,7.2,15.9,7.5c6.8,0.4,14.5,0.5,19.8-4.4c4.3-4,6.1-10.6,3.2-15.9
							C161.1,514.9,156.2,517.8,158,521L158,521z"/>
					</g>
				</g>
			</g>
			<g>
				<g>
					<path class="st4" d="M170.5,434.6c1.5,1,2.5,3.2,2.6,5.5c0.1,3.2-1.5,6.2-3.6,7.9c-2.1,1.7-4.5,2.3-6.9,2.7
						c-9.1,1.7-19.3,1.5-25.9-6.8c-1-1.2-1.9-2.7-2.1-4.4c-0.3-1.8,0.3-3.9,1.5-4.6"/>
				</g>
				<g>
					<g>
						<path class="st4" d="M168.5,436.6c3.7,3,1.3,8.5-2.5,10.2c-3.3,1.5-7.5,1.9-11.1,1.9c-3.5,0-7.1-0.4-10.3-2
							c-2.3-1.2-9.9-6.8-6.4-9.8c2.8-2.4-1.3-6.4-4-4c-5.5,4.7-0.7,12.6,3.6,16.1c4.8,4,10.9,5.5,17.1,5.5c5.7-0.1,13.1-0.8,17.3-5
							c4.4-4.4,5.4-12.5,0.3-16.8C169.7,430.2,165.7,434.2,168.5,436.6L168.5,436.6z"/>
					</g>
				</g>
			</g>
			<g>
				<g>
					<path class="st4" d="M168.4,446.5c2.8,2.9,3.9,7.7,2.6,11.7c-1.2,3.7-4.2,6.5-7.6,8c-3.3,1.5-7,1.8-10.6,1.9
						c-4.7,0.1-9.6-0.3-13.8-2.7c-4.2-2.4-7.5-7.2-7.2-12.4c0.1-2.7,1.3-5.4,3.1-7.2"/>
				</g>
				<g>
					<g>
						<path class="st4" d="M166.4,448.6c3.2,3.6,2.9,9.1-0.4,12.5c-3.5,3.7-8.9,4.2-13.7,4.2c-5,0-10.4-0.5-14.1-4.1
							c-3.7-3.6-4.9-9.4-1.2-13.4c2.5-2.7-1.5-6.7-4-4c-5.1,5.6-5,13.5-0.5,19.4c4.7,6.2,12.5,7.8,19.9,7.8c7.2,0,15-1.6,19.4-7.9
							c4-5.7,3.4-13.4-1.2-18.6C168,441.8,164,445.8,166.4,448.6L166.4,448.6z"/>
					</g>
				</g>
			</g>
			<g>
				<g>
					<path class="st4" d="M166,465.7c3.2,2.3,3.1,7.4,2.6,11.5c-0.1,1.1-0.3,2.3-0.9,3.2c-0.7,1-1.7,1.6-2.8,2
						c-8.3,3.6-17.8,3.7-26.1,0.3c-2.5-1-4.9-2.4-6.2-4.9c-1-2-1.1-4.4-1.1-6.6c0-2.5-1.6-7.5,2.4-10.6"/>
				</g>
				<g>
					<g>
						<path class="st4" d="M164,467.7c1.9,1.6,2.1,3.8,2.1,6.1c0,2.9,0,5.1-2.8,6.4c-5,2.2-11,2.8-16.4,1.9
							c-4.8-0.7-11.5-2.3-12.3-7.9c-0.5-3.5-1.4-9,1.5-11.5c2.8-2.4-1.3-6.4-4-4c-2.6,2.2-3.6,5.2-3.6,8.6c0,2.9,0.1,6.3,0.8,9.1
							c1.7,7.9,10.9,10.6,17.9,11.5c4.1,0.5,8.4,0.3,12.4-0.6c3.4-0.7,7.9-1.9,10.2-4.7c2-2.5,2-6.5,2-9.6c-0.1-3.4-1-6.9-3.7-9.2
							C165.2,461.4,161.2,465.4,164,467.7L164,467.7z"/>
					</g>
				</g>
			</g>
			<g>
				<g>
					<path class="st4" d="M166.5,485.6c0.8,3.5,1.4,7.4,0.1,10.8c-1.4,3.7-4.8,6.2-8.4,7.3s-7.4,1.1-11.2,1
						c-6.4-0.2-14.1-1.6-16.6-7.8c-2-5,0.4-10.7,2.9-15.5"/>
				</g>
				<g>
					<g>
						<path class="st4" d="M163.8,486.3c1.1,5.2,1.3,10.4-3.7,13.5c-4.3,2.6-10.1,2.3-15,1.9c-3.6-0.3-8.1-1-10.6-3.9
							c-3.9-4.3-0.8-10.7,1.4-15c1.6-3.3-3.2-6.1-4.9-2.9c-3.2,6.3-6.2,14-1.7,20.4c3.4,4.8,9.5,6.4,15,6.9
							c6.8,0.7,14.5,0.6,20.1-3.6c6.2-4.7,6.4-11.8,4.9-18.9C168.5,481.3,163,482.8,163.8,486.3L163.8,486.3z"/>
					</g>
				</g>
			</g>
			<g>
				<g>
					<path class="st4" d="M164.2,503.9c2.2,5.2-1,11.6-5.6,14.4s-10.1,2.9-15.3,3c-2.7,0-5.4,0.1-7.9-1.1c-3.5-1.7-5.8-5.8-6.3-9.9
						s0.3-8.4,1.7-12.3"/>
				</g>
				<g>
					<g>
						<path class="st4" d="M161.4,504.7c1.4,4-0.3,8.2-3.6,10.7c-3.8,2.9-9,3-13.5,3.1c-4.8,0.1-9.2-0.1-11.4-5
							c-2.2-4.7-1-10.1,0.6-14.8c1.2-3.5-4.3-5-5.5-1.5c-2.2,6.5-3.2,13.8,0.4,20c3.5,6.1,9.4,7.1,15.9,7c6.3-0.1,13.1-0.7,18-5.1
							c4.4-3.9,6.6-10.2,4.6-15.9C165.7,499.7,160.2,501.2,161.4,504.7L161.4,504.7z"/>
					</g>
				</g>
			</g>
			<g>
				<g>
					<path class="st6" d="M169.6,439.5c-0.7,5.2-5.8,6.3-10.3,6.1c-4.9-0.2-10.3-0.7-14.8-2.8c-3.3-1.5-6.2,3.4-2.9,4.9
						c9.1,4.2,31.5,7.9,33.5-6.7C175.6,437.5,170.1,435.9,169.6,439.5L169.6,439.5z"/>
				</g>
			</g>
			<g>
				<g>
					<path class="st6" d="M167.6,453.6c-3.3,11.4-17.5,8-25.7,5.3c-3.5-1.2-5,4.3-1.5,5.5c6.8,2.3,14.3,4.4,21.3,2
						c5.4-1.8,9.7-5.8,11.3-11.3C174.1,451.6,168.7,450.1,167.6,453.6L167.6,453.6z"/>
				</g>
			</g>
			<g>
				<g>
					<path class="st6" d="M164.7,472.7c1.8,11.6-17.3,7.2-23.1,4.8c-3.4-1.4-4.9,4.1-1.5,5.5c6.6,2.7,14.3,3.8,21.4,2.2
						c7.1-1.6,9.8-7.2,8.7-14C169.6,467.6,164.1,469.1,164.7,472.7L164.7,472.7z"/>
				</g>
			</g>
			<g>
				<g>
					<path class="st6" d="M162.9,489.6c-0.5,11.8-18,11.1-24.8,6c-2.9-2.2-5.8,2.7-2.9,4.9c10.7,8,32.7,5.1,33.4-10.9
						C168.8,485.9,163.1,485.9,162.9,489.6L162.9,489.6z"/>
				</g>
			</g>
			<g>
				<g>
					<path class="st6" d="M161.5,507.1c1,5-5.7,6.7-9.3,7.3c-5.1,0.9-10.3,0.4-15.2-1c-3.5-1-5,4.5-1.5,5.5
						c9.6,2.7,34.8,2.9,31.5-13.4C166.3,502,160.8,503.6,161.5,507.1L161.5,507.1z"/>
				</g>
			</g>
			<g>
				<g>
					<path class="st6" d="M157.5,523.2c0.7,5.8-6,7.8-10.6,8.5c-5.3,0.8-10.6-0.1-15.6-2.1c-3.4-1.4-4.9,4.1-1.5,5.5
						c6.9,2.8,14.6,3.4,21.8,1.4c6.1-1.7,12.5-6.1,11.6-13.3C162.8,519.6,157.1,519.5,157.5,523.2L157.5,523.2z"/>
				</g>
			</g>
			<g>
				<g>
					<path class="st6" d="M154.8,538.4c-0.5,2.5-1.1,5.4-3.2,7.2c-2.4,2.1-6.2,2.7-9.4,2.7c-6.3,0-10.8-2.8-15.5-6.7
						c-2.8-2.3-6.8,1.7-4,4c6.4,5.3,13,9,21.7,8.3c4-0.3,8.3-1.5,11.3-4.2c2.7-2.6,3.9-6.2,4.6-9.7
						C161.1,536.3,155.6,534.8,154.8,538.4L154.8,538.4z"/>
				</g>
			</g>
			<g>
				<g>
					<path class="st6" d="M110.4,546.3c-8.1,0.5-23.6,6.7-19.1,17.4c1.4,3.4,6.3,0.5,4.9-2.9c-1.1-2.6,3.9-5.4,5.6-6.3
						c2.7-1.5,5.6-2.3,8.7-2.5C114,551.8,114,546.1,110.4,546.3L110.4,546.3z"/>
				</g>
			</g>
		</g>
		<g>
			<g>
				<g>
					<path class="st2" d="M316,449.2c0.9-3.1,3.2-5.6,5.6-7.8c2.7-2.4,5.8-4.6,9.3-4.9c5.2-0.4,10.2,3.9,11.3,9
						c1.2,5.1-1,10.6-4.6,14.4"/>
				</g>
				<g>
					<g>
						<path class="st3" d="M318.8,450c1.8-5.6,10-12.9,16.1-9.7c7.1,3.7,5.3,12.8,0.8,17.8c-2.5,2.7,1.6,6.7,4,4
							c7-7.7,8.5-21-1.9-26.7c-9.6-5.2-21.5,4-24.5,13.1C312.2,451.9,317.7,453.4,318.8,450L318.8,450z"/>
					</g>
				</g>
			</g>
			<g>
				<g>
					<path class="st5" d="M341,498.8c-0.7-9.3,3.7-18.6,1.8-27.7c-1-5-3.9-9.5-7.5-13.3c-4.1-4.3-9.1-7.8-14.9-9s-12.3,0.2-16.4,4.4
						c-2.3,2.4-3.8,5.5-5.1,8.6c-4.7,11.6-7.6,24-8.6,36.5c4.3,1.9,9,3,13.7,3.4c1.5-5.8,2.9-11.5,4.4-17.3c0.7-2.7,1.4-5.4,3.1-7.7
						c1.6-2.2,4.5-3.8,7.2-3.2c2.5,0.6,4.3,3,4.9,5.5c0.6,2.5,0.3,5.2-0.2,7.7c-1,6.4-2.3,12.7-3.9,19c6.3,0.8,11.1,1.4,17.5,2.2
						c0.7,0.1,1.5,0.2,2.1-0.3c0.6-0.5,0.6-1.4,0.6-2.2c-0.2-3,1.2-5.8,1.1-8.7"/>
				</g>
				<g>
					<g>
						<path class="st4" d="M343.8,498.8c-0.5-9.4,3.5-18.5,1.8-27.9c-1.5-8.2-7.4-15.4-14.1-20.1c-6.4-4.6-14.9-6.8-22.5-4
							c-8.4,3.1-11.7,10.9-14.5,18.7c-3.8,10.6-6.1,21.6-7,32.8c-0.1,1.4,1,2.3,2.1,2.7c4.7,1.9,9.5,3,14.5,3.5
							c1.2,0.1,2.4-1,2.7-2.1c1.3-5,2.6-10,3.8-15c0.8-3.2,2.2-12.3,7.3-11.2c5.1,1.2,2.8,10.1,2.2,13.4c-0.9,5.2-2,10.3-3.3,15.4
							c-0.5,2,0.9,3.4,2.7,3.6c3.3,0.4,6.5,0.8,9.8,1.3c2.9,0.4,6.3,1.4,9.1,1c2.3-0.3,3.7-1.9,4-4.2c0.4-3.2,1.1-6.7,1.1-9.9
							c0-3.7-5.6-3.7-5.7,0c0,2.4-0.8,4.7-1,7.1c-0.1,0.5-0.1,1.1-0.1,1.6c1.2-0.2,1.2-0.3,0.2-0.3c-0.9-0.4-2.4-0.3-3.4-0.4
							c-4.7-0.6-9.4-1.2-14-1.8c0.9,1.2,1.8,2.4,2.7,3.6c1.8-7.2,3.6-14.6,4.3-21.9c0.6-5.4-1.1-12.3-7.2-13.8
							c-5.8-1.4-10.4,3.4-12.4,8.3c-2.7,6.9-3.9,14.6-5.8,21.8c0.9-0.7,1.8-1.4,2.7-2.1c-4.5-0.4-8.8-1.5-13-3.3
							c0.7,0.9,1.4,1.8,2.1,2.7c0.8-10.7,3.1-21.2,6.8-31.3c1.6-4.3,3.2-9.3,6.7-12.4c3.3-3,8.2-3.9,12.5-3.1
							c8.7,1.5,17.1,9.3,20,17.5c3.5,9.6-1.6,20-1.1,29.9C338.3,502.4,344,502.4,343.8,498.8L343.8,498.8z"/>
					</g>
				</g>
			</g>
			<g>
				<g>
					<path class="st3" d="M338.9,492.4c-2.5-0.4-4.9-0.9-7.4-1.3c-1.2-0.2-5.6-0.5-6.1-1.1c0.2,0.9,0.5,1.8,0.7,2.8
						c0-0.2,0.1-0.3,0.1-0.5c0.7-3.6-4.8-5.1-5.5-1.5c-0.6,3.3,1.8,4.5,4.7,5c4,0.7,8,1.4,12,2.1C340.9,498.5,342.5,493,338.9,492.4
						L338.9,492.4z"/>
				</g>
			</g>
			<g>
				<g>
					<path class="st3" d="M305.1,485.6c-3.7-0.9-7.4-1.8-11.2-2.7c-3.6-0.9-5.1,4.6-1.5,5.5c3.7,0.9,7.4,1.8,11.2,2.7
						C307.1,492,308.7,486.5,305.1,485.6L305.1,485.6z"/>
				</g>
			</g>
		</g>
		<g>
			<g>
				<g>
					<path class="st4" d="M242.1,441.2c14-3.1,30.2-9.6,36.4-24.5c6.2-14.8,8.1-31.4,9.4-47.6c2.2-25.1,7.2-63.2,0.5-87
						c-2.2-7.9-5.5-15.8-11.4-20.5c-9.5-7.6-22.6-4.8-34.3-3.1c-16.4,2.3-33,1.7-49-1.7c-13.5-2.9-20.4-5.8-34.1-5.6
						c-13.8,0.2-15.1,7.4-23.9,12.9"/>
				</g>
				<g>
					<g>
						<path class="st4" d="M242.8,443.9c10-2.3,20-5.9,28.1-12.5c9.4-7.8,13.1-19.6,15.7-31.1c2.8-12.5,3.7-25.3,4.8-38
							c1.1-12,2.3-24.1,2.9-36.2c0.5-11.6,0.6-23.3-1-34.8c-1.5-10.6-4.7-22.9-12.7-30.5c-9.2-8.7-22-7.5-33.5-5.8
							c-14.3,2.1-28.6,2.8-43,0.7c-14.1-2-27.6-7.2-42-7.4c-5.7-0.1-11.5,0.5-16.3,3.8c-4.1,2.8-7.2,6.7-11.4,9.5
							c-3.1,2-0.2,6.9,2.9,4.9c3.5-2.3,6.3-5.1,9.4-7.9c3.5-3,7.4-4.4,12-4.6c11.9-0.5,23,3,34.5,5.5c13,2.8,26.3,3.8,39.6,2.9
							c6.2-0.4,12.3-1.5,18.5-2.3c5.6-0.7,11.5-1.3,17,0.2c11.5,3,16,15.3,18.4,25.8c2.4,10.4,2.6,21.3,2.4,32
							c-0.2,11.4-1.2,22.8-2.2,34.1c-1.1,11.5-1.8,23-3.4,34.4c-1,7.1-2.4,14.2-4.5,21c-1.8,5.9-4,11.7-8.2,16.4
							c-7.6,8.3-18.6,12.2-29.3,14.6C237.8,439.2,239.3,444.7,242.8,443.9L242.8,443.9z"/>
					</g>
				</g>
			</g>
			<g>
				<g>
					<path class="st5" d="M248.5,254.2c13.5,0,18.6,0.1,29.1,5.8c-5.1,2.8-10.3,5.3-15.8,7.5c-2.1,0.8-4.2,1.6-6.4,1.9
						c-2.7,0.3-2.1,6-4.7,5.5c-13.8-2.5-21.3-5.2-35.3-3.9c-9.8,0.9-29.8-1.6-39.7-1.9c-19-0.6-25.1-9.3-43.3-4.4
						c9.2-12.8,22.3-22.1,38.9-19.7c7.9,1.2,15.3,3.3,22.9,5.7c11.9,3.8,17.9,6.8,30.3,5C233.1,254.5,239.7,253.9,248.5,254.2"/>
				</g>
				<g>
					<g>
						<path class="st4" d="M248.5,257c4.9,0,10-0.2,14.9,0.7c4.6,0.8,8.7,2.6,12.7,4.8c0-1.6,0-3.3,0-4.9
							c-5.7,3.1-11.6,6.2-17.7,8.2c-2,0.7-4.4,0.6-6,2c-1.3,1.2-1.2,3.3-2.4,4.4c-0.1,0.1,0.5-0.1-0.5-0.3c-0.8-0.2-1.5-0.3-2.3-0.4
							c-1.4-0.3-2.9-0.6-4.3-0.9c-2.8-0.6-5.5-1.1-8.3-1.6c-5.3-0.9-10.5-1.3-15.9-1c-9.6,0.4-18.9,0.1-28.5-0.6
							c-9.4-0.7-19.1-0.6-28.3-3c-4.5-1.2-9-2.7-13.6-3.4c-5.7-0.9-11.3-0.3-16.9,1.1c1.1,1.4,2.1,2.8,3.2,4.2
							c5.4-7.4,12.6-14.2,21.5-17.1c10.2-3.3,20.9-0.4,30.8,2.5c9.4,2.8,18.8,7.1,28.7,7.5c5.5,0.2,10.9-0.9,16.3-1.5
							C237.6,257,243.1,256.8,248.5,257c3.7,0.1,3.7-5.6,0-5.7c-5.8-0.2-11.6,0-17.4,0.7c-5.7,0.6-11.4,1.8-17.1,1.2
							c-5.1-0.5-10-2.3-14.8-3.9c-5.7-1.9-11.5-3.7-17.3-5.2c-10.2-2.5-20.3-3.7-30.3,0.5c-9,3.8-16,10.7-21.7,18.5
							c-1.5,2.1,1,4.7,3.2,4.2c4.9-1.3,10-1.8,15-0.9c4.2,0.7,8.3,2.1,12.5,3.2c9.3,2.4,18.9,2.4,28.5,3.1
							c9.6,0.8,19.1,1.4,28.7,0.8c5.5-0.3,11,0,16.5,0.9c2.6,0.5,5.2,1,7.9,1.5c2.8,0.6,6.3,1.9,9.1,1.7c1.9-0.2,3.2-1.4,4-3.1
							c0.3-0.7,0.5-1.9,1-2.4c0.6-0.6-0.8,0.4,0.6-0.2c0.8-0.3,1.9-0.4,2.7-0.6c6.8-2.1,13.4-5.6,19.6-9c1.8-1,1.9-3.9,0-4.9
							c-4.4-2.4-9.1-4.5-14.1-5.4c-5.4-0.9-10.9-0.9-16.4-0.9C244.9,251.3,244.9,257,248.5,257L248.5,257z"/>
					</g>
				</g>
			</g>
			<g>
				<g>
					<path class="st2" d="M262.4,282.1c-1.1-11.6-12.2-12.6-17.6-12.8c-30.7-0.9-49.5-3.9-79.8-9.1c-9.9-1.7-19.5-2.9-28.7,1.9
						c-8.9,4.8-10.1,17.1-12.4,28c-2.3,10.9-9.6,49-10.1,60.1c-0.9,20.1-2.6,23.6-5.4,43.5c-1.3,9.1-3.6,13.8,0.5,21.6
						c4.1,7.7,12.1,11.3,19.7,13.5c10.8,3.2,11.4,2.4,22.6,4c11.2,1.6,22.3,3.2,33.5,4.8c17.7,2.5,35.6,5.1,53.5,3.9
						c2.7-0.2,5.5-0.5,7.9-1.9c6.4-3.8,7.8-13.5,8.2-21.7C257,372.7,259.7,327.4,262.4,282.1"/>
				</g>
				<g>
					<g>
						<path class="st3" d="M265.2,282.1c-0.9-7.6-5.5-12.9-13-14.7c-3.3-0.8-6.6-0.9-9.9-1c-5.8-0.2-11.6-0.5-17.4-0.9
							c-21.9-1.6-43.3-6-65-8.9c-9.7-1.3-22-1.3-29.4,6.4c-6.2,6.5-7.3,16.2-9,24.6c-2.8,14.1-5.6,28.1-7.9,42.3
							c-1,6.4-2.1,12.8-2.6,19.2c-0.6,8.7-1.1,17.3-2.5,25.9c-1.5,9.6-3.6,19.2-4.6,28.9c-1,9.4,4.2,17.9,12.1,22.8
							c7.3,4.6,16.5,6.9,25,7.9c11.4,1.4,22.8,3,34.2,4.7c12.4,1.8,24.8,3.7,37.4,4.8c6.3,0.5,12.6,0.8,18.9,0.7
							c5.2-0.1,11.4,0.2,16-2.6c7.8-4.6,9-15.1,9.6-23.2c0.9-13.1,1.6-26.2,2.3-39.3c1.5-26,3.1-52,4.6-78.1
							C264.5,295.1,264.9,288.6,265.2,282.1c0.2-3.7-5.5-3.6-5.7,0c-1.4,24.1-2.9,48.3-4.3,72.4c-0.7,12.2-1.4,24.3-2.2,36.5
							c-0.7,11.1-0.6,22.5-2.2,33.5c-0.6,4-1.6,8.6-4.6,11.5c-3.8,3.6-10.6,3-15.4,3c-12,0.2-23.9-1.1-35.8-2.7
							c-11.7-1.6-23.4-3.3-35.1-5c-8.4-1.2-17.1-1.6-25.3-3.7c-8.4-2.1-18.2-5-22.9-12.9c-2.4-4.1-2.7-8.2-2-12.7
							c0.9-5,1.6-10.1,2.4-15.1c1.2-7.4,2.5-14.8,3.3-22.3c0.7-7.1,0.8-14.2,1.7-21.3c1.8-14.1,4.5-28.2,7.3-42.1
							c1.2-6.1,2.4-12.2,3.7-18.4c1.8-8.7,4.2-16.9,13.4-19.9c10.4-3.3,22-0.1,32.4,1.7c9.7,1.6,19.4,3.1,29.1,4.4
							c9.9,1.3,19.8,2.1,29.8,2.7c6.6,0.4,15.1-0.8,21.3,2.5c3.1,1.6,4.8,4.5,5.3,8C260,285.7,265.7,285.7,265.2,282.1L265.2,282.1z
							"/>
					</g>
				</g>
			</g>
			<g>
				<g>
					<path class="st7" d="M239.8,314.6c-0.8-7.5-8.2-8.2-11.8-8.3c-20.5-0.6-39.7-3.8-59.9-7.2c-6.6-1.1-13.6-2.8-19.7,0.4
						c-5.9,3.1-8.7,7.6-10.2,14.6c-1.5,7-3.6,21.6-4,28.8c-0.6,13-3,25.8-4.9,38.7c-0.9,5.9-1.5,12.4,1.3,17.4c2.7,5,8,7.3,13.1,8.8
						c7.2,2.1,14.7,3.2,22.1,4.2c7.4,1,14.9,2.1,22.3,3.1c11.8,1.7,23.7,3.3,35.7,2.6c1.8-0.1,3.6-0.3,5.3-1.2
						c4.3-2.4,5.2-8.7,5.5-14C236.3,373.2,238.1,343.9,239.8,314.6"/>
				</g>
				<g>
					<g>
						<path class="st3" d="M242.6,313.9c-1.7-12.2-16.6-10.3-25.5-10.9c-16-1.2-31.8-3.8-47.6-6.4c-6.5-1.1-13.4-2.8-19.9-0.6
							c-5.1,1.8-9.4,5.5-11.8,10.4c-2.3,4.8-3.1,10.2-3.9,15.4c-0.9,5.9-1.8,11.7-2.3,17.7c-0.6,7-1,13.9-1.9,20.9
							c-1.1,7.8-2.5,15.5-3.5,23.4c-0.8,6.2-0.8,13,2.9,18.3c3.5,4.9,9.3,7.3,15,8.8c7.3,2,14.8,3,22.2,4c8.3,1.2,16.5,2.3,24.8,3.5
							c7.8,1.1,15.6,2.1,23.5,2.3c6.1,0.2,14.5,1.1,18.8-4.2c4.2-5.1,3.9-12.8,4.3-19c0.5-9.2,1.1-18.4,1.6-27.6
							c1.1-18.4,2.2-36.8,3.3-55.2c0.2-3.7-5.5-3.6-5.7,0c-1.7,29.1-3.4,58.1-5.2,87.2c-0.3,5-0.6,12.1-6.8,12.9
							c-6.8,0.9-14,0.2-20.8-0.5c-14.3-1.4-28.6-3.7-42.8-5.8c-10.4-1.5-28.5-2.8-29.8-16.3c-0.6-6.6,1.1-13.6,2.1-20.1
							c1.1-6.9,2.1-13.8,2.8-20.7c1.1-10.7,1.7-21.3,3.6-31.9c0.8-4.6,1.6-9.6,4.6-13.4c3.7-4.7,9.4-5.9,15.1-5.4
							c7.6,0.7,15.2,2.5,22.7,3.6c7.6,1.2,15.1,2.3,22.7,3.1c7.6,0.9,15.3,1.4,22.9,1.7c4.4,0.2,8.3,1.3,9,6.2
							C237.6,319,243.1,317.5,242.6,313.9L242.6,313.9z"/>
					</g>
				</g>
			</g>
			<g>
				<g>
					<path class="st4" d="M231.8,289.7c-1.4,2.4-0.3,5,2.7,5.3c3,0.3,5.8-2.9,4.5-5.4C237.6,287.1,232.9,287.2,231.8,289.7"/>
				</g>
				<g>
					<path class="st4" d="M201.4,287.9c-1.9,3.1-0.4,6.4,3.5,6.8c3.9,0.4,7.4-3.8,5.8-7C208.9,284.5,202.8,284.6,201.4,287.9"/>
				</g>
				<g>
					<path class="st4" d="M217.2,288.7c-1.9,3.1-0.4,6.4,3.5,6.8c3.9,0.4,7.4-3.8,5.8-7C224.8,285.3,218.6,285.3,217.2,288.7"/>
				</g>
			</g>
			<g>
				<g>
					<path class="st6" d="M226.1,324.1c2,4.4-0.4,8.5-5.6,8.6c-5.2,0.1-9.3-5.9-6.6-10C216.6,318.6,224.8,319.5,226.1,324.1"/>
				</g>
			</g>
			<g>
				<g>
					<path class="st6" d="M153,388.4c2,4.4-0.4,8.5-5.6,8.6s-9.3-5.9-6.6-10C143.5,383,151.7,383.8,153,388.4"/>
				</g>
			</g>
			<g>
				<g>
					<path class="st3" d="M162.3,313.6c2,4.4-0.4,8.5-5.6,8.6c-5.2,0.1-9.3-5.9-6.6-10C152.7,308.1,160.9,309,162.3,313.6"/>
				</g>
			</g>
			<g>
				<g>
					<path class="st3" d="M218,397.8c2,4.4-0.4,8.5-5.6,8.6s-9.3-5.9-6.6-10C208.5,392.4,216.7,393.2,218,397.8"/>
				</g>
			</g>
			<g>
				<g>
					<path class="st6" d="M269.4,421.7c7.3-20.9,12-42.6,14-64.7c1.9-21,2.1-43.1-5.7-63.1c-1.3-3.4-6.8-1.9-5.5,1.5
						c7.6,19.6,7.3,41,5.5,61.6c-2,21.5-6.7,42.7-13.8,63.1C262.7,423.6,268.2,425.1,269.4,421.7L269.4,421.7z"/>
				</g>
			</g>
			<g>
				<g>
					<path class="st6" d="M287,344.8c-5.4,3.2-11,6-16.7,8.4c-3.4,1.4-0.5,6.3,2.9,4.9c5.7-2.5,11.3-5.3,16.7-8.4
						C293,347.9,290.1,343,287,344.8L287,344.8z"/>
				</g>
			</g>
			<g>
				<g>
					<path class="st6" d="M283.3,361.6c-2.7,2.1-5.9,3.6-9.2,4.5c-3.5,1-2,6.5,1.5,5.5c4.3-1.2,8.2-3.2,11.7-6c1.2-1,1-3,0-4
						C286.1,360.4,284.5,360.7,283.3,361.6L283.3,361.6z"/>
				</g>
			</g>
			<g>
				<g>
					<path class="st8" d="M180,347c-3.4,1.8-4.5-2.9-3.7-5.2c0.9-2.5,3.3-4.5,6-4.9c7-1.1,10.9,6.2,10.4,12.2
						c-0.2,2.6-1.1,5.3-3.3,6.9c-2.4,1.7-5.7,1.3-8,3c-2.1,1.6-2,3.8-1.7,6.2c0.4,3.7,0.8,7.4,1.2,11.1c0.4,3.6,6.1,3.6,5.7,0
						c-0.3-2.7-0.6-5.5-0.9-8.2c-0.1-0.8-0.9-4-0.5-4.7c-0.3,0.1-0.3,0.1,0.2,0c0.5-0.1,0.9-0.2,1.4-0.3c4.2-1.1,7.8-3.1,9.9-7.1
						c3.7-7.4,1.8-17.7-5.2-22.4c-7.1-4.8-17.1-2.3-20.3,5.9c-3,7.5,3.4,16.8,11.7,12.4C186.1,350.2,183.3,345.3,180,347L180,347z"
						/>
				</g>
			</g>
			<g>
				<g>
					<path class="st8" d="M183.5,390.1C183.5,390.1,183.6,390.1,183.5,390.1c-0.2,0.1-0.4,0.2-0.6,0.3c0,0,0,0,0.1,0
						c-0.3,0-0.5,0.1-0.8,0.1c0,0,0.1,0,0.1,0c-0.3,0-0.5-0.1-0.8-0.1c0,0,0.1,0,0.1,0c-0.2-0.1-0.5-0.2-0.7-0.3c0,0,0,0,0.1,0
						c-0.2-0.1-0.4-0.3-0.6-0.4c0,0,0.1,0.1,0.1,0.1c-0.1-0.2-0.3-0.4-0.4-0.6c0,0,0,0,0,0.1c-0.1-0.2-0.2-0.5-0.3-0.7
						c0,0,0,0,0,0.1c0-0.3-0.1-0.5-0.1-0.8c0,0,0,0,0,0.1c0-0.3,0.1-0.5,0.1-0.8c0,0,0,0,0,0.1c0.1-0.2,0.2-0.5,0.3-0.7
						c0,0,0,0,0,0.1c0.1-0.2,0.3-0.4,0.4-0.6c0,0-0.1,0.1-0.1,0.1c0.2-0.1,0.4-0.3,0.6-0.4c0,0-0.1,0.1-0.1,0.1
						c0.2-0.1,0.5-0.2,0.7-0.3c0,0,0,0-0.1,0c0.3,0,0.5-0.1,0.8-0.1c0,0-0.1,0-0.1,0c0.3,0,0.5,0.1,0.8,0.1c0,0,0,0-0.1,0
						c-0.3,1.9-0.5,3.7-0.8,5.6c0.4,0,0.7,0,1.1,0c0.7,0,1.5-0.3,2-0.8c0.5-0.5,0.9-1.3,0.8-2c0-0.7-0.3-1.5-0.8-2
						c-0.6-0.5-1.2-0.8-2-0.8c-0.4,0-0.7,0-1.1,0c-1.4,0-2.6,1.1-2.8,2.5c-0.2,1.4,0.7,2.7,2,3.1c2.2,0.6,4.4-1.2,4.1-3.5
						c-0.2-1.1-0.9-2-1.9-2.5c-1-0.4-2-0.3-3,0.1c-0.6,0.3-1.1,1.1-1.3,1.7c-0.2,0.7-0.1,1.6,0.3,2.2c0.4,0.6,1,1.1,1.7,1.3
						C182.1,390.6,182.8,390.4,183.5,390.1L183.5,390.1z"/>
				</g>
			</g>
		</g>
		<g>
			<g>
				<g>
					<path class="st2" d="M326.9,429.1c2.7-19.9,4.7-39.8,5.5-59.9c0.3-8.5,0.4-17.3-2.6-25.3c-2.4-6.5-6.8-12.2-11.5-17.2
						c-9.5-10.2-21.4-18.9-35-21.9c0,0-20.8-16.1-11.2-25s26.9,3,26.9,3c27.6,7.3,49,30.1,56,57.8s1.5,60-6,87.6
						c0,0-3.7,13.2-10.7,10.8S325.6,438.3,326.9,429.1z"/>
				</g>
				<g>
					<g>
						<path class="st3" d="M329.6,429.8c2.5-18.1,4.4-36.2,5.3-54.5c0.4-8.6,1-17.3-0.7-25.8c-1.4-7.6-5.1-14.2-9.9-20.2
							c-9.3-11.7-22-21.9-36.4-26.3c-1-0.3-2-0.5-2.9-0.8c-0.5-0.1,0.6,0.6,0.1,0.4c-0.3-0.1-0.5-0.4-0.8-0.6
							c-1.3-1-2.6-2.2-3.8-3.4c-3-2.9-6.1-6.3-7.6-10.3c-1.8-4.7,1.3-8.3,6.2-9c4.8-0.7,9.9,1.2,14,3.3c1.3,0.7,2.6,1.5,3.9,2.2
							c1.8,1,4,1.4,6,2.1c6.5,2.2,12.6,5.4,18.3,9.3c11.2,7.8,20.2,18.7,26,31.1c6.7,14.4,8.5,30.5,8,46.2
							c-0.6,18-3.7,36.7-9.1,53.9c-0.9,2.8-2.7,8.3-6,8.9c-1.3,0.2-2.9-0.7-4.1-1c-1.3-0.3-2.6-0.5-3.8-0.8c-3-0.8-2.9-2.5-2.5-5.5
							c0.4-3.6-5.3-3.6-5.7,0c-0.7,6.2,1.8,9.9,7.9,11.2c5.5,1.2,10.2,3.2,14.6-1.5c2.5-2.7,4.1-6.4,5.2-9.9
							c2.6-8.5,4.4-17.4,6-26.2c5.9-33.2,5.5-69.2-17.1-96.3c-9.4-11.3-21.8-19.9-35.6-24.7c-1.9-0.7-3.8-1-5.5-1.9
							c-1.9-1-3.6-2.1-5.6-3c-5.1-2.3-10.7-3.9-16.3-2.9c-5.3,1-10.4,4.9-10.9,10.5c-0.4,5,2.5,9.7,5.5,13.4
							c2.5,3.1,5.3,5.9,8.3,8.4c1.5,1.2,3.1,1.5,4.9,2c4.3,1.2,8.5,3,12.4,5.3c8.4,4.8,15.7,11.6,21.9,19c6.7,8.2,9.7,17.2,9.9,27.7
							c0.2,11.1-0.7,22.4-1.6,33.5c-1,11.6-2.3,23.1-3.8,34.6C323.7,431.9,329.1,433.4,329.6,429.8z"/>
					</g>
				</g>
			</g>
			<g>
				<g>
					<path class="st2" d="M301.4,312.2c5.2-6,8.9-13.2,10.8-20.8"/>
				</g>
				<g>
					<g>
						<path class="st3" d="M303.4,314.2c5.5-6.5,9.4-13.9,11.5-22.1c0.9-3.5-4.6-5-5.5-1.5c-1.9,7.2-5.2,13.9-10.1,19.6
							C297,313,301,317,303.4,314.2L303.4,314.2z"/>
					</g>
				</g>
			</g>
			<g>
				<g>
					<path class="st3" d="M315,325.8c4.8-0.3,8-3.8,11.1-7.1c3.4-3.6,6.6-7.5,9.5-11.6c-1.6,0-3.3,0-4.9,0c0,0-0.1-0.1-0.1-0.1
						c-1.2,3.4,4.2,4.9,5.5,1.5c0.6-1.5,0.3-2.9-0.5-4.3c-1.1-2-3.7-1.7-4.9,0c-2.2,3.1-4.5,6-7.1,8.8c-2.1,2.3-5.3,6.8-8.6,7
						C311.4,320.3,311.4,326,315,325.8L315,325.8z"/>
				</g>
			</g>
			<g>
				<g>
					<path class="st3" d="M328.1,339.8c4.2-0.3,8.3-1.3,12-3.4c1.7-0.9,3.3-2,4.7-3.3c1.5-1.3,3.3-4.1,5.3-4.1
						c3.6-0.2,3.7-5.8,0-5.7c-4.3,0.2-6.3,3.3-9.3,5.8c-3.6,3-8.1,4.7-12.7,5C324.5,334.4,324.4,340.1,328.1,339.8L328.1,339.8z"/>
				</g>
			</g>
			<g>
				<g>
					<path class="st3" d="M333.5,358.5c-0.7,0.1-1.4,0.2-2.2,0.4c-3.3,0.5-2.3,5.5,0.8,5.6c8.5,0.2,16.7-2,24.1-6.3
						c3.1-1.9,0.3-6.8-2.9-4.9c-6.5,3.8-13.7,5.7-21.2,5.5c0.3,1.9,0.5,3.7,0.8,5.6c0.7-0.1,1.4-0.2,2.2-0.4
						C338.6,363.4,337,357.9,333.5,358.5L333.5,358.5z"/>
				</g>
			</g>
			<g>
				<g>
					<path class="st3" d="M334,386.9c7.3,1.3,14.5,1.4,21.8,0.3c3.6-0.5,2.1-6-1.5-5.5c-6.2,0.9-12.6,0.8-18.8-0.3
						C331.9,380.8,330.4,386.3,334,386.9L334,386.9z"/>
				</g>
			</g>
			<g>
				<g>
					<path class="st3" d="M331.8,408c6.4,0.7,12.8,0.8,19.2,0.3c3.6-0.3,3.7-6,0-5.7c-6.4,0.5-12.8,0.4-19.2-0.3
						C328.2,401.9,328.2,407.6,331.8,408L331.8,408z"/>
				</g>
			</g>
			<g>
				<g>
					<path class="st3" d="M329.7,424.8c3.4,0.7,24.9,4.2,20.5-4.5c-1.7-3.3-6.6-0.4-4.9,2.9c0.1,0.1,0.1,0.3,0.2,0.4
						c0-1,0-1.9,0-2.9c0.4-0.7-1.9-0.3-2.3-0.3c-1.4,0-2.7,0-4.1,0c-2.7-0.1-5.3-0.5-7.9-1C327.6,418.6,326.1,424,329.7,424.8
						L329.7,424.8z"/>
				</g>
			</g>
		</g>
		<g>
			<g>
				<path class="st2" d="M291.2,281.8c-3.5,4.8-6.6,15.2-6.2,21.1"/>
			</g>
			<g>
				<g>
					<path class="st3" d="M288.7,280.3c-4.3,6.2-6.9,15-6.6,22.6c0.1,3.6,5.8,3.7,5.7,0c-0.3-6.6,2-14.3,5.9-19.7
						C295.7,280.2,290.8,277.4,288.7,280.3L288.7,280.3z"/>
				</g>
			</g>
		</g>
		<g>
			<g>
				<g>
					<path class="st4" d="M202.5,232.8c-4,0.5-5.4,3.7-5.6,5.1c-0.1,1.3-0.2,2.7,0.4,4c0.8,1.6,2.8,2.7,4.7,3.6
						c6.6,2.9,14.3,3.9,21.3,2.7c0.9-0.2,1.8-0.4,2.4-0.9c0.6-0.5,0.8-1.2,0.9-1.8c0.7-2.4,1.1-5.4-1.4-7.1
						C225.4,238.4,221.2,230.6,202.5,232.8z"/>
				</g>
				<g>
					<g>
						<path class="st4" d="M201.8,230c-6.3,1.1-10.4,8.9-6.1,14.3c2.5,3.1,7.1,4.6,10.8,5.6c4.4,1.2,9.2,1.7,13.8,1.4
							c3.5-0.3,7.4-0.6,9-4.2c1.2-2.8,1.6-6.8-0.4-9.4c-1.4-1.8-3.3-3.8-5.4-5c-6.2-3.6-14-3.7-20.8-2.9c-3.6,0.4-3.6,6.1,0,5.7
							c5.4-0.6,11.3-0.8,16.4,1.3c1.2,0.5,2.4,1.3,3.2,2c0.3,0.2,0.5,0.5,0.8,0.8c-0.6-0.6-0.1-0.1,0,0c1.2,1.4,2.5,3.9,0.6,5.4
							c-1,0.8-4.2,0.5-5.5,0.6c-2.1,0-4.2-0.1-6.3-0.4c-3.4-0.6-8.6-1.5-11.1-4c-2.6-2.5,0.2-5.4,2.7-5.8
							C206.9,234.9,205.3,229.4,201.8,230z"/>
					</g>
				</g>
			</g>
			<g>
				<g>
					<path class="st4" d="M224.4,250.1c0.4,2.2,0.6,4.5-0.7,6.3c-1.4,2-4.3,3.1-7.3,3.4s-6.1-0.2-9.2-0.7c-5.2-0.9-11.4-2.5-13-6.4
						c-1.3-3.2,1.1-6.2,3.4-8.8"/>
				</g>
				<g>
					<g>
						<path class="st4" d="M221.7,250.9c0.7,4-1.4,5.7-5.2,6.1c-3.4,0.4-6.9-0.2-10.2-0.9c-2.5-0.5-5.1-1.1-7.3-2.4
							c-3.6-2.3-1.6-5.1,0.7-7.7c2.4-2.7-1.6-6.7-4-4c-3.4,3.7-6.4,8.6-3.2,13.4c2.6,3.9,7.9,5.3,12.2,6.2c5.4,1.1,11.4,2.1,16.7,0
							c5.4-2.2,6.7-6.8,5.8-12.2C226.6,245.8,221.1,247.3,221.7,250.9L221.7,250.9z"/>
					</g>
				</g>
			</g>
			<g>
				<g>
					<path class="st6" d="M224.4,243.4c0.4,5.6-17.3,0.1-19.6-0.9c-2.2-1-4.1,2.3-1.9,3.3c5.2,2.3,10.8,3.8,16.5,3.8
						c3.6,0,9.1-1.5,8.8-6.1C228,241,224.2,241,224.4,243.4L224.4,243.4z"/>
				</g>
			</g>
			<g>
				<g>
					<path class="st6" d="M221,253.7c-1.7,2.7-6.3,2.6-9.1,2.4c-4.2-0.2-8.2-1.2-11.7-3.7c-2-1.4-3.9,1.9-1.9,3.3
						c4.5,3.2,10.4,4.4,15.8,4.2c3.9-0.1,7.9-0.9,10.1-4.4C225.6,253.6,222.3,251.7,221,253.7L221,253.7z"/>
				</g>
			</g>
		</g>
		<g>
			<g>
				<path class="st4" d="M264.1,247.5c5.8-1.7,17.7-8.8,23.3-14.5c1.9-1.9,3.7-3.7,5-6c1.7-3,2.2-6.5,2.7-9.9
					c4.6-30.3,9.1-60.8,7.9-91.4c-30.3-7.9-61-14.5-91.9-19.8c-1.9-0.3-3.9-0.6-5.8-0.1c-1.8,0.5-3.3,1.9-4.7,3.2
					c-4.3,4-8.5,8.2-12.5,12.5c0.9,0,1.7,0,2.6,0"/>
			</g>
			<g>
				<g>
					<path class="st4" d="M264.8,250.2c6.7-2,13-6.1,18.6-10.2c6.1-4.5,11.9-9.9,13.6-17.6c2.3-9.9,3.2-20.4,4.6-30.5
						c1.4-10.1,2.6-20.2,3.4-30.4c1-12,1.3-24,0.9-35.9c0-1.2-0.8-2.4-2.1-2.7c-21.2-5.5-42.5-10.4-63.9-14.6c-5.3-1-10.5-2-15.8-3
						c-5-0.9-10.2-2.2-15.3-2.6c-4.7-0.4-7.7,2-11,5.1c-4,3.8-7.9,7.7-11.7,11.7c-1.7,1.8-0.5,4.8,2,4.8c0.9,0,1.7,0,2.6,0
						c3.7,0,3.7-5.7,0-5.7c-0.9,0-1.7,0-2.6,0c0.7,1.6,1.3,3.2,2,4.8c3.4-3.6,6.8-7.1,10.4-10.5c1.5-1.4,3.1-3.4,5-4.2
						c2.4-1,5.4-0.1,7.8,0.4c10,1.7,19.9,3.6,29.8,5.6c19.8,4,39.5,8.6,59.1,13.6c-0.7-0.9-1.4-1.8-2.1-2.7c0.9,25-1.9,50-5.5,74.7
						c-0.9,6-1.7,12.1-2.7,18c-1,5.6-3.2,9.3-7.2,13.2c-5.8,5.5-13.8,10.9-21.6,13.2C259.8,245.8,261.3,251.3,264.8,250.2
						L264.8,250.2z"/>
				</g>
			</g>
		</g>
		<g>
			<g>
				<path class="st2" d="M193.4,228c22.6,4.9,43.7,14.4,66.4,19.3c1.4,0.3,2.9,0.6,4.3,0.2c2.7-0.9,3.8-4.1,4.4-6.9
					c7.1-31.6,11.1-60.5,10.4-92.9c-0.1-2.8-0.3-6-2.2-8c-1.7-1.7-4.3-2.2-6.6-2.6c-25.8-4.2-51.5-8.4-77.3-12.6
					c-2.7-0.4-5.8-0.8-7.8,1c-1.4,1.2-1.9,3.1-2.4,4.9c-7.7,29.3-12.4,51.8-16.9,81.2c-0.3,2-1,4.1,0,5.9c1,1.9,4.9,5.1,7,5.6
					C181.6,225.7,185.2,226.7,193.4,228"/>
			</g>
			<g>
				<g>
					<path class="st3" d="M192.6,230.8c14.5,3.2,28.5,8.2,42.7,12.7c7.1,2.3,14.2,4.4,21.4,6c2.9,0.7,5.9,1.6,8.8,0.4
						c2.4-1,3.9-3.1,4.8-5.5c2.4-6.3,3.2-13.6,4.5-20.2c1.4-7.3,2.6-14.7,3.6-22c2-14.4,3.2-28.9,3.3-43.5c0-3.6,0.1-7.3,0-10.9
						c-0.1-3-0.3-6.1-2-8.7c-3.5-5.3-12-5.1-17.5-6c-15.3-2.5-30.7-5-46-7.5c-7.7-1.3-15.4-2.6-23.2-3.8c-5.7-0.9-10.7,0.2-12.8,6.2
						c-2.4,6.9-3.7,14.3-5.4,21.4c-1.6,6.8-3.2,13.6-4.6,20.5c-1.6,7.5-3,15.1-4.4,22.7c-0.7,4.2-1.4,8.4-2.1,12.5
						c-0.6,3.4-1.7,7.2-1.6,10.7c0.2,5.5,6.5,9.4,11.3,10.7C179.8,228.2,186.1,229.7,192.6,230.8c3.6,0.6,5.1-4.9,1.5-5.5
						c-5-0.8-9.9-1.8-14.8-3.2c-2.3-0.6-4.8-1-6.9-2c-1.5-0.8-4.1-2.5-4.7-4.2c-0.4-1.3,0.4-3.4,0.6-4.6c0.3-1.6,0.5-3.2,0.8-4.7
						c0.6-3.4,1.1-6.9,1.7-10.3c1-5.8,2.1-11.7,3.2-17.5c2.4-12,5.1-23.9,8.1-35.8c0.8-3.1,1.6-6.2,2.4-9.3c0.9-3.4,1.2-6.7,5.4-6.6
						c6.3,0.2,12.9,2,19.2,3c13.7,2.2,27.4,4.5,41.1,6.7c6.6,1.1,13.3,2,19.9,3.3c3,0.6,5.1,1.4,5.7,4.6c0.6,3.1,0.3,6.6,0.3,9.8
						c0,26.2-3.3,52.1-8.7,77.7c-0.7,3.3-1.1,6.9-2.3,10.1c-0.5,1.4-1,2.4-2.5,2.6c-1.6,0.3-3.9-0.6-5.5-1c-7-1.7-14-3.7-20.8-6
						c-13.9-4.5-27.8-9.4-42.1-12.6C190.6,224.5,189.1,230,192.6,230.8L192.6,230.8z"/>
				</g>
			</g>
		</g>
		<g>
			<g>
				<path class="st6" d="M258.4,183.3c1.5-9.4,3.1-18.9,4.6-28.3c0.2-1.3,0.4-2.9-0.6-3.9c-0.6-0.6-1.4-0.9-2.3-1
					c-25.4-2.8-40.2-17.1-59.3-11.9c-0.7,0.2-1.5-0.1-2.2,0.2c-1.2,0.5-1.6,1.9-2,3.1c-2.5,8.8-5.7,21.1-7.1,30
					c20.2,5.5,40.7,10.3,61.2,14.3C253.2,186.4,258.3,185.7,258.4,183.3"/>
			</g>
			<g>
				<g>
					<path class="st6" d="M261.1,184c1-6.2,2-12.3,3-18.5c0.5-2.9,0.9-5.7,1.4-8.6c0.3-2.1,0.8-4.3-0.1-6.3
						c-1.9-4.3-8.5-3.7-12.4-4.5c-4.6-1-9-2.3-13.5-3.8c-7.9-2.7-15.6-6.2-23.9-7.5c-3.7-0.6-7.5-0.7-11.2-0.2
						c-3.8,0.5-8.1,0.6-9.9,4.4c-2.2,4.6-3,10.3-4.2,15.2c-1.4,5.5-2.6,11-3.6,16.6c-0.3,1.5,0.4,3.1,2,3.5
						c14.1,3.8,28.3,7.3,42.5,10.5c6.5,1.4,13.4,3.5,20,4.1C254.8,189.2,260.4,188.2,261.1,184c0.6-3.6-4.9-5.1-5.5-1.5
						c-0.4,2.7-26.9-4.1-30-4.8c-11.8-2.7-23.6-5.7-35.3-8.8c0.7,1.2,1.3,2.3,2,3.5c1.4-8.3,3.5-16.5,5.6-24.6
						c0.5-1.8,0.8-3.7,1.5-5.4c0.7-1.6,2.5-1.5,4.2-1.9c3.2-0.6,6.6-0.7,9.8-0.3c6.9,0.9,13.5,3.6,20,5.9c7.6,2.8,15.2,5.2,23.2,6.4
						c0.8,0.1,3.1,0,3.6,0.5c0.4,0.4-0.3,2.6-0.4,3c-0.5,2.9-0.9,5.7-1.4,8.6c-1,5.9-1.9,11.9-2.9,17.8
						C255,186.1,260.5,187.6,261.1,184L261.1,184z"/>
				</g>
			</g>
		</g>
		<g>
			<g>
				<path class="st3" d="M262.2,158.9c0-1.6,0-3.2-0.1-4.8c-0.1-1.2-0.3-2.4-1.4-3.2c-2.1-1.6-5.9-1.5-8.3-1.4
					c-2.4,0.1-2.4,3.9,0,3.8c0.9,0,1.8,0,2.7,0c0.6,0,2.5,0,3,0.5c0.4,0.4,0.2,1.5,0.2,2.1c0,1,0.1,2,0.1,3
					C258.5,161.3,262.3,161.4,262.2,158.9L262.2,158.9z"/>
			</g>
		</g>
		<g>
			<g>
				<path class="st3" d="M198.3,170.2c-1.1-0.3-3.9-0.7-4.2-1.8c-0.2-0.7,0.2-1.9,0.3-2.6c0.1-1,0.3-1.9,0.5-2.8
					c0.5-2.4-3.2-3.4-3.7-1c-0.5,2.4-1.7,6.2-0.6,8.5c1.1,2.4,4.4,2.8,6.6,3.5C199.6,174.6,200.6,170.9,198.3,170.2L198.3,170.2z"/>
			</g>
		</g>
		<g>
			<g>
				<path class="st5" d="M277,142.6c10.5-3,16.3-15.7,27-17.9c-33.1-7.4-66.5-13.4-100-18c-1.1-0.2-2.2-0.3-3.3,0
					c-1.4,0.5-2.4,1.7-3.3,2.9c-3.8,4.9-7.5,10.1-10.9,15.3c10.7-0.4,21.4,1,32,2.4c19.8,2.7,39.9,5.4,58.1,13.5"/>
			</g>
			<g>
				<g>
					<path class="st4" d="M277.8,145.3c5.3-1.7,9.4-5.1,13.4-8.8c4-3.7,8-7.8,13.5-9.1c2.7-0.6,2.7-4.9,0-5.5
						c-22.4-5-44.9-9.4-67.5-13.1c-11-1.8-22.1-3.8-33.2-5c-5.2-0.5-7.6,2.3-10.5,6.2c-3.3,4.4-6.5,8.9-9.4,13.5
						c-1.2,1.8,0.4,4.3,2.5,4.3c15.4-0.5,30.9,2.1,46.1,4.4c14.5,2.2,29.1,5.2,42.6,11.1c3.3,1.5,6.2-3.4,2.9-4.9
						c-14-6.1-28.9-9.4-43.9-11.7c-15.7-2.4-31.7-5.2-47.7-4.6c0.8,1.4,1.6,2.8,2.5,4.3c2.8-4.3,5.7-8.4,8.7-12.5
						c1.4-1.9,2.6-4.5,5.2-4.4c2.5,0,5.2,0.7,7.7,1.1c10.4,1.5,20.8,3.1,31.2,4.9c20.6,3.5,41.1,7.5,61.4,12.1c0-1.8,0-3.7,0-5.5
						c-11.2,2.6-16.3,14.6-27,17.9C272.8,140.9,274.3,146.4,277.8,145.3L277.8,145.3z"/>
				</g>
			</g>
		</g>
		<g>
			<g>
				<path class="st4" d="M274,128c-7.6-1.1-15.2-2.6-22.7-4.4c-0.4-0.1-0.7-0.2-1-0.5c-0.3-0.4-0.3-0.9-0.2-1.3
					c0.5-5.1,0.9-10.1,1.4-15.2l25.3,3.1c-1.5,6.1-2.2,12.5-2.1,18.8c2.5-0.7,5.2-1.5,6.4-3.7c0.7-1.3,0.8-2.9,0.8-4.4
					c0-5-0.4-10.1-1.3-15c-0.3-1.6-0.6-3.2-1.4-4.6"/>
			</g>
			<g>
				<g>
					<path class="st4" d="M274.7,125.3c-4-0.6-8-1.3-12-2c-1.8-0.4-3.6-0.7-5.4-1.1c-1.5-0.3-4.3-0.5-5.6-1.4
						c0.4,0.6,0.9,1.1,1.3,1.7c-0.7-1.8,0.3-5.6,0.5-7.6c0.2-2.7,0.5-5.4,0.7-8.2c-0.9,0.9-1.9,1.9-2.8,2.8c8.4,1,16.8,2.1,25.3,3.1
						c-0.9-1.2-1.8-2.4-2.7-3.6c-1.5,6.4-2.3,13-2.2,19.6c0,1.8,1.8,3.2,3.6,2.7c2.6-0.7,5.3-1.6,7.2-3.8c1.9-2.1,2.1-5,2.1-7.7
						c0-6.6-0.3-14.4-3.1-20.5c-1.5-3.3-6.4-0.4-4.9,2.9c1.9,4.2,2.1,9.7,2.3,14.2c0.1,1.9,0.5,4.7-0.2,6.5c-0.7,2-3,2.4-4.9,2.9
						c1.2,0.9,2.4,1.8,3.6,2.7c0-6.1,0.7-12.1,2-18.1c0.5-2-0.9-3.4-2.7-3.6c-8.4-1-16.8-2.1-25.3-3.1c-1.6-0.2-2.7,1.5-2.8,2.8
						c-0.3,3.9-0.7,7.8-1,11.7c-0.3,2.9-1,6.2,2.1,7.7c3.1,1.5,7.6,1.9,11,2.6c4.2,0.8,8.4,1.5,12.6,2.2
						C276.8,131.3,278.3,125.8,274.7,125.3L274.7,125.3z"/>
				</g>
			</g>
		</g>
		<g>
			<g>
				<path class="st4" d="M233.7,120.7c-8.3-1.1-16.4-2.8-24.5-5.1c-0.4-0.1-0.7-0.2-0.9-0.5c-0.1-0.2-0.2-0.5-0.2-0.8
					c-0.3-5.1-0.7-10.2-1-15.3l28.3,3c-1.5,6.1-2.2,12.5-2.1,18.8c2.5-0.7,5.2-1.5,6.4-3.7c0.7-1.3,0.8-2.9,0.8-4.4
					c0-5-0.4-10.1-1.3-15c-0.3-1.6-0.6-3.2-1.4-4.6"/>
			</g>
			<g>
				<g>
					<path class="st4" d="M234.4,117.9c-6.7-1-13.3-2.2-19.9-3.9c-0.8-0.2-4.1-0.5-4.6-1.2c1.1,1.6,0.7-2.7,0.7-3.2
						c-0.2-3.5-0.5-7.1-0.7-10.6c-0.9,0.9-1.9,1.9-2.8,2.8c9.4,1,18.9,2,28.3,3c-0.9-1.2-1.8-2.4-2.7-3.6c-1.5,6.4-2.3,13-2.2,19.6
						c0,1.8,1.8,3.2,3.6,2.7c2.6-0.7,5.3-1.6,7.2-3.8c1.9-2.1,2.1-5,2.1-7.7c0-6.6-0.3-14.4-3.1-20.5c-1.5-3.3-6.4-0.4-4.9,2.9
						c1.9,4.2,2.1,9.7,2.3,14.2c0.1,1.9,0.5,4.7-0.2,6.5c-0.7,2-3,2.4-4.9,2.9c1.2,0.9,2.4,1.8,3.6,2.7c0-6.1,0.7-12.1,2-18.1
						c0.5-1.9-0.9-3.4-2.7-3.6c-9.4-1-18.9-2-28.3-3c-1.5-0.2-2.9,1.4-2.8,2.8c0.3,4.1,0.5,8.2,0.8,12.3c0.2,3.1,0.1,5.8,3.4,7
						c7.8,2.7,16.4,3.9,24.5,5.1C236.5,123.9,238,118.5,234.4,117.9L234.4,117.9z"/>
				</g>
			</g>
		</g>
		<g>
			<g>
				<path class="st6" d="M277.5,112.2c-0.5-3.9,2.1-9.1,1.6-13c0-0.3-0.1-0.6-0.5-0.8c-0.3-0.2-0.7-0.2-1.1-0.2
					c-7.2-0.8-14.5-1.6-21.7-2.5c-0.5-0.1-1-0.1-1.4,0c-0.4,0.1-0.5,0.4-0.6,0.6c-1.8,3.5-2.9,7.2-3.5,10.9c0,0.3-0.1,0.7,0.4,1
					c0.4,0.2,0.9,0.3,1.4,0.4C260.5,109.8,269,111.1,277.5,112.2"/>
			</g>
			<g>
				<g>
					<path class="st4" d="M280.3,112.2c-0.3-4.8,5.2-15.2-2.1-16.7c-4.6-0.9-9.4-1.1-14-1.6c-2.2-0.3-4.4-0.5-6.6-0.8
						c-1.6-0.2-3.3-0.6-4.8,0.3c-2.7,1.6-3.9,6.9-4.5,9.7c-0.8,3.1-1.6,6.6,2.1,8c4,1.4,9,1.4,13.1,2c4.7,0.7,9.4,1.3,14.1,1.9
						c3.6,0.5,3.6-5.2,0-5.7c-4.6-0.6-9.2-1.2-13.8-1.9c-2-0.3-4-0.6-6-0.9c-1.2-0.2-2.4-0.4-3.6-0.5c-0.4-0.1-0.8-0.1-1.2-0.2
						c-0.8-0.1-1-0.2-0.5-0.1c0.3,0.7,0.6,1.3,0.8,2c0-1.9,0.7-4,1.3-5.8c0.4-1,0.9-2,1.2-3.1c0.8-1.1,0.8-1.4-0.1-0.7
						c-0.8,0.4-0.8,0.5,0.1,0.4c1.4,0.7,4.4,0.5,6,0.7c2.2,0.3,4.4,0.5,6.6,0.8c2,0.2,4,0.5,6,0.7c0.2,0,2.9,0.3,2.8,0.3
						c-0.8-1.2-1.1-1.3-1-0.5c0,0.5,0,1-0.1,1.5c-0.5,3.4-1.8,6.6-1.5,10.1C274.9,115.8,280.6,115.8,280.3,112.2L280.3,112.2z"/>
				</g>
			</g>
		</g>
		<g>
			<g>
				<path class="st6" d="M234.6,105.3c-0.5-3.9,2.1-9.1,1.6-13c0-0.3-0.1-0.6-0.5-0.8c-0.3-0.2-0.7-0.2-1.1-0.2
					c-7.2-0.8-14.5-1.6-21.7-2.5c-0.5-0.1-1-0.1-1.4,0c-0.4,0.1-0.5,0.4-0.6,0.6c-1.8,3.5-2.9,7.2-3.5,10.9c0,0.3-0.1,0.7,0.4,1
					c0.4,0.2,0.9,0.3,1.4,0.4C217.6,103,226.1,104.2,234.6,105.3"/>
			</g>
			<g>
				<g>
					<path class="st4" d="M237.4,105.3c-0.3-4.8,5.2-15.2-2.1-16.7c-4.6-0.9-9.4-1.1-14-1.6c-2.2-0.3-4.4-0.5-6.6-0.8
						c-1.6-0.2-3.3-0.6-4.8,0.3c-2.7,1.6-3.9,6.9-4.5,9.7c-0.8,3.1-1.6,6.6,2.1,8c4,1.4,9,1.4,13.1,2c4.7,0.7,9.4,1.3,14.1,1.9
						c3.6,0.5,3.6-5.2,0-5.7c-4.6-0.6-9.2-1.2-13.8-1.9c-2-0.3-4-0.6-6-0.9c-1.2-0.2-2.4-0.4-3.6-0.5c-0.4-0.1-0.8-0.1-1.2-0.2
						c-0.8-0.1-1-0.2-0.5-0.1c0.3,0.7,0.6,1.3,0.8,2c0-1.9,0.7-4,1.3-5.8c0.4-1,0.9-2,1.2-3.1c0.8-1.1,0.8-1.4-0.1-0.7
						c-0.8,0.4-0.8,0.5,0.1,0.4c1.4,0.7,4.4,0.5,6,0.7c2.2,0.3,4.4,0.5,6.6,0.8c2,0.2,4,0.5,6,0.7c0.2,0,2.9,0.3,2.8,0.3
						c-0.8-1.2-1.1-1.3-1-0.5c0,0.5,0,1-0.1,1.5c-0.5,3.4-1.8,6.6-1.5,10.1C232,108.9,237.7,108.9,237.4,105.3L237.4,105.3z"/>
				</g>
			</g>
		</g>
		<g>
			<g>
				<path class="st4" d="M272.1,120.4c-1.5-2.3-2.9-4.5-4.3-6.9"/>
			</g>
			<g>
				<g>
					<path class="st6" d="M273.7,119.5c-1.5-2.3-2.9-4.5-4.3-6.9c-1.3-2.1-4.5-0.2-3.3,1.9c1.4,2.3,2.8,4.6,4.3,6.9
						C271.8,123.4,275.1,121.5,273.7,119.5L273.7,119.5z"/>
				</g>
			</g>
		</g>
		<g>
			<g>
				<path class="st4" d="M266.2,123.3c-2.9-4-5.9-7.9-9.2-11.6"/>
			</g>
			<g>
				<g>
					<path class="st6" d="M267.8,122.4c-3-4.2-6.1-8.2-9.5-12c-1.6-1.8-4.3,0.9-2.7,2.7c3.2,3.6,6.2,7.3,9,11.2
						C265.9,126.3,269.2,124.4,267.8,122.4L267.8,122.4z"/>
				</g>
			</g>
		</g>
		<g>
			<g>
				<path class="st4" d="M256.7,123c-0.6-1.1-1.4-2.2-2.3-3.1"/>
			</g>
			<g>
				<g>
					<path class="st6" d="M258.4,122.1c-0.7-1.3-1.6-2.4-2.6-3.5c-0.7-0.7-2-0.7-2.7,0c-0.7,0.7-0.7,1.9,0,2.7
						c0.8,0.9,1.4,1.6,2,2.7c0.5,0.9,1.7,1.2,2.6,0.7C258.6,124.1,258.9,123,258.4,122.1L258.4,122.1z"/>
				</g>
			</g>
		</g>
		<g>
			<g>
				<path class="st4" d="M229.9,111.9c-1-1.9-2.4-3.6-4-5.1"/>
			</g>
			<g>
				<g>
					<path class="st6" d="M231.5,110.9c-1.1-2-2.6-3.9-4.3-5.5c-1.8-1.7-4.5,1-2.7,2.7c1.5,1.4,2.7,2.9,3.7,4.7
						C229.4,114.9,232.7,113,231.5,110.9L231.5,110.9z"/>
				</g>
			</g>
		</g>
		<g>
			<g>
				<path class="st4" d="M223.9,116.6c-2.7-3.3-5.7-6.4-8.8-9.3"/>
			</g>
			<g>
				<g>
					<path class="st6" d="M225.3,115.2c-2.8-3.3-5.7-6.4-8.8-9.3c-1.8-1.7-4.4,1-2.7,2.7c3.1,2.9,6,6.1,8.8,9.3
						C224.2,119.8,226.8,117.1,225.3,115.2L225.3,115.2z"/>
				</g>
			</g>
		</g>
		<g>
			<g>
				<path class="st4" d="M215.4,115.7c-1.5-1.2-2.8-2.5-3.8-4.1"/>
			</g>
			<g>
				<g>
					<path class="st6" d="M216.7,114.4c-1.3-1.1-2.5-2.3-3.5-3.7c-0.6-0.8-1.7-1.2-2.6-0.7c-0.8,0.5-1.3,1.7-0.7,2.6
						c1.2,1.7,2.5,3.2,4.1,4.5c0.8,0.6,1.9,0.8,2.7,0C217.4,116.4,217.5,115,216.7,114.4L216.7,114.4z"/>
				</g>
			</g>
		</g>
		<g>
			<g>
				<path class="st6" d="M283.1,236.1c8.6-29.5,12.7-60.1,12.3-90.8c0-2.4-3.8-2.4-3.8,0c0.4,30.4-3.7,60.7-12.1,89.8
					C278.7,237.4,282.4,238.4,283.1,236.1L283.1,236.1z"/>
			</g>
		</g>
		<g>
			<g>
				<path class="st6" d="M297.8,171c-3.2,1-6.4,1.6-9.8,1.8c-2.4,0.2-2.4,3.9,0,3.8c3.7-0.2,7.3-0.9,10.8-2
					C301.2,173.9,300.2,170.3,297.8,171L297.8,171z"/>
			</g>
		</g>
		<g>
			<g>
				<path class="st6" d="M298.7,165.7c-3.7-0.4-7.4-0.2-11.1,0.5c-2.4,0.4-1.4,4.1,1,3.7c3.3-0.6,6.7-0.7,10.1-0.3
					C301.1,169.7,301.1,165.9,298.7,165.7L298.7,165.7z"/>
			</g>
		</g>
		<g>
			<g>
				<path class="st6" d="M293.3,214.1c-3.9,1.3-7.7,2.6-11.6,3.9c-2.3,0.8-1.3,4.4,1,3.7c3.9-1.3,7.7-2.6,11.6-3.9
					C296.6,217,295.6,213.3,293.3,214.1L293.3,214.1z"/>
			</g>
		</g>
		<g>
			<g>
				<path class="st6" d="M293.5,207.7c-3.8,1.6-7.6,3.3-11.3,4.9c-2.2,1-0.3,4.2,1.9,3.3c3.8-1.6,7.6-3.3,11.3-4.9
					C297.6,210,295.7,206.8,293.5,207.7L293.5,207.7z"/>
			</g>
		</g>
		<g>
			<g>
				<g>
					<path class="st8" d="M257.4,207.9c0.6-4.6,1.5-9.2,2.6-13.8c0.8-3.6-4.6-5.1-5.5-1.5c-1.1,4.5-1.9,9.1-2.6,13.8
						C251.5,209.9,257,211.5,257.4,207.9L257.4,207.9z"/>
				</g>
			</g>
			<g>
				<g>
					<path class="st8" d="M248.1,200.8c4.2,0.8,8.5,1.7,12.7,2.5c3.6,0.7,5.1-4.8,1.5-5.5c-4.2-0.8-8.5-1.7-12.7-2.5
						C246.1,194.6,244.6,200,248.1,200.8L248.1,200.8z"/>
				</g>
			</g>
		</g>
		<g>
			<g>
				<path class="st8" d="M178.8,188.7c3.6,0.5,7.2,1.3,10.7,2.3c3.5,1,5-4.5,1.5-5.5c-3.5-1-7-1.8-10.7-2.3c-1.5-0.2-3,0.4-3.5,2
					C176.4,186.5,177.3,188.4,178.8,188.7L178.8,188.7z"/>
			</g>
		</g>
		<g>
			<g>
				<path class="st5" d="M196.5,203.3c0.5-2.3,1.6-7.4,2.1-9.7c0.1-0.4,0.1-0.8,0.4-1.1c0.3-0.3,0,0,0.4,0
					c15.2-0.5,31.9,6.7,42.8,17.4c0.7,0.6,0,0,0.2,0.9c0.3,0.9,0,1.9-0.2,2.8c-1.2,4.2-3.2,8.2-5.8,11.7c-3.5-0.1-5.4-3.6-8.3-5.7
					C218.7,212.6,207.3,207.9,196.5,203.3"/>
			</g>
			<g>
				<g>
					<path class="st4" d="M198.3,203.8c0.4-1.8,0.8-3.5,1.1-5.3c0.2-0.9,0.4-4.3,1-4.8c-1-0.1-2-0.3-3-0.4c1,1.4,2.8,1,4.3,1
						c2.9,0.1,5.8,0.4,8.7,0.9c5.7,1.1,11.3,3.2,16.5,5.9c2.4,1.2,4.6,2.6,6.8,4.1c1.3,0.9,2.6,1.9,3.9,3c0.7,0.6,2,2.3,2.9,2.6
						c0.5,0.6,0.6,0.4,0.3-0.6c0.1-1.1,0-1.2-0.2-0.5c-0.1,0.3,0,0.6,0,0.9c-0.1,1.5-0.3,2.8-0.8,4.4c-1.2,3.3-2.9,6.3-4.9,9.2
						c0.5-0.3,1.1-0.6,1.6-0.9c-3.1-0.3-5.4-4-7.8-5.8c-3.1-2.3-6.5-4.3-9.9-6.1c-6.9-3.7-14.1-6.7-21.3-9.8
						c-2.2-0.9-4.1,2.3-1.9,3.3c10.8,4.6,22.9,8.9,32,16.5c2.3,1.9,5.7,6.8,9.4,5.6c1.9-0.6,3.2-3.9,4.1-5.5
						c1.3-2.4,2.4-4.9,3.1-7.5c0.3-1.2,0.3-2.1,0.3-3.3c0,1.3,0-0.6,0-0.6c-0.5-1.8-2.2-3-3.7-4.2c-3.6-3.1-7.6-5.8-11.9-8
						c-4.6-2.4-9.4-4.3-14.5-5.6c-2.4-0.6-4.8-1.1-7.3-1.4c-1.3-0.2-2.6-0.3-3.9-0.3c-1,0-3.5-0.8-2.5,0.8c-0.7-1.1-2-1.2-3-0.4
						c-1.3,1-1.3,3.4-1.6,4.8c-0.5,2.3-1,4.6-1.5,7C194.2,205.2,197.8,206.2,198.3,203.8L198.3,203.8z"/>
				</g>
			</g>
		</g>
		<g>
			<g>
				<path class="st4" d="M203.3,201.2c12.4,1.1,23.9,6.5,31.6,16.5c1.5,1.9,4.2-0.8,2.7-2.7c-8.3-10.7-20.9-16.4-34.3-17.6
					C200.9,197.2,200.9,201,203.3,201.2L203.3,201.2z"/>
			</g>
		</g>
		<g>
			<g>
				<path class="st3" d="M237.8,166c-0.2-1-0.3-1.9-0.2-3c0.1-0.6,0.7-1.6,0.7-2.1c0.4-0.4,0.2-0.6-0.6-0.7c0,0.3,0.1,0.5,0.1,0.8
					c-0.1,0.8,0.1,1.8,0,2.6c-0.1,0.6-0.6,1.7-0.5,2.3c-0.3,0.7,0,0.8,1.1,0.4c-0.1-0.2-0.1-0.4-0.2-0.6c0.3-1.6-0.2-3,0.5-4.6
					c0.4-1.1,1.6-2.9,1.5-0.6c0,1.5-0.4,3-1.1,4.3c-0.3,0.6-0.9,1.1-1.1,1.7c-0.2,0.5-0.2,1.5-0.4,0.4c-0.2-1.6,0-3.1,1-4.4
					c2.3-2.8-1.7-6.9-4-4c-2.2,2.8-3.4,6.3-2.5,9.9c0.9,3.5,4.3,5.5,7.7,3.8c5.2-2.7,9.4-14.5,3-17.9c-3.3-1.8-7,0.3-8.7,3.2
					c-1.8,3-2.4,7.4-1.1,10.7c1.2,3.1,5.2,5,8,2.4c2.6-2.5,2.8-7.5,2.3-10.9c-0.5-3.7-4.2-6.3-7.7-4.1c-3.8,2.3-4.2,7.9-3.3,11.8
					C233.1,171,238.6,169.5,237.8,166L237.8,166z"/>
			</g>
		</g>
		<g>
			<g>
				<path class="st3" d="M211.8,160.3c-0.2-0.7-0.2-1.3-0.1-2c0-0.2,0.4-1,0.3-1.1c-0.1-0.4,1.3,0.4-0.7,0.3c-0.5-0.1-1-0.3-1.4-0.4
					c-0.8-0.4-0.2-0.7-0.2,0c0,0.3,0.1,0.6,0,0.9c-0.1,0.3-0.2,0.6-0.3,0.9c0,0,0.8-0.2,0-0.1c0.5,0,1,0,1.5,0
					c0.2,0.2,0.4,0.5,0.6,0.7c0,0,0,0,0,0c0.1-0.1,0-1.1,0-1.3c0-0.2,0.2-0.5,0.1-0.7c-0.1-0.3,0.5-0.1-0.4,0.1c-0.5,0-1,0-1.5,0
					c0.1,0,0.2,0.1,0.3,0.1c-0.4-0.2-0.8-0.5-1.3-0.7c-0.6-0.7-0.1-0.3-0.1-0.1c-0.3,1.3,0.3-0.6-0.1,0.7c-0.1,0.4-0.3,0.6-0.6,0.8
					c1.4,0.6,2.8,1.1,4.2,1.7c-0.2,0.4-0.1,0.4,0-0.1c0.6-1.4-0.6-3.1-2-3.5c-1.6-0.4-2.9,0.5-3.5,2c-0.4,1-0.4,2.1,0,3.1
					c0.5,1.7,2.6,2.7,4.2,1.7c2.1-1.3,3.4-3.5,3.4-6c0-2.5-1.5-5.7-4.6-5.1c-4.6,1-5.5,9.6-1.6,11.8c2.6,1.5,5.4-0.5,6.4-2.9
					c1-2.2,1.1-5.2-0.3-7.4c-1.7-2.7-5.4-2.2-7,0.3c-1.5,2.3-1.6,5.3-1,7.9C207.1,165.3,212.6,163.8,211.8,160.3L211.8,160.3z"/>
			</g>
		</g>
		<g>
			<g>
				<g>
					<path class="st2" d="M167.8,91.7c-3.2-2.9-6.7-5.9-10.9-6.7c-5.9-1.1-12.3,2.9-14,8.8c-1.6,5.9,1.8,12.8,7.4,15
						c-0.7,0.7-1.5,1.4-2.2,2.1"/>
				</g>
				<g>
					<g>
						<path class="st4" d="M169.8,89.7c-3.9-3.5-8.3-7.2-13.8-7.6c-4.9-0.4-9.9,1.8-13,5.6c-6.3,7.6-3.2,19.7,5.8,23.6
							c-0.2-1.5-0.4-3-0.6-4.5c-0.7,0.7-1.5,1.4-2.2,2.1c-2.6,2.5,1.4,6.5,4,4c0.7-0.7,1.5-1.4,2.2-2.1c1.2-1.1,1.1-3.7-0.6-4.5
							c-5.9-2.6-8.7-10.2-4.1-15.3c5.8-6.5,13-1.9,18.1,2.7C168.5,96.2,172.5,92.2,169.8,89.7L169.8,89.7z"/>
					</g>
				</g>
			</g>
			<g>
				<g>
					<path class="st5" d="M205.1,104.9c-8.5-3.7-14.7-11.9-23.7-14.5c-4.9-1.4-10.3-0.9-15.2,0.4c-5.7,1.6-11.2,4.5-14.9,9
						s-5.6,10.9-3.7,16.6c1,3.2,3.1,5.9,5.3,8.5c8.1,9.6,17.7,17.9,28.3,24.5c3.7-3,6.9-6.6,9.4-10.6c-4.4-4-8.9-8-13.3-12
						c-2.1-1.9-4.2-3.8-5.4-6.3s-1.3-5.7,0.5-7.8c1.7-2,4.7-2.4,7.2-1.8c2.5,0.6,4.7,2.2,6.8,3.7c5.2,3.9,10.2,8,15,12.3
						c3.6-5.2,6.5-9.2,10.1-14.4c0.4-0.6,0.8-1.3,0.7-2c-0.2-0.8-1-1.2-1.7-1.5c-2.7-1.2-4.5-3.8-7.2-5"/>
				</g>
				<g>
					<g>
						<path class="st4" d="M206.5,102.4c-7.8-3.5-13.5-10.3-21.3-13.6c-8.4-3.6-18-2.1-26,1.6c-7.7,3.6-13.9,10.3-15,18.9
							c-1.2,9.2,5.1,16.2,10.9,22.4c7.3,7.8,15.6,14.5,24.6,20.2c1.1,0.7,2.5,0.4,3.4-0.4c3.9-3.2,7.1-6.9,9.8-11.2
							c0.6-1,0.5-2.6-0.4-3.4c-4.1-3.7-8.3-7.4-12.4-11.2c-2.2-2-9.7-8.4-5-11.5c3.7-2.5,8.9,2.3,11.6,4.4
							c4.3,3.3,8.5,6.8,12.6,10.5c1.4,1.3,3.4,1,4.5-0.6c1.9-2.7,3.8-5.4,5.7-8.1c1.7-2.4,4.4-5.2,5.3-8c0.7-2.4-0.5-4.4-2.5-5.6
							c-2.6-1.6-4.9-3.8-7.6-5.2c-3.2-1.7-6.1,3.2-2.9,4.9c1.9,1,3.4,2.5,5.1,3.7c0.3,0.2,2.4,1.8,2.1,0.9c0.1,0.4-1.8,2.5-2,2.8
							c-2.7,3.9-5.4,7.7-8.1,11.6c1.5-0.2,3-0.4,4.5-0.6c-5.3-4.8-10.9-9.4-16.7-13.6c-4.4-3.1-11-5.4-15.6-1.2
							c-4.6,4.1-3,10.8,0.5,15c4.8,5.8,11.4,10.6,17,15.6c-0.1-1.1-0.3-2.3-0.4-3.4c-2.5,3.8-5.4,7.1-8.9,10
							c1.1-0.1,2.3-0.3,3.4-0.4c-8.6-5.4-16.5-11.8-23.4-19.3c-3.3-3.5-7.3-7.4-8.8-12.1c-1.6-4.7,0-10,3-13.8
							c5.9-7.4,18.3-11.4,27.4-8.7c8.8,2.5,14.8,10.5,23,14.2C207,108.8,209.9,104,206.5,102.4L206.5,102.4z"/>
					</g>
				</g>
			</g>
			<g>
				<g>
					<path class="st3" d="M198.1,104.3c-1.4,1.8-2.8,3.7-4.2,5.5c-0.7,0.9-1.4,1.8-2.1,2.8c-0.4,0.5-0.7,0.9-1.1,1.4
						c-0.8,0.7-0.7,0.9,0.1,0.6c0.7,0.3,1.3,0.6,2,0.8c-0.1-0.1-0.2-0.2-0.3-0.3c-2.5-2.7-6.5,1.3-4,4c2.8,3,5.7-0.5,7.3-2.6
						c2.4-3.1,4.8-6.2,7.2-9.3c0.9-1.2,0.2-3.2-1-3.9C200.5,102.4,199,103.1,198.1,104.3L198.1,104.3z"/>
				</g>
			</g>
			<g>
				<g>
					<path class="st3" d="M176.9,130.5c-2.5,2.9-5.1,5.7-7.6,8.6c-2.4,2.7,1.6,6.8,4,4c2.5-2.9,5.1-5.7,7.6-8.6
						C183.3,131.8,179.3,127.8,176.9,130.5L176.9,130.5z"/>
				</g>
			</g>
		</g>
	</g>
</g>
<g>
	<g>
		<path class="st9" d="M361.3,276.2c12.4-24.9,19.4-52.9,19.4-82.6c0-102.4-83.1-185.5-185.5-185.5S9.6,91.2,9.6,193.6
			c0,102.4,83.1,185.5,185.5,185.5c37.9,0,73.1-11.4,102.5-30.9c6.6,24.4,29,42.4,55.5,42.4c31.8,0,57.5-25.7,57.5-57.5
			C410.6,304.1,389.2,280.1,361.3,276.2z M195.1,354.6c-88.9,0-161-72.1-161-161c0-88.9,72.1-161,161-161s161,72.1,161,161
			C356.1,282.5,284,354.6,195.1,354.6z M353.1,373.6c-22.4,0-40.5-18.1-40.5-40.5c0-22.4,18.1-40.5,40.5-40.5s40.5,18.1,40.5,40.5
			C393.6,355.5,375.5,373.6,353.1,373.6z"/>
	</g>
</g>
<g class="st10">
	<path class="st11" d="M214.1,336.6c-88.9,0-161-72.1-161-161c0-41.3,15.6-79,41.2-107.5c-36.7,29.5-60.2,74.8-60.2,125.5
		c0,88.9,72.1,161,161,161c47.6,0,90.4-20.7,119.8-53.5C287.4,323.3,252.3,336.6,214.1,336.6z"/>
</g>
<g class="st12">
	<path class="st2" d="M182.1,50.6c88.9,0,161,72.1,161,161c0,31.2-8.9,60.3-24.2,85c23.2-27.9,37.2-63.8,37.2-103
		c0-88.9-72.1-161-161-161c-57.7,0-108.4,30.4-136.8,76C87.9,73.2,132.4,50.6,182.1,50.6z"/>
</g>
<g>
	<circle class="st2" cx="353.1" cy="333.1" r="40.5"/>
	<g>
		<path class="st11" d="M391.1,333.1c-0.1,15.7-10,30.3-24.9,35.7c-15.1,5.5-32.2,0.8-42.5-11.6c-10.2-12.2-11.3-30.2-3.1-43.7
			c8.2-13.6,24.5-20.8,40.1-17.6c15.4,3.2,27.4,15.8,30,31.3C391,329.2,391.1,331.1,391.1,333.1c0,3.2,5,3.2,5,0
			c-0.1-18-11.4-34.2-28.3-40.4c-16.8-6.2-36.4-0.9-47.8,12.9c-11.5,14-13.2,34.1-3.8,49.7c9.3,15.5,27.7,23.5,45.4,20
			c17.2-3.4,31.2-17.9,33.9-35.2c0.4-2.3,0.6-4.6,0.6-6.9C396.1,329.9,391.1,329.9,391.1,333.1z"/>
	</g>
</g>
<g>
	<path class="st13" d="M188.1,20.1c102.4,0,181.5,75.1,181.5,177.5c0,36.9-2.5,44.5-8.5,78.5c13-35,19.5-37.1,19.5-82.5
		c0-102.4-83.1-185.5-185.5-185.5C129.6,8.1,72,42.1,39,93.5C73,52.9,131,20.1,188.1,20.1z"/>
</g>
<g>
	<path class="st14" d="M200.1,366.1c-102.4,0-184.5-83.1-184.5-185.5c0-34,10.1-65.8,27.4-93.2C22,117.5,9.6,154.1,9.6,193.6
		c0,102.4,83.1,185.5,185.5,185.5c34.1,0,66.1-9.2,93.6-25.3C264.4,361.9,227.7,366.1,200.1,366.1z"/>
</g>
<g class="st10">
	<path class="st11" d="M359.1,364.6c-22.4,0-40.5-18.1-40.5-40.5c0-6.4,1.5-12.4,4.1-17.7c-6.3,7.1-10.1,16.5-10.1,26.7
		c0,22.4,18.1,40.5,40.5,40.5c16,0,29.9-9.3,36.4-22.8C382.1,359.3,371.3,364.6,359.1,364.6z"/>
</g>
<g>
	<g>
		<path class="st15" d="M341.3,345.5c0.1,0.3,0.1,0.7,0.2,1c0.1,0.7,0.1,1.3,0.7,1.7c0.6,0.4,1.2,0.2,1.8,0c0.5-0.2,1-0.3,1.5-0.2
			l20.1-30.1l-4.1-2.7L341.3,345.5z"/>
	</g>
	<polygon class="st16" points="360.4,309.4 362.9,305.6 360.4,309.4 360.4,309.4 	"/>
	<path class="st17" d="M366.6,307.6l-2.7,4l4.1,2.7l2-3c1.2-1.7,3.1-3.6,1.4-4.8l1.3,0.8l-1.6-1
		C369.2,305.3,367.7,305.9,366.6,307.6z"/>
	<path class="st16" d="M368.2,304.6c-1.7-1.2-4.1-0.7-5.2,1C364.1,303.9,366.4,303.4,368.2,304.6z"/>
	<polygon class="st18" points="360.4,309.4 360.4,309.4 360.4,309.4 360.4,309.4 360.4,309.4 	"/>
	<polygon class="st18" points="360.4,309.4 358.8,311.8 360.4,309.4 	"/>
	<polygon class="st18" points="368.8,319.9 370,318 368.8,319.9 	"/>
	<path class="st19" d="M340.3,347.3l-0.8-0.1l-4.9,10.6l8.9-6.8l0.3-0.3l1.6-2.5c-0.4-0.1-0.9,0.1-1.3,0.2c-0.7,0.2-1.3,0.4-2,0
		c-0.7-0.4-0.7-1.1-0.8-1.8c0-0.3-0.1-0.6-0.1-0.9l-0.6,0.8C340.4,346.7,340.3,347,340.3,347.3z"/>
	<path class="st18" d="M344,348.2c-0.6,0.2-1.2,0.4-1.8,0c-0.6-0.4-0.7-1-0.7-1.7c0-0.4-0.1-0.7-0.2-1l-0.1,0.1
		c0.3,0.9,0,2.1,0.9,2.7c1.1,0.7,2.2-0.4,3.3-0.2l0.1-0.1C345,347.9,344.5,348.1,344,348.2z"/>
	<path class="st18" d="M342.1,348.3c-1-0.6-0.6-1.8-0.9-2.7l-0.1,0.1c0.1,0.3,0.1,0.6,0.1,0.9C341.3,347.2,341.4,347.9,342.1,348.3
		c0.6,0.5,1.3,0.3,1.9,0.1c0.4-0.1,0.9-0.3,1.3-0.2l0.1-0.1C344.3,347.9,343.2,349,342.1,348.3z"/>
	<polygon class="st18" points="371,306.5 368.2,304.6 371,306.5 	"/>
	<path class="st20" d="M338.4,344.8c0.7-0.3,1.3-0.7,2.1-0.3c0.4,0.2,0.6,0.6,0.8,0.9l20.2-30.3l-3.4-2.3l-21.3,32l-0.1,0.3l0,0
		C337.3,345.4,337.8,345.1,338.4,344.8z"/>
	<path class="st21" d="M363.9,311.7l2.7-4c1.2-1.7,2.7-2.3,4.4-1.2l-2.8-1.9c-1.7-1.2-4.1-0.7-5.2,1l-2.5,3.8L363.9,311.7z"/>
	
		<rect x="359.1" y="310.3" transform="matrix(0.5552 -0.8317 0.8317 0.5552 -99.1622 439.1631)" class="st22" width="3.9" height="4"/>
	<path class="st18" d="M340.5,344.7c0.4,0.2,0.6,0.6,0.7,0.9l0.1-0.1C341.2,345.1,340.9,344.8,340.5,344.7c-0.8-0.5-1.5-0.2-2.1,0.2
		c-0.6,0.3-1.1,0.6-1.7,0.3l0,0l0,0.1C338,345.8,339,343.9,340.5,344.7z"/>
	<polygon class="st2" points="371.1,316.5 371.1,316.5 373.6,312.7 	"/>
	<path class="st23" d="M365.6,317.9L345.5,348c0.2,0,0.5,0.1,0.7,0.3c0.7,0.6,0.7,1.4,0.6,2.1c-0.1,0.6-0.1,1.2,0.3,1.7l0,0l0.3-0.2
		l21.3-32l0,0L365.6,317.9z"/>
	<path class="st24" d="M369.9,311.4l-2,3l3.1,2.1l2.5-3.8c1.2-1.7,0.7-4.1-1-5.2l-1.3-0.8C373,307.8,371.1,309.7,369.9,311.4z"/>
	
		<rect x="366.4" y="315.3" transform="matrix(0.5553 -0.8317 0.8317 0.5553 -99.9711 447.3637)" class="st25" width="3.9" height="3.6"/>
	<path class="st26" d="M343.4,350.9l-8.9,6.8l-2,4.2c0.1,0.1,0.2,0.2,0.3,0.3c0.3,0.2,0.7,0.3,1.1,0l13-10c-0.4-0.5-0.4-1.2-0.3-1.8
		c0.1-0.7,0.1-1.4-0.5-1.9c-0.2-0.2-0.5-0.3-0.7-0.3l-1.6,2.5L343.4,350.9z"/>
	<path class="st2" d="M346.8,350.4c0.1-0.7,0.1-1.5-0.6-2.1c-0.2-0.2-0.5-0.3-0.7-0.3l-0.1,0.1c0.2,0,0.5,0.1,0.7,0.3
		c1.3,1.1-0.1,2.7,0.9,3.8l0.1-0.1l0,0C346.7,351.7,346.7,351.1,346.8,350.4z"/>
	<path class="st27" d="M340.4,344.7c-0.7-0.4-1.3-0.1-2,0.3c-0.5,0.3-1.1,0.6-1.8,0.4l-4.3,15.8c0,0.1,0,0.3,0,0.4
		c0,0.1,0.1,0.3,0.2,0.4l2-4.2l4.2-7.6l1.6-2.8c0.1-0.3,0.2-0.5,0.4-0.8l0.6-0.8C341.1,345.3,340.9,345,340.4,344.7z"/>
	
		<rect x="362.8" y="312.3" transform="matrix(0.5553 -0.8317 0.8317 0.5553 -99.5781 443.3452)" class="st0" width="3.9" height="4.9"/>
	<g>
		<g>
			<path class="st11" d="M373.3,306.2c-1.5-1-2.9-2-4.4-2.9c-1.7-1.1-3.8-1.1-5.5-0.1c-1.1,0.7-1.7,1.7-2.4,2.7
				c-0.6,0.9-1.2,1.8-1.8,2.7c-0.5,0.7-0.1,1.6,0.5,2.1c2.6,1.8,5.3,3.5,7.9,5.3c0.9,0.6,1.8,1.2,2.7,1.8c0.7,0.5,1.6,0.1,2.1-0.5
				c0.8-1.2,1.6-2.4,2.4-3.6C376.4,311.1,375.7,307.9,373.3,306.2c-0.7-0.5-1.7-0.1-2.1,0.5c-0.4,0.7-0.1,1.6,0.5,2.1
				c0.3,0.2,0.6,0.6,0.8,1c0.1,0.2,0.2,0.8,0.1,1c-0.1,0.6-0.4,1.1-0.8,1.6c-0.7,1.1-1.4,2.2-2.2,3.2c0.7-0.2,1.4-0.4,2.1-0.5
				c-2.7-1.8-5.3-3.6-8-5.3c-0.9-0.6-1.8-1.2-2.6-1.8c0.2,0.7,0.4,1.4,0.5,2.1c0.5-0.7,0.9-1.4,1.4-2c0.4-0.6,0.9-1.5,1.4-2
				c0.8-0.8,1.9-0.9,3-0.2c0.8,0.5,1.6,1.1,2.4,1.6c0.6,0.4,1.3,0.9,1.9,1.3c0.7,0.4,1.7,0.1,2.1-0.5
				C374.3,307.5,374,306.7,373.3,306.2z"/>
		</g>
	</g>
	<g>
		<g>
			<path class="st11" d="M368.7,313.2c-2.5-1.7-5-3.4-7.5-5c-0.7-0.5-1.6-0.1-2.1,0.5c-1,1.5-2.1,3-3.1,4.5
				c-0.5,0.7-0.1,1.6,0.5,2.1c2.7,1.8,5.3,3.6,8,5.3c0.9,0.6,1.7,1.2,2.6,1.7c0.7,0.5,1.6,0.1,2.1-0.5c1-1.5,2.1-3,3.1-4.5
				c0.5-0.7,0.1-1.6-0.5-2.1C370.7,314.6,369.7,313.9,368.7,313.2c-1.6-1.1-3.1,1.5-1.5,2.6c1,0.7,2.1,1.4,3.1,2.1
				c-0.2-0.7-0.4-1.4-0.5-2.1c-1,1.5-2.1,3-3.1,4.5c0.7-0.2,1.4-0.4,2.1-0.5c-2.7-1.8-5.3-3.6-8-5.3c-0.9-0.6-1.7-1.2-2.6-1.8
				c0.2,0.7,0.4,1.4,0.5,2.1c1-1.5,2.1-3,3.1-4.5c-0.7,0.2-1.4,0.4-2.1,0.5c2.5,1.7,5,3.4,7.5,5
				C368.8,316.9,370.3,314.3,368.7,313.2z"/>
		</g>
	</g>
	<g>
		<g>
			<path class="st11" d="M365.5,317.9c-2.5-1.7-5-3.3-7.5-5c-0.7-0.5-1.6-0.1-2.1,0.5c-6.1,9.1-12.1,18.2-18.2,27.3
				c-0.8,1.2-2.1,2.6-2.5,4.1c-0.2,0.8,0.3,1.6,1,1.8c0.6,0.2,1.3,0.1,1.8,0c0.4-0.1,1.5-0.9,1.8-0.6c0.3,0.3,0.1,1.3,0.3,1.7
				c0.2,0.7,0.6,1.3,1.1,1.7c0.6,0.4,1.3,0.6,2,0.5c0.4,0,1.7-0.7,2-0.3c0.2,0.2-0.1,1.6,0,1.9c0.1,0.6,0.3,1.2,0.8,1.7
				c0.4,0.4,1.3,0.6,1.8,0.2c1.1-0.8,1.8-2.2,2.5-3.3c1.6-2.4,3.2-4.9,4.9-7.3c3.7-5.6,7.5-11.2,11.2-16.9c0.9-1.3,1.8-2.6,2.6-4
				c0.5-0.7,0.1-1.6-0.5-2.1C367.5,319.3,366.5,318.6,365.5,317.9c-1.6-1.1-3.1,1.5-1.5,2.6c1,0.7,2.1,1.4,3.1,2.1
				c-0.2-0.7-0.4-1.4-0.5-2.1c-6,9-12,18.1-18.1,27.1c-0.6,0.9-1.2,1.7-1.7,2.6c-0.2,0.2-0.3,0.5-0.5,0.7c-0.4,0.7,0.7-0.5,0.1-0.1
				c0.6,0.1,1.2,0.2,1.8,0.2c0.1,0.2,0.1-0.6,0.1-0.8c0-0.3,0-0.6,0-1c-0.1-0.8-0.4-1.5-1-2c-0.6-0.5-1.3-0.8-2.1-0.8
				c-0.4,0-1.9,0.5-2.1,0.4c-0.1-0.1-0.1-0.7-0.1-0.9c-0.1-0.4-0.1-0.8-0.3-1.2c-0.3-0.6-0.7-1.1-1.3-1.5c-0.7-0.4-1.5-0.5-2.3-0.3
				c-0.4,0.1-1.6,0.9-1.9,0.8c0.3,0.6,0.7,1.2,1,1.8c0.2-0.6-0.2,0.3,0-0.1c0.1-0.2,0.2-0.4,0.4-0.6c0.5-0.7,1-1.5,1.4-2.2
				c1.6-2.4,3.2-4.8,4.8-7.3c3.7-5.6,7.4-11.1,11.1-16.7c0.8-1.3,1.7-2.5,2.5-3.8c-0.7,0.2-1.4,0.4-2.1,0.5c2.5,1.7,5,3.3,7.5,5
				C365.6,321.6,367.1,319,365.5,317.9z"/>
		</g>
	</g>
	<g>
		<g>
			<path class="st11" d="M348.1,350.4c0.1-1.6-0.5-3.1-2.1-3.6c-0.7-0.2-1.4-0.1-2.1,0.1c-0.4,0.1-0.9,0.4-1.1,0.2
				c-0.1-0.2-0.1-0.6-0.1-0.8c0-0.4-0.1-0.8-0.2-1.2c-0.2-0.7-0.7-1.3-1.3-1.6c-0.7-0.4-1.6-0.5-2.4-0.2c-0.4,0.1-1.3,0.8-1.7,0.7
				c-0.8-0.2-1.6,0.2-1.8,1c-1.3,4.9-2.6,9.8-3.9,14.7c-0.3,0.9-0.6,1.9-0.1,2.9c0.8,1.6,2.6,1.6,3.9,0.6c2.2-1.7,4.4-3.4,6.6-5.1
				c2-1.5,4-3,5.9-4.6c0.6-0.5,1-1.3,0.5-2.1C348,351.1,348.1,350.8,348.1,350.4c0.2-1.9-2.8-1.9-3,0c-0.1,0.9,0,1.8,0.5,2.5
				c0.2-0.7,0.4-1.4,0.5-2.1c-3.8,2.9-7.6,5.9-11.5,8.8c-0.3,0.3-0.7,0.5-1,0.8c-0.1,0.1-0.5,0.3-0.5,0.4c0.1-0.4,1,0.5,0.7,0.7
				c0,0,0-0.2,0.1-0.2c0.1-0.3,0.2-0.6,0.2-0.9c0.7-2.7,1.5-5.4,2.2-8.1c0.6-2.2,1.2-4.4,1.8-6.6c-0.6,0.3-1.2,0.7-1.8,1
				c0.7,0.1,1.4,0.1,2.1-0.2c0.4-0.1,1-0.7,1.4-0.6c-0.3,0,0,0.6,0,0.8c0.1,0.6,0.2,1.2,0.5,1.7c0.7,1.2,2.1,1.7,3.4,1.4
				c0.3-0.1,1.1-0.5,1.4-0.4c0,0-0.1-0.1,0,0c0.1,0.1,0,0.6,0,0.7C344.9,352.3,347.9,352.3,348.1,350.4z"/>
		</g>
	</g>
	<g>
		<g>
			<path class="st11" d="M332.5,361.2c0,0.1,0,0.3,0,0.4c0,0.1,0.1,0.3,0.2,0.4c0.1,0.1,0.2,0.2,0.3,0.3c0.3,0.2,0.7,0.3,1.1,0
				l6.3-4.8c-1.7-1.5-3.7-2.7-5.8-3.3L332.5,361.2z"/>
		</g>
	</g>
</g>
<g>
	<path class="st14" d="M296.7,346.2c6.6,24.4,29,42.4,55.5,42.4c16,0,30.4-6.5,40.8-17c-9.5,6.9-21.2,11-33.8,11
		c-26.5,0-48.8-18-55.5-42.4L296.7,346.2z"/>
</g>
<g>
	<g>
		<path class="st13" d="M344.9,280.7"/>
	</g>
	<g>
		<path class="st13" d="M346.7,280.6c20.9-0.7,41,11,50.1,31.3c9.5,21.1,4,45-11.8,60.1c21.2-13,29.9-40,19.4-63.3
			C394.4,286.3,369.8,274.9,346.7,280.6z"/>
	</g>
</g>
<g>
	<g>
		<path class="st11" d="M363.4,277.5c18.4-37.1,24.1-79.8,16.1-120.4c-6.5-32.9-22-63.7-44.3-88.7c-22.2-24.8-50.9-43.5-82.6-53.7
			c-33.2-10.7-69.3-11.8-103.2-3.4c-32.4,8.1-62.4,25-86.2,48.4c-23.8,23.4-41.2,53.1-49.8,85.3c-9,33.5-8.5,69.5,1.5,102.7
			c9.6,32.1,27.9,61.4,52.5,84.1c24.6,22.7,55.1,38.7,87.8,45.7c39.1,8.4,80.4,4.1,116.9-12.3c9.3-4.2,18.2-9.1,26.7-14.7
			c-1.2-0.5-2.4-1-3.7-1.5c4.6,16.4,16.1,30.6,31.4,38.1c15.6,7.6,34.1,8.1,50.1,1.3c15-6.4,26.8-18.9,32.5-34.1
			c6.1-16,4.8-34.3-3.3-49.4c-8.9-16.6-25.5-28.3-44.1-31c-1.3-0.2-2.7,0.3-3.1,1.7c-0.3,1.2,0.4,2.9,1.7,3.1
			c15.3,2.2,29.3,10.7,38.1,23.6c8.7,13,11.7,29.3,7.8,44.4c-3.7,14.6-13.5,27.2-26.7,34.6c-13.8,7.7-30.7,8.9-45.5,3.5
			c-16.6-6-29.4-20.2-34.2-37.2c-0.4-1.5-2.3-2.4-3.7-1.5c-34.1,22.6-75.1,33.2-115.9,30c-32.9-2.6-64.8-14.3-91.6-33.4
			c-26.3-18.7-47.4-44.5-60.7-73.9C14.3,238,9.4,203.6,13.6,170.2c4.1-32.5,17.2-63.8,37.5-89.5c20-25.4,46.6-45.5,76.7-57.3
			c31.4-12.4,66.1-15.9,99.4-10c32.2,5.7,62.6,20.1,87.4,41.5c24.5,21.2,43.3,48.7,53.8,79.4c12.2,35.8,13,75.2,2.2,111.6
			c-3,10-6.8,19.7-11.4,29.1C357.7,277.8,362,280.3,363.4,277.5z"/>
	</g>
</g>
<g>
	<g>
		<path class="st11" d="M353.6,193.6c0,16.7-2.6,33.3-7.8,49.1c-4.9,15.2-12.2,29.6-21.5,42.7c-9.1,12.9-20.3,24.5-32.8,34.1
			c-12.7,9.7-26.8,17.5-41.8,23c-15.6,5.7-32,8.9-48.5,9.5c-16.7,0.6-33.4-1.3-49.4-5.9c-15.5-4.4-30.3-11.2-43.8-20
			c-13.2-8.7-25.1-19.4-35.2-31.6c-10.1-12.2-18.5-26.1-24.5-40.8c-6.2-15.2-10-31.3-11.3-47.6c-1.3-16.8,0-33.7,4-50
			c3.8-15.6,10-30.6,18.4-44.4C67.8,97.9,78.1,85.6,90,75c11.9-10.6,25.4-19.3,39.8-25.9c14.8-6.7,30.8-11.2,46.9-13
			c16.7-1.9,33.6-1.2,50.1,2.1c15.9,3.2,31.3,8.9,45.4,16.8c13.9,7.7,26.5,17.5,37.5,29c11,11.5,20.3,24.7,27.4,39
			c7.2,14.5,12.2,30.2,14.7,46.2C353,177.3,353.6,185.5,353.6,193.6c0,3.2,5,3.2,5,0c0-17.1-2.7-34.2-7.9-50.4
			c-5.1-15.7-12.6-30.6-22.1-44c-9.6-13.4-21.1-25.4-34.2-35.4c-13.1-10-27.6-18-43.1-23.7c-15.9-5.9-32.8-9.1-49.8-9.8
			c-17.2-0.7-34.5,1.4-51,6c-15.9,4.5-31.1,11.5-45,20.6c-13.7,9-26.1,20.1-36.5,32.7c-10.5,12.8-19,27-25.3,42.3
			c-6.4,15.6-10.3,32.3-11.6,49.1c-1.3,17.2,0.1,34.6,4.1,51.4c3.9,16.1,10.3,31.6,18.9,45.8c8.5,14,19.1,26.8,31.4,37.7
			c12.3,10.9,26.1,19.9,41.1,26.7c15.4,7,31.8,11.5,48.6,13.4c17.2,2,34.7,1.2,51.6-2.2c16.3-3.3,32.1-9.2,46.7-17.3
			c14.3-8,27.5-18.2,38.8-30c11.3-11.8,20.8-25.4,28.1-40c7.5-15,12.6-31.1,15.1-47.6c1.3-8.3,1.9-16.8,1.9-25.2
			C358.6,190.4,353.6,190.4,353.6,193.6z"/>
	</g>
</g>
</svg>
