<?xml version="1.0" encoding="utf-8"?>
<!-- Generator: Adobe Illustrator 24.2.0, SVG Export Plug-In . SVG Version: 6.00 Build 0)  -->
<svg version="1.1" id="Layer_1" xmlns="http://www.w3.org/2000/svg" xmlns:xlink="http://www.w3.org/1999/xlink" x="0px" y="0px"
	 viewBox="0 0 418 400" style="enable-background:new 0 0 418 400;" xml:space="preserve">
<style type="text/css">
	.st0{fill:#7DC4CA;}
	.st1{fill:#FFFFFF;}
	.st2{fill:#1D1D1B;}
	.st3{fill:#FFDA83;}
	.st4{clip-path:url(#SVGID_2_);}
	.st5{fill:none;}
	.st6{fill:#183E42;}
	.st7{fill:#FAC706;}
	.st8{fill:#183E41;}
	.st9{fill:#7EC7CD;}
	.st10{fill:#E4252E;}
	.st11{fill:#7CC6CD;}
	.st12{fill:#D2E8EB;}
	.st13{fill:#42797D;}
	.st14{opacity:0.32;}
	.st15{fill:#F7C402;}
	.st16{fill:#F72872;}
	.st17{fill:#E66869;}
	.st18{fill:#390075;}
	.st19{fill:#AA8B12;}
	.st20{fill:#993637;}
	.st21{fill:#729496;}
	.st22{fill:#FDEAAB;}
	.st23{fill:#F5C3C3;}
	.st24{fill:#E7F3F4;}
	.st25{fill:#FFF0D1;}
	.st26{fill:#BFA362;}
	.st27{fill:#C2E1E3;}
	.st28{opacity:0.42;}
</style>
<g>
	<g>
		<path class="st0" d="M363.2,278.7c12.4-24.9,19.4-52.9,19.4-82.6c0-102.4-83.1-185.5-185.5-185.5S11.6,93.7,11.6,196.1
			s83.1,185.5,185.5,185.5c37.9,0,73.1-11.4,102.5-30.9c6.6,24.4,29,42.4,55.5,42.4c31.8,0,57.5-25.7,57.5-57.5
			C412.6,306.6,391.1,282.6,363.2,278.7z"/>
	</g>
	<g>
		<circle class="st1" cx="355.1" cy="335.6" r="40.5"/>
		<g>
			<path class="st2" d="M393.1,335.6c-0.1,15.7-10,30.3-24.9,35.7c-15.1,5.5-32.2,0.8-42.5-11.6c-10.2-12.2-11.3-30.2-3.1-43.7
				c8.2-13.6,24.5-20.8,40.1-17.6c15.4,3.2,27.4,15.8,30,31.3C392.9,331.7,393.1,333.6,393.1,335.6c0,3.2,5,3.2,5,0
				c-0.1-18-11.4-34.2-28.3-40.4c-16.8-6.2-36.4-0.9-47.8,12.9c-11.5,14-13.2,34.1-3.8,49.7c9.3,15.5,27.7,23.5,45.4,20
				c17.2-3.4,31.2-17.9,33.9-35.2c0.4-2.3,0.6-4.6,0.6-6.9C398.1,332.4,393.1,332.4,393.1,335.6z"/>
		</g>
	</g>
	<g>
		<g>
			<circle class="st3" cx="197.1" cy="196.1" r="161"/>
		</g>
		<g>
			<defs>
				<circle id="SVGID_1_" cx="197.1" cy="196.1" r="161"/>
			</defs>
			<clipPath id="SVGID_2_">
				<use xlink:href="#SVGID_1_"  style="overflow:visible;"/>
			</clipPath>
			<g class="st4">
				<g>
					<path class="st5" d="M225.1,231.2c-0.5-1.6-1.8-2.2-3.1-2c-1.9,0.3-3.8,2.2-3,4.6c1.7,5.2,3,10.5,3.7,15.9
						c0,0.4,0.1,0.7,0.2,1.1c1.1-0.2,2.2-0.5,3.3-0.7c-0.7-6-2.1-12-4-17.7c2,5.7,3.3,11.7,4,17.7c0.4-0.1,0.8-0.2,1.3-0.3
						c0.8-0.2,1.6-0.3,2.5-0.5C229.1,243.3,226.9,236.7,225.1,231.2z"/>
					<path class="st5" d="M198.9,237.1c1.2,6.1,2.2,12.2,3.1,18.3c1.1-0.3,2.3-0.5,3.4-0.8c-0.2-0.9-0.4-1.9-0.6-2.9
						c-0.8-5.1-1.7-10.1-2.6-15.1c-0.4-2.1-2.3-2.9-3.9-2.7c-1.6,0.2-3.1,1.5-2.7,3.6c1,5,1.9,10,2.6,15.1c0.2,1.2,0.3,2.3,0.5,3.5
						c1.1-0.3,2.2-0.5,3.3-0.8C201.2,249.3,200.1,243.2,198.9,237.1z"/>
					<path class="st6" d="M213.6,256.8c0.1,0,0.3,0,0.4-0.1c0.3,0,0.6-0.1,0.9-0.1c1-0.2,3.2-0.5,3.8-0.9c0.6-0.6,0.4-2.5,0.2-3.9
						c-3.2,0.7-6.4,1.3-9.5,2C210.2,257.3,211.2,257.2,213.6,256.8z"/>
					<path class="st6" d="M226.1,250.3c0.1,1.1,0.3,2.2,0.3,3.4c0.1,1.4,0.2,2.8-0.2,4.2c-1,3.3-4.7,4.8-7.9,5.6
						c-2,0.5-4.1,0.8-6.2,1c-4.8,0.5-9.2-3-9.8-7.9c-0.1-0.4-0.1-0.8-0.2-1.1c-1.1,0.2-2.2,0.5-3.3,0.8c0.3,1.9,0.8,3.8,1.8,5.4
						c3.3,5.6,8.8,6.6,14.5,5.8c0.9-0.1,1.7-0.3,2.6-0.5c5.5-1.2,10.9-3.6,12-9.7c0.4-2.4,0.4-5,0.1-7.6c-0.8,0.2-1.6,0.3-2.5,0.5
						C226.9,250.1,226.5,250.2,226.1,250.3z"/>
					<path class="st6" d="M304.5,264.8c-5.5-10.2-12.4-22-25.4-22.5c-8.2-0.3-16.9,1.8-25,3c-6.8,1.1-13.6,2.3-20.4,3.5
						c0.4,3.1,0.4,6.1-0.1,9.1c-0.4,2.5-1.8,10-15,12.9c-1,0.2-2,0.4-2.9,0.5c-10.7,1.5-16-3.4-18.5-7.7c-1.3-2.2-1.9-4.4-2.2-6.6
						c-24,5.7-47.8,12.3-71.5,19.4c-0.5,0-0.9,0.2-1.3,0.4c-1.9,0.6-2.3,2.2-1.8,3.7c0.1,0.7,0.5,1.4,1.1,2
						c4.6,3.9,10.2,6.3,15.7,8.7c2.2,1,4.7,2.7,7.2,2.7c3.8,0,8.7-2.5,12.4-3.5c16-4.4,32.1-8.3,48.3-11.4c32-6.1,64.4-9,96.9-9.7
						C304,269.3,305.5,266.5,304.5,264.8z"/>
					<path class="st6" d="M202.2,256.6c0.7,4.9,5,8.4,9.8,7.9c2.1-0.2,4.1-0.6,6.2-1c3.3-0.8,6.9-2.4,7.9-5.6
						c0.4-1.3,0.3-2.8,0.2-4.2c-0.1-1.1-0.2-2.2-0.3-3.4c-1.1,0.2-2.2,0.4-3.3,0.7c0.4,2.5,0.7,5.6-1.2,7.5
						c-1.5,1.6-4.9,1.9-6.9,2.2c-0.2,0-0.4,0.1-0.6,0.1c-5.7,0.8-7.7-1.8-8.7-6.1c-1.1,0.3-2.3,0.5-3.4,0.8
						C202.1,255.8,202.2,256.2,202.2,256.6z"/>
					<path class="st1" d="M214.1,260.8c0.2,0,0.4-0.1,0.6-0.1c2-0.3,5.4-0.7,6.9-2.2c1.9-2,1.6-5,1.2-7.5c-1.3,0.3-2.6,0.5-3.9,0.8
						c0.2,1.5,0.4,3.4-0.2,3.9c-0.5,0.4-2.8,0.8-3.8,0.9c-0.3,0-0.6,0.1-0.9,0.1c-0.2,0-0.3,0-0.4,0.1c-2.4,0.3-3.4,0.5-4.3-3
						c-1.3,0.3-2.6,0.6-3.9,0.9C206.5,259,208.4,261.6,214.1,260.8z"/>
					<path class="st1" d="M215.6,271.4c0.9-0.1,1.9-0.3,2.9-0.5c13.3-2.9,14.6-10.5,15-12.9c0.5-2.9,0.5-6,0.1-9.1
						c-1.3,0.2-2.6,0.5-4,0.7c0.3,2.6,0.3,5.2-0.1,7.6c-1.1,6.1-6.5,8.5-12,9.7c-0.9,0.2-1.7,0.4-2.6,0.5
						c-5.7,0.8-11.2-0.2-14.5-5.8c-1-1.7-1.5-3.6-1.8-5.4c-1.3,0.3-2.6,0.6-3.9,0.9c0.4,2.1,1,4.4,2.2,6.6
						C199.7,268,204.9,272.9,215.6,271.4z"/>
				</g>
				<g>
					<path class="st1" d="M199.2,237.1c1.3,6.4,2.3,12.9,3.3,19.4c0.7,4.9,5,8.4,9.8,7.9c2.1-0.2,4.1-0.6,6.2-1
						c3.3-0.8,6.9-2.4,7.9-5.6c0.4-1.3,0.3-2.8,0.2-4.2c-0.6-7.2-2.1-14.3-4.4-21.1"/>
					<g>
						<path class="st6" d="M196.1,238c0.8,4.2,1.6,8.5,2.3,12.7c0.6,3.6,0.6,7.6,2.5,10.8c3.6,6.3,10.3,6.6,16.7,5.4
							c6.1-1.2,12.2-4.2,12.5-11.2c0.3-7.9-2.1-16.6-4.6-24c-1.3-3.9-7.5-2.2-6.2,1.7c1.9,5.8,3.4,11.8,4,17.8c0.3,2.3,1,5.2-0.9,7
							c-1.7,1.6-4.4,2-6.6,2.5c-5.8,1.1-9.4-0.1-10.4-6.2c-1-6.1-1.9-12.2-3.1-18.2C201.5,232.2,195.3,233.9,196.1,238L196.1,238z"
							/>
					</g>
				</g>
				<path class="st1" d="M198.5,288.2c1.3,2.3,1.7,5.2,1.4,8.6c0.4-0.1,0.8-0.2,1.2-0.2c3.3-0.5,6.6,0.4,9.2,2.4
					c2.5,1.9,4.1,4.7,4.5,7.8c0.4,3.2-0.2,6.8-3.9,9.7c4.9,2.7,8.6,7.8,7.9,13.5c-0.6,5-4.9,9.2-9.9,9.9c-2.2,0.3-4.4-0.1-6.3-1.2
					c-3-1.7-5.1-4-7.1-6.1c-0.8-0.8-1.5-1.6-2.2-2.3c0.1,1.9-0.1,3.8-0.3,5.5c0,0.4-0.1,0.7-0.1,1.1c-0.7,6.6-2.5,13-5.3,18.5
					c-4.6,9.3-10.4,19.6-19,25.8c-5.1,3.7-10.8,6-16.7,6.9c-0.4,0.1-0.9,0.1-1.4,0.1c0.6,18,1.1,35.9,0.9,53.9
					c63.1-3.6,124.7-18.3,187.2-26.2c0.1-1.9,0.3-3.7,0.5-5.6c0.1-0.9,0.3-4,0.3-3.6c-0.1-2.8-0.9-5.1-1.7-7.6
					c-2.4-8.2-4.7-16.4-6.8-24.6c-1.7-6.7-3.3-13.5-4.9-20.3c-5.1,4.6-11,7.5-17.3,8.3c-5.8,0.8-11.8,0-17.8-2.5
					c-13.7-5.6-24.8-17.3-32.3-33.7c-0.3-0.7-0.6-1.4-1-2c-0.9-1.8-1.9-3.9-2.4-6.1c-0.2,0.2-0.4,0.5-0.6,0.7
					c-1.1,1.4-2.4,3-4.5,4.2c-1.6,0.9-3.3,1.5-5.1,1.8c-5.8,0.8-10.9-2.5-12.6-8.1c-0.9-3-0.3-6.8,1.8-10c-3-1.9-5.4-5.1-5.8-10.4
					c-0.4-5.6,3.6-9.8,10.2-10.7c1.5-0.2,3-0.2,4.4-0.1c0.7,0.1,1.5,0.2,2.2,0.4c0-0.2,0-0.4,0-0.6c0-2.9,0.8-5.8,2.1-8.4l-53.3,7
					C196.4,285.2,197.8,286.8,198.5,288.2z"/>
				<g>
					<path class="st7" d="M216.9,287.3c-7.9,2.1-10.3,7.4-11.8,12.5c-1.5,5.1,1.2,11.5,4.9,15.1c3.7,3.7,9.1,4.4,14,3.7
						c2.8-0.4,5.6-1.3,8-3c6.1-4.4,8.2-14.6,4.3-21.8C232.4,286.7,224.9,285.3,216.9,287.3z"/>
					<g>
						<path class="st6" d="M216.5,285.7c-7,2-11.7,7.3-13.1,14.5c-1.4,7.3,3.2,15.9,9.9,18.8c7.2,3.1,17.4,1.3,22.4-4.8
							c4.6-5.7,5.4-14.3,2.2-20.8C233.8,285.2,224.7,283.8,216.5,285.7c-2,0.5-1.2,3.6,0.9,3.1c7.9-1.8,16.2,0,18.7,8.7
							c2.2,8-1.6,16.8-9.9,19c-8.8,2.4-17.4-1.5-19.5-10.8c-1.7-7.6,3.6-14.8,10.7-16.8C219.3,288.3,218.4,285.2,216.5,285.7z"/>
					</g>
				</g>
				<path class="st8" d="M218.5,294c-4.5,1.2-5.9,4.2-6.7,7.1c-0.8,2.9,0.7,6.5,2.8,8.6c2.1,2.1,5.2,2.5,7.9,2.1
					c1.6-0.2,3.2-0.7,4.5-1.7c3.5-2.5,4.6-8.2,2.5-12.3C227.3,293.7,223,292.9,218.5,294z"/>
				<g>
					<path class="st9" d="M326.4,345.5c-58.7,12.4-118.8,18.9-177.7,30.6l-2.5-26.9c58-8.1,115.8-17.3,173.4-27.6"/>
					<g>
						<path class="st6" d="M325.6,342.4c-45.9,9.6-92.4,15.7-138.6,23.5c-13.1,2.2-26.1,4.5-39.1,7.1c1.4,1,2.7,2.1,4.1,3.1
							c-0.8-9-1.7-17.9-2.5-26.9c-0.8,1-1.6,2.1-2.4,3.1c45.1-6.3,90.2-13.3,135.1-20.9c12.8-2.2,25.5-4.4,38.2-6.7
							c4.1-0.7,2.3-6.9-1.7-6.2c-44.9,8-89.9,15.4-135,22.1c-12.8,1.9-25.6,3.7-38.4,5.5c-1.3,0.2-2.5,1.8-2.4,3.1
							c0.8,9,1.7,17.9,2.5,26.9c0.2,2.2,1.9,3.5,4.1,3.1c46-9.1,92.5-15.1,138.7-23.1c13-2.3,26-4.7,39-7.4
							C331.3,347.8,329.6,341.6,325.6,342.4L325.6,342.4z"/>
					</g>
				</g>
				<g>
					<path class="st6" d="M158.1,309.1c-1.1-3.8-0.7-7.8-0.8-11.7c-0.5,0.9-1.1,1.9-1.6,2.8c1.3-0.6,2.3-1.4,3.6-1.4
						c4.1-0.2,4.1-6.6,0-6.4c-2.7,0.1-4.5,1.2-6.8,2.3c-1,0.5-1.6,1.7-1.6,2.8c0,4.5-0.3,9,1,13.4
						C153.1,314.7,159.3,313,158.1,309.1L158.1,309.1z"/>
				</g>
				<path class="st1" d="M274.4,274.8c3-0.4,6,0.2,8.4,1.8c3.2,2.1,5,5.5,4.9,9c-0.1,3.4-1.9,6.4-5,8.3c-1.2,0.7-2.4,1.2-3.4,1.7
					c-0.9,0.4-1.8,0.8-2.5,1.2c-0.6,0.4-1.2,1-1.6,1.6c1.8,0.5,3.5,1.7,4.4,3.6c3.6,7.3,9.5,15.6,15.8,22.2c2.7,2.9,4.8,4.1,6.3,3.9
					c0.6-0.1,1.3-0.4,2.1-1c4-2.9,6-6.2,6.7-10.6c0.8-5.2-1.3-10.3-3.5-15.8c-0.9-2.3-1.9-4.8-2.7-7.2c-0.3-1-0.6-2.1-0.9-3.1
					c-0.8-2.5-1.5-5.1-2.3-7.6c-0.6-1.8-1-3.7-1.4-5.6c-0.5-2.4-1-4.6-1.8-6.5c-0.1-0.2-0.1-0.4-0.2-0.5l-29.9,3.9
					c0.5,0.8,1,1.6,1.3,2.5C270.6,275.8,272.5,275.1,274.4,274.8z"/>
				<path class="st1" d="M148.2,291c-0.3,19.9,0.2,39.8,1,59.7c0.2-0.1,0.3-0.1,0.5-0.2c7.1-3.3,9.7-10.8,12.6-18.8
					c1.4-3.9,2.8-8,4.8-11.6c1.4-2.6,3.5-4.3,6.1-5.1c-1.2-2.6-3.1-4.9-5.5-6.5c-0.5-0.3-1-0.6-1.6-1c-1.8-1.1-4-2.4-5.6-4.7
					c-2-2.9-2.6-6.4-1.7-9.7c0.5-1.9,1.4-3.5,2.7-4.8l-13.4,1.8C148.1,290.4,148.2,290.7,148.2,291z"/>
				<g>
					<path class="st7" d="M299.6,506.2c1.9-0.5,6.5-1.3,8.4-1.8c0.6-0.1,1.2-0.3,1.6-0.7c0.6-0.6,0.7-1.5,0.8-2.4
						c2.6-22.5,3.4-55.3,6.1-77.8l-35.3,5.3c-0.3,15.8-0.7,30.2-0.9,45.9c0,1.7-0.1,3.5,0.3,5.1c0.4,1.9,1.3,3.6,2.2,5.2
						c3.2,5.5,6.6,10.8,10.2,15.7c2,2.7,4.8,5.5,7.4,3.7c1.4-26.7,2.8-53.4,4.3-80"/>
					<g>
						<path class="st6" d="M300.4,509.3c3.1-0.7,6.7-0.9,9.6-2.2c3.6-1.6,3.5-5.5,3.9-9c0.9-8.2,1.4-16.3,2-24.5
							c1.1-16.7,1.8-33.5,3.7-50.2c0.3-2.3-2.3-3.4-4.1-3.1c-11.8,1.8-23.5,3.5-35.3,5.3c-1.4,0.2-2.3,1.8-2.4,3.1
							c-0.1,8.3-0.3,16.5-0.5,24.8c-0.2,8.1-1.1,16.7-0.3,24.8c0.6,7.2,6.1,14,10.1,19.8c3.3,4.8,7.9,12.6,14.8,9.1
							c1-0.5,1.5-1.7,1.6-2.8c1.4-26.7,2.8-53.4,4.3-80c0.2-4.1-6.2-4.1-6.4,0c-1.4,26.7-2.8,53.4-4.3,80c0.5-0.9,1.1-1.9,1.6-2.8
							c-2,1-9.8-12.6-10.8-14.2c-1.6-2.6-3.7-5.4-4.3-8.5c-0.6-3.2-0.1-6.8-0.1-10c0.3-13.4,0.6-26.8,0.8-40.3
							c-0.8,1-1.6,2.1-2.4,3.1c11.8-1.8,23.5-3.5,35.3-5.3c-1.4-1-2.7-2.1-4.1-3.1c-1.7,15.1-2.5,30.2-3.4,45.4
							c-0.5,7.6-1,15.2-1.6,22.7c-0.2,1.7-0.3,3.5-0.5,5.2c-0.1,0.9,0.1,3.9-0.5,4.5c-0.5,0.6-3,0.7-3.8,0.8c-1.5,0.3-3.1,0.6-4.6,1
							C294.7,504.1,296.4,510.3,300.4,509.3L300.4,509.3z"/>
					</g>
				</g>
				<g>
					<path class="st7" d="M177.1,447.2c8.2,22.3,14.2,49.7,22.4,71.9c0.8,2.2,7.7-0.1,10.4-0.5c3.1-8.2,6.3-16.5,9.4-24.7
						c0.4-1.1,0.8-2.2,0.9-3.5c0.1-1.6-0.5-3.3-1-4.8c-5.8-17.1-7.2-25.6-11.9-43"/>
					<g>
						<path class="st6" d="M174,448c8.5,23.3,13.4,47.7,22,70.9c1.7,4.6,5.3,4.7,9.6,3.9c1.6-0.3,3.6-0.5,5.2-1.1
							c2.9-1,3.5-5.6,4.5-8.1c2.4-6.3,4.9-12.5,7.2-18.9c2.2-5.9-0.5-11.1-2.3-16.7c-3.7-12-6.4-24.2-9.7-36.3
							c-1.1-4-7.3-2.3-6.2,1.7c3.1,11.6,5.7,23.3,9.2,34.8c0.9,3.1,2,6.1,3,9.2c1.1,3.5-0.3,5.9-1.6,9.2c-2.7,7.1-5.4,14.1-8.1,21.2
							c0.7-0.7,1.5-1.5,2.2-2.2c-2.1,0.3-4.9,0.5-6.9,1.3c-1,0.4-0.3-0.3,0.1,0.4c-0.4-0.8-0.6-1.7-0.9-2.5
							c-0.6-1.7-1.2-3.4-1.8-5.2c-2.3-7-4.4-14.1-6.4-21.2c-4-14.1-7.9-28.3-12.9-42.1C178.8,442.4,172.6,444.1,174,448L174,448z"/>
					</g>
				</g>
				<g>
					<path class="st7" d="M210.3,517.7c-6.8-26.4-14.5-49.3-21.4-75.6"/>
					<g>
						<path class="st6" d="M213.4,516.9c-6.5-25.4-14.7-50.3-21.4-75.6c-1.1-4-7.3-2.3-6.2,1.7c6.7,25.3,14.9,50.3,21.4,75.6
							C208.3,522.6,214.5,520.9,213.4,516.9L213.4,516.9z"/>
					</g>
				</g>
				<g>
					<path class="st7" d="M211.7,491.2c-0.9-2.6-1.3-5.4-1.2-8.2"/>
					<g>
						<path class="st6" d="M214.8,490.3c-0.8-2.4-1.1-4.8-1.1-7.4c0.1-4.1-6.4-4.1-6.4,0c0,3.1,0.4,6.2,1.3,9.1
							C209.9,495.9,216.1,494.3,214.8,490.3L214.8,490.3z"/>
					</g>
				</g>
				<g>
					<path class="st7" d="M291.3,481.8c-0.4-2.7-1.1-5.4-2.1-7.9"/>
					<g>
						<path class="st6" d="M294.4,481c-0.4-2.7-1.1-5.4-2.1-7.9c-0.6-1.6-2.2-2.7-4-2.2c-1.6,0.4-2.9,2.3-2.2,4
							c1,2.6,1.7,5.2,2.1,7.9c0.3,1.7,2.4,2.7,4,2.2C294,484.4,294.7,482.7,294.4,481L294.4,481z"/>
					</g>
				</g>
				<g>
					<path class="st7" d="M194.2,459.5c4.1-6.2,7.8-11.5,10.8-18.3"/>
					<g>
						<path class="st6" d="M197,461.1c3.9-6,7.9-11.8,10.8-18.3c1.7-3.8-3.9-7-5.6-3.3c-2.9,6.5-6.9,12.4-10.8,18.3
							C189.1,461.3,194.7,464.6,197,461.1L197,461.1z"/>
					</g>
				</g>
				<g>
					<path class="st7" d="M286.2,429.5c5.3,4.6,10.1,9.6,14.6,15"/>
					<g>
						<path class="st6" d="M283.9,431.7c5.2,4.6,10.1,9.6,14.6,15c2.6,3.2,7.2-1.4,4.6-4.6c-4.5-5.4-9.3-10.4-14.6-15
							C285.3,424.4,280.8,429,283.9,431.7L283.9,431.7z"/>
					</g>
				</g>
				<g>
					<path class="st1" d="M178.3,289c0.6-1.2,1.4-2.3,2.4-3.2l-5.8,0.8C176.1,287.2,177.3,288,178.3,289z"/>
					<path class="st6" d="M148,290.1L148,290.1c0-0.2,0-0.4-0.1-0.6C148,289.7,148,289.9,148,290.1z"/>
					<path class="st6" d="M145.6,345.9l0.1,5.9c0,0,0.1,0,0.1,0C145.8,349.8,145.7,347.8,145.6,345.9z"/>
					<path class="st6" d="M151.5,446.1c0-0.2,0-0.4,0-0.6c-0.2,0-0.4,0-0.6,0C151.1,445.8,151.3,445.9,151.5,446.1z"/>
					<path class="st6" d="M341.4,415.6c-0.9,0.1-1.8,0.2-2.7,0.3c-0.1,0.8-0.1,1.7-0.2,2.5C339.5,417.5,340.4,416.5,341.4,415.6z"/>
					<path class="st6" d="M144.9,294l0.7,51.9c0.1,2,0.1,3.9,0.2,5.9c1.1-0.2,2.2-0.6,3.3-1.1c-0.7-19.9-1.3-39.8-1-59.7
						c0-0.3,0-0.6-0.1-0.9l-0.1,0C148.2,292,146.9,294,144.9,294z"/>
					<path class="st6" d="M124.2,294.1c1.6-0.2,3.3,0.2,4.6,1.2c0.5,0.3,0.8,0.6,1.2,1c0.3,0.4,0.7,0.8,1.1,1.2
						c3.6,3.8,9,9.5,8.4,15.1c-0.3,3-2.1,5.2-3.5,7c-0.4,0.5-0.7,1-1,1.4c-2.5,3.7-4.1,6.8-5.1,9.7c-2,5.8-0.9,12.2,2.7,16.6
						c2.6,3.2,6.1,4.8,10,4.9c-0.8-20.7-1.4-41.3-1-62c0.1-3.7,5.1-3.5,6.3-0.6c-0.2-0.8-0.8-1.6-1.8-2.1
						c-7.1-3.5-14.3-7.1-21.4-10.6c-1.8-0.9-4.5,0.6-4.6,2.6c-0.2,5.5-0.3,10.9-0.4,16.4c0.9-0.5,1.9-1,2.8-1.4
						C123.1,294.3,123.6,294.2,124.2,294.1z"/>
					<path class="st6" d="M141.6,290.1c-0.3,20.7,0.3,41.4,1,62c0.7,0,1.4,0,2.1-0.1c0.4,0,0.7-0.1,1.1-0.2l-0.1-5.9
						c-0.7-18.3-1.1-36.6-0.8-55.3l3.2-0.4c0-0.2-0.1-0.4-0.1-0.6C146.7,286.6,141.6,286.3,141.6,290.1z"/>
					<path class="st6" d="M148,290.1l-3.2,0.4c-0.3,18.7,0.1,37.1,0.8,55.3l-0.7-51.9C146.9,294,148.2,292,148,290.1z"/>
					<path class="st6" d="M344.8,399.6c-4.8-17-8.8-34.3-13.2-51.4c-0.9,1.2-1.9,2.4-2.9,3.5c-0.8,0.9-1.7,1.8-2.6,2.6
						c1.6,6.8,3.2,13.6,4.9,20.3c2.2,8.2,4.4,16.5,6.8,24.6c0.7,2.5,1.6,4.8,1.7,7.6c0-0.5-0.2,2.6-0.3,3.6
						c-0.2,1.9-0.3,3.7-0.5,5.6c0.9-0.1,1.8-0.2,2.7-0.3c-1,1-1.9,1.9-2.9,2.9c0.1-0.8,0.1-1.7,0.2-2.5
						c-62.6,7.9-124.1,22.7-187.2,26.2c0.2-18-0.3-35.9-0.9-53.9c-1.1,0.1-2.2,0.2-3.3,0.2c-0.4,0-0.7,0-1.1,0
						c-0.8,0-1.5-0.1-2.3-0.1c-6.6-0.5-13.3-2.7-19.7-6.5c-1.4-0.8-2.8-1.8-4.1-2.8c0,4.8-0.1,9.5-0.2,14.3
						c-0.2,6.2-1.3,13.3,0.4,19.3c1.8,6,6.4,11.1,10,16c4.7,6.5,9.4,13,14,19.6c1.2,1.7,3,1.6,4.4,0.7
						c65.3-3.2,128.8-18.8,193.5-26.8c1.4-0.2,2.8-1.4,2.9-2.9C345.6,412.4,346.7,406.3,344.8,399.6z M151.5,446.1
						c-0.2-0.2-0.4-0.4-0.6-0.6c0.2,0,0.4,0,0.6,0C151.5,445.7,151.5,445.9,151.5,446.1z"/>
					<path class="st6" d="M305.3,269.4c5.6,21.6,16,41.5,22,62.9c1,3.6,2,7.2,2.9,10.8c0.2-0.3,0.3-0.5,0.5-0.8
						c8.4-13.9,10.4-30.3,3.6-45.4c-5.2-11.5-16.3-29.3-30.2-31c-0.3,0-0.5,0-0.7,0c-0.6,0.1-1.1,0.4-1.5,0.9
						C303.4,266.8,304.8,267.6,305.3,269.4z"/>
					<path class="st6" d="M270.1,306.2c-0.4,0.2-0.9,0.3-1.3,0.4c-0.5,0.1-1,0.1-1.5,0c-0.5,1-1.3,1.8-2.4,2.3
						c-0.1,0.7-0.2,1.4-0.5,2c-0.1,0.1-0.1,0.2-0.1,0.3c-0.1,0.2-0.3,0.5-0.4,0.7c0,0,0,0.1-0.1,0.1c-0.6,0.8-1.3,1.3-2.2,1.7
						c-1.1,0.6-2,1.1-2.8,1.6c0.1,3.2,2,6.2,3.5,9.5c6.2,13.7,15.9,25.8,30.2,31.7c5.5,2.3,10.8,2.9,15.8,2.3c6.3-0.9,12-4,16.8-8.9
						c-2.2-9.1-4.6-18.1-7.7-26.9c-0.9-2.4-1.7-4.7-2.6-7.1c0,0.5-0.1,1-0.2,1.6c-0.9,5.7-3.7,9.8-8.3,13.2c-1.4,1-2.7,1.6-3.9,1.7
						c-3.6,0.5-6.8-2-9.8-5.1c-6.2-6.6-12.5-15.1-16.5-23.2c-0.4-0.9-1.5-1.7-2.5-1.5c0,0-0.1,0-0.1,0
						C273,304.1,271.8,305.5,270.1,306.2z"/>
					<path class="st6" d="M325.6,338.8c0.7,2.9,1.3,5.6,2,8.2c1-1.2,1.9-2.5,2.7-3.8c-1-3.6-1.9-7.2-2.9-10.8
						c-6-21.4-16.4-41.3-22-62.9c-0.5-1.7-1.9-2.6-3.3-2.7c0,0,0,0-0.1,0.1c-0.6,0.6-0.8,1.5-0.4,2.5c0.1,0.2,0.1,0.4,0.2,0.5l0.3,0
						C308.8,296.8,320.1,315.7,325.6,338.8z"/>
					<path class="st6" d="M325,349.8c0.9-0.9,1.7-1.8,2.5-2.9c-0.6-2.6-1.3-5.3-2-8.2c-5.5-23.1-16.8-41.9-23.6-68.9l-0.3,0
						c1.5,3.7,1.9,8.1,3.2,11.9c1.2,3.6,2.2,7.2,3.3,10.7c2.3,7.6,7.1,15.1,6.4,23.3c0.9,2.4,1.8,4.7,2.6,7.1
						C320.4,331.6,322.8,340.7,325,349.8z"/>
					<path class="st1" d="M299.7,277.4c0.4,1.8,0.8,3.7,1.4,5.6c0.8,2.5,1.6,5.1,2.3,7.6c0.3,1,0.6,2.1,0.9,3.1
						c0.8,2.5,1.7,4.9,2.7,7.2c2.2,5.5,4.3,10.6,3.5,15.8c-0.7,4.4-2.8,7.6-6.7,10.6c-0.8,0.6-1.5,0.9-2.1,1c-1.6,0.2-3.6-1-6.3-3.9
						c-6.3-6.6-12.2-14.9-15.8-22.2c-0.9-1.8-2.6-3.1-4.4-3.6c-0.4,0.5-0.7,1.1-1,1.8c1.5,0.2,2.9,1.1,3.6,2.6
						c3.7,7.5,9.7,16,16.1,22.7c3.3,3.5,5.8,4.9,8,4.5c1-0.1,2-0.6,3-1.4c4.4-3.3,6.7-6.9,7.5-11.9c0.5-2.9,0.1-5.6-0.6-8.4
						c-4.9-12.6-9.8-25.2-13.2-38.3c0,0,0,0,0,0l-1,0.1c0.1,0.2,0.1,0.4,0.2,0.5C298.7,272.8,299.1,275,299.7,277.4z"/>
					<path class="st1" d="M308.5,360.6C308.5,360.6,308.5,360.6,308.5,360.6c-5.4,0.8-11.1-0.1-16.8-2.4
						c-13.2-5.4-24-16.7-31.2-32.7c-0.3-0.7-0.7-1.4-1-2.1c-1-2.1-2.2-4.4-2.5-6.9c-0.2,0.2-0.4,0.3-0.6,0.5
						c-0.4,0.3-0.7,0.7-1.1,1.2c0.5,2.2,1.5,4.3,2.4,6.1c0.3,0.7,0.7,1.4,1,2c7.5,16.5,18.6,28.1,32.3,33.7c6,2.5,12,3.3,17.8,2.5
						c6.3-0.9,12.2-3.8,17.3-8.3c-0.2-0.8-0.4-1.5-0.5-2.3C320.6,356.8,314.8,359.8,308.5,360.6z"/>
					<path class="st1" d="M299.7,270.1c-0.4-0.8-0.5-1.7-0.3-2.5c-0.6,0.6-1,1.5-0.7,2.7L299.7,270.1
						C299.7,270.1,299.7,270.1,299.7,270.1z"/>
					<path class="st1" d="M328.1,349.3c0.2,0.8,0.4,1.6,0.6,2.4c1-1.1,2-2.3,2.9-3.5c-0.2-0.8-0.4-1.7-0.7-2.5
						C330,347,329.1,348.2,328.1,349.3z"/>
					<path class="st1" d="M306.3,293.1l-0.9-3.1c-0.8-2.6-1.5-5.1-2.4-7.6c-0.6-1.8-1-3.6-1.4-5.4c-0.5-2.5-1.1-4.8-2-6.9l-1,0.1
						c0,0,0,0,0,0c3.4,13.2,8.4,25.7,13.2,38.3c-0.7-2.8-1.8-5.6-3-8.5C308,297.8,307,295.5,306.3,293.1z"/>
					<path class="st1" d="M325.5,352c0.2,0.8,0.4,1.5,0.5,2.3c0.9-0.8,1.8-1.7,2.6-2.6c-0.2-0.8-0.4-1.6-0.6-2.4
						C327.3,350.3,326.4,351.2,325.5,352z"/>
					<path class="st1" d="M273.4,302.4c0,0,0.1,0,0.1,0c1.1-0.1,2.1,0.6,2.5,1.5c4,8.1,10.2,16.7,16.5,23.2c3,3.2,6.2,5.6,9.8,5.1
						c1.3-0.2,2.6-0.7,3.9-1.7c4.6-3.4,7.4-7.5,8.3-13.2c0.1-0.5,0.1-1,0.2-1.6c-0.9-2.4-1.8-4.8-2.7-7.1c0.7,2.8,1,5.5,0.6,8.4
						c-0.8,4.9-3.1,8.6-7.5,11.9c-1,0.8-2,1.2-3,1.4c-2.3,0.3-4.8-1.1-8-4.5c-6.4-6.7-12.4-15.2-16.1-22.7c-0.7-1.5-2.1-2.4-3.6-2.6
						C273.9,301,273.7,301.6,273.4,302.4C273.4,302.3,273.4,302.4,273.4,302.4z"/>
					<path class="st1" d="M308.2,358.6c-4.9,0.7-10.2,0-15.8-2.3c-14.2-5.8-23.9-17.9-30.2-31.7c-1.5-3.2-3.4-6.3-3.5-9.5
						c-0.7,0.5-1.3,0.9-1.9,1.3c0.4,2.5,1.5,4.7,2.5,6.9c0.3,0.7,0.7,1.4,1,2.1c7.2,16,18,27.3,31.2,32.7c5.7,2.3,11.4,3.1,16.8,2.4
						c0,0,0,0,0,0c6.3-0.9,12.1-3.8,17-8.6c-0.2-0.8-0.4-1.5-0.5-2.3C320.3,354.7,314.6,357.8,308.2,358.6z"/>
					<path class="st1" d="M299.7,270.1C299.7,270.1,299.7,270.1,299.7,270.1l2-0.3c-0.1-0.2-0.1-0.4-0.2-0.5c-0.5-1-0.2-1.9,0.4-2.5
						c0,0,0,0,0.1-0.1c-1-0.1-2,0.3-2.6,0.9C299.2,268.4,299.3,269.3,299.7,270.1z"/>
					<path class="st1" d="M327.5,346.9c0.2,0.8,0.4,1.6,0.6,2.4c1-1.1,1.9-2.4,2.8-3.7c-0.2-0.9-0.5-1.7-0.7-2.6
						C329.4,344.4,328.5,345.7,327.5,346.9z"/>
					<path class="st1" d="M308.2,292.5c-1.1-3.6-2.1-7.2-3.3-10.7c-1.2-3.8-1.7-8.2-3.2-11.9l-2,0.3c0.9,2,1.4,4.4,2,6.9
						c0.4,1.8,0.8,3.6,1.4,5.4c0.8,2.5,1.6,5.1,2.4,7.6l0.9,3.1c0.7,2.4,1.7,4.8,2.6,7.1c1.2,2.9,2.3,5.7,3,8.5
						c0.9,2.4,1.8,4.8,2.7,7.1C315.2,307.6,310.5,300.1,308.2,292.5z"/>
					<path class="st1" d="M325,349.8c0.2,0.8,0.4,1.5,0.5,2.3c0.9-0.8,1.7-1.7,2.6-2.7c-0.2-0.8-0.4-1.6-0.6-2.4
						C326.7,347.9,325.9,348.9,325,349.8z"/>
					<path class="st6" d="M268.1,291.9l-0.2,0.6c-0.9,2.5-1.1,4.6-0.6,7.5c1-0.4,2.1-0.7,3.2-1c0.9-2.2,2.2-4.1,4.3-5.5
						c1.9-1.2,4.1-1.8,6-2.9c4.2-2.6,4-7.9-0.1-10.6c-1.6-1.1-3.7-1.5-5.6-1.2c-1.9,0.3-3.7,1.1-5.1,2.4c0.1,0.8,0.1,1.5,0.1,2.4
						C269.9,286.8,269,289.4,268.1,291.9z"/>
					<path class="st6" d="M267.6,301.9c0,0.1,0,0.1,0,0.2c0.6-0.2,1.2-0.5,1.9-0.7c0,0,0,0,0,0c0.3-0.8,0.6-1.6,0.9-2.3
						c-1.1,0.3-2.2,0.6-3.2,1C267.3,300.6,267.4,301.2,267.6,301.9z"/>
					<path class="st6" d="M267.8,302.5c0.2,0,0.3,0,0.5,0c0.1,0,0.3-0.1,0.4-0.1c0.4-0.2,0.8-0.5,0.9-1.1c-0.7,0.2-1.3,0.4-1.9,0.7
						C267.7,302.2,267.7,302.4,267.8,302.5z"/>
					<path class="st1" d="M274.7,276.8c2.5-0.4,5,0.2,7,1.5c2.6,1.8,4.1,4.5,4,7.3c-0.1,2.7-1.5,5.1-4,6.6c-1,0.6-2.1,1.1-3.1,1.5
						c-1,0.4-2,0.8-2.8,1.4c-1.2,0.8-2.1,1.8-2.8,3.2c0.8-0.1,1.5,0,2.3,0.1c0.5-0.7,1-1.2,1.6-1.6c0.7-0.4,1.6-0.8,2.5-1.2
						c1.1-0.4,2.2-1,3.4-1.7c3.1-1.9,4.9-4.9,5-8.3c0.1-3.5-1.8-6.9-4.9-9c-2.4-1.6-5.4-2.3-8.4-1.8c-2,0.3-3.8,1-5.4,2
						c0.2,0.6,0.4,1.3,0.6,2C271.1,277.8,272.9,277.1,274.7,276.8z"/>
					<path class="st1" d="M269.4,304.3c-0.3,0.1-0.6,0.2-0.9,0.2c0,0,0,0,0,0c-0.2,0-0.4,0-0.6,0c-0.1,0.7-0.2,1.4-0.5,2
						c0.5,0.1,1,0.1,1.5,0c0.5-0.1,0.9-0.2,1.3-0.4c1.7-0.6,2.9-2.1,3.3-3.8c0,0,0,0,0,0c-0.8,0.2-1.6,0.4-2.4,0.6
						C270.6,303.6,270.1,304,269.4,304.3z"/>
					<path class="st1" d="M271.9,300.7c0.4-0.1,0.7-0.2,1.1-0.3c0.1,0,0.2,0,0.3,0c0.3,0,0.6,0,1,0c0.3-0.7,0.7-1.3,1-1.8
						c-0.7-0.2-1.5-0.2-2.3-0.1C272.6,299.1,272.2,299.8,271.9,300.7z"/>
					<path class="st1" d="M273,300.4c-0.4,0.1-0.7,0.2-1.1,0.3c-0.1,0.4-0.3,0.7-0.4,1.1c-0.1,0.4-0.3,0.8-0.5,1.2
						c0.8-0.2,1.6-0.4,2.4-0.6c0,0,0,0,0,0c0,0,0,0,0,0c0.3-0.7,0.5-1.4,0.8-2c-0.3,0-0.6,0-1,0C273.1,300.4,273.1,300.4,273,300.4z
						"/>
					<path class="st1" d="M269.9,281.2c1.4-1.3,3.2-2.1,5.1-2.4c1.9-0.3,3.9,0.1,5.6,1.2c4.1,2.7,4.3,8,0.1,10.6
						c-1.9,1.2-4.1,1.7-6,2.9c-2.1,1.3-3.3,3.3-4.3,5.5c0.7-0.2,1.4-0.4,2.1-0.5c0.1,0,0.3-0.1,0.4-0.1c0,0,0,0,0,0
						c0.7-1.3,1.6-2.4,2.8-3.2c0.8-0.5,1.8-0.9,2.8-1.4c1-0.4,2.1-0.9,3.1-1.5c2.5-1.5,4-3.9,4-6.6c0.1-2.8-1.4-5.6-4-7.3
						c-2-1.3-4.5-1.9-7-1.5c-1.9,0.3-3.6,1-5.1,2.1C269.8,279.6,269.9,280.4,269.9,281.2z"/>
					<path class="st1" d="M267.9,304.6c0.2,0,0.4,0,0.6,0c0,0,0,0,0,0c0.3,0,0.6-0.1,0.9-0.2c0.7-0.3,1.2-0.7,1.6-1.3
						c-1.1,0.3-2.1,0.7-3.1,1.1C267.9,304.2,267.9,304.4,267.9,304.6z"/>
					<path class="st1" d="M272.6,298.4c-0.7,0.2-1.4,0.3-2.1,0.5c-0.3,0.8-0.6,1.5-0.9,2.3c0,0,0,0,0,0c0.8-0.2,1.6-0.5,2.4-0.7
						c0.3-0.8,0.7-1.6,1.1-2.3c0,0,0,0,0,0C272.8,298.4,272.7,298.4,272.6,298.4z"/>
					<path class="st1" d="M268.7,302.4c-0.1,0.1-0.3,0.1-0.4,0.1c-0.2,0-0.3,0-0.5,0c0.1,0.3,0.1,0.6,0.1,1c0,0.2,0,0.4,0,0.6
						c1-0.4,2-0.8,3.1-1.1c0.2-0.4,0.4-0.7,0.5-1.2c0.1-0.4,0.3-0.8,0.4-1.1c-0.8,0.2-1.6,0.4-2.4,0.7
						C269.4,301.9,269.1,302.3,268.7,302.4z"/>
					<path class="st6" d="M257.7,274c-0.2,0-0.3,0-0.5,0.1c-1.8,0.2-3.2,1.1-4.4,2.3l9.9-1.3C261.5,274.2,259.9,273.8,257.7,274z"/>
					<path class="st6" d="M258.4,306.2c-1.3-0.5-2.7-0.9-4.1-1.3c1.9-0.1,3.6-0.1,5.2,0.1c0.9-0.9,1.9-1.8,3.1-2.6
						c-0.1-0.4-0.2-0.9-0.2-1.3c0-0.2,0-0.3,0-0.5c0-1,0-2,0-3.2c-0.1-5.3-0.2-12,3.2-17.1c0.1-0.2,0.2-0.3,0.3-0.5
						c-0.4-2.2-1.4-3.9-3-4.9l-9.9,1.3c-2.3,2.3-3.4,5.9-3.4,9.2c0,2.4,0.4,4.6,1.3,6.6c-2.5-1.3-5.1-2.2-7.9-2.5
						c-1.1-0.1-2.2-0.1-3.4,0c-3.6,0.5-7,2.5-6.8,6.5c0.4,6.6,4.7,8.6,10,9.1c-4,1.5-7.6,6.1-6.3,10.4c1.2,4,4.6,5.9,8.2,5.4
						c1.2-0.2,2.4-0.6,3.6-1.3c2.4-1.4,3.5-3.9,5.5-5.6c0.4-0.4,0.8-0.7,1.3-1c0.2-1.1,0.5-2.2,1.1-3.3
						C256.7,308.5,257.5,307.3,258.4,306.2z"/>
					<path class="st6" d="M262.5,302.5c-1.1,0.8-2.1,1.6-3.1,2.6c0.7,0.1,1.4,0.2,2,0.4c0.1,0.1,0.2,0.1,0.3,0.1
						c0.5-0.5,1.1-0.9,1.6-1.3C263,303.7,262.7,303.1,262.5,302.5z"/>
					<path class="st6" d="M260.3,307c-0.2-0.2-0.4-0.3-0.7-0.3c-0.4-0.2-0.8-0.3-1.3-0.5c-0.9,1.1-1.7,2.2-2.3,3.5
						c-0.5,1.1-0.9,2.2-1.1,3.3c0.8-0.6,1.7-1.2,2.6-1.7c0.1-0.2,0.2-0.5,0.3-0.7C258.5,309.3,259.3,308.1,260.3,307z"/>
					<path class="st6" d="M260.6,309.5C260.6,309.5,260.6,309.5,260.6,309.5c0.1-0.1,0.1-0.2,0.2-0.2c0,0,0-0.1,0-0.1
						c0.3-0.6,0.3-1.4-0.3-1.9c-0.1-0.1-0.2-0.1-0.3-0.2c-1,1.1-1.8,2.3-2.4,3.6c-0.1,0.2-0.2,0.5-0.3,0.7c0.8-0.5,1.6-0.9,2.4-1.3
						C260.2,309.9,260.5,309.7,260.6,309.5z"/>
					<path class="st6" d="M261.8,305.6c0.2,0.1,0.4,0.1,0.6,0.1c0.2,0,0.5-0.1,0.7-0.2c0.3-0.1,0.6-0.4,0.8-0.7
						c-0.1-0.1-0.3-0.3-0.4-0.4C262.8,304.7,262.3,305.1,261.8,305.6z"/>
					<path class="st6" d="M262.2,297.5c0,1.1,0,2.2,0,3.2c0,0.2,0,0.4,0,0.5c0,0.4,0.1,0.9,0.2,1.3c0.3-0.2,0.7-0.4,1-0.6
						c-0.7-3.7-0.7-6.9,0.6-10.7c0.1-0.3,0.2-0.5,0.3-0.8c0.2-2.4,0.7-4.8,1.6-6.9c0,0,0,0,0,0c0-1.3-0.1-2.4-0.3-3.5
						c-0.1,0.2-0.2,0.3-0.3,0.5C262,285.5,262.1,292.1,262.2,297.5z"/>
					<path class="st6" d="M263.9,304c0-0.1,0-0.1,0-0.2c0-0.3,0-0.5-0.2-0.7c-0.1-0.4-0.2-0.8-0.3-1.2c-0.3,0.2-0.7,0.4-1,0.6
						c0.2,0.6,0.5,1.3,0.9,1.8C263.6,304.2,263.7,304.1,263.9,304z"/>
					<path class="st6" d="M263.4,304.3c0.1,0.1,0.3,0.3,0.4,0.4c0.1-0.2,0.1-0.5,0.1-0.7C263.7,304.1,263.6,304.2,263.4,304.3z"/>
					<path class="st6" d="M266,283.5c-1,2.1-1.4,4.5-1.6,6.9C265.2,288.1,265.9,286,266,283.5z"/>
					<path class="st1" d="M257,272c0.2,0,0.4,0,0.6-0.1c3.1-0.2,5.6,0.5,7.4,2.2c0.1,0.1,0.3,0.3,0.4,0.5l2.3-0.3
						c-0.4-0.6-0.8-1.1-1.3-1.6c-2.2-2.1-5.2-3.1-9-2.8c-0.2,0-0.5,0-0.7,0.1c0,0,0,0,0,0c0,0,0,0,0,0c-4.2,0.6-7.3,3.4-9.2,7
						l2.5-0.3C251.6,274.2,254,272.4,257,272z"/>
					<path class="st1" d="M245.4,286c-0.7-0.2-1.5-0.3-2.2-0.4c-1.4-0.2-2.9-0.1-4.4,0.1c-6.6,0.9-10.6,5.1-10.2,10.7
						c0.4,5.4,2.7,8.5,5.8,10.4c-2.2,3.2-2.8,6.9-1.8,10c1.7,5.7,6.8,8.9,12.6,8.1c1.8-0.2,3.5-0.8,5.1-1.8c2-1.2,3.3-2.8,4.5-4.2
						c0.2-0.2,0.4-0.5,0.6-0.7c-0.2-0.8-0.3-1.6-0.4-2.5c-0.6,0.6-1.2,1.2-1.8,2c-1,1.3-2.2,2.7-3.9,3.7c-1.4,0.8-2.8,1.3-4.3,1.5
						l0,0c-4.8,0.7-9-2-10.4-6.7c-1.1-3.6,0.5-7.4,3.1-10c-4.3-1.6-6.7-4.9-7-9.9c-0.3-4.5,3-7.9,8.5-8.6c1.3-0.2,2.6-0.2,3.9,0
						c1.5,0.2,3.1,0.5,4.7,1c-0.2-1.1-0.2-2.1-0.2-3.2c0-3.1,0.9-6.2,2.6-8.8l-2.5,0.3c-1.3,2.6-2,5.5-2.1,8.4
						C245.4,285.6,245.4,285.8,245.4,286z"/>
					<path class="st1" d="M267.4,278.1c0.5-0.5,1.1-0.9,1.7-1.3c-0.3-0.9-0.8-1.8-1.3-2.5l-2.3,0.3
						C266.3,275.6,266.9,276.7,267.4,278.1z"/>
					<path class="st1" d="M263.8,311.9C263.8,311.9,263.8,311.9,263.8,311.9c0.2-0.3,0.4-0.5,0.5-0.8c0-0.1,0.1-0.2,0.1-0.3
						c0.3-0.6,0.5-1.3,0.5-2c1-0.5,1.9-1.4,2.4-2.3c-0.7-0.1-1.3-0.3-2-0.6c-0.3,0.5-0.9,1-1.5,1.3c-0.3,0.2-0.6,0.3-1,0.4
						c0.2,0.8,0.1,1.7-0.3,2.5c0,0-0.1,0.1-0.1,0.2c-0.1,0.2-0.2,0.3-0.3,0.5c-0.4,0.5-0.9,0.9-1.5,1.2c-0.6,0.3-1.1,0.6-1.6,0.9
						c-0.3,0.9-0.4,1.7-0.4,2.6c0.8-0.5,1.7-1,2.8-1.6C262.5,313.3,263.2,312.7,263.8,311.9z"/>
					<path class="st1" d="M257,316.6c-0.1-0.8-0.2-1.6-0.1-2.4c-0.7,0.5-1.3,0.9-1.8,1.4c-0.1,0.1-0.1,0.1-0.2,0.2
						c0.1,0.9,0.2,1.7,0.4,2.5c0.4-0.4,0.7-0.9,1.1-1.2C256.5,316.9,256.8,316.7,257,316.6z"/>
					<path class="st1" d="M259.2,312.7c-0.9,0.5-1.6,1-2.3,1.5c-0.1,0.8,0,1.6,0.1,2.4c0.6-0.4,1.2-0.9,1.9-1.3
						C258.8,314.4,258.9,313.6,259.2,312.7z"/>
					<path class="st1" d="M267.2,300c-0.4-2.8-0.2-5,0.6-7.5l0.2-0.6c0.9-2.5,1.8-5.1,1.9-8.3c0-0.8,0-1.6-0.1-2.4
						c-0.4,0.4-0.8,0.9-1.2,1.4c-0.3,0.5-0.6,0.9-0.8,1.4c-0.1,2.5-0.8,4.6-1.6,6.8c-0.3,3.3-0.1,6.7-0.1,9.6
						C266.6,300.3,266.9,300.2,267.2,300z"/>
					<path class="st1" d="M267.6,301.9c-0.1-0.7-0.3-1.3-0.3-1.8c-0.3,0.1-0.7,0.3-1,0.4c0,0.1,0,0.2,0,0.3c0,0.1,0,0.1,0,0.2
						c0,0.6,0.4,1.1,0.8,1.4c0.2-0.1,0.4-0.2,0.6-0.3C267.6,302,267.6,301.9,267.6,301.9z"/>
					<path class="st1" d="M267.1,302.3c0.2,0.1,0.5,0.2,0.7,0.3c0-0.2-0.1-0.3-0.1-0.5C267.4,302.1,267.3,302.2,267.1,302.3z"/>
					<path class="st1" d="M269.6,278.9c-0.1-0.7-0.3-1.4-0.6-2c-0.6,0.4-1.2,0.8-1.7,1.3c0.2,0.7,0.4,1.5,0.5,2.3
						C268.4,279.9,269,279.3,269.6,278.9z"/>
					<path class="st1" d="M265.8,305.2c-0.1,0.3-0.2,0.5-0.4,0.8c0.6,0.3,1.3,0.5,2,0.6c0.3-0.6,0.5-1.3,0.5-2
						c-0.3,0-0.5-0.1-0.8-0.1C266.6,304.7,266.2,304.9,265.8,305.2z"/>
					<path class="st1" d="M265.9,303.9c0,0.4,0,0.9-0.2,1.3c0.4-0.3,0.9-0.5,1.3-0.7C266.7,304.3,266.3,304.1,265.9,303.9z"/>
					<path class="st1" d="M267.9,284c0.2-0.5,0.5-1,0.8-1.4c0.3-0.5,0.7-1,1.2-1.4c-0.1-0.8-0.2-1.6-0.3-2.3c-0.6,0.5-1.2,1-1.8,1.6
						c0.1,0.9,0.2,2,0.1,3C268,283.7,268,283.9,267.9,284z"/>
					<path class="st1" d="M266.3,290.8c0,0.1-0.1,0.2-0.1,0.4l-0.2,0.6c-1.2,3.3-1.2,6.1-0.6,9c0.3-0.1,0.6-0.3,0.9-0.4
						C266.3,297.5,266.1,294.1,266.3,290.8z"/>
					<path class="st1" d="M267.9,304.6c0-0.2,0-0.3,0-0.5c-0.3,0.1-0.5,0.2-0.8,0.4C267.4,304.5,267.6,304.6,267.9,304.6z"/>
					<path class="st1" d="M265.8,302.9c0.4-0.2,0.9-0.4,1.3-0.6c-0.5-0.3-0.8-0.8-0.8-1.4c0-0.1,0-0.1,0-0.2c0-0.1,0-0.2,0-0.3
						c-0.3,0.1-0.6,0.3-0.9,0.4c0.1,0.5,0.2,1,0.3,1.6C265.7,302.6,265.7,302.7,265.8,302.9z"/>
					<path class="st1" d="M265.8,302.9c0.1,0.3,0.1,0.5,0.1,0.8c0,0.1,0,0.2,0,0.2c0.4,0.2,0.8,0.4,1.2,0.5c0.3-0.1,0.5-0.2,0.8-0.4
						c0-0.2,0-0.4,0-0.6c0-0.3-0.1-0.6-0.1-1c-0.2,0-0.5-0.1-0.7-0.3C266.6,302.5,266.2,302.7,265.8,302.9z"/>
					<path class="st1" d="M257.3,274c0.2,0,0.3,0,0.5-0.1c2.1-0.2,3.8,0.2,5,1l2.7-0.4c-0.1-0.2-0.3-0.3-0.4-0.5
						c-1.8-1.7-4.3-2.5-7.4-2.2c-0.2,0-0.4,0-0.6,0.1c-3,0.4-5.4,2.2-7,4.6l2.9-0.4C254,275.1,255.5,274.3,257.3,274z"/>
					<path class="st1" d="M265.7,279.9c0.5-0.6,1-1.3,1.6-1.8c-0.4-1.4-1.1-2.5-1.9-3.5l-2.7,0.4C264.4,276,265.3,277.8,265.7,279.9
						z"/>
					<path class="st1" d="M253.7,314.1c-2,1.8-3.2,4.3-5.5,5.6c-1.2,0.7-2.4,1.1-3.6,1.3c-3.6,0.5-7-1.3-8.2-5.4
						c-1.3-4.3,2.3-8.9,6.3-10.4c-5.3-0.5-9.6-2.5-10-9.1c-0.3-4,3.2-6,6.8-6.5c1.2-0.2,2.3-0.2,3.4,0c2.8,0.3,5.4,1.2,7.9,2.5
						c-0.8-2-1.3-4.2-1.3-6.6c0-3.2,1.2-6.8,3.4-9.2l-2.9,0.4c-1.7,2.5-2.5,5.7-2.6,8.8c0,1.1,0.1,2.2,0.2,3.2
						c-1.6-0.5-3.1-0.9-4.7-1c-1.3-0.1-2.6-0.1-3.9,0c-5.5,0.8-8.8,4.1-8.5,8.6c0.3,5,2.7,8.3,7,9.9c-2.7,2.6-4.3,6.4-3.1,10
						c1.4,4.7,5.6,7.4,10.4,6.7l0,0c1.5-0.2,2.9-0.7,4.3-1.5c1.7-1,2.9-2.4,3.9-3.7c0.6-0.7,1.1-1.4,1.8-2c-0.1-0.9,0-1.8,0.2-2.7
						C254.6,313.4,254.1,313.7,253.7,314.1z"/>
					<path class="st1" d="M254.3,305c1.4,0.3,2.8,0.8,4.1,1.3c0.3-0.4,0.7-0.8,1.1-1.2C257.9,304.9,256.1,304.9,254.3,305z"/>
					<path class="st1" d="M262.2,310.7c0.1-0.1,0.2-0.3,0.3-0.5c0,0,0.1-0.1,0.1-0.2c0.4-0.8,0.5-1.7,0.3-2.5c0.3-0.1,0.7-0.2,1-0.4
						c0.6-0.3,1.1-0.7,1.5-1.3c-0.1-0.1-0.3-0.2-0.4-0.3c-2.2,1.4-4.1,3.3-5.3,5.8c-0.2,0.4-0.3,0.8-0.5,1.2c0.5-0.3,1-0.6,1.6-0.9
						C261.3,311.6,261.8,311.2,262.2,310.7z"/>
					<path class="st1" d="M259.4,305c-0.4,0.4-0.7,0.8-1.1,1.2c0.4,0.2,0.9,0.3,1.3,0.5c0.3,0,0.5,0.1,0.7,0.3
						c0.5-0.5,0.9-1,1.5-1.4c-0.1,0-0.2-0.1-0.3-0.1C260.8,305.2,260.2,305.1,259.4,305z"/>
					<path class="st1" d="M256.9,314.2c0.1-0.9,0.3-1.9,0.7-2.8c-0.9,0.5-1.7,1.1-2.6,1.7c-0.2,0.9-0.2,1.8-0.2,2.7
						c0.1-0.1,0.1-0.1,0.2-0.2C255.6,315.1,256.2,314.6,256.9,314.2z"/>
					<path class="st1" d="M259.7,311.5c1.2-2.5,3.1-4.4,5.3-5.8c-0.3-0.2-0.5-0.3-0.8-0.5c-0.2-0.1-0.3-0.3-0.4-0.4
						c-0.2,0.3-0.4,0.6-0.8,0.7c-0.2,0.1-0.4,0.2-0.7,0.2c-0.2,0-0.4,0-0.6-0.1c-0.5,0.5-1,0.9-1.5,1.4c0.1,0.1,0.2,0.1,0.3,0.2
						c0.5,0.5,0.6,1.3,0.3,1.9c0,0,0,0.1,0,0.1c0,0.1-0.1,0.2-0.1,0.2c0,0,0,0,0,0c-0.2,0.2-0.4,0.4-0.7,0.5
						c-0.8,0.4-1.6,0.9-2.4,1.3c-0.4,1-0.6,1.9-0.7,2.8c0.7-0.5,1.5-1,2.3-1.5C259.3,312.3,259.5,311.9,259.7,311.5z"/>
					<path class="st1" d="M266.3,290.8c0.8-2.2,1.5-4.3,1.6-6.8C267,286.1,266.5,288.4,266.3,290.8z"/>
					<path class="st1" d="M266,283.5C266,283.5,266,283.5,266,283.5c0.3-0.7,0.7-1.3,1.1-2c0.2-0.4,0.5-0.7,0.8-1
						c-0.1-0.8-0.3-1.6-0.5-2.3c-0.6,0.5-1.1,1.1-1.6,1.8C265.9,281,266,282.2,266,283.5z"/>
					<path class="st1" d="M264.2,301c0-0.1,0-0.2,0-0.3c0-1,0-2.1,0-3.2c0-2.3-0.1-4.7,0.2-7.1c-0.1,0.3-0.2,0.5-0.3,0.8
						c-1.3,3.8-1.3,7-0.6,10.7c0.3-0.2,0.5-0.3,0.8-0.5C264.3,301.3,264.3,301.1,264.2,301z"/>
					<path class="st1" d="M265.8,305.2c-0.3,0.2-0.5,0.3-0.8,0.5c0.1,0.1,0.3,0.2,0.4,0.3C265.5,305.7,265.7,305.4,265.8,305.2z"/>
					<path class="st1" d="M263.9,303.8c0,0.1,0,0.1,0,0.2c0.4-0.3,0.8-0.5,1.2-0.7c-0.5-0.5-0.7-1.2-0.8-1.8
						c-0.3,0.2-0.5,0.3-0.8,0.5c0.1,0.4,0.2,0.8,0.3,1.2C263.9,303.3,263.9,303.6,263.9,303.8z"/>
					<path class="st1" d="M265.9,303.9c-0.1-0.1-0.3-0.2-0.4-0.3c-0.1-0.1-0.3-0.3-0.4-0.4c-0.4,0.2-0.8,0.5-1.2,0.7
						c0,0.3,0,0.5-0.1,0.7c0.1,0.2,0.3,0.3,0.4,0.4c0.2,0.2,0.5,0.4,0.8,0.5c0.3-0.2,0.5-0.3,0.8-0.5
						C265.9,304.8,265.9,304.3,265.9,303.9z"/>
					<path class="st1" d="M264.2,297.5c0,1.1,0,2.2,0,3.2c0,0.1,0,0.2,0,0.3c0,0.1,0,0.3,0.1,0.4c0.3-0.2,0.7-0.3,1-0.5
						c-0.5-2.9-0.5-5.7,0.6-9l0.2-0.6c0-0.1,0.1-0.2,0.1-0.4c0.2-2.4,0.6-4.8,1.6-6.8c0-0.2,0-0.3,0-0.5c0-1.1,0-2.1-0.1-3
						c-0.3,0.3-0.5,0.7-0.8,1c-0.4,0.6-0.8,1.3-1.1,2c-0.1,2.5-0.8,4.6-1.6,6.9C264.2,292.8,264.2,295.2,264.2,297.5z"/>
					<path class="st1" d="M265.8,302.9c0-0.1-0.1-0.3-0.1-0.4c-0.1-0.5-0.2-1.1-0.3-1.6c-0.3,0.2-0.7,0.3-1,0.5
						c0.1,0.7,0.4,1.3,0.8,1.8C265.4,303.1,265.6,303,265.8,302.9z"/>
					<path class="st1" d="M265.8,302.9c-0.2,0.1-0.4,0.2-0.6,0.4c0.1,0.1,0.2,0.3,0.4,0.4c0.1,0.1,0.3,0.2,0.4,0.3
						c0-0.1,0-0.2,0-0.2C265.9,303.4,265.8,303.1,265.8,302.9z"/>
					<path class="st6" d="M184.6,309.7c0,1.5,0,2.9,0,4.3c0,0.3,0,0.6,0,0.7c0,0,0,0.1,0,0.1c0,0.1,0,0.1,0,0.2c0,0.1,0,0.3-0.1,0.4
						c-0.1,0.4-0.2,0.8-0.4,1.1c0.1,0.2,0.1,0.4,0.3,0.5c0,0,0,0,0,0c0.1,0.1,0.2,0.1,0.3,0.2c0.7-0.7,1.5-1.2,2.4-1.4
						c1.7-0.8,3.8-1.3,6-1.6c5-0.7,9.9-0.2,12.3,0.2c0.3,0,0.5,0.1,0.8,0.2c3.1-1.5,5.1-3.8,4.6-7.4c-0.6-4.7-4.9-7.3-9.2-6.7
						c-0.4,0.1-0.9,0.2-1.3,0.3c-2.3,0.7-4.4,1.9-6.4,3.3c2.9-7.6,3.7-15.8-3.9-17.4c-0.8-0.2-1.5-0.2-2.3-0.1
						c-2.9,0.4-5.6,2.6-6.3,5.3c-0.1,0.3-0.1,0.5-0.2,0.8c0.1,0.2,0.3,0.4,0.4,0.7C184.7,298.7,184.6,304.5,184.6,309.7z"/>
					<path class="st1" d="M187.5,284.7c0.6-0.1,1.2-0.1,1.8,0l4.9-0.6c-0.9-0.5-2-0.9-3.3-1.2c-1.2-0.2-2.4-0.3-3.7-0.1
						c-2.4,0.3-4.7,1.5-6.4,3.1l4.9-0.7C186.3,285,186.9,284.8,187.5,284.7z"/>
					<path class="st1" d="M178.3,289c0.5,0.5,1,1,1.5,1.6c1-2.5,3.2-4.6,5.9-5.5l-4.9,0.7C179.8,286.7,178.9,287.8,178.3,289z"/>
					<path class="st1" d="M190.5,284.8c2.9,0.6,5,2.1,6.3,4.4c1.4,2.6,1.7,6.2,0.6,10.6c0.8-0.4,1.6-0.6,2.4-0.9
						c0.5-0.2,1.1-0.3,1.6-0.4c2.8-0.4,5.6,0.3,7.7,2c2,1.6,3.4,3.9,3.7,6.5c0.5,3.6-0.8,6.4-3.9,8.5c0.7,0.3,1.4,0.6,2,1
						c3.7-2.9,4.3-6.5,3.9-9.7c-0.4-3.1-2-5.9-4.5-7.8c-2.6-2-5.9-2.8-9.2-2.4c-0.4,0.1-0.8,0.1-1.2,0.2c0.3-3.4-0.1-6.3-1.4-8.6
						c-0.8-1.4-2.1-3-4.3-4.2l-4.9,0.6C189.7,284.7,190.1,284.7,190.5,284.8z"/>
					<path class="st1" d="M187.5,284.7c-0.6,0.1-1.2,0.2-1.7,0.4l3.6-0.5C188.7,284.6,188.1,284.6,187.5,284.7z"/>
					<path class="st1" d="M181.5,292c0.7-2.7,3.4-4.9,6.3-5.3c0.8-0.1,1.5-0.1,2.3,0.1c7.6,1.6,6.8,9.8,3.9,17.4
						c2-1.5,4.1-2.6,6.4-3.3c0.4-0.1,0.9-0.2,1.3-0.3c4.3-0.6,8.6,2,9.2,6.7c0.5,3.6-1.5,5.9-4.6,7.4c0.9,0.2,1.8,0.5,2.6,0.8
						c3.1-2,4.4-4.9,3.9-8.5c-0.4-2.6-1.7-4.9-3.7-6.5c-2.1-1.6-5-2.3-7.7-2c-0.6,0.1-1.1,0.2-1.6,0.4c-0.8,0.2-1.6,0.5-2.4,0.9
						c1-4.5,0.8-8-0.6-10.6c-1.3-2.3-3.4-3.8-6.3-4.4c-0.4-0.1-0.8-0.1-1.1-0.1l-3.6,0.5c-2.7,0.9-5,3-5.9,5.5
						c0.5,0.6,1,1.3,1.5,2.1C181.4,292.5,181.4,292.2,181.5,292z"/>
					<path class="st1" d="M184.4,317.1C184.4,317.1,184.4,317.1,184.4,317.1c-0.2-0.2-0.2-0.4-0.3-0.6c0,0.1-0.1,0.2-0.2,0.3
						C184.1,316.9,184.2,317,184.4,317.1z"/>
					<path class="st6" d="M178.6,306.2c-0.9-3.8-1.9-8.1-1.5-12.5c-2.1-2.8-5.4-5.2-8.8-4.7c-0.7,0.1-1.4,0.3-2,0.6
						c-4.2,2.1-5.1,7.2-2.5,11c1.5,2.2,4,3.2,6.1,4.6c3.3,2.3,5.9,5.6,7.4,9.4c0.9,0.1,1.9,0.3,2.8,0.5
						C180.1,312.4,179.4,309.4,178.6,306.2z"/>
					<path class="st6" d="M178.6,306.2c0.8,3.2,1.5,6.2,1.4,9c0.1,0,0.1,0,0.2,0.1c0.1-0.2,0.2-0.4,0.3-0.6c0,0,0-0.1,0-0.1
						c0,0,0,0,0-0.1c0-0.1,0-0.2,0-0.3c-0.1-2.7,0.1-5.6,0-8.5c-0.7-2.8-1.4-5.7-1.5-8.6c-0.2-0.5-0.5-1.1-0.8-1.6
						c-0.3-0.6-0.7-1.1-1.1-1.7C176.7,298.1,177.7,302.4,178.6,306.2z"/>
					<path class="st6" d="M180.6,305.7c-0.1-3-0.4-5.9-1.5-8.6C179.2,300,179.9,302.8,180.6,305.7z"/>
					<path class="st1" d="M168.1,287.1c0.9-0.1,1.8-0.1,2.7,0.1l4.2-0.6c-2.6-1.4-5.1-1.8-7.2-1.5c-1.1,0.2-2.2,0.5-3.3,1
						c-1.2,0.6-2.2,1.3-3.1,2.2l4.2-0.6C166.4,287.4,167.3,287.2,168.1,287.1z"/>
					<path class="st1" d="M177.6,291.1c0,0,0-0.1,0-0.1c0.2-0.7,0.4-1.4,0.8-2c-1.1-1.1-2.2-1.8-3.4-2.5l-4.2,0.6
						C173.3,287.6,175.7,289.1,177.6,291.1z"/>
					<path class="st1" d="M158.7,293.2c-0.9,3.3-0.2,6.8,1.7,9.7c1.6,2.3,3.8,3.7,5.6,4.7c0.6,0.3,1.1,0.7,1.6,1
						c2.4,1.6,4.3,3.9,5.5,6.5c0.5-0.2,1-0.3,1.6-0.4c0.1,0,0.3,0,0.4,0c-1.3-3.1-3.6-5.8-6.3-7.7c-0.5-0.4-1.1-0.7-1.7-1.1
						c-1.7-1-3.6-2.2-4.9-4.1c-1.6-2.4-2.2-5.4-1.4-8.1c0.7-2.5,2.4-4.6,4.7-5.8c0.1,0,0.2-0.1,0.2-0.1l-4.2,0.6
						C160.2,289.7,159.2,291.3,158.7,293.2z"/>
					<path class="st1" d="M182.6,305.4c0.9,3.5,1.7,7,1.5,10.5c0,0.2,0,0.4,0.1,0.6c0.2-0.4,0.3-0.7,0.4-1.1c0-0.1,0-0.3,0.1-0.4
						c0-0.1,0-0.1,0-0.2c0,0,0,0,0-0.1c0-0.2,0-0.4,0-0.7c0-1.4,0-2.8,0-4.3c0.1-5.2,0.2-11.1-2.8-16.3c-0.1-0.2-0.3-0.5-0.4-0.7
						c-0.2,1.3-0.3,2.6-0.3,3.8C182.1,299.4,182.5,302.4,182.6,305.4z"/>
					<path class="st1" d="M179.5,291.5c0.1-0.3,0.2-0.6,0.3-0.9c-0.5-0.6-1-1.1-1.5-1.6c-0.3,0.6-0.6,1.3-0.8,2c0,0,0,0.1,0,0.1
						c0.6,0.6,1.2,1.3,1.6,2C179.3,292.6,179.4,292.1,179.5,291.5z"/>
					<path class="st1" d="M179.2,293.2c0.3,0.4,0.6,0.8,0.8,1.2c0.4,0.7,0.7,1.4,1,2.2c0-1.3,0-2.6,0.3-3.8c-0.5-0.8-1-1.5-1.5-2.1
						c-0.1,0.3-0.2,0.6-0.3,0.9C179.4,292.1,179.3,292.6,179.2,293.2z"/>
					<path class="st1" d="M184.1,316.5c-0.1-0.2-0.1-0.4-0.1-0.6c0.2-3.5-0.6-7-1.5-10.5c0,1.4,0,2.9,0,4.3c0,1.5,0,3,0,4.4
						c0,0.2,0,0.3,0,0.5c0,0,0,0.1,0,0.2c0,0.1,0,0.2,0,0.3c-0.1,0.3-0.2,0.7-0.3,1c0.6,0.3,1.2,0.6,1.8,0.9
						C184,316.8,184,316.6,184.1,316.5z"/>
					<path class="st1" d="M168.1,287.1c-0.8,0.1-1.6,0.4-2.4,0.7l5.1-0.7C169.9,287,169,286.9,168.1,287.1z"/>
					<path class="st1" d="M169.9,305.3c-2.1-1.4-4.6-2.5-6.1-4.6c-2.5-3.8-1.6-8.9,2.5-11c0.7-0.3,1.4-0.5,2-0.6
						c3.4-0.5,6.6,1.9,8.8,4.7c0.1-0.9,0.2-1.7,0.4-2.6c-1.9-2-4.2-3.6-6.8-4l-5.1,0.7c-0.1,0-0.2,0.1-0.2,0.1
						c-2.4,1.2-4.1,3.3-4.7,5.8c-0.7,2.7-0.2,5.6,1.4,8.1c1.3,2,3.2,3.1,4.9,4.1c0.6,0.3,1.1,0.7,1.7,1.1c2.8,1.9,5,4.6,6.3,7.7
						c0.7-0.1,1.4-0.1,2.2,0C175.8,310.9,173.2,307.6,169.9,305.3z"/>
					<path class="st1" d="M182.6,305.4c-0.1-3-0.4-6-1.5-8.8C181.1,299.5,181.8,302.5,182.6,305.4z"/>
					<path class="st1" d="M180.6,305.7C180.6,305.7,180.6,305.7,180.6,305.7c0.1,2.8-0.1,5.7,0,8.4c0,0.1,0,0.2,0,0.3c0,0,0,0,0,0.1
						c0,0,0,0.1,0,0.1c0,0.2-0.2,0.5-0.3,0.6c0.6,0.2,1.2,0.4,1.8,0.7c0,0,0-0.1,0-0.1C182.2,312.5,181.4,309.2,180.6,305.7z"/>
					<path class="st1" d="M178.3,295.4c0.3,0.5,0.5,1.1,0.8,1.6c-0.1-1.3,0-2.6,0.2-3.8c-0.5-0.7-1-1.4-1.6-2
						c-0.2,0.9-0.3,1.7-0.4,2.6C177.6,294.3,177.9,294.8,178.3,295.4z"/>
					<path class="st1" d="M180.6,305.7C180.6,305.7,180.6,305.7,180.6,305.7c0.9,3.6,1.7,6.9,1.5,10.1c0,0,0,0.1,0,0.1
						c0,0,0.1,0,0.1,0.1c0.2-0.3,0.3-0.6,0.3-1c0-0.1,0-0.2,0-0.3c0,0,0-0.1,0-0.2c0-0.2,0-0.3,0-0.5c-0.1-1.4,0-2.8,0-4.4
						c0-1.4,0-2.9,0-4.3c-0.7-2.9-1.4-5.9-1.5-8.8c-0.3-0.7-0.6-1.5-1-2.2c-0.2-0.4-0.5-0.8-0.8-1.2c-0.2,1.3-0.2,2.6-0.2,3.8
						C180.2,299.7,180.5,302.7,180.6,305.7z"/>
					<path class="st6" d="M189.8,321.6c0.2,0.2,0.3,0.4,0.5,0.6c0.6,0.7,1,1.4,1.4,2.1c5.2,2.6,7.7,7.9,12.9,10.9
						c1.2,0.7,2.5,0.9,3.8,0.7c3.1-0.4,6-3.2,6.5-6.5c0.6-5-3.8-9.1-8.3-10.6c-2.1,0.8-4.7,1.5-7.9,1.9
						C195.5,321.3,192.4,321.4,189.8,321.6z"/>
					<path class="st6" d="M188.3,319.7c-0.1,0-0.2,0.1-0.2,0.1c0.6,0.6,1.2,1.1,1.7,1.7c2.5-0.1,5.7-0.3,8.9-0.7
						c3.2-0.4,5.8-1.1,7.9-1.9c-0.6-0.2-1.1-0.3-1.7-0.4c-0.8-0.1-1.7-0.2-2.7-0.3c-1.2,0.3-2.4,0.5-3.8,0.7
						c-3.1,0.4-6.3,0.6-8.8,0.7c-0.3,0-0.7,0-1,0.1C188.6,319.7,188.4,319.7,188.3,319.7C188.3,319.7,188.3,319.7,188.3,319.7z"/>
					<path class="st6" d="M198.4,318.8c1.4-0.2,2.6-0.4,3.8-0.7c-2.7-0.2-5.7-0.3-8.5,0.1c-1.8,0.3-3.5,0.7-5,1.4c0.3,0,0.6,0,1-0.1
						C192.1,319.4,195.3,319.3,198.4,318.8z"/>
					<path class="st1" d="M216.9,329.7c-0.5,4.1-4,7.6-8.2,8.2c-1.8,0.2-3.5-0.1-5-1c-2.7-1.6-4.7-3.7-6.6-5.7
						c-1.4-1.4-2.6-2.8-4.1-3.9c0.2,1,0.4,2,0.4,3c0.7,0.7,1.5,1.5,2.2,2.3c1.9,2,4.1,4.3,7.1,6.1c1.9,1.1,4.1,1.6,6.3,1.2
						c5-0.7,9.2-5,9.9-9.9c0.7-5.7-3-10.8-7.9-13.5c-0.6,0.4-1.2,0.9-1.9,1.3C213.7,319.9,217.5,324.5,216.9,329.7z"/>
					<path class="st1" d="M193.1,314.3c-2.3,0.3-4.3,0.9-6,1.6c-0.9,0.2-1.7,0.7-2.4,1.4c0.3,0.2,0.5,0.3,0.7,0.5c0,0,0,0,0.1,0
						c0.1,0,0.3,0,0.4,0c0,0,0,0,0.1,0c0.6-0.1,1.4-0.1,2.2-0.2c1.5-0.6,3.3-1.1,5.2-1.4c3.1-0.4,6.2-0.3,8.6-0.1
						c1.5-0.4,3-0.8,4.2-1.4c-0.3-0.1-0.5-0.1-0.8-0.2C203,314.1,198.1,313.6,193.1,314.3z"/>
					<path class="st1" d="M209.1,317.7c0.7-0.4,1.3-0.8,1.9-1.3c-0.7-0.4-1.3-0.7-2-1c-0.7,0.5-1.5,0.9-2.4,1.3
						C207.4,317,208.2,317.3,209.1,317.7z"/>
					<path class="st1" d="M202.1,316.1c1.2,0.1,2.3,0.2,3.1,0.4c0.4,0.1,0.9,0.2,1.3,0.3c0.9-0.4,1.7-0.8,2.4-1.3
						c-0.9-0.3-1.7-0.6-2.6-0.8C205,315.3,203.6,315.8,202.1,316.1z"/>
					<path class="st1" d="M187.8,317.8c0.1-0.1,0.3-0.1,0.4-0.2c-0.8,0-1.6,0.1-2.2,0.2c0,0,0,0-0.1,0c-0.1,0-0.3,0-0.4,0
						c0,0,0,0-0.1,0c0.3,0.2,0.7,0.4,1,0.7C186.8,318.2,187.3,317.9,187.8,317.8z"/>
					<path class="st1" d="M214.9,329.4c-0.4,3.3-3.3,6-6.5,6.5c-1.3,0.2-2.6,0-3.8-0.7c-5.2-3-7.7-8.3-12.9-10.9
						c0.6,1,0.9,2,1.2,3.1c1.4,1.1,2.7,2.4,4.1,3.9c1.9,2,3.9,4.1,6.6,5.7c1.5,0.9,3.3,1.2,5,1c4.1-0.6,7.6-4.1,8.2-8.2
						c0.7-5.2-3.1-9.8-7.8-12c-0.7,0.4-1.6,0.8-2.5,1.2C211,320.3,215.5,324.5,214.9,329.4z"/>
					<path class="st1" d="M188.2,317.6c2.7-0.1,6.3-0.3,9.9-0.8c1.3-0.2,2.7-0.4,3.9-0.7c-2.4-0.2-5.5-0.3-8.6,0.1
						C191.4,316.5,189.7,317,188.2,317.6z"/>
					<path class="st1" d="M188.3,319.7C188.3,319.7,188.3,319.7,188.3,319.7c0.1,0,0.2-0.1,0.3-0.1c-0.3,0-0.5,0-0.8,0
						c0.1,0.1,0.1,0.1,0.2,0.2C188.2,319.8,188.2,319.7,188.3,319.7z"/>
					<path class="st1" d="M204.9,318.5c0.6,0.1,1.1,0.2,1.7,0.4c0.9-0.4,1.8-0.7,2.5-1.2c-0.8-0.4-1.7-0.7-2.6-0.9
						c-1.3,0.5-2.7,1-4.3,1.4C203.1,318.2,204,318.3,204.9,318.5z"/>
					<path class="st1" d="M188.2,317.6c-0.1,0.1-0.3,0.1-0.4,0.2c-0.5,0.1-1,0.3-1.3,0.7c0.5,0.4,1,0.8,1.5,1.2c0.2,0,0.5,0,0.8,0
						c1.5-0.7,3.2-1.1,5-1.4c2.8-0.4,5.8-0.3,8.5-0.1c1.6-0.4,3.1-0.8,4.3-1.4c-0.4-0.1-0.9-0.2-1.3-0.3c-0.8-0.1-1.9-0.3-3.1-0.4
						c-1.3,0.3-2.6,0.5-3.9,0.7C194.5,317.4,190.8,317.5,188.2,317.6z"/>
					<path class="st6" d="M146,355.8c-0.1,0-0.2,0-0.2,0l0.4,28.6c0.3,0,0.6,0,1,0C146.8,374.9,146.4,365.4,146,355.8z"/>
					<path class="st6" d="M146,355.8c0.4,9.6,0.8,19.1,1.1,28.7c1.1,0,2.2-0.1,3.3-0.2c-0.4-9.8-0.8-19.6-1.1-29.3
						C148.2,355.3,147.1,355.6,146,355.8z"/>
					<g>
						<path class="st6" d="M188.8,327.3c-0.2-0.1-0.4-0.1-0.6-0.2c-1.2-0.1-2.2-0.6-3.1-1.4c-1.2-1-1.8-2.5-1.9-4.1
							c0-0.2,0-0.3,0-0.5c-0.5-0.2-0.9-0.5-1.3-0.9c-0.4-0.2-0.8-0.4-1.1-0.6c-0.4,0.1-0.7,0.2-1.1,0.3c-1.1,0.2-2.3,0-3.3-0.5
							c0,0,0,0,0,0c-0.1,0-0.1-0.1-0.2-0.1c-0.3-0.2-0.6-0.4-0.9-0.6c-1.8,0.3-3.5,1.3-4.6,3.4c-5.9,10.7-6.7,26.3-19.2,32
							c-0.7,0.3-1.3,0.6-2,0.8c0.4,9.8,0.8,19.6,1.1,29.3c0.3,0,0.6,0,1-0.1c5.1-0.7,10.2-2.7,14.9-6.1c7.9-5.8,13.5-15.8,17.8-24.4
							c2.6-5.3,4.2-11.3,4.9-17.2C189.3,333.3,189.8,330.2,188.8,327.3z"/>
						<path class="st6" d="M126.1,329.4c1.3-3.8,3.3-7.3,5.5-10.7c1.3-2,3.6-4.1,3.9-6.6c0.5-4.3-5.8-10.2-8.5-13.1
							c-0.2-0.2-0.4-0.3-0.6-0.5c-0.5-0.4-1.1-0.6-1.7-0.5c-0.2,0-0.4,0.1-0.7,0.2c-1.5,0.6-3,1.4-4.4,2.4
							c-7.9,5.3-13.4,14.8-16.1,23.6c-3.7,12.5-2.2,23.7,4.2,35.1c3.1,5.5,7.4,10.6,12.4,14.8c6.9,5.7,15.1,9.5,23.6,10.3
							c-0.3-9.4-0.7-18.8-1.1-28.2C130.1,356.2,121.6,342.7,126.1,329.4z"/>
					</g>
					<path class="st6" d="M145.8,355.9c-0.2,0-0.4,0.1-0.6,0.1c-0.8,0.1-1.7,0.2-2.5,0.2c0.4,9.4,0.7,18.8,1.1,28.2
						c0.8,0.1,1.6,0.1,2.4,0.1L145.8,355.9z"/>
					<path class="st6" d="M183.1,321.1C183.1,321,183.1,321,183.1,321.1c-0.4-0.3-0.8-0.6-1.3-0.8
						C182.2,320.6,182.6,320.9,183.1,321.1C183.1,321.1,183.1,321.1,183.1,321.1C183.1,321.1,183.1,321.1,183.1,321.1z"/>
					<path class="st6" d="M176.2,319.4C176.2,319.4,176.2,319.4,176.2,319.4c1,0.5,2.2,0.7,3.3,0.6c0.4-0.1,0.8-0.2,1.1-0.3
						c-1.8-0.8-3.7-1.3-5.5-1c0,0-0.1,0-0.1,0c0.3,0.2,0.6,0.4,0.9,0.6C176.1,319.3,176.1,319.4,176.2,319.4z"/>
					<path class="st6" d="M183.1,321.2c0,0.2,0,0.3,0,0.5c0.1,1.6,0.8,3.1,1.9,4.1c0.9,0.8,2,1.3,3.1,1.4c0.2,0.1,0.4,0.1,0.6,0.2
						c-0.3-0.8-0.7-1.6-1.4-2.4c-0.4-0.1-0.7-0.4-1.1-0.6c-0.5-0.4-0.8-0.9-1-1.5c-0.5-0.5-1.1-0.9-1.7-1.3
						C183.5,321.3,183.3,321.2,183.1,321.2z"/>
					<path class="st6" d="M183.1,321C183.1,321,183.1,321,183.1,321C183.1,321.1,183.1,321.1,183.1,321c0,0.1,0,0.1,0,0.1
						c0.2,0.1,0.4,0.2,0.6,0.3C183.5,321.3,183.3,321.2,183.1,321z"/>
					<path class="st6" d="M187.4,324.9c-0.1-0.1-0.1-0.2-0.2-0.2c-0.5-0.7-1.2-1.3-1.9-1.9c0.2,0.6,0.5,1.1,1,1.5
						C186.7,324.5,187,324.8,187.4,324.9z"/>
					<path class="st1" d="M191.1,328.5c0.4,2.3,0.2,4.7-0.1,7.1l-0.1,1.1c-0.7,6.4-2.4,12.5-5.1,17.9c-4.5,9.1-10.2,19.1-18.4,25.1
						c-4.8,3.5-10.2,5.7-15.8,6.5c0,0,0,0,0,0c-0.4,0.1-0.8,0.1-1.2,0.1c0,0.7,0,1.3,0.1,2c0.5,0,0.9-0.1,1.4-0.1
						c6-0.8,11.6-3.1,16.7-6.9c8.6-6.2,14.4-16.6,19-25.8c2.7-5.5,4.6-12,5.3-18.5c0-0.4,0.1-0.7,0.1-1.1c0.2-1.7,0.4-3.6,0.3-5.5
						C192.6,329.6,191.9,329,191.1,328.5z"/>
					<path class="st1" d="M147.2,386.5c-0.3,0-0.7,0-1,0l0,2c0.4,0,0.7,0,1.1,0C147.3,387.8,147.3,387.1,147.2,386.5z"/>
					<path class="st1" d="M147.2,386.5c0,0.7,0,1.3,0.1,2c1.1,0,2.2-0.1,3.3-0.2c0-0.7,0-1.3-0.1-2
						C149.4,386.4,148.3,386.5,147.2,386.5z"/>
					<path class="st1" d="M150.5,352.3c7.8-3.6,10.6-11.5,13.6-19.9c1.4-3.8,2.8-7.8,4.7-11.3c1.2-2.2,2.9-3.6,5.1-4.2
						c-0.1-0.3-0.3-0.6-0.4-1c-0.1-0.3-0.2-0.6-0.4-0.9c-2.6,0.8-4.6,2.5-6.1,5.1c-2,3.6-3.4,7.7-4.8,11.6
						c-2.8,8-5.5,15.5-12.6,18.8c-0.2,0.1-0.3,0.1-0.5,0.2c0,0.7,0.1,1.4,0.1,2.1C149.6,352.7,150,352.5,150.5,352.3z"/>
					<path class="st1" d="M145.9,353.8c0-0.7-0.1-1.3-0.1-2c0,0-0.1,0-0.1,0l0,2C145.8,353.8,145.9,353.8,145.9,353.8z"/>
					<path class="st1" d="M149.2,352.8c0-0.7-0.1-1.4-0.1-2.1c-1.1,0.5-2.2,0.8-3.3,1.1c0,0.7,0.1,1.3,0.1,2
						C147,353.6,148.1,353.3,149.2,352.8z"/>
					<path class="st1" d="M124.4,296.1c1.1-0.2,2.3,0.1,3.2,0.8c0.3,0.2,0.6,0.5,0.9,0.7c0.3,0.4,0.7,0.8,1.1,1.2
						c3.3,3.5,8.4,8.8,7.8,13.5c-0.3,2.4-1.8,4.3-3.1,6c-0.4,0.5-0.8,1-1.1,1.5c-2.6,3.8-4.3,7.1-5.3,10.2c-2.2,6.5-1,13.6,3,18.5
						c3,3.6,7.1,5.6,11.6,5.6c0-0.7,0-1.3-0.1-2c-3.9,0-7.4-1.7-10-4.9c-3.6-4.4-4.7-10.7-2.7-16.6c1-2.9,2.6-6,5.1-9.7
						c0.3-0.4,0.6-0.9,1-1.4c1.4-1.8,3.2-4.1,3.5-7c0.6-5.6-4.8-11.3-8.4-15.1c-0.4-0.4-0.8-0.8-1.1-1.2c-0.3-0.4-0.7-0.7-1.2-1
						c-1.3-1-3-1.4-4.6-1.2c-0.5,0.1-1.1,0.2-1.6,0.4c-1,0.4-1.9,0.9-2.8,1.4c0,0.8,0,1.5,0,2.3c1.2-0.7,2.4-1.3,3.6-1.8
						C123.7,296.2,124.1,296.1,124.4,296.1z"/>
					<path class="st1" d="M144.9,354c0.3,0,0.5-0.1,0.8-0.1l0-2c-0.4,0.1-0.7,0.1-1.1,0.2c-0.7,0.1-1.4,0.1-2.1,0.1
						c0,0.7,0,1.3,0.1,2C143.4,354.1,144.2,354.1,144.9,354C144.9,354,144.9,354,144.9,354z"/>
					<path class="st1" d="M144,388.4c0-0.7,0-1.3-0.1-2c-8.6-0.7-16.9-4.5-23.7-9.8c0,0.9,0,1.7,0,2.6c1.3,1,2.7,1.9,4.1,2.8
						C130.7,385.7,137.4,387.9,144,388.4z"/>
					<path class="st1" d="M143.9,386.4c0,0.7,0,1.3,0.1,2c0.8,0.1,1.5,0.1,2.3,0.1l0-2C145.4,386.5,144.7,386.4,143.9,386.4z"/>
					<path class="st1" d="M184.7,317.3c-0.1-0.1-0.2-0.1-0.3-0.2C184.4,317.2,184.5,317.3,184.7,317.3
						C184.7,317.4,184.7,317.3,184.7,317.3z"/>
					<path class="st1" d="M182.7,318.5c0.1,0.1,0.3,0.2,0.4,0.2c-0.1-0.1-0.2-0.2-0.3-0.3C182.8,318.4,182.7,318.4,182.7,318.5z"/>
					<path class="st1" d="M182.8,318.4c0.1,0.1,0.2,0.2,0.3,0.3c0.2,0.1,0.3,0.2,0.5,0.3c0.3-0.6,0.6-1.1,1-1.6
						c-0.1-0.1-0.2-0.2-0.2-0.3c-0.1-0.1-0.3-0.2-0.5-0.3C183.6,317.4,183.3,317.9,182.8,318.4z"/>
					<path class="st1" d="M177.2,314.7c0,0.1,0,0.1,0.1,0.2c0.1,0.5,0.3,0.8,0.7,1c0,0,0.1,0,0.1,0.1c0,0,0,0,0,0
						c0.3,0.1,0.6,0.2,0.9,0.1c0.4-0.1,0.8-0.2,1-0.5c0-0.1,0-0.2,0-0.3C179.1,314.9,178.2,314.7,177.2,314.7z"/>
					<path class="st1" d="M180,315.2c0,0.1,0,0.2,0,0.3c0.1-0.1,0.1-0.2,0.2-0.2C180.2,315.2,180.1,315.2,180,315.2z"/>
					<path class="st1" d="M173.8,316.9c0.4-0.1,0.7-0.2,1.1-0.2c0.3,0,0.7-0.1,1-0.1c-0.3-0.4-0.5-0.8-0.6-1.3
						c-0.1-0.2-0.2-0.5-0.3-0.7c-0.1,0-0.3,0-0.4,0c-0.6,0.1-1.1,0.2-1.6,0.4c0.1,0.3,0.3,0.6,0.4,0.9
						C173.5,316.3,173.6,316.6,173.8,316.9z"/>
					<path class="st1" d="M182.8,318.4c0-0.1-0.1-0.1-0.1-0.2c-0.4-0.6-0.7-1.3-0.7-2c-0.3,0.5-0.8,1-1.4,1.3c0.7,0.3,1.4,0.6,2.1,1
						C182.7,318.4,182.8,318.4,182.8,318.4z"/>
					<path class="st1" d="M182.7,318.2c0,0.1,0.1,0.1,0.1,0.2c0.4-0.4,0.8-0.9,1.1-1.5c-0.6-0.3-1.2-0.6-1.8-0.9
						c0,0.1-0.1,0.1-0.1,0.2C182,316.9,182.3,317.6,182.7,318.2z"/>
					<path class="st1" d="M175.9,316.6c1.4,0,2.8,0.2,4.2,0.7c-0.1-0.6-0.2-1.1-0.2-1.7c0,0,0-0.1,0-0.2c-0.3,0.3-0.7,0.5-1,0.5
						c-0.3,0-0.6,0-0.9-0.1c0,0,0,0,0,0c0,0-0.1,0-0.1-0.1c-0.3-0.2-0.6-0.5-0.7-1c0-0.1,0-0.1-0.1-0.2c-0.7-0.1-1.4-0.1-2.2,0
						c0.1,0.2,0.2,0.5,0.3,0.7C175.5,315.8,175.7,316.2,175.9,316.6z"/>
					<path class="st1" d="M182,316.2c0-0.1,0-0.2,0-0.3c-0.6-0.3-1.2-0.5-1.8-0.7c-0.1,0.1-0.1,0.2-0.2,0.2c0,0,0,0.1,0,0.2
						c0,0.6,0,1.2,0.2,1.7c0.2,0.1,0.3,0.1,0.5,0.2C181.2,317.2,181.7,316.7,182,316.2z"/>
					<path class="st1" d="M182,315.9c0,0.1,0,0.2,0,0.3c0-0.1,0.1-0.1,0.1-0.2C182.1,316,182.1,315.9,182,315.9z"/>
					<path class="st1" d="M189.8,321.6C189.8,321.6,189.8,321.6,189.8,321.6c-1.1,0.1-1.9,0.1-2.7,0.2c0.5,0.5,0.9,0.9,1.4,1.4
						c0.1,0,0.1,0,0.2,0c1.1,0.3,2.1,0.6,3.1,1.1c-0.4-0.7-0.9-1.4-1.4-2.1C190.2,321.9,190,321.7,189.8,321.6z"/>
					<path class="st1" d="M189.7,321.6C189.8,321.6,189.8,321.6,189.7,321.6c-0.4-0.6-1-1.2-1.6-1.7c-0.6,0.2-0.9,0.8-1,1.4
						c0,0,0,0,0,0c0,0.1,0,0.1,0,0.2c0,0.1,0,0.1,0,0.2c0,0,0,0,0.1,0C187.9,321.7,188.8,321.6,189.7,321.6z"/>
					<path class="st1" d="M192.9,327.3c-0.8-0.6-1.7-1.1-2.6-1.5c0.4,0.9,0.7,1.8,0.9,2.7c0.8,0.5,1.5,1.1,2.2,1.8
						C193.3,329.3,193.2,328.3,192.9,327.3z"/>
					<path class="st1" d="M185.4,317.8c-0.2-0.2-0.5-0.3-0.7-0.5c0,0-0.1,0.1-0.1,0.1C184.8,317.6,185.1,317.7,185.4,317.8z"/>
					<path class="st1" d="M185.4,319.8c-0.1,0-0.1,0-0.2,0c-0.2,0-0.4-0.1-0.6-0.1c0.2,0.2,0.5,0.3,0.7,0.5
						C185.3,320,185.4,319.9,185.4,319.8z"/>
					<path class="st1" d="M183.6,319c0.4,0.2,0.7,0.4,1,0.7c0.2,0.1,0.4,0.1,0.6,0.1c0.1,0,0.1,0,0.2,0c0.2-0.5,0.6-1,1-1.3
						c-0.3-0.2-0.6-0.5-1-0.7c-0.3,0-0.6-0.2-0.8-0.4C184.2,317.9,183.8,318.4,183.6,319z"/>
					<path class="st1" d="M188.7,323.1c-0.1,0-0.1,0-0.2,0c0.1,0.1,0.2,0.2,0.2,0.3c0.6,0.8,1.1,1.6,1.5,2.4c1,0.4,1.8,0.9,2.6,1.5
						c-0.3-1-0.6-2.1-1.2-3.1C190.8,323.8,189.8,323.4,188.7,323.1z"/>
					<path class="st1" d="M186.2,319.8c-0.3,0-0.5,0-0.8,0c0,0.1-0.1,0.2-0.1,0.4c0.6,0.5,1.3,1,1.8,1.5c0-0.1,0-0.1,0-0.2
						c0-0.1,0-0.1,0-0.2c0,0,0,0,0,0c0-0.6,0.4-1.2,1-1.4c-0.1-0.1-0.1-0.1-0.2-0.2C187.3,319.7,186.7,319.7,186.2,319.8
						C186.2,319.8,186.2,319.8,186.2,319.8z"/>
					<path class="st1" d="M185.4,319.8c0.3,0,0.5,0,0.8,0c0,0,0,0,0.1,0c0.5,0,1-0.1,1.6-0.1c-0.5-0.4-1-0.8-1.5-1.2
						C186,318.8,185.7,319.3,185.4,319.8z"/>
					<path class="st1" d="M151.3,354.1c12.5-5.8,13.3-21.3,19.2-32c1.2-2.1,2.8-3.1,4.6-3.4c-0.6-0.5-1-1.1-1.3-1.8
						c-2.1,0.6-3.9,2-5.1,4.2c-1.9,3.5-3.3,7.5-4.7,11.3c-3,8.4-5.8,16.3-13.6,19.9c-0.4,0.2-0.8,0.4-1.2,0.5c0,0.7,0.1,1.4,0.1,2.1
						C149.9,354.7,150.6,354.5,151.3,354.1z"/>
					<path class="st1" d="M145.9,353.8c-0.1,0-0.1,0-0.2,0l0,2c0.1,0,0.2,0,0.2,0C146,355.1,146,354.5,145.9,353.8z"/>
					<path class="st1" d="M149.3,354.9c0-0.7-0.1-1.4-0.1-2.1c-1.1,0.4-2.2,0.7-3.3,0.9c0,0.7,0.1,1.3,0.1,2
						C147.1,355.6,148.2,355.3,149.3,354.9z"/>
					<path class="st1" d="M181.2,319.5c-0.2,0.1-0.3,0.1-0.5,0.2c0.4,0.2,0.8,0.4,1.1,0.6C181.6,320,181.4,319.8,181.2,319.5z"/>
					<path class="st1" d="M188.9,336.5c-0.6,5.9-2.2,11.8-4.9,17.2c-4.3,8.6-9.8,18.6-17.8,24.4c-4.8,3.5-9.8,5.4-14.9,6.1
						c-0.3,0-0.6,0.1-1,0.1c0,0.7,0.1,1.3,0.1,2c0.4,0,0.8-0.1,1.2-0.1c0,0,0,0,0,0c5.7-0.8,11-3,15.8-6.5c8.2-6,13.9-16,18.4-25.1
						c2.6-5.3,4.4-11.5,5.1-17.9l0.1-1.1c0.3-2.4,0.5-4.7,0.1-7.1c-0.7-0.5-1.5-0.9-2.4-1.2C189.8,330.2,189.3,333.3,188.9,336.5z"
						/>
					<path class="st1" d="M146.2,384.5l0,2c0.3,0,0.7,0,1,0c0-0.7-0.1-1.3-0.1-2C146.8,384.5,146.5,384.5,146.2,384.5z"/>
					<path class="st1" d="M150.4,384.3c-1.1,0.1-2.2,0.2-3.3,0.2c0,0.7,0.1,1.3,0.1,2c1.1,0,2.2-0.1,3.3-0.2
						C150.5,385.6,150.4,385,150.4,384.3z"/>
					<path class="st1" d="M124.7,298.1c0.7-0.1,1.3,0.1,1.7,0.5c0.2,0.1,0.4,0.3,0.6,0.5c2.7,2.9,9,8.8,8.5,13.1
						c-0.3,2.5-2.5,4.6-3.9,6.6c-2.2,3.3-4.2,6.8-5.5,10.7c-4.5,13.3,4,26.8,16.6,26.7c0-0.7,0-1.3-0.1-2c-4.5,0-8.7-2-11.6-5.6
						c-4.1-4.9-5.2-12-3-18.5c1.1-3.1,2.7-6.3,5.3-10.2c0.3-0.5,0.7-1,1.1-1.5c1.3-1.7,2.8-3.6,3.1-6c0.5-4.7-4.5-10-7.8-13.5
						c-0.4-0.4-0.8-0.9-1.1-1.2c-0.3-0.3-0.5-0.5-0.9-0.7c-0.9-0.7-2-1-3.2-0.8c-0.4,0.1-0.8,0.2-1.1,0.3c-1.3,0.5-2.5,1.1-3.6,1.8
						c0,0.8,0,1.6,0,2.4c1.4-0.9,2.9-1.7,4.4-2.4C124.3,298.1,124.5,298.1,124.7,298.1z"/>
					<path class="st1" d="M145.8,355.9l0-2c-0.3,0.1-0.5,0.1-0.8,0.1c0,0,0,0,0,0c-0.8,0.1-1.5,0.1-2.3,0.1c0,0.7,0,1.3,0.1,2
						c0.8,0,1.6-0.1,2.5-0.2C145.4,355.9,145.6,355.9,145.8,355.9z"/>
					<path class="st1" d="M143.8,384.4c-8.5-0.8-16.8-4.6-23.6-10.3c0,0.8,0,1.6,0,2.5c6.9,5.3,15.1,9.1,23.7,9.8
						C143.9,385.7,143.9,385,143.8,384.4z"/>
					<path class="st1" d="M146.2,384.5c-0.8,0-1.6-0.1-2.4-0.1c0,0.7,0.1,1.3,0.1,2c0.8,0.1,1.5,0.1,2.3,0.1L146.2,384.5z"/>
					<path class="st1" d="M183.1,321C183.1,321,183.1,321,183.1,321c0-0.7,0.2-1.4,0.4-2c-0.1-0.1-0.3-0.2-0.4-0.4
						c-0.1-0.1-0.3-0.2-0.4-0.2c-0.4,0.4-1,0.8-1.5,1c0.2,0.3,0.4,0.5,0.6,0.8C182.3,320.5,182.7,320.8,183.1,321z"/>
					<path class="st1" d="M183.1,318.7c0.1,0.1,0.3,0.3,0.4,0.4c0,0,0-0.1,0-0.1C183.4,318.9,183.3,318.8,183.1,318.7z"/>
					<path class="st1" d="M175.2,318.7c1.7-0.2,3.6,0.2,5.5,1c0.2-0.1,0.3-0.1,0.5-0.2c0-0.1-0.1-0.1-0.1-0.2
						c-0.4-0.5-0.6-1-0.8-1.6c-0.3,0.1-0.7,0.2-1,0.3c-0.7,0.1-1.4,0-2.1-0.3c0,0-0.1-0.1-0.1-0.1c-0.5-0.2-0.8-0.6-1.1-1
						c-0.3,0-0.7,0-1,0.1c-0.4,0.1-0.8,0.1-1.1,0.2C174.1,317.6,174.6,318.2,175.2,318.7C175.1,318.7,175.2,318.7,175.2,318.7z"/>
					<path class="st1" d="M180.6,317.5c-0.1,0.1-0.2,0.1-0.4,0.2c0.2,0.6,0.4,1.1,0.8,1.6c0,0.1,0.1,0.1,0.1,0.2
						c0.6-0.3,1.1-0.6,1.5-1C182,318.1,181.3,317.8,180.6,317.5z"/>
					<path class="st1" d="M177,317.6c0,0,0.1,0.1,0.1,0.1c0.6,0.3,1.3,0.4,2.1,0.3c0.4,0,0.7-0.2,1-0.3c0-0.1-0.1-0.2-0.1-0.4
						c-1.4-0.5-2.9-0.8-4.2-0.7C176.2,317,176.6,317.4,177,317.6z"/>
					<path class="st1" d="M180.6,317.5c-0.2-0.1-0.3-0.1-0.5-0.2c0,0.1,0.1,0.2,0.1,0.4C180.4,317.7,180.5,317.6,180.6,317.5z"/>
					<path class="st1" d="M187.1,321.7c0.1,0.7,0.7,1.4,1.4,1.4C188.1,322.6,187.7,322.2,187.1,321.7
						C187.2,321.7,187.1,321.7,187.1,321.7z"/>
					<path class="st1" d="M187.1,321.7C187.1,321.7,187.1,321.7,187.1,321.7C187.1,321.7,187.2,321.7,187.1,321.7
						C187.2,321.7,187.1,321.7,187.1,321.7z"/>
					<path class="st1" d="M183.7,321.4c0.6,0.4,1.2,0.9,1.7,1.3c-0.1-0.3-0.2-0.6-0.2-1c0,0-0.1,0-0.1,0
						C184.6,321.7,184.1,321.6,183.7,321.4z"/>
					<path class="st1" d="M187.4,324.9c0.6,0.8,1,1.6,1.4,2.4c0.9,0.3,1.7,0.7,2.4,1.2c-0.2-0.9-0.4-1.8-0.9-2.7
						c-0.6-0.2-1.2-0.5-1.8-0.6C188.1,325.1,187.7,325,187.4,324.9z"/>
					<path class="st1" d="M185.1,321.2c0-0.4,0.1-0.7,0.2-1c-0.2-0.2-0.4-0.3-0.7-0.5c-0.4-0.1-0.7-0.3-1.1-0.6
						c-0.2,0.6-0.4,1.2-0.4,1.9c0,0,0,0,0,0.1c0.2,0.1,0.4,0.3,0.6,0.4c0.4,0.2,0.9,0.3,1.4,0.4c0,0,0.1,0,0.1,0c0-0.1,0-0.2,0-0.3
						C185.1,321.4,185.1,321.3,185.1,321.2z"/>
					<path class="st1" d="M183.6,319C183.6,319,183.5,319,183.6,319c0.3,0.4,0.6,0.6,1,0.7C184.3,319.4,183.9,319.2,183.6,319z"/>
					<path class="st1" d="M188.5,323.1c-0.7,0-1.3-0.7-1.4-1.4c-0.2,0-0.4,0-0.6,0.1c0,0,0,0,0,0c-0.5,0.1-0.9,0.1-1.3,0
						c0,0.3,0.1,0.7,0.2,1c0.7,0.6,1.3,1.3,1.9,1.9c0.1,0.1,0.1,0.2,0.2,0.2c0.3,0.1,0.7,0.2,1,0.2c0.7,0.2,1.3,0.4,1.8,0.6
						c-0.4-0.8-0.9-1.6-1.5-2.4C188.7,323.3,188.6,323.2,188.5,323.1z"/>
					<path class="st1" d="M185.3,320.1c-0.1,0.3-0.2,0.7-0.2,1c0,0.1,0,0.3,0,0.3c0,0.1,0,0.2,0,0.3c0.4,0,0.9,0,1.3,0c0,0,0,0,0,0
						c0.2,0,0.4,0,0.6-0.1c0,0,0,0,0-0.1C186.5,321.1,185.9,320.6,185.3,320.1z"/>
				</g>
				<g>
					<path class="st8" d="M218,125.2c2.8-0.5,12.6-2.8,15.4-3.3c6.8-1.4,13.7-3,20.7-3c11.2,0,22,4.2,32.6,8.3l-72,15.1"/>
					<g>
						<path class="st6" d="M218.8,128.3c9-1.7,17.8-4.2,26.8-5.6c14.1-2.2,27,2.4,40,7.5c0-2.1,0-4.1,0-6.2c-21,4.4-42,8.8-63,13.2
							c-3,0.6-6,1.3-9,1.9c-4.1,0.8-2.3,7.1,1.7,6.2c21-4.4,42-8.8,63-13.2c3-0.6,6-1.3,9-1.9c3.4-0.7,2.7-5.2,0-6.2
							c-13.4-5.2-26.7-9.7-41.2-7.8c-9.8,1.3-19.4,4-29.1,5.9C213.1,122.9,214.8,129.1,218.8,128.3L218.8,128.3z"/>
					</g>
				</g>
				<g>
					<path class="st8" d="M109.5,245.8c-7.2-5.4-14.8-11.1-18.5-19.6c-2-4.6-2.7-9.6-3.3-14.5c-3-23.5-7.7-39.5-8.8-63.2
						c22.1-6.2,50.4-9.5,73.3-12.8c0,0,9.4,3.1,13.1,9.6"/>
					<g>
						<path class="st6" d="M111.1,243c-6.2-4.6-12.8-9.6-16.4-16.6c-4.2-8-4.1-18.1-5.5-26.8c-2.7-17-6.2-33.9-7.1-51.1
							c-0.8,1-1.6,2.1-2.4,3.1c16.1-4.4,32.7-7,49.2-9.4c4-0.6,8-1.1,12.1-1.7c1.9-0.3,3.9-0.5,5.8-0.8c1-0.1,2.1-0.3,3.1-0.4
							c0.3,0,3-0.1,1.4-0.4c4.2,0.9,9,4.6,11.1,8.1c2.2,3.5,7.7,0.3,5.6-3.3c-3.1-5.1-8.5-8.8-14.1-10.7c-2.6-0.9-5.6,0.1-8.2,0.5
							c-4.5,0.6-9,1.2-13.4,1.9c-18.2,2.6-36.5,5.2-54.2,10.1c-1.3,0.4-2.4,1.7-2.4,3.1c0.9,18.6,4.8,36.7,7.6,55.1
							c1.4,9.2,1.6,19.1,6.5,27.4c4.3,7.3,11.3,12.6,18,17.6C111.2,251,114.4,245.4,111.1,243L111.1,243z"/>
					</g>
				</g>
				<g>
					<path class="st1" d="M215.9,138.3c19.6-3.3,51.6-8.6,71.2-11.9c8.5,28.4,14.2,57.5,17,87c0.1,1.4,0.2,3-0.7,4.2
						c-1,1.3-2.8,1.7-4.4,2c-63,11.2-119.1,22.6-182.9,27c-7.3,0.5-9.8-17.7-10.2-20.5c-4.8-25.8-6-41.9-9.3-67.9
						c20.9-3.5,47.6-7.4,68.5-10.9"/>
					<g>
						<path class="st6" d="M216.8,141.4c23.7-4,47.5-7.9,71.2-11.9c-1.3-0.7-2.6-1.5-4-2.2c7.6,25.3,13,51.3,16,77.5
							c0.3,3,1.2,6.5,1,9.5c-0.1,1.5-0.5,1.7-1.9,2c-1.5,0.4-3.1,0.6-4.6,0.8c-6.8,1.2-13.6,2.4-20.3,3.7
							c-12.8,2.3-25.7,4.7-38.5,6.9c-25.5,4.5-51,8.6-76.7,11.6c-13.1,1.6-26.3,2.8-39.5,3.8c-1.3,0.1-3.1,0.6-4.3-0.1
							c-1.2-0.7-2-2.6-2.5-3.8c-1.4-3-2.1-6.4-2.7-9.6c-4.6-23.6-7-47.6-10-71.5c-0.8,1-1.6,2.1-2.4,3.1
							c22.8-3.8,45.7-7.1,68.5-10.9c4.1-0.7,2.3-6.9-1.7-6.2c-22.8,3.8-45.7,7.1-68.5,10.9c-1.2,0.2-2.5,1.8-2.4,3.1
							c3,23.7,5.8,47.2,9.7,70.8c1.1,6.3,2.5,14.7,7.7,19c3.9,3.2,9.6,1.6,14.1,1.2c7.2-0.6,14.5-1.3,21.7-2
							c27.8-2.9,55.4-7.1,82.9-11.9c13.8-2.4,27.6-4.9,41.4-7.4c7.2-1.3,14.3-2.6,21.5-3.9c4.7-0.8,12.6-0.7,14.5-6.3
							c1.1-3.2,0.1-7.2-0.3-10.4c-0.4-3.8-0.9-7.6-1.4-11.4c-1.1-7.9-2.3-15.7-3.8-23.5c-3-15.8-6.8-31.3-11.4-46.7
							c-0.5-1.8-2.2-2.5-4-2.2c-23.7,4-47.5,7.9-71.2,11.9C211,135.9,212.7,142.1,216.8,141.4L216.8,141.4z"/>
					</g>
				</g>
				<g>
					<path class="st7" d="M133.8,177.1c-11.8,6.8-6.9,37-3,32.8c7.4-7.9,22.5-6.5,43.8-2.8c6.9,1.2,3.8-17.7-4.5-28
						C162,168.8,143.6,169.7,133.8,177.1z"/>
					<g>
						<path class="st6" d="M132.2,174.3c-8.8,5.4-9.8,18.2-8.7,27.5c0.4,3.3,0.9,7.9,3.5,10.4c3.8,3.7,7.1-1.6,10.5-3
							c5.7-2.5,12.6-2,18.6-1.4c4.3,0.4,8.7,1,13,1.7c2.8,0.5,6.3,1.8,9,0.2c4.6-2.6,3.8-9.5,3-13.8c-1.2-6.6-4-13.1-8.1-18.4
							C163.6,165.4,143.8,165.9,132.2,174.3c-3.3,2.4-0.1,8,3.3,5.6c8.2-5.9,21.7-7.7,30-1c4.2,3.4,6.7,9,8.3,14.1
							c0.7,2.4,1.4,4.9,1.5,7.3c0,0.9,0.2,3.4-0.4,3.9c0.7-0.5-0.6-0.4-1.1-0.5c-1.7-0.3-3.5-0.6-5.2-0.9c-3.6-0.6-7.3-1.1-10.9-1.4
							c-5.6-0.6-11.2-0.8-16.7,0.1c-3.8,0.6-9.4,2.3-11.8,5.6c-1,1.4-0.2,0-0.1,0.2c-0.6-0.6,2.9,0.1,2.5,0.1c0.3,0,0.1,0.4-0.1-0.3
							c-0.3-0.9-0.8-2.6-1.1-3.9c-1.3-6.8-1.7-19.3,5.2-23.5C139,177.7,135.7,172.1,132.2,174.3z"/>
					</g>
				</g>
				<g>
					<path class="st6" d="M178.6,150.3c2-5.8-2.1-11.3-6.4-14.7c-5.8-4.6-12.2-8.5-18.8-11.8c-3.7-1.8-7,3.7-3.3,5.6
						c5,2.5,9.7,5.3,14.3,8.5c3.1,2.2,9.7,6.1,8,10.8C171,152.5,177.3,154.2,178.6,150.3L178.6,150.3z"/>
				</g>
				<g>
					<path class="st6" d="M190.7,146.4c-3-7.9-6-15.9-9-23.8c-1.5-3.8-7.7-2.2-6.2,1.7c3,7.9,6,15.9,9,23.8
						C185.9,151.9,192.2,150.2,190.7,146.4L190.7,146.4z"/>
				</g>
				<g>
					<path class="st6" d="M202.1,144.8c-0.6-4.5-1.5-9.1-1.8-13.7c-0.3-3.8-0.3-8,2.4-10.9c2.8-3-1.7-7.6-4.6-4.6
						c-7.6,8.1-3.6,21.1-2.3,30.9C196.5,150.6,202.7,148.8,202.1,144.8L202.1,144.8z"/>
				</g>
				<g>
					<path class="st6" d="M217.7,141.4c-1.4-9.8,2.5-19.6,9.8-26c3.1-2.8-1.5-7.3-4.6-4.6c-9.2,8.1-13.2,20.3-11.5,32.3
						C212,147.2,218.3,145.4,217.7,141.4L217.7,141.4z"/>
				</g>
				<g>
					<path class="st6" d="M109.6,176.4c-0.5-2.3-2-9.3,0.5-10.5c2.9-1.4,7-1.8,10.1-2.7c2-0.5,1.2-3.6-0.9-3.1
						c-2.8,0.7-5.7,1.5-8.5,2.2c-1.4,0.4-3.3,0.6-4.2,1.8c-1,1.3-0.9,3.6-1,5.2c-0.1,2.7,0.2,5.3,0.8,7.9
						C107,179.3,110.1,178.4,109.6,176.4L109.6,176.4z"/>
				</g>
				<g>
					<path class="st6" d="M278.7,214.6c4.5-0.6,8.7-1.6,13-3.2c0.7-0.3,1.1-0.8,1.2-1.6c0.4-3.6,0.2-7.1-0.6-10.7
						c-0.4-2-3.5-1.2-3.1,0.9c0.7,3.3,0.8,6.5,0.5,9.8c0.4-0.5,0.8-1,1.2-1.6c-3.9,1.5-8,2.5-12.1,3.1
						C276.7,211.7,276.7,214.9,278.7,214.6L278.7,214.6z"/>
				</g>
				<g>
					<path class="st6" d="M202.4,249.2c8.2,2.1,16.5,1.2,24-2.4"/>
					<g>
						<path class="st6" d="M201.6,252.3c9.1,2.1,18,1.2,26.4-2.8c3.7-1.8,0.5-7.3-3.3-5.6c-6.8,3.2-14.2,3.8-21.5,2.1
							C199.3,245.2,197.6,251.4,201.6,252.3L201.6,252.3z"/>
					</g>
				</g>
				<g>
					<path class="st6" d="M278.4,276.3c3.1-0.4,6.1-0.6,9.2-0.8c1.2-0.1,2.8,0.1,4-0.3c1.2-0.4,0.8-0.8,1.2,0.5
						c1.5,4,2.2,8.3,2.9,12.5c0.4,2,3.5,1.2,3.1-0.9c-0.5-2.8-1.1-5.5-1.8-8.3c-0.5-1.9-0.8-4.4-1.9-6.1c-1.1-1.7-2.7-1.1-4.5-0.9
						c-4.1,0.3-8.2,0.4-12.2,1C276.3,273.4,276.3,276.6,278.4,276.3L278.4,276.3z"/>
				</g>
				<g>
					<path class="st6" d="M157.1,417.1c1.7,4.8,3,9.7,3.9,14.7c0.4,2,3.5,1.2,3.1-0.9c-0.9-5-2.2-9.9-3.9-14.7
						C159.5,414.3,156.4,415.1,157.1,417.1L157.1,417.1z"/>
				</g>
				<g>
					<path class="st6" d="M165.5,422.5c1.6,2.9,2.9,5.9,4,9.1c0.7,1.9,3.8,1.1,3.1-0.9c-1.2-3.4-2.6-6.7-4.3-9.8
						C167.3,419,164.5,420.6,165.5,422.5L165.5,422.5z"/>
				</g>
				<g>
					<path class="st6" d="M173.5,423.2c1.2,1.7,2.4,3.4,3.6,5.1c1.2,1.7,4,0.1,2.8-1.6c-1.2-1.7-2.4-3.4-3.6-5.1
						C175.1,419.9,172.3,421.5,173.5,423.2L173.5,423.2z"/>
				</g>
				<g>
					<path class="st6" d="M317.1,405.2c0.2,1.5,0.4,2.9,0.6,4.4c0.1,0.9,1.2,1.3,2,1.1c0.9-0.3,1.2-1.1,1.1-2
						c-0.2-1.5-0.4-2.9-0.6-4.4c-0.1-0.9-1.2-1.3-2-1.1C317.3,403.5,317,404.4,317.1,405.2L317.1,405.2z"/>
				</g>
				<g>
					<path class="st6" d="M318.6,406.4c2.1,0,2.1-3.2,0-3.2C316.6,403.2,316.6,406.4,318.6,406.4L318.6,406.4z"/>
				</g>
				<g>
					<path class="st6" d="M325.9,386.9c1.3,7,2.6,14,3.8,21c0.4,2,3.5,1.2,3.1-0.9c-1.3-7-2.6-14-3.8-21
						C328.6,384.1,325.5,384.9,325.9,386.9L325.9,386.9z"/>
				</g>
				<g>
					<path class="st6" d="M322.6,399.1c0.6,4.4,1.2,8.8,1.8,13.2c0.3,2,3.4,1.2,3.1-0.9c-0.6-4.4-1.2-8.8-1.8-13.2
						C325.5,396.2,322.4,397,322.6,399.1L322.6,399.1z"/>
				</g>
				<g>
					<path class="st6" d="M124.5,200.8c-1.2,0.6-4.1,2.3-5.1,0.6c-1.9-3.7-7.5-0.4-5.6,3.3c2.9,5.5,9.4,4,13.9,1.7
						C131.5,204.5,128.2,198.9,124.5,200.8L124.5,200.8z"/>
				</g>
				<g>
					<path class="st6" d="M122.8,190.6c-2.8,0.3-5.1-0.7-6.9-3c-1.1-1.4-3.4-1.1-4.6,0c-1.3,1.3-1.1,3.2,0,4.6
						c2.7,3.4,7.1,5.2,11.4,4.8c1.7-0.2,3.2-1.4,3.2-3.2C126,192.2,124.5,190.4,122.8,190.6L122.8,190.6z"/>
				</g>
				<g>
					<path class="st6" d="M125.7,183.1c-2.9-1.1-5.5-3-7.3-5.6c-2.3-3.4-7.9-0.2-5.6,3.3c2.8,4,6.5,6.9,11.1,8.6
						c1.6,0.6,3.5-0.7,4-2.2C128.4,185.3,127.4,183.7,125.7,183.1L125.7,183.1z"/>
				</g>
				<g>
					<g>
						<path class="st6" d="M128,202.1c14.7-4.9,27.1-15,42-19.3c1.5-0.4,0.9-2.8-0.6-2.3c-15,4.2-27.3,14.4-42,19.3
							C125.8,200.2,126.5,202.6,128,202.1L128,202.1z"/>
					</g>
					<g>
						<g>
							<path class="st6" d="M138.6,205.4c-2.9-9.2-4.1-18.6-5.9-28.1c-0.7,0.3-1.5,0.6-2.2,0.9c0.3,0.8,0.7,1.6,1,2.3
								c0.6,1.4,2.7,0.2,2.1-1.2c-0.3-0.8-0.7-1.6-1-2.3c-0.6-1.3-2.4-0.3-2.2,0.9c1.8,9.5,3,18.8,5.9,28.1
								C136.8,207.5,139.1,206.9,138.6,205.4L138.6,205.4z"/>
						</g>
						<g>
							<path class="st6" d="M138.2,175.7c2.7,9.7,5.5,19.3,8.7,28.8c0.5,1.5,2.8,0.8,2.3-0.6c-3.1-9.5-6-19.1-8.7-28.8
								C140.1,173.5,137.8,174.2,138.2,175.7L138.2,175.7z"/>
						</g>
						<g>
							<path class="st6" d="M148.2,172.2c2.7,10.8,5.2,21.5,8.6,32.1c0.5,1.5,2.8,0.8,2.3-0.6c-3.4-10.6-5.9-21.3-8.6-32.1
								C150.2,170.1,147.9,170.7,148.2,172.2L148.2,172.2z"/>
						</g>
						<g>
							<path class="st6" d="M161,175.6c2.6,10.4,5.3,20.8,8.4,31.1c0.4,1.5,2.8,0.9,2.3-0.6c-3-10.3-5.8-20.7-8.4-31.1
								C163,173.5,160.7,174.1,161,175.6L161,175.6z"/>
						</g>
						<g>
							<path class="st6" d="M125.9,194.8c13.2-5.9,26.5-11.8,39.8-17.6c-0.6-0.6-1.1-1.1-1.7-1.7c-0.3,0.4-0.5,0.8-0.8,1.2
								c-0.9,1.3,1.2,2.5,2.1,1.2c0.3-0.4,0.5-0.8,0.8-1.2c0.7-1.1-0.7-2.1-1.7-1.7c-13.3,5.8-26.6,11.7-39.8,17.6
								C123.2,193.3,124.5,195.4,125.9,194.8L125.9,194.8z"/>
						</g>
						<g>
							<path class="st6" d="M128.9,208.7c15.2-6.4,30.1-13.1,44.9-20.3c1.4-0.7,0.2-2.8-1.2-2.1c-14.6,7.1-29.4,13.8-44.4,20.1
								C126.9,206.9,127.5,209.3,128.9,208.7L128.9,208.7z"/>
						</g>
						<g>
							<path class="st6" d="M155.6,206.2c0.2-0.1,3.1-0.9,3.2-1.3c0-0.1-0.9-2-1.1-1.9c-0.2,0.1,0,0,0,0c0.5,0.3,1,0.6,1.5,0.8
								c0.7,1.9-0.7,0.7,0.3,0.6c0.3,0,1.4-1,1.6-1.1c1.5-1,3-2.1,4.5-3.1c3.4-2.3,6.8-4.8,10.8-6.1c1.5-0.5,0.8-2.8-0.6-2.3
								c-5.1,1.7-9.4,5-13.7,8c-0.9,0.6-5.8,3-5.2,4.7c0.3,0.7,0.8,0.9,1.5,0.8c1-0.1,2-1.3,1.4-2.3c-1-1.7-4.4,0.5-5.4,0.9
								C152.9,204.7,154.1,206.8,155.6,206.2L155.6,206.2z"/>
						</g>
						<g>
							<path class="st6" d="M168.7,207.1c3.4-2.4,6.8-4.7,10.2-7.1c1.3-0.9,0.1-3-1.2-2.1c-3.4,2.4-6.8,4.7-10.2,7.1
								C166.2,205.9,167.4,208,168.7,207.1L168.7,207.1z"/>
						</g>
						<g>
							<path class="st6" d="M131.9,184.2c8.9-2.2,17.8-5.3,26.1-9.1c1.4-0.7,0.2-2.7-1.2-2.1c-8.1,3.8-16.8,6.8-25.5,8.9
								C129.8,182.2,130.4,184.5,131.9,184.2L131.9,184.2z"/>
						</g>
					</g>
				</g>
				<g>
					<path class="st10" d="M184.7,71.6c0.3-6.3-2.1-12.6-6.4-17.1c-2.9-3.1-6.9-5.5-11.2-5.6s-8.8,2.4-10.1,6.4
						c-1.5,4.4,0.8,9.2,3,13.3c1.3,2.4,2.5,4.7,3.8,7.1c-2.1,0.6-4.3,1.3-6.4,1.9c-0.8,0.2-1.7,0.5-2.3,1.1
						c-1.4,1.4-1.8,3.9-0.4,5.1s4.5,1.5,6.4,1.8c9.2-0.5,19.7-2.3,28.3-5.6c1.4-0.6,2.9-1.2,3.8-2.5c0.9-1.3,0.8-3.3-0.6-4
						c-0.6-0.3-1.9-1.7-2.6-1.7c-2.2,0.1-3.3,0.3-5.4,0.8"/>
					<g>
						<path class="st6" d="M188,71.6c0.2-12.2-9.4-27.9-23.5-25.7c-5.7,0.9-10.5,5.2-11.2,11.1c-0.8,7.3,4.3,14.3,7.6,20.4
							c0.6-1.6,1.3-3.2,1.9-4.7c-3.4,1-8.2,1.6-10.6,4.5c-2.1,2.5-2.4,6.6,0.2,9c5.4,5.1,16.5,2.2,22.8,1.1
							c4.4-0.8,8.8-1.9,13.1-3.3c3.3-1.1,7.3-2.5,8.4-6.1c1.1-3.3-0.6-5.6-3.1-7.5c-3.1-2.3-6.3-1.5-9.9-0.7c-4.1,0.8-2.3,7,1.7,6.2
							c1.2-0.2,3.4-1.1,4.5-0.2c1,0.8,0.4,0.4-0.4,1c-0.8,0.6-2,0.8-3,1.2c-4.4,1.5-9,2.6-13.6,3.4c-4,0.7-9,1.8-13,1.2
							c-0.8-0.1-1.9-0.2-2.6-0.6c-0.4-0.3-0.5-0.2-0.3,0.1c0-0.5,0.3-0.8,0.8-0.9c2.1-1,4.7-1.4,6.8-2.1c2-0.6,2.9-2.9,1.9-4.7
							c-3-5.5-13.1-21.1-0.3-22c9.8-0.7,15.4,11.3,15.3,19.5C181.4,75.7,187.9,75.7,188,71.6L188,71.6z"/>
					</g>
				</g>
				<g>
					<path class="st6" d="M169,85c-1,8.4-2.3,16.9-2,25.4c0.2,8.1,2.1,15.7,5.2,23.1c0.8,1.9,3.6,0.3,2.8-1.6
						c-3.2-7.5-4.8-15.3-4.8-23.5c0-7.8,1.1-15.7,2.1-23.4C172.4,83,169.2,83,169,85L169,85z"/>
				</g>
				<g>
					<path class="st6" d="M182.6,83.2c2.6,2.2,4.4,5,6.5,7.5c2,2.3,4,4.6,6.1,6.8c3.2,3.5,6.5,6.9,8.4,11.3c0.9,2.1,2,4.7,2,7
						c0,2.1-0.7,4.2-1,6.2c-0.5,3.4,0.6,7.4,4.9,7.2c2.1-0.1,2.1-3.3,0-3.2c-3.8,0.2-0.7-8.7-0.7-10.7c-0.1-3.8-2.3-8.3-4.3-11.5
						c-2.1-3.4-5-6.3-7.7-9.3c-2-2.2-4-4.3-5.9-6.6c-2-2.4-3.7-5-6.1-7.1C183.3,79.6,181,81.8,182.6,83.2L182.6,83.2z"/>
				</g>
				<g>
					<path class="st6" d="M140.9,83.2c-5.9,1-11,5-13.6,10.3c-1.8,3.7,3.8,7,5.6,3.3c1.9-4,5.3-6.6,9.7-7.4
						C146.7,88.7,144.9,82.5,140.9,83.2L140.9,83.2z"/>
				</g>
				<g>
					<path class="st6" d="M132.2,73.7c-5.9,0.8-11.9,1.7-17.8,2.5c-4.1,0.6-2.3,6.8,1.7,6.2c5.9-0.8,11.9-1.7,17.8-2.5
						C138,79.3,136.3,73.1,132.2,73.7L132.2,73.7z"/>
				</g>
				<g>
					<path class="st6" d="M133.8,62.4c-4.9-0.6-9.9-1.2-14.8-1.9c-4.1-0.5-4.1,5.9,0,6.4c4.9,0.6,9.9,1.2,14.8,1.9
						C137.9,69.3,137.9,62.9,133.8,62.4L133.8,62.4z"/>
				</g>
				<g>
					<g>
						<path class="st7" d="M260.8,155.3c13.3,2.9,17.6,33.3,12.6,30.4c-9.4-5.3-23.4,0.5-42.6,10.4c-6.2,3.2-8.9-15.7-4.1-28.1
							C231.4,155.8,249.2,151.2,260.8,155.3z"/>
						<g>
							<path class="st6" d="M259.9,158.4c7.2,1.8,10.3,11.6,11.6,18c0.3,1.4,0.5,2.8,0.6,4.3c0,0.7,0.1,1.4,0,2.1
								c0,0.3-0.2,1.1-0.2,1.2c-0.8-0.5,2.7-1.2,2.6-1.1c0.1,0.1,0.3,0.1,0.4,0.2c-0.4-0.2-0.7-0.4-1.1-0.6
								c-0.4-0.2-0.9-0.4-1.4-0.6c-2.1-0.8-4.3-1.2-6.6-1.3c-12.5-0.5-24.9,7-35.7,12.3c-1.6,0.8-0.9,0.1-0.4,0.7
								c-0.3-0.3-0.6-0.7-0.8-1.2c-1-1.9-1.3-4.5-1.5-6.6c-0.4-5.5,0-11.6,2.2-16.7C234.4,158.1,249.7,154.9,259.9,158.4
								c3.9,1.3,5.6-4.9,1.7-6.2c-11.8-4-27.4-0.5-35.1,9.7c-4.2,5.6-5.5,13.2-5.5,20c-0.1,5,0.3,12.1,4.1,15.9
								c1.5,1.6,3.7,2.3,5.8,1.8c1.7-0.4,3.3-1.5,4.9-2.3c2.4-1.2,4.9-2.4,7.4-3.6c6.4-3,13.6-6.3,20.8-6.7c2.6-0.1,5,0.2,7.3,1.2
								c1.7,0.7,3.2,1.4,4.9,0.3c3.1-1.9,2.6-6.7,2.3-9.8c-1.2-9.9-5.9-23.9-16.8-26.6C257.6,151.2,255.9,157.4,259.9,158.4z"/>
						</g>
					</g>
					<g>
						<path class="st6" d="M275.2,181.4c2.8,0.5,5.6,0.8,8.3-0.3c2.2-1,4-2.9,4.5-5.3c0.3-1.7-0.5-3.5-2.2-4c-1.6-0.4-3.6,0.5-4,2.2
							c-0.4,2.1-3.4,1.4-4.9,1.1c-1.7-0.3-3.5,0.4-4,2.2C272.5,179,273.4,181.1,275.2,181.4L275.2,181.4z"/>
					</g>
					<g>
						<path class="st6" d="M277.2,171c4.6-1,8.2-4.3,9.8-8.7c0.6-1.6-0.7-3.5-2.2-4c-1.8-0.5-3.3,0.6-4,2.2c-0.9,2.3-3,3.7-5.3,4.2
							c-1.7,0.4-2.7,2.4-2.2,4C273.7,170.6,275.4,171.4,277.2,171L277.2,171z"/>
					</g>
					<g>
						<path class="st6" d="M273.7,164.1c3.9-3,6.7-6.7,8.1-11.4c1.2-4-5-5.7-6.2-1.7c-0.9,3-2.7,5.7-5.2,7.6
							c-1.4,1.1-2.1,2.8-1.2,4.4C270.1,164.3,272.3,165.2,273.7,164.1L273.7,164.1z"/>
					</g>
					<g>
						<g>
							<path class="st6" d="M273.8,175c-15.5-0.3-30.3-6.2-45.9-5.8c-1.6,0-1.6,2.5,0,2.4c15.5-0.4,30.4,5.6,45.9,5.8
								C275.3,177.4,275.3,175,273.8,175L273.8,175z"/>
						</g>
						<g>
							<g>
								<path class="st6" d="M266.7,183.7c0-8.9-0.2-17.6-1.3-26.5c-0.1-1.1-1.6-1.7-2.3-0.6c0,0-0.1,0.1-0.1,0.1
									c0.6-0.1,1.1-0.3,1.7-0.4c-0.7-0.4-0.9-1.4-1.6-1.8c-0.6-0.3-1.3-0.1-1.7,0.4c0,0-0.1,0.1-0.1,0.1c-0.8,1.4,1.3,2.6,2.1,1.2
									c0,0,0.1-0.1,0.1-0.1c-0.6,0.1-1.1,0.3-1.7,0.4c0.7,0.4,0.9,1.4,1.6,1.8c0.6,0.3,1.3,0.1,1.7-0.4c0,0,0.1-0.1,0.1-0.1
									c-0.8-0.2-1.5-0.4-2.3-0.6c1,8.9,1.3,17.5,1.3,26.5C264.3,185.3,266.7,185.3,266.7,183.7L266.7,183.7z"/>
							</g>
							<g>
								<path class="st6" d="M253.8,155.3c0.4,10,0.5,20,0.3,30.1c0,1.6,2.4,1.6,2.4,0c0.1-10,0-20-0.3-30.1
									C256.1,153.7,253.7,153.7,253.8,155.3L253.8,155.3z"/>
							</g>
							<g>
								<path class="st6" d="M243.1,155c0.7,11.1,1.5,22.1,1.4,33.2c0,1.6,2.4,1.6,2.4,0c0.1-11.1-0.7-22.1-1.4-33.2
									C245.5,153.5,243,153.5,243.1,155L243.1,155z"/>
							</g>
							<g>
								<path class="st6" d="M231.9,162.1c0.7,10.7,1.1,21.4,1.3,32.2c0,1.6,2.4,1.6,2.4,0c-0.2-10.7-0.6-21.5-1.3-32.2
									C234.2,160.5,231.8,160.5,231.9,162.1L231.9,162.1z"/>
							</g>
							<g>
								<path class="st6" d="M273.9,167.4c-14.4-1.7-28.8-3.3-43.2-4.9c-1-0.1-1.6,1.4-0.9,2.1c0.4,0.3,0.7,0.6,1.1,0.9
									c1.2,1,2.9-0.7,1.7-1.7c-0.4-0.3-0.7-0.6-1.1-0.9c-0.3,0.7-0.6,1.4-0.9,2.1c14.4,1.6,28.8,3.2,43.2,4.9
									C275.4,170,275.4,167.6,273.9,167.4L273.9,167.4z"/>
							</g>
							<g>
								<path class="st6" d="M274.8,181.6c-16.2-1.5-32.3-3.5-48.3-5.9c-1.5-0.2-2.2,2.1-0.6,2.3c16.3,2.4,32.6,4.4,49,6
									C276.4,184.1,276.3,181.7,274.8,181.6L274.8,181.6z"/>
							</g>
							<g>
								<path class="st6" d="M249,187.2c-1-0.1-5.2-1.1-5.2,1c0,1.1,1.4,1.6,2.3,1.4c0.5-0.1,0.9-0.7,0.9-1.2c0.1-2.1-6-2.9-7.3-3.3
									c-5-1.5-10.2-3.3-15.5-3.3c-1.6,0-1.6,2.4,0,2.4c4.3,0,8.6,1.4,12.8,2.6c1.9,0.6,3.7,1.1,5.6,1.7c0.6,0.2,1.3,0.6,1.8,0.6
									c1.3,0,0.1,1,0.2-0.7c0.3-0.4,0.6-0.8,0.9-1.2c0.8-0.1,0.3,0.1,0.2-0.1c-0.7-0.5-0.6,1.8-0.1,2.1c0.6,0.4,2.8,0.2,3.4,0.3
									C250.5,189.7,250.5,187.3,249,187.2L249,187.2z"/>
							</g>
							<g>
								<path class="st6" d="M237,192c-4-1.2-7.9-2.5-11.9-3.7c-1.5-0.5-2.1,1.9-0.6,2.3c4,1.2,7.9,2.5,11.9,3.7
									C237.8,194.8,238.5,192.5,237,192L237,192z"/>
							</g>
							<g>
								<path class="st6" d="M264.7,159.1c-9.1,0.6-18.3,0.3-27.3-0.9c-1.5-0.2-1.5,2.2,0,2.4c9,1.2,18.2,1.5,27.3,0.9
									C266.2,161.4,266.2,159,264.7,159.1L264.7,159.1z"/>
							</g>
						</g>
					</g>
				</g>
				<g>
					<path class="st1" d="M168.9,64c-0.7-1-1.4-2.1-1.8-3.3c-0.2-0.6-0.3-1.1-0.3-1.8c0-0.2,0.1-1.3,0-1.1c-0.5,0.3-0.9,0.6-1.4,0.8
						c0.1,0,0.2-0.1,0.2-0.1c-0.8-0.1-1.7-0.2-2.5-0.3c0.1,0,0.1,0.1,0.2,0.1c3.4,2.4,6.6-3.2,3.3-5.6c-3.6-2.5-5.9,2.4-6.1,5.2
						c-0.3,3.4,1,6.6,2.9,9.3C165.7,70.6,171.3,67.4,168.9,64L168.9,64z"/>
				</g>
				<g>
					<path class="st6" d="M194.2,199.8c0.8,4.9,2.4,17.1,6,20.6c1.1,1.1,5.2,2.9,8,2.1c2.1-0.6,3.7-2,4.7-3.9
						c2.2-4.3,3.9-9.6,3.2-14.5C209.1,208.3,199.1,206.3,194.2,199.8"/>
					<g>
						<path class="st6" d="M192.7,200.2c0.7,4.4,1.3,8.9,2.5,13.3c1,3.7,2.3,7.6,6,9.5c11.7,5.8,17.6-9.5,16.4-18.8
							c-0.1-1.2-1.3-2-2.4-1.4c-6.7,3.7-15.1,1.9-19.8-4.1c-1.3-1.6-3.5,0.7-2.3,2.3c5.6,7.1,15.9,9,23.7,4.6
							c-0.8-0.5-1.6-0.9-2.4-1.4c0.6,4.7-0.6,10.5-3.4,14.4c-2.6,3.6-8.3,3.1-10.6-0.6c-3.3-5.2-3.7-12.7-4.6-18.7
							C195.5,197.3,192.4,198.2,192.7,200.2L192.7,200.2z"/>
					</g>
				</g>
				<g>
					<g>
						<g>
							<path class="st9" d="M303.9,268.5c7.9,0.4,20.4,14.5,25.1,23.3c4.7,8.8,7.5,15.5,7.2,25.7c-0.4,10.6-4.3,19.2-9.5,26.8
								c-5.2,7.7-12.8,12.5-21.1,12.7c-6.6,0.1-13.3-2.8-19.6-6.4c-5-2.8-9.2-8-13.3-12.8c-3.3-3.9-8.2-13.6-10-18.8
								c-1.5-4.5-2.5-2.4-0.2-7.1c1.9-3.8,7.8-6.2,11.3-6.8c0,0,2.3,4.8,4.9,8.3c3.1,4.1,10.9,15.3,14.1,17.7
								c9.3,7.1,10.6,5.4,19.5-2.2c1.1-0.9,2.8-4.6,3.4-6c0.6-1.5,1.9-6.8,1.5-8.6c-1.9-10.5-1.6-10.9-5.4-18.5
								c-0.4-0.8-2.6-8.5-2.9-9.4c-0.4-1.3-1.9-6.3-2.4-7.5C304.6,273.7,305.9,272.3,303.9,268.5"/>
							<g>
								<path class="st6" d="M303.9,270.9c4.6,0.4,8.9,4.7,12,7.8c3.9,3.9,7.5,8.3,10.3,13.1c6.9,11.8,9.7,24.4,5.3,37.7
									c-3.7,11.3-12.4,24.6-25.5,25.1c-13.9,0.5-26.8-10.4-33.8-21.5c-3.3-5.2-5.5-10.6-7.9-16.2c-0.2-0.5-0.7-1.2-0.8-1.7
									c-0.2-0.8-0.5,0.7,0.1-0.3c0.9-1.3,1.2-2.6,2.4-3.7c2.3-2.1,5.4-3.2,8.3-3.7c-0.9-0.4-1.8-0.7-2.7-1.1
									c3.8,7.8,9.6,15,15.1,21.8c4.6,5.7,12.4,12.8,19.9,8.3c7.6-4.5,13.4-12.6,13.1-21.7c-0.1-4-1.3-8.7-2.5-12.5
									c-1.1-3.4-2.9-6.4-3.9-9.5c-1.2-3.7-2.3-7.5-3.4-11.2c-0.7-2.2-1.6-4.4-2.1-6.7c-0.5-2.6-0.8-5-1.9-7.5
									c-1.3-2.8-5.5-0.4-4.2,2.4c0.9,1.8,1,3.6,1.3,5.5c0.3,2,1.1,3.9,1.7,5.8c0.9,2.7,1.7,5.4,2.5,8c0.9,2.9,1.6,5.9,2.9,8.6
									c1.4,2.9,2.6,5.6,3.2,8.7c0.9,4.1,1.9,8.1,1,12.3c-0.9,3.9-2.4,7.3-5.5,9.9c-2.6,2.2-5.6,5.6-9.3,4
									c-3.5-1.5-6.3-4.2-8.7-7.1c-5.5-6.6-11.2-13.9-15-21.7c-0.5-1-1.7-1.3-2.7-1.1c-6.1,1.1-12.1,4.6-14.1,10.8
									c-0.7,2,0.1,3.2,0.9,5c1.4,3,2.4,6.1,3.8,9.1c6.9,14.1,18,26.2,33.5,30.6c15.9,4.5,28.3-5.6,35.4-19
									c7.4-14,7.7-29.6,0.9-43.9c-3.3-6.9-7.6-13.1-12.9-18.7c-4.4-4.6-10.1-9.9-16.7-10.5C300.8,265.8,300.8,270.6,303.9,270.9
									L303.9,270.9z"/>
							</g>
						</g>
						<g>
							<path class="st9" d="M262.3,304.1c-4-14.4,4.3-12.7,1.5-25.6c-0.6-3-6.4-3.3-8.7-2c-1.5,0.9-3.8,5.7-3.9,7.4
								C250.4,292.8,255.7,297.9,262.3,304.1c-5.1-6.4-13.4-12.6-21.6-12.8c-2.6-0.1-7.6,2.1-6.3,5.4
								C237.7,309.6,253.4,300.6,262.3,304.1"/>
							<g>
								<path class="st6" d="M264.7,303.4c-0.9-3.5-1.5-6.9-0.3-10.4c0.7-2.1,1.8-4.1,2.2-6.3c0.6-2.9,0.7-7.2-0.8-9.9
									c-1.4-2.6-4.6-3.4-7.4-3.4c-6.5,0.1-9.8,7.1-9.6,12.9c0.3,8.4,6.1,14.2,11.8,19.6c2.3,2.2,5.4-1,3.4-3.4
									c-5.2-6.3-12.4-12-20.7-13.3c-5.9-0.9-13.3,2.3-10.9,9.4c4.7,13.3,19.6,4.6,29.2,8c2.9,1,4.2-3.6,1.3-4.7
									c-3.8-1.3-7.9-0.9-11.8-0.6c-3.6,0.3-8.5,1.3-11.8-0.9c-1.3-0.9-3.3-3.7-2.4-5.2c1.4-2.2,5.6-1.3,7.5-0.8
									c6.5,1.7,11.9,6.4,16.1,11.5c1.1-1.1,2.3-2.3,3.4-3.4c-4.3-4-9.4-8.4-10.3-14.6c-0.4-2.9,0.2-5.3,1.7-7.8
									c1.1-1.8,3.7-2.9,5.7-1.4c1.5,1.1,1.1,5.3,0.8,7c-0.3,1.7-1.1,3.3-1.7,4.9c-1.8,4.7-1.4,9.4-0.1,14.2
									C260.8,307.7,265.4,306.4,264.7,303.4L264.7,303.4z"/>
							</g>
						</g>
						<g>
							<path class="st1" d="M268,301.1c0.1-5.1-0.3-13.2,2.3-17.5c0.6-1,2.6-2.4,3.7-2.7c1.2-0.4,4.2-0.3,5.3,0.4
								c1.1,0.7,2.4,1.8,2.8,3.1c0.4,1.1,0.5,3.4-1.2,4.6C275.8,292.1,271.3,290.9,268,301.1"/>
							<g>
								<path class="st6" d="M270.4,301.1c0.1-4.6-0.3-9.4,1-13.9c0.7-2.3,2-4,4.5-4.2c1.6-0.1,4.7,1,3.9,3.2c-0.7,2-6.3,3.3-8,4.5
									c-3.2,2.4-4.9,6-6.2,9.7c-1,2.9,3.6,4.2,4.7,1.3c1-2.9,2.3-5.7,4.9-7.4c1.7-1.1,3.7-1.7,5.4-2.6c5-2.7,5.3-8.9,0.5-12.1
									c-4.1-2.8-10.4-1.3-13,2.8c-3.3,5.3-2.5,12.8-2.6,18.7C265.5,304.2,270.3,304.2,270.4,301.1L270.4,301.1z"/>
							</g>
						</g>
						<g>
							<path class="st1" d="M259.5,308.5c-4.5-2.2-14.4-3.8-18.3-0.5c-1.3,1.1-3,3.4-3.4,5.1s1.2,4.6,2.5,5.6c1.4,1.1,3.3,1,5,0.5
								c3.7-1,4.3-3.1,6.9-5.9C253,312.5,258.5,309,259.5,308.5"/>
							<g>
								<path class="st6" d="M260.7,306.5c-5-2.3-11.1-3.4-16.5-2.3c-5.3,1.1-10.4,6.8-8.3,12.3c2.2,6.1,9.1,7.1,13.9,3.2
									c2-1.6,3.1-3.9,5.2-5.4c1.8-1.3,3.7-2.6,5.7-3.6c2.8-1.4,0.3-5.6-2.4-4.2c-2.4,1.2-4.8,2.7-6.8,4.4c-2.4,2-5.5,8.2-9.5,6
									c-2.8-1.5-1.7-4.5,0-6.3c1.3-1.4,2.9-1.8,4.8-2c3.8-0.3,8,0.4,11.5,2C261.1,311.9,263.6,307.7,260.7,306.5L260.7,306.5z"/>
							</g>
						</g>
						<g>
							<path class="st6" d="M269.6,332.5c7.7,1.4,15-4.6,16.2-12.2c0.5-3-4.2-4.4-4.7-1.3c-0.7,4.7-5,9.8-10.3,8.8
								C267.8,327.3,266.5,331.9,269.6,332.5L269.6,332.5z"/>
						</g>
						<g>
							<path class="st6" d="M283.4,349.1c8.5,1.4,15.6-5.3,16-13.7c0.2-3.1-4.7-3.1-4.8,0c-0.2,5-4.7,9.9-9.9,9
								C281.6,344,280.3,348.6,283.4,349.1L283.4,349.1z"/>
						</g>
						<g>
							<path class="st6" d="M310.7,333.9c5.2,2,8.4,9.7,6.9,14.8c-0.9,3,3.8,4.3,4.7,1.3c2.3-7.9-2.6-17.8-10.3-20.8
								C309.1,328.1,307.8,332.8,310.7,333.9L310.7,333.9z"/>
						</g>
						<g>
							<path class="st6" d="M319.1,317.4c6-1.7,12.2,6,13.1,11.1c0.5,3.1,5.2,1.8,4.7-1.3c-1.3-7.7-10.6-16.9-19.1-14.5
								C314.8,313.6,316.1,318.2,319.1,317.4L319.1,317.4z"/>
						</g>
						<g>
							<path class="st6" d="M314.3,298.1c3.6-3.4,8.1-4.9,13-4.4c3.1,0.3,3.1-4.5,0-4.8c-6.1-0.6-12,1.6-16.4,5.8
								C308.7,296.8,312.1,300.2,314.3,298.1L314.3,298.1z"/>
						</g>
					</g>
					<g>
						<g>
							<path class="st9" d="M185.8,316.3c1.1-9.6-4.6-15.9-2.4-24.8c0.4-1.6,4.7-3.3,6.3-3c1.4,0.3,3.7,2.2,4,3.8
								C195.3,300.3,190.6,310.5,185.8,316.3c3.5-6,10.9-13.7,17.6-14.2c2.1-0.2,5,2.4,5.7,4.6C211.6,315.4,195.1,315.2,185.8,316.3
								"/>
							<g>
								<path class="st6" d="M188.2,316.3c0.4-4.6-0.6-8.9-1.7-13.3c-0.6-2.2-1.1-4.4-1.2-6.6c-0.1-2.6-0.1-4.4,2.6-5.2
									c5.5-1.7,3.5,8.4,2.8,10.9c-1.3,4.5-3.6,8.8-6.6,12.5c1.3,1,2.5,2,3.8,2.9c2.7-4.5,6.4-8.8,11-11.4c2.1-1.2,4.4-2.3,6.5-0.6
									c1.2,1,2.1,2.7,1.1,4.2c-1.6,2.3-6.3,2.7-8.8,3c-3.9,0.6-7.9,0.7-11.9,1.2c-3.1,0.3-3.1,5.2,0,4.8c6.8-0.8,26,0.3,26-10.4
									c0-2.8-1.7-5.4-3.9-7.1c-2.6-1.9-5.4-1.9-8.4-0.8c-6.7,2.5-12.2,8.6-15.8,14.6c-1.4,2.3,2,5.1,3.8,2.9
									c4.2-5.2,7.5-11.4,8.6-18c0.8-5.1,0.5-13.1-6.3-13.9c-2.3-0.2-5,0.8-6.7,2.2c-2.2,1.7-2.5,4.5-2.5,7.2
									c-0.1,7.1,3.5,13.6,2.9,20.9C183.1,319.4,187.9,319.4,188.2,316.3L188.2,316.3z"/>
							</g>
						</g>
						<g>
							<path class="st1" d="M179,314.5c-1.2-4-5-8.3-7.5-10c-3.2-2.2-6.5-3.1-7.3-6.9c-0.3-1.6-0.2-3.4,0.8-4.7c1.4-1.7,4-2.8,6-1.9
								c2,0.9,3.9,2.6,5.1,4.3C180,300.5,178.7,308.1,179,314.5"/>
							<g>
								<path class="st6" d="M181.3,313.9c-1.2-3.7-3.5-7-6.4-9.7c-2.5-2.3-8.6-4.2-8.4-8.1c0.2-4,4-3,6-1.2
									c1.8,1.6,2.8,3.5,3.4,5.8c1.1,4.5,0.4,9.2,0.6,13.8c0.1,3.1,5,3.1,4.8,0c-0.3-6.2,0.8-13-2.1-18.8c-2.3-4.6-7.7-9.1-13-6.7
									c-5.1,2.4-6,9.2-2.2,13.2c2,2.1,4.7,3,6.9,4.8c2.5,2.1,4.7,5,5.7,8.1C177.7,318.1,182.3,316.8,181.3,313.9L181.3,313.9z"/>
							</g>
						</g>
						<g>
							<path class="st1" d="M188.8,321.5c2.4-1.5,15.3-2.5,19.5-0.3c2.6,1.3,3.8,3.9,5,6.5c0.5,1.1-0.6,4.5-1.4,4.8
								c-1.2,0.6-3.4,2.4-4.7,2C201.6,332.9,199,323.3,188.8,321.5"/>
							<g>
								<path class="st6" d="M190,323.6c3.2-1.7,8.3-1.4,11.8-1.2c1.9,0.1,4.1,0.2,5.8,1.3c1.7,1.1,4.6,4.9,2.8,7
									c-3.2,3.7-6.7-1.8-8.7-4c-3.4-3.7-7.3-6.4-12.2-7.4c-3-0.6-4.3,4-1.3,4.7c7.1,1.4,9.7,7.1,14.9,11.2
									c2.3,1.8,4.6,2.5,7.3,1.2c2.8-1.4,4.7-3,5.3-6.2c0.6-3.2-1.4-6.5-3.5-8.8c-2.1-2.3-4.8-3.1-7.8-3.4
									c-5-0.6-12.1-0.8-16.8,1.7C184.8,320.9,187.2,325.1,190,323.6L190,323.6z"/>
							</g>
						</g>
						<g>
							<g>
								<path class="st9" d="M125.1,300.7c-8.8,3-17.3,16.4-19.6,26.3c-2.3,9.9-2.5,15.3,1.4,24.8c4.1,9.9,10.7,18.7,19.1,24.2
									c8.5,5.5,18.8,7.6,28.1,4.9c7.5-2.1,10.6-3.6,16.1-9.7c2.5-2.8,9-13.1,12-19c2.4-4.8,4.2-12.3,4.5-17.8
									c0.2-4.7,1.4-5.8-2.8-9.5c-3.4-2.9-5.6-4.1-9.8-3.5c-0.1,0-0.1,0-0.2,0.1c-0.2,0.3-1,1.3-2.4,4.7
									c-2.1,4.9-5.3,13.8-7.2,17.9c-5.9,12.7-17.9,17.1-30.5,12.9c-1.5-0.5-4.8-3.4-5.9-4.6c-1.2-1.2-4.2-5.9-4.7-7.6
									c-3.3-11.6,2-21.6,8.8-30.8c0.5-0.7,1.1-1.5,1.1-2.5c0-1.3-1-2.4-1.9-3.3C129.3,306.4,127.1,302.6,125.1,300.7"/>
								<g>
									<path class="st6" d="M124.5,298.3c-10.1,3.8-17,15-20.4,24.8c-1.9,5.5-3.1,11.9-2.6,17.8c0.5,6.2,3,12.2,5.9,17.7
										c5.9,11,15.4,20.5,27.6,24.2c10.5,3.2,23.6,1.6,32.3-5.5c3.7-3,6.5-6.7,9.1-10.7c3-4.5,5.9-9.1,8.2-14
										c2.5-5.4,3.9-11.4,4.4-17.4c0.2-2.1,0.6-4.3,0.3-6.4c-0.4-2.4-2-4.1-3.7-5.7c-1.9-1.7-4-3.3-6.4-4c-2-0.6-5.3-1-6.9,0.6
										c-1.1,1-1.7,2.9-2.3,4.2c-1.1,2.6-2.1,5.2-3.2,7.8c-3.9,10.2-7.8,21.9-20.1,24.1c-6.2,1.1-12.2-0.3-16.6-4.7
										c-4.5-4.5-6.1-10.8-5.1-17c0.6-3.8,2.1-7.4,4-10.8c1.7-3.1,4-5.7,5.7-8.7c1.8-3.1,0.5-5.5-1.6-7.9
										c-2.2-2.4-3.9-5.3-6.2-7.7c-2.2-2.2-5.6,1.2-3.4,3.4c1.8,1.9,3.2,4.1,4.8,6.1c0.7,0.9,2,1.8,2.2,3c0.2,1.4-1.5,2.9-2.3,4
										c-3.3,4.8-6.3,10.1-7.5,15.8c-2.1,9.5,0.6,18.9,8.2,25.1c6.9,5.7,17.7,5.8,25.6,1.9c9.2-4.6,12.7-14.1,16.2-23.1
										c1.5-4,2.8-8.8,5.3-12.3c-0.3,0.5-1.1,0.3-0.3,0.7c0.5,0.2,1.7,0.1,2.3,0.2c1.3,0.4,2.4,1.2,3.5,2c2,1.6,3.4,2.8,3.2,5.3
										c-0.4,5.5-1.1,10.8-2.9,16c-1.6,4.7-4.4,9-7,13.2c-4.9,8-10,14.6-19.3,17.5c-12.4,3.8-24.9-0.1-34.1-9
										c-9.3-8.9-16.6-22.8-14.5-35.9c1-6.2,2.9-12,6.1-17.4c3-5,7.2-10.6,12.9-12.7C128.7,301.9,127.4,297.2,124.5,298.3
										L124.5,298.3z"/>
								</g>
							</g>
							<g>
								<path class="st6" d="M110.6,313.6c-2.9,2.5,0.7,8,3,9.6c3.7,2.5,8.6,2.6,12.8,2c3-0.4,3.1-5.2,0-4.8
									c-2.7,0.4-5.7,0.6-8.4-0.3c-2.7-0.9-3.2-2.6-3.7-5.2c-0.2,0.8-0.4,1.6-0.6,2.3c0.1-0.1,0.2-0.2,0.3-0.2
									C116.4,315,112.9,311.6,110.6,313.6L110.6,313.6z"/>
							</g>
							<g>
								<path class="st6" d="M101.9,337c2.1,3.9,4.9,7.8,9.2,9.3c4.4,1.6,8.8,0.2,12.5-2.3c2.6-1.7,0.2-5.9-2.4-4.2
									c-2.7,1.7-5.7,3.1-8.8,1.7c-3-1.3-4.8-4.3-6.3-7.1C104.6,331.8,100.5,334.3,101.9,337L101.9,337z"/>
							</g>
							<g>
								<path class="st6" d="M124.2,374c8.9-1.4,15.8-9.2,11.8-18.2c-1.3-2.8-5.4-0.4-4.2,2.4c2.7,6.2-3.7,10.2-8.9,11.1
									C119.8,369.8,121.1,374.5,124.2,374L124.2,374z"/>
							</g>
							<g>
								<path class="st6" d="M151.7,358.5c6,4.1,8.2,14.9,2.8,20c-2.2,2.2,1.2,5.6,3.4,3.4c7.8-7.5,4.8-21.8-3.8-27.6
									C151.5,352.6,149.1,356.8,151.7,358.5L151.7,358.5z"/>
							</g>
							<g>
								<path class="st6" d="M165.8,343.6c5.2,0.2,9.8,3.7,11.3,8.7c0.9,3,5.5,1.7,4.7-1.3c-2.1-7.1-8.5-12-16-12.3
									C162.7,338.7,162.7,343.5,165.8,343.6L165.8,343.6z"/>
							</g>
						</g>
					</g>
				</g>
				<g>
					<path class="st1" d="M120.6,282.5c9.5,5.3,19.8,9.2,28.6,15.6c3.4,2.4,6.6-3.2,3.3-5.6c-8.8-6.4-19.2-10.3-28.6-15.6
						C120.2,274.9,117,280.5,120.6,282.5L120.6,282.5z"/>
				</g>
				<g>
					<path class="st1" d="M88.5,223.1c4.8,4.9,10.1,9.3,15.9,13.1c1.7,1.2,3.3-1.6,1.6-2.8c-5.5-3.7-10.6-7.9-15.2-12.6
						C89.3,219.4,87,221.6,88.5,223.1L88.5,223.1z"/>
				</g>
				<g>
					<path class="st1" d="M95.9,221.9c2.4,1.5,4.5,3.3,6.3,5.5c1.3,1.6,3.6-0.7,2.3-2.3c-2-2.4-4.3-4.4-7-6
						C95.7,218,94.1,220.8,95.9,221.9L95.9,221.9z"/>
				</g>
				<g>
					<path class="st1" d="M80.9,155.2c4.9,1.6,9.4,4,13.5,7.1c1.6,1.3,3.2-1.5,1.6-2.8c-4.3-3.3-9.1-5.8-14.3-7.4
						C79.8,151.5,78.9,154.6,80.9,155.2L80.9,155.2z"/>
				</g>
				<g>
					<path class="st1" d="M79.8,160.7c2.5,1.3,4.9,2.5,7.4,3.8c1.8,0.9,3.5-1.8,1.6-2.8c-2.5-1.3-4.9-2.5-7.4-3.8
						C79.6,157,78,159.8,79.8,160.7L79.8,160.7z"/>
				</g>
				<g>
					<path class="st1" d="M125.2,414.5c4.1,4.8,7.8,9.9,11,15.3c1.1,1.8,3.8,0.2,2.8-1.6c-3.4-5.7-7.2-11-11.5-16
						C126.1,410.6,123.8,412.9,125.2,414.5L125.2,414.5z"/>
				</g>
				<g>
					<path class="st1" d="M283,250.8c3.5,2.7,6.7,5.7,9.6,9c1.4,1.6,3.6-0.7,2.3-2.3c-3.1-3.6-6.5-6.7-10.2-9.5
						C283,246.8,281.4,249.6,283,250.8L283,250.8z"/>
				</g>
				<g>
					<path class="st11" d="M179.1,453.1c8.2-0.9,16.4-1.7,24.6-2.6c4.1-0.4,4.1-6.9,0-6.4c-8.2,0.9-16.4,1.7-24.6,2.6
						C175,447.1,175,453.6,179.1,453.1L179.1,453.1z"/>
				</g>
				<g>
					<path class="st11" d="M283.1,435.5c9.6-0.8,19.1-1.6,28.7-2.3c4.1-0.3,4.1-6.8,0-6.4c-9.6,0.8-19.1,1.6-28.7,2.3
						C279,429.4,278.9,435.8,283.1,435.5L283.1,435.5z"/>
				</g>
				<g>
					<path class="st11" d="M281.9,437.1c6.1,5.7,12.5,11,19.1,16c3.3,2.5,6.5-3.1,3.3-5.6c-6.2-4.7-12.1-9.7-17.8-15
						C283.4,429.7,278.8,434.3,281.9,437.1L281.9,437.1z"/>
				</g>
				<g>
					<path class="st11" d="M197.3,464.4c3.9-4.9,7.9-9.8,11.8-14.8c2.6-3.2-2-7.8-4.6-4.6c-3.9,4.9-7.9,9.8-11.8,14.8
						C190.2,463.1,194.7,467.7,197.3,464.4L197.3,464.4z"/>
				</g>
			</g>
		</g>
	</g>
	<g>
		<g>
			<path class="st2" d="M355.6,196.1c0,16.7-2.6,33.3-7.8,49.1c-4.9,15.2-12.2,29.6-21.5,42.7c-9.1,12.9-20.3,24.5-32.8,34.1
				c-12.7,9.7-26.8,17.5-41.8,23c-15.6,5.7-32,8.9-48.5,9.5c-16.7,0.6-33.4-1.3-49.4-5.9c-15.5-4.4-30.3-11.2-43.8-20
				c-13.2-8.7-25.1-19.4-35.2-31.6c-10.1-12.2-18.5-26.1-24.5-40.8c-6.2-15.2-10-31.3-11.3-47.6c-1.3-16.8,0-33.7,4-50
				c3.8-15.6,10-30.6,18.4-44.4c8.3-13.6,18.6-25.9,30.5-36.5c11.9-10.6,25.4-19.3,39.8-25.9c14.8-6.7,30.8-11.2,46.9-13
				c16.7-1.9,33.6-1.2,50.1,2.1c15.9,3.2,31.3,8.9,45.4,16.8c13.9,7.7,26.5,17.5,37.5,29c11,11.5,20.3,24.7,27.4,39
				c7.2,14.5,12.2,30.2,14.7,46.2C355,179.8,355.6,188,355.6,196.1c0,3.2,5,3.2,5,0c0-17.1-2.7-34.2-7.9-50.4
				c-5.1-15.7-12.6-30.6-22.1-44c-9.6-13.4-21.1-25.4-34.2-35.4c-13.1-10-27.6-18-43.1-23.7c-15.9-5.9-32.8-9.1-49.8-9.8
				c-17.2-0.7-34.5,1.4-51,6c-15.9,4.5-31.1,11.5-45,20.6C93.8,68.3,81.4,79.4,71,92c-10.5,12.8-19,27-25.3,42.3
				c-6.4,15.6-10.3,32.3-11.6,49.1c-1.3,17.2,0.1,34.6,4.1,51.4c3.9,16.1,10.3,31.6,18.9,45.8c8.5,14,19.1,26.8,31.4,37.7
				c12.3,10.9,26.1,19.9,41.1,26.7c15.4,7,31.8,11.5,48.6,13.4c17.2,2,34.7,1.2,51.6-2.2c16.3-3.3,32.1-9.2,46.7-17.3
				c14.3-8,27.5-18.2,38.8-30c11.3-11.8,20.8-25.4,28.1-40c7.5-15,12.6-31.1,15.1-47.6c1.3-8.3,1.9-16.8,1.9-25.2
				C360.6,192.9,355.6,192.9,355.6,196.1z"/>
		</g>
	</g>
	<g>
		<path class="st12" d="M190.1,22.6c102.4,0,181.5,75.1,181.5,177.5c0,36.9-2.5,44.5-8.5,78.5c13-35,19.5-37.1,19.5-82.5
			c0-102.4-83.1-185.5-185.5-185.5c-65.6,0-123.2,34-156.2,85.4C74.9,55.4,133,22.6,190.1,22.6z"/>
	</g>
	<g>
		<path class="st13" d="M202.1,368.6c-102.4,0-184.5-83.1-184.5-185.5c0-34,10.1-65.8,27.4-93.2c-21,30.1-33.4,66.7-33.4,106.2
			c0,102.4,83.1,185.5,185.5,185.5c34.1,0,66.1-9.2,93.6-25.3C266.3,364.4,229.6,368.6,202.1,368.6z"/>
	</g>
	<g>
		<g>
			<path class="st2" d="M365.4,280c18.4-37.1,24.1-79.8,16.1-120.4c-6.5-32.9-22-63.7-44.3-88.7c-22.2-24.8-50.9-43.5-82.6-53.7
				c-33.2-10.7-69.3-11.8-103.2-3.4c-32.4,8.1-62.4,25-86.2,48.4c-23.8,23.4-41.2,53.1-49.8,85.3c-9,33.5-8.5,69.5,1.5,102.7
				c9.6,32.1,27.9,61.4,52.5,84.1c24.6,22.7,55.1,38.7,87.8,45.7c39.1,8.4,80.4,4.1,116.9-12.3c9.3-4.2,18.2-9.1,26.7-14.7
				c-1.2-0.5-2.4-1-3.7-1.5c4.6,16.4,16.1,30.6,31.4,38.1c15.6,7.6,34.1,8.1,50.1,1.3c15-6.4,26.8-18.9,32.5-34.1
				c6.1-16,4.8-34.3-3.3-49.4c-8.9-16.6-25.5-28.3-44.1-31c-1.3-0.2-2.7,0.3-3.1,1.7c-0.3,1.2,0.4,2.9,1.7,3.1
				c15.3,2.2,29.3,10.7,38.1,23.6c8.7,13,11.7,29.3,7.8,44.4c-3.7,14.6-13.5,27.2-26.7,34.6c-13.8,7.7-30.7,8.9-45.5,3.5
				c-16.6-6-29.4-20.2-34.2-37.2c-0.4-1.5-2.3-2.4-3.7-1.5c-34.1,22.6-75.1,33.2-115.9,30c-32.9-2.6-64.8-14.3-91.6-33.4
				c-26.3-18.7-47.4-44.5-60.7-73.9c-13.9-30.7-18.8-65.1-14.6-98.5c4.1-32.5,17.2-63.8,37.5-89.5c20-25.4,46.6-45.5,76.7-57.3
				c31.4-12.4,66.1-15.9,99.4-10c32.2,5.7,62.6,20.1,87.4,41.5c24.5,21.2,43.3,48.7,53.8,79.4c12.2,35.8,13,75.2,2.2,111.6
				c-3,10-6.8,19.7-11.4,29.1C359.6,280.3,363.9,282.8,365.4,280z"/>
		</g>
	</g>
	<g class="st14">
		<path class="st2" d="M361.1,367.1c-22.4,0-40.5-18.1-40.5-40.5c0-6.4,1.5-12.4,4.1-17.7c-6.3,7.1-10.1,16.5-10.1,26.7
			c0,22.4,18.1,40.5,40.5,40.5c16,0,29.9-9.3,36.4-22.8C384.1,361.8,373.2,367.1,361.1,367.1z"/>
	</g>
	<g>
		<g>
			<path class="st15" d="M343.2,348c0.1,0.3,0.1,0.7,0.2,1c0.1,0.7,0.1,1.3,0.7,1.7c0.6,0.4,1.2,0.2,1.8,0c0.5-0.2,1-0.3,1.5-0.2
				l20.1-30.1l-4.1-2.7L343.2,348z"/>
		</g>
		<polygon class="st16" points="362.4,311.9 364.9,308.1 362.4,311.9 362.4,311.9 		"/>
		<path class="st17" d="M368.5,310.1l-2.7,4l4.1,2.7l2-3c1.2-1.7,3.1-3.6,1.4-4.8l1.3,0.8l-1.6-1
			C371.2,307.8,369.6,308.4,368.5,310.1z"/>
		<path class="st16" d="M370.1,307.1c-1.7-1.2-4.1-0.7-5.2,1C366,306.4,368.4,305.9,370.1,307.1z"/>
		<polygon class="st18" points="362.3,311.9 362.4,311.9 362.4,311.9 362.4,311.9 362.3,311.9 		"/>
		<polygon class="st18" points="362.3,311.9 360.8,314.3 362.3,311.9 		"/>
		<polygon class="st18" points="370.7,322.4 371.9,320.5 370.7,322.4 		"/>
		<path class="st3" d="M342.2,349.8l-0.8-0.1l-4.9,10.6l8.9-6.8l0.3-0.3l1.6-2.5c-0.4-0.1-0.9,0.1-1.3,0.2c-0.7,0.2-1.3,0.4-2,0
			c-0.7-0.4-0.7-1.1-0.8-1.8c0-0.3-0.1-0.6-0.1-0.9l-0.6,0.8C342.4,349.2,342.3,349.5,342.2,349.8z"/>
		<path class="st18" d="M346,350.7c-0.6,0.2-1.2,0.4-1.8,0c-0.6-0.4-0.7-1-0.7-1.7c0-0.4-0.1-0.7-0.2-1l-0.1,0.1
			c0.3,0.9,0,2.1,0.9,2.7c1.1,0.7,2.2-0.4,3.3-0.2l0.1-0.1C346.9,350.4,346.4,350.6,346,350.7z"/>
		<path class="st18" d="M344.1,350.8c-1-0.6-0.6-1.8-0.9-2.7l-0.1,0.1c0.1,0.3,0.1,0.6,0.1,0.9C343.3,349.7,343.3,350.4,344.1,350.8
			c0.6,0.5,1.3,0.3,1.9,0.1c0.4-0.1,0.9-0.3,1.3-0.2l0.1-0.1C346.3,350.4,345.2,351.5,344.1,350.8z"/>
		<polygon class="st18" points="372.9,308.9 370.1,307.1 372.9,308.9 		"/>
		<path class="st19" d="M340.3,347.3c0.7-0.3,1.3-0.7,2.1-0.3c0.4,0.2,0.6,0.6,0.8,0.9l20.2-30.3l-3.4-2.3l-21.3,32l-0.1,0.3l0,0
			C339.2,347.9,339.7,347.6,340.3,347.3z"/>
		<path class="st20" d="M365.8,314.2l2.7-4c1.2-1.7,2.7-2.3,4.4-1.2l-2.8-1.9c-1.7-1.2-4.1-0.7-5.2,1l-2.5,3.8L365.8,314.2z"/>
		
			<rect x="361" y="312.8" transform="matrix(0.5552 -0.8317 0.8317 0.5552 -100.3757 441.8776)" class="st21" width="3.9" height="4"/>
		<path class="st18" d="M342.4,347.1c0.4,0.2,0.6,0.6,0.7,0.9l0.1-0.1C343.1,347.6,342.9,347.3,342.4,347.1
			c-0.8-0.5-1.5-0.2-2.1,0.2c-0.6,0.3-1.1,0.6-1.7,0.3l0,0l0,0.1C340,348.2,340.9,346.4,342.4,347.1z"/>
		<polygon class="st1" points="373,319 373,319 375.5,315.2 		"/>
		<path class="st22" d="M367.5,320.4l-20.1,30.1c0.2,0,0.5,0.1,0.7,0.3c0.7,0.6,0.7,1.4,0.6,2.1c-0.1,0.6-0.1,1.2,0.3,1.7l0,0
			l0.3-0.2l21.3-32l0,0L367.5,320.4z"/>
		<path class="st23" d="M371.9,313.9l-2,3l3.1,2.1l2.5-3.8c1.2-1.7,0.7-4.1-1-5.2l-1.3-0.8C374.9,310.3,373,312.2,371.9,313.9z"/>
		
			<rect x="368.3" y="317.8" transform="matrix(0.5553 -0.8317 0.8317 0.5553 -101.1846 450.0782)" class="st24" width="3.9" height="3.6"/>
		<path class="st25" d="M345.3,353.4l-8.9,6.8l-2,4.2c0.1,0.1,0.2,0.2,0.3,0.3c0.3,0.2,0.7,0.3,1.1,0l13-10
			c-0.4-0.5-0.4-1.2-0.3-1.8c0.1-0.7,0.1-1.4-0.5-1.9c-0.2-0.2-0.5-0.3-0.7-0.3l-1.6,2.5L345.3,353.4z"/>
		<path class="st1" d="M348.7,352.9c0.1-0.7,0.1-1.5-0.6-2.1c-0.2-0.2-0.5-0.3-0.7-0.3l-0.1,0.1c0.2,0,0.5,0.1,0.7,0.3
			c1.3,1.1-0.1,2.7,0.9,3.8l0.1-0.1l0,0C348.6,354.2,348.7,353.6,348.7,352.9z"/>
		<path class="st26" d="M342.4,347.2c-0.7-0.4-1.3-0.1-2,0.3c-0.5,0.3-1.1,0.6-1.8,0.4l-4.3,15.8c0,0.1,0,0.3,0,0.4
			c0,0.1,0.1,0.3,0.2,0.4l2-4.2l4.2-7.6l1.6-2.8c0.1-0.3,0.2-0.5,0.4-0.8l0.6-0.8C343,347.8,342.8,347.5,342.4,347.2z"/>
		
			<rect x="364.7" y="314.8" transform="matrix(0.5553 -0.8317 0.8317 0.5553 -100.7916 446.0597)" class="st27" width="3.9" height="4.9"/>
		<g>
			<g>
				<path class="st2" d="M375.2,308.7c-1.5-1-2.9-2-4.4-2.9c-1.7-1.1-3.8-1.1-5.5-0.1c-1.1,0.7-1.7,1.7-2.4,2.7
					c-0.6,0.9-1.2,1.8-1.8,2.7c-0.5,0.7-0.1,1.6,0.5,2.1c2.6,1.8,5.3,3.5,7.9,5.3c0.9,0.6,1.8,1.2,2.7,1.8c0.7,0.5,1.6,0.1,2.1-0.5
					c0.8-1.2,1.6-2.4,2.4-3.6C378.4,313.6,377.7,310.4,375.2,308.7c-0.7-0.5-1.7-0.1-2.1,0.5c-0.4,0.7-0.1,1.6,0.5,2.1
					c0.3,0.2,0.6,0.6,0.8,1c0.1,0.2,0.2,0.8,0.1,1c-0.1,0.6-0.4,1.1-0.8,1.6c-0.7,1.1-1.4,2.2-2.2,3.2c0.7-0.2,1.4-0.4,2.1-0.5
					c-2.7-1.8-5.3-3.6-8-5.3c-0.9-0.6-1.8-1.2-2.6-1.8c0.2,0.7,0.4,1.4,0.5,2.1c0.5-0.7,0.9-1.4,1.4-2c0.4-0.6,0.9-1.5,1.4-2
					c0.8-0.8,1.9-0.9,3-0.2c0.8,0.5,1.6,1.1,2.4,1.6c0.6,0.4,1.3,0.9,1.9,1.3c0.7,0.4,1.7,0.1,2.1-0.5
					C376.2,310,375.9,309.1,375.2,308.7z"/>
			</g>
		</g>
		<g>
			<g>
				<path class="st2" d="M370.6,315.7c-2.5-1.7-5-3.4-7.5-5c-0.7-0.5-1.6-0.1-2.1,0.5c-1,1.5-2.1,3-3.1,4.5
					c-0.5,0.7-0.1,1.6,0.5,2.1c2.7,1.8,5.3,3.6,8,5.3c0.9,0.6,1.7,1.2,2.6,1.7c0.7,0.5,1.6,0.1,2.1-0.5c1-1.5,2.1-3,3.1-4.5
					c0.5-0.7,0.1-1.6-0.5-2.1C372.6,317.1,371.6,316.4,370.6,315.7c-1.6-1.1-3.1,1.5-1.5,2.6c1,0.7,2.1,1.4,3.1,2.1
					c-0.2-0.7-0.4-1.4-0.5-2.1c-1,1.5-2.1,3-3.1,4.5c0.7-0.2,1.4-0.4,2.1-0.5c-2.7-1.8-5.3-3.6-8-5.3c-0.9-0.6-1.7-1.2-2.6-1.8
					c0.2,0.7,0.4,1.4,0.5,2.1c1-1.5,2.1-3,3.1-4.5c-0.7,0.2-1.4,0.4-2.1,0.5c2.5,1.7,5,3.4,7.5,5
					C370.7,319.4,372.2,316.8,370.6,315.7z"/>
			</g>
		</g>
		<g>
			<g>
				<path class="st2" d="M367.4,320.4c-2.5-1.7-5-3.3-7.5-5c-0.7-0.5-1.6-0.1-2.1,0.5c-6.1,9.1-12.1,18.2-18.2,27.3
					c-0.8,1.2-2.1,2.6-2.5,4.1c-0.2,0.8,0.3,1.6,1,1.8c0.6,0.2,1.3,0.1,1.8,0c0.4-0.1,1.5-0.9,1.8-0.6c0.3,0.3,0.1,1.3,0.3,1.7
					c0.2,0.7,0.6,1.3,1.1,1.7c0.6,0.4,1.3,0.6,2,0.5c0.4,0,1.7-0.7,2-0.3c0.2,0.2-0.1,1.6,0,1.9c0.1,0.6,0.3,1.2,0.8,1.7
					c0.4,0.4,1.3,0.6,1.8,0.2c1.1-0.8,1.8-2.2,2.5-3.3c1.6-2.4,3.2-4.9,4.9-7.3c3.7-5.6,7.5-11.2,11.2-16.9c0.9-1.3,1.8-2.6,2.6-4
					c0.5-0.7,0.1-1.6-0.5-2.1C369.5,321.8,368.4,321.1,367.4,320.4c-1.6-1.1-3.1,1.5-1.5,2.6c1,0.7,2.1,1.4,3.1,2.1
					c-0.2-0.7-0.4-1.4-0.5-2.1c-6,9-12,18.1-18.1,27.1c-0.6,0.9-1.2,1.7-1.7,2.6c-0.2,0.2-0.3,0.5-0.5,0.7c-0.4,0.7,0.7-0.5,0.1-0.1
					c0.6,0.1,1.2,0.2,1.8,0.2c0.1,0.2,0.1-0.6,0.1-0.8c0-0.3,0-0.6,0-1c-0.1-0.8-0.4-1.5-1-2c-0.6-0.5-1.3-0.8-2.1-0.8
					c-0.4,0-1.9,0.5-2.1,0.4c-0.1-0.1-0.1-0.7-0.1-0.9c-0.1-0.4-0.1-0.8-0.3-1.2c-0.3-0.6-0.7-1.1-1.3-1.5c-0.7-0.4-1.5-0.5-2.3-0.3
					c-0.4,0.1-1.6,0.9-1.9,0.8c0.3,0.6,0.7,1.2,1,1.8c0.2-0.6-0.2,0.3,0-0.1c0.1-0.2,0.2-0.4,0.4-0.6c0.5-0.7,1-1.5,1.4-2.2
					c1.6-2.4,3.2-4.8,4.8-7.3c3.7-5.6,7.4-11.1,11.1-16.7c0.8-1.3,1.7-2.5,2.5-3.8c-0.7,0.2-1.4,0.4-2.1,0.5c2.5,1.7,5,3.3,7.5,5
					C367.5,324,369,321.4,367.4,320.4z"/>
			</g>
		</g>
		<g>
			<g>
				<path class="st2" d="M350,352.9c0.1-1.6-0.5-3.1-2.1-3.6c-0.7-0.2-1.4-0.1-2.1,0.1c-0.4,0.1-0.9,0.4-1.1,0.2
					c-0.1-0.2-0.1-0.6-0.1-0.8c0-0.4-0.1-0.8-0.2-1.2c-0.2-0.7-0.7-1.3-1.3-1.6c-0.7-0.4-1.6-0.5-2.4-0.2c-0.4,0.1-1.3,0.8-1.7,0.7
					c-0.8-0.2-1.6,0.2-1.8,1c-1.3,4.9-2.6,9.8-3.9,14.7c-0.3,0.9-0.6,1.9-0.1,2.9c0.8,1.6,2.6,1.6,3.9,0.6c2.2-1.7,4.4-3.4,6.6-5.1
					c2-1.5,4-3,5.9-4.6c0.6-0.5,1-1.3,0.5-2.1C349.9,353.6,350,353.3,350,352.9c0.2-1.9-2.8-1.9-3,0c-0.1,0.9,0,1.8,0.5,2.5
					c0.2-0.7,0.4-1.4,0.5-2.1c-3.8,2.9-7.6,5.9-11.5,8.8c-0.3,0.3-0.7,0.5-1,0.8c-0.1,0.1-0.5,0.3-0.5,0.4c0.1-0.4,1,0.5,0.7,0.7
					c0,0,0-0.2,0.1-0.2c0.1-0.3,0.2-0.6,0.2-0.9c0.7-2.7,1.5-5.4,2.2-8.1c0.6-2.2,1.2-4.4,1.8-6.6c-0.6,0.3-1.2,0.7-1.8,1
					c0.7,0.1,1.4,0.1,2.1-0.2c0.4-0.1,1-0.7,1.4-0.6c-0.3,0,0,0.6,0,0.8c0.1,0.6,0.2,1.2,0.5,1.7c0.7,1.2,2.1,1.7,3.4,1.4
					c0.3-0.1,1.1-0.5,1.4-0.4c0,0-0.1-0.1,0,0c0.1,0.1,0,0.6,0,0.7C346.9,354.8,349.9,354.8,350,352.9z"/>
			</g>
		</g>
		<g>
			<g>
				<path class="st2" d="M334.4,363.7c0,0.1,0,0.3,0,0.4c0,0.1,0.1,0.3,0.2,0.4c0.1,0.1,0.2,0.2,0.3,0.3c0.3,0.2,0.7,0.3,1.1,0
					l6.3-4.8c-1.7-1.5-3.7-2.7-5.8-3.3L334.4,363.7z"/>
			</g>
		</g>
	</g>
	<g>
		<g>
			<path class="st2" d="M393.1,335.6c-0.1,15.7-10,30.3-24.9,35.7c-15.1,5.5-32.2,0.8-42.5-11.6c-10.2-12.2-11.3-30.2-3.1-43.7
				c8.2-13.6,24.5-20.8,40.1-17.6c15.4,3.2,27.4,15.8,30,31.3C392.9,331.7,393.1,333.6,393.1,335.6c0,3.2,5,3.2,5,0
				c-0.1-18-11.4-34.2-28.3-40.4c-16.8-6.2-36.4-0.9-47.8,12.9c-11.5,14-13.2,34.1-3.8,49.7c9.3,15.5,27.7,23.5,45.4,20
				c17.2-3.4,31.2-17.9,33.9-35.2c0.4-2.3,0.6-4.6,0.6-6.9C398.1,332.4,393.1,332.4,393.1,335.6z"/>
		</g>
	</g>
	<g class="st14">
		<path class="st2" d="M216.1,339.1c-88.9,0-161-72.1-161-161c0-41.3,15.6-79,41.2-107.5c-36.7,29.5-60.2,74.8-60.2,125.5
			c0,88.9,72.1,161,161,161c47.6,0,90.4-20.7,119.8-53.5C289.3,325.8,254.2,339.1,216.1,339.1z"/>
	</g>
	<g class="st28">
		<path class="st1" d="M184.1,53.1c88.9,0,161,72.1,161,161c0,31.2-8.9,60.3-24.2,85c23.2-27.9,37.2-63.8,37.2-103
			c0-88.9-72.1-161-161-161c-57.7,0-108.4,30.4-136.8,76C89.8,75.7,134.3,53.1,184.1,53.1z"/>
	</g>
</g>
</svg>
