<?xml version="1.0" encoding="utf-8"?>
<!-- Generator: Adobe Illustrator 24.2.0, SVG Export Plug-In . SVG Version: 6.00 Build 0)  -->
<svg version="1.1" id="Layer_1" xmlns="http://www.w3.org/2000/svg" xmlns:xlink="http://www.w3.org/1999/xlink" x="0px" y="0px"
	 viewBox="0 0 418 400" style="enable-background:new 0 0 418 400;" xml:space="preserve">
<style type="text/css">
	.st0{fill:#F8DAD4;}
	.st1{clip-path:url(#SVGID_2_);}
	.st2{fill:#183E42;}
	.st3{fill:#FAC706;}
	.st4{fill:#FFFFFF;}
	.st5{fill:#183E41;}
	.st6{fill:#7EC7CD;}
	.st7{fill:#7CC6CD;}
	.st8{fill:#E4252E;}
	.st9{fill:none;}
	.st10{fill:#7DC4CA;}
	.st11{opacity:0.32;}
	.st12{fill:#1D1D1B;}
	.st13{opacity:0.42;}
	.st14{fill:#D2E8EB;}
	.st15{fill:#42797D;}
	.st16{fill:#F7C402;}
	.st17{fill:#F72872;}
	.st18{fill:#E66869;}
	.st19{fill:#390075;}
	.st20{fill:#FFDA83;}
	.st21{fill:#AA8B12;}
	.st22{fill:#993637;}
	.st23{fill:#729496;}
	.st24{fill:#FDEAAB;}
	.st25{fill:#F5C3C3;}
	.st26{fill:#E7F3F4;}
	.st27{fill:#FFF0D1;}
	.st28{fill:#BFA362;}
	.st29{fill:#C2E1E3;}
</style>
<g>
	<g>
		<path class="st0" d="M353.2,194.1c0,87.3-70.8,158.1-158.1,158.1C107.8,352.2,37,281.4,37,194.1C37,106.8,107.8,36,195.1,36
			C282.4,36,353.2,106.8,353.2,194.1"/>
	</g>
	<g>
		<defs>
			<path id="SVGID_1_" d="M353.2,194.1c0,87.3-70.8,158.1-158.1,158.1C107.8,352.2,37,281.4,37,194.1C37,106.8,107.8,36,195.1,36
				C282.4,36,353.2,106.8,353.2,194.1"/>
		</defs>
		<clipPath id="SVGID_2_">
			<use xlink:href="#SVGID_1_"  style="overflow:visible;"/>
		</clipPath>
		<g class="st1">
			<g>
				<g>
					<g>
						<g>
							<g>
								<path class="st2" d="M199.6,700.3c3.4,0,11.1,11.5,10.3,14.9c-0.7,3.5-3.4,6.1-6.1,8.4c-14.8,12.7-32.7,21.1-50.9,27.5
									c-6.7,2.4-13.7,4.5-20.6,3.2c-6.9-1.3-13.5-7.1-13.6-14.4c0-8.4,7.8-14.1,14.8-18.3c10.1-6.1,20.2-12.2,30.3-18.3"/>
							</g>
							<g>
								<g>
									<path class="st2" d="M199,702.8c2.4,0.6,4.7,4,5.8,5.9c2.2,3.4,2.3,4,0.8,8c-2.4,6.7-11.1,11.2-16.8,14.9
										c-10.9,7-22.8,12.2-34.9,16.5c-7,2.5-14.3,5.2-21.7,3.1c-5.5-1.5-10-4.9-10.9-11.3c-0.8-5.3,5.4-10.5,8.9-13
										c10.9-8.1,23.4-14.4,35-21.4c2.8-1.7,0.3-6.2-2.5-4.5c-11.6,7-24,13.4-35,21.4c-5,3.6-10,8.3-11.1,14.8
										c-1.2,7.5,3.2,14.2,9.5,17.6c8.2,4.4,17.6,2.2,25.9-0.6c19.2-6.4,42.7-15.7,56.5-31.5c6.8-7.8,1.9-22.3-8.2-24.9
										C197.2,697,195.8,702,199,702.8L199,702.8z"/>
								</g>
							</g>
						</g>
						<g>
							<g>
								<path class="st3" d="M141.6,718.4c-8.5,2.9-26.3,15-17.8,26c2,2.6,5.5-1.1,3.5-3.7c-2.9-3.7,3-9.3,5.5-11.6
									c3-2.7,6.4-4.5,10.1-5.8C146,722.3,144.7,717.3,141.6,718.4L141.6,718.4z"/>
							</g>
						</g>
					</g>
					<g>
						<g>
							<path class="st2" d="M157.4,694.3c-3.2,8.7,2.6,18.9,10.8,22.9c8.6,4.2,19.6,2.7,26.9-3.7s10.5-17.4,7.9-26.9"/>
						</g>
						<g>
							<g>
								<path class="st2" d="M154.9,693.6c-4.7,17.1,11.7,30.2,27.1,28.3c17.1-2.2,26.9-19.1,23.3-36c-0.7-3.3-5.5-1.9-4.8,1.4
									c2.8,13.2-4.3,26.5-17.5,29.1c-12.2,2.4-27.2-7-23.2-21.4C160.7,691.7,155.8,690.4,154.9,693.6L154.9,693.6z"/>
							</g>
						</g>
					</g>
					<g>
						<g>
							<path class="st2" d="M156,673.8c-3.9,5.7-0.3,14.3,5.6,17.8c5.8,3.5,13,3.4,19.8,3.3c5.8-0.1,12.1-0.6,16.2-4.8
								c5.4-5.6,4-15.2-0.1-21.8"/>
						</g>
						<g>
							<g>
								<path class="st2" d="M153.8,672.5c-3.3,6.2-1.9,13.2,2.8,18.3c5.9,6.5,15.4,6.9,23.5,6.7c7.6-0.1,16.4-0.7,21-7.9
									c4.5-7,2.2-16-1.5-22.7c-1.6-2.9-6-0.3-4.3,2.6c2.9,5.1,4.6,10.9,1.8,16.3c-3.3,6.3-10.8,6.3-16.9,6.4
									c-4.4,0.1-9,0.2-13.2-1.2c-6.3-2-12.4-8.8-8.7-16C159.7,672.2,155.4,669.5,153.8,672.5L153.8,672.5z"/>
							</g>
						</g>
					</g>
					<g>
						<g>
							<path class="st2" d="M145.7,565.5c-2,1.3-3.4,4-3.6,6.8c-0.3,4.1,1.7,7.9,4.3,10.1s5.7,3,8.8,3.7c11.6,2.5,24.7,2.5,33.5-7.8
								c1.3-1.5,2.5-3.4,2.9-5.6s-0.2-4.9-1.8-5.9"/>
						</g>
						<g>
							<g>
								<path class="st2" d="M144,563.7c-5.1,4.9-5.7,12.7-1.3,18.5c5.2,6.8,15.7,7.9,23.5,8c10,0.2,37.6-10.7,25.4-25.1
									c-2.1-2.5-5.7,1.2-3.5,3.7c5.5,6.5-8.2,13.8-11.7,14.9c-2.8,0.9-5.8,1.2-8.8,1.3c-3,0.1-6-0.2-9-0.7
									c-0.9-0.2-1.8-0.4-2.7-0.5c-6.8-0.8-9.6-6.2-8.4-16.3C149.9,565.1,146.3,561.4,144,563.7L144,563.7z"/>
							</g>
						</g>
					</g>
					<g>
						<g>
							<path class="st2" d="M148,580.8c-3.7,3.6-5.2,9.7-3.7,14.8c1.5,4.8,5.2,8.4,9.5,10.4s8.9,2.5,13.6,2.7
								c6.1,0.2,12.3-0.1,17.8-3.1c5.4-2.9,9.9-8.9,9.7-15.5c-0.1-3.5-1.5-6.9-3.8-9.3"/>
						</g>
						<g>
							<g>
								<path class="st2" d="M146.3,579c-5.3,6.3-6.7,14.6-2.1,21.9c5.6,8.9,16.8,10.6,26.3,10.5c16.1-0.2,36.3-14.9,22.4-32.3
									c-2.1-2.6-5.6,1.1-3.5,3.7c11.5,14.5-8.2,23.3-18.9,23.5c-11.5,0.2-33.8-8-20.7-23.5C151.9,580.1,148.4,576.4,146.3,579
									L146.3,579z"/>
							</g>
						</g>
					</g>
					<g>
						<g>
							<path class="st2" d="M150.5,605.2c-4.2,2.8-4.2,9.3-3.8,14.6c0.1,1.4,0.3,2.9,1,4.1c0.8,1.3,2.2,2,3.5,2.7
								c10.5,4.8,22.7,5.3,33.5,1.2c3.2-1.2,6.4-2.9,8.1-6.1c1.3-2.5,1.5-5.5,1.6-8.4c0.1-3.1,2.3-9.5-2.8-13.5"/>
						</g>
						<g>
							<g>
								<path class="st2" d="M148.8,603.4c-5,4.8-6.9,15.6-3.1,21.8c4.8,8,20.8,8.4,28.6,7.6c7.9-0.8,18.4-3.2,21.7-11.8
									c2.7-7.2,3.1-17.4-2.3-23.1c-2.3-2.4-5.8,1.3-3.5,3.7c3.1,3.3,2.8,9.9,1.8,14.2c-2,8.6-11.4,11.4-19.1,12
									c-4.9,0.3-10.1,0-14.8-1.6c-3.9-1.3-7.5-2.8-8.6-7.1c-1-3.8,0.5-9.7,3-12.1C154.7,604.8,151.1,601.1,148.8,603.4
									L148.8,603.4z"/>
							</g>
						</g>
					</g>
					<g>
						<g>
							<path class="st2" d="M149.2,630.4c-1.2,4.5-2,9.3-0.5,13.7c1.7,4.7,5.9,8,10.5,9.6c4.6,1.6,9.5,1.6,14.3,1.6
								c8.3-0.1,18.2-1.6,21.6-9.4c2.8-6.3-0.2-13.6-3.2-19.7"/>
						</g>
						<g>
							<g>
								<path class="st2" d="M146.8,629.7c-5.2,22.6,12.3,29.7,31.4,27.9c6.6-0.6,14-2.5,18.1-8.5c5.1-7.6,1.4-16.9-2.1-24.3
									c-1.4-3-5.7-0.4-4.3,2.6c3.2,6.8,6.4,15.7-0.4,21.3c-3.6,3-9.1,3.6-13.6,3.8c-4.3,0.2-9,0.3-13.2-0.7
									c-10.1-2.4-13.4-10.6-11.1-20.8C152.4,627.9,147.6,626.5,146.8,629.7L146.8,629.7z"/>
							</g>
						</g>
					</g>
					<g>
						<g>
							<path class="st2" d="M151.7,653.8c-2.9,6.6,1,14.8,6.8,18.5c5.8,3.7,12.9,4,19.6,4.3c3.4,0.1,7,0.2,10.2-1.2
								c4.6-2.1,7.6-7.2,8.5-12.4c0.9-5.3-0.2-10.7-1.8-15.7"/>
						</g>
						<g>
							<g>
								<path class="st2" d="M149.2,653.1c-6,18.3,13.7,25.4,27.3,26c7.6,0.3,14.5-0.3,19.2-7.2c5.2-7.5,3.9-17.1,1.5-25.4
									c-1-3.2-5.8-1.8-4.8,1.4c1.6,5.3,3.1,11.5,1.2,17c-2.7,8.2-9.7,9.4-17.1,9.1c-10.3-0.5-27.3-4.7-22.5-19.4
									C155.1,651.3,150.3,649.9,149.2,653.1L149.2,653.1z"/>
							</g>
						</g>
					</g>
					<g>
						<g>
							<path class="st3" d="M140.8,573.4c3.2,17.7,29,13.8,40.6,9.1c3-1.2,1.7-6.2-1.3-5c-8.9,3.5-32,8.3-34.5-5.5
								C145.1,568.8,140.2,570.1,140.8,573.4L140.8,573.4z"/>
						</g>
					</g>
					<g>
						<g>
							<path class="st3" d="M142.9,591.3c5.5,18.5,26,16.3,40.3,12c3.1-0.9,1.8-5.9-1.3-5c-11.3,3.4-29.5,7.1-34.1-8.4
								C146.7,586.8,141.9,588.1,142.9,591.3L142.9,591.3z"/>
						</g>
					</g>
					<g>
						<g>
							<path class="st3" d="M146.1,612.4c-3.7,21.7,24.2,19.2,37,14.6c3-1.1,1.7-6.1-1.3-5c-8,2.9-33.6,8-30.9-8.2
								C151.5,610.5,146.7,609.1,146.1,612.4L146.1,612.4z"/>
						</g>
					</g>
					<g>
						<g>
							<path class="st3" d="M147.6,635.5c1.1,20.4,27.6,22.7,40.9,13.9c2.7-1.8,0.2-6.3-2.5-4.5c-9.7,6.4-32.5,6.9-33.3-9.4
								C152.4,632.2,147.4,632.2,147.6,635.5L147.6,635.5z"/>
						</g>
					</g>
					<g>
						<g>
							<path class="st3" d="M149.1,656.2c-3.4,20.2,27.2,19.4,38.8,16.6c3.1-0.8,1.8-5.8-1.3-5c-7,1.7-35.1,4.3-32.6-10.2
								C154.4,654.3,149.6,652.9,149.1,656.2L149.1,656.2z"/>
						</g>
					</g>
					<g>
						<g>
							<path class="st3" d="M153.4,678.4c-1.6,20.4,29.2,19.3,41.2,15c3-1.1,1.7-6.1-1.3-5c-8.5,3-36.2,6.3-34.9-10
								C158.7,675,153.7,675,153.4,678.4L153.4,678.4z"/>
						</g>
					</g>
					<g>
						<g>
							<path class="st3" d="M156.6,699.4c2,10.1,7.2,15.6,17.2,17.2c11.1,1.8,19.8-2.2,28.4-9c2.5-2,0.1-6.5-2.5-4.5
								c-11.6,9-34.3,15.7-38.3-5.1C160.8,694.8,156,696.2,156.6,699.4L156.6,699.4z"/>
						</g>
					</g>
				</g>
				<g>
					<g>
						<g>
							<path class="st2" d="M265.7,699.7c-3.4,0.8-8.2,14.5-6.7,17.8s4.7,5.4,7.8,7.1c17.2,9.3,36.5,13.4,55.6,15.4
								c7,0.7,14.3,1.2,20.8-1.9c6.4-3.1,11.6-10.7,10-18.1c-1.8-8.5-10.7-12.4-18.4-15c-11.2-3.7-22.4-7.5-33.6-11.2"/>
						</g>
						<g>
							<g>
								<path class="st2" d="M264.4,697.5c-8.6,4.8-10.9,20.1-3.5,26.5c8.4,7.3,21.8,10.9,32.2,13.6c11.2,2.9,23,5,34.5,5.5
									c13.5,0.6,34.4-8.5,27.1-26.5c-2.6-6.3-8.7-9.9-14.6-12.3c-12.4-5.2-25.6-8.7-38.3-12.9c-3.1-1-4.4,4-1.3,5
									c13.1,4.4,27.5,7.6,40,13.7c7.2,3.5,13.3,10.9,8.5,19.4c-5.1,9-16.2,8.9-24.9,8.2c-13.5-1.2-27.1-3.7-40-8.2
									c-5.7-2-13.8-4.2-18.4-8.4c-4.8-4.4-5.4-15.4,1.3-19.1C269.8,700.4,267.2,695.9,264.4,697.5L264.4,697.5z"/>
							</g>
						</g>
					</g>
					<g>
						<g>
							<path class="st2" d="M264,686.8c-3.2,9.2,2.6,19.8,10.8,24c8.6,4.4,19.6,2.9,26.9-3.9c7.3-6.7,10.5-18.2,7.9-28.2"/>
						</g>
						<g>
							<g>
								<path class="st2" d="M261.6,686.1c-4.4,16.7,10.3,31.2,26.2,29.7c18.2-1.7,27.8-20.3,24.2-37.7c-0.7-3.3-5.5-1.9-4.8,1.4
									c2.6,13-3.4,27.3-16.6,30.6c-13.1,3.3-28.1-7.5-24.2-22.5C267.2,684.3,262.4,682.9,261.6,686.1L261.6,686.1z"/>
							</g>
						</g>
					</g>
					<g>
						<g>
							<path class="st2" d="M262.6,665.3c-3.9,6-0.3,15,5.6,18.7c5.8,3.7,13,3.6,19.8,3.4c5.8-0.2,12.1-0.6,16.2-5
								c5.4-5.8,4-16-0.1-22.9"/>
						</g>
						<g>
							<g>
								<path class="st2" d="M260.4,664c-3.2,6.4-2,13.7,2.8,19c6.3,7,16.2,7.3,24.7,7c8-0.3,16.8-1.5,20.6-9.9
									c3.3-7.1,1.1-15.5-2.4-22c-1.6-2.9-5.9-0.3-4.3,2.6c2.4,4.5,4.4,10.2,2.9,15.3c-2.3,7.7-10.2,8.4-16.8,8.7
									c-9.1,0.4-30.9-2.7-23.2-18.2C266.3,663.7,261.9,661,260.4,664L260.4,664z"/>
							</g>
						</g>
					</g>
					<g>
						<g>
							<path class="st2" d="M252.4,551.7c-2,1.3-3.4,4.2-3.6,7.2c-0.3,4.3,1.7,8.3,4.3,10.6c2.6,2.3,5.7,3.2,8.8,3.9
								c11.6,2.6,24.7,2.7,33.5-8.2c1.3-1.6,2.5-3.5,2.9-5.9c0.4-2.3-0.2-5.2-1.8-6.2"/>
						</g>
						<g>
							<g>
								<path class="st2" d="M250.6,549.8c-5.1,5.2-5.7,13.2-1.3,19.2c5.2,7,15.6,8.2,23.5,8.4c10.7,0.2,37.3-11.4,25.4-26.1
									c-2.1-2.6-5.6,1.1-3.5,3.7c8.4,10.4-15.9,17.1-20.5,17.2c-3,0.1-6-0.2-9-0.8c-5.4-1-23.4-5.4-11.1-17.9
									C256.4,551.2,252.9,547.5,250.6,549.8L250.6,549.8z"/>
							</g>
						</g>
					</g>
					<g>
						<g>
							<path class="st2" d="M254.7,567.7c-3.7,3.8-5.2,10.1-3.7,15.5c1.5,5,5.2,8.8,9.5,10.9c4.2,2.1,8.9,2.6,13.6,2.8
								c6.1,0.3,12.3-0.1,17.8-3.2c5.4-3.1,9.9-9.3,9.7-16.3c-0.1-3.6-1.5-7.2-3.8-9.7"/>
						</g>
						<g>
							<g>
								<path class="st2" d="M252.9,565.9c-5.3,6.6-6.8,15.3-2.1,22.8c5.6,9.1,16.6,11.1,26.3,10.9c16.9-0.3,35.9-15.9,22.4-33.7
									c-2-2.6-5.5,1.1-3.5,3.7c11.3,14.9-7.4,24.7-18.9,24.8c-12.6,0.2-33.2-9.2-20.7-24.9C258.5,567,255,563.3,252.9,565.9
									L252.9,565.9z"/>
							</g>
						</g>
					</g>
					<g>
						<g>
							<path class="st2" d="M257.2,593.4c-4.2,3-4.2,9.7-3.8,15.3c0.1,1.5,0.3,3.1,1,4.3c0.8,1.4,2.2,2.2,3.5,2.8
								c10.5,5.1,22.7,5.5,33.5,1.3c3.2-1.3,6.4-3.1,8.1-6.4c1.3-2.6,1.5-5.8,1.6-8.8c0.1-3.3,2.3-10-2.8-14.2"/>
						</g>
						<g>
							<g>
								<path class="st2" d="M255.4,591.5c-5.1,4.9-7,16.5-3.1,22.8c4.7,7.7,19.3,8.7,27,8.1c7.9-0.5,18.9-2.9,22.7-11
									c3.5-7.3,3.7-19.4-1.8-25.5c-2.2-2.4-5.8,1.2-3.5,3.7c3.3,3.6,2.7,10.4,1.8,15c-1.9,10-12.2,12.4-20.7,12.7
									c-4.8,0.2-12,0.1-16.2-2.7c-6.1-4.1-8.7-13.5-2.6-19.3C261.3,592.9,257.8,589.3,255.4,591.5L255.4,591.5z"/>
							</g>
						</g>
					</g>
					<g>
						<g>
							<path class="st2" d="M255.9,619.8c-1.2,4.7-2,9.8-0.5,14.3c1.7,4.9,5.9,8.4,10.5,10.1s9.5,1.7,14.3,1.7
								c8.3-0.1,18.2-1.7,21.6-9.9c2.8-6.6-0.2-14.2-3.2-20.7"/>
						</g>
						<g>
							<g>
								<path class="st2" d="M253.5,619.1c-5,22.2,10.6,30.7,30.2,29.2c7-0.5,14.8-2.3,19-8.7c5.3-8.1,1.7-17.7-1.9-25.7
									c-1.4-3-5.7-0.4-4.3,2.6c3.3,7.3,6.3,16.2-0.4,22.6c-3.7,3.5-10,3.9-14.7,4.1c-4.9,0.2-10.2,0.3-14.8-1.5
									c-9.1-3.5-10.2-12.4-8.3-21.2C259,617.2,254.2,615.9,253.5,619.1L253.5,619.1z"/>
							</g>
						</g>
					</g>
					<g>
						<g>
							<path class="st2" d="M258.3,644.3c-2.9,6.9,1,15.5,6.8,19.4c5.8,3.9,12.9,4.2,19.6,4.5c3.4,0.1,7,0.2,10.2-1.3
								c4.6-2.2,7.6-7.5,8.5-13s-0.2-11.2-1.8-16.5"/>
						</g>
						<g>
							<g>
								<path class="st2" d="M255.9,643.6c-5.8,18.6,13,26.5,27.3,27.1c7.3,0.3,13.9-0.2,18.6-6.7c5.8-8,4.6-18.3,2-27.4
									c-0.9-3.2-5.8-1.8-4.8,1.4c1.6,5.7,3,12,1.2,17.9c-2.5,8.2-9.8,9.9-17.1,9.6c-11-0.5-27.2-5.6-22.5-20.6
									C261.7,641.8,256.9,640.4,255.9,643.6L255.9,643.6z"/>
							</g>
						</g>
					</g>
					<g>
						<g>
							<path class="st3" d="M247.5,559.9c2.8,18.2,28.9,14.4,40.6,9.5c2.9-1.2,1.7-6.3-1.3-5c-9,3.8-32.2,8.7-34.5-5.8
								C251.8,555.3,247,556.7,247.5,559.9L247.5,559.9z"/>
						</g>
					</g>
					<g>
						<g>
							<path class="st3" d="M249.5,578.8c5.4,19,25.7,17.1,40.3,12.5c3.1-1,1.8-6-1.3-5c-11.7,3.7-29.6,7.1-34.1-8.9
								C253.4,574.2,248.6,575.5,249.5,578.8L249.5,578.8z"/>
						</g>
					</g>
					<g>
						<g>
							<path class="st3" d="M252.8,601c-3.6,22.1,23.6,20.3,37,15.1c3-1.2,1.7-6.2-1.3-5c-8.6,3.3-33.6,8.1-30.9-8.7
								C258.1,599.1,253.3,597.7,252.8,601L252.8,601z"/>
						</g>
					</g>
					<g>
						<g>
							<path class="st3" d="M254.2,625.1c1,20.7,27.2,24,40.9,14.5c2.7-1.9,0.2-6.4-2.5-4.5c-10.2,7.1-32.5,6.7-33.3-10
								C259,621.8,254,621.8,254.2,625.1L254.2,625.1z"/>
						</g>
					</g>
					<g>
						<g>
							<path class="st3" d="M255.7,646.9c-3.3,20.6,26.6,20.4,38.8,17.3c3.1-0.8,1.8-5.8-1.3-5c-7.5,1.9-35.1,4.3-32.6-10.9
								C261,645,256.2,643.6,255.7,646.9L255.7,646.9z"/>
						</g>
					</g>
					<g>
						<g>
							<path class="st3" d="M260.1,670.1c-1.6,20.8,28.7,20.4,41.2,15.7c3-1.1,1.7-6.2-1.3-5c-9.1,3.4-36.1,6.2-34.9-10.6
								C265.3,666.8,260.3,666.8,260.1,670.1L260.1,670.1z"/>
						</g>
					</g>
					<g>
						<g>
							<path class="st3" d="M263.2,692.2c1.9,10.4,7.2,16.5,17.6,18c11.4,1.7,19.9-2.8,28.6-9.9c2.5-2.1-1-5.7-3.5-3.7
								c-11.9,9.7-33.9,15.1-37.8-5.9C267.5,687.5,262.6,688.9,263.2,692.2L263.2,692.2z"/>
						</g>
					</g>
					<g>
						<g>
							<path class="st3" d="M326,709c4,0.4,7.8,1.5,11.3,3.6c3.1,1.8,9.6,5.9,7.6,10.5c-1.3,3,3,5.7,4.3,2.6c5.7-13-14-21-23.2-21.9
								C322.8,703.5,322.8,708.7,326,709L326,709z"/>
						</g>
					</g>
				</g>
				<g>
					<g>
						<g>
							<path class="st4" d="M386.6,172.1c0.6,26.7,0.2,53.5-1.7,80.1c-0.8,11.4-2,23-7,33.2c-4,8.3-10.4,15.1-17.2,21.1
								c-13.6,12.1-30,21.9-47.9,23.7c0,0-28.9,18.2-18,31.5c11,13.3,34.8,0,34.8,0c36.3-5.6,67-32.5,79.9-68.1
								c12.9-35.6,10.5-79.3,5-116.9c0,0-2.8-18-12.2-15.9S386.3,159.7,386.6,172.1z"/>
						</g>
						<g>
							<g>
								<path class="st5" d="M382.8,172.1c0.6,28.9,0.7,58.2-2.2,86.9c-1.5,15.1-5.8,27.8-16.3,38.8c-10.1,10.5-22.6,19.8-36.1,24.8
									c-6.3,2.3-13.2,2.2-19,5.5c-5.1,3-10.2,7.8-14,12.4c-7.9,9.6-9.2,22.5,3.2,28.8c11.9,6,23.8-1.2,35.2-4.3
									c19.1-5.1,35.9-12.3,50.7-26.2c34.4-32.1,40.8-81.1,37.9-126.7c-0.8-12.2-1.7-24.8-4-36.8c-1.1-5.4-2.9-11.7-6.9-15.5
									c-5.1-4.7-12-3-18.1-1.8C385.5,159.5,383,164.2,382.8,172.1c-0.1,5,7.4,5,7.5,0c0.2-8.2,13.6-9.7,17.6-3.9
									c2.4,3.5,2.9,8.8,3.5,12.9c3.1,21.6,4.7,43.8,3.4,65.7c-2.4,39.9-17.7,78.1-52.3,98.9c-11.9,7.2-24.6,9-37.1,13.9
									c-5.4,2.1-10.8,4.3-16.7,4.2c-9.9-0.2-15.5-7.5-9.5-16.2c3-4.4,7.5-8.1,11.7-11.3c4.1-3,7.8-2.7,12.8-4.1
									c16.8-4.5,32.3-15.1,44.6-27.6c14.5-14.7,18.7-32,20.3-52.4c2-26.6,2.2-53.4,1.7-80.1C390.2,167.1,382.7,167.1,382.8,172.1z
									"/>
							</g>
						</g>
					</g>
					<g>
						<g>
							<path class="st4" d="M337.1,323.1c5.7,8.7,9.4,18.8,10.8,29.2"/>
						</g>
						<g>
							<g>
								<path class="st5" d="M333.9,325c5.5,8.7,8.9,18,10.4,28.3c0.7,4.9,7.9,2.8,7.2-2.1c-1.5-10.9-5.3-21-11.2-30.2
									C337.7,316.9,331.2,320.8,333.9,325L333.9,325z"/>
							</g>
						</g>
					</g>
					<g>
						<g>
							<path class="st5" d="M355.1,314.7c4.7,0.9,8.2,7.3,10.7,11c2.8,4.1,5.3,8.4,7.7,12.8c1.5,2.8,4.9,2.3,6.5,0
								c1.3-1.8,1.4-3.6,0.9-5.8c-1.1-4.9-8.4-2.8-7.2,2.1c0-0.1-0.1-0.2-0.1-0.2c2.2,0,4.3,0,6.5,0c-3.1-5.8-6.6-11.4-10.5-16.7
								c-3.3-4.5-6.7-9.5-12.4-10.6C352.4,306.2,350.4,313.7,355.1,314.7L355.1,314.7z"/>
						</g>
					</g>
					<g>
						<g>
							<path class="st5" d="M373.8,298c6,1.2,11.5,3.8,15.8,8.4c3.4,3.6,5.6,8.2,10.8,9.2c4.7,0.9,6.7-6.6,2-7.5
								c-3-0.6-4.5-3.8-6.3-6c-1.7-2-3.6-3.7-5.7-5.3c-4.4-3.3-9.3-5.4-14.6-6.4C371.1,289.6,369.1,297.1,373.8,298L373.8,298z"/>
						</g>
					</g>
					<g>
						<g>
							<path class="st5" d="M387.1,259.3c-0.9-0.3-1.8-0.5-2.7-0.8c-0.3,2.6-0.7,5.1-1,7.7c9.7,0.9,18.4,4.7,26.2,10.7
								c3.9,3,7.6-3.8,3.8-6.7c-8.9-6.9-19-10.7-30-11.7c-4.3-0.4-5,6.5-1,7.7c0.9,0.3,1.8,0.5,2.7,0.8
								C389.8,268.2,391.8,260.6,387.1,259.3L387.1,259.3z"/>
						</g>
					</g>
					<g>
						<g>
							<path class="st5" d="M390.1,236.6c8.5-0.6,16.8,0.3,25,2.5c4.7,1.3,6.7-6.2,2-7.5c-8.9-2.5-17.8-3.4-27-2.8
								C385.3,229.1,385.3,236.9,390.1,236.6L390.1,236.6z"/>
						</g>
					</g>
					<g>
						<g>
							<path class="st5" d="M389.4,208.4c7.9,0,15.8,0.7,23.6,2.3c4.7,0.9,6.7-6.6,2-7.5c-8.5-1.7-17-2.6-25.6-2.6
								C384.6,200.6,384.6,208.4,389.4,208.4L389.4,208.4z"/>
						</g>
					</g>
					<g>
						<g>
							<path class="st5" d="M390.1,185.8c3.2-0.3,6.4-0.4,9.6-0.3c2,0.1,8.7-0.2,10,1.5c-0.3-1.3-0.6-2.5-1-3.8
								c-0.1,0.2-0.2,0.4-0.3,0.7c-1.9,4.6,5.4,6.6,7.2,2.1c0.1-0.2,0.2-0.4,0.3-0.7c0.5-1.3-0.2-2.8-1-3.8c-2.3-3.1-7.1-3-10.5-3.4
								c-4.8-0.6-9.6-0.5-14.4-0.1C385.3,178.5,385.3,186.3,390.1,185.8L390.1,185.8z"/>
						</g>
					</g>
				</g>
				<g>
					<g>
						<path class="st2" d="M141.2,564.6c-17.8-5.5-38.1-16.2-45-38.3c-6.9-22.1-8.1-46.4-8.7-70.3c-0.9-36.9-4.6-93,5.6-127.4
							c3.4-11.4,8.2-22.8,16.1-29.3c12.8-10.5,29.3-5.5,44.2-2.2c20.8,4.5,42.2,4.8,63.1,0.8c17.5-3.3,34.9-9.7,52.6-8.5
							c17.7,1.2,36.5,12,43.6,33.1"/>
					</g>
					<g>
						<g>
							<path class="st2" d="M142.2,560.9c-13.2-4.2-26.3-10.5-35.1-21.9c-10.5-13.6-12.6-34.1-14.1-50.9c-2.8-30.8-3.2-62.5-3-93.4
								c0.1-15.9,0.6-31.9,3.1-47.6c2.3-14.6,6.1-32.6,16.9-43c13.7-13.3,34.1-4.4,50-1.7c16.5,2.8,33.3,3,49.8,0.7
								c19.2-2.7,38.1-10.6,57.7-9.7c18.7,0.8,35,12,41.7,30.3c1.7,4.6,9,2.6,7.2-2.1c-12.5-34.1-45.2-39.7-76.3-32.9
								c-22.2,4.8-43.4,9.6-66.2,7.7c-17.5-1.5-37-10.6-54.6-6.1c-31,7.9-34.7,54.9-36.2,81.7c-2,37-0.8,75.4,2.1,112.4
								c1.5,19.7,3.6,42.9,15.7,59c9.8,13,24.6,20.2,39.4,25C144.8,569.9,146.8,562.4,142.2,560.9L142.2,560.9z"/>
						</g>
					</g>
				</g>
				<g>
					<g>
						<path class="st6" d="M146.5,290.7c-17.3-0.9-23.9-1.2-37.8,6.6c6.3,4.5,12.9,8.5,19.7,12.1c2.6,1.4,5.3,2.7,8.1,3.2
							c3.4,0.6,2.2,8.8,5.6,8.3c18-2.8,27.7-6.1,45.7-3.3c12.6,2,38.3-0.2,51.1,0c24.5,0.5,50.8-3.3,73.9,5.1
							c-10.8-19.3-34.2-38.2-55.6-35.8c-10.3,1.1-20,5.2-30,8.2c-15.5,4.7-32,6.8-47.8,3.3C168.4,296,157.8,290.8,146.5,290.7"/>
					</g>
					<g>
						<g>
							<path class="st2" d="M146.5,286.8c-14.6-0.7-26.5,0-39.7,7.1c-2.7,1.4-2.2,5.2,0,6.7c7.4,5.2,15.1,9.8,23.2,13.8
								c5,2.5,4.3,3.1,6.9,7.1c1,1.6,1.9,2.4,3.7,3c3,1,6.9-0.6,9.8-1.1c5.3-0.9,10.7-2,16.1-2.6c9.4-1,18.4,0.7,27.8,1.2
								c16,0.9,32.1-0.6,48.1-0.6c23.3,0.1,46.8-2.7,69.4,5c3.1,1.1,5.9-2.9,4.2-5.7c-13.5-22.9-38-42-64.9-36.8
								c-18.2,3.5-34.4,11.8-53.2,12.3C179.9,296.6,164.1,287.8,146.5,286.8c-4.8-0.3-4.8,7.5,0,7.8c15.1,0.8,28.8,8.2,44,9.2
								c14.5,1,28.9-2.1,42.7-6.6c15.1-4.9,29.3-9.7,44.5-2.7c13.3,6.2,24.3,17.3,31.8,30c1.4-1.9,2.8-3.8,4.2-5.7
								c-20.3-6.9-41.4-5.7-62.5-5.3c-17.3,0.3-34.7,1.2-51.9,0.9c-8.5-0.2-16.8-1.9-25.3-1.8c-8.6,0.1-17.2,1.7-25.7,3.3
								c-6.4,1.2-4,1.1-6.6-3.3c-1.1-1.9-1.9-2.4-3.8-3.6c-4-2.5-9.2-3.7-13.5-6.2c-4.8-2.8-9.4-5.8-13.9-8.9c0,2.2,0,4.5,0,6.7
								c11.9-6.4,22.7-6.7,35.9-6C151.3,294.8,151.3,287,146.5,286.8L146.5,286.8z"/>
						</g>
					</g>
				</g>
				<g>
					<g>
						<path class="st2" d="M134.7,273.6c-6-8.7-12-17.4-18.1-26.1c-2-2.8-4-5.7-5.1-9c-1.5-4.3-1.5-9.1-1.4-13.7
							c0.5-40.8,1-82,8.9-122c40.1-3.9,80.4-6,120.7-6.3c2.5,0,5.1,0,7.3,1.1c2.2,1.1,3.8,3.2,5.3,5.2c4.6,6.2,9.1,12.6,13.3,19.2
							c-1.1-0.2-2.2-0.4-3.3-0.5"/>
					</g>
					<g>
						<g>
							<path class="st2" d="M137.9,271.6c-7.9-11.4-22-25.6-24-39.9c-1.8-13,0.1-27.5,0.4-40.6c0.8-29.3,2.7-58.5,8.2-87.3
								c-1.2,1-2.4,1.9-3.6,2.9c25.2-2.4,50.5-4.2,75.9-5.2c12.3-0.5,24.7-0.8,37-1c8.7-0.1,13.7-0.4,19.4,7.4
								c3.8,5.2,7.5,10.6,11,16c1.4-1.9,2.8-3.8,4.2-5.7c-1.1-0.2-2.2-0.4-3.3-0.5c-4.7-0.8-6.8,6.7-2,7.5c1.1,0.2,2.2,0.4,3.3,0.5
								c2.9,0.5,6.3-2.6,4.2-5.7c-5.3-8-11.7-22.1-20.8-26.1c-4.3-1.9-9.6-1.3-14.2-1.2c-7.8,0.1-15.6,0.3-23.4,0.5
								c-30.5,0.9-61,2.9-91.5,5.7c-1.6,0.1-3.3,1.1-3.6,2.9c-5.9,30.8-7.8,62-8.5,93.4c-0.3,13.4-2.9,29.7,0.7,42.7
								c3.7,13.6,16.2,26.4,24,37.7C134.2,279.6,140.7,275.7,137.9,271.6L137.9,271.6z"/>
						</g>
					</g>
				</g>
				<g>
					<g>
						<path class="st4" d="M236.3,272.1c-29.7,1.5-59.5,3-89.2,4.6c-1.9,0.1-3.8,0.2-5.5-0.7c-3.3-1.7-3.9-6.2-4.2-10
							c-2.5-43,0.1-86.4,7.6-128.8c0.7-3.7,1.6-7.8,4.5-10c2.5-1.9,5.8-2,9-2c33.6,0,67.1,0,100.7,0c3.5,0,7.5,0.2,9.7,3
							c1.5,1.9,1.8,4.6,2,7c3.6,40.2,7.3,80.4,10.9,120.6c0.2,2.7,0.4,5.6-1.2,7.7c-1.7,2.2-7.3,5.6-10,5.9
							C258.6,270.8,247,272,236.3,272.1"/>
					</g>
					<g>
						<g>
							<path class="st5" d="M236.3,268.2c-16.2,0.8-32.3,1.7-48.5,2.5c-7.8,0.4-15.5,0.8-23.3,1.2c-3.9,0.2-7.8,0.4-11.6,0.6
								c-1.7,0.1-4.2,0.7-5.8,0.3c-4.3-1-4.9-3.3-5.9-6.8c-1.9-7.1-0.8-16.8-0.9-24.2c-0.1-8.8,0-17.5,0.3-26.3
								c0.6-16.8,1.9-33.6,4-50.3c1-8.2,1.1-19.2,4.1-26.9c4.5-11.4,17.4-9.2,27.3-9.2c16.8,0,33.6,0,50.3,0c7.7,0,15.5,0,23.2,0
								c3.6,0,8.3-0.8,11.8,0.2c6,1.7,6.1,8.3,6.6,14c1.5,16.8,3,33.5,4.6,50.3c1.7,18.8,3.4,37.5,5.1,56.3
								c0.4,4.7,1.9,9.9-2.2,13.3c-3.5,3-9.3,3-13.7,3.4C253.3,267.4,244.8,268.1,236.3,268.2c-4.8,0.1-4.8,7.9,0,7.8
								c9.1-0.1,18.2-0.9,27.3-1.9c6.6-0.7,13.4-1.3,18.5-6.4c4.5-4.6,3.8-9.8,3.3-15.9c-1-12.1-2.2-24.1-3.3-36.2
								c-2.1-22.8-4.1-45.6-6.2-68.4c-0.6-6.3,0.3-15.6-3.7-21.1c-3.9-5.4-11.1-4.9-16.8-4.9c-21.9-0.1-43.9,0-65.8,0
								c-10.3,0-20.7-0.3-31,0c-6.7,0.2-12.2,1.7-15.3,8.4c-3.5,7.7-3.8,18.1-4.9,26.4c-1.5,10.3-2.6,20.7-3.5,31.1
								c-1.9,22.8-2.5,45.8-1.6,68.6c0.3,6.4-0.7,16.3,4.1,21.5c5.4,5.9,16.6,2.8,23.4,2.5c25.2-1.3,50.4-2.6,75.6-3.9
								C241.1,275.7,241.1,267.9,236.3,268.2L236.3,268.2z"/>
						</g>
					</g>
				</g>
				<g>
					<g>
						<path class="st3" d="M163.8,188.3c0-12.7,0-25.5,0.1-38.2c0-1.8,0.1-3.9,1.5-5c0.9-0.7,2-0.8,3.1-0.8
							c26.2-1.7,52.5-1.1,78.5,1.8c0.9,0.1,1.9,0.2,2.7,0.8c1.4,1,1.7,2.9,1.9,4.5c1.3,12.1,2,24.2,2,36.3
							c-26.8,2.9-53.7,4.8-80.7,5.7C169.7,193.5,163.3,191.5,163.8,188.3"/>
					</g>
					<g>
						<g>
							<path class="st3" d="M166.3,188.3c0-6.4,0-12.7,0-19.1c0-4.7-1.5-12.9,0-17.2c3.2-9.4,28.8-6.1,37.5-6
								c11.2,0.2,24.4-0.7,35.3,1.9c10.3,2.5,10.7,10.2,11.3,19.6c0.4,6.7,0.6,13.5,0.6,20.2c0.8-0.9,1.7-1.7,2.5-2.6
								c-14.7,1.6-29.4,2.9-44.1,3.9c-5.8,0.4-41.9,5.7-43.2-1.4c-0.6-3.3-5.4-1.9-4.8,1.4c2.2,11.4,23.9,6.6,30.7,6.2
								c20.5-1.1,41-2.7,61.4-4.9c1.3-0.1,2.5-1.1,2.5-2.6c-0.1-9.4-0.4-18.9-1.2-28.3c-0.3-3.9,0.2-11.5-3.4-14.4
								c-3.9-3.2-11.5-2.3-16.2-2.7c-9.8-0.8-19.6-1.3-29.4-1.5c-9.2-0.2-18.4-0.1-27.5,0.3c-4,0.2-11.6-0.9-14.9,2.4
								c-3.7,3.7-2.1,11.5-2.1,16.1c0,9.6,0,19.1,0,28.7C161.3,191.6,166.3,191.6,166.3,188.3L166.3,188.3z"/>
						</g>
					</g>
				</g>
				<g>
					<g>
						<path class="st6" d="M190.7,213.9c11.3,0.6,28.7,0.3,40-1.1c3.8,8.3,3.8,18.6,0.1,27c-3.7,8.3-11.1,14.4-19.2,15.7
							c-2,0.3-4,0.4-6-0.1c-3.5-1-9.2-3.6-11.5-6.8c-6-8.2-6.2-13.7-5.7-24.3C188.5,222.4,189,214.4,190.7,213.9"/>
					</g>
					<g>
						<g>
							<path class="st2" d="M190.7,216.5c13.3,0.6,26.7,0.4,40-1.1c-0.8-0.6-1.6-1.3-2.4-1.9c3.5,8.8,3.9,18.7-0.8,27.2
								c-4.5,8.1-13.9,14.7-23.1,11.6c-8.8-3-13.1-11.1-13.6-20.2c-0.2-3.4-0.9-13.8,1.7-16.3c2.4-2.3-1.2-6-3.5-3.7
								c-4.8,4.7-3.7,19.1-2.7,25c1.7,10,8.3,17.7,17.7,20.5c9.4,2.7,19.3-2.7,25.1-10.2c7.8-10,8.6-23.6,4-35.2
								c-0.4-1-1.2-2-2.4-1.9c-13.2,1.5-26.7,1.7-40,1.1C187.4,211.2,187.4,216.4,190.7,216.5L190.7,216.5z"/>
						</g>
					</g>
				</g>
				<g>
					<g>
						<path class="st4" d="M126.6,330.6c2.3-16.9,16.6-17.6,23.6-17.5c39.5,0.8,79.2,6.2,118.5,0.7c12.8-1.8,26.5-4.5,37.9,3.3
							c11.1,7.6,17.4,23.7,19.6,39.8c2.2,16.1,0.9,32.6,0.8,49c-0.3,29.5,3,58.7,5.2,88.1c1,13.5,1.5,28.2-4.3,39.3
							c-5.8,11-16.3,15.6-26.2,18.5c-14.2,4-28.6,5.6-43.1,7.1c-14.4,1.6-28.9,3.1-43.3,4.7c-23,2.5-46.1,5-69,2
							c-3.4-0.4-7-1.1-10-3.3c-8-6-9-20.2-9-32.3C127,463.5,126.8,397,126.6,330.6"/>
					</g>
					<g>
						<g>
							<path class="st5" d="M130.2,331.6c1.9-10.2,7.8-14,17.2-14.6c12.6-0.8,25.7,0.8,38.3,1.5c27.6,1.5,55.4,2.9,82.9-0.8
								c11.8-1.6,25.3-4.5,36,2.8c10.7,7.3,15.3,21.9,17.4,34.3c4.6,27.1,0.4,55.8,2,83.2c0.8,13.4,2,26.7,3.1,40
								c1.1,13.7,3.4,28.4,1,42.1c-5.1,29.4-39.3,31.4-62.4,34.1c-27,3.1-54.1,6.7-81.2,8.4c-12.6,0.8-27.6,2.2-39.9-1.1
								c-14.9-3.9-13.6-22.7-13.7-35.6c-0.3-65.1-0.3-130.2-0.5-195.3c0-5-7.5-5-7.5,0c0.1,35.3,0.2,70.6,0.3,105.9
								c0.1,34-2,68.9,0.5,102.8c0.7,9.3,2.5,20.2,10.2,26.1c9.5,7.2,26.1,5.6,37.2,5.5c32.7-0.4,65.8-5.4,98.3-9.3
								c20.9-2.5,50.2-4.8,61.7-26.3c6.1-11.4,5.9-25.3,5.1-37.9c-1-16.5-2.7-32.9-3.9-49.4c-1.2-17.2-1.8-34.3-1.4-51.5
								c0.3-14.6,0.9-29.3-1.6-43.8c-4.1-23.9-17.4-45-42.8-44.7c-17.8,0.2-35.4,4.1-53.3,4.3c-18.5,0.2-36.9-1.1-55.4-2
								c-19.3-1-49.9-7.5-54.9,19.3C122.1,334.4,129.3,336.5,130.2,331.6L130.2,331.6z"/>
						</g>
					</g>
				</g>
				<g>
					<g>
						<g>
							<path class="st4" d="M53,552.7c-1.1-4.2-4.1-7.5-7.1-10.4c-3.4-3.2-7.4-6.1-12-6.5c-6.7-0.5-13.1,5.2-14.5,12
								c-1.5,6.8,1.2,14.2,5.9,19.2"/>
						</g>
						<g>
							<g>
								<path class="st5" d="M56.6,551.7c-4.2-12-19.1-24.8-31.6-17.6c-13.4,7.8-11.3,25.3-2.4,35.7c3.2,3.8,8.5-1.8,5.3-5.5
									c-5.5-6.5-8.3-18.7,0.9-23.5c7.9-4.1,18.1,5.6,20.6,12.9C51,558.5,58.3,556.4,56.6,551.7L56.6,551.7z"/>
							</g>
						</g>
					</g>
					<g>
						<g>
							<path class="st6" d="M21,618.8c0.9-12.3-4.7-24.8-2.3-36.9c1.3-6.7,5.1-12.7,9.6-17.7c5.2-5.7,11.8-10.4,19.2-12
								c7.4-1.6,15.8,0.2,21.1,5.9c3,3.2,4.9,7.4,6.5,11.5c6.1,15.5,9.8,31.9,11,48.6c-5.6,2.5-11.6,4-17.7,4.5
								c-1.9-7.7-3.8-15.4-5.7-23.1c-0.9-3.6-1.8-7.3-3.9-10.2c-2.1-3-5.8-5.1-9.2-4.2c-3.2,0.8-5.5,4-6.3,7.4s-0.3,6.9,0.2,10.3
								c1.3,8.5,3,17,5,25.3c-8.1,1.1-14.3,1.9-22.4,3c-0.9,0.1-2,0.2-2.7-0.4c-0.8-0.7-0.8-1.9-0.7-3c0.2-3.9-1.6-7.7-1.4-11.6"/>
						</g>
						<g>
							<g>
								<path class="st2" d="M24.7,618.8c0.3-11.8-4.8-24.3-2.5-35.9c2.5-12.4,14.1-24.5,26.2-27c27-5.6,32.2,43.2,33.8,62.2
									c0.9-1.3,1.8-2.5,2.8-3.8c-5.5,2.2-10.7,3.7-16.7,4.3c1.2,1,2.4,1.9,3.6,2.9c-2.6-10.6-5.5-45-23.4-40.2
									c-17.7,4.6-6.4,36.7-3.7,47.8c1.2-1.6,2.4-3.3,3.6-4.9c-6.3,0.8-12.9,1.1-19.1,2.5c-4.6,1-1.9,1.3-3.2-2
									c-0.9-2.3-1.1-6.5-1.2-8.7c-0.3-5-7.8-5-7.5,0c0.3,4.9-0.4,15.2,4.4,18.1c2.7,1.6,6.3,0.5,9.1,0.1
									c5.8-0.8,11.6-1.6,17.5-2.3c2.4-0.3,4.3-2.2,3.6-4.9c-1.1-4.8-2.2-9.6-3.2-14.4c-0.5-2.4-0.9-4.8-1.3-7.3
									c-0.2-1.2-0.4-2.4-0.6-3.6c-2.3-5.3-0.8-7.7,4.7-7c6.5-1.4,5.4-1,7,4.5c0.7,2.3,1.2,4.7,1.8,7.1c1.4,5.8,2.8,11.5,4.3,17.3
									c0.4,1.5,2,3,3.6,2.9c6.5-0.7,12.5-2.1,18.7-4.6c1.4-0.6,2.9-2,2.8-3.8c-2-23.6-7.5-73-39.5-70.3c-13,1.1-25,11.2-31.3,22.6
									c-8.7,15.7-1.4,31.7-1.8,48.4C17.1,623.9,24.6,623.9,24.7,618.8L24.7,618.8z"/>
							</g>
						</g>
					</g>
					<g>
						<g>
							<path class="st5" d="M25.7,617.7c5.1-0.9,10.3-1.9,15.4-2.8c3.8-0.7,6.9-2.3,6.1-6.8c-0.9-4.9-8.1-2.8-7.2,2.1
								c0,0.2,0.1,0.4,0.1,0.7c0.3-1.3,0.6-2.5,1-3.8c-0.7,0.7-6.1,1.1-7.8,1.4c-3.2,0.6-6.4,1.1-9.5,1.7
								C18.9,611,20.9,618.5,25.7,617.7L25.7,617.7z"/>
						</g>
					</g>
					<g>
						<g>
							<path class="st5" d="M69.1,608.8c4.8-1.2,9.6-2.4,14.4-3.6c4.7-1.2,2.7-8.7-2-7.5c-4.8,1.2-9.6,2.4-14.4,3.6
								C62.4,602.4,64.4,609.9,69.1,608.8L69.1,608.8z"/>
						</g>
					</g>
				</g>
				<g>
					<g>
						<path class="st4" d="M379.3,143c-0.3,4.3,1.3,8.5,3.3,12.3c2.2,4.2,4.9,8.4,9.1,10.4c6.2,2.9,14-0.3,17.6-6.1
							s3.5-13.8,0.8-20.2"/>
					</g>
					<g>
						<g>
							<path class="st5" d="M375.6,143c0,12.6,9.8,29.5,23.7,27.4c14.9-2.3,19.5-19.2,14.6-32.1c-1.8-4.6-9-2.6-7.2,2.1
								c3.1,8.2,2.4,20-7.7,22.2c-9.4,2.1-15.8-11.7-15.8-19.6C383.1,138,375.6,138,375.6,143L375.6,143z"/>
						</g>
					</g>
				</g>
				<g>
					<g>
						<path class="st6" d="M427.3,83.9c-2.4,12.1,1.8,25.2-2,36.9c-2.1,6.5-6.5,12-11.6,16.4c-5.8,5-12.9,8.9-20.4,9.5
							c-7.6,0.7-15.6-2.2-20.2-8.5c-2.6-3.6-4-7.9-5.1-12.2c-4.2-16.1-6-32.9-5.3-49.6c5.8-1.8,12-2.6,18-2.2c1,7.9,2,15.8,3,23.6
							c0.5,3.7,1,7.4,2.7,10.6s5.1,5.8,8.7,5.3c3.3-0.4,6-3.3,7.1-6.5c1.2-3.2,1.1-6.8,1-10.3c-0.3-8.6-1-17.2-2.1-25.7
							c8.2,0,14.4-0.1,22.6-0.2c0.9,0,2,0,2.6,0.7c0.7,0.8,0.6,2,0.4,3c-0.6,3.9,0.7,7.8,0,11.7"/>
					</g>
					<g>
						<g>
							<path class="st2" d="M423.7,82.8c-1.6,11.5,1.6,24-1.5,35.1c-3.4,11.9-14.9,22.2-26.7,24.5c-30.2,6-29.7-46.4-29.1-66.1
								c-0.9,1.3-1.8,2.5-2.8,3.8c5.7-1.5,11.2-2.2,17-2.1c-1.3-1.3-2.5-2.6-3.8-3.9c1.4,11.2,0.1,44.8,18.1,43.5
								c18.6-1.3,11.2-35.3,9.8-46.4c-1.3,1.3-2.5,2.6-3.8,3.9c6.4,0,12.8,0,19.2-0.1c4.7-0.1,1.9-1.1,2.5,2.8
								c0.4,2.9,0.4,5.9,0.2,8.8c-0.3,5,7.2,5,7.5,0c0.3-4.9,2-15.3-2.9-18.4c-5.9-3.8-19.7-0.8-26.5-0.8c-1.8,0-4,1.8-3.8,3.9
								c0.6,4.9,1.1,9.8,1.5,14.7c0.2,2.5,0.3,4.9,0.4,7.4c0.3,6.1,1.2,6.5-4.7,10.2c-6.1,3.7-5.4,3.2-6.6-2.6c-0.6-2.9-0.8-6-1.2-9
								c-0.7-5.9-1.5-11.8-2.2-17.7c-0.3-2.1-1.5-3.9-3.8-3.9c-6.6-0.1-12.7,0.7-19,2.4c-1.6,0.4-2.7,2.1-2.8,3.8
								c-0.8,23.7-0.8,73.5,31.5,74.3c12.6,0.3,25-7.8,32.6-17.8c11.1-14.5,5.5-31.1,7.9-48C431.7,80,424.4,77.9,423.7,82.8
								L423.7,82.8z"/>
						</g>
					</g>
				</g>
				<g>
					<g>
						<path class="st5" d="M423.1,84.4c-5.2,0.3-10.4,0.6-15.6,0.8c-3.4,0.2-7.7,0.9-7.5,5.4c0.3,5,7.8,5,7.5,0c0-0.2,0-0.4,0-0.7
							c-0.4,0.9-0.7,1.8-1.1,2.8c-0.2,0.2,3.5,0.1,3.3,0.1c1.5-0.1,3-0.2,4.5-0.2c3-0.2,6-0.3,8.9-0.5
							C427.9,91.9,427.9,84.1,423.1,84.4L423.1,84.4z"/>
					</g>
				</g>
				<g>
					<g>
						<path class="st5" d="M379,87.8c-4.9,0.6-9.8,1.2-14.7,1.8c-2,0.3-3.7,1.6-3.8,3.9c0,1.9,1.7,4.1,3.8,3.9
							c4.9-0.6,9.8-1.2,14.7-1.8c2-0.3,3.7-1.6,3.8-3.9C382.7,89.8,381,87.6,379,87.8L379,87.8z"/>
					</g>
				</g>
				<g>
					<g>
						<path class="st7" d="M154.5,379.7c1.7-10.9,12.1-11.4,17.2-11.3c28.8,0.5,57.8,4,86.4,0.5c9.3-1.1,19.3-2.9,27.6,2.1
							c8.1,4.9,12.7,15.3,14.3,25.7s0.7,21.1,0.6,31.6c-0.2,19,2.2,37.9,3.8,56.9c0.7,8.7,1.1,18.2-3.2,25.4
							c-4.2,7.1-11.9,10.1-19.1,11.9c-10.3,2.6-20.9,3.6-31.4,4.6c-10.5,1-21.1,2-31.6,3c-16.8,1.6-33.6,3.2-50.3,1.3
							c-2.5-0.3-5.1-0.7-7.3-2.1c-5.8-3.9-6.5-13.1-6.6-20.8C154.8,465.6,154.7,422.7,154.5,379.7"/>
					</g>
					<g>
						<g>
							<path class="st5" d="M159.4,381.1c3.1-13.1,28.8-7,37.9-6.5c18.3,0.9,36.7,1.8,55,0.1c7.1-0.6,14.5-2.3,21.6-1.8
								c10.8,0.8,17.2,8.7,20,19c4.8,17.3,1.2,37,2.2,54.8c1,16.8,5.3,35,3.6,51.8c-2.2,21.4-29.7,21.5-45.5,23.1
								c-17.5,1.8-35,3.7-52.5,4.9c-8.4,0.6-16.8,0.9-25.2,0.4c-4.4-0.3-11.1,0-14.2-4c-2.8-3.7-2.3-10-2.4-14.4
								c-0.8-42.9-0.3-85.9-0.4-128.8c0-6.7-10-6.7-10,0c0.1,24.9,0.1,49.9,0.2,74.8c0,12.5,0.1,24.9,0.1,37.4
								c0,10.1-1.2,21.4,1.7,31.2c5.4,17.9,28,14.8,42.3,14.2c23-1,46.2-3.5,69.1-6.3c15.6-1.9,36.4-3.9,44-20.6
								c3.3-7.3,3.1-15.7,2.6-23.6c-0.9-12.7-2.5-25.4-3.3-38.2c-1.4-21.3,3.5-45.3-4.8-65.5c-6.8-16.7-20.5-22-37.1-20.3
								c-25.9,2.6-51.1,1.9-77,0.8c-14.1-0.6-33.4-3.6-37.8,14.6C148.2,384.9,157.8,387.6,159.4,381.1L159.4,381.1z"/>
						</g>
					</g>
				</g>
				<g>
					<g>
						<path class="st2" d="M277,341.6c-1.7,3.6-0.1,7.3,3.8,7.6c3.9,0.3,7.2-4.7,5.4-8.2C284.4,337.4,278.2,337.8,277,341.6"/>
					</g>
					<g>
						<path class="st2" d="M237.9,341c-2.2,4.7-0.1,9.4,4.9,9.7c5,0.4,9.3-6,6.9-10.6S239.4,336,237.9,341"/>
					</g>
					<g>
						<path class="st2" d="M258.2,341c-2.2,4.7-0.1,9.4,4.9,9.7c5,0.4,9.3-6,6.9-10.6C267.7,335.5,259.8,336,258.2,341"/>
					</g>
				</g>
				<g>
					<g>
						<path class="st5" d="M188.8,175.3c-1.1-2.3-1.4-4.9-0.9-7.5c-0.6,0.8-1.2,1.6-1.7,2.3c-1,0.5,0-0.2,0.1,0.6
							c0.2,0.9,0.3,1.7,0.2,2.7c0,0.8-0.1,1.5-0.3,2.3c0,0.3-0.2,0.6-0.3,0.9c0.4-0.2,0.3-0.2-0.2,0.1c0.6-0.2,1.3-0.4,1.9-0.5
							c0.7,0.6,0.8,0.6,0.4,0.1c-0.1-0.2-0.3-0.4-0.4-0.7c-0.4-0.7-0.6-1.4-0.8-2.2c-0.3-1.5-0.1-3,0.5-4.3c2.1-4.5-4.4-8.5-6.5-3.9
							c-2.5,5.4-2.2,12.5,2.1,17c2,2.1,5.1,2.5,7.4,0.8c2.3-1.7,3.2-4.6,3.5-7.4c0.7-5.8-1.5-13.4-8.4-13.1
							c-7.9,0.4-5.3,12-3.1,16.8C184.4,183.8,190.9,179.8,188.8,175.3L188.8,175.3z"/>
					</g>
				</g>
				<g>
					<g>
						<path class="st5" d="M233.2,173.2c-1.6-3.1-1.8-6.5-0.3-9.7c-2,0.3-3.9,0.5-5.9,0.8c2.3,2.4,3.5,5.7,2.1,9
							c1.4-0.6,2.8-1.2,4.2-1.8c-1.2-0.4-1.9-1.2-1.5-2.4c1.6-4.7-5.6-6.8-7.2-2.1c-1.9,5.4,2,10.2,6.7,12c1.4,0.5,3.6-0.3,4.2-1.8
							c2.9-6.5,1.6-13.4-3.3-18.4c-1.6-1.7-4.8-1.5-5.9,0.8c-2.7,5.8-2.7,11.9,0.3,17.6C229,181.6,235.4,177.6,233.2,173.2
							L233.2,173.2z"/>
					</g>
				</g>
				<g>
					<g>
						<path class="st5" d="M167.5,156.2c0.3-1.4,0.5-2.7,0.8-4.1c0.2-1,0.2-3.1,1.2-3.6c0.8-0.5,2.5-0.2,3.3-0.2
							c1.6,0,3.2,0.3,4.8,0.6c1.6,0.3,2.2-2.2,0.7-2.5c-2.9-0.6-7.4-1.6-10.1-0.2c-1,0.5-1.5,1.5-1.8,2.6c-0.5,2.2-0.8,4.4-1.2,6.6
							C164.8,157.1,167.2,157.8,167.5,156.2L167.5,156.2z"/>
					</g>
				</g>
				<g>
					<g>
						<path class="st5" d="M243.3,187.8c2.4-0.3,6.5-0.1,8.1-2.5c0.8-1.2,0.7-3,0.8-4.4c0.1-2,0.1-4,0-6c-0.1-1.7-2.6-1.7-2.5,0
							c0.1,2.4,0.4,5.3-0.1,7.7c-0.4,1.6-1.1,1.9-2.5,2.1c-1.5,0.2-3,0.4-4.4,0.6C241.1,185.5,241.7,188,243.3,187.8L243.3,187.8z"
							/>
					</g>
				</g>
				<g>
					<path class="st2" d="M199,222.4c6.6,0.3,16.8,0.2,23.4-0.6c2.2,4.9,2.2,10.9,0,15.8c-2.2,4.9-6.5,8.4-11.2,9.2
						c-1.2,0.2-2.4,0.2-3.5-0.1c-2-0.6-5.4-2.1-6.7-4c-3.5-4.8-3.6-8-3.3-14.2C197.7,227.3,198,222.7,199,222.4"/>
				</g>
				<g>
					<g>
						<g>
							<path class="st8" d="M258.4,219.8c-0.4-6.2-0.4-12.4-0.2-18.7c0.1-3.3-4.9-3.3-5,0c-0.2,6.2-0.2,12.4,0.2,18.7
								C253.6,223.1,258.6,223.1,258.4,219.8L258.4,219.8z"/>
						</g>
					</g>
					<g>
						<g>
							<path class="st8" d="M246.3,212c5.5,0,11.1,0,16.6,0c3.2,0,3.2-5.2,0-5.2c-5.5,0-11.1,0-16.6,0
								C243.1,206.8,243.1,212,246.3,212L246.3,212z"/>
						</g>
					</g>
				</g>
				<g>
					<g>
						<path class="st8" d="M155.8,214.1c4.7-0.3,9.3-0.2,14,0.2c3.2,0.3,3.2-4.9,0-5.2c-4.7-0.4-9.3-0.5-14-0.2
							C152.6,209.1,152.6,214.3,155.8,214.1L155.8,214.1z"/>
					</g>
				</g>
				<g>
					<g>
						<path class="st3" d="M170.1,394.5c-2.9,6.3-0.1,12.5,6.6,13c6.7,0.5,12.4-8.1,9.2-14.2C182.8,387.2,172.2,387.9,170.1,394.5"
							/>
					</g>
				</g>
				<g>
					<g>
						<path class="st3" d="M273.8,491.8c-2.9,6.3-0.1,12.5,6.6,13c6.7,0.5,12.4-8.1,9.2-14.2C286.4,484.5,275.8,485.2,273.8,491.8"
							/>
					</g>
				</g>
				<g>
					<g>
						<path class="st5" d="M263,394.5c-2.9,6.3-0.1,12.5,6.6,13c6.7,0.5,12.4-8.1,9.2-14.2C275.6,387.2,265,387.9,263,394.5"/>
					</g>
				</g>
				<g>
					<g>
						<path class="st5" d="M175.2,502.9c-2.9,6.3-0.1,12.5,6.6,13c6.7,0.5,12.4-8.1,9.2-14.2C187.9,495.6,177.3,496.3,175.2,502.9"
							/>
					</g>
				</g>
				<g>
					<g>
						<path class="st8" d="M180.2,445.3c12.3-5.1,11.3,15,15.2,21.5c2.7,4.6,7.1,8.2,12.3,9c17.6,2.8,13-18.6,13.5-29.6
							c0.3-7.4,4-18.6,13.6-17.2c8.8,1.3,8.1,13,9,19.4c0.9,6.2,3,14.7,8.6,18.4c3.6,2.3,8.7,1.2,12.5-0.4c1.4-0.6,3.3-1.3,4.1-2.7
							c0.3-0.5,0.6-1,0.7-1.6c0.2-0.9,0.1-1.7-0.1-2.6c-1-4.7,1.9-7.8,8.5-9.3c2.5,2.1,6-1.5,3.5-3.7c-4-3.5-9.2-4.8-13.7-1
							c-2,1.7-3.1,3.9-3.6,6.5c-1,5.1,2.2,10.5-5.3,10.7c-17.7,0.5-3.1-42-26.9-38.5c-5.7,0.8-11.8,4.8-14.4,10.3
							c-1.9,4.2-1.6,9.2-1.7,13.7c0,3.9,1.7,12.3,0.2,16c-3.1,7.7-9.3,7.5-14.4,2.5c-2.9-2.9-4.2-6.3-5-10.3
							c-0.7-3.8,0.1-8.8-1.4-12.5c-3.1-7.5-10.7-6.1-16.7-3.6C175.9,441.5,177.2,446.6,180.2,445.3L180.2,445.3z"/>
					</g>
				</g>
				<g>
					<g>
						<path class="st6" d="M148.5,130.7c-12.7-6.2-17.4-24.2-30.5-29.4c43.5-2.6,87.1-3.4,130.6-2.2c1.4,0,2.9,0.1,4.2,0.8
							c1.7,0.9,2.7,2.7,3.6,4.5c3.8,7.3,7.4,14.8,10.6,22.5c-13.5-2.9-27.4-3.3-41.1-3.7c-25.6-0.7-51.7-1.4-76.5,5.3"/>
					</g>
					<g>
						<g>
							<path class="st2" d="M150.4,127.4c-12.6-7.1-17.1-23.1-30.5-29.4c-0.6,2.4-1.3,4.8-1.9,7.3c27-1.6,54.1-2.5,81.1-2.7
								c13.2-0.1,26.4,0,39.6,0.3c8.2,0.2,12.8,0.1,16.9,8.3c2.9,5.8,5.6,11.7,8.2,17.7c1.4-1.9,2.8-3.8,4.2-5.7
								c-19.9-3.9-40.3-4-60.5-4.2c-19.9-0.2-39.8,0.9-59.2,5.9c-4.7,1.2-2.7,8.7,2,7.5c18.8-4.8,37.9-5.8,57.2-5.6
								c19.5,0.2,39.3,0.2,58.5,4c3.4,0.7,5.6-2.6,4.2-5.7c-3.5-8.1-7.9-24.8-16.5-28.7c-4.9-2.3-11.8-1.1-17.1-1.2
								c-7.9-0.1-15.8-0.2-23.8-0.3c-31.7-0.1-63.4,0.9-95,2.7c-3.4,0.2-5.6,5.5-1.9,7.3c13.1,6.1,17.8,22.2,30.5,29.4
								C150.8,136.5,154.6,129.8,150.4,127.4L150.4,127.4z"/>
						</g>
					</g>
				</g>
				<g>
					<g>
						<path class="st2" d="M155.4,112.2c9.9,0.2,19.8-0.1,29.7-0.9c0.5,0,1-0.1,1.3-0.4c0.4-0.4,0.5-1.1,0.6-1.7
							c0.5-6.7,0.9-13.5,1.4-20.2l-32.7-1.3c0.6,8.4,0.2,16.9-1.2,25.2c-3-1.4-6.3-3.1-7.4-6.3c-0.7-1.9-0.4-4-0.1-6
							c1-6.6,2.6-13.2,4.8-19.5c0.7-2,1.5-4.1,2.7-5.8"/>
					</g>
					<g>
						<g>
							<path class="st2" d="M155.4,114.8c5.9,0.1,11.9,0.1,17.8-0.2c3.8-0.2,10.7,0.9,13.9-1.2c1.7-1.2,1.9-2,2.4-4.2
								c1.5-6.2,1-13.9,1.4-20.2c0.1-1.4-1.2-2.5-2.5-2.6c-10.9-0.4-21.8-0.9-32.7-1.3c-1.3-0.1-2.6,1.2-2.5,2.6
								c0.5,8.3,0.2,16.3-1.1,24.5c1.2-0.5,2.5-1,3.7-1.6c-10.5-5.1-4-25.8,1-34c1.7-2.8-2.6-5.4-4.3-2.6
								c-4.6,7.4-6.8,17.6-7.8,26.2c-0.9,7.8,2,11.6,8.7,14.8c1.3,0.6,3.4,0.2,3.7-1.6c1.3-8.6,1.8-17.2,1.3-25.9
								c-0.8,0.9-1.7,1.7-2.5,2.6c10.9,0.4,21.8,0.9,32.7,1.3c-0.8-0.9-1.7-1.7-2.5-2.6c-0.3,4.3,0,9.3-0.9,13.5
								c-1.2,5.4-1.8,6.5-7.3,6.8c-7.4,0.4-14.9,0.5-22.3,0.4C152.2,109.6,152.2,114.8,155.4,114.8L155.4,114.8z"/>
						</g>
					</g>
				</g>
				<g>
					<g>
						<path class="st2" d="M208,111.2c10.7,0.3,21.5-0.2,32.1-1.4c0.5-0.1,1-0.1,1.3-0.5c0.2-0.3,0.3-0.6,0.4-1
							c1.5-6.6,2.9-13.3,4.4-19.9l-36.6-2.1c0.6,8.4,0.2,16.9-1.2,25.2c-3-1.4-6.3-3.1-7.4-6.3c-0.7-1.9-0.4-4-0.1-6
							c1-6.6,2.6-13.2,4.8-19.5c0.7-2,1.5-4.1,2.7-5.8"/>
					</g>
					<g>
						<g>
							<path class="st2" d="M208,113.8c6.6,0.1,13.1,0,19.6-0.4c3.7-0.2,11.1,0.6,14.4-1.6c5-3.4,5.3-17,6.5-22.7
								c0.4-1.7-0.7-3.2-2.4-3.3c-12.2-0.7-24.4-1.4-36.6-2.1c-1.3-0.1-2.6,1.3-2.5,2.6c0.5,8.3,0.1,16.3-1.1,24.5
								c1.2-0.5,2.5-1,3.7-1.6c-10.9-5.4-3.6-26,1-34c1.6-2.9-2.7-5.5-4.3-2.6c-4.4,7.7-7,17.7-7.9,26.6c-0.7,7.6,2.2,11.3,8.7,14.5
								c1.3,0.6,3.4,0.2,3.7-1.6c1.3-8.6,1.8-17.2,1.3-25.9c-0.8,0.9-1.7,1.7-2.5,2.6c12.2,0.7,24.4,1.4,36.6,2.1
								c-0.8-1.1-1.6-2.2-2.4-3.3c-1,4.4-2,8.8-2.9,13.3c-1.2,5.6-0.5,6.5-6.1,6.7c-9,0.4-17.8,1-26.8,0.9
								C204.8,108.6,204.8,113.8,208,113.8L208,113.8z"/>
						</g>
					</g>
				</g>
				<g>
					<g>
						<path class="st3" d="M154.2,90.6c1.4-5-0.8-12.4,0.6-17.4c0.1-0.4,0.3-0.8,0.8-0.9c0.4-0.1,1-0.1,1.5-0.1
							c9.4,0.5,18.7,0.9,28.1,1.4c0.6,0,1.3,0.1,1.7,0.3c0.4,0.2,0.6,0.6,0.7,0.9c1.5,5,2.3,10.1,2.2,15c0,0.5-0.1,1-0.7,1.3
							c-0.5,0.2-1.2,0.2-1.8,0.2C176.2,91.2,165.2,91,154.2,90.6"/>
					</g>
					<g>
						<g>
							<path class="st2" d="M156.6,91.3c0.5-2.4,0.6-4.6,0.5-7.1c0-1.9-0.3-3.8-0.3-5.7c0-2.7-0.3-2.8,1.6-3.6
								c2.5-1.1,8.5,0.4,11.2,0.6c3.8,0.2,9-0.4,12.6,0.6c3.4,1,6.6,7.6,4.8,11.3c-0.9,1.8-0.3,1.1-2.8,1.3c-1.8,0.2-3.7,0-5.5-0.1
								c-8.3-0.1-16.5-0.3-24.8-0.6c-3.2-0.1-3.2,5.1,0,5.2c7.3,0.2,14.7,0.4,22,0.6c3.5,0.1,10.8,1.6,14.1-0.4
								c4.4-2.7,1.7-17.8-1.2-20.8c-2.3-2.3-6.5-1.7-9.5-1.9c-7-0.4-15.5-2.2-22.5-1.1c-8.8,1.3-4.1,13.9-5.3,20.3
								C151.2,93.2,156,94.6,156.6,91.3L156.6,91.3z"/>
						</g>
					</g>
				</g>
				<g>
					<g>
						<path class="st3" d="M210.1,90.8c1.4-5-0.8-12.4,0.6-17.4c0.1-0.4,0.3-0.8,0.8-0.9c0.4-0.1,1-0.1,1.5-0.1
							c9.4,0.5,18.7,0.9,28.1,1.4c0.6,0,1.3,0.1,1.7,0.3c0.4,0.2,0.6,0.6,0.7,0.9c1.5,5,2.3,10.1,2.2,15c0,0.5-0.1,1-0.7,1.3
							c-0.5,0.2-1.2,0.2-1.8,0.2C232.1,91.4,221.1,91.2,210.1,90.8"/>
					</g>
					<g>
						<g>
							<path class="st2" d="M212.5,91.5c0.5-2.4,0.6-4.6,0.5-7.1c0-1.9-0.3-3.8-0.3-5.7c0-2.7-0.3-2.8,1.6-3.6
								c2.5-1.1,8.5,0.4,11.2,0.6c3.8,0.2,9-0.4,12.6,0.6c3.4,1,6.6,7.6,4.8,11.3c-0.9,1.8-0.3,1.1-2.8,1.3c-1.8,0.2-3.7,0-5.5-0.1
								c-8.3-0.1-16.5-0.3-24.8-0.6c-3.2-0.1-3.2,5.1,0,5.2c7.3,0.2,14.7,0.4,22,0.6c3.5,0.1,10.8,1.6,14.1-0.4
								c4.4-2.7,1.7-17.8-1.2-20.8c-2.3-2.3-6.5-1.7-9.5-1.9c-7-0.4-15.5-2.2-22.5-1.1c-8.8,1.3-4.1,13.9-5.3,20.3
								C207,93.4,211.8,94.8,212.5,91.5L212.5,91.5z"/>
						</g>
					</g>
				</g>
				<g>
					<g>
						<path class="st2" d="M159.4,102.7c2.4-2.6,4.7-5.3,6.9-8.1"/>
					</g>
					<g>
						<g>
							<path class="st3" d="M161.1,104.5c2.4-2.6,4.7-5.3,6.9-8.1c2.1-2.5-1.5-6.2-3.5-3.7c-2.2,2.7-4.5,5.4-6.9,8.1
								C155.4,103.3,159,107,161.1,104.5L161.1,104.5z"/>
						</g>
					</g>
				</g>
				<g>
					<g>
						<path class="st2" d="M166.3,107.7c4.5-4.7,9.2-9.1,14.1-13.3"/>
					</g>
					<g>
						<g>
							<path class="st3" d="M168,109.6c4.5-4.7,9.2-9.1,14.1-13.3c2.5-2.1-1.1-5.8-3.5-3.7c-4.9,4.2-9.7,8.6-14.1,13.3
								C162.2,108.3,165.8,112,168,109.6L168,109.6z"/>
						</g>
					</g>
				</g>
				<g>
					<g>
						<path class="st2" d="M178.3,109.4c1-1.4,2.2-2.6,3.5-3.6"/>
					</g>
					<g>
						<g>
							<path class="st3" d="M180.1,111.2c0.9-1.2,1.9-2.3,3-3.2c1.1-0.8,1.6-2.2,0.9-3.6c-0.6-1.1-2.3-1.8-3.4-0.9
								c-1.5,1.2-2.9,2.5-4,4c-0.8,1.1-1,2.6,0,3.7C177.4,112.1,179.2,112.3,180.1,111.2L180.1,111.2z"/>
						</g>
					</g>
				</g>
				<g>
					<g>
						<path class="st2" d="M214.7,100.4c1.7-2.3,3.8-4.3,6.1-5.9"/>
					</g>
					<g>
						<g>
							<path class="st3" d="M216.4,102.3c1.6-2.1,3.4-4,5.6-5.4c1.1-0.8,1.6-2.3,0.9-3.6c-0.7-1.2-2.3-1.7-3.4-0.9
								c-2.5,1.7-4.7,3.8-6.6,6.3c-0.8,1.1-1,2.6,0,3.7C213.8,103.2,215.6,103.4,216.4,102.3L216.4,102.3z"/>
						</g>
					</g>
				</g>
				<g>
					<g>
						<path class="st2" d="M221.3,107.9c4.2-3.7,8.5-7.2,13.1-10.4"/>
					</g>
					<g>
						<g>
							<path class="st3" d="M223,109.8c4-3.6,8.2-6.9,12.6-10c2.6-1.9,0.1-6.4-2.5-4.5c-4.7,3.3-9.3,6.9-13.6,10.8
								C217,108.3,220.6,111.9,223,109.8L223,109.8z"/>
						</g>
					</g>
				</g>
				<g>
					<g>
						<path class="st2" d="M232.3,108.6c2.1-1.2,4-2.7,5.7-4.6"/>
					</g>
					<g>
						<g>
							<path class="st3" d="M233.5,110.9c2.3-1.3,4.4-3,6.2-5c2.2-2.4-1.3-6.1-3.5-3.7c-1.5,1.7-3.2,3-5.2,4.2
								C228.2,108,230.7,112.5,233.5,110.9L233.5,110.9z"/>
						</g>
					</g>
				</g>
				<g>
					<g>
						<path class="st3" d="M126.4,252.2c-4.6-40.3-3.6-80.8,3.1-120.8c0.5-3.3-4.3-4.7-4.8-1.4c-6.8,40.4-8,81.4-3.3,122.2
							C121.8,255.5,126.8,255.5,126.4,252.2L126.4,252.2z"/>
					</g>
				</g>
				<g>
					<g>
						<path class="st3" d="M113.9,168.2c4.2,2.2,8.7,3.9,13.3,5c3.1,0.7,4.5-4.3,1.3-5c-4.2-1-8.2-2.4-12.1-4.5
							C113.6,162.2,111,166.7,113.9,168.2L113.9,168.2z"/>
					</g>
				</g>
				<g>
					<g>
						<path class="st3" d="M115.9,161.6c4.3,0.3,8.5,1.2,12.6,2.7c3.1,1.1,4.4-3.9,1.3-5c-4.5-1.6-9.2-2.6-14-2.9
							C112.7,156.2,112.7,161.4,115.9,161.6L115.9,161.6z"/>
					</g>
				</g>
				<g>
					<g>
						<path class="st3" d="M110.8,225.9c4.6,2.6,9.3,5.1,13.9,7.7c2.8,1.6,5.4-2.9,2.5-4.5c-4.6-2.6-9.3-5.1-13.9-7.7
							C110.4,219.8,107.9,224.3,110.8,225.9L110.8,225.9z"/>
					</g>
				</g>
				<g>
					<g>
						<path class="st3" d="M111.3,217.1c4.5,3,8.9,5.9,13.4,8.9c2.7,1.8,5.2-2.7,2.5-4.5c-4.5-3-8.9-5.9-13.4-8.9
							C111.1,210.8,108.6,215.3,111.3,217.1L111.3,217.1z"/>
					</g>
				</g>
				<g>
					<g>
						<path class="st3" d="M113,544.3c-7.6-30.8-12.2-62.2-13.1-93.9c-0.9-30.4,0.5-61.4,11.6-89.9c1.2-3.1-3.6-4.4-4.8-1.4
							c-11.2,28.9-12.7,60.5-11.8,91.3c1,32.2,5.6,64.1,13.3,95.3C108.9,549,113.8,547.6,113,544.3L113,544.3z"/>
					</g>
				</g>
				<g>
					<g>
						<path class="st3" d="M87.2,426.4c6.7,5,13.6,9.4,20.8,13.5c2.8,1.6,5.4-2.9,2.5-4.5c-7.2-4-14.2-8.5-20.8-13.5
							C87.2,420,84.6,424.5,87.2,426.4L87.2,426.4z"/>
					</g>
				</g>
				<g>
					<g>
						<path class="st3" d="M87.9,446.2c4.1,4.1,8.8,7.1,14.1,9.1c3,1.2,4.3-3.9,1.3-5c-4.5-1.7-8.5-4.3-11.9-7.8
							C89.1,440.2,85.6,443.9,87.9,446.2L87.9,446.2z"/>
					</g>
				</g>
				<g>
					<g>
						<g>
							<path class="st4" d="M39.1,525.9c-3.5-26.5-6-53.1-7-79.8c-0.4-11.4-0.5-23.1,3.3-33.8c3.1-8.7,8.7-16.2,14.8-23
								c12.2-13.6,27.4-25.2,45-29.2c0,0,26.8-21.4,14.4-33.4c-12.4-11.9-34.6,4.1-34.6,4.1c-35.5,9.8-63,40.1-72,77
								s-1.9,80,7.7,116.8c0,0,4.8,17.5,13.8,14.4C33.6,535.9,40.7,538.2,39.1,525.9z"/>
						</g>
						<g>
							<g>
								<path class="st5" d="M42.7,524.9c-3.9-29.6-7.7-60.2-7.1-90.2c0.6-28.3,20.2-51.6,43.7-64.4c6.5-3.5,14.4-4.2,20.1-8.8
									c4.5-3.6,8.7-8.3,11.9-13.2c6.6-9.9,7.5-22.3-4.6-28c-12.7-5.9-24.4,2.9-35.6,7.6c-17.9,7.4-33.5,15.6-46.8,30.7
									C-6.2,393.5-8.4,441.5-1.3,486c2.1,13.2,4.5,27.1,8.5,39.9c1.7,5.3,4,11.2,8.4,14.7c5.6,4.5,12.8,2,18.9-0.1
									c7-2.4,8.9-7.1,8.3-14.6c-0.4-5-7.9-5-7.5,0c0.6,7.9-11.3,12.1-16.5,7c-3.1-3-4.3-8.6-5.3-12.8
									c-5.6-21.8-9.8-44.3-10.6-66.9c-1.5-40.2,10.3-80,43.2-104c10.7-7.8,23-10.8,34.3-17.1c5.2-2.9,11.1-5.7,17.1-5.8
									c10.9-0.2,13.8,8,8.7,16.5c-2.6,4.4-6.3,8.2-10,11.6c-4.1,3.8-8.6,3.8-13.8,6c-15.3,6.6-28.6,18.3-39.1,31.4
									c-13.9,17.5-15.5,36.4-14.6,58.3c1.1,25.7,3.7,51.3,7,76.8C36.1,531.9,43.3,529.8,42.7,524.9z"/>
							</g>
						</g>
					</g>
					<g>
						<g>
							<path class="st4" d="M71.9,370.1c-6.6-8-11.4-17.6-13.9-27.8"/>
						</g>
						<g>
							<g>
								<path class="st5" d="M74.5,367.3c-6.2-7.7-10.4-16.4-12.9-26.1c-1.2-4.8-8.5-2.8-7.2,2.1c2.8,11,7.8,20.8,14.8,29.5
									C72.3,376.7,77.6,371.2,74.5,367.3L74.5,367.3z"/>
							</g>
						</g>
					</g>
					<g>
						<g>
							<path class="st5" d="M54.3,380.5c-4.3-0.3-8.4-6.4-11.1-9.4c-3.2-3.7-6.2-7.6-9-11.7c-1.6-2.3-5-2.7-6.5,0
								c-1,1.9-1.3,3.7-0.6,5.8c1.6,4.7,8.9,2.7,7.2-2.1c-0.1,0.1-0.1,0.1-0.2,0.2c-2.2,0-4.3,0-6.5,0c3.8,5.6,7.9,10.9,12.5,15.8
								c4,4.4,7.9,8.6,14,9.1C59.1,388.7,59.1,380.9,54.3,380.5L54.3,380.5z"/>
						</g>
					</g>
					<g>
						<g>
							<path class="st5" d="M37.5,399.3c-6.6-0.5-12.7-3.1-17.6-7.8c-3.4-3.3-5.9-6.2-10.8-6.6c-4.8-0.4-4.8,7.4,0,7.8
								c2.6,0.2,5,3.9,6.8,5.5c2.1,1.8,4.3,3.4,6.7,4.7c4.7,2.5,9.6,3.7,14.8,4.1C42.4,407.4,42.3,399.6,37.5,399.3L37.5,399.3z"/>
						</g>
					</g>
					<g>
						<g>
							<path class="st5" d="M28.7,439.2c0.9,0.2,1.9,0.3,2.8,0.5c0.3-2.6,0.7-5.1,1-7.7c-9.7,0.2-18.8-2.2-27.2-7.3
								c-4.2-2.5-8,4.2-3.8,6.7c9.5,5.7,20,8.6,31,8.4c4.1-0.1,5.3-6.9,1-7.7c-0.9-0.2-1.9-0.3-2.8-0.5
								C25.9,430.9,23.9,438.4,28.7,439.2L28.7,439.2z"/>
						</g>
					</g>
					<g>
						<g>
							<path class="st5" d="M28,462.4c-8,1.5-16.1,1.6-24.1,0.4c-4.7-0.7-6.8,6.8-2,7.5c9.5,1.5,18.7,1.4,28.1-0.4
								C34.8,469,32.8,461.5,28,462.4L28,462.4z"/>
						</g>
					</g>
					<g>
						<g>
							<path class="st5" d="M32.8,490.2c-8.2,1-16.4,1.1-24.7,0.5c-4.8-0.4-4.8,7.4,0,7.8c8.3,0.7,16.5,0.5,24.7-0.5
								C37.5,497.4,37.6,489.6,32.8,490.2L32.8,490.2z"/>
						</g>
					</g>
					<g>
						<g>
							<path class="st5" d="M33.5,512.8c-3.4,0.7-6.7,1.2-10.1,1.3c-1.4,0.1-7.6,0.9-8.6-0.1c0.3,1.3,0.6,2.5,1,3.8
								c0.1-0.2,0.1-0.5,0.2-0.7c1.4-4.8-5.9-6.9-7.2-2.1c-0.1,0.2-0.1,0.5-0.2,0.7c-0.4,1.3,0,2.8,1,3.8c2.9,3.1,7.7,2.5,11.5,2.5
								c4.9-0.1,9.8-0.7,14.6-1.7C40.3,519.3,38.3,511.8,33.5,512.8L33.5,512.8z"/>
						</g>
					</g>
				</g>
				<g>
					<g>
						<path class="st4" d="M85,329.5c4.5,6.4,8.5,20.3,8,28.2"/>
					</g>
					<g>
						<g>
							<path class="st5" d="M81.7,331.5c4.9,7.3,7.8,17.3,7.5,26.2c-0.2,5,7.4,5,7.5,0c0.3-10.1-3-21.8-8.5-30.1
								C85.5,323.5,79,327.4,81.7,331.5L81.7,331.5z"/>
						</g>
					</g>
				</g>
			</g>
			<g>
				<g>
					<g>
						<path class="st2" d="M222.7,274.9c4.6,1.3,5.7,5.5,5.6,7.3c-0.1,1.6-0.2,3.4-1.2,4.8c-1.3,1.8-3.7,2.8-6.2,3.5
							c-8.2,2.3-17.5,2.1-25.4-0.7c-1-0.4-2.1-0.8-2.7-1.5c-0.6-0.7-0.7-1.5-0.8-2.4c-0.4-3-0.3-6.7,2.9-8.3
							C194.9,277.5,201.2,268.8,222.7,274.9z"/>
					</g>
					<g>
						<g>
							<path class="st2" d="M222,277.4c7.1,2.9,2.2,9.5-3,10.8c-4,1-8.1,1.3-12.2,1.1c-5.5-0.3-17.2-2.3-9.9-10.2
								C202.8,272.7,215.1,275.6,222,277.4c3.1,0.8,4.5-4.2,1.3-5c-8.7-2.3-19.9-4.3-27.9,1.2c-4.8,3.3-9,10.5-4.6,16.1
								c3.2,4.1,11.4,4.5,16,4.7c6.1,0.3,14.3-0.1,19.6-3.6c7.8-5.2,4.3-15.5-3.1-18.5C220.3,271.2,219,276.2,222,277.4z"/>
						</g>
					</g>
				</g>
				<g>
					<g>
						<path class="st2" d="M193.9,291.9c-0.9,2.6-1.5,5.3-0.4,7.8c1.3,2.7,4.5,4.6,8,5.5c3.5,0.9,7.2,0.9,10.9,0.9
							c6.3-0.1,13.8-0.9,16.4-5.4c2.1-3.6-0.1-7.7-2.4-11.3"/>
					</g>
					<g>
						<g>
							<path class="st2" d="M191.5,291.2c-4.7,15.4,11.7,17.9,22.8,17.4c5.1-0.2,11.6-0.8,15.3-4.9c4.4-4.8,1.8-10.8-1.1-15.6
								c-1.7-2.8-6.1-0.2-4.3,2.6c6.6,10.8-3.1,12.5-10.9,12.7c-6.5,0.2-20.4,0.3-17-10.9C197.3,289.4,192.4,288.1,191.5,291.2
								L191.5,291.2z"/>
						</g>
					</g>
				</g>
				<g>
					<g>
						<path class="st3" d="M190.6,282.8c-2.5,13.9,22.7,10.1,29.2,8.3c3.1-0.8,1.8-5.9-1.3-5c-2.2,0.6-24.2,4.3-23.1-1.9
							C196,280.9,191.1,279.5,190.6,282.8L190.6,282.8z"/>
					</g>
				</g>
				<g>
					<g>
						<path class="st3" d="M193.1,299.1c4.7,10.4,22.8,8.7,30.9,4.6c2.9-1.4,0.4-5.9-2.5-4.5c-5.6,2.8-20.7,4.7-24-2.8
							C196,293.5,191.7,296.1,193.1,299.1L193.1,299.1z"/>
					</g>
				</g>
			</g>
		</g>
	</g>
	<g>
		<path class="st9" d="M353.2,194.1c0,87.3-70.8,158.1-158.1,158.1C107.8,352.2,37,281.4,37,194.1C37,106.8,107.8,36,195.1,36
			C282.4,36,353.2,106.8,353.2,194.1"/>
	</g>
</g>
<g>
	<g>
		<path class="st10" d="M361.3,276.2c12.4-24.9,19.4-52.9,19.4-82.6c0-102.4-83.1-185.5-185.5-185.5S9.6,91.2,9.6,193.6
			c0,102.4,83.1,185.5,185.5,185.5c37.9,0,73.1-11.4,102.5-30.9c6.6,24.4,29,42.4,55.5,42.4c31.8,0,57.5-25.7,57.5-57.5
			C410.6,304.1,389.2,280.1,361.3,276.2z M195.1,354.6c-88.9,0-161-72.1-161-161c0-88.9,72.1-161,161-161s161,72.1,161,161
			C356.1,282.5,284,354.6,195.1,354.6z M353.1,373.6c-22.4,0-40.5-18.1-40.5-40.5c0-22.4,18.1-40.5,40.5-40.5s40.5,18.1,40.5,40.5
			C393.6,355.5,375.5,373.6,353.1,373.6z"/>
	</g>
</g>
<g class="st11">
	<path class="st12" d="M214.1,336.6c-88.9,0-161-72.1-161-161c0-41.3,15.6-79,41.2-107.5c-36.7,29.5-60.2,74.8-60.2,125.5
		c0,88.9,72.1,161,161,161c47.6,0,90.4-20.7,119.8-53.5C287.4,323.3,252.3,336.6,214.1,336.6z"/>
</g>
<g class="st13">
	<path class="st4" d="M182.1,50.6c88.9,0,161,72.1,161,161c0,31.2-8.9,60.3-24.2,85c23.2-27.9,37.2-63.8,37.2-103
		c0-88.9-72.1-161-161-161c-57.7,0-108.4,30.4-136.8,76C87.9,73.2,132.4,50.6,182.1,50.6z"/>
</g>
<g>
	<circle class="st4" cx="353.1" cy="333.1" r="40.5"/>
	<g>
		<path class="st12" d="M391.1,333.1c-0.1,15.7-10,30.3-24.9,35.7c-15.1,5.5-32.2,0.8-42.5-11.6c-10.2-12.2-11.3-30.2-3.1-43.7
			c8.2-13.6,24.5-20.8,40.1-17.6c15.4,3.2,27.4,15.8,30,31.3C391,329.2,391.1,331.1,391.1,333.1c0,3.2,5,3.2,5,0
			c-0.1-18-11.4-34.2-28.3-40.4c-16.8-6.2-36.4-0.9-47.8,12.9c-11.5,14-13.2,34.1-3.8,49.7c9.3,15.5,27.7,23.5,45.4,20
			c17.2-3.4,31.2-17.9,33.9-35.2c0.4-2.3,0.6-4.6,0.6-6.9C396.1,329.9,391.1,329.9,391.1,333.1z"/>
	</g>
</g>
<g>
	<path class="st14" d="M188.1,20.1c102.4,0,181.5,75.1,181.5,177.5c0,36.9-2.5,44.5-8.5,78.5c13-35,19.5-37.1,19.5-82.5
		c0-102.4-83.1-185.5-185.5-185.5C129.6,8.1,72,42.1,39,93.5C73,52.9,131,20.1,188.1,20.1z"/>
</g>
<g>
	<path class="st15" d="M200.1,366.1c-102.4,0-184.5-83.1-184.5-185.5c0-34,10.1-65.8,27.4-93.2C22,117.5,9.6,154.1,9.6,193.6
		c0,102.4,83.1,185.5,185.5,185.5c34.1,0,66.1-9.2,93.6-25.3C264.4,361.9,227.7,366.1,200.1,366.1z"/>
</g>
<g class="st11">
	<path class="st12" d="M359.1,364.6c-22.4,0-40.5-18.1-40.5-40.5c0-6.4,1.5-12.4,4.1-17.7c-6.3,7.1-10.1,16.5-10.1,26.7
		c0,22.4,18.1,40.5,40.5,40.5c16,0,29.9-9.3,36.4-22.8C382.1,359.3,371.3,364.6,359.1,364.6z"/>
</g>
<g>
	<g>
		<path class="st16" d="M341.3,345.5c0.1,0.3,0.1,0.7,0.2,1c0.1,0.7,0.1,1.3,0.7,1.7c0.6,0.4,1.2,0.2,1.8,0c0.5-0.2,1-0.3,1.5-0.2
			l20.1-30.1l-4.1-2.7L341.3,345.5z"/>
	</g>
	<polygon class="st17" points="360.4,309.4 362.9,305.6 360.4,309.4 360.4,309.4 	"/>
	<path class="st18" d="M366.6,307.6l-2.7,4l4.1,2.7l2-3c1.2-1.7,3.1-3.6,1.4-4.8l1.3,0.8l-1.6-1
		C369.2,305.3,367.7,305.9,366.6,307.6z"/>
	<path class="st17" d="M368.2,304.6c-1.7-1.2-4.1-0.7-5.2,1C364.1,303.9,366.4,303.4,368.2,304.6z"/>
	<polygon class="st19" points="360.4,309.4 360.4,309.4 360.4,309.4 360.4,309.4 360.4,309.4 	"/>
	<polygon class="st19" points="360.4,309.4 358.8,311.8 360.4,309.4 	"/>
	<polygon class="st19" points="368.8,319.9 370,318 368.8,319.9 	"/>
	<path class="st20" d="M340.3,347.3l-0.8-0.1l-4.9,10.6l8.9-6.8l0.3-0.3l1.6-2.5c-0.4-0.1-0.9,0.1-1.3,0.2c-0.7,0.2-1.3,0.4-2,0
		c-0.7-0.4-0.7-1.1-0.8-1.8c0-0.3-0.1-0.6-0.1-0.9l-0.6,0.8C340.4,346.7,340.3,347,340.3,347.3z"/>
	<path class="st19" d="M344,348.2c-0.6,0.2-1.2,0.4-1.8,0c-0.6-0.4-0.7-1-0.7-1.7c0-0.4-0.1-0.7-0.2-1l-0.1,0.1
		c0.3,0.9,0,2.1,0.9,2.7c1.1,0.7,2.2-0.4,3.3-0.2l0.1-0.1C345,347.9,344.5,348.1,344,348.2z"/>
	<path class="st19" d="M342.1,348.3c-1-0.6-0.6-1.8-0.9-2.7l-0.1,0.1c0.1,0.3,0.1,0.6,0.1,0.9C341.3,347.2,341.4,347.9,342.1,348.3
		c0.6,0.5,1.3,0.3,1.9,0.1c0.4-0.1,0.9-0.3,1.3-0.2l0.1-0.1C344.3,347.9,343.2,349,342.1,348.3z"/>
	<polygon class="st19" points="371,306.5 368.2,304.6 371,306.5 	"/>
	<path class="st21" d="M338.4,344.8c0.7-0.3,1.3-0.7,2.1-0.3c0.4,0.2,0.6,0.6,0.8,0.9l20.2-30.3l-3.4-2.3l-21.3,32l-0.1,0.3l0,0
		C337.3,345.4,337.8,345.1,338.4,344.8z"/>
	<path class="st22" d="M363.9,311.7l2.7-4c1.2-1.7,2.7-2.3,4.4-1.2l-2.8-1.9c-1.7-1.2-4.1-0.7-5.2,1l-2.5,3.8L363.9,311.7z"/>
	
		<rect x="359.1" y="310.3" transform="matrix(0.5552 -0.8317 0.8317 0.5552 -99.1622 439.1631)" class="st23" width="3.9" height="4"/>
	<path class="st19" d="M340.5,344.7c0.4,0.2,0.6,0.6,0.7,0.9l0.1-0.1C341.2,345.1,340.9,344.8,340.5,344.7c-0.8-0.5-1.5-0.2-2.1,0.2
		c-0.6,0.3-1.1,0.6-1.7,0.3l0,0l0,0.1C338,345.8,339,343.9,340.5,344.7z"/>
	<polygon class="st4" points="371.1,316.5 371.1,316.5 373.6,312.7 	"/>
	<path class="st24" d="M365.6,317.9L345.5,348c0.2,0,0.5,0.1,0.7,0.3c0.7,0.6,0.7,1.4,0.6,2.1c-0.1,0.6-0.1,1.2,0.3,1.7l0,0l0.3-0.2
		l21.3-32l0,0L365.6,317.9z"/>
	<path class="st25" d="M369.9,311.4l-2,3l3.1,2.1l2.5-3.8c1.2-1.7,0.7-4.1-1-5.2l-1.3-0.8C373,307.8,371.1,309.7,369.9,311.4z"/>
	
		<rect x="366.4" y="315.3" transform="matrix(0.5553 -0.8317 0.8317 0.5553 -99.9711 447.3637)" class="st26" width="3.9" height="3.6"/>
	<path class="st27" d="M343.4,350.9l-8.9,6.8l-2,4.2c0.1,0.1,0.2,0.2,0.3,0.3c0.3,0.2,0.7,0.3,1.1,0l13-10c-0.4-0.5-0.4-1.2-0.3-1.8
		c0.1-0.7,0.1-1.4-0.5-1.9c-0.2-0.2-0.5-0.3-0.7-0.3l-1.6,2.5L343.4,350.9z"/>
	<path class="st4" d="M346.8,350.4c0.1-0.7,0.1-1.5-0.6-2.1c-0.2-0.2-0.5-0.3-0.7-0.3l-0.1,0.1c0.2,0,0.5,0.1,0.7,0.3
		c1.3,1.1-0.1,2.7,0.9,3.8l0.1-0.1l0,0C346.7,351.7,346.7,351.1,346.8,350.4z"/>
	<path class="st28" d="M340.4,344.7c-0.7-0.4-1.3-0.1-2,0.3c-0.5,0.3-1.1,0.6-1.8,0.4l-4.3,15.8c0,0.1,0,0.3,0,0.4
		c0,0.1,0.1,0.3,0.2,0.4l2-4.2l4.2-7.6l1.6-2.8c0.1-0.3,0.2-0.5,0.4-0.8l0.6-0.8C341.1,345.3,340.9,345,340.4,344.7z"/>
	
		<rect x="362.8" y="312.3" transform="matrix(0.5553 -0.8317 0.8317 0.5553 -99.5781 443.3452)" class="st29" width="3.9" height="4.9"/>
	<g>
		<g>
			<path class="st12" d="M373.3,306.2c-1.5-1-2.9-2-4.4-2.9c-1.7-1.1-3.8-1.1-5.5-0.1c-1.1,0.7-1.7,1.7-2.4,2.7
				c-0.6,0.9-1.2,1.8-1.8,2.7c-0.5,0.7-0.1,1.6,0.5,2.1c2.6,1.8,5.3,3.5,7.9,5.3c0.9,0.6,1.8,1.2,2.7,1.8c0.7,0.5,1.6,0.1,2.1-0.5
				c0.8-1.2,1.6-2.4,2.4-3.6C376.4,311.1,375.7,307.9,373.3,306.2c-0.7-0.5-1.7-0.1-2.1,0.5c-0.4,0.7-0.1,1.6,0.5,2.1
				c0.3,0.2,0.6,0.6,0.8,1c0.1,0.2,0.2,0.8,0.1,1c-0.1,0.6-0.4,1.1-0.8,1.6c-0.7,1.1-1.4,2.2-2.2,3.2c0.7-0.2,1.4-0.4,2.1-0.5
				c-2.7-1.8-5.3-3.6-8-5.3c-0.9-0.6-1.8-1.2-2.6-1.8c0.2,0.7,0.4,1.4,0.5,2.1c0.5-0.7,0.9-1.4,1.4-2c0.4-0.6,0.9-1.5,1.4-2
				c0.8-0.8,1.9-0.9,3-0.2c0.8,0.5,1.6,1.1,2.4,1.6c0.6,0.4,1.3,0.9,1.9,1.3c0.7,0.4,1.7,0.1,2.1-0.5
				C374.3,307.5,374,306.7,373.3,306.2z"/>
		</g>
	</g>
	<g>
		<g>
			<path class="st12" d="M368.7,313.2c-2.5-1.7-5-3.4-7.5-5c-0.7-0.5-1.6-0.1-2.1,0.5c-1,1.5-2.1,3-3.1,4.5
				c-0.5,0.7-0.1,1.6,0.5,2.1c2.7,1.8,5.3,3.6,8,5.3c0.9,0.6,1.7,1.2,2.6,1.7c0.7,0.5,1.6,0.1,2.1-0.5c1-1.5,2.1-3,3.1-4.5
				c0.5-0.7,0.1-1.6-0.5-2.1C370.7,314.6,369.7,313.9,368.7,313.2c-1.6-1.1-3.1,1.5-1.5,2.6c1,0.7,2.1,1.4,3.1,2.1
				c-0.2-0.7-0.4-1.4-0.5-2.1c-1,1.5-2.1,3-3.1,4.5c0.7-0.2,1.4-0.4,2.1-0.5c-2.7-1.8-5.3-3.6-8-5.3c-0.9-0.6-1.7-1.2-2.6-1.8
				c0.2,0.7,0.4,1.4,0.5,2.1c1-1.5,2.1-3,3.1-4.5c-0.7,0.2-1.4,0.4-2.1,0.5c2.5,1.7,5,3.4,7.5,5
				C368.8,316.9,370.3,314.3,368.7,313.2z"/>
		</g>
	</g>
	<g>
		<g>
			<path class="st12" d="M365.5,317.9c-2.5-1.7-5-3.3-7.5-5c-0.7-0.5-1.6-0.1-2.1,0.5c-6.1,9.1-12.1,18.2-18.2,27.3
				c-0.8,1.2-2.1,2.6-2.5,4.1c-0.2,0.8,0.3,1.6,1,1.8c0.6,0.2,1.3,0.1,1.8,0c0.4-0.1,1.5-0.9,1.8-0.6c0.3,0.3,0.1,1.3,0.3,1.7
				c0.2,0.7,0.6,1.3,1.1,1.7c0.6,0.4,1.3,0.6,2,0.5c0.4,0,1.7-0.7,2-0.3c0.2,0.2-0.1,1.6,0,1.9c0.1,0.6,0.3,1.2,0.8,1.7
				c0.4,0.4,1.3,0.6,1.8,0.2c1.1-0.8,1.8-2.2,2.5-3.3c1.6-2.4,3.2-4.9,4.9-7.3c3.7-5.6,7.5-11.2,11.2-16.9c0.9-1.3,1.8-2.6,2.6-4
				c0.5-0.7,0.1-1.6-0.5-2.1C367.5,319.3,366.5,318.6,365.5,317.9c-1.6-1.1-3.1,1.5-1.5,2.6c1,0.7,2.1,1.4,3.1,2.1
				c-0.2-0.7-0.4-1.4-0.5-2.1c-6,9-12,18.1-18.1,27.1c-0.6,0.9-1.2,1.7-1.7,2.6c-0.2,0.2-0.3,0.5-0.5,0.7c-0.4,0.7,0.7-0.5,0.1-0.1
				c0.6,0.1,1.2,0.2,1.8,0.2c0.1,0.2,0.1-0.6,0.1-0.8c0-0.3,0-0.6,0-1c-0.1-0.8-0.4-1.5-1-2c-0.6-0.5-1.3-0.8-2.1-0.8
				c-0.4,0-1.9,0.5-2.1,0.4c-0.1-0.1-0.1-0.7-0.1-0.9c-0.1-0.4-0.1-0.8-0.3-1.2c-0.3-0.6-0.7-1.1-1.3-1.5c-0.7-0.4-1.5-0.5-2.3-0.3
				c-0.4,0.1-1.6,0.9-1.9,0.8c0.3,0.6,0.7,1.2,1,1.8c0.2-0.6-0.2,0.3,0-0.1c0.1-0.2,0.2-0.4,0.4-0.6c0.5-0.7,1-1.5,1.4-2.2
				c1.6-2.4,3.2-4.8,4.8-7.3c3.7-5.6,7.4-11.1,11.1-16.7c0.8-1.3,1.7-2.5,2.5-3.8c-0.7,0.2-1.4,0.4-2.1,0.5c2.5,1.7,5,3.3,7.5,5
				C365.6,321.6,367.1,319,365.5,317.9z"/>
		</g>
	</g>
	<g>
		<g>
			<path class="st12" d="M348.1,350.4c0.1-1.6-0.5-3.1-2.1-3.6c-0.7-0.2-1.4-0.1-2.1,0.1c-0.4,0.1-0.9,0.4-1.1,0.2
				c-0.1-0.2-0.1-0.6-0.1-0.8c0-0.4-0.1-0.8-0.2-1.2c-0.2-0.7-0.7-1.3-1.3-1.6c-0.7-0.4-1.6-0.5-2.4-0.2c-0.4,0.1-1.3,0.8-1.7,0.7
				c-0.8-0.2-1.6,0.2-1.8,1c-1.3,4.9-2.6,9.8-3.9,14.7c-0.3,0.9-0.6,1.9-0.1,2.9c0.8,1.6,2.6,1.6,3.9,0.6c2.2-1.7,4.4-3.4,6.6-5.1
				c2-1.5,4-3,5.9-4.6c0.6-0.5,1-1.3,0.5-2.1C348,351.1,348.1,350.8,348.1,350.4c0.2-1.9-2.8-1.9-3,0c-0.1,0.9,0,1.8,0.5,2.5
				c0.2-0.7,0.4-1.4,0.5-2.1c-3.8,2.9-7.6,5.9-11.5,8.8c-0.3,0.3-0.7,0.5-1,0.8c-0.1,0.1-0.5,0.3-0.5,0.4c0.1-0.4,1,0.5,0.7,0.7
				c0,0,0-0.2,0.1-0.2c0.1-0.3,0.2-0.6,0.2-0.9c0.7-2.7,1.5-5.4,2.2-8.1c0.6-2.2,1.2-4.4,1.8-6.6c-0.6,0.3-1.2,0.7-1.8,1
				c0.7,0.1,1.4,0.1,2.1-0.2c0.4-0.1,1-0.7,1.4-0.6c-0.3,0,0,0.6,0,0.8c0.1,0.6,0.2,1.2,0.5,1.7c0.7,1.2,2.1,1.7,3.4,1.4
				c0.3-0.1,1.1-0.5,1.4-0.4c0,0-0.1-0.1,0,0c0.1,0.1,0,0.6,0,0.7C344.9,352.3,347.9,352.3,348.1,350.4z"/>
		</g>
	</g>
	<g>
		<g>
			<path class="st12" d="M332.5,361.2c0,0.1,0,0.3,0,0.4c0,0.1,0.1,0.3,0.2,0.4c0.1,0.1,0.2,0.2,0.3,0.3c0.3,0.2,0.7,0.3,1.1,0
				l6.3-4.8c-1.7-1.5-3.7-2.7-5.8-3.3L332.5,361.2z"/>
		</g>
	</g>
</g>
<g>
	<path class="st15" d="M296.7,346.2c6.6,24.4,29,42.4,55.5,42.4c16,0,30.4-6.5,40.8-17c-9.5,6.9-21.2,11-33.8,11
		c-26.5,0-48.8-18-55.5-42.4L296.7,346.2z"/>
</g>
<g>
	<g>
		<path class="st14" d="M344.9,280.7"/>
	</g>
	<g>
		<path class="st14" d="M346.7,280.6c20.9-0.7,41,11,50.1,31.3c9.5,21.1,4,45-11.8,60.1c21.2-13,29.9-40,19.4-63.3
			C394.4,286.3,369.8,274.9,346.7,280.6z"/>
	</g>
</g>
<g>
	<g>
		<path class="st12" d="M363.4,277.5c18.4-37.1,24.1-79.8,16.1-120.4c-6.5-32.9-22-63.7-44.3-88.7c-22.2-24.8-50.9-43.5-82.6-53.7
			c-33.2-10.7-69.3-11.8-103.2-3.4c-32.4,8.1-62.4,25-86.2,48.4c-23.8,23.4-41.2,53.1-49.8,85.3c-9,33.5-8.5,69.5,1.5,102.7
			c9.6,32.1,27.9,61.4,52.5,84.1c24.6,22.7,55.1,38.7,87.8,45.7c39.1,8.4,80.4,4.1,116.9-12.3c9.3-4.2,18.2-9.1,26.7-14.7
			c-1.2-0.5-2.4-1-3.7-1.5c4.6,16.4,16.1,30.6,31.4,38.1c15.6,7.6,34.1,8.1,50.1,1.3c15-6.4,26.8-18.9,32.5-34.1
			c6.1-16,4.8-34.3-3.3-49.4c-8.9-16.6-25.5-28.3-44.1-31c-1.3-0.2-2.7,0.3-3.1,1.7c-0.3,1.2,0.4,2.9,1.7,3.1
			c15.3,2.2,29.3,10.7,38.1,23.6c8.7,13,11.7,29.3,7.8,44.4c-3.7,14.6-13.5,27.2-26.7,34.6c-13.8,7.7-30.7,8.9-45.5,3.5
			c-16.6-6-29.4-20.2-34.2-37.2c-0.4-1.5-2.3-2.4-3.7-1.5c-34.1,22.6-75.1,33.2-115.9,30c-32.9-2.6-64.8-14.3-91.6-33.4
			c-26.3-18.7-47.4-44.5-60.7-73.9C14.3,238,9.4,203.6,13.6,170.2c4.1-32.5,17.2-63.8,37.5-89.5c20-25.4,46.6-45.5,76.7-57.3
			c31.4-12.4,66.1-15.9,99.4-10c32.2,5.7,62.6,20.1,87.4,41.5c24.5,21.2,43.3,48.7,53.8,79.4c12.2,35.8,13,75.2,2.2,111.6
			c-3,10-6.8,19.7-11.4,29.1C357.7,277.8,362,280.3,363.4,277.5z"/>
	</g>
</g>
<g>
	<g>
		<path class="st12" d="M353.6,193.6c0,16.7-2.6,33.3-7.8,49.1c-4.9,15.2-12.2,29.6-21.5,42.7c-9.1,12.9-20.3,24.5-32.8,34.1
			c-12.7,9.7-26.8,17.5-41.8,23c-15.6,5.7-32,8.9-48.5,9.5c-16.7,0.6-33.4-1.3-49.4-5.9c-15.5-4.4-30.3-11.2-43.8-20
			c-13.2-8.7-25.1-19.4-35.2-31.6c-10.1-12.2-18.5-26.1-24.5-40.8c-6.2-15.2-10-31.3-11.3-47.6c-1.3-16.8,0-33.7,4-50
			c3.8-15.6,10-30.6,18.4-44.4C67.8,97.9,78.1,85.6,90,75c11.9-10.6,25.4-19.3,39.8-25.9c14.8-6.7,30.8-11.2,46.9-13
			c16.7-1.9,33.6-1.2,50.1,2.1c15.9,3.2,31.3,8.9,45.4,16.8c13.9,7.7,26.5,17.5,37.5,29c11,11.5,20.3,24.7,27.4,39
			c7.2,14.5,12.2,30.2,14.7,46.2C353,177.3,353.6,185.5,353.6,193.6c0,3.2,5,3.2,5,0c0-17.1-2.7-34.2-7.9-50.4
			c-5.1-15.7-12.6-30.6-22.1-44c-9.6-13.4-21.1-25.4-34.2-35.4c-13.1-10-27.6-18-43.1-23.7c-15.9-5.9-32.8-9.1-49.8-9.8
			c-17.2-0.7-34.5,1.4-51,6c-15.9,4.5-31.1,11.5-45,20.6c-13.7,9-26.1,20.1-36.5,32.7c-10.5,12.8-19,27-25.3,42.3
			c-6.4,15.6-10.3,32.3-11.6,49.1c-1.3,17.2,0.1,34.6,4.1,51.4c3.9,16.1,10.3,31.6,18.9,45.8c8.5,14,19.1,26.8,31.4,37.7
			c12.3,10.9,26.1,19.9,41.1,26.7c15.4,7,31.8,11.5,48.6,13.4c17.2,2,34.7,1.2,51.6-2.2c16.3-3.3,32.1-9.2,46.7-17.3
			c14.3-8,27.5-18.2,38.8-30c11.3-11.8,20.8-25.4,28.1-40c7.5-15,12.6-31.1,15.1-47.6c1.3-8.3,1.9-16.8,1.9-25.2
			C358.6,190.4,353.6,190.4,353.6,193.6z"/>
	</g>
</g>
</svg>
