<?xml version="1.0" encoding="utf-8"?>
<!-- Generator: Adobe Illustrator 24.2.0, SVG Export Plug-In . SVG Version: 6.00 Build 0)  -->
<svg version="1.1" id="Layer_1" xmlns="http://www.w3.org/2000/svg" xmlns:xlink="http://www.w3.org/1999/xlink" x="0px" y="0px"
	 viewBox="0 0 418 400" style="enable-background:new 0 0 418 400;" xml:space="preserve">
<style type="text/css">
	.st0{fill:#C2E1E3;}
	.st1{clip-path:url(#SVGID_2_);}
	.st2{fill:#7EC7CD;}
	.st3{fill:#183E42;}
	.st4{fill:#E4252E;}
	.st5{fill:#FFFFFF;}
	.st6{fill:#183E41;}
	.st7{fill:#FAC706;}
	.st8{fill:#7DC4CA;}
	.st9{opacity:0.32;}
	.st10{fill:#1D1D1B;}
	.st11{opacity:0.42;}
	.st12{fill:#D2E8EB;}
	.st13{fill:#42797D;}
	.st14{fill:#F7C402;}
	.st15{fill:#F72872;}
	.st16{fill:#E66869;}
	.st17{fill:#390075;}
	.st18{fill:#FFDA83;}
	.st19{fill:#AA8B12;}
	.st20{fill:#993637;}
	.st21{fill:#729496;}
	.st22{fill:#FDEAAB;}
	.st23{fill:#F5C3C3;}
	.st24{fill:#E7F3F4;}
	.st25{fill:#FFF0D1;}
	.st26{fill:#BFA362;}
</style>
<g>
	<circle class="st0" cx="195.3" cy="194" r="159"/>
</g>
<g>
	<defs>
		<circle id="SVGID_1_" cx="195.4" cy="194.3" r="158.7"/>
	</defs>
	<clipPath id="SVGID_2_">
		<use xlink:href="#SVGID_1_"  style="overflow:visible;"/>
	</clipPath>
	<g class="st1">
		<g>
			<g>
				<g>
					<path class="st2" d="M69.3,275.1c-10-5.5-22.5-5.3-34.1-4.2c-14.2,1.4-28.3,3.8-42,7.3c-14.8,3.8-29.3,8.8-44.4,11.5
						c-15.1,2.8-31.1,3.2-45.5-1.9c-16.7-6-29.6-19.2-38-33.9c-8.5-14.7-13.1-31.1-17.6-47.2c-5.7-2.1-12.3,2.5-14,8
						c-1.7,5.5,0,11.4,1.7,16.9c5.6,17.7,11.8,35.3,22.2,51c10.3,15.7,25,24.8,43.5,31.4c27.2,9.7,57.7,0.4,85.2-8.3
						c27.5-8.8,55.6-12.5,84.6-10.1c2.3,0.2,4.7,3.4,2.4,3.5"/>
				</g>
				<g>
					<g>
						<path class="st3" d="M70.9,272.4c-8.4-4.4-17.8-5.5-27.1-5.2c-10.2,0.4-20.5,1.8-30.6,3.6c-21.6,3.8-42.1,11.5-63.5,15.7
							c-19.8,3.9-40.8,3.5-58.1-8c-15.7-10.5-25.8-27.2-32.2-44.6c-1.8-4.8-3.4-9.8-4.9-14.7c-0.7-2.4-1.4-4.8-2.1-7.2
							c-0.6-2.1-0.9-5.4-2.3-7.1c-2.3-2.8-7.8-1.8-10.7-0.6c-3.5,1.5-6.5,4.3-8.1,7.8c-4.2,8.9,0.5,19.5,3.4,28.1
							c3.2,9.6,6.7,19.1,11.1,28.3c7.8,16.2,18.1,30.1,33.8,39.4c16.5,9.8,35,14.7,54.1,13.3c20.8-1.5,40.3-8.7,60.2-14.4
							c20.5-5.9,41.7-8.9,63-8.6c2.6,0,5.2,0.1,7.8,0.3c1.4,0.1,2.8,0.2,4.2,0.3c0.5,0,1.1,0.2,1.6,0.1c0.1,0.1,0.2,0.1,0.3,0.2
							c1,0.9,1.6-0.1,1.6-2.9c-4,1-2.3,7.1,1.7,6.1c4-1,3.8-5.4,1.2-7.8c-3.4-3.2-9.8-2.4-14.1-2.6c-11.7-0.4-23.4,0.1-35,1.7
							c-11.3,1.5-22.4,3.8-33.4,6.9c-10.9,3.1-21.6,6.9-32.5,9.7c-11.1,2.8-22.4,4.9-33.9,4.9c-10.9,0-21.1-2.4-31.1-6.5
							c-8.4-3.5-16.5-8-23.4-14c-7.4-6.5-12.9-14.6-17.6-23.2c-6-11.1-10.4-23-14.3-35c-1.8-5.7-4.6-12-4-18.1
							c0.6-5.1,5.3-10,10.6-8.3c-0.7-0.7-1.5-1.5-2.2-2.2c8.9,31.7,20.8,67.2,53.4,81.6c35.7,15.7,73.9-3.6,109.2-10.8
							c10.7-2.2,21.5-3.8,32.4-4.6c9.6-0.7,19.6-0.5,28.2,4.1C71.3,279.8,74.5,274.3,70.9,272.4L70.9,272.4z"/>
					</g>
				</g>
			</g>
			<g>
				<g>
					<path class="st3" d="M43.1,292.1c2.2-7.5,2.5-15.2,1-22.8c-0.8-4-6.9-2.3-6.1,1.7c1.3,6.5,0.9,13.1-1,19.4
						C35.8,294.4,41.9,296.1,43.1,292.1L43.1,292.1z"/>
				</g>
			</g>
			<g>
				<g>
					<path class="st3" d="M11,298.3c-1-5.3-2-10.5-2.9-15.8c-0.7-3.6-2.5-7.7-6.9-6.6c-4,1-2.3,7.1,1.7,6.1c-0.5-0.1-1-0.2-1.4-0.3
						c0.1,0.2,0.1,0.5,0.2,0.7c-0.1,0.6,0.3,1.7,0.4,2.3c0.3,1.8,0.7,3.5,1,5.3c0.6,3.3,1.2,6.6,1.9,10C5.6,304,11.8,302.3,11,298.3
						L11,298.3z"/>
				</g>
			</g>
			<g>
				<g>
					<path class="st3" d="M-25.5,312.3c-1.7-8.5-4.5-16.6-8.1-24.4c-1.7-3.7-7.2-0.5-5.5,3.2c3.4,7.3,5.9,15,7.5,22.9
						C-30.8,318-24.7,316.3-25.5,312.3L-25.5,312.3z"/>
				</g>
			</g>
			<g>
				<g>
					<path class="st3" d="M-64.3,294.4c-0.3-1.9-2.2-3.1-4-3c-2.9,0.2-3.6,2.9-4.3,5.3c-0.8,3-1.4,6.1-2,9.1
						c-0.3,1.5-0.5,3.1-0.7,4.6c-0.1,0.7-0.2,1.3-0.3,2c-0.1,0.4-0.1,0.8-0.2,1.2c-0.3,0.9,0.1,1.2,1.4,1c-3.7-1.8-6.9,3.7-3.2,5.5
						c5.1,2.5,7.6-2.1,8.1-6.5c0.4-3,0.9-6,1.5-8.9c0.4-1.9,0.9-6.8,1.8-7.8c-0.7,0.3-1.5,0.6-2.2,0.9c-0.2-0.1-0.5-0.1-0.7-0.2
						c-0.5-0.6-1-1.3-1.5-1.9c0,0.1,0,0.3,0.1,0.4C-69.8,300.1-63.7,298.4-64.3,294.4L-64.3,294.4z"/>
				</g>
			</g>
			<g>
				<g>
					<path class="st3" d="M-105.5,285.9c-5.4,4.2-9.6,9.5-12.4,15.7c-1.7,3.7,3.8,6.9,5.5,3.2c2.6-5.8,6.4-10.6,11.5-14.5
						C-97.8,287.9-102.3,283.4-105.5,285.9L-105.5,285.9z"/>
				</g>
			</g>
			<g>
				<g>
					<path class="st3" d="M-129.8,264.6c-5.6,1-10.7,3.9-14.5,8.2c-2.7,3.1,1.8,7.6,4.5,4.5c3.1-3.5,7-5.7,11.7-6.6
						C-124.1,270-125.8,263.9-129.8,264.6L-129.8,264.6z"/>
				</g>
			</g>
			<g>
				<g>
					<path class="st3" d="M-147.7,235.3c-4.2,1.7-8.4,3.4-12.6,5.1c-1.6,0.7-2.7,2.1-2.2,3.9c0.4,1.5,2.3,2.9,3.9,2.2
						c4.2-1.7,8.4-3.4,12.6-5.1c1.6-0.7,2.7-2.1,2.2-3.9C-144.2,236-146.1,234.7-147.7,235.3L-147.7,235.3z"/>
				</g>
			</g>
			<g>
				<g>
					<path class="st4" d="M-148.5,187.6c9.1-4.2,15.9-13.1,17.7-23c0.4-2.4,0.5-5.3-1.3-7c-2.4-2.3-6.5-1.2-9.1,1
						c-6.4,5.5-7.2,15-7.1,23.5c0,1.1-0.3,2.5-1.4,2.4"/>
				</g>
				<g>
					<g>
						<path class="st3" d="M-146.9,190.4c6.7-3.3,12.3-8.7,15.8-15.3c2.9-5.6,6.7-15.9,0.3-20.5c-6.1-4.4-13.7,1.5-16.7,6.8
							c-1.8,3.1-2.8,6.6-3.3,10.1c-0.3,1.8-0.5,3.6-0.5,5.5c0,0.9-0.1,1.9-0.1,2.8c0,0.5,0,0.9,0,1.4c-0.2,1.2,0.1,1.2,0.9,0.3
							c-4,0.9-2.3,7,1.7,6.1c5.3-1.2,3.6-9.4,4-13.3c0.5-5,2.2-12.1,7.4-14.3c7-3,1.7,10.4,0.4,12.8c-3,5.4-7.5,9.5-13,12.1
							C-153.7,186.7-150.5,192.2-146.9,190.4L-146.9,190.4z"/>
					</g>
				</g>
			</g>
			<g>
				<g>
					<path class="st4" d="M-161.3,181.8c1.1-0.7,1.3-2.2,1.4-3.4c0.7-6.4,1.4-12.8,0.9-19.1c-0.6-6.4-2.5-12.8-6.6-17.7
						c-1.6-1.9-4.2-3.7-6.4-2.6c-0.8,0.4-1.4,1.1-1.9,1.8c-3.7,5.1-3.8,12.1-1.7,18.1c2.1,5.9,6.1,11,10.3,15.7
						c1.6,1.8,3.3,3.6,3.7,6"/>
				</g>
				<g>
					<g>
						<path class="st3" d="M-159.1,184c3.2-3,2.8-8.8,3.1-12.9c0.4-5.3,0.5-10.7-0.4-16c-1.1-6.8-5.8-20.6-14.9-19.7
							c-4.2,0.4-6.6,4.7-7.8,8.3c-1.5,4.1-1.4,8.7-0.5,13c1,4.6,3.4,9,6.1,12.8c1.4,1.9,2.9,3.8,4.4,5.6c1.6,1.9,3.6,3.7,4.3,6.2
							c1.1,3.9,7.2,2.3,6.1-1.7c-0.9-3.3-3-5.7-5.2-8.2c-2.2-2.6-4.4-5.2-6.2-8.2c-3.4-5.6-5.6-13.1-2.3-19.3
							c0.9-1.6,1.7-2.6,3.3-1.3c1.4,1.1,2.4,2.8,3.3,4.4c1.7,3,2.7,6.4,3.2,9.8c0.6,3.9,0.6,8,0.3,11.9c-0.1,1.8-0.3,3.6-0.5,5.4
							c-0.1,1.3,0.1,4.4-1,5.4C-166.5,182.4-162,186.9-159.1,184L-159.1,184z"/>
					</g>
				</g>
			</g>
			<g>
				<g>
					<path class="st4" d="M-174.2,183.3c-0.8-5.6-3.8-10.7-7.8-14.7s-9-6.9-14.1-9.2c-2.8-1.3-5.9-2.4-8.9-2.2c-3.1,0.2-6.3,2-7.1,5
						c-0.9,3,0.8,6.2,3.2,8.1c2.4,1.9,5.5,2.8,8.4,3.8c10,3.2,19.7,7.1,29.1,11.7"/>
				</g>
				<g>
					<g>
						<path class="st3" d="M-171.2,182.5c-1.5-9.4-8-16.8-15.9-21.8c-6.9-4.4-18.4-10.4-25.7-3.4c-3,2.9-3.6,7.3-1.9,11.1
							c2,4.2,6,6.4,10.2,8c10.6,3.8,21.1,7.4,31.3,12.4c3.7,1.8,6.9-3.7,3.2-5.5c-7.3-3.6-14.8-6.8-22.4-9.5
							c-3.4-1.2-20.6-4.8-16.5-11.3c3.7-5.9,15.6,1.8,19.4,4.4c6.2,4.1,10.9,10,12.1,17.4C-176.6,188.2-170.5,186.5-171.2,182.5
							L-171.2,182.5z"/>
					</g>
				</g>
			</g>
		</g>
		<g>
			<g>
				<path class="st5" d="M143.4,232.3c0.6,4.2,1.4,8.6,3.3,12s5.5,5.4,8.2,3.4c3.1-2.3,3.6-8.1,3.7-13"/>
			</g>
			<g>
				<g>
					<path class="st6" d="M140.3,233.1c1,6.7,3.2,18.7,12.4,18.5c8.1-0.2,8.9-11.1,9.1-17c0.1-4.1-6.2-4.1-6.3,0
						c-0.1,2,0.1,10.9-3.4,10.6c-2.1-0.2-3.3-3.8-3.9-5.4c-0.9-2.7-1.3-5.5-1.7-8.3C145.8,227.4,139.7,229.1,140.3,233.1
						L140.3,233.1z"/>
				</g>
			</g>
		</g>
		<g>
			<g>
				<path class="st5" d="M234.9,228.7c0.6,4.2,1.4,8.6,3.3,12s5.5,5.4,8.2,3.4c3.1-2.3,3.6-8.1,3.7-13"/>
			</g>
			<g>
				<g>
					<path class="st6" d="M231.8,229.6c1,6.7,3.2,18.7,12.4,18.5c8.1-0.2,8.9-11.1,9.1-17c0.1-4.1-6.2-4.1-6.3,0
						c-0.1,2,0.1,10.9-3.4,10.6c-2.1-0.2-3.3-3.8-3.9-5.4c-0.9-2.7-1.3-5.5-1.7-8.3C237.3,223.9,231.2,225.6,231.8,229.6
						L231.8,229.6z"/>
				</g>
			</g>
		</g>
		<g>
			<g>
				<path class="st4" d="M161.9,96.7c-0.7-5.7-1.4-11.8-0.2-17.1c1.2-5.4,5.2-8.9,7.6-5.2c2.6,4,1.3,12.2,2.9,17.8"/>
			</g>
			<g>
				<g>
					<path class="st3" d="M163.5,96.7c-0.5-3.8-1-7.7-0.8-11.6c0.1-2.1,0.8-11.4,4.5-10.3c2.6,0.8,2.3,6.6,2.4,8.7
						c0.2,3,0.3,6.1,1,9c0.5,2,3.5,1.1,3.1-0.8c-1.2-4.7-0.6-9.6-1.6-14.3c-0.6-2.8-2.2-6.5-5.6-6.1c-3.6,0.4-5.6,4.8-6.3,7.8
						c-1.4,5.7-0.6,11.8,0.1,17.6C160.5,98.7,163.7,98.7,163.5,96.7L163.5,96.7z"/>
				</g>
			</g>
		</g>
		<g>
			<g>
				<path class="st4" d="M177.2,93.1c-0.9-10.7-0.6-21.8,0.7-32.2c0.3-2.4,0.7-4.9,1.5-6.6s2.1-2.7,3-1.4c0.7,0.9,1.1,2.8,1.4,4.5
					c2,11.2,2.7,23.6,2.1,35.6"/>
			</g>
			<g>
				<g>
					<path class="st3" d="M178.7,93.1c-0.5-6.6-0.6-13.2-0.4-19.8c0.1-1.6,1.8-19.9,2.9-19.4c0.5,0.2,0.8,3.3,0.9,3.8
						c0.3,1.5,0.5,3,0.7,4.5c0.5,3.4,0.8,6.7,1.1,10.1c0.5,6.8,0.6,13.6,0.3,20.5c-0.1,2,3.1,2,3.2,0c0.4-8.8,0.2-17.6-0.8-26.4
						c-0.4-3.7-0.8-7.5-1.7-11.2c-0.4-1.9-1.4-4.9-3.9-4.7c-5.4,0.5-5.1,12.5-5.4,16.1c-0.8,8.8-0.7,17.6-0.1,26.4
						C175.7,95.1,178.9,95.1,178.7,93.1L178.7,93.1z"/>
				</g>
			</g>
		</g>
		<g>
			<g>
				<path class="st4" d="M203.3,93.4c-1.7-8.5-0.6-18.8,2.6-25.4c0.4-0.8,0.9-1.6,1.4-1.7c0.9-0.1,1.6,1.5,2.1,3.1
					c2.2,7.3,3.4,15.6,3.4,24"/>
			</g>
			<g>
				<g>
					<path class="st3" d="M204.9,93c-0.7-3.9-0.9-8-0.6-12c0.2-2.2,0.5-4.4,1.1-6.6c0.3-1.1,0.9-4.7,1.8-5.3
						c0.7-0.4,0.4-0.3,0.8,0.6c0.4,0.9,0.6,2.2,0.9,3.2c0.5,2,0.9,4.1,1.3,6.1c0.8,4.7,1.2,9.5,1.2,14.3c0,2,3.2,2,3.2,0
						c0-3.7-1.2-31.1-7.9-28.4c-1.6,0.6-2.3,2.8-2.9,4.2c-1,2.5-1.7,5.2-2.1,7.9c-0.9,5.6-0.8,11.2,0.2,16.8
						C202.2,95.9,205.2,95,204.9,93L204.9,93z"/>
				</g>
			</g>
		</g>
		<g>
			<g>
				<path class="st4" d="M229.1,93.7c-0.3-4.7-0.6-9.8,0.7-13.8s4.7-5.8,6.1-1.9c1.5,4.1-0.3,10.7,1.5,14.3"/>
			</g>
			<g>
				<g>
					<path class="st3" d="M230.7,93.7c-0.2-2.9-0.4-5.9-0.2-8.8c0.1-1.7,1.7-10.4,4.1-5.8c1,1.9,0.3,5.4,0.3,7.5
						c0,2.1,0.1,4.1,0.9,6.1c0.7,1.9,3.8,1.1,3.1-0.8c-1.5-3.9,1.6-17.5-5.3-17.7c-2.8-0.1-4.6,2.9-5.3,5.2c-1.5,4.5-1,9.6-0.7,14.3
						C227.6,95.8,230.8,95.8,230.7,93.7L230.7,93.7z"/>
				</g>
			</g>
		</g>
		<g>
			<g>
				<path class="st4" d="M190.5,93.1c-0.9-10.7-0.6-21.8,0.7-32.2c0.3-2.4,0.7-4.9,1.5-6.6s2.1-2.7,3-1.4c0.7,0.9,1.1,2.8,1.4,4.5
					c2,11.2,2.7,23.6,2.1,35.6"/>
			</g>
			<g>
				<g>
					<path class="st3" d="M192.1,93.1c-0.5-6.6-0.6-13.2-0.4-19.8c0.1-1.6,1.8-19.9,2.9-19.4c0.5,0.2,0.8,3.3,0.9,3.8
						c0.3,1.5,0.5,3,0.7,4.5c0.5,3.4,0.8,6.7,1.1,10.1c0.5,6.8,0.6,13.6,0.3,20.5c-0.1,2,3.1,2,3.2,0c0.4-8.8,0.2-17.6-0.8-26.4
						c-0.4-3.7-0.8-7.5-1.7-11.2c-0.4-1.9-1.4-4.9-3.9-4.7c-5.4,0.5-5.1,12.5-5.4,16.1c-0.8,8.8-0.7,17.6-0.1,26.4
						C189.1,95.1,192.3,95.1,192.1,93.1L192.1,93.1z"/>
				</g>
			</g>
		</g>
		<g>
			<g>
				<path class="st4" d="M216.6,92.6c-1.7-8.5-0.6-18.8,2.6-25.4c0.4-0.8,0.9-1.6,1.4-1.7c0.9-0.1,1.6,1.5,2.1,3.1
					c2.2,7.3,3.4,15.6,3.4,24"/>
			</g>
			<g>
				<g>
					<path class="st3" d="M218.1,92.2c-0.7-3.9-0.9-8-0.6-12c0.2-2.2,0.5-4.4,1.1-6.6c0.3-1.1,0.9-4.7,1.8-5.3
						c0.7-0.4,0.4-0.3,0.8,0.6c0.4,0.9,0.6,2.2,0.9,3.2c0.5,2,0.9,4.1,1.3,6.1c0.8,4.7,1.2,9.5,1.2,14.3c0,2,3.2,2,3.2,0
						c0-3.7-1.2-31.1-7.9-28.4c-1.6,0.6-2.3,2.8-2.9,4.2c-1,2.5-1.7,5.2-2.1,7.9c-0.9,5.6-0.8,11.2,0.2,16.8
						C215.4,95,218.5,94.2,218.1,92.2L218.1,92.2z"/>
				</g>
			</g>
		</g>
		<g>
			<g>
				<path class="st5" d="M124.7,225.4c-0.7-41.5,4.9-87.5,10.2-128.7c43.3-1.2,86.6-1.5,129.9-0.8c4,43.8,6.1,87.9,6.4,131.9
					c-47.6,5-95.7,5.5-143.4,1.6C125.4,229.3,122.4,226.2,124.7,225.4"/>
			</g>
			<g>
				<g>
					<path class="st6" d="M127.8,225.4c-0.7-43.1,4.7-86,10.2-128.7c-1.1,1.1-2.1,2.1-3.2,3.2c43.3-1.2,86.6-1.5,129.9-0.8
						c-1.1-1.1-2.1-2.1-3.2-3.2c4,43.8,6.1,87.9,6.4,131.9c1.1-1.1,2.1-2.1,3.2-3.2c-24.4,2.5-49,4-73.5,4.2
						c-12.1,0.1-24.1-0.1-36.2-0.5c-6.2-0.2-12.5-0.5-18.7-0.9c-2.9-0.2-5.8-0.4-8.7-0.6c-1.6-0.1-3.4-0.1-5-0.4
						c-0.6,0.1-1.1-0.1-1.6-0.4c-0.9-1-1.3-0.3-1.1,2.1c3.6-2,0.4-7.5-3.2-5.5c-3,1.7-2.9,5.2-0.6,7.5c3.1,3.2,8.1,2.7,12.2,3
						c11,0.8,22,1.4,33,1.7c22.1,0.7,44.1,0.4,66.2-0.9c12.5-0.7,24.9-1.7,37.3-3c1.7-0.2,3.2-1.3,3.2-3.2c-0.2-44-2.4-88-6.4-131.9
						c-0.2-1.7-1.3-3.1-3.2-3.2c-43.3-0.7-86.6-0.5-129.9,0.8c-1.9,0.1-3,1.4-3.2,3.2c-5.4,42.6-10.8,85.6-10.2,128.7
						C121.6,229.5,127.9,229.5,127.8,225.4L127.8,225.4z"/>
				</g>
			</g>
		</g>
		<g>
			<g>
				<path class="st2" d="M155.9,159.3c-1.5-10.5-0.4-32.2,0.4-42.8c28,0.5,55.9,0.9,83.9,1.4c2.3,12.5,2.9,25.4,1.8,38
					c-0.1,0.7-0.2,1.4-0.7,1.9c-0.6,0.5-1.5,0.6-2.4,0.6C212.9,158.8,181.8,158.9,155.9,159.3"/>
			</g>
			<g>
				<g>
					<path class="st3" d="M158.9,158.4c-1.9-13.7-0.5-28.2,0.5-42c-1.1,1.1-2.1,2.1-3.2,3.2c28,0.5,55.9,0.9,83.9,1.4
						c-1-0.8-2-1.6-3.1-2.3c1.9,10.6,2.6,21.5,2,32.3c0,0.6,0.1,4.6-0.4,4.9c1.1-0.8-1.9-0.6-2-0.6c-2.2,0-4.3,0.1-6.5,0.1
						c-5,0.1-10.1,0.1-15.1,0.2c-19.8,0.2-39.5,0.3-59.3,0.6c-4.1,0.1-4.1,6.4,0,6.3c22.2-0.3,44.4-0.4,66.6-0.6
						c5.4-0.1,10.9,0.1,16.3-0.2c5.2-0.3,6.1-3.6,6.5-8.2c0.9-12.2,0.1-24.4-2.1-36.4c-0.2-1.4-1.8-2.3-3.1-2.3
						c-28-0.5-55.9-0.9-83.9-1.4c-1.8,0-3.1,1.5-3.2,3.2c-1,14.4-2.2,29.3-0.3,43.7C153.4,164.1,159.5,162.4,158.9,158.4
						L158.9,158.4z"/>
				</g>
			</g>
		</g>
		<g>
			<g>
				<path class="st3" d="M164.5,205.1c0-7.1,0.1-14.3,0.1-21.4c23.8-1.3,47.8-0.8,71.5,1.6c0,8.2,0,16.5,0.1,24.7
					c-25.5,0-46.1,0-71.6,0.1"/>
			</g>
			<g>
				<g>
					<path class="st3" d="M167.7,205.1c0-7.1,0.1-14.3,0.1-21.4c-1.1,1.1-2.1,2.1-3.2,3.2c23.8-1.3,47.7-0.8,71.5,1.6
						c-1.1-1.1-2.1-2.1-3.2-3.2c0,8.2,0,16.5,0.1,24.7c1.1-1.1,2.1-2.1,3.2-3.2c-23.9,0-47.7,0-71.6,0.1c-4.1,0-4.1,6.4,0,6.3
						c23.9,0,47.7,0,71.6-0.1c1.7,0,3.2-1.5,3.2-3.2c0-8.2,0-16.5-0.1-24.7c0-1.8-1.5-3-3.2-3.2c-23.8-2.3-47.7-2.9-71.5-1.6
						c-1.7,0.1-3.2,1.4-3.2,3.2c0,7.1-0.1,14.3-0.1,21.4C161.3,209.2,167.6,209.2,167.7,205.1L167.7,205.1z"/>
				</g>
			</g>
		</g>
		<g>
			<g>
				<path class="st5" d="M122,428.7c-6.9-0.3-12.3-6-12.2-12.9c0.5-42.2-0.2-89.3,3.3-130.3c0.6-6.9,1.5-14.5,6.7-19.1
					c4.3-3.8,10.5-4.6,16.3-5.1c46.4-4.1,93.2-5.3,139.8-3.5c3.2,0.1,6.5,0.3,9.1,2.2c3.8,2.7,4.6,7.8,5.1,12.4
					c5.4,50,9.9,100,13.5,150.2c0.3,3.7,0.5,7.9-6,9.6c-1.5,0.4-3.1,0.5-4.7,0.5C235.8,432.4,178.9,431.1,122,428.7z"/>
			</g>
			<g>
				<g>
					<path class="st6" d="M122,425.5c-11.2-0.9-9-13.9-8.9-21.7c0.1-10.7,0.1-21.5,0.2-32.2c0.2-21.8,0.4-43.6,1.6-65.3
						c0.3-5.3,0.6-10.5,1-15.8c0.3-4.6,0.5-9.2,1.7-13.6c1.2-4.5,3.5-8.4,8-10.3c4.3-1.8,9.1-1.9,13.7-2.3c23.2-2,46.5-3.3,69.8-3.8
						c11.6-0.3,23.1-0.3,34.7-0.2c11.3,0.1,22.8,0,34,0.9c5.1,0.4,7.5,2.8,8.5,7.8c1.1,5.2,1.3,10.7,1.9,16
						c1.2,11.5,2.4,22.9,3.5,34.4c2.2,22.9,4.2,45.9,6.1,68.8c0.9,11.5,1.9,23,2.6,34.5c0.2,3.4,0.1,5.5-3.7,6.5
						c-2.6,0.7-5.6,0.4-8.3,0.4c-3.2,0-6.3,0-9.5-0.1c-46.4-0.3-92.8-1.3-139.2-3.1C133.8,426,127.9,425.8,122,425.5
						c-4.1-0.2-4.1,6.2,0,6.3c50.6,2.1,101.2,3.4,151.8,3.8c6.3,0,12.7,0.2,19,0.1c4.3-0.1,9.5-1,12.2-4.8c2-2.9,1.8-6.3,1.6-9.7
						c-0.4-6.3-0.9-12.5-1.4-18.8c-1.9-25.1-4-50.1-6.4-75.1c-1.2-12.3-2.4-24.6-3.7-36.9c-0.6-6.2-1.3-12.4-2-18.5
						c-0.5-4.2-1.2-8.7-3.9-12.2c-3-3.8-7.4-4.8-12-5.1c-6.1-0.4-12.3-0.5-18.4-0.6c-12.6-0.3-25.2-0.4-37.8-0.2
						c-25.2,0.3-50.4,1.4-75.5,3.5c-9.5,0.8-21.9,0.2-28.9,7.8c-6.7,7.2-6.6,18.4-7.2,27.6c-1.7,23.1-2.1,46.2-2.3,69.4
						c-0.1,11.8-0.2,23.6-0.2,35.4c0,5.7-0.1,11.5-0.2,17.2c0,4.5,1.1,8.6,4.1,12c2.9,3.3,6.9,4.9,11.2,5.2
						C126,432.2,126,425.8,122,425.5z"/>
				</g>
			</g>
		</g>
		<g>
			<g>
				<path class="st2" d="M331.8,479.4c-6.9-2.1-11.6-8.8-11.6-16.5c-0.1-30.6,1.7-68.2,5.2-98.5c0.9-7.6,7.1-13.2,14.3-12.8
					c6.8,0.4,22-2.3,25.8,3.5c2.7,4.1,3.5,9.2,4.2,14.2c4.6,32.6,5.9,70,8.3,102.9c0.1,1.4,0.2,2.9-0.5,4.1c-0.9,1.6-2.9,2-4.6,2.2
					C359,480.4,345.4,483.6,331.8,479.4z"/>
			</g>
			<g>
				<g>
					<path class="st3" d="M332.7,476.4c-10.5-3.5-9.3-14.9-9.2-23.8c0.1-10.9,0.4-21.8,0.9-32.7c0.5-11.1,1.2-22.1,2.1-33.2
						c0.4-5.4,0.9-10.7,1.5-16.1c0.5-4.7,0.6-9.6,4.3-13c3.1-2.9,6.6-2.6,10.6-2.7c3.8-0.1,7.6-0.4,11.4-0.3
						c2.6,0.1,6.6,0.1,8.6,2.1c3.4,3.4,3.6,10.8,4.2,15.3c3.1,22.7,4.5,45.7,5.9,68.6c0.4,6.3,0.8,12.6,1.2,18.9
						c0.2,3.2,0.4,6.3,0.6,9.5c0.1,1.4,0.4,2.9,0.3,4.4c-0.1,1.6-0.5,1.7-1.9,2c-6.5,1.4-13.5,2.2-20.2,2.7
						C346,478.6,339.3,478.3,332.7,476.4c-3.9-1.1-5.6,5-1.7,6.1c13.2,3.8,26.6,1.4,39.9-0.5c2.7-0.4,5.6-0.5,7.8-2.2
						c2.2-1.7,2.8-4.3,2.7-7c-0.2-6.5-0.9-13.1-1.3-19.6c-1.6-26.3-3-52.7-6.3-78.9c-1.2-9.2-1.6-22.8-12.7-25.3
						c-4.3-1-8.7-0.8-13.1-0.7c-4,0.2-8.4-0.3-12.3,0.6c-4.6,1-8.6,4.1-10.9,8.2c-2.7,4.7-2.7,10.4-3.3,15.7
						c-1.3,12.7-2.2,25.4-2.9,38.1c-0.8,14.3-1.2,28.5-1.4,42.8c-0.1,6-0.7,12.3,1.8,17.9c2.3,5.3,6.7,9.2,12.1,11
						C334.9,483.8,336.5,477.7,332.7,476.4z"/>
				</g>
			</g>
		</g>
		<g>
			<g>
				<path class="st3" d="M331.5,264.4c-9.6-1.1-19.7,4.1-24.4,12.5c-4.7,8.5-3.9,19.7,2.1,27.4c6,7.7,16.7,11.2,26.1,8.7
					L331.5,264.4z"/>
			</g>
			<g>
				<g>
					<path class="st3" d="M331.5,261.2c-17.1-1.6-32.1,13-30.6,30.2c1.6,17.3,18.3,28.9,35.1,24.7c1.3-0.3,2.4-1.7,2.3-3.1
						c-1.2-16.2-2.4-32.4-3.7-48.7c-0.3-4-6.7-4.1-6.3,0c1.2,16.2,2.4,32.4,3.7,48.7c0.8-1,1.6-2,2.3-3.1c-13,3.2-26.3-6-27.1-19.5
						c-0.8-13.6,10.9-24.1,24.3-22.9C335.5,268,335.5,261.6,331.5,261.2z"/>
				</g>
			</g>
		</g>
		<g>
			<g>
				<path class="st7" d="M141.4,363.1c-5-0.1-8.9-3.1-8.8-6.6c0.4-21.6-0.1-45.7,2.4-66.6c0.4-3.5,1.1-7.4,4.9-9.8
					c3.1-2,7.6-2.3,11.8-2.6c33.6-2.1,67.4-2.7,101.2-1.8c2.3,0.1,4.7,0.2,6.6,1.1c2.7,1.4,3.3,4,3.7,6.3
					c3.9,25.5,7.2,51.1,9.8,76.8c0.2,1.9,0.3,4-4.3,4.9c-1.1,0.2-2.2,0.3-3.4,0.3C223.8,365,182.6,364.3,141.4,363.1z"/>
			</g>
			<g>
				<g>
					<path class="st3" d="M141.4,359.9c-1.9-0.1-4.8-0.8-5.6-2.9c-0.4-1.3,0-3.2,0-4.5c0-1.7,0-3.4,0.1-5.1
						c0.1-6.6,0.1-13.2,0.2-19.8c0.2-12.8,0.2-25.9,2.2-38.6c0.4-2.4,1.1-4.8,3.2-6.2c2.6-1.7,6.1-1.9,9.1-2.1
						c6.8-0.5,13.6-0.8,20.4-1.1c14.2-0.6,28.3-1,42.5-1.1c7.1-0.1,14.2,0,21.3,0c6.7,0.1,13.5-0.1,20.1,0.4
						c3.3,0.3,4.6,1.5,5.1,4.6c0.6,3.4,1.1,6.9,1.6,10.3c1,7.1,2,14.3,3,21.4c1.8,14,3.5,28.1,4.9,42.1c0.1,0.9,0.7,2.5,0.3,3.4
						c-0.3,0.8,0.3,0-0.3,0.5c-1.1,0.7-3.1,0.6-4.3,0.6c-2.1,0-4.2,0-6.3,0c-7.2,0-14.3-0.1-21.5-0.1
						C205.3,361.5,173.3,360.9,141.4,359.9c-4.1-0.1-4.1,6.2,0,6.3c32.4,1,64.8,1.6,97.2,1.9c8.2,0.1,16.4,0.1,24.6,0.1
						c4.8,0,12.3-0.3,12.8-6.5c0.2-2.6-0.4-5.4-0.7-8c-0.4-4.1-0.9-8.3-1.4-12.4c-0.9-7.9-1.8-15.7-2.9-23.5
						c-1-7.9-2.1-15.8-3.3-23.7c-0.6-3.9-1.1-7.8-1.8-11.7c-0.5-2.8-1.4-5.4-3.7-7.2c-2.2-1.8-4.9-2.3-7.7-2.5c-4-0.3-8-0.2-12-0.3
						c-7.9-0.1-15.8-0.2-23.8-0.2c-16.2,0-32.5,0.4-48.7,1.2c-7.6,0.4-15.3,0.5-22.9,1.4c-5.9,0.7-11.7,2.7-14.1,8.6
						c-1.3,3.1-1.5,6.5-1.8,9.9c-0.4,4.1-0.7,8.2-1,12.4c-0.5,8.2-0.6,16.3-0.8,24.5c-0.1,8.5-0.2,16.9-0.3,25.4
						c0,6.9,5.5,10.4,12,10.9C145.4,366.5,145.4,360.2,141.4,359.9z"/>
				</g>
			</g>
		</g>
		<g>
			<g>
				<path class="st3" d="M149.2,292.9c-2.1,0.7-2.9,3.7-1.8,5.7c1.1,2,3.7,2.8,5.9,2.4c2.9-0.5,5.4-2.9,5.7-5.8
					c0.3-2.9-2-5.9-4.9-6.1c-2.9-0.2-5.7,2.6-5.2,5.5"/>
			</g>
			<g>
				<g>
					<path class="st3" d="M147.6,290.2c-5.1,2.3-4.8,9.6-0.6,12.5c4.5,3.1,10.8,1.4,13.7-3.1c2.9-4.5,1.1-10.8-3.8-13
						c-5.3-2.3-11.8,2.1-11.1,8c0.4,4,6.8,4.1,6.3,0c-0.2-1.4,0.9-2.8,2.4-2.1c1.5,0.7,1.6,2.6,0.8,3.8c-0.9,1.3-2.7,2-4.2,1.4
						c-1.1-0.5-1.5-1.5-0.3-2.1C154.5,294,151.3,288.5,147.6,290.2L147.6,290.2z"/>
				</g>
			</g>
		</g>
		<g>
			<g>
				<path class="st3" d="M243.3,288.9c-3.5,1.3-4.7,6.4-2.4,9.3c2.3,2.9,7.3,2.9,9.8,0.2s1.9-7.6-1.1-9.9c-1.9-1.4-5.2-1.5-6.1,0.7"
					/>
			</g>
			<g>
				<g>
					<path class="st3" d="M241.7,286.2c-4.7,2.1-6.5,8.5-4.1,12.9c2.5,4.5,8.8,5.8,13.1,3.3c4.7-2.7,5.8-9,3.2-13.6
						c-2.7-4.6-10.2-6.6-13.2-1.2c-2,3.6,3.5,6.8,5.5,3.2c0.7-1.3,2.6,1.8,2.7,2.3c0.4,1.7-0.2,3.4-1.9,4c-3.9,1.3-5.7-3.8-2.1-5.4
						c1.6-0.7,1.9-3,1.1-4.3C245.1,285.7,243.3,285.5,241.7,286.2L241.7,286.2z"/>
				</g>
			</g>
		</g>
		<g>
			<g>
				<path class="st3" d="M126.7,287.1c-1.5-5.6,2.5-11.9,8.4-12.5c2-0.2,2-3.4,0-3.2c-7.9,0.9-13.5,8.8-11.5,16.5
					C124.2,289.9,127.2,289,126.7,287.1L126.7,287.1z"/>
			</g>
		</g>
		<g>
			<g>
				<path class="st3" d="M259.9,269.9c9.3-1.9,11.6,10,12.5,16.6c0.3,2,3.3,1.2,3.1-0.8c-0.7-5.1-1.5-10.6-5-14.6
					c-2.9-3.3-7-5-11.4-4.2C257,267.3,257.9,270.3,259.9,269.9L259.9,269.9z"/>
			</g>
		</g>
		<g>
			<g>
				<path class="st2" d="M158.7,336.9c-1.5-5.6-0.4-17.3,0.4-23c26.9,0.3,53.9,0.5,80.8,0.8c2.2,6.7,2.8,13.6,1.7,20.4
					c-0.1,0.4-0.2,0.8-0.7,1c-0.6,0.3-1.5,0.3-2.3,0.3C213.6,336.7,183.7,336.7,158.7,336.9"/>
			</g>
			<g>
				<g>
					<path class="st3" d="M161.7,336.1c-1.6-7-0.4-15.1,0.5-22.1c-1.1,1.1-2.1,2.1-3.2,3.2c26.9,0.3,53.9,0.5,80.8,0.8
						c-1-0.8-2-1.6-3.1-2.3c1.3,4.1,2.1,8.4,2.2,12.7c0,1.1,0,2.3-0.1,3.4c0,0.6-0.1,1.2-0.2,1.8c-0.3,1.1,0,1,0.8-0.3
						c0-0.1-4.7,0.1-5.1,0.1c-8.4,0.1-16.8,0.1-25.3,0.1c-16.8,0.1-33.6,0.1-50.4,0.3c-4.1,0-4.1,6.4,0,6.3
						c19.1-0.2,38.2-0.2,57.3-0.3c4.7,0,9.4,0,14-0.1c2.2,0,4.3,0,6.5,0c1.8,0,4,0.2,5.7-0.6c3.6-1.7,3.2-7.4,3.2-10.7
						c0-4.9-0.9-9.8-2.4-14.4c-0.4-1.3-1.6-2.3-3.1-2.3c-26.9-0.3-53.9-0.5-80.8-0.8c-1.9,0-3,1.5-3.2,3.2c-1,7.7-2,16.2-0.2,23.8
						C156.5,341.7,162.7,340,161.7,336.1L161.7,336.1z"/>
				</g>
			</g>
		</g>
		<g>
			<g>
				<path class="st3" d="M178.4,333.4c0-3.3,0-6.7,0-10c0-3-0.3-6.2,0-9.2c-0.3,0.7-0.6,1.5-0.9,2.2c0.1-0.1,0.2-0.2,0.3-0.3
					c-1.3,0.2-2.6,0.3-3.8,0.5c0.1,0.1,0.2,0.1,0.3,0.2c-0.4-1.4-0.8-2.9-1.1-4.3c0,0.1-0.1,0.1-0.1,0.2c-2.2,3.4,3.3,6.6,5.5,3.2
					c0-0.1,0.1-0.1,0.1-0.2c1-1.6,0.2-3.4-1.1-4.3c-0.1-0.1-0.2-0.1-0.3-0.2c-1.1-0.8-3-0.5-3.8,0.5c-2.1,2.4-1.2,6.3-1.2,9.2
					c0,4.2,0,8.3,0,12.5C172.1,337.4,178.4,337.5,178.4,333.4L178.4,333.4z"/>
			</g>
		</g>
		<g>
			<g>
				<path class="st3" d="M196.5,333.9c-0.3-5.6-0.6-11.3-0.9-16.9c-1.3,1-2.7,2-4,3.1c0.5,0.2,1,0.4,1.5,0.5
					c3.9,1.4,5.5-4.8,1.7-6.1c-0.5-0.2-1-0.4-1.5-0.5c-1.9-0.7-4.1,1.1-4,3.1c0.3,5.6,0.6,11.3,0.9,16.9
					C190.4,338,196.8,338,196.5,333.9L196.5,333.9z"/>
			</g>
		</g>
		<g>
			<g>
				<path class="st3" d="M214.1,337.5c0.2-5.9,0-11.7-0.6-17.5c-0.4-4-6.8-4.1-6.3,0c0.6,5.8,0.8,11.7,0.6,17.5
					C207.6,341.5,213.9,341.5,214.1,337.5L214.1,337.5z"/>
			</g>
		</g>
		<g>
			<g>
				<path class="st3" d="M231.9,333.6c-1.3-6-2.2-12.1-2.7-18.2c-2.1,0-4.2,0-6.3,0c0.1,0.5,0.1,1.1,0.2,1.6c0.4,4,6.8,4.1,6.3,0
					c-0.1-0.5-0.1-1.1-0.2-1.6c-0.4-4-6.7-4.1-6.3,0c0.5,6.7,1.5,13.3,2.9,19.9C226.6,339.3,232.7,337.6,231.9,333.6L231.9,333.6z"
					/>
			</g>
		</g>
		<g>
			<g>
				<path class="st5" d="M156.2,198.3c6,0,12.1-0.1,18.1-0.1c0.5,0,1.1-0.3,1.4-0.8c0.5-1,0.7-1.9,0.9-3.1c0.1-0.5,0-1.3,0.3-1.7
					c0.8-1.1,2.2,0,2.7,0.8c2.3,3.2,4.3,6.7,6.5,10.1c0.9,1.4,2.8,0.7,3-0.8c0.6-5.5,1.8-10.8,3.8-16c-1,0.1-1.9,0.3-2.9,0.4
					c2.3,3.1,3.7,6.5,4.2,10.3c0.1,1.1,0.9,1.7,2,1.5c6.8-1.4,13.7-1.9,20.6-1.7c0.9,0,1.6-0.7,1.6-1.6c0.1-3.1,0.9-5.6,2.7-8.2
					c-0.9,0-1.8,0-2.7,0c2.2,4.3,4.4,8.6,6.4,13c0.6,1.2,2.7,1,2.9-0.4c0.2-1.2,0.4-2.4,0.6-3.5c0.3-2.1,0.3-3,2.9-3
					c2.6,0,5.6,1,8.1,1.5c2,0.4,2.9-2.7,0.8-3.1c-2.5-0.4-5-0.9-7.5-1.3c-1.4-0.3-3.4-1-4.9-0.4c-2.9,1.2-2.7,6.5-3,9
					c1-0.1,1.9-0.3,2.9-0.4c-2.1-4.4-4.2-8.7-6.4-13c-0.6-1.1-2.1-0.9-2.7,0c-2.1,2.9-3.1,6.2-3.2,9.8c0.5-0.5,1.1-1.1,1.6-1.6
					c-7.2-0.2-14.4,0.4-21.4,1.8c0.7,0.5,1.3,1,2,1.5c-0.5-4.4-2-8.3-4.6-11.9c-0.8-1.1-2.4-0.9-2.9,0.4c-2.1,5.4-3.3,11-3.9,16.8
					c1-0.3,2-0.5,3-0.8c-1.8-2.9-3.7-5.7-5.5-8.6c-1.2-1.8-2.5-4.3-4.8-4.8c-5-1.2-4.2,4.5-5.6,7.3c0.5-0.3,0.9-0.5,1.4-0.8
					c-6,0-12.1,0.1-18.1,0.1C154.1,195.1,154.1,198.3,156.2,198.3L156.2,198.3z"/>
			</g>
		</g>
		<g>
			<g>
				<path class="st3" d="M167.4,136.8c-1.2,2.9,0.4,6.5,3,7.9c3.2,1.8,7.1,0,8.4-3.2c1.3-3.1-0.2-6.8-3.6-7.7
					c-3.2-0.8-6.2,0.7-7.4,3.7c-0.6,1.6,0.7,3.5,2.2,3.9c1.8,0.5,3.3-0.6,3.9-2.2c0,0.1-0.6,1-0.2,0.5c-0.4,0.3-0.4,0.3-0.1,0.1
					c-0.1,0-0.2,0.1-0.3,0.1c0.5-0.1,0.5,0,0,0c0.7,0.1-0.6-0.2,0.1,0c0.6,0.2-0.4-0.3,0.1,0c-0.2-0.2-0.6-0.8-0.4-0.3
					c-0.1-0.2-0.2-0.4-0.2-0.6c0,0.1,0,0.2,0,0.3c0.1-0.4,0.1-0.4,0-0.1c0.1-0.3,0.2-0.4,0-0.2c-0.1,0.2-0.1,0.2,0.1-0.1
					c-0.1,0.1-0.2,0.2-0.3,0.3c-0.5,0.2,0.8-0.3,0.3-0.2c-0.2,0.1-0.2,0.1,0.2,0c-0.3,0-0.4,0-0.1,0c0.2,0,0.3,0,0.4,0.1
					c-0.3-0.2-0.3-0.2-0.1,0c0.2,0.1,0.2,0.1-0.1-0.1c0.2,0.3,0.2,0.3,0.1,0.1c-0.1-0.1-0.1-0.2-0.2-0.3c0.1,0.3,0.1,0.4,0.1,0.1
					c0-0.1-0.1-0.3-0.1-0.4c0,0.4,0.1,0.4,0.1,0.2c0-0.2,0-0.2,0,0.2c0-0.2,0.1-0.3,0.2-0.5c0.7-1.6-0.7-3.5-2.2-3.9
					C169.4,134,168,135.2,167.4,136.8L167.4,136.8z"/>
			</g>
		</g>
		<g>
			<g>
				<path class="st5" d="M172.4,133c-1.8,3.8-0.1,7.6,4.1,7.9s7.8-4.9,5.8-8.6C180.3,128.6,173.7,129,172.4,133"/>
			</g>
			<g>
				<g>
					<path class="st3" d="M171,132.2c-1.7,3.8-0.9,8.5,3.5,9.9c4,1.3,8.2-1.2,9.5-5.1c1.3-3.7-0.6-7.6-4.5-8.6
						c-3.6-0.9-7.4,0.7-8.7,4.2c-0.7,1.9,2.3,2.7,3.1,0.8c1.5-3.9,8.5-2.1,7.2,2.3c-0.6,2.1-2.7,3.9-4.9,3.5
						c-2.8-0.4-3.5-3.1-2.4-5.5C174.5,131.9,171.8,130.3,171,132.2L171,132.2z"/>
				</g>
			</g>
		</g>
		<g>
			<g>
				<path class="st3" d="M211.8,138c-1.2,2.9,0.4,6.5,3,7.9c3.2,1.8,7.1,0,8.4-3.2c1.3-3.1-0.2-6.8-3.6-7.7
					c-3.2-0.8-6.2,0.7-7.4,3.7c-0.6,1.6,0.7,3.5,2.2,3.9c1.8,0.5,3.3-0.6,3.9-2.2c0,0.1-0.6,1-0.2,0.5c-0.4,0.3-0.4,0.3-0.1,0.1
					c-0.1,0-0.2,0.1-0.3,0.1c0.5-0.1,0.5,0,0,0c0.7,0.1-0.6-0.2,0.1,0c0.6,0.2-0.4-0.3,0.1,0c-0.2-0.2-0.6-0.8-0.4-0.3
					c-0.1-0.2-0.2-0.4-0.2-0.6c0,0.1,0,0.2,0,0.3c0.1-0.4,0.1-0.4,0-0.1c0.1-0.3,0.2-0.4,0-0.2c-0.1,0.2-0.1,0.2,0.1-0.1
					c-0.1,0.1-0.2,0.2-0.3,0.3c-0.5,0.2,0.8-0.3,0.3-0.2c-0.2,0.1-0.2,0.1,0.2,0c-0.3,0-0.4,0-0.1,0c0.2,0,0.3,0,0.4,0.1
					c-0.3-0.2-0.3-0.2-0.1,0c0.2,0.1,0.2,0.1-0.1-0.1c0.2,0.3,0.2,0.3,0.1,0.1c-0.1-0.1-0.1-0.2-0.2-0.3c0.1,0.3,0.1,0.4,0.1,0.1
					c0-0.1-0.1-0.3-0.1-0.4c0,0.4,0.1,0.4,0.1,0.2c0-0.2,0-0.2,0,0.2c0-0.2,0.1-0.3,0.2-0.5c0.7-1.6-0.7-3.5-2.2-3.9
					C213.9,135.2,212.5,136.4,211.8,138L211.8,138z"/>
			</g>
		</g>
		<g>
			<g>
				<path class="st5" d="M216.8,134.2c-1.8,3.8-0.1,7.6,4.1,7.9s7.8-4.9,5.8-8.6C224.7,129.8,218.1,130.2,216.8,134.2"/>
			</g>
			<g>
				<g>
					<path class="st3" d="M215.4,133.4c-1.7,3.8-0.9,8.5,3.5,9.9c4,1.3,8.2-1.2,9.5-5.1c1.3-3.7-0.6-7.6-4.5-8.6
						c-3.6-0.9-7.4,0.7-8.7,4.2c-0.7,1.9,2.3,2.7,3.1,0.8c1.5-3.9,8.5-2.1,7.2,2.3c-0.6,2.1-2.7,3.9-4.9,3.5
						c-2.8-0.4-3.5-3.1-2.4-5.5C219,133.1,216.2,131.5,215.4,133.4L215.4,133.4z"/>
				</g>
			</g>
		</g>
		<g>
			<g>
				<path class="st3" d="M183.9,105.3c-0.8,1.6,0,3.2,1.8,3.3c1.8,0.1,3.3-2.1,2.5-3.6C187.2,103.4,184.4,103.6,183.9,105.3"/>
			</g>
			<g>
				<path class="st3" d="M209.6,105.3c-0.8,1.6,0,3.2,1.8,3.3c1.8,0.1,3.3-2.1,2.5-3.6C213,103.4,210.1,103.6,209.6,105.3"/>
			</g>
			<g>
				<path class="st3" d="M191.6,105c-1,2.1,0,4.1,2.3,4.3s4.3-2.7,3.2-4.7C196,102.6,192.3,102.8,191.6,105"/>
			</g>
			<g>
				<path class="st3" d="M201,105c-1,2.1,0,4.1,2.3,4.3s4.3-2.7,3.2-4.7C205.3,102.6,201.7,102.8,201,105"/>
			</g>
		</g>
		<g>
			<g>
				<path class="st7" d="M136.6,212.1c-1.6,0.9-2.6,2.9-2.3,4.8c0.3,1.8,1.9,3.4,3.7,3.8c1.9,0.4,4-0.7,4.9-2.4
					c0.9-1.7,0.5-4.1-0.9-5.4C140.2,211.1,138,211.2,136.6,212.1"/>
				<path class="st3" d="M138.8,222c-0.3,0-0.7,0-1-0.1c-2.4-0.4-4.3-2.4-4.7-4.8c-0.4-2.4,0.8-4.9,2.9-6.1c1.7-1,4.5-1.4,7,0.9
					c1.8,1.7,2.3,4.7,1.2,6.9C143.1,220.8,140.9,222,138.8,222z M138.8,212.7c-0.6,0-1.2,0.2-1.6,0.5l0,0c-1.2,0.7-1.9,2.1-1.6,3.5
					c0.2,1.3,1.3,2.5,2.7,2.7c1.4,0.3,2.9-0.5,3.6-1.7c0.6-1.2,0.3-3-0.7-3.9C140.4,213,139.6,212.7,138.8,212.7z"/>
			</g>
			<g>
				<path class="st7" d="M135.7,212.7c2,2.3,4,4.7,6,7"/>
				
					<rect x="137.5" y="211.6" transform="matrix(0.7586 -0.6516 0.6516 0.7586 -107.3879 142.5961)" class="st3" width="2.5" height="9.2"/>
			</g>
		</g>
		<g>
			<g>
				<path class="st7" d="M142.8,104.7c-1.6,0.9-2.6,2.9-2.3,4.8c0.3,1.8,1.9,3.4,3.7,3.8c1.9,0.4,4-0.7,4.9-2.4s0.5-4.1-0.9-5.4
					C146.5,103.7,144.3,103.8,142.8,104.7"/>
				<path class="st3" d="M145.1,114.6c-0.3,0-0.7,0-1-0.1c-2.4-0.4-4.3-2.4-4.7-4.8c-0.4-2.4,0.8-4.9,2.9-6.1c1.7-1,4.5-1.4,7,0.9
					c1.8,1.7,2.3,4.7,1.2,6.9C149.3,113.3,147.2,114.6,145.1,114.6z M145.1,105.3c-0.6,0-1.2,0.2-1.6,0.5l0,0
					c-1.2,0.7-1.9,2.1-1.6,3.5c0.2,1.3,1.3,2.5,2.7,2.7c1.4,0.3,2.9-0.5,3.6-1.7c0.6-1.2,0.3-3-0.7-3.9
					C146.6,105.6,145.8,105.3,145.1,105.3z"/>
			</g>
			<g>
				<path class="st7" d="M142,105.3c2,2.3,4,4.7,6,7"/>
				
					<rect x="143.7" y="104.2" transform="matrix(0.7586 -0.6516 0.6516 0.7586 -35.876 120.7499)" class="st3" width="2.5" height="9.2"/>
			</g>
		</g>
		<g>
			<g>
				<path class="st7" d="M249.9,104.7c-1.6,0.9-2.6,2.9-2.3,4.8c0.3,1.8,1.9,3.4,3.7,3.8c1.9,0.4,4-0.7,4.9-2.4s0.5-4.1-0.9-5.4
					C253.6,103.7,251.4,103.8,249.9,104.7"/>
				<path class="st3" d="M252.2,114.6c-0.3,0-0.7,0-1-0.1c-2.4-0.4-4.3-2.4-4.7-4.8c-0.4-2.4,0.8-4.9,2.9-6.1c1.7-1,4.5-1.4,7,0.9
					c1.8,1.7,2.3,4.7,1.2,6.9C256.4,113.3,254.3,114.6,252.2,114.6z M252.2,105.3c-0.6,0-1.2,0.2-1.6,0.5l0,0
					c-1.2,0.7-1.9,2.1-1.6,3.5c0.2,1.3,1.3,2.5,2.7,2.7c1.4,0.3,2.9-0.5,3.6-1.7c0.6-1.2,0.3-3-0.7-3.9
					C253.7,105.6,252.9,105.3,252.2,105.3z"/>
			</g>
			<g>
				<path class="st7" d="M249.1,105.3c2,2.3,4,4.7,6,7"/>
				
					<rect x="250.8" y="104.2" transform="matrix(0.7586 -0.6516 0.6516 0.7586 -10.0189 190.5341)" class="st3" width="2.5" height="9.2"/>
			</g>
		</g>
		<g>
			<g>
				<path class="st7" d="M254.5,212.1c-1.6,0.9-2.6,2.9-2.3,4.8c0.3,1.8,1.9,3.4,3.7,3.8c1.9,0.4,4-0.7,4.9-2.4
					c0.9-1.7,0.5-4.1-0.9-5.4C258.2,211.1,256,211.2,254.5,212.1"/>
				<path class="st3" d="M256.7,222c-0.3,0-0.7,0-1-0.1c-2.4-0.4-4.3-2.4-4.7-4.8c-0.4-2.4,0.8-4.9,2.9-6.1c1.7-1,4.5-1.4,7,0.9
					c1.8,1.7,2.3,4.7,1.2,6.9C261,220.8,258.9,222,256.7,222z M256.8,212.7c-0.6,0-1.2,0.2-1.6,0.5l0,0c-1.2,0.7-1.9,2.1-1.6,3.5
					c0.2,1.3,1.3,2.5,2.7,2.7c1.4,0.3,2.9-0.5,3.6-1.7c0.6-1.2,0.3-3-0.7-3.9C258.3,213,257.5,212.7,256.8,212.7z"/>
			</g>
			<g>
				<path class="st7" d="M253.7,212.7c2,2.3,4,4.7,6,7"/>
				
					<rect x="255.4" y="211.6" transform="matrix(0.7586 -0.6516 0.6516 0.7586 -78.9101 219.4571)" class="st3" width="2.5" height="9.2"/>
			</g>
		</g>
		<g>
			<g>
				<path class="st7" d="M127.8,396.8c-3.7,2.1-5.8,6.6-5.1,10.8c0.7,4.2,4.2,7.8,8.4,8.6c4.4,0.8,9.2-1.5,11.2-5.5
					c2-4,1.2-9.3-2.1-12.3C136.2,394.5,131.2,394.7,127.8,396.8"/>
				<path class="st3" d="M132.8,417c-0.6,0-1.3-0.1-1.9-0.2c-4.4-0.8-8.2-4.7-8.9-9.1c-0.7-4.4,1.5-9.3,5.4-11.5
					c3.2-2,8.6-2.7,13.2,1.7c3.4,3.2,4.4,8.9,2.2,13.1C141,414.6,136.9,417,132.8,417z M133,395.9c-1.9,0-3.6,0.6-4.8,1.4l0,0
					c-3.5,2-5.5,6.3-4.8,10.2c0.7,3.9,4,7.3,7.9,8.1c4.1,0.8,8.7-1.4,10.6-5.2c1.9-3.7,1.1-8.7-2-11.6
					C137.6,396.7,135.2,395.9,133,395.9z"/>
			</g>
			<g>
				<path class="st7" d="M125.9,398.1c4.6,5.3,9.1,10.6,13.7,15.9"/>
				
					<rect x="132.1" y="395.6" transform="matrix(0.7586 -0.6516 0.6516 0.7586 -232.5527 184.5553)" class="st3" width="1.3" height="21"/>
			</g>
		</g>
		<g>
			<g>
				<path class="st7" d="M271.9,399.6c-3.7,2.1-5.8,6.6-5.1,10.8c0.7,4.2,4.2,7.8,8.4,8.6c4.4,0.8,9.2-1.5,11.2-5.5
					s1.2-9.3-2.1-12.3C280.3,397.4,275.3,397.5,271.9,399.6"/>
				<path class="st3" d="M277,419.8c-0.6,0-1.3-0.1-1.9-0.2c-4.4-0.8-8.2-4.7-8.9-9.1c-0.7-4.4,1.5-9.3,5.4-11.5
					c3.2-2,8.6-2.7,13.2,1.7c3.4,3.2,4.4,8.9,2.2,13.1C285.1,417.4,281,419.8,277,419.8z M277.1,398.8c-1.9,0-3.6,0.6-4.8,1.4l0,0
					c-3.5,2-5.5,6.3-4.8,10.2c0.7,3.9,4,7.3,7.9,8.1c4.1,0.8,8.7-1.4,10.6-5.2c1.9-3.7,1.1-8.7-2-11.6
					C281.7,399.6,279.3,398.8,277.1,398.8z"/>
			</g>
			<g>
				<path class="st7" d="M270.1,401c4.6,5.3,9.1,10.6,13.7,15.9"/>
				
					<rect x="276.3" y="398.4" transform="matrix(0.7586 -0.6516 0.6516 0.7586 -199.6049 279.1555)" class="st3" width="1.3" height="21"/>
			</g>
		</g>
		<g>
			<g>
				<path class="st4" d="M301,252.9c-1.8,3.8-0.1,7.6,4.1,7.9c4.2,0.3,7.8-4.9,5.8-8.6C308.9,248.4,302.3,248.9,301,252.9"/>
			</g>
			<g>
				<g>
					<path class="st3" d="M299.6,252.1c-1.7,3.8-0.9,8.5,3.5,9.9c4,1.3,8.2-1.2,9.5-5.1c1.3-3.7-0.6-7.6-4.5-8.6
						c-3.6-0.9-7.4,0.7-8.7,4.2c-0.7,1.9,2.3,2.7,3.1,0.8c1.5-3.9,8.5-2.1,7.2,2.3c-0.6,2.1-2.7,3.9-4.9,3.5
						c-2.8-0.4-3.5-3.1-2.4-5.5C303.1,251.8,300.4,250.2,299.6,252.1L299.6,252.1z"/>
				</g>
			</g>
		</g>
		<g>
			<g>
				<path class="st3" d="M323.9,401.5c1.8,0.6,2.8,2.9,3.8,4.4c1.2,1.7,2.5,3.4,3.9,4.9c2.4,2.7,5.6,6,9.5,4.4
					c3.6-1.5,6.4-5.9,8.8-8.8c1.3-1.6,2.6-3.2,3.9-4.8c1.2-1.5,2.8-4.9,4.4-5.9c-0.8,0.1-1.6,0.2-2.4,0.3c1.1,0.2,2.2,1.8,3,2.6
					c1.2,1.1,2.4,2.3,3.6,3.4c2.4,2.3,4.8,4.5,7.2,6.8c3,2.8,7.5-1.7,4.5-4.5c-2.4-2.3-4.8-4.5-7.2-6.8c-2.3-2.2-4.5-4.8-7.1-6.6
					c-5.4-3.7-8.7,3.9-11.4,7.4c-1.9,2.4-3.9,4.8-5.9,7.1c-0.6,0.6-2.3,3.3-3.1,3.4c-1.3,0.2-2.4-1.6-3.2-2.5
					c-3.3-3.7-5.3-9.4-10.5-10.9C321.7,394.2,320,400.3,323.9,401.5L323.9,401.5z"/>
			</g>
		</g>
		<g>
			<g>
				<path class="st3" d="M318.9,423c2.8,5.7,5.7,11.2,8.9,16.6c2,3.4,4.8,10.5,9.9,9.3c2.4-0.6,4-2.8,5.6-4.6
					c1.9-2.2,3.7-4.4,5.4-6.7c3.6-4.8,6.8-10,9.6-15.3c-1.2,0.5-2.4,1-3.6,1.5c2.8,0.7,5.1,3.6,7.1,5.5c2.3,2,4.5,4.1,6.8,6.1
					c3,2.7,7.5-1.8,4.5-4.5c-2.9-2.6-5.7-5.1-8.6-7.7c-2.5-2.2-4.8-4.7-8.1-5.5c-1.3-0.3-2.9,0.2-3.6,1.5c-2.1,4-4.4,7.9-7,11.7
					c-1.3,1.9-2.7,3.8-4.2,5.7c-0.7,0.9-1.4,1.7-2.1,2.6c-0.6,0.7-2.4,2-2.6,2.9c-0.6,0.4-0.5,0.8,0.5,1.1c-0.3-0.3-0.5-0.7-0.8-1.1
					c-0.6-1-1.2-2-1.9-3c-1.2-2-2.4-4-3.6-6.1c-2.4-4.3-4.7-8.7-6.9-13.1C322.6,416.1,317.1,419.4,318.9,423L318.9,423z"/>
			</g>
		</g>
		<g>
			<g>
				<path class="st3" d="M303.9,392.5c4.7-0.6,9.5-0.3,14.1,0.8l1.1-16.8c-6.2-1.2-12.5-1.7-18.7-1.6"/>
			</g>
			<g>
				<g>
					<path class="st3" d="M303.9,395.7c4.5-0.5,8.8-0.3,13.3,0.7c2.1,0.5,3.9-0.9,4-3.1c0.4-5.6,0.8-11.2,1.1-16.8
						c0.1-1.3-1-2.8-2.3-3.1c-6.5-1.2-13-1.8-19.6-1.7c-4.1,0-4.1,6.4,0,6.3c6-0.1,12,0.4,17.9,1.5c-0.8-1-1.6-2-2.3-3.1
						c-0.4,5.6-0.8,11.2-1.1,16.8c1.3-1,2.7-2,4-3.1c-4.9-1.1-9.9-1.5-14.9-0.9C299.9,389.8,299.9,396.2,303.9,395.7L303.9,395.7z"
						/>
				</g>
			</g>
		</g>
		<g>
			<g>
				<g>
					<path class="st2" d="M76.2,479.4c6.9-2.1,11.6-8.8,11.6-16.5c0.1-30.6-1.7-68.2-5.2-98.5c-0.9-7.6-7.1-13.2-14.3-12.8
						c-6.8,0.4-22-2.3-25.8,3.5c-2.7,4.1-3.5,9.2-4.2,14.2c-4.6,32.6-5.9,70-8.3,102.9c-0.1,1.4-0.2,2.9,0.5,4.1
						c0.9,1.6,2.9,2,4.6,2.2C49.1,480.4,62.6,483.6,76.2,479.4z"/>
				</g>
				<g>
					<g>
						<path class="st3" d="M77.1,482.5c4.6-1.6,8.4-4.5,11-8.7c2.9-4.8,3-10,3-15.5c0-12.6-0.4-25.3-0.9-37.9
							c-0.6-12.7-1.4-25.4-2.5-38.1c-0.5-6-1.1-11.9-1.8-17.9c-0.6-5-2.9-9.6-7-12.7c-3.8-2.9-7.9-3.2-12.5-3.3
							c-4.4,0-8.8-0.5-13.2-0.3c-3.8,0.2-8,0.6-11.1,3c-4.1,3.1-5.5,9.3-6.3,14.1c-4.3,25.7-5.4,52.1-7,78.1
							c-0.5,7.4-0.9,14.8-1.4,22.2c-0.4,5.8-2.1,13.6,5.2,15.6c3.6,1,7.6,1.2,11.3,1.7c3.4,0.5,6.8,1,10.3,1.3
							C61.8,485,69.6,484.7,77.1,482.5c3.9-1.1,2.2-7.3-1.7-6.1c-11.9,3.5-23.9,1.3-35.9-0.5c-1.5-0.2-5.3-0.1-6.3-1.4
							c-0.5-0.7,0-3,0.1-3.9c0.1-1.5,0.2-2.9,0.3-4.4c0.4-5.7,0.7-11.3,1.1-17c1.4-22.9,2.7-45.9,5.3-68.8
							c0.6-5.5,1.1-11.1,2.4-16.6c1-4.1,2-7.7,6.4-8.7c3.6-0.8,7.4-0.6,11-0.4c3.4,0.1,7.2-0.2,10.6,0.3
							c10.5,1.5,9.7,15.2,10.5,23.1c1.1,11.1,1.8,22.2,2.4,33.3c0.7,12.3,1.1,24.6,1.3,36.9c0.1,9.7,2.6,24.2-9.2,28.1
							C71.5,477.7,73.2,483.8,77.1,482.5z"/>
					</g>
				</g>
			</g>
			<g>
				<g>
					<path class="st3" d="M82.5,395.4c-5.1,1.6-7.1,7.2-10.5,10.9c-0.7,0.8-1.9,2.7-3.2,2.5c-0.8-0.1-2.6-2.8-3.1-3.4
						c-2.1-2.3-4-4.7-5.9-7.1c-2.7-3.5-6-11.2-11.4-7.4c-2.6,1.8-4.8,4.5-7.1,6.6c-2.4,2.3-4.8,4.5-7.2,6.8c-3,2.8,1.5,7.3,4.5,4.5
						c2.4-2.3,4.8-4.5,7.2-6.8c1.2-1.1,2.4-2.3,3.6-3.4c0.8-0.8,2-2.4,3-2.6c-0.8-0.1-1.6-0.2-2.4-0.3c1.6,0.9,3,4.1,4.2,5.5
						c1.3,1.7,2.7,3.5,4.1,5.2c2.4,2.9,5.3,7.3,8.8,8.8c3.9,1.6,7.1-1.8,9.5-4.4c1.3-1.4,2.4-2.9,3.5-4.5c1.1-1.5,2.2-4.2,4.1-4.8
						C88.1,400.3,86.4,394.2,82.5,395.4L82.5,395.4z"/>
				</g>
			</g>
			<g>
				<g>
					<path class="st3" d="M83.7,419.8c-2.1,4.2-4.3,8.4-6.6,12.6c-1.2,2.1-2.3,4.1-3.6,6.1c-0.6,1-1.2,2-1.8,3
						c-0.3,0.6-0.7,1.1-1.1,1.6c0.9-0.3,1.1-0.7,0.5-1.1c-0.2-0.8-1.7-1.8-2.2-2.5c-0.7-0.8-1.5-1.7-2.2-2.6
						c-1.5-1.8-2.9-3.7-4.2-5.6c-2.7-3.9-5.1-7.9-7.3-12.1c-0.7-1.3-2.3-1.8-3.6-1.5c-3.3,0.8-5.6,3.3-8.1,5.5
						c-2.9,2.6-5.7,5.1-8.6,7.7c-3.1,2.7,1.5,7.2,4.5,4.5c2.3-2,4.5-4.1,6.8-6.1c2.1-1.8,4.4-4.8,7.1-5.5c-1.2-0.5-2.4-1-3.6-1.5
						c2.8,5.3,6,10.5,9.6,15.3c1.7,2.3,3.5,4.5,5.4,6.7c1.6,1.8,3.2,4,5.6,4.6c5.1,1.2,7.9-5.9,9.9-9.3c3.2-5.4,6.2-11,8.9-16.6
						C91,419.4,85.5,416.1,83.7,419.8L83.7,419.8z"/>
				</g>
			</g>
			<g>
				<g>
					<path class="st3" d="M104.1,392.5c-4.7-0.6-9.5-0.3-14.1,0.8l-1.1-16.8c6.2-1.2,12.5-1.7,18.7-1.6"/>
				</g>
				<g>
					<g>
						<path class="st3" d="M104.1,389.4c-5-0.6-10-0.2-14.9,0.9c1.3,1,2.7,2,4,3.1c-0.4-5.6-0.8-11.2-1.1-16.8c-0.8,1-1.6,2-2.3,3.1
							c5.9-1.1,11.9-1.5,17.9-1.5c4.1,0,4.1-6.3,0-6.3c-6.6-0.1-13.1,0.5-19.6,1.7c-1.3,0.2-2.4,1.8-2.3,3.1
							c0.4,5.6,0.8,11.2,1.1,16.8c0.1,2.1,1.9,3.5,4,3.1c4.4-1,8.8-1.2,13.3-0.7C108.2,396.2,108.2,389.8,104.1,389.4L104.1,389.4z"
							/>
					</g>
				</g>
			</g>
		</g>
		<g>
			<g>
				<g>
					<path class="st2" d="M334.6,278.3c10-5.5,22.5-5.3,34.1-4.2c14.2,1.4,28.3,3.8,42,7.3c14.8,3.8,29.3,8.8,44.4,11.5
						c15.1,2.8,31.1,3.2,45.5-1.9c16.7-6,29.6-19.2,38.1-33.9c8.5-14.7,13.1-31.1,17.6-47.2c5.7-2.1,12.3,2.5,14,8
						c1.7,5.5,0,11.4-1.7,16.9c-5.6,17.7-11.8,35.3-22.2,51s-25,24.8-43.5,31.4c-27.2,9.7-57.7,0.4-85.2-8.3
						c-27.5-8.8-55.6-12.5-84.6-10.1c-2.3,0.2-4.7,3.4-2.4,3.5"/>
				</g>
				<g>
					<g>
						<path class="st3" d="M336.2,281c7.7-4.1,16.5-4.7,25-4.3c9.5,0.4,19,1.8,28.4,3.4c19.2,3.4,37.5,9.8,56.4,14.2
							c17.7,4.1,36.9,6.1,54.4,0.2c15-5.1,27.3-15.6,36.3-28.4c11.6-16.4,17.2-36.2,22.6-55.3c-0.7,0.7-1.5,1.5-2.2,2.2
							c4.2-1.3,8.4,1.5,9.9,5.4c2.1,5.3-0.3,11.6-1.9,16.7c-3.4,10.8-7.1,21.5-11.8,31.7c-4.3,9.3-9.4,18.6-16.4,26.1
							c-6.1,6.6-13.6,11.7-21.6,15.7c-9.4,4.7-19.4,8.3-29.9,9.3c-11.1,1-22.3-0.3-33.2-2.6c-22.3-4.7-43.4-13.5-66-17.3
							c-12.8-2.1-25.7-3.2-38.6-3c-3.2,0-6.4,0.2-9.6,0.3c-2.5,0.1-5.5-0.1-7.8,1.2c-3.5,1.9-5.5,7.7-0.3,8.9c4,1,5.7-5.1,1.7-6.1
							c0.2,0.5,0.4,1,0.7,1.5c0,1.4,0.3,1.9,0.9,1.3c0,0,1.1-0.3,1.2-0.3c1.3-0.3,2.9-0.2,4.2-0.3c2.8-0.2,5.6-0.3,8.4-0.3
							c5.4-0.1,10.7,0,16.1,0.4c10.6,0.6,21,2.1,31.4,4.3c20.7,4.4,40.4,12.7,61.2,16.4c9.8,1.8,19.8,2.7,29.8,1.8
							c9.6-0.9,18.6-3.7,27.5-7.5c15.7-6.8,28.8-17.1,37.9-31.7c5.4-8.6,9.6-17.9,13.3-27.3c1.9-4.8,3.6-9.6,5.2-14.5
							c1.6-4.9,3.5-9.8,4.4-14.9c1.5-8.4-0.6-17.4-9.1-21c-2.9-1.2-8.4-2.2-10.7,0.6c-1.3,1.6-1.5,4.6-2.1,6.6
							c-0.7,2.6-1.5,5.1-2.2,7.7c-5.6,18.5-12.9,36.9-26.8,50.8c-6.3,6.3-13.9,11.6-22.4,14.8c-9.8,3.6-20.4,4.5-30.8,3.8
							c-21.5-1.4-41.9-9.5-62.7-14.4c-10.6-2.5-21.3-4.4-32.1-5.6c-9.5-1.1-19.2-2-28.7-0.4c-4.6,0.7-8.9,2.2-13,4.4
							C329.4,277.4,332.6,282.9,336.2,281L336.2,281z"/>
					</g>
				</g>
			</g>
			<g>
				<g>
					<path class="st3" d="M366.9,293.6c-1.9-6.4-2.3-12.9-1-19.4c0.8-4-5.3-5.7-6.1-1.7c-1.5,7.6-1.3,15.3,1,22.8
						C362,299.2,368.1,297.6,366.9,293.6L366.9,293.6z"/>
				</g>
			</g>
			<g>
				<g>
					<path class="st3" d="M399,303.1c0.6-3.3,1.2-6.6,1.9-10c0.3-1.6,0.6-3.1,0.9-4.7c0.1-0.8,0.3-1.6,0.4-2.3
						c0.4-1.8,0.5-0.6-1.1-1c4,1,5.7-5.1,1.7-6.1c-4.4-1.1-6.2,3-6.9,6.6c-1,5.3-2,10.5-2.9,15.8C392.1,305.4,398.2,307.1,399,303.1
						L399,303.1z"/>
				</g>
			</g>
			<g>
				<g>
					<path class="st3" d="M435.5,317.2c1.6-7.9,4.1-15.6,7.5-22.9c1.7-3.7-3.8-6.9-5.5-3.2c-3.7,7.8-6.4,16-8.1,24.4
						C428.5,319.5,434.7,321.2,435.5,317.2L435.5,317.2z"/>
				</g>
			</g>
			<g>
				<g>
					<path class="st3" d="M474.3,299.2c0-0.1,0-0.3,0.1-0.4c-0.5,0.6-1,1.3-1.5,1.9c-0.2,0.1-0.5,0.1-0.7,0.2
						c-0.7-0.3-1.5-0.6-2.2-0.9c0.9,1,1.4,5.9,1.8,7.8c0.6,3,1.1,5.9,1.5,8.9c0.6,4.3,3.1,9,8.1,6.5c3.7-1.8,0.5-7.3-3.2-5.5
						c1.3-0.6,1.6,0.1,1.3-1.6c-0.1-0.7-0.2-1.3-0.3-2c-0.2-1.5-0.5-3.1-0.7-4.6c-0.6-3.3-1.3-6.5-2.1-9.7c-0.6-2.2-1.3-4.7-3.8-5.2
						c-2-0.4-4.1,0.8-4.4,2.9C467.5,301.5,473.7,303.2,474.3,299.2L474.3,299.2z"/>
				</g>
			</g>
			<g>
				<g>
					<path class="st3" d="M504.9,293.5c5,3.9,8.8,8.7,11.5,14.5c1.7,3.7,7.2,0.5,5.5-3.2c-2.8-6.2-7.1-11.6-12.4-15.7
						C506.2,286.6,501.6,291,504.9,293.5L504.9,293.5z"/>
				</g>
			</g>
			<g>
				<g>
					<path class="st3" d="M532,273.9c4.6,0.8,8.6,3,11.7,6.6c2.7,3.1,7.2-1.4,4.5-4.5c-3.8-4.3-8.9-7.2-14.5-8.2
						C529.7,267,528,273.2,532,273.9L532,273.9z"/>
				</g>
			</g>
			<g>
				<g>
					<path class="st3" d="M549.8,244.6c4.2,1.7,8.4,3.4,12.6,5.1c3.8,1.5,5.4-4.6,1.7-6.1c-4.2-1.7-8.4-3.4-12.6-5.1
						C547.7,237,546.1,243.1,549.8,244.6L549.8,244.6z"/>
				</g>
			</g>
			<g>
				<g>
					<path class="st4" d="M552.3,190.8c-9.1-4.2-15.9-13.1-17.7-23c-0.4-2.4-0.5-5.3,1.3-7c2.4-2.3,6.5-1.2,9.1,1
						c6.4,5.5,7.2,15,7.1,23.5c0,1.1,0.3,2.5,1.4,2.4"/>
				</g>
				<g>
					<g>
						<path class="st3" d="M553.9,188.1c-5.4-2.6-9.8-6.6-12.8-11.7c-1.4-2.4-7-16.2,0.1-13.2c5,2.1,6.8,9,7.3,13.8
							c0.5,4-1.3,12.6,4.1,13.8c4,0.9,5.7-5.2,1.7-6.1c0.9,1,1.2,0.9,0.9-0.3c0-0.3,0-0.6,0-0.9c0-0.9,0-1.9-0.1-2.8
							c-0.1-1.8-0.2-3.7-0.5-5.5c-0.5-3.5-1.4-7-3.1-10.2c-3-5.5-10.6-11.7-16.9-7.2c-6.3,4.5-2.7,14.5,0.1,20.1
							c3.4,6.8,9.2,12.4,16,15.7C554.4,195.3,557.6,189.9,553.9,188.1L553.9,188.1z"/>
					</g>
				</g>
			</g>
			<g>
				<g>
					<path class="st4" d="M565.2,185c-1.1-0.7-1.3-2.2-1.4-3.4c-0.7-6.4-1.4-12.8-0.9-19.1s2.5-12.8,6.6-17.7
						c1.6-1.9,4.2-3.7,6.4-2.6c0.8,0.4,1.4,1.1,1.9,1.8c3.7,5.1,3.8,12.1,1.7,18.1c-2.1,5.9-6.1,11-10.3,15.7
						c-1.6,1.8-3.3,3.6-3.7,6"/>
				</g>
				<g>
					<g>
						<path class="st3" d="M567.4,182.7c-1-1-0.8-3.5-0.9-4.8c-0.2-2-0.4-4-0.5-6c-0.2-3.7-0.3-7.6,0.3-11.3c0.5-3.4,1.4-6.9,3.1-10
							c0.8-1.5,1.8-3.3,3.1-4.5c1.8-1.7,2.6-1.1,3.7,0.9c3.2,6,1.3,13.3-2,18.9c-1.8,3.1-4.1,5.9-6.4,8.6c-2.2,2.5-4.3,4.9-5.2,8.2
							c-1.1,4,5.1,5.6,6.1,1.7c0.7-2.5,2.6-4.3,4.3-6.2c1.6-1.8,3.1-3.7,4.4-5.6c2.8-3.8,5.1-8.2,6.1-12.8c0.9-4.1,1-8.5-0.4-12.5
							c-1.2-3.7-3.7-8.3-8-8.7c-9-0.8-13.7,12.9-14.9,19.7c-0.9,5.3-0.8,10.7-0.4,16c0.3,4-0.1,9.8,3.1,12.9
							C565.9,190,570.4,185.5,567.4,182.7L567.4,182.7z"/>
					</g>
				</g>
			</g>
			<g>
				<g>
					<path class="st4" d="M578.1,186.5c0.8-5.6,3.8-10.7,7.8-14.7c4-4,9-6.9,14.1-9.2c2.8-1.3,5.9-2.4,8.9-2.2c3.1,0.2,6.3,2,7.1,5
						c0.9,3-0.8,6.2-3.2,8.1s-5.5,2.8-8.4,3.8c-10,3.2-19.7,7.1-29.1,11.7"/>
				</g>
				<g>
					<g>
						<path class="st3" d="M581.1,187.3c1.2-7.2,5.7-13,11.6-17.1c3.9-2.7,15.9-10.6,19.9-4.6c4.2,6.3-12.7,9.9-15.9,11.1
							c-7.8,2.8-15.5,6.1-23,9.7c-3.7,1.8-0.5,7.3,3.2,5.5c10.2-5,20.6-8.6,31.3-12.4c4.2-1.5,8.2-3.7,10.2-8
							c1.8-3.8,1.2-8.2-1.9-11.1c-7.2-7-18.7-1-25.7,3.4c-7.8,5-14.4,12.4-15.9,21.8C574.4,189.6,580.5,191.4,581.1,187.3
							L581.1,187.3z"/>
					</g>
				</g>
			</g>
		</g>
		<g>
			<g>
				<g>
					<path class="st3" d="M69.6,263.2c9.6-1.1,19.7,4.1,24.4,12.5s3.9,19.7-2.1,27.4c-6,7.7-16.7,11.2-26.1,8.7L69.6,263.2z"/>
				</g>
				<g>
					<g>
						<path class="st3" d="M69.6,266.3c13.4-1.2,25.1,9.3,24.3,22.9c-0.8,13.5-14.1,22.7-27.1,19.5c0.8,1,1.6,2,2.3,3.1
							c1.2-16.2,2.4-32.4,3.7-48.7c0.3-4.1-6-4.1-6.3,0c-1.2,16.2-2.4,32.4-3.7,48.7c-0.1,1.3,1.1,2.7,2.3,3.1
							c16.8,4.2,33.5-7.4,35.1-24.7c1.6-17.2-13.5-31.8-30.6-30.2C65.6,260.4,65.6,266.7,69.6,266.3z"/>
					</g>
				</g>
			</g>
			<g>
				<g>
					<path class="st4" d="M100.2,251.6c1.8,3.8,0.1,7.6-4.1,7.9c-4.2,0.3-7.8-4.9-5.8-8.6C92.2,247.2,98.8,247.6,100.2,251.6"/>
				</g>
				<g>
					<g>
						<path class="st3" d="M98.8,252.4c1,2.2,0.5,4.8-2.1,5.4c-2.4,0.6-4.6-1.2-5.3-3.5c-1.2-4.4,5.7-6.2,7.2-2.3
							c0.7,1.9,3.8,1.1,3.1-0.8c-1.3-3.5-5.2-5.1-8.7-4.2c-3.9,1-5.8,4.9-4.5,8.6c1.3,3.9,5.5,6.4,9.5,5.1c4.4-1.4,5.2-6.1,3.5-9.9
							C100.7,248.9,98,250.6,98.8,252.4L98.8,252.4z"/>
					</g>
				</g>
			</g>
		</g>
	</g>
</g>
<g>
	<g>
		<path class="st8" d="M361.3,276.2c12.4-24.9,19.4-52.9,19.4-82.6c0-102.4-83.1-185.5-185.5-185.5S9.6,91.2,9.6,193.6
			c0,102.4,83.1,185.5,185.5,185.5c37.9,0,73.1-11.4,102.5-30.9c6.6,24.4,29,42.4,55.5,42.4c31.8,0,57.5-25.7,57.5-57.5
			C410.6,304.1,389.2,280.1,361.3,276.2z M195.1,354.6c-88.9,0-161-72.1-161-161c0-88.9,72.1-161,161-161s161,72.1,161,161
			C356.1,282.5,284,354.6,195.1,354.6z M353.1,373.6c-22.4,0-40.5-18.1-40.5-40.5c0-22.4,18.1-40.5,40.5-40.5s40.5,18.1,40.5,40.5
			C393.6,355.5,375.5,373.6,353.1,373.6z"/>
	</g>
</g>
<g class="st9">
	<path class="st10" d="M214.1,336.6c-88.9,0-161-72.1-161-161c0-41.3,15.6-79,41.2-107.5c-36.7,29.5-60.2,74.8-60.2,125.5
		c0,88.9,72.1,161,161,161c47.6,0,90.4-20.7,119.8-53.5C287.4,323.3,252.3,336.6,214.1,336.6z"/>
</g>
<g class="st11">
	<path class="st5" d="M182.1,50.6c88.9,0,161,72.1,161,161c0,31.2-8.9,60.3-24.2,85c23.2-27.9,37.2-63.8,37.2-103
		c0-88.9-72.1-161-161-161c-57.7,0-108.4,30.4-136.8,76C87.9,73.2,132.4,50.6,182.1,50.6z"/>
</g>
<g>
	<circle class="st5" cx="353.1" cy="333.1" r="40.5"/>
	<g>
		<path class="st10" d="M391.1,333.1c-0.1,15.7-10,30.3-24.9,35.7c-15.1,5.5-32.2,0.8-42.5-11.6c-10.2-12.2-11.3-30.2-3.1-43.7
			c8.2-13.6,24.5-20.8,40.1-17.6c15.4,3.2,27.4,15.8,30,31.3C391,329.2,391.1,331.1,391.1,333.1c0,3.2,5,3.2,5,0
			c-0.1-18-11.4-34.2-28.3-40.4c-16.8-6.2-36.4-0.9-47.8,12.9c-11.5,14-13.2,34.1-3.8,49.7c9.3,15.5,27.7,23.5,45.4,20
			c17.2-3.4,31.2-17.9,33.9-35.2c0.4-2.3,0.6-4.6,0.6-6.9C396.1,329.9,391.1,329.9,391.1,333.1z"/>
	</g>
</g>
<g>
	<path class="st12" d="M188.1,20.1c102.4,0,181.5,75.1,181.5,177.5c0,36.9-2.5,44.5-8.5,78.5c13-35,19.5-37.1,19.5-82.5
		c0-102.4-83.1-185.5-185.5-185.5C129.6,8.1,72,42.1,39,93.5C73,52.9,131,20.1,188.1,20.1z"/>
</g>
<g>
	<path class="st13" d="M200.1,366.1c-102.4,0-184.5-83.1-184.5-185.5c0-34,10.1-65.8,27.4-93.2C22,117.5,9.6,154.1,9.6,193.6
		c0,102.4,83.1,185.5,185.5,185.5c34.1,0,66.1-9.2,93.6-25.3C264.4,361.9,227.7,366.1,200.1,366.1z"/>
</g>
<g class="st9">
	<path class="st10" d="M359.1,364.6c-22.4,0-40.5-18.1-40.5-40.5c0-6.4,1.5-12.4,4.1-17.7c-6.3,7.1-10.1,16.5-10.1,26.7
		c0,22.4,18.1,40.5,40.5,40.5c16,0,29.9-9.3,36.4-22.8C382.1,359.3,371.3,364.6,359.1,364.6z"/>
</g>
<g>
	<g>
		<path class="st14" d="M341.3,345.5c0.1,0.3,0.1,0.7,0.2,1c0.1,0.7,0.1,1.3,0.7,1.7c0.6,0.4,1.2,0.2,1.8,0c0.5-0.2,1-0.3,1.5-0.2
			l20.1-30.1l-4.1-2.7L341.3,345.5z"/>
	</g>
	<polygon class="st15" points="360.4,309.4 362.9,305.6 360.4,309.4 360.4,309.4 	"/>
	<path class="st16" d="M366.6,307.6l-2.7,4l4.1,2.7l2-3c1.2-1.7,3.1-3.6,1.4-4.8l1.3,0.8l-1.6-1
		C369.2,305.3,367.7,305.9,366.6,307.6z"/>
	<path class="st15" d="M368.2,304.6c-1.7-1.2-4.1-0.7-5.2,1C364.1,303.9,366.4,303.4,368.2,304.6z"/>
	<polygon class="st17" points="360.4,309.4 360.4,309.4 360.4,309.4 360.4,309.4 360.4,309.4 	"/>
	<polygon class="st17" points="360.4,309.4 358.8,311.8 360.4,309.4 	"/>
	<polygon class="st17" points="368.8,319.9 370,318 368.8,319.9 	"/>
	<path class="st18" d="M340.3,347.3l-0.8-0.1l-4.9,10.6l8.9-6.8l0.3-0.3l1.6-2.5c-0.4-0.1-0.9,0.1-1.3,0.2c-0.7,0.2-1.3,0.4-2,0
		c-0.7-0.4-0.7-1.1-0.8-1.8c0-0.3-0.1-0.6-0.1-0.9l-0.6,0.8C340.4,346.7,340.3,347,340.3,347.3z"/>
	<path class="st17" d="M344,348.2c-0.6,0.2-1.2,0.4-1.8,0c-0.6-0.4-0.7-1-0.7-1.7c0-0.4-0.1-0.7-0.2-1l-0.1,0.1
		c0.3,0.9,0,2.1,0.9,2.7c1.1,0.7,2.2-0.4,3.3-0.2l0.1-0.1C345,347.9,344.5,348.1,344,348.2z"/>
	<path class="st17" d="M342.1,348.3c-1-0.6-0.6-1.8-0.9-2.7l-0.1,0.1c0.1,0.3,0.1,0.6,0.1,0.9C341.3,347.2,341.4,347.9,342.1,348.3
		c0.6,0.5,1.3,0.3,1.9,0.1c0.4-0.1,0.9-0.3,1.3-0.2l0.1-0.1C344.3,347.9,343.2,349,342.1,348.3z"/>
	<polygon class="st17" points="371,306.5 368.2,304.6 371,306.5 	"/>
	<path class="st19" d="M338.4,344.8c0.7-0.3,1.3-0.7,2.1-0.3c0.4,0.2,0.6,0.6,0.8,0.9l20.2-30.3l-3.4-2.3l-21.3,32l-0.1,0.3l0,0
		C337.3,345.4,337.8,345.1,338.4,344.8z"/>
	<path class="st20" d="M363.9,311.7l2.7-4c1.2-1.7,2.7-2.3,4.4-1.2l-2.8-1.9c-1.7-1.2-4.1-0.7-5.2,1l-2.5,3.8L363.9,311.7z"/>
	
		<rect x="359.1" y="310.3" transform="matrix(0.5552 -0.8317 0.8317 0.5552 -99.1622 439.1631)" class="st21" width="3.9" height="4"/>
	<path class="st17" d="M340.5,344.7c0.4,0.2,0.6,0.6,0.7,0.9l0.1-0.1C341.2,345.1,340.9,344.8,340.5,344.7c-0.8-0.5-1.5-0.2-2.1,0.2
		c-0.6,0.3-1.1,0.6-1.7,0.3l0,0l0,0.1C338,345.8,339,343.9,340.5,344.7z"/>
	<polygon class="st5" points="371.1,316.5 371.1,316.5 373.6,312.7 	"/>
	<path class="st22" d="M365.6,317.9L345.5,348c0.2,0,0.5,0.1,0.7,0.3c0.7,0.6,0.7,1.4,0.6,2.1c-0.1,0.6-0.1,1.2,0.3,1.7l0,0l0.3-0.2
		l21.3-32l0,0L365.6,317.9z"/>
	<path class="st23" d="M369.9,311.4l-2,3l3.1,2.1l2.5-3.8c1.2-1.7,0.7-4.1-1-5.2l-1.3-0.8C373,307.8,371.1,309.7,369.9,311.4z"/>
	
		<rect x="366.4" y="315.3" transform="matrix(0.5553 -0.8317 0.8317 0.5553 -99.9711 447.3637)" class="st24" width="3.9" height="3.6"/>
	<path class="st25" d="M343.4,350.9l-8.9,6.8l-2,4.2c0.1,0.1,0.2,0.2,0.3,0.3c0.3,0.2,0.7,0.3,1.1,0l13-10c-0.4-0.5-0.4-1.2-0.3-1.8
		c0.1-0.7,0.1-1.4-0.5-1.9c-0.2-0.2-0.5-0.3-0.7-0.3l-1.6,2.5L343.4,350.9z"/>
	<path class="st5" d="M346.8,350.4c0.1-0.7,0.1-1.5-0.6-2.1c-0.2-0.2-0.5-0.3-0.7-0.3l-0.1,0.1c0.2,0,0.5,0.1,0.7,0.3
		c1.3,1.1-0.1,2.7,0.9,3.8l0.1-0.1l0,0C346.7,351.7,346.7,351.1,346.8,350.4z"/>
	<path class="st26" d="M340.4,344.7c-0.7-0.4-1.3-0.1-2,0.3c-0.5,0.3-1.1,0.6-1.8,0.4l-4.3,15.8c0,0.1,0,0.3,0,0.4
		c0,0.1,0.1,0.3,0.2,0.4l2-4.2l4.2-7.6l1.6-2.8c0.1-0.3,0.2-0.5,0.4-0.8l0.6-0.8C341.1,345.3,340.9,345,340.4,344.7z"/>
	
		<rect x="362.8" y="312.3" transform="matrix(0.5553 -0.8317 0.8317 0.5553 -99.5781 443.3452)" class="st0" width="3.9" height="4.9"/>
	<g>
		<g>
			<path class="st10" d="M373.3,306.2c-1.5-1-2.9-2-4.4-2.9c-1.7-1.1-3.8-1.1-5.5-0.1c-1.1,0.7-1.7,1.7-2.4,2.7
				c-0.6,0.9-1.2,1.8-1.8,2.7c-0.5,0.7-0.1,1.6,0.5,2.1c2.6,1.8,5.3,3.5,7.9,5.3c0.9,0.6,1.8,1.2,2.7,1.8c0.7,0.5,1.6,0.1,2.1-0.5
				c0.8-1.2,1.6-2.4,2.4-3.6C376.4,311.1,375.7,307.9,373.3,306.2c-0.7-0.5-1.7-0.1-2.1,0.5c-0.4,0.7-0.1,1.6,0.5,2.1
				c0.3,0.2,0.6,0.6,0.8,1c0.1,0.2,0.2,0.8,0.1,1c-0.1,0.6-0.4,1.1-0.8,1.6c-0.7,1.1-1.4,2.2-2.2,3.2c0.7-0.2,1.4-0.4,2.1-0.5
				c-2.7-1.8-5.3-3.6-8-5.3c-0.9-0.6-1.8-1.2-2.6-1.8c0.2,0.7,0.4,1.4,0.5,2.1c0.5-0.7,0.9-1.4,1.4-2c0.4-0.6,0.9-1.5,1.4-2
				c0.8-0.8,1.9-0.9,3-0.2c0.8,0.5,1.6,1.1,2.4,1.6c0.6,0.4,1.3,0.9,1.9,1.3c0.7,0.4,1.7,0.1,2.1-0.5
				C374.3,307.5,374,306.7,373.3,306.2z"/>
		</g>
	</g>
	<g>
		<g>
			<path class="st10" d="M368.7,313.2c-2.5-1.7-5-3.4-7.5-5c-0.7-0.5-1.6-0.1-2.1,0.5c-1,1.5-2.1,3-3.1,4.5
				c-0.5,0.7-0.1,1.6,0.5,2.1c2.7,1.8,5.3,3.6,8,5.3c0.9,0.6,1.7,1.2,2.6,1.7c0.7,0.5,1.6,0.1,2.1-0.5c1-1.5,2.1-3,3.1-4.5
				c0.5-0.7,0.1-1.6-0.5-2.1C370.7,314.6,369.7,313.9,368.7,313.2c-1.6-1.1-3.1,1.5-1.5,2.6c1,0.7,2.1,1.4,3.1,2.1
				c-0.2-0.7-0.4-1.4-0.5-2.1c-1,1.5-2.1,3-3.1,4.5c0.7-0.2,1.4-0.4,2.1-0.5c-2.7-1.8-5.3-3.6-8-5.3c-0.9-0.6-1.7-1.2-2.6-1.8
				c0.2,0.7,0.4,1.4,0.5,2.1c1-1.5,2.1-3,3.1-4.5c-0.7,0.2-1.4,0.4-2.1,0.5c2.5,1.7,5,3.4,7.5,5
				C368.8,316.9,370.3,314.3,368.7,313.2z"/>
		</g>
	</g>
	<g>
		<g>
			<path class="st10" d="M365.5,317.9c-2.5-1.7-5-3.3-7.5-5c-0.7-0.5-1.6-0.1-2.1,0.5c-6.1,9.1-12.1,18.2-18.2,27.3
				c-0.8,1.2-2.1,2.6-2.5,4.1c-0.2,0.8,0.3,1.6,1,1.8c0.6,0.2,1.3,0.1,1.8,0c0.4-0.1,1.5-0.9,1.8-0.6c0.3,0.3,0.1,1.3,0.3,1.7
				c0.2,0.7,0.6,1.3,1.1,1.7c0.6,0.4,1.3,0.6,2,0.5c0.4,0,1.7-0.7,2-0.3c0.2,0.2-0.1,1.6,0,1.9c0.1,0.6,0.3,1.2,0.8,1.7
				c0.4,0.4,1.3,0.6,1.8,0.2c1.1-0.8,1.8-2.2,2.5-3.3c1.6-2.4,3.2-4.9,4.9-7.3c3.7-5.6,7.5-11.2,11.2-16.9c0.9-1.3,1.8-2.6,2.6-4
				c0.5-0.7,0.1-1.6-0.5-2.1C367.5,319.3,366.5,318.6,365.5,317.9c-1.6-1.1-3.1,1.5-1.5,2.6c1,0.7,2.1,1.4,3.1,2.1
				c-0.2-0.7-0.4-1.4-0.5-2.1c-6,9-12,18.1-18.1,27.1c-0.6,0.9-1.2,1.7-1.7,2.6c-0.2,0.2-0.3,0.5-0.5,0.7c-0.4,0.7,0.7-0.5,0.1-0.1
				c0.6,0.1,1.2,0.2,1.8,0.2c0.1,0.2,0.1-0.6,0.1-0.8c0-0.3,0-0.6,0-1c-0.1-0.8-0.4-1.5-1-2c-0.6-0.5-1.3-0.8-2.1-0.8
				c-0.4,0-1.9,0.5-2.1,0.4c-0.1-0.1-0.1-0.7-0.1-0.9c-0.1-0.4-0.1-0.8-0.3-1.2c-0.3-0.6-0.7-1.1-1.3-1.5c-0.7-0.4-1.5-0.5-2.3-0.3
				c-0.4,0.1-1.6,0.9-1.9,0.8c0.3,0.6,0.7,1.2,1,1.8c0.2-0.6-0.2,0.3,0-0.1c0.1-0.2,0.2-0.4,0.4-0.6c0.5-0.7,1-1.5,1.4-2.2
				c1.6-2.4,3.2-4.8,4.8-7.3c3.7-5.6,7.4-11.1,11.1-16.7c0.8-1.3,1.7-2.5,2.5-3.8c-0.7,0.2-1.4,0.4-2.1,0.5c2.5,1.7,5,3.3,7.5,5
				C365.6,321.6,367.1,319,365.5,317.9z"/>
		</g>
	</g>
	<g>
		<g>
			<path class="st10" d="M348.1,350.4c0.1-1.6-0.5-3.1-2.1-3.6c-0.7-0.2-1.4-0.1-2.1,0.1c-0.4,0.1-0.9,0.4-1.1,0.2
				c-0.1-0.2-0.1-0.6-0.1-0.8c0-0.4-0.1-0.8-0.2-1.2c-0.2-0.7-0.7-1.3-1.3-1.6c-0.7-0.4-1.6-0.5-2.4-0.2c-0.4,0.1-1.3,0.8-1.7,0.7
				c-0.8-0.2-1.6,0.2-1.8,1c-1.3,4.9-2.6,9.8-3.9,14.7c-0.3,0.9-0.6,1.9-0.1,2.9c0.8,1.6,2.6,1.6,3.9,0.6c2.2-1.7,4.4-3.4,6.6-5.1
				c2-1.5,4-3,5.9-4.6c0.6-0.5,1-1.3,0.5-2.1C348,351.1,348.1,350.8,348.1,350.4c0.2-1.9-2.8-1.9-3,0c-0.1,0.9,0,1.8,0.5,2.5
				c0.2-0.7,0.4-1.4,0.5-2.1c-3.8,2.9-7.6,5.9-11.5,8.8c-0.3,0.3-0.7,0.5-1,0.8c-0.1,0.1-0.5,0.3-0.5,0.4c0.1-0.4,1,0.5,0.7,0.7
				c0,0,0-0.2,0.1-0.2c0.1-0.3,0.2-0.6,0.2-0.9c0.7-2.7,1.5-5.4,2.2-8.1c0.6-2.2,1.2-4.4,1.8-6.6c-0.6,0.3-1.2,0.7-1.8,1
				c0.7,0.1,1.4,0.1,2.1-0.2c0.4-0.1,1-0.7,1.4-0.6c-0.3,0,0,0.6,0,0.8c0.1,0.6,0.2,1.2,0.5,1.7c0.7,1.2,2.1,1.7,3.4,1.4
				c0.3-0.1,1.1-0.5,1.4-0.4c0,0-0.1-0.1,0,0c0.1,0.1,0,0.6,0,0.7C344.9,352.3,347.9,352.3,348.1,350.4z"/>
		</g>
	</g>
	<g>
		<g>
			<path class="st10" d="M332.5,361.2c0,0.1,0,0.3,0,0.4c0,0.1,0.1,0.3,0.2,0.4c0.1,0.1,0.2,0.2,0.3,0.3c0.3,0.2,0.7,0.3,1.1,0
				l6.3-4.8c-1.7-1.5-3.7-2.7-5.8-3.3L332.5,361.2z"/>
		</g>
	</g>
</g>
<g>
	<path class="st13" d="M296.7,346.2c6.6,24.4,29,42.4,55.5,42.4c16,0,30.4-6.5,40.8-17c-9.5,6.9-21.2,11-33.8,11
		c-26.5,0-48.8-18-55.5-42.4L296.7,346.2z"/>
</g>
<g>
	<g>
		<path class="st12" d="M344.9,280.7"/>
	</g>
	<g>
		<path class="st12" d="M346.7,280.6c20.9-0.7,41,11,50.1,31.3c9.5,21.1,4,45-11.8,60.1c21.2-13,29.9-40,19.4-63.3
			C394.4,286.3,369.8,274.9,346.7,280.6z"/>
	</g>
</g>
<g>
	<g>
		<path class="st10" d="M363.4,277.5c18.4-37.1,24.1-79.8,16.1-120.4c-6.5-32.9-22-63.7-44.3-88.7c-22.2-24.8-50.9-43.5-82.6-53.7
			c-33.2-10.7-69.3-11.8-103.2-3.4c-32.4,8.1-62.4,25-86.2,48.4c-23.8,23.4-41.2,53.1-49.8,85.3c-9,33.5-8.5,69.5,1.5,102.7
			c9.6,32.1,27.9,61.4,52.5,84.1c24.6,22.7,55.1,38.7,87.8,45.7c39.1,8.4,80.4,4.1,116.9-12.3c9.3-4.2,18.2-9.1,26.7-14.7
			c-1.2-0.5-2.4-1-3.7-1.5c4.6,16.4,16.1,30.6,31.4,38.1c15.6,7.6,34.1,8.1,50.1,1.3c15-6.4,26.8-18.9,32.5-34.1
			c6.1-16,4.8-34.3-3.3-49.4c-8.9-16.6-25.5-28.3-44.1-31c-1.3-0.2-2.7,0.3-3.1,1.7c-0.3,1.2,0.4,2.9,1.7,3.1
			c15.3,2.2,29.3,10.7,38.1,23.6c8.7,13,11.7,29.3,7.8,44.4c-3.7,14.6-13.5,27.2-26.7,34.6c-13.8,7.7-30.7,8.9-45.5,3.5
			c-16.6-6-29.4-20.2-34.2-37.2c-0.4-1.5-2.3-2.4-3.7-1.5c-34.1,22.6-75.1,33.2-115.9,30c-32.9-2.6-64.8-14.3-91.6-33.4
			c-26.3-18.7-47.4-44.5-60.7-73.9C14.3,238,9.4,203.6,13.6,170.2c4.1-32.5,17.2-63.8,37.5-89.5c20-25.4,46.6-45.5,76.7-57.3
			c31.4-12.4,66.1-15.9,99.4-10c32.2,5.7,62.6,20.1,87.4,41.5c24.5,21.2,43.3,48.7,53.8,79.4c12.2,35.8,13,75.2,2.2,111.6
			c-3,10-6.8,19.7-11.4,29.1C357.7,277.8,362,280.3,363.4,277.5z"/>
	</g>
</g>
<g>
	<g>
		<path class="st10" d="M353.6,193.6c0,16.7-2.6,33.3-7.8,49.1c-4.9,15.2-12.2,29.6-21.5,42.7c-9.1,12.9-20.3,24.5-32.8,34.1
			c-12.7,9.7-26.8,17.5-41.8,23c-15.6,5.7-32,8.9-48.5,9.5c-16.7,0.6-33.4-1.3-49.4-5.9c-15.5-4.4-30.3-11.2-43.8-20
			c-13.2-8.7-25.1-19.4-35.2-31.6c-10.1-12.2-18.5-26.1-24.5-40.8c-6.2-15.2-10-31.3-11.3-47.6c-1.3-16.8,0-33.7,4-50
			c3.8-15.6,10-30.6,18.4-44.4C67.8,97.9,78.1,85.6,90,75c11.9-10.6,25.4-19.3,39.8-25.9c14.8-6.7,30.8-11.2,46.9-13
			c16.7-1.9,33.6-1.2,50.1,2.1c15.9,3.2,31.3,8.9,45.4,16.8c13.9,7.7,26.5,17.5,37.5,29c11,11.5,20.3,24.7,27.4,39
			c7.2,14.5,12.2,30.2,14.7,46.2C353,177.3,353.6,185.5,353.6,193.6c0,3.2,5,3.2,5,0c0-17.1-2.7-34.2-7.9-50.4
			c-5.1-15.7-12.6-30.6-22.1-44c-9.6-13.4-21.1-25.4-34.2-35.4c-13.1-10-27.6-18-43.1-23.7c-15.9-5.9-32.8-9.1-49.8-9.8
			c-17.2-0.7-34.5,1.4-51,6c-15.9,4.5-31.1,11.5-45,20.6c-13.7,9-26.1,20.1-36.5,32.7c-10.5,12.8-19,27-25.3,42.3
			c-6.4,15.6-10.3,32.3-11.6,49.1c-1.3,17.2,0.1,34.6,4.1,51.4c3.9,16.1,10.3,31.6,18.9,45.8c8.5,14,19.1,26.8,31.4,37.7
			c12.3,10.9,26.1,19.9,41.1,26.7c15.4,7,31.8,11.5,48.6,13.4c17.2,2,34.7,1.2,51.6-2.2c16.3-3.3,32.1-9.2,46.7-17.3
			c14.3-8,27.5-18.2,38.8-30c11.3-11.8,20.8-25.4,28.1-40c7.5-15,12.6-31.1,15.1-47.6c1.3-8.3,1.9-16.8,1.9-25.2
			C358.6,190.4,353.6,190.4,353.6,193.6z"/>
	</g>
</g>
</svg>
