<?xml version="1.0" encoding="utf-8"?>
<!-- Generator: Adobe Illustrator 24.2.0, SVG Export Plug-In . SVG Version: 6.00 Build 0)  -->
<svg version="1.1" id="Layer_1" xmlns="http://www.w3.org/2000/svg" xmlns:xlink="http://www.w3.org/1999/xlink" x="0px" y="0px"
	 viewBox="0 0 418 400" style="enable-background:new 0 0 418 400;" xml:space="preserve">
<style type="text/css">
	.st0{fill:#F7C402;}
	.st1{clip-path:url(#SVGID_2_);}
	.st2{fill:#4287C7;}
	.st3{fill:#1D1D1B;}
	.st4{fill:#E4252E;}
	.st5{fill:#0065AF;}
	.st6{fill:#FFFFFF;}
	.st7{fill:#C4E3E6;}
	.st8{fill:#E66869;}
	.st9{fill:#7DC4CA;}
	.st10{opacity:0.32;}
	.st11{opacity:0.42;}
	.st12{fill:#D2E8EB;}
	.st13{fill:#42797D;}
	.st14{fill:#F72872;}
	.st15{fill:#390075;}
	.st16{fill:#FFDA83;}
	.st17{fill:#AA8B12;}
	.st18{fill:#993637;}
	.st19{fill:#729496;}
	.st20{fill:#FDEAAB;}
	.st21{fill:#F5C3C3;}
	.st22{fill:#E7F3F4;}
	.st23{fill:#FFF0D1;}
	.st24{fill:#BFA362;}
	.st25{fill:#C2E1E3;}
</style>
<g>
	<circle class="st0" cx="195" cy="195" r="159"/>
</g>
<g>
	<defs>
		<circle id="SVGID_1_" cx="195.8" cy="194.2" r="158.2"/>
	</defs>
	<clipPath id="SVGID_2_">
		<use xlink:href="#SVGID_1_"  style="overflow:visible;"/>
	</clipPath>
	<g class="st1">
		<g>
			<g>
				<path d="M253.1,248.2c15.4-10,27.8-24.3,35.4-41.1c1.5-3.3-3.4-6.2-4.9-2.9c-7.2,15.9-18.7,29.5-33.4,39
					C247.2,245.3,250,250.2,253.1,248.2L253.1,248.2z"/>
			</g>
		</g>
		<g>
			<g>
				<path class="st2" d="M283.4,390.1c-12.5-40.2-53.3-166.4-65.8-206.6c-0.9-2.9-2-6-4.7-7.4c-1.8-1-117.4,5.5-118.8,7
					c-6.3,7-8.8,22.2-17.7,35.4c13.2,43.6,38.3,130.3,50.6,174"/>
			</g>
			<g>
				<g>
					<path d="M286.2,389.3c-11.7-37.8-24-75.5-36.1-113.2c-6.6-20.5-13.2-41.1-19.7-61.6c-2.6-8-5.1-16-7.6-24.1
						c-1.7-5.5-3.3-16.7-10.3-17.3c-3.5-0.3-7.2,0.1-10.8,0.2c-7.1,0.3-14.2,0.6-21.3,1c-17.5,0.9-34.9,1.9-52.4,3
						c-7.2,0.5-14.3,0.9-21.5,1.5c-4,0.3-8.2,0.3-12.1,1.2c-2.3,0.5-3.5,2.4-4.8,4.4c-3.4,5.3-5.4,11.6-7.8,17.4
						c-1.5,3.6-3.1,7.1-4.9,10.4c-0.9,1.6-2.2,3.1-2.9,4.8c-0.6,1.5-0.2,2.6,0.3,4.1c1.4,4.8,2.9,9.5,4.3,14.3
						c14.2,47.8,28.1,95.8,41.8,143.8c1.3,4.7,2.7,9.3,4,14c1,3.5,6.5,2,5.5-1.5c-13.2-46.7-26.7-93.4-40.5-140
						c-3.4-11.4-6.7-22.7-10.2-34.1c-0.1,0.7-0.2,1.5-0.3,2.2c5.8-8.9,8.8-18.9,13.3-28.5c0.8-1.7,1.7-3.5,2.9-5.1
						c0.3-0.4,1.4-2.1,0.5-0.9c-0.8,1.1-0.7,0.1-0.4,0.2c0.2,0.1,0.6-0.1,0.8-0.2c0.1,0,0.7-0.1,0.3,0c-0.5,0.1,0.5-0.1,0.6-0.1
						c8.2-0.9,16.5-1.4,24.7-2c24.4-1.6,48.9-3.1,73.4-4.1c4-0.2,8-0.3,12.1-0.5c1.2,0,2.5-0.1,3.7-0.1c0.4,0,0.8,0,1.2,0
						c0.9,0,0.4,0.3,0,0c3.3,3.5,4.3,10.5,5.8,15.1c1.8,5.6,3.5,11.2,5.3,16.8c9.7,30.5,19.5,61,29.2,91.4
						c8.8,27.4,17.6,54.7,26.2,82.1c0.7,2.2,1.4,4.4,2,6.5C281.8,394.3,287.3,392.8,286.2,389.3L286.2,389.3z"/>
				</g>
			</g>
		</g>
		<g>
			<g>
				<path class="st2" d="M106.9,181c-1.7-5.9-4.2-13.1-6.6-18.7c6.3-3.1,12.4-4.5,18.8-6.8c5-1.7,10.8-3.2,15.5-4.3
					c0,0,5,11.8,7.7,19.4"/>
			</g>
			<g>
				<g>
					<path d="M109.6,180.2c-1.9-6.6-4.2-13-6.9-19.4c-0.3,1.3-0.7,2.6-1,3.9c5.6-2.7,11.7-4.3,17.6-6.3c5.3-1.8,10.7-3.2,16.1-4.5
						c-1.1-0.4-2.1-0.9-3.2-1.3c2.6,6.2,5.2,12.4,7.4,18.8c1.2,3.4,6.7,2,5.5-1.5c-2.4-6.8-5.2-13.5-8-20.1
						c-0.5-1.2-2.1-1.6-3.2-1.3c-11.8,2.9-24,6.2-35,11.4c-1.5,0.7-1.6,2.6-1,3.9c2.5,5.9,4.5,11.9,6.3,18
						C105.1,185.2,110.6,183.8,109.6,180.2L109.6,180.2z"/>
				</g>
			</g>
		</g>
		<g>
			<g>
				<path class="st2" d="M185.1,160.4c-1.7-5.9-4.2-13.1-6.6-18.7c6.3-3.1,12.4-4.5,18.8-6.8c5-1.7,10.8-3.2,15.5-4.3
					c0,0,5,11.8,7.7,19.4"/>
			</g>
			<g>
				<g>
					<path d="M187.8,159.6c-1.9-6.6-4.2-13-6.9-19.4c-0.3,1.3-0.7,2.6-1,3.9c5.6-2.7,11.7-4.3,17.6-6.3c5.3-1.8,10.7-3.2,16.1-4.5
						c-1.1-0.4-2.1-0.9-3.2-1.3c2.6,6.2,5.2,12.4,7.4,18.8c1.2,3.4,6.7,2,5.5-1.5c-2.4-6.8-5.2-13.5-8-20.1
						c-0.5-1.2-2.1-1.6-3.2-1.3c-11.8,2.9-24,6.2-35,11.4c-1.5,0.7-1.6,2.6-1,3.9c2.5,5.9,4.5,11.9,6.3,18
						C183.4,164.7,188.9,163.2,187.8,159.6L187.8,159.6z"/>
				</g>
			</g>
		</g>
		<g>
			<g>
				<path class="st3" d="M146,173.8c-4.6-9.1-9.1-18.2-13.2-27.6c-4.2-9.6-8.8-20-10.4-30.4c-0.8-5.3,0.1-10.3,2-15.2
					c1.5-4.1,3.1-9.1,6.6-11.9c3.8-3.1,7.4-4.1,12.2-4.8c5.3-0.7,10.4-1.3,15.6,0.5c3.5,1.2,4.9-4.3,1.5-5.5
					c-5.8-2.1-11.7-1.4-17.7-0.7c-5.1,0.7-9.2,1.5-13.5,4.6c-4.1,3-6,6.1-8.1,10.7c-2.3,5.1-4.2,10.4-4.6,16
					c-0.5,6.1,1.2,12.1,3.1,17.9c1.8,5.6,3.9,11.1,6.2,16.6c4.6,11.1,10,21.9,15.4,32.6C142.8,180,147.7,177.1,146,173.8L146,173.8z
					"/>
			</g>
		</g>
		<g>
			<g>
				<path class="st4" d="M161.6,170.6c-8.7-14.5-18-29.3-22.8-45.7c-1.2-4.1-1.8-8.3-0.6-12.5c1.1-4,3.3-7.6,5.5-11.1
					c0.9-1.4,1.6-3.1,3.3-3.7c1.5-0.6,3.2-0.6,4.8-1.3c1.6-0.7,2.7-1.3,4.5-1.2c2,0,3.9,0.3,5.8,0.1c3.6-0.3,3.7-6,0-5.7
					c-4.1,0.4-7.8-0.7-11.7,1.1c-3.3,1.5-6.9,1.3-9.3,4.4c-5.4,6.8-10.1,16-9.2,24.9c1,9.4,5.7,18.7,9.8,27.1
					c4.5,9.1,9.7,17.8,14.9,26.5C158.6,176.6,163.5,173.7,161.6,170.6L161.6,170.6z"/>
			</g>
		</g>
		<g>
			<g>
				<path class="st4" d="M262.3,129.2c14.5,10.8,23,25.9,25.7,43.7c2.5,16.4,0.8,33.1,0.8,49.5c-0.1,10.6-0.4,21.1-1.1,31.7
					c-0.7,10.6-1.2,21.3,0,31.9c1.8,16.2,6.8,31.7,15.9,45.3c8.4,12.7,19.5,23.1,29.8,34.2c2.5,2.7,6.5-1.3,4-4
					c-9.2-9.9-19.2-19.2-27-30.3c-9.4-13.3-15.1-28.5-16.9-44.7c-1.2-10.8-0.8-21.6-0.1-32.4c0.7-10.5,1.1-20.8,1.1-31.3
					c0.1-16.7,1.6-33.6-0.8-50.2c-1.3-8.9-3.8-17.6-8.1-25.5c-5-9.1-12.1-16.6-20.4-22.8C262.3,122.1,259.4,127,262.3,129.2
					L262.3,129.2z"/>
			</g>
		</g>
		<g>
			<g>
				<path class="st3" d="M385.4,326.1c-4.6-4.8-14-3.9-20.1-4.4c-11.1-1.1-21.9-3.9-31.2-10.3c-15-10.3-24.5-27.7-30-44.7
					c-3.7-11.6-5.5-23.7-5.8-35.8c-0.3-12.7,1.3-25.4,2.6-38c2.9-28.9,5.3-58.4-2.2-86.8c-0.9-3.5-6.4-2-5.5,1.5
					c6.9,25.7,5.2,52.4,2.7,78.6c-1.3,13-3.1,26-3.3,39.1c-0.2,12.1,1.1,24.3,4,36c4.7,18.5,13.9,37.8,28.6,50.4
					c9.4,8.1,20.8,13,33.1,14.8c5.1,0.8,10.2,1.1,15.3,1.5c1.9,0.2,3,0.3,4.9,0.8c0.4,0.1,0.8,0.2,1.2,0.4c0.7,0.2,0,0,0.5,0.2
					c1,0.4,0.7,0.3,1.1,0.8C384,332.7,388,328.7,385.4,326.1L385.4,326.1z"/>
			</g>
		</g>
		<g>
			<g>
				<path class="st5" d="M303.7,362.9c-12.5-40.2-53.3-166.4-65.8-206.6c-0.9-2.9-2-6-4.7-7.4c-1.8-1-4-1.3-6-0.8
					c-43.9,11.4-86.3,22.3-133,35c13.2,43.6,40.9,138.6,53.2,182.3"/>
			</g>
			<g>
				<g>
					<path d="M306.4,362.1c-12.3-39.7-25.2-79.1-37.8-118.7c-6.7-21-13.4-41.9-20.1-62.9c-2.4-7.5-4.8-15-7.1-22.6
						c-1.6-5.2-3.3-11-9.3-12.5c-3.5-0.9-6.8,0.3-10.2,1.2c-4.6,1.2-9.1,2.4-13.7,3.5c-38.3,9.9-76.6,19.9-114.8,30.3
						c-1.5,0.4-2.4,2-2,3.5c14.7,48.8,29,97.8,43.1,146.9c3.4,11.8,6.8,23.6,10.1,35.4c1,3.5,6.5,2,5.5-1.5
						c-13.8-49.1-28.2-98-42.6-146.9c-3.5-11.8-7-23.6-10.6-35.4c-0.7,1.2-1.3,2.3-2,3.5c33.3-9,66.6-17.8,100-26.4
						c8.1-2.1,16.3-4.2,24.4-6.3c3.4-0.9,9-3.6,12.4-1.7c2.5,1.4,3.1,4.8,3.8,7.3c2.2,7.2,4.5,14.4,6.8,21.6
						c13.5,42.4,27.1,84.8,40.7,127.2c6,18.7,12,37.4,17.8,56.2C302,367.1,307.5,365.6,306.4,362.1L306.4,362.1z"/>
				</g>
			</g>
		</g>
		<g>
			<g>
				<path class="st6" d="M142,217.3c-0.1-5.1,2.3-10.1,7.3-12c5.6-2.2,10.9,0.9,14.4,5.2c2.4,2.8,6.4-1.2,4-4
					c-5.1-6-13-9.5-20.7-6.4c-7,2.8-10.9,9.8-10.8,17.2C136.4,221,142.1,221,142,217.3L142,217.3z"/>
			</g>
		</g>
		<g>
			<g>
				<path class="st6" d="M195,184.4c2.2,7.8,4.7,15.5,6.7,23.4c0.9,3.5,6.4,2,5.5-1.5c-2-7.9-4.4-15.6-6.7-23.4
					C199.5,179.4,194,180.9,195,184.4L195,184.4z"/>
			</g>
		</g>
		<g>
			<g>
				<path class="st6" d="M190.3,200.9c7.9-3.6,16.6-6.3,25.1-7.8c3.6-0.6,2.1-6.1-1.5-5.5c-9,1.6-18.1,4.6-26.4,8.4
					C184.1,197.5,187,202.4,190.3,200.9L190.3,200.9z"/>
			</g>
		</g>
		<g>
			<g>
				<path class="st3" d="M163.2,103.8c-1.1-10.3-2.1-20.5-3.2-30.8c-0.1-0.9-0.1-1.9,0.5-2.5c0.5-0.5,1.3-0.6,2-0.7
					c15.8-1.2,31.6-1.9,47.4-1.9c0.6,0,1.2,0,1.7,0.4c0.7,0.5,0.8,1.4,0.8,2.3c0.6,11.1,1.2,22.3,1.8,33.4
					c-7.9,0.4-15.3-0.5-21.6-0.8C183.4,102.7,172.4,102.5,163.2,103.8z"/>
			</g>
			<g>
				<g>
					<path class="st3" d="M166.1,103.8c-1-9.4-1.9-18.9-2.9-28.3c-0.1-0.6-0.7-2.8-0.3-3.4c-0.7,1.1,1.5,0.4,2.2,0.4
						c2.5-0.2,5-0.4,7.5-0.5c4.8-0.3,9.6-0.5,14.3-0.7c4.8-0.2,9.6-0.3,14.4-0.4c2.4,0,5.1,0.2,7.5-0.1c0.4,0,0.8,0,1.2,0
						c-0.4-0.4-0.5-0.2-0.3,0.4c0.3,1.1,0.1,2.5,0.2,3.7c0.5,9.7,1,19.4,1.5,29.1c0.9-0.9,1.9-1.9,2.8-2.8c-8.6,0.3-17.2-0.7-25.8-1
						c-8.4-0.3-16.8-0.3-25.2,0.8c-3.6,0.5-3.6,6.2,0,5.7c8.3-1.1,16.8-1.1,25.2-0.8c8.6,0.3,17.2,1.3,25.8,1
						c1.5-0.1,2.9-1.3,2.8-2.8c-0.3-5.8-0.6-11.5-0.9-17.3c-0.3-5.6-0.1-11.4-0.9-16.9c-0.8-5.5-6-4.7-10.3-4.6
						c-6,0.1-12.1,0.2-18.1,0.5c-5.8,0.2-11.6,0.5-17.5,0.9c-3.6,0.2-10.2-0.6-11.9,3.6c-0.8,2.2-0.1,4.9,0.1,7.2
						c0.3,2.9,0.6,5.7,0.9,8.6c0.6,5.9,1.2,11.9,1.8,17.8C160.7,107.4,166.4,107.4,166.1,103.8z"/>
				</g>
			</g>
		</g>
		<g>
			<g>
				<path class="st3" d="M192.3,64.7c-1.3-2.9-2.7-5.9-4-8.8c-0.9-2-1.6-4.6-3.6-6c-1.7-1.2-3.9-0.8-5.9-0.7
					c-3.1,0.2-6.2,0.4-9.3,0.5c-3.6,0.2-3.7,5.9,0,5.7c2.1-0.1,4.2-0.2,6.4-0.4c1.8-0.1,4.6-0.9,5.9,0.4c1.1,1.1,1.8,4,2.5,5.5
					c1,2.2,2,4.4,3,6.6C188.9,70.9,193.8,68,192.3,64.7L192.3,64.7z"/>
			</g>
		</g>
		<g>
			<g>
				<path class="st3" d="M188.8,104c-1.2,3.4-2,7.7-3.8,10.8c-1.1,1.9-3,1.2-4.8,1.1c-2.1-0.1-4.3-0.2-6.4-0.3
					c-3.7-0.2-3.7,5.5,0,5.7c3.1,0.1,6.2,0.4,9.4,0.4c1.9,0,3.8-0.2,5.3-1.6c1.6-1.5,2.2-4,2.9-6c1-2.9,2.1-5.8,3.1-8.7
					C195.5,102,190,100.5,188.8,104L188.8,104z"/>
			</g>
		</g>
		<g>
			<g>
				<path class="st6" d="M191.8,94.5c3.3-0.1,6.7-0.2,10-0.3c3.7-0.1,3.7-5.8,0-5.7c-3.3,0.1-6.7,0.2-10,0.3
					C188.1,88.9,188.1,94.6,191.8,94.5L191.8,94.5z"/>
			</g>
		</g>
		<g>
			<g>
				<path class="st6" d="M193,79.7c3.1-0.5,6.2-0.4,9.3-0.1c1.5,0.2,2.8-1.5,2.8-2.8c0-1.7-1.3-2.7-2.8-2.8
					c-3.6-0.5-7.2-0.3-10.8,0.3c-1.5,0.2-2.3,2.1-2,3.5C189.9,79.4,191.5,80,193,79.7L193,79.7z"/>
			</g>
		</g>
		<g>
			<g>
				<path class="st7" d="M312.3,200.3c-0.1,5.5-15.4,9.2-25.2,9.7c-1.7,0.1-3.7-0.1-4.9-1.8c-1.7-2.4-2.3-7.1-0.8-9.2
					c3.3-4.5,9.6-6.5,14.7-7.4c5.2-0.8,12.7-6.5,15.4,5.6C311.8,198.4,313.1,199.6,312.3,200.3"/>
			</g>
			<g>
				<g>
					<path d="M309.5,200.3c-0.1,1.4-3.6,2.7-4.7,3.1c-3,1.3-6.2,2-9.3,2.6c-2.8,0.5-6.7,1.6-9.5,1c-3.7-0.8-3-6.1-0.8-8.1
						c4.4-3.9,10.8-4.3,16.2-5.9c1.4-0.4,3.4-1.2,4.8-0.4c1.1,0.6,1.7,2.1,2,3.3c0.5,1.5,1.3,3.1,1.6,4.6c0.1-0.7,0.2-1.5,0.3-2.2
						c-0.1,0.2-0.1,0.3-0.2,0.5c-1.6,3.3,3.3,6.2,4.9,2.9c0.8-1.6,0.6-2.7-0.1-4.2c-0.8-2-1.2-4.1-2.2-6c-1.3-2.5-3.5-4.3-6.4-4.7
						c-2.6-0.4-5.1,0.4-7.6,1.2c-3.2,1-6.4,1.3-9.5,2.5c-3.7,1.3-7.2,3.3-9.6,6.5c-2.3,3-2,7.2-0.7,10.6c3.1,7.8,13.2,5.1,19.6,3.8
						c5.9-1.3,16.2-3.6,16.9-11C315.5,196.6,309.8,196.6,309.5,200.3L309.5,200.3z"/>
				</g>
			</g>
		</g>
		<g>
			<g>
				<path class="st7" d="M297.4,189.5c-1.2,0.2-3.3,1.4-4.4,1.9c-2.9,1.2-7.6,2.1-8.9,1.9c-1.8-0.2-4.5-3.2-5.2-4.9
					c-1.1-2.7-0.4-6.4,1.9-8.2c3.6-2.9,11.4-5.5,15.9-6.4c4.5-0.9,10.8-1.1,12.1,3.6c0.4,1.5,1.3,2.6,1.2,4.2
					c-0.1,1.6-1.2,2.9-2.6,3.6C303.7,186.8,301.3,188.8,297.4,189.5z"/>
			</g>
			<g>
				<g>
					<path d="M296.6,186.7c-3.6,1-10.2,5.9-13.6,2.6c-1.9-1.9-2.6-4.7-0.6-6.8c1.8-1.9,5.1-3,7.5-3.8c3.9-1.4,10.4-3.9,14.5-2
						c1.3,0.6,1.5,1.5,2,2.8c0.6,1.6,0.8,2.3-0.6,3.3C303.3,184.5,299.6,186.1,296.6,186.7c-3.6,0.8-2.1,6.3,1.5,5.5
						c2.5-0.5,4.8-1.6,7-2.8c2.1-1.1,4.5-1.9,6-3.7c2.7-3.2,1.5-7.9-0.5-11.1c-4.3-7.2-16-3.7-22.2-1.5c-3.7,1.3-8.3,3-10.8,6.2
						c-2.6,3.2-2.8,8.1-0.6,11.6c1.9,3,4.9,5.4,8.6,5.1c2.2-0.2,4.4-0.7,6.5-1.4c2.1-0.7,3.9-1.9,6-2.5
						C301.6,191.2,300.1,185.7,296.6,186.7z"/>
				</g>
			</g>
		</g>
		<g>
			<g>
				<path class="st3" d="M252.9,123.4c2-2.8,4.8-5.1,7.9-6.6c0.3-0.2,0.7-0.3,1.1-0.2c0.2,0.1,0.4,0.3,0.6,0.5
					c4.2,4.7,8.2,9.7,11.8,14.8c0.4,0.6,0.9,1.4,0.6,2.1c-0.2,0.4-0.5,0.7-0.9,1c-1.8,1.3-3.6,2.6-5.6,3.7c-0.6,0.3-1.2,0.7-1.8,0.6
					c-1-0.1-1.7-1-2.3-1.8c-3.5-5-7-9.9-10.5-14.9c0.2-0.2,0.5-0.4,0.7-0.3"/>
			</g>
			<g>
				<g>
					<path class="st3" d="M255.4,124.8c0.9-1.2,2-2.3,3.2-3.3c0.7-0.6,2.4-2.1,3.4-2.1c-0.7-0.3-1.3-0.6-2-0.8
						c2.7,2.2,4.9,5.5,7.1,8.2c1.2,1.5,2.4,3.1,3.5,4.6c0.3,0.4,1.3,1.8,1.3,1.9c0-0.1-1.9,1.2-1.9,1.2c-0.6,0.4-1.2,0.9-1.9,1.2
						c-1.8,0.9-0.5,0.6-1.5,0c-1.3-0.8-2.3-3.2-3.2-4.5c-2.3-3.3-4.7-6.6-7-9.9c-0.3,1.3-0.7,2.6-1,3.9c0.2-0.1,0.5-0.2,0.7-0.3
						c3.3-1.6,0.4-6.5-2.9-4.9c-0.2,0.1-0.5,0.2-0.7,0.3c-1.3,0.6-1.9,2.7-1,3.9c2.3,3.3,4.7,6.6,7,9.9c1.7,2.4,3.6,6.4,6.5,7.7
						c3,1.3,6-1,8.3-2.7c2.3-1.6,5.2-3.3,4.5-6.6c-0.6-3-3.8-6-5.6-8.4c-2.4-3-4.8-6.5-7.6-9.1c-4.6-4.2-11.5,3.4-14.1,6.9
						C248.2,124.9,253.2,127.7,255.4,124.8L255.4,124.8z"/>
				</g>
			</g>
		</g>
		<g>
			<g>
				<path class="st3" d="M285,95.7c2.1,7.6,4.9,15,8.4,22c4.4-1.4,6.5-2.1,10.9-3.5c0.2-0.1,0.5-0.2,0.6-0.4c0.2-0.3,0-0.7-0.1-1
					c-3.3-6.5-4.3-13.8-7.6-20.3c-0.6-1.1-1.1-2.3-1.9-3.3c-0.1-0.2-0.3-0.3-0.5-0.4c-0.2,0-0.4,0.1-0.6,0.2
					c-2.9,1.8-5.9,3.5-8.8,5.3C285,94.8,284.4,95.5,285,95.7"/>
			</g>
			<g>
				<g>
					<path class="st3" d="M282.2,96.5c2.2,7.8,5.1,15.4,8.7,22.7c0.5,1.1,2.1,1.7,3.2,1.3c2.7-0.9,5.5-1.7,8.2-2.6
						c2.3-0.7,5.4-1.3,5.5-4.2c0-2.6-2-5.4-2.8-7.8c-1.1-3.2-2-6.5-3.2-9.7c-1.4-3.6-3.8-11.8-9-9.4c-2.9,1.3-6.2,3.4-8.8,5.3
						c-1.8,1.3-2.5,3.1-1.5,5.2c1.5,3.3,6.4,0.4,4.9-2.9c-0.1-0.1-0.1-0.3-0.2-0.4c0,1,0,1.9,0,2.9c0.5-0.9,3.3-2,4.1-2.5
						c1.3-0.8,2.9-2.1,4.3-2.5c-0.9-0.2-1.8-0.5-2.8-0.7c1.5,1.2,2.4,3.8,3.1,5.5c0.8,1.9,1.4,3.9,2,5.9c0.6,2,1.2,4,1.9,6
						c0.4,1.1,0.8,2.1,1.2,3.2c0.3,0.6,1.1,1.7,1,2.3c0.5-0.8,0.9-1.6,1.4-2.5c-3,1.8-7.6,2.5-10.9,3.6c1.1,0.4,2.1,0.9,3.2,1.3
						c-3.3-6.9-6-14-8.1-21.4C286.7,91.5,281.2,93,282.2,96.5L282.2,96.5z"/>
				</g>
			</g>
		</g>
		<g>
			<g>
				<path class="st3" d="M257.9,114.7c-2.5-3.8-5.1-7.6-7.6-11.4c-2-3-7-0.2-4.9,2.9c2.5,3.8,5.1,7.6,7.6,11.4
					C255,120.6,259.9,117.8,257.9,114.7L257.9,114.7z"/>
			</g>
		</g>
		<g>
			<g>
				<path class="st3" d="M291.7,91.1c-2.4-4.8-5-9.5-7.7-14.1c-1.9-3.1-6.8-0.3-4.9,2.9c2.8,4.6,5.3,9.3,7.7,14.1
					C288.4,97.2,293.4,94.3,291.7,91.1L291.7,91.1z"/>
			</g>
		</g>
		<g>
			<g>
				<path class="st6" d="M129.4,216.1c3.1,1.4,6.3,2.2,9.7,2.1c2.4,0,2.4-3.8,0-3.8c-2.7,0-5.3-0.5-7.7-1.6
					C129.2,211.8,127.2,215,129.4,216.1L129.4,216.1z"/>
			</g>
		</g>
		<g>
			<g>
				<path class="st6" d="M130.3,209.7c2.5,1.4,5,2.5,7.7,3.4c2.3,0.7,3.3-2.9,1-3.7c-2.4-0.8-4.6-1.8-6.8-3
					C130.1,205.2,128.2,208.5,130.3,209.7L130.3,209.7z"/>
			</g>
		</g>
		<g>
			<g>
				<path class="st6" d="M221.8,192.5c1.4-1.3,3-2.3,4.8-2.9c2.3-0.7,1.3-4.4-1-3.7c-2.4,0.8-4.6,2.1-6.4,3.9
					C217.4,191.5,220.1,194.2,221.8,192.5L221.8,192.5z"/>
			</g>
		</g>
		<g>
			<g>
				<path class="st6" d="M165.9,242.2c7.9,3.8,17.1,4.9,25.7,3c8.6-1.8,16.5-6.6,22.2-13.3c1.5,4.9,2.2,10,2.1,15.1
					c-0.1,4.5-0.8,9-3.3,12.8c-3.5,5.5-10.4,8.4-16.9,8.1c-6.5-0.3-12.7-3.4-17.6-7.8s-8.5-9.9-11.7-15.7"/>
			</g>
			<g>
				<g>
					<path class="st6" d="M164.5,244.7c17.6,8.1,38.5,4,51.3-10.8c-1.6-0.4-3.2-0.8-4.8-1.3c3.5,11.9,3.9,30-11.9,32.2
						c-14.1,2-24.1-11.1-30.1-21.9c-1.8-3.2-6.7-0.3-4.9,2.9c7.5,13.5,20.4,27.9,37.6,24.4c18.2-3.8,19.3-24.4,14.9-39
						c-0.6-1.9-3.3-2.9-4.8-1.3c-11,12.7-29,17-44.4,9.9C164.1,238.3,161.2,243.2,164.5,244.7L164.5,244.7z"/>
				</g>
			</g>
		</g>
		<g>
			<g>
				<path class="st6" d="M219.3,187.4c1.4-1.3,3-2.3,4.8-2.9c2.3-0.7,1.3-4.4-1-3.7c-2.4,0.8-4.6,2.1-6.4,3.9
					C214.9,186.5,217.6,189.1,219.3,187.4L219.3,187.4z"/>
			</g>
		</g>
		<g>
			<g>
				<path class="st6" d="M163.1,249.5c1.8-3.5,4.2-6.4,7.1-9c2.8-2.4-1.3-6.4-4-4c-3.3,2.9-6,6.3-8,10.1
					C156.5,249.9,161.4,252.8,163.1,249.5L163.1,249.5z"/>
			</g>
		</g>
		<g>
			<g>
				<path class="st8" d="M133.2,240.5c2-2,4.2-3.8,6.6-5.4c2-1.4,0.1-4.7-1.9-3.3c-2.6,1.8-5.1,3.8-7.3,6
					C128.8,239.5,131.4,242.2,133.2,240.5L133.2,240.5z"/>
			</g>
		</g>
		<g>
			<g>
				<path class="st8" d="M138.4,245.7c3.8-3.2,7.5-6.4,11.3-9.6c1.9-1.6-0.8-4.3-2.7-2.7c-3.8,3.2-7.5,6.4-11.3,9.6
					C133.8,244.6,136.5,247.2,138.4,245.7L138.4,245.7z"/>
			</g>
		</g>
		<g>
			<g>
				<path class="st8" d="M222.7,217c1.5-2.1,3.3-4.1,5.2-5.9c1.8-1.7-0.9-4.3-2.7-2.7c-2.2,2-4.1,4.2-5.8,6.6
					c-0.6,0.8-0.1,2.1,0.7,2.6C221,218.3,222.1,217.8,222.7,217L222.7,217z"/>
			</g>
		</g>
		<g>
			<g>
				<path class="st8" d="M230.1,220.2c2.3-3.2,5-5.9,8.2-8.2c2-1.4,0.1-4.7-1.9-3.3c-3.7,2.7-6.9,5.9-9.5,9.6
					C225.3,220.3,228.6,222.2,230.1,220.2L230.1,220.2z"/>
			</g>
		</g>
	</g>
</g>
<g>
	<g>
		<path class="st9" d="M361.3,276.2c12.4-24.9,19.4-52.9,19.4-82.6c0-102.4-83.1-185.5-185.5-185.5S9.6,91.2,9.6,193.6
			c0,102.4,83.1,185.5,185.5,185.5c37.9,0,73.1-11.4,102.5-30.9c6.6,24.4,29,42.4,55.5,42.4c31.8,0,57.5-25.7,57.5-57.5
			C410.6,304.1,389.2,280.1,361.3,276.2z M195.1,354.6c-88.9,0-161-72.1-161-161c0-88.9,72.1-161,161-161s161,72.1,161,161
			C356.1,282.5,284,354.6,195.1,354.6z M353.1,373.6c-22.4,0-40.5-18.1-40.5-40.5c0-22.4,18.1-40.5,40.5-40.5s40.5,18.1,40.5,40.5
			C393.6,355.5,375.5,373.6,353.1,373.6z"/>
	</g>
</g>
<g class="st10">
	<path class="st3" d="M214.1,336.6c-88.9,0-161-72.1-161-161c0-41.3,15.6-79,41.2-107.5c-36.7,29.5-60.2,74.8-60.2,125.5
		c0,88.9,72.1,161,161,161c47.6,0,90.4-20.7,119.8-53.5C287.4,323.3,252.3,336.6,214.1,336.6z"/>
</g>
<g class="st11">
	<path class="st6" d="M182.1,50.6c88.9,0,161,72.1,161,161c0,31.2-8.9,60.3-24.2,85c23.2-27.9,37.2-63.8,37.2-103
		c0-88.9-72.1-161-161-161c-57.7,0-108.4,30.4-136.8,76C87.9,73.2,132.4,50.6,182.1,50.6z"/>
</g>
<g>
	<circle class="st6" cx="353.1" cy="333.1" r="40.5"/>
	<g>
		<path class="st3" d="M391.1,333.1c-0.1,15.7-10,30.3-24.9,35.7c-15.1,5.5-32.2,0.8-42.5-11.6c-10.2-12.2-11.3-30.2-3.1-43.7
			c8.2-13.6,24.5-20.8,40.1-17.6c15.4,3.2,27.4,15.8,30,31.3C391,329.2,391.1,331.1,391.1,333.1c0,3.2,5,3.2,5,0
			c-0.1-18-11.4-34.2-28.3-40.4c-16.8-6.2-36.4-0.9-47.8,12.9c-11.5,14-13.2,34.1-3.8,49.7c9.3,15.5,27.7,23.5,45.4,20
			c17.2-3.4,31.2-17.9,33.9-35.2c0.4-2.3,0.6-4.6,0.6-6.9C396.1,329.9,391.1,329.9,391.1,333.1z"/>
	</g>
</g>
<g>
	<path class="st12" d="M188.1,20.1c102.4,0,181.5,75.1,181.5,177.5c0,36.9-2.5,44.5-8.5,78.5c13-35,19.5-37.1,19.5-82.5
		c0-102.4-83.1-185.5-185.5-185.5C129.6,8.1,72,42.1,39,93.5C73,52.9,131,20.1,188.1,20.1z"/>
</g>
<g>
	<path class="st13" d="M200.1,366.1c-102.4,0-184.5-83.1-184.5-185.5c0-34,10.1-65.8,27.4-93.2C22,117.5,9.6,154.1,9.6,193.6
		c0,102.4,83.1,185.5,185.5,185.5c34.1,0,66.1-9.2,93.6-25.3C264.4,361.9,227.7,366.1,200.1,366.1z"/>
</g>
<g class="st10">
	<path class="st3" d="M359.1,364.6c-22.4,0-40.5-18.1-40.5-40.5c0-6.4,1.5-12.4,4.1-17.7c-6.3,7.1-10.1,16.5-10.1,26.7
		c0,22.4,18.1,40.5,40.5,40.5c16,0,29.9-9.3,36.4-22.8C382.1,359.3,371.3,364.6,359.1,364.6z"/>
</g>
<g>
	<g>
		<path class="st0" d="M341.3,345.5c0.1,0.3,0.1,0.7,0.2,1c0.1,0.7,0.1,1.3,0.7,1.7c0.6,0.4,1.2,0.2,1.8,0c0.5-0.2,1-0.3,1.5-0.2
			l20.1-30.1l-4.1-2.7L341.3,345.5z"/>
	</g>
	<polygon class="st14" points="360.4,309.4 362.9,305.6 360.4,309.4 360.4,309.4 	"/>
	<path class="st8" d="M366.6,307.6l-2.7,4l4.1,2.7l2-3c1.2-1.7,3.1-3.6,1.4-4.8l1.3,0.8l-1.6-1C369.2,305.3,367.7,305.9,366.6,307.6
		z"/>
	<path class="st14" d="M368.2,304.6c-1.7-1.2-4.1-0.7-5.2,1C364.1,303.9,366.4,303.4,368.2,304.6z"/>
	<polygon class="st15" points="360.4,309.4 360.4,309.4 360.4,309.4 360.4,309.4 360.4,309.4 	"/>
	<polygon class="st15" points="360.4,309.4 358.8,311.8 360.4,309.4 	"/>
	<polygon class="st15" points="368.8,319.9 370,318 368.8,319.9 	"/>
	<path class="st16" d="M340.3,347.3l-0.8-0.1l-4.9,10.6l8.9-6.8l0.3-0.3l1.6-2.5c-0.4-0.1-0.9,0.1-1.3,0.2c-0.7,0.2-1.3,0.4-2,0
		c-0.7-0.4-0.7-1.1-0.8-1.8c0-0.3-0.1-0.6-0.1-0.9l-0.6,0.8C340.4,346.7,340.3,347,340.3,347.3z"/>
	<path class="st15" d="M344,348.2c-0.6,0.2-1.2,0.4-1.8,0c-0.6-0.4-0.7-1-0.7-1.7c0-0.4-0.1-0.7-0.2-1l-0.1,0.1
		c0.3,0.9,0,2.1,0.9,2.7c1.1,0.7,2.2-0.4,3.3-0.2l0.1-0.1C345,347.9,344.5,348.1,344,348.2z"/>
	<path class="st15" d="M342.1,348.3c-1-0.6-0.6-1.8-0.9-2.7l-0.1,0.1c0.1,0.3,0.1,0.6,0.1,0.9C341.3,347.2,341.4,347.9,342.1,348.3
		c0.6,0.5,1.3,0.3,1.9,0.1c0.4-0.1,0.9-0.3,1.3-0.2l0.1-0.1C344.3,347.9,343.2,349,342.1,348.3z"/>
	<polygon class="st15" points="371,306.5 368.2,304.6 371,306.5 	"/>
	<path class="st17" d="M338.4,344.8c0.7-0.3,1.3-0.7,2.1-0.3c0.4,0.2,0.6,0.6,0.8,0.9l20.2-30.3l-3.4-2.3l-21.3,32l-0.1,0.3l0,0
		C337.3,345.4,337.8,345.1,338.4,344.8z"/>
	<path class="st18" d="M363.9,311.7l2.7-4c1.2-1.7,2.7-2.3,4.4-1.2l-2.8-1.9c-1.7-1.2-4.1-0.7-5.2,1l-2.5,3.8L363.9,311.7z"/>
	
		<rect x="359.1" y="310.3" transform="matrix(0.5552 -0.8317 0.8317 0.5552 -99.1622 439.1631)" class="st19" width="3.9" height="4"/>
	<path class="st15" d="M340.5,344.7c0.4,0.2,0.6,0.6,0.7,0.9l0.1-0.1C341.2,345.1,340.9,344.8,340.5,344.7c-0.8-0.5-1.5-0.2-2.1,0.2
		c-0.6,0.3-1.1,0.6-1.7,0.3l0,0l0,0.1C338,345.8,339,343.9,340.5,344.7z"/>
	<polygon class="st6" points="371.1,316.5 371.1,316.5 373.6,312.7 	"/>
	<path class="st20" d="M365.6,317.9L345.5,348c0.2,0,0.5,0.1,0.7,0.3c0.7,0.6,0.7,1.4,0.6,2.1c-0.1,0.6-0.1,1.2,0.3,1.7l0,0l0.3-0.2
		l21.3-32l0,0L365.6,317.9z"/>
	<path class="st21" d="M369.9,311.4l-2,3l3.1,2.1l2.5-3.8c1.2-1.7,0.7-4.1-1-5.2l-1.3-0.8C373,307.8,371.1,309.7,369.9,311.4z"/>
	
		<rect x="366.4" y="315.3" transform="matrix(0.5553 -0.8317 0.8317 0.5553 -99.9711 447.3637)" class="st22" width="3.9" height="3.6"/>
	<path class="st23" d="M343.4,350.9l-8.9,6.8l-2,4.2c0.1,0.1,0.2,0.2,0.3,0.3c0.3,0.2,0.7,0.3,1.1,0l13-10c-0.4-0.5-0.4-1.2-0.3-1.8
		c0.1-0.7,0.1-1.4-0.5-1.9c-0.2-0.2-0.5-0.3-0.7-0.3l-1.6,2.5L343.4,350.9z"/>
	<path class="st6" d="M346.8,350.4c0.1-0.7,0.1-1.5-0.6-2.1c-0.2-0.2-0.5-0.3-0.7-0.3l-0.1,0.1c0.2,0,0.5,0.1,0.7,0.3
		c1.3,1.1-0.1,2.7,0.9,3.8l0.1-0.1l0,0C346.7,351.7,346.7,351.1,346.8,350.4z"/>
	<path class="st24" d="M340.4,344.7c-0.7-0.4-1.3-0.1-2,0.3c-0.5,0.3-1.1,0.6-1.8,0.4l-4.3,15.8c0,0.1,0,0.3,0,0.4
		c0,0.1,0.1,0.3,0.2,0.4l2-4.2l4.2-7.6l1.6-2.8c0.1-0.3,0.2-0.5,0.4-0.8l0.6-0.8C341.1,345.3,340.9,345,340.4,344.7z"/>
	
		<rect x="362.8" y="312.3" transform="matrix(0.5553 -0.8317 0.8317 0.5553 -99.5781 443.3452)" class="st25" width="3.9" height="4.9"/>
	<g>
		<g>
			<path class="st3" d="M373.3,306.2c-1.5-1-2.9-2-4.4-2.9c-1.7-1.1-3.8-1.1-5.5-0.1c-1.1,0.7-1.7,1.7-2.4,2.7
				c-0.6,0.9-1.2,1.8-1.8,2.7c-0.5,0.7-0.1,1.6,0.5,2.1c2.6,1.8,5.3,3.5,7.9,5.3c0.9,0.6,1.8,1.2,2.7,1.8c0.7,0.5,1.6,0.1,2.1-0.5
				c0.8-1.2,1.6-2.4,2.4-3.6C376.4,311.1,375.7,307.9,373.3,306.2c-0.7-0.5-1.7-0.1-2.1,0.5c-0.4,0.7-0.1,1.6,0.5,2.1
				c0.3,0.2,0.6,0.6,0.8,1c0.1,0.2,0.2,0.8,0.1,1c-0.1,0.6-0.4,1.1-0.8,1.6c-0.7,1.1-1.4,2.2-2.2,3.2c0.7-0.2,1.4-0.4,2.1-0.5
				c-2.7-1.8-5.3-3.6-8-5.3c-0.9-0.6-1.8-1.2-2.6-1.8c0.2,0.7,0.4,1.4,0.5,2.1c0.5-0.7,0.9-1.4,1.4-2c0.4-0.6,0.9-1.5,1.4-2
				c0.8-0.8,1.9-0.9,3-0.2c0.8,0.5,1.6,1.1,2.4,1.6c0.6,0.4,1.3,0.9,1.9,1.3c0.7,0.4,1.7,0.1,2.1-0.5
				C374.3,307.5,374,306.7,373.3,306.2z"/>
		</g>
	</g>
	<g>
		<g>
			<path class="st3" d="M368.7,313.2c-2.5-1.7-5-3.4-7.5-5c-0.7-0.5-1.6-0.1-2.1,0.5c-1,1.5-2.1,3-3.1,4.5c-0.5,0.7-0.1,1.6,0.5,2.1
				c2.7,1.8,5.3,3.6,8,5.3c0.9,0.6,1.7,1.2,2.6,1.7c0.7,0.5,1.6,0.1,2.1-0.5c1-1.5,2.1-3,3.1-4.5c0.5-0.7,0.1-1.6-0.5-2.1
				C370.7,314.6,369.7,313.9,368.7,313.2c-1.6-1.1-3.1,1.5-1.5,2.6c1,0.7,2.1,1.4,3.1,2.1c-0.2-0.7-0.4-1.4-0.5-2.1
				c-1,1.5-2.1,3-3.1,4.5c0.7-0.2,1.4-0.4,2.1-0.5c-2.7-1.8-5.3-3.6-8-5.3c-0.9-0.6-1.7-1.2-2.6-1.8c0.2,0.7,0.4,1.4,0.5,2.1
				c1-1.5,2.1-3,3.1-4.5c-0.7,0.2-1.4,0.4-2.1,0.5c2.5,1.7,5,3.4,7.5,5C368.8,316.9,370.3,314.3,368.7,313.2z"/>
		</g>
	</g>
	<g>
		<g>
			<path class="st3" d="M365.5,317.9c-2.5-1.7-5-3.3-7.5-5c-0.7-0.5-1.6-0.1-2.1,0.5c-6.1,9.1-12.1,18.2-18.2,27.3
				c-0.8,1.2-2.1,2.6-2.5,4.1c-0.2,0.8,0.3,1.6,1,1.8c0.6,0.2,1.3,0.1,1.8,0c0.4-0.1,1.5-0.9,1.8-0.6c0.3,0.3,0.1,1.3,0.3,1.7
				c0.2,0.7,0.6,1.3,1.1,1.7c0.6,0.4,1.3,0.6,2,0.5c0.4,0,1.7-0.7,2-0.3c0.2,0.2-0.1,1.6,0,1.9c0.1,0.6,0.3,1.2,0.8,1.7
				c0.4,0.4,1.3,0.6,1.8,0.2c1.1-0.8,1.8-2.2,2.5-3.3c1.6-2.4,3.2-4.9,4.9-7.3c3.7-5.6,7.5-11.2,11.2-16.9c0.9-1.3,1.8-2.6,2.6-4
				c0.5-0.7,0.1-1.6-0.5-2.1C367.5,319.3,366.5,318.6,365.5,317.9c-1.6-1.1-3.1,1.5-1.5,2.6c1,0.7,2.1,1.4,3.1,2.1
				c-0.2-0.7-0.4-1.4-0.5-2.1c-6,9-12,18.1-18.1,27.1c-0.6,0.9-1.2,1.7-1.7,2.6c-0.2,0.2-0.3,0.5-0.5,0.7c-0.4,0.7,0.7-0.5,0.1-0.1
				c0.6,0.1,1.2,0.2,1.8,0.2c0.1,0.2,0.1-0.6,0.1-0.8c0-0.3,0-0.6,0-1c-0.1-0.8-0.4-1.5-1-2c-0.6-0.5-1.3-0.8-2.1-0.8
				c-0.4,0-1.9,0.5-2.1,0.4c-0.1-0.1-0.1-0.7-0.1-0.9c-0.1-0.4-0.1-0.8-0.3-1.2c-0.3-0.6-0.7-1.1-1.3-1.5c-0.7-0.4-1.5-0.5-2.3-0.3
				c-0.4,0.1-1.6,0.9-1.9,0.8c0.3,0.6,0.7,1.2,1,1.8c0.2-0.6-0.2,0.3,0-0.1c0.1-0.2,0.2-0.4,0.4-0.6c0.5-0.7,1-1.5,1.4-2.2
				c1.6-2.4,3.2-4.8,4.8-7.3c3.7-5.6,7.4-11.1,11.1-16.7c0.8-1.3,1.7-2.5,2.5-3.8c-0.7,0.2-1.4,0.4-2.1,0.5c2.5,1.7,5,3.3,7.5,5
				C365.6,321.6,367.1,319,365.5,317.9z"/>
		</g>
	</g>
	<g>
		<g>
			<path class="st3" d="M348.1,350.4c0.1-1.6-0.5-3.1-2.1-3.6c-0.7-0.2-1.4-0.1-2.1,0.1c-0.4,0.1-0.9,0.4-1.1,0.2
				c-0.1-0.2-0.1-0.6-0.1-0.8c0-0.4-0.1-0.8-0.2-1.2c-0.2-0.7-0.7-1.3-1.3-1.6c-0.7-0.4-1.6-0.5-2.4-0.2c-0.4,0.1-1.3,0.8-1.7,0.7
				c-0.8-0.2-1.6,0.2-1.8,1c-1.3,4.9-2.6,9.8-3.9,14.7c-0.3,0.9-0.6,1.9-0.1,2.9c0.8,1.6,2.6,1.6,3.9,0.6c2.2-1.7,4.4-3.4,6.6-5.1
				c2-1.5,4-3,5.9-4.6c0.6-0.5,1-1.3,0.5-2.1C348,351.1,348.1,350.8,348.1,350.4c0.2-1.9-2.8-1.9-3,0c-0.1,0.9,0,1.8,0.5,2.5
				c0.2-0.7,0.4-1.4,0.5-2.1c-3.8,2.9-7.6,5.9-11.5,8.8c-0.3,0.3-0.7,0.5-1,0.8c-0.1,0.1-0.5,0.3-0.5,0.4c0.1-0.4,1,0.5,0.7,0.7
				c0,0,0-0.2,0.1-0.2c0.1-0.3,0.2-0.6,0.2-0.9c0.7-2.7,1.5-5.4,2.2-8.1c0.6-2.2,1.2-4.4,1.8-6.6c-0.6,0.3-1.2,0.7-1.8,1
				c0.7,0.1,1.4,0.1,2.1-0.2c0.4-0.1,1-0.7,1.4-0.6c-0.3,0,0,0.6,0,0.8c0.1,0.6,0.2,1.2,0.5,1.7c0.7,1.2,2.1,1.7,3.4,1.4
				c0.3-0.1,1.1-0.5,1.4-0.4c0,0-0.1-0.1,0,0c0.1,0.1,0,0.6,0,0.7C344.9,352.3,347.9,352.3,348.1,350.4z"/>
		</g>
	</g>
	<g>
		<g>
			<path class="st3" d="M332.5,361.2c0,0.1,0,0.3,0,0.4c0,0.1,0.1,0.3,0.2,0.4c0.1,0.1,0.2,0.2,0.3,0.3c0.3,0.2,0.7,0.3,1.1,0
				l6.3-4.8c-1.7-1.5-3.7-2.7-5.8-3.3L332.5,361.2z"/>
		</g>
	</g>
</g>
<g>
	<path class="st13" d="M296.7,346.2c6.6,24.4,29,42.4,55.5,42.4c16,0,30.4-6.5,40.8-17c-9.5,6.9-21.2,11-33.8,11
		c-26.5,0-48.8-18-55.5-42.4L296.7,346.2z"/>
</g>
<g>
	<g>
		<path class="st12" d="M344.9,280.7"/>
	</g>
	<g>
		<path class="st12" d="M346.7,280.6c20.9-0.7,41,11,50.1,31.3c9.5,21.1,4,45-11.8,60.1c21.2-13,29.9-40,19.4-63.3
			C394.4,286.3,369.8,274.9,346.7,280.6z"/>
	</g>
</g>
<g>
	<g>
		<path class="st3" d="M363.4,277.5c18.4-37.1,24.1-79.8,16.1-120.4c-6.5-32.9-22-63.7-44.3-88.7c-22.2-24.8-50.9-43.5-82.6-53.7
			c-33.2-10.7-69.3-11.8-103.2-3.4c-32.4,8.1-62.4,25-86.2,48.4c-23.8,23.4-41.2,53.1-49.8,85.3c-9,33.5-8.5,69.5,1.5,102.7
			c9.6,32.1,27.9,61.4,52.5,84.1c24.6,22.7,55.1,38.7,87.8,45.7c39.1,8.4,80.4,4.1,116.9-12.3c9.3-4.2,18.2-9.1,26.7-14.7
			c-1.2-0.5-2.4-1-3.7-1.5c4.6,16.4,16.1,30.6,31.4,38.1c15.6,7.6,34.1,8.1,50.1,1.3c15-6.4,26.8-18.9,32.5-34.1
			c6.1-16,4.8-34.3-3.3-49.4c-8.9-16.6-25.5-28.3-44.1-31c-1.3-0.2-2.7,0.3-3.1,1.7c-0.3,1.2,0.4,2.9,1.7,3.1
			c15.3,2.2,29.3,10.7,38.1,23.6c8.7,13,11.7,29.3,7.8,44.4c-3.7,14.6-13.5,27.2-26.7,34.6c-13.8,7.7-30.7,8.9-45.5,3.5
			c-16.6-6-29.4-20.2-34.2-37.2c-0.4-1.5-2.3-2.4-3.7-1.5c-34.1,22.6-75.1,33.2-115.9,30c-32.9-2.6-64.8-14.3-91.6-33.4
			c-26.3-18.7-47.4-44.5-60.7-73.9C14.3,238,9.4,203.6,13.6,170.2c4.1-32.5,17.2-63.8,37.5-89.5c20-25.4,46.6-45.5,76.7-57.3
			c31.4-12.4,66.1-15.9,99.4-10c32.2,5.7,62.6,20.1,87.4,41.5c24.5,21.2,43.3,48.7,53.8,79.4c12.2,35.8,13,75.2,2.2,111.6
			c-3,10-6.8,19.7-11.4,29.1C357.7,277.8,362,280.3,363.4,277.5z"/>
	</g>
</g>
<g>
	<g>
		<path class="st3" d="M353.6,193.6c0,16.7-2.6,33.3-7.8,49.1c-4.9,15.2-12.2,29.6-21.5,42.7c-9.1,12.9-20.3,24.5-32.8,34.1
			c-12.7,9.7-26.8,17.5-41.8,23c-15.6,5.7-32,8.9-48.5,9.5c-16.7,0.6-33.4-1.3-49.4-5.9c-15.5-4.4-30.3-11.2-43.8-20
			c-13.2-8.7-25.1-19.4-35.2-31.6c-10.1-12.2-18.5-26.1-24.5-40.8c-6.2-15.2-10-31.3-11.3-47.6c-1.3-16.8,0-33.7,4-50
			c3.8-15.6,10-30.6,18.4-44.4C67.8,97.9,78.1,85.6,90,75c11.9-10.6,25.4-19.3,39.8-25.9c14.8-6.7,30.8-11.2,46.9-13
			c16.7-1.9,33.6-1.2,50.1,2.1c15.9,3.2,31.3,8.9,45.4,16.8c13.9,7.7,26.5,17.5,37.5,29c11,11.5,20.3,24.7,27.4,39
			c7.2,14.5,12.2,30.2,14.7,46.2C353,177.3,353.6,185.5,353.6,193.6c0,3.2,5,3.2,5,0c0-17.1-2.7-34.2-7.9-50.4
			c-5.1-15.7-12.6-30.6-22.1-44c-9.6-13.4-21.1-25.4-34.2-35.4c-13.1-10-27.6-18-43.1-23.7c-15.9-5.9-32.8-9.1-49.8-9.8
			c-17.2-0.7-34.5,1.4-51,6c-15.9,4.5-31.1,11.5-45,20.6c-13.7,9-26.1,20.1-36.5,32.7c-10.5,12.8-19,27-25.3,42.3
			c-6.4,15.6-10.3,32.3-11.6,49.1c-1.3,17.2,0.1,34.6,4.1,51.4c3.9,16.1,10.3,31.6,18.9,45.8c8.5,14,19.1,26.8,31.4,37.7
			c12.3,10.9,26.1,19.9,41.1,26.7c15.4,7,31.8,11.5,48.6,13.4c17.2,2,34.7,1.2,51.6-2.2c16.3-3.3,32.1-9.2,46.7-17.3
			c14.3-8,27.5-18.2,38.8-30c11.3-11.8,20.8-25.4,28.1-40c7.5-15,12.6-31.1,15.1-47.6c1.3-8.3,1.9-16.8,1.9-25.2
			C358.6,190.4,353.6,190.4,353.6,193.6z"/>
	</g>
</g>
</svg>
