<?xml version="1.0" encoding="utf-8"?>
<!-- Generator: Adobe Illustrator 24.2.0, SVG Export Plug-In . SVG Version: 6.00 Build 0)  -->
<svg version="1.1" id="Layer_1" xmlns="http://www.w3.org/2000/svg" xmlns:xlink="http://www.w3.org/1999/xlink" x="0px" y="0px"
	 viewBox="0 0 418 400" style="enable-background:new 0 0 418 400;" xml:space="preserve">
<style type="text/css">
	.st0{fill:#F7C402;}
	.st1{fill:#E1262F;}
	.st2{fill:#FFFFFF;}
	.st3{fill:#183E42;}
	.st4{fill:#4386C6;}
	.st5{fill:#7DC4CA;}
	.st6{opacity:0.32;}
	.st7{fill:#1D1D1B;}
	.st8{opacity:0.42;}
	.st9{fill:#D2E8EB;}
	.st10{fill:#42797D;}
	.st11{fill:#F72872;}
	.st12{fill:#E66869;}
	.st13{fill:#390075;}
	.st14{fill:#FFDA83;}
	.st15{fill:#AA8B12;}
	.st16{fill:#993637;}
	.st17{fill:#729496;}
	.st18{fill:#FDEAAB;}
	.st19{fill:#F5C3C3;}
	.st20{fill:#E7F3F4;}
	.st21{fill:#FFF0D1;}
	.st22{fill:#BFA362;}
	.st23{fill:#C2E1E3;}
</style>
<g>
	<path class="st0" d="M353.5,193.8c0,87.3-70.4,158.2-158.2,158.2S37,281,37,193.8S107.4,35.5,195.2,35.5l0,0
		C282.5,35.5,353.5,106.5,353.5,193.8L353.5,193.8"/>
	<path class="st1" d="M207,201.9c-7.1-0.5-27.6,0-34.7-6.1c0,0,0.5-11.7,0.5-15.3c-0.5-6.1,10.7-4.1,14.8-3.6
		c-1-23-0.5-99.5,42.4-85.8c51.6,16.8,22.5,66.4,12.3,97c4.6,1,12.8,3.6,12.3,7.1c-0.5,3.6-4.1,7.1-5.6,13.8
		C248.3,216.7,220.3,201.4,207,201.9z"/>
	<g>
		<path class="st2" d="M236.1,140.1c-2,0-3.6,1-5.1,2c-3.1,3.6-5.1,7.1-6.1,11.7c0,0.5-0.5,1-0.5,1.5c-2,0-4.6-0.5-6.6-1
			c0.5-2.6,0.5-5.1,1-7.1c0.5-3.1,0-5.6-1.5-7.7c-2-2.6-5.1-3.6-8.2-3.6c-5.6,1-9.2,6.6-7.7,11.7c0,0.5,0,1,0.5,1.5
			c2,4.6,5.6,7.1,9.7,9.7c-2,12.3-5.6,24.5-10.2,35.7c-0.5,3.6,5.1,5.1,6.1,1.5c5.1-11.7,7.7-23.5,10.7-35.7c2,0.5,3.6,0.5,5.6,1
			c-0.5,2-1,4.1-2,6.1c-2.6,9.7-4.1,18.9-5.6,29.1c-0.5,3.6,5.1,5.1,5.6,1.5c1.5-11.7,3.6-23,7.1-34.2c0.5-1,0.5-2,1-2.6
			c1.5,0,3.6-0.5,5.1-1c6.1-1.5,10.7-6.6,11.2-12.3C244.8,142.7,240.7,139.6,236.1,140.1z M212.6,146.8c-0.5,1.5-0.5,3.6-0.5,5.1
			c-1-0.5-2.6-1.5-3.6-2c-2-1.5-2.6-4.1-2-6.1c0.5-2,2.6-3.1,4.6-2.6C213.6,142.2,213.1,144.7,212.6,146.8z M239.2,149.3
			c-1,2-3.1,4.1-5.1,4.6c-1,0.5-2,0.5-3.1,1c0,0,0,0,0-0.5c0.5-3.1,1.5-6.6,4.1-7.7c1-1,2.6-1,3.6,0
			C239.2,147.3,239.7,148.3,239.2,149.3z"/>
		<path class="st2" d="M206.5,125.3c2.6-7.1,2.6-19.4,12.8-17.9c3.6,0.5,3.6-5.1,0-5.6c-5.6-0.5-11.2,2-13.3,6.6
			c-2,5.1-4.1,10.2-5.1,15.8C199.8,126.9,205.5,128.9,206.5,125.3z"/>
	</g>
	<path class="st2" d="M230.5,104.4c1.5,0,3.1-1.5,3.1-3.1c0-1.5-1.5-3.1-3.1-3.1c-1.5,0-3.1,1.5-3.1,3.1
		C227.9,102.9,229.5,104.4,230.5,104.4z"/>
	<path class="st3" d="M94.7,233.1c-3.6-3.1-5.1-7.1-4.1-11.7c1-5.1,5.1-9.2,10.2-10.2c6.1-1,11.7,0,17.4,2.6"/>
	<path class="st0" d="M86.5,257.1c9.2-45.4,17.9-88.8,26.5-135.8l28.1,6.1c-8.2,45.9-16.3,90.9-27.1,137.8L86.5,257.1z"/>
	<path class="st0" d="M127.9,109L127.9,109l8.2-4.6c-1-7.1-2-14.8-3.1-20.4c-3.6,5.1-6.6,11.2-9.7,16.3L127.9,109
		C127.4,109,127.4,109,127.9,109z"/>
	<path class="st2" d="M128.4,109L128.4,109c-1,0-1-0.5-1-0.5l-4.1-8.2c-1.5,2-2.6,4.6-4.1,6.6c-1.5,2-5.6,11.7-7.1,13.8l27.6,5.6
		c-1-6.6-2-13.8-3.6-22L128.4,109z"/>
	<path class="st4" d="M225.9,92.7c-1-5.1,1-10.2,5.6-12.3c9.2-6.6,21.4-4.6,28.1,4.6c3.1,4.1,4.1,9.2,3.6,13.3
		c-0.5,2.6-0.5,5.6,0,8.2c1.5,3.1,3.6,5.6,6.1,7.1c7.1,5.6,10.7,13.3,10.2,22.5c-1,8.2-10.2,16.3-17.9,13.3
		c-7.1-2-10.7-9.2-13.3-15.8l-20.4-44.4"/>
	<path class="st4" d="M220.3,87.1c16.3,20.9,28.1,44.9,35.2,69.4c3.1-0.5,5.6-3.1,6.1-6.1c0-3.1-0.5-6.1-2-9.2
		c-6.1-16.8-12.8-33.2-21.4-49.5c-2.6-4.6-6.6-9.7-11.7-8.2c-1.5,0.5-3.1,1-4.6,2"/>
	<path class="st4" d="M263.1,109c1.5-7.1,8.2-11.2,15.8-9.7c2.6,0.5,4.6,2,6.1,3.6c1,1,2,3.1,1,4.1c-0.5,0.5-1,0.5-1.5,0.5
		c-6.1,1.5-11.7,2-17.9,2"/>
	<path class="st3" d="M295.8,171.3c-1.5-3.1-3.6-6.1-7.1-7.1c-3.6-2-7.7-1.5-11.2,0.5c-3.6,3.1-4.6,7.1-3.6,11.7
		c1,5.1,6.1,4.6,10.2,3.6c4.1-1,2-6.6-1.5-5.6c-1,0.5-2,0.5-3.1,1c0-0.5,0-0.5,0-1c0-2,0.5-4.1,2-5.6c3.1-1.5,7.1,1,7.7,3.1
		c1,1.5,2,4.1,2,6.1c0,0,0,0-0.5,0.5c-3.1,4.6-7.7,7.1-13.3,7.1c-6.6-0.5-11.2-6.1-16.3-9.7c-3.1-2-6.1-4.1-9.2-5.6
		c1.5-3.6,2.6-7.1,3.6-10.2c3.6,0,6.1-2.6,7.1-6.1c4.6,0,8.2-2,11.7-5.1c11.2-10.2,5.6-26.5-4.1-35.7l0,0c1.5,0,3.6,0,5.1-0.5
		c3.6,0,6.6-1,9.7-2c5.6-2.6,2.6-7.7-1-10.7c-6.1-4.6-14.8-4.1-20.4,1.5c0-3.1,0-6.1,0-9.2c-1.5-6.6-5.6-11.7-11.2-15.8
		c-6.6-3.6-14.8-4.1-21.4-1c-2.6,1-5.1,3.1-6.6,5.6c-1.5,0.5-2.6,1-4.1,2c-0.5,0.5-1,1-1,1.5c-1,0-2,0.5-2.6,1.5
		c-5.1,0.5-9.7,2.6-13.3,5.6c-11.2,9.2-15.3,25-16.8,38.8c-1.5,9.7-2.6,18.9-2.6,29.1c-6.1,0.5-11.7,2.6-18.4,3.1
		c-6.6,0.5-12.3,0-16.3-6.1c-0.5-5.6,1-11.7,7.1-11.2c2.6,0,4.6,1,5.6,3.6c0.5,1,1,3.1,0.5,4.1c-1,0.5-3.1-1-4.1-2
		c-1.5-3.6-6.6-0.5-5.1,3.1c1.5,3.1,5.1,5.1,9.2,5.1s5.6-2.6,6.1-6.6c0-6.6-5.1-11.7-11.7-11.7c-0.5,0-1,0-1.5,0
		c-4.1,0.5-7.1,2.6-9.7,5.6c-1.5,3.1-2.6,6.6-2.6,10.2c0,0.5,0,1,0,1.5s0,1,0,1.5c1.5,10.2,7.7,17.9,18.9,15.8
		c6.6-1.5,12.3-5.6,19.4-7.1c0.5,0,1,0,1.5-0.5c0,2,0,4.6,0,6.6c-5.1-0.5-11.7-1-13.8,4.1c-1,2.6-1,5.6-0.5,8.2
		c0,3.1-0.5,6.1-0.5,9.2c0,3.6,4.1,5.6,7.7,6.6c-4.6,9.2-10.7,16.8-18.4,24s-16.8,11.7-27.6,15.3c-3.6,1-7.1,1-10.7,1
		c1-4.6,2-9.2,3.1-13.3c5.6-0.5,8.2-7.1,5.1-12.8c-0.5-1-1.5-1.5-2-2.6c5.6-28.1,10.7-56.2,15.8-84.2c0,0,0,0,0-0.5v-0.5
		c0-0.5,0-1,0-1.5c-1-7.1-2-13.8-3.6-21.4l0,0c0-0.5,0-0.5,0-1L135,88.1l0,0l0,0l-0.5-3.1c-0.5-2.6-4.1-2.6-5.1-0.5
		c-2,2.6-3.6,5.6-5.1,7.7c-2,2-3.1,4.6-4.1,7.1c-0.5,0.5-1,0.5-1,1c-2,3.6-4.6,7.1-6.6,11.2c-1.5,3.1-2.6,5.6-3.6,7.7
		c-1,0.5-1.5,1-2,2c-5.1,29.1-10.7,58.2-16.8,87.3c-1,0.5-2,1.5-3.1,2.6c-6.6,6.6-7.1,16.8-2,24c-1.5,7.1-3.1,14.8-4.6,21.4
		c0,1,0.5,1.5,0.5,2c0,1,1,1.5,2,2l26.5,7.7c1.5,0.5,3.1-0.5,3.6-2c1.5-6.1,3.1-11.7,4.1-18.4c11.7,0.5,24-3.1,34.2-10.7
		c5.6-3.6,11.2-7.7,15.8-12.8c5.6-6.1,10.2-12.8,13.8-20.9l0,0c0.5,0,1,0,1.5,0c3.6,0.5,6.6,0.5,10.2,1l0,0
		c-1.5,21.4-4.1,41.9-7.1,63.3c-1.5,9.7-3.6,18.9-7.1,28.6c-2,5.1-4.6,9.7-7.7,13.3c-5.1,5.1-13.3,2-18.9-0.5
		c-3.6-1.5-5.1,4.1-1.5,5.6c6.6,2.6,14.8,5.1,21.4,1.5c4.1-2.6,7.1-6.1,9.2-10.7c4.6-8.2,7.7-17.9,9.7-27.6c2-11.7,4.1-23,6.1-34.7
		c2-12.8,3.1-26.5,4.1-39.3c2,0,3.6,0,5.6,0.5c0,0,0,0,0.5,0l0,0c2.6,0,4.6,0.5,7.1,1c-2,23-2.6,45.4-2,68.9
		c-0.5,10.7,1.5,21.4,5.6,31.1c4.1,7.7,10.7,14.8,18.9,17.4c3.6,1,5.1-4.6,1.5-5.6c-20.9-6.6-20.4-31.7-20.9-49.5
		c-0.5-20.9,0-40.8,2-61.3c3.1,1,6.1,2,9.2,3.1c1,0.5,2,1,3.1,1c0,3.1,0,6.1,0,9.2c0,6.6,0.5,13.3,0.5,20.4c0,6.1,0,12.3,1,18.4
		c1.5,10.7,6.1,22.5,16.3,27.1c9.7,4.1,22.5,4.1,25-7.7c1.5-6.1,0.5-12.8-6.1-16.3c-4.6-2-11.7,0.5-11.7,6.6c0.5,3.6,6.1,3.6,5.6,0
		c0-1.5,3.1-1.5,3.6-1c2.6,1,3.1,3.6,2.6,6.1c0,4.1-1.5,7.7-5.6,9.2c-8.2,1-16.8-3.1-20.9-10.7c-3.6-7.7-5.6-16.8-5.1-25.5
		c0-10.2-0.5-20.4-0.5-30.6c0-1,0-2,0-2.6c3.6,1,7.1,1,10.7,1c2.6,0,4.1-1.5,5.1-4.1c1-2.6,1.5-5.1,2.6-7.1c1-2,2-3.6,2.6-5.6
		c2.6-7.1-5.1-10.7-11.2-12.3c1-3.1,2-6.1,3.6-8.2c4.6,3.1,9.2,6.6,11.7,11.7c3.6,4.6,7.7,7.7,13.3,9.7c5.1,0.5,10.2-1,12.8-4.6
		c3.6-3.6,6.6-7.1,7.7-12.3C297.9,177.9,297.3,174.4,295.8,171.3z M121.2,209.6c-1-0.5-2-1-3.1-1.5c5.1-26.5,10.2-52.1,15.8-78.6
		l2.6,0.5C131.4,156.5,126.3,183,121.2,209.6z M132.5,93.2l1.5,10.7l-4.6,2c0-0.5-0.5-1-0.5-1l-1.5-3.1
		C129.9,98.8,130.9,96.2,132.5,93.2z M120.2,112.6c1-2,2-4.1,3.6-6.1l0,0c0.5,1.5,1,2.6,2,4.1c0,0.5,0,1,0,1.5c0-0.5,0.5,0,1,0
		c0,0,0,0.5,0.5,0.5c1.5,1,3.6,0,4.1-1.5l3.6-2c0.5,5.1,1.5,9.7,2.6,13.8l-20.4-4.1C117.7,117.2,118.7,115.1,120.2,112.6z
		 M114.6,125.3l13.8,3.1c-5.6,26.5-10.7,51.6-15.8,78.1c-0.5,0-1.5-0.5-2-0.5c-3.6-1-7.1-1-11.7-0.5
		C104.4,178.4,109.5,152.4,114.6,125.3z M89.1,255.5c3.1-14.8,5.6-28.6,8.2-43.4c3.1-1.5,6.1-2,9.7-1c1.5,0,3.1,0.5,4.6,0.5
		c-3.1,15.8-6.1,31.7-9.7,47L89.1,255.5z M110.5,261.6l-2.6-1c3.6-15.8,6.6-31.7,9.7-47c1,0.5,2,1,3.1,1.5
		C117.1,230.5,114.1,245.8,110.5,261.6z M258,154.4c-7.1-23.5-17.9-45.4-33.7-65.9c3.1-2,5.1-2,7.1,0c2,2,4.1,4.6,5.1,7.1
		c3.6,6.6,6.6,12.8,9.7,20.4c3.1,7.1,5.6,13.3,7.7,20.4C256,138.6,262.6,151.4,258,154.4z M278.5,102.9c1,0,1.5,0.5,2.6,1
		c0.5,0.5,1,0.5,1.5,1c0.5,0.5,0.5,0.5,1,1c-0.5,0-2.6,0-2.6,0l-2.6,0.5c-3.6,0.5-7.1,1-11.2,1C269.3,103.4,273.9,101.9,278.5,102.9
		z M254,85c4.1,4.1,6.1,9.7,5.6,15.3c-0.5,3.1-0.5,6.6,0.5,9.7c-0.5,1.5,0.5,3.1,2,3.6l0,0c1,1,2,2,3.1,2.6
		c4.6,3.6,7.7,8.2,10.2,13.8c2.6,5.6,0.5,11.7-3.6,15.8c-2,2-4.6,3.6-7.1,3.6c0-2-0.5-4.6-1.5-6.6c-3.6-9.7-7.1-18.4-11.2-27.6
		c-3.6-9.2-7.1-17.4-12.3-25.5c-1.5-2.6-3.6-4.6-6.1-6.1c1.5-1,3.1-1.5,4.6-2C244.3,79.4,249.9,80.9,254,85z M247.8,168.7
		c-6.1-1.5-12.3-1-18.4,3.6c-1.5,1-1,2.6-0.5,3.6c0.5,2,3.1,3.1,5.1,1c0.5-0.5,1.5-1,2.6-1.5c2.6-1,5.1-1.5,7.1-1c0.5,0,1,0.5,2,0.5
		c-1.5,4.1-3.1,7.7-4.6,11.7c-0.5,1.5,0.5,3.1,2,3.6c3.1,0.5,6.6,1.5,9.2,3.1c1.5,1,1.5,1,1,2.6c-0.5,1.5-1,3.1-2,4.1
		c-1,2-2,4.1-2.6,6.1c0,0-0.5,2.6-0.5,2c-1.5,0-3.1,0-5.1-0.5c-7.7-1-15.8-4.6-23-6.6c-0.5-1-2-1.5-3.6-1c-3.1-0.5-6.1-1-9.2-1
		c-5.6-0.5-11.2-0.5-16.3-1c-5.1,0-10.2-1.5-15.3-4.1c0-4.1,0.5-8.2,0.5-12.3c0-1,0-1.5,0.5-2c0.5-0.5,2.6-0.5,3.6-0.5
		c2.6,0,5.6,0,7.7,0.5c1.5,0,3.1-1,3.1-2.6c0-3.1,0-6.1-0.5-9.7c3.6,0.5,6.6,2.6,7.7,6.1c0.5,2.6,6.1,1,5.1-2.6
		c-2.6-6.1-7.1-9.2-12.3-10.2l0,0c0-7.1,0.5-13.8,1.5-20.9c1.5-12.8,4.1-28.1,11.7-39.3c3.1-4.6,7.7-7.1,12.8-8.2c1,0,2,0,2.6,0
		c10.2,13.3,18.4,28.1,24.5,44.4c0,1,1,2.6,1.5,3.6c2,5.6,4.1,11.2,5.6,16.8C250.9,160.1,249.9,164.7,247.8,168.7z"/>
</g>
<g>
	<g>
		<path class="st5" d="M361.3,276.2c12.4-24.9,19.4-52.9,19.4-82.6c0-102.4-83.1-185.5-185.5-185.5S9.6,91.2,9.6,193.6
			s83.1,185.5,185.5,185.5c37.9,0,73.1-11.4,102.5-30.9c6.6,24.4,29,42.4,55.5,42.4c31.8,0,57.5-25.7,57.5-57.5
			C410.6,304.1,389.2,280.1,361.3,276.2z M195.1,354.6c-88.9,0-161-72.1-161-161s72.1-161,161-161s161,72.1,161,161
			S284,354.6,195.1,354.6z M353.1,373.6c-22.4,0-40.5-18.1-40.5-40.5s18.1-40.5,40.5-40.5s40.5,18.1,40.5,40.5
			S375.5,373.6,353.1,373.6z"/>
	</g>
</g>
<g class="st6">
	<path class="st7" d="M214.1,336.6c-88.9,0-161-72.1-161-161c0-41.3,15.6-79,41.2-107.5c-36.7,29.5-60.2,74.8-60.2,125.5
		c0,88.9,72.1,161,161,161c47.6,0,90.4-20.7,119.8-53.5C287.4,323.3,252.3,336.6,214.1,336.6z"/>
</g>
<g class="st8">
	<path class="st2" d="M182.1,50.6c88.9,0,161,72.1,161,161c0,31.2-8.9,60.3-24.2,85c23.2-27.9,37.2-63.8,37.2-103
		c0-88.9-72.1-161-161-161c-57.7,0-108.4,30.4-136.8,76C87.9,73.2,132.4,50.6,182.1,50.6z"/>
</g>
<g>
	<circle class="st2" cx="353.1" cy="333.1" r="40.5"/>
	<g>
		<path class="st7" d="M391.1,333.1c-0.1,15.7-10,30.3-24.9,35.7c-15.1,5.5-32.2,0.8-42.5-11.6c-10.2-12.2-11.3-30.2-3.1-43.7
			c8.2-13.6,24.5-20.8,40.1-17.6c15.4,3.2,27.4,15.8,30,31.3C391,329.2,391.1,331.1,391.1,333.1c0,3.2,5,3.2,5,0
			c-0.1-18-11.4-34.2-28.3-40.4c-16.8-6.2-36.4-0.9-47.8,12.9c-11.5,14-13.2,34.1-3.8,49.7c9.3,15.5,27.7,23.5,45.4,20
			c17.2-3.4,31.2-17.9,33.9-35.2c0.4-2.3,0.6-4.6,0.6-6.9C396.1,329.9,391.1,329.9,391.1,333.1z"/>
	</g>
</g>
<g>
	<path class="st9" d="M188.1,20.1c102.4,0,181.5,75.1,181.5,177.5c0,36.9-2.5,44.5-8.5,78.5c13-35,19.5-37.1,19.5-82.5
		c0-102.4-83.1-185.5-185.5-185.5C129.6,8.1,72,42.1,39,93.5C73,52.9,131,20.1,188.1,20.1z"/>
</g>
<g>
	<path class="st10" d="M200.1,366.1C97.7,366.1,15.6,283,15.6,180.6c0-34,10.1-65.8,27.4-93.2C22,117.5,9.6,154.1,9.6,193.6
		c0,102.4,83.1,185.5,185.5,185.5c34.1,0,66.1-9.2,93.6-25.3C264.4,361.9,227.7,366.1,200.1,366.1z"/>
</g>
<g class="st6">
	<path class="st7" d="M359.1,364.6c-22.4,0-40.5-18.1-40.5-40.5c0-6.4,1.5-12.4,4.1-17.7c-6.3,7.1-10.1,16.5-10.1,26.7
		c0,22.4,18.1,40.5,40.5,40.5c16,0,29.9-9.3,36.4-22.8C382.1,359.3,371.3,364.6,359.1,364.6z"/>
</g>
<g>
	<g>
		<path class="st0" d="M341.3,345.5c0.1,0.3,0.1,0.7,0.2,1c0.1,0.7,0.1,1.3,0.7,1.7c0.6,0.4,1.2,0.2,1.8,0c0.5-0.2,1-0.3,1.5-0.2
			l20.1-30.1l-4.1-2.7L341.3,345.5z"/>
	</g>
	<polygon class="st11" points="360.4,309.4 362.9,305.6 360.4,309.4 	"/>
	<path class="st12" d="M366.6,307.6l-2.7,4l4.1,2.7l2-3c1.2-1.7,3.1-3.6,1.4-4.8l1.3,0.8l-1.6-1
		C369.2,305.3,367.7,305.9,366.6,307.6z"/>
	<path class="st11" d="M368.2,304.6c-1.7-1.2-4.1-0.7-5.2,1C364.1,303.9,366.4,303.4,368.2,304.6z"/>
	<polygon class="st13" points="360.4,309.4 360.4,309.4 360.4,309.4 360.4,309.4 	"/>
	<path class="st13" d="M360.4,309.4l-1.6,2.4L360.4,309.4z"/>
	<path class="st13" d="M368.8,319.9l1.2-1.9L368.8,319.9z"/>
	<path class="st14" d="M340.3,347.3l-0.8-0.1l-4.9,10.6l8.9-6.8l0.3-0.3l1.6-2.5c-0.4-0.1-0.9,0.1-1.3,0.2c-0.7,0.2-1.3,0.4-2,0
		s-0.7-1.1-0.8-1.8c0-0.3-0.1-0.6-0.1-0.9l-0.6,0.8C340.4,346.7,340.3,347,340.3,347.3z"/>
	<path class="st13" d="M344,348.2c-0.6,0.2-1.2,0.4-1.8,0c-0.6-0.4-0.7-1-0.7-1.7c0-0.4-0.1-0.7-0.2-1l-0.1,0.1
		c0.3,0.9,0,2.1,0.9,2.7c1.1,0.7,2.2-0.4,3.3-0.2l0.1-0.1C345,347.9,344.5,348.1,344,348.2z"/>
	<path class="st13" d="M342.1,348.3c-1-0.6-0.6-1.8-0.9-2.7l-0.1,0.1c0.1,0.3,0.1,0.6,0.1,0.9C341.3,347.2,341.4,347.9,342.1,348.3
		c0.6,0.5,1.3,0.3,1.9,0.1c0.4-0.1,0.9-0.3,1.3-0.2l0.1-0.1C344.3,347.9,343.2,349,342.1,348.3z"/>
	<path class="st13" d="M371,306.5l-2.8-1.9L371,306.5z"/>
	<path class="st15" d="M338.4,344.8c0.7-0.3,1.3-0.7,2.1-0.3c0.4,0.2,0.6,0.6,0.8,0.9l20.2-30.3l-3.4-2.3l-21.3,32l-0.1,0.3l0,0
		C337.3,345.4,337.8,345.1,338.4,344.8z"/>
	<path class="st16" d="M363.9,311.7l2.7-4c1.2-1.7,2.7-2.3,4.4-1.2l-2.8-1.9c-1.7-1.2-4.1-0.7-5.2,1l-2.5,3.8L363.9,311.7z"/>
	
		<rect x="359.1" y="310.3" transform="matrix(0.5552 -0.8317 0.8317 0.5552 -99.1314 439.1689)" class="st17" width="3.9" height="4"/>
	<path class="st13" d="M340.5,344.7c0.4,0.2,0.6,0.6,0.7,0.9l0.1-0.1C341.2,345.1,340.9,344.8,340.5,344.7c-0.8-0.5-1.5-0.2-2.1,0.2
		c-0.6,0.3-1.1,0.6-1.7,0.3l0,0v0.1C338,345.8,339,343.9,340.5,344.7z"/>
	<polygon class="st2" points="371.1,316.5 371.1,316.5 373.6,312.7 	"/>
	<path class="st18" d="M365.6,317.9L345.5,348c0.2,0,0.5,0.1,0.7,0.3c0.7,0.6,0.7,1.4,0.6,2.1c-0.1,0.6-0.1,1.2,0.3,1.7l0,0l0.3-0.2
		l21.3-32l0,0L365.6,317.9z"/>
	<path class="st19" d="M369.9,311.4l-2,3l3.1,2.1l2.5-3.8c1.2-1.7,0.7-4.1-1-5.2l-1.3-0.8C373,307.8,371.1,309.7,369.9,311.4z"/>
	
		<rect x="366.4" y="315.3" transform="matrix(0.5553 -0.8317 0.8317 0.5553 -99.921 447.3256)" class="st20" width="3.9" height="3.6"/>
	<path class="st21" d="M343.4,350.9l-8.9,6.8l-2,4.2c0.1,0.1,0.2,0.2,0.3,0.3c0.3,0.2,0.7,0.3,1.1,0l13-10c-0.4-0.5-0.4-1.2-0.3-1.8
		c0.1-0.7,0.1-1.4-0.5-1.9c-0.2-0.2-0.5-0.3-0.7-0.3l-1.6,2.5L343.4,350.9z"/>
	<path class="st2" d="M346.8,350.4c0.1-0.7,0.1-1.5-0.6-2.1c-0.2-0.2-0.5-0.3-0.7-0.3l-0.1,0.1c0.2,0,0.5,0.1,0.7,0.3
		c1.3,1.1-0.1,2.7,0.9,3.8l0.1-0.1l0,0C346.7,351.7,346.7,351.1,346.8,350.4z"/>
	<path class="st22" d="M340.4,344.7c-0.7-0.4-1.3-0.1-2,0.3c-0.5,0.3-1.1,0.6-1.8,0.4l-4.3,15.8c0,0.1,0,0.3,0,0.4s0.1,0.3,0.2,0.4
		l2-4.2l4.2-7.6l1.6-2.8c0.1-0.3,0.2-0.5,0.4-0.8l0.6-0.8C341.1,345.3,340.9,345,340.4,344.7z"/>
	
		<rect x="362.8" y="312.3" transform="matrix(0.5553 -0.8317 0.8317 0.5553 -99.5672 443.3284)" class="st23" width="3.9" height="4.9"/>
	<g>
		<g>
			<path class="st7" d="M373.3,306.2c-1.5-1-2.9-2-4.4-2.9c-1.7-1.1-3.8-1.1-5.5-0.1c-1.1,0.7-1.7,1.7-2.4,2.7
				c-0.6,0.9-1.2,1.8-1.8,2.7c-0.5,0.7-0.1,1.6,0.5,2.1c2.6,1.8,5.3,3.5,7.9,5.3c0.9,0.6,1.8,1.2,2.7,1.8c0.7,0.5,1.6,0.1,2.1-0.5
				c0.8-1.2,1.6-2.4,2.4-3.6C376.4,311.1,375.7,307.9,373.3,306.2c-0.7-0.5-1.7-0.1-2.1,0.5c-0.4,0.7-0.1,1.6,0.5,2.1
				c0.3,0.2,0.6,0.6,0.8,1c0.1,0.2,0.2,0.8,0.1,1c-0.1,0.6-0.4,1.1-0.8,1.6c-0.7,1.1-1.4,2.2-2.2,3.2c0.7-0.2,1.4-0.4,2.1-0.5
				c-2.7-1.8-5.3-3.6-8-5.3c-0.9-0.6-1.8-1.2-2.6-1.8c0.2,0.7,0.4,1.4,0.5,2.1c0.5-0.7,0.9-1.4,1.4-2c0.4-0.6,0.9-1.5,1.4-2
				c0.8-0.8,1.9-0.9,3-0.2c0.8,0.5,1.6,1.1,2.4,1.6c0.6,0.4,1.3,0.9,1.9,1.3c0.7,0.4,1.7,0.1,2.1-0.5
				C374.3,307.5,374,306.7,373.3,306.2z"/>
		</g>
	</g>
	<g>
		<g>
			<path class="st7" d="M368.7,313.2c-2.5-1.7-5-3.4-7.5-5c-0.7-0.5-1.6-0.1-2.1,0.5c-1,1.5-2.1,3-3.1,4.5c-0.5,0.7-0.1,1.6,0.5,2.1
				c2.7,1.8,5.3,3.6,8,5.3c0.9,0.6,1.7,1.2,2.6,1.7c0.7,0.5,1.6,0.1,2.1-0.5c1-1.5,2.1-3,3.1-4.5c0.5-0.7,0.1-1.6-0.5-2.1
				C370.7,314.6,369.7,313.9,368.7,313.2c-1.6-1.1-3.1,1.5-1.5,2.6c1,0.7,2.1,1.4,3.1,2.1c-0.2-0.7-0.4-1.4-0.5-2.1
				c-1,1.5-2.1,3-3.1,4.5c0.7-0.2,1.4-0.4,2.1-0.5c-2.7-1.8-5.3-3.6-8-5.3c-0.9-0.6-1.7-1.2-2.6-1.8c0.2,0.7,0.4,1.4,0.5,2.1
				c1-1.5,2.1-3,3.1-4.5c-0.7,0.2-1.4,0.4-2.1,0.5c2.5,1.7,5,3.4,7.5,5C368.8,316.9,370.3,314.3,368.7,313.2z"/>
		</g>
	</g>
	<g>
		<g>
			<path class="st7" d="M365.5,317.9c-2.5-1.7-5-3.3-7.5-5c-0.7-0.5-1.6-0.1-2.1,0.5c-6.1,9.1-12.1,18.2-18.2,27.3
				c-0.8,1.2-2.1,2.6-2.5,4.1c-0.2,0.8,0.3,1.6,1,1.8c0.6,0.2,1.3,0.1,1.8,0c0.4-0.1,1.5-0.9,1.8-0.6s0.1,1.3,0.3,1.7
				c0.2,0.7,0.6,1.3,1.1,1.7c0.6,0.4,1.3,0.6,2,0.5c0.4,0,1.7-0.7,2-0.3c0.2,0.2-0.1,1.6,0,1.9c0.1,0.6,0.3,1.2,0.8,1.7
				c0.4,0.4,1.3,0.6,1.8,0.2c1.1-0.8,1.8-2.2,2.5-3.3c1.6-2.4,3.2-4.9,4.9-7.3c3.7-5.6,7.5-11.2,11.2-16.9c0.9-1.3,1.8-2.6,2.6-4
				c0.5-0.7,0.1-1.6-0.5-2.1C367.5,319.3,366.5,318.6,365.5,317.9c-1.6-1.1-3.1,1.5-1.5,2.6c1,0.7,2.1,1.4,3.1,2.1
				c-0.2-0.7-0.4-1.4-0.5-2.1c-6,9-12,18.1-18.1,27.1c-0.6,0.9-1.2,1.7-1.7,2.6c-0.2,0.2-0.3,0.5-0.5,0.7c-0.4,0.7,0.7-0.5,0.1-0.1
				c0.6,0.1,1.2,0.2,1.8,0.2c0.1,0.2,0.1-0.6,0.1-0.8c0-0.3,0-0.6,0-1c-0.1-0.8-0.4-1.5-1-2s-1.3-0.8-2.1-0.8
				c-0.4,0-1.9,0.5-2.1,0.4c-0.1-0.1-0.1-0.7-0.1-0.9c-0.1-0.4-0.1-0.8-0.3-1.2c-0.3-0.6-0.7-1.1-1.3-1.5c-0.7-0.4-1.5-0.5-2.3-0.3
				c-0.4,0.1-1.6,0.9-1.9,0.8c0.3,0.6,0.7,1.2,1,1.8c0.2-0.6-0.2,0.3,0-0.1c0.1-0.2,0.2-0.4,0.4-0.6c0.5-0.7,1-1.5,1.4-2.2
				c1.6-2.4,3.2-4.8,4.8-7.3c3.7-5.6,7.4-11.1,11.1-16.7c0.8-1.3,1.7-2.5,2.5-3.8c-0.7,0.2-1.4,0.4-2.1,0.5c2.5,1.7,5,3.3,7.5,5
				C365.6,321.6,367.1,319,365.5,317.9z"/>
		</g>
	</g>
	<g>
		<g>
			<path class="st7" d="M348.1,350.4c0.1-1.6-0.5-3.1-2.1-3.6c-0.7-0.2-1.4-0.1-2.1,0.1c-0.4,0.1-0.9,0.4-1.1,0.2
				c-0.1-0.2-0.1-0.6-0.1-0.8c0-0.4-0.1-0.8-0.2-1.2c-0.2-0.7-0.7-1.3-1.3-1.6c-0.7-0.4-1.6-0.5-2.4-0.2c-0.4,0.1-1.3,0.8-1.7,0.7
				c-0.8-0.2-1.6,0.2-1.8,1c-1.3,4.9-2.6,9.8-3.9,14.7c-0.3,0.9-0.6,1.9-0.1,2.9c0.8,1.6,2.6,1.6,3.9,0.6c2.2-1.7,4.4-3.4,6.6-5.1
				c2-1.5,4-3,5.9-4.6c0.6-0.5,1-1.3,0.5-2.1C348,351.1,348.1,350.8,348.1,350.4c0.2-1.9-2.8-1.9-3,0c-0.1,0.9,0,1.8,0.5,2.5
				c0.2-0.7,0.4-1.4,0.5-2.1c-3.8,2.9-7.6,5.9-11.5,8.8c-0.3,0.3-0.7,0.5-1,0.8c-0.1,0.1-0.5,0.3-0.5,0.4c0.1-0.4,1,0.5,0.7,0.7
				c0,0,0-0.2,0.1-0.2c0.1-0.3,0.2-0.6,0.2-0.9c0.7-2.7,1.5-5.4,2.2-8.1c0.6-2.2,1.2-4.4,1.8-6.6c-0.6,0.3-1.2,0.7-1.8,1
				c0.7,0.1,1.4,0.1,2.1-0.2c0.4-0.1,1-0.7,1.4-0.6c-0.3,0,0,0.6,0,0.8c0.1,0.6,0.2,1.2,0.5,1.7c0.7,1.2,2.1,1.7,3.4,1.4
				c0.3-0.1,1.1-0.5,1.4-0.4c0,0-0.1-0.1,0,0s0,0.6,0,0.7C344.9,352.3,347.9,352.3,348.1,350.4z"/>
		</g>
	</g>
	<g>
		<g>
			<path class="st7" d="M332.5,361.2c0,0.1,0,0.3,0,0.4s0.1,0.3,0.2,0.4s0.2,0.2,0.3,0.3c0.3,0.2,0.7,0.3,1.1,0l6.3-4.8
				c-1.7-1.5-3.7-2.7-5.8-3.3L332.5,361.2z"/>
		</g>
	</g>
</g>
<g>
	<path class="st10" d="M296.7,346.2c6.6,24.4,29,42.4,55.5,42.4c16,0,30.4-6.5,40.8-17c-9.5,6.9-21.2,11-33.8,11
		c-26.5,0-48.8-18-55.5-42.4L296.7,346.2z"/>
</g>
<g>
	<g>
		<path class="st9" d="M344.9,280.7"/>
	</g>
	<g>
		<path class="st9" d="M346.7,280.6c20.9-0.7,41,11,50.1,31.3c9.5,21.1,4,45-11.8,60.1c21.2-13,29.9-40,19.4-63.3
			C394.4,286.3,369.8,274.9,346.7,280.6z"/>
	</g>
</g>
<g>
	<g>
		<path class="st7" d="M363.4,277.5c18.4-37.1,24.1-79.8,16.1-120.4c-6.5-32.9-22-63.7-44.3-88.7c-22.2-24.8-50.9-43.5-82.6-53.7
			C219.4,4,183.3,2.9,149.4,11.3C117,19.4,87,36.3,63.2,59.7S22,112.8,13.4,145c-9,33.5-8.5,69.5,1.5,102.7
			c9.6,32.1,27.9,61.4,52.5,84.1s55.1,38.7,87.8,45.7c39.1,8.4,80.4,4.1,116.9-12.3c9.3-4.2,18.2-9.1,26.7-14.7
			c-1.2-0.5-2.4-1-3.7-1.5c4.6,16.4,16.1,30.6,31.4,38.1c15.6,7.6,34.1,8.1,50.1,1.3c15-6.4,26.8-18.9,32.5-34.1
			c6.1-16,4.8-34.3-3.3-49.4c-8.9-16.6-25.5-28.3-44.1-31c-1.3-0.2-2.7,0.3-3.1,1.7c-0.3,1.2,0.4,2.9,1.7,3.1
			c15.3,2.2,29.3,10.7,38.1,23.6c8.7,13,11.7,29.3,7.8,44.4c-3.7,14.6-13.5,27.2-26.7,34.6c-13.8,7.7-30.7,8.9-45.5,3.5
			c-16.6-6-29.4-20.2-34.2-37.2c-0.4-1.5-2.3-2.4-3.7-1.5c-34.1,22.6-75.1,33.2-115.9,30c-32.9-2.6-64.8-14.3-91.6-33.4
			c-26.3-18.7-47.4-44.5-60.7-73.9C14.3,238,9.4,203.6,13.6,170.2c4.1-32.5,17.2-63.8,37.5-89.5c20-25.4,46.6-45.5,76.7-57.3
			c31.4-12.4,66.1-15.9,99.4-10c32.2,5.7,62.6,20.1,87.4,41.5c24.5,21.2,43.3,48.7,53.8,79.4c12.2,35.8,13,75.2,2.2,111.6
			c-3,10-6.8,19.7-11.4,29.1C357.7,277.8,362,280.3,363.4,277.5z"/>
	</g>
</g>
<g>
	<g>
		<path class="st7" d="M353.6,193.6c0,16.7-2.6,33.3-7.8,49.1c-4.9,15.2-12.2,29.6-21.5,42.7c-9.1,12.9-20.3,24.5-32.8,34.1
			c-12.7,9.7-26.8,17.5-41.8,23c-15.6,5.7-32,8.9-48.5,9.5c-16.7,0.6-33.4-1.3-49.4-5.9c-15.5-4.4-30.3-11.2-43.8-20
			c-13.2-8.7-25.1-19.4-35.2-31.6s-18.5-26.1-24.5-40.8c-6.2-15.2-10-31.3-11.3-47.6c-1.3-16.8,0-33.7,4-50
			c3.8-15.6,10-30.6,18.4-44.4C67.8,97.9,78.1,85.6,90,75s25.4-19.3,39.8-25.9c14.8-6.7,30.8-11.2,46.9-13
			c16.7-1.9,33.6-1.2,50.1,2.1c15.9,3.2,31.3,8.9,45.4,16.8c13.9,7.7,26.5,17.5,37.5,29s20.3,24.7,27.4,39
			c7.2,14.5,12.2,30.2,14.7,46.2C353,177.3,353.6,185.5,353.6,193.6c0,3.2,5,3.2,5,0c0-17.1-2.7-34.2-7.9-50.4
			c-5.1-15.7-12.6-30.6-22.1-44c-9.6-13.4-21.1-25.4-34.2-35.4s-27.6-18-43.1-23.7c-15.9-5.9-32.8-9.1-49.8-9.8
			c-17.2-0.7-34.5,1.4-51,6c-15.9,4.5-31.1,11.5-45,20.6C91.8,65.9,79.4,77,69,89.6c-10.5,12.8-19,27-25.3,42.3
			c-6.4,15.6-10.3,32.3-11.6,49.1c-1.3,17.2,0.1,34.6,4.1,51.4c3.9,16.1,10.3,31.6,18.9,45.8c8.5,14,19.1,26.8,31.4,37.7
			c12.3,10.9,26.1,19.9,41.1,26.7c15.4,7,31.8,11.5,48.6,13.4c17.2,2,34.7,1.2,51.6-2.2c16.3-3.3,32.1-9.2,46.7-17.3
			c14.3-8,27.5-18.2,38.8-30s20.8-25.4,28.1-40c7.5-15,12.6-31.1,15.1-47.6c1.3-8.3,1.9-16.8,1.9-25.2
			C358.6,190.4,353.6,190.4,353.6,193.6z"/>
	</g>
</g>
</svg>
