<?xml version="1.0" encoding="utf-8"?>
<!-- Generator: Adobe Illustrator 24.2.0, SVG Export Plug-In . SVG Version: 6.00 Build 0)  -->
<svg version="1.1" id="Layer_1" xmlns="http://www.w3.org/2000/svg" xmlns:xlink="http://www.w3.org/1999/xlink" x="0px" y="0px"
	 viewBox="0 0 418 400" style="enable-background:new 0 0 418 400;" xml:space="preserve">
<style type="text/css">
	.st0{fill:#F8DAD4;}
	.st1{clip-path:url(#SVGID_2_);}
	.st2{fill:#FFFFFF;}
	.st3{fill:#E4252E;}
	.st4{clip-path:url(#SVGID_4_);}
	.st5{fill:#FAC706;}
	.st6{fill:#45B7C0;}
	.st7{fill:#183E42;}
	.st8{fill:#0065AF;}
	.st9{fill:#7EC7CD;}
	.st10{fill:#EC6A66;}
	.st11{fill:#4287C7;}
	.st12{clip-path:url(#SVGID_6_);}
	.st13{fill:none;stroke:#183E42;stroke-linecap:round;stroke-linejoin:round;stroke-miterlimit:10;}
	.st14{fill:#7DC4CA;}
	.st15{opacity:0.32;}
	.st16{fill:#1D1D1B;}
	.st17{opacity:0.42;}
	.st18{fill:#D2E8EB;}
	.st19{fill:#42797D;}
	.st20{fill:#F7C402;}
	.st21{fill:#F72872;}
	.st22{fill:#E66869;}
	.st23{fill:#390075;}
	.st24{fill:#FFDA83;}
	.st25{fill:#AA8B12;}
	.st26{fill:#993637;}
	.st27{fill:#729496;}
	.st28{fill:#FDEAAB;}
	.st29{fill:#F5C3C3;}
	.st30{fill:#E7F3F4;}
	.st31{fill:#FFF0D1;}
	.st32{fill:#BFA362;}
	.st33{fill:#C2E1E3;}
</style>
<g>
	<g>
		<path class="st0" d="M359.2,193.5c0,89.8-72.8,162.6-162.6,162.6S34,283.3,34,193.5S106.8,30.9,196.6,30.9
			C286.4,30.9,359.2,103.7,359.2,193.5"/>
	</g>
</g>
<g>
	<g>
		<defs>
			<path id="SVGID_1_" d="M353.7,193.5c0,88.1-71.4,159.5-159.5,159.5S34.7,281.6,34.7,193.5C34.7,105.4,106.1,34,194.2,34
				S353.7,105.4,353.7,193.5"/>
		</defs>
		<clipPath id="SVGID_2_">
			<use xlink:href="#SVGID_1_"  style="overflow:visible;"/>
		</clipPath>
		<g class="st1">
			<g>
				<g>
					<polygon class="st2" points="309.6,147.6 313.9,160.6 312.5,196.1 304.9,196 305.2,160.8 					"/>
				</g>
				<g>
					<g>
						<path d="M307.8,148.2c1.4,4.2,3,8.3,4.1,12.6c0.2,0.7,0-0.7,0,0.2c0,0.5,0,1.1-0.1,1.6c-0.1,2.1-0.2,4.2-0.2,6.3
							c-0.3,9.1-0.7,18.2-1,27.2c0.6-0.6,1.3-1.3,1.9-1.9c-2.5,0-5.1,0-7.6-0.1c0.6,0.6,1.3,1.3,1.9,1.9c0.1-9.1,0.1-18.2,0.2-27.4
							c0-2,0-4.1,0-6.1c0-0.5,0-1,0-1.5c0.1-0.6-0.2,0.7,0.1-0.3c1.4-4.2,2.8-8.4,4.3-12.7c0.8-2.4-2.9-3.4-3.7-1
							c-1.4,4.2-3.2,8.4-4.3,12.7c-0.7,2.6-0.3,5.6-0.3,8.3c-0.1,9.3-0.1,18.6-0.2,27.9c0,1,0.9,1.9,1.9,1.9c2.5,0,5.1,0,7.6,0.1
							c1.1,0,1.9-0.9,1.9-1.9c0.4-9.3,0.7-18.5,1.1-27.8c0.1-2.7,0.7-5.9,0.1-8.6c-0.9-4.2-2.8-8.5-4.1-12.6
							C310.7,144.8,307,145.8,307.8,148.2z"/>
					</g>
				</g>
			</g>
			<g>
				<g>
					<path class="st3" d="M298.7,211.3c0.5-6.3-1.6-14.5-0.8-20.8c6.1-1.1,14.9-0.3,20.9-1.5c0.4-0.1,0.8-0.1,1.1,0.1
						c0.3,0.3,0.3,0.8,0.3,1.2c0,6.6-0.2,13.2-0.7,19.9"/>
				</g>
				<g>
					<g>
						<path d="M300.6,211.3c0.4-7-1.5-13.9-0.8-20.8c-0.5,0.6-0.9,1.2-1.4,1.9c3.1-0.5,6.3-0.6,9.4-0.7c3-0.1,6.5,0.3,9.5-0.5
							c0.1,0,1.8-0.3,1.1-0.5c-0.1-0.5-0.1-0.4-0.1,0.3c0,0.6,0,1.2,0,1.9c0,1.9,0,3.7-0.1,5.6c-0.1,4-0.3,7.9-0.6,11.9
							c-0.2,2.5,3.7,2.5,3.9,0c0.4-5,0.6-10,0.7-15c0-2.4,1.1-7.5-2.2-8.2c-1.4-0.3-3.4,0.3-4.8,0.5c-2.1,0.2-4.1,0.2-6.2,0.3
							c-3.9,0.1-7.7,0.2-11.5,0.8c-0.9,0.2-1.3,1.1-1.4,1.9c-0.7,7,1.2,13.9,0.8,20.8C296.6,213.8,300.5,213.8,300.6,211.3
							L300.6,211.3z"/>
					</g>
				</g>
			</g>
			<g>
				<g>
					<path class="st3" d="M298.7,211.3c3.3,25.1,1.6,83.7,6.6,107.6c3.4,0.1,6.7,0,10.1-0.3c0.8-0.1,1.8-0.2,2.4-0.8
						c0.7-0.6,0.9-1.5,1-2.4c2.1-22.8,0.6-78.8,1.5-106.5"/>
				</g>
				<g>
					<g>
						<path d="M296.7,211.3c1.7,13.5,1.9,27.2,2.3,40.8c0.5,15.7,0.7,31.4,1.9,47c0.5,6.8,1.1,13.6,2.5,20.3
							c0.2,0.8,1.1,1.4,1.9,1.4c2.9,0.1,5.9,0,8.8-0.2c2.1-0.2,4.2-0.3,5.5-2.1c1.6-2.2,1.3-5.9,1.5-8.5c0.4-7.4,0.6-14.7,0.7-22.1
							c0.2-17.7,0.1-35.4,0.1-53.2c0-8.6,0-17.2,0.3-25.8c0.1-2.5-3.8-2.5-3.9,0c-1,30.8,0.3,61.7-0.7,92.5
							c-0.1,3.4-0.3,6.7-0.5,10.1c-0.1,1.8,0.2,4.5-1.8,5.2c-2.8,1-7.1,0.4-10.1,0.3c0.6,0.5,1.2,0.9,1.9,1.4
							c-2.7-13-2.9-26.6-3.4-39.8c-0.6-15.5-0.8-31-1.5-46.4c-0.3-6.9-0.7-13.9-1.6-20.8C300.3,208.8,296.4,208.8,296.7,211.3
							L296.7,211.3z"/>
					</g>
				</g>
			</g>
			<g>
				<g>
					<path class="st3" d="M329.7,221.4c-13.3,1.5-28.2,0.1-41.6-0.1c-0.3-2.6-0.5-5.3-0.8-7.9c0-0.5-0.1-1,0.2-1.4
						c0.4-0.5,1.1-0.5,1.7-0.6c13.4-0.4,26.7-0.8,40.1-1.2c0.3,0,0.7,0,1,0.2c0.5,0.3,0.5,1.1,0.5,1.7
						C330.3,215.1,330,218.2,329.7,221.4"/>
				</g>
				<g>
					<g>
						<path d="M329.7,219.4c-13.8,1.4-27.8,0.2-41.6-0.1c0.6,0.6,1.3,1.3,1.9,1.9c-0.2-2-1-4.9-0.7-6.8c0.3-1.6-1.1-1.1,1.1-1.2
							c1.2-0.1,2.5-0.1,3.8-0.1c5-0.1,10-0.3,15-0.4c5-0.1,10-0.3,15-0.4c1,0,3-0.5,3.8-0.1c0.2,0,0.5-0.1,0.7-0.1
							c-0.1,0.6-0.1,1.2-0.2,1.7c-0.3,2.5-0.5,5.1-0.8,7.6s3.6,2.5,3.9,0c0.3-3.1,1-6.5,1-9.6c0-1.7-0.7-2.9-2.4-3.3
							c-2.9-0.8-6.7,0-9.8,0.1c-3.5,0.1-7.1,0.2-10.6,0.3c-6.9,0.2-13.8,0.1-20.7,0.6c-5.9,0.5-3.4,7.9-3,11.8
							c0.1,1.1,0.8,1.9,1.9,1.9c13.9,0.3,27.8,1.5,41.6,0.1C332.1,223,332.1,219.2,329.7,219.4L329.7,219.4z"/>
					</g>
				</g>
			</g>
		</g>
	</g>
	<g>
		<defs>
			<path id="SVGID_3_" d="M353.7,193.5c0,88.1-71.4,159.5-159.5,159.5S34.7,281.6,34.7,193.5C34.7,105.4,106.1,34,194.2,34
				S353.7,105.4,353.7,193.5"/>
		</defs>
		<clipPath id="SVGID_4_">
			<use xlink:href="#SVGID_3_"  style="overflow:visible;"/>
		</clipPath>
		<g class="st4">
			<g>
				<g>
					<g>
						<g>
							<path class="st5" d="M142.3,112.8c-7.9,24.7-11.4,39.5-17.7,59.1c-4.6,14.5-11.2,28.3-17.8,42c-0.6,1.3-1.3,2.7-2.7,3.5
								c-2.4,1.3-5.7-0.4-8.2,0.8c-1.9,0.9-2.7,3-3.3,4.9c-3.6,11.2-7.2,22.3-10.7,33.5c-2,6.1-3.9,13.1-0.7,18.7
								c2.5,4.3,7.4,6.8,12.1,8.7c19.9,8.2,41.2,12.4,62,18c20.3,5.5,40.1,11.9,59.9,18.8c6.6,2.3,13.9,0.3,20.9,0
								c1.8-0.1,3.6-0.2,5.2-1.1c2.4-1.4,3.4-4.2,4.3-6.9c4.1-12.9,9.7-26,13.3-39c1.3-4.6,4.2-5.1,2.5-9.6
								c-0.9-2.5-6.8-11.8-6.8-11.8c-0.9-3.1,3-14.3,3.7-17.5c6.7-30.1,12.3-53,19-83c1.1-5.2,1.4-10.7,6.8-11.4
								c2.2-0.3,2,0.1,3.9-0.9c1.8-1,2.5-3.2,2.9-5.2c2.5-10.7,4.8-21.4,6.9-32.1c0.3-1.3,0.5-2.7-0.2-3.9c-0.6-1-1.8-1.6-2.9-2.1
								C249.6,75.6,207.3,66,157.4,61.7c-2.2-0.2-4.6-0.3-6.3,1.1c-1.3,1.1-1.8,2.9-2.2,4.5c-1.4,5.9-3.9,10.1-5.3,16
								c-1.2,5.1-3.7,10.7-5.1,15.7C137.1,104.1,140.5,108.6,142.3,112.8z"/>
						</g>
						<g>
							<g>
								<path d="M139.5,112c-7.9,24.9-13.6,50.7-23.6,74.9c-3,7.2-6.3,14.2-9.6,21.2c-0.8,1.6-1.5,3.2-2.3,4.7
									c-0.9,1.8-1.7,2.2-3.6,2.1c-3-0.1-5.8-0.2-8,2.2c-1.9,2-2.6,5-3.4,7.6c-1.2,3.6-2.3,7.2-3.5,10.8
									c-2.4,7.5-4.9,14.9-7.2,22.4c-1.8,6.1-3,13,0.3,18.9c2.9,5,8.3,7.7,13.4,9.9c13.8,5.8,28.3,9.5,42.7,13.2
									c14.9,3.8,29.8,7.7,44.5,12.3c7.4,2.3,14.7,4.7,22.1,7.1c7.1,2.4,14.2,5.8,21.8,5.7c3.5-0.1,7.1-0.6,10.6-0.9
									c3.4-0.3,6.9-0.1,9.7-2.2c4.8-3.5,5.9-11.4,7.7-16.6c2.5-7.1,5.2-14.1,7.6-21.2c1.1-3.3,1.8-7,3.2-10.2
									c1-2.3,2.8-4.2,2.8-6.8c0.1-4-2.8-7.9-4.8-11.2c-0.8-1.4-1.8-2.8-2.6-4.2c-0.5-0.9-0.3,0.7,0-0.3c0.2-0.9,0.2-2,0.4-2.9
									c0.8-4.2,2.3-8.3,3.3-12.5c1.8-7.5,3.4-15.1,5.1-22.6c3.2-13.8,6.4-27.6,9.5-41.3c1.6-7.2,3.4-14.4,4.8-21.6
									c0.4-1.9,0.6-4.9,2.3-6.2c1.7-1.4,4.7-0.7,6.7-1.9c2.3-1.3,3.4-3.6,4.1-6.1c1.1-3.7,1.7-7.6,2.6-11.3
									c1.6-7.5,3.6-15.1,4.7-22.6s-6.5-9.2-12.1-11.6c-6.5-2.8-13.1-5.5-19.8-8c-25.9-9.6-52.8-16.2-80.2-20.1
									c-6.9-1-13.8-1.9-20.7-2.6c-3.5-0.4-7-0.8-10.6-1c-2.9-0.2-6-0.1-8.3,1.9c-2,1.8-2.6,4.4-3.3,7c-1,3.6-2.5,6.9-3.7,10.4
									c-1.1,3.2-1.8,6.5-2.9,9.6c-1.1,3.3-2.5,6.6-3.4,10c-1.7,6.2,1.4,11.1,3.9,16.5c1.5,3.4,6.5,0.4,5-2.9
									c-1.2-2.5-2.7-5-3.4-7.7c-0.8-3.3,0.7-6.5,1.8-9.6c2.2-6.1,3.8-12.4,6.1-18.5c1.1-2.9,1.8-5.8,2.8-8.7
									c1.2-3.5,5.4-2.2,8.3-2c6.8,0.6,13.5,1.4,20.3,2.2c25.9,3.3,51.4,8.9,76.2,17.3c12.4,4.2,25.3,8.7,37,14.7
									c1.9,1,1.4,1.8,1.1,3.8c-0.3,1.7-0.7,3.3-1,5c-0.8,3.7-1.5,7.4-2.3,11.1c-0.8,3.5-1.5,7-2.3,10.5c-0.5,2.4-0.7,7.2-3.4,8.1
									c-2,0.7-4,0.3-5.9,1.5c-1.8,1.2-3,3.1-3.7,5c-2,5.3-2.6,11.3-3.9,16.8c-3,13.2-6,26.3-9.1,39.5c-2.8,12.2-5,24.7-8.5,36.8
									c-1.2,4.1-2.6,8.3-3,12.6c-0.3,3.1,0.9,4.8,2.4,7.3c1,1.7,2,3.4,3,5.1c0.7,1.3,2.1,3.2,1.8,4.8c-0.4,2-2.2,4-2.9,6.1
									c-1.1,3.4-2.1,6.9-3.2,10.4c-2.2,6.5-4.7,13-7,19.5c-1.2,3.3-2.2,6.7-3.4,10c-0.4,1.2-0.9,2.6-1.8,3.6
									c-1.5,1.5-3.8,1.4-5.7,1.5c-6.9,0.5-13.4,1.9-20.1-0.4c-6.9-2.4-13.9-4.8-20.8-7c-13.9-4.5-27.8-8.8-41.9-12.5
									c-13.5-3.5-27.2-6.6-40.6-10.7c-6.5-2-13.2-4.2-19.4-7.1c-5.7-2.6-10.1-6.4-9.7-13.2c0.4-7,3.6-14,5.7-20.6
									c2.2-6.8,4.4-13.6,6.5-20.3c0.4-1.3,0.7-3,1.4-4.2c1.1-1.7,2.2-1.5,4-1.4c2.7,0.2,5.2-0.1,7.2-2.1s3-5.1,4.2-7.6
									c1.6-3.3,3.1-6.5,4.6-9.8c5.5-12,10.2-24.3,14.1-37c3.2-10.6,6.2-21.4,9.4-32c1.9-6.2,3.8-12.5,5.7-18.7
									C146.3,110,140.7,108.4,139.5,112z"/>
							</g>
						</g>
					</g>
				</g>
				<g>
					<g>
						<path class="st2" d="M229.7,303.4c5.4-33,17-62.9,22.2-95.9c2.8-17.8,9-39.7,14.2-56.9c4.9-16.2,8.9-23.7,10.3-30.6
							c1.9-10,0.7-11.5-10.9-15.4c-6.1-2-16.2-4.8-22.5-6.3c-25.9-5.9-46.7-14.3-73.6-17.1c-1.2-2.4-6.2,4.7-9.6,14.3
							c-18.5,52.4-31,104.2-53,155.2c-0.9,2.1-1.4,4.4-1.3,6.8c0,0.5,0,1,0,1.5c0.1,4.2,2.4,11.6,6.5,12.6c7.9,2,21.3,5.4,29.1,7.4
							c29.8,7.5,46.9,13.5,81.9,24.7C223.3,303.7,229.2,306.8,229.7,303.4z"/>
					</g>
					<g>
						<g>
							<path d="M232.5,304.2c4-23.9,11.3-47,17-70.5c2.7-11.4,4.5-22.8,6.8-34.3c2.2-11.1,5.1-22.1,8.2-33.1
								c2.9-10.2,5.9-20.4,9.6-30.4c2.4-6.5,5.1-12.8,5.8-19.8c0.7-6.7-2.7-10.3-8.6-12.7c-8.5-3.4-17.7-5.7-26.7-7.8
								c-25-5.9-49.4-14.6-75.1-17.4c0.8,0.5,1.7,1,2.5,1.4c-5.5-8.2-13.1,10.3-14.3,13.4c-4.9,12.9-9,26.2-13.1,39.3
								c-8.3,26.1-16.1,52.4-25.2,78.2c-4.6,13-9.7,25.8-15,38.6c-2,4.7-2.2,9.9-0.8,14.9c1.1,3.9,3.2,8.5,7.2,10
								c4.5,1.7,9.5,2.5,14.2,3.7c4.9,1.3,9.9,2.5,14.8,3.8c10.3,2.6,20.5,5.4,30.7,8.4c11.4,3.4,22.7,7,34.1,10.7
								c6,1.9,12.2,3.6,18.1,5.9C226.3,308,231.1,309,232.5,304.2c1-3.6-4.5-5.1-5.6-1.5c0.1-0.5,0.9-0.4,0.1-0.6
								c-0.3-0.1-0.6-0.1-0.9-0.2c-0.4-0.2-0.8-0.3-1.2-0.5c-2.3-0.9-4.6-1.6-6.9-2.3c-5.2-1.7-10.3-3.3-15.5-5
								c-8.9-2.8-17.7-5.7-26.7-8.4c-17.6-5.3-35.4-9.8-53.2-14.3c-2.1-0.5-4.2-1.1-6.3-1.6c-1.7-0.4-3.7-0.6-4.9-2
								c-2.4-2.8-3.1-7.3-3-10.8c0.1-3.2,1.4-6,2.7-8.9c1.2-2.9,2.4-5.8,3.6-8.6c2.2-5.6,4.4-11.1,6.5-16.8
								c8.3-22.4,15.4-45.3,22.5-68.1c3.6-11.6,7.2-23.1,11-34.6c1.9-5.7,3.8-11.4,5.7-17.1c1.8-5.2,3.5-10.5,6.3-15.4
								c0.3-0.5,2.9-3.6,2.8-3.9c-0.1-0.5-4.2-1.4-1.5,0.2c1.1,0.6,2.7,0.5,3.9,0.7c5.7,0.7,11.4,1.7,17.1,2.9
								c10.8,2.3,21.3,5.4,31.9,8.3c10,2.8,20.2,5,30.2,7.8c4.6,1.2,9.1,2.5,13.6,4c2.6,0.9,7,1.7,8.8,4.1c1.3,1.8,0.6,4.9,0.2,6.9
								c-0.5,3-1.5,5.8-2.5,8.7c-3.1,8.5-6.2,17-8.8,25.7c-3.2,10.6-6.2,21.2-8.8,32c-2.6,10.8-4.3,21.8-6.4,32.8
								c-4.5,22.9-11.8,45.1-16.9,67.9c-1.3,5.7-2.4,11.5-3.4,17.2C226.3,306.3,231.9,307.8,232.5,304.2z"/>
						</g>
					</g>
				</g>
				<g>
					<g>
						<g>
							<path class="st6" d="M192.1,165.8c-0.1,0-0.2,0-0.2,0c-0.1,0-0.2,0-0.3,0c-26.9-0.6-44.9,34-24.7,53.7
								c9.9,9.7,24.7,12.5,37.7,7.5s20.1-19.3,20.2-32.7C224.9,177.5,207.7,166.4,192.1,165.8z M197.9,170.4
								c5.9,1.3,11.5,4.1,16.1,8.3c6.7,6.1,8,14.4,6.2,22.9c-3.6,16.5-17.1,25.8-34,23.6c-13.9-1.8-25.5-14.1-24.1-28.3
								c1.5-15.2,14-27.5,29.7-27.2c0.5,0,0.9,0.1,1.3,0.1C193.1,169.7,195.5,169.8,197.9,170.4z"/>
						</g>
						<g>
							<g>
								<path class="st7" d="M192.1,164.8c-6.3,0.4-11.8,1.2-17.3,4.4c-5.2,3.1-9.6,7.5-12.6,12.8c-6.2,10.6-6.7,24.2,0.8,34.3
									c9.6,12.9,27.7,17.3,42.4,11.4c13.5-5.5,21.6-21.4,20.4-35.6C224.2,175.6,207.3,165.6,192.1,164.8c-1.2-0.1-1.2,1.9,0,1.9
									c12.8,0.7,27.1,8,30.9,21.1c3.8,13-3.3,29.6-14.8,36.4c-13.2,7.8-31.4,4.5-41.7-6.6c-8.1-8.7-9.1-21.2-4.2-31.8
									c2.7-5.7,6.9-10.7,12.2-14.1c5.5-3.6,11.2-4.6,17.6-4.9C193.3,166.7,193.3,164.8,192.1,164.8z"/>
							</g>
							<g>
								<path class="st7" d="M197.6,171.3c6.7,1.6,13.3,4.8,17.8,10.2c4.2,5.1,5.2,11.8,4.1,18.2c-1.8,10.3-8.2,19.4-18.2,23
									c-10.4,3.7-22.8,1.5-30.8-6.3c-8.5-8.3-9.6-20.6-4-30.8C172.6,174.5,185.2,168.6,197.6,171.3c1.2,0.3,1.7-1.6,0.5-1.9
									c-11.8-2.6-23.8,1.9-31,11.6c-7.2,9.9-8.4,23.4-0.9,33.4c7.4,9.9,20.3,13.7,32.1,11.1c11.5-2.6,19.8-11.7,22.5-23
									c1.7-6.8,1.4-14.3-2.5-20.3c-4.5-6.9-12.4-11-20.2-12.9C196.9,169.2,196.4,171,197.6,171.3z"/>
							</g>
						</g>
					</g>
					<g>
						<g>
							<path class="st6" d="M196.5,162.5c-0.9,0-1.8-0.4-2.4-1.2l-0.3-0.3c-0.4-0.5-0.6-1.2-0.6-2c0.1-0.8,0.5-1.6,1.2-2
								c0.5-0.3,1-0.5,1.6-0.5c0.9,0,1.8,0.4,2.4,1.2l0.3,0.3c0.4,0.5,0.6,1.2,0.5,1.9c-0.1,0.8-0.5,1.6-1.2,2
								C197.6,162.4,197.1,162.5,196.5,162.5L196.5,162.5z"/>
						</g>
						<g>
							<path class="st7" d="M196,157.3c0.7,0,1.3,0.3,1.8,0.9c0.1,0.1,0.2,0.2,0.3,0.3c0.7,0.9,0.3,2.2-0.5,2.8
								c-0.3,0.3-0.7,0.4-1.1,0.4c-0.7,0-1.3-0.3-1.8-0.9c-0.1-0.1-0.2-0.2-0.3-0.3c-0.7-0.9-0.3-2.2,0.5-2.8
								C195.3,157.4,195.7,157.3,196,157.3 M196,155.7c-0.8,0-1.5,0.2-2.1,0.7c-0.8,0.6-1.4,1.6-1.5,2.6c-0.1,0.9,0.1,1.9,0.7,2.6
								l0.1,0.2l0.1,0.2c0.7,0.9,1.9,1.5,3.1,1.5c0.8,0,1.5-0.2,2.1-0.7c0.8-0.6,1.4-1.6,1.5-2.6c0.1-0.9-0.1-1.9-0.7-2.6l-0.2-0.2
								l-0.1-0.1C198.3,156.2,197.2,155.7,196,155.7L196,155.7z"/>
						</g>
					</g>
					<g>
						<g>
							<path class="st6" d="M210.7,168.2c-0.4,0-0.8-0.1-1.2-0.3l-0.3-0.2c-1.4-0.6-2-2.3-1.5-3.8c0.4-1,1.5-1.7,2.6-1.7
								c0.4,0,0.8,0.1,1.2,0.3l0.3,0.2c1.4,0.6,2,2.3,1.4,3.8C212.9,167.6,211.9,168.2,210.7,168.2L210.7,168.2z"/>
						</g>
						<g>
							<path class="st7" d="M210.4,163.2c0.3,0,0.6,0.1,0.8,0.2l0.3,0.2c1,0.5,1.4,1.7,1,2.7c-0.3,0.7-1.1,1.2-1.9,1.2
								c-0.3,0-0.6-0.1-0.8-0.2l-0.3-0.2c-1-0.5-1.4-1.7-1-2.7C208.8,163.6,209.6,163.2,210.4,163.2 M210.4,161.6
								c-1.5,0-2.9,0.9-3.4,2.2c-0.8,1.9,0.1,4,1.9,4.8l0.3,0.2c0.5,0.2,1,0.3,1.5,0.3c1.5,0,2.9-0.9,3.4-2.2c0.8-1.9-0.1-4-1.9-4.8
								l-0.3-0.2C211.4,161.7,210.9,161.6,210.4,161.6L210.4,161.6z"/>
						</g>
					</g>
					<g>
						<g>
							<path class="st6" d="M227.3,184.6c-0.4,0-0.8-0.1-1.2-0.3l-0.2-0.1c-1.4-0.6-2-2.3-1.4-3.8c0.4-1,1.5-1.7,2.6-1.7
								c0.4,0,0.8,0.1,1.2,0.3l0.2,0.1c1.4,0.6,2,2.3,1.4,3.8C229.5,183.9,228.5,184.6,227.3,184.6L227.3,184.6z"/>
						</g>
						<g>
							<path class="st7" d="M227.1,179.7c0.3,0,0.6,0.1,0.8,0.2l0.2,0.1c1,0.5,1.4,1.7,1,2.7c-0.3,0.7-1.1,1.2-1.9,1.2
								c-0.3,0-0.6-0.1-0.8-0.2l-0.2-0.1c-1-0.5-1.4-1.7-1-2.7C225.6,180.1,226.3,179.7,227.1,179.7 M227.1,178
								c-1.5,0-2.9,0.9-3.4,2.2c-0.8,1.9,0.1,4,1.9,4.8l0.2,0.1c0.5,0.2,1,0.3,1.5,0.3c1.5,0,2.9-0.9,3.4-2.2c0.8-1.9-0.1-4-1.9-4.8
								l-0.2-0.1C228.2,178.1,227.6,178,227.1,178L227.1,178z"/>
						</g>
					</g>
					<g>
						<g>
							<path class="st6" d="M228.3,211.1c-0.4,0-0.8-0.1-1.2-0.2c-0.7-0.3-1.2-0.8-1.5-1.5s-0.3-1.6,0-2.3l0.2-0.3
								c0.5-1,1.5-1.6,2.6-1.6c0.4,0,0.8,0.1,1.2,0.2c0.7,0.3,1.2,0.8,1.5,1.5s0.3,1.6,0,2.3l-0.2,0.3
								C230.5,210.5,229.5,211.1,228.3,211.1L228.3,211.1z"/>
						</g>
						<g>
							<path class="st7" d="M228.4,205.9c0.3,0,0.6,0.1,0.9,0.2c1,0.4,1.5,1.7,1,2.7l-0.2,0.3c-0.3,0.7-1.1,1.1-1.8,1.1
								c-0.3,0-0.6-0.1-0.9-0.2c-1-0.4-1.5-1.7-1-2.7l0.2-0.3C226.9,206.3,227.7,205.9,228.4,205.9 M228.4,204.2
								c-1.5,0-2.8,0.8-3.4,2.1l-0.2,0.3c-0.4,0.9-0.4,2,0,2.9s1.1,1.6,2,2c0.5,0.2,1,0.3,1.5,0.3c1.5,0,2.8-0.8,3.4-2.1l0.2-0.3
								c0.4-0.9,0.4-2,0-2.9s-1.1-1.6-2-2C229.5,204.3,229,204.2,228.4,204.2L228.4,204.2z"/>
						</g>
					</g>
					<g>
						<g>
							<path class="st6" d="M164.4,228.7c-0.4,0-0.8-0.1-1.2-0.3l-0.2-0.1c-1.4-0.6-2-2.3-1.4-3.8c0.4-1,1.5-1.7,2.6-1.7
								c0.4,0,0.8,0.1,1.2,0.3l0.2,0.1c1.4,0.6,2,2.3,1.5,3.8C166.6,228,165.5,228.7,164.4,228.7L164.4,228.7z"/>
						</g>
						<g>
							<path class="st7" d="M164.2,223.7c0.3,0,0.6,0.1,0.8,0.2l0.2,0.1c1,0.5,1.4,1.7,1,2.7c-0.3,0.7-1.1,1.2-1.9,1.2
								c-0.3,0-0.6-0.1-0.8-0.2l-0.2-0.1c-1-0.5-1.4-1.7-1-2.7C162.6,224.1,163.4,223.7,164.2,223.7 M164.2,222.1
								c-1.5,0-2.9,0.9-3.4,2.2c-0.8,1.9,0.1,4,1.9,4.8l0.2,0.1c0.5,0.2,1,0.3,1.5,0.3c1.5,0,2.9-0.9,3.4-2.2c0.8-1.9-0.1-4-1.9-4.8
								l-0.2-0.1C165.3,222.2,164.7,222.1,164.2,222.1L164.2,222.1z"/>
						</g>
					</g>
					<g>
						<g>
							<path class="st6" d="M156.8,219.8c-0.4,0-0.8-0.1-1.2-0.2c-0.7-0.3-1.2-0.8-1.5-1.5s-0.3-1.6,0-2.3l0.1-0.2
								c0.5-1,1.5-1.6,2.6-1.6c0.4,0,0.8,0.1,1.2,0.2c0.7,0.3,1.2,0.8,1.5,1.5s0.3,1.6,0,2.3l-0.1,0.2
								C159,219.2,158,219.8,156.8,219.8L156.8,219.8z"/>
						</g>
						<g>
							<path class="st7" d="M156.9,214.8c0.3,0,0.6,0.1,0.9,0.2c1,0.4,1.5,1.7,1,2.7l-0.1,0.2c-0.3,0.7-1.1,1.1-1.8,1.1
								c-0.3,0-0.6-0.1-0.9-0.2c-1-0.4-1.5-1.7-1-2.7l0.1-0.2C155.4,215.2,156.1,214.8,156.9,214.8 M156.9,213.1
								c-1.5,0-2.8,0.8-3.4,2.1l-0.1,0.2c-0.4,0.9-0.4,2,0,2.9s1.1,1.6,2,2c0.5,0.2,1,0.3,1.5,0.3c1.5,0,2.8-0.8,3.4-2.1l0.1-0.2
								c0.4-0.9,0.4-2,0-2.9s-1.1-1.6-2-2C157.9,213.2,157.4,213.1,156.9,213.1L156.9,213.1z"/>
						</g>
					</g>
					<g>
						<g>
							<path class="st6" d="M158.8,178.8c-0.4,0-0.8-0.1-1.2-0.3l-0.2-0.1c-1.4-0.6-2-2.3-1.4-3.8c0.4-1,1.5-1.7,2.6-1.7
								c0.4,0,0.8,0.1,1.2,0.3l0.2,0.1c1.4,0.6,2,2.3,1.5,3.8C161,178.2,160,178.8,158.8,178.8L158.8,178.8z"/>
						</g>
						<g>
							<path class="st7" d="M158.6,173.9c0.3,0,0.6,0.1,0.8,0.2l0.2,0.1c1,0.5,1.4,1.7,1,2.7c-0.3,0.7-1.1,1.2-1.9,1.2
								c-0.3,0-0.6-0.1-0.8-0.2l-0.2-0.1c-1-0.5-1.4-1.7-1-2.7C157.1,174.3,157.8,173.9,158.6,173.9 M158.6,172.2
								c-1.5,0-2.9,0.9-3.4,2.2c-0.8,1.9,0.1,4,1.9,4.8l0.2,0.1c0.5,0.2,1,0.3,1.5,0.3c1.5,0,2.9-0.9,3.4-2.2c0.8-1.9-0.1-4-1.9-4.8
								l-0.2-0.1C159.7,172.3,159.2,172.2,158.6,172.2L158.6,172.2z"/>
						</g>
					</g>
					<g>
						<g>
							<path class="st6" d="M168.4,168.7c-0.4,0-0.8-0.1-1.2-0.3l-0.2-0.1c-1.4-0.6-2-2.3-1.4-3.8c0.4-1,1.5-1.7,2.6-1.7
								c0.4,0,0.8,0.1,1.2,0.3l0.2,0.1c1.4,0.6,2,2.3,1.4,3.8C170.6,168,169.5,168.7,168.4,168.7L168.4,168.7z"/>
						</g>
						<g>
							<path class="st7" d="M168.2,163.7c0.3,0,0.6,0.1,0.8,0.2l0.2,0.1c1,0.5,1.4,1.7,1,2.7c-0.3,0.7-1.1,1.2-1.9,1.2
								c-0.3,0-0.6-0.1-0.8-0.2l-0.2-0.1c-1-0.5-1.4-1.7-1-2.7C166.6,164.2,167.4,163.7,168.2,163.7 M168.2,162.1
								c-1.5,0-2.9,0.9-3.4,2.2c-0.8,1.9,0.1,4,1.9,4.8l0.2,0.1c0.5,0.2,1,0.3,1.5,0.3c1.5,0,2.9-0.9,3.4-2.2c0.8-1.9-0.1-4-1.9-4.8
								l-0.2-0.1C169.3,162.2,168.7,162.1,168.2,162.1L168.2,162.1z"/>
						</g>
					</g>
					<g>
						<g>
							<path class="st6" d="M178.5,235.8c-0.4,0-0.8-0.1-1.2-0.3l-0.2-0.1c-1.4-0.6-2-2.3-1.4-3.8c0.4-1,1.5-1.7,2.6-1.7
								c0.4,0,0.8,0.1,1.2,0.3l0.2,0.1c1.4,0.6,2,2.3,1.5,3.8C180.7,235.2,179.6,235.8,178.5,235.8L178.5,235.8z"/>
						</g>
						<g>
							<path class="st7" d="M178.3,230.9c0.3,0,0.6,0.1,0.8,0.2l0.2,0.1c1,0.5,1.4,1.7,1,2.7c-0.3,0.7-1.1,1.2-1.9,1.2
								c-0.3,0-0.6-0.1-0.8-0.2l-0.2-0.1c-1-0.5-1.4-1.7-1-2.7C176.7,231.3,177.5,230.9,178.3,230.9 M178.3,229.2
								c-1.5,0-2.9,0.9-3.4,2.2c-0.8,1.9,0.1,4,1.9,4.8l0.2,0.1c0.5,0.2,1,0.3,1.5,0.3c1.5,0,2.9-0.9,3.4-2.2c0.8-1.9-0.1-4-1.9-4.8
								l-0.2-0.1C179.4,229.3,178.8,229.2,178.3,229.2L178.3,229.2z"/>
						</g>
					</g>
					<g>
						<g>
							<path class="st6" d="M192.2,237.8c-0.4,0-0.8-0.1-1.2-0.3l-0.2-0.1c-1.4-0.6-2-2.3-1.4-3.8c0.4-1,1.5-1.7,2.6-1.7
								c0.4,0,0.8,0.1,1.2,0.3l0.2,0.1c1.4,0.6,2,2.3,1.5,3.8C194.4,237.1,193.4,237.8,192.2,237.8L192.2,237.8z"/>
						</g>
						<g>
							<path class="st7" d="M192,232.8c0.3,0,0.6,0.1,0.8,0.2l0.2,0.1c1,0.5,1.4,1.7,1,2.7c-0.3,0.7-1.1,1.2-1.9,1.2
								c-0.3,0-0.6-0.1-0.8-0.2l-0.2-0.1c-1-0.5-1.4-1.7-1-2.7C190.5,233.3,191.2,232.8,192,232.8 M192,231.2
								c-1.5,0-2.9,0.9-3.4,2.2c-0.8,1.9,0.1,4,1.9,4.8l0.2,0.1c0.5,0.2,1,0.3,1.5,0.3c1.5,0,2.9-0.9,3.4-2.2c0.8-1.9-0.1-4-1.9-4.8
								l-0.2-0.1C193.1,231.3,192.5,231.2,192,231.2L192,231.2z"/>
						</g>
					</g>
					<g>
						<g>
							<path class="st6" d="M208.3,236.1c-0.4,0-0.8-0.1-1.2-0.3l-0.2-0.1c-1.4-0.6-2-2.3-1.4-3.8c0.4-1,1.5-1.7,2.6-1.7
								c0.4,0,0.8,0.1,1.2,0.3l0.2,0.1c1.4,0.6,2,2.3,1.5,3.8C210.6,235.4,209.5,236.1,208.3,236.1L208.3,236.1z"/>
						</g>
						<g>
							<path class="st7" d="M208.2,231.2c0.3,0,0.6,0.1,0.8,0.2l0.2,0.1c1,0.5,1.4,1.7,1,2.7c-0.3,0.7-1.1,1.2-1.9,1.2
								c-0.3,0-0.6-0.1-0.8-0.2l-0.2-0.1c-1-0.5-1.4-1.7-1-2.7C206.6,231.6,207.4,231.2,208.2,231.2 M208.2,229.5
								c-1.5,0-2.9,0.9-3.4,2.2c-0.8,1.9,0.1,4,1.9,4.8l0.2,0.1c0.5,0.2,1,0.3,1.5,0.3c1.5,0,2.9-0.9,3.4-2.2c0.8-1.9-0.1-4-1.9-4.8
								l-0.2-0.1C209.2,229.6,208.7,229.5,208.2,229.5L208.2,229.5z"/>
						</g>
					</g>
					<g>
						<g>
							<path class="st6" d="M221.2,226.2c-0.4,0-0.8-0.1-1.2-0.3l-0.2-0.1c-1.4-0.6-2-2.3-1.4-3.8c0.4-1,1.5-1.7,2.6-1.7
								c0.4,0,0.8,0.1,1.2,0.3l0.2,0.1c1.4,0.6,2,2.3,1.5,3.8C223.5,225.5,222.4,226.2,221.2,226.2L221.2,226.2z"/>
						</g>
						<g>
							<path class="st7" d="M221.1,221.3c0.3,0,0.6,0.1,0.8,0.2l0.2,0.1c1,0.5,1.4,1.7,1,2.7c-0.3,0.7-1.1,1.2-1.9,1.2
								c-0.3,0-0.6-0.1-0.8-0.2l-0.2-0.1c-1-0.5-1.4-1.7-1-2.7C219.5,221.7,220.3,221.3,221.1,221.3 M221.1,219.6
								c-1.5,0-2.9,0.9-3.4,2.2c-0.8,1.9,0.1,4,1.9,4.8l0.2,0.1c0.5,0.2,1,0.3,1.5,0.3c1.5,0,2.9-0.9,3.4-2.2c0.8-1.9-0.1-4-1.9-4.8
								l-0.2-0.1C222.1,219.7,221.6,219.6,221.1,219.6L221.1,219.6z"/>
						</g>
					</g>
					<g>
						<g>
							<path class="st6" d="M231,197.3c-0.4,0-0.8-0.1-1.2-0.3l-0.2-0.1c-1.4-0.6-2-2.3-1.4-3.8c0.4-1,1.5-1.7,2.6-1.7
								c0.4,0,0.8,0.1,1.2,0.3l0.2,0.1c1.4,0.6,2,2.3,1.5,3.8C233.2,196.6,232.1,197.3,231,197.3L231,197.3z"/>
						</g>
						<g>
							<path class="st7" d="M230.8,192.3c0.3,0,0.6,0.1,0.8,0.2l0.2,0.1c1,0.5,1.4,1.7,1,2.7c-0.3,0.7-1.1,1.2-1.9,1.2
								c-0.3,0-0.6-0.1-0.8-0.2l-0.2-0.1c-1-0.5-1.4-1.7-1-2.7C229.2,192.8,230,192.3,230.8,192.3 M230.8,190.7
								c-1.5,0-2.9,0.9-3.4,2.2c-0.8,1.9,0.1,4,1.9,4.8l0.2,0.1c0.5,0.2,1,0.3,1.5,0.3c1.5,0,2.9-0.9,3.4-2.2c0.8-1.9-0.1-4-1.9-4.8
								l-0.2-0.1C231.9,190.8,231.3,190.7,230.8,190.7L230.8,190.7z"/>
						</g>
					</g>
					<g>
						<g>
							<path class="st6" d="M219.1,173.6c-0.4,0-0.8-0.1-1.2-0.3l-0.2-0.1c-1.4-0.6-2-2.3-1.5-3.8c0.4-1,1.5-1.7,2.6-1.7
								c0.4,0,0.8,0.1,1.2,0.3l0.2,0.1c1.4,0.6,2,2.3,1.4,3.8C221.4,173,220.3,173.6,219.1,173.6L219.1,173.6z"/>
						</g>
						<g>
							<path class="st7" d="M219,168.7c0.3,0,0.6,0.1,0.8,0.2l0.2,0.1c1,0.5,1.4,1.7,1,2.7c-0.3,0.7-1.1,1.2-1.9,1.2
								c-0.3,0-0.6-0.1-0.8-0.2l-0.2-0.1c-1-0.5-1.4-1.7-1-2.7C217.4,169.1,218.2,168.7,219,168.7 M219,167c-1.5,0-2.9,0.9-3.4,2.2
								c-0.8,1.9,0.1,4,1.9,4.8l0.2,0.1c0.5,0.2,1,0.3,1.5,0.3c1.5,0,2.9-0.9,3.4-2.2c0.8-1.9-0.1-4-1.9-4.8l-0.2-0.1
								C220,167.2,219.5,167,219,167L219,167z"/>
						</g>
					</g>
					<g>
						<g>
							<path class="st6" d="M153.2,190.1c-0.4,0-0.8-0.1-1.2-0.3l-0.2-0.1c-1.4-0.6-2-2.3-1.4-3.8c0.4-1,1.5-1.7,2.6-1.7
								c0.4,0,0.8,0.1,1.2,0.3l0.2,0.1c1.4,0.6,2,2.3,1.5,3.8C155.5,189.4,154.4,190.1,153.2,190.1L153.2,190.1z"/>
						</g>
						<g>
							<path class="st7" d="M153.1,185.2c0.3,0,0.6,0.1,0.8,0.2l0.2,0.1c1,0.5,1.4,1.7,1,2.7c-0.3,0.7-1.1,1.2-1.9,1.2
								c-0.3,0-0.6-0.1-0.8-0.2l-0.2-0.1c-1-0.5-1.4-1.7-1-2.7C151.5,185.6,152.3,185.2,153.1,185.2 M153.1,183.5
								c-1.5,0-2.9,0.9-3.4,2.2c-0.8,1.9,0.1,4,1.9,4.8l0.2,0.1c0.5,0.2,1,0.3,1.5,0.3c1.5,0,2.9-0.9,3.4-2.2c0.8-1.9-0.1-4-1.9-4.8
								l-0.2-0.1C154.1,183.6,153.6,183.5,153.1,183.5L153.1,183.5z"/>
						</g>
					</g>
					<g>
						<g>
							<path class="st6" d="M152.1,204.4c-0.4,0-0.8-0.1-1.2-0.3l-0.2-0.1c-1.4-0.6-2-2.3-1.4-3.8c0.4-1,1.5-1.7,2.6-1.7
								c0.4,0,0.8,0.1,1.2,0.3l0.2,0.1c1.4,0.6,2,2.3,1.5,3.8C154.3,203.7,153.2,204.4,152.1,204.4L152.1,204.4z"/>
						</g>
						<g>
							<path class="st7" d="M151.9,199.4c0.3,0,0.6,0.1,0.8,0.2l0.2,0.1c1,0.5,1.4,1.7,1,2.7c-0.3,0.7-1.1,1.2-1.9,1.2
								c-0.3,0-0.6-0.1-0.8-0.2l-0.2-0.1c-1-0.5-1.4-1.7-1-2.7C150.3,199.8,151.1,199.4,151.9,199.4 M151.9,197.7
								c-1.5,0-2.9,0.9-3.4,2.2c-0.8,1.9,0.1,4,1.9,4.8l0.2,0.1c0.5,0.2,1,0.3,1.5,0.3c1.5,0,2.9-0.9,3.4-2.2c0.8-1.9-0.1-4-1.9-4.8
								l-0.2-0.1C153,197.9,152.4,197.7,151.9,197.7L151.9,197.7z"/>
						</g>
					</g>
					<g>
						<g>
							<path class="st6" d="M182.4,164.1c-0.4,0-0.8-0.1-1.2-0.3l-0.2-0.1c-1.4-0.6-2-2.3-1.4-3.8c0.4-1,1.5-1.7,2.6-1.7
								c0.4,0,0.8,0.1,1.2,0.3l0.2,0.1c1.4,0.6,2,2.3,1.4,3.8C184.6,163.4,183.6,164.1,182.4,164.1L182.4,164.1z"/>
						</g>
						<g>
							<path class="st7" d="M182.2,159.2c0.3,0,0.6,0.1,0.8,0.2l0.2,0.1c1,0.5,1.4,1.7,1,2.7c-0.3,0.7-1.1,1.2-1.9,1.2
								c-0.3,0-0.6-0.1-0.8-0.2l-0.2-0.1c-1-0.5-1.4-1.7-1-2.7C180.7,159.6,181.5,159.2,182.2,159.2 M182.2,157.5
								c-1.5,0-2.9,0.9-3.4,2.2c-0.8,1.9,0.1,4,1.9,4.8l0.2,0.1c0.5,0.2,1,0.3,1.5,0.3c1.5,0,2.9-0.9,3.4-2.2c0.8-1.9-0.1-4-1.9-4.8
								l-0.2-0.1C183.3,157.6,182.8,157.5,182.2,157.5L182.2,157.5z"/>
						</g>
					</g>
				</g>
				<g>
					<g>
						<path class="st8" d="M135.7,265.1c-5.2-0.4-9.6-5.1-10-10.3s2.9-10.4,7.6-12.5c1.3-0.6,2.6-1,4-1c2.7-0.1,5.3,1.1,7.5,2.6
							c3.4,2.2,6.5,5.6,6.7,9.7c0.1,2.5-1,4.9-2.2,7.1c-0.7,1.3-1.5,2.5-2.8,3.3c-0.9,0.5-1.9,0.7-2.9,0.9c-2.2,0.3-4.5,0.4-6.7,0.4
							"/>
					</g>
					<g>
						<g>
							<path d="M135.7,263.2c-4.9-0.6-8.6-5.3-8.1-10.2c0.5-5.4,5.8-10.7,11.4-9.6c4.8,0.9,10.8,5.7,10.5,11
								c-0.1,2.4-1.5,5.9-3.5,7.5c-2.2,1.8-6.4,1.4-9.1,1.4c-2.5-0.1-2.5,3.8,0,3.9c3.7,0.1,8.8,0.3,11.7-2.3
								c2.6-2.3,4.6-6.7,4.8-10.2c0.5-7.5-7.6-14.4-14.6-15.2c-7.5-0.8-14.2,6-15,13.1c-0.8,7.3,4.8,13.6,11.9,14.5
								C138.1,267.3,138.1,263.5,135.7,263.2L135.7,263.2z"/>
						</g>
					</g>
				</g>
				<g>
					<g>
						<path class="st3" d="M171.6,273.9c-5.1-1-9-6.1-8.8-11.3c0.2-5.2,4-10,9-11.6c1.3-0.4,2.7-0.7,4.1-0.6
							c2.7,0.2,5.1,1.7,7.2,3.4c3.1,2.6,5.9,6.3,5.6,10.4c-0.2,2.5-1.5,4.8-3,6.8c-0.8,1.2-1.8,2.4-3.1,2.9c-0.9,0.4-2,0.5-3,0.5
							c-2.2,0.1-4.5-0.1-6.7-0.4"/>
					</g>
					<g>
						<g>
							<path d="M172.1,272.1c-4.8-1.1-8.1-5.8-7.2-10.8c0.9-5,6.2-9.7,11.5-8.9c5,0.8,11.2,7,10.2,12.3c-0.4,2.3-2.1,5.5-4,6.9
								c-2.3,1.7-6.6,0.9-9.3,0.6c-2.4-0.3-3.5,3.4-1,3.7c3.7,0.5,8.6,1.4,12-0.7c3-1.9,5.4-6.1,6.1-9.4c1.6-7.5-5.9-15.6-12.9-17.1
								c-7.3-1.5-14.8,4.5-16.2,11.6c-1.4,6.9,3.1,13.9,9.9,15.5C173.5,276.4,174.5,272.7,172.1,272.1L172.1,272.1z"/>
						</g>
					</g>
				</g>
				<g>
					<g>
						<path class="st6" d="M204.4,288.2c-5-1.5-8.3-7.5-7.5-13.3s5.2-10.8,10.3-12.2c1.4-0.4,2.8-0.5,4.2-0.3
							c2.7,0.4,4.9,2.3,6.8,4.3c2.8,3.1,5.2,7.5,4.4,12c-0.5,2.8-2,5.2-3.7,7.3c-1,1.2-2.1,2.5-3.5,3c-1,0.4-2,0.4-3.1,0.4
							c-2.3-0.1-4.5-0.4-6.7-1"/>
					</g>
					<g>
						<g>
							<path d="M204.9,286.3c-11.5-3.9-5.3-24,6.2-22c5.6,1,10.4,8.7,9.5,14.1c-0.5,2.8-2.4,5.7-4.4,7.7c-2.5,2.5-7,1.2-10.1,0.5
								c-2.4-0.6-3.4,3.2-1,3.7c4,0.9,9.2,2.1,12.7-0.5c2.9-2.2,5.4-6.1,6.3-9.6c2-7.6-4.1-17.7-11.8-19.6
								c-7.5-1.8-14.8,4.8-16.8,11.6c-2.1,7.1,1.1,15.4,8.4,17.9C206.3,290.9,207.3,287.2,204.9,286.3L204.9,286.3z"/>
						</g>
					</g>
				</g>
				<g>
					<g>
						<path class="st5" d="M207.3,281.7c-2.4-0.7-4-3.6-3.6-6.4s2.5-5.2,4.9-5.9c0.7-0.2,1.3-0.3,2-0.2c1.3,0.2,2.4,1.1,3.3,2.1
							c1.4,1.5,2.5,3.6,2.1,5.7c-0.2,1.3-1,2.5-1.8,3.5c-0.5,0.6-1,1.2-1.7,1.5c-0.5,0.2-1,0.2-1.5,0.2c-1.1,0-2.2-0.2-3.2-0.5"/>
					</g>
					<g>
						<g>
							<path d="M207.8,279.9c-4.8-1.8-1-10.5,3.3-8.3c1.9,1,3.5,3.8,2.8,5.9c-0.9,2.8-2.9,3.1-5.5,2.6c-2.4-0.5-3.5,3.2-1,3.7
								c2.1,0.5,4.5,1,6.5-0.1c1.7-1,3.3-3.3,3.8-5.2c1.3-4.1-1.7-9.4-5.8-10.8c-4-1.3-8.2,1.8-9.6,5.5c-1.6,4.2,0.3,8.8,4.5,10.5
								C209.1,284.5,210.1,280.7,207.8,279.9L207.8,279.9z"/>
						</g>
					</g>
				</g>
				<g>
					<g>
						<path d="M117.4,232c12.4,0.7,24.6,3.3,36.7,6.3c10.8,2.7,21.6,5.3,32.2,8.7c16.7,5.3,32.7,12.5,49.3,18.3
							c3.5,1.2,5-4.4,1.5-5.6c-16.8-5.8-33.1-13.2-50-18.5c-10.7-3.4-21.7-6.1-32.7-8.8c-12.2-3-24.5-5.5-37-6.2
							C113.7,226,113.7,231.7,117.4,232L117.4,232z"/>
					</g>
				</g>
				<g>
					<g>
						<path class="st6" d="M190.6,224.8c-2.8,0.2-5.7-0.1-8.4-0.9c0.1-4.3,0.8-8.6,1.5-12.9c2.3-14.3,4.6-28.7,6.9-43
							c0-0.3,0.1-0.6,0.3-0.8s0.6-0.2,0.9-0.1c2,0.2,4.1,0.5,6.1,0.9c0.5,0.1,1,0.2,1.4,0.5c0.8,0.7,0.6,1.9,0.4,3
							c-4,17.4-6.5,35.2-7.4,53.1"/>
					</g>
					<g>
						<g>
							<path class="st7" d="M190.6,223.9c-2.8,0.1-5.5-0.2-8.2-0.8c0.2,0.3,0.5,0.6,0.7,0.9c0.4-10,2.6-19.9,4.2-29.8
								c0.8-4.8,1.6-9.7,2.3-14.5c0.4-2.5,0.8-5.1,1.2-7.6c0.1-0.4,0.3-3.6,0.6-3.8c0.7-0.6,2.8,0.1,3.7,0.2c1.9,0.3,3.3,0,3.6,2.7
								c0.1,1-0.6,2.7-0.8,3.7c-0.5,2.2-0.9,4.5-1.4,6.7c-0.9,4.7-1.7,9.4-2.4,14.2c-1.4,9.6-2.3,19.2-2.8,28.8
								c-0.1,1.2,1.9,1.2,1.9,0c0.7-12.4,2-24.7,4.1-37c1-5.5,2.8-11.1,3.4-16.7c0.4-4.2-3.6-4.1-6.9-4.5c-4.5-0.6-4.2,0.9-4.9,5.2
								c-0.9,5.9-1.9,11.8-2.8,17.7c-1.8,11.5-4.5,23.1-5,34.7c0,0.4,0.3,0.8,0.7,0.9c2.9,0.7,5.7,1,8.7,0.9
								C191.9,225.8,191.9,223.8,190.6,223.9L190.6,223.9z"/>
						</g>
					</g>
				</g>
				<g>
					<g>
						<path class="st5" d="M149.2,160.6c1.8-5.4,3.9-11.9,4.7-15.1c0.1-0.3,0.3-0.7,0.7-0.7c0.2,0,0.4,0.1,0.5,0.1
							c5,2.4,9.8,5.3,14.4,8.4C163.5,157.3,156.3,159,149.2,160.6"/>
					</g>
					<g>
						<g>
							<path d="M151.1,161.1c0.8-2.4,1.6-4.9,2.4-7.4c0.4-1.3,0.8-2.6,1.2-3.9c0.2-0.7,0.4-2.3,0.8-2.9c0.2-0.5,0.1-0.5-0.3,0.1
								c0.7,0.4,1.4,0.7,2.1,1.1c1.2,0.7,2.4,1.3,3.6,2c2.6,1.5,5.1,3.1,7.6,4.8c0-1.1,0-2.2,0-3.3c-6.1,3.8-12.9,5.5-19.9,7.1
								c-2.4,0.6-1.4,4.3,1,3.7c7.2-1.7,14.4-3.5,20.8-7.5c1.3-0.8,1.2-2.5,0-3.3c-3.3-2.2-6.7-4.3-10.2-6.2c-1.8-1-5-3.6-7.2-2.1
								c-1.6,1.1-1.8,4.2-2.3,6c-1.1,3.6-2.3,7.2-3.5,10.8C146.6,162.4,150.3,163.4,151.1,161.1L151.1,161.1z"/>
						</g>
					</g>
				</g>
				<g>
					<g>
						<path class="st5" d="M243.5,172c-0.8-0.6-2-0.5-2.8,0c-0.9,0.5-1.5,1.4-2,2.2c-0.7,1-1.3,2.1-1.6,3.2
							c-0.3,1.2-0.3,2.4,0.3,3.5c0.5,1,1.5,1.7,2.5,2.1c2.1,0.9,4.7,0.7,6.6-0.6c1.9-1.4,2.8-4,2-6.2c-0.5-1.4-1.7-2.5-2.8-3.4
							c-0.5-0.4-1.3-0.8-1.7-0.3"/>
					</g>
					<g>
						<g>
							<path d="M244.5,170.4c-4.4-2.4-8.2,2.7-9.3,6.6c-1.3,4.8,2.5,8.3,7,8.6c4.3,0.2,8.4-2.9,8.5-7.4c0.1-3.1-4-9.7-7.7-7.2
								c-2.1,1.4-0.1,4.7,1.9,3.3c-0.9-0.1-0.9,0-0.1,0.5c0.4,0.3,0.7,0.7,1.1,1.1c0.6,0.7,0.9,1.5,0.9,2.4c-0.1,2.1-2,3.5-3.9,3.6
								c-7.9,0.4-1.9-8.8-0.4-8C244.7,174.9,246.6,171.5,244.5,170.4L244.5,170.4z"/>
						</g>
					</g>
				</g>
				<g>
					<g>
						<path class="st5" d="M158.6,134.4c3.3-13.2,6.9-26.3,10.8-39.4c0.2-0.7,0.5-1.5,1-2c0.7-0.7,1.8-0.8,2.8-0.8
							c3,0.1,5.9,0.8,8.8,1.5c26.5,6.4,52.9,13.4,79.1,20.9c2.6,0.7,6.1,3.2,6.1,5.9c0,2.8-11.6,43.3-11.6,43.3
							c-1.3,1-3.1,0.9-4.7,0.7c-15-1.6-29.9-4.9-44.2-9.8c-16-5.5-28.1-8.4-45.2-15.2C161.5,139.5,157.6,138.5,158.6,134.4z"/>
					</g>
					<g>
						<g>
							<path d="M160.5,134.9c3-11.8,6.2-23.5,9.6-35.2c0.4-1.3,0.6-3,1.2-4.2c1-1.7,2.2-1.4,3.9-1.2c3,0.3,5.9,1.1,8.8,1.8
								c5.9,1.4,11.8,2.9,17.7,4.4c12,3,24,6.2,35.9,9.4c5.9,1.6,11.7,3.2,17.6,4.9c3,0.9,10.2,2.2,10.1,5.8c0,1.5-0.7,3.3-1.1,4.7
								c-0.6,2.5-1.3,5.1-2,7.6c-1.6,6.1-3.3,12.2-5,18.2c-0.7,2.4-1.4,4.9-2.1,7.3c-0.3,0.9-0.5,3.6-1.2,4.3c-0.5,0.5-0.8,0-2-0.2
								c-3.2-0.5-6.4-0.7-9.6-1.2c-5.9-0.9-11.7-2-17.4-3.5c-12.3-3-24.3-7.5-36.4-11.3c-5.5-1.7-11-3.5-16.4-5.4
								c-3.2-1.1-6.4-2.3-9.6-3.6C161.2,137.3,160.1,136.8,160.5,134.9c0.4-2.4-3.3-3.5-3.7-1c-0.6,3.4,0.7,5.9,3.8,7.3
								c5.1,2.3,10.6,4,15.9,5.8c11.6,3.9,23.4,7.6,35.1,11.3c12.8,4.1,26.5,7.3,40,8.2c2.5,0.2,5.3-0.2,6.2-2.8
								c0.6-1.8,1-3.6,1.6-5.4c3.4-11.9,7.4-23.9,9.7-36c1.7-9.3-12.1-10.9-18.2-12.6c-13.7-3.8-27.5-7.5-41.3-11.1
								c-7.7-2-15.5-3.9-23.2-5.8c-3.4-0.8-6.8-1.8-10.2-2.2c-2.3-0.3-5.1-0.6-6.9,1.1c-1.9,1.8-2.2,5.3-2.9,7.6
								c-1.1,3.8-2.2,7.5-3.2,11.3c-2.2,7.7-4.2,15.5-6.2,23.3C156.1,136.3,159.9,137.3,160.5,134.9z"/>
						</g>
					</g>
				</g>
				<g>
					<g>
						<path class="st9" d="M166.5,131.9c2.9-10.5,4.2-18.3,7.6-28.7c0.2-0.6,0.4-1.2,0.9-1.6c0.6-0.6,1.6-0.6,2.5-0.6
							c2.6,0.1,5.2,0.6,7.7,1.2c23.3,5.1,44.8,11.8,67.9,17.8c2.3,0.6,5.3,2.5,5.4,4.7c0,2.2-7.6,31-7.6,31
							c-1.2,0.8-2.7,0.7-4.1,0.6c-13.2-1.2-27.2-4.5-39.8-8.5c-14-4.4-22.8-6.3-37.8-11.8C169,136,165.6,135.2,166.5,131.9z"/>
					</g>
					<g>
						<g>
							<path d="M168.3,132.5c2.4-8.8,4.2-17.7,6.9-26.4c0.5-1.5,0.4-2.7,2.3-3.2c1.1-0.3,2.8,0.2,3.9,0.4c1.9,0.3,3.8,0.8,5.7,1.2
								c5,1.1,10,2.4,15.1,3.6c9.3,2.4,18.5,4.9,27.7,7.5c4.3,1.2,8.7,2.4,13,3.6c2.4,0.6,4.8,1.3,7.2,1.9c2,0.5,5.9,1.1,6.4,3.6
								c0.1,0.4-0.4,2.2-0.6,3c-0.5,2.1-1,4.3-1.5,6.4c-1.2,4.9-2.5,9.8-3.8,14.7c-0.4,1.6-0.8,3.1-1.2,4.7
								c-0.1,0.3-0.1,1.1-0.4,1.3c0,0,0,0.2-0.1,0.2c0.7-0.5-2.2-0.7-2.3-0.8c-9.8-0.7-19.6-2.9-29-5.5c-9.1-2.4-18-5.3-27-8
								c-4.1-1.2-8.3-2.4-12.4-3.8c-2.5-0.8-5.1-1.7-7.6-2.6C169.7,134.2,168,134,168.3,132.5c0.4-2.4-3.3-3.5-3.7-1
								c-0.5,2.7,0.4,4.8,2.9,6c3.7,1.8,7.9,2.8,11.8,4c9,2.9,18.1,5.3,27.1,8.1c10.7,3.3,21.7,6.1,32.8,7.7
								c3.3,0.5,9.7,2.4,12.7,0.1c1-0.8,1.1-1.9,1.4-3.1c1.3-5.1,2.7-10.2,4-15.3c1.1-4.3,2.6-8.9,3.1-13.3c0.3-2.8-1.4-4.9-3.8-6.3
								c-4.3-2.5-10.1-3.1-14.9-4.4c-11-3-22-6.1-33-9c-6.2-1.6-12.3-3.2-18.6-4.6c-4.2-1-11-3.6-15.2-1.7c-2.2,1-2.6,3.5-3.3,5.6
								c-0.9,2.9-1.7,5.8-2.5,8.8c-1.5,5.9-2.8,11.7-4.4,17.6C163.9,133.8,167.7,134.9,168.3,132.5z"/>
						</g>
					</g>
				</g>
				<g>
					<g>
						<g>
							<path class="st10" d="M169.6,270.5c-18.2,29.8-0.2,64.2,23.5,84.7c30,26,72.1,28.4,110.1,25.4c45.8-3.6,87.6-18.6,125-45.3
								c17.8-12.7,35.1-26.9,50.2-42.8c15.1-15.8,25.9-33.6,36.7-52.4c11-19.2,25.8-39.1,50.7-34.3c19.6,3.8,34.5,20.2,40.4,38.8
								c1.6,5.1,9.7,2.9,8.1-2.2c-8.7-27.5-36.8-52-67.2-44.2c-17,4.4-27.7,18.3-36.3,32.7c-11.8,19.7-22.4,39-38.4,55.8
								c-30,31.5-68.1,59.9-109.5,73.9c-22.5,7.6-46.6,11.4-70.2,12.4c-21.8,0.8-46.4,0.2-67.1-7.4c-32.8-12.1-70.5-55-48.7-90.8
								C179.6,270.1,172.4,265.9,169.6,270.5L169.6,270.5z"/>
						</g>
						<g>
							<g>
								<path d="M168.8,270c-21.2,35.4,6.4,77.6,37.7,96c17,10,36.6,14.5,56,16c20.5,1.6,41.4,0.4,61.6-2.9
									c21.2-3.4,41.9-9.5,61.5-18.2c20.3-9.1,38.8-21.1,56.3-34.6c18.4-14.3,36.1-30.1,50.2-48.7c6.8-8.9,12.8-18.4,18.4-28
									c5-8.5,9.7-17.3,15.8-25.1c5.6-7.1,12.5-13.5,21.2-16.5c9.6-3.3,20.1-1.7,29.1,2.7c8.8,4.3,16.1,11.2,21.4,19.4
									c2.7,4.1,4.8,8.5,6.5,13.1c0.9,2.6,1.8,5,4.9,5.3c2.3,0.3,4.8-0.9,5.6-3.2c1.1-3-1.3-7.1-2.4-9.8c-3.7-8.4-9-16.2-15.5-22.6
									c-12.6-12.5-30.2-19.8-48-16.2c-19.6,4-31.4,20.4-41,36.6c-11.8,19.9-23.5,39.5-39.8,56.1c-31.2,31.9-69.1,59.1-112.1,72.2
									c-23.5,7.1-47.9,10.2-72.4,10.6c-21.7,0.4-45.1-0.9-64.9-10.6c-16.3-8-30.8-21.2-39.8-36.9c-4.4-7.7-7.5-16.4-7.9-25.3
									c-0.2-4.5,0.3-9.1,1.5-13.4c0.6-2.2,1.4-4.3,2.4-6.3c0.9-1.9,2.4-3.7,2.9-5.7C179.9,268.2,171.9,265.6,168.8,270
									c-0.7,1,0.9,2,1.7,1c1.7-2.3,6.2-1.6,6.1,1.7c-0.1,2.1-2.4,4.9-3.3,6.8c-1.6,3.6-2.8,7.4-3.3,11.3
									c-1.1,7.6-0.2,15.5,2.2,22.8c5.3,16,16.9,29.6,30.1,39.8c14.6,11.3,31.5,16.9,49.7,19.3c22.1,2.8,45.2,2,67.2-1
									c21.8-2.9,43.2-8.7,63.3-17.7c19.1-8.6,37-19.9,53.5-32.8c16.8-13.1,33.2-27.7,46.5-44.5c13.1-16.6,22.2-35.6,34.1-52.9
									c5.5-8,12.1-15.5,20.6-20.3c8.6-4.9,18.9-6.5,28.7-5c18.5,3,33.9,16.7,42.6,32.9c1.1,2.1,2.1,4.2,3,6.4
									c0.7,1.8,2.3,4.6,2,6.6s-2.8,2.9-4.6,2.2c-2.1-0.9-2.5-4.4-3.3-6.3c-3.2-7.9-7.9-15.3-14.1-21.3
									c-11.8-11.6-30.1-18.6-46.2-12c-15.8,6.4-24.9,22.3-33,36.4c-11.1,19.3-23.3,37.6-39.1,53.4
									c-31.1,31.2-68.7,57.4-110.6,71.3c-20.2,6.7-41.1,10.6-62.3,12.1c-19.6,1.4-39.5,1.3-58.8-2.8
									c-19.6-4.1-37.9-12.7-52.3-26.9c-13.7-13.4-25.1-31.6-25.9-51.2c-0.4-10,2.1-19.5,7.2-28.1
									C171.1,269.9,169.4,268.9,168.8,270z"/>
							</g>
						</g>
					</g>
				</g>
				<g>
					<g>
						<path class="st3" d="M161.4,291.9c3.6,0.9,7.2,1.7,10.7,2.6c2.8-10.5,5.8-20.9,9.1-31.3c-3.7-0.8-7.3-1.9-10.9-3.2
							c-2.2,10.3-5.3,20.4-9.1,30.3"/>
					</g>
					<g>
						<g>
							<path d="M160.9,293.7c3.6,0.9,7.2,1.7,10.7,2.6c1,0.2,2.1-0.3,2.4-1.3c2.8-10.5,5.9-20.9,9.1-31.3c0.3-1-0.4-2.1-1.3-2.4
								c-3.7-0.8-7.3-1.9-10.9-3.2c-0.9-0.3-2.2,0.4-2.4,1.3c-2.3,10.3-5.3,20.4-9.1,30.3c-0.9,2.3,2.8,3.3,3.7,1
								c3.8-9.8,6.9-19.9,9.1-30.3c-0.8,0.4-1.6,0.9-2.4,1.3c3.6,1.3,7.2,2.4,10.9,3.2c-0.4-0.8-0.9-1.6-1.3-2.4
								c-3.2,10.4-6.2,20.8-9.1,31.3c0.8-0.4,1.6-0.9,2.4-1.3c-3.6-0.9-7.2-1.7-10.7-2.6C159.5,289.4,158.5,293.1,160.9,293.7
								L160.9,293.7z"/>
						</g>
					</g>
				</g>
				<g>
					<g>
						<g>
							<path class="st11" d="M138.4,280.6c-0.3,34.9-33.8,54.6-64.7,59.5c-39.2,6.2-76.2-14-106.9-36.6
								c-37-27.3-64.5-62.1-82.1-104.5c-8.4-20.2-15.5-41.4-19.9-62.9c-4.4-21.4-4.2-42.2-3.4-63.9c0.8-22.2-1.2-46.8-24.9-55.9
								c-18.7-7.2-40-1.1-54.8,11.5c-4.1,3.5-9.8-2.6-5.7-6.2c22-18.8,58.7-24.7,80.4-2c12.1,12.7,13.8,30.2,13.5,46.9
								c-0.4,23-1.7,44.9,3,67.6c8.8,42.5,26.1,86.8,53.9,120.6c15.1,18.3,33.5,34.4,53.1,47.7c18,12.2,39.3,24.7,60.9,29.2
								c34.2,7.1,88.9-9.4,89.3-51.3C130.1,274.9,138.5,275.2,138.4,280.6L138.4,280.6z"/>
						</g>
						<g>
							<g>
								<path d="M137.5,280.6c-0.7,39.1-43.7,59.6-78.1,59.7c-22.4,0.1-43.9-7.9-63.2-18.7C-22.5,311-40.2,298-55.9,283.3
									c-14.8-13.9-27.9-29.6-38.8-46.7c-11.8-18.6-20.7-38.8-28-59.6c-8.3-23.5-14.3-47.8-15.2-72.8c-0.5-11.8,0.1-23.6,0.3-35.4
									c0.2-8.1-0.1-16.4-1.9-24.3c-1.6-7.2-4.6-14.2-9.7-19.7c-5.9-6.4-14.1-10.2-22.5-11.7c-9.5-1.7-19.3-0.5-28.3,2.8
									c-4.5,1.7-8.8,3.9-12.9,6.5c-1.8,1.2-3.4,2.4-5.1,3.7c-1.2,1-2.4,2-4,1.6s-2.9-2.2-2.4-3.8c0.6-2,3.6-3.7,5.2-4.9
									c1.9-1.4,3.9-2.6,5.9-3.8c4-2.3,8.2-4.2,12.6-5.7c8.3-2.8,17.2-4.1,26-3.4c20.4,1.8,36.8,15.7,41.5,35.7
									c2.5,10.6,2.2,21.4,1.9,32.2c-0.3,12.3-0.6,24.5,0.2,36.8c1.4,22.4,7.2,44.5,14.5,65.6c7,20.4,16,40.1,27.6,58.3
									c11.9,18.6,26.6,35.1,43.3,49.5c16.9,14.5,35.7,27.5,55.7,37.4c16.2,8,33.3,13.3,51.5,12.5c26.6-1.2,59.8-13.4,67.8-41.7
									c0.9-3.1,1.4-6.4,1.6-9.7c0.1-2.1-0.1-4.6,2.4-5.2C135.5,277,137.3,278.4,137.5,280.6c0.1,1.2,2,1.2,1.9,0
									c-0.3-4.9-7.4-7.4-9.8-2.5c-0.6,1.3-0.5,2.8-0.6,4.2c-0.1,2.3-0.4,4.5-0.9,6.8c-0.8,3.6-2,7.1-3.7,10.4
									c-7.1,13.9-21.3,22.7-35.7,27.6s-30.5,6.7-45.6,4.1c-23.3-4-44.6-17-63.8-30.1c-19.6-13.4-37.6-29.3-52.6-47.7
									c-14.6-18-26-38.5-34.9-59.8c-8.8-21.1-15.8-43.7-19.3-66.3c-2-12.9-2.3-25.9-2.2-38.9c0.1-11.7,1-23.6,0-35.3
									c-0.8-9.7-3.1-19.5-8.5-27.8c-5-7.6-12.3-13.5-20.6-17.1c-16.2-6.9-35-4.6-50.6,2.8c-4.1,1.9-8,4.3-11.6,6.9
									c-2.4,1.8-6,3.8-5.6,7.3c0.3,2.5,2.6,4.5,5.1,4.6c1.4,0.1,2.4-0.5,3.6-1.3c2.4-1.7,4.6-3.6,7.1-5.2
									c17.4-10.9,43.7-13.9,59.2,2c13.1,13.3,12.1,34.1,11.6,51.3c-0.4,12.7-0.5,25.4,0.5,38.1c1,12.4,3.4,24.5,6.6,36.6
									c11.3,43.1,30.3,84.5,60.2,118c14.1,15.8,30.2,29.5,47.6,41.5c18.3,12.7,38.4,23.7,60.3,28.8c19.8,4.6,40.4,3.3,59.4-4
									c15.5-5.9,30.3-16,38.4-30.8c4-7.4,6-15.6,6.1-24C139.4,279.3,137.5,279.3,137.5,280.6z"/>
							</g>
						</g>
					</g>
				</g>
				<g>
					<g>
						<path class="st8" d="M127.6,284c3.7,0.5,7.3,0.9,11,1.4c1.6-10.7,3.5-21.4,5.5-32.1c-3.8-0.4-7.5-1.1-11.2-2
							c-1.1,10.5-3,20.9-5.7,31.1"/>
					</g>
					<g>
						<g>
							<path d="M127.6,286c3.7,0.5,7.3,0.9,11,1.4c0.8,0.1,1.7-0.7,1.9-1.4c1.6-10.7,3.5-21.4,5.5-32.1c0.3-1.3-0.6-2.3-1.9-2.4
								c-3.6-0.4-7.1-1-10.7-1.9c-1.3-0.3-2.3,0.6-2.4,1.9c-1.1,10.3-3,20.5-5.6,30.6c-0.6,2.4,3.1,3.4,3.7,1
								c2.7-10.4,4.6-20.9,5.7-31.6c-0.8,0.6-1.6,1.2-2.4,1.9c3.9,0.9,7.7,1.6,11.7,2c-0.6-0.8-1.2-1.6-1.9-2.4
								c-2,10.7-3.9,21.4-5.5,32.1c0.6-0.5,1.2-0.9,1.9-1.4c-3.7-0.5-7.3-0.9-11-1.4C125.1,281.8,125.1,285.7,127.6,286L127.6,286z"
								/>
						</g>
					</g>
				</g>
			</g>
			<g>
				<g>
					<path class="st7" d="M178.6,111.9c-1.4,5.6-2.7,11.7-0.2,17.1c2.1,4.5,6.3,7.3,11.3,7.1c4.3-0.1,7.5-1,10.6-4.2
						c3.3-3.5,5-8.1,6-12.7c0.9-4-5.3-5.8-6.2-1.7c-0.6,3-1.4,6-3.2,8.5c-1.6,2.4-3.2,3.5-6,3.7c-9.4,0.7-7.7-9.9-6.1-16.1
						C185.9,109.6,179.7,107.9,178.6,111.9L178.6,111.9z"/>
				</g>
			</g>
			<g>
				<g>
					<path class="st7" d="M219.9,123.2c-1.4,5.6-2.7,11.7-0.2,17.1c2.1,4.5,6.3,7.3,11.3,7.1c4.3-0.1,7.5-1,10.6-4.2
						c3.3-3.5,5-8.1,6-12.7c0.9-4-5.3-5.8-6.2-1.7c-0.6,3-1.4,6-3.2,8.5c-1.6,2.4-3.2,3.5-6,3.7c-9.4,0.7-7.7-9.9-6.1-16.1
						C227.1,120.8,220.9,119.1,219.9,123.2L219.9,123.2z"/>
				</g>
			</g>
		</g>
	</g>
	<g>
		<defs>
			<path id="SVGID_5_" d="M353.7,193.5c0,88.1-71.4,159.5-159.5,159.5S34.7,281.6,34.7,193.5C34.7,105.4,106.1,34,194.2,34
				S353.7,105.4,353.7,193.5"/>
		</defs>
		<clipPath id="SVGID_6_">
			<use xlink:href="#SVGID_5_"  style="overflow:visible;"/>
		</clipPath>
		<g class="st12">
			<g>
				<g>
					<polygon class="st2" points="118.3,94.7 113.7,107.5 90.7,134.6 84.8,129.9 106.7,102.3 					"/>
				</g>
				<g>
					<g>
						<path d="M116.4,94.2c-1.5,4-3.7,8.3-4.5,12.5c-0.2,0.8,0.9-0.8,0.1-0.3c-0.4,0.3-0.7,0.9-1.1,1.3c-1.3,1.6-2.7,3.2-4,4.8
							c-5.9,6.9-11.7,13.9-17.6,20.8c0.9,0,1.8,0,2.7,0c-2-1.6-4-3.1-5.9-4.7c0,0.9,0,1.8,0,2.7c5.7-7.1,11.3-14.3,17-21.4
							c1.3-1.6,2.5-3.2,3.8-4.8c0.3-0.4,0.6-0.8,0.9-1.2c0.4-0.4-0.6,0.4,0.2-0.2c3.6-2.6,7.5-4.9,11.2-7.4c2.1-1.4,0.1-4.7-1.9-3.3
							c-3.7,2.4-7.6,4.7-11.2,7.4c-2.2,1.6-3.7,4.2-5.4,6.3c-5.8,7.3-11.6,14.6-17.4,21.8c-0.6,0.7-0.9,2,0,2.7c2,1.6,4,3.1,5.9,4.7
							c0.8,0.6,2,0.9,2.7,0c6-7.1,12.1-14.3,18.1-21.4c1.8-2.1,4.3-4.3,5.4-6.8c1.8-4,3-8.4,4.5-12.6
							C121,92.8,117.3,91.8,116.4,94.2z"/>
					</g>
				</g>
			</g>
			<g>
				<g>
					<path class="st8" d="M70.5,138.1c4.2-4.6,7.7-12.4,12.2-16.9c5.5,2.8,11.9,8.9,17.4,11.8c0.3,0.2,0.7,0.4,0.8,0.7
						c0.1,0.4-0.2,0.8-0.5,1.2c-4,5.2-8.3,10.3-12.8,15.3"/>
				</g>
				<g>
					<g>
						<path d="M71.8,139.4c4.6-5.2,7.4-11.9,12.2-16.9c-0.8,0.1-1.6,0.2-2.3,0.3c5.6,3.1,10.3,7.6,15.8,10.9
							c0.2,0.1,1.6,0.7,1.6,0.9c-0.2-1.3-1.9,1.1-1.9,1.2c-1.1,1.4-2.2,2.7-3.3,4.1c-2.5,3-5.1,6-7.7,8.9c-1.7,1.8,1.1,4.6,2.7,2.7
							c3.2-3.5,6.2-7.1,9.2-10.7c1.5-1.9,5.9-5.5,4.3-8.3c-0.7-1.2-2.2-1.7-3.3-2.4c-1.7-1.1-3.4-2.3-5-3.5
							c-3.4-2.5-6.7-5.1-10.4-7.1c-0.7-0.4-1.7-0.3-2.3,0.3c-4.9,5-7.6,11.6-12.2,16.9C67.5,138.5,70.2,141.3,71.8,139.4L71.8,139.4
							z"/>
					</g>
				</g>
			</g>
			<g>
				<g>
					<path class="st8" d="M70.5,138.1c-12.8,21.8-50.3,67-61,88.8c2.6,2.1,5.3,4.1,8.1,5.9c0.7,0.5,1.5,0.9,2.4,0.9
						c0.9-0.1,1.7-0.6,2.3-1.3c15.7-16.7,49-61.7,66.8-83"/>
				</g>
				<g>
					<g>
						<path d="M68.8,137.1c-6.9,11.7-15.2,22.5-23.3,33.4C36.3,183,27,195.4,18.3,208.3c-3.8,5.7-7.5,11.4-10.6,17.5
							c-0.4,0.7-0.4,1.8,0.3,2.3c1.9,1.5,3.8,3,5.7,4.4c1.7,1.2,3.9,3.1,6.1,3c3-0.1,5.1-3.4,6.9-5.4c4.8-5.5,9.5-11.1,14-16.8
							C52,199.3,62.9,185,74,170.8c5.3-6.8,10.6-13.5,16.1-20.1c1.6-1.9-1.1-4.6-2.7-2.7c-19.8,23.7-37.7,48.8-57.5,72.4
							c-2.2,2.6-4.3,5.1-6.6,7.6c-1.3,1.5-2.7,3.7-5,3c-2.7-0.8-5.6-3.9-7.8-5.6c0.1,0.8,0.2,1.6,0.3,2.3
							c5.9-11.9,14-22.8,21.7-33.5c9.1-12.7,18.6-25.1,27.6-37.8c4.1-5.7,8.1-11.5,11.7-17.5C73.4,136.9,70.1,134.9,68.8,137.1
							L68.8,137.1z"/>
					</g>
				</g>
			</g>
			<g>
				<g>
					<path class="st8" d="M88.7,165.1c-11.4-7-22.3-17.3-32.7-25.7c1.4-2.2,2.8-4.5,4.3-6.7c0.3-0.4,0.6-0.9,1.1-1
						c0.6-0.2,1.2,0.2,1.7,0.6c10.8,7.9,21.5,15.8,32.3,23.8c0.3,0.2,0.5,0.4,0.7,0.7c0.2,0.6-0.3,1.2-0.7,1.6
						C93,160.6,90.9,162.8,88.7,165.1"/>
				</g>
				<g>
					<g>
						<path d="M89.7,163.4C78,156.1,68,146.7,57.3,138c0.1,0.8,0.2,1.6,0.3,2.3c1.2-1.9,2.3-4,3.7-5.8c0.9-1.2,0.3-1.1,1.7,0.1
							c1,0.8,2,1.5,3,2.2c3.9,2.8,7.7,5.7,11.6,8.5s7.7,5.7,11.6,8.5c0.9,0.7,2.3,1.4,3,2.2c1.1,1.2,1.1,0.9,0,2.5
							c-1.4,1.8-3.3,3.4-4.9,5.1c-1.7,1.8,1,4.5,2.7,2.7c2.2-2.3,4.7-4.5,6.6-7c1.2-1.5,1.5-3,0.2-4.5c-2.1-2.3-5.3-4-7.8-5.9
							c-2.9-2.1-5.7-4.2-8.6-6.3c-5.5-4-10.9-8.6-16.6-12.2c-4.9-3-7.6,4.6-9.6,7.8c-0.4,0.7-0.3,1.8,0.3,2.3
							c10.9,8.8,21.2,18.5,33.1,26C89.8,168.1,91.8,164.7,89.7,163.4L89.7,163.4z"/>
					</g>
				</g>
			</g>
		</g>
	</g>
	<line class="st13" x1="180.9" y1="122.8" x2="173.3" y2="125"/>
	<polyline class="st13" points="175.7,132.1 180.6,128.6 186,130.9 182.8,136.8 	"/>
	<line class="st13" x1="238.3" y1="140.3" x2="243.6" y2="146.3"/>
	<polyline class="st13" points="236,149.4 233.8,143.8 228,142.8 227.5,149.5 	"/>
</g>
<g>
	<g>
		<path class="st14" d="M361.3,276.2c12.4-24.9,19.4-52.9,19.4-82.6c0-102.4-83.1-185.5-185.5-185.5S9.6,91.2,9.6,193.6
			s83.1,185.5,185.5,185.5c37.9,0,73.1-11.4,102.5-30.9c6.6,24.4,29,42.4,55.5,42.4c31.8,0,57.5-25.7,57.5-57.5
			C410.6,304.1,389.2,280.1,361.3,276.2z M195.1,354.6c-88.9,0-161-72.1-161-161s72.1-161,161-161s161,72.1,161,161
			S284,354.6,195.1,354.6z M353.1,373.6c-22.4,0-40.5-18.1-40.5-40.5s18.1-40.5,40.5-40.5s40.5,18.1,40.5,40.5
			S375.5,373.6,353.1,373.6z"/>
	</g>
</g>
<g class="st15">
	<path class="st16" d="M214.1,336.6c-88.9,0-161-72.1-161-161c0-41.3,15.6-79,41.2-107.5c-36.7,29.5-60.2,74.8-60.2,125.5
		c0,88.9,72.1,161,161,161c47.6,0,90.4-20.7,119.8-53.5C287.4,323.3,252.3,336.6,214.1,336.6z"/>
</g>
<g class="st17">
	<path class="st2" d="M182.1,50.6c88.9,0,161,72.1,161,161c0,31.2-8.9,60.3-24.2,85c23.2-27.9,37.2-63.8,37.2-103
		c0-88.9-72.1-161-161-161c-57.7,0-108.4,30.4-136.8,76C87.9,73.2,132.4,50.6,182.1,50.6z"/>
</g>
<g>
	<circle class="st2" cx="353.1" cy="333.1" r="40.5"/>
	<g>
		<path class="st16" d="M391.1,333.1c-0.1,15.7-10,30.3-24.9,35.7c-15.1,5.5-32.2,0.8-42.5-11.6c-10.2-12.2-11.3-30.2-3.1-43.7
			c8.2-13.6,24.5-20.8,40.1-17.6c15.4,3.2,27.4,15.8,30,31.3C391,329.2,391.1,331.1,391.1,333.1c0,3.2,5,3.2,5,0
			c-0.1-18-11.4-34.2-28.3-40.4c-16.8-6.2-36.4-0.9-47.8,12.9c-11.5,14-13.2,34.1-3.8,49.7c9.3,15.5,27.7,23.5,45.4,20
			c17.2-3.4,31.2-17.9,33.9-35.2c0.4-2.3,0.6-4.6,0.6-6.9C396.1,329.9,391.1,329.9,391.1,333.1z"/>
	</g>
</g>
<g>
	<path class="st18" d="M188.1,20.1c102.4,0,181.5,75.1,181.5,177.5c0,36.9-2.5,44.5-8.5,78.5c13-35,19.5-37.1,19.5-82.5
		c0-102.4-83.1-185.5-185.5-185.5C129.6,8.1,72,42.1,39,93.5C73,52.9,131,20.1,188.1,20.1z"/>
</g>
<g>
	<path class="st19" d="M200.1,366.1C97.7,366.1,15.6,283,15.6,180.6c0-34,10.1-65.8,27.4-93.2C22,117.5,9.6,154.1,9.6,193.6
		c0,102.4,83.1,185.5,185.5,185.5c34.1,0,66.1-9.2,93.6-25.3C264.4,361.9,227.7,366.1,200.1,366.1z"/>
</g>
<g class="st15">
	<path class="st16" d="M359.1,364.6c-22.4,0-40.5-18.1-40.5-40.5c0-6.4,1.5-12.4,4.1-17.7c-6.3,7.1-10.1,16.5-10.1,26.7
		c0,22.4,18.1,40.5,40.5,40.5c16,0,29.9-9.3,36.4-22.8C382.1,359.3,371.3,364.6,359.1,364.6z"/>
</g>
<g>
	<g>
		<path class="st20" d="M341.3,345.5c0.1,0.3,0.1,0.7,0.2,1c0.1,0.7,0.1,1.3,0.7,1.7c0.6,0.4,1.2,0.2,1.8,0c0.5-0.2,1-0.3,1.5-0.2
			l20.1-30.1l-4.1-2.7L341.3,345.5z"/>
	</g>
	<polygon class="st21" points="360.4,309.4 362.9,305.6 360.4,309.4 	"/>
	<path class="st22" d="M366.6,307.6l-2.7,4l4.1,2.7l2-3c1.2-1.7,3.1-3.6,1.4-4.8l1.3,0.8l-1.6-1
		C369.2,305.3,367.7,305.9,366.6,307.6z"/>
	<path class="st21" d="M368.2,304.6c-1.7-1.2-4.1-0.7-5.2,1C364.1,303.9,366.4,303.4,368.2,304.6z"/>
	<polygon class="st23" points="360.4,309.4 360.4,309.4 360.4,309.4 360.4,309.4 	"/>
	<path class="st23" d="M360.4,309.4l-1.6,2.4L360.4,309.4z"/>
	<path class="st23" d="M368.8,319.9l1.2-1.9L368.8,319.9z"/>
	<path class="st24" d="M340.3,347.3l-0.8-0.1l-4.9,10.6l8.9-6.8l0.3-0.3l1.6-2.5c-0.4-0.1-0.9,0.1-1.3,0.2c-0.7,0.2-1.3,0.4-2,0
		s-0.7-1.1-0.8-1.8c0-0.3-0.1-0.6-0.1-0.9l-0.6,0.8C340.4,346.7,340.3,347,340.3,347.3z"/>
	<path class="st23" d="M344,348.2c-0.6,0.2-1.2,0.4-1.8,0c-0.6-0.4-0.7-1-0.7-1.7c0-0.4-0.1-0.7-0.2-1l-0.1,0.1
		c0.3,0.9,0,2.1,0.9,2.7c1.1,0.7,2.2-0.4,3.3-0.2l0.1-0.1C345,347.9,344.5,348.1,344,348.2z"/>
	<path class="st23" d="M342.1,348.3c-1-0.6-0.6-1.8-0.9-2.7l-0.1,0.1c0.1,0.3,0.1,0.6,0.1,0.9C341.3,347.2,341.4,347.9,342.1,348.3
		c0.6,0.5,1.3,0.3,1.9,0.1c0.4-0.1,0.9-0.3,1.3-0.2l0.1-0.1C344.3,347.9,343.2,349,342.1,348.3z"/>
	<path class="st23" d="M371,306.5l-2.8-1.9L371,306.5z"/>
	<path class="st25" d="M338.4,344.8c0.7-0.3,1.3-0.7,2.1-0.3c0.4,0.2,0.6,0.6,0.8,0.9l20.2-30.3l-3.4-2.3l-21.3,32l-0.1,0.3l0,0
		C337.3,345.4,337.8,345.1,338.4,344.8z"/>
	<path class="st26" d="M363.9,311.7l2.7-4c1.2-1.7,2.7-2.3,4.4-1.2l-2.8-1.9c-1.7-1.2-4.1-0.7-5.2,1l-2.5,3.8L363.9,311.7z"/>
	
		<rect x="359.1" y="310.3" transform="matrix(0.5552 -0.8317 0.8317 0.5552 -99.1314 439.1689)" class="st27" width="3.9" height="4"/>
	<path class="st23" d="M340.5,344.7c0.4,0.2,0.6,0.6,0.7,0.9l0.1-0.1C341.2,345.1,340.9,344.8,340.5,344.7c-0.8-0.5-1.5-0.2-2.1,0.2
		c-0.6,0.3-1.1,0.6-1.7,0.3l0,0v0.1C338,345.8,339,343.9,340.5,344.7z"/>
	<polygon class="st2" points="371.1,316.5 371.1,316.5 373.6,312.7 	"/>
	<path class="st28" d="M365.6,317.9L345.5,348c0.2,0,0.5,0.1,0.7,0.3c0.7,0.6,0.7,1.4,0.6,2.1c-0.1,0.6-0.1,1.2,0.3,1.7l0,0l0.3-0.2
		l21.3-32l0,0L365.6,317.9z"/>
	<path class="st29" d="M369.9,311.4l-2,3l3.1,2.1l2.5-3.8c1.2-1.7,0.7-4.1-1-5.2l-1.3-0.8C373,307.8,371.1,309.7,369.9,311.4z"/>
	
		<rect x="366.4" y="315.3" transform="matrix(0.5553 -0.8317 0.8317 0.5553 -99.921 447.3256)" class="st30" width="3.9" height="3.6"/>
	<path class="st31" d="M343.4,350.9l-8.9,6.8l-2,4.2c0.1,0.1,0.2,0.2,0.3,0.3c0.3,0.2,0.7,0.3,1.1,0l13-10c-0.4-0.5-0.4-1.2-0.3-1.8
		c0.1-0.7,0.1-1.4-0.5-1.9c-0.2-0.2-0.5-0.3-0.7-0.3l-1.6,2.5L343.4,350.9z"/>
	<path class="st2" d="M346.8,350.4c0.1-0.7,0.1-1.5-0.6-2.1c-0.2-0.2-0.5-0.3-0.7-0.3l-0.1,0.1c0.2,0,0.5,0.1,0.7,0.3
		c1.3,1.1-0.1,2.7,0.9,3.8l0.1-0.1l0,0C346.7,351.7,346.7,351.1,346.8,350.4z"/>
	<path class="st32" d="M340.4,344.7c-0.7-0.4-1.3-0.1-2,0.3c-0.5,0.3-1.1,0.6-1.8,0.4l-4.3,15.8c0,0.1,0,0.3,0,0.4s0.1,0.3,0.2,0.4
		l2-4.2l4.2-7.6l1.6-2.8c0.1-0.3,0.2-0.5,0.4-0.8l0.6-0.8C341.1,345.3,340.9,345,340.4,344.7z"/>
	
		<rect x="362.8" y="312.3" transform="matrix(0.5553 -0.8317 0.8317 0.5553 -99.5672 443.3284)" class="st33" width="3.9" height="4.9"/>
	<g>
		<g>
			<path class="st16" d="M373.3,306.2c-1.5-1-2.9-2-4.4-2.9c-1.7-1.1-3.8-1.1-5.5-0.1c-1.1,0.7-1.7,1.7-2.4,2.7
				c-0.6,0.9-1.2,1.8-1.8,2.7c-0.5,0.7-0.1,1.6,0.5,2.1c2.6,1.8,5.3,3.5,7.9,5.3c0.9,0.6,1.8,1.2,2.7,1.8c0.7,0.5,1.6,0.1,2.1-0.5
				c0.8-1.2,1.6-2.4,2.4-3.6C376.4,311.1,375.7,307.9,373.3,306.2c-0.7-0.5-1.7-0.1-2.1,0.5c-0.4,0.7-0.1,1.6,0.5,2.1
				c0.3,0.2,0.6,0.6,0.8,1c0.1,0.2,0.2,0.8,0.1,1c-0.1,0.6-0.4,1.1-0.8,1.6c-0.7,1.1-1.4,2.2-2.2,3.2c0.7-0.2,1.4-0.4,2.1-0.5
				c-2.7-1.8-5.3-3.6-8-5.3c-0.9-0.6-1.8-1.2-2.6-1.8c0.2,0.7,0.4,1.4,0.5,2.1c0.5-0.7,0.9-1.4,1.4-2c0.4-0.6,0.9-1.5,1.4-2
				c0.8-0.8,1.9-0.9,3-0.2c0.8,0.5,1.6,1.1,2.4,1.6c0.6,0.4,1.3,0.9,1.9,1.3c0.7,0.4,1.7,0.1,2.1-0.5
				C374.3,307.5,374,306.7,373.3,306.2z"/>
		</g>
	</g>
	<g>
		<g>
			<path class="st16" d="M368.7,313.2c-2.5-1.7-5-3.4-7.5-5c-0.7-0.5-1.6-0.1-2.1,0.5c-1,1.5-2.1,3-3.1,4.5
				c-0.5,0.7-0.1,1.6,0.5,2.1c2.7,1.8,5.3,3.6,8,5.3c0.9,0.6,1.7,1.2,2.6,1.7c0.7,0.5,1.6,0.1,2.1-0.5c1-1.5,2.1-3,3.1-4.5
				c0.5-0.7,0.1-1.6-0.5-2.1C370.7,314.6,369.7,313.9,368.7,313.2c-1.6-1.1-3.1,1.5-1.5,2.6c1,0.7,2.1,1.4,3.1,2.1
				c-0.2-0.7-0.4-1.4-0.5-2.1c-1,1.5-2.1,3-3.1,4.5c0.7-0.2,1.4-0.4,2.1-0.5c-2.7-1.8-5.3-3.6-8-5.3c-0.9-0.6-1.7-1.2-2.6-1.8
				c0.2,0.7,0.4,1.4,0.5,2.1c1-1.5,2.1-3,3.1-4.5c-0.7,0.2-1.4,0.4-2.1,0.5c2.5,1.7,5,3.4,7.5,5
				C368.8,316.9,370.3,314.3,368.7,313.2z"/>
		</g>
	</g>
	<g>
		<g>
			<path class="st16" d="M365.5,317.9c-2.5-1.7-5-3.3-7.5-5c-0.7-0.5-1.6-0.1-2.1,0.5c-6.1,9.1-12.1,18.2-18.2,27.3
				c-0.8,1.2-2.1,2.6-2.5,4.1c-0.2,0.8,0.3,1.6,1,1.8c0.6,0.2,1.3,0.1,1.8,0c0.4-0.1,1.5-0.9,1.8-0.6s0.1,1.3,0.3,1.7
				c0.2,0.7,0.6,1.3,1.1,1.7c0.6,0.4,1.3,0.6,2,0.5c0.4,0,1.7-0.7,2-0.3c0.2,0.2-0.1,1.6,0,1.9c0.1,0.6,0.3,1.2,0.8,1.7
				c0.4,0.4,1.3,0.6,1.8,0.2c1.1-0.8,1.8-2.2,2.5-3.3c1.6-2.4,3.2-4.9,4.9-7.3c3.7-5.6,7.5-11.2,11.2-16.9c0.9-1.3,1.8-2.6,2.6-4
				c0.5-0.7,0.1-1.6-0.5-2.1C367.5,319.3,366.5,318.6,365.5,317.9c-1.6-1.1-3.1,1.5-1.5,2.6c1,0.7,2.1,1.4,3.1,2.1
				c-0.2-0.7-0.4-1.4-0.5-2.1c-6,9-12,18.1-18.1,27.1c-0.6,0.9-1.2,1.7-1.7,2.6c-0.2,0.2-0.3,0.5-0.5,0.7c-0.4,0.7,0.7-0.5,0.1-0.1
				c0.6,0.1,1.2,0.2,1.8,0.2c0.1,0.2,0.1-0.6,0.1-0.8c0-0.3,0-0.6,0-1c-0.1-0.8-0.4-1.5-1-2s-1.3-0.8-2.1-0.8
				c-0.4,0-1.9,0.5-2.1,0.4c-0.1-0.1-0.1-0.7-0.1-0.9c-0.1-0.4-0.1-0.8-0.3-1.2c-0.3-0.6-0.7-1.1-1.3-1.5c-0.7-0.4-1.5-0.5-2.3-0.3
				c-0.4,0.1-1.6,0.9-1.9,0.8c0.3,0.6,0.7,1.2,1,1.8c0.2-0.6-0.2,0.3,0-0.1c0.1-0.2,0.2-0.4,0.4-0.6c0.5-0.7,1-1.5,1.4-2.2
				c1.6-2.4,3.2-4.8,4.8-7.3c3.7-5.6,7.4-11.1,11.1-16.7c0.8-1.3,1.7-2.5,2.5-3.8c-0.7,0.2-1.4,0.4-2.1,0.5c2.5,1.7,5,3.3,7.5,5
				C365.6,321.6,367.1,319,365.5,317.9z"/>
		</g>
	</g>
	<g>
		<g>
			<path class="st16" d="M348.1,350.4c0.1-1.6-0.5-3.1-2.1-3.6c-0.7-0.2-1.4-0.1-2.1,0.1c-0.4,0.1-0.9,0.4-1.1,0.2
				c-0.1-0.2-0.1-0.6-0.1-0.8c0-0.4-0.1-0.8-0.2-1.2c-0.2-0.7-0.7-1.3-1.3-1.6c-0.7-0.4-1.6-0.5-2.4-0.2c-0.4,0.1-1.3,0.8-1.7,0.7
				c-0.8-0.2-1.6,0.2-1.8,1c-1.3,4.9-2.6,9.8-3.9,14.7c-0.3,0.9-0.6,1.9-0.1,2.9c0.8,1.6,2.6,1.6,3.9,0.6c2.2-1.7,4.4-3.4,6.6-5.1
				c2-1.5,4-3,5.9-4.6c0.6-0.5,1-1.3,0.5-2.1C348,351.1,348.1,350.8,348.1,350.4c0.2-1.9-2.8-1.9-3,0c-0.1,0.9,0,1.8,0.5,2.5
				c0.2-0.7,0.4-1.4,0.5-2.1c-3.8,2.9-7.6,5.9-11.5,8.8c-0.3,0.3-0.7,0.5-1,0.8c-0.1,0.1-0.5,0.3-0.5,0.4c0.1-0.4,1,0.5,0.7,0.7
				c0,0,0-0.2,0.1-0.2c0.1-0.3,0.2-0.6,0.2-0.9c0.7-2.7,1.5-5.4,2.2-8.1c0.6-2.2,1.2-4.4,1.8-6.6c-0.6,0.3-1.2,0.7-1.8,1
				c0.7,0.1,1.4,0.1,2.1-0.2c0.4-0.1,1-0.7,1.4-0.6c-0.3,0,0,0.6,0,0.8c0.1,0.6,0.2,1.2,0.5,1.7c0.7,1.2,2.1,1.7,3.4,1.4
				c0.3-0.1,1.1-0.5,1.4-0.4c0,0-0.1-0.1,0,0s0,0.6,0,0.7C344.9,352.3,347.9,352.3,348.1,350.4z"/>
		</g>
	</g>
	<g>
		<g>
			<path class="st16" d="M332.5,361.2c0,0.1,0,0.3,0,0.4s0.1,0.3,0.2,0.4s0.2,0.2,0.3,0.3c0.3,0.2,0.7,0.3,1.1,0l6.3-4.8
				c-1.7-1.5-3.7-2.7-5.8-3.3L332.5,361.2z"/>
		</g>
	</g>
</g>
<g>
	<path class="st19" d="M296.7,346.2c6.6,24.4,29,42.4,55.5,42.4c16,0,30.4-6.5,40.8-17c-9.5,6.9-21.2,11-33.8,11
		c-26.5,0-48.8-18-55.5-42.4L296.7,346.2z"/>
</g>
<g>
	<g>
		<path class="st18" d="M344.9,280.7"/>
	</g>
	<g>
		<path class="st18" d="M346.7,280.6c20.9-0.7,41,11,50.1,31.3c9.5,21.1,4,45-11.8,60.1c21.2-13,29.9-40,19.4-63.3
			C394.4,286.3,369.8,274.9,346.7,280.6z"/>
	</g>
</g>
<g>
	<g>
		<path class="st16" d="M363.4,277.5c18.4-37.1,24.1-79.8,16.1-120.4c-6.5-32.9-22-63.7-44.3-88.7c-22.2-24.8-50.9-43.5-82.6-53.7
			C219.4,4,183.3,2.9,149.4,11.3C117,19.4,87,36.3,63.2,59.7S22,112.8,13.4,145c-9,33.5-8.5,69.5,1.5,102.7
			c9.6,32.1,27.9,61.4,52.5,84.1s55.1,38.7,87.8,45.7c39.1,8.4,80.4,4.1,116.9-12.3c9.3-4.2,18.2-9.1,26.7-14.7
			c-1.2-0.5-2.4-1-3.7-1.5c4.6,16.4,16.1,30.6,31.4,38.1c15.6,7.6,34.1,8.1,50.1,1.3c15-6.4,26.8-18.9,32.5-34.1
			c6.1-16,4.8-34.3-3.3-49.4c-8.9-16.6-25.5-28.3-44.1-31c-1.3-0.2-2.7,0.3-3.1,1.7c-0.3,1.2,0.4,2.9,1.7,3.1
			c15.3,2.2,29.3,10.7,38.1,23.6c8.7,13,11.7,29.3,7.8,44.4c-3.7,14.6-13.5,27.2-26.7,34.6c-13.8,7.7-30.7,8.9-45.5,3.5
			c-16.6-6-29.4-20.2-34.2-37.2c-0.4-1.5-2.3-2.4-3.7-1.5c-34.1,22.6-75.1,33.2-115.9,30c-32.9-2.6-64.8-14.3-91.6-33.4
			c-26.3-18.7-47.4-44.5-60.7-73.9C14.3,238,9.4,203.6,13.6,170.2c4.1-32.5,17.2-63.8,37.5-89.5c20-25.4,46.6-45.5,76.7-57.3
			c31.4-12.4,66.1-15.9,99.4-10c32.2,5.7,62.6,20.1,87.4,41.5c24.5,21.2,43.3,48.7,53.8,79.4c12.2,35.8,13,75.2,2.2,111.6
			c-3,10-6.8,19.7-11.4,29.1C357.7,277.8,362,280.3,363.4,277.5z"/>
	</g>
</g>
<g>
	<g>
		<path class="st16" d="M353.6,193.6c0,16.7-2.6,33.3-7.8,49.1c-4.9,15.2-12.2,29.6-21.5,42.7c-9.1,12.9-20.3,24.5-32.8,34.1
			c-12.7,9.7-26.8,17.5-41.8,23c-15.6,5.7-32,8.9-48.5,9.5c-16.7,0.6-33.4-1.3-49.4-5.9c-15.5-4.4-30.3-11.2-43.8-20
			c-13.2-8.7-25.1-19.4-35.2-31.6s-18.5-26.1-24.5-40.8c-6.2-15.2-10-31.3-11.3-47.6c-1.3-16.8,0-33.7,4-50
			c3.8-15.6,10-30.6,18.4-44.4C67.8,97.9,78.1,85.6,90,75s25.4-19.3,39.8-25.9c14.8-6.7,30.8-11.2,46.9-13
			c16.7-1.9,33.6-1.2,50.1,2.1c15.9,3.2,31.3,8.9,45.4,16.8c13.9,7.7,26.5,17.5,37.5,29s20.3,24.7,27.4,39
			c7.2,14.5,12.2,30.2,14.7,46.2C353,177.3,353.6,185.5,353.6,193.6c0,3.2,5,3.2,5,0c0-17.1-2.7-34.2-7.9-50.4
			c-5.1-15.7-12.6-30.6-22.1-44c-9.6-13.4-21.1-25.4-34.2-35.4s-27.6-18-43.1-23.7c-15.9-5.9-32.8-9.1-49.8-9.8
			c-17.2-0.7-34.5,1.4-51,6c-15.9,4.5-31.1,11.5-45,20.6C91.8,65.9,79.4,77,69,89.6c-10.5,12.8-19,27-25.3,42.3
			c-6.4,15.6-10.3,32.3-11.6,49.1c-1.3,17.2,0.1,34.6,4.1,51.4c3.9,16.1,10.3,31.6,18.9,45.8c8.5,14,19.1,26.8,31.4,37.7
			c12.3,10.9,26.1,19.9,41.1,26.7c15.4,7,31.8,11.5,48.6,13.4c17.2,2,34.7,1.2,51.6-2.2c16.3-3.3,32.1-9.2,46.7-17.3
			c14.3-8,27.5-18.2,38.8-30s20.8-25.4,28.1-40c7.5-15,12.6-31.1,15.1-47.6c1.3-8.3,1.9-16.8,1.9-25.2
			C358.6,190.4,353.6,190.4,353.6,193.6z"/>
	</g>
</g>
</svg>
