<svg xmlns="http://www.w3.org/2000/svg" xmlns:xlink="http://www.w3.org/1999/xlink" viewBox="0 0 186 181" xmlns:v="https://vecta.io/nano"><style><![CDATA[.AD{fill:#969999}.AE{fill:#707070}.AF{fill:#ababab}.AG{fill:#eff0f0}.AH{fill:#efefef}.AI{fill:#d6d8d8}.AJ{fill:#b0b0b0}.AK{fill:#a5a9a9}.AL{fill:#dfdede}.AM{fill:#9d9a9a}.AN{fill:#d9dcdc}.AO{fill:#dddfdf}.AP{fill:#878a8a}.AQ{fill:#a2a4a4}.AR{fill:#b3b5b5}.AS{fill:#a3a7a7}.AT{fill:#656868}.AU{fill:#ced0d0}.AV{fill:#919595}.AW{fill:#a4a8a8}.AX{fill:#fafafa}.AY{fill:#c0c3c3}.AZ{fill:#dcdddd}.Aa{fill:#d0d3d3}.Ab{fill:#e7e8e8}.Ac{fill:#767878}.Ad{fill:#656767}.Ae{fill:#cfd0d0}.Af{fill:#bbbebe}.Ag{fill:#f7f7f7}.Ah{fill:#565656}.Ai{fill:#6d6b6b}.Aj{fill:#ebecec}.Ak{fill:#e5e8e8}.Al{fill:#cfd2d2}.Am{fill:#cdcfcf}.An{fill:#9b9d9d}.Ao{fill:#565555}.Ap{fill:#949595}.Aq{fill:#a9a8a8}.Ar{fill:#7d7b7b}.As{fill:#948f8f}.At{fill:#f0efef}.Au{fill:#c1bfbf}.Av{fill:#787979}.Aw{fill:#686969}.Ax{fill:#e2e3e3}.Ay{fill:#d8d7d7}.Az{fill:#7e8080}.BA{fill:#aaacac}.BB{fill:#919393}.BC{fill:#818383}.BD{fill:#b5b7b7}.BE{fill:#bec0c0}.BF{fill:#a7a9a9}]]></style><path d="M41.9 123.1c-1-1.4-1.9-3-2.7-4.5-3.1-5.7-5.1-11.8-6.3-18.1a85.61 85.61 0 0 1-.9-7.3c-.1-1.9-.1-3.8-.1-5.7.1-5 .9-9.9 2.2-14.8 1.8-6.4 4.5-12.4 8.3-17.9 2.6-3.9 5.7-7.5 9.1-10.7 4.8-4.4 10.1-8.1 16-10.9 5-2.4 10.3-4 15.8-4.9 2.3-.4 4.6-.6 6.9-.8 1.7-.1 3.4-.1 5.2-.1 3.9.1 7.8.5 11.6 1.4 5.3 1.2 10.4 3 15.3 5.5 1.5.8 3 1.6 4.4 2.5 1 1.5 1.8 3.1 2.7 4.6.7 1.3 1.2 2.6 1.8 3.9.1.2.3.5 0 .8-.3 0-.5-.2-.7-.4-4.9-4.1-10.2-7.2-16.1-9.5-4.5-1.8-9.2-2.9-14.1-3.5-2.1-.3-4.3-.4-6.4-.4-5.3 0-10.6.7-15.7 2.1-7.9 2.2-15 5.9-21.3 11.2-5.9 4.8-10.6 10.7-14.2 17.5-3.1 6-5.1 12.4-6 19.1-.2 1.7-.3 3.4-.4 5-.1 1.8 0 3.6.1 5.4.2 4.2.9 8.4 2.1 12.5 1.7 5.9 4.3 11.5 7.8 16.5l.9 1.5c-1.5-2.2-3.8-8-4.9-12.2-.9-3.4-1.5-6.9-1.8-10.4-.2-2.7-.3-5.4-.1-8.1.2-3.3.7-6.6 1.4-9.9 1.5-6.4 4-12.4 7.6-17.9 2.6-4.1 5.7-7.8 9.3-11.1s7.5-6.1 11.7-8.5c5.1-2.8 10.4-4.7 16.1-5.9 3-.6 6.1-1 9.2-1.1 1.9-.1 3.8 0 5.7 0 3.4.2 6.7.7 10 1.4 4.2 1 8.1 2.4 12 4.3 3.3 1.6 6.5 3.5 9.4 5.8.3.2.6.4.7.7 1.3 4 2.2 8.1 2.7 12.3.3 3.4.6 6.8.3 10.2-.1.7.2 1.5-.2 2.2-.6.3-.5-.2-.6-.5-.3-1.2-.7-2.3-1.3-3.4s-1.3-2.2-2.3-3.1c-2.7-2.7-5.9-4.1-9.8-4.2-2 0-3.9.3-5.7 1.1-.7.3-1.4.6-1.9 1.1-1.1.3-1.8 1.1-2.6 1.9-2.7 2.8-4.1 6.3-4.1 10.2.1 3.1 1 5.8 2.9 8.2 2.2 2.8 5 4.6 8.5 5.2 5.9 1 10.6-1 14.1-5.8.2-.3.3-.8.8-.7.2.3.1.5 0 .8-1.9 7.1-5.1 13.7-9.3 19.7-2.2 3-4.6 5.9-7.2 8.5-4.3 4.1-9.1 7.7-14.3 10.5-4.4 2.3-9 4.1-13.8 5.3-3.1.8-6.2 1.3-9.4 1.6-2.3.2-4.7.4-7 .3-5.8-.2-11.5-1-17.1-2.7-4.9-1.5-9.5-3.6-13.9-6.2-.2.5-.3.4-.4.4z" fill="#ffd053"/><path d="M135.8 75.4c.1-.4.2-.9.2-1.3l.1-5.8-.3-3.9c-.1-.6-.1-1.2-.2-1.9-.2-2.1-.6-4.1-1-6.1-.4-1.9-1-3.8-1.5-5.6 0-.1-.1-.2 0-.4.3-.1.5.1.7.3 3.1 2.5 6 5.3 8.5 8.4.1.1.1.2.2.3.1.2.2.3.4.5-.1-.2-.3-.4-.4-.5-1.8-2.6-3.6-5.2-5.7-7.6-1.4-1.6-2.8-3.2-4.5-4.5-.5-.4-.9-.7-1.2-1.3-.1-.4-.3-.8-.4-1.2-1.2-2.6-2.5-5.1-4-7.5-.1-.2-.4-.3-.1-.5 1.9 1.1 3.6 2.3 5.3 3.6 7.9 6.2 14 13.9 18.3 23 2.3 4.9 3.9 10.1 4.8 15.5.4 2.3.6 4.7.8 7 .1 2 .2 3.9.1 5.9-.1 2.4-.3 4.8-.7 7.1-.6 3.9-1.5 7.7-2.9 11.4-2.4 6.8-6 13-10.6 18.6-5.8 7-12.7 12.4-20.8 16.4-4.8 2.4-9.9 4-15.2 5.1-2.8.5-5.6.9-8.5 1-1.6.1-3.3.1-4.9.1-7.8-.2-15.3-1.8-22.4-4.8-6-2.5-11.4-5.9-16.3-10.1-4.3-3.7-8.1-8-11.3-12.7-.1-.2-.3-.4-.4-.7 0-.2.1-.2.2-.1.5.3 1 .6 1.6.9 3.1 1.7 6.4 3.3 9.8 4.4 3 1.1 6.1 1.9 9.2 2.5 1.6.3 3.2.6 4.8.7.9.1 1.9.2 2.8.2 1.1 0 2.2.2 3.3.2a62.28 62.28 0 0 0 6.1-.3c1.8-.1 3.5-.4 5.2-.7 1.9-.3 3.8-.8 5.7-1.3 2.7-.7 5.3-1.6 7.8-2.7 1.2-.5 2.3-1 3.5-1.6 3.3-1.7 6.6-3.7 9.6-6 1-.8 2.1-1.6 3.1-2.5a62.99 62.99 0 0 0 3.8-3.5l3.5-3.9c1.7-2 3.2-4.2 4.7-6.4.8-1.2 1.4-2.4 2.1-3.6.7-1.3 1.4-2.6 2-4 1.1-2.5 2.1-5 2.8-7.7.2-.5.3-1.1.5-1.6.1-.3.1-.5.1-.8-.2-.2 0-.5.1-.7 1.4-2.5 1.8-5.3 1.6-8.1v-.8c-.1-.2 0-.3 0-.4z" fill="#ffc448"/><g fill="#f9fafa"><path d="M89.8 164.2c-.3.2-.6.2-1 .2-1.9-.1-3.7.1-5.6.2l-3.6.1c-1.6 0-3.2-.3-4.8-.7l-2.9-.6-5.7-1.3-5.8-1.5c-.5-.2-1-.3-1.5-.5l-2.4-.8c-1.1-.3-2.2-.7-3.2-1.2-1.6-.7-3.2-1.3-4.5-2.4l-2.3-1.9c-.3-.3-.7-.5-1.1-.7l-2.6-2.2c-.9-.6-1.7-1.3-2.5-2-.6-.4-1-.9-1.6-1.4l-3-2.5c-.4-.3-.6-.7-1-1l-3.6-3c-1.5-1.5-3.3-2.8-4.6-4.5-.2-.2-.4-.3-.6-.6-.5-.6-.8-1.4-1.2-2.2-.5-1-.7-2.2-1-3.2-.5-1.6-.8-3.2-1.2-4.7-.1-.5-.4-.9-.3-1.4.5 0 .5.4.5.7l1.6 6c0 .1.1.2.2.3.3.3.4.8.4 1.2.4 1.8 1.5 3.1 2.7 4.3l3.2 3 3.8 3.3 4.7 4 5 4c1.1.8 2.1 1.7 3.1 2.6.6.5 1.2 1 1.9 1.4 3.4 2.1 7.2 3.4 11.1 4.5.9.3 1.7.5 2.6.9 1.4.5 2.9.7 4.3 1.1 3.1.9 6.3 1.4 9.4 2 3 .6 6 .5 9 .1h.5c1.9.1 3.8-.1 5.7-.2l6.9-.3c3.4-.2 6.8-.3 10.2-.3.7 0 1.3-.2 1.9-.2.4-.1.8-.1 1.1.1-.2.4-.7.3-1.1.4-1.9.3-3.8.3-5.7.3-2.7-.1-5.4.2-8.1.3-2.1.1-4.2.4-6.4.3-.3-.1-.7-.2-.9 0z"/><path d="M89.8 164.2c0-.1.1-.3.2-.3h.3c2 .1 3.9-.1 5.8-.2 1.5-.1 3 .1 4.4-.3h.2l3.6-.1c.7-.1 1.3.1 2 .1 1.8 0 3.7-.1 5.5-.5.1 0 .1-.1.2-.1 0-.4.4-.4.6-.4l10.7-3.2c3.3-1 6.5-2.1 9.8-2.9.6-.2 1.2-.5 1.8-.6 1.8-.4 3.5-1 5.2-1.9 1.3-.7 2.5-1.4 3.7-2.2 1.8-1.2 3.1-2.7 4.3-4.5 1-1.5 2-3.1 3.1-4.6 1.6-2.3 2.9-4.7 4.6-6.9.9-1.2 1.9-2.3 2.9-3.4 1.1-.9 1.6-2.1 2.5-3.1.2-.2.2-.6.6-.5 0 .3-.1.6-.3.8-.9 1.1-1.7 2.2-2.5 3.3s-1.7 2-2.5 3.1c-1 1.3-1.9 2.7-2.8 4-.7 1.1-1.3 2.2-2.1 3.2-1.1 1.5-1.9 3.1-3 4.5l-.6.9c-.2.4-.5.7-.8 1-.6.4-1 1.1-1.5 1.5-.7.6-1.4 1.1-2.1 1.7-.6.5-1.4.8-2.1 1.2-1.6 1-3.4 1.6-5.2 2.1l-6.8 2c-1.6.5-3.3.9-5 1.5-.6.2-1.2.4-1.8.5-.4.1-.8.3-1.2.4-2.6.7-5.2 1.6-7.8 2.3-1.3.4-2.7.6-4.1.8-1.8.2-3.6.1-5.4.1s-3.6.2-5.4.2c-1.1 0-2.2.1-3.3.1h-.4c-.6.4-1.2.3-1.8.3-1.2.1-2.4.1-3.5.1z"/></g><path d="M83 16c-2-.1-4 .3-5.9.8-2.4.7-4.7 1.5-7 2.5-1.4.6-2.8 1.3-4.1 2.1-.2.1-.3.3-.6 0 .6-.4 1.1-.8 1.7-1 .9-.4 1.8-1 2.8-1.3.9-.3 1.8-.7 2.6-1.1 2.3-1 4.6-1.6 7-2.1.5-.1.9-.4 1.5-.4 1-.1 2-.4 2.9-.2 1.3.2 2.6 0 3.9.3.6.1 1.2 0 1.8 0 .2 0 .5 0 .6.1.4.3.9.2 1.4.3l4.5.3h.1c1.4-.1 2.8.1 4.2.2 1.3.1 2.6 0 3.9.3h.2c1.3-.1 2.6.2 4 .2 1.1 0 2.1.2 3.2.3l2.1.3c.8.1 1.5.4 2.3.6l4.3 1.4 2.9 1.3 1.4.5 4.3 2c.6.3 1 .7 1.6 1 1.8.7 3.3 2 5 2.9 1.4.8 2.2 2.1 3.3 3.1.1.1.1.2.1.4h-.1c-.6-.2-.9-.8-1.3-1.1-.3-.3-.6-.6-1-.7-2.3-1.8-4.8-3.2-7.4-4.5l-8.4-3.9c-2.4-1-4.9-1.8-7.5-2.4-1.8-.4-3.5-.5-5.3-.6l-7.4-.4-3.5-.2-7.1-.4-6.4-.3c-.2-.5-.4-.5-.6-.3z" class="AX"/><path d="M24.3 131.7c-.1-.1-.3-.2-.3-.3l-1.6-6.4c0-.2-.1-.3-.3-.4l-1.4-5.3-.6-1.9c0-.2 0-.4-.1-.6-.2-.3-.3-.7-.4-1.1-.6-1.8-1.1-3.7-1-5.6 0-.4-.1-.7-.2-1.1-.3-1.1-.1-2.2 0-3.2.1-.7.1-1.4.1-2.1l.2-4.5.3-5 .3-5.4.3-5.2.3-5.4c.1-.9.1-1.8.1-2.7 0-.4.1-.7.2-1.1.4-1.6.4-3.3.9-4.9.3-.9.4-1.9 1-2.6l-.7 2.4c-.3 1.2-.6 2.4-.7 3.7l-.3 5.3-.3 5.1-.3 5.2-.3 5-.3 5.2-.3 5.1c-.1 1.1-.1 2.2-.1 3.3a16.28 16.28 0 0 0 .3 3.1v.6c-.1.8.2 1.6.4 2.4 1.1 3.4 2 6.9 3 10.3.2.6.4 1.1.4 1.7.1 1.2.5 2.4.9 3.5 0 .1 0 .2.1.2.1.7.3 1.3.5 2 0 .1.1.4-.1.7z" fill="#f5f5f5"/><path d="M157.4 49.6c.4.3.5.8.8 1.2.8 1.2 1.6 2.6 2.1 4l1.4 4.6 1.1 5.2 1.1 4.9.6 2.9c.9 3 1.4 6.2 2.2 9.2l1.3 5.9c.2.9.5 1.8.5 2.7 0 .1 0 .2.1.3.6 1.4.9 2.9 1.2 4.4.4 2 .3 4 .3 6 0 1-.2 1.9-.4 2.9l-.8 4.3c0 .2-.1.3-.2.4-.4-.2-.2-.6-.2-.9 0-.1 0-.2.1-.2.3-.9.4-1.9.6-2.8 0-.1 0-.1.1-.2.1-.3.1-.5.1-.8 0-.1 0-.1.1-.2.1-.3.1-.5.1-.8 0-.1 0-.1.1-.2.1-.4 0-.8.1-1.1 0-.1 0-.2.1-.2.1-1.2.1-2.3 0-3.5 0-.1 0-.2-.1-.2-.1-.4 0-.8-.1-1.2V96c0-.3 0-.6-.1-.8V95c0-.2 0-.4-.1-.7 0-.1 0-.1-.1-.2 0-.2 0-.5-.1-.7 0-.1 0-.1-.1-.2l-.8-3.1c0-.1 0-.1-.1-.2 0-.4-.1-.8-.3-1.3 0-.1 0-.1-.1-.2 0-.3-.1-.5-.2-.8l-1.8-7.8-2-8.9-1.8-8c-.6-2.7-1.1-5.4-2.1-8-.3-.9-.9-1.7-1.2-2.5-.4-1.1-1.2-2-1.9-3-.3-.4-.8-.7-.7-1.2.5-.2.7.3.9.6-.1.1.1.4.3.8z" class="Ag"/><path d="M164.3 116.7v-.1c.1-.1.1-.2.1-.4v-.1c.2-.1.2.1.3.2v.3c-.1.2-.1.4-.1.6 0 .1 0 .1-.1.2-.1.2-.1.3-.1.5-.6 2.4-2 4.5-3 6.7 0 .1-.1.1-.1.2-.9 1.1-1.4 2.4-2.2 3.5 0 .1-.1.1-.1.2-.6.9-1.4 1.7-2 2.7l-2.2 2.7c-.7.7-1.3 1.6-1.9 2.5l-2.4 3.5-4.6 6.9c-1 1.4-2.1 2.6-3.7 3.4-.7.4-1.4 1-2.2 1.2-.3.1-.6.3-.7-.2h0c.1 0 .1-.1.2-.1 1.6-1 3.2-2.1 4.6-3.4.4-.4.8-.8 1.1-1.3l8.4-12.4c.2-.3.5-.7.8-1 4.1-4.6 7.4-9.6 9.7-15.3 0-.1.1-.1.1-.2.1-.1 0-.2.1-.3v-.1c-.1-.2-.1-.3 0-.4z" fill="#494949"/><path d="M83 16c.1-.4.4-.4.6-.3 1.4.3 2.8-.1 4.1.3h.1c1.4-.1 2.7.1 4.1.2 1.3.1 2.7 0 4 .3h.2c1.5-.1 2.9.1 4.3.2 1.3.1 2.5 0 3.8.3h.2c1.5-.1 3 .2 4.4.2.9 0 1.9.2 2.8.2 1.2.1 2.3.5 3.4.7 1 .2 2 .5 3 .9l5.7 2.3 4.3 2 6.6 3.7c.8.5 1.5 1.2 2.3 1.7l3.1 3.1c.1.1.2.3.2.5 0 .1-.1.1-.2.1-.5-.1-.7-.5-1-.8-.5-.6-1-1.2-1.6-1.6-.1-.1-.2-.1-.2-.2-.1-.1-.1-.2-.2-.2-.2-.3-.4-.5-.6-.6-.1-.1-.2-.1-.2-.2-.1-.1-.2-.1-.2-.2-.2-.2-.5-.3-.8-.5-1.9-1.3-3.9-2.6-6.1-3.5-3.2-1.6-6.5-3.1-9.9-4.4-.8-.3-1.6-.5-2.3-.9-1.4-.5-2.9-.9-4.4-1.3-.1 0-.3-.1-.4 0-1.8-.3-3.6-.4-5.5-.5l-5.6-.3-4.9-.3c-1.2-.1-2.4 0-3.6-.3h-.2c-1.4.1-2.8-.1-4.2-.2-1.2-.1-2.4 0-3.6-.2-.5-.3-1-.2-1.5-.2z" fill="#f1f1f1"/><path d="M154.9 49.3c-.8-.8-1.4-1.8-2.3-2.6-3-2.9-5.9-6-8.9-9-1.1-1.1-2.2-2.3-3.3-3.5-.1-.1 0-.2.1-.2.3 0 .5.2.7.4l13.7 13.9c.1.2.2.4.4.6l.1.1.1.1.1.1s.1.1.1.2.1.1.1.2c1.6 2 2.7 4.2 3.7 6.5.7 2.7 1.3 5.5 1.9 8.2.3 1 .5 2.1.7 3.1.5 2.7 1.3 5.3 1.8 7.9.7 3.4 1.6 6.7 2.3 10.1v.8c0 .1 0 .1.1.2 0 .2.1.4.1.6v.2c0 .2.1.3.1.5 0 .1 0 .2.1.3 0 .3.1.5.2.8 0 .1 0 .1.1.2 0 .2.1.4.1.6v.2c0 .2 0 .4.1.5 0 .1 0 .1.1.2 0 .2.1.4.1.5v.2c0 .2.1.3.1.5v.2c0 .2 0 .3-.2.4-.1 0-.2 0-.2-.1-.5-1.3-.8-2.7-1.1-4.1-.3-1.5-.7-3-1-4.5-.2-1.9-.9-3.7-1.2-5.5-.9-4.5-2-9-3-13.5-.6-2.6-1.1-5.2-1.8-7.7-.5-1.7-1.3-3.4-2.3-4.9-.5-.7-.9-1.4-1.4-2.1 0-.3-.1-.5-.3-.6z" class="AF"/><path d="M162 72.2V72c0-.1 0-.3-.1-.4v-.3c-.1-.2 0-.4-.1-.5v-.1c-.1-.1 0-.3-.1-.5v-.3c-.1-.2 0-.4-.1-.5v-.1c-.1-.2 0-.4-.1-.5v-.2c0-.1 0-.3-.1-.4v-.3c-.1-.2 0-.4-.1-.5v-.1c-.1-.1 0-.3-.1-.5v-.3c-.1-.2 0-.4-.1-.5v-.1c-.1-.2 0-.4-.1-.5v-.2c0-.1 0-.3-.1-.4v-.3c-.1-.2 0-.4-.1-.5v-.1c-.1-.1 0-.3-.1-.5v-.3c0-.1 0-.3-.1-.4v-.3c-.1-.2 0-.4-.1-.5v-.2c0-.1 0-.3-.1-.4V61c-.1-.2 0-.4-.1-.5v-.1c-.1-.1 0-.4-.1-.5v-.3c0-.1 0-.3-.1-.4v-.3c-.1-.2 0-.4-.1-.5v-.2c0-.1 0-.3-.1-.4v-.3c-.1-.2 0-.4-.1-.5v-.1c-.1-.2-.1-.4 0-.5h.2c.1.1.1.2.2.4 0 .1.1.2.1.3s0 .2.1.3c0 .1 0 .1.1.2 0 .1.1.2.1.3s0 .2.1.3c0 .1.1.2.1.4 0 .1 0 .2.1.4 0 .1 0 .2.1.4 0 .1 0 .2.1.3 0 .1.1.2.1.4 0 .1.1.3.1.4s0 .3.1.4c0 .1 0 .2.1.3 0 .1.1.3.1.4s.1.3.1.4 0 .3.1.4c0 .1 0 .2.1.3a.9.9 0 0 0 .1.5c0 .1 0 .2.1.3a.9.9 0 0 0 .1.5c0 .1 0 .2.1.3 0 .1.1.2.1.4 0 .1 0 .2.1.3 0 .1.1.2.1.4 0 .1.1.2.1.4 0 .1 0 .2.1.4v.2c0 .1 0 .2.1.4 0 .1 0 .1.1.2 0 .2.1.3.1.4s0 .2.1.3a.9.9 0 0 0 .1.5c0 .1 0 .2.1.3 0 .1.1.2.1.4 0 .1 0 .2.1.3a.9.9 0 0 0 .1.5c0 .1 0 .2.1.3 0 .1.1.2.1.4 0 .1.1.2.1.3s.1.3.1.4.1.3.1.4a.9.9 0 0 0 .1.5c0 .1 0 .2.1.3 0 .1.1.3.1.4s0 .2.1.3a.9.9 0 0 0 .1.5c0 .1 0 .2.1.3 0 .1.1.2.1.4 0 .1 0 .2.1.3 0 .1.1.2.1.4 0 .1.1.3.1.4v.4c0 .1 0 .1.1.2 0 .1.1.2.1.3s0 .2.1.3c0 .1.1.2.1.4 0 .1 0 .2.1.3a.9.9 0 0 0 .1.5c0 .1 0 .2.1.3 0 .1.1.3.1.4s0 .2.1.3a.9.9 0 0 0 .1.5c0 .1.1.3.1.4s0 .3.1.4c0 .1 0 .2.1.3 0 .1.1.2.1.4 0 .1.1.2.1.3s.1.3.1.4.1.3.1.4.1.3.1.4c.3 1 .4 2 .8 2.9l1.9 8.1c.9 2.8 1.2 5.7 1.1 8.6-.1 1.7-.5 3.3-.7 5l-.4 2.4c-.1.4-.1.8-.4 1.2-.1.1-.1.1-.2.1-.4-.5 0-1-.1-1.5 0-.1 0-.2.1-.2.2-.4.2-.8.3-1.2 0-.1 0-.2.1-.2.1-.6.3-1.2.2-1.8.2-2 .6-4 .5-6l-.2-2.5V97c0-.1-.1-.1-.1 0-.2-.6-.2-1.3-.4-2l-1.7-7-1.1-4.9c0-.2 0-.4-.1-.5 0-.1 0-.3-.1-.4v-.3c-.1-.2 0-.4-.1-.5v-.1c-.1-.1 0-.3-.1-.5v-.3c0-.1 0-.3-.1-.4v-.3c-.1-.2 0-.4-.1-.5v-.2c0-.1 0-.3-.1-.4v-.3c-.1-.2 0-.4-.1-.5v-.1c-.1-.1 0-.4-.1-.5V77c-.1-.2 0-.4-.1-.5v-.1c-.1-.2 0-.4-.1-.5v-.1c-.1-.1 0-.3-.1-.5V75c-.1-.2 0-.4-.1-.5v-.1c-3.4-1.8-3.3-2-3.4-2.2z" fill="#6b6c6c"/><path d="M139.3 151.2c.1.2.3.2.5.1.7-.4 1.5-.6 2-1.2.1-.1.2-.1.4-.1 0 .6-.5.8-.9 1-1.9 1.1-3.9 2.1-6 2.6-1 .3-2 .4-2.9.9l-6 1.8-9.2 2.8-4.7 1.4c-.3.1-.6 0-.9.1-.1 0-.1 0-.2.1-.2 0-.4.1-.6.1h-.2c-.3 0-.7 0-1 .1-.1 0-.2 0-.2.1-.4 0-.9.3-1.2-.3h.3c.3-.2.7.1 1-.1 7.9-2 15.5-4.6 23.3-6.8 1.9-.5 3.8-1.1 5.6-1.9.2-.4.5-.5.9-.7z" fill="#4e4d4d"/><path d="M108 160.6c.4.3.9.1 1.4.2-.1.5-.5.4-.8.4h-3c-2.1-.1-4.1.2-6.2.2-.2 0-.4 0-.5.1l-4 .2-8.6.4-4.3.2a9.71 9.71 0 0 1-3.4 0c-.2 0-.5 0-.6-.3.5-.3 1.1 0 1.6-.2l6-.3 15.7-.8c1 0 2-.1 3 0l3.7-.1z" class="Ao"/><path d="M167.2 95.4c.1-.2 0-.4.1-.5.4 1.9.4 3.8.4 5.7 0 .8-.2 1.7-.4 2.5-.1.3-.1.7-.1 1-.2.6-.2 1.3-.3 1.9h0c-.2.4-.1.9-.3 1.3h0c0 .6-.3 1.2-.2 1.8v.3l-.8 4.8c0 .2-.1.4-.2.6-.2.4-.3.8-.4 1.2-.1.2-.1.5-.4.5 0-.1 0-.2-.2-.3l1-5.9 1.7-9.8c.2-.9.1-1.9.1-2.8.1-.9.1-1.6 0-2.3z" class="Ah"/><path d="M154.9 49.3c.2-.2.3 0 .4.1.3.5.8.8 1 1.4.4.7.9 1.3 1.3 2 1.2 2.3 2 4.7 2.5 7.2l2.5 11.1 2.2 9.4.6 2.3c.1.3.1.5.1.8-.4 0-.3-.4-.5-.6-.6-2.1-1-4.3-1.5-6.5l-1.6-7.2-2.5-11c-.4-1.9-1.3-3.7-2.1-5.4 0-.1-.1-.2-.2-.2l-1.8-3c0-.1-.1-.1-.1-.2-.3-.1-.3-.2-.3-.2z" class="Ap"/><path d="M168.5 108.4c.3-.8.5-1.7.6-2.5.1-.7.1-1.5.5-2.2.1.6-.1 1.3-.2 1.8-.3 1.2-.3 2.4-.6 3.5-.2.7-.4 1.5-.5 2.2l-.7 4.2c-.2 1.3-.5 2.6-.9 3.8l-1.6 4c-.1.3-.4.5-.6.8-.6 1-1 2.1-1.8 3.1-.3.4-.4 1-.9 1.3l-1.7 2.2c-.4.5-.7 1.1-1.3 1.5-.1-.1-.1-.2-.1-.3.1-.3.4-.5.6-.8.1-.1.1-.2.2-.2.1-.1.2-.3.3-.5.2-.4.5-.7.7-1 .2-.2.3-.4.4-.7 0-.1.1-.2.2-.3s.1-.2.2-.3.1-.2.2-.2c.8-1.2 1.7-2.4 2.2-3.8l.6-1.3c.1-.2.3-.4.4-.6 0-.1 0-.1.1-.2 0-.1.1-.2.1-.2 0-.1.1-.1.1-.1 0-.1.1-.2.1-.2 0-.1 0-.1.1-.2s.1-.3.2-.4c.1-.2.2-.5.3-.7.2-.4.3-.8.4-1.2l.3-1.1c.3-.4.2-.9.4-1.4l1.2-6.5c.2-.5.3-.9.5-1.5 0 .1 0 .1 0 0z" fill="#f8f9f9"/><path d="M22.7 125.2c0-.6-.3-1.1-.4-1.7l-.7-2.6-.7-2.7c-.3-1.4-1-2.6-1.3-3.9l-.6-3c0-.2-.1-.5.1-.6.2 1.1.4 2.2.9 3.2.6 1.5 1 3.2 1.4 4.8l2.5 9.2 1.3 4.7c-.1.2.1.4-.2.5-.3-.3-.3-.7-.4-1l-.9-3.2h0l-1-3.7z" fill="#e5e5e5"/><path d="M79.6 161.7c-.4.3-.9 0-1.4.2 1.1.3 2.4.3 3.5.2l2.4-.2 5.5-.2 3.1-.1c1.3-.2 2.5 0 3.8-.2.8-.1 1.5-.1 2.2-.1.9-.1 1.9-.1 2.8 0-.1.5-.4.4-.7.4l-3.3.1-5.5.2-6.8.4c-2.1.1-4.2.4-6.3.2-.2 0-.4-.1-.6-.1s-.3 0-.5-.1-.4-.1-.6-.2c-.1 0-.1 0-.2-.1-.2-.1-.3-.1-.5-.1s-.3 0-.5-.1c-.1 0-.3-.1-.4-.1-.2 0-.3 0-.5-.1-.1 0-.3-.1-.4-.1s-.3 0-.4-.1c-.1 0-.3-.1-.4-.1s-.3 0-.4-.1c-.1 0-.3-.1-.4-.1-.2 0-.3 0-.5-.1-.1 0-.2-.1-.3-.1s-.3-.1-.4-.1-.2-.1-.4-.1c-.1 0-.2 0-.3-.1-.2 0-.3-.1-.5-.1-.1 0-.3 0-.4-.1-.1 0-.3-.1-.4-.1s-.2 0-.3-.1c-.1 0-.2-.1-.4-.1-.1 0-.3 0-.4-.1-.1 0-.2-.1-.4-.1-.1 0-.2 0-.3-.1s-.2-.1-.3-.2v-.2a.45.45 0 0 1 .5 0h.1c.1.1.4 0 .5.1h.3c.1.1.3 0 .5.1l3.7.7 4.1.7c.8.7 1.4.6 2.1.6z" fill="#646464"/><path d="M26.8 134.5l3.2 3 5.4 4.7 3.6 3.2c.7 1 1.8 1.5 2.7 2.3.2.2.8.3.6.9-.3.2-.5-.1-.7-.2-1.6-1.1-2.9-2.4-4.3-3.7l-5.2-4.5c-1.8-1.5-3.4-3.2-5.1-4.8-.4-.5-.4-.5-.2-.9z" class="Aq"/><path d="M156.9 52.6c.2-.2.3 0 .3.1l1.5 3.2c.8 1.9 1 3.9 1.5 5.9l.8 3.5 1.1 4.7.9 3.8c.4 1.4.7 2.9 1 4.3l1.1 4.8a1.1 1.1 0 0 1 0 .8c-.3-.4-.4-.8-.5-1.2l-.3-1.7c-.1-.1-.1-.2-.2-.3V80c-.1-.1-.1-.2-.2-.3v-.3c-.1-.1-.1-.2-.2-.3v-.3c-.1-.1-.1-.2-.2-.3V78c-.1-.1 0-.3-.2-.5v-.3c-.1-.1-.1-.2-.2-.3v-.3c-.1-.1 0-.3-.2-.5v-.3c-.1-.1-.1-.2-.2-.3v-.3c-.1-.1-.1-.2-.2-.3h0c-.1-.1 0-.3-.2-.5v-.5c-.1-.1-.1-.2-.2-.3v-.3c-.1-.1-.1-.2-.2-.3v-.3c-.1-.1 0-.3-.2-.5v-.3c-.1-.1-.1-.2-.2-.3v-.3c-.1-.1 0-.3-.2-.5v-.5c-.1-.1-.1-.2-.2-.3v-.3c-.1-.1-.1-.2-.2-.3v-.3c-.1-.1 0-.3-.2-.5v-.3c-.1-.1-.1-.2-.2-.3v-.3c-.1-.1 0-.3-.2-.5v-.3c-.1-.1 0-.3-.2-.5h0c-.1-.1 0-.3-.2-.5v-.2c-.1-.1-.1-.2-.2-.3v-.5c-.1-.1-.1-.2-.2-.3v-.3c-.1-.1-.1-.2-.2-.3v-.3c-.1-.1 0-.3-.2-.5v-.3c-.1-.1 0-.3-.2-.5v-.3c-.1-.1-.1-.2-.2-.3v-.5c-.1-.1-.1-.2-.2-.3v-.3c-.1-.1-.1-.2-.2-.3v-.5c-.1-.1-.1-.2-.2-.3v-.3c-.1-.1-.1-.2-.2-.3v-.5c-.1-.1-.1-.2-.2-.3v-.3c-.1-.1-.1-.2-.2-.3h0c-.1-.1-.1-.2-.2-.3V57c-.1-.1-.1-.2-.2-.3v-.2l-.2-.2c0-.1 0-.1-.1-.2 0 .1 0 .1-.1.2-.1-.2-.1-.3-.1-.5 0 0 .1-.1 0-.1-.1-.1 0 0-.1 0-.1-.1-.1-.2-.1-.4.1 0 .1-.1 0-.1h-.1c-.1-.1-.1-.2-.1-.3h0c-.1-.1-.1-.2-.1-.3s0-.1-.1-.1c-.2-.2-.2-.4-.3-.6-.1-.1 0-.2-.1-.3h0c-.1-.1-.1-.2-.1-.3v-.1c0-.1-.1-.1-.1-.2l1.5-.4z" fill="#787878"/><path d="M26.8 134.5c-.2.4.1.5.3.7l3.2 3.2 2.9 2.6 3.4 2.9c.9.7 1.7 1.5 2.5 2.2 1 .9 2 1.7 3.1 2.4h.1c.2.1.4.3.7.5.1 0 .1.1.2.1l2.6 2.1c.1.1.2.3.1.4-.5.1-.8-.2-1.1-.5l-7-5.8c-.1-.1-.2-.1-.2-.2-.1-.1-.3-.3-.5-.4l-.2-.2-.3-.3-.2-.2-.2-.2-.2-.2c-.1-.1-.2-.1-.3-.2s-.2-.1-.2-.2l-.2-.2-.2-.2c-.1-.1-.2-.2-.4-.3l-.2-.2-.3-.3c-.1-.1-.2-.1-.2-.2-.1-.1-.3-.3-.5-.4-.1-.1-.2-.1-.2-.2l-.2-.2-.2-.2-.2-.2-.3-.3c-.1-.1-.1-.2-.2-.3s-.2-.1-.3-.2c-.1 0-.1-.1-.2-.2l-.2-.2c-.2-.2-.4-.4-.6-.5-.1-.1-.2-.1-.2-.2l-.2-.2-.2-.2-.2-.2c-.3-.3-.6-.7-1-.9-.1-.1-.2-.1-.2-.2l-.2-.2-.2-.2-.2-.2c-.1-.1-.1-.2-.2-.2-.3-.4-.7-.8-1.1-1.2l-.2-.2-.2-.2-.2-.2c-.1-.1-.1-.2-.2-.3s-.2-.3-.3-.4l-.2-.2c-.1-.1-.1-.2-.2-.4 0-.1 0-.2.1-.3h.2 0c0 .1.1.1.2.2h0l.2.2c.2.8.4 1.1.6 1.3z" class="AY"/><path d="M68.5 160c-.2 0-.4 0-.5.2-.3.2-.7 0-1.1 0-.2 0-.4 0-.6-.1s-.5-.1-.7-.2l-1.1-.3-6.1-1.8a.76.76 0 0 1-.4-.2c-.1 0-.1 0-.2-.1-.1 0-.3-.1-.4-.1s-.2 0-.3-.1l-2.1-.8c-.2-.1-.4-.1-.5-.3-.1-.3 0-.4.3-.3h.1c.1.1.2 0 .3.1l6.3 1.9 6.7 1.7c.1.3.2.3.3.4z" class="Ai"/><path d="M116.8 18.9c1.6.5 3.1 1.2 4.6 1.8 1.9.7 3.6 1.6 5.4 2.4.7.3 1.5.6 2.1 1.1v.2c-.8 0-1.3-.6-2-.9-.9-.4-1.8-1-2.8-1.2-2.8-1.3-5.5-2.5-8.4-3.4 0-.3.2-.3.4-.2s.5.1.7.2z" class="AL"/><path d="M157.4 49.6c-.3-.2-.6-.5-.8-.8s-.4-.6-.8-.7c-.1.1-.2 0-.3-.1-.1-.3-.4-.5-.7-.7-.1 0-.1-.1-.1-.1-.6-.7-1.2-1.3-1.9-1.9-.1 0-.1-.1-.2-.1a13.65 13.65 0 0 0-1.7-1.7c-.1 0-.1-.1-.2-.2-.6-.7-1.2-1.3-1.9-1.9-.1 0-.1-.1-.2-.2-.4-.6-.9-1-1.4-1.5-.2-.3-.5-.5-.5-.9v-.1c.2 0 .4.1.6.3l3.4 3.6c.7.6 1.4 1.2 2 1.9.5.6 1 1.1 1.6 1.7.2.2.5.4.8.7 1.1.7 1.9 1.5 2.3 2.7z" class="AX"/><path d="M42.2 148.6c0-.3-.3-.4-.5-.6l-2.7-2.2c-.1-.1-.3-.2-.1-.4 1.3.9 2.5 2 3.7 2.9l6.2 5c0 .2.1.3-.2.4-1.1-.6-2-1.5-3-2.4l-2.8-2.2h0c-.1-.1-.3-.3-.6-.5h0z" class="AM"/><path d="M124.1 22.4c.2-.3.5-.1.7 0 1.2.5 2.4 1.1 3.5 1.7.2.1.4.2.6.2 1.2.2 2.1 1.1 3.2 1.6.6.3 1.1.7 1.7 1 .3.2.6.3.7.7-.3.2-.4 0-.7-.1-.7-.4-1.4-1-2.2-1.3l-5-2.7-2.5-1.1z" fill="#d7d6d6"/><path d="M139.1 30.6c.3.1.6.3.8.5 1.3 1.3 2.4 2.8 3.9 4 .6.5 1.2 1 1.6 1.7.2.3.5.6.8.8.2.2.4.3.4.6h-.1c-.3-.1-.5-.3-.7-.5l-6-6.1c-.3-.3-.5-.6-.7-1 0 .1 0 .1 0 0z" class="AX"/><path d="M54.8 156.1c-.1 0-.3.1-.1.2l.6.3c.7.2 1.4.4 2 .8-.1.1-.2.1-.3.2-.3 0-.6-.1-.9-.2-1.5-.5-2.8-1.1-4.2-1.8-.4-.3-.8-.4-1.2-.7-.1-.1-.3-.1-.4-.2s-.1-.2-.2-.3c.1-.2.2-.2.3-.1h0c.1.1.2.1.3.2h0c.1.1.2.1.3.2 1.3.3 2.5.9 3.8 1.4z" class="Ar"/><path d="M138.8 32.7l-4.1-4.2c.2-.2.3-.1.5 0 .1.1.3.2.4.3.1 0 .1.1.2.1l2.7 2.7c.2.2.4.5.5.8.1.2 0 .3-.2.3z" class="AF"/><path d="M20.1 117.4c.3.1.4.4.5.7l1.3 4.9c.1.5.4 1 .3 1.6-.2-.2-.3-.4-.3-.7-.2-1.1-.5-2.2-.8-3.4-.2-.7-.3-1.4-.7-2-.3-.3-.4-.8-.3-1.1z" fill="#f9fafa"/><path d="M135.2 28.6c-.2-.1-.3-.2-.5-.2-1-.7-1.9-1.5-2.9-2-.1 0-.1-.1-.2-.1.1-.2.2-.1.4 0l2.4 1.4c.2-.1.3 0 .4.1.2.2.5.4.8.5.2.2.5.3.4.7-.1.1-.2 0-.3 0h0c-.1-.2-.3-.3-.5-.4z" fill="#c6c6c6"/><path d="M116.8 18.9c-.2 0-.5 0-.7-.1-.1-.1-.3-.1-.4.1l-3.8-1.1c.4-.4.9-.1 1.2 0l3.4.9c.2.1.2.2.3.2z" fill="#e8e8e8"/><path d="M138.8 32.7c.1-.1.2-.2.2-.3.8.3 1.3.9 1.6 1.7l-.2.2c-.6-.5-1.1-1-1.6-1.6z" fill="#b1b2b2"/><path d="M50.4 154.2c-.1 0-.2 0-.3.2l-.1.1h-.2c-.1 0-.1 0-.2-.1a1.38 1.38 0 0 0-.4-.3c-.1 0-.1-.1-.1-.1l-.1-.1v-.1c0-.1-.2-.2 0-.3l1.4.7z" class="As"/><path d="M25.1 133c0-.2 0-.4.2-.5.1.1.1.2.2.3v.1c0 .1 0 .2.1.2 0 0 0 .1.1.2v.2.2c0 .1.1.1.1.2s0 .1.1.2c0 .1.1.1.1.2v.2c0 .1-.1.2-.2.1-.6-.5-.9-1-.7-1.6z" class="AZ"/><path d="M158.3 56.2c0-.1 0-.2.1-.2.1-.1.1 0 .1.1s.1.2.1.4c-.2.1-.1.3-.2.5-.1-.3-.1-.6-.1-.8z" class="AE"/><path d="M25.4 133.3v-.2s-.1-.1 0-.1v-.1h.2c.1.1.1.2.2.3v.1.1.3s-.1 0-.1.1c0 0-.1 0-.1-.1v-.2c-.2 0-.1-.1-.2-.2z" class="Aa"/><path d="M109.3 160.5c-.3.3-.7.1-1 .1.3-.2.7-.1 1-.1z" class="Ao"/><g class="AE"><use xlink:href="#A"/><path d="M158.5 57.1c.2.1.1.3.1.5-.1-.2-.1-.4-.1-.5zm.3 1.4c.2.1.1.3.1.5 0-.2-.1-.4-.1-.5zm.4 1.4c.2.1.1.3.1.5-.1-.2-.2-.4-.1-.5z"/><use xlink:href="#B"/><use xlink:href="#B" x=".3" y="1.4"/><path d="M159.9 63.3c.2.1.1.3.1.5 0-.2-.1-.3-.1-.5z"/><use xlink:href="#B" x=".8" y="3.4"/><use xlink:href="#B" x="1.1" y="4.8"/><path d="M160.6 66c.2.1.1.3.1.5-.1-.2-.2-.4-.1-.5z"/></g><path d="M69.9 160.3c-.2 0-.4 0-.5-.1.2 0 .4 0 .5.1z" class="Ai"/><use xlink:href="#B" x="1.4" y="6.2" class="AE"/><path d="M69.2 160.1c-.2 0-.4.1-.5-.1.1 0 .3 0 .5.1z" class="Ai"/><g class="AE"><use xlink:href="#A" x="-1.7" y="-7.5"/><use xlink:href="#A" x="-1.4" y="-6.1"/><use xlink:href="#B" x="2" y="8.9"/><use xlink:href="#A" x="-1.1" y="-4.7"/><path d="M161.7 70.8c.2.1.1.3.1.5-.1-.1-.2-.3-.1-.5zm.3 1.4c.2.1.1.3.1.5-.1-.1-.2-.3-.1-.5z"/><use xlink:href="#B" x="2.8" y="12.3"/><use xlink:href="#B" x="3" y="13.1"/><use xlink:href="#B" x="3.1" y="13.7"/><path d="M162.8 75.6c.2.1.1.3.1.5-.1-.1-.2-.3-.1-.5z"/><use xlink:href="#A" x=".3" y="1.4"/><use xlink:href="#A" x=".6" y="2.8"/><use xlink:href="#A" x=".9" y="4.2"/><use xlink:href="#B" x="4.4" y="19.2"/></g><path d="M157.1 53c.1.1.2.2.1.3 0-.1-.1-.2-.1-.3zm.2.3c.1.1.2.2.1.3-.1-.1-.1-.2-.1-.3z" class="Ap"/><path d="M163.8 80.5c.1.1.1.2.1.4-.1-.1-.1-.3-.1-.4z" fill="#787878"/><path d="M163.4 78.5c.1.1.1.2.1.4-.1-.2-.1-.3-.1-.4z" class="AE"/><path d="M164.4 116.2c0 .1 0 .3-.1.4 0-.2 0-.3.1-.4zm-.1.5c0 .1 0 .2-.1.3-.1-.1 0-.2.1-.3z" class="Ah"/><path d="M163.1 77c.1.1.1.2.1.4-.1-.1-.2-.2-.1-.4z" class="AE"/><path d="M164.1 117.2c0 .1 0 .2-.1.3 0-.1 0-.2.1-.3z" class="Ah"/><path d="M55.2 156.2c-.1 0-.2 0-.3-.1.1 0 .2.1.3.1z" class="Ar"/><path d="M161.8 71.6c.1.1.1.2.1.4-.1-.1-.1-.3-.1-.4zm-.8-3.5c.1.1.1.2.1.4-.1-.1-.1-.2-.1-.4zm-2.8-12.6c.2 0 .1.1 0 .1v-.1zm2.1 9.2c.1.1.1.2.1.4-.1-.1-.2-.2-.1-.4z" class="AE"/><path d="M51 154.5c-.1 0-.2 0-.3-.2.1.1.2.1.3.2zm-.3-.1c-.1 0-.2 0-.3-.2.1 0 .2.1.3.2z" class="As"/><path d="M159.8 62.7c.1.1.1.2.1.4-.1-.2-.1-.3-.1-.4zm-.3-1.4c.1.1.1.2.1.4-.1-.2-.1-.3-.1-.4zm-.5-2.1c.1.1.1.2.1.4-.1-.1-.1-.2-.1-.4zm-.3-1.4c.1.1.1.2.1.4-.1-.1-.1-.2-.1-.4z" class="AE"/><path d="M139.4 151.1c0 .1-.1.1-.2.1.1-.1.2-.1.2-.1z" fill="#4e4d4d"/><path d="M139 30.5l.2.2c-.2 0-.3-.1-.2-.2z" class="AX"/><path d="M26.1 133.8l-.2-.2c.1.1.2.1.2.2z" class="AI"/><path d="M26 133.6l-.2-.2.2.2z" class="AZ"/><path d="M25.7 133.4v-.2c0 .1.1.1.1.2h-.1z" class="AI"/><path d="M25.5 133h-.1s-.1-.1 0-.1v-.1c0 .1.1.1.1.2z" class="AZ"/><path d="M131.6 26.3c.1 0 .1.1.2.1-.1 0-.1-.1-.2-.1z" fill="#d7d6d6"/><g class="AX"><path d="M146.6 38.3l.2.2h-.1c-.1-.1-.1-.1-.1-.2z"/><path d="M146.8 38.5l.2.2c-.2 0-.2-.1-.2-.2h0z"/></g><path d="M154.9 49.4c0 .1.1.1.1.2 0-.1 0-.1-.1-.2z" class="AF"/><path d="M157 52.7c.1 0 .1.1.1.2-.1-.1-.1-.1-.1-.2z" class="Ap"/><path d="M157.7 54.2c.1 0 .2 0 .1.1s-.1 0-.1-.1zm.3.8c.1 0 .2 0 .1.1-.1 0-.1 0-.1-.1z" class="AE"/><path d="M131.3 46l4.2 4c2.6 2.8 4.9 5.8 7 9 .1.1.1.3.2.4.1.2 0 .2-.2.2-1.7-2-3.4-4-5.4-5.7-1.3-1.2-2.5-2.4-4-3.3-.3-.4-.8-.7-1.2-1-1.7-1.3-3.5-2.5-5.3-3.5-1.1-.6-2.2-1.3-3.3-1.8-1.9-.9-3.8-1.7-5.8-2.5-3.3-1.2-6.7-2-10.1-2.7-1-.2-2-.3-3-.4a37.08 37.08 0 0 0-4.7-.3c-.9 0-1.7-.2-2.6-.1-1.3.2-2.7.1-4 .2-1.5.2-3 .3-4.5.5-1.7.3-3.5.7-5.2 1.1-3.3.8-6.4 2-9.4 3.4-3 1.3-5.8 3-8.5 4.8-1.6 1.1-3.1 2.2-4.6 3.5a65.1 65.1 0 0 0-5.4 5.1c-2.6 2.8-4.8 5.8-6.8 9-1.2 1.9-2.2 3.9-3.2 6-.6 1.3-1.1 2.6-1.6 3.9-.8 2.1-1.4 4.2-1.9 6.3-.4 1.8-.8 3.7-1.1 5.6-.2 1.6-.3 3.3-.5 4.9-.1 1.6-.2 3.3-.1 4.9.1 1.3.1 2.6.2 3.9.2 1.3.3 2.5.5 3.8.3 2.1.8 4.2 1.3 6.2.6 2.1 1.2 4.1 2.1 6 .9 2.1 1.7 4.1 2.9 6 0 .1.1.2.1.3-.2.1-.2 0-.2-.1-2.3-3.1-4.3-6.4-5.9-9.9-1.3-2.9-2.4-5.8-3.2-8.8-.5-1.6-.8-3.3-1.2-5-.2-1.3-.4-2.6-.5-3.8a43.21 43.21 0 0 1-.3-5c0-.6-.2-1.3-.1-1.9.3-1.4 0-2.9.3-4.3.2-1 .2-2.1.3-3.2.2-1.6.5-3.1.8-4.7.5-2.4 1.2-4.7 2-7 1.1-3 2.4-5.9 4-8.7 1.3-2.4 2.9-4.7 4.5-6.9 1-1.3 2-2.5 3.1-3.8.7-.7 1.3-1.5 2-2.2 2.1-2 4.3-3.9 6.6-5.6 3.2-2.3 6.5-4.3 10.1-5.9 3.7-1.7 7.6-3 11.6-3.8 1.6-.4 3.3-.6 5-.9.7-.1 1.4-.1 2.1-.2 1.4-.2 2.8 0 4.3-.2.7-.1 1.5-.1 2.3.1.6.1 1.1.1 1.7.1 1.5 0 3 .2 4.6.4 1.1.1 2.1.3 3.1.5 1.6.3 3.1.7 4.6 1.1 2.2.6 4.4 1.3 6.6 2.2 2.5 1 4.9 2.2 7.2 3.6s4.5 2.9 6.7 4.6c.6.5 1.2 1 1.8 1.6z" fill="#ffd77a"/><path d="M135.8 75.4v.3c.1.3 0 .6.1.8 0 1.6.1 3.1-.3 4.7-.3 1.2-.7 2.4-1.3 3.6l-.3.6c-.7.9-1.3 1.9-2.1 2.7-2.5 2.5-5.5 3.9-9 4.2-7.4.6-14-4.5-15.2-11.8-.7-4.4.4-8.3 3.3-11.7.7-.9 1.6-1.6 2.5-2.3.2-.2.4-.4.7-.3.1.2 0 .4-.1.6-.5 1.4-.1 2.6.9 3.7s2.1 1.8 3.5 2.3c3.3 1.2 6.6 1.3 9.9.1.7-.3 1.3-.6 1.8-1.1.9-.7 1.4-1.6 1.4-2.8 0-.3 0-.6.2-.8.3 0 .4.3.6.4 1.6 1.9 2.7 4 3.2 6.4.1.2.2.3.2.4zm-59.3-7.1c1.9 2.1 3.2 4.5 3.7 7.3.7 4.3-.3 8.1-3 11.5-2.3 2.9-5.4 4.6-9 5.1-3.9.5-7.5-.4-10.6-2.8-3.2-2.4-5.1-5.7-5.5-9.6-.6-5.6 1.5-10.1 6.1-13.4.2-.1.3-.4.6-.2.1.5-.3.9-.3 1.3-.2 1.6.5 2.8 1.7 3.8 1.9 1.6 4.3 2.3 6.7 2.5 2 .2 3.9 0 5.8-.7 1.1-.4 2-1 2.7-1.9.6-.7.8-1.6.8-2.5 0-.2 0-.4.3-.4z" fill="#fff"/><path d="M97.7 96.5c5.2 0 9.7 1 13.9 3.2 1.9 1 3.7 2.2 5.2 3.7.3.3.5.5.6.9.3 1.1-.6 2-1.8 1.8-1-.2-2-.4-3.1-.5-4.2-.7-8.5-.9-12.8-.6-6 .4-11.7 1.9-17.2 4.1-3.2 1.3-6.3 2.8-9.3 4.4-.3.1-.6.3-.9.4-.6.2-1.1.1-1.6-.4-.4-.5-.6-1-.3-1.6.2-.5.5-.9.8-1.3 2.8-4.2 6.4-7.4 10.8-9.8a31.5 31.5 0 0 1 11.9-3.9c1.5-.3 2.9-.4 3.8-.4z" fill="#654735"/><path d="M76.3 68.6c.1 1.6-.6 2.7-1.9 3.6-1.1.8-2.2 1.2-3.5 1.4-3.2.6-6.3.3-9.2-1.2-1-.5-1.8-1.1-2.5-1.9-1.1-1.3-1.5-3-.5-4.5.2-.3.5-.4.8-.6 5.3-2.8 12-2 16.6 2.5.3.3.1.5.2.7zm55.6-.4c.3 1.7-.4 3-1.7 4-1.4 1-3 1.5-4.7 1.7-2.8.3-5.5-.1-8-1.4-.9-.4-1.7-1-2.4-1.7-1.3-1.4-1.5-2.8-.7-4.6.2-.3.5-.5.8-.7 5.3-2.8 11.9-1.9 16.3 2.1.1.2.3.4.4.6z" fill="#2c2c2c"/><path d="M76.3 68.6c-.2-.2-.1-.4-.2-.6.2 0 .3.1.3.3-.1.1-.1.2-.1.3z" fill="#e4d2b0"/><path d="M142.6 59.5l.2-.2c.2.3.5.6.6 1-.5-.1-.6-.5-.8-.8z" fill="#ffcf66"/><path d="M136 76.4c-.2-.2-.1-.5-.1-.8.2.3.1.6.1.8z" fill="#ffd053"/><path d="M135.1 155.8l-3.6 1.1-2.5.7-4.7 1.5-3.3.9-3.3 1-5.7 1.7-.1.1c-.7-.1-1.3.1-2 .2-.4.1-.9.1-1.3.1h-3.3c-1.9-.1-3.7.2-5.6.2l-3.3.1c-1.2.1-2.4 0-3.6.2-1 .1-2.1 0-3.1.1-1.3.2-2.6 0-3.9.2-1.7.2-3.3.2-5 .3-.9.1-1.9 0-2.8-.1l-2.4-.4-4.9-.9-3.7-.9c-1.3-.4-2.6-.6-3.8-.9-.3-.1-.5-.1-.7-.3.2-.2.5-.1.8-.1l6.4 1.6 1.2.3 2.6.5c2.9.7 5.8 1 8.7.8l7.9-.4c.6-.1 1.2 0 1.8-.1.5 0 1.1.1 1.6-.1.6-.1 1.2 0 1.8-.1.5 0 1.1.1 1.6-.1.6-.1 1.2 0 1.8-.1.5 0 1.1.1 1.6-.1.6-.1 1.2 0 1.8-.1.5 0 1.1.1 1.6-.1.3-.1.6-.1 1 0 1.1.2 2.2.1 3.4 0 3.8-.1 7.3-1.6 10.9-2.5.5-.1 1.1-.4 1.6-.6.6-.2 1.2-.2 1.7-.5 1.6-.6 3.3-1 4.9-1.5l3.2-.9c.4 0 .8-.1 1.1-.3.3-.1.6-.2.8-.3.4-.1.7-.2 1.1-.3s.7-.2 1.1-.3c.2-.1.4-.1.7-.2.2-.1.5-.1.7-.2.2 0 .4 0 .6.1-.2.6-.9.5-1.4.7z" fill="#eeefef"/><path d="M71 162.5c-.8 0-1.5-.2-2.2-.4l-3-.8-2.7-.6h-.5c-1.5-.3-2.9-.9-4.4-1.3-2.4-.6-4.7-1.7-7-2.7-.8-.3-1.5-.9-2.2-1.3l-4.8-3.9-4.7-3.8c-1.4-1.1-2.7-2.4-4.1-3.6l-5-4.3c-.2-.2-.4-.3-.4-.5 0-.1.1-.2.2-.2s.2.1.3.1l.2.2h.1.1l.1.1h.1l.1.1.1.1.1.1.1.1.1.1.1.1c.2.2.4.4.6.5.1 0 .1.1.2.1 0 .1.1.1.1.1s.1 0 .1.1c.1 0 .1.1.2.1l.1.1.5.5c.1 0 .1.1.2.1l.1.1.1.1.1.1.1.1.1.1.1.1c.1 0 .1.1.2.1l.1.1c.1.1.2.2.2.3l.1.1.1.1s.1 0 .1.1c.1 0 .1.1.1.1l.1.1.3.3c.1 0 .1.1.1.1l.1.1h.1l.1.1.1.1c.1.1.2.2.3.2l.1.1.1.1.1.1.2.2.1.1.1.1s.1 0 .1.1c.1 0 .1.1.1.1l.1.1a3.04 3.04 0 0 0 .7.5c2.1 2 4.5 3.8 6.8 5.6 1.9 1.5 3.7 3.1 5.8 4.3l2.1 1.1c.2.1.4.2.5.2 5.1 2.1 10.4 3.5 15.8 4.7h.2a12.59 12.59 0 0 0 1 .3c.1 0 .1 0 .2.1.1 0 .2.1.4.1.1 0 .1.1.2.1-.1.2-.1.2-.1.3 0-.1 0 0 0 0z" class="Ab"/><path d="M29.9 139.1l2.1 2 1.9 1.6 2.8 2.4 1.4 1.2c1 1 2.1 1.8 3.2 2.7l3.4 2.7 3.1 2.6c.4.3.9.6 1.1 1-.6-.2-1.1-.6-1.6-1.1l-3.3-2.8-3-2.3-3.8-3.2c-1.1-1.1-2.3-2-3.4-2.9-.1 0-.1-.1-.2-.1-.9-1-2.1-1.7-3-2.7l-3.4-3.1c-.2-.2-.3-.4-.4-.6-.4-.5-.8-.9-1.1-1.4-.7-.9-1-1.9-1.2-3 0-.1 0-.3-.2-.4l-.5-2.3c-.1-.2-.1-.4-.1-.7.4.9.7 1.8.9 2.8.1.5.3 1 .5 1.4.2.6.3 1.2.8 1.6 0 0 .1 0 .1.1 1 1.2 2 2.3 3.1 3.3.3.3.8.6.8 1.2z" class="AG"/><path d="M135.1 155.8c.5-.3 1.1-.3 1.6-.6 0-.3.3-.4.5-.4.7-.2 1.4-.6 2.1-.9.7-.2 1.3-.6 1.9-.9.2-.1.5-.2.7-.3.9-.6 1.8-1.1 2.6-1.8.1-.1.2-.1.3-.2.3-.2.5-.4.8-.7l.2-.2.2-.2.2-.2.2-.2.2-.2.2-.2c.4-.5.8-1.1 1.2-1.7.1-.1.3-.3.4-.5.1-.1.1-.2.2-.3.1-.2.2-.3.3-.5s.2-.3.3-.5c.6-.6.9-1.4 1.4-2 .2-.2.3-.5.6-.6.1-.1.3-.1.4 0 0 .4-.3.6-.5.8l-2.7 4.1c-.6.8-1.1 1.7-1.9 2.5s-1.8 1.5-2.7 2.1c-.7.5-1.4 1-2.2 1.4-1.8 1-3.6 1.8-5.5 2.3-.5-.1-.8-.1-1-.1z" fill="#f0f1f1"/><path d="M151.3 142.5c-.1.1-.2.1-.3.2-.2-.3 0-.5.1-.7l5.1-7.5c.4-.5.9-.9 1.4-1.4.1-.1.2-.2.2-.3l.1-.1.1-.1.1-.1.1-.1.1-.1.1-.1.1-.1.1-.1h.1.1l.1.1v.3c-.1 0-.1.1-.2.1-1.5 1.9-3.1 3.6-4.4 5.7-.8 1.4-1.7 2.7-2.6 4a1.38 1.38 0 0 1-.4.3z" class="AG"/><path d="M146.8 38.5l.2.2c.3.7 1 1.2 1.5 1.8.2.2.5.4.5.7-.4.2-.5-.2-.7-.3l-3.8-3.9-3.4-3.4c-.1-.1-.2-.2-.3-.4l-.2-.2-.2-.2-.2-.2-.2-.2-.1-.1v-.1c-.8-1-1.7-1.9-2.6-2.8-.2-.2-.5-.4-.7-.7.3 0 .5.3.7.5.5.5.9 1 1.5 1.4l.2.2c.4.6 1 1.2 1.5 1.8l5.3 5.3.6.6c.3-.1.3-.1.4 0z" class="Ag"/><path d="M22.7 125.2c.3.4.4 1 .5 1.5.2.7.5 1.4.4 2.1a23.69 23.69 0 0 1-.9-3.6z" class="AG"/><path d="M169.6 97v.2c.1 1.2.1 2.5 0 3.7v.2c-.2.4.1.9-.2 1.2h0c-.2.3 0 .6-.2.9h0c-.2.3 0 .6-.2.9l-.6 3.1h0c-.2.9-.1 1.7-.3 2.6v.2c-.2.3-.1.6-.1.8 0 .1 0 .1-.1.2-.1.2-.1.5-.1.7 0 .1 0 .1-.1.2l-.3 1.5c0 .1-.1.2-.1.3-.1.2 0 .4-.1.5 0 .1-.1.3-.1.4 0 .5-.1.9-.2 1.3 0 .1-.1.2-.1.3s0 .2-.1.3c0 .1-.1.2-.1.3s0 .3-.1.4-.1.2-.2.4c0 .2-.1.5-.2.7 0 .1-.1.2-.1.4v.3c0 .1-.1.2-.1.3-.1.2-.1.4-.2.5s-.1.1-.1.2c0 .2-.1.4-.2.6-.1.1-.1.2-.1.3s0 .2-.2.2c-.1 0-.1-.1-.2-.2-.1-.7.4-1.3.6-2 .8-2.6 1.3-5.4 1.7-8.1.1-.6.3-1.3.3-1.9v-.2c.3-.6.4-1.2.3-1.9 0-.1.1-.2.1-.2.6-2.9 1.2-5.8 1-8.9-.1-1.6-.3-3.2-.7-4.8-.7-2.3-1.2-4.6-1.6-7-.1-1.1-.5-2-.7-3.1 0-.1-.1-.2-.1-.2-.1-.8-.3-1.7-.6-2.5 0-.1 0-.1-.1-.2 0-.2 0-.5-.1-.7 0-.1 0-.1-.1-.2 0-.2-.1-.3-.1-.5 0-.1 0-.1-.1-.2-.1-.7-.3-1.4-.5-2.2 0-.1 0-.1-.1-.2-.1-.2 0-.5-.1-.7 0-.1 0-.1-.1-.2 0-.2 0-.4-.1-.6 0-.1 0-.1-.1-.2 0-.2-.1-.3-.1-.5 0-.1 0-.1-.1-.2 0-.4-.1-.7-.2-1.1 0-.1 0-.1-.1-.2-.1-.2 0-.5-.1-.7 0-.1 0-.1-.1-.2 0-.2-.1-.5-.2-.7 0-.1 0-.1-.1-.2l-2.4-10.6-1.4-5c-.2-.6-.5-1.2-.8-1.7s-.5-.9-.6-1.5c.1-.2.3-.1.4 0 .5 1 1.1 1.9 1.5 3 .4 1.2.7 2.4 1 3.6l1.6 7.3c.1.7.4 1.3.6 1.9l1.6 7.3 1 4.5.8 3.4 1 4.6c.2.2 0 .5.2.8h0l.3 1.4h0l.9 3.4c.2.2 0 .5.2.8h0c.2.2 0 .5.2.8h0c.2.3 0 .7.2.9v.2c.7.7.4 1.1.6 1.5z" fill="#ebebeb"/><path d="M158.5 52.1c-.1-.1-.2-.1-.3-.2h-.1c-.1-.1-.2-.1-.2-.2-1.8-2.8-4.2-5.1-6.6-7.4l-7.1-7.3-2.9-2.9c-.2-.2-.5-.4-.4-.8.1-.1.2-.1.3 0 .3.2.6.5.9.8l3.8 3.8 2.7 2.9c.1.1.2.2.4.2.7.6 1.4 1.3 2 2 .7.6 1.3 1.2 1.9 1.9h0c.7.6 1.4 1.3 2 2 .3.2.6.5.8.8l.2.2c.1.5.5.8.8 1.2l1.7 2.4c0 .2.1.4.1.6z" class="At"/><g class="AH"><path d="M169 93.1c-.6-1.1-.8-2.2-.9-3.4.4 1.1.7 2.3.9 3.4zm.6 7.8v-3.7a.76.76 0 0 1 .2.4v2.9c0 .2 0 .3-.2.4zm-1.1 6.5a15.47 15.47 0 0 1 .6-3.1c0 1-.2 2.1-.6 3.1z"/><path d="M168 110.2c0-1 .2-1.9.5-2.8v1.1c-.1.5-.1 1-.2 1.5 0 .1-.1.2-.3.2zm0-20.5c-.3-.4-.3-.9-.3-1.4.3.4.4.9.3 1.4zm1.6 7.3c-.3-.4-.1-.8-.2-1.3.4.5.1.9.2 1.3zm-.1 5.4c.1-.4-.2-.9.2-1.2-.2.3.1.8-.2 1.2zm-.4 1.8c0-.3-.1-.7.2-.9 0 .3.1.7-.2.9z"/><path d="M169.3 103.3c0-.3-.1-.7.2-.9-.1.3.1.6-.2.9zm.2-7.7c-.3-.3-.1-.6-.2-.9.3.3.1.6.2.9z"/><path d="M169.3 94.7c-.3-.2-.1-.5-.2-.8.3.2.2.5.2.8z"/><path d="M169.1 93.9c-.3-.2-.1-.5-.2-.8.3.3.2.6.2.8zm-1.4-5.6c-.3-.2-.1-.5-.2-.8.3.2.2.5.2.8z"/></g><path d="M132.3 154.4c.1-.3.3-.3.6-.3 1.6-.4 3.3-.8 4.8-1.5 1.4-.6 2.7-1.2 3.9-2 .2-.1.4-.3.5-.6 1.1-.6 2-1.4 2.8-2.3 1.4-1.8 2.6-3.7 3.9-5.6l3.3-4.8c.6-1 1.4-1.9 2-2.9.1-.2.3-.5.6-.6.2.3-.1.5-.2.7-.8 1.3-1.9 2.4-2.5 3.9-.1.4-.2.7-.5 1-.7.8-1.1 1.8-1.8 2.6-.7.7-1.1 1.6-1.7 2.4-.2.3-.4.6-.6.8 0 .1-.1.1-.1.2s-.1.1-.1.1l-.1.1-.1.1c0 .1-.1.1-.1.1l-.1.1v.1l-.1.1-.1.1-.1.1s-.1.1 0 .1c0 .1-.1.1-.1.2l-.1.1-.1.1v.1l-.1.1-.1.1-.1.1-.1.1-.1.1-.1.1-.1.1-.1.1-.1.1-.1.1-.1.1-.1.1-.1.1-.1.1-.1.1v.1c0 .1-.1.1-.1.2 0 0 0 .1-.1.1l-.1.1-.1.1-.1.1-.1.1s-.1 0-.1.1h-.1l-.1.1-.1.1-.1.1-.1.1-.1.1-.1.1s-.1 0-.1.1l-.1.1-.1.1-.1.1s-.1 0-.1.1l-.1.1-.1.1-.1.1-.1.1-.1.1-.1.1-.1.1-.1.1-.1.1-.1.1h-.1l-.1.1-.1.1c-.1 0-.1.1-.2.1 0 0-.1 0-.1.1 0 0-.1 0-.1.1l-.1.1-.1.1-.1.1-.1.1-.1.1s-.1 0-.1.1c0 0-.1 0-.1.1-.1 0-.1.1-.2.1 0 0-.1 0-.1.1-.1 0-.1.1-.2.1s-.1 0-.2.1c-.1 0-.2.1-.2.1s-.1.1-.2.1c-.1.1-.2.1-.3.2s-.2.1-.3.2c-.1 0-.1.1-.2.1s-.2.1-.2.1c-.1 0-.1 0-.2.1-.1 0-.2.1-.3.1s-.1 0-.2.1c-.1 0-.2.1-.3.1s-.1 0-.2.1c-.1 0-.2 0-.2.1-.1 0-.1 0-.2.1-.1 0-.2.1-.3.1h-.2c-.1 0-.2.1-.4.1h-.2c-.1 0-.3 0-.4.1-.1 0-.1 0-.2.1-.1 0-.2.1-.3.1s-.2 0-.3.1c-.1 0-.2 0-.3.1h-.2c-.1 0-.2 0-.3.1-.1 0-.1 0-.2.1-.1 0-.2.1-.3.1h-.2-.3c-.2-1-.3-1-.3-1.1z" fill="#585959"/><path d="M151.6 138.3c.5-.9 1-1.8 1.7-2.6.5-.6 1-1.3 1.3-2 .8-.8 1.4-1.8 2.2-2.7.6-1 1.4-1.8 2-2.8h0c.9-1.1 1.5-2.4 2.3-3.6h0c.3-.4.4-1 .8-1.3.1 0 .2.1.2.2v.2c0 .1-.1.3-.1.4-1.1 2.1-2.4 4-3.8 5.9-.2.3-.4.6-.6.8-.3.4-.6.8-1 1.2-1.6 1.7-3 3.6-4.3 5.6-.1.4-.1.9-.7.7z" fill="#5c5e5e"/><g fill="#555656"><path d="M162.1 123.4c-.3.1-.3.4-.4.5-.2.2-.3.6-.6.7.4-1.1 1-2.2 1.5-3.2.5-.9.9-1.9 1.2-2.9.1-.3.1-.6.3-.8.1-.1 0-.3.2-.5h0c.2-.2 0-.4.2-.6v-.3c.3-.5.3-1.2.6-1.7.2.2.2.5.1.7-.5 2.7-1.5 5.3-2.9 7.7.1.2 0 .4-.2.4zm-.9 1.3c.1.5-.3.7-.5 1-.4.7-.8 1.4-1.3 2-.1.2-.2.5-.6.6l1.6-2.6c.2-.3.3-.8.8-1z"/><path d="M158.8 128.3c-.3.8-.8 1.4-1.3 2-.2.3-.3.6-.7.8 0-.2 0-.4.1-.5.6-.6 1.1-1.4 1.6-2.1.1-.1.2-.1.3-.2z"/></g><path d="M164.6 116.7c0 .2.1.5-.2.6.1-.2 0-.4.2-.6zm-.1.7c0 .2 0 .4-.2.5 0-.3 0-.4.2-.5z" class="Ah"/><g fill="#e4e3e3"><path d="M134.8 27.8c-.1-.1-.2-.1-.3-.2-.4-.7-1.1-.9-1.7-1.2l-3.7-2v-.2c.7.2 1.3.5 1.9.9.9.6 1.9 1.1 2.9 1.7.5.3 1 .5 1.3 1l-.1.1c-.2 0-.3 0-.3-.1zm2.5 1.9c.8.3 1.2 1 1.7 1.5.3.3.6.7 1 1l.1.1h.1l.1.1.1.1.1.1.1.1.1.1.1.1.1.1v.2c0 .1-.1.2-.2.2-.6-.3-1-.8-1.4-1.3-.7-.7-1.4-1.4-1.9-2.3-.2 0-.1-.1-.1-.1z"/><path d="M136.2 28.6c.4.1.7.3.8.8h-.1c-.4-.1-.6-.4-.7-.7-.1 0 0 0 0-.1zm-1.1-.8c.3.1.6.2.8.5 0 0-.1 0-.1.1-.3-.1-.7-.1-.7-.6h0z"/></g><path d="M140.1 32.4l-.2-.2h.2v.2c0-.1 0 0 0 0z" class="At"/><g fill="#e4e3e3"><use xlink:href="#I"/><path d="M137 29.4l.2.2c-.2 0-.3-.1-.2-.2h0zm-1-.9l.2.2c-.1 0-.1 0-.2-.1v-.1z"/><path d="M135.9 28.3l.2.2c-.2 0-.3 0-.2-.2h0z"/></g><path d="M167.6 91.7v-.2c-.1-.1 0-.3-.2-.5v-.2c-.2-.2 0-.4-.2-.6h0c-.2-.2 0-.4-.2-.6v-.2c-.2-.2 0-.4-.2-.6h0c-.1-.3-.1-.7-.3-.9v-.3c-.1-.1 0-.3-.2-.5v-.2c-.2-.2 0-.4-.2-.6h0c-.2-.2 0-.5-.2-.8l-1.5-6.6-1.6-7.3-.9-3.7c-.1-.2-.1-.4-.1-.6.1-.1.1-.1.2-.1.5.9.5 1.9.8 2.8.1.2.1.4.2.6l1.5 7 3.2 14.1c.3 1.4.8 2.8.9 4.2.2 2.2.3 4.4-.1 6.6l-.7 4c0 .1-.1.3-.1.4h0a6.28 6.28 0 0 1-.3 1.9h0c0 .5-.1 1-.2 1.5-.1.1-.1.1-.2.1-.2-.1-.2-.3-.2-.6v-.2c.1-.2.1-.4.1-.7 0-.2 0-.3.1-.5s.1-.5.1-.7l.8-4.8v-.2c.1-.3.1-.6.2-.9.1-.5 0-.9.1-1.4.1-1 .1-2 0-3-.1-.4 0-.9-.1-1.4v-.2c0-.3 0-.6-.1-.9v-.2c0-.2 0-.4-.1-.6v-.2c0-.2 0-.4-.1-.6s-.1-.4-.1-.6-.1-.3-.1-.5V92c.1 0 .1-.1 0-.3z" fill="#c2c1c1"/><path d="M140.5 34.1c-.5-.6-1-1.2-1.6-1.7l-3.3-3.4h.3c.3-.1.4.2.6.3 2.4 2.7 5.1 5.1 7.6 7.7l.1.1.1.1.1.1.1.1.1.1.1.1.1.1c.1 0 .1.1.1.1 3.3 3.6 6.8 6.9 10.2 10.3.4.4.8.7.8 1.3-.2.1-.3 0-.4-.1h0c0-.1-.1-.1-.2-.2h0c0-.1-.1-.1-.2-.2h0c-.1-.2-.3-.4-.5-.6-.3-.1-.4-.4-.6-.6-2.4-2.3-4.8-4.7-7-7.1-2-2.1-4.1-4.2-6.1-6.2 0 0-.1-.2-.4-.3z" fill="#c5c3c3"/><path d="M165.1 83.6v-.8c.3.1.1.5.3.6l.8 3.4c.3 1.8.9 3.6 1.3 5.3.5 1 .6 2.1.8 3.2.6 3.1.2 6.2-.4 9.3l-.8 4.5c0 .3 0 .7-.5.8-.3-.4-.2-.7 0-1.1.4-1.3.5-2.7.8-4l.6-3.5c0-.2.1-.5.1-.7v-2.9c0-1.1-.2-2.2-.4-3.3l-1-4.1-1.2-5.7a1.53 1.53 0 0 1-.4-1z" fill="#898989"/><path d="M166.6 110c.2-.2.3-.4.3-.6l.8-5 .4-2.3c.2-1.5.4-3 .1-4.6-.1-.6-.1-1.2-.1-1.8-.1-1-.4-1.9-.6-2.8-.1-.2-.1-.5-.1-.7h.2l.1.1a.76.76 0 0 0 .2.4v.2c.1.1 0 .3.1.4 0 .1 0 .1.1.2.1.2 0 .3.1.5v.2c0 .2.1.4.1.6v.2c.1.3 0 .6.1.9v.2c.1.4 0 .8.1 1.2 0 .1 0 .3.1.4v2.9c0 .1-.1.3-.1.4-.1.4 0 .7-.1 1.1 0 .1 0 .2-.1.2-.1.3-.1.6-.1.9l-.8 4.8-.3 1.8c0 .1 0 .2-.1.2-.1 1-.5 2-.5 3.1l-.9 4.8c-.1.5-.3 1.1-.5 1.5-.1.1-.1.1-.2.1-.4-.2-.2-.6-.1-.9 0-.1 0-.1.1-.2.1-.2.1-.5.1-.7l1.3-6.8c.1-.3.1-.6.3-.9 0 .1 0 0 0 0z" fill="#959696"/><path d="M162.3 67.4h-.2c-.3-.9-.5-1.9-.7-2.9-.2-1.3-.6-2.5-.9-3.8l-1-4.8s-.1-.1 0-.1v-.1h.1c.1 0 .1 0 .2.1s.1.2.2.4c0 .1 0 .1.1.2 0 .2.1.3.1.5 0 .1 0 .1.1.2l.3 1c0 .1 0 .1.1.2 0 .4.2.8.3 1.3 0 .1 0 .1.1.2.2 1.3.6 2.5.9 3.7l.8 3.4c-.4.1-.4.3-.5.5z" fill="#c2c2c2"/><path d="M159.5 55.8v.2c-.4-.5-.6-1.1-.9-1.7-.8-1.6-1.6-3.2-2.8-4.6-.1-.1-.1-.2-.1-.3.1.1.2.1.3.2.3-.1.4.2.6.4 1.2 1.3 1.8 2.9 2.7 4.5 0 .2.1.3.1.5 0 .1 0 .1.1.2 0 .1.2.4 0 .6z" class="Au"/><path d="M166.6 88c.3.2.3.6.3.9-.2-.3-.3-.6-.3-.9z" class="AJ"/><path d="M154.9 48.5c.3.1.5.3.5.6-.3-.2-.5-.3-.5-.6z" class="Au"/><g class="AJ"><path d="M166.2 85.6c.3.2.1.5.2.8-.3-.2-.2-.5-.2-.8z"/><path d="M166.3 86.4c.2.2.1.4.2.6-.2-.1-.1-.4-.2-.6zm.7 2.5c.2.2.1.4.2.6-.3-.1-.2-.4-.2-.6zm.1.8c.2.2.1.4.2.6-.3-.1-.2-.4-.2-.6z"/><path d="M167.3 90.3c.2.2.1.4.2.6-.3-.1-.2-.4-.2-.6zm-.8-3.1c.2.1.1.3.2.5-.2-.1-.2-.3-.2-.5zm.9 3.9c.2.1.2.3.2.5-.2-.1-.2-.3-.2-.5zm.2.6c.2.1.2.3.2.5-.1.1-.1.1-.2 0v-.5z"/></g><g class="Au"><path d="M155.4 49.1l.2.2-.2-.2z"/><path d="M155.5 49.2l.2.2c0-.1-.1-.1-.2-.2z"/></g><path d="M166.5 110.8l-.7 4.2c-.1 1-.4 1.9-.5 2.9-.2.2 0 .4-.2.6h0c-.2.4-.3.7-.4 1.1-.1.5-.4 1-.6 1.4-.1.2-.1.5-.5.4-.1-.1-.1-.2-.1-.4 1.7-3.5 2-7.3 2.7-11.1.1-.3.1-.6.2-.8 0-.1 0-.2.1-.2h.2v1.1c-.2.2 0 .6-.2.8z" class="Av"/><g class="Aw"><path d="M166.5 108.9v.2c-.1.1-.1.1-.2 0a6.28 6.28 0 0 1 .3-1.9c.1.6-.1 1.1-.1 1.7zm.5-3c0-.6 0-1.3.3-1.9 0 .7-.1 1.3-.3 1.9z"/><path d="M166.6 107.2c0-.4 0-.9.3-1.3 0 .5.2 1-.3 1.3z"/></g><g class="AE"><path d="M160.1 62.4c.2.1.1.3.2.5-.2-.2-.2-.4-.2-.5zm.1.7c.2.1.1.3.2.5-.2-.1-.2-.3-.2-.5zm.7 2.7c.2.1.2.3.2.5-.3-.1-.2-.3-.2-.5zm.1.5c.2.1.2.3.2.5-.2-.2-.2-.4-.2-.5zm.2.7c.2.1.1.3.2.5-.3-.1-.2-.3-.2-.5zm.3 1.5c.2.1.2.3.2.5-.2-.2-.2-.4-.2-.5zm.5 2.1c.2.1.1.3.2.5-.3-.1-.2-.3-.2-.5zm.3 1.4c.2.1.1.3.2.5-.3-.1-.2-.3-.2-.5zm.4 2.2c.2.1.2.3.2.5-.2-.1-.2-.3-.2-.5zm.5 1.8c.2.1.1.3.2.5-.2-.2-.2-.4-.2-.5zm.3 1.4c.2.1.2.3.2.5-.2-.2-.2-.4-.2-.5zm.6 2.9c.1.1.2.2.2.3-.1 0-.2-.1-.2-.3z"/><use xlink:href="#C"/><path d="M163.8 78.9c.1.1.2.2.2.3-.1 0-.2-.2-.2-.3z"/><use xlink:href="#D"/><use xlink:href="#C" x="-.6" y="-2.8"/><use xlink:href="#C" x="-.9" y="-4.2"/><use xlink:href="#D" x="-.8" y="-3.6"/><use xlink:href="#D" x="-1.1" y="-4.8"/><path d="M162.4 72.8c.1.1.2.2.2.3-.1 0-.2-.1-.2-.3zm-.3-1.4c.1.1.2.2.2.3-.2 0-.2-.2-.2-.3z"/><use xlink:href="#D" x="-1.9" y="-8.4"/><path d="M161.6 69.2c.1.1.2.2.2.3-.1 0-.2-.1-.2-.3zm-.3-1.4c.1.1.2.2.2.3-.1 0-.2-.1-.2-.3z"/><use xlink:href="#C" x="-3.3" y="-14.2"/><path d="M160.5 64.5c.1.1.2.2.2.3-.1 0-.1-.1-.2-.3z"/><use xlink:href="#C" x="-3.6" y="-15.6"/><path d="M159.9 61.7c.1.1.2.2.2.3-.1 0-.2-.1-.2-.3z"/><use xlink:href="#D" x="-3.9" y="-17.3"/><use xlink:href="#C" x="-4.4" y="-19.2"/><use xlink:href="#C" x="-4.5" y="-20"/><use xlink:href="#C" x="-4.7" y="-20.6"/><path d="M159.1 58.1c.1.1.2.2.2.3-.1 0-.2-.1-.2-.3zm-.1-.6c.1.1.2.2.2.3-.2 0-.2-.2-.2-.3z"/><path d="M158.8 57.2c.1.1.2.2.2.3-.1 0-.2-.2-.2-.3z"/><use xlink:href="#D" x="-5" y="-21.7"/></g><path d="M132.3 154.4h.3l.1.1v.1s-.1.1-.2.1-.2.1-.4.1h-.2c-.1 0-.2 0-.4.1-.1 0-.1 0-.2.1-.1 0-.2.1-.3.1s-.1 0-.2.1c-.1 0-.2.1-.3.1s-.2.1-.3.1-.2.1-.3.1-.2 0-.3.1c-.2 0-.3 0-.5.1-.1 0-.1 0-.2.1a.76.76 0 0 0-.4.2l-7.8 2.4-5.1 1.6c-1.9.5-3.8 1.4-5.8 1.5-1.5.1-3 .4-4.5.1-.8-.1-1.7-.1-2.6 0-.4.1-.9.2-1.3-.1h-2.8c.2-.3.5-.1.8-.2l9.2-.2c.2 0 .4 0 .6-.2h0c.3-.2.8.1 1.1-.2h.2c.2-.2.4 0 .6-.2h0c.3-.2.7 0 .9-.2.9-.4 1.9-.6 2.9-.9l4.3-1.3 5.3-1.6 3.6-1.1 4.2-1z" fill="#5b5d5d"/><path d="M110.5 160.6c-.3.3-.7.1-1.1.2.4-.3.8-.1 1.1-.2zm1.8-.3c-.3.3-.6.1-.9.2.2-.3.5-.1.9-.2zm-1 .2c-.2.2-.4.1-.6.2.2-.3.4-.2.6-.2z" class="Ao"/><path d="M166.3 109.9c0 .8-.2 1.5-.3 2.3a40.48 40.48 0 0 1-.9 4.8c-.3 1.3-.7 2.5-1.3 3.7-.1.1-.1.3-.1.4-.1.1-.1.2-.1.3s-.1.2-.1.4c-.1.1-.1.2-.2.4l-.6 1.1c-.1.2-.2.6-.6.5v-.3l1.5-3c.7-1.7 1.3-3.4 1.6-5.2v-.5c.3-.8.3-1.7.5-2.5l.6-3c.1.1.1.3 0 .6z" class="Aw"/><path d="M166.3 109.9v-.6-.2h.2c-.1.2.1.5-.2.8z" fill="#6b6c6c"/><path d="M168 110.2a3.08 3.08 0 0 0 .3-1.3c0-.2 0-.3.2-.4.1.9-.3 1.8-.4 2.8l-.7 4.4c0 .3-.1.7-.3.9-.3-.5.2-1.1.1-1.6v-.2c.2-.2.1-.6.2-.8.2-.6.2-1.2.3-1.8v-.2c.2-.2 0-.5.2-.8.2-.4 0-.7.1-1h0z" class="Ag"/><path d="M165.2 121.3h.2s.1.1 0 .1v.1h0c-.1.1-.1.2-.2.3h0c-.1.1-.1.2-.2.3h0c-.1.3-.3.5-.5.8-.2.5-.3 1-.6 1.4-.1.1-.2.2-.3.1s-.1-.2-.1-.3.1-.3.1-.4c.2-.6.5-1.2.8-1.8.3-.3.4-.6.8-.6z" class="Aj"/><path d="M163.7 124.4c.1-.1.2-.1.3-.2-.3.8-.6 1.6-1.2 2.2-.3.3-.4.6-.5.9-.2.3-.3.6-.6.8l-.1-.1v-.2c0-.1 0-.1.1-.2s.1-.2.2-.3l.1-.1c0-.1.1-.1.1-.2 0 0 0-.1.1-.1 0-.1.1-.1.1-.2 0 0 0-.1.1-.1 0 0 0-.1.1-.1 0 0 0-.1.1-.1l.1-.1v-.1c0-.1.1-.1.1-.2 0 0 0-.1.1-.1l.1-.1.1-.1.1-.1v-.1c0-.1.1-.1.1-.2 0 0 0-.1.1-.1 0-.1 0-.2.1-.2 0-.1 0-.1.1-.1l.1-.1.1-.1c-.3-.1-.2-.2-.1-.3-.1 0 0 0 0 0z" class="AG"/><path d="M167.3 114.9c.1.6-.2 1.1-.2 1.7 0 .3-.2.5-.2.8 0 .2-.1.3-.3.4l-.1-.1c0-.1 0-.2.1-.2v-.5c.1 0 .1-.1.2-.2v-.3c.1 0 .1-.1.2-.2-.1-.5.2-1 .2-1.6 0 .1 0 .1.1.2z" class="AH"/><path d="M160.7 129.5c-.1.5-.5.8-.8 1.1l-.1-.1v-.2-.2c0-.1 0-.1.1-.2 0-.1.1-.1.1-.1l.1-.1.1-.1.1-.1.1-.1c.1.1.1.1.3.1z" class="AG"/><g class="AH"><path d="M165.9 120c.1-.2.1-.4.2-.6.1 0 .1-.1.2-.2v-.3s.1 0 .1-.1c0 0 .1 0 .1.1 0 .5 0 .9-.5 1.3-.2-.1-.2-.1-.1-.2-.1.1-.1 0 0 0z"/><path d="M166.3 118.6c0-.3.2-.5.2-.8.1-.1.1-.1.2 0 0 .4 0 .8-.3 1.1h0c-.2-.1-.2-.2-.1-.3z"/></g><path d="M159.5 131.3c0 .4-.3.6-.6.8h0c-.1-.1-.1-.1-.1-.2s0-.1.1-.2l.1-.1.1-.1.1-.1.1-.1.1-.1h.1c-.2 0-.1 0 0 .1-.1-.1-.1-.1 0 0z" class="AG"/><path d="M165.5 120.8c.1-.2.1-.4.2-.6h.2c0 .3 0 .6-.3.8-.1-.1-.1-.1-.1-.2z" class="AH"/><path d="M161.2 128.8c0 .4-.2.6-.5.8h0c-.1-.1-.1-.1-.1-.2s0-.1.1-.2.1-.2.2-.3l.1-.1c0-.1.1-.1.2 0-.1-.1-.1-.1 0 0z" class="AG"/><path d="M164.6 122.8c0-.3.3-.5.5-.8 0 .4-.2.7-.5.8z" class="AH"/><path d="M159.9 130.6a.55.55 0 0 1-.3.5s0-.1-.1-.1c0-.3.1-.4.4-.4h0z" class="AG"/><g class="AH"><path d="M165.4 121.4v-.2-.3c.1 0 .1-.1.2 0-.1.2 0 .4-.2.5z"/><path d="M165.2 121.7c0-.1 0-.2.2-.3 0 .1 0 .3-.2.3zm-.1.3c0-.1 0-.2.2-.3-.1.2-.1.3-.2.3z"/></g><g class="AG"><path d="M161.5 128.3c0 .1 0 .2-.2.3l-.1-.1v-.2s0-.1.1-.1c0 .1.1 0 .2.1-.1 0 0 0 0 0zm-1.9 2.8l-.2.2c0-.2.1-.2.2-.2z"/><path d="M161.3 128.6l-.2.2s0-.1-.1-.1v-.1c.2-.1.3-.1.3 0h0z"/><path d="M161.6 128.1l-.2.2c0-.2.1-.2.2-.2h0z"/></g><g fill="#6d7070"><path d="M101.6 161.3c1 .1 2.1-.2 3.1-.2.5 0 1 .1 1.5.1 1.2 0 2.5-.1 3.7-.2 2.1-.1 3.9-1 5.9-1.5.2-.1.4-.2.5.1-.5.5-1.2.6-1.8.8-2.2.8-4.6 1.2-7 1.2h-1.8c-3.4-.1-6.7.3-10 .4-1.9.1-3.8.1-5.8.3-2.3.2-4.5.2-6.8.3-1.3.1-2.6.1-4 .1-.3 0-.7.1-.9-.3.1-.2.2-.2.3-.1.8 0 1.6.1 2.4 0 1.6-.2 3.2-.1 4.8-.3 1.1-.1 2.2-.2 3.2-.2 1.7 0 3.5-.2 5.2-.2 1.1 0 2.2 0 3.3-.1 1.2-.1 2.4-.1 3.6-.1.4 0 .5 0 .6-.1zM66.9 160c.4 0 .7.1 1.1.2h0c.1.1.2.1.3.2h.3c.1.1.2.1.3.2h.5c.1.1.2.1.3.2h.3c.1.1.2.1.3.2h.5c.1.1.3 0 .5.2h.3c.1.1.2.1.3.2h.5c0 .1.1.1.2.2h.6c.1.1.2.1.3.2h.5c.1.1.2.1.3.2h.5c.1.1.2.1.3.2h.6c.1.1.2.1.3.2h.6c.1.1.3 0 .5.2h0c.1.1 0 .2 0 .2-.3.2-.6.1-.9.1-.7-.3-1.5-.3-2.3-.5-.3-.1-.6-.1-.9-.2l-1.4-.3c-.3-.1-.5-.1-.8-.2s-.5-.1-.8-.2c-.2-.1-.4-.1-.7-.2-.2-.1-.5-.1-.8-.2-.2-.1-.4-.1-.6-.2s-.4-.1-.6-.2c-.2-.4-.4-.4-.4-.7z"/><path d="M77.7 162.2h.5c.1.1 0 .2 0 .2-.4.1-.7.2-.9-.2.1-.1.3-.1.4 0z"/></g><g class="Ai"><path d="M77.7 162.2h-.5-.2v-.2c.3.1.6 0 .7.2z"/><path d="M77.1 162c-.2 0-.4 0-.5-.2.2.1.4 0 .5.2zm1.1.3v-.2c.2 0 .4 0 .5.2h-.3c-.1.1-.2.1-.2 0zm-6.9-1.4c-.2 0-.4 0-.5-.2.2.1.4.1.5.2zm4.7 1c-.1 0-.2 0-.3-.2.1 0 .2 0 .3.2zm-7.7-1.6c-.1 0-.2 0-.3-.2.2.1.3.1.3.2zm.7.2c-.1 0-.2 0-.3-.2.1 0 .2 0 .3.2zm.8.1c-.1 0-.2 0-.3-.2.1.1.2.1.3.2zm.6.2c-.1 0-.2 0-.3-.2.1 0 .2.1.3.2zm1.5.3c-.1 0-.2 0-.3-.2.2 0 .3.1.3.2zm3.2.6c-.1 0-.2 0-.3-.2.1.1.2.1.3.2zm-1.6-.3c-.1 0-.2 0-.3-.2.1.1.2.1.3.2zm.8.2c-.1 0-.2 0-.3-.2.1 0 .2 0 .3.2zm-1.7-.4l-.2-.2c.1.1.1.2.2.2z"/></g><path d="M157.9 54.7s0-.1 0 0h0z" class="AE"/><path d="M45.8 151.4c.3.1.5.3.8.5.6.6 1.4 1 2 1.7.1.1.2.1.4.1 0 .1.1.1.2.2h0c.2.1.4.3.6.5h0c.1.1.3.1.4.2.1 0 .1.1.2.1.1.1.2.1.3.2.1 0 .1.1.1.1.1 0 .1.1.2.1s.1 0 .2.1c.1 0 .2.1.3.1s.1.1.2.1l4.3 1.9c.1 0 .1 0 .2.1.1 0 .2.1.3.1s.2.1.3.1.2.1.2.1c.1 0 .1 0 .2.1.1 0 .2.1.3.1s.2 0 .2.1c.1 0 .2.1.3.1s.1 0 .2.1c.1 0 .2.1.2.1.1 0 .1 0 .2.1.1 0 .2.1.2.1.1 0 .1 0 .2.1.1 0 .2.1.3.1s.1 0 .2.1c.1 0 .2.1.3.1s.1 0 .2.1c.1 0 .3.1.4.1l3.9 1h.2l7.3 1.8a.55.55 0 0 1 .5.3v.2c-.6.3-1.1-.1-1.6-.1-.3 0-.6-.2-1-.2-3.3-.6-6.4-1.6-9.6-2.5-2.2-.6-4.3-1.5-6.5-2.3-.4-.1-.7-.3-1-.5-.1 0-.1-.1-.2-.1s-.2-.1-.3-.1-.1-.1-.2-.1c-.4-.2-.9-.4-1.3-.7-.1 0-.1-.1-.2-.1-.2-.2-.4-.3-.7-.4-.1 0-.1-.1-.2-.1-.2-.2-.4-.4-.7-.6-.1 0-.1-.1-.2-.1s-.1-.1-.2-.1l-.1-.1a4.44 4.44 0 0 0-1.1-.8c-.1 0-.1-.1-.2-.1-.4-.3-.7-.7-1.1-1v-.1c-.1-.1-.1-.2-.2-.3 0-.7.1-.7.1-.6z" fill="#acb0b0"/><path d="M52.7 156.9c-1.4-.7-2.8-1.4-4.1-2.4l-2.8-2.2L43 150l-4.1-3.3c-.3-.3-.5-.7-.9-.9-.1-.1-.3-.2-.4-.4v-.1c.3 0 .5.2.6.4.8.9 1.8 1.6 2.7 2.3l3.9 3.2c.3.2.5.5.9.5h0c.5.3.8.8 1.3 1.1h0l1.2.9h0l.2.2h0c.3.2.6.6.9.8h0c.2.2.5.3.8.5h0c.5.3 1 .6 1.6.8h0c.1.1.2.1.3.2h0c.3.3.9.3 1.1.8-.1 0-.2 0-.4-.1z" class="Aa"/><path d="M45.8 151.4h-.2c-1-.6-1.9-1.4-2.7-2.2.6.2 1 .6 1.4 1 .7.4 1.1.8 1.5 1.2z" class="Aq"/><path d="M26.9 135.5c.5.4 1 .8 1.3 1.4 0 0-.1 0-.1.1H28h-.1c-.1 0-.1-.1-.2-.1-.2-.4-.7-.6-.9-1.1.1-.2.1-.2.1-.3zm2.1 2.2c.6.2.9.7 1.2 1.1 0 0-.1 0-.1.1h-.2c-.3-.4-.7-.7-.9-1.2-.1 0-.1 0 0 0zm1.8 1.7c.4 0 .6.3.8.6l-.1.1c-.1 0-.2 0-.2-.1h0l-.2-.2h0l-.2-.2h0l-.2-.2h0c.1.1.1.1.1 0z" class="Aa"/><path d="M42.2 148.6c.4 0 .6.3.8.6-.4 0-.6-.3-.8-.6z" class="Aq"/><g class="Aa"><path d="M33.5 141.7c.3 0 .5.2.6.5l-.1.1c-.1 0-.2 0-.3-.1h0l-.2-.2h0l-.2-.2h0c.2.1.2 0 .2-.1 0 .1 0 0 0 0zm-7.5-7.5c.2.1.3.2.3.5l-.1.1h-.1-.1l-.1-.1s0-.1-.1-.2c.1-.1.1-.2.2-.3-.1.1 0 0 0 0zm8.7 8.6a.55.55 0 0 1 .5.3l-.1.1c-.1 0-.2 0-.2-.1h0l-.2-.2h0v-.1c0 .1 0 0 0 0zm-2.3-2a.55.55 0 0 1 .5.3l-.1.1c-.1 0-.2 0-.2-.1h0l-.2-.2h0v-.1z"/><path d="M35.7 143.6a.55.55 0 0 1 .5.3l-.1.1c-.1 0-.2 0-.3-.1h0l-.2-.2h0c.1 0 0 0 .1-.1-.1 0 0 0 0 0zm1.4 1.2a.55.55 0 0 1 .5.3l-.1.1c-.1 0-.2 0-.2-.1h0l-.2-.2h0c0 .1-.1 0 0-.1-.1.1 0 .1 0 0zm-.5-.4c.2 0 .3.1.3.3h-.1c-.1 0-.2-.1-.2-.3zm-2.3-2.1c.2 0 .3.1.3.3h-.1c-.1.1-.2 0-.2-.3-.1.1 0 .1 0 0zm-2.4-2c.1 0 .2 0 .3.2 0 0-.1 0-.1.1-.1 0-.2 0-.3-.1.1-.1.1-.2.1-.2z"/><path d="M32.2 140.5c.1.1.2.2.2.3h-.2 0v-.3h0zm-5.9-5.8c.1.1.2.2.2.3h-.1c-.1 0-.1-.1-.1-.2-.1 0 0-.1 0-.1h0zm-.6-.6v-.2s-.1-.1 0-.1v-.1c.1.1.2.2.2.3-.1.1-.1.1-.2.1zm11.9 11.1l.2.2c-.2 0-.3-.1-.2-.2h0zm-.7-.5l.2.2h-.2 0v-.2z"/><path d="M36.5 144.2l.2.2c-.1.1-.1.1-.2 0h0c-.1 0-.1-.1 0-.2-.1.1-.1 0 0 0z"/><path d="M36.3 144.1l.2.2h-.2 0v-.2z"/><path d="M36.2 143.9l.2.2c-.3 0-.3 0-.2-.2-.1 0 0 0 0 0z"/><path d="M35.5 143.4l.2.2h-.2 0v-.2c0 .1 0 .1 0 0z"/><use xlink:href="#I" x="-101.7" y="113.7"/><path d="M35.2 143.1l.2.2c-.2 0-.2 0-.2-.2h0zm-.6-.4l.2.2h-.2 0c-.1-.1-.1-.2 0-.2h0zm-.5-.5l.2.2c-.1.1-.1.1-.2 0h0v-.2h0zm-.8-.6l.2.2h-.2 0v-.2z"/><use xlink:href="#I" x="-103.9" y="111.8"/><use xlink:href="#I" x="-104.1" y="111.7"/><path d="M32.9 141.1l.2.2c-.2 0-.3-.1-.2-.2h0zm-1.1-.9l.2.2c-.1 0-.1 0-.2-.1v-.1z"/><path d="M31.6 140l.2.2c-.2 0-.2 0-.2-.2h0zm-.9-.8l.2.2h-.2 0s-.1-.1 0-.2c-.1.1 0 0 0 0z"/><path d="M30.5 139.1l.2.2s-.1 0-.1.1h-.1v-.3z"/><path d="M30.4 138.9l.2.2s-.1 0-.1.1h-.1c-.1-.1-.1-.2 0-.3-.1.1 0 0 0 0z"/><path d="M30.2 138.8l.2.2s-.1 0-.1.1h-.1c-.1-.2 0-.3 0-.3h0zm-1.4-1.3l.2.2c-.1 0-.1 0-.2-.1v-.1z"/><path d="M28.7 137.3l.2.2c-.1 0-.1 0-.2-.1-.1 0-.1 0 0-.1z"/><use xlink:href="#I" x="-108.6" y="107.6"/><use xlink:href="#I" x="-108.8" y="107.4"/><path d="M28.2 136.9l.2.2c-.1 0-.1.1-.2 0s-.1-.2 0-.2h0zm-1.4-1.6l.2.2h0s-.1 0-.1.1h-.1c-.1-.1-.1-.2 0-.3-.1.1 0 0 0 0z"/><path d="M26.6 135.2l.2.2s-.1 0-.1.1h-.1v-.3z"/><path d="M26.5 135l.2.2c-.1.1-.1.1-.2 0s-.1-.1 0-.2h0zm-.7-.9l.2.2c-.1.1-.1.1-.2 0h0v-.2z"/></g><path d="M56.9 157.3h.3.3c.1.1.2.1.3.2h.2c.1.1.2.1.3.2.2 0 .4.1.6.1 1.6.6 3.3 1.1 5 1.5.2.1.5.1.6.3-.2.2-.4.1-.6.1l-4.7-1.3-.9-.3c-.2-.1-.4-.1-.5-.2-.2-.3-.7 0-.9-.6z" fill="#7c7f7f"/><g fill="#858989"><path d="M64 159.5h.6c.4 0 .8.1 1.1.3l-.1.1c-.5.2-.9-.3-1.3-.1h-.2c-.1 0-.2-.1-.1-.3zm2.9.5l.3.3-.1.1c-.3 0-.7 0-.9-.3v-.1h.7z"/><path d="M65.7 159.8c.2 0 .5-.1.6.2-.2.2-.5.3-.6-.2h0z"/></g><path d="M58.3 157.7c-.1 0-.2 0-.3-.2.2 0 .3 0 .3.2zm-.4-.2c-.1 0-.2 0-.3-.2.1 0 .2.1.3.2z" class="Ar"/><g class="Ag"><path d="M154.9 47.1c-.7-.6-1.4-1.3-2-2 .2 0 .3.1.4.2l1.4 1.4c.2.1.2.2.2.4zm-3.9-4c-.7-.6-1.4-1.3-2-2 .2 0 .3.1.4.2l1.4 1.4a.76.76 0 0 1 .2.4z"/><path d="M152.9 45c-.7-.5-1.3-1.2-1.9-1.9.7.2 1 .8 1.5 1.3.2.2.4.3.4.6zm2.8 2.8c-.3-.2-.6-.5-.8-.8.5.1.7.4.8.8z"/></g><path d="M56 157.3c-1.1-.3-2.2-.7-3.2-1.3-.5-.3-1-.5-1.5-.7a.45.45 0 0 1 .5 0l4 1.7c.1 0 .2.1.3.2 0 0 0 .1-.1.1z" class="AM"/><path d="M56 157.3v-.2c.3.1.6.1.9.2.3.3.7.2.9.5l-.1.1c-.1 0-.2 0-.3-.1h-.3c-.1-.1-.2-.1-.3-.2h-.2c-.1-.1-.1-.1-.2-.1h-.3c-.1-.1-.1-.1-.2-.1.2-.1.1-.1.1-.1z" class="AD"/><g class="As"><path d="M51.8 155.3h-.5c-.1-.1-.2-.1-.3-.2h0c-.1-.1-.2-.1-.3-.2h0c-.1-.1-.2-.1-.2-.2v-.1c.5.2.9.4 1.3.7z"/><path d="M50.2 154.5c.1 0 .2 0 .3.2-.1.1-.2.1-.3 0h0v-.2c0 .1 0 .1 0 0z"/><path d="M50.1 154.4l.2.2c-.2 0-.3-.1-.2-.2h0z"/></g><path d="M135.2 28.6a.55.55 0 0 1 .5.3.55.55 0 0 1-.5-.3z" fill="#c5c3c3"/><path d="M144.3 37.2c-.2-.1-.4-.3-.6-.5L139 32l-2.5-2.6c-.2-.2-.3-.4-.6-.5-.1-.3-.4-.4-.6-.5-.3-.1-.5-.3-.6-.5h.3c.2.3.5.4.8.5l.2.2.2.2c.2.3.5.6.8.8l.2.2.2.2c1.1 1.2 2.1 2.5 3.4 3.6 0 0 .1 0 .1-.1 0 0 .1 0 .1.1l2.5 2.6c.3.3.7.6 1 1-.1-.2-.1-.1-.2 0z" fill="#dfdddd"/><g class="AM"><path d="M49.7 154.4c-.3 0-.5-.2-.6-.5.3 0 .5.2.6.5zm.4 0l.2.2v.2a.55.55 0 0 1-.5-.3c0-.1.2-.1.3-.1z"/><path d="M49.1 153.9l-.2-.2.2.2z"/></g><g class="AI"><path d="M25.8 134.2h.2v.3c-.1.1-.1.1-.2 0v-.3z"/><use xlink:href="#D" x="-138.3" y="55"/><path d="M25.4 132.8v.2.2c-.2-.2-.2-.3 0-.4zm.4 1.3v.2l-.2-.2h.2zm-.1-.3v.2l-.2-.2h.2z"/></g><path d="M120.9 159.7c-1 .5-2 .8-3 1.1l-4.3 1.2c-1.7.5-3.4.9-5.2.8-1.1.1-2.3.1-3.4 0h-.9c-.5.2-1 .1-1.5.1-.1-.1-.1-.1 0-.2.3-.2.6-.2 1-.2h4.1c1 0 2 0 3-.2 2.8-.6 5.6-1.4 8.3-2.4.2-.1.4-.1.5-.1.2-.1.4-.1.7-.1.1 0 .1 0 .2-.1 0-.1.2-.1.5.1-.1-.1-.1 0 0 0z" class="Ak"/><path d="M90.2 163.4c-.2.2-.5.2-.7.2-1.9-.1-3.8.1-5.7.2l-4.3.1c-.9 0-1.7-.2-2.6-.3-1.1-.1-2.1-.4-3.1-.5-.1 0-.2-.1-.3-.1l.1-.1c.2-.1.4-.1.6-.1h.2c.2.1.5.1.7.1h.2c.2.1.5.1.7.1.1 0 .2 0 .3.1.3.1.5.1.8.1h.2c.3.1.7 0 1 .1 1.3.2 2.6.2 4 0h.4c2 .1 4-.3 6.1-.2.5.2 1 0 1.4.3z" class="Ab"/><path d="M130.7 156.7l-2.5.8-5.6 1.7c-.2.1-.5.1-.7.1-.1 0-.1-.1-.1-.2.3-.4.8-.3 1.1-.5l1.1-.3c.8-.2 1.6-.6 2.4-.8.2-.1.4-.1.6-.2 1-.2 1.9-.6 2.8-.8.3-.1.5-.2.8-.1.1.2.2.2.1.3z" class="AN"/><path d="M139.3 153.9c-.5.4-1.2.7-1.8.9-.3.1-.6.1-.8.3h-.6v-.1c0-.1 0-.1.1-.2.1 0 .1-.1.2-.1s.2-.1.2-.1c.1 0 .1 0 .2-.1.1 0 .2-.1.3-.1s.1 0 .2-.1c.1 0 .2-.1.2-.1.1 0 .1 0 .2-.1.1 0 .2 0 .2-.1 0 0 .1 0 .1-.1.1 0 .1-.1.2-.1l.1-.1c.1 0 .2-.1.2-.1.1 0 .1-.1.2-.1.1.3.3.2.6.4-.1 0 0 0 0 0z" class="AO"/><path d="M102.4 163h-1.9c-.5.2-1 .1-1.5.1-.1-.1-.1-.1 0-.2 1.1-.3 2.3-.3 3.4 0h0c.1-.1.1 0 0 .1 0-.1 0 0 0 0z" class="Ak"/><path d="M104.9 162.8h3.4c-.1 0-.1.1-.2.1H105l-.1-.1z" class="Ab"/><g class="Ak"><path d="M95.5 163.3h-1.9c-.5.2-1 0-1.5.1-.1 0-.1-.1-.1-.2.2-.3.5-.2.8-.2h2.4c.1 0 .2.1.2.1.2 0 .2.1.1.2z"/><path d="M99 163.1h-1.9c-.5.1-1 .1-1.6 0h0c0-.1.1-.3.2-.3 1.1-.1 2.2-.3 3.2.1h0c.1.1.1.1.1.2zm-8.8.3h-1.4c0-.1.1-.3.2-.3 1-.1 2.1-.3 3.1.1h0c.1 0 .1.1.1.1s0 .1-.1.1h-1.9z"/></g><path d="M73.5 163c-.9 0-1.7-.2-2.5-.5.2-.2.5-.2.7-.2h.2c.2.1.4.1.7.1.1 0 .1 0 .2.1.2.1.4.1.6.1.1 0 .1.1.2.1 0 .2 0 .2-.1.3h0z" class="Ab"/><path d="M121.8 159.2h.8c-.5.3-1.1.4-1.7.5.1-.5.5-.5.9-.5z" class="Ak"/><path d="M99 163.1v-.2h1.6c-.6.4-1.1.2-1.6.2zm-3.5 0h1.6c-.5.3-1 .1-1.6.2v-.2zm-3.4.3v-.2h1.6c-.5.4-1.1.2-1.6.2zm10.3-.4v-.2h1.6c-.5.3-1.1.1-1.6.2z" class="Ab"/><g class="AO"><path d="M132.6 156.1c-.2.4-.5.3-.8.3v-.1c0-.1.1-.2.1-.3.1 0 .1-.1.2-.1s.3 0 .5.2c-.1-.1 0 0 0 0zm2.2-.6c-.3.3-.7.3-1.1.3v-.1c0-.1 0-.1.1-.2.1 0 .1-.1.2-.1s.2-.1.3-.1h.3c-.1 0 0 0 .2.2-.1-.1-.1-.1 0 0z"/><path d="M130.7 156.7v-.2c0-.1.1-.1.1-.1.1-.1.2-.1.4-.1h.2c.1 0 .3 0 .4.1-.3.3-.7.3-1.1.3zm3-.9c-.3.3-.7.3-1.1.3l-.1-.1v-.1s.1-.1.2-.1.3-.1.4-.1h.2c.1-.1.3 0 .4.1h0zm1.7-.5c-.2.2-.4.1-.6.2l-.1-.1v-.1c.1 0 .1-.1.2-.1a.9.9 0 0 1 .5.1c-.1 0 0 0 0 0z"/><path d="M136 155.2c-.2.2-.4.1-.6.2 0-.1-.1-.1 0-.2.1 0 .1-.1.2-.1.2-.1.3-.1.4.1h0z"/></g><path d="M69.3 161.9c-1.1-.1-2.1-.4-3.1-.7-1.2-.2-2.3-.5-3.4-.9l-6.6-2-2.6-1c-.1-.1-.3-.1-.4-.3l.1-.1a.45.45 0 0 1 .5 0c3.5 1.4 7.1 2.4 10.6 3.4 1.4.4 2.9.7 4.4 1.1.2 0 .4 0 .6.2 0 .1-.1.2-.1.3z" class="AN"/><path d="M69.3 161.9v-.2c.1-.1.2-.1.4-.1l6.7 1.3c.6.1 1.1 0 1.7.4.1.1.1.2 0 .2a1.1 1.1 0 0 1-.8 0h-.2c-.2-.2-.5 0-.8-.2H76c-.2-.2-.5 0-.8-.2h0c-.2-.2-.5 0-.8-.2h-.2c-.2-.2-.5 0-.8-.2h0c-.2-.2-.5 0-.8-.2h0c-.2-.2-.5 0-.8-.2h0c-.3-.2-.6 0-.9-.2h0c-.1-.1-.3 0-.5-.2h0l-1.1-.3c.1.3 0 .3 0 .3z" fill="#d5d8d8"/><path d="M25.8 134.5h.2c0 .1.1.1.2.2h0c.1 0 .1.1.2.2l.2.2v.2c.1 0 .1.1.2.2h0c.1 0 .1.1.2.2h0c.1 0 .1.1.2.2l.9 1.1c.1 0 .1.1.2.2.1 0 .1.1.2.2h.2l.2.2.2.2.2.2.2.2a5.73 5.73 0 0 0 1.1 1.1c.1 0 .1.1.2.2h0s0 .1.1.1c0 0 0 .1-.1.1h-.3c-.5-.6-1.2-1.2-1.7-1.8-1.5-1.5-2.5-2.2-3-3.4z" class="AZ"/><path d="M31.6 140l.2.2.2.2c.1.1.2.2.3.2v.3c-.5-.1-.7-.4-.9-.8 0-.1.1-.1.2-.1z" class="AI"/><path d="M69.4 161.9c.4 0 .8 0 1.1.3-.4 0-.7-.1-1.1-.3z" class="AN"/><path d="M37.6 145.2l.2.2c.1.2.2.3.3.5-.4 0-.6-.3-.8-.6 0-.1.2-.1.3-.1zm-4.7-4.1l.2.2.2.2.2.2v.2c-.4 0-.6-.3-.8-.6 0-.2.1-.2.2-.2z" class="AI"/><path d="M71 162.3c.3 0 .7-.1.9.2H71v-.2z" class="AN"/><g class="AI"><path d="M35.2 143.1l.2.2.2.2v.2c-.3 0-.5-.2-.6-.5 0-.1.1-.1.2-.1zm1.3 1.3h.2c.1.1.2.3.3.3v.2c-.4-.1-.5-.2-.5-.5z"/><path d="M34.1 142.3h.2c.1.1.2.3.3.3v.2a.47.47 0 0 1-.5-.5zm2 1.6l.2.2v.2a.55.55 0 0 1-.5-.3c.1-.1.2-.1.3-.1z"/></g><path d="M70.5 162.2c.2 0 .4 0 .5.2-.2-.1-.4 0-.5-.2zm-17.8-5.3h.5s0 .1.1.1c0 0 0 .1-.1.1-.2-.1-.4 0-.5-.2z" class="AN"/><g class="AI"><path d="M34.1 142.2v.2c-.1 0-.2 0-.3-.2h.3zm3 2.8l.2.2c-.1-.1-.2-.1-.2-.2z"/><path d="M36.9 144.8h.2v.2c-.1 0-.1-.1-.2-.2zm-.6-.6h.2v.2l-.2-.2zm-.6-.4l.2.2-.2-.2z"/><path d="M35.5 143.6h.2v.2l-.2-.2zm-.8-.6l.2.2c-.1-.1-.1-.2-.2-.2z"/><path d="M34.6 142.8h.2v.2c-.1-.1-.2-.1-.2-.2zm-1-.8l.2.2c0-.1-.1-.1-.2-.2z"/><path d="M33.5 141.9l.2.2-.2-.2z"/><path d="M33.3 141.7h.2v.2l-.2-.2zm-.9-.8l.2.2-.2-.2z"/><path d="M32.2 140.8h.2v.2c-.1-.1-.1-.2-.2-.2zm-1.1-1l.2.2-.2-.2z"/><path d="M31 139.7l.2.2-.2-.2z"/><path d="M30.8 139.5l.2.2-.2-.2z"/><path d="M30.7 139.4h.2v.2l-.2-.2z"/><path d="M30.5 139.2h.2v.2h-.2v-.2z"/></g><g class="AZ"><path d="M30.4 139.2l-.2-.2c.1-.1.1-.1.2 0v.2z"/><path d="M30.5 139.2v.2l-.2-.2h.2 0z"/></g><path d="M160.1 130v.2c-.1 0-.1.1-.2.2h0l-.6.9h0l-.2.2-.2.2-.2.2c-.1.1-.1.2-.2.3h0l-.2.2h0l-.2.2-.2.2h0l-.2.2h0c-.1.1-.1.2-.2.3 0 .1-.1.1-.1.2-1.1.9-1.8 2.1-2.7 3.2-.4.5-.7 1-1 1.6l-2.8 4.2c-.1.2-.2.3-.2.5-.6.5-.9 1.2-1.3 1.9-.2.3-.4.6-.7.8l-.1-.1v-.2c0-.1 0-.1.1-.2l.1-.1.1-.1.1-.1v-.1c0-.1.1-.2.1-.4 1.2-2.1 2.6-4 4-6 .1-.1.2-.2.2-.3s.1-.1.2-.2.1-.2.2-.3c0-.1.1-.1.1-.2.1-.1.1-.2.2-.3s.1-.2.2-.3c0-.1.1-.2.2-.2.1-.1.2-.3.3-.4l.3-.3.2-.2.2-.2c.1-.1.1-.1.1-.2s.1-.1.2-.2c0-.1.1-.1.1-.2s.1-.1.2-.2l.2-.2.2-.2.2-.2c.3-.3.6-.8.9-1.2 1.5-1.8 3-3.7 4.1-5.8.1-.2.2-.3.3-.5.1-.1.1-.2.2-.2.1-.1.1-.2.2-.3s.1-.2.2-.3c0-.1.1-.2.1-.2 0-.1.1-.1.1-.2.2-.3.4-.7.7-1h.1s.1 0 .1.1v.3c-.1.1-.1.2-.2.3h0l-.2.2h0c-.1.1 0 .3-.2.5-.1.1-.1.2-.2.3h0l-.2.2h0l-.2.2c-.1.1-.1.2-.2.3-.1 0-.1.1-.2.2v.2c-.1 0-.1.1-.2.2s-.1.2-.2.3h0c-.1.1-.1.2-.2.3h0c-.1.1-.2.3-.3.5-.1.1-.2.3-.3.5h0c-.1.1-.1.2-.2.3h0c0 .1-.1.1-.2.2h0c-.1.1-.2.3-.3.5h0c-.1.1-.2.3-.3.5h0l-.2.2.5-.7z" class="Ax"/><g class="AO"><path d="M144.5 150.8c-.1.1-.2.3-.3.4-.8.5-1.5 1.2-2.4 1.5v-.1c.6-.9 1.6-1.4 2.7-1.8-.1-.1-.1 0 0 0zm3.4-3.8c-.4.7-.8 1.4-1.4 1.9 0 0 0-.1-.1-.1-.1-.3.1-.6.2-.8.4-.4.6-1.1 1.2-1.3.2.1.2.2.1.3zm-6.7 6c-.5.5-1.2.8-1.9.9.4-.7 1.1-.9 1.9-.9-.1-.1-.1-.1 0 0zm4.3-3.2c-.3.3-.5.7-.9.8v-.1c.1-.4.4-.7.9-.7z"/><path d="M141.8 152.7c-.1.3-.4.3-.6.3 0-.4.3-.5.6-.3h0z"/></g><g class="Ax"><path d="M149 145.3a.55.55 0 0 1-.3.5l-.1-.1v-.2c0-.1 0-.1.1-.2l.1-.1h.1s0 .1.1.1h0z"/><path d="M148.7 145.8a.55.55 0 0 1-.3.5l-.1-.1v-.2c0-.1 0-.1.1-.2l.1-.1h.1l.1.1h0zm-.8 1.2v-.3-.1l.1-.1h.1.1l.1.1a.78.78 0 0 1-.4.4z"/><path d="M148.4 146.3c0 .1 0 .2-.2.3-.1-.1-.1-.2-.1-.3 0 0 0-.1.1-.1s.1 0 .2.1h0z"/></g><g class="AO"><path d="M144.6 150.6l-.2.2c0-.2.1-.2.2-.2h0zm1.1-.9l-.2.2h0c0-.1 0-.1.1-.2h.1z"/><path d="M145.9 149.5l-.2.2c0-.1 0-.1.1-.2h.1z"/><path d="M146 149.4l-.2.2c0-.1 0-.1.1-.2h.1z"/><path d="M146.2 149.2l-.2.2c0-.1 0-.1.1-.2h.1z"/><path d="M146.3 149.1l-.2.2c0-.1 0-.1.1-.2h.1z"/><path d="M146.5 148.9l-.2.2c0-.2 0-.2.2-.2h0z"/></g><g class="Aj"><path d="M157.9 133c0-.1 0-.2.2-.3-.1.1-.1.2-.2.3zm.8-1c0-.1 0-.2.2-.3v.3h-.2z"/><path d="M158 132.7l.2-.2c0 .1-.1.1-.2.2z"/><path d="M158.2 132.5l.2-.2c-.1.1-.1.2-.2.2z"/><path d="M158.4 132.3l.2-.2-.2.2z"/><path d="M158.5 132.2l.2-.2-.2.2z"/></g><g fill="#f1f1f1"><path d="M141.2 33.3h-.3c-.1-.1-.1-.2-.1-.2l.1-.1.3.3zm-1-.9l.2.2s-.1 0-.1.1c0 0-.1 0-.1-.1h0v-.2z"/><path d="M140.4 32.5l.2.2s-.1 0-.1.1c0 0-.1 0-.1-.1h0c0-.1-.1-.1 0-.2h0z"/><path d="M140.5 32.7l.2.2s-.1 0-.1.1c0 0-.1 0-.1-.1h0v-.2zm-.4-.3v-.2l.2.2h-.2 0z"/><path d="M140.7 32.8l.2.2c-.1.1-.1.1-.2 0h0v-.2c0 .1 0 0 0 0h0z"/></g><path d="M144.3 37.2v-.3c.8.7 1.6 1.4 2.3 2.3.2.2.4.4.5.6 2.5 2.5 4.9 5 7.5 7.4.8.8 1.5 1.7 2.2 2.6.5.6.8 1.2 1.3 1.8.1.1.1.2.2.3.3.6.5 1.2.8 1.7.5.7.8 1.6 1 2.4.5 1.8.9 3.6 1.4 5.4.5 2.1.9 4.2 1.3 6.3.1.5.3 1 .4 1.6.2.6.3 1.2.3 1.8-.4 0-.1-.4-.3-.5-.3-1-.6-1.9-.8-2.9 0-.1 0-.2-.2-.3.1-.5-.1-1-.2-1.4l-.6-2.5c-.2-1.3-.7-2.6-.9-3.9h0l-.3-1.4h0c-.1-.4-.1-.9-.3-1.3h0c-.2-.2 0-.4-.2-.6h0c-.1-.1 0-.3-.2-.5h0c-.1-.2-.2-.5-.3-.8h0c-.1-.1 0-.3-.2-.5-.9-1.8-1.7-3.5-3.1-5-.2-.5-.6-1-1-1.4l-8.4-8.4c-.6-.6-1.1-1.3-1.7-1.9l-.2-.2h0c0-.1-.1-.1-.2-.2h0c0-.1-.1-.1-.2-.2h0c.2.1.2.1.1 0h0z" class="AL"/><path d="M163.2 70.6c.2.1.1.4.3.5h0c.2.2 0 .5.2.8h0c.2.2 0 .5.2.8h0c.2.5.2.9.3 1.4h0c.2.2 0 .4.2.6h0c.2.2 0 .5.2.8h0c.2.2 0 .5.2.8h0c.2.8.5 1.6.6 2.5h0c.2.2 0 .4.2.6h0c.2.2 0 .5.2.8v.2c.3.9.4 1.8.6 2.7h0c.2 1 .4 2.1.8 3.1l1.3 5.7.6 2c.3 1.3.5 2.6.5 3.9v2.8c0 1.3-.2 2.6-.5 3.9-.2.7-.3 1.5-.4 2.2 0 .2 0 .4-.3.5 0-.9.2-1.9.4-2.8.7-2.6.6-5.1.5-7.7 0-.4-.1-.8-.2-1.1l-1.7-7.4-1-4.1-1-4.6-1.8-7.9c-.4-.5-.4-.7-.4-1zm2 50.7c-.7.7-.9 1.7-1.4 2.5l-.1.1c-.1 0-.1 0-.2-.1v-.3c0-.1.1-.2.1-.3s.1-.2.1-.3 0-.1.1-.2c0-.1.1-.1.1-.2 0 0 0-.1.1-.1 0-.1.1-.1.1-.2 0 0 0-.1.1-.1 0-.1.1-.1.1-.2s0-.1.1-.2c0-.1.1-.2.1-.3s.1-.1.1-.2c.9-1.9 1.4-4 1.8-6.1l.7-3.6c.1-.3 0-.7.3-.9.1-.5.1-1.1.3-1.6.4.6 0 1.1-.1 1.7l-.7 4.5-.7 3c-.2.8-.5 1.7-.9 2.5-.1.1-.1.3-.1.6z" class="Ay"/><path d="M167 86.1c-.3-.2-.3-.6-.4-.9-.2-.7-.4-1.5-.4-2.2.3.5.3 1.1.5 1.7.1.5.3.9.3 1.4z" class="AL"/><path d="M167.7 108.9a6.28 6.28 0 0 1 .3-1.9c.3.6 0 1.2-.1 1.8 0 .1-.1.1-.2.1z" class="Ay"/><path d="M165.2 78.8c-.2-.8-.6-1.6-.6-2.5.4.7.7 1.6.6 2.5zm1 4.2c-.4-.8-.5-1.8-.6-2.7.4.9.5 1.8.6 2.7z" class="AL"/><path d="M167.7 112a6.28 6.28 0 0 1-.3 1.9s0-.1-.1-.1c0 0 0-.1.1-.1 0-.5.1-1.1.3-1.7z" class="AH"/><path d="M164.1 74.1c-.3-.4-.3-.9-.3-1.4.4.4.3.9.3 1.4z" class="AL"/><path d="M168 110.2c0 .3.1.7-.2.9.1-.3 0-.7.2-.9zm-.6 3.7c0 .3.1.6-.2.8 0 0-.1-.1 0-.1v-.1-.6h.2 0z" class="AH"/><g class="AL"><path d="M163.7 71.9c-.3-.2-.1-.5-.2-.8.3.2.1.5.2.8z"/><path d="M163.8 72.7c-.3-.2-.1-.5-.2-.8.3.2.2.5.2.8zm1.7 7.5c-.3-.2-.1-.5-.2-.8.4.2.2.5.2.8z"/></g><path d="M167.9 111.1c0 .3.1.6-.2.8.1-.3-.1-.6.2-.8z" class="AH"/><g class="AL"><path d="M164.6 76.3c-.3-.2-.1-.5-.2-.8.3.2.2.5.2.8z"/><path d="M164.5 75.5c-.3-.2-.1-.5-.2-.8.3.2.1.5.2.8zm.9 3.9c-.2-.2-.1-.4-.2-.6.3.1.2.4.2.6z"/><path d="M164.3 74.7c-.2-.2-.1-.4-.2-.6.3.1.2.4.2.6z"/></g><g class="Aj"><path d="M167.3 114.5v.2.2h-.2c0-.2 0-.3.2-.4zm-.7 3.3h-.2c0-.1 0-.2.2-.3v.3zm-.3.8v.3h-.2c.1-.1.1-.2.2-.3zm-.8 2.3h-.2l.2-.2v.2z"/><path d="M165.9 120.2h-.2l.2-.2v.2zm.3-1l-.2.2.2-.2z"/><use xlink:href="#E"/><path d="M167 116.4l-.2.2.2-.2zm.4-2.5h-.2l.2-.2v.2z"/></g><path d="M158.2 51.9c-.1-.1-.2-.2-.2-.3.2 0 .2.2.2.3z" fill="#ebebeb"/><path d="M151.6 138.3c.3 0 .3-.2.4-.4.7-1.1 1.4-2.2 2.3-3.2.7-.9 1.4-1.9 2.3-2.6.1.1.1.1.1.2s0 .1-.1.2l-.1.1-.1.1c-.1.1-.1.2-.2.3 0 .1-.1.1-.1.2s-.1.2-.1.2c-.2.2-.3.4-.5.7-.4.4-.8.9-1.1 1.3-.2.2-.4.4-.5.7-.1.2-.2.3-.3.5-.2.4-.4.8-.8 1-.9 1.1-1.6 2.4-2.5 3.5-.3.4-.4 1.1-1.1 1.1-.1-.1-.1-.2 0-.3.7-.9 1.2-2 2-2.9.4-.2.5-.4.4-.7z" class="Ac"/><path d="M142 150.6h.2c.1 0 .1-.1.2-.2h0c.1 0 .1-.1.2-.2h0l.2-.2h0l.2-.2h0c.1-.1.2-.1.3-.2h0c.1 0 .1-.1.2-.2h0c.1-.1.2-.1.3-.2h0c.1 0 .1-.1.2-.2h0l.2-.2.2-.2h0l.2-.2h.2c.1 0 .1-.1.2-.2h0c.1 0 .1-.1.2-.2h0c.1-.1.1-.2.2-.3h0l.2-.2h0l.2-.2h0l.2-.2h0l.2-.2h0l.2-.2h0l.2-.2h0l.2-.2h0c.1-.1.1-.2.2-.3l.2-.2h0c.1-.1.1-.2.2-.3h0l.2-.2v-.2c.1 0 .1-.1.2-.2h0l.2-.2v-.2c.1 0 .1-.1.2-.2h0c.1 0 .1-.1.2-.2v-.2c.1-.1.2-.1.3 0 .2.2 0 .4-.1.6-1.6 2.8-3.9 4.7-6.7 6.2-.5.2-.9.7-1.6.6-.2-.2 0-.3.1-.4h0c.1-.1.2-.1.3-.2h.2l.2-.2h.2l.2-.2h.2l.2-.2h.2c.1 0 .1-.1.2-.2h0c.1-.1.2-.1.3-.2h0l.2-.2h.2l.2-.2h.2c.1 0 .1-.1.2-.2h0l-1.6 1.5z" class="AT"/><path d="M147.4 145.2h-.3l1.6-2.5c.2-.3.4-.6.7-.8v.3.1c-.1.3-.3.5-.4.8 0 .1 0 .1-.1.2v.1c-.1.1-.1.2-.2.3 0 .1-.1.1-.1.2-.1.2-.2.3-.3.5-.3.2-.3.8-.9.8z" class="Ad"/><g class="AT"><path d="M132.4 154.5h.2c.1-.1.2-.1.3-.2h.2c.1-.1.2-.1.3-.2h0c.1-.1.3 0 .5-.2h.2c.1-.1.2-.1.3-.2h.3c.1-.1.2-.1.3-.2h.2c.1-.1.3 0 .5-.2h.2c.1-.1.3-.1.4 0l.1.1v.1c-1.1.5-2.3.9-3.5 1.1-.1 0-.2 0-.2-.1-.3.2-.3.1-.3 0zm4.5-1.4h.2c.1-.1.2-.1.3-.2h.2c.1-.1.2-.1.3 0v.1.1c-.3.3-.7.4-1.1.4-.1 0-.1 0-.2-.1v-.2h0c.1 0 .3 0 .3-.1z"/><path d="M138.2 152.7h.2c.1-.1.2-.1.3 0-.1.4-.4.5-.8.3h0c-.1 0-.1-.1-.1-.1s0-.1.1-.1h.2l.1-.1z"/></g><path d="M139.1 152.2c-.1.1-.1.2-.2.3l-.1.1h-.2l-.1-.1c.3-.2.4-.3.6-.3zm-2.9 1.4h-.5c.1-.2.3-.2.5-.2v.2z" class="Ad"/><path d="M136.2 153.6v-.2h.2c.1-.1.2-.1.3 0h0c-.1.4-.3.3-.5.2h0z" class="AT"/><g class="Ad"><path d="M135.5 153.6c-.1.2-.3.2-.5.2.2-.2.4-.2.5-.2zm-1.7.5c-.1.2-.3.2-.5.2.2-.3.4-.2.5-.2zm12.5-7.7c0 .1 0 .2-.2.3.1-.1.1-.2.2-.3zm-.3.5c0 .1 0 .2-.2.3.1-.1.1-.3.2-.3zm-1.2 1.4c0 .1 0 .2-.2.3 0-.1 0-.3.2-.3zm-11.9 6.1c-.1.1-.2.2-.3.2v-.2h.3zm10.6-4.9c-.1.1-.2.2-.3.2.1-.1.2-.2.3-.2zm-.5.3c-.1.1-.2.2-.3.2.1-.1.2-.2.3-.2z"/><path d="M133.4 154.2c-.1.1-.2.2-.3.2 0-.1.1-.2.3-.2zm.9-.3c-.1.1-.2.2-.3.2 0-.2.2-.2.3-.2z"/><use xlink:href="#F"/><use xlink:href="#F" x="6.1" y="-2.5"/><path d="M136.6 153.4h-.3c.1-.1.2-.2.3-.2v.2z"/><path d="M136.9 153.1c-.1.1-.2.2-.3.2.1-.1.2-.2.3-.2zm2.6-1.1c-.1.1-.2.2-.3.2 0-.1.1-.2.3-.2z"/><use xlink:href="#F" x="2.5" y="-.8"/><path d="M138.7 152.7h-.3c.1-.1.2-.2.3-.2v.2c0-.1 0-.1 0 0zm-.8.1v.2h-.3c0-.2.2-.2.3-.2z"/><use xlink:href="#E" x="-28.6" y="35.8"/><use xlink:href="#E" x="-27" y="35"/><path d="M140.1 151.7l-.2.2.2-.2z"/><use xlink:href="#E" x="-26.4" y="34.7"/><path d="M140.7 151.4l-.2.2.2-.2z"/><use xlink:href="#E" x="-25.6" y="34.2"/><path d="M141.5 150.9l-.2.2.2-.2z"/><use xlink:href="#E" x="-25" y="33.9"/><path d="M142 150.6l-.2.2c0-.1.1-.1.2-.2z"/><use xlink:href="#E" x="-24.5" y="33.6"/><use xlink:href="#G"/><use xlink:href="#E" x="-24.2" y="33.3"/><use xlink:href="#G" x=".3" y="-.3"/><use xlink:href="#E" x="-23.6" y="32.8"/><use xlink:href="#E" x="-23.1" y="32.5"/><use xlink:href="#G" x="1.4" y="-1.1"/><use xlink:href="#E" x="-22.8" y="32.2"/><use xlink:href="#G" x="1.7" y="-1.4"/><path d="M144.5 148.8l-.2.2c0-.1.1-.2.2-.2zm.1-.2l-.2.2.2-.2z"/><use xlink:href="#G" x="2.5" y="-2.2"/><use xlink:href="#E" x="-21.7" y="31.1"/><use xlink:href="#G" x="2.8" y="-2.5"/><use xlink:href="#E" x="-21.4" y="30.8"/><use xlink:href="#G" x="3.1" y="-2.8"/><path d="M145.7 147.3l-.2.2.2-.2z"/><use xlink:href="#E" x="-20.9" y="30.3"/><path d="M146.2 146.7l-.2.2.2-.2zm.3-.5l-.2.2c.1 0 .1-.1.2-.2z"/><use xlink:href="#G" x="4.2" y="-4.4"/><use xlink:href="#E" x="-20" y="28.9"/><path d="M147 145.5l-.2.2c0-.1.1-.2.2-.2z"/><use xlink:href="#G" x="4.7" y="-5"/></g><path d="M162.1 123.8c.3-.1.4-.4.4-.6.1-.4.4-.8.7-1.1l.1.1c.1.1.1.2.1.3-.5 1.2-1.2 2.4-1.9 3.5-.5.9-1 1.8-1.7 2.5 0 0-.1.1-.2.1 0 0-.1 0-.1.1-.1.1-.1.2-.2.2 0 .1-.1.1-.1.2l-1.1 1.5c-.2.2-.2.5-.6.4 0-.3.2-.5.4-.8 1-1.3 1.9-2.6 2.7-4l1.3-2.1c.2-.1.1-.3.2-.3h0z" class="Ac"/><path d="M157.6 130.9c.5-.4.8-1 1.2-1.6.1-.2.3-.4.5-.5.1.1.1.2.1.3-.3.7-.9 1.2-1.2 1.8-.2.2-.3.4-.5.6 0 .1-.1.1-.1.2-.3.2-.5.7-.9.6v-.3c.3-.3.6-.7.9-1.1z" class="Az"/><path d="M162.1 123.8c0 .1 0 .2-.2.3.1-.2.1-.3.2-.3z" class="Aw"/><g class="At"><path d="M140.7 33h.2v.3h-.2V33zm-.6-.6h.2v.2l-.2-.2z"/><path d="M140.4 32.5v.2l-.2-.2h.2z"/><path d="M140.5 32.7v.2l-.2-.2h.2z"/><path d="M140.7 32.8v.2l-.2-.2h.2z"/></g><g class="AJ"><path d="M167.4 108c-.1-.8.2-1.6.3-2.4.1-.9.3-1.7.5-2.6.1-.1.1-.1.2 0 0 .9-.3 1.7-.4 2.6l-.4 2.4h-.2 0zm1.3-10.5c.1.1.2.2.2.3v2.5c0 .1 0 .2-.2.3 0 0 0-.1-.1-.1v-2.9l.1-.1z"/><path d="M167.1 109.9c0-.6 0-1.3.3-1.9.1.2.1.4 0 .6v.5c-.2.2 0 .4-.2.6v.2h-.1zm1.4-12.4v-.3c-.1-.4-.1-.7 0-1.1.3.4.1.9.2 1.4-.1.1-.1.1-.2 0zm0 3.4v-.3c.1-.1.1-.1.2 0-.1.5.1 1-.2 1.4 0 0 0-.1-.1-.1.1-.3 0-.6.1-1z"/></g><path d="M168.5 96.1v1.1c-.3-.4-.1-.8-.2-1.3.1-.1.1-.1.2 0v.2z" class="AF"/><path d="M167.4 110.5c0 .3.1.7-.2.9l-.1-.1a1.1 1.1 0 0 1 0-.8l.1-.1c.1.1.2.1.2.1z" class="AU"/><path d="M168.5 95.9h-.2v-.2a1.1 1.1 0 0 1 0-.8c.3.4.2.7.2 1z" class="AJ"/><path d="M168.4 95v.8c-.3-.3-.1-.6-.2-.9.1-.1.1-.1.2 0v.1zm0 8h-.2c0-.3-.1-.6.2-.8.1.2.1.4 0 .6v.2z" class="AF"/><path d="M168.4 102.8v-.6-.2c.1-.1.1-.1.2 0-.1.3 0 .6-.2.8z" class="AJ"/><path d="M167.4 108.6v-.6h.2c0 .2.1.4-.2.6zm-.1 1.1c0-.2-.1-.5.2-.6-.1.2 0 .4-.2.6zm-.2.2h.2v.6c-.1.1-.1 0-.2 0-.1-.3-.1-.5 0-.6h0z" fill="#b7b8b8"/><g class="AJ"><path d="M167.9 93.4v-.2c-.1-.1-.1-.3-.1-.4 0 0 0-.1.1-.1.2.2.1.4.2.6-.1.2-.1.2-.2.1 0 .1 0 .1 0 0z"/><path d="M168 94.1v-.2a.45.45 0 0 1 0-.5c.2.2.1.4.2.6 0 .1-.1.1-.2.1z"/></g><path d="M168 94.1h.2v.2a.45.45 0 0 1 0 .5c-.2-.3-.1-.5-.2-.7z" class="AF"/><path d="M168.2 94.7v-.5c.2.2.1.4.2.6h-.2v-.1zm-.5-1.9v-.2c-.1-.1-.1-.2 0-.3.2.1.1.3.2.5-.1.1-.1.1-.2 0z" class="AJ"/><path d="M167.7 92.4v.3c-.2-.1-.2-.3-.2-.5h.2v.2z" class="AF"/><g fill="#dfdddd"><path d="M144.3 37.2l.2.2c-.1-.1-.2-.1-.2-.2z"/><path d="M144.4 37.4l.2.2c0-.1-.1-.2-.2-.2zm.2.1l.2.2-.2-.2z"/><path d="M144.8 37.7l.2.2-.2-.2z"/></g><path d="M165.1 119.4c.6-1.7.8-3.6 1.2-5.3.1-.3 0-.7.2-1.1.1-.6.3-1.1.3-1.7 0-.2-.1-.5.3-.5.1.2 0 .4.1.6-.7 3.4-1 6.9-2.6 10h0c-.1.1-.1.2-.2.3h0c-.1.1-.1.2-.2.3h0c-.1.1-.1.2-.2.3h0c-.1.1-.1.2-.2.3h0c-.1.1-.1.2-.2.2s-.1-.1-.2-.2c.5-1.1 1.1-2.2 1.7-3.2z" fill="#b7b8b8"/><path d="M165.1 119.4c-.1.8-.6 1.5-.9 2.2-.1.4-.4.8-.5 1.2.1.2 0 .3-.1.5-.4.9-1 1.7-1.5 2.6-.1.2-.2.4-.5.3-.1-.1-.1-.2-.1-.3.6-1.5 1.6-2.8 2.2-4.3.2-.5.4-1.1.7-1.5.1-.2.2-.5.3-.7 0 0 .1 0 .1-.1.2.1.2.1.3.1z" class="BA"/><path d="M167.1 110.8c-.2.6-.3 1.2-.5 1.9 0 .1 0 .3-.2.3 0-1.1.3-2.1.6-3.1v.6c.2.1.2.2.1.3z" class="AJ"/><path d="M168.7 100.6h-.2v-3.1h.2v3.1z" class="AF"/><path d="M164.6 119.5c0-.4.2-.8.5-1.1-.1.3-.1.6-.2.9h0c0 .2-.1.2-.3.2.1.1 0 .1 0 0z" class="BB"/><path d="M168.5 102h-.2c.1-.4-.1-.8.2-1.1v1.1z" class="AF"/><path d="M166.5 110.8c0-.3-.1-.6.2-.8-.1.3 0 .6-.2.8z" fill="#898989"/><path d="M165.1 118.4c0-.2-.1-.5.2-.6-.1.2 0 .5-.2.6z" class="BB"/><g class="AF"><path d="M168 93.5v.5c-.2-.1-.1-.3-.2-.5.1-.1.2-.1.2 0z"/><path d="M167.7 92.8h.2v.5c-.2-.1-.2-.3-.2-.5z"/></g><g fill="#cbcbcb"><path d="M160.5 59.5c.4 1.3.8 2.6.9 3.9-.3-1.2-.8-2.5-.9-3.9z"/><path d="M160.2 58.1c.3.4.3.9.3 1.4-.2-.4-.3-.9-.3-1.4z"/><path d="M159.9 56.9c.3.4.3.8.3 1.3a3.08 3.08 0 0 1-.3-1.3zm-.6-1.9c.2.2.3.5.3.8h-.2c0-.3-.2-.5-.1-.8zm.5 1.3c.2.2.1.4.2.6-.3-.2-.2-.4-.2-.6z"/><path d="M159.6 55.8c.2.1.2.3.2.5-.2-.1-.2-.3-.2-.5zm-.5-1.2c.2.1.2.3.2.5-.2-.2-.2-.4-.2-.5z"/></g><path d="M164.6 120c-.4 1.2-1 2.4-1.7 3.6l-1.3 2.4c-.1.1-.1.2-.1.3s-.1.1-.1.2c-.1.1-.1.2-.2.3s-.1.2-.2.3c0 .1-.1.2-.2.2-.1.1-.1.2-.2.2l-.9 1.3c-.1.2-.2.5-.6.4v-.3c.1-.1.1-.2.2-.3h0c0-.1.1-.1.2-.2.8-.9 1.3-2 2-3 .5-.8 1-1.7 1.4-2.6.1-.2.2-.3.2-.5.1-.1.1-.1.1-.2v-.1c0-.1.1-.1.1-.2 0 0 0-.1.1-.1 0-.1.1-.1.1-.2h.1c.4-.5.5-1.1.8-1.6 0-.1.1-.2.2-.2h0c.1 0 .1.2 0 .3z" class="BB"/><path d="M163.5 121.4c0-.1 0-.2.2-.3v.3c-.1 0-.1.1-.2 0 .1.1 0 0 0 0z" class="Ac"/><g class="AT"><path d="M116.3 159.5h-.5c.5-.4 1.2-.4 1.7-.6l5.5-1.6 2.2-.6c1-.2 1.9-.7 3-.9.2 0 .4-.1.6-.1.1-.1.2-.1.3 0 0 .1 0 .2-.1.2-.6.4-1.3.6-2 .8-3.3.9-6.5 2-9.8 2.9-.2 0-.5.2-.9-.1zm13.9-4.3h.3c.1-.1.2-.1.3 0 0 .1.1.1 0 .2-.3.2-.6.3-.9.3-.1 0-.1-.1-.2-.1v-.2h.3l.2-.2z"/><path d="M129.1 155.5h.2a.45.45 0 0 1 .5 0h0c-.1.4-.4.3-.6.2h0c-.1-.1-.1-.1-.1-.2zm2.2-.7h.2c.1-.1.3-.1.4-.1s.1.1.1.1c-.1.3-.3.2-.5.2-.1 0-.1-.1-.2-.1 0 .1 0 0 0-.1z"/></g><path d="M131.9 154.8h-.5c.1-.2.3-.1.5-.2.1.1.1.2 0 .2h0z" class="Ad"/><path d="M131.9 154.8v-.2h.2c.1-.1.2-.1.3 0h0c0 .4-.2.4-.5.2h0zm-1 .2h.2c.1-.1.2-.1.3 0h0c-.1.3-.3.3-.5.2h0c-.1-.1-.1-.1 0-.2-.1 0-.1 0 0 0z" class="AT"/><path d="M129.8 155.5h-.5c.1-.2.3-.2.5-.2v.2zm-.7 0v.2h-.3c.1-.2.2-.2.3-.2zm1.8-.5v.2h-.3c0-.2.1-.2.3-.2zm.4 0h-.3c.1-.1.2-.2.3-.2v.2zm1.1-.3h-.3c.1-.1.2-.2.3-.2v.2zm-2.2.5l-.2.2.2-.2z" class="Ad"/><g class="Ac"><path d="M163.4 121.7c0-.1 0-.2.2-.3h0c.1.1.1.2 0 .3h0c-.1 0-.1.1-.2 0 0 .1 0 0 0 0z"/><path d="M163.2 122c0-.1 0-.2.2-.3h0c.1.1.1.2 0 .3h0c-.1.1-.1.1-.2 0h0z"/></g><path d="M163.7 123.8h.2c0 .1 0 .2-.2.3-.1-.1-.1-.2 0-.3z" class="Ax"/><g class="Aj"><path d="M161.6 127.8a.55.55 0 0 1 .3-.5c.1.3-.1.4-.3.5z"/><path d="M161.3 128.3a.55.55 0 0 1 .3-.5v.3l-.2.2h-.1zm1.9-3c0-.2 0-.4.2-.5 0 .2 0 .4-.2.5z"/><path d="M163.5 124.7c0-.1 0-.2.2-.3 0 .1-.1.2-.2.3zm-.5.9c0-.1 0-.2.2-.3 0 .1 0 .3-.2.3zm-.4.7c0-.1 0-.2.2-.3-.1.1-.1.2-.2.3zm-.5.7c0-.1 0-.2.2-.3 0 .2-.1.3-.2.3z"/><path d="M162 127.3c0-.1 0-.2.2-.3-.1.2-.1.3-.2.3zm.3-.6l.2-.2-.2.2zm.1-.3l.2-.2c-.1.1-.1.2-.2.2zm.3-.5l.2-.2c-.1.1-.1.2-.2.2z"/><path d="M162.9 125.8l.2-.2c-.1.1-.2.1-.2.2zm.5-.9l.2-.2c-.1 0-.2.1-.2.2zm-4.1 6.4c.1-.4.3-.7.6-.9v.3c-.2.1-.3.2-.3.5l-.2.2c0-.1-.1-.1-.1-.1zm1.1-1.6a.55.55 0 0 1 .3-.5v.3c-.1.1-.2.1-.3.2zm-.5.6l.2-.2c-.1.1-.1.2-.2.2zm.2-.3l.2-.2-.2.2z"/><path d="M160.2 129.8l.2-.2c-.1.1-.1.2-.2.2zm-1.4 1.9l.2-.2c-.1.1-.1.2-.2.2z"/><path d="M159 131.6l.2-.2c-.1.1-.2.1-.2.2z"/><path d="M159.1 131.4l.2-.2c-.1.1-.1.2-.2.2zm1.6-2.2a.55.55 0 0 1 .3-.5c0 .3-.1.4-.3.5z"/><path d="M161 128.8l.2-.2v.2h-.2z"/><path d="M161.2 128.6c0-.1 0-.2.2-.3v.3h-.2z"/></g><path d="M130.9 155.2c.2 0 .4 0 .5-.2.2 0 .5.1.6-.2.2 0 .4 0 .5-.2.3 0 .6-.1.9-.2.9-.3 1.9-.5 2.8-.9.2 0 .4 0 .5-.2.5-.1.9-.1 1.3-.5.3 0 .6-.1.8-.3.1-.1.2-.1.3-.2.6-.1 1-.5 1.6-.6 0 0 0 .1.1.1v.1c0 .1-.1.1-.1.2l-.1.1c-.1.1-.2.1-.3.2l-.1.1c-.1 0-.2.1-.2.1-.1 0-.1 0-.2.1-.1 0-.2 0-.2.1-.1 0-.1 0-.2.1-.1 0-.1.1-.2.1l-.1.1c-.1 0-.1.1-.2.1h-.2c-.1 0-.2 0-.2.1 0 0-.1 0-.1.1-.1 0-.2.1-.2.1-.1 0-.1 0-.2.1-.1 0-.2.1-.2.1-.1 0-.1 0-.2.1-.1 0-.2.1-.3.1s-.1 0-.2.1c-.1 0-.2.1-.3.1s-.1 0-.2.1c-.1 0-.2.1-.3.1s-.1 0-.2.1c-.3 0-.5.1-.7.2s-.3.1-.5.2c-.1 0-.1 0-.2.1-.2 0-.3.1-.5.1h-.2c-.1 0-.3 0-.4.1-.1 0-.1 0-.2.1-.1 0-.2.1-.3.1h-.2c-.1 0-.3.1-.4.1h-.2c-.1 0-.3 0-.4.1-.1 0-.1 0-.2.1-.1 0-.2.1-.3.1-.1.1-.2.1-.3.1-.1.1-.3.1-.4.2h-.2c-.2 0-.3.1-.5.1a.76.76 0 0 0-.4.2c-.1 0-.1 0-.2.1-.2 0-.4.1-.6.3-.1 0-.1.1-.2.1-.2 0-.4.1-.5.2-.1 0-.2 0-.2.1l-11.2 3.3c-2.1.6-4.1 1.4-6.2 1.6-1.4.1-2.7.3-4.1.1-1-.1-2.1-.1-3.1.1-.6.1-1.1 0-1.7.1l-8.5.4c-1.1.1-2.2.1-3.3.1l-5.4.2-4.4.1c-.9 0-1.8-.2-2.7-.3-.2 0-.5 0-.5-.4h.9.2c.3.3.6.1.9.2h.2c.2.2.5.1.7.2 1 0 1.9.1 2.9 0 1.5-.2 3 .1 4.5-.3h.3c1.5.1 3-.1 4.5-.2 1.2-.1 2.3 0 3.5-.1 1.1-.1 2.2 0 3.3-.2 1.2-.1 2.3 0 3.5-.2 2.1-.2 4.2-.1 6.3-.1 1.7 0 3.3-.3 4.9-.7 1.2-.3 2.3-.8 3.5-1.2l6.9-2 3.8-1.1c.7-.2 1.4-.4 2.1-.8.2 0 .5.1.6-.2-.1-.2.2-.3.6-.5z" fill="#7e8282"/><path d="M76.2 162.2c.3.3.6.2 1 .2l2.1.3c2.2.1 4.4-.1 6.6-.2l3.4-.1c1.1-.1 2.1-.1 3.2-.1 2-.2 4-.3 6-.3l2.8-.1c0 .1 0 .2-.1.2-.7.3-1.5.2-2.2.2l-6.1.4-8.2.4c-3.8.3-7.5.2-11.1-.8-.2-.1-.5 0-.6-.3.3-.3.6-.2.9-.1.7-.1 1.5 0 2.3.3z" fill="#898c8c"/><g fill="#858989"><path d="M71.5 161.2c.5 0 1 .1 1.4.3l-.1.1c-.5.2-.9-.2-1.3-.3v-.1z"/><path d="M73.8 161.7h-.9s0-.1-.1-.1c0 0 0-.1.1-.1.3.1.6-.1.9.2zm-3.1-.6c.3 0 .6-.1.8.2-.3.2-.5.1-.8 0v-.2z"/><path d="M69.9 160.9c.3 0 .6-.1.8.2-.3.2-.5.1-.8 0v-.2zm-1.4-.3c.3 0 .6-.1.8.2l-.1.1c-.3 0-.5.1-.7-.1v-.2zm-1.2-.3c.2 0 .5-.1.6.2l-.1.1c-.2-.1-.5.1-.5-.3h0z"/><path d="M67.9 160.5c.2 0 .5-.1.6.2-.2 0-.5.2-.6-.2h0zm1.4.3c.2 0 .5-.1.6.2-.2 0-.5.2-.6-.2h0z"/></g><path d="M72.9 161.7l2.5.6c.8.2 1.5.2 2.3.4.9.2 1.8 0 2.6.3.4.1.7-.2 1.1-.1 1.9.1 3.8-.1 5.7-.2l3.4-.1c1.2-.1 2.3 0 3.5-.1l4.8-.3c.8-.1 1.6-.1 2.4-.1.4-.2.9 0 1.3-.1.1 0 .2.1.2.2s-.1.1-.2.2c-.9.2-1.7-.1-2.6.2-2.2.3-4.4.2-6.6.4l-4.3.2c-.2.1-.4.1-.6.1-1 0-1.9-.1-2.9.1-.1 0-.3.1-.4.1-1 .1-2.1-.1-3.1.1-.8.1-1.7.1-2.5 0-.4-.2-.8-.1-1.3-.2h-.4c-.3-.1-.6-.2-.9-.2h-.2c-.2-.1-.5-.1-.7-.1h-.2c-.3-.1-.5-.1-.8-.1h-.2c-.2-.1-.4-.1-.6-.1H74c-.2-.1-.4-.1-.6-.1-.1 0-.1 0-.2-.1-.4-.1-.7-.1-1.1-.3 0 0 0-.1-.1-.1v-.2c.4-.5.6-.5.9-.4h0z" fill="#a0a4a4"/><path d="M69.6 161.7h-.3c-.9-.3-1.9-.5-2.8-.7l-4.9-1.3-4.2-1.3c-1.2-.4-2.5-.8-3.6-1.4-.1-.2-.3 0-.5-.2-.3-.4-.9-.3-1.1-.8.1 0 .3 0 .4.1 1.2.7 2.5 1.1 3.8 1.6 2.5 1 5.1 1.6 7.6 2.3l5.6 1.4c-.1.1.1.1 0 .3z" class="AY"/><path d="M69.6 161.7c-.1-.1-.1-.2-.2-.3.9.1 1.8.4 2.7.5.4.2.8.2 1.3.3h0c.2.2.4 0 .6.2h.2c.2.2.4 0 .6.2h.2c.3.2.6 0 .9.2h.2c.2.2.5 0 .8.2s.6 0 .9.2h.3c.4.2.9-.1 1.3.2h2.7c.5-.1 1-.2 1.4 0 0 .2-.2.2-.3.3-1.5.1-3 .1-4.6 0-.2 0-.3-.1-.4-.2-1.2-.1-2.3-.4-3.4-.5-1.5-.2-2.9-.5-4.3-1-.4-.3-.7-.3-.9-.3z" fill="#b9bcbc"/><path d="M72.9 161.7h-.8c-.9-.3-1.9-.4-2.8-.6l-3.2-.8c-.6-.1-1.2-.4-1.8-.5a.47.47 0 0 1 .6-.1c.3.1.6.1.8.1.2.2.4.1.6.2.2.3.6.3.9.3.2.2.4.1.6.2.2.2.4.1.6.2.2.3.5.1.8.2.2.2.4.1.6.2.2.3.5.1.8.2.2.3.5.1.8.2.4.3.9.3 1.4.3.1-.2.1-.1.1-.1z" fill="#898c8c"/><path d="M64 159.5c.1.1.1.2.2.3l-4.1-1.1c-.1-.1-.2-.1-.3-.2h-.2c-.1-.1-.2-.1-.3-.2h-.2s0-.1-.1-.1c0 0 0-.1.1-.1.2 0 .4 0 .6.1 1.4.6 2.8 1 4.3 1.3z" class="AD"/><g class="AY"><path d="M47.1 152.8c-.6-.2-.9-.7-1.3-1.1.6.2.9.7 1.3 1.1zm4.7 3.1a2.72 2.72 0 0 1-1.6-.8c.6.2 1.1.5 1.6.8zm-3.5-2.1a2.73 2.73 0 0 1-1.2-.9c.5.1.9.4 1.2.9zm1.1.9c-.5-.1-.7-.4-.9-.8.5.1.7.5.9.8z"/><path d="M50.2 155.2c-.3-.1-.6-.2-.8-.5.4 0 .6.1.8.5z"/></g><path d="M58.3 158c.3 0 .6.1.8.3-.1.1-.2.1-.3 0h-.2c-.1-.1-.2-.1-.3-.2h0v-.1z" class="AD"/><path d="M50.2 154.7h.3c.1.1.1.2.2.3a.55.55 0 0 1-.5-.3z" class="AM"/><path d="M57.9 157.8c.2 0 .4 0 .5.2-.1.1-.2.1-.3 0h-.2c-.1-.1-.1-.1 0-.2-.1 0 0 0 0 0h0z" class="AD"/><g class="AM"><path d="M56.9 157.7c.1 0 .2 0 .3.2-.1-.1-.2-.1-.3-.2z"/><path d="M57.9 157.8v.2c-.1 0-.2 0-.3-.2h.3zm.1.2h.3v.2c-.1-.1-.2-.1-.3-.2z"/><path d="M58.3 158.1c.1 0 .2 0 .3.2-.1 0-.2 0-.3-.2zm.5.2h.3v.2c-.1-.1-.2-.1-.3-.2zm.5.1c.1 0 .2 0 .3.2-.1 0-.3 0-.3-.2z"/></g><path d="M52.1 156.1c-.1 0-.2 0-.3-.2.1 0 .2.1.3.2z" class="AY"/><g class="AM"><path d="M59.7 158.6c.1 0 .2 0 .3.2-.1-.1-.2-.1-.3-.2zm-8.7-3.4c.1 0 .2 0 .3.2-.1-.1-.2-.1-.3-.2z"/><path d="M50.7 155c.1 0 .2 0 .3.2-.1 0-.2-.1-.3-.2z"/></g><path d="M48.5 153.9l-.2-.2c.1.1.1.2.2.2z" class="AY"/><path d="M56.1 157.3c.1 0 .1.1.2.1 0 0-.1 0-.2-.1zm.5.2c.1 0 .1.1.2.1-.1 0-.1 0-.2-.1z" class="AM"/><g class="AI"><path d="M28.2 137l-.2-.2h.2v.2z"/><path d="M28 136.9l-.2-.2c.1.1.2.1.2.2zm-1.1-1.3l-.2-.2h.2v.2zm3.3 3.3l-.2-.2h.2v.2zm-3.9-4.1l-.2-.2h.2v.2z"/><path d="M26.1 134.7l-.2-.2c.1.1.2.1.2.2zm4.4 4.5h-.2v-.2h.2v.2z"/><path d="M30.4 139.1h-.2v-.2h.2v.2zm-3.6-3.6l-.2-.2h.2v.2z"/><path d="M26.6 135.3l-.2-.2h.2v.2z"/></g><path d="M92.1 163.3h-2.6c-.2 0-.5-.1-.7.2h-1.5l-4.7.2-2.2.1c-.8 0-1.6 0-2.3-.2-.1-.1 0-.2.1-.2h.9c3.3.1 6.5-.4 9.8-.4l7.6-.3 6.8-.4c.9.1 1.7 0 2.6.1h1.8c.6 0 1.2.1 1.7-.1.2-.1.4-.1.7-.1.2 0 .5 0 .6.2-.6.2-1.2.3-1.9.3h-5.6c-.3 0-.6-.1-.8.2h-2.7c-.2 0-.5-.1-.7.2h-2.7c-.2 0-.5-.1-.7.2h-2.7c-.3-.2-.6-.3-.8 0z" fill="#d5d8d8"/><path d="M110.7 162.3h-.6c0-.4.3-.3.5-.4l2.8-.7c.1 0 .2-.1.2-.1.2 0 .3-.1.5-.1l5.3-1.6c.4-.1.8-.3 1.3-.1.2.5-.3.2-.4.4-.2.2-.4 0-.6.2-2.2.9-4.5 1.4-6.7 2-.8.2-1.5.5-2.3.4z" class="Al"/><g class="AN"><path d="M120.2 159.7c.1-.2.4-.1.5-.3l.1-.1c.1-.1.2-.1.4-.2.1 0 .1 0 .2-.1.2 0 .3 0 .5.1-.2.3-.7.2-.9.5-.4.1-.6.1-.8.1zm-.6.1c.2-.2.4-.1.6-.2-.1.3-.4.2-.6.2zm-41.4 3.6v.2c-.3 0-.7.1-.9-.2h.8.1zm-3-.3c.3 0 .6-.1.8.2-.3-.1-.6.1-.8-.2z"/><path d="M76.3 163.3c.3 0 .6-.1.8.2-.3-.1-.6 0-.8-.2zm-1.9-.3c.3 0 .6-.1.8.2-.2-.1-.5 0-.8-.2zm-.9-.2c.3 0 .6-.1.8.2h-.8v-.2z"/></g><g class="Al"><path d="M135.5 155.2h-.2c-.1.2-.3 0-.5.2h-.2c-.1.1-.2.1-.3.2h-.3c-.1.1-.2.1-.3.2h-.2c-.1.1-.3 0-.5.2h-.2c-.1.1-.2.1-.3.2h-.2c-.1.1-.3 0-.5.2h-.2c-.2.2-.4.2-.6.3h-.2c-.1.1-.2.1-.3.2h-.2c-.7.1-1.4.4-2.1.6-.5.2-1.1.4-1.7.4v-.1c.3-.4.8-.3 1.2-.5l7.7-2.3c.7-.2 1.3-.4 1.9-.7.3-.1.5-.3.8-.1.1.1.1.1 0 .2s-.2.1-.3.2h0c-.1.1-.2.1-.3.2h0c-.1.1-.2.1-.3.2h-.2c-.1.1-.2.1-.3.2h-.2c-.1.1-.2.1-.3.2h-.2c-.1.1-.2.1-.3.2h-.2c.4-.4.2-.6 0-.4zm-9 2.5c-.8.3-1.6.7-2.5.8v-.1c.7-.6 1.5-.9 2.5-.7-.1-.1 0-.1 0 0zm-4.7 1.5h-.6c.4-.7 1-.6 1.6-.6l.1.1c-.3.4-.8.2-1.1.5z"/><path d="M124 158.4c-.3.3-.7.3-1.1.3.2-.5.6-.5 1.1-.3h0zm2.9-.9c-.1.2-.3.1-.5.2.1-.4.3-.3.5-.2h0z"/></g><g class="AN"><path d="M138.5 154.1v-.2c.1-.3.4-.4.7-.5.9-.4 1.8-.9 2.6-1.4l.6-.3c1.4-1 2.8-2 3.9-3.3.1-.1.2-.2.3-.2s.1 0 .2.1c-.1.3-.3.5-.3.8l-.2.2-.2.2-.2.2-.2.2-.2.2-.2.2c-.5.1-.7.4-.9.8l-.2.2c-.9.6-1.9 1.1-2.7 1.9-.2 0-.5.1-.6.3-.7.2-1.3.5-1.9.9 0-.5-.2-.4-.5-.3zm-3 1.1c.1-.2.3-.2.5-.2v.2h-.5zm.7-.2c.1-.1.2-.2.3-.2-.1.2-.2.2-.3.2zm.4-.2c.1-.1.2-.2.3-.2 0 .2-.1.2-.3.2zm.5-.1c.1-.1.2-.2.3-.2 0 .2-.2.2-.3.2zm.5-.2c.1-.1.2-.2.3-.2-.1.2-.2.2-.3.2zm.3-.1c.1-.1.2-.2.3-.2-.1.1-.2.2-.3.2z"/><path d="M138.2 154.2c.1-.1.2-.2.3-.2-.1.2-.2.2-.3.2zm-66.3 8.3c.3 0 .6-.1.8.2-.2-.1-.5.1-.8-.2z"/><path d="M72.7 162.7c.3 0 .6-.1.8.2-.3-.1-.6 0-.8-.2zm58.6-6.3c.2-.2.4-.3.6-.3-.1.1-.1.2-.2.3h-.4zm.8-.3c.1-.2.3-.2.5-.2v.2h-.5zm1.1-.3c.1-.2.3-.2.5-.2v.2h-.5zm.6-.2c.1-.1.2-.2.3-.2 0 .2-.1.2-.3.2z"/><path d="M134.4 155.5c.1-.1.2-.2.3-.2v.2h-.3zm-3.5 1.1c.1-.1.2-.2.3-.2-.1.1-.2.2-.3.2zm1.8-.7c.1-.1.2-.2.3-.2 0 .2-.1.2-.3.2zm2.2-.6c.1-.2.3-.2.5-.2v.2h-.5z"/></g><path d="M53.2 156.9c.2 0 .4 0 .5.2h-.5v-.2z" class="Aa"/><path d="M78.2 163.4H78v-.2h4.6c.2 0 .5.1.7-.1.6-.2 1.1 0 1.7-.1s1.2 0 1.8-.1h1.5c.6-.1 1.3 0 2-.2l9.9-.5c2.1-.1 4.2-.4 6.3-.2 1.9.2 3.8-.2 5.6-.6.3-.1.6-.2.9-.2.2 0 .4 0 .5.2-1 .4-2 .6-3 .8-.2 0-.3 0-.4.2h-.6c-.6.2-1.2-.1-1.7.2h-1.9c-.8-.2-1.7.1-2.5-.1-.1 0-.3.1-.4.1-1.1-.1-2.1.2-3.2.2-1.7-.1-3.4.2-5.1.2l-3.3.1c-1.2.1-2.3 0-3.5.2-1.1.1-2.3 0-3.4.2-2.2 0-4.3-.1-6.3-.1z" fill="#c5c9c9"/><path d="M146.8 148.1h-.2c-.2-.7.5-1 .8-1.5.1-.1.1-.2.2-.2 0-.1.1-.1.1-.2s.1-.1.2-.2c0-.1.1-.1.1-.2 0 0 0-.1.1-.1 0-.1.1-.1.1-.2l.1-.1s0-.1.1-.1c0-.1.1-.1.1-.2s.1-.1.1-.2c0 0 0-.1.1-.1 0-.1.1-.1.1-.2s.1-.1.1-.2.1-.1.1-.2l.2-.2c0-.1.1-.1.1-.2l.1-.1c0-.1.1-.1.1-.2.1-.1.1-.2.2-.3.1-.2.2-.3.3-.5.2-.2.3-.5.4-.8l2.4-3.6c.2-.2.3-.5.6-.5.1.1.1.2 0 .3l-2.4 3.6c-.7.8-1.1 1.8-1.7 2.7-.1.1-.1.2-.2.3h0l-.2.2h0l-.2.2h0c-.1.1-.1.2-.2.3h0l-.2.2h0c-.1.1-.1.2-.2.3h0l-.2.2h0c-.1.1-.1.2-.2.3h0c-.1.1-.1.2-.2.3h0l-.2.2c.2.3-.1.8-.5 1.2z" class="Am"/><path d="M161.8 126.7c-.1.4-.3.7-.5 1-.9 1.4-1.8 2.7-2.9 4-.3.3-.4.7-.8.9 0 0 0-.1-.1-.1.1-.7.6-1.1 1-1.6 1-1.2 1.8-2.6 2.7-3.9.1-.2.2-.4.4-.4.1.1.2.1.2.1z" class="Ae"/><path d="M163.5 124.1c-.3.4-.3.9-.8 1.1 0 0 0-.1-.1-.1-.1-.6.6-.9.7-1.4h.2c.1.2.1.3 0 .4z" class="AU"/><g class="Ae"><path d="M157.6 132.7c-.2.5-.5 1-.9 1.2l-.1-.1v-.2c0-.1 0-.1.1-.2 0-.1.1-.2.1-.3.2-.1.3-.5.8-.4h0zm4.5-6.4a.55.55 0 0 1-.3.5c-.2-.2 0-.3.1-.5h.1c0-.1.1-.1.1 0zm-7.2 9.6a.55.55 0 0 1-.3.5l-.1-.1v-.2c0-.1 0-.1.1-.2l.1-.1h.1c0 .1 0 .1.1.1z"/><path d="M155.2 135.6c0 .2-.1.3-.3.3l-.1-.1v-.1c0-.1.1-.1.1-.2h.1c.1.1.1.1.2.1zm-1.7 2.5v-.3h.1c.1.1 0 .3-.1.3zm.5-.8c0 .1 0 .2-.2.3l-.1-.1v-.2s0-.1.1-.1c0 .1.1.1.2.1-.1 0 0 0 0 0zm.3-.4c0 .1 0 .2-.2.3l-.1-.1v-.2s0-.1.1-.1.1 0 .2.1c-.1-.1 0 0 0 0z"/><path d="M154.5 136.6c0 .1 0 .2-.2.3-.1-.1-.1-.2-.1-.3 0 0 0-.1.1-.1l.2.1c-.1-.1-.1 0 0 0z"/></g><path d="M149.3 144.7c0-.1 0-.2.2-.3-.1.1-.1.2-.2.3zm-.5.6c0-.1 0-.2.2-.3v.3h-.2z" class="AO"/><path d="M155.7 135c0 .1 0 .2-.2.3l-.1-.1v-.2s0-.1.1-.1c.1.1.1.1.2.1z" class="Ae"/><path d="M163.5 124.1v-.3c.1-.1.1-.1.2 0v.3h-.2 0z" class="Ay"/><g class="Ae"><path d="M156 134.5c0 .1 0 .2-.2.3l-.1-.1v-.2s0-.1.1-.1c.1.1.1.1.2.1zm6.6-9c0 .1 0 .2-.2.3l-.1-.1v-.2c0-.1 0-.1.1-.1s.1 0 .2.1c-.1-.1 0 0 0 0z"/><path d="M162.4 125.8c0 .1 0 .2-.2.3l-.1-.1v-.2c0-.1.1-.1.1-.1.1 0 .2 0 .2.1h0z"/></g><g class="AO"><path d="M149 145l.2-.2-.2.2z"/><path d="M149.1 144.8l.2-.2c-.1.1-.1.2-.2.2z"/></g><g class="Ae"><path d="M153.8 137.7l-.2.2c0-.2.1-.3.2-.2h0zm.3-.5l-.2.2c0-.2.1-.2.2-.2h0zm.5-.8l-.2.2c0-.2.1-.2.2-.2h0zm.8-.9l-.2.2s0-.1-.1-.1v-.1c.1-.1.2-.1.3 0-.1-.1 0 0 0 0z"/><path d="M155.5 135.3l-.2.2h0s0-.1-.1-.1v-.1h.3 0z"/><path d="M155.9 134.8l-.2.2s0-.1-.1-.1v-.1h.3 0z"/><path d="M156.2 134.4l-.2.2s0-.1-.1-.1v-.1c.1 0 .2-.1.3 0-.1-.1-.1 0 0 0z"/><path d="M156.3 134.2l-.2.2s0-.1-.1-.1v-.1h.3z"/><path d="M156.5 134.1l-.2.2s0-.1-.1-.1v-.1c.1-.1.2-.1.3 0-.1-.1 0 0 0 0z"/><path d="M156.6 133.9l-.2.2h0s0-.1-.1-.1v-.1c.2-.1.3 0 .3 0h0zm5.7-7.8l-.2.2s0-.1-.1-.1v-.1c.2-.1.2-.1.3 0h0zm.4-.8l-.2.2s0-.1-.1-.1v-.1h.3z"/></g><path d="M162.7 125.3h-.2c0-.1 0-.2.2-.2v.2z" class="AU"/><g class="AO"><path d="M148.5 145.8c0-.1 0-.2.2-.3v.3h-.2z"/><path d="M148.7 145.5l.2-.2c-.1.1-.2.1-.2.2zm-.5.8c0-.1 0-.2.2-.3v.3h-.2z"/><path d="M148.4 145.9l.2-.2-.2.2zm-.4.7c0-.1 0-.2.2-.3v.3h-.2z"/><path d="M147.9 146.7l.2-.2-.2.2z"/></g><g class="AU"><path d="M164.6 121.4c0-.2.1-.5.2-.7.9-1.7 1.3-3.5 1.6-5.4l.8-3.9c.1-.1.1-.1.2 0l-.6 3.6c-.3 1.6-.6 3.3-1.3 4.9-.3.5-.4 1.1-.9 1.5zm-.8 1.4l.2-.2c0 .2 0 .4-.2.5l-.1-.1s0-.1.1-.2zm.7-1.1c0-.1 0-.2.2-.3-.1.1-.1.3-.2.3z"/><path d="M164.3 122c0-.1 0-.2.2-.3 0 .2-.1.3-.2.3z"/><path d="M164.1 122.3c0-.1 0-.2.2-.3 0 .2 0 .3-.2.3zm-.1.4c0-.1 0-.2.2-.3-.1.1-.1.2-.2.3zm-.2.4c0 .1 0 .2-.2.3 0 0 0-.1-.1-.1.1-.1.1-.2.3-.2h0z"/><path d="M163.7 123.8h-.2c-.1-.2-.1-.3.2-.3v.3z"/></g><path d="M152.9 137.3c.4-.2.5-.7.8-.9.1-.1.2-.3.4-.1.1.3-.1.6-.3.8-1.2 1.5-2.2 3.3-3.3 4.8 0 .1-.1.2-.2.3 0 .1-.1.1-.1.2-.1.1-.1.2-.2.2-.1.1-.1.2-.2.2-.1.1-.2.1-.3.2-.1 0-.1 0-.2-.1v-.2l2-3c.7-.7 1.1-1.6 1.6-2.4z" class="An"/><path d="M152.9 137.3c-.3.9-.9 1.7-1.5 2.4l-2 3h-.2c-.1-.3.1-.4.2-.6a.78.78 0 0 0 .4-.4l2.7-4.1c.1 0 .2-.2.4-.3z" class="BC"/><g fill="#929595"><path d="M156.6 132.3c.3-.3.6-.5.9-.8.2.3 0 .4-.1.6-.5.5-.9 1.1-1.4 1.6-.1 0-.1.1-.2.1h-.1-.1s-.1 0-.1-.1c0-.4.4-.5.5-.8l.2-.2h0c.1-.1.2-.3.3-.5h0c0 .3.1.2.1.1h0zm-2.2 3c.2-.6.6-1 1.1-1.4 0 0 .1.1.1.2s-.1.2-.1.3l-.1.1-.1.1-.1.1-.1.1-.1.1-.1.1c0 .1-.1.1-.2.2s-.1.1-.2.1c.1.1 0 .1-.1 0h0z"/><path d="M154 135.9c0-.3.2-.5.5-.6.1 0 .1.1.1.2v.1.1c0 .1-.1.1-.1.2l-.2.2c-.2-.1-.2-.1-.3-.2 0 .1 0 .1 0 0zm0 .4c-.1.1-.2.1-.3.2a.55.55 0 0 1 .3-.5c.1 0 .1.1 0 .3 0-.1 0-.1 0 0z"/></g><g class="Az"><path d="M156.5 132.5a.55.55 0 0 1-.3.5c0-.3.1-.4.3-.5z"/><use xlink:href="#E" x="-10.6" y="16.1"/><path d="M156.6 132.3l-.2.2c.1 0 .2-.1.2-.2z"/></g><path d="M149.3 142.8h.2v.2c.1.2 0 .3-.1.4l-3.5 5.1c-.5.6-1.1 1-1.7 1.5-.8.5-1.5 1.3-2.4 1.7-.4.2-.7.6-1.3.4v-.2l2.7-1.8c1.3-1 2.5-2 3.2-3.4.3-.5.8-.9.9-1.5.4-.2.4-.8.8-.9.1-.1.2-.3.3-.5h0c.1-.1.2-.3.3-.5h0l.1-.1v-.1l.1-.1.1-.1c.1 0 .2-.1.3-.1-.1 0 0 0 0 0z" class="AP"/><path d="M149.5 142.2c-.1.2-.1.4-.2.6l-.2.2h0l-.2.2h0-.2c.2-.5.4-.8.8-1z" class="Ac"/><g class="BC"><path d="M148.8 143.3a.55.55 0 0 1-.3.5c0-.3.1-.4.3-.5z"/><path d="M148.5 143.8a.55.55 0 0 1-.3.5c0-.3.1-.5.3-.5zm.3-.7h.2l-.2.2v-.2z"/></g><path d="M139 152.5c-.1.1-.2.2-.3.2v-.2h.3z" class="AT"/><path d="M163.2 122h.2c0 .1 0 .2-.2.3v-.3z" class="Av"/><g class="Az"><path d="M159.5 128.6c0 .1 0 .2-.2.3 0-.1 0-.2.2-.3z"/><use xlink:href="#G" x="17.2" y="-21.9"/></g><path d="M155.4 134.4c.1-.1.1-.2.2-.3 0-.1.1-.1.2-.2h0l.2-.2c.5-.6.9-1.2 1.5-1.7.1-.1.2-.3.2-.5.1-.2.3-.4.5-.6.3-.7.8-1.1 1.3-1.7.4-.3.6-.8.9-1.2.2-.2.3-.4.5-.7l.1.1v.3c-1.2 2-2.5 3.8-4 5.5-.4.5-.7 1.1-1.3 1.3h-.1c-.3 0-.3 0-.2-.1z" class="AQ"/><path d="M158 130.9c0 .3-.2.5-.5.6.1-.2.3-.4.5-.6z" fill="#929595"/><path d="M167.3 111.4h-.2v-.6-.3h.2v.9z" fill="#c2c1c1"/><path d="M155.4 134.5c.7-.5 1.2-1.2 1.7-1.9a37.18 37.18 0 0 0 3.3-4.5c.1-.2.2-.4.3-.5.1-.2.2-.3.3-.5 0-.1.1-.1.1-.2s.1-.2.1-.2c0-.1.1-.1.1-.2.1-.1.2-.2.2-.3l.1-.1c.1-.2.3-.3.4-.5.5-1 1.2-1.9 1.6-2.9h.2v.3c-.1.1-.2.2-.2.3-.1.1-.2.2-.2.3-.2.5-.8.8-.8 1.4l-.2.2h0c0 .1-.1.1-.2.2v.2c0 .1-.1.1-.2.2v.2c0 .1-.1.1-.2.2h0c0 .1-.1.1-.2.2-.1.2-.1.3-.2.5-.4.5-.9 1.1-1.2 1.7-.8 1.4-1.8 2.5-2.7 3.8-.1.1-.2.3-.2.5-.3.2-.6.5-.8.8-.1 0-.1.1-.2.2h0c-.1.1-.1.2-.2.3h0c0 .1-.1.1-.2.2h0c0 .1-.1.1-.2.2h0c0 .1-.1.1-.2.2 0 .1-.1.1-.2.2h0c-.1.1-.1.2-.2.3h0c0 .1-.1.1-.2.2h0c-.1.1-.1.2-.2.3h0c0 .1-.1.1-.2.2h0c0 .1-.1.1-.2.2h0l-.2.2h0c-.1.1-.1.1-.2 0s-.1-.2 0-.3c0-.1.1-.1.1-.2 0 0 0-.1.1-.1.1-.1.2-.2.2-.3.9-.7 1-.9 1.1-1z" fill="#c0c2c2"/><path d="M164.6 120v-.5c.1-.1.2-.1.3-.2 0 .3-.1.5-.3.7z" fill="#959696"/><path d="M161.5 126.3c0-.1 0-.2.2-.3v.3h-.2z" class="AQ"/><g class="Av"><path d="M163.5 121.7v-.3h.2c0 .1-.1.3-.2.3z"/><path d="M163.4 122v-.3h.2c-.1.2-.1.3-.2.3z"/></g><g class="AQ"><path d="M161.2 126.7c0-.1 0-.2.2-.3l.1.1c0 .1 0 .2-.1.3h0c-.1-.1-.1 0-.2-.1 0 .1 0 0 0 0z"/><path d="M161 127c0-.1 0-.2.2-.3.1.1.1.2 0 .3h0c-.1.1-.1.1-.2 0 .1.1 0 .1 0 0z"/><path d="M160.7 127.3l.2-.2v.1c-.1.2-.1.2-.2.1h0z"/><path d="M160.9 127.2l.2-.2c0 .2-.1.2-.2.2h0zm.4-.8l.2-.2c0 .2 0 .3-.2.2h0z"/></g><path d="M102.6 161.9h-1.4v-.2c1.4.1 2.7-.3 4-.2.4 0 .7 0 1.1.1.1 0 .3.1.4 0 1.4-.2 2.8-.1 4.2-.4 2.1-.4 4-1.1 6.1-1.7l4-1.2 4.4-1.3c.7-.2 1.5-.5 2.2-.6.1 0 .1.1.1.2s-.1.2-.2.2-.2.1-.3.1-.2 0-.3.1c-.1 0-.1 0-.2.1-.1 0-.2.1-.3.1h-.2c-.1 0-.2 0-.4.1-.1 0-.1 0-.2.1-.1 0-.2.1-.3.1s-.1 0-.2.1c-.1 0-.2.1-.3.1s-.2 0-.3.1c-.1 0-.2.1-.4.1h-.2c-.1 0-.2 0-.4.1-.1 0-.1 0-.2.1-.1 0-.2 0-.3.1-.1 0-.1 0-.2.1-.1 0-.2.1-.2.1-.1 0-.1 0-.2.1-.1 0-.2.1-.3.1h-.2-.2c-.1 0-.2.1-.3.1s-.1 0-.2.1c-.2 0-.3.1-.5.2l-9.4 2.7c-.1 0-.1.1-.2.1-.3.1-.6 0-.9.2h-.3c-1.5 0-3 .4-4.5.1-.7-.1-1.5-.1-2.3 0 0-.1-.3 0-.5-.2z" class="AV"/><path d="M140.5 152c.9-.3 1.7-.8 2.4-1.4.4-.3.7-.7 1.2-.8v.2c0 .1-.1.1-.1.2l-.2.2-.2.2-.2.2c-.1.1-.2.1-.3.2l-.3.3c-.1 0-.1.1-.2.1-.7.5-1.5.8-2.1 1.4-1.4.8-2.9 1.4-4.5 1.8-.3 0-.5.1-.8-.1-.1-.4.4-.1.4-.3.1-.1.3 0 .5-.2h0c.1-.1.3 0 .5-.2h0c.1-.1.3 0 .5-.2h0c.1-.1.3 0 .5-.2h0c.1-.1.2-.1.3-.2h0c.1-.1.2-.1.3-.2h.2c.1-.1.2-.1.3-.2s.2-.1.3-.2h0c.1-.1.3 0 .5-.2h0c.1-.1.2-.1.3-.2h0c.2-.1.3-.2.5-.3h0c.1.2.2.2.2.1h0z" class="AD"/><path d="M135.9 154.1c-.1.2-.4.1-.5.3 0 0-.1 0-.1.1h-.3l-.1-.1c.3-.3.6-.4 1-.3z" class="AP"/><path d="M128.3 156.4c.1-.3.4-.3.6-.3.1.2 0 .3-.1.4s-.2.1-.3.1c0-.1-.1-.1-.2-.2z" class="AV"/><path d="M134.3 154.5h.2a.45.45 0 0 1 .5 0c0 .4-.3.3-.5.2-.2 0-.2-.1-.2-.2z" class="AD"/><path d="M140.4 152.2c-.1.2-.2.3-.5.3a.55.55 0 0 1 .5-.3z" class="AP"/><path d="M128.8 156.4c.1-.1.1-.2.2-.3h.2c.1-.1.1-.1.2 0v.1.1c-.1.1-.1.2-.2.2-.2 0-.2 0-.4-.1h0z" class="AD"/><g class="AP"><path d="M139.6 152.7c-.1.2-.3.2-.5.2.1-.3.3-.2.5-.2zm-1.9.7c-.1.2-.3.2-.5.2.2-.2.4-.2.5-.2z"/><path d="M137.3 153.6c-.1.2-.3.2-.5.2.1-.2.3-.2.5-.2z"/><path d="M136.8 153.8c-.1.2-.3.2-.5.2.1-.3.3-.2.5-.2zm-.5.1c-.1.2-.3.2-.5.2.2-.2.4-.2.5-.2zm-1.4.6h-.5c.1-.2.3-.1.5-.2 0 .1.1.1 0 .2h0z"/><path d="M134.3 154.5v.2l-.1.1c-.1 0-.2.1-.3 0-.1 0-.1-.1-.1-.1.1-.2.3-.2.5-.2zm-1.1.3c.1-.2.3-.2.5-.2 0 0 .1.1 0 .1v.1c-.1.1-.2.1-.3.1s-.2 0-.2-.1zm-1.1.4c.1-.2.3-.2.5-.2l.1.1c0 .1 0 .1-.1.2-.1 0-.2.1-.3 0s-.2-.1-.2-.1z"/><use xlink:href="#H"/></g><g class="AV"><path d="M131.5 155.3h.3s.1.1 0 .1v.1c-.1.1-.2.1-.3.1s-.1 0-.2-.1v-.2h.2zm-.8.3c.1-.1.2-.2.3-.2.1-.1.1-.1.2 0v.2c-.1 0-.1.1-.2.1s-.2 0-.3-.1c0 .1 0 0 0 0z"/><use xlink:href="#H" x="-1.3" y=".5"/><path d="M129.6 155.9c.1-.2.3-.1.5-.2 0 0 .1.1 0 .1v.1c-.1 0-.1.1-.2.1-.1.1-.2 0-.3-.1.1.1 0 .1 0 0z"/></g><path d="M130.1 155.9v-.2h.2.3c-.1.4-.3.4-.5.2z" class="AD"/><g class="AV"><path d="M129.3 156.1h-.2c.1-.2.3-.2.5-.2l.1.1c0 .1 0 .1-.1.2-.1 0-.2 0-.3-.1z"/><use xlink:href="#H" x="-3.8" y="1.3"/></g><path d="M127.7 156.6h.3s.1.1 0 .1v.1c-.1.1-.2.1-.3.1s-.1-.1-.2-.1v-.2h.2zm.5 0v-.2h.2.2l.1.1v.1c-.1 0-.1.1-.2.1-.2-.1-.3-.1-.3-.1z" class="AD"/><path d="M131.2 155.5h-.2c.1-.1.2-.2.3-.2v.2h-.1z" class="AP"/><path d="M131.9 155.3v-.2h.2.2l.1.1v.1c-.1 0-.1.1-.2.1-.2 0-.2 0-.3-.1zm.7-.1v-.2h.2c.1-.1.1-.1.2 0v.2h-.4zm.6-.4h.2l.1.1v.1c-.1 0-.1.1-.2.1s-.1 0-.2-.1v-.2h.1z" class="AV"/><path d="M133 154.8v.2c-.1.1-.1.1-.2 0h-.2c.2-.1.3-.2.4-.2z" class="AP"/><path d="M133.7 154.8v-.2h.2.2l.1.1v.1c-.1 0-.1.1-.2.1-.2 0-.3 0-.3-.1z" class="AV"/><g class="AP"><use xlink:href="#F" x="3.1" y="-.5"/><path d="M138.4 153.1c-.1.1-.2.2-.3.2 0-.1.1-.2.3-.2z"/><use xlink:href="#F" x="3.9" y="-.8"/><use xlink:href="#F" x="5" y="-1.3"/><use xlink:href="#F" x="4.2" y="-1"/><use xlink:href="#G" x="-1.9" y="1.7"/></g><path d="M112.3 161.6c-.7.3-1.4.3-2.1.5-1 .3-2 .1-3 .3-.4.1-.8 0-1.2-.1-1-.1-1.9-.1-2.9 0-.2 0-.3.1-.5.1-1.7-.1-3.4.1-5.1.2l-5 .3c-.8.1-1.6 0-2.3 0-.5.1-.9.1-1.4 0 .2-.2.5-.2.7-.1 1.8.1 3.7-.2 5.5-.2l3.4-.1c.5 0 1-.2 1.5-.2.9-.2 1.8.1 2.7-.2h0c1.6-.3 3.3 0 4.9-.1 1 0 2-.2 2.9-.2h0c.3-.2.7 0 .9-.2h0c.3-.1.6-.2 1 0z" fill="#b3b7b7"/><path d="M110.4 161.7c-.1.1-.2.1-.3.1-1 0-2 .2-3 .2h-4.5v-.2h.8c.7-.1 1.5-.1 2.2 0 1.6.2 3.2-.1 4.8-.1z" class="AW"/><g fill="#b3b7b7"><path d="M85.1 163.1h-1.7H82c.2-.2.5-.1.7-.2h2.4v.2z"/><path d="M88.3 163h-1.6c-.5.1-.9.1-1.4 0 .2-.2.5-.1.7-.2h2.2c.2 0 .2.1.1.2.1-.1.1 0 0 0z"/></g><path d="M102.6 162c-.2.2-.4.2-.6.2h-2c.2-.2.4-.2.6-.2h2z" class="AW"/><path d="M88.3 163v-.2h.5 1.4c-.3.3-.6.1-1 .1-.2.1-.5.1-.9.1zm-2.9 0h1.4c-.5.3-1.1.1-1.7.2v-.2h.3z" fill="#b9bcbc"/><g fill="#acb0b0"><path d="M73.3 162.2c-.4 0-.9 0-1.3-.3.5 0 1 .1 1.3.3zm6 .9c-.4-.1-.9.2-1.3-.2.4.1.9-.1 1.3.2zm-3.5-.4c-.3 0-.7.1-.9-.2.3 0 .7-.1.9.2zm1.9.3c-.3 0-.7.1-.9-.2.3.1.6-.1.9.2z"/><path d="M76.8 162.8c-.3 0-.6.1-.8-.2.3.1.6 0 .8.2zm-2-.3c-.2 0-.5.1-.6-.2.1.1.4 0 .6.2zm-.8-.2c-.2 0-.5.1-.6-.2.2.1.4 0 .6.2z"/></g><path d="M103.4 162.3h1.9c.2 0 .4 0 .6.2H104c-.3 0-.5 0-.6-.2zm4.3.2c.5-.3 1.1-.1 1.7-.2-.5.4-1.1.1-1.7.2z" class="Al"/><path d="M113.5 161.4h-.5c0-.4.4-.3.6-.4l7.5-2.3c.1 0 .1-.1.2-.1.2 0 .3 0 .5-.1h.1.2c.2 0 .3-.1.5-.1s.3-.1.5-.2l.9-.3c.2 0 .3-.1.5-.2.1-.1.3 0 .5-.1h.2c.2 0 .3-.1.5-.1s.4-.1.5-.1.1 0 .2-.1c.2 0 .3-.1.5-.1s.3-.1.5-.2c.1 0 .3 0 .4-.1.2 0 .3 0 .4.1-.3.3-.8.1-1.1.5-.2 0-.4 0-.5.2-.9.1-1.7.3-2.5.8-.4 0-.8 0-1.1.3-.6 0-1.2.1-1.7.5-.1.1-.3 0-.5.2-.5 0-1 .2-1.5.3l-4.8 1.5h-.4c-.1.1-.2.1-.3.2-.2-.1-.2-.1-.3-.1z" fill="#bdc1c1"/><path d="M113.7 161.4c.1-.1.2-.2.3-.2-.1.2-.2.2-.3.2z" fill="#c5c9c9"/><path d="M120.7 159.4c.1-.2.3-.2.5-.2-.1.2-.3.2-.5.2z" class="Al"/><path d="M128 157h-.5l-.1-.1v-.1c.1 0 .1-.1.2-.1.2 0 .3 0 .5-.1h.2c.1 0 .2-.1.4-.1h.2c.2 0 .3-.1.5-.2l6.3-1.8a.55.55 0 0 0 .5-.3c.2.1.3 0 .4 0l4.1-1.7c.3-.2.6-.5 1-.6.1 0 .2-.1.2.1-.7.6-1.5 1-2.3 1.4l-1.1.5h-.3c-2.3 1-4.7 1.4-7 2.2l-2.6.8c-.2.1-.4.1-.6.1z" fill="#babdbd"/><path d="M147.6 146.6c0 .3-.3.5-.5.7-.2.3-.4.5-.5.9-1.1 1.5-2.5 2.5-4 3.5h-.2c-.1-.4.3-.4.5-.6h0c.1-.1.3-.2.4-.3 0 0 .1-.1.2-.1l.1-.1.1-.1.1-.1.1-.1.1-.1.1-.1.1-.1.1-.1.1-.1.1-.1s.1 0 .1-.1h.1l.1-.1s.1 0 .1-.1l.1-.1.1-.1.1-.1.1-.1.1-.1.1-.1.3-.3c.7-.8 1.1-1.7 1.8-2.4.1 0 .1-.1.2 0-.2.3-.2.4-.2.5 0-.1 0 0 0 0z" class="Af"/><path d="M142.9 151.1c-.2.2-.3.4-.5.6-.1.2-.3.2-.5.3-.3-.2-.5.1-.7.2s-.3.3-.5.2c.1-.1.1-.2.2-.3.7-.2 1.3-.7 2-1z" class="BD"/><path d="M121.3 158.8c-.3.3-.7.3-1 .4-1.7.4-3.2 1-4.9 1.5l-1.7.5c-.2.1-.5.1-.7.3-.3 0-.5.1-.8.2h-.9c.6-.4 1.3-.4 2-.6l4-1.2c1.2-.4 2.5-.7 3.7-1 .1-.2.2-.2.3-.1z" class="AW"/><path d="M154.8 135.5v.3s.1.1 0 .1v.1h0l-.2.2h0c-.1.1-.2.3-.3.5h0c-.1.1-.1.2-.2.3h0c-.1.1-.2.3-.3.5h0c-.1.1-.2.3-.3.5-.8.9-1.3 1.9-2 2.8-.3.5-.7.9-1 1.4-.1.1-.1.2-.2.2h-.1v-.2l3.3-5c.2-.3.4-.5.4-.8.1-.1.1-.2.1-.2l.1-.1.1-.1c.1-.1.1-.2.1-.2h0s.1-.1.1-.2l.1-.1c.1-.1.2-.1.3 0-.1-.1-.1 0 0 0z" class="AR"/><g class="BE"><path d="M150.2 142.2c.1-.1.2-.1.3-.2-.1.3-.2.6-.5.8l-.1-.1v-.2c0-.1.1-.1.1-.2.2.1.2-.1.2-.1z"/><path d="M150.1 142.8a.55.55 0 0 1-.3.5l-.1-.1v-.2c0-.1 0-.1.1-.1l.1-.1h.1c0-.1 0 0 .1 0h0z"/><path d="M149.8 143.3c0 .1 0 .2-.2.3l-.1-.1v-.2-.1l.1-.1.2.2h0zm-.8 1.1c0 .1 0 .2-.2.3l-.1-.1v-.2s0-.1.1-.1c0 0 .1 0 .2.1-.1-.1 0 0 0 0z"/></g><path d="M148.7 144.9v.2h-.2c-.1-.2-.1-.3.2-.3 0-.1 0-.1 0 .1 0-.1 0 0 0 0zm-.3.4v.2h-.2c-.1-.2-.1-.3.1-.3.1 0 .1 0 .1.1zm-.4.5v.2h-.2c-.1-.2-.1-.3.1-.3.2-.1.2 0 .1.1h0zm-.3.5v.2h-.2 0c-.1-.2-.1-.3.1-.3.1-.1.2 0 .1.1z" class="Af"/><g class="BE"><path d="M147.6 146.4h.2l-.2.2v-.2zm.1-.1v-.2-.1h.1v.1c0 .1 0 .1-.1.2z"/><path d="M147.9 145.9h.2l-.2.2s-.1-.1 0-.2c-.1.1 0 .1 0 0zm.1-.1v-.2-.1h.1v.1c.1.1 0 .1-.1.2z"/><path d="M148.2 145.5h.2l-.2.2v-.2zm.2-.2v-.2-.1h.1v.1c0 .1-.1.2-.1.2z"/><path d="M148.5 145h.2l-.2.2v-.2c0 .1 0 0 0 0zm.2-.1v-.2s.1 0 .1-.1c0 0 .1 0 .1.1-.1 0-.2.1-.2.2zm.4-.7l-.2.2s-.1-.1 0-.1v-.1h.2z"/><path d="M149.3 144.1l-.2.2h0v-.1-.1c.1 0 .1-.1.2 0-.1-.1 0 0 0 0z"/><path d="M149.4 143.9l-.2.2h0v-.2h.2z"/></g><path d="M149.4 143.9h-.2v-.1-.1l.1-.1h.1.1c0 .2 0 .3-.1.3z" class="Af"/><path d="M149.6 143.6l-.2.2s0-.1-.1-.1v-.1c.2-.1.3-.1.3 0h0z" class="BE"/><path d="M156.5 133.9c0-.1 0-.2.2-.3v.3h-.2 0zm.1-.3l.2-.2-.2.2z" class="Am"/><path d="M162 126.3l.2-.2v.2h-.2z" class="AU"/><g class="Am"><path d="M154.3 136.6a.55.55 0 0 1 .3-.5v.3l-.2.2h-.1z"/><path d="M154.6 136.1l.2-.2-.2.2z"/><path d="M154.8 135.9v-.2h.2v.2h-.2z"/><path d="M154.9 135.8l.2-.2-.2.2z"/><path d="M155.1 135.6l.2-.2v.2h-.2 0zm-1.6 2.2a.55.55 0 0 1 .3-.5v.3l-.2.2h-.1z"/><path d="M153.8 137.3a.55.55 0 0 1 .3-.5v.3l-.2.2h-.1z"/><path d="M154.1 136.9c0-.1 0-.2.2-.3v.3h-.2zm1.3-1.6c0-.1 0-.2.2-.3v.3h-.2 0z"/><path d="M155.5 135l.2-.2v.2h-.2z"/><path d="M155.7 134.8c0-.1 0-.2.2-.3v.3h-.2z"/><path d="M155.9 134.5l.2-.2v.2h-.2z"/></g><path d="M162.3 125.8l.2-.2v.2h-.2zm.1-.3l.2-.2v.2h-.2zm-.3.6l.2-.2v.2h-.2z" class="AU"/><g class="Am"><path d="M155.2 135.5l.2-.2v.2h-.2 0zm.8-1.1l.2-.2v.2h-.2 0z"/><path d="M156.2 134.2l.2-.2v.2h-.2z"/><path d="M156.3 134.1l.2-.2v.2h-.2 0z"/></g><path d="M147.7 146.1c-.1.1-.2.2-.2.3-.8.8-1.3 1.8-2 2.7-.1.1-.2.1-.3.2h0c-.1 0-.1.1-.2.2h0l-.2.2h0l-.2.2h0l-.2.2h0l-.2.2h-.2s-.1 0-.1.1c0 0-.1 0-.1-.1v-.2c.1-.3.4-.4.6-.5.7-.6 1.3-1.3 1.8-2l2-3 .9-1.3h.2l.1.1c0 .1 0 .2-.1.2h0s-.1.1-.1.2 0 .1-.1.2h0c0 .1-.1.1-.2.2h0l-.1.1-.1.1-.1.1-.1.1c-.1.1-.1.2-.1.2h0c-.1.1-.1.2-.2.3s-.2.2-.2.3-.1.1-.2.2-.2.2-.2.3-.1.1-.2.2-.2.2-.2.3l.5-.3z" class="BF"/><path d="M150.2 142.2c0 .1 0 .2-.2.3l-.1-.1v-.1-.2c.2 0 .3 0 .3.1h0z" class="AR"/><g class="BF"><path d="M149.8 142.8c0-.1 0-.2.2-.3l.1.1c0 .1 0 .2-.1.2h0c-.1 0-.1.1-.2 0 0 .1 0 0 0 0z"/><path d="M149.6 143l.2-.2v.1.1h0-.2 0zm.5-.7v.2c-.1.1-.1.1-.2 0h0l.2-.2zm.1-.1h-.2l.2-.2v.2z"/></g><g class="An"><path d="M155.7 133.9l-.2.2v-.2h.2z"/><use xlink:href="#E" x="-10.9" y="16.9"/></g><g class="AQ"><path d="M155.4 134.5c-.1.2-.1.3-.2.5-.1.1-.2.1-.3.1l-.1-.1v-.2c.1 0 .1-.1.2-.2h0l.2-.2h0c.1.1.1.1.2.1h0z"/><path d="M154.8 135.2l.2-.2c.1.1.1.2 0 .3h-.2c-.1 0-.1-.1 0-.1z"/></g><g class="An"><path d="M154.5 135.5v-.2h.2s0 .1.1.1c0 0 0 .1-.1.1h0-.2z"/><path d="M154.8 135.2v.2s-.1 0-.1.1c0 0-.1 0-.1-.1.1-.1.1-.2.2-.2z"/><use xlink:href="#E" x="-11.7" y="17.8"/><use xlink:href="#G" x="12.8" y="-15.8"/><path d="M155.4 134.5h-.2l.2-.2v.2zm-1.3 1.6l-.2.2v-.3h.2c.1 0 .1 0 0 .1.1-.1.1 0 0 0z"/></g><path d="M154.5 135.6c0 .1 0 .2-.2.3 0 0-.1-.1 0-.1v-.1s.1 0 .2-.1z" class="AQ"/><path d="M154.3 135.8v.2h-.2 0c.1-.1.1-.2.2-.2z" class="An"/><path d="M154.5 135.5h.2l-.2.2v-.2z" class="AQ"/><g class="BC"><path d="M149 143.1l.2-.2-.2.2z"/><path d="M149.1 143l.2-.2-.2.2z"/></g><path d="M160.9 127.2l.2-.2h.2c0 .3-.2.5-.5.6v-.3s0-.1.1-.1zm.4-.8l.2-.2h.2a.55.55 0 0 1-.3.5c-.1-.1-.1-.2-.1-.3z" class="BA"/><path d="M154.9 135.3v-.3h.3c0 .2-.1.3-.3.3z" class="AR"/><path d="M161.2 127v-.3h.2c-.1.2-.1.3-.2.3z" class="BA"/><path d="M154.8 135.3h.2l-.2.2c-.1-.1-.1-.1 0-.2-.1 0 0 0 0 0h0z" class="AR"/><path d="M105.5 161.9h-2.2c.8-.3 1.5-.3 2.2 0z" fill="#a0a4a4"/><path d="M124 158c-.3.2-.6.3-.9.3 0 0 0-.1-.1-.1 0 0 0-.1.1-.1h0c.1-.1.2-.1.3-.2h.2s.2 0 .4.1c-.1-.1 0-.1 0 0z" class="AK"/><path d="M111.3 161.6c-.3.3-.6.1-.9.2.3-.4.6-.2.9-.2z" class="AW"/><path d="M126.2 157.3c-.2.2-.4.1-.6.2 0 0 0-.1-.1-.1 0 0 0-.1.1-.1h.2c.1-.1.2-.1.4 0z" class="AK"/><path d="M122 158.6c-.1.2-.3.1-.5.2-.1 0-.1-.1-.1-.1s0-.1.1-.1h.2c0-.1.1-.1.3 0z" class="AW"/><path d="M121.5 158.6v.2h-.1-.3c0-.2.2-.2.4-.2z" class="AS"/><g class="AK"><path d="M122.6 158.4c-.1.2-.3.2-.5.2-.1 0-.1-.1-.1-.1s0-.1.1-.1h.2.3c-.1 0 0 0 0 0z"/><path d="M123 158.3c-.1.2-.3.2-.5.2-.1 0-.1-.1 0-.1 0 0 0-.1.1-.1h.2c0-.1.1-.1.2 0h0zm1.5-.5c-.1.2-.3.1-.5.2-.1 0-.1-.1 0-.1 0 0 0-.1.1-.1h.2c-.1-.1 0-.1.2 0-.1 0-.1 0 0 0zm3.1-.9v.2h-.5s0-.1-.1-.1c0 0 0-.1.1-.1h.3c.1-.1.1-.1.2 0z"/></g><path d="M124 157.8v.2h-.5c.1-.2.3-.2.5-.2z" class="AS"/><path d="M127.1 157c-.1.2-.3.2-.5.2 0 0 0-.1-.1-.1 0 0 0-.1.1-.1h.2c.1-.1.2-.1.3 0h0z" class="AK"/><path d="M126.2 157.3h-.5c.1-.2.3-.1.5-.2v.2h0z" class="AS"/><path d="M124.9 157.7c-.1.2-.3.2-.5.2-.1 0-.1-.1 0-.1 0 0 0-.1.1-.1h.3c0-.1.1-.1.1 0zm1.3-.4v-.2h.2c.1-.1.2-.1.3 0-.2.3-.4.2-.5.2zm-.7.2c-.1.2-.3.2-.5.2-.1 0-.1-.1-.1-.1s0-.1.1-.1h.2c.1-.1.2-.1.3 0h0z" class="AK"/><g class="AS"><path d="M125.1 157.5v.2h-.1-.2c0-.2.1-.2.3-.2zm.4 0h-.3c.1-.1.2-.2.3-.2v.2zm-1.1.2v.2h-.3c.1-.2.2-.2.3-.2zm2.2-.5h-.3c.1-.1.2-.2.3-.2v.2zm.5-.2h-.3c.1-.1.2-.2.3-.2v.2zm-3.7 1c-.1.1-.2.2-.3.2 0-.2.1-.2.3-.2z"/><path d="M127.6 156.9h-.2l.2-.2h.2c.1 0 .1.1.1.1s0 .1-.1.1h-.2zm-4.6 1.4h-.3c.1-.1.2-.2.3-.2v.2zm-.4 0v.2h-.3c0-.2.1-.2.3-.2z"/><path d="M122 158.6h-.3c.1-.1.2-.1.3-.2v.2h0z"/></g><path d="M121.9 158.6v-.2h.2v.2h-.2 0z" class="AW"/><path d="M136.2 154.2c0 .4-.4.4-.6.4l-5.1 1.4c-.4.1-.7.5-1.2.3 0 0 0-.1-.1-.1 0 0 0-.1.1-.1.1-.1.2-.1.3-.2h0c.1-.1.2-.1.3-.2h.2c.2 0 .4 0 .5-.2h.2c.1-.1.2 0 .3-.2h.2c.1-.1.2-.1.3-.2h.3c.1-.1.2-.1.3-.2h.2c.1-.1.2-.1.3-.2h.3c.1-.1.2 0 .3-.2h.2c.1-.1.3 0 .5-.2h.2c.1-.1.2 0 .3-.2.2 0 .5.1.6-.2.1-.1.3 0 .5-.2.1.7.3.7.6.5z" class="AK"/><path d="M143.5 150.8c-.2.2-.4.3-.6.3.1-.1.2-.3.3-.3.1-.1.2-.1.3 0z" class="BD"/><g class="BF"><path d="M143.5 150.8h-.3c.1-.1.2-.2.3-.2 0 0 .1.1 0 .2.1-.1 0 0 0 0h0z"/><use xlink:href="#J"/><path d="M143.7 150.5l.2-.2s0 .1.1.1c0 0 0 .1-.1.1h0-.2z"/><use xlink:href="#J" x="0.3" y="-0.3"/><path d="M144 150.2l.2-.2v.1.1h0-.2z"/></g><path d="M135.4 154.4c-.1.2-.3.2-.5.2v-.2h.5z" class="AD"/><path d="M128.8 156.6h-.2c-.1.1-.1.1-.2 0v-.2h.3c.2 0 .2.1.1.2.1-.1 0 0 0 0z" class="AS"/><path d="M128.8 156.6v-.2h.3c.1-.1.1-.1.2 0-.1.2-.3.2-.5.2z" class="AK"/><g class="AS"><path d="M129.6 156.1c-.1.1-.2.2-.3.2v-.2h.3z"/><path d="M129.3 156.4h-.2l.2-.2v.2z"/></g><g class="AD"><path d="M134.3 154.7c-.1.1-.2.2-.3.2v-.2h.3z"/><path d="M133.8 154.8c-.1.2-.3.2-.5.2v-.2h.3.2zm-1.2.4c-.1.1-.2.2-.3.2v-.2h.3z"/><path d="M132.1 155.3c-.1.1-.2.2-.3.2v-.2h.2.1zm-.6.2c-.1.1-.2.2-.3.2v-.2h.2.1z"/><path d="M131 155.6c-.1.1-.2.2-.3.2v-.2h.3zm-1.1.3c-.1.1-.2.2-.3.2v-.2h.3z"/></g><path d="M128.4 156.7h-.2c-.1.1-.1.1-.2 0v-.2h.2.2v.2z" class="AS"/><path d="M128 156.7h.2c-.1.2-.3.2-.5.2v-.2h.3zm.4 0v-.2h.2.2c-.2.2-.3.2-.4.2z" class="AK"/><path d="M133.2 155c-.1.1-.2.2-.3.2v-.2h.2.1z" class="AD"/><g class="BD"><path d="M145.2 149.2c.1-.1.2-.2.3-.2 0 .2-.1.2-.3.2zm-1.7 1.4h.2l-.2.2v-.2z"/><path d="M143.7 150.5h.2l-.2.2v-.2z"/><path d="M143.8 150.3h.2l-.2.2v-.2z"/><path d="M144 150.2h.2l-.2.2v-.2z"/><path d="M144.1 150.2v-.2h.2l-.2.2zm.3-.2l.2-.2c0 .1-.1.1-.2.2z"/><path d="M144.6 149.8l.2-.2c-.1.1-.1.2-.2.2z"/><path d="M144.8 149.7l.2-.2c-.1.1-.2.1-.2.2z"/><path d="M144.9 149.5l.2-.2c-.1.1-.1.2-.2.2z"/><path d="M145.1 149.4l.2-.2c-.1.1-.2.1-.2.2z"/></g><path d="M154.1 135.9h.2l-.2.2v-.2zm.7-.6v.2h-.1-.1v-.2h.2z" class="AQ"/><g class="AR"><path d="M149.9 142.5h.2v.3h-.2v-.3zm-.3.5h.2v.3h-.2v-.3z"/><path d="M149.8 143v-.2h.2c-.1.1-.2.1-.2.2z"/></g><path d="M149.5 143.6v-.2c.1 0 .1-.1.2 0v.2h-.2 0z" class="Af"/><path d="M149.6 143.4h-.2l.2-.2v.2zm-.8 1c0-.1 0-.2.2-.3 0 0 .1.1 0 .1v.1.2c0-.1-.1-.1-.2-.1h0z" class="AR"/><g class="Af"><path d="M148.7 144.7c0-.1 0-.2.2-.3v.3h-.2zm-1 1.4l.2-.2v.2h-.2zm.3-.5l.2-.2v.2h-.2zm.4-.4l.2-.2v.2h-.2zm.6-1v-.2h0s.1 0 .1-.1c0 0 .1 0 .1.1v.2h-.2z"/><path d="M149.3 143.9v.2h-.2 0v-.1-.1h0 .2 0z"/></g><g class="AR"><path d="M149.3 143.9h0-.2l.2-.2v.2z"/><path d="M149.3 143.8l.2-.2v.2h-.2 0zm-.2.1v.2h-.2c.1-.1.2-.1.2-.2z"/></g><defs><path id="A" d="M162.6 74.9c.2.1.1.3.1.5-.1-.2-.1-.3-.1-.5z"/><path id="B" d="M159.3 60.5c.2.1.1.3.1.5-.1-.1-.1-.3-.1-.5z"/><path id="C" d="M164 79.5c.1.1.2.2.2.3-.2 0-.2-.1-.2-.3z"/><path id="D" d="M163.7 78.3c.1.1.2.2.2.3-.2-.1-.2-.2-.2-.3z"/><path id="E" d="M166.8 116.9l-.2.2c.1-.1.1-.2.2-.2z"/><path id="F" d="M134.9 153.8c-.1.1-.2.2-.3.2.1-.2.2-.2.3-.2z"/><path id="G" d="M142.4 150.3l-.2.2c.1-.1.2-.1.2-.2z"/><path id="H" d="M131.5 155.3c.1-.2.3-.2.5-.2 0 0 .1.1 0 .1v.1c-.1 0-.1.1-.2.1s-.2 0-.3-.1z"/><path id="I" d="M137.1 29.6l.2.2c-.1 0-.1 0-.2-.1v-.1z"/><path id="J" d="M143.5 150.6l.2-.2s0 .1.1.1c0 0 0 .1-.1.1h0c-.1.1-.1.1-.2 0h0z"/></defs></svg>