<?xml version="1.0" encoding="utf-8"?>
<!-- Generator: Adobe Illustrator 24.2.0, SVG Export Plug-In . SVG Version: 6.00 Build 0)  -->
<svg version="1.1" id="Layer_1" xmlns="http://www.w3.org/2000/svg" xmlns:xlink="http://www.w3.org/1999/xlink" x="0px" y="0px"
	 viewBox="0 0 431 190" style="enable-background:new 0 0 431 190;" xml:space="preserve">
<style type="text/css">
	.st0{fill:#D0D0D0;}
	.st1{clip-path:url(#SVGID_2_);}
	.st2{fill:#4F4F4F;}
	.st3{fill:#FFFFFF;}
	.st4{fill:#D8D8D8;}
	.st5{fill:#757575;}
	.st6{fill:#8F8F8F;}
	.st7{fill:#5F5F5F;}
	.st8{fill:#797979;}
	.st9{fill:#DCDCDC;}
	.st10{fill:#BEBEBE;}
</style>
<g>
	<path class="st0" d="M406.6,181.5H24.4c-9.6,0-17.4-7.8-17.4-17.4V25.9c0-9.6,7.8-17.4,17.4-17.4h382.2c9.6,0,17.4,7.8,17.4,17.4
		v138.2C424,173.7,416.2,181.5,406.6,181.5z"/>
	<g>
		<path d="M406.6,180c-6.8,0-13.5,0-20.3,0c-17.4,0-34.8,0-52.2,0c-23.9,0-47.8,0-71.8,0c-26.4,0-52.9,0-79.3,0
			c-24.7,0-49.5,0-74.2,0c-18.9,0-37.8,0-56.7,0c-9,0-18,0-27,0c-9.3,0-16.6-6.9-16.7-16.4c0-5.9,0-11.8,0-17.6c0-24.5,0-49,0-73.5
			c0-15.5-0.2-31.1,0-46.6c0.1-8.8,7.1-15.8,15.9-15.9c0.5,0,1,0,1.5,0c3.5,0,6.9,0,10.4,0c15.3,0,30.5,0,45.8,0
			c22.7,0,45.4,0,68.2,0c26.1,0,52.3,0,78.4,0c25.5,0,50.9,0,76.4,0c20.8,0,41.6,0,62.4,0c11.8,0,23.5,0,35.3,0
			c4.1,0,8-0.1,11.8,2.1c5.2,3,8,8.4,8,14.3c0,2,0,4.1,0,6.1c0,21.9,0,43.9,0,65.8c0,20.7,0,41.4,0,62c0,1.2,0,2.5,0,3.7
			C422.4,172.9,415.4,179.9,406.6,180c-1.9,0-1.9,3,0,3c9-0.1,17.1-6.6,18.6-15.6c0.3-2,0.3-4,0.3-6.1c0-7.8,0-15.7,0-23.5
			c0-25.5,0-51,0-76.5c0-9.4,0-18.8,0-28.2c0-2.2,0-4.4,0-6.6c0-5.3-1.8-10.4-5.7-14.2C415.3,8,409.7,7,403.7,7c-4.2,0-8.4,0-12.7,0
			c-16.5,0-33,0-49.5,0c-23.7,0-47.4,0-71.1,0c-26.7,0-53.4,0-80.1,0c-25.3,0-50.5,0-75.8,0C94.8,7,75,7,55.3,7
			c-9.9,0-19.7,0-29.6,0c-0.8,0-1.6,0-2.4,0C14.4,7.6,7,14.4,5.7,23.2C5,28.1,5.5,33.4,5.5,38.3c0,24,0,48,0,72
			c0,17.7-0.1,35.5,0,53.2c0,10.8,8.3,19.4,19.2,19.5c2.6,0,5.3,0,7.9,0c14.2,0,28.3,0,42.5,0c22.3,0,44.6,0,66.9,0
			c26.4,0,52.8,0,79.2,0c26,0,51.9,0,77.9,0c21.5,0,43.1,0,64.6,0c12.7,0,25.3,0,38,0c1.7,0,3.3,0,5,0
			C408.5,183,408.5,180,406.6,180z"/>
	</g>
</g>
<g>
	<defs>
		<path id="SVGID_1_" d="M406.6,181.5H24.4c-9.6,0-17.4-7.8-17.4-17.4V25.9c0-9.6,7.8-17.4,17.4-17.4h382.2
			c9.6,0,17.4,7.8,17.4,17.4v138.2C424,173.7,416.2,181.5,406.6,181.5z"/>
	</defs>
	<clipPath id="SVGID_2_">
		<use xlink:href="#SVGID_1_"  style="overflow:visible;"/>
	</clipPath>
	<g class="st1">
		<path class="st2" d="M1.1,124.8c27.6-3.2,55.1,3,79.5,8.4c19.8,4.5,40.5,8.7,63.1,10.4c30.5,2.3,62.4-0.2,92.7-3.7
			c30.3-3.5,60-8.1,91-10c48.6-3,99,0.7,140.7,10.2l-34.6,36.4l-101,36.7l-165.1,6.7c0,0-107.1-21.2-109.6-22.2
			c-2.6-1-64.8-10.7-64.8-10.7l-5-60.2L1.1,124.8z"/>
		<g>
			<path d="M1.1,126.3c30.8-3.4,60.8,4.6,90.6,10.9c14.5,3.1,29,5.7,43.7,7.2c15.4,1.6,30.9,1.9,46.4,1.4c31.3-1,62.4-5.4,93.4-9.2
				c31.1-3.8,62.2-6.6,93.6-6.1c29.8,0.4,59.7,3.2,89,9c3.3,0.7,6.6,1.4,9.9,2.1c-0.2-0.8-0.4-1.7-0.7-2.5
				c-5.5,5.8-11,11.6-16.5,17.3c-3.9,4.1-7.7,8.2-11.6,12.2c-1.4,1.5-2.8,2.9-4.1,4.4c-0.5,0.5-2.1,1.6-2.2,2.3
				c-0.1,0.4,0.2-0.1,0.5-0.2c-0.2,0-0.3,0.1-0.5,0.2c-0.8,0.2-1.5,0.5-2.2,0.8c-2.9,1.1-5.8,2.1-8.7,3.2
				c-9.7,3.5-19.4,7.1-29.2,10.6c-18.9,6.8-37.7,13.7-56.6,20.5c-1.2,0.5-2.5,1-3.8,1.4c0.7-0.2,0.1,0-0.2,0c-0.6,0-1.2,0.1-1.9,0.1
				c-5.9,0.2-11.8,0.5-17.7,0.7c-21.7,0.9-43.3,1.8-65,2.6c-21.1,0.9-42.1,1.7-63.2,2.6c-5.1,0.2-10.3,0.4-15.4,0.6
				c-0.4,0-0.8,0-1.2,0c-0.2,0,0.6,0.1-0.1,0c-1.9-0.3-3.8-0.8-5.7-1.1c-20.6-4.1-41.1-8.2-61.7-12.3c-14.2-2.9-28.5-5.5-42.6-8.9
				c-8.5-2-17.4-3-26.1-4.4c-10.7-1.7-21.4-3.4-32.2-5.1c-1.9-0.3-3.9-0.6-5.8-0.9c0.4,0.5,0.7,1,1.1,1.4
				c-1.4-17.5-2.9-35.1-4.3-52.6c-0.2-2.5-0.4-5.1-0.6-7.6c-0.4,0.5-0.7,1-1.1,1.4c4.4-0.7,8.7-1.4,13.1-2.1
				c1.9-0.3,1.1-3.2-0.8-2.9c-4.4,0.7-8.7,1.4-13.1,2.1c-0.6,0.1-1.2,0.8-1.1,1.4c1.4,17.5,2.9,35.1,4.3,52.6
				c0.2,2.5,0.4,5.1,0.6,7.6c0,0.6,0.4,1.3,1.1,1.4c18.4,2.9,36.8,5.7,55.2,8.8c12.1,2.1,24,4.9,36,7.3c22.3,4.5,44.6,9,67,13.4
				c5.3,1.1,10.7,2.5,16.1,3.2c2.6,0.3,5.5-0.1,8.1-0.2c18.6-0.8,37.2-1.5,55.8-2.3c23.1-0.9,46.2-1.9,69.3-2.8
				c7.9-0.3,15.9-0.6,23.8-1c2.9-0.1,6.2,0.2,9-0.4c1.4-0.3,2.8-1,4.1-1.5c3.3-1.2,6.7-2.4,10-3.6c10.2-3.7,20.4-7.4,30.5-11.1
				c18.1-6.6,36.1-13.1,54.2-19.7c1-0.4,2.2-0.6,3-1.4c2.3-2,4.3-4.6,6.4-6.8c7.7-8.1,15.4-16.2,23.1-24.3c1.6-1.7,3.2-3.4,4.9-5.1
				c0.7-0.8,0.5-2.2-0.7-2.5c-28.4-6.4-57.5-9.7-86.6-10.9c-31.4-1.2-62.7,0.6-93.9,4.3c-31.1,3.6-62,8.3-93.3,10.1
				c-15.8,0.9-31.6,1.2-47.4,0.2c-15.3-1-30.6-3.2-45.6-6.2c-29.3-5.8-58.4-14.5-88.5-13.7c-4,0.1-8.1,0.4-12.1,0.8
				C-0.8,123.5-0.8,126.5,1.1,126.3z"/>
		</g>
	</g>
	<g class="st1">
		<path class="st3" d="M349,85.1c-19.4-0.6-35.3-0.4-54.7,0.6c-1.7-5.1,0.4-11.1,4.8-14.1c4.4-3,10.8-2.7,14.9,0.6
			c-1.1-6.9,2.7-14.3,8.8-17.8c6.1-3.5,14-3.4,20.2-0.1c6.2,3.3,10.4,10,12.1,16.8c3.2-1.8,7.2-3.9,10.3-2c2.1,1.3,3,3.8,3.5,6.2
			c0.7,3,1.1,6.1,1.1,9.2C363.5,84.6,355.5,85.1,349,85.1z"/>
		<g>
			<path d="M349,83.6c-18.2-0.6-36.5-0.3-54.7,0.6c0.5,0.4,1,0.7,1.4,1.1c-1.4-4.4,0.2-9.6,3.9-12.3c3.8-2.8,9.5-2.6,13.2,0.3
				c1.2,1,2.7,0.1,2.5-1.5c-1.1-7.4,3.8-14.9,10.8-17.4c7.6-2.7,16.2-0.4,21.6,5.7c2.9,3.2,4.8,7.3,5.8,11.5c0.2,1,1.4,1.4,2.2,0.9
				c3-1.7,7.8-4.4,10.3-0.5c1,1.7,1.4,3.7,1.8,5.6c0.4,2.3,0.6,4.7,0.7,7c0.5-0.5,1-1,1.5-1.5C363,83.1,356,83.6,349,83.6
				c-1.9,0-1.9,3,0,3c7,0,14-0.5,21-0.5c0.8,0,1.5-0.7,1.5-1.5c-0.1-2.9-0.4-5.9-1-8.7c-0.5-2.3-1.2-4.8-2.8-6.6
				c-3.7-4.3-9.5-1.7-13.5,0.6c0.7,0.3,1.5,0.6,2.2,0.9c-2.3-8.7-8-16.6-16.8-19.4c-8.7-2.7-18.6,0-23.9,7.6
				c-2.8,4-3.9,8.9-3.2,13.7c0.8-0.5,1.7-1,2.5-1.5c-4.7-3.7-11.8-4.3-16.8-0.8c-4.9,3.5-7.1,10-5.3,15.7c0.2,0.6,0.8,1.1,1.4,1.1
				c18.2-0.9,36.5-1.2,54.7-0.6C350.9,86.7,350.9,83.7,349,83.6z"/>
		</g>
	</g>
	<g class="st1">
		<path class="st3" d="M431.2,59.2c-23.1-0.7-42-0.4-65.1,0.7c-2-6,0.5-13.2,5.7-16.8s12.8-3.3,17.7,0.8c-1.3-8.3,3.2-17,10.4-21.2
			c7.2-4.2,16.7-4,24.1-0.1c7.4,3.9,12.3,11.9,14.4,20c3.8-2.1,8.6-4.6,12.3-2.3c2.5,1.5,3.6,4.6,4.2,7.4c0.8,3.6,1.3,7.3,1.3,11
			C448.5,58.6,439,59.2,431.2,59.2z"/>
		<g>
			<path d="M431.2,57.7c-16.7-0.5-33.4-0.5-50.2,0.1c-5,0.2-9.9,0.4-14.9,0.6c0.5,0.4,1,0.7,1.4,1.1c-1.7-5.3,0.2-11.5,4.7-14.9
				c4.7-3.4,11.6-3.3,16.2,0.3c1.2,1,2.7,0.1,2.5-1.5c-1.3-8.8,4.4-17.8,12.6-20.9c9.1-3.5,19.7-0.7,26.1,6.5
				c3.5,3.9,5.9,8.8,7.2,13.9c0.2,1,1.4,1.4,2.2,0.9c3.6-2,9.5-5.3,12.5-0.6c1.2,1.9,1.7,4.2,2.1,6.4c0.6,2.9,0.9,5.9,0.9,8.9
				c0.5-0.5,1-1,1.5-1.5C447.9,57.1,439.6,57.7,431.2,57.7c-1.9,0-1.9,3,0,3c8.3,0,16.6-0.6,24.9-0.6c0.8,0,1.5-0.7,1.5-1.5
				c-0.1-3.5-0.5-7-1.2-10.4c-0.6-2.7-1.3-5.5-3.2-7.6c-4.3-5-11-1.9-15.7,0.7c0.7,0.3,1.5,0.6,2.2,0.9
				c-2.7-10.3-9.4-19.7-19.9-22.9c-10.3-3.2-21.9,0-28.1,9.1c-3.2,4.7-4.6,10.4-3.7,15.9c0.8-0.5,1.7-1,2.5-1.5
				c-5.6-4.4-13.9-5-19.8-0.8c-5.6,4.1-8.2,11.7-6.1,18.3c0.2,0.6,0.8,1.1,1.4,1.1c16.7-0.8,33.4-1.3,50.2-1c5,0.1,9.9,0.2,14.9,0.3
				C433.2,60.8,433.2,57.8,431.2,57.7z"/>
		</g>
	</g>
	<g class="st1">
		<g>
			<g>
				<g>
					<path class="st4" d="M241.7,63.3c-4.7-0.7-8.2-2.4-12.9-3.1c-0.4-0.1-1.7-0.4-1.7-1.1c0-0.6-3.4-5.9-3.1-6.8
						c1-2.8,9.2-12.7,10.6-15.5c1.3-2.7,3.4-9.5,4.9-10.5c0.8-0.5,2,0.1,2.6,0.2c8.2,1.3,14-0.6,22.2,0.7c0.2,0,2.7,5.9,3.1,7
						c0.1,0.3-0.2,2.4-0.6,3.8c-1.8,5.5-6.4,20.6-9.4,27.1c-0.3,0.8-0.9,1.4-1.3,1.7c-0.5,0.4-1.7-0.2-2-0.3
						C250.7,65.2,245.9,64.1,241.7,63.3z"/>
					<g>
						<path d="M242.1,61.8c-3-0.5-5.9-1.5-8.9-2.3c-1.4-0.4-2.7-0.6-4.1-0.9c-0.3-0.1-0.7-0.3-0.5-0.1c-0.2-0.2-0.3-0.6-0.4-0.9
							c-0.7-1.5-1.7-3-2.4-4.5c-0.1-0.2-0.2-0.6-0.3-0.7c-0.1-0.2,0,0.2,0,0.2c0.1-0.1,0.7-1.2,0.9-1.5c2.1-3.4,4.7-6.5,7-9.7
							c0.9-1.2,1.8-2.4,2.5-3.7c0.9-1.7,1.5-3.5,2.2-5.3c0.4-1,0.8-1.9,1.2-2.8c0.2-0.5,0.7-1.8,1.2-2c-0.2,0.1,0.7,0.3,0.9,0.3
							c0.6,0.2,1.2,0.2,1.8,0.3c1.6,0.2,3.3,0.3,4.9,0.3c2.9,0,5.8-0.2,8.7-0.2c1.4,0,2.9,0,4.3,0.1c0.3,0,2.3,0.4,2.4,0.3
							c0,0.1-0.4-0.8-0.3-0.4c0,0.1,0.1,0.3,0.2,0.4c0.7,1.4,1.4,2.9,2,4.4c0.2,0.5,0.5,1.1,0.6,1.6c-0.1-0.4-0.1,0.5-0.1,0.7
							c-0.1,0.7-0.2,1.4-0.4,2c-1.1,3.8-2.4,7.5-3.6,11.2c-1.6,4.8-3.1,9.7-5.1,14.4c-0.2,0.4-0.3,0.8-0.5,1.2
							c-0.1,0.2-0.2,0.4-0.3,0.6c-0.1,0.2-0.3,0.4-0.4,0.6c-0.4,0.3-0.3,0.3,0.1,0.1c-1.1-0.2-2.3-0.8-3.3-1.1
							C249,63.3,245.6,62.5,242.1,61.8c-1.9-0.4-2.7,2.5-0.8,2.9c3.4,0.7,6.7,1.4,10,2.5c1.2,0.4,2.3,0.9,3.5,1.2
							c1.5,0.3,2.5-0.4,3.4-1.6c1.3-1.8,2-4.2,2.7-6.3c0.9-2.4,1.7-4.9,2.6-7.3c1.5-4.5,2.9-9,4.4-13.5c0.6-1.7,1.5-4.1,1-5.9
							c-0.5-1.7-1.4-3.4-2.1-5c-0.3-0.7-0.6-1.4-0.9-2c-0.7-1.1-1.7-1.1-2.9-1.2c-3.3-0.4-6.6-0.3-9.9-0.2c-3.3,0.1-6.7,0.3-10-0.2
							c-1.2-0.2-2.3-0.8-3.6-0.4c-1,0.3-1.6,1.1-2.1,1.9c-2.1,3.5-2.8,7.6-5,11c-2.4,3.6-5.2,6.9-7.6,10.5c-0.9,1.3-2.5,3.1-2.1,4.8
							c0.4,2,1.8,3.8,2.7,5.5c0.4,0.8,0.3,1.3,1,2c1,1.1,2.7,1.1,4,1.4c3.7,0.8,7.3,2.2,11.1,2.8C243.2,65,244,62.1,242.1,61.8z"/>
					</g>
				</g>
				<g>
					<g>
						<g>
							<path d="M246.3,56.8c-5.2,21.5-11.2,43.4-15.6,64.6c3.7-10.7,4.7-15.4,8.2-24c1-2.5,2.4-7.4,3.7-9.6c1.3-2.1,1.5-1.5,2.9-1.7
								c1.7-9.8,3.9-19.6,6.5-29.4C249.1,56.6,248.6,56.9,246.3,56.8"/>
						</g>
						<g>
							<path d="M233.1,54.6c-7.3,8.5-7.4,6.3-15,14.4c0,0-4.8,13.6-9.6,29.5c1.1-6.8,1-11.3,2-19.2c0.4-2.6,1.1-6.8,0.4-8.8
								c-0.4-1.4-2.1-2.3-1.6-2.8c8.5-7.7,11.1-7.8,18.5-15.9C230.6,53.1,230.9,53.6,233.1,54.6"/>
						</g>
						<g>
							<path d="M242.2,55.5c-1.7-0.3-2.2-0.2-3.4-0.3c-1-0.6-1.3-1.1-2.8-1.9c-3.2,9.7-6.8,14.8-10.5,24.2c0.7,0.7,1.1,0.2,0.8,2.6
								c-0.3,2.4-2.9,12-3.5,14.6c-2.1,8.9-2.7,13.3-5.7,24.2c0.1-0.2,0.1-0.4,0.2-0.6c-0.1,0.2-0.1,0.4-0.2,0.6
								c4.2-10.5,5.3-14.6,8.3-23.2c1.2-3.4,3.8-12.1,5-14.2s1.2-1.4,2.2-1.5C235.6,70.3,238.8,65.1,242.2,55.5z"/>
						</g>
					</g>
				</g>
				<g>
					<path class="st5" d="M238.5,56.7c-4.7-0.7-8.2-2.4-12.9-3.1c-0.4-0.1-1.7-0.4-1.7-1.1c0-0.6,0.4-2.3,0.7-3.1
						c1-2.8,5.5-16.3,6.8-19.1c1.3-2.7,3.4-9.5,4.9-10.5c0.8-0.5,2,0.1,2.6,0.2c8.2,1.3,14.2,4.8,22.4,6.1c0.2,0,2.5,0.5,2.9,1.6
						c0.1,0.3-0.2,2.4-0.6,3.8c-1.8,5.5-6.4,20.6-9.4,27.1c-0.3,0.8-0.9,1.4-1.3,1.7c-0.5,0.4-1.7-0.2-2-0.3
						C247.4,58.7,242.7,57.5,238.5,56.7z"/>
					<g>
						<path d="M238.9,55.3c-2.8-0.4-5.4-1.3-8.1-2c-1.3-0.4-2.6-0.7-3.9-0.9c-0.2,0-1.3-0.4-1.5-0.3c-0.5,0.2,0.7-0.8,0,0.3
							c0.1-0.1,0.1-0.6,0.1-0.7c0.6-2.8,1.8-5.6,2.7-8.3c2.2-6.4,4.5-12.2,7-18.4c0.3-0.8,0.7-1.6,1.1-2.4c0.2-0.4,0.4-0.7,0.6-1.1
							c0.1-0.2,0.4-0.4,0.3-0.4c0.3-0.1,0.8,0.2,1.1,0.3c0.6,0.1,1.1,0.2,1.7,0.3c1.4,0.3,2.9,0.6,4.3,1c5.1,1.4,10,3.5,15.3,4.6
							c0.8,0.2,1.7,0.2,2.6,0.6c0.2,0.1,0.5,0.3,0.8,0.4c0.2,0,0-0.4,0-0.2c0,0.2,0,0.4-0.1,0.7c-0.2,1.6-0.8,3.2-1.3,4.7
							c-1.2,3.8-2.4,7.6-3.7,11.4c-1.4,4.2-2.7,8.4-4.5,12.4c-0.2,0.5-0.4,1-0.8,1.5c-0.4,0.5-0.5,0.2,0,0.2c-0.3,0-0.5-0.1-0.7-0.2
							c-1.2-0.4-2.4-0.9-3.6-1.2C245.1,56.6,242,55.9,238.9,55.3c-1.9-0.4-2.7,2.5-0.8,2.9c3.1,0.6,6.2,1.3,9.2,2.2
							c1.2,0.4,2.4,0.8,3.6,1.2c1.2,0.4,2.3,0.5,3.3-0.4c1.5-1.4,2.2-3.7,2.9-5.5c0.8-2.1,1.6-4.2,2.3-6.4c1.5-4.4,2.9-8.8,4.3-13.3
							c0.5-1.7,1.2-3.3,1.6-5c0.5-2.1,0.9-4.2-1.3-5.5c-2.1-1.2-4.7-1.2-7-1.8c-2.8-0.8-5.6-1.8-8.4-2.7c-2.9-0.9-5.8-1.8-8.8-2.3
							c-1.1-0.2-2.1-0.7-3.2-0.5c-1,0.2-1.6,0.8-2.1,1.6c-1.2,1.7-1.8,3.7-2.6,5.6c-0.6,1.6-1.3,3.2-2,4.8
							c-1.5,3.4-2.6,6.9-3.8,10.4c-0.7,2-1.4,4-2,6c-0.5,1.6-1.2,3.2-1.4,4.9c-0.6,3.5,2.8,3.5,5.4,4.1c3.4,0.8,6.7,2.1,10.2,2.6
							C240,58.5,240.8,55.6,238.9,55.3z"/>
					</g>
				</g>
			</g>
			<g>
				<g>
					<path d="M242.1,22.7c-0.3,1.8-0.6,3.8,0,5.5c0.7,1.9,2.3,3.3,4.4,3.6c3.6,0.6,7.6-1.3,9.1-4.7c0.3-0.7,0.2-1.6-0.5-2.1
						c-0.6-0.4-1.7-0.2-2.1,0.5c-0.1,0.3-0.3,0.6-0.5,0.9c-0.2,0.3-0.2,0.3-0.4,0.5c-0.5,0.6-0.8,0.8-1.4,1.1
						c-0.6,0.4-0.9,0.5-1.6,0.6c-0.1,0-0.6,0.1-0.4,0.1c-0.2,0-0.3,0-0.5,0c-0.3,0-0.8,0-0.9,0c-0.5-0.1-1.2-0.3-1.6-0.6
						c-0.2-0.1-0.4-0.4-0.5-0.5c-0.2-0.4-0.2-0.3-0.3-0.7c-0.2-0.7-0.2-1-0.2-1.8c0-0.8,0.1-1.2,0.2-1.9c0.1-0.8-0.2-1.6-1-1.8
						C243.2,21.5,242.2,21.9,242.1,22.7L242.1,22.7z"/>
				</g>
			</g>
			<g>
				<g>
					<path d="M236.4,34.9C236.4,34.9,236.4,34.9,236.4,34.9c0-0.1,0.1-0.2,0.1-0.3c0,0,0,0,0,0c0.1-0.1,0.2-0.2,0.2-0.3c0,0,0,0,0,0
						c0.1-0.1,0.2-0.2,0.3-0.2c0,0,0,0-0.1,0c0.1-0.1,0.2-0.1,0.4-0.2c0,0,0,0-0.1,0c0.1,0,0.3,0,0.4-0.1c0,0,0,0-0.1,0
						c0.1,0,0.3,0,0.4,0.1c0,0,0,0-0.1,0c0.1,0.1,0.2,0.1,0.4,0.2c0,0,0,0,0,0c0.1,0.1,0.2,0.2,0.3,0.2c0,0,0,0,0,0
						c0,0.7,0,1.4,0,2.1c0,0,0,0,0,0c-0.1,0.1-0.2,0.2-0.3,0.2c0,0,0,0,0.1,0c-0.1,0.1-0.2,0.1-0.4,0.2c0,0,0.1,0,0.1,0
						c-0.1,0-0.3,0-0.4,0.1c0,0,0.1,0,0.1,0c-0.1,0-0.3,0-0.4-0.1c0,0,0.1,0,0.1,0c-0.1-0.1-0.2-0.1-0.4-0.2c0,0,0.1,0,0.1,0.1
						c-0.1-0.1-0.2-0.2-0.3-0.2c0,0,0,0,0.1,0.1c-0.1-0.1-0.2-0.2-0.2-0.3c0,0,0,0,0,0.1c-0.1-0.1-0.1-0.2-0.2-0.4c0,0,0,0.1,0,0.1
						c0-0.1,0-0.3-0.1-0.4c0,0,0,0.1,0,0.1c0-0.1,0-0.3,0.1-0.4c0,0,0,0.1,0,0.1c0.1-0.1,0.1-0.2,0.2-0.4c0,0,0,0.1-0.1,0.1
						c0.1-0.1,0.2-0.2,0.2-0.3c0,0-0.1,0.1-0.1,0.1c0.1-0.1,0.2-0.2,0.3-0.2c0,0-0.1,0-0.1,0.1c0.1-0.1,0.2-0.1,0.4-0.2
						c0,0-0.1,0-0.1,0c0.1,0,0.3,0,0.4-0.1c0,0,0,0,0,0c0.4,0.9,0.7,1.7,1.1,2.6c0.1-0.1,0.2-0.2,0.2-0.2c0.1-0.1,0.2-0.3,0.3-0.5
						c0.1-0.2,0.1-0.4,0.1-0.6c0-0.2,0-0.4-0.1-0.6c-0.1-0.2-0.2-0.3-0.3-0.5c-0.1-0.1-0.2-0.2-0.3-0.2c-0.2-0.1-0.5-0.2-0.8-0.2
						c-0.1,0-0.3,0-0.4,0.1c-0.3,0.1-0.5,0.2-0.7,0.4c-0.1,0.1-0.2,0.2-0.2,0.2c-0.1,0.1-0.2,0.2-0.2,0.3c-0.1,0.1-0.1,0.2-0.2,0.4
						c0,0.1,0,0.3-0.1,0.4c0,0.2,0,0.4,0.1,0.6c0,0.1,0.1,0.2,0.2,0.3c0.1,0.1,0.2,0.2,0.3,0.3c0.1,0.1,0.2,0.2,0.3,0.2
						c0.2,0.1,0.4,0.1,0.6,0.1c0.4,0,0.6-0.1,0.9-0.2c0,0,0,0,0.1,0c0.1-0.1,0.3-0.2,0.4-0.3c0.1-0.1,0.2-0.2,0.3-0.4
						c0,0,0-0.1,0-0.1c0-0.1,0.1-0.3,0.2-0.4c0,0,0,0,0,0c0,0,0,0,0,0c0-0.2,0.1-0.3,0.1-0.5c0-0.3-0.1-0.6-0.2-0.9c0,0,0,0,0-0.1
						c-0.1-0.1-0.2-0.3-0.3-0.4c0,0,0,0,0,0c-0.1-0.1-0.2-0.2-0.3-0.2c0,0,0,0,0,0c0,0,0,0,0,0c0,0,0,0,0,0
						c-0.1-0.1-0.3-0.1-0.4-0.2c0,0,0,0-0.1,0c-0.1,0-0.2,0-0.2,0c-0.1,0-0.2,0-0.2,0c-0.1,0-0.2,0-0.3,0c-0.1,0-0.2,0-0.3,0
						c-0.3,0.1-0.6,0.2-0.8,0.5c-0.1,0.1-0.2,0.3-0.3,0.5c-0.1,0.2-0.1,0.4-0.1,0.6c0,0.1,0,0.3,0.1,0.4c0.1,0.3,0.2,0.5,0.4,0.7
						c0.2,0.2,0.5,0.4,0.8,0.4c0.3,0.1,0.6,0.1,0.9,0c0.6-0.2,1-0.6,1.2-1.2c0.1-0.2,0.1-0.4,0-0.6c0-0.2-0.1-0.4-0.2-0.6
						c-0.1-0.2-0.2-0.3-0.4-0.4c-0.1-0.1-0.3-0.2-0.5-0.3c-0.1,0-0.3,0-0.4-0.1c-0.3,0-0.5,0.1-0.8,0.2c-0.1,0.1-0.2,0.2-0.3,0.2
						C236.6,34.4,236.5,34.6,236.4,34.9L236.4,34.9z"/>
				</g>
			</g>
			<g>
				<g>
					<path d="M249.7,37C249.6,37,249.6,37,249.7,37c0.1,0,0.2,0,0.3,0.1c0,0,0,0-0.1,0c0.1,0.1,0.2,0.1,0.4,0.2c0,0-0.1,0-0.1,0
						c0.1,0.1,0.2,0.2,0.3,0.2c0,0,0,0-0.1-0.1c0.1,0.1,0.2,0.2,0.2,0.3c0,0,0-0.1-0.1-0.1c0.1,0.1,0.1,0.2,0.2,0.4c0,0,0-0.1,0-0.1
						c0,0.1,0,0.3,0.1,0.4c0,0,0-0.1,0-0.1c0,0.1,0,0.3-0.1,0.4c0,0,0-0.1,0-0.1c-0.1,0.1-0.1,0.2-0.2,0.4c0,0,0,0,0-0.1
						c-0.1,0.1-0.2,0.2-0.2,0.3c0,0,0,0,0,0c-0.1,0.1-0.2,0.2-0.3,0.2c0,0,0,0,0.1,0c-0.1,0.1-0.2,0.1-0.4,0.2c0,0,0,0,0.1,0
						c-0.1,0-0.3,0-0.4,0.1c0,0,0,0,0.1,0c-0.1,0-0.3,0-0.4-0.1c0,0,0,0,0,0c-0.1-0.1-0.2-0.1-0.4-0.2c0,0,0,0,0,0
						c-0.1-0.1-0.2-0.2-0.3-0.2c0,0,0,0,0,0c-0.1-0.1-0.2-0.2-0.2-0.3c0,0,0,0,0,0c-0.1-0.1-0.1-0.2-0.2-0.4c0,0,0,0,0,0
						c0-0.1,0-0.3-0.1-0.4c0,0,0,0,0,0c0-0.1,0-0.3,0.1-0.4c0,0,0,0,0,0c0.1-0.1,0.1-0.2,0.2-0.4c0,0,0,0,0,0
						c0.1-0.1,0.2-0.2,0.2-0.3c0,0,0,0,0,0c0.1-0.1,0.2-0.2,0.3-0.2c0,0,0,0,0,0c0.1-0.1,0.2-0.1,0.4-0.2c0,0,0,0,0,0
						c0.1,0,0.3,0,0.4-0.1c0,0,0,0,0,0c0.1,0,0.3,0,0.4,0.1c0,0,0,0,0,0c0.1,0.1,0.2,0.1,0.4,0.2c0,0,0,0,0,0
						c0.1,0.1,0.2,0.2,0.3,0.2c0,0,0,0,0,0c0.1,0.1,0.2,0.2,0.2,0.3c0,0,0,0,0,0c0.1,0.1,0.1,0.2,0.2,0.4c0,0,0,0,0,0
						c0,0.1,0,0.3,0.1,0.4c0,0,0,0,0,0c0,0.1,0,0.3-0.1,0.4c0,0,0,0,0,0c-0.1,0.1-0.1,0.2-0.2,0.4c0,0,0,0,0,0
						c0.1-0.2,0.2-0.4,0.2-0.6c0-0.2,0-0.4,0-0.6c0-0.2-0.1-0.4-0.3-0.5c-0.1-0.2-0.2-0.3-0.4-0.4c-0.1-0.1-0.2-0.1-0.4-0.2
						c-0.3-0.1-0.5-0.1-0.8,0c-0.1,0.1-0.2,0.1-0.4,0.2c-0.2,0.1-0.4,0.3-0.5,0.5c0,0,0,0,0,0c0,0-0.1,0.3-0.2,0.4c0,0,0,0,0,0
						c0,0-0.1,0.4-0.1,0.4c0,0.1,0,0.3,0.1,0.4c0,0,0.1,0.3,0.2,0.4c0,0,0.2,0.3,0.2,0.3c0,0,0.3,0.2,0.3,0.2c0.1,0,0.1,0.1,0.2,0.1
						c0.1,0,0.1,0.1,0.2,0.1c0.1,0,0.4,0.1,0.2,0c-0.2,0,0.1,0,0.2,0c0,0,0,0,0,0c0,0,0,0,0,0c0,0,0.4-0.1,0.4-0.1c0,0,0,0,0,0
						c0,0,0,0,0,0c0,0,0.4-0.1,0.4-0.2c0,0,0,0,0,0c0,0,0,0,0,0c0,0,0.3-0.2,0.3-0.2c0,0,0.1-0.1,0.1-0.2c0-0.1,0.1-0.1,0.1-0.2
						c0,0,0.2-0.4,0.2-0.4c0,0,0,0,0,0c0,0,0.1-0.4,0.1-0.4c0,0,0,0,0,0c0,0,0,0,0,0c0-0.1,0-0.1,0-0.2c0,0.3,0-0.1,0-0.2
						c0,0,0,0,0,0c0,0-0.1-0.3-0.2-0.4c0,0,0,0,0,0c0,0-0.2-0.3-0.1-0.2c0.1,0.1-0.1-0.1-0.1-0.2c0,0,0,0,0,0
						c0.1,0.1-0.2-0.2-0.3-0.2c0,0,0,0,0,0c0,0,0,0,0,0c-0.1-0.1-0.2-0.1-0.4-0.2c-0.1,0-0.2,0-0.2,0c-0.1,0-0.2,0-0.3,0
						c0,0,0,0,0,0c-0.1,0-0.3,0-0.4,0.1c0,0,0,0,0,0c0,0,0,0,0,0c-0.1,0-0.2,0.1-0.2,0.1c0,0-0.1,0.1-0.2,0.1c0,0,0,0,0,0
						c-0.1,0.1-0.2,0.2-0.3,0.3c0,0,0,0,0,0c0,0,0,0,0,0c0,0-0.2,0.3-0.2,0.3c0,0,0,0,0,0c0,0,0,0,0,0c0,0,0,0,0,0
						c0,0.1-0.1,0.3-0.2,0.4c0,0,0,0,0,0c0,0,0,0,0,0c0,0.1,0,0.3-0.1,0.4c0,0,0,0,0,0c0,0,0,0,0,0c0,0,0,0,0,0c0,0.1,0,0.3,0.1,0.4
						c0,0,0,0.1,0,0.1c0,0,0,0,0,0c0.1,0.1,0.1,0.3,0.2,0.4c0,0,0,0,0,0c0,0,0,0,0,0c0.1,0.1,0.2,0.2,0.2,0.3c0,0,0,0,0,0
						c0,0,0,0,0,0c0.1,0.1,0.2,0.2,0.3,0.2c0,0,0,0,0,0c0,0,0,0,0,0c0,0,0,0,0,0c0.1,0,0.3,0.1,0.4,0.2c0,0,0,0,0,0c0,0,0,0,0,0
						c0,0,0,0,0,0c0.1,0,0.3,0,0.4,0.1c0,0,0,0,0,0c0,0,0,0,0.1,0c0.2,0,0.4,0,0.6-0.1c0.2-0.1,0.3-0.2,0.5-0.3
						c0.1-0.1,0.2-0.3,0.3-0.5c0.1-0.2,0.1-0.4,0.1-0.6c0-0.1,0-0.3-0.1-0.4c-0.1-0.3-0.2-0.5-0.4-0.7c-0.1-0.1-0.2-0.2-0.3-0.2
						C250.2,37,249.9,37,249.7,37L249.7,37z"/>
				</g>
			</g>
			<g>
				<g>
					<path d="M237.7,45.7c3,1.9,7.3,1.3,9.7-1.4c0.5-0.6,0.6-1.6,0-2.1c-0.6-0.5-1.6-0.6-2.1,0c-0.1,0.1-0.7,0.6-0.7,0.7
						c0.1-0.1,0.2-0.1,0.1-0.1c0,0-0.1,0-0.1,0.1c-0.1,0.1-0.1,0.1-0.2,0.1c-0.1,0.1-0.3,0.2-0.4,0.2c-0.1,0-0.2,0.1-0.2,0.1
						c-0.2,0.1,0,0,0.1,0c-0.1,0.1-0.3,0.1-0.5,0.2c-0.2,0-0.3,0.1-0.5,0.1c-0.1,0-0.4,0-0.5,0.1c0.1,0,0.3,0,0.1,0
						c-0.1,0-0.2,0-0.3,0c-0.2,0-0.3,0-0.5,0c-0.2,0-0.3,0-0.5,0c-0.2,0-0.2-0.1,0,0c-0.1,0-0.2,0-0.2,0c-0.3-0.1-0.7-0.2-1-0.3
						c0,0-0.3-0.1-0.1,0c0.2,0.1-0.1,0-0.1-0.1c-0.2-0.1-0.3-0.2-0.5-0.3c-0.7-0.4-1.7-0.2-2.1,0.5C236.8,44.3,237,45.2,237.7,45.7
						L237.7,45.7z"/>
				</g>
			</g>
		</g>
		<g>
			<path class="st6" d="M192.1,113.8c-13.1-7-26.2-21.7-27.8-36.5c-0.2-2.1,3.5-3.4,4.5-5.2c2.4-4.6,9-4.2,14-2.7
				c25.5,8,51.3,31.3,69.1,51.2c0.5,0.6,3.9,6,3.8,6.8c-0.1,0.7-3.9-3.5-4.4-4"/>
			<g>
				<path d="M192.8,112.5c-10.4-5.6-19.6-14.7-24.4-25.6c-1.1-2.6-2-5.3-2.5-8.1c-0.2-1.2-0.4-1.7,0.5-2.5c0.8-0.7,1.7-1.3,2.5-2.1
					c0.8-0.7,1.1-1.7,1.9-2.5c0.8-0.8,1.8-1.3,2.9-1.6c2.3-0.6,4.7-0.3,7,0.3c5.5,1.3,10.8,3.8,15.8,6.4c5.5,2.9,10.8,6.2,15.9,9.8
					c10.3,7.3,19.8,15.8,28.7,24.8c2.4,2.4,4.7,4.8,7,7.3c0.5,0.6,1.1,1.2,1.6,1.7c0.3,0.3,0.5,0.6,0.8,0.9c0.2,0.2,0.4,0.5,0.2,0.2
					c0.5,0.7,1,1.5,1.5,2.3c0.5,0.9,1.1,1.8,1.6,2.7c0.2,0.3,0.3,0.7,0.4,0.9c0,0,0,0,0,0.1c0.2,0.8,0.8,0.3,1.7-1.5
					c0-0.1,0.3,0.2,0-0.1c-1.2-1.2-2.5-2.3-3.6-3.7c-1.2-1.5-3.3,0.6-2.1,2.1c1.1,1.3,2.3,2.6,3.6,3.7c0.6,0.5,1.4,1.1,2.2,0.8
					c1.1-0.3,1.3-1.4,1-2.3c-0.6-1.9-1.9-3.7-2.9-5.3c-1.2-1.9-2.8-3.5-4.4-5.2c-9.4-10.1-19.4-19.6-30.4-28
					c-10.6-8.2-22.3-15.5-35.2-19.7c-4.7-1.6-11.2-2.7-15.3,1.1c-0.8,0.8-1.3,1.9-2.1,2.7c-0.9,0.8-1.9,1.4-2.7,2.3
					c-2.1,2.2-1.1,5.2-0.5,7.8c1.8,7.1,5.8,13.6,10.6,19.1c4.8,5.5,10.6,10.3,17.1,13.8C193,116,194.5,113.4,192.8,112.5
					L192.8,112.5z"/>
			</g>
		</g>
		<g>
			<path class="st7" d="M187.7,119.2c-13.1-7-22.4-20.8-24-35.6c-0.2-2.1-0.3-4.3,0.7-6.1c2.4-4.6,9-4.2,14-2.7
				c25.5,8,51.3,31.3,69.1,51.2c0.5,0.6,1,1.2,1,2c-0.1,0.7-1.1,1.3-1.6,0.8"/>
			<g>
				<path d="M188.5,117.9c-8.3-4.5-15-11.5-19.1-20c-2-4.1-3.4-8.6-4.1-13.2c-0.3-2.3-0.7-5.1,0.7-7.1c1-1.4,2.8-2.1,4.5-2.3
					c4.4-0.5,8.7,1.2,12.7,2.8c4.7,1.9,9.3,4.2,13.7,6.7c9.2,5.3,17.7,11.7,25.6,18.7c4.5,3.9,8.9,8,13.1,12.2c2,2,4,4.1,6,6.2
					c0.9,1,1.8,1.9,2.7,2.9c0.4,0.5,0.9,1,1.3,1.4c0.2,0.2,0.4,0.5,0.6,0.7c0.1,0.1,0.3,0.3,0.4,0.4c0.2,0.5,0.6,0.6,1.3,0.3
					c-1.5-1.2-3.6,0.9-2.1,2.1c2.3,1.9,4.9-0.8,3.8-3.3c-0.5-1.2-1.7-2.2-2.5-3.1c-0.9-1-1.9-2-2.8-3c-4-4.2-8.1-8.4-12.3-12.3
					c-8.8-8.2-18.1-16-28.2-22.5c-4.9-3.1-9.9-6-15.2-8.4c-4.7-2.1-9.7-4.3-14.8-4.8c-4.5-0.5-9.6,0.8-11.2,5.5
					c-0.9,2.7-0.5,5.7,0,8.4c0.4,2.6,1.1,5.1,1.9,7.6c3.9,11.2,12,20.9,22.5,26.6C188.7,121.4,190.2,118.8,188.5,117.9L188.5,117.9z
					"/>
			</g>
		</g>
	</g>
	<g class="st1">
		<g>
			<path class="st8" d="M111.6,184.1c13.3,2.3,26.8-6.3,34.1-15.9c9.7-12.8,12.6-28.5,7.9-42.3c5-5.6,14.2-7.6,22.6-8.6
				c25.3-3,50.6-0.5,75.5,2c8.2,0.8,16.9,1.8,23.2,5.8c3.6,2.3,10.2,6.1,12.7,9.2c10.6,13.3,17.3,26,27.9,39.4
				c1.7,2.2,3.5,4.4,3.8,7.1c0.6,5.4-5.1,10.3-11,13.5c-17.4,9.7-38.7,13.2-59.2,16.2c-12.4,1.8-25,3.5-37.4,2.5
				c-11.9-1-23-4.6-34.6-7c-11.3-2.3-23-3.5-34.3-6c-11.2-2.5-22.2-6.5-29.8-13.3"/>
			<g>
				<path d="M111.2,185.6c11.5,1.9,22.8-3.3,30.9-11.1c8.3-7.9,13.7-19,15-30.4c0.7-6.2,0-12.6-2-18.6c-0.1,0.5-0.3,1-0.4,1.5
					c3.8-4.2,9.5-6,14.9-7.1c6.7-1.4,13.7-1.9,20.5-2.2c14.8-0.7,29.7,0.2,44.5,1.4c7.1,0.6,14.2,1.2,21.2,2
					c6,0.7,12.4,1.6,17.7,4.8c2.3,1.4,4.6,2.8,6.8,4.3c2.1,1.4,4.2,2.8,5.9,4.7c2.4,2.7,4.4,5.7,6.5,8.6c2,2.8,3.8,5.6,5.7,8.4
					c3.8,5.8,7.6,11.6,11.7,17.1c2,2.8,4.4,5.3,6.2,8.2c1.7,2.6,2.1,5.2,0.5,7.9c-3.1,5.2-9.4,8.2-14.6,10.6
					c-5.8,2.7-11.9,4.8-18.1,6.5c-13,3.6-26.3,5.5-39.6,7.3c-7.3,1-14.6,1.9-22,2.1c-7.2,0.2-14.4-0.5-21.5-1.9
					c-6.8-1.3-13.5-3.2-20.3-4.7c-7-1.6-14-2.6-21.1-3.7c-13-2.1-26.7-4.2-38.3-10.9c-2.5-1.4-4.9-3.1-7-5c-1.4-1.3-3.6,0.8-2.1,2.1
					c9.9,8.9,23.4,12.5,36.1,14.9c7.3,1.4,14.7,2.4,22,3.6c7.3,1.3,14.5,3.1,21.7,4.8c7,1.7,14.1,3.1,21.3,3.6
					c7.6,0.5,15.2,0,22.8-0.8c7.2-0.8,14.4-1.9,21.6-3c6.8-1.1,13.6-2.2,20.3-3.8c6.7-1.5,13.2-3.4,19.6-5.9
					c6-2.4,12.1-5.1,17.1-9.1c2.3-1.9,4.5-4.2,5.6-7.1c1.1-2.8,0.6-5.7-0.9-8.3c-1.8-3.1-4.3-5.7-6.4-8.6c-2.1-2.9-4.2-5.8-6.2-8.8
					c-4-6-7.9-12-12.1-17.9c-2-2.8-4.1-5.8-6.4-8.4c-1.8-2.1-4.2-3.7-6.5-5.2c-4.9-3.2-9.6-6.2-15.4-7.7c-6.7-1.7-13.8-2.1-20.6-2.8
					c-15.2-1.5-30.5-2.8-45.9-2.7c-7.8,0-15.6,0.4-23.3,1.3c-6,0.7-12,1.7-17.5,4.3c-2.5,1.2-4.8,2.8-6.6,4.8
					c-0.3,0.4-0.6,0.9-0.4,1.5c6.8,20.3-3.7,44.1-22.8,53.4c-5.4,2.6-11.5,4-17.4,3C110.1,182.4,109.3,185.2,111.2,185.6
					L111.2,185.6z"/>
			</g>
		</g>
		<g>
			<path class="st3" d="M175.5,108.9c-2.1-2.2-6.1-2-9.5-1c-3.4,1-6.6,2.8-10.2,3.2c-5.6,0.7-11.2-1.9-16.6-0.4
				c-3.4,0.9-5.9,3.2-8.2,5.5c-2,2-4,4.3-4.3,6.8s1.7,5.3,4.9,5.3c3.5,0,6.4-3,9.9-2.8c3.2,0.2,4.9,2.9,7.4,4.4
				c5.8,3.4,14.2-0.1,20.5-3.6c6.3-3.5,14.9-6.9,20.5-3.2c1.2,0.8,2,1.8,3.3,2.4c4.1,2.2,9.8-0.1,14.1-2.5c4.2-2.4,9.3-5.3,14-4
				c4.8,1.3,6.5,6.2,11.1,7.8c8,2.8,16.3-5.7,25.2-6.2c5-0.3,9.4,2,13.2,4.4c10,6.2,18.7,13.8,25.5,22.3c0-8.8-6.6-16.4-13.1-23.1
				c-6-6.2-13.4-12.7-23.5-12.7c-4.1,0-8.3,1.1-12.1,0c-4.1-1.2-6.5-4.6-10.6-5.7c-7.9-2-16.6,5.8-24.5,3.9
				c-1.9-0.5-3.5-1.4-5.5-1.7c-2.4-0.3-4.8,0.7-7.3,1C191.8,110.1,182.7,105.6,175.5,108.9"/>
			<g>
				<path d="M176.6,107.8c-2.8-2.9-7.4-2.4-11-1.4c-2.3,0.7-4.4,1.7-6.7,2.4c-2.3,0.7-4.6,1-7,0.8c-4.6-0.4-9.3-1.7-13.9-0.2
					c-4,1.4-7.3,4.5-9.9,7.7c-2.4,3-4.1,7-1.3,10.3c2.8,3.3,6.9,2.3,10.3,0.8c1.7-0.8,3.6-1.7,5.5-1.1c1.7,0.5,2.9,1.9,4.2,3
					c3.2,2.5,7.1,3,11.1,2.3c8.5-1.5,15.2-7.7,23.7-9.2c1.9-0.3,3.9-0.4,5.7,0.2c2,0.6,3.3,2.2,5.1,3.3c3.7,2.2,8.3,1,12-0.5
					c4.1-1.7,7.7-4.6,12.1-5.7c2-0.5,4.2-0.5,6.1,0.5c1.5,0.8,2.7,2.1,3.9,3.3c2.6,2.6,5.5,4.5,9.3,4.6c3.7,0.1,7.3-1.5,10.6-3
					c3.5-1.5,7-3.4,10.8-3.8c4.5-0.4,8.7,1.5,12.5,3.8c7.8,4.8,15.1,10.6,21.3,17.4c1.5,1.6,3,3.3,4.4,5.1c0.8,1,2.6,0.2,2.6-1.1
					c-0.1-10.1-7.6-18.2-14.3-25c-6.3-6.4-14-12.2-23.4-12.4c-5.1-0.1-10.3,1.6-14.9-1.2c-1.9-1.1-3.5-2.6-5.5-3.5
					c-2-0.9-4.1-1.3-6.3-1.2c-4.4,0.3-8.4,2.2-12.6,3.5c-2,0.6-4.1,1.1-6.2,1c-2.4-0.1-4.4-1.4-6.7-1.8c-3.1-0.5-5.9,0.7-8.9,1
					c-2.7,0.3-5.5-0.1-8.2-0.4c-5.4-0.8-10.9-1.8-16.1,0.5c-1.8,0.8-0.2,3.4,1.5,2.6c4.2-1.9,9.2-0.8,13.6-0.2
					c2.3,0.3,4.6,0.7,7,0.7c2.6,0,5-0.6,7.5-1.1c1.2-0.2,2.4-0.3,3.6,0c1.2,0.3,2.3,0.8,3.5,1.2c2,0.6,4,0.7,6.1,0.4
					c4.2-0.6,8.1-2.5,12.2-3.6c1.9-0.5,3.9-0.9,5.9-0.7c2.1,0.2,3.9,1.3,5.7,2.5c1.7,1.2,3.4,2.4,5.4,3.1c2.3,0.8,4.8,0.8,7.3,0.7
					c2.5-0.2,5-0.5,7.6-0.3c2.2,0.2,4.4,0.7,6.4,1.5c4,1.5,7.5,4.2,10.7,7.1c3.8,3.5,7.5,7.3,10.6,11.4c3.2,4.2,5.7,9,5.8,14.3
					c0.9-0.4,1.7-0.7,2.6-1.1c-5.5-6.8-11.9-12.8-19-18c-6.7-4.9-14.5-10.5-23.3-8.8c-3.7,0.7-7.1,2.4-10.5,4
					c-3,1.4-6.5,2.9-9.9,2.5c-3.5-0.5-5.6-3.2-8.1-5.5c-3-2.6-6.5-3.7-10.4-2.9c-4.3,0.8-7.9,3.5-11.7,5.4
					c-3.5,1.7-8.1,3.3-11.5,0.7c-1.5-1.2-2.9-2.3-4.8-2.9c-1.8-0.6-3.7-0.7-5.5-0.5c-4.1,0.4-8,1.9-11.7,3.7
					c-3.7,1.8-7.2,3.9-11.2,5.1c-3.5,1-7.6,1.5-10.8-0.8c-1.4-1-2.6-2.3-4.1-3.1c-1.7-0.9-3.5-1.2-5.4-0.8c-3,0.6-7.2,4.3-10.1,1.8
					c-3.3-2.8,1.2-7.2,3.2-9.3c1.4-1.4,2.9-2.7,4.7-3.6c2-1.1,4.2-1.4,6.4-1.3c4.5,0.2,8.9,1.5,13.4,0.7c4.3-0.8,8.2-3.4,12.7-3.7
					c1.7-0.1,3.4,0,4.7,1.3C175.8,111.3,177.9,109.2,176.6,107.8L176.6,107.8z"/>
			</g>
		</g>
		<g>
			<path class="st3" d="M156.7,140.7c2.5-1.6,7.8-3.7,10.7-4.5c2.9-0.9,6.3-0.8,8.6,0.7c1.7,1.1,2.6,2.8,3.3,4.5
				c2.5,5.8,4.1,12.8,10.6,15.4c5.5,2.2,12.3,0.2,17.4-3c5-3.2,9-7.5,14-10.8c3.7-2.5,8-4.4,12.5-5.5c1.3-0.3,2.8-0.6,4.1-0.4
				c5.6,0.8,5.9,8.3,11.2,10c2.9,0.9,6.2-0.3,8.9-1.8c2.7-1.5,5.4-3.3,8.5-3.7c3.6-0.4,7,1.2,9.3,3.5c2.3,2.2,3.8,5,5.5,7.6
				c6.2,9.8,15.5,18,26.7,23.7c-9.9,1.1-19.4-3.4-26.2-9.2c-2.9-2.5-5.5-5.2-8.7-7.4c-3.2-2.2-7.3-3.7-11.4-3.3
				c-5.6,0.5-11.6,4.3-16.2,1.8c-1.7-0.9-2.7-2.5-3.8-3.9c-2.5-3.2-6.5-6-11.1-5.4c-2.2,0.3-4.2,1.3-6.2,2.3
				c-9.1,5-17.5,11.1-27.4,14.6c-5.1,1.8-11.2,2.8-15.7,0.4c-6.1-3.3-6.4-11.1-12-14.9c-3.9-2.7-10.2-2.6-14.4,0.1"/>
			<g>
				<path d="M157.5,141.9c2.3-1.4,4.8-2.5,7.3-3.4c2.7-1,5.5-2,8.4-1.3c3.1,0.8,4.3,3.6,5.4,6.3c1,2.5,1.9,5.1,3.2,7.4
					c2.9,5.2,7.8,8.4,13.8,8.2c6.8-0.2,12.6-3.8,17.7-8c2.7-2.2,5.4-4.6,8.3-6.6c2.9-2,6.1-3.6,9.5-4.7c2.6-0.9,6.2-2.3,8.7-0.4
					c1.6,1.3,2.6,3.3,3.8,4.9c1.4,1.9,3.1,3.6,5.5,4.2c3.3,0.8,6.8-0.5,9.7-2.1c2.9-1.6,5.9-3.7,9.4-3.5c3.3,0.2,6.1,2.2,8.1,4.7
					c2.3,2.9,4,6.3,6.2,9.2c2.1,2.8,4.4,5.5,6.9,8c5.3,5.1,11.3,9.4,17.9,12.7c0.3-0.9,0.5-1.9,0.8-2.8c-6.1,0.6-12.2-0.8-17.6-3.6
					c-2.6-1.4-5-3-7.3-4.9c-2.3-2-4.5-4.1-6.8-6c-4.9-3.9-10.7-6.3-17-5c-2.8,0.6-5.5,1.7-8.4,2.1c-2.9,0.5-5.1-0.3-7-2.6
					c-1.8-2.2-3.5-4.2-5.9-5.7c-2.5-1.5-5.4-2.1-8.2-1.6c-3.1,0.5-5.9,2.3-8.6,3.8c-2.7,1.6-5.4,3.2-8.1,4.8
					c-5.5,3.3-11.2,6.5-17.3,8.5c-5,1.7-11.7,2.8-15.9-1.3c-3.8-3.7-4.8-9.4-9.1-12.7c-4.7-3.7-11.8-3.7-16.8-0.5
					c-1.6,1-0.1,3.6,1.5,2.6c4.3-2.7,10.5-2.7,14.2,1c3.3,3.3,4.4,8.1,7.6,11.4c4.1,4.2,10.1,4.5,15.5,3.4c6-1.3,11.7-4.2,17.1-7.2
					c5.5-3.1,10.7-6.6,16.3-9.4c2.7-1.4,5.5-2.1,8.4-1c2.6,1,4.6,2.9,6.3,5.1c1.7,2.2,3.5,4,6.4,4.4c2.8,0.4,5.6-0.4,8.3-1.1
					c2.8-0.8,5.7-1.7,8.7-1.3c3,0.3,5.8,1.7,8.3,3.4c2.9,2,5.3,4.6,8,6.9c2.4,2.1,5,3.9,7.8,5.4c5.9,3.2,12.7,5,19.4,4.2
					c1.3-0.1,2.2-2.1,0.8-2.8c-6-3-11.5-6.8-16.4-11.4c-2.4-2.3-4.6-4.7-6.6-7.3c-2-2.6-3.6-5.4-5.3-8.1c-1.8-2.7-3.9-5.3-6.9-6.8
					c-3.1-1.6-6.6-1.9-9.8-0.8c-4.9,1.7-11.8,8.5-16.6,3.2c-1.5-1.7-2.5-3.8-4-5.5c-1.7-1.9-3.9-3-6.5-2.8
					c-3.5,0.2-7.2,1.7-10.4,3.1c-3.3,1.5-6.2,3.4-9.1,5.7c-5.5,4.3-10.5,9.4-17.4,11.3c-3,0.8-6.3,1-9.2-0.2c-2.5-1-4.3-3-5.6-5.3
					c-1.6-2.7-2.5-5.6-3.7-8.5c-1.3-3.2-3.1-6.1-6.7-7.1c-3.3-0.9-6.6-0.2-9.7,0.9c-3,1.1-6,2.2-8.7,3.9
					C154.3,140.4,155.8,143,157.5,141.9L157.5,141.9z"/>
			</g>
		</g>
	</g>
	<g class="st1">
		<path class="st3" d="M153.2,86.3c-2-2.5-5.1-3.8-8-5.3s-5.8-3.4-6.9-6.4c-0.2-0.7-0.4-1.4-0.3-2.1c0.2-2.2,2.6-3.8,4.8-3.6
			c2.2,0.1,4.1,1.6,5.3,3.5c1.2,1.9,1.7,4,2.2,6.2c0.4,2.2,0.8,4.4,1.6,6.4"/>
		<g>
			<path d="M154.2,85.2c-1.9-2.3-4.6-3.6-7.2-4.9c-2.3-1.2-5-2.4-6.5-4.6c-0.7-0.9-1.4-2.3-0.9-3.5c0.4-1,1.4-1.6,2.4-1.8
				c2.7-0.5,4.8,2.2,5.7,4.3c1.4,3.4,1.4,7.2,2.8,10.6c0.3,0.8,1,1.3,1.8,1c0.7-0.2,1.4-1.1,1-1.8c-1.4-3.6-1.5-7.5-2.9-11
				c-1.3-3.2-4.2-6.2-7.9-6.2c-3.4,0-6.4,2.8-6,6.3c0.4,3.5,3.2,6,6,7.7c3.2,1.9,7.1,3.1,9.5,6c0.5,0.6,1.6,0.5,2.1,0
				C154.8,86.7,154.7,85.8,154.2,85.2L154.2,85.2z"/>
		</g>
	</g>
	<g class="st1">
		<path class="st3" d="M298,105.1c2.4-3.2,8-6.6,12-6.5s7.9,2.9,8.4,6.9c0.1,0.4,0.1,0.8-0.1,1.2c-0.4,0.8-1.5,1-2.4,1
			c-6.2-0.1-12.1-4.1-18.1-2.7"/>
		<g>
			<path d="M299.3,105.8c1.6-2.1,4-3.7,6.4-4.7c2.4-1.1,4.9-1.5,7.3-0.4c1.1,0.5,2.1,1.3,2.9,2.3c0.4,0.5,1.5,2.5,1.1,2.9
				c-0.4,0.3-1.4,0.1-1.8,0.1c-0.8-0.1-1.7-0.2-2.5-0.4c-1.5-0.3-3-0.8-4.5-1.2c-3.5-1-7-1.8-10.6-1c-1.9,0.4-1.1,3.3,0.8,2.9
				c3.7-0.8,7.5,0.6,11,1.6c1.9,0.5,3.8,1,5.8,1.1c1.6,0.1,3.7,0,4.5-1.7c0.8-1.6,0.1-3.7-0.7-5.1c-0.8-1.4-2-2.6-3.4-3.5
				c-2.9-1.8-6.3-2.1-9.4-1c-3.6,1.2-7,3.5-9.4,6.6c-0.5,0.6-0.1,1.7,0.5,2.1C298,106.8,298.8,106.5,299.3,105.8L299.3,105.8z"/>
		</g>
	</g>
	<g class="st1">
		<path class="st3" d="M289.5,113.5c2.2-1.3,4.7-2.2,7.3-2.2c2.6,0,5.2,1.1,6.8,3c1,1.2,1.6,2.8,1,4.2c-0.7,1.4-2.5,2.1-4.1,1.8
			s-2.9-1.3-4.1-2.3s-2.4-2.1-3.9-2.7c-1.2-0.5-2.6-0.7-3.5-1.7"/>
		<g>
			<path d="M290.2,114.8c3.7-2.2,8.9-3.1,12.1,0.4c0.6,0.6,1.1,1.6,0.9,2.4c-0.1,0.7-0.8,1-1.4,1.2c-2,0.5-3.9-1.4-5.4-2.6
				c-1.1-0.9-2.2-1.7-3.5-2.2c-1-0.4-2.3-0.5-3-1.4c-1.3-1.4-3.5,0.7-2.1,2.1c1,1.1,2.4,1.4,3.7,1.9c1.3,0.4,2.3,1.4,3.4,2.2
				c2.2,1.8,5,3.7,8,2.8c1.4-0.4,2.5-1.4,3-2.7c0.6-1.4,0.3-2.9-0.4-4.3c-1.3-2.5-4.1-4.2-6.8-4.7c-3.5-0.6-7.1,0.4-10.1,2.2
				C287.1,113.2,288.6,115.8,290.2,114.8L290.2,114.8z"/>
		</g>
	</g>
	<g class="st1">
		<path class="st3" d="M140,92.1c-2.5-2.7-8.1-2.3-10.8,0.2c-1.3,1.2-2.3,3-1.8,4.7c0.6,1.8,2.8,2.7,4.7,2.3s3.4-1.7,4.6-3.2
			s2.3-3,3.8-4.2"/>
		<g>
			<path d="M141.1,91c-3.3-3.4-9.7-2.9-13,0.3c-2.1,2-3.3,5.5-1,7.8c2,2.1,5.2,2.1,7.6,0.7c2.9-1.7,4.4-4.8,6.9-7
				c0.6-0.5,0.5-1.6,0-2.1c-0.6-0.6-1.5-0.5-2.1,0c-1.8,1.6-3.1,3.7-4.8,5.3c-0.7,0.7-1.5,1.3-2.5,1.6c-0.8,0.2-1.6,0.2-2.2-0.1
				c-0.7-0.3-1.1-0.7-1.1-1.5c-0.1-0.9,0.5-1.8,1.1-2.4c0.5-0.6,1.2-1,1.9-1.3c0.2-0.1,0.7-0.3,1.1-0.4c0.2-0.1,0.4-0.1,0.7-0.2
				c0.3-0.1,0.3-0.1,0.5-0.1c1.1-0.1,1.9-0.1,2.8,0.2c0.9,0.2,1.5,0.6,2.1,1.2C140.3,94.5,142.4,92.4,141.1,91L141.1,91z"/>
		</g>
	</g>
	<g class="st1">
		<g>
			<g>
				<path class="st9" d="M117.4,40.3c-8.4,2.2-18-1.3-23-7.4c-4-4.9-4.8-11.1-5.4-17.1c-1.8,7-8.4,13-16.6,15.2s-17.6,0.5-24-4.4
					c5.3,4.4,5.9,11.9,1.8,17.2s-11.9,8-19.3,7.4c7.2,4.1,12.6,11.1,11.6,18.3c-0.7,4.9-5.6,9.4-8.9,13.5c8.5-2.2,18.9,0.6,23.8,6.7
					c4,4.9,4.6,11.2,5.2,17.1c1.9-7,8.6-13,16.8-15.1s17.7-0.3,23.9,4.6c-5.2-4.4-5.7-12-1.6-17.2s12-7.9,19.4-7.3
					c-7.1-4.2-12.5-11.2-11.3-18.4C110.6,48.7,114,44.3,117.4,40.3z"/>
				<g>
					<path d="M117,38.8c-6.4,1.6-13.6-0.1-18.8-4.3c-5.7-4.7-7-11.7-7.7-18.7c-0.2-1.6-2.5-2.1-2.9-0.4c-2,7.2-8.5,12.3-15.5,14.2
						c-7.7,2.1-16.4,0.6-22.8-4.2c-1.4-1-3.1,1.3-1.8,2.4c4.7,4,5.4,10.9,1.4,15.6c-4.2,5.1-11.4,6.9-17.8,6.5
						c-1.5-0.1-2,2.1-0.8,2.8c5,2.9,10.1,7.7,10.9,13.8c0.8,6.4-4.8,11.1-8.5,15.6c-0.9,1.1-0.1,2.9,1.5,2.5
						c6.4-1.6,13.7-0.4,19.1,3.3c6.2,4.3,7.3,12.1,7.9,19.1c0.1,1.6,2.5,2.1,2.9,0.4c2.1-7.2,8.7-12.2,15.7-14
						c7.7-2,16.4-0.4,22.8,4.4c1.3,1,3.1-1.2,1.8-2.4c-4.6-4-5.2-11-1.2-15.6c4.3-5,11.5-6.8,17.9-6.3c1.5,0.1,2-2.1,0.8-2.8
						c-4.8-2.9-9.4-7.3-10.5-13c-1.3-6.3,3.3-11.9,7.1-16.4c1.2-1.5-0.9-3.6-2.1-2.1c-4.5,5.3-9.2,11.5-7.9,19
						c1.2,6.6,6.4,11.8,12,15.1c0.3-0.9,0.5-1.9,0.8-2.8c-7.5-0.6-16,1.8-20.7,8c-4.4,5.8-3.7,14.2,1.9,19c0.6-0.8,1.2-1.6,1.8-2.4
						c-10.9-8.3-28-7.4-37.6,2.5c-2.4,2.5-4.3,5.5-5.2,8.9c1,0.1,2,0.3,2.9,0.4C63.4,98.9,62,90.6,55,85.5
						c-6.1-4.4-14.5-5.6-21.7-3.8c0.5,0.8,1,1.7,1.5,2.5c4.4-5.3,10.3-10.5,9.4-18.1c-0.9-7.1-6.4-12.7-12.3-16.1
						c-0.3,0.9-0.5,1.9-0.8,2.8c7.5,0.5,16-2,20.6-8.2c4.4-5.9,3.5-14.3-2.1-19c-0.6,0.8-1.2,1.6-1.8,2.4c11,8.2,28.1,7.2,37.6-2.8
						c2.4-2.5,4.2-5.6,5.1-8.9c-1-0.1-2-0.3-2.9-0.4c0.4,4,0.8,8,2.2,11.8c1.4,3.7,3.6,6.9,6.6,9.3c5.9,4.7,14,6.7,21.4,4.8
						C119.7,41.2,118.9,38.4,117,38.8z"/>
				</g>
			</g>
		</g>
		<g>
			<path class="st10" d="M77.6,40.4c11.3-0.9,21.2,8,20.9,19.3c-0.1,2.3-0.6,4.6-1.6,6.8c-2.6,5.7-8.1,9.4-13.7,11.7
				c-3.6,1.5-7.4,2.6-11.3,2.4c-5-0.3-9.9-2.8-13.1-6.9c-1.8-2.3-3.1-5.1-3.8-8c-0.8-3.7-0.3-7.7,1.2-11.2
				C58.1,50.1,61.7,44,68,42.1C71.1,41.1,74.5,40.6,77.6,40.4z"/>
			<g>
				<path d="M77.6,41.9c7-0.5,13.9,2.9,17.3,9.1c1.7,3.1,2.4,6.8,1.9,10.4c-0.6,4.3-2.9,7.9-6.2,10.6c-3.1,2.7-7.1,4.6-11,5.8
					c-4.4,1.4-9,1.7-13.2-0.1c-3.9-1.7-7-4.9-8.8-8.8c-1.9-4.3-2-8.9-0.3-13.3c1.3-3.5,3.5-7,6.3-9.5C67.4,42.9,72.8,42.3,77.6,41.9
					c1.9-0.2,1.9-3.2,0-3c-4.9,0.4-10.4,1-14.5,4c-3.3,2.4-5.7,5.7-7.4,9.3c-2.2,4.6-3.2,9.5-1.9,14.5c1.2,4.8,4.1,9.1,8.2,11.9
					c8.6,6,19.7,3.2,27.9-2.2c3.9-2.6,7.2-6,8.9-10.4c1.7-4.2,1.7-9.2,0.2-13.5c-3.1-8.8-12.1-14.4-21.3-13.7
					C75.7,39,75.7,42,77.6,41.9z"/>
			</g>
		</g>
	</g>
	<g class="st1">
		<path class="st3" d="M-12.6,140.8c11.3-3.6,24.2-2.1,34.3,4.1c4,2.4,7.7,5.6,12.3,6.6c9.4,2,18.1-5.8,27.7-6.2
			c3.2-0.2,6.4,0.5,9.5,1.2c10.1,2.2,20.2,4.4,30.3,6.6c-7.1-0.7-14.3-1.4-21.4-2.1c-7.1-0.7-14.4-1.3-21.1,1.1
			c-5.3,1.9-9.7,5.5-14.5,8.5s-10.4,5.4-15.9,4.3c-4.5-0.9-8.3-4-12.2-6.4c-7.8-4.8-18.1-7-26.1-2.4c-0.8,0.4-1.6,1-2.5,0.7
			s-1-1.8-0.1-1.9"/>
		<g>
			<path d="M-12.2,142.3c7.1-2.2,14.7-2.5,21.9-0.7c3.6,0.9,7.1,2.3,10.4,4.1c3.2,1.8,6,4.2,9.4,5.8c3.2,1.5,6.6,2.2,10.2,1.7
				c3.4-0.4,6.7-1.7,9.9-2.9c3.2-1.3,6.4-2.6,9.8-3.2c4.2-0.8,8.2,0.2,12.3,1c9.8,2.1,19.7,4.3,29.5,6.4c0.1-1,0.3-2,0.4-2.9
				c-8.7-0.8-17.5-1.8-26.2-2.5c-4.1-0.3-8.2-0.3-12.2,0.4c-4,0.7-7.7,2.3-11.1,4.4c-6.4,3.9-12.9,9.9-20.9,9.8
				c-4-0.1-7.4-2.1-10.6-4.3c-3.1-2-6.2-3.9-9.7-5.3c-3.8-1.4-7.9-2.2-11.9-2c-2,0.1-4,0.5-5.9,1.2c-0.9,0.3-1.8,0.7-2.7,1.2
				c-0.4,0.2-0.8,0.5-1.2,0.7c-0.1,0-0.1,0.1-0.2,0.1c-0.3,0-0.4,0.1-0.3,0.3c0,0.1,0,0.1,0.1,0.2c0.1,0.3-0.1,0.5-0.5,0.7
				c1.9-0.4,1.1-3.3-0.8-2.9c-1.6,0.4-2.1,2.2-1.3,3.5c1,1.8,3.1,1.5,4.6,0.7c3.5-1.8,6.9-2.8,10.8-2.6c3.9,0.2,7.9,1.4,11.4,3.1
				c3.6,1.8,6.8,4.4,10.3,6.2c3.7,1.9,7.6,2.6,11.8,1.8c4.2-0.8,8.1-2.9,11.6-5.2c3.6-2.3,7-4.9,10.8-6.7c4-1.9,8.4-2.5,12.7-2.5
				c5.1,0,10.3,0.7,15.4,1.1c5.4,0.5,10.7,1,16.1,1.5c1.7,0.2,2-2.6,0.4-2.9c-8.9-1.9-17.7-3.9-26.6-5.8c-4.2-0.9-8.5-2.1-12.9-2.1
				c-3.6,0-7.1,1.1-10.5,2.3c-6.3,2.4-13.1,5.9-19.9,3.3c-3.5-1.4-6.5-3.9-9.8-5.8c-3.2-1.9-6.6-3.4-10.2-4.4
				c-8.2-2.3-17-2.3-25.1,0.3C-14.8,140-14,142.9-12.2,142.3L-12.2,142.3z"/>
		</g>
	</g>
	<g class="st1">
		<path class="st3" d="M326.2,142.1c19.4-3.6,39.3-4.5,58.9-2.9c-1,2.1-2.1,4.2-3.1,6.3c17.1,7.1,38.7,0.6,53.7,11.5
			c-17.9-1.1-35.7-2.2-53.6-3.3c-3.6-0.2-8-1-9.1-4.4c-0.5-1.5-0.2-3.3-1-4.8c-1.1-2.1-4-2.5-6.4-2.6c-12.8-0.4-25.7-0.5-38.6-0.3"
			/>
		<g>
			<path d="M326.6,143.5c19.3-3.5,39-4.5,58.5-2.8c-0.4-0.8-0.9-1.5-1.3-2.3c-1,2.1-2.1,4.2-3.1,6.3c-0.5,0.9,0,1.8,0.9,2.2
				c13.6,5.6,28.7,2.7,42.6,6.4c3.8,1,7.4,2.6,10.7,4.9c0.3-0.9,0.5-1.9,0.8-2.8c-16.4-1-32.8-2-49.1-3c-3.1-0.2-6.6,0-9.6-1.2
				c-1-0.4-2-1.1-2.5-2.2c-0.7-1.6-0.3-3.4-1-5c-1.2-2.7-4.2-3.4-6.9-3.6c-3.9-0.3-7.9-0.2-11.9-0.3c-9.2-0.2-18.5-0.2-27.7,0
				c-1.9,0-1.9,3,0,3c8.2-0.1,16.5-0.2,24.7-0.1c4.1,0.1,8.2,0.1,12.4,0.3c2.5,0.1,6.4-0.2,6.9,3c0.2,1.5,0.2,3,1,4.4
				c0.7,1.2,1.7,2.1,2.9,2.7c2.7,1.4,5.7,1.5,8.6,1.7c8.1,0.5,16.2,1,24.3,1.5c9.3,0.6,18.5,1.1,27.8,1.7c1.6,0.1,1.9-2,0.8-2.8
				c-12.2-8.7-28-6.6-42.1-8.6c-4.1-0.6-8.1-1.5-12-3.1c0.3,0.7,0.6,1.5,0.9,2.2c1-2.1,2.1-4.2,3.1-6.3c0.5-1.1-0.1-2.2-1.3-2.3
				c-19.8-1.6-39.8-0.6-59.3,2.9C323.9,141,324.7,143.9,326.6,143.5L326.6,143.5z"/>
		</g>
	</g>
</g>
<g>
	<g>
		<path d="M406.6,180c-6.8,0-13.5,0-20.3,0c-17.4,0-34.8,0-52.2,0c-23.9,0-47.8,0-71.8,0c-26.4,0-52.9,0-79.3,0
			c-24.7,0-49.5,0-74.2,0c-18.9,0-37.8,0-56.7,0c-9,0-18,0-27,0c-9.3,0-16.6-6.9-16.7-16.4c0-5.9,0-11.8,0-17.6c0-24.5,0-49,0-73.5
			c0-15.5-0.2-31.1,0-46.6c0.1-8.8,7.1-15.8,15.9-15.9c0.5,0,1,0,1.5,0c3.5,0,6.9,0,10.4,0c15.3,0,30.5,0,45.8,0
			c22.7,0,45.4,0,68.2,0c26.1,0,52.3,0,78.4,0c25.5,0,50.9,0,76.4,0c20.8,0,41.6,0,62.4,0c11.8,0,23.5,0,35.3,0
			c4.1,0,8-0.1,11.8,2.1c5.2,3,8,8.4,8,14.3c0,2,0,4.1,0,6.1c0,21.9,0,43.9,0,65.8c0,20.7,0,41.4,0,62c0,1.2,0,2.5,0,3.7
			C422.4,172.9,415.4,179.9,406.6,180c-1.9,0-1.9,3,0,3c9-0.1,17.1-6.6,18.6-15.6c0.3-2,0.3-4,0.3-6.1c0-7.8,0-15.7,0-23.5
			c0-25.5,0-51,0-76.5c0-9.4,0-18.8,0-28.2c0-2.2,0-4.4,0-6.6c0-5.3-1.8-10.4-5.7-14.2C415.3,8,409.7,7,403.7,7c-4.2,0-8.4,0-12.7,0
			c-16.5,0-33,0-49.5,0c-23.7,0-47.4,0-71.1,0c-26.7,0-53.4,0-80.1,0c-25.3,0-50.5,0-75.8,0C94.8,7,75,7,55.3,7
			c-9.9,0-19.7,0-29.6,0c-0.8,0-1.6,0-2.4,0C14.4,7.6,7,14.4,5.7,23.2C5,28.1,5.5,33.4,5.5,38.3c0,24,0,48,0,72
			c0,17.7-0.1,35.5,0,53.2c0,10.8,8.3,19.4,19.2,19.5c2.6,0,5.3,0,7.9,0c14.2,0,28.3,0,42.5,0c22.3,0,44.6,0,66.9,0
			c26.4,0,52.8,0,79.2,0c26,0,51.9,0,77.9,0c21.5,0,43.1,0,64.6,0c12.7,0,25.3,0,38,0c1.7,0,3.3,0,5,0
			C408.5,183,408.5,180,406.6,180z"/>
	</g>
</g>
</svg>
