<svg xmlns="http://www.w3.org/2000/svg" viewBox="0 0 381.28 380.33"><defs><style>.cls-1{fill:#ffda83;}.cls-2{fill:#ffe9b5;}.cls-3{fill:#4386c6;}.cls-4{fill:#e66869;}.cls-5{fill:#e3a621;}.cls-6{fill:#91b000;}.cls-7{fill:none;}.cls-8{fill:#848484;}.cls-9{fill:#1c1c1c;}.cls-10{fill:#c7c7c7;}.cls-11{fill:#e1262f;}.cls-12{fill:#7dc4ca;}.cls-13{fill:#878787;}.cls-14{fill:#ab2c2c;}.cls-15{fill:#f5f5f5;}.cls-16{fill:#c2e1e3;}</style></defs><title>Automata 2 prueba</title><g id="gráficos"><rect class="cls-1" x="4.14" y="3.67" width="373" height="373" rx="23.02" ry="23.02"/><path d="M354.12,375.17H33.62c-7.27,0-14.13.11-20.23-5-7.09-5.91-7.75-13.81-7.75-22.12V63.81c0-12.34-.38-24.75,0-37.09C6.06,13,17,5.17,29.81,5.17h278.9c14.84,0,29.68-.14,44.51,0,12.75.11,22.3,9.5,22.42,22.3,0,4.81,0,9.62,0,14.43V350.79c0,12.86-7.62,24-21.52,24.38-1.93.05-1.93,3.05,0,3,14.41-.44,24.44-11.7,24.52-25.81,0-5.5,0-11,0-16.51V71.73c0-14.8.15-29.62,0-44.42A24.94,24.94,0,0,0,354,2.17c-4-.09-8,0-12.06,0H29.62c-11.38,0-21.84,5.32-25.7,16.72C2.25,23.8,2.64,29.14,2.64,34.26v314.1c0,7.21.37,14,5,20.15,5.85,7.69,14.43,9.66,23.46,9.66h323A1.5,1.5,0,0,0,354.12,375.17Z"/><rect class="cls-2" x="27.63" y="27.15" width="326.03" height="326.03" rx="23.02" ry="23.02"/><path d="M330.64,351.68H74.24c-12,0-30.23,2.95-39.27-6.77-8.71-9.38-5.84-27.12-5.84-38.94V152.58c0-34.08-1.06-68.34,0-102.41.41-13.42,11-21.52,23.74-21.52H293.44c12.23,0,24.5-.3,36.73,0,12.51.31,21.85,9.62,22,22.19.05,4.16,0,8.32,0,12.48V328.13c0,12.66-8.23,23.15-21.51,23.55-1.93.06-1.94,3.06,0,3,14-.42,24.37-11.28,24.51-25.19.05-4.31,0-8.63,0-12.94v-227c0-12.94.25-25.89,0-38.82-.26-13.81-10.57-24.68-24.52-25-3-.08-6,0-8.95,0h-269c-9.9,0-19.11,4.13-23.83,13.3-2.72,5.29-2.71,10.73-2.71,16.43V325.53c0,6.4.33,12.5,4,18.12,5.26,8,13.78,11,22.9,11H330.64A1.5,1.5,0,0,0,330.64,351.68Z"/><path class="cls-3" d="M161.75,81.58a68.82,68.82,0,1,0,2.07,97.3A68.89,68.89,0,0,0,161.75,81.58ZM75.68,171.39a55.58,55.58,0,1,1,78.58-1.68A55.66,55.66,0,0,1,75.68,171.39Z"/><path d="M162.81,80.52C141.58,60.59,110,55.29,83.61,67.91c-26.78,12.81-42.75,42.15-39.28,71.57,3.44,29.15,25.35,53.76,54,60.29a71,71,0,0,0,74.77-30.21c18.28-28.13,13.49-65.75-10.31-89-1.38-1.36-3.5.76-2.12,2.12,20,19.54,26.42,49.83,15.14,75.6a67.34,67.34,0,0,1-126.6-9.16c-7.4-27.12,3.18-56.85,26.28-73,26.2-18.28,62-15.2,85.18,6.54C162.1,84,164.22,81.84,162.81,80.52Z"/><path d="M76.74,170.33c-16.25-16-21.39-40.76-11.76-61.63a54.08,54.08,0,1,1,79.82,67.11c-21.06,14.46-49.53,11.82-68.06-5.48-1.41-1.32-3.54.8-2.12,2.12,17.32,16.18,43,20.53,64.47,10.13A57.07,57.07,0,1,0,66.46,99.87c-15.11,22.86-11.19,53.55,8.16,72.58C76,173.8,78.12,171.68,76.74,170.33Z"/><path class="cls-4" d="M272.36,249.17a24.36,24.36,0,1,0,.75,34.46A24.36,24.36,0,0,0,272.36,249.17Zm-2.45,2.56c2.3,2.21,3.13,5.1,1.8,6.49s-4.24.67-6.55-1.54-3.12-5.11-1.82-6.47S267.6,249.52,269.91,251.73Zm-30.83,7c-1.3-1.24-.63-4.07,1.5-6.29s4.91-3,6.2-1.75.7,4.13-1.42,6.33S240.42,260,239.08,258.74Zm2.21,22.85c-2.12-2-2.87-4.69-1.66-6s3.91-.63,6,1.4,2.87,4.7,1.65,6S243.41,283.62,241.29,281.59Zm8.1-8.45a8.83,8.83,0,1,1,12.5-.27A8.79,8.79,0,0,1,249.39,273.14Zm14.95,9.53c-1.28-1.22-.63-3.95,1.42-6.09s4.73-2.88,6-1.65.64,3.95-1.4,6.07S265.62,283.9,264.34,282.67Z"/><path d="M273.42,248.11c-7.92-7.17-19.11-9.34-28.93-4.74a26.06,26.06,0,0,0-14.64,26.57c2.89,23.29,34.22,30.69,47.22,11.14,7-10.5,5-24.16-3.65-33-1.35-1.38-3.47.74-2.12,2.12,8.77,8.9,9.54,23.1.75,32.34A22.87,22.87,0,0,1,239,251c8.77-9.2,23.09-9.08,32.32-.73C272.73,251.52,274.86,249.4,273.42,248.11Z"/><path d="M268.85,252.79c.72.73,2.89,3.2,1.8,4.37s-3.68-.84-4.43-1.54-2.83-3.18-1.81-4.35,3.71.86,4.44,1.52c1.42,1.3,3.55-.82,2.12-2.12-2.14-1.94-6.16-4.11-8.69-1.53s-.24,6.62,1.82,8.6,6.19,4.07,8.67,1.54.21-6.57-1.8-8.61C269.61,249.29,267.49,251.42,268.85,252.79Z"/><path d="M240.14,257.68c-1-1.11.77-3.41,1.5-4.17s3-2.7,4.08-1.75-.77,3.53-1.42,4.21-3,2.66-4.16,1.71c-1.49-1.21-3.62.9-2.13,2.12,2.69,2.2,6.29.51,8.41-1.7,2-2,3.89-6.05,1.42-8.46s-6.41-.25-8.33,1.75-3.78,5.84-1.5,8.41C239.3,261.25,241.41,259.12,240.14,257.68Z"/><path d="M242.35,280.53c-.62-.62-2.57-2.82-1.66-3.84s3.28.81,3.91,1.4,2.55,2.84,1.65,3.84-3.28-.84-3.9-1.4c-1.43-1.29-3.56.82-2.12,2.12,2,1.83,5.77,3.82,8.14,1.4s.3-6.2-1.65-8.08-5.82-3.78-8.15-1.4-.24,6.16,1.66,8.08C241.58,284,243.71,281.91,242.35,280.53Z"/><path d="M250.45,272.08a7.33,7.33,0,1,1,10.38-.27,7.4,7.4,0,0,1-10.38.27c-1.44-1.27-3.57.84-2.12,2.12a10.33,10.33,0,1,0-.23-14.59,10.49,10.49,0,0,0,.23,14.59C249.67,275.6,251.79,273.47,250.45,272.08Z"/><path d="M265.4,281.61c-.94-1.06.73-3.23,1.42-4s2.87-2.56,3.89-1.65-.81,3.33-1.4,3.95-2.84,2.55-3.91,1.67c-1.48-1.21-3.61.9-2.12,2.12,2.61,2.13,6.1.48,8.15-1.67,1.89-2,3.79-5.85,1.4-8.19s-6.25-.31-8.13,1.65c-2,2.11-3.66,5.7-1.42,8.21C264.57,285.18,266.68,283.05,265.4,281.61Z"/><path class="cls-3" d="M303.13,217.08a68.82,68.82,0,1,0,2.07,97.3A68.89,68.89,0,0,0,303.13,217.08Zm-86.07,89.81a55.58,55.58,0,1,1,78.58-1.68A55.65,55.65,0,0,1,217.06,306.89Z"/><path d="M304.19,216C283,196.09,251.38,190.79,225,203.41c-26.78,12.81-42.74,42.15-39.28,71.57,3.44,29.15,25.35,53.76,54,60.29a71,71,0,0,0,74.77-30.21c18.28-28.12,13.49-65.75-10.31-89-1.38-1.35-3.5.77-2.12,2.12,20,19.54,26.42,49.83,15.14,75.6a67.34,67.34,0,0,1-126.6-9.16c-7.4-27.12,3.18-56.85,26.28-73,26.2-18.29,62-15.2,85.18,6.53C303.48,219.46,305.6,217.34,304.19,216Z"/><path d="M218.12,305.83c-16.24-16-21.39-40.75-11.76-61.63a54.08,54.08,0,1,1,79.82,67.11c-21.06,14.46-49.53,11.82-68.06-5.48-1.41-1.32-3.54.8-2.12,2.12,17.32,16.18,43,20.53,64.48,10.14a57.07,57.07,0,1,0-72.64-82.72C192.73,258.23,196.65,288.92,216,308,217.37,309.3,219.5,307.18,218.12,305.83Z"/><polygon class="cls-5" points="323.12 178.37 323.13 178.39 323.12 178.37 323.12 178.37"/><path class="cls-6" d="M122.91,69.66l.94.13a.3.3,0,0,0,.34-.27l.12-.94a.29.29,0,0,0-.09-.26h0l.31-2.13a.68.68,0,0,0-.58-.75.66.66,0,0,0-.74.58l-.28,2.12h0a.26.26,0,0,0-.15.22l-.13.94A.3.3,0,0,0,122.91,69.66Z"/><path class="cls-7" d="M156.74,86.8a61.58,61.58,0,1,0,1.86,87.07A61.65,61.65,0,0,0,156.74,86.8Z"/><path class="cls-8" d="M109.83,127.07a5.94,5.94,0,1,0,8.4-.19A5.94,5.94,0,0,0,109.83,127.07Z"/><path class="cls-9" d="M110,127.33a5.48,5.48,0,0,1,1.81-1.28,5.6,5.6,0,0,1,2.17-.47,5.42,5.42,0,0,1,2.18.38,5.53,5.53,0,0,1,1.86,1.19,5.59,5.59,0,0,1,1.27,1.82,5.41,5.41,0,0,1,.49,2.17,5.83,5.83,0,0,1-.38,2.18,5.7,5.7,0,0,1-1.2,1.87,5.49,5.49,0,0,1-1.82,1.27,5.7,5.7,0,0,1-6.22-1.1,5.64,5.64,0,0,1-1.27-1.82,5.52,5.52,0,0,1-.47-2.16,5.84,5.84,0,0,1,.38-2.19,5.66,5.66,0,0,1,1.2-1.86l-.25-.23a.72.72,0,0,1-.85.17c-.1,0-.23.06-.33.2a.35.35,0,0,0-.07.39.7.7,0,0,1-.22,1.17,1.09,1.09,0,0,1-.36,0c-.1,0-.21.12-.25.28s0,.34,0,.4a.75.75,0,0,1,.42.68.7.7,0,0,1-.28.5,1.85,1.85,0,0,1-.31.16c-.09,0-.16.17-.15.33s.06.34.18.37c.46.12.57.4.59.52a.69.69,0,0,1-.09.55.68.68,0,0,1-.27.24c-.09.05-.09.22,0,.38s.16.29.28.28a.8.8,0,0,1,.74.31.74.74,0,0,1,.06.57.79.79,0,0,1-.17.32c-.06.07,0,.22.08.36s.24.23.36.19a.72.72,0,0,1,.79.06.69.69,0,0,1,.24.51.9.9,0,0,1-.07.36c0,.08.07.23.19.32s.31.15.4.08a.74.74,0,0,1,.77-.19.71.71,0,0,1,.39.42.84.84,0,0,1,0,.36c0,.09.13.19.27.25s.35,0,.41-.06a.73.73,0,0,1,.68-.41.77.77,0,0,1,.49.27.8.8,0,0,1,.15.32c0,.1.18.16.35.16a.4.4,0,0,0,.37-.18.74.74,0,0,1,.51-.6.81.81,0,0,1,.55.1.76.76,0,0,1,.25.28c0,.08.22.08.38,0s.29-.16.29-.27a.76.76,0,0,1,.31-.74.84.84,0,0,1,.56-.08,1,1,0,0,1,.31.18c.07.07.24,0,.36-.07s.24-.25.2-.36a.74.74,0,0,1,.07-.78.78.78,0,0,1,.51-.25.94.94,0,0,1,.36.07c.08,0,.23,0,.32-.19s.15-.3.07-.39a.74.74,0,0,1-.17-.77.72.72,0,0,1,.42-.38.68.68,0,0,1,.35-.05c.09,0,.2-.13.25-.28s0-.34,0-.41a.73.73,0,0,1-.42-.67.71.71,0,0,1,.28-.49.65.65,0,0,1,.33-.15c.09,0,.14-.18.15-.35a.37.37,0,0,0-.18-.37.76.76,0,0,1-.6-.51.88.88,0,0,1,.12-.57.75.75,0,0,1,.27-.23c.08,0,.08-.22,0-.38s-.16-.3-.28-.29a.79.79,0,0,1-.73-.31.8.8,0,0,1-.07-.57.69.69,0,0,1,.19-.31c0-.08,0-.23-.08-.37s-.25-.24-.36-.2a.72.72,0,0,1-.79-.07.71.71,0,0,1-.24-.51.69.69,0,0,1,.08-.36c0-.08-.06-.22-.19-.32s-.31-.15-.39-.08a.7.7,0,0,1-1.17-.23,1.09,1.09,0,0,1,0-.36c0-.1-.12-.21-.28-.26s-.33,0-.39,0a.77.77,0,0,1-.69.41.78.78,0,0,1-.49-.28.75.75,0,0,1-.15-.33c0-.1-.17-.15-.33-.15s-.34,0-.37.16a.75.75,0,0,1-.53.6.85.85,0,0,1-.56-.11.94.94,0,0,1-.24-.28c0-.07-.21-.08-.38,0s-.3.16-.29.27a.78.78,0,0,1-.31.74.73.73,0,0,1-.57,0,.56.56,0,0,1-.31-.17c-.07-.06-.24,0-.37.08s-.24.24-.2.35a.75.75,0,0,1-.07.8l-.11.08Z"/><path class="cls-9" d="M111.23,128.49a3.94,3.94,0,0,1,2.82-1.24,4,4,0,0,1,1.53.27,4.1,4.1,0,0,1,1.32.85,4,4,0,0,1,.9,1.28,4.2,4.2,0,0,1,.34,1.52,4.46,4.46,0,0,1-.27,1.54A4,4,0,0,1,117,134a3.79,3.79,0,0,1-1.28.89,3.65,3.65,0,0,1-1.52.33,3.94,3.94,0,0,1-2.86-1.1,3.73,3.73,0,0,1-.89-1.29,3.59,3.59,0,0,1-.34-1.52,3.69,3.69,0,0,1,.27-1.54,4,4,0,0,1,.83-1.31l-.16-.16a.57.57,0,0,1-.62.1.34.34,0,0,0-.25.14c0,.09-.09.21,0,.28.23.27.18.47.14.55a.47.47,0,0,1-.29.27.53.53,0,0,1-.26,0c-.07,0-.14.09-.18.2s0,.23.05.28a.57.57,0,0,1,.31.48.56.56,0,0,1-.2.35.53.53,0,0,1-.24.11c-.07,0-.11.12-.1.25s0,.23.11.25c.35.1.43.28.44.36a.46.46,0,0,1-.08.39.39.39,0,0,1-.19.18c-.06,0-.07.16,0,.27s.11.21.21.21a.55.55,0,0,1,.53.2.58.58,0,0,1-.09.64s0,.16.06.25.18.17.26.13a.53.53,0,0,1,.56,0,.61.61,0,0,1,.18.36.55.55,0,0,1-.07.27c0,.06,0,.15.14.23a.25.25,0,0,0,.29.05.56.56,0,0,1,.54-.15.6.6,0,0,1,.28.3,1.68,1.68,0,0,1,0,.27c0,.06.08.14.19.17s.24,0,.29,0c.19-.3.4-.32.48-.3a.5.5,0,0,1,.35.19.82.82,0,0,1,.11.25c0,.06.13.11.24.1a.23.23,0,0,0,.26-.12c.09-.35.28-.42.36-.44a.55.55,0,0,1,.4.09.62.62,0,0,1,.18.19c0,.06.14.06.27,0s.2-.11.19-.19a.55.55,0,0,1,.22-.53.53.53,0,0,1,.4-.05.92.92,0,0,1,.23.14s.17,0,.25-.06.17-.17.14-.25a.48.48,0,0,1,.4-.74.49.49,0,0,1,.26.06c.07,0,.16,0,.24-.14s.1-.22.06-.27c-.24-.28-.18-.48-.14-.56a.46.46,0,0,1,.3-.27.59.59,0,0,1,.25,0c.06,0,.14-.08.18-.2s0-.23,0-.28a.51.51,0,0,1-.3-.48.48.48,0,0,1,.19-.35.92.92,0,0,1,.24-.11c.07,0,.11-.12.12-.24s0-.24-.13-.26a.54.54,0,0,1-.43-.37.51.51,0,0,1,.08-.39.69.69,0,0,1,.2-.17c.06,0,.06-.17,0-.27s-.1-.22-.19-.2a.57.57,0,0,1-.53-.22.52.52,0,0,1,.1-.63.28.28,0,0,0-.06-.26c-.08-.1-.17-.17-.25-.14-.34.13-.52,0-.57,0a.49.49,0,0,1-.17-.37.65.65,0,0,1,.06-.25c0-.07,0-.17-.14-.24s-.21-.11-.27,0a.56.56,0,0,1-.55.14.65.65,0,0,1-.28-.3.69.69,0,0,1,0-.26c0-.07-.08-.15-.19-.18s-.24,0-.29,0a.56.56,0,0,1-.48.31.54.54,0,0,1-.34-.22.49.49,0,0,1-.11-.24c0-.06-.13-.1-.24-.1a.25.25,0,0,0-.26.12c-.1.34-.29.41-.37.43a.49.49,0,0,1-.4-.08.65.65,0,0,1-.17-.19c0-.07-.16-.08-.26,0s-.22.11-.22.2a.51.51,0,0,1-.21.52.49.49,0,0,1-.4,0,.66.66,0,0,1-.23-.13s-.17,0-.26.06-.18.15-.14.24c.12.34,0,.52,0,.57a.18.18,0,0,1-.09.06Z"/><path class="cls-9" d="M112.51,129.71a2.26,2.26,0,0,1,1.55-.68,2.23,2.23,0,1,1,.1,4.45,2.24,2.24,0,0,1-2.28-2.18,2.27,2.27,0,0,1,.63-1.59l-.24-.23a.84.84,0,0,1-.52.3,1,1,0,0,1-.38,0c-.09,0-.23.12-.29.31s-.08.41,0,.47a1.1,1.1,0,0,1,.38.42.7.7,0,0,1,.08.29,1,1,0,0,1-.14.58,1.11,1.11,0,0,1-.27.27c-.08.05-.07.25,0,.44s.22.33.34.31a1.09,1.09,0,0,1,.56,0,.92.92,0,0,1,.26.14,1,1,0,0,1,.3.53,1,1,0,0,1,0,.38c0,.09.11.23.3.31s.4.08.47,0a1.1,1.1,0,0,1,.42-.38.91.91,0,0,1,.29-.08,1.12,1.12,0,0,1,.59.16,1,1,0,0,1,.26.27c0,.08.25.08.44,0s.33-.22.32-.33a1.13,1.13,0,0,1,0-.57.84.84,0,0,1,.15-.25,1.05,1.05,0,0,1,.52-.3,1,1,0,0,1,.39,0c.08,0,.23-.12.31-.31s.09-.39,0-.47a1.15,1.15,0,0,1-.36-.41.57.57,0,0,1-.07-.3,1,1,0,0,1,.16-.58.89.89,0,0,1,.27-.26c.08-.06.09-.25,0-.44s-.22-.34-.34-.32a1,1,0,0,1-.82-.21,1,1,0,0,1-.28-.53,1.1,1.1,0,0,1,0-.38c0-.09-.12-.23-.31-.32s-.38-.09-.45,0a1.11,1.11,0,0,1-.43.35.53.53,0,0,1-.31.07,1,1,0,0,1-.58-.18,1,1,0,0,1-.25-.27c0-.08-.24-.08-.43,0s-.35.2-.33.32a1.14,1.14,0,0,1-.06.56.59.59,0,0,1-.16.25.45.45,0,0,1-.14.11Z"/><path class="cls-4" d="M140.9,214.17l0,.06h0A.09.09,0,0,0,140.9,214.17Z"/><path d="M139.61,214.93l0,0a1.52,1.52,0,0,0,2.35.31h0a1.53,1.53,0,0,0,.24-1.81l0-.06a1.54,1.54,0,0,0-2.06-.53,1.52,1.52,0,0,0-.53,2.05l0,0,.23-1.82h0l2.36.31,0-.06a1.5,1.5,0,0,0-2.59,1.52Z"/><path class="cls-4" d="M202.33,199.17c-1.23-.41-1.61-.94-1.73-1.29s0-.43,0-.65c.33-.89,1.46-1.14,1.92-1.22.64-.09.75-1.51-.05-1.67-1.35-.29-1.76-.8-1.9-1.14l0-.54c.18-1,1.29-1.37,1.73-1.5.63-.18.56-1.59-.25-1.64-1.51-.12-1.94-.68-2.07-1a1.42,1.42,0,0,1,0-.2c-.14-1.11,1.05-1.73,1.52-2s.32-1.65-.47-1.6c-1.66.09-2.11-.52-2.23-.78-.36-1.17.8-2,1.24-2.24s.13-1.69-.66-1.54c-1.66.31-2.16-.24-2.33-.5-.51-1.08.55-2,1-2.37s-.08-1.68-.86-1.43c-1.58.51-2.15,0-2.34-.19-.66-1,.28-2.12.63-2.48s-.32-1.65-1.06-1.32c-1.51.72-2.13.31-2.33.11-.79-.92,0-2.13.29-2.53s-.51-1.6-1.2-1.16c-1.41.89-2.09.57-2.32.39-.89-.81-.28-2.1,0-2.55s-.72-1.53-1.33-1c-1.3,1.08-2,.83-2.27.71-1-.71-.53-2.06-.32-2.53.24-.62-.91-1.45-1.47-.84-1.14,1.21-1.86,1.08-2.14,1-1.08-.56-.8-2-.67-2.46s-1.07-1.29-1.54-.65c-1,1.38-1.74,1.33-2,1.26-1.15-.42-1-1.85-1-2.35.12-.66-1.22-1.16-1.6-.44-.79,1.49-1.53,1.53-1.82,1.49-1.21-.27-1.26-1.7-1.28-2.21s-1.38-1-1.66-.23c-.59,1.59-1.32,1.73-1.61,1.72-1.22-.12-1.5-1.51-1.54-2s-1.48-.8-1.66,0c-.4,1.63-1.14,1.87-1.41,1.9-1.22.05-1.65-1.32-1.78-1.81s-1.57-.6-1.65.19c-.2,1.68-.87,2-1.14,2.08-1.21.2-1.83-1.09-2-1.57s-1.63-.4-1.61.4c0,1.68-.59,2.1-.85,2.2-1.2.34-1.95-.86-2.2-1.3s-1.69-.19-1.56.61c.24,1.66-.31,2.15-.57,2.29-1.13.49-2-.61-2.33-1-.39-.55-1.7,0-1.48.81.47,1.6,0,2.17-.27,2.34-1,.64-2.1-.34-2.46-.7s-1.66.24-1.33,1c.64,1.54.23,2.17,0,2.36-1,.76-2.13-.06-2.53-.38s-1.62.46-1.19,1.15c.84,1.47.49,2.12.31,2.35l-.07.08c-.86.87-2.12.2-2.53-.08-.58-.34-1.58.68-1.07,1.31,1,1.31.79,2,.63,2.28-.73,1-2.07.48-2.55.26s-1.44.86-.87,1.43c1.21,1.17,1,1.91.91,2.17-.59,1.07-2,.74-2.46.59s-1.33,1-.7,1.53c1.35,1,1.28,1.76,1.19,2.05-.46,1.13-1.87,1-2.38.89s-1.17,1.2-.49,1.61c1.48.83,1.49,1.59,1.45,1.86-.32,1.18-1.74,1.22-2.25,1.21s-1,1.35-.27,1.65C128.9,190,129,190.7,129,191c-.16,1.23-1.56,1.44-2.07,1.48-.66.07-.86,1.47-.08,1.69,1.62.43,1.84,1.16,1.88,1.44,0,1.21-1.39,1.63-1.88,1.73-.64.13-.65,1.55.14,1.67,1.67.24,2,.9,2,1.2.16,1.21-1.16,1.78-1.62,2-.63.23-.47,1.63.35,1.64,1.66,0,2.07.64,2.16.92.31,1.18-.91,1.92-1.37,2.16s-.24,1.67.57,1.58c1.66-.2,2.14.37,2.27.63.46,1.12-.68,2-1.09,2.3s0,1.7.77,1.48c1.63-.4,2.18.12,2.34.34.59,1.09-.41,2.09-.78,2.43s.19,1.7,1,1.39c1.56-.62,2.17-.18,2.36,0,.74,1-.13,2.12-.45,2.5s.4,1.65,1.1,1.24c1.48-.79,2.13-.43,2.35-.25.86.89.15,2.11-.14,2.56s.62,1.56,1.28,1.08c1.34-1,2-.71,2.28-.56,1,.78.41,2.09.19,2.56s.8,1.47,1.39.92c1.22-1.17,1.95-1,2.21-.84,1,.62.68,2,.51,2.49s1,1.35,1.5.74c1.06-1.3,1.79-1.22,2.08-1.14,1.13.51.92,1.93.84,2.42s1.14,1.22,1.56.55c.9-1.43,1.65-1.44,1.91-1.39,1.17.36,1.18,1.79,1.14,2.29-.05.65,1.32,1.06,1.65.32.7-1.52,1.43-1.62,1.71-1.61,1.2.2,1.38,1.62,1.42,2.12.05.66,1.44.89,1.67.14.49-1.62,1.22-1.82,1.51-1.84,1.21.05,1.57,1.42,1.65,1.94s1.56.71,1.68-.11c.28-1.65,1-1.93,1.26-2,1.23-.11,1.76,1.21,1.91,1.7s1.6.51,1.63-.3c.08-1.68.75-2.07,1-2.15,1.18-.25,1.89,1,2.11,1.44s1.64.29,1.58-.51c-.13-1.67.46-2.14.72-2.26,1.14-.41,2,.75,2.27,1.17s1.69.07,1.51-.71c-.36-1.65.19-2.17.41-2.33,1.09-.55,2.07.47,2.41.88s1.68-.16,1.41-.92c-.56-1.59-.1-2.18.11-2.36,1-.7,2.13.2,2.5.54s1.64-.35,1.28-1.07c-.76-1.51-.38-2.15-.2-2.36.92-.81,2.14-.07,2.55.21s1.58-.55,1.13-1.23c-.94-1.37-.63-2.07-.48-2.3.8-.92,2.1-.34,2.56-.1s1.49-.76.95-1.36c-1.11-1.26-.89-2-.75-2.23.66-1,2-.6,2.49-.43.63.23,1.4-.95.8-1.48-1.1-.95-1.16-1.65-1.1-2l.12-.26c.6-.92,1.88-.73,2.38-.61s1.24-1.12.58-1.57c-1.19-.78-1.36-1.45-1.34-1.79,0-.11.08-.21.11-.32a.64.64,0,0,0,0-.07c.49-.91,1.75-.87,2.22-.84.64.08,1.1-1.26.38-1.6-1.23-.61-1.51-1.22-1.56-1.58,0-.18.07-.36.11-.54.41-.9,1.59-1,2.07-1C202.8,200.84,203.1,199.43,202.33,199.17Zm-42.58,6.35-.1.19-5.18,9.11h0a7.69,7.69,0,0,1-3,2.76,7.81,7.81,0,0,1-10.47-3.35h0l-5.08-10a7.8,7.8,0,0,1,3.41-10.51,7.54,7.54,0,0,1,4-.82l.83.09,9.64,1.09.23,0a7.83,7.83,0,0,1,5.91,4.22A7.72,7.72,0,0,1,159.75,205.52Zm.44,19.33a4.28,4.28,0,1,1-2.74-5.4A4.29,4.29,0,0,1,160.19,224.85Zm-27-39.81a4.28,4.28,0,1,1,8.14,2.66,4.28,4.28,0,0,1-8.14-2.66Zm22.06,5-.2-.09-9.1-5.19v0a7.82,7.82,0,0,1,.67-13.53l-.07,0,10-5.12a7.82,7.82,0,0,1,10.51,3.44,7.5,7.5,0,0,1,.83,4l-.08.83-1.1,9.63v.24a7.81,7.81,0,0,1-11.48,5.8Zm7.46,26.72,1.09-9.66,0-.22A7.83,7.83,0,0,1,175.28,201l.19.11,9.1,5.19h0a8,8,0,0,1,2.76,3,7.83,7.83,0,0,1-3.44,10.51l.08,0h0l-10.05,5.09a7.76,7.76,0,0,1-10.48-3.42,7.85,7.85,0,0,1-.85-4Zm8.05-31.24.14-.18,5.18-9.11h0a7.79,7.79,0,0,1,13.54.66s0,0,0-.06l5.09,10a7.78,7.78,0,0,1-7.41,11.33l-.83-.08L176.8,197l-.21,0a7.76,7.76,0,0,1-5.92-4.21A7.91,7.91,0,0,1,170.74,185.47Zm-.42-19.31a4.28,4.28,0,1,1,2.75,5.42A4.28,4.28,0,0,1,170.32,166.16Zm18.88,37.16a4.28,4.28,0,1,1,2.75,5.39A4.29,4.29,0,0,1,189.2,203.32Z"/><path d="M203.09,197.88c.11.05,1.54-2.24,1.42-3.06s-.8-1-.95-1.55c-.31-1.18-.53.25-.35-.93.19-1.33,1.58-1.58.58-3.32-.26-.46-1.36-.69-1.46-1.14s.81-1,.89-1.63c.29-2.1-1.12-1.67-1.83-2.91-.49-.86.05.13-.1-.81-.11-.74.56-1.18.28-2.09-.44-1.4-2.11-1.3-2.43-2.17-.44-1.21,1.19-2.15-.6-3.46-.32-.24-1.74-.19-1.84-.32-.36-.48.41-.76.23-1.45-.23-.84.11-.95-.6-1.76-.48-.55-1.29-.43-1.65-.79-.69-.72-.43.07-.92-.77-.24-.4.06-1.19-.27-1.73-1-1.74-2.55-.25-3.44-1-.61-.54.57-2.35-1.18-3.16-.57-.26-1.41.16-1.84-.05-.95-.47-.05-.35-.82-1.09-1.23-1.19-1.19-1.27-2.9-1.67-.75-.18-.75.65-1.28.26-.19-.15-.28-1.49-.62-1.85-1.42-1.51-2.35.26-3.45-.06s-.88-2.22-2.73-2.3c-.68,0-1.19.65-1.72.65-.25,0-.23.48-.54.44s0-.5-.27-.56c-1.31-.33-1.18-1.8-3.24-1.36-.64.14-.82,1.07-1.5,1-.16,0-.76-1.22-1.12-1.36-2.14-.82-2,.91-3.37,1.17-.69.14-1.36-1.26-2.66-1.21-1.51.06-1.92,1.51-2.9,1.52-1.28,0-1.78-1.52-3.37-.2a15.06,15.06,0,0,0-.8,1.66c-.57.17-.8-.75-1.54-.75-2.07,0-1.61.79-2.94,1.68-.87.59,0,.23-.95.48-.62.16-1.18-.4-1.94-.12-1.55.56-1,2.47-1.79,2.89s-2.2-1.35-3.47.44c-.29.41-.16,1.57-.39,1.79-.67.66-.54-.16-1.34.27-.63.33-1,.07-1.65.67s-.29,1.33-.73,2c-.23.36.52.54,0,1.06,0,0-.63-.3-.75-.21-.42.31-1.19.08-1.71.49-1.36,1.05-.36,2.62-1.08,3.39s-2.4,0-2.7,2c-.06.41.45,1.37.34,1.64-.38.88-.27-.12-1.26.77-1.46,1.31-.68,1.75-1.15,3.16-.19.58.14.57-.14,1.11s-1.21.57-1.54,1.15c-.9,1.58.94,2.46.68,3.33s-2.38.72-2.21,2.72c0,.58.87,1.21.85,1.63,0,.63-.23.4-.4,1s-.8.79-.93,1.48c-.2,1.13.4,1.2.62,2.07s.78.28.71,1c0,.17-1,.74-1.14,1.08-.91,2.27,1.27,2.1,1.46,3.4.17,1.15-1.53,1.76-.86,3.37.24.57,1.11.86,1.28,1.28s.66,0,.79.48c0,.07-.69.59-.68.82,0,1.41-.3,1.74.62,3.05.46.65,1.22.15,1.51.88.1.25-.71,1.47-.6,2.05.38,2.08,2.31,1,2.93,2.2.49.92-1.35,2.22.41,3.5.37.28,1.36.18,1.6.45.43.47.06.46.41,1,.24.39,0,1.16.37,1.7.78,1.18,1.44.4,2.23,1,.24.2.55-.34.92.05,0,0-.29.64-.21.76.29.41.07,1.16.46,1.68,1,1.35,2.59.46,3.32,1.2.88.89-.11,2.12,1.78,2.7.54.17,1.49-.44,1.84-.29.87.38.06.92.84,1.72,1.45,1.5,2.05.21,3.38.67.82.29.85,1.43,2,2,1.35.68,2.59-.48,3.32-.18.31.12.62,1.17,1,1.43a2.92,2.92,0,0,0,2.24.17c.79-.1.74-.93,1.51-.77.24.05.71,1.21,1.1,1.39,1.94.9,1.93-.76,3.31-.9.92-.09,1.53,1.52,3.09,1.27.77-.12.92-.75,1.52-1,.17-.06.28-.64.39-.66,1.08-.26-.34.23.66.37,1.54.23,1.56,1.16,3.36.28.45-.23.51-1.3,1-1.41s.94.75,1.63.82c2.13.23,1.63-1.18,2.88-1.87.85-.46,2.25.75,3.59-.25,1.12-.85.76-1.72,1.71-2,1.52-.5,1.92.34,3.28-1.21.62-.7-.17-1.13.56-1.6.2-.13,1.38.36,1.78.23,2.21-.69.78-2.63,1.85-3.45.85-.66,2.09.72,3.09-.91.35-.56,0-1.39.27-1.82.57-.95.19,0,1.24-.78a3.73,3.73,0,0,0,1.89-2.49c.37-1-.35-.79.17-1.45.3-.38,1.44-.33,1.92-.9,1.16-1.43-.47-2.27-.09-3.32.22-.6,2.39-.45,2.68-2.15.12-.75-.3-1.11-.44-1.8,0-.26-1.11-.84-1.07-1s.94.37,1.19.14c1.27-1.2,1.89-1.22,1.64-3.22-.05-.43-1-1-1-1.29s1-.33,1.24-.8c.81-1.47,1.07-2.17-.08-3.61s-3.31.63-2.12,2.12c-.36-.44.25-1.47-1.47-.21a3,3,0,0,0-1.2,1.71c-.28,1.24,1.13,3.84,1.69,2.38-.25.65-2.6.76-2.92,2.3a2.46,2.46,0,0,0,.23,1.6c1,1.65,2.3-.12.37.67-1.13.47-2.21,1-2.39,2.36-.09.76.42,1.2.52,1.88.13.94,1.75-1.07-.77,0-1.75.72-1.89,1.6-1.93,3.23s1.65-.1.13.57c-.85.38-1.87.07-2.58,1a2.31,2.31,0,0,0-.44,1.67,8.86,8.86,0,0,1,.23,1.14c-.1.62,1.42-.83.5-.19s-3.42-.83-4,1.57c-.62,2.74,1.77.91-1.33,1.23-2.52.25-1.59,1.63-2.43,3.17-.15.27,1.77-.41-.68-.63a3.63,3.63,0,0,0-2.34.37c-.59.42-.52,1-.93,1.45-1.26,1.42,2.27.88-.74.26-1.63-.35-2.89-.11-3.56,1.54-.44,1.12.59.85.33.88-.65.07-1.61-1.4-2.79-1.25s-3.21,2.89-1.48,2.87c-1.09,0-1.56-2.78-3.82-1.91-.69.26-.87.86-1.42,1.29-.88.69,2,1.39-.29-.34-1.64-1.24-2.27-1-3.88-.17s.95,1.4-.46.45c-.79-.53-.68-1.42-2-1.64a2.44,2.44,0,0,0-1.57.22c-.32.19-.59.48-.91.67-.87.52.93,1.05.15.7-1.05-.47-.88-2.86-3-2.63-.63.07-1.21.76-1.72.8-2.58.2,1.47,1,.18.39.4.18-.49-1.51-.56-1.61-1.21-1.65-2.08-1-3.69-.73-1.2.2,1,2.19-.1-.43a3.75,3.75,0,0,0-1.34-1.91,2.72,2.72,0,0,0-1.94-.16c-1.63.3,0,1.49-.62.2s-.59-3.39-2.76-3a7.48,7.48,0,0,1-1.13.25c-.55-.05.61,1.58.14.56-.19-.42.24-1.47.05-2.09a2.53,2.53,0,0,0-1.33-1.69c-.37-.17-3-.3-2.11.66-.41-.42.88-2.85-.51-4-.65-.52-1.36-.29-2.06-.53-.94-.32.21,2.15.36-.59.09-1.67-.29-2.72-1.87-3.26-1.81-.63-.84,1.68-.43-.52a3.81,3.81,0,0,0,.06-2.36,2.18,2.18,0,0,0-1.25-1.19,8.78,8.78,0,0,1-1.09-.34c-.44-.35-.27,1.68-.18.55.1-1.35,2.3-2.6.51-4.23-.23-.21-2.19-1.23-1.93-.16a16.45,16.45,0,0,0,1.41-1.53c.93-2.15-.45-2.43-1.59-3.7-.41-.44-.52,1.9.87-.43a3.54,3.54,0,0,0,.69-2.06c-.1-.88-.63-1.13-1.1-1.81-.86-1.24-1.27,1.14-.27-.18.82-1.1,2.28-1.93,1.37-3.6-.15-.28-1.48-2.14-1.87-.68a11.85,11.85,0,0,0,2.19-1.07c1.48-1.66.31-2.1,0-3.73-.13-.65-1.48.93.46,0a3.35,3.35,0,0,0,1.76-1.79,2.29,2.29,0,0,0-.12-1.59c-.84-1.7-1.63-.23-.62-.78,1.28-.7,3-.76,2.82-2.81,0,.1-.64-2.35-.95-1.45-.16.49,1,.36,1.78,0,2.1-.87,1.41-2,1.44-3.76,0-.59-1.62.59-.63.11.3-.14,1,.28,1.34.23a3.63,3.63,0,0,0,2-.87,2.53,2.53,0,0,0,.64-1.12c.3-1.42-.42-1.73-.53-1.67,1.13-.64,3,.93,3.9-1.24.19-.46-.15-2.24-.31-1.88.09-.2-1.22.26.7.49a7.1,7.1,0,0,0,1,.18c2.26,0,2-1.23,2.78-2.72.36-.68-2-.5.32.26a3.34,3.34,0,0,0,2.56,0,2.31,2.31,0,0,0,1-1.19,6.76,6.76,0,0,1,.32-1.1c1.26-1.83-1.7-.3-.61-.24,1.47.09,2.46,2.23,4.25.45,2.2-2.19-1.52-1.87,1.48-.69,2.12.83,2.49-.09,3.79-1.39.87-.89-2.17-1.13.22.34.68.41,1.23,1,2.16.93a2.51,2.51,0,0,0,1.46-.58c.27-.25.48-.63.76-.85.77-.64-1.18-.65-.3-.47,1.11.22,1.49,2.62,3.51,1.9.62-.22.95-.9,1.47-1.17,2-1-1.31-1.17-.4-.54.13.08.48,1.27.73,1.55,1.26,1.43,2.34.95,3.75.38s-.73-1.69.25-.31c.55.77.45,1.57,1.59,2.05s4-.47,2.7-1.38a11.17,11.17,0,0,0,.53,2.22,2.53,2.53,0,0,0,2.16,1.27c2.91,0,.57-2.37,1.49.36.66,1.92,1.86,2.06,3.58,1.9,1.27-.13-.26-2.13.14.1a3.66,3.66,0,0,0,.62,2.08c.7.84,4.11,1.22,3.13-.12.66.9-1.09,2.87.81,4.07.71.44,1.36.14,2.08.32s-.12-1.75.13-.7c.09.4-.54,1-.55,1.44-.05,2.3.83,2.2,2.35,3.08,1.13.66.56-1.22.7-.48.16.92-1.09,1.71-.57,3,.39.94,3.53,2.42,3.09.78.26,1-2.29,2.26-1,4.16,1.85,2.64,2.49-1.09,1.29,1.41-.57,1.19-.89,2.68.34,3.6a7.14,7.14,0,0,0,1,.57c1,.55.81-1.39.65-.55-.06.31-1.47,1.26-1.67,1.81-.66,1.81.47,2.21,1.41,3.38.41.5,1.5-1.41-.26,0a3.56,3.56,0,0,0-1.23,1.59c-.53,1.85.89,3,2.38,3.64C203.32,201.26,204.85,198.67,203.09,197.88Z"/><path d="M158.46,204.76c-1.39,2.62-3.39,5.13-4.47,7.88-.19.47-.56.86-.75,1.32-.13.29,1.78-1.51.46-.43s-2.47,2.49-3.87,3.08c-3,1.26-6.07-.69-7.6-3.14a1.53,1.53,0,0,0-2.36-.31h0l2.36.31c-2.47-4.88-10.46-16.06-1.27-18.88,2.47-.75,6,.17,8.42.45,5.13.58,12.42,1.87,9.09,9.71-.75,1.76,1.83,3.29,2.59,1.52C166.29,194,151,190.52,141.9,191.39A9.35,9.35,0,0,0,134.15,204c1.38,3.8,3.66,7.39,5.48,11a1.51,1.51,0,0,0,2.35.31h0l-2.35-.31a9.56,9.56,0,0,0,7.59,4.9A9.31,9.31,0,0,0,152,219a6.53,6.53,0,0,0,1.68-1.06c1.43-1.36.6-1.31.81-1.57s1-.27,1.36-.84c.57-.89,1-1.86,1.58-2.78,1.21-2.14,2.49-4.25,3.64-6.42C162,204.57,159.36,203.05,158.46,204.76Z"/><path d="M158.75,224.45c-1.29,3.33-6.47,1.53-5.26-1.86s6.18-1.55,5.26,1.86a1.5,1.5,0,0,0,2.89.8A5.78,5.78,0,1,0,154.4,229a5.86,5.86,0,0,0,7.24-3.79C162.34,223.45,159.44,222.67,158.75,224.45Z"/><path d="M134.62,185.44c1.28-3.34,6.44-1.54,5.24,1.86s-6.15,1.54-5.24-1.86a1.5,1.5,0,0,0-2.89-.79,5.78,5.78,0,1,0,7.25-3.81,5.86,5.86,0,0,0-7.25,3.81C131,186.45,133.94,187.23,134.62,185.44Z"/><path d="M156,188.69c-2.73-1.22-5.1-3.36-7.88-4.46-.47-.19-.86-.56-1.32-.76-.27-.11,1.5,1.78.44.46s-2.49-2.45-3.08-3.86c-1.27-3,.74-6.09,3.21-7.62a1.5,1.5,0,0,0-1.51-2.59l-.08,0,1.52,2.59c4.88-2.5,16-10.5,18.86-1.28.76,2.46-.16,5.95-.43,8.41-.59,5.12-1.88,12.46-9.73,9.07-1.75-.75-3.28,1.83-1.51,2.59,12.31,5.32,15.77-10.05,14.89-19.13a9.38,9.38,0,0,0-12.61-7.76c-3.8,1.37-7.4,3.67-11,5.51-1.73.88-.21,3.39,1.52,2.59l.07,0-1.51-2.59a9.56,9.56,0,0,0-5,7.6,9.13,9.13,0,0,0,.93,4.76,6.56,6.56,0,0,0,1.05,1.69c1.32,1.38,1.34.61,1.56.8s.28,1,.85,1.35c.89.58,1.85,1.06,2.77,1.59,2.11,1.2,4.21,2.64,6.43,3.63C156.23,192.07,157.75,189.48,156,188.69Z"/><path d="M164.19,216.71c.69-6.1.5-18.56,10.62-14.24,5.74,2.44,18.31,9.95,8.34,16.1a1.5,1.5,0,0,0,1.51,2.59l.07,0-1.81-2.36c-.83.86-5.62,2.77-7.5,3.73a13.57,13.57,0,0,1-4.08,1.63c-4.44.68-7.66-3.2-7.15-7.42.24-1.92-2.77-1.9-3,0a9.35,9.35,0,0,0,12.55,9.91,57.8,57.8,0,0,0,6-2.94c1.56-.79,4.1-1.5,5.34-2.79a1.5,1.5,0,0,0-1.82-2.35l-.07,0,1.51,2.59c5.08-3.13,6.88-9.93,2.52-14.57-2.74-2.92-7.33-4.94-10.86-6.71-4.88-2.47-10.88-1-13.24,4.19-1.68,3.71-1.44,8.67-1.89,12.64C161,218.62,164,218.61,164.19,216.71Z"/><path d="M172,186.23c2.06-2.84,3.57-6.24,5.31-9.29l-2.36.3h0a1.53,1.53,0,0,0,2.36-.31c3.12-4,8.42-3.45,10.95.67.86,1.39,3.32.51,2.74-1.16l0-.06-2.74,1.15c2.55,5,11.13,17.53.12,19-6.76.9-20.12-1.22-16.22-10.66.74-1.78-2.16-2.56-2.89-.8-2.54,6.14.85,12.18,7.3,13.38,3.72.7,8.41,1.6,12.21,1.14,6.46-.79,9.65-7.41,7.32-13.17-1.44-3.56-3.51-7-5.25-10.39a1.51,1.51,0,0,0-2.74,1.16l0,.06,2.74-1.16c-3.87-6.3-11.7-6.4-16.13-.66l2.36-.3h0a1.52,1.52,0,0,0-2.36.3c-1.74,3.06-3.25,6.45-5.31,9.29C168.31,186.28,170.91,187.78,172,186.23Z"/><path d="M171.77,166.56c1.29-3.32,6.42-1.53,5.25,1.86s-6.18,1.56-5.25-1.86a1.5,1.5,0,0,0-2.89-.8,5.78,5.78,0,1,0,7.23-3.78,5.88,5.88,0,0,0-7.23,3.78C168.18,167.56,171.08,168.34,171.77,166.56Z"/><path d="M190.64,203.72c1.29-3.35,6.47-1.54,5.25,1.86s-6.18,1.54-5.25-1.86a1.5,1.5,0,0,0-2.89-.8,5.78,5.78,0,1,0,7.24-3.81,5.86,5.86,0,0,0-7.24,3.81C187.06,204.73,190,205.51,190.64,203.72Z"/><path class="cls-8" d="M225,71.65l-.35-1-1.07-.22-.72.81.34,1,1.07.22Zm-1.54-.05a.51.51,0,0,1,.31-.63.49.49,0,0,1,.63.32.49.49,0,0,1-.31.62A.5.5,0,0,1,223.43,71.6Z"/><path class="cls-10" d="M223.72,70.87a.62.62,0,0,0-.4.76.61.61,0,0,0,.77.38.6.6,0,0,0-.37-1.14Z"/><path class="cls-11" d="M256.25,86c1.57-5.24-13.19-15.62-19.81-22s-15.07-17-15.07-17c-.35-.36-1.4-1.51-1.4-1.51-1.94-2.17-4.55,1.18-4.55,1.18-3.66,6.27,2.7,16.38,6.06,20.73L222.72,69a2.71,2.71,0,0,0,0,3.58c1.77,2,3.75,1.55,3.24,3.9s3.56,3.89,3.27,1.92c-.08-.59-.15-1.12-.2-1.59a31.4,31.4,0,0,0,3.53,2.41c3,1.73,4.45,1,5.87.33.12-.07.28-.14.41-.2,3.05,1.59,6.26,3.5,9,4.94C252.87,86.92,254.68,91.22,256.25,86ZM233.09,78.3a30.82,30.82,0,0,1-4.1-2.88c0-.08,0-.14,0-.22a10.44,10.44,0,0,0,3,1.26,28.73,28.73,0,0,1,5.69,2.28C236.52,79.29,235.41,79.64,233.09,78.3Z"/><path d="M257.7,86.38C259,79.49,249,72.9,244.6,69.17A165,165,0,0,1,224,47.9c-1.2-1.47-2.62-3.86-4.49-4.46-2.55-.81-4.94,1.47-5.9,3.57-3.53,7.7,3.54,17.36,8,23.05l-.24-1.82c-1,1.86-1.17,3.62.25,5.39,1,1.19,2.1,1.45,2.8,2.84.41.81.05,1.55.66,2.47,2.4,3.58,5.86,1.59,5.41-2.14l-2.25,1.29c2.31,1.74,5.11,4,8.2,3.64.56-.06,1.26-.46,1.81-.48,1.13,0,.25-.08,1.33.2,2.19.57,4.81,2.65,6.77,3.74,4.14,2.31,8.79,8.08,11.3,1.19.66-1.82-2.24-2.6-2.9-.8-.76,2.11-4.46-1.57-5.54-2.22-2.63-1.59-5.4-3.06-8.12-4.5a6.07,6.07,0,0,0-3-.81c-2.78-.31.66,2.28-4.76-.13a20.25,20.25,0,0,1-3.53-2.42,1.51,1.51,0,0,0-2.26,1.3c.44,3.66.31-1.19-.25-2.21-.73-1.35-4.14-3.22-3.28-4.84a1.57,1.57,0,0,0-.23-1.82,48,48,0,0,1-5.52-8.39c-1.26-2.54-4.6-10.16-1.21-12.4,2.87-1.91,9.17,8.07,10.55,9.65a141.49,141.49,0,0,0,14.88,14.5c3.08,2.64,13.21,9.44,12.32,14.29C254.46,87.47,257.35,88.28,257.7,86.38Z"/><path d="M233.84,77a32.92,32.92,0,0,1-3.79-2.64l.44,1.06V75.2l-2.25,1.29a17.19,17.19,0,0,0,4,1.6,29.41,29.41,0,0,1,4.64,2V77.45c-1.13.51-2,.12-3.09-.45-1.69-.92-3.21,1.67-1.51,2.59a6.29,6.29,0,0,0,6.12.45,1.51,1.51,0,0,0,0-2.59,45.21,45.21,0,0,0-4.4-1.94,23.6,23.6,0,0,1-4.29-1.61,1.52,1.52,0,0,0-2.26,1.3c-.11,1.88,3.45,3.58,4.83,4.39A1.5,1.5,0,0,0,233.84,77Z"/><path class="cls-12" d="M213.86,177.28,211,166.73c-.72-2.61-3-5.28-5.15-4.69a3.64,3.64,0,0,0-1.15.57c-1.39,1.08-2,4.17-1.39,6.24l1.07,3.88a7.41,7.41,0,0,0-1.37.53L165.52,190a3.6,3.6,0,0,0-1.86,2.19,3.61,3.61,0,0,0-2.8.17l-36.29,19.08-.48.25-.65-2.37c-.72-2.62-3-6.28-5.15-5.69a3,3,0,0,0-1.16.56c-1.4,1.08-1.95,5.19-1.38,7.24L118.64,222c.71,2.63,3,6.28,5.15,5.7a3.29,3.29,0,0,0,1.17-.58c1.39-1.07,1.94-5.17,1.37-7.24l-1-3.68a7.08,7.08,0,0,0,1.31-.52l37.43-16.75a3.67,3.67,0,0,0,1.87-2.19,3.63,3.63,0,0,0,2.79-.17L205,177.49l.54-.28.6,2.18c.71,2.62,3,5.29,5.15,4.71a3.23,3.23,0,0,0,1.15-.59C213.85,182.45,214.4,179.35,213.86,177.28Z"/><path d="M215.3,176.88c-1.22-4.45-2-13.55-6.8-15.84-3-1.43-5.66.39-6.56,3.37s.15,5.83.94,8.72l1.05-1.85c-7.24,2.83-14.26,6.3-21.35,9.47l-13.26,5.93c-2.78,1.25-5.43,1.95-7,4.77l1.7-.69c-3.05-.43-4.91.82-7.51,2.19l-12.84,6.75c-6.79,3.57-13.57,7.17-20.38,10.71l2.21.9c-1-3.48-4.44-12.61-9.47-8.16-4.07,3.6-1.23,10.67-.07,14.89,1,3.74,2.62,12,8,11.13,5.88-1,3.8-9.66,2.78-13.36l-1,1.84c7.2-2.88,14.21-6.29,21.29-9.46l13.25-5.93c2.79-1.25,5.42-1.95,7-4.76l-1.7.69c3.05.42,4.91-.83,7.5-2.19l12.84-6.75c6.82-3.59,13.61-7.2,20.45-10.75l-2.21-.89c.9,3.28,2.46,8.06,6.66,8,4.43-.05,5.08-5.44,4.53-8.74-.31-1.9-3.2-1.1-2.89.8.84,2.58-.2,4-3.15,4.2a7,7,0,0,1-1.7-3.06c-.24-.64-.37-1.35-.55-2a1.53,1.53,0,0,0-2.21-.9c-6.1,3.17-12.16,6.4-18.25,9.59L174,192.12c-2.12,1.11-5.09,3.53-7.64,3.18a1.53,1.53,0,0,0-1.69.69c-1.37,2.48-5.13,3.34-7.53,4.41L144.59,206c-6.54,2.92-13,6.09-19.66,8.75a1.52,1.52,0,0,0-1.05,1.84c.28,1,.62,2,.84,3.07a11.77,11.77,0,0,1,.33,2.36c0,1.23-1.12,4-2.89,3.44s-2.8-6.5-3.27-8.22a60.15,60.15,0,0,1-1.68-6.15,6.71,6.71,0,0,1-.06-2.82c.86-2.71,2.74-3,4-.56a21.15,21.15,0,0,1,1.46,4.39,1.53,1.53,0,0,0,2.21.9c6.07-3.17,12.12-6.38,18.19-9.57l12.58-6.61c2.12-1.12,5.09-3.54,7.64-3.17A1.56,1.56,0,0,0,165,193c1.35-2.5,5.13-3.36,7.53-4.43l12.52-5.6c6.55-2.93,13-6.15,19.73-8.76a1.55,1.55,0,0,0,1.05-1.85,32.78,32.78,0,0,1-1.07-3.88q-1.28-3,1.55-3.45,2.64-2.24,3.24,2.13c.15.37.2.79.33,1.17,1.06,3,1.72,6.27,2.58,9.38A1.5,1.5,0,0,0,215.3,176.88Z"/><path class="cls-13" d="M161.92,192.5a3.86,3.86,0,1,0,5.36-1A3.86,3.86,0,0,0,161.92,192.5Z"/><path class="cls-14" d="M253.37,264.87a3,3,0,1,0,4.18-.09A3,3,0,0,0,253.37,264.87Z"/><polygon class="cls-8" points="253.69 267.29 254.15 265.45 255.97 264.92 257.33 266.23 256.88 268.07 255.06 268.6 253.69 267.29"/><path class="cls-15" d="M254.89,266.16a.87.87,0,1,0,1.25,1.2.87.87,0,0,0-1.25-1.2Z"/><path d="M216.55,90.86l4.23,4,7.74-13.57a3.16,3.16,0,0,0-.77-4.38c-1.35-.78-3.22-.08-4.16,1.58Z"/><path class="cls-16" d="M307.89,169.61a5.51,5.51,0,0,0-2.59-3.39,5.63,5.63,0,0,0-4.91-.27l-77.8-74.57a5.25,5.25,0,0,0-.65-.68,17.43,17.43,0,0,0-2.71-2.2c-.54-.39-1.06-.74-1.44-1.08-2.14-1.88-5.19-2-6.81-.3-1.08,1.14-1.59,3.24.31,5.5l-92.54,32.7a7.19,7.19,0,0,0-1.3.47l-5.14,1.81a4,4,0,0,0-2.24,5.16,4.49,4.49,0,0,0,1.2,1.84l53.36,61.59a4.31,4.31,0,0,0,.37.37,4.42,4.42,0,0,0,3.95,2.38l112.81-3.46a12.11,12.11,0,0,0-.73,1.12,8.68,8.68,0,0,0-1.07,2.9,7.21,7.21,0,0,0-.66,1l-22.48,42.42a9.92,9.92,0,0,0-.61,1.25,3.36,3.36,0,0,0-.24.58l-.06.22h0a7.21,7.21,0,0,0-.23,1l-3.77,19a4.24,4.24,0,0,0,.24,3.28,3.42,3.42,0,0,0,2.09,1.65,3.74,3.74,0,0,0,1.09.16,3.67,3.67,0,0,0,1.77-.45,4.26,4.26,0,0,0,2-2.55l0-.12,4.43-18.49a10.8,10.8,0,0,0,.78-1.22l24.29-41.51c.08-.14.16-.28.23-.43a7.51,7.51,0,0,0,2.5-2.79,8.79,8.79,0,0,0,1.07-2.84,2.55,2.55,0,0,0,.6-.45,7.07,7.07,0,0,0,1-1.4h0l13.09-22.91A7,7,0,0,0,307.89,169.61ZM294,174.09l-6.45,11.3-113.09,3.46,45.48-85.74Zm-128.84,10.3L123,135.76l-.33-.39a2.51,2.51,0,0,0-.65-.73,1.29,1.29,0,0,1-.26-.72,1.22,1.22,0,0,1,.34-.85,1.16,1.16,0,0,1,.25-.2l86.27-30.5Z"/><path d="M309.34,169.21c-1-2.41-3.27-5.67-6.44-5.13-2,.35-.73.75-2.14.14-1.89-.81-4-3.84-5.48-5.25l-22.74-21.8L226.32,92.88A65.58,65.58,0,0,0,220,87.2c-2.83-2.09-6.58-4.26-9.75-1.38-2.42,2.19-1.84,5.08-.23,7.56l.89-2.2L147.2,113.69q-13.94,4.92-27.86,9.84c-3.1,1.1-8,1.73-10,4.52-2.53,3.5,0,6.63,2.26,9.26l48.84,56.37c1.76,2,4,5.52,6.52,6.41,1.91.66,4.29.28,6.27.22l33.49-1,75-2.3-1.29-2.25c-2.68,4.09-4.68,9.17-7,13.52l-10.58,20c-2.4,4.52-4.87,9-7.19,13.57-2.08,4.07-2.49,8.82-3.37,13.27-.77,3.89-4.2,12.54-.08,15.5,5.83,4.2,8.32-3.34,9.31-7.47,1.22-5.1,1.78-11.12,4.37-15.68s5.42-9.26,8.13-13.89l12.5-21.36a145.32,145.32,0,0,1,8.78-13.62c.7-.94-.26-2.25-1.3-2.25h0l1.3,2.25,8.24-14.42c2.61-4.57,6.64-9.4,5.74-14.92-.31-1.9-3.21-1.09-2.9.8.8,4.86-4.7,11.32-6.88,15.15L292.77,197a1.52,1.52,0,0,0,1.29,2.26h0L292.77,197c-1.74,2.32-2.91,4.6-4.68,6.94-.27.36-.56.68-.82,1.07-.72,1.08-1.33,2.26-2,3.38l-9.36,16L266,241.36c-1.44,2.46-3.24,5-4.15,7.64-.84,2.51-1.25,5.24-1.87,7.81s-.8,7-2.2,9.17c-.66,1-1.8,6.87-4.43-.68-.15-.43.29-1.45.38-1.91l2.05-10.33c.69-3.53,1.1-7,2.75-10.19,2.19-4.27,4.49-8.48,6.73-12.72l10.8-20.38c2.29-4.33,4.34-9.49,7-13.53a1.51,1.51,0,0,0-1.3-2.26l-60.38,1.85L182.66,197c-5.58.17-12.84,2.16-17.13-2.08-6.63-6.55-12.39-14.3-18.49-21.34l-26.73-30.85c-2.32-2.69-5.48-5.42-7.33-8.46-1.22-2-1.16-4.31,1.06-5.72,1.45-.91,3.68-1.29,5.31-1.87l22.69-8,69.65-24.61a1.52,1.52,0,0,0,.9-2.2l2.45-4.3,2,1.14a31.35,31.35,0,0,1,3.84,3.05c.26.23.48.52.74.76l1.14,1.09c1.71,1.66,3.44,3.3,5.16,4.94L247,116.85,291,159l6.73,6.45c1.54,1.48,9.21,5.67,8.75,4.58C307.17,171.77,310.08,171,309.34,169.21Z"/><path d="M292.71,173.33c-2,3.5-5.1,7.3-6.34,11.1.51-1.58,1.78-.08.35-.52A10.3,10.3,0,0,0,284,184l-24.31.75-67.94,2.08-17.3.53,1.3,2.25,39.71-74.88,5.76-10.86-2.35.31L283.7,166.3l9.24,8.85c1.4,1.34,3.52-.78,2.12-2.12L230.23,110.9,221,102.05a1.52,1.52,0,0,0-2.36.3l-39.71,74.88-5.76,10.86a1.52,1.52,0,0,0,1.29,2.26L283.63,187c1.22,0,3.54.34,4.67-.33,1.5-.88,2.48-3.92,3.29-5.34l3.71-6.49A1.5,1.5,0,0,0,292.71,173.33Z"/><path d="M166.22,183.33l-19.76-22.81-14.38-16.61c-2.46-2.83-4.85-6.58-7.77-9-.62-.52-1.32-.48-1.19-.75.25-.49,2.79-1,3.27-1.15l13.94-4.93,41.21-14.57,27.52-9.73-1.7-2.21-38,71.74-5.45,10.29c-.91,1.7,1.68,3.22,2.59,1.51l38-71.74L210,103.13c.57-1.07-.39-2.67-1.69-2.21l-67.95,24-15.11,5.34c-2,.7-5.19,1.19-4.84,4,.26,2.11,4.18,5.46,5.43,6.91l13,15.05,25.27,29.18C165.37,186.92,167.48,184.79,166.22,183.33Z"/><path class="cls-11" d="M332.51,204c5.92-7.55,3.21-16.65-.9-22.15a15.61,15.61,0,0,1-2.43-5l0,0h0a3.16,3.16,0,0,0-.9-1.68,3.13,3.13,0,0,0-5.14,3.2h0v0l0,.05h0a21.38,21.38,0,0,0,3.45,7.16c.62.83,5.9,8.28,1,14.55-4.27,5.46-12.38,1.67-14.76.38-3.67-2-10.59-7.1-11.13-7.5a3.13,3.13,0,0,0-4.1,4.72,3.63,3.63,0,0,0,.34.27h0a134.57,134.57,0,0,0,11.92,8C317,209.91,326.72,211.42,332.51,204Z"/><path d="M333.8,204.77a18.05,18.05,0,0,0,3.37-13.69c-.9-5.68-4.87-9.38-6.54-14.66a1.51,1.51,0,0,0-2.51-.66l0,0a1.53,1.53,0,0,0,0,2.12h0c1,1,3,0,2.51-1.46-1.19-3.41-5.47-5.11-8.06-1.94-2.94,3.6,1,9.1,3,12.12,2.14,3.32,3.8,7.58,1.68,11.41-2.37,4.28-7.09,3.88-11,2.39-5.07-1.92-8.88-5.84-13.48-8.52-3.09-1.81-7.62-.69-7.55,3.65.06,3.68,5.08,6,7.6,7.74,9.18,6.3,22.08,11.93,30.84,1.77,1.25-1.45-.86-3.59-2.12-2.12-8.38,9.71-20.5,2.48-28.76-3.33-.57-.4-3.67-2-3.83-2.76-.22-1,2.16-2.21,2.52-2.2s1.23.89,1.58,1.14a67.78,67.78,0,0,0,10.33,6.65c6.18,2.92,14.25,3.21,17.12-4.28a13.28,13.28,0,0,0-.74-10.26,27.46,27.46,0,0,0-1.77-3.07c-.95-1.51-2.66-3.61-2.88-5.4l-.43-1.4q-.57-1.57,3.13-.79l2.5-1.46h0v2.12l0,0-2.51-.66c1.25,3.93,4.08,6.87,5.51,10.7a15.88,15.88,0,0,1-2,15.33C330.09,204.83,332.69,206.33,333.8,204.77Z"/><path d="M328.21,172.61l-1-1a3.76,3.76,0,0,0-2.67-1.07l-.09-.11-13.1-12.55a.67.67,0,0,0-.14-.11L310,156.6s0,0,0,0h0a1,1,0,0,0-1.48,0h0s0,0,0,0a43.46,43.46,0,0,0-3.72,5.44,4.72,4.72,0,0,0-.54,1.37l-.11-.07c-.46-.26-.95-.26-1.11,0s0,.55.32.8a1.87,1.87,0,0,0-1.4,1.09,2.09,2.09,0,0,0-.29,1.66,1.21,1.21,0,0,0-1.43.62,1.2,1.2,0,0,0,.28,1.64l4.75,2.71a1.18,1.18,0,0,0,1.55-.58,1.23,1.23,0,0,0-.16-1.56,2.07,2.07,0,0,0,1.26-1.08,1.93,1.93,0,0,0,.23-1.78c.38.15.74.11.86-.12s-.1-.7-.55-1l-.12-.06a4.66,4.66,0,0,0,.91-1.17l.56-.92,10.95,10.5a3.88,3.88,0,0,0,1.17,3l1,1,.24.2a3.13,3.13,0,0,1,5.14-3.2,3,3,0,0,1,.87,1.57l0,0A3.83,3.83,0,0,0,328.21,172.61Z"/></g></svg>