<?xml version="1.0" encoding="utf-8"?>
<!-- Generator: Adobe Illustrator 24.2.0, SVG Export Plug-In . SVG Version: 6.00 Build 0)  -->
<svg version="1.1" id="Layer_1" xmlns="http://www.w3.org/2000/svg" xmlns:xlink="http://www.w3.org/1999/xlink" x="0px" y="0px"
	 viewBox="0 0 143 144" style="enable-background:new 0 0 143 144;" xml:space="preserve">
<style type="text/css">
	.st0{fill:#FADC67;}
	.st1{fill:#F8DAD4;}
	.st2{fill:#E66869;}
	.st3{fill:#FFFFFF;}
	.st4{fill:#F7C402;}
</style>
<g id="Capa_14">
	<path class="st0" d="M22.7,6.1h101.7c6.9,0,12.4,5.6,12.4,12.4v106.7c0,6.9-5.6,12.4-12.4,12.4H22.7c-6.9,0-12.4-5.6-12.4-12.4
		V18.5C10.3,11.6,15.9,6.1,22.7,6.1z"/>
</g>
<g id="Capa_12">
	<path class="st1" d="M116.5,38.8c0.9-0.2,1.6-0.6,2.2-1.3l0,0c0.1-0.1,0.2-0.3,0.3-0.4c1.8-2.2,3.5-4.7,2.8-9
		c0.4-1.8-0.1-3.7-1.5-4.9c0.1-0.7,0.1-1.4,0-2.1c-0.6-2.7-3.2-4.4-5.9-3.9h0c-1-2-3.2-3.1-5.5-2.7c-0.2,0-0.4,0.1-0.6,0.2
		c-2.8-1.9-6.5-1.8-9,0.4c-1.8-1.6-4.5-1.5-6.1,0.3c-0.8,0.9-1.2,2-1.1,3.2l-0.2,0.1c-0.3,0-0.6,0-1,0.1c-2.5,0.5-4.2,2.8-4,5.3l0,0
		c-2.5,0.7-4,3.2-3.5,5.8c0.2,0.7,0.5,1.4,0.9,2c-1.1,2.5,0.1,5.5,2.6,6.5c0.9,0.4,2,0.5,2.9,0.3c0.7-0.1,1.4-0.4,1.9-0.9
		c0.9-0.3,1.9-0.7,3-1.2c-0.1,0.4-0.1,0.9,0,1.3c0.4,1.9,2.3,2,5.2,1.4c2.1-0.4,4.7-1.2,7.7-1.9c3.2,1,4.9,6.3,7.7,5.7
		c0.1,0,0.2,0,0.3-0.1c2.1-0.7-0.8-3.1-2.1-4.9c0.6,0.3,1.2,0.5,1.9,0.5C115.8,38.8,116.1,38.8,116.5,38.8z"/>
	<path class="st1" d="M116.7,39.5c0.9-0.2,3-1,2.8-2.2l-0.2,0.8c1.7-1.9,3.1-4.1,3.4-6.7c0.1-0.8,0.1-1.5,0-2.3
		c-0.1-0.8,0-1.5,0-2.3c-0.1-1.5-0.7-3-1.8-4l0.2,0.8c0.4-2-0.2-4.2-1.8-5.6c-1.4-1.2-3.3-1.7-5.1-1.3l0.9,0.4
		c-1.3-2.5-4.3-3.8-7-2.9l0.6,0.1c-3.1-2.1-7.2-1.8-10,0.6h1.1c-2.1-1.9-5.3-1.8-7.2,0.3c-0.9,1-1.4,2.4-1.4,3.7l0.4-0.7
		c-0.2,0.2-0.9,0.1-1.2,0.2c-0.4,0.1-0.7,0.2-1.1,0.4c-0.7,0.3-1.3,0.8-1.8,1.4c-0.5,0.5-0.8,1.2-1.1,1.8c-0.1,0.4-0.2,0.7-0.3,1.1
		c0,0.2,0,0.4-0.1,0.6c0,0.1-0.1,0.7,0.1,0.3l0.5-0.4c-3.1,0.9-4.8,4.1-3.9,7.2c0.2,0.6,0.5,1.2,0.9,1.8l-0.1-0.6
		c-1.2,2.9,0.3,6.3,3.2,7.5c1.1,0.5,2.4,0.5,3.6,0.2c0.7-0.3,1.4-0.6,2.1-0.9c0.9-0.4,1.8-0.7,2.6-1l-1-1c-0.3,1.1,0,2.3,0.8,3.2
		c0.8,0.6,1.8,0.9,2.8,0.8c2.9-0.1,5.8-1.2,8.6-1.9c0.6-0.2,1.2-0.4,1.8-0.1c0.5,0.3,0.9,0.6,1.3,1c0.8,0.8,1.4,1.6,2.1,2.4
		c1.2,1.4,3.1,2.9,4.9,1.7c2.3-1.5-1.3-4.6-2.2-5.8l-1.1,1.1C114.3,39.5,115.5,39.7,116.7,39.5c1-0.2,0.5-1.7-0.4-1.5
		c-0.8,0.1-1.6,0-2.3-0.4c-0.6-0.3-1.5,0.4-1.1,1.1c0.6,0.8,1.2,1.5,1.9,2.3c0.3,0.3,0.6,0.7,0.8,1.1c0.2,0.4,0.2,0.4-0.2,0.5
		c-1.4,0.4-2.7-1.5-3.4-2.4c-1-1.2-2.3-2.9-4-3.2c-0.6,0-1.2,0.1-1.7,0.3l-2.1,0.5c-1.2,0.3-2.3,0.6-3.5,0.9c-1.7,0.4-5.4,1.4-5-1.6
		c0.1-0.5-0.3-1.2-1-1c-0.7,0.3-1.5,0.6-2.2,0.9c-0.8,0.3-1.3,0.6-1.9,0.9c-2.2,0.9-4.6-0.2-5.5-2.3c-0.3-0.8-0.4-1.6-0.2-2.5
		c0.1-0.3,0.2-0.7,0.3-1c0-0.3-0.2-0.6-0.4-0.8c-0.9-1.5-0.8-3.5,0.4-4.8c0.4-0.5,0.9-0.8,1.4-1.1c0.5-0.2,1.1-0.3,1.3-0.9
		c0.1-0.6,0-1.2,0.2-1.8c0.2-0.6,0.5-1.2,1-1.7c0.4-0.4,0.9-0.8,1.5-1c0.7-0.3,1.6-0.1,2.1-0.6s0.3-1.3,0.4-1.9
		c0.2-0.7,0.6-1.3,1.1-1.7c1.4-1.1,3.3-1.1,4.7,0.1c0.3,0.3,0.8,0.3,1.1,0c0,0,0,0,0,0c2.2-1.8,5.4-2,7.9-0.5
		c0.6,0.4,0.8,0.2,1.5,0.1c0.6-0.1,1.2-0.1,1.8,0c1.2,0.3,2.2,1.2,2.8,2.3c0.2,0.3,0.5,0.4,0.9,0.4c2.3-0.5,4.5,1,5,3.3
		c0.1,0.2,0.1,0.5,0.1,0.8c0,0.5-0.3,1.1,0,1.6c0.3,0.5,0.7,0.8,1,1.2c0.3,0.6,0.5,1.2,0.6,1.9c0,0.6-0.2,1.2-0.1,1.8
		c0.1,0.7,0.1,1.3,0.1,2c0,1-0.2,2-0.6,2.9c-0.4,0.8-0.8,1.6-1.3,2.3c-0.4,0.6-1.5,1.4-1.3,2.2l0.2-0.8c-0.5,0.5-1.2,0.9-1.9,1.1
		C115.3,38.3,115.7,39.8,116.7,39.5z"/>
	<path d="M116.7,39.5c0.9-0.2,3-1,2.8-2.2l-0.2,0.8c1.7-1.9,3.1-4.1,3.4-6.7c0.1-0.8,0.1-1.5,0-2.3c-0.1-0.8,0-1.5,0-2.3
		c-0.1-1.5-0.7-3-1.8-4l0.2,0.8c0.4-2-0.2-4.2-1.8-5.6c-1.4-1.2-3.3-1.7-5.1-1.3l0.9,0.4c-1.3-2.5-4.3-3.8-7-2.9l0.6,0.1
		c-3.1-2.1-7.2-1.8-10,0.6h1.1c-2.1-1.9-5.3-1.8-7.2,0.3c-0.9,1-1.4,2.4-1.4,3.7l0.4-0.7c-0.2,0.2-0.9,0.1-1.2,0.2
		c-0.4,0.1-0.7,0.2-1.1,0.4c-0.7,0.3-1.3,0.8-1.8,1.4c-0.5,0.5-0.8,1.2-1.1,1.8c-0.1,0.4-0.2,0.7-0.3,1.1c0,0.2,0,0.4-0.1,0.6
		c0,0.1-0.1,0.7,0.1,0.3l0.5-0.4c-3.1,0.9-4.8,4.1-3.9,7.2c0.2,0.6,0.5,1.2,0.9,1.8l-0.1-0.6c-1.2,2.9,0.3,6.3,3.2,7.5
		c1.1,0.5,2.4,0.5,3.6,0.2c0.7-0.3,1.4-0.6,2.1-0.9c0.9-0.4,1.8-0.7,2.6-1l-1-1c-0.3,1.1,0,2.3,0.8,3.2c0.8,0.6,1.8,0.9,2.8,0.8
		c2.9-0.1,5.8-1.2,8.6-1.9c0.6-0.2,1.2-0.4,1.8-0.1c0.5,0.3,0.9,0.6,1.3,1c0.8,0.8,1.4,1.6,2.1,2.4c1.2,1.4,3.1,2.9,4.9,1.7
		c2.3-1.5-1.3-4.6-2.2-5.8l-1.1,1.1C114.3,39.5,115.5,39.7,116.7,39.5c1-0.2,0.5-1.7-0.4-1.5c-0.8,0.1-1.6,0-2.3-0.4
		c-0.6-0.3-1.5,0.4-1.1,1.1c0.6,0.8,1.2,1.5,1.9,2.3c0.3,0.3,0.6,0.7,0.8,1.1c0.2,0.4,0.2,0.4-0.2,0.5c-1.4,0.4-2.7-1.5-3.4-2.4
		c-1-1.2-2.3-2.9-4-3.2c-0.6,0-1.2,0.1-1.7,0.3l-2.1,0.5c-1.2,0.3-2.3,0.6-3.5,0.9c-1.7,0.4-5.4,1.4-5-1.6c0.1-0.5-0.3-1.2-1-1
		c-0.7,0.3-1.5,0.6-2.2,0.9c-0.8,0.3-1.3,0.6-1.9,0.9c-2.2,0.9-4.6-0.2-5.5-2.3c-0.3-0.8-0.4-1.6-0.2-2.5c0.1-0.3,0.2-0.7,0.3-1
		c0-0.3-0.2-0.6-0.4-0.8c-0.9-1.5-0.8-3.5,0.4-4.8c0.4-0.5,0.9-0.8,1.4-1.1c0.5-0.2,1.1-0.3,1.3-0.9c0.1-0.6,0-1.2,0.2-1.8
		c0.2-0.6,0.5-1.2,1-1.7c0.4-0.4,0.9-0.8,1.5-1c0.7-0.3,1.6-0.1,2.1-0.6s0.3-1.3,0.4-1.9c0.2-0.7,0.6-1.3,1.1-1.7
		c1.4-1.1,3.3-1.1,4.7,0.1c0.3,0.3,0.8,0.3,1.1,0c0,0,0,0,0,0c2.2-1.8,5.4-2,7.9-0.5c0.6,0.4,0.8,0.2,1.5,0.1c0.6-0.1,1.2-0.1,1.8,0
		c1.2,0.3,2.2,1.2,2.8,2.3c0.2,0.3,0.5,0.4,0.9,0.4c2.3-0.5,4.5,1,5,3.3c0.1,0.2,0.1,0.5,0.1,0.8c0,0.5-0.3,1.1,0,1.6
		c0.3,0.5,0.7,0.8,1,1.2c0.3,0.6,0.5,1.2,0.6,1.9c0,0.6-0.2,1.2-0.1,1.8c0.1,0.7,0.1,1.3,0.1,2c0,1-0.2,2-0.6,2.9
		c-0.4,0.8-0.8,1.6-1.3,2.3c-0.4,0.6-1.5,1.4-1.3,2.2l0.2-0.8c-0.5,0.5-1.2,0.9-1.9,1.1C115.3,38.3,115.7,39.8,116.7,39.5z"/>
	<path d="M95.7,23.5c-0.1,0.5-0.1,1.1,0.2,1.5c0.2,0.4,0.6,0.7,1,0.9c0.8,0.4,1.8,0.5,2.7,0.2c0.5-0.2,1-0.5,1.3-1
		c0.2-0.4,0.1-0.9-0.3-1.1c-0.4-0.2-0.9-0.1-1.1,0.3l0,0c0,0,0,0.1,0,0.1c0,0,0.1-0.1,0-0.1c-0.1,0.1-0.1,0.1-0.2,0.2
		c0,0.1,0.2-0.1,0,0l-0.1,0c0,0-0.1,0-0.1,0h-0.1c-0.1,0,0.2-0.1,0.1,0c-0.2,0.1-0.3,0.1-0.5,0.1c-0.1,0,0.2,0,0.1,0h-0.4h-0.2h0
		h-0.1c-0.2,0-0.3-0.1-0.5-0.1c-0.1,0,0.2,0.1,0,0l-0.1,0c-0.1,0-0.1-0.1-0.2-0.1c0,0-0.2-0.1,0,0s0,0,0,0s-0.1-0.1-0.2-0.2
		c-0.1-0.1,0.1,0.1,0.1,0.1c0,0,0,0,0-0.1l-0.1-0.1v0c-0.1-0.1,0,0.2,0,0.1c0-0.1,0-0.1,0-0.1c0,0,0-0.2,0,0c0,0.2,0,0,0,0
		c0,0,0-0.1,0-0.1c0,0,0,0.1,0,0.1c0,0,0-0.1,0-0.1c0.1-0.4-0.2-0.8-0.6-0.9C96.3,23,95.9,23.2,95.7,23.5L95.7,23.5z"/>
	<path d="M103.5,25.7c0.4,1,1.3,1.7,2.4,1.8c1,0.2,2,0.1,2.9-0.4c0.5-0.3,0.8-0.8,0.8-1.3c0-0.4-0.4-0.7-0.8-0.7
		c-0.4,0-0.7,0.3-0.7,0.7c0,0.2,0.1-0.2,0,0c-0.1,0.2,0.1-0.1,0-0.1c0,0,0,0,0,0.1c0,0.1,0.1-0.1,0-0.1l-0.1,0.1c0,0-0.1,0-0.1,0.1
		c0,0,0.2-0.1,0,0l-0.2,0.1c-0.1,0.1,0,0,0.1,0c0,0-0.1,0-0.1,0c-0.2,0.1-0.3,0.1-0.5,0.1c-0.2,0,0.1,0,0,0h-0.1h-0.3h-0.3
		c-0.1,0-0.2-0.1-0.3,0c0,0.1,0.2,0,0,0h-0.1l-0.3-0.1l-0.2-0.1c-0.1,0,0.2,0.1,0,0l-0.1-0.1c-0.1,0-0.2-0.2-0.3-0.2
		s0.1,0.1,0.1,0.1l-0.1-0.1l-0.1-0.1c0,0-0.1-0.2,0,0l0-0.1c0,0,0-0.1-0.1-0.1v-0.1c0-0.1,0.1,0.2,0,0.1c-0.1-0.4-0.5-0.7-1-0.5
		C103.6,24.9,103.3,25.3,103.5,25.7L103.5,25.7z"/>
	<path d="M97.6,31.7c0.4,0.5,0.9,0.9,1.6,1.1c0.6,0.1,1.3,0.2,1.9,0.1c0.4,0,0.7-0.4,0.7-0.8c0-0.4-0.3-0.7-0.7-0.7
		c-0.3,0-0.5,0-0.8,0c-0.1,0-0.3,0-0.4,0c-0.1,0,0.2,0,0,0l-0.2,0c-0.1,0-0.2,0-0.3-0.1h-0.1h0.1l-0.2-0.1l-0.1-0.1L99,31l0.1,0
		c0,0-0.1-0.1-0.1-0.1c0,0-0.2-0.2,0,0c-0.2-0.4-0.7-0.5-1.1-0.3C97.5,30.9,97.4,31.4,97.6,31.7L97.6,31.7z"/>
	<path class="st1" d="M123.7,81.2c0.9-0.2,1.6-0.6,2.2-1.3l0,0c0.1-0.1,0.2-0.3,0.3-0.4c1.8-2.2,3.5-4.7,2.8-9
		c0.2-0.7,0.2-1.5,0-2.2c-0.2-1-0.8-2-1.5-2.7c0.6-2.7-1.1-5.3-3.8-5.9c-0.7-0.2-1.4-0.2-2.1,0h0c-1-2-3.2-3.1-5.5-2.7
		c-0.2,0-0.4,0.1-0.6,0.2c-2.8-1.9-6.5-1.8-9,0.4c-1.8-1.6-4.5-1.5-6.1,0.3c-0.8,0.9-1.2,2-1.1,3.2L99,61.2c-0.3,0-0.6,0-1,0.1
		c-2.5,0.5-4.2,2.8-4,5.3l0,0c-2.5,0.7-4,3.2-3.5,5.8c0.2,0.7,0.5,1.4,1,2c-0.4,0.9-0.5,2-0.3,2.9c0.6,2.7,3.2,4.4,5.9,3.9
		c0.7-0.1,1.4-0.4,1.9-0.9c0.9-0.3,1.9-0.7,3-1.2c-0.1,0.4-0.1,0.9,0,1.3c0.4,1.9,2.3,2,5.2,1.4c2.1-0.4,4.7-1.2,7.7-1.9
		c3.2,1,4.9,6.3,7.7,5.7c0.1,0,0.2,0,0.3-0.1c2.1-0.7-0.8-3.1-2.1-4.9c0.6,0.3,1.2,0.5,1.9,0.5C123,81.3,123.4,81.2,123.7,81.2z"/>
	<path class="st1" d="M123.9,82c0.9-0.2,3-1,2.8-2.2l-0.2,0.8c1.7-1.9,3.1-4.1,3.4-6.7c0.1-0.8,0.1-1.5,0-2.3c-0.1-0.8,0-1.5,0-2.3
		c0-1.5-0.7-3-1.8-4.1l0.2,0.8c0.4-2-0.2-4.2-1.8-5.6c-1.4-1.2-3.3-1.7-5.1-1.3l0.9,0.4c-1.3-2.5-4.3-3.7-7-2.8l0.6,0.1
		c-3.1-2.1-7.2-1.8-10,0.6h1.1c-2.1-1.9-5.3-1.8-7.2,0.2c-0.9,1-1.4,2.4-1.4,3.7l0.4-0.7c-0.2,0.2-0.9,0.1-1.2,0.2
		c-0.4,0.1-0.7,0.2-1.1,0.4c-0.7,0.3-1.3,0.8-1.8,1.4c-0.5,0.5-0.8,1.2-1.1,1.8c-0.1,0.4-0.2,0.7-0.3,1.1c0,0.2,0,0.4-0.1,0.6
		c0,0.2-0.1,0.7,0.1,0.3l0.5-0.4c-3.1,0.9-4.8,4.1-3.9,7.2c0.2,0.6,0.5,1.2,0.9,1.8l-0.1-0.6c-1.2,2.9,0.2,6.3,3.1,7.5
		c1.2,0.5,2.5,0.6,3.7,0.2c0.7-0.3,1.4-0.6,2.1-0.9c0.9-0.4,1.8-0.7,2.6-1l-1-1c-0.3,1.1,0,2.3,0.8,3.2c0.8,0.6,1.8,0.9,2.8,0.8
		c2.9-0.1,5.8-1.2,8.6-1.9c0.6-0.2,1.2-0.4,1.8-0.1c0.5,0.3,0.9,0.6,1.3,1c0.8,0.8,1.4,1.6,2.2,2.4c1.2,1.4,3.1,2.9,4.9,1.7
		c2.3-1.5-1.3-4.6-2.2-5.8l-1.1,1.1C121.5,82,122.7,82.2,123.9,82c1-0.2,0.6-1.7-0.4-1.5c-0.8,0.1-1.6,0-2.3-0.4
		c-0.6-0.3-1.5,0.4-1.1,1.1c0.6,0.8,1.2,1.5,1.9,2.3c0.3,0.3,0.6,0.7,0.8,1.1c0.2,0.4,0.2,0.4-0.2,0.5c-1.4,0.4-2.7-1.5-3.4-2.4
		c-1-1.2-2.3-2.9-4-3.2c-0.6,0-1.2,0.1-1.7,0.3c-0.7,0.2-1.4,0.4-2.1,0.5c-1.2,0.3-2.3,0.6-3.5,0.9c-1.7,0.4-5.4,1.4-5-1.6
		c0.1-0.5-0.3-1.2-1-1c-0.7,0.3-1.5,0.6-2.2,0.9s-1.3,0.6-1.9,0.9c-1.2,0.5-2.6,0.4-3.7-0.3c-1.5-0.9-2.3-2.7-2-4.5
		c0.1-0.3,0.2-0.7,0.3-1c0-0.3-0.2-0.6-0.4-0.8c-0.2-0.4-0.4-0.8-0.5-1.2c-0.3-1.3,0-2.6,0.9-3.7c0.4-0.5,0.8-0.8,1.4-1.1
		c0.5-0.2,1.1-0.3,1.3-0.9c0.1-0.6,0-1.2,0.2-1.8c0.2-0.6,0.5-1.2,1-1.7c0.4-0.4,0.9-0.8,1.5-1c0.7-0.3,1.6-0.1,2.1-0.6
		s0.3-1.3,0.4-1.9c0.6-1.9,2.5-3,4.4-2.4c0.5,0.2,1,0.4,1.4,0.8c0.3,0.3,0.8,0.3,1.1,0c2.2-1.8,5.4-2,7.9-0.5
		c0.6,0.4,0.8,0.2,1.5,0.1c0.6-0.1,1.2-0.1,1.8,0c1.2,0.3,2.2,1.2,2.8,2.3c0.2,0.3,0.5,0.4,0.9,0.4c2.3-0.5,4.5,1,5,3.3
		c0.1,0.2,0.1,0.5,0.1,0.8c0,0.5-0.3,1.1,0,1.6s0.7,0.8,1,1.2c0.3,0.6,0.5,1.2,0.6,1.9c0,0.6-0.2,1.2-0.1,1.8c0.1,0.6,0.1,1.3,0.1,2
		c0,1-0.2,2-0.6,2.9c-0.4,0.8-0.8,1.6-1.3,2.3c-0.4,0.6-1.5,1.4-1.3,2.2l0.2-0.8c-0.5,0.5-1.2,0.9-1.9,1.1
		C122.5,80.7,122.9,82.2,123.9,82z"/>
	<path d="M123.9,82c0.9-0.2,3-1,2.8-2.2l-0.2,0.8c1.7-1.9,3.1-4.1,3.4-6.7c0.1-0.8,0.1-1.5,0-2.3c-0.1-0.8,0-1.5,0-2.3
		c0-1.5-0.7-3-1.8-4.1l0.2,0.8c0.4-2-0.2-4.2-1.8-5.6c-1.4-1.2-3.3-1.7-5.1-1.3l0.9,0.4c-1.3-2.5-4.3-3.7-7-2.8l0.6,0.1
		c-3.1-2.1-7.2-1.8-10,0.6h1.1c-2.1-1.9-5.3-1.8-7.2,0.2c-0.9,1-1.4,2.4-1.4,3.7l0.4-0.7c-0.2,0.2-0.9,0.1-1.2,0.2
		c-0.4,0.1-0.7,0.2-1.1,0.4c-0.7,0.3-1.3,0.8-1.8,1.4c-0.5,0.5-0.8,1.2-1.1,1.8c-0.1,0.4-0.2,0.7-0.3,1.1c0,0.2,0,0.4-0.1,0.6
		c0,0.2-0.1,0.7,0.1,0.3l0.5-0.4c-3.1,0.9-4.8,4.1-3.9,7.2c0.2,0.6,0.5,1.2,0.9,1.8l-0.1-0.6c-1.2,2.9,0.2,6.3,3.1,7.5
		c1.2,0.5,2.5,0.6,3.7,0.2c0.7-0.3,1.4-0.6,2.1-0.9c0.9-0.4,1.8-0.7,2.6-1l-1-1c-0.3,1.1,0,2.3,0.8,3.2c0.8,0.6,1.8,0.9,2.8,0.8
		c2.9-0.1,5.8-1.2,8.6-1.9c0.6-0.2,1.2-0.4,1.8-0.1c0.5,0.3,0.9,0.6,1.3,1c0.8,0.8,1.4,1.6,2.2,2.4c1.2,1.4,3.1,2.9,4.9,1.7
		c2.3-1.5-1.3-4.6-2.2-5.8l-1.1,1.1C121.5,82,122.7,82.2,123.9,82c1-0.2,0.6-1.7-0.4-1.5c-0.8,0.1-1.6,0-2.3-0.4
		c-0.6-0.3-1.5,0.4-1.1,1.1c0.6,0.8,1.2,1.5,1.9,2.3c0.3,0.3,0.6,0.7,0.8,1.1c0.2,0.4,0.2,0.4-0.2,0.5c-1.4,0.4-2.7-1.5-3.4-2.4
		c-1-1.2-2.3-2.9-4-3.2c-0.6,0-1.2,0.1-1.7,0.3c-0.7,0.2-1.4,0.4-2.1,0.5c-1.2,0.3-2.3,0.6-3.5,0.9c-1.7,0.4-5.4,1.4-5-1.6
		c0.1-0.5-0.3-1.2-1-1c-0.7,0.3-1.5,0.6-2.2,0.9s-1.3,0.6-1.9,0.9c-1.2,0.5-2.6,0.4-3.7-0.3c-1.5-0.9-2.3-2.7-2-4.5
		c0.1-0.3,0.2-0.7,0.3-1c0-0.3-0.2-0.6-0.4-0.8c-0.2-0.4-0.4-0.8-0.5-1.2c-0.3-1.3,0-2.6,0.9-3.7c0.4-0.5,0.8-0.8,1.4-1.1
		c0.5-0.2,1.1-0.3,1.3-0.9c0.1-0.6,0-1.2,0.2-1.8c0.2-0.6,0.5-1.2,1-1.7c0.4-0.4,0.9-0.8,1.5-1c0.7-0.3,1.6-0.1,2.1-0.6
		s0.3-1.3,0.4-1.9c0.6-1.9,2.5-3,4.4-2.4c0.5,0.2,1,0.4,1.4,0.8c0.3,0.3,0.8,0.3,1.1,0c2.2-1.8,5.4-2,7.9-0.5
		c0.6,0.4,0.8,0.2,1.5,0.1c0.6-0.1,1.2-0.1,1.8,0c1.2,0.3,2.2,1.2,2.8,2.3c0.2,0.3,0.5,0.4,0.9,0.4c2.3-0.5,4.5,1,5,3.3
		c0.1,0.2,0.1,0.5,0.1,0.8c0,0.5-0.3,1.1,0,1.6s0.7,0.8,1,1.2c0.3,0.6,0.5,1.2,0.6,1.9c0,0.6-0.2,1.2-0.1,1.8c0.1,0.6,0.1,1.3,0.1,2
		c0,1-0.2,2-0.6,2.9c-0.4,0.8-0.8,1.6-1.3,2.3c-0.4,0.6-1.5,1.4-1.3,2.2l0.2-0.8c-0.5,0.5-1.2,0.9-1.9,1.1
		C122.5,80.7,122.9,82.2,123.9,82z"/>
	<path d="M102.9,65.9c-0.1,0.5-0.1,1.1,0.2,1.5c0.2,0.4,0.6,0.7,1,0.9c0.8,0.4,1.8,0.5,2.7,0.2c0.5-0.2,1-0.5,1.3-1
		c0.2-0.4,0.1-0.9-0.3-1.1s-0.9-0.1-1.1,0.3c0,0,0,0.1,0,0.1c0,0,0.1-0.1,0-0.1c-0.1,0.1-0.1,0.1-0.2,0.2c0,0.1,0.2-0.1,0,0l-0.1,0
		l-0.1,0h-0.1c-0.1,0,0.2-0.1,0.1,0c-0.2,0.1-0.3,0.1-0.5,0.1c-0.1,0,0.2,0,0.1,0h-0.4h-0.2c-0.1,0,0.2,0,0,0h-0.1
		c-0.2,0-0.3-0.1-0.5-0.1c-0.1,0,0.2,0.1,0,0l-0.1,0l-0.2-0.1l0,0c0.1,0.1,0,0,0,0s-0.1-0.1-0.2-0.2c-0.1-0.1,0.1,0.1,0.1,0.1
		c0,0,0,0,0-0.1c0,0,0-0.1-0.1-0.1v0c-0.1-0.1,0,0.2,0,0.1c0,0,0-0.1,0-0.1c0,0,0-0.2,0,0s0,0,0,0c0,0,0-0.1,0-0.1s0,0.1,0,0.1
		c0,0,0-0.1,0-0.1c0.1-0.4-0.1-0.8-0.5-1C103.5,65.4,103,65.6,102.9,65.9L102.9,65.9z"/>
	<path d="M110.7,68.1c0.4,1,1.3,1.7,2.4,1.8c1,0.2,2,0.1,2.9-0.4c0.5-0.3,0.8-0.8,0.8-1.4c0-0.4-0.4-0.7-0.8-0.7
		c-0.4,0-0.7,0.3-0.7,0.7c0,0.2,0.1-0.2,0,0s0.1-0.1,0-0.1c0,0,0,0.1,0,0.1c0,0.1,0.1-0.1,0-0.1l-0.1,0.1c0,0-0.1,0-0.1,0.1
		c0,0,0.2-0.1,0,0c-0.1,0-0.1,0.1-0.2,0.1c-0.1,0.1,0,0,0.1,0c0,0-0.1,0-0.1,0c-0.2,0.1-0.3,0.1-0.5,0.1c-0.2,0,0.1,0,0,0h-0.1H114
		c-0.1,0-0.2,0-0.3,0s-0.2-0.1-0.3,0c0,0.1,0.2,0,0,0h-0.1l-0.3-0.1c-0.1,0-0.2-0.1-0.2-0.1c-0.1,0,0.2,0.1,0,0l-0.1-0.1
		c-0.1,0-0.2-0.2-0.3-0.2c-0.1,0,0.1,0.1,0.1,0.1l-0.1-0.1l-0.1-0.1c0,0-0.1-0.2,0,0l0-0.1c0,0,0-0.1-0.1-0.1v-0.1
		c0-0.1,0.1,0.2,0,0.1c-0.1-0.4-0.5-0.7-0.9-0.6c-0.4,0.1-0.7,0.5-0.6,0.9C110.6,68,110.7,68.1,110.7,68.1L110.7,68.1z"/>
	<path d="M104.8,74.1c0.4,0.5,0.9,0.9,1.6,1.1c0.6,0.1,1.3,0.2,1.9,0.1c0.4,0,0.7-0.4,0.7-0.8c0-0.4-0.3-0.7-0.7-0.7
		c-0.3,0-0.5,0-0.8,0c-0.1,0-0.3,0-0.4,0c-0.1,0,0.2,0,0,0l-0.2,0c-0.1,0-0.2,0-0.3-0.1h-0.1h0.1l-0.2-0.1l-0.1-0.1l-0.1-0.1
		c0.1,0.1,0.1,0.1,0.1,0s-0.1-0.1-0.1-0.1s-0.2-0.2,0,0c-0.2-0.4-0.7-0.5-1.1-0.3C104.7,73.3,104.6,73.8,104.8,74.1L104.8,74.1z"/>
	<path class="st1" d="M85.4,64.6c0.9-0.2,1.6-0.6,2.2-1.3l0,0c0.1-0.1,0.2-0.3,0.3-0.4c1.8-2.2,3.5-4.7,2.8-9
		c0.4-1.8-0.1-3.7-1.5-4.9c0.6-2.7-1.1-5.3-3.8-5.9c-0.7-0.2-1.4-0.2-2.1,0h0c-1-2-3.2-3.1-5.5-2.7c-0.2,0-0.4,0.1-0.6,0.2
		c-2.8-1.9-6.5-1.8-9,0.4c-1.8-1.6-4.5-1.5-6.1,0.3c-0.8,0.9-1.2,2-1.1,3.2l-0.2,0.1c-0.3,0-0.6,0-1,0.1c-2.5,0.5-4.2,2.8-3.9,5.3
		l0,0c-2.6,0.7-4.2,3.5-3.4,6.1c0.2,0.6,0.5,1.2,0.8,1.7c-1.1,2.5,0.1,5.4,2.6,6.5c0.9,0.4,2,0.5,3,0.3c0.7-0.1,1.4-0.4,1.9-0.9
		c0.9-0.3,1.9-0.7,3-1.2c-0.1,0.4-0.1,0.9,0,1.3c0.4,1.9,2.3,2,5.2,1.4c2.1-0.4,4.7-1.2,7.7-1.9c3.2,1,4.8,6.3,7.7,5.7
		c0.1,0,0.2,0,0.3-0.1c2.1-0.7-0.8-3.1-2.1-4.9c0.6,0.3,1.2,0.5,1.9,0.5C84.7,64.6,85.1,64.6,85.4,64.6z"/>
	<path class="st1" d="M85.6,65.3c0.9-0.2,3-1,2.8-2.2l-0.2,0.8c1.7-1.9,3.1-4.1,3.4-6.7c0.1-0.8,0.1-1.5,0-2.3c-0.1-0.8,0-1.5,0-2.3
		c-0.1-1.5-0.7-3-1.9-4l0.2,0.8c0.4-2-0.2-4.2-1.8-5.6c-1.4-1.2-3.3-1.7-5.1-1.3l0.9,0.3c-1.3-2.5-4.3-3.7-7-2.9l0.6,0.1
		c-3.1-2.1-7.2-1.8-10,0.6h1.1c-2.1-1.9-5.3-1.8-7.2,0.3c-0.9,1-1.4,2.4-1.4,3.7l0.4-0.7c-0.2,0.2-0.9,0.1-1.2,0.2
		c-0.4,0.1-0.7,0.2-1.1,0.4c-0.7,0.3-1.3,0.8-1.8,1.4c-0.5,0.5-0.8,1.1-1.1,1.8c-0.1,0.4-0.2,0.7-0.3,1.1c0,0.2,0,0.4-0.1,0.6
		s-0.1,0.7,0.1,0.3l0.5-0.4c-3.1,0.9-4.8,4.1-3.9,7.2c0.2,0.6,0.5,1.2,0.9,1.7l-0.1-0.6c-1.2,2.9,0.2,6.3,3.1,7.5
		c1.2,0.5,2.5,0.6,3.7,0.2c0.7-0.3,1.4-0.6,2.1-0.9c0.9-0.4,1.8-0.7,2.6-1l-1-1c-0.3,1.1,0,2.3,0.8,3.2c0.8,0.6,1.8,0.9,2.8,0.8
		c2.9-0.1,5.8-1.2,8.7-1.9c0.6-0.1,1.2-0.4,1.8-0.1c0.5,0.3,0.9,0.6,1.3,1c0.8,0.8,1.4,1.6,2.2,2.4c1.2,1.4,3.1,2.9,4.9,1.7
		c2.3-1.5-1.4-4.6-2.2-5.8l-1.1,1.1C83.2,65.4,84.4,65.6,85.6,65.3c1-0.2,0.6-1.7-0.4-1.5c-0.8,0.1-1.6,0-2.3-0.4
		c-0.6-0.3-1.6,0.4-1.1,1.1c0.6,0.8,1.2,1.5,1.9,2.3c0.3,0.3,0.6,0.7,0.8,1.1c0.2,0.4,0.2,0.4-0.2,0.5c-1.4,0.4-2.7-1.5-3.4-2.4
		c-1-1.2-2.3-2.9-4-3.2c-0.6,0-1.2,0.1-1.7,0.3c-0.7,0.2-1.4,0.4-2.1,0.5c-1.2,0.3-2.3,0.6-3.5,0.9c-1.7,0.4-5.4,1.4-5-1.6
		c0.1-0.5-0.3-1.2-1-1c-0.7,0.3-1.5,0.6-2.2,0.9c-0.8,0.3-1.3,0.6-1.9,0.9c-2.1,0.9-4.6-0.1-5.5-2.3c-0.3-0.8-0.4-1.7-0.2-2.5
		c0.1-0.3,0.2-0.7,0.3-1.1c-0.1-0.3-0.2-0.6-0.4-0.8c-0.9-1.5-0.8-3.5,0.4-4.9c0.4-0.5,0.8-0.8,1.4-1.1c0.5-0.2,1.1-0.3,1.3-0.9
		c0-0.6,0.1-1.2,0.2-1.8c0.4-1.2,1.3-2.2,2.5-2.7c0.7-0.2,1.6-0.1,2.1-0.6c0.5-0.5,0.3-1.3,0.4-1.9c0.6-1.9,2.5-3,4.4-2.4
		c0.5,0.2,1,0.4,1.4,0.8c0.3,0.3,0.8,0.3,1.1,0c2.2-1.8,5.4-2,7.9-0.5c0.6,0.4,0.8,0.2,1.5,0.1c0.6-0.1,1.2-0.1,1.8,0
		c1.2,0.3,2.2,1.1,2.8,2.3c0.2,0.3,0.5,0.5,0.9,0.4c1.9-0.4,3.9,0.6,4.7,2.4c0.2,0.5,0.4,1.1,0.4,1.6c0,0.5-0.3,1.1,0,1.6
		c0.3,0.5,0.7,0.8,1,1.2c0.3,0.6,0.5,1.2,0.6,1.9c0,0.6-0.2,1.2-0.1,1.8c0.1,0.6,0.1,1.3,0.1,2c0,1-0.2,2-0.6,2.9
		c-0.4,0.8-0.8,1.6-1.3,2.3c-0.4,0.6-1.5,1.4-1.3,2.2l0.2-0.8c-0.5,0.5-1.2,0.9-1.9,1.1C84.2,64.1,84.6,65.6,85.6,65.3z"/>
	<path d="M85.6,65.3c0.9-0.2,3-1,2.8-2.2l-0.2,0.8c1.7-1.9,3.1-4.1,3.4-6.7c0.1-0.8,0.1-1.5,0-2.3c-0.1-0.8,0-1.5,0-2.3
		c-0.1-1.5-0.7-3-1.9-4l0.2,0.8c0.4-2-0.2-4.2-1.8-5.6c-1.4-1.2-3.3-1.7-5.1-1.3l0.9,0.3c-1.3-2.5-4.3-3.7-7-2.9l0.6,0.1
		c-3.1-2.1-7.2-1.8-10,0.6h1.1c-2.1-1.9-5.3-1.8-7.2,0.3c-0.9,1-1.4,2.4-1.4,3.7l0.4-0.7c-0.2,0.2-0.9,0.1-1.2,0.2
		c-0.4,0.1-0.7,0.2-1.1,0.4c-0.7,0.3-1.3,0.8-1.8,1.4c-0.5,0.5-0.8,1.1-1.1,1.8c-0.1,0.4-0.2,0.7-0.3,1.1c0,0.2,0,0.4-0.1,0.6
		s-0.1,0.7,0.1,0.3l0.5-0.4c-3.1,0.9-4.8,4.1-3.9,7.2c0.2,0.6,0.5,1.2,0.9,1.7l-0.1-0.6c-1.2,2.9,0.2,6.3,3.1,7.5
		c1.2,0.5,2.5,0.6,3.7,0.2c0.7-0.3,1.4-0.6,2.1-0.9c0.9-0.4,1.8-0.7,2.6-1l-1-1c-0.3,1.1,0,2.3,0.8,3.2c0.8,0.6,1.8,0.9,2.8,0.8
		c2.9-0.1,5.8-1.2,8.7-1.9c0.6-0.1,1.2-0.4,1.8-0.1c0.5,0.3,0.9,0.6,1.3,1c0.8,0.8,1.4,1.6,2.2,2.4c1.2,1.4,3.1,2.9,4.9,1.7
		c2.3-1.5-1.4-4.6-2.2-5.8l-1.1,1.1C83.2,65.4,84.4,65.6,85.6,65.3c1-0.2,0.6-1.7-0.4-1.5c-0.8,0.1-1.6,0-2.3-0.4
		c-0.6-0.3-1.6,0.4-1.1,1.1c0.6,0.8,1.2,1.5,1.9,2.3c0.3,0.3,0.6,0.7,0.8,1.1c0.2,0.4,0.2,0.4-0.2,0.5c-1.4,0.4-2.7-1.5-3.4-2.4
		c-1-1.2-2.3-2.9-4-3.2c-0.6,0-1.2,0.1-1.7,0.3c-0.7,0.2-1.4,0.4-2.1,0.5c-1.2,0.3-2.3,0.6-3.5,0.9c-1.7,0.4-5.4,1.4-5-1.6
		c0.1-0.5-0.3-1.2-1-1c-0.7,0.3-1.5,0.6-2.2,0.9c-0.8,0.3-1.3,0.6-1.9,0.9c-2.1,0.9-4.6-0.1-5.5-2.3c-0.3-0.8-0.4-1.7-0.2-2.5
		c0.1-0.3,0.2-0.7,0.3-1.1c-0.1-0.3-0.2-0.6-0.4-0.8c-0.9-1.5-0.8-3.5,0.4-4.9c0.4-0.5,0.8-0.8,1.4-1.1c0.5-0.2,1.1-0.3,1.3-0.9
		c0-0.6,0.1-1.2,0.2-1.8c0.4-1.2,1.3-2.2,2.5-2.7c0.7-0.2,1.6-0.1,2.1-0.6c0.5-0.5,0.3-1.3,0.4-1.9c0.6-1.9,2.5-3,4.4-2.4
		c0.5,0.2,1,0.4,1.4,0.8c0.3,0.3,0.8,0.3,1.1,0c2.2-1.8,5.4-2,7.9-0.5c0.6,0.4,0.8,0.2,1.5,0.1c0.6-0.1,1.2-0.1,1.8,0
		c1.2,0.3,2.2,1.1,2.8,2.3c0.2,0.3,0.5,0.5,0.9,0.4c1.9-0.4,3.9,0.6,4.7,2.4c0.2,0.5,0.4,1.1,0.4,1.6c0,0.5-0.3,1.1,0,1.6
		c0.3,0.5,0.7,0.8,1,1.2c0.3,0.6,0.5,1.2,0.6,1.9c0,0.6-0.2,1.2-0.1,1.8c0.1,0.6,0.1,1.3,0.1,2c0,1-0.2,2-0.6,2.9
		c-0.4,0.8-0.8,1.6-1.3,2.3c-0.4,0.6-1.5,1.4-1.3,2.2l0.2-0.8c-0.5,0.5-1.2,0.9-1.9,1.1C84.2,64.1,84.6,65.6,85.6,65.3z"/>
	<path d="M64.6,49.4c-0.1,0.5-0.1,1.1,0.2,1.5c0.2,0.4,0.6,0.7,1,0.9c0.9,0.4,1.8,0.5,2.8,0.2c0.5-0.2,1-0.5,1.2-1
		c0.3-0.3,0.2-0.8-0.2-1.1c-0.3-0.3-0.8-0.2-1.1,0.2c0,0-0.1,0.1-0.1,0.1l-0.1,0.1c-0.1,0.1,0.1-0.1,0,0c-0.1,0-0.1,0.1-0.2,0.2
		c0,0,0.2-0.1,0,0l-0.1,0l-0.1,0.1c0,0,0,0-0.1,0l0.1,0c-0.2,0-0.3,0.1-0.5,0.1s0.2,0,0.1,0h-0.1c-0.1,0-0.2,0-0.2,0h-0.2
		c-0.1,0,0.2,0,0,0h-0.1c-0.2,0-0.3-0.1-0.5-0.1h0l-0.1-0.1l-0.2-0.1c0,0-0.1-0.1,0,0c0.1,0.1,0,0,0,0l-0.2-0.2c0,0,0.1,0.1,0.1,0.1
		l0-0.1c0,0,0-0.1-0.1-0.1v0c-0.1-0.1,0,0.2,0,0.1c0,0,0-0.1,0-0.1c0,0,0-0.2,0,0c0,0.2,0,0,0,0s0-0.1,0-0.1s0,0.1,0,0.1
		s0-0.1,0-0.1c0.1-0.4-0.1-0.8-0.5-1C65.2,48.8,64.8,49,64.6,49.4L64.6,49.4z"/>
	<path d="M72.4,51.5c0.4,1,1.3,1.7,2.4,1.8c1,0.2,2,0.1,2.9-0.4c0.5-0.3,0.8-0.8,0.8-1.3c0-0.4-0.3-0.8-0.8-0.8
		c-0.4,0-0.8,0.4-0.8,0.8c0,0.1,0.1-0.2,0,0c-0.1,0.2,0.1-0.1,0-0.1l0,0.1c0,0.1,0.1-0.1,0.1-0.1l-0.1,0.1c0,0,0,0-0.1,0.1
		c0-0.1,0.2-0.1,0,0l-0.2,0.1c-0.1,0.1,0,0,0.1,0c0,0-0.1,0-0.1,0c-0.2,0.1-0.3,0.1-0.5,0.1c-0.2,0,0.1,0,0,0H76h-0.3h-0.3
		c-0.1,0-0.2,0-0.3,0c0.1,0,0.2,0,0,0H75c-0.1,0-0.2,0-0.3-0.1c-0.1,0-0.2-0.1-0.2-0.1c-0.1,0,0.1,0.1,0,0l-0.1-0.1
		c-0.1,0-0.2-0.2-0.3-0.2l0.1,0.1c0,0,0,0-0.1-0.1c0,0-0.1-0.1-0.1-0.1c0,0-0.1-0.2,0,0c0.1,0.1,0,0,0-0.1c0,0,0-0.1-0.1-0.1v-0.1
		c0-0.1,0.1,0.2,0,0.1c-0.1-0.4-0.5-0.6-1-0.5C72.4,50.8,72.2,51.2,72.4,51.5L72.4,51.5z"/>
	<path d="M66.5,57.5c0.4,0.5,1,0.9,1.6,1.1c0.6,0.1,1.3,0.2,1.9,0.1c0.4,0,0.8-0.3,0.8-0.8c0-0.4-0.4-0.8-0.8-0.8
		c-0.3,0-0.5,0-0.8,0c-0.1,0-0.3,0-0.4,0c-0.1,0,0.2,0,0,0h-0.2l-0.3-0.1h-0.1h0.1L68.1,57L68,56.9L68,56.9l0,0l-0.1-0.1
		c0,0-0.2-0.2,0,0c-0.1-0.2-0.3-0.3-0.5-0.4c-0.4-0.1-0.8,0.1-1,0.6C66.4,57.2,66.4,57.4,66.5,57.5L66.5,57.5z"/>
	<path class="st1" d="M118,126.4c0.9-0.2,1.6-0.6,2.2-1.3l0,0c0.1-0.1,0.2-0.3,0.3-0.4c1.8-2.2,3.5-4.7,2.8-9
		c0.4-1.8-0.1-3.7-1.5-4.9c0.6-2.7-1.1-5.3-3.8-5.9c-0.7-0.1-1.4-0.2-2.1,0l0,0c-1-2-3.2-3.1-5.5-2.7c-0.2,0-0.4,0.1-0.6,0.2
		c-2.8-1.9-6.5-1.8-9,0.4c-1.8-1.6-4.5-1.5-6.1,0.3c-0.8,0.9-1.2,2-1.1,3.2c-0.1,0-0.1,0.1-0.2,0.1c-0.3,0-0.6,0-1,0.1
		c-2.5,0.5-4.2,2.8-4,5.3l0,0c-2.5,0.7-4,3.2-3.5,5.8c0.2,0.7,0.5,1.4,0.9,2c-1.1,2.5,0.1,5.4,2.6,6.5c1.6,0.7,3.5,0.5,4.9-0.6
		c0.9-0.3,1.9-0.7,3-1.2c-0.1,0.4-0.1,0.9,0,1.3c0.4,1.9,2.3,2,5.2,1.4c2.1-0.4,4.7-1.2,7.7-1.9c3.2,1,4.9,6.3,7.7,5.7
		c0.1,0,0.2,0,0.3-0.1c2.1-0.7-0.8-3.1-2.1-4.9c0.6,0.3,1.2,0.5,1.9,0.5C117.4,126.4,117.7,126.4,118,126.4z"/>
	<path class="st1" d="M118.2,127.1c0.9-0.2,3-1,2.8-2.2l-0.2,0.8c1.7-1.9,3.1-4.1,3.4-6.7c0.1-0.8,0.1-1.5,0-2.3
		c-0.1-0.8,0-1.5,0-2.3c-0.1-1.5-0.7-3-1.9-4l0.2,0.8c0.4-2-0.2-4.2-1.8-5.6c-1.4-1.2-3.3-1.7-5.1-1.3l0.9,0.4
		c-1.3-2.5-4.3-3.7-7-2.8l0.6,0.1c-3.1-2.1-7.2-1.8-10,0.6h1.1c-2.1-1.9-5.3-1.8-7.2,0.3c-0.9,1-1.4,2.4-1.4,3.7l0.4-0.7
		c-0.3,0.2-0.9,0.1-1.2,0.2c-0.4,0.1-0.7,0.2-1.1,0.4c-0.7,0.3-1.3,0.8-1.8,1.4c-0.5,0.5-0.8,1.2-1.1,1.8c-0.1,0.4-0.2,0.7-0.3,1.1
		c0,0.2-0.1,0.4-0.1,0.6c0,0.1-0.1,0.7,0.1,0.3l0.5-0.4c-3.1,0.9-4.8,4.1-3.9,7.2c0.2,0.6,0.5,1.2,0.9,1.7l-0.1-0.6
		c-1.2,2.9,0.2,6.3,3.2,7.5c1.2,0.5,2.4,0.5,3.6,0.2c0.7-0.3,1.4-0.6,2.1-0.9c0.9-0.4,1.8-0.7,2.6-1l-0.9-0.9
		c-0.3,1.1,0,2.3,0.8,3.2c0.8,0.6,1.8,0.9,2.8,0.8c2.9-0.1,5.8-1.2,8.7-1.9c0.6-0.2,1.2-0.4,1.8-0.1c0.5,0.3,0.9,0.6,1.3,1
		c0.8,0.8,1.4,1.6,2.1,2.4c1.2,1.4,3.1,2.9,4.9,1.7c2.3-1.5-1.4-4.6-2.2-5.8l-1.1,1.1C115.9,127.2,117.1,127.3,118.2,127.1
		c1-0.2,0.6-1.7-0.4-1.5c-0.8,0.1-1.6,0-2.3-0.4c-0.6-0.3-1.6,0.4-1.1,1.1c0.6,0.8,1.2,1.5,1.9,2.3c0.3,0.3,0.6,0.7,0.8,1.1
		c0.2,0.4,0.2,0.4-0.2,0.5c-1.4,0.4-2.7-1.5-3.4-2.4c-1-1.2-2.3-2.9-4-3.2c-0.6,0-1.2,0.1-1.7,0.3l-2.1,0.5
		c-1.2,0.3-2.3,0.6-3.5,0.9c-1.7,0.4-5.4,1.4-5-1.6c0.1-0.5-0.3-1.2-1-1c-0.7,0.3-1.5,0.6-2.2,0.9c-0.8,0.3-1.3,0.6-1.9,0.9
		c-2.2,0.9-4.6-0.2-5.5-2.3c-0.1-0.4-0.2-0.8-0.3-1.2c0-0.4,0-0.9,0.1-1.3c0.1-0.3,0.2-0.7,0.3-1c0-0.3-0.2-0.6-0.4-0.8
		c-0.9-1.5-0.8-3.5,0.4-4.8c0.4-0.5,0.8-0.8,1.4-1.1c0.5-0.3,1.1-0.3,1.3-0.9c0-0.6,0.1-1.2,0.2-1.8c0.2-0.6,0.5-1.2,1-1.7
		c0.4-0.4,0.9-0.8,1.5-1c0.7-0.3,1.6-0.1,2.1-0.6s0.3-1.3,0.4-1.9c0.2-0.7,0.6-1.3,1.1-1.7c1.4-1.1,3.3-1.1,4.7,0.1
		c0.3,0.3,0.8,0.3,1.1,0c2.2-1.8,5.4-2,7.9-0.5c0.6,0.4,0.8,0.2,1.5,0.1c0.6-0.1,1.2-0.1,1.8,0c1.2,0.3,2.2,1.1,2.8,2.3
		c0.2,0.3,0.5,0.4,0.9,0.4c1.9-0.4,3.9,0.6,4.7,2.4c0.2,0.5,0.4,1.1,0.4,1.6c0,0.5-0.3,1.1,0,1.6c0.3,0.5,0.7,0.8,1,1.2
		c0.3,0.6,0.5,1.2,0.6,1.9c0,0.6-0.2,1.2-0.1,1.8c0.1,0.6,0.1,1.3,0.1,2c0,1-0.2,2-0.6,2.9c-0.4,0.8-0.8,1.6-1.3,2.3
		c-0.4,0.6-1.5,1.4-1.3,2.2l0.2-0.8c-0.5,0.5-1.2,0.9-1.9,1.1C116.8,125.9,117.3,127.3,118.2,127.1z"/>
	<path d="M118.2,127.1c0.9-0.2,3-1,2.8-2.2l-0.2,0.8c1.7-1.9,3.1-4.1,3.4-6.7c0.1-0.8,0.1-1.5,0-2.3c-0.1-0.8,0-1.5,0-2.3
		c-0.1-1.5-0.7-3-1.9-4l0.2,0.8c0.4-2-0.2-4.2-1.8-5.6c-1.4-1.2-3.3-1.7-5.1-1.3l0.9,0.4c-1.3-2.5-4.3-3.7-7-2.8l0.6,0.1
		c-3.1-2.1-7.2-1.8-10,0.6h1.1c-2.1-1.9-5.3-1.8-7.2,0.3c-0.9,1-1.4,2.4-1.4,3.7l0.4-0.7c-0.3,0.2-0.9,0.1-1.2,0.2
		c-0.4,0.1-0.7,0.2-1.1,0.4c-0.7,0.3-1.3,0.8-1.8,1.4c-0.5,0.5-0.8,1.2-1.1,1.8c-0.1,0.4-0.2,0.7-0.3,1.1c0,0.2-0.1,0.4-0.1,0.6
		c0,0.1-0.1,0.7,0.1,0.3l0.5-0.4c-3.1,0.9-4.8,4.1-3.9,7.2c0.2,0.6,0.5,1.2,0.9,1.7l-0.1-0.6c-1.2,2.9,0.2,6.3,3.2,7.5
		c1.2,0.5,2.4,0.5,3.6,0.2c0.7-0.3,1.4-0.6,2.1-0.9c0.9-0.4,1.8-0.7,2.6-1l-0.9-0.9c-0.3,1.1,0,2.3,0.8,3.2c0.8,0.6,1.8,0.9,2.8,0.8
		c2.9-0.1,5.8-1.2,8.7-1.9c0.6-0.2,1.2-0.4,1.8-0.1c0.5,0.3,0.9,0.6,1.3,1c0.8,0.8,1.4,1.6,2.1,2.4c1.2,1.4,3.1,2.9,4.9,1.7
		c2.3-1.5-1.4-4.6-2.2-5.8l-1.1,1.1C115.9,127.2,117.1,127.3,118.2,127.1c1-0.2,0.6-1.7-0.4-1.5c-0.8,0.1-1.6,0-2.3-0.4
		c-0.6-0.3-1.6,0.4-1.1,1.1c0.6,0.8,1.2,1.5,1.9,2.3c0.3,0.3,0.6,0.7,0.8,1.1c0.2,0.4,0.2,0.4-0.2,0.5c-1.4,0.4-2.7-1.5-3.4-2.4
		c-1-1.2-2.3-2.9-4-3.2c-0.6,0-1.2,0.1-1.7,0.3l-2.1,0.5c-1.2,0.3-2.3,0.6-3.5,0.9c-1.7,0.4-5.4,1.4-5-1.6c0.1-0.5-0.3-1.2-1-1
		c-0.7,0.3-1.5,0.6-2.2,0.9c-0.8,0.3-1.3,0.6-1.9,0.9c-2.2,0.9-4.6-0.2-5.5-2.3c-0.1-0.4-0.2-0.8-0.3-1.2c0-0.4,0-0.9,0.1-1.3
		c0.1-0.3,0.2-0.7,0.3-1c0-0.3-0.2-0.6-0.4-0.8c-0.9-1.5-0.8-3.5,0.4-4.8c0.4-0.5,0.8-0.8,1.4-1.1c0.5-0.3,1.1-0.3,1.3-0.9
		c0-0.6,0.1-1.2,0.2-1.8c0.2-0.6,0.5-1.2,1-1.7c0.4-0.4,0.9-0.8,1.5-1c0.7-0.3,1.6-0.1,2.1-0.6s0.3-1.3,0.4-1.9
		c0.2-0.7,0.6-1.3,1.1-1.7c1.4-1.1,3.3-1.1,4.7,0.1c0.3,0.3,0.8,0.3,1.1,0c2.2-1.8,5.4-2,7.9-0.5c0.6,0.4,0.8,0.2,1.5,0.1
		c0.6-0.1,1.2-0.1,1.8,0c1.2,0.3,2.2,1.1,2.8,2.3c0.2,0.3,0.5,0.4,0.9,0.4c1.9-0.4,3.9,0.6,4.7,2.4c0.2,0.5,0.4,1.1,0.4,1.6
		c0,0.5-0.3,1.1,0,1.6c0.3,0.5,0.7,0.8,1,1.2c0.3,0.6,0.5,1.2,0.6,1.9c0,0.6-0.2,1.2-0.1,1.8c0.1,0.6,0.1,1.3,0.1,2
		c0,1-0.2,2-0.6,2.9c-0.4,0.8-0.8,1.6-1.3,2.3c-0.4,0.6-1.5,1.4-1.3,2.2l0.2-0.8c-0.5,0.5-1.2,0.9-1.9,1.1
		C116.8,125.9,117.3,127.3,118.2,127.1z"/>
	<path d="M97.2,111.1c-0.1,0.5-0.1,1.1,0.2,1.5c0.2,0.4,0.6,0.7,1,0.9c0.9,0.4,1.8,0.5,2.8,0.2c0.5-0.2,1-0.5,1.2-1
		c0.2-0.4,0.1-0.8-0.3-1.1c-0.4-0.2-0.8-0.1-1.1,0.3l-0.1,0.1c-0.1,0.1,0.1-0.1,0-0.1c-0.1,0-0.1,0.1-0.2,0.2c0,0,0.2-0.1,0,0
		l-0.1,0l-0.1,0h-0.1c-0.1,0,0.2-0.1,0.1,0c-0.2,0.1-0.3,0.1-0.5,0.1c-0.1,0,0.2,0,0,0h-0.4h-0.2c-0.1,0,0.2,0,0,0h-0.1
		c-0.2,0-0.3-0.1-0.5-0.1c-0.1,0,0.2,0.1,0,0l-0.1,0c-0.1,0-0.1-0.1-0.2-0.1c0,0-0.1-0.1,0,0s0,0,0,0c-0.1,0-0.1-0.1-0.2-0.2
		c-0.1,0,0.1,0.1,0.1,0.1c0,0,0,0,0-0.1l-0.1-0.1v0c-0.1-0.1,0,0.2,0,0.1c0-0.1,0-0.1,0-0.1c0,0,0-0.2,0,0c0,0.2,0,0,0,0
		s0-0.1,0-0.1c0,0,0,0.1,0,0.1s0-0.1,0-0.1c0.1-0.4-0.2-0.8-0.6-0.9C97.8,110.6,97.4,110.8,97.2,111.1L97.2,111.1z"/>
	<path d="M105.1,113.3c0.4,1,1.3,1.7,2.4,1.8c1,0.2,2,0.1,2.9-0.4c0.5-0.3,0.8-0.8,0.8-1.3c0-0.4-0.3-0.8-0.8-0.8
		c-0.4,0-0.8,0.3-0.8,0.8c0,0.2,0.1-0.2,0,0c-0.1,0.2,0.1-0.1,0-0.1l0,0.1c0,0.1,0.1-0.1,0.1-0.1l-0.1,0.1c0,0-0.1,0-0.1,0.1
		c0,0,0.2-0.1,0,0l-0.2,0.1c-0.1,0.1,0,0,0.1,0c0,0-0.1,0-0.1,0c-0.2,0.1-0.3,0.1-0.5,0.1c-0.2,0,0.1,0,0,0h-0.1h-0.3h-0.3
		c-0.1,0-0.2-0.1-0.3,0c0,0.1,0.2,0,0,0h-0.1l-0.3-0.1l-0.2-0.1c-0.1,0,0.1,0.1,0,0l-0.1-0.1c-0.1,0-0.2-0.2-0.3-0.2l0.1,0.1
		l-0.1-0.1c0,0-0.1-0.1-0.1-0.1c0,0-0.1-0.2,0,0c0.1,0.1,0,0,0-0.1c0,0,0-0.1-0.1-0.1v-0.1c0-0.1,0.1,0.2,0,0.1
		c-0.1-0.4-0.5-0.7-1-0.5C105.1,112.5,104.9,112.9,105.1,113.3L105.1,113.3z"/>
	<path d="M99.1,119.3c0.4,0.5,0.9,0.9,1.6,1.1c0.6,0.1,1.3,0.2,1.9,0.1c0.4,0,0.8-0.3,0.8-0.7c0-0.4-0.3-0.8-0.7-0.8
		c0,0-0.1,0-0.1,0c-0.3,0-0.5,0-0.8,0h-0.4c-0.2,0,0.2,0,0,0l-0.2,0c-0.1,0-0.2-0.1-0.3-0.1h-0.1c0.1,0,0.1,0.1,0.1,0l-0.2-0.1
		l-0.1-0.1l-0.1,0l0.1,0l-0.1-0.1c0,0-0.2-0.2,0,0c-0.1-0.2-0.3-0.3-0.5-0.4c-0.4-0.1-0.8,0.1-1,0.5C99,118.9,99.1,119.1,99.1,119.3
		L99.1,119.3z"/>
	<path class="st1" d="M47.3,84.5c0.9-0.2,1.6-0.6,2.2-1.3l0,0c0.1-0.1,0.2-0.3,0.3-0.4c1.8-2.2,3.5-4.7,2.8-9
		c0.4-1.8-0.1-3.7-1.5-4.9c0.1-0.7,0.1-1.4,0-2.1c-0.6-2.7-3.2-4.4-5.9-3.9h0c-1-2-3.2-3.1-5.5-2.7c-0.2,0-0.4,0.1-0.6,0.2
		c-2.8-1.9-6.5-1.8-9,0.4c-1.8-1.6-4.5-1.5-6.1,0.3c-0.8,0.9-1.2,2-1.1,3.2l-0.2,0.1c-0.3,0-0.6,0-1,0.1c-2.5,0.5-4.1,2.8-3.9,5.3
		l0,0c-2.6,0.7-4.2,3.5-3.4,6.1c0.2,0.6,0.5,1.2,0.8,1.7c-0.4,0.9-0.5,2-0.3,2.9c0.6,2.7,3.2,4.4,5.9,3.9c0.7-0.1,1.4-0.4,1.9-0.9
		c0.9-0.3,1.9-0.7,3-1.2c-0.1,0.4-0.1,0.9,0,1.3c0.4,1.9,2.3,2,5.2,1.4c2.1-0.4,4.7-1.2,7.7-1.9c3.2,1,4.8,6.3,7.7,5.7l0.3-0.1
		c2.1-0.7-0.8-3.1-2.1-4.9c0.6,0.3,1.2,0.5,1.9,0.5C46.7,84.6,47,84.6,47.3,84.5z"/>
	<path class="st1" d="M47.5,85.3c0.9-0.2,3-1,2.8-2.2l-0.2,0.8c1.7-1.9,3.1-4.1,3.4-6.7c0.1-0.8,0.1-1.5,0-2.3c-0.1-0.8,0-1.5,0-2.3
		c-0.1-1.5-0.7-3-1.9-4l0.2,0.8c0.4-2-0.2-4.2-1.8-5.6c-1.4-1.2-3.3-1.7-5.1-1.3l0.9,0.4c-1.3-2.5-4.2-3.7-6.9-2.9l0.6,0.1
		c-3.1-2.1-7.2-1.8-10,0.6h1.1c-2.1-1.9-5.3-1.8-7.2,0.3c-0.9,1-1.4,2.4-1.4,3.7l0.4-0.7c-0.3,0.2-0.9,0.1-1.2,0.2
		c-0.4,0.1-0.7,0.2-1.1,0.4c-0.7,0.3-1.3,0.8-1.8,1.4c-0.5,0.5-0.8,1.1-1.1,1.8c-0.1,0.4-0.2,0.7-0.3,1.1c0,0.2-0.1,0.4-0.1,0.6
		c0,0.1-0.1,0.7,0.1,0.3l0.5-0.4c-3.1,0.9-4.8,4.1-3.9,7.2c0.2,0.6,0.5,1.2,0.9,1.8l-0.1-0.6c-1.2,2.9,0.2,6.3,3.2,7.5
		c1.2,0.5,2.4,0.5,3.6,0.2c0.7-0.3,1.4-0.6,2.1-0.9c0.9-0.4,1.8-0.7,2.6-1l-1-1c-0.3,1.1,0,2.3,0.8,3.2c0.8,0.6,1.8,0.9,2.8,0.8
		c2.9-0.1,5.8-1.2,8.7-1.9c0.6-0.1,1.2-0.4,1.8-0.1c0.5,0.3,0.9,0.6,1.3,1c0.8,0.8,1.4,1.6,2.1,2.4c1.2,1.4,3.1,2.9,4.9,1.7
		c2.3-1.5-1.4-4.6-2.2-5.8l-1.1,1C45.1,85.3,46.3,85.5,47.5,85.3c1-0.2,0.6-1.7-0.4-1.5c-0.8,0.1-1.6,0-2.3-0.4
		c-0.6-0.3-1.6,0.4-1.1,1.1c0.6,0.8,1.2,1.5,1.9,2.3c0.3,0.3,0.6,0.7,0.8,1.1c0.2,0.4,0.2,0.4-0.2,0.5c-1.4,0.4-2.7-1.5-3.4-2.4
		c-1-1.2-2.3-2.9-4-3.2c-0.6,0-1.2,0.1-1.7,0.3c-0.7,0.2-1.4,0.4-2.1,0.5c-1.2,0.3-2.3,0.6-3.5,0.9c-1.7,0.4-5.5,1.4-5-1.6
		c0.1-0.5-0.3-1.2-1-1c-0.7,0.3-1.5,0.6-2.2,0.9s-1.3,0.6-1.9,0.9c-2.2,0.9-4.6-0.2-5.5-2.3c-0.3-0.8-0.4-1.6-0.2-2.5
		c0.1-0.3,0.2-0.7,0.3-1c-0.1-0.3-0.2-0.6-0.4-0.8c-0.9-1.5-0.8-3.5,0.4-4.9c0.4-0.5,0.8-0.8,1.4-1.1c0.5-0.2,1.1-0.3,1.3-0.9
		c0-0.6,0.1-1.2,0.2-1.8c0.4-1.2,1.3-2.2,2.5-2.7c0.7-0.2,1.6-0.1,2.1-0.6c0.5-0.5,0.3-1.3,0.4-1.9c0.2-0.7,0.6-1.3,1.1-1.7
		c1.4-1.1,3.3-1.1,4.7,0.1c0.3,0.3,0.8,0.3,1.1,0c2.2-1.8,5.4-2,7.9-0.5c0.6,0.4,0.8,0.2,1.5,0.1c0.6-0.1,1.2-0.1,1.8,0
		c1.2,0.3,2.2,1.2,2.8,2.3c0.2,0.3,0.5,0.4,0.9,0.4c1.9-0.4,3.9,0.6,4.7,2.4c0.2,0.5,0.4,1.1,0.4,1.6c0,0.5-0.3,1.1,0,1.6
		s0.7,0.8,1,1.2c0.3,0.6,0.5,1.2,0.6,1.9c0,0.6-0.2,1.2-0.1,1.8c0.1,0.6,0.1,1.3,0.1,2c0,1-0.2,2-0.6,2.9c-0.4,0.8-0.8,1.6-1.3,2.3
		c-0.4,0.6-1.5,1.4-1.3,2.2l0.2-0.8c-0.5,0.5-1.2,0.9-1.9,1.1C46.1,84,46.6,85.5,47.5,85.3z"/>
	<path d="M47.5,85.3c0.9-0.2,3-1,2.8-2.2l-0.2,0.8c1.7-1.9,3.1-4.1,3.4-6.7c0.1-0.8,0.1-1.5,0-2.3c-0.1-0.8,0-1.5,0-2.3
		c-0.1-1.5-0.7-3-1.9-4l0.2,0.8c0.4-2-0.2-4.2-1.8-5.6c-1.4-1.2-3.3-1.7-5.1-1.3l0.9,0.4c-1.3-2.5-4.2-3.7-6.9-2.9l0.6,0.1
		c-3.1-2.1-7.2-1.8-10,0.6h1.1c-2.1-1.9-5.3-1.8-7.2,0.3c-0.9,1-1.4,2.4-1.4,3.7l0.4-0.7c-0.3,0.2-0.9,0.1-1.2,0.2
		c-0.4,0.1-0.7,0.2-1.1,0.4c-0.7,0.3-1.3,0.8-1.8,1.4c-0.5,0.5-0.8,1.1-1.1,1.8c-0.1,0.4-0.2,0.7-0.3,1.1c0,0.2-0.1,0.4-0.1,0.6
		c0,0.1-0.1,0.7,0.1,0.3l0.5-0.4c-3.1,0.9-4.8,4.1-3.9,7.2c0.2,0.6,0.5,1.2,0.9,1.8l-0.1-0.6c-1.2,2.9,0.2,6.3,3.2,7.5
		c1.2,0.5,2.4,0.5,3.6,0.2c0.7-0.3,1.4-0.6,2.1-0.9c0.9-0.4,1.8-0.7,2.6-1l-1-1c-0.3,1.1,0,2.3,0.8,3.2c0.8,0.6,1.8,0.9,2.8,0.8
		c2.9-0.1,5.8-1.2,8.7-1.9c0.6-0.1,1.2-0.4,1.8-0.1c0.5,0.3,0.9,0.6,1.3,1c0.8,0.8,1.4,1.6,2.1,2.4c1.2,1.4,3.1,2.9,4.9,1.7
		c2.3-1.5-1.4-4.6-2.2-5.8l-1.1,1C45.1,85.3,46.3,85.5,47.5,85.3c1-0.2,0.6-1.7-0.4-1.5c-0.8,0.1-1.6,0-2.3-0.4
		c-0.6-0.3-1.6,0.4-1.1,1.1c0.6,0.8,1.2,1.5,1.9,2.3c0.3,0.3,0.6,0.7,0.8,1.1c0.2,0.4,0.2,0.4-0.2,0.5c-1.4,0.4-2.7-1.5-3.4-2.4
		c-1-1.2-2.3-2.9-4-3.2c-0.6,0-1.2,0.1-1.7,0.3c-0.7,0.2-1.4,0.4-2.1,0.5c-1.2,0.3-2.3,0.6-3.5,0.9c-1.7,0.4-5.5,1.4-5-1.6
		c0.1-0.5-0.3-1.2-1-1c-0.7,0.3-1.5,0.6-2.2,0.9s-1.3,0.6-1.9,0.9c-2.2,0.9-4.6-0.2-5.5-2.3c-0.3-0.8-0.4-1.6-0.2-2.5
		c0.1-0.3,0.2-0.7,0.3-1c-0.1-0.3-0.2-0.6-0.4-0.8c-0.9-1.5-0.8-3.5,0.4-4.9c0.4-0.5,0.8-0.8,1.4-1.1c0.5-0.2,1.1-0.3,1.3-0.9
		c0-0.6,0.1-1.2,0.2-1.8c0.4-1.2,1.3-2.2,2.5-2.7c0.7-0.2,1.6-0.1,2.1-0.6c0.5-0.5,0.3-1.3,0.4-1.9c0.2-0.7,0.6-1.3,1.1-1.7
		c1.4-1.1,3.3-1.1,4.7,0.1c0.3,0.3,0.8,0.3,1.1,0c2.2-1.8,5.4-2,7.9-0.5c0.6,0.4,0.8,0.2,1.5,0.1c0.6-0.1,1.2-0.1,1.8,0
		c1.2,0.3,2.2,1.2,2.8,2.3c0.2,0.3,0.5,0.4,0.9,0.4c1.9-0.4,3.9,0.6,4.7,2.4c0.2,0.5,0.4,1.1,0.4,1.6c0,0.5-0.3,1.1,0,1.6
		s0.7,0.8,1,1.2c0.3,0.6,0.5,1.2,0.6,1.9c0,0.6-0.2,1.2-0.1,1.8c0.1,0.6,0.1,1.3,0.1,2c0,1-0.2,2-0.6,2.9c-0.4,0.8-0.8,1.6-1.3,2.3
		c-0.4,0.6-1.5,1.4-1.3,2.2l0.2-0.8c-0.5,0.5-1.2,0.9-1.9,1.1C46.1,84,46.6,85.5,47.5,85.3z"/>
	<path d="M26.5,69.3c-0.1,0.5-0.1,1.1,0.2,1.5c0.2,0.4,0.6,0.7,1,0.9c0.9,0.4,1.8,0.5,2.8,0.2c0.5-0.2,1-0.5,1.3-1
		c0.2-0.4,0.1-0.9-0.3-1.1c-0.4-0.2-0.9-0.1-1.1,0.3l-0.1,0.1c-0.1,0.1,0.1-0.1,0-0.1l-0.2,0.2c0,0,0.2-0.1,0.1,0l-0.1,0l-0.1,0.1
		H30l0.1,0c-0.2,0-0.3,0.1-0.5,0.1c-0.2,0,0.2,0,0,0h-0.1h-0.2h-0.2c-0.1,0,0.2,0,0,0H29c-0.2,0-0.3-0.1-0.5-0.1c-0.1,0,0.2,0.1,0,0
		l-0.1-0.1l-0.2-0.1l0,0c0.1,0.1,0,0,0,0c-0.1-0.1-0.1-0.1-0.2-0.2c0,0,0.1,0.1,0.1,0.1c0,0,0,0,0-0.1L28.1,70v0
		c-0.1-0.1,0.1,0.2,0,0.1c0-0.1,0-0.1,0-0.1c0,0,0-0.2,0,0c0,0.2,0,0,0,0c0,0,0-0.1,0-0.1s0,0.1,0,0.1c0,0,0-0.1,0-0.1
		c0.2-0.4-0.1-0.9-0.5-1c-0.4-0.2-0.9,0.1-1,0.5C26.6,69.3,26.6,69.3,26.5,69.3L26.5,69.3z"/>
	<path d="M34.3,71.4c0.4,1,1.3,1.7,2.4,1.8c1,0.2,2,0.1,2.9-0.4c0.5-0.3,0.8-0.8,0.8-1.3c0-0.4-0.3-0.8-0.7-0.8
		c-0.4,0-0.8,0.3-0.8,0.7c0,0,0,0.1,0,0.1c0,0.1,0.1-0.2,0,0c-0.1,0.2,0.1-0.1,0-0.1c0,0,0,0.1,0,0.1c0,0.1,0.1-0.1,0-0.1
		c0,0,0,0-0.1,0.1c0,0,0,0-0.1,0.1c0-0.1,0.2-0.1,0,0l-0.2,0.1c-0.1,0.1,0,0,0.1,0l-0.1,0c-0.2,0.1-0.3,0.1-0.5,0.1
		c-0.1,0,0.1,0,0,0h-0.1h-0.3h-0.3c-0.1,0-0.2,0-0.3,0c0,0,0.2,0,0,0h-0.1c-0.1,0-0.2,0-0.3-0.1c-0.1,0-0.2-0.1-0.2-0.1
		c-0.1,0,0.1,0.1,0,0l-0.1-0.1c-0.1,0-0.2-0.2-0.3-0.2s0.1,0.1,0.1,0.1L36,71.4l-0.1-0.1c0,0-0.1-0.2,0,0c0.1,0.1,0,0,0-0.1
		c0,0,0-0.1-0.1-0.1c0,0,0,0,0-0.1c0-0.1,0.1,0.2,0,0.1c-0.1-0.4-0.5-0.6-1-0.5C34.4,70.7,34.1,71.1,34.3,71.4L34.3,71.4z"/>
	<path d="M28.4,77.5c0.4,0.5,0.9,0.9,1.6,1.1c0.6,0.1,1.3,0.2,1.9,0.1c0.4,0,0.8-0.3,0.8-0.7s-0.3-0.8-0.7-0.8c0,0-0.1,0-0.1,0
		c-0.3,0-0.5,0-0.8,0c-0.1,0-0.3,0-0.4,0c-0.1,0,0.2,0,0,0h-0.2L30.2,77l-0.1,0h0.1l-0.2-0.1l-0.1-0.1l-0.1-0.1
		c0.1,0.1,0.1,0.1,0.1,0l-0.1-0.1c0,0-0.2-0.2,0,0c-0.1-0.2-0.3-0.3-0.5-0.4c-0.2-0.1-0.4,0-0.6,0.1C28.4,76.6,28.3,77.1,28.4,77.5
		L28.4,77.5z"/>
	<path class="st1" d="M48.9,126.4c0.9-0.2,1.6-0.6,2.2-1.3l0,0c0.1-0.1,0.2-0.3,0.3-0.4c1.8-2.2,3.5-4.7,2.8-9
		c0.2-0.7,0.2-1.5,0-2.2c-0.2-1-0.8-2-1.5-2.7c0.1-0.7,0.1-1.4,0-2.1c-0.5-2.7-3.2-4.4-5.9-3.9c0,0,0,0,0,0h0c-1-2-3.2-3.1-5.5-2.7
		c-0.2,0-0.4,0.1-0.6,0.2c-2.8-1.9-6.5-1.8-9,0.4c-1.8-1.6-4.5-1.5-6.1,0.3c-0.8,0.9-1.2,2-1.1,3.2l-0.2,0.1c-0.3,0-0.6,0-1,0.1
		c-2.5,0.5-4.2,2.8-3.9,5.3l0,0c-2.5,0.7-4,3.2-3.5,5.8c0.1,0.7,0.5,1.4,0.9,2c-0.4,0.9-0.5,2-0.3,2.9c0.5,2.7,3.2,4.4,5.9,3.9
		c0.7-0.1,1.4-0.4,1.9-0.9c0.9-0.3,1.9-0.7,3-1.2c-0.1,0.4-0.1,0.9,0,1.3c0.4,1.9,2.3,2,5.2,1.4c2.1-0.4,4.7-1.2,7.7-1.9
		c3.2,1,4.8,6.3,7.7,5.7c0.1,0,0.2,0,0.3,0c2.1-0.7-0.8-3.1-2.1-4.9c0.6,0.3,1.2,0.5,1.9,0.5C48.2,126.5,48.6,126.4,48.9,126.4z"/>
	<path class="st1" d="M49.1,127.1c0.9-0.2,3-1,2.8-2.2l-0.2,0.8c1.7-1.9,3.1-4.1,3.4-6.7c0.1-0.8,0.1-1.5,0-2.3
		c-0.1-0.8,0-1.5,0-2.3c0-1.5-0.7-3-1.8-4.1l0.2,0.8c0.4-2-0.2-4.2-1.8-5.6c-1.4-1.2-3.3-1.7-5.1-1.3l0.9,0.4
		c-1.3-2.5-4.3-3.7-7-2.8l0.6,0.1c-3.1-2.1-7.2-1.8-10,0.6h1.1c-2.1-1.9-5.3-1.8-7.2,0.3c-0.9,1-1.4,2.4-1.4,3.7l0.4-0.7
		c-0.2,0.2-0.9,0.1-1.2,0.2c-0.4,0.1-0.7,0.2-1.1,0.4c-0.7,0.3-1.3,0.8-1.8,1.4c-0.5,0.5-0.8,1.2-1.1,1.8c-0.1,0.4-0.2,0.7-0.3,1.1
		c0,0.2,0,0.4-0.1,0.6c0,0.2-0.1,0.7,0.1,0.3l0.5-0.4c-3.1,0.9-4.8,4.1-3.9,7.2c0.2,0.6,0.5,1.2,0.9,1.7l-0.1-0.6
		c-1.2,2.9,0.2,6.3,3.2,7.5c1.2,0.5,2.4,0.5,3.6,0.2c0.7-0.3,1.4-0.6,2.1-0.9c0.9-0.4,1.8-0.7,2.6-1l-1-1c-0.3,1.1,0,2.3,0.8,3.2
		c0.8,0.6,1.8,0.9,2.8,0.8c2.9-0.1,5.8-1.2,8.7-1.9c0.6-0.2,1.2-0.4,1.8-0.1c0.5,0.3,0.9,0.6,1.3,1c0.8,0.8,1.4,1.6,2.2,2.4
		c1.2,1.4,3.1,2.9,4.9,1.7c2.3-1.5-1.4-4.6-2.2-5.8l-1.1,1.1C46.7,127.1,48,127.3,49.1,127.1c1-0.2,0.6-1.7-0.4-1.5
		c-0.8,0.1-1.6,0-2.3-0.4c-0.6-0.3-1.6,0.4-1.1,1.1c0.6,0.8,1.2,1.5,1.9,2.3c0.3,0.3,0.6,0.7,0.8,1.1c0.2,0.4,0.2,0.4-0.2,0.5
		c-1.4,0.4-2.7-1.5-3.4-2.4c-1-1.2-2.3-2.9-4-3.2c-0.6,0-1.2,0.1-1.7,0.3c-0.7,0.2-1.4,0.4-2.1,0.5c-1.2,0.3-2.4,0.6-3.5,0.9
		c-1.7,0.4-5.4,1.4-5-1.6c0.1-0.5-0.3-1.2-1-1c-0.7,0.3-1.5,0.6-2.2,0.9s-1.3,0.6-1.9,0.9c-2.1,0.9-4.6-0.1-5.5-2.3
		c-0.3-0.8-0.4-1.7-0.2-2.5c0.1-0.3,0.2-0.7,0.3-1c0-0.3-0.2-0.6-0.4-0.8c-0.9-1.5-0.8-3.5,0.4-4.8c0.4-0.5,0.8-0.8,1.4-1.1
		c0.5-0.3,1.1-0.3,1.3-0.9c0.1-0.7,0-1.2,0.2-1.8c0.2-0.6,0.5-1.2,1-1.7c0.4-0.4,0.9-0.8,1.5-1c0.7-0.3,1.6-0.1,2.1-0.6
		c0.5-0.5,0.3-1.3,0.4-1.9c0.6-1.9,2.5-3,4.4-2.4c0.5,0.2,1,0.4,1.4,0.8c0.3,0.3,0.8,0.3,1.1,0c2.2-1.8,5.4-2,7.9-0.5
		c0.6,0.4,0.8,0.2,1.5,0.1c0.6-0.1,1.2-0.1,1.8,0c1.2,0.3,2.2,1.1,2.8,2.3c0.2,0.3,0.5,0.4,0.9,0.4c2.3-0.5,4.5,1,5,3.3
		c0.1,0.2,0.1,0.5,0.1,0.8c0,0.5-0.3,1.1,0,1.6c0.3,0.5,0.7,0.8,1,1.2c0.3,0.6,0.5,1.2,0.6,1.9c-0.1,0.6-0.1,1.2-0.1,1.8
		c0.1,0.7,0.1,1.3,0.1,2c0,1-0.2,2-0.6,2.9c-0.4,0.8-0.8,1.6-1.3,2.3c-0.4,0.6-1.5,1.4-1.3,2.2l0.2-0.8c-0.5,0.5-1.2,0.9-1.9,1.1
		C47.7,125.9,48.1,127.3,49.1,127.1z"/>
	<path d="M49.1,127.1c0.9-0.2,3-1,2.8-2.2l-0.2,0.8c1.7-1.9,3.1-4.1,3.4-6.7c0.1-0.8,0.1-1.5,0-2.3c-0.1-0.8,0-1.5,0-2.3
		c0-1.5-0.7-3-1.8-4.1l0.2,0.8c0.4-2-0.2-4.2-1.8-5.6c-1.4-1.2-3.3-1.7-5.1-1.3l0.9,0.4c-1.3-2.5-4.3-3.7-7-2.8l0.6,0.1
		c-3.1-2.1-7.2-1.8-10,0.6h1.1c-2.1-1.9-5.3-1.8-7.2,0.3c-0.9,1-1.4,2.4-1.4,3.7l0.4-0.7c-0.2,0.2-0.9,0.1-1.2,0.2
		c-0.4,0.1-0.7,0.2-1.1,0.4c-0.7,0.3-1.3,0.8-1.8,1.4c-0.5,0.5-0.8,1.2-1.1,1.8c-0.1,0.4-0.2,0.7-0.3,1.1c0,0.2,0,0.4-0.1,0.6
		c0,0.2-0.1,0.7,0.1,0.3l0.5-0.4c-3.1,0.9-4.8,4.1-3.9,7.2c0.2,0.6,0.5,1.2,0.9,1.7l-0.1-0.6c-1.2,2.9,0.2,6.3,3.2,7.5
		c1.2,0.5,2.4,0.5,3.6,0.2c0.7-0.3,1.4-0.6,2.1-0.9c0.9-0.4,1.8-0.7,2.6-1l-1-1c-0.3,1.1,0,2.3,0.8,3.2c0.8,0.6,1.8,0.9,2.8,0.8
		c2.9-0.1,5.8-1.2,8.7-1.9c0.6-0.2,1.2-0.4,1.8-0.1c0.5,0.3,0.9,0.6,1.3,1c0.8,0.8,1.4,1.6,2.2,2.4c1.2,1.4,3.1,2.9,4.9,1.7
		c2.3-1.5-1.4-4.6-2.2-5.8l-1.1,1.1C46.7,127.1,48,127.3,49.1,127.1c1-0.2,0.6-1.7-0.4-1.5c-0.8,0.1-1.6,0-2.3-0.4
		c-0.6-0.3-1.6,0.4-1.1,1.1c0.6,0.8,1.2,1.5,1.9,2.3c0.3,0.3,0.6,0.7,0.8,1.1c0.2,0.4,0.2,0.4-0.2,0.5c-1.4,0.4-2.7-1.5-3.4-2.4
		c-1-1.2-2.3-2.9-4-3.2c-0.6,0-1.2,0.1-1.7,0.3c-0.7,0.2-1.4,0.4-2.1,0.5c-1.2,0.3-2.4,0.6-3.5,0.9c-1.7,0.4-5.4,1.4-5-1.6
		c0.1-0.5-0.3-1.2-1-1c-0.7,0.3-1.5,0.6-2.2,0.9s-1.3,0.6-1.9,0.9c-2.1,0.9-4.6-0.1-5.5-2.3c-0.3-0.8-0.4-1.7-0.2-2.5
		c0.1-0.3,0.2-0.7,0.3-1c0-0.3-0.2-0.6-0.4-0.8c-0.9-1.5-0.8-3.5,0.4-4.8c0.4-0.5,0.8-0.8,1.4-1.1c0.5-0.3,1.1-0.3,1.3-0.9
		c0.1-0.7,0-1.2,0.2-1.8c0.2-0.6,0.5-1.2,1-1.7c0.4-0.4,0.9-0.8,1.5-1c0.7-0.3,1.6-0.1,2.1-0.6c0.5-0.5,0.3-1.3,0.4-1.9
		c0.6-1.9,2.5-3,4.4-2.4c0.5,0.2,1,0.4,1.4,0.8c0.3,0.3,0.8,0.3,1.1,0c2.2-1.8,5.4-2,7.9-0.5c0.6,0.4,0.8,0.2,1.5,0.1
		c0.6-0.1,1.2-0.1,1.8,0c1.2,0.3,2.2,1.1,2.8,2.3c0.2,0.3,0.5,0.4,0.9,0.4c2.3-0.5,4.5,1,5,3.3c0.1,0.2,0.1,0.5,0.1,0.8
		c0,0.5-0.3,1.1,0,1.6c0.3,0.5,0.7,0.8,1,1.2c0.3,0.6,0.5,1.2,0.6,1.9c-0.1,0.6-0.1,1.2-0.1,1.8c0.1,0.7,0.1,1.3,0.1,2
		c0,1-0.2,2-0.6,2.9c-0.4,0.8-0.8,1.6-1.3,2.3c-0.4,0.6-1.5,1.4-1.3,2.2l0.2-0.8c-0.5,0.5-1.2,0.9-1.9,1.1
		C47.7,125.9,48.1,127.3,49.1,127.1z"/>
	<path d="M28.1,111.1c-0.1,0.5-0.1,1.1,0.2,1.5c0.2,0.4,0.6,0.7,1,0.9c0.9,0.4,1.8,0.5,2.8,0.2c0.5-0.2,1-0.5,1.2-1
		c0.2-0.4,0.1-0.8-0.3-1.1c-0.4-0.2-0.8-0.1-1.1,0.3l-0.1,0.1c-0.1,0.1,0.1-0.1,0-0.1c-0.1,0-0.1,0.1-0.2,0.2c0,0,0.2-0.1,0,0
		l-0.1,0l-0.1,0h-0.1c-0.1,0,0.2-0.1,0.1,0c-0.2,0.1-0.3,0.1-0.5,0.1c-0.1,0,0.2,0,0.1,0h-0.4h-0.2c-0.1,0,0.2,0,0,0h-0.1
		c-0.2,0-0.3-0.1-0.5-0.1c-0.1,0,0.2,0.1,0,0l-0.1,0l-0.2-0.1c0,0-0.1-0.1,0,0s0,0,0,0s-0.1-0.1-0.2-0.2c-0.1-0.1,0.1,0.1,0.1,0.1
		l0-0.1l-0.1-0.1v0c-0.1-0.1,0,0.2,0,0.1c0,0,0-0.1,0-0.1c0,0,0-0.2,0,0c0,0.2,0,0,0,0s0-0.1,0-0.1c0,0,0,0.1,0,0.1s0-0.1,0-0.1
		c0.1-0.4-0.2-0.8-0.6-0.9C28.6,110.6,28.2,110.8,28.1,111.1L28.1,111.1z"/>
	<path d="M35.9,113.3c0.4,1,1.3,1.7,2.4,1.8c1,0.2,2,0.1,2.9-0.4c0.5-0.3,0.8-0.8,0.8-1.3c0-0.4-0.3-0.8-0.7-0.8
		c-0.4,0-0.8,0.3-0.8,0.8c0,0.2,0.1-0.2,0,0c-0.1,0.2,0.1-0.1,0-0.1l0,0.1c0,0.1,0.1-0.1,0.1-0.1l-0.1,0.1c0,0-0.1,0-0.1,0.1
		c0,0,0.2-0.1,0,0l-0.2,0.1c-0.1,0.1,0,0,0.1,0c0,0-0.1,0-0.1,0c-0.2,0.1-0.3,0.1-0.5,0.1c-0.2,0,0.1,0,0,0h-0.1h-0.3h-0.3
		c-0.1,0-0.2-0.1-0.3,0s0.2,0,0,0h-0.1l-0.3-0.1l-0.2-0.1c-0.1,0,0.1,0.1,0,0l-0.1-0.1c-0.1,0-0.2-0.2-0.3-0.2l0.1,0.1
		c0,0,0,0-0.1-0.1c0,0-0.1-0.1-0.1-0.1c0,0-0.1-0.2,0,0s0,0,0-0.1l-0.1-0.1c0,0,0,0,0-0.1c0-0.1,0.1,0.2,0,0.1
		c-0.1-0.4-0.5-0.7-1-0.5C36,112.5,35.7,112.9,35.9,113.3L35.9,113.3z"/>
	<path d="M30,119.3c0.4,0.5,0.9,0.9,1.6,1.1c0.6,0.1,1.3,0.2,1.9,0.1c0.4,0,0.7-0.4,0.7-0.8c0-0.4-0.3-0.7-0.7-0.7
		c-0.3,0-0.5,0-0.8,0c-0.1,0-0.3,0-0.4,0s0.2,0,0,0l-0.2,0c-0.1,0-0.2,0-0.3-0.1h-0.1c0.1,0.1,0.1,0.1,0.1,0l-0.2-0.1l-0.1-0.1
		l-0.1,0l0.1,0c0,0-0.1-0.1-0.1-0.1c0,0-0.2-0.2,0,0c-0.1-0.2-0.3-0.3-0.5-0.4c-0.2-0.1-0.4,0-0.6,0.1
		C29.9,118.5,29.8,118.9,30,119.3L30,119.3z"/>
	<path class="st1" d="M47.3,42.1c0.9-0.2,1.6-0.6,2.2-1.3l0,0c0.1-0.1,0.2-0.3,0.3-0.4c1.8-2.2,3.5-4.7,2.8-9
		c0.4-1.8-0.1-3.7-1.5-4.9c0.1-0.7,0.1-1.4,0-2.1c-0.6-2.7-3.2-4.4-5.8-3.9h0c-1-2-3.2-3.1-5.5-2.7c-0.2,0-0.4,0.1-0.6,0.2
		c-2.8-1.9-6.5-1.8-9,0.4c-1.8-1.6-4.5-1.5-6.1,0.3c-0.8,0.9-1.2,2-1.1,3.2l-0.2,0.1c-0.3,0-0.6,0-1,0.1c-2.5,0.5-4.2,2.8-3.9,5.3
		l0,0c-2.6,0.7-4.2,3.5-3.5,6.1c0.2,0.6,0.5,1.2,0.9,1.7c-0.4,0.9-0.5,2-0.3,2.9c0.6,2.7,3.2,4.4,5.9,3.9c0.7-0.1,1.4-0.4,1.9-0.9
		c0.9-0.3,1.9-0.7,3-1.2c-0.1,0.4-0.1,0.9,0,1.3c0.4,1.9,2.3,2,5.2,1.4c2.1-0.4,4.7-1.2,7.7-1.9c3.2,1,4.8,6.3,7.7,5.7
		c0.1,0,0.2,0,0.3-0.1c2.1-0.7-0.8-3.1-2.1-4.9c0.6,0.3,1.2,0.5,1.9,0.5C46.7,42.2,47,42.2,47.3,42.1z"/>
	<path class="st1" d="M47.5,42.9c0.9-0.2,3-1,2.8-2.2l-0.2,0.8c1.7-1.9,3.1-4.1,3.4-6.7c0.1-0.8,0.1-1.5,0-2.3c-0.1-0.8,0-1.5,0-2.3
		c-0.1-1.5-0.7-3-1.9-4l0.2,0.8c0.4-2-0.2-4.2-1.8-5.6c-1.4-1.2-3.3-1.7-5.1-1.3l0.9,0.4c-1.3-2.5-4.3-3.7-7-2.9l0.6,0.1
		c-3.1-2.1-7.2-1.8-10,0.6h1.1c-2.1-1.9-5.3-1.8-7.2,0.3c-0.9,1-1.4,2.3-1.4,3.7l0.4-0.7c-0.3,0.2-0.9,0.1-1.2,0.2
		c-0.4,0.1-0.7,0.2-1.1,0.4c-0.7,0.3-1.3,0.8-1.8,1.4c-0.5,0.5-0.8,1.2-1.1,1.8c-0.1,0.4-0.2,0.7-0.3,1.1c0,0.2-0.1,0.4-0.1,0.6
		c0,0.1-0.1,0.7,0.1,0.3l0.5-0.4c-3.1,0.9-4.8,4.1-3.9,7.2c0.2,0.6,0.5,1.2,0.9,1.8l-0.1-0.6c-1.2,2.9,0.2,6.3,3.2,7.5
		c1.2,0.5,2.4,0.6,3.7,0.2c0.7-0.2,1.4-0.5,2.1-0.9c0.9-0.4,1.8-0.7,2.6-1l-1-1c-0.3,1.1,0,2.3,0.8,3.2c0.8,0.6,1.8,0.9,2.8,0.8
		c2.9-0.1,5.8-1.2,8.7-1.9c0.6-0.1,1.2-0.4,1.8-0.1c0.5,0.3,0.9,0.6,1.3,1c0.8,0.8,1.4,1.6,2.1,2.4c1.2,1.4,3.1,2.9,4.9,1.7
		c2.3-1.5-1.4-4.6-2.2-5.8l-1.1,1.1C45.1,42.9,46.4,43.1,47.5,42.9c1-0.1,0.6-1.6-0.4-1.5c-0.8,0.1-1.6,0-2.3-0.4
		c-0.6-0.3-1.6,0.4-1.1,1.1c0.6,0.8,1.2,1.5,1.9,2.3c0.3,0.3,0.5,0.7,0.7,1.1c0.2,0.4,0.2,0.4-0.2,0.5c-1.4,0.4-2.7-1.5-3.4-2.4
		c-1-1.2-2.3-2.9-4-3.2c-0.6,0-1.2,0.1-1.7,0.3c-0.7,0.2-1.4,0.4-2.1,0.5c-1.2,0.3-2.3,0.6-3.5,0.9c-1.7,0.4-5.5,1.4-5-1.6
		c0.1-0.5-0.3-1.2-1-1c-0.7,0.3-1.5,0.6-2.2,0.9s-1.3,0.6-1.9,0.9c-2.2,0.9-4.6-0.2-5.5-2.3c-0.3-0.8-0.4-1.6-0.2-2.5
		c0.1-0.3,0.2-0.7,0.3-1c-0.1-0.3-0.2-0.6-0.4-0.8c-0.9-1.5-0.8-3.5,0.4-4.9c0.4-0.5,0.8-0.8,1.4-1.1c0.5-0.2,1.1-0.3,1.3-0.9
		c0-0.6,0.1-1.2,0.2-1.8c0.4-1.2,1.3-2.2,2.5-2.7c0.7-0.2,1.6-0.1,2.1-0.6c0.5-0.5,0.3-1.3,0.4-1.9c0.2-0.7,0.6-1.3,1.1-1.7
		c1.4-1.1,3.3-1.1,4.7,0.1c0.3,0.3,0.8,0.3,1.1,0c2.2-1.8,5.4-2,7.9-0.5c0.6,0.4,0.8,0.2,1.5,0.1c0.6-0.1,1.2-0.1,1.8,0
		C43,19,44,19.9,44.6,21c0.2,0.3,0.5,0.4,0.9,0.4c1.9-0.4,3.9,0.6,4.7,2.4c0.2,0.5,0.4,1.1,0.4,1.6c0,0.5-0.3,1.1,0,1.6
		c0.3,0.5,0.7,0.8,1,1.2c0.3,0.6,0.5,1.2,0.6,1.9c0,0.6-0.2,1.2-0.1,1.8c0.1,0.6,0.1,1.3,0.1,2c0,1-0.2,2-0.6,2.9
		c-0.4,0.8-0.8,1.6-1.3,2.3c-0.4,0.6-1.5,1.4-1.3,2.2l0.2-0.8c-0.5,0.5-1.2,0.9-1.9,1.1C46.1,41.6,46.6,43.1,47.5,42.9z"/>
	<path d="M47.5,42.9c0.9-0.2,3-1,2.8-2.2l-0.2,0.8c1.7-1.9,3.1-4.1,3.4-6.7c0.1-0.8,0.1-1.5,0-2.3c-0.1-0.8,0-1.5,0-2.3
		c-0.1-1.5-0.7-3-1.9-4l0.2,0.8c0.4-2-0.2-4.2-1.8-5.6c-1.4-1.2-3.3-1.7-5.1-1.3l0.9,0.4c-1.3-2.5-4.3-3.7-7-2.9l0.6,0.1
		c-3.1-2.1-7.2-1.8-10,0.6h1.1c-2.1-1.9-5.3-1.8-7.2,0.3c-0.9,1-1.4,2.3-1.4,3.7l0.4-0.7c-0.3,0.2-0.9,0.1-1.2,0.2
		c-0.4,0.1-0.7,0.2-1.1,0.4c-0.7,0.3-1.3,0.8-1.8,1.4c-0.5,0.5-0.8,1.2-1.1,1.8c-0.1,0.4-0.2,0.7-0.3,1.1c0,0.2-0.1,0.4-0.1,0.6
		c0,0.1-0.1,0.7,0.1,0.3l0.5-0.4c-3.1,0.9-4.8,4.1-3.9,7.2c0.2,0.6,0.5,1.2,0.9,1.8l-0.1-0.6c-1.2,2.9,0.2,6.3,3.2,7.5
		c1.2,0.5,2.4,0.6,3.7,0.2c0.7-0.2,1.4-0.5,2.1-0.9c0.9-0.4,1.8-0.7,2.6-1l-1-1c-0.3,1.1,0,2.3,0.8,3.2c0.8,0.6,1.8,0.9,2.8,0.8
		c2.9-0.1,5.8-1.2,8.7-1.9c0.6-0.1,1.2-0.4,1.8-0.1c0.5,0.3,0.9,0.6,1.3,1c0.8,0.8,1.4,1.6,2.1,2.4c1.2,1.4,3.1,2.9,4.9,1.7
		c2.3-1.5-1.4-4.6-2.2-5.8l-1.1,1.1C45.1,42.9,46.4,43.1,47.5,42.9c1-0.1,0.6-1.6-0.4-1.5c-0.8,0.1-1.6,0-2.3-0.4
		c-0.6-0.3-1.6,0.4-1.1,1.1c0.6,0.8,1.2,1.5,1.9,2.3c0.3,0.3,0.5,0.7,0.7,1.1c0.2,0.4,0.2,0.4-0.2,0.5c-1.4,0.4-2.7-1.5-3.4-2.4
		c-1-1.2-2.3-2.9-4-3.2c-0.6,0-1.2,0.1-1.7,0.3c-0.7,0.2-1.4,0.4-2.1,0.5c-1.2,0.3-2.3,0.6-3.5,0.9c-1.7,0.4-5.5,1.4-5-1.6
		c0.1-0.5-0.3-1.2-1-1c-0.7,0.3-1.5,0.6-2.2,0.9s-1.3,0.6-1.9,0.9c-2.2,0.9-4.6-0.2-5.5-2.3c-0.3-0.8-0.4-1.6-0.2-2.5
		c0.1-0.3,0.2-0.7,0.3-1c-0.1-0.3-0.2-0.6-0.4-0.8c-0.9-1.5-0.8-3.5,0.4-4.9c0.4-0.5,0.8-0.8,1.4-1.1c0.5-0.2,1.1-0.3,1.3-0.9
		c0-0.6,0.1-1.2,0.2-1.8c0.4-1.2,1.3-2.2,2.5-2.7c0.7-0.2,1.6-0.1,2.1-0.6c0.5-0.5,0.3-1.3,0.4-1.9c0.2-0.7,0.6-1.3,1.1-1.7
		c1.4-1.1,3.3-1.1,4.7,0.1c0.3,0.3,0.8,0.3,1.1,0c2.2-1.8,5.4-2,7.9-0.5c0.6,0.4,0.8,0.2,1.5,0.1c0.6-0.1,1.2-0.1,1.8,0
		C43,19,44,19.9,44.6,21c0.2,0.3,0.5,0.4,0.9,0.4c1.9-0.4,3.9,0.6,4.7,2.4c0.2,0.5,0.4,1.1,0.4,1.6c0,0.5-0.3,1.1,0,1.6
		c0.3,0.5,0.7,0.8,1,1.2c0.3,0.6,0.5,1.2,0.6,1.9c0,0.6-0.2,1.2-0.1,1.8c0.1,0.6,0.1,1.3,0.1,2c0,1-0.2,2-0.6,2.9
		c-0.4,0.8-0.8,1.6-1.3,2.3c-0.4,0.6-1.5,1.4-1.3,2.2l0.2-0.8c-0.5,0.5-1.2,0.9-1.9,1.1C46.1,41.6,46.6,43.1,47.5,42.9z"/>
	<path d="M26.5,26.9c-0.1,0.5-0.1,1.1,0.2,1.5c0.2,0.4,0.6,0.7,1,0.9c0.9,0.4,1.8,0.5,2.8,0.2c0.5-0.2,1-0.5,1.3-1
		c0.2-0.4,0.1-0.8-0.3-1.1s-0.8-0.1-1.1,0.3c0,0,0,0.1-0.1,0.1c-0.1,0.1,0.1-0.1,0-0.1L30.2,28c0,0,0.2-0.1,0.1,0l-0.1,0L30.1,28
		h-0.1c-0.1,0,0.2-0.1,0.1,0c-0.1,0-0.3,0.1-0.5,0.1c-0.2,0,0.2,0,0,0h-0.1h-0.2h-0.2c-0.1,0,0.2,0,0,0H29c-0.2,0-0.3-0.1-0.5-0.1
		c-0.1,0,0.2,0.1,0,0l-0.1-0.1l-0.2-0.1l0,0c0.1,0.1,0,0,0,0c-0.1-0.1-0.1-0.1-0.2-0.2c0,0,0.1,0.1,0.1,0.1c0,0,0,0,0-0.1l-0.1-0.1
		v0c-0.1-0.1,0.1,0.2,0,0.1c0-0.1,0-0.1,0-0.1s0-0.2,0,0c0,0.2,0,0,0,0c0,0,0-0.1,0-0.1c0,0,0,0.1,0,0.1c0,0,0-0.1,0-0.1
		c0.2-0.4-0.1-0.9-0.5-1c-0.4-0.2-0.9,0.1-1,0.5c0,0,0,0.1,0,0.1L26.5,26.9z"/>
	<path d="M34.3,29c0.4,1,1.3,1.7,2.4,1.8c1,0.2,2,0.1,2.9-0.4c0.5-0.3,0.8-0.8,0.8-1.3c0-0.4-0.3-0.8-0.7-0.8
		c-0.4,0-0.8,0.3-0.8,0.7c0,0,0,0.1,0,0.1c0,0.1,0.1-0.2,0,0c-0.1,0.2,0.1-0.1,0-0.1c0,0,0,0.1,0,0.1c0,0.1,0.1-0.1,0-0.1l-0.1,0.1
		c0,0,0,0-0.1,0.1c0-0.1,0.2-0.1,0,0l-0.2,0.1c-0.1,0.1,0,0,0.1,0l-0.1,0c-0.2,0.1-0.3,0.1-0.5,0.1c-0.1,0,0.1,0,0,0h-0.1h-0.3h-0.3
		c-0.1,0-0.2,0-0.3,0c0,0,0.2,0,0,0h-0.1c-0.1,0-0.2,0-0.3-0.1c-0.1,0-0.2-0.1-0.2-0.1c-0.1,0,0.1,0.1,0,0l-0.1-0.1
		C36.2,29.1,36,29,36,29s0.1,0.1,0.1,0.1L36,29l0-0.1c0,0-0.1-0.2,0,0c0.1,0.1,0,0,0-0.1c0,0,0-0.1-0.1-0.1c0,0,0,0,0-0.1
		c0-0.1,0.1,0.2,0,0.1c-0.1-0.4-0.5-0.6-1-0.5C34.5,28.2,34.2,28.6,34.3,29z"/>
	<path d="M28.4,35.1c0.4,0.5,0.9,0.9,1.6,1.1c0.6,0.1,1.3,0.2,1.9,0.1c0.4,0,0.8-0.3,0.8-0.7s-0.3-0.8-0.7-0.8c0,0-0.1,0-0.1,0
		c-0.3,0-0.5,0-0.8,0h-0.4c-0.2,0,0.2,0,0,0l-0.2,0c-0.1,0-0.2,0-0.3-0.1l-0.1,0h0.1l-0.2-0.1l-0.1-0.1l-0.1,0
		c0.1,0.1,0.1,0.1,0.1,0l-0.1-0.1c0,0-0.2-0.2,0,0c-0.2-0.4-0.7-0.5-1.1-0.3C28.4,34.2,28.2,34.7,28.4,35.1L28.4,35.1z"/>
	<path class="st1" d="M83.8,104.7c0.9-0.2,1.6-0.6,2.2-1.3l0,0c0.1-0.1,0.2-0.3,0.3-0.4c1.8-2.2,3.5-4.7,2.8-9
		c0.4-1.8-0.1-3.7-1.5-4.9c0.1-0.7,0.1-1.4,0-2.1c-0.6-2.7-3.2-4.4-5.9-3.9h0c-1-2-3.2-3.1-5.5-2.7c-0.2,0-0.4,0.1-0.6,0.2
		c-2.8-1.9-6.5-1.8-9,0.4c-1.8-1.6-4.5-1.5-6.1,0.3c-0.8,0.9-1.2,2-1.1,3.2l-0.2,0.1c-0.3,0-0.6,0-1,0.1c-2.5,0.5-4.2,2.8-4,5.3l0,0
		c-2.6,0.7-4.2,3.5-3.4,6.1c0.2,0.6,0.5,1.2,0.8,1.7c-0.4,0.9-0.5,2-0.3,2.9c0.5,2.7,3.1,4.5,5.8,4c0.8-0.1,1.5-0.5,2.1-0.9
		c0.9-0.3,1.9-0.7,3-1.2c-0.1,0.4-0.1,0.9,0,1.3c0.4,1.9,2.3,2,5.2,1.4c2.1-0.4,4.7-1.2,7.7-1.9c3.2,1,4.9,6.3,7.7,5.7
		c0.1,0,0.2,0,0.3-0.1c2.1-0.7-0.8-3.1-2.1-4.9c0.6,0.3,1.2,0.5,1.9,0.5C83.2,104.8,83.5,104.8,83.8,104.7z"/>
	<path class="st1" d="M84,105.5c0.9-0.2,3-1,2.8-2.2l-0.2,0.8c1.7-1.9,3.1-4.1,3.4-6.7c0.1-0.8,0.1-1.5,0-2.3c-0.1-0.8,0-1.5,0-2.3
		c-0.1-1.5-0.7-3-1.9-4l0.2,0.8c0.4-2-0.2-4.2-1.8-5.6c-1.4-1.2-3.3-1.7-5.1-1.3l0.9,0.4c-1.3-2.5-4.3-3.7-7-2.9l0.6,0.1
		c-3.1-2.1-7.2-1.8-10,0.6h1.1c-2.1-1.9-5.3-1.8-7.2,0.3c-0.9,1-1.4,2.4-1.4,3.7l0.4-0.7c-0.3,0.2-0.9,0.1-1.2,0.2
		c-0.4,0.1-0.7,0.2-1.1,0.4c-0.7,0.3-1.3,0.8-1.8,1.4c-0.5,0.5-0.8,1.2-1.1,1.8c-0.1,0.4-0.2,0.7-0.3,1.1c0,0.2-0.1,0.4-0.1,0.6
		c0,0.1-0.1,0.7,0.1,0.3l0.5-0.4c-3.1,0.9-4.8,4.1-3.9,7.2c0.2,0.6,0.5,1.2,0.9,1.7l0-0.6c-1.2,2.9,0.2,6.3,3.2,7.5
		c1.2,0.5,2.4,0.5,3.6,0.2c0.7-0.3,1.4-0.6,2.1-0.9c0.9-0.4,1.8-0.7,2.6-1l-1-1c-0.3,1.1,0,2.3,0.8,3.2c0.8,0.6,1.8,0.9,2.8,0.8
		c2.9-0.1,5.8-1.2,8.6-1.9c0.6-0.2,1.2-0.4,1.8-0.1c0.5,0.3,0.9,0.6,1.3,1c0.8,0.8,1.4,1.6,2.2,2.4c1.2,1.4,3.1,2.9,4.9,1.7
		c2.3-1.5-1.4-4.6-2.2-5.8l-1.1,1C81.6,105.5,82.8,105.7,84,105.5c1-0.2,0.6-1.7-0.4-1.5c-0.8,0.1-1.6,0-2.3-0.4
		c-0.6-0.3-1.5,0.4-1.1,1.1c0.6,0.8,1.2,1.5,1.9,2.3c0.3,0.3,0.6,0.7,0.8,1.1c0.2,0.4,0.2,0.4-0.2,0.5c-1.4,0.4-2.7-1.5-3.4-2.4
		c-1-1.2-2.3-2.9-4-3.2c-0.6,0-1.2,0.1-1.7,0.3c-0.7,0.2-1.4,0.4-2.1,0.5c-1.2,0.3-2.3,0.6-3.5,0.9c-1.7,0.4-5.5,1.4-5-1.6
		c0.1-0.5-0.3-1.2-1-1c-0.7,0.3-1.5,0.6-2.2,0.9c-0.8,0.3-1.3,0.6-1.9,0.9c-2.2,0.9-4.6-0.2-5.5-2.3c-0.3-0.8-0.4-1.6-0.2-2.5
		c0.1-0.3,0.2-0.7,0.3-1c0-0.3-0.2-0.6-0.4-0.8c-0.2-0.4-0.4-0.8-0.5-1.2c-0.3-1.3,0-2.6,0.9-3.6c0.4-0.5,0.8-0.8,1.4-1.1
		c0.5-0.2,1.1-0.3,1.3-0.9c0-0.6,0.1-1.2,0.2-1.8c0.2-0.7,0.5-1.3,1-1.7c0.4-0.4,0.9-0.8,1.5-1c0.7-0.3,1.6-0.1,2.1-0.6
		s0.3-1.3,0.4-1.9c0.2-0.7,0.6-1.3,1.1-1.7c1.4-1.1,3.3-1.1,4.7,0.1c0.3,0.3,0.8,0.3,1.1,0c2.3-1.8,5.4-2,7.9-0.4
		c0.6,0.4,0.8,0.2,1.5,0.1c0.6-0.1,1.2-0.1,1.8,0c1.2,0.3,2.2,1.1,2.8,2.3c0.2,0.3,0.5,0.4,0.9,0.4c1.9-0.4,3.9,0.6,4.7,2.4
		c0.2,0.5,0.4,1.1,0.4,1.6c0,0.5-0.3,1.1,0,1.6c0.3,0.5,0.7,0.8,1,1.2c0.3,0.6,0.5,1.2,0.6,1.9c0,0.6-0.2,1.2-0.1,1.8
		c0.1,0.7,0.1,1.3,0.1,2c0,1-0.2,2-0.6,2.9c-0.4,0.8-0.8,1.6-1.3,2.3c-0.4,0.6-1.5,1.4-1.3,2.2l0.2-0.8c-0.5,0.5-1.2,0.9-1.9,1.1
		C82.6,104.2,83,105.7,84,105.5z"/>
	<path d="M84,105.5c0.9-0.2,3-1,2.8-2.2l-0.2,0.8c1.7-1.9,3.1-4.1,3.4-6.7c0.1-0.8,0.1-1.5,0-2.3c-0.1-0.8,0-1.5,0-2.3
		c-0.1-1.5-0.7-3-1.9-4l0.2,0.8c0.4-2-0.2-4.2-1.8-5.6c-1.4-1.2-3.3-1.7-5.1-1.3l0.9,0.4c-1.3-2.5-4.3-3.7-7-2.9l0.6,0.1
		c-3.1-2.1-7.2-1.8-10,0.6h1.1c-2.1-1.9-5.3-1.8-7.2,0.3c-0.9,1-1.4,2.4-1.4,3.7l0.4-0.7c-0.3,0.2-0.9,0.1-1.2,0.2
		c-0.4,0.1-0.7,0.2-1.1,0.4c-0.7,0.3-1.3,0.8-1.8,1.4c-0.5,0.5-0.8,1.2-1.1,1.8c-0.1,0.4-0.2,0.7-0.3,1.1c0,0.2-0.1,0.4-0.1,0.6
		c0,0.1-0.1,0.7,0.1,0.3l0.5-0.4c-3.1,0.9-4.8,4.1-3.9,7.2c0.2,0.6,0.5,1.2,0.9,1.7l0-0.6c-1.2,2.9,0.2,6.3,3.2,7.5
		c1.2,0.5,2.4,0.5,3.6,0.2c0.7-0.3,1.4-0.6,2.1-0.9c0.9-0.4,1.8-0.7,2.6-1l-1-1c-0.3,1.1,0,2.3,0.8,3.2c0.8,0.6,1.8,0.9,2.8,0.8
		c2.9-0.1,5.8-1.2,8.6-1.9c0.6-0.2,1.2-0.4,1.8-0.1c0.5,0.3,0.9,0.6,1.3,1c0.8,0.8,1.4,1.6,2.2,2.4c1.2,1.4,3.1,2.9,4.9,1.7
		c2.3-1.5-1.4-4.6-2.2-5.8l-1.1,1C81.6,105.5,82.8,105.7,84,105.5c1-0.2,0.6-1.7-0.4-1.5c-0.8,0.1-1.6,0-2.3-0.4
		c-0.6-0.3-1.5,0.4-1.1,1.1c0.6,0.8,1.2,1.5,1.9,2.3c0.3,0.3,0.6,0.7,0.8,1.1c0.2,0.4,0.2,0.4-0.2,0.5c-1.4,0.4-2.7-1.5-3.4-2.4
		c-1-1.2-2.3-2.9-4-3.2c-0.6,0-1.2,0.1-1.7,0.3c-0.7,0.2-1.4,0.4-2.1,0.5c-1.2,0.3-2.3,0.6-3.5,0.9c-1.7,0.4-5.5,1.4-5-1.6
		c0.1-0.5-0.3-1.2-1-1c-0.7,0.3-1.5,0.6-2.2,0.9c-0.8,0.3-1.3,0.6-1.9,0.9c-2.2,0.9-4.6-0.2-5.5-2.3c-0.3-0.8-0.4-1.6-0.2-2.5
		c0.1-0.3,0.2-0.7,0.3-1c0-0.3-0.2-0.6-0.4-0.8c-0.2-0.4-0.4-0.8-0.5-1.2c-0.3-1.3,0-2.6,0.9-3.6c0.4-0.5,0.8-0.8,1.4-1.1
		c0.5-0.2,1.1-0.3,1.3-0.9c0-0.6,0.1-1.2,0.2-1.8c0.2-0.7,0.5-1.3,1-1.7c0.4-0.4,0.9-0.8,1.5-1c0.7-0.3,1.6-0.1,2.1-0.6
		s0.3-1.3,0.4-1.9c0.2-0.7,0.6-1.3,1.1-1.7c1.4-1.1,3.3-1.1,4.7,0.1c0.3,0.3,0.8,0.3,1.1,0c2.3-1.8,5.4-2,7.9-0.4
		c0.6,0.4,0.8,0.2,1.5,0.1c0.6-0.1,1.2-0.1,1.8,0c1.2,0.3,2.2,1.1,2.8,2.3c0.2,0.3,0.5,0.4,0.9,0.4c1.9-0.4,3.9,0.6,4.7,2.4
		c0.2,0.5,0.4,1.1,0.4,1.6c0,0.5-0.3,1.1,0,1.6c0.3,0.5,0.7,0.8,1,1.2c0.3,0.6,0.5,1.2,0.6,1.9c0,0.6-0.2,1.2-0.1,1.8
		c0.1,0.7,0.1,1.3,0.1,2c0,1-0.2,2-0.6,2.9c-0.4,0.8-0.8,1.6-1.3,2.3c-0.4,0.6-1.5,1.4-1.3,2.2l0.2-0.8c-0.5,0.5-1.2,0.9-1.9,1.1
		C82.6,104.2,83,105.7,84,105.5z"/>
	<path d="M63,89.5c-0.1,0.5-0.1,1.1,0.2,1.5c0.2,0.4,0.6,0.7,1,0.9c0.9,0.4,1.8,0.5,2.8,0.2c0.5-0.2,1-0.5,1.3-1
		c0.2-0.4,0.1-0.8-0.3-1.1c-0.4-0.2-0.8-0.1-1.1,0.3c0,0,0,0.1-0.1,0.1c-0.1,0.1,0.1-0.1,0-0.1c-0.1,0.1-0.1,0.1-0.2,0.2
		c0,0.1,0.2-0.1,0,0l-0.1,0c0,0-0.1,0-0.1,0c0,0,0,0-0.1,0c-0.1,0,0.2-0.1,0.1,0c-0.1,0.1-0.3,0.1-0.5,0.1c-0.1,0,0.2,0,0,0h-0.4
		h-0.2c-0.1,0,0.2,0,0,0h-0.1c-0.2,0-0.3-0.1-0.5-0.1c-0.1,0,0.2,0.1,0,0l-0.1,0l-0.2-0.1l0,0c0.1,0.1,0,0,0,0s-0.1-0.1-0.2-0.2
		s0.1,0.1,0.1,0.1c0,0,0,0,0-0.1l-0.1-0.1v0c-0.1-0.1,0,0.2,0,0.1c0-0.1,0-0.1,0-0.1c0,0,0-0.2,0,0s0,0,0,0c0,0,0-0.1,0-0.1
		c0,0,0,0.1,0,0.1c0,0,0-0.1,0-0.1c0.1-0.4-0.1-0.8-0.5-1c-0.4-0.1-0.8,0.1-1,0.5L63,89.5z"/>
	<path d="M70.8,91.6c0.4,1,1.3,1.7,2.4,1.8c1,0.2,2,0.1,2.9-0.4c0.5-0.3,0.8-0.8,0.8-1.4c0-0.4-0.4-0.7-0.8-0.7
		c-0.4,0-0.7,0.3-0.7,0.7c0,0.2,0.1-0.2,0,0s0.1-0.1,0-0.1c0,0,0,0.1,0,0.1c0,0.1,0.1-0.1,0-0.1l-0.1,0.1c0,0,0,0-0.1,0.1
		c0-0.1,0.2-0.1,0,0L75,91.8c-0.1,0.1,0,0,0.1,0c0,0-0.1,0-0.1,0c-0.2,0.1-0.3,0.1-0.5,0.1c-0.2,0,0.1,0,0,0h-0.1h-0.3h-0.3
		c-0.1,0-0.2-0.1-0.3,0s0.2,0,0,0h-0.1l-0.3-0.1l-0.2-0.1c-0.1,0,0.2,0.1,0,0l-0.1-0.1c-0.1,0-0.2-0.2-0.3-0.2s0.1,0.1,0.1,0.1
		l-0.1-0.1l-0.1-0.1c0,0-0.1-0.2,0,0c0.1,0.1,0,0,0-0.1c0,0,0-0.1-0.1-0.1c0,0,0,0,0-0.1c0-0.1,0.1,0.2,0,0.1
		c-0.1-0.4-0.5-0.7-1-0.5C70.8,90.8,70.6,91.2,70.8,91.6L70.8,91.6z"/>
	<path d="M64.9,97.7c0.4,0.5,0.9,0.9,1.6,1.1c0.6,0.1,1.3,0.2,1.9,0.1c0.4,0,0.8-0.3,0.8-0.7c0-0.4-0.3-0.8-0.7-0.8c0,0-0.1,0-0.1,0
		c-0.3,0-0.5,0-0.8,0h-0.4c-0.2,0,0.2,0,0,0l-0.2,0c-0.1,0-0.2,0-0.3-0.1l-0.1,0h0.1l-0.2-0.1L66.4,97l-0.1-0.1l0.1,0l-0.1-0.1
		c0,0-0.2-0.2,0,0c-0.2-0.4-0.7-0.5-1.1-0.3C64.8,96.8,64.7,97.3,64.9,97.7L64.9,97.7z"/>
	<path class="st2" d="M96.7,113.4c1.9,0,3.7-0.6,5.2-1.7l0,0c0.3-0.2,0.6-0.4,0.8-0.7c4.7-3.8,9.3-8.3,9.6-17.5
		c1.7-3.5,1.3-7.6-1-10.7c2.4-5.3,0-11.5-5.3-13.9c-1.4-0.6-2.8-0.9-4.3-0.9h-0.1c-1.3-5.2-6.3-8.5-11.6-7.8
		c-4.9-5.2-12.7-6.4-18.9-2.9c-3-4.1-8.7-5-12.8-2.1c-2,1.5-3.3,3.7-3.7,6.1l-0.4,0.2c-0.7-0.1-1.4-0.2-2.1-0.2
		c-5.3,0-9.8,4-10.4,9.3l0,0c-5.8,0.4-10.1,5.4-9.7,11.1c0.1,1.3,0.4,2.7,1,3.9c-3.3,4.8-2.1,11.3,2.6,14.6c3.1,2.1,7,2.5,10.4,0.9
		c2.1-0.2,4.3-0.7,6.7-1.1c-0.4,0.9-0.6,1.8-0.6,2.7c0,4.2,4,5.1,10.2,5.1c4.5,0,10.3-0.5,16.6-0.6c6.1,3.4,7.4,15.1,13.4,15.1
		c0.2,0,0.4,0,0.6,0c4.7-0.6-0.4-6.8-2.2-11.1c1.1,0.9,2.3,1.6,3.7,1.9C95.3,113.3,96,113.4,96.7,113.4z"/>
	<path d="M96.7,114.5c1.3,0,2.5-0.2,3.7-0.7c0.8-0.3,2.5-0.9,2.5-2l-0.5,0.9c3.2-2.3,6-5.2,8.1-8.5c1.1-1.9,1.9-4,2.3-6.2
		c0.2-1.2,0.4-2.5,0.5-3.8c0.1-0.5,0.3-1,0.5-1.5c0.2-0.7,0.4-1.4,0.5-2.1c0.4-2.9-0.4-5.8-2.1-8.2v1c1.7-3.8,1.3-8.3-1.2-11.7
		c-2.1-2.8-5.8-4.9-9.4-4.7l1,0.8c-1.5-5.6-6.8-9.2-12.6-8.5l0.7,0.3c-5.2-5.5-13.5-6.8-20.1-3.1l1.4,0.4c-3.2-4.6-9.6-5.7-14.2-2.4
		c-2.2,1.6-3.8,4-4.2,6.7l0.5-0.6l-0.4,0.2l0.8-0.1c-6.3-1.2-12.5,2.9-13.7,9.3c-0.1,0.3-0.1,0.5-0.1,0.8l0.3-0.7l0,0l0.7-0.3
		c-6.3,0.4-11.2,5.9-10.7,12.3c0.1,1.5,0.5,2.9,1.1,4.3v-1c-3.6,5.3-2.2,12.5,3.1,16c2.6,1.8,5.8,2.4,8.9,1.7
		c0.7-0.2,1.4-0.4,2.1-0.7c0.6-0.2,1.2-0.3,1.9-0.3c1.7-0.3,3.3-0.6,5-0.9l-1.3-1.2c-0.9,2.2-0.9,4.9,0.8,6.7c1.4,1.5,3.6,2,5.6,2.2
		c2.8,0.3,5.7,0.3,8.5,0.1c3.3-0.1,6.6-0.3,9.9-0.4l1.2,0c0.2,0,1-0.1,1-0.1c0.5,0.2,0.9,0.5,1.2,0.9c0.8,0.7,1.4,1.5,2,2.3
		c1.2,1.8,2.2,3.8,3.3,5.7c1.8,3.2,4.6,7.4,8.8,6c2.4-0.7,2.3-3.2,1.5-5.1c-1-2.6-2.7-4.8-3.8-7.4l-1.6,1.2
		C92,113.6,94.3,114.4,96.7,114.5c1.3,0,1.3-2.1,0-2.1c-1.8,0-3.6-0.7-5.1-1.9c-0.4-0.4-1.1-0.4-1.5,0c-0.3,0.3-0.4,0.8-0.2,1.2
		c0.9,2.1,2.1,3.9,3.1,5.9c0.4,0.8,1.6,3,0.5,3.5c-1.5,0.6-3-0.2-4-1.3c-1.2-1.3-2.1-2.8-2.9-4.4c-0.9-1.8-1.9-3.5-3.1-5.2
		c-1-1.4-2.4-3.1-4-3.9c-0.7-0.3-1.6-0.1-2.4-0.1l-2.5,0.1c-1.6,0.1-3.1,0.1-4.7,0.2c-2.7,0.1-5.4,0.3-8.1,0.3c-2.3,0-5,0-7.1-1.1
		s-2-3.4-1.2-5.4c0.3-0.8-0.6-1.4-1.3-1.3c-1.9,0.3-3.7,0.7-5.6,1s-3.4,1.1-5.2,1.1c-5.2,0-9.5-4.2-9.5-9.5c0-1.3,0.3-2.5,0.8-3.7
		c0.3-0.7,1.2-1.6,1.1-2.4c-0.1-0.4-0.2-0.7-0.4-1.1c-0.2-0.4-0.3-0.8-0.4-1.3c-0.2-0.8-0.3-1.7-0.2-2.6c0.2-4.1,3.1-7.7,7.1-8.7
		c0.6-0.2,1.6-0.1,2.1-0.4c0.6-0.3,0.6-1.2,0.7-1.8c0.6-2.6,2.3-4.9,4.7-6.2c1.2-0.7,2.5-1,3.9-1.1c0.8,0,1.7,0,2.5,0.1
		c0.8,0.1,1.6-0.4,1.8-1.2c0.7-3.1,2.6-5.6,5.7-6.5c3.3-1,6.8,0.2,8.9,2.9c0.3,0.5,0.9,0.6,1.4,0.4c5.3-3,11.9-2.3,16.5,1.7
		c0.4,0.4,0.8,0.9,1.2,1.2c0.4,0.3,1.2,0.1,1.7,0.1c4.4-0.1,8.3,2.8,9.4,7.1c0.1,0.4,0.5,0.8,1,0.8c3.2,0,6.1,1.5,7.9,4.1
		c0.9,1.3,1.4,2.8,1.6,4.4c0.1,0.9,0,1.8-0.1,2.8c-0.1,0.5-0.2,0.9-0.4,1.4c-0.2,0.6-0.5,1-0.2,1.6c0.4,0.8,1,1.5,1.3,2.4
		c0.7,2,0.8,4.1,0.2,6.1c-0.2,0.5-0.4,1-0.6,1.5c-0.1,0.6-0.1,1.2-0.1,1.8c-0.3,3.4-1.5,6.7-3.4,9.5c-1,1.3-2.1,2.6-3.3,3.7
		c-0.6,0.6-1.2,1.1-1.8,1.6s-1.8,1.1-1.8,1.9l0.5-0.9c-1.4,1-3,1.5-4.6,1.5C95.4,112.4,95.4,114.5,96.7,114.5z"/>
	<path d="M96.7,114.5c1.3,0,2.5-0.2,3.7-0.7c0.8-0.3,2.5-0.9,2.5-2l-0.5,0.9c3.2-2.3,6-5.2,8.1-8.5c1.1-1.9,1.9-4,2.3-6.2
		c0.2-1.2,0.4-2.5,0.5-3.8c0.1-0.5,0.3-1,0.5-1.5c0.2-0.7,0.4-1.4,0.5-2.1c0.4-2.9-0.4-5.8-2.1-8.2v1c1.7-3.8,1.3-8.3-1.2-11.7
		c-2.1-2.8-5.8-4.9-9.4-4.7l1,0.8c-1.5-5.6-6.8-9.2-12.6-8.5l0.7,0.3c-5.2-5.5-13.5-6.8-20.1-3.1l1.4,0.4c-3.2-4.6-9.6-5.7-14.2-2.4
		c-2.2,1.6-3.8,4-4.2,6.7l0.5-0.6l-0.4,0.2l0.8-0.1c-6.3-1.2-12.5,2.9-13.7,9.3c-0.1,0.3-0.1,0.5-0.1,0.8l0.3-0.7l0,0l0.7-0.3
		c-6.3,0.4-11.2,5.9-10.7,12.3c0.1,1.5,0.5,2.9,1.1,4.3v-1c-3.6,5.3-2.2,12.5,3.1,16c2.6,1.8,5.8,2.4,8.9,1.7
		c0.7-0.2,1.4-0.4,2.1-0.7c0.6-0.2,1.2-0.3,1.9-0.3c1.7-0.3,3.3-0.6,5-0.9l-1.3-1.2c-0.9,2.2-0.9,4.9,0.8,6.7c1.4,1.5,3.6,2,5.6,2.2
		c2.8,0.3,5.7,0.3,8.5,0.1c3.3-0.1,6.6-0.3,9.9-0.4l1.2,0c0.2,0,1-0.1,1-0.1c0.5,0.2,0.9,0.5,1.2,0.9c0.8,0.7,1.4,1.5,2,2.3
		c1.2,1.8,2.2,3.8,3.3,5.7c1.8,3.2,4.6,7.4,8.8,6c2.4-0.7,2.3-3.2,1.5-5.1c-1-2.6-2.7-4.8-3.8-7.4l-1.6,1.2
		C92,113.6,94.3,114.4,96.7,114.5c1.3,0,1.3-2.1,0-2.1c-1.8,0-3.6-0.7-5.1-1.9c-0.4-0.4-1.1-0.4-1.5,0c-0.3,0.3-0.4,0.8-0.2,1.2
		c0.9,2.1,2.1,3.9,3.1,5.9c0.4,0.8,1.6,3,0.5,3.5c-1.5,0.6-3-0.2-4-1.3c-1.2-1.3-2.1-2.8-2.9-4.4c-0.9-1.8-1.9-3.5-3.1-5.2
		c-1-1.4-2.4-3.1-4-3.9c-0.7-0.3-1.6-0.1-2.4-0.1l-2.5,0.1c-1.6,0.1-3.1,0.1-4.7,0.2c-2.7,0.1-5.4,0.3-8.1,0.3c-2.3,0-5,0-7.1-1.1
		s-2-3.4-1.2-5.4c0.3-0.8-0.6-1.4-1.3-1.3c-1.9,0.3-3.7,0.7-5.6,1s-3.4,1.1-5.2,1.1c-5.2,0-9.5-4.2-9.5-9.5c0-1.3,0.3-2.5,0.8-3.7
		c0.3-0.7,1.2-1.6,1.1-2.4c-0.1-0.4-0.2-0.7-0.4-1.1c-0.2-0.4-0.3-0.8-0.4-1.3c-0.2-0.8-0.3-1.7-0.2-2.6c0.2-4.1,3.1-7.7,7.1-8.7
		c0.6-0.2,1.6-0.1,2.1-0.4c0.6-0.3,0.6-1.2,0.7-1.8c0.6-2.6,2.3-4.9,4.7-6.2c1.2-0.7,2.5-1,3.9-1.1c0.8,0,1.7,0,2.5,0.1
		c0.8,0.1,1.6-0.4,1.8-1.2c0.7-3.1,2.6-5.6,5.7-6.5c3.3-1,6.8,0.2,8.9,2.9c0.3,0.5,0.9,0.6,1.4,0.4c5.3-3,11.9-2.3,16.5,1.7
		c0.4,0.4,0.8,0.9,1.2,1.2c0.4,0.3,1.2,0.1,1.7,0.1c4.4-0.1,8.3,2.8,9.4,7.1c0.1,0.4,0.5,0.8,1,0.8c3.2,0,6.1,1.5,7.9,4.1
		c0.9,1.3,1.4,2.8,1.6,4.4c0.1,0.9,0,1.8-0.1,2.8c-0.1,0.5-0.2,0.9-0.4,1.4c-0.2,0.6-0.5,1-0.2,1.6c0.4,0.8,1,1.5,1.3,2.4
		c0.7,2,0.8,4.1,0.2,6.1c-0.2,0.5-0.4,1-0.6,1.5c-0.1,0.6-0.1,1.2-0.1,1.8c-0.3,3.4-1.5,6.7-3.4,9.5c-1,1.3-2.1,2.6-3.3,3.7
		c-0.6,0.6-1.2,1.1-1.8,1.6s-1.8,1.1-1.8,1.9l0.5-0.9c-1.4,1-3,1.5-4.6,1.5C95.4,112.4,95.4,114.5,96.7,114.5z"/>
	<path d="M57.9,108.6c-0.1,4.9,0,9.7,0.1,14.6c0,0.4,0.2,0.7,0.5,0.9c1.5,0.6,2.9,1.4,4.2,2.2c1.1,0.7,2.2-1.1,1-1.8
		c-1.3-0.9-2.8-1.6-4.2-2.2l0.5,0.9c-0.2-4.9-0.2-9.7-0.1-14.6C60,107.3,57.9,107.3,57.9,108.6z"/>
	<path d="M74,108c-0.2,4-0.4,8-0.4,12c0,1.5-0.5,3.6,1.4,4.2c1.5,0.4,2.9,1.4,4.4,1.8c1.3,0.3,1.8-1.7,0.6-2
		c-1.3-0.3-2.4-1.2-3.7-1.6c-0.2-0.1-0.3-0.1-0.5-0.1c-0.2,0-0.3,0-0.1,0c-0.1-0.2,0-1.1,0-1.4c0-0.8,0-1.7,0-2.5
		c0.1-3.4,0.2-6.9,0.4-10.3C76.1,106.7,74,106.7,74,108L74,108z"/>
	<path class="st3" d="M65.6,91.1c0.5,3.8,3.8,6.6,7.6,6.5c3.8-0.1,6.9-3.3,6.8-7.1c0-0.1,0-0.2,0-0.3c-0.1-1.7-2.8-1.7-2.7,0
		c0.3,2.4-1.4,4.5-3.8,4.7c-0.2,0-0.5,0-0.7,0c-2.5-0.1-4.2-2.2-4.5-4.5C67.9,88.7,65.4,89.4,65.6,91.1L65.6,91.1z"/>
	<path d="M65.1,91.2c0.6,3.5,3.3,6.3,6.9,6.8c3.5,0.4,6.9-1.6,8.1-5c0.4-1.2,0.9-3.3-0.3-4.3c-0.8-0.7-2-0.6-2.7,0.2
		c-0.1,0.1-0.1,0.2-0.2,0.3c-0.3,0.7-0.1,1.6-0.3,2.3c-0.2,0.8-0.7,1.6-1.4,2.1c-1.5,1.1-3.6,1-5-0.3c-0.7-0.7-1.3-1.6-1.5-2.6
		c-0.2-0.7-0.2-1.4-1-1.8c-1.1-0.4-2.2,0.2-2.6,1.2c-0.1,0.3-0.1,0.6-0.1,0.8c0.1,0.7,1.1,0.7,1,0c-0.1-0.5,0.2-1,0.7-1.1
		c0.7-0.2,0.8,0.3,0.9,0.8c0.2,1.4,1,2.6,2.1,3.5c2,1.7,5.1,1.5,6.8-0.5c0.6-0.7,1-1.5,1.1-2.4c0-0.3,0.1-0.6,0.1-0.9
		c0-0.3-0.1-0.7,0.1-1c0.3-0.3,0.8-0.3,1.1-0.1c0.6,0.4,0.4,1.2,0.4,1.8c-0.4,3.1-2.9,5.5-6,5.7c-3.7,0.1-6.8-2.5-7.3-6.2
		C66,90.3,65,90.6,65.1,91.2z"/>
	<circle class="st3" cx="82" cy="79.9" r="4.3"/>
	<path d="M85.8,79.9c0,2.1-1.7,3.8-3.8,3.8c-2.1,0-3.8-1.7-3.8-3.8c0-2.1,1.7-3.8,3.8-3.8c0.2,0,0.5,0,0.7,0.1
		C84.5,76.5,85.8,78.1,85.8,79.9c0,0.3,0.2,0.5,0.5,0.5s0.5-0.2,0.5-0.5l0,0c0-2.7-2.2-4.8-4.8-4.8c-2.7,0-4.8,2.2-4.8,4.8
		c0,2.7,2.2,4.8,4.8,4.8c0.3,0,0.6,0,0.9-0.1c2.3-0.5,3.9-2.4,3.9-4.7c0-0.3-0.2-0.5-0.5-0.5S85.8,79.6,85.8,79.9z"/>
	<circle class="st3" cx="62.4" cy="79.9" r="4.3"/>
	<path d="M66.2,79.9c0,2.1-1.7,3.8-3.8,3.8s-3.8-1.7-3.8-3.8c0-2.1,1.7-3.8,3.8-3.8c0.2,0,0.5,0,0.7,0.1
		C64.8,76.5,66.1,78.1,66.2,79.9c0,0.3,0.2,0.5,0.5,0.5s0.5-0.2,0.5-0.5l0,0c0-2.7-2.2-4.8-4.8-4.8c-2.7,0-4.8,2.2-4.8,4.8
		c0,2.7,2.2,4.8,4.8,4.8c0.3,0,0.6,0,0.9-0.1c2.3-0.5,3.9-2.4,3.9-4.7c0-0.3-0.2-0.5-0.5-0.5C66.4,79.4,66.2,79.6,66.2,79.9z"/>
	<path d="M60.7,78.9c0,0.1-0.1,0.2-0.1,0.4c0,0-0.1,0.2,0,0.1c0.1-0.2,0,0,0,0.1c-0.1,0.2-0.2,0.5-0.3,0.7c-0.1,0.3-0.2,0.5-0.3,0.8
		c-0.1,0.3-0.1,0.7,0,1c0.1,0.6,0.5,1.1,1,1.4c0.8,0.3,1.7,0.2,2.3-0.4c0.8-0.8,1.2-2,1-3.1c-0.1-0.5-0.4-1.1-0.7-1.5
		c-0.3-0.4-0.9-0.5-1.4-0.4c-0.3,0.1-0.7,0.3-0.9,0.6c-0.9,0.9-1.2,2.3-0.8,3.5c0.1,0.3,0.3,0.5,0.5,0.6c0.2,0.1,0.5,0.2,0.8,0.1
		c0.3-0.1,0.5-0.2,0.6-0.5c0.1-0.2,0.2-0.5,0.1-0.8c-0.1-0.2-0.1-0.3-0.1-0.5l0,0.3c0-0.2,0-0.4,0-0.6l0,0.3c0-0.2,0.1-0.3,0.1-0.5
		c0,0,0-0.1,0-0.1c-0.1,0.3-0.1,0.2,0,0.1c0-0.1,0.1-0.2,0.1-0.2c0-0.1,0.1-0.1,0.1-0.2c-0.2,0.3,0,0.1,0,0c0-0.1,0.2-0.1,0.2-0.2
		s-0.2,0.1-0.1,0.1c0.1-0.1,0.2-0.1,0,0h-0.3h0.1h-0.3c-0.1,0-0.2-0.1-0.3-0.2c0,0,0.1,0,0.1,0.1c0.1,0.1-0.1-0.2,0-0.1
		c0.1,0.1,0.1,0.2,0.2,0.3c0.1,0.2-0.1-0.2,0-0.1c0,0.1,0,0.1,0.1,0.2c0,0.1,0.1,0.2,0.1,0.3l0-0.3c0,0.2,0,0.4,0,0.6l0-0.3
		c0,0.2-0.1,0.3-0.1,0.5c-0.1,0.2,0-0.1,0-0.1c0,0,0,0.1,0,0.1c0,0.1-0.1,0.1-0.1,0.2c0,0-0.1,0.2,0,0c0.1-0.2,0,0,0,0
		c0,0.1-0.1,0.1-0.2,0.2c-0.1,0.1,0.2-0.1,0,0l-0.1,0.1c-0.1,0.1,0.2-0.1,0.1,0h-0.2h0.3c-0.1,0-0.2,0-0.2,0H62c-0.1,0-0.1,0-0.2,0
		c0.2,0.1,0.2,0.1,0.1,0.1h0c-0.1-0.1,0.2,0.2,0.1,0.1c-0.1-0.1,0.1,0.1,0,0.1L62,81.6c-0.1-0.1,0.1,0.3,0,0.1
		c0-0.1-0.1-0.2-0.1-0.3l0,0.3c0-0.1,0-0.3,0-0.4l0,0.3c0-0.2,0.1-0.3,0.1-0.5c0-0.1,0,0.1,0,0.1c0,0,0-0.1,0.1-0.1l0.1-0.3
		c0.2-0.4,0.4-0.8,0.5-1.2c0.1-0.3,0-0.5-0.1-0.8c-0.1-0.2-0.4-0.4-0.6-0.5C61.5,78.1,61,78.4,60.7,78.9L60.7,78.9z"/>
	<path d="M80.3,78.9c0,0.1-0.1,0.2-0.1,0.4c0,0-0.1,0.2,0,0.1c0.1-0.2,0,0,0,0.1c-0.1,0.2-0.2,0.5-0.3,0.7c-0.1,0.3-0.2,0.5-0.3,0.8
		c-0.1,0.3-0.1,0.7,0,1c0.1,0.6,0.5,1.1,1,1.4c0.8,0.3,1.7,0.2,2.3-0.4c0.8-0.8,1.2-2,1-3.1c-0.1-0.5-0.4-1.1-0.7-1.5
		c-0.3-0.4-0.9-0.5-1.4-0.4c-0.3,0.1-0.7,0.3-0.9,0.6c-0.9,0.9-1.2,2.3-0.8,3.5c0.1,0.3,0.3,0.5,0.5,0.6c0.2,0.1,0.5,0.2,0.8,0.1
		c0.3-0.1,0.5-0.2,0.6-0.5c0.1-0.2,0.2-0.5,0.1-0.8C82,81.4,82,81.2,81.9,81v0.3c0-0.2,0-0.4,0-0.6l0,0.3c0-0.2,0.1-0.3,0.1-0.5
		c0,0,0-0.1,0-0.1c-0.1,0.3-0.1,0.2,0,0.1c0-0.1,0.1-0.2,0.1-0.2c0-0.1,0.1-0.1,0.1-0.2c-0.2,0.3,0,0.1,0,0c0-0.1,0.2-0.1,0.2-0.2
		c0-0.1-0.2,0.1-0.1,0.1c0.1-0.1,0.2-0.1,0,0H82h0.1h-0.3c-0.1,0-0.2-0.1-0.3-0.2c0,0,0.1,0,0.1,0.1c0.1,0.1-0.1-0.2,0-0.1
		c0.1,0.1,0.1,0.2,0.2,0.3c0.1,0.2-0.1-0.2,0-0.1c0,0.1,0,0.1,0.1,0.2c0,0.1,0.1,0.2,0.1,0.3v-0.3c0,0.2,0,0.4,0,0.6l0-0.3
		c0,0.2-0.1,0.3-0.1,0.5c-0.1,0.2,0-0.1,0-0.1c0,0,0,0.1,0,0.1c0,0.1-0.1,0.1-0.1,0.2c0,0-0.1,0.2,0,0c0.1-0.2,0,0,0,0
		c0,0.1-0.1,0.1-0.2,0.2c-0.1,0.1,0.2-0.1,0,0l-0.1,0.1c-0.1,0.1,0.2-0.1,0.1,0h-0.2h0.3c-0.1,0-0.2,0-0.2,0h0.3c-0.1,0-0.1,0-0.2,0
		c0.2,0.1,0.2,0.1,0.1,0.1h0c-0.1-0.1,0.2,0.2,0.1,0.1c-0.1-0.1,0.1,0.1,0,0.1l-0.1-0.1c-0.1-0.1,0.1,0.3,0,0.1
		c0-0.1-0.1-0.2-0.1-0.3v0.3c0-0.1,0-0.3,0-0.4v0.3c0-0.2,0.1-0.3,0.1-0.5c0-0.1,0,0.1,0,0.1c0,0,0-0.1,0.1-0.1l0.1-0.3
		c0.2-0.4,0.4-0.8,0.5-1.2c0.1-0.3,0-0.5-0.1-0.8c-0.1-0.2-0.4-0.4-0.6-0.5C81.1,78.1,80.5,78.4,80.3,78.9L80.3,78.9z"/>
	<path d="M112.7,95.3c0.9,1,1.7,2,2.3,3.2c0.2,0.3,0.3,0.6,0.4,1l0.1,0.3c0.1,0.3,0-0.2,0,0.1c0,0.2,0,0.5,0,0.3
		c0,0.1-0.1,0.5,0,0.2c0,0.1-0.1,0.1-0.1,0.2c-0.1,0.2,0.1-0.2,0,0s-0.2,0.2-0.1,0.1c-0.1,0.1-0.3,0.2-0.4,0.2
		c0.2-0.1-0.2,0.1-0.3,0.1l-0.4,0.1c-0.1,0-0.3,0.1-0.4,0.1c-0.2,0-0.5,0-0.7,0c-4.3,0.1-8.7-1.1-12.9-2.1c-1.9-0.5-3.7-0.9-5.6-1.2
		c-1.3-0.2-1.3,1.9,0,2.1c0.2,0-0.2,0,0,0l0.2,0l0.5,0.1c0.4,0.1,0.8,0.2,1.3,0.3c1,0.2,2,0.5,3,0.7c2.4,0.6,4.9,1.2,7.3,1.6
		c2.2,0.5,4.4,0.7,6.7,0.6c1.6-0.1,3.4-0.6,3.9-2.3c0.7-2.5-1.8-5.2-3.3-6.9C113.3,92.8,111.8,94.3,112.7,95.3L112.7,95.3z"/>
	<path d="M93.8,103.9c2.6,0.6,5.1-1,5.8-3.5c0.3-1.2,0.1-2.5-0.5-3.6c-0.7-1.1-1.8-2-3-2.5c-0.5-0.3-1.1-0.1-1.4,0.4
		c-0.3,0.5-0.1,1.1,0.4,1.4c0.5,0.2,1,0.5,1.5,0.8c0.3,0.2,0.6,0.5,0.7,0.8c0.4,0.6,0.5,1.4,0.4,2.1c-0.1,0.7-0.6,1.3-1.2,1.7
		c-0.3,0.2-0.7,0.4-1.1,0.4c-0.4,0.1-0.7,0.1-1.1,0c-0.6-0.1-1.1,0.2-1.3,0.7C93,103.2,93.3,103.7,93.8,103.9L93.8,103.9z"/>
	<path d="M29.9,91.3c-1.4,1-2.6,2-3.8,3.2c-0.7,0.7-1.1,1.5-1.4,2.4c-0.4,2.1,1.9,2.7,3.5,2.8c2.6,0,5.1-0.3,7.6-0.9
		c3-0.6,6-1.4,8.9-2.4c2.4-0.8,5-1.6,7.1-3c1.1-0.7,0.1-2.5-1-1.8c-1.6,1-3.4,1.8-5.2,2.4c-2.6,0.9-5.3,1.7-8.1,2.4
		C35,97,32.5,97.4,30,97.7c-0.5,0-1,0.1-1.5,0h-0.6h-0.3h-0.1L27,97.6l-0.2-0.1c0,0,0.2,0.1,0,0c-0.1,0-0.1-0.1-0.2-0.1
		c-0.1-0.1,0.2,0.1,0,0c-0.1,0-0.1-0.2,0,0c0.1,0.3-0.1-0.2,0,0s-0.1-0.2,0,0c0.1,0.2-0.1-0.1,0-0.1c0.1,0-0.1,0.2,0,0
		c0-0.1,0-0.2,0.1-0.2c0-0.1-0.1,0.1,0,0l0.2-0.3c0.1-0.2,0.2-0.3,0.3-0.5c1.1-1.2,2.3-2.4,3.6-3.3C31.9,92.3,30.9,90.5,29.9,91.3
		L29.9,91.3z"/>
	<path d="M52,95.2c-0.9-0.3-1.7-0.8-2.5-1.3c-0.2-0.2-0.4-0.4-0.6-0.6c-0.2-0.2,0,0.1-0.1-0.1c0-0.1-0.1-0.2-0.2-0.3
		c0-0.1,0,0,0,0.1c0,0,0-0.1,0-0.1c0-0.2,0,0.2,0,0c0-0.1,0-0.2,0-0.2c0-0.3,0,0.2,0-0.1c0-0.2,0.1-0.4,0.2-0.5
		c0.1-0.2-0.1,0.1,0-0.1l0.1-0.2c0.1-0.2,0.2-0.4,0.3-0.6l0.2-0.2c0.1-0.1,0.1-0.1,0,0l0.1-0.1c0.1-0.1,0.2-0.3,0.4-0.4
		c0.1-0.1,0.2-0.2,0.3-0.2c0.1-0.1,0.2-0.2,0,0c0.1-0.1,0.3-0.2,0.5-0.3c0.1-0.1,0.2-0.1,0,0l0.3-0.1c0.6-0.1,0.9-0.7,0.8-1.3
		c-0.1-0.6-0.7-0.9-1.3-0.8c0,0,0,0-0.1,0c-0.9,0.3-1.7,0.9-2.3,1.6c-0.7,0.8-1.2,1.7-1.4,2.8c-0.4,2.8,2.7,4.1,4.7,5
		c0.5,0.1,1.1-0.2,1.3-0.7C52.9,95.9,52.6,95.4,52,95.2L52,95.2z"/>
</g>
<g id="Layer_1_1_">
	<g>
		<path class="st4" d="M131.4,4.7H11.7c-4.5,0.1-8.1,3.7-8,8.2c0,0,0,0,0,0v118.7c-0.1,4.5,3.5,8.2,8,8.2c0,0,0,0,0,0h119.8
			c4.5-0.1,8.1-3.7,8-8.2c0,0,0,0,0,0V13C139.5,8.5,135.9,4.8,131.4,4.7C131.5,4.7,131.4,4.7,131.4,4.7z M133.7,125.6
			c0.1,4.6-3.6,8.4-8.2,8.4c0,0,0,0,0,0H17.7c-4.6-0.1-8.3-3.8-8.2-8.4V18.9c-0.1-4.6,3.6-8.4,8.2-8.4c0,0,0,0,0,0h107.7
			c4.6,0.1,8.3,3.8,8.2,8.4c0,0,0,0,0,0V125.6z"/>
		<path d="M11.7,140.9c-5.1-0.1-9.1-4.2-9-9.3V13c-0.1-5.1,4-9.2,9-9.3l119.8,0c5,0.1,9.1,4.2,9,9.3v118.7c0.1,5-4,9.2-9,9.2H11.7z
			 M11.7,5.8c-3.9,0-7,3.3-7,7.2l0,118.7c-0.1,3.9,3.1,7.1,7,7.2l119.8,0c3.9,0,7-3.3,7-7.2V13c0.1-3.9-3.1-7.1-7-7.2l0-1v1H11.7z
			 M17.7,135.1c-5.2-0.1-9.3-4.3-9.3-9.4V18.9c0-2.5,0.9-4.8,2.7-6.6s4.1-2.8,6.6-2.8h107.7c5.2,0.1,9.3,4.3,9.3,9.5v106.7
			c0.1,5.2-4.1,9.4-9.2,9.5H17.7z M125.4,11.6H17.7c-1.9,0-3.8,0.8-5.1,2.2s-2.1,3.2-2.1,5.2v106.7c0,4,3.2,7.3,7.2,7.4h107.7
			c4,0,7.2-3.4,7.2-7.4V18.9C132.7,14.9,129.4,11.6,125.4,11.6z"/>
	</g>
</g>
</svg>
