<svg xmlns="http://www.w3.org/2000/svg" viewBox="0 0 381.28 380.33"><defs><style>.cls-1{fill:#4386c6;}.cls-2{fill:#8eb6e0;}.cls-3{fill:#e52a2b;}.cls-4{fill:#f7c402;}.cls-5{fill:#1d1d1b;}.cls-6{fill:#7dc4ca;}.cls-7{fill:#fff;}</style></defs><title>Automata 2 prueba</title><g id="gráficos"><rect class="cls-1" x="4.14" y="3.67" width="373" height="373" rx="23.02" ry="23.02"/><path d="M354.12,375.17H33.62c-7.27,0-14.13.11-20.23-5-7.09-5.91-7.75-13.81-7.75-22.12V63.81c0-12.34-.38-24.75,0-37.09C6.06,13,17,5.17,29.81,5.17h278.9c14.84,0,29.68-.14,44.51,0,12.75.11,22.3,9.5,22.42,22.3,0,4.81,0,9.62,0,14.43V350.79c0,12.86-7.62,24-21.52,24.38-1.93.05-1.93,3.05,0,3,14.41-.44,24.44-11.7,24.52-25.81,0-5.5,0-11,0-16.51V71.73c0-14.8.15-29.62,0-44.42A24.94,24.94,0,0,0,354,2.17c-4-.09-8,0-12.06,0H29.62c-11.38,0-21.84,5.32-25.7,16.72C2.25,23.8,2.64,29.14,2.64,34.26v314.1c0,7.21.37,14,5,20.15,5.85,7.69,14.43,9.66,23.46,9.66h323A1.5,1.5,0,0,0,354.12,375.17Z"/><rect class="cls-2" x="27.63" y="27.15" width="326.03" height="326.03" rx="23.02" ry="23.02"/><path d="M330.64,351.68H74.24c-12,0-30.23,2.95-39.27-6.77-8.71-9.38-5.84-27.12-5.84-38.94V152.58c0-34.08-1.06-68.34,0-102.41.41-13.42,11-21.52,23.74-21.52H293.44c12.23,0,24.5-.3,36.73,0,12.51.31,21.85,9.62,22,22.19.05,4.16,0,8.32,0,12.48V328.13c0,12.66-8.23,23.15-21.51,23.55-1.93.06-1.94,3.06,0,3,14-.42,24.37-11.28,24.51-25.19.05-4.31,0-8.63,0-12.94v-227c0-12.94.25-25.89,0-38.82-.26-13.81-10.57-24.68-24.52-25-3-.08-6,0-8.95,0h-269c-9.9,0-19.11,4.13-23.83,13.3-2.72,5.29-2.71,10.73-2.71,16.43V325.53c0,6.4.33,12.5,4,18.12,5.26,8,13.78,11,22.9,11H330.64A1.5,1.5,0,0,0,330.64,351.68Z"/><path class="cls-3" d="M68.14,249.59c-1.31-9.47-2.5-25.26-1.25-34.73s5.16-18.94,12.7-25.5,15.74-9.64,25.39-6.1c2.14-14.32,4.62-25.44,10.37-36.84s10.83-20.62,21.72-28.22c17.88-12.48,40.12-20.44,62.56-19.39s44.75,11.93,55.74,29.92c7.82,12.81,9.52,27.94,10.39,42.6,12.24-1.9,26-3.52,36.08,3.09,5.48,3.58,9.07,9.15,11.44,14.92,6.54,16,1.87,40.32-8.07,54.73"/><path d="M69.64,249.59c-1.74-12.94-3.49-27.48-.16-40.28,4-15.3,18.19-30.21,35.1-24.6a1.5,1.5,0,0,0,1.84-1.05c2.4-15.71,6.4-30,14.15-44,8-14.37,20.07-23.52,34.88-30.29,28.86-13.2,66.21-13.42,90.27,9.77,14.32,13.8,17.37,33.19,18.54,52.17a1.53,1.53,0,0,0,1.9,1.45c9.38-1.44,19.74-3,29,.1,9.76,3.31,15.91,12.16,18.35,21.88,4,16.06-.47,35-9.56,48.55-1.07,1.61,1.52,3.12,2.59,1.52,10.07-15.05,15.08-37.25,8.7-54.67-3.18-8.67-9-16.27-17.82-19.65-10.17-3.9-21.55-2.23-32-.62l1.9,1.44c-1-17-3.32-34.59-14.1-48.39-9.5-12.17-23.86-20-38.73-23.55-16.75-4-34.47-2.25-50.62,3.41-15.37,5.38-31.16,13.86-40.82,27.33-11.26,15.68-16.59,33.9-19.46,52.73l1.85-1C89.5,176.55,74.63,188,68.66,202.36c-6.06,14.57-4.06,32-2,47.23.25,1.88,3.25,1.91,3,0Z"/><path class="cls-4" d="M107.2,258.25,65,259.58a36.62,36.62,0,0,1-1.65-13.73c10.19-.77,25,1.75,35.17,1.91.79-22.33,11.71-32.39,29.39-35.76s37.75,11.79,43.3,29.3c.79,2.47,6-.19,8.62.78,1.25.47,6.1-.22,7.45-.19,13.08.28,23.92-.29,37,0,1.66-5.42.61-8,5-13.52,4.57-5.69,5.91-7.43,12.64-11.17,8.81-4.89,24.49-5.53,34.88,1.37,8.52,5.66,12.3,13.41,16.66,22.26a157.49,157.49,0,0,1,20.72-1.16,3.58,3.58,0,0,1,2.56.7,2.86,2.86,0,0,1,.59,1.89l.71,11.88c-54,2.29-106.17,1-160.17,3.3-8.8.37-19.47,4.32-28.22,3.45-8.29-.83-16.44-2.76-24.77-3.09"/><path d="M107.2,256.75,65,258.08l1.44,1.1a39.79,39.79,0,0,1-1.59-13.33l-1.5,1.5c11.76-.71,23.44,1.62,35.17,1.91a1.51,1.51,0,0,0,1.5-1.5c.6-13,5.08-25.13,17.45-31,13.47-6.34,27.77-3.77,39,5.75a46.17,46.17,0,0,1,12.82,17.84c2,4.91,5.47,3,10.11,3.14,14.86.59,29.93-.42,44.85-.14a1.54,1.54,0,0,0,1.45-1.1c1-3.49,1.15-7.21,2.95-10.42a39.51,39.51,0,0,1,6.46-8.05,31.91,31.91,0,0,1,20-8.74c8.29-.63,16.68,1.27,23.23,6.54s10.17,12.64,13.78,20a1.45,1.45,0,0,0,1.29.75,165.4,165.4,0,0,1,16.94-1.15c1,0,2.91-.39,3.78,0,1.84.8,1.39,1.43,1.77,3.07.7,3,.4,6.76.59,9.9l1.5-1.5c-36.72,1.53-73.47,1.46-110.21,2q-13.68.19-27.34.54c-8.73.24-17.72,0-26.39,1.12-7.4.93-14.71,3.35-22.22,3.22-9-.15-18-2.71-27-3.2-1.93-.1-1.93,2.9,0,3,8.81.47,17.45,2.85,26.25,3.19,7.11.27,14.08-1.81,21-2.92,8.93-1.42,18.31-1.13,27.34-1.38,9.44-.26,18.88-.43,28.32-.57,36.74-.52,73.49-.45,110.21-2a1.51,1.51,0,0,0,1.5-1.5c-.23-3.89.27-9.14-.84-12.89a3.6,3.6,0,0,0-2.37-2.76c-2.65-1-6.91-.32-9.71-.21-1.88.07-3.77.17-5.65.31-1.34.1-4.33,1-5.64.52-2.56-1-4-5.89-5.42-8.32a49.15,49.15,0,0,0-4.3-6.22,33.55,33.55,0,0,0-14.22-10.36,38.14,38.14,0,0,0-32.2,2.83,38.63,38.63,0,0,0-10.5,9.69c-3.75,4.74-4.31,9.12-5.88,14.76l1.45-1.1c-9.8-.19-19.59.09-29.39.08-6.14,0-12.6-.44-18.66.08-3.08.26-3.08.55-4.51-2.26-.7-1.36-1.22-2.81-1.94-4.17a46.48,46.48,0,0,0-6-8.57A47.59,47.59,0,0,0,147,213.13a37.32,37.32,0,0,0-35.77,3.78C101,224,97.55,235.86,97,247.76l1.5-1.5c-11.73-.29-23.41-2.62-35.17-1.91a1.53,1.53,0,0,0-1.5,1.5A42.21,42.21,0,0,0,63.53,260a1.53,1.53,0,0,0,1.45,1.1l42.22-1.33c1.93-.06,1.94-3.06,0-3Z"/><path class="cls-5" d="M236.56,234.9c-4.23,8.68-3.55,13.11-2,22.14s8.72,17,17.66,19a24.74,24.74,0,0,0,19.7-4.4,30.87,30.87,0,0,0,11.28-17c1.56-5.83,1.52-12.31-1.31-17.64-2.44-4.59-6.72-7.94-11.24-10.49-5.83-3.28-13.1-5.43-19.12-2.51C246.23,226.55,239.25,229.26,236.56,234.9Z"/><path class="cls-5" d="M234,233.42c-6,13.13-4.48,30.93,7.42,40.47,12.64,10.14,30.58,5.36,39.45-7.34,9.82-14.05,7.92-32.07-6.83-41.45-13.09-8.34-31.69-5.83-40,8.32-1.93,3.27,3.15,6.23,5.08,3,2.71-4.6,7.4-6.89,12.1-9,6.92-3.11,13.69-1.21,19.89,2.79,12,7.72,12.74,22.28,4.73,33.41-7.5,10.42-22.77,13.85-32.38,4.27-8-8-8.8-21.65-4.34-31.46C240.65,233,235.58,230,234,233.42Z"/><path class="cls-5" d="M110.26,233.69c-4.58,9.39-3.84,14.19-2.15,24s9.44,18.38,19.12,20.56a26.76,26.76,0,0,0,21.33-4.75A33.53,33.53,0,0,0,160.78,255c1.68-6.32,1.64-13.33-1.43-19.1-2.64-5-7.27-8.6-12.17-11.36-6.31-3.56-14.18-5.88-20.7-2.72C120.73,224.65,113.18,227.58,110.26,233.69Z"/><path class="cls-5" d="M107.72,232.21C101.23,246.42,103,265.79,116,276c14,10.94,33.58,5,42.76-9.17,9.79-15.1,7.48-33.66-8-43.52-7.54-4.8-16.42-7.52-25-4.26-7,2.64-14.17,6.61-18,13.19-1.89,3.28,3.18,6.24,5.08,3,2.94-5.08,8.23-7.6,13.39-9.93,7.57-3.42,14.82-1.25,21.59,3.11,12.78,8.26,14,23.27,5.9,35.48-7.75,11.71-24.37,16.49-35.43,6.38-9.38-8.58-10.48-24-5.45-35C114.36,231.76,109.3,228.77,107.72,232.21Z"/><path class="cls-6" d="M120.45,181.23c-.22-8.8,1.56-20.07,5.52-28.12,4.6-9.35,14.05-21.48,23.6-27,14.58-8.44,35.3-13.65,52.62-12.83,17.74.85,35.95,9.38,44.26,23.51,5.53,9.41,11.49,25.09,10.35,35a1323.74,1323.74,0,0,1-136.35,9.45"/><path d="M122,181.23c-.22-18.07,6.52-34,19.34-46.69,12.49-12.38,31.93-17.88,49-19.47,16.72-1.54,34.61,2,47.39,13.49,6.06,5.47,9.86,12.64,12.87,20.13,2.9,7.24,5.38,15.21,4.71,23.09l1.5-1.5a1305.93,1305.93,0,0,1-136.35,9.45c-1.93,0-1.94,3,0,3a1305.93,1305.93,0,0,0,136.35-9.45,1.57,1.57,0,0,0,1.5-1.5c1.06-12.43-4.68-26.67-11.3-37-7.16-11.16-19.65-18.13-32.3-21.23-14.24-3.49-29.47-1.86-43.46,2s-26.82,10.2-36.39,21.51A65.18,65.18,0,0,0,119,181.23a1.5,1.5,0,0,0,3,0Z"/><path class="cls-5" d="M191.7,177.34c-.85-20.47.68-43.75-.57-61.83h-10c-.15,17.71,0,41.58.24,59.29"/><path class="cls-5" d="M194.64,177.34c-.75-20.61.71-41.25-.57-61.83a3,3,0,0,0-2.94-2.94h-10a3,3,0,0,0-2.94,2.94c-.15,19.76,0,39.53.24,59.29.05,3.78,5.93,3.79,5.88,0q-.42-29.64-.25-59.29l-2.93,2.93h10l-2.93-2.93c1.27,20.58-.18,41.22.56,61.83.14,3.77,6,3.79,5.88,0Z"/><path class="cls-5" d="M209.69,194.16a14.81,14.81,0,0,1,11.78,1.32l.7-5.37a29.41,29.41,0,0,1-13.27,1.17c-3.74-.5-3.7,5.39,0,5.88a33.35,33.35,0,0,0,14.84-1.38,3,3,0,0,0,.7-5.37,20.86,20.86,0,0,0-16.31-1.92c-3.63,1.06-2.08,6.74,1.56,5.67Z"/><path class="cls-5" d="M139.46,196.34l6.95-.14c1.15,0,2.31-.06,3.47-.06s1.67.44,1.6-.89l2.16-2.83a53.17,53.17,0,0,1-15,.07c-3.74-.49-3.7,5.39,0,5.87a58.31,58.31,0,0,0,16.53-.27,2.94,2.94,0,0,0,2.15-2.84c-.14-3-2.39-4.6-5.25-4.93-4.1-.49-8.53.06-12.65.14-3.78.07-3.79,5.95,0,5.88Z"/><path class="cls-5" d="M296,172.22c-4,4.8-4.73,11.88-.77,17a15.6,15.6,0,0,0,8.25,5.21c3,.84,6.86,1.71,9.86.64,2.36-.84,1.34-4.62-1.05-3.78-3.64,1.3-10-.74-12.7-3.19a9.43,9.43,0,0,1-.82-13.11c1.61-1.92-1.14-4.71-2.77-2.77Z"/><path class="cls-5" d="M254.91,172.3c2.6,13.09,2.34,26.47,3.8,39.7.27,2.48,4.19,2.51,3.92,0-1.5-13.59-1.27-27.3-3.94-40.74-.49-2.47-4.27-1.43-3.78,1Z"/><path class="cls-5" d="M195.81,178.5,195,241.11c0,2.52,3.89,2.53,3.92,0q.39-31.31.77-62.61c0-2.52-3.88-2.52-3.91,0Z"/><path class="cls-7" d="M145.15,162.27A90.41,90.41,0,0,1,163.27,143c2-1.56-.81-4.32-2.77-2.77a93.79,93.79,0,0,0-18.74,20c-1.44,2.08,2,4,3.39,2Z"/><path class="cls-7" d="M151.77,170.32A177.53,177.53,0,0,1,171.6,150.6c1.92-1.63-.86-4.39-2.77-2.77A178.47,178.47,0,0,0,149,167.55c-1.63,1.9,1.13,4.69,2.78,2.77Z"/><path class="cls-7" d="M210,148.55q6.51-5.2,12.48-11c1.81-1.76-1-4.53-2.77-2.77q-6,5.83-12.48,11c-2,1.58.82,4.34,2.77,2.77Z"/><path class="cls-5" d="M213,158.22a170.85,170.85,0,0,1,20-14.92"/><path class="cls-7" d="M214.36,159.6A178.68,178.68,0,0,1,233.93,145c2.11-1.36.15-4.75-2-3.38a184,184,0,0,0-20.36,15.22c-1.92,1.65.86,4.41,2.77,2.77Z"/><path class="cls-5" d="M68.06,230.37l7.17-1c1.23-.17,2.87-.11,3.84-1,1.14-1.07,1.13-3.34,1.39-4.76a19.63,19.63,0,0,0,.61-5.11c-.17-1.72-1.22-3-1.66-4.64-.34-1.28-.18-2.55-1.41-3.37s-2.4-.33-3.62-.08-2.5.53-3.75.79c-.74.15-2.44.89-3,.66l.47,3.58.11-.05-2.88-1.17,0,.07c.9,2.33,4.69,1.32,3.78-1l0-.08A2,2,0,0,0,66.19,212l-.11.06c-1.63.85-1,3,.47,3.58,1.8.69,5.88-.51,7.62-1.19,1,.22,1.41,0,1.21-.66,0-.56,0-.52,0,.13.48.65.76,2.48,1.1,3.32.83,2,.52,3.27.16,5.33-.09.5-.08,2.69-.1,2.72-.38.52-4.07.56-4.78.65L67,226.6c-2.49.33-1.43,4.11,1,3.77Z"/><path class="cls-5" d="M117.71,182.51c-.8,10.08-.94,21,7.32,28.2,1.89,1.65,4.68-1.11,2.77-2.77-7.44-6.48-6.88-16.43-6.17-25.43.2-2.52-3.72-2.51-3.92,0Z"/><path class="cls-7" d="M123.66,242.53c-2,4.17-1.7,6.3-1,10.64a11.51,11.51,0,0,0,8.48,9.12,11.87,11.87,0,0,0,9.46-2.11,14.87,14.87,0,0,0,5.42-8.17,11.75,11.75,0,0,0-.63-8.48,13.33,13.33,0,0,0-5.4-5c-2.8-1.57-6.29-2.61-9.18-1.2C128.31,238.52,125,239.82,123.66,242.53Z"/><path class="cls-7" d="M122,241.55c-2.92,6.57-2.26,15.2,3.61,20.05,6.23,5.16,15.29,2.85,19.76-3.46,4.62-6.52,4.28-15.28-2.42-20.11s-16.32-3.91-20.95,3.52c-1.34,2.14,2,4.11,3.38,2,3.24-5.19,10.23-5.82,15-2.55,5.58,3.83,5.24,11.12,1,15.91-3.74,4.26-10.39,5.12-14.36.73-3.36-3.71-3.59-9.72-1.66-14.09C126.37,241.24,123,239.24,122,241.55Z"/><path class="cls-7" d="M248.12,242.53c-2,4.17-1.7,6.3-1,10.64a11.5,11.5,0,0,0,8.47,9.12,11.89,11.89,0,0,0,9.47-2.11,14.87,14.87,0,0,0,5.42-8.17,11.7,11.7,0,0,0-.64-8.48,13.3,13.3,0,0,0-5.39-5c-2.8-1.57-6.29-2.61-9.19-1.2C252.76,238.52,249.41,239.82,248.12,242.53Z"/><path class="cls-7" d="M246.43,241.55c-2.93,6.57-2.26,15.2,3.6,20.05,6.24,5.16,15.29,2.85,19.76-3.46,4.62-6.52,4.29-15.28-2.41-20.11s-16.33-3.91-20.95,3.52c-1.34,2.14,2,4.11,3.38,2,3.24-5.19,10.23-5.82,15-2.55,5.57,3.83,5.24,11.12,1,15.91-3.74,4.26-10.38,5.12-14.36.73-3.35-3.71-3.59-9.72-1.65-14.09C250.83,241.24,247.45,239.24,246.43,241.55Z"/><path class="cls-7" d="M241,240.11a10.94,10.94,0,0,1,4.11-6.58c1-.75,0-2.45-1-1.69a12.94,12.94,0,0,0-5,7.75c-.26,1.23,1.62,1.76,1.89.52Z"/><path class="cls-7" d="M243.93,240.74l1.87-2.58c.74-1-1-2-1.69-1l-1.87,2.58c-.74,1,1,2,1.69,1Z"/><path class="cls-7" d="M265.79,267.2a28,28,0,0,0,9.87-7.19c.83-.94-.55-2.33-1.39-1.38a26.69,26.69,0,0,1-9.47,6.88c-1.15.5-.16,2.19,1,1.69Z"/><path class="cls-7" d="M267.52,271a58.3,58.3,0,0,0,8.18-5.56c1-.79-.41-2.17-1.38-1.38a57.33,57.33,0,0,1-7.78,5.25,1,1,0,0,0,1,1.69Z"/><path class="cls-7" d="M117.38,244.07a10.54,10.54,0,0,1,4.71-9.39c1-.69.06-2.39-1-1.69a12.56,12.56,0,0,0-5.68,11.08c0,1.26,2,1.26,2,0Z"/><path class="cls-7" d="M112.15,242.27a17.63,17.63,0,0,1,4.09-8.14c.84-.94-.55-2.33-1.38-1.38a19.51,19.51,0,0,0-4.6,9c-.27,1.23,1.62,1.76,1.89.52Z"/><path class="cls-7" d="M142.19,268.67a30.13,30.13,0,0,0,6.95-6.85c.75-1-.95-2-1.69-1a27.38,27.38,0,0,1-6.24,6.15c-1,.72-.05,2.42,1,1.69Z"/><path class="cls-7" d="M144.84,272a23,23,0,0,0,7.32-7.7,1,1,0,0,0-1.69-1,20.88,20.88,0,0,1-6.62,7c-1,.69-.07,2.39,1,1.69Z"/><path class="cls-5" d="M223.87,163.73a163.13,163.13,0,0,0,12.48-11"/><path class="cls-7" d="M225.25,165.12q6.51-5.22,12.48-11c1.81-1.76-1-4.53-2.77-2.77q-6,5.82-12.48,11c-2,1.58.82,4.33,2.77,2.77Z"/></g></svg>