<svg xmlns="http://www.w3.org/2000/svg" viewBox="0 0 381.28 380.33"><defs><style>.cls-1{fill:#4386c6;}.cls-2{fill:#8eb6e0;}.cls-3{fill:#ed7d82;}.cls-4{fill:#f7c402;}.cls-5{fill:#e1262f;}</style></defs><title>Automata 1 prueba 4 nueva</title><g id="gráficos"><rect class="cls-1" x="4.14" y="3.67" width="373" height="373" rx="23.02" ry="23.02"/><path d="M354.12,375.17H33.62c-7.27,0-14.13.11-20.23-5-7.09-5.91-7.75-13.81-7.75-22.11V63.81c0-12.34-.38-24.75,0-37.09C6.06,13,17,5.17,29.81,5.17h278.9c14.84,0,29.68-.13,44.51,0,12.75.11,22.3,9.5,22.42,22.3.05,4.81,0,9.62,0,14.43V350.79c0,12.86-7.62,24-21.52,24.38-1.92.05-1.93,3.05,0,3,14.41-.44,24.44-11.7,24.52-25.81,0-5.5,0-11,0-16.51V71.74c0-14.81.15-29.62,0-44.43A24.94,24.94,0,0,0,354,2.17c-4-.09-8,0-12.05,0H29.62C18.24,2.17,7.78,7.5,3.92,18.89,2.25,23.81,2.64,29.14,2.64,34.26v314.1c0,7.22.37,14,5,20.15,5.85,7.69,14.43,9.66,23.47,9.66h323A1.5,1.5,0,0,0,354.12,375.17Z"/><rect class="cls-2" x="27.63" y="27.15" width="326.03" height="326.03" rx="23.02" ry="23.02"/><path d="M330.64,351.68H74.24c-12,0-30.23,2.95-39.27-6.77-8.71-9.38-5.84-27.11-5.84-38.93V152.58c0-34.08-1.06-68.34,0-102.41.41-13.42,11-21.52,23.74-21.52H293.44c12.23,0,24.5-.3,36.73,0,12.51.31,21.85,9.62,22,22.19,0,4.16,0,8.32,0,12.48V328.13c0,12.66-8.24,23.15-21.52,23.55-1.93.06-1.94,3.06,0,3,14-.42,24.37-11.28,24.52-25.19,0-4.31,0-8.62,0-12.93v-227c0-12.93.24-25.89,0-38.82-.27-13.81-10.58-24.68-24.53-25-3-.08-6,0-8.95,0h-269c-9.9,0-19.12,4.13-23.84,13.3-2.72,5.29-2.71,10.74-2.71,16.43V325.53c0,6.4.33,12.51,4,18.12,5.26,8,13.78,11,22.9,11H330.64A1.5,1.5,0,0,0,330.64,351.68Z"/><path class="cls-3" d="M90.74,284.93a5.58,5.58,0,0,0,5.14,5.14,235.25,235.25,0,0,0,38.45-1.16L91.9,246.48A235.26,235.26,0,0,0,90.74,284.93Z"/><path d="M89.29,285.32c1.27,6.41,6.94,6.36,12.17,6.49a257.74,257.74,0,0,0,32.87-1.4,1.53,1.53,0,0,0,1.06-2.57L93,245.42a1.52,1.52,0,0,0-2.56,1.06c-1.29,12.69-2.1,25.69-1.16,38.45.14,1.91,3.14,1.92,3,0-.94-12.76-.13-25.76,1.16-38.45l-2.56,1.06L133.27,290l1.06-2.56a274,274,0,0,1-27.77,1.47c-4.36,0-13.23,1.39-14.37-4.35C91.81,282.63,88.92,283.44,89.29,285.32Z"/><path class="cls-4" d="M231.94,93.44c-27.57,4.52-66.3,15.79-94.27,43.76s-39.23,66.69-43.75,94.26c-.69,4.14-1.22,8.12-1.67,11.95l45.15,45.15c3.82-.45,7.81-1,11.95-1.67,27.57-4.52,66.31-15.78,94.27-43.75s39.22-66.69,43.75-94.27c.71-4.34,1.27-8.51,1.73-12.52L244.45,91.71C240.45,92.17,236.28,92.73,231.94,93.44Zm32.31,23.12a1.74,1.74,0,0,1,0,2.46l-25.56,25.56,6,6a1.74,1.74,0,1,1-2.46,2.46l-6.05-6L214,169.22l6,6.05a1.72,1.72,0,0,1,0,2.46,1.74,1.74,0,0,1-2.46,0l-6-6-21.16,21.16,6,6a1.72,1.72,0,0,1,0,2.46,1.74,1.74,0,0,1-2.46,0l-6-6L168.5,214.76l6,6.05a1.72,1.72,0,0,1,0,2.46,1.74,1.74,0,0,1-2.46,0l-6-6L144.2,239.07l6,6a1.74,1.74,0,0,1-2.46,2.47l-6-6.05-19.22,19.22a1.74,1.74,0,1,1-2.46-2.46l19.22-19.22-6-6a1.74,1.74,0,0,1,0-2.46,1.72,1.72,0,0,1,2.46,0l6,6,21.84-21.84-6-6a1.74,1.74,0,1,1,2.47-2.46l6,6,19.45-19.46-6-6a1.74,1.74,0,1,1,2.45-2.46l6,6,21.16-21.16-6-6a1.74,1.74,0,1,1,2.47-2.46l6,6,22.18-22.19-6-6a1.74,1.74,0,1,1,2.46-2.46l6,6,25.57-25.56A1.72,1.72,0,0,1,264.25,116.56Z"/><path d="M231.54,92c-23.71,3.94-47.16,11.2-67.95,23.45-23.26,13.7-41.27,33.74-53.19,57.9A191.81,191.81,0,0,0,97.46,208q-2.23,8.22-3.83,16.59c-1.09,5.66-3.08,12.27-2.78,18,.16,3.23,4.42,6,6.62,8.16l16.29,16.3,16.55,16.54c2.52,2.53,5,6.63,8.74,6.27a199.45,199.45,0,0,0,69.1-19.79,136.34,136.34,0,0,0,57.61-53.52c12.14-20.87,19.4-44.44,23.2-68.2.51-3.21,2.73-10.3,1.11-13.15-.64-1.13-2.19-2.19-3.09-3.09l-14.93-14.93L254.86,100c-2.7-2.71-5.91-7.39-9.29-9.29-2.92-1.66-10.77.77-14,1.29-1.9.3-1.1,3.19.79,2.89s3.66-.58,5.49-.84c-.59.09,5.84-1.2,5.59-1.27.25.07.45.55.67.68,1.45.83,2.77,2.77,4,4l14.51,14.52,16.14,16.14,6,6c.78.78,2.71,2.1,3.14,3.14.15.37-1,5.35-1.05,5.8q-.64,4.52-1.44,9-1.35,7.54-3.2,15a194,194,0,0,1-11.54,33.68c-11,24.21-27.8,44.92-50.37,59.2-19.81,12.54-42.42,20.21-65.36,24.56-2.26.43-4.52.82-6.78,1.19-1.45.23-2.9.45-4.36.66.63-.09-5.59,1.15-5.27,1.23-.78-.2-2-2-2.58-2.58l-13-13L95,244c-1.8-1.8-1.49-1.26-.79-3.91,1.5-5.72,1.77-12,3-17.8a212.46,212.46,0,0,1,9.13-31.88c10.55-28,28.17-52.65,53.49-69.06,21.81-14.15,47.08-22.22,72.58-26.46C234.23,94.57,233.43,91.68,231.54,92Z"/><path d="M262.8,117c.76,1.82-2.49,3.89-3.74,5.13l-8.65,8.66-12.78,12.78a1.53,1.53,0,0,0,0,2.12c.75.75,6.1,5.78,5.77,6.11s-5.36-5-6.11-5.77a1.53,1.53,0,0,0-2.13,0L213,168.16a1.52,1.52,0,0,0,0,2.12c.75.75,6.1,5.78,5.77,6.12s-5.36-5-6.11-5.78a1.53,1.53,0,0,0-2.12,0l-21.16,21.17a1.53,1.53,0,0,0,0,2.12c.75.75,6.1,5.78,5.77,6.11s-5.36-5-6.11-5.77a1.52,1.52,0,0,0-2.12,0L167.44,213.7a1.54,1.54,0,0,0,0,2.13c.75.75,6.1,5.78,5.77,6.11s-5.36-5-6.11-5.77a1.51,1.51,0,0,0-2.12,0L143.14,238a1.51,1.51,0,0,0,0,2.12c.75.75,6.1,5.78,5.77,6.11s-5.36-5-6.11-5.77a1.53,1.53,0,0,0-2.12,0c-2,2-19,19.36-19.36,19s17-17.38,19-19.36a1.52,1.52,0,0,0,0-2.12c-.75-.74-6.09-5.78-5.77-6.1s5.36,5,6.11,5.76a1.51,1.51,0,0,0,2.12,0l21.84-21.84a1.52,1.52,0,0,0,0-2.12c-.75-.75-6.09-5.79-5.76-6.11s5.35,5,6.11,5.77a1.53,1.53,0,0,0,2.12,0l19.45-19.46a1.52,1.52,0,0,0,0-2.12c-.75-.75-6.09-5.77-5.76-6.11s5.35,5,6.1,5.77a1.53,1.53,0,0,0,2.12,0l21.16-21.16a1.51,1.51,0,0,0,0-2.12c-.75-.75-6.09-5.79-5.76-6.11s5.36,5,6.11,5.77a1.53,1.53,0,0,0,2.12,0l22.18-22.19a1.53,1.53,0,0,0,0-2.12c-.75-.75-6.09-5.78-5.77-6.11s5.36,5,6.11,5.77a1.53,1.53,0,0,0,2.12,0l12.78-12.78,8.66-8.66c1.26-1.25,3.3-4.49,5.12-3.74s2.56-2.16.8-2.89c-2.69-1.11-4,.47-5.74,2.22L250,126.2l-14.87,14.86h2.12c-2-2-7.15-9.5-10.62-6s4,8.6,6,10.62v-2.12l-22.18,22.19h2.12c-2-2-7.16-9.51-10.63-6s4,8.6,6,10.62v-2.12L186.9,189.33H189c-2-2-7.15-9.5-10.61-6s4,8.6,6,10.62v-2.12L165,211.25h2.12c-2-2-7.16-9.51-10.63-6s4,8.6,6,10.62v-2.12l-21.84,21.84h2.12c-2-2-7.15-9.5-10.62-6s4,8.61,6,10.62V238L125.83,250.4c-1.93,1.93-10.37,7.88-6.84,11.41s9.16-4.56,11.09-6.49l12.72-12.73h-2.12c2,2,7.15,9.51,10.62,6s-4-8.6-6-10.62v2.12l21.84-21.84H165c2,2,7.16,9.51,10.63,6s-4-8.61-6.05-10.63v2.13L189,196.37H186.9c2,2,7.15,9.5,10.62,6s-4-8.61-6-10.62v2.12l21.16-21.16h-2.12c2,2,7.15,9.5,10.62,6s-4-8.61-6-10.63v2.12l22.19-22.18h-2.13c2,2,7.17,9.51,10.63,6s-4-8.61-6-10.62v2.12l14.86-14.86,8.67-8.67c1.81-1.81,3.58-3.16,2.42-6C265,114.4,262.06,115.17,262.8,117Z"/><path class="cls-3" d="M285.4,90.27a233.24,233.24,0,0,0-37.88,1.1l41.92,41.92a234.61,234.61,0,0,0,1.1-37.88A5.56,5.56,0,0,0,285.4,90.27Z"/><path d="M285.4,88.77c-12.58-.9-25.36-.15-37.88,1.1a1.52,1.52,0,0,0-1.06,2.56l41.92,41.92a1.52,1.52,0,0,0,2.56-1.06,260,260,0,0,0,1.34-32.54c-.14-5.18-.19-10.68-6.48-11.93-1.89-.37-2.7,2.52-.8,2.89,5.71,1.13,4.34,9.84,4.35,14.18a272.66,272.66,0,0,1-1.41,27.4l2.56-1.06L248.58,90.31l-1.06,2.56c12.52-1.25,25.3-2,37.88-1.1C287.32,91.9,287.32,88.9,285.4,88.77Z"/><path class="cls-5" d="M264.25,116.56a1.72,1.72,0,0,0-2.45,0l-25.57,25.56-6-6a1.74,1.74,0,1,0-2.46,2.46l6,6-22.18,22.19-6-6a1.74,1.74,0,1,0-2.47,2.46l6,6L188,190.39l-6-6a1.74,1.74,0,1,0-2.45,2.46l6,6-19.45,19.46-6-6a1.74,1.74,0,1,0-2.47,2.46l6,6-21.84,21.84-6-6a1.72,1.72,0,0,0-2.46,0,1.74,1.74,0,0,0,0,2.46l6,6-19.22,19.22a1.74,1.74,0,1,0,2.46,2.46l19.22-19.22,6,6.05a1.74,1.74,0,0,0,2.46-2.47l-6-6L166,217.23l6,6a1.74,1.74,0,0,0,2.46,0,1.72,1.72,0,0,0,0-2.46l-6-6.05L188,195.31l6,6a1.74,1.74,0,0,0,2.46,0,1.72,1.72,0,0,0,0-2.46l-6-6,21.16-21.16,6,6a1.74,1.74,0,0,0,2.46,0,1.72,1.72,0,0,0,0-2.46l-6-6.05L236.22,147l6.05,6a1.74,1.74,0,1,0,2.46-2.46l-6-6L264.25,119A1.74,1.74,0,0,0,264.25,116.56Z"/></g></svg>