<svg xmlns="http://www.w3.org/2000/svg" viewBox="0 0 381.28 380.33"><defs><style>.cls-1{fill:#7dc4ca;}.cls-2{fill:#b1dcdf;}.cls-3{fill:#fff;}.cls-4{fill:#e66869;}.cls-5{fill:#8eb6e0;}.cls-6{fill:#f7c402;}.cls-7{fill:#5a6e7f;}</style></defs><title>Automata 1 prueba 4 nueva</title><g id="gráficos"><rect class="cls-1" x="4.14" y="3.67" width="373" height="373" rx="23.02" ry="23.02"/><path d="M354.12,375.17H33.62c-7.27,0-14.13.11-20.23-5-7.09-5.91-7.75-13.81-7.75-22.11V63.81c0-12.34-.38-24.75,0-37.09C6.06,13,17,5.17,29.81,5.17h278.9c14.84,0,29.68-.13,44.51,0,12.75.11,22.3,9.5,22.42,22.3.05,4.81,0,9.62,0,14.43V350.79c0,12.86-7.62,24-21.52,24.38-1.92.05-1.93,3.05,0,3,14.41-.44,24.44-11.7,24.52-25.81,0-5.5,0-11,0-16.51V71.74c0-14.81.15-29.62,0-44.43A24.94,24.94,0,0,0,354,2.17c-4-.09-8,0-12.05,0H29.62C18.24,2.17,7.78,7.5,3.92,18.89,2.25,23.81,2.64,29.14,2.64,34.26v314.1c0,7.22.37,14,5,20.15,5.85,7.69,14.43,9.66,23.47,9.66h323A1.5,1.5,0,0,0,354.12,375.17Z"/><rect class="cls-2" x="27.63" y="27.15" width="326.03" height="326.03" rx="23.02" ry="23.02"/><path d="M330.64,351.68H74.24c-12,0-30.23,2.95-39.27-6.77-8.71-9.38-5.84-27.11-5.84-38.93V152.58c0-34.08-1.06-68.34,0-102.41.41-13.42,11-21.52,23.74-21.52H293.44c12.23,0,24.5-.3,36.73,0,12.51.31,21.85,9.62,22,22.19,0,4.16,0,8.32,0,12.48V328.13c0,12.66-8.24,23.15-21.52,23.55-1.93.06-1.94,3.06,0,3,14-.42,24.37-11.28,24.52-25.19,0-4.31,0-8.62,0-12.93v-227c0-12.93.24-25.89,0-38.82-.27-13.81-10.58-24.68-24.53-25-3-.08-6,0-8.95,0h-269c-9.9,0-19.12,4.13-23.84,13.3-2.72,5.29-2.71,10.74-2.71,16.43V325.53c0,6.4.33,12.51,4,18.12,5.26,8,13.78,11,22.9,11H330.64A1.5,1.5,0,0,0,330.64,351.68Z"/><path class="cls-3" d="M150.27,214.94a19.49,19.49,0,0,0-3.88.39,24.44,24.44,0,0,0-22.82-19.87c-.46,0-.9-.13-1.37-.13-13.57,0-24.61,7.21-24.61,20.79,0,.85,0-1.28.13-1.28h-2c-8.78,0-15.93,4.68-15.93,13.46s7.15,13.46,15.93,13.46h56.15c4.48,0,8.78,4.4,11.68,1.18C167.63,239.2,170,237,170,231.5,170,220.63,161.15,214.94,150.27,214.94Z"/><path d="M150.27,213.44a34.32,34.32,0,0,0-4.28.45l1.85,1.05c-3-13.88-15.77-22.43-29.76-20.88-11.56,1.29-22.68,9.49-22,22.22a1.5,1.5,0,0,0,3,0c0-.35,0-.7.08-1a1.53,1.53,0,0,0-1.45-1.9c-6,0-12.36.93-16.39,5.89a14.88,14.88,0,0,0-.11,18c6.73,8.5,21.16,6,30.68,6h24.22c4.9,0,9.88-.25,14.78,0,6,.3,9.69,4.41,14.75-.24,5.65-5.19,7.64-12.28,4.09-19.45s-11.82-10-19.47-10.13c-1.93,0-1.93,3,0,3,6.93.16,14.5,2.53,17.22,9.55,2.56,6.58-1.33,18.69-10,15.67-6.74-2.35-14.27-1.4-21.33-1.4-13.31,0-26.66.31-40,0-7.35-.17-14.9-3.53-14.9-12,0-9.31,8.72-12,16.46-12l-1.45-1.9a16.14,16.14,0,0,0-.18,1.84h3c-.63-11.64,9.9-18.54,20.34-19.34A23.72,23.72,0,0,1,145,215.73a1.53,1.53,0,0,0,1.84,1.05l3.48-.34C152.19,216.35,152.21,213.35,150.27,213.44Z"/><path class="cls-4" d="M218.6,250.73s70.76-50.39,57.77-120.42c-13.46-72.61-88.05-70.55-88.05-70.55s-74.6-2.94-88.06,69.67c-13,70,57.77,121.3,57.77,121.3Z"/><path d="M219.36,252c11.61-8.3,21.93-18.95,30.83-30,17.14-21.35,29.53-47.43,29.27-75.28-.25-26.8-11.4-53.56-33.15-69.82-14.23-10.65-31.78-16.45-49.37-18.2-24.43-2.43-50.87,4.53-69.92,20.13-21.45,17.58-31.34,46.41-29.67,73.64s14.78,52.13,32,72.7a182.85,182.85,0,0,0,20.36,20.73c2.31,2,5.38,5.59,8.45,6.33,2.17.53,5.13,0,7.35,0H218.6a1.5,1.5,0,0,0,0-3H168.45c-3.07,0-6.18-.15-9.25,0-1.67.09,0,.68-1.31-.46-4.45-4-9.15-7.61-13.45-11.79-17.37-16.86-32.22-37.36-39.56-60.63-8.62-27.31-5.5-59.37,12-82.67,16.73-22.27,45.69-33,73-32.42a100.51,100.51,0,0,1,39.38,9C251.77,80.62,267.39,100,273.46,124c12.14,48-16.44,94.8-53.27,123.67-.77.61-1.55,1.21-2.34,1.78C216.29,250.55,217.79,253.16,219.36,252Z"/><path class="cls-5" d="M188.32,257.77c93.1-109.92,0-196.25,0-196.25S95.21,147.85,188.32,257.77Z"/><path d="M189.38,258.84c26.9-32,45.83-71.79,41.05-114.48-2.92-26.07-14-50.8-30-71.42a104.54,104.54,0,0,0-11-12.48,1.53,1.53,0,0,0-2.12,0c-11,10.28-19.91,23.74-26.72,37.07-14.72,28.81-19.09,61.75-10.8,93.17,6.71,25.43,20.72,48.14,37.52,68.14,1.24,1.48,3.35-.66,2.12-2.13-26.88-32-45.46-71.84-39.93-114.41,3.25-25,14.25-48.78,29.85-68.44a100.86,100.86,0,0,1,10.08-11.28h-2.12c10.34,9.62,18.64,22.08,25.2,34.47,14.79,27.9,19.67,60,12,90.86-6.36,25.7-20.35,48.68-37.25,68.8C186,258.18,188.13,260.32,189.38,258.84Z"/><path class="cls-3" d="M311.8,143.15a19.49,19.49,0,0,0-3.88.39,24.45,24.45,0,0,0-22.82-19.87c-.46,0-.9-.13-1.37-.13-13.57,0-24.62,7.21-24.62,20.79,0,.85.05-1.28.14-1.28h-2c-8.78,0-15.93,4.68-15.93,13.46S248.44,170,257.22,170h56.15c4.47,0,8.77,4.4,11.67,1.18,4.12-3.74,6.48-5.91,6.48-11.44C331.52,148.84,322.67,143.15,311.8,143.15Z"/><path d="M311.8,141.65a34.12,34.12,0,0,0-4.28.45l1.85,1.05c-3-13.88-15.78-22.43-29.76-20.88-11.56,1.29-22.69,9.49-22,22.22a1.5,1.5,0,0,0,3,0c0-.35,0-.7.07-1a1.52,1.52,0,0,0-1.44-1.9c-6,0-12.37.93-16.39,5.89a14.88,14.88,0,0,0-.12,18c6.74,8.5,21.17,6,30.69,6h24.22c4.9,0,9.88-.24,14.77,0,6,.3,9.7,4.41,14.76-.24,5.65-5.19,7.63-12.28,4.08-19.45-3.62-7.32-11.81-10-19.46-10.13-1.93,0-1.93,3,0,3,6.92.16,14.5,2.53,17.22,9.55,2.56,6.58-1.33,18.69-10,15.67-6.74-2.35-14.27-1.4-21.32-1.4-13.31,0-26.67.31-40,0-7.36-.17-14.9-3.53-14.9-12,0-9.31,8.72-12,16.46-12l-1.45-1.9a14.15,14.15,0,0,0-.18,1.84h3C260,132.85,270.51,126,281,125.15a23.71,23.71,0,0,1,25.51,18.79,1.54,1.54,0,0,0,1.85,1.05l3.48-.34C313.72,144.56,313.73,141.56,311.8,141.65Z"/><path class="cls-6" d="M217.68,320.59H158.81a.78.78,0,0,1-.78-.78V284.7h60.43v35.11A.78.78,0,0,1,217.68,320.59Z"/><path d="M217.68,319.09H166.75c-2.18,0-4.9-.45-7,0-1.17.25-.56-.45-.18.68a7.92,7.92,0,0,1,0-2.12V284.7l-1.5,1.5h60.43l-1.5-1.5v29.43c0,1.31-.11,2.69,0,4s-.42,1.32.32,1c-1.76.73-1,3.64.8,2.9,2.08-.86,1.88-2.45,1.88-4.39V284.7a1.52,1.52,0,0,0-1.5-1.5H158a1.52,1.52,0,0,0-1.5,1.5v32.41c0,1.6-.37,3.62,1.15,4.62,1,.69,2.9.36,4.06.36h55.94A1.5,1.5,0,0,0,217.68,319.09Z"/><rect class="cls-7" x="158.03" y="257.77" width="4.83" height="26.92"/><path d="M162.86,283.2H158l1.5,1.5V257.77l-1.5,1.5h4.83l-1.5-1.5V284.7a1.5,1.5,0,0,0,3,0V257.77a1.52,1.52,0,0,0-1.5-1.5H158a1.52,1.52,0,0,0-1.5,1.5V284.7a1.52,1.52,0,0,0,1.5,1.5h4.83A1.5,1.5,0,0,0,162.86,283.2Z"/><rect class="cls-7" x="213.64" y="257.77" width="4.83" height="26.92"/><path d="M218.46,283.2h-4.82l1.5,1.5V257.77l-1.5,1.5h4.82l-1.5-1.5V284.7a1.5,1.5,0,0,0,3,0V257.77a1.52,1.52,0,0,0-1.5-1.5h-4.82a1.52,1.52,0,0,0-1.5,1.5V284.7a1.52,1.52,0,0,0,1.5,1.5h4.82A1.5,1.5,0,0,0,218.46,283.2Z"/><rect class="cls-7" x="185.9" y="257.77" width="4.83" height="26.92"/><path d="M190.73,283.2H185.9l1.5,1.5V257.77l-1.5,1.5h4.83l-1.5-1.5V284.7a1.5,1.5,0,0,0,3,0V257.77a1.52,1.52,0,0,0-1.5-1.5H185.9a1.52,1.52,0,0,0-1.5,1.5V284.7a1.52,1.52,0,0,0,1.5,1.5h4.83A1.5,1.5,0,0,0,190.73,283.2Z"/></g></svg>