<svg xmlns="http://www.w3.org/2000/svg" xmlns:xlink="http://www.w3.org/1999/xlink" viewBox="0 0 381.28 380.33"><defs><style>.cls-1{mask:url(#mask);}.cls-2,.cls-4{mix-blend-mode:multiply;}.cls-2{fill:url(#New_Gradient_Swatch_9);}.cls-3{mask:url(#mask-2);filter:url(#luminosity-noclip-3);}.cls-4{fill:url(#New_Gradient_Swatch_9-2);}.cls-5{fill:#e66869;}.cls-6{fill:#f0a4a5;}.cls-7{mask:url(#mask-3);}.cls-8{fill:url(#New_Gradient_Swatch_19);}.cls-9{fill:#8eb6e0;}.cls-10{fill:#4386c6;}.cls-11{mask:url(#mask-4);}.cls-12{opacity:0.05;}.cls-13{fill:#7dc4ca;}.cls-14{fill:#f7c402;}.cls-15{fill:url(#radial-gradient);}.cls-16{fill:#727272;}.cls-17{fill:#f1f1f1;}.cls-18{fill:#e5e5e5;}.cls-19{filter:url(#luminosity-noclip-2);}.cls-20{filter:url(#luminosity-noclip);}</style><filter id="luminosity-noclip" x="105.48" y="-7446.17" width="43.87" height="32766" filterUnits="userSpaceOnUse" color-interpolation-filters="sRGB"><feFlood flood-color="#fff" result="bg"/><feBlend in="SourceGraphic" in2="bg"/></filter><mask id="mask" x="105.48" y="-7446.17" width="43.87" height="32766" maskUnits="userSpaceOnUse"><g class="cls-20"/></mask><linearGradient id="New_Gradient_Swatch_9" x1="-1947.1" y1="-245.54" x2="-1947.1" y2="-289.4" gradientTransform="matrix(-0.97, -0.24, -0.24, 0.97, -1827.86, -68.84)" gradientUnits="userSpaceOnUse"><stop offset="0" stop-color="#4d4d4d"/><stop offset="1" stop-color="#1a1a1a"/></linearGradient><filter id="luminosity-noclip-2" x="123.04" y="-7446.17" width="8.76" height="32766" filterUnits="userSpaceOnUse" color-interpolation-filters="sRGB"><feFlood flood-color="#fff" result="bg"/><feBlend in="SourceGraphic" in2="bg"/></filter><mask id="mask-2" x="123.04" y="-7446.17" width="8.76" height="32766" maskUnits="userSpaceOnUse"><g class="cls-19"/></mask><linearGradient id="New_Gradient_Swatch_9-2" x1="-1648.03" y1="-1521.58" x2="-1648.03" y2="-1530.34" gradientTransform="matrix(-0.17, -0.99, -0.99, 0.17, -1650.59, -1241.55)" xlink:href="#New_Gradient_Swatch_9"/><mask id="mask-3" x="104.01" y="107.45" width="46.82" height="46.7" maskUnits="userSpaceOnUse"><g class="cls-1"><path class="cls-2" d="M131.45,114.11a17.11,17.11,0,1,1-20.66,12.59,17.11,17.11,0,0,1,20.66-12.59Zm1.14-4.68a21.93,21.93,0,1,0,16.14,26.48,22,22,0,0,0-16.14-26.48Z"/></g></mask><linearGradient id="New_Gradient_Swatch_19" x1="-243.29" y1="-395" x2="-243.29" y2="-438.86" gradientTransform="translate(192.56 609.05) rotate(22.51)" gradientUnits="userSpaceOnUse"><stop offset="0" stop-color="#f2f2f2"/><stop offset="1"/></linearGradient><filter id="luminosity-noclip-3" x="121.55" y="124.87" width="11.72" height="11.74" filterUnits="userSpaceOnUse" color-interpolation-filters="sRGB"><feFlood flood-color="#fff" result="bg"/><feBlend in="SourceGraphic" in2="bg"/></filter><mask id="mask-4" x="121.55" y="124.87" width="11.72" height="11.74" maskUnits="userSpaceOnUse"><g class="cls-3"><path class="cls-4" d="M131.08,130.12a3.72,3.72,0,1,1-4.28-3.05,3.72,3.72,0,0,1,4.28,3.05Zm.66-.11a4.38,4.38,0,1,0-3.6,5.05,4.39,4.39,0,0,0,3.6-5.05Z"/></g></mask><radialGradient id="radial-gradient" cx="-1789.92" cy="-2223.1" r="4.94" gradientTransform="matrix(0.1, -1, -1, -0.1, -1887.54, -1812.66)" gradientUnits="userSpaceOnUse"><stop offset="0" stop-color="#f5f5f5"/><stop offset="0.37" stop-color="#e8e8e8"/><stop offset="0.64" stop-color="#d0d0d0"/><stop offset="0.72" stop-color="#bfbfbf"/><stop offset="0.88" stop-color="#9f9f9f"/><stop offset="1" stop-color="#666"/></radialGradient></defs><title>Automata 2 prueba</title><g id="gráficos"><rect class="cls-5" x="4.14" y="3.67" width="373" height="373" rx="23.02" ry="23.02"/><path d="M354.12,375.17H33.62c-7.27,0-14.13.11-20.23-5-7.09-5.91-7.75-13.81-7.75-22.12V63.81c0-12.34-.38-24.75,0-37.09C6.06,13,17,5.17,29.81,5.17h278.9c14.84,0,29.68-.14,44.51,0,12.75.11,22.3,9.5,22.42,22.3,0,4.81,0,9.62,0,14.43V350.79c0,12.86-7.62,24-21.52,24.38-1.93.05-1.93,3.05,0,3,14.41-.44,24.44-11.7,24.52-25.81,0-5.5,0-11,0-16.51V71.73c0-14.8.15-29.62,0-44.42A24.94,24.94,0,0,0,354,2.17c-4-.09-8,0-12.06,0H29.62c-11.38,0-21.84,5.32-25.7,16.72C2.25,23.8,2.64,29.14,2.64,34.26v314.1c0,7.21.37,14,5,20.15,5.85,7.69,14.43,9.66,23.46,9.66h323A1.5,1.5,0,0,0,354.12,375.17Z"/><rect class="cls-6" x="27.63" y="27.15" width="326.03" height="326.03" rx="23.02" ry="23.02"/><path d="M330.64,351.68H74.24c-12,0-30.23,2.95-39.27-6.77-8.71-9.38-5.84-27.12-5.84-38.94V152.58c0-34.08-1.06-68.34,0-102.41.41-13.42,11-21.52,23.74-21.52H293.44c12.23,0,24.5-.3,36.73,0,12.51.31,21.85,9.62,22,22.19.05,4.16,0,8.32,0,12.48V328.13c0,12.66-8.23,23.15-21.51,23.55-1.93.06-1.94,3.06,0,3,14-.42,24.37-11.28,24.51-25.19.05-4.31,0-8.63,0-12.94v-227c0-12.94.25-25.89,0-38.82-.26-13.81-10.57-24.68-24.52-25-3-.08-6,0-8.95,0h-269c-9.9,0-19.11,4.13-23.83,13.3-2.72,5.29-2.71,10.73-2.71,16.43V325.53c0,6.4.33,12.5,4,18.12,5.26,8,13.78,11,22.9,11H330.64A1.5,1.5,0,0,0,330.64,351.68Z"/><g class="cls-7"><path class="cls-8" d="M131.45,114.11a17.11,17.11,0,1,1-20.66,12.59,17.11,17.11,0,0,1,20.66-12.59Zm1.14-4.68a21.93,21.93,0,1,0,16.14,26.48,22,22,0,0,0-16.14-26.48Z"/><path d="M131.05,115.56c8.18,2.33,13.6,10.28,11.55,18.82a15.62,15.62,0,1,1-30.37-7.28c2.12-8.49,10.42-13.23,18.82-11.54,1.89.37,2.7-2.52.8-2.9-9.93-2-20,3.49-22.51,13.64a18.61,18.61,0,1,0,36.15,8.87c2.5-10.12-3.91-19.72-13.64-22.51A1.51,1.51,0,0,0,131.05,115.56Z"/><path d="M133,108c-12.45-2.61-25.25,4.5-28.33,17.19a23.43,23.43,0,1,0,45.52,11.14c3.07-12.65-4.89-24.93-17.19-28.33a1.51,1.51,0,0,0-.8,2.9c10.73,3,17.74,13.55,15.09,24.64a20.43,20.43,0,0,1-39.87-8.88c2.33-11.4,13.65-18.1,24.78-15.76C134.08,111.27,134.88,108.38,133,108Z"/></g><path class="cls-9" d="M43.84,112.19c7,6,6.48,10.17-1.9,13.88-2.11.94-2.16,2.21-.11,3.29,8.06,4.26,8.33,8.37.86,13.55-1.9,1.31-1.71,2.54.52,3.18,8.72,2.52,9.76,6.43,3.43,12.89-1.63,1.65-1.19,2.81,1.11,3,9,.76,10.77,4.38,5.78,11.9-1.28,1.93-.64,3,1.66,2.74,9-1,11.39,2.23,7.93,10.59-.89,2.14-.06,3,2.15,2.37,8.65-2.68,11.65,0,9.89,8.95-.46,2.27.54,3,2.59,1.92,8-4.26,11.55-2.14,11.64,7,0,2.32,1.17,2.86,3,1.41,7.14-5.74,11.14-4.32,13.21,4.67.51,2.26,1.79,2.57,3.29.81,5.95-7,10.16-6.48,13.88,1.9.94,2.11,2.21,2.16,3.29.11,4.26-8.07,8.37-8.33,13.54-.86,1.32,1.9,2.55,1.7,3.19-.53,2.52-8.72,6.43-9.76,12.89-3.42,1.66,1.62,2.81,1.19,3-1.11.76-9,4.38-10.78,11.9-5.79,1.93,1.29,3,.64,2.73-1.66-1-9,2.23-11.39,10.59-7.92,2.14.88,3.05.06,2.37-2.16-2.67-8.65.05-11.64,9-9.88,2.27.46,3-.55,1.92-2.6-4.26-8-2.14-11.55,7-11.64,2.32,0,2.86-1.17,1.41-3-5.74-7.14-4.32-11.14,4.67-13.21,2.26-.51,2.57-1.8.8-3.29-7-6-6.47-10.17,1.9-13.88,2.12-.94,2.17-2.21.12-3.29-8.06-4.26-8.34-8.37-.87-13.55,1.91-1.31,1.71-2.54-.52-3.19-8.72-2.51-9.76-6.43-3.42-12.88,1.62-1.66,1.19-2.81-1.12-3-9-.76-10.77-4.37-5.77-11.91,1.27-1.93.63-3-1.67-2.72-9,1-11.39-2.24-7.93-10.6.89-2.14.06-3-2.15-2.37-8.64,2.68-11.64-.05-9.88-9,.45-2.27-.55-3-2.59-1.92-8,4.26-11.56,2.14-11.65-7,0-2.32-1.17-2.86-3-1.41C155.32,58.38,151.33,57,149.26,48c-.52-2.26-1.8-2.57-3.3-.81-6,7.05-10.16,6.48-13.87-1.89-.94-2.12-2.22-2.17-3.3-.12-4.26,8.07-8.37,8.33-13.54.86-1.32-1.9-2.55-1.7-3.19.52-2.51,8.72-6.43,9.76-12.89,3.43-1.65-1.62-2.81-1.2-3,1.11-.75,9-4.37,10.78-11.9,5.78-1.93-1.28-3-.64-2.73,1.66,1,9-2.23,11.39-10.59,7.93-2.14-.89-3,0-2.37,2.16,2.67,8.65,0,11.64-9,9.88-2.27-.45-3,.55-1.92,2.6,4.27,8,2.14,11.55-7,11.63-2.32,0-2.86,1.18-1.41,3,5.74,7.14,4.31,11.14-4.68,13.21C42.39,109.41,42.07,110.7,43.84,112.19Zm69.11,15a14.89,14.89,0,1,1,11,18A14.88,14.88,0,0,1,113,127.22Z"/><path d="M42.78,113.25c1.86,1.66,4.54,3.77,4.16,6.49-.42,3-3.53,3.66-5.75,5-1.7,1.06-3.09,2.48-1.8,4.51.87,1.37,3,2.05,4.24,3,3.24,2.35,3.29,4.87.58,7.59-1.53,1.53-5.07,2.89-4.1,5.68,1.14,3.32,7.08,2.05,8.69,5.24,2.12,4.18-4.57,6.14-4.61,9.75,0,2,1.51,2.5,3.16,2.93,1.84.47,3.92.19,5.6,1.27,2.75,1.76,1.71,4.19.38,6.63-.91,1.67-2.85,3.83-1.38,5.74,1.62,2.11,5.6.64,7.79,1,8.5,1.4-2.72,11.23,3.57,13.1,2.83.84,5.93-2.19,8.86-.87,4.14,1.87.46,7.17,1.55,10.2,2.19,6.05,10.3-4.89,13.46,1.81,1.09,2.29-.3,6.22,1.69,8.1,2.18,2.06,4.75-.84,6.52-1.92,9.89-6.05,5.61,9.27,12.22,8.4,3.71-.48,4.39-6.3,8.81-5.67s3.56,7.4,7.52,8.06c2.67.45,3.83-3.16,5-4.75,2.27-3.13,4.77-3.43,7.59-.58,1.17,1.19,2,3.34,3.64,4,2.16.87,3.17-.66,4-2.43s1.21-5.15,3.29-6.17c2.86-1.4,5.19,1.79,7.17,3.23,6.52,4.76,4.56-5.06,7.11-8,3.52-4.1,11.59,6.74,13.08-.4.65-3.13-1.83-8.64,3.11-9.11,2.75-.26,6.11,3,8.69,1.56,2.14-1.15,1.11-3.64.73-5.43-1-4.73,0-7.55,5.28-7.06,2,.19,5.1,1.38,6.28-1s-1.75-5.45-2.14-7.56c-1.57-8.42,11.27-1.93,11-8.32-.14-3.49-5.75-5.87-3.81-9.86,1.68-3.48,7-1.93,9.07-4.66,1.28-1.7.14-3.11-1-4.46-1.38-1.67-4-3-4.31-5.37-.52-3.65,3.55-4.66,5.91-6.16,1.69-1.07,3.1-2.45,1.8-4.5-.7-1.1-2.16-1.54-3.19-2.23-3.58-2.37-5.06-5-1.63-8.32,1.46-1.44,5.12-3,4.1-5.68-1.25-3.32-7.12-2-8.7-5.24C203.9,106.37,216,100,207.28,98c-4.52-1-8.94-1.62-6.09-7.3.92-1.85,3.43-4.39,1.58-6.47-1.59-1.78-4.88-.55-6.9-.74-6.42-.59-3.23-5.4-2.55-9.41,1.25-7.27-8.23-1.12-11.32-3.41-3.32-2.45,2.41-13.27-4.76-11.33-3,.82-7,4.34-9.36.5-1.51-2.49.32-7-2.07-8.9-1.88-1.53-3.7.23-5.26,1.28s-3.71,2.68-5.79,2.15c-3-.78-3.1-4.49-4-6.82-3.45-8.43-8.25,4.85-13.41,2.54-3.14-1.41-2.85-7.15-6.23-7.84s-4.19,4-5.88,5.72c-5.35,5.34-6.56-2.63-10.33-4.38-2.27-1.06-3.41.64-4.24,2.52s-1.19,5-3.21,6c-2.55,1.21-4.89-1.28-6.62-2.71-1.42-1.17-3.18-2.85-5-1.26-2.11,1.83-.88,5.8-2.31,8.11-3,4.84-6.79-1.24-10.24-1.46-6.88-.42.7,11.7-6.72,11.63-2.53,0-5.86-2.86-8.26-1.56-2.14,1.17-1.11,3.65-.73,5.44,1,4.66,0,7.56-5.28,7.05-2-.18-5.12-1.37-6.27,1S57.7,83.85,58.09,86c1.09,5.85-4.88,4.38-8.54,5.41-6.86,1.94,3.37,8.86,1.34,12.77-1.84,3.53-13.81,3-8.11,9.12,1.32,1.42,3.44-.71,2.12-2.12-.68-.73,3.6-1.79,4.37-2.14a9.75,9.75,0,0,0,3.51-2.39,6.28,6.28,0,0,0,1.1-6.06c-.49-1.69-1.59-2.92-2.38-4.45-1.32-2.56-.19-1.76,2.27-2.07s5.12-1,6.56-3.1,1.06-4.56.36-6.77c-.5-1.56-1.94-3.13.29-3.93,1.23-.45,3.38.35,4.8.09A6,6,0,0,0,70.48,77a8.17,8.17,0,0,0,.57-3.66c0-1.1-1.43-4.51-1-5.12.27-.4,7,1.46,8.51,1.09a5.7,5.7,0,0,0,4.09-3.81,12.78,12.78,0,0,0,.58-4.35c0-3.42-.37-3.12,2.67-1.57,2.19,1.13,4.86,2.13,7.28,1.1,2.17-.92,3.23-3.12,3.84-5.28.23-.82.25-1.66.47-2.47.69-2.57,0-1.49,1.76-.85,1.49.54,2.66,2.24,4.25,2.86a5.81,5.81,0,0,0,6.1-.71,9.51,9.51,0,0,0,2.31-3c.89-1.67.82-3.78,3.32-2.73,1.46.62,2.5,2.94,4.15,3.74a6.13,6.13,0,0,0,3.44.65c3.26-.41,4.48-3.27,6.44-5.44,1.72-1.91.71-2,2.25.09.55.75.9,1.65,1.45,2.41a9.56,9.56,0,0,0,2.84,2.79,6.53,6.53,0,0,0,6.78-.39c.9-.53,3.8-4.08,4.46-4.08,1.24,0,1.66,3.27,2.15,4.36,1,2.24,2.57,4.38,5.13,4.87,3.06.58,5.24-1.35,7.76-2.63s1.73-.44,2.08,2.26a12.14,12.14,0,0,0,1.15,4.28,5.89,5.89,0,0,0,4.7,3.24c2.37.24,7.08-2.68,7.95-.3.44,1.2-.35,3.36-.09,4.8a6.54,6.54,0,0,0,1.33,3.17c1.42,1.71,3.52,2.16,5.67,2.09.87,0,4.57-1.33,5.11-1s-1,4.4-1.09,5.13c-.32,2.07-.2,4.3,1.3,5.92,1.71,1.84,4.48,2.14,6.85,2.13,3.13,0,3.12-.35,1.58,2.67a11.87,11.87,0,0,0-1.47,4.26,5.61,5.61,0,0,0,1.94,5.09,9.58,9.58,0,0,0,3.71,1.77c.8.23,1.67.25,2.47.47,2.68.73,1.4.26.85,1.76-1,2.72-3.82,4.11-3.42,7.49.3,2.47,2.22,4.07,4.28,5.17,1.69.9,3.71,1,2.73,3.32-.61,1.44-2.93,2.53-3.73,4.15a5.86,5.86,0,0,0,.52,6.24c1.16,1.69,2.82,2.35,4.26,3.64,1.77,1.59,1.88.54.65,1.9-.67.75-2.29,1.17-3.14,1.8-2,1.48-3.74,3.47-3.61,6.11a7.63,7.63,0,0,0,1.2,3.51c.53.89,4.13,4.13,4.09,4.47-.18,1.44-6.4,2.77-7.88,4.53a6.31,6.31,0,0,0-1.1,6.06c.48,1.66,1.61,2.94,2.38,4.45,1.25,2.44.29,1.74-2.27,2.07-5.66.73-8.73,4.16-6.92,9.87.51,1.6,1.77,3.18-.28,3.93-1.13.41-3.45-.34-4.81-.09a6,6,0,0,0-4.69,3.33,8,8,0,0,0-.57,3.66c0,.92,1.27,4.75,1,5.12-.36.53-6.9-1.49-8.52-1.09A5.7,5.7,0,0,0,172.2,196a12.79,12.79,0,0,0-.58,4.34c0,3.22.16,3-2.67,1.57-5-2.57-9.5-1.57-11.11,4.19-.22.76-.13,2.23-.52,2.87-1,1.66.34,1.54-1.71.45-1.54-.83-2.55-2.19-4.26-2.86a5.77,5.77,0,0,0-6.1.71c-2,1.6-2.9,7.11-5.63,5.74S136,208.1,132,208.63c-3.14.41-4.69,3.15-6.44,5.43-1.24,1.63-.28,1.58-1.55,1.4-.21,0-1.85-3.48-2.15-3.89a9.56,9.56,0,0,0-2.84-2.79,6.53,6.53,0,0,0-6.78.39c-1,.61-4,4.15-4.46,4.08-1.49-.2-1.54-3-2.14-4.36-3-6.62-7.65-4.95-12.9-2.24-2.62,1.36-1.78,0-2.08-2.27a12,12,0,0,0-1.15-4.27,5.88,5.88,0,0,0-4.7-3.24c-2.41-.25-7,2.82-8,.3-.41-1.15.34-3.48.1-4.8a6.63,6.63,0,0,0-1.34-3.18c-1.41-1.7-3.52-2.15-5.66-2.08-1.1,0-4.6,1.36-5.12,1-.79-.52.94-4.09,1.1-5.13.85-5.6-3-8.06-8.16-8.06-3.4,0-3,.11-1.57-2.67A12.2,12.2,0,0,0,57.7,168a5.54,5.54,0,0,0-1.94-5.09,9.61,9.61,0,0,0-3.7-1.77,19.45,19.45,0,0,1-2.67-.5c-2.59-1.35-1.43.41-.65-1.73,1-2.71,3.81-4.12,3.41-7.5-.29-2.46-2.22-4.06-4.28-5.16-1.64-.88-3.81-.82-2.73-3.32.65-1.49,2.93-2.49,3.73-4.15a5.89,5.89,0,0,0-.51-6.25c-1.14-1.64-2.85-2.34-4.26-3.64-.8-.73-1.59-.28-1.4-1.54,0-.36,3.26-1.69,3.89-2.15,6.07-4.47,3-9.91-1.69-14.09C43.47,109.85,41.34,112,42.78,113.25Z"/><path d="M114.39,127.62c2-6.94,8.82-11.73,16.14-9.91a13.4,13.4,0,0,1-6.23,26.06c-7.3-1.76-11.31-9-9.91-16.15.37-1.88-2.52-2.69-2.89-.79-1.72,8.78,3,17.59,12,19.83a16.39,16.39,0,0,0,7.82-31.84c-8.93-2.21-17.35,3.46-19.83,12A1.5,1.5,0,0,0,114.39,127.62Z"/><path class="cls-10" d="M126.46,101.71c-.47-.64-.75-.56-.83.23-.17,1.84-.82,2.06-2,.67-.53-.59-.8-.49-.79.31,0,1.85-.59,2.12-1.94.86-.59-.54-.84-.41-.75.38.21,1.83-.37,2.16-1.83,1-.63-.48-.87-.33-.7.45.4,1.79-.14,2.17-1.7,1.2-.67-.42-.89-.25-.65.51.57,1.75.08,2.17-1.56,1.36-.72-.36-.92-.17-.6.56.74,1.68.29,2.15-1.42,1.49-.75-.28-.93-.07-.54.62.89,1.6.49,2.11-1.27,1.62-.77-.21-.93,0-.48.67,1,1.51.69,2-1.11,1.73-.79-.14-.92.1-.41.71,1.18,1.4.88,2-1,1.84-.79-.07-.9.18-.34.74,1.31,1.29,1.07,1.89-.77,1.93-.79,0-.88.27-.26.77,1.43,1.16,1.24,1.79-.58,2-.79.09-.86.36-.2.8,1.54,1,1.42,1.67-.38,2.07-.78.17-.82.45-.12.83,1.63.87,1.57,1.54-.18,2.12-.75.25-.76.54,0,.84,1.71.72,1.72,1.4,0,2.17-.72.32-.7.62.06.85,1.77.55,1.85,1.24.25,2.19-.68.41-.63.7.15.86,1.82.38,2,1.06.47,2.16-.64.47-.56.75.23.82,1.85.18,2.06.83.68,2.06-.6.53-.49.79.3.79,1.85,0,2.12.59.87,1.94-.54.58-.41.84.38.75,1.83-.21,2.16.36,1,1.82-.49.64-.34.87.44.7,1.8-.39,2.18.14,1.21,1.7-.42.68-.25.9.5.65,1.75-.57,2.18-.07,1.36,1.57-.36.71-.17.91.56.59,1.69-.73,2.16-.28,1.5,1.43-.29.74-.08.92.62.54,1.6-.9,2.11-.5,1.62,1.27-.22.77,0,.93.66.47,1.51-1,2.06-.69,1.74,1.12-.14.78.1.92.7.41,1.41-1.19,2-.89,1.84.94-.06.8.19.91.75.34,1.28-1.31,1.89-1.07,1.92.77q0,1.2.78.27c1.15-1.43,1.78-1.25,2,.58.09.79.37.85.81.19,1-1.53,1.66-1.41,2.06.39.18.77.46.81.83.11.87-1.63,1.54-1.57,2.12.18.25.76.54.77.85,0,.71-1.7,1.39-1.71,2.16,0,.33.73.62.71.86,0,.55-1.78,1.24-1.86,2.19-.26.4.69.7.64.86-.14.37-1.82,1.05-2,2.15-.48.47.64.75.57.83-.23.17-1.84.82-2,2-.67.53.59.8.49.79-.31,0-1.84.59-2.12,1.94-.86.59.54.84.41.75-.38-.21-1.83.37-2.16,1.83-1,.63.48.87.33.7-.45-.4-1.79.14-2.17,1.7-1.2.67.42.89.25.65-.51-.57-1.75-.08-2.17,1.56-1.35q1.08.53.6-.57c-.74-1.68-.29-2.15,1.42-1.49.75.28.93.07.54-.62-.89-1.6-.49-2.11,1.27-1.62.77.21.93,0,.48-.67-1-1.5-.69-2.05,1.11-1.73.79.14.92-.1.41-.71-1.18-1.4-.88-2,1-1.83.79.06.9-.19.34-.75-1.31-1.28-1.07-1.89.76-1.93.8,0,.89-.27.27-.77-1.43-1.16-1.24-1.79.58-2,.79-.09.86-.36.2-.8-1.54-1-1.42-1.67.38-2.07.78-.17.82-.45.12-.83-1.63-.86-1.57-1.53.18-2.12.75-.25.76-.54,0-.84-1.71-.71-1.72-1.4,0-2.16.72-.33.7-.62-.06-.86-1.77-.55-1.85-1.24-.25-2.19.68-.41.63-.7-.15-.86-1.82-.38-2-1.06-.47-2.16.64-.47.56-.75-.23-.82-1.85-.18-2.06-.82-.68-2.06.6-.53.49-.79-.3-.78-1.85,0-2.12-.6-.87-2,.54-.58.41-.84-.38-.74-1.83.21-2.15-.37-1-1.83.49-.63.34-.87-.44-.7-1.8.39-2.18-.14-1.21-1.7.42-.68.25-.9-.5-.65-1.75.57-2.18.07-1.36-1.57.36-.71.16-.91-.56-.59-1.69.73-2.16.28-1.5-1.43.29-.74.08-.92-.62-.53-1.6.89-2.11.49-1.62-1.28.22-.76,0-.92-.66-.47-1.51,1-2.06.69-1.74-1.12.14-.78-.1-.92-.7-.4-1.41,1.18-2,.88-1.84-1,.06-.79-.19-.91-.75-.34-1.28,1.31-1.89,1.07-1.92-.77q0-1.19-.78-.27c-1.15,1.43-1.79,1.25-2-.58-.09-.79-.37-.85-.81-.19-1,1.53-1.66,1.41-2.06-.39-.18-.77-.46-.81-.83-.11-.87,1.63-1.54,1.57-2.12-.18-.25-.76-.54-.77-.85,0-.71,1.71-1.39,1.72-2.16,0-.33-.72-.62-.71-.86,0-.55,1.78-1.24,1.86-2.19.26-.4-.69-.7-.64-.86.14C128.24,103.06,127.56,103.21,126.46,101.71Zm16.92,10.35a23.55,23.55,0,0,1,9.12,8.86,3.17,3.17,0,0,1-1.63,4.48,33.74,33.74,0,0,1-10.49,2.23,3.36,3.36,0,0,1-3.51-3.38A34.28,34.28,0,0,1,139,113.73,3.07,3.07,0,0,1,143.38,112.06Zm-8.75,22.35a3.72,3.72,0,1,1,3.05-4.29A3.72,3.72,0,0,1,134.63,134.41Zm-7.49-4.88a3.35,3.35,0,0,1,.85,4.8,33.55,33.55,0,0,1-7.91,7.25,3.07,3.07,0,0,1-4.52-1.22,23.68,23.68,0,0,1-2.17-12.52,3.18,3.18,0,0,1,4-2.67A33.75,33.75,0,0,1,127.14,129.53Zm24.63.65a3.06,3.06,0,0,1,2.93,3.64,23.56,23.56,0,0,1-5.6,11.41,3.17,3.17,0,0,1-4.76-.17,33.89,33.89,0,0,1-5.37-9.28,3.37,3.37,0,0,1,2.14-4.39A34,34,0,0,1,151.77,130.18Zm-28.16,14.74a34.09,34.09,0,0,1,7.18-8,3.36,3.36,0,0,1,4.83.68,33.86,33.86,0,0,1,4.45,9.76,3.07,3.07,0,0,1-2.56,3.92,23.56,23.56,0,0,1-12.58-1.8A3.19,3.19,0,0,1,123.61,144.92Zm-4.42-28.81a23.68,23.68,0,0,1,11.24-5.94,3.19,3.19,0,0,1,3.76,2.94,34.06,34.06,0,0,1-1.11,10.66,3.38,3.38,0,0,1-4.31,2.3,33.89,33.89,0,0,1-9.34-5.29A3.07,3.07,0,0,1,119.19,116.11Z"/><path d="M127.22,100.41l-.57-.42c-.86-.65-1.88.11-2.2.9s.52.82-.71.06a1.52,1.52,0,0,0-2.2.9c-.43,1.48.38.8-.56.33a1.52,1.52,0,0,0-2.21.9c-.23,1.35.64,1-.75.43-1-.38-1.84.56-1.9,1.44-.07,1,1,.69-.52.27a1.51,1.51,0,0,0-1.9,1.44c0,1.55.67.67-.33.48-.84-.15-2,.4-1.9,1.45.18,1.38,1,.75-.53.63a1.51,1.51,0,0,0-1.44,1.89A8.74,8.74,0,0,1,110,113l1.1-1.45a10.41,10.41,0,0,1-1.93,0,1.51,1.51,0,0,0-1.44,1.9c.47,1.43.84.46-.14.57a1.52,1.52,0,0,0-1.3,2.25c.4.91,1,.1-.45.41a1.51,1.51,0,0,0-.89,2.2,10,10,0,0,1,1,1.68l.69-1.69a9,9,0,0,1-1.87.55,1.5,1.5,0,0,0-.89,2.2c.77,1.11,1.07.21-.29.8-1,.41-.85,1.7-.31,2.35s1.08-.15-.24.58a1.52,1.52,0,0,0-.3,2.36c1.07,1,.89.06,0,.66a1.51,1.51,0,0,0-.3,2.35c1,.85,1.15,0,0,.95a1.51,1.51,0,0,0,.31,2.35c.9.61,1.07-.35,0,.75a1.53,1.53,0,0,0,.31,2.36c1.18.64,1-.16.13,1-.64.86.11,1.88.9,2.21.94.38.83-.53.06.71a1.52,1.52,0,0,0,.9,2.2c1.49.42.8-.39.33.56a1.51,1.51,0,0,0,.9,2.2c1.35.24,1-.63.43.75-.38,1,.57,1.84,1.45,1.9s.68-1,.26.52a1.51,1.51,0,0,0,1.45,1.9c1.54,0,.66-.66.48.33-.15.84.39,2,1.45,1.9,1.37-.18.75-1,.62.53a1.51,1.51,0,0,0,1.9,1.45,8.65,8.65,0,0,1,1.87-.46l-1.44-1.11a9.62,9.62,0,0,1,0,1.93,1.52,1.52,0,0,0,1.9,1.45c1.43-.48.46-.85.57.14a1.53,1.53,0,0,0,2.26,1.29c.9-.4.1-1,.4.45a1.52,1.52,0,0,0,2.21.9,9.35,9.35,0,0,1,1.68-1l-1.7-.69a8.62,8.62,0,0,1,.55,1.87,1.52,1.52,0,0,0,2.21.9c1.11-.77.21-1.07.79.29.41,1,1.71.85,2.35.3s-.14-1.07.59.25a1.51,1.51,0,0,0,2.35.3c1.06-1.07.07-.89.66-.05a1.52,1.52,0,0,0,2.36.31c.85-1.05,0-1.15.94-.05a1.52,1.52,0,0,0,2.36-.3c.6-.9-.36-1.07.75-.06a1.51,1.51,0,0,0,2.35-.3c.65-1.18-.15-1,1-.14.86.65,1.88-.11,2.2-.9.38-.94-.52-.82.71-.06a1.5,1.5,0,0,0,2.2-.9c.43-1.48-.38-.8.56-.33a1.52,1.52,0,0,0,2.21-.89c.23-1.36-.64-1,.75-.44,1,.38,1.84-.56,1.9-1.44.07-1-1-.69.52-.27a1.51,1.51,0,0,0,1.9-1.44c-.05-1.54-.67-.67.33-.48.84.15,2-.4,1.9-1.45-.18-1.38-1-.75.53-.62a1.52,1.52,0,0,0,1.44-1.9,8.6,8.6,0,0,1-.46-1.88l-1.1,1.45a10.42,10.42,0,0,1,1.93,0,1.51,1.51,0,0,0,1.44-1.9c-.47-1.43-.84-.46.14-.56a1.53,1.53,0,0,0,1.3-2.26c-.4-.91-1-.1.45-.41a1.51,1.51,0,0,0,.89-2.2,10,10,0,0,1-1-1.68l-.69,1.69a9,9,0,0,1,1.87-.55,1.5,1.5,0,0,0,.89-2.2c-.77-1.11-1.07-.21.29-.79,1-.41.85-1.71.31-2.36s-1.08.15.24-.58a1.52,1.52,0,0,0,.3-2.36c-1.07-1.05-.89-.06,0-.65a1.52,1.52,0,0,0,.3-2.36c-1-.85-1.14,0,0-.95a1.51,1.51,0,0,0-.31-2.35c-.9-.61-1.07.36,0-.75a1.53,1.53,0,0,0-.31-2.36c-1.18-.64-1,.16-.13-1,.64-.86-.11-1.88-.9-2.2-.94-.39-.83.52-.06-.72a1.52,1.52,0,0,0-.9-2.2c-1.49-.42-.8.39-.33-.56a1.52,1.52,0,0,0-.9-2.2c-1.35-.24-1,.63-.43-.75.38-1-.57-1.84-1.45-1.9-1-.07-.68,1-.26-.52a1.52,1.52,0,0,0-1.45-1.9c-1.54,0-.66.67-.48-.33.15-.84-.39-2-1.45-1.9-1.37.18-.75,1-.62-.53a1.51,1.51,0,0,0-1.9-1.45,8.69,8.69,0,0,1-1.87.47l1.44,1.1a9.62,9.62,0,0,1,0-1.93,1.52,1.52,0,0,0-1.9-1.45c-1.43.48-.46.85-.57-.14a1.53,1.53,0,0,0-2.26-1.29c-.9.4-.1,1-.4-.45a1.52,1.52,0,0,0-2.21-.9,9.71,9.71,0,0,1-1.68,1l1.7.69a9.22,9.22,0,0,1-.55-1.87,1.52,1.52,0,0,0-2.21-.9c-1.11.77-.21,1.07-.79-.29-.41-1-1.71-.85-2.36-.3s.15,1.07-.58-.25a1.51,1.51,0,0,0-2.35-.3c-1.06,1.07-.07.89-.66,0a1.52,1.52,0,0,0-2.36-.31c-.85,1,0,1.15-.94,0a1.52,1.52,0,0,0-2.36.3c-.6.9.36,1.07-.75.06a1.51,1.51,0,0,0-2.35.3c-.67,1.22-.36.56-.14.8-1.31-1.43-3.43.7-2.12,2.12a3.65,3.65,0,0,0,2,1.39,1.52,1.52,0,0,0,1.46-.38c.88-.81.77-1.29,1.38-2.41l-2.36.3c.89.81,1,1.39,2.07,1.85a1.53,1.53,0,0,0,1.52,0,8.2,8.2,0,0,0,1.87-2.51l-2.35.3c2.27,2.59,3,2.67,5.19,0l-2.36-.3c2.07,3,2.78,3.19,5.37.56l-2.36-.3c.6,1.08.52,1.58,1.38,2.36a1.49,1.49,0,0,0,1.46.38c1.14-.43,1.53-1.11,2.46-1.89l-2.36-.3c.52,1.22.33,1.54,1.16,2.45a1.49,1.49,0,0,0,1.46.39c1.15-.32,1.22-.75,2.28-1.48l-2.2-.89c.34,1.1.19,1.69.85,2.58a1.58,1.58,0,0,0,1.69.69c1.11-.19,1.37-.71,2.4-1.29l-2.21-.89c.26,1.22,0,1.63.63,2.64a1.51,1.51,0,0,0,1.3.74,8.05,8.05,0,0,0,2.89-1.14l-2.26-1.3c.13,1.21-.06,2,.46,3.08a1.49,1.49,0,0,0,1.3.74c1.17,0,1.42-.39,2.61-.79l-1.9-1.44c0,1.17-.3,1.67.08,2.73a1.6,1.6,0,0,0,1.45,1.1c1.1.12,1.54-.31,2.67-.57l-1.9-1.45c-.11,1.27-.43,1.56-.14,2.72a1.52,1.52,0,0,0,1,1c1.21.25,1.4-.07,2.71-.24l-1.44-1.9a8.07,8.07,0,0,0-.41,3.09,1.47,1.47,0,0,0,1.05,1c1.1.35,1.51,0,2.73,0l-1.45-1.9c-.32,1.16-.75,1.51-.67,2.65a1.5,1.5,0,0,0,.74,1.3,8.19,8.19,0,0,0,3.09.37l-1.44-1.9c-.48,1.22-.85,1.37-.89,2.59a1.46,1.46,0,0,0,.74,1.29c1.06.59,1.4.34,2.67.56l-.89-2.2a7.86,7.86,0,0,0-1.25,2.87,1.49,1.49,0,0,0,.74,1.29c.94.66,1.48.48,2.63.8l-.9-2.2c-.65,1.07-1.13,1.23-1.39,2.38a1.51,1.51,0,0,0,.39,1.46c.92.8,1.74.82,2.86,1.28l-.9-2.21c-.82,1.1-1.19,1.07-1.58,2.27a1.51,1.51,0,0,0,.39,1.46c.81.88,1.29.77,2.41,1.38l-.31-2.35c-.81.89-1.39,1-1.85,2.07a1.53,1.53,0,0,0,0,1.51,8,8,0,0,0,2.52,1.88l-.31-2.36c-2.59,2.27-2.67,3,.05,5.19l.3-2.35c-3,2.07-3.19,2.78-.56,5.36l.31-2.35c-1.08.59-1.59.51-2.36,1.37a1.5,1.5,0,0,0-.39,1.46,8.18,8.18,0,0,0,1.89,2.46l.31-2.35c-1.23.52-1.54.32-2.46,1.15a1.49,1.49,0,0,0-.38,1.46c.31,1.16.74,1.23,1.47,2.28l.9-2.2c-1.1.35-1.7.2-2.59.85a1.63,1.63,0,0,0-.69,1.7c.2,1.1.71,1.36,1.29,2.39l.9-2.2c-1.22.25-1.64,0-2.64.63a1.47,1.47,0,0,0-.75,1.29,8,8,0,0,0,1.15,2.89l1.29-2.25a7.87,7.87,0,0,0-3.07.46,1.46,1.46,0,0,0-.74,1.29c0,1.18.38,1.42.78,2.61l1.45-1.9c-1.18,0-1.67-.29-2.73.09a1.59,1.59,0,0,0-1.1,1.44c-.12,1.1.31,1.55.57,2.67l1.45-1.89c-1.27-.11-1.57-.44-2.73-.14a1.47,1.47,0,0,0-1,1.05c-.26,1.2.07,1.4.24,2.71l1.9-1.45a7.9,7.9,0,0,0-3.1-.4,1.46,1.46,0,0,0-1,1c-.35,1.11,0,1.52,0,2.74l1.9-1.45c-1.17-.33-1.51-.75-2.65-.68a1.5,1.5,0,0,0-1.3.75,8,8,0,0,0-.37,3.09l1.9-1.45c-1.23-.47-1.37-.85-2.59-.89a1.51,1.51,0,0,0-1.3.75c-.58,1.06-.33,1.39-.56,2.67l2.21-.9a8,8,0,0,0-2.87-1.24,1.49,1.49,0,0,0-1.3.74c-.65.93-.47,1.47-.8,2.63l2.21-.9c-1.07-.66-1.23-1.13-2.38-1.39a1.51,1.51,0,0,0-1.46.39,8.23,8.23,0,0,0-1.28,2.86l2.2-.9c-1.09-.82-1.07-1.19-2.27-1.58a1.52,1.52,0,0,0-1.46.38c-.88.82-.77,1.29-1.38,2.41l2.36-.3c-.89-.81-1-1.39-2.07-1.85a1.53,1.53,0,0,0-1.52,0,8.2,8.2,0,0,0-1.87,2.51l2.35-.3c-2.27-2.59-3-2.67-5.19.05l2.36.3c-2.07-3-2.78-3.19-5.37-.56l2.36.3c-.6-1.07-.52-1.58-1.38-2.36a1.51,1.51,0,0,0-1.46-.38c-1.14.43-1.53,1.11-2.46,1.89l2.36.3c-.52-1.22-.33-1.54-1.16-2.45a1.51,1.51,0,0,0-1.46-.39c-1.15.32-1.23.75-2.28,1.48l2.2.9c-.34-1.11-.19-1.7-.85-2.59A1.58,1.58,0,0,0,123,156c-1.11.19-1.37.71-2.4,1.29l2.21.89c-.26-1.22,0-1.63-.63-2.64a1.51,1.51,0,0,0-1.3-.74c-1.21.1-1.79.66-2.89,1.14l2.26,1.3c-.13-1.2.06-2-.46-3.07a1.48,1.48,0,0,0-1.3-.75c-1.17,0-1.42.39-2.61.79l1.9,1.44c0-1.17.3-1.67-.08-2.72a1.58,1.58,0,0,0-1.45-1.1c-1.1-.13-1.54.31-2.67.56l1.9,1.45c.11-1.27.43-1.56.14-2.72a1.52,1.52,0,0,0-1-1.05c-1.21-.25-1.4.07-2.71.24l1.44,1.9a8,8,0,0,0,.41-3.09,1.5,1.5,0,0,0-1-1.05c-1.1-.35-1.51,0-2.73,0l1.44,1.9c.33-1.16.76-1.51.68-2.65a1.47,1.47,0,0,0-.74-1.29,8,8,0,0,0-3.09-.38l1.44,1.9c.48-1.22.85-1.36.89-2.59a1.46,1.46,0,0,0-.74-1.29c-1.06-.59-1.4-.34-2.67-.56l.89,2.2a7.86,7.86,0,0,0,1.25-2.87,1.49,1.49,0,0,0-.74-1.29c-.94-.65-1.48-.47-2.63-.8l.9,2.2c.65-1.07,1.13-1.23,1.39-2.38a1.51,1.51,0,0,0-.39-1.46c-.92-.8-1.74-.82-2.86-1.28l.9,2.21c.82-1.1,1.19-1.07,1.58-2.27a1.51,1.51,0,0,0-.39-1.46c-.81-.88-1.29-.77-2.41-1.38l.31,2.36c.81-.9,1.39-1,1.85-2.08a1.53,1.53,0,0,0,0-1.51,8.15,8.15,0,0,0-2.52-1.88l.31,2.36c2.59-2.27,2.67-3,0-5.19l-.3,2.36c3-2.08,3.19-2.79.56-5.37l-.31,2.35c1.08-.59,1.59-.51,2.36-1.37a1.5,1.5,0,0,0,.39-1.46,8.18,8.18,0,0,0-1.89-2.46L105,125c1.23-.53,1.54-.33,2.46-1.16a1.49,1.49,0,0,0,.38-1.46c-.31-1.16-.74-1.23-1.47-2.28l-.9,2.2c1.1-.34,1.7-.2,2.59-.85a1.63,1.63,0,0,0,.69-1.7c-.2-1.1-.71-1.36-1.29-2.39l-.9,2.2c1.22-.25,1.63,0,2.64-.63a1.47,1.47,0,0,0,.75-1.29,8.08,8.08,0,0,0-1.15-2.89L107.55,117a8.26,8.26,0,0,0,3.07-.46,1.48,1.48,0,0,0,.74-1.3c0-1.18-.39-1.42-.78-2.61l-1.45,1.9c1.18,0,1.67.3,2.73-.09A1.58,1.58,0,0,0,113,113c.12-1.1-.31-1.55-.57-2.67l-1.45,1.9c1.27.1,1.57.43,2.73.13a1.47,1.47,0,0,0,1-1c.26-1.2-.07-1.4-.24-2.71l-1.9,1.45a8.09,8.09,0,0,0,3.1.41,1.49,1.49,0,0,0,1-1c.35-1.11,0-1.52,0-2.74l-1.9,1.45c1.17.33,1.51.75,2.65.68a1.49,1.49,0,0,0,1.3-.74,8.07,8.07,0,0,0,.37-3.1l-1.9,1.45c1.23.47,1.37.85,2.59.89a1.52,1.52,0,0,0,1.3-.74c.58-1.06.33-1.4.56-2.68l-2.21.9a8,8,0,0,0,2.87,1.24,1.49,1.49,0,0,0,1.3-.74c.65-.93.47-1.47.8-2.63l-2.21.9c1.07.66,1.23,1.14,2.38,1.39a1.51,1.51,0,0,0,1.46-.38,8.36,8.36,0,0,0,1.28-2.87l-2.2.9.56.42C127.24,104.17,128.74,101.56,127.22,100.41Z"/><path d="M142.63,113.36a24.38,24.38,0,0,1,6.57,5.39c1.63,2,3.45,3.76.24,5.59a14.16,14.16,0,0,1-3.65,1,13.58,13.58,0,0,1-4.35.68c-2.5-.33-3.18-1.49-2.93-3.83s1.14-10.06,4.48-8.72c1.79.72,2.56-2.18.79-2.89-5.74-2.31-7.26,5.15-7.94,9.15-.41,2.38-1.05,5.3.5,7.39,1.39,1.89,3.46,2.06,5.63,1.85,4-.4,11.95-1,12.39-6.23.41-5-6.55-9.86-10.22-12A1.5,1.5,0,0,0,142.63,113.36Z"/><path d="M134.63,132.91a2.35,2.35,0,0,1-2.75-1.56,2.23,2.23,0,0,1,1.72-2.78c3-.56,3.51,3.74.63,4.39-1.88.42-1.08,3.31.8,2.89a5.24,5.24,0,1,0-.4.06C136.53,135.69,136.55,132.69,134.63,132.91Z"/><path d="M126.08,130.59c2.65,2.22-1.75,5.72-3.46,7.19-1.42,1.22-3.7,3.89-5.76,1.83-.85-.86-1.3-3.47-1.57-4.69a15.18,15.18,0,0,1-.53-4.75c.31-2.69,1.16-3.88,3.77-3.09a33.75,33.75,0,0,1,7.86,3.74c1.64,1,3.15-1.56,1.51-2.59-3.39-2.11-10.48-6.73-14.36-3.56s-1.31,12.14.49,15.89c2.57,5.38,7.46,2.16,10.71-.66s8.11-7.53,3.47-11.43C126.74,127.24,124.6,129.35,126.08,130.59Z"/><path d="M151.37,131.62c3.67.59.35,7.06-.69,8.88-.58,1-1.58,3.19-2.64,3.67-2.6,1.17-3.62-1.35-4.65-3-1.53-2.4-5.09-7.33-.91-8.63a29,29,0,0,1,9.29-.9c1.93,0,1.93-3,0-3-4-.09-12.64-.52-14.27,4.4-.82,2.49.81,5.19,1.94,7.33s2.79,5.4,5.05,6.68c4.77,2.71,8.31-3.74,9.87-7.26,1.65-3.72,3.68-10.16-2.2-11.1C150.28,128.43,149.46,131.32,151.37,131.62Z"/><path d="M124.91,145.68a29.39,29.39,0,0,1,5.33-6.28c2.13-1.78,3.2-2.19,4.9.26a20.72,20.72,0,0,1,1.7,3.23,13.81,13.81,0,0,1,1.44,3.78q1.23,2.24-2,3.25a23.56,23.56,0,0,1-2.38.07c-1.4,0-10.73-.73-9-4.31.83-1.73-1.76-3.26-2.59-1.51-2.63,5.53,3.32,7.69,7.75,8.45,3.9.67,11.59,1.4,11.62-4.45,0-2.49-1.62-5.55-2.71-7.76-1-2-2.17-4.59-4.49-5.4-5.09-1.76-9.85,5.67-12.17,9.16C121.24,145.78,123.84,147.28,124.91,145.68Z"/><path d="M120.26,117.17a24.18,24.18,0,0,1,6.27-4.18c1.22-.54,4.4-2,5.66-.9,1,.88.55,4,.46,5.26a16.18,16.18,0,0,1-.74,4.88c-.06,1.48-1,2.27-2.74,2.39a16.85,16.85,0,0,1-1.7-.7c-1.39-.61-9.33-4.22-7.21-6.75,1.23-1.47-.89-3.61-2.13-2.12-3.85,4.6,1.43,8,5.19,10.15,4.06,2.28,9.63,4.39,11.34-1.6,1.14-4,3.12-12.83-2.11-14.72-4.62-1.67-11.25,3.35-14.42,6.17C116.69,116.33,118.82,118.45,120.26,117.17Z"/><g class="cls-11"><path class="cls-10" d="M131.08,130.12a3.72,3.72,0,1,1-4.28-3.05,3.72,3.72,0,0,1,4.28,3.05Zm.66-.11a4.38,4.38,0,1,0-3.6,5.05,4.39,4.39,0,0,0,3.6-5.05Z"/><path d="M129.58,130.12a2.33,2.33,0,0,1-1.55,2.75,2.22,2.22,0,0,1-2.78-1.72c-.57-2.94,3.74-3.51,4.39-.63.42,1.89,3.31,1.09,2.89-.79a5.36,5.36,0,1,0,.05.39C132.37,128.23,129.37,128.21,129.58,130.12Z"/><path d="M133.18,129.62a5.9,5.9,0,1,0,.06.39c-.22-1.89-3.22-1.91-3,0a3,3,0,0,1-2,3.5,2.9,2.9,0,0,1-3.61-2.25c-.71-3.79,4.86-4.55,5.69-.85C130.71,132.3,133.6,131.5,133.18,129.62Z"/></g><g class="cls-12"><path class="cls-10" d="M152.86,121.91a3.21,3.21,0,0,1-2,3.49,33.74,33.74,0,0,1-10.49,2.23,3.38,3.38,0,0,1-3.47-2.77,3.08,3.08,0,0,1,0-.61A34.28,34.28,0,0,1,139,113.73a3.07,3.07,0,0,1,4.37-1.67,23.55,23.55,0,0,1,9.12,8.86,2.82,2.82,0,0,1,.36,1Zm.29,0a3.84,3.84,0,0,0-.39-1.09,24,24,0,0,0-9.23-9,3.32,3.32,0,0,0-2.77-.21,3.41,3.41,0,0,0-2,2,34.88,34.88,0,0,0-2.16,10.61,3.78,3.78,0,0,0,0,.67,3.66,3.66,0,0,0,3.77,3A34.39,34.39,0,0,0,151,125.67a3.48,3.48,0,0,0,2.17-3.81Z"/><path d="M151.36,121.91c.08,3.06-7.64,4.25-9.8,4.14-4.61-.23-3-5-2.27-8.12.32-1.25.93-4.66,2.62-4.75,1.15-.07,3,1.61,3.91,2.31,2.23,1.75,4.62,4.09,5.59,6.82.65,1.8,3.55,1,2.9-.8-1.59-4.42-6.38-9.49-10.89-11-5.72-2-7.07,6-7.66,9.81-.72,4.73,0,9.18,5.8,8.77,4.48-.32,12.95-1.13,12.8-7.14C154.31,120,151.31,120,151.36,121.91Z"/><path d="M154.6,121.46C153,117,147.82,111.17,143,110c-6.07-1.45-7.2,7.34-7.7,11.33-.32,2.49-.53,5,1.56,6.83s4.58,1.23,7,.89c3.94-.57,12-1.81,10.76-7.61-.4-1.89-3.29-1.09-2.89.8.54,2.62-6.28,3.55-8.06,3.83-1.08.16-2.16.27-3.25.33q-2.82-1-2.25-3.33c-.23-1.5.43-3.39.78-4.87.29-1.21.69-4,1.66-4.77,1.63-1.35,4.25.9,5.44,1.84,2.28,1.8,4.66,4.18,5.68,7C152.36,124.06,155.26,123.28,154.6,121.46Z"/><path class="cls-10" d="M128.61,131.8a3.19,3.19,0,0,1-.62,2.53,33.55,33.55,0,0,1-7.91,7.25,3.07,3.07,0,0,1-4.52-1.22,25.41,25.41,0,0,1-2-6.34,22.8,22.8,0,0,1-.19-6.18,3.18,3.18,0,0,1,4-2.67,33.75,33.75,0,0,1,9.8,4.36,3.33,3.33,0,0,1,1.47,2.27Zm.28-.05a3.63,3.63,0,0,0-1.59-2.46,34.32,34.32,0,0,0-9.88-4.4,3.5,3.5,0,0,0-2.87.52,3.34,3.34,0,0,0-1.45,2.4,23.35,23.35,0,0,0,.19,6.25,25.5,25.5,0,0,0,2,6.42,3.31,3.31,0,0,0,2.12,1.8,3.4,3.4,0,0,0,2.82-.46,34.37,34.37,0,0,0,8-7.31,3.5,3.5,0,0,0,.67-2.76Z"/><path d="M127.11,131.8c.1,2.59-3.5,5.21-5.33,6.69s-3.58,2.84-5.27.25a12.69,12.69,0,0,1-1.28-4.05,13.14,13.14,0,0,1-.47-4.36,3.82,3.82,0,0,1,1.8-3.76,17.61,17.61,0,0,1,2.49.68c2.22.72,7.33,2.38,8.11,4.94.57,1.84,3.46,1.06,2.9-.79-.78-2.53-2.65-3.59-4.91-4.78-2.43-1.27-5.44-2.79-8.2-3-5.92-.45-5.49,6.88-4.82,10.8.64,3.71,2.39,10.65,7.65,9,2.52-.81,5.1-3.47,6.91-5.3s3.52-3.57,3.42-6.28C130,129.87,127,129.86,127.11,131.8Z"/><path d="M130.34,131.35c-.87-2.79-2.93-3.91-5.46-5.19-2.38-1.21-5.26-2.67-8-2.82-6.33-.36-5.78,7.44-5,11.66.76,3.94,2.81,10.58,8.16,8.55,2.49-1,4.91-3.38,6.75-5.24s3.63-3.72,3.53-6.56c-.06-1.93-3.06-1.94-3,0,.09,2.57-3.26,5.15-5,6.64-1.5,1.24-3.6,3.63-5.74,1.34-.75-.81-1.13-2.89-1.39-3.92a21.57,21.57,0,0,1-.7-4.24,23.35,23.35,0,0,1,0-2.51l3.65-2.4c2.25-.32,8.68,3.53,9.29,5.49S130.92,133.2,130.34,131.35Z"/><path class="cls-10" d="M154.72,132.73a2.86,2.86,0,0,1,0,1.09,23.56,23.56,0,0,1-5.6,11.41,3.17,3.17,0,0,1-4.76-.17,33.89,33.89,0,0,1-5.37-9.28,3,3,0,0,1-.17-.63,3.36,3.36,0,0,1,2.31-3.76,34,34,0,0,1,10.66-1.21,3.08,3.08,0,0,1,2.95,2.55Zm.29,0a3.4,3.4,0,0,0-3.23-2.8A34.79,34.79,0,0,0,141,131.11a3.65,3.65,0,0,0-2.52,4.09,4,4,0,0,0,.19.68,34.8,34.8,0,0,0,5.41,9.37,3.48,3.48,0,0,0,2.62,1.26,3.34,3.34,0,0,0,2.59-1.09A24.06,24.06,0,0,0,155,133.88a3.4,3.4,0,0,0,0-1.19Z"/><path d="M153.22,132.73a17.64,17.64,0,0,1-3,8.61c-.48.75-1.34,2.39-2.14,2.83-2.57,1.41-4-1.84-4.94-3.42a33.19,33.19,0,0,1-2-3.77c-1-2.09-1.27-3.45,1.39-4.4,1.8-.66,9.91-2.26,10.8.55.58,1.84,3.47,1.05,2.89-.8-1.73-5.46-9.19-3.81-13.5-2.88-2.25.49-4.27,1.2-5.12,3.54s.43,4.48,1.41,6.47c1.7,3.44,5.06,10.22,10,7.74,4.27-2.16,7.23-10,7.3-14.47C156.26,130.8,153.26,130.8,153.22,132.73Z"/><path d="M156.45,132.29c-1.61-5.51-8.66-4.1-13-3.28-5.67,1.06-7.61,4.39-5.18,9.66,1.68,3.64,5,10.91,10.2,9,4.8-1.76,8-10.38,8-15a1.5,1.5,0,0,0-3,0,17.84,17.84,0,0,1-2.94,8.56c-1.06,1.73-2.62,4.89-5.4,2.93-1-.69-1.9-2.6-2.54-3.65a36.12,36.12,0,0,1-1.78-3.37c-1.28-2.82-.74-4.24,2.25-5,2.23-.59,9.53-2.23,10.46.94C154.1,134.93,157,134.15,156.45,132.29Z"/><path class="cls-10" d="M140.15,147.74a3.08,3.08,0,0,1-2.64,3.57,23.56,23.56,0,0,1-12.58-1.8,3.1,3.1,0,0,1-1.77-2.33,3.2,3.2,0,0,1,.45-2.26,34.09,34.09,0,0,1,7.18-8,3.36,3.36,0,0,1,4.83.68,33.86,33.86,0,0,1,4.45,9.76c0,.12.06.23.08.35Zm.28-.05a2.34,2.34,0,0,0-.09-.38,34.73,34.73,0,0,0-4.48-9.85,3.56,3.56,0,0,0-2.43-1.49,3.62,3.62,0,0,0-2.82.75,34.48,34.48,0,0,0-7.24,8.05,3.44,3.44,0,0,0-.49,2.45,3.36,3.36,0,0,0,1.93,2.55,24,24,0,0,0,12.73,1.83,3.29,3.29,0,0,0,2.26-1.3,3.42,3.42,0,0,0,.63-2.61Z"/><path d="M138.65,147.74c.12,3.78-8.38,1.95-10,1.5-.74-.21-1.48-.45-2.2-.73-1.77-1.32-2.06-2.57-.89-3.75.46-1.27,1.9-2.49,2.83-3.48a16,16,0,0,1,2.68-2.59c2.66-1.71,3.42-.29,4.62,1.86a28.88,28.88,0,0,1,3,7.59c.43,1.88,3.32,1.08,2.89-.8-.87-3.83-3.28-11.73-7.84-12.51-2.37-.42-4,.93-5.63,2.45-2.15,2-4.73,4.56-6,7.25-2.46,5.33,3.92,7.4,7.92,8.09,4.27.74,11.77,1.31,11.58-4.88C141.59,145.81,138.59,145.8,138.65,147.74Z"/><path d="M141.88,147.29c-.92-4-3.48-12.29-8.45-12.82-2.77-.29-4.81,1.85-6.61,3.65s-4.48,4.43-5.26,7c-1.67,5.48,5,7.26,9,7.85,4.48.66,11.57,1,11.38-5.29-.06-1.92-3.06-1.93-3,0,.12,4-8.06,2.4-9.87,1.95-2-.5-4.74-1-4.39-4.12.13-1.15,1.9-2.67,2.63-3.51,2.24-2.59,5.38-5.78,8.48-1.83,1.59,2,2.64,5.44,3.2,7.91C139.41,150,142.31,149.18,141.88,147.29Z"/><path class="cls-10" d="M134.15,112.76c0,.12,0,.23,0,.35a34.06,34.06,0,0,1-1.11,10.66,3.38,3.38,0,0,1-4.31,2.3,33.89,33.89,0,0,1-9.34-5.29,3.1,3.1,0,0,1-1.16-1.94,3,3,0,0,1,.92-2.73,23.68,23.68,0,0,1,11.24-5.94,3.18,3.18,0,0,1,3.72,2.59Zm.29,0a3.54,3.54,0,0,0-1.49-2.31,3.31,3.31,0,0,0-2.58-.52,24,24,0,0,0-11.37,6,3.28,3.28,0,0,0-1,3,3.41,3.41,0,0,0,1.26,2.13,34.64,34.64,0,0,0,9.42,5.33,3.54,3.54,0,0,0,2.84-.22,3.61,3.61,0,0,0,1.84-2.27,34.39,34.39,0,0,0,1.13-10.76c0-.13,0-.25,0-.37Z"/><path d="M132.65,112.76c.31,2.75.41,6.92-.74,9.47A1.54,1.54,0,0,1,130.4,124a1.48,1.48,0,0,1-2.17.26,17.1,17.1,0,0,1-4.32-2.2c-1.57-.94-4.56-2.36-3.65-4.89.31-.89,2.11-1.77,2.85-2.27,1.5-1,8.47-5.32,9.6-1.74.57,1.84,3.47,1,2.89-.8-1.74-5.55-7.57-3.5-11.46-1.54-3.41,1.71-9.75,5.59-6.56,10.15,1.44,2.08,4.5,3.6,6.68,4.73,2,1.06,4.48,2.5,6.83,1.86,5.16-1.4,5-10.69,4.56-14.8C135.44,110.87,132.44,110.85,132.65,112.76Z"/><path d="M135.88,112.32c-1.87-5.95-8.13-3.73-12.26-1.55-3.72,2-10.11,6.43-5.73,11,2.86,3,10.5,8.11,14.7,5.43,2.23-1.42,2.58-4.11,3-6.54.42-2.63.87-5.71.32-8.34-.39-1.89-3.28-1.09-2.89.79.49,2.34-.08,5.57-.54,8-.51,2.69-1.94,4.52-4.95,3.21a32.61,32.61,0,0,1-3.32-1.72,12.69,12.69,0,0,1-3.26-2.14c-2.51-3.12-.18-4.23,1.89-5.65,1.66-1.13,8.92-5.66,10.18-1.65C133.57,115,136.46,114.17,135.88,112.32Z"/></g><path class="cls-13" d="M161.65,104c.74-1-.46-2.59-1.68-3h0a2,2,0,0,0-2.58,1.19C151.9,113.16,132.68,124,123,129.52c-1.67.95-2,3.11-.63,4.92h0c1.36,1.81,3.93,2.67,5.53,1.63C137.81,129.62,153.14,115.85,161.65,104Z"/><path d="M163.1,104.44c.39-2.76-1.8-6-5-4.79-2,.74-2.66,3.15-3.77,4.71a39.88,39.88,0,0,1-5.82,6.29,107.51,107.51,0,0,1-15.86,11.44c-2.36,1.46-4.76,2.86-7.16,4.25-1.48.86-3.63,1.65-4.65,3.13-2.07,3,.12,6.85,3.18,8.07,4.22,1.69,8.14-2.54,11.2-4.91A142.51,142.51,0,0,0,163,104.79c1.14-1.55-1.46-3.05-2.59-1.51a132.47,132.47,0,0,1-17.91,19.37c-3.26,3-6.63,5.82-10.15,8.47-.72.54-3.33,3.1-4.2,3l-3.49-3.82.93-.53a10.12,10.12,0,0,1,2.5-1.44,161.6,161.6,0,0,0,18.12-11.85,62.93,62.93,0,0,0,7.79-7,35.56,35.56,0,0,0,2.62-3.15,18.59,18.59,0,0,1,1.3-1.93c-.24.25,2.79-4,2.34-.79C159.94,105.53,162.83,106.34,163.1,104.44Z"/><rect class="cls-14" x="195.39" y="184.1" width="133.3" height="9.61" rx="4.8" ry="4.8" transform="translate(13.74 395.54) rotate(-75.55)"/><path d="M243.41,248l27.27-105.87c1.07-4.13,1.5-10,3.57-13.83,2.8-5.14,6.17-1.39,6.36,1.77a9.32,9.32,0,0,1-.43,1.67c-.4,2.6-1.35,5.22-2,7.77l-16,62.2-8.76,34-2.68,10.42a19.86,19.86,0,0,1-.69,2.68c-1.3,3.06-7.41,5.89-6.57-1.18.23-1.91-2.77-1.9-3,0-.72,6,6.48,10.23,10.86,5.34,1.33-1.49,1.64-3.5,2.12-5.36l6.4-24.86,19.09-74.11c1.51-5.87,3.53-11.82,4.59-17.79.73-4.16-1.9-8.46-6.53-8.06-3.53.31-5.08,2.94-5.95,6-5.62,19.51-10.15,39.4-15.22,59.06l-15.3,59.41C240,249.07,242.93,249.87,243.41,248Z"/><path class="cls-14" d="M281.48,134.54c3.31-2.3,2-7.32-.76-9.24h0c-2.8-1.92-6-.69-8.56,1.59-29,26.18-95.21,43.14-128.79,52a10.89,10.89,0,0,0-8,13h0c1.38,5.79,7.3,9.78,13,8C183.71,188.72,243.14,161.18,281.48,134.54Z"/><path d="M282.54,135.6a7.11,7.11,0,0,0,.95-9.58c-2.62-3.82-7.35-3.78-10.92-1.35-4.4,3-8.24,6.78-12.73,9.72a157.59,157.59,0,0,1-15.15,8.67c-22.35,11.33-46.51,19.05-70.54,25.92-10,2.88-20.17,5.39-30.23,8.21-9.19,2.57-14.12,13.36-6.73,20.92s19.68.6,27.88-2.47c11.83-4.42,23.48-9.34,35-14.56,28.44-12.89,56.45-27.47,82.17-45.24,1.58-1.09.08-3.69-1.51-2.59-37.05,25.6-79,46.1-121.36,61.3A116,116,0,0,1,148,198.41c-9.23,2.24-15.31-9.78-8.14-16,3-2.64,8.21-3.19,12-4.19,4.59-1.22,9.17-2.44,13.75-3.7,19.55-5.38,39-11.28,57.88-18.74a243.17,243.17,0,0,0,29.78-13.86,131.38,131.38,0,0,0,12.6-8c1.66-1.21,3.29-2.46,4.87-3.77a30.5,30.5,0,0,1,2.52-2.18c5.91-3.82,11.9,1.34,7.2,5.53C279,134.77,281.1,136.88,282.54,135.6Z"/><rect class="cls-13" x="239.07" y="242.88" width="27.46" height="12.58" transform="translate(-95.23 318.92) rotate(-55.92)"/><path d="M251.08,262.77l-10.42-7,.53,2L256.58,235l-2,.54L265,242.62l-.54-2.05L249,263.31c-1.09,1.6,1.51,3.11,2.59,1.52L267,242.08a1.52,1.52,0,0,0-.53-2.05L256,233a1.52,1.52,0,0,0-2.05.54L238.6,256.26a1.54,1.54,0,0,0,.54,2.05l10.43,7.05C251.17,266.45,252.67,263.85,251.08,262.77Z"/><rect class="cls-10" x="268.97" y="229.42" width="42.09" height="89.85" rx="18.03" ry="18.03" transform="translate(-99.73 360.81) rotate(-55.92)"/><path d="M301.25,305.55l-28-18.94c-10.76-7.27-30.74-16.66-21.59-33,4.64-8.29,12.13-15.77,22.49-12.69,4.32,1.29,8.36,4.74,12,7.24l34,23c7.62,5.15,13.11,13.16,8.75,22.64-5,10.82-16.14,18.93-27.75,11.71-1.64-1-3.15,1.57-1.51,2.59,9.45,5.88,20.94,3.33,27.31-5.7,5.56-7.88,9.13-16.75,3.51-25.82-3-4.9-8.49-7.81-13.15-11L295.65,251c-5-3.41-10-7-15.11-10.23-8.28-5.29-19.22-4.37-25.82,3.23-5.94,6.85-10.37,15.74-6.91,24.8,2.34,6.1,7.35,9.23,12.44,12.68l39.49,26.71C301.34,309.23,302.84,306.63,301.25,305.55Z"/><rect class="cls-9" x="254.09" y="223.43" width="10.42" height="148.39" transform="translate(-132.51 345.6) rotate(-55.92)"/><path d="M318.58,342.23l-107.7-72.88-15.2-10.28.54,2.05,5.84-8.63L200,253l107.71,72.88,15.19,10.28-.54-2.06-5.84,8.63c-1.08,1.61,1.52,3.11,2.59,1.52l5.84-8.63a1.53,1.53,0,0,0-.54-2.06l-107.7-72.87-15.2-10.28a1.53,1.53,0,0,0-2.05.54l-5.84,8.63a1.53,1.53,0,0,0,.54,2.05l107.71,72.88,15.19,10.28C318.67,345.9,320.18,343.3,318.58,342.23Z"/><path class="cls-13" d="M171.52,109.46l-1.13-.92c-.2-.45-.49-.51-.83-.67l-.66-.54c-.25-.38-.11-.68-.56-1.09s-.85-.15-1.39-.64-.22-.84-.76-1.33-.85-.15-1.39-.64-.22-.84-.76-1.33-.85-.15-1.39-.64-.22-.83-.75-1.32-.86-.15-1.39-.64-.23-.84-.76-1.33-.86-.15-1.39-.64-.23-.84-.76-1.33-.85-.15-1.39-.64-.22-.83-.76-1.33-.73-.25-1.12-.44l-.63-.65c-.2-.33-.31-.63-.77-.79-.33-.33-.65-.66-1-1a5.23,5.23,0,0,0-7.06,7.71c.38.3.74.61,1.11.91a1.27,1.27,0,0,0,.82.67l.71.59c.22.36.11.66.54,1s.85.15,1.39.64.22.84.76,1.33.85.15,1.39.64.22.84.76,1.33.85.15,1.39.64.22.83.76,1.33.85.14,1.39.64.22.83.76,1.32.85.15,1.38.64.23.84.76,1.33.86.15,1.39.64.23.84.76,1.33.73.25,1.11.44l.65.66c.19.33.31.63.77.79l1,1a5.23,5.23,0,0,0,7.06-7.71Z"/><path d="M172.58,108.4c-4.18-3.41-7.6-7.5-11.66-10.94-3.69-3.14-9.14-10.48-14.79-8.34a6.81,6.81,0,0,0-3.42,9.82c1.26,2.07,4.47,4.92,6.34,6.42,3.95,3.17,7.42,6.82,11.17,10.22,2.68,2.43,5.94,5.42,9.9,4.1,5.14-1.73,5.55-7.58,2.46-11.28-1.24-1.48-3.35.65-2.12,2.12q-3,6.95-6.05,4.48a1.52,1.52,0,0,1-.39-.37,6.62,6.62,0,0,1-1-1.08c-.66-.63-1.35-1.23-2-1.89-1.53-1.49-3.52-2.72-5-4.25a54.33,54.33,0,0,0-4.84-4.38c-.85-.7-4.89-3.83-5.18-4.83l5.91-4.59a1.82,1.82,0,0,1,.42.36c.29.11.74.85,1,1.08.73.69,1.45,1.29,2.18,2,1.54,1.5,3.51,2.72,5,4.25a114.28,114.28,0,0,0,10,9.21C171.94,111.73,174.08,109.62,172.58,108.4Z"/><path class="cls-13" d="M151.08,90.76l1,1.06c.49.18.61.5.83.85l.68.68c.41.22.7.07,1.17.5s.27.88.84,1.4.89.19,1.47.71.26.87.83,1.4.9.18,1.47.71.26.87.84,1.4.89.18,1.46.71.27.87.84,1.4.89.18,1.47.71.26.87.83,1.4.89.18,1.47.71.26.87.84,1.39.89.19,1.46.71.35.76.62,1.15l.71.58c.35.18.66.25.88.73l1.21,1a5.23,5.23,0,1,1-7.05,7.7l-1-1.05c-.49-.18-.62-.49-.83-.84l-.7-.71c-.4-.21-.7-.07-1.16-.5s-.27-.87-.84-1.39-.89-.19-1.47-.71-.26-.87-.83-1.4-.9-.18-1.47-.71-.26-.87-.84-1.4-.89-.18-1.46-.71-.26-.87-.84-1.4-.89-.18-1.47-.71-.26-.87-.83-1.4-.89-.18-1.47-.71-.26-.87-.84-1.39-.89-.19-1.46-.72-.36-.73-.6-1.11l-.76-.63a1.44,1.44,0,0,1-.87-.72l-1.19-1a5.23,5.23,0,1,1,7.05-7.7Z"/><path d="M150,91.82c3.5,3.55,7.09,6.67,10.83,9.82,1.85,1.55,3.47,3.56,5.26,5.22.81.75,1.64,1.37,2.44,2.14.56.55,1.31.93,1.84,1.51,3.82,4.2.29,9-4.48,5.82-4.08-2.68-7.2-6.85-10.89-9.91-1.79-1.48-3.33-3.3-5.05-4.87-.93-.85-1.88-1.57-2.82-2.45a17.18,17.18,0,0,1-1.47-1.21,4.82,4.82,0,0,1-1.94-4.58q3.78-4,6.59-1.26c1.55,1.15,3-1.46,1.51-2.59-3.19-2.35-7.64-2.42-10.06,1.1-2.75,4-.15,7.62,2.76,10.41,3.9,3.74,8.38,7.14,12.09,11s10.31,11.75,16.17,7.44c7.31-5.38-1.78-12.66-5.71-16.33-4.87-4.55-10.2-8.57-15-13.41C150.79,88.32,148.67,90.44,150,91.82Z"/><path class="cls-15" d="M147.38,183.82a4.93,4.93,0,1,0,4.42,5.4A4.94,4.94,0,0,0,147.38,183.82Z"/><path d="M147.38,182.32a6.53,6.53,0,1,0,.4.05c-1.89-.29-2.7,2.6-.8,2.89a3.6,3.6,0,0,1,3.35,3.42,3.46,3.46,0,0,1-3.73,3.46c-4.56-.38-3.73-7,.78-6.82C149.31,185.41,149.31,182.41,147.38,182.32Z"/><path class="cls-16" d="M147.22,193l.85-8.56.35.11-.83,8.41Z"/><path d="M148.72,193l.85-8.56-1.9,1.44.35.12-1.1-1.45-.83,8.41,1.5-1.5-.37,0c-1.9.21-1.92,3.21,0,3l.37,0a1.57,1.57,0,0,0,1.5-1.5l.83-8.41a1.49,1.49,0,0,0-1.1-1.44l-.35-.12a1.52,1.52,0,0,0-1.9,1.45l-.85,8.56C145.52,195,148.53,194.94,148.72,193Z"/><path class="cls-17" d="M145.77,192.89l.85-8.56H147l-.86,8.66A2.37,2.37,0,0,1,145.77,192.89Z"/><path d="M147.27,192.89l.85-8.56-1.5,1.5H147l-1.5-1.5-.86,8.66,1.89-1.45-.35-.08c-1.88-.44-2.68,2.46-.8,2.89l.36.08a1.52,1.52,0,0,0,1.9-1.44l.86-8.66a1.51,1.51,0,0,0-1.5-1.5h-.37a1.55,1.55,0,0,0-1.5,1.5l-.85,8.56C144.08,194.81,147.08,194.8,147.27,192.89Z"/><path class="cls-18" d="M146.44,193.36a2.32,2.32,0,0,1-.38-.06l.92-9.22.38,0a4.77,4.77,0,0,1,.77.15l-.91,9.12A4.07,4.07,0,0,1,146.44,193.36Z"/><path d="M146.84,191.92l-.38-.06,1.1,1.44.92-9.22-1.5,1.5a2.43,2.43,0,0,1,.75.11l-1.1-1.44-.91,9.12,1.5-1.5a4.07,4.07,0,0,1-.78,0c-1.93-.09-1.92,2.91,0,3a4.07,4.07,0,0,0,.78,0,1.54,1.54,0,0,0,1.5-1.5l.91-9.12a1.51,1.51,0,0,0-1.1-1.45,9.18,9.18,0,0,0-1.55-.22,1.53,1.53,0,0,0-1.5,1.5l-.92,9.22a1.49,1.49,0,0,0,1.1,1.45l.38.06C147.93,195.1,148.74,192.21,146.84,191.92Z"/></g></svg>