<svg xmlns="http://www.w3.org/2000/svg" viewBox="0 0 381.28 380.33"><defs><style>.cls-1{fill:#e1262f;}.cls-2{fill:#ed7d82;}.cls-3{fill:#f7c402;}.cls-3,.cls-6{fill-rule:evenodd;}.cls-4{fill:#7dc4ca;}.cls-5,.cls-6{fill:#4386c6;}</style></defs><title>Automata 2 prueba</title><g id="gráficos"><rect class="cls-1" x="4.14" y="3.67" width="373" height="373" rx="23.02" ry="23.02"/><path d="M354.12,375.17H33.62c-7.27,0-14.13.11-20.23-5-7.09-5.91-7.75-13.81-7.75-22.12V63.81c0-12.34-.38-24.75,0-37.09C6.06,13,17,5.17,29.81,5.17h278.9c14.84,0,29.68-.14,44.51,0,12.75.11,22.3,9.5,22.42,22.3,0,4.81,0,9.62,0,14.43V350.79c0,12.86-7.62,24-21.52,24.38-1.93.05-1.93,3.05,0,3,14.41-.44,24.44-11.7,24.52-25.81,0-5.5,0-11,0-16.51V71.73c0-14.8.15-29.62,0-44.42A24.94,24.94,0,0,0,354,2.17c-4-.09-8,0-12.06,0H29.62c-11.38,0-21.84,5.32-25.7,16.72C2.25,23.8,2.64,29.14,2.64,34.26v314.1c0,7.21.37,14,5,20.15,5.85,7.69,14.43,9.66,23.46,9.66h323A1.5,1.5,0,0,0,354.12,375.17Z"/><rect class="cls-2" x="27.63" y="27.15" width="326.03" height="326.03" rx="23.02" ry="23.02"/><path d="M330.64,351.68H74.24c-12,0-30.23,2.95-39.27-6.77-8.71-9.38-5.84-27.12-5.84-38.94V152.58c0-34.08-1.06-68.34,0-102.41.41-13.42,11-21.52,23.74-21.52H293.44c12.23,0,24.5-.3,36.73,0,12.51.31,21.85,9.62,22,22.19.05,4.16,0,8.32,0,12.48V328.13c0,12.66-8.23,23.15-21.51,23.55-1.93.06-1.94,3.06,0,3,14-.42,24.37-11.28,24.51-25.19.05-4.31,0-8.63,0-12.94v-227c0-12.94.25-25.89,0-38.82-.26-13.81-10.57-24.68-24.52-25-3-.08-6,0-8.95,0h-269c-9.9,0-19.11,4.13-23.83,13.3-2.72,5.29-2.71,10.73-2.71,16.43V325.53c0,6.4.33,12.5,4,18.12,5.26,8,13.78,11,22.9,11H330.64A1.5,1.5,0,0,0,330.64,351.68Z"/><polygon class="cls-3" points="131.05 145.66 242.7 294.11 302.47 327.4 287.53 260.4 175.88 111.95 131.05 145.66"/><path d="M129.76,146.42,191.87,229l38.6,51.33,9.74,12.94c1.9,2.53,4.27,3.54,7.08,5.11l54.42,30.31a1.53,1.53,0,0,0,2.21-1.7l-12.23-54.84c-.9-4-1.17-9.25-3.14-12.88s-5.21-6.93-7.67-10.2L201.44,143.46l-24.26-32.27a1.52,1.52,0,0,0-2.05-.54L130.3,144.37c-1.53,1.14,0,3.75,1.51,2.59l44.83-33.72-2-.53L236.1,194.5l38.44,51.11,10.21,13.57c.24.33,1.65,2.35,1.33,1.64.78,1.75.92,4.12,1.34,6l13.6,61,2.21-1.7-48.58-27.05c-3.19-1.77-6.34-3.71-9.61-5.35a11.42,11.42,0,0,1-1.57-.87c.95.71.48.41.1,0-2.86-3.37-5.36-7.13-8-10.66l-78.94-105-24.27-32.26C131.2,143.38,128.6,144.87,129.76,146.42Z"/><rect class="cls-4" x="115.94" y="122.54" width="93.22" height="36.68" rx="5.5" ry="5.5" transform="translate(-52.04 125.99) rotate(-36.95)"/><path d="M205.66,129.53l-34.84,26.2L148,172.93c-3.65,2.75-9.75,9.54-14.1,4.86-2.8-3-5.08-6.76-7.56-10-2.31-3.08-5.41-6.21-7.22-9.61-2.07-3.86-.29-5.42,2.23-7.32l7.23-5.43,46.33-34.85,8.25-6.21c2.71-2,5.36-3.25,8.25-.19,3.32,3.5,6,8,8.9,11.83,2.5,3.32,9.44,9.68,5.1,13.8-1.41,1.34.72,3.46,2.12,2.13,3.66-3.49,2.85-7.39.18-11.06-3.18-4.36-6.5-8.63-9.75-13-4.09-5.44-8.21-12.06-15.51-6.75-16.07,11.7-31.8,23.92-47.69,35.87-5.5,4.14-11.3,8.07-16.59,12.48-7.73,6.43,2.07,15.1,6.18,20.56s9.34,16.45,17.43,11.3c5.76-3.67,11.09-8.34,16.54-12.44l48.9-36.78C208.7,131,207.2,128.37,205.66,129.53Z"/><line class="cls-5" x1="191.35" y1="225.84" x2="218.03" y2="167.98"/><path d="M192.65,226.59l26.67-57.85c.8-1.74-1.78-3.27-2.59-1.51l-26.67,57.85c-.81,1.74,1.78,3.27,2.59,1.51Z"/><line class="cls-5" x1="210.15" y1="250.84" x2="236.83" y2="192.99"/><path d="M211.45,251.6l26.67-57.86c.81-1.74-1.78-3.26-2.59-1.51l-26.67,57.85c-.81,1.74,1.78,3.27,2.59,1.52Z"/><line class="cls-5" x1="228.95" y1="275.84" x2="255.63" y2="217.99"/><path d="M230.25,276.6l26.68-57.86c.8-1.74-1.79-3.26-2.6-1.51l-26.67,57.85c-.8,1.74,1.78,3.27,2.59,1.52Z"/><path class="cls-6" d="M181.71,51,145.63,78.12,158,94.56l-38.68,29.09L107,107.21,70.86,134.35a20.18,20.18,0,0,0-4,28.26l10.64,14.15a20.18,20.18,0,0,0,28.26,4L216.62,97.4a20.19,20.19,0,0,0,4-28.27L210,55A20.19,20.19,0,0,0,181.71,51Z"/><path d="M181,49.69,144.87,76.83a1.52,1.52,0,0,0-.54,2L156.7,95.32l.53-2-38.67,29.08,2,.54-12.37-16.44a1.51,1.51,0,0,0-2-.53L80.42,125.3c-9.44,7.1-20.46,13.81-19,27.52.72,6.62,4.73,11.35,8.57,16.45,3.45,4.59,6.75,10.18,11.62,13.42,9.53,6.35,19.68,3.3,28-3,35.55-26.73,71.28-53.25,106.66-80.21,11.54-8.79,12.25-22.26,3.82-33.47-3.93-5.23-7.69-11.87-12.9-15.95A22,22,0,0,0,181,49.69c-1.57,1.1-.08,3.7,1.51,2.59A19.07,19.07,0,0,1,208.85,56c3.24,4,6.24,8.26,9.32,12.4C225.68,78.43,224,90,214,97.49l-45.64,34.33L113.75,172.9c-3.84,2.89-7.83,6.64-12.23,8.69-15.73,7.32-25.37-8.64-33.09-19.38-6.18-8.59-5.13-19.84,3.25-26.61,3.2-2.59,6.6-5,9.89-7.44l26.14-19.65-2.06-.54L118,124.41a1.51,1.51,0,0,0,2,.53l38.68-29.08a1.53,1.53,0,0,0,.54-2.06L146.92,77.37l-.53,2,36.08-27.14C184,51.13,182.5,48.53,181,49.69Z"/></g></svg>