<svg xmlns="http://www.w3.org/2000/svg" viewBox="0 0 381.28 380.33"><defs><style>.cls-1{fill:#c2e1e3;}.cls-2{fill:#daedee;}.cls-3{fill:#e66869;}.cls-4{fill:#e1262f;}.cls-5{fill:#f7c402;}</style></defs><title>Automata 1 prueba 4 nueva</title><g id="gráficos"><rect class="cls-1" x="4.14" y="3.67" width="373" height="373" rx="23.02" ry="23.02"/><path d="M354.12,375.17H33.62c-7.27,0-14.13.11-20.23-5-7.09-5.91-7.75-13.81-7.75-22.11V63.81c0-12.34-.38-24.75,0-37.09C6.06,13,17,5.17,29.81,5.17h278.9c14.84,0,29.68-.13,44.51,0,12.75.11,22.3,9.5,22.42,22.3.05,4.81,0,9.62,0,14.43V350.79c0,12.86-7.62,24-21.52,24.38-1.92.05-1.93,3.05,0,3,14.41-.44,24.44-11.7,24.52-25.81,0-5.5,0-11,0-16.51V71.74c0-14.81.15-29.62,0-44.43A24.94,24.94,0,0,0,354,2.17c-4-.09-8,0-12.05,0H29.62C18.24,2.17,7.78,7.5,3.92,18.89,2.25,23.81,2.64,29.14,2.64,34.26v314.1c0,7.22.37,14,5,20.15,5.85,7.69,14.43,9.66,23.47,9.66h323A1.5,1.5,0,0,0,354.12,375.17Z"/><rect class="cls-2" x="27.63" y="27.15" width="326.03" height="326.03" rx="23.02" ry="23.02"/><path d="M330.64,351.68H74.24c-12,0-30.23,2.95-39.27-6.77-8.71-9.38-5.84-27.11-5.84-38.93V152.58c0-34.08-1.06-68.34,0-102.41.41-13.42,11-21.52,23.74-21.52H293.44c12.23,0,24.5-.3,36.73,0,12.51.31,21.85,9.62,22,22.19,0,4.16,0,8.32,0,12.48V328.13c0,12.66-8.24,23.15-21.52,23.55-1.93.06-1.94,3.06,0,3,14-.42,24.37-11.28,24.52-25.19,0-4.31,0-8.62,0-12.93v-227c0-12.93.24-25.89,0-38.82-.27-13.81-10.58-24.68-24.53-25-3-.08-6,0-8.95,0h-269c-9.9,0-19.12,4.13-23.84,13.3-2.72,5.29-2.71,10.74-2.71,16.43V325.53c0,6.4.33,12.51,4,18.12,5.26,8,13.78,11,22.9,11H330.64A1.5,1.5,0,0,0,330.64,351.68Z"/><path class="cls-3" d="M96.14,106.63a9.55,9.55,0,0,0,2,11.2,11.08,11.08,0,0,0,.9.74l73.86,54,31.77-41.39-97.26-29.44A9.51,9.51,0,0,0,96.14,106.63Z"/><path d="M94.69,106.23c-2.77,6.77.85,11.62,6,15.41l15.66,11.46,44.53,32.58,11.24,8.23a1.54,1.54,0,0,0,2.06-.54L206,132a1.51,1.51,0,0,0-.9-2.2L113.27,102c-6.91-2.1-13.9-3.75-18.43,3.89a1.5,1.5,0,0,0,2.59,1.51c4.16-7,11.12-3.7,17.06-1.9L137,112.31l54.32,16.44,12.94,3.92-.89-2.2-31.77,41.39,2-.54-66.74-48.83c-5.28-3.87-12.6-7.47-9.34-15.46C98.31,105.25,95.41,104.47,94.69,106.23Z"/><path class="cls-3" d="M245.08,169.09l-39.53,34.43,58.95,70.27.78.83a9.52,9.52,0,0,0,15.42-10.28Z"/><path d="M244,168l-39.53,34.43a1.53,1.53,0,0,0,0,2.12l57.58,68.65c4.51,5.37,12.12,7.88,17.69,2,4.59-4.8,2.78-10.28.8-15.57l-18.14-48.51-15.9-42.5c-.67-1.79-3.57-1-2.89.8l30.88,82.58c1.52,4,3.36,8.1,4.58,12.25,2.26,7.65-5.73,15.34-12.75,9.24a21,21,0,0,1-2.15-2.45l-29.71-35.42-27.87-33.23v2.12l39.53-34.43C247.6,168.88,245.47,166.76,244,168Z"/><path class="cls-4" d="M77.53,239.6a4.11,4.11,0,0,0,1,4.5l.53.41,25.52,17.09,14.13-18.4L82,237.07A4.1,4.1,0,0,0,77.53,239.6Z"/><path d="M76.09,239.2c-1.47,6.34,6.26,9.32,10.57,12.21l17.16,11.49a1.54,1.54,0,0,0,2.05-.54L120,244a1.51,1.51,0,0,0-.89-2.21L96.38,238c-5.57-.93-16.43-5.19-20.14.88-1,1.66,1.58,3.17,2.59,1.52,1.82-3,5.93-1.31,8.52-.88l12.61,2.1,18.35,3.07-.9-2.21-14.13,18.41,2.06-.54-13.58-9.09-8.69-5.82c-1.93-1.3-4.8-2.35-4.09-5.4C79.41,238.12,76.52,237.32,76.09,239.2Z"/><path class="cls-4" d="M138.75,261.7l-17.69,15.42,19,24.64.45.48a4.09,4.09,0,0,0,6.78-3.92Z"/><path d="M137.69,260.64,120,276.05a1.5,1.5,0,0,0-.24,1.82l13.91,18c2.82,3.66,9.13,14.05,14.23,6.45,1.61-2.38.74-4.87.15-7.4l-2.91-12.45L140.2,261.3c-.44-1.88-3.33-1.08-2.89.8L141,278l2.81,12.06c.55,2.34,1.91,5.44,1.84,7.85,0,1.47,4,7.42-4.33,3.05-.51-.27-1.11-1.45-1.44-1.87l-6.53-8.46-11-14.28-.23,1.82,17.69-15.42C141.27,261.49,139.14,259.38,137.69,260.64Z"/><path class="cls-5" d="M275.88,141.62c11.74-13.55,29.69-41.33,13.81-60.57C271,67,241.26,88.8,231.08,98a24.38,24.38,0,0,0-2.62,2.38,24.69,24.69,0,0,0-2.3,2.93h0l-21.46,28L172.9,172.61,118.71,243.2l-14.13,18.4-4.29,5.59.31.29c-1.75,3.74-.68,8.69,2.93,12.08s8.59,4.1,12.21,2.13l0,0,.12-.11a8,8,0,0,0,1.93-1.47l1.09-1.16,2.14-1.86,17.69-15.42,66.8-58.18,39.53-34.43L271.57,146l0,0c.61-.47,1.17-1,1.75-1.55l0,0,.32-.34c.24-.24.52-.42.75-.68A23.07,23.07,0,0,0,275.88,141.62Z"/><path d="M276.94,142.68c8.46-9.86,16.16-21.38,19.27-34.16,2.68-11,1.28-26.36-10.47-31.47-10.69-4.66-22.94-.82-32.81,4.11s-21.45,12.26-28.07,21.37l2.06-.54,0,0a1.54,1.54,0,0,0-2,.54L173,170l-51.52,67.1L99,266.43a1.5,1.5,0,0,0,.23,1.82c-.84-.78-.88,4.7-.62,5.8a13.44,13.44,0,0,0,3.86,6.57,12.46,12.46,0,0,0,14,2.36l-1.82-.23,0,0a1.55,1.55,0,0,0,2.13,0c20.76-18.33,41.83-36.45,62.74-54.66l62.59-54.51,30.46-26.54a1.5,1.5,0,0,0,0-2.12l0,0V147c.6-.49,1.19-1,1.75-1.55h-2.12l0,0a1.51,1.51,0,0,0,2.12,0c.88-1,1.76-1.81,2.55-2.84,1.17-1.51-.94-3.64-2.12-2.12-.8,1-1.68,1.89-2.55,2.84h2.12l0,0a1.53,1.53,0,0,0-2.12,0c-.57.54-1.15,1.06-1.75,1.55a1.5,1.5,0,0,0,0,2.12l0,0V145l-64.28,56-63.86,55.63c-9.22,8-18.51,16-27.66,24.09h2.13l0,0a1.54,1.54,0,0,0-1.81-.24c-7.75,3.53-15.86-4.86-12.94-12.52a1.48,1.48,0,0,0-.39-1.46l-.31-.28.24,1.82Q127,234.77,152.53,201.6l50.24-65.46L227.43,104l-2.06.54,0,0a1.56,1.56,0,0,0,2.06-.54c5.64-7.77,15.3-13.88,23.58-18.49,9.16-5.1,20.78-9.82,31.34-6.56,13.41,4.14,13.51,21,10,32.09-3.48,10.93-10.14,20.83-17.55,29.48C273.57,142,275.68,144.15,276.94,142.68Z"/></g></svg>