<svg xmlns="http://www.w3.org/2000/svg" viewBox="0 0 381.28 380.33"><defs><style>.cls-1{fill:#8eb6e0;}.cls-2{fill:#b1dcdf;}.cls-3,.cls-7{fill:#4386c6;}.cls-3,.cls-4,.cls-6{stroke:#000;stroke-miterlimit:10;}.cls-4,.cls-8{fill:#e66869;}.cls-5,.cls-6{fill:#f7c402;}.cls-5,.cls-7,.cls-8{fill-rule:evenodd;}</style></defs><title>Automata 2 prueba</title><g id="gráficos"><rect class="cls-1" x="4.14" y="3.67" width="373" height="373" rx="23.02" ry="23.02"/><path d="M354.12,375.17H33.62c-7.27,0-14.13.11-20.23-5-7.09-5.91-7.75-13.81-7.75-22.12V63.81c0-12.34-.38-24.75,0-37.09C6.06,13,17,5.17,29.81,5.17h278.9c14.84,0,29.68-.14,44.51,0,12.75.11,22.3,9.5,22.42,22.3,0,4.81,0,9.62,0,14.43V350.79c0,12.86-7.62,24-21.52,24.38-1.93.05-1.93,3.05,0,3,14.41-.44,24.44-11.7,24.52-25.81,0-5.5,0-11,0-16.51V71.73c0-14.8.15-29.62,0-44.42A24.94,24.94,0,0,0,354,2.17c-4-.09-8,0-12.06,0H29.62c-11.38,0-21.84,5.32-25.7,16.72C2.25,23.8,2.64,29.14,2.64,34.26v314.1c0,7.21.37,14,5,20.15,5.85,7.69,14.43,9.66,23.46,9.66h323A1.5,1.5,0,0,0,354.12,375.17Z"/><rect class="cls-2" x="27.63" y="27.15" width="326.03" height="326.03" rx="23.02" ry="23.02"/><path d="M330.64,351.68H74.24c-12,0-30.23,2.95-39.27-6.77-8.71-9.38-5.84-27.12-5.84-38.94V152.58c0-34.08-1.06-68.34,0-102.41.41-13.42,11-21.52,23.74-21.52H293.44c12.23,0,24.5-.3,36.73,0,12.51.31,21.85,9.62,22,22.19.05,4.16,0,8.32,0,12.48V328.13c0,12.66-8.23,23.15-21.51,23.55-1.93.06-1.94,3.06,0,3,14-.42,24.37-11.28,24.51-25.19.05-4.31,0-8.63,0-12.94v-227c0-12.94.25-25.89,0-38.82-.26-13.81-10.57-24.68-24.52-25-3-.08-6,0-8.95,0h-269c-9.9,0-19.11,4.13-23.83,13.3-2.72,5.29-2.71,10.73-2.71,16.43V325.53c0,6.4.33,12.5,4,18.12,5.26,8,13.78,11,22.9,11H330.64A1.5,1.5,0,0,0,330.64,351.68Z"/><circle class="cls-3" cx="296.87" cy="208.3" r="25"/><circle class="cls-4" cx="149.51" cy="229.71" r="70"/><path class="cls-5" d="M164.47,293.85c-35.09,8.15-70.8-14.1-78.95-49.18s14.09-70.79,49.18-78.95a65.77,65.77,0,0,1,29.77,128.13Zm-21.12-90.91a27.56,27.56,0,0,1,12.47,53.7,27.56,27.56,0,1,1-12.47-53.7Zm-4.29-18.44a46.51,46.51,0,0,1,21.05,90.6,46.51,46.51,0,1,1-21.05-90.6Zm112.48,34.23-5.72-24.63-19.29,4.47c-2.57-5-5.29-10.68-8.54-15.54l15-14L215.4,150.66l-15,14a51.75,51.75,0,0,0-14.78-9.2l6-19.62-24.09-7-6.1,19a126.63,126.63,0,0,0-17.74-.78l-4.48-19.31-24.62,5.72,4.48,19.31a124,124,0,0,0-15.56,8.51L89.66,146.89l-18.52,17L84.46,179a105.21,105.21,0,0,0-9.18,14.76l-19-6.12L48.6,211.85l19.63,6a53.86,53.86,0,0,0-.79,17.71l-20,4.64,5.72,24.63,20-4.64a49.38,49.38,0,0,0,8.52,15.57l-15,14,17.6,18.36,14.49-13.17c4.91,3.06,10,6.78,14.75,9.18l-5.44,18.81,24.24,7.71,6.11-19a69.2,69.2,0,0,0,17.57.12l4.64,20L185.27,326l-4.64-20a69.9,69.9,0,0,0,15.73-7.86l13.84,14.34,18.36-17.61-13.87-14.33c3.91-4.41,6.82-10,9.21-14.75l19.48,5.29,7.68-24.24-19.62-5.95a121.88,121.88,0,0,0,.81-17.74l19.29-4.47Z"/><path d="M164.07,292.41a65.36,65.36,0,0,1-68.34-27.64c-14.65-22.38-13.37-51.92,2.46-73.32A64.14,64.14,0,0,1,213.84,228c.86,30.53-20.33,57.21-49.77,64.38-1.88.45-1.08,3.35.79,2.89,27.16-6.61,48-29.2,51.48-57.09a67.17,67.17,0,0,0-113.5-56.63c-20,19.52-26.09,50.2-14.61,75.74,13.07,29.07,45.75,44.8,76.63,38C166.75,294.88,166,292,164.07,292.41Z"/><path d="M143.75,204.39c14-2.89,27.95,5.4,31.24,19.56,3.18,13.73-5.78,28.17-19.57,31.25s-28.07-5.85-31.24-19.57c-3.26-14.08,5.87-27.69,19.57-31.24a1.5,1.5,0,0,0-.8-2.89,29.57,29.57,0,0,0-22.19,24.66,29.17,29.17,0,0,0,15.88,29.51c23.86,11.92,50.1-13.14,39.55-37.56-5.63-13-19.61-19.43-33.24-16.61C141.06,201.88,141.86,204.78,143.75,204.39Z"/><path d="M139.46,185.94c18.45-4,37.76,3.2,48,19.36a45.81,45.81,0,0,1-1.8,51.49,45.11,45.11,0,0,1-81.09-26.27c-.39-21.25,14.51-39.52,34.9-44.58,1.88-.46,1.08-3.36-.79-2.89-19.3,4.79-34.21,20.77-36.73,40.65a48,48,0,1,0,91.6-13.26c-9.23-21.42-32.39-32.27-54.87-27.39C136.78,183.46,137.58,186.35,139.46,185.94Z"/><path d="M253,218.33l-5.72-24.63a1.52,1.52,0,0,0-1.84-1l-19.29,4.48,1.7.69a170.87,170.87,0,0,0-8.54-15.54l-.24,1.82,15-14a1.53,1.53,0,0,0,0-2.12L216.46,149.6a1.53,1.53,0,0,0-2.12,0l-15,14h2.12a57.84,57.84,0,0,0-15.08-9.43l.69,1.69,6-19.62a1.52,1.52,0,0,0-1.05-1.84l-24.09-7a1.51,1.51,0,0,0-1.84,1l-6.1,19,1.44-1.1a142,142,0,0,0-17.74-.78l1.45,1.1-4.48-19.31a1.54,1.54,0,0,0-1.85-1L114.18,132a1.53,1.53,0,0,0-1.05,1.85l4.48,19.3.69-1.69a139.68,139.68,0,0,0-15.56,8.52l1.82.23L90.72,145.83a1.53,1.53,0,0,0-2.12,0L70.08,162.78a1.52,1.52,0,0,0,0,2.12L83.4,180l-.23-1.82A114.63,114.63,0,0,0,74,193l1.69-.69-19-6.11a1.51,1.51,0,0,0-1.84,1.05l-7.71,24.23a1.52,1.52,0,0,0,1,1.85l19.63,6-1-1.85a59.49,59.49,0,0,0-.85,18.11l1.1-1.45-20,4.64a1.52,1.52,0,0,0-1,1.85l5.72,24.63a1.52,1.52,0,0,0,1.84,1l20-4.63-1.84-1.05a56.83,56.83,0,0,0,8.9,16.23v-2.12l-15,14a1.52,1.52,0,0,0,0,2.12l17.6,18.36a1.52,1.52,0,0,0,2.12,0L99.84,296,98,296.2c4.89,3.1,9.61,6.48,14.74,9.19l-.69-1.7-5.44,18.82a1.52,1.52,0,0,0,1,1.84l24.24,7.71a1.53,1.53,0,0,0,1.85-1.05l6.11-19-1.45,1.11a77.62,77.62,0,0,0,17.57.12l-1.45-1.1,4.64,20a1.54,1.54,0,0,0,1.85,1.05l24.62-5.72a1.54,1.54,0,0,0,1.05-1.85l-4.64-20L181,307.5a79.72,79.72,0,0,0,16.09-8l-1.82-.24,13.84,14.34a1.53,1.53,0,0,0,2.12,0L229.62,296a1.52,1.52,0,0,0,0-2.12l-13.87-14.33v2.13a75.79,75.79,0,0,0,9.45-15.06l-1.69.69L243,272.57a1.52,1.52,0,0,0,1.84-1l7.68-24.24a1.53,1.53,0,0,0-1-1.85l-19.62-5.94,1.1,1.44a136.48,136.48,0,0,0,.81-17.74l-1.1,1.45,19.29-4.48c1.88-.43,1.08-3.33-.8-2.89l-19.29,4.48a1.53,1.53,0,0,0-1.1,1.44,136.48,136.48,0,0,1-.81,17.74,1.52,1.52,0,0,0,1.11,1.45l19.61,6-1-1.85-7.68,24.24,1.84-1.05L224.3,264.4a1.51,1.51,0,0,0-1.69.69,72.65,72.65,0,0,1-9,14.44,1.54,1.54,0,0,0,0,2.13L227.5,296v-2.12l-18.36,17.6h2.12l-13.84-14.33a1.51,1.51,0,0,0-1.82-.23,76,76,0,0,1-15.37,7.71,1.53,1.53,0,0,0-1,1.84l4.63,20,1.05-1.85-24.62,5.72,1.84,1-4.63-20a1.52,1.52,0,0,0-1.45-1.1,77.62,77.62,0,0,1-17.57-.12,1.52,1.52,0,0,0-1.45,1.1l-6.11,19,1.85-1-24.24-7.71,1,1.84L115,304.49a1.51,1.51,0,0,0-.69-1.69c-5.13-2.71-9.85-6.09-14.74-9.19a1.53,1.53,0,0,0-1.82.24L83.23,307h2.12l-17.6-18.36v2.12l15-14a1.53,1.53,0,0,0,0-2.12,52.22,52.22,0,0,1-8.13-14.91,1.55,1.55,0,0,0-1.85-1.05l-20,4.64,1.84,1-5.72-24.63-1.05,1.84,20-4.63a1.51,1.51,0,0,0,1.1-1.45,56.79,56.79,0,0,1,.74-17.31,1.54,1.54,0,0,0-1.05-1.85L49,210.4l1,1.85L57.76,188l-1.85,1.05,19,6.12a1.53,1.53,0,0,0,1.7-.69,114,114,0,0,1,9.18-14.76,1.52,1.52,0,0,0-.24-1.82L72.2,162.78v2.12l18.52-17H88.6l13.84,14.34a1.53,1.53,0,0,0,1.82.23A138.79,138.79,0,0,1,119.82,154a1.52,1.52,0,0,0,.69-1.69L116,133l-1,1.84,24.62-5.71-1.85-1,4.49,19.31a1.52,1.52,0,0,0,1.44,1.1,142,142,0,0,1,17.74.78,1.51,1.51,0,0,0,1.45-1.1l6.1-19-1.85,1.05,24.1,7.05-1.05-1.85-6,19.62a1.5,1.5,0,0,0,.69,1.7,55.2,55.2,0,0,1,14.47,9,1.54,1.54,0,0,0,2.12,0l15-14h-2.12l17.57,18.36V168l-15,14a1.53,1.53,0,0,0-.23,1.82,176.14,176.14,0,0,1,8.54,15.54,1.51,1.51,0,0,0,1.69.69l19.28-4.48-1.84-1,5.72,24.63C250.53,221,253.42,220.21,253,218.33Z"/><circle class="cls-6" cx="261.82" cy="105.41" r="39"/><path class="cls-7" d="M269,136.82c-16.63,3.86-33.85-6.87-37.87-24.18s6.71-34.52,23.33-38.39A32.12,32.12,0,1,1,269,136.82ZM259,93.1a13,13,0,0,1,15.59,9.44,12.89,12.89,0,0,1-25.1,5.83A13,13,0,0,1,259,93.1Zm-2.44-10A23,23,0,1,1,267,128c-12.28,2.85-24.26-5-27.12-17.34s4.41-24.68,16.7-27.53Zm62.76,16.78-3.24-14-11.31,2.63c-1.46-3.16-2.88-6.35-4.83-8.71l8.74-7.64L298.44,61.23l-7.93,8.15a68.86,68.86,0,0,0-8.35-5.76L285.31,53l-13.54-3.86-3.16,10.54a49.9,49.9,0,0,0-9.93-.49l-2.47-10.64-14,3.25,2.47,10.63c-3.16,1.44-6.34,2.88-8.69,4.82l-7.48-8.06L218.1,68.65l7.49,8.11a66.22,66.22,0,0,0-5,8.86L209.24,82l-3.86,13.52,10.7,3.82c0,2.83-.59,6.48.18,9.79L205,111.71l3.24,14L219.5,123c.62,2.66,2.73,5.7,4,8.21l-7.92,8.15,10.1,10.26,8.07-7.48c2.45,1.54,5.08,3.73,8.21,5.1l-3.15,10.58,13.52,3.86,3.15-10.55c3,.72,6.46.61,9.93.51l2.47,10.63,14-3.24-2.47-10.64a49.78,49.78,0,0,0,8.69-4.83l7.49,8.07L306,142.24l-7.49-8.1c2.19-2.61,3.58-5.73,5.11-8.19l10.56,3.15,4.53-13.66-11.36-3.67c.71-3,.58-6.47.64-9.29l11.31-2.62Z"/><path d="M268.58,135.37a30.75,30.75,0,0,1-36-23.13c-3.68-15.92,6.21-32.79,22.28-36.54a30.85,30.85,0,0,1,36.72,23c3.82,16.56-6.79,32.58-23,36.71-1.87.48-1.08,3.37.8,2.89a33.62,33.62,0,0,0,7.18-62.91,33.33,33.33,0,0,0-37.66,5.82,34.13,34.13,0,0,0-7.33,37.6,33.68,33.68,0,0,0,37.81,19.49C271.26,137.87,270.46,135,268.58,135.37Z"/><path d="M259.41,94.55c6-1.06,12.29,2.16,13.74,8.39s-2.82,12.09-8.78,13.48c-14.07,3.28-18.73-17.84-5-21.87,1.85-.54,1.06-3.44-.8-2.89-7.31,2.14-12.35,9.4-10.55,17.1a14.37,14.37,0,0,0,28.11-5.93c-1.54-8.27-9.69-12.56-17.56-11.17C256.71,92,257.52,94.88,259.41,94.55Z"/><path d="M257,84.52c11.42-2.28,23.17,4.57,25.82,16.18a21.86,21.86,0,0,1-16.19,25.8c-11.14,2.58-22.23-4.73-25.09-15.62A21.49,21.49,0,0,1,257,84.52a1.5,1.5,0,0,0-.79-2.89c-21.44,5.67-24.88,35.87-4.78,45.89,19.86,9.9,41.63-11.64,32.92-31.72-4.76-11-16.65-16.47-28.14-14.17C254.27,82,255.08,84.9,257,84.52Z"/><path d="M320.78,99.46l-3.24-14a1.52,1.52,0,0,0-1.85-1l-11.31,2.62,1.69.69a46.85,46.85,0,0,0-4.82-8.71L301,80.87l8.74-7.64a1.51,1.51,0,0,0,0-2.12L299.5,60.17a1.51,1.51,0,0,0-2.12,0l-7.93,8.15h2.12a86.11,86.11,0,0,0-8.66-6l.69,1.7,3.16-10.58a1.53,1.53,0,0,0-1.05-1.85l-13.54-3.85a1.53,1.53,0,0,0-1.85,1l-3.16,10.53,1.85-1a66,66,0,0,0-10.33-.54l1.45,1.1-2.47-10.64a1.54,1.54,0,0,0-1.85-1l-14,3.25a1.53,1.53,0,0,0-1.05,1.85l2.47,10.63.69-1.69A45,45,0,0,0,235.25,66l1.82.23-7.48-8.06a1.52,1.52,0,0,0-2.12,0L217,67.59a1.53,1.53,0,0,0,0,2.12l7.49,8.11L224.29,76a83.61,83.61,0,0,0-5,8.86l1.7-.69L209.64,80.5a1.51,1.51,0,0,0-1.84,1l-3.86,13.52a1.54,1.54,0,0,0,1,1.85l10.7,3.82-1.1-1.45a48.87,48.87,0,0,0,.23,10.19l1.05-1.84-11.31,2.62a1.53,1.53,0,0,0-1.05,1.85l3.24,14a1.53,1.53,0,0,0,1.85,1.05l11.31-2.63-1.84-1c.95,3.08,2.63,5.75,4.15,8.57l.23-1.82-7.91,8.15a1.52,1.52,0,0,0,0,2.12l10.1,10.26a1.52,1.52,0,0,0,2.12,0l8.07-7.48-1.82.23a76.46,76.46,0,0,0,8.21,5.11l-.69-1.7-3.14,10.58a1.51,1.51,0,0,0,1.05,1.84l13.51,3.86a1.52,1.52,0,0,0,1.85-1l3.15-10.55-1.85,1.05a47,47,0,0,0,10.33.56l-1.45-1.1,2.47,10.63a1.53,1.53,0,0,0,1.85,1l14-3.25a1.52,1.52,0,0,0,1.05-1.84L280.85,148l-.69,1.69a61.38,61.38,0,0,0,8.69-4.82l-1.82-.24,7.49,8.07a1.52,1.52,0,0,0,2.12,0l10.45-9.42a1.53,1.53,0,0,0,0-2.13l-7.49-8.1.23,1.82a75.35,75.35,0,0,0,5.11-8.2l-1.69.69,10.56,3.16a1.52,1.52,0,0,0,1.84-1.05l4.54-13.66a1.53,1.53,0,0,0-1.05-1.85l-11.36-3.66,1.05,1.84a56,56,0,0,0,.69-9.69l-1.1,1.45,11.31-2.63c1.88-.43,1.09-3.33-.79-2.89L307.62,101a1.52,1.52,0,0,0-1.1,1.44,50.84,50.84,0,0,1-.59,8.89,1.56,1.56,0,0,0,1.05,1.85l11.37,3.66L317.3,115l-4.54,13.66,1.84-1L304,124.5a1.53,1.53,0,0,0-1.69.69,75.22,75.22,0,0,1-5.11,8.19,1.51,1.51,0,0,0,.24,1.82l7.49,8.11v-2.13l-10.45,9.43h2.12l-7.49-8.07a1.5,1.5,0,0,0-1.81-.23,61.38,61.38,0,0,1-8.69,4.82,1.52,1.52,0,0,0-.69,1.7l2.47,10.63,1.05-1.84-14,3.25,1.85,1-2.47-10.64a1.52,1.52,0,0,0-1.45-1.1,43.41,43.41,0,0,1-9.53-.45,1.52,1.52,0,0,0-1.84,1.05l-3.16,10.54,1.85-1-13.52-3.86,1.05,1.84,3.14-10.57a1.5,1.5,0,0,0-.68-1.69,75.61,75.61,0,0,1-8.22-5.11,1.52,1.52,0,0,0-1.81.24l-8.07,7.48h2.12l-10.1-10.26v2.12l7.92-8.15a1.54,1.54,0,0,0,.23-1.81c-1.39-2.59-3-5-3.85-7.85a1.53,1.53,0,0,0-1.85-1.05l-11.31,2.63,1.85,1-3.25-14-1,1.85,11.31-2.63a1.55,1.55,0,0,0,1.05-1.85,46,46,0,0,1-.13-9.39,1.54,1.54,0,0,0-1.1-1.45L205.78,94l1.05,1.85,3.86-13.53-1.85,1,11.38,3.67a1.49,1.49,0,0,0,1.69-.69,83.61,83.61,0,0,1,5-8.86,1.53,1.53,0,0,0-.23-1.81l-7.49-8.11v2.12l10.43-9.42h-2.12L235,68.35a1.51,1.51,0,0,0,1.82.24,45.2,45.2,0,0,1,8.69-4.82,1.53,1.53,0,0,0,.69-1.69l-2.48-10.64-1,1.84,14-3.24-1.84-1,2.47,10.63a1.52,1.52,0,0,0,1.44,1.11,59.48,59.48,0,0,1,9.53.44,1.56,1.56,0,0,0,1.85-1.05l3.16-10.54-1.85,1.05,13.54,3.86-1.05-1.85-3.15,10.58a1.53,1.53,0,0,0,.69,1.69,80.77,80.77,0,0,1,8.05,5.53,1.53,1.53,0,0,0,2.12,0l7.93-8.15h-2.12l10.25,10.94V71.11l-8.74,7.64a1.48,1.48,0,0,0-.23,1.81,46.61,46.61,0,0,1,4.82,8.72,1.53,1.53,0,0,0,1.7.69l11.31-2.63-1.85-1,3.25,14C318.32,102.13,321.22,101.34,320.78,99.46Z"/><path class="cls-8" d="M301.59,228.84c-11.31,2.63-22.13-4.66-24.76-16a20.5,20.5,0,0,1,39.93-9.28c2.64,11.33-3.87,22.65-15.17,25.27ZM293.74,195a13.48,13.48,0,0,1,16.35,10.17c1.73,7.44-2.62,15.15-10.07,16.88s-14.72-3.27-16.45-10.72A13.47,13.47,0,0,1,293.74,195Zm1.54,6.61a6.94,6.94,0,0,1,8.37,5.21A7,7,0,1,1,290.07,210a6.94,6.94,0,0,1,5.21-8.36Zm38.53,2.9-2-8.66-7.31,1.7a20.49,20.49,0,0,0-2.88-6.35l5.21-4.71L321,179.45,315.27,185a31,31,0,0,0-5.09-3.76l1.93-6.74L303,171.69l-1.91,6.76a20.24,20.24,0,0,0-6.32.07l-1.7-7.32-9.31,2.16,1.7,7.32a20.19,20.19,0,0,0-5.69,2.72l-4.7-5.22-6.92,6.52,4.72,5.2a30.76,30.76,0,0,0-2.91,5.61l-6.91-2.61L260.29,202l6.75,1.93a20.43,20.43,0,0,0,.21,7l-7.31,1.7,2,8.66,7.31-1.7a20.41,20.41,0,0,0,2.72,5.68l-5.2,4.71,6.5,6.9,5.21-4.71c1.64,1,3.44,2.7,5.08,3.73l-1.94,6.75,9.09,2.82,1.75-7.43,6.47.59,1.55,6.67,9.31-2.16-1.55-6.67c1.87-1.13,3.68-2.26,5.54-3.39l4.85,5.9,6.92-6.53-4.71-5.21c1-1.65,1.88-4,2.92-5.59l7.41,1.78,2.13-8.9-6.75-1.94a20.35,20.35,0,0,0-.06-6.29l7.31-1.7Z"/><path d="M301.19,227.39a19.44,19.44,0,0,1-22.74-14.27A19,19,0,1,1,315.32,204a19.5,19.5,0,0,1-14.13,23.42,1.51,1.51,0,0,0,.8,2.9,22.53,22.53,0,0,0,16.22-27.11,22,22,0,0,0-42.83,10.07,22.53,22.53,0,0,0,26.61,17C303.88,229.91,303.08,227,301.19,227.39Z"/><path d="M294.14,196.48c15-2.73,20.82,19.75,6.12,24-6.54,1.88-13.24-2.42-15.05-8.81-2-6.95,2.24-13.26,8.93-15.16a1.5,1.5,0,0,0-.8-2.89c-8,2.26-13.2,9.83-11.22,18.17s10.58,14,18.94,11.59c7.63-2.17,12.07-10.23,10.6-17.89-1.68-8.74-9.89-13.4-18.32-11.87C291.44,193.93,292.25,196.82,294.14,196.48Z"/><path d="M295.68,203.09c7-1.24,9.27,9.44,2.41,10.93s-9.2-9-2.41-10.93c1.85-.54,1.06-3.44-.8-2.9a8.57,8.57,0,0,0-6.25,10.21,8.46,8.46,0,1,0,16.53-3.57c-.94-4.9-5.58-7.47-10.28-6.64C293,200.53,293.79,203.42,295.68,203.09Z"/><path d="M335.25,204.14l-2-8.66a1.52,1.52,0,0,0-1.84-1l-7.31,1.69,1.84,1.05a27.35,27.35,0,0,0-3-6.71l-.24,1.82,5.21-4.71a1.53,1.53,0,0,0,0-2.12L322,178.39a1.5,1.5,0,0,0-2.12,0l-5.72,5.55h2.13a43.74,43.74,0,0,0-5.4-4l.69,1.69,1.94-6.75a1.52,1.52,0,0,0-1.05-1.84l-9.08-2.8a1.52,1.52,0,0,0-1.85,1l-1.91,6.76,1.45-1.1a27.46,27.46,0,0,0-6.72.12l1.85,1.05-1.7-7.32a1.53,1.53,0,0,0-1.85-1.05l-9.3,2.16a1.52,1.52,0,0,0-1,1.85l1.7,7.32,1.05-1.85a28,28,0,0,0-6.06,2.88l1.82.23-4.7-5.22a1.52,1.52,0,0,0-2.12,0l-6.92,6.52a1.53,1.53,0,0,0,0,2.12l4.72,5.2-.24-1.82a42.59,42.59,0,0,0-3.05,6l1.84-1.05-6.91-2.62a1.52,1.52,0,0,0-1.85,1.05l-2.79,9.08a1.52,1.52,0,0,0,1.05,1.84l6.75,1.93-1.1-1.44a27.09,27.09,0,0,0,.27,7.36l1.05-1.84-7.32,1.7a1.52,1.52,0,0,0-1.05,1.84l2,8.66a1.53,1.53,0,0,0,1.84,1.05l7.32-1.7-1.84-1a27.86,27.86,0,0,0,2.87,6l.23-1.82-5.2,4.71a1.53,1.53,0,0,0,0,2.12l6.5,6.9a1.53,1.53,0,0,0,2.12,0l5.21-4.71-1.81.23c1.72,1.2,3.35,2.53,5.07,3.73l-.69-1.69-1.94,6.75a1.54,1.54,0,0,0,1.05,1.85l9.09,2.82a1.53,1.53,0,0,0,1.85-1.05l1.75-7.43-1.45,1.1,6.47.59L297.5,239l1.55,6.67a1.52,1.52,0,0,0,1.84,1.05l9.31-2.16a1.54,1.54,0,0,0,1.05-1.85L309.7,236,309,237.7l5.54-3.38-1.82-.24,4.85,5.9a1.52,1.52,0,0,0,2.13,0l6.91-6.53a1.53,1.53,0,0,0,0-2.12l-4.71-5.21.23,1.81c1-1.84,1.89-3.75,2.92-5.58l-1.69.69,7.41,1.77a1.52,1.52,0,0,0,1.85-1l2.13-8.9a1.54,1.54,0,0,0-1.05-1.85L327,211.09l1.1,1.44a27.21,27.21,0,0,0-.12-6.69l-1.05,1.84,7.32-1.7c1.88-.43,1.08-3.33-.8-2.89l-7.31,1.7a1.53,1.53,0,0,0-1.05,1.84,24.27,24.27,0,0,1,0,5.9,1.5,1.5,0,0,0,1.1,1.45l6.75,1.94-1-1.85-2.14,8.9,1.85-1.05-7.42-1.77a1.52,1.52,0,0,0-1.69.69c-1,1.83-1.9,3.74-2.92,5.58a1.56,1.56,0,0,0,.23,1.82l4.72,5.21v-2.12l-6.92,6.53h2.13l-4.86-5.9a1.5,1.5,0,0,0-1.81-.23l-5.55,3.38a1.55,1.55,0,0,0-.69,1.7l1.55,6.67,1-1.84-9.31,2.16,1.85,1-1.55-6.68a1.55,1.55,0,0,0-1.45-1.1l-6.47-.59a1.49,1.49,0,0,0-1.44,1.1L289.27,245l1.85-1L282,241.14l1.05,1.85,1.93-6.76a1.53,1.53,0,0,0-.69-1.69c-1.72-1.2-3.34-2.53-5.07-3.73a1.53,1.53,0,0,0-1.82.24l-5.21,4.71h2.12l-6.5-6.9V231l5.21-4.71a1.53,1.53,0,0,0,.23-1.82,23.55,23.55,0,0,1-2.57-5.32,1.53,1.53,0,0,0-1.84-1l-7.32,1.7,1.84,1.05-2-8.65L260.33,214l7.32-1.7a1.53,1.53,0,0,0,1.05-1.84,23.73,23.73,0,0,1-.16-6.57,1.52,1.52,0,0,0-1.11-1.45l-6.74-1.93,1.05,1.85,2.78-9.09-1.84,1.05,6.91,2.62a1.54,1.54,0,0,0,1.85-1.05,36.87,36.87,0,0,1,2.75-5.25,1.54,1.54,0,0,0-.23-1.82l-4.72-5.2v2.12l6.92-6.52H274l4.7,5.22a1.5,1.5,0,0,0,1.81.24,23.94,23.94,0,0,1,5.34-2.58,1.53,1.53,0,0,0,1.05-1.84l-1.7-7.32-1.05,1.85,9.31-2.17-1.84-1,1.7,7.32a1.53,1.53,0,0,0,1.84,1,24.43,24.43,0,0,1,5.92,0,1.5,1.5,0,0,0,1.44-1.1l1.91-6.76-1.84,1,9.08,2.8-1-1.84-1.94,6.74a1.54,1.54,0,0,0,.69,1.7,37.67,37.67,0,0,1,4.78,3.52,1.54,1.54,0,0,0,2.13,0l5.71-5.55h-2.12l5.84,7.07v-2.12l-5.21,4.71a1.53,1.53,0,0,0-.24,1.82,23.86,23.86,0,0,1,2.73,6,1.54,1.54,0,0,0,1.84,1.05l7.32-1.7-1.85-1.05,2,8.66C332.8,206.82,335.69,206,335.25,204.14Z"/></g></svg>