<?xml version="1.0" encoding="utf-8"?>
<!-- Generator: Adobe Illustrator 24.2.0, SVG Export Plug-In . SVG Version: 6.00 Build 0)  -->
<svg version="1.1" id="Layer_1" xmlns="http://www.w3.org/2000/svg" xmlns:xlink="http://www.w3.org/1999/xlink" x="0px" y="0px"
	 viewBox="0 0 186 181" style="enable-background:new 0 0 186 181;" xml:space="preserve">
<style type="text/css">
	.st0{fill:#E5E5E5;}
	.st1{clip-path:url(#SVGID_2_);}
	.st2{fill:#939393;}
	.st3{clip-path:url(#SVGID_4_);}
	.st4{fill:#6D6D6D;}
	.st5{clip-path:url(#SVGID_6_);}
	.st6{fill:#B2B2B2;}
	.st7{clip-path:url(#SVGID_8_);}
	.st8{clip-path:url(#SVGID_10_);}
	.st9{clip-path:url(#SVGID_12_);}
	.st10{clip-path:url(#SVGID_14_);}
	.st11{clip-path:url(#SVGID_16_);}
	.st12{clip-path:url(#SVGID_18_);}
	.st13{clip-path:url(#SVGID_20_);}
	.st14{clip-path:url(#SVGID_22_);}
	.st15{clip-path:url(#SVGID_24_);}
	.st16{clip-path:url(#SVGID_26_);}
	.st17{clip-path:url(#SVGID_28_);}
	.st18{clip-path:url(#SVGID_30_);}
	.st19{fill:#FFDA83;}
	.st20{clip-path:url(#SVGID_32_);}
	.st21{fill:#FFFFFF;}
	.st22{clip-path:url(#SVGID_34_);}
	.st23{clip-path:url(#SVGID_36_);}
	.st24{clip-path:url(#SVGID_38_);}
	.st25{clip-path:url(#SVGID_40_);}
	.st26{clip-path:url(#SVGID_42_);}
	.st27{clip-path:url(#SVGID_44_);}
	.st28{clip-path:url(#SVGID_46_);}
	.st29{clip-path:url(#SVGID_48_);}
	.st30{clip-path:url(#SVGID_50_);}
	.st31{clip-path:url(#SVGID_52_);}
	.st32{clip-path:url(#SVGID_54_);}
	.st33{clip-path:url(#SVGID_56_);}
	.st34{clip-path:url(#SVGID_58_);}
	.st35{clip-path:url(#SVGID_60_);}
	.st36{clip-path:url(#SVGID_62_);}
	.st37{clip-path:url(#SVGID_64_);}
	.st38{clip-path:url(#SVGID_66_);}
	.st39{clip-path:url(#SVGID_68_);}
	.st40{clip-path:url(#SVGID_70_);}
	.st41{clip-path:url(#SVGID_72_);}
	.st42{clip-path:url(#SVGID_74_);}
	.st43{clip-path:url(#SVGID_76_);}
	.st44{clip-path:url(#SVGID_78_);}
	.st45{clip-path:url(#SVGID_80_);}
	.st46{clip-path:url(#SVGID_82_);}
	.st47{clip-path:url(#SVGID_84_);}
	.st48{clip-path:url(#SVGID_86_);}
	.st49{clip-path:url(#SVGID_88_);}
	.st50{clip-path:url(#SVGID_90_);}
	.st51{clip-path:url(#SVGID_92_);}
	.st52{clip-path:url(#SVGID_94_);}
	.st53{clip-path:url(#SVGID_96_);}
	.st54{clip-path:url(#SVGID_98_);}
	.st55{clip-path:url(#SVGID_100_);}
	.st56{clip-path:url(#SVGID_102_);}
	.st57{clip-path:url(#SVGID_104_);}
	.st58{clip-path:url(#SVGID_106_);}
	.st59{clip-path:url(#SVGID_108_);}
	.st60{clip-path:url(#SVGID_110_);}
	.st61{clip-path:url(#SVGID_112_);}
	.st62{clip-path:url(#SVGID_114_);}
	.st63{clip-path:url(#SVGID_116_);}
	.st64{clip-path:url(#SVGID_118_);}
	.st65{clip-path:url(#SVGID_120_);}
	.st66{clip-path:url(#SVGID_122_);}
	.st67{clip-path:url(#SVGID_124_);}
	.st68{clip-path:url(#SVGID_126_);}
	.st69{clip-path:url(#SVGID_128_);}
	.st70{clip-path:url(#SVGID_130_);}
</style>
<g>
	<g>
		<g>
			<path class="st0" d="M182.8,90.47c0.02,47.79-40.17,86.54-89.77,86.56S3.22,138.32,3.2,90.53S43.38,3.99,92.97,3.97
				C142.56,3.96,182.78,42.68,182.8,90.47"/>
			<g>
				<path d="M181.3,90.47c-0.03,17.73-5.8,35.01-16.3,49.28c-10.38,14.1-25.17,24.85-41.67,30.63c-17.43,6.11-36.61,6.79-54.43,1.94
					c-17.03-4.64-32.52-14.33-44.03-27.73C13.46,131.32,6.31,114.52,4.95,97.05C3.58,79.34,7.98,61.54,17.43,46.5
					c9.28-14.77,23.09-26.42,39.03-33.44c16.91-7.45,36.18-9.46,54.3-5.88c17.37,3.44,33.57,11.97,46.06,24.54
					c12.28,12.36,20.62,28.35,23.44,45.57C180.96,81.65,181.29,86.06,181.3,90.47c0,1.93,3,1.93,3,0
					c-0.04-18.27-5.97-36.23-16.84-50.91c-10.81-14.61-25.95-25.67-43.07-31.74C106.4,1.44,86.44,0.77,68.04,5.8
					C50.5,10.6,34.43,20.62,22.6,34.46C10.79,48.27,3.45,65.53,1.98,83.67c-1.48,18.3,3.11,36.86,12.89,52.39
					c9.61,15.27,23.91,27.42,40.44,34.62c17.53,7.64,37.2,9.72,55.97,6.07c17.97-3.49,34.81-12.41,47.7-25.41
					c12.69-12.79,21.39-29.42,24.23-47.24c0.72-4.51,1.09-9.07,1.09-13.64C184.3,88.54,181.3,88.54,181.3,90.47L181.3,90.47z"/>
			</g>
		</g>
	</g>
	<g>
		<g>
			<defs>
				<path id="SVGID_1_" d="M182.8,90.47c0.02,47.79-40.17,86.54-89.77,86.56S3.22,138.32,3.2,90.53S43.38,3.99,92.97,3.97
					C142.56,3.96,182.78,42.68,182.8,90.47"/>
			</defs>
			<clipPath id="SVGID_2_">
				<use xlink:href="#SVGID_1_"  style="overflow:visible;"/>
			</clipPath>
			<g class="st1">
				<path class="st2" d="M168.12,177.63c9.41-8.93,17.36-19.39,23.44-30.86c4.01,1.29,8.2,2.04,12.41,2.21
					c1.22-12.41,2.43-24.82,3.65-37.24c-4.7-1.43-9.41-2.87-14.11-4.3c-0.39-10.45-3.36-20.79-8.57-29.86
					c-0.64-1.11-1.33-2.31-1.14-3.57c0.15-1.03,0.85-1.87,1.53-2.66c2.03-2.36,4.05-4.72,6.08-7.08
					c-7.15-11.05-24.12-19.2-33.91-27.98c-3,6-5,9.99-6,13.99c-0.26,1.03-1.11-1.01-2.12-0.67c-1.38,0.47-2.88,0.09-4.3-0.24
					c-8.3-1.93-18.33-3.22-26.58-1.08c-1.27-6.39-1-10.99-2.01-16.99c-11.76,4.71-30.23,13.3-41.99,18c3,5.99,5.27,10.34,8.51,14.35
					c-8.04,6.06-15.61,16.34-19.5,25.63c-5.87,0.16-11-1-16.42-1.56c-3.55,13.77-5.99,27.83-7.27,41.99
					c4.72,0.43,9.99,1.12,14.71,1.55c1.07,12.64,1.13,18.71,8.65,28.93c0.72,0.98,1.5,2.02,1.59,3.23c0.09,1.19-1.08,1.18-1.66,2.23
					c-1.63,2.99-12.36,9.01-14,12c8.13,5.4,27.14,19.1,35.27,24.5c0.82,0.54,1.71,1.11,2.7,1.07c2.45-0.11,5.85-7.61,7.39-9.53
					c2.78-3.48,8.24-1.96,12.52-0.71c6.56,1.91,13.55,2.36,20.3,1.32c1.85,3.73,3.71,7.45,5.56,11.18c0.56,1.12,1.18,2.31,2.3,2.87
					c1.24,0.62,2.73,0.28,4.07-0.09c11.62-3.21,22.88-7.71,33.5-13.4c0.14,0.93-3.09-10.83-4.49-17.81"/>
				<g>
					<path d="M169.61,178c9.49-9.04,17.51-19.59,23.67-31.16c-0.56,0.23-1.13,0.46-1.69,0.69c4.15,1.32,8.45,2.07,12.81,2.26
						c0.87,0.04,1.42-0.72,1.5-1.5c1.22-12.41,2.43-24.82,3.65-37.24c0.06-0.66-0.51-1.27-1.1-1.45c-4.7-1.43-9.41-2.87-14.11-4.3
						c0.37,0.48,0.73,0.96,1.1,1.45c-0.31-7.64-1.89-15.23-4.76-22.32c-0.71-1.76-1.48-3.49-2.34-5.19
						c-0.4-0.79-0.81-1.57-1.24-2.34c-0.46-0.83-1.2-1.79-1.35-2.74c-0.28-1.71,1.99-3.51,2.99-4.67c1.39-1.61,2.77-3.23,4.16-4.84
						c0.42-0.49,0.62-1.24,0.23-1.82c-4.05-6.19-10.09-10.8-16.03-15.04c-6.08-4.34-12.53-8.26-18.12-13.24
						c-0.67-0.6-1.9-0.61-2.36,0.3c-1.87,3.73-3.82,7.46-5.24,11.4c-0.28,0.78-0.54,1.57-0.76,2.37c-0.05,0.19-0.1,0.39-0.15,0.59
						c1.81,0.02,2.39-0.22,1.73-0.74c-0.16-0.25-0.58-0.52-0.83-0.66c-0.85-0.51-1.49-0.34-2.39-0.2c-1.11,0.18-2.21-0.16-3.29-0.41
						c-8.8-2.02-18.3-3.27-27.18-1.03c0.62,0.35,1.23,0.7,1.85,1.05c-1.09-5.61-1.09-11.35-2.01-16.99
						c-0.12-0.74-1.15-1.33-1.85-1.05c-14.14,5.67-27.86,12.33-41.99,18c-0.93,0.37-1.37,1.26-0.9,2.2
						c2.56,5.11,5.16,10.18,8.75,14.65c0.1-0.79,0.2-1.57,0.3-2.36c-8.73,6.64-15.77,16.08-20.04,26.16c0.43-0.25,0.86-0.5,1.3-0.74
						c-5.53,0.12-10.95-0.97-16.42-1.56c-0.64-0.07-1.3,0.51-1.45,1.1c-3.57,13.91-6.01,28.09-7.32,42.39
						c-0.08,0.86,0.75,1.43,1.5,1.5c4.91,0.46,9.8,1.09,14.71,1.55c-0.5-0.5-1-1-1.5-1.5c0.67,7.93,1.05,15.93,4.74,23.15
						c0.98,1.92,2.13,3.75,3.38,5.51c0.72,1.01,1.33,2.09,2.02,3.11c0.04,0.06,0.07,0.67,0.23,0.26c-0.03,0.08-0.2,0.18-0.27,0.23
						c-0.44,0.33-0.82,0.66-1.14,1.11c-1.56,2.18-4.11,3.89-6.38,5.54c-1.62,1.18-3.25,2.35-4.8,3.62c-1.1,0.89-2.26,1.86-2.98,3.1
						c-0.42,0.73-0.14,1.6,0.54,2.05c9.75,6.48,19.2,13.41,28.81,20.08c2,1.39,3.99,2.77,6.01,4.12c1.31,0.87,2.87,1.89,4.52,1.48
						c0.99-0.25,1.82-0.97,2.49-1.71c1.81-2,3.07-4.46,4.44-6.76c0.59-0.98,0.98-1.76,1.91-2.36c1.25-0.82,2.87-0.83,4.31-0.69
						c1.83,0.18,3.63,0.71,5.39,1.21c2.28,0.66,4.58,1.17,6.93,1.51c4.84,0.68,9.67,0.63,14.5-0.09c-0.56-0.23-1.13-0.46-1.69-0.69
						c1.85,3.73,3.69,7.46,5.56,11.18c0.71,1.4,1.55,2.79,3.02,3.48c1.61,0.76,3.39,0.43,5.05-0.02c7.5-2.02,14.85-4.7,21.97-7.8
						c4.04-1.76,8-3.68,11.89-5.76c-0.75-0.43-1.5-0.86-2.26-1.3c0,0.02,0,0.03,0,0.05c0.15-0.35,0.29-0.71,0.44-1.06l0,0
						c0.79,0.1,1.57,0.2,2.36,0.3c0.28,0.4,0.06,0.11-0.04-0.22c-0.14-0.48-0.28-0.96-0.41-1.44c-0.42-1.52-0.82-3.04-1.22-4.57
						c-0.97-3.74-1.9-7.49-2.66-11.27c-0.38-1.89-3.27-1.09-2.89,0.8c0.79,3.89,1.75,7.74,2.74,11.58c0.39,1.49,0.78,2.98,1.2,4.46
						c0.18,0.65,0.3,1.62,0.7,2.19c0.5,0.7,1.7,1.12,2.36,0.3c0.25-0.31,0.49-0.7,0.44-1.11c-0.15-1.12-1.16-1.88-2.26-1.3
						c-8,4.27-16.34,7.88-24.94,10.75c-2.13,0.71-4.26,1.38-6.42,2c-1.75,0.5-4.31,1.72-5.63-0.1c-1.28-1.76-2.09-4.01-3.06-5.96
						c-1.11-2.24-2.22-4.47-3.34-6.71c-0.32-0.64-1.06-0.78-1.69-0.69c-4.16,0.62-8.43,0.65-12.61,0.13
						c-3.79-0.48-7.34-1.79-11.07-2.52c-3.03-0.6-6.48-0.76-8.99,1.35c-1.79,1.51-2.79,3.96-3.99,5.92
						c-0.65,1.06-1.31,2.14-2.15,3.07c-0.93,1.03-1.16,1.15-2.39,0.4c-2.02-1.22-3.95-2.65-5.89-3.99
						c-5.03-3.48-10.02-7.01-15.02-10.53c-4.94-3.47-9.87-6.98-14.9-10.32c0.18,0.68,0.36,1.37,0.54,2.05
						c0.52-0.9,1.61-1.76,2.51-2.5c1.36-1.1,2.78-2.12,4.2-3.15c2.46-1.79,5.37-3.57,7.13-6.1c0.4-0.57,0.97-0.89,1.4-1.42
						c0.71-0.87,0.71-1.95,0.4-3c-0.66-2.24-2.62-4.15-3.85-6.1c-2.08-3.3-3.64-6.82-4.5-10.64c-1.06-4.66-1.28-9.48-1.68-14.23
						c-0.07-0.87-0.63-1.42-1.5-1.5c-4.91-0.46-9.8-1.09-14.71-1.55c0.5,0.5,1,1,1.5,1.5c1.29-14.03,3.71-27.94,7.22-41.59
						c-0.48,0.37-0.96,0.73-1.45,1.1c5.48,0.59,10.89,1.68,16.42,1.56c0.48-0.01,1.09-0.27,1.3-0.74
						c4.05-9.57,10.65-18.76,18.96-25.09c0.83-0.63,0.96-1.54,0.3-2.36c-3.41-4.26-5.85-9.19-8.28-14.05c-0.3,0.73-0.6,1.47-0.9,2.2
						c14.14-5.67,27.86-12.33,41.99-18c-0.62-0.35-1.23-0.7-1.85-1.05c0.92,5.64,0.92,11.37,2.01,16.99
						c0.16,0.81,1.11,1.23,1.85,1.05c7.12-1.79,14.72-1.11,21.86,0.25c1.75,0.33,3.47,0.79,5.22,1.12c0.92,0.17,1.83,0.29,2.76,0.17
						c0.2-0.03,0.42-0.05,0.62-0.1c0.25-0.06,0.5,0.01,0.25-0.11c-0.36-0.17,0.15,0.29,0.2,0.34c0.98,0.82,2.36,0.94,2.99-0.37
						c0.53-1.11,0.73-2.45,1.16-3.61c1.32-3.57,3.12-6.97,4.82-10.38c-0.79,0.1-1.57,0.2-2.36,0.3c5.5,4.89,11.79,8.81,17.79,13.04
						c5.83,4.12,11.93,8.58,15.89,14.64c0.08-0.61,0.16-1.21,0.23-1.82c-1.49,1.74-2.99,3.48-4.48,5.21
						c-1.23,1.43-2.91,2.93-3.43,4.81c-0.51,1.85,0.33,3.53,1.21,5.1c1.01,1.8,1.97,3.62,2.82,5.5c3.35,7.41,5.22,15.48,5.55,23.6
						c0.03,0.68,0.45,1.25,1.1,1.45c4.7,1.43,9.41,2.87,14.11,4.3c-0.37-0.48-0.73-0.96-1.1-1.45c-1.22,12.41-2.43,24.82-3.65,37.24
						c0.5-0.5,1-1,1.5-1.5c-4.09-0.19-8.1-0.92-12.01-2.16c-0.61-0.19-1.39,0.12-1.69,0.69c-6.05,11.36-13.88,21.67-23.2,30.55
						C166.08,177.21,168.21,179.33,169.61,178L169.61,178z"/>
				</g>
			</g>
		</g>
		<g>
			<defs>
				<path id="SVGID_3_" d="M182.8,90.47c0.02,47.79-40.17,86.54-89.77,86.56S3.22,138.32,3.2,90.53S43.38,3.99,92.97,3.97
					C142.56,3.96,182.78,42.68,182.8,90.47"/>
			</defs>
			<clipPath id="SVGID_4_">
				<use xlink:href="#SVGID_3_"  style="overflow:visible;"/>
			</clipPath>
			<g class="st3">
				<g>
					<g>
						<path class="st4" d="M134.84,56.43c-1.86-0.31-3.79-0.36-5.67-0.16c-32.69,3.48-58.56,25.65-62.7,59.56
							c-3.69,30.24,19.74,68.52,52.12,70.31C196.44,190.45,213.27,69.55,134.84,56.43z M136.45,127.43
							c-3.77,2.64-9.84,3.86-13.99,1.4c-2.88-1.7-7.63-5.17-8.4-8.38c-2.43-10.24,8.38-23.77,22.98-15.99
							c3.79,3.46,5.88,5.52,4.99,10.39C141.15,119.72,140.45,124.63,136.45,127.43z"/>
					</g>
					<g>
						<path d="M135.24,54.99c-4.71-0.73-9.49,0.08-14.12,1.02c-4,0.81-7.94,1.93-11.76,3.37c-7.34,2.76-14.2,6.63-20.28,11.59
							C76.6,81.14,68.39,95.73,65.61,111.53c-2.75,15.67,0.81,31.7,8.67,45.44c7.68,13.43,19.9,25.12,35.13,29.21
							c6.62,1.78,13.67,1.92,20.46,1.19c5.78-0.62,11.47-1.96,16.85-4.16c10.04-4.09,18.75-10.84,25.39-19.39
							c6.55-8.44,11.09-18.39,13.44-28.8s2.58-21.3,0.44-31.76c-2.1-10.31-6.63-20.11-13.48-28.13
							c-7.4-8.66-17.37-14.75-28.22-18.04C141.32,56.19,138.3,55.5,135.24,54.99c-1.89-0.32-2.7,2.57-0.8,2.89
							c11.17,1.89,21.94,6.29,30.5,13.83c7.54,6.65,13.04,15.33,16.18,24.86c3.16,9.59,4.01,19.83,2.88,29.84
							c-1.13,10.02-4.36,19.87-9.47,28.56c-5.14,8.74-12.28,16.29-21,21.53c-9.56,5.74-20.6,8.38-31.72,8.25
							c-7.22-0.08-14.17-1.64-20.6-4.97c-6.65-3.45-12.42-8.38-17.24-14.1c-9.66-11.47-15.85-26.51-16.34-41.55
							c-0.5-15.28,5.19-31.02,15.03-42.66c9.91-11.73,23.81-19.32,38.76-22.47c4.2-0.88,8.74-1.79,13.03-1.13
							C136.33,58.17,137.14,55.28,135.24,54.99z"/>
						<path d="M135.7,126.14c-2.54,1.73-5.63,2.7-8.72,2.51c-2.81-0.18-5.18-1.83-7.31-3.54c-2-1.59-3.99-3.44-4.35-6.09
							c-0.28-2.05,0.04-4.14,0.71-6.08c1.43-4.1,4.79-7.58,8.99-8.79c2.42-0.7,4.96-0.62,7.37,0.04c1.44,0.39,3.04,0.91,4.19,1.88
							c1.02,0.87,2.05,1.87,2.85,2.95c1.93,2.59,1.19,5.48,0.6,8.42C139.4,120.65,138.48,124.1,135.7,126.14
							c-1.54,1.13-0.05,3.73,1.51,2.59c2.93-2.14,4.47-5.21,5.32-8.68c0.78-3.14,1.87-6.98,0.76-10.15
							c-0.49-1.39-1.31-2.58-2.28-3.68c-1.17-1.32-2.51-2.75-4.11-3.52c-3.04-1.45-6.41-2.31-9.79-1.98
							c-5.67,0.55-10.6,4.19-13.09,9.28c-1.18,2.43-1.87,5.12-1.79,7.83c0.09,3.22,1.33,5.7,3.64,7.93c2.58,2.49,5.97,5.11,9.6,5.7
							c4.05,0.66,8.36-0.45,11.74-2.74C138.8,127.65,137.3,125.04,135.7,126.14z"/>
					</g>
				</g>
			</g>
		</g>
		<g>
			<defs>
				<path id="SVGID_5_" d="M182.8,90.47c0.02,47.79-40.17,86.54-89.77,86.56S3.22,138.32,3.2,90.53S43.38,3.99,92.97,3.97
					C142.56,3.96,182.78,42.68,182.8,90.47"/>
			</defs>
			<clipPath id="SVGID_6_">
				<use xlink:href="#SVGID_5_"  style="overflow:visible;"/>
			</clipPath>
			<g class="st5">
				<path class="st6" d="M94.59,126.7c-2.51-1.24-5.64-0.69-8.13,0.65c-1.3,0.7-3.15,3.53-4.07,4.67c-2.19,2.71-2.3,6.76-0.66,9.83
					s4.8,5.16,8.19,5.96c1.22,0.29,2.48,0.43,3.73,0.29c3.92-0.42,7.23-3.71,8.16-7.54c0.93-3.83,0.94-8.25-2.8-11.07
					C98.23,128.91,95.48,127.05,94.59,126.7"/>
				<g>
					<path d="M95.35,125.4c-2.82-1.3-5.88-1.05-8.68,0.18c-2.24,0.99-3.54,2.97-4.97,4.87c-1.55,2.07-2.58,4.15-2.59,6.81
						c-0.02,2.76,1.03,5.36,2.8,7.45c3.41,4.03,9.84,6.24,14.82,4.07c4.81-2.1,7.14-7.24,7.1-12.28c-0.02-2.77-0.96-5.51-3-7.44
						c-0.83-0.79-1.82-1.43-2.78-2.06C97.18,126.43,96.3,125.81,95.35,125.4c-0.75-0.32-1.6-0.22-2.05,0.54
						c-0.38,0.63-0.2,1.73,0.54,2.05c1.38,0.59,2.66,1.55,3.88,2.4c1.48,1.04,2.5,2.44,2.91,4.22c0.82,3.64-0.43,8.1-3.4,10.43
						c-6.74,5.27-18.95-3.57-14.08-11.5c0.5-0.82,1.15-1.57,1.72-2.33c0.59-0.79,1.21-1.66,1.97-2.29c1.75-1.45,4.95-1.87,7-0.92
						C95.57,128.8,97.1,126.21,95.35,125.4L95.35,125.4z"/>
				</g>
			</g>
		</g>
		<g>
			<defs>
				<path id="SVGID_7_" d="M182.8,90.47c0.02,47.79-40.17,86.54-89.77,86.56S3.22,138.32,3.2,90.53S43.38,3.99,92.97,3.97
					C142.56,3.96,182.78,42.68,182.8,90.47"/>
			</defs>
			<clipPath id="SVGID_8_">
				<use xlink:href="#SVGID_7_"  style="overflow:visible;"/>
			</clipPath>
			<g class="st7">
				<path d="M93.48,127.77c1.32,1.01,2.17,2.55,2.54,4.17c0.37,1.62,0.29,3.31-0.02,4.95c-0.15,0.79-0.36,1.6-0.81,2.27
					c-0.65,0.97-1.73,1.55-2.81,2c-0.75,0.31-1.55,0.58-2.36,0.57c-0.95-0.01-1.85-0.4-2.7-0.83c-2.16-1.11-4.27-2.8-4.77-5.18
					l2.44-7.07L93.48,127.77z"/>
				<g>
					<path d="M92.42,128.83c1.6,1.28,2.31,3.17,2.34,5.19c0.02,1.14-0.1,2.32-0.43,3.42c-0.27,0.9-0.8,1.45-1.61,1.9
						c-0.79,0.44-1.78,0.9-2.7,0.89c-0.95-0.02-1.87-0.56-2.68-1.03c-1.52-0.89-2.93-2.1-3.34-3.88c0,0.27,0,0.53,0,0.8
						c0.81-2.36,1.63-4.71,2.44-7.07c-0.48,0.37-0.96,0.73-1.45,1.1c2.83-0.29,5.65-0.58,8.48-0.87c0.81-0.08,1.5-0.63,1.5-1.5
						c0-0.75-0.69-1.58-1.5-1.5c-2.83,0.29-5.65,0.58-8.48,0.87c-0.71,0.07-1.21,0.42-1.45,1.1c-0.45,1.31-0.9,2.62-1.36,3.93
						c-0.28,0.81-0.56,1.62-0.84,2.42c-0.29,0.83-0.35,1.41-0.02,2.3c0.56,1.48,1.55,2.72,2.78,3.7c1.32,1.05,2.91,2.05,4.56,2.44
						c1.87,0.45,3.7-0.15,5.35-1.01s2.78-2.22,3.25-4.03c1-3.85,0.56-8.65-2.75-11.29c-0.63-0.5-1.5-0.62-2.12,0
						C91.9,127.23,91.78,128.32,92.42,128.83z"/>
				</g>
			</g>
		</g>
		<g>
			<defs>
				<path id="SVGID_9_" d="M182.8,90.47c0.02,47.79-40.17,86.54-89.77,86.56S3.22,138.32,3.2,90.53S43.38,3.99,92.97,3.97
					C142.56,3.96,182.78,42.68,182.8,90.47"/>
			</defs>
			<clipPath id="SVGID_10_">
				<use xlink:href="#SVGID_9_"  style="overflow:visible;"/>
			</clipPath>
			<g class="st8">
				<path class="st6" d="M115.92,149.77c-2.51-1.24-5.64-0.69-8.13,0.65c-1.3,0.7-3.15,3.53-4.07,4.67
					c-2.19,2.71-2.3,6.76-0.66,9.83s4.8,5.16,8.19,5.96c1.22,0.29,2.48,0.43,3.73,0.29c3.92-0.42,7.23-3.71,8.16-7.54
					c0.93-3.83,0.94-8.25-2.8-11.07C119.56,151.98,116.81,150.12,115.92,149.77"/>
				<g>
					<path d="M116.68,148.47c-2.82-1.3-5.88-1.05-8.68,0.18c-2.24,0.99-3.54,2.97-4.97,4.87c-1.55,2.07-2.58,4.15-2.59,6.81
						c-0.02,2.76,1.03,5.36,2.8,7.45c3.41,4.03,9.84,6.24,14.82,4.07c4.81-2.1,7.14-7.24,7.1-12.28c-0.02-2.77-0.96-5.51-3-7.44
						c-0.83-0.79-1.82-1.43-2.78-2.06C118.51,149.5,117.63,148.88,116.68,148.47c-0.75-0.32-1.6-0.22-2.05,0.54
						c-0.38,0.63-0.2,1.73,0.54,2.05c1.38,0.59,2.66,1.55,3.88,2.4c1.48,1.04,2.5,2.44,2.91,4.22c0.82,3.64-0.43,8.1-3.4,10.43
						c-6.74,5.27-18.95-3.57-14.08-11.5c0.5-0.82,1.15-1.57,1.72-2.33c0.59-0.79,1.21-1.66,1.97-2.29c1.75-1.45,4.95-1.87,7-0.92
						C116.91,151.87,118.43,149.28,116.68,148.47L116.68,148.47z"/>
				</g>
			</g>
		</g>
		<g>
			<defs>
				<path id="SVGID_11_" d="M182.8,90.47c0.02,47.79-40.17,86.54-89.77,86.56S3.22,138.32,3.2,90.53S43.38,3.99,92.97,3.97
					C142.56,3.96,182.78,42.68,182.8,90.47"/>
			</defs>
			<clipPath id="SVGID_12_">
				<use xlink:href="#SVGID_11_"  style="overflow:visible;"/>
			</clipPath>
			<g class="st9">
				<path d="M103.24,162.09c1.4,0.85,2.9,1.74,4.54,1.69c1.74-0.05,3.27-1.16,4.58-2.31c0.48-0.42,0.96-0.86,1.26-1.42
					c0.3-0.55,0.41-1.18,0.45-1.8c0.22-2.99-0.44-7.26-3.35-7.99c-1.2-0.3-6.48,4.14-6.48,4.14L103.24,162.09z"/>
				<g>
					<path d="M102.49,163.39c2.11,1.28,4.45,2.41,6.96,1.62c1.1-0.35,2.07-0.95,2.97-1.65s1.86-1.46,2.44-2.46
						c1.01-1.74,0.84-4.13,0.57-6.05c-0.24-1.7-0.83-3.48-2.06-4.73c-0.61-0.61-1.42-1.12-2.27-1.31c-0.69-0.15-1.33,0.05-1.96,0.32
						c-1.18,0.52-2.24,1.31-3.26,2.08c-0.87,0.65-1.79,1.29-2.59,2.03c-0.58,0.54-0.58,1.43-0.68,2.18
						c-0.29,2.22-0.58,4.44-0.87,6.66c-0.11,0.8,0.76,1.5,1.5,1.5c0.9,0,1.39-0.69,1.5-1.5c0.34-2.57,0.67-5.13,1.01-7.7
						c-0.15,0.35-0.29,0.71-0.44,1.06c0.25-0.21,0.49-0.41,0.74-0.61c0.23-0.19,0.46-0.37,0.7-0.55c0.07-0.05,0.13-0.1,0.2-0.15
						c-0.22,0.17-0.04,0.03,0.01-0.01c0.18-0.14,0.36-0.28,0.55-0.41c0.67-0.49,1.35-0.98,2.05-1.41c0.27-0.16,0.54-0.31,0.82-0.46
						c0.35-0.19-0.12,0,0.08-0.04c0.06-0.01,0.14-0.04,0.2-0.06c0.21-0.1-0.05,0.01-0.16,0.01c0.04,0,0.08-0.01,0.12,0
						c-0.58-0.04-0.23-0.06-0.08,0.03c0.22,0.12-0.17-0.09,0.06,0.02c0.09,0.04,0.17,0.09,0.26,0.14c0.05,0.03,0.3,0.21,0.11,0.06
						c0.08,0.06,0.15,0.13,0.22,0.2c0.21,0.21,0.27,0.3,0.34,0.39c0.21,0.32,0.42,0.73,0.49,0.92c0.18,0.48,0.31,0.97,0.41,1.46
						c0.16,0.81,0.22,1.84,0.18,2.82c-0.02,0.48-0.04,1-0.24,1.45c-0.22,0.48-0.67,0.84-1.06,1.19c-0.92,0.81-2.04,1.7-3.3,1.86
						c-1.45,0.17-2.82-0.75-4-1.47C102.35,159.79,100.84,162.38,102.49,163.39z"/>
				</g>
			</g>
		</g>
		<g>
			<defs>
				<path id="SVGID_13_" d="M182.8,90.47c0.02,47.79-40.17,86.54-89.77,86.56S3.22,138.32,3.2,90.53S43.38,3.99,92.97,3.97
					C142.56,3.96,182.78,42.68,182.8,90.47"/>
			</defs>
			<clipPath id="SVGID_14_">
				<use xlink:href="#SVGID_13_"  style="overflow:visible;"/>
			</clipPath>
			<g class="st10">
				<path class="st6" d="M144.48,70.3c-2.51-1.24-5.64-0.69-8.13,0.65c-1.3,0.7-3.15,3.53-4.07,4.67c-2.19,2.71-2.3,6.76-0.66,9.83
					s4.8,5.16,8.19,5.96c1.22,0.29,2.48,0.43,3.73,0.29c3.92-0.42,7.23-3.71,8.16-7.54c0.93-3.83,0.94-8.25-2.8-11.07
					C148.12,72.51,145.37,70.65,144.48,70.3"/>
				<g>
					<path d="M145.24,69c-2.82-1.3-5.88-1.05-8.68,0.18c-2.24,0.99-3.54,2.97-4.97,4.87c-1.55,2.07-2.58,4.15-2.59,6.81
						c-0.02,2.76,1.03,5.36,2.8,7.45c3.41,4.03,9.84,6.24,14.82,4.07c4.81-2.1,7.14-7.24,7.1-12.28c-0.02-2.77-0.96-5.51-3-7.44
						c-0.83-0.79-1.82-1.43-2.78-2.06C147.07,70.03,146.19,69.41,145.24,69c-0.75-0.32-1.6-0.22-2.05,0.54
						c-0.38,0.63-0.2,1.73,0.54,2.05c1.38,0.59,2.66,1.55,3.88,2.4c1.48,1.04,2.5,2.44,2.91,4.22c0.82,3.64-0.43,8.1-3.4,10.43
						c-6.74,5.27-18.95-3.57-14.08-11.5c0.5-0.82,1.15-1.57,1.72-2.33c0.59-0.79,1.21-1.66,1.97-2.29c1.75-1.45,4.95-1.87,7-0.92
						C145.46,72.4,146.99,69.81,145.24,69L145.24,69z"/>
				</g>
			</g>
		</g>
		<g>
			<defs>
				<path id="SVGID_15_" d="M182.8,90.47c0.02,47.79-40.17,86.54-89.77,86.56S3.22,138.32,3.2,90.53S43.38,3.99,92.97,3.97
					C142.56,3.96,182.78,42.68,182.8,90.47"/>
			</defs>
			<clipPath id="SVGID_16_">
				<use xlink:href="#SVGID_15_"  style="overflow:visible;"/>
			</clipPath>
			<g class="st11">
				<path d="M149.24,86.73c-2.1,1.1-4.84,0.1-6.18-1.98s-1.36-4.96-0.38-7.26c0.55-1.28,1.39-2.43,2.5-3.17s2.49-1.04,3.75-0.68
					l3.27,5.78L149.24,86.73z"/>
				<g>
					<path d="M148.48,85.44c-0.44,0.22-1.11,0.3-1.54,0.23c-0.67-0.11-1.19-0.33-1.74-0.76c-1.03-0.79-1.62-2.23-1.69-3.6
						c-0.13-2.64,1.66-7.07,5.03-6.22c-0.3-0.23-0.6-0.46-0.9-0.69c1.09,1.93,2.18,3.85,3.27,5.78c-0.05-0.39-0.1-0.77-0.15-1.16
						c-0.99,2.44-1.97,4.87-2.96,7.31c-0.3,0.75,0.33,1.65,1.05,1.85c0.86,0.24,1.54-0.29,1.85-1.05c0.71-1.76,1.43-3.53,2.14-5.29
						c0.27-0.66,0.62-1.33,0.81-2.01c0.25-0.86-0.53-1.84-0.93-2.55c-0.59-1.05-1.19-2.11-1.78-3.16c-0.2-0.35-0.39-0.72-0.6-1.06
						c-0.45-0.76-1.19-0.96-2.03-1.04c-4.83-0.47-7.91,4.85-7.8,9.08c0.07,2.48,1.08,4.85,3.11,6.34c1.87,1.37,4.32,1.61,6.39,0.59
						c0.73-0.36,0.93-1.39,0.54-2.05C150.1,85.24,149.21,85.08,148.48,85.44z"/>
				</g>
			</g>
		</g>
		<g>
			<defs>
				<path id="SVGID_17_" d="M182.8,90.47c0.02,47.79-40.17,86.54-89.77,86.56S3.22,138.32,3.2,90.53S43.38,3.99,92.97,3.97
					C142.56,3.96,182.78,42.68,182.8,90.47"/>
			</defs>
			<clipPath id="SVGID_18_">
				<use xlink:href="#SVGID_17_"  style="overflow:visible;"/>
			</clipPath>
			<g class="st12">
				<path class="st6" d="M113.83,72.26c-2.51-1.24-5.64-0.69-8.13,0.65c-1.3,0.7-3.15,3.53-4.07,4.67c-2.19,2.71-2.3,6.76-0.66,9.83
					s4.8,5.16,8.19,5.96c1.22,0.29,2.48,0.43,3.73,0.29c3.92-0.42,7.23-3.71,8.16-7.54c0.93-3.83,0.94-8.25-2.8-11.07
					C117.47,74.47,114.72,72.61,113.83,72.26"/>
				<g>
					<path d="M114.59,70.96c-2.82-1.3-5.88-1.05-8.68,0.18c-2.24,0.99-3.54,2.97-4.97,4.87c-1.55,2.07-2.58,4.15-2.59,6.81
						c-0.02,2.76,1.03,5.36,2.8,7.45c3.41,4.03,9.84,6.24,14.82,4.07c4.81-2.1,7.14-7.24,7.1-12.28c-0.02-2.77-0.96-5.51-3-7.44
						c-0.83-0.79-1.82-1.43-2.78-2.06C116.42,71.99,115.54,71.37,114.59,70.96c-0.75-0.32-1.6-0.22-2.05,0.54
						c-0.38,0.63-0.2,1.73,0.54,2.05c1.38,0.59,2.66,1.55,3.88,2.4c1.48,1.04,2.5,2.44,2.91,4.22c0.82,3.64-0.43,8.1-3.4,10.43
						c-6.74,5.27-18.95-3.57-14.08-11.5c0.5-0.82,1.15-1.57,1.72-2.33c0.59-0.79,1.21-1.66,1.97-2.29c1.75-1.45,4.95-1.87,7-0.92
						C114.82,74.36,116.34,71.77,114.59,70.96L114.59,70.96z"/>
				</g>
			</g>
		</g>
		<g>
			<defs>
				<path id="SVGID_19_" d="M182.8,90.47c0.02,47.79-40.17,86.54-89.77,86.56S3.22,138.32,3.2,90.53S43.38,3.99,92.97,3.97
					C142.56,3.96,182.78,42.68,182.8,90.47"/>
			</defs>
			<clipPath id="SVGID_20_">
				<use xlink:href="#SVGID_19_"  style="overflow:visible;"/>
			</clipPath>
			<g class="st13">
				<path d="M117.69,89.15c-0.87,0.37-1.79,0.64-2.74,0.71c-2.65,0.19-5.31-1.33-6.61-3.65s-1.28-5.28-0.07-7.65
					c1.2-2.37,3.51-4.11,6.07-4.8c0.21-0.06,0.48-0.09,0.62,0.09L119.5,78l1.98,5.63L117.69,89.15z"/>
				<g>
					<path d="M117.29,87.7c-1.86,0.77-3.71,0.96-5.5-0.08c-1.59-0.92-2.62-2.5-2.88-4.32c-0.26-1.86,0.3-3.82,1.47-5.28
						c0.55-0.68,1.22-1.28,1.95-1.74c0.39-0.24,0.79-0.47,1.21-0.66c0.2-0.09,0.4-0.16,0.61-0.23c0.11-0.04,0.23-0.08,0.35-0.11
						c0.33-0.07,0.31-0.09-0.07-0.07c-0.22-0.13-0.44-0.26-0.66-0.39c1.63,1.31,3.12,2.83,4.67,4.24c-0.13-0.22-0.26-0.44-0.39-0.66
						c0.66,1.88,1.32,3.75,1.98,5.63c0.05-0.39,0.1-0.77,0.15-1.16c-1.26,1.84-2.53,3.68-3.79,5.52c-0.46,0.67-0.12,1.66,0.54,2.05
						c0.74,0.43,1.59,0.13,2.05-0.54c0.59-0.85,1.17-1.71,1.76-2.56c0.66-0.96,1.43-1.91,2.01-2.93c0.57-1.01-0.3-2.5-0.64-3.47
						c-0.39-1.11-0.75-2.23-1.17-3.33c-0.39-1.01-1.6-1.78-2.37-2.48c-0.85-0.78-1.69-1.58-2.56-2.33c-1.07-0.92-2.28-0.49-3.45,0
						c-1.22,0.5-2.32,1.19-3.3,2.06c-1.99,1.77-3.19,4.25-3.38,6.91c-0.22,3.08,1.13,6.06,3.6,7.91c2.53,1.9,5.73,2.11,8.61,0.92
						c0.75-0.31,1.28-1,1.05-1.85C118.94,88.04,118.04,87.39,117.29,87.7z"/>
				</g>
			</g>
		</g>
		<g>
			<defs>
				<path id="SVGID_21_" d="M182.8,90.47c0.02,47.79-40.17,86.54-89.77,86.56S3.22,138.32,3.2,90.53S43.38,3.99,92.97,3.97
					C142.56,3.96,182.78,42.68,182.8,90.47"/>
			</defs>
			<clipPath id="SVGID_22_">
				<use xlink:href="#SVGID_21_"  style="overflow:visible;"/>
			</clipPath>
			<g class="st14">
				<path d="M93.88,96.69c-2.51-1.24-5.64-0.69-8.13,0.65c-1.3,0.7-3.15,3.53-4.07,4.67c-2.19,2.71-2.3,6.76-0.66,9.83
					s4.8,5.16,8.19,5.96c1.22,0.29,2.48,0.43,3.73,0.29c3.92-0.42,7.23-3.71,8.16-7.54s0.94-8.25-2.8-11.07
					C97.52,98.9,94.77,97.05,93.88,96.69"/>
				<g>
					<path d="M94.64,95.4c-2.82-1.3-5.88-1.05-8.68,0.18c-2.24,0.99-3.54,2.97-4.97,4.87c-1.55,2.07-2.58,4.15-2.59,6.81
						c-0.02,2.76,1.03,5.36,2.8,7.45c3.41,4.03,9.84,6.24,14.82,4.07c4.81-2.1,7.14-7.24,7.1-12.28c-0.02-2.77-0.96-5.51-3-7.44
						c-0.83-0.79-1.82-1.43-2.78-2.06C96.47,96.43,95.59,95.81,94.64,95.4c-0.75-0.32-1.6-0.22-2.05,0.54
						c-0.38,0.63-0.2,1.73,0.54,2.05c1.38,0.59,2.66,1.55,3.88,2.4c1.48,1.04,2.5,2.44,2.91,4.22c0.82,3.64-0.43,8.1-3.4,10.43
						c-6.74,5.27-18.95-3.57-14.08-11.5c0.5-0.82,1.15-1.57,1.72-2.33c0.59-0.79,1.21-1.66,1.97-2.29c1.75-1.45,4.95-1.87,7-0.92
						C94.86,98.79,96.39,96.21,94.64,95.4L94.64,95.4z"/>
				</g>
			</g>
		</g>
		<g>
			<defs>
				<path id="SVGID_23_" d="M182.8,90.47c0.02,47.79-40.17,86.54-89.77,86.56S3.22,138.32,3.2,90.53S43.38,3.99,92.97,3.97
					C142.56,3.96,182.78,42.68,182.8,90.47"/>
			</defs>
			<clipPath id="SVGID_24_">
				<use xlink:href="#SVGID_23_"  style="overflow:visible;"/>
			</clipPath>
			<g class="st15">
				<path class="st6" d="M163.39,123.38c-2.51-1.24-5.64-0.69-8.13,0.65c-1.3,0.7-3.15,3.53-4.07,4.67
					c-2.19,2.71-2.3,6.76-0.66,9.83s4.8,5.16,8.19,5.96c1.22,0.29,2.48,0.43,3.73,0.29c3.92-0.42,7.23-3.71,8.16-7.54
					c0.93-3.83,0.94-8.25-2.8-11.07C167.03,125.59,164.28,123.73,163.39,123.38"/>
				<g>
					<path d="M164.15,122.09c-2.82-1.3-5.88-1.05-8.68,0.18c-2.24,0.99-3.54,2.97-4.97,4.87c-1.55,2.07-2.58,4.15-2.59,6.81
						c-0.02,2.76,1.03,5.36,2.8,7.45c3.41,4.03,9.84,6.24,14.82,4.07c4.81-2.1,7.14-7.24,7.1-12.28c-0.02-2.77-0.96-5.51-3-7.44
						c-0.83-0.79-1.82-1.43-2.78-2.06C165.98,123.12,165.1,122.49,164.15,122.09c-0.75-0.32-1.6-0.22-2.05,0.54
						c-0.38,0.63-0.2,1.73,0.54,2.05c1.38,0.59,2.66,1.55,3.88,2.4c1.48,1.04,2.5,2.44,2.91,4.22c0.82,3.64-0.43,8.1-3.4,10.43
						c-6.74,5.27-18.95-3.57-14.08-11.5c0.5-0.82,1.15-1.57,1.72-2.33c0.59-0.79,1.21-1.66,1.97-2.29c1.75-1.45,4.95-1.87,7-0.92
						C164.38,125.48,165.9,122.89,164.15,122.09L164.15,122.09z"/>
				</g>
			</g>
		</g>
		<g>
			<defs>
				<path id="SVGID_25_" d="M182.8,90.47c0.02,47.79-40.17,86.54-89.77,86.56S3.22,138.32,3.2,90.53S43.38,3.99,92.97,3.97
					C142.56,3.96,182.78,42.68,182.8,90.47"/>
			</defs>
			<clipPath id="SVGID_26_">
				<use xlink:href="#SVGID_25_"  style="overflow:visible;"/>
			</clipPath>
			<g class="st16">
				<path class="st6" d="M165.81,93.37c-2.51-1.24-5.64-0.69-8.13,0.65c-1.3,0.7-3.15,3.53-4.07,4.67c-2.19,2.71-2.3,6.76-0.66,9.83
					s4.8,5.16,8.19,5.96c1.22,0.29,2.48,0.43,3.73,0.29c3.92-0.42,7.23-3.71,8.16-7.54c0.93-3.83,0.94-8.25-2.8-11.07
					C169.45,95.58,166.7,93.72,165.81,93.37"/>
				<g>
					<path d="M166.57,92.07c-2.82-1.3-5.88-1.05-8.68,0.18c-2.24,0.99-3.54,2.97-4.97,4.87c-1.55,2.07-2.58,4.15-2.59,6.81
						c-0.02,2.76,1.03,5.36,2.8,7.45c3.41,4.03,9.84,6.24,14.82,4.07c4.81-2.1,7.14-7.24,7.1-12.28c-0.02-2.77-0.96-5.51-3-7.44
						c-0.83-0.79-1.82-1.43-2.78-2.06C168.4,93.1,167.52,92.48,166.57,92.07c-0.75-0.32-1.6-0.22-2.05,0.54
						c-0.38,0.63-0.2,1.73,0.54,2.05c1.38,0.59,2.66,1.55,3.88,2.4c1.48,1.04,2.5,2.44,2.91,4.22c0.82,3.64-0.43,8.1-3.4,10.43
						c-6.74,5.27-18.95-3.57-14.08-11.5c0.5-0.82,1.15-1.57,1.72-2.33c0.59-0.79,1.21-1.66,1.97-2.29c1.75-1.45,4.95-1.87,7-0.92
						C166.8,95.47,168.32,92.88,166.57,92.07L166.57,92.07z"/>
				</g>
			</g>
		</g>
		<g>
			<defs>
				<path id="SVGID_27_" d="M182.8,90.47c0.02,47.79-40.17,86.54-89.77,86.56S3.22,138.32,3.2,90.53S43.38,3.99,92.97,3.97
					C142.56,3.96,182.78,42.68,182.8,90.47"/>
			</defs>
			<clipPath id="SVGID_28_">
				<use xlink:href="#SVGID_27_"  style="overflow:visible;"/>
			</clipPath>
			<g class="st17">
				<path class="st6" d="M146.57,147.81c-2.51-1.24-5.64-0.69-8.13,0.65c-1.3,0.7-3.15,3.53-4.07,4.67
					c-2.19,2.71-2.3,6.76-0.66,9.83s4.8,5.16,8.19,5.96c1.22,0.29,2.48,0.43,3.73,0.29c3.92-0.42,7.23-3.71,8.16-7.54
					c0.93-3.83,0.94-8.25-2.8-11.07C150.21,150.02,147.46,148.16,146.57,147.81"/>
				<g>
					<path d="M147.33,146.51c-2.82-1.3-5.88-1.05-8.68,0.18c-2.24,0.99-3.54,2.97-4.97,4.87c-1.55,2.07-2.58,4.15-2.59,6.81
						c-0.02,2.76,1.03,5.36,2.8,7.45c3.41,4.03,9.84,6.24,14.82,4.07c4.81-2.1,7.14-7.24,7.1-12.28c-0.02-2.77-0.96-5.51-3-7.44
						c-0.83-0.79-1.82-1.43-2.78-2.06C149.16,147.54,148.28,146.92,147.33,146.51c-0.75-0.32-1.6-0.22-2.05,0.54
						c-0.38,0.63-0.2,1.73,0.54,2.05c1.38,0.59,2.66,1.55,3.88,2.4c1.48,1.04,2.5,2.44,2.91,4.22c0.82,3.64-0.43,8.1-3.4,10.43
						c-6.74,5.27-18.95-3.57-14.08-11.5c0.5-0.82,1.15-1.57,1.72-2.33c0.59-0.79,1.21-1.66,1.97-2.29c1.75-1.45,4.95-1.87,7-0.92
						C147.55,149.91,149.08,147.32,147.33,146.51L147.33,146.51z"/>
				</g>
			</g>
		</g>
		<g>
			<defs>
				<path id="SVGID_29_" d="M182.8,90.47c0.02,47.79-40.17,86.54-89.77,86.56S3.22,138.32,3.2,90.53S43.38,3.99,92.97,3.97
					C142.56,3.96,182.78,42.68,182.8,90.47"/>
			</defs>
			<clipPath id="SVGID_30_">
				<use xlink:href="#SVGID_29_"  style="overflow:visible;"/>
			</clipPath>
			<g class="st18">
				<g>
					<path class="st6" d="M124.48,108.74c-2.97,1.66-4.69,5.23-4.12,8.53c0.57,3.3,3.38,6.12,6.74,6.74
						c3.53,0.65,7.38-1.19,9.02-4.31c1.64-3.13,0.92-7.28-1.68-9.69C131.19,106.99,127.2,107.11,124.48,108.74"/>
					<g>
						<path d="M123.73,107.45c-3.53,2.05-5.51,6.19-4.81,10.22c0.68,3.89,4.13,7.2,8.01,7.82c3.99,0.64,8.27-1.22,10.33-4.75
							c2.06-3.54,1.46-8.18-1.2-11.23C132.99,106,127.75,105.1,123.73,107.45c-1.67,0.97-0.16,3.57,1.51,2.59
							c2.48-1.45,5.51-1.14,7.74,0.66c2.26,1.83,3.17,5.05,2.07,7.77c-1.01,2.51-3.74,4.12-6.39,4.16
							c-2.81,0.04-5.53-1.83-6.51-4.47c-1.14-3.05,0.32-6.52,3.09-8.13C126.91,109.07,125.4,106.48,123.73,107.45L123.73,107.45z"/>
					</g>
				</g>
				<g>
					<path class="st19" d="M122.99,109.84c3.66,4.17,7.32,8.34,10.98,12.51"/>
					<g>
						<path d="M121.93,110.9c3.66,4.17,7.32,8.34,10.98,12.51c0.53,0.61,1.57,0.55,2.12,0c0.6-0.6,0.54-1.51,0-2.12
							c-3.66-4.17-7.32-8.34-10.98-12.51c-0.53-0.61-1.57-0.55-2.12,0C121.32,109.38,121.39,110.29,121.93,110.9L121.93,110.9z"/>
					</g>
				</g>
			</g>
		</g>
		<g>
			<defs>
				<path id="SVGID_31_" d="M182.8,90.47c0.02,47.79-40.17,86.54-89.77,86.56S3.22,138.32,3.2,90.53S43.38,3.99,92.97,3.97
					C142.56,3.96,182.78,42.68,182.8,90.47"/>
			</defs>
			<clipPath id="SVGID_32_">
				<use xlink:href="#SVGID_31_"  style="overflow:visible;"/>
			</clipPath>
			<g class="st20">
				<g>
					<path class="st21" d="M156.73,130.56c-0.06,0.06-0.12,0.12-0.17,0.17c-0.15,0.14-0.25,0.3-0.31,0.48
						c-0.09,0.18-0.14,0.37-0.13,0.58c-0.01,0.21,0.04,0.4,0.13,0.58c0.06,0.19,0.16,0.35,0.31,0.48c0.1,0.08,0.2,0.16,0.3,0.23
						c0.23,0.14,0.49,0.2,0.76,0.2c0.13-0.02,0.27-0.04,0.4-0.05c0.25-0.07,0.47-0.2,0.66-0.39c0.06-0.06,0.12-0.12,0.17-0.17
						c0.15-0.14,0.25-0.3,0.31-0.48c0.09-0.18,0.14-0.37,0.13-0.58c0.01-0.21-0.04-0.4-0.13-0.58c-0.06-0.19-0.16-0.35-0.31-0.48
						c-0.1-0.08-0.2-0.16-0.3-0.23c-0.23-0.14-0.49-0.2-0.76-0.2c-0.13,0.02-0.27,0.04-0.4,0.05
						C157.13,130.24,156.91,130.37,156.73,130.56L156.73,130.56z"/>
				</g>
			</g>
		</g>
		<g>
			<defs>
				<path id="SVGID_33_" d="M182.8,90.47c0.02,47.79-40.17,86.54-89.77,86.56S3.22,138.32,3.2,90.53S43.38,3.99,92.97,3.97
					C142.56,3.96,182.78,42.68,182.8,90.47"/>
			</defs>
			<clipPath id="SVGID_34_">
				<use xlink:href="#SVGID_33_"  style="overflow:visible;"/>
			</clipPath>
			<g class="st22">
				<g>
					<path class="st21" d="M164.53,131.09c0-0.06,0-0.12,0-0.17c0.01-0.21-0.04-0.4-0.13-0.58c-0.06-0.19-0.16-0.35-0.31-0.48
						c-0.14-0.15-0.3-0.25-0.48-0.31c-0.18-0.09-0.37-0.14-0.58-0.13c-0.13,0.02-0.27,0.04-0.4,0.05c-0.25,0.07-0.47,0.2-0.66,0.39
						c-0.08,0.1-0.16,0.2-0.23,0.3c-0.14,0.23-0.2,0.49-0.2,0.76c0,0.06,0,0.12,0,0.17c-0.01,0.21,0.04,0.4,0.13,0.58
						c0.06,0.19,0.16,0.35,0.31,0.48c0.14,0.15,0.3,0.25,0.48,0.31c0.18,0.09,0.37,0.14,0.58,0.13c0.13-0.02,0.27-0.04,0.4-0.05
						c0.25-0.07,0.47-0.2,0.66-0.39c0.08-0.1,0.16-0.2,0.23-0.3C164.46,131.61,164.53,131.36,164.53,131.09L164.53,131.09z"/>
				</g>
			</g>
		</g>
		<g>
			<defs>
				<path id="SVGID_35_" d="M182.8,90.47c0.02,47.79-40.17,86.54-89.77,86.56S3.22,138.32,3.2,90.53S43.38,3.99,92.97,3.97
					C142.56,3.96,182.78,42.68,182.8,90.47"/>
			</defs>
			<clipPath id="SVGID_36_">
				<use xlink:href="#SVGID_35_"  style="overflow:visible;"/>
			</clipPath>
			<g class="st23">
				<g>
					<path class="st21" d="M160.59,137.13c1.93,0,1.93-3,0-3S158.65,137.13,160.59,137.13L160.59,137.13z"/>
				</g>
			</g>
		</g>
		<g>
			<defs>
				<path id="SVGID_37_" d="M182.8,90.47c0.02,47.79-40.17,86.54-89.77,86.56S3.22,138.32,3.2,90.53S43.38,3.99,92.97,3.97
					C142.56,3.96,182.78,42.68,182.8,90.47"/>
			</defs>
			<clipPath id="SVGID_38_">
				<use xlink:href="#SVGID_37_"  style="overflow:visible;"/>
			</clipPath>
			<g class="st24">
				<g>
					<path class="st21" d="M164.17,106.8c0-0.06,0-0.12,0-0.17c0.01-0.21-0.04-0.4-0.13-0.58c-0.06-0.19-0.16-0.35-0.31-0.48
						c-0.14-0.15-0.3-0.25-0.48-0.31c-0.18-0.09-0.37-0.14-0.58-0.13c-0.13,0.02-0.27,0.04-0.4,0.05c-0.25,0.07-0.47,0.2-0.66,0.39
						c-0.08,0.1-0.16,0.2-0.23,0.3c-0.14,0.23-0.2,0.49-0.2,0.76c0,0.06,0,0.12,0,0.17c-0.01,0.21,0.04,0.4,0.13,0.58
						c0.06,0.19,0.16,0.35,0.31,0.48c0.14,0.15,0.3,0.25,0.48,0.31c0.18,0.09,0.37,0.14,0.58,0.13c0.13-0.02,0.27-0.04,0.4-0.05
						c0.25-0.07,0.47-0.2,0.66-0.39c0.08-0.1,0.16-0.2,0.23-0.3C164.1,107.33,164.17,107.07,164.17,106.8L164.17,106.8z"/>
				</g>
			</g>
		</g>
		<g>
			<defs>
				<path id="SVGID_39_" d="M182.8,90.47c0.02,47.79-40.17,86.54-89.77,86.56S3.22,138.32,3.2,90.53S43.38,3.99,92.97,3.97
					C142.56,3.96,182.78,42.68,182.8,90.47"/>
			</defs>
			<clipPath id="SVGID_40_">
				<use xlink:href="#SVGID_39_"  style="overflow:visible;"/>
			</clipPath>
			<g class="st25">
				<g>
					<path class="st21" d="M159.7,104.81c1.93,0,1.93-3,0-3S157.77,104.81,159.7,104.81L159.7,104.81z"/>
				</g>
			</g>
		</g>
		<g>
			<defs>
				<path id="SVGID_41_" d="M182.8,90.47c0.02,47.79-40.17,86.54-89.77,86.56S3.22,138.32,3.2,90.53S43.38,3.99,92.97,3.97
					C142.56,3.96,182.78,42.68,182.8,90.47"/>
			</defs>
			<clipPath id="SVGID_42_">
				<use xlink:href="#SVGID_41_"  style="overflow:visible;"/>
			</clipPath>
			<g class="st26">
				<g>
					<path class="st21" d="M164.42,102.89c1.93,0,1.93-3,0-3S162.49,102.89,164.42,102.89L164.42,102.89z"/>
				</g>
			</g>
		</g>
		<g>
			<defs>
				<path id="SVGID_43_" d="M182.8,90.47c0.02,47.79-40.17,86.54-89.77,86.56S3.22,138.32,3.2,90.53S43.38,3.99,92.97,3.97
					C142.56,3.96,182.78,42.68,182.8,90.47"/>
			</defs>
			<clipPath id="SVGID_44_">
				<use xlink:href="#SVGID_43_"  style="overflow:visible;"/>
			</clipPath>
			<g class="st27">
				<g>
					<path class="st21" d="M141.61,83.57c0-0.06,0-0.12,0-0.17c0.01-0.21-0.04-0.4-0.13-0.58c-0.06-0.19-0.16-0.35-0.31-0.48
						c-0.14-0.15-0.3-0.25-0.48-0.31c-0.18-0.09-0.37-0.14-0.58-0.13c-0.13,0.02-0.27,0.04-0.4,0.05c-0.25,0.07-0.47,0.2-0.66,0.39
						c-0.08,0.1-0.16,0.2-0.23,0.3c-0.14,0.23-0.2,0.49-0.2,0.76c0,0.06,0,0.12,0,0.17c-0.01,0.21,0.04,0.4,0.13,0.58
						c0.06,0.19,0.16,0.35,0.31,0.48c0.14,0.15,0.3,0.25,0.48,0.31c0.18,0.09,0.37,0.14,0.58,0.13c0.13-0.02,0.27-0.04,0.4-0.05
						c0.25-0.07,0.47-0.2,0.66-0.39c0.08-0.1,0.16-0.2,0.23-0.3C141.54,84.1,141.61,83.84,141.61,83.57L141.61,83.57z"/>
				</g>
			</g>
		</g>
		<g>
			<defs>
				<path id="SVGID_45_" d="M182.8,90.47c0.02,47.79-40.17,86.54-89.77,86.56S3.22,138.32,3.2,90.53S43.38,3.99,92.97,3.97
					C142.56,3.96,182.78,42.68,182.8,90.47"/>
			</defs>
			<clipPath id="SVGID_46_">
				<use xlink:href="#SVGID_45_"  style="overflow:visible;"/>
			</clipPath>
			<g class="st28">
				<g>
					<path class="st21" d="M137.84,80.53c1.93,0,1.93-3,0-3C135.9,77.53,135.9,80.53,137.84,80.53L137.84,80.53z"/>
				</g>
			</g>
		</g>
		<g>
			<defs>
				<path id="SVGID_47_" d="M182.8,90.47c0.02,47.79-40.17,86.54-89.77,86.56S3.22,138.32,3.2,90.53S43.38,3.99,92.97,3.97
					C142.56,3.96,182.78,42.68,182.8,90.47"/>
			</defs>
			<clipPath id="SVGID_48_">
				<use xlink:href="#SVGID_47_"  style="overflow:visible;"/>
			</clipPath>
			<g class="st29">
				<g>
					<path class="st21" d="M144.51,163.35c1.93,0,1.93-3,0-3S142.57,163.35,144.51,163.35L144.51,163.35z"/>
				</g>
			</g>
		</g>
		<g>
			<defs>
				<path id="SVGID_49_" d="M182.8,90.47c0.02,47.79-40.17,86.54-89.77,86.56S3.22,138.32,3.2,90.53S43.38,3.99,92.97,3.97
					C142.56,3.96,182.78,42.68,182.8,90.47"/>
			</defs>
			<clipPath id="SVGID_50_">
				<use xlink:href="#SVGID_49_"  style="overflow:visible;"/>
			</clipPath>
			<g class="st30">
				<g>
					<path class="st21" d="M142.23,157.93c1.93,0,1.93-3,0-3S140.3,157.93,142.23,157.93L142.23,157.93z"/>
				</g>
			</g>
		</g>
		<g>
			<defs>
				<path id="SVGID_51_" d="M182.8,90.47c0.02,47.79-40.17,86.54-89.77,86.56S3.22,138.32,3.2,90.53S43.38,3.99,92.97,3.97
					C142.56,3.96,182.78,42.68,182.8,90.47"/>
			</defs>
			<clipPath id="SVGID_52_">
				<use xlink:href="#SVGID_51_"  style="overflow:visible;"/>
			</clipPath>
			<g class="st31">
				<g>
					<path class="st21" d="M147.13,155.63c-0.06,0-0.12,0-0.17,0c-0.21-0.01-0.4,0.04-0.58,0.13c-0.19,0.06-0.35,0.16-0.48,0.31
						c-0.15,0.14-0.25,0.3-0.31,0.48c-0.09,0.18-0.14,0.37-0.13,0.58c0.02,0.13,0.04,0.27,0.05,0.4c0.07,0.25,0.2,0.47,0.39,0.66
						c0.1,0.08,0.2,0.16,0.3,0.23c0.23,0.14,0.49,0.2,0.76,0.2c0.06,0,0.12,0,0.17,0c0.21,0.01,0.4-0.04,0.58-0.13
						c0.19-0.06,0.35-0.16,0.48-0.31c0.15-0.14,0.25-0.3,0.31-0.48c0.09-0.18,0.14-0.37,0.13-0.58c-0.02-0.13-0.04-0.27-0.05-0.4
						c-0.07-0.25-0.2-0.47-0.39-0.66c-0.1-0.08-0.2-0.16-0.3-0.23C147.65,155.7,147.4,155.63,147.13,155.63L147.13,155.63z"/>
				</g>
			</g>
		</g>
		<g>
			<defs>
				<path id="SVGID_53_" d="M182.8,90.47c0.02,47.79-40.17,86.54-89.77,86.56S3.22,138.32,3.2,90.53S43.38,3.99,92.97,3.97
					C142.56,3.96,182.78,42.68,182.8,90.47"/>
			</defs>
			<clipPath id="SVGID_54_">
				<use xlink:href="#SVGID_53_"  style="overflow:visible;"/>
			</clipPath>
			<g class="st32">
				<g>
					<path class="st21" d="M116.63,162.91c0-0.12,0-0.23,0-0.35c0.01-0.21-0.04-0.4-0.13-0.58c-0.06-0.19-0.16-0.35-0.31-0.48
						c-0.14-0.15-0.3-0.25-0.48-0.31c-0.18-0.09-0.37-0.14-0.58-0.13c-0.13,0.02-0.27,0.04-0.4,0.05c-0.25,0.07-0.47,0.2-0.66,0.39
						c-0.08,0.1-0.16,0.2-0.23,0.3c-0.14,0.23-0.2,0.49-0.2,0.76c0,0.12,0,0.23,0,0.35c-0.01,0.21,0.04,0.4,0.13,0.58
						c0.06,0.19,0.16,0.35,0.31,0.48c0.14,0.15,0.3,0.25,0.48,0.31c0.18,0.09,0.37,0.14,0.58,0.13c0.13-0.02,0.27-0.04,0.4-0.05
						c0.25-0.07,0.47-0.2,0.66-0.39c0.08-0.1,0.16-0.2,0.23-0.3C116.56,163.43,116.63,163.18,116.63,162.91L116.63,162.91z"/>
				</g>
			</g>
		</g>
		<g>
			<defs>
				<path id="SVGID_55_" d="M182.8,90.47c0.02,47.79-40.17,86.54-89.77,86.56S3.22,138.32,3.2,90.53S43.38,3.99,92.97,3.97
					C142.56,3.96,182.78,42.68,182.8,90.47"/>
			</defs>
			<clipPath id="SVGID_56_">
				<use xlink:href="#SVGID_55_"  style="overflow:visible;"/>
			</clipPath>
			<g class="st33">
				<g>
					<path class="st21" d="M119.15,156.69c-0.06,0-0.12,0-0.17,0c-0.21-0.01-0.4,0.04-0.58,0.13c-0.19,0.06-0.35,0.16-0.48,0.31
						c-0.15,0.14-0.25,0.3-0.31,0.48c-0.09,0.18-0.14,0.37-0.13,0.58c0.02,0.13,0.04,0.27,0.05,0.4c0.07,0.25,0.2,0.47,0.39,0.66
						c0.1,0.08,0.2,0.16,0.3,0.23c0.23,0.14,0.49,0.2,0.76,0.2c0.06,0,0.12,0,0.17,0c0.21,0.01,0.4-0.04,0.58-0.13
						c0.19-0.06,0.35-0.16,0.48-0.31c0.15-0.14,0.25-0.3,0.31-0.48c0.09-0.18,0.14-0.37,0.13-0.58c-0.02-0.13-0.04-0.27-0.05-0.4
						c-0.07-0.25-0.2-0.47-0.39-0.66c-0.1-0.08-0.2-0.16-0.3-0.23C119.68,156.76,119.42,156.69,119.15,156.69L119.15,156.69z"/>
				</g>
			</g>
		</g>
		<g>
			<defs>
				<path id="SVGID_57_" d="M182.8,90.47c0.02,47.79-40.17,86.54-89.77,86.56S3.22,138.32,3.2,90.53S43.38,3.99,92.97,3.97
					C142.56,3.96,182.78,42.68,182.8,90.47"/>
			</defs>
			<clipPath id="SVGID_58_">
				<use xlink:href="#SVGID_57_"  style="overflow:visible;"/>
			</clipPath>
			<g class="st34">
				<g>
					<path class="st21" d="M89.51,105.78c0-0.06,0-0.12,0-0.17c0.01-0.21-0.04-0.4-0.13-0.58c-0.06-0.19-0.16-0.35-0.31-0.48
						c-0.14-0.15-0.3-0.25-0.48-0.31c-0.18-0.09-0.37-0.14-0.58-0.13c-0.13,0.02-0.27,0.04-0.4,0.05c-0.25,0.07-0.47,0.2-0.66,0.39
						c-0.08,0.1-0.16,0.2-0.23,0.3c-0.14,0.23-0.2,0.49-0.2,0.76c0,0.06,0,0.12,0,0.17c-0.01,0.21,0.04,0.4,0.13,0.58
						c0.06,0.19,0.16,0.35,0.31,0.48c0.14,0.15,0.3,0.25,0.48,0.31c0.18,0.09,0.37,0.14,0.58,0.13c0.13-0.02,0.27-0.04,0.4-0.05
						c0.25-0.07,0.47-0.2,0.66-0.39c0.08-0.1,0.16-0.2,0.23-0.3C89.44,106.3,89.51,106.05,89.51,105.78L89.51,105.78z"/>
				</g>
			</g>
		</g>
		<g>
			<defs>
				<path id="SVGID_59_" d="M182.8,90.47c0.02,47.79-40.17,86.54-89.77,86.56S3.22,138.32,3.2,90.53S43.38,3.99,92.97,3.97
					C142.56,3.96,182.78,42.68,182.8,90.47"/>
			</defs>
			<clipPath id="SVGID_60_">
				<use xlink:href="#SVGID_59_"  style="overflow:visible;"/>
			</clipPath>
			<g class="st35">
				<g>
					<path class="st21" d="M90.53,102.11c0,0.06,0,0.12,0,0.17c-0.01,0.21,0.04,0.4,0.13,0.58c0.06,0.19,0.16,0.35,0.31,0.48
						c0.14,0.15,0.3,0.25,0.48,0.31c0.18,0.09,0.37,0.14,0.58,0.13c0.13-0.02,0.27-0.04,0.4-0.05c0.25-0.07,0.47-0.2,0.66-0.39
						c0.08-0.1,0.16-0.2,0.23-0.3c0.14-0.23,0.2-0.49,0.2-0.76c0-0.06,0-0.12,0-0.17c0.01-0.21-0.04-0.4-0.13-0.58
						c-0.06-0.19-0.16-0.35-0.31-0.48c-0.14-0.15-0.3-0.25-0.48-0.31c-0.18-0.09-0.37-0.14-0.58-0.13c-0.13,0.02-0.27,0.04-0.4,0.05
						c-0.25,0.07-0.47,0.2-0.66,0.39c-0.08,0.1-0.16,0.2-0.23,0.3C90.6,101.59,90.53,101.84,90.53,102.11L90.53,102.11z"/>
				</g>
			</g>
		</g>
		<g>
			<defs>
				<path id="SVGID_61_" d="M182.8,90.47c0.02,47.79-40.17,86.54-89.77,86.56S3.22,138.32,3.2,90.53S43.38,3.99,92.97,3.97
					C142.56,3.96,182.78,42.68,182.8,90.47"/>
			</defs>
			<clipPath id="SVGID_62_">
				<use xlink:href="#SVGID_61_"  style="overflow:visible;"/>
			</clipPath>
			<g class="st36">
				<g>
					<path class="st21" d="M92.91,110.25c0.12,0,0.23,0,0.35,0c0.21,0.01,0.4-0.04,0.58-0.13c0.19-0.06,0.35-0.16,0.48-0.31
						c0.15-0.14,0.25-0.3,0.31-0.48c0.09-0.18,0.14-0.37,0.13-0.58c-0.02-0.13-0.04-0.27-0.05-0.4c-0.07-0.25-0.2-0.47-0.39-0.66
						c-0.1-0.08-0.2-0.16-0.3-0.23c-0.23-0.14-0.49-0.2-0.76-0.2c-0.12,0-0.23,0-0.35,0c-0.21-0.01-0.4,0.04-0.58,0.13
						c-0.19,0.06-0.35,0.16-0.48,0.31c-0.15,0.14-0.25,0.3-0.31,0.48c-0.09,0.18-0.14,0.37-0.13,0.58c0.02,0.13,0.04,0.27,0.05,0.4
						c0.07,0.25,0.2,0.47,0.39,0.66c0.1,0.08,0.2,0.16,0.3,0.23C92.39,110.18,92.64,110.25,92.91,110.25L92.91,110.25z"/>
				</g>
			</g>
		</g>
		<g>
			<defs>
				<path id="SVGID_63_" d="M182.8,90.47c0.02,47.79-40.17,86.54-89.77,86.56S3.22,138.32,3.2,90.53S43.38,3.99,92.97,3.97
					C142.56,3.96,182.78,42.68,182.8,90.47"/>
			</defs>
			<clipPath id="SVGID_64_">
				<use xlink:href="#SVGID_63_"  style="overflow:visible;"/>
			</clipPath>
			<g class="st37">
				<g>
					<path class="st21" d="M89.25,137.86c1.93,0,1.93-3,0-3S87.31,137.86,89.25,137.86L89.25,137.86z"/>
				</g>
			</g>
		</g>
		<g>
			<defs>
				<path id="SVGID_65_" d="M182.8,90.47c0.02,47.79-40.17,86.54-89.77,86.56S3.22,138.32,3.2,90.53S43.38,3.99,92.97,3.97
					C142.56,3.96,182.78,42.68,182.8,90.47"/>
			</defs>
			<clipPath id="SVGID_66_">
				<use xlink:href="#SVGID_65_"  style="overflow:visible;"/>
			</clipPath>
			<g class="st38">
				<g>
					<path class="st21" d="M94.94,133.04c0-0.06,0-0.12,0-0.17c0.01-0.21-0.04-0.4-0.13-0.58c-0.06-0.19-0.16-0.35-0.31-0.48
						c-0.14-0.15-0.3-0.25-0.48-0.31c-0.18-0.09-0.37-0.14-0.58-0.13c-0.13,0.02-0.27,0.04-0.4,0.05c-0.25,0.07-0.47,0.2-0.66,0.39
						c-0.08,0.1-0.16,0.2-0.23,0.3c-0.14,0.23-0.2,0.49-0.2,0.76c0,0.06,0,0.12,0,0.17c-0.01,0.21,0.04,0.4,0.13,0.58
						c0.06,0.19,0.16,0.35,0.31,0.48c0.14,0.15,0.3,0.25,0.48,0.31c0.18,0.09,0.37,0.14,0.58,0.13c0.13-0.02,0.27-0.04,0.4-0.05
						c0.25-0.07,0.47-0.2,0.66-0.39c0.08-0.1,0.16-0.2,0.23-0.3C94.87,133.56,94.94,133.31,94.94,133.04L94.94,133.04z"/>
				</g>
			</g>
		</g>
		<g>
			<defs>
				<path id="SVGID_67_" d="M182.8,90.47c0.02,47.79-40.17,86.54-89.77,86.56S3.22,138.32,3.2,90.53S43.38,3.99,92.97,3.97
					C142.56,3.96,182.78,42.68,182.8,90.47"/>
			</defs>
			<clipPath id="SVGID_68_">
				<use xlink:href="#SVGID_67_"  style="overflow:visible;"/>
			</clipPath>
			<g class="st39">
				<g>
					<path class="st21" d="M94.14,140.48c1.93,0,1.93-3,0-3S92.21,140.48,94.14,140.48L94.14,140.48z"/>
				</g>
			</g>
		</g>
		<g>
			<defs>
				<path id="SVGID_69_" d="M182.8,90.47c0.02,47.79-40.17,86.54-89.77,86.56S3.22,138.32,3.2,90.53S43.38,3.99,92.97,3.97
					C142.56,3.96,182.78,42.68,182.8,90.47"/>
			</defs>
			<clipPath id="SVGID_70_">
				<use xlink:href="#SVGID_69_"  style="overflow:visible;"/>
			</clipPath>
			<g class="st40">
				<g>
					<path class="st21" d="M110.03,80.37c1.93,0,1.93-3,0-3S108.1,80.37,110.03,80.37L110.03,80.37z"/>
				</g>
			</g>
		</g>
		<g>
			<defs>
				<path id="SVGID_71_" d="M182.8,90.47c0.02,47.79-40.17,86.54-89.77,86.56S3.22,138.32,3.2,90.53S43.38,3.99,92.97,3.97
					C142.56,3.96,182.78,42.68,182.8,90.47"/>
			</defs>
			<clipPath id="SVGID_72_">
				<use xlink:href="#SVGID_71_"  style="overflow:visible;"/>
			</clipPath>
			<g class="st41">
				<g>
					<path class="st21" d="M114.76,84.56c1.93,0,1.93-3,0-3S112.82,84.56,114.76,84.56L114.76,84.56z"/>
				</g>
			</g>
		</g>
		<g>
			<defs>
				<path id="SVGID_73_" d="M182.8,90.47c0.02,47.79-40.17,86.54-89.77,86.56S3.22,138.32,3.2,90.53S43.38,3.99,92.97,3.97
					C142.56,3.96,182.78,42.68,182.8,90.47"/>
			</defs>
			<clipPath id="SVGID_74_">
				<use xlink:href="#SVGID_73_"  style="overflow:visible;"/>
			</clipPath>
			<g class="st42">
				<g>
					<path class="st21" d="M113.59,159.22c1.93,0,1.93-3,0-3C111.66,156.22,111.65,159.22,113.59,159.22L113.59,159.22z"/>
				</g>
			</g>
		</g>
		<g>
			<defs>
				<path id="SVGID_75_" d="M182.8,90.47c0.02,47.79-40.17,86.54-89.77,86.56S3.22,138.32,3.2,90.53S43.38,3.99,92.97,3.97
					C142.56,3.96,182.78,42.68,182.8,90.47"/>
			</defs>
			<clipPath id="SVGID_76_">
				<use xlink:href="#SVGID_75_"  style="overflow:visible;"/>
			</clipPath>
			<g class="st43">
				<g>
					<path class="st21" d="M127.42,143.97c0-2.56,0-5.13,0-7.69c0-0.97-1.5-0.97-1.5,0c0,2.56,0,5.13,0,7.69
						C125.92,144.94,127.42,144.94,127.42,143.97L127.42,143.97z"/>
				</g>
			</g>
		</g>
		<g>
			<defs>
				<path id="SVGID_77_" d="M182.8,90.47c0.02,47.79-40.17,86.54-89.77,86.56S3.22,138.32,3.2,90.53S43.38,3.99,92.97,3.97
					C142.56,3.96,182.78,42.68,182.8,90.47"/>
			</defs>
			<clipPath id="SVGID_78_">
				<use xlink:href="#SVGID_77_"  style="overflow:visible;"/>
			</clipPath>
			<g class="st44">
				<g>
					<path class="st21" d="M122.47,140.54c2.65,0.08,5.3,0.28,7.94,0.59c0.4,0.05,0.75-0.38,0.75-0.75c0-0.44-0.35-0.7-0.75-0.75
						c-2.64-0.31-5.28-0.51-7.94-0.59C121.5,139.01,121.5,140.51,122.47,140.54L122.47,140.54z"/>
				</g>
			</g>
		</g>
		<g>
			<defs>
				<path id="SVGID_79_" d="M182.8,90.47c0.02,47.79-40.17,86.54-89.77,86.56S3.22,138.32,3.2,90.53S43.38,3.99,92.97,3.97
					C142.56,3.96,182.78,42.68,182.8,90.47"/>
			</defs>
			<clipPath id="SVGID_80_">
				<use xlink:href="#SVGID_79_"  style="overflow:visible;"/>
			</clipPath>
			<g class="st45">
				<g>
					<path class="st21" d="M90.06,160.91c1.16-1.44,2.05-3.05,2.64-4.81c0.12-0.37-0.14-0.84-0.52-0.92
						c-0.41-0.09-0.79,0.13-0.92,0.52c-0.07,0.2-0.13,0.39-0.21,0.59c-0.04,0.1-0.08,0.19-0.11,0.29c-0.03,0.08-0.04,0.1-0.01,0.04
						c-0.02,0.05-0.04,0.1-0.06,0.14c-0.17,0.38-0.35,0.75-0.55,1.12c-0.2,0.36-0.41,0.72-0.64,1.06c-0.11,0.17-0.23,0.34-0.35,0.51
						c-0.06,0.08-0.12,0.17-0.19,0.25c0.06-0.08-0.11,0.13-0.12,0.15c-0.24,0.31-0.32,0.77,0,1.06
						C89.27,161.16,89.8,161.23,90.06,160.91L90.06,160.91z"/>
				</g>
			</g>
		</g>
		<g>
			<defs>
				<path id="SVGID_81_" d="M182.8,90.47c0.02,47.79-40.17,86.54-89.77,86.56S3.22,138.32,3.2,90.53S43.38,3.99,92.97,3.97
					C142.56,3.96,182.78,42.68,182.8,90.47"/>
			</defs>
			<clipPath id="SVGID_82_">
				<use xlink:href="#SVGID_81_"  style="overflow:visible;"/>
			</clipPath>
			<g class="st46">
				<g>
					<path class="st21" d="M88.22,156.96c1.34,1.11,2.67,2.22,4.01,3.34c0.3,0.25,0.77,0.32,1.06,0c0.25-0.28,0.32-0.79,0-1.06
						c-1.34-1.11-2.67-2.22-4.01-3.34c-0.3-0.25-0.77-0.32-1.06,0C87.96,156.17,87.9,156.69,88.22,156.96L88.22,156.96z"/>
				</g>
			</g>
		</g>
		<g>
			<defs>
				<path id="SVGID_83_" d="M182.8,90.47c0.02,47.79-40.17,86.54-89.77,86.56S3.22,138.32,3.2,90.53S43.38,3.99,92.97,3.97
					C142.56,3.96,182.78,42.68,182.8,90.47"/>
			</defs>
			<clipPath id="SVGID_84_">
				<use xlink:href="#SVGID_83_"  style="overflow:visible;"/>
			</clipPath>
			<g class="st47">
				<g>
					<path class="st21" d="M125.23,67.51c-0.11-1.51-0.23-3.03-0.34-4.54c-0.03-0.39-0.32-0.77-0.75-0.75
						c-0.38,0.02-0.78,0.33-0.75,0.75c0.11,1.51,0.23,3.03,0.34,4.54c0.03,0.39,0.32,0.77,0.75,0.75
						C124.86,68.24,125.26,67.93,125.23,67.51L125.23,67.51z"/>
				</g>
			</g>
		</g>
		<g>
			<defs>
				<path id="SVGID_85_" d="M182.8,90.47c0.02,47.79-40.17,86.54-89.77,86.56S3.22,138.32,3.2,90.53S43.38,3.99,92.97,3.97
					C142.56,3.96,182.78,42.68,182.8,90.47"/>
			</defs>
			<clipPath id="SVGID_86_">
				<use xlink:href="#SVGID_85_"  style="overflow:visible;"/>
			</clipPath>
			<g class="st48">
				<g>
					<path class="st21" d="M122.8,65.33c1.17-0.07,2.33-0.14,3.5-0.21c0.39-0.02,0.77-0.33,0.75-0.75
						c-0.02-0.39-0.33-0.77-0.75-0.75c-1.17,0.07-2.33,0.14-3.5,0.21c-0.39,0.02-0.77,0.33-0.75,0.75
						C122.06,64.96,122.38,65.35,122.8,65.33L122.8,65.33z"/>
				</g>
			</g>
		</g>
		<g>
			<defs>
				<path id="SVGID_87_" d="M182.8,90.47c0.02,47.79-40.17,86.54-89.77,86.56S3.22,138.32,3.2,90.53S43.38,3.99,92.97,3.97
					C142.56,3.96,182.78,42.68,182.8,90.47"/>
			</defs>
			<clipPath id="SVGID_88_">
				<use xlink:href="#SVGID_87_"  style="overflow:visible;"/>
			</clipPath>
			<g class="st49">
				<g>
					<path class="st21" d="M87.98,84.66c0.94,1.1,1.89,2.19,2.83,3.29c0.26,0.3,0.8,0.28,1.06,0c0.29-0.32,0.27-0.74,0-1.06
						c-0.94-1.1-1.89-2.19-2.83-3.29c-0.26-0.3-0.8-0.28-1.06,0C87.68,83.92,87.7,84.35,87.98,84.66L87.98,84.66z"/>
				</g>
			</g>
		</g>
		<g>
			<defs>
				<path id="SVGID_89_" d="M182.8,90.47c0.02,47.79-40.17,86.54-89.77,86.56S3.22,138.32,3.2,90.53S43.38,3.99,92.97,3.97
					C142.56,3.96,182.78,42.68,182.8,90.47"/>
			</defs>
			<clipPath id="SVGID_90_">
				<use xlink:href="#SVGID_89_"  style="overflow:visible;"/>
			</clipPath>
			<g class="st50">
				<g>
					<path class="st21" d="M88.57,88.11c1.33-0.63,2.45-1.67,3.21-2.93c0.2-0.34,0.09-0.84-0.27-1.03
						c-0.36-0.19-0.81-0.09-1.03,0.27c-0.08,0.14-0.17,0.28-0.27,0.41c-0.05,0.07-0.1,0.14-0.15,0.21c0.04-0.06,0.09-0.11,0.02-0.02
						c-0.02,0.03-0.05,0.06-0.07,0.09c-0.21,0.25-0.44,0.49-0.68,0.71c-0.06,0.05-0.12,0.1-0.18,0.15c-0.04,0.04-0.16,0.1-0.18,0.15
						c0.08-0.06,0.1-0.08,0.06-0.05c-0.02,0.01-0.04,0.03-0.06,0.04c-0.03,0.02-0.06,0.05-0.09,0.07c-0.06,0.05-0.13,0.09-0.19,0.13
						c-0.28,0.19-0.57,0.35-0.88,0.49c-0.36,0.17-0.48,0.71-0.27,1.03C87.78,88.2,88.19,88.29,88.57,88.11L88.57,88.11z"/>
				</g>
			</g>
		</g>
		<g>
			<defs>
				<path id="SVGID_91_" d="M182.8,90.47c0.02,47.79-40.17,86.54-89.77,86.56S3.22,138.32,3.2,90.53S43.38,3.99,92.97,3.97
					C142.56,3.96,182.78,42.68,182.8,90.47"/>
			</defs>
			<clipPath id="SVGID_92_">
				<use xlink:href="#SVGID_91_"  style="overflow:visible;"/>
			</clipPath>
			<g class="st51">
				<g>
					<path class="st21" d="M175.84,118.86c0-0.06,0-0.12,0-0.17c0-0.1-0.02-0.2-0.06-0.29c-0.03-0.09-0.08-0.17-0.16-0.24
						c-0.07-0.07-0.15-0.12-0.24-0.16c-0.09-0.05-0.19-0.07-0.29-0.06c-0.07,0.01-0.13,0.02-0.2,0.03c-0.13,0.04-0.24,0.1-0.33,0.19
						c-0.04,0.05-0.08,0.1-0.12,0.15c-0.07,0.12-0.1,0.24-0.1,0.38c0,0.06,0,0.12,0,0.17c0,0.1,0.02,0.2,0.06,0.29
						c0.03,0.09,0.08,0.17,0.16,0.24c0.07,0.07,0.15,0.12,0.24,0.16c0.09,0.05,0.19,0.07,0.29,0.06c0.07-0.01,0.13-0.02,0.2-0.03
						c0.13-0.04,0.24-0.1,0.33-0.19c0.04-0.05,0.08-0.1,0.12-0.15C175.81,119.12,175.84,118.99,175.84,118.86L175.84,118.86z"/>
				</g>
			</g>
		</g>
		<g>
			<defs>
				<path id="SVGID_93_" d="M182.8,90.47c0.02,47.79-40.17,86.54-89.77,86.56S3.22,138.32,3.2,90.53S43.38,3.99,92.97,3.97
					C142.56,3.96,182.78,42.68,182.8,90.47"/>
			</defs>
			<clipPath id="SVGID_94_">
				<use xlink:href="#SVGID_93_"  style="overflow:visible;"/>
			</clipPath>
			<g class="st52">
				<g>
					<path class="st21" d="M149.05,117.81c-0.06-0.06-0.12-0.12-0.17-0.17c-0.07-0.07-0.15-0.12-0.24-0.16
						c-0.09-0.05-0.19-0.07-0.29-0.06c-0.1,0-0.2,0.02-0.29,0.06c-0.09,0.03-0.17,0.08-0.24,0.16c-0.04,0.05-0.08,0.1-0.12,0.15
						c-0.07,0.12-0.1,0.24-0.1,0.38c0.01,0.07,0.02,0.13,0.03,0.2c0.04,0.13,0.1,0.24,0.19,0.33c0.06,0.06,0.12,0.12,0.17,0.17
						c0.07,0.07,0.15,0.12,0.24,0.16c0.09,0.05,0.19,0.07,0.29,0.06c0.1,0,0.2-0.02,0.29-0.06c0.09-0.03,0.17-0.08,0.24-0.16
						c0.04-0.05,0.08-0.1,0.12-0.15c0.07-0.12,0.1-0.24,0.1-0.38c-0.01-0.07-0.02-0.13-0.03-0.2
						C149.2,118.01,149.14,117.9,149.05,117.81L149.05,117.81z"/>
				</g>
			</g>
		</g>
		<g>
			<defs>
				<path id="SVGID_95_" d="M182.8,90.47c0.02,47.79-40.17,86.54-89.77,86.56S3.22,138.32,3.2,90.53S43.38,3.99,92.97,3.97
					C142.56,3.96,182.78,42.68,182.8,90.47"/>
			</defs>
			<clipPath id="SVGID_96_">
				<use xlink:href="#SVGID_95_"  style="overflow:visible;"/>
			</clipPath>
			<g class="st53">
				<g>
					<path class="st21" d="M142.21,97.6c0.97,0,0.97-1.5,0-1.5C141.25,96.1,141.25,97.6,142.21,97.6L142.21,97.6z"/>
				</g>
			</g>
		</g>
		<g>
			<defs>
				<path id="SVGID_97_" d="M182.8,90.47c0.02,47.79-40.17,86.54-89.77,86.56S3.22,138.32,3.2,90.53S43.38,3.99,92.97,3.97
					C142.56,3.96,182.78,42.68,182.8,90.47"/>
			</defs>
			<clipPath id="SVGID_98_">
				<use xlink:href="#SVGID_97_"  style="overflow:visible;"/>
			</clipPath>
			<g class="st54">
				<g>
					<path class="st21" d="M108.99,102.33c0.06,0,0.12,0,0.17,0c0.1,0,0.2-0.02,0.29-0.06c0.09-0.03,0.17-0.08,0.24-0.16
						c0.07-0.07,0.12-0.15,0.16-0.24c0.05-0.09,0.07-0.19,0.06-0.29c-0.01-0.07-0.02-0.13-0.03-0.2c-0.04-0.13-0.1-0.24-0.19-0.33
						c-0.05-0.04-0.1-0.08-0.15-0.12c-0.12-0.07-0.24-0.1-0.38-0.1c-0.06,0-0.12,0-0.17,0c-0.1,0-0.2,0.02-0.29,0.06
						c-0.09,0.03-0.17,0.08-0.24,0.16c-0.07,0.07-0.12,0.15-0.16,0.24c-0.05,0.09-0.07,0.19-0.06,0.29c0.01,0.07,0.02,0.13,0.03,0.2
						c0.04,0.13,0.1,0.24,0.19,0.33c0.05,0.04,0.1,0.08,0.15,0.12C108.73,102.3,108.86,102.33,108.99,102.33L108.99,102.33z"/>
				</g>
			</g>
		</g>
		<g>
			<defs>
				<path id="SVGID_99_" d="M182.8,90.47c0.02,47.79-40.17,86.54-89.77,86.56S3.22,138.32,3.2,90.53S43.38,3.99,92.97,3.97
					C142.56,3.96,182.78,42.68,182.8,90.47"/>
			</defs>
			<clipPath id="SVGID_100_">
				<use xlink:href="#SVGID_99_"  style="overflow:visible;"/>
			</clipPath>
			<g class="st55">
				<g>
					<path class="st21" d="M106.73,127.14c0.97,0,0.97-1.5,0-1.5S105.76,127.14,106.73,127.14L106.73,127.14z"/>
				</g>
			</g>
		</g>
		<g>
			<defs>
				<path id="SVGID_101_" d="M182.8,90.47c0.02,47.79-40.17,86.54-89.77,86.56S3.22,138.32,3.2,90.53S43.38,3.99,92.97,3.97
					C142.56,3.96,182.78,42.68,182.8,90.47"/>
			</defs>
			<clipPath id="SVGID_102_">
				<use xlink:href="#SVGID_101_"  style="overflow:visible;"/>
			</clipPath>
			<g class="st56">
				<g>
					<path class="st21" d="M141.18,136.74c0.97,0,0.97-1.5,0-1.5C140.21,135.24,140.21,136.74,141.18,136.74L141.18,136.74z"/>
				</g>
			</g>
		</g>
		<g>
			<defs>
				<path id="SVGID_103_" d="M182.8,90.47c0.02,47.79-40.17,86.54-89.77,86.56S3.22,138.32,3.2,90.53S43.38,3.99,92.97,3.97
					C142.56,3.96,182.78,42.68,182.8,90.47"/>
			</defs>
			<clipPath id="SVGID_104_">
				<use xlink:href="#SVGID_103_"  style="overflow:visible;"/>
			</clipPath>
			<g class="st57">
				<g>
					<path class="st21" d="M126.87,95.63c-0.18-1.4-0.35-2.8-0.53-4.19c-0.05-0.39-0.31-0.77-0.75-0.75
						c-0.36,0.02-0.8,0.33-0.75,0.75c0.18,1.4,0.35,2.8,0.53,4.19c0.05,0.39,0.31,0.77,0.75,0.75
						C126.48,96.37,126.92,96.05,126.87,95.63L126.87,95.63z"/>
				</g>
			</g>
		</g>
		<g>
			<defs>
				<path id="SVGID_105_" d="M182.8,90.47c0.02,47.79-40.17,86.54-89.77,86.56S3.22,138.32,3.2,90.53S43.38,3.99,92.97,3.97
					C142.56,3.96,182.78,42.68,182.8,90.47"/>
			</defs>
			<clipPath id="SVGID_106_">
				<use xlink:href="#SVGID_105_"  style="overflow:visible;"/>
			</clipPath>
			<g class="st58">
				<g>
					<path class="st21" d="M124.23,94.62c0.56-0.15,1.13-0.28,1.7-0.37c0.07-0.01,0.13-0.02,0.2-0.03c0.05-0.01,0.2-0.03,0.07-0.01
						c0.15-0.02,0.31-0.04,0.47-0.05c0.29-0.03,0.58-0.05,0.87-0.06c0.39-0.02,0.77-0.33,0.75-0.75c-0.02-0.39-0.33-0.77-0.75-0.75
						c-1.25,0.06-2.49,0.25-3.69,0.57c-0.38,0.1-0.65,0.54-0.52,0.92C123.43,94.48,123.82,94.73,124.23,94.62L124.23,94.62z"/>
				</g>
			</g>
		</g>
		<g>
			<defs>
				<path id="SVGID_107_" d="M182.8,90.47c0.02,47.79-40.17,86.54-89.77,86.56S3.22,138.32,3.2,90.53S43.38,3.99,92.97,3.97
					C142.56,3.96,182.78,42.68,182.8,90.47"/>
			</defs>
			<clipPath id="SVGID_108_">
				<use xlink:href="#SVGID_107_"  style="overflow:visible;"/>
			</clipPath>
			<g class="st59">
				<g>
					<path class="st21" d="M161.44,81.07c-0.06,0-0.12,0-0.17,0c-0.1,0-0.2,0.02-0.29,0.06c-0.09,0.03-0.17,0.08-0.24,0.16
						c-0.07,0.07-0.12,0.15-0.16,0.24c-0.05,0.09-0.07,0.19-0.06,0.29c0.01,0.07,0.02,0.13,0.03,0.2c0.04,0.13,0.1,0.24,0.19,0.33
						c0.05,0.04,0.1,0.08,0.15,0.12c0.12,0.07,0.24,0.1,0.38,0.1c0.06,0,0.12,0,0.17,0c0.1,0,0.2-0.02,0.29-0.06
						c0.09-0.03,0.17-0.08,0.24-0.16c0.07-0.07,0.12-0.15,0.16-0.24c0.05-0.09,0.07-0.19,0.06-0.29c-0.01-0.07-0.02-0.13-0.03-0.2
						c-0.04-0.13-0.1-0.24-0.19-0.33c-0.05-0.04-0.1-0.08-0.15-0.12C161.7,81.1,161.58,81.07,161.44,81.07L161.44,81.07z"/>
				</g>
			</g>
		</g>
		<g>
			<defs>
				<path id="SVGID_109_" d="M182.8,90.47c0.02,47.79-40.17,86.54-89.77,86.56S3.22,138.32,3.2,90.53S43.38,3.99,92.97,3.97
					C142.56,3.96,182.78,42.68,182.8,90.47"/>
			</defs>
			<clipPath id="SVGID_110_">
				<use xlink:href="#SVGID_109_"  style="overflow:visible;"/>
			</clipPath>
			<g class="st60">
				<g>
					<path class="st21" d="M148.18,67.18c0.06,0.12,0.12,0.23,0.18,0.35c0.05,0.09,0.11,0.16,0.19,0.21
						c0.07,0.07,0.16,0.11,0.26,0.13c0.1,0.03,0.2,0.04,0.3,0.01c0.1,0,0.19-0.03,0.28-0.09c0.05-0.04,0.1-0.08,0.15-0.12
						c0.09-0.09,0.16-0.2,0.19-0.33c0.01-0.07,0.02-0.13,0.03-0.2c0-0.14-0.03-0.26-0.1-0.38c-0.06-0.12-0.12-0.23-0.18-0.35
						c-0.05-0.09-0.11-0.16-0.19-0.21c-0.07-0.07-0.16-0.11-0.26-0.13c-0.1-0.03-0.2-0.04-0.3-0.01c-0.1,0-0.19,0.03-0.28,0.09
						c-0.05,0.04-0.1,0.08-0.15,0.12c-0.09,0.09-0.16,0.2-0.19,0.33c-0.01,0.07-0.02,0.13-0.03,0.2
						C148.08,66.94,148.11,67.07,148.18,67.18L148.18,67.18z"/>
				</g>
			</g>
		</g>
		<g>
			<defs>
				<path id="SVGID_111_" d="M182.8,90.47c0.02,47.79-40.17,86.54-89.77,86.56S3.22,138.32,3.2,90.53S43.38,3.99,92.97,3.97
					C142.56,3.96,182.78,42.68,182.8,90.47"/>
			</defs>
			<clipPath id="SVGID_112_">
				<use xlink:href="#SVGID_111_"  style="overflow:visible;"/>
			</clipPath>
			<g class="st61">
				<g>
					<path class="st21" d="M166.01,157c0.97,0,0.97-1.5,0-1.5C165.05,155.5,165.05,157,166.01,157L166.01,157z"/>
				</g>
			</g>
		</g>
		<g>
			<defs>
				<path id="SVGID_113_" d="M182.8,90.47c0.02,47.79-40.17,86.54-89.77,86.56S3.22,138.32,3.2,90.53S43.38,3.99,92.97,3.97
					C142.56,3.96,182.78,42.68,182.8,90.47"/>
			</defs>
			<clipPath id="SVGID_114_">
				<use xlink:href="#SVGID_113_"  style="overflow:visible;"/>
			</clipPath>
			<g class="st62">
				<g>
					<path class="st21" d="M128.48,177.23c0-0.06,0-0.12,0-0.17c0-0.1-0.02-0.2-0.06-0.29c-0.03-0.09-0.08-0.17-0.16-0.24
						c-0.07-0.07-0.15-0.12-0.24-0.16c-0.09-0.05-0.19-0.07-0.29-0.06c-0.07,0.01-0.13,0.02-0.2,0.03c-0.13,0.04-0.24,0.1-0.33,0.19
						c-0.04,0.05-0.08,0.1-0.12,0.15c-0.07,0.12-0.1,0.24-0.1,0.38c0,0.06,0,0.12,0,0.17c0,0.1,0.02,0.2,0.06,0.29
						c0.03,0.09,0.08,0.17,0.16,0.24c0.07,0.07,0.15,0.12,0.24,0.16c0.09,0.05,0.19,0.07,0.29,0.06c0.07-0.01,0.13-0.02,0.2-0.03
						c0.13-0.04,0.24-0.1,0.33-0.19c0.04-0.05,0.08-0.1,0.12-0.15C128.44,177.49,128.48,177.37,128.48,177.23L128.48,177.23z"/>
				</g>
			</g>
		</g>
		<g>
			<defs>
				<path id="SVGID_115_" d="M182.8,90.47c0.02,47.79-40.17,86.54-89.77,86.56S3.22,138.32,3.2,90.53S43.38,3.99,92.97,3.97
					C142.56,3.96,182.78,42.68,182.8,90.47"/>
			</defs>
			<clipPath id="SVGID_116_">
				<use xlink:href="#SVGID_115_"  style="overflow:visible;"/>
			</clipPath>
			<g class="st63">
				<g>
					<path class="st21" d="M74.9,124.36c0.06,0,0.12,0,0.17,0c0.1,0,0.2-0.02,0.29-0.06c0.09-0.03,0.17-0.08,0.24-0.16
						c0.07-0.07,0.12-0.15,0.16-0.24c0.05-0.09,0.07-0.19,0.06-0.29c-0.01-0.07-0.02-0.13-0.03-0.2c-0.04-0.13-0.1-0.24-0.19-0.33
						c-0.05-0.04-0.1-0.08-0.15-0.12c-0.12-0.07-0.24-0.1-0.38-0.1c-0.06,0-0.12,0-0.17,0c-0.1,0-0.2,0.02-0.29,0.06
						c-0.09,0.03-0.17,0.08-0.24,0.16c-0.07,0.07-0.12,0.15-0.16,0.24c-0.05,0.09-0.07,0.19-0.06,0.29c0.01,0.07,0.02,0.13,0.03,0.2
						c0.04,0.13,0.1,0.24,0.19,0.33c0.05,0.04,0.1,0.08,0.15,0.12C74.64,124.32,74.77,124.36,74.9,124.36L74.9,124.36z"/>
				</g>
			</g>
		</g>
		<g>
			<defs>
				<path id="SVGID_117_" d="M182.8,90.47c0.02,47.79-40.17,86.54-89.77,86.56S3.22,138.32,3.2,90.53S43.38,3.99,92.97,3.97
					C142.56,3.96,182.78,42.68,182.8,90.47"/>
			</defs>
			<clipPath id="SVGID_118_">
				<use xlink:href="#SVGID_117_"  style="overflow:visible;"/>
			</clipPath>
			<g class="st64">
				<g>
					<path class="st21" d="M176.2,127.43c0.27-0.63,0.53-1.25,0.8-1.88c0.13-0.31,0.26-0.61,0.39-0.92c0.06-0.15,0.13-0.3,0.19-0.45
						c0.02-0.04,0.04-0.08,0.05-0.13c0.05-0.1,0.03-0.09-0.05,0.03c0.05-0.05,0.03-0.04-0.07,0.05c-0.24,0.13-0.48,0.09-0.74-0.13
						c-0.06-0.11-0.13-0.22-0.19-0.33c-0.01-0.05-0.02-0.1-0.03-0.15c-0.05,0.39,0.38,0.77,0.75,0.75c0.45-0.02,0.7-0.33,0.75-0.75
						c0.04-0.37-0.26-0.72-0.6-0.8c-0.32-0.07-0.66,0.03-0.89,0.26c-0.17,0.16-0.24,0.35-0.33,0.56s-0.18,0.42-0.27,0.64
						c-0.35,0.83-0.7,1.65-1.05,2.48c-0.08,0.19-0.13,0.37-0.08,0.58c0.05,0.17,0.18,0.36,0.34,0.45
						C175.49,127.87,176.03,127.81,176.2,127.43L176.2,127.43z"/>
				</g>
			</g>
		</g>
		<g>
			<defs>
				<path id="SVGID_119_" d="M182.8,90.47c0.02,47.79-40.17,86.54-89.77,86.56S3.22,138.32,3.2,90.53S43.38,3.99,92.97,3.97
					C142.56,3.96,182.78,42.68,182.8,90.47"/>
			</defs>
			<clipPath id="SVGID_120_">
				<use xlink:href="#SVGID_119_"  style="overflow:visible;"/>
			</clipPath>
			<g class="st65">
				<g>
					<path class="st21" d="M173.75,124.53c1.31,0.89,2.62,1.78,3.93,2.68c0.33,0.22,0.85,0.07,1.03-0.27
						c0.2-0.38,0.08-0.79-0.27-1.03c-1.31-0.89-2.62-1.78-3.93-2.68c-0.33-0.22-0.85-0.07-1.03,0.27
						C173.28,123.88,173.41,124.29,173.75,124.53L173.75,124.53z"/>
				</g>
			</g>
		</g>
		<g>
			<defs>
				<path id="SVGID_121_" d="M182.8,90.47c0.02,47.79-40.17,86.54-89.77,86.56S3.22,138.32,3.2,90.53S43.38,3.99,92.97,3.97
					C142.56,3.96,182.78,42.68,182.8,90.47"/>
			</defs>
			<clipPath id="SVGID_122_">
				<use xlink:href="#SVGID_121_"  style="overflow:visible;"/>
			</clipPath>
			<g class="st66">
				<g>
					<path class="st21" d="M106.87,83.87c0,0.04,0,0.08,0,0.12c-0.01,0.21,0.04,0.4,0.13,0.58c0.06,0.19,0.16,0.35,0.31,0.48
						c0.14,0.15,0.3,0.25,0.48,0.31c0.18,0.09,0.37,0.14,0.58,0.13c0.13-0.02,0.27-0.04,0.4-0.05c0.25-0.07,0.47-0.2,0.66-0.39
						c0.08-0.1,0.16-0.2,0.23-0.3c0.14-0.23,0.2-0.49,0.2-0.76c0-0.04,0-0.08,0-0.12c0.01-0.21-0.04-0.4-0.13-0.58
						c-0.06-0.19-0.16-0.35-0.31-0.48c-0.14-0.15-0.3-0.25-0.48-0.31c-0.18-0.09-0.37-0.14-0.58-0.13c-0.13,0.02-0.27,0.04-0.4,0.05
						c-0.25,0.07-0.47,0.2-0.66,0.39c-0.08,0.1-0.16,0.2-0.23,0.3C106.94,83.35,106.87,83.6,106.87,83.87L106.87,83.87z"/>
				</g>
			</g>
		</g>
		<g>
			<defs>
				<path id="SVGID_123_" d="M182.8,90.47c0.02,47.79-40.17,86.54-89.77,86.56S3.22,138.32,3.2,90.53S43.38,3.99,92.97,3.97
					C142.56,3.96,182.78,42.68,182.8,90.47"/>
			</defs>
			<clipPath id="SVGID_124_">
				<use xlink:href="#SVGID_123_"  style="overflow:visible;"/>
			</clipPath>
			<g class="st67">
				<g>
					<path class="st21" d="M143.84,81.53c1.93,0,1.93-3,0-3S141.9,81.53,143.84,81.53L143.84,81.53z"/>
				</g>
			</g>
		</g>
		<g>
			<defs>
				<path id="SVGID_125_" d="M182.8,90.47c0.02,47.79-40.17,86.54-89.77,86.56S3.22,138.32,3.2,90.53S43.38,3.99,92.97,3.97
					C142.56,3.96,182.78,42.68,182.8,90.47"/>
			</defs>
			<clipPath id="SVGID_126_">
				<use xlink:href="#SVGID_125_"  style="overflow:visible;"/>
			</clipPath>
			<g class="st68">
				<path d="M170.27,96.81c-0.5-0.61-1.51,0.67-1.88,1.36c-0.25,0.46-0.28,1.01-0.29,1.54c-0.02,1.52,0.11,3.07,0.72,4.47
					c0.6,1.4,1.73,2.62,3.19,3.06C172,107.23,175.04,102.64,170.27,96.81z"/>
				<g>
					<path d="M171.33,95.75c-1.34-1.38-2.98-0.12-3.86,1.07c-0.96,1.32-0.96,2.94-0.82,4.5c0.27,3.15,1.73,6.33,4.95,7.35
						c0.66,0.21,1.34-0.15,1.69-0.69c0.72-1.1,1.03-2.54,1.13-3.83C174.68,101.02,173.25,98.12,171.33,95.75
						c-0.51-0.63-1.59-0.53-2.12,0c-0.62,0.62-0.51,1.49,0,2.12c0.47,0.58,0.88,1.22,1.24,1.88c0.09,0.17,0.18,0.34,0.26,0.52
						c0.02,0.05,0.21,0.49,0.13,0.29c0.11,0.28,0.21,0.56,0.29,0.84c0.08,0.29,0.16,0.57,0.21,0.87c0.01,0.07,0.09,0.54,0.04,0.17
						c0.02,0.12,0.03,0.24,0.04,0.37c0.04,0.48,0.03,0.97-0.01,1.45c-0.01,0.09-0.07,0.44,0.01,0c-0.02,0.09-0.03,0.19-0.05,0.28
						c-0.04,0.2-0.08,0.4-0.13,0.6c-0.08,0.31-0.19,0.6-0.3,0.89c-0.08,0.22,0.17-0.36,0.06-0.15c-0.02,0.04-0.04,0.09-0.06,0.14
						c-0.04,0.08-0.08,0.17-0.13,0.25c-0.04,0.06-0.07,0.13-0.11,0.19c0.56-0.23,1.13-0.46,1.69-0.69c-0.27-0.09-0.6-0.23-0.98-0.52
						c0.16,0.12-0.05-0.05-0.11-0.1c-0.07-0.07-0.15-0.14-0.22-0.21c-0.09-0.09-0.17-0.19-0.26-0.28c-0.04-0.05-0.14-0.18-0.05-0.06
						c-0.63-0.86-0.89-1.66-1.07-2.74c-0.07-0.41-0.1-1.01-0.11-1.5s-0.04-1.06,0.07-1.4c0.02-0.07,0.08-0.18,0.18-0.33
						c0.04-0.07,0.09-0.14,0.14-0.2c0.22-0.33-0.11,0.12,0.05-0.06c0.13-0.14,0.25-0.28,0.4-0.4c-0.08,0.07-0.18,0.12-0.03,0.05
						c-0.35,0.17-0.9,0.13-1.19-0.16c0.57,0.58,1.55,0.57,2.12,0C171.91,97.29,171.9,96.33,171.33,95.75z"/>
				</g>
			</g>
		</g>
		<g>
			<defs>
				<path id="SVGID_127_" d="M182.8,90.47c0.02,47.79-40.17,86.54-89.77,86.56S3.22,138.32,3.2,90.53S43.38,3.99,92.97,3.97
					C142.56,3.96,182.78,42.68,182.8,90.47"/>
			</defs>
			<clipPath id="SVGID_128_">
				<use xlink:href="#SVGID_127_"  style="overflow:visible;"/>
			</clipPath>
			<g class="st69">
				<path d="M135.05,163.37c0.46,0.45,2.26-5.75,1.71-8.73c-0.16-0.85-0.42-1.71-0.98-2.38
					C135.79,152.26,129.52,157.94,135.05,163.37z"/>
				<g>
					<path d="M133.99,164.43c2.57,2.04,3.56-2.81,3.89-4.39c0.62-2.96,0.96-6.31-1.03-8.84c-0.52-0.66-1.58-0.49-2.12,0
						c-1.27,1.16-2.25,2.71-2.87,4.29c-0.54,1.37-0.7,2.84-0.46,4.29C131.69,161.58,132.72,163.16,133.99,164.43
						c1.37,1.37,3.49-0.75,2.12-2.12c-0.58-0.58-0.99-1.09-1.37-1.82c0,0-0.2-0.43-0.1-0.2c-0.07-0.18-0.14-0.37-0.19-0.56
						c-0.04-0.14-0.07-0.27-0.1-0.41c-0.02-0.09-0.07-0.42-0.04-0.14c-0.04-0.31-0.05-0.62-0.04-0.93c0.01-0.15,0.02-0.3,0.03-0.45
						c0.01-0.11,0.01-0.08-0.01,0.08c0.01-0.08,0.03-0.17,0.04-0.25c0.06-0.28,0.13-0.56,0.22-0.84c0.04-0.12,0.08-0.23,0.12-0.34
						c0.03-0.07,0.06-0.15,0.09-0.22c-0.07,0.16-0.08,0.19-0.03,0.09c0.21-0.46,0.45-0.9,0.72-1.32c0.13-0.2,0.26-0.38,0.4-0.57
						c0.06-0.08,0.26-0.32-0.01,0.01c0.06-0.08,0.12-0.15,0.18-0.23c0.26-0.31,0.53-0.62,0.83-0.89c-0.71,0-1.41,0-2.12,0
						c0.32,0.41,0.45,1.06,0.57,1.62c0.04,0.2,0.04,0.23,0.01,0.01c0.01,0.11,0.02,0.22,0.03,0.34c0.02,0.22,0.02,0.44,0.02,0.66
						c0,0.5-0.03,1.01-0.09,1.51c-0.01,0.11-0.03,0.23-0.04,0.34c-0.02,0.18,0.03-0.21-0.01,0.08c-0.04,0.27-0.09,0.55-0.14,0.82
						c-0.17,0.91-0.38,1.82-0.66,2.7c-0.06,0.19-0.12,0.38-0.19,0.57c-0.03,0.07-0.05,0.14-0.08,0.21c-0.1,0.27,0.06-0.06,0.05-0.1
						c0.02,0.07-0.14,0.26-0.17,0.33c-0.05,0.12-0.26,0.24,0.13-0.16c-0.01,0.01-0.02,0.02-0.02,0.03c0.52-0.49,1.18-0.48,1.97,0.03
						c-0.63-0.5-1.5-0.62-2.12,0C133.47,162.83,133.35,163.92,133.99,164.43z"/>
				</g>
			</g>
		</g>
		<g>
			<defs>
				<path id="SVGID_129_" d="M182.8,90.47c0.02,47.79-40.17,86.54-89.77,86.56S3.22,138.32,3.2,90.53S43.38,3.99,92.97,3.97
					C142.56,3.96,182.78,42.68,182.8,90.47"/>
			</defs>
			<clipPath id="SVGID_130_">
				<use xlink:href="#SVGID_129_"  style="overflow:visible;"/>
			</clipPath>
			<g class="st70">
				<g>
					<g>
						<path class="st6" d="M14.9,80.73c3.72,1.04,7.44,2.08,11.17,3.11c2.91,0.81,6.1,2.22,9.12,2.37c0.93,0.05,2.04-0.46,2.49-1.31
							c1.52-2.87,1.45-6.79,1.92-9.97c3.21,0.08,6.31-0.41,9.18-1.55c2.48,4.32,5.91,10.92,11.07,6.64
							c5.94-4.94,9.82-12.52,11.8-19.85c0.42-1.57-0.42-2.94-1.88-3.53c-2.27-0.91-4.54-1.81-6.81-2.72
							c0.74-3.27,0.99-6.52,0.67-9.64c4.56-1.47,11.09-3.44,8.95-8.69c-1.26-3.1-3.74-6.17-5.62-8.94
							c-2.11-3.12-4.32-6.16-6.62-9.15c-1.16-1.51-3.53-1.03-4.48,0.39c-1.64,2.44-3.39,4.79-5.2,7.1
							c-3.13-1.85-6.54-3.07-10.02-3.66c-0.31-4.53-1.52-10.51-6.93-9.56c-3.46,0.61-7.11,2.75-10.37,4.04
							c-4.07,1.62-8.15,3.24-12.22,4.86c-1.59,0.63-2.08,3.26-0.79,4.41c1.74,1.55,3.48,3.1,5.22,4.66
							c-0.39,0.43-0.78,0.86-1.14,1.32c-1.5,1.92-2.68,4.11-3.58,6.43c-2.59-0.36-5.24-0.93-7.41-1.16
							c-1.52-0.16-2.88,1.28-2.93,2.72c-0.23,6.82,0.11,14.89,2.8,21.29c1.71,4.07,5.84,3.23,9.29,1.65c1.11,1.8,2.51,3.4,4.14,4.79
							c-2.24,2.52-2.88,7.65-3.68,10.41C12.6,78.64,13.4,80.31,14.9,80.73z"/>
						<g>
							<path d="M14.5,82.17c3.33,0.93,6.67,1.86,10,2.79c3.12,0.87,6.19,2.18,9.41,2.62c1.32,0.18,2.57,0.17,3.73-0.57
								c1.12-0.72,1.64-1.89,2.06-3.11c0.95-2.75,0.92-5.72,1.33-8.58c-0.48,0.37-0.96,0.73-1.45,1.1c3.27,0.06,6.52-0.42,9.57-1.6
								c-0.56-0.23-1.13-0.46-1.69-0.69c1.51,2.63,3,5.55,5.46,7.42c2.77,2.11,5.77,1.4,8.27-0.74c3.07-2.61,5.56-5.93,7.52-9.43
								c1.88-3.37,3.62-7.21,4.4-11.01c0.41-1.99-0.49-3.92-2.28-4.89c-1.06-0.57-2.29-0.94-3.41-1.39
								c-1.36-0.54-2.72-1.09-4.09-1.63c0.35,0.62,0.7,1.23,1.05,1.85c0.72-3.3,1.04-6.66,0.72-10.04c-0.37,0.48-0.73,0.96-1.1,1.45
								c4.88-1.58,12.65-4.23,9.85-10.89c-1.65-3.94-4.52-7.4-6.95-10.88c-1.3-1.87-2.64-3.71-4.01-5.52
								c-1.13-1.5-2.1-3.14-4.15-3.33c-1.94-0.18-3.42,0.9-4.47,2.41c-1.51,2.18-3.07,4.32-4.7,6.42c0.61-0.08,1.21-0.16,1.82-0.23
								c-3.22-1.87-6.71-3.16-10.37-3.81c0.37,0.48,0.73,0.96,1.1,1.45c-0.2-2.75-0.56-5.79-2.09-8.16
								c-1.79-2.77-4.67-3.4-7.75-2.62c-4.1,1.03-7.94,3.26-11.86,4.82c-2.19,0.87-4.38,1.74-6.56,2.61
								c-1.71,0.68-4.02,1.14-5.08,2.8c-0.87,1.37-0.98,3.26-0.13,4.66c0.62,1.01,1.76,1.76,2.63,2.54
								c1.06,0.94,2.11,1.88,3.17,2.83c0-0.71,0-1.41,0-2.12c-2.25,2.5-3.87,5.29-5.11,8.41c0.62-0.35,1.23-0.7,1.85-1.05
								c-1.94-0.28-3.87-0.66-5.81-0.95c-1.59-0.24-3.11-0.51-4.51,0.48C-0.51,36.56-1,38-1.05,39.65c-0.05,1.78-0.06,3.56,0,5.34
								c0.11,3.58,0.46,7.19,1.27,10.69c0.65,2.83,1.48,6.65,4.16,8.27c2.78,1.68,6.22,0.56,8.93-0.66
								c-0.68-0.18-1.37-0.36-2.05-0.54c1.21,1.91,2.67,3.61,4.37,5.1c0-0.71,0-1.41,0-2.12c-2.09,2.47-2.8,5.72-3.5,8.79
								c-0.32,1.4-0.92,2.88-0.63,4.33C11.83,80.48,12.96,81.64,14.5,82.17c1.83,0.64,2.61-2.26,0.8-2.89
								c-1.02-0.35-0.91-1.35-0.69-2.19c0.27-1.02,0.48-2.05,0.72-3.08c0.5-2.08,1.01-4.48,2.43-6.16c0.5-0.59,0.65-1.55,0-2.12
								c-1.51-1.32-2.82-2.79-3.9-4.49c-0.47-0.74-1.29-0.88-2.05-0.54c-1.94,0.87-5.1,2.03-6.67-0.07
								c-0.93-1.24-1.32-3.07-1.72-4.54c-0.47-1.77-0.81-3.57-1.04-5.38c-0.43-3.47-0.51-6.97-0.44-10.46
								c0.02-0.72-0.09-1.54,0.49-2.08c0.6-0.56,1.44-0.29,2.17-0.18c1.94,0.29,3.87,0.67,5.81,0.95c0.87,0.13,1.51-0.21,1.85-1.05
								c1.04-2.61,2.46-5,4.34-7.09c0.52-0.58,0.63-1.56,0-2.12c-0.99-0.89-1.99-1.77-2.98-2.66c-0.68-0.61-1.85-1.32-2.35-2.1
								c-1.06-1.66,1.51-2.3,2.51-2.7c4.35-1.73,8.77-3.34,13.03-5.3c1.99-0.91,3.97-1.88,6.1-2.44c1.29-0.34,2.7-0.58,3.82,0.34
								c2,1.65,2.25,5.13,2.42,7.51c0.04,0.61,0.43,1.33,1.1,1.45c3.42,0.61,6.65,1.76,9.66,3.51c0.52,0.3,1.42,0.28,1.82-0.23
								c1.41-1.81,2.79-3.63,4.11-5.5c0.77-1.09,2.01-3.56,3.5-1.92c1.56,1.71,2.85,3.79,4.19,5.68c1.36,1.91,2.67,3.86,4.02,5.78
								c1.28,1.8,2.59,3.65,3.48,5.68c0.51,1.16,0.7,2.32-0.15,3.37c-1.73,2.14-5.17,2.9-7.66,3.7c-0.58,0.19-1.16,0.78-1.1,1.45
								c0.29,3.11,0.05,6.19-0.62,9.24c-0.19,0.86,0.26,1.53,1.05,1.85c1.21,0.48,2.42,0.97,3.63,1.45
								c1.07,0.43,2.52,0.75,3.45,1.44c1.38,1.04-0.05,3.65-0.49,4.93c-1.35,3.84-3.21,7.53-5.65,10.8
								c-1.21,1.62-2.59,3.12-4.1,4.45c-1.04,0.92-2.32,1.86-3.76,1.28c-2.66-1.08-4.23-4.78-5.56-7.09
								c-0.3-0.53-1.09-0.92-1.69-0.69c-2.83,1.09-5.75,1.55-8.78,1.5c-0.59-0.01-1.36,0.47-1.45,1.1c-0.34,2.41-0.4,4.89-0.96,7.27
								c-0.2,0.86-0.45,2.35-1.32,2.78c-1.03,0.5-2.75-0.14-3.78-0.42c-2.67-0.72-5.28-1.66-7.95-2.4
								c-2.95-0.82-5.89-1.64-8.84-2.47C13.43,78.76,12.64,81.65,14.5,82.17z"/>
						</g>
					</g>
					<g>
						<g>
							<path class="st2" d="M51.76,59.66c4.93-9.95,3.67-20.81-6.33-26.91c-8.59-5.24-20.16-3.79-26.41,4.37
								c-6.24,8.14-5.21,22.42,4.42,27.49C33.4,69.78,45.96,71.38,51.76,59.66z M28.38,42.85c3.01-3.03,7.71-3.24,11.3-1.1
								c4.2,2.5,4.99,6.54,3.43,10.84c-2.41,6.65-8.21,6.01-13.59,3.22C24.9,53.38,24.95,46.31,28.38,42.85z"/>
						</g>
						<g>
							<path d="M53.06,60.41c4.05-8.3,4.38-18.38-2.37-25.39c-6.53-6.78-17.09-8.78-25.59-4.73c-7.94,3.77-12.26,12.5-11.4,21.11
								c0.4,3.98,1.81,7.82,4.44,10.88c2.77,3.22,6.91,5,10.87,6.29c4.28,1.39,9.02,2.02,13.43,0.86
								C47.22,68.17,50.85,64.76,53.06,60.41c0.87-1.72-1.72-3.24-2.59-1.51c-1.66,3.28-4.17,6.07-7.71,7.3
								c-3.28,1.14-6.83,1-10.18,0.24c-3.48-0.79-7.33-2.11-10.21-4.28c-2.74-2.06-4.47-5.18-5.26-8.47
								c-1.66-6.94,0.7-14.81,6.57-19.08c6.62-4.82,15.72-4.37,22.29,0.28c3.66,2.59,6.19,6.46,6.9,10.91
								c0.71,4.48-0.44,9.09-2.4,13.11C49.62,60.63,52.21,62.15,53.06,60.41z"/>
							<path d="M29.44,43.91c2.62-2.58,6.65-2.64,9.68-0.74c1.37,0.86,2.5,2.11,2.96,3.64c0.46,1.54,0.28,3.19-0.21,4.76
								c-0.45,1.46-1.28,3.05-2.43,3.83c-1.15,0.79-2.25,0.98-3.68,0.89c-1.33-0.09-2.96-0.59-4.32-1.2
								c-0.69-0.31-1.53-0.71-2.02-1.12c-0.58-0.49-0.89-0.88-1.24-1.52C26.76,49.86,27.34,46.07,29.44,43.91
								c1.34-1.39-0.77-3.51-2.12-2.12C24.65,44.54,23.66,49,25,52.62c0.7,1.9,1.97,3.53,3.77,4.49c1.78,0.95,3.74,1.73,5.74,2.03
								c1.95,0.3,3.89,0.18,5.68-0.7c1.84-0.9,3.17-2.61,3.97-4.46c1.82-4.19,1.67-9.2-2.04-12.32c-4.26-3.58-10.71-3.89-14.8,0.13
								C25.94,43.15,28.06,45.27,29.44,43.91z"/>
						</g>
					</g>
				</g>
				<g>
					<g>
						<path d="M40.04,43.31c-4.32,2.82-8.71,5.52-13.17,8.11c0.68,0.68,1.37,1.37,2.05,2.05c0.05-0.09,0.1-0.19,0.15-0.28
							c0.93-1.7-1.66-3.21-2.59-1.51c-0.05,0.09-0.1,0.19-0.15,0.28c-0.71,1.3,0.73,2.82,2.05,2.05c4.46-2.59,8.85-5.29,13.17-8.11
							C43.16,44.85,41.66,42.25,40.04,43.31L40.04,43.31z"/>
					</g>
				</g>
			</g>
		</g>
	</g>
	<g>
		<g>
			<g>
				<path d="M181.3,90.47c-0.03,17.73-5.8,35.01-16.3,49.28c-10.38,14.1-25.17,24.85-41.67,30.63c-17.43,6.11-36.61,6.79-54.43,1.94
					c-17.03-4.64-32.52-14.33-44.03-27.73C13.46,131.32,6.31,114.52,4.95,97.05C3.58,79.34,7.98,61.54,17.43,46.5
					c9.28-14.77,23.09-26.42,39.03-33.44c16.91-7.45,36.18-9.46,54.3-5.88c17.37,3.44,33.57,11.97,46.06,24.54
					c12.28,12.36,20.62,28.35,23.44,45.57C180.96,81.65,181.29,86.06,181.3,90.47c0,1.93,3,1.93,3,0
					c-0.04-18.27-5.97-36.23-16.84-50.91c-10.81-14.61-25.95-25.67-43.07-31.74C106.4,1.44,86.44,0.77,68.04,5.8
					C50.5,10.6,34.43,20.62,22.6,34.46C10.79,48.27,3.45,65.53,1.98,83.67c-1.48,18.3,3.11,36.86,12.89,52.39
					c9.61,15.27,23.91,27.42,40.44,34.62c17.53,7.64,37.2,9.72,55.97,6.07c17.97-3.49,34.81-12.41,47.7-25.41
					c12.69-12.79,21.39-29.42,24.23-47.24c0.72-4.51,1.09-9.07,1.09-13.64C184.3,88.54,181.3,88.54,181.3,90.47L181.3,90.47z"/>
			</g>
		</g>
	</g>
</g>
</svg>
