<svg xmlns="http://www.w3.org/2000/svg" xmlns:xlink="http://www.w3.org/1999/xlink" viewBox="0 0 186 181" xmlns:v="https://vecta.io/nano"><style><![CDATA[.H{clip-path:url(#J)}.I{fill:#fff}.J{fill:#f7c402}.K{fill:#ffda83}]]></style><path d="M182.8 90.47c.02 47.82-40.17 86.6-89.77 86.62-49.59.02-89.81-38.74-89.83-86.56S43.38 3.93 92.97 3.91s89.81 38.74 89.83 86.56" class="K"/><path d="M181.3 90.47c-.03 17.74-5.8 35.03-16.3 49.32-10.38 14.11-25.17 24.86-41.67 30.66-17.42 6.11-36.61 6.8-54.43 1.94-17.03-4.64-32.52-14.35-44.03-27.75-11.41-13.29-18.56-30.1-19.91-47.58-1.38-17.73 3.02-35.54 12.47-50.59 9.28-14.78 23.09-26.43 39.03-33.46 16.91-7.46 36.18-9.47 54.3-5.88 17.37 3.44 33.57 11.98 46.06 24.56 12.29 12.37 20.62 28.37 23.44 45.6.7 4.35 1.03 8.77 1.04 13.18 0 1.93 3 1.93 3 0a86.29 86.29 0 0 0-16.84-50.95c-10.81-14.62-25.94-25.69-43.07-31.76C106.4 1.38 86.44.71 68.04 5.74 50.5 10.54 34.43 20.57 22.6 34.42 10.78 48.24 3.45 65.52 1.98 83.67.5 101.98 5.09 120.55 14.87 136.1c9.61 15.28 23.9 27.44 40.44 34.65 17.53 7.64 37.2 9.73 55.97 6.08 17.97-3.5 34.81-12.42 47.7-25.43 12.69-12.8 21.39-29.44 24.23-47.27.72-4.52 1.09-9.08 1.09-13.65 0-1.94-3-1.94-3-.01h0z"/><path d="M182.8 90.47c.02 47.79-40.17 86.54-89.77 86.56S3.22 138.32 3.2 90.53 43.38 3.99 92.97 3.97c49.59-.01 89.81 38.71 89.83 86.5" class="K"/><use xlink:href="#B"/><defs><path id="A" d="M182.8 90.47c.02 47.79-40.17 86.54-89.77 86.56S3.22 138.32 3.2 90.53 43.38 3.99 92.97 3.97c49.59-.01 89.81 38.71 89.83 86.5"/><path id="B" d="M181.3 90.47c-.03 17.73-5.8 35.01-16.3 49.28-10.38 14.1-25.17 24.85-41.67 30.63-17.43 6.11-36.61 6.79-54.43 1.94-17.03-4.64-32.52-14.33-44.03-27.73-11.41-13.27-18.56-30.07-19.92-47.54A83.18 83.18 0 0 1 17.43 46.5c9.28-14.77 23.09-26.42 39.03-33.44 16.91-7.45 36.18-9.46 54.3-5.88 17.37 3.44 33.57 11.97 46.06 24.54 12.28 12.36 20.62 28.35 23.44 45.57.7 4.36 1.03 8.77 1.04 13.18 0 1.93 3 1.93 3 0-.04-18.27-5.97-36.23-16.84-50.91-10.81-14.61-25.95-25.67-43.07-31.74C106.4 1.44 86.44.77 68.04 5.8 50.5 10.6 34.43 20.62 22.6 34.46 10.79 48.27 3.45 65.53 1.98 83.67c-1.48 18.3 3.11 36.86 12.89 52.39 9.61 15.27 23.91 27.42 40.44 34.62 17.53 7.64 37.2 9.72 55.97 6.07 17.97-3.49 34.81-12.41 47.7-25.41 12.69-12.79 21.39-29.42 24.23-47.24a86.52 86.52 0 0 0 1.09-13.64c0-1.92-3-1.92-3 .01h0z"/><path id="C" d="M94.59 126.7c-2.51-1.24-5.64-.69-8.13.65-1.3.7-3.15 3.53-4.07 4.67-2.19 2.71-2.3 6.76-.66 9.83s4.8 5.16 8.19 5.96c1.22.29 2.48.43 3.73.29 3.92-.42 7.23-3.71 8.16-7.54s.94-8.25-2.8-11.07c-.78-.58-3.53-2.44-4.42-2.79"/><path id="D" d="M95.35 125.4c-2.82-1.3-5.88-1.05-8.68.18-2.24.99-3.54 2.97-4.97 4.87-1.55 2.07-2.58 4.15-2.59 6.81-.02 2.76 1.03 5.36 2.8 7.45 3.41 4.03 9.84 6.24 14.82 4.07 4.81-2.1 7.14-7.24 7.1-12.28-.02-2.77-.96-5.51-3-7.44-.83-.79-1.82-1.43-2.78-2.06-.87-.57-1.75-1.19-2.7-1.6-.75-.32-1.6-.22-2.05.54-.38.63-.2 1.73.54 2.05 1.38.59 2.66 1.55 3.88 2.4 1.48 1.04 2.5 2.44 2.91 4.22.82 3.64-.43 8.1-3.4 10.43-6.74 5.27-18.95-3.57-14.08-11.5.5-.82 1.15-1.57 1.72-2.33.59-.79 1.21-1.66 1.97-2.29 1.75-1.45 4.95-1.87 7-.92 1.73.8 3.26-1.79 1.51-2.6h0z"/><path id="E" d="M116.68 148.47c-2.82-1.3-5.88-1.05-8.68.18-2.24.99-3.54 2.97-4.97 4.87-1.55 2.07-2.58 4.15-2.59 6.81-.02 2.76 1.03 5.36 2.8 7.45 3.41 4.03 9.84 6.24 14.82 4.07 4.81-2.1 7.14-7.24 7.1-12.28-.02-2.77-.96-5.51-3-7.44-.83-.79-1.82-1.43-2.78-2.06-.87-.57-1.75-1.19-2.7-1.6-.75-.32-1.6-.22-2.05.54-.38.63-.2 1.73.54 2.05 1.38.59 2.66 1.55 3.88 2.4 1.48 1.04 2.5 2.44 2.91 4.22.82 3.64-.43 8.1-3.4 10.43-6.74 5.27-18.95-3.57-14.08-11.5.5-.82 1.15-1.57 1.72-2.33.59-.79 1.21-1.66 1.97-2.29 1.75-1.45 4.95-1.87 7-.92 1.74.8 3.26-1.79 1.51-2.6h0z"/><path id="F" d="M164.53 131.09v-.17a1.15 1.15 0 0 0-.13-.58c-.06-.19-.16-.35-.31-.48-.14-.15-.3-.25-.48-.31a1.15 1.15 0 0 0-.58-.13l-.4.05a1.49 1.49 0 0 0-.66.39l-.23.3c-.14.23-.2.49-.2.76v.17a1.15 1.15 0 0 0 .13.58c.06.19.16.35.31.48.14.15.3.25.48.31a1.15 1.15 0 0 0 .58.13l.4-.05a1.49 1.49 0 0 0 .66-.39l.23-.3a1.57 1.57 0 0 0 .2-.76h0z"/><path id="G" d="M160.59 137.13c1.93 0 1.93-3 0-3s-1.94 3 0 3h0z"/><path id="H" d="M164.17 106.8v-.17a1.15 1.15 0 0 0-.13-.58c-.06-.19-.16-.35-.31-.48-.14-.15-.3-.25-.48-.31a1.15 1.15 0 0 0-.58-.13l-.4.05a1.49 1.49 0 0 0-.66.39l-.23.3c-.14.23-.2.49-.2.76v.17a1.15 1.15 0 0 0 .13.58c.06.19.16.35.31.48.14.15.3.25.48.31a1.15 1.15 0 0 0 .58.13l.4-.05a1.49 1.49 0 0 0 .66-.39l.23-.3a1.54 1.54 0 0 0 .2-.76h0z"/><path id="I" d="M159.7 104.81c1.93 0 1.93-3 0-3s-1.93 3 0 3h0z"/></defs><clipPath id="J"><use xlink:href="#A"/></clipPath><g class="H"><path d="M168.55 176.94a120.31 120.31 0 0 0 23.44-30.86c4.01 1.29 8.2 2.04 12.41 2.21l3.65-37.24-14.11-4.3c-.39-10.45-3.36-20.79-8.57-29.86-.64-1.11-1.33-2.31-1.14-3.57.15-1.03.85-1.87 1.53-2.66l6.08-7.08c-7.15-11.05-24.12-19.2-33.91-27.98-3 6-5 9.99-6 13.99-.26 1.03-1.11-1.01-2.12-.67-1.38.47-2.88.09-4.3-.24-8.3-1.93-18.33-3.22-26.58-1.08-1.27-6.39-1-10.99-2.01-16.99-11.76 4.71-30.23 13.3-41.99 18 3 5.99 5.27 10.34 8.51 14.35-8.04 6.06-15.61 16.34-19.5 25.63-5.87.16-11-1-16.42-1.56a263.25 263.25 0 0 0-7.27 41.99l14.71 1.55c1.07 12.64 1.13 18.71 8.65 28.93.72.98 1.5 2.02 1.59 3.23.09 1.19-1.08 1.18-1.66 2.23-1.63 2.99-12.36 9.01-14 12 8.13 5.4 27.14 19.1 35.27 24.5.82.54 1.71 1.11 2.7 1.07 2.45-.11 5.85-7.61 7.39-9.53 2.78-3.48 8.24-1.96 12.52-.71a47.22 47.22 0 0 0 20.3 1.32l5.56 11.18c.56 1.12 1.18 2.31 2.3 2.87 1.24.62 2.73.28 4.07-.09a162.78 162.78 0 0 0 33.5-13.4c.14.93-3.09-10.83-4.49-17.81" fill="#e76969"/><path d="M169.61 178a122.83 122.83 0 0 0 23.67-31.16l-1.69.69a49.29 49.29 0 0 0 12.81 2.26c.87.04 1.42-.72 1.5-1.5l3.65-37.24c.06-.66-.51-1.27-1.1-1.45l-14.11-4.3 1.1 1.45c-.31-7.64-1.89-15.23-4.76-22.32-.71-1.76-1.48-3.49-2.34-5.19-.4-.79-.81-1.57-1.24-2.34-.46-.83-1.2-1.79-1.35-2.74-.28-1.71 1.99-3.51 2.99-4.67l4.16-4.84c.42-.49.62-1.24.23-1.82-4.05-6.19-10.09-10.8-16.03-15.04-6.08-4.34-12.53-8.26-18.12-13.24-.67-.6-1.9-.61-2.36.3-1.87 3.73-3.82 7.46-5.24 11.4-.28.78-.54 1.57-.76 2.37l-.15.59c1.81.02 2.39-.22 1.73-.74-.16-.25-.58-.52-.83-.66-.85-.51-1.49-.34-2.39-.2-1.11.18-2.21-.16-3.29-.41-8.8-2.02-18.3-3.27-27.18-1.03l1.85 1.05c-1.09-5.61-1.09-11.35-2.01-16.99-.12-.74-1.15-1.33-1.85-1.05-14.14 5.67-27.86 12.33-41.99 18-.93.37-1.37 1.26-.9 2.2 2.56 5.11 5.16 10.18 8.75 14.65l.3-2.36c-8.73 6.64-15.77 16.08-20.04 26.16l1.3-.74c-5.53.12-10.95-.97-16.42-1.56-.64-.07-1.3.51-1.45 1.1a269.39 269.39 0 0 0-7.32 42.39c-.08.86.75 1.43 1.5 1.5l14.71 1.55-1.5-1.5c.67 7.93 1.05 15.93 4.74 23.15.98 1.92 2.13 3.75 3.38 5.51.72 1.01 1.33 2.09 2.02 3.11.04.06.07.67.23.26-.03.08-.2.18-.27.23-.44.33-.82.66-1.14 1.11-1.56 2.18-4.11 3.89-6.38 5.54-1.62 1.18-3.25 2.35-4.8 3.62-1.1.89-2.26 1.86-2.98 3.1-.42.73-.14 1.6.54 2.05 9.75 6.48 19.2 13.41 28.81 20.08l6.01 4.12c1.31.87 2.87 1.89 4.52 1.48.99-.25 1.82-.97 2.49-1.71 1.81-2 3.07-4.46 4.44-6.76.59-.98.98-1.76 1.91-2.36 1.25-.82 2.87-.83 4.31-.69 1.83.18 3.63.71 5.39 1.21 2.28.66 4.58 1.17 6.93 1.51 4.84.68 9.67.63 14.5-.09l-1.69-.69 5.56 11.18c.71 1.4 1.55 2.79 3.02 3.48 1.61.76 3.39.43 5.05-.02 7.5-2.02 14.85-4.7 21.97-7.8 4.04-1.76 8-3.68 11.89-5.76l-2.26-1.3v.05l.44-1.06 2.36.3c.28.4.06.11-.04-.22l-.41-1.44-1.22-4.57c-.97-3.74-1.9-7.49-2.66-11.27-.38-1.89-3.27-1.09-2.89.8.79 3.89 1.75 7.74 2.74 11.58l1.2 4.46c.18.65.3 1.62.7 2.19.5.7 1.7 1.12 2.36.3.25-.31.49-.7.44-1.11-.15-1.12-1.16-1.88-2.26-1.3-8 4.27-16.34 7.88-24.94 10.75-2.13.71-4.26 1.38-6.42 2-1.75.5-4.31 1.72-5.63-.1-1.28-1.76-2.09-4.01-3.06-5.96l-3.34-6.71c-.32-.64-1.06-.78-1.69-.69-4.16.62-8.43.65-12.61.13-3.79-.48-7.34-1.79-11.07-2.52-3.03-.6-6.48-.76-8.99 1.35-1.79 1.51-2.79 3.96-3.99 5.92-.65 1.06-1.31 2.14-2.15 3.07-.93 1.03-1.16 1.15-2.39.4-2.02-1.22-3.95-2.65-5.89-3.99L65.2 185.96l-14.9-10.32.54 2.05c.52-.9 1.61-1.76 2.51-2.5 1.36-1.1 2.78-2.12 4.2-3.15 2.46-1.79 5.37-3.57 7.13-6.1.4-.57.97-.89 1.4-1.42.71-.87.71-1.95.4-3-.66-2.24-2.62-4.15-3.85-6.1-2.08-3.3-3.64-6.82-4.5-10.64-1.06-4.66-1.28-9.48-1.68-14.23-.07-.87-.63-1.42-1.5-1.5l-14.71-1.55 1.5 1.5c1.29-14.03 3.71-27.94 7.22-41.59l-1.45 1.1c5.48.59 10.89 1.68 16.42 1.56.48-.01 1.09-.27 1.3-.74 4.05-9.57 10.65-18.76 18.96-25.09.83-.63.96-1.54.3-2.36-3.41-4.26-5.85-9.19-8.28-14.05l-.9 2.2c14.14-5.67 27.86-12.33 41.99-18l-1.85-1.05c.92 5.64.92 11.37 2.01 16.99.16.81 1.11 1.23 1.85 1.05 7.12-1.79 14.72-1.11 21.86.25 1.75.33 3.47.79 5.22 1.12.92.17 1.83.29 2.76.17.2-.03.42-.05.62-.1.25-.06.5.01.25-.11-.36-.17.15.29.2.34.98.82 2.36.94 2.99-.37.53-1.11.73-2.45 1.16-3.61 1.32-3.57 3.12-6.97 4.82-10.38l-2.36.3c5.5 4.89 11.79 8.81 17.79 13.04 5.83 4.12 11.93 8.58 15.89 14.64l.23-1.82-4.48 5.21c-1.23 1.43-2.91 2.93-3.43 4.81-.51 1.85.33 3.53 1.21 5.1 1.01 1.8 1.97 3.62 2.82 5.5 3.35 7.41 5.22 15.48 5.55 23.6.03.68.45 1.25 1.1 1.45l14.11 4.3-1.1-1.45-3.65 37.24 1.5-1.5c-4.09-.19-8.1-.92-12.01-2.16a1.51 1.51 0 0 0-1.69.69 120.29 120.29 0 0 1-23.2 30.55c-1.39 1.38.74 3.5 2.14 2.17h0z"/><path d="M134.84 56.43a21.11 21.11 0 0 0-5.67-.16c-32.69 3.48-58.56 25.65-62.7 59.56-3.69 30.24 19.74 68.52 52.12 70.31 77.85 4.31 94.68-116.59 16.25-129.71zm1.61 71c-3.77 2.64-9.84 3.86-13.99 1.4-2.88-1.7-7.63-5.17-8.4-8.38-2.43-10.24 8.38-23.77 22.98-15.99 3.79 3.46 5.88 5.52 4.99 10.39-.88 4.87-1.58 9.78-5.58 12.58z" fill="#4386c6"/><path d="M135.24 54.99c-4.71-.73-9.49.08-14.12 1.02-4 .81-7.94 1.93-11.76 3.37-7.34 2.76-14.2 6.63-20.28 11.59-12.48 10.17-20.69 24.76-23.47 40.56-2.75 15.67.81 31.7 8.67 45.44 7.68 13.43 19.9 25.12 35.13 29.21 6.62 1.78 13.67 1.92 20.46 1.19 5.78-.62 11.47-1.96 16.85-4.16 10.04-4.09 18.75-10.84 25.39-19.39 6.55-8.44 11.09-18.39 13.44-28.8s2.58-21.3.44-31.76c-2.1-10.31-6.63-20.11-13.48-28.13-7.4-8.66-17.37-14.75-28.22-18.04-2.97-.9-5.99-1.59-9.05-2.1-1.89-.32-2.7 2.57-.8 2.89 11.17 1.89 21.94 6.29 30.5 13.83 7.54 6.65 13.04 15.33 16.18 24.86 3.16 9.59 4.01 19.83 2.88 29.84-1.13 10.02-4.36 19.87-9.47 28.56-5.14 8.74-12.28 16.29-21 21.53-9.56 5.74-20.6 8.38-31.72 8.25-7.22-.08-14.17-1.64-20.6-4.97-6.65-3.45-12.42-8.38-17.24-14.1-9.66-11.47-15.85-26.51-16.34-41.55-.5-15.28 5.19-31.02 15.03-42.66 9.91-11.73 23.81-19.32 38.76-22.47 4.2-.88 8.74-1.79 13.03-1.13 1.88.3 2.69-2.59.79-2.88zm.46 71.15c-2.54 1.73-5.63 2.7-8.72 2.51-2.81-.18-5.18-1.83-7.31-3.54-2-1.59-3.99-3.44-4.35-6.09-.28-2.05.04-4.14.71-6.08 1.43-4.1 4.79-7.58 8.99-8.79 2.42-.7 4.96-.62 7.37.04 1.44.39 3.04.91 4.19 1.88 1.02.87 2.05 1.87 2.85 2.95 1.93 2.59 1.19 5.48.6 8.42-.63 3.21-1.55 6.66-4.33 8.7-1.54 1.13-.05 3.73 1.51 2.59 2.93-2.14 4.47-5.21 5.32-8.68.78-3.14 1.87-6.98.76-10.15-.49-1.39-1.31-2.58-2.28-3.68-1.17-1.32-2.51-2.75-4.11-3.52-3.04-1.45-6.41-2.31-9.79-1.98-5.67.55-10.6 4.19-13.09 9.28-1.18 2.43-1.87 5.12-1.79 7.83.09 3.22 1.33 5.7 3.64 7.93 2.58 2.49 5.97 5.11 9.6 5.7 4.05.66 8.36-.45 11.74-2.74 1.59-1.07.09-3.68-1.51-2.58z"/><use xlink:href="#C" class="J"/><use xlink:href="#D"/><path d="M93.48 127.77c1.32 1.01 2.17 2.55 2.54 4.17s.29 3.31-.02 4.95c-.15.79-.36 1.6-.81 2.27-.65.97-1.73 1.55-2.81 2-.75.31-1.55.58-2.36.57-.95-.01-1.85-.4-2.7-.83-2.16-1.11-4.27-2.8-4.77-5.18l2.44-7.07 8.49-.88z"/><path d="M92.42 128.83c1.6 1.28 2.31 3.17 2.34 5.19.02 1.14-.1 2.32-.43 3.42-.27.9-.8 1.45-1.61 1.9-.79.44-1.78.9-2.7.89-.95-.02-1.87-.56-2.68-1.03-1.52-.89-2.93-2.1-3.34-3.88v.8l2.44-7.07-1.45 1.1 8.48-.87c.81-.08 1.5-.63 1.5-1.5 0-.75-.69-1.58-1.5-1.5l-8.48.87c-.71.07-1.21.42-1.45 1.1l-1.36 3.93-.84 2.42c-.29.83-.35 1.41-.02 2.3.56 1.48 1.55 2.72 2.78 3.7 1.32 1.05 2.91 2.05 4.56 2.44 1.87.45 3.7-.15 5.35-1.01s2.78-2.22 3.25-4.03c1-3.85.56-8.65-2.75-11.29-.63-.5-1.5-.62-2.12 0-.49.52-.61 1.61.03 2.12z"/><path d="M115.92 149.77c-2.51-1.24-5.64-.69-8.13.65-1.3.7-3.15 3.53-4.07 4.67-2.19 2.71-2.3 6.76-.66 9.83s4.8 5.16 8.19 5.96c1.22.29 2.48.43 3.73.29 3.92-.42 7.23-3.71 8.16-7.54s.94-8.25-2.8-11.07c-.78-.58-3.53-2.44-4.42-2.79" class="J"/><use xlink:href="#E"/><path d="M103.24 162.09c1.4.85 2.9 1.74 4.54 1.69 1.74-.05 3.27-1.16 4.58-2.31.48-.42.96-.86 1.26-1.42.3-.55.41-1.18.45-1.8.22-2.99-.44-7.26-3.35-7.99-1.2-.3-6.48 4.14-6.48 4.14l-1 7.69z"/><path d="M102.49 163.39c2.11 1.28 4.45 2.41 6.96 1.62 1.1-.35 2.07-.95 2.97-1.65s1.86-1.46 2.44-2.46c1.01-1.74.84-4.13.57-6.05-.24-1.7-.83-3.48-2.06-4.73-.61-.61-1.42-1.12-2.27-1.31-.69-.15-1.33.05-1.96.32-1.18.52-2.24 1.31-3.26 2.08l-2.59 2.03c-.58.54-.58 1.43-.68 2.18l-.87 6.66c-.11.8.76 1.5 1.5 1.5.9 0 1.39-.69 1.5-1.5l1.01-7.7-.44 1.06.74-.61.7-.55.2-.15c-.22.17-.04.03.01-.01l.55-.41 2.05-1.41.82-.46c.35-.19-.12 0 .08-.04.06-.01.14-.04.2-.06.21-.1-.05.01-.16.01.04 0 .08-.01.12 0-.58-.04-.23-.06-.08.03.22.12-.17-.09.06.02.09.04.17.09.26.14.05.03.3.21.11.06.08.06.15.13.22.2.21.21.27.3.34.39.21.32.42.73.49.92a9.63 9.63 0 0 1 .41 1.46c.16.81.22 1.84.18 2.82-.02.48-.04 1-.24 1.45-.22.48-.67.84-1.06 1.19-.92.81-2.04 1.7-3.3 1.86-1.45.17-2.82-.75-4-1.47-1.66-1.03-3.17 1.56-1.52 2.57z"/><path d="M144.48 70.3c-2.51-1.24-5.64-.69-8.13.65-1.3.7-3.15 3.53-4.07 4.67-2.19 2.71-2.3 6.76-.66 9.83s4.8 5.16 8.19 5.96c1.22.29 2.48.43 3.73.29 3.92-.42 7.23-3.71 8.16-7.54s.94-8.25-2.8-11.07c-.78-.58-3.53-2.44-4.42-2.79" class="J"/><path d="M145.24 69c-2.82-1.3-5.88-1.05-8.68.18-2.24.99-3.54 2.97-4.97 4.87-1.55 2.07-2.58 4.15-2.59 6.81-.02 2.76 1.03 5.36 2.8 7.45 3.41 4.03 9.84 6.24 14.82 4.07 4.81-2.1 7.14-7.24 7.1-12.28-.02-2.77-.96-5.51-3-7.44-.83-.79-1.82-1.43-2.78-2.06-.87-.57-1.75-1.19-2.7-1.6-.75-.32-1.6-.22-2.05.54-.38.63-.2 1.73.54 2.05 1.38.59 2.66 1.55 3.88 2.4 1.48 1.04 2.5 2.44 2.91 4.22.82 3.64-.43 8.1-3.4 10.43-6.74 5.27-18.95-3.57-14.08-11.5.5-.82 1.15-1.57 1.72-2.33.59-.79 1.21-1.66 1.97-2.29 1.75-1.45 4.95-1.87 7-.92 1.73.8 3.26-1.79 1.51-2.6h0z"/><path d="M149.24 86.73c-2.1 1.1-4.84.1-6.18-1.98s-1.36-4.96-.38-7.26c.55-1.28 1.39-2.43 2.5-3.17s2.49-1.04 3.75-.68l3.27 5.78-2.96 7.31z"/><path d="M148.48 85.44c-.44.22-1.11.3-1.54.23-.67-.11-1.19-.33-1.74-.76-1.03-.79-1.62-2.23-1.69-3.6-.13-2.64 1.66-7.07 5.03-6.22l-.9-.69 3.27 5.78-.15-1.16-2.96 7.31c-.3.75.33 1.65 1.05 1.85.86.24 1.54-.29 1.85-1.05l2.14-5.29c.27-.66.62-1.33.81-2.01.25-.86-.53-1.84-.93-2.55l-1.78-3.16-.6-1.06c-.45-.76-1.19-.96-2.03-1.04-4.83-.47-7.91 4.85-7.8 9.08.07 2.48 1.08 4.85 3.11 6.34 1.87 1.37 4.32 1.61 6.39.59.73-.36.93-1.39.54-2.05-.45-.74-1.34-.9-2.07-.54z"/><path d="M113.83 72.26c-2.51-1.24-5.64-.69-8.13.65-1.3.7-3.15 3.53-4.07 4.67-2.19 2.71-2.3 6.76-.66 9.83s4.8 5.16 8.19 5.96c1.22.29 2.48.43 3.73.29 3.92-.42 7.23-3.71 8.16-7.54s.94-8.25-2.8-11.07c-.78-.58-3.53-2.44-4.42-2.79" class="J"/><path d="M114.59 70.96c-2.82-1.3-5.88-1.05-8.68.18-2.24.99-3.54 2.97-4.97 4.87-1.55 2.07-2.58 4.15-2.59 6.81-.02 2.76 1.03 5.36 2.8 7.45 3.41 4.03 9.84 6.24 14.82 4.07 4.81-2.1 7.14-7.24 7.1-12.28-.02-2.77-.96-5.51-3-7.44-.83-.79-1.82-1.43-2.78-2.06-.87-.57-1.75-1.19-2.7-1.6-.75-.32-1.6-.22-2.05.54-.38.63-.2 1.73.54 2.05 1.38.59 2.66 1.55 3.88 2.4 1.48 1.04 2.5 2.44 2.91 4.22.82 3.64-.43 8.1-3.4 10.43-6.74 5.27-18.95-3.57-14.08-11.5.5-.82 1.15-1.57 1.72-2.33.59-.79 1.21-1.66 1.97-2.29 1.75-1.45 4.95-1.87 7-.92 1.74.8 3.26-1.79 1.51-2.6h0z"/><path d="M117.69 89.15c-.87.37-1.79.64-2.74.71-2.65.19-5.31-1.33-6.61-3.65s-1.28-5.28-.07-7.65c1.2-2.37 3.51-4.11 6.07-4.8.21-.06.48-.09.62.09L119.5 78l1.98 5.63-3.79 5.52z"/><path d="M117.29 87.7c-1.86.77-3.71.96-5.5-.08-1.59-.92-2.62-2.5-2.88-4.32-.26-1.86.3-3.82 1.47-5.28a8.07 8.07 0 0 1 1.95-1.74 10.88 10.88 0 0 1 1.21-.66c.2-.09.4-.16.61-.23l.35-.11c.33-.07.31-.09-.07-.07l-.66-.39c1.63 1.31 3.12 2.83 4.67 4.24l-.39-.66 1.98 5.63.15-1.16-3.79 5.52c-.46.67-.12 1.66.54 2.05.74.43 1.59.13 2.05-.54l1.76-2.56 2.01-2.93c.57-1.01-.3-2.5-.64-3.47l-1.17-3.33c-.39-1.01-1.6-1.78-2.37-2.48l-2.56-2.33c-1.07-.92-2.28-.49-3.45 0-1.22.5-2.32 1.19-3.3 2.06-1.99 1.77-3.19 4.25-3.38 6.91-.22 3.08 1.13 6.06 3.6 7.91 2.53 1.9 5.73 2.11 8.61.92.75-.31 1.28-1 1.05-1.85-.2-.71-1.1-1.36-1.85-1.05z"/><path d="M93.88 96.69c-2.51-1.24-5.64-.69-8.13.65-1.3.7-3.15 3.53-4.07 4.67-2.19 2.71-2.3 6.76-.66 9.83s4.8 5.16 8.19 5.96c1.22.29 2.48.43 3.73.29 3.92-.42 7.23-3.71 8.16-7.54s.94-8.25-2.8-11.07c-.78-.58-3.53-2.43-4.42-2.79"/><path d="M94.64 95.4c-2.82-1.3-5.88-1.05-8.68.18-2.24.99-3.54 2.97-4.97 4.87-1.55 2.07-2.58 4.15-2.59 6.81-.02 2.76 1.03 5.36 2.8 7.45 3.41 4.03 9.84 6.24 14.82 4.07 4.81-2.1 7.14-7.24 7.1-12.28-.02-2.77-.96-5.51-3-7.44-.83-.79-1.82-1.43-2.78-2.06-.87-.57-1.75-1.19-2.7-1.6-.75-.32-1.6-.22-2.05.54-.38.63-.2 1.73.54 2.05 1.38.59 2.66 1.55 3.88 2.4 1.48 1.04 2.5 2.44 2.91 4.22.82 3.64-.43 8.1-3.4 10.43-6.74 5.27-18.95-3.57-14.08-11.5.5-.82 1.15-1.57 1.72-2.33.59-.79 1.21-1.66 1.97-2.29 1.75-1.45 4.95-1.87 7-.92 1.73.79 3.26-1.79 1.51-2.6h0z"/><path d="M163.39 123.38c-2.51-1.24-5.64-.69-8.13.65-1.3.7-3.15 3.53-4.07 4.67-2.19 2.71-2.3 6.76-.66 9.83s4.8 5.16 8.19 5.96c1.22.29 2.48.43 3.73.29 3.92-.42 7.23-3.71 8.16-7.54s.94-8.25-2.8-11.07c-.78-.58-3.53-2.44-4.42-2.79" class="J"/><path d="M164.15 122.09c-2.82-1.3-5.88-1.05-8.68.18-2.24.99-3.54 2.97-4.97 4.87-1.55 2.07-2.58 4.15-2.59 6.81-.02 2.76 1.03 5.36 2.8 7.45 3.41 4.03 9.84 6.24 14.82 4.07 4.81-2.1 7.14-7.24 7.1-12.28-.02-2.77-.96-5.51-3-7.44-.83-.79-1.82-1.43-2.78-2.06-.87-.57-1.75-1.2-2.7-1.6-.75-.32-1.6-.22-2.05.54-.38.63-.2 1.73.54 2.05 1.38.59 2.66 1.55 3.88 2.4 1.48 1.04 2.5 2.44 2.91 4.22.82 3.64-.43 8.1-3.4 10.43-6.74 5.27-18.95-3.57-14.08-11.5.5-.82 1.15-1.57 1.72-2.33.59-.79 1.21-1.66 1.97-2.29 1.75-1.45 4.95-1.87 7-.92 1.74.79 3.26-1.8 1.51-2.6h0z"/><path d="M165.81 93.37c-2.51-1.24-5.64-.69-8.13.65-1.3.7-3.15 3.53-4.07 4.67-2.19 2.71-2.3 6.76-.66 9.83s4.8 5.16 8.19 5.96c1.22.29 2.48.43 3.73.29 3.92-.42 7.23-3.71 8.16-7.54s.94-8.25-2.8-11.07c-.78-.58-3.53-2.44-4.42-2.79" class="J"/><path d="M166.57 92.07c-2.82-1.3-5.88-1.05-8.68.18-2.24.99-3.54 2.97-4.97 4.87-1.55 2.07-2.58 4.15-2.59 6.81-.02 2.76 1.03 5.36 2.8 7.45 3.41 4.03 9.84 6.24 14.82 4.07 4.81-2.1 7.14-7.24 7.1-12.28-.02-2.77-.96-5.51-3-7.44-.83-.79-1.82-1.43-2.78-2.06-.87-.57-1.75-1.19-2.7-1.6-.75-.32-1.6-.22-2.05.54-.38.63-.2 1.73.54 2.05 1.38.59 2.66 1.55 3.88 2.4 1.48 1.04 2.5 2.44 2.91 4.22.82 3.64-.43 8.1-3.4 10.43-6.74 5.27-18.95-3.57-14.08-11.5.5-.82 1.15-1.57 1.72-2.33.59-.79 1.21-1.66 1.97-2.29 1.75-1.45 4.95-1.87 7-.92 1.74.8 3.26-1.79 1.51-2.6h0z"/><path d="M146.57 147.81c-2.51-1.24-5.64-.69-8.13.65-1.3.7-3.15 3.53-4.07 4.67-2.19 2.71-2.3 6.76-.66 9.83s4.8 5.16 8.19 5.96c1.22.29 2.48.43 3.73.29 3.92-.42 7.23-3.71 8.16-7.54s.94-8.25-2.8-11.07c-.78-.58-3.53-2.44-4.42-2.79" class="J"/><path d="M147.33 146.51c-2.82-1.3-5.88-1.05-8.68.18-2.24.99-3.54 2.97-4.97 4.87-1.55 2.07-2.58 4.15-2.59 6.81-.02 2.76 1.03 5.36 2.8 7.45 3.41 4.03 9.84 6.24 14.82 4.07 4.81-2.1 7.14-7.24 7.1-12.28-.02-2.77-.96-5.51-3-7.44-.83-.79-1.82-1.43-2.78-2.06-.87-.57-1.75-1.19-2.7-1.6-.75-.32-1.6-.22-2.05.54-.38.63-.2 1.73.54 2.05 1.38.59 2.66 1.55 3.88 2.4 1.48 1.04 2.5 2.44 2.91 4.22.82 3.64-.43 8.1-3.4 10.43-6.74 5.27-18.95-3.57-14.08-11.5.5-.82 1.15-1.57 1.72-2.33.59-.79 1.21-1.66 1.97-2.29 1.75-1.45 4.95-1.87 7-.92 1.73.8 3.26-1.79 1.51-2.6h0z"/><path d="M124.48 108.74c-2.97 1.66-4.69 5.23-4.12 8.53s3.38 6.12 6.74 6.74c3.53.65 7.38-1.19 9.02-4.31 1.64-3.13.92-7.28-1.68-9.69-3.25-3.02-7.24-2.9-9.96-1.27" class="K"/><path d="M123.73 107.45c-3.53 2.05-5.51 6.19-4.81 10.22.68 3.89 4.13 7.2 8.01 7.82 3.99.64 8.27-1.22 10.33-4.75 2.06-3.54 1.46-8.18-1.2-11.23-3.07-3.51-8.31-4.41-12.33-2.06-1.67.97-.16 3.57 1.51 2.59 2.48-1.45 5.51-1.14 7.74.66 2.26 1.83 3.17 5.05 2.07 7.77-1.01 2.51-3.74 4.12-6.39 4.16-2.81.04-5.53-1.83-6.51-4.47-1.14-3.05.32-6.52 3.09-8.13 1.67-.96.16-3.55-1.51-2.58h0z"/><path d="M122.99 109.84l10.98 12.51" class="K"/><path d="M121.93 110.9l10.98 12.51c.53.61 1.57.55 2.12 0 .6-.6.54-1.51 0-2.12l-10.98-12.51c-.53-.61-1.57-.55-2.12 0-.61.6-.54 1.51 0 2.12h0z"/><g class="I"><path d="M156.73 130.56l-.17.17c-.15.14-.25.3-.31.48a1.15 1.15 0 0 0-.13.58 1.15 1.15 0 0 0 .13.58c.06.19.16.35.31.48l.3.23c.23.14.49.2.76.2l.4-.05a1.49 1.49 0 0 0 .66-.39l.17-.17c.15-.14.25-.3.31-.48a1.15 1.15 0 0 0 .13-.58 1.15 1.15 0 0 0-.13-.58c-.06-.19-.16-.35-.31-.48l-.3-.23c-.23-.14-.49-.2-.76-.2l-.4.05c-.26.07-.48.2-.66.39h0z"/><use xlink:href="#F"/><use xlink:href="#G"/><use xlink:href="#H"/><use xlink:href="#I"/><path d="M164.42 102.89c1.93 0 1.93-3 0-3s-1.93 3 0 3h0z"/><path d="M141.61 83.57v-.17a1.15 1.15 0 0 0-.13-.58c-.06-.19-.16-.35-.31-.48-.14-.15-.3-.25-.48-.31a1.15 1.15 0 0 0-.58-.13l-.4.05a1.49 1.49 0 0 0-.66.39l-.23.3c-.14.23-.2.49-.2.76v.17a1.15 1.15 0 0 0 .13.58c.06.19.16.35.31.48.14.15.3.25.48.31a1.15 1.15 0 0 0 .58.13l.4-.05a1.49 1.49 0 0 0 .66-.39l.23-.3a1.54 1.54 0 0 0 .2-.76h0z"/><path d="M137.84 80.53c1.93 0 1.93-3 0-3-1.94 0-1.94 3 0 3h0z"/><path d="M144.51 163.35c1.93 0 1.93-3 0-3s-1.94 3 0 3h0z"/><path d="M142.23 157.93c1.93 0 1.93-3 0-3s-1.93 3 0 3h0z"/><path d="M147.13 155.63h-.17a1.15 1.15 0 0 0-.58.13c-.19.06-.35.16-.48.31-.15.14-.25.3-.31.48a1.15 1.15 0 0 0-.13.58l.05.4a1.49 1.49 0 0 0 .39.66l.3.23c.23.14.49.2.76.2h.17a1.15 1.15 0 0 0 .58-.13c.19-.06.35-.16.48-.31.15-.14.25-.3.31-.48a1.15 1.15 0 0 0 .13-.58l-.05-.4a1.49 1.49 0 0 0-.39-.66l-.3-.23a1.57 1.57 0 0 0-.76-.2h0z"/><path d="M116.63 162.91v-.35a1.15 1.15 0 0 0-.13-.58c-.06-.19-.16-.35-.31-.48-.14-.15-.3-.25-.48-.31a1.15 1.15 0 0 0-.58-.13l-.4.05a1.49 1.49 0 0 0-.66.39l-.23.3c-.14.23-.2.49-.2.76v.35a1.15 1.15 0 0 0 .13.58c.06.19.16.35.31.48.14.15.3.25.48.31a1.15 1.15 0 0 0 .58.13l.4-.05a1.49 1.49 0 0 0 .66-.39l.23-.3a1.57 1.57 0 0 0 .2-.76h0z"/><path d="M119.15 156.69h-.17a1.15 1.15 0 0 0-.58.13c-.19.06-.35.16-.48.31-.15.14-.25.3-.31.48a1.15 1.15 0 0 0-.13.58l.05.4a1.49 1.49 0 0 0 .39.66l.3.23c.23.14.49.2.76.2h.17a1.15 1.15 0 0 0 .58-.13c.19-.06.35-.16.48-.31.15-.14.25-.3.31-.48a1.15 1.15 0 0 0 .13-.58l-.05-.4a1.49 1.49 0 0 0-.39-.66l-.3-.23a1.54 1.54 0 0 0-.76-.2h0z"/><path d="M89.51 105.78v-.17a1.15 1.15 0 0 0-.13-.58c-.06-.19-.16-.35-.31-.48-.14-.15-.3-.25-.48-.31a1.15 1.15 0 0 0-.58-.13l-.4.05a1.49 1.49 0 0 0-.66.39l-.23.3c-.14.23-.2.49-.2.76v.17a1.15 1.15 0 0 0 .13.58c.06.19.16.35.31.48.14.15.3.25.48.31a1.15 1.15 0 0 0 .58.13l.4-.05a1.49 1.49 0 0 0 .66-.39l.23-.3a1.57 1.57 0 0 0 .2-.76h0z"/><path d="M90.53 102.11v.17a1.15 1.15 0 0 0 .13.58c.06.19.16.35.31.48.14.15.3.25.48.31a1.15 1.15 0 0 0 .58.13l.4-.05a1.49 1.49 0 0 0 .66-.39l.23-.3c.14-.23.2-.49.2-.76v-.17a1.15 1.15 0 0 0-.13-.58c-.06-.19-.16-.35-.31-.48-.14-.15-.3-.25-.48-.31a1.15 1.15 0 0 0-.58-.13l-.4.05a1.49 1.49 0 0 0-.66.39l-.23.3a1.57 1.57 0 0 0-.2.76h0z"/><path d="M92.91 110.25h.35a1.15 1.15 0 0 0 .58-.13c.19-.06.35-.16.48-.31.15-.14.25-.3.31-.48a1.15 1.15 0 0 0 .13-.58l-.05-.4a1.49 1.49 0 0 0-.39-.66l-.3-.23c-.23-.14-.49-.2-.76-.2h-.35a1.15 1.15 0 0 0-.58.13c-.19.06-.35.16-.48.31-.15.14-.25.3-.31.48a1.15 1.15 0 0 0-.13.58l.05.4a1.49 1.49 0 0 0 .39.66l.3.23a1.57 1.57 0 0 0 .76.2h0z"/><path d="M89.25 137.86c1.93 0 1.93-3 0-3s-1.94 3 0 3h0z"/><path d="M94.94 133.04v-.17a1.15 1.15 0 0 0-.13-.58c-.06-.19-.16-.35-.31-.48-.14-.15-.3-.25-.48-.31a1.15 1.15 0 0 0-.58-.13l-.4.05a1.49 1.49 0 0 0-.66.39l-.23.3c-.14.23-.2.49-.2.76v.17a1.15 1.15 0 0 0 .13.58c.06.19.16.35.31.48.14.15.3.25.48.31a1.15 1.15 0 0 0 .58.13l.4-.05a1.49 1.49 0 0 0 .66-.39l.23-.3a1.57 1.57 0 0 0 .2-.76h0z"/><path d="M94.14 140.48c1.93 0 1.93-3 0-3s-1.93 3 0 3h0z"/><path d="M110.03 80.37c1.93 0 1.93-3 0-3s-1.93 3 0 3h0z"/><path d="M114.76 84.56c1.93 0 1.93-3 0-3s-1.94 3 0 3h0z"/><path d="M113.59 159.22c1.93 0 1.93-3 0-3s-1.94 3 0 3h0z"/><path d="M127.42 143.97v-7.69c0-.97-1.5-.97-1.5 0v7.69c0 .97 1.5.97 1.5 0h0z"/><path d="M122.47 140.54l7.94.59c.4.05.75-.38.75-.75 0-.44-.35-.7-.75-.75l-7.94-.59c-.97-.03-.97 1.47 0 1.5h0z"/><path d="M90.06 160.91c1.16-1.44 2.05-3.05 2.64-4.81.12-.37-.14-.84-.52-.92-.41-.09-.79.13-.92.52l-.21.59-.11.29c-.03.08-.04.1-.01.04l-.06.14-.55 1.12-.64 1.06-.35.51-.19.25c.06-.08-.11.13-.12.15-.24.31-.32.77 0 1.06.25.25.78.32 1.04 0h0z"/><path d="M88.22 156.96l4.01 3.34c.3.25.77.32 1.06 0 .25-.28.32-.79 0-1.06l-4.01-3.34c-.3-.25-.77-.32-1.06 0-.26.27-.32.79 0 1.06h0z"/><path d="M125.23 67.51l-.34-4.54c-.03-.39-.32-.77-.75-.75-.38.02-.78.33-.75.75l.34 4.54c.03.39.32.77.75.75.38-.02.78-.33.75-.75h0z"/><path d="M122.8 65.33l3.5-.21c.39-.02.77-.33.75-.75-.02-.39-.33-.77-.75-.75l-3.5.21c-.39.02-.77.33-.75.75.01.38.33.77.75.75h0z"/><path d="M87.98 84.66l2.83 3.29c.26.3.8.28 1.06 0 .29-.32.27-.74 0-1.06l-2.83-3.29c-.26-.3-.8-.28-1.06 0-.3.32-.28.75 0 1.06h0z"/><path d="M88.57 88.11c1.33-.63 2.45-1.67 3.21-2.93.2-.34.09-.84-.27-1.03s-.81-.09-1.03.27a3.62 3.62 0 0 1-.27.41l-.15.21c.04-.06.09-.11.02-.02-.02.03-.05.06-.07.09-.21.25-.44.49-.68.71l-.18.15c-.04.04-.16.1-.18.15.08-.06.1-.08.06-.05-.02.01-.04.03-.06.04-.03.02-.06.05-.09.07-.06.05-.13.09-.19.13-.28.19-.57.35-.88.49-.36.17-.48.71-.27 1.03.24.37.65.46 1.03.28h0z"/><path d="M175.84 118.86v-.17c0-.1-.02-.2-.06-.29-.03-.09-.08-.17-.16-.24-.07-.07-.15-.12-.24-.16a.49.49 0 0 0-.29-.06l-.2.03c-.13.04-.24.1-.33.19l-.12.15a.72.72 0 0 0-.1.38v.17c0 .1.02.2.06.29.03.09.08.17.16.24.07.07.15.12.24.16a.49.49 0 0 0 .29.06l.2-.03c.13-.04.24-.1.33-.19l.12-.15c.07-.12.1-.25.1-.38h0z"/><path d="M149.05 117.81l-.17-.17c-.07-.07-.15-.12-.24-.16a.49.49 0 0 0-.29-.06c-.1 0-.2.02-.29.06-.09.03-.17.08-.24.16l-.12.15a.72.72 0 0 0-.1.38l.03.2c.04.13.1.24.19.33l.17.17c.07.07.15.12.24.16a.49.49 0 0 0 .29.06c.1 0 .2-.02.29-.06.09-.03.17-.08.24-.16l.12-.15a.72.72 0 0 0 .1-.38l-.03-.2c-.04-.13-.1-.24-.19-.33h0z"/><path d="M142.21 97.6c.97 0 .97-1.5 0-1.5-.96 0-.96 1.5 0 1.5h0z"/><path d="M108.99 102.33h.17c.1 0 .2-.02.29-.06.09-.03.17-.08.24-.16.07-.07.12-.15.16-.24a.49.49 0 0 0 .06-.29l-.03-.2c-.04-.13-.1-.24-.19-.33l-.15-.12a.72.72 0 0 0-.38-.1h-.17c-.1 0-.2.02-.29.06-.09.03-.17.08-.24.16-.07.07-.12.15-.16.24a.49.49 0 0 0-.06.29l.03.2c.04.13.1.24.19.33l.15.12c.12.07.25.1.38.1h0z"/><path d="M106.73 127.14c.97 0 .97-1.5 0-1.5s-.97 1.5 0 1.5h0z"/><path d="M141.18 136.74c.97 0 .97-1.5 0-1.5s-.97 1.5 0 1.5h0z"/><path d="M126.87 95.63l-.53-4.19c-.05-.39-.31-.77-.75-.75-.36.02-.8.33-.75.75l.53 4.19c.05.39.31.77.75.75.36-.01.8-.33.75-.75h0z"/><path d="M124.23 94.62l1.7-.37.2-.03a1.08 1.08 0 0 1 .07-.01l.47-.05.87-.06c.39-.02.77-.33.75-.75-.02-.39-.33-.77-.75-.75-1.25.06-2.49.25-3.69.57-.38.1-.65.54-.52.92.1.39.49.64.9.53h0z"/><path d="M161.44 81.07h-.17c-.1 0-.2.02-.29.06-.09.03-.17.08-.24.16-.07.07-.12.15-.16.24a.49.49 0 0 0-.06.29l.03.2c.04.13.1.24.19.33l.15.12a.72.72 0 0 0 .38.1h.17c.1 0 .2-.02.29-.06.09-.03.17-.08.24-.16.07-.07.12-.15.16-.24a.49.49 0 0 0 .06-.29l-.03-.2c-.04-.13-.1-.24-.19-.33l-.15-.12a.72.72 0 0 0-.38-.1h0z"/><path d="M148.18 67.18l.18.35c.05.09.11.16.19.21.07.07.16.11.26.13.1.03.2.04.3.01a.49.49 0 0 0 .28-.09l.15-.12c.09-.09.16-.2.19-.33l.03-.2a.72.72 0 0 0-.1-.38l-.18-.35c-.05-.09-.11-.16-.19-.21-.07-.07-.16-.11-.26-.13-.1-.03-.2-.04-.3-.01a.49.49 0 0 0-.28.09l-.15.12c-.09.09-.16.2-.19.33l-.03.2c0 .14.03.27.1.38h0z"/><path d="M166.01 157c.97 0 .97-1.5 0-1.5-.96 0-.96 1.5 0 1.5h0z"/><path d="M128.48 177.23v-.17c0-.1-.02-.2-.06-.29-.03-.09-.08-.17-.16-.24-.07-.07-.15-.12-.24-.16a.49.49 0 0 0-.29-.06l-.2.03c-.13.04-.24.1-.33.19l-.12.15a.72.72 0 0 0-.1.38v.17c0 .1.02.2.06.29.03.09.08.17.16.24.07.07.15.12.24.16a.49.49 0 0 0 .29.06l.2-.03c.13-.04.24-.1.33-.19l.12-.15c.06-.12.1-.24.1-.38h0z"/><path d="M74.9 124.36h.17c.1 0 .2-.02.29-.06.09-.03.17-.08.24-.16.07-.07.12-.15.16-.24a.49.49 0 0 0 .06-.29l-.03-.2c-.04-.13-.1-.24-.19-.33l-.15-.12a.72.72 0 0 0-.38-.1h-.17c-.1 0-.2.02-.29.06-.09.03-.17.08-.24.16-.07.07-.12.15-.16.24a.49.49 0 0 0-.06.29l.03.2c.04.13.1.24.19.33l.15.12a.86.86 0 0 0 .38.1h0z"/><path d="M176.2 127.43l.8-1.88.39-.92.19-.45c.02-.04.04-.08.05-.13.05-.1.03-.09-.05.03.05-.05.03-.04-.07.05-.24.13-.48.09-.74-.13l-.19-.33-.03-.15c-.05.39.38.77.75.75.45-.02.7-.33.75-.75.04-.37-.26-.72-.6-.8-.32-.07-.66.03-.89.26-.17.16-.24.35-.33.56l-.27.64-1.05 2.48c-.08.19-.13.37-.08.58.05.17.18.36.34.45.32.18.86.12 1.03-.26h0z"/><path d="M173.75 124.53l3.93 2.68c.33.22.85.07 1.03-.27a.77.77 0 0 0-.27-1.03l-3.93-2.68c-.33-.22-.85-.07-1.03.27-.2.38-.07.79.27 1.03h0z"/><path d="M106.87 83.87v.12a1.15 1.15 0 0 0 .13.58c.06.19.16.35.31.48.14.15.3.25.48.31a1.15 1.15 0 0 0 .58.13l.4-.05a1.49 1.49 0 0 0 .66-.39l.23-.3c.14-.23.2-.49.2-.76v-.12a1.15 1.15 0 0 0-.13-.58c-.06-.19-.16-.35-.31-.48-.14-.15-.3-.25-.48-.31a1.15 1.15 0 0 0-.58-.13l-.4.05a1.49 1.49 0 0 0-.66.39l-.23.3a1.57 1.57 0 0 0-.2.76h0z"/><path d="M143.84 81.53c1.93 0 1.93-3 0-3s-1.94 3 0 3h0z"/></g><path d="M170.27 96.81c-.5-.61-1.51.67-1.88 1.36-.25.46-.28 1.01-.29 1.54-.02 1.52.11 3.07.72 4.47.6 1.4 1.73 2.62 3.19 3.06-.01-.01 3.03-4.6-1.74-10.43z"/><path d="M171.33 95.75c-1.34-1.38-2.98-.12-3.86 1.07-.96 1.32-.96 2.94-.82 4.5.27 3.15 1.73 6.33 4.95 7.35.66.21 1.34-.15 1.69-.69.72-1.1 1.03-2.54 1.13-3.83.26-3.13-1.17-6.03-3.09-8.4-.51-.63-1.59-.53-2.12 0-.62.62-.51 1.49 0 2.12.47.58.88 1.22 1.24 1.88l.26.52.13.29.29.84.21.87c.01.07.09.54.04.17a4.19 4.19 0 0 1 .04.37c.04.48.03.97-.01 1.45-.01.09-.07.44.01 0l-.05.28-.13.6c-.08.31-.19.6-.3.89-.08.22.17-.36.06-.15-.02.04-.04.09-.06.14l-.13.25c-.04.06-.07.13-.11.19l1.69-.69a3.25 3.25 0 0 1-.98-.52c.16.12-.05-.05-.11-.1l-.22-.21-.26-.28-.05-.06c-.63-.86-.89-1.66-1.07-2.74-.07-.41-.1-1.01-.11-1.5s-.04-1.06.07-1.4c.02-.07.08-.18.18-.33a1.43 1.43 0 0 1 .14-.2c.22-.33-.11.12.05-.06.13-.14.25-.28.4-.4-.08.07-.18.12-.03.05-.35.17-.9.13-1.19-.16a1.52 1.52 0 0 0 2.12 0c.58-.57.57-1.53 0-2.11z"/><path d="M135.05 163.37c.46.45 2.26-5.75 1.71-8.73-.16-.85-.42-1.71-.98-2.38.01 0-6.26 5.68-.73 11.11z"/><path d="M133.99 164.43c2.57 2.04 3.56-2.81 3.89-4.39.62-2.96.96-6.31-1.03-8.84-.52-.66-1.58-.49-2.12 0-1.27 1.16-2.25 2.71-2.87 4.29a8.06 8.06 0 0 0-.46 4.29c.29 1.8 1.32 3.38 2.59 4.65 1.37 1.37 3.49-.75 2.12-2.12-.58-.58-.99-1.09-1.37-1.82l-.1-.2-.19-.56-.1-.41c-.02-.09-.07-.42-.04-.14a5.79 5.79 0 0 1-.04-.93l.03-.45c.01-.11.01-.08-.01.08l.04-.25.22-.84.12-.34.09-.22c-.07.16-.08.19-.03.09.21-.46.45-.9.72-1.32l.4-.57c.06-.08.26-.32-.01.01l.18-.23c.26-.31.53-.62.83-.89h-2.12c.32.41.45 1.06.57 1.62.04.2.04.23.01.01l.03.34c.02.22.02.44.02.66 0 .5-.03 1.01-.09 1.51l-.04.34c-.02.18.03-.21-.01.08l-.14.82c-.17.91-.38 1.82-.66 2.7l-.19.57-.08.21c-.1.27.06-.06.05-.1.02.07-.14.26-.17.33-.05.12-.26.24.13-.16-.01.01-.02.02-.02.03.52-.49 1.18-.48 1.97.03-.63-.5-1.5-.62-2.12 0-.52.52-.64 1.61 0 2.12z"/><path d="M14.9 80.73l11.17 3.11c2.91.81 6.1 2.22 9.12 2.37.93.05 2.04-.46 2.49-1.31 1.52-2.87 1.45-6.79 1.92-9.97 3.21.08 6.31-.41 9.18-1.55 2.48 4.32 5.91 10.92 11.07 6.64 5.94-4.94 9.82-12.52 11.8-19.85.42-1.57-.42-2.94-1.88-3.53l-6.81-2.72c.74-3.27.99-6.52.67-9.64 4.56-1.47 11.09-3.44 8.95-8.69-1.26-3.1-3.74-6.17-5.62-8.94-2.11-3.12-4.32-6.16-6.62-9.15-1.16-1.51-3.53-1.03-4.48.39-1.64 2.44-3.39 4.79-5.2 7.1a29.34 29.34 0 0 0-10.02-3.66c-.31-4.53-1.52-10.51-6.93-9.56-3.46.61-7.11 2.75-10.37 4.04l-12.22 4.86c-1.59.63-2.08 3.26-.79 4.41l5.22 4.66c-.39.43-.78.86-1.14 1.32-1.5 1.92-2.68 4.11-3.58 6.43-2.59-.36-5.24-.93-7.41-1.16C1.9 36.17.54 37.61.49 39.05.26 45.87.6 53.94 3.29 60.34c1.71 4.07 5.84 3.23 9.29 1.65 1.11 1.8 2.51 3.4 4.14 4.79-2.24 2.52-2.88 7.65-3.68 10.41-.44 1.45.36 3.12 1.86 3.54z" fill="#7cc4cb"/><path d="M14.5 82.17l10 2.79c3.12.87 6.19 2.18 9.41 2.62 1.32.18 2.57.17 3.73-.57 1.12-.72 1.64-1.89 2.06-3.11.95-2.75.92-5.72 1.33-8.58l-1.45 1.1c3.27.06 6.52-.42 9.57-1.6l-1.69-.69c1.51 2.63 3 5.55 5.46 7.42 2.77 2.11 5.77 1.4 8.27-.74 3.07-2.61 5.56-5.93 7.52-9.43 1.88-3.37 3.62-7.21 4.4-11.01.41-1.99-.49-3.92-2.28-4.89-1.06-.57-2.29-.94-3.41-1.39l-4.09-1.63 1.05 1.85c.72-3.3 1.04-6.66.72-10.04L64 45.72c4.88-1.58 12.65-4.23 9.85-10.89-1.65-3.94-4.52-7.4-6.95-10.88-1.3-1.87-2.64-3.71-4.01-5.52-1.13-1.5-2.1-3.14-4.15-3.33-1.94-.18-3.42.9-4.47 2.41-1.51 2.18-3.07 4.32-4.7 6.42l1.82-.23c-3.22-1.87-6.71-3.16-10.37-3.81l1.1 1.45c-.2-2.75-.56-5.79-2.09-8.16-1.79-2.77-4.67-3.4-7.75-2.62-4.1 1.03-7.94 3.26-11.86 4.82l-6.56 2.61c-1.71.68-4.02 1.14-5.08 2.8-.87 1.37-.98 3.26-.13 4.66.62 1.01 1.76 1.76 2.63 2.54l3.17 2.83V28.7c-2.25 2.5-3.87 5.29-5.11 8.41l1.85-1.05c-1.94-.28-3.87-.66-5.81-.95-1.59-.24-3.11-.51-4.51.48C-.51 36.56-1 38-1.05 39.65c-.05 1.78-.06 3.56 0 5.34.11 3.58.46 7.19 1.27 10.69.65 2.83 1.48 6.65 4.16 8.27 2.78 1.68 6.22.56 8.93-.66l-2.05-.54a23.42 23.42 0 0 0 4.37 5.1v-2.12c-2.09 2.47-2.8 5.72-3.5 8.79-.32 1.4-.92 2.88-.63 4.33.33 1.63 1.46 2.79 3 3.32 1.83.64 2.61-2.26.8-2.89-1.02-.35-.91-1.35-.69-2.19.27-1.02.48-2.05.72-3.08.5-2.08 1.01-4.48 2.43-6.16.5-.59.65-1.55 0-2.12-1.51-1.32-2.82-2.79-3.9-4.49-.47-.74-1.29-.88-2.05-.54-1.94.87-5.1 2.03-6.67-.07-.93-1.24-1.32-3.07-1.72-4.54-.47-1.77-.81-3.57-1.04-5.38-.43-3.47-.51-6.97-.44-10.46.02-.72-.09-1.54.49-2.08.6-.56 1.44-.29 2.17-.18l5.81.95c.87.13 1.51-.21 1.85-1.05 1.04-2.61 2.46-5 4.34-7.09.52-.58.63-1.56 0-2.12l-2.98-2.66c-.68-.61-1.85-1.32-2.35-2.1-1.06-1.66 1.51-2.3 2.51-2.7 4.35-1.73 8.77-3.34 13.03-5.3 1.99-.91 3.97-1.88 6.1-2.44 1.29-.34 2.7-.58 3.82.34 2 1.65 2.25 5.13 2.42 7.51.04.61.43 1.33 1.1 1.45 3.42.61 6.65 1.76 9.66 3.51.52.3 1.42.28 1.82-.23 1.41-1.81 2.79-3.63 4.11-5.5.77-1.09 2.01-3.56 3.5-1.92 1.56 1.71 2.85 3.79 4.19 5.68l4.02 5.78c1.28 1.8 2.59 3.65 3.48 5.68.51 1.16.7 2.32-.15 3.37-1.73 2.14-5.17 2.9-7.66 3.7-.58.19-1.16.78-1.1 1.45.29 3.11.05 6.19-.62 9.24-.19.86.26 1.53 1.05 1.85l3.63 1.45c1.07.43 2.52.75 3.45 1.44 1.38 1.04-.05 3.65-.49 4.93-1.35 3.84-3.21 7.53-5.65 10.8-1.21 1.62-2.59 3.12-4.1 4.45-1.04.92-2.32 1.86-3.76 1.28-2.66-1.08-4.23-4.78-5.56-7.09-.3-.53-1.09-.92-1.69-.69-2.83 1.09-5.75 1.55-8.78 1.5-.59-.01-1.36.47-1.45 1.1-.34 2.41-.4 4.89-.96 7.27-.2.86-.45 2.35-1.32 2.78-1.03.5-2.75-.14-3.78-.42-2.67-.72-5.28-1.66-7.95-2.4l-8.84-2.47c-1.87-.56-2.66 2.33-.8 2.85z"/><path d="M51.76 59.66c4.93-9.95 3.67-20.81-6.33-26.91-8.59-5.24-20.16-3.79-26.41 4.37-6.24 8.14-5.21 22.42 4.42 27.49 9.96 5.17 22.52 6.77 28.32-4.95zM28.38 42.85c3.01-3.03 7.71-3.24 11.3-1.1 4.2 2.5 4.99 6.54 3.43 10.84-2.41 6.65-8.21 6.01-13.59 3.22-4.62-2.43-4.57-9.5-1.14-12.96z" fill="#e76969"/><path d="M53.06 60.41c4.05-8.3 4.38-18.38-2.37-25.39-6.53-6.78-17.09-8.78-25.59-4.73-7.94 3.77-12.26 12.5-11.4 21.11.4 3.98 1.81 7.82 4.44 10.88 2.77 3.22 6.91 5 10.87 6.29 4.28 1.39 9.02 2.02 13.43.86 4.78-1.26 8.41-4.67 10.62-9.02.87-1.72-1.72-3.24-2.59-1.51-1.66 3.28-4.17 6.07-7.71 7.3-3.28 1.14-6.83 1-10.18.24-3.48-.79-7.33-2.11-10.21-4.28-2.74-2.06-4.47-5.18-5.26-8.47-1.66-6.94.7-14.81 6.57-19.08 6.62-4.82 15.72-4.37 22.29.28 3.66 2.59 6.19 6.46 6.9 10.91.71 4.48-.44 9.09-2.4 13.11-.85 1.72 1.74 3.24 2.59 1.5zm-23.62-16.5c2.62-2.58 6.65-2.64 9.68-.74 1.37.86 2.5 2.11 2.96 3.64.46 1.54.28 3.19-.21 4.76-.45 1.46-1.28 3.05-2.43 3.83-1.15.79-2.25.98-3.68.89-1.33-.09-2.96-.59-4.32-1.2-.69-.31-1.53-.71-2.02-1.12-.58-.49-.89-.88-1.24-1.52-1.42-2.59-.84-6.38 1.26-8.54 1.34-1.39-.77-3.51-2.12-2.12C24.65 44.54 23.66 49 25 52.62c.7 1.9 1.97 3.53 3.77 4.49 1.78.95 3.74 1.73 5.74 2.03 1.95.3 3.89.18 5.68-.7 1.84-.9 3.17-2.61 3.97-4.46 1.82-4.19 1.67-9.2-2.04-12.32-4.26-3.58-10.71-3.89-14.8.13-1.38 1.36.74 3.48 2.12 2.12z"/><path d="M40.04 43.31c-4.32 2.82-8.71 5.52-13.17 8.11l2.05 2.05.15-.28c.93-1.7-1.66-3.21-2.59-1.51l-.15.28c-.71 1.3.73 2.82 2.05 2.05 4.46-2.59 8.85-5.29 13.17-8.11 1.61-1.05.11-3.65-1.51-2.59h0z"/></g><use xlink:href="#B"/></svg>