<svg xmlns="http://www.w3.org/2000/svg" viewBox="0 0 381.28 380.33"><defs><style>.cls-1{fill:#e66869;}.cls-2{fill:#f0a4a5;}.cls-3{fill:#4386c6;}.cls-4{fill:#5cbfab;}.cls-5{fill:#f7c402;}</style></defs><title>Automata 1 prueba 4 nueva</title><g id="gráficos"><rect class="cls-1" x="4.14" y="3.67" width="373" height="373" rx="23.02" ry="23.02"/><path d="M354.12,375.17H33.62c-7.27,0-14.13.11-20.23-5-7.09-5.91-7.75-13.81-7.75-22.11V63.81c0-12.34-.38-24.75,0-37.09C6.06,13,17,5.17,29.81,5.17h278.9c14.84,0,29.68-.13,44.51,0,12.75.11,22.3,9.5,22.42,22.3.05,4.81,0,9.62,0,14.43V350.79c0,12.86-7.62,24-21.52,24.38-1.92.05-1.93,3.05,0,3,14.41-.44,24.44-11.7,24.52-25.81,0-5.5,0-11,0-16.51V71.74c0-14.81.15-29.62,0-44.43A24.94,24.94,0,0,0,354,2.17c-4-.09-8,0-12.05,0H29.62C18.24,2.17,7.78,7.5,3.92,18.89,2.25,23.81,2.64,29.14,2.64,34.26v314.1c0,7.22.37,14,5,20.15,5.85,7.69,14.43,9.66,23.47,9.66h323A1.5,1.5,0,0,0,354.12,375.17Z"/><rect class="cls-2" x="27.63" y="27.15" width="326.03" height="326.03" rx="23.02" ry="23.02"/><path d="M330.64,351.68H74.24c-12,0-30.23,2.95-39.27-6.77-8.71-9.38-5.84-27.11-5.84-38.93V152.58c0-34.08-1.06-68.34,0-102.41.41-13.42,11-21.52,23.74-21.52H293.44c12.23,0,24.5-.3,36.73,0,12.51.31,21.85,9.62,22,22.19,0,4.16,0,8.32,0,12.48V328.13c0,12.66-8.24,23.15-21.52,23.55-1.93.06-1.94,3.06,0,3,14-.42,24.37-11.28,24.52-25.19,0-4.31,0-8.62,0-12.93v-227c0-12.93.24-25.89,0-38.82-.27-13.81-10.58-24.68-24.53-25-3-.08-6,0-8.95,0h-269c-9.9,0-19.12,4.13-23.84,13.3-2.72,5.29-2.71,10.74-2.71,16.43V325.53c0,6.4.33,12.51,4,18.12,5.26,8,13.78,11,22.9,11H330.64A1.5,1.5,0,0,0,330.64,351.68Z"/><path d="M316.88,204.12l-37.5-73.89a1.51,1.51,0,0,0-2.59,0l-37.51,73.89a1.52,1.52,0,0,0,1.3,2.26h75a1.5,1.5,0,0,0,0-3h-75l1.29,2.25,37.51-73.89h-2.59l37.5,73.89C315.17,207.36,317.76,205.84,316.88,204.12Z"/><path d="M142,204.12l-37.5-73.89a1.51,1.51,0,0,0-2.59,0L64.39,204.12a1.52,1.52,0,0,0,1.3,2.26h75a1.5,1.5,0,0,0,0-3h-75L67,205.63l37.52-73.89h-2.59l37.5,73.89C140.29,207.36,142.88,205.84,142,204.12Z"/><path class="cls-3" d="M198.16,268V135.48a16.85,16.85,0,0,0,7.49-7.49h68l2.07-4.07a2.65,2.65,0,0,1,4.73,0l2.07,4.07h3.7a7.52,7.52,0,0,0,0-15H205.64a16.78,16.78,0,0,0-7.48-7.49V98.35a7.52,7.52,0,0,0-15,0v7.12a16.85,16.85,0,0,0-7.49,7.49H95.07a7.52,7.52,0,1,0,0,15h3.69l2.07-4.07a2.65,2.65,0,0,1,4.74,0l2.06,4.07h68a16.8,16.8,0,0,0,7.49,7.49V268Z"/><path d="M199.66,268V138.87c0-.69-.36-2.62,0-3.23-.35.59,3.49-1.85,3.9-2.25,1-1,1.64-2.37,2.63-3.29.23-.22-.79-.34-.24-.61,1.28-.63,4.51,0,5.9,0h61.8a1.48,1.48,0,0,0,1.29-.74c.38-.75,1.29-3.69,2.07-4.08,2.52-1.24,3.48,2.63,4.21,4.08a1.51,1.51,0,0,0,1.3.74c5.47,0,11.24-.82,12.54-7.26,1.17-5.78-3.35-10.39-8.86-10.77-6.21-.43-12.6,0-18.83,0H215.89c-2.79,0-6.37.6-9.11,0-1.71-.38,0-.09-.6-.61-1.6-1.5-2.3-3.62-4.34-4.81s-1.7-.32-2.18-1.87c-.66-2.13.26-4.91-.12-7.17a9,9,0,0,0-17.79,0c-.38,2.29.5,5-.12,7.17-.38,1.36-.26.8-1.88,1.64a12.71,12.71,0,0,0-4.21,4.41c-1.08,1.87.75.68-.91,1.24-1,.34-2.74,0-3.81,0H122.57c-9,0-18-.3-26.93,0-5.1.17-9.56,3.55-9.59,9,0,7.5,6.77,9,12.71,9a1.48,1.48,0,0,0,1.29-.74c.81-1.58,1.27-4.08,3.15-4.08s2.34,2.5,3.14,4.08a1.48,1.48,0,0,0,1.29.74h65.24c3.61,0,1.61.15,3.83,2.77a10.9,10.9,0,0,0,3.05,2.89c-1-.46,2.43,1.34,1.88.42.13.22-.06.73,0,1,1,3.87,0,9.2,0,13.17V268a1.52,1.52,0,0,0,1.5,1.5h15a1.5,1.5,0,0,0,0-3h-15l1.5,1.5V135.48a1.51,1.51,0,0,0-.74-1.3,17.13,17.13,0,0,1-7-7,1.52,1.52,0,0,0-1.29-.74H118.82c-3.37,0-7.85.8-11.17,0,1.6.38,1,.55.47-.86a11.16,11.16,0,0,0-1.2-2.36A4.42,4.42,0,0,0,103.6,121c-2.69-.27-5,2.54-5.52,5-.33,1.52.31.53-.28.46-.81-.09-1.65.08-2.46,0-6.71-.64-8.59-9.47-1.79-11.62a11,11,0,0,1,3.74-.41h78.35a1.52,1.52,0,0,0,1.29-.74,17.13,17.13,0,0,1,7-7,1.51,1.51,0,0,0,.74-1.3c0-4.73-1.21-13.14,6-13.13s6,8.42,6,13.13a1.53,1.53,0,0,0,.74,1.3,17.1,17.1,0,0,1,6.95,7,1.5,1.5,0,0,0,1.29.74h75c1.59,0,3.25-.13,4.83,0,.25,0,.51,0,.76,0,6.68.73,8.08,9.54,1.54,11.62-1.48.47-2,.2-3.37.41s-1.53-.55-.67.52c-.92-1.15-1.19-2.81-2.07-4-2-2.74-5.3-2.5-7.21.15a19.61,19.61,0,0,0-1.95,3.85c.48-1.19,1.72-.11.38-.52-1.57-.48-4.08,0-5.71,0H205.65a1.53,1.53,0,0,0-1.3.74,17,17,0,0,1-6.95,7,1.53,1.53,0,0,0-.74,1.3V268A1.5,1.5,0,0,0,199.66,268Z"/><path class="cls-4" d="M280.45,123.92a2.65,2.65,0,0,0-4.73,0L273.65,128l-38.42,75.68a2.59,2.59,0,0,0-.26,1.21h5.61L278.08,131l37.51,73.89h5.6a2.58,2.58,0,0,0-.25-1.21L282.52,128Z"/><path d="M281.51,122.86c-4.9-5.3-7.87,1.83-9.83,5.69L263.82,144,239.6,191.75c-2,4-5.15,8.32-6.07,12.73a1.52,1.52,0,0,0,1.44,1.9h5.61a1.47,1.47,0,0,0,1.29-.75l37.51-73.89h-2.59l37.5,73.89a1.49,1.49,0,0,0,1.3.75h5.6a1.53,1.53,0,0,0,1.45-1.9c-.66-3.1-2.67-6-4.09-8.82l-10-19.64L287.22,134l-5.48-10.79c-.87-1.72-3.46-.2-2.59,1.51q17.6,34.62,35.15,69.24c1.79,3.53,4.62,7.47,5.45,11.36l1.44-1.89a20.55,20.55,0,0,0-4.15,0c-1.63.36-1-.44-.17.7a.92.92,0,0,1-.16-.31,41.35,41.35,0,0,0-1.94-3.81l-8.56-16.86-21.55-42.47-5.28-10.4a1.51,1.51,0,0,0-2.59,0l-34.56,68.08c-.68,1.34-2.5,3.63-2.61,5.14-.09,1.27-.84-.12.76-.07-1.8,0-3.6,0-5.41,0l1.45,1.89c.67-3.18,2.89-6.33,4.36-9.23l10.05-19.79,21.1-41.56q1.31-2.59,2.63-5.19c.76-1.5,2.51-7,4.83-4.52C280.7,126.4,282.82,124.27,281.51,122.86Z"/><path class="cls-5" d="M240.58,204.88h-9a46.46,46.46,0,1,0,92.91,0h-84Z"/><path d="M240.58,203.38h-9a1.5,1.5,0,0,0-1.5,1.5c.38,26.12,21.54,48,48,48s47.57-21.84,48-48a1.52,1.52,0,0,0-1.5-1.5h-84a1.5,1.5,0,0,0,0,3h84l-1.5-1.5c-.36,24.47-20.18,45-45,45s-44.6-20.44-45-45l-1.5,1.5h9A1.5,1.5,0,0,0,240.58,203.38Z"/><path class="cls-4" d="M105.57,123.92a2.65,2.65,0,0,0-4.74,0L98.76,128,60.34,203.67a2.71,2.71,0,0,0-.25,1.21h5.6L103.2,131l37.51,73.89h5.6a2.7,2.7,0,0,0-.24-1.21L107.63,128Z"/><path d="M106.87,123.16c-4.5-5.83-8,1.21-9.89,5q-3.84,7.55-7.66,15.09L64.88,191.42c-2.06,4.05-5.3,8.55-6.23,13.06a1.52,1.52,0,0,0,1.44,1.9h5.6a1.47,1.47,0,0,0,1.29-.75l37.52-73.89h-2.59l37.5,73.89a1.49,1.49,0,0,0,1.3.75h5.6a1.53,1.53,0,0,0,1.45-1.9c-.64-3.1-2.67-6-4.09-8.82L133.7,176,112.34,134q-2.75-5.38-5.47-10.79c-.87-1.72-3.46-.21-2.59,1.51q17.52,34.65,35.15,69.24c1.79,3.52,4.64,7.48,5.44,11.36l1.44-1.89a20.55,20.55,0,0,0-4.15,0c-1.63.36-1-.44-.18.7a1.11,1.11,0,0,1-.15-.31,41.35,41.35,0,0,0-1.94-3.81l-8.56-16.86-21.55-42.47-5.28-10.4a1.51,1.51,0,0,0-2.59,0L67.34,198.31c-.68,1.34-2.5,3.63-2.61,5.14-.09,1.27-.84-.12.76-.07-1.79,0-3.6,0-5.4,0l1.45,1.89c.66-3.18,2.89-6.34,4.36-9.23l10-19.79L97,134.69q1.32-2.59,2.63-5.19c.6-1.17,2.88-7.06,4.61-4.83C105.44,126.18,108.05,124.69,106.87,123.16Z"/><path class="cls-5" d="M65.69,204.88H56.74a46.46,46.46,0,1,0,92.92,0h-84Z"/><path d="M65.69,203.38H56.74a1.52,1.52,0,0,0-1.5,1.5c.38,26.12,21.55,48,48,48s47.58-21.84,48-48a1.52,1.52,0,0,0-1.5-1.5h-84a1.5,1.5,0,0,0,0,3h84l-1.5-1.5c-.36,24.47-20.18,45-45,45s-44.6-20.44-45-45l-1.5,1.5h8.95A1.5,1.5,0,0,0,65.69,203.38Z"/><polygon class="cls-3" points="198.16 268.04 183.13 268.04 143.27 268.04 143.27 278.77 119.08 278.77 119.08 289.5 261.79 289.5 261.79 278.77 237.6 278.77 237.6 268.04 198.16 268.04"/><path d="M198.16,266.54H143.27a1.52,1.52,0,0,0-1.5,1.5v10.73l1.5-1.5H119.08a1.52,1.52,0,0,0-1.5,1.5V289.5a1.52,1.52,0,0,0,1.5,1.5H261.79a1.52,1.52,0,0,0,1.5-1.5V278.77a1.52,1.52,0,0,0-1.5-1.5H237.6l1.5,1.5V268a1.52,1.52,0,0,0-1.5-1.5H198.16a1.5,1.5,0,0,0,0,3H237.6l-1.5-1.5v10.73a1.52,1.52,0,0,0,1.5,1.5h24.19l-1.5-1.5V289.5l1.5-1.5H119.08l1.5,1.5V278.77l-1.5,1.5h24.19a1.52,1.52,0,0,0,1.5-1.5V268l-1.5,1.5h54.89A1.5,1.5,0,0,0,198.16,266.54Z"/></g></svg>