<?xml version="1.0" encoding="utf-8"?>
<!-- Generator: Adobe Illustrator 24.2.0, SVG Export Plug-In . SVG Version: 6.00 Build 0)  -->
<svg version="1.1" id="Layer_1" xmlns="http://www.w3.org/2000/svg" xmlns:xlink="http://www.w3.org/1999/xlink"  x="0px" y="0px"
	 viewBox="0 0 69 68" style="enable-background:new 0 0 69 68;" xml:space="preserve">
<style type="text/css">
	.st0{fill:#F9C62B;stroke:#FFFFFF;stroke-width:7.0017;stroke-linecap:round;stroke-linejoin:round;stroke-miterlimit:10;}
	.st1{stroke:#FFFFFF;stroke-width:7.0017;stroke-linecap:round;stroke-linejoin:round;stroke-miterlimit:10;}
	.st2{fill:#F9C62B;}
</style>
<g>
	<g>
		<circle class="st0" cx="16.3" cy="12" r="6.7"/>
		<path class="st1" d="M21.5,12c0,2.1-1.4,4.2-3.3,4.9c-2.1,0.7-4.6,0.2-6-1.6c-1.4-1.6-1.4-4-0.4-6c1.1-1.8,3.3-2.8,5.4-2.5
			C19.6,7.3,21.3,9.4,21.5,12c0,1.9,3,1.9,3,0c0-3.5-2.1-6.5-5.4-7.7c-3.2-1.2-7-0.2-9.1,2.5s-2.6,6.5-0.7,9.5
			c1.8,3,5.3,4.4,8.6,3.9c3.9-0.7,6.5-4.2,6.7-8.1C24.5,10.1,21.5,10.1,21.5,12z"/>
	</g>
	<g>
		<circle class="st0" cx="39.4" cy="50.5" r="8.2"/>
		<path class="st1" d="M46,50.5c0,2.8-1.8,5.3-4.4,6.3c-2.6,1.1-5.8,0.2-7.5-2.1c-1.8-2.1-1.9-5.3-0.5-7.5c1.4-2.3,4.2-3.7,6.8-3.2
			C43.7,44.4,46,47.2,46,50.5c0,1.9,3,1.9,3,0c0-4-2.6-7.5-6.3-9.1C39,40,34.5,41.2,32,44.2c-2.6,3.2-3,7.5-0.9,11s6.1,5.3,10.2,4.6
			c4.6-0.9,7.7-4.9,7.7-9.5C49,48.6,46,48.6,46,50.5z"/>
	</g>
	<g>
		<path class="st0" d="M13.8,54.4c0.5-4.9-0.5-9.8-1.6-14.5c-0.5-2.3-0.9-4.4-1.4-6.7c-0.7-3.3-1.4-6.8-1.1-10.2
			c0.4-3.3,1.8-6.8,4.7-8.8c2.6-1.8,6-3.5,9.1-3.5c1.9,0,5.3,1.1,7,1.4c4.7,1.2,7.4,5.4,10.7,8.9c3.3,3.5,6.8,7.4,11.2,9.3
			L13.8,54.4z"/>
		<path class="st1" d="M15.4,54.4c0.5-6.3-1.1-12.6-2.3-18.7c-1.1-5.4-3.2-12.1-0.2-17.3c1.4-2.3,3.7-3.7,6-4.9
			c2.5-1.2,4.9-1.4,7.5-0.7c2.3,0.5,4.7,0.9,6.7,2.1c2.1,1.4,3.7,3.3,5.3,5.1c3.9,4.4,8.2,9.3,13.7,11.7c0-0.9,0-1.8,0-2.6
			c-4.4,2.6-8.8,5.4-13.1,8.1c-7,4.2-14,8.6-20.8,12.8c-1.6,1.1-3.2,1.9-4.9,3c-1.6,1.1-0.2,3.5,1.6,2.6c4.4-2.6,8.8-5.4,13.1-8.1
			c7-4.2,14-8.6,20.8-12.8c1.6-1.1,3.2-1.9,4.9-3c0.9-0.5,1.1-2.1,0-2.6c-5.3-2.5-9.5-7.2-13.1-11.4c-1.8-1.9-3.5-3.9-5.6-5.4
			c-2.1-1.4-4.7-1.9-7.4-2.5C24.8,9,22.2,9,19.6,9.9s-5.8,2.5-7.7,4.6C7.7,19,8,25.5,9.1,31.1c1.4,7.5,3.9,15.2,3.3,23.1
			C12.2,56.1,15.2,56.1,15.4,54.4z"/>
	</g>
	<g>
		<path class="st0" d="M36,51.2l4.6-2.6l1.6-0.9l18-10.5c0.7-0.4,0.9-1.2,0.5-1.8l-4.4-6.3c-0.2-0.4-0.5-0.5-0.9-0.5
			c-0.4-0.2-0.7,0-1.1,0.2l-1.8,1.1l-39,22.6L10.8,54c-0.4,0.2-0.5,0.5-0.5,0.9c-0.2,0.4,0,0.7,0.2,1.1l4.4,6.3
			c0.2,0.4,0.5,0.5,0.9,0.5c0.4,0,0.7,0,1.1-0.2l18-10.5L36,51.2z"/>
		<path class="st1" d="M36.7,52.6c7.5-4.4,15.1-8.8,22.6-13.1c0.5-0.4,0.9-0.5,1.4-0.9c1.4-0.9,1.8-2.5,1.1-3.9
			c-1.1-1.9-2.6-3.9-4-5.8c-0.9-1.2-1.9-2.3-3.5-1.9c-0.9,0.2-1.6,0.9-2.5,1.2c-0.7,0.5-1.6,0.9-2.3,1.4
			c-9.3,5.4-18.4,10.7-27.7,16.1c-3,1.8-6,3.5-8.9,5.1c-1.4,0.9-3.7,1.6-4.2,3.3c-0.4,1.2,0.4,2.3,1.1,3.2c0.9,1.2,1.6,2.3,2.5,3.5
			c0.5,0.7,1.1,1.6,1.6,2.3c1.1,1.1,2.5,1.1,3.7,0.5c1.8-0.9,3.3-1.9,4.9-2.8c4.2-2.5,8.4-4.9,12.6-7.4
			C35.7,53.2,36.2,52.8,36.7,52.6c1.6-0.9,0.2-3.5-1.6-2.6c-3.2,1.9-6.3,3.7-9.5,5.6c-2.3,1.4-4.6,2.6-7,4c-0.7,0.4-1.4,0.9-2.3,1.2
			c-0.2,0.2-0.5,0.2-0.5,0.4c-0.2,0.2-0.2,0,0,0.2c-0.5-0.7-1.1-1.4-1.6-2.1c-0.7-1.1-1.4-2.1-2.3-3.3c-0.2-0.4-0.4-0.5-0.5-0.9
			c-0.2-0.2,0,0.2-0.2,0.2c0.2-0.2,0.4-0.2,0.4-0.2c0.7-0.5,1.6-0.9,2.3-1.4c2.3-1.2,4.4-2.6,6.7-3.9c9.1-5.3,18.2-10.5,27.1-15.8
			c2.1-1.2,4-2.3,6.1-3.5c0.2-0.2,0.5-0.4,0.7-0.4c0.2,0-0.2,0-0.2-0.2c0.2,0.2,0.4,0.5,0.5,0.9c0.7,1.1,1.4,2.1,2.3,3.2
			c0.5,0.7,1.2,1.4,1.6,2.3c0,0,0.2-0.2,0-0.2c-0.2,0.2-0.4,0.2-0.5,0.4c-7,4-14,8.2-21,12.3c-0.9,0.5-1.6,0.9-2.5,1.4
			C33.6,50.9,35.2,53.5,36.7,52.6z"/>
	</g>
</g>
<g>
	<g>
		<circle class="st2" cx="16.3" cy="12" r="6.7"/>
		<path d="M21.5,12c0,2.1-1.4,4.2-3.3,4.9c-2.1,0.7-4.6,0.2-6-1.6c-1.4-1.6-1.4-4-0.4-6c1.1-1.8,3.3-2.8,5.4-2.5
			C19.6,7.3,21.3,9.4,21.5,12c0,1.9,3,1.9,3,0c0-3.5-2.1-6.5-5.4-7.7c-3.2-1.2-7-0.2-9.1,2.5s-2.6,6.5-0.7,9.5
			c1.8,3,5.3,4.4,8.6,3.9c3.9-0.7,6.5-4.2,6.7-8.1C24.5,10.1,21.5,10.1,21.5,12z"/>
	</g>
	<g>
		<circle class="st2" cx="39.4" cy="50.5" r="8.2"/>
		<path d="M46,50.5c0,2.8-1.8,5.3-4.4,6.3c-2.6,1.1-5.8,0.2-7.5-2.1c-1.8-2.1-1.9-5.3-0.5-7.5c1.4-2.3,4.2-3.7,6.8-3.2
			C43.7,44.4,46,47.2,46,50.5c0,1.9,3,1.9,3,0c0-4-2.6-7.5-6.3-9.1C39,40,34.5,41.2,32,44.2c-2.6,3.2-3,7.5-0.9,11s6.1,5.3,10.2,4.6
			c4.6-0.9,7.7-4.9,7.7-9.5C49,48.6,46,48.6,46,50.5z"/>
	</g>
	<g>
		<path class="st2" d="M13.8,54.4c0.5-4.9-0.5-9.8-1.6-14.5c-0.5-2.3-0.9-4.4-1.4-6.7c-0.7-3.3-1.4-6.8-1.1-10.2
			c0.4-3.3,1.8-6.8,4.7-8.8c2.6-1.8,6-3.5,9.1-3.5c1.9,0,5.3,1.1,7,1.4c4.7,1.2,7.4,5.4,10.7,8.9c3.3,3.5,6.8,7.4,11.2,9.3
			L13.8,54.4z"/>
		<path d="M15.4,54.4c0.5-6.3-1.1-12.6-2.3-18.7c-1.1-5.4-3.2-12.1-0.2-17.3c1.4-2.3,3.7-3.7,6-4.9c2.5-1.2,4.9-1.4,7.5-0.7
			c2.3,0.5,4.7,0.9,6.7,2.1c2.1,1.4,3.7,3.3,5.3,5.1c3.9,4.4,8.2,9.3,13.7,11.7c0-0.9,0-1.8,0-2.6c-4.4,2.6-8.8,5.4-13.1,8.1
			c-7,4.2-14,8.6-20.8,12.8c-1.6,1.1-3.2,1.9-4.9,3c-1.6,1.1-0.2,3.5,1.6,2.6c4.4-2.6,8.8-5.4,13.1-8.1c7-4.2,14-8.6,20.8-12.8
			c1.6-1.1,3.2-1.9,4.9-3c0.9-0.5,1.1-2.1,0-2.6c-5.3-2.5-9.5-7.2-13.1-11.4c-1.8-1.9-3.5-3.9-5.6-5.4c-2.1-1.4-4.7-1.9-7.4-2.5
			C24.8,9,22.2,9,19.6,9.9s-5.8,2.5-7.7,4.6C7.7,19,8,25.5,9.1,31.1c1.4,7.5,3.9,15.2,3.3,23.1C12.2,56.1,15.2,56.1,15.4,54.4z"/>
	</g>
	<g>
		<path class="st2" d="M36,51.2l4.6-2.6l1.6-0.9l18-10.5c0.7-0.4,0.9-1.2,0.5-1.8l-4.4-6.3c-0.2-0.4-0.5-0.5-0.9-0.5
			c-0.4-0.2-0.7,0-1.1,0.2l-1.8,1.1l-39,22.6L10.8,54c-0.4,0.2-0.5,0.5-0.5,0.9c-0.2,0.4,0,0.7,0.2,1.1l4.4,6.3
			c0.2,0.4,0.5,0.5,0.9,0.5c0.4,0,0.7,0,1.1-0.2l18-10.5L36,51.2z"/>
		<path d="M36.7,52.6c7.5-4.4,15.1-8.8,22.6-13.1c0.5-0.4,0.9-0.5,1.4-0.9c1.4-0.9,1.8-2.5,1.1-3.9c-1.1-1.9-2.6-3.9-4-5.8
			c-0.9-1.2-1.9-2.3-3.5-1.9c-0.9,0.2-1.6,0.9-2.5,1.2c-0.7,0.5-1.6,0.9-2.3,1.4c-9.3,5.4-18.4,10.7-27.7,16.1c-3,1.8-6,3.5-8.9,5.1
			c-1.4,0.9-3.7,1.6-4.2,3.3c-0.4,1.2,0.4,2.3,1.1,3.2c0.9,1.2,1.6,2.3,2.5,3.5c0.5,0.7,1.1,1.6,1.6,2.3c1.1,1.1,2.5,1.1,3.7,0.5
			c1.8-0.9,3.3-1.9,4.9-2.8c4.2-2.5,8.4-4.9,12.6-7.4C35.7,53.2,36.2,52.8,36.7,52.6c1.6-0.9,0.2-3.5-1.6-2.6
			c-3.2,1.9-6.3,3.7-9.5,5.6c-2.3,1.4-4.6,2.6-7,4c-0.7,0.4-1.4,0.9-2.3,1.2c-0.2,0.2-0.5,0.2-0.5,0.4c-0.2,0.2-0.2,0,0,0.2
			c-0.5-0.7-1.1-1.4-1.6-2.1c-0.7-1.1-1.4-2.1-2.3-3.3c-0.2-0.4-0.4-0.5-0.5-0.9c-0.2-0.2,0,0.2-0.2,0.2c0.2-0.2,0.4-0.2,0.4-0.2
			c0.7-0.5,1.6-0.9,2.3-1.4c2.3-1.2,4.4-2.6,6.7-3.9c9.1-5.3,18.2-10.5,27.1-15.8c2.1-1.2,4-2.3,6.1-3.5c0.2-0.2,0.5-0.4,0.7-0.4
			c0.2,0-0.2,0-0.2-0.2c0.2,0.2,0.4,0.5,0.5,0.9c0.7,1.1,1.4,2.1,2.3,3.2c0.5,0.7,1.2,1.4,1.6,2.3c0,0,0.2-0.2,0-0.2
			c-0.2,0.2-0.4,0.2-0.5,0.4c-7,4-14,8.2-21,12.3c-0.9,0.5-1.6,0.9-2.5,1.4C33.6,50.9,35.2,53.5,36.7,52.6z"/>
	</g>
</g>
</svg>
