<?xml version="1.0" encoding="utf-8"?>
<!-- Generator: Adobe Illustrator 24.2.0, SVG Export Plug-In . SVG Version: 6.00 Build 0)  -->
<svg version="1.1" id="Layer_1" xmlns="http://www.w3.org/2000/svg" xmlns:xlink="http://www.w3.org/1999/xlink" x="0px" y="0px"
	 viewBox="0 0 431 190" style="enable-background:new 0 0 431 190;" xml:space="preserve">
<style type="text/css">
	.st0{fill:#D0D0D0;}
	.st1{clip-path:url(#SVGID_2_);}
	.st2{fill:#F2F2F2;}
	.st3{fill:#333333;}
	.st4{fill:#AFAFAF;}
	.st5{fill:#4F4F4F;}
	.st6{fill:#D8D8D8;}
	.st7{fill:#FFFFFF;}
	.st8{fill:#5F5F5F;}
	.st9{fill:#8F8F8F;}
	.st10{fill:#7DC4CA;}
</style>
<g>
	<path class="st0" d="M406.7,182.1H24.5c-9.6,0-17.4-7.8-17.4-17.4V26.5c0-9.6,7.8-17.4,17.4-17.4h382.2c9.6,0,17.4,7.8,17.4,17.4
		v138.2C424.1,174.3,416.3,182.1,406.7,182.1z"/>
</g>
<g>
	<defs>
		<path id="SVGID_1_" d="M406.7,182.1H24.5c-9.6,0-17.4-7.8-17.4-17.4V26.5c0-9.6,7.8-17.4,17.4-17.4h382.2
			c9.6,0,17.4,7.8,17.4,17.4v138.2C424.1,174.3,416.3,182.1,406.7,182.1z"/>
	</defs>
	<clipPath id="SVGID_2_">
		<use xlink:href="#SVGID_1_"  style="overflow:visible;"/>
	</clipPath>
	<g class="st1">
		<g>
			<path class="st2" d="M296.6-21.9c-3.2,10.2-15,32.7-20.6,43c-7-2.9-11.9-2.7-17.3-5.3c-2.5,9.1-5.1,18.3-7.6,27.4
				c-2.6-7.1-3.7-14.7-4.7-22.2c-1.2-8.8-2.4-17.7-3.6-26.5c6.5,1,12.8,2.9,18.7,5.7c-0.2-6.4-0.6-37.1-0.8-43.4
				C269.1-39.8,290.1-28.4,296.6-21.9"/>
			<g>
				<path class="st3" d="M295.1-22.3c-1.7,5.5-4.2,10.7-6.7,15.8c-3,6.2-6.1,12.4-9.3,18.5c-1.4,2.8-2.9,5.5-4.4,8.2
					c0.6-0.2,1.1-0.5,1.7-0.7c-2.9-1.2-6-2-9-2.7c-2.7-0.6-5.4-1.3-7.9-2.5c-0.9-0.4-1.9-0.1-2.2,0.9c-2.5,9.1-5.1,18.3-7.6,27.4
					c1,0,1.9,0,2.9,0c-2.8-7.6-3.8-15.5-4.9-23.5c-1.1-8.4-2.3-16.9-3.4-25.3c-0.6,0.6-1.2,1.2-1.8,1.8c6.3,1,12.5,2.8,18.4,5.5
					c1,0.5,2.3-0.1,2.3-1.3c-0.4-12-0.4-24.1-0.7-36.1c0-2.4-0.1-4.9-0.2-7.3c-0.8,0.4-1.5,0.9-2.3,1.3c4.7,2,9.3,4.4,13.8,6.9
					c5.4,3,10.7,6.1,15.8,9.6c2.1,1.4,4.2,3,6,4.8c1.4,1.4,3.5-0.8,2.1-2.1c-3.7-3.7-8.3-6.5-12.7-9.2c-5.3-3.3-10.7-6.3-16.3-9.1
					c-2.4-1.2-4.7-2.4-7.2-3.4c-1-0.4-2.3,0-2.3,1.3c0.4,12,0.4,24.1,0.7,36.1c0,2.4,0.1,4.9,0.2,7.3c0.8-0.4,1.5-0.9,2.3-1.3
					c-6.1-2.8-12.5-4.8-19.1-5.8c-1.2-0.2-2,0.6-1.8,1.8c1.1,8.4,2.3,16.9,3.4,25.3c1.1,7.9,2.1,15.9,4.9,23.5
					c0.5,1.3,2.5,1.5,2.9,0c2.5-9.1,5.1-18.3,7.6-27.4c-0.7,0.3-1.5,0.6-2.2,0.9c5.6,2.7,11.9,3.2,17.6,5.5c0.6,0.2,1.4-0.2,1.7-0.7
					c6.2-11.4,12.3-23,17.5-34.9c1.2-2.8,2.4-5.6,3.3-8.4C298.6-23.4,295.7-24.2,295.1-22.3L295.1-22.3z"/>
			</g>
		</g>
		<g>
			<path class="st2" d="M54.1,158.3c14-0.3,46.5-6.6,61.4-9.8c-1-9.8,1.1-15.8-0.3-23.6c12.4,0.2,24.8,0.4,37.2,0.7
				c-7.9-5.9-17.1-10.1-26.1-14.1c-10.6-4.8-21.2-9.6-31.9-14.4c-1.2,8.5-1.1,17.1,0.1,25.5c-7.9-2.6-46.2-14.5-54-17.2
				C41.9,117.3,48.4,147.8,54.1,158.3"/>
			<g>
				<path class="st3" d="M54.1,159.8c7.7-0.2,15.3-1.4,22.9-2.6c9-1.4,18-3.1,26.9-4.8c4-0.8,8.1-1.6,12.1-2.5
					c0.6-0.1,1.2-0.8,1.1-1.4c-0.8-8,1-16-0.3-24c-0.5,0.6-1,1.3-1.4,1.9c12.4,0.2,24.8,0.4,37.2,0.7c1.6,0,1.9-2,0.8-2.8
					c-6.4-4.8-13.5-8.4-20.8-11.7c-7.8-3.6-15.7-7.1-23.6-10.6c-4.6-2.1-9.1-4.1-13.7-6.2c-0.8-0.3-2.1-0.2-2.2,0.9
					c-1.2,8.8-1.2,17.6,0.1,26.3c0.6-0.6,1.2-1.2,1.8-1.8c-15-5-30.1-9.5-45.1-14.3c-3-0.9-6-1.9-9-2.9c-0.9-0.3-2,0.5-1.9,1.4
					c0.8,6.9,2.1,13.6,3.6,20.4c1.7,7.9,3.7,15.8,6.2,23.5c1.1,3.3,2.3,6.6,3.9,9.7c0.9,1.7,3.5,0.2,2.6-1.5
					c-3.1-5.8-4.9-12.5-6.6-18.8c-2.1-7.7-3.8-15.5-5.2-23.4c-0.6-3.3-1.2-6.6-1.5-9.9c-0.6,0.5-1.3,1-1.9,1.4
					c15,5,30.1,9.5,45.1,14.3c3,0.9,6,1.9,9,2.9c1.2,0.4,2-0.8,1.8-1.8c-1.2-8.2-1.3-16.6-0.1-24.7c-0.7,0.3-1.5,0.6-2.2,0.9
					c8,3.6,16.1,7.2,24.1,10.9c7.5,3.4,15.1,6.6,22.4,10.5c4,2.1,7.8,4.5,11.4,7.1c0.3-0.9,0.5-1.9,0.8-2.8
					c-12.4-0.2-24.8-0.4-37.2-0.7c-1.1,0-1.6,1-1.4,1.9c0.6,3.6,0.4,7.2,0.2,10.8c-0.2,4.1-0.4,8.3,0,12.4c0.4-0.5,0.7-1,1.1-1.4
					c-16.3,3.5-32.8,6.8-49.4,8.8c-3.9,0.5-7.7,0.9-11.6,1C52.2,156.8,52.2,159.8,54.1,159.8L54.1,159.8z"/>
			</g>
		</g>
		<g>
			<path class="st4" d="M91.4,54.3c9,5.9,32.3,15.9,43.1,20.4c3.6-6.6,7.5-9.5,10-15c7.7,5.5,15.5,11,23.2,16.5
				c-2.4-7.2-6.4-13.7-10.4-20.2c-4.6-7.6-9.3-15.2-13.9-22.9c-4.4,4.8-8.1,10.3-11,16.2c-3.8-5.1-22.9-29.2-26.7-34.2
				C101.4,23.1,92.3,45.2,91.4,54.3"/>
			<g>
				<path d="M90.6,55.6c4.9,3.2,10.3,5.7,15.5,8.3c6.3,3,12.7,5.8,19.1,8.6c2.9,1.3,5.9,2.5,8.8,3.7c0.6,0.2,1.4-0.2,1.7-0.7
					c2.9-5.3,7.5-9.5,10-15c-0.7,0.2-1.4,0.4-2.1,0.5c7.7,5.5,15.5,11,23.2,16.5c1.1,0.7,2.6-0.5,2.2-1.7
					c-2.6-7.6-6.8-14.4-10.9-21.2c-4.5-7.4-9-14.8-13.6-22.2c-0.5-0.8-1.7-1-2.4-0.3c-4.5,5-8.3,10.5-11.2,16.5c0.9,0,1.7,0,2.6,0
					c-7.3-9.6-14.9-19.1-22.4-28.6c-1.5-1.9-3-3.8-4.4-5.6c-0.6-0.8-2-1.1-2.6,0c-2.5,4.7-4.6,9.6-6.6,14.5
					c-2.3,5.7-4.5,11.6-6.2,17.5c-0.7,2.6-1.4,5.2-1.7,8c-0.2,1.9,2.8,1.9,3,0c0.5-5,2.4-10,4-14.7c2-5.7,4.2-11.3,6.7-16.8
					c1.1-2.4,2.2-4.7,3.4-7c-0.9,0-1.7,0-2.6,0c7.3,9.6,14.9,19.1,22.4,28.6c1.5,1.9,3,3.8,4.4,5.6c0.6,0.8,2,1.1,2.6,0
					c2.8-5.8,6.4-11.1,10.7-15.9c-0.8-0.1-1.6-0.2-2.4-0.3c4.4,7.3,8.9,14.5,13.3,21.8c4.1,6.7,8.3,13.5,10.9,20.9
					c0.7-0.6,1.5-1.1,2.2-1.7c-7.7-5.5-15.5-11-23.2-16.5c-0.6-0.4-1.7-0.1-2.1,0.5c-2.6,5.5-7.1,9.7-10,15c0.6-0.2,1.1-0.5,1.7-0.7
					c-11.9-4.9-23.7-10-35.1-15.9c-2.6-1.4-5.2-2.8-7.7-4.4C90.5,51.9,89,54.5,90.6,55.6L90.6,55.6z"/>
			</g>
		</g>
		<g>
			<path class="st2" d="M372.5,158.9c-9-4.7-18.2-9.2-27.6-13.3c4-4.6,8.4-8.9,13.2-12.8c-8.2-3.9-9.4-7.7-17.5-11.6
				c7.1-1.3,10.9,0,18.1,0.3c8.5,0.4,13.6-0.4,22.1,0c-2,5.9-4.9,11.5-8.4,16.6c6,0.9,12,1.7,18,2.6c-4.7,7.3-10.9,13.7-18.1,18.6"
				/>
			<g>
				<path class="st3" d="M373.3,157.6c-9-4.7-18.2-9.2-27.6-13.3c0.1,0.8,0.2,1.6,0.3,2.4c4-4.6,8.5-8.9,13.2-12.8
					c0.7-0.6,0.5-2-0.3-2.4c-6.4-3.1-11.1-8.5-17.5-11.6c-0.1,0.9-0.2,1.8-0.4,2.7c6.5-1.1,13,0.2,19.6,0.4
					c6.7,0.2,13.5-0.3,20.2-0.1c-0.5-0.6-1-1.3-1.4-1.9c-2,5.8-4.8,11.2-8.3,16.3c-0.5,0.7,0,2.1,0.9,2.2c6,0.9,12,1.7,18,2.6
					c-0.3-0.7-0.6-1.5-0.9-2.2c-4.6,7.1-10.6,13.2-17.5,18.1c-1.6,1.1-0.1,3.7,1.5,2.6c7.4-5.2,13.7-11.6,18.6-19.2
					c0.5-0.7,0-2.1-0.9-2.2c-6-0.9-12-1.7-18-2.6c0.3,0.7,0.6,1.5,0.9,2.2c3.7-5.2,6.5-10.9,8.6-17c0.3-1-0.5-1.9-1.4-1.9
					c-6.9-0.3-13.8,0.3-20.7,0c-3.3-0.1-6.6-0.5-10-0.7c-3.3-0.3-6.6-0.1-9.9,0.5c-1.2,0.2-1.5,2.2-0.4,2.7
					c6.4,3.1,11.1,8.5,17.5,11.6c-0.1-0.8-0.2-1.6-0.3-2.4c-4.7,3.9-9.2,8.2-13.2,12.8c-0.6,0.6-0.6,1.9,0.3,2.4
					c9.3,4.1,18.5,8.5,27.6,13.3C373.5,161.1,375,158.5,373.3,157.6L373.3,157.6z"/>
			</g>
		</g>
		<g>
			<g>
				<path class="st0" d="M171.1,201.5c23.1-26.8,31.1-54.5,29.5-89.9c-1.5-35.4-17-70-42.3-94.7c-1.2-5.6,6.1-9.7,11.6-8.4
					s9.6,5.9,14.1,9.4c10.6,8.2,24.3,11,36.2,17c13.7,6.9,25,18.2,32.9,31.3c14.4,23.7,17.8,53.8,9.1,80.2
					c-8.7,26.3-29.4,48.5-55.2,58.9c-7.3,2.9-14.9,5-21.7,9s-12.7,10.4-13.5,18.2c-5.1,2.3-11-3.1-11.4-8.7
					c-0.4-5.6,2.8-10.8,5.8-15.5c1.5-2.3,2.9-4.5,4.4-6.8"/>
				<g>
					<path d="M172.2,202.5c11-12.8,19.8-27.3,24.7-43.5c5-16.2,6.2-33.5,5.1-50.3c-1.1-17.8-5.7-35.3-13.3-51.5
						c-3.8-8.1-8.3-15.8-13.5-23c-2.6-3.6-5.4-7.1-8.3-10.5c-1.5-1.7-3-3.3-4.5-4.9c-0.7-0.8-1.5-1.5-2.3-2.3
						c-0.5-0.5-0.5-1-0.3-1.9c0.8-3.1,4.7-4.8,7.6-4.9c4.2-0.1,7.9,2.8,10.9,5.4c3.5,2.9,6.9,5.7,10.8,8c4,2.3,8.2,4,12.5,5.7
						c8.5,3.4,17.1,6.4,24.8,11.4c7.4,4.9,14,11.1,19.4,18.1c11.2,14.3,17.8,32,19.3,50.1c1.4,17.7-2,35.7-10.3,51.4
						c-7.7,14.7-19.3,27.3-33.2,36.2c-3.5,2.2-7.1,4.2-10.9,6c-4.2,2-8.6,3.5-13,5.1c-8.6,3.1-17.2,6.9-22.9,14.4
						c-2.5,3.2-4,7-4.5,11c0.2-0.4,0.5-0.9,0.7-1.3c-2.5,1-5.1-0.4-6.8-2.2c-2-2.2-2.7-5.1-2.3-8c0.5-3.4,2.1-6.5,3.9-9.4
						c1.9-3.2,4-6.3,6-9.4c1.1-1.6-1.5-3.1-2.6-1.5c-2.4,3.7-5,7.4-7.1,11.3c-2,3.5-3.5,7.4-3.3,11.5c0.4,6.6,6.9,13,13.7,10.2
						c0.5-0.2,0.7-0.8,0.7-1.3c1-8.9,8.8-15.2,16.3-18.8c4.6-2.2,9.4-3.8,14.1-5.6c4.1-1.5,8.2-3.3,12.1-5.3
						c14.8-7.8,27.6-19.5,36.8-33.5c9.7-14.8,15.1-32,15.7-49.7c0.6-18.5-4-37.1-13.4-53.1c-9.2-15.6-22.7-28.2-39.4-35.4
						c-8.6-3.7-17.6-6.3-25.7-11.1c-4-2.3-7.3-5.4-10.9-8.2c-3.2-2.5-7-5.1-11.3-5.1c-3.4,0-7.1,1.5-9.3,4.2c-1.1,1.4-1.8,3-1.8,4.7
						c0,1,0.2,1.8,0.9,2.5c0.8,0.9,1.7,1.7,2.6,2.6c6.2,6.5,11.8,13.6,16.7,21.1c9.8,15.2,16.6,32.2,20,49.9
						c1.7,8.9,2.5,18,2.5,27.1c0,8.6-0.5,17.3-2.1,25.8c-2.9,16.4-9.5,31.7-19.1,45.3c-2.5,3.6-5.3,7-8.1,10.4
						C168.8,201.9,170.9,204,172.2,202.5L172.2,202.5z"/>
				</g>
			</g>
			<g>
				<g>
					<path d="M163.1,14.2c4.8,4.1,9.5,8.1,14.3,12.2c1.2,1,3.1,1.3,4.2,0c1.2-1.3,1-2.9,0-4.2c-3.3-4.2-7.1-7.9-11.4-11.1
						c-0.5,1.9-1,3.7-1.5,5.6c0.3,0,0.7,0,1,0.1c-0.7-0.2,0,0,0.2,0c0.6,0.1,1.1,0.3,1.6,0.5c0.3,0.1,0.3,0.1,0,0
						c0.1,0.1,0.3,0.1,0.4,0.2c0.2,0.1,0.4,0.2,0.6,0.3c0.5,0.3,1.1,0.6,1.6,1c0.1,0.1,0.8,0.6,0.3,0.2c0.2,0.2,0.5,0.4,0.7,0.6
						c0.5,0.4,0.9,0.8,1.3,1.2c0.9,0.8,1.7,1.7,2.6,2.6c1.1,1.1,3.2,1.2,4.2,0c1.1-1.2,1.1-3,0-4.2c-3.9-4.1-8.5-8.3-14.5-8.4
						c-1.3,0-2.6,0.9-2.9,2.2c-0.3,1.4,0.3,2.5,1.4,3.4c0.2,0.1,0.3,0.2,0.4,0.3c-0.2-0.2-0.2-0.2-0.1,0c0.3,0.2,0.5,0.4,0.8,0.6
						c0.4,0.4,0.9,0.7,1.3,1.1c1,0.8,1.9,1.7,2.8,2.6c1.8,1.8,3.4,3.6,4.9,5.6c1.4-1.4,2.8-2.8,4.2-4.2c-4.8-4.1-9.5-8.1-14.3-12.2
						c-1.2-1-3.1-1.3-4.2,0C162.1,11,161.8,13.1,163.1,14.2L163.1,14.2z"/>
				</g>
			</g>
			<g>
				<path class="st5" d="M196.9,103.4c-1.9,6.4-6.3,12.4-12.4,16.5c6.7,2.3,9.9,9.3,9.4,15.9s-3.9,13.1-7.2,19.3
					c11.7,2,22.7,6.1,32.3,11.8c1.2,0.7,2.7,1.4,4,0.7c1.1-0.6,1.5-1.8,1.7-2.9c3.3-17,3.7-34.2,1.4-50.8"/>
				<g>
					<path d="M195.4,103c-1.9,6.4-6.2,11.8-11.7,15.6c-1.1,0.8-0.9,2.3,0.4,2.7c5.3,1.9,8.2,7.2,8.3,12.6c0.2,7.3-3.7,14.2-7.1,20.4
						c-0.4,0.8-0.1,2,0.9,2.2c6.2,1.1,12.3,2.7,18.2,5c2.8,1.1,5.6,2.3,8.3,3.6c1.3,0.6,2.6,1.3,3.8,2c1.2,0.7,2.4,1.5,3.8,2
						c2.7,0.8,4.9-0.8,5.6-3.5c0.8-3.2,1.2-6.6,1.6-9.8c0.9-6.6,1.4-13.2,1.4-19.8c0.1-7.5-0.5-15-1.5-22.5
						c-0.3-1.9-3.2-1.1-2.9,0.8c1.7,12.3,1.9,24.9,0.5,37.2c-0.3,3.1-0.8,6.2-1.3,9.3c-0.2,1.3-0.4,2.7-0.8,4
						c-0.3,1.3-1,1.8-2.3,1.2c-1.2-0.5-2.3-1.3-3.5-1.9c-1.3-0.7-2.6-1.4-3.9-2c-2.5-1.2-5-2.3-7.6-3.3c-6.1-2.4-12.4-4.1-18.8-5.2
						c0.3,0.7,0.6,1.5,0.9,2.2c3.7-6.9,8.1-14.8,7.4-22.9c-0.5-6.5-4.2-12.3-10.5-14.5c0.1,0.9,0.2,1.8,0.4,2.7
						c6.1-4.2,10.9-10.2,13.1-17.4C198.9,101.9,196,101.2,195.4,103L195.4,103z"/>
				</g>
			</g>
			<g>
				<path class="st5" d="M268.1,92.2c2.2,19.3,4.6,39.1,13.1,56.5c-10.3,1.4-20.7,2.3-31.1,2.9c1.6-7.9,3.2-15.9,4.8-23.8
					c0.9-4.5,1.8-8.9,2.2-13.5c0.4-4.6,0.4-9.3-0.1-14"/>
				<g>
					<path d="M266.6,92.2c1.7,15.2,3.5,30.6,8.4,45.1c1.4,4.1,3,8.2,5,12.1c0.4-0.8,0.9-1.5,1.3-2.3c-10.3,1.4-20.7,2.3-31.1,2.9
						c0.5,0.6,1,1.3,1.4,1.9c1.7-8.6,3.5-17.3,5.2-25.9c1.7-8.5,2.7-17,1.7-25.7c-0.2-1.9-3.2-1.9-3,0c1,8.6,0,16.9-1.7,25.3
						c-1.7,8.5-3.4,17-5.1,25.5c-0.2,0.9,0.4,2,1.4,1.9c10.4-0.5,20.8-1.5,31.1-2.9c1.2-0.2,1.8-1.1,1.3-2.3
						c-8.5-17.4-10.8-36.8-12.9-55.8C269.3,90.3,266.3,90.3,266.6,92.2L266.6,92.2z"/>
				</g>
			</g>
			<g>
				<path class="st6" d="M184,77.8c0.2,7.1,0,19.4-1,26.5c4.1-2.6,8.7-4.5,13.5-5.6c0.3,4.4,0.5,8.9,0.8,13.3c0,0.4,0.1,0.8,0.3,1
					c0.4,0.4,1.1,0.4,1.6,0.3c9.8-1.4,20.1,0.4,28.7,5.2c-5.6-13-14.5-24.6-25.6-33.5c-5.1-4.1-11.5-7.8-18-6.6"/>
				<g>
					<path d="M182.5,77.8c0.2,8.7,0.3,17.5-0.9,26.1c-0.2,1.2,1,2.5,2.2,1.7c4.1-2.6,8.5-4.4,13.2-5.4c-0.6-0.5-1.3-1-1.9-1.4
						c0.3,4.4,0.4,8.9,0.8,13.3c0.2,1.9,1.3,3,3.2,2.9c1.9-0.2,3.8-0.4,5.8-0.5c7.8-0.2,15.6,1.7,22.4,5.5c1.4,0.8,2.6-0.7,2.1-2.1
						c-3.3-7.6-7.7-14.7-12.9-21.1c-2.6-3.2-5.5-6.2-8.5-9c-3.1-2.8-6.4-5.6-10.1-7.7c-4.2-2.4-8.9-3.8-13.7-3
						c-1.9,0.3-1.1,3.2,0.8,2.9c8-1.4,15.4,4.9,20.9,10c5.7,5.2,10.7,11.2,14.8,17.7c2.3,3.7,4.4,7.6,6.2,11.7
						c0.7-0.7,1.4-1.4,2.1-2.1c-6.4-3.5-13.4-5.5-20.7-5.9c-1.8-0.1-3.6-0.1-5.4,0.1c-0.9,0.1-1.7,0.1-2.6,0.3c-0.4,0-0.8,0-1.2,0.2
						c-0.5,0-0.5,0-0.1,0.1c0-0.2,0-0.5,0-0.7c-0.2-4.2-0.5-8.4-0.7-12.6c-0.1-1-0.9-1.7-1.9-1.4c-4.9,1.1-9.6,3.1-13.9,5.7
						c0.7,0.6,1.5,1.1,2.2,1.7c1.2-8.9,1.2-18,1-26.9C185.5,75.9,182.5,75.9,182.5,77.8L182.5,77.8z"/>
				</g>
			</g>
			<g>
				<path class="st6" d="M254.3,113.1c-2.2-5.5-3.5-18.2-3.4-24.1c0.2-9.9-0.9-19.7,3.6-28.5c0.2-0.4,0.4-0.7,0.7-0.9
					c0.4-0.2,1-0.1,1.4,0c4.6,1.2,14.5,4.9,18.7,7c0.5,0.3,1.1,0.6,1.2,1.1c0.1,0.4-0.1,0.8-0.3,1.1c-2.1,4.1-8.9,5.5-12.3,8.6
					c-0.7,0.6-1.4,1.2-1.7,2c-0.6,1.5,0.1,3.3,0.9,4.7c2,3.5,4.6,6.8,7.6,9.6C263.2,97.3,256.6,102.6,254.3,113.1"/>
				<g>
					<path d="M255.8,112.7c-1.1-2.8-1.6-5.8-2.1-8.7c-0.6-3.4-0.9-6.9-1.1-10.4c-0.2-3.5-0.1-7-0.1-10.6c0-4.4-0.1-8.8,0.7-13.2
						c0.4-2.1,0.9-4.2,1.7-6.3c0.2-0.5,0.4-1,0.6-1.5c0-0.1,0.4-1.1,0.5-1.1c0.3-0.1,1.6,0.4,1.9,0.5c3.2,1,6.4,2.1,9.6,3.3
						c1.5,0.6,3.1,1.2,4.6,1.8c0.6,0.3,1.2,0.5,1.8,0.8c0.2,0.1,0.7,0.2,0.9,0.4c0.3,0.3,0.4,0.2,0,0.7c-1.7,2.6-5.2,3.8-7.8,5.2
						c-1.6,0.9-3.2,1.8-4.5,3.1c-1.8,1.7-2.2,3.8-1.4,6.1c0.8,2.2,2.3,4.2,3.7,6.1c1.5,2,3.2,3.9,5.1,5.7c0.1-0.8,0.2-1.6,0.3-2.4
						c-3.9,1.8-7.6,4.1-10.6,7.3c-3.3,3.6-5.4,8.1-6.5,12.8c-0.4,1.9,2.5,2.7,2.9,0.8c1-4.4,2.9-8.5,6-11.7c2.7-2.9,6.2-5,9.8-6.6
						c0.9-0.4,1-1.7,0.3-2.4c-1.7-1.6-3.3-3.4-4.7-5.2c-1.3-1.7-3-3.8-3.5-6c-0.4-1.9,1.6-3.2,3.1-4.1c1.5-0.9,3.1-1.7,4.7-2.5
						c1.5-0.8,3.1-1.7,4.3-2.9c1.2-1.1,2.8-3,2.3-4.8c-0.5-1.6-2.4-2.2-3.8-2.8c-1.6-0.7-3.2-1.4-4.8-2c-3.4-1.3-6.8-2.6-10.2-3.6
						c-1.5-0.5-3.3-1.3-4.8-0.4c-0.8,0.5-1.2,1.4-1.6,2.2c-0.5,1.1-1,2.3-1.4,3.4c-1.5,4.4-1.9,9.1-2,13.7c-0.1,4.3-0.1,8.7,0,13
						c0.1,4,0.5,7.9,1,11.9c0.5,3.7,1.1,7.5,2.4,11C253.6,115.3,256.5,114.5,255.8,112.7L255.8,112.7z"/>
				</g>
			</g>
			<g>
				<g>
					<path d="M207.2,177.9c1.7,9.9,3.1,19.9,4.3,29.9c0.3,2.4,0.6,4.9,0.8,7.3c0.1,1.3,0.3,2.6,0.4,3.9c0.1,1.3,0.2,2.5,0.9,3.6
						c1.4,2.1,4.7,2.1,7,2.4c2.7,0.4,5.3,0.6,8,0.7c1.6,0.1,3-1.4,3-3c0-1.7-1.4-2.9-3-3c-2-0.1-4-0.2-6-0.5
						c-0.8-0.1-1.7-0.2-2.5-0.4c-0.5-0.1-0.9-0.2-1.4-0.2c-0.2,0-0.5-0.1-0.7-0.1c-0.4-0.1-0.4-0.1-0.2-0.1c0.4,0.4,0.7,0.7,1.1,1.1
						c0,0,0.1,1.2,0-0.1c-0.1-0.5-0.1-1-0.1-1.5c-0.1-0.9-0.2-1.8-0.3-2.7c-0.2-1.9-0.4-3.8-0.6-5.6c-0.4-3.7-0.9-7.3-1.4-11
						c-1-7.5-2.1-15-3.4-22.5c-0.3-1.6-2.2-2.5-3.7-2.1C207.6,174.7,206.9,176.3,207.2,177.9L207.2,177.9z"/>
				</g>
			</g>
			<g>
				<g>
					<path d="M238.2,176.1c1.9,8.2,4,16.4,6.1,24.5c1,4,2.1,8.1,3.2,12.1c0.6,2.1,1.1,4.1,1.7,6.2c0.5,2,1.1,4.1,3.1,5.1
						c2.2,1,5.1,0,7.4-0.3c2.4-0.4,4.8-0.7,7.2-1.1c1.6-0.2,2.5-2.3,2.1-3.7c-0.5-1.7-2.1-2.3-3.7-2.1c-2.4,0.4-4.8,0.7-7.2,1.1
						c-0.6,0.1-1.3,0.2-1.9,0.3c-0.3,0-1.7,0.1-1.9,0.3c0.3-0.4,1.1,1,1.1,0.5c0-0.5-0.3-1.1-0.4-1.6c-1.3-4.7-2.6-9.5-3.8-14.2
						c-2.5-9.5-4.9-19-7.1-28.6C243.1,170.8,237.3,172.4,238.2,176.1L238.2,176.1z"/>
				</g>
			</g>
			<g>
				<g>
					<path class="st7" d="M130.8,97.4c-0.5-1.3-0.4-2.8,0.4-3.8c0.8-1.1,2.6-1.4,3.5-0.5c1.6,1.5,0,4.2,0.9,6.2"/>
					<g>
						<path d="M131.9,97.1c-0.1-0.2-0.1-0.5-0.2-0.7c0-0.1-0.1-0.4,0-0.1c0-0.1,0-0.3,0-0.4c0-0.1,0-0.2,0-0.3c0-0.1,0.1-0.4,0-0.2
							c0.1-0.2,0.1-0.5,0.2-0.7c-0.1,0.2,0,0,0.1-0.1c0.1-0.1,0.1-0.2,0.2-0.3c-0.1,0.2,0,0,0.1-0.1c0,0,0.1-0.1,0.1-0.1
							c0.1-0.1,0,0,0,0c0-0.1,0.2-0.1,0.3-0.2c0,0,0.1,0,0.1-0.1c0,0,0.1,0,0,0c-0.2,0,0.1,0,0.2,0c0.1,0,0.1,0,0.2,0
							c0,0,0.2,0,0.1,0c-0.2,0,0.1,0,0.2,0c0.1,0,0.1,0,0.2,0c0.2,0-0.1,0-0.1,0c0,0,0.2,0.1,0.3,0.1c0,0,0.2,0,0,0
							c-0.2,0,0,0,0.1,0c0,0,0.1,0.1,0.1,0.1c0,0,0.1,0.1,0,0c-0.1-0.1,0,0,0,0c0,0,0.1,0.1,0.1,0.1c0.1,0.1-0.1-0.1-0.1-0.1
							c0,0,0.1,0.1,0.1,0.1c0,0,0,0.1,0.1,0.1c0.1,0.2,0-0.1,0,0c0,0.1,0.2,0.4,0.1,0.6c0,0,0-0.2,0-0.1c0,0.1,0,0.1,0,0.2
							c0,0.1,0,0.2,0,0.4c0,0.4,0,0.9-0.1,1.3c-0.1,1.2-0.1,2.3,0.4,3.4c0.2,0.5,1.1,0.7,1.5,0.4c0.6-0.4,0.7-1,0.4-1.5
							c0.1,0.3,0-0.1,0-0.2c0-0.1,0-0.2-0.1-0.3c0-0.2,0,0.3,0,0c0-0.1,0-0.1,0-0.2c0-0.1,0-0.3,0-0.4c0-0.5,0.1-1,0.1-1.5
							c0.1-1.1,0.1-2.2-0.5-3.2c-1.4-2.3-4.9-1.8-6.1,0.4c-0.7,1.3-0.7,2.9-0.2,4.3c0.2,0.6,0.8,1,1.4,0.8
							C131.6,98.3,132.1,97.7,131.9,97.1L131.9,97.1z"/>
					</g>
				</g>
				<g>
					<path class="st7" d="M137.7,100.5c0.4-1.2,0.2-2.5,0.4-3.7c0.3-1.2,1.5-2.5,2.6-2c0.4,0.2,0.7,0.6,1,1c0.9,1.6,0.8,3.6-0.3,5.1
						"/>
					<g>
						<path d="M138.8,100.8c0.3-1,0.3-2.1,0.4-3.1c0-0.1,0-0.2,0-0.3c0-0.1,0,0,0,0c0-0.1,0-0.1,0-0.2c0-0.1,0-0.2,0.1-0.3
							c0-0.1,0.1-0.4,0-0.1c0.1-0.2,0.2-0.3,0.3-0.5c0.1-0.1,0,0,0,0c0,0,0.1-0.1,0.1-0.1c0.1-0.1,0.2-0.2,0.2-0.2
							c0.1-0.1,0,0-0.1,0c0,0,0.1-0.1,0.1-0.1c0,0,0.2-0.1,0.2-0.1c0,0-0.2,0.1-0.1,0c0,0,0.1,0,0.2,0c0.1-0.1-0.1,0-0.1,0
							c0,0,0.1,0,0.2,0c0.2,0-0.2,0,0.1,0c0.1,0,0,0-0.1,0c0,0,0.1,0.1,0.1,0.1c0.1,0.1-0.1-0.1,0,0c0,0,0.1,0.1,0.1,0.1
							c0,0,0.1,0.1,0.1,0.1c0.1,0.1-0.1-0.2,0,0c0.1,0.2,0.2,0.3,0.3,0.5c0,0,0,0.1,0.1,0.1c0,0-0.1-0.2,0-0.1
							c0,0.1,0.1,0.2,0.1,0.3c0.1,0.2,0.1,0.4,0.1,0.6c0-0.2,0,0,0,0.1c0,0.1,0,0.2,0,0.4c0,0.1,0,0.2,0,0.4c0,0,0,0.1,0,0.1
							c0,0.2,0-0.2,0,0c0,0.2-0.1,0.4-0.2,0.7c0,0.1-0.1,0.2-0.1,0.3c0.1-0.2,0,0.1-0.1,0.1c-0.1,0.2-0.2,0.4-0.4,0.6
							c-0.4,0.5-0.1,1.3,0.4,1.5c0.6,0.3,1.2,0.1,1.5-0.4c1.3-1.8,1.5-4.5,0.2-6.4c-0.7-1.1-1.9-1.8-3.2-1.3c-1.1,0.4-2,1.5-2.3,2.6
							c-0.2,0.7-0.2,1.4-0.2,2.1c0,0.3,0,0.6-0.1,1c0,0.2,0-0.2,0,0c0,0.1,0,0.2,0,0.3c0,0.2-0.1,0.3-0.1,0.5
							c-0.2,0.6,0.2,1.3,0.8,1.4C138,101.7,138.5,101.4,138.8,100.8L138.8,100.8z"/>
					</g>
				</g>
				<g>
					<path class="st7" d="M123,95.4c-0.5-1.3-0.4-2.8,0.4-3.8c0.8-1.1,2.6-1.4,3.5-0.5c1.6,1.5,0,4.2,0.9,6.2"/>
					<g>
						<path d="M124.1,95.1c-0.1-0.2-0.1-0.5-0.2-0.7c0-0.1-0.1-0.4,0-0.1c0-0.1,0-0.3,0-0.4c0-0.1,0-0.2,0-0.3c0-0.1,0.1-0.4,0-0.2
							c0.1-0.2,0.1-0.5,0.2-0.7c-0.1,0.2,0,0,0.1-0.1c0.1-0.1,0.1-0.2,0.2-0.3c-0.1,0.2,0,0,0.1-0.1c0,0,0.1-0.1,0.1-0.1
							c0.1-0.1,0,0,0,0c0-0.1,0.2-0.1,0.3-0.2c0,0,0.1,0,0.1-0.1c0,0,0.1,0,0,0c-0.2,0,0.1,0,0.2,0c0.1,0,0.1,0,0.2,0
							c0,0,0.2,0,0.1,0c-0.2,0,0.1,0,0.2,0c0.1,0,0.1,0,0.2,0c0.2,0-0.1,0-0.1,0c0,0,0.2,0.1,0.3,0.1c0,0,0.2,0,0,0
							c-0.2,0,0,0,0.1,0c0,0,0.1,0.1,0.1,0.1c0,0,0.1,0.1,0,0c-0.1-0.1,0,0,0,0c0,0,0.1,0.1,0.1,0.1c0.1,0.1-0.1-0.1-0.1-0.1
							c0,0,0.1,0.1,0.1,0.1c0,0,0,0.1,0.1,0.1c0.1,0.2,0-0.1,0,0c0,0.1,0.2,0.4,0.1,0.6c0,0,0-0.2,0-0.1c0,0.1,0,0.1,0,0.2
							c0,0.1,0,0.2,0,0.4c0,0.4,0,0.9-0.1,1.3c-0.1,1.2-0.1,2.3,0.4,3.4c0.2,0.5,1.1,0.7,1.5,0.4c0.6-0.4,0.7-1,0.4-1.5
							c0.1,0.3,0-0.1,0-0.2c0-0.1,0-0.2-0.1-0.3c0-0.2,0,0.3,0,0c0-0.1,0-0.1,0-0.2c0-0.1,0-0.3,0-0.4c0-0.5,0.1-1,0.1-1.5
							c0.1-1.1,0.1-2.2-0.5-3.2c-1.4-2.3-4.9-1.8-6.1,0.4c-0.7,1.3-0.7,2.9-0.2,4.3c0.2,0.6,0.8,1,1.4,0.8
							C123.8,96.3,124.3,95.7,124.1,95.1L124.1,95.1z"/>
					</g>
				</g>
				<g>
					<path class="st7" d="M144.5,102.3c0.4-1.2,0.2-2.5,0.4-3.7c0.3-1.2,1.5-2.5,2.6-2c0.4,0.2,0.7,0.6,1,1c0.9,1.6,0.8,3.6-0.3,5.1
						"/>
					<g>
						<path d="M145.6,102.6c0.3-1,0.3-2.1,0.4-3.1c0-0.1,0-0.2,0-0.3c0-0.1,0,0,0,0c0-0.1,0-0.1,0-0.2c0-0.1,0-0.2,0.1-0.3
							c0-0.1,0.1-0.4,0-0.1c0.1-0.2,0.2-0.3,0.3-0.5c0.1-0.1,0,0,0,0c0,0,0.1-0.1,0.1-0.1c0.1-0.1,0.2-0.2,0.2-0.2
							c0.1-0.1,0,0-0.1,0c0,0,0.1-0.1,0.1-0.1c0,0,0.2-0.1,0.2-0.1c0,0-0.2,0.1-0.1,0c0,0,0.1,0,0.2,0c0.1-0.1-0.1,0-0.1,0
							c0,0,0.1,0,0.2,0c0.2,0-0.2,0,0.1,0c0.1,0,0,0-0.1,0c0,0,0.1,0.1,0.1,0.1c0.1,0.1-0.1-0.1,0,0c0,0,0.1,0.1,0.1,0.1
							c0,0,0.1,0.1,0.1,0.1c0.1,0.1-0.1-0.2,0,0c0.1,0.2,0.2,0.3,0.3,0.5c0,0,0,0.1,0.1,0.1c0,0-0.1-0.2,0-0.1
							c0,0.1,0.1,0.2,0.1,0.3c0.1,0.2,0.1,0.4,0.1,0.6c0-0.2,0,0,0,0.1c0,0.1,0,0.2,0,0.4c0,0.1,0,0.2,0,0.4c0,0,0,0.1,0,0.1
							c0,0.2,0-0.2,0,0c0,0.2-0.1,0.4-0.2,0.7c0,0.1-0.1,0.2-0.1,0.3c0.1-0.2,0,0.1-0.1,0.1c-0.1,0.2-0.2,0.4-0.4,0.6
							c-0.4,0.5-0.1,1.3,0.4,1.5c0.6,0.3,1.2,0.1,1.5-0.4c1.3-1.8,1.5-4.5,0.2-6.4c-0.7-1.1-1.9-1.8-3.2-1.3c-1.1,0.4-2,1.5-2.3,2.6
							c-0.2,0.7-0.2,1.4-0.2,2.1c0,0.3,0,0.6-0.1,1c0,0.2,0-0.2,0,0c0,0.1,0,0.2,0,0.3c0,0.2-0.1,0.3-0.1,0.5
							c-0.2,0.6,0.2,1.3,0.8,1.4C144.8,103.6,145.4,103.2,145.6,102.6L145.6,102.6z"/>
					</g>
				</g>
				<g>
					<path class="st8" d="M236,127.6c-7.6-6.2-13.7-14.2-17.6-23.2c-1.8-4.1-2.9-9.5,0.3-12.6c2.2-2.1,5.7-2.3,8.5-1.3
						c2.8,1,5.2,3.1,7.5,5.1c5,4.3,9.9,8.7,14.9,13c1.5,1.4,3.2,2.7,5.1,3.3c6.6,2,12-5.2,18.3-8c5.9-2.6,12.9-1.2,18.4,2.2
						c5.4,3.5,9.4,8.7,12.9,14.1c5.7,8.7,10.5,18.6,10.3,29.1s-6.3,21.4-16.3,24.2c-7.5,2.1-15.6-0.6-22-5
						c-6.4-4.4-11.4-10.4-16.9-16c-0.8-0.8-1.6-1.6-2.7-1.9c-1.6-0.5-3.3,0.4-4.9,1.2c-6.9,3.5-14.4,6-22.1,7.2
						c-6.8,1-15.5,0-17.8-6.4c3.9-3.4,9.2-4.7,14.1-6.3c4.9-1.6,10.1-3.9,12.6-8.5c2.5-4.5,0.6-11.6-4.5-12.5"/>
					<g>
						<path d="M237.1,126.5c-4-3.2-7.5-7-10.6-11.1c-2.9-3.9-5.5-8.2-7.2-12.8c-1.3-3.6-2.4-9.5,2.4-11c5-1.6,9.3,2.6,12.7,5.6
							c4.5,4,9.1,7.9,13.6,11.9c1.9,1.7,3.9,3.5,6.3,4.2c1.9,0.6,4,0.5,5.9-0.1c4.1-1.3,7.4-4.4,11-6.7c4.3-2.6,9-3.1,13.8-1.7
							c9.8,3,16.2,12.7,21,21.1c4.9,8.6,8.7,18.9,6.4,28.9c-1.9,8.2-7.7,15.9-16.4,17.4c-10.5,1.8-20-5.2-27-12.2
							c-1.9-1.9-3.8-3.9-5.7-5.9c-1.6-1.7-3.3-4.1-5.6-5.1c-2.5-1.1-4.9,0.1-7.1,1.3c-2.5,1.2-5,2.3-7.6,3.3
							c-4.9,1.8-10.2,3.3-15.4,3.7c-3.7,0.3-7.8,0.1-11.1-1.9c-1.4-0.9-2.6-2.1-3.2-3.7c-0.1,0.5-0.3,1-0.4,1.5
							c5.6-4.8,13.7-5.2,20-8.6c5.5-3,9.7-8.6,7.7-15.1c-0.9-2.9-3.1-5.5-6.2-6.1c-1.9-0.4-2.7,2.5-0.8,2.9c2.9,0.6,4.4,3.4,4.5,6.2
							c0.1,3.6-2.1,6.5-5,8.4c-6.9,4.7-15.9,4.6-22.4,10.2c-0.4,0.3-0.6,1-0.4,1.5c3.4,8.9,14.7,8.5,22.4,7c5.8-1.1,11.5-3,16.9-5.4
							c2.3-1,5.5-3.7,7.8-1.7c2.1,1.7,3.8,3.9,5.7,5.9c7.6,8,16.2,16,27.7,17c9.9,0.9,18.3-5.2,22.4-14c4.4-9.7,3-20.3-1.1-29.9
							c-2.2-5.2-5.1-10.1-8.3-14.7c-3.1-4.5-6.6-8.7-11.1-11.7c-4.3-2.9-9.6-4.7-14.8-4.2c-5.2,0.5-9,3.3-13.1,6.2
							c-1.8,1.3-3.7,2.6-5.9,3.2c-2.3,0.6-4.5,0-6.4-1.4c-2.5-1.8-4.7-4-7-6c-2.4-2.1-4.8-4.2-7.3-6.3c-4-3.5-8.1-7.8-13.7-8.3
							c-5-0.4-9.1,2.9-9.5,7.9c-0.4,4.9,2.2,9.9,4.5,14c2.6,4.7,5.8,9.1,9.5,12.9c1.8,1.9,3.7,3.7,5.8,5.3
							C236.4,129.8,238.6,127.7,237.1,126.5L237.1,126.5z"/>
					</g>
				</g>
				<g>
					<path class="st7" d="M148.5,120.2c40.2,6.3,84.2,16.7,124.4,23c2.1-5.8,1.8-16,1.8-16c-4.3-1.5-22.5-4-28.9-4.9
						c-32.7-4.4-63-10.7-97.5-18.2C148.1,109,148.8,115.3,148.5,120.2"/>
					<g>
						<path d="M148.1,121.7c16.2,2.5,32.2,5.6,48.3,8.7c16.3,3.2,32.7,6.5,49.1,9.6c9,1.7,18,3.3,27.1,4.7c0.8,0.1,1.6-0.2,1.8-1
							c1.8-5.1,2-11,1.9-16.4c0-0.7-0.5-1.2-1.1-1.4c-2.1-0.7-4.4-1.1-6.6-1.5c-3.1-0.6-6.3-1.1-9.5-1.6c-6.6-1-13.3-1.9-19.9-2.8
							c-19.1-2.8-38.1-6.3-57-10.1c-11.1-2.3-22.3-4.7-33.4-7.1c-1-0.2-1.8,0.4-1.9,1.4c-0.3,5.4,0.4,10.7,0.2,16.1
							c-0.1,1.9,2.9,1.9,3,0c0.3-5.4-0.4-10.7-0.2-16.1c-0.6,0.5-1.3,1-1.9,1.4c19.4,4.2,38.9,8.3,58.5,11.9
							c16.4,3,32.9,5.3,49.4,7.7c3.6,0.5,7.3,1.1,10.9,1.7c2.6,0.5,5.2,0.9,7.7,1.7c-0.4-0.5-0.7-1-1.1-1.4
							c0.1,5.1-0.1,10.7-1.8,15.6c0.6-0.3,1.2-0.7,1.8-1c-16.2-2.5-32.2-5.6-48.3-8.7c-16.3-3.2-32.7-6.5-49.1-9.6
							c-9-1.7-18-3.3-27.1-4.7C147,118.5,146.2,121.4,148.1,121.7L148.1,121.7z"/>
					</g>
				</g>
				<g>
					<g>
						<path d="M274.9,117.2c1,0.3,2,0.1,2.9-0.3c0.2-0.1,0.4-0.3,0.5-0.5c0.1-0.2,0.2-0.4,0.2-0.6c0-0.2,0-0.4,0-0.6
							c-0.1-0.3-0.2-0.5-0.4-0.7c-0.3-0.4-0.7-0.6-1.2-0.7c-0.5-0.2-1-0.1-1.4,0c-0.1,0-0.2,0.1-0.3,0.1c-0.2,0.1-0.4,0.2-0.6,0.3
							c-0.1,0.1-0.3,0.2-0.4,0.3c-0.1,0.1-0.2,0.3-0.3,0.4c-0.1,0.2-0.2,0.4-0.3,0.6c-0.1,0.2-0.1,0.4,0,0.6c0,0.2,0.1,0.4,0.2,0.6
							c0.1,0.2,0.2,0.3,0.4,0.4c0.1,0.1,0.3,0.2,0.5,0.3c0.4,0.1,0.8,0.1,1.2-0.2c0.1-0.1,0.2-0.2,0.3-0.2c0.2-0.2,0.3-0.4,0.4-0.7
							c0,0,0,0,0-0.1c-0.1,0.1-0.1,0.2-0.2,0.4c0-0.1,0.1-0.2,0.1-0.2c-0.1,0.1-0.2,0.2-0.2,0.3c0.1-0.1,0.1-0.1,0.2-0.2
							c-0.1,0.1-0.2,0.2-0.3,0.2c0.1-0.1,0.2-0.1,0.3-0.2c-0.1,0.1-0.2,0.1-0.4,0.2c0.1,0,0.2-0.1,0.4-0.1c-0.1,0-0.3,0-0.4,0.1
							c0.1,0,0.3,0,0.4,0c-0.1,0-0.3,0-0.4-0.1c0.1,0,0.2,0,0.3,0.1c-0.1-0.1-0.2-0.1-0.4-0.2c0.1,0,0.2,0.1,0.2,0.1
							c-0.1-0.1-0.2-0.2-0.3-0.2c0.1,0.1,0.1,0.1,0.2,0.2c0.1-0.8,0.2-1.6,0.3-2.4c-0.1,0-0.1,0.1-0.2,0.1c0.1-0.1,0.2-0.1,0.4-0.2
							c-0.2,0.1-0.4,0.1-0.6,0.2c0.1,0,0.3,0,0.4-0.1c-0.2,0-0.4,0-0.6,0c0.1,0,0.3,0,0.4,0.1c-0.1,0-0.2,0-0.3-0.1
							c-0.4-0.1-0.8,0-1.2,0.2c-0.2,0.1-0.3,0.2-0.4,0.4c-0.1,0.1-0.2,0.3-0.3,0.5c-0.1,0.4-0.1,0.8,0.2,1.2
							C274.3,116.9,274.6,117.1,274.9,117.2L274.9,117.2z"/>
					</g>
				</g>
				<g>
					<g>
						<path d="M287.2,121.1c-0.2,0.4-0.3,0.7-0.3,1.1c0,0.2,0,0.4,0.1,0.6c0,0.1,0,0.2,0.1,0.2c0.2,0.6,0.6,1.1,1.2,1.5
							c0.2,0.1,0.4,0.2,0.5,0.2c0.1,0,0.1,0,0.2,0.1c0.4,0.1,0.8,0.1,1.2,0c0.2,0,0.4-0.1,0.5-0.2c0.1,0,0.1-0.1,0.2-0.1
							c0.3-0.2,0.6-0.5,0.8-0.8c0.2-0.2,0.3-0.5,0.3-0.7c0.1-0.3,0.1-0.5,0.1-0.8c0-0.1,0-0.2,0-0.2c0-0.2,0-0.4-0.1-0.6
							c-0.1-0.3-0.2-0.5-0.4-0.8c-0.3-0.5-0.7-0.9-1.3-1.1c-0.3-0.1-0.5-0.2-0.8-0.3c-0.4-0.1-0.7-0.1-1,0c-0.3,0-0.7,0.1-1,0.3
							c-0.3,0.2-0.6,0.5-0.8,0.8c-0.3,0.5-0.3,0.9-0.2,1.5c0.1,0.2,0.2,0.5,0.3,0.6c0.2,0.2,0.3,0.4,0.5,0.5
							c0.3,0.2,0.8,0.3,1.2,0.2c0.3-0.1,0.7-0.4,0.9-0.7c0.2-0.3,0.3-0.8,0.2-1.2c-0.1-0.4-0.3-0.7-0.7-0.9c0,0-0.1,0-0.1,0
							c0.1,0.1,0.2,0.2,0.3,0.2c0,0,0,0-0.1-0.1c0.1,0.1,0.2,0.2,0.2,0.3c0,0,0,0,0-0.1c0.1,0.1,0.1,0.2,0.2,0.4c0,0,0,0,0-0.1
							c0,0.1,0,0.3,0.1,0.4c0,0,0-0.1,0-0.1c0,0.1,0,0.3-0.1,0.4c0,0,0-0.1,0-0.1c-0.1,0.1-0.1,0.2-0.2,0.4c0-0.1,0.1-0.1,0.1-0.2
							c-0.1,0.1-0.2,0.2-0.2,0.3c0.1-0.1,0.1-0.1,0.2-0.2c-0.1,0.1-0.2,0.2-0.3,0.2c0.1-0.1,0.1-0.1,0.2-0.1
							c-0.1,0.1-0.2,0.1-0.4,0.2c0.1,0,0.1,0,0.2-0.1c-0.1,0-0.3,0-0.4,0.1c0.1,0,0.3,0,0.4,0c-0.1,0-0.3,0-0.4-0.1
							c0.2,0,0.3,0.1,0.5,0.1c-0.1-0.1-0.2-0.1-0.4-0.2c0.1,0.1,0.3,0.1,0.4,0.2c-0.1-0.1-0.2-0.2-0.3-0.2c0.1,0.1,0.2,0.2,0.3,0.3
							c-0.1-0.1-0.2-0.2-0.2-0.3c0.1,0.1,0.1,0.2,0.2,0.3c-0.1-0.1-0.1-0.2-0.2-0.4c0,0.1,0.1,0.2,0.1,0.3c0-0.1,0-0.3-0.1-0.4
							c0,0.1,0,0.2,0,0.4c0-0.1,0-0.3,0.1-0.4c0,0.1-0.1,0.3-0.1,0.4c0.1-0.1,0.1-0.2,0.2-0.4c0,0.1-0.1,0.2-0.2,0.3
							c0.1-0.1,0.2-0.2,0.2-0.3c-0.1,0.1-0.2,0.2-0.2,0.2c0.1-0.1,0.2-0.2,0.3-0.2c-0.1,0.1-0.2,0.1-0.2,0.1
							c0.1-0.1,0.2-0.1,0.4-0.2c-0.1,0-0.2,0.1-0.3,0.1c0.1,0,0.3,0,0.4-0.1c-0.1,0-0.2,0-0.2,0c0.1,0,0.3,0,0.4,0.1
							c-0.1,0-0.2,0-0.2-0.1c0.1,0.1,0.2,0.1,0.4,0.2c-0.1,0-0.2-0.1-0.3-0.2c0.1,0.1,0.2,0.2,0.3,0.2c-0.1-0.1-0.2-0.1-0.2-0.2
							c0.1,0.1,0.2,0.2,0.2,0.3c-0.1-0.1-0.1-0.2-0.2-0.3c0.1,0.1,0.1,0.2,0.2,0.4c0-0.1-0.1-0.2-0.1-0.3c0,0.1,0,0.3,0.1,0.4
							c0-0.1,0-0.2,0-0.2c0,0.1,0,0.3-0.1,0.4c0-0.1,0-0.1,0.1-0.2c-0.1,0.1-0.1,0.2-0.2,0.4c0,0,0-0.1,0-0.1
							c0.2-0.4,0.3-0.8,0.2-1.2c-0.1-0.3-0.4-0.7-0.7-0.9c-0.3-0.2-0.8-0.3-1.2-0.2C287.7,120.5,287.4,120.7,287.2,121.1
							L287.2,121.1z"/>
					</g>
				</g>
				<g>
					<g>
						<path d="M296.5,134.5c-0.5,0.6-0.7,1.3-0.5,2c0.2,0.6,0.6,1.1,1.1,1.4c0.2,0.1,0.4,0.2,0.7,0.3c0.1,0,0.2,0,0.4,0.1
							c0.1,0,0.3,0,0.4,0c0.4,0,0.7-0.1,1-0.3c0.4-0.2,0.6-0.5,0.8-0.8c0.3-0.4,0.4-0.9,0.5-1.5c0-0.4,0-0.9-0.1-1.3
							c-0.2-0.5-0.5-1-0.9-1.4c-0.5-0.5-1.1-0.8-1.9-0.8c-0.4,0-0.8,0.1-1.2,0.3c-0.3,0.1-0.5,0.3-0.7,0.5c-0.3,0.3-0.5,0.6-0.6,1
							c-0.1,0.4-0.1,0.9,0,1.2c0,0.2,0.1,0.4,0.3,0.5c0.1,0.2,0.2,0.3,0.4,0.4c0.3,0.2,0.8,0.3,1.2,0.2c0.4-0.1,0.7-0.3,0.9-0.7
							c0.2-0.3,0.3-0.8,0.2-1.2c0-0.1,0-0.1,0-0.2c0,0.1,0,0.3,0.1,0.4c0-0.1,0-0.1,0-0.2c0,0.1,0,0.3-0.1,0.4c0-0.1,0-0.1,0-0.2
							c-0.1,0.1-0.1,0.2-0.2,0.4c0-0.1,0.1-0.2,0.1-0.2c-0.1,0.1-0.2,0.2-0.2,0.3c0.1-0.1,0.1-0.1,0.2-0.2c-0.1,0.1-0.2,0.2-0.3,0.2
							c0.1-0.1,0.2-0.1,0.2-0.1c-0.1,0.1-0.2,0.1-0.4,0.2c0.1,0,0.1,0,0.2-0.1c-0.1,0-0.3,0-0.4,0.1c0.1,0,0.2,0,0.2,0
							c-0.1,0-0.3,0-0.4-0.1c0.1,0,0.2,0,0.3,0.1c-0.1-0.1-0.2-0.1-0.4-0.2c0.1,0.1,0.2,0.1,0.3,0.2c-0.1-0.1-0.2-0.2-0.3-0.2
							c0.1,0.1,0.2,0.2,0.3,0.3c-0.1-0.1-0.2-0.2-0.2-0.3c0.1,0.1,0.2,0.3,0.2,0.4c-0.1-0.1-0.1-0.2-0.2-0.4
							c0.1,0.1,0.1,0.3,0.1,0.4c0-0.1,0-0.3-0.1-0.4c0,0.2,0,0.3,0,0.5c0-0.1,0-0.3,0.1-0.4c0,0.1-0.1,0.3-0.1,0.4
							c0.1-0.1,0.1-0.2,0.2-0.4c0,0.1-0.1,0.2-0.2,0.3c0.1-0.1,0.2-0.2,0.2-0.3c-0.1,0.1-0.1,0.1-0.2,0.2c0.1-0.1,0.2-0.2,0.3-0.2
							c-0.1,0.1-0.2,0.1-0.2,0.1c0.1-0.1,0.2-0.1,0.4-0.2c-0.1,0-0.1,0-0.2,0c0.1,0,0.3,0,0.4-0.1c-0.1,0-0.1,0-0.2,0
							c0.1,0,0.3,0,0.4,0.1c-0.1,0-0.2,0-0.3-0.1c0.1,0.1,0.2,0.1,0.4,0.2c-0.1,0-0.2-0.1-0.2-0.1c0.1,0.1,0.2,0.2,0.3,0.2
							c-0.1-0.1-0.1-0.1-0.2-0.2c0.1,0.1,0.2,0.2,0.2,0.3c-0.1-0.1-0.1-0.1-0.1-0.2c0.1,0.1,0.1,0.2,0.2,0.4c0-0.1,0-0.1-0.1-0.2
							c0,0.1,0,0.3,0.1,0.4c0,0,0-0.1,0-0.1c0,0.1,0,0.3-0.1,0.4c0,0,0-0.1,0-0.1c-0.1,0.1-0.1,0.2-0.2,0.4c0,0,0-0.1,0.1-0.1
							c-0.1,0.1-0.2,0.2-0.2,0.3c0,0,0,0,0,0c0.3-0.3,0.4-0.7,0.4-1.1c0-0.4-0.2-0.8-0.4-1.1c-0.3-0.3-0.7-0.5-1.1-0.4
							C297.2,134.1,296.8,134.2,296.5,134.5L296.5,134.5z"/>
					</g>
				</g>
				<g>
					<path class="st8" d="M152.2,120.2c-0.7,1.4-1.6,2.8-2.6,4.1c-0.3,0.4-0.7,0.8-1.2,0.9c-0.5,0.1-1-0.2-1.5-0.5
						c-10.9-6.5-21.7-12.9-32.6-19.4c-0.4-2.5-0.1-5,0.9-7.2c0.3-0.6,0.6-1.1,1.2-1.4c0.7-0.4,1.6-0.3,2.5-0.1
						c11.9,2.3,23.7,4.6,35.6,7c0.2,1.4-0.1,2.9-0.8,4.1L152.2,120.2z"/>
					<g>
						<path d="M150.9,119.4c-0.4,0.8-0.8,1.6-1.3,2.3c-0.2,0.4-0.8,1.6-1.3,1.8c-0.6,0.2-1.8-0.8-2.3-1.1c-0.7-0.4-1.4-0.9-2.1-1.3
							c-3.2-1.9-6.4-3.8-9.6-5.7c-6.4-3.8-12.7-7.6-19.1-11.4c0.2,0.3,0.5,0.6,0.7,0.9c-0.3-1.8-0.1-3.6,0.5-5.2
							c0.2-0.6,0.5-1.6,1.2-1.8c0.7-0.2,1.7,0.2,2.3,0.3c3.8,0.7,7.6,1.5,11.5,2.2c7.6,1.5,15.3,3,22.9,4.6c-0.4-0.5-0.7-1-1.1-1.4
							c0.2,1.8-0.7,3.2-0.9,4.9c-0.2,1.4-0.3,2.9-0.5,4.3c-0.3,2.5-0.6,5-0.9,7.5c-0.2,1.9,2.8,1.9,3,0c0.3-2.5,0.6-5.1,0.9-7.6
							c0.2-1.4,0.3-2.8,0.5-4.2c0-0.2,0-0.3,0.1-0.5c0.1-0.5-0.1,0.3,0,0.2c0.4-0.4,0.6-1.4,0.7-1.9c0.2-0.8,0.2-1.7,0.1-2.5
							c-0.1-0.6-0.4-1.3-1.1-1.4c-6.8-1.4-13.6-2.7-20.5-4.1c-3.4-0.7-6.8-1.3-10.2-2c-1.6-0.3-3.2-0.6-4.9-0.9
							c-1.4-0.2-2.7-0.4-3.9,0.5c-2.2,1.5-2.8,5.3-2.7,7.8c0,0.6,0,1.3,0.2,1.9c0.2,0.8,0.5,1.1,1.2,1.6c1.5,1,3.1,1.9,4.7,2.8
							c6,3.6,12,7.1,18,10.7c3.2,1.9,6.4,4.1,9.8,5.8c3.5,1.8,5.6-2.7,6.9-5.2C154.4,119.2,151.8,117.7,150.9,119.4z"/>
					</g>
				</g>
				<g>
					<g>
						<path d="M282.4,132.8c-21-4.7-42.4-7.3-63.7-10.6c-11.5-1.8-23-3.6-34.5-5.8c-5.3-1-10.6-2.1-15.9-3.3c-2.5-0.6-5-1.2-7.5-1.8
							c-1.7-0.5-3.5-0.8-5.2-1.4c-3.7-1.4-7.3-3.8-10.6-5.9c-2.3-1.4-4.6-2.9-6.9-4.4c-0.8-0.5-1.6,0.8-0.8,1.3
							c5.1,3.4,10.3,6.9,15.9,9.6c3.3,1.6,7,2.3,10.5,3.2c5.2,1.3,10.4,2.4,15.7,3.5c22.8,4.6,45.9,7.6,68.9,11.2
							c11.3,1.7,22.5,3.6,33.7,6C282.9,134.5,283.3,133,282.4,132.8L282.4,132.8z"/>
					</g>
				</g>
				<g>
					<g>
						<path d="M282.4,139.8c-28.9-6.6-58.1-11.1-87.2-16.5c-7.2-1.3-14.4-2.7-21.6-4.2c-3.7-0.7-7.3-1.5-10.9-2.3
							c-1.8-0.4-3.5-0.8-5.3-1.2c-0.4-0.1-0.7-0.1-1-0.3c-1.8-0.8-3.6-2-5.3-3c-3.1-1.7-6.2-3.5-9.3-5.2c-5-2.8-10.1-5.6-15.1-8.4
							c-0.8-0.5-1.6,0.8-0.8,1.3c9.7,5.4,19.5,10.8,29.2,16.2c0.5,0.3,0.9,0.5,1.5,0.7c3.5,0.9,7.1,1.6,10.7,2.3
							c7.3,1.5,14.7,3,22,4.4c14.7,2.7,29.4,5.3,44.1,7.9c16.3,2.9,32.6,6,48.8,9.6C283,141.4,283.4,140,282.4,139.8L282.4,139.8z"
							/>
					</g>
				</g>
				<g>
					<g>
						<path d="M273.2,143.2c2.6,0.9,5.2,1.7,7.8,2.4c0.9,0.2,1.3-1.2,0.4-1.4c-2.6-0.7-5.2-1.5-7.8-2.4
							C272.7,141.4,272.3,142.8,273.2,143.2L273.2,143.2z"/>
					</g>
				</g>
				<g>
					<g>
						<path d="M275.8,127.1c2.9,1.1,5.8,2,8.8,2.7c-0.2-0.3-0.3-0.6-0.5-0.9c-2.1,5.9-3,12.1-2.9,18.4c0,0.3,0.2,0.7,0.6,0.7
							c1.8,0.3,4.1,0.2,4.4-2c0.2-1.2-0.1-2.6-0.1-3.9c0-1.4,0.1-2.8,0.2-4.2c0.2-1.5,0.4-2.9,0.8-4.3c0.3-1.2,0.8-2.4,0.7-3.6
							c-0.2-1.7-2.2-3-3.6-1.6c-0.7,0.7,0.4,1.7,1.1,1.1c0.3-0.3,0.7,0,0.9,0.3c0.2,0.4,0.1,0.9,0.1,1.3c-0.2,0.8-0.5,1.7-0.7,2.5
							c-0.4,1.7-0.7,3.4-0.8,5.1c-0.2,1.8-0.2,3.6-0.1,5.4c0.1,0.8,0.4,1.9-0.4,2.4c-0.6,0.3-1.5,0.2-2.1,0.1
							c0.2,0.2,0.4,0.5,0.6,0.7c-0.2-6.1,0.8-12.2,2.8-18c0.1-0.4-0.1-0.8-0.5-0.9c-3-0.7-5.9-1.6-8.8-2.7
							C275.3,125.3,274.9,126.7,275.8,127.1L275.8,127.1z"/>
					</g>
				</g>
			</g>
			<g>
				<g>
					<path d="M267.4,84.7c5.2,2,10.7,4,15,7.7c3.7,3.1,6.6,7.7,6.4,12.6c-0.2,5.1-4.4,9.6-7.9,13c-3.9,3.7-8.4,6.7-13.2,9
						c-3,1.4-6.1,2.4-9.3,3.3c-1.9,0.6-3.8,1.5-3.8,3.8c0,2.4,3,4.2,5,2.7c1.1-0.8,1.7-2,1.4-3.4c0,0,0-0.1,0-0.1
						c-0.4-1.6-2.2-2.5-3.7-2.1c-1.6,0.4-2.4,2.1-2.1,3.7c0,0,0,0.1,0,0.1c0.5-1.1,0.9-2.3,1.4-3.4c0,0-0.1,0.1-0.1,0.1
						c0.5-0.1,1-0.3,1.5-0.4c0.2,0,0.3,0,0.5,0.1c0.6,0.5,1.2,0.9,1.8,1.4c0-0.1,0-0.1-0.1-0.2c0.1,0.8,0.2,1.5,0.3,2.3
						c0-0.1,0-0.2,0.1-0.2c-0.3,0.4-0.5,0.9-0.8,1.3c-0.2,0.1-0.4,0.3-0.7,0.4c0.3-0.1,0.6-0.2,0.9-0.3c0.3-0.1,0.6-0.2,0.9-0.3
						c0.7-0.2,1.5-0.5,2.2-0.7c1.5-0.5,3-1,4.4-1.6c2.7-1.1,5.3-2.4,7.9-3.9c4.8-2.9,9.2-6.5,12.8-10.7c3.9-4.4,7.1-9.7,6.5-15.9
						c-0.5-5.6-3.6-10.9-7.8-14.6c-5.2-4.5-11.6-7.1-18-9.5c-1.5-0.6-3.3,0.6-3.7,2.1C264.8,82.7,265.9,84.2,267.4,84.7L267.4,84.7z
						"/>
				</g>
			</g>
			<g>
				<g>
					<path d="M154.3,115.5c-3.3,9.5-6.2,22.5,1.7,30.7c7.4,7.6,19.5,4.2,27.2-1c4.5-3,8.2-7,11-11.6c2-3.3-3.2-6.4-5.2-3
						c-3.8,6.5-10.1,11.5-17.4,13.5c-3.4,0.9-7.5,1.1-10.4-1.2c-3-2.3-4.1-6.2-4.2-9.9c-0.1-5.4,1.4-10.8,3.1-15.8
						c0.5-1.5-0.6-3.3-2.1-3.7C156.4,113,154.9,114,154.3,115.5L154.3,115.5z"/>
				</g>
			</g>
			<g>
				<g>
					<path d="M156.9,130.9c4.2-1.6,8.5-3.1,12.7-4.7c1.5-0.5,2.6-2.1,2.1-3.7c-0.5-1.4-2.1-2.7-3.7-2.1c-4.2,1.6-8.5,3.1-12.7,4.7
						c-1.5,0.5-2.6,2.1-2.1,3.7C153.7,130.2,155.3,131.5,156.9,130.9L156.9,130.9z"/>
				</g>
			</g>
			<g>
				<g>
					<path d="M270.4,141.8c0.4-1.2,0.9-2.3,1.3-3.4c-0.1,0.2-0.2,0.5-0.3,0.7c0.9-2.2,1.9-4.3,3.1-6.3c0.8-1.4,0.4-3.3-1.1-4.1
						c-1.4-0.7-3.3-0.4-4.1,1.1c-1.8,3.4-3.4,6.9-4.7,10.5c-0.3,0.7-0.1,1.7,0.3,2.3c0.4,0.6,1.1,1.2,1.8,1.4
						C268.4,144.3,269.8,143.4,270.4,141.8L270.4,141.8z"/>
				</g>
			</g>
			<g>
				<g>
					<path d="M255.9,123.2c2,1.4,3.9,2.8,5.9,4.3c-0.2-0.2-0.4-0.3-0.6-0.5c0.9,0.7,1.8,1.4,2.7,2.1c0.6,0.5,1.3,0.9,2.1,0.9
						c0.7,0,1.6-0.3,2.1-0.9c0.5-0.6,0.9-1.3,0.9-2.1c0-0.7-0.3-1.6-0.9-2.1c-3-2.4-6-4.7-9.2-6.9c-0.6-0.4-1.6-0.5-2.3-0.3
						c-0.7,0.2-1.4,0.7-1.8,1.4C254,120.6,254.5,122.3,255.9,123.2L255.9,123.2z"/>
				</g>
			</g>
			<g>
				<g>
					<path d="M154.8,126.6c-1-0.9-2-1.8-2.9-2.8c-0.2-0.2-0.4-0.5-0.7-0.8c-0.1-0.2-0.6-0.6-0.6-0.8c0.2,0.3,0.3,0.3,0.1,0.2
						c0-0.1-0.1-0.1-0.1-0.2c-0.1-0.1-0.2-0.3-0.3-0.5c-0.2-0.3-0.4-0.6-0.6-0.8c-0.7-1.1-1.4-2.3-2-3.5c-0.1-0.3-0.3-0.6-0.4-0.9
						c-0.2-0.4-0.1,0,0,0.1c-0.1,0-0.2-0.4-0.2-0.5c-0.3-0.7-0.5-1.3-0.7-2c-0.5-1.5-2.1-2.6-3.7-2.1c-1.5,0.5-2.6,2.1-2.1,3.7
						c1.8,5.8,5.3,11.2,10,15.1c1.2,1,3.1,1.3,4.2,0C155.8,129.7,156.1,127.6,154.8,126.6L154.8,126.6z"/>
				</g>
			</g>
			<g>
				<path class="st7" d="M201.5,61.1c-1.1,1.9,0.1,4.5,0.9,7c0.7,2.5,2.4,4.8,4.7,5.8c2.4,1,5.5,0.4,6.9-1.7c1.4-2,2.2-4.2,1.4-6.5
					c-0.4-1.3-1.6-3.2-2.7-4.1c-1.3-1.2-2.7-4.1-5.7-3.4C205.7,58.5,202.2,59.8,201.5,61.1"/>
				<g>
					<path d="M200.2,60.4c-1.1,2.1-0.5,4.3,0.2,6.4c0.6,2,1.2,3.9,2.5,5.6c2.4,3.1,6.8,4.6,10.4,2.5c1.8-1,3-3,3.6-4.9
						c0.7-2.1,0.4-4.3-0.6-6.2c-0.8-1.5-1.9-2.7-3-4c-1-1.2-1.9-2.3-3.4-2.9c-1.7-0.7-3.5-0.1-5.2,0.5
						C203.1,58,201.1,58.8,200.2,60.4c-0.9,1.7,1.7,3.2,2.6,1.5c0,0,0.2-0.3,0.1-0.2c-0.1,0.2,0.2-0.2,0.2-0.2
						c0.1-0.1,0.2-0.2,0.5-0.3c0.5-0.3,1.1-0.6,1.7-0.9c0.9-0.4,2.1-1,3.1-0.8c0.8,0.1,1.5,0.9,2.1,1.6c0.7,0.8,1.5,1.6,2.2,2.5
						c0.8,1.1,1.6,2.5,1.6,3.9c0,1.5-0.8,3.2-1.8,4.2c-1.8,1.9-4.9,1.3-6.6-0.4c-1.2-1.2-1.8-2.7-2.3-4.3c-0.5-1.4-1.6-3.6-0.8-5
						C203.7,60.2,201.1,58.7,200.2,60.4L200.2,60.4z"/>
				</g>
			</g>
			<g>
				<g>
					<path d="M225.6,63.1c0.2-2.2,1.4-4.4,3.2-5.9c1.8-1.5,4.4-2.2,6.6-1.9c-0.1-0.9-0.2-1.8-0.4-2.7c-0.3,0.1-0.6,0.3-0.9,0.4
						c-0.7,0.3-0.9,1.4-0.5,2.1c0.4,0.8,1.3,0.9,2.1,0.5c0.3-0.1,0.6-0.3,0.9-0.4c1.1-0.5,0.9-2.6-0.4-2.7c-3.4-0.5-6.7,0.4-9.3,2.5
						c-2.5,2-3.9,5-4.2,8.1c-0.1,0.8,0.7,1.5,1.5,1.5C225,64.6,225.6,64,225.6,63.1L225.6,63.1z"/>
				</g>
			</g>
			<g>
				<g>
					<path d="M224.4,64c-0.2-1.7-0.4-3.5-0.6-5.2c-0.1-0.8-0.2-1.7-0.3-2.5c0-0.1,0-0.3,0-0.4c0-0.1,0-0.6,0-0.3
						c0,0,0.1-0.4,0.1-0.4c0,0.1-0.1,0.2-0.1,0.2c0.1-0.1,0.1-0.1,0,0c0.7-0.4,1-1.3,0.5-2.1c-0.4-0.7-1.4-1-2.1-0.5
						c-1.8,1.2-1.4,3.3-1.2,5.1c0.2,2,0.4,4,0.6,6c0.1,0.8,0.6,1.5,1.5,1.5C223.7,65.5,224.5,64.8,224.4,64L224.4,64z"/>
				</g>
			</g>
			<g>
				<path class="st9" d="M220.6,77.4c3.4,0.1,6.7-1.4,9-3.9c1.1-1.2,1.9-2.9,1.2-4.3c2.9,3.3,6,6.8,6.7,11.2
					c0.2,1.2,0.1,2.6-0.8,3.4c-1,0.8-2.5,0.5-3.8,0.1c-3-1-6.2-2.2-8.2-4.7c-0.5-0.6-1-1.4-1.8-1.4"/>
				<g>
					<path d="M220.6,78.9c3,0,5.9-1,8.3-2.8c2.4-1.8,4.5-4.6,3.1-7.7c-0.8,0.6-1.6,1.2-2.4,1.8c1.8,2,3.5,4,4.8,6.3
						c0.6,1.2,1.1,2.4,1.4,3.7c0.1,0.7,0.4,2-0.4,2.4c-0.8,0.5-2.3-0.2-3.1-0.5c-1.2-0.4-2.3-0.8-3.4-1.4c-1.1-0.6-2-1.2-2.9-2.1
						c-0.9-1-1.5-2.2-2.9-2.4c-0.8-0.1-1.6,0.2-1.8,1c-0.2,0.7,0.2,1.7,1,1.8c0.4,0.1,0.6,0.3,0.8,0.7c0.4,0.5,0.8,1,1.2,1.5
						c0.8,0.8,1.8,1.5,2.8,2c2,1.1,4.5,2.1,6.8,2.4c2.7,0.4,4.7-1.2,4.9-3.9c0.2-2.3-0.9-4.9-2-6.9c-1.4-2.5-3.3-4.7-5.2-6.8
						c-0.5-0.6-1.4-0.6-2-0.1c-0.6,0.5-0.7,1.2-0.4,1.9c0.3,0.7-0.3,1.7-0.7,2.2c-0.6,0.8-1.4,1.5-2.3,2c-1.8,1.1-3.8,1.7-5.9,1.7
						C218.6,75.9,218.6,78.9,220.6,78.9L220.6,78.9z"/>
				</g>
			</g>
			<g>
				<g>
					<path d="M213.6,66.9c-0.1-0.1-0.2-0.1-0.3-0.2c0.2,0.2,0.4,0.3,0.6,0.5c-0.4-0.3-0.8-0.7-1.1-1.1c0.2,0.2,0.3,0.4,0.5,0.6
						c-0.3-0.4-0.6-0.9-0.8-1.4c0.1,0.2,0.2,0.5,0.3,0.7c-0.1-0.3-0.2-0.5-0.2-0.8c0,0.3,0.1,0.5,0.1,0.8c0-0.2,0-0.4,0-0.6
						c0,0.3-0.1,0.5-0.1,0.8c0-0.2,0.1-0.3,0.1-0.5c-0.1,0.2-0.2,0.5-0.3,0.7c0.1-0.1,0.1-0.2,0.2-0.3c-0.2,0.2-0.3,0.4-0.5,0.6
						c0.1-0.1,0.1-0.1,0.2-0.2c-0.2,0.2-0.4,0.3-0.6,0.5c0.1-0.1,0.2-0.1,0.3-0.1c-0.2,0.1-0.5,0.2-0.7,0.3c0.1,0,0.2-0.1,0.3-0.1
						c-0.3,0-0.5,0.1-0.8,0.1c0.1,0,0.2,0,0.2,0c-0.3,0-0.5-0.1-0.8-0.1c0.1,0,0.2,0,0.3,0.1c-0.2-0.1-0.5-0.2-0.7-0.3
						c0.2,0.1,0.3,0.2,0.4,0.3c-0.2-0.2-0.4-0.3-0.6-0.5c0.2,0.1,0.3,0.3,0.4,0.4c-0.2-0.2-0.3-0.4-0.5-0.6c0.2,0.2,0.3,0.4,0.4,0.7
						c-0.1-0.2-0.2-0.5-0.3-0.7c0.1,0.2,0.1,0.3,0.1,0.5c0-0.3-0.1-0.5-0.1-0.8c0,0.1,0,0.3,0,0.4c0-0.3,0.1-0.5,0.1-0.8
						c0,0.1,0,0.2-0.1,0.3c0.1-0.2,0.2-0.5,0.3-0.7c-0.1,0.1-0.1,0.2-0.2,0.3c0.2-0.2,0.3-0.4,0.5-0.6c-0.1,0.1-0.1,0.1-0.2,0.2
						c0.2-0.2,0.4-0.3,0.6-0.5c-0.1,0.1-0.2,0.1-0.2,0.1c0.2-0.1,0.5-0.2,0.7-0.3c-0.1,0-0.1,0-0.2,0.1c0.3,0,0.5-0.1,0.8-0.1
						c-0.1,0-0.1,0-0.2,0c0.3,0,0.5,0.1,0.8,0.1c-0.1,0-0.2,0-0.3-0.1c0.2,0.1,0.5,0.2,0.7,0.3c-0.1-0.1-0.2-0.1-0.4-0.2
						c0.2,0.2,0.4,0.3,0.6,0.5c-0.2-0.2-0.5-0.4-0.7-0.7c0.2,0.2,0.3,0.4,0.5,0.6c-0.2-0.2-0.3-0.5-0.4-0.7c0.1,0.2,0.2,0.5,0.3,0.7
						c0-0.1-0.1-0.2-0.1-0.2c-0.3-0.7-0.7-1.4-1.4-1.8c-0.6-0.4-1.6-0.5-2.3-0.3c-0.7,0.2-1.4,0.7-1.8,1.4c-0.4,0.7-0.6,1.6-0.3,2.3
						c0.4,1,0.8,1.9,1.6,2.6c0.3,0.4,0.8,0.7,1.2,0.9c0.3,0.2,0.6,0.3,1,0.4c0.1,0,0.2,0,0.2,0.1c0.3,0.1,0.6,0.1,0.9,0.1
						c0.7,0,1.4-0.2,2-0.6c0.3-0.2,0.6-0.4,0.8-0.7c0.2-0.3,0.5-0.6,0.7-0.9c0.6-1.1,0.7-2.4,0.3-3.7c-0.2-0.5-0.4-1-0.7-1.4
						c-0.2-0.3-0.4-0.6-0.7-0.8c-0.3-0.3-0.6-0.5-0.9-0.7c-0.1-0.1-0.2-0.1-0.4-0.2c-0.3-0.1-0.6-0.3-1-0.4c-1-0.2-1.9-0.1-2.9,0.4
						c-0.2,0.1-0.4,0.2-0.6,0.4c-0.2,0.1-0.4,0.3-0.5,0.4c-0.5,0.5-0.9,1.2-1.1,1.9c-0.3,1-0.2,2.2,0.2,3.2c0.2,0.5,0.4,1,0.7,1.5
						c0.3,0.5,0.6,0.9,0.9,1.3c0.5,0.7,1.2,1.2,2,1.7c0.6,0.4,1.6,0.5,2.3,0.3c0.7-0.2,1.5-0.7,1.8-1.4c0.4-0.7,0.6-1.5,0.3-2.3
						c-0.1-0.2-0.2-0.5-0.3-0.7C214.4,67.5,214,67.2,213.6,66.9L213.6,66.9z"/>
				</g>
			</g>
		</g>
		<g>
			<path class="st4" d="M390.6,62.3c-10.6,7.1-38.2,19.4-51,24.9c-4.4-7.9-9.1-11.3-12.2-17.8c-9.1,6.7-18.3,13.3-27.4,20
				c2.8-8.6,7.5-16.5,12.1-24.2c5.4-9.1,10.9-18.3,16.3-27.4c5.3,5.7,9.8,12.2,13.3,19.1c4.5-6.1,26.9-35.1,31.4-41.2
				C378.2,25.3,389.3,51.5,390.6,62.3"/>
			<g>
				<path d="M389.8,61c-5.8,3.9-12.1,6.9-18.3,10c-7.4,3.6-14.9,7.1-22.5,10.4c-3.4,1.5-6.8,3-10.3,4.5c0.7,0.2,1.4,0.4,2.1,0.5
					c-1.9-3.3-4.2-6.4-6.6-9.4c-2.1-2.6-4.1-5.3-5.6-8.4c-0.3-0.7-1.4-1-2.1-0.5c-9.1,6.7-18.3,13.3-27.4,20
					c0.7,0.6,1.5,1.1,2.2,1.7c3-9,7.9-17.1,12.7-25.2c5.2-8.7,10.3-17.4,15.5-26.1c-0.8,0.1-1.6,0.2-2.4,0.3
					c5.2,5.6,9.6,12,13.1,18.8c0.6,1.1,2,0.8,2.6,0c8.6-11.5,17.5-22.9,26.2-34.3c1.7-2.3,3.5-4.6,5.2-6.9c-0.9,0-1.7,0-2.6,0
					c2.9,5.4,5.4,11,7.8,16.6c2.8,6.7,5.5,13.5,7.6,20.5c0.9,2.8,1.7,5.8,2.1,8.7c0.2,1.9,3.2,1.9,3,0c-0.7-6.2-2.9-12.3-5.1-18.1
					c-2.6-7-5.4-13.9-8.5-20.7c-1.3-2.9-2.7-5.7-4.2-8.5c-0.6-1.1-2-0.9-2.6,0c-8.6,11.5-17.5,22.9-26.2,34.3
					c-1.7,2.3-3.5,4.6-5.2,6.9c0.9,0,1.7,0,2.6,0c-3.6-7.1-8.1-13.6-13.5-19.5c-0.7-0.7-1.9-0.5-2.4,0.3
					c-5.3,8.9-10.5,17.7-15.8,26.6c-4.8,8.2-9.7,16.4-12.7,25.5c-0.4,1.2,1.1,2.5,2.2,1.7c9.1-6.7,18.3-13.3,27.4-20
					c-0.7-0.2-1.4-0.4-2.1-0.5c1.5,3.1,3.5,5.7,5.6,8.4c2.4,3,4.7,6,6.6,9.4c0.4,0.8,1.3,0.9,2.1,0.5c14.2-6,28.3-12.3,41.9-19.6
					c3.1-1.7,6.2-3.4,9.1-5.3C392.9,62.5,391.4,59.9,389.8,61L389.8,61z"/>
			</g>
		</g>
		<g>
			<path class="st4" d="M122.3,206.1c9-4.7,18.2-9.2,27.6-13.3c-4-4.6-8.4-8.9-13.2-12.8c8.2-3.9,9.4-7.7,17.5-11.6
				c-7.1-1.3-10.9,0-18.1,0.3c-8.5,0.4-13.6-0.4-22.1,0c2,5.9,4.9,11.5,8.4,16.6c-6,0.9-12,1.7-18,2.6c4.7,7.3,10.9,13.7,18.1,18.6"
				/>
			<g>
				<path d="M123.1,207.4c9-4.7,18.2-9.2,27.6-13.3c0.9-0.4,0.9-1.7,0.3-2.4c-4-4.6-8.5-8.9-13.2-12.8c-0.1,0.8-0.2,1.6-0.3,2.4
					c6.4-3.1,11.1-8.5,17.5-11.6c1.1-0.5,0.9-2.5-0.4-2.7c-3.2-0.6-6.5-0.7-9.8-0.5c-3.4,0.3-6.8,0.7-10.2,0.8
					c-6.9,0.2-13.8-0.3-20.7,0c-0.9,0-1.8,0.9-1.4,1.9c2.1,6,4.9,11.7,8.6,17c0.3-0.7,0.6-1.5,0.9-2.2c-6,0.9-12,1.7-18,2.6
					c-0.9,0.1-1.4,1.5-0.9,2.2c4.9,7.5,11.2,14,18.6,19.2c1.6,1.1,3.1-1.5,1.5-2.6c-6.9-4.9-12.9-11-17.5-18.1
					c-0.3,0.7-0.6,1.5-0.9,2.2c6-0.9,12-1.7,18-2.6c0.9-0.1,1.4-1.5,0.9-2.2c-3.5-5-6.3-10.5-8.3-16.3c-0.5,0.6-1,1.3-1.4,1.9
					c6.7-0.3,13.5,0.2,20.2,0.1c6.6-0.2,13.1-1.5,19.6-0.4c-0.1-0.9-0.2-1.8-0.4-2.7c-6.4,3.1-11.1,8.5-17.5,11.6
					c-0.8,0.4-1,1.8-0.3,2.4c4.7,3.9,9.2,8.2,13.2,12.8c0.1-0.8,0.2-1.6,0.3-2.4c-9.3,4.1-18.5,8.5-27.6,13.3
					C119.8,205.7,121.4,208.3,123.1,207.4L123.1,207.4z"/>
			</g>
		</g>
		<g>
			<path class="st10" d="M335.1,228.7c-7.8-6.6-15.8-12.9-24.1-18.9c4.9-3.7,10.2-6.9,15.6-9.7c-7.1-5.6-7.5-9.5-14.6-15.1
				c7.2,0.3,10.6,2.3,17.6,4.1c8.2,2.2,13.4,2.6,21.6,4.7c-3.2,5.3-7.2,10.2-11.8,14.4c5.7,2.1,11.3,4.3,17,6.4
				c-6.2,6.1-13.6,11-21.6,14.4"/>
			<g>
				<path d="M336.2,227.6c-7.9-6.6-16.1-13-24.4-19.1c0,0.9,0,1.7,0,2.6c4.9-3.7,10.2-6.9,15.6-9.7c0.8-0.4,1-1.8,0.3-2.4
					c-5.6-4.4-9.1-10.7-14.6-15.1c-0.4,0.9-0.7,1.7-1.1,2.6c6.6,0.3,12.5,2.9,18.8,4.5c6.6,1.6,13.4,2.6,20,4.3
					c-0.3-0.7-0.6-1.5-0.9-2.2c-3.2,5.2-7.1,10-11.6,14.1c-0.9,0.8-0.3,2.1,0.7,2.5c5.7,2.1,11.3,4.3,17,6.4
					c-0.2-0.8-0.4-1.7-0.7-2.5c-6,5.9-13.1,10.7-21,14c-0.8,0.3-1.3,1-1,1.8c0.2,0.7,1.1,1.4,1.8,1c8.3-3.5,15.9-8.4,22.3-14.7
					c0.9-0.8,0.4-2.1-0.7-2.5c-5.7-2.1-11.3-4.3-17-6.4c0.2,0.8,0.4,1.7,0.7,2.5c4.7-4.3,8.7-9.3,12-14.7c0.5-0.8,0-2-0.9-2.2
					c-6.7-1.8-13.7-2.7-20.4-4.4c-3.2-0.8-6.4-1.9-9.5-2.8c-3.1-0.9-6.4-1.5-9.6-1.6c-1.2-0.1-2.1,1.7-1.1,2.6
					c5.6,4.4,9.1,10.7,14.6,15.1c0.1-0.8,0.2-1.6,0.3-2.4c-5.5,2.8-10.7,6-15.6,9.7c-1,0.7-1,1.9,0,2.6c8.1,5.9,16.1,12.1,23.8,18.6
					C335.6,231,337.7,228.9,336.2,227.6L336.2,227.6z"/>
			</g>
		</g>
	</g>
</g>
<g>
	<g>
		<path d="M406.7,180.6c-6.8,0-13.5,0-20.3,0c-17.4,0-34.8,0-52.2,0c-23.9,0-47.8,0-71.8,0c-26.4,0-52.9,0-79.3,0
			c-24.7,0-49.5,0-74.2,0c-18.9,0-37.8,0-56.7,0c-9,0-18,0-27,0c-9.3,0-16.6-6.9-16.7-16.4c0-5.9,0-11.8,0-17.6c0-24.5,0-49,0-73.5
			c0-15.5-0.2-31.1,0-46.6c0.1-8.8,7.1-15.8,15.9-15.9c0.5,0,1,0,1.5,0c3.5,0,6.9,0,10.4,0c15.3,0,30.5,0,45.8,0
			c22.7,0,45.4,0,68.2,0c26.1,0,52.3,0,78.4,0c25.5,0,50.9,0,76.4,0c20.8,0,41.6,0,62.4,0c11.8,0,23.5,0,35.3,0
			c4.1,0,8-0.1,11.8,2.1c5.2,3,8,8.4,8,14.3c0,2,0,4.1,0,6.1c0,21.9,0,43.9,0,65.8c0,20.7,0,41.4,0,62c0,1.2,0,2.5,0,3.7
			C422.5,173.5,415.5,180.5,406.7,180.6c-1.9,0-1.9,3,0,3c9-0.1,17.1-6.6,18.6-15.6c0.3-2,0.3-4,0.3-6.1c0-7.8,0-15.7,0-23.5
			c0-25.5,0-51,0-76.5c0-9.4,0-18.8,0-28.2c0-2.2,0-4.4,0-6.6c0-5.3-1.8-10.4-5.7-14.2c-4.5-4.4-10.1-5.3-16-5.3
			c-4.2,0-8.4,0-12.7,0c-16.5,0-33,0-49.5,0c-23.7,0-47.4,0-71.1,0c-26.7,0-53.4,0-80.1,0c-25.3,0-50.5,0-75.8,0
			c-19.8,0-39.6,0-59.3,0c-9.9,0-19.7,0-29.6,0c-0.8,0-1.6,0-2.4,0C14.5,8.2,7,15,5.8,23.8C5.1,28.7,5.6,34,5.6,38.9c0,24,0,48,0,72
			c0,17.7-0.1,35.5,0,53.2c0,10.8,8.3,19.4,19.2,19.5c2.6,0,5.3,0,7.9,0c14.2,0,28.3,0,42.5,0c22.3,0,44.6,0,66.9,0
			c26.4,0,52.8,0,79.2,0c26,0,51.9,0,77.9,0c21.5,0,43.1,0,64.6,0c12.7,0,25.3,0,38,0c1.7,0,3.3,0,5,0
			C408.6,183.6,408.6,180.6,406.7,180.6z"/>
	</g>
</g>
</svg>
