<?xml version="1.0" encoding="utf-8"?>
<!-- Generator: Adobe Illustrator 24.2.0, SVG Export Plug-In . SVG Version: 6.00 Build 0)  -->
<svg version="1.1" id="Layer_1" xmlns="http://www.w3.org/2000/svg" xmlns:xlink="http://www.w3.org/1999/xlink" x="0px" y="0px"
	 viewBox="0 0 196.8 43.5" style="enable-background:new 0 0 196.8 43.5;" xml:space="preserve">
<style type="text/css">
	.st0{fill:#FFDA83;stroke:#000000;stroke-width:0.4223;stroke-miterlimit:10;}
	.st1{fill:#BC985E;}
	.st2{fill:#AA8441;}
	.st3{fill:url(#SVGID_1_);}
	.st4{fill:#422D0C;}
	.st5{opacity:0.3;fill:#FFFFFF;}
	.st6{fill:url(#SVGID_2_);}
	.st7{opacity:0.6;fill:#FFFFFF;}
	.st8{fill:#FFFFFF;}
	.st9{fill:#D8A505;}
	.st10{fill:#FFE9B5;}
	.st11{fill:#F7C402;}
	.st12{opacity:0.63;fill:#FFF2D7;}
</style>
<g>
	<g>
		<g>
			<path class="st0" d="M182.9,8.5H14c-6.4,0-11.6,5.8-11.6,12.9S7.6,34.2,14,34.2h168.9c6.4,0,11.6-5.8,11.6-12.9
				S189.3,8.5,182.9,8.5z M180.4,29.9H16c-5.1,0-9.3-4-9.3-8.9s4.2-8.9,9.3-8.9h164.4c5.1,0,9.3,4,9.3,8.9S185.6,29.9,180.4,29.9z"
				/>
			<path d="M182.9,7H14C6.9,7,1.1,13.5,1.1,21.3c0,7.9,5.8,14.3,12.9,14.3h168.9c7.1,0,12.9-6.4,12.9-14.3C195.8,13.5,190,7,182.9,7
				z M182.9,34.9H14c-6.7,0-12.2-6.1-12.2-13.6v0C1.7,13.9,7.2,7.8,14,7.8h168.9c6.7,0,12.3,6.1,12.3,13.6v0
				C195.2,28.8,189.7,34.9,182.9,34.9z"/>
			<path d="M182.9,7.8H14c-6.7,0-12.2,6.1-12.2,13.6v0c0,7.5,5.5,13.6,12.2,13.6h168.9c6.7,0,12.3-6.1,12.3-13.6v0
				C195.2,13.9,189.7,7.8,182.9,7.8z M182.9,34.2H14c-6.4,0-11.6-5.8-11.6-12.9S7.6,8.5,14,8.5h168.9c6.4,0,11.6,5.8,11.6,12.9
				S189.3,34.2,182.9,34.2z"/>
			<g>
				<path class="st1" d="M16,27.5h164.9c4.2,0,7.7-3.2,8.2-7.3c-0.5-4.1-4-7.3-8.2-7.3H16c-4.2,0-7.7,3.2-8.2,7.3
					C8.3,24.2,11.8,27.5,16,27.5z"/>
				<path class="st2" d="M180.9,27.5H16c-4.2,0-7.7-3.2-8.2-7.3c0,0.3-0.1,0.6-0.1,0.9c0,4.5,3.7,8.2,8.2,8.2h164.9
					c4.5,0,8.2-3.7,8.2-8.2c0-0.3,0-0.6-0.1-0.9C188.7,24.2,185.2,27.5,180.9,27.5z"/>
				<linearGradient id="SVGID_1_" gradientUnits="userSpaceOnUse" x1="98.4688" y1="27.6816" x2="98.4688" y2="11.043">
					<stop  offset="0.3584" style="stop-color:#BC985E"/>
					<stop  offset="0.7626" style="stop-color:#543B0F"/>
				</linearGradient>
				<path class="st3" d="M16,23.8h164.9c4.2,0,7.7-6.1,8.2-1.9c0-0.3,0.1-0.6,0.1-0.9c0-4.5-3.7-8.2-8.2-8.2H16
					c-4.5,0-8.2,3.7-8.2,8.2c0,0.3,0,0.6,0.1,0.9C8.3,17.7,11.8,23.8,16,23.8z"/>
				<path class="st4" d="M16,14.3h164.9c4.2,0,7.7,3.2,8.2,7.3c0-0.3,0.1-0.6,0.1-0.9c0-4.5-3.7-8.2-8.2-8.2H16
					c-4.5,0-8.2,3.7-8.2,8.2c0,0.3,0,0.6,0.1,0.9C8.3,17.5,11.8,14.3,16,14.3z"/>
			</g>
			<path d="M180.9,11.7H16c-5.1,0-9.3,4.2-9.3,9.3s4.2,9.3,9.3,9.3h164.9c5.1,0,9.3-4.2,9.3-9.3S186.1,11.7,180.9,11.7z M189.7,21
				c0,4.8-4,8.8-8.8,8.8H16c-4.8,0-8.8-4-8.8-8.8v0c0-4.8,4-8.8,8.8-8.8h164.9C185.7,12.2,189.7,16.2,189.7,21L189.7,21z"/>
			<path d="M180.9,12.2H16c-4.8,0-8.8,4-8.8,8.8v0c0,4.8,4,8.8,8.8,8.8h164.9c4.8,0,8.8-4,8.8-8.8v0
				C189.7,16.2,185.7,12.2,180.9,12.2z M180.9,29.3H16c-4.5,0-8.2-3.7-8.2-8.2s3.7-8.2,8.2-8.2h164.9c4.5,0,8.2,3.7,8.2,8.2
				S185.5,29.3,180.9,29.3z"/>
		</g>
		<g>
			<polygon class="st5" points="77.6,18.8 69.2,29.1 73.3,29.1 81.6,18.8 			"/>
			<polygon class="st5" points="38.5,18.8 30.1,29.1 34.1,29.1 42.5,18.8 			"/>
			<polygon class="st5" points="118.4,18.8 110,29.1 114.1,29.1 122.4,18.8 			"/>
			<polygon class="st5" points="155.7,18.8 147.3,29.1 151.3,29.1 159.7,18.8 			"/>
		</g>
	</g>
</g>
<g>
	<linearGradient id="SVGID_2_" gradientUnits="userSpaceOnUse" x1="44.2179" y1="33.6351" x2="44.2179" y2="-9.4409">
		<stop  offset="8.072251e-02" style="stop-color:#00384D"/>
		<stop  offset="0.1815" style="stop-color:#4BB7BF"/>
		<stop  offset="0.3691" style="stop-color:#4BB7BF"/>
		<stop  offset="0.3835" style="stop-color:#4BB7BF"/>
		<stop  offset="0.4947" style="stop-color:#1A6474"/>
		<stop  offset="0.5514" style="stop-color:#00384D"/>
	</linearGradient>
	<path class="st6" d="M72.5,29.1H15.9c-4.5,0-8.1-3.7-8.1-8.1v0c0-4.5,3.7-8.1,8.1-8.1h56.6c4.5,0,8.1,3.7,8.1,8.1v0
		C80.6,25.5,77,29.1,72.5,29.1z"/>
	<path class="st7" d="M79.1,21.4c0-4.3-3.5-7.8-7.7-7.8H16.7c-4.3,0-7.7,3.5-7.7,7.8v0.7c0,0.4,0,0.7,0.1,1.1
		c0.5-3.8,3.8-6.7,7.7-6.7h54.6c3.9,0,7.1,2.9,7.7,6.7c0.1-0.4,0.1-0.7,0.1-1.1V21.4z"/>
</g>
<g>
	<path class="st8" d="M73,41.6c-1.2,0-2.4-0.3-3.4-1c-1.5-0.9-2.6-2.5-3-4.3l0-0.1l-0.9-6.1l-5.6-2.6c-2.3-1-3.7-3.3-3.7-5.9
		c0-2.4,1.3-4.6,3.5-5.8l5.5-2.9l0.8-6.2c0.4-2.5,2.1-4.5,4.4-5.3c2.4-0.8,4.9-0.2,6.7,1.6l4.4,4.4l5.9-1.2C90,5.9,92.4,6.7,94,8.5
		c0.1,0.1,0.2,0.2,0.2,0.3c1.4,1.9,1.6,4.5,0.6,6.7l0,0.1L91.9,21c0,0,0,0.1,0,0.1l2.8,5.3c0.9,1.5,1.1,3.5,0.4,5.3
		c0,0.1-0.1,0.2-0.1,0.3c-0.8,1.8-2.2,3.1-3.9,3.7c-1,0.4-2.1,0.5-3.2,0.2l-5.9-0.9l-4.3,4.5c-0.6,0.6-1.5,1.4-2.8,1.7
		C74.3,41.5,73.7,41.6,73,41.6z M69.8,35.7c0.2,1,0.8,1.8,1.6,2.3c0.8,0.5,1.8,0.6,2.8,0.3l0.1,0c0.5-0.1,1-0.5,1.3-0.9l4.3-4.5
		c0.3-0.4,0.8-0.6,1.1-0.8l0.2-0.1c0.5-0.1,1-0.1,1.4-0.1l6,0.9c0.6,0.1,1.1,0.1,1.5-0.1c1-0.3,1.7-1,2.1-2c0.3-1,0.3-2-0.2-2.7
		L92,28l-3-5.5c-0.6-1.3-0.3-2.3,0.1-2.9l2.8-5.4c0.5-1.2,0.4-2.5-0.3-3.5c-0.9-1-2.1-1.5-3.4-1.2l-5.8,1.1c-1,0.2-2.1-0.1-2.8-0.8
		l-4.4-4.4C74.2,4.3,73,4,71.7,4.4c-1.2,0.4-2.1,1.4-2.3,2.8l-0.8,6.2c-0.1,1-0.7,1.9-1.7,2.4l-5.4,2.8c-1.1,0.6-1.9,1.8-1.9,3
		c0,1.3,0.7,2.5,1.9,3l5.6,2.6c0.9,0.4,1.5,1.2,1.7,2.2l0,0.1L69.8,35.7z M82.3,34.8C82.3,34.8,82.3,34.8,82.3,34.8
		C82.3,34.8,82.3,34.8,82.3,34.8z M91.9,21L91.9,21L91.9,21z M65.5,13C65.5,13,65.5,13,65.5,13L65.5,13z"/>
	<g>
		<g>
			<path d="M73,40c-0.9,0-1.8-0.2-2.6-0.7c-1.2-0.7-2-1.9-2.3-3.3l-1-6.2c-0.1-0.3-0.3-0.8-0.9-1.1l-5.6-2.6
				c-1.7-0.8-2.8-2.5-2.8-4.5c0-1.8,1-3.5,2.7-4.4l5.5-2.8c0.5-0.2,0.8-0.7,0.8-1.2L67.8,7c0.3-1.9,1.6-3.4,3.4-4
				c1.8-0.6,3.7-0.1,5.1,1.2l4.4,4.4C81,9,81.5,9.1,82.1,9l5.9-1.2c1.8-0.3,3.6,0.4,4.8,1.8c0,0,0.1,0.1,0.1,0.1
				c1,1.5,1.2,3.4,0.5,5.1l-2.9,5.5c-0.2,0.4-0.2,0.9,0,1.5l2.9,5.4c0.7,1.1,0.8,2.6,0.3,4.1c0,0,0,0.1-0.1,0.1
				c-0.6,1.4-1.7,2.4-3,2.8c-0.7,0.3-1.5,0.3-2.4,0.2l-6-0.9c-0.3,0-0.6,0-0.7,0.1c-0.3,0.1-0.4,0.2-0.5,0.3c0,0-0.1,0.1-0.1,0.1
				l-4.3,4.5c-0.5,0.5-1.1,1.1-2.1,1.3C74,39.9,73.5,40,73,40z M72.8,5.9c-0.2,0-0.4,0-0.6,0.1c-0.7,0.2-1.1,0.8-1.3,1.5l-0.8,6.1
				c-0.2,1.6-1.2,3-2.6,3.6L62.2,20c-0.6,0.3-1,1-1,1.6c0,0.7,0.4,1.3,1,1.6l5.6,2.6c1.4,0.6,2.3,1.9,2.6,3.4l1,6.1
				c0.1,0.3,0.3,0.9,0.9,1.2c0.4,0.3,1,0.3,1.5,0.2c0.1,0,0.1,0,0.2-0.1c0.1,0,0.3-0.2,0.6-0.4l4.2-4.4c0.5-0.7,1.2-1,1.9-1.3
				c0.1,0,0.1,0,0.2-0.1c0.6-0.1,1.3-0.3,2.2-0.1l6,0.9c0.4,0.1,0.6,0,0.7,0c0,0,0.1,0,0.1,0c0.5-0.2,0.9-0.5,1.1-1.1
				c0.2-0.6,0.1-1.1-0.1-1.4l-3-5.5c0,0,0-0.1-0.1-0.1c-0.7-1.5-0.6-3,0.1-4.3l2.8-5.4c0.3-0.6,0.2-1.3-0.2-1.9
				c-0.5-0.5-1.2-0.8-1.9-0.7l-5.8,1.1c-1.5,0.3-3.1-0.2-4.2-1.3L74,6.4C73.8,6.1,73.3,5.9,72.8,5.9z"/>
			<path class="st9" d="M90.1,32.8c-0.5,0.2-1,0.2-1.6,0.1L82.5,32c-0.5-0.1-1,0-1.5,0.1c-0.5,0.2-0.9,0.4-1.3,0.8l-4.3,4.5
				c-0.4,0.4-0.8,0.7-1.4,0.8c-0.9,0.3-2,0.2-2.8-0.3c-0.8-0.5-1.4-1.4-1.6-2.3l-0.9-6.1c-0.2-1-0.8-1.9-1.8-2.3l-5.5-2.6
				c-1.2-0.5-1.9-1.7-1.9-3c0-1.3,0.7-2.4,1.9-3l5.4-2.8c0.9-0.4,1.6-1.4,1.7-2.4l0.8-6.2c0.2-1.3,1-2.3,2.3-2.7
				c1.3-0.4,2.5-0.1,3.5,0.8l4.4,4.4c0.7,0.7,1.8,1,2.8,0.8l5.9-1.2c1.3-0.2,2.5,0.3,3.3,1.3c0.7,1,0.8,2.4,0.3,3.6l-2.8,5.4
				c-0.5,0.9-0.4,2,0,2.9L92,28c0.5,0.8,0.5,1.9,0.2,2.8C91.8,31.8,91,32.5,90.1,32.8L90.1,32.8z"/>
			<path class="st10" d="M87.6,23.4c0,0,0-0.1-0.1-0.1c-0.7-1.5-0.6-3,0.1-4.2l2.7-5.3c0.2-0.6,0.2-1.3-0.2-1.8
				c-0.5-0.5-1.2-0.8-1.8-0.7l-5.7,1.1c-1.5,0.3-3.1-0.2-4.2-1.2l-4.3-4.3c-0.3-0.3-0.7-0.5-1.2-0.5c-0.2,0-0.4,0-0.6,0.1
				c-0.7,0.2-1.1,0.8-1.2,1.5l-0.8,6c-0.2,1.5-1.1,2.9-2.5,3.6l-5.3,2.7c-0.6,0.3-1,1-1,1.6c0,0.7,0.4,1.3,0.9,1.6l5.5,2.6
				c1.3,0.6,2.3,1.8,2.6,3.3l0.9,6c0.1,0.3,0.3,0.8,0.8,1.2c0.4,0.3,1,0.3,1.5,0.2c0.1,0,0.1,0,0.2,0c0.1,0,0.3-0.2,0.5-0.4l4.1-4.3
				c0.5-0.7,1.2-1,1.8-1.2c0.1,0,0.1,0,0.2-0.1c0.6-0.1,1.3-0.3,2.1-0.1l5.9,0.9c0.4,0.1,0.6,0,0.7,0c0,0,0.1,0,0.1,0
				c0.5-0.2,0.9-0.5,1.1-1c0.2-0.5,0.1-1.1-0.1-1.4L87.6,23.4z"/>
			<path class="st11" d="M88.2,23.5c0,0,0-0.1-0.1-0.1c-0.7-1.6-0.7-3.1,0.1-4.5l2.9-5.6c0.3-0.6,0.2-1.3-0.2-1.9
				c-0.5-0.5-1.3-0.8-1.9-0.7l-6,1.2c-1.6,0.3-3.2-0.2-4.4-1.3L74.1,6c-0.3-0.3-0.7-0.6-1.3-0.6c-0.2,0-0.4,0-0.6,0.1
				c-0.7,0.2-1.2,0.8-1.3,1.5l-0.9,6.3c-0.2,1.6-1.2,3.1-2.7,3.7L61.9,20c-0.6,0.4-1.1,1-1.1,1.7c0,0.8,0.4,1.4,1,1.7l5.8,2.7
				c1.4,0.6,2.4,1.9,2.7,3.5l1,6.3c0.1,0.3,0.3,0.9,0.9,1.3c0.4,0.3,1,0.3,1.5,0.2c0.1,0,0.1,0,0.2-0.1c0.1,0,0.3-0.2,0.6-0.4
				l4.3-4.6c0.6-0.7,1.3-1,1.9-1.3c0.1,0,0.1,0,0.2-0.1c0.6-0.1,1.4-0.3,2.2-0.1l6.2,1c0.4,0.1,0.6,0,0.8,0c0,0,0.1,0,0.1,0
				c0.5-0.2,0.9-0.6,1.2-1.1c0.2-0.6,0.1-1.1-0.1-1.5L88.2,23.5z"/>
		</g>
		<g>
			<g>
				<g>
					<path d="M80.7,19.4c2,0,2-3.1,0-3.1C78.7,16.3,78.7,19.4,80.7,19.4L80.7,19.4z"/>
					<path d="M80.7,20c-1.3,0-2-1.1-2-2.1s0.7-2.1,2-2.1c1.3,0,2,1.1,2,2.1S82,20,80.7,20z M80.7,16.8c-0.7,0-1,0.6-1,1s0.3,1,1,1
						c0.7,0,1-0.6,1-1S81.4,16.8,80.7,16.8z"/>
				</g>
			</g>
			<g>
				<g>
					<path d="M72.3,22.6c2,0,2-3.1,0-3.1S70.3,22.6,72.3,22.6L72.3,22.6z"/>
					<path d="M72.3,23.1c-1.3,0-2-1.1-2-2.1c0-1,0.7-2.1,2-2.1c1.3,0,2,1.1,2,2.1C74.3,22,73.6,23.1,72.3,23.1z M72.3,20
						c-0.7,0-1,0.6-1,1s0.3,1,1,1c0.7,0,1-0.6,1-1S73,20,72.3,20z"/>
				</g>
			</g>
		</g>
		<path class="st12" d="M73.4,6.6l5,5.5c1,1,2.4,1.4,3.8,1.1l5.2-1c0.6-0.1,2-0.2,2.5,0.2c0.6,0.6-0.1,3.7-0.1,3.7l1.4-2.8
			c0.3-0.6,0.2-1.3-0.2-1.9c-0.5-0.5-1.3-0.8-1.9-0.7l-6,1.2c-1.6,0.3-3.2-0.2-4.4-1.3L74.1,6c-0.3-0.3-0.7-0.6-1.3-0.6
			c-0.2,0-0.4,0-0.6,0.1c-0.4,0.1-0.7,0.3-0.9,0.6C71.3,6.2,72.1,5.8,73.4,6.6z"/>
		<path d="M78.5,25.7c-1,0-1.8-0.4-1.8-0.4c-0.4-0.2-0.5-0.7-0.3-1c0.2-0.4,0.7-0.5,1-0.3c0,0,1,0.5,1.8,0.1c1-0.5,1.1-1.3,1.1-1.3
			c0-0.4,0.4-0.8,0.8-0.7c0.4,0,0.8,0.3,0.8,0.8c0,0.6-0.4,1.9-1.9,2.7C79.4,25.7,78.9,25.7,78.5,25.7z"/>
	</g>
</g>
</svg>
