<?xml version="1.0" encoding="utf-8"?>
<!-- Generator: Adobe Illustrator 24.2.0, SVG Export Plug-In . SVG Version: 6.00 Build 0)  -->
<svg version="1.1" id="Layer_1" xmlns="http://www.w3.org/2000/svg" xmlns:xlink="http://www.w3.org/1999/xlink" x="0px" y="0px"
	 viewBox="0 0 359.6 33.8" style="enable-background:new 0 0 359.6 33.8;" xml:space="preserve">
<style type="text/css">
	.st0{fill:#FFDA83;stroke:#000000;stroke-width:0.3597;stroke-miterlimit:10;}
	.st1{fill:#BC985E;}
	.st2{fill:#AA8441;}
	.st3{fill:url(#SVGID_1_);}
	.st4{fill:#422D0C;}
	.st5{opacity:0.3;fill:#FFFFFF;}
	.st6{fill:url(#SVGID_2_);}
	.st7{opacity:0.6;fill:#FFFFFF;}
	.st8{fill:none;stroke:#FFFFFF;stroke-width:2.4198;stroke-miterlimit:10;}
	.st9{fill:#D8A505;}
	.st10{fill:#FFE9B5;}
	.st11{fill:#F7C402;}
	.st12{fill:#E66869;}
	.st13{opacity:0.63;fill:#FFF2D7;}
</style>
<g>
	<g>
		<g>
			<path class="st0" d="M338.5,5.9H13.7c-5.5,0-9.9,4.9-9.9,11s4.4,11,9.9,11h324.8c5.4,0,9.9-4.9,9.9-11S344,5.9,338.5,5.9z
				 M336.4,24.2H15.5c-4.4,0-7.9-3.4-7.9-7.6S11.1,9,15.5,9h320.9c4.4,0,7.9,3.4,7.9,7.6S340.8,24.2,336.4,24.2z"/>
			<path d="M338.5,4.7H13.7c-6.1,0-11,5.5-11,12.2c0,6.7,4.9,12.2,11,12.2h324.8c6.1,0,11-5.5,11-12.2
				C349.5,10.2,344.6,4.7,338.5,4.7z M338.5,28.4H13.7C8,28.4,3.3,23.2,3.3,16.9v0C3.3,10.5,8,5.3,13.7,5.3h324.8
				c5.7,0,10.4,5.2,10.4,11.6v0C349,23.2,344.3,28.4,338.5,28.4z"/>
			<path d="M338.5,5.3H13.7C8,5.3,3.3,10.5,3.3,16.9v0c0,6.4,4.7,11.6,10.4,11.6h324.8c5.7,0,10.4-5.2,10.4-11.6v0
				C349,10.5,344.3,5.3,338.5,5.3z M338.5,27.8H13.7c-5.5,0-9.9-4.9-9.9-11s4.4-11,9.9-11h324.8c5.4,0,9.9,4.9,9.9,11
				S344,27.8,338.5,27.8z"/>
			<g>
				<path class="st1" d="M15.5,22.1h321.4c3.6,0,6.6-2.7,7-6.3c-0.4-3.5-3.4-6.3-7-6.3H15.5c-3.6,0-6.6,2.7-7,6.3
					C8.9,19.4,11.8,22.1,15.5,22.1z"/>
				<path class="st2" d="M336.8,22.1H15.5c-3.6,0-6.6-2.7-7-6.3c0,0.3,0,0.5,0,0.8c0,3.9,3.2,7,7,7h321.4c3.9,0,7-3.2,7-7
					c0-0.3,0-0.5,0-0.8C343.4,19.4,340.4,22.1,336.8,22.1z"/>
				<linearGradient id="SVGID_1_" gradientUnits="userSpaceOnUse" x1="176.1301" y1="22.2888" x2="176.1301" y2="8.1178">
					<stop  offset="0.3584" style="stop-color:#BC985E"/>
					<stop  offset="0.7626" style="stop-color:#543B0F"/>
				</linearGradient>
				<path class="st3" d="M15.5,19h321.4c3.6,0,6.6-5.2,7-1.7c0-0.3,0-0.5,0-0.8c0-3.9-3.2-7-7-7H15.5c-3.9,0-7,3.2-7,7
					c0,0.3,0,0.5,0,0.8C8.9,13.8,11.8,19,15.5,19z"/>
				<path class="st4" d="M15.5,10.9h321.4c3.6,0,6.6,2.7,7,6.3c0-0.3,0-0.5,0-0.8c0-3.9-3.2-7-7-7H15.5c-3.9,0-7,3.2-7,7
					c0,0.3,0,0.5,0,0.8C8.9,13.6,11.8,10.9,15.5,10.9z"/>
			</g>
			<path d="M336.8,8.7H15.5c-4.4,0-7.9,3.6-7.9,7.9s3.6,7.9,7.9,7.9h321.4c4.4,0,7.9-3.6,7.9-7.9S341.2,8.7,336.8,8.7z M344.3,16.6
				c0,4.1-3.4,7.5-7.5,7.5H15.5c-4.1,0-7.5-3.4-7.5-7.5v0c0-4.1,3.4-7.5,7.5-7.5h321.4C340.9,9.1,344.3,12.5,344.3,16.6L344.3,16.6z
				"/>
			<path d="M336.8,9.1H15.5c-4.1,0-7.5,3.4-7.5,7.5v0c0,4.1,3.4,7.5,7.5,7.5h321.4c4.1,0,7.5-3.4,7.5-7.5v0
				C344.3,12.5,340.9,9.1,336.8,9.1z M336.8,23.7H15.5c-3.9,0-7-3.2-7-7s3.2-7,7-7h321.4c3.9,0,7,3.2,7,7S340.7,23.7,336.8,23.7z"/>
		</g>
		<g>
			<polygon class="st5" points="139.2,14.8 129.9,23.6 136.6,23.6 146,14.8 			"/>
			<polygon class="st5" points="73.6,14.8 64.3,23.6 71,23.6 80.4,14.8 			"/>
			<polygon class="st5" points="207.6,14.8 198.2,23.6 205,23.6 214.4,14.8 			"/>
			<polygon class="st5" points="270.1,14.8 260.7,23.6 267.5,23.6 276.9,14.8 			"/>
		</g>
	</g>
	<g>
		<linearGradient id="SVGID_2_" gradientUnits="userSpaceOnUse" x1="175.8455" y1="27.5158" x2="175.8455" y2="-9.6806">
			<stop  offset="8.072251e-02" style="stop-color:#00384D"/>
			<stop  offset="0.1815" style="stop-color:#4BB7BF"/>
			<stop  offset="0.3691" style="stop-color:#4BB7BF"/>
			<stop  offset="0.3835" style="stop-color:#4BB7BF"/>
			<stop  offset="0.4947" style="stop-color:#1A6474"/>
			<stop  offset="0.5514" style="stop-color:#00384D"/>
		</linearGradient>
		<path class="st6" d="M336.2,23.6H15.5c-3.9,0-7-3.2-7-7v0c0-3.9,3.2-7,7-7h320.8c3.9,0,7,3.2,7,7v0
			C343.2,20.5,340.1,23.6,336.2,23.6z"/>
		<path class="st7" d="M342,17.2c0-3.7-3-6.7-6.7-6.7H16.3c-3.7,0-6.7,3-6.7,6.7v0.6c0,0.3,0,0.6,0.1,1c0.5-3.2,3.3-5.8,6.6-5.8
			h319.1c3.4,0,6.1,2.5,6.6,5.8c0-0.3,0.1-0.6,0.1-1V17.2z"/>
	</g>
</g>
<g>
	<path class="st8" d="M356,21.4l-2.2-4.1c-0.2-0.5-0.2-0.8,0-1.2l2.2-4.3c0.6-1.3,0.4-2.8-0.4-3.9c0,0-0.1-0.1-0.1-0.1
		c-1-1.1-2.3-1.6-3.7-1.4l-4.5,0.9c-0.4,0.1-0.8,0-1.1-0.3l-3.4-3.4c-1.1-1.1-2.5-1.4-3.9-0.9c-1.4,0.5-2.3,1.6-2.6,3.1l-0.7,4.8
		c0,0.4-0.3,0.7-0.6,0.9l-4.2,2.2c-1.3,0.7-2.1,2-2.1,3.4c0,1.5,0.8,2.8,2.1,3.4l4.3,2c0.4,0.2,0.6,0.6,0.7,0.9l0.7,4.8
		c0.2,1.1,0.9,2,1.7,2.5c0.6,0.4,1.3,0.6,2,0.6c0.4,0,0.8-0.1,1.2-0.2c0.7-0.2,1.2-0.6,1.6-1l3.3-3.5c0,0,0.1-0.1,0.1-0.1
		c0-0.1,0.1-0.1,0.4-0.2c0.1,0,0.4-0.1,0.6,0l4.6,0.7c0.7,0.1,1.3,0.1,1.9-0.1c1-0.3,1.8-1.1,2.3-2.2c0,0,0-0.1,0-0.1
		C356.7,23.4,356.6,22.2,356,21.4z"/>
	<g>
		<g>
			<path d="M340.3,31.3c-0.7,0-1.4-0.2-2-0.6c-0.9-0.6-1.5-1.5-1.7-2.5l-0.7-4.8c-0.1-0.3-0.2-0.7-0.7-0.9l-4.3-2
				c-1.3-0.6-2.1-1.9-2.1-3.4c0-1.4,0.8-2.7,2.1-3.4l4.2-2.2c0.4-0.2,0.6-0.5,0.6-0.9l0.7-4.8c0.2-1.5,1.2-2.6,2.6-3.1
				c1.4-0.5,2.8-0.1,3.9,0.9l3.4,3.4c0.3,0.3,0.7,0.4,1.1,0.3l4.5-0.9c1.4-0.2,2.8,0.3,3.7,1.4c0,0,0.1,0.1,0.1,0.1
				c0.8,1.1,0.9,2.7,0.4,3.9l-2.2,4.3c-0.2,0.3-0.2,0.7,0,1.2l2.2,4.1c0.5,0.8,0.6,2,0.2,3.1c0,0,0,0.1,0,0.1
				c-0.5,1.1-1.3,1.8-2.3,2.2c-0.6,0.2-1.2,0.3-1.9,0.1l-4.6-0.7c-0.2,0-0.4,0-0.6,0c-0.3,0.1-0.3,0.2-0.4,0.2c0,0-0.1,0.1-0.1,0.1
				l-3.3,3.5c-0.4,0.4-0.9,0.8-1.6,1C341.1,31.2,340.7,31.3,340.3,31.3z M340.1,4.9c-0.1,0-0.3,0-0.5,0.1c-0.5,0.2-0.9,0.6-1,1.1
				l-0.6,4.7c-0.1,1.2-0.9,2.3-2,2.8l-4.1,2.1c-0.5,0.3-0.8,0.8-0.8,1.3c0,0.6,0.3,1,0.7,1.2l4.3,2c1,0.5,1.8,1.4,2,2.6l0.7,4.7
				c0.1,0.2,0.2,0.7,0.7,0.9c0.3,0.2,0.8,0.3,1.2,0.1c0,0,0.1,0,0.1,0c0.1,0,0.2-0.1,0.4-0.3l3.2-3.4c0.4-0.5,0.9-0.8,1.4-1
				c0.1,0,0.1,0,0.2-0.1c0.4-0.1,1-0.2,1.7-0.1l4.6,0.7c0.3,0.1,0.5,0,0.6,0c0,0,0,0,0.1,0c0.4-0.1,0.7-0.4,0.9-0.8
				c0.1-0.4,0.1-0.8-0.1-1.1l-2.3-4.3c0,0,0-0.1,0-0.1c-0.5-1.2-0.5-2.4,0-3.3l2.2-4.2c0.2-0.4,0.2-1-0.1-1.4
				c-0.4-0.4-0.9-0.6-1.4-0.5l-4.5,0.9c-1.2,0.2-2.4-0.1-3.3-1l-3.4-3.4C340.9,5.2,340.6,4.9,340.1,4.9z"/>
			<path class="st9" d="M353.5,25.7c-0.4,0.2-0.8,0.2-1.2,0.1l-4.7-0.7c-0.4-0.1-0.8,0-1.1,0.1c-0.4,0.2-0.7,0.3-1,0.6l-3.3,3.5
				c-0.3,0.3-0.6,0.6-1,0.6c-0.7,0.2-1.5,0.2-2.2-0.2c-0.6-0.4-1-1-1.2-1.8l-0.7-4.7c-0.2-0.8-0.6-1.5-1.4-1.8l-4.3-2
				c-0.9-0.4-1.5-1.3-1.5-2.3c0-1,0.6-1.9,1.5-2.3l4.2-2.2c0.7-0.3,1.2-1,1.3-1.9l0.6-4.8c0.2-1,0.8-1.8,1.8-2.1s1.9-0.1,2.7,0.6
				l3.4,3.4c0.6,0.6,1.4,0.8,2.2,0.6l4.5-0.9c1-0.2,1.9,0.2,2.6,1c0.6,0.8,0.6,1.9,0.2,2.7l-2.2,4.2c-0.4,0.7-0.3,1.5,0,2.3l2.3,4.2
				c0.4,0.6,0.4,1.5,0.2,2.2C354.8,24.9,354.2,25.5,353.5,25.7L353.5,25.7z"/>
			<path class="st10" d="M351.5,18.5C351.5,18.4,351.5,18.4,351.5,18.5c-0.5-1.2-0.5-2.4,0-3.4l2.1-4.1c0.2-0.4,0.2-1-0.1-1.4
				c-0.4-0.4-0.9-0.6-1.4-0.5l-4.4,0.9c-1.2,0.2-2.4-0.1-3.2-1l-3.3-3.3c-0.2-0.2-0.5-0.4-0.9-0.4c-0.1,0-0.3,0-0.4,0.1
				c-0.5,0.2-0.9,0.6-0.9,1.1l-0.6,4.6c-0.1,1.2-0.9,2.3-2,2.7l-4,2.1c-0.5,0.3-0.8,0.7-0.8,1.2c0,0.6,0.3,1,0.7,1.2l4.2,2
				c1,0.5,1.8,1.4,2,2.6l0.7,4.6c0.1,0.2,0.2,0.7,0.6,0.9c0.3,0.2,0.7,0.2,1.1,0.1c0,0,0.1,0,0.1,0c0.1,0,0.2-0.1,0.4-0.3l3.2-3.3
				c0.4-0.5,0.9-0.8,1.4-1c0,0,0.1,0,0.2,0c0.4-0.1,1-0.2,1.6-0.1l4.5,0.7c0.3,0.1,0.5,0,0.6,0c0,0,0,0,0.1,0
				c0.4-0.1,0.7-0.4,0.8-0.8c0.1-0.4,0.1-0.8-0.1-1.1L351.5,18.5z"/>
			<path class="st11" d="M352,18.5C352,18.5,352,18.4,352,18.5c-0.6-1.3-0.6-2.5,0-3.5l2.2-4.3c0.2-0.4,0.2-1-0.1-1.5
				c-0.4-0.4-1-0.6-1.5-0.5l-4.6,0.9c-1.2,0.2-2.5-0.1-3.4-1L341.2,5c-0.2-0.2-0.6-0.4-1-0.4c-0.1,0-0.3,0-0.5,0.1
				c-0.5,0.2-0.9,0.6-1,1.2l-0.7,4.9c-0.1,1.3-0.9,2.4-2.1,2.9l-4.3,2.2c-0.5,0.3-0.8,0.8-0.8,1.3c0,0.6,0.3,1.1,0.8,1.3l4.4,2.1
				c1.1,0.5,1.9,1.5,2.1,2.7l0.8,4.9c0.1,0.2,0.2,0.7,0.7,1c0.3,0.2,0.8,0.3,1.2,0.1c0,0,0.1,0,0.1,0c0.1,0,0.2-0.1,0.4-0.3l3.4-3.5
				c0.4-0.5,1-0.8,1.5-1c0.1,0,0.1,0,0.2-0.1c0.5-0.1,1.1-0.2,1.7-0.1l4.8,0.7c0.3,0.1,0.5,0,0.6,0c0,0,0,0,0.1,0
				c0.4-0.1,0.7-0.4,0.9-0.9c0.1-0.4,0.1-0.9-0.1-1.1L352,18.5z"/>
		</g>
		<g>
			<g>
				<g>
					<path d="M346.2,15.4c1.5,0,1.5-2.4,0-2.4S344.7,15.4,346.2,15.4L346.2,15.4z"/>
					<path d="M346.2,15.8c-1,0-1.6-0.8-1.6-1.6c0-0.8,0.5-1.6,1.6-1.6c1,0,1.6,0.8,1.6,1.6C347.8,15,347.3,15.8,346.2,15.8z
						 M346.2,13.4c-0.6,0-0.7,0.4-0.7,0.8c0,0.4,0.2,0.8,0.7,0.8c0.6,0,0.7-0.4,0.7-0.8C347,13.8,346.8,13.4,346.2,13.4z"/>
				</g>
			</g>
			<g>
				<g>
					<path d="M339.8,17.8c1.5,0,1.5-2.4,0-2.4S338.3,17.8,339.8,17.8L339.8,17.8z"/>
					<path d="M339.8,18.2c-1,0-1.6-0.8-1.6-1.6s0.5-1.6,1.6-1.6c1,0,1.6,0.8,1.6,1.6S340.8,18.2,339.8,18.2z M339.8,15.8
						c-0.6,0-0.7,0.4-0.7,0.8c0,0.4,0.2,0.8,0.7,0.8c0.6,0,0.7-0.4,0.7-0.8C340.5,16.2,340.3,15.8,339.8,15.8z"/>
				</g>
			</g>
		</g>
		<path d="M344.6,20.2c-0.9,0-1.7-0.5-1.8-0.5c-0.3-0.2-0.4-0.5-0.2-0.8c0.2-0.3,0.5-0.4,0.8-0.2c0.3,0.2,1.1,0.5,1.7,0.3
			c0.4-0.2,0.6-0.6,0.7-1.4c0.1-0.3,0.4-0.6,0.7-0.5c0.3,0,0.6,0.4,0.5,0.7c-0.2,1.2-0.6,1.9-1.4,2.3
			C345.2,20.1,344.9,20.2,344.6,20.2z"/>
		<circle class="st12" cx="349.5" cy="17.5" r="2"/>
		<path class="st13" d="M340.6,5.5l3.9,4.2c0.8,0.8,1.8,1.1,2.9,0.9l4-0.8c0.4-0.1,1.5-0.2,1.9,0.2c0.5,0.5-0.1,2.9-0.1,2.9l1.1-2.2
			c0.2-0.4,0.2-1-0.1-1.5c-0.4-0.4-1-0.6-1.5-0.5L348,9.6c-1.2,0.2-2.5-0.1-3.4-1L341.2,5c-0.2-0.2-0.6-0.4-1-0.4
			c-0.1,0-0.3,0-0.5,0.1c-0.3,0.1-0.5,0.3-0.7,0.5C339,5.2,339.6,4.9,340.6,5.5z"/>
		<circle class="st12" cx="339.8" cy="20.8" r="2"/>
	</g>
</g>
</svg>
