<?xml version="1.0" encoding="utf-8"?>
<!-- Generator: Adobe Illustrator 24.2.0, SVG Export Plug-In . SVG Version: 6.00 Build 0)  -->
<svg version="1.1" id="Layer_1" xmlns="http://www.w3.org/2000/svg" xmlns:xlink="http://www.w3.org/1999/xlink" x="0px" y="0px"
	 viewBox="0 0 196.8 41.3" style="enable-background:new 0 0 196.8 41.3;" xml:space="preserve">
<style type="text/css">
	.st0{fill:#FFDA83;stroke:#000000;stroke-width:0.4223;stroke-miterlimit:10;}
	.st1{fill:#BC985E;}
	.st2{fill:#AA8441;}
	.st3{fill:url(#SVGID_1_);}
	.st4{fill:#422D0C;}
	.st5{opacity:0.3;fill:#FFFFFF;}
	.st6{fill:url(#SVGID_2_);}
	.st7{opacity:0.6;fill:#FFFFFF;}
	.st8{fill:none;stroke:#FFFFFF;stroke-width:3.1562;stroke-miterlimit:10;}
	.st9{fill:#D8A505;}
	.st10{fill:#FFE9B5;}
	.st11{fill:#F7C402;}
	.st12{opacity:0.63;fill:#FFF2D7;}
	.st13{fill:#F29499;}
</style>
<g>
	<g>
		<g>
			<path class="st0" d="M182.6,7.8H13.7c-6.4,0-11.6,5.8-11.6,12.9s5.2,12.9,11.6,12.9h168.9c6.4,0,11.6-5.8,11.6-12.9
				S189,7.8,182.6,7.8z M180.1,29.2H15.7c-5.1,0-9.3-4-9.3-8.9s4.2-8.9,9.3-8.9h164.4c5.1,0,9.3,4,9.3,8.9S185.2,29.2,180.1,29.2z"
				/>
			<path d="M182.6,6.3H13.7c-7.1,0-12.9,6.4-12.9,14.3c0,7.9,5.8,14.3,12.9,14.3h168.9c7.1,0,12.9-6.4,12.9-14.3
				C195.5,12.7,189.7,6.3,182.6,6.3z M182.6,34.2H13.7c-6.7,0-12.2-6.1-12.2-13.6v0c0-7.5,5.5-13.6,12.2-13.6h168.9
				c6.7,0,12.3,6.1,12.3,13.6v0C194.9,28.1,189.3,34.2,182.6,34.2z"/>
			<path d="M182.6,7.1H13.7c-6.7,0-12.2,6.1-12.2,13.6v0c0,7.5,5.5,13.6,12.2,13.6h168.9c6.7,0,12.3-6.1,12.3-13.6v0
				C194.9,13.2,189.3,7.1,182.6,7.1z M182.6,33.5H13.7c-6.4,0-11.6-5.8-11.6-12.9S7.3,7.8,13.7,7.8h168.9c6.4,0,11.6,5.8,11.6,12.9
				S189,33.5,182.6,33.5z"/>
			<g>
				<path class="st1" d="M15.7,26.8h164.9c4.2,0,7.7-3.2,8.2-7.3c-0.5-4.1-4-7.3-8.2-7.3H15.7c-4.2,0-7.7,3.2-8.2,7.3
					C8,23.5,11.5,26.8,15.7,26.8z"/>
				<path class="st2" d="M180.6,26.8H15.7c-4.2,0-7.7-3.2-8.2-7.3c0,0.3-0.1,0.6-0.1,0.9c0,4.5,3.7,8.2,8.2,8.2h164.9
					c4.5,0,8.2-3.7,8.2-8.2c0-0.3,0-0.6-0.1-0.9C188.3,23.5,184.8,26.8,180.6,26.8z"/>
				<linearGradient id="SVGID_1_" gradientUnits="userSpaceOnUse" x1="98.1442" y1="26.9742" x2="98.1442" y2="10.3356">
					<stop  offset="0.3584" style="stop-color:#BC985E"/>
					<stop  offset="0.7626" style="stop-color:#543B0F"/>
				</linearGradient>
				<path class="st3" d="M15.7,23.1h164.9c4.2,0,7.7-6.1,8.2-1.9c0-0.3,0.1-0.6,0.1-0.9c0-4.5-3.7-8.2-8.2-8.2H15.7
					c-4.5,0-8.2,3.7-8.2,8.2c0,0.3,0,0.6,0.1,0.9C8,17,11.5,23.1,15.7,23.1z"/>
				<path class="st4" d="M15.7,13.6h164.9c4.2,0,7.7,3.2,8.2,7.3c0-0.3,0.1-0.6,0.1-0.9c0-4.5-3.7-8.2-8.2-8.2H15.7
					c-4.5,0-8.2,3.7-8.2,8.2c0,0.3,0,0.6,0.1,0.9C8,16.8,11.5,13.6,15.7,13.6z"/>
			</g>
			<path d="M180.6,11H15.7c-5.1,0-9.3,4.2-9.3,9.3s4.2,9.3,9.3,9.3h164.9c5.1,0,9.3-4.2,9.3-9.3S185.7,11,180.6,11z M189.4,20.3
				c0,4.8-4,8.8-8.8,8.8H15.7c-4.8,0-8.8-4-8.8-8.8v0c0-4.8,4-8.8,8.8-8.8h164.9C185.4,11.5,189.4,15.5,189.4,20.3L189.4,20.3z"/>
			<path d="M180.6,11.5H15.7c-4.8,0-8.8,4-8.8,8.8v0c0,4.8,4,8.8,8.8,8.8h164.9c4.8,0,8.8-4,8.8-8.8v0
				C189.4,15.5,185.4,11.5,180.6,11.5z M180.6,28.6H15.7c-4.5,0-8.2-3.7-8.2-8.2s3.7-8.2,8.2-8.2h164.9c4.5,0,8.2,3.7,8.2,8.2
				S185.1,28.6,180.6,28.6z"/>
		</g>
		<g>
			<polygon class="st5" points="77.3,18.1 68.9,28.4 72.9,28.4 81.3,18.1 			"/>
			<polygon class="st5" points="38.1,18.1 29.8,28.4 33.8,28.4 42.2,18.1 			"/>
			<polygon class="st5" points="118.1,18.1 109.7,28.4 113.7,28.4 122.1,18.1 			"/>
			<polygon class="st5" points="155.4,18.1 147,28.4 151,28.4 159.4,18.1 			"/>
		</g>
	</g>
</g>
<g>
	<linearGradient id="SVGID_2_" gradientUnits="userSpaceOnUse" x1="64.0207" y1="33.2526" x2="64.0207" y2="-9.8234">
		<stop  offset="8.072251e-02" style="stop-color:#00384D"/>
		<stop  offset="0.1815" style="stop-color:#4BB7BF"/>
		<stop  offset="0.3691" style="stop-color:#4BB7BF"/>
		<stop  offset="0.3835" style="stop-color:#4BB7BF"/>
		<stop  offset="0.4947" style="stop-color:#1A6474"/>
		<stop  offset="0.5514" style="stop-color:#00384D"/>
	</linearGradient>
	<path class="st6" d="M112.4,28.7H15.6c-4.5,0-8.1-3.7-8.1-8.1v0c0-4.5,3.7-8.1,8.1-8.1h96.8c4.5,0,8.1,3.7,8.1,8.1v0
		C120.6,25.1,116.9,28.7,112.4,28.7z"/>
	<path class="st7" d="M119,21c0-4.3-3.5-7.8-7.7-7.8H16.4c-4.3,0-7.7,3.5-7.7,7.8v0.7c0,0.4,0,0.7,0.1,1.1c0.5-3.8,3.8-6.7,7.7-6.7
		h94.9c3.9,0,7.1,2.9,7.7,6.7c0.1-0.4,0.1-0.7,0.1-1.1V21z"/>
</g>
<g>
	<path class="st8" d="M132.8,26.5l-2.9-5.4c-0.2-0.6-0.3-1.1,0-1.5l2.9-5.5c0.8-1.7,0.6-3.6-0.5-5.1c0-0.1-0.1-0.1-0.1-0.1
		c-1.2-1.4-3-2.1-4.9-1.8l-5.9,1.2c-0.5,0.1-1,0-1.4-0.4l-4.4-4.4c-1.4-1.4-3.3-1.8-5.1-1.2c-1.8,0.6-3.1,2.1-3.4,4l-0.8,6.3
		c-0.1,0.5-0.3,1-0.8,1.2l-5.5,2.9c-1.7,0.9-2.7,2.6-2.7,4.4c0,2,1.1,3.7,2.8,4.5l5.6,2.6c0.6,0.3,0.8,0.8,0.9,1.1l1,6.2
		c0.3,1.4,1.1,2.6,2.3,3.3c0.8,0.5,1.7,0.7,2.6,0.7c0.5,0,1-0.1,1.5-0.2c0.9-0.2,1.6-0.8,2.1-1.3l4.3-4.5c0,0,0.1-0.1,0.1-0.1
		c0.1-0.1,0.2-0.1,0.5-0.3c0.2,0,0.5-0.1,0.7-0.1l6,0.9c0.9,0.2,1.7,0.1,2.4-0.2c1.3-0.5,2.4-1.5,3-2.8c0,0,0-0.1,0.1-0.1
		C133.6,29.1,133.4,27.6,132.8,26.5z"/>
	<g>
		<g>
			<path d="M112.2,39.4c-0.9,0-1.8-0.2-2.6-0.7c-1.2-0.7-2-1.9-2.3-3.3l-1-6.2c-0.1-0.3-0.3-0.9-0.9-1.1l-5.6-2.6
				c-1.7-0.8-2.8-2.5-2.8-4.5c0-1.8,1-3.5,2.7-4.4l5.5-2.9c0.5-0.2,0.8-0.7,0.8-1.2l0.8-6.3c0.3-1.9,1.6-3.4,3.4-4
				c1.8-0.6,3.7-0.1,5.1,1.2l4.4,4.4c0.4,0.4,0.9,0.5,1.4,0.4l5.9-1.2c1.8-0.3,3.6,0.4,4.9,1.8c0,0,0.1,0.1,0.1,0.1
				c1,1.5,1.2,3.5,0.5,5.1l-2.9,5.5c-0.2,0.4-0.2,0.9,0,1.5l2.9,5.4c0.7,1.1,0.8,2.6,0.3,4.1c0,0,0,0.1-0.1,0.1
				c-0.6,1.4-1.7,2.4-3,2.8c-0.8,0.3-1.5,0.3-2.4,0.2l-6-0.9c-0.3,0-0.6,0-0.7,0.1c-0.3,0.1-0.4,0.2-0.5,0.3c0,0-0.1,0.1-0.1,0.1
				l-4.3,4.5c-0.5,0.5-1.2,1.1-2.1,1.3C113.2,39.3,112.7,39.4,112.2,39.4z M112,5.1c-0.2,0-0.4,0-0.6,0.1c-0.7,0.2-1.1,0.8-1.3,1.5
				l-0.8,6.2c-0.2,1.6-1.2,3-2.6,3.6l-5.4,2.8c-0.6,0.3-1,1-1,1.7c0,0.7,0.4,1.3,1,1.6l5.6,2.6c1.4,0.6,2.3,1.9,2.7,3.4l1,6.2
				c0.1,0.3,0.3,0.9,0.9,1.2c0.4,0.3,1,0.3,1.5,0.2c0.1,0,0.1,0,0.2-0.1c0.1,0,0.3-0.2,0.6-0.4l4.2-4.4c0.5-0.7,1.2-1,1.9-1.3
				c0.1,0,0.1,0,0.2-0.1c0.6-0.1,1.3-0.3,2.2-0.1l6,0.9c0.4,0.1,0.6,0,0.8,0c0,0,0.1,0,0.1,0c0.5-0.2,0.9-0.5,1.1-1.1
				c0.2-0.6,0.1-1.1-0.1-1.4l-3-5.6c0,0,0-0.1-0.1-0.1c-0.7-1.5-0.7-3.1,0.1-4.4l2.8-5.4c0.3-0.6,0.2-1.3-0.2-1.9
				c-0.5-0.5-1.2-0.8-1.9-0.7l-5.8,1.1c-1.6,0.3-3.2-0.2-4.3-1.3l-4.4-4.4C113,5.3,112.6,5.1,112,5.1z"/>
			<path class="st9" d="M129.4,32.2c-0.5,0.2-1.1,0.2-1.6,0.1l-6.1-0.9c-0.5-0.1-1.1,0-1.5,0.1c-0.5,0.2-0.9,0.4-1.3,0.8l-4.3,4.5
				c-0.4,0.4-0.8,0.7-1.4,0.8c-0.9,0.3-2,0.2-2.8-0.3s-1.4-1.4-1.6-2.3l-0.9-6.1c-0.2-1.1-0.8-1.9-1.8-2.3l-5.6-2.6
				c-1.2-0.5-1.9-1.7-1.9-3.1c0-1.3,0.7-2.4,1.9-3.1l5.5-2.8c0.9-0.4,1.6-1.4,1.7-2.4l0.8-6.2c0.2-1.3,1.1-2.3,2.3-2.7
				c1.3-0.4,2.5-0.1,3.5,0.8l4.4,4.4c0.7,0.7,1.8,1.1,2.8,0.8l5.9-1.2c1.3-0.2,2.5,0.3,3.4,1.3c0.7,1.1,0.8,2.4,0.3,3.6l-2.8,5.5
				c-0.5,0.9-0.4,2,0,2.9l2.9,5.5c0.5,0.8,0.5,1.9,0.2,2.8C131.1,31.1,130.4,31.9,129.4,32.2L129.4,32.2z"/>
			<path class="st10" d="M126.9,22.7c0,0,0-0.1-0.1-0.1c-0.7-1.5-0.6-3,0.1-4.3l2.8-5.3c0.2-0.6,0.2-1.3-0.2-1.8
				c-0.5-0.5-1.2-0.8-1.8-0.7l-5.7,1.1c-1.5,0.3-3.1-0.2-4.2-1.2L113.4,6c-0.3-0.3-0.7-0.6-1.2-0.6c-0.2,0-0.4,0-0.6,0.1
				c-0.7,0.2-1.1,0.8-1.2,1.5l-0.8,6c-0.2,1.6-1.1,2.9-2.6,3.6l-5.3,2.7c-0.6,0.3-1,1-1,1.6c0,0.7,0.4,1.3,0.9,1.6l5.5,2.6
				c1.3,0.6,2.3,1.8,2.6,3.4l0.9,6c0.1,0.3,0.3,0.9,0.8,1.2c0.4,0.3,1,0.3,1.5,0.2c0.1,0,0.1,0,0.2,0c0.1,0,0.3-0.2,0.6-0.4l4.2-4.4
				c0.5-0.7,1.2-1,1.8-1.3c0.1,0,0.1,0,0.2-0.1c0.6-0.1,1.3-0.3,2.1-0.1l5.9,0.9c0.4,0.1,0.6,0,0.7,0c0,0,0.1,0,0.1,0
				c0.5-0.2,0.9-0.5,1.1-1.1c0.2-0.6,0.1-1.1-0.1-1.4L126.9,22.7z"/>
			<path class="st11" d="M127.5,22.7c0,0,0-0.1-0.1-0.1c-0.7-1.6-0.7-3.2,0.1-4.5l2.9-5.6c0.3-0.6,0.2-1.3-0.2-1.9
				c-0.5-0.5-1.3-0.8-1.9-0.7l-6,1.2c-1.6,0.3-3.3-0.2-4.4-1.3l-4.6-4.6c-0.3-0.3-0.7-0.6-1.3-0.6c-0.2,0-0.4,0-0.6,0.1
				c-0.7,0.2-1.2,0.8-1.3,1.5l-0.9,6.4c-0.2,1.6-1.2,3.1-2.7,3.8l-5.6,2.9c-0.7,0.4-1.1,1-1.1,1.7c0,0.8,0.4,1.4,1,1.7l5.8,2.7
				c1.4,0.6,2.4,1.9,2.8,3.5l1,6.4c0.1,0.3,0.3,0.9,0.9,1.3c0.4,0.3,1,0.3,1.6,0.2c0.1,0,0.1,0,0.2-0.1c0.1,0,0.3-0.2,0.6-0.4
				l4.4-4.6c0.6-0.7,1.3-1,1.9-1.3c0.1,0,0.1,0,0.2-0.1c0.6-0.1,1.4-0.3,2.2-0.1l6.2,1c0.5,0.1,0.6,0,0.8,0c0,0,0.1,0,0.1,0
				c0.5-0.2,0.9-0.6,1.2-1.1c0.2-0.6,0.2-1.1-0.1-1.5L127.5,22.7z"/>
		</g>
		<g>
			<g>
				<g>
					<path d="M120,18.7c2,0,2-3.2,0-3.2C118,15.5,118,18.7,120,18.7L120,18.7z"/>
					<path d="M120,19.2c-1.3,0-2-1.1-2-2.1c0-1,0.7-2.1,2-2.1c1.3,0,2,1.1,2,2.1C122,18.2,121.3,19.2,120,19.2z M120,16.1
						c-0.7,0-1,0.6-1,1.1c0,0.5,0.3,1.1,1,1.1c0.7,0,1-0.6,1-1.1C120.9,16.6,120.7,16.1,120,16.1z"/>
				</g>
			</g>
			<g>
				<g>
					<path d="M111.5,21.9c2,0,2-3.2,0-3.2S109.5,21.9,111.5,21.9L111.5,21.9z"/>
					<path d="M111.5,22.4c-1.3,0-2-1.1-2-2.1c0-1,0.7-2.1,2-2.1c1.3,0,2,1.1,2,2.1C113.6,21.3,112.9,22.4,111.5,22.4z M111.5,19.2
						c-0.7,0-1,0.6-1,1.1c0,0.5,0.3,1.1,1,1.1c0.7,0,1-0.6,1-1.1C112.5,19.8,112.3,19.2,111.5,19.2z"/>
				</g>
			</g>
		</g>
		<path d="M117.8,24.9c-1.2,0-2.2-0.6-2.4-0.7c-0.4-0.2-0.5-0.7-0.3-1.1c0.2-0.4,0.7-0.5,1.1-0.3c0.4,0.2,1.5,0.7,2.2,0.3
			c0.5-0.2,0.8-0.8,0.9-1.8c0.1-0.4,0.5-0.7,0.9-0.7c0.4,0.1,0.7,0.5,0.7,0.9c-0.2,1.5-0.8,2.5-1.8,3
			C118.6,24.9,118.2,24.9,117.8,24.9z"/>
		<path class="st12" d="M112.6,5.8l5,5.5c1,1,2.4,1.4,3.8,1.1l5.2-1c0.6-0.1,2-0.2,2.5,0.2c0.6,0.6-0.1,3.7-0.1,3.7l1.5-2.8
			c0.3-0.6,0.2-1.3-0.2-1.9c-0.5-0.6-1.3-0.8-1.9-0.7l-6,1.2c-1.6,0.3-3.3-0.2-4.4-1.3l-4.6-4.6c-0.3-0.3-0.7-0.6-1.3-0.6
			c-0.2,0-0.4,0-0.6,0.1c-0.4,0.1-0.7,0.4-0.9,0.6C110.5,5.3,111.3,5,112.6,5.8z"/>
		<circle class="st13" cx="111.5" cy="25.6" r="2"/>
		<circle class="st13" cx="123.9" cy="20.7" r="2"/>
	</g>
</g>
</svg>
