<?xml version="1.0" encoding="utf-8"?>
<!-- Generator: Adobe Illustrator 24.2.0, SVG Export Plug-In . SVG Version: 6.00 Build 0)  -->
<svg version="1.1" id="Layer_1" xmlns="http://www.w3.org/2000/svg" xmlns:xlink="http://www.w3.org/1999/xlink" x="0px" y="0px"
	 viewBox="0 0 350 33.3" style="enable-background:new 0 0 350 33.3;" xml:space="preserve">
<style type="text/css">
	.st0{fill:#FFDA83;stroke:#000000;stroke-width:0.3597;stroke-miterlimit:10;}
	.st1{fill:#BC985E;}
	.st2{fill:#AA8441;}
	.st3{fill:url(#SVGID_1_);}
	.st4{fill:#422D0C;}
	.st5{opacity:0.3;fill:#FFFFFF;}
	.st6{fill:url(#SVGID_2_);}
	.st7{opacity:0.6;fill:#FFFFFF;}
	.st8{fill:none;stroke:#FFFFFF;stroke-width:2.4198;stroke-miterlimit:10;}
	.st9{fill:#D8A505;}
	.st10{fill:#FFE9B5;}
	.st11{fill:#F7C402;}
	.st12{fill:#F29499;}
	.st13{opacity:0.63;fill:#FFF2D7;}
</style>
<g>
	<g>
		<g>
			<path class="st0" d="M337.4,5.7H12.6c-5.5,0-9.9,4.9-9.9,11s4.4,11,9.9,11h324.8c5.4,0,9.9-4.9,9.9-11S342.9,5.7,337.4,5.7z
				 M335.3,23.9H14.3c-4.4,0-7.9-3.4-7.9-7.6s3.6-7.6,7.9-7.6h320.9c4.4,0,7.9,3.4,7.9,7.6S339.6,23.9,335.3,23.9z"/>
			<path d="M337.4,4.5H12.6c-6.1,0-11,5.5-11,12.2c0,6.7,4.9,12.2,11,12.2h324.8c6.1,0,11-5.5,11-12.2C348.4,10,343.5,4.5,337.4,4.5
				z M337.4,28.2H12.6C6.9,28.2,2.2,23,2.2,16.7v0c0-6.4,4.7-11.6,10.4-11.6h324.8c5.7,0,10.4,5.2,10.4,11.6v0
				C347.8,23,343.1,28.2,337.4,28.2z"/>
			<path d="M337.4,5.1H12.6c-5.7,0-10.4,5.2-10.4,11.6v0c0,6.4,4.7,11.6,10.4,11.6h324.8c5.7,0,10.4-5.2,10.4-11.6v0
				C347.8,10.3,343.1,5.1,337.4,5.1z M337.4,27.6H12.6c-5.5,0-9.9-4.9-9.9-11s4.4-11,9.9-11h324.8c5.4,0,9.9,4.9,9.9,11
				S342.9,27.6,337.4,27.6z"/>
			<g>
				<path class="st1" d="M14.3,21.9h321.4c3.6,0,6.6-2.7,7-6.3c-0.4-3.5-3.4-6.3-7-6.3H14.3c-3.6,0-6.6,2.7-7,6.3
					C7.7,19.1,10.7,21.9,14.3,21.9z"/>
				<path class="st2" d="M335.7,21.9H14.3c-3.6,0-6.6-2.7-7-6.3c0,0.3,0,0.5,0,0.8c0,3.9,3.2,7,7,7h321.4c3.9,0,7-3.2,7-7
					c0-0.3,0-0.5,0-0.8C342.3,19.1,339.3,21.9,335.7,21.9z"/>
				<linearGradient id="SVGID_1_" gradientUnits="userSpaceOnUse" x1="175.0099" y1="22.0737" x2="175.0099" y2="7.9027">
					<stop  offset="0.3584" style="stop-color:#BC985E"/>
					<stop  offset="0.7626" style="stop-color:#543B0F"/>
				</linearGradient>
				<path class="st3" d="M14.3,18.7h321.4c3.6,0,6.6-5.2,7-1.7c0-0.3,0-0.5,0-0.8c0-3.9-3.2-7-7-7H14.3c-3.9,0-7,3.2-7,7
					c0,0.3,0,0.5,0,0.8C7.7,13.6,10.7,18.7,14.3,18.7z"/>
				<path class="st4" d="M14.3,10.7h321.4c3.6,0,6.6,2.7,7,6.3c0-0.3,0-0.5,0-0.8c0-3.9-3.2-7-7-7H14.3c-3.9,0-7,3.2-7,7
					c0,0.3,0,0.5,0,0.8C7.7,13.4,10.7,10.7,14.3,10.7z"/>
			</g>
			<path d="M335.7,8.5H14.3c-4.4,0-7.9,3.6-7.9,7.9s3.6,7.9,7.9,7.9h321.4c4.4,0,7.9-3.6,7.9-7.9S340.1,8.5,335.7,8.5z M343.2,16.4
				c0,4.1-3.4,7.5-7.5,7.5H14.3c-4.1,0-7.5-3.4-7.5-7.5v0c0-4.1,3.4-7.5,7.5-7.5h321.4C339.8,8.9,343.2,12.3,343.2,16.4L343.2,16.4z
				"/>
			<path d="M335.7,8.9H14.3c-4.1,0-7.5,3.4-7.5,7.5v0c0,4.1,3.4,7.5,7.5,7.5h321.4c4.1,0,7.5-3.4,7.5-7.5v0
				C343.2,12.3,339.8,8.9,335.7,8.9z M335.7,23.4H14.3c-3.9,0-7-3.2-7-7s3.2-7,7-7h321.4c3.9,0,7,3.2,7,7S339.6,23.4,335.7,23.4z"/>
		</g>
		<g>
			<polygon class="st5" points="138.1,14.6 128.7,23.4 135.5,23.4 144.9,14.6 			"/>
			<polygon class="st5" points="72.5,14.6 63.1,23.4 69.9,23.4 79.3,14.6 			"/>
			<polygon class="st5" points="206.5,14.6 197.1,23.4 203.9,23.4 213.2,14.6 			"/>
			<polygon class="st5" points="269,14.6 259.6,23.4 266.4,23.4 275.7,14.6 			"/>
		</g>
	</g>
	<g>
		<linearGradient id="SVGID_2_" gradientUnits="userSpaceOnUse" x1="138.7564" y1="27.3007" x2="138.7564" y2="-9.8957">
			<stop  offset="8.072251e-02" style="stop-color:#00384D"/>
			<stop  offset="0.1815" style="stop-color:#4BB7BF"/>
			<stop  offset="0.3691" style="stop-color:#4BB7BF"/>
			<stop  offset="0.3835" style="stop-color:#4BB7BF"/>
			<stop  offset="0.4947" style="stop-color:#1A6474"/>
			<stop  offset="0.5514" style="stop-color:#00384D"/>
		</linearGradient>
		<path class="st6" d="M263.2,23.4H14.3c-3.9,0-7-3.2-7-7v0c0-3.9,3.2-7,7-7h248.8c3.9,0,7,3.2,7,7v0
			C270.2,20.3,267,23.4,263.2,23.4z"/>
		<path class="st7" d="M269,17c0-3.7-3-6.7-6.7-6.7H15.1c-3.7,0-6.7,3-6.7,6.7v0.6c0,0.3,0,0.6,0.1,1c0.5-3.2,3.3-5.8,6.6-5.8h247.2
			c3.4,0,6.1,2.5,6.6,5.8c0-0.3,0.1-0.6,0.1-1V17z"/>
	</g>
</g>
<g>
	<path class="st8" d="M283.9,21.2l-2.2-4.1c-0.2-0.5-0.2-0.8,0-1.2l2.2-4.3c0.6-1.3,0.4-2.8-0.4-3.9c0,0-0.1-0.1-0.1-0.1
		c-1-1.1-2.3-1.6-3.7-1.4l-4.5,0.9c-0.4,0.1-0.8,0-1.1-0.3l-3.4-3.4c-1-1.1-2.5-1.4-3.9-0.9c-1.4,0.5-2.3,1.6-2.6,3.1l-0.7,4.8
		c0,0.4-0.3,0.7-0.6,0.9l-4.2,2.2c-1.3,0.7-2.1,2-2.1,3.4c0,1.5,0.8,2.8,2.1,3.4l4.3,2c0.4,0.2,0.6,0.6,0.7,0.9l0.7,4.8
		c0.2,1.1,0.9,2,1.7,2.5c0.6,0.4,1.3,0.6,2,0.6c0.4,0,0.8-0.1,1.2-0.2c0.7-0.2,1.2-0.6,1.6-1l3.3-3.5c0,0,0.1-0.1,0.1-0.1
		c0-0.1,0.1-0.1,0.4-0.2c0.1,0,0.4-0.1,0.6,0l4.6,0.7c0.7,0.1,1.3,0.1,1.9-0.1c1-0.3,1.8-1.1,2.3-2.2c0,0,0-0.1,0-0.1
		C284.5,23.2,284.4,22,283.9,21.2z"/>
	<g>
		<g>
			<path d="M268.1,31.1c-0.7,0-1.4-0.2-2-0.6c-0.9-0.6-1.5-1.5-1.7-2.5l-0.7-4.8c-0.1-0.3-0.2-0.7-0.7-0.9l-4.3-2
				c-1.3-0.6-2.1-1.9-2.1-3.4c0-1.4,0.8-2.7,2.1-3.4l4.2-2.2c0.4-0.2,0.6-0.5,0.6-0.9l0.7-4.8c0.2-1.5,1.2-2.6,2.6-3.1
				c1.4-0.5,2.8-0.1,3.9,0.9l3.4,3.4c0.3,0.3,0.7,0.4,1.1,0.3l4.5-0.9c1.4-0.2,2.8,0.3,3.7,1.4c0,0,0.1,0.1,0.1,0.1
				c0.8,1.1,0.9,2.7,0.4,3.9l-2.2,4.3c-0.2,0.3-0.2,0.7,0,1.2l2.2,4.1c0.5,0.8,0.6,2,0.2,3.1c0,0,0,0.1,0,0.1
				c-0.5,1.1-1.3,1.8-2.3,2.2c-0.6,0.2-1.2,0.3-1.9,0.1l-4.6-0.7c-0.2,0-0.4,0-0.6,0c-0.3,0.1-0.3,0.2-0.4,0.2c0,0-0.1,0.1-0.1,0.1
				l-3.3,3.5c-0.4,0.4-0.9,0.8-1.6,1C268.9,31,268.5,31.1,268.1,31.1z M267.9,4.7c-0.1,0-0.3,0-0.5,0.1c-0.5,0.2-0.9,0.6-1,1.1
				l-0.6,4.7c-0.1,1.2-0.9,2.3-2,2.8l-4.1,2.1c-0.5,0.3-0.8,0.8-0.8,1.3c0,0.6,0.3,1,0.7,1.2l4.3,2c1,0.5,1.8,1.4,2,2.6l0.7,4.7
				c0.1,0.2,0.2,0.7,0.7,0.9c0.3,0.2,0.8,0.3,1.2,0.1c0,0,0.1,0,0.1,0c0.1,0,0.2-0.1,0.4-0.3l3.2-3.4c0.4-0.5,0.9-0.8,1.4-1
				c0.1,0,0.1,0,0.2-0.1c0.4-0.1,1-0.2,1.7-0.1l4.6,0.7c0.3,0.1,0.5,0,0.6,0c0,0,0,0,0.1,0c0.4-0.1,0.7-0.4,0.9-0.8
				c0.1-0.4,0.1-0.8-0.1-1.1l-2.3-4.3c0,0,0-0.1,0-0.1c-0.5-1.2-0.5-2.4,0-3.3l2.2-4.2c0.2-0.4,0.2-1-0.1-1.4
				c-0.4-0.4-0.9-0.6-1.4-0.5l-4.5,0.9c-1.2,0.2-2.4-0.1-3.3-1l-3.4-3.4C268.7,4.9,268.4,4.7,267.9,4.7z"/>
			<path class="st9" d="M281.3,25.5c-0.4,0.2-0.8,0.2-1.2,0.1l-4.7-0.7c-0.4-0.1-0.8,0-1.1,0.1c-0.4,0.2-0.7,0.3-1,0.6l-3.3,3.5
				c-0.3,0.3-0.6,0.6-1,0.6c-0.7,0.2-1.5,0.2-2.2-0.2c-0.6-0.4-1-1-1.2-1.8l-0.7-4.7c-0.2-0.8-0.6-1.5-1.4-1.8l-4.3-2
				c-0.9-0.4-1.5-1.3-1.5-2.3c0-1,0.6-1.9,1.5-2.3l4.2-2.2c0.7-0.3,1.2-1,1.3-1.9l0.6-4.8c0.2-1,0.8-1.8,1.8-2.1
				c1-0.3,1.9-0.1,2.7,0.6l3.4,3.4c0.6,0.6,1.4,0.8,2.2,0.6l4.5-0.9c1-0.2,1.9,0.2,2.6,1c0.6,0.8,0.6,1.9,0.2,2.7l-2.2,4.2
				c-0.4,0.7-0.3,1.5,0,2.3l2.3,4.2c0.4,0.6,0.4,1.5,0.2,2.2C282.6,24.7,282,25.3,281.3,25.5L281.3,25.5z"/>
			<path class="st10" d="M279.3,18.3C279.3,18.2,279.3,18.2,279.3,18.3c-0.5-1.2-0.5-2.4,0-3.4l2.1-4.1c0.2-0.4,0.2-1-0.1-1.4
				c-0.4-0.4-0.9-0.6-1.4-0.5l-4.4,0.9c-1.2,0.2-2.4-0.1-3.2-1L269,5.5c-0.2-0.2-0.5-0.4-0.9-0.4c-0.1,0-0.3,0-0.4,0.1
				c-0.5,0.2-0.9,0.6-0.9,1.1l-0.6,4.6c-0.1,1.2-0.9,2.3-2,2.7l-4,2.1c-0.5,0.3-0.8,0.7-0.8,1.2c0,0.6,0.3,1,0.7,1.2l4.2,2
				c1,0.5,1.8,1.4,2,2.6l0.7,4.6c0.1,0.2,0.2,0.7,0.6,0.9c0.3,0.2,0.7,0.2,1.1,0.1c0,0,0.1,0,0.1,0c0.1,0,0.2-0.1,0.4-0.3l3.2-3.3
				c0.4-0.5,0.9-0.8,1.4-1c0,0,0.1,0,0.2,0c0.4-0.1,1-0.2,1.6-0.1l4.5,0.7c0.3,0.1,0.5,0,0.6,0c0,0,0,0,0.1,0
				c0.4-0.1,0.7-0.4,0.8-0.8c0.1-0.4,0.1-0.8-0.1-1.1L279.3,18.3z"/>
			<path class="st11" d="M279.9,18.3C279.8,18.3,279.8,18.2,279.9,18.3c-0.6-1.3-0.6-2.5,0-3.5l2.2-4.3c0.2-0.4,0.2-1-0.1-1.5
				c-0.4-0.4-1-0.6-1.5-0.5l-4.6,0.9c-1.2,0.2-2.5-0.1-3.4-1L269,4.8c-0.2-0.2-0.6-0.4-1-0.4c-0.1,0-0.3,0-0.5,0.1
				c-0.5,0.2-0.9,0.6-1,1.2l-0.7,4.9c-0.1,1.3-0.9,2.4-2.1,2.9l-4.3,2.2c-0.5,0.3-0.8,0.8-0.8,1.3c0,0.6,0.3,1.1,0.8,1.3l4.4,2.1
				c1.1,0.5,1.9,1.5,2.1,2.7l0.8,4.9c0.1,0.2,0.2,0.7,0.7,1c0.3,0.2,0.8,0.3,1.2,0.1c0,0,0.1,0,0.1,0c0.1,0,0.2-0.1,0.4-0.3l3.4-3.5
				c0.4-0.5,1-0.8,1.5-1c0.1,0,0.1,0,0.2-0.1c0.5-0.1,1.1-0.2,1.7-0.1l4.8,0.7c0.3,0.1,0.5,0,0.6,0c0,0,0,0,0.1,0
				c0.4-0.1,0.7-0.4,0.9-0.9c0.1-0.4,0.1-0.9-0.1-1.1L279.9,18.3z"/>
		</g>
		<g>
			<g>
				<g>
					<path d="M274,15.2c1.5,0,1.5-2.4,0-2.4S272.5,15.2,274,15.2L274,15.2z"/>
					<path d="M274,15.6c-1,0-1.6-0.8-1.6-1.6s0.5-1.6,1.6-1.6c1,0,1.6,0.8,1.6,1.6S275.1,15.6,274,15.6z M274,13.2
						c-0.6,0-0.7,0.4-0.7,0.8s0.2,0.8,0.7,0.8c0.6,0,0.7-0.4,0.7-0.8S274.6,13.2,274,13.2z"/>
				</g>
			</g>
			<g>
				<g>
					<path d="M267.6,17.6c1.5,0,1.5-2.4,0-2.4S266.1,17.6,267.6,17.6L267.6,17.6z"/>
					<path d="M267.6,18c-1,0-1.6-0.8-1.6-1.6c0-0.8,0.5-1.6,1.6-1.6c1,0,1.6,0.8,1.6,1.6C269.1,17.2,268.6,18,267.6,18z M267.6,15.6
						c-0.6,0-0.7,0.4-0.7,0.8c0,0.4,0.2,0.8,0.7,0.8c0.6,0,0.7-0.4,0.7-0.8C268.3,16,268.1,15.6,267.6,15.6z"/>
				</g>
			</g>
		</g>
		<path d="M272.4,20c-0.9,0-1.7-0.5-1.8-0.5c-0.3-0.2-0.4-0.5-0.2-0.8c0.2-0.3,0.5-0.4,0.8-0.2c0.3,0.2,1.1,0.5,1.7,0.3
			c0.4-0.2,0.6-0.6,0.7-1.4c0.1-0.3,0.4-0.6,0.7-0.5c0.3,0,0.6,0.4,0.5,0.7c-0.2,1.2-0.6,1.9-1.4,2.3C273,19.9,272.7,20,272.4,20z"
			/>
		<circle class="st12" cx="277.3" cy="17.3" r="2"/>
		<path class="st13" d="M268.4,5.3l3.9,4.2c0.8,0.8,1.8,1.1,2.9,0.9l4-0.8c0.4-0.1,1.5-0.2,1.9,0.2c0.5,0.5-0.1,2.9-0.1,2.9l1.1-2.2
			c0.2-0.4,0.2-1-0.1-1.5c-0.4-0.4-1-0.6-1.5-0.5l-4.6,0.9c-1.2,0.2-2.5-0.1-3.4-1L269,4.8c-0.2-0.2-0.6-0.4-1-0.4
			c-0.1,0-0.3,0-0.5,0.1c-0.3,0.1-0.5,0.3-0.7,0.5C266.8,4.9,267.4,4.7,268.4,5.3z"/>
		<circle class="st12" cx="267.6" cy="20.5" r="2"/>
	</g>
</g>
</svg>
