<?xml version="1.0" encoding="utf-8"?>
<!-- Generator: Adobe Illustrator 24.2.0, SVG Export Plug-In . SVG Version: 6.00 Build 0)  -->
<svg version="1.1" id="Layer_1" xmlns="http://www.w3.org/2000/svg" xmlns:xlink="http://www.w3.org/1999/xlink" x="0px" y="0px"
	 viewBox="0 0 212 38" style="enable-background:new 0 0 212 38;" xml:space="preserve">
<style type="text/css">
	.st0{fill:#FFDA83;stroke:#000000;stroke-width:0.4223;stroke-miterlimit:10;}
	.st1{fill:#BC985E;}
	.st2{fill:#AA8441;}
	.st3{fill:url(#SVGID_1_);}
	.st4{fill:#422D0C;}
	.st5{opacity:0.3;fill:#FFFFFF;}
	.st6{fill:none;stroke:#FFFFFF;stroke-width:2.9182;stroke-miterlimit:10;}
	.st7{fill:#D8A505;}
	.st8{fill:#FFE9B5;}
	.st9{fill:#F7C402;}
	.st10{opacity:0.63;fill:#FFF2D7;}
</style>
<g>
	<g>
		<g>
			<path class="st0" d="M196.1,6.1H27.1c-6.4,0-11.6,5.8-11.6,12.9s5.2,12.9,11.6,12.9h168.9c6.4,0,11.6-5.8,11.6-12.9
				S202.5,6.1,196.1,6.1z M193.6,27.5H29.2c-5.1,0-9.3-4-9.3-8.9s4.2-8.9,9.3-8.9h164.4c5.1,0,9.3,4,9.3,8.9S198.7,27.5,193.6,27.5z
				"/>
			<path d="M196.1,4.7H27.1C20,4.7,14.2,11.1,14.2,19c0,7.9,5.8,14.3,12.9,14.3h168.9c7.1,0,12.9-6.4,12.9-14.3
				C209,11.1,203.2,4.7,196.1,4.7z M196.1,32.6H27.1c-6.7,0-12.2-6.1-12.2-13.6v0c0-7.5,5.5-13.6,12.2-13.6h168.9
				c6.7,0,12.3,6.1,12.3,13.6v0C208.3,26.5,202.8,32.6,196.1,32.6z"/>
			<path d="M196.1,5.4H27.1c-6.7,0-12.2,6.1-12.2,13.6v0c0,7.5,5.5,13.6,12.2,13.6h168.9c6.7,0,12.3-6.1,12.3-13.6v0
				C208.3,11.5,202.8,5.4,196.1,5.4z M196.1,31.9H27.1c-6.4,0-11.6-5.8-11.6-12.9S20.7,6.1,27.1,6.1h168.9c6.4,0,11.6,5.8,11.6,12.9
				S202.5,31.9,196.1,31.9z"/>
			<g>
				<path class="st1" d="M29.2,25.1H194c4.2,0,7.7-3.2,8.2-7.3c-0.5-4.1-4-7.3-8.2-7.3H29.2c-4.2,0-7.7,3.2-8.2,7.3
					C21.4,21.9,24.9,25.1,29.2,25.1z"/>
				<path class="st2" d="M194,25.1H29.2c-4.2,0-7.7-3.2-8.2-7.3c0,0.3-0.1,0.6-0.1,0.9c0,4.5,3.7,8.2,8.2,8.2H194
					c4.5,0,8.2-3.7,8.2-8.2c0-0.3,0-0.6-0.1-0.9C201.8,21.9,198.3,25.1,194,25.1z"/>
				<linearGradient id="SVGID_1_" gradientUnits="userSpaceOnUse" x1="111.5966" y1="25.3452" x2="111.5966" y2="8.7066">
					<stop  offset="0.3584" style="stop-color:#BC985E"/>
					<stop  offset="0.7626" style="stop-color:#543B0F"/>
				</linearGradient>
				<path class="st3" d="M29.2,21.4H194c4.2,0,7.7-6.1,8.2-1.9c0-0.3,0.1-0.6,0.1-0.9c0-4.5-3.7-8.2-8.2-8.2H29.2
					c-4.5,0-8.2,3.7-8.2,8.2c0,0.3,0,0.6,0.1,0.9C21.4,15.4,24.9,21.4,29.2,21.4z"/>
				<path class="st4" d="M29.2,12H194c4.2,0,7.7,3.2,8.2,7.3c0-0.3,0.1-0.6,0.1-0.9c0-4.5-3.7-8.2-8.2-8.2H29.2
					c-4.5,0-8.2,3.7-8.2,8.2c0,0.3,0,0.6,0.1,0.9C21.4,15.2,24.9,12,29.2,12z"/>
			</g>
			<path d="M194,9.4H29.2c-5.1,0-9.3,4.2-9.3,9.3S24,28,29.2,28H194c5.1,0,9.3-4.2,9.3-9.3S199.2,9.4,194,9.4z M202.8,18.7
				c0,4.8-4,8.8-8.8,8.8H29.2c-4.8,0-8.8-4-8.8-8.8v0c0-4.8,4-8.8,8.8-8.8H194C198.9,9.9,202.8,13.9,202.8,18.7L202.8,18.7z"/>
			<path d="M194,9.9H29.2c-4.8,0-8.8,4-8.8,8.8v0c0,4.8,4,8.8,8.8,8.8H194c4.8,0,8.8-4,8.8-8.8v0C202.8,13.9,198.9,9.9,194,9.9z
				 M194,26.9H29.2c-4.5,0-8.2-3.7-8.2-8.2s3.7-8.2,8.2-8.2H194c4.5,0,8.2,3.7,8.2,8.2S198.6,26.9,194,26.9z"/>
		</g>
		<g>
			<polygon class="st5" points="90.7,16.4 82.3,26.8 86.4,26.8 94.8,16.4 			"/>
			<polygon class="st5" points="51.6,16.4 43.2,26.8 47.3,26.8 55.6,16.4 			"/>
			<polygon class="st5" points="131.5,16.4 123.1,26.8 127.2,26.8 135.6,16.4 			"/>
			<polygon class="st5" points="168.8,16.4 160.4,26.8 164.5,26.8 172.9,16.4 			"/>
		</g>
	</g>
</g>
<g>
	<path class="st6" d="M38.4,24.5l-2.7-5c-0.2-0.5-0.2-1,0-1.4l2.7-5.1c0.7-1.5,0.5-3.4-0.4-4.7c0,0-0.1-0.1-0.1-0.1
		c-1.2-1.3-2.8-1.9-4.5-1.6l-5.5,1.1c-0.5,0.1-1,0-1.3-0.4L22.5,3c-1.3-1.3-3-1.7-4.7-1.1c-1.7,0.6-2.8,1.9-3.1,3.7l-0.8,5.8
		c0,0.5-0.3,0.9-0.8,1.1L8,15.1c-1.5,0.8-2.5,2.4-2.5,4.1c0,1.8,1,3.4,2.6,4.1l5.2,2.4c0.5,0.2,0.7,0.7,0.8,1l0.9,5.7
		c0.3,1.3,1,2.4,2.1,3.1c0.7,0.5,1.5,0.7,2.4,0.7c0.5,0,0.9-0.1,1.4-0.2c0.9-0.2,1.5-0.7,1.9-1.2l4-4.2c0,0,0.1-0.1,0.1-0.1
		c0-0.1,0.1-0.1,0.5-0.3c0.2,0,0.5-0.1,0.7,0l5.6,0.9c0.8,0.2,1.5,0.1,2.2-0.2c1.2-0.4,2.2-1.4,2.8-2.6c0,0,0-0.1,0.1-0.1
		C39.2,26.9,39,25.5,38.4,24.5z"/>
	<g>
		<g>
			<path d="M19.4,36.4c-0.8,0-1.7-0.2-2.4-0.7c-1.1-0.7-1.8-1.8-2.1-3.1L14,26.9c-0.1-0.3-0.3-0.8-0.8-1l-5.2-2.4
				c-1.6-0.7-2.6-2.3-2.6-4.1c0-1.7,1-3.3,2.5-4.1l5.1-2.6c0.5-0.2,0.7-0.6,0.8-1.1l0.8-5.8c0.3-1.8,1.5-3.2,3.1-3.7
				c1.7-0.6,3.4-0.1,4.7,1.1l4.1,4.1c0.3,0.3,0.8,0.5,1.3,0.4l5.5-1.1c1.7-0.3,3.3,0.3,4.5,1.6c0,0,0.1,0.1,0.1,0.1
				c1,1.4,1.1,3.2,0.4,4.7l-2.7,5.1c-0.2,0.4-0.2,0.9,0,1.4l2.7,5c0.6,1,0.8,2.4,0.3,3.8c0,0,0,0.1-0.1,0.1
				c-0.6,1.3-1.6,2.2-2.8,2.6c-0.7,0.3-1.4,0.3-2.2,0.2L28,30.3c-0.2,0-0.5,0-0.7,0c-0.3,0.1-0.4,0.2-0.5,0.3c0,0-0.1,0.1-0.1,0.1
				l-4,4.2c-0.5,0.5-1.1,1-1.9,1.2C20.4,36.3,19.9,36.4,19.4,36.4z M19.2,4.6c-0.2,0-0.4,0-0.6,0.1c-0.6,0.2-1.1,0.7-1.2,1.4
				l-0.8,5.7c-0.1,1.5-1.1,2.8-2.4,3.4l-5,2.6c-0.6,0.3-1,0.9-1,1.5c0,0.7,0.3,1.2,0.9,1.5l5.2,2.4c1.3,0.6,2.2,1.7,2.5,3.2l0.9,5.7
				c0.1,0.3,0.3,0.8,0.8,1.1c0.4,0.2,0.9,0.3,1.4,0.1c0.1,0,0.1,0,0.2,0c0.1,0,0.3-0.1,0.5-0.4l3.9-4.1c0.5-0.6,1.1-0.9,1.7-1.2
				c0.1,0,0.1,0,0.2-0.1c0.5-0.1,1.2-0.3,2-0.1l5.6,0.9c0.4,0.1,0.6,0,0.7,0c0,0,0.1,0,0.1,0c0.4-0.1,0.8-0.5,1-1
				c0.2-0.5,0.1-1-0.1-1.3l-2.8-5.1c0,0,0-0.1,0-0.1c-0.6-1.4-0.6-2.8,0.1-4l2.6-5c0.2-0.5,0.2-1.2-0.1-1.7
				c-0.5-0.5-1.1-0.7-1.7-0.6l-5.4,1.1c-1.4,0.3-2.9-0.2-3.9-1.2l-4.1-4.1C20.1,4.9,19.7,4.6,19.2,4.6z"/>
			<path class="st7" d="M35.3,29.7c-0.5,0.2-1,0.2-1.5,0.1l-5.6-0.9c-0.5-0.1-1,0-1.4,0.1c-0.5,0.2-0.9,0.4-1.2,0.8l-4,4.2
				c-0.4,0.4-0.8,0.7-1.3,0.8c-0.9,0.3-1.8,0.2-2.6-0.3s-1.3-1.3-1.5-2.1l-0.9-5.6c-0.2-1-0.8-1.8-1.7-2.1l-5.2-2.4
				c-1.1-0.5-1.8-1.6-1.8-2.8c0-1.2,0.7-2.2,1.8-2.8l5.1-2.6c0.9-0.4,1.5-1.3,1.6-2.2l0.8-5.7c0.2-1.2,1-2.1,2.1-2.5
				c1.2-0.4,2.3-0.1,3.2,0.8l4.1,4.1c0.7,0.7,1.7,1,2.6,0.8l5.4-1.1c1.2-0.2,2.3,0.3,3.1,1.2c0.7,1,0.8,2.2,0.3,3.3l-2.6,5.1
				c-0.5,0.9-0.4,1.8,0,2.7l2.7,5.1c0.5,0.8,0.5,1.8,0.2,2.6C36.9,28.7,36.2,29.4,35.3,29.7L35.3,29.7z"/>
			<path class="st8" d="M33,20.9C32.9,20.9,32.9,20.9,33,20.9c-0.7-1.5-0.6-2.9,0-4l2.6-4.9c0.2-0.5,0.2-1.2-0.1-1.7
				c-0.5-0.5-1.1-0.7-1.7-0.6l-5.3,1c-1.4,0.3-2.9-0.1-3.9-1.2l-4-4C20.3,5.3,19.9,5,19.4,5c-0.2,0-0.3,0-0.5,0.1
				c-0.6,0.2-1,0.7-1.1,1.4L16.9,12c-0.1,1.4-1.1,2.7-2.4,3.3l-4.9,2.5c-0.6,0.3-0.9,0.9-0.9,1.5c0,0.7,0.3,1.2,0.9,1.5l5.1,2.4
				c1.2,0.6,2.1,1.7,2.4,3.1l0.9,5.6c0.1,0.3,0.3,0.8,0.8,1.1c0.4,0.2,0.9,0.3,1.4,0.1c0.1,0,0.1,0,0.2,0c0.1,0,0.3-0.1,0.5-0.4
				l3.8-4c0.5-0.6,1.1-0.9,1.7-1.2c0.1,0,0.1,0,0.2-0.1c0.5-0.1,1.2-0.3,2-0.1l5.5,0.8c0.4,0.1,0.6,0,0.7,0c0,0,0.1,0,0.1,0
				c0.4-0.1,0.8-0.5,1-1c0.2-0.5,0.1-1-0.1-1.3L33,20.9z"/>
			<path class="st9" d="M33.6,21c0,0,0-0.1-0.1-0.1c-0.6-1.5-0.6-2.9,0.1-4.2l2.7-5.2c0.2-0.5,0.2-1.2-0.2-1.8
				C35.6,9.2,35,9,34.4,9.1l-5.6,1.1c-1.5,0.3-3-0.2-4.1-1.2l-4.2-4.2c-0.3-0.3-0.7-0.5-1.2-0.5c-0.2,0-0.4,0-0.6,0.1
				c-0.6,0.2-1.1,0.7-1.2,1.4l-0.8,5.9c-0.2,1.5-1.1,2.9-2.5,3.5l-5.1,2.7c-0.6,0.3-1,0.9-1,1.6c0,0.7,0.3,1.3,0.9,1.5l5.3,2.5
				c1.3,0.6,2.2,1.8,2.5,3.3l0.9,5.9c0.1,0.3,0.3,0.8,0.8,1.2c0.4,0.3,0.9,0.3,1.4,0.2c0.1,0,0.1,0,0.2,0c0.1,0,0.3-0.2,0.5-0.4
				l4-4.2c0.5-0.6,1.2-1,1.8-1.2c0.1,0,0.1,0,0.2-0.1c0.5-0.1,1.3-0.3,2.1-0.1l5.8,0.9c0.4,0.1,0.6,0,0.7,0c0,0,0.1,0,0.1,0
				c0.5-0.2,0.8-0.5,1.1-1c0.2-0.5,0.1-1-0.1-1.4L33.6,21z"/>
		</g>
		<g>
			<g>
				<g>
					<path d="M26.6,17.2c1.8,0,1.8-2.9,0-2.9S24.7,17.2,26.6,17.2L26.6,17.2z"/>
					<path d="M26.6,17.7c-1.2,0-1.9-1-1.9-1.9s0.6-1.9,1.9-1.9c1.2,0,1.9,1,1.9,1.9S27.8,17.7,26.6,17.7z M26.6,14.8
						c-0.7,0-0.9,0.5-0.9,1s0.2,1,0.9,1c0.7,0,0.9-0.5,0.9-1S27.2,14.8,26.6,14.8z"/>
				</g>
			</g>
			<g>
				<g>
					<path d="M18.8,20.1c1.8,0,1.8-2.9,0-2.9C16.9,17.2,16.9,20.1,18.8,20.1L18.8,20.1z"/>
					<path d="M18.8,20.6c-1.2,0-1.9-1-1.9-1.9s0.6-1.9,1.9-1.9c1.2,0,1.9,1,1.9,1.9S20,20.6,18.8,20.6z M18.8,17.7
						c-0.7,0-0.9,0.5-0.9,1s0.2,1,0.9,1c0.7,0,0.9-0.5,0.9-1S19.5,17.7,18.8,17.7z"/>
				</g>
			</g>
		</g>
		<path class="st10" d="M19.8,5.3l4.7,5.1c0.9,0.9,2.2,1.3,3.5,1.1l4.8-1c0.5-0.1,1.9-0.2,2.3,0.2c0.6,0.5-0.1,3.4-0.1,3.4l1.3-2.6
			c0.2-0.5,0.2-1.2-0.2-1.8c-0.5-0.5-1.2-0.8-1.8-0.7l-5.6,1.1c-1.5,0.3-3-0.2-4.1-1.2l-4.2-4.2c-0.3-0.3-0.7-0.5-1.2-0.5
			c-0.2,0-0.4,0-0.6,0.1c-0.3,0.1-0.6,0.3-0.8,0.6C17.8,4.9,18.6,4.6,19.8,5.3z"/>
		<path d="M26.9,21.7L23.6,23c-0.3,0.1-0.6,0-0.7-0.3l0-0.1c-0.1-0.3,0-0.6,0.3-0.7l3.2-1.4c0.3-0.1,0.6,0,0.7,0.3l0,0.1
			C27.3,21.2,27.2,21.5,26.9,21.7z"/>
	</g>
</g>
</svg>
