<?xml version="1.0" encoding="utf-8"?>
<!-- Generator: Adobe Illustrator 24.2.0, SVG Export Plug-In . SVG Version: 6.00 Build 0)  -->
<svg version="1.1" id="Layer_1" xmlns="http://www.w3.org/2000/svg" xmlns:xlink="http://www.w3.org/1999/xlink" x="0px" y="0px"
	 viewBox="0 0 196.8 42.3" style="enable-background:new 0 0 196.8 42.3;" xml:space="preserve">
<style type="text/css">
	.st0{fill:#FFDA83;stroke:#000000;stroke-width:0.4223;stroke-miterlimit:10;}
	.st1{fill:#BC985E;}
	.st2{fill:#AA8441;}
	.st3{fill:url(#SVGID_1_);}
	.st4{fill:#422D0C;}
	.st5{opacity:0.3;fill:#FFFFFF;}
	.st6{fill:url(#SVGID_2_);}
	.st7{opacity:0.6;fill:#FFFFFF;}
	.st8{fill:#FFFFFF;}
	.st9{fill:#D8A505;}
	.st10{fill:#FFE9B5;}
	.st11{fill:#F7C402;}
	.st12{opacity:0.63;fill:#FFF2D7;}
</style>
<g>
	<g>
		<g>
			<path class="st0" d="M183.2,8.3H14.3c-6.4,0-11.6,5.8-11.6,12.9S7.9,34,14.3,34h168.9c6.4,0,11.6-5.8,11.6-12.9
				S189.6,8.3,183.2,8.3z M180.7,29.7H16.3c-5.1,0-9.3-4-9.3-8.9s4.2-8.9,9.3-8.9h164.4c5.1,0,9.3,4,9.3,8.9S185.8,29.7,180.7,29.7z
				"/>
			<path d="M183.2,6.9H14.3c-7.1,0-12.9,6.4-12.9,14.3c0,7.9,5.8,14.3,12.9,14.3h168.9c7.1,0,12.9-6.4,12.9-14.3
				C196.1,13.3,190.3,6.9,183.2,6.9z M183.2,34.7H14.3C7.5,34.7,2,28.6,2,21.2v0C2,13.7,7.5,7.6,14.3,7.6h168.9
				c6.7,0,12.3,6.1,12.3,13.6v0C195.5,28.6,190,34.7,183.2,34.7z"/>
			<path d="M183.2,7.6H14.3C7.5,7.6,2,13.7,2,21.2v0c0,7.5,5.5,13.6,12.2,13.6h168.9c6.7,0,12.3-6.1,12.3-13.6v0
				C195.5,13.7,190,7.6,183.2,7.6z M183.2,34H14.3C7.9,34,2.7,28.3,2.7,21.2S7.9,8.3,14.3,8.3h168.9c6.4,0,11.6,5.8,11.6,12.9
				S189.6,34,183.2,34z"/>
			<g>
				<path class="st1" d="M16.3,27.3h164.9c4.2,0,7.7-3.2,8.2-7.3c-0.5-4.1-4-7.3-8.2-7.3H16.3c-4.2,0-7.7,3.2-8.2,7.3
					C8.6,24.1,12.1,27.3,16.3,27.3z"/>
				<path class="st2" d="M181.2,27.3H16.3c-4.2,0-7.7-3.2-8.2-7.3c0,0.3-0.1,0.6-0.1,0.9c0,4.5,3.7,8.2,8.2,8.2h164.9
					c4.5,0,8.2-3.7,8.2-8.2c0-0.3,0-0.6-0.1-0.9C188.9,24.1,185.4,27.3,181.2,27.3z"/>
				<linearGradient id="SVGID_1_" gradientUnits="userSpaceOnUse" x1="98.7589" y1="27.5172" x2="98.7589" y2="10.8786">
					<stop  offset="0.3584" style="stop-color:#BC985E"/>
					<stop  offset="0.7626" style="stop-color:#543B0F"/>
				</linearGradient>
				<path class="st3" d="M16.3,23.6h164.9c4.2,0,7.7-6.1,8.2-1.9c0-0.3,0.1-0.6,0.1-0.9c0-4.5-3.7-8.2-8.2-8.2H16.3
					c-4.5,0-8.2,3.7-8.2,8.2c0,0.3,0,0.6,0.1,0.9C8.6,17.5,12.1,23.6,16.3,23.6z"/>
				<path class="st4" d="M16.3,14.1h164.9c4.2,0,7.7,3.2,8.2,7.3c0-0.3,0.1-0.6,0.1-0.9c0-4.5-3.7-8.2-8.2-8.2H16.3
					c-4.5,0-8.2,3.7-8.2,8.2c0,0.3,0,0.6,0.1,0.9C8.6,17.4,12.1,14.1,16.3,14.1z"/>
			</g>
			<path d="M181.2,11.5H16.3c-5.1,0-9.3,4.2-9.3,9.3s4.2,9.3,9.3,9.3h164.9c5.1,0,9.3-4.2,9.3-9.3S186.3,11.5,181.2,11.5z M190,20.9
				c0,4.8-4,8.8-8.8,8.8H16.3c-4.8,0-8.8-4-8.8-8.8v0c0-4.8,4-8.8,8.8-8.8h164.9C186,12.1,190,16,190,20.9L190,20.9z"/>
			<path d="M181.2,12.1H16.3c-4.8,0-8.8,4-8.8,8.8v0c0,4.8,4,8.8,8.8,8.8h164.9c4.8,0,8.8-4,8.8-8.8v0C190,16,186,12.1,181.2,12.1z
				 M181.2,29.1H16.3c-4.5,0-8.2-3.7-8.2-8.2s3.7-8.2,8.2-8.2h164.9c4.5,0,8.2,3.7,8.2,8.2S185.8,29.1,181.2,29.1z"/>
		</g>
		<g>
			<polygon class="st5" points="77.9,18.6 69.5,28.9 73.6,28.9 81.9,18.6 			"/>
			<polygon class="st5" points="38.8,18.6 30.4,28.9 34.4,28.9 42.8,18.6 			"/>
			<polygon class="st5" points="118.7,18.6 110.3,28.9 114.3,28.9 122.7,18.6 			"/>
			<polygon class="st5" points="156,18.6 147.6,28.9 151.6,28.9 160,18.6 			"/>
		</g>
	</g>
</g>
<g>
	<linearGradient id="SVGID_2_" gradientUnits="userSpaceOnUse" x1="25.5832" y1="33.7956" x2="25.5832" y2="-9.2805">
		<stop  offset="8.072251e-02" style="stop-color:#00384D"/>
		<stop  offset="0.1815" style="stop-color:#4BB7BF"/>
		<stop  offset="0.3691" style="stop-color:#4BB7BF"/>
		<stop  offset="0.3835" style="stop-color:#4BB7BF"/>
		<stop  offset="0.4947" style="stop-color:#1A6474"/>
		<stop  offset="0.5514" style="stop-color:#00384D"/>
	</linearGradient>
	<path class="st6" d="M34.9,29.3H16.2c-4.5,0-8.1-3.7-8.1-8.1v0c0-4.5,3.7-8.1,8.1-8.1h18.7c4.5,0,8.1,3.7,8.1,8.1v0
		C43.1,25.6,39.4,29.3,34.9,29.3z"/>
	<path class="st7" d="M41.5,21.6c0-4.3-3.5-7.8-7.7-7.8H17c-4.3,0-7.7,3.5-7.7,7.8v0.7c0,0.4,0,0.7,0.1,1.1c0.5-3.8,3.8-6.7,7.7-6.7
		h16.8c3.9,0,7.1,2.9,7.7,6.7c0.1-0.4,0.1-0.7,0.1-1.1V21.6z"/>
</g>
<g>
	<path class="st8" d="M38.2,41c-1.2,0-2.3-0.3-3.3-1c-1.5-0.9-2.5-2.4-2.9-4.2l0-0.1l-0.9-6l-5.5-2.6c-2.2-1-3.6-3.2-3.6-5.8
		c0-2.3,1.3-4.5,3.5-5.7l5.4-2.8l0.8-6.1c0.4-2.5,2-4.4,4.3-5.2c2.3-0.8,4.8-0.2,6.5,1.6l4.3,4.3l5.8-1.2c2.3-0.4,4.6,0.4,6.2,2.2
		c0.1,0.1,0.2,0.2,0.2,0.3c1.3,1.9,1.6,4.4,0.6,6.5l0,0.1l-2.8,5.4c0,0,0,0.1,0,0.1l2.8,5.2c0.9,1.5,1.1,3.4,0.4,5.3
		c0,0.1-0.1,0.2-0.1,0.3c-0.8,1.8-2.1,3-3.8,3.6c-1,0.4-2,0.4-3.1,0.2L47,34.7c0,0,0,0,0,0l-4.2,4.4c-0.6,0.6-1.5,1.4-2.8,1.7
		C39.5,40.9,38.8,41,38.2,41z M35,35.2c0.2,1,0.8,1.7,1.5,2.2c0.8,0.5,1.8,0.6,2.7,0.3l0.1,0c0.5-0.1,0.9-0.5,1.3-0.8l4.2-4.4
		c0.3-0.4,0.7-0.6,1.1-0.8l0.2-0.1c0.5-0.1,0.9-0.1,1.3-0.1l5.9,0.9c0.6,0.1,1.1,0.1,1.5-0.1c0.9-0.3,1.7-1,2.1-2
		c0.3-1,0.3-2-0.2-2.7l-0.1-0.1l-2.9-5.4c-0.5-1.3-0.3-2.3,0-2.8l2.8-5.3c0.5-1.1,0.4-2.5-0.3-3.5c-0.9-1-2.1-1.4-3.3-1.2l-5.7,1.1
		c-1,0.2-2-0.1-2.8-0.8l-4.3-4.3c-0.9-0.9-2.2-1.2-3.4-0.8c-1.2,0.4-2,1.4-2.3,2.7l-0.8,6.1c-0.1,1-0.7,1.9-1.7,2.3l-5.3,2.8
		c-1.1,0.6-1.8,1.7-1.8,3c0,1.3,0.7,2.5,1.8,3l5.5,2.6c0.9,0.4,1.5,1.2,1.7,2.2l0,0.1L35,35.2z M47.3,34.4
		C47.3,34.4,47.3,34.4,47.3,34.4C47.3,34.4,47.3,34.4,47.3,34.4z M30.8,13C30.8,13,30.8,13,30.8,13L30.8,13z"/>
	<g>
		<g>
			<path d="M38.2,39.5c-0.9,0-1.8-0.2-2.5-0.7c-1.1-0.7-1.9-1.9-2.2-3.2l-0.9-6.1c-0.1-0.3-0.3-0.8-0.8-1.1l-5.5-2.6
				c-1.7-0.8-2.7-2.4-2.7-4.4c0-1.8,1-3.4,2.7-4.3l5.4-2.8c0.5-0.2,0.8-0.7,0.8-1.1l0.8-6.1c0.3-1.9,1.5-3.3,3.3-3.9
				c1.8-0.6,3.6-0.1,5,1.2l4.3,4.3C46,9,46.5,9.2,47,9.1l5.8-1.1c1.8-0.3,3.5,0.4,4.7,1.7c0,0,0.1,0.1,0.1,0.1c1,1.5,1.2,3.4,0.4,5
				l-2.8,5.4c-0.2,0.4-0.2,0.9,0,1.5l2.8,5.3c0.7,1.1,0.8,2.5,0.3,4c0,0,0,0.1-0.1,0.1c-0.6,1.3-1.6,2.3-2.9,2.8
				c-0.7,0.3-1.5,0.3-2.4,0.2l-5.9-0.9c-0.2,0-0.5,0-0.7,0.1c-0.3,0.1-0.4,0.2-0.5,0.3c0,0-0.1,0.1-0.1,0.1L41.7,38
				c-0.5,0.5-1.1,1-2,1.2C39.1,39.4,38.6,39.5,38.2,39.5z M37.9,6c-0.2,0-0.4,0-0.6,0.1c-0.7,0.2-1.1,0.8-1.2,1.5l-0.8,6
				c-0.2,1.5-1.1,2.9-2.5,3.6l-5.3,2.7c-0.6,0.3-1,1-1,1.6c0,0.7,0.4,1.3,0.9,1.6l5.5,2.6c1.3,0.6,2.3,1.8,2.6,3.4l0.9,6
				c0.1,0.3,0.3,0.8,0.8,1.2c0.4,0.3,1,0.3,1.5,0.2c0.1,0,0.1,0,0.2,0c0.1,0,0.3-0.2,0.5-0.4l4.1-4.3c0.5-0.7,1.2-1,1.8-1.2
				c0.1,0,0.1,0,0.2-0.1c0.6-0.1,1.3-0.3,2.1-0.1l5.9,0.9c0.4,0.1,0.6,0,0.7,0c0,0,0.1,0,0.1,0c0.5-0.2,0.9-0.5,1.1-1
				c0.2-0.5,0.1-1.1-0.1-1.4l-2.9-5.4c0,0,0-0.1-0.1-0.1c-0.7-1.5-0.6-3,0.1-4.3l2.8-5.3c0.2-0.6,0.2-1.3-0.2-1.8
				c-0.5-0.5-1.2-0.8-1.8-0.7l-5.7,1.1c-1.5,0.3-3.1-0.2-4.2-1.2l-4.3-4.3C38.9,6.3,38.5,6,37.9,6z"/>
			<path class="st9" d="M54.9,32.5c-0.5,0.2-1,0.2-1.5,0.1l-6-0.9c-0.5-0.1-1,0-1.4,0.1c-0.5,0.2-0.9,0.4-1.2,0.8L40.6,37
				c-0.4,0.4-0.8,0.7-1.3,0.8c-0.9,0.3-2,0.2-2.8-0.3c-0.8-0.5-1.3-1.3-1.5-2.3l-0.9-6c-0.2-1-0.8-1.8-1.7-2.3l-5.4-2.6
				c-1.1-0.5-1.8-1.6-1.8-3c0-1.2,0.7-2.4,1.8-3l5.3-2.8c0.9-0.4,1.5-1.3,1.6-2.4l0.8-6.1c0.2-1.2,1-2.3,2.3-2.7
				c1.2-0.4,2.5-0.1,3.4,0.8l4.3,4.3c0.7,0.7,1.7,1,2.8,0.8l5.8-1.1c1.2-0.2,2.5,0.3,3.3,1.2c0.7,1,0.8,2.4,0.3,3.5l-2.8,5.3
				c-0.5,0.9-0.4,2,0,2.9l2.9,5.3c0.5,0.8,0.5,1.8,0.2,2.8C56.6,31.4,55.9,32.1,54.9,32.5L54.9,32.5z"/>
			<path class="st10" d="M52.4,23.2c0,0,0-0.1-0.1-0.1c-0.6-1.5-0.6-2.9,0.1-4.2l2.7-5.2c0.2-0.5,0.2-1.2-0.2-1.8
				c-0.5-0.5-1.2-0.8-1.8-0.7l-5.6,1.1c-1.5,0.3-3-0.2-4.1-1.2l-4.2-4.2c-0.3-0.3-0.7-0.5-1.2-0.5c-0.2,0-0.4,0-0.6,0.1
				c-0.6,0.2-1.1,0.7-1.2,1.4l-0.8,5.9c-0.2,1.5-1.1,2.9-2.5,3.5L27.9,20c-0.6,0.3-1,0.9-1,1.6c0,0.7,0.3,1.3,0.9,1.5l5.4,2.5
				c1.3,0.6,2.2,1.8,2.5,3.3l0.9,5.9c0.1,0.3,0.3,0.8,0.8,1.2c0.4,0.3,1,0.3,1.4,0.2c0.1,0,0.1,0,0.2,0c0.1,0,0.3-0.2,0.5-0.4
				l4.1-4.3c0.5-0.6,1.2-1,1.8-1.2c0.1,0,0.1,0,0.2-0.1c0.6-0.1,1.3-0.3,2.1-0.1l5.8,0.9c0.4,0.1,0.6,0,0.7,0c0,0,0.1,0,0.1,0
				c0.5-0.2,0.8-0.5,1.1-1c0.2-0.5,0.1-1-0.1-1.4L52.4,23.2z"/>
			<path class="st11" d="M53.1,23.3c0,0,0-0.1-0.1-0.1c-0.7-1.5-0.7-3.1,0.1-4.4l2.8-5.5c0.3-0.6,0.2-1.3-0.2-1.9
				c-0.5-0.5-1.2-0.8-1.9-0.7L48,11.9c-1.6,0.3-3.2-0.2-4.3-1.3l-4.5-4.5C39,5.8,38.6,5.5,38,5.5c-0.2,0-0.4,0-0.6,0.1
				c-0.7,0.2-1.1,0.8-1.3,1.5l-0.8,6.2c-0.2,1.6-1.2,3-2.6,3.7l-5.4,2.8c-0.6,0.3-1.1,1-1.1,1.7c0,0.7,0.4,1.4,1,1.6l5.6,2.7
				c1.4,0.6,2.4,1.9,2.7,3.5l1,6.2c0.1,0.3,0.3,0.9,0.9,1.2c0.4,0.3,1,0.3,1.5,0.2c0.1,0,0.1,0,0.2-0.1c0.1,0,0.3-0.2,0.6-0.4
				l4.3-4.5c0.5-0.7,1.2-1,1.9-1.3c0.1,0,0.1,0,0.2-0.1c0.6-0.1,1.4-0.3,2.2-0.1l6.1,0.9c0.4,0.1,0.6,0,0.8,0c0,0,0.1,0,0.1,0
				c0.5-0.2,0.9-0.5,1.1-1.1c0.2-0.6,0.1-1.1-0.1-1.4L53.1,23.3z"/>
		</g>
		<g>
			<g>
				<g>
					<path d="M45.7,19.3c2,0,2-3.1,0-3.1S43.7,19.3,45.7,19.3L45.7,19.3z"/>
					<path d="M45.7,19.8c-1.3,0-2-1-2-2.1s0.7-2.1,2-2.1c1.3,0,2,1,2,2.1S47,19.8,45.7,19.8z M45.7,16.7c-0.7,0-1,0.6-1,1
						c0,0.5,0.2,1,1,1c0.7,0,1-0.6,1-1C46.6,17.3,46.4,16.7,45.7,16.7z"/>
				</g>
			</g>
			<g>
				<g>
					<path d="M37.5,22.4c2,0,2-3.1,0-3.1S35.5,22.4,37.5,22.4L37.5,22.4z"/>
					<path d="M37.5,22.9c-1.3,0-2-1-2-2.1c0-1,0.7-2.1,2-2.1c1.3,0,2,1,2,2.1C39.5,21.9,38.8,22.9,37.5,22.9z M37.5,19.8
						c-0.7,0-1,0.6-1,1c0,0.5,0.2,1,1,1c0.7,0,1-0.6,1-1C38.4,20.4,38.2,19.8,37.5,19.8z"/>
				</g>
			</g>
		</g>
		<path class="st12" d="M38.5,6.7l4.9,5.4c1,1,2.4,1.4,3.7,1.1l5.1-1c0.6-0.1,2-0.2,2.4,0.2c0.6,0.6-0.1,3.6-0.1,3.6l1.4-2.7
			c0.3-0.6,0.2-1.3-0.2-1.9c-0.5-0.5-1.2-0.8-1.9-0.7L48,11.9c-1.6,0.3-3.2-0.2-4.3-1.3l-4.5-4.5C39,5.8,38.5,5.5,38,5.5
			c-0.2,0-0.4,0-0.6,0.1C37,5.8,36.7,6,36.5,6.3C36.5,6.3,37.3,5.9,38.5,6.7z"/>
		<path d="M43.1,25.9c-0.6,0-1.1-0.1-1.2-0.2c-0.4-0.1-0.6-0.5-0.5-0.9c0.1-0.4,0.5-0.6,0.9-0.5l0,0c0.2,0.1,1,0.2,1.5-0.1
			c0.8-0.4,1-1.1,1-1.1c0.1-0.4,0.5-0.7,0.9-0.6c0.4,0.1,0.7,0.5,0.6,0.9c0,0.1-0.4,1.5-1.8,2.2C44.1,25.8,43.6,25.9,43.1,25.9z"/>
	</g>
</g>
</svg>
