<?xml version="1.0" encoding="utf-8"?>
<!-- Generator: Adobe Illustrator 24.2.0, SVG Export Plug-In . SVG Version: 6.00 Build 0)  -->
<svg version="1.1" id="Layer_1" xmlns="http://www.w3.org/2000/svg" xmlns:xlink="http://www.w3.org/1999/xlink" x="0px" y="0px"
	 viewBox="0 0 359.1 33.8" style="enable-background:new 0 0 359.1 33.8;" xml:space="preserve">
<style type="text/css">
	.st0{fill:#FFDA83;stroke:#000000;stroke-width:0.3597;stroke-miterlimit:10;}
	.st1{fill:#BC985E;}
	.st2{fill:#AA8441;}
	.st3{fill:url(#SVGID_1_);}
	.st4{fill:#422D0C;}
	.st5{opacity:0.3;fill:#FFFFFF;}
	.st6{fill:none;stroke:#FFFFFF;stroke-width:2.4198;stroke-miterlimit:10;}
	.st7{fill:#D8A505;}
	.st8{fill:#FFE9B5;}
	.st9{fill:#F7C402;}
	.st10{opacity:0.63;fill:#FFF2D7;}
</style>
<g>
	<g>
		<g>
			<path class="st0" d="M347,6.8H22.2c-5.5,0-9.9,4.9-9.9,11s4.4,11,9.9,11H347c5.4,0,9.9-4.9,9.9-11S352.4,6.8,347,6.8z M344.8,25
				H23.9c-4.4,0-7.9-3.4-7.9-7.6s3.6-7.6,7.9-7.6h320.9c4.4,0,7.9,3.4,7.9,7.6S349.2,25,344.8,25z"/>
			<path d="M347,5.6H22.2c-6.1,0-11,5.5-11,12.2c0,6.7,4.9,12.2,11,12.2H347c6.1,0,11-5.5,11-12.2C358,11,353,5.6,347,5.6z
				 M347,29.3H22.2c-5.7,0-10.4-5.2-10.4-11.6v0c0-6.4,4.7-11.6,10.4-11.6H347c5.7,0,10.4,5.2,10.4,11.6v0
				C357.4,24.1,352.7,29.3,347,29.3z"/>
			<path d="M347,6.2H22.2c-5.7,0-10.4,5.2-10.4,11.6v0c0,6.4,4.7,11.6,10.4,11.6H347c5.7,0,10.4-5.2,10.4-11.6v0
				C357.4,11.4,352.7,6.2,347,6.2z M347,28.7H22.2c-5.5,0-9.9-4.9-9.9-11s4.4-11,9.9-11H347c5.4,0,9.9,4.9,9.9,11
				S352.4,28.7,347,28.7z"/>
			<g>
				<path class="st1" d="M23.9,23h321.4c3.6,0,6.6-2.7,7-6.3c-0.4-3.5-3.4-6.3-7-6.3H23.9c-3.6,0-6.6,2.7-7,6.3
					C17.3,20.2,20.3,23,23.9,23z"/>
				<path class="st2" d="M345.3,23H23.9c-3.6,0-6.6-2.7-7-6.3c0,0.3,0,0.5,0,0.8c0,3.9,3.2,7,7,7h321.4c3.9,0,7-3.2,7-7
					c0-0.3,0-0.5,0-0.8C351.9,20.2,348.9,23,345.3,23z"/>
				<linearGradient id="SVGID_1_" gradientUnits="userSpaceOnUse" x1="184.5855" y1="23.1587" x2="184.5855" y2="8.9877">
					<stop  offset="0.3584" style="stop-color:#BC985E"/>
					<stop  offset="0.7626" style="stop-color:#543B0F"/>
				</linearGradient>
				<path class="st3" d="M23.9,19.8h321.4c3.6,0,6.6-5.2,7-1.7c0-0.3,0-0.5,0-0.8c0-3.9-3.2-7-7-7H23.9c-3.9,0-7,3.2-7,7
					c0,0.3,0,0.5,0,0.8C17.3,14.7,20.3,19.8,23.9,19.8z"/>
				<path class="st4" d="M23.9,11.8h321.4c3.6,0,6.6,2.7,7,6.3c0-0.3,0-0.5,0-0.8c0-3.9-3.2-7-7-7H23.9c-3.9,0-7,3.2-7,7
					c0,0.3,0,0.5,0,0.8C17.3,14.5,20.3,11.8,23.9,11.8z"/>
			</g>
			<path d="M345.3,9.6H23.9c-4.4,0-7.9,3.6-7.9,7.9s3.6,7.9,7.9,7.9h321.4c4.4,0,7.9-3.6,7.9-7.9S349.6,9.6,345.3,9.6z M352.7,17.5
				c0,4.1-3.4,7.5-7.5,7.5H23.9c-4.1,0-7.5-3.4-7.5-7.5v0c0-4.1,3.4-7.5,7.5-7.5h321.4C349.4,10,352.7,13.4,352.7,17.5L352.7,17.5z"
				/>
			<path d="M345.3,10H23.9c-4.1,0-7.5,3.4-7.5,7.5v0c0,4.1,3.4,7.5,7.5,7.5h321.4c4.1,0,7.5-3.4,7.5-7.5v0
				C352.7,13.4,349.4,10,345.3,10z M345.3,24.5H23.9c-3.9,0-7-3.2-7-7s3.2-7,7-7h321.4c3.9,0,7,3.2,7,7S349.1,24.5,345.3,24.5z"/>
		</g>
		<g>
			<polygon class="st5" points="147.7,15.7 138.3,24.5 145.1,24.5 154.4,15.7 			"/>
			<polygon class="st5" points="82.1,15.7 72.7,24.5 79.5,24.5 88.8,15.7 			"/>
			<polygon class="st5" points="216,15.7 206.7,24.5 213.5,24.5 222.8,15.7 			"/>
			<polygon class="st5" points="278.5,15.7 269.2,24.5 276,24.5 285.3,15.7 			"/>
		</g>
	</g>
</g>
<g>
	<path class="st6" d="M30.2,21.7L28,17.5c-0.2-0.5-0.2-0.8,0-1.2l2.2-4.3c0.6-1.3,0.4-2.8-0.4-3.9c0,0-0.1-0.1-0.1-0.1
		c-1-1.1-2.3-1.6-3.7-1.4l-4.5,0.9c-0.4,0.1-0.8,0-1.1-0.3L17,3.9c-1-1.1-2.5-1.4-3.9-0.9c-1.4,0.5-2.3,1.6-2.6,3.1l-0.7,4.8
		c0,0.4-0.3,0.7-0.6,0.9L5,13.9c-1.3,0.7-2.1,2-2.1,3.4c0,1.5,0.8,2.8,2.1,3.4l4.3,2C9.8,23,10,23.4,10,23.6l0.7,4.8
		c0.2,1.1,0.9,2,1.7,2.5c0.6,0.4,1.3,0.6,2,0.6c0.4,0,0.8-0.1,1.2-0.2c0.7-0.2,1.2-0.6,1.6-1l3.3-3.5c0,0,0.1-0.1,0.1-0.1
		c0-0.1,0.1-0.1,0.4-0.2c0.1,0,0.4-0.1,0.6,0l4.6,0.7c0.7,0.1,1.3,0.1,1.9-0.1c1-0.3,1.8-1.1,2.3-2.2c0,0,0-0.1,0-0.1
		C30.8,23.7,30.7,22.5,30.2,21.7z"/>
	<g>
		<g>
			<path d="M14.5,31.5c-0.7,0-1.4-0.2-2-0.6c-0.9-0.6-1.5-1.5-1.7-2.5L10,23.7C10,23.4,9.8,23,9.3,22.8l-4.3-2
				c-1.3-0.6-2.1-1.9-2.1-3.4C2.9,16,3.7,14.7,5,14l4.2-2.2c0.4-0.2,0.6-0.5,0.6-0.9l0.7-4.8c0.2-1.5,1.2-2.6,2.6-3.1
				c1.4-0.5,2.8-0.1,3.9,0.9l3.4,3.4c0.3,0.3,0.7,0.4,1.1,0.3L26,6.7c1.4-0.2,2.8,0.3,3.7,1.4c0,0,0.1,0.1,0.1,0.1
				c0.8,1.1,0.9,2.7,0.4,3.9l-2.2,4.3c-0.2,0.3-0.2,0.7,0,1.2l2.2,4.1c0.5,0.8,0.6,2,0.2,3.1c0,0,0,0.1,0,0.1
				c-0.5,1.1-1.3,1.8-2.3,2.2c-0.6,0.2-1.2,0.3-1.9,0.1l-4.6-0.7c-0.2,0-0.4,0-0.6,0c-0.3,0.1-0.3,0.2-0.4,0.2c0,0-0.1,0.1-0.1,0.1
				l-3.3,3.5c-0.4,0.4-0.9,0.8-1.6,1C15.3,31.5,14.9,31.5,14.5,31.5z M14.3,5.2c-0.1,0-0.3,0-0.5,0.1c-0.5,0.2-0.9,0.6-1,1.1
				l-0.6,4.7c-0.1,1.2-0.9,2.3-2,2.8l-4.1,2.1c-0.5,0.3-0.8,0.8-0.8,1.3c0,0.6,0.3,1,0.7,1.2l4.3,2c1,0.5,1.8,1.4,2,2.6l0.7,4.7
				c0.1,0.2,0.2,0.7,0.7,0.9c0.3,0.2,0.8,0.3,1.2,0.1c0,0,0.1,0,0.1,0c0.1,0,0.2-0.1,0.4-0.3l3.2-3.4c0.4-0.5,0.9-0.8,1.4-1
				c0.1,0,0.1,0,0.2-0.1c0.4-0.1,1-0.2,1.7-0.1l4.6,0.7c0.3,0.1,0.5,0,0.6,0c0,0,0,0,0.1,0c0.4-0.1,0.7-0.4,0.9-0.8
				c0.1-0.4,0.1-0.8-0.1-1.1l-2.3-4.3c0,0,0-0.1,0-0.1c-0.5-1.2-0.5-2.4,0-3.3l2.2-4.2c0.2-0.4,0.2-1-0.1-1.4
				c-0.4-0.4-0.9-0.6-1.4-0.5L21.9,10c-1.2,0.2-2.4-0.1-3.3-1l-3.4-3.4C15.1,5.4,14.7,5.2,14.3,5.2z"/>
			<path class="st7" d="M27.7,26c-0.4,0.2-0.8,0.2-1.2,0.1l-4.7-0.7c-0.4-0.1-0.8,0-1.1,0.1c-0.4,0.2-0.7,0.3-1,0.6l-3.3,3.5
				c-0.3,0.3-0.6,0.6-1,0.6c-0.7,0.2-1.5,0.2-2.2-0.2s-1-1-1.2-1.8l-0.7-4.7c-0.2-0.8-0.6-1.5-1.4-1.8l-4.3-2
				c-0.9-0.4-1.5-1.3-1.5-2.3c0-1,0.6-1.9,1.5-2.3l4.2-2.2c0.7-0.3,1.2-1,1.3-1.9l0.6-4.8c0.2-1,0.8-1.8,1.8-2.1s1.9-0.1,2.7,0.6
				l3.4,3.4c0.6,0.6,1.4,0.8,2.2,0.6l4.5-0.9c1-0.2,1.9,0.2,2.6,1c0.6,0.8,0.6,1.9,0.2,2.7l-2.2,4.2c-0.4,0.7-0.3,1.5,0,2.3l2.3,4.2
				c0.4,0.6,0.4,1.5,0.2,2.2C29,25.2,28.4,25.7,27.7,26L27.7,26z"/>
			<path class="st8" d="M25.7,18.7C25.7,18.7,25.7,18.7,25.7,18.7c-0.5-1.2-0.5-2.4,0-3.4l2.1-4.1c0.2-0.4,0.2-1-0.1-1.4
				c-0.4-0.4-0.9-0.6-1.4-0.5l-4.4,0.9c-1.2,0.2-2.4-0.1-3.2-1L15.4,6c-0.2-0.2-0.5-0.4-0.9-0.4c-0.1,0-0.3,0-0.4,0.1
				c-0.5,0.2-0.9,0.6-0.9,1.1l-0.6,4.6c-0.1,1.2-0.9,2.3-2,2.7l-4,2.1c-0.5,0.3-0.8,0.7-0.8,1.2c0,0.6,0.3,1,0.7,1.2l4.2,2
				c1,0.5,1.8,1.4,2,2.6l0.7,4.6c0.1,0.2,0.2,0.7,0.6,0.9c0.3,0.2,0.7,0.2,1.1,0.1c0,0,0.1,0,0.1,0c0.1,0,0.2-0.1,0.4-0.3l3.2-3.3
				c0.4-0.5,0.9-0.8,1.4-1c0,0,0.1,0,0.2,0c0.4-0.1,1-0.2,1.6-0.1l4.5,0.7c0.3,0.1,0.5,0,0.6,0c0,0,0,0,0.1,0
				c0.4-0.1,0.7-0.4,0.8-0.8c0.1-0.4,0.1-0.8-0.1-1.1L25.7,18.7z"/>
			<path class="st9" d="M26.2,18.8C26.2,18.7,26.2,18.7,26.2,18.8c-0.6-1.3-0.6-2.5,0-3.5l2.2-4.3c0.2-0.4,0.2-1-0.1-1.5
				c-0.4-0.4-1-0.6-1.5-0.5l-4.6,0.9c-1.2,0.2-2.5-0.1-3.4-1l-3.5-3.5c-0.2-0.2-0.6-0.4-1-0.4c-0.1,0-0.3,0-0.5,0.1
				c-0.5,0.2-0.9,0.6-1,1.2L12.2,11c-0.1,1.3-0.9,2.4-2.1,2.9l-4.3,2.2c-0.5,0.3-0.8,0.8-0.8,1.3c0,0.6,0.3,1.1,0.8,1.3l4.4,2.1
				c1.1,0.5,1.9,1.5,2.1,2.7l0.8,4.9c0.1,0.2,0.2,0.7,0.7,1c0.3,0.2,0.8,0.3,1.2,0.1c0,0,0.1,0,0.1,0c0.1,0,0.2-0.1,0.4-0.3l3.4-3.5
				c0.4-0.5,1-0.8,1.5-1c0.1,0,0.1,0,0.2-0.1c0.5-0.1,1.1-0.2,1.7-0.1l4.8,0.7c0.3,0.1,0.5,0,0.6,0c0,0,0,0,0.1,0
				c0.4-0.1,0.7-0.4,0.9-0.9c0.1-0.4,0.1-0.9-0.1-1.1L26.2,18.8z"/>
		</g>
		<g>
			<g>
				<g>
					<path d="M20.4,15.7c1.5,0,1.5-2.4,0-2.4S18.9,15.7,20.4,15.7L20.4,15.7z"/>
					<path d="M20.4,16.1c-1,0-1.6-0.8-1.6-1.6s0.5-1.6,1.6-1.6c1,0,1.6,0.8,1.6,1.6S21.4,16.1,20.4,16.1z M20.4,13.6
						c-0.6,0-0.7,0.4-0.7,0.8s0.2,0.8,0.7,0.8c0.6,0,0.7-0.4,0.7-0.8S21,13.6,20.4,13.6z"/>
				</g>
			</g>
			<g>
				<g>
					<path d="M14,18.1c1.5,0,1.5-2.4,0-2.4S12.4,18.1,14,18.1L14,18.1z"/>
					<path d="M14,18.5c-1,0-1.6-0.8-1.6-1.6c0-0.8,0.5-1.6,1.6-1.6c1,0,1.6,0.8,1.6,1.6C15.5,17.7,15,18.5,14,18.5z M14,16.1
						c-0.6,0-0.7,0.4-0.7,0.8c0,0.4,0.2,0.8,0.7,0.8c0.6,0,0.7-0.4,0.7-0.8C14.7,16.5,14.5,16.1,14,16.1z"/>
				</g>
			</g>
		</g>
		<path class="st10" d="M14.8,5.8l3.9,4.2c0.8,0.8,1.8,1.1,2.9,0.9l4-0.8c0.4-0.1,1.5-0.2,1.9,0.2c0.5,0.5-0.1,2.9-0.1,2.9l1.1-2.2
			c0.2-0.4,0.2-1-0.1-1.5c-0.4-0.4-1-0.6-1.5-0.5l-4.6,0.9c-1.2,0.2-2.5-0.1-3.4-1l-3.5-3.5c-0.2-0.2-0.6-0.4-1-0.4
			c-0.1,0-0.3,0-0.5,0.1c-0.3,0.1-0.5,0.3-0.7,0.5C13.2,5.4,13.8,5.2,14.8,5.8z"/>
		<path d="M20.7,19.3L18,20.5c-0.2,0.1-0.5,0-0.6-0.2l0-0.1c-0.1-0.2,0-0.5,0.2-0.6l2.7-1.1c0.2-0.1,0.5,0,0.6,0.2l0,0.1
			C21,19,20.9,19.2,20.7,19.3z"/>
	</g>
</g>
</svg>
