<?xml version="1.0" encoding="utf-8"?>
<!-- Generator: Adobe Illustrator 24.2.0, SVG Export Plug-In . SVG Version: 6.00 Build 0)  -->
<svg version="1.1" id="Layer_1" xmlns="http://www.w3.org/2000/svg" xmlns:xlink="http://www.w3.org/1999/xlink" x="0px" y="0px"
	 viewBox="0 0 350 33" style="enable-background:new 0 0 350 33;" xml:space="preserve">
<style type="text/css">
	.st0{fill:#FFDA83;stroke:#000000;stroke-width:0.3597;stroke-miterlimit:10;}
	.st1{fill:#BC985E;}
	.st2{fill:#AA8441;}
	.st3{fill:url(#SVGID_1_);}
	.st4{fill:#422D0C;}
	.st5{opacity:0.3;fill:#FFFFFF;}
	.st6{fill:url(#SVGID_2_);}
	.st7{opacity:0.6;fill:#FFFFFF;}
	.st8{fill:none;stroke:#FFFFFF;stroke-width:2.4198;stroke-miterlimit:10;}
	.st9{fill:#D8A505;}
	.st10{fill:#FFE9B5;}
	.st11{fill:#F7C402;}
	.st12{opacity:0.63;fill:#FFF2D7;}
	.st13{fill:none;stroke:#000000;stroke-width:1.1871;stroke-linecap:round;stroke-linejoin:round;stroke-miterlimit:10;}
</style>
<g>
	<g>
		<g>
			<path class="st0" d="M337.4,5.6H12.6c-5.5,0-9.9,4.9-9.9,11s4.4,11,9.9,11h324.8c5.4,0,9.9-4.9,9.9-11S342.9,5.6,337.4,5.6z
				 M335.3,23.8H14.3c-4.4,0-7.9-3.4-7.9-7.6s3.6-7.6,7.9-7.6h320.9c4.4,0,7.9,3.4,7.9,7.6S339.6,23.8,335.3,23.8z"/>
			<path d="M337.4,4.3H12.6c-6.1,0-11,5.5-11,12.2c0,6.7,4.9,12.2,11,12.2h324.8c6.1,0,11-5.5,11-12.2
				C348.4,9.8,343.5,4.3,337.4,4.3z M337.4,28.1H12.6c-5.7,0-10.4-5.2-10.4-11.6v0c0-6.4,4.7-11.6,10.4-11.6h324.8
				c5.7,0,10.4,5.2,10.4,11.6v0C347.8,22.9,343.1,28.1,337.4,28.1z"/>
			<path d="M337.4,4.9H12.6c-5.7,0-10.4,5.2-10.4,11.6v0c0,6.4,4.7,11.6,10.4,11.6h324.8c5.7,0,10.4-5.2,10.4-11.6v0
				C347.8,10.1,343.1,4.9,337.4,4.9z M337.4,27.5H12.6c-5.5,0-9.9-4.9-9.9-11s4.4-11,9.9-11h324.8c5.4,0,9.9,4.9,9.9,11
				S342.9,27.5,337.4,27.5z"/>
			<g>
				<path class="st1" d="M14.3,21.7h321.4c3.6,0,6.6-2.7,7-6.3c-0.4-3.5-3.4-6.3-7-6.3H14.3c-3.6,0-6.6,2.7-7,6.3
					C7.7,19,10.7,21.7,14.3,21.7z"/>
				<path class="st2" d="M335.7,21.7H14.3c-3.6,0-6.6-2.7-7-6.3c0,0.3,0,0.5,0,0.8c0,3.9,3.2,7,7,7h321.4c3.9,0,7-3.2,7-7
					c0-0.3,0-0.5,0-0.8C342.3,19,339.3,21.7,335.7,21.7z"/>
				<linearGradient id="SVGID_1_" gradientUnits="userSpaceOnUse" x1="175.0099" y1="21.9087" x2="175.0099" y2="7.7377">
					<stop  offset="0.3584" style="stop-color:#BC985E"/>
					<stop  offset="0.7626" style="stop-color:#543B0F"/>
				</linearGradient>
				<path class="st3" d="M14.3,18.6h321.4c3.6,0,6.6-5.2,7-1.7c0-0.3,0-0.5,0-0.8c0-3.9-3.2-7-7-7H14.3c-3.9,0-7,3.2-7,7
					c0,0.3,0,0.5,0,0.8C7.7,13.4,10.7,18.6,14.3,18.6z"/>
				<path class="st4" d="M14.3,10.5h321.4c3.6,0,6.6,2.7,7,6.3c0-0.3,0-0.5,0-0.8c0-3.9-3.2-7-7-7H14.3c-3.9,0-7,3.2-7,7
					c0,0.3,0,0.5,0,0.8C7.7,13.3,10.7,10.5,14.3,10.5z"/>
			</g>
			<path d="M335.7,8.3H14.3c-4.4,0-7.9,3.6-7.9,7.9s3.6,7.9,7.9,7.9h321.4c4.4,0,7.9-3.6,7.9-7.9S340.1,8.3,335.7,8.3z M343.2,16.2
				c0,4.1-3.4,7.5-7.5,7.5H14.3c-4.1,0-7.5-3.4-7.5-7.5v0c0-4.1,3.4-7.5,7.5-7.5h321.4C339.8,8.8,343.2,12.1,343.2,16.2L343.2,16.2z
				"/>
			<path d="M335.7,8.8H14.3c-4.1,0-7.5,3.4-7.5,7.5v0c0,4.1,3.4,7.5,7.5,7.5h321.4c4.1,0,7.5-3.4,7.5-7.5v0
				C343.2,12.1,339.8,8.8,335.7,8.8z M335.7,23.3H14.3c-3.9,0-7-3.2-7-7s3.2-7,7-7h321.4c3.9,0,7,3.2,7,7S339.6,23.3,335.7,23.3z"/>
		</g>
		<g>
			<polygon class="st5" points="138.1,14.5 128.7,23.2 135.5,23.2 144.9,14.5 			"/>
			<polygon class="st5" points="72.5,14.5 63.1,23.2 69.9,23.2 79.3,14.5 			"/>
			<polygon class="st5" points="206.5,14.5 197.1,23.2 203.9,23.2 213.2,14.5 			"/>
			<polygon class="st5" points="269,14.5 259.6,23.2 266.4,23.2 275.7,14.5 			"/>
		</g>
	</g>
	<g>
		<linearGradient id="SVGID_2_" gradientUnits="userSpaceOnUse" x1="74.0125" y1="27.1357" x2="74.0125" y2="-10.0607">
			<stop  offset="8.072251e-02" style="stop-color:#00384D"/>
			<stop  offset="0.1815" style="stop-color:#4BB7BF"/>
			<stop  offset="0.3691" style="stop-color:#4BB7BF"/>
			<stop  offset="0.3835" style="stop-color:#4BB7BF"/>
			<stop  offset="0.4947" style="stop-color:#1A6474"/>
			<stop  offset="0.5514" style="stop-color:#00384D"/>
		</linearGradient>
		<path class="st6" d="M133.7,23.2H14.3c-3.9,0-7-3.2-7-7v0c0-3.9,3.2-7,7-7h119.3c3.9,0,7,3.2,7,7v0
			C140.7,20.1,137.5,23.2,133.7,23.2z"/>
		<path class="st7" d="M139.5,16.8c0-3.7-3-6.7-6.7-6.7H15.1c-3.7,0-6.7,3-6.7,6.7v0.6c0,0.3,0,0.6,0.1,1c0.5-3.2,3.3-5.8,6.6-5.8
			h117.7c3.4,0,6.1,2.5,6.6,5.8c0-0.3,0.1-0.6,0.1-1V16.8z"/>
	</g>
</g>
<g>
	<path class="st8" d="M150.5,21l-2.2-4.1c-0.2-0.5-0.2-0.8,0-1.2l2.2-4.3c0.6-1.3,0.4-2.8-0.4-3.9c0,0-0.1-0.1-0.1-0.1
		c-1-1.1-2.3-1.6-3.7-1.4L141.8,7c-0.4,0.1-0.8,0-1.1-0.3l-3.4-3.4c-1-1.1-2.5-1.4-3.9-0.9c-1.4,0.5-2.3,1.6-2.6,3.1l-0.7,4.8
		c0,0.4-0.3,0.7-0.6,0.9l-4.2,2.2c-1.3,0.7-2.1,2-2.1,3.4c0,1.5,0.8,2.8,2.1,3.4l4.3,2c0.4,0.2,0.6,0.6,0.7,0.9l0.7,4.8
		c0.2,1.1,0.9,2,1.7,2.5c0.6,0.4,1.3,0.6,2,0.6c0.4,0,0.8-0.1,1.2-0.2c0.7-0.2,1.2-0.6,1.6-1l3.3-3.5c0,0,0.1-0.1,0.1-0.1
		c0-0.1,0.1-0.1,0.4-0.2c0.1,0,0.4-0.1,0.6,0l4.6,0.7c0.7,0.1,1.3,0.1,1.9-0.1c1-0.3,1.8-1.1,2.3-2.2c0,0,0-0.1,0-0.1
		C151.2,23,151.1,21.9,150.5,21z"/>
	<g>
		<g>
			<path d="M134.8,30.9c-0.7,0-1.4-0.2-2-0.6c-0.9-0.6-1.5-1.5-1.7-2.5l-0.7-4.8c-0.1-0.3-0.2-0.7-0.7-0.9l-4.3-2
				c-1.3-0.6-2.1-1.9-2.1-3.4c0-1.4,0.8-2.7,2.1-3.4l4.2-2.2c0.4-0.2,0.6-0.5,0.6-0.9l0.7-4.8c0.2-1.5,1.2-2.6,2.6-3.1
				c1.4-0.5,2.8-0.1,3.9,0.9l3.4,3.4c0.3,0.3,0.7,0.4,1.1,0.3l4.5-0.9c1.4-0.2,2.8,0.3,3.7,1.4c0,0,0.1,0.1,0.1,0.1
				c0.8,1.1,0.9,2.7,0.4,3.9l-2.2,4.3c-0.2,0.3-0.2,0.7,0,1.2l2.2,4.1c0.5,0.8,0.6,2,0.2,3.1c0,0,0,0.1,0,0.1
				c-0.5,1.1-1.3,1.8-2.3,2.2c-0.6,0.2-1.2,0.3-1.9,0.1l-4.6-0.7c-0.2,0-0.4,0-0.6,0c-0.3,0.1-0.3,0.2-0.4,0.2c0,0-0.1,0.1-0.1,0.1
				l-3.3,3.5c-0.4,0.4-0.9,0.8-1.6,1C135.6,30.8,135.2,30.9,134.8,30.9z M134.6,4.6c-0.1,0-0.3,0-0.5,0.1c-0.5,0.2-0.9,0.6-1,1.1
				l-0.6,4.7c-0.1,1.2-0.9,2.3-2,2.8l-4.1,2.1c-0.5,0.3-0.8,0.8-0.8,1.3c0,0.6,0.3,1,0.7,1.2l4.3,2c1,0.5,1.8,1.4,2,2.6l0.7,4.7
				c0.1,0.2,0.2,0.7,0.7,0.9c0.3,0.2,0.8,0.3,1.2,0.1c0,0,0.1,0,0.1,0c0.1,0,0.2-0.1,0.4-0.3l3.2-3.4c0.4-0.5,0.9-0.8,1.4-1
				c0.1,0,0.1,0,0.2-0.1c0.4-0.1,1-0.2,1.7-0.1l4.6,0.7c0.3,0.1,0.5,0,0.6,0c0,0,0,0,0.1,0c0.4-0.1,0.7-0.4,0.9-0.8
				c0.1-0.4,0.1-0.8-0.1-1.1l-2.3-4.3c0,0,0-0.1,0-0.1c-0.5-1.2-0.5-2.4,0-3.3l2.2-4.2c0.2-0.4,0.2-1-0.1-1.4
				c-0.4-0.4-0.9-0.6-1.4-0.5l-4.5,0.9c-1.2,0.2-2.4-0.1-3.3-1L135.6,5C135.4,4.8,135.1,4.6,134.6,4.6z"/>
			<path class="st9" d="M148,25.3c-0.4,0.2-0.8,0.2-1.2,0.1l-4.7-0.7c-0.4-0.1-0.8,0-1.1,0.1c-0.4,0.2-0.7,0.3-1,0.6l-3.3,3.5
				c-0.3,0.3-0.6,0.6-1,0.6c-0.7,0.2-1.5,0.2-2.2-0.2c-0.6-0.4-1-1-1.2-1.8l-0.7-4.7c-0.2-0.8-0.6-1.5-1.4-1.8l-4.3-2
				c-0.9-0.4-1.5-1.3-1.5-2.3c0-1,0.6-1.9,1.5-2.3l4.2-2.2c0.7-0.3,1.2-1,1.3-1.9l0.6-4.8c0.2-1,0.8-1.8,1.8-2.1
				c1-0.3,1.9-0.1,2.7,0.6l3.4,3.4c0.6,0.6,1.4,0.8,2.2,0.6l4.5-0.9c1-0.2,1.9,0.2,2.6,1c0.6,0.8,0.6,1.9,0.2,2.7l-2.2,4.2
				c-0.4,0.7-0.3,1.5,0,2.3l2.3,4.2c0.4,0.6,0.4,1.5,0.2,2.2C149.3,24.5,148.7,25.1,148,25.3L148,25.3z"/>
			<path class="st10" d="M146,18.1C146,18.1,146,18,146,18.1c-0.5-1.2-0.5-2.4,0-3.4l2.1-4.1c0.2-0.4,0.2-1-0.1-1.4
				c-0.4-0.4-0.9-0.6-1.4-0.5l-4.4,0.9c-1.2,0.2-2.4-0.1-3.2-1l-3.3-3.3c-0.2-0.2-0.5-0.4-0.9-0.4c-0.1,0-0.3,0-0.4,0.1
				c-0.5,0.2-0.9,0.6-0.9,1.1l-0.6,4.6c-0.1,1.2-0.9,2.3-2,2.7l-4,2.1c-0.5,0.3-0.8,0.7-0.8,1.2c0,0.6,0.3,1,0.7,1.2l4.2,2
				c1,0.5,1.8,1.4,2,2.6l0.7,4.6c0.1,0.2,0.2,0.7,0.6,0.9c0.3,0.2,0.7,0.2,1.1,0.1c0,0,0.1,0,0.1,0c0.1,0,0.2-0.1,0.4-0.3l3.2-3.3
				c0.4-0.5,0.9-0.8,1.4-1c0,0,0.1,0,0.2,0c0.4-0.1,1-0.2,1.6-0.1l4.5,0.7c0.3,0.1,0.5,0,0.6,0c0,0,0,0,0.1,0
				c0.4-0.1,0.7-0.4,0.8-0.8c0.1-0.4,0.1-0.8-0.1-1.1L146,18.1z"/>
			<path class="st11" d="M146.5,18.1C146.5,18.1,146.5,18.1,146.5,18.1c-0.6-1.3-0.6-2.5,0-3.5l2.2-4.3c0.2-0.4,0.2-1-0.1-1.5
				c-0.4-0.4-1-0.6-1.5-0.5l-4.6,0.9c-1.2,0.2-2.5-0.1-3.4-1l-3.5-3.5c-0.2-0.2-0.6-0.4-1-0.4c-0.1,0-0.3,0-0.5,0.1
				c-0.5,0.2-0.9,0.6-1,1.2l-0.7,4.9c-0.1,1.3-0.9,2.4-2.1,2.9l-4.3,2.2c-0.5,0.3-0.8,0.8-0.8,1.3c0,0.6,0.3,1.1,0.8,1.3l4.4,2.1
				c1.1,0.5,1.9,1.5,2.1,2.7l0.8,4.9c0.1,0.2,0.2,0.7,0.7,1c0.3,0.2,0.8,0.3,1.2,0.1c0,0,0.1,0,0.1,0c0.1,0,0.2-0.1,0.4-0.3l3.4-3.5
				c0.4-0.5,1-0.8,1.5-1c0.1,0,0.1,0,0.2-0.1c0.5-0.1,1.1-0.2,1.7-0.1l4.8,0.7c0.3,0.1,0.5,0,0.6,0c0,0,0,0,0.1,0
				c0.4-0.1,0.7-0.4,0.9-0.9c0.1-0.4,0.1-0.9-0.1-1.1L146.5,18.1z"/>
		</g>
		<g>
			<g>
				<g>
					<path d="M140.7,15c1.5,0,1.5-2.4,0-2.4S139.2,15,140.7,15L140.7,15z"/>
					<path d="M140.7,15.4c-1,0-1.6-0.8-1.6-1.6c0-0.8,0.5-1.6,1.6-1.6c1,0,1.6,0.8,1.6,1.6C142.3,14.6,141.8,15.4,140.7,15.4z
						 M140.7,13c-0.6,0-0.7,0.4-0.7,0.8c0,0.4,0.2,0.8,0.7,0.8c0.6,0,0.7-0.4,0.7-0.8C141.5,13.4,141.3,13,140.7,13z"/>
				</g>
			</g>
			<g>
				<g>
					<path d="M134.3,17.4c1.5,0,1.5-2.4,0-2.4S132.7,17.4,134.3,17.4L134.3,17.4z"/>
					<path d="M134.3,17.8c-1,0-1.6-0.8-1.6-1.6c0-0.8,0.5-1.6,1.6-1.6c1,0,1.6,0.8,1.6,1.6C135.8,17,135.3,17.8,134.3,17.8z
						 M134.3,15.4c-0.6,0-0.7,0.4-0.7,0.8c0,0.4,0.2,0.8,0.7,0.8c0.6,0,0.7-0.4,0.7-0.8C135,15.9,134.8,15.4,134.3,15.4z"/>
				</g>
			</g>
		</g>
		<path class="st12" d="M135.1,5.1l3.9,4.2c0.8,0.8,1.8,1.1,2.9,0.9l4-0.8c0.4-0.1,1.5-0.2,1.9,0.2c0.5,0.5-0.1,2.9-0.1,2.9l1.1-2.2
			c0.2-0.4,0.2-1-0.1-1.5c-0.4-0.4-1-0.6-1.5-0.5l-4.6,0.9c-1.2,0.2-2.5-0.1-3.4-1l-3.5-3.5c-0.2-0.2-0.6-0.4-1-0.4
			c-0.1,0-0.3,0-0.5,0.1c-0.3,0.1-0.5,0.3-0.7,0.5C133.5,4.8,134.1,4.5,135.1,5.1z"/>
		<path class="st13" d="M137.9,19c0,0,1,0.5,1.9,0.1c1.2-0.6,1.2-1.5,1.2-1.5"/>
	</g>
</g>
</svg>
