<?xml version="1.0" encoding="utf-8"?>
<!-- Generator: Adobe Illustrator 24.2.0, SVG Export Plug-In . SVG Version: 6.00 Build 0)  -->
<svg version="1.1" id="Layer_1" xmlns="http://www.w3.org/2000/svg" xmlns:xlink="http://www.w3.org/1999/xlink" x="0px" y="0px"
	 viewBox="0 0 196.8 42.1" style="enable-background:new 0 0 196.8 42.1;" xml:space="preserve">
<style type="text/css">
	.st0{fill:#FFDA83;stroke:#000000;stroke-width:0.4223;stroke-miterlimit:10;}
	.st1{fill:#BC985E;}
	.st2{fill:#AA8441;}
	.st3{fill:url(#SVGID_1_);}
	.st4{fill:#422D0C;}
	.st5{opacity:0.3;fill:#FFFFFF;}
	.st6{fill:url(#SVGID_2_);}
	.st7{opacity:0.6;fill:#FFFFFF;}
	.st8{fill:none;stroke:#FFFFFF;stroke-width:3.1581;stroke-miterlimit:10;}
	.st9{fill:#D8A505;}
	.st10{fill:#FFE9B5;}
	.st11{fill:#F7C402;}
	.st12{fill:#F29499;}
	.st13{opacity:0.63;fill:#FFF2D7;}
</style>
<g>
	<g>
		<g>
			<path class="st0" d="M182.6,8.2H13.6C7.2,8.2,2,14,2,21.1s5.2,12.9,11.6,12.9h168.9c6.4,0,11.6-5.8,11.6-12.9S189,8.2,182.6,8.2z
				 M180.1,29.6H15.7c-5.1,0-9.3-4-9.3-8.9s4.2-8.9,9.3-8.9h164.4c5.1,0,9.3,4,9.3,8.9S185.2,29.6,180.1,29.6z"/>
			<path d="M182.6,6.8H13.6c-7.1,0-12.9,6.4-12.9,14.3c0,7.9,5.8,14.3,12.9,14.3h168.9c7.1,0,12.9-6.4,12.9-14.3
				C195.5,13.2,189.7,6.8,182.6,6.8z M182.6,34.6H13.6c-6.7,0-12.2-6.1-12.2-13.6v0c0-7.5,5.5-13.6,12.2-13.6h168.9
				c6.7,0,12.3,6.1,12.3,13.6v0C194.8,28.5,189.3,34.6,182.6,34.6z"/>
			<path d="M182.6,7.5H13.6c-6.7,0-12.2,6.1-12.2,13.6v0c0,7.5,5.5,13.6,12.2,13.6h168.9c6.7,0,12.3-6.1,12.3-13.6v0
				C194.8,13.6,189.3,7.5,182.6,7.5z M182.6,33.9H13.6C7.2,33.9,2,28.2,2,21.1S7.2,8.2,13.6,8.2h168.9c6.4,0,11.6,5.8,11.6,12.9
				S189,33.9,182.6,33.9z"/>
			<g>
				<path class="st1" d="M15.7,27.2h164.9c4.2,0,7.7-3.2,8.2-7.3c-0.5-4.1-4-7.3-8.2-7.3H15.7c-4.2,0-7.7,3.2-8.2,7.3
					C7.9,24,11.4,27.2,15.7,27.2z"/>
				<path class="st2" d="M180.6,27.2H15.7c-4.2,0-7.7-3.2-8.2-7.3c0,0.3-0.1,0.6-0.1,0.9c0,4.5,3.7,8.2,8.2,8.2h164.9
					c4.5,0,8.2-3.7,8.2-8.2c0-0.3,0-0.6-0.1-0.9C188.3,24,184.8,27.2,180.6,27.2z"/>
				<linearGradient id="SVGID_1_" gradientUnits="userSpaceOnUse" x1="98.1113" y1="27.4086" x2="98.1113" y2="10.77">
					<stop  offset="0.3584" style="stop-color:#BC985E"/>
					<stop  offset="0.7626" style="stop-color:#543B0F"/>
				</linearGradient>
				<path class="st3" d="M15.7,23.5h164.9c4.2,0,7.7-6.1,8.2-1.9c0-0.3,0.1-0.6,0.1-0.9c0-4.5-3.7-8.2-8.2-8.2H15.7
					c-4.5,0-8.2,3.7-8.2,8.2c0,0.3,0,0.6,0.1,0.9C7.9,17.4,11.4,23.5,15.7,23.5z"/>
				<path class="st4" d="M15.7,14h164.9c4.2,0,7.7,3.2,8.2,7.3c0-0.3,0.1-0.6,0.1-0.9c0-4.5-3.7-8.2-8.2-8.2H15.7
					c-4.5,0-8.2,3.7-8.2,8.2c0,0.3,0,0.6,0.1,0.9C7.9,17.3,11.4,14,15.7,14z"/>
			</g>
			<path d="M180.6,11.4H15.7c-5.1,0-9.3,4.2-9.3,9.3s4.2,9.3,9.3,9.3h164.9c5.1,0,9.3-4.2,9.3-9.3S185.7,11.4,180.6,11.4z
				 M189.3,20.8c0,4.8-4,8.8-8.8,8.8H15.7c-4.8,0-8.8-4-8.8-8.8v0c0-4.8,4-8.8,8.8-8.8h164.9C185.4,12,189.3,15.9,189.3,20.8
				L189.3,20.8z"/>
			<path d="M180.6,12H15.7c-4.8,0-8.8,4-8.8,8.8v0c0,4.8,4,8.8,8.8,8.8h164.9c4.8,0,8.8-4,8.8-8.8v0C189.3,15.9,185.4,12,180.6,12z
				 M180.6,29H15.7c-4.5,0-8.2-3.7-8.2-8.2s3.7-8.2,8.2-8.2h164.9c4.5,0,8.2,3.7,8.2,8.2S185.1,29,180.6,29z"/>
		</g>
		<g>
			<polygon class="st5" points="77.2,18.5 68.9,28.8 72.9,28.8 81.3,18.5 			"/>
			<polygon class="st5" points="38.1,18.5 29.7,28.8 33.8,28.8 42.2,18.5 			"/>
			<polygon class="st5" points="118,18.5 109.7,28.8 113.7,28.8 122.1,18.5 			"/>
			<polygon class="st5" points="155.3,18.5 146.9,28.8 151,28.8 159.4,18.5 			"/>
		</g>
	</g>
</g>
<g>
	<linearGradient id="SVGID_2_" gradientUnits="userSpaceOnUse" x1="82.6075" y1="33.687" x2="82.6075" y2="-9.3891">
		<stop  offset="8.072251e-02" style="stop-color:#00384D"/>
		<stop  offset="0.1815" style="stop-color:#4BB7BF"/>
		<stop  offset="0.3691" style="stop-color:#4BB7BF"/>
		<stop  offset="0.3835" style="stop-color:#4BB7BF"/>
		<stop  offset="0.4947" style="stop-color:#1A6474"/>
		<stop  offset="0.5514" style="stop-color:#00384D"/>
	</linearGradient>
	<path class="st6" d="M149.6,29.2H15.6c-4.5,0-8.1-3.7-8.1-8.1v0c0-4.5,3.7-8.1,8.1-8.1h134.1c4.5,0,8.1,3.7,8.1,8.1v0
		C157.8,25.5,154.1,29.2,149.6,29.2z"/>
	<path class="st7" d="M156.2,21.5c0-4.3-3.5-7.8-7.7-7.8H16.3c-4.3,0-7.7,3.5-7.7,7.8v0.7c0,0.4,0,0.7,0.1,1.1
		c0.5-3.8,3.8-6.7,7.7-6.7h132.1c3.9,0,7.1,2.9,7.7,6.7c0.1-0.4,0.1-0.7,0.1-1.1V21.5z"/>
</g>
<g>
	<path class="st8" d="M171.1,27l-2.9-5.4c-0.2-0.6-0.3-1.1,0-1.5l2.9-5.5c0.8-1.7,0.6-3.6-0.5-5.1c0-0.1-0.1-0.1-0.1-0.1
		c-1.2-1.4-3-2.1-4.9-1.8l-5.9,1.2c-0.5,0.1-1,0-1.4-0.4l-4.4-4.4c-1.4-1.4-3.3-1.8-5.1-1.2c-1.8,0.6-3.1,2.1-3.4,4l-0.8,6.3
		c-0.1,0.5-0.3,1-0.8,1.2l-5.5,2.9c-1.7,0.9-2.7,2.6-2.7,4.4c0,2,1.1,3.7,2.8,4.5l5.6,2.6c0.6,0.3,0.8,0.8,0.9,1.1l1,6.2
		c0.3,1.4,1.1,2.6,2.3,3.3c0.8,0.5,1.7,0.7,2.6,0.7c0.5,0,1-0.1,1.5-0.2c0.9-0.2,1.6-0.8,2.1-1.3l4.3-4.5c0,0,0.1-0.1,0.1-0.1
		c0.1-0.1,0.2-0.1,0.5-0.3c0.2,0,0.5-0.1,0.7-0.1l6,0.9c0.9,0.2,1.7,0.1,2.4-0.2c1.3-0.5,2.4-1.5,3-2.8c0,0,0-0.1,0.1-0.1
		C171.9,29.6,171.7,28.1,171.1,27z"/>
	<g>
		<g>
			<path d="M150.5,39.8c-0.9,0-1.8-0.2-2.6-0.7c-1.2-0.7-2-1.9-2.3-3.3l-1-6.2c-0.1-0.3-0.3-0.9-0.9-1.1l-5.6-2.6
				c-1.7-0.8-2.8-2.5-2.8-4.5c0-1.8,1-3.5,2.7-4.4l5.5-2.9c0.5-0.2,0.8-0.7,0.8-1.2l0.8-6.3c0.3-1.9,1.6-3.4,3.4-4
				c1.8-0.6,3.7-0.1,5.1,1.2l4.4,4.4c0.4,0.4,0.9,0.5,1.4,0.4l5.9-1.2c1.8-0.3,3.6,0.4,4.9,1.8c0,0,0.1,0.1,0.1,0.1
				c1,1.5,1.2,3.5,0.5,5.1l-2.9,5.5c-0.2,0.4-0.2,0.9,0,1.5L171,27c0.7,1.1,0.8,2.6,0.3,4.1c0,0,0,0.1-0.1,0.1
				c-0.6,1.4-1.7,2.4-3,2.8c-0.8,0.3-1.5,0.3-2.4,0.2l-6-0.9c-0.3,0-0.6,0-0.7,0.1c-0.3,0.1-0.4,0.2-0.5,0.3c0,0-0.1,0.1-0.1,0.1
				l-4.3,4.5c-0.5,0.5-1.2,1.1-2.1,1.3C151.5,39.8,151,39.8,150.5,39.8z M150.3,5.5c-0.2,0-0.4,0-0.6,0.1c-0.7,0.2-1.1,0.8-1.3,1.5
				l-0.8,6.2c-0.2,1.6-1.2,3-2.6,3.7l-5.4,2.8c-0.6,0.3-1,1-1,1.7c0,0.7,0.4,1.3,1,1.6l5.6,2.6c1.4,0.6,2.4,1.9,2.7,3.4l1,6.2
				c0.1,0.3,0.3,0.9,0.9,1.2c0.4,0.3,1,0.3,1.5,0.2c0.1,0,0.1,0,0.2-0.1c0.1,0,0.3-0.2,0.6-0.4l4.2-4.4c0.5-0.7,1.2-1,1.9-1.3
				c0.1,0,0.1,0,0.2-0.1c0.6-0.1,1.3-0.3,2.2-0.1l6,0.9c0.4,0.1,0.6,0,0.8,0c0,0,0.1,0,0.1,0c0.5-0.2,0.9-0.5,1.1-1.1
				c0.2-0.6,0.1-1.1-0.1-1.4l-3-5.6c0,0,0-0.1-0.1-0.1c-0.7-1.5-0.7-3.1,0.1-4.4l2.8-5.4c0.3-0.6,0.2-1.3-0.2-1.9
				c-0.5-0.5-1.2-0.8-1.9-0.7l-5.9,1.1c-1.6,0.3-3.2-0.2-4.3-1.3L151.6,6C151.3,5.8,150.9,5.5,150.3,5.5z"/>
			<path class="st9" d="M167.7,32.6c-0.5,0.2-1.1,0.2-1.6,0.1l-6.1-0.9c-0.5-0.1-1.1,0-1.5,0.1c-0.5,0.2-0.9,0.4-1.3,0.8l-4.3,4.5
				c-0.4,0.4-0.8,0.7-1.4,0.8c-0.9,0.3-2,0.2-2.8-0.3c-0.8-0.5-1.4-1.4-1.6-2.3l-0.9-6.1c-0.2-1.1-0.8-1.9-1.8-2.3l-5.6-2.6
				c-1.2-0.5-1.9-1.7-1.9-3.1c0-1.3,0.7-2.4,1.9-3.1l5.5-2.8c0.9-0.4,1.6-1.4,1.7-2.4l0.8-6.2c0.2-1.3,1.1-2.3,2.3-2.7
				c1.3-0.4,2.5-0.1,3.5,0.8l4.4,4.4c0.7,0.7,1.8,1.1,2.8,0.8l5.9-1.2c1.3-0.2,2.5,0.3,3.4,1.3c0.7,1.1,0.8,2.4,0.3,3.6l-2.8,5.5
				c-0.5,0.9-0.4,2,0,2.9l2.9,5.5c0.5,0.8,0.5,1.9,0.2,2.8C169.4,31.6,168.7,32.3,167.7,32.6L167.7,32.6z"/>
			<path class="st10" d="M165.2,23.1c0,0,0-0.1-0.1-0.1c-0.7-1.5-0.6-3,0.1-4.3l2.8-5.3c0.2-0.6,0.2-1.3-0.2-1.8
				c-0.5-0.5-1.2-0.8-1.8-0.7l-5.7,1.1c-1.5,0.3-3.1-0.2-4.2-1.3l-4.3-4.3c-0.3-0.3-0.7-0.6-1.2-0.6c-0.2,0-0.4,0-0.6,0.1
				c-0.7,0.2-1.1,0.8-1.2,1.5l-0.8,6c-0.2,1.6-1.1,2.9-2.6,3.6l-5.3,2.7c-0.6,0.3-1,1-1,1.6c0,0.7,0.4,1.3,1,1.6l5.5,2.6
				c1.3,0.6,2.3,1.8,2.6,3.4l0.9,6.1c0.1,0.3,0.3,0.9,0.8,1.2c0.4,0.3,1,0.3,1.5,0.2c0.1,0,0.1,0,0.2,0c0.1,0,0.3-0.2,0.6-0.4
				l4.2-4.4c0.5-0.7,1.2-1,1.8-1.3c0.1,0,0.1,0,0.2-0.1c0.6-0.1,1.3-0.3,2.1-0.1l5.9,0.9c0.4,0.1,0.6,0,0.7,0c0,0,0.1,0,0.1,0
				c0.5-0.2,0.9-0.5,1.1-1.1c0.2-0.6,0.1-1.1-0.1-1.4L165.2,23.1z"/>
			<path class="st11" d="M165.8,23.2c0,0,0-0.1-0.1-0.1c-0.7-1.6-0.7-3.2,0.1-4.5l2.9-5.6c0.3-0.6,0.2-1.3-0.2-1.9
				c-0.5-0.5-1.3-0.8-1.9-0.7l-6,1.2c-1.6,0.3-3.3-0.2-4.4-1.3l-4.6-4.6c-0.3-0.3-0.7-0.6-1.3-0.6c-0.2,0-0.4,0-0.6,0.1
				c-0.7,0.2-1.2,0.8-1.3,1.5l-0.9,6.4c-0.2,1.6-1.2,3.1-2.7,3.8l-5.6,2.9c-0.7,0.4-1.1,1-1.1,1.7c0,0.8,0.4,1.4,1,1.7l5.8,2.7
				c1.4,0.6,2.4,1.9,2.8,3.5l1,6.4c0.1,0.3,0.3,0.9,0.9,1.3c0.4,0.3,1,0.3,1.6,0.2c0.1,0,0.1,0,0.2-0.1c0.1,0,0.3-0.2,0.6-0.4
				l4.4-4.6c0.6-0.7,1.3-1,1.9-1.3c0.1,0,0.1,0,0.2-0.1c0.6-0.1,1.4-0.3,2.2-0.1l6.2,1c0.5,0.1,0.6,0,0.8,0c0,0,0.1,0,0.1,0
				c0.5-0.2,0.9-0.6,1.2-1.1c0.2-0.6,0.2-1.1-0.1-1.5L165.8,23.2z"/>
		</g>
		<g>
			<g>
				<g>
					<path d="M158.2,19.1c2,0,2-3.2,0-3.2C156.2,16,156.2,19.1,158.2,19.1L158.2,19.1z"/>
					<path d="M158.2,19.7c-1.3,0-2-1.1-2-2.1c0-1,0.7-2.1,2-2.1c1.3,0,2,1.1,2,2.1C160.3,18.6,159.6,19.7,158.2,19.7z M158.2,16.5
						c-0.7,0-1,0.6-1,1.1s0.3,1.1,1,1.1c0.7,0,1-0.6,1-1.1S159,16.5,158.2,16.5z"/>
				</g>
			</g>
			<g>
				<g>
					<path d="M149.8,22.3c2,0,2-3.2,0-3.2C147.8,19.1,147.8,22.3,149.8,22.3L149.8,22.3z"/>
					<path d="M149.8,22.8c-1.3,0-2-1.1-2-2.1c0-1,0.7-2.1,2-2.1c1.3,0,2,1.1,2,2.1C151.9,21.8,151.2,22.8,149.8,22.8z M149.8,19.7
						c-0.7,0-1,0.6-1,1.1s0.3,1.1,1,1.1c0.7,0,1-0.6,1-1.1S150.5,19.7,149.8,19.7z"/>
				</g>
			</g>
		</g>
		<path d="M156.1,25.4c-1.2,0-2.2-0.6-2.4-0.7c-0.4-0.2-0.5-0.7-0.3-1.1c0.2-0.4,0.7-0.5,1.1-0.3c0.4,0.2,1.5,0.7,2.2,0.3
			c0.5-0.2,0.8-0.8,0.9-1.8c0.1-0.4,0.5-0.7,0.9-0.7c0.4,0.1,0.7,0.5,0.7,0.9c-0.2,1.5-0.8,2.5-1.8,3
			C156.9,25.3,156.5,25.4,156.1,25.4z"/>
		<circle class="st12" cx="162.5" cy="21.9" r="2.6"/>
		<path class="st13" d="M150.9,6.2l5,5.5c1,1,2.4,1.4,3.8,1.1l5.2-1c0.6-0.1,2-0.2,2.5,0.2c0.6,0.6-0.1,3.7-0.1,3.7l1.5-2.8
			c0.3-0.6,0.2-1.3-0.2-1.9c-0.5-0.6-1.3-0.8-1.9-0.7l-6,1.2c-1.6,0.3-3.3-0.2-4.4-1.3l-4.6-4.6c-0.3-0.3-0.7-0.6-1.3-0.6
			c-0.2,0-0.4,0-0.6,0.1c-0.4,0.1-0.7,0.4-0.9,0.6C148.8,5.8,149.6,5.4,150.9,6.2z"/>
		<circle class="st12" cx="149.9" cy="26.1" r="2.6"/>
	</g>
</g>
</svg>
