<?xml version="1.0" encoding="utf-8"?>
<!-- Generator: Adobe Illustrator 24.2.0, SVG Export Plug-In . SVG Version: 6.00 Build 0)  -->
<svg version="1.1" id="Layer_1" xmlns="http://www.w3.org/2000/svg" xmlns:xlink="http://www.w3.org/1999/xlink" x="0px" y="0px"
	 viewBox="0 0 350 33.8" style="enable-background:new 0 0 350 33.8;" xml:space="preserve">
<style type="text/css">
	.st0{fill:#FFDA83;stroke:#000000;stroke-width:0.3597;stroke-miterlimit:10;}
	.st1{fill:#BC985E;}
	.st2{fill:#AA8441;}
	.st3{fill:url(#SVGID_1_);}
	.st4{fill:#422D0C;}
	.st5{opacity:0.3;fill:#FFFFFF;}
	.st6{fill:url(#SVGID_2_);}
	.st7{opacity:0.6;fill:#FFFFFF;}
	.st8{fill:none;stroke:#FFFFFF;stroke-width:2.4198;stroke-miterlimit:10;}
	.st9{fill:#D8A505;}
	.st10{fill:#FFE9B5;}
	.st11{fill:#F7C402;}
	.st12{opacity:0.63;fill:#FFF2D7;}
	.st13{fill:none;stroke:#000000;stroke-width:1.1871;stroke-linecap:round;stroke-linejoin:round;stroke-miterlimit:10;}
</style>
<g>
	<g>
		<g>
			<path class="st0" d="M337.4,5.9H12.6c-5.5,0-9.9,4.9-9.9,11s4.4,11,9.9,11h324.8c5.4,0,9.9-4.9,9.9-11S342.9,5.9,337.4,5.9z
				 M335.3,24.2H14.3c-4.4,0-7.9-3.4-7.9-7.6S10,9,14.3,9h320.9c4.4,0,7.9,3.4,7.9,7.6S339.6,24.2,335.3,24.2z"/>
			<path d="M337.4,4.7H12.6c-6.1,0-11,5.5-11,12.2c0,6.7,4.9,12.2,11,12.2h324.8c6.1,0,11-5.5,11-12.2
				C348.4,10.2,343.5,4.7,337.4,4.7z M337.4,28.4H12.6c-5.7,0-10.4-5.2-10.4-11.6v0c0-6.4,4.7-11.6,10.4-11.6h324.8
				c5.7,0,10.4,5.2,10.4,11.6v0C347.8,23.2,343.1,28.4,337.4,28.4z"/>
			<path d="M337.4,5.3H12.6c-5.7,0-10.4,5.2-10.4,11.6v0c0,6.4,4.7,11.6,10.4,11.6h324.8c5.7,0,10.4-5.2,10.4-11.6v0
				C347.8,10.5,343.1,5.3,337.4,5.3z M337.4,27.8H12.6c-5.5,0-9.9-4.9-9.9-11s4.4-11,9.9-11h324.8c5.4,0,9.9,4.9,9.9,11
				S342.9,27.8,337.4,27.8z"/>
			<g>
				<path class="st1" d="M14.3,22.1h321.4c3.6,0,6.6-2.7,7-6.3c-0.4-3.5-3.4-6.3-7-6.3H14.3c-3.6,0-6.6,2.7-7,6.3
					C7.7,19.4,10.7,22.1,14.3,22.1z"/>
				<path class="st2" d="M335.7,22.1H14.3c-3.6,0-6.6-2.7-7-6.3c0,0.3,0,0.5,0,0.8c0,3.9,3.2,7,7,7h321.4c3.9,0,7-3.2,7-7
					c0-0.3,0-0.5,0-0.8C342.3,19.4,339.3,22.1,335.7,22.1z"/>
				<linearGradient id="SVGID_1_" gradientUnits="userSpaceOnUse" x1="175.0099" y1="22.2888" x2="175.0099" y2="8.1178">
					<stop  offset="0.3584" style="stop-color:#BC985E"/>
					<stop  offset="0.7626" style="stop-color:#543B0F"/>
				</linearGradient>
				<path class="st3" d="M14.3,19h321.4c3.6,0,6.6-5.2,7-1.7c0-0.3,0-0.5,0-0.8c0-3.9-3.2-7-7-7H14.3c-3.9,0-7,3.2-7,7
					c0,0.3,0,0.5,0,0.8C7.7,13.8,10.7,19,14.3,19z"/>
				<path class="st4" d="M14.3,10.9h321.4c3.6,0,6.6,2.7,7,6.3c0-0.3,0-0.5,0-0.8c0-3.9-3.2-7-7-7H14.3c-3.9,0-7,3.2-7,7
					c0,0.3,0,0.5,0,0.8C7.7,13.6,10.7,10.9,14.3,10.9z"/>
			</g>
			<path d="M335.7,8.7H14.3c-4.4,0-7.9,3.6-7.9,7.9s3.6,7.9,7.9,7.9h321.4c4.4,0,7.9-3.6,7.9-7.9S340.1,8.7,335.7,8.7z M343.2,16.6
				c0,4.1-3.4,7.5-7.5,7.5H14.3c-4.1,0-7.5-3.4-7.5-7.5v0c0-4.1,3.4-7.5,7.5-7.5h321.4C339.8,9.1,343.2,12.5,343.2,16.6L343.2,16.6z
				"/>
			<path d="M335.7,9.1H14.3c-4.1,0-7.5,3.4-7.5,7.5v0c0,4.1,3.4,7.5,7.5,7.5h321.4c4.1,0,7.5-3.4,7.5-7.5v0
				C343.2,12.5,339.8,9.1,335.7,9.1z M335.7,23.7H14.3c-3.9,0-7-3.2-7-7s3.2-7,7-7h321.4c3.9,0,7,3.2,7,7S339.6,23.7,335.7,23.7z"/>
		</g>
		<g>
			<polygon class="st5" points="138.1,14.8 128.7,23.6 135.5,23.6 144.9,14.8 			"/>
			<polygon class="st5" points="72.5,14.8 63.1,23.6 69.9,23.6 79.3,14.8 			"/>
			<polygon class="st5" points="206.5,14.8 197.1,23.6 203.9,23.6 213.2,14.8 			"/>
			<polygon class="st5" points="269,14.8 259.6,23.6 266.4,23.6 275.7,14.8 			"/>
		</g>
	</g>
	<g>
		<linearGradient id="SVGID_2_" gradientUnits="userSpaceOnUse" x1="39.0934" y1="27.5158" x2="39.0934" y2="-9.6806">
			<stop  offset="8.072251e-02" style="stop-color:#00384D"/>
			<stop  offset="0.1815" style="stop-color:#4BB7BF"/>
			<stop  offset="0.3691" style="stop-color:#4BB7BF"/>
			<stop  offset="0.3835" style="stop-color:#4BB7BF"/>
			<stop  offset="0.4947" style="stop-color:#1A6474"/>
			<stop  offset="0.5514" style="stop-color:#00384D"/>
		</linearGradient>
		<path class="st6" d="M63.8,23.6H14.3c-3.9,0-7-3.2-7-7v0c0-3.9,3.2-7,7-7h49.5c3.9,0,7,3.2,7,7v0C70.9,20.5,67.7,23.6,63.8,23.6z"
			/>
		<path class="st7" d="M69.7,17.2c0-3.7-3-6.7-6.7-6.7H15.1c-3.7,0-6.7,3-6.7,6.7v0.6c0,0.3,0,0.6,0.1,1C9,15.5,11.8,13,15.1,13H63
			c3.4,0,6.1,2.5,6.6,5.8c0-0.3,0.1-0.6,0.1-1V17.2z"/>
	</g>
</g>
<g>
	<path class="st8" d="M82.4,21.4l-2.2-4.1c-0.2-0.5-0.2-0.8,0-1.2l2.2-4.3c0.6-1.3,0.4-2.8-0.4-3.9c0,0-0.1-0.1-0.1-0.1
		c-1-1.1-2.3-1.6-3.7-1.4l-4.5,0.9c-0.4,0.1-0.8,0-1.1-0.3l-3.4-3.4c-1-1.1-2.5-1.4-3.9-0.9c-1.4,0.5-2.3,1.6-2.6,3.1L62,10.6
		c0,0.4-0.3,0.7-0.6,0.9l-4.2,2.2c-1.3,0.7-2.1,2-2.1,3.4c0,1.5,0.8,2.8,2.1,3.4l4.3,2c0.4,0.2,0.6,0.6,0.7,0.9l0.7,4.8
		c0.2,1.1,0.9,2,1.7,2.5c0.6,0.4,1.3,0.6,2,0.6c0.4,0,0.8-0.1,1.2-0.2c0.7-0.2,1.2-0.6,1.6-1l3.3-3.5c0,0,0.1-0.1,0.1-0.1
		c0-0.1,0.1-0.1,0.4-0.2c0.1,0,0.4-0.1,0.6,0l4.6,0.7c0.7,0.1,1.3,0.1,1.9-0.1c1-0.3,1.8-1.1,2.3-2.2c0,0,0-0.1,0-0.1
		C83,23.4,82.9,22.2,82.4,21.4z"/>
	<g>
		<g>
			<path d="M66.7,31.3c-0.7,0-1.4-0.2-2-0.6c-0.9-0.6-1.5-1.5-1.7-2.5l-0.7-4.8c-0.1-0.3-0.2-0.7-0.7-0.9l-4.3-2
				c-1.3-0.6-2.1-1.9-2.1-3.4c0-1.4,0.8-2.7,2.1-3.4l4.2-2.2c0.4-0.2,0.6-0.5,0.6-0.9l0.7-4.8c0.2-1.5,1.2-2.6,2.6-3.1
				c1.4-0.5,2.8-0.1,3.9,0.9L72.5,7c0.3,0.3,0.7,0.4,1.1,0.3l4.5-0.9c1.4-0.2,2.8,0.3,3.7,1.4c0,0,0.1,0.1,0.1,0.1
				c0.8,1.1,0.9,2.7,0.4,3.9l-2.2,4.3c-0.2,0.3-0.2,0.7,0,1.2l2.2,4.1c0.5,0.8,0.6,2,0.2,3.1c0,0,0,0.1,0,0.1
				c-0.5,1.1-1.3,1.8-2.3,2.2c-0.6,0.2-1.2,0.3-1.9,0.1l-4.6-0.7c-0.2,0-0.4,0-0.6,0c-0.3,0.1-0.3,0.2-0.4,0.2c0,0-0.1,0.1-0.1,0.1
				l-3.3,3.5c-0.4,0.4-0.9,0.8-1.6,1C67.4,31.2,67,31.3,66.7,31.3z M66.5,4.9c-0.1,0-0.3,0-0.5,0.1c-0.5,0.2-0.9,0.6-1,1.1l-0.6,4.7
				c-0.1,1.2-0.9,2.3-2,2.8l-4.1,2.1c-0.5,0.3-0.8,0.8-0.8,1.3c0,0.6,0.3,1,0.7,1.2l4.3,2c1,0.5,1.8,1.4,2,2.6l0.7,4.7
				c0.1,0.2,0.2,0.7,0.7,0.9c0.3,0.2,0.8,0.3,1.2,0.1c0,0,0.1,0,0.1,0c0.1,0,0.2-0.1,0.4-0.3l3.2-3.4c0.4-0.5,0.9-0.8,1.4-1
				c0.1,0,0.1,0,0.2-0.1c0.4-0.1,1-0.2,1.7-0.1l4.6,0.7c0.3,0.1,0.5,0,0.6,0c0,0,0,0,0.1,0c0.4-0.1,0.7-0.4,0.9-0.8
				c0.1-0.4,0.1-0.8-0.1-1.1L78,18.4c0,0,0-0.1,0-0.1c-0.5-1.2-0.5-2.4,0-3.3l2.2-4.2c0.2-0.4,0.2-1-0.1-1.4
				c-0.4-0.4-0.9-0.6-1.4-0.5l-4.5,0.9c-1.2,0.2-2.4-0.1-3.3-1l-3.4-3.4C67.2,5.2,66.9,4.9,66.5,4.9z"/>
			<path class="st9" d="M79.8,25.7c-0.4,0.2-0.8,0.2-1.2,0.1l-4.7-0.7c-0.4-0.1-0.8,0-1.1,0.1c-0.4,0.2-0.7,0.3-1,0.6l-3.3,3.5
				c-0.3,0.3-0.6,0.6-1,0.6c-0.7,0.2-1.5,0.2-2.2-0.2s-1-1-1.2-1.8l-0.7-4.7c-0.2-0.8-0.6-1.5-1.4-1.8l-4.3-2
				c-0.9-0.4-1.5-1.3-1.5-2.3c0-1,0.6-1.9,1.5-2.3l4.2-2.2c0.7-0.3,1.2-1,1.3-1.9L63.9,6c0.2-1,0.8-1.8,1.8-2.1
				c1-0.3,1.9-0.1,2.7,0.6l3.4,3.4c0.6,0.6,1.4,0.8,2.2,0.6l4.5-0.9c1-0.2,1.9,0.2,2.6,1c0.6,0.8,0.6,1.9,0.2,2.7L79,15.6
				c-0.4,0.7-0.3,1.5,0,2.3l2.3,4.2c0.4,0.6,0.4,1.5,0.2,2.2C81.1,24.9,80.6,25.5,79.8,25.7L79.8,25.7z"/>
			<path class="st10" d="M77.9,18.5C77.9,18.4,77.8,18.4,77.9,18.5c-0.5-1.2-0.5-2.4,0-3.4L80,11c0.2-0.4,0.2-1-0.1-1.4
				C79.5,9.2,79,9,78.5,9.1L74.1,10c-1.2,0.2-2.4-0.1-3.2-1l-3.3-3.3c-0.2-0.2-0.5-0.4-0.9-0.4c-0.1,0-0.3,0-0.4,0.1
				c-0.5,0.2-0.9,0.6-0.9,1.1l-0.6,4.6c-0.1,1.2-0.9,2.3-2,2.7l-4,2.1c-0.5,0.3-0.8,0.7-0.8,1.2c0,0.6,0.3,1,0.7,1.2l4.2,2
				c1,0.5,1.8,1.4,2,2.6l0.7,4.6c0.1,0.2,0.2,0.7,0.6,0.9c0.3,0.2,0.7,0.2,1.1,0.1c0,0,0.1,0,0.1,0c0.1,0,0.2-0.1,0.4-0.3L71,25
				c0.4-0.5,0.9-0.8,1.4-1c0,0,0.1,0,0.2,0c0.4-0.1,1-0.2,1.6-0.1l4.5,0.7c0.3,0.1,0.5,0,0.6,0c0,0,0,0,0.1,0
				c0.4-0.1,0.7-0.4,0.8-0.8c0.1-0.4,0.1-0.8-0.1-1.1L77.9,18.5z"/>
			<path class="st11" d="M78.4,18.5C78.4,18.5,78.4,18.4,78.4,18.5c-0.6-1.3-0.6-2.5,0-3.5l2.2-4.3c0.2-0.4,0.2-1-0.1-1.5
				c-0.4-0.4-1-0.6-1.5-0.5l-4.6,0.9c-1.2,0.2-2.5-0.1-3.4-1L67.5,5c-0.2-0.2-0.6-0.4-1-0.4c-0.1,0-0.3,0-0.5,0.1
				c-0.5,0.2-0.9,0.6-1,1.2l-0.7,4.9c-0.1,1.3-0.9,2.4-2.1,2.9l-4.3,2.2c-0.5,0.3-0.8,0.8-0.8,1.3c0,0.6,0.3,1.1,0.8,1.3l4.4,2.1
				c1.1,0.5,1.9,1.5,2.1,2.7l0.8,4.9c0.1,0.2,0.2,0.7,0.7,1c0.3,0.2,0.8,0.3,1.2,0.1c0,0,0.1,0,0.1,0c0.1,0,0.2-0.1,0.4-0.3l3.4-3.5
				c0.4-0.5,1-0.8,1.5-1c0.1,0,0.1,0,0.2-0.1c0.5-0.1,1.1-0.2,1.7-0.1l4.8,0.7c0.3,0.1,0.5,0,0.6,0c0,0,0,0,0.1,0
				c0.4-0.1,0.7-0.4,0.9-0.9c0.1-0.4,0.1-0.9-0.1-1.1L78.4,18.5z"/>
		</g>
		<g>
			<g>
				<g>
					<path d="M72.6,15.4c1.5,0,1.5-2.4,0-2.4S71,15.4,72.6,15.4L72.6,15.4z"/>
					<path d="M72.6,15.8c-1,0-1.6-0.8-1.6-1.6c0-0.8,0.5-1.6,1.6-1.6c1,0,1.6,0.8,1.6,1.6C74.1,15,73.6,15.8,72.6,15.8z M72.6,13.4
						c-0.6,0-0.7,0.4-0.7,0.8c0,0.4,0.2,0.8,0.7,0.8c0.6,0,0.7-0.4,0.7-0.8C73.3,13.8,73.1,13.4,72.6,13.4z"/>
				</g>
			</g>
			<g>
				<g>
					<path d="M66.1,17.8c1.5,0,1.5-2.4,0-2.4S64.6,17.8,66.1,17.8L66.1,17.8z"/>
					<path d="M66.1,18.2c-1,0-1.6-0.8-1.6-1.6s0.5-1.6,1.6-1.6c1,0,1.6,0.8,1.6,1.6S67.1,18.2,66.1,18.2z M66.1,15.8
						c-0.6,0-0.7,0.4-0.7,0.8c0,0.4,0.2,0.8,0.7,0.8c0.6,0,0.7-0.4,0.7-0.8C66.9,16.2,66.7,15.8,66.1,15.8z"/>
				</g>
			</g>
		</g>
		<path class="st12" d="M66.9,5.5l3.9,4.2c0.8,0.8,1.8,1.1,2.9,0.9l4-0.8c0.4-0.1,1.5-0.2,1.9,0.2c0.5,0.5-0.1,2.9-0.1,2.9l1.1-2.2
			c0.2-0.4,0.2-1-0.1-1.5c-0.4-0.4-1-0.6-1.5-0.5l-4.6,0.9c-1.2,0.2-2.5-0.1-3.4-1L67.5,5c-0.2-0.2-0.6-0.4-1-0.4
			c-0.1,0-0.3,0-0.5,0.1c-0.3,0.1-0.5,0.3-0.7,0.5C65.3,5.2,66,4.9,66.9,5.5z"/>
		<path class="st13" d="M69.8,19.9c0,0,0.9,0.3,1.6-0.1c0.9-0.4,1.1-1.3,1.1-1.3"/>
	</g>
</g>
</svg>
