<?xml version="1.0" encoding="utf-8"?>
<!-- Generator: Adobe Illustrator 24.2.0, SVG Export Plug-In . SVG Version: 6.00 Build 0)  -->
<svg version="1.1" id="Layer_1" xmlns="http://www.w3.org/2000/svg" xmlns:xlink="http://www.w3.org/1999/xlink" x="0px" y="0px"
	 viewBox="0 0 212 43.6" style="enable-background:new 0 0 212 43.6;" xml:space="preserve">
<style type="text/css">
	.st0{fill:#FFDA83;stroke:#000000;stroke-width:0.4223;stroke-miterlimit:10;}
	.st1{fill:#BC985E;}
	.st2{fill:#AA8441;}
	.st3{fill:url(#SVGID_1_);}
	.st4{fill:#422D0C;}
	.st5{opacity:0.3;fill:#FFFFFF;}
	.st6{fill:url(#SVGID_2_);}
	.st7{opacity:0.6;fill:#FFFFFF;}
	.st8{fill:none;stroke:#FFFFFF;stroke-width:3.1941;stroke-miterlimit:10;}
	.st9{fill:#D8A505;}
	.st10{fill:#FFE9B5;}
	.st11{fill:#F7C402;}
	.st12{fill:#E66869;}
	.st13{opacity:0.63;fill:#FFF2D7;}
</style>
<g>
	<g>
		<g>
			<path class="st0" d="M183.8,8.6H14.8c-6.4,0-11.6,5.8-11.6,12.9s5.2,12.9,11.6,12.9h168.9c6.4,0,11.6-5.8,11.6-12.9
				S190.2,8.6,183.8,8.6z M181.3,30H16.9c-5.1,0-9.3-4-9.3-8.9s4.2-8.9,9.3-8.9h164.4c5.1,0,9.3,4,9.3,8.9S186.4,30,181.3,30z"/>
			<path d="M183.8,7.2H14.8c-7.1,0-12.9,6.4-12.9,14.3c0,7.9,5.8,14.3,12.9,14.3h168.9c7.1,0,12.9-6.4,12.9-14.3
				C196.7,13.6,190.9,7.2,183.8,7.2z M183.8,35.1H14.8C8.1,35.1,2.6,29,2.6,21.5v0C2.6,14,8.1,7.9,14.8,7.9h168.9
				c6.7,0,12.3,6.1,12.3,13.6v0C196,29,190.5,35.1,183.8,35.1z"/>
			<path d="M183.8,7.9H14.8C8.1,7.9,2.6,14,2.6,21.5v0c0,7.5,5.5,13.6,12.2,13.6h168.9c6.7,0,12.3-6.1,12.3-13.6v0
				C196,14,190.5,7.9,183.8,7.9z M183.8,34.4H14.8c-6.4,0-11.6-5.8-11.6-12.9S8.4,8.6,14.8,8.6h168.9c6.4,0,11.6,5.8,11.6,12.9
				S190.2,34.4,183.8,34.4z"/>
			<g>
				<path class="st1" d="M16.9,27.6h164.9c4.2,0,7.7-3.2,8.2-7.3c-0.5-4.1-4-7.3-8.2-7.3H16.9c-4.2,0-7.7,3.2-8.2,7.3
					C9.1,24.4,12.6,27.6,16.9,27.6z"/>
				<path class="st2" d="M181.8,27.6H16.9c-4.2,0-7.7-3.2-8.2-7.3c0,0.3-0.1,0.6-0.1,0.9c0,4.5,3.7,8.2,8.2,8.2h164.9
					c4.5,0,8.2-3.7,8.2-8.2c0-0.3,0-0.6-0.1-0.9C189.5,24.4,186,27.6,181.8,27.6z"/>
				<linearGradient id="SVGID_1_" gradientUnits="userSpaceOnUse" x1="99.3195" y1="27.8417" x2="99.3195" y2="11.203">
					<stop  offset="0.3584" style="stop-color:#BC985E"/>
					<stop  offset="0.7626" style="stop-color:#543B0F"/>
				</linearGradient>
				<path class="st3" d="M16.9,23.9h164.9c4.2,0,7.7-6.1,8.2-1.9c0-0.3,0.1-0.6,0.1-0.9c0-4.5-3.7-8.2-8.2-8.2H16.9
					c-4.5,0-8.2,3.7-8.2,8.2c0,0.3,0,0.6,0.1,0.9C9.1,17.9,12.6,23.9,16.9,23.9z"/>
				<path class="st4" d="M16.9,14.5h164.9c4.2,0,7.7,3.2,8.2,7.3c0-0.3,0.1-0.6,0.1-0.9c0-4.5-3.7-8.2-8.2-8.2H16.9
					c-4.5,0-8.2,3.7-8.2,8.2c0,0.3,0,0.6,0.1,0.9C9.1,17.7,12.6,14.5,16.9,14.5z"/>
			</g>
			<path d="M181.8,11.9H16.9c-5.1,0-9.3,4.2-9.3,9.3s4.2,9.3,9.3,9.3h164.9c5.1,0,9.3-4.2,9.3-9.3S186.9,11.9,181.8,11.9z
				 M190.6,21.2c0,4.8-4,8.8-8.8,8.8H16.9c-4.8,0-8.8-4-8.8-8.8v0c0-4.8,4-8.8,8.8-8.8h164.9C186.6,12.4,190.6,16.4,190.6,21.2
				L190.6,21.2z"/>
			<path d="M181.8,12.4H16.9c-4.8,0-8.8,4-8.8,8.8v0c0,4.8,4,8.8,8.8,8.8h164.9c4.8,0,8.8-4,8.8-8.8v0
				C190.6,16.4,186.6,12.4,181.8,12.4z M181.8,29.4H16.9c-4.5,0-8.2-3.7-8.2-8.2s3.7-8.2,8.2-8.2h164.9c4.5,0,8.2,3.7,8.2,8.2
				S186.3,29.4,181.8,29.4z"/>
		</g>
		<g>
			<polygon class="st5" points="78.5,18.9 70.1,29.3 74.1,29.3 82.5,18.9 			"/>
			<polygon class="st5" points="39.3,18.9 30.9,29.3 35,29.3 43.4,18.9 			"/>
			<polygon class="st5" points="119.2,18.9 110.9,29.3 114.9,29.3 123.3,18.9 			"/>
			<polygon class="st5" points="156.5,18.9 148.2,29.3 152.2,29.3 160.6,18.9 			"/>
		</g>
	</g>
</g>
<g>
	<linearGradient id="SVGID_2_" gradientUnits="userSpaceOnUse" x1="99.3411" y1="33.8298" x2="99.3411" y2="-9.2462">
		<stop  offset="8.072251e-02" style="stop-color:#00384D"/>
		<stop  offset="0.1815" style="stop-color:#4BB7BF"/>
		<stop  offset="0.3691" style="stop-color:#4BB7BF"/>
		<stop  offset="0.3835" style="stop-color:#4BB7BF"/>
		<stop  offset="0.4947" style="stop-color:#1A6474"/>
		<stop  offset="0.5514" style="stop-color:#00384D"/>
	</linearGradient>
	<path class="st6" d="M181.9,29.3H16.8c-4.5,0-8.1-3.7-8.1-8.1v0c0-4.5,3.7-8.1,8.1-8.1h165.1c4.5,0,8.1,3.7,8.1,8.1v0
		C190,25.7,186.4,29.3,181.9,29.3z"/>
	<path class="st7" d="M188.5,21.6c0-4.3-3.5-7.8-7.7-7.8H17.5c-4.3,0-7.7,3.5-7.7,7.8v0.7c0,0.4,0,0.7,0.1,1.1
		c0.5-3.8,3.8-6.7,7.7-6.7h163.2c3.9,0,7.1,2.9,7.7,6.7c0.1-0.4,0.1-0.7,0.1-1.1V21.6z"/>
</g>
<g>
	<path class="st8" d="M208,27.5l-3-5.5c-0.3-0.6-0.3-1.1,0-1.5l2.9-5.6c0.8-1.7,0.6-3.7-0.5-5.2c0-0.1-0.1-0.1-0.1-0.1
		c-1.3-1.4-3.1-2.1-4.9-1.8l-6,1.2c-0.5,0.1-1.1,0-1.4-0.4L190.5,4c-1.4-1.4-3.3-1.8-5.1-1.2c-1.8,0.6-3.1,2.1-3.4,4.1l-0.9,6.3
		c-0.1,0.5-0.4,1-0.9,1.2l-5.6,2.9c-1.7,0.9-2.7,2.6-2.7,4.5c0,2,1.1,3.7,2.8,4.5l5.7,2.7c0.6,0.3,0.8,0.8,0.9,1.1l1,6.3
		c0.3,1.4,1.1,2.6,2.3,3.4c0.8,0.5,1.7,0.7,2.6,0.7c0.5,0,1-0.1,1.5-0.2c1-0.2,1.6-0.8,2.1-1.3l4.4-4.6c0,0,0.1-0.1,0.1-0.1
		c0.1-0.1,0.2-0.1,0.5-0.3c0.2,0,0.5-0.1,0.8-0.1l6.1,0.9c0.9,0.2,1.7,0.1,2.5-0.2c1.3-0.5,2.4-1.5,3-2.9c0,0,0-0.1,0.1-0.1
		C208.8,30.1,208.7,28.6,208,27.5z"/>
	<g>
		<g>
			<path d="M187.2,40.5c-0.9,0-1.8-0.3-2.6-0.7c-1.2-0.7-2-1.9-2.3-3.4l-1-6.3c-0.1-0.3-0.3-0.9-0.9-1.1l-5.7-2.7
				c-1.7-0.8-2.8-2.5-2.8-4.5c0-1.8,1.1-3.6,2.7-4.5l5.6-2.9c0.5-0.2,0.8-0.7,0.9-1.2l0.9-6.3c0.3-2,1.6-3.5,3.4-4.1
				c1.8-0.6,3.8-0.1,5.1,1.2l4.5,4.5c0.4,0.4,0.9,0.5,1.4,0.4l6-1.2c1.8-0.3,3.6,0.4,4.9,1.8c0,0,0.1,0.1,0.1,0.1
				c1.1,1.5,1.2,3.5,0.5,5.2l-2.9,5.6c-0.2,0.4-0.2,1,0,1.5l3,5.5c0.7,1.1,0.8,2.6,0.3,4.1c0,0,0,0.1-0.1,0.1
				c-0.6,1.4-1.7,2.4-3,2.9c-0.8,0.3-1.6,0.4-2.5,0.2l-6.1-0.9c-0.3,0-0.6,0-0.8,0.1c-0.3,0.1-0.4,0.2-0.5,0.3c0,0-0.1,0.1-0.1,0.1
				l-4.4,4.6c-0.5,0.5-1.2,1.1-2.1,1.3C188.2,40.4,187.7,40.5,187.2,40.5z M187,5.7c-0.2,0-0.4,0-0.6,0.1c-0.7,0.2-1.1,0.8-1.3,1.5
				l-0.8,6.2c-0.2,1.6-1.2,3-2.6,3.7l-5.4,2.8c-0.6,0.3-1.1,1-1.1,1.7c0,0.7,0.4,1.4,1,1.6l5.7,2.7c1.4,0.6,2.4,1.9,2.7,3.5l1,6.2
				c0.1,0.3,0.3,0.9,0.9,1.2c0.4,0.3,1,0.3,1.5,0.2c0.1,0,0.1,0,0.2-0.1c0.1,0,0.3-0.2,0.6-0.4l4.3-4.5c0.5-0.7,1.2-1,1.9-1.3
				c0.1,0,0.1,0,0.2-0.1c0.6-0.1,1.4-0.3,2.2-0.1l6.1,0.9c0.4,0.1,0.6,0,0.8,0c0,0,0.1,0,0.1,0c0.5-0.2,0.9-0.5,1.1-1.1
				c0.2-0.6,0.1-1.1-0.1-1.4l-3-5.6c0,0,0-0.1-0.1-0.1c-0.7-1.5-0.7-3.1,0.1-4.4l2.9-5.5c0.3-0.6,0.2-1.3-0.2-1.9
				c-0.5-0.5-1.2-0.8-1.9-0.7l-5.9,1.2c-1.6,0.3-3.2-0.2-4.3-1.3l-4.5-4.5C188,6,187.5,5.7,187,5.7z"/>
			<path class="st9" d="M204.6,33.2c-0.5,0.2-1.1,0.2-1.6,0.1l-6.2-1c-0.5-0.1-1.1,0-1.5,0.1c-0.5,0.2-1,0.4-1.3,0.9l-4.4,4.6
				c-0.4,0.4-0.9,0.7-1.4,0.9c-1,0.3-2,0.2-2.9-0.3c-0.9-0.5-1.4-1.4-1.6-2.3l-1-6.2c-0.2-1.1-0.9-1.9-1.8-2.3l-5.6-2.7
				c-1.2-0.5-1.9-1.7-1.9-3.1c0-1.3,0.7-2.4,1.9-3.1l5.5-2.9c1-0.4,1.6-1.4,1.7-2.4l0.9-6.3c0.2-1.3,1.1-2.3,2.3-2.8
				c1.3-0.4,2.6-0.1,3.5,0.9l4.5,4.5c0.7,0.7,1.8,1.1,2.9,0.9l6-1.2c1.3-0.2,2.6,0.3,3.4,1.3c0.7,1.1,0.9,2.4,0.3,3.6l-2.9,5.5
				c-0.5,1-0.4,2,0,3l3,5.5c0.5,0.9,0.5,1.9,0.2,2.9C206.3,32.1,205.6,32.9,204.6,33.2L204.6,33.2z"/>
			<path class="st10" d="M202,23.6c0,0,0-0.1-0.1-0.1c-0.7-1.5-0.6-3,0.1-4.3l2.8-5.4c0.3-0.6,0.2-1.3-0.2-1.9
				c-0.5-0.5-1.2-0.8-1.9-0.7l-5.8,1.1c-1.5,0.3-3.1-0.2-4.2-1.3l-4.4-4.4c-0.3-0.3-0.7-0.6-1.3-0.6c-0.2,0-0.4,0-0.6,0.1
				c-0.7,0.2-1.1,0.8-1.2,1.5l-0.8,6.1c-0.2,1.6-1.2,3-2.6,3.6l-5.3,2.8c-0.6,0.3-1,1-1,1.6c0,0.7,0.4,1.3,1,1.6l5.6,2.6
				c1.4,0.6,2.3,1.8,2.6,3.4l1,6.1c0.1,0.3,0.3,0.9,0.8,1.2c0.4,0.3,1,0.3,1.5,0.2c0.1,0,0.1,0,0.2,0c0.1,0,0.3-0.2,0.6-0.4l4.2-4.4
				c0.5-0.7,1.2-1,1.9-1.3c0.1,0,0.1,0,0.2-0.1c0.6-0.1,1.3-0.3,2.1-0.1l6,0.9c0.4,0.1,0.6,0,0.7,0c0,0,0.1,0,0.1,0
				c0.5-0.2,0.9-0.5,1.1-1.1c0.2-0.6,0.1-1.1-0.1-1.4L202,23.6z"/>
			<path class="st11" d="M202.7,23.6c0,0,0-0.1-0.1-0.1c-0.7-1.6-0.7-3.2,0.1-4.6l2.9-5.7c0.3-0.6,0.2-1.4-0.2-2
				c-0.5-0.6-1.3-0.8-1.9-0.7l-6.1,1.2c-1.6,0.3-3.3-0.2-4.5-1.3l-4.6-4.6c-0.3-0.3-0.7-0.6-1.3-0.6c-0.2,0-0.4,0-0.6,0.1
				c-0.7,0.2-1.2,0.8-1.3,1.6l-0.9,6.4c-0.2,1.7-1.2,3.1-2.7,3.8l-5.6,2.9c-0.7,0.4-1.1,1-1.1,1.7c0,0.8,0.4,1.4,1,1.7l5.9,2.8
				c1.4,0.6,2.5,1.9,2.8,3.6l1,6.4c0.1,0.3,0.3,0.9,0.9,1.3c0.5,0.3,1,0.3,1.6,0.2c0.1,0,0.1,0,0.2-0.1c0.1,0,0.3-0.2,0.6-0.4
				l4.4-4.6c0.6-0.7,1.3-1.1,2-1.3c0.1,0,0.1-0.1,0.2-0.1c0.6-0.2,1.4-0.3,2.3-0.1l6.3,1c0.5,0.1,0.7,0,0.8,0c0,0,0.1,0,0.1,0
				c0.5-0.2,0.9-0.6,1.2-1.1c0.2-0.6,0.2-1.1-0.1-1.5L202.7,23.6z"/>
		</g>
		<g>
			<g>
				<g>
					<path d="M195,19.5c2,0,2-3.2,0-3.2S193,19.5,195,19.5L195,19.5z"/>
					<path d="M195,20.1c-1.3,0-2-1.1-2-2.1s0.7-2.1,2-2.1c1.3,0,2,1.1,2,2.1S196.4,20.1,195,20.1z M195,16.9c-0.7,0-1,0.6-1,1.1
						s0.3,1.1,1,1.1c0.7,0,1-0.6,1-1.1S195.7,16.9,195,16.9z"/>
				</g>
			</g>
			<g>
				<g>
					<path d="M186.5,22.7c2,0,2-3.2,0-3.2S184.5,22.7,186.5,22.7L186.5,22.7z"/>
					<path d="M186.5,23.3c-1.3,0-2-1.1-2-2.1s0.7-2.1,2-2.1c1.3,0,2,1.1,2,2.1S187.8,23.3,186.5,23.3z M186.5,20.1
						c-0.7,0-1,0.6-1,1.1s0.3,1.1,1,1.1c0.7,0,1-0.6,1-1.1S187.2,20.1,186.5,20.1z"/>
				</g>
			</g>
		</g>
		<path d="M192.8,25.9c-1.2,0-2.3-0.6-2.4-0.7c-0.4-0.2-0.5-0.7-0.3-1.1c0.2-0.4,0.7-0.5,1.1-0.3c0.4,0.2,1.5,0.7,2.2,0.4
			c0.5-0.2,0.8-0.8,1-1.8c0.1-0.4,0.5-0.7,0.9-0.7c0.4,0.1,0.7,0.5,0.7,0.9c-0.2,1.5-0.9,2.5-1.9,3
			C193.7,25.8,193.2,25.9,192.8,25.9z"/>
		<circle class="st12" cx="199.3" cy="22.3" r="2.7"/>
		<path class="st13" d="M187.6,6.5l5.1,5.6c1,1,2.4,1.4,3.8,1.2l5.3-1c0.6-0.1,2-0.2,2.5,0.2c0.6,0.6-0.1,3.8-0.1,3.8l1.5-2.8
			c0.3-0.6,0.2-1.4-0.2-2c-0.5-0.6-1.3-0.8-1.9-0.7l-6.1,1.2c-1.6,0.3-3.3-0.2-4.5-1.3l-4.6-4.6c-0.3-0.3-0.7-0.6-1.3-0.6
			c-0.2,0-0.4,0-0.6,0.1c-0.4,0.1-0.7,0.4-0.9,0.7C185.5,6,186.3,5.7,187.6,6.5z"/>
		<circle class="st12" cx="186.5" cy="26.6" r="2.7"/>
	</g>
</g>
</svg>
