<svg xmlns="http://www.w3.org/2000/svg" viewBox="0 0 478 150"><defs><style>.cls-1{fill:#ffda83;}.cls-2{fill:#f8dad4;}</style></defs><title>RetroalimentacioÌn pag completa Ciencia en casa</title><g id="fondos"><polygon class="cls-1" points="369.18 8 368.89 29.04 351.2 33.55 367.85 43.91 372.14 63.75 383.31 45.04 401.9 49.72 393.4 33.61 400.68 18.01 382.87 23.59 369.18 8"/><path d="M367.68,8l-.28,21,1.1-1.45-17.7,4.52a1.51,1.51,0,0,0-.36,2.74L358.76,40l6,3.75c1.12.7,2.36,2.24,1.62.59,1.35,3,1.55,7.14,2.24,10.34l2,9.44a1.51,1.51,0,0,0,2.74.35l11.18-18.7-1.69.69,18.58,4.67a1.52,1.52,0,0,0,1.7-2.2c-2.69-5.1-4.91-11.41-8.42-16,.76,1-.7,1.55.19.79a5.34,5.34,0,0,0,.71-1.53L398.13,27,402,18.77c.52-1.11-.35-2.63-1.69-2.21l-9.86,3.09-5.84,1.83a7.67,7.67,0,0,0-1.85.58c-.54.39,1.44,1,1,.19-1.78-3-5-5.66-7.25-8.25l-6.2-7.06c-1.28-1.46-3.39.67-2.12,2.12l13.69,15.59a1.49,1.49,0,0,0,1.46.38l17.8-5.58-1.69-2.2-4.47,9.59c-.92,2-3.15,4.91-3,7.17s2.86,5.5,3.94,7.55l4.71,8.91,1.69-2.2L383.71,43.6a1.52,1.52,0,0,0-1.69.69L370.84,63l2.75.36L371.34,53c-.58-2.66-.63-7.5-2.2-9.79s-5.81-3.82-8-5.2L352,32.26,351.6,35l17.69-4.52A1.52,1.52,0,0,0,370.4,29l.28-21A1.5,1.5,0,0,0,367.68,8Z"/><polygon class="cls-2" points="402.87 95.45 402.69 108.73 391.53 111.58 402.03 118.11 404.74 130.63 411.79 118.83 423.52 121.77 418.15 111.61 422.74 101.77 411.51 105.29 402.87 95.45"/><path d="M401.37,95.45l-.18,13.28,1.1-1.45-11.16,2.85a1.52,1.52,0,0,0-.36,2.74l5.25,3.27,3.45,2.15c1.08.67,1.8,1.73,1.13.31,1.67,3.55,1.86,8.57,2.69,12.42a1.51,1.51,0,0,0,2.74.36l7.05-11.8-1.69.69,11.73,3a1.51,1.51,0,0,0,1.69-2.2L419.5,111c.6,1.13-.33,1.61.59,0,.57-1,1-2.09,1.45-3.11l2.5-5.35c.51-1.11-.35-2.63-1.7-2.21l-5.61,1.76a30.12,30.12,0,0,0-4.2,1.32c-1.86.9-.66-.39-.11.65-1.81-3.47-5.89-6.7-8.49-9.66-1.28-1.45-3.39.68-2.12,2.12l8.64,9.84a1.49,1.49,0,0,0,1.46.39l11.23-3.52L421.45,101l-2.9,6.21c-.58,1.25-2,3.14-1.87,4.59s1.74,3.52,2.42,4.8l3.12,5.92,1.69-2.2-11.72-3a1.55,1.55,0,0,0-1.7.69l-7.05,11.8,2.74.36-1.45-6.73c-.37-1.69-.42-4.65-1.4-6.14s-3.27-2.24-4.56-3l-6.49-4-.36,2.74,11.17-2.85a1.52,1.52,0,0,0,1.1-1.44l.18-13.28C404.4,93.52,401.4,93.52,401.37,95.45Z"/><polygon class="cls-1" points="72.46 86.25 72.18 107.29 54.48 111.81 71.13 122.17 75.43 142 86.6 123.3 105.19 127.97 96.69 111.86 103.96 96.26 86.16 101.84 72.46 86.25"/><path d="M71,86.25l-.28,21,1.1-1.45-17.69,4.52a1.52,1.52,0,0,0-.36,2.74l8.32,5.18,6,3.75c1.12.7,2.36,2.24,1.62.6,1.35,3,1.54,7.13,2.24,10.33l2,9.44a1.51,1.51,0,0,0,2.74.36L87.9,124.05l-1.7.69,18.59,4.68a1.52,1.52,0,0,0,1.69-2.21c-2.68-5.1-4.9-11.41-8.41-16,.76,1-.71,1.55.19.8a5.68,5.68,0,0,0,.71-1.54l2.44-5.24L105.26,97c.51-1.11-.35-2.63-1.7-2.2L93.71,97.9l-5.85,1.84a7.16,7.16,0,0,0-1.84.57c-.54.39,1.44,1,1,.19-1.78-3-5-5.66-7.24-8.24l-6.21-7.07c-1.27-1.45-3.39.68-2.12,2.12L85.1,102.9a1.47,1.47,0,0,0,1.46.39l17.8-5.58-1.69-2.21-4.47,9.59c-.92,2-3.15,4.91-3,7.17s2.86,5.5,3.94,7.55l4.7,8.92,1.7-2.21L87,121.85a1.53,1.53,0,0,0-1.69.69l-11.18,18.7,2.74.36-2.25-10.39c-.57-2.66-.63-7.5-2.19-9.8s-5.81-3.82-8-5.2l-9.16-5.7-.36,2.74,17.7-4.51a1.53,1.53,0,0,0,1.1-1.45l.28-21C74,84.32,71,84.32,71,86.25Z"/><polygon class="cls-2" points="100.72 21.55 100.55 34.82 89.38 37.67 99.88 44.21 102.59 56.72 109.64 44.92 121.37 47.87 116.01 37.71 120.59 27.86 109.36 31.38 100.72 21.55"/><path d="M99.22,21.55l-.17,13.27,1.1-1.45L89,36.22A1.52,1.52,0,0,0,88.62,39l5.25,3.27,3.46,2.15c1.07.67,1.79,1.74,1.13.32,1.67,3.54,1.85,8.57,2.69,12.42a1.52,1.52,0,0,0,2.74.36l7-11.8-1.7.69L121,49.31a1.51,1.51,0,0,0,1.69-2.2c-1.77-3.36-3.53-6.72-5.31-10.07.6,1.14-.32,1.61.6,0A33.79,33.79,0,0,0,119.39,34l2.5-5.35c.52-1.11-.35-2.63-1.69-2.2l-5.62,1.76a30.51,30.51,0,0,0-4.2,1.31c-1.86.91-.65-.39-.11.66-1.8-3.48-5.89-6.7-8.49-9.66-1.27-1.46-3.39.67-2.12,2.12l8.64,9.83a1.47,1.47,0,0,0,1.46.39L121,29.31l-1.69-2.2-2.89,6.21c-.59,1.24-2,3.13-1.87,4.58s1.74,3.52,2.41,4.8l3.12,5.92,1.7-2.2-11.73-3a1.53,1.53,0,0,0-1.69.69l-7,11.8,2.74.36-1.46-6.72c-.36-1.7-.42-4.65-1.4-6.15-.88-1.34-3.27-2.24-4.56-3l-6.48-4-.36,2.75,11.16-2.85a1.54,1.54,0,0,0,1.11-1.45l.17-13.27C102.25,19.62,99.25,19.62,99.22,21.55Z"/></g></svg>