<svg xmlns="http://www.w3.org/2000/svg" viewBox="0 0 381.28 380.33"><defs><style>.cls-1{fill:#e66869;}.cls-2{fill:#f0a4a5;}.cls-3{fill:#7ec7cd;}.cls-4{fill:#183e42;}.cls-5{fill:#fadc67;}.cls-6{fill:#fff;}.cls-7{fill:#183e41;}</style></defs><title>Binario mapa conceptual</title><g id="gráficos"><rect class="cls-1" x="4.14" y="3.67" width="373" height="373" rx="23.02" ry="23.02"/><path d="M354.12,375.17H33.62c-7.27,0-14.13.11-20.23-5-7.09-5.91-7.75-13.81-7.75-22.12V63.81c0-12.34-.38-24.75,0-37.09C6.06,13,17,5.17,29.81,5.17h278.9c14.84,0,29.68-.14,44.51,0,12.75.11,22.3,9.5,22.42,22.3,0,4.81,0,9.62,0,14.43V350.79c0,12.86-7.62,24-21.52,24.38-1.93.05-1.93,3.05,0,3,14.41-.44,24.44-11.7,24.52-25.81,0-5.5,0-11,0-16.51V71.73c0-14.8.15-29.62,0-44.42A24.94,24.94,0,0,0,354,2.17c-4-.09-8,0-12.06,0H29.62c-11.38,0-21.84,5.32-25.7,16.72C2.25,23.8,2.64,29.14,2.64,34.26v314.1c0,7.21.37,14,5,20.15,5.85,7.69,14.43,9.66,23.46,9.66h323A1.5,1.5,0,0,0,354.12,375.17Z"/><rect class="cls-2" x="27.63" y="27.15" width="326.03" height="326.03" rx="23.02" ry="23.02"/><path d="M330.64,351.68H74.24c-12,0-30.23,2.95-39.27-6.77-8.71-9.38-5.84-27.12-5.84-38.94V152.58c0-34.08-1.06-68.34,0-102.41.41-13.42,11-21.52,23.74-21.52H293.44c12.23,0,24.5-.3,36.73,0,12.51.31,21.85,9.62,22,22.19.05,4.16,0,8.32,0,12.48V328.13c0,12.66-8.23,23.15-21.51,23.55-1.93.06-1.94,3.06,0,3,14-.42,24.37-11.28,24.51-25.19.05-4.31,0-8.63,0-12.94v-227c0-12.94.25-25.89,0-38.82-.26-13.81-10.57-24.68-24.52-25-3-.08-6,0-8.95,0h-269c-9.9,0-19.11,4.13-23.83,13.3-2.72,5.29-2.71,10.73-2.71,16.43V325.53c0,6.4.33,12.5,4,18.12,5.26,8,13.78,11,22.9,11H330.64A1.5,1.5,0,0,0,330.64,351.68Z"/><path class="cls-3" d="M68.76,238.69a180.19,180.19,0,0,1-1,24.8c2.93,3.57,11,5.34,15,7.78,9.42,5.75,18.74,7.79,28.31,13.3,23.72,13.64,52.31,26.49,76.16,39.92-.52-.87-.26,1,0,0,13-6.3,25.56-10.92,38.95-18.47,35-19.72,64.73-28,101.14-45.19,4.13-1.94,9.13-8.09,10.66-12.27.74-2,.17-.38.07-2.55l-1.23-26.63"/><path class="cls-4" d="M67.26,238.69a189.85,189.85,0,0,1-.53,20.38c-.26,3.14-1.13,4.81,1.55,6.91,4,3.13,9.37,4.18,13.79,6.58,7,3.81,14.34,6.59,21.6,9.9,14.13,6.43,27.58,14.78,41.47,21.79s27.83,13.93,41.4,21.54a1.5,1.5,0,0,0,1.51-2.6l-.28-.17a1.53,1.53,0,0,0-2.21,1.7l.06.41a1.51,1.51,0,0,0,2.51.66c1.34-1.39,4.64-2.23,6.4-3,2.14-1,4.28-1.92,6.43-2.88,4.31-1.91,8.63-3.8,12.89-5.81,8.4-4,16.38-8.68,24.63-12.92,15.7-8.07,32-14.76,48.36-21.36,7.62-3.08,15.23-6.16,22.78-9.38,7.14-3,16-5.59,22-10.66,3.5-3,8-8,8.21-12.8.2-3.91-.57-8.36-.75-12.34l-.71-15.22c-.09-1.92-3.09-1.93-3,0l.71,15.22c.18,4,1.07,8.52.66,12.44-.68,6.47-8,11.52-13.57,14.1-15.8,7.28-32,13.6-48.09,20.19A457.93,457.93,0,0,0,230.45,302c-7.57,4.11-15.11,8.17-23,11.72-3.74,1.7-7.51,3.34-11.26,5-3,1.34-7.94,2.6-10.22,5l2.5.66,0-.41-2.21,1.69.29.18,1.51-2.6c-25.54-14.31-52-27.08-77.84-40.86-6.44-3.43-13.39-5.72-20-8.82-5.31-2.5-10.41-5.14-15.78-7.52-1.14-.51-4.88-2.21-5.12-2.8-.37-.92.32-3.15.4-4.12a189.85,189.85,0,0,0,.53-20.38c-.05-1.93-3.05-1.93-3,0Z"/><path class="cls-3" d="M68.42,237.1c43,21.07,78.25,36.63,119.75,60.58,42.85-26.47,94-34.39,134.31-64.57,2.73-2.05,10.52-11.29,11.13-14.65-27.64-9.91-74.4-30-102.85-37.3-5.3-42.7-9-76.36-13.62-119.45a7.09,7.09,0,0,0-2.95-5.41c-1.94-1.17-4.33-.15-6.58.15C160.43,62.8,97.22,63.13,51.7,82.92c-2.84,1.24-5.88,2.66-7.37,5.38-1.12,2.06-1.15,4.51-1.14,6.85.1,38.91,19.52,103.46,25.23,142"/><path class="cls-4" d="M67.66,238.39c40.21,19.67,80.93,38.23,119.76,60.58a1.48,1.48,0,0,0,1.51,0c27-16.49,57.22-25.94,86.18-38.18,13.81-5.84,27.38-12.38,39.93-20.64,7.43-4.89,17.54-12.06,20-21.29A1.53,1.53,0,0,0,334,217c-34.23-12.33-67.56-28.11-102.85-37.3l1.1,1.44c-4.38-35.31-8.37-70.66-12.18-106-.48-4.45-.73-9-1.44-13.42-.4-2.5-1.16-5-3.38-6.47-1.7-1.14-3.36-1-5.32-.76-3.91.47-7.81,1.19-11.73,1.64-15.38,1.78-30.81,3-46.22,4.54-31.05,3-62.86,6.58-92.31,17.46C54.56,80,47.2,81.88,43.76,86.45S41.65,98.25,42,103.51c.82,13.37,3,26.65,5.51,39.8C53.43,174.8,62.2,205.8,67,237.5c.29,1.9,3.18,1.09,2.9-.8C66,211.33,59.5,186.4,54.17,161.33c-2.88-13.56-5.59-27.18-7.47-40.92-.82-6-1.47-12.07-1.8-18.14-.14-2.6-.25-5.22-.21-7.83.09-5.33,2.5-7.85,7.15-10,26.81-12.14,57.26-16.2,86.23-19.39,14.47-1.6,29-2.82,43.48-4.23,6.78-.66,13.56-1.36,20.32-2.18,2.88-.35,7-1.66,9.81-1.43,5.23.42,4.58,10.2,5,14.09,3.94,36.64,8.06,73.25,12.59,109.81a1.57,1.57,0,0,0,1.1,1.45c35.29,9.19,68.62,25,102.85,37.3l-1-1.84c-1.56,5.79-7.75,11.79-12.47,15.23a187.07,187.07,0,0,1-24.78,15c-17.57,9-36.16,15.83-54.52,23-8.37,3.28-16.71,6.66-24.92,10.35q-6.45,2.89-12.76,6.09-3.34,1.71-6.63,3.51c-1.86,1-5.22,3.92-7.24,4.19-2.24.28-4.73-1.89-6.6-2.94-2.18-1.24-4.38-2.46-6.58-3.68q-7.21-4-14.52-7.85c-9.13-4.84-18.34-9.51-27.6-14.09-21.36-10.57-43-20.67-64.37-31.15-1.73-.84-3.25,1.74-1.52,2.59Z"/><path class="cls-5" d="M214.91,181.47c-3.42-32.66-8.85-76.37-12.28-109-38,10.43-75.89,9.68-113.88,20.11-5.9,1.62-25.09,3.34-26.71,9.24-1,3.65,1.45,6.19,1,10-.26,2,2.24,27.05,2.55,29.09a58.28,58.28,0,0,0,2.26,9.62c6.58,24.29,14,53.67,18.17,77.8Z"/><path d="M216.41,181.47c-3.83-36.37-8.45-72.66-12.28-109A1.52,1.52,0,0,0,202.24,71c-23.94,6.46-48.59,8.77-73.07,12.18a339.35,339.35,0,0,0-37,6.93c-6.75,1.73-13.67,2.64-20.4,4.43-4.44,1.18-10.9,2.92-11.4,8.36-.28,3.09,1,6.26,1.15,9.37.09,2.28.26,4.57.44,6.85,1,12.29,2.32,23.84,5.52,35.75,6.55,24.38,12.76,48.92,17.09,73.8a1.51,1.51,0,0,0,1.85,1.05l113.15-41.07,15.76-5.72c1.8-.66,1-3.56-.79-2.9L101.37,221.09,85.6,226.82l1.85,1.05c-3.6-20.66-8.53-41.07-13.8-61.35-2.1-8.06-4.91-16.13-6.35-24.33-.85-4.88-1.15-9.9-1.62-14.83s-1.16-10.08-1.18-15.1c0-3.24-2.2-8.36-.47-11,1.51-2.29,6.09-3.18,8.51-3.82,6.11-1.63,12.4-2.34,18.51-3.94a317.46,317.46,0,0,1,34.17-6.75c26-3.83,52.32-6,77.81-12.85l-1.9-1.45c3.83,36.37,8.45,72.66,12.28,109C213.61,183.37,216.62,183.39,216.41,181.47Z"/><path class="cls-6" d="M105.74,229.72c38.5-11.72,77.43-27.21,115.19-35.35,1.8-.38,3.88-1.49,5.75-1.41s8.32,2.89,10.07,3.37c11.91,3.22,30.24,8.6,42.14,11.82,1.69.46,3.76,1.39,3.57,2.89-.11.91-1,1.57-1.91,2-31.88,16-75.14,32.66-107,48.62-3.3,1.65-9.15,1.38-12.87.35a25.06,25.06,0,0,1-5.77-2.68c-13.55-7.72-35.67-21.91-49.22-29.63"/><path class="cls-4" d="M106.14,231.16c27.07-8.28,53.64-18.11,80.75-26.28,6.63-2,13.29-3.9,20-5.63,3-.78,6-1.52,9-2.22,3.23-.75,7.63-2.74,11-2.54,3.49.2,7.33,2.64,10.72,3.63,5.29,1.53,10.62,2.95,15.91,4.46,5.63,1.59,11.25,3.2,16.87,4.78,2.1.59,4.9.94,6.85,1.9l1.26.34c1.88,1.51,1.86,2.46-.08,2.85a23.72,23.72,0,0,1-4.2,2.06c-11,5.35-22.25,10.34-33.49,15.27-11.73,5.15-23.5,10.2-35.21,15.39q-8.49,3.75-16.92,7.64c-5.44,2.52-10.83,5.89-16.46,7.86-7,2.46-13.74-1-19.61-4.45-5-2.9-9.87-5.9-14.77-8.9-10.39-6.35-20.7-12.85-31.26-18.9A1.5,1.5,0,0,0,105,231c10.57,6.05,20.88,12.55,31.27,18.9,8.65,5.3,18.55,13.56,29,14.36,5.14.4,8.77-1.14,13.28-3.35,6.35-3.1,12.75-6.08,19.19-9,13.19-6,26.49-11.67,39.76-17.46,12.36-5.4,24.71-10.83,36.86-16.68,2.74-1.32,9.84-3.14,9.6-7.15-.26-4.27-8.33-4.95-11.28-5.77-11.81-3.3-23.78-6.32-35.48-10-3.36-1-6.9-3.29-10.47-3.42-2.63-.11-5.43,1.26-8,1.86-4.21,1-8.44,2-12.64,3C172,205.17,139,218,105.34,228.27c-1.84.56-1,3.46.8,2.89Z"/><path class="cls-7" d="M193.48,249.28c-2.21-2.32-6.53-6.09-3.66-9.44,1.5-1.75,6.84-2.89,9.11-3.79l17.19-6.85,17.2-6.85c4.22-1.68,6.56-2.62,10.56.41,2.31,1.76,4.37,4,6.51,6,1.42,1.3,3.55-.82,2.12-2.13-5-4.58-9.07-11-16.37-8.59-9.49,3.15-18.76,7.47-28,11.17l-13.58,5.41c-2.56,1-5.92,1.88-7.9,3.94-4.05,4.24,1.84,9.81,4.75,12.86,1.33,1.4,3.45-.72,2.12-2.12Z"/><path class="cls-7" d="M153.49,257.7q18.31-9.09,36.85-17.72c1.74-.81.22-3.4-1.52-2.59Q170.28,246,152,255.11c-1.73.86-.21,3.45,1.51,2.59Z"/><path class="cls-7" d="M165.24,251.28a39.28,39.28,0,0,0,9,9.83c1.51,1.17,3.65-.94,2.12-2.12a37,37,0,0,1-8.55-9.22c-1-1.62-3.64-.12-2.59,1.51Z"/><path class="cls-7" d="M175.64,246.31a37.32,37.32,0,0,1,5.2,6.29c1.14,1.74,1.9,3.48,4,4.22,1.83.64,2.61-2.25.8-2.89-.9-.32-1.35-1.52-1.82-2.28q-.9-1.44-1.92-2.79a43.52,43.52,0,0,0-4.12-4.68c-1.37-1.35-3.5.77-2.12,2.13Z"/><path class="cls-7" d="M242,220.23a90.54,90.54,0,0,1,26.67-11.89,1.5,1.5,0,0,0-.8-2.89,93.14,93.14,0,0,0-27.38,12.19c-1.61,1.06-.11,3.66,1.51,2.59Z"/><path class="cls-7" d="M247,216.23c4.14,2.79,9,4.76,12.48,8.41,1.34,1.39,3.46-.73,2.13-2.12-3.7-3.85-8.73-5.94-13.1-8.88-1.61-1.08-3.11,1.51-1.51,2.59Z"/><path class="cls-7" d="M255.36,212.54c5,1.35,11.53,2.43,15.69,5.77,1.49,1.2,3.63-.91,2.12-2.12-4.66-3.75-11.38-5-17-6.54a1.5,1.5,0,0,0-.8,2.89Z"/><path class="cls-7" d="M116.82,237.56l62.42-22.37c9.48-3.4,18.93-6.84,28.6-9.65,9.16-2.66,18.36-5.18,26.78-9.78,1.7-.93.18-3.52-1.51-2.59-8.71,4.76-18.28,7.18-27.73,10-9.72,2.87-19.23,6.4-28.77,9.82L116,234.67c-1.8.65-1,3.55.8,2.89Z"/><path class="cls-7" d="M128.24,243.19c10.61-4.27,21.14-8.83,31.89-12.73,9.77-3.55,20-5.61,29.62-9.69s19.05-8.06,29.07-11.24c9.21-2.92,18.39-6,26.6-11.2,1.63-1,.12-3.63-1.51-2.59-8.48,5.37-18,8.39-27.48,11.4a264.54,264.54,0,0,0-26.55,10.32c-9.86,4.33-20.46,6.44-30.55,10.11-10.74,3.9-21.28,8.45-31.88,12.73-1.77.71-1,3.61.79,2.89Z"/><path class="cls-7" d="M141.68,251.19c9.69-5.09,19.33-11,29.76-14.43,9.35-3.09,18.94-5.13,28.15-8.67,19.3-7.41,38.16-16.09,57.17-24.19,1.77-.76.24-3.34-1.52-2.59-19.87,8.47-39.59,17.84-59.91,25.18-8.91,3.22-18.26,5-27.15,8.22-9.74,3.58-18.84,9.08-28,13.89-1.71.9-.2,3.49,1.51,2.59Z"/><path class="cls-7" d="M137.82,231.11l4.62,4.35c1.41,1.33,3.53-.79,2.12-2.12L139.94,229c-1.41-1.32-3.53.8-2.12,2.12Z"/><path class="cls-7" d="M150.23,234.55a36.77,36.77,0,0,1,7.21,7.32c1.13,1.54,3.74,0,2.59-1.52a39.44,39.44,0,0,0-7.67-7.92c-1.51-1.17-3.65.94-2.13,2.12Z"/><path class="cls-7" d="M166.18,239.55l7.42,7.59c1.35,1.38,3.47-.74,2.12-2.13l-7.41-7.58c-1.36-1.39-3.48.73-2.13,2.12Z"/><path class="cls-7" d="M227.36,200.38a47.18,47.18,0,0,1,6.39,3.41c1.63,1.05,3.13-1.55,1.51-2.59a47.77,47.77,0,0,0-6.39-3.42c-1.75-.76-3.28,1.82-1.51,2.6Z"/><path class="cls-7" d="M228.46,206.45a58,58,0,0,1,9.17,4.81c1.63,1.05,3.13-1.55,1.51-2.59a63,63,0,0,0-9.89-5.12c-1.78-.73-2.56,2.17-.79,2.9Z"/><path class="cls-7" d="M237.43,212.1a36.52,36.52,0,0,1,8,3.84c1.63,1.05,3.14-1.55,1.52-2.59a40,40,0,0,0-8.68-4.14c-1.83-.62-2.62,2.27-.8,2.89Z"/><path class="cls-7" d="M152.82,225.93a22.4,22.4,0,0,0,5.31,4.59c1.64,1,3.15-1.57,1.52-2.59a19.7,19.7,0,0,1-4.7-4.12c-1.24-1.49-3.35.64-2.13,2.12Z"/><path class="cls-7" d="M162.93,221l4.22,4.1c1,1,2.51,2.14,3.84.83s-.73-3.47-2.12-2.12l-.14.14,1.06-.44c.25.2.19.12-.19-.22l-.65-.63-1.3-1.26-2.6-2.52c-1.39-1.35-3.51.77-2.12,2.12Z"/><path class="cls-7" d="M175,217.05a19.38,19.38,0,0,1,5.46,4.45c1.25,1.47,3.36-.66,2.12-2.12a21.81,21.81,0,0,0-6.06-4.92c-1.69-.94-3.21,1.65-1.52,2.59Z"/><path class="cls-7" d="M189,211.66l4.1,4.17c1.36,1.38,3.48-.74,2.12-2.12l-4.1-4.17c-1.36-1.38-3.48.74-2.12,2.12Z"/><path class="cls-7" d="M200.27,208.69a30.43,30.43,0,0,1,4.82,4.74,1.5,1.5,0,0,0,2.12-2.12,30.8,30.8,0,0,0-4.81-4.74,1.55,1.55,0,0,0-2.13,0,1.52,1.52,0,0,0,0,2.12Z"/><path class="cls-7" d="M215.5,204.72a16.2,16.2,0,0,1,3.69,2,1.51,1.51,0,0,0,2.05-.54,1.53,1.53,0,0,0-.53-2,18.89,18.89,0,0,0-4.42-2.28,1.5,1.5,0,0,0-1.84,1,1.52,1.52,0,0,0,1.05,1.84Z"/><path class="cls-7" d="M163.78,230.54c2.24,1.57,4.55,3,6.93,4.38a1.5,1.5,0,0,0,1.51-2.59c-2.38-1.36-4.69-2.81-6.93-4.38-1.59-1.1-3.09,1.49-1.51,2.59Z"/><path class="cls-7" d="M174.26,225.54a107.31,107.31,0,0,0,9.26,6,1.5,1.5,0,0,0,1.51-2.59,105.63,105.63,0,0,1-9.25-6c-1.57-1.13-3.07,1.47-1.52,2.59Z"/><path class="cls-7" d="M187.58,221.56l7.3,5.68c1.5,1.18,3.64-.93,2.12-2.12l-7.3-5.69c-1.51-1.17-3.65.94-2.12,2.13Z"/><path class="cls-7" d="M199.06,215.92a71.91,71.91,0,0,1,7.19,7.31,1.5,1.5,0,0,0,1.81.24,2.31,2.31,0,0,0,1.17-2.14c-.07-1.92-3.07-1.93-3,0l.32-.45,1.82.23a70.89,70.89,0,0,0-7.19-7.31c-1.44-1.27-3.57.84-2.12,2.12Z"/><path class="cls-7" d="M211.93,211.86l7.57,4.7c1.65,1,3.16-1.58,1.52-2.59l-7.58-4.7c-1.64-1-3.15,1.57-1.51,2.59Z"/><path class="cls-7" d="M222.86,208.84a20.58,20.58,0,0,1,5.6,4.57c1.26,1.46,3.38-.67,2.12-2.12a23.08,23.08,0,0,0-6.21-5,1.5,1.5,0,0,0-1.51,2.59Z"/><path class="cls-7" d="M177.52,235.78q3.12,2.85,6.42,5.48c1.49,1.2,3.63-.91,2.12-2.12-2.2-1.76-4.34-3.58-6.42-5.48-1.42-1.3-3.55.82-2.12,2.12Z"/><path class="cls-7" d="M189.68,231.34q2.38,1.75,4.64,3.69c1.46,1.25,3.59-.86,2.13-2.12-1.7-1.45-3.46-2.84-5.26-4.16a1.51,1.51,0,0,0-2.05.54,1.54,1.54,0,0,0,.54,2.05Z"/><path class="cls-7" d="M201.26,227c1.65,1.67,3.37,3.26,5.18,4.76,1.48,1.22,3.61-.89,2.12-2.12q-2.7-2.25-5.18-4.76c-1.36-1.38-3.48.74-2.12,2.12Z"/><path class="cls-7" d="M211.43,224.26c1.46,0,2.44,1,3.46,1.91a9.6,9.6,0,0,0,3,1.91c1.79.72,2.57-2.18.79-2.89-1.25-.5-2.14-1.66-3.19-2.47a6.2,6.2,0,0,0-4-1.46c-1.93.05-1.94,3.05,0,3Z"/><path class="cls-7" d="M221.14,220l5.55,2.72c1.72.85,3.25-1.74,1.51-2.59l-5.54-2.72c-1.73-.84-3.25,1.74-1.52,2.59Z"/><path class="cls-7" d="M229.55,215.84a13.88,13.88,0,0,1,5.52,4.15c1.19,1.52,3.3-.62,2.12-2.12a15.61,15.61,0,0,0-6.13-4.62,1.54,1.54,0,0,0-2.05.53,1.51,1.51,0,0,0,.54,2.06Z"/><path class="cls-7" d="M122.53,226.75a18.66,18.66,0,0,0,5.36,4.1c1.71.89,3.23-1.7,1.51-2.59a16.19,16.19,0,0,1-4.75-3.63c-1.3-1.43-3.41.69-2.12,2.12Z"/><path class="cls-7" d="M132.86,223.56l6,4.18c1.59,1.1,3.09-1.5,1.51-2.6l-6-4.17c-1.59-1.1-3.09,1.5-1.51,2.59Z"/><path class="cls-7" d="M143.42,219.42a24.61,24.61,0,0,0,6.11,3.8c1.76.75,3.29-1.83,1.52-2.59a21.77,21.77,0,0,1-5.51-3.33c-1.47-1.24-3.6.88-2.12,2.12Z"/><path class="cls-7" d="M153.9,214.61l4.82,3.69a1.5,1.5,0,1,0,1.51-2.59L155.41,212a1.5,1.5,0,0,0-2,.54,1.53,1.53,0,0,0,.54,2.05Z"/><path class="cls-7" d="M166.34,210.3a48.61,48.61,0,0,0,7.6,3.72c1.81.69,2.59-2.21.8-2.9a43.27,43.27,0,0,1-6.89-3.41c-1.65-1-3.16,1.58-1.51,2.59Z"/><path class="cls-7" d="M180,208.58a1.5,1.5,0,0,0,0-3,1.5,1.5,0,0,0,0,3Z"/><path class="cls-7" d="M179.27,208.35a36,36,0,0,0,7.46,3.42c1.84.6,2.63-2.3.8-2.9a32.18,32.18,0,0,1-6.74-3.11,1.5,1.5,0,0,0-1.52,2.59Z"/><path class="cls-7" d="M193.77,202.85l7.14,3c1.79.74,2.56-2.16.8-2.89l-7.14-3c-1.78-.74-2.56,2.17-.8,2.89Z"/><path class="cls-7" d="M205.64,198.93l7.52,3.56c1.73.82,3.25-1.76,1.51-2.59l-7.52-3.56c-1.73-.83-3.26,1.76-1.51,2.59Z"/><path class="cls-6" d="M206.6,251.76c12.79-6.88,28.4-12.18,42.22-17.76,1.38-.56,4.87-1.57,6.3-2.06,3.11-1.07,6.05-2.26,7-1.9,5.17,2.06,14,5.48,20.64,9.36-9.19,4.82-25.48,13-35.76,16.33-7.06,2.27-14.51,7.6-21.57,9.88a3,3,0,0,1-1.2.2,2.92,2.92,0,0,1-1.22-.54c-4.56-2.93-11.8-10.57-16.37-13.51"/><path class="cls-4" d="M207.36,253.06c12.89-6.83,26.71-11.65,40.26-17,4.76-1.88,11.38-5.25,16.31-3.71a94.73,94.73,0,0,1,18,8.31V238.1c-12.58,6.58-25.38,11.92-38.46,17.33-3.31,1.37-6.46,3.11-9.65,4.75s-7.62,5.14-11,3.2c-5.72-3.28-10-9.18-15.48-12.91-1.6-1.09-3.1,1.51-1.51,2.59,5.74,3.91,10.21,10.26,16.37,13.51,2.47,1.3,4.49.24,7-.81,4.25-1.81,8.22-4.19,12.39-6.18,7-3.35,14.54-5.6,21.62-8.85,6.85-3.15,13.59-6.54,20.27-10a1.51,1.51,0,0,0,0-2.59,149.79,149.79,0,0,0-18.75-8.61c-5.11-2-10.51,1-15.46,2.75-14.67,5.22-29.65,10.93-43.42,18.23-1.71.9-.2,3.49,1.51,2.59Z"/><path class="cls-7" d="M69.17,236.65c3.07-.28,5.81-1.63,8.64-2.77l10.63-4.26c1.77-.72,1-3.62-.8-2.9l-9.3,3.73c-2.92,1.18-6,2.91-9.17,3.2-1.91.17-1.93,3.17,0,3Z"/><path class="cls-7" d="M217.94,182.64a47.93,47.93,0,0,1,13.37-.48c1.92.19,1.91-2.81,0-3a50.62,50.62,0,0,0-14.17.59c-1.9.34-1.1,3.23.8,2.89Z"/><path class="cls-7" d="M139.21,74.18c.2.24-.11-.25,0,0,0,0-.11-.46-.07-.16,0-.07,0-.47,0-.17,0-.07.14-.44,0-.19a1.57,1.57,0,0,0-.23-1.82,1.51,1.51,0,0,0-1.82-.23l-1,.7a1.53,1.53,0,0,0-.54,2,1.51,1.51,0,0,0,2.05.54l1-.7-2.06-2a3.74,3.74,0,0,0,.53,4.1,1.5,1.5,0,0,0,2.12,0,1.54,1.54,0,0,0,0-2.12Z"/></g></svg>