<svg xmlns="http://www.w3.org/2000/svg" viewBox="0 0 381.28 380.33"><defs><style>.cls-1{fill:#f7c402;}.cls-2{fill:#fadc67;}.cls-3{fill:#e1262f;}.cls-4{fill:#e76969;}.cls-5{fill:#fff;}</style></defs><title>Binario mapa conceptual</title><g id="gráficos"><path class="cls-1" d="M377.14,190.17c0,103-83.5,186.5-186.5,186.5S4.14,293.17,4.14,190.17,87.64,3.67,190.64,3.67s186.5,83.5,186.5,186.5"/><path d="M375.64,190.17c-.28,77-49.23,147.58-121.78,173.92C181,390.55,97.34,367.61,47.94,307.92s-55.87-147-15.7-213.39c40-66.17,119.24-101,195.09-85.73,74.74,15.08,134,76.77,146,152a190.62,190.62,0,0,1,2.3,29.32,1.5,1.5,0,0,0,3,0C378.35,112,328.78,40.55,255.28,13.58,180.9-13.71,95,10,45,71.3c-49.62,60.82-56,148.78-15.34,216S150.94,390,228.13,374.42C304,359.11,364.38,296.1,376.34,219.6a195.9,195.9,0,0,0,2.3-29.43,1.5,1.5,0,0,0-3,0Z"/><path class="cls-2" d="M347,190.11c0,87-69.94,157.52-156.28,157.55S34.34,277.21,34.31,190.22,104.25,32.7,190.59,32.67,346.94,103.12,347,190.11"/><path d="M345.47,190.11c-.26,64.58-40.79,124.29-101.74,146.65s-130.89,3.07-172.21-46.92C29.8,239.37,24.38,165.71,58,109.58,91.48,53.84,157.9,24.19,221.7,37.3c62.72,12.88,111.82,65.12,121.86,128.2a162.2,162.2,0,0,1,1.91,24.61,1.5,1.5,0,0,0,3,0C348.16,124.35,307,63.84,245.05,40.87,182.54,17.69,110.43,37.81,68.5,89.47s-47.2,126-13,182.89C89.57,329.06,157,359.15,221.93,346,286.32,333,337,279,346.67,214.15a166.72,166.72,0,0,0,1.8-24,1.5,1.5,0,0,0-3,0Z"/><path d="M345.47,190.11c-.26,64.58-40.79,124.29-101.74,146.65s-130.89,3.07-172.21-46.92C29.8,239.37,24.38,165.71,58,109.58,91.48,53.84,157.9,24.19,221.7,37.3c62.72,12.88,111.82,65.12,121.86,128.2a162.2,162.2,0,0,1,1.91,24.61,1.5,1.5,0,0,0,3,0C348.16,124.35,307,63.84,245.05,40.87,182.54,17.69,110.43,37.81,68.5,89.47s-47.2,126-13,182.89C89.57,329.06,157,359.15,221.93,346,286.32,333,337,279,346.67,214.15a166.72,166.72,0,0,0,1.8-24,1.5,1.5,0,0,0-3,0Z"/><path class="cls-3" d="M157.14,179.85c-8.28-7.75-13.35-10.72-22.52-19.58-3.21-4.46-4.28-8.72-6.85-15.31-.63-1.61,69.32-25.73,71-26,2-.38,34.29-2.61,35.4-.86,3,4.67,6,9.35,6.19,14.95-17.64,47.54-35.58,99.72-53.61,145.41a4,4,0,0,0-.31,3.14c.39.8,10.82-7.41,11.3-6.66,4.49,7,7.9,9.78,8.16,15-3.31,8.52-7.36,19.21-10.67,27.73a4.8,4.8,0,0,1-2,2.79,4.73,4.73,0,0,1-3,.14c-11.37-2-22.43-5.47-33.44-8.92l-46.24-14.5c-2.92-5.77-4-10-7-14.7-.57-.89,21.3-18.18,22.31-18.47a4.76,4.76,0,0,1,3,.53l18.47,7.7c12.46-37.93,31.51-78.44,46.87-115.29-12.78,8.89-24.37,14.08-37.15,23Z"/><path d="M158.2,178.79c-4.71-4.36-9.74-8.3-14.63-12.45a66.05,66.05,0,0,1-7.48-6.9c-2.39-2.78-3.66-6.25-4.92-9.65-.51-1.36-2.08-3.93-2-4.1.33-.48,1.64-.8,2.16-1,2.48-1.1,5-2.06,7.56-3,15.55-6,31.3-11.42,47-16.84,4.22-1.45,8.56-3.38,12.93-4.35,5.68-1.26,12.13-1,17.93-1.25,4.19-.19,8.4-.38,12.59-.27.92,0,2.86-.23,3.66.27,2.07,1.28,4.83,8.08,5.2,10.18.79,4.5-1.35,8.61-2.87,12.75s-3,8.16-4.48,12.25q-4.35,12-8.67,23.94c-6.32,17.53-12.63,35.07-19.06,52.56Q198.39,244,193.45,257c-1.61,4.24-3.23,8.49-4.88,12.72-1.43,3.68-4.07,7.86-3.62,11.86a1.6,1.6,0,0,0,1.1,1.45c2.17.89,6.44-3.25,8-4.29a13.5,13.5,0,0,1,2.56-1.69c1.65-.53.39-.55,1.36.88,1.91,2.82,4.82,5.75,5.85,9.06,1.14,3.64-1.54,8.19-2.84,11.57q-2.28,6-4.57,11.91c-.67,1.77-1.34,3.54-2,5.29-1.11,2.83-.75,3.23-5.55,3a18.54,18.54,0,0,1-2.82-.57c-4.71-1-9.36-2.2-14-3.52-18-5.12-35.74-11.06-53.58-16.66-2.15-.67-4.73-1-6.43-2.52s-2.44-4.33-3.38-6.51c-.47-1.09-3.37-6.26-3.36-6.29.26-.94,2.45-2.32,3.15-2.92,1.73-1.52,3.51-3,5.3-4.45,3.56-2.91,7.34-6.85,11.43-9,.39-.2.93-.88,1.38-1,1.6-.27,4.85,1.74,6.26,2.32l14.27,6a1.52,1.52,0,0,0,1.84-1.05c13-39.43,30.9-77,46.88-115.3.5-1.2-1.19-2.39-2.21-1.69-6.25,4.3-12.77,8.13-19.33,11.93-3.08,1.79-6.16,3.57-9.19,5.44-2.8,1.72-5.68,4.24-8.64,5.62-1.75.82-.23,3.41,1.51,2.59,2.74-1.27,5.3-3.55,7.87-5.15,3.28-2,6.62-4,10-5.91,6.57-3.8,13.08-7.63,19.34-11.93l-2.21-1.69c-16,38.27-33.83,75.86-46.87,115.29l1.85-1.05-15.12-6.3c-2.51-1-5.24-2.75-7.93-1.54-3.84,1.74-7.6,5.75-10.86,8.37s-8.66,5.82-11,9.55a2.63,2.63,0,0,0-.55,2.37c.25,1.78,2.68,5,3.45,6.78.91,2.1,1.89,6.43,3.54,7.92,2.55,2.29,7.77,2.84,11.07,3.88L138,307.24c11.37,3.56,22.69,7.31,34.16,10.54a159.5,159.5,0,0,0,16.83,4c3.14.52,5.34.5,7.12-2.35,2.2-3.51,3.25-8.27,4.73-12.12q2.72-7.06,5.43-14.14c1.46-3.79,1.13-6.29-.9-9.85-1.24-2.18-2.87-4.16-4.3-6.21-.77-1.11-1.47-3.3-2.89-3.65s-3.25,1.09-4.45,1.88-6.68,4.84-6.84,4.78l1.1,1.44c-.44-3.91,2.77-9.14,4.17-12.74q2.63-6.81,5.2-13.62,4.78-12.62,9.42-25.29c6.43-17.5,12.73-35,19.06-52.59q4.63-12.84,9.3-25.67,2.39-6.54,4.8-13.07c1.37-3.71,2.32-6.09,1.27-10-1-3.63-3.46-10.72-7.13-12.25-2.69-1.12-6.87-.45-9.7-.4-8.18.16-16.75.18-24.86,1.4-3.88.58-7.69,2.3-11.39,3.56-17.07,5.85-34.16,11.74-51,18.25-3.14,1.21-11.35,2.71-10.47,7A35.62,35.62,0,0,0,137.44,165c6.06,5.5,12.63,10.4,18.63,16C157.49,182.22,159.62,180.1,158.2,178.79Z"/><path d="M164.13,188.63c-7.73-.18-15.68.18-23.27-1.56-8.58-1.95-14.8-7.92-19.39-15.27-8.49-13.58-4.11-34.29,2.76-47.78,12.45-24.49,37.55-37.94,58-54.92,3-2.48-1.29-6.7-4.24-4.24-17.24,14.35-38.24,26-51.57,44.46a78.81,78.81,0,0,0-14.7,36.92c-.84,6.56-1.15,13.59.71,20,1.92,6.64,6.14,12.41,10.88,17.34,11,11.43,26.12,10.68,40.87,11,3.87.09,3.87-5.91,0-6Z"/><path d="M164.09,57.53c-7.67,6.91-13.6,18.67-4.18,26.89s21.83,3.19,31-2.44c3.29-2,.28-7.21-3-5.18-6.41,3.94-14.74,8.5-22.18,4.37-9-5-2.89-14.42,2.63-19.4,2.88-2.59-1.38-6.82-4.24-4.24Z"/><path d="M202.58,201.77c17.11,21.7,51.87,33.17,76.32,16.53,10.87-7.4,18.07-20.82,11.8-33.55-6.6-13.38-22.13-23.36-35.23-29.36-3.49-1.6-6.54,3.57-3,5.18,11.41,5.22,23.29,12.88,30.7,23.26,8.78,12.31.68,25.56-11.33,31.69-22.38,11.43-50.29.64-65-18-2.39-3-6.61,1.25-4.24,4.25Z"/><path d="M246.29,175c8.85-.16,20.36-2.93,24.11-12.07S267.07,145,259.91,140c-3.18-2.21-6.18,3-3,5.18,4.9,3.41,11.24,10.2,7.42,16.56-3.5,5.81-11.89,7.15-18,7.26-3.86.06-3.87,6.06,0,6Z"/><path class="cls-4" d="M150.49,164.32c-8.28-7.75-13.34-10.72-22.51-19.58,17.4-11.45,44.53-27.89,59.61-39a11.5,11.5,0,0,1,4.55-2.37c2-.38,4.1.34,6,1,15.58,5.68,20,7.36,35.54,13-17.63,47.54-35.57,99.72-53.6,145.41a4,4,0,0,0-.31,3.14,3.92,3.92,0,0,0,2.07,1.59c9.54,4.34,7.85,2.37,17.38,6.7-3.3,8.52-7.36,19.21-10.66,27.73a4.8,4.8,0,0,1-2,2.79,4.73,4.73,0,0,1-3,.14c-11.38-2-22.43-5.47-33.45-8.92L104,281.56c3.74-12.34,5.72-20.49,13-31.1a4.63,4.63,0,0,1,2.29-2.07,4.73,4.73,0,0,1,3,.53l18.48,7.7c12.45-37.93,31.51-78.44,46.87-115.3-12.78,8.9-24.37,14.09-37.15,23Z"/><path d="M151.55,163.26c-7.3-6.76-15.31-12.7-22.51-19.58l-.3,2.35c16.38-10.75,33.15-20.89,49.41-31.84,3.42-2.31,6.69-5,10.2-7.13,6.17-3.82,12.19-.18,18.32,2.07q13.34,4.91,26.65,9.8l-1-1.85c-11.79,31.8-23.06,63.78-34.75,95.62C191.82,228.25,186,243.76,180,259.18c-2.56,6.51-2.22,8.39,4.24,11.09,4.71,2,9.61,3.26,14.29,5.35l-.69-1.69c-3,7.76-6,15.54-9,23.3-1.51,3.93-1.16,6.13-6.7,5.95-2.42-.07-5.16-1.06-7.51-1.62-4.68-1.13-9.31-2.44-13.92-3.82-18.85-5.66-37.58-11.74-56.36-17.62l1,1.84c2.51-8.34,4.79-16.8,9-24.49.93-1.69,2-4.22,3.39-5.54,2.69-2.49,5.36-1,8.29.18l14.28,6a1.52,1.52,0,0,0,1.84-1.05c13-39.43,30.89-77,46.87-115.3.51-1.2-1.18-2.39-2.2-1.69-6.25,4.3-12.77,8.13-19.33,11.93-3.08,1.79-6.16,3.57-9.19,5.44-2.8,1.72-5.68,4.24-8.64,5.62-1.75.82-.23,3.41,1.51,2.59,2.74-1.27,5.29-3.55,7.87-5.15,3.28-2,6.62-4,10-5.91,6.56-3.8,13.08-7.63,19.33-11.93l-2.2-1.69c-16,38.27-33.83,75.86-46.87,115.29l1.84-1.05c-6.07-2.53-12.19-5.73-18.47-7.7-4.12-1.29-5.73.3-8,3.66-6.09,9.19-9.08,19.59-12.22,30a1.52,1.52,0,0,0,1,1.85c22.11,6.93,44.13,14.66,66.55,20.5,4.57,1.19,9.56,2.87,14.3,3.05,3.08.12,4.34-1.24,5.55-3.93,4.07-9,7.16-18.66,10.74-27.91A1.49,1.49,0,0,0,200,273c-4.05-1.81-8.19-3.07-12.34-4.59-1.44-.52-4.08-1-5-2.11-1.76-2-.58-4.29.23-6.35q2-5,3.91-10.07,8.33-21.67,16.23-43.5c10.77-29.49,21.25-59.09,32.16-88.53a1.53,1.53,0,0,0-1-1.85c-9.62-3.5-19.21-7.07-28.83-10.59-4.06-1.49-9.08-4.38-13.55-3.5-4.21.83-8.18,4.92-11.64,7.3-17.3,11.9-35.33,22.68-52.88,34.2a1.53,1.53,0,0,0-.3,2.36c7.2,6.89,15.2,12.82,22.51,19.58C150.85,166.69,153,164.57,151.55,163.26Z"/><path d="M193.67,120.42a2.39,2.39,0,0,1-.85-2.85l-1.45,1.1c1,0,2.39.51,2.7,1.63.21.74-.21,1.85-1.08,1.91-1.81.13-2.76-2.69-2.41-4.06.41-1.6,2.1-1.75,3.09-.52s-.62,2.14-.87,1.43c-.63-1.82-3.52-1-2.89.79a3.64,3.64,0,0,0,6.71.34c1.45-2.93-1.23-6.11-4.21-6.39-3.59-.34-5.42,3.47-4.74,6.55.74,3.34,4.93,6.64,8,3.76a4.64,4.64,0,0,0,1-5.38,6,6,0,0,0-5.29-3.06,1.52,1.52,0,0,0-1.44,1.1,5.27,5.27,0,0,0,1.62,5.77c1.47,1.23,3.6-.88,2.12-2.12Z"/><path d="M211.78,122.88a1.52,1.52,0,0,1-.69-1.19l-.69,1.69c-.66-.65-.93-.76-.81-.31a1.69,1.69,0,0,1-.06.55,1,1,0,0,1-.86.62c-.82,0-1.75-1-2.07-1.72-.63-1.36-.07-3.59,1.7-3.55,1.6,0,2.89,1.87,1.29,3s-3.1-1-2.11-2.47l-1.29.74a1.55,1.55,0,0,1,1.71,1.31c.43,1.88,3.33,1.08,2.89-.8a4.5,4.5,0,0,0-4.6-3.51c-2.19.24-2.35,3.44-1.77,5,1.6,4.38,8.07,3.67,8.87-.88.74-4.24-4.85-7-8-4.37-3.39,2.77-2,8.92,2.26,10.08a4,4,0,0,0,5-3.56c.16-2.09-1.57-4.23-3.68-2.75a1.61,1.61,0,0,0-.69,1.7,4.4,4.4,0,0,0,2.07,3c1.63,1,3.14-1.55,1.52-2.59Z"/><path d="M144.93,156.36a35.62,35.62,0,0,0,20.18-16.42,1.5,1.5,0,0,0-2.59-1.51,32.48,32.48,0,0,1-18.39,15c-1.83.6-1,3.5.8,2.9Z"/><path class="cls-5" d="M192.39,119.93a1.5,1.5,0,0,0,0-3,1.5,1.5,0,0,0,0,3Z"/><path class="cls-5" d="M207.19,119.59l-.11.48a1.5,1.5,0,0,0,2.89.8l.11-.48a1.53,1.53,0,0,0-1.05-1.85,1.51,1.51,0,0,0-1.84,1Z"/></g></svg>