<svg xmlns="http://www.w3.org/2000/svg" viewBox="0 0 381.28 380.33"><defs><style>.cls-1{fill:#7dc4ca;}.cls-2{fill:#b1dcdf;}.cls-3{fill:#f7c402;}.cls-4{fill:#ffda83;}.cls-5{fill:#ffe9b5;}</style></defs><title>Binario mapa conceptual</title><g id="gráficos"><path d="M197.73,180.59a1.5,1.5,0,0,0,0-3,1.5,1.5,0,0,0,0,3Z"/><rect class="cls-1" x="4.14" y="3.67" width="373" height="373" rx="23.02" ry="23.02"/><path d="M354.12,375.17H33.62c-7.27,0-14.13.11-20.23-5-7.09-5.91-7.75-13.81-7.75-22.12V63.81c0-12.34-.38-24.75,0-37.09C6.06,13,17,5.17,29.81,5.17h278.9c14.84,0,29.68-.14,44.51,0,12.75.11,22.3,9.5,22.42,22.3,0,4.81,0,9.62,0,14.43V350.79c0,12.86-7.62,24-21.52,24.38-1.93.05-1.93,3.05,0,3,14.41-.44,24.44-11.7,24.52-25.81,0-5.5,0-11,0-16.51V71.73c0-14.8.15-29.62,0-44.42A24.94,24.94,0,0,0,354,2.17c-4-.09-8,0-12.06,0H29.62c-11.38,0-21.84,5.32-25.7,16.72C2.25,23.8,2.64,29.14,2.64,34.26v314.1c0,7.21.37,14,5,20.15,5.85,7.69,14.43,9.66,23.46,9.66h323A1.5,1.5,0,0,0,354.12,375.17Z"/><rect class="cls-2" x="27.63" y="27.15" width="326.03" height="326.03" rx="23.02" ry="23.02"/><path d="M330.64,351.68H74.24c-12,0-30.23,2.95-39.27-6.77-8.71-9.38-5.84-27.12-5.84-38.94V152.58c0-34.08-1.06-68.34,0-102.41.41-13.42,11-21.52,23.74-21.52H293.44c12.23,0,24.5-.3,36.73,0,12.51.31,21.85,9.62,22,22.19.05,4.16,0,8.32,0,12.48V328.13c0,12.66-8.23,23.15-21.51,23.55-1.93.06-1.94,3.06,0,3,14-.42,24.37-11.28,24.51-25.19.05-4.31,0-8.63,0-12.94v-227c0-12.94.25-25.89,0-38.82-.26-13.81-10.57-24.68-24.52-25-3-.08-6,0-8.95,0h-269c-9.9,0-19.11,4.13-23.83,13.3-2.72,5.29-2.71,10.73-2.71,16.43V325.53c0,6.4.33,12.5,4,18.12,5.26,8,13.78,11,22.9,11H330.64A1.5,1.5,0,0,0,330.64,351.68Z"/><path class="cls-3" d="M85.65,59.57l-15-3.67,3.68-15,15,3.67ZM81.53,76.36l-15-3.68L70.2,57.89l15,3.68Zm-4.17,17-15-3.67,3.68-15,15,3.67ZM73.23,110.1l-15-3.68,3.64-14.79,15,3.68Zm-4.12,16.79-15-3.68,3.63-14.79,15,3.67Zm-4.17,17-15-3.68,3.68-15,15,3.67Zm-4.13,16.79-15-3.68,3.64-14.79,15,3.68ZM102.44,63.7,87.65,60.06l3.67-15,14.8,3.64ZM98.31,80.49,83.52,76.85l3.64-14.79L102,65.69Zm-4.16,17L79.35,93.8l3.68-15,14.79,3.64ZM90,114.23l-14.79-3.64L78.86,95.8l14.8,3.63ZM85.89,131,71.1,127.38l3.64-14.79,14.79,3.63Zm-4.16,17-14.8-3.64,3.68-15L85.4,133ZM77.6,164.75l-14.79-3.63,3.63-14.79L81.24,150Zm41.79-96.88-15-3.68,3.68-15,15,3.68ZM107,118.39l-15-3.67,3.64-14.8,15,3.68ZM94.55,168.92l-15-3.68,3.64-14.79,15,3.68ZM136.18,72l-14.79-3.63,3.67-15L139.86,57Zm-12.42,50.53L109,118.88l3.63-14.79,14.8,3.64Zm-12.42,50.53-14.79-3.64,3.63-14.79,14.8,3.64ZM153,76.12l-14.8-3.64,3.68-15,14.79,3.64Zm-4.13,16.79-14.79-3.64,3.63-14.79,14.8,3.63Zm-4.17,17-14.79-3.64,3.68-15,14.79,3.64Zm-4.12,16.79L125.75,123l3.64-14.79,14.79,3.63Zm-4.13,16.78-14.79-3.63L125.26,125l14.8,3.63Zm-4.17,17-14.79-3.64,3.68-15,14.79,3.64Zm-4.12,16.79-14.8-3.64L117,158.75l14.79,3.63Zm37.66-80.11L150.84,93.4l3.63-14.8,15,3.68Zm-4.16,17-15-3.68,3.68-15,15,3.68Zm-8.26,33.57-15-3.68,3.63-14.79,15,3.68Zm-4.16,17-15-3.67,3.68-15,14.95,3.68Z"/><path d="M86.05,58.13l-15-3.68,1,1.84,3.68-14.95-1.85,1,15,3.68-1.05-1.85-3.67,15c-.46,1.88,2.43,2.68,2.89.8l3.68-15a1.52,1.52,0,0,0-1-1.84l-15-3.68a1.53,1.53,0,0,0-1.85,1l-3.67,15a1.52,1.52,0,0,0,1,1.84l15,3.68C87.13,61.48,87.93,58.59,86.05,58.13Z"/><path d="M81.92,74.91,67,71.24l1,1.84,3.64-14.79L69.8,59.34l15,3.67-1-1.84L80.08,76c-.46,1.88,2.43,2.68,2.89.8L86.61,62a1.53,1.53,0,0,0-1-1.85l-15-3.68a1.52,1.52,0,0,0-1.84,1.05L65.12,72.28a1.53,1.53,0,0,0,1,1.85l15,3.68C83,78.27,83.8,75.37,81.92,74.91Z"/><path d="M77.76,91.87l-15-3.68L63.85,90l3.67-15-1.84,1,15,3.68-1-1.84-3.68,15c-.46,1.88,2.43,2.68,2.9.8l3.67-15a1.52,1.52,0,0,0-1-1.84l-15-3.68a1.53,1.53,0,0,0-1.85,1L61,89.24a1.52,1.52,0,0,0,1,1.84l15,3.68C78.83,95.22,79.63,92.33,77.76,91.87Z"/><path d="M73.63,108.65l-15-3.67,1,1.84L63.36,92l-1.85,1,15,3.67-1-1.84L71.79,109.7c-.46,1.88,2.43,2.68,2.89.8l3.63-14.79a1.53,1.53,0,0,0-1-1.85l-15-3.68a1.53,1.53,0,0,0-1.85,1L56.83,106a1.53,1.53,0,0,0,1,1.85l15,3.68C74.71,112,75.51,109.11,73.63,108.65Z"/><path d="M69.5,125.44l-15-3.68,1,1.85,3.64-14.79-1.85,1,15,3.68-1-1.84-3.64,14.79c-.46,1.87,2.43,2.67,2.89.8l3.64-14.8a1.52,1.52,0,0,0-1-1.84l-15-3.68a1.51,1.51,0,0,0-1.84,1L52.7,122.81a1.53,1.53,0,0,0,1,1.85l15,3.67C70.58,128.79,71.38,125.9,69.5,125.44Z"/><path d="M65.34,142.39l-15-3.67,1,1.84,3.67-15-1.84,1.05,15,3.68-1-1.85-3.68,15c-.46,1.88,2.43,2.68,2.89.8l3.68-15a1.51,1.51,0,0,0-1-1.84l-15-3.68a1.52,1.52,0,0,0-1.84,1l-3.68,14.95a1.52,1.52,0,0,0,1,1.85l15,3.68C66.41,145.75,67.21,142.86,65.34,142.39Z"/><path d="M61.21,159.18l-15-3.68,1,1.85,3.64-14.79-1.85,1,15,3.68-1-1.84-3.63,14.79c-.47,1.87,2.43,2.67,2.89.8l3.63-14.8a1.52,1.52,0,0,0-1-1.84l-15-3.68a1.53,1.53,0,0,0-1.85,1l-3.63,14.79a1.53,1.53,0,0,0,1,1.85l15,3.67C62.29,162.54,63.09,159.64,61.21,159.18Z"/><path d="M102.84,62.25,88.05,58.62l1,1.84,3.68-15-1.84,1,14.79,3.64-1-1.85L101,63.3c-.46,1.88,2.43,2.67,2.9.8l3.67-15a1.53,1.53,0,0,0-1-1.85l-14.8-3.63a1.52,1.52,0,0,0-1.84,1.05L86.2,59.66a1.53,1.53,0,0,0,1,1.85L102,65.15C103.92,65.61,104.72,62.71,102.84,62.25Z"/><path d="M98.71,79,83.92,75.4l1,1.85L88.6,62.46l-1.84,1,14.79,3.64-1-1.85-3.63,14.8c-.46,1.87,2.43,2.67,2.89.79l3.64-14.79a1.52,1.52,0,0,0-1.05-1.84L87.56,60.61a1.53,1.53,0,0,0-1.85,1L82.07,76.45a1.53,1.53,0,0,0,1.05,1.85l14.79,3.63C99.79,82.39,100.59,79.5,98.71,79Z"/><path d="M94.54,96,79.75,92.36l1,1.84,3.68-15-1.85,1.05,14.79,3.64-1-1.85L92.7,97c-.46,1.88,2.43,2.68,2.89.8l3.68-15a1.53,1.53,0,0,0-1-1.85L83.43,77.4a1.53,1.53,0,0,0-1.85,1l-3.67,15a1.52,1.52,0,0,0,1,1.85l14.8,3.64C95.62,99.35,96.42,96.45,94.54,96Z"/><path d="M90.42,112.78l-14.79-3.64,1,1.85L80.31,96.2l-1.85,1,14.8,3.64L92.21,99l-3.64,14.79c-.46,1.87,2.43,2.67,2.9.8l3.63-14.8a1.52,1.52,0,0,0-1-1.84L79.26,94.35a1.51,1.51,0,0,0-1.84,1.05l-3.64,14.79a1.53,1.53,0,0,0,1,1.85l14.79,3.63C91.5,116.13,92.29,113.24,90.42,112.78Z"/><path d="M86.29,129.57,71.5,125.93l1,1.85L76.18,113l-1.84,1,14.79,3.64-1-1.85-3.63,14.8c-.46,1.87,2.43,2.67,2.89.79L91,116.62a1.54,1.54,0,0,0-1-1.85l-14.79-3.63a1.52,1.52,0,0,0-1.85,1L69.65,127a1.52,1.52,0,0,0,1,1.84l14.79,3.64C87.37,132.92,88.17,130,86.29,129.57Z"/><path d="M82.12,146.52l-14.79-3.64,1,1.85,3.68-15-1.85,1L85,134.46l-1-1.85-3.68,15c-.46,1.87,2.43,2.67,2.89.8l3.68-15a1.53,1.53,0,0,0-1-1.85L71,127.93a1.53,1.53,0,0,0-1.85,1l-3.67,15a1.53,1.53,0,0,0,1,1.85l14.8,3.63C83.2,149.87,84,147,82.12,146.52Z"/><path d="M78,163.31l-14.8-3.64,1,1.85,3.64-14.8L66,147.77l14.8,3.64-1-1.85-3.64,14.8c-.46,1.87,2.43,2.67,2.9.79l3.63-14.79a1.51,1.51,0,0,0-1.05-1.84l-14.79-3.64A1.51,1.51,0,0,0,65,145.93l-3.64,14.79a1.51,1.51,0,0,0,1,1.84L77.2,166.2C79.07,166.66,79.87,163.77,78,163.31Z"/><path d="M119.79,66.42l-15-3.68,1,1.85,3.68-15-1.85,1,15,3.67-1-1.84-3.67,15c-.46,1.87,2.43,2.67,2.89.8l3.68-15a1.53,1.53,0,0,0-1-1.85l-15-3.68a1.53,1.53,0,0,0-1.85,1l-3.67,15A1.53,1.53,0,0,0,104,65.64L119,69.31C120.87,69.77,121.67,66.88,119.79,66.42Z"/><path d="M107.37,117l-15-3.68,1,1.85,3.64-14.8-1.85,1.05,15,3.68-1-1.85L105.53,118c-.46,1.87,2.43,2.67,2.89.79L112.06,104a1.54,1.54,0,0,0-1-1.85l-15-3.67a1.53,1.53,0,0,0-1.85,1l-3.63,14.79a1.51,1.51,0,0,0,1,1.84l15,3.68C108.45,120.3,109.25,117.41,107.37,117Z"/><path d="M95,167.48,80,163.8,81,165.64l3.64-14.79-1.85,1.05,15,3.68-1.05-1.85-3.63,14.79c-.46,1.88,2.43,2.68,2.89.8l3.64-14.79a1.54,1.54,0,0,0-1-1.85l-15-3.67a1.53,1.53,0,0,0-1.85,1l-3.63,14.8a1.52,1.52,0,0,0,1,1.84l15,3.68C96,170.83,96.83,167.94,95,167.48Z"/><path d="M136.58,70.55l-14.79-3.64,1,1.85,3.68-15-1.84,1,14.79,3.64-1.05-1.84-3.68,15c-.46,1.88,2.44,2.68,2.9.8l3.67-15a1.52,1.52,0,0,0-1-1.84L125.46,52a1.52,1.52,0,0,0-1.84,1l-3.68,15a1.51,1.51,0,0,0,1,1.84l14.79,3.64C137.66,73.9,138.46,71,136.58,70.55Z"/><path d="M124.16,121.07l-14.79-3.63,1,1.84,3.64-14.79-1.85,1.05,14.8,3.63-1-1.84-3.64,14.79c-.46,1.88,2.44,2.68,2.9.8l3.63-14.79a1.53,1.53,0,0,0-1-1.85L113,102.65a1.52,1.52,0,0,0-1.84,1l-3.64,14.8a1.52,1.52,0,0,0,1,1.84L123.36,124C125.24,124.43,126,121.54,124.16,121.07Z"/><path d="M111.74,171.6,97,168l1,1.84L101.63,155l-1.85,1,14.8,3.63-1-1.84-3.64,14.79c-.46,1.87,2.43,2.67,2.9.8l3.63-14.8a1.52,1.52,0,0,0-1-1.84l-14.79-3.64a1.52,1.52,0,0,0-1.84,1.05L95.1,169a1.53,1.53,0,0,0,1.05,1.85l14.79,3.64C112.82,175,113.62,172.06,111.74,171.6Z"/><path d="M153.37,74.67,138.57,71l1.05,1.84,3.68-15-1.85,1,14.8,3.64-1.05-1.85-3.68,15c-.46,1.88,2.43,2.68,2.89.8l3.68-15A1.53,1.53,0,0,0,157,59.71l-14.79-3.63a1.51,1.51,0,0,0-1.84,1.05l-3.68,14.95a1.53,1.53,0,0,0,1.05,1.85l14.79,3.64C154.44,78,155.24,75.13,153.37,74.67Z"/><path d="M149.24,91.46l-14.79-3.64,1,1.85,3.64-14.79-1.84,1,14.79,3.64L151,77.71l-3.64,14.8c-.46,1.87,2.44,2.67,2.9.79l3.63-14.79a1.52,1.52,0,0,0-1-1.84L138.08,73a1.52,1.52,0,0,0-1.84,1L132.6,88.87a1.53,1.53,0,0,0,1.05,1.85l14.79,3.63C150.32,94.81,151.12,91.92,149.24,91.46Z"/><path d="M145.07,108.41l-14.79-3.63,1.05,1.84,3.67-15-1.84,1L148,96.35l-1-1.85-3.67,15c-.46,1.88,2.43,2.68,2.89.8l3.68-15a1.53,1.53,0,0,0-1.05-1.85L134,89.82a1.53,1.53,0,0,0-1.85,1.05l-3.68,15a1.52,1.52,0,0,0,1,1.84l14.79,3.64C146.15,111.77,147,108.88,145.07,108.41Z"/><path d="M141,125.2l-14.8-3.64,1,1.85,3.64-14.79-1.85,1,14.79,3.64-1-1.84-3.64,14.79c-.46,1.87,2.43,2.67,2.89.8l3.64-14.8a1.52,1.52,0,0,0-1-1.84l-14.79-3.64a1.53,1.53,0,0,0-1.85,1l-3.63,14.79a1.53,1.53,0,0,0,1,1.85l14.79,3.63C142,128.55,142.82,125.66,141,125.2Z"/><path d="M136.82,142,122,138.35l1,1.85,3.64-14.8-1.84,1,14.79,3.64-1-1.85L135,143c-.46,1.87,2.44,2.67,2.9.79L141.5,129a1.51,1.51,0,0,0-1-1.84l-14.8-3.64a1.52,1.52,0,0,0-1.84,1l-3.64,14.79a1.51,1.51,0,0,0,1,1.84L136,144.88C137.9,145.34,138.7,142.45,136.82,142Z"/><path d="M132.65,158.94l-14.79-3.64,1,1.85,3.67-15-1.84,1.05,14.79,3.64L134.48,145l-3.67,15c-.46,1.87,2.43,2.67,2.89.8l3.68-15a1.53,1.53,0,0,0-1-1.85l-14.79-3.63a1.53,1.53,0,0,0-1.85,1l-3.68,15a1.53,1.53,0,0,0,1,1.85l14.79,3.63C133.73,162.29,134.53,159.4,132.65,158.94Z"/><path d="M128.53,175.73l-14.8-3.64,1,1.85,3.64-14.8-1.85,1.05,14.79,3.64-1-1.85-3.64,14.8c-.46,1.87,2.43,2.67,2.89.79l3.64-14.79a1.51,1.51,0,0,0-1.05-1.84l-14.79-3.64a1.53,1.53,0,0,0-1.85,1l-3.63,14.79a1.53,1.53,0,0,0,1,1.85l14.79,3.63C129.6,179.08,130.4,176.19,128.53,175.73Z"/><path d="M166.19,95.63l-15-3.68,1.05,1.85L155.92,79l-1.85,1,15,3.68L168,81.88l-3.63,14.79c-.46,1.88,2.43,2.68,2.89.8l3.64-14.79a1.53,1.53,0,0,0-1-1.85l-15-3.67a1.51,1.51,0,0,0-1.84,1L149.39,93a1.52,1.52,0,0,0,1.05,1.84l15,3.68C167.27,99,168.07,96.09,166.19,95.63Z"/><path d="M162,112.58l-15-3.68,1,1.85,3.68-15-1.84,1,15,3.67-1-1.84-3.68,15c-.46,1.87,2.43,2.67,2.89.8l3.68-15a1.53,1.53,0,0,0-1.05-1.85l-15-3.67a1.52,1.52,0,0,0-1.84,1l-3.68,15a1.53,1.53,0,0,0,1.05,1.85l15,3.67C163.1,115.93,163.9,113,162,112.58Z"/><path d="M153.77,146.16l-15-3.68,1.05,1.84,3.64-14.79-1.85,1.05,15,3.68-1.05-1.85-3.63,14.79c-.46,1.88,2.43,2.68,2.89.8l3.64-14.79a1.53,1.53,0,0,0-1.05-1.85l-15-3.67a1.51,1.51,0,0,0-1.84,1L137,143.53a1.52,1.52,0,0,0,1.05,1.84l15,3.68C154.85,149.51,155.65,146.62,153.77,146.16Z"/><path d="M149.61,163.11l-15-3.68,1,1.85,3.68-15-1.84,1.05L152.48,151l-1-1.84-3.68,15c-.46,1.87,2.43,2.67,2.89.79L154.33,150a1.53,1.53,0,0,0-1.05-1.85l-15-3.68a1.52,1.52,0,0,0-1.84,1.05l-3.68,15a1.51,1.51,0,0,0,1,1.84l15,3.68C150.68,166.46,151.48,163.57,149.61,163.11Z"/><path class="cls-4" d="M206,133.37l-14.13-2.21L194,117l14.13,2.2Zm-2.48,15.85L189.34,147l2.18-14,14.13,2.2Zm-2.5,16L186.84,163l2.21-14.13,14.13,2.21ZM198.5,181.1l-14.13-2.21,2.18-14,14.13,2.2ZM196,197l-14.13-2.2,2.18-14,14.13,2.2Zm-2.5,16-14.13-2.21,2.2-14.13,14.13,2.21Zm-2.47,15.86-14.13-2.21,2.18-14,14.13,2.2Zm30.74-93-14-2.18,2.2-14.13,14,2.18Zm-2.47,15.86-14-2.18,2.18-14,14,2.18Zm-2.5,16-14-2.18,2.2-14.13,14,2.18Zm-2.47,15.86-14-2.18,2.18-14,14,2.17Zm-2.47,15.86-14-2.18,2.18-14,14,2.18Zm-2.5,16-14-2.18,2.21-14.13,14,2.18Zm-2.48,15.86-14-2.18,2.18-14,14,2.18Z"/><path d="M206.34,131.92l-14.13-2.2,1,1.84,2.21-14.13-1.85,1,14.13,2.2-1.05-1.84L204.5,133c-.3,1.89,2.6,2.7,2.89.79l2.21-14.13c.11-.72-.18-1.71-1-1.84l-14.13-2.21a1.53,1.53,0,0,0-1.85,1l-2.2,14.13a1.53,1.53,0,0,0,1,1.85l14.13,2.2C207.44,135.11,208.25,132.22,206.34,131.92Z"/><path d="M203.87,147.78l-14.13-2.21,1,1.85,2.18-14-1.85,1.05,14.13,2.21-1-1.85-2.18,14c-.3,1.89,2.59,2.71,2.89.8l2.18-14a1.53,1.53,0,0,0-1-1.85l-14.13-2.2c-.73-.11-1.71.18-1.84,1.05l-2.18,14a1.52,1.52,0,0,0,1,1.85l14.13,2.2C205,151,205.78,148.07,203.87,147.78Z"/><path d="M201.37,163.79l-14.13-2.2,1,1.84,2.21-14.13-1.85,1,14.13,2.2-1.05-1.84-2.2,14.13c-.3,1.89,2.59,2.7,2.89.8l2.21-14.13a1.53,1.53,0,0,0-1-1.85l-14.13-2.2a1.52,1.52,0,0,0-1.85,1l-2.2,14.14a1.52,1.52,0,0,0,1,1.84l14.13,2.2C202.46,167,203.28,164.09,201.37,163.79Z"/><path d="M198.9,179.65l-14.13-2.21,1,1.85,2.18-14-1.85,1,14.13,2.21-1.05-1.85-2.18,14c-.29,1.89,2.6,2.7,2.9.79l2.18-14c.11-.73-.18-1.71-1-1.84L187,163.47a1.53,1.53,0,0,0-1.85,1.05l-2.17,14a1.52,1.52,0,0,0,1,1.85l14.13,2.2C200,182.84,200.81,180,198.9,179.65Z"/><path d="M196.43,195.51,182.3,193.3l1,1.85,2.18-14-1.84,1.05,14.13,2.21-1.05-1.85-2.18,14c-.29,1.89,2.6,2.71,2.89.8l2.18-14a1.52,1.52,0,0,0-1-1.85l-14.13-2.2a1.53,1.53,0,0,0-1.85,1l-2.18,14a1.53,1.53,0,0,0,1.05,1.85l14.13,2.2C197.52,198.69,198.33,195.8,196.43,195.51Z"/><path d="M193.93,211.52l-14.13-2.2,1,1.84,2.2-14.13-1.84,1.05,14.13,2.2-1.05-1.84-2.21,14.13c-.29,1.89,2.6,2.7,2.9.8l2.2-14.13a1.53,1.53,0,0,0-1.05-1.85L182,195.19a1.51,1.51,0,0,0-1.84,1.05L178,210.37a1.53,1.53,0,0,0,1.05,1.84l14.13,2.2C195,214.71,195.83,211.82,193.93,211.52Z"/><path d="M191.46,227.38l-14.13-2.2,1,1.84,2.18-14-1.84,1,14.13,2.21-1.05-1.85-2.18,14c-.29,1.89,2.6,2.7,2.89.79l2.18-14c.12-.73-.17-1.71-1-1.84l-14.13-2.21a1.53,1.53,0,0,0-1.85,1.05l-2.18,14a1.53,1.53,0,0,0,1.05,1.85l14.13,2.2C192.55,230.57,193.36,227.68,191.46,227.38Z"/><path d="M222.2,134.39l-14-2.18,1.05,1.85,2.2-14.13-1.85,1,14,2.18-1.05-1.84-2.2,14.13c-.3,1.89,2.59,2.7,2.89.8l2.2-14.13a1.52,1.52,0,0,0-1-1.85l-14-2.18c-.73-.11-1.71.18-1.84,1l-2.21,14.13a1.53,1.53,0,0,0,1.05,1.85l14,2.18C223.29,137.58,224.11,134.69,222.2,134.39Z"/><path d="M219.73,150.25l-14-2.18,1.05,1.85,2.18-14L207.14,137l14,2.18-1.05-1.85-2.18,14c-.29,1.89,2.6,2.7,2.9.79l2.18-14c.11-.73-.18-1.71-1.05-1.84l-14-2.18c-.72-.12-1.71.17-1.84,1l-2.18,14c-.11.73.18,1.71,1.05,1.84l14,2.18C220.82,153.44,221.63,150.55,219.73,150.25Z"/><path d="M217.23,166.27l-14-2.18,1,1.84,2.21-14.13-1.85,1,14,2.18-1-1.85-2.2,14.13c-.3,1.89,2.59,2.71,2.89.8l2.2-14.13a1.52,1.52,0,0,0-1-1.85l-14-2.18c-.73-.11-1.71.18-1.84,1.05l-2.21,14.13a1.53,1.53,0,0,0,1.05,1.85l14,2.18C218.32,169.45,219.14,166.56,217.23,166.27Z"/><path d="M214.76,182.12l-14-2.18,1.05,1.85,2.18-14-1.84,1.05,14,2.18-1-1.84-2.18,14c-.29,1.89,2.6,2.7,2.89.8L218,170c.12-.72-.17-1.71-1-1.84L203,166c-.72-.11-1.71.18-1.84,1.05l-2.18,14a1.53,1.53,0,0,0,1.05,1.85L214,185C215.85,185.31,216.66,182.42,214.76,182.12Z"/><path d="M212.28,198l-14-2.18,1.05,1.85,2.18-14-1.85,1.05,14,2.18-1-1.85-2.18,14c-.3,1.89,2.59,2.7,2.89.8l2.18-14c.11-.73-.18-1.71-1-1.84l-14-2.18a1.52,1.52,0,0,0-1.85,1l-2.17,14c-.12.73.17,1.71,1,1.84l14,2.18C213.38,201.17,214.19,198.28,212.28,198Z"/><path d="M209.79,214l-14-2.17,1.05,1.84,2.2-14.13-1.84,1.05,14,2.18-1.05-1.85L207.94,215c-.29,1.89,2.6,2.7,2.89.8L213,201.71a1.53,1.53,0,0,0-1-1.85l-14-2.17a1.52,1.52,0,0,0-1.85,1L194,212.86a1.52,1.52,0,0,0,1,1.85l14,2.18C210.88,217.18,211.69,214.29,209.79,214Z"/><path d="M207.31,229.85l-14-2.18,1,1.85,2.18-14-1.85,1.05,14,2.18-1-1.84-2.18,14c-.3,1.89,2.59,2.7,2.89.8l2.18-14c.11-.72-.18-1.71-1-1.84l-14-2.18a1.53,1.53,0,0,0-1.85,1.05l-2.18,14a1.53,1.53,0,0,0,1,1.85l14,2.18C208.4,233,209.22,230.15,207.31,229.85Z"/><path class="cls-5" d="M255.16,218.7l-13.68-6.27,6.27-13.68L261.43,205Zm15.36,7L257,219.54l6.27-13.68,13.53,6.2ZM286,232.85l-13.69-6.27,6.28-13.68,13.68,6.27Zm-7,15.36-13.69-6.27,6.21-13.53,13.68,6.27Zm-7.11,15.51-13.69-6.27,6.28-13.69L278.15,250Zm-7,15.36-13.69-6.28,6.21-13.53L271,265.54Zm-7,15.35-13.69-6.27,6.21-13.53L264,280.9Zm-7.11,15.51L237,303.67,243.28,290,257,296.26Zm-7,15.36L230,319l6.21-13.53,13.68,6.27Zm57.73-85.41-13.53-6.2L294.13,220l13.53,6.2Zm-7,15.36-13.54-6.2L287,235.51l13.53,6.21Zm-7.11,15.51-13.54-6.2L280,250.87l13.53,6.21Zm-7,15.36-13.54-6.21,6.21-13.53,13.53,6.2Zm-7,15.35-13.54-6.2,6.21-13.53,13.53,6.2ZM266.05,317l-13.54-6.2,6.28-13.68,13.53,6.2Zm-7,15.36-13.54-6.2,6.21-13.53,13.53,6.2Zm57.73-85.41-13.53-6.2,6.27-13.68,13.54,6.2Zm15.21,7-13.54-6.2L324.69,234l13.53,6.2Z"/><path d="M255.92,217.41l-13.69-6.27.54,2.05,6.28-13.69L247,200l13.69,6.27-.54-2.05L253.87,218c-.8,1.74,1.78,3.27,2.59,1.51l6.27-13.68a1.54,1.54,0,0,0-.54-2.06l-13.68-6.27a1.54,1.54,0,0,0-2.06.54l-6.27,13.68a1.54,1.54,0,0,0,.54,2.06L254.4,220C256.15,220.8,257.67,218.21,255.92,217.41Z"/><path d="M271.28,224.45l-13.54-6.2.54,2.05,6.27-13.69-2.05.54,13.53,6.2-.53-2L269.22,225c-.8,1.74,1.79,3.27,2.59,1.51l6.28-13.68a1.54,1.54,0,0,0-.54-2.06L264,204.56a1.54,1.54,0,0,0-2.06.54l-6.27,13.68a1.54,1.54,0,0,0,.54,2.06l13.53,6.2C271.5,227.84,273,225.25,271.28,224.45Z"/><path d="M286.78,231.56l-13.68-6.27.54,2.05,6.27-13.69-2.05.54,13.68,6.27-.53-2.05-6.28,13.69c-.8,1.74,1.79,3.27,2.59,1.51l6.28-13.68a1.54,1.54,0,0,0-.54-2.06l-13.69-6.27a1.53,1.53,0,0,0-2.05.54l-6.27,13.68a1.53,1.53,0,0,0,.54,2.06l13.68,6.27C287,235,288.54,232.36,286.78,231.56Z"/><path d="M279.74,246.92l-13.68-6.28.54,2.05,6.2-13.53-2.05.54L284.43,236l-.53-2.05-6.21,13.53c-.8,1.75,1.79,3.27,2.59,1.52l6.21-13.53a1.54,1.54,0,0,0-.54-2.06l-13.69-6.27a1.53,1.53,0,0,0-2.05.54L264,241.18a1.51,1.51,0,0,0,.54,2l13.68,6.28C280,250.3,281.5,247.72,279.74,246.92Z"/><path d="M272.63,262.43,259,256.15l.54,2.05,6.27-13.68-2.05.54,13.68,6.27-.53-2.05L270.58,263c-.8,1.75,1.79,3.27,2.59,1.52l6.28-13.69a1.52,1.52,0,0,0-.54-2l-13.69-6.27a1.52,1.52,0,0,0-2.05.54l-6.27,13.68a1.51,1.51,0,0,0,.54,2.05L271.12,265C272.86,265.81,274.39,263.23,272.63,262.43Z"/><path d="M265.6,277.78l-13.69-6.27.54,2.05,6.2-13.53-2,.54,13.68,6.27-.53-2-6.21,13.53c-.8,1.74,1.79,3.27,2.59,1.51l6.21-13.53a1.52,1.52,0,0,0-.54-2.05L258.11,258a1.52,1.52,0,0,0-2.05.53l-6.2,13.54a1.51,1.51,0,0,0,.54,2.05l13.68,6.27C265.82,281.17,267.35,278.59,265.6,277.78Z"/><path d="M258.56,293.14l-13.69-6.27.54,2.05,6.2-13.53-2.05.53,13.68,6.28-.53-2.06-6.21,13.54c-.8,1.74,1.79,3.27,2.59,1.51l6.21-13.53a1.52,1.52,0,0,0-.54-2.05l-13.69-6.28a1.53,1.53,0,0,0-2,.54l-6.2,13.53a1.53,1.53,0,0,0,.54,2.06L257,295.73C258.78,296.53,260.31,293.94,258.56,293.14Z"/><path d="M251.45,308.65l-13.69-6.27.54,2.05,6.27-13.69-2,.54,13.68,6.27-.53-2.05-6.28,13.69c-.8,1.74,1.79,3.27,2.59,1.51L258.26,297a1.54,1.54,0,0,0-.54-2.06L244,288.69a1.53,1.53,0,0,0-2.05.54l-6.27,13.68a1.54,1.54,0,0,0,.54,2.06l13.68,6.27C251.67,312,253.2,309.45,251.45,308.65Z"/><path d="M244.41,324l-13.69-6.28.54,2.06,6.2-13.54-2.05.54,13.69,6.27-.54-2.05-6.21,13.53c-.8,1.75,1.79,3.27,2.59,1.52l6.21-13.53a1.54,1.54,0,0,0-.54-2.06l-13.68-6.27a1.54,1.54,0,0,0-2.06.54l-6.2,13.53a1.52,1.52,0,0,0,.54,2.05l13.68,6.28C244.63,327.4,246.16,324.81,244.41,324Z"/><path d="M302.14,238.6l-13.53-6.2.54,2,6.27-13.69-2.05.54,13.53,6.2-.54-2.05-6.27,13.69c-.8,1.74,1.79,3.27,2.59,1.51L309,227a1.53,1.53,0,0,0-.53-2.06l-13.54-6.2a1.52,1.52,0,0,0-2.05.54l-6.27,13.68a1.53,1.53,0,0,0,.54,2.06l13.53,6.2C302.37,242,303.9,239.4,302.14,238.6Z"/><path d="M295.1,254l-13.53-6.21.54,2.05,6.2-13.53-2.05.54,13.53,6.2-.54-2-6.2,13.53c-.8,1.75,1.79,3.27,2.59,1.52l6.2-13.53a1.53,1.53,0,0,0-.53-2.06l-13.54-6.2a1.51,1.51,0,0,0-2,.54l-6.2,13.53a1.51,1.51,0,0,0,.54,2.05l13.53,6.21C295.33,257.34,296.86,254.76,295.1,254Z"/><path d="M288,269.47l-13.53-6.21.54,2.05,6.27-13.68-2,.54,13.53,6.2-.54-2.05L285.94,270c-.8,1.75,1.79,3.27,2.59,1.52l6.27-13.69a1.52,1.52,0,0,0-.53-2l-13.54-6.2a1.51,1.51,0,0,0-2.05.54l-6.27,13.68a1.51,1.51,0,0,0,.54,2.05l13.53,6.21C288.22,272.85,289.75,270.27,288,269.47Z"/><path d="M281,284.82l-13.53-6.2.54,2.05,6.2-13.53-2.05.54,13.53,6.2-.54-2.05-6.2,13.53c-.8,1.74,1.79,3.27,2.59,1.51l6.2-13.53a1.51,1.51,0,0,0-.53-2l-13.54-6.2a1.51,1.51,0,0,0-2.05.53l-6.2,13.54a1.51,1.51,0,0,0,.54,2l13.53,6.2C281.18,288.21,282.71,285.63,281,284.82Z"/><path d="M273.91,300.18,260.38,294l.54,2,6.2-13.53-2.05.53,13.53,6.21-.54-2.06-6.2,13.54c-.8,1.74,1.79,3.27,2.59,1.51l6.2-13.53a1.51,1.51,0,0,0-.53-2.05l-13.54-6.21a1.53,1.53,0,0,0-2.05.54l-6.2,13.53a1.53,1.53,0,0,0,.54,2.06l13.53,6.2C274.14,303.57,275.67,301,273.91,300.18Z"/><path d="M266.8,315.69l-13.53-6.21.54,2.06,6.27-13.69-2.05.54,13.53,6.2-.54-2-6.27,13.69c-.8,1.74,1.79,3.27,2.59,1.51l6.27-13.68a1.52,1.52,0,0,0-.53-2.06l-13.54-6.2a1.53,1.53,0,0,0-2.05.54L251.22,310a1.53,1.53,0,0,0,.54,2.06l13.53,6.2C267,319.08,268.56,316.49,266.8,315.69Z"/><path d="M259.76,331.05l-13.53-6.21.54,2.05,6.2-13.53-2.05.54,13.53,6.2-.54-2.05-6.2,13.53c-.8,1.75,1.79,3.27,2.59,1.52l6.21-13.53a1.54,1.54,0,0,0-.54-2.06l-13.54-6.2a1.53,1.53,0,0,0-2.05.54l-6.2,13.53a1.51,1.51,0,0,0,.54,2.05l13.53,6.21C260,334.44,261.52,331.85,259.76,331.05Z"/><path d="M317.5,245.64,304,239.44l.53,2.05,6.28-13.69-2,.54,13.53,6.2-.54-2-6.27,13.69c-.8,1.74,1.78,3.27,2.59,1.51L324.31,234a1.53,1.53,0,0,0-.54-2.06l-13.53-6.2a1.52,1.52,0,0,0-2.05.54L301.91,240a1.54,1.54,0,0,0,.54,2.06l13.54,6.2C317.73,249,319.25,246.44,317.5,245.64Z"/><path d="M332.7,252.61l-13.53-6.2.54,2.05L326,234.77l-2.05.54,13.53,6.2-.53-2-6.28,13.69c-.8,1.74,1.79,3.27,2.59,1.51L339.52,241a1.54,1.54,0,0,0-.54-2.06l-13.53-6.2a1.54,1.54,0,0,0-2.06.54l-6.27,13.68a1.54,1.54,0,0,0,.54,2.06l13.53,6.2C332.93,256,334.46,253.41,332.7,252.61Z"/></g></svg>