<svg xmlns="http://www.w3.org/2000/svg" viewBox="0 0 381.28 380.33"><defs><style>.cls-1{fill:#e1262f;}.cls-2{fill:#ed7d82;}.cls-3{fill:#ffe9b5;}.cls-4{fill:#7dc4ca;}.cls-5{fill:#4386c6;}.cls-6{fill:#ededed;}.cls-7{fill:#fff;}.cls-8{fill:#ffda83;}.cls-9{fill:#183e42;}</style></defs><title>Binario mapa conceptual</title><g id="gráficos"><rect class="cls-1" x="4.14" y="3.67" width="373" height="373" rx="23.02" ry="23.02"/><path d="M354.12,375.16H33.62c-7.27,0-14.13.12-20.23-5-7.09-5.91-7.75-13.81-7.75-22.12V63.81c0-12.34-.38-24.75,0-37.09C6.06,13,17,5.17,29.81,5.17h278.9c14.84,0,29.68-.14,44.51,0,12.75.11,22.3,9.5,22.42,22.3,0,4.81,0,9.62,0,14.43V350.79c0,12.86-7.62,24-21.52,24.37-1.93.06-1.93,3.06,0,3,14.41-.43,24.44-11.69,24.52-25.8,0-5.5,0-11,0-16.51V71.73c0-14.8.15-29.62,0-44.42A24.94,24.94,0,0,0,354,2.17c-4-.09-8,0-12.06,0H29.62c-11.38,0-21.84,5.32-25.7,16.72C2.25,23.8,2.64,29.14,2.64,34.26v314.1c0,7.21.37,14,5,20.15,5.85,7.69,14.43,9.65,23.46,9.65h323A1.5,1.5,0,0,0,354.12,375.16Z"/><rect class="cls-2" x="27.63" y="27.15" width="326.03" height="326.03" rx="23.02" ry="23.02"/><path d="M330.64,351.68H74.24c-12,0-30.23,2.95-39.27-6.77-8.71-9.38-5.84-27.12-5.84-38.94V152.58c0-34.08-1.06-68.34,0-102.41.41-13.42,11-21.52,23.74-21.52H293.44c12.23,0,24.5-.3,36.73,0,12.51.31,21.85,9.62,22,22.19.05,4.16,0,8.32,0,12.48V328.13c0,12.66-8.23,23.15-21.51,23.55-1.93.06-1.94,3.06,0,3,14-.42,24.37-11.28,24.51-25.19.05-4.31,0-8.63,0-12.94v-227c0-12.94.25-25.89,0-38.82-.26-13.81-10.57-24.68-24.52-25-3-.08-6,0-8.95,0h-269c-9.9,0-19.11,4.13-23.83,13.3-2.72,5.29-2.71,10.73-2.71,16.43V325.53c0,6.4.33,12.5,4,18.12,5.26,8,13.78,11,22.9,11H330.64A1.5,1.5,0,0,0,330.64,351.68Z"/><path class="cls-3" d="M279.81,263.88c-.23,14.83-7.05,32.22-22.33,37.36-5.11,1.72-10.75,1.23-16.08,1.23H177.62c-15,0-30.06.3-45.07,0-14.46-.28-24.5-12.61-28.12-25.64-1.76-6.33-1.74-12.63-1.74-19.1V191.41c0-17.41-1-36.45,14.12-48.73,6-4.92,12.74-5.78,20.12-5.78h92.52c6.42,0,12.85,0,19.27,0,10.5.06,19.07,5.65,24.53,14.54,4.49,7.29,6.43-1.45,6.56,7.06.16,11.07,17.41,11.1,17.25,0-.29-18.95-8-20.82-24.09-31.75-8.28-5.63-17.67-7.07-27.4-7.07H181c-16.15,0-32.35-.33-48.5,0-18.23.38-33.64,12.33-41.07,28.61-4.5,9.85-6,20.18-6,30.89v71.68c0,4.33-.06,8.67,0,13,.23,18.44,7.63,36.91,22.92,47.93s36.5,7.9,54.26,7.9h71.94c5.14,0,10.29.11,15.43,0,17.62-.36,32.8-11.57,40.41-27.17a66.83,66.83,0,0,0,6.66-28.64c.16-11.09-17.09-11.09-17.25,0Z"/><path d="M278.31,263.88c-.28,10-3.11,20.63-9.93,28.28-8.85,9.94-20.77,8.81-32.95,8.81q-41.16,0-82.31.12c-11.88.05-25.84,2.23-35.65-5.91-8.75-7.25-12.65-18.54-13.16-29.58-.7-14.9-.12-29.93-.12-44.84V200.24c0-10.81-.7-21.93,1-32.65,1.64-10.43,6.6-21.1,16.36-26.25,5.33-2.81,11.37-2.93,17.25-2.94q10.23,0,20.46,0,39.92,0,79.83,0c5.9,0,12.06-.56,17.74,1.31a27.89,27.89,0,0,1,13.49,10.05c2.06,2.77,3.05,4.95,6.21,6.32,2,.84.88-1,1.74,1,.71,1.6.14,3.84.94,5.61,2.07,4.57,7.51,6.56,12.22,5.31,6.56-1.73,7.48-7.72,6.93-13.62-.59-6.42-2.61-12.22-7.35-16.74-5.69-5.43-13.39-10.17-20.24-13.94-10.23-5.63-21.69-5.46-33-5.46H198.6q-20.44,0-40.89-.12c-11.17-.06-23.27-1.26-34.24,1.24-18.83,4.29-32.29,20.43-37,38.59-4.55,17.38-2.48,36.52-2.48,54.37,0,16.27-.09,32.55,0,48.82.08,19.66,6.71,39.48,23,51.54,17.11,12.63,40.79,8.57,60.64,8.57,27.4,0,55,1,82.38,0,18.75-.67,34.77-12.63,42.46-29.5,3.86-8.47,14.15-39.62-5.14-37.55-5.32.57-8.66,4.55-9,9.74-.13,1.92,2.87,1.91,3,0a7,7,0,0,1,7.25-6.81c5.26,0,7,3.91,6.95,8.56a60.88,60.88,0,0,1-10,32.36A46.23,46.23,0,0,1,262.27,316c-11.24,3.77-24,2.15-35.71,2.15-24.34,0-48.74-.51-73.07.18-10.75.31-21.86.83-32.33-2.16s-19.2-10.42-25-19.68c-11.91-19-9.2-41.86-9.2-63.22v-32c0-21.58-2.06-45,12.3-63a45.49,45.49,0,0,1,24.33-16C135,119.55,148,121,159.65,121.07c25,.15,50.1.11,75.15.11,12.31,0,25-.71,35.94,5.92,6.37,3.85,14,8.1,19.12,13.58a19.48,19.48,0,0,1,4.7,8.8c.93,3.72,2.22,10-.32,13.27-2.12,2.74-6.34,3.26-9.34,1.72-4.43-2.28-2.43-6-3.95-9.67-.64-1.56-1.21-1.44-2.58-1.82-2.43-.68-2.88-1.15-4.63-3.55a45.47,45.47,0,0,0-3.84-4.81c-5.91-6.2-13.68-9.12-22.15-9.22-25-.32-50,0-74.92,0-12.23,0-24.46-.16-36.68,0-9.21.13-17.3,2.48-23.76,9.33-12.51,13.24-11.2,32.65-11.2,49.52v58.82c0,10.09-.29,20.18,3.73,29.65,3.07,7.24,8.15,14,15.11,17.84,8.77,4.88,19.52,3.55,29.17,3.53,25.42,0,50.84-.13,76.26-.13,6.21,0,12.42,0,18.63,0,5.21.06,10.34.07,15.26-1.86,7.34-2.88,13-8.84,16.54-15.78a52.47,52.47,0,0,0,5.42-22.48C281.36,261.94,278.36,262,278.31,263.88Z"/><path class="cls-4" d="M130.88,208.47H64.72V179.54a6,6,0,0,1,6-6h54.12a6,6,0,0,1,6,6Z"/><path d="M130.88,207H64.72l1.5,1.5V183.34c0-4,0-7.61,5.1-8.31,2.89-.4,6.12,0,9,0h42.51a13.22,13.22,0,0,1,2,0c3.61.57,4.29,2.87,4.54,5.76.8,9.07,0,18.56,0,27.68a1.5,1.5,0,0,0,3,0c0-9.29.24-18.61,0-27.9s-8.1-8.54-14.89-8.54H81.94c-6.79,0-17.85-2.07-18.72,7.51s0,19.4,0,28.93a1.52,1.52,0,0,0,1.5,1.5h66.16A1.5,1.5,0,0,0,130.88,207Z"/><path class="cls-5" d="M124.75,289.66H70.85a6.13,6.13,0,0,1-6.13-6.12V219.28h66.16v64.26A6.12,6.12,0,0,1,124.75,289.66Z"/><path d="M124.75,288.16H73.56c-3.6,0-6.78-.45-7.34-5.11a69.75,69.75,0,0,1,0-7.92V219.28l-1.5,1.5h66.16l-1.5-1.5v55.14c0,4.26,1.62,13.11-4.63,13.74-1.9.19-1.92,3.2,0,3,6.65-.67,7.63-5.75,7.63-11.25V219.28a1.51,1.51,0,0,0-1.5-1.5H64.72a1.52,1.52,0,0,0-1.5,1.5v55.85c0,6.4-1.26,15.36,7.66,16,8.37.63,17,0,25.43,0h28.44A1.5,1.5,0,0,0,124.75,288.16Z"/><rect class="cls-6" x="64.72" y="208.47" width="66.16" height="10.81"/><path d="M130.88,217.78H64.72l1.5,1.5V208.47l-1.5,1.5h66.16l-1.5-1.5v10.81a1.5,1.5,0,0,0,3,0V208.47a1.52,1.52,0,0,0-1.5-1.5H64.72a1.52,1.52,0,0,0-1.5,1.5v10.81a1.52,1.52,0,0,0,1.5,1.5h66.16A1.5,1.5,0,0,0,130.88,217.78Z"/><path d="M106.23,161.54H89.37a6.25,6.25,0,0,0-6.26,6.25V172H112.5v-4.22A6.26,6.26,0,0,0,106.23,161.54Z"/><path d="M106.23,160c-5.45,0-11-.25-16.4,0-7.27.34-8.22,6-8.22,12a1.52,1.52,0,0,0,1.5,1.5H112.5A1.52,1.52,0,0,0,114,172c0-5.86-.77-11.27-7.77-12-1.92-.19-1.9,2.81,0,3,5,.5,4.77,5.29,4.77,9l1.5-1.5H83.11l1.5,1.5c0-3.34-.42-6.58,3.08-8.27,2-1,3.78-.7,5.92-.7h12.62A1.5,1.5,0,0,0,106.23,160Z"/><polygon class="cls-7" points="107.48 187.28 100.64 187.28 100.64 180.45 94.97 180.45 94.97 187.28 88.13 187.28 88.13 192.94 94.97 192.94 94.97 199.77 100.64 199.77 100.64 192.94 107.48 192.94 107.48 187.28"/><path d="M107.48,185.78h-6.84l1.5,1.5v-6.83a1.52,1.52,0,0,0-1.5-1.5H95a1.52,1.52,0,0,0-1.5,1.5v6.83l1.5-1.5H88.12a1.52,1.52,0,0,0-1.5,1.5v5.66a1.52,1.52,0,0,0,1.5,1.5H95l-1.5-1.5v6.83a1.52,1.52,0,0,0,1.5,1.5h5.67a1.52,1.52,0,0,0,1.5-1.5v-6.83l-1.5,1.5h6.84a1.52,1.52,0,0,0,1.5-1.5v-5.66a1.5,1.5,0,0,0-3,0v5.66l1.5-1.5h-6.84a1.52,1.52,0,0,0-1.5,1.5v6.83l1.5-1.5H95l1.5,1.5v-6.83a1.52,1.52,0,0,0-1.5-1.5H88.12l1.5,1.5v-5.66l-1.5,1.5H95a1.52,1.52,0,0,0,1.5-1.5v-6.83L95,182h5.67l-1.5-1.5v6.83a1.52,1.52,0,0,0,1.5,1.5h6.84A1.5,1.5,0,0,0,107.48,185.78Z"/><polygon class="cls-7" points="107.48 273.43 100.64 273.43 94.97 273.43 88.13 273.43 88.13 279.09 94.97 279.09 100.64 279.09 107.48 279.09 107.48 273.43"/><path d="M107.48,271.93H88.12a1.52,1.52,0,0,0-1.5,1.5v5.66a1.52,1.52,0,0,0,1.5,1.5h19.36a1.52,1.52,0,0,0,1.5-1.5v-5.66a1.5,1.5,0,0,0-3,0v5.66l1.5-1.5H88.12l1.5,1.5v-5.66l-1.5,1.5h19.36A1.5,1.5,0,0,0,107.48,271.93Z"/><path class="cls-4" d="M265.38,171c-3.34-7.38-1-15.73,6.2-21.88a22.44,22.44,0,0,1,12.25-5.47c6.29-.65,12.65,1.75,16.21,5.13s4.72,7.57,5,11.64-.37,8.16,0,12.23c-15,0-23,0-37.94.11"/><path d="M266.83,170.56c-4.94-12.21,6.07-25.38,18.72-25.55,6.67-.09,13.62,3,16.51,9.23,2.61,5.66,1.07,12.34,1.48,18.37l1.5-1.5q-19,0-37.94.11a1.5,1.5,0,0,0,0,3q19-.09,37.94-.11a1.52,1.52,0,0,0,1.5-1.5c-.51-7.59,1.39-15.74-3.29-22.42-4.22-6-12.3-8.74-19.42-8.08-13.75,1.28-25.35,15.77-19.9,29.24.72,1.77,3.62,1,2.9-.79Z"/><rect class="cls-8" x="268.83" y="175.51" width="8.05" height="27.55"/><path d="M276.88,201.57h-8.05l1.5,1.5V175.51l-1.5,1.5h8.05l-1.5-1.5v27.56a1.5,1.5,0,0,0,3,0V175.51a1.52,1.52,0,0,0-1.5-1.5h-8.05a1.52,1.52,0,0,0-1.5,1.5v27.56a1.52,1.52,0,0,0,1.5,1.5h8.05A1.5,1.5,0,0,0,276.88,201.57Z"/><rect class="cls-8" x="290.68" y="175.51" width="8.05" height="27.55"/><path d="M298.73,201.57h-8.05l1.5,1.5V175.51l-1.5,1.5h8.05l-1.5-1.5v27.56a1.5,1.5,0,0,0,3,0V175.51a1.52,1.52,0,0,0-1.5-1.5h-8.05a1.52,1.52,0,0,0-1.5,1.5v27.56a1.52,1.52,0,0,0,1.5,1.5h8.05A1.5,1.5,0,0,0,298.73,201.57Z"/><path class="cls-5" d="M257.89,181.83l-1-15.72a474.83,474.83,0,0,0,59.65.72l-1.94,16A1.45,1.45,0,0,1,314,184a3.71,3.71,0,0,1-1.94.24l-55.69-2.74,3.17.31"/><path d="M259.39,181.83l-1-15.72-1.5,1.5a488.57,488.57,0,0,0,59.65.72l-1.5-1.5-1,8c-.23,1.89,0,6.81-2,7.93-1.7.94-7.94-.39-9.94-.49l-8.95-.44L256.37,180c-2-.1-1.89,2.81,0,3l3.17.31c1.92.19,1.9-2.81,0-3l-3.17-.31v3l46.74,2.3c3.13.16,10.54,2.28,12.65-1.08,1-1.66.79-5,1-6.74l1.3-10.67a1.51,1.51,0,0,0-1.5-1.5,488.57,488.57,0,0,1-59.65-.72,1.5,1.5,0,0,0-1.5,1.5l1,15.72c.12,1.91,3.12,1.93,3,0Z"/><path class="cls-4" d="M307.64,239.86c3.56,7.28,1.45,15.69-5.54,22.06A22.43,22.43,0,0,1,290,267.75c-6.26.84-12.7-1.36-16.35-4.64s-4.95-7.42-5.31-11.48.12-8.17-.41-12.22c14.94-.46,23-.74,37.92-1.26"/><path d="M306.34,240.62c5.39,12.23-6.29,25.82-18.88,25.79-6.39,0-13.24-2.79-16.1-8.85-2.63-5.57-1.33-12.21-1.91-18.15l-1.5,1.5q19-.58,37.92-1.26c1.92-.07,1.93-3.07,0-3q-19,.66-37.92,1.26a1.51,1.51,0,0,0-1.5,1.5c.74,7.57-.92,15.78,3.93,22.31,4.42,5.94,12.69,8.45,19.84,7.5,14-1.86,24.61-16.72,18.71-30.12-.77-1.76-3.36-.23-2.59,1.52Z"/><path class="cls-5" d="M314.79,228.77l1.46,15.68a475,475,0,0,0-59.64,1.08l1.45-16.06a1.4,1.4,0,0,1,.58-1.19,3.67,3.67,0,0,1,1.93-.31L316.32,229l-3.17-.21"/><path d="M313.29,228.77l1.46,15.68,1.5-1.5A488.47,488.47,0,0,0,256.61,244l1.5,1.5.73-8c.16-1.86-.23-6.84,1.73-8,1.62-1,8,.15,10,.19l9,.17,36.83.7c1.95,0,1.91-2.87,0-3l-3.17-.21c-1.93-.13-1.92,2.87,0,3l3.17.21v-3l-46.79-.89c-3.12-.06-10.6-1.95-12.63,1.43-1,1.68-.66,5-.82,6.76l-1,10.7a1.5,1.5,0,0,0,1.5,1.5A488.47,488.47,0,0,1,316.25,246a1.5,1.5,0,0,0,1.5-1.5l-1.46-15.68c-.18-1.91-3.18-1.92-3,0Z"/><path class="cls-5" d="M181.57,135.7c-2.79-.23-3.64,4.13-1.49,5.82s5.3,1.36,8.08.94l9.59-1.44a66.15,66.15,0,0,0,9.9-2c2.7-.84,8.11-.64,4.34-8.39a4.06,4.06,0,0,0-4-.29"/><path d="M181.57,134.2a4.79,4.79,0,0,0-2.55,8.38c2.07,1.91,5.36,1.8,7.92,1.54,4.85-.48,9.73-1.37,14.53-2.16,3.36-.56,11-1.07,12.83-4.78a5.75,5.75,0,0,0-6.7-8.23,1.5,1.5,0,0,0,.8,2.89c4.17-1.16,3.64,3.89,2,5a8.1,8.1,0,0,1-1.64.45,42.82,42.82,0,0,1-6.42,1.53c-2.93.55-5.89.93-8.84,1.37-1.91.29-3.83.62-5.75.86l-2.45.26q-3.42.63-3.74-4.07c1.89-.22,1.92-3.22,0-3Z"/><path class="cls-9" d="M182.43,114.76c-11.12-4.46-18.25-17.14-16.4-29s12.41-21.71,24.34-22.88,24.15,6.38,28.57,17.52.77,24.93-8.51,32.51a18.26,18.26,0,0,0-4.15,3.93c-3,4.66.33,10.68,3.58,15.17q-11.31,1.74-22.67,3.14c-1.56.19-3.31.33-4.52-.67a5.48,5.48,0,0,1-1.54-3.35c-.74-4.06.61-12.32,1.3-16.38"/><path d="M183.19,113.46c-13.06-5.67-20.05-21.68-13.28-34.73a26,26,0,0,1,35.56-11.11,26.67,26.67,0,0,1,10.09,36.91,28.46,28.46,0,0,1-6.19,7.33c-2.06,1.78-4.21,3.25-5.21,5.89-2,5.26,1.51,10.9,4.4,15l.9-2.2q-5.66.85-11.32,1.65c-3.59.49-10.5,2.65-13.71.65-4.32-2.69-1.28-13.38-.55-17.72.32-1.89-2.57-2.7-2.89-.8-.91,5.37-4.26,16.9.62,21.19,2.66,2.33,7.28.9,10.31.51q9.18-1.2,18.34-2.59a1.51,1.51,0,0,0,.9-2.2c-1.92-2.73-5-6.84-4.55-10.36.6-4.74,5.13-6.69,8-9.91a31.11,31.11,0,0,0,7-14,29.08,29.08,0,0,0-10.13-29c-17.32-13.91-45-3.75-47.12,19.11-1.14,12.16,6.23,24.09,17.33,28.91,1.75.76,3.28-1.82,1.51-2.59Z"/><path class="cls-9" d="M190.51,133.75a266.29,266.29,0,0,0,1.18-48.16A7.56,7.56,0,0,0,190,81.17c-2.56-3-3.81-2-5.72-.11-4.61,4.49-3.5,13.15,1.81,16.77s13.32,1.93,17.17-3.21c2.71-3.62,5.93-8.69,4.73-13.06a3.29,3.29,0,0,0-6.07-.56c-1.9,3.64-2.64,8-3,12.2-1,11.32-1.38,28.76,1.31,39.79"/><path class="cls-7" d="M192,133.75a278.57,278.57,0,0,0,1.76-28.88c0-4.82-.08-9.65-.31-14.46-.16-3.45,0-7.13-2.2-10-3.11-4-6.9-2.52-9.43,1.27a13.06,13.06,0,0,0,.08,13.9,12.79,12.79,0,0,0,12.85,5.52c5.91-.86,9.79-5,12.58-10,1.9-3.42,4.37-10.15-.11-12.75-4.81-2.78-7.43,2.91-8.48,6.58-2.12,7.44-2,15.82-2.09,23.49-.09,8.33.23,16.79,2.1,24.94.43,1.88,3.32,1.09,2.89-.79-2.42-10.58-2.28-21.78-1.73-32.56.27-5.25.41-10.79,2.2-15.79l1.07-2.49c2.83.93,3.88,2.32,3.15,4.15-.05,1.5-1.2,3.07-2,4.36-1.69,2.88-3.63,5.42-6.74,6.85-5.7,2.61-12.7.44-14.41-6-.45-1.69-.69-8.41,2.08-9L190,84.4a39.65,39.65,0,0,1,.38,4.08c.11,1.6.17,3.21.23,4.82A273.27,273.27,0,0,1,189,133.75c-.22,1.92,2.78,1.91,3,0Z"/><path class="cls-5" d="M183.71,142.15c-2.36-.54-3.53,3.71-1.87,5.61s4.38,1.93,6.79,1.82l8.32-.4a49.14,49.14,0,0,0,8.64-.86c2.38-.55,7,.24,4.55-7.87a3.07,3.07,0,0,0-3.37-.72"/><path d="M183.71,140.65c-3.87,0-5.28,5-3.16,7.87,1.51,2.07,4.23,2.52,6.61,2.59a119.26,119.26,0,0,0,14.13-.68c3.17-.28,8.91-.23,10.55-3.65,2.08-4.33-.58-9.43-5.47-8.5-1.89.36-1.09,3.26.8,2.89,2.09-.4,2.43,3.11,1.58,4.26s-.49.69-1.5,1.12c-1.65.68-4.39.73-6,.88-2.55.24-5.12.29-7.67.41l-3.33.16c-.79.05-1.59.08-2.39.1-2.23.25-3.62-1.23-4.19-4.45a1.5,1.5,0,0,0,0-3Z"/></g></svg>