<svg xmlns="http://www.w3.org/2000/svg" viewBox="0 0 381.28 380.33"><defs><style>.cls-1{fill:#4386c6;}.cls-2{fill:#8eb6e0;}.cls-3{fill:#ffe9b5;}.cls-4{fill:#ed7d82;}.cls-5{fill:#e1262f;}.cls-6{fill:#ededed;}.cls-7{fill:#fff;}.cls-8{fill:#183e42;}.cls-9{fill:#fac706;}</style></defs><title>Binario mapa conceptual</title><g id="gráficos"><rect class="cls-1" x="4.14" y="3.67" width="373" height="373" rx="23.02" ry="23.02"/><path d="M354.12,375.16H33.62c-7.27,0-14.13.12-20.23-5-7.09-5.91-7.75-13.81-7.75-22.12V63.81c0-12.34-.38-24.75,0-37.09C6.06,13,17,5.17,29.81,5.17h278.9c14.84,0,29.68-.14,44.51,0,12.75.11,22.3,9.5,22.42,22.3,0,4.81,0,9.62,0,14.43V350.79c0,12.86-7.62,24-21.52,24.37-1.93.06-1.93,3.06,0,3,14.41-.43,24.44-11.69,24.52-25.8,0-5.5,0-11,0-16.51V71.73c0-14.8.15-29.62,0-44.42A24.94,24.94,0,0,0,354,2.17c-4-.09-8,0-12.06,0H29.62c-11.38,0-21.84,5.32-25.7,16.72C2.25,23.8,2.64,29.14,2.64,34.26v314.1c0,7.21.37,14,5,20.15,5.85,7.69,14.43,9.65,23.46,9.65h323A1.5,1.5,0,0,0,354.12,375.16Z"/><rect class="cls-2" x="27.63" y="27.15" width="326.03" height="326.03" rx="23.02" ry="23.02"/><path d="M330.64,351.68H74.24c-12,0-30.23,2.95-39.27-6.77-8.71-9.38-5.84-27.12-5.84-38.94V152.58c0-34.08-1.06-68.34,0-102.41.41-13.42,11-21.52,23.74-21.52H293.44c12.23,0,24.5-.3,36.73,0,12.51.31,21.85,9.62,22,22.19.05,4.16,0,8.32,0,12.48V328.13c0,12.66-8.23,23.15-21.51,23.55-1.93.06-1.94,3.06,0,3,14-.42,24.37-11.28,24.51-25.19.05-4.31,0-8.63,0-12.94v-227c0-12.94.25-25.89,0-38.82-.26-13.81-10.57-24.68-24.52-25-3-.08-6,0-8.95,0h-269c-9.9,0-19.11,4.13-23.83,13.3-2.72,5.29-2.71,10.73-2.71,16.43V325.53c0,6.4.33,12.5,4,18.12,5.26,8,13.78,11,22.9,11H330.64A1.5,1.5,0,0,0,330.64,351.68Z"/><path class="cls-3" d="M279.81,241.88c-.23,14.83,2.35,48.71-22.33,59.36-5,2.14-10.75,1.23-16.08,1.23H177.62c-15,0-30.06.3-45.07,0-14.46-.28-24.5-12.61-28.12-25.64-1.76-6.33-1.74-12.63-1.74-19.1V191.41c0-17.41-1-36.45,14.12-48.73,6-4.92,12.74-5.78,20.12-5.78h92.52c6.42,0,12.85,0,19.27,0,10.5.06,19.07,5.65,24.53,14.54,4.49,7.29,6.43,24.55,6.56,33.06.16,11.07,17.41,11.1,17.25,0-.29-18.95-3.9-44.91-24.09-57.75-8.45-5.37-17.67-7.07-27.4-7.07H181c-16.15,0-32.35-.33-48.5,0-18.23.38-33.64,12.33-41.07,28.61-4.5,9.85-6,20.18-6,30.89v71.68c0,4.33-.06,8.67,0,13,.23,18.44,7.63,36.91,22.92,47.93s36.5,7.9,54.26,7.9h71.94c5.14,0,10.29.11,15.43,0,17.62-.36,32.8-11.57,40.41-27.17,4.4-9,6.51-40.65,6.66-50.64.16-11.09-17.09-11.09-17.25,0Z"/><path d="M278.31,241.88c-.19,15.78.85,33.44-8.41,47.15a29.86,29.86,0,0,1-9.83,9.24c-6.49,3.75-13.5,2.73-20.66,2.7-15.28-.05-30.56,0-45.84,0-14.46,0-28.92.11-43.39.13-13.46,0-26.94,1.51-36.53-9.71-8.69-10.17-9.46-22.81-9.46-35.59V229.06c0-15.88-.22-31.78,0-47.65.17-11.69,1.36-24.22,9.32-33.46,9.61-11.15,23.09-9.55,36.43-9.55q43.61,0,87.21,0c6.47,0,13.41-.75,19.66,1.31A28.32,28.32,0,0,1,272,152.19c4.9,8.3,5.76,19.77,6.25,29.18.32,6.24,1.81,12.08,9.11,12.87A9.8,9.8,0,0,0,298.54,185c.64-8.75-1-18.56-3.14-27-2.35-9.23-6.39-18.17-12.89-25.23a45.76,45.76,0,0,0-28.1-14c-13.75-1.79-28.26-.55-42.11-.55-14.31,0-28.63,0-42.94,0-13.68-.09-28.06-1.35-41.64.41-21.47,2.78-37,20.7-41.72,41-2.84,12.13-2.06,24.78-2.06,37.14V237.3c0,11.94-1,24.31.77,36.15,3.1,21.24,16.78,41.54,38.63,46.4,11.4,2.54,23.2,1.64,34.77,1.4,14.48-.3,29-.06,43.47-.06,14.85,0,29.71.12,44.55.05,10.85-.06,20.85-2.44,29.72-8.94,7-5.11,13.36-12.48,16.54-20.62,2.93-7.51,3.59-16.15,4.43-24.11s1.59-16.22,1.71-24.34c.09-6-3.11-10.94-9.56-11.16-6-.2-10.28,4-10.66,9.81-.13,1.92,2.87,1.91,3,0a7.15,7.15,0,0,1,8.91-6.66c4.6,1,5.41,4.73,5.29,8.77-.24,7.87-.85,15.75-1.69,23.58s-1.43,16.46-4.52,23.76c-4.14,9.77-12.69,18.17-22.17,22.74-11.45,5.51-24.24,4.12-36.57,4.12h-44c-12.61,0-25.2,0-37.81.31-11.76.28-24.35.33-35.07-5.19S95.1,297.19,91,286c-4.23-11.43-4-23.13-4-35.13q0-22,0-43.92c0-21.89-3-46.35,10-65.44a46.2,46.2,0,0,1,25.95-19c6-1.6,12.18-1.43,18.34-1.48,7.44-.06,14.87,0,22.31,0,27.34.18,54.7-.23,82,.08,13.13.15,25.7,3.81,34.81,13.72,6.76,7.35,10.6,16.83,12.74,26.46a101.54,101.54,0,0,1,2,14.21c.29,3.79,1.55,10-.92,13.18-2.29,2.95-7,3.35-10.06,1.3-3.85-2.61-2.89-8.25-3.24-12.31-1.46-17.4-6.27-37.38-26-41.66-5.14-1.12-10.59-.7-15.82-.69H175.75c-13.45,0-26.94-.32-40.39,0-10.05.25-18.49,3.55-24.89,11.53-12.51,15.6-9.28,39.09-9.28,57.68v36.06c0,19.93-2.59,43.71,15.2,57.45,8.35,6.44,17.86,5.93,27.91,6,13.77,0,27.53-.13,41.3-.13h43.85c10.38,0,22.74,2.31,32.13-3.11,13.89-8,18.21-24.42,19.32-39.37.49-6.53.33-13.07.41-19.61A1.5,1.5,0,0,0,278.31,241.88Z"/><path class="cls-4" d="M130.88,208.47H64.72V179.54a6,6,0,0,1,6-6h54.12a6,6,0,0,1,6,6Z"/><path d="M130.88,207H64.72l1.5,1.5V183.34c0-4,0-7.61,5.1-8.31,2.89-.4,6.12,0,9,0h42.51a13.22,13.22,0,0,1,2,0c3.61.57,4.29,2.87,4.54,5.76.8,9.07,0,18.56,0,27.68a1.5,1.5,0,0,0,3,0c0-9.29.24-18.61,0-27.9s-8.1-8.54-14.89-8.54H81.94c-6.79,0-17.85-2.07-18.72,7.51s0,19.4,0,28.93a1.52,1.52,0,0,0,1.5,1.5h66.16A1.5,1.5,0,0,0,130.88,207Z"/><path class="cls-5" d="M124.75,289.66H70.85a6.13,6.13,0,0,1-6.13-6.12V219.28h66.16v64.26A6.12,6.12,0,0,1,124.75,289.66Z"/><path d="M124.75,288.16H73.56c-3.6,0-6.78-.45-7.34-5.11a69.75,69.75,0,0,1,0-7.92V219.28l-1.5,1.5h66.16l-1.5-1.5v55.14c0,4.26,1.62,13.11-4.63,13.74-1.9.19-1.92,3.2,0,3,6.65-.67,7.63-5.75,7.63-11.25V219.28a1.51,1.51,0,0,0-1.5-1.5H64.72a1.52,1.52,0,0,0-1.5,1.5v55.85c0,6.4-1.26,15.36,7.66,16,8.37.63,17,0,25.43,0h28.44A1.5,1.5,0,0,0,124.75,288.16Z"/><rect class="cls-6" x="64.72" y="208.47" width="66.16" height="10.81"/><path d="M130.88,217.78H64.72l1.5,1.5V208.47l-1.5,1.5h66.16l-1.5-1.5v10.81a1.5,1.5,0,0,0,3,0V208.47a1.52,1.52,0,0,0-1.5-1.5H64.72a1.52,1.52,0,0,0-1.5,1.5v10.81a1.52,1.52,0,0,0,1.5,1.5h66.16A1.5,1.5,0,0,0,130.88,217.78Z"/><path d="M106.23,161.54H89.37a6.25,6.25,0,0,0-6.26,6.25V172H112.5v-4.22A6.26,6.26,0,0,0,106.23,161.54Z"/><path d="M106.23,160c-5.45,0-11-.25-16.4,0-7.27.34-8.22,6-8.22,12a1.52,1.52,0,0,0,1.5,1.5H112.5A1.52,1.52,0,0,0,114,172c0-5.86-.77-11.27-7.77-12-1.92-.19-1.9,2.81,0,3,5,.5,4.77,5.29,4.77,9l1.5-1.5H83.11l1.5,1.5c0-3.34-.42-6.58,3.08-8.27,2-1,3.78-.7,5.92-.7h12.62A1.5,1.5,0,0,0,106.23,160Z"/><polygon class="cls-7" points="107.48 187.28 100.64 187.28 100.64 180.45 94.97 180.45 94.97 187.28 88.13 187.28 88.13 192.94 94.97 192.94 94.97 199.77 100.64 199.77 100.64 192.94 107.48 192.94 107.48 187.28"/><path d="M107.48,185.78h-6.84l1.5,1.5v-6.83a1.52,1.52,0,0,0-1.5-1.5H95a1.52,1.52,0,0,0-1.5,1.5v6.83l1.5-1.5H88.12a1.52,1.52,0,0,0-1.5,1.5v5.66a1.52,1.52,0,0,0,1.5,1.5H95l-1.5-1.5v6.83a1.52,1.52,0,0,0,1.5,1.5h5.67a1.52,1.52,0,0,0,1.5-1.5v-6.83l-1.5,1.5h6.84a1.52,1.52,0,0,0,1.5-1.5v-5.66a1.5,1.5,0,0,0-3,0v5.66l1.5-1.5h-6.84a1.52,1.52,0,0,0-1.5,1.5v6.83l1.5-1.5H95l1.5,1.5v-6.83a1.52,1.52,0,0,0-1.5-1.5H88.12l1.5,1.5v-5.66l-1.5,1.5H95a1.52,1.52,0,0,0,1.5-1.5v-6.83L95,182h5.67l-1.5-1.5v6.83a1.52,1.52,0,0,0,1.5,1.5h6.84A1.5,1.5,0,0,0,107.48,185.78Z"/><polygon class="cls-7" points="107.48 273.43 100.64 273.43 94.97 273.43 88.13 273.43 88.13 279.09 94.97 279.09 100.64 279.09 107.48 279.09 107.48 273.43"/><path d="M107.48,271.93H88.12a1.52,1.52,0,0,0-1.5,1.5v5.66a1.52,1.52,0,0,0,1.5,1.5h19.36a1.52,1.52,0,0,0,1.5-1.5v-5.66a1.5,1.5,0,0,0-3,0v5.66l1.5-1.5H88.12l1.5,1.5v-5.66l-1.5,1.5h19.36A1.5,1.5,0,0,0,107.48,271.93Z"/><path class="cls-4" d="M267.35,208.27c-3.62-8-1.06-17.06,6.72-23.74a24.33,24.33,0,0,1,13.27-5.93c6.8-.7,13.7,1.9,17.55,5.56s5.11,8.22,5.37,12.64-.4,8.85,0,13.26c-16.19,0-24.9,0-41.09.12"/><path d="M268.8,207.87c-5.22-12.85,5.67-26.46,18.78-27.73,7.2-.7,15.34,2.18,19.06,8.7,3.61,6.34,1.69,14.3,2.16,21.22l1.5-1.5q-20.55,0-41.09.12a1.5,1.5,0,0,0,0,3q20.55-.09,41.09-.12a1.52,1.52,0,0,0,1.5-1.5c-.59-8.74,1.62-18-4.43-25.4-4.71-5.75-13-8.29-20.23-7.53-14.72,1.55-27.12,17.05-21.23,31.54.71,1.76,3.62,1,2.89-.8Z"/><path class="cls-5" d="M255.51,220.06,254.44,203a511.86,511.86,0,0,0,64.6.78l-2.1,17.36a1.55,1.55,0,0,1-.67,1.29,4,4,0,0,1-2.1.26l-60.31-3,3.43.33"/><path d="M257,220.06,255.94,203l-1.5,1.5a527.43,527.43,0,0,0,64.6.78l-1.5-1.5-1.17,9.65a30.67,30.67,0,0,1-.58,4.82c-.82,2.75-1.34,2.43-3.56,2.85-2.86.54-6.79-.34-9.73-.48l-9.73-.48-38.91-1.92c-2-.1-1.89,2.81,0,3l3.43.33c1.92.19,1.91-2.81,0-3l-3.43-.33v3l48.64,2.4c3.84.19,7.84.76,11.67.57,1.5-.07,2.63-.08,3.67-1.29s.87-4,1.06-5.62l1.64-13.5a1.51,1.51,0,0,0-1.5-1.5,527.43,527.43,0,0,1-64.6-.78,1.5,1.5,0,0,0-1.5,1.5L254,220.06c.12,1.92,3.12,1.93,3,0Z"/><path class="cls-4" d="M309.37,231.11c3.86,7.78,1.57,16.78-6,23.59a24.46,24.46,0,0,1-13.09,6.24c-6.78.9-13.75-1.45-17.71-4.95s-5.35-7.93-5.74-12.28.13-8.73-.44-13.07c16.18-.49,24.89-.79,41.07-1.36"/><path d="M308.08,231.87c5.82,13-6.39,26.94-19.5,27.73-6.58.4-14.35-2.23-17.87-8.14-3.72-6.23-2.14-13.94-2.82-20.82l-1.5,1.5q20.53-.63,41.07-1.36c1.92-.07,1.93-3.07,0-3q-20.54.72-41.07,1.36a1.52,1.52,0,0,0-1.5,1.5c.84,8.44-1.06,17.56,4.87,24.59,4.92,5.83,13.53,8.22,20.92,7.16,14.73-2.13,26.41-17.7,20-32-.79-1.75-3.38-.23-2.59,1.52Z"/><path class="cls-5" d="M317.12,219.25,318.7,236a519.62,519.62,0,0,0-64.59,1.19L255.69,220a1.51,1.51,0,0,1,.63-1.29,4.14,4.14,0,0,1,2.09-.33l60.37,1.12-3.43-.23"/><path d="M315.62,219.25,317.2,236l1.5-1.5a535.43,535.43,0,0,0-64.59,1.19l1.5,1.5.88-9.54a30.11,30.11,0,0,1,.44-4.77c.72-2.77,1.23-2.45,3.43-2.94,2.83-.63,6.79.13,9.73.18l9.74.18,38.95.72c2,0,1.91-2.88,0-3l-3.43-.23c-1.93-.13-1.92,2.87,0,3l3.43.23v-3l-48.69-.9c-3.84-.07-7.85-.51-11.68-.22-1.49.12-2.63.14-3.64,1.36s-.78,3.93-.93,5.57l-1.23,13.36a1.51,1.51,0,0,0,1.5,1.5,535.43,535.43,0,0,1,64.59-1.19,1.5,1.5,0,0,0,1.5-1.5l-1.58-16.76c-.17-1.91-3.18-1.93-3,0Z"/><path class="cls-8" d="M181.57,135.7c-2.79-.23-3.64,4.13-1.49,5.82s5.3,1.36,8.08.94l9.59-1.44a66.15,66.15,0,0,0,9.9-2c2.7-.84,8.11-.64,4.34-8.39a4.06,4.06,0,0,0-4-.29"/><path d="M181.57,134.2a4.79,4.79,0,0,0-2.55,8.38c2.07,1.91,5.36,1.8,7.92,1.54,4.85-.48,9.73-1.37,14.53-2.16,3.36-.56,11-1.07,12.83-4.78a5.75,5.75,0,0,0-6.7-8.23,1.5,1.5,0,0,0,.8,2.89c4.17-1.16,3.64,3.89,2,5a8.1,8.1,0,0,1-1.64.45,42.82,42.82,0,0,1-6.42,1.53c-2.93.55-5.89.93-8.84,1.37-1.91.29-3.83.62-5.75.86l-2.45.26q-3.42.63-3.74-4.07c1.89-.22,1.92-3.22,0-3Z"/><path class="cls-9" d="M182.43,114.76c-11.12-4.46-18.25-17.14-16.4-29s12.41-21.71,24.34-22.88,24.15,6.38,28.57,17.52.77,24.93-8.51,32.51a18.26,18.26,0,0,0-4.15,3.93c-3,4.66.33,10.68,3.58,15.17q-11.31,1.74-22.67,3.14c-1.56.19-3.31.33-4.52-.67a5.48,5.48,0,0,1-1.54-3.35c-.74-4.06.61-12.32,1.3-16.38"/><path d="M183.19,113.46c-13.06-5.67-20.05-21.68-13.28-34.73a26,26,0,0,1,35.56-11.11,26.67,26.67,0,0,1,10.09,36.91,28.46,28.46,0,0,1-6.19,7.33c-2.06,1.78-4.21,3.25-5.21,5.89-2,5.26,1.51,10.9,4.4,15l.9-2.2q-5.66.85-11.32,1.65c-3.59.49-10.5,2.65-13.71.65-4.32-2.69-1.28-13.38-.55-17.72.32-1.89-2.57-2.7-2.89-.8-.91,5.37-4.26,16.9.62,21.19,2.66,2.33,7.28.9,10.31.51q9.18-1.2,18.34-2.59a1.51,1.51,0,0,0,.9-2.2c-1.92-2.73-5-6.84-4.55-10.36.6-4.74,5.13-6.69,8-9.91a31.11,31.11,0,0,0,7-14,29.08,29.08,0,0,0-10.13-29c-17.32-13.91-45-3.75-47.12,19.11-1.14,12.16,6.23,24.09,17.33,28.91,1.75.76,3.28-1.82,1.51-2.59Z"/><path class="cls-9" d="M190.51,133.75a266.29,266.29,0,0,0,1.18-48.16A7.56,7.56,0,0,0,190,81.17c-2.56-3-3.81-2-5.72-.11-4.61,4.49-3.5,13.15,1.81,16.77s13.32,1.93,17.17-3.21c2.71-3.62,5.93-8.69,4.73-13.06a3.29,3.29,0,0,0-6.07-.56c-1.9,3.64-2.64,8-3,12.2-1,11.32-1.38,28.76,1.31,39.79"/><path d="M192,133.75a278.57,278.57,0,0,0,1.76-28.88c0-4.82-.08-9.65-.31-14.46-.16-3.45,0-7.13-2.2-10-3.11-4-6.9-2.52-9.43,1.27a13.06,13.06,0,0,0,.08,13.9,12.79,12.79,0,0,0,12.85,5.52c5.91-.86,9.79-5,12.58-10,1.9-3.42,4.37-10.15-.11-12.75-4.81-2.78-7.43,2.91-8.48,6.58-2.12,7.44-2,15.82-2.09,23.49-.09,8.33.23,16.79,2.1,24.94.43,1.88,3.32,1.09,2.89-.79-2.42-10.58-2.28-21.78-1.73-32.56.27-5.25.41-10.79,2.2-15.79l1.07-2.49c2.83.93,3.88,2.32,3.15,4.15-.05,1.5-1.2,3.07-2,4.36-1.69,2.88-3.63,5.42-6.74,6.85-5.7,2.61-12.7.44-14.41-6-.45-1.69-.69-8.41,2.08-9L190,84.4a39.65,39.65,0,0,1,.38,4.08c.11,1.6.17,3.21.23,4.82A273.27,273.27,0,0,1,189,133.75c-.22,1.92,2.78,1.91,3,0Z"/><path d="M152.76,93.94A27.53,27.53,0,0,1,140,95.51c-1.92-.21-1.9,2.79,0,3a29.62,29.62,0,0,0,13.61-1.68c1.79-.67,1-3.57-.8-2.89Z"/><path d="M165.85,63.26a25.82,25.82,0,0,1-8.16-9.09c-.92-1.7-3.51-.18-2.59,1.51a29.09,29.09,0,0,0,9.24,10.17c1.59,1.1,3.1-1.5,1.51-2.59Z"/><path d="M193.79,52.33l-1.12-14.28c-.15-1.91-3.15-1.93-3,0l1.12,14.28c.15,1.91,3.15,1.93,3,0Z"/><path d="M222.65,62.33,229.06,51a1.5,1.5,0,0,0-2.59-1.51l-6.41,11.31a1.5,1.5,0,0,0,2.59,1.52Z"/><path d="M232.47,91.18l9.37-1.82c1.89-.37,1.09-3.26-.8-2.9l-9.37,1.83c-1.89.37-1.09,3.26.8,2.89Z"/><path class="cls-8" d="M183.71,142.15c-2.36-.54-3.53,3.71-1.87,5.61s4.38,1.93,6.79,1.82l8.32-.4a49.14,49.14,0,0,0,8.64-.86c2.38-.55,7,.24,4.55-7.87a3.07,3.07,0,0,0-3.37-.72"/><path d="M183.71,140.65c-3.87,0-5.28,5-3.16,7.87,1.51,2.07,4.23,2.52,6.61,2.59a119.26,119.26,0,0,0,14.13-.68c3.17-.28,8.91-.23,10.55-3.65,2.08-4.33-.58-9.43-5.47-8.5-1.89.36-1.09,3.26.8,2.89,2.09-.4,2.43,3.11,1.58,4.26s-.49.69-1.5,1.12c-1.65.68-4.39.73-6,.88-2.55.24-5.12.29-7.67.41l-3.33.16c-.79.05-1.59.08-2.39.1-2.23.25-3.62-1.23-4.19-4.45a1.5,1.5,0,0,0,0-3Z"/></g></svg>