<svg xmlns="http://www.w3.org/2000/svg" xmlns:xlink="http://www.w3.org/1999/xlink" viewBox="0 0 381.28 380.33"><defs><style>.cls-1{fill:#4386c6;}.cls-2{fill:#8eb6e0;}.cls-3{fill:#183e41;}.cls-4{fill:#fac706;}.cls-5{fill:#183e42;}.cls-6{fill:#e52f32;}.cls-7,.cls-9{fill:#fff;}.cls-8{fill:#1ea752;}.cls-9{fill-rule:evenodd;}.cls-10{fill:#e62e5b;}.cls-11{fill:#00a7bc;}.cls-12{fill:url(#Degradado_sin_nombre_2);}</style><linearGradient id="Degradado_sin_nombre_2" x1="231.88" y1="279.3" x2="342.66" y2="184.97" gradientUnits="userSpaceOnUse"><stop offset="0" stop-color="#ffdf86"/><stop offset="0.21" stop-color="#f9b643"/><stop offset="0.38" stop-color="#e95478"/><stop offset="0.52" stop-color="#e83d8d"/><stop offset="0.74" stop-color="#7b4895"/><stop offset="1" stop-color="#4e539e"/></linearGradient></defs><title>Binario mapa conceptual</title><g id="gráficos"><rect class="cls-1" x="4.14" y="3.67" width="373" height="373" rx="23.02" ry="23.02"/><path d="M354.12,375.17H33.62c-7.27,0-14.13.11-20.23-5-7.09-5.91-7.75-13.81-7.75-22.12V63.81c0-12.34-.38-24.75,0-37.09C6.06,13,17,5.17,29.81,5.17h278.9c14.84,0,29.68-.14,44.51,0,12.75.11,22.3,9.5,22.42,22.3,0,4.81,0,9.62,0,14.43V350.79c0,12.86-7.62,24-21.52,24.38-1.93.05-1.93,3.05,0,3,14.41-.44,24.44-11.7,24.52-25.81,0-5.5,0-11,0-16.51V71.73c0-14.8.15-29.62,0-44.42A24.94,24.94,0,0,0,354,2.17c-4-.09-8,0-12.06,0H29.62c-11.38,0-21.84,5.32-25.7,16.72C2.25,23.8,2.64,29.14,2.64,34.26v314.1c0,7.21.37,14,5,20.15,5.85,7.69,14.43,9.66,23.46,9.66h323A1.5,1.5,0,0,0,354.12,375.17Z"/><rect class="cls-2" x="27.63" y="27.15" width="326.03" height="326.03" rx="23.02" ry="23.02"/><path d="M330.64,351.68H74.24c-12,0-30.23,2.95-39.27-6.77-8.71-9.38-5.84-27.12-5.84-38.94V152.58c0-34.08-1.06-68.34,0-102.41.41-13.42,11-21.52,23.74-21.52H293.44c12.23,0,24.5-.3,36.73,0,12.51.31,21.85,9.62,22,22.19.05,4.16,0,8.32,0,12.48V328.13c0,12.66-8.23,23.15-21.51,23.55-1.93.06-1.94,3.06,0,3,14-.42,24.37-11.28,24.51-25.19.05-4.31,0-8.63,0-12.94v-227c0-12.94.25-25.89,0-38.82-.26-13.81-10.57-24.68-24.52-25-3-.08-6,0-8.95,0h-269c-9.9,0-19.11,4.13-23.83,13.3-2.72,5.29-2.71,10.73-2.71,16.43V325.53c0,6.4.33,12.5,4,18.12,5.26,8,13.78,11,22.9,11H330.64A1.5,1.5,0,0,0,330.64,351.68Z"/><path class="cls-3" d="M318.41,104c3.73-.05,5.51,6,6.29,8.7a32.44,32.44,0,0,1,1.22,9.85c-.07,3.21,4.93,3.21,5,0,.14-7.57-2.27-23.7-12.51-23.55-3.22,0-3.23,5,0,5Z"/><path class="cls-3" d="M248.8,138.23c-.1,7.64.07,15.28.6,22.9.13,1.91.29,3.81.46,5.71.06.59.06,4.6.75,3.52-.73,1.14-9.82,1.62-11.11,1.83l1.33,4.82,1.91-.38c3.15-.62,1.81-5.44-1.33-4.82l-1.91.38c-3.19.63-1.8,5.34,1.33,4.82,3.35-.55,10.17-.34,12.86-2.54,2.13-1.74,1.5-4.23,1.26-6.67a275.48,275.48,0,0,1-1.15-29.57c0-3.22-5-3.22-5,0Z"/><path class="cls-3" d="M288.9,141.59c-.58,8.88-1.6,17.86-1.77,26.76-.11,6.31,5.22,8.23,10.71,9.66,3.11.82,4.44-4,1.33-4.82-2.08-.54-5.74-1.26-6.83-3.26s.18-7.36.32-9.51l1.24-18.83c.22-3.21-4.79-3.2-5,0Z"/><path class="cls-4" d="M272,141.32A44.37,44.37,0,1,1,316.33,97,44.42,44.42,0,0,1,272,141.32Z"/><path class="cls-5" d="M272,136.32c-16.33-.25-31.45-10.34-37-25.93A39.37,39.37,0,0,1,292,63.08c14.12,8.36,21.92,25.32,18.6,41.47A39.9,39.9,0,0,1,272,136.32c-6.42.1-6.44,10.1,0,10a50.12,50.12,0,0,0,46.44-32.64c7.19-19.48.67-42.16-15.46-55.1a49.33,49.33,0,0,0-79.4,48c4.37,23.07,25.3,39.41,48.42,39.77C278.4,146.42,278.4,136.42,272,136.32Z"/><path class="cls-6" d="M272,141.32A44.37,44.37,0,1,1,316.33,97,44.42,44.42,0,0,1,272,141.32Z"/><path class="cls-7" d="M292.9,86a11.39,11.39,0,0,0-11.39-11.39H252A11.39,11.39,0,0,0,240.56,86V99.86A11.39,11.39,0,0,0,252,111.26h29.56a11.39,11.39,0,0,0,11.39-11.4Zm-18.65,7.63-11.78,6.46c-.51.28-1-.09-1-.68V86.16c0-.59.47-1,1-.67l11.87,6.8A.78.78,0,0,1,274.25,93.64Z"/><path class="cls-3" d="M259.21,118.41c9,0,9-14,0-14s-9,14,0,14Z"/><path class="cls-3" d="M288.94,118.41c9,0,9-14,0-14s-9,14,0,14Z"/><path class="cls-3" d="M274.65,133.59h-.43c-3.57-.18-6.92-2.76-8.56-6.56a2.16,2.16,0,1,1,4-1.71c1,2.27,2.91,3.86,4.82,4a5.7,5.7,0,0,0,4.86-3.34,2.15,2.15,0,1,1,3.86,1.91A9.76,9.76,0,0,1,274.65,133.59Z"/><path class="cls-3" d="M223.88,94.17c-10.73.22-18.06,15-20.64,23.76-.91,3.1,3.91,4.42,4.82,1.33a39.33,39.33,0,0,1,5.29-11.35c2.28-3.29,6.11-8.65,10.53-8.74,3.21-.06,3.22-5.06,0-5Z"/><path class="cls-3" d="M72.45,292.88l-3.61,21,3.39-2.67-8.8-.71c-3.91-.31-4.64,5.76-.71,6.07l8.8.7a3.12,3.12,0,0,0,3.39-2.67l3.61-21c.66-3.88-5.41-4.58-6.07-.71Z"/><path class="cls-4" d="M108,306.51a49.33,49.33,0,1,1,54.76-43.23A49.38,49.38,0,0,1,108,306.51Z"/><path class="cls-5" d="M108.71,300.44c-17.87-2.41-33-15.4-37.08-33.21a43.24,43.24,0,1,1,37.08,33.21c-7.82-.79-9.27,11.35-1.43,12.14a56.27,56.27,0,0,0,55.8-29.81c10.65-20.42,6.91-46.48-8.94-63.16s-41.22-22.24-62.56-12.89a56.09,56.09,0,0,0-33.07,55.12c1.81,26.34,23,47.27,48.77,50.74C115.08,313.63,116.51,301.49,108.71,300.44Z"/><path class="cls-8" d="M108,306.51a49.33,49.33,0,1,1,54.76-43.23A49.38,49.38,0,0,1,108,306.51Z"/><path class="cls-9" d="M119.82,225.9A29.78,29.78,0,0,0,89.6,268.59L84,278a2.6,2.6,0,0,0,1.92,3.93,2.28,2.28,0,0,0,.69,0l12.78-1.94a29.78,29.78,0,1,0,20.48-54Zm-6.35,54a24.57,24.57,0,0,1-11.9-4.77,2.56,2.56,0,0,0-1.26-.5,2.35,2.35,0,0,0-.7,0l-8.35,1.27L94.81,270a2.62,2.62,0,0,0,0-2.61,24.57,24.57,0,1,1,18.61,12.48Z"/><path class="cls-9" d="M127.19,261.25c-1.15-.89-2.67-1.91-4.19-1.48-1.18.33-2.1,2-2.93,2.8a1.07,1.07,0,0,1-1.42.14,19.61,19.61,0,0,1-8.76-9.49,1.2,1.2,0,0,1,.34-1.61,6.68,6.68,0,0,0,2.11-2.67,6.34,6.34,0,0,0-.39-3.49c-.44-1.34-.89-3.22-2.07-4.08a3.44,3.44,0,0,0-3.8.12,7.63,7.63,0,0,0-3.34,5.69,9,9,0,0,0,0,1.94,15.73,15.73,0,0,0,1.33,4.43,33.87,33.87,0,0,0,1.57,3.13,29.53,29.53,0,0,0,7.38,8.66,25.44,25.44,0,0,0,4.87,3.07c2,.9,3.67,1.81,5.9,1.65a7.31,7.31,0,0,0,5.93-3.41,3.51,3.51,0,0,0,.5-2C130.09,263.15,128.26,262.07,127.19,261.25Z"/><path class="cls-3" d="M94.77,282.4c8,.94,9.45-11.46,1.46-12.4s-9.45,11.46-1.46,12.4Z"/><path class="cls-3" d="M121.1,285.49c8,.94,9.45-11.46,1.46-12.4s-9.45,11.46-1.46,12.4Z"/><path class="cls-3" d="M106.86,297.46c-.13,0-.26,0-.38-.06a9.2,9.2,0,0,1-6.9-6.71,1.91,1.91,0,0,1,1.29-2.39,1.94,1.94,0,0,1,2.4,1.3,5.47,5.47,0,0,0,3.86,4,5.05,5.05,0,0,0,4.64-2.45,1.92,1.92,0,0,1,3.23,2.09A8.72,8.72,0,0,1,106.86,297.46Z"/><path class="cls-7" d="M100.72,287.66l13.91,1.64s.47,9.58-9.55,8.41C99.18,297,100.72,287.66,100.72,287.66Z"/><path class="cls-3" d="M100.55,289.18l13.9,1.63-1.33-1.28c0-.59,0,.46-.05.67a10,10,0,0,1-.42,2.1,5.57,5.57,0,0,1-4.67,3.89c-3.31.52-5.28-.73-5.78-4a14.49,14.49,0,0,1,0-4.36c.31-1.94-2.73-2.3-3-.36a15.52,15.52,0,0,0,.39,7c1.22,3.81,4.4,5.12,8.22,4.79,5.34-.46,8.52-5.07,8.32-10.21a1.53,1.53,0,0,0-1.33-1.29l-13.91-1.64A1.53,1.53,0,0,0,100.55,289.18Z"/><path class="cls-3" d="M124,307.58l-5.37,17.91a3.13,3.13,0,0,0,1,3.59l5,3.07c3.33,2.05,7-2.82,3.68-4.88l-5-3.07,1,3.59,5.37-17.91c1.12-3.74-4.53-6.07-5.66-2.3Z"/><path class="cls-3" d="M64.7,241.36a33.34,33.34,0,0,1-4.65-23.15c.59-3.89-5.48-4.6-6.07-.72a39.83,39.83,0,0,0,5.92,27.66c2.09,3.33,6.87-.49,4.8-3.79Z"/><path class="cls-3" d="M158.11,279.77a23.33,23.33,0,0,0,27.58-6.43c2.53-3-2.36-6.68-4.88-3.68a17.11,17.11,0,0,1-20.4,4.45c-3.59-1.64-5.87,4-2.3,5.66Z"/><rect class="cls-4" x="66.71" y="53.58" width="104.97" height="104.97" rx="52.48" ry="52.48"/><path class="cls-5" d="M119.2,153.54c-19.74,0-38.17-12.75-44.73-31.47a48.07,48.07,0,0,1,14-52.24C103.52,56.91,125.88,55,143,65a47.47,47.47,0,0,1-23.77,88.59c-6.43.09-6.45,10.09,0,10a58.26,58.26,0,0,0,54.37-38.81c7.85-22.43.33-48.3-18.09-63.21C136.79,46.37,109.84,44.35,89.25,57a58.16,58.16,0,0,0-26.48,60c4.92,26.71,29.41,46.57,56.43,46.57C125.63,163.54,125.64,153.54,119.2,153.54Z"/><rect class="cls-7" x="66.71" y="53.58" width="104.97" height="104.97" rx="52.48" ry="52.48"/><path class="cls-10" d="M136.54,81.71a15.86,15.86,0,0,1-15.86-15.86H108.79v46a9.7,9.7,0,1,1-9.7-9.7,11,11,0,0,1,3.06.44V90.51a22,22,0,0,0-3.06-.21,21.59,21.59,0,1,0,21.59,21.59V87.52a25,25,0,0,0,15.86,5.64Z"/><path class="cls-11" d="M133.17,78.34a15.86,15.86,0,0,1-15.86-15.86H105.42v46a9.7,9.7,0,1,1-9.7-9.7,11,11,0,0,1,3.06.44V87.14a22,22,0,0,0-3.06-.21,21.59,21.59,0,1,0,21.59,21.59V84.15a25,25,0,0,0,15.86,5.64Z"/><path d="M133.17,81.35a15.88,15.88,0,0,1-9.4-6.1,15.88,15.88,0,0,1-6.1-9.4h-8.88v46a9.69,9.69,0,0,1-18,5,9.69,9.69,0,0,1,5-18,11,11,0,0,1,3.06.44v-9a21.59,21.59,0,0,0-16.54,35.07,21.59,21.59,0,0,0,35.07-16.85V84.15a25,25,0,0,0,15.86,5.64Z"/><path class="cls-3" d="M156.78,121.76c-9,0-9-13.92,0-13.92s9,13.92,0,13.92Z"/><path class="cls-3" d="M131.22,120.76c-9,0-9-13.92,0-13.92s9,13.92,0,13.92Z"/><path class="cls-7" d="M152.69,129.28l-16.55-4.13s-4.26,18.46,11,14.67C152.37,138.52,152.69,129.28,152.69,129.28Z"/><path class="cls-3" d="M153,128.08l-16.56-4.14a1.26,1.26,0,0,0-1.53.88c-1.12,4.94-1.3,12.35,3.52,15.45,3.3,2.12,9.09,1.83,11.94-.94,2.53-2.48,3.4-6.63,3.54-10.05.07-1.61-2.43-1.6-2.5,0-.11,2.56-.69,5.66-2.32,7.7-2.26,2.84-8.18,3-10.53.07s-2-8-1.24-11.57l-1.54.88,16.55,4.13C153.92,130.88,154.59,128.47,153,128.08Z"/><path class="cls-3" d="M91.07,156.38a83.55,83.55,0,0,1-1.5,18.2,2.61,2.61,0,0,0,1.75,3.08,37.85,37.85,0,0,0,10.75,2.47c3.2.29,3.18-4.71,0-5a33.21,33.21,0,0,1-9.42-2.29l1.75,3.07a90.77,90.77,0,0,0,1.67-19.53c-.08-3.22-5.08-3.23-5,0Z"/><path class="cls-3" d="M127.15,160.33l-.19,7.76c0,2-.62,4.82.08,6.79a3.9,3.9,0,0,0,2.89,2.33c2.7.75,5.69,1,8.45,1.5,3.15.56,4.5-4.26,1.33-4.82l-5.44-1a8.7,8.7,0,0,1-2.41-.42c-.61-.37-.21.23,0-1.43.5-3.46.18-7.25.26-10.74.08-3.22-4.92-3.22-5,0Z"/><path class="cls-3" d="M66.76,87.09c-5.85-1-19.09-18-10.52-21.88,2.92-1.34.39-5.65-2.52-4.32-6.1,2.79-6.19,10.35-3.59,15.66,2.8,5.7,8.64,14.2,15.3,15.36,3.14.54,4.5-4.28,1.33-4.82Z"/><path class="cls-3" d="M173.2,121.27a18.87,18.87,0,0,1,11.44,18.11c-.11,3.22,4.89,3.22,5,0A23.71,23.71,0,0,0,175.72,117c-2.91-1.29-5.46,3-2.52,4.32Z"/><path class="cls-3" d="M271.37,295.31q-.66,13.05-1.05,26.13a3.31,3.31,0,0,0,3.27,3.27c2.21,0,4.4,0,6.6.18,4.2.27,4.19-6.27,0-6.54-2.2-.15-4.39-.2-6.6-.18l3.27,3.27q.39-13.08,1.05-26.13c.22-4.21-6.32-4.2-6.54,0Z"/><path class="cls-3" d="M251.54,292.77l-2.4,28.07,2.4-3.15a49.39,49.39,0,0,1-11.39.49c-4.2-.27-4.19,6.27,0,6.54a57.07,57.07,0,0,0,13.12-.72c1.49-.25,2.29-1.82,2.41-3.16l2.4-28.07c.36-4.19-6.18-4.16-6.54,0Z"/><path class="cls-3" d="M220.79,252.67c-8,3.61-12.5,13.35-17.11,20.33-2.32,3.52,3.34,6.8,5.65,3.3,4-6,7.87-14.89,14.76-18,3.83-1.72.51-7.35-3.3-5.64Z"/><path class="cls-7" d="M268,293.24a44.66,44.66,0,1,1,44.65-44.66A44.72,44.72,0,0,1,268,293.24ZM283,230.47a3.3,3.3,0,1,0,3.31,3.3A3.3,3.3,0,0,0,283,230.47Zm-14.68,4.23a13.88,13.88,0,1,0,13.87,13.88A13.9,13.9,0,0,0,268.33,234.7Zm0,22.77a8.89,8.89,0,1,1,8.89-8.89A8.9,8.9,0,0,1,268.33,257.47Zm28-20.42a16.93,16.93,0,0,0-16.93-16.93H257.06a16.93,16.93,0,0,0-16.93,16.93v22.34a16.93,16.93,0,0,0,16.93,16.93H279.4a16.93,16.93,0,0,0,16.93-16.93ZM291,259.39A11.63,11.63,0,0,1,279.4,271H257.06a11.63,11.63,0,0,1-11.63-11.63V237.05a11.63,11.63,0,0,1,11.63-11.63H279.4A11.63,11.63,0,0,1,291,237.05Z"/><path class="cls-3" d="M268,286.7c-15.78-.32-30.31-9.88-35.78-24.93a38.53,38.53,0,0,1,11.36-42.45c26.77-22.5,68.72,2.13,61.86,36.51A38.68,38.68,0,0,1,268,286.7c-8.41.17-8.44,13.25,0,13.08,21.44-.44,40.57-13.47,48.09-33.71s.87-43.61-15.75-57.1a51.14,51.14,0,0,0-82.55,49.46c4.43,24.05,26.23,40.86,50.21,41.35C276.38,300,276.38,286.87,268,286.7Z"/><path class="cls-3" d="M284.49,259.39c-.49,6.73-9.07,5.09-13.7,5.09-4.4,0-9.37.66-13.73,0-6.71-1-5.09-8.67-5.09-13.7,0-4.43-.67-9.36,0-13.73,1-6.41,7.62-5.09,12.46-5.09s10.22-.72,15,0c6.44,1,5.09,7.61,5.09,12.46v15c0,8.42,13.08,8.43,13.08,0,0-10.2,2.82-25.53-4.26-33.93-7.91-9.4-24.81-7-35.88-6.58-8.79.34-16.39,5.82-18.18,14.71-1.07,5.28-.36,11.22-.36,16.55,0,5.72-.76,12.21,2,17.46,3.75,7.18,10.66,9.87,18.36,10,6.58.08,13.23.25,19.81,0,10.54-.4,17.77-7.75,18.54-18.17C298.19,251,285.1,251,284.49,259.39Z"/><path class="cls-3" d="M302.87,237.05c-.55-10.88-7.38-20.42-18.32-22.89-6.18-1.4-13.23-.58-19.5-.58-7.26,0-14.35-.36-20.76,3.78-7.66,4.95-10.63,13.1-10.7,21.85-.12,14.92-2.79,33.78,13.58,41.43,6.51,3,14.07,2.22,21.06,2.22s14.55.82,21.06-2.22c17-7.95,13.58-28.2,13.58-43.59,0-8.42-13.08-8.43-13.08,0v12.46c0,4.07.78,9.23-.53,13.18-3.46,10.48-20.81,7.09-29.18,7.09-5.45,0-10.92-1.14-12.89-7.09-1.3-3.95-.52-9.11-.52-13.18,0-9.78-1.77-22.61,11.81-22.85,9.64-.17,30.59-3.91,31.31,10.39C290.22,245.42,303.3,245.47,302.87,237.05Z"/><path class="cls-3" d="M268.33,250.93c-3.05-.16-3.06-4.66,0-4.7s3,4.54,0,4.7c-8.38.46-8.43,13.54,0,13.08s15.43-6.72,15.43-15.43a15.42,15.42,0,0,0-30.84-.48c-.32,8.9,6.88,15.45,15.41,15.91S276.71,251.39,268.33,250.93Z"/><path class="cls-3" d="M268.33,228.16c-11.05.6-20.42,8.89-20.42,20.42a20.4,20.4,0,0,0,40.79.76c.5-11.83-9.06-20.57-20.37-21.18-8.42-.45-8.39,12.63,0,13.08,9.41.51,9.48,14.68,0,14.68s-9.41-14.17,0-14.68C276.7,240.79,276.75,227.71,268.33,228.16Z"/><path class="cls-3" d="M283,223.93c-5.32.28-9.84,4.28-9.84,9.84a9.84,9.84,0,0,0,19.68.18c.15-5.63-4.47-9.73-9.84-10a6.57,6.57,0,0,0-6.53,6.54A6.66,6.66,0,0,0,283,237c-.18,0-1.55-.32-.69-.06a2.55,2.55,0,0,1-1.33-.69c-.42-.36-.51-.42-.27-.19s.17.15-.19-.27a1.78,1.78,0,0,1-.5-.86c-.21-.58-.24-.62-.09-.13l-.16-1c0-.19.32-1.55.06-.69l.38-.94c.69-.8.85-1,.5-.66s-.15.17.27-.19a1.75,1.75,0,0,1,.86-.5c.53-.19.63-.24.3-.14-.5.13-.21.09.86-.12.19,0,1.56.33.7.07a4.16,4.16,0,0,1,1.71,1c-.34-.37-.32-.32.08.15a1.74,1.74,0,0,1,.5.86c.19.53.24.63.14.3s-.08-.22,0,.34c0,.36-.3,2.19,0,1.21a4.24,4.24,0,0,1-1,1.72c.67-.73-.72.42-1,.57-.53.19-.63.24-.3.14.5-.13.21-.09-.87.11,3.41-.18,6.71-2.87,6.54-6.53C289.4,227.08,286.67,223.73,283,223.93Z"/><circle class="cls-7" cx="267.92" cy="248.2" r="39.11"/><path class="cls-12" d="M268,293.24a44.66,44.66,0,1,1,44.65-44.66A44.72,44.72,0,0,1,268,293.24ZM283,230.47a3.3,3.3,0,1,0,3.31,3.3A3.3,3.3,0,0,0,283,230.47Zm-14.68,4.23a13.88,13.88,0,1,0,13.87,13.88A13.9,13.9,0,0,0,268.33,234.7Zm0,22.77a8.89,8.89,0,1,1,8.89-8.89A8.9,8.9,0,0,1,268.33,257.47Zm28-20.42a16.93,16.93,0,0,0-16.93-16.93H257.06a16.93,16.93,0,0,0-16.93,16.93v22.34a16.93,16.93,0,0,0,16.93,16.93H279.4a16.93,16.93,0,0,0,16.93-16.93ZM291,259.39A11.63,11.63,0,0,1,279.4,271H257.06a11.63,11.63,0,0,1-11.63-11.63V237.05a11.63,11.63,0,0,1,11.63-11.63H279.4A11.63,11.63,0,0,1,291,237.05Z"/><path class="cls-3" d="M241.6,268.76c8.1,0,8.11-12.59,0-12.59s-8.11,12.59,0,12.59Z"/><path class="cls-3" d="M268.33,268.76c8.09,0,8.11-12.59,0-12.59s-8.12,12.59,0,12.59Z"/><path class="cls-3" d="M255.47,282.41h-.38a9.31,9.31,0,0,1-7.7-5.9A1.94,1.94,0,0,1,251,275a5.53,5.53,0,0,0,4.34,3.57,5.14,5.14,0,0,0,4.36-3,1.94,1.94,0,0,1,2.6-.88,1.92,1.92,0,0,1,.87,2.59A8.77,8.77,0,0,1,255.47,282.41Z"/><path class="cls-3" d="M306.68,261.17a38.57,38.57,0,0,1,19.57,21.46c1.43,3.92,7.75,2.23,6.3-1.74A45.12,45.12,0,0,0,310,255.53c-3.77-1.85-7.09,3.79-3.3,5.64Z"/></g></svg>