<svg xmlns="http://www.w3.org/2000/svg" viewBox="0 0 381.28 380.33"><defs><style>.cls-1{fill:#f7c402;}.cls-2{fill:#fadc67;}.cls-3{fill:#183e41;}.cls-4{fill:#4386c6;}.cls-5{fill:#e1262f;}.cls-6{fill:#7dc4ca;}.cls-7{font-size:31px;fill:#fff;font-family:Courier-Bold, Courier;font-weight:700;letter-spacing:0.05em;}</style></defs><title>Binario mapa conceptual</title><g id="gráficos"><rect class="cls-1" x="4.14" y="3.67" width="373" height="373" rx="23.02" ry="23.02"/><path d="M354.12,375.17H33.62c-7.27,0-14.13.11-20.23-5-7.09-5.91-7.75-13.81-7.75-22.12V63.81c0-12.34-.38-24.75,0-37.09C6.06,13,17,5.17,29.81,5.17h278.9c14.84,0,29.68-.14,44.51,0,12.75.11,22.3,9.5,22.42,22.3,0,4.81,0,9.62,0,14.43V350.79c0,12.86-7.62,24-21.52,24.38-1.93.05-1.93,3.05,0,3,14.41-.44,24.44-11.7,24.52-25.81,0-5.5,0-11,0-16.51V71.73c0-14.8.15-29.62,0-44.42A24.94,24.94,0,0,0,354,2.17c-4-.09-8,0-12.06,0H29.62c-11.38,0-21.84,5.32-25.7,16.72C2.25,23.8,2.64,29.14,2.64,34.26v314.1c0,7.21.37,14,5,20.15,5.85,7.69,14.43,9.66,23.46,9.66h323A1.5,1.5,0,0,0,354.12,375.17Z"/><rect class="cls-2" x="27.63" y="27.15" width="326.03" height="326.03" rx="23.02" ry="23.02"/><path d="M330.64,351.68H74.24c-12,0-30.23,2.95-39.27-6.77-8.71-9.38-5.84-27.12-5.84-38.94V152.58c0-34.08-1.06-68.34,0-102.41.41-13.42,11-21.52,23.74-21.52H293.44c12.23,0,24.5-.3,36.73,0,12.51.31,21.85,9.62,22,22.19.05,4.16,0,8.32,0,12.48V328.13c0,12.66-8.23,23.15-21.51,23.55-1.93.06-1.94,3.06,0,3,14-.42,24.37-11.28,24.51-25.19.05-4.31,0-8.63,0-12.94v-227c0-12.94.25-25.89,0-38.82-.26-13.81-10.57-24.68-24.52-25-3-.08-6,0-8.95,0h-269c-9.9,0-19.11,4.13-23.83,13.3-2.72,5.29-2.71,10.73-2.71,16.43V325.53c0,6.4.33,12.5,4,18.12,5.26,8,13.78,11,22.9,11H330.64A1.5,1.5,0,0,0,330.64,351.68Z"/><path class="cls-3" d="M62.92,257.74C63,282,68.34,301.12,74.66,300.07c48.17-7.94,185.81,14.46,236.16-2.52,2.06-.69,4.38-2.41,5.54-9,.82-4.69.82-10.74.8-16.39-.1-24-.65-98.55-.84-150.57h-253C63,162.05,62.81,234.63,62.92,257.74Z"/><path d="M61.42,257.74c.1,10.17.78,20.57,3.43,30.43,1.12,4.16,2.85,11,7.27,12.95,3.53,1.59,9.54-.48,13.31-.75,5.95-.42,11.92-.55,17.88-.56,31.56-.06,63.11,2.61,94.62,4.21,30.62,1.55,61.95,3.39,92.47-.58a125,125,0,0,0,16.29-3.08c5.52-1.48,8.93-3.08,10.57-9,2.13-7.64,1.41-16,1.38-23.88q-.06-9.64-.11-19.29-.39-63.3-.71-126.6a1.52,1.52,0,0,0-1.5-1.5h-253a1.53,1.53,0,0,0-1.5,1.5c-.39,45.38-.64,90.77-.44,136.15a1.5,1.5,0,0,0,3,0c-.2-45.38,0-90.77.44-136.15l-1.5,1.5h253l-1.5-1.5q.21,54.42.6,108.84.12,19.48.22,39c0,3.78.08,7.55-.06,11.33-.17,4.32,0,11.27-3.54,14.42-3.26,2.89-10.45,3.44-14.57,4.19-27.54,5-56.44,3.56-84.25,2.4-30.84-1.29-61.63-3.72-92.48-4.64-13.11-.4-26.34-.67-39.41.62-2,.21-5.19,1.28-7.17.9-3-.57-4.52-5.31-5.37-7.76-3.63-10.5-4.26-22.09-4.37-33.11A1.5,1.5,0,0,0,61.42,257.74Z"/><path class="cls-4" d="M305.51,79.45c-23.05,3.68-142.21-.55-165.27-1.7a483,483,0,0,0-66.3,1.08c-5.57.47-10.1,15.25-10.37,36.62-.08,5.6-.14-.92-.21,6.14h253c0-6.2,0,.74-.05-5.1C316.23,94.91,311.12,78.55,305.51,79.45Z"/><path d="M305.11,78c-12.52,1.93-25.65,1.41-38.26,1.42-19.21,0-38.42-.34-57.63-.82-36.73-.91-73.78-4-110.51-2.74q-6.6.23-13.21.63c-3.84.24-8.21,0-12,.89-2.86.67-4.56,2.87-5.88,5.38-2.46,4.69-3.51,10.16-4.29,15.34-1,6.47-.47,13.08-1.34,19.49l1.45-1.1,1,.42a1.5,1.5,0,0,0-2.5.66,18.67,18.67,0,0,0-.15,4,1.53,1.53,0,0,0,1.5,1.5h253a1.52,1.52,0,0,0,1.5-1.5c0-.93,0-1.87,0-2.79a1.5,1.5,0,0,0-3,0,1.93,1.93,0,0,0,0,.24h3c-.45-10.09-.44-20.12-3.37-29.9-1.18-3.94-3.56-11.57-8.91-11.19-1.92.13-1.93,3.13,0,3,4.74-.33,6.65,11,7.3,14.15,1.64,8,1.62,15.87,2,23.94a1.5,1.5,0,0,0,3,0,1.93,1.93,0,0,1,0-.24h-3c0,.92,0,1.86,0,2.79l1.5-1.5h-253l1.5,1.5a21.44,21.44,0,0,1,0-3.22l-2.51.66a1.52,1.52,0,0,0,2.55-.64c1.5-11.14,0-22.75,4.93-33.3,2.24-4.8,4.68-4.83,9.89-5.21Q92,79,104.32,78.71c18-.4,35.92.61,53.88,1.29,35.14,1.34,70.32,2.37,105.48,2.42,13.93,0,28.41.61,42.22-1.52C307.81,80.6,307,77.71,305.11,78Z"/><circle class="cls-5" cx="87.66" cy="98.59" r="10"/><path d="M96.16,98.59c-.58,10.88-17,11-17,0s16.42-10.89,17,0c.11,1.92,3.11,1.93,3,0-.33-6.24-5-11.5-11.5-11.5a11.49,11.49,0,0,0-.54,23c6.72.31,11.7-5,12-11.47C99.27,96.66,96.27,96.67,96.16,98.59Z"/><circle class="cls-1" cx="117.66" cy="98.59" r="10"/><path d="M126.16,98.59c-.58,10.88-17,11-17,0s16.42-10.89,17,0c.11,1.92,3.11,1.93,3,0-.33-6.24-5-11.5-11.5-11.5a11.49,11.49,0,0,0-.54,23c6.72.31,11.7-5,12-11.47C129.27,96.66,126.27,96.67,126.16,98.59Z"/><circle class="cls-6" cx="149.66" cy="98.59" r="10"/><path d="M155.67,92.58a8.5,8.5,0,1,1-12,0,8.6,8.6,0,0,1,12,0c1.42,1.31,3.55-.81,2.13-2.12a11.5,11.5,0,1,0,0,16.26,11.69,11.69,0,0,0,0-16.26C156.48,89,154.37,91.16,155.67,92.58Z"/><text class="cls-7" transform="translate(76.16 153.9)">VOID <tspan x="0" y="32">SETUP{} </tspan></text><text class="cls-7" transform="translate(218.1 244.9)">VOID <tspan x="-40.31" y="32">LOOP{} </tspan></text></g></svg>