<svg xmlns="http://www.w3.org/2000/svg" xmlns:xlink="http://www.w3.org/1999/xlink" viewBox="0 0 381.28 380.33"><defs><style>.cls-1{fill:none;}.cls-2{fill:#ffda83;}.cls-3{fill:#ffe9b5;}.cls-4{fill:#4386c6;}.cls-5{clip-path:url(#clip-path);}.cls-6{font-size:48px;fill:#e66869;stroke:#000;stroke-miterlimit:10;stroke-width:2px;font-family:Courier-Bold, Courier;font-weight:700;letter-spacing:0.05em;}.cls-7{fill:#fff;}</style><clipPath id="clip-path"><path class="cls-1" d="M272.68,275.62A29.84,29.84,0,0,0,290.06,270h0a29.27,29.27,0,0,0,2.82-2.28c15.65-12.73,31.36-27.89,32.29-58.8a35,35,0,0,0-3.41-36,35.28,35.28,0,0,0-32.22-49.74l-.28,0A35.29,35.29,0,0,0,255.12,96.7a36.06,36.06,0,0,0-4.69.35A52.2,52.2,0,0,0,187,87.18a30.77,30.77,0,0,0-55.39,13.6c-.49.23-1,.43-1.49.66a35.71,35.71,0,0,0-6.83-.67A35.29,35.29,0,0,0,88.2,132l-.1.1a35.21,35.21,0,0,0-29.23,50.49,35.28,35.28,0,0,0,43.71,52.12c6.88-.83,14.43-2.2,22.57-3.74a23.23,23.23,0,0,0-1.89,9.05c0,14.08,13.33,17.24,34.37,17.24,15.29,0,34.64-1.67,55.91-2,20.56,11.36,24.78,50.64,45.13,50.64a15.69,15.69,0,0,0,2.13-.15c15.85-2-1.26-22.72-7.56-37.37a29.65,29.65,0,0,0,12.45,6.41A30,30,0,0,0,272.68,275.62Z"/></clipPath></defs><title>Binario mapa conceptual</title><g id="gráficos"><rect class="cls-2" x="4.14" y="3.67" width="373" height="373" rx="23.02" ry="23.02"/><path d="M354.12,375.17H33.62c-7.27,0-14.13.11-20.23-5-7.09-5.91-7.75-13.81-7.75-22.12V63.81c0-12.34-.38-24.75,0-37.09C6.06,13,17,5.17,29.81,5.17h278.9c14.84,0,29.68-.14,44.51,0,12.75.11,22.3,9.5,22.42,22.3,0,4.81,0,9.62,0,14.43V350.79c0,12.86-7.62,24-21.52,24.38-1.93.05-1.93,3.05,0,3,14.41-.44,24.44-11.7,24.52-25.81,0-5.5,0-11,0-16.51V71.73c0-14.8.15-29.62,0-44.42A24.94,24.94,0,0,0,354,2.17c-4-.09-8,0-12.06,0H29.62c-11.38,0-21.84,5.32-25.7,16.72C2.25,23.8,2.64,29.14,2.64,34.26v314.1c0,7.21.37,14,5,20.15,5.85,7.69,14.43,9.66,23.46,9.66h323A1.5,1.5,0,0,0,354.12,375.17Z"/><rect class="cls-3" x="27.63" y="27.15" width="326.03" height="326.03" rx="23.02" ry="23.02"/><path d="M330.64,351.68H74.24c-12,0-30.23,2.95-39.27-6.77-8.71-9.38-5.84-27.12-5.84-38.94V152.58c0-34.08-1.06-68.34,0-102.41.41-13.42,11-21.52,23.74-21.52H293.44c12.23,0,24.5-.3,36.73,0,12.51.31,21.85,9.62,22,22.19.05,4.16,0,8.32,0,12.48V328.13c0,12.66-8.23,23.15-21.51,23.55-1.93.06-1.94,3.06,0,3,14-.42,24.37-11.28,24.51-25.19.05-4.31,0-8.63,0-12.94v-227c0-12.94.25-25.89,0-38.82-.26-13.81-10.57-24.68-24.52-25-3-.08-6,0-8.95,0h-269c-9.9,0-19.11,4.13-23.83,13.3-2.72,5.29-2.71,10.73-2.71,16.43V325.53c0,6.4.33,12.5,4,18.12,5.26,8,13.78,11,22.9,11H330.64A1.5,1.5,0,0,0,330.64,351.68Z"/><path class="cls-4" d="M272.68,275.62A29.84,29.84,0,0,0,290.06,270h0a29.27,29.27,0,0,0,2.82-2.28c15.65-12.73,31.36-27.89,32.29-58.8a35,35,0,0,0-3.41-36,35.28,35.28,0,0,0-32.22-49.74l-.28,0A35.29,35.29,0,0,0,255.12,96.7a36.06,36.06,0,0,0-4.69.35A52.2,52.2,0,0,0,187,87.18a30.77,30.77,0,0,0-55.39,13.6c-.49.23-1,.43-1.49.66a35.71,35.71,0,0,0-6.83-.67A35.29,35.29,0,0,0,88.2,132l-.1.1a35.21,35.21,0,0,0-29.23,50.49,35.28,35.28,0,0,0,43.71,52.12c6.88-.83,14.43-2.2,22.57-3.74a23.23,23.23,0,0,0-1.89,9.05c0,14.08,13.33,17.24,34.37,17.24,15.29,0,34.64-1.67,55.91-2,20.56,11.36,24.78,50.64,45.13,50.64a15.69,15.69,0,0,0,2.13-.15c15.85-2-1.26-22.72-7.56-37.37a29.65,29.65,0,0,0,12.45,6.41A30,30,0,0,0,272.68,275.62Z"/><path d="M272.68,277.12a31.63,31.63,0,0,0,18.75-6.55,143.32,143.32,0,0,0,12.13-10.16c9.25-8.8,16.52-19.35,20.12-31.68,2.16-7.36,1.68-15.46,4.27-22.56a36.28,36.28,0,0,0-1-27.31c-.74-1.67-2.65-3.78-3-5.48-.71-3.28,1.92-8,2.24-11.56a36.88,36.88,0,0,0-3.35-19.08c-5.82-12.35-19.57-22-33.58-21.1l1.45,1.1A37.68,37.68,0,0,0,274.89,101a36.78,36.78,0,0,0-19.77-5.78c-4.14,0-4.89-.71-8-3.31-17.11-14.52-41.32-16.55-60.95-6l2.06.53c-13-17.07-39.1-18.07-52.18-.37a32.11,32.11,0,0,0-3.62,6.24c-.65,1.49-1.1,5.75-2.11,6.75-1.67,1.65-6.41.17-8.52.26a36.66,36.66,0,0,0-31.47,20.27,39.46,39.46,0,0,0-2.18,5.35c-.4,1.26-.58,5.07-1.45,5.84-1.09,1-5.49,1-7,1.43a36.67,36.67,0,0,0-7.57,3.31,36.65,36.65,0,0,0-17.88,37.6c.46,2.87,2.32,6,2.55,8.72s-2.86,6.35-3.77,9a36.78,36.78,0,0,0,30.34,48.34c6.51.8,12.27-.43,18.4-2.46,7.4-2.46,16-2.79,23.72-4.23l-1.85-1.85c-2.45,6.48-3.18,14.59,1.71,20.18,4.17,4.76,10.92,6.34,16.92,7.16,21.08,2.89,43.15-.4,64.3-1,2.71-.08,5.5-.53,8,.72a20.8,20.8,0,0,1,4.62,3.82,54.36,54.36,0,0,1,7.33,9.42c4.06,6.34,7.31,13.14,11.13,19.61,5.23,8.87,14.85,21.29,26.86,15.81,5.75-2.62,4.56-9,2.68-13.86-3.36-8.68-8.9-16.33-12.66-24.83l-2.36,1.82a32.94,32.94,0,0,0,20.5,7.68c1.93.06,1.93-2.94,0-3a29.61,29.61,0,0,1-18.38-6.8,1.51,1.51,0,0,0-2.35,1.82c3,6.75,7,13,10.29,19.58,2.27,4.54,7.05,13.7-.74,15.41-12.68,2.77-20-12.63-24.85-21.57-5.11-9.36-11.37-23.74-21.9-28.33-3.08-1.34-7.68-.32-11-.21-5.61.19-11.21.45-16.82.73-9,.44-18.05,1-27.09,1-8.49.08-17.86.26-25.89-2.89-9.44-3.69-10.68-12.64-7.32-21.49.44-1.16-.84-2-1.85-1.84-5.89,1.1-11.78,2.21-17.7,3.07s-11.32,3.45-17.37,3.76A33.81,33.81,0,0,1,54.9,195.54a33.31,33.31,0,0,1,2.81-8c.73-1.45,2.57-3.23,2.66-4.88.1-2-1.95-4.91-2.45-6.88a33.78,33.78,0,0,1,25.21-41.36c3.9-.9,5.84.32,6.75-3.52,2.41-10.14,7.17-18.67,16.46-24.06a33.59,33.59,0,0,1,14.09-4.43c3.09-.25,6.29.75,9.27.51a4.16,4.16,0,0,0,3.17-1.35c.94-1.18.89-4.08,1.4-5.61a29.27,29.27,0,0,1,51.41-8,1.55,1.55,0,0,0,2,.54c19.36-10.41,43.46-7.71,59.53,7.52.92.87,1.73,2.15,3,2.52,1.68.51,4.53-.37,6.33-.29a33.77,33.77,0,0,1,13.89,3.65,34.52,34.52,0,0,1,17.37,21.66,1.51,1.51,0,0,0,1.44,1.1c12.3-.75,24.44,7.3,30.12,17.86a33.92,33.92,0,0,1,3.81,19.32,33.31,33.31,0,0,1-1.2,6.09c-.38,1.31-1.65,3.24-1.68,4.55-.05,2.16,2.45,4.57,3.4,6.49a33.64,33.64,0,0,1,2.13,24c-1,3.62-2.08,5.74-2.33,9.43a76.12,76.12,0,0,1-1.63,11.34,65.72,65.72,0,0,1-16.69,30.83,133.32,133.32,0,0,1-12.48,11.4c-1.28,1.05-2.54,2.15-3.83,3.16-.15.12-.13.42-.26.51s-.52-.07-.7.05a28.78,28.78,0,0,1-15.24,4.48C270.75,274.18,270.74,277.18,272.68,277.12Z"/><g class="cls-5"><text class="cls-6" transform="translate(20.21 119.25)">10101010101<tspan x="0" y="42">01010101010</tspan><tspan x="0" y="84">10101010101</tspan><tspan x="0" y="126">01010101010</tspan><tspan x="0" y="168">10101010101</tspan></text></g><path d="M272.68,277.12a31.63,31.63,0,0,0,18.75-6.55,143.32,143.32,0,0,0,12.13-10.16c9.25-8.8,16.52-19.35,20.12-31.68,2.16-7.36,1.68-15.46,4.27-22.56a36.28,36.28,0,0,0-1-27.31c-.74-1.67-2.65-3.78-3-5.48-.71-3.28,1.92-8,2.24-11.56a36.88,36.88,0,0,0-3.35-19.08c-5.82-12.35-19.57-22-33.58-21.1l1.45,1.1A37.68,37.68,0,0,0,274.89,101a36.78,36.78,0,0,0-19.77-5.78c-4.14,0-4.89-.71-8-3.31-17.11-14.52-41.32-16.55-60.95-6l2.06.53c-13-17.07-39.1-18.07-52.18-.37a32.11,32.11,0,0,0-3.62,6.24c-.65,1.49-1.1,5.75-2.11,6.75-1.67,1.65-6.41.17-8.52.26a36.66,36.66,0,0,0-31.47,20.27,39.46,39.46,0,0,0-2.18,5.35c-.4,1.26-.58,5.07-1.45,5.84-1.09,1-5.49,1-7,1.43a36.67,36.67,0,0,0-7.57,3.31,36.65,36.65,0,0,0-17.88,37.6c.46,2.87,2.32,6,2.55,8.72s-2.86,6.35-3.77,9a36.78,36.78,0,0,0,30.34,48.34c6.51.8,12.27-.43,18.4-2.46,7.4-2.46,16-2.79,23.72-4.23l-1.85-1.85c-2.45,6.48-3.18,14.59,1.71,20.18,4.17,4.76,10.92,6.34,16.92,7.16,21.08,2.89,43.15-.4,64.3-1,2.71-.08,5.5-.53,8,.72a20.8,20.8,0,0,1,4.62,3.82,54.36,54.36,0,0,1,7.33,9.42c4.06,6.34,7.31,13.14,11.13,19.61,5.23,8.87,14.85,21.29,26.86,15.81,5.75-2.62,4.56-9,2.68-13.86-3.36-8.68-8.9-16.33-12.66-24.83l-2.36,1.82a32.94,32.94,0,0,0,20.5,7.68c1.93.06,1.93-2.94,0-3a29.61,29.61,0,0,1-18.38-6.8,1.51,1.51,0,0,0-2.35,1.82c3,6.75,7,13,10.29,19.58,2.27,4.54,7.05,13.7-.74,15.41-12.68,2.77-20-12.63-24.85-21.57-5.11-9.36-11.37-23.74-21.9-28.33-3.08-1.34-7.68-.32-11-.21-5.61.19-11.21.45-16.82.73-9,.44-18.05,1-27.09,1-8.49.08-17.86.26-25.89-2.89-9.44-3.69-10.68-12.64-7.32-21.49.44-1.16-.84-2-1.85-1.84-5.89,1.1-11.78,2.21-17.7,3.07s-11.32,3.45-17.37,3.76A33.81,33.81,0,0,1,54.9,195.54a33.31,33.31,0,0,1,2.81-8c.73-1.45,2.57-3.23,2.66-4.88.1-2-1.95-4.91-2.45-6.88a33.78,33.78,0,0,1,25.21-41.36c3.9-.9,5.84.32,6.75-3.52,2.41-10.14,7.17-18.67,16.46-24.06a33.59,33.59,0,0,1,14.09-4.43c3.09-.25,6.29.75,9.27.51a4.16,4.16,0,0,0,3.17-1.35c.94-1.18.89-4.08,1.4-5.61a29.27,29.27,0,0,1,51.41-8,1.55,1.55,0,0,0,2,.54c19.36-10.41,43.46-7.71,59.53,7.52.92.87,1.73,2.15,3,2.52,1.68.51,4.53-.37,6.33-.29a33.77,33.77,0,0,1,13.89,3.65,34.52,34.52,0,0,1,17.37,21.66,1.51,1.51,0,0,0,1.44,1.1c12.3-.75,24.44,7.3,30.12,17.86a33.92,33.92,0,0,1,3.81,19.32,33.31,33.31,0,0,1-1.2,6.09c-.38,1.31-1.65,3.24-1.68,4.55-.05,2.16,2.45,4.57,3.4,6.49a33.64,33.64,0,0,1,2.13,24c-1,3.62-2.08,5.74-2.33,9.43a76.12,76.12,0,0,1-1.63,11.34,65.72,65.72,0,0,1-16.69,30.83,133.32,133.32,0,0,1-12.48,11.4c-1.28,1.05-2.54,2.15-3.83,3.16-.15.12-.13.42-.26.51s-.52-.07-.7.05a28.78,28.78,0,0,1-15.24,4.48C270.75,274.18,270.74,277.18,272.68,277.12Z"/><path d="M154.23,259.43q.44,24.54-.42,49.09l3.79-2.89a49.83,49.83,0,0,0-15-1.17c-3.82.28-3.85,6.28,0,6a44.19,44.19,0,0,1,13.37,1,3,3,0,0,0,3.8-2.89q.85-24.54.42-49.09c-.06-3.86-6.06-3.87-6,0Z"/><path d="M193.8,257.43q-1.17,20.81-1.53,41.63c-.06,3.89-1.23,9.51,3,11.7,4.93,2.55,11,0,16.21.74,3.78.54,5.41-5.24,1.59-5.79-4.26-.61-8.8.89-12.91,0-2.92-.61-1.94-3-1.9-5.69,0-3,.1-5.95.17-8.93q.4-16.86,1.37-33.7c.22-3.86-5.78-3.84-6,0Z"/><path class="cls-7" d="M168,200.51c1.68,12.37,12.79,22.36,25.44,21.88,13.24-.51,23.83-11.6,22.74-25-.47-5.73-9.47-5.78-9,0,.73,9-6,16.44-15.21,16-8.45-.42-14.2-7.27-15.29-15.27-.78-5.71-9.45-3.28-8.68,2.39Z"/><path d="M166.53,200.91c1.9,11.5,11,21.19,22.74,22.76a25.44,25.44,0,0,0,27-16.09c1.4-3.82,2.9-10.25,0-13.75a6.53,6.53,0,0,0-8.44-1.2,5.24,5.24,0,0,0-2.13,3.61c-.61,3.61,0,6.73-2.22,10-5.23,8-17,6.9-22.26-.42-2.6-3.64-2-11.69-7.45-12.44-4.23-.57-7.44,3.11-7.29,7.09.07,1.93,3.07,1.94,3,0s1.11-4.25,3.46-4,2.3,2.83,2.8,4.66a20.81,20.81,0,0,0,2.89,6.25,17.28,17.28,0,0,0,11.54,7.32A16.06,16.06,0,0,0,208.66,200c.2-2.56.58-7.61,4.57-4.93,2.93,2,1.26,8.45.36,11.07a22.21,22.21,0,0,1-14,13.6c-14.06,4.61-27.86-5.72-30.16-19.67C169.11,198.21,166.22,199,166.53,200.91Z"/><circle class="cls-7" cx="223.14" cy="162.93" r="14.5"/><path d="M236.14,162.93c-.34,7.07-5.67,13-13,13a13,13,0,0,1,0-26c7.31,0,12.66,5.95,13,13,.09,1.92,3.09,1.93,3,0-.41-8.69-7-16-16-16a16,16,0,0,0,0,32c9,0,15.59-7.31,16-16C239.23,161,236.23,161,236.14,162.93Z"/><circle class="cls-7" cx="157.14" cy="162.93" r="14.5"/><path d="M170.14,162.93c-.34,7.07-5.67,13-13,13a13,13,0,0,1,0-26c7.31,0,12.66,5.95,13,13,.09,1.92,3.09,1.93,3,0-.41-8.69-7-16-16-16a16,16,0,0,0,0,32c9,0,15.59-7.31,16-16C173.23,161,170.23,161,170.14,162.93Z"/></g></svg>