<?xml version="1.0" encoding="utf-8"?>
<!-- Generator: Adobe Illustrator 24.2.0, SVG Export Plug-In . SVG Version: 6.00 Build 0)  -->
<svg version="1.1" id="Layer_1" xmlns="http://www.w3.org/2000/svg" xmlns:xlink="http://www.w3.org/1999/xlink" x="0px" y="0px"
	 viewBox="0 0 186 181" style="enable-background:new 0 0 186 181;" xml:space="preserve">
<style type="text/css">
	.st0{fill:#E8E8E8;}
	.st1{clip-path:url(#SVGID_5_);}
	.st2{clip-path:url(#SVGID_6_);}
	.st3{clip-path:url(#SVGID_11_);}
	.st4{clip-path:url(#SVGID_12_);}
	.st5{fill:#666666;}
	.st6{clip-path:url(#SVGID_17_);}
	.st7{clip-path:url(#SVGID_18_);}
	.st8{fill:#848484;}
	.st9{clip-path:url(#SVGID_23_);}
	.st10{clip-path:url(#SVGID_24_);}
	.st11{clip-path:url(#SVGID_29_);}
	.st12{clip-path:url(#SVGID_30_);}
	.st13{clip-path:url(#SVGID_35_);}
	.st14{clip-path:url(#SVGID_36_);}
	.st15{clip-path:url(#SVGID_41_);}
	.st16{clip-path:url(#SVGID_42_);}
	.st17{clip-path:url(#SVGID_47_);}
	.st18{clip-path:url(#SVGID_48_);}
	.st19{clip-path:url(#SVGID_53_);}
	.st20{clip-path:url(#SVGID_54_);}
	.st21{clip-path:url(#SVGID_59_);}
	.st22{clip-path:url(#SVGID_60_);}
	.st23{clip-path:url(#SVGID_65_);}
	.st24{clip-path:url(#SVGID_66_);}
	.st25{clip-path:url(#SVGID_71_);}
	.st26{clip-path:url(#SVGID_72_);}
	.st27{clip-path:url(#SVGID_77_);}
	.st28{clip-path:url(#SVGID_78_);}
	.st29{fill:#9E9E9E;}
	.st30{clip-path:url(#SVGID_83_);}
	.st31{clip-path:url(#SVGID_84_);}
	.st32{fill:#BFBFBF;}
	.st33{clip-path:url(#SVGID_89_);}
	.st34{clip-path:url(#SVGID_90_);}
	.st35{clip-path:url(#SVGID_95_);}
	.st36{clip-path:url(#SVGID_96_);}
	.st37{clip-path:url(#SVGID_101_);}
	.st38{clip-path:url(#SVGID_102_);}
	.st39{clip-path:url(#SVGID_107_);}
	.st40{clip-path:url(#SVGID_108_);}
	.st41{clip-path:url(#SVGID_113_);}
	.st42{clip-path:url(#SVGID_114_);}
	.st43{clip-path:url(#SVGID_119_);}
	.st44{clip-path:url(#SVGID_120_);}
	.st45{clip-path:url(#SVGID_125_);}
	.st46{clip-path:url(#SVGID_126_);}
	.st47{fill:#FFFFFF;}
	.st48{clip-path:url(#SVGID_131_);}
	.st49{clip-path:url(#SVGID_132_);}
	.st50{clip-path:url(#SVGID_137_);}
	.st51{clip-path:url(#SVGID_138_);}
	.st52{clip-path:url(#SVGID_143_);}
	.st53{clip-path:url(#SVGID_144_);}
</style>
<g>
	<g>
		<path class="st0" d="M182.8,90.47c0.02,47.82-40.17,86.6-89.77,86.62C43.44,177.11,3.22,138.35,3.2,90.53S43.38,3.93,92.97,3.91
			S182.78,42.65,182.8,90.47"/>
		<g>
			<path d="M181.3,90.47c-0.03,17.74-5.8,35.03-16.3,49.32c-10.38,14.11-25.17,24.86-41.67,30.66c-17.42,6.11-36.61,6.8-54.43,1.94
				c-17.03-4.64-32.52-14.35-44.03-27.75c-11.41-13.29-18.56-30.1-19.91-47.58C3.58,79.33,7.98,61.52,17.43,46.47
				c9.28-14.78,23.09-26.43,39.03-33.46c16.91-7.46,36.18-9.47,54.3-5.88c17.37,3.44,33.57,11.98,46.06,24.56
				c12.29,12.37,20.62,28.37,23.44,45.6C180.96,81.64,181.29,86.06,181.3,90.47c0,1.93,3,1.93,3,0
				c-0.04-18.28-5.97-36.25-16.84-50.95c-10.81-14.62-25.94-25.69-43.07-31.76C106.4,1.38,86.44,0.71,68.04,5.74
				C50.5,10.54,34.43,20.57,22.6,34.42C10.78,48.24,3.45,65.52,1.98,83.67c-1.48,18.31,3.11,36.88,12.89,52.43
				c9.61,15.28,23.9,27.44,40.44,34.65c17.53,7.64,37.2,9.73,55.97,6.08c17.97-3.5,34.81-12.42,47.7-25.43
				c12.69-12.8,21.39-29.44,24.23-47.27c0.72-4.52,1.09-9.08,1.09-13.65C184.3,88.54,181.3,88.54,181.3,90.47L181.3,90.47z"/>
		</g>
	</g>
	<g>
		<g>
			<path d="M181.3,90.47c-0.03,17.74-5.8,35.03-16.3,49.32c-10.38,14.11-25.17,24.86-41.67,30.66c-17.42,6.11-36.61,6.8-54.43,1.94
				c-17.03-4.64-32.52-14.35-44.03-27.75c-11.41-13.29-18.56-30.1-19.91-47.58C3.58,79.33,7.98,61.52,17.43,46.47
				c9.28-14.78,23.09-26.43,39.03-33.46c16.91-7.46,36.18-9.47,54.3-5.88c17.37,3.44,33.57,11.98,46.06,24.56
				c12.29,12.37,20.62,28.37,23.44,45.6C180.96,81.64,181.29,86.06,181.3,90.47c0,1.93,3,1.93,3,0
				c-0.04-18.28-5.97-36.25-16.84-50.95c-10.81-14.62-25.94-25.69-43.07-31.76C106.4,1.38,86.44,0.71,68.04,5.74
				C50.5,10.54,34.43,20.57,22.6,34.42C10.78,48.24,3.45,65.52,1.98,83.67c-1.48,18.31,3.11,36.88,12.89,52.43
				c9.61,15.28,23.9,27.44,40.44,34.65c17.53,7.64,37.2,9.73,55.97,6.08c17.97-3.5,34.81-12.42,47.7-25.43
				c12.69-12.8,21.39-29.44,24.23-47.27c0.72-4.52,1.09-9.08,1.09-13.65C184.3,88.54,181.3,88.54,181.3,90.47L181.3,90.47z"/>
		</g>
	</g>
</g>
<g>
	<g>
		<g>
			<defs>
				<path id="SVGID_1_" d="M181.38,89.79c0.02,47.44-39.85,85.92-89.06,85.94c-49.2,0.02-89.1-38.43-89.12-85.88
					S43.06,3.93,92.26,3.91S181.36,42.34,181.38,89.79"/>
			</defs>
			<clipPath id="SVGID_2_">
				<use xlink:href="#SVGID_1_"  style="overflow:visible;"/>
			</clipPath>
		</g>
		<g>
			<defs>
				<path id="SVGID_3_" d="M181.38,89.79c0.02,47.44-39.85,85.92-89.06,85.94c-49.2,0.02-89.1-38.43-89.12-85.88
					S43.06,3.93,92.26,3.91S181.36,42.34,181.38,89.79"/>
			</defs>
			<defs>
				<path id="SVGID_4_" d="M181.38,89.79c0.02,47.44-39.85,85.92-89.06,85.94c-49.2,0.02-89.1-38.43-89.12-85.88
					S43.06,3.93,92.26,3.91S181.36,42.34,181.38,89.79"/>
			</defs>
			<clipPath id="SVGID_5_">
				<use xlink:href="#SVGID_3_"  style="overflow:visible;"/>
			</clipPath>
			<clipPath id="SVGID_6_" class="st1">
				<use xlink:href="#SVGID_4_"  style="overflow:visible;"/>
			</clipPath>
			<g class="st2">
				<g>
					<path d="M26.47,47.94c-2.9,0.16-5.62-1.44-7.27-4c-2.04-3.15-2.26-7.07-1.83-10.71c0.92-7.56,4.41-15,9.26-20.82
						c1.03-1.23,1.21-3,0-4.21c-1.06-1.06-3.17-1.24-4.21,0c-4.78,5.74-8.31,12.46-10.08,19.74c-1.76,7.28-1.8,15.68,3.63,21.47
						c2.68,2.86,6.54,4.7,10.5,4.48c1.61-0.09,2.98-1.3,2.98-2.98C29.44,49.37,28.08,47.85,26.47,47.94L26.47,47.94z"/>
				</g>
			</g>
		</g>
	</g>
	<g>
		<g>
			<defs>
				<path id="SVGID_7_" d="M181.38,89.79c0.02,47.44-39.85,85.92-89.06,85.94c-49.2,0.02-89.1-38.43-89.12-85.88
					S43.06,3.93,92.26,3.91S181.36,42.34,181.38,89.79"/>
			</defs>
			<clipPath id="SVGID_8_">
				<use xlink:href="#SVGID_7_"  style="overflow:visible;"/>
			</clipPath>
		</g>
		<g>
			<defs>
				<path id="SVGID_9_" d="M181.38,89.79c0.02,47.44-39.85,85.92-89.06,85.94c-49.2,0.02-89.1-38.43-89.12-85.88
					S43.06,3.93,92.26,3.91S181.36,42.34,181.38,89.79"/>
			</defs>
			<defs>
				<path id="SVGID_10_" d="M181.38,89.79c0.02,47.44-39.85,85.92-89.06,85.94c-49.2,0.02-89.1-38.43-89.12-85.88
					S43.06,3.93,92.26,3.91S181.36,42.34,181.38,89.79"/>
			</defs>
			<clipPath id="SVGID_11_">
				<use xlink:href="#SVGID_9_"  style="overflow:visible;"/>
			</clipPath>
			<clipPath id="SVGID_12_" class="st3">
				<use xlink:href="#SVGID_10_"  style="overflow:visible;"/>
			</clipPath>
			<g class="st4">
				<path class="st5" d="M120.72,102.29c-4.19-3.92-6.75-5.42-11.38-9.89c-1.63-2.25-2.16-4.41-3.47-7.74
					c-0.32-0.81,35.02-13.01,35.88-13.17c1.03-0.19,17.32-1.32,17.89-0.44c1.52,2.36,3.03,4.72,3.13,7.55
					c-8.9,24.02-17.96,50.39-27.06,73.49c-0.2,0.51-0.4,1.09-0.16,1.59c0.2,0.41,5.47-3.75,5.7-3.36c2.27,3.54,4,4.94,4.13,7.55
					c-1.67,4.31-3.71,9.7-5.39,14.01c-0.21,0.55-0.47,1.14-0.99,1.41c-0.46,0.24-1,0.16-1.51,0.07c-5.74-1.01-11.33-2.76-16.9-4.5
					c-7.79-2.44-15.58-4.88-23.36-7.31c-1.48-2.92-2.01-5.07-3.53-7.43c-0.29-0.45,10.76-9.19,11.27-9.34
					c0.51-0.15,1.04,0.06,1.53,0.27c3.12,1.3,6.22,2.59,9.34,3.89c6.29-19.17,15.91-39.64,23.66-58.27
					C133.04,95.17,127.19,97.78,120.72,102.29L120.72,102.29z"/>
				<g>
					<path d="M121.77,101.24c-3.45-3.2-7.28-5.96-10.69-9.23c-1.69-1.62-2.37-3.97-3.16-6.1c-0.09-0.25-0.43-1.6-0.62-1.64
						c0.24,0.05-0.17,1.52-0.56,1.53c0.11,0,0.37-0.21,0.47-0.27c0.23-0.12,0.46-0.22,0.68-0.32c0.55-0.24,0.48-0.21,0.87-0.37
						c0.93-0.38,1.87-0.74,2.8-1.11c2.5-0.96,5.02-1.89,7.55-2.8c5.52-1.99,11.05-3.95,16.6-5.85c1.76-0.61,3.5-1.21,5.27-1.79
						c0.36-0.12,0.72-0.22,1.08-0.35c0.28-0.1-0.45,0.03,0.03-0.01c0.41-0.03,0.81-0.08,1.22-0.11c2.82-0.23,5.64-0.39,8.45-0.51
						c1.47-0.06,2.95-0.11,4.41-0.11c0.54,0,1.07,0,1.61,0.03c0.25,0.01,0.5,0.03,0.74,0.04c0.4,0.03-0.06,0.1,0.27,0.03
						c0,0,0.15,0.02,0.16,0.04c0.19,0.2-0.27-0.19-0.3-0.18c-0.13,0.04-0.27-0.33,0.13,0.34c0.14,0.24,0.3,0.48,0.45,0.71
						c0.68,1.12,1.33,2.27,1.71,3.54c0.18,0.63,0.36,1.23,0.22,1.88c-0.14,0.64-0.49,1.31-0.71,1.92c-0.51,1.37-1,2.73-1.51,4.1
						c-1.97,5.41-3.93,10.81-5.88,16.23c-3.93,10.89-7.83,21.79-11.87,32.64c-1.95,5.25-3.93,10.49-5.96,15.7
						c-0.53,1.34-2.73,5.95,0.38,5.97c1.1,0.01,2.27-1.05,3.13-1.63c0.56-0.38,1.1-0.76,1.67-1.13c0.27-0.18,0.55-0.36,0.82-0.53
						c0.08-0.05,0.21-0.1,0.27-0.15c0.13-0.13,0.04,0.02,0.03-0.02c-0.43-0.09-0.86-0.18-1.29-0.27c0.09,0.13,0.17,0.26,0.26,0.38
						c0.12,0.31,0.42,0.62,0.61,0.88c0.33,0.47,0.66,0.92,0.99,1.39c0.55,0.76,1.14,1.55,1.5,2.42c0.42,1.04,0.09,1.64-0.3,2.65
						c-0.5,1.28-0.98,2.56-1.48,3.84c-0.96,2.51-1.91,5.02-2.89,7.52c-0.13,0.33-0.29,1.23-0.65,1.41c-0.39,0.19-1.63-0.27-2-0.34
						c-1.47-0.3-2.93-0.63-4.38-1c-2.91-0.73-5.77-1.6-8.64-2.49c-5.74-1.79-11.48-3.59-17.21-5.39c-2.81-0.87-5.61-1.76-8.41-2.63
						c0.3,0.23,0.6,0.46,0.89,0.68c-0.98-1.97-1.71-4.07-2.73-6.03c-0.12-0.24-0.25-0.47-0.38-0.69c-0.25-0.59-0.35-0.46-0.28,0.4
						c-0.03,0.11-0.13,0.44-0.24,0.44c0.1,0,0.54-0.56,0.63-0.63c1.6-1.52,3.34-2.89,5.06-4.28c1.53-1.23,3.05-2.5,4.66-3.62
						c0.09-0.06,0.22-0.12,0.29-0.2c0.22-0.25,0.14,0.24-0.18,0.05c0.84,0.52,2.05,0.8,2.97,1.18c2.37,0.99,4.74,1.97,7.11,2.97
						c0.76,0.32,1.61-0.36,1.84-1.04c5.13-15.59,11.81-30.61,18.29-45.65c1.81-4.2,3.61-8.39,5.37-12.61
						c0.5-1.19-1.17-2.38-2.18-1.68c-3.09,2.14-6.32,4.04-9.57,5.92c-1.56,0.9-3.11,1.8-4.63,2.74c-0.79,0.49-1.58,0.98-2.35,1.49
						c-0.7,0.46-1.45,1.13-2.2,1.48c-1.74,0.81-0.23,3.37,1.5,2.57c0.7-0.33,1.36-0.93,2-1.35c0.77-0.51,1.57-1,2.36-1.5
						c1.6-0.98,3.21-1.91,4.83-2.86c3.25-1.89,6.49-3.78,9.57-5.92c-0.72-0.56-1.46-1.12-2.18-1.68c-6.3,15.12-13.16,30-19.03,45.3
						c-1.65,4.29-3.2,8.6-4.64,12.96c0.62-0.35,1.22-0.69,1.84-1.04c-1.71-0.71-3.4-1.42-5.11-2.13c-1.65-0.68-3.42-1.72-5.18-2.04
						c-1.45-0.27-2.3,0.54-3.36,1.35c-2.83,2.15-5.63,4.37-8.28,6.71c-0.69,0.62-1.79,1.38-2.02,2.32c-0.3,1.17,1.01,2.61,1.47,3.61
						c0.68,1.5,1.22,3.1,2,4.55c0.79,1.47,2.88,1.67,4.38,2.14c1.87,0.59,3.74,1.17,5.61,1.76c3.58,1.12,7.16,2.24,10.74,3.36
						c6.86,2.14,13.87,4.77,21.02,5.73c3.68,0.5,4.35-3.61,5.37-6.28c1.22-3.18,2.44-6.38,3.67-9.56c0.94-2.43-0.7-4.77-2.07-6.69
						c-0.39-0.54-0.77-1.07-1.15-1.62c-0.38-0.56-0.71-1.35-1.32-1.7c-0.77-0.45-1.57-0.07-2.25,0.33
						c-1.44,0.83-2.77,1.87-4.17,2.76c-0.1,0.06-0.3,0.12-0.38,0.21c0.48-0.51,0.1,0.06,0.1-0.04c0.58,0.21,1.15,0.42,1.73,0.62
						c0.1-0.27,0.2-0.54,0.31-0.8c0.16-0.42,0.33-0.82,0.49-1.23c0.65-1.67,1.3-3.33,1.93-5c5.12-13.32,9.94-26.75,14.78-40.18
						c2.48-6.89,4.96-13.78,7.48-20.65c0.58-1.58,1.16-3.15,1.75-4.73c0.27-0.71,0.54-1.32,0.51-2.09c-0.04-0.94-0.28-1.9-0.6-2.8
						c-0.51-1.42-1.24-2.75-2.03-4.03c-0.51-0.8-0.87-1.6-1.84-1.89c-1.14-0.34-2.51-0.25-3.68-0.25c-1.87,0-3.74,0.08-5.61,0.17
						c-2.88,0.14-5.79,0.23-8.65,0.6c-1.43,0.18-2.85,0.83-4.2,1.29c-3.07,1.04-6.13,2.1-9.19,3.17
						c-6.53,2.29-13.08,4.56-19.51,7.12c-1.22,0.49-3.63,1.03-4.36,2.3c-0.6,1.04,0.38,2.57,0.74,3.56c0.5,1.33,0.98,2.68,1.64,3.94
						c1.39,2.67,3.94,4.55,6.23,6.45c2.18,1.81,4.39,3.58,6.47,5.52C121.06,104.64,123.18,102.55,121.77,101.24z"/>
				</g>
			</g>
		</g>
	</g>
	<g>
		<g>
			<defs>
				<path id="SVGID_13_" d="M181.38,89.79c0.02,47.44-39.85,85.92-89.06,85.94c-49.2,0.02-89.1-38.43-89.12-85.88
					S43.06,3.93,92.26,3.91S181.36,42.34,181.38,89.79"/>
			</defs>
			<clipPath id="SVGID_14_">
				<use xlink:href="#SVGID_13_"  style="overflow:visible;"/>
			</clipPath>
		</g>
		<g>
			<defs>
				<path id="SVGID_15_" d="M181.38,89.79c0.02,47.44-39.85,85.92-89.06,85.94c-49.2,0.02-89.1-38.43-89.12-85.88
					S43.06,3.93,92.26,3.91S181.36,42.34,181.38,89.79"/>
			</defs>
			<defs>
				<path id="SVGID_16_" d="M181.38,89.79c0.02,47.44-39.85,85.92-89.06,85.94c-49.2,0.02-89.1-38.43-89.12-85.88
					S43.06,3.93,92.26,3.91S181.36,42.34,181.38,89.79"/>
			</defs>
			<clipPath id="SVGID_17_">
				<use xlink:href="#SVGID_15_"  style="overflow:visible;"/>
			</clipPath>
			<clipPath id="SVGID_18_" class="st6">
				<use xlink:href="#SVGID_16_"  style="overflow:visible;"/>
			</clipPath>
			<g class="st7">
				<g>
					<path class="st8" d="M86.81,49.19c-1.14-4.9-2.71-9.84-5.87-13.56c-1.79-2.1-4.09-6.31-6.6-7.33l-2.56-1.24
						c-7.3-3.64-16.96-6.9-33.06,2.06c-7.3,4.07-12.09,12.03-15.83,19.83C17,61.22,14.09,75.32,16.34,88.67s10.03,25.72,21.51,31.45
						c11.48,5.73,26.52,3.89,35.89-5.68c5.47-5.59,8.71-13.19,10.94-20.84C89.69,76.45,90.79,66.37,86.81,49.19z M66.82,83.24
						c-1.14,4.04-2.73,8.07-5.3,11.08c-4.41,5.16-11.27,6.36-16.39,3.54c-5.12-2.82-8.46-9.17-9.27-16.12
						c-0.8-6.94,0.73-14.38,3.6-20.88c1.83-4.15,4.13-8.38,7.5-10.64c7.45-4.95,11.79-3.4,15.04-1.61l1.14,0.61
						c1.12,0.5,2.09,2.66,2.88,3.73c1.38,1.89,2.01,4.45,2.45,7C70.03,68.89,69.37,74.18,66.82,83.24z"/>
				</g>
				<g>
					<path d="M88.23,48.79c-1.16-4.95-2.76-9.9-5.99-13.91c-2.39-2.96-4.19-6.44-7.73-8.16c-5.45-2.63-10.79-4.93-16.99-4.87
						c-4.29,0.04-8.52,1.05-12.5,2.62c-4.8,1.89-9.41,4.3-13.09,7.97c-3.43,3.43-6.11,7.59-8.38,11.86
						c-2.47,4.63-4.59,9.47-6.17,14.49c-5.94,18.83-4.25,41.34,10.4,55.86c6.37,6.31,14.79,10.13,23.81,10.2
						c9.08,0.07,18.1-3.6,24.18-10.42c7.06-7.91,10.13-18.54,12.55-28.63c1.15-4.79,2.01-9.66,2.29-14.58
						c0.27-4.83-0.08-9.65-0.81-14.43C89.4,54.1,88.85,51.44,88.23,48.79c-0.43-1.87-3.3-1.07-2.87,0.79
						c2.13,9.26,3.08,18.61,1.59,28.05c-0.77,4.87-2,9.66-3.36,14.41c-1.35,4.71-2.95,9.37-5.32,13.67
						c-2.23,4.06-5.13,7.83-8.9,10.57c-3.35,2.44-7.19,4.11-11.25,4.96c-8.16,1.73-16.7-0.06-23.54-4.77
						c-15.59-10.73-19.79-31.6-16.3-49.18c1.9-9.57,5.76-19.02,11.22-27.12c2.47-3.66,5.5-7.08,9.32-9.38
						c4.09-2.45,8.63-4.37,13.29-5.35c6.15-1.29,12.18-0.3,17.83,2.37c2.29,1.08,4.56,1.97,6.24,3.95c1.29,1.54,2.35,3.25,3.61,4.8
						c1.52,1.86,2.69,3.95,3.56,6.18c0.86,2.22,1.48,4.52,2.02,6.84C85.8,51.45,88.68,50.66,88.23,48.79z"/>
					<path d="M65.4,82.84c-1.28,4.49-3.08,9.27-6.83,12.29c-2.98,2.4-7.03,3.36-10.72,2.26c-8.35-2.5-10.97-13.22-10.67-20.81
						c0.19-4.84,1.39-9.64,3.22-14.12c1.7-4.13,3.87-8.72,7.74-11.21c2.92-1.88,6.46-3.48,9.99-2.63c1.13,0.28,2.14,0.75,3.17,1.3
						c0.41,0.22,0.85,0.4,1.23,0.65c0.71,0.49,1.13,1.38,1.57,2.09c0.6,0.98,1.29,1.89,1.74,2.96c0.52,1.24,0.82,2.57,1.08,3.88
						c0.52,2.66,0.84,5.36,0.91,8.06C67.95,72.79,66.79,77.83,65.4,82.84c-0.52,1.85,2.35,2.64,2.87,0.79
						c1.41-5.06,2.59-10.21,2.54-15.49c-0.03-2.72-0.35-5.43-0.79-8.12c-0.43-2.58-1-5.28-2.46-7.51c-1.05-1.62-1.95-3.61-3.68-4.61
						c-1.13-0.65-2.32-1.26-3.55-1.73c-3.63-1.37-7.42-0.71-10.85,0.9c-2.38,1.12-4.61,2.61-6.33,4.61
						c-1.68,1.96-2.97,4.21-4.08,6.52C36.66,63.2,35,68.46,34.39,73.96c-1,9.08,1.49,21.14,10.59,25.49
						c4.5,2.15,9.87,1.68,14.05-1.01c5.13-3.3,7.61-9.16,9.23-14.81C68.79,81.79,65.92,81,65.4,82.84z"/>
				</g>
			</g>
		</g>
	</g>
	<g>
		<g>
			<defs>
				<path id="SVGID_19_" d="M181.38,89.79c0.02,47.44-39.85,85.92-89.06,85.94c-49.2,0.02-89.1-38.43-89.12-85.88
					S43.06,3.93,92.26,3.91S181.36,42.34,181.38,89.79"/>
			</defs>
			<clipPath id="SVGID_20_">
				<use xlink:href="#SVGID_19_"  style="overflow:visible;"/>
			</clipPath>
		</g>
		<g>
			<defs>
				<path id="SVGID_21_" d="M181.38,89.79c0.02,47.44-39.85,85.92-89.06,85.94c-49.2,0.02-89.1-38.43-89.12-85.88
					S43.06,3.93,92.26,3.91S181.36,42.34,181.38,89.79"/>
			</defs>
			<defs>
				<path id="SVGID_22_" d="M181.38,89.79c0.02,47.44-39.85,85.92-89.06,85.94c-49.2,0.02-89.1-38.43-89.12-85.88
					S43.06,3.93,92.26,3.91S181.36,42.34,181.38,89.79"/>
			</defs>
			<clipPath id="SVGID_23_">
				<use xlink:href="#SVGID_21_"  style="overflow:visible;"/>
			</clipPath>
			<clipPath id="SVGID_24_" class="st9">
				<use xlink:href="#SVGID_22_"  style="overflow:visible;"/>
			</clipPath>
			<g class="st10">
				<g>
					<path d="M41.12,114.31c1.65,6.54,4.19,12.86,7.48,18.74c0.36-1.36,0.71-2.72,1.07-4.07c-5.15,2.42-10.63,4.07-16.23,5.03
						c-1.54,0.27-2.54,2.24-2.08,3.66c1.16,3.57,2.63,7.04,4.39,10.37c0.75,1.42,2.73,1.86,4.07,1.07c1.44-0.84,1.82-2.65,1.07-4.07
						c-1.52-2.88-2.78-5.85-3.78-8.95c-0.69,1.22-1.39,2.44-2.08,3.66c6.13-1.05,12.02-2.99,17.65-5.63
						c1.48-0.69,1.8-2.77,1.07-4.07c-3.07-5.46-5.35-11.25-6.89-17.32C45.92,109.03,40.18,110.59,41.12,114.31L41.12,114.31z"/>
				</g>
			</g>
		</g>
	</g>
	<g>
		<g>
			<defs>
				<path id="SVGID_25_" d="M181.38,89.79c0.02,47.44-39.85,85.92-89.06,85.94c-49.2,0.02-89.1-38.43-89.12-85.88
					S43.06,3.93,92.26,3.91S181.36,42.34,181.38,89.79"/>
			</defs>
			<clipPath id="SVGID_26_">
				<use xlink:href="#SVGID_25_"  style="overflow:visible;"/>
			</clipPath>
		</g>
		<g>
			<defs>
				<path id="SVGID_27_" d="M181.38,89.79c0.02,47.44-39.85,85.92-89.06,85.94c-49.2,0.02-89.1-38.43-89.12-85.88
					S43.06,3.93,92.26,3.91S181.36,42.34,181.38,89.79"/>
			</defs>
			<defs>
				<path id="SVGID_28_" d="M181.38,89.79c0.02,47.44-39.85,85.92-89.06,85.94c-49.2,0.02-89.1-38.43-89.12-85.88
					S43.06,3.93,92.26,3.91S181.36,42.34,181.38,89.79"/>
			</defs>
			<clipPath id="SVGID_29_">
				<use xlink:href="#SVGID_27_"  style="overflow:visible;"/>
			</clipPath>
			<clipPath id="SVGID_30_" class="st11">
				<use xlink:href="#SVGID_28_"  style="overflow:visible;"/>
			</clipPath>
			<g class="st12">
				<g>
					<path d="M68.59,113.01c1.14,3.34,2.27,6.7,3.41,10.04c0.56,1.64,1.11,3.26,1.67,4.9c0.27,0.77,0.53,1.56,0.79,2.33
						c0.16,0.47,0.32,0.93,0.48,1.4c0.05,0.16,0.11,0.31,0.16,0.47c0.17,0.65,0.23,0.41,0.18-0.74c0.36-0.36,0.71-0.71,1.07-1.07
						c-1.7,1.28-4.08,2.02-6.07,2.74c-1.12,0.4-2.26,0.76-3.41,1.08c-1.18,0.33-2.57,0.49-3.63,1.12c-2.67,1.61-2.1,4.73-1.66,7.33
						c0.44,2.55,1.3,4.97,2.38,7.31c0.67,1.46,2.78,1.83,4.07,1.07c1.5-0.87,1.75-2.61,1.07-4.07c-0.77-1.66-1.31-3.43-1.67-5.23
						c-0.06-0.29-0.23-2.59-0.33-2.64c0.42,0.23-2.41,1.82-0.39,1.31c0.44-0.11,0.86-0.22,1.3-0.34c1.87-0.51,3.71-1.12,5.52-1.84
						c1.83-0.71,3.86-1.43,5.53-2.49c2.33-1.49,2.25-3.74,1.46-6.07c-0.68-2.02-1.38-4.05-2.06-6.07c-1.38-4.05-2.75-8.1-4.13-12.14
						c-0.52-1.52-2.04-2.52-3.66-2.08C69.19,109.77,68.06,111.49,68.59,113.01L68.59,113.01z"/>
				</g>
			</g>
		</g>
	</g>
	<g>
		<g>
			<defs>
				<path id="SVGID_31_" d="M181.38,89.79c0.02,47.44-39.85,85.92-89.06,85.94c-49.2,0.02-89.1-38.43-89.12-85.88
					S43.06,3.93,92.26,3.91S181.36,42.34,181.38,89.79"/>
			</defs>
			<clipPath id="SVGID_32_">
				<use xlink:href="#SVGID_31_"  style="overflow:visible;"/>
			</clipPath>
		</g>
		<g>
			<defs>
				<path id="SVGID_33_" d="M181.38,89.79c0.02,47.44-39.85,85.92-89.06,85.94c-49.2,0.02-89.1-38.43-89.12-85.88
					S43.06,3.93,92.26,3.91S181.36,42.34,181.38,89.79"/>
			</defs>
			<defs>
				<path id="SVGID_34_" d="M181.38,89.79c0.02,47.44-39.85,85.92-89.06,85.94c-49.2,0.02-89.1-38.43-89.12-85.88
					S43.06,3.93,92.26,3.91S181.36,42.34,181.38,89.79"/>
			</defs>
			<clipPath id="SVGID_35_">
				<use xlink:href="#SVGID_33_"  style="overflow:visible;"/>
			</clipPath>
			<clipPath id="SVGID_36_" class="st13">
				<use xlink:href="#SVGID_34_"  style="overflow:visible;"/>
			</clipPath>
			<g class="st14">
				<g>
					<path d="M93.43,61.35c7.56-2.99,14.92-7.69,19.99-14.15c2.74-3.49,4.33-7.48,4.4-11.95c0.07-4.37-1.22-8.59-3.06-12.51
						c-0.68-1.46-2.78-1.83-4.07-1.07c-1.49,0.87-1.76,2.61-1.07,4.07c1.39,2.96,2.3,6.22,2.24,9.5c-0.05,3.29-1.33,6.23-3.45,8.72
						c-4.4,5.13-10.29,9.16-16.56,11.64c-1.5,0.59-2.54,1.99-2.08,3.66C90.16,60.7,91.93,61.94,93.43,61.35L93.43,61.35z"/>
				</g>
			</g>
		</g>
	</g>
	<g>
		<g>
			<defs>
				<path id="SVGID_37_" d="M181.38,89.79c0.02,47.44-39.85,85.92-89.06,85.94c-49.2,0.02-89.1-38.43-89.12-85.88
					S43.06,3.93,92.26,3.91S181.36,42.34,181.38,89.79"/>
			</defs>
			<clipPath id="SVGID_38_">
				<use xlink:href="#SVGID_37_"  style="overflow:visible;"/>
			</clipPath>
		</g>
		<g>
			<defs>
				<path id="SVGID_39_" d="M181.38,89.79c0.02,47.44-39.85,85.92-89.06,85.94c-49.2,0.02-89.1-38.43-89.12-85.88
					S43.06,3.93,92.26,3.91S181.36,42.34,181.38,89.79"/>
			</defs>
			<defs>
				<path id="SVGID_40_" d="M181.38,89.79c0.02,47.44-39.85,85.92-89.06,85.94c-49.2,0.02-89.1-38.43-89.12-85.88
					S43.06,3.93,92.26,3.91S181.36,42.34,181.38,89.79"/>
			</defs>
			<clipPath id="SVGID_41_">
				<use xlink:href="#SVGID_39_"  style="overflow:visible;"/>
			</clipPath>
			<clipPath id="SVGID_42_" class="st15">
				<use xlink:href="#SVGID_40_"  style="overflow:visible;"/>
			</clipPath>
			<g class="st16">
				<g>
					<path d="M99.94,20.29c2.83,3.58,7.58,5.4,12.06,4.53c4.03-0.77,7.76-4.34,8.34-8.45c0.22-1.54-0.38-3.27-2.08-3.66
						c-1.41-0.32-3.42,0.43-3.66,2.08c-0.05,0.36-0.12,0.7-0.23,1.05c-0.01,0.03-0.19,0.69-0.07,0.25c0.12-0.43-0.07,0.13-0.12,0.23
						c-0.12,0.23-0.34,0.78-0.57,0.91c0.25-0.14,0.29-0.34-0.01-0.01c-0.12,0.14-0.24,0.27-0.37,0.4c-0.13,0.13-0.26,0.25-0.4,0.37
						c-0.21,0.18-0.28,0.44,0.01,0.01c-0.15,0.23-0.67,0.45-0.92,0.58c-0.16,0.09-0.33,0.16-0.49,0.24c-0.35,0.18,0.66-0.21,0-0.02
						c-0.35,0.1-0.69,0.2-1.05,0.28c-0.49,0.11,0.12,0,0.13-0.01c-0.01,0.04-0.66,0.04-0.7,0.04c-0.16,0-0.32,0-0.48-0.01
						c-0.12,0-0.24-0.01-0.36-0.02c-0.23-0.02-0.16-0.01,0.21,0.04c-0.32,0.06-0.85-0.17-1.15-0.25c-0.15-0.04-0.31-0.09-0.46-0.14
						c-0.01,0-0.7-0.28-0.31-0.11c0.39,0.17-0.22-0.11-0.29-0.15c-0.18-0.09-0.35-0.19-0.53-0.29c-0.17-0.1-0.34-0.21-0.51-0.32
						c0,0-0.61-0.44-0.28-0.19c0.33,0.25-0.19-0.17-0.25-0.22c-0.15-0.13-0.3-0.27-0.44-0.41c-0.31-0.31-0.6-0.63-0.86-0.98
						c-0.97-1.23-3.2-1.09-4.21,0C98.75,17.38,98.91,18.98,99.94,20.29L99.94,20.29z"/>
				</g>
			</g>
		</g>
	</g>
	<g>
		<g>
			<defs>
				<path id="SVGID_43_" d="M181.38,89.79c0.02,47.44-39.85,85.92-89.06,85.94c-49.2,0.02-89.1-38.43-89.12-85.88
					S43.06,3.93,92.26,3.91S181.36,42.34,181.38,89.79"/>
			</defs>
			<clipPath id="SVGID_44_">
				<use xlink:href="#SVGID_43_"  style="overflow:visible;"/>
			</clipPath>
		</g>
		<g>
			<defs>
				<path id="SVGID_45_" d="M181.38,89.79c0.02,47.44-39.85,85.92-89.06,85.94c-49.2,0.02-89.1-38.43-89.12-85.88
					S43.06,3.93,92.26,3.91S181.36,42.34,181.38,89.79"/>
			</defs>
			<defs>
				<path id="SVGID_46_" d="M181.38,89.79c0.02,47.44-39.85,85.92-89.06,85.94c-49.2,0.02-89.1-38.43-89.12-85.88
					S43.06,3.93,92.26,3.91S181.36,42.34,181.38,89.79"/>
			</defs>
			<clipPath id="SVGID_47_">
				<use xlink:href="#SVGID_45_"  style="overflow:visible;"/>
			</clipPath>
			<clipPath id="SVGID_48_" class="st17">
				<use xlink:href="#SVGID_46_"  style="overflow:visible;"/>
			</clipPath>
			<g class="st18">
				<g>
					<path d="M106.92,15.58c0.07,0.15,0.13,0.3,0.2,0.45c-0.1-0.24-0.2-0.48-0.3-0.71c1.04,2.46,1.79,5.03,2.15,7.68
						c-0.04-0.27-0.07-0.53-0.11-0.79c0.01,0.1,0.03,0.2,0.04,0.3c0.11,0.82,0.27,1.5,0.87,2.1c0.52,0.52,1.36,0.9,2.1,0.87
						c0.77-0.03,1.57-0.29,2.1-0.87c0.5-0.54,0.97-1.34,0.87-2.1c-0.22-1.7-0.51-3.35-0.97-5c-0.48-1.7-1.12-3.32-1.83-4.93
						c-0.28-0.63-1.14-1.19-1.78-1.37c-0.71-0.2-1.66-0.11-2.29,0.3s-1.19,1.02-1.37,1.78c-0.04,0.27-0.07,0.53-0.11,0.79
						C106.51,14.61,106.65,15.11,106.92,15.58L106.92,15.58z"/>
				</g>
			</g>
		</g>
	</g>
	<g>
		<g>
			<defs>
				<path id="SVGID_49_" d="M181.38,89.79c0.02,47.44-39.85,85.92-89.06,85.94c-49.2,0.02-89.1-38.43-89.12-85.88
					S43.06,3.93,92.26,3.91S181.36,42.34,181.38,89.79"/>
			</defs>
			<clipPath id="SVGID_50_">
				<use xlink:href="#SVGID_49_"  style="overflow:visible;"/>
			</clipPath>
		</g>
		<g>
			<defs>
				<path id="SVGID_51_" d="M181.38,89.79c0.02,47.44-39.85,85.92-89.06,85.94c-49.2,0.02-89.1-38.43-89.12-85.88
					S43.06,3.93,92.26,3.91S181.36,42.34,181.38,89.79"/>
			</defs>
			<defs>
				<path id="SVGID_52_" d="M181.38,89.79c0.02,47.44-39.85,85.92-89.06,85.94c-49.2,0.02-89.1-38.43-89.12-85.88
					S43.06,3.93,92.26,3.91S181.36,42.34,181.38,89.79"/>
			</defs>
			<clipPath id="SVGID_53_">
				<use xlink:href="#SVGID_51_"  style="overflow:visible;"/>
			</clipPath>
			<clipPath id="SVGID_54_" class="st19">
				<use xlink:href="#SVGID_52_"  style="overflow:visible;"/>
			</clipPath>
			<g class="st20">
				<g>
					<path d="M124.26,105.27c-3.11-0.08-6.22-0.01-9.32-0.37c-1.14-0.13-2.77-0.48-4.07-0.93c-1.09-0.39-2.1-1-2.97-1.83
						c-2.31-2.19-4.57-4.79-5.49-7.91c-0.72-2.48-0.62-5.69-0.25-8.51c0.43-3.22,1.26-6.49,2.5-9.49c1.05-2.55,3.02-5.52,4.83-7.95
						c2.93-3.92,6.93-6.94,10.75-9.94c4.54-3.58,9.51-7.13,14.12-10.98c1.23-1.03,1.06-3.15,0-4.21c-1.22-1.22-2.98-1.03-4.21,0
						c-0.85,0.71-1.73,1.41-2.61,2.1c-0.38,0.3-1.11,0.86-1.27,0.99c-0.3,0.23-1.14,0.87-1.65,1.27c-2.56,1.95-5.12,3.91-7.66,5.89
						c-4.38,3.42-8.76,6.83-12.15,11.26c-4.44,5.8-7.35,12.21-8.4,19.48c-0.52,3.56-0.72,7.18,0.01,10.72
						c0.81,3.91,3.27,7.36,5.97,10.21c2.81,2.96,6.07,4.75,10.1,5.44c3.89,0.66,7.8,0.61,11.73,0.7
						C128.09,111.32,128.09,105.36,124.26,105.27L124.26,105.27z"/>
				</g>
			</g>
		</g>
	</g>
	<g>
		<g>
			<defs>
				<path id="SVGID_55_" d="M181.38,89.79c0.02,47.44-39.85,85.92-89.06,85.94c-49.2,0.02-89.1-38.43-89.12-85.88
					S43.06,3.93,92.26,3.91S181.36,42.34,181.38,89.79"/>
			</defs>
			<clipPath id="SVGID_56_">
				<use xlink:href="#SVGID_55_"  style="overflow:visible;"/>
			</clipPath>
		</g>
		<g>
			<defs>
				<path id="SVGID_57_" d="M181.38,89.79c0.02,47.44-39.85,85.92-89.06,85.94c-49.2,0.02-89.1-38.43-89.12-85.88
					S43.06,3.93,92.26,3.91S181.36,42.34,181.38,89.79"/>
			</defs>
			<defs>
				<path id="SVGID_58_" d="M181.38,89.79c0.02,47.44-39.85,85.92-89.06,85.94c-49.2,0.02-89.1-38.43-89.12-85.88
					S43.06,3.93,92.26,3.91S181.36,42.34,181.38,89.79"/>
			</defs>
			<clipPath id="SVGID_59_">
				<use xlink:href="#SVGID_57_"  style="overflow:visible;"/>
			</clipPath>
			<clipPath id="SVGID_60_" class="st21">
				<use xlink:href="#SVGID_58_"  style="overflow:visible;"/>
			</clipPath>
			<g class="st22">
				<g>
					<path d="M123.18,39.45c-2.24,1.97-4.36,4.61-4.88,7.63c-0.57,3.27,0.63,6.37,3.25,8.4c2.25,1.74,5.15,2.5,7.97,2.16
						c3.27-0.39,6.21-1.84,8.99-3.56c1.32-0.82,1.95-2.7,1.07-4.07c-0.85-1.33-2.66-1.94-4.07-1.07c-1.01,0.63-2.03,1.23-3.11,1.76
						c-0.1,0.05-1.11,0.48-0.54,0.26c-0.26,0.1-0.51,0.2-0.76,0.29c-0.52,0.17-1.03,0.32-1.56,0.43c-0.18,0.04-0.36,0.07-0.53,0.1
						c0.35-0.04,0.34-0.05-0.01-0.01c-0.26,0.01-0.51,0.03-0.75,0.03c-0.22,0-0.44-0.02-0.65-0.03c-0.66-0.04,0.53,0.14-0.07-0.01
						c-0.41-0.1-1.13-0.15-1.47-0.42c0.34,0.15,0.41,0.18,0.21,0.09c-0.1-0.05-0.2-0.09-0.29-0.14c-0.23-0.12-0.44-0.25-0.65-0.38
						c-0.63-0.42,0.25,0.3-0.16-0.11c-0.15-0.15-0.31-0.29-0.46-0.44c-0.07-0.08-0.14-0.16-0.21-0.24
						c-0.14-0.17-0.09-0.11,0.15,0.19c-0.17-0.05-0.26-0.51-0.38-0.63c-0.1-0.2-0.07-0.12,0.08,0.23c-0.05-0.13-0.1-0.27-0.14-0.41
						c-0.05-0.17-0.15-0.85-0.08-0.16c-0.02-0.25-0.03-0.49-0.03-0.73c0-0.16,0.02-0.33,0.03-0.49c-0.05,0.35-0.05,0.41-0.01,0.19
						c0.1-0.26,0.16-0.56,0.23-0.83c0.17-0.59-0.24,0.38,0.09-0.21c0.28-0.5,0.54-0.97,0.86-1.43c0.08-0.11,0.15-0.21,0.23-0.32
						c-0.2,0.26-0.19,0.26,0.03-0.01c0.18-0.19,0.35-0.4,0.53-0.59c0.42-0.45,0.85-0.85,1.31-1.26c1.17-1.03,1.13-3.17,0-4.21
						C126.13,38.3,124.43,38.35,123.18,39.45L123.18,39.45z"/>
				</g>
			</g>
		</g>
	</g>
	<g>
		<g>
			<defs>
				<path id="SVGID_61_" d="M181.38,89.79c0.02,47.44-39.85,85.92-89.06,85.94c-49.2,0.02-89.1-38.43-89.12-85.88
					S43.06,3.93,92.26,3.91S181.36,42.34,181.38,89.79"/>
			</defs>
			<clipPath id="SVGID_62_">
				<use xlink:href="#SVGID_61_"  style="overflow:visible;"/>
			</clipPath>
		</g>
		<g>
			<defs>
				<path id="SVGID_63_" d="M181.38,89.79c0.02,47.44-39.85,85.92-89.06,85.94c-49.2,0.02-89.1-38.43-89.12-85.88
					S43.06,3.93,92.26,3.91S181.36,42.34,181.38,89.79"/>
			</defs>
			<defs>
				<path id="SVGID_64_" d="M181.38,89.79c0.02,47.44-39.85,85.92-89.06,85.94c-49.2,0.02-89.1-38.43-89.12-85.88
					S43.06,3.93,92.26,3.91S181.36,42.34,181.38,89.79"/>
			</defs>
			<clipPath id="SVGID_65_">
				<use xlink:href="#SVGID_63_"  style="overflow:visible;"/>
			</clipPath>
			<clipPath id="SVGID_66_" class="st23">
				<use xlink:href="#SVGID_64_"  style="overflow:visible;"/>
			</clipPath>
			<g class="st24">
				<g>
					<path d="M142.65,114.38c7.1,9.14,19.15,14.06,30.6,12.28c5.79-0.89,11.37-3.8,14.84-8.61c1.75-2.42,2.89-5.45,2.83-8.45
						c-0.06-3.28-1.51-6.2-3.5-8.73c-4.18-5.31-10.16-9.47-16.27-12.23c-1.47-0.66-3.2-0.42-4.07,1.07
						c-0.74,1.27-0.41,3.4,1.07,4.07c4.73,2.13,9.06,5.02,12.74,8.7c1.58,1.58,3.2,3.36,3.83,5.56c0.59,2.03,0.08,4.04-0.99,5.84
						c-2.36,3.99-6.87,6.1-11.27,6.92c-4.48,0.82-9.12,0.12-13.37-1.47c-4.85-1.81-9.05-5.09-12.21-9.16
						c-0.99-1.27-3.17-1.04-4.21,0C141.4,111.44,141.66,113.11,142.65,114.38L142.65,114.38z"/>
				</g>
			</g>
		</g>
	</g>
	<g>
		<g>
			<defs>
				<path id="SVGID_67_" d="M181.38,89.79c0.02,47.44-39.85,85.92-89.06,85.94c-49.2,0.02-89.1-38.43-89.12-85.88
					S43.06,3.93,92.26,3.91S181.36,42.34,181.38,89.79"/>
			</defs>
			<clipPath id="SVGID_68_">
				<use xlink:href="#SVGID_67_"  style="overflow:visible;"/>
			</clipPath>
		</g>
		<g>
			<defs>
				<path id="SVGID_69_" d="M181.38,89.79c0.02,47.44-39.85,85.92-89.06,85.94c-49.2,0.02-89.1-38.43-89.12-85.88
					S43.06,3.93,92.26,3.91S181.36,42.34,181.38,89.79"/>
			</defs>
			<defs>
				<path id="SVGID_70_" d="M181.38,89.79c0.02,47.44-39.85,85.92-89.06,85.94c-49.2,0.02-89.1-38.43-89.12-85.88
					S43.06,3.93,92.26,3.91S181.36,42.34,181.38,89.79"/>
			</defs>
			<clipPath id="SVGID_71_">
				<use xlink:href="#SVGID_69_"  style="overflow:visible;"/>
			</clipPath>
			<clipPath id="SVGID_72_" class="st25">
				<use xlink:href="#SVGID_70_"  style="overflow:visible;"/>
			</clipPath>
			<g class="st26">
				<g>
					<path d="M165.77,101.27c4.09-0.01,8.58-1.1,11.56-4.08c3.02-3.02,3.24-7.38,1.23-11.01c-1.22-2.19-3.12-3.93-5.18-5.31
						c-1.3-0.86-3.35-0.3-4.07,1.07c-0.79,1.5-0.32,3.15,1.07,4.07c0.28,0.18,0.55,0.37,0.8,0.57c-0.41-0.31-0.04-0.03,0.14,0.14
						c0.41,0.35,0.78,0.72,1.14,1.11c0.02,0.03,0.41,0.51,0.43,0.5c-0.25-0.32-0.27-0.36-0.08-0.09c0.08,0.11,0.16,0.23,0.24,0.35
						c0.22,0.34,0.4,0.69,0.6,1.05c0.14,0.3,0.11,0.24-0.07-0.18c0.05,0.12,0.09,0.24,0.13,0.36c0.06,0.18,0.12,0.36,0.16,0.54
						c0.03,0.13,0.11,0.85,0.09,0.31c-0.02-0.57,0.01,0.21,0.01,0.31c0.01,0.18-0.01,0.35-0.01,0.52c0,0.53,0.17-0.74-0.02,0.06
						c-0.04,0.17-0.1,0.33-0.14,0.5c-0.14,0.55,0.36-0.62,0.01-0.01c-0.1,0.17-0.19,0.35-0.29,0.51c-0.05,0.07-0.09,0.14-0.14,0.21
						c-0.13,0.18-0.06,0.1,0.21-0.26c-0.3,0.18-0.6,0.65-0.87,0.89c-0.56,0.48,0.01-0.01,0.02,0c0.01,0.01-0.6,0.4-0.64,0.43
						c-0.38,0.23-0.77,0.42-1.17,0.62c-0.2,0.09-0.13,0.06,0.23-0.09c-0.13,0.05-0.27,0.11-0.4,0.16c-0.21,0.08-0.42,0.15-0.63,0.21
						c-0.51,0.16-1.02,0.29-1.54,0.4c-0.23,0.05-0.46,0.08-0.69,0.13c-0.34,0.05-0.32,0.05,0.08-0.01
						c-0.16,0.02-0.32,0.04-0.49,0.05c-0.58,0.05-1.15,0.07-1.74,0.07c-1.56,0-3.05,1.37-2.98,2.98
						C162.86,99.91,164.09,101.28,165.77,101.27L165.77,101.27z"/>
				</g>
			</g>
		</g>
	</g>
	<g>
		<g>
			<defs>
				<path id="SVGID_73_" d="M181.38,89.79c0.02,47.44-39.85,85.92-89.06,85.94c-49.2,0.02-89.1-38.43-89.12-85.88
					S43.06,3.93,92.26,3.91S181.36,42.34,181.38,89.79"/>
			</defs>
			<clipPath id="SVGID_74_">
				<use xlink:href="#SVGID_73_"  style="overflow:visible;"/>
			</clipPath>
		</g>
		<g>
			<defs>
				<path id="SVGID_75_" d="M181.38,89.79c0.02,47.44-39.85,85.92-89.06,85.94c-49.2,0.02-89.1-38.43-89.12-85.88
					S43.06,3.93,92.26,3.91S181.36,42.34,181.38,89.79"/>
			</defs>
			<defs>
				<path id="SVGID_76_" d="M181.38,89.79c0.02,47.44-39.85,85.92-89.06,85.94c-49.2,0.02-89.1-38.43-89.12-85.88
					S43.06,3.93,92.26,3.91S181.36,42.34,181.38,89.79"/>
			</defs>
			<clipPath id="SVGID_77_">
				<use xlink:href="#SVGID_75_"  style="overflow:visible;"/>
			</clipPath>
			<clipPath id="SVGID_78_" class="st27">
				<use xlink:href="#SVGID_76_"  style="overflow:visible;"/>
			</clipPath>
			<g class="st28">
				<path class="st29" d="M117.36,94.44c-4.19-3.92-6.75-5.42-11.38-9.89c8.79-5.78,22.49-14.1,30.11-19.7
					c0.7-0.52,1.44-1.04,2.3-1.2c1.03-0.19,2.07,0.17,3.06,0.53c7.87,2.87,10.09,3.72,17.96,6.59
					c-8.9,24.02-17.96,50.39-27.06,73.49c-0.2,0.51-0.4,1.09-0.16,1.59c0.2,0.41,0.63,0.62,1.05,0.8c4.82,2.19,3.97,1.19,8.78,3.38
					c-1.67,4.31-3.71,9.7-5.39,14.01c-0.21,0.55-0.47,1.14-0.99,1.41c-0.46,0.24-1,0.16-1.51,0.07c-5.74-1.01-11.33-2.76-16.9-4.5
					c-7.79-2.44-15.58-4.88-23.36-7.31c1.89-6.23,2.89-10.36,6.58-15.72c0.3-0.44,0.64-0.9,1.16-1.04c0.51-0.15,1.04,0.06,1.53,0.27
					c3.12,1.3,6.22,2.59,9.34,3.89c6.29-19.17,15.91-39.64,23.66-58.27C129.68,87.32,123.82,89.94,117.36,94.44L117.36,94.44z"/>
				<g>
					<path d="M118.41,93.39c-3.68-3.42-7.75-6.4-11.38-9.89c-0.1,0.78-0.2,1.56-0.3,2.34c6.62-4.36,13.36-8.51,20-12.83
						c3.08-2,6.15-4.03,9.14-6.17c0.67-0.49,1.33-1.04,2.06-1.44c1.12-0.61,2.22-0.11,3.34,0.3c1.95,0.7,3.91,1.43,5.86,2.14
						c3.96,1.46,7.91,2.92,11.87,4.36c-0.35-0.62-0.69-1.22-1.04-1.84c-9.02,24.35-17.55,48.85-26.9,73.07
						c-0.55,1.42-0.76,2.84,0.51,3.93c1.04,0.88,2.66,1.35,3.93,1.83c1.93,0.71,3.88,1.26,5.76,2.11c-0.23-0.56-0.46-1.12-0.68-1.68
						c-1.61,4.16-3.19,8.33-4.8,12.5c-0.19,0.5-0.35,1.04-0.59,1.52c-0.31,0.61-0.48,0.47-1.13,0.36c-1.24-0.2-2.48-0.49-3.7-0.77
						c-2.38-0.56-4.73-1.21-7.07-1.9c-9.71-2.89-19.36-6.03-29.02-9.06c0.35,0.62,0.69,1.22,1.04,1.84
						c1.27-4.22,2.41-8.49,4.56-12.37c0.57-1.01,1.15-2.08,1.87-3c0.34-0.43,0.17-0.38,0.63-0.24c0.65,0.2,1.29,0.54,1.92,0.79
						c2.59,1.08,5.19,2.16,7.78,3.24c0.76,0.32,1.61-0.36,1.84-1.04c5.13-15.59,11.81-30.61,18.29-45.65
						c1.81-4.2,3.61-8.39,5.37-12.61c0.5-1.19-1.17-2.38-2.18-1.68c-3.09,2.14-6.32,4.04-9.57,5.92c-1.56,0.9-3.11,1.8-4.63,2.74
						c-0.79,0.49-1.58,0.98-2.35,1.49c-0.7,0.46-1.45,1.13-2.2,1.48c-1.74,0.81-0.23,3.37,1.5,2.57c0.7-0.33,1.36-0.93,2-1.35
						c0.77-0.51,1.57-1,2.36-1.5c1.6-0.98,3.21-1.91,4.83-2.86c3.25-1.89,6.49-3.78,9.57-5.92c-0.72-0.56-1.46-1.12-2.18-1.68
						c-6.3,15.12-13.16,30-19.03,45.3c-1.65,4.29-3.2,8.6-4.64,12.96c0.62-0.35,1.22-0.69,1.84-1.04c-2.97-1.23-5.92-2.48-8.89-3.7
						c-1.24-0.52-2.47-0.82-3.65,0.01c-1.01,0.7-1.68,2.02-2.31,3.06c-2.7,4.42-4.09,9.37-5.57,14.29c-0.24,0.79,0.29,1.6,1.04,1.84
						c8.31,2.6,16.63,5.22,24.95,7.81c3.99,1.24,8,2.45,12.07,3.36c1.66,0.37,4.09,1.29,5.72,0.51c1.54-0.73,1.95-2.63,2.51-4.09
						c1.58-4.1,3.14-8.2,4.72-12.3c0.22-0.56-0.13-1.43-0.68-1.68c-1.71-0.77-3.42-1.42-5.2-1.98c-0.81-0.26-1.62-0.55-2.4-0.88
						c-0.31-0.13-1.45-0.47-1.51-0.75c-0.12-0.51,0.57-1.6,0.76-2.12c2.2-5.64,4.35-11.29,6.45-16.96
						c4.36-11.74,8.57-23.52,12.82-35.3c2.36-6.54,4.73-13.07,7.14-19.58c0.3-0.79-0.34-1.58-1.04-1.84
						c-3.65-1.33-7.29-2.67-10.93-4.01c-1.89-0.69-3.8-1.4-5.69-2.08c-2.28-0.83-4.44-1.68-6.74-0.4c-1.51,0.84-2.89,2.03-4.32,3.03
						c-1.58,1.09-3.18,2.16-4.79,3.21c-3.53,2.32-7.1,4.59-10.68,6.87c-3.82,2.43-7.64,4.84-11.42,7.33
						c-0.78,0.52-1.02,1.65-0.3,2.34c3.63,3.49,7.69,6.47,11.38,9.89C117.71,96.8,119.82,94.7,118.41,93.39z"/>
				</g>
			</g>
		</g>
	</g>
	<g>
		<g>
			<defs>
				<path id="SVGID_79_" d="M181.38,89.79c0.02,47.44-39.85,85.92-89.06,85.94c-49.2,0.02-89.1-38.43-89.12-85.88
					S43.06,3.93,92.26,3.91S181.36,42.34,181.38,89.79"/>
			</defs>
			<clipPath id="SVGID_80_">
				<use xlink:href="#SVGID_79_"  style="overflow:visible;"/>
			</clipPath>
		</g>
		<g>
			<defs>
				<path id="SVGID_81_" d="M181.38,89.79c0.02,47.44-39.85,85.92-89.06,85.94c-49.2,0.02-89.1-38.43-89.12-85.88
					S43.06,3.93,92.26,3.91S181.36,42.34,181.38,89.79"/>
			</defs>
			<defs>
				<path id="SVGID_82_" d="M181.38,89.79c0.02,47.44-39.85,85.92-89.06,85.94c-49.2,0.02-89.1-38.43-89.12-85.88
					S43.06,3.93,92.26,3.91S181.36,42.34,181.38,89.79"/>
			</defs>
			<clipPath id="SVGID_83_">
				<use xlink:href="#SVGID_81_"  style="overflow:visible;"/>
			</clipPath>
			<clipPath id="SVGID_84_" class="st30">
				<use xlink:href="#SVGID_82_"  style="overflow:visible;"/>
			</clipPath>
			<g class="st31">
				<g>
					<path class="st32" d="M93.89,44.65c-1.14-4.9-2.71-9.84-5.87-13.56c-1.79-2.1-4.09-6.31-6.6-7.33l-2.56-1.24
						c-7.3-3.64-16.96-6.9-33.06,2.06c-7.3,4.07-12.09,12.03-15.83,19.83c-5.88,12.27-8.79,26.37-6.55,39.71
						s10.03,25.72,21.51,31.45c11.48,5.73,26.52,3.89,35.89-5.68c5.47-5.59,8.71-13.19,10.94-20.84
						C96.79,71.91,97.88,61.83,93.89,44.65z M73.92,78.7c-1.14,4.04-2.73,8.07-5.3,11.08c-4.41,5.16-11.27,6.36-16.39,3.54
						s-8.46-9.17-9.27-16.12c-0.8-6.94,0.73-14.38,3.6-20.88c1.83-4.15,4.13-8.38,7.5-10.64c7.45-4.95,11.79-3.4,15.04-1.61
						l1.14,0.61c1.12,0.5,2.09,2.66,2.88,3.73c1.38,1.89,2.01,4.45,2.45,7C77.12,64.35,76.47,69.64,73.92,78.7z"/>
				</g>
				<g>
					<path d="M95.33,44.25c-1.16-4.95-2.76-9.9-5.99-13.91c-2.39-2.96-4.19-6.44-7.73-8.16c-5.45-2.63-10.79-4.93-16.99-4.87
						c-4.29,0.04-8.52,1.05-12.5,2.62c-4.8,1.89-9.41,4.3-13.09,7.97c-3.43,3.43-6.11,7.59-8.38,11.86
						c-2.47,4.63-4.59,9.47-6.17,14.49c-5.94,18.83-4.25,41.34,10.4,55.86c6.37,6.31,14.79,10.13,23.81,10.2
						c9.08,0.07,18.1-3.6,24.18-10.42c7.06-7.91,10.13-18.54,12.55-28.63c1.15-4.79,2.01-9.66,2.29-14.58
						c0.27-4.83-0.08-9.65-0.81-14.43C96.48,49.57,95.93,46.9,95.33,44.25c-0.43-1.87-3.3-1.07-2.87,0.79
						c2.13,9.26,3.08,18.61,1.59,28.05c-0.77,4.87-2,9.66-3.36,14.41c-1.35,4.71-2.95,9.37-5.32,13.67
						c-2.23,4.06-5.13,7.83-8.9,10.57c-3.35,2.44-7.19,4.11-11.25,4.96c-8.16,1.73-16.7-0.06-23.54-4.77
						c-15.59-10.73-19.79-31.59-16.3-49.17c1.9-9.57,5.76-19.02,11.22-27.12c2.47-3.66,5.5-7.08,9.32-9.38
						c4.09-2.45,8.63-4.37,13.29-5.35c6.15-1.29,12.18-0.3,17.83,2.37c2.29,1.08,4.56,1.97,6.24,3.95c1.29,1.54,2.35,3.25,3.61,4.8
						c1.52,1.86,2.69,3.95,3.56,6.18c0.86,2.22,1.48,4.52,2.02,6.84C92.9,46.91,95.76,46.11,95.33,44.25z"/>
					<path d="M72.48,78.3c-1.28,4.49-3.08,9.27-6.83,12.29c-2.98,2.4-7.03,3.36-10.72,2.26c-8.35-2.5-10.97-13.22-10.67-20.81
						c0.19-4.84,1.39-9.64,3.22-14.12c1.7-4.13,3.87-8.72,7.74-11.21c2.92-1.88,6.46-3.48,9.99-2.63c1.13,0.28,2.14,0.75,3.17,1.3
						c0.41,0.22,0.85,0.4,1.23,0.65c0.71,0.49,1.13,1.38,1.57,2.09c0.6,0.98,1.29,1.89,1.74,2.96c0.52,1.24,0.82,2.57,1.08,3.88
						c0.52,2.66,0.84,5.36,0.91,8.06C75.04,68.25,73.88,73.3,72.48,78.3c-0.52,1.85,2.35,2.64,2.87,0.79
						c1.41-5.06,2.59-10.21,2.54-15.49c-0.03-2.72-0.35-5.43-0.79-8.12c-0.43-2.58-1-5.28-2.46-7.51c-1.05-1.62-1.95-3.61-3.68-4.61
						c-1.13-0.65-2.32-1.26-3.55-1.73c-3.63-1.37-7.42-0.71-10.85,0.9c-2.38,1.12-4.61,2.61-6.33,4.61
						c-1.68,1.96-2.97,4.21-4.08,6.52c-2.39,4.98-4.06,10.24-4.66,15.74c-1,9.08,1.49,21.14,10.59,25.49
						c4.5,2.15,9.87,1.68,14.05-1.01c5.13-3.3,7.61-9.16,9.23-14.81C75.88,77.25,73.01,76.45,72.48,78.3z"/>
				</g>
			</g>
		</g>
	</g>
	<g>
		<g>
			<defs>
				<path id="SVGID_85_" d="M181.38,89.79c0.02,47.44-39.85,85.92-89.06,85.94c-49.2,0.02-89.1-38.43-89.12-85.88
					S43.06,3.93,92.26,3.91S181.36,42.34,181.38,89.79"/>
			</defs>
			<clipPath id="SVGID_86_">
				<use xlink:href="#SVGID_85_"  style="overflow:visible;"/>
			</clipPath>
		</g>
		<g>
			<defs>
				<path id="SVGID_87_" d="M181.38,89.79c0.02,47.44-39.85,85.92-89.06,85.94c-49.2,0.02-89.1-38.43-89.12-85.88
					S43.06,3.93,92.26,3.91S181.36,42.34,181.38,89.79"/>
			</defs>
			<defs>
				<path id="SVGID_88_" d="M181.38,89.79c0.02,47.44-39.85,85.92-89.06,85.94c-49.2,0.02-89.1-38.43-89.12-85.88
					S43.06,3.93,92.26,3.91S181.36,42.34,181.38,89.79"/>
			</defs>
			<clipPath id="SVGID_89_">
				<use xlink:href="#SVGID_87_"  style="overflow:visible;"/>
			</clipPath>
			<clipPath id="SVGID_90_" class="st33">
				<use xlink:href="#SVGID_88_"  style="overflow:visible;"/>
			</clipPath>
			<g class="st34">
				<g>
					<path d="M139.38,71.5c-0.02-0.01-0.03-0.02-0.05-0.03c0.1,0.08,0.2,0.16,0.3,0.23c-0.12-0.1-0.22-0.2-0.32-0.32
						c0.08,0.1,0.16,0.2,0.23,0.3c-0.09-0.12-0.17-0.25-0.23-0.39c0.05,0.12,0.1,0.24,0.15,0.36c-0.07-0.18-0.12-0.36-0.15-0.55
						C139.35,71.24,139.37,71.36,139.38,71.5c-0.02-0.16-0.02-0.31,0-0.46c-0.02,0.13-0.04,0.27-0.05,0.4
						c0.02-0.15,0.06-0.3,0.11-0.44c-0.48,0.37-0.95,0.72-1.44,1.09c0.11,0,0.23,0.01,0.34,0.02c-0.13-0.02-0.27-0.04-0.4-0.05
						c0.21,0.03,0.41,0.09,0.6,0.17c-0.12-0.05-0.24-0.1-0.36-0.15c0.19,0.08,0.37,0.18,0.54,0.31c-0.1-0.08-0.2-0.16-0.3-0.23
						c0.13,0.11,0.25,0.22,0.35,0.35c-0.08-0.1-0.16-0.2-0.23-0.3c0.09,0.12,0.16,0.24,0.22,0.38c-0.05-0.12-0.1-0.24-0.15-0.36
						c0.05,0.12,0.08,0.23,0.1,0.36c-0.02-0.13-0.04-0.27-0.05-0.4c0.02,0.14,0.02,0.27,0,0.41c0.02-0.13,0.04-0.27,0.05-0.4
						c-0.02,0.14-0.06,0.27-0.11,0.4c0.05-0.12,0.1-0.24,0.15-0.36c-0.06,0.14-0.14,0.28-0.23,0.4c0.08-0.1,0.16-0.2,0.23-0.3
						c-0.08,0.09-0.16,0.18-0.25,0.25c0.1-0.08,0.2-0.16,0.3-0.23c-0.09,0.07-0.19,0.13-0.3,0.18c0.12-0.05,0.24-0.1,0.36-0.15
						c-0.09,0.04-0.19,0.06-0.29,0.08c0.13-0.02,0.27-0.04,0.4-0.05c-0.1,0.01-0.19,0.01-0.29,0c0.13,0.02,0.27,0.04,0.4,0.05
						c-0.16-0.02-0.31-0.06-0.46-0.13c0.12,0.05,0.24,0.1,0.36,0.15c-0.17-0.08-0.33-0.17-0.48-0.28c0.1,0.08,0.2,0.16,0.3,0.23
						c-0.16-0.12-0.29-0.26-0.41-0.42c0.08,0.1,0.16,0.2,0.23,0.3c-0.14-0.19-0.25-0.39-0.34-0.6c0.05,0.12,0.1,0.24,0.15,0.36
						c-0.09-0.22-0.15-0.44-0.18-0.66c0.02,0.13,0.04,0.27,0.05,0.4c-0.03-0.23-0.03-0.45-0.01-0.67c-0.02,0.13-0.04,0.27-0.05,0.4
						c0.03-0.19,0.07-0.37,0.14-0.54c-0.05,0.12-0.1,0.24-0.15,0.36c0.06-0.14,0.14-0.28,0.23-0.4c-0.08,0.1-0.16,0.2-0.23,0.3
						c0.09-0.11,0.19-0.21,0.3-0.3c-0.1,0.08-0.2,0.16-0.3,0.23c0.1-0.07,0.2-0.14,0.31-0.18c-0.12,0.05-0.24,0.1-0.36,0.15
						c0.11-0.04,0.22-0.07,0.33-0.09c-0.13,0.02-0.27,0.04-0.4,0.05c0.13-0.01,0.26-0.01,0.38,0c-0.13-0.02-0.27-0.04-0.4-0.05
						c0.16,0.02,0.31,0.07,0.46,0.13c-0.12-0.05-0.24-0.1-0.36-0.15c0.16,0.07,0.32,0.16,0.46,0.27c-0.1-0.08-0.2-0.16-0.3-0.23
						c0.14,0.11,0.26,0.23,0.37,0.37c-0.08-0.1-0.16-0.2-0.23-0.3c0.08,0.11,0.16,0.23,0.21,0.36c-0.05-0.12-0.1-0.24-0.15-0.36
						c0.05,0.11,0.08,0.23,0.1,0.35c-0.02-0.13-0.04-0.27-0.05-0.4c0.01,0.09,0.01,0.18,0,0.28c0.02-0.13,0.04-0.27,0.05-0.4
						c-0.01,0.1-0.04,0.18-0.07,0.27c0.05-0.12,0.1-0.24,0.15-0.36c-0.09,0.21-0.2,0.41-0.3,0.62c0.05-0.12,0.1-0.24,0.15-0.36
						c-0.02,0.05-0.05,0.09-0.08,0.14c0.08-0.1,0.16-0.2,0.23-0.3c-0.05,0.06-0.1,0.12-0.17,0.17c0.1-0.08,0.2-0.16,0.3-0.23
						c-0.06,0.05-0.13,0.08-0.21,0.12c0.12-0.05,0.24-0.1,0.36-0.15c-0.09,0.03-0.18,0.06-0.27,0.07c0.13-0.02,0.27-0.04,0.4-0.05
						c-0.11,0.01-0.22,0.01-0.33,0c0.13,0.02,0.27,0.04,0.4,0.05c-0.11-0.01-0.21-0.04-0.32-0.08c0.12,0.05,0.24,0.1,0.36,0.15
						c-0.09-0.04-0.17-0.08-0.24-0.14c0.1,0.08,0.2,0.16,0.3,0.23c-0.06-0.05-0.12-0.1-0.17-0.17c0.08,0.1,0.16,0.2,0.23,0.3
						c-0.04-0.05-0.07-0.11-0.1-0.17c0.05,0.12,0.1,0.24,0.15,0.36c-0.01-0.04-0.03-0.08-0.04-0.12c-0.2-0.75-1.07-1.29-1.84-1.04
						c-0.77,0.25-1.25,1.02-1.04,1.84c0.29,1.08,1.28,1.71,2.35,1.77c0.47,0.03,0.95-0.1,1.36-0.32c0.2-0.1,0.39-0.25,0.54-0.41
						c0.27-0.29,0.4-0.56,0.55-0.91c-0.05,0.12-0.1,0.24-0.15,0.36c0.27-0.38,0.39-0.85,0.41-1.31c0.03-0.47-0.12-0.89-0.31-1.31
						c-0.28-0.61-0.83-1.14-1.41-1.45c-0.71-0.38-1.61-0.57-2.39-0.3c-0.87,0.29-1.53,0.93-1.89,1.77c-0.61,1.45-0.21,3.22,0.9,4.33
						c0.77,0.76,1.88,1.19,2.96,0.94c0.99-0.23,1.72-1.07,2.03-2c0.37-1.07,0.01-2.23-0.73-3.05c-0.69-0.75-1.76-1.15-2.76-1.16
						c-0.33,0-0.64,0.12-0.9,0.32c-0.28,0.21-0.41,0.45-0.54,0.77c-0.24,0.62-0.23,1.38-0.04,2.01c0.1,0.32,0.23,0.63,0.42,0.91
						c0.28,0.41,0.54,0.64,0.93,0.93c0.29,0.22,0.81,0.24,1.15,0.15c0.35-0.1,0.72-0.36,0.89-0.68c0.18-0.35,0.28-0.76,0.15-1.15
						c-0.05-0.12-0.1-0.24-0.15-0.36C139.79,71.82,139.61,71.64,139.38,71.5L139.38,71.5z"/>
				</g>
			</g>
		</g>
	</g>
	<g>
		<g>
			<defs>
				<path id="SVGID_91_" d="M181.38,89.79c0.02,47.44-39.85,85.92-89.06,85.94c-49.2,0.02-89.1-38.43-89.12-85.88
					S43.06,3.93,92.26,3.91S181.36,42.34,181.38,89.79"/>
			</defs>
			<clipPath id="SVGID_92_">
				<use xlink:href="#SVGID_91_"  style="overflow:visible;"/>
			</clipPath>
		</g>
		<g>
			<defs>
				<path id="SVGID_93_" d="M181.38,89.79c0.02,47.44-39.85,85.92-89.06,85.94c-49.2,0.02-89.1-38.43-89.12-85.88
					S43.06,3.93,92.26,3.91S181.36,42.34,181.38,89.79"/>
			</defs>
			<defs>
				<path id="SVGID_94_" d="M181.38,89.79c0.02,47.44-39.85,85.92-89.06,85.94c-49.2,0.02-89.1-38.43-89.12-85.88
					S43.06,3.93,92.26,3.91S181.36,42.34,181.38,89.79"/>
			</defs>
			<clipPath id="SVGID_95_">
				<use xlink:href="#SVGID_93_"  style="overflow:visible;"/>
			</clipPath>
			<clipPath id="SVGID_96_" class="st35">
				<use xlink:href="#SVGID_94_"  style="overflow:visible;"/>
			</clipPath>
			<g class="st36">
				<g>
					<path d="M148.68,72.86c-0.06-0.04-0.12-0.07-0.18-0.12c0.1,0.08,0.2,0.16,0.3,0.23c-0.1-0.08-0.18-0.16-0.26-0.26
						c0.08,0.1,0.16,0.2,0.23,0.3c-0.06-0.09-0.11-0.18-0.16-0.27c0.05,0.12,0.1,0.24,0.15,0.36c-0.05-0.12-0.08-0.23-0.1-0.35
						c0.02,0.13,0.04,0.27,0.05,0.4c0-0.02,0-0.04-0.01-0.05c-0.15,0.35-0.29,0.7-0.44,1.05c0.01-0.01,0.02-0.02,0.03-0.03
						c-0.1,0.08-0.2,0.16-0.3,0.23c0.05-0.04,0.1-0.07,0.16-0.09c-0.12,0.05-0.24,0.1-0.36,0.15c0.03-0.01,0.06-0.02,0.09-0.03
						c-0.13,0.02-0.27,0.04-0.4,0.05c0.04,0,0.07-0.01,0.11,0c-0.13-0.02-0.27-0.04-0.4-0.05c0.03,0.01,0.05,0.01,0.07,0.02
						c-0.12-0.05-0.24-0.1-0.36-0.15c0.02,0.01,0.04,0.02,0.06,0.04c-0.1-0.08-0.2-0.16-0.3-0.23c0.03,0.02,0.05,0.05,0.07,0.08
						c-0.08-0.1-0.16-0.2-0.23-0.3c0.03,0.04,0.05,0.08,0.07,0.13c-0.05-0.12-0.1-0.24-0.15-0.36c0.03,0.08,0.05,0.15,0.06,0.23
						c-0.02-0.13-0.04-0.27-0.05-0.4c0.02,0.13,0.02,0.27,0,0.4c0.02-0.13,0.04-0.27,0.05-0.4c-0.02,0.14-0.06,0.28-0.11,0.42
						c0.05-0.12,0.1-0.24,0.15-0.36c-0.04,0.1-0.09,0.19-0.15,0.27c0.18-0.18,0.36-0.36,0.54-0.54c-0.17,0.12-0.35,0.23-0.54,0.31
						c0.12-0.05,0.24-0.1,0.36-0.15c-0.11,0.04-0.23,0.08-0.35,0.1c0.13-0.02,0.27-0.04,0.4-0.05c-0.1,0.01-0.19,0.01-0.29,0
						c0.13,0.02,0.27,0.04,0.4,0.05c-0.1-0.02-0.19-0.04-0.28-0.08c0.12,0.05,0.24,0.1,0.36,0.15c-0.14-0.06-0.27-0.14-0.39-0.24
						c0.1,0.08,0.2,0.16,0.3,0.23c-0.23-0.18-0.44-0.39-0.63-0.61c0.08,0.1,0.16,0.2,0.23,0.3c-0.11-0.14-0.2-0.29-0.27-0.46
						c0.05,0.12,0.1,0.24,0.15,0.36c-0.07-0.18-0.12-0.36-0.15-0.55c0.02,0.13,0.04,0.27,0.05,0.4c-0.03-0.21-0.03-0.41,0-0.62
						c-0.02,0.13-0.04,0.27-0.05,0.4c0.03-0.2,0.08-0.4,0.16-0.59c-0.05,0.12-0.1,0.24-0.15,0.36c0.06-0.15,0.14-0.28,0.24-0.41
						c-0.08,0.1-0.16,0.2-0.23,0.3c0.09-0.11,0.19-0.22,0.3-0.31c-0.1,0.08-0.2,0.16-0.3,0.23c0.12-0.09,0.24-0.16,0.37-0.22
						c-0.12,0.05-0.24,0.1-0.36,0.15c0.13-0.05,0.26-0.09,0.4-0.11c-0.13,0.02-0.27,0.04-0.4,0.05c0.15-0.02,0.31-0.02,0.46,0
						c-0.13-0.02-0.27-0.04-0.4-0.05c0.18,0.03,0.36,0.08,0.53,0.15c-0.12-0.05-0.24-0.1-0.36-0.15c0.16,0.07,0.3,0.15,0.44,0.26
						c-0.1-0.08-0.2-0.16-0.3-0.23c0.12,0.09,0.23,0.2,0.33,0.32c-0.08-0.1-0.16-0.2-0.23-0.3c0.08,0.11,0.15,0.23,0.21,0.35
						c-0.05-0.12-0.1-0.24-0.15-0.36c0.05,0.12,0.08,0.23,0.1,0.36c-0.02-0.13-0.04-0.27-0.05-0.4c0.01,0.12,0.01,0.24,0,0.36
						c0.02-0.13,0.04-0.27,0.05-0.4c-0.02,0.12-0.05,0.24-0.1,0.36c0.05-0.12,0.1-0.24,0.15-0.36c-0.06,0.13-0.12,0.25-0.21,0.36
						c0.08-0.1,0.16-0.2,0.23-0.3c-0.1,0.12-0.21,0.23-0.33,0.33c0.1-0.08,0.2-0.16,0.3-0.23c-0.13,0.1-0.26,0.18-0.4,0.24
						c0.12-0.05,0.24-0.1,0.36-0.15c-0.14,0.06-0.29,0.1-0.45,0.13c0.13-0.02,0.27-0.04,0.4-0.05c-0.12,0.01-0.24,0.02-0.37,0
						c0.13,0.02,0.27,0.04,0.4,0.05c-0.12-0.02-0.24-0.05-0.35-0.09c0.12,0.05,0.24,0.1,0.36,0.15c-0.12-0.05-0.23-0.11-0.33-0.19
						c0.1,0.08,0.2,0.16,0.3,0.23c-0.1-0.08-0.19-0.17-0.27-0.27c0.08,0.1,0.16,0.2,0.23,0.3c-0.1-0.13-0.17-0.26-0.24-0.4
						c0.05,0.12,0.1,0.24,0.15,0.36c-0.06-0.15-0.1-0.3-0.13-0.45c0.02,0.13,0.04,0.27,0.05,0.4c-0.02-0.16-0.02-0.31,0-0.47
						c-0.02,0.13-0.04,0.27-0.05,0.4c0.02-0.14,0.06-0.28,0.11-0.41c-0.05,0.12-0.1,0.24-0.15,0.36c0.05-0.1,0.1-0.2,0.17-0.29
						c-0.43,0.25-0.85,0.5-1.29,0.73c0.12-0.01,0.23-0.01,0.34,0.01c-0.13-0.02-0.27-0.04-0.4-0.05c0.11,0.02,0.22,0.05,0.33,0.09
						c-0.12-0.05-0.24-0.1-0.36-0.15c0.14,0.06,0.26,0.13,0.38,0.22c-0.1-0.08-0.2-0.16-0.3-0.23c0.1,0.08,0.19,0.18,0.28,0.28
						c-0.08-0.1-0.16-0.2-0.23-0.3c0.07,0.09,0.13,0.19,0.18,0.29c-0.05-0.12-0.1-0.24-0.15-0.36c0.05,0.11,0.08,0.21,0.1,0.33
						c0.06,0.35,0.39,0.71,0.68,0.89c0.32,0.19,0.79,0.27,1.15,0.15c0.36-0.12,0.7-0.34,0.89-0.68c0.2-0.38,0.23-0.73,0.15-1.15
						c-0.02-0.11-0.05-0.21-0.09-0.31c-0.08-0.21-0.16-0.43-0.29-0.62c-0.27-0.39-0.55-0.66-0.93-0.93
						c-0.09-0.06-0.18-0.11-0.28-0.15c-0.21-0.09-0.42-0.19-0.63-0.24c-0.22-0.04-0.44-0.08-0.66-0.08c-0.12,0-0.23,0.02-0.35,0.03
						c-0.19,0.03-0.39,0.08-0.56,0.18c-0.23,0.13-0.39,0.33-0.54,0.54c-0.35,0.48-0.53,1.15-0.5,1.74c0.03,0.61,0.2,1.24,0.56,1.74
						c0.43,0.59,0.99,1.08,1.73,1.24c0.76,0.17,1.53,0.05,2.21-0.32c0.55-0.29,1.06-0.79,1.32-1.36c0.2-0.42,0.31-0.79,0.33-1.26
						c0.01-0.21-0.03-0.43-0.06-0.63c-0.02-0.1-0.04-0.19-0.07-0.28c-0.15-0.43-0.34-0.73-0.62-1.08c-0.19-0.23-0.42-0.41-0.65-0.58
						c-0.51-0.37-1.13-0.53-1.75-0.59c-0.6-0.05-1.25,0.11-1.76,0.42c-0.52,0.32-0.97,0.79-1.22,1.34
						c-0.26,0.58-0.43,1.18-0.39,1.82c0.05,0.63,0.2,1.25,0.55,1.79c0.76,1.14,2.14,2.14,3.57,1.68c0.34-0.11,0.66-0.26,0.95-0.47
						c0.27-0.19,0.51-0.41,0.66-0.7c0.1-0.19,0.19-0.4,0.25-0.6c0.1-0.29,0.14-0.62,0.14-0.91c0-0.35-0.07-0.67-0.2-0.99
						c-0.17-0.39-0.42-0.73-0.79-0.94c-0.43-0.24-0.95-0.31-1.42-0.16c-0.18,0.06-0.37,0.14-0.53,0.25
						c-0.23,0.17-0.41,0.32-0.57,0.57c-0.24,0.38-0.21,0.78-0.14,1.2c0.02,0.11,0.05,0.22,0.09,0.33c0.09,0.22,0.17,0.44,0.31,0.63
						c0.27,0.38,0.58,0.69,0.98,0.93c0.34,0.19,0.77,0.26,1.15,0.15c0.35-0.1,0.71-0.36,0.89-0.68
						C149.6,74.19,149.41,73.27,148.68,72.86L148.68,72.86z"/>
				</g>
			</g>
		</g>
	</g>
	<g>
		<g>
			<defs>
				<path id="SVGID_97_" d="M181.38,89.79c0.02,47.44-39.85,85.92-89.06,85.94c-49.2,0.02-89.1-38.43-89.12-85.88
					S43.06,3.93,92.26,3.91S181.36,42.34,181.38,89.79"/>
			</defs>
			<clipPath id="SVGID_98_">
				<use xlink:href="#SVGID_97_"  style="overflow:visible;"/>
			</clipPath>
		</g>
		<g>
			<defs>
				<path id="SVGID_99_" d="M181.38,89.79c0.02,47.44-39.85,85.92-89.06,85.94c-49.2,0.02-89.1-38.43-89.12-85.88
					S43.06,3.93,92.26,3.91S181.36,42.34,181.38,89.79"/>
			</defs>
			<defs>
				<path id="SVGID_100_" d="M181.38,89.79c0.02,47.44-39.85,85.92-89.06,85.94c-49.2,0.02-89.1-38.43-89.12-85.88
					S43.06,3.93,92.26,3.91S181.36,42.34,181.38,89.79"/>
			</defs>
			<clipPath id="SVGID_101_">
				<use xlink:href="#SVGID_99_"  style="overflow:visible;"/>
			</clipPath>
			<clipPath id="SVGID_102_" class="st37">
				<use xlink:href="#SVGID_100_"  style="overflow:visible;"/>
			</clipPath>
			<g class="st38">
				<g>
					<path d="M114.74,91.13c4.48-1.39,8.36-4.5,10.64-8.63c0.39-0.7,0.17-1.63-0.54-2.03c-0.68-0.4-1.65-0.17-2.03,0.54
						c-0.25,0.46-0.53,0.91-0.81,1.34c-0.14,0.21-0.29,0.41-0.44,0.62c-0.06,0.08-0.06,0.08,0.01,0c-0.03,0.04-0.06,0.08-0.09,0.12
						c-0.09,0.12-0.19,0.23-0.29,0.35c-0.66,0.78-1.39,1.51-2.18,2.15c-0.1,0.08-0.2,0.16-0.29,0.24c0.16-0.12-0.06,0.04-0.12,0.09
						c-0.2,0.15-0.41,0.29-0.62,0.44c-0.44,0.29-0.88,0.57-1.35,0.81c-0.44,0.24-0.88,0.46-1.35,0.65c0.23-0.1-0.2,0.08-0.2,0.08
						c-0.12,0.05-0.24,0.09-0.35,0.13c-0.26,0.09-0.52,0.18-0.78,0.26c-0.76,0.24-1.26,1.04-1.04,1.84
						C113.12,90.84,113.97,91.37,114.74,91.13L114.74,91.13z"/>
				</g>
			</g>
		</g>
	</g>
	<g>
		<g>
			<defs>
				<path id="SVGID_103_" d="M181.38,89.79c0.02,47.44-39.85,85.92-89.06,85.94c-49.2,0.02-89.1-38.43-89.12-85.88
					S43.06,3.93,92.26,3.91S181.36,42.34,181.38,89.79"/>
			</defs>
			<clipPath id="SVGID_104_">
				<use xlink:href="#SVGID_103_"  style="overflow:visible;"/>
			</clipPath>
		</g>
		<g>
			<defs>
				<path id="SVGID_105_" d="M181.38,89.79c0.02,47.44-39.85,85.92-89.06,85.94c-49.2,0.02-89.1-38.43-89.12-85.88
					S43.06,3.93,92.26,3.91S181.36,42.34,181.38,89.79"/>
			</defs>
			<defs>
				<path id="SVGID_106_" d="M181.38,89.79c0.02,47.44-39.85,85.92-89.06,85.94c-49.2,0.02-89.1-38.43-89.12-85.88
					S43.06,3.93,92.26,3.91S181.36,42.34,181.38,89.79"/>
			</defs>
			<clipPath id="SVGID_107_">
				<use xlink:href="#SVGID_105_"  style="overflow:visible;"/>
			</clipPath>
			<clipPath id="SVGID_108_" class="st39">
				<use xlink:href="#SVGID_106_"  style="overflow:visible;"/>
			</clipPath>
			<g class="st40">
				<g>
					<path d="M52.26,29.95c0.09,0.05,0.17,0.1,0.26,0.17c-0.1-0.08-0.2-0.16-0.3-0.23c0.11,0.09,0.21,0.19,0.3,0.3
						c-0.08-0.1-0.16-0.2-0.23-0.3c0.1,0.13,0.18,0.27,0.25,0.42c-0.05-0.12-0.1-0.24-0.15-0.36c0.06,0.15,0.1,0.31,0.13,0.47
						c-0.02-0.13-0.04-0.27-0.05-0.4c0.02,0.14,0.02,0.28,0,0.43c0.5-0.5,0.99-0.99,1.49-1.49c-0.08,0-0.16,0-0.24-0.01
						c0.13,0.02,0.27,0.04,0.4,0.05c-0.14-0.02-0.27-0.06-0.4-0.11c0.12,0.05,0.24,0.1,0.36,0.15c-0.13-0.06-0.24-0.13-0.35-0.21
						c0.1,0.08,0.2,0.16,0.3,0.23c-0.14-0.11-0.25-0.23-0.36-0.37c0.08,0.1,0.16,0.2,0.23,0.3c-0.11-0.15-0.21-0.32-0.28-0.49
						c0.05,0.12,0.1,0.24,0.15,0.36c-0.07-0.18-0.12-0.36-0.14-0.55c0.02,0.13,0.04,0.27,0.05,0.4c-0.02-0.15-0.02-0.31,0-0.46
						c-0.02,0.13-0.04,0.27-0.05,0.4c0.02-0.14,0.05-0.27,0.1-0.4c-0.05,0.12-0.1,0.24-0.15,0.36c0.05-0.11,0.11-0.22,0.18-0.32
						c-0.08,0.1-0.16,0.2-0.23,0.3c0.08-0.1,0.16-0.19,0.26-0.27c-0.1,0.08-0.2,0.16-0.3,0.23c0.1-0.07,0.2-0.13,0.31-0.18
						c-0.12,0.05-0.24,0.1-0.36,0.15c0.14-0.06,0.28-0.1,0.43-0.12c-0.13,0.02-0.27,0.04-0.4,0.05c0.17-0.02,0.33-0.02,0.5,0
						c-0.13-0.02-0.27-0.04-0.4-0.05c0.2,0.03,0.39,0.08,0.58,0.16c-0.12-0.05-0.24-0.1-0.36-0.15c0.17,0.07,0.33,0.17,0.48,0.28
						c-0.1-0.08-0.2-0.16-0.3-0.23c0.12,0.09,0.23,0.2,0.32,0.32c-0.08-0.1-0.16-0.2-0.23-0.3c0.08,0.11,0.15,0.22,0.21,0.34
						c-0.05-0.12-0.1-0.24-0.15-0.36c0.05,0.13,0.09,0.26,0.11,0.39c-0.02-0.13-0.04-0.27-0.05-0.4c0.02,0.15,0.01,0.31-0.01,0.46
						c0.02-0.13,0.04-0.27,0.05-0.4c-0.03,0.15-0.07,0.29-0.12,0.44c0.05-0.12,0.1-0.24,0.15-0.36c-0.08,0.18-0.17,0.35-0.29,0.51
						c0.08-0.1,0.16-0.2,0.23-0.3c-0.12,0.15-0.26,0.29-0.42,0.41c0.1-0.08,0.2-0.16,0.3-0.23c-0.13,0.09-0.26,0.17-0.41,0.24
						c0.12-0.05,0.24-0.1,0.36-0.15c-0.19,0.08-0.38,0.13-0.59,0.16c0.13-0.02,0.27-0.04,0.4-0.05c-0.2,0.02-0.41,0.02-0.61,0
						c0.13,0.02,0.27,0.04,0.4,0.05c-0.22-0.03-0.43-0.09-0.63-0.17c0.12,0.05,0.24,0.1,0.36,0.15c-0.19-0.08-0.36-0.18-0.52-0.3
						c0.1,0.08,0.2,0.16,0.3,0.23c-0.13-0.1-0.25-0.22-0.35-0.35c0.08,0.1,0.16,0.2,0.23,0.3c-0.1-0.13-0.19-0.28-0.25-0.43
						c0.05,0.12,0.1,0.24,0.15,0.36c-0.05-0.14-0.09-0.27-0.11-0.42c0.02,0.13,0.04,0.27,0.05,0.4c-0.02-0.15-0.02-0.29,0-0.44
						c-0.02,0.13-0.04,0.27-0.05,0.4c0.03-0.18,0.08-0.36,0.15-0.53c-0.05,0.12-0.1,0.24-0.15,0.36c0.08-0.17,0.17-0.33,0.28-0.48
						c-0.08,0.1-0.16,0.2-0.23,0.3c0.11-0.15,0.24-0.28,0.39-0.4c-0.1,0.08-0.2,0.16-0.3,0.23c0.15-0.11,0.3-0.2,0.47-0.28
						c-0.12,0.05-0.24,0.1-0.36,0.15c0.13-0.05,0.27-0.09,0.41-0.11c-0.13,0.02-0.27,0.04-0.4,0.05c0.15-0.02,0.29-0.02,0.43,0
						c-0.13-0.02-0.27-0.04-0.4-0.05c0.11,0.02,0.22,0.05,0.32,0.09c-0.12-0.05-0.24-0.1-0.36-0.15c0.12,0.05,0.23,0.12,0.34,0.2
						c-0.1-0.08-0.2-0.16-0.3-0.23c0.1,0.08,0.19,0.18,0.27,0.28c-0.08-0.1-0.16-0.2-0.23-0.3c0.1,0.13,0.18,0.27,0.24,0.42
						c-0.05-0.12-0.1-0.24-0.15-0.36c0.07,0.17,0.12,0.34,0.14,0.52c-0.02-0.13-0.04-0.27-0.05-0.4c0.02,0.18,0.03,0.35,0.01,0.53
						c0.02-0.13,0.04-0.27,0.05-0.4c-0.02,0.16-0.06,0.31-0.12,0.46c0.05-0.12,0.1-0.24,0.15-0.36c-0.05,0.1-0.1,0.2-0.17,0.29
						c0.08-0.1,0.16-0.2,0.23-0.3c-0.07,0.09-0.15,0.17-0.24,0.24c0.1-0.08,0.2-0.16,0.3-0.23c-0.05,0.04-0.1,0.07-0.15,0.1
						c0.25-0.07,0.5-0.14,0.75-0.2c-0.02,0-0.03,0-0.05,0c0.13,0.02,0.27,0.04,0.4,0.05c-0.05-0.01-0.09-0.02-0.14-0.04
						c0.12,0.05,0.24,0.1,0.36,0.15c-0.03-0.01-0.06-0.03-0.08-0.05c0.1,0.08,0.2,0.16,0.3,0.23c-0.04-0.03-0.07-0.06-0.11-0.1
						c0.08,0.1,0.16,0.2,0.23,0.3c-0.03-0.04-0.05-0.08-0.08-0.13c0.05,0.12,0.1,0.24,0.15,0.36c-0.02-0.05-0.03-0.09-0.04-0.14
						c0.02,0.13,0.04,0.27,0.05,0.4c-0.01-0.05-0.01-0.1,0-0.15c-0.02,0.13-0.04,0.27-0.05,0.4c0.01-0.03,0.01-0.06,0.03-0.09
						c-0.05,0.12-0.1,0.24-0.15,0.36c0.01-0.01,0.01-0.03,0.02-0.04c0.18-0.36,0.26-0.74,0.15-1.15c-0.1-0.35-0.36-0.71-0.68-0.89
						c-0.67-0.36-1.67-0.21-2.03,0.54c-0.32,0.63-0.33,1.29-0.01,1.92c0.24,0.48,0.71,0.85,1.22,0.99c0.44,0.12,0.92,0.07,1.31-0.16
						c0.18-0.11,0.34-0.24,0.5-0.38c0.22-0.2,0.41-0.45,0.54-0.7c0.27-0.54,0.42-1.14,0.36-1.75c-0.07-0.61-0.22-1.21-0.58-1.71
						c-0.43-0.59-0.98-1.06-1.7-1.24c-0.78-0.2-1.61-0.07-2.31,0.33c-1.34,0.74-2.05,2.34-1.74,3.83c0.27,1.27,1.47,2.28,2.71,2.53
						c0.65,0.13,1.35,0.15,1.98-0.06c0.8-0.27,1.42-0.75,1.9-1.44c0.87-1.23,0.75-2.98-0.32-4.04c-0.87-0.85-2.26-1.28-3.44-0.89
						c-1.31,0.42-2.24,1.71-2.09,3.11c0.07,0.63,0.24,1.24,0.62,1.77c0.45,0.62,0.98,1.05,1.7,1.31c0.3,0.11,0.63,0.15,0.94,0.14
						c0.37-0.01,0.79-0.16,1.05-0.44c0.29-0.31,0.39-0.63,0.44-1.05c0.07-0.61-0.12-1.24-0.4-1.78c-0.28-0.53-0.74-0.99-1.26-1.28
						c-0.68-0.38-1.66-0.19-2.03,0.54C51.36,28.61,51.53,29.55,52.26,29.95L52.26,29.95z"/>
				</g>
			</g>
		</g>
	</g>
	<g>
		<g>
			<defs>
				<path id="SVGID_109_" d="M181.38,89.79c0.02,47.44-39.85,85.92-89.06,85.94c-49.2,0.02-89.1-38.43-89.12-85.88
					S43.06,3.93,92.26,3.91S181.36,42.34,181.38,89.79"/>
			</defs>
			<clipPath id="SVGID_110_">
				<use xlink:href="#SVGID_109_"  style="overflow:visible;"/>
			</clipPath>
		</g>
		<g>
			<defs>
				<path id="SVGID_111_" d="M181.38,89.79c0.02,47.44-39.85,85.92-89.06,85.94c-49.2,0.02-89.1-38.43-89.12-85.88
					S43.06,3.93,92.26,3.91S181.36,42.34,181.38,89.79"/>
			</defs>
			<defs>
				<path id="SVGID_112_" d="M181.38,89.79c0.02,47.44-39.85,85.92-89.06,85.94c-49.2,0.02-89.1-38.43-89.12-85.88
					S43.06,3.93,92.26,3.91S181.36,42.34,181.38,89.79"/>
			</defs>
			<clipPath id="SVGID_113_">
				<use xlink:href="#SVGID_111_"  style="overflow:visible;"/>
			</clipPath>
			<clipPath id="SVGID_114_" class="st41">
				<use xlink:href="#SVGID_112_"  style="overflow:visible;"/>
			</clipPath>
			<g class="st42">
				<g>
					<path d="M73.04,28.04c-0.03-0.05-0.05-0.1-0.08-0.15c0.05,0.12,0.1,0.24,0.15,0.36c-0.04-0.09-0.06-0.18-0.07-0.27
						c0.02,0.13,0.04,0.27,0.05,0.4c-0.01-0.11-0.01-0.21,0-0.32c-0.02,0.13-0.04,0.27-0.05,0.4c0.02-0.12,0.05-0.24,0.09-0.36
						c-0.05,0.12-0.1,0.24-0.15,0.36c0.05-0.13,0.12-0.25,0.21-0.36c-0.08,0.1-0.16,0.2-0.23,0.3c0.07-0.09,0.15-0.16,0.23-0.23
						c-0.1,0.08-0.2,0.16-0.3,0.23c0.09-0.07,0.18-0.12,0.28-0.16c-0.12,0.05-0.24,0.1-0.36,0.15c0.1-0.04,0.19-0.06,0.29-0.07
						c-0.13,0.02-0.27,0.04-0.4,0.05c0.11-0.01,0.21-0.01,0.32,0.01c-0.13-0.02-0.27-0.04-0.4-0.05c0.11,0.02,0.21,0.05,0.31,0.09
						c-0.12-0.05-0.24-0.1-0.36-0.15c0.13,0.06,0.25,0.12,0.36,0.21c-0.1-0.08-0.2-0.16-0.3-0.23c0.11,0.09,0.21,0.19,0.3,0.3
						c-0.08-0.1-0.16-0.2-0.23-0.3c0.07,0.1,0.14,0.21,0.19,0.32c-0.05-0.12-0.1-0.24-0.15-0.36c0.05,0.12,0.08,0.24,0.1,0.36
						c-0.02-0.13-0.04-0.27-0.05-0.4c0.01,0.11,0.01,0.22,0,0.33c0.02-0.13,0.04-0.27,0.05-0.4c-0.02,0.14-0.06,0.28-0.11,0.41
						c0.05-0.12,0.1-0.24,0.15-0.36c-0.06,0.13-0.13,0.25-0.22,0.37c0.08-0.1,0.16-0.2,0.23-0.3c-0.09,0.11-0.19,0.21-0.31,0.3
						c0.1-0.08,0.2-0.16,0.3-0.23c-0.12,0.09-0.24,0.16-0.37,0.22c0.12-0.05,0.24-0.1,0.36-0.15c-0.13,0.06-0.27,0.1-0.41,0.12
						c0.13-0.02,0.27-0.04,0.4-0.05c-0.15,0.02-0.29,0.02-0.44,0c0.13,0.02,0.27,0.04,0.4,0.05c-0.16-0.02-0.32-0.07-0.47-0.13
						c0.12,0.05,0.24,0.1,0.36,0.15c-0.17-0.07-0.32-0.16-0.46-0.27c0.1,0.08,0.2,0.16,0.3,0.23c-0.13-0.1-0.24-0.22-0.35-0.35
						c0.08,0.1,0.16,0.2,0.23,0.3c-0.1-0.13-0.18-0.27-0.25-0.42c0.05,0.12,0.1,0.24,0.15,0.36c-0.06-0.14-0.1-0.28-0.12-0.43
						c0.02,0.13,0.04,0.27,0.05,0.4c-0.02-0.16-0.02-0.33,0-0.49c-0.02,0.13-0.04,0.27-0.05,0.4c0.02-0.16,0.06-0.32,0.12-0.47
						c-0.05,0.12-0.1,0.24-0.15,0.36c0.06-0.13,0.13-0.26,0.22-0.38c-0.08,0.1-0.16,0.2-0.23,0.3c0.07-0.09,0.15-0.17,0.24-0.24
						c-0.1,0.08-0.2,0.16-0.3,0.23c0.09-0.07,0.19-0.13,0.3-0.18c-0.12,0.05-0.24,0.1-0.36,0.15c0.08-0.03,0.16-0.05,0.24-0.07
						c-0.13,0.02-0.27,0.04-0.4,0.05c0.11-0.01,0.22-0.01,0.34,0c-0.13-0.02-0.27-0.04-0.4-0.05c0.11,0.02,0.22,0.05,0.33,0.09
						c-0.12-0.05-0.24-0.1-0.36-0.15c0.12,0.05,0.23,0.11,0.33,0.19c-0.1-0.08-0.2-0.16-0.3-0.23c0.09,0.07,0.16,0.15,0.23,0.24
						c-0.08-0.1-0.16-0.2-0.23-0.3c0.06,0.08,0.1,0.16,0.14,0.25c-0.05-0.12-0.1-0.24-0.15-0.36c0.03,0.08,0.05,0.15,0.06,0.23
						c-0.02-0.13-0.04-0.27-0.05-0.4c0.01,0.08,0.01,0.16,0,0.25c0.02-0.13,0.04-0.27,0.05-0.4c-0.01,0.06-0.03,0.12-0.05,0.18
						c0.05-0.12,0.1-0.24,0.15-0.36c-0.03,0.06-0.05,0.11-0.09,0.16c0.08-0.1,0.16-0.2,0.23-0.3c-0.03,0.04-0.06,0.07-0.1,0.1
						c0.1-0.08,0.2-0.16,0.3-0.23c-0.04,0.03-0.07,0.05-0.12,0.07c0.12-0.05,0.24-0.1,0.36-0.15c-0.03,0.01-0.06,0.02-0.09,0.02
						c0.13-0.02,0.27-0.04,0.4-0.05c-0.03,0-0.06,0-0.09,0c0.13,0.02,0.27,0.04,0.4,0.05c-0.03-0.01-0.06-0.01-0.08-0.03
						c0.12,0.05,0.24,0.1,0.36,0.15c-0.03-0.01-0.05-0.03-0.07-0.04c0.1,0.08,0.2,0.16,0.3,0.23c-0.02-0.02-0.04-0.04-0.06-0.06
						c0.08,0.1,0.16,0.2,0.23,0.3c-0.02-0.02-0.03-0.04-0.04-0.07c0.05,0.12,0.1,0.24,0.15,0.36c-0.01-0.02-0.02-0.05-0.02-0.08
						c0.02,0.13,0.04,0.27,0.05,0.4c0-0.01,0-0.03,0-0.04c-0.02,0.13-0.04,0.27-0.05,0.4c0-0.01,0.01-0.03,0.01-0.04
						c0.09-0.39,0.05-0.8-0.15-1.15c-0.18-0.31-0.54-0.61-0.89-0.68c-0.38-0.09-0.81-0.07-1.15,0.15c-0.32,0.21-0.6,0.51-0.68,0.89
						c-0.14,0.6-0.01,1.23,0.43,1.68c0.35,0.36,0.81,0.56,1.31,0.58c0.9,0.04,1.67-0.69,1.89-1.53c0.17-0.62,0.06-1.26-0.24-1.82
						c-0.23-0.43-0.64-0.81-1.06-1.04c-0.45-0.24-0.97-0.4-1.48-0.35c-0.64,0.06-1.2,0.29-1.68,0.72c-0.66,0.6-1.05,1.61-0.97,2.49
						c0.05,0.55,0.17,1.05,0.47,1.53s0.68,0.85,1.15,1.15c0.48,0.31,1.01,0.45,1.57,0.5c0.56,0.05,1.1-0.11,1.6-0.35
						c0.99-0.48,1.63-1.53,1.71-2.61c0.08-1.07-0.59-2.13-1.5-2.66c-0.63-0.36-1.31-0.46-2.01-0.33c-0.5,0.09-1.02,0.41-1.36,0.78
						c-0.8,0.9-1.08,2.23-0.44,3.31c0.19,0.33,0.53,0.59,0.89,0.68c0.36,0.1,0.83,0.05,1.15-0.15
						C73.17,29.65,73.46,28.75,73.04,28.04L73.04,28.04z"/>
				</g>
			</g>
		</g>
	</g>
	<g>
		<g>
			<defs>
				<path id="SVGID_115_" d="M181.38,89.79c0.02,47.44-39.85,85.92-89.06,85.94c-49.2,0.02-89.1-38.43-89.12-85.88
					S43.06,3.93,92.26,3.91S181.36,42.34,181.38,89.79"/>
			</defs>
			<clipPath id="SVGID_116_">
				<use xlink:href="#SVGID_115_"  style="overflow:visible;"/>
			</clipPath>
		</g>
		<g>
			<defs>
				<path id="SVGID_117_" d="M181.38,89.79c0.02,47.44-39.85,85.92-89.06,85.94c-49.2,0.02-89.1-38.43-89.12-85.88
					S43.06,3.93,92.26,3.91S181.36,42.34,181.38,89.79"/>
			</defs>
			<defs>
				<path id="SVGID_118_" d="M181.38,89.79c0.02,47.44-39.85,85.92-89.06,85.94c-49.2,0.02-89.1-38.43-89.12-85.88
					S43.06,3.93,92.26,3.91S181.36,42.34,181.38,89.79"/>
			</defs>
			<clipPath id="SVGID_119_">
				<use xlink:href="#SVGID_117_"  style="overflow:visible;"/>
			</clipPath>
			<clipPath id="SVGID_120_" class="st43">
				<use xlink:href="#SVGID_118_"  style="overflow:visible;"/>
			</clipPath>
			<g class="st44">
				<g>
					<path d="M59.07,33.57c-0.06,2.03,1.4,3.84,3.28,4.47c1.95,0.65,4.03-0.35,5.08-2.02c0.63-0.99,0.78-2.12,0.6-3.26
						c-0.13-0.77-1.12-1.27-1.84-1.04c-0.83,0.27-1.18,1-1.04,1.84c0.05,0.27-0.02-0.4-0.01,0.01c0,0.08,0,0.16,0,0.25
						c-0.02,0.41,0.07-0.25,0,0.01c-0.02,0.08-0.04,0.16-0.06,0.24c-0.02,0.07-0.07,0.16-0.08,0.23c0.1-0.23,0.12-0.27,0.05-0.13
						c-0.02,0.05-0.05,0.1-0.07,0.15c-0.04,0.07-0.08,0.15-0.12,0.22c-0.03,0.05-0.06,0.09-0.09,0.14c-0.09,0.13-0.06,0.09,0.08-0.1
						c-0.14,0.1-0.24,0.27-0.37,0.39c-0.26,0.24,0.25-0.16,0.01,0c-0.07,0.05-0.14,0.09-0.21,0.14c-0.08,0.05-0.22,0.09-0.29,0.15
						c0.07-0.03,0.14-0.06,0.21-0.09c-0.05,0.02-0.1,0.04-0.15,0.06c-0.09,0.03-0.18,0.05-0.28,0.07c-0.35,0.08,0.32,0,0.03,0
						c-0.08,0-0.17,0.01-0.25,0.01c-0.42-0.01,0.24,0.06-0.02,0.01c-0.18-0.04-0.35-0.09-0.52-0.15c-0.11-0.04-0.05-0.02,0.17,0.07
						c-0.05-0.02-0.1-0.05-0.15-0.07c-0.07-0.04-0.15-0.08-0.22-0.13c-0.12-0.08-0.33-0.32-0.04-0.01
						c-0.06-0.06-0.13-0.11-0.19-0.17c-0.08-0.08-0.16-0.16-0.23-0.24c-0.19-0.2,0.18,0.28,0.03,0.04c-0.1-0.15-0.18-0.37-0.29-0.51
						c0.09,0.22,0.11,0.27,0.07,0.17c-0.02-0.04-0.03-0.08-0.04-0.12c-0.04-0.11-0.06-0.21-0.09-0.32
						c-0.07-0.27,0.02,0.36,0.01,0.07c0-0.11-0.01-0.22-0.01-0.34c0.02-0.78-0.7-1.53-1.49-1.49C59.73,32.13,59.1,32.74,59.07,33.57
						L59.07,33.57z"/>
				</g>
			</g>
		</g>
	</g>
	<g>
		<g>
			<defs>
				<path id="SVGID_121_" d="M181.38,89.79c0.02,47.44-39.85,85.92-89.06,85.94c-49.2,0.02-89.1-38.43-89.12-85.88
					S43.06,3.93,92.26,3.91S181.36,42.34,181.38,89.79"/>
			</defs>
			<clipPath id="SVGID_122_">
				<use xlink:href="#SVGID_121_"  style="overflow:visible;"/>
			</clipPath>
		</g>
		<g>
			<defs>
				<path id="SVGID_123_" d="M181.38,89.79c0.02,47.44-39.85,85.92-89.06,85.94c-49.2,0.02-89.1-38.43-89.12-85.88
					S43.06,3.93,92.26,3.91S181.36,42.34,181.38,89.79"/>
			</defs>
			<defs>
				<path id="SVGID_124_" d="M181.38,89.79c0.02,47.44-39.85,85.92-89.06,85.94c-49.2,0.02-89.1-38.43-89.12-85.88
					S43.06,3.93,92.26,3.91S181.36,42.34,181.38,89.79"/>
			</defs>
			<clipPath id="SVGID_125_">
				<use xlink:href="#SVGID_123_"  style="overflow:visible;"/>
			</clipPath>
			<clipPath id="SVGID_126_" class="st45">
				<use xlink:href="#SVGID_124_"  style="overflow:visible;"/>
			</clipPath>
			<g class="st46">
				<g>
					<path class="st47" d="M53.83,27.05c-0.08-0.02-0.16-0.04-0.24-0.05c-0.2-0.06-0.4-0.07-0.6-0.03c-0.2,0.01-0.39,0.07-0.56,0.18
						c-0.17,0.09-0.32,0.22-0.42,0.39c-0.13,0.14-0.22,0.31-0.27,0.51c-0.02,0.13-0.04,0.27-0.05,0.4c0,0.27,0.07,0.52,0.2,0.75
						c0.08,0.1,0.16,0.2,0.23,0.3c0.19,0.19,0.41,0.31,0.65,0.39c0.08,0.02,0.16,0.04,0.24,0.05c0.2,0.06,0.4,0.07,0.6,0.03
						c0.2-0.01,0.39-0.07,0.56-0.18c0.17-0.09,0.32-0.22,0.42-0.39c0.13-0.14,0.22-0.31,0.27-0.51c0.02-0.13,0.04-0.27,0.05-0.4
						c0-0.27-0.07-0.52-0.2-0.75c-0.08-0.1-0.16-0.2-0.23-0.3C54.3,27.24,54.09,27.12,53.83,27.05L53.83,27.05z"/>
				</g>
			</g>
		</g>
	</g>
	<g>
		<g>
			<defs>
				<path id="SVGID_127_" d="M181.38,89.79c0.02,47.44-39.85,85.92-89.06,85.94c-49.2,0.02-89.1-38.43-89.12-85.88
					S43.06,3.93,92.26,3.91S181.36,42.34,181.38,89.79"/>
			</defs>
			<clipPath id="SVGID_128_">
				<use xlink:href="#SVGID_127_"  style="overflow:visible;"/>
			</clipPath>
		</g>
		<g>
			<defs>
				<path id="SVGID_129_" d="M181.38,89.79c0.02,47.44-39.85,85.92-89.06,85.94c-49.2,0.02-89.1-38.43-89.12-85.88
					S43.06,3.93,92.26,3.91S181.36,42.34,181.38,89.79"/>
			</defs>
			<defs>
				<path id="SVGID_130_" d="M181.38,89.79c0.02,47.44-39.85,85.92-89.06,85.94c-49.2,0.02-89.1-38.43-89.12-85.88
					S43.06,3.93,92.26,3.91S181.36,42.34,181.38,89.79"/>
			</defs>
			<clipPath id="SVGID_131_">
				<use xlink:href="#SVGID_129_"  style="overflow:visible;"/>
			</clipPath>
			<clipPath id="SVGID_132_" class="st48">
				<use xlink:href="#SVGID_130_"  style="overflow:visible;"/>
			</clipPath>
			<g class="st49">
				<g>
					<path class="st47" d="M72.37,29.3c1.91,0,1.91-2.98,0-2.98S70.46,29.3,72.37,29.3L72.37,29.3z"/>
				</g>
			</g>
		</g>
	</g>
	<g>
		<g>
			<defs>
				<path id="SVGID_133_" d="M181.38,89.79c0.02,47.44-39.85,85.92-89.06,85.94c-49.2,0.02-89.1-38.43-89.12-85.88
					S43.06,3.93,92.26,3.91S181.36,42.34,181.38,89.79"/>
			</defs>
			<clipPath id="SVGID_134_">
				<use xlink:href="#SVGID_133_"  style="overflow:visible;"/>
			</clipPath>
		</g>
		<g>
			<defs>
				<path id="SVGID_135_" d="M181.38,89.79c0.02,47.44-39.85,85.92-89.06,85.94c-49.2,0.02-89.1-38.43-89.12-85.88
					S43.06,3.93,92.26,3.91S181.36,42.34,181.38,89.79"/>
			</defs>
			<defs>
				<path id="SVGID_136_" d="M181.38,89.79c0.02,47.44-39.85,85.92-89.06,85.94c-49.2,0.02-89.1-38.43-89.12-85.88
					S43.06,3.93,92.26,3.91S181.36,42.34,181.38,89.79"/>
			</defs>
			<clipPath id="SVGID_137_">
				<use xlink:href="#SVGID_135_"  style="overflow:visible;"/>
			</clipPath>
			<clipPath id="SVGID_138_" class="st50">
				<use xlink:href="#SVGID_136_"  style="overflow:visible;"/>
			</clipPath>
			<g class="st51">
				<g>
					<path class="st47" d="M138.53,72.73c1.91,0,1.91-2.98,0-2.98C136.6,69.76,136.6,72.73,138.53,72.73L138.53,72.73z"/>
				</g>
			</g>
		</g>
	</g>
	<g>
		<g>
			<defs>
				<path id="SVGID_139_" d="M181.38,89.79c0.02,47.44-39.85,85.92-89.06,85.94c-49.2,0.02-89.1-38.43-89.12-85.88
					S43.06,3.93,92.26,3.91S181.36,42.34,181.38,89.79"/>
			</defs>
			<clipPath id="SVGID_140_">
				<use xlink:href="#SVGID_139_"  style="overflow:visible;"/>
			</clipPath>
		</g>
		<g>
			<defs>
				<path id="SVGID_141_" d="M181.38,89.79c0.02,47.44-39.85,85.92-89.06,85.94c-49.2,0.02-89.1-38.43-89.12-85.88
					S43.06,3.93,92.26,3.91S181.36,42.34,181.38,89.79"/>
			</defs>
			<defs>
				<path id="SVGID_142_" d="M181.38,89.79c0.02,47.44-39.85,85.92-89.06,85.94c-49.2,0.02-89.1-38.43-89.12-85.88
					S43.06,3.93,92.26,3.91S181.36,42.34,181.38,89.79"/>
			</defs>
			<clipPath id="SVGID_143_">
				<use xlink:href="#SVGID_141_"  style="overflow:visible;"/>
			</clipPath>
			<clipPath id="SVGID_144_" class="st52">
				<use xlink:href="#SVGID_142_"  style="overflow:visible;"/>
			</clipPath>
			<g class="st53">
				<g>
					<path class="st47" d="M145.29,71.63c-0.02,0.08-0.04,0.16-0.05,0.24c-0.06,0.2-0.07,0.4-0.03,0.6c0.01,0.2,0.07,0.39,0.18,0.56
						c0.09,0.17,0.22,0.32,0.39,0.42c0.14,0.13,0.31,0.22,0.51,0.27c0.13,0.02,0.27,0.04,0.4,0.05c0.27,0,0.52-0.07,0.75-0.2
						c0.1-0.08,0.2-0.16,0.3-0.23c0.19-0.19,0.31-0.41,0.39-0.65c0.02-0.08,0.04-0.16,0.05-0.24c0.06-0.2,0.07-0.4,0.03-0.6
						c-0.01-0.2-0.07-0.39-0.18-0.56c-0.09-0.17-0.22-0.32-0.39-0.42c-0.14-0.13-0.31-0.22-0.51-0.27c-0.13-0.02-0.27-0.04-0.4-0.05
						c-0.27,0-0.52,0.07-0.75,0.2c-0.1,0.08-0.2,0.16-0.3,0.23C145.49,71.17,145.36,71.38,145.29,71.63L145.29,71.63z"/>
				</g>
			</g>
		</g>
	</g>
</g>
</svg>
