<svg xmlns="http://www.w3.org/2000/svg" viewBox="0 0 381.28 380.33"><defs><style>.cls-1{fill:#f7c402;}.cls-2{fill:#fadc67;}.cls-3{fill:#4386c6;}.cls-4{fill:#7dc4ca;}.cls-5{fill:#fff;}</style></defs><title>Binario mapa conceptual</title><g id="gráficos"><path class="cls-1" d="M377.14,190.17c0,103-83.5,186.5-186.5,186.5S4.14,293.17,4.14,190.17,87.64,3.67,190.64,3.67s186.5,83.5,186.5,186.5"/><path d="M375.64,190.17c-.28,77-49.23,147.58-121.78,173.92C181,390.55,97.34,367.61,47.94,307.92s-55.87-147-15.7-213.39c40-66.17,119.24-101,195.09-85.73,74.74,15.08,134,76.77,146,152a190.62,190.62,0,0,1,2.3,29.32,1.5,1.5,0,0,0,3,0C378.35,112,328.78,40.55,255.28,13.58,180.9-13.71,95,10,45,71.3c-49.62,60.82-56,148.78-15.34,216S150.94,390,228.13,374.42C304,359.11,364.38,296.1,376.34,219.6a195.9,195.9,0,0,0,2.3-29.43,1.5,1.5,0,0,0-3,0Z"/><path class="cls-2" d="M347,190.11c0,87-69.94,157.52-156.28,157.55S34.34,277.21,34.31,190.22,104.25,32.7,190.59,32.67,346.94,103.12,347,190.11"/><path d="M345.47,190.11c-.26,64.58-40.79,124.29-101.74,146.65s-130.89,3.07-172.21-46.92C29.8,239.37,24.38,165.71,58,109.58,91.48,53.84,157.9,24.19,221.7,37.3c62.72,12.88,111.82,65.12,121.86,128.2a162.2,162.2,0,0,1,1.91,24.61,1.5,1.5,0,0,0,3,0C348.16,124.35,307,63.84,245.05,40.87,182.54,17.69,110.43,37.81,68.5,89.47s-47.2,126-13,182.89C89.57,329.06,157,359.15,221.93,346,286.32,333,337,279,346.67,214.15a166.72,166.72,0,0,0,1.8-24,1.5,1.5,0,0,0-3,0Z"/><path d="M345.47,190.11c-.26,64.58-40.79,124.29-101.74,146.65s-130.89,3.07-172.21-46.92C29.8,239.37,24.38,165.71,58,109.58,91.48,53.84,157.9,24.19,221.7,37.3c62.72,12.88,111.82,65.12,121.86,128.2a162.2,162.2,0,0,1,1.91,24.61,1.5,1.5,0,0,0,3,0C348.16,124.35,307,63.84,245.05,40.87,182.54,17.69,110.43,37.81,68.5,89.47s-47.2,126-13,182.89C89.57,329.06,157,359.15,221.93,346,286.32,333,337,279,346.67,214.15a166.72,166.72,0,0,0,1.8-24,1.5,1.5,0,0,0-3,0Z"/><path class="cls-3" d="M238.77,146.92c-2-8.46-4.66-17-10.11-23.42-3.09-3.64-7-10.9-11.37-12.66l-4.41-2.14c-12.6-6.3-29.26-11.94-57.07,3.5-12.61,7-20.89,20.74-27.36,34.2-10.19,21.17-15.22,45.5-11.37,68.53s17.26,44.41,37.06,54.33,45.78,6.76,62-9.74c9.45-9.64,15.06-22.75,18.93-35.95C243.71,194,245.62,176.59,238.77,146.92Zm-34.54,58.73c-2,7-4.72,13.92-9.17,19.12-7.62,8.9-19.46,11-28.29,6.09S152.19,215,150.81,203s1.3-24.8,6.26-36c3.16-7.15,7.14-14.47,13-18.34,12.87-8.53,20.34-5.85,26-2.75l2,1.05c1.93.85,3.62,4.59,5,6.44,2.37,3.28,3.46,7.7,4.21,12.1C209.79,180.9,208.64,190,204.23,205.65Z"/><path d="M240.22,146.52c-1.93-8.13-4.46-16.08-9.51-22.85-3.8-5.1-7.35-11.29-13.1-14.34-8.94-4.74-18.48-8.51-28.72-8.56-15-.06-31.94,6.57-42.83,16.77-12.63,11.85-20.73,29.45-25.94,45.71-10.37,32.34-7.66,71.28,17.77,96.14,22,21.45,58.86,23.27,80.4,0,13.51-14.6,19.1-35.57,23.15-54.53,4.2-19.68,3.21-38.8-1.22-58.36-.43-1.88-3.32-1.08-2.9.8,3.67,16.2,5.3,32.42,2.7,48.91-2.52,16-6.85,33-14.4,47.35-7.36,14-19.07,24.57-34.66,28.33a53.7,53.7,0,0,1-41.68-7.18c-28-18.25-36-55-30-86.1a132.37,132.37,0,0,1,18.65-46.36c9.4-14.55,23.66-23.84,40.63-27.41,12.09-2.54,23.12,0,34,5.34,13.76,6.71,21.38,22.82,24.76,37.12C237.77,149.2,240.66,148.4,240.22,146.52Z"/><path d="M202.78,205.25c-4.11,14.1-14.52,31.41-32,25.72C155.6,226,151.2,206.52,152.08,192.6A75.24,75.24,0,0,1,158.69,167c3.13-7.06,7-13.9,13.69-18.09,10-6.26,22.07-6.11,28.67,4.31,9.55,15.11,6.25,35.81,1.73,52a1.51,1.51,0,0,0,2.9.8c2.55-9.18,4.64-18.46,4.33-28.05-.27-8.7-1.3-18.36-6.07-25.82-3.12-4.87-5.84-7.52-11.32-9.52-5.79-2.12-11.81-1.23-17.33,1.3-16.75,7.69-24.17,28.83-26,46-1.64,15.59,2.8,36.69,19.07,43.3a24.11,24.11,0,0,0,21.94-2.37c8.58-5.55,12.61-15.44,15.36-24.85C206.22,204.19,203.32,203.4,202.78,205.25Z"/><path d="M134.62,146.79c-7.64.21-13.91-5.17-16.48-12.16-2.79-7.6-1.62-16,.28-23.62a78.7,78.7,0,0,1,20.33-36.46c2.71-2.76-1.53-7-4.24-4.24a84.29,84.29,0,0,0-23.36,46.4c-2.34,15.73,4.23,36.62,23.47,36.08,3.85-.11,3.87-6.11,0-6Z"/><path d="M161.86,258.69a133.92,133.92,0,0,0,12.66,31.85l1.08-4.11a114.76,114.76,0,0,1-28.53,8.86A3,3,0,0,0,145,299a119,119,0,0,0,7.34,17.39c1.78,3.43,7,.4,5.18-3a107.89,107.89,0,0,1-6.73-16l-2.1,3.69a120.75,120.75,0,0,0,30-9.47,3,3,0,0,0,1.07-4.1,127.74,127.74,0,0,1-12.06-30.42c-.95-3.74-6.74-2.15-5.78,1.6Z"/><path d="M209.27,256.49l7.78,23,2.18,6.42c.23.68,1.41,3.43,1.35,3.65-.4,1.63-9.07,4-10.9,4.58-4,1.36-11.82,1.52-13.07,6.54-1.43,5.82,2.08,13.9,4.39,19.05,1.58,3.52,6.76.47,5.18-3a38.7,38.7,0,0,1-3.52-12.31c-.2-2.54-.63-1.7,1.71-2.41,1.73-.53,3.48-.95,5.2-1.5a96.87,96.87,0,0,0,9.14-3.46c2.26-1,5.43-1.86,6.94-3.93,3-4.15-1.72-12-3.12-16.13l-7.47-22c-1.23-3.64-7-2.08-5.79,1.59Z"/><path d="M249.63,165.86c12.78-5.11,25.26-13.06,33.77-24.09,9.16-11.88,7.78-26.35,1.82-39.36-1.6-3.5-6.78-.46-5.18,3,5.56,12.15,5.85,24.85-3.46,35.16A77.14,77.14,0,0,1,248,160.08c-3.54,1.41-2,7.22,1.6,5.78Z"/><path d="M263,95.56c9.06,10.85,28.69,10,31.65-5.78.71-3.77-5.07-5.39-5.78-1.59-2.16,11.45-15.4,10.58-21.63,3.13-2.48-3-6.7,1.3-4.24,4.24Z"/><path d="M275.4,87.86a53.25,53.25,0,0,1,3.8,13.84c.52,3.81,6.3,2.19,5.79-1.6a58.42,58.42,0,0,0-4.41-15.26c-1.52-3.54-6.69-.49-5.18,3Z"/><path class="cls-4" d="M251,139.1c-1.95-8.46-4.66-17-10.11-23.43-3.08-3.63-7-10.89-11.37-12.66l-4.41-2.14c-12.6-6.3-29.26-11.94-57.06,3.5-12.62,7-20.9,20.75-27.37,34.21-10.18,21.17-15.22,45.5-11.37,68.53s17.26,44.41,37.07,54.32,45.77,6.77,62-9.74c9.46-9.63,15.06-22.74,18.93-35.95C256,186.15,257.86,168.77,251,139.1Zm-34.54,58.73c-2,7-4.72,13.92-9.17,19.12-7.61,8.89-19.45,11-28.29,6.09s-14.58-15.85-16-27.84,1.3-24.8,6.27-36c3.15-7.15,7.13-14.47,13-18.34,12.87-8.52,20.35-5.84,26-2.74l2,1.05c1.94.85,3.62,4.59,5,6.44,2.37,3.27,3.47,7.7,4.22,12.1C222,173.07,220.89,182.2,216.47,197.83Z"/><path d="M252.46,138.7c-1.92-8.14-4.46-16.08-9.51-22.86-3.79-5.09-7.35-11.29-13.1-14.34C220.92,96.77,211.38,93,201.13,93c-14.95-.06-31.93,6.56-42.82,16.77-12.64,11.84-20.74,29.45-25.95,45.7-10.37,32.35-7.65,71.29,17.78,96.14,22,21.45,58.85,23.28,80.39,0C244.05,237,249.64,216,253.68,197.06c4.2-19.69,3.21-38.8-1.22-58.36-.43-1.88-3.32-1.09-2.89.8,3.67,16.19,5.29,32.41,2.69,48.9-2.52,16-6.84,33-14.4,47.36-7.36,14-19.07,24.56-34.66,28.32a53.62,53.62,0,0,1-41.68-7.18c-28-18.24-36-55-30-86.1a132.15,132.15,0,0,1,18.66-46.35c9.39-14.55,23.65-23.84,40.63-27.41,12.09-2.54,23.11,0,34,5.34,13.77,6.7,21.38,22.82,24.77,37.12C250,141.38,252.91,140.58,252.46,138.7Z"/><path d="M215,197.43c-4.11,14.1-14.53,31.4-32,25.71-15.17-4.93-19.57-24.44-18.68-38.36a75.11,75.11,0,0,1,6.6-25.59c3.13-7.06,7-13.89,13.7-18.09,10-6.25,22.07-6.11,28.66,4.32,9.55,15.1,6.25,35.8,1.74,52a1.5,1.5,0,0,0,2.89.8c2.56-9.19,4.64-18.46,4.34-28-.28-8.71-1.31-18.36-6.08-25.83-3.12-4.87-5.83-7.51-11.31-9.51-5.8-2.12-11.81-1.23-17.33,1.3-16.76,7.68-24.18,28.83-26,46-1.63,15.58,2.8,36.69,19.07,43.3a24.13,24.13,0,0,0,21.95-2.38c8.57-5.54,12.61-15.43,15.35-24.84A1.5,1.5,0,0,0,215,197.43Z"/><path d="M179.72,112.73a1.73,1.73,0,0,1,.84,1.77l1.5-1.5c-1.51,0-2.33-2.85-.48-3,2.37-.19,2.43,2.91.25,3.35-2,.4-3.8-1.83-1.9-3.31,1.59-1.24,2.95,1.36,1.65,2.2l1.16-.15.27.56c.6-1.84-2.3-2.63-2.89-.8-.69,2.12,1.73,4.12,3.53,2.58a4.45,4.45,0,0,0,1.09-4.89c-1.7-4.68-8-3-8.6,1.53s5.59,6.93,8.74,4a4.6,4.6,0,0,0,.82-6,5,5,0,0,0-5-1.89c-5.14,1.11-3.5,8.76,1.33,8.89a1.52,1.52,0,0,0,1.5-1.5,4.71,4.71,0,0,0-2.33-4.36c-1.64-1-3.15,1.57-1.51,2.59Z"/><path d="M214.13,110.93c-.44-.84.7-1.31,1.27-.71.85.87-.32,2.06-1.31,1.88a1.76,1.76,0,0,1-1.38-2.19c.12-.36.36-.76.79-.71s2.2,2.12,2.17.91c0-1.93-3-1.93-3,0a2.09,2.09,0,0,0,3.48,1.56,3,3,0,0,0,.23-4c-2.06-2.81-6.06-1.31-6.65,1.83s2.42,6.29,5.64,5.46,4.52-5.19,1.66-7.32a3.73,3.73,0,0,0-5.49,4.76c.89,1.71,3.48.2,2.59-1.51Z"/><path d="M192,119.93a6.74,6.74,0,1,0,13.41-.71c-.23-1.89-3.23-1.92-3,0,.26,2.09-1,4.48-3.3,4.7a4,4,0,0,1-4.11-4c0-1.93-3-1.93-3,0Z"/><path class="cls-5" d="M181.61,109.68l-.41-.1a1.5,1.5,0,1,0-.8,2.9l.42.09a1.5,1.5,0,1,0,.79-2.89Z"/><path class="cls-5" d="M213.9,111.49a1.5,1.5,0,0,0,0-3,1.5,1.5,0,0,0,0,3Z"/><path d="M123.94,60c-6.23,7.5-8.51,18.51-1.58,26.42,7.7,8.78,18,5.39,26.51-.12,3.23-2.1.22-7.3-3-5.18-5.58,3.63-12.53,7.61-18.31,2-5.5-5.29-3.77-13.6.65-18.93,2.45-2.95-1.78-7.22-4.24-4.24Z"/></g></svg>