<?xml version="1.0" encoding="UTF-8" standalone="no"?>
<!-- Generator: Adobe Illustrator 22.1.0, SVG Export Plug-In . SVG Version: 6.00 Build 0)  -->

<svg
   xmlns:dc="http://purl.org/dc/elements/1.1/"
   xmlns:cc="http://creativecommons.org/ns#"
   xmlns:rdf="http://www.w3.org/1999/02/22-rdf-syntax-ns#"
   xmlns:svg="http://www.w3.org/2000/svg"
   xmlns="http://www.w3.org/2000/svg"
   xmlns:sodipodi="http://sodipodi.sourceforge.net/DTD/sodipodi-0.dtd"
   xmlns:inkscape="http://www.inkscape.org/namespaces/inkscape"
   version="1.1"
   id="Layer_1"
   x="0px"
   y="0px"
   viewBox="0 0 270.95821 89.644446"
   xml:space="preserve"
   sodipodi:docname="botón continuar-01.svg"
   width="270.95822"
   height="89.644447"
   inkscape:version="0.92.5 (2060ec1f9f, 2020-04-08)"><metadata
   id="metadata130"><rdf:RDF><cc:Work
       rdf:about=""><dc:format>image/svg+xml</dc:format><dc:type
         rdf:resource="http://purl.org/dc/dcmitype/StillImage" /><dc:title>botón continuar</dc:title></cc:Work></rdf:RDF></metadata><defs
   id="defs128" /><sodipodi:namedview
   pagecolor="#ffffff"
   bordercolor="#666666"
   borderopacity="1"
   objecttolerance="10"
   gridtolerance="10"
   guidetolerance="10"
   inkscape:pageopacity="0"
   inkscape:pageshadow="2"
   inkscape:window-width="1920"
   inkscape:window-height="1023"
   id="namedview126"
   showgrid="false"
   fit-margin-top="0"
   fit-margin-left="0"
   fit-margin-right="0"
   fit-margin-bottom="0"
   inkscape:zoom="1.0846372"
   inkscape:cx="134.80001"
   inkscape:cy="43.999999"
   inkscape:window-x="0"
   inkscape:window-y="25"
   inkscape:window-maximized="1"
   inkscape:current-layer="Layer_1" />
<style
   type="text/css"
   id="style2">
	.st0{opacity:0.32;enable-background:new    ;}
	.st1{fill:#7DC4CA;}
	.st2{fill:#CBE7EA;}
	.st3{fill:#41797D;}
	.st4{enable-background:new    ;}
	.st5{fill:none;stroke:#41797D;stroke-linecap:round;stroke-linejoin:round;}
	.st6{fill:#FFFFFF;}
</style>
<title
   id="title4">botón continuar</title>
<g
   id="Layer_1_1_"
   transform="translate(-5.8,-6.0555556)">
	<path
   class="st0"
   d="m 45.8,13.7 h 183 c 22.1,0 40,17.9 40,40 v 2 c 0,22.1 -17.9,40 -40,40 h -183 c -22.1,0 -40,-17.9 -40,-40 v -2 c 0,-22.1 17.9,-40 40,-40 z"
   id="path6"
   inkscape:connector-curvature="0"
   style="opacity:0.32000002;enable-background:new" />
	<path
   class="st1"
   d="m 52.3,7.7 h 183 c 22.1,0 40,17.9 40,40 v 0 c 0,22.1 -17.9,40 -40,40 h -183 c -22.1,0 -40,-17.9 -40,-40 v 0 c 0,-22.1 17.9,-40 40,-40 z"
   id="path8"
   inkscape:connector-curvature="0"
   style="fill:#7dc4ca" />
	<path
   class="st2"
   d="m 272.9,33.9 c -0.5,-1.2 -1,-2.4 -1.5,-3.6 -2.5,-5.2 -6.1,-9.8 -10.6,-13.5 -1,-0.8 -2,-1.6 -3.1,-2.3 C 251.1,10 243.3,7.7 235.3,7.7 h -183 c -0.7,0 -1.3,0 -2,0 h -0.1 c -8.9,0.5 -17.4,3.9 -24.1,9.7 6,-2.2 11.8,-3.8 15.2,-3.8 l 182,7 c 36.5,-1 45,17.9 45,40 0,4.6 -1.9,9.9 -4.1,14.7 10.6,-11 13.9,-27.1 8.7,-41.4 z"
   id="path10"
   inkscape:connector-curvature="0"
   style="fill:#cbe7ea" />
	<path
   class="st3"
   d="m 14.8,61.5 c 0.4,1.2 1,2.4 1.5,3.6 2.5,5.2 6.1,9.8 10.6,13.5 1,0.8 2,1.6 3.1,2.3 6.6,4.5 14.4,6.8 22.4,6.8 h 183 c 0.7,0 1.3,0 2,0 h 0.1 c 8.9,-0.5 17.4,-3.9 24.1,-9.7 -6,2.2 -11.8,3.8 -15.2,3.8 l -184.5,-4 c -26,0 -42.5,-20.9 -42.5,-43 0,-4.6 1.9,-9.9 4.1,-14.6 -10.6,10.9 -14,27 -8.7,41.3 z"
   id="path12"
   inkscape:connector-curvature="0"
   style="fill:#41797d" />
	<path
   d="M 235.3,86.2 H 78.2 c -10.6,0 -22.5,1.3 -33,-0.7 C 27.8,82.1 15,67.4 13.9,49.8 13.1,32.6 23.7,16.9 40,11.2 50.8,7.5 64.2,9.2 75.4,9.2 h 127.3 c 10.8,0 21.7,-0.1 32.5,0 15.8,0.1 29.9,9.7 35.9,24.2 6.3,16.2 1.1,34.6 -12.7,45.1 -6.7,5 -14.8,7.7 -23.1,7.7 -1.9,0 -1.9,3 0,3 15.7,-0.3 30.2,-8.9 37.2,-23.1 6.8,-13.9 5.4,-30.5 -3.8,-43 -7.9,-10.6 -20.4,-16.9 -33.6,-17 -3.8,-0.1 -7.6,0 -11.3,0 H 92.7 C 79.4,6.1 66.2,6 52.9,6.1 24.4,6.5 3.2,34.8 13.4,62.1 c 5.4,14.3 18.2,24.6 33.4,26.7 4.3,0.4 8.5,0.5 12.8,0.4 h 175.7 c 0.8,0 1.5,-0.7 1.5,-1.5 0,-0.8 -0.6,-1.5 -1.5,-1.5 z"
   id="path14"
   inkscape:connector-curvature="0" />
	<g
   class="st4"
   id="g18"
   style="enable-background:new">
		<path
   class="st3"
   d="M 58.3,62.3 C 57.5,62 56.8,61.7 56.3,61.4 55.7,61.1 55.3,60.9 54.9,60.7 54.5,60.5 54.2,60.3 54,60.1 53.8,59.9 53.6,59.7 53.4,59.6 53.2,59.4 53.1,59.3 53,59.2 52.9,59.1 52.8,59 52.7,58.9 c 0,0 -0.1,0 -0.1,-0.1 -0.1,-0.1 -0.1,-0.1 -0.1,-0.1 0,0 0,-0.1 -0.1,-0.1 -0.1,0 0,-0.1 0,-0.1 C 52.3,58.4 52.3,58.4 52.2,58.3 52.1,58.2 52,58.1 52,58.1 51.9,58 51.9,58 51.8,57.9 c -0.1,0 -0.1,-0.1 -0.1,-0.1 l -0.4,-0.6 v 0 c 0,0 0,0 0,0 0,0 0,0 0,0 v 0 C 51,56.9 50.8,56.5 50.7,56.1 50.5,55.7 50.4,55.3 50.3,54.8 50.2,54.4 50.1,53.9 50,53.5 49.9,53.1 49.8,52.6 49.7,52.2 49.6,52 49.6,51.8 49.6,51.7 c 0,-0.1 0,-0.3 -0.1,-0.5 -0.1,-0.3 -0.1,-0.5 -0.2,-0.8 -0.1,-0.3 -0.1,-0.5 -0.2,-0.8 0,-0.1 0,-0.3 0,-0.6 0,-0.3 0,-0.6 -0.1,-0.9 -0.1,-0.3 0,-0.6 -0.1,-0.9 0,-0.3 0,-0.5 0,-0.6 v -0.4 c 0,-0.4 0.1,-0.9 0.1,-1.2 0.1,-0.4 0.2,-0.8 0.3,-1.2 0,0 0,-0.1 0.1,-0.2 0,-0.1 0.1,-0.2 0.1,-0.4 0,-0.1 0.1,-0.3 0.1,-0.4 0,-0.1 0,-0.2 0.1,-0.2 0.1,-0.4 0.2,-0.7 0.4,-1 0.1,-0.3 0.3,-0.5 0.4,-0.7 0.1,-0.2 0.3,-0.4 0.4,-0.5 0.1,-0.3 0.2,-0.6 0.4,-0.8 0.2,-0.3 0.4,-0.6 0.7,-0.9 0.3,-0.3 0.6,-0.6 0.9,-0.9 0.3,-0.3 0.6,-0.6 0.9,-0.8 0.4,-0.4 0.8,-0.7 1.4,-0.9 0.5,-0.3 1,-0.5 1.5,-0.7 0,0 0.1,-0.1 0.3,-0.1 0.1,-0.1 0.3,-0.1 0.5,-0.2 0.2,-0.1 0.3,-0.1 0.5,-0.2 0.1,-0.1 0.2,-0.1 0.3,-0.1 0,0 0.1,0 0.1,0 0.1,0 0.2,-0.1 0.3,-0.1 0.1,0 0.2,-0.1 0.3,-0.1 0.1,0 0.1,0 0.2,-0.1 0,0 0.1,-0.1 0.2,-0.1 0.1,0 0.2,-0.1 0.2,-0.1 0,0 0,0 0.1,0 0.1,0 0.1,0 0.2,0 0.1,0 0.1,0 0.2,0 0.1,0 0.1,0 0.1,0 0,0 0.1,0 0.1,0 0.1,0 0.2,0 0.3,0 0.1,0 0.2,0 0.3,0 0.1,0 0.2,0 0.2,0 0.5,-0.1 0.9,-0.2 1.4,-0.2 0.4,0 0.9,0 1.4,0 0.1,0 0.2,0 0.4,0 0.2,0 0.3,0 0.5,0 0.2,0 0.3,0 0.4,0 0.1,0 0.2,0 0.2,0 0,0 0.1,0 0.2,0 0.1,0 0.2,0 0.4,0 0.1,0 0.3,0 0.4,0 0.1,0 0.2,0 0.3,0 0,0 0.1,0 0.2,0 0.1,0 0.2,0 0.3,0.1 0,0 0.1,0 0.2,0 0.1,0 0.2,0 0.2,0.1 0,0 0.1,0 0.2,0 0.1,0 0.2,0 0.4,0 0.1,0 0.3,0 0.4,0 0.1,0 0.2,0 0.2,0 0,0 0.1,0 0.2,0.1 0.1,0.1 0.2,0 0.2,0 0,0 0.1,0.1 0.2,0.1 0.1,0 0.2,0.1 0.3,0.2 0.1,0.1 0.2,0.1 0.3,0.2 0.1,0.1 0.2,0.1 0.2,0.1 0,0 0.1,0.1 0.2,0.1 0.1,0 0.2,0.1 0.2,0.1 0,0 0.1,0 0.2,0.1 0.1,0.1 0.1,0.1 0.2,0.1 0,0 0,0 0.1,0 0,0 0.1,0 0.1,0 0.1,0 0.2,0.1 0.2,0.3 0,0.2 0.1,0.3 0.1,0.4 v 0.2 c 0,0 -0.1,0.1 -0.1,0.1 0,0 -0.1,0.1 -0.1,0.2 0,0 -0.1,0.1 -0.1,0.2 0,0.1 -0.2,0.2 -0.2,0.3 -0.1,0.1 -0.2,0.2 -0.2,0.3 0,0.1 -0.1,0.2 -0.1,0.2 -0.1,0.1 -0.3,0.2 -0.4,0.5 -0.2,0.3 -0.3,0.5 -0.5,0.8 -0.2,0.3 -0.4,0.5 -0.6,0.7 -0.2,0.2 -0.5,0.2 -0.7,0.2 -0.6,-0.2 -1.2,-0.3 -1.8,-0.4 -0.6,-0.1 -1.2,-0.2 -1.8,-0.2 -0.1,0 -0.1,0 -0.2,0 -0.1,0 -0.2,0 -0.3,0 -0.1,0 -0.2,0 -0.3,0 0,0 -0.1,0 -0.2,0 -0.1,0 -0.2,0 -0.2,0.1 0,0.1 -0.2,0 -0.2,0.1 -0.1,0 -0.1,0 -0.2,0 0,0 -0.1,0 -0.3,0 -0.2,0 -0.3,0 -0.5,0.1 -0.2,0 -0.3,0 -0.5,0.1 -0.2,0 -0.2,0 -0.3,0 0,0 -0.1,0 -0.2,0 -0.1,0 -0.2,0.1 -0.3,0.1 -0.1,0 -0.2,0.1 -0.3,0.1 -0.1,0 -0.2,0.1 -0.3,0.1 -0.5,0.2 -1,0.5 -1.4,0.8 -0.4,0.3 -0.8,0.7 -1.1,1.1 0,0 -0.1,0.1 -0.2,0.3 -0.1,0.1 -0.2,0.3 -0.3,0.4 -0.1,0.1 -0.2,0.3 -0.3,0.4 -0.1,0.1 -0.2,0.2 -0.2,0.3 -0.1,0.1 -0.2,0.2 -0.3,0.4 -0.1,0.2 -0.2,0.3 -0.2,0.5 0,0.1 -0.1,0.2 -0.1,0.3 0,0.2 -0.1,0.3 -0.1,0.5 0,0.2 -0.1,0.3 -0.1,0.5 0,0.2 -0.1,0.3 -0.1,0.3 0,0 0,0 0,0.1 v 0.1 c 0,0.1 0,0.2 0.1,0.4 0,0.1 0.1,0.2 0.1,0.4 v 0 c 0,0 -0.1,0.1 -0.2,0.2 -1.2,0 -1.3,0.1 -1.3,0.1 v 0 c 0,0.5 0,1.1 0,1.7 0,0.6 0.1,1.2 0.3,1.7 l 0.3,0.9 v 0 c 0,0 0,0.1 0.1,0.2 0.1,0.1 0.1,0.2 0.1,0.3 0,0.1 0.1,0.2 0.1,0.3 0,0.1 0.1,0.2 0.1,0.2 0.1,0.1 0.2,0.2 0.3,0.4 0,0.2 0.1,0.3 0.2,0.4 0.3,0.4 0.6,0.8 0.9,1.2 0.3,0.4 0.7,0.7 1.1,1 0.4,0.3 0.8,0.6 1.2,0.8 0.4,0.2 0.9,0.4 1.4,0.5 0.1,0 0.2,0 0.4,0.1 0.2,0 0.4,0.1 0.6,0.1 0.2,0 0.4,0.1 0.5,0.1 0.1,0 0.3,0 0.3,0 0,0 0.1,0 0.1,0 0,0 0.2,0 0.3,0 0.1,0 0.2,0 0.3,0 0.1,0 0.2,0 0.3,0 0.5,0 0.9,0 1.4,-0.1 0.4,0 0.9,-0.2 1.3,-0.3 0,0 0.1,0 0.2,-0.1 0.1,0 0.1,-0.1 0.2,-0.1 0.1,0 0.1,-0.1 0.2,-0.1 0.1,0 0.1,0 0.1,-0.1 0.1,-0.1 0.3,-0.1 0.4,-0.2 0.1,-0.1 0.2,-0.1 0.3,-0.2 0.1,-0.1 0.2,-0.1 0.3,-0.1 0.1,0 0.2,-0.1 0.4,-0.1 0,0 0.1,0 0.2,0 0.1,0 0.1,0 0.2,0 0.3,0.2 0.5,0.5 0.7,0.8 0.2,0.3 0.4,0.6 0.6,0.9 0,0 0.1,0.1 0.2,0.3 0.1,0.2 0.2,0.3 0.2,0.5 0.1,0.2 0.2,0.3 0.2,0.5 0.1,0.2 0.1,0.2 0.2,0.3 0,0 0,0.1 0.1,0.1 0.1,0.1 0.1,0.1 0.2,0.2 0.1,0.1 0.1,0.1 0.1,0.2 0,0.1 0.1,0.1 0.1,0.1 0.1,0.3 0.1,0.5 0.1,0.6 0,0.1 -0.1,0.2 -0.2,0.3 -0.1,0.1 -0.2,0.1 -0.4,0.2 -0.2,0.1 -0.4,0.2 -0.6,0.4 0,0 0,0 -0.1,0 0,0 0,0 0,0 0,0 0,0 0,0 -0.3,0.2 -0.6,0.4 -0.9,0.5 -0.3,0.1 -0.6,0.2 -0.9,0.3 -0.3,0.1 -0.7,0.1 -1,0.2 -0.3,0.1 -0.7,0.1 -1,0.1 -0.1,0 -0.2,0 -0.5,0 -0.3,0 -0.6,0 -0.9,0.1 -0.3,0.1 -0.6,0 -0.9,0.1 -0.3,0 -0.5,0 -0.5,0 h -0.5 -0.6 c 0,0 -0.1,0 -0.2,0 -0.1,0 -0.3,0 -0.4,0 -0.1,0 -0.3,0 -0.4,0 -0.1,0 -0.2,0 -0.2,0 0,0 -0.1,0 -0.3,0 -0.2,0 -0.3,0 -0.5,0 -0.2,0 -0.4,0 -0.5,0 -0.1,0 -0.3,0 -0.3,0 0,0 -0.1,0 -0.2,0 -0.1,0 -0.2,0 -0.3,-0.1 -0.1,0 -0.3,-0.1 -0.4,-0.1 -0.6,0.3 -0.7,0.3 -0.7,0.3 z"
   id="path16"
   inkscape:connector-curvature="0"
   style="fill:#41797d" />
	</g>
	<g
   class="st4"
   id="g22"
   style="enable-background:new">
		<path
   class="st5"
   d="M 58.3,62.3 C 57.5,62 56.8,61.7 56.3,61.4 55.7,61.1 55.3,60.9 54.9,60.7 54.5,60.5 54.2,60.3 54,60.1 53.8,59.9 53.6,59.7 53.4,59.6 53.2,59.4 53.1,59.3 53,59.2 52.9,59.1 52.8,59 52.7,58.9 c 0,0 -0.1,0 -0.1,-0.1 -0.1,-0.1 -0.1,-0.1 -0.1,-0.1 0,0 0,-0.1 -0.1,-0.1 -0.1,0 0,-0.1 0,-0.1 C 52.3,58.4 52.3,58.4 52.2,58.3 52.1,58.2 52,58.1 52,58.1 51.9,58 51.9,58 51.8,57.9 c -0.1,0 -0.1,-0.1 -0.1,-0.1 l -0.4,-0.6 v 0 c 0,0 0,0 0,0 0,0 0,0 0,0 v 0 C 51,56.9 50.8,56.5 50.7,56.1 50.5,55.7 50.4,55.3 50.3,54.8 50.2,54.4 50.1,53.9 50,53.5 49.9,53.1 49.8,52.6 49.7,52.2 49.6,52 49.6,51.8 49.6,51.7 c 0,-0.1 0,-0.3 -0.1,-0.5 -0.1,-0.3 -0.1,-0.5 -0.2,-0.8 -0.1,-0.3 -0.1,-0.5 -0.2,-0.8 0,-0.1 0,-0.3 0,-0.6 0,-0.3 0,-0.6 -0.1,-0.9 -0.1,-0.3 0,-0.6 -0.1,-0.9 0,-0.3 0,-0.5 0,-0.6 v -0.4 c 0,-0.4 0.1,-0.9 0.1,-1.2 0.1,-0.4 0.2,-0.8 0.3,-1.2 0,0 0,-0.1 0.1,-0.2 0,-0.1 0.1,-0.2 0.1,-0.4 0,-0.1 0.1,-0.3 0.1,-0.4 0,-0.1 0,-0.2 0.1,-0.2 0.1,-0.4 0.2,-0.7 0.4,-1 0.1,-0.3 0.3,-0.5 0.4,-0.7 0.1,-0.2 0.3,-0.4 0.4,-0.5 0.1,-0.3 0.2,-0.6 0.4,-0.8 0.2,-0.3 0.4,-0.6 0.7,-0.9 0.3,-0.3 0.6,-0.6 0.9,-0.9 0.3,-0.3 0.6,-0.6 0.9,-0.8 0.4,-0.4 0.8,-0.7 1.4,-0.9 0.5,-0.3 1,-0.5 1.5,-0.7 0,0 0.1,-0.1 0.3,-0.1 0.1,-0.1 0.3,-0.1 0.5,-0.2 0.2,-0.1 0.3,-0.1 0.5,-0.2 0.1,-0.1 0.2,-0.1 0.3,-0.1 0,0 0.1,0 0.1,0 0.1,0 0.2,-0.1 0.3,-0.1 0.1,0 0.2,-0.1 0.3,-0.1 0.1,0 0.1,0 0.2,-0.1 0,0 0.1,-0.1 0.2,-0.1 0.1,0 0.2,-0.1 0.2,-0.1 0,0 0,0 0.1,0 0.1,0 0.1,0 0.2,0 0.1,0 0.1,0 0.2,0 0.1,0 0.1,0 0.1,0 0,0 0.1,0 0.1,0 0.1,0 0.2,0 0.3,0 0.1,0 0.2,0 0.3,0 0.1,0 0.2,0 0.2,0 0.5,-0.1 0.9,-0.2 1.4,-0.2 0.4,0 0.9,0 1.4,0 0.1,0 0.2,0 0.4,0 0.2,0 0.3,0 0.5,0 0.2,0 0.3,0 0.4,0 0.1,0 0.2,0 0.2,0 0,0 0.1,0 0.2,0 0.1,0 0.2,0 0.4,0 0.1,0 0.3,0 0.4,0 0.1,0 0.2,0 0.3,0 0,0 0.1,0 0.2,0 0.1,0 0.2,0 0.3,0.1 0,0 0.1,0 0.2,0 0.1,0 0.2,0 0.2,0.1 0,0 0.1,0 0.2,0 0.1,0 0.2,0 0.4,0 0.1,0 0.3,0 0.4,0 0.1,0 0.2,0 0.2,0 0,0 0.1,0 0.2,0.1 0.1,0.1 0.2,0 0.2,0 0,0 0.1,0.1 0.2,0.1 0.1,0 0.2,0.1 0.3,0.2 0.1,0.1 0.2,0.1 0.3,0.2 0.1,0.1 0.2,0.1 0.2,0.1 0,0 0.1,0.1 0.2,0.1 0.1,0 0.2,0.1 0.2,0.1 0,0 0.1,0 0.2,0.1 0.1,0.1 0.1,0.1 0.2,0.1 0,0 0,0 0.1,0 0,0 0.1,0 0.1,0 0.1,0 0.2,0.1 0.2,0.3 0,0.2 0.1,0.3 0.1,0.4 v 0.2 c 0,0 -0.1,0.1 -0.1,0.1 0,0 -0.1,0.1 -0.1,0.2 0,0 -0.1,0.1 -0.1,0.2 0,0.1 -0.2,0.2 -0.2,0.3 -0.1,0.1 -0.2,0.2 -0.2,0.3 0,0.1 -0.1,0.2 -0.1,0.2 -0.1,0.1 -0.3,0.2 -0.4,0.5 -0.2,0.3 -0.3,0.5 -0.5,0.8 -0.2,0.3 -0.4,0.5 -0.6,0.7 -0.2,0.2 -0.5,0.2 -0.7,0.2 -0.6,-0.2 -1.2,-0.3 -1.8,-0.4 -0.6,-0.1 -1.2,-0.2 -1.8,-0.2 -0.1,0 -0.1,0 -0.2,0 -0.1,0 -0.2,0 -0.3,0 -0.1,0 -0.2,0 -0.3,0 0,0 -0.1,0 -0.2,0 -0.1,0 -0.2,0 -0.2,0.1 0,0.1 -0.2,0 -0.2,0.1 -0.1,0 -0.1,0 -0.2,0 0,0 -0.1,0 -0.3,0 -0.2,0 -0.3,0 -0.5,0.1 -0.2,0 -0.3,0 -0.5,0.1 -0.2,0 -0.2,0 -0.3,0 0,0 -0.1,0 -0.2,0 -0.1,0 -0.2,0.1 -0.3,0.1 -0.1,0 -0.2,0.1 -0.3,0.1 -0.1,0 -0.2,0.1 -0.3,0.1 -0.5,0.2 -1,0.5 -1.4,0.8 -0.4,0.3 -0.8,0.7 -1.1,1.1 0,0 -0.1,0.1 -0.2,0.3 -0.1,0.1 -0.2,0.3 -0.3,0.4 -0.1,0.1 -0.2,0.3 -0.3,0.4 -0.1,0.1 -0.2,0.2 -0.2,0.3 -0.1,0.1 -0.2,0.2 -0.3,0.4 -0.1,0.2 -0.2,0.3 -0.2,0.5 0,0.1 -0.1,0.2 -0.1,0.3 0,0.2 -0.1,0.3 -0.1,0.5 0,0.2 -0.1,0.3 -0.1,0.5 0,0.2 -0.1,0.3 -0.1,0.3 0,0 0,0 0,0.1 v 0.1 c 0,0.1 0,0.2 0.1,0.4 0,0.1 0.1,0.2 0.1,0.4 v 0 c 0,0 -0.1,0.1 -0.2,0.2 -1.2,0 -1.3,0.1 -1.3,0.1 v 0 c 0,0.5 0,1.1 0,1.7 0,0.6 0.1,1.2 0.3,1.7 l 0.3,0.9 v 0 c 0,0 0,0.1 0.1,0.2 0.1,0.1 0.1,0.2 0.1,0.3 0,0.1 0.1,0.2 0.1,0.3 0,0.1 0.1,0.2 0.1,0.2 0.1,0.1 0.2,0.2 0.3,0.4 0,0.2 0.1,0.3 0.2,0.4 0.3,0.4 0.6,0.8 0.9,1.2 0.3,0.4 0.7,0.7 1.1,1 0.4,0.3 0.8,0.6 1.2,0.8 0.4,0.2 0.9,0.4 1.4,0.5 0.1,0 0.2,0 0.4,0.1 0.2,0 0.4,0.1 0.6,0.1 0.2,0 0.4,0.1 0.5,0.1 0.1,0 0.3,0 0.3,0 0,0 0.1,0 0.1,0 0,0 0.2,0 0.3,0 0.1,0 0.2,0 0.3,0 0.1,0 0.2,0 0.3,0 0.5,0 0.9,0 1.4,-0.1 0.4,0 0.9,-0.2 1.3,-0.3 0,0 0.1,0 0.2,-0.1 0.1,0 0.1,-0.1 0.2,-0.1 0.1,0 0.1,-0.1 0.2,-0.1 0.1,0 0.1,0 0.1,-0.1 0.1,-0.1 0.3,-0.1 0.4,-0.2 0.1,-0.1 0.2,-0.1 0.3,-0.2 0.1,-0.1 0.2,-0.1 0.3,-0.1 0.1,0 0.2,-0.1 0.4,-0.1 0,0 0.1,0 0.2,0 0.1,0 0.1,0 0.2,0 0.3,0.2 0.5,0.5 0.7,0.8 0.2,0.3 0.4,0.6 0.6,0.9 0,0 0.1,0.1 0.2,0.3 0.1,0.2 0.2,0.3 0.2,0.5 0.1,0.2 0.2,0.3 0.2,0.5 0.1,0.2 0.1,0.2 0.2,0.3 0,0 0,0.1 0.1,0.1 0.1,0.1 0.1,0.1 0.2,0.2 0.1,0.1 0.1,0.1 0.1,0.2 0,0.1 0.1,0.1 0.1,0.1 0.1,0.3 0.1,0.5 0.1,0.6 0,0.1 -0.1,0.2 -0.2,0.3 -0.1,0.1 -0.2,0.1 -0.4,0.2 -0.2,0.1 -0.4,0.2 -0.6,0.4 0,0 0,0 -0.1,0 0,0 0,0 0,0 0,0 0,0 0,0 -0.3,0.2 -0.6,0.4 -0.9,0.5 -0.3,0.1 -0.6,0.2 -0.9,0.3 -0.3,0.1 -0.7,0.1 -1,0.2 -0.3,0.1 -0.7,0.1 -1,0.1 -0.1,0 -0.2,0 -0.5,0 -0.3,0 -0.6,0 -0.9,0.1 -0.3,0.1 -0.6,0 -0.9,0.1 -0.3,0 -0.5,0 -0.5,0 h -0.5 -0.6 c 0,0 -0.1,0 -0.2,0 -0.1,0 -0.3,0 -0.4,0 -0.1,0 -0.3,0 -0.4,0 -0.1,0 -0.2,0 -0.2,0 0,0 -0.1,0 -0.3,0 -0.2,0 -0.3,0 -0.5,0 -0.2,0 -0.4,0 -0.5,0 -0.1,0 -0.3,0 -0.3,0 0,0 -0.1,0 -0.2,0 -0.1,0 -0.2,0 -0.3,-0.1 -0.1,0 -0.3,-0.1 -0.4,-0.1 -0.6,0.3 -0.7,0.3 -0.7,0.3 z"
   id="path20"
   inkscape:connector-curvature="0"
   style="fill:none;stroke:#41797d;stroke-linecap:round;stroke-linejoin:round" />
	</g>
	<g
   class="st4"
   id="g26"
   style="enable-background:new">
		<path
   class="st3"
   d="m 83.1,64.8 c -0.1,0 -0.2,0 -0.4,-0.1 -0.2,0 -0.4,-0.1 -0.6,-0.1 0,0 -0.1,0 -0.2,0 -0.1,0 -0.2,0 -0.3,-0.1 -0.1,0 -0.3,-0.1 -0.4,-0.2 -0.1,-0.1 -0.3,-0.2 -0.4,-0.3 0,0 -0.1,0 -0.1,-0.1 -0.1,0 -0.2,-0.1 -0.2,-0.1 -0.1,0 -0.2,-0.1 -0.2,-0.1 -0.1,0 -0.1,0 -0.1,-0.1 C 80,63.5 79.8,63.4 79.6,63.3 79.4,63.2 79.2,63 79.1,62.9 79,62.8 78.8,62.6 78.6,62.5 c -0.2,-0.1 -0.3,-0.3 -0.4,-0.4 -0.5,-0.5 -1,-1 -1.4,-1.6 -0.4,-0.6 -0.8,-1.2 -1.1,-1.8 -0.2,-0.5 -0.4,-1 -0.6,-1.5 -0.1,-0.4 -0.3,-0.9 -0.3,-1.3 -0.1,-0.4 -0.1,-0.9 -0.2,-1.3 0,-0.5 0,-1 0,-1.6 v -1.3 c 0.1,-0.6 0.3,-1.2 0.5,-1.8 0.2,-0.6 0.4,-1.1 0.7,-1.6 0.3,-0.5 0.6,-1 0.9,-1.5 0.4,-0.5 0.8,-0.9 1.3,-1.4 0.3,-0.3 0.7,-0.6 1.1,-0.9 0.4,-0.2 0.8,-0.5 1.2,-0.7 0,0 0.1,0 0.1,-0.1 0.1,0 0.1,-0.1 0.2,-0.1 0.1,0 0.1,-0.1 0.2,-0.1 0.1,0 0.1,0 0.1,0 0,0 0.1,0 0.3,0 0.2,0 0.2,0 0.2,0 0,0 0.1,-0.1 0.2,-0.1 0.1,-0.1 0.2,-0.1 0.2,-0.1 0,0 0,0 0.1,0 0.1,0 0.1,0 0.2,0 0.1,0 0.1,0 0.2,0 0.1,0 0.1,0 0.1,0 0,0 0.1,0 0.3,-0.1 0.2,0 0.3,-0.1 0.5,-0.1 0.2,0 0.3,-0.1 0.5,-0.1 0.2,0 0.3,-0.1 0.3,-0.1 0.1,0 0.3,-0.1 0.5,-0.1 0.2,0 0.5,-0.1 0.8,-0.1 0.3,0 0.5,0 0.8,-0.1 0.3,-0.1 0.4,0 0.5,0 h 0.2 c 0.1,0 0.1,0 0.2,0 0.1,0 0.1,0 0.1,0 0.2,0 0.5,0 0.7,0 0.2,0 0.4,0 0.6,0.1 0.3,0.1 0.6,0.2 1,0.2 0.4,0 0.6,0.1 1,0.2 0.1,0 0.2,0.1 0.4,0.2 0.2,0.1 0.4,0.2 0.6,0.3 0.2,0.1 0.4,0.2 0.6,0.3 0.2,0.1 0.3,0.2 0.4,0.2 0,0 0.1,0.1 0.3,0.2 0.2,0.1 0.3,0.3 0.5,0.5 0.2,0.2 0.3,0.3 0.5,0.5 0.2,0.2 0.3,0.3 0.4,0.4 0,0 0,0.1 0.1,0.2 0.1,0.1 0.1,0.2 0.2,0.3 0.1,0.1 0.1,0.2 0.2,0.3 0.1,0.1 0.1,0.2 0.2,0.3 0.4,0.6 0.7,1.2 1,1.8 0.3,0.6 0.5,1.2 0.6,1.8 0.1,0.6 0.3,1.3 0.3,1.9 0.1,0.7 0.1,1.3 0.1,2 v 0.1 c 0,0.2 0,0.5 -0.1,0.8 0,0.3 -0.1,0.7 -0.1,1 0,0.3 -0.1,0.6 -0.1,0.9 0,0.3 0,0.4 -0.1,0.5 -0.1,0.6 -0.2,1.1 -0.4,1.6 -0.2,0.5 -0.4,1 -0.6,1.5 -0.2,0.3 -0.4,0.5 -0.5,0.7 -0.1,0.2 -0.3,0.4 -0.4,0.5 -0.1,0.2 -0.3,0.4 -0.5,0.6 -0.2,0.2 -0.4,0.5 -0.7,0.8 -0.4,0.3 -0.8,0.6 -1.3,0.8 -0.4,0.2 -0.9,0.5 -1.4,0.6 -0.5,0.1 -1.1,0.2 -1.6,0.3 -0.5,0.1 -1,0.1 -1.4,0.1 0,0 -0.1,0 -0.2,0 -0.1,0 -0.2,0 -0.4,0 -0.1,0 -0.2,0 -0.4,0 -0.1,0 -0.2,0 -0.2,0 0,0 -0.1,0 -0.1,-0.1 0,-0.1 -0.1,0 -0.1,0 0,0 -0.1,0 -0.2,0 -0.1,0 -0.2,0 -0.3,0 -0.1,0 -0.2,0 -0.3,0 -0.1,0 -0.1,0 -0.2,0 0,0 -0.1,0 -0.3,0 -0.2,0 -0.3,0 -0.5,-0.1 -0.2,-0.1 -0.3,0.1 -0.4,0 -0.1,-0.1 -0.3,0 -0.3,-0.1 H 83.5 Z M 80.9,53.2 c 0,0.3 0,0.6 0.1,0.9 0,0.3 0.1,0.6 0.3,0.9 0,0 0,0.1 0.1,0.2 0.1,0.1 0.1,0.2 0.1,0.2 0,0.1 0.1,0.3 0.1,0.5 0,0.2 0.1,0.3 0.1,0.5 0.1,0.2 0.1,0.3 0.2,0.5 0.1,0.2 0.2,0.3 0.3,0.4 0,0 0.1,0.1 0.2,0.2 0.1,0.1 0.2,0.2 0.2,0.3 0.1,0.1 0.2,0.2 0.2,0.2 0.1,0.1 0.1,0.1 0.1,0.1 0,0 0,0 0.1,0.1 0.1,0 0.1,0.1 0.2,0.1 0.1,0.1 0.2,0.1 0.3,0.2 0.1,0.1 0.2,0.1 0.2,0.1 l 0.2,0.1 c 0,0 0.1,0.1 0.2,0.2 0.1,0.1 0.2,0.1 0.2,0.1 0,0 0.1,0 0.2,0.1 0.1,0 0.2,0 0.2,0 0.2,0.1 0.4,0.2 0.5,0.2 0.1,0 0.2,0 0.3,0 0.1,0 0.2,0 0.3,0 0.1,0 0.2,0 0.4,0 0,0 0.1,0 0.1,0 0.1,0 0.1,0 0.2,0 0.1,0 0.2,0 0.2,0 0.1,0 0.1,0 0.2,0 0.5,-0.1 1,-0.3 1.5,-0.5 0.5,-0.3 0.9,-0.6 1.2,-1 0.3,-0.4 0.6,-0.9 0.8,-1.4 0.2,-0.5 0.3,-1 0.3,-1.6 0,0 0,-0.2 0,-0.4 0,-0.2 0,-0.7 0.1,-1.3 0,-0.3 -0.1,-0.6 -0.2,-0.9 -0.1,-0.3 -0.2,-0.6 -0.3,-0.9 -0.2,-0.4 -0.4,-0.8 -0.8,-1.1 -0.4,-0.3 -0.7,-0.6 -1.1,-0.8 -0.2,-0.2 -0.5,-0.3 -0.6,-0.4 -0.2,-0.1 -0.4,-0.2 -0.6,-0.3 -0.2,-0.1 -0.4,-0.1 -0.6,-0.2 -0.2,0 -0.5,-0.1 -0.7,-0.1 -0.3,0 -0.5,0 -0.7,0 -0.2,0 -0.4,0 -0.7,0.1 -0.3,0.1 -0.6,0.1 -0.9,0.2 -0.3,0.1 -0.6,0.2 -0.9,0.4 -0.3,0.2 -0.5,0.3 -0.7,0.5 -0.2,0.2 -0.4,0.5 -0.5,0.7 l -0.3,0.8 c -0.1,0.1 -0.1,0.2 -0.2,0.4 -0.1,0.2 -0.1,0.4 -0.1,0.5 0,0.2 -0.1,0.4 -0.1,0.6 0,0.3 0.1,0.5 0.1,0.6 z"
   id="path24"
   inkscape:connector-curvature="0"
   style="fill:#41797d" />
	</g>
	<g
   class="st4"
   id="g30"
   style="enable-background:new">
		<path
   class="st5"
   d="m 83.1,64.8 c -0.1,0 -0.2,0 -0.4,-0.1 -0.2,0 -0.4,-0.1 -0.6,-0.1 0,0 -0.1,0 -0.2,0 -0.1,0 -0.2,0 -0.3,-0.1 -0.1,0 -0.3,-0.1 -0.4,-0.2 -0.1,-0.1 -0.3,-0.2 -0.4,-0.3 0,0 -0.1,0 -0.1,-0.1 -0.1,0 -0.2,-0.1 -0.2,-0.1 -0.1,0 -0.2,-0.1 -0.2,-0.1 -0.1,0 -0.1,0 -0.1,-0.1 C 80,63.5 79.8,63.4 79.6,63.3 79.4,63.2 79.2,63 79.1,62.9 79,62.8 78.8,62.6 78.6,62.5 c -0.2,-0.1 -0.3,-0.3 -0.4,-0.4 -0.5,-0.5 -1,-1 -1.4,-1.6 -0.4,-0.6 -0.8,-1.2 -1.1,-1.8 -0.2,-0.5 -0.4,-1 -0.6,-1.5 -0.1,-0.4 -0.3,-0.9 -0.3,-1.3 -0.1,-0.4 -0.1,-0.9 -0.2,-1.3 0,-0.5 0,-1 0,-1.6 v -1.3 c 0.1,-0.6 0.3,-1.2 0.5,-1.8 0.2,-0.6 0.4,-1.1 0.7,-1.6 0.3,-0.5 0.6,-1 0.9,-1.5 0.4,-0.5 0.8,-0.9 1.3,-1.4 0.3,-0.3 0.7,-0.6 1.1,-0.9 0.4,-0.2 0.8,-0.5 1.2,-0.7 0,0 0.1,0 0.1,-0.1 0.1,0 0.1,-0.1 0.2,-0.1 0.1,0 0.1,-0.1 0.2,-0.1 0.1,0 0.1,0 0.1,0 0,0 0.1,0 0.3,0 0.2,0 0.2,0 0.2,0 0,0 0.1,-0.1 0.2,-0.1 0.1,-0.1 0.2,-0.1 0.2,-0.1 0,0 0,0 0.1,0 0.1,0 0.1,0 0.2,0 0.1,0 0.1,0 0.2,0 0.1,0 0.1,0 0.1,0 0,0 0.1,0 0.3,-0.1 0.2,0 0.3,-0.1 0.5,-0.1 0.2,0 0.3,-0.1 0.5,-0.1 0.2,0 0.3,-0.1 0.3,-0.1 0.1,0 0.3,-0.1 0.5,-0.1 0.2,0 0.5,-0.1 0.8,-0.1 0.3,0 0.5,0 0.8,-0.1 0.3,-0.1 0.4,0 0.5,0 h 0.2 c 0.1,0 0.1,0 0.2,0 0.1,0 0.1,0 0.1,0 0.2,0 0.5,0 0.7,0 0.2,0 0.4,0 0.6,0.1 0.3,0.1 0.6,0.2 1,0.2 0.4,0 0.6,0.1 1,0.2 0.1,0 0.2,0.1 0.4,0.2 0.2,0.1 0.4,0.2 0.6,0.3 0.2,0.1 0.4,0.2 0.6,0.3 0.2,0.1 0.3,0.2 0.4,0.2 0,0 0.1,0.1 0.3,0.2 0.2,0.1 0.3,0.3 0.5,0.5 0.2,0.2 0.3,0.3 0.5,0.5 0.2,0.2 0.3,0.3 0.4,0.4 0,0 0,0.1 0.1,0.2 0.1,0.1 0.1,0.2 0.2,0.3 0.1,0.1 0.1,0.2 0.2,0.3 0.1,0.1 0.1,0.2 0.2,0.3 0.4,0.6 0.7,1.2 1,1.8 0.3,0.6 0.5,1.2 0.6,1.8 0.1,0.6 0.3,1.3 0.3,1.9 0.1,0.7 0.1,1.3 0.1,2 v 0.1 c 0,0.2 0,0.5 -0.1,0.8 0,0.3 -0.1,0.7 -0.1,1 0,0.3 -0.1,0.6 -0.1,0.9 0,0.3 0,0.4 -0.1,0.5 -0.1,0.6 -0.2,1.1 -0.4,1.6 -0.2,0.5 -0.4,1 -0.6,1.5 -0.2,0.3 -0.4,0.5 -0.5,0.7 -0.1,0.2 -0.3,0.4 -0.4,0.5 -0.1,0.2 -0.3,0.4 -0.5,0.6 -0.2,0.2 -0.4,0.5 -0.7,0.8 -0.4,0.3 -0.8,0.6 -1.3,0.8 -0.4,0.2 -0.9,0.5 -1.4,0.6 -0.5,0.1 -1.1,0.2 -1.6,0.3 -0.5,0.1 -1,0.1 -1.4,0.1 0,0 -0.1,0 -0.2,0 -0.1,0 -0.2,0 -0.4,0 -0.1,0 -0.2,0 -0.4,0 -0.1,0 -0.2,0 -0.2,0 0,0 -0.1,0 -0.1,-0.1 0,-0.1 -0.1,0 -0.1,0 0,0 -0.1,0 -0.2,0 -0.1,0 -0.2,0 -0.3,0 -0.1,0 -0.2,0 -0.3,0 -0.1,0 -0.1,0 -0.2,0 0,0 -0.1,0 -0.3,0 -0.2,0 -0.3,0 -0.5,-0.1 -0.2,-0.1 -0.3,0.1 -0.4,0 -0.1,-0.1 -0.3,0 -0.3,-0.1 H 83.5 Z M 80.9,53.2 c 0,0.3 0,0.6 0.1,0.9 0,0.3 0.1,0.6 0.3,0.9 0,0 0,0.1 0.1,0.2 0.1,0.1 0.1,0.2 0.1,0.2 0,0.1 0.1,0.3 0.1,0.5 0,0.2 0.1,0.3 0.1,0.5 0.1,0.2 0.1,0.3 0.2,0.5 0.1,0.2 0.2,0.3 0.3,0.4 0,0 0.1,0.1 0.2,0.2 0.1,0.1 0.2,0.2 0.2,0.3 0.1,0.1 0.2,0.2 0.2,0.2 0.1,0.1 0.1,0.1 0.1,0.1 0,0 0,0 0.1,0.1 0.1,0 0.1,0.1 0.2,0.1 0.1,0.1 0.2,0.1 0.3,0.2 0.1,0.1 0.2,0.1 0.2,0.1 l 0.2,0.1 c 0,0 0.1,0.1 0.2,0.2 0.1,0.1 0.2,0.1 0.2,0.1 0,0 0.1,0 0.2,0.1 0.1,0 0.2,0 0.2,0 0.2,0.1 0.4,0.2 0.5,0.2 0.1,0 0.2,0 0.3,0 0.1,0 0.2,0 0.3,0 0.1,0 0.2,0 0.4,0 0,0 0.1,0 0.1,0 0.1,0 0.1,0 0.2,0 0.1,0 0.2,0 0.2,0 0.1,0 0.1,0 0.2,0 0.5,-0.1 1,-0.3 1.5,-0.5 0.5,-0.3 0.9,-0.6 1.2,-1 0.3,-0.4 0.6,-0.9 0.8,-1.4 0.2,-0.5 0.3,-1 0.3,-1.6 0,0 0,-0.2 0,-0.4 0,-0.2 0,-0.7 0.1,-1.3 0,-0.3 -0.1,-0.6 -0.2,-0.9 -0.1,-0.3 -0.2,-0.6 -0.3,-0.9 -0.2,-0.4 -0.4,-0.8 -0.8,-1.1 -0.4,-0.3 -0.7,-0.6 -1.1,-0.8 -0.2,-0.2 -0.5,-0.3 -0.6,-0.4 -0.2,-0.1 -0.4,-0.2 -0.6,-0.3 -0.2,-0.1 -0.4,-0.1 -0.6,-0.2 -0.2,0 -0.5,-0.1 -0.7,-0.1 -0.3,0 -0.5,0 -0.7,0 -0.2,0 -0.4,0 -0.7,0.1 -0.3,0.1 -0.6,0.1 -0.9,0.2 -0.3,0.1 -0.6,0.2 -0.9,0.4 -0.3,0.2 -0.5,0.3 -0.7,0.5 -0.2,0.2 -0.4,0.5 -0.5,0.7 l -0.3,0.8 c -0.1,0.1 -0.1,0.2 -0.2,0.4 -0.1,0.2 -0.1,0.4 -0.1,0.5 0,0.2 -0.1,0.4 -0.1,0.6 0,0.3 0.1,0.5 0.1,0.6 z"
   id="path28"
   inkscape:connector-curvature="0"
   style="fill:none;stroke:#41797d;stroke-linecap:round;stroke-linejoin:round" />
	</g>
	<g
   class="st4"
   id="g34"
   style="enable-background:new">
		<path
   class="st3"
   d="m 100.1,62.6 c -0.1,0 -0.3,-0.1 -0.4,-0.1 -0.1,-0.1 -0.2,-0.1 -0.2,-0.2 -0.1,-0.1 -0.1,-0.2 -0.1,-0.3 0,-0.1 0,-0.2 0,-0.3 0,-0.1 0,-0.2 0,-0.2 0,-0.9 0,-1.7 0,-2.5 0,-0.8 0,-1.7 -0.1,-2.5 0,-0.9 0,-1.7 0,-2.6 0,-0.8 0.1,-1.7 0.1,-2.6 l -0.1,-0.8 c 0,-0.1 0,-0.2 0,-0.3 0,-0.1 0,-0.1 0,-0.2 0,-0.1 0,-0.1 0,-0.2 v -1 c 0,-0.1 0,-0.2 0,-0.5 0,-0.2 0,-0.5 0,-0.8 0,-0.3 0,-0.5 0,-0.8 0,-0.3 0,-0.4 0,-0.5 0,-0.1 0,-0.2 0,-0.5 0,-0.3 0,-0.5 0.1,-0.8 0,-0.3 0,-0.5 0,-0.8 0,-0.2 0,-0.4 0,-0.5 0,-0.2 0,-0.5 0,-0.8 0,-0.3 0,-0.6 -0.1,-0.9 v -0.6 c 0,-0.1 0,-0.2 0.1,-0.3 0.1,-0.1 0.2,-0.1 0.2,-0.1 0.1,0 0.2,0 0.2,0 0.1,0 0.1,0 0.1,0 0,0 0.1,0 0.2,0 0.1,0 0.2,0 0.3,0 0.1,0 0.2,0 0.3,0 0.1,0 0.1,0 0.2,0 0.2,0 0.4,0 0.6,0 0.2,0 0.4,0 0.6,0 0.2,0 0.4,0 0.6,0 0.2,0 0.4,0 0.6,0 h 0.2 c 0,0 0,0 0.1,0 0.1,0 0.1,0 0.2,0 0.1,0 0.1,0 0.2,0 0.1,0 0.1,0 0.2,0 0.2,0 0.4,0.1 0.5,0.2 0.1,0.1 0.2,0.1 0.2,0.3 0,0.2 0,0.2 0.1,0.4 0,0.2 0,0.3 0.1,0.6 0.5,-0.4 1,-0.8 1.5,-1.1 0.5,-0.3 1.1,-0.5 1.6,-0.6 0.6,-0.1 1.1,-0.2 1.7,-0.3 0.6,0 1.2,0 1.8,0 0.2,0 0.3,0 0.5,0.1 0.2,0.1 0.4,0.1 0.6,0.1 0.2,0.1 0.4,0.1 0.6,0.2 0.2,0.1 0.3,0.2 0.5,0.2 0.1,0.1 0.2,0.2 0.4,0.3 0.2,0.1 0.3,0.2 0.5,0.4 0.2,0.2 0.3,0.2 0.4,0.3 0.1,0.1 0.2,0.1 0.2,0.1 0.3,0.2 0.6,0.5 0.8,0.8 0.2,0.3 0.4,0.6 0.6,1 0.2,0.3 0.3,0.7 0.4,1.1 0.1,0.4 0.2,0.8 0.3,1.1 0,0 0.1,0.2 0.1,0.3 0,0.1 0.1,0.4 0.1,0.6 0,0.2 0.1,0.5 0.1,0.7 0,0.2 0,0.4 0,0.6 v 0.3 c 0,0 0,0.2 0,0.3 0,0.2 0,0.4 0,0.6 0,0.2 0,0.4 0,0.6 0,0.2 0,0.3 0,0.3 v 2.8 0.6 c 0,0 0,0.1 0,0.2 0,0.1 0,0.2 0,0.3 0,0.1 0,0.2 0,0.3 0,0.1 0,0.2 0,0.2 v 0.4 c 0,0.2 0,0.5 0,0.8 0,0.3 0,0.7 0,1.1 0,0.4 0,0.8 0,1.1 0,0.4 0,0.7 0,1.1 0,0.3 0,0.6 0,0.8 0,0.2 0,0.4 0,0.4 0,0 0,0.1 0,0.2 0,0.1 0,0.2 0,0.3 0,0.1 0,0.2 0,0.3 0,0.1 0,0.2 0,0.2 v 0.2 c 0,0.1 -0.1,0.2 -0.2,0.2 -0.1,0 -0.3,0 -0.3,0.1 0,0 -0.1,0 -0.1,0 0,0 -0.1,0 -0.2,0 -0.1,0 -0.1,0 -0.2,0 -0.1,0 -0.1,0 -0.1,0 0,0 -0.1,0 -0.3,0 -0.2,0 -0.3,0 -0.4,0 -0.1,0 -0.3,0 -0.4,0 -0.1,0 -0.2,0 -0.3,0 -0.5,0 -1,0.1 -1.5,0.1 -0.5,0 -1,0 -1.5,0 -0.2,0 -0.3,-0.1 -0.4,-0.2 -0.1,-0.1 -0.1,-0.2 -0.2,-0.3 0,-0.1 0,-0.3 0,-0.4 0,-0.1 0,-0.3 0,-0.4 0,-0.1 0,-0.2 0,-0.4 0,-0.2 0,-0.4 0,-0.7 0,-0.3 0,-0.6 0,-0.9 0,-0.3 0,-0.6 0,-0.9 0,-0.3 0,-0.5 0,-0.7 0,-0.2 0,-0.3 0,-0.4 v -3.9 c 0,-0.4 0,-0.8 0,-1.4 0,-0.5 -0.1,-1 -0.2,-1.6 -0.1,-0.5 -0.2,-1.1 -0.3,-1.6 -0.1,-0.5 -0.3,-1 -0.5,-1.4 -0.2,-0.4 -0.5,-0.7 -0.7,-1 -0.3,-0.2 -0.6,-0.3 -0.9,-0.3 h -0.6 c -0.4,0 -0.7,0 -1,0.1 -0.3,0.1 -0.6,0.3 -0.9,0.5 0,0 0,0 -0.1,0 0,0 0,0.1 0,0.1 -0.3,0.2 -0.6,0.6 -0.8,1 -0.2,0.4 -0.4,0.9 -0.6,1.5 -0.2,0.5 -0.3,1.1 -0.4,1.7 -0.1,0.6 -0.2,1.2 -0.3,1.8 0,0.1 0,0.2 -0.1,0.4 0,0.2 0,0.5 -0.1,0.7 -0.1,0.2 -0.1,0.5 -0.1,0.8 0,0.3 0,0.5 0,0.6 0,0 0,0.1 0,0.2 0,0.1 0,0.2 0,0.4 0,0.1 0,0.3 0,0.4 0,0.1 0,0.2 0,0.3 0,0.1 0,0.1 0,0.3 0,0.1 0,0.3 0,0.4 0,0.1 0,0.3 0,0.4 0,0.1 0,0.2 0,0.3 V 60 c 0,0 0,0.1 0,0.2 0,0.1 0,0.2 0,0.2 0,0 0,0 0,0.1 0,0 0,0.1 0,0.2 0,0.1 0,0.1 0,0.2 0,0.1 0,0.1 0,0.1 0,0.1 0,0.2 0,0.3 0,0.1 0,0.2 0,0.4 0,0.1 -0.1,0.2 -0.1,0.3 0,0.1 -0.2,0.1 -0.4,0.1 -0.3,0 -0.5,0 -0.8,0 -0.3,0 -0.6,0 -1,0 -0.3,0 -0.7,0 -1,0 -0.1,0.5 -0.4,0.5 -0.7,0.5 z"
   id="path32"
   inkscape:connector-curvature="0"
   style="fill:#41797d" />
	</g>
	<g
   class="st4"
   id="g38"
   style="enable-background:new">
		<path
   class="st5"
   d="m 100.1,62.6 c -0.1,0 -0.3,-0.1 -0.4,-0.1 -0.1,-0.1 -0.2,-0.1 -0.2,-0.2 -0.1,-0.1 -0.1,-0.2 -0.1,-0.3 0,-0.1 0,-0.2 0,-0.3 0,-0.1 0,-0.2 0,-0.2 0,-0.9 0,-1.7 0,-2.5 0,-0.8 0,-1.7 -0.1,-2.5 0,-0.9 0,-1.7 0,-2.6 0,-0.8 0.1,-1.7 0.1,-2.6 l -0.1,-0.8 c 0,-0.1 0,-0.2 0,-0.3 0,-0.1 0,-0.1 0,-0.2 0,-0.1 0,-0.1 0,-0.2 v -1 c 0,-0.1 0,-0.2 0,-0.5 0,-0.2 0,-0.5 0,-0.8 0,-0.3 0,-0.5 0,-0.8 0,-0.3 0,-0.4 0,-0.5 0,-0.1 0,-0.2 0,-0.5 0,-0.3 0,-0.5 0.1,-0.8 0,-0.3 0,-0.5 0,-0.8 0,-0.2 0,-0.4 0,-0.5 0,-0.2 0,-0.5 0,-0.8 0,-0.3 0,-0.6 -0.1,-0.9 v -0.6 c 0,-0.1 0,-0.2 0.1,-0.3 0.1,-0.1 0.2,-0.1 0.2,-0.1 0.1,0 0.2,0 0.2,0 0.1,0 0.1,0 0.1,0 0,0 0.1,0 0.2,0 0.1,0 0.2,0 0.3,0 0.1,0 0.2,0 0.3,0 0.1,0 0.1,0 0.2,0 0.2,0 0.4,0 0.6,0 0.2,0 0.4,0 0.6,0 0.2,0 0.4,0 0.6,0 0.2,0 0.4,0 0.6,0 h 0.2 c 0,0 0,0 0.1,0 0.1,0 0.1,0 0.2,0 0.1,0 0.1,0 0.2,0 0.1,0 0.1,0 0.2,0 0.2,0 0.4,0.1 0.5,0.2 0.1,0.1 0.2,0.1 0.2,0.3 0,0.2 0,0.2 0.1,0.4 0,0.2 0,0.3 0.1,0.6 0.5,-0.4 1,-0.8 1.5,-1.1 0.5,-0.3 1.1,-0.5 1.6,-0.6 0.6,-0.1 1.1,-0.2 1.7,-0.3 0.6,0 1.2,0 1.8,0 0.2,0 0.3,0 0.5,0.1 0.2,0.1 0.4,0.1 0.6,0.1 0.2,0.1 0.4,0.1 0.6,0.2 0.2,0.1 0.3,0.2 0.5,0.2 0.1,0.1 0.2,0.2 0.4,0.3 0.2,0.1 0.3,0.2 0.5,0.4 0.2,0.2 0.3,0.2 0.4,0.3 0.1,0.1 0.2,0.1 0.2,0.1 0.3,0.2 0.6,0.5 0.8,0.8 0.2,0.3 0.4,0.6 0.6,1 0.2,0.3 0.3,0.7 0.4,1.1 0.1,0.4 0.2,0.8 0.3,1.1 0,0 0.1,0.2 0.1,0.3 0,0.1 0.1,0.4 0.1,0.6 0,0.2 0.1,0.5 0.1,0.7 0,0.2 0,0.4 0,0.6 v 0.3 c 0,0 0,0.2 0,0.3 0,0.2 0,0.4 0,0.6 0,0.2 0,0.4 0,0.6 0,0.2 0,0.3 0,0.3 v 2.8 0.6 c 0,0 0,0.1 0,0.2 0,0.1 0,0.2 0,0.3 0,0.1 0,0.2 0,0.3 0,0.1 0,0.2 0,0.2 v 0.4 c 0,0.2 0,0.5 0,0.8 0,0.3 0,0.7 0,1.1 0,0.4 0,0.8 0,1.1 0,0.4 0,0.7 0,1.1 0,0.3 0,0.6 0,0.8 0,0.2 0,0.4 0,0.4 0,0 0,0.1 0,0.2 0,0.1 0,0.2 0,0.3 0,0.1 0,0.2 0,0.3 0,0.1 0,0.2 0,0.2 v 0.2 c 0,0.1 -0.1,0.2 -0.2,0.2 -0.1,0 -0.3,0 -0.3,0.1 0,0 -0.1,0 -0.1,0 0,0 -0.1,0 -0.2,0 -0.1,0 -0.1,0 -0.2,0 -0.1,0 -0.1,0 -0.1,0 0,0 -0.1,0 -0.3,0 -0.2,0 -0.3,0 -0.4,0 -0.1,0 -0.3,0 -0.4,0 -0.1,0 -0.2,0 -0.3,0 -0.5,0 -1,0.1 -1.5,0.1 -0.5,0 -1,0 -1.5,0 -0.2,0 -0.3,-0.1 -0.4,-0.2 -0.1,-0.1 -0.1,-0.2 -0.2,-0.3 0,-0.1 0,-0.3 0,-0.4 0,-0.1 0,-0.3 0,-0.4 0,-0.1 0,-0.2 0,-0.4 0,-0.2 0,-0.4 0,-0.7 0,-0.3 0,-0.6 0,-0.9 0,-0.3 0,-0.6 0,-0.9 0,-0.3 0,-0.5 0,-0.7 0,-0.2 0,-0.3 0,-0.4 v -3.9 c 0,-0.4 0,-0.8 0,-1.4 0,-0.5 -0.1,-1 -0.2,-1.6 -0.1,-0.5 -0.2,-1.1 -0.3,-1.6 -0.1,-0.5 -0.3,-1 -0.5,-1.4 -0.2,-0.4 -0.5,-0.7 -0.7,-1 -0.3,-0.2 -0.6,-0.3 -0.9,-0.3 h -0.6 c -0.4,0 -0.7,0 -1,0.1 -0.3,0.1 -0.6,0.3 -0.9,0.5 0,0 0,0 -0.1,0 0,0 0,0.1 0,0.1 -0.3,0.2 -0.6,0.6 -0.8,1 -0.2,0.4 -0.4,0.9 -0.6,1.5 -0.2,0.5 -0.3,1.1 -0.4,1.7 -0.1,0.6 -0.2,1.2 -0.3,1.8 0,0.1 0,0.2 -0.1,0.4 0,0.2 0,0.5 -0.1,0.7 -0.1,0.2 -0.1,0.5 -0.1,0.8 0,0.3 0,0.5 0,0.6 0,0 0,0.1 0,0.2 0,0.1 0,0.2 0,0.4 0,0.1 0,0.3 0,0.4 0,0.1 0,0.2 0,0.3 0,0.1 0,0.1 0,0.3 0,0.1 0,0.3 0,0.4 0,0.1 0,0.3 0,0.4 0,0.1 0,0.2 0,0.3 V 60 c 0,0 0,0.1 0,0.2 0,0.1 0,0.2 0,0.2 0,0 0,0 0,0.1 0,0 0,0.1 0,0.2 0,0.1 0,0.1 0,0.2 0,0.1 0,0.1 0,0.1 0,0.1 0,0.2 0,0.3 0,0.1 0,0.2 0,0.4 0,0.1 -0.1,0.2 -0.1,0.3 0,0.1 -0.2,0.1 -0.4,0.1 -0.3,0 -0.5,0 -0.8,0 -0.3,0 -0.6,0 -1,0 -0.3,0 -0.7,0 -1,0 -0.1,0.5 -0.4,0.5 -0.7,0.5 z"
   id="path36"
   inkscape:connector-curvature="0"
   style="fill:none;stroke:#41797d;stroke-linecap:round;stroke-linejoin:round" />
	</g>
	<g
   class="st4"
   id="g42"
   style="enable-background:new">
		<path
   class="st3"
   d="m 125.1,64.6 c 0,0 0,-0.1 0.1,-0.1 0,-0.1 0,-0.1 0,-0.1 0,-0.1 0,-0.2 0,-0.3 0,-0.1 0,-0.3 0,-0.4 0,-0.2 0,-0.3 0,-0.4 0,-0.1 0,-0.2 0,-0.3 0,-0.1 0,-0.2 0,-0.4 0,-0.2 0,-0.3 0,-0.5 0,-0.2 0,-0.3 0,-0.4 0,-0.1 0,-0.2 0,-0.2 0,-0.1 0,-0.2 0,-0.5 0,-0.3 0,-0.5 0,-0.8 0,-0.3 0,-0.6 0,-0.8 0,-0.2 0,-0.4 0,-0.5 0,0 0,-0.1 0,-0.3 0,-0.2 0,-0.3 0,-0.4 0,-0.2 0,-0.3 0,-0.4 0,-0.1 0,-0.2 0,-0.3 0,0 0,-0.1 0,-0.3 0,-0.2 0,-0.3 0,-0.5 0,-0.2 0,-0.3 -0.1,-0.5 -0.1,-0.2 0,-0.2 0,-0.3 0,-0.2 0,-0.4 0,-0.7 0,-0.3 0,-0.7 0,-1.1 0,-0.4 0,-0.8 0,-1.3 0,-0.4 0,-0.9 0,-1.2 0,-0.4 0,-0.7 0,-1.1 0,-0.3 0,-0.5 0,-0.7 v -0.2 c -0.4,0 -0.9,0 -1.4,0 -0.5,0 -1,-0.1 -1.4,-0.1 0,0 0,0 0,-0.1 0,0 0,-0.1 -0.1,-0.1 0,0 0,0 -0.1,0 0,0 -0.1,0 0,0 0,-0.1 0,-0.3 0,-0.5 0,-0.2 0,-0.5 0,-0.8 0,-0.3 0,-0.6 -0.1,-0.9 0,-0.3 0,-0.6 0,-0.9 0,-0.3 0,-0.6 0,-0.8 0,-0.2 0,-0.4 0,-0.5 v -0.2 c 0,-0.2 0.1,-0.4 0.2,-0.5 0.1,-0.1 0.3,-0.2 0.4,-0.3 0.4,0.1 0.8,0.1 1.2,0 0.4,-0.1 0.8,-0.1 1.2,-0.1 0.1,0 0.2,0 0.3,0 0.1,0 0.2,0 0.3,-0.1 v -0.3 c 0,-0.9 0,-1.7 -0.1,-2.5 -0.1,-0.8 -0.1,-1.7 -0.1,-2.5 0,0 0,-0.1 0,-0.2 0,-0.1 0,-0.2 0,-0.4 0,-0.2 0,-0.3 0,-0.4 0,-0.1 0,-0.2 0,-0.2 0,-0.1 0.1,-0.1 0.2,-0.2 0.1,0 0.3,0 0.6,0.1 0.1,0 0.2,0 0.4,0 0.2,0 0.4,0 0.6,-0.1 0.2,0 0.4,0 0.6,-0.1 0.2,0 0.3,0 0.4,0 0,0 0.1,0 0.3,0 0.2,0 0.3,0 0.5,0 0.2,0 0.3,0 0.5,0 0.1,0 0.2,0 0.3,0 h 0.2 c 0.1,0 0.2,0 0.3,0 0.1,0 0.3,0 0.4,0 0.2,0 0.3,0 0.5,0 l 0.2,0.2 c 0,0 0,0.1 0,0.2 0,0.1 0,0.1 0,0.2 0,0.1 0,0.2 0,0.2 0,0.1 0,0.1 0,0.2 0,0 0,0.1 0.1,0.1 0,0 0,0.1 0,0.1 0.1,0.4 0.1,0.9 0.1,1.3 0,0.4 0,0.9 0,1.4 0,0.1 0,0.3 0,0.5 0,0.2 0,0.5 0,0.8 0,0.3 0,0.6 0,0.9 0,0.3 0,0.6 0,0.8 0,0.1 0,0.1 0.1,0.1 0,0 0.1,0 0.1,0.1 0,0.1 0.1,0 0.2,0 0.1,0 0.1,0 0.2,0 h 0.1 c 0.4,-0.1 0.7,-0.2 1,-0.2 0.3,0 0.7,0 1.1,0 0,0 0.1,0 0.2,0 0.1,0 0.1,0 0.2,0 0.1,0 0.2,0 0.3,0 l 0.1,0.6 c 0,0.6 0,1.1 0,1.7 0,0.5 0,1.1 0.1,1.7 0,0 0,0.1 0,0.2 0,0.1 0,0.3 0,0.4 0,0.1 0,0.3 0,0.4 0,0.1 0,0.2 0,0.2 v 0.1 c 0,0.1 0,0.2 -0.1,0.3 -0.1,0.1 -0.1,0.1 -0.2,0.2 -0.1,0 -0.2,0.1 -0.2,0.1 0,0 -0.2,0 -0.2,0.1 l -0.5,0.1 h -1.8 v 1.4 c 0,0 0,0.1 0,0.2 0,0.1 0,0.2 0,0.3 0,0.1 0,0.2 0,0.3 0,0.1 0,0.1 0,0.1 0,0.4 0,0.7 0,1.1 0,0.3 0,0.6 0.1,0.9 0,0.3 0.1,0.6 0.1,0.9 0,0.3 0.1,0.7 0.1,1 l -0.2,8.8 c 0,0.1 -0.1,0.2 -0.2,0.3 -0.1,0.1 -0.2,0.1 -0.3,0.1 h -3.7 c 0,0 -0.1,0 -0.2,0.1 -0.1,0.1 -0.2,0 -0.2,0 0,0 -0.1,0 -0.2,0 -0.1,0 -0.1,0 -0.2,0 0,0 -0.1,0 -0.2,0 -0.1,0 -0.2,0 -0.3,0 -0.1,0 -0.2,0 -0.3,0 -0.1,0 -0.2,0 -0.2,0 -0.1,0 -0.3,0 -0.4,-0.1 -0.8,-0.4 -0.9,-0.5 -0.9,-0.7 z"
   id="path40"
   inkscape:connector-curvature="0"
   style="fill:#41797d" />
	</g>
	<g
   class="st4"
   id="g46"
   style="enable-background:new">
		<path
   class="st5"
   d="m 125.1,64.6 c 0,0 0,-0.1 0.1,-0.1 0,-0.1 0,-0.1 0,-0.1 0,-0.1 0,-0.2 0,-0.3 0,-0.1 0,-0.3 0,-0.4 0,-0.2 0,-0.3 0,-0.4 0,-0.1 0,-0.2 0,-0.3 0,-0.1 0,-0.2 0,-0.4 0,-0.2 0,-0.3 0,-0.5 0,-0.2 0,-0.3 0,-0.4 0,-0.1 0,-0.2 0,-0.2 0,-0.1 0,-0.2 0,-0.5 0,-0.3 0,-0.5 0,-0.8 0,-0.3 0,-0.6 0,-0.8 0,-0.2 0,-0.4 0,-0.5 0,0 0,-0.1 0,-0.3 0,-0.2 0,-0.3 0,-0.4 0,-0.2 0,-0.3 0,-0.4 0,-0.1 0,-0.2 0,-0.3 0,0 0,-0.1 0,-0.3 0,-0.2 0,-0.3 0,-0.5 0,-0.2 0,-0.3 -0.1,-0.5 -0.1,-0.2 0,-0.2 0,-0.3 0,-0.2 0,-0.4 0,-0.7 0,-0.3 0,-0.7 0,-1.1 0,-0.4 0,-0.8 0,-1.3 0,-0.4 0,-0.9 0,-1.2 0,-0.4 0,-0.7 0,-1.1 0,-0.3 0,-0.5 0,-0.7 v -0.2 c -0.4,0 -0.9,0 -1.4,0 -0.5,0 -1,-0.1 -1.4,-0.1 0,0 0,0 0,-0.1 0,0 0,-0.1 -0.1,-0.1 0,0 0,0 -0.1,0 0,0 -0.1,0 0,0 0,-0.1 0,-0.3 0,-0.5 0,-0.2 0,-0.5 0,-0.8 0,-0.3 0,-0.6 -0.1,-0.9 0,-0.3 0,-0.6 0,-0.9 0,-0.3 0,-0.6 0,-0.8 0,-0.2 0,-0.4 0,-0.5 v -0.2 c 0,-0.2 0.1,-0.4 0.2,-0.5 0.1,-0.1 0.3,-0.2 0.4,-0.3 0.4,0.1 0.8,0.1 1.2,0 0.4,-0.1 0.8,-0.1 1.2,-0.1 0.1,0 0.2,0 0.3,0 0.1,0 0.2,0 0.3,-0.1 v -0.3 c 0,-0.9 0,-1.7 -0.1,-2.5 -0.1,-0.8 -0.1,-1.7 -0.1,-2.5 0,0 0,-0.1 0,-0.2 0,-0.1 0,-0.2 0,-0.4 0,-0.2 0,-0.3 0,-0.4 0,-0.1 0,-0.2 0,-0.2 0,-0.1 0.1,-0.1 0.2,-0.2 0.1,0 0.3,0 0.6,0.1 0.1,0 0.2,0 0.4,0 0.2,0 0.4,0 0.6,-0.1 0.2,0 0.4,0 0.6,-0.1 0.2,0 0.3,0 0.4,0 0,0 0.1,0 0.3,0 0.2,0 0.3,0 0.5,0 0.2,0 0.3,0 0.5,0 0.1,0 0.2,0 0.3,0 h 0.2 c 0.1,0 0.2,0 0.3,0 0.1,0 0.3,0 0.4,0 0.2,0 0.3,0 0.5,0 l 0.2,0.2 c 0,0 0,0.1 0,0.2 0,0.1 0,0.1 0,0.2 0,0.1 0,0.2 0,0.2 0,0.1 0,0.1 0,0.2 0,0 0,0.1 0.1,0.1 0,0 0,0.1 0,0.1 0.1,0.4 0.1,0.9 0.1,1.3 0,0.4 0,0.9 0,1.4 0,0.1 0,0.3 0,0.5 0,0.2 0,0.5 0,0.8 0,0.3 0,0.6 0,0.9 0,0.3 0,0.6 0,0.8 0,0.1 0,0.1 0.1,0.1 0,0 0.1,0 0.1,0.1 0,0.1 0.1,0 0.2,0 0.1,0 0.1,0 0.2,0 h 0.1 c 0.4,-0.1 0.7,-0.2 1,-0.2 0.3,0 0.7,0 1.1,0 0,0 0.1,0 0.2,0 0.1,0 0.1,0 0.2,0 0.1,0 0.2,0 0.3,0 l 0.1,0.6 c 0,0.6 0,1.1 0,1.7 0,0.5 0,1.1 0.1,1.7 0,0 0,0.1 0,0.2 0,0.1 0,0.3 0,0.4 0,0.1 0,0.3 0,0.4 0,0.1 0,0.2 0,0.2 v 0.1 c 0,0.1 0,0.2 -0.1,0.3 -0.1,0.1 -0.1,0.1 -0.2,0.2 -0.1,0 -0.2,0.1 -0.2,0.1 0,0 -0.2,0 -0.2,0.1 l -0.5,0.1 h -1.8 v 1.4 c 0,0 0,0.1 0,0.2 0,0.1 0,0.2 0,0.3 0,0.1 0,0.2 0,0.3 0,0.1 0,0.1 0,0.1 0,0.4 0,0.7 0,1.1 0,0.3 0,0.6 0.1,0.9 0,0.3 0.1,0.6 0.1,0.9 0,0.3 0.1,0.7 0.1,1 l -0.2,8.8 c 0,0.1 -0.1,0.2 -0.2,0.3 -0.1,0.1 -0.2,0.1 -0.3,0.1 h -3.7 c 0,0 -0.1,0 -0.2,0.1 -0.1,0.1 -0.2,0 -0.2,0 0,0 -0.1,0 -0.2,0 -0.1,0 -0.1,0 -0.2,0 0,0 -0.1,0 -0.2,0 -0.1,0 -0.2,0 -0.3,0 -0.1,0 -0.2,0 -0.3,0 -0.1,0 -0.2,0 -0.2,0 -0.1,0 -0.3,0 -0.4,-0.1 -0.8,-0.4 -0.9,-0.5 -0.9,-0.7 z"
   id="path44"
   inkscape:connector-curvature="0"
   style="fill:none;stroke:#41797d;stroke-linecap:round;stroke-linejoin:round" />
	</g>
	<g
   class="st4"
   id="g50"
   style="enable-background:new">
		<path
   class="st3"
   d="m 137.9,36.2 c 0,-0.1 0,-0.3 0,-0.5 0,-0.2 0,-0.3 0.1,-0.5 0.1,-0.2 0.2,-0.5 0.3,-0.7 0.1,-0.2 0.2,-0.4 0.4,-0.6 0,0 0.1,-0.1 0.2,-0.2 0.1,-0.1 0.2,-0.1 0.3,-0.2 0.1,-0.1 0.2,-0.1 0.3,-0.2 0.1,-0.1 0.1,-0.1 0.2,-0.1 0.1,-0.1 0.3,-0.2 0.4,-0.2 0.1,0 0.3,-0.1 0.4,-0.1 0.2,0 0.3,0 0.5,0 0.2,0 0.3,0 0.5,0 0.2,0 0.4,0 0.5,0.1 0.1,0.1 0.3,0.1 0.5,0.2 0.1,0 0.2,0.1 0.4,0.2 0.2,0.1 0.3,0.2 0.4,0.2 0.4,0.3 0.8,0.7 1.2,1.1 0.4,0.4 0.5,1 0.6,1.6 0,0.4 0,0.7 0,0.9 0,0.2 -0.1,0.5 -0.2,0.7 -0.1,0.2 -0.2,0.4 -0.4,0.6 -0.2,0.2 -0.4,0.4 -0.6,0.6 -0.2,0.2 -0.5,0.4 -0.9,0.6 -0.4,0.2 -0.7,0.2 -1,0.2 0,0 -0.1,0 -0.2,0 -0.1,0 -0.2,0 -0.3,0 -0.1,0 -0.2,0 -0.3,0 -0.1,0 -0.1,0 -0.2,0 -0.1,0 -0.1,0 -0.2,-0.1 -0.1,0 -0.2,0 -0.3,-0.1 -0.1,0 -0.2,-0.1 -0.3,-0.1 -0.1,0 -0.1,0 -0.2,-0.1 0,0 -0.1,0 -0.2,-0.1 -0.1,0 -0.2,-0.1 -0.3,-0.1 -0.1,0 -0.2,-0.1 -0.3,-0.1 -0.1,0 -0.1,-0.1 -0.2,-0.1 -0.3,-0.2 -0.5,-0.4 -0.6,-0.6 -0.2,-0.2 -0.3,-0.4 -0.4,-0.7 -0.1,-0.3 -0.1,-0.5 -0.2,-0.7 0.1,-0.3 0.1,-0.6 0.1,-0.9 z m 0.4,12.9 c 0,-0.1 0,-0.3 0,-0.6 0,-0.3 0,-0.7 0,-1.1 0,-0.4 0,-0.8 0,-1.3 0,-0.5 0,-0.8 0,-1 0,0 0,-0.1 0,-0.2 0,-0.1 0,-0.2 0,-0.3 0,-0.1 0,-0.2 0,-0.3 0,-0.1 0,-0.2 0,-0.2 v -2 c 0.1,-0.1 0.2,-0.2 0.4,-0.2 0.2,0 0.3,-0.1 0.4,-0.1 h 4.8 c 0.1,0 0.2,0.1 0.2,0.1 0.1,0 0.1,0 0.2,0.1 0.1,0.1 0.1,0.2 0.1,0.3 0,0.2 0.1,0.4 0.1,0.7 0,0 0,0.1 0,0.1 0,0.1 0,0.2 0,0.2 0,0.1 0,0.2 0,0.2 0,0.1 0,0.1 0,0.1 0,0.2 0,0.4 0,0.9 0,0.5 0,0.9 0,1.3 0,0.5 0,0.9 0.1,1.3 0.1,0.4 0,0.7 0,0.9 0,0.1 0,0.3 0,0.6 0,0.3 0.1,0.6 0.1,1 0,0.4 0.1,0.7 0.1,1 0,0.3 0,0.5 0,0.6 0,0.1 0,0.3 0,0.6 0,0.3 0,0.6 0,1 0,0.4 0,0.8 0.1,1.2 0,0.4 0,0.8 0.1,1.2 0,0.4 0,0.7 0,1 0,0.3 0,0.5 0,0.6 0,0.2 0,0.4 0,0.8 0,0.4 0,0.7 0,1.1 0,0.4 0,0.8 0,1.1 0,0.4 0,0.6 0.1,0.8 V 61 c 0.1,0.4 0,0.8 -0.1,1 -0.1,0.2 -0.3,0.3 -0.7,0.3 H 139 c -0.3,0 -0.4,-0.1 -0.5,-0.2 -0.1,-0.1 -0.2,-0.3 -0.2,-0.6 0,-0.2 0,-0.5 0,-0.8 0,-0.3 0,-0.6 -0.1,-1 0,-0.2 0,-0.5 0,-0.8 0,-0.3 0,-0.6 0,-0.9 0,-0.3 0,-0.6 0,-0.9 0,-0.3 0,-0.6 0,-0.8 0,-0.6 -0.1,-1.3 -0.1,-1.8 0,-0.6 0,-1.1 -0.1,-1.7 0,-0.6 0,-1.1 0,-1.7 0.3,-0.8 0.3,-1.4 0.3,-2 z"
   id="path48"
   inkscape:connector-curvature="0"
   style="fill:#41797d" />
	</g>
	<g
   class="st4"
   id="g54"
   style="enable-background:new">
		<path
   class="st5"
   d="m 137.9,36.2 c 0,-0.1 0,-0.3 0,-0.5 0,-0.2 0,-0.3 0.1,-0.5 0.1,-0.2 0.2,-0.5 0.3,-0.7 0.1,-0.2 0.2,-0.4 0.4,-0.6 0,0 0.1,-0.1 0.2,-0.2 0.1,-0.1 0.2,-0.1 0.3,-0.2 0.1,-0.1 0.2,-0.1 0.3,-0.2 0.1,-0.1 0.1,-0.1 0.2,-0.1 0.1,-0.1 0.3,-0.2 0.4,-0.2 0.1,0 0.3,-0.1 0.4,-0.1 0.2,0 0.3,0 0.5,0 0.2,0 0.3,0 0.5,0 0.2,0 0.4,0 0.5,0.1 0.1,0.1 0.3,0.1 0.5,0.2 0.1,0 0.2,0.1 0.4,0.2 0.2,0.1 0.3,0.2 0.4,0.2 0.4,0.3 0.8,0.7 1.2,1.1 0.4,0.4 0.5,1 0.6,1.6 0,0.4 0,0.7 0,0.9 0,0.2 -0.1,0.5 -0.2,0.7 -0.1,0.2 -0.2,0.4 -0.4,0.6 -0.2,0.2 -0.4,0.4 -0.6,0.6 -0.2,0.2 -0.5,0.4 -0.9,0.6 -0.4,0.2 -0.7,0.2 -1,0.2 0,0 -0.1,0 -0.2,0 -0.1,0 -0.2,0 -0.3,0 -0.1,0 -0.2,0 -0.3,0 -0.1,0 -0.1,0 -0.2,0 -0.1,0 -0.1,0 -0.2,-0.1 -0.1,0 -0.2,0 -0.3,-0.1 -0.1,0 -0.2,-0.1 -0.3,-0.1 -0.1,0 -0.1,0 -0.2,-0.1 0,0 -0.1,0 -0.2,-0.1 -0.1,0 -0.2,-0.1 -0.3,-0.1 -0.1,0 -0.2,-0.1 -0.3,-0.1 -0.1,0 -0.1,-0.1 -0.2,-0.1 -0.3,-0.2 -0.5,-0.4 -0.6,-0.6 -0.2,-0.2 -0.3,-0.4 -0.4,-0.7 -0.1,-0.3 -0.1,-0.5 -0.2,-0.7 0.1,-0.3 0.1,-0.6 0.1,-0.9 z m 0.4,12.9 c 0,-0.1 0,-0.3 0,-0.6 0,-0.3 0,-0.7 0,-1.1 0,-0.4 0,-0.8 0,-1.3 0,-0.5 0,-0.8 0,-1 0,0 0,-0.1 0,-0.2 0,-0.1 0,-0.2 0,-0.3 0,-0.1 0,-0.2 0,-0.3 0,-0.1 0,-0.2 0,-0.2 v -2 c 0.1,-0.1 0.2,-0.2 0.4,-0.2 0.2,0 0.3,-0.1 0.4,-0.1 h 4.8 c 0.1,0 0.2,0.1 0.2,0.1 0.1,0 0.1,0 0.2,0.1 0.1,0.1 0.1,0.2 0.1,0.3 0,0.2 0.1,0.4 0.1,0.7 0,0 0,0.1 0,0.1 0,0.1 0,0.2 0,0.2 0,0.1 0,0.2 0,0.2 0,0.1 0,0.1 0,0.1 0,0.2 0,0.4 0,0.9 0,0.5 0,0.9 0,1.3 0,0.5 0,0.9 0.1,1.3 0.1,0.4 0,0.7 0,0.9 0,0.1 0,0.3 0,0.6 0,0.3 0.1,0.6 0.1,1 0,0.4 0.1,0.7 0.1,1 0,0.3 0,0.5 0,0.6 0,0.1 0,0.3 0,0.6 0,0.3 0,0.6 0,1 0,0.4 0,0.8 0.1,1.2 0,0.4 0,0.8 0.1,1.2 0,0.4 0,0.7 0,1 0,0.3 0,0.5 0,0.6 0,0.2 0,0.4 0,0.8 0,0.4 0,0.7 0,1.1 0,0.4 0,0.8 0,1.1 0,0.4 0,0.6 0.1,0.8 V 61 c 0.1,0.4 0,0.8 -0.1,1 -0.1,0.2 -0.3,0.3 -0.7,0.3 H 139 c -0.3,0 -0.4,-0.1 -0.5,-0.2 -0.1,-0.1 -0.2,-0.3 -0.2,-0.6 0,-0.2 0,-0.5 0,-0.8 0,-0.3 0,-0.6 -0.1,-1 0,-0.2 0,-0.5 0,-0.8 0,-0.3 0,-0.6 0,-0.9 0,-0.3 0,-0.6 0,-0.9 0,-0.3 0,-0.6 0,-0.8 0,-0.6 -0.1,-1.3 -0.1,-1.8 0,-0.6 0,-1.1 -0.1,-1.7 0,-0.6 0,-1.1 0,-1.7 0.3,-0.8 0.3,-1.4 0.3,-2 z"
   id="path52"
   inkscape:connector-curvature="0"
   style="fill:none;stroke:#41797d;stroke-linecap:round;stroke-linejoin:round" />
	</g>
	<g
   class="st4"
   id="g58"
   style="enable-background:new">
		<path
   class="st3"
   d="m 150,65.2 c -0.1,0 -0.3,-0.1 -0.4,-0.1 -0.1,-0.1 -0.2,-0.1 -0.2,-0.2 -0.1,-0.1 -0.1,-0.2 -0.1,-0.3 0,-0.1 0,-0.2 0,-0.3 0,-0.1 0,-0.2 0,-0.2 0,-0.9 0,-1.7 0,-2.5 0,-0.8 0,-1.7 -0.1,-2.5 0,-0.9 0,-1.7 0,-2.6 0,-0.8 0.1,-1.7 0.1,-2.6 l -0.1,-0.8 c 0,-0.1 0,-0.2 0,-0.3 0,-0.1 0,-0.1 0,-0.2 0,-0.1 0,-0.1 0,-0.2 v -1 c 0,-0.1 0,-0.2 0,-0.5 0,-0.2 0,-0.5 0,-0.8 0,-0.3 0,-0.5 0,-0.8 0,-0.3 0,-0.4 0,-0.5 0,-0.1 0,-0.2 0,-0.5 0,-0.3 0,-0.5 0.1,-0.8 0,-0.3 0,-0.5 0,-0.8 0,-0.2 0,-0.4 0,-0.5 0,-0.2 0,-0.5 0,-0.8 0,-0.3 0,-0.6 -0.1,-0.9 v -0.6 c 0,-0.1 0,-0.2 0.1,-0.3 0.1,-0.1 0.2,-0.1 0.2,-0.1 0.1,0 0.2,0 0.2,0 0.1,0 0.1,0 0.1,0 0,0 0.1,0 0.2,0 0.1,0 0.2,0 0.3,0 0.1,0 0.2,0 0.3,0 0.1,0 0.1,0 0.2,0 0.2,0 0.4,0 0.6,0 0.2,0 0.4,0 0.6,0 0.2,0 0.4,0 0.6,0 0.2,0 0.4,0 0.6,0 h 0.2 c 0,0 0,0 0.1,0 0.1,0 0.1,0 0.2,0 0.1,0 0.1,0 0.2,0 0.1,0 0.1,0 0.2,0 0.2,0 0.4,0.1 0.5,0.2 0.1,0.1 0.2,0.1 0.2,0.3 0,0.1 0,0.2 0,0.4 0,0.2 0,0.3 0.1,0.6 0.5,-0.4 1,-0.8 1.5,-1.1 0.5,-0.3 1.1,-0.5 1.6,-0.6 0.6,-0.1 1.1,-0.2 1.7,-0.3 0.6,0 1.2,0 1.8,0 0.2,0 0.3,0 0.5,0.1 0.2,0.1 0.4,0.1 0.6,0.1 0.2,0.1 0.4,0.1 0.6,0.2 0.2,0.1 0.3,0.2 0.5,0.2 0.1,0.1 0.2,0.2 0.4,0.3 0.2,0.1 0.3,0.2 0.5,0.4 0.2,0.1 0.3,0.2 0.4,0.3 0.1,0.1 0.2,0.1 0.2,0.1 0.3,0.2 0.6,0.5 0.8,0.8 0.2,0.3 0.4,0.6 0.6,1 0.2,0.3 0.3,0.7 0.4,1.1 0.1,0.4 0.2,0.8 0.3,1.1 0,0 0.1,0.2 0.1,0.3 0,0.1 0.1,0.4 0.1,0.6 0,0.2 0.1,0.5 0.1,0.7 0,0.2 0,0.4 0,0.6 v 0.3 c 0,0 0,0.2 0,0.3 0,0.2 0,0.4 0,0.6 0,0.2 0,0.4 0,0.6 0,0.2 0,0.3 0,0.3 v 2.8 0.6 c 0,0 0,0.1 0,0.2 0,0.1 0,0.2 0,0.3 0,0.1 0,0.2 0,0.3 0,0.1 0,0.2 0,0.2 v 0.4 c 0,0.2 0,0.5 0,0.8 0,0.3 0,0.7 0,1.1 0,0.4 0,0.8 0,1.1 0,0.4 0,0.7 0,1.1 0,0.3 0,0.6 0,0.8 0,0.2 0,0.4 0,0.4 0,0 0,0.1 0,0.2 0,0.1 0,0.2 0,0.3 0,0.1 0,0.2 0,0.3 0,0.1 0,0.2 0,0.2 v 0.2 c 0,0.1 -0.1,0.2 -0.2,0.2 -0.1,0 -0.3,0 -0.3,0.1 0,0 -0.1,0 -0.1,0 0,0 -0.1,0 -0.2,0 -0.1,0 -0.1,0 -0.2,0 -0.1,0 -0.1,0 -0.1,0 0,0 -0.1,0 -0.3,0 -0.1,0 -0.3,0 -0.4,0 -0.2,0 -0.3,0 -0.4,0 -0.1,0 -0.2,0 -0.3,0 -0.5,0 -1,0.1 -1.5,0.1 -0.5,0 -1,0 -1.5,0 -0.2,0 -0.3,-0.1 -0.4,-0.2 -0.1,-0.1 -0.1,-0.2 -0.2,-0.3 0,-0.1 0,-0.3 0,-0.4 0,-0.2 0,-0.3 0,-0.4 0,-0.1 0,-0.2 0,-0.4 0,-0.2 0,-0.4 0,-0.7 0,-0.3 0,-0.6 0,-0.9 0,-0.3 0,-0.6 0,-0.9 0,-0.3 0,-0.5 0,-0.7 0,-0.2 0,-0.3 0,-0.4 v -3.9 c 0,-0.4 0,-0.8 0,-1.4 0,-0.5 -0.1,-1 -0.2,-1.6 -0.1,-0.5 -0.2,-1.1 -0.3,-1.6 -0.1,-0.5 -0.3,-1 -0.5,-1.4 -0.2,-0.4 -0.5,-0.7 -0.7,-1 -0.3,-0.2 -0.6,-0.3 -0.9,-0.3 h -0.6 c -0.4,0 -0.7,0 -1,0.1 -0.3,0.1 -0.6,0.3 -0.9,0.5 0,0 0,0 -0.1,0 0,0 0,0.1 0,0.1 -0.3,0.2 -0.6,0.6 -0.8,1 -0.2,0.4 -0.4,0.9 -0.6,1.5 -0.2,0.5 -0.3,1.1 -0.4,1.7 -0.1,0.6 -0.2,1.2 -0.3,1.8 0,0.1 0,0.2 -0.1,0.4 0,0.2 0,0.5 -0.1,0.7 0,0.3 -0.1,0.5 -0.1,0.8 0,0.3 0,0.5 0,0.6 0,0 0,0.1 0,0.2 0,0.1 0,0.2 0,0.4 0,0.1 0,0.3 0,0.4 0,0.1 0,0.2 0,0.3 0,0.1 0,0.1 0,0.3 0,0.1 0,0.3 0,0.4 0,0.1 0,0.3 0,0.4 0,0.1 0,0.2 0,0.3 v 2.5 c 0,0 0,0.1 0,0.2 0,0.1 0,0.2 0,0.2 0,0 0,0 0,0.1 0,0 0,0.1 0,0.2 0,0.1 0,0.1 0,0.2 0,0.1 0,0.1 0,0.1 0,0.1 0,0.2 0,0.3 0,0.1 0,0.2 0,0.4 0,0.1 -0.1,0.2 -0.1,0.3 -0.1,0.1 -0.2,0.1 -0.4,0.1 -0.3,0 -0.5,0 -0.8,0 -0.3,0 -0.6,0 -1,0 -0.3,0 -0.7,0 -1,0 0.1,0.5 -0.3,0.5 -0.6,0.5 z"
   id="path56"
   inkscape:connector-curvature="0"
   style="fill:#41797d" />
	</g>
	<g
   class="st4"
   id="g62"
   style="enable-background:new">
		<path
   class="st5"
   d="m 150,65.2 c -0.1,0 -0.3,-0.1 -0.4,-0.1 -0.1,-0.1 -0.2,-0.1 -0.2,-0.2 -0.1,-0.1 -0.1,-0.2 -0.1,-0.3 0,-0.1 0,-0.2 0,-0.3 0,-0.1 0,-0.2 0,-0.2 0,-0.9 0,-1.7 0,-2.5 0,-0.8 0,-1.7 -0.1,-2.5 0,-0.9 0,-1.7 0,-2.6 0,-0.8 0.1,-1.7 0.1,-2.6 l -0.1,-0.8 c 0,-0.1 0,-0.2 0,-0.3 0,-0.1 0,-0.1 0,-0.2 0,-0.1 0,-0.1 0,-0.2 v -1 c 0,-0.1 0,-0.2 0,-0.5 0,-0.2 0,-0.5 0,-0.8 0,-0.3 0,-0.5 0,-0.8 0,-0.3 0,-0.4 0,-0.5 0,-0.1 0,-0.2 0,-0.5 0,-0.3 0,-0.5 0.1,-0.8 0,-0.3 0,-0.5 0,-0.8 0,-0.2 0,-0.4 0,-0.5 0,-0.2 0,-0.5 0,-0.8 0,-0.3 0,-0.6 -0.1,-0.9 v -0.6 c 0,-0.1 0,-0.2 0.1,-0.3 0.1,-0.1 0.2,-0.1 0.2,-0.1 0.1,0 0.2,0 0.2,0 0.1,0 0.1,0 0.1,0 0,0 0.1,0 0.2,0 0.1,0 0.2,0 0.3,0 0.1,0 0.2,0 0.3,0 0.1,0 0.1,0 0.2,0 0.2,0 0.4,0 0.6,0 0.2,0 0.4,0 0.6,0 0.2,0 0.4,0 0.6,0 0.2,0 0.4,0 0.6,0 h 0.2 c 0,0 0,0 0.1,0 0.1,0 0.1,0 0.2,0 0.1,0 0.1,0 0.2,0 0.1,0 0.1,0 0.2,0 0.2,0 0.4,0.1 0.5,0.2 0.1,0.1 0.2,0.1 0.2,0.3 0,0.1 0,0.2 0,0.4 0,0.2 0,0.3 0.1,0.6 0.5,-0.4 1,-0.8 1.5,-1.1 0.5,-0.3 1.1,-0.5 1.6,-0.6 0.6,-0.1 1.1,-0.2 1.7,-0.3 0.6,0 1.2,0 1.8,0 0.2,0 0.3,0 0.5,0.1 0.2,0.1 0.4,0.1 0.6,0.1 0.2,0.1 0.4,0.1 0.6,0.2 0.2,0.1 0.3,0.2 0.5,0.2 0.1,0.1 0.2,0.2 0.4,0.3 0.2,0.1 0.3,0.2 0.5,0.4 0.2,0.1 0.3,0.2 0.4,0.3 0.1,0.1 0.2,0.1 0.2,0.1 0.3,0.2 0.6,0.5 0.8,0.8 0.2,0.3 0.4,0.6 0.6,1 0.2,0.3 0.3,0.7 0.4,1.1 0.1,0.4 0.2,0.8 0.3,1.1 0,0 0.1,0.2 0.1,0.3 0,0.1 0.1,0.4 0.1,0.6 0,0.2 0.1,0.5 0.1,0.7 0,0.2 0,0.4 0,0.6 v 0.3 c 0,0 0,0.2 0,0.3 0,0.2 0,0.4 0,0.6 0,0.2 0,0.4 0,0.6 0,0.2 0,0.3 0,0.3 v 2.8 0.6 c 0,0 0,0.1 0,0.2 0,0.1 0,0.2 0,0.3 0,0.1 0,0.2 0,0.3 0,0.1 0,0.2 0,0.2 v 0.4 c 0,0.2 0,0.5 0,0.8 0,0.3 0,0.7 0,1.1 0,0.4 0,0.8 0,1.1 0,0.4 0,0.7 0,1.1 0,0.3 0,0.6 0,0.8 0,0.2 0,0.4 0,0.4 0,0 0,0.1 0,0.2 0,0.1 0,0.2 0,0.3 0,0.1 0,0.2 0,0.3 0,0.1 0,0.2 0,0.2 v 0.2 c 0,0.1 -0.1,0.2 -0.2,0.2 -0.1,0 -0.3,0 -0.3,0.1 0,0 -0.1,0 -0.1,0 0,0 -0.1,0 -0.2,0 -0.1,0 -0.1,0 -0.2,0 -0.1,0 -0.1,0 -0.1,0 0,0 -0.1,0 -0.3,0 -0.1,0 -0.3,0 -0.4,0 -0.2,0 -0.3,0 -0.4,0 -0.1,0 -0.2,0 -0.3,0 -0.5,0 -1,0.1 -1.5,0.1 -0.5,0 -1,0 -1.5,0 -0.2,0 -0.3,-0.1 -0.4,-0.2 -0.1,-0.1 -0.1,-0.2 -0.2,-0.3 0,-0.1 0,-0.3 0,-0.4 0,-0.2 0,-0.3 0,-0.4 0,-0.1 0,-0.2 0,-0.4 0,-0.2 0,-0.4 0,-0.7 0,-0.3 0,-0.6 0,-0.9 0,-0.3 0,-0.6 0,-0.9 0,-0.3 0,-0.5 0,-0.7 0,-0.2 0,-0.3 0,-0.4 v -3.9 c 0,-0.4 0,-0.8 0,-1.4 0,-0.5 -0.1,-1 -0.2,-1.6 -0.1,-0.5 -0.2,-1.1 -0.3,-1.6 -0.1,-0.5 -0.3,-1 -0.5,-1.4 -0.2,-0.4 -0.5,-0.7 -0.7,-1 -0.3,-0.2 -0.6,-0.3 -0.9,-0.3 h -0.6 c -0.4,0 -0.7,0 -1,0.1 -0.3,0.1 -0.6,0.3 -0.9,0.5 0,0 0,0 -0.1,0 0,0 0,0.1 0,0.1 -0.3,0.2 -0.6,0.6 -0.8,1 -0.2,0.4 -0.4,0.9 -0.6,1.5 -0.2,0.5 -0.3,1.1 -0.4,1.7 -0.1,0.6 -0.2,1.2 -0.3,1.8 0,0.1 0,0.2 -0.1,0.4 0,0.2 0,0.5 -0.1,0.7 0,0.3 -0.1,0.5 -0.1,0.8 0,0.3 0,0.5 0,0.6 0,0 0,0.1 0,0.2 0,0.1 0,0.2 0,0.4 0,0.1 0,0.3 0,0.4 0,0.1 0,0.2 0,0.3 0,0.1 0,0.1 0,0.3 0,0.1 0,0.3 0,0.4 0,0.1 0,0.3 0,0.4 0,0.1 0,0.2 0,0.3 v 2.5 c 0,0 0,0.1 0,0.2 0,0.1 0,0.2 0,0.2 0,0 0,0 0,0.1 0,0 0,0.1 0,0.2 0,0.1 0,0.1 0,0.2 0,0.1 0,0.1 0,0.1 0,0.1 0,0.2 0,0.3 0,0.1 0,0.2 0,0.4 0,0.1 -0.1,0.2 -0.1,0.3 -0.1,0.1 -0.2,0.1 -0.4,0.1 -0.3,0 -0.5,0 -0.8,0 -0.3,0 -0.6,0 -1,0 -0.3,0 -0.7,0 -1,0 0.1,0.5 -0.3,0.5 -0.6,0.5 z"
   id="path60"
   inkscape:connector-curvature="0"
   style="fill:none;stroke:#41797d;stroke-linecap:round;stroke-linejoin:round" />
	</g>
	<g
   class="st4"
   id="g66"
   style="enable-background:new">
		<path
   class="st3"
   d="m 172.5,54.7 c 0,-0.1 -0.1,-0.3 -0.1,-0.5 -0.1,-0.2 -0.1,-0.5 -0.2,-0.7 -0.1,-0.2 -0.1,-0.5 -0.2,-0.7 0,-0.2 -0.1,-0.4 -0.1,-0.5 0,0 0,-0.1 0,-0.3 0,-0.2 0,-0.3 0,-0.5 0,-0.2 0,-0.3 0,-0.5 0,-0.2 0,-0.2 0,-0.3 0,-0.1 0,-0.1 0,-0.2 0,-0.1 0,-0.2 0,-0.3 0,-0.1 0,-0.2 0,-0.3 0,-0.1 0,-0.1 0,-0.2 l -0.1,-0.2 c 0,0 0,-0.1 0,-0.2 0,-0.1 0,-0.2 0,-0.3 0,-0.1 0,-0.2 0,-0.3 0,-0.1 0,-0.1 0,-0.2 0,-0.3 0,-0.6 0,-1 0,-0.4 0,-0.7 0,-1.1 0,-0.4 0,-0.7 0,-1.1 0,-0.3 0,-0.7 0,-0.9 0,-0.4 0,-0.7 0,-1.1 0,-0.4 0,-0.6 0,-0.9 0,-0.3 0,-0.6 0.1,-0.8 0,-0.3 0.1,-0.5 0.1,-0.8 0,-0.1 0.1,-0.2 0.4,-0.3 0.2,-0.1 0.4,-0.1 0.6,-0.1 h 0.8 c 0.1,0 0.3,0 0.4,0 0.2,0 0.3,0 0.5,0.1 0.2,0 0.3,0.1 0.5,0.1 0.2,0 0.2,0 0.2,0 0,0 0.1,0 0.2,0 0.1,0 0.3,0 0.4,0 0.2,0 0.3,0 0.4,0 0.1,0 0.2,0 0.3,0 0,0 0.1,0 0.2,0 0.1,0 0.3,0 0.4,0 0.1,0 0.3,0 0.4,0 0.1,0 0.2,0 0.3,0 0.1,0.1 0.1,0.1 0.1,0.2 0,0 0,0.1 0.1,0.1 0.1,0 0,0.1 0,0.2 0,0.1 0,0.1 0,0.2 V 42 c -0.1,0.4 -0.1,0.8 -0.1,1.2 0,0.4 0,0.8 0,1.3 0,0.7 0,1.4 0,2.1 0,0.7 0,1.5 0,2.3 l 0.1,0.9 v 0.3 c 0.1,0.3 0.1,0.6 0.1,0.9 0,0.3 0,0.6 0.1,0.9 0,0.3 0.1,0.6 0.1,0.9 0,0.3 0.1,0.6 0.2,0.9 0,0.1 0.1,0.1 0.1,0.2 0,0.1 0.1,0.2 0.1,0.3 0,0.1 0.1,0.2 0.1,0.3 0,0.1 0.1,0.1 0.1,0.1 0.1,0.2 0.2,0.4 0.4,0.6 0.2,0.2 0.4,0.3 0.6,0.4 0.2,0.1 0.4,0.2 0.6,0.3 0.2,0.1 0.3,0.1 0.3,0.1 0,0 0.1,0 0.2,0.1 0.1,0.1 0.2,0.1 0.3,0.1 0,0 0.1,0 0.2,0 0.1,0 0.2,0 0.2,0 0.2,0 0.5,0 0.8,-0.1 0.3,-0.1 0.7,-0.2 1,-0.5 0.4,-0.4 0.7,-0.9 0.9,-1.4 0.2,-0.5 0.3,-0.9 0.4,-1.4 0.1,-0.5 0.1,-1 0.1,-1.5 0,-0.5 0,-1.1 0,-1.7 V 49 c 0,-0.1 0,-0.2 0,-0.4 0,-0.2 0,-0.5 0,-0.8 0,-0.3 0,-0.5 0,-0.8 0,-0.2 0,-0.4 0,-0.4 v -1.7 c 0,-0.1 0,-0.2 0,-0.3 0,-0.2 0,-0.4 -0.1,-0.6 0,-0.2 -0.1,-0.5 -0.1,-0.7 0,-0.3 -0.1,-0.5 -0.1,-0.7 0,-0.2 -0.1,-0.4 -0.1,-0.6 0,-0.2 0,-0.3 0,-0.3 l 0.2,-1.4 c 0,-0.1 0.1,-0.1 0.2,-0.2 0.1,0 0.2,0 0.3,0 0.1,0 0.2,0 0.3,0 0.1,0 0.2,0 0.3,0 0,0 0,0 0.1,0 0.1,0 0.1,0 0.2,0 0.1,0 0.1,0 0.2,0 0.1,0 0.1,0 0.1,0 l 2,0.2 c 0,0 0.1,0 0.3,0 0.1,0 0.3,0 0.4,0 0.2,0 0.3,0 0.4,0 0.1,0 0.2,0 0.2,0 0.1,0 0.2,0 0.3,0 0.1,0 0.3,0 0.4,0 0.2,0 0.3,0 0.4,0 0.1,0 0.2,0 0.3,0 l 0.2,0.1 c 0.1,0 0.2,0.1 0.3,0.2 0.1,0.1 0.1,0.2 0.2,0.4 0,0.2 0.1,0.4 0.1,0.6 0,0.2 0,0.5 0,0.8 v 0.3 c 0,0.2 0,0.4 0,0.7 0,0.2 0,0.4 -0.1,0.7 0,0.1 0,0.2 0,0.5 0,0.2 0,0.5 0,0.8 0,0.3 0,0.5 0,0.8 0,0.3 0,0.4 0,0.5 0,0 0,0.2 0,0.3 0,0.2 -0.1,0.4 -0.1,0.6 0,0.2 -0.1,0.4 -0.1,0.6 0,0.2 0,0.3 -0.1,0.3 0,0.1 0,0.2 0,0.4 0,0.2 0,0.5 -0.1,0.7 -0.1,0.2 0,0.5 -0.1,0.8 0,0.3 0,0.4 -0.1,0.6 0,0 0,0.1 0,0.2 0,0.1 0,0.2 -0.1,0.3 0,0.1 0,0.2 -0.1,0.3 -0.1,0.1 0,0.2 0,0.2 0,0 0,0.1 0,0.1 0,0 0,0.2 0,0.3 0,0.1 0,0.2 0,0.3 0,0.1 0,0.1 0,0.1 0,0 0,0 0,0.1 0,0.1 0,0.1 -0.1,0.2 0,0.1 0,0.1 -0.1,0.2 0,0.1 0,0.1 0,0.1 -0.1,0.4 -0.2,0.8 -0.2,1.2 -0.1,0.4 -0.1,0.7 -0.2,1.1 -0.1,0.3 -0.1,0.7 -0.2,1 -0.1,0.3 -0.2,0.7 -0.3,1.2 -0.1,0.2 -0.2,0.5 -0.4,0.8 -0.2,0.3 -0.4,0.6 -0.6,0.9 -0.2,0.3 -0.4,0.6 -0.6,0.8 -0.2,0.2 -0.4,0.4 -0.5,0.5 -0.1,0.2 -0.3,0.4 -0.6,0.5 -0.3,0.2 -0.5,0.3 -0.8,0.4 -0.3,0.1 -0.6,0.2 -0.9,0.3 -0.3,0.1 -0.6,0.2 -0.8,0.3 -0.4,0.1 -0.7,0.2 -1.1,0.3 -0.4,0 -0.8,0 -1.1,0 -0.3,0 -0.7,0 -1,0 -0.3,0 -0.7,0 -1,0 -0.3,0 -0.7,-0.1 -1,-0.1 -0.3,0 -0.7,-0.2 -1,-0.3 -0.7,-0.3 -1.3,-0.6 -1.9,-1 -0.6,-0.4 -1.2,-0.8 -1.7,-1.3 -0.1,-0.1 -0.2,-0.1 -0.3,-0.3 -0.1,-0.1 -0.2,-0.2 -0.3,-0.4 -0.1,-0.1 -0.2,-0.2 -0.4,-0.3 -0.1,-0.1 -0.2,-0.2 -0.3,-0.2 0,0 0,0 -0.1,-0.3 -0.1,-0.2 -0.2,-0.5 -0.4,-0.8 -0.1,-0.1 -0.1,-0.3 -0.2,-0.6 -0.1,-0.3 -0.2,-0.5 -0.2,-0.8 -0.1,-0.3 -0.1,-0.6 -0.2,-0.8 -0.1,-0.4 -0.2,-0.6 -0.2,-0.8 z"
   id="path64"
   inkscape:connector-curvature="0"
   style="fill:#41797d" />
	</g>
	<g
   class="st4"
   id="g70"
   style="enable-background:new">
		<path
   class="st5"
   d="m 172.5,54.7 c 0,-0.1 -0.1,-0.3 -0.1,-0.5 -0.1,-0.2 -0.1,-0.5 -0.2,-0.7 -0.1,-0.2 -0.1,-0.5 -0.2,-0.7 0,-0.2 -0.1,-0.4 -0.1,-0.5 0,0 0,-0.1 0,-0.3 0,-0.2 0,-0.3 0,-0.5 0,-0.2 0,-0.3 0,-0.5 0,-0.2 0,-0.2 0,-0.3 0,-0.1 0,-0.1 0,-0.2 0,-0.1 0,-0.2 0,-0.3 0,-0.1 0,-0.2 0,-0.3 0,-0.1 0,-0.1 0,-0.2 l -0.1,-0.2 c 0,0 0,-0.1 0,-0.2 0,-0.1 0,-0.2 0,-0.3 0,-0.1 0,-0.2 0,-0.3 0,-0.1 0,-0.1 0,-0.2 0,-0.3 0,-0.6 0,-1 0,-0.4 0,-0.7 0,-1.1 0,-0.4 0,-0.7 0,-1.1 0,-0.3 0,-0.7 0,-0.9 0,-0.4 0,-0.7 0,-1.1 0,-0.4 0,-0.6 0,-0.9 0,-0.3 0,-0.6 0.1,-0.8 0,-0.3 0.1,-0.5 0.1,-0.8 0,-0.1 0.1,-0.2 0.4,-0.3 0.2,-0.1 0.4,-0.1 0.6,-0.1 h 0.8 c 0.1,0 0.3,0 0.4,0 0.2,0 0.3,0 0.5,0.1 0.2,0 0.3,0.1 0.5,0.1 0.2,0 0.2,0 0.2,0 0,0 0.1,0 0.2,0 0.1,0 0.3,0 0.4,0 0.2,0 0.3,0 0.4,0 0.1,0 0.2,0 0.3,0 0,0 0.1,0 0.2,0 0.1,0 0.3,0 0.4,0 0.1,0 0.3,0 0.4,0 0.1,0 0.2,0 0.3,0 0.1,0.1 0.1,0.1 0.1,0.2 0,0 0,0.1 0.1,0.1 0.1,0 0,0.1 0,0.2 0,0.1 0,0.1 0,0.2 V 42 c -0.1,0.4 -0.1,0.8 -0.1,1.2 0,0.4 0,0.8 0,1.3 0,0.7 0,1.4 0,2.1 0,0.7 0,1.5 0,2.3 l 0.1,0.9 v 0.3 c 0.1,0.3 0.1,0.6 0.1,0.9 0,0.3 0,0.6 0.1,0.9 0,0.3 0.1,0.6 0.1,0.9 0,0.3 0.1,0.6 0.2,0.9 0,0.1 0.1,0.1 0.1,0.2 0,0.1 0.1,0.2 0.1,0.3 0,0.1 0.1,0.2 0.1,0.3 0,0.1 0.1,0.1 0.1,0.1 0.1,0.2 0.2,0.4 0.4,0.6 0.2,0.2 0.4,0.3 0.6,0.4 0.2,0.1 0.4,0.2 0.6,0.3 0.2,0.1 0.3,0.1 0.3,0.1 0,0 0.1,0 0.2,0.1 0.1,0.1 0.2,0.1 0.3,0.1 0,0 0.1,0 0.2,0 0.1,0 0.2,0 0.2,0 0.2,0 0.5,0 0.8,-0.1 0.3,-0.1 0.7,-0.2 1,-0.5 0.4,-0.4 0.7,-0.9 0.9,-1.4 0.2,-0.5 0.3,-0.9 0.4,-1.4 0.1,-0.5 0.1,-1 0.1,-1.5 0,-0.5 0,-1.1 0,-1.7 V 49 c 0,-0.1 0,-0.2 0,-0.4 0,-0.2 0,-0.5 0,-0.8 0,-0.3 0,-0.5 0,-0.8 0,-0.2 0,-0.4 0,-0.4 v -1.7 c 0,-0.1 0,-0.2 0,-0.3 0,-0.2 0,-0.4 -0.1,-0.6 0,-0.2 -0.1,-0.5 -0.1,-0.7 0,-0.3 -0.1,-0.5 -0.1,-0.7 0,-0.2 -0.1,-0.4 -0.1,-0.6 0,-0.2 0,-0.3 0,-0.3 l 0.2,-1.4 c 0,-0.1 0.1,-0.1 0.2,-0.2 0.1,0 0.2,0 0.3,0 0.1,0 0.2,0 0.3,0 0.1,0 0.2,0 0.3,0 0,0 0,0 0.1,0 0.1,0 0.1,0 0.2,0 0.1,0 0.1,0 0.2,0 0.1,0 0.1,0 0.1,0 l 2,0.2 c 0,0 0.1,0 0.3,0 0.1,0 0.3,0 0.4,0 0.2,0 0.3,0 0.4,0 0.1,0 0.2,0 0.2,0 0.1,0 0.2,0 0.3,0 0.1,0 0.3,0 0.4,0 0.2,0 0.3,0 0.4,0 0.1,0 0.2,0 0.3,0 l 0.2,0.1 c 0.1,0 0.2,0.1 0.3,0.2 0.1,0.1 0.1,0.2 0.2,0.4 0,0.2 0.1,0.4 0.1,0.6 0,0.2 0,0.5 0,0.8 v 0.3 c 0,0.2 0,0.4 0,0.7 0,0.2 0,0.4 -0.1,0.7 0,0.1 0,0.2 0,0.5 0,0.2 0,0.5 0,0.8 0,0.3 0,0.5 0,0.8 0,0.3 0,0.4 0,0.5 0,0 0,0.2 0,0.3 0,0.2 -0.1,0.4 -0.1,0.6 0,0.2 -0.1,0.4 -0.1,0.6 0,0.2 0,0.3 -0.1,0.3 0,0.1 0,0.2 0,0.4 0,0.2 0,0.5 -0.1,0.7 -0.1,0.2 0,0.5 -0.1,0.8 0,0.3 0,0.4 -0.1,0.6 0,0 0,0.1 0,0.2 0,0.1 0,0.2 -0.1,0.3 0,0.1 0,0.2 -0.1,0.3 -0.1,0.1 0,0.2 0,0.2 0,0 0,0.1 0,0.1 0,0 0,0.2 0,0.3 0,0.1 0,0.2 0,0.3 0,0.1 0,0.1 0,0.1 0,0 0,0 0,0.1 0,0.1 0,0.1 -0.1,0.2 0,0.1 0,0.1 -0.1,0.2 0,0.1 0,0.1 0,0.1 -0.1,0.4 -0.2,0.8 -0.2,1.2 -0.1,0.4 -0.1,0.7 -0.2,1.1 -0.1,0.3 -0.1,0.7 -0.2,1 -0.1,0.3 -0.2,0.7 -0.3,1.2 -0.1,0.2 -0.2,0.5 -0.4,0.8 -0.2,0.3 -0.4,0.6 -0.6,0.9 -0.2,0.3 -0.4,0.6 -0.6,0.8 -0.2,0.2 -0.4,0.4 -0.5,0.5 -0.1,0.2 -0.3,0.4 -0.6,0.5 -0.3,0.2 -0.5,0.3 -0.8,0.4 -0.3,0.1 -0.6,0.2 -0.9,0.3 -0.3,0.1 -0.6,0.2 -0.8,0.3 -0.4,0.1 -0.7,0.2 -1.1,0.3 -0.4,0 -0.8,0 -1.1,0 -0.3,0 -0.7,0 -1,0 -0.3,0 -0.7,0 -1,0 -0.3,0 -0.7,-0.1 -1,-0.1 -0.3,0 -0.7,-0.2 -1,-0.3 -0.7,-0.3 -1.3,-0.6 -1.9,-1 -0.6,-0.4 -1.2,-0.8 -1.7,-1.3 -0.1,-0.1 -0.2,-0.1 -0.3,-0.3 -0.1,-0.1 -0.2,-0.2 -0.3,-0.4 -0.1,-0.1 -0.2,-0.2 -0.4,-0.3 -0.1,-0.1 -0.2,-0.2 -0.3,-0.2 0,0 0,0 -0.1,-0.3 -0.1,-0.2 -0.2,-0.5 -0.4,-0.8 -0.1,-0.1 -0.1,-0.3 -0.2,-0.6 -0.1,-0.3 -0.2,-0.5 -0.2,-0.8 -0.1,-0.3 -0.1,-0.6 -0.2,-0.8 -0.1,-0.4 -0.2,-0.6 -0.2,-0.8 z"
   id="path68"
   inkscape:connector-curvature="0"
   style="fill:none;stroke:#41797d;stroke-linecap:round;stroke-linejoin:round" />
	</g>
	<g
   class="st4"
   id="g74"
   style="enable-background:new">
		<path
   class="st3"
   d="m 210.9,65.1 c -0.1,-0.1 -0.2,-0.2 -0.2,-0.3 0,-0.1 0,-0.3 0,-0.4 0,0 0,-0.1 -0.1,-0.1 0,0 0,-0.1 0,-0.1 V 64 c 0,-0.2 0,-0.3 0.1,-0.4 0.1,-0.1 0.1,-0.3 0.1,-0.4 v -0.1 c 0,0 -0.1,0 -0.2,0 -0.1,0 -0.1,0 -0.1,0.1 -0.1,0.1 -0.2,0.1 -0.4,0.3 -0.2,0.1 -0.4,0.2 -0.6,0.4 -0.2,0.2 -0.4,0.2 -0.6,0.3 -0.2,0.1 -0.3,0.2 -0.4,0.2 l -1.3,0.5 h -0.1 c 0,0 -0.1,0 -0.1,0 -0.1,0 -0.1,0 -0.2,0 -0.1,0 -0.1,0 -0.2,0 -0.1,0 -0.1,0 -0.1,0 h -1 c -0.2,0 -0.4,0 -0.6,0 -0.2,0 -0.3,0 -0.5,0 -0.2,0 -0.3,0 -0.5,0 -0.2,0 -0.3,0 -0.5,-0.1 0,0 -0.1,0 -0.2,-0.1 -0.1,-0.1 -0.2,0 -0.3,-0.1 -0.1,-0.1 -0.2,0 -0.3,-0.1 -0.1,0 -0.2,0 -0.2,0 h -0.9 l -0.6,-0.2 c -0.1,0 -0.2,-0.1 -0.4,-0.2 -0.2,-0.1 -0.3,-0.2 -0.5,-0.3 -0.2,-0.1 -0.4,-0.2 -0.5,-0.3 -0.2,-0.1 -0.3,-0.2 -0.4,-0.2 -0.1,0 -0.2,-0.1 -0.3,-0.1 -0.1,-0.1 -0.3,-0.1 -0.4,-0.2 -0.1,-0.1 -0.3,-0.1 -0.4,-0.2 -0.1,-0.1 -0.2,-0.1 -0.2,-0.1 0,0 0,0 -0.1,-0.1 0,0 -0.1,-0.1 -0.2,-0.1 -0.1,-0.1 -0.1,-0.1 -0.2,-0.2 -0.1,-0.1 -0.1,-0.1 -0.1,-0.1 -0.3,-0.3 -0.5,-0.6 -0.8,-0.9 -0.3,-0.3 -0.5,-0.7 -0.8,-1 -0.2,-0.3 -0.4,-0.6 -0.6,-1.1 -0.2,-0.5 -0.3,-0.9 -0.4,-1.5 -0.1,-0.5 -0.2,-1 -0.2,-1.5 0,-0.5 -0.1,-0.9 -0.1,-1.3 0,-0.5 0,-0.9 0,-1.3 0,-0.4 0,-0.8 0.1,-1.1 0.1,-0.3 0.1,-0.8 0.2,-1.1 0.1,-0.4 0.2,-0.8 0.3,-1.2 0,-0.1 0.1,-0.2 0.1,-0.4 0.1,-0.2 0.1,-0.4 0.2,-0.7 0.1,-0.2 0.1,-0.4 0.2,-0.5 0.1,-0.1 0.1,-0.1 0.1,0 0.2,-0.5 0.4,-1 0.7,-1.4 0.3,-0.4 0.6,-0.9 1,-1.2 0.4,-0.4 0.8,-0.7 1.2,-1.1 0.4,-0.3 0.9,-0.6 1.3,-0.9 0,0 0.1,-0.1 0.3,-0.2 0.2,-0.1 0.3,-0.2 0.5,-0.3 0.2,-0.1 0.4,-0.2 0.5,-0.3 0.2,-0.1 0.3,-0.1 0.4,-0.2 0,0 0,0 0.1,0 0.1,0 0.1,0 0.2,-0.1 0.1,-0.1 0.2,0 0.3,-0.1 0.1,0 0.2,0 0.2,0 0.1,0 0.2,0 0.3,-0.1 0.1,0 0.2,0 0.2,0 h 3.3 c 0.4,0.1 0.8,0.2 1.1,0.3 0.4,0.1 0.7,0.2 1.1,0.4 0.3,0.1 0.7,0.3 1,0.5 0.3,0.2 0.6,0.5 0.9,0.8 h 0.1 c 0,0 0,-0.1 0,-0.1 0,-0.1 0,-0.1 0,-0.2 0,-0.1 0,-0.1 0,-0.2 0,-0.1 0,-0.1 0,-0.1 0,0 0,-0.1 0,-0.1 0,-0.1 0,-0.1 0,-0.2 0,-0.1 0,-0.1 0,-0.2 0,-0.1 0,-0.1 0,-0.1 -0.1,-0.1 -0.1,-0.2 0,-0.2 0,-0.1 0.1,-0.2 0.2,-0.2 0.1,-0.1 0.2,-0.1 0.3,-0.1 0.1,0 0.2,0 0.3,0 0.6,0 1.1,0 1.5,0 0.4,0 0.8,0 1.2,0 0.4,0 0.8,0 1.2,0.1 0.4,0.1 0.9,0.1 1.5,0.2 0,0 0.1,0.1 0.2,0.1 0.1,0 0.1,0.1 0.1,0.1 0,0.1 0,0.2 0,0.4 0,0.2 0,0.3 0,0.5 0,0.2 0,0.3 0,0.5 0,0.2 0,0.3 0,0.4 0,0 0,0.1 0,0.2 0,0.1 0,0.2 0,0.4 0,0.1 0,0.3 0,0.4 0,0.1 0,0.2 0,0.2 0,0 0,0.1 -0.1,0.2 0,0.1 0,0.2 0,0.2 0,0 0,0.1 0,0.2 0,0.1 0,0.2 0,0.3 0,0.1 0,0.2 0,0.3 0,0.1 0,0.2 0,0.2 0,0 0,0.1 0,0.2 0,0.1 0,0.1 -0.1,0.2 v 4 0.3 c 0,0.1 0,0.3 0,0.7 0,0.4 0,1 0,1.6 0,0.6 0,1.3 0,2.1 0,0.8 0,1.5 0,2.3 0,0.8 0,1.5 0,2.2 0,0.7 0,1.3 0.1,1.7 0,0 0,0.1 0,0.3 0,0.1 0,0.3 -0.1,0.5 0,0.2 0,0.3 0,0.5 0,0.2 0,0.2 0,0.3 v 0.1 0.1 c 0,0 -0.1,0.1 -0.2,0.1 -0.1,0 -0.2,0.1 -0.2,0.1 -0.3,0 -0.6,0 -0.8,0 -0.2,0 -0.4,0 -0.6,0.1 -0.2,0 -0.4,0.1 -0.6,0.1 -0.2,0 -0.5,0 -0.8,0 h -0.8 c -0.1,0 -0.2,0 -0.4,0 -0.2,0 -0.4,0 -0.6,0 -0.2,0 -0.4,0 -0.6,0 0.2,-0.2 0.1,-0.2 0,-0.3 z m -9.9,-11 c 0,0.6 0.1,1.1 0.3,1.6 0.2,0.5 0.5,1 0.8,1.5 0,0 0.1,0.1 0.1,0.2 0,0.1 0.1,0.1 0.1,0.1 0.3,0.3 0.5,0.6 0.8,0.8 0.3,0.3 0.6,0.5 0.9,0.7 0.3,0.2 0.7,0.4 1,0.5 0.4,0.1 0.7,0.2 1.2,0.2 0.4,0 0.7,-0.1 1.1,-0.2 0.4,-0.1 0.7,-0.3 1,-0.4 0,0 0.1,-0.1 0.2,-0.1 0.1,0 0.2,-0.1 0.3,-0.1 0.1,0 0.2,-0.1 0.2,-0.1 0.1,0 0.1,-0.1 0.1,-0.1 0.4,-0.3 0.8,-0.7 1,-1.1 0.2,-0.4 0.5,-0.9 0.6,-1.4 0.2,-0.5 0.3,-1 0.3,-1.5 0,-0.5 0.1,-1 0.1,-1.5 0,-0.1 0,-0.2 0,-0.3 0,-0.1 0,-0.3 0,-0.4 0,-0.1 0,-0.3 0,-0.4 0,-0.1 0,-0.2 0,-0.3 l -0.2,-0.3 c 0,-0.1 -0.1,-0.2 -0.1,-0.3 0,-0.1 -0.1,-0.1 -0.1,-0.2 -0.2,-0.4 -0.5,-0.8 -0.7,-1.2 -0.2,-0.4 -0.5,-0.7 -0.9,-0.9 -0.1,-0.1 -0.2,-0.1 -0.3,-0.2 -0.1,-0.1 -0.2,-0.2 -0.4,-0.3 -0.1,-0.1 -0.3,-0.2 -0.4,-0.2 -0.1,-0.1 -0.2,-0.1 -0.3,-0.1 0,0 -0.1,0 -0.2,-0.1 -0.1,0 -0.2,-0.1 -0.4,-0.1 -0.1,0 -0.3,-0.1 -0.4,-0.1 -0.1,0 -0.2,0 -0.2,0 -0.1,-0.1 -0.2,-0.2 -0.3,-0.2 -0.1,0 -0.3,0 -0.4,0 -0.1,0 -0.3,0 -0.5,0.1 -0.2,0 -0.3,0.1 -0.4,0.1 -0.2,0 -0.3,0 -0.5,0.1 -0.2,0.1 -0.4,0.1 -0.5,0.2 -0.1,0.1 -0.3,0.2 -0.5,0.3 -0.2,0.1 -0.3,0.3 -0.4,0.4 0,0 -0.1,0.1 -0.1,0.2 -0.1,0.1 -0.2,0.2 -0.2,0.3 -0.1,0.1 -0.2,0.2 -0.2,0.3 -0.1,0.1 -0.1,0.1 -0.1,0.2 -0.4,0.5 -0.7,1 -0.9,1.7 -0.1,0.4 -0.2,0.9 -0.2,1.4 -0.3,0.3 -0.3,0.7 -0.3,1.2 z"
   id="path72"
   inkscape:connector-curvature="0"
   style="fill:#41797d" />
	</g>
	<g
   class="st4"
   id="g78"
   style="enable-background:new">
		<path
   class="st5"
   d="m 210.9,65.1 c -0.1,-0.1 -0.2,-0.2 -0.2,-0.3 0,-0.1 0,-0.3 0,-0.4 0,0 0,-0.1 -0.1,-0.1 0,0 0,-0.1 0,-0.1 V 64 c 0,-0.2 0,-0.3 0.1,-0.4 0.1,-0.1 0.1,-0.3 0.1,-0.4 v -0.1 c 0,0 -0.1,0 -0.2,0 -0.1,0 -0.1,0 -0.1,0.1 -0.1,0.1 -0.2,0.1 -0.4,0.3 -0.2,0.1 -0.4,0.2 -0.6,0.4 -0.2,0.2 -0.4,0.2 -0.6,0.3 -0.2,0.1 -0.3,0.2 -0.4,0.2 l -1.3,0.5 h -0.1 c 0,0 -0.1,0 -0.1,0 -0.1,0 -0.1,0 -0.2,0 -0.1,0 -0.1,0 -0.2,0 -0.1,0 -0.1,0 -0.1,0 h -1 c -0.2,0 -0.4,0 -0.6,0 -0.2,0 -0.3,0 -0.5,0 -0.2,0 -0.3,0 -0.5,0 -0.2,0 -0.3,0 -0.5,-0.1 0,0 -0.1,0 -0.2,-0.1 -0.1,-0.1 -0.2,0 -0.3,-0.1 -0.1,-0.1 -0.2,0 -0.3,-0.1 -0.1,0 -0.2,0 -0.2,0 h -0.9 l -0.6,-0.2 c -0.1,0 -0.2,-0.1 -0.4,-0.2 -0.2,-0.1 -0.3,-0.2 -0.5,-0.3 -0.2,-0.1 -0.4,-0.2 -0.5,-0.3 -0.2,-0.1 -0.3,-0.2 -0.4,-0.2 -0.1,0 -0.2,-0.1 -0.3,-0.1 -0.1,-0.1 -0.3,-0.1 -0.4,-0.2 -0.1,-0.1 -0.3,-0.1 -0.4,-0.2 -0.1,-0.1 -0.2,-0.1 -0.2,-0.1 0,0 0,0 -0.1,-0.1 0,0 -0.1,-0.1 -0.2,-0.1 -0.1,-0.1 -0.1,-0.1 -0.2,-0.2 -0.1,-0.1 -0.1,-0.1 -0.1,-0.1 -0.3,-0.3 -0.5,-0.6 -0.8,-0.9 -0.3,-0.3 -0.5,-0.7 -0.8,-1 -0.2,-0.3 -0.4,-0.6 -0.6,-1.1 -0.2,-0.5 -0.3,-0.9 -0.4,-1.5 -0.1,-0.5 -0.2,-1 -0.2,-1.5 0,-0.5 -0.1,-0.9 -0.1,-1.3 0,-0.5 0,-0.9 0,-1.3 0,-0.4 0,-0.8 0.1,-1.1 0.1,-0.3 0.1,-0.8 0.2,-1.1 0.1,-0.4 0.2,-0.8 0.3,-1.2 0,-0.1 0.1,-0.2 0.1,-0.4 0.1,-0.2 0.1,-0.4 0.2,-0.7 0.1,-0.2 0.1,-0.4 0.2,-0.5 0.1,-0.1 0.1,-0.1 0.1,0 0.2,-0.5 0.4,-1 0.7,-1.4 0.3,-0.4 0.6,-0.9 1,-1.2 0.4,-0.4 0.8,-0.7 1.2,-1.1 0.4,-0.3 0.9,-0.6 1.3,-0.9 0,0 0.1,-0.1 0.3,-0.2 0.2,-0.1 0.3,-0.2 0.5,-0.3 0.2,-0.1 0.4,-0.2 0.5,-0.3 0.2,-0.1 0.3,-0.1 0.4,-0.2 0,0 0,0 0.1,0 0.1,0 0.1,0 0.2,-0.1 0.1,-0.1 0.2,0 0.3,-0.1 0.1,0 0.2,0 0.2,0 0.1,0 0.2,0 0.3,-0.1 0.1,0 0.2,0 0.2,0 h 3.3 c 0.4,0.1 0.8,0.2 1.1,0.3 0.4,0.1 0.7,0.2 1.1,0.4 0.3,0.1 0.7,0.3 1,0.5 0.3,0.2 0.6,0.5 0.9,0.8 h 0.1 c 0,0 0,-0.1 0,-0.1 0,-0.1 0,-0.1 0,-0.2 0,-0.1 0,-0.1 0,-0.2 0,-0.1 0,-0.1 0,-0.1 0,0 0,-0.1 0,-0.1 0,-0.1 0,-0.1 0,-0.2 0,-0.1 0,-0.1 0,-0.2 0,-0.1 0,-0.1 0,-0.1 -0.1,-0.1 -0.1,-0.2 0,-0.2 0,-0.1 0.1,-0.2 0.2,-0.2 0.1,-0.1 0.2,-0.1 0.3,-0.1 0.1,0 0.2,0 0.3,0 0.6,0 1.1,0 1.5,0 0.4,0 0.8,0 1.2,0 0.4,0 0.8,0 1.2,0.1 0.4,0.1 0.9,0.1 1.5,0.2 0,0 0.1,0.1 0.2,0.1 0.1,0 0.1,0.1 0.1,0.1 0,0.1 0,0.2 0,0.4 0,0.2 0,0.3 0,0.5 0,0.2 0,0.3 0,0.5 0,0.2 0,0.3 0,0.4 0,0 0,0.1 0,0.2 0,0.1 0,0.2 0,0.4 0,0.1 0,0.3 0,0.4 0,0.1 0,0.2 0,0.2 0,0 0,0.1 -0.1,0.2 0,0.1 0,0.2 0,0.2 0,0 0,0.1 0,0.2 0,0.1 0,0.2 0,0.3 0,0.1 0,0.2 0,0.3 0,0.1 0,0.2 0,0.2 0,0 0,0.1 0,0.2 0,0.1 0,0.1 -0.1,0.2 v 4 0.3 c 0,0.1 0,0.3 0,0.7 0,0.4 0,1 0,1.6 0,0.6 0,1.3 0,2.1 0,0.8 0,1.5 0,2.3 0,0.8 0,1.5 0,2.2 0,0.7 0,1.3 0.1,1.7 0,0 0,0.1 0,0.3 0,0.1 0,0.3 -0.1,0.5 0,0.2 0,0.3 0,0.5 0,0.2 0,0.2 0,0.3 v 0.1 0.1 c 0,0 -0.1,0.1 -0.2,0.1 -0.1,0 -0.2,0.1 -0.2,0.1 -0.3,0 -0.6,0 -0.8,0 -0.2,0 -0.4,0 -0.6,0.1 -0.2,0 -0.4,0.1 -0.6,0.1 -0.2,0 -0.5,0 -0.8,0 h -0.8 c -0.1,0 -0.2,0 -0.4,0 -0.2,0 -0.4,0 -0.6,0 -0.2,0 -0.4,0 -0.6,0 0.2,-0.2 0.1,-0.2 0,-0.3 z m -9.9,-11 c 0,0.6 0.1,1.1 0.3,1.6 0.2,0.5 0.5,1 0.8,1.5 0,0 0.1,0.1 0.1,0.2 0,0.1 0.1,0.1 0.1,0.1 0.3,0.3 0.5,0.6 0.8,0.8 0.3,0.3 0.6,0.5 0.9,0.7 0.3,0.2 0.7,0.4 1,0.5 0.4,0.1 0.7,0.2 1.2,0.2 0.4,0 0.7,-0.1 1.1,-0.2 0.4,-0.1 0.7,-0.3 1,-0.4 0,0 0.1,-0.1 0.2,-0.1 0.1,0 0.2,-0.1 0.3,-0.1 0.1,0 0.2,-0.1 0.2,-0.1 0.1,0 0.1,-0.1 0.1,-0.1 0.4,-0.3 0.8,-0.7 1,-1.1 0.2,-0.4 0.5,-0.9 0.6,-1.4 0.2,-0.5 0.3,-1 0.3,-1.5 0,-0.5 0.1,-1 0.1,-1.5 0,-0.1 0,-0.2 0,-0.3 0,-0.1 0,-0.3 0,-0.4 0,-0.1 0,-0.3 0,-0.4 0,-0.1 0,-0.2 0,-0.3 l -0.2,-0.3 c 0,-0.1 -0.1,-0.2 -0.1,-0.3 0,-0.1 -0.1,-0.1 -0.1,-0.2 -0.2,-0.4 -0.5,-0.8 -0.7,-1.2 -0.2,-0.4 -0.5,-0.7 -0.9,-0.9 -0.1,-0.1 -0.2,-0.1 -0.3,-0.2 -0.1,-0.1 -0.2,-0.2 -0.4,-0.3 -0.1,-0.1 -0.3,-0.2 -0.4,-0.2 -0.1,-0.1 -0.2,-0.1 -0.3,-0.1 0,0 -0.1,0 -0.2,-0.1 -0.1,0 -0.2,-0.1 -0.4,-0.1 -0.1,0 -0.3,-0.1 -0.4,-0.1 -0.1,0 -0.2,0 -0.2,0 -0.1,-0.1 -0.2,-0.2 -0.3,-0.2 -0.1,0 -0.3,0 -0.4,0 -0.1,0 -0.3,0 -0.5,0.1 -0.2,0 -0.3,0.1 -0.4,0.1 -0.2,0 -0.3,0 -0.5,0.1 -0.2,0.1 -0.4,0.1 -0.5,0.2 -0.1,0.1 -0.3,0.2 -0.5,0.3 -0.2,0.1 -0.3,0.3 -0.4,0.4 0,0 -0.1,0.1 -0.1,0.2 -0.1,0.1 -0.2,0.2 -0.2,0.3 -0.1,0.1 -0.2,0.2 -0.2,0.3 -0.1,0.1 -0.1,0.1 -0.1,0.2 -0.4,0.5 -0.7,1 -0.9,1.7 -0.1,0.4 -0.2,0.9 -0.2,1.4 -0.3,0.3 -0.3,0.7 -0.3,1.2 z"
   id="path76"
   inkscape:connector-curvature="0"
   style="fill:none;stroke:#41797d;stroke-linecap:round;stroke-linejoin:round" />
	</g>
	<g
   class="st4"
   id="g82"
   style="enable-background:new">
		<path
   class="st3"
   d="m 221.8,62.7 -1,-0.1 c -0.1,0 -0.1,0 -0.2,0 0,0 0,-0.1 0,-0.1 0,-0.1 0,-0.2 0,-0.3 0,-0.1 0,-0.2 0,-0.3 0,-0.1 0,-0.2 -0.1,-0.3 0,-0.1 -0.1,-0.2 -0.1,-0.3 0,-0.1 0,-0.1 0,-0.2 0,-0.1 0,-0.1 0.1,-0.2 0,-0.2 0,-0.5 0,-1.1 0,-0.5 0,-1.2 0,-2 0,-0.8 0,-1.6 -0.1,-2.6 0,-0.9 -0.1,-1.8 -0.1,-2.8 0,-0.9 -0.1,-1.8 -0.1,-2.6 0,-0.8 0,-1.5 0,-2.1 0,-0.1 0,-0.3 0,-0.4 0,-0.1 0,-0.4 -0.1,-0.6 0,-0.2 -0.1,-0.4 -0.1,-0.6 0,-0.2 0,-0.3 0,-0.5 0,0 0,-0.1 0,-0.2 0,-0.1 0,-0.1 0,-0.2 -0.1,0 -0.1,0 -0.1,-0.1 0,-0.1 0,-0.1 0,-0.2 v -0.1 l 0.1,-0.2 c 0,-0.3 0,-0.5 0,-0.7 0,-0.2 0,-0.5 -0.1,-0.7 0,0 0,-0.1 0,-0.2 0,-0.1 0,-0.1 0,-0.2 0,-0.1 0,-0.2 0,-0.3 0,0 0,-0.1 -0.1,-0.2 0,-0.1 -0.1,-0.1 -0.1,-0.2 0,-0.1 0,-0.1 0,-0.1 0,-0.1 0,-0.1 0,-0.1 0,0 0,-0.1 0,-0.1 0,-0.1 0,-0.1 0,-0.2 0,-0.1 0,-0.2 0,-0.2 0,0 0,-0.1 0,-0.1 v 0 c 0,0 0,0 0,-0.1 0.4,0 0.8,-0.1 1.1,-0.2 0.3,-0.1 0.7,-0.1 1.1,-0.1 0.5,0 0.9,0 1.3,0 0.4,0 0.9,0.1 1.3,0.2 0.1,0 0.1,0 0.2,0 0.1,0 0.2,0 0.3,0 0.1,0 0.2,0.1 0.3,0.1 0.1,0.1 0.1,0.1 0.2,0.3 0,0.2 0,0.3 0,0.5 0,0.2 0,0.3 0,0.5 v 0.1 c 0,0 0,0 0,0 0,0 0,0 0,0 0.1,0 0.2,-0.1 0.3,-0.1 0.1,0 0.3,-0.1 0.4,-0.2 0.1,-0.1 0.3,-0.1 0.4,-0.2 0.1,-0.1 0.2,-0.1 0.3,-0.1 0,0 0.1,0 0.2,-0.1 0.1,-0.1 0.2,-0.1 0.2,-0.1 0,0 0.1,0 0.2,0 0.1,0 0.2,-0.1 0.2,-0.1 0.1,-0.1 0.2,-0.1 0.4,-0.2 0.2,-0.1 0.3,-0.1 0.5,-0.2 0.2,-0.1 0.3,-0.1 0.4,-0.2 0.1,0 0.2,-0.1 0.2,-0.1 0.3,-0.1 0.6,-0.2 0.9,-0.2 0.3,0 0.6,0 0.9,-0.1 0.5,0 1,0 1.5,0.1 0.5,0.1 1,0.3 1.5,0.5 0.5,0.2 0.9,0.4 1.3,0.7 0.4,0.3 0.7,0.5 1,0.7 0.1,0.1 0.2,0.2 0.3,0.3 0.1,0.1 0.2,0.3 0.3,0.4 0.1,0.1 0.2,0.3 0.2,0.4 0.1,0.1 0.1,0.3 0.1,0.4 0,0.1 0,0.2 -0.1,0.3 -0.1,0.1 -0.1,0.2 -0.2,0.3 -0.1,0.1 -0.2,0.2 -0.3,0.3 -0.1,0.1 -0.2,0.1 -0.2,0.2 0,0 0,0 -0.1,0.1 0,0 -0.1,0.1 -0.1,0.1 -0.1,0 -0.1,0.1 -0.2,0.1 -0.1,0 -0.1,0.1 -0.1,0.1 0,0 -0.1,0.1 -0.2,0.1 -0.1,0 -0.2,0.1 -0.3,0.2 -0.1,0.1 -0.2,0.1 -0.2,0.2 -0.1,0.1 -0.1,0.1 -0.1,0.1 -0.2,0.1 -0.4,0.3 -0.5,0.5 -0.2,0.2 -0.4,0.3 -0.6,0.5 -0.2,0.1 -0.4,0.3 -0.6,0.4 -0.2,0.1 -0.5,0.2 -0.7,0.2 h -0.3 c 0,0 -0.1,0 -0.1,0 0,0 -0.1,0 -0.1,-0.1 -0.5,-0.2 -0.9,-0.5 -1.5,-0.7 -0.6,-0.2 -1,-0.3 -1.5,-0.3 -0.4,0 -0.7,0.2 -0.9,0.4 -0.2,0.3 -0.5,0.5 -0.7,0.8 0,0 -0.1,0.1 -0.2,0.2 -0.1,0.1 -0.2,0.2 -0.2,0.3 0,0 -0.1,0.1 -0.1,0.2 0,0.1 -0.1,0.2 -0.2,0.3 -0.1,0.1 -0.1,0.2 -0.2,0.4 -0.1,0.1 -0.1,0.2 -0.1,0.3 -0.1,0.3 -0.2,0.5 -0.2,0.9 0,0.4 0,0.6 -0.1,0.9 -0.2,1.1 -0.2,2.2 -0.2,3.1 0,0.9 0.1,1.8 0.2,2.6 0.1,0.6 0.1,1.2 0.2,1.8 0.1,0.6 0.1,1.2 0.2,1.8 0,0.1 0,0.2 0,0.4 0,0.2 0,0.4 0,0.5 0,0.2 0,0.4 0.1,0.5 0,0.2 0,0.3 0,0.4 0,0 0,0 -0.1,0 0,0 0,0 -0.1,0 h -0.1 -0.1 v 0 c 0,0 -0.1,0 -0.1,0 0,0 -0.1,0 -0.1,-0.1 z"
   id="path80"
   inkscape:connector-curvature="0"
   style="fill:#41797d" />
	</g>
	<g
   class="st4"
   id="g86"
   style="enable-background:new">
		<path
   class="st5"
   d="m 221.8,62.7 -1,-0.1 c -0.1,0 -0.1,0 -0.2,0 0,0 0,-0.1 0,-0.1 0,-0.1 0,-0.2 0,-0.3 0,-0.1 0,-0.2 0,-0.3 0,-0.1 0,-0.2 -0.1,-0.3 0,-0.1 -0.1,-0.2 -0.1,-0.3 0,-0.1 0,-0.1 0,-0.2 0,-0.1 0,-0.1 0.1,-0.2 0,-0.2 0,-0.5 0,-1.1 0,-0.5 0,-1.2 0,-2 0,-0.8 0,-1.6 -0.1,-2.6 0,-0.9 -0.1,-1.8 -0.1,-2.8 0,-0.9 -0.1,-1.8 -0.1,-2.6 0,-0.8 0,-1.5 0,-2.1 0,-0.1 0,-0.3 0,-0.4 0,-0.1 0,-0.4 -0.1,-0.6 0,-0.2 -0.1,-0.4 -0.1,-0.6 0,-0.2 0,-0.3 0,-0.5 0,0 0,-0.1 0,-0.2 0,-0.1 0,-0.1 0,-0.2 -0.1,0 -0.1,0 -0.1,-0.1 0,-0.1 0,-0.1 0,-0.2 v -0.1 l 0.1,-0.2 c 0,-0.3 0,-0.5 0,-0.7 0,-0.2 0,-0.5 -0.1,-0.7 0,0 0,-0.1 0,-0.2 0,-0.1 0,-0.1 0,-0.2 0,-0.1 0,-0.2 0,-0.3 0,0 0,-0.1 -0.1,-0.2 0,-0.1 -0.1,-0.1 -0.1,-0.2 0,-0.1 0,-0.1 0,-0.1 0,-0.1 0,-0.1 0,-0.1 0,0 0,-0.1 0,-0.1 0,-0.1 0,-0.1 0,-0.2 0,-0.1 0,-0.2 0,-0.2 0,0 0,-0.1 0,-0.1 v 0 c 0,0 0,0 0,-0.1 0.4,0 0.8,-0.1 1.1,-0.2 0.3,-0.1 0.7,-0.1 1.1,-0.1 0.5,0 0.9,0 1.3,0 0.4,0 0.9,0.1 1.3,0.2 0.1,0 0.1,0 0.2,0 0.1,0 0.2,0 0.3,0 0.1,0 0.2,0.1 0.3,0.1 0.1,0.1 0.1,0.1 0.2,0.3 0,0.2 0,0.3 0,0.5 0,0.2 0,0.3 0,0.5 v 0.1 c 0,0 0,0 0,0 0,0 0,0 0,0 0.1,0 0.2,-0.1 0.3,-0.1 0.1,0 0.3,-0.1 0.4,-0.2 0.1,-0.1 0.3,-0.1 0.4,-0.2 0.1,-0.1 0.2,-0.1 0.3,-0.1 0,0 0.1,0 0.2,-0.1 0.1,-0.1 0.2,-0.1 0.2,-0.1 0,0 0.1,0 0.2,0 0.1,0 0.2,-0.1 0.2,-0.1 0.1,-0.1 0.2,-0.1 0.4,-0.2 0.2,-0.1 0.3,-0.1 0.5,-0.2 0.2,-0.1 0.3,-0.1 0.4,-0.2 0.1,0 0.2,-0.1 0.2,-0.1 0.3,-0.1 0.6,-0.2 0.9,-0.2 0.3,0 0.6,0 0.9,-0.1 0.5,0 1,0 1.5,0.1 0.5,0.1 1,0.3 1.5,0.5 0.5,0.2 0.9,0.4 1.3,0.7 0.4,0.3 0.7,0.5 1,0.7 0.1,0.1 0.2,0.2 0.3,0.3 0.1,0.1 0.2,0.3 0.3,0.4 0.1,0.1 0.2,0.3 0.2,0.4 0.1,0.1 0.1,0.3 0.1,0.4 0,0.1 0,0.2 -0.1,0.3 -0.1,0.1 -0.1,0.2 -0.2,0.3 -0.1,0.1 -0.2,0.2 -0.3,0.3 -0.1,0.1 -0.2,0.1 -0.2,0.2 0,0 0,0 -0.1,0.1 0,0 -0.1,0.1 -0.1,0.1 -0.1,0 -0.1,0.1 -0.2,0.1 -0.1,0 -0.1,0.1 -0.1,0.1 0,0 -0.1,0.1 -0.2,0.1 -0.1,0 -0.2,0.1 -0.3,0.2 -0.1,0.1 -0.2,0.1 -0.2,0.2 -0.1,0.1 -0.1,0.1 -0.1,0.1 -0.2,0.1 -0.4,0.3 -0.5,0.5 -0.2,0.2 -0.4,0.3 -0.6,0.5 -0.2,0.1 -0.4,0.3 -0.6,0.4 -0.2,0.1 -0.5,0.2 -0.7,0.2 h -0.3 c 0,0 -0.1,0 -0.1,0 0,0 -0.1,0 -0.1,-0.1 -0.5,-0.2 -0.9,-0.5 -1.5,-0.7 -0.6,-0.2 -1,-0.3 -1.5,-0.3 -0.4,0 -0.7,0.2 -0.9,0.4 -0.2,0.3 -0.5,0.5 -0.7,0.8 0,0 -0.1,0.1 -0.2,0.2 -0.1,0.1 -0.2,0.2 -0.2,0.3 0,0 -0.1,0.1 -0.1,0.2 0,0.1 -0.1,0.2 -0.2,0.3 -0.1,0.1 -0.1,0.2 -0.2,0.4 -0.1,0.1 -0.1,0.2 -0.1,0.3 -0.1,0.3 -0.2,0.5 -0.2,0.9 0,0.4 0,0.6 -0.1,0.9 -0.2,1.1 -0.2,2.2 -0.2,3.1 0,0.9 0.1,1.8 0.2,2.6 0.1,0.6 0.1,1.2 0.2,1.8 0.1,0.6 0.1,1.2 0.2,1.8 0,0.1 0,0.2 0,0.4 0,0.2 0,0.4 0,0.5 0,0.2 0,0.4 0.1,0.5 0,0.2 0,0.3 0,0.4 0,0 0,0 -0.1,0 0,0 0,0 -0.1,0 h -0.1 -0.1 v 0 c 0,0 -0.1,0 -0.1,0 0,0 -0.1,0 -0.1,-0.1 z"
   id="path84"
   inkscape:connector-curvature="0"
   style="fill:none;stroke:#41797d;stroke-linecap:round;stroke-linejoin:round" />
	</g>
	<g
   class="st4"
   id="g90"
   style="enable-background:new">
		<path
   class="st6"
   d="m 60.4,59.5 c -0.8,-0.3 -1.5,-0.6 -2,-0.9 -0.6,-0.3 -1,-0.5 -1.4,-0.7 -0.4,-0.2 -0.7,-0.4 -0.9,-0.6 -0.2,-0.2 -0.4,-0.4 -0.6,-0.5 -0.2,-0.2 -0.3,-0.3 -0.4,-0.4 -0.1,-0.1 -0.2,-0.2 -0.3,-0.3 0,0 -0.1,0 -0.1,-0.1 -0.1,-0.1 -0.1,-0.1 -0.1,-0.1 0,0 0,-0.1 -0.1,-0.1 -0.1,0 0,-0.1 0,-0.1 C 54.4,55.6 54.4,55.6 54.3,55.5 54.2,55.4 54.1,55.3 54.1,55.3 54,55.2 54,55.2 53.9,55.1 53.8,55.1 53.8,55 53.8,55 l -0.4,-0.6 v 0 c 0,0 0,0 0,0 0,0 0,0 0,0 v 0 C 53.1,54.1 52.9,53.7 52.8,53.3 52.6,52.9 52.5,52.5 52.4,52 52.3,51.6 52.2,51.1 52.1,50.7 52,50.3 51.9,49.8 51.8,49.4 51.7,49.2 51.7,49 51.7,48.9 c 0,-0.1 0,-0.3 -0.1,-0.5 -0.1,-0.3 -0.1,-0.5 -0.2,-0.8 -0.1,-0.3 -0.1,-0.5 -0.2,-0.8 0,-0.1 0,-0.3 0,-0.6 0,-0.3 0,-0.6 -0.1,-0.9 -0.1,-0.3 0,-0.6 -0.1,-0.9 0,-0.3 0,-0.5 0,-0.6 v -0.4 c 0,-0.4 0,-0.9 0.1,-1.2 0.1,-0.3 0.2,-0.8 0.3,-1.2 0,0 0,-0.1 0.1,-0.2 0,-0.1 0.1,-0.2 0.1,-0.4 0,-0.1 0.1,-0.3 0.1,-0.4 0,-0.1 0,-0.2 0.1,-0.2 0.1,-0.4 0.2,-0.7 0.4,-1 0.1,-0.3 0.3,-0.5 0.4,-0.7 0.1,-0.2 0.3,-0.4 0.4,-0.5 0.1,-0.3 0.2,-0.6 0.4,-0.8 0.2,-0.2 0.4,-0.6 0.7,-0.9 0.3,-0.3 0.6,-0.6 0.9,-0.9 0.3,-0.3 0.6,-0.6 0.9,-0.8 0.4,-0.4 0.8,-0.7 1.4,-0.9 0.6,-0.2 1,-0.5 1.5,-0.7 0,0 0.1,-0.1 0.3,-0.1 0.1,-0.1 0.3,-0.1 0.5,-0.2 0.2,-0.1 0.3,-0.1 0.5,-0.2 0.1,-0.1 0.2,-0.1 0.3,-0.1 0,0 0.1,0 0.1,0 0,0 0.2,-0.1 0.3,-0.1 0.1,0 0.2,-0.1 0.3,-0.1 0.1,0 0.1,0 0.2,-0.1 0,0 0.1,-0.1 0.2,-0.1 0.1,0 0.2,-0.1 0.2,-0.1 0,0 0,0 0.1,0 0,0 0.1,0 0.2,0 0.1,0 0.1,0 0.2,0 0.1,0 0.1,0 0.1,0 0,0 0.1,0 0.1,0 0.1,0 0.2,0 0.3,0 0.1,0 0.2,0 0.3,0 0.1,0 0.2,0 0.2,0 0.5,-0.1 0.9,-0.2 1.4,-0.2 0.4,0 0.9,0 1.4,0 0.1,0 0.2,0 0.4,0 0.2,0 0.3,0 0.5,0 0.2,0 0.3,0 0.4,0 0.1,0 0.2,0 0.2,0 0,0 0.1,0 0.2,0 0.1,0 0.2,0 0.4,0 0.1,0 0.3,0 0.4,0 0.1,0 0.2,0 0.3,0 0,0 0.1,0 0.2,0 0.1,0 0.2,0 0.3,0.1 0,0 0.1,0 0.2,0 0.1,0 0.2,0 0.2,0.1 0,0 0.1,0 0.2,0 0.1,0 0.2,0 0.4,0 0.1,0 0.3,0 0.4,0 0.1,0 0.2,0 0.2,0 0,0 0.1,0 0.2,0.1 0.1,0 0.2,0 0.2,0 0,0 0.1,0.1 0.2,0.1 0.1,0.1 0.2,0.1 0.3,0.2 0.1,0.1 0.2,0.1 0.3,0.2 0.1,0.1 0.2,0.1 0.2,0.1 0,0 0.1,0.1 0.2,0.1 0.1,0 0.2,0.1 0.2,0.1 0,0 0.1,0 0.2,0.1 0.1,0.1 0.1,0.1 0.2,0.1 0,0 0,0 0.1,0 0,0 0.1,0 0.1,0 0.1,0 0.2,0.1 0.2,0.3 0,0.2 0.1,0.3 0.1,0.4 v 0.2 c 0,0 -0.1,0.1 -0.1,0.1 0,0 -0.1,0.1 -0.1,0.2 0,0 -0.1,0.1 -0.1,0.2 -0.1,0.1 -0.2,0.2 -0.2,0.3 0,0.1 -1.1,0.2 -1.1,0.3 -0.1,0.1 -0.1,0.2 -0.1,0.2 -0.1,0.1 -0.3,0.2 -0.4,0.5 -0.2,0.3 -0.3,0.5 -0.5,0.8 -0.2,0.3 -0.4,0.5 -0.6,0.7 -0.2,0.2 -0.5,0.2 -0.7,0.2 -0.6,-0.2 -1.2,-0.3 -1.8,-0.4 -0.6,-0.1 -1.2,-0.2 -1.8,-0.2 -0.1,0 -0.1,0 -0.2,0 -0.1,0 -0.2,0 -0.3,0 -0.1,0 -0.2,0 -0.3,0 0,0 -0.1,0 -0.2,0 -0.1,0 -0.2,0 -0.2,0.1 0,0.1 -0.2,0 -0.2,0.1 0,0.1 -0.1,0 -0.2,0 0,0 -0.1,0 -0.3,0 -0.2,0 -0.3,0 -0.5,0.1 -0.2,0.1 -0.3,0 -0.5,0.1 -0.2,0 -0.2,0 -0.3,0 0,0 -0.1,0 -0.2,0 -0.1,0 -0.2,0.1 -0.3,0.1 -0.1,0 -0.2,0.1 -0.3,0.1 -0.1,0 -0.2,0.1 -0.3,0.1 -0.5,0.2 -1,0.5 -1.4,0.8 -0.4,0.3 -0.8,0.7 -1.2,1.1 0,0 -0.1,0.1 -0.2,0.3 -0.1,0.1 -0.2,0.3 -0.3,0.4 -0.1,0.2 -0.2,0.3 -0.3,0.4 -0.1,0.1 -0.2,0.2 -0.2,0.3 -0.1,0.1 -0.2,0.2 -0.3,0.4 -0.1,0.2 -0.2,0.3 -0.2,0.5 0,0.1 -0.1,0.2 -0.1,0.3 0,0.2 -0.1,0.3 -0.1,0.5 0,0.2 -0.1,0.3 -0.1,0.5 0,0.2 -0.1,0.3 -0.1,0.3 0,0 0,0 0,0.1 v 0.1 c 0,0.1 0,0.2 0,0.4 0,0.1 0.1,0.2 0.1,0.4 v 0 c 0,0 -0.1,0.1 -0.2,0.2 -0.1,0.1 -0.1,0.2 -0.1,0.2 v 0.1 c 0,0.5 0,1.1 0,1.7 0,0.6 0.1,1.2 0.3,1.7 l 0.3,0.9 v 0 c 0,0 0,0.1 0.1,0.2 0.1,0.1 0.1,0.2 0.1,0.3 0,0.1 0.1,0.2 0.1,0.3 0,0.1 0.1,0.2 0.1,0.2 0.1,0.1 0.2,0.2 0.3,0.4 0,0.2 0.1,0.3 0.2,0.4 0.3,0.4 0.6,0.8 0.9,1.2 0.3,0.4 0.7,0.7 1.1,1 0.4,0.3 0.8,0.6 1.2,0.8 0.4,0.2 0.9,0.4 1.4,0.5 0.1,0 0.2,0 0.4,0.1 0.2,0 0.4,0.1 0.6,0.1 0.2,0 0.4,0.1 0.5,0.1 0.1,0 0.3,0 0.3,0 0,0 0.1,0 0.1,0 0,0 0.2,0 0.3,0 0.1,0 0.2,0 0.3,0 0.1,0 0.2,0 0.3,0 0.5,0 0.9,0 1.4,-0.1 0.4,0 0.9,-0.2 1.3,-0.3 0,0 0.1,0 0.2,-0.1 0.1,0 0.1,-0.1 0.2,-0.1 0.1,0 0.1,-0.1 0.2,-0.1 0.1,0 0.1,0 0.1,-0.1 0.1,-0.1 0.3,-0.1 0.4,-0.2 0.1,-0.1 0.2,-0.1 0.3,-0.2 0.1,-0.1 0.2,-0.1 0.3,-0.1 0.1,0 0.2,-0.1 0.4,-0.1 0,0 0.1,0 0.2,0 0.1,0 0.1,0 0.2,0 0.3,0.2 0.5,0.5 0.7,0.8 0.2,0.3 0.4,0.6 0.6,0.9 0,0 0.1,0.1 0.2,0.3 0.1,0.2 0.2,0.3 0.2,0.5 0.1,0.2 0.2,0.3 0.2,0.5 0,0.2 0.1,0.2 0.2,0.3 0,0 0,0.1 0.1,0.1 0,0.1 0.1,0.1 0.2,0.2 0.1,0.1 0.1,0.1 0.1,0.2 0,0.1 0.1,0.1 0.1,0.1 0.1,0.3 0.1,0.5 0.1,0.6 0,0.1 -0.1,0.2 -0.2,0.3 -0.1,0.1 -0.2,0.1 -0.4,0.2 -0.2,0.1 -0.4,0.2 -0.6,0.4 0,0 0,0 -0.1,0 0,0 0,0 0,0 0,0 0,0 0,0 -0.3,0.2 -0.6,0.4 -0.9,0.5 -0.3,0.1 -0.6,0.2 -0.9,0.3 -0.3,0.1 -0.7,0.1 -1,0.2 -0.3,0 -0.7,0.1 -1,0.1 -0.1,0 -0.2,0 -0.5,0 -0.3,0 -0.6,0 -0.9,0.1 -0.3,0 -0.6,0 -0.9,0.1 -0.3,0.1 -0.5,0 -0.5,0 h -1 -0.6 c 0,0 -0.1,0 -0.2,0 -0.1,0 -0.3,0 -0.4,0 -0.1,0 -0.3,0 -0.4,0 -0.1,0 -0.2,0 -0.2,0 0,0 -0.1,0 -0.3,0 -0.2,0 -0.3,0 -0.5,0 -0.2,0 -0.4,0 -0.5,0 -0.1,0 -0.3,0 -0.3,0 0,0 -0.1,0 -0.2,0 -0.1,0 -0.2,0 -0.3,-0.1 -0.1,0 -0.3,-0.1 -0.4,-0.1 -0.2,0.2 -0.2,0.2 -0.3,0.1 z"
   id="path88"
   inkscape:connector-curvature="0"
   style="fill:#ffffff" />
	</g>
	<g
   class="st4"
   id="g94"
   style="enable-background:new">
		<path
   class="st6"
   d="m 85.2,62 c -0.1,0 -0.2,0 -0.4,-0.1 -0.2,0 -0.4,-0.1 -0.6,-0.1 0,0 -0.1,0 -0.2,0 -0.1,0 -0.2,0 -0.3,-0.1 -0.1,0 -0.3,-0.1 -0.4,-0.2 -0.1,-0.1 -0.3,-0.2 -0.4,-0.3 0,0 -0.1,0 -0.1,-0.1 -0.1,0 -0.2,-0.1 -0.2,-0.1 -0.1,0 -0.2,-0.1 -0.2,-0.1 -0.1,0 -0.1,0 -0.1,-0.1 -0.2,-0.1 -0.4,-0.2 -0.6,-0.3 -0.2,-0.1 -0.4,-0.3 -0.5,-0.4 -0.1,-0.1 -0.3,-0.3 -0.5,-0.4 -0.2,-0.1 -0.3,-0.3 -0.4,-0.4 -0.5,-0.5 -1,-1 -1.4,-1.6 -0.4,-0.6 -0.8,-1.2 -1.1,-1.8 -0.2,-0.5 -0.4,-1 -0.6,-1.5 -0.1,-0.4 -0.3,-0.9 -0.3,-1.3 -0.1,-0.4 -0.1,-0.9 -0.2,-1.3 0,-0.5 0,-1 0,-1.6 V 49 c 0.1,-0.6 0.3,-1.2 0.5,-1.8 0.2,-0.6 0.4,-1.1 0.7,-1.6 0.3,-0.5 0.6,-1 0.9,-1.5 0.4,-0.5 0.8,-0.9 1.3,-1.4 0.3,-0.3 0.7,-0.6 1.1,-0.9 0.4,-0.2 0.8,-0.5 1.2,-0.7 0,0 0.1,0 0.1,-0.1 0.1,0 0.1,-0.1 0.2,-0.1 0.1,0 0.1,-0.1 0.2,-0.1 0.1,0 0.1,0 0.1,0 0,0 0.1,0 0.3,0 0.2,0 0.2,0 0.2,0 0,0 0.1,-0.1 0.2,-0.1 0.1,-0.1 0.2,-0.1 0.2,-0.1 0,0 0,0 0.1,0 0.1,0 0.1,0 0.2,0 0.1,0 0.1,0 0.2,0 0.1,0 0.1,0 0.1,0 0,0 0.1,0 0.3,-0.1 0.2,0 0.3,-0.1 0.5,-0.1 0.2,0 0.3,-0.1 0.5,-0.1 0.2,0 0.3,-0.1 0.3,-0.1 0.1,0 0.3,-0.1 0.5,-0.1 0.2,0 0.5,-0.1 0.8,-0.1 0.3,0 0.5,0 0.8,-0.1 0.3,-0.1 0.4,0 0.5,0 h 0.2 c 0.1,0 0.1,0 0.2,0 0.1,0 0.1,0 0.1,0 0.2,0 0.5,0 0.7,0 0.2,0 0.4,0 0.6,0.1 0.3,0.1 0.6,0.2 1,0.2 0.4,0 0.6,0.1 1,0.2 0.1,0 0.2,0.1 0.4,0.2 0.2,0.1 0.4,0.2 0.6,0.3 0.2,0.1 0.4,0.2 0.6,0.3 0.2,0.1 0.3,0.2 0.4,0.2 0,0 0.1,0.1 0.3,0.2 0.2,0.1 0.3,0.3 0.5,0.5 0.2,0.2 0.3,0.3 0.5,0.5 0.2,0.2 0.3,0.3 0.4,0.4 0,0 0,0.1 0.1,0.2 0.1,0.1 0.1,0.2 0.2,0.3 0.1,0.1 0.1,0.2 0.2,0.3 0.1,0.1 0.1,0.2 0.2,0.3 0.4,0.6 0.7,1.2 1,1.8 0.3,0.6 0.5,1.2 0.6,1.8 0.1,0.6 0.3,1.3 0.3,1.9 0.1,0.7 0.1,1.3 0.1,2 v 0.1 c 0,0.2 0,0.5 -0.1,0.8 0,0.3 -0.1,0.7 -0.1,1 0,0.3 -0.1,0.6 -0.1,0.9 0,0.3 0,0.4 -0.1,0.5 -0.1,0.6 -0.2,1.1 -0.4,1.6 -0.2,0.5 -0.4,1 -0.6,1.5 -0.2,0.3 -0.4,0.5 -0.5,0.7 -0.1,0.2 -0.3,0.4 -0.4,0.5 -0.1,0.2 -0.3,0.4 -0.5,0.6 -0.2,0.2 -0.4,0.5 -0.7,0.8 -0.4,0.3 -0.8,0.6 -1.3,0.8 -0.4,0.2 -0.9,0.5 -1.4,0.6 -0.5,0.1 -0.9,0.3 -1.4,0.4 -0.5,0.1 -1,0.1 -1.4,0.1 0,0 -0.1,0 -0.2,0 -0.1,0 -0.2,0 -0.4,0 -0.1,0 -0.2,0 -0.4,0 -0.1,0 -0.2,0 -0.2,0 0,0 -0.1,0 -0.1,-0.1 0,-0.1 -0.1,0 -0.1,0 0,0 -0.1,0 -0.2,0 -0.1,0 -0.2,0 -0.3,0 -0.1,0 -0.2,0 -0.3,0 -0.1,0 -0.1,0 -0.2,0 0,0 -0.1,0 -0.3,0 -0.2,0 -0.3,0 -0.5,-0.1 -0.2,-0.1 -0.4,-0.1 -0.5,-0.1 -0.1,0 -0.3,0 -0.3,-0.1 H 85.7 Z M 83,50.5 c 0,0.3 0,0.6 0.1,0.9 0,0.3 0.1,0.6 0.3,0.9 0,0 0,0.1 0.1,0.2 0.1,0.1 0.1,0.2 0.1,0.2 0,0.1 0.1,0.3 0.1,0.5 0,0.2 0.1,0.3 0.1,0.5 0.1,0.2 0.1,0.3 0.2,0.5 0.1,0.2 0.2,0.3 0.3,0.4 0,0 0.1,0.1 0.2,0.2 0.1,0.1 0.2,0.2 0.2,0.3 0.1,0.1 0.2,0.2 0.2,0.2 0.1,0.1 0.1,0.1 0.1,0.1 0,0 0,0 0.1,0.1 0.1,0 0.1,0.1 0.2,0.1 0.1,0.1 0.2,0.1 0.3,0.2 0.1,0.1 0.2,0.1 0.2,0.1 L 86,56 c 0,0 0.1,0.1 0.2,0.2 0.1,0.1 0.2,0.1 0.2,0.1 0,0 0.1,0 0.2,0.1 0.1,0 0.2,0 0.2,0 0.2,0.1 0.4,0.2 0.5,0.2 0.1,0 0.2,0 0.3,0 0.1,0 0.2,0 0.3,0 0.1,0 0.2,0 0.4,0 0,0 0.1,0 0.1,0 0.1,0 0.1,0 0.2,0 0.1,0 0.2,0 0.2,0 0.1,0 0.1,0 0.2,0 0.5,-0.1 1,-0.3 1.5,-0.5 0.5,-0.3 0.9,-0.6 1.2,-1 0.3,-0.4 0.6,-0.9 0.8,-1.4 0.2,-0.5 0.3,-1 0.3,-1.6 0,0 0,-0.2 0,-0.4 0,-0.2 0,-0.7 0.1,-1.3 0,-0.3 -0.1,-0.6 -0.2,-0.9 C 92.6,49.2 92.5,48.9 92.4,48.6 92.2,48.2 92,47.8 91.6,47.5 91.2,47.2 90.9,46.9 90.5,46.7 90.3,46.5 90,46.4 89.9,46.3 89.7,46.2 89.5,46.1 89.3,46 c -0.2,-0.1 -0.4,-0.1 -0.6,-0.2 -0.2,0 -0.5,-0.1 -0.7,-0.1 -0.3,0 -0.5,0 -0.7,0 -0.2,0 -0.4,0 -0.7,0.1 -0.3,0.1 -0.6,0.1 -0.9,0.2 -0.3,0.1 -0.6,0.2 -0.9,0.4 -0.3,0.2 -0.5,0.3 -0.7,0.5 -0.2,0.2 -0.4,0.5 -0.5,0.7 l -0.3,0.8 c -0.1,0.1 -0.1,0.2 -0.2,0.4 C 83,49 83,49.2 83,49.3 c 0,0.2 -0.1,0.4 -0.1,0.6 0.1,0.3 0.1,0.5 0.1,0.6 z"
   id="path92"
   inkscape:connector-curvature="0"
   style="fill:#ffffff" />
	</g>
	<g
   class="st4"
   id="g98"
   style="enable-background:new">
		<path
   class="st6"
   d="m 102.2,59.8 c -0.1,0 -0.3,-0.1 -0.4,-0.1 -0.1,-0.1 -0.2,-0.1 -0.2,-0.2 -0.1,-0.1 -0.1,-0.2 -0.1,-0.3 0,-0.1 0,-0.2 0,-0.3 0,-0.1 0,-0.2 0,-0.2 0,-0.9 0,-1.7 0,-2.5 0,-0.8 0,-1.7 -0.1,-2.5 0,-0.9 0,-1.7 0,-2.6 0,-0.8 0.1,-1.7 0.1,-2.6 l -0.1,-0.8 c 0,-0.1 0,-0.2 0,-0.3 0,-0.1 0,-0.1 0,-0.2 0,-0.1 0,-0.1 0,-0.2 v -1 c 0,-0.1 0,-0.2 0,-0.5 0,-0.2 0,-0.5 0,-0.8 0,-0.3 0,-0.5 0,-0.8 0,-0.3 0,-0.4 0,-0.5 0,-0.1 0,-0.2 0,-0.5 0,-0.3 0,-0.5 0.1,-0.8 0,-0.3 0,-0.5 0,-0.8 0,-0.2 0,-0.4 0,-0.5 0,-0.2 0,-0.5 0,-0.8 0,-0.3 0,-0.6 -0.1,-0.9 v -0.6 c 0,-0.1 0,-0.2 0.1,-0.3 0.1,-0.1 0.2,-0.1 0.2,-0.1 0.1,0 0.2,0 0.2,0 0.1,0 0.1,0 0.1,0 0,0 0.1,0 0.2,0 0.1,0 0.2,0 0.3,0 0.1,0 0.2,0 0.3,0 0.1,0 0.1,0 0.2,0 0.2,0 0.4,0 0.6,0 0.2,0 0.4,0 0.6,0 0.2,0 0.4,0 0.6,0 0.2,0 0.4,0 0.6,0 h 0.2 c 0,0 0,0 0.1,0 0.1,0 0.1,0 0.2,0 0.1,0 0.1,0 0.2,0 0.1,0 0.1,0 0.2,0 0.2,0 0.4,0.1 0.5,0.2 0.1,0.1 0.2,0.1 0.2,0.3 0,0.2 0,0.2 0.1,0.4 0,0.2 0,0.3 0.1,0.6 0.5,-0.4 1,-0.8 1.5,-1.1 0.5,-0.3 1.1,-0.5 1.6,-0.6 0.6,-0.1 1.1,-0.2 1.7,-0.3 0.6,0 1.2,0 1.8,0 0.2,0 0.3,0 0.5,0.1 0.2,0.1 0.4,0.1 0.6,0.1 0.2,0.1 0.4,0.1 0.6,0.2 0.2,0.1 0.3,0.2 0.5,0.2 0.1,0.1 0.2,0.2 0.4,0.3 0.2,0.1 0.3,0.2 0.5,0.4 0.2,0.2 0.3,0.2 0.4,0.3 0.1,0.1 0.2,0.1 0.2,0.1 0.3,0.2 0.6,0.5 0.8,0.8 0.2,0.3 0.4,0.6 0.6,1 0.2,0.3 0.3,0.7 0.4,1.1 0.1,0.4 0.2,0.8 0.3,1.1 0,0 0.1,0.2 0.1,0.3 0,0.1 0.1,0.4 0.1,0.6 0,0.2 0.1,0.5 0.1,0.7 0,0.2 0,0.4 0,0.6 v 0.3 c 0,0 0,0.2 0,0.3 0,0.2 0,0.4 0,0.6 0,0.2 0,0.4 0,0.6 0,0.2 0,0.3 0,0.3 v 2.8 0.6 c 0,0 0,0.1 0,0.2 0,0.1 0,0.2 0,0.3 0,0.1 0,0.2 0,0.3 0,0.1 0,0.2 0,0.2 v 0.4 c 0,0.2 0,0.5 0,0.8 0,0.3 0,0.7 0,1.1 0,0.4 0,0.8 0,1.1 0,0.4 0,0.7 0,1.1 0,0.3 0,0.6 0,0.8 0,0.2 0,0.4 0,0.4 0,0 0,0.1 0,0.2 0,0.1 0,0.2 0,0.3 0,0.1 0,0.2 0,0.3 0,0.1 0,0.2 0,0.2 v 0.2 c 0,0.1 -0.1,0.2 -0.2,0.2 -0.1,0 -0.3,0 -0.3,0.1 0,0 -0.1,0 -0.1,0 0,0 -0.1,0 -0.2,0 -0.1,0 -0.1,0 -0.2,0 -0.1,0 -0.1,0 -0.1,0 0,0 -0.1,0 -0.3,0 -0.2,0 -0.3,0 -0.4,0 -0.1,0 -0.3,0 -0.4,0 -0.1,0 -0.2,0 -0.3,0 -0.5,0 -1,0.1 -1.5,0.1 -0.5,0 -1,0 -1.5,0 -0.2,0 -0.3,-0.1 -0.4,-0.2 -0.1,-0.1 -0.1,-0.2 -0.2,-0.3 0,-0.1 0,-0.3 0,-0.4 0,-0.1 0,-0.3 0,-0.4 0,-0.1 0,-0.2 0,-0.4 0,-0.2 0,-0.4 0,-0.7 0,-0.3 0,-0.6 0,-0.9 0,-0.3 0,-0.6 0,-0.9 0,-0.3 0,-0.5 0,-0.7 0,-0.2 0,-0.3 0,-0.4 v -3.9 c 0,-0.4 0,-0.8 0,-1.4 0,-0.5 -0.1,-1 -0.2,-1.6 -0.1,-0.5 -0.2,-1.1 -0.3,-1.6 -0.1,-0.5 -0.3,-1 -0.5,-1.4 -0.2,-0.4 -0.5,-0.7 -0.7,-1 -0.3,-0.2 -0.6,-0.3 -0.9,-0.3 h -0.6 c -0.4,0 -0.7,0 -1,0.1 -0.3,0.1 -0.6,0.3 -0.9,0.5 0,0 0,0 -0.1,0 0,0 0,0.1 0,0.1 -0.3,0.2 -0.6,0.6 -0.8,1 -0.2,0.4 -0.4,0.9 -0.6,1.5 -0.2,0.5 -0.3,1.1 -0.4,1.7 -0.1,0.6 -0.2,1.2 -0.3,1.8 0,0.1 0,0.2 -0.1,0.4 0,0.2 0,0.5 -0.1,0.7 -0.1,0.2 -0.1,0.5 -0.1,0.8 0,0.3 0,0.5 0,0.6 0,0 0,0.1 0,0.2 0,0.1 0,0.2 0,0.4 0,0.1 0,0.3 0,0.4 0,0.1 0,0.2 0,0.3 0,0.1 0,0.1 0,0.3 0,0.1 0,0.3 0,0.4 0,0.1 0,0.3 0,0.4 0,0.1 0,0.2 0,0.3 v 2.5 c 0,0 0,0.1 0,0.2 0,0.1 0,0.2 0,0.2 0,0 0,0 0,0.1 0,0 0,0.1 0,0.2 0,0.1 0,0.1 0,0.2 0,0.1 0,0.1 0,0.1 0,0.1 0,0.2 0,0.3 0,0.1 0,0.2 0,0.4 0,0.1 -0.1,0.2 -0.1,0.3 0,0.1 -0.2,0.1 -0.4,0.1 -0.3,0 -0.5,0 -0.8,0 -0.3,0 -0.6,0 -1,0 -0.3,0 -0.7,0 -1,0 0,0.6 -0.4,0.6 -0.7,0.5 z"
   id="path96"
   inkscape:connector-curvature="0"
   style="fill:#ffffff" />
	</g>
	<g
   class="st4"
   id="g102"
   style="enable-background:new">
		<path
   class="st6"
   d="m 127.2,61.8 c 0,0 0,-0.1 0.1,-0.1 0,-0.1 0,-0.1 0,-0.1 0,-0.1 0,-0.2 0,-0.3 0,-0.1 0,-0.3 0,-0.4 0,-0.2 0,-0.3 0,-0.4 0,-0.1 0,-0.2 0,-0.3 0,-0.1 0,-0.2 0,-0.4 0,-0.2 0,-0.3 0,-0.5 0,-0.2 0,-0.3 0,-0.4 0,-0.1 0,-0.2 0,-0.2 0,-0.1 0,-0.2 0,-0.5 0,-0.3 0,-0.5 0,-0.8 0,-0.3 0,-0.6 0,-0.8 0,-0.3 0,-0.4 0,-0.5 0,0 0,-0.1 0,-0.3 0,-0.1 0,-0.3 0,-0.4 0,-0.2 0,-0.3 0,-0.4 0,-0.1 0,-0.2 0,-0.3 0,0 0,-0.1 0,-0.3 0,-0.2 0,-0.3 0,-0.5 0,-0.2 0,-0.3 -0.1,-0.5 0,-0.2 0,-0.2 0,-0.3 0,-0.2 0,-0.4 0,-0.7 0,-0.3 0,-0.7 0,-1.1 0,-0.4 0,-0.8 0,-1.3 0,-0.5 0,-0.9 0,-1.2 0,-0.3 0,-0.7 0,-1.1 0,-0.4 0,-0.5 0,-0.7 l -0.1,-0.2 c -0.4,0 -0.9,0 -1.4,0 -0.5,0 -1,-0.1 -1.4,-0.1 0,0 0,0 0,-0.1 0,0 0,-0.1 -0.1,-0.1 0,0 0,0 -0.1,0 0,0 -0.1,0 0,0 0,-0.1 0,-0.3 0,-0.5 0,-0.2 0,-0.5 -0.1,-0.8 0,-0.3 0,-0.6 -0.1,-0.9 0,-0.3 0,-0.6 -0.1,-0.9 -0.1,-0.3 0,-0.6 0,-0.8 0,-0.2 0,-0.4 0,-0.5 V 42 c 0,-0.2 0.1,-0.4 0.2,-0.5 0.1,-0.1 0.3,-0.2 0.4,-0.3 0.4,0.1 0.8,0.1 1.2,0 0.4,-0.1 0.8,-0.1 1.2,-0.1 0.1,0 0.2,0 0.3,0 0.1,0 0.2,0 0.3,-0.1 v -0.3 c 0,-0.9 0,-1.7 -0.1,-2.5 -0.1,-0.8 -0.1,-1.7 -0.1,-2.5 0,0 0,-0.1 0,-0.2 0,-0.1 0,-0.2 0,-0.4 0,-0.1 0,-0.3 0,-0.4 0,-0.1 0,-0.2 0,-0.2 0,-0.1 0.1,-0.1 0.2,-0.2 0.1,0 0.3,0 0.6,0.1 0.1,0 0.2,0 0.4,0 0.2,0 0.4,0 0.6,-0.1 0.2,0 0.4,0 0.6,-0.1 0.2,0 0.3,0 0.4,0 0,0 0.1,0 0.3,0 0.2,0 0.3,0 0.5,0 0.2,0 0.3,0 0.5,0 0.1,0 0.2,0 0.3,0 h 0.2 c 0.1,0 0.2,0 0.3,0 0.1,0 0.3,0 0.4,0 0.2,0 0.3,0 0.5,0 l 0.2,0.2 c 0,0 0,0.1 0,0.2 0,0.1 0,0.1 0,0.2 0,0.1 0,0.2 0,0.2 0,0.1 0,0.1 0,0.2 0,0 0,0.1 0.1,0.1 0,0 0,0.1 0,0.1 0.1,0.4 0.1,0.9 0.1,1.3 0,0.4 0,0.9 0,1.4 0,0.1 0,0.3 0,0.5 0,0.2 0,0.5 0,0.8 0,0.3 0,0.6 0,0.9 0,0.3 0,0.6 0,0.8 0,0.1 0,0.1 0.1,0.1 0,0 0.1,0 0.1,0.1 0,0.1 0.1,0 0.2,0 0.1,0 0.1,0 0.2,0 h 0.1 c 0.4,-0.1 0.7,-0.2 1,-0.2 0.3,0 0.7,0 1.1,0 0,0 0.1,0 0.2,0 0.1,0 0.1,0 0.2,0 0.1,0 0.2,0 0.3,0 l 0.1,0.6 c 0,0.6 0,1.1 0,1.7 0,0.5 0,1.1 0.1,1.7 0,0 0,0.1 0,0.2 0,0.1 0,0.3 0,0.4 0,0.1 0,0.3 0,0.4 0,0.1 0,0.2 0,0.2 v 0.1 c 0,0.1 0,0.2 -0.1,0.3 -0.1,0.1 -0.1,0.1 -0.2,0.2 -0.1,0 -0.2,0.1 -0.2,0.1 -0.1,0 -0.2,0 -0.2,0.1 l -0.5,0.1 h -1.8 v 1.4 c 0,0 0,0.1 0,0.2 0,0.1 0,0.2 0,0.3 0,0.1 0,0.2 0,0.3 0,0.1 0,0.1 0,0.1 0,0.4 0,0.7 0,1.1 0,0.3 0,0.6 0.1,0.9 0,0.3 0.1,0.6 0.1,0.9 0,0.3 0.1,0.7 0.1,1 l -0.2,8.8 c 0,0.1 -0.1,0.2 -0.2,0.3 -0.1,0.1 -0.2,0.1 -0.3,0.1 H 130 c 0,0 -0.1,0 -0.2,0.1 -0.1,0 -0.2,0 -0.2,0 0,0 -0.1,0 -0.2,0 -0.1,0 -0.1,0 -0.2,0 0,0 -0.1,0 -0.2,0 -0.1,0 -0.2,0 -0.3,0 -0.1,0 -0.2,0 -0.3,0 -0.1,0 -0.2,0 -0.2,0 -0.1,0 -0.3,0 -0.4,-0.1 -0.5,-0.4 -0.6,-0.5 -0.6,-0.8 z"
   id="path100"
   inkscape:connector-curvature="0"
   style="fill:#ffffff" />
	</g>
	<g
   class="st4"
   id="g106"
   style="enable-background:new">
		<path
   class="st6"
   d="m 140,33.4 c 0,-0.1 0,-0.3 0,-0.5 0,-0.2 0,-0.3 0.1,-0.5 0.1,-0.2 0.2,-0.5 0.3,-0.7 0.1,-0.2 0.2,-0.4 0.4,-0.6 0,0 0.1,-0.1 0.2,-0.2 0.1,-0.1 0.2,-0.1 0.3,-0.2 0.1,-0.1 0.2,-0.1 0.3,-0.2 0.1,-0.1 0.1,-0.1 0.2,-0.1 0.1,-0.1 0.3,-0.2 0.4,-0.2 0.1,0 0.3,-0.1 0.4,-0.1 0.1,0 0.3,0 0.5,0 0.2,0 0.3,0 0.5,0 0.2,0 0.3,0 0.5,0.1 0.1,0.1 0.3,0.1 0.5,0.2 0.1,0 0.2,0.1 0.4,0.2 0.2,0.1 0.3,0.2 0.4,0.2 0.4,0.3 0.8,0.7 1.1,1.1 0.3,0.4 0.5,1 0.6,1.6 0,0.4 0,0.7 0,0.9 0,0.2 -0.1,0.5 -0.2,0.7 -0.1,0.2 -0.2,0.4 -0.4,0.6 -0.2,0.2 -0.4,0.4 -0.6,0.6 -0.2,0.2 -0.5,0.4 -0.9,0.6 -0.4,0.2 -0.7,0.2 -1,0.2 0,0 -0.1,0 -0.2,0 -0.1,0 -0.2,0 -0.3,0 -0.1,0 -0.2,0 -0.3,0 -0.1,0 -0.1,0 -0.2,0 -0.1,0 -0.1,0 -0.2,-0.1 -0.1,0 -0.2,0 -0.3,-0.1 -0.1,0 -0.2,-0.1 -0.3,-0.1 -0.1,0 -0.1,0 -0.2,-0.1 0,0 -0.1,0 -0.2,-0.1 -0.1,-0.1 -0.2,-0.1 -0.3,-0.1 -0.1,0 -0.2,-0.1 -0.3,-0.1 -0.1,0 -0.1,-0.1 -0.2,-0.1 -0.3,-0.2 -0.5,-0.4 -0.6,-0.6 -0.2,-0.2 -0.3,-0.4 -0.4,-0.7 -0.1,-0.3 -0.1,-0.5 -0.2,-0.7 0.2,-0.2 0.2,-0.5 0.2,-0.9 z m 0.5,12.9 c 0,-0.1 0,-0.3 0,-0.6 0,-0.3 0,-0.7 0,-1.1 0,-0.4 0,-0.8 0,-1.3 0,-0.5 0,-0.8 0,-1 0,0 0,-0.1 0,-0.2 0,-0.1 0,-0.2 0,-0.3 0,-0.1 0,-0.2 0,-0.3 0,-0.1 0,-0.2 0,-0.2 v -2 c 0.1,-0.1 0.2,-0.2 0.4,-0.2 0.2,0 0.3,-0.1 0.4,-0.1 h 4.8 c 0.1,0 0.2,0.1 0.2,0.1 0.1,0 0.1,0 0.2,0.1 0.1,0.1 0.1,0.2 0.1,0.3 0,0.2 0.1,0.4 0.1,0.7 0,0 0,0.1 0,0.1 0,0.1 0,0.2 0,0.2 0,0.1 0,0.2 0,0.2 0,0.1 0,0.1 0,0.1 0,0.2 0,0.4 0,0.9 0,0.4 0,0.9 0.1,1.3 0,0.5 0,0.9 0.1,1.3 0,0.4 0,0.7 0,0.9 0,0.1 0,0.3 0,0.6 0,0.3 0,0.6 0.1,1 0,0.4 0.1,0.7 0.1,1 0,0.3 0,0.5 0,0.6 0,0.1 0,0.3 0,0.6 0,0.3 0,0.6 0.1,1 0,0.4 0,0.8 0.1,1.2 0,0.4 0,0.8 0.1,1.2 0,0.4 0,0.7 0.1,1 0,0.3 0,0.5 0,0.6 0,0.2 0,0.4 0,0.8 0,0.4 0,0.7 0,1.1 0,0.4 0,0.8 0,1.1 0,0.4 0,0.6 0,0.8 V 58 c 0.1,0.4 0,0.8 -0.1,1 -0.1,0.2 -0.3,0.3 -0.7,0.3 h -5.3 c -0.3,0 -0.4,-0.1 -0.5,-0.2 -0.1,-0.1 -0.2,-0.3 -0.2,-0.6 0,-0.2 0,-0.5 0,-0.8 0,-0.3 0,-0.6 -0.1,-1 0,-0.2 0,-0.5 0,-0.8 0,-0.3 0,-0.6 0,-0.9 0,-0.3 0,-0.6 0,-0.9 0,-0.3 0,-0.6 0,-0.8 0,-0.6 -0.1,-1.3 -0.1,-1.8 0,-0.6 0,-1.1 -0.1,-1.7 -0.1,-0.6 0,-1.1 0,-1.7 0.1,-0.5 0.1,-1.1 0.1,-1.8 z"
   id="path104"
   inkscape:connector-curvature="0"
   style="fill:#ffffff" />
	</g>
	<g
   class="st4"
   id="g110"
   style="enable-background:new">
		<path
   class="st6"
   d="m 152.1,62.4 c -0.1,0 -0.3,-0.1 -0.4,-0.1 -0.1,-0.1 -0.2,-0.1 -0.2,-0.2 0,-0.1 -0.1,-0.2 -0.1,-0.3 0,-0.1 0,-0.2 0,-0.3 0,-0.1 0,-0.2 0,-0.2 0,-0.9 0,-1.7 0,-2.5 0,-0.8 0,-1.7 -0.1,-2.5 -0.1,-0.8 0,-1.7 0,-2.6 0,-0.8 0.1,-1.7 0.1,-2.6 l -0.1,-0.8 c 0,-0.1 0,-0.2 0,-0.3 0,-0.1 0,-0.1 0,-0.2 0,-0.1 0,-0.1 0,-0.2 v -1 c 0,-0.1 0,-0.2 0,-0.5 0,-0.2 0,-0.5 0,-0.8 0,-0.3 0,-0.5 0,-0.8 0,-0.3 0,-0.4 0,-0.5 0,-0.1 0,-0.2 0,-0.5 0,-0.3 0,-0.5 0,-0.8 0,-0.3 0,-0.5 0,-0.8 0,-0.2 0,-0.4 0,-0.5 0,-0.2 0,-0.5 0,-0.8 0,-0.3 0,-0.6 -0.1,-0.9 v -0.6 c 0,-0.1 0,-0.2 0.1,-0.3 0.1,-0.1 0.2,-0.1 0.2,-0.1 0.1,0 0.2,0 0.2,0 0.1,0 0.1,0 0.1,0 0,0 0.1,0 0.2,0 0.1,0 0.2,0 0.3,0 0.1,0 0.2,0 0.3,0 0.1,0 0.1,0 0.2,0 0.2,0 0.4,0 0.6,0 0.2,0 0.4,0 0.6,0 0.2,0 0.4,0 0.6,0 0.2,0 0.4,0 0.6,0 h 0.2 c 0,0 0,0 0.1,0 0.1,0 0.1,0 0.2,0 0.1,0 0.1,0 0.2,0 0.1,0 0.1,0 0.2,0 0.2,0 0.4,0.1 0.5,0.2 0.1,0.1 0.2,0.1 0.2,0.3 0,0.1 0,0.2 0.1,0.4 0,0.2 0,0.3 0.1,0.6 0.5,-0.4 1,-0.8 1.5,-1.1 0.5,-0.3 1.1,-0.5 1.6,-0.6 0.6,-0.1 1.1,-0.2 1.7,-0.3 0.6,0 1.2,0 1.8,0 0.2,0 0.3,0 0.5,0.1 0.2,0.1 0.4,0.1 0.6,0.1 0.2,0.1 0.4,0.1 0.6,0.2 0.2,0.1 0.3,0.2 0.5,0.2 0.1,0.1 0.2,0.2 0.4,0.3 0.2,0.1 0.3,0.2 0.5,0.4 0.2,0.1 0.3,0.2 0.4,0.3 0.1,0.1 0.2,0.1 0.2,0.1 0.3,0.2 0.6,0.5 0.8,0.8 0.2,0.3 0.4,0.6 0.6,1 0.2,0.3 0.3,0.7 0.4,1.1 0.1,0.4 0.2,0.8 0.3,1.1 0,0 0.1,0.2 0.1,0.3 0,0.1 0.1,0.4 0.1,0.6 0,0.2 0.1,0.5 0.1,0.7 0,0.2 0,0.4 0,0.6 v 0.3 c 0,0 0,0.2 0,0.3 0,0.2 0,0.4 0,0.6 0,0.2 0,0.4 0,0.6 0,0.2 0,0.3 0,0.3 v 2.8 0.6 c 0,0 0,0.1 0,0.2 0,0.1 0,0.2 0,0.3 0,0.1 0,0.2 0,0.3 0,0.1 0,0.2 0,0.2 V 55 c 0,0.2 0,0.5 0,0.8 0,0.3 0,0.7 0,1.1 0,0.4 0,0.8 0,1.1 0,0.4 0,0.7 0,1.1 0,0.3 0,0.6 0,0.8 0,0.2 0,0.4 0,0.4 0,0 0,0.1 0,0.2 0,0.1 0,0.2 0,0.3 0,0.1 0,0.2 0,0.3 0,0.1 0,0.2 0,0.2 v 0.2 c 0,0.1 -0.1,0.2 -0.2,0.2 -0.1,0 -0.3,0 -0.3,0.1 0,0 -0.1,0 -0.1,0 0,0 -0.1,0 -0.2,0 -0.1,0 -0.1,0 -0.2,0 0,0 -0.1,0 -0.1,0 0,0 -0.1,0 -0.3,0 -0.1,0 -0.3,0 -0.4,0 -0.2,0 -0.3,0 -0.4,0 -0.1,0 -0.2,0 -0.3,0 -0.5,0 -1,0.1 -1.5,0.1 -0.5,0 -1,0 -1.5,0 -0.2,0 -0.3,-0.1 -0.4,-0.2 -0.1,-0.1 -0.1,-0.2 -0.2,-0.3 0,-0.1 0,-0.3 0,-0.4 0,-0.2 0,-0.3 0,-0.4 0,-0.1 0,-0.2 0,-0.4 0,-0.2 0,-0.4 0,-0.7 0,-0.3 0,-0.6 0,-0.9 0,-0.3 0,-0.6 0,-0.9 0,-0.3 0,-0.5 0,-0.7 0,-0.2 0,-0.3 0,-0.4 v -3.9 c 0,-0.4 0,-0.8 0,-1.4 0,-0.5 -0.1,-1 -0.2,-1.6 -0.1,-0.5 -0.2,-1.1 -0.3,-1.6 -0.1,-0.5 -0.3,-1 -0.5,-1.4 -0.2,-0.4 -0.5,-0.7 -0.7,-1 -0.3,-0.2 -0.6,-0.3 -0.9,-0.3 h -0.6 c -0.4,0 -0.7,0 -1,0.1 -0.3,0.1 -0.6,0.3 -0.9,0.5 0,0 0,0 -0.1,0 0,0 0,0.1 0,0.1 -0.3,0.2 -0.6,0.6 -0.8,1 -0.2,0.4 -0.4,0.9 -0.6,1.5 -0.2,0.6 -0.3,1.1 -0.4,1.7 -0.1,0.6 -0.2,1.2 -0.3,1.8 0,0.1 0,0.2 0,0.4 0,0.2 0,0.5 -0.1,0.7 0,0.3 0,0.5 -0.1,0.8 0,0.3 0,0.5 0,0.6 0,0 0,0.1 0,0.2 0,0.1 0,0.2 0,0.4 0,0.1 0,0.3 0,0.4 0,0.1 0,0.2 0,0.3 0,0.1 0,0.1 0,0.3 0,0.1 0,0.3 0,0.4 0,0.1 0,0.3 0,0.4 0,0.1 0,0.2 0,0.3 v 2.5 c 0,0 0,0.1 0,0.2 0,0.1 0,0.2 0,0.2 0,0 0,0 0,0.1 0,0 0,0.1 0,0.2 0,0.1 0,0.1 0,0.2 0,0.1 0,0.1 0,0.1 0,0.1 0,0.2 0,0.3 0,0.1 0,0.2 0,0.4 0,0.1 -0.1,0.2 -0.1,0.3 -0.1,0.1 -0.2,0.1 -0.4,0.1 -0.3,0 -0.5,0 -0.8,0 -0.3,0 -0.6,0 -1,0 -0.3,0 -0.7,0 -1,0 0,0.6 -0.3,0.6 -0.7,0.5 z"
   id="path108"
   inkscape:connector-curvature="0"
   style="fill:#ffffff" />
	</g>
	<g
   class="st4"
   id="g114"
   style="enable-background:new">
		<path
   class="st6"
   d="m 174.7,52 c 0,-0.1 -0.1,-0.3 -0.1,-0.5 -0.1,-0.2 -0.1,-0.5 -0.2,-0.7 -0.1,-0.2 -0.1,-0.5 -0.2,-0.7 0,-0.2 -0.1,-0.4 -0.1,-0.5 0,0 0,-0.1 0,-0.3 0,-0.2 0,-0.3 0,-0.5 0,-0.2 0,-0.3 0,-0.5 0,-0.2 0,-0.2 0,-0.3 0,-0.1 0,-0.1 0,-0.2 0,-0.1 0,-0.2 0,-0.3 0,-0.1 0,-0.2 0,-0.3 0,-0.1 0,-0.1 0,-0.2 L 174,46.8 c 0,0 0,-0.1 0,-0.2 0,-0.1 0,-0.2 0,-0.3 0,-0.1 0,-0.2 0,-0.3 0,-0.1 0,-0.1 0,-0.2 0,-0.3 0,-0.6 0,-1 0,-0.4 0,-0.7 0,-1.1 0,-0.4 0,-0.7 0,-1.1 0,-0.3 0,-0.7 0,-0.9 0,-0.4 0,-0.7 0,-1.1 0,-0.4 0,-0.6 0,-0.9 0,-0.3 0,-0.6 0.1,-0.8 0,-0.3 0.1,-0.5 0.1,-0.8 0,-0.1 0.1,-0.2 0.4,-0.3 0.2,-0.1 0.4,-0.1 0.6,-0.1 h 0.8 c 0.1,0 0.3,0 0.4,0 0.2,0 0.3,0 0.5,0.1 0.2,0 0.3,0.1 0.5,0.1 0.1,0 0.2,0 0.2,0 0,0 0.1,0 0.2,0 0.1,0 0.3,0 0.4,0 0.2,0 0.3,0 0.4,0 0.1,0 0.2,0 0.3,0 0,0 0.1,0 0.2,0 0.1,0 0.3,0 0.4,0 0.2,0 0.3,0 0.4,0 0.1,0 0.2,0 0.3,0 0.1,0.1 0.1,0.1 0.1,0.2 0,0 0,0.1 0,0.1 0,0 0,0.1 0,0.2 0,0.1 0,0.1 0,0.2 v 0.7 c -0.1,0.4 -0.1,0.8 -0.1,1.2 0,0.4 0,0.8 0,1.3 0,0.7 0,1.4 0,2.1 0,0.7 0,1.5 0,2.3 l 0.1,0.9 v 0.3 c 0.1,0.3 0.1,0.6 0.1,0.9 0,0.3 0,0.6 0.1,0.9 0,0.3 0.1,0.6 0.1,0.9 0,0.3 0.1,0.6 0.2,0.9 0,0.1 0.1,0.1 0.1,0.2 0,0.1 0.1,0.2 0.1,0.3 0,0.1 0.1,0.2 0.1,0.3 0,0.1 0.1,0.1 0.1,0.1 0.1,0.2 0.2,0.4 0.4,0.6 0.2,0.2 0.4,0.3 0.6,0.4 0.2,0.1 0.4,0.2 0.6,0.3 0.2,0.1 0.3,0.1 0.3,0.1 0,0 0.1,0 0.2,0.1 0.1,0.1 0.2,0.1 0.3,0.1 0,0 0.1,0 0.2,0 0.1,0 0.2,0 0.2,0 0.2,0 0.5,0 0.8,-0.1 0.3,-0.1 0.7,-0.2 1,-0.5 0.4,-0.4 0.7,-0.9 0.9,-1.4 0.2,-0.5 0.3,-0.9 0.4,-1.4 0.1,-0.5 0.1,-1 0.1,-1.5 0,-0.5 0,-1.1 0,-1.7 v -0.6 c 0,-0.1 0,-0.2 0,-0.4 0,-0.2 0,-0.5 0,-0.8 0,-0.3 0,-0.5 0,-0.8 0,-0.2 0,-0.4 0,-0.4 v -1.7 c 0,-0.1 0,-0.2 0,-0.3 0,-0.2 0,-0.4 -0.1,-0.6 0,-0.2 -0.1,-0.5 -0.1,-0.7 0,-0.3 -0.1,-0.5 -0.1,-0.7 0,-0.2 -0.1,-0.4 -0.1,-0.6 0,-0.2 0,-0.3 0,-0.3 l 0.2,-1.4 c 0,-0.1 0.1,-0.1 0.2,-0.2 0.1,0 0.2,0 0.3,0 0.1,0 0.2,0 0.3,0 0.1,0 0.2,0 0.3,0 0,0 0,0 0.1,0 0.1,0 0.1,0 0.2,0 0.1,0 0.1,0 0.2,0 0.1,0 0.1,0 0.1,0 l 2,0.2 c 0,0 0.1,0 0.3,0 0.1,0 0.3,0 0.4,0 0.2,0 0.3,0 0.4,0 0.1,0 0.2,0 0.2,0 0.1,0 0.2,0 0.3,0 0.1,0 0.3,0 0.4,0 0.2,0 0.3,0 0.4,0 0.1,0 0.2,0 0.3,0 l 0.2,0.1 c 0.1,0 0.2,0.1 0.3,0.2 0.1,0.1 0.1,0.2 0.2,0.4 0,0.2 0.1,0.4 0.1,0.6 0,0.2 0,0.5 0,0.8 V 40 c 0,0.2 0,0.4 0,0.7 0,0.2 0,0.4 -0.1,0.7 0,0.1 0,0.2 0,0.5 0,0.2 0,0.5 0,0.8 0,0.3 0,0.5 0,0.8 0,0.3 0,0.4 0,0.5 0,0 0,0.2 0,0.3 0,0.1 -0.1,0.4 -0.1,0.6 0,0.2 -0.1,0.4 -0.1,0.6 0,0.2 0,0.3 -0.1,0.3 0,0.1 0,0.2 0,0.4 0,0.2 0,0.5 -0.1,0.7 -0.1,0.2 0,0.5 -0.1,0.8 0,0.3 0,0.4 -0.1,0.6 0,0 0,0.1 0,0.2 0,0.1 0,0.2 -0.1,0.3 0,0.1 0,0.2 -0.1,0.3 0,0.1 0,0.2 0,0.2 0,0 0,0.1 0,0.1 0,0 0,0.2 0,0.3 0,0.1 0,0.2 0,0.3 0,0.1 0,0.1 0,0.1 0,0 0,0 0,0.1 0,0.1 0,0.1 -0.1,0.2 0,0.1 0,0.1 -0.1,0.2 0,0.1 0,0.1 0,0.1 -0.1,0.4 -0.2,0.8 -0.2,1.2 -0.1,0.4 -0.1,0.7 -0.2,1.1 -0.1,0.3 -0.1,0.7 -0.2,1 -0.1,0.3 -0.2,0.7 -0.3,1.2 -0.1,0.2 -0.2,0.5 -0.4,0.8 -0.2,0.3 -0.4,0.6 -0.6,0.9 -0.2,0.3 -0.4,0.6 -0.6,0.8 -0.2,0.2 -0.4,0.4 -0.5,0.5 -0.1,0.2 -0.3,0.4 -0.6,0.5 -0.3,0.2 -0.5,0.3 -0.8,0.4 -0.3,0.1 -0.6,0.2 -0.9,0.3 -0.3,0.1 -0.6,0.2 -0.8,0.3 -0.4,0.1 -0.7,0.2 -1.1,0.3 -0.4,0 -0.8,0 -1.1,0 -0.3,0 -0.7,0 -1,0 -0.3,0 -0.7,0 -1,0 -0.3,0 -0.7,-0.1 -1,-0.1 -0.3,0 -0.7,-0.2 -1,-0.3 -0.7,-0.3 -1.3,-0.6 -1.9,-1 -0.6,-0.4 -1.2,-0.8 -1.7,-1.3 -0.1,-0.1 -0.2,-0.1 -0.3,-0.3 -0.1,-0.2 -0.2,-0.2 -0.3,-0.4 -0.1,-0.1 -0.2,-0.2 -0.4,-0.3 -0.2,-0.1 -0.2,-0.2 -0.3,-0.2 0,0 0,0 0,-0.3 -0.1,-0.2 -0.2,-0.5 -0.4,-0.8 -0.1,-0.1 -0.1,-0.3 -0.2,-0.6 -0.1,-0.3 -0.2,-0.5 -0.2,-0.8 0,-0.3 -0.1,-0.6 -0.2,-0.8 -0.2,-0.4 -0.2,-0.6 -0.2,-0.8 z"
   id="path112"
   inkscape:connector-curvature="0"
   style="fill:#ffffff" />
	</g>
	<g
   class="st4"
   id="g118"
   style="enable-background:new">
		<path
   class="st6"
   d="m 213.1,62.4 c -0.1,-0.1 -0.2,-0.2 -0.2,-0.3 0,-0.1 0,-0.3 0,-0.4 0,0 0,-0.1 0,-0.1 0,0 -0.1,-0.1 -0.1,-0.1 v -0.2 c 0,-0.2 0,-0.3 0.1,-0.4 0.1,-0.1 0.1,-0.3 0.1,-0.4 v -0.1 c 0,0 -0.1,0 -0.2,0 -0.1,0 -0.1,0 -0.1,0.1 -0.1,0.1 -0.2,0.1 -0.4,0.3 -0.2,0.2 -0.4,0.2 -0.6,0.4 -0.2,0.1 -0.4,0.2 -0.6,0.3 -0.2,0.1 -0.3,0.2 -0.4,0.2 l -1.3,0.5 h -0.1 c 0,0 -0.1,0 -0.1,0 -0.1,0 -0.1,0 -0.2,0 -0.1,0 -0.1,0 -0.2,0 -0.1,0 -0.1,0 -0.1,0 h -1 c -0.2,0 -0.4,0 -0.6,0 -0.2,0 -0.3,0 -0.5,0 -0.2,0 -0.3,0 -0.5,0 -0.2,0 -0.3,0 -0.5,-0.1 0,0 -0.1,0 -0.2,-0.1 -0.1,0 -0.2,0 -0.3,-0.1 -0.1,-0.1 -0.2,0 -0.3,-0.1 -0.1,0 -0.2,0 -0.2,0 h -0.9 l -0.6,-0.2 c -0.1,0 -0.2,-0.1 -0.4,-0.2 -0.2,-0.1 -0.3,-0.2 -0.5,-0.3 -0.2,-0.1 -0.4,-0.2 -0.5,-0.3 -0.2,-0.1 -0.3,-0.2 -0.4,-0.2 -0.1,0 -0.2,-0.1 -0.3,-0.1 -0.1,-0.1 -0.3,-0.1 -0.4,-0.2 -0.1,-0.1 -0.3,-0.1 -0.4,-0.2 C 200.1,60 200,60 200,60 c 0,0 0,0 -0.1,-0.1 0,0 -0.1,-0.1 -0.2,-0.1 -0.1,-0.1 -0.1,-0.1 -0.2,-0.2 -0.1,-0.1 -0.1,-0.1 -0.1,-0.1 -0.3,-0.3 -0.5,-0.6 -0.8,-0.9 -0.3,-0.3 -0.5,-0.7 -0.8,-1 -0.2,-0.3 -0.4,-0.6 -0.6,-1.1 -0.2,-0.5 -0.3,-0.9 -0.4,-1.5 -0.1,-0.5 -0.2,-1 -0.2,-1.5 0,-0.5 -0.1,-0.9 -0.1,-1.3 0,-0.5 0,-0.9 0,-1.3 0,-0.4 0,-0.8 0.1,-1.1 0,-0.4 0.1,-0.8 0.2,-1.1 0.1,-0.4 0.2,-0.8 0.3,-1.2 0,-0.1 0.1,-0.2 0.1,-0.4 0.1,-0.2 0.1,-0.4 0.2,-0.7 0.1,-0.2 0.1,-0.4 0.2,-0.5 0.1,-0.1 0.1,-0.1 0.1,0 0.2,-0.5 0.4,-1 0.7,-1.4 0.3,-0.4 0.6,-0.9 1,-1.2 0.4,-0.3 0.8,-0.7 1.2,-1.1 0.4,-0.4 0.9,-0.6 1.3,-0.9 0,0 0.1,-0.1 0.3,-0.2 0.2,-0.1 0.3,-0.2 0.5,-0.3 0.2,-0.1 0.4,-0.2 0.5,-0.3 0.2,-0.1 0.3,-0.1 0.4,-0.2 0,0 0,0 0.1,0 0.1,0 0.1,0 0.2,-0.1 0.1,-0.1 0.2,0 0.3,-0.1 0.1,0 0.2,0 0.2,0 0.1,0 0.2,0 0.3,-0.1 0.1,0 0.2,0 0.2,0 h 3.3 c 0.4,0.1 0.8,0.2 1.1,0.3 0.4,0.1 0.7,0.2 1.1,0.4 0.3,0.1 0.7,0.3 1,0.5 0.3,0.2 0.6,0.5 0.9,0.8 h 0.1 c 0,0 0,-0.1 0,-0.1 0,0 0,-0.1 0,-0.2 0,-0.1 0,-0.1 0,-0.2 0,-0.1 0,-0.1 0,-0.1 0,0 0,-0.1 0,-0.1 0,-0.1 0,-0.1 0,-0.2 0,-0.1 0,-0.1 0.1,-0.2 0.1,-0.1 0,-0.1 0,-0.1 -0.1,-0.1 -0.1,-0.2 0,-0.2 0.1,0 0.1,-0.2 0.2,-0.2 0.1,-0.1 0.2,-0.1 0.3,-0.1 0.1,0 0.2,0 0.3,0 0.6,0 1.1,0 1.5,0 0.4,0 0.8,0 1.2,0 0.4,0 0.8,0 1.3,0.1 0.5,0.1 0.9,0.1 1.5,0.2 0,0 0.1,0.1 0.2,0.1 0.1,0 0.1,0.1 0.1,0.1 0,0.1 0,0.2 0,0.4 0,0.1 0,0.3 0,0.5 0,0.2 0,0.3 0,0.5 0,0.2 0,0.3 0,0.4 0,0 0,0.1 0,0.2 0,0.1 0,0.2 0,0.4 0,0.1 0,0.3 0,0.4 0,0.1 0,0.2 0,0.2 0,0 0,0.1 0,0.2 0,0.1 -0.1,0.2 -0.1,0.2 0,0 0,0.1 0,0.2 0,0.1 0,0.2 0,0.3 0,0.1 0,0.2 0,0.3 0,0.1 0,0.2 0,0.2 0,0 0,0.1 0,0.2 0,0.1 0,0.1 -0.1,0.2 v 4 0.3 c 0,0.1 0,0.3 0,0.7 0,0.4 0,1 0,1.6 0,0.6 0,1.3 0,2.1 0,0.8 0,1.5 0,2.3 0,0.8 0,1.5 0,2.2 0,0.7 0,1.3 0,1.7 0,0 0,0.1 0,0.3 0,0.1 0,0.3 -0.1,0.5 -0.1,0.2 0,0.3 -0.1,0.5 0,0.1 0,0.2 0,0.3 V 62 62.1 c 0,0 -0.1,0.1 -0.2,0.1 -0.1,0 -0.2,0.1 -0.2,0.1 -0.3,0 -0.6,0 -0.8,0 -0.2,0 -0.4,0 -0.6,0.1 -0.2,0 -0.4,0.1 -0.6,0.1 -0.2,0 -0.5,0 -0.8,0 H 215 c -0.1,0 -0.2,0 -0.4,0 -0.2,0 -0.4,0 -0.6,0 -0.2,0 -0.4,0 -0.6,0 -0.1,-0.1 -0.3,-0.1 -0.3,-0.1 z m -10,-11 c 0,0.6 0.1,1.1 0.3,1.6 0.2,0.5 0.5,1 0.8,1.5 0,0 0.1,0.1 0.1,0.2 0,0.1 0.1,0.1 0.1,0.1 0.3,0.3 0.5,0.6 0.8,0.8 0.3,0.2 0.6,0.5 0.9,0.7 0.3,0.2 0.7,0.4 1,0.5 0.3,0.1 0.8,0.2 1.2,0.2 0.4,0 0.7,-0.1 1.1,-0.2 0.4,-0.1 0.7,-0.3 1,-0.4 0,0 0.1,-0.1 0.2,-0.1 0.1,0 0.2,-0.1 0.3,-0.1 0.1,0 0.2,-0.1 0.2,-0.1 0.1,0 0.1,-0.1 0.1,-0.1 0.4,-0.3 0.8,-0.7 1,-1.1 0.2,-0.4 0.5,-0.9 0.6,-1.4 0.2,-0.5 0.3,-1 0.3,-1.5 0,-0.5 0.1,-1 0.1,-1.5 0,-0.1 0,-0.2 0,-0.3 0,-0.1 0,-0.3 0,-0.4 0,-0.1 0,-0.3 0,-0.4 0,-0.1 0,-0.2 0,-0.3 L 213,48.8 c 0,-0.1 -0.1,-0.2 -0.1,-0.3 0,-0.1 -0.1,-0.1 -0.1,-0.2 -0.2,-0.4 -0.5,-0.8 -0.7,-1.2 -0.2,-0.4 -0.5,-0.7 -0.9,-0.9 -0.1,-0.1 -0.2,-0.1 -0.3,-0.2 -0.1,-0.1 -0.2,-0.2 -0.4,-0.3 -0.2,-0.1 -0.3,-0.2 -0.4,-0.2 -0.1,-0.1 -0.2,-0.1 -0.3,-0.1 0,0 -0.1,0 -0.2,-0.1 -0.1,0 -0.2,-0.1 -0.4,-0.1 -0.1,0 -0.3,-0.1 -0.4,-0.1 -0.1,0 -0.2,0 -0.2,0 -0.1,-0.1 -0.2,-0.2 -0.3,-0.2 -0.1,0 -0.3,0 -0.4,0 -0.2,0 -0.3,0 -0.5,0.1 -0.2,0 -0.3,0.1 -0.4,0.1 -0.2,0 -0.3,0 -0.5,0.1 -0.2,0.1 -0.4,0.1 -0.5,0.2 -0.2,0.1 -0.3,0.2 -0.5,0.3 -0.2,0.1 -0.3,0.3 -0.4,0.4 0,0 -0.1,0.1 -0.1,0.2 -0.1,0.1 -0.2,0.2 -0.2,0.3 -0.1,0.1 -0.2,0.2 -0.2,0.3 -0.1,0.1 -0.1,0.1 -0.1,0.2 -0.4,0.5 -0.7,1 -0.9,1.7 -0.1,0.4 -0.2,0.9 -0.2,1.4 0,0.5 -0.3,0.7 -0.3,1.2 z"
   id="path116"
   inkscape:connector-curvature="0"
   style="fill:#ffffff" />
	</g>
	<g
   class="st4"
   id="g122"
   style="enable-background:new">
		<path
   class="st6"
   d="m 223.9,60 -1,-0.1 c -0.1,0 -0.1,0 -0.2,0 0,0 0,-0.1 0,-0.1 0,-0.1 0,-0.2 0,-0.3 0,-0.1 0,-0.2 0,-0.3 0,-0.1 0,-0.2 -0.1,-0.3 0,-0.1 -0.1,-0.2 -0.1,-0.3 0,-0.1 0,-0.1 0,-0.2 0,-0.1 0,-0.1 0.1,-0.2 0,-0.2 0,-0.5 0,-1.1 0,-0.5 0,-1.2 0,-2 0,-0.8 0,-1.6 -0.1,-2.6 0,-0.9 -0.1,-1.8 -0.1,-2.8 0,-0.9 -0.1,-1.8 -0.1,-2.6 0,-0.8 0,-1.5 0,-2.1 0,-0.1 0,-0.3 0,-0.4 0,-0.2 0,-0.4 -0.1,-0.6 -0.1,-0.2 -0.1,-0.4 -0.1,-0.6 0,-0.2 0,-0.3 0,-0.5 0,0 0,-0.1 0,-0.2 0,-0.1 0,-0.1 0,-0.2 -0.1,0 -0.1,0 -0.1,-0.1 0,-0.1 0,-0.1 0,-0.2 v -0.1 l 0.1,-0.2 c 0,-0.3 0,-0.5 0,-0.7 0,-0.2 0,-0.5 -0.1,-0.7 0,0 0,-0.1 0,-0.2 0,-0.1 0,-0.1 0,-0.2 0,-0.1 0,-0.2 0,-0.3 0,0 0,-0.1 -0.1,-0.2 0,-0.1 -0.1,-0.1 -0.1,-0.2 0,-0.1 0,-0.1 0,-0.1 0,-0.1 0,-0.1 0,-0.1 0,0 0,-0.1 0,-0.1 0,-0.1 0,-0.1 0,-0.2 0,-0.1 0,-0.2 0,-0.2 0,0 0,-0.1 0,-0.1 v 0 c 0,0 0,0 0,-0.1 0.4,0 0.8,-0.1 1.1,-0.2 0.4,-0.1 0.7,-0.1 1.1,-0.1 0.5,0 0.9,0 1.3,0 0.4,0 0.9,0.1 1.3,0.2 0.1,0 0.1,0 0.2,0 0.1,0 0.2,0 0.3,0 0.1,0 0.2,0.1 0.3,0.1 0.1,0.1 0.1,0.1 0.2,0.3 0,0.2 0,0.3 0,0.5 0,0.1 0,0.3 0,0.5 v 0.1 c 0,0 0,0 0,0 0,0 0,0 0,0 0.1,0 0.2,-0.1 0.3,-0.1 0.1,0 0.3,-0.1 0.4,-0.2 0.1,-0.1 0.3,-0.1 0.4,-0.2 0.1,-0.1 0.2,-0.1 0.3,-0.1 0,0 0.1,0 0.2,-0.1 0.1,-0.1 0.2,-0.1 0.2,-0.1 0,0 0.1,0 0.2,0 0.1,0 0.2,-0.1 0.2,-0.1 0.1,-0.1 0.2,-0.1 0.4,-0.2 0.2,-0.1 0.3,-0.1 0.5,-0.2 0.2,-0.1 0.3,-0.1 0.4,-0.2 0.1,0 0.2,-0.1 0.2,-0.1 0.3,-0.1 0.6,-0.2 0.9,-0.2 0.3,0 0.6,0 0.9,-0.1 0.5,0 1,0 1.5,0.1 0.5,0.1 1,0.3 1.5,0.5 0.5,0.2 0.9,0.4 1.3,0.7 0.4,0.3 0.7,0.5 1,0.7 0.1,0.1 0.2,0.2 0.3,0.3 0.1,0.1 0.2,0.3 0.3,0.4 0.1,0.1 0.2,0.3 0.2,0.4 0.1,0.1 0.1,0.3 0.1,0.4 0,0.1 0,0.2 -0.1,0.3 -0.1,0.1 -0.1,0.2 -0.2,0.3 -0.1,0.1 -0.2,0.2 -0.3,0.3 -0.1,0.1 -0.2,0.1 -0.2,0.2 0,0 0,0 -0.1,0.1 0,0 -0.1,0.1 -0.1,0.1 -0.1,0 -0.1,0.1 -0.2,0.1 -0.1,0 -0.1,0.1 -0.1,0.1 0,0 -0.1,0.1 -0.2,0.1 -0.1,0 -0.2,0.1 -0.3,0.2 -0.1,0.1 -0.2,0.1 -0.2,0.2 -0.1,0.1 -0.1,0.1 -0.1,0.1 -0.2,0.1 -0.4,0.3 -0.5,0.5 -0.2,0.2 -0.4,0.3 -0.6,0.5 -0.2,0.1 -0.4,0.3 -0.6,0.4 -0.2,0.1 -0.5,0.2 -0.7,0.2 h -0.3 c 0,0 -0.1,0 -0.1,0 0,0 -0.1,0 -0.1,-0.1 -0.5,-0.2 -0.9,-0.5 -1.5,-0.7 -0.6,-0.2 -1,-0.3 -1.5,-0.3 -0.4,0 -0.7,0.2 -0.9,0.4 -0.2,0.3 -0.5,0.5 -0.7,0.8 0,0 -0.1,0.1 -0.2,0.2 -0.1,0.1 -0.2,0.2 -0.2,0.3 0,0 -0.1,0.1 -0.1,0.2 -0.1,0.1 -0.1,0.2 -0.2,0.3 -0.1,0.1 -0.1,0.2 -0.2,0.4 -0.1,0.1 -0.1,0.2 -0.1,0.3 -0.1,0.3 -0.2,0.5 -0.2,0.9 0,0.3 0,0.6 -0.1,0.9 -0.2,1.1 -0.2,2.2 -0.2,3.1 0,0.9 0.1,1.8 0.2,2.6 0.1,0.6 0.1,1.2 0.2,1.8 0.1,0.6 0.1,1.2 0.2,1.8 0,0.1 0,0.2 0,0.4 0,0.2 0,0.4 0,0.5 0,0.2 0,0.4 0,0.5 0,0.2 0,0.3 0,0.4 0,0 0,0 -0.1,0 0,0 0,0 -0.1,0 h -0.1 -0.1 v 0 c 0,0 -0.1,0 -0.1,0 0,0 -0.1,0 -0.1,-0.1 z"
   id="path120"
   inkscape:connector-curvature="0"
   style="fill:#ffffff" />
	</g>
</g>
</svg>