<svg xmlns="http://www.w3.org/2000/svg" xmlns:xlink="http://www.w3.org/1999/xlink" viewBox="0 0 69 68" xmlns:v="https://vecta.io/nano"><g stroke="#fff" stroke-width="6.498" stroke-linejoin="round" stroke-miterlimit="10"><use xlink:href="#B" fill="#f7c402" stroke-linecap="round"/><path d="M41 7.9l14.9 6.6c-.1-.5-.1-1.1-.2-1.6C50.3 18.9 44 24 37 28c-.7.4-.7 1.4 0 1.8l14.4 7.7c.1-.6.2-1.3.2-1.9-14.4 4.2-27.4 12.2-37.7 23.2.5.1 1.1.1 1.6.2-.9-1.4 3-5.1 3.8-6.1l4.6-5.7 8.9-11c.4-.5.4-1.3-.2-1.6-5.5-3-11.2-5.6-17.1-7.9.2.6.3 1.2.5 1.7 7.8-6.9 15.8-13.5 23.9-20 1-.8-.4-2.3-1.5-1.5a766.14 766.14 0 0 0-23.9 20c-.6.6-.2 1.5.5 1.7 5.7 2.2 11.2 4.8 16.6 7.7-.1-.5-.1-1.1-.2-1.6L20 48.9c-1.8 2.2-3.7 4.4-5.4 6.7-1 1.3-1.8 2.9-.8 4.5.3.5 1.2.7 1.6.2 10-10.7 22.7-18.5 36.8-22.6.8-.2 1.1-1.5.2-1.9L38 28.1v1.8c7.2-4.1 13.6-9.3 19.1-15.4.4-.4.4-1.3-.2-1.6L42 6.3c-1.2-.7-2.3 1.1-1 1.6h0z"/></g><use xlink:href="#B" fill="#f7c402"/><path d="M41 7.9l14.9 6.6c-.1-.5-.1-1.1-.2-1.6C50.3 18.9 44 24 37 28c-.7.4-.7 1.4 0 1.8l14.4 7.7c.1-.6.2-1.3.2-1.9-14.4 4.2-27.5 12.2-37.7 23.2.5.1 1.1.1 1.6.2-.7-1 .9-2.5 1.5-3.2.7-.9 1.4-1.8 2.2-2.7l4.5-5.6 9.1-11.4c.4-.5.4-1.3-.2-1.6-5.5-3-11.2-5.6-17.1-7.9.2.6.3 1.2.5 1.7 7.8-6.9 15.8-13.5 23.9-20 1-.8-.4-2.3-1.5-1.5a766.14 766.14 0 0 0-23.9 20c-.6.6-.2 1.5.5 1.7 5.7 2.2 11.2 4.8 16.6 7.7-.1-.5-.1-1.1-.2-1.6L20.7 47.9l-5.3 6.5c-1.2 1.5-3 3.6-1.7 5.5.4.5 1.1.7 1.6.2 10-10.7 22.7-18.5 36.8-22.6.8-.2 1.1-1.5.2-1.9l-14.4-7.7v1.8c7.2-4.1 13.6-9.3 19.1-15.4.4-.4.4-1.3-.2-1.6L41.9 6.1c-1.1-.5-2.2 1.3-.9 1.8h0z"/><defs ><path id="B" d="M41.5 7l14.9 6.6c-5.4 6-11.9 11.2-19 15.2l14.4 7.7c-14.2 4.1-27.2 12.1-37.2 22.9-.8-.9-.1-2.3.7-3.3L32 35.3c-5.4-3-11.1-5.6-16.8-7.8a766.14 766.14 0 0 1 23.9-20"/></defs></svg>