<?xml version="1.0" encoding="utf-8"?>
<!-- Generator: Adobe Illustrator 24.2.0, SVG Export Plug-In . SVG Version: 6.00 Build 0)  -->
<svg version="1.1" id="Layer_1" xmlns="http://www.w3.org/2000/svg" xmlns:xlink="http://www.w3.org/1999/xlink" x="0px" y="0px"
	 viewBox="0 0 431 190" style="enable-background:new 0 0 431 190;" xml:space="preserve">
<style type="text/css">
	.st0{fill:#F7BFC2;}
	.st1{fill:#FFFFFF;}
	.st2{clip-path:url(#SVGID_2_);}
	.st3{fill:#376CB2;}
	.st4{fill:#1D1E1C;}
	.st5{fill:#04A4AE;}
	.st6{fill:#E1262F;}
	.st7{fill:#F7C402;}
	.st8{fill:#7DC4CA;}
	.st9{fill:#FFDA83;}
	.st10{fill:#C2E1E3;}
</style>
<g>
	<g>
		<path class="st0" d="M406.6,181.5H24.4c-9.6,0-17.4-7.8-17.4-17.4V25.9c0-9.6,7.8-17.4,17.4-17.4h382.2c9.6,0,17.4,7.8,17.4,17.4
			v138.2C424,173.7,416.2,181.5,406.6,181.5z"/>
		<g>
			<path d="M406.6,180c-6.8,0-13.5,0-20.3,0c-17.4,0-34.8,0-52.2,0c-23.9,0-47.8,0-71.8,0c-26.4,0-52.9,0-79.3,0
				c-24.7,0-49.5,0-74.2,0c-18.9,0-37.8,0-56.7,0c-9,0-18,0-27,0c-9.3,0-16.6-6.9-16.7-16.4c0-5.9,0-11.8,0-17.6c0-24.5,0-49,0-73.5
				c0-15.5-0.2-31.1,0-46.6c0.1-8.8,7.1-15.8,15.9-15.9c0.5,0,1,0,1.5,0c3.5,0,6.9,0,10.4,0c15.3,0,30.5,0,45.8,0
				c22.7,0,45.4,0,68.2,0c26.1,0,52.3,0,78.4,0c25.5,0,50.9,0,76.4,0c20.8,0,41.6,0,62.4,0c11.8,0,23.5,0,35.3,0
				c4.1,0,8-0.1,11.8,2.1c5.2,3,8,8.4,8,14.3c0,2,0,4.1,0,6.1c0,21.9,0,43.9,0,65.8c0,20.7,0,41.4,0,62c0,1.2,0,2.5,0,3.7
				C422.4,172.9,415.4,179.9,406.6,180c-1.9,0-1.9,3,0,3c9-0.1,17.1-6.6,18.6-15.6c0.3-2,0.3-4,0.3-6.1c0-7.8,0-15.7,0-23.5
				c0-25.5,0-51,0-76.5c0-9.4,0-18.8,0-28.2c0-2.2,0-4.4,0-6.6c0-5.3-1.8-10.4-5.7-14.2C415.3,8,409.7,7,403.7,7
				c-4.2,0-8.4,0-12.7,0c-16.5,0-33,0-49.5,0c-23.7,0-47.4,0-71.1,0c-26.7,0-53.4,0-80.1,0c-25.3,0-50.5,0-75.8,0
				C94.8,7,75,7,55.3,7c-9.9,0-19.7,0-29.6,0c-0.8,0-1.6,0-2.4,0C14.4,7.6,7,14.4,5.7,23.2C5,28.1,5.5,33.4,5.5,38.3c0,24,0,48,0,72
				c0,17.7-0.1,35.5,0,53.2c0,10.8,8.3,19.4,19.2,19.5c2.6,0,5.3,0,7.9,0c14.2,0,28.3,0,42.5,0c22.3,0,44.6,0,66.9,0
				c26.4,0,52.8,0,79.2,0c26,0,51.9,0,77.9,0c21.5,0,43.1,0,64.6,0c12.7,0,25.3,0,38,0c1.7,0,3.3,0,5,0
				C408.5,183,408.5,180,406.6,180z"/>
		</g>
	</g>
	<g>
		<path class="st1" d="M151.2,164.6c6.6-7.9,13.5-15.6,20.6-23c-5.5-2.8-11.3-5-17.2-6.8c6.1-6.8,12.2-13.6,18.3-20.4
			c-7.1,1.5-13.8,4.6-20.4,7.7c-7.8,3.6-15.6,7.2-23.4,10.8c4.1,4.7,9,8.9,14.3,12.2c-5.3,3.1-10.5,6.2-15.8,9.4
			c7.2,5,15.4,8.5,24,10.4"/>
		<g>
			<path d="M152.3,165.6c6.6-7.9,13.5-15.6,20.6-23c0.6-0.7,0.6-1.9-0.3-2.4c-5.7-2.8-11.5-5.1-17.6-7c0.2,0.8,0.4,1.7,0.7,2.5
				c6.1-6.8,12.2-13.6,18.3-20.4c1-1.1,0-2.8-1.5-2.5c-7.6,1.7-14.7,5-21.7,8.3c-7.5,3.5-15,6.9-22.5,10.4c-0.9,0.4-0.9,1.7-0.3,2.4
				c4.2,4.8,9.2,9,14.6,12.5c0-0.9,0-1.7,0-2.6c-5.3,3.1-10.5,6.2-15.8,9.4c-1,0.6-0.9,2,0,2.6c7.4,5,15.7,8.6,24.4,10.6
				c1.9,0.4,2.7-2.5,0.8-2.9c-8.5-1.9-16.5-5.4-23.7-10.3c0,0.9,0,1.7,0,2.6c5.3-3.1,10.5-6.2,15.8-9.4c1-0.6,0.9-2,0-2.6
				c-5.2-3.3-9.9-7.4-14-12c-0.1,0.8-0.2,1.6-0.3,2.4c7.3-3.4,14.7-6.8,22-10.2c6.9-3.2,13.9-6.5,21.4-8.2c-0.5-0.8-1-1.7-1.5-2.5
				c-6.1,6.8-12.2,13.6-18.3,20.4c-0.8,0.8-0.5,2.2,0.7,2.5c5.8,1.8,11.4,4,16.9,6.7c-0.1-0.8-0.2-1.6-0.3-2.4
				c-7.1,7.4-14,15.1-20.6,23C149,165,151.1,167.1,152.3,165.6L152.3,165.6z"/>
		</g>
	</g>
	<g>
		<path class="st1" d="M249.8,20.8c-4.9,7.9-10,15.7-15.4,23.2c5.3,1.8,10.8,3.1,16.3,3.9c-4.6,6.9-9.2,13.7-13.7,20.6
			c6.2-2.3,11.8-5.9,17.3-9.5c6.5-4.2,13-8.5,19.5-12.7c-4.3-3.7-9.2-6.8-14.4-9.1c4.3-3.5,8.6-6.9,12.9-10.4
			c-7.1-3.5-14.9-5.6-22.8-6.2"/>
		<g>
			<path d="M248.5,20c-4.9,7.9-10,15.7-15.4,23.2c-0.6,0.8,0.1,1.9,0.9,2.2c5.3,1.7,10.8,3,16.3,3.9c-0.3-0.7-0.6-1.5-0.9-2.2
				c-4.6,6.9-9.2,13.7-13.7,20.6c-0.7,1,0.5,2.7,1.7,2.2c6.6-2.5,12.4-6.3,18.3-10.1c6.3-4.1,12.6-8.2,18.9-12.3
				c0.7-0.5,1.1-1.7,0.3-2.4c-4.4-3.8-9.3-6.9-14.7-9.3c0.1,0.8,0.2,1.6,0.3,2.4c4.3-3.5,8.6-6.9,12.9-10.4c0.7-0.6,0.5-2-0.3-2.4
				c-7.4-3.6-15.4-5.8-23.6-6.4c-1.9-0.1-1.9,2.9,0,3c7.7,0.6,15.2,2.6,22.1,6c-0.1-0.8-0.2-1.6-0.3-2.4c-4.3,3.5-8.6,6.9-12.9,10.4
				c-0.7,0.6-0.5,2,0.3,2.4c5.1,2.3,9.8,5.3,14,8.9c0.1-0.8,0.2-1.6,0.3-2.4c-6.1,4-12.3,8-18.4,12c-5.7,3.7-11.5,7.6-18,10.1
				c0.6,0.7,1.1,1.5,1.7,2.2c4.6-6.9,9.2-13.7,13.7-20.6c0.5-0.7,0-2.1-0.9-2.2c-5.5-0.8-11-2.1-16.3-3.9c0.3,0.7,0.6,1.5,0.9,2.2
				c5.4-7.6,10.6-15.3,15.4-23.2C252.1,19.9,249.6,18.4,248.5,20L248.5,20z"/>
		</g>
	</g>
	<g>
		<defs>
			<path id="SVGID_1_" d="M406.6,181.5H24.4c-9.6,0-17.4-7.8-17.4-17.4V25.9c0-9.6,7.8-17.4,17.4-17.4h382.2
				c9.6,0,17.4,7.8,17.4,17.4v138.2C424,173.7,416.2,181.5,406.6,181.5z"/>
		</defs>
		<clipPath id="SVGID_2_">
			<use xlink:href="#SVGID_1_"  style="overflow:visible;"/>
		</clipPath>
		<g class="st2">
			<g>
				<path class="st3" d="M349.9,77.2c5.8-3.4,12.3-5.6,18.9-5.5c6.7,0.1,13.5,2.6,18.6,7.6c7.2,7.2,9.9,18.4,10.6,28.9
					c0.7,10.5-13.3,56.5,62.1,43.9l1.4,13.1c-86.7,15.9-78.9-37-77.7-46.6c1.3-9.6,1-20.6-5.4-27.7c-6.6-7.4-14.2-6.5-22.5-2.6"/>
				<g>
					<path class="st4" d="M350.6,78.5c8.5-4.9,18.8-7.2,28.1-3.2c8.7,3.7,13.6,11.9,15.9,20.7c1.3,4.8,2.2,10,1.9,15
						c-0.1,2.4-0.4,4.8-0.5,7.2c-0.3,6.1,0,12.5,2.3,18.3c2.9,7.4,8.7,12.6,15.9,15.6c5.1,2.1,10.6,3,16,3.5
						c7.7,0.6,15.5,0.1,23.2-1c2.3-0.3,4.7-0.7,7-1c-0.6-0.5-1.3-1-1.9-1.4c0.5,4.4,0.9,8.7,1.4,13.1c0.4-0.5,0.7-1,1.1-1.4
						c-15.4,2.8-32,4.6-47.4,0.9c-4.8-1.2-9.5-2.9-13.7-5.6c-3.2-2-6.4-4.9-8.5-7.8c-1.1-1.5-2-3-2.8-4.6c-0.8-1.6-1.3-2.7-1.9-4.5
						c-0.5-1.5-0.9-3.1-1.2-4.7c-0.4-1.8-0.5-2.7-0.6-4.3c-0.4-4.6-0.2-9.3,0.4-13.9c0,0,0,0.3,0-0.1c0.1-0.8,0.2-1.6,0.3-2.5
						c0.3-2.3,0.4-4.6,0.4-6.9c0-4.7-0.7-9.4-2.5-13.8c-1.8-4.3-5-8.2-9.1-10.4c-3.9-2.1-8.3-2.2-12.6-1.1c-2.3,0.6-4.4,1.5-6.5,2.5
						c-1.7,0.8-0.2,3.4,1.5,2.6c3.9-1.8,8.5-3.4,12.9-2.5c4.5,1,8.1,4.5,10.3,8.5c3.8,7.1,3.4,15.9,2.4,23.6
						c-0.6,4.5-0.9,9.1-0.5,13.6c0.6,6.8,2.5,13.5,6.4,19.1c5.2,7.5,13.1,12.3,21.7,14.8c14.3,4.2,30,3.2,44.6,1.1
						c2.5-0.4,5-0.8,7.4-1.2c0.6-0.1,1.2-0.8,1.1-1.4c-0.5-4.4-0.9-8.7-1.4-13.1c-0.1-1-0.9-1.6-1.9-1.4c-8.3,1.4-16.6,2.3-25,2.1
						c-5.8-0.1-11.6-0.8-17.1-2.6c-3.9-1.3-7.6-3.3-10.5-6c-2.5-2.3-4.4-5-5.6-8.1c-0.5-1.3-1.1-3-1.4-4.5c-0.2-0.8-0.3-1.5-0.5-2.3
						c-0.2-1-0.2-1.2-0.3-2.1c-0.3-2.9-0.3-5.9-0.2-8.9c0.1-2.4,0.3-4.8,0.5-7.2c0.3-4.9-0.6-10-1.7-14.7c-2.1-8.8-6.5-17.2-14.4-22
						c-8.3-5-18.6-5.1-27.5-1.7c-2.3,0.9-4.6,2-6.8,3.3C347.4,76.9,348.9,79.5,350.6,78.5L350.6,78.5z"/>
				</g>
			</g>
			<g>
				<path class="st5" d="M337.7,67.8c1.7-0.9,3.5-1.7,5.4-2.4c0.6-0.3,1.3-0.5,2-0.5c0.9,0,1.4,0.7,1.7,1.3
					c1.2,2.1,2.9,9.1,3.5,11.4c2,8,6,8.5,8.1,17.3c0.3,1.5,0.5,4.3-0.3,5.9c-0.8,1.6-5,3.2-7,3.4"/>
				<g>
					<path class="st4" d="M338.4,69c1-0.5,2-1,3.1-1.4c0.8-0.4,2.4-1.3,3.3-1.2c0.9,0.1,1.4,2.3,1.6,3.1c0.9,2.8,1.6,5.7,2.3,8.5
						c0.8,3.3,2.4,6,4.3,8.8c1.9,2.8,3.6,5.9,4,9.3c0.2,1.5,0.4,3.7-1,4.7c-1.4,1-3.4,1.8-5.1,2c-1.9,0.2-1.9,3.2,0,3
						c3.5-0.3,8.2-2,8.9-5.9c0.8-4.2-0.8-8.8-2.9-12.4c-1.9-3.2-4.2-6-5.2-9.7c-0.9-3.4-1.7-6.9-2.9-10.2c-0.6-1.8-1.4-3.8-3.5-4.2
						c-1.4-0.2-2.7,0.5-4,1c-1.5,0.6-3,1.3-4.5,2C335.2,67.3,336.7,69.9,338.4,69L338.4,69z"/>
				</g>
			</g>
			<g>
				<path class="st3" d="M327.5,68c1.7-0.9,3.5-1.7,5.3-2.4c0.6-0.3,1.3-0.5,2-0.4c0.9,0.1,1.5,0.9,1.9,1.6c1.3,2.5,2.1,5.3,2.9,8
					c2.6,9.4,8.1,15.8,10.8,26.2c0.4,1.7,0.8,5,0,6.8c-0.7,1.8-4.9,3.4-7,3.5"/>
				<g>
					<path class="st4" d="M328.3,69.3c0.9-0.5,1.9-0.9,2.8-1.4c0.9-0.4,2.3-1.3,3.3-1.3c0.7,0,1.1,1.1,1.3,1.7
						c0.5,1,0.9,2.1,1.2,3.2c1.3,3.9,2.3,7.7,4,11.4c1.6,3.4,3.4,6.7,4.9,10.1c1.6,3.4,3.2,7.2,3.4,11c0.1,1.6,0.2,3.2-1.2,4.2
						c-1.3,0.9-3.1,1.5-4.7,1.6c-1.9,0.1-1.9,3.1,0,3c3.1-0.1,7.7-1.8,8.6-5.1c1.1-4.2-0.6-8.9-2.1-12.8c-1.7-4.3-3.9-8.3-5.9-12.4
						c-0.9-2-1.8-4-2.5-6.1c-0.8-2.4-1.3-4.9-2.3-7.3c-0.8-2.1-1.8-5.2-4.5-5.4c-1.4-0.1-2.7,0.6-4,1.1c-1.4,0.6-2.7,1.2-4.1,1.9
						C325.1,67.6,326.6,70.2,328.3,69.3L328.3,69.3z"/>
				</g>
			</g>
			<g>
				<g>
					<path class="st4" d="M276.5,112.2c0.7-0.1,1.4-0.1,2.1-0.2c0.5,0,1.1-0.1,1.6-0.1c-0.1,0-0.3,0-0.4-0.1c0.2,0,0.4,0.1,0.6,0.2
						c-0.1-0.1-0.2-0.1-0.4-0.2c0.1,0,0.1,0.1,0.2,0.1c0.2,0.1-0.3-0.3-0.1-0.1c0.1,0.1,0.1,0.1-0.1-0.1c0,0.1,0.1,0.1,0.1,0.2
						c-0.1-0.1-0.1-0.2-0.2-0.4c0,0,0,0,0,0.1c0.2,0.4,0.3,0.7,0.7,0.9c0.3,0.2,0.8,0.3,1.2,0.2c0.4-0.1,0.7-0.3,0.9-0.7
						c0.2-0.3,0.3-0.8,0.2-1.2c-0.3-0.7-0.6-1.2-1.3-1.6c-0.6-0.3-1.2-0.4-1.8-0.4c-0.5,0-1,0.1-1.5,0.1c-0.6,0.1-1.3,0.1-1.9,0.2
						c-0.4,0-0.8,0.1-1.1,0.4c-0.3,0.3-0.5,0.7-0.4,1.1C275,111.4,275.6,112.3,276.5,112.2L276.5,112.2z"/>
				</g>
			</g>
			<g>
				<path class="st5" d="M257.6,91.5c-14.2,11.1-32.6,24.6-48.6,34c-1.2,0.7-2.5,1.3-3.1,2.5c-0.7,1.3-0.5,3-0.3,4.6
					c0.7,6,1.9,12.1,4.8,17.3c-0.5-4.6,2-9.2,5.8-10.9s7-0.5,9.8,3c0.2-3.2,2.2-6.4,3.6-9.2c1.4-2.8,4.3-4.9,7.2-4.2
					c3,0.7,5.1,4,8.1,4.7c-0.7-6.8,4.9-13.3,11.1-12.9c4.4,0.3,8.8,3.3,12.9,1.6c2.9-1.2,5.7-0.1,9.1-4.6c2-2.6,1.9-2.6,2.7-5.9
					c-0.1,0.4,2.5,7.7,0,13.8c-2.8,7-5.3,8-9.4,9.5c-5.7,2.2-12.6,1.7-16.9-3.3c2.2,6-1.3,13.1-6.8,15.1c-5.4,2-9,0.2-13.2-4.4
					c0,4.7-1.1,8.1-4.8,10.3s-8.5,1.4-12.1-1.2c1.7,5.3,2.7,9.3,7.8,9.8c5,0.5,9.9-1.2,14.6-2.8c19.9-7,40.8-14.7,60.7-21.7
					c12.6-7.8,4.1-18.1,16.6-24.4c2.5-0.9,3.2,0.9,4,2.8c1.2,3,3.1,4.3,5.3,4.9c3,0.7,7.3-1.1,10.6-2.5c1.5-0.7,4.4-3.1,5.3-4.4
					c0.9-1.3,0.8-2.8,0.6-4.1c-1.6-12.4-8.7-22.9-13.6-34.1c-0.6-1.3-1.4-7-4.2-7.6c-3.7-0.9-7.9,0.6-11.5,2.8
					c-3.8,2.4-3.8,9.3-10.4,12c-3.5,1.5-11.5-1-13.8-2.6c-3-2-6.2-1.7-9.4-0.6c-3.6,1.2-8,3.2-11.2,5.3
					C263.7,87.7,262.7,88.1,257.6,91.5z"/>
				<g>
					<path class="st4" d="M256.6,90.4c-9.1,7.1-18.4,14-27.9,20.6c-4.8,3.3-9.6,6.5-14.6,9.6c-2.3,1.4-4.6,2.8-6.9,4.2
						c-2.6,1.6-3.4,3.9-3.2,6.9c0.6,6.5,1.9,13.2,5.1,18.9c0.7,1.3,2.9,0.7,2.8-0.8c-0.3-3.5,1-7.3,4.2-9.2c1.4-0.8,3.1-1.3,4.7-0.9
						c1.7,0.5,3,1.8,4.2,3.2c0.9,1.1,2.5,0.1,2.6-1.1c0.2-2.5,1.5-4.8,2.6-6.9c1-1.9,1.9-3.9,4-4.8c1.9-0.8,3.6,0.2,5,1.3
						c1.6,1.2,3.2,2.6,5.2,3.1c0.9,0.2,2-0.4,1.9-1.4c-0.3-3.3,0.9-6.5,3.2-8.8c2.5-2.5,5.6-3,9-2.1c3.6,0.9,7.1,2.4,10.8,1.1
						c1.2-0.4,2.5-0.6,3.7-0.9c1.4-0.3,2.8-1,3.9-1.9c1.4-1.2,2.7-2.8,3.6-4.3c0.8-1.3,1.1-2.8,1.4-4.3c-1-0.1-2-0.3-2.9-0.4
						c0,0.7,0.3,1.4,0.4,2c0.3,1.3,0.5,2.6,0.6,4c0.3,3.7-0.5,7.1-2.3,10.3c-1.2,2.1-2.6,3.6-4.8,4.7c-2.5,1.2-5.2,2-7.9,2.1
						c-3.7,0.1-7.2-1.3-9.7-4.1c-1-1.1-3,0.1-2.5,1.5c1.6,4.6-0.2,10.1-4.5,12.6c-2,1.2-4.5,1.7-6.8,1.1c-2.5-0.7-4.5-2.7-6.2-4.6
						c-0.9-1-2.6-0.2-2.6,1.1c0,3.3-0.6,6.8-3.6,8.7c-3.5,2.3-7.8,1.3-11.1-0.9c-1.1-0.7-2.6,0.5-2.2,1.7c1.1,3.6,2.2,8.2,6,10
						c2.3,1.1,5,1.1,7.5,0.8c3-0.3,5.8-1.1,8.6-2.1c11.5-3.9,22.9-8.1,34.4-12.3c5.8-2.1,11.6-4.2,17.4-6.2c2.8-1,5.7-2,8.5-3
						c1.3-0.5,2.6-0.8,3.8-1.6c1.1-0.7,2.1-1.6,3.1-2.5c2.8-2.8,4.2-6.4,5.1-10.2c0.8-3.5,1.7-6.9,4.7-9.3c0.8-0.7,2-1.6,3.1-1.9
						c0.9-0.2,1.2,0.6,1.5,1.3c0.9,2.1,1.8,4,3.8,5.3c4.1,2.7,9.1,0.9,13.2-0.9c3.6-1.5,8.3-4.7,8.2-9.1c-0.1-5.3-2.2-10.8-4.2-15.7
						c-2.1-5-4.6-9.8-7-14.7c-1-2-2.2-4-2.8-6.2c-0.5-1.6-0.9-3.2-1.6-4.7c-0.8-1.7-2.1-3-4-3.3c-2.6-0.4-5.3,0-7.8,1
						c-2,0.8-4.3,1.8-5.8,3.4c-1.1,1.2-1.9,2.7-2.6,4.2c-1.6,3-3.9,6.6-7.7,6.8c-3.5,0.2-7.6-0.9-10.6-2.7c-2.4-1.4-4.7-2.1-7.5-1.7
						c-2.6,0.4-5.1,1.4-7.5,2.4c-4.6,2-8.6,4.7-12.8,7.4c-1.9,1.2-3.8,2.4-5.7,3.7c-1.6,1.1-0.1,3.7,1.5,2.6
						c3.7-2.5,7.4-4.8,11.1-7.2c2.1-1.4,4.3-2.5,6.6-3.5c2.3-1,4.7-2.1,7.2-2.4c1.2-0.2,2.5-0.1,3.7,0.3c0.9,0.3,1.6,0.9,2.5,1.3
						c1.6,0.8,3.3,1.4,5,1.9c3.7,1,7.6,1.5,11-0.5c3.2-2,4.8-5.2,6.6-8.4c0.8-1.4,1.6-2.5,3-3.3c2.2-1.3,4.7-2.3,7.2-2.4
						c0.8,0,2-0.1,2.7,0.3c0.6,0.4,0.9,1.1,1.2,1.7c0.6,1.3,0.9,2.8,1.4,4.2c0.7,2.1,1.8,4.1,2.8,6.1c1.2,2.4,2.4,4.7,3.6,7.1
						c2.3,4.6,4.5,9.3,5.9,14.2c0.7,2.5,1.4,5.1,1.6,7.7c0.2,2.3-1.3,3.5-3,4.8c-1.7,1.3-3.6,2.1-5.6,2.9c-2,0.7-4.3,1.5-6.4,0.9
						c-2-0.5-3.2-1.9-4-3.7c-0.7-1.7-1.5-3.7-3.5-4.1c-2.2-0.5-4.5,1.3-6.2,2.6c-1.4,1.2-2.6,2.6-3.5,4.2c-1.6,3-1.9,6.4-2.9,9.6
						c-0.5,1.7-1.3,3.3-2.4,4.6c-0.6,0.8-1.4,1.5-2.2,2.2c-1.2,1-2.4,1.6-3.9,2.1c-5.4,1.9-10.8,3.8-16.1,5.7
						c-11,3.9-22,7.9-33,11.9c-5.4,1.9-10.8,4.2-16.3,5.5c-2.6,0.6-5.6,1.1-8.1,0.4c-1.6-0.4-2.6-1.5-3.4-2.9
						c-0.9-1.7-1.4-3.7-2-5.6c-0.7,0.6-1.5,1.1-2.2,1.7c4.1,2.8,9.7,3.7,14.1,0.9c3.9-2.5,5.1-6.9,5.1-11.3
						c-0.9,0.4-1.7,0.7-2.6,1.1c2.1,2.3,4.7,4.7,7.8,5.4c2.9,0.7,6.2,0,8.8-1.5c5.3-3.1,7.9-10.2,5.9-16c-0.8,0.5-1.7,1-2.5,1.5
						c5,5.7,12.9,5.9,19.6,3.2c2.6-1,4.7-2.4,6.4-4.6c2.3-3,3.7-6.9,4-10.7c0.1-2.1-0.1-4.2-0.4-6.2c-0.1-0.7-0.3-1.4-0.4-2.1
						c0-0.2-0.1-0.4-0.1-0.6c-0.1-0.3,0-0.4,0-0.1c0.1-1.7-2.6-2.1-2.9-0.4c-0.3,1.2-0.5,2.5-1.1,3.6c-0.9,1.4-1.9,2.8-3.3,3.8
						c-1.1,0.8-2.4,1.1-3.8,1.3c-1.4,0.3-2.7,0.9-4,1c-1.9,0.2-3.8-0.4-5.6-1c-1.9-0.5-3.8-1.1-5.7-1.1c-3.2-0.1-6.4,1.5-8.5,3.8
						c-2.7,2.8-4.1,6.7-3.8,10.6c0.6-0.5,1.3-1,1.9-1.4c-2.3-0.6-3.9-2.6-6-3.8c-2.2-1.3-4.7-1.4-6.9-0.2c-2.4,1.2-3.6,3.4-4.8,5.7
						c-1.4,2.7-2.7,5.4-3,8.5c0.9-0.4,1.7-0.7,2.6-1.1c-1.5-1.8-3.3-3.4-5.6-4c-2.2-0.6-4.6-0.1-6.6,1c-4.2,2.3-6.3,7.3-5.9,11.9
						c0.9-0.3,1.9-0.5,2.8-0.8c-2.7-5-3.8-10.7-4.5-16.4c-0.2-1.2-0.4-2.6,0-3.8c0.5-1.2,1.8-1.7,2.8-2.3c2.3-1.3,4.5-2.7,6.7-4.1
						c9.5-6,18.7-12.5,27.7-19.2c4.8-3.6,9.5-7.2,14.3-10.9C260.2,91.4,258.1,89.3,256.6,90.4z"/>
				</g>
			</g>
			<g>
				<g>
					<g>
						<path class="st4" d="M269.8,105.3c2.1-2.1,4.7-3.7,7.7-4.4c3.4-0.8,6.5,0.2,9,2.5c1.4,1.3,3.6-0.8,2.1-2.1
							c-3.2-2.9-7-4.2-11.2-3.4c-3.7,0.7-7.1,2.7-9.7,5.3C266.3,104.6,268.4,106.7,269.8,105.3L269.8,105.3z"/>
					</g>
				</g>
				<g>
					<g>
						<path class="st4" d="M269.4,103.4c0.6-0.9,1.1-1.7,1.9-2.5c0.4-0.4,0.8-0.8,1.2-1.2c0.2-0.2,0.4-0.3,0.6-0.5
							c0.2-0.2,0.3-0.2,0.5-0.4c0.8-0.6,1.7-1.1,2.6-1.5c0.1,0,0.2-0.1,0.3-0.1c-0.2,0.1,0.1-0.1,0.2-0.1c0.2-0.1,0.5-0.2,0.7-0.2
							c0,0,0.4-0.1,0.3-0.1c-0.1,0,0.3,0,0.3,0c-0.2,0,0,0,0.1,0c-0.1-0.1,0.2,0.1,0.3,0.2c0.7,0.5,1.7,0.1,2.1-0.5
							c0.4-0.7,0.1-1.6-0.5-2.1c-1.3-0.9-2.8-0.6-4.1-0.1c-1.1,0.5-2.2,1-3.3,1.8c-2.2,1.5-4,3.5-5.4,5.8c-0.4,0.7-0.1,1.7,0.5,2.1
							C268.1,104.3,269,104,269.4,103.4L269.4,103.4z"/>
					</g>
				</g>
				<g>
					<g>
						<path class="st4" d="M264.8,103.7c1.6,1.7,3.4,3.3,5.4,4.5c0.7,0.4,1.7,0.2,2.1-0.5c0.4-0.7,0.2-1.6-0.5-2.1
							c-0.5-0.3-0.9-0.6-1.3-0.9c-0.1-0.1-0.2-0.2-0.3-0.2c0,0-0.2-0.2,0,0c0.2,0.2,0,0-0.1-0.1c-0.2-0.2-0.4-0.3-0.6-0.5
							c-0.9-0.7-1.7-1.5-2.4-2.3c-0.5-0.6-1.6-0.6-2.1,0C264.2,102.2,264.2,103.1,264.8,103.7L264.8,103.7z"/>
					</g>
				</g>
				<g>
					<g>
						<path class="st4" d="M288.7,102.8c2.1-1.2,3.8-3,5.1-5c0.2-0.3,0.2-0.8,0.2-1.2c-0.1-0.3-0.4-0.7-0.7-0.9
							c-0.8-0.4-1.6-0.2-2.1,0.5c-0.2,0.3-0.4,0.6-0.6,0.8c0.1-0.1,0.2-0.2,0.2-0.3c-0.8,1-1.7,1.9-2.7,2.7c0.1-0.1,0.2-0.2,0.3-0.2
							c-0.4,0.3-0.8,0.6-1.3,0.9c-0.7,0.4-1,1.4-0.5,2.1C287.1,103,288,103.3,288.7,102.8L288.7,102.8z"/>
					</g>
				</g>
			</g>
			<g>
				<g>
					<path class="st4" d="M198.9,130.4c-0.3-2.3,0.1-4.7,1.1-6.7c0.5-1,1.1-1.9,1.9-2.7c0.7-0.7,1.7-1.3,2.5-1.7
						c0.8-0.3,1.3-1,1-1.8c-0.2-0.7-1.1-1.3-1.8-1c-5.8,2.3-8.6,8.8-7.7,14.8c0.1,0.8,1.1,1.2,1.8,1
						C198.7,132,199,131.2,198.9,130.4L198.9,130.4z"/>
				</g>
			</g>
			<g>
				<g>
					<path class="st4" d="M193.9,126.3c0,0.2,0-0.1,0-0.2c0-0.1,0-0.3,0-0.4c0-0.2,0-0.5,0-0.7c0-0.5,0.1-0.9,0.1-1.3
						c0.2-1,0.5-2.1,0.9-2.9c0.9-1.9,2.3-3.5,4-4.6c0.7-0.4,1-1.3,0.5-2.1c-0.4-0.7-1.4-1-2.1-0.5c-4.4,2.9-7.2,8.2-6.4,13.5
						c0.1,0.8,1.1,1.2,1.8,1C193.7,128,194,127.1,193.9,126.3L193.9,126.3z"/>
				</g>
			</g>
			<g>
				<g>
					<path class="st4" d="M276.3,74.2c3.7-2.2,8.1-2.4,12.1-0.9c0.8,0.3,1.6-0.3,1.8-1c0.2-0.8-0.3-1.6-1-1.8
						c-4.7-1.8-10.1-1.4-14.4,1.2C273.1,72.6,274.6,75.2,276.3,74.2L276.3,74.2z"/>
				</g>
			</g>
			<g>
				<g>
					<path class="st4" d="M278.8,65.4c0.4-0.1,0.7-0.2,1.1-0.2c-0.3,0.1,0.2,0,0.3,0c0.1,0,0.3,0,0.4,0c0.4,0,0.7,0,1.1,0
						c0.2,0,0.4,0,0.5,0.1c-0.3,0,0.1,0,0.2,0c0.7,0.1,1.3,0.3,2,0.6c0.1,0,0.1,0,0,0c0.1,0,0.2,0.1,0.3,0.1
						c0.2,0.1,0.3,0.2,0.5,0.3c0.3,0.2,0.7,0.4,1,0.6c0.7,0.4,1.7,0.1,2.1-0.5c0.4-0.8,0.2-1.6-0.5-2.1c-2.8-1.9-6.4-2.5-9.6-1.7
						c-0.8,0.2-1.3,1.1-1,1.8C277.2,65.1,278,65.6,278.8,65.4L278.8,65.4z"/>
				</g>
			</g>
			<g>
				<g>
					<path class="st4" d="M330.5,130.6c7.3,1.3,13.1-3.7,18.1-8.3c1.4-1.3-0.7-3.4-2.1-2.1c-4,3.8-9.1,8.6-15.2,7.6
						c-0.8-0.1-1.6,0.2-1.8,1C329.3,129.5,329.7,130.5,330.5,130.6L330.5,130.6z"/>
				</g>
			</g>
			<g>
				<g>
					<path class="st4" d="M340.6,135.9c3.9-0.7,7.3-3.4,9.1-6.9c0.4-0.7,0.2-1.7-0.5-2.1c-0.7-0.4-1.7-0.2-2.1,0.5
						c-0.2,0.4-0.4,0.8-0.7,1.2c-0.1,0.2-0.2,0.3-0.4,0.5c-0.2,0.2,0.1-0.1,0,0c-0.1,0.1-0.1,0.2-0.2,0.2c-0.3,0.3-0.6,0.7-0.9,1
						c-0.1,0.1-0.3,0.3-0.4,0.4c-0.1,0.1-0.2,0.2-0.3,0.2c-0.2,0.2,0.1-0.1,0,0c-0.7,0.5-1.4,0.9-2.2,1.3c-0.1,0.1-0.2,0.1,0,0
						c-0.1,0-0.2,0.1-0.3,0.1c-0.2,0.1-0.4,0.1-0.6,0.2c-0.4,0.1-0.8,0.2-1.3,0.3c-0.8,0.1-1.3,1.1-1,1.8
						C339.1,135.7,339.8,136,340.6,135.9L340.6,135.9z"/>
				</g>
			</g>
		</g>
		<g class="st2">
			<g>
				<path class="st6" d="M79.6,56.7c-1.8,0.1-3.6,0.2-5.4,0.4c-0.6,0.1-1.3,0.2-1.8,0.4c-0.7,0.4-0.9,1.1-0.9,1.7
					c-0.1,2,0.3,4,0.7,6c1.5,6.7,2.4,12.4,4.1,19.8c0.3,1.2,1.3,3.4,2.6,4.2c1.3,0.9,5.4,0.4,7.2-0.3"/>
				<g>
					<path d="M79.6,55.2c-2.1,0.1-4.1,0.2-6.2,0.5c-1.7,0.3-3.1,1.2-3.4,3c-0.5,3.8,1,7.9,1.7,11.6c0.8,3.7,1.4,7.5,2.2,11.2
						c0.7,3.1,1.2,6.9,4,8.9c2.2,1.6,6.2,0.9,8.6,0c1.8-0.7,1-3.6-0.8-2.9c-1.3,0.5-2.7,0.7-4,0.7c-1.4,0-2.2-0.1-3-1.4
						c-0.9-1.4-1.1-3-1.5-4.5c-0.5-2-0.9-4.1-1.3-6.1c-0.8-3.8-1.5-7.6-2.3-11.3c-0.2-1.1-0.5-2.2-0.6-3.3c-0.1-0.5-0.4-2.3,0.1-2.7
						c0.6-0.5,2.3-0.3,3-0.4c1.1-0.1,2.3-0.1,3.4-0.2C81.6,58.2,81.6,55.2,79.6,55.2L79.6,55.2z"/>
				</g>
			</g>
			<g>
				<path class="st7" d="M88.1,52.8c-1.8,0-3.6,0.1-5.4,0.3c-0.6,0.1-1.3,0.2-1.8,0.5c-0.7,0.5-0.9,1.3-0.9,1.9
					c-0.1,2.4,0.3,4.8,0.8,7.1c1.6,8,2.6,14.8,4.5,23.6c0.3,1.5,1.3,4,2.7,5.1s5.5,0.6,7.2-0.2"/>
				<g>
					<path d="M88.1,51.3c-2.2,0-4.8,0-6.9,0.6c-1.9,0.5-2.6,2.1-2.7,3.9c-0.1,4.4,1.2,8.9,2,13.2c0.7,4.1,1.4,8.1,2.2,12.2
						c0.7,3.6,1.1,7.9,3.7,10.7c2.3,2.5,6.8,1.7,9.6,0.5c1.8-0.8,0.2-3.4-1.5-2.6c-1.3,0.6-3.1,0.8-4.6,0.6
						c-1.5-0.2-2.1-1.6-2.6-2.8c-0.8-1.9-1-4-1.4-5.9c-0.4-2.2-0.9-4.4-1.3-6.7c-0.8-4.2-1.5-8.5-2.4-12.7c-0.3-1.3-0.5-2.6-0.7-3.9
						c-0.1-0.8-0.4-2.4-0.1-3.2c0.4-0.8,1.8-0.7,2.7-0.8c1.3-0.1,2.6-0.2,3.9-0.2C90.1,54.3,90.1,51.3,88.1,51.3L88.1,51.3z"/>
				</g>
			</g>
			<g>
				<g>
					<path class="st4" d="M147.4,51.2c-1,0.4-2.1,0.8-3.1,1.2c-1,0.5-2,1.5-1.9,2.7c0,0.4,0.1,0.8,0.4,1.1c0.3,0.3,0.7,0.5,1.1,0.4
						c0.4,0,0.8-0.1,1.1-0.4c0.3-0.3,0.5-0.7,0.4-1.1c0-0.1,0-0.1,0-0.2c0,0.1,0,0.3-0.1,0.4c0-0.1,0-0.2,0.1-0.3
						c-0.1,0.1-0.1,0.2-0.2,0.4c0-0.1,0.1-0.2,0.1-0.2c-0.1,0.1-0.2,0.2-0.2,0.3c0.1-0.1,0.2-0.2,0.3-0.3c-0.1,0.1-0.2,0.2-0.3,0.2
						c0.2-0.2,0.5-0.3,0.8-0.4c-0.1,0.1-0.2,0.1-0.4,0.2c0.9-0.4,1.7-0.7,2.6-1c0.4-0.1,0.7-0.3,0.9-0.7c0.2-0.3,0.3-0.8,0.2-1.2
						c-0.1-0.4-0.3-0.7-0.7-0.9C148.3,51.2,147.8,51.1,147.4,51.2L147.4,51.2z"/>
				</g>
			</g>
			<g>
				<path class="st6" d="M154.6,38.4c16.2,2.5,36.9,5.2,53.9,5.8c1.2,0,2.6,0,3.6,0.6c1.1,0.7,1.6,2,2.1,3.2c1.8,4.7,3.3,9.7,3,14.8
					c-1.4-3.6-5.3-6.1-9.2-5.8s-7.4,3.3-8.3,7c-1.5-2.3-3-4.7-5.2-6.2s-5.5-1.9-7.6-0.2c-2.2,1.7-2.6,5-4.8,6.7
					c-2.2-5.3-4.3-7.9-9.3-5.1c-3.5,1.9-6,6-10,6.4c-2.9,0.3-5.6-1.5-7.5-3.7c-1.9-2.2-3.3-4.8-5.2-6.9c0.9,5.6,1.9,11.2,4.4,16.3
					c2.5,5,6.9,9.5,12.4,10.6c5.5,1.2,6.9-1.8,8.4-7.2c0.5,5.3,6.3,9.2,11.6,8.5c5.3-0.7,9.6-5.1,11.2-10.3c1.8,3.5,5.6,5.8,9.6,5.9
					s7.8-2.1,9.8-5.4c0.7,4.6-2.3,9.1-6.3,11.5c-4,2.4-8.7,3.1-13.3,3.8c-19.3,2.8-38.6,5.9-57.8,8.7c-13.6-0.8-11.8-14.5-22.4-16
					c-2.4,0.3-2.3,2-2.2,3.7c0.2,2.7-0.8,4.4-2.5,5.7c-2.2,1.8-6.5,2.1-9.8,2.4c-1.5,0.1-4.9-0.6-6.2-1.1c-1.3-0.6-1.8-1.8-2.2-2.8
					c-3.6-9.8-5-20.3-5.3-30.6c0-1.2-1.6-5.7,0.4-7.3c2.7-2.1,6.8-2.8,10.7-2.5c4.1,0.3,6.8,5.4,13.4,4.8c3.5-0.3,8.1-9.3,9.5-11.4
					c1.7-2.7,4.5-3.7,7.6-4.2c3.5-0.5,7.9-0.8,11.4-0.5C148,37.9,149.1,37.9,154.6,38.4z"/>
				<g>
					<path d="M154.2,39.8c9.6,1.5,19.2,2.8,28.8,3.9c5,0.5,10,1,15,1.4c2.3,0.2,4.7,0.3,7,0.4c1.2,0.1,2.3,0.1,3.5,0.1
						c1.1,0,2.4-0.1,3.2,0.8c0.8,0.9,1.1,2.2,1.5,3.3c0.5,1.4,1,2.8,1.3,4.2c0.8,2.9,1.3,5.9,1.1,8.9c0.9-0.3,1.9-0.5,2.8-0.8
						c-1.8-4.1-6.3-7-10.8-6.5c-4.5,0.5-8.2,3.8-9.4,8.1c0.9-0.1,1.8-0.2,2.7-0.4c-2.5-4-5.7-8.4-11-8.3c-2.3,0.1-4.2,1.1-5.6,3
						c-1.3,1.7-1.8,3.9-3.5,5.3c0.8,0.2,1.7,0.4,2.5,0.7c-1.1-2.7-2.5-6.1-5.5-7.1c-3.2-1-6.5,1.2-8.8,3.1c-2.7,2.3-5.6,5.4-9.4,3.6
						c-4-1.8-5.9-6.4-8.7-9.6c-1.1-1.2-2.7,0.1-2.5,1.5c1.3,7.6,2.7,15.5,7.8,21.5c2.2,2.6,5,4.8,8.3,5.9c2.4,0.9,5.6,1.4,7.9-0.2
						c2.5-1.6,3.4-4.9,4.2-7.6c-1-0.1-2-0.3-2.9-0.4c0.7,6,6.5,10.4,12.5,10.1c6.4-0.4,11.4-5.6,13.4-11.4c-0.9,0.1-1.8,0.2-2.7,0.4
						c2.2,3.9,6.4,6.5,10.8,6.7c4.5,0.1,8.8-2.4,11.1-6.2c-0.9-0.1-1.8-0.2-2.7-0.4c0.6,4.5-2.9,8.4-6.6,10.4
						c-4.5,2.4-9.9,2.8-14.9,3.5c-11.3,1.7-22.5,3.4-33.8,5.1c-5.6,0.8-11.1,1.7-16.7,2.5c-2.3,0.3-4.5,0.8-6.8,0.2
						c-1.5-0.4-2.9-1-4.1-1.9c-4.3-3.2-5.9-8.9-10.5-11.9c-2.4-1.6-7.3-3.2-8.6,0.6c-0.6,1.7,0.2,3.5-0.4,5.2
						c-0.6,1.7-2.2,2.7-3.8,3.2c-3.7,1.1-8,1.5-11.7,0.2c-2-0.7-2.4-3.4-3-5.2c-0.8-2.5-1.5-5.1-2-7.7c-1.1-5.2-1.7-10.4-2-15.7
						c-0.1-2-0.1-3.9-0.5-5.8c-0.2-1.2-0.7-3.1,0.2-4.1c1.5-1.5,4.4-2,6.4-2.1c1.7-0.1,3.5-0.3,5.1,0.5c3.1,1.5,5.5,3.7,9,4.2
						c1.6,0.2,3.3,0.2,4.8-0.6c1.3-0.8,2.4-2,3.4-3.2c1.9-2.4,3.5-5.1,5-7.8c2.2-3.7,6.6-4.1,10.6-4.4c4.5-0.4,9,0.1,13.5,0.4
						c2,0.1,4,0.3,6,0.5c1.9,0.2,1.9-2.8,0-3c-4.3-0.4-8.7-0.7-13.1-1c-2.7-0.1-5.4,0-8,0.3c-2.3,0.2-4.6,0.5-6.7,1.4
						c-2,0.8-3.6,2.1-4.7,4c-0.7,1.1-1.3,2.3-2,3.4c-0.9,1.5-1.9,3-3,4.4c-0.8,1-1.8,2.4-3.1,2.7c-1.4,0.4-3.7-0.2-5.2-0.9
						c-1.5-0.7-2.9-1.8-4.4-2.6c-3.5-2-8.3-1.7-12-0.3c-1.9,0.7-4,1.7-4.8,3.7c-0.6,1.7-0.3,3.6,0,5.3c0.4,2,0.4,4.1,0.5,6.3
						c0.2,2.8,0.5,5.5,0.8,8.2c0.8,5.6,2,11.2,3.8,16.5c0.7,2,1.4,4.2,3.5,5.1c1.7,0.8,3.8,1.1,5.7,1.2c2.1,0.1,4.3-0.2,6.3-0.6
						c2.1-0.4,4.3-1.1,5.9-2.5c1.5-1.4,2.4-3.1,2.6-5.2c0.1-0.9-0.2-1.8-0.1-2.7c0.1-0.8,0.6-0.8,1.1-0.7c5.7,1.2,7.7,7.5,11.4,11.3
						c2.3,2.4,5.3,4,8.7,4.5c2.7,0.4,5.5-0.3,8.2-0.7c2.9-0.4,5.9-0.9,8.8-1.3c11.8-1.8,23.7-3.6,35.5-5.4c5.5-0.8,11.3-1.2,16.6-3
						c4.5-1.5,8.7-4.3,10.7-8.7c1-2.1,1.3-4.3,0.9-6.6c-0.2-1.4-2.1-1.3-2.7-0.4c-1.8,2.9-5.1,4.8-8.5,4.7c-3.5-0.1-6.6-2.2-8.3-5.2
						c-0.7-1.2-2.4-0.8-2.7,0.4c-1.5,4.5-5.3,8.7-10.1,9.2c-4.3,0.5-9.3-2.5-9.8-7c-0.2-1.6-2.4-2.1-2.9-0.4c-0.6,2-1.3,5.5-3.7,6.2
						c-3,0.9-6.9-1.3-9.1-3.2c-6.6-5.6-8.1-14.6-9.5-22.8c-0.8,0.5-1.7,1-2.5,1.5c2.8,3.2,4.6,7.2,8.2,9.5c3.3,2.1,7.1,1.9,10.3-0.4
						c2.6-1.9,5-5.1,8.4-5.6c2.7-0.4,4,3.2,4.8,5.1c0.5,1.1,1.6,1.4,2.5,0.7c1.4-1.1,2.2-2.7,3-4.3c0.8-1.5,1.8-2.9,3.6-3.1
						c4.2-0.4,6.8,3.8,8.7,6.8c0.7,1.1,2.4,0.9,2.7-0.4c0.8-3.1,3.6-5.7,6.8-5.9c3.5-0.3,6.6,1.9,7.9,5.1c0.6,1.5,2.7,0.6,2.8-0.8
						c0.3-5.4-1.3-10.9-3.3-15.9c-0.9-2.2-2.3-3.9-4.8-4.2c-2.4-0.3-5-0.2-7.4-0.4c-10.5-0.6-20.9-1.7-31.4-3.1
						c-5.6-0.7-11.2-1.5-16.8-2.4C153.1,36.6,152.3,39.5,154.2,39.8z"/>
				</g>
			</g>
			<g>
				<g>
					<g>
						<path class="st1" d="M137.7,56.6c3.5,0.4,5.4,5.6,4.8,8.8c-0.7,3.5-4.2,6.3-7.8,6.1s-6.8-3.3-7.2-6.9c-0.1-1.1,0-2.1,0.5-3.1
							c0.8-1.6,1.2-3.7,2.8-4.3C132.6,56.5,134.1,55.5,137.7,56.6"/>
						<g>
							<path class="st4" d="M137.7,58.1c0.3,0,0.7,0.2,1.1,0.5c0.3,0.2,0.7,0.7,1,1.1c0.7,1,1.1,2.2,1.2,3.3
								c0.2,1.2,0.1,2.2-0.5,3.4c-0.6,1.2-1.6,2.2-2.8,2.9c-2.5,1.3-5.3,0.6-7.2-1.4c-0.9-1-1.5-2.2-1.6-3.5c-0.1-1.5,0.6-3,1.3-4.3
								c0.3-0.6,0.6-1.2,1.2-1.5c0.3-0.2,1.1-0.4,1.5-0.6c1.5-0.5,2.8-0.4,4.4,0.1c1.9,0.5,2.7-2.4,0.8-2.9
								c-1.9-0.5-3.8-0.7-5.7-0.2c-1.6,0.5-3.2,1.1-4.2,2.5c-0.5,0.8-0.9,1.7-1.2,2.5c-0.4,1-0.9,1.9-1,3c-0.2,2,0.4,4.2,1.5,5.9
								c2.3,3.3,6.6,5,10.4,3.6c3.6-1.4,6.3-4.8,6.2-8.7c-0.2-3.8-2.3-8.1-6.4-8.6c-0.8-0.1-1.5,0.8-1.5,1.5
								C136.2,57.5,136.9,57.9,137.7,58.1L137.7,58.1z"/>
						</g>
					</g>
					<g>
						<g>
							<path class="st4" d="M139.4,63.5c-0.1,0.3-0.2,0.6-0.3,0.9c-0.2,0.4,0.1-0.2-0.1,0.2c-0.1,0.1-0.1,0.2-0.2,0.4
								c-0.1,0.3-0.3,0.6-0.5,0.8c-0.1,0.1-0.2,0.2-0.2,0.3c0.2-0.2-0.1,0.1-0.1,0.1c-0.2,0.2-0.4,0.5-0.6,0.7c0.1-0.1,0.1-0.1,0,0
								c-0.1,0.1-0.1,0,0.1,0c0.2,0,0.2,0,0.1,0c0.1,0,0.1,0,0.2,0c-0.2-0.1-0.1,0,0,0c-0.1-0.1-0.1-0.1,0,0
								c-0.1-0.1-0.2-0.2-0.3-0.3c0.2,0.2,0,0-0.1-0.1c0-0.1-0.1-0.2-0.1-0.2c0.1,0.1,0.1,0.2,0,0.1c-0.1-0.2-0.2-0.5-0.2-0.8
								c0,0.4,0,0,0-0.1c0-0.1,0-0.3,0-0.4c0-0.1,0-0.3,0-0.4c-0.1,0.2,0,0.1,0-0.1c0.1-0.2,0.1-0.5,0.2-0.7c0-0.1,0-0.1,0,0.1
								c0-0.1,0.1-0.1,0.1-0.2c0.1-0.1,0.1-0.2,0.2-0.3c0.1-0.1,0.1-0.2,0.2-0.3c-0.2,0.3,0,0,0.1-0.1c0.1-0.1,0.2-0.2,0.3-0.3
								c0.2-0.2-0.2,0.1,0,0c0.1-0.1,0.2-0.1,0.3-0.2c0.1,0,0.1-0.1,0.2-0.1c-0.2,0.1-0.2,0.1-0.1,0c-0.6-0.3-1.2-0.7-1.8-1
								c0.1,0.4,0.2,0.7,0.2,1.1c0,0.1,0,0.2,0,0.3c0-0.1,0-0.1,0,0c0,0.2,0,0.3,0.1,0.5c0.1,0.6,0.1,1.3,0,1.9c0,0.3,0,0.6-0.1,0.9
								c0-0.3,0,0.3-0.1,0.3c0,0.1-0.1,0.3-0.1,0.4c-0.1,0.7-0.3,1.4-0.5,2.1c0.9-0.1,1.8-0.2,2.7-0.4c-0.1-0.2-0.2-0.5-0.3-0.7
								c0.1,0.2-0.1-0.2-0.1-0.2c0-0.1-0.1-0.2-0.1-0.3c-0.1-0.2-0.1-0.5-0.2-0.7c-0.1-0.4,0,0.3,0-0.1c0-0.1,0-0.2,0-0.3
								c0-0.2,0-0.5,0-0.7c0-0.1,0-0.4,0-0.1c0-0.1,0-0.2,0.1-0.3c0.1-0.5,0.3-1,0.5-1.5c-1-0.1-2-0.3-2.9-0.4
								c0,1.6-0.1,2.6-0.6,4.1c-0.2,0.8,0.3,1.7,1,1.8c0.8,0.2,1.6-0.2,1.8-1c0.4-1.6,0.7-3.3,0.7-4.9c0-0.7-0.6-1.4-1.3-1.5
								c-0.8-0.1-1.4,0.4-1.6,1.1c-0.4,1.1-0.7,2.3-0.6,3.5c0.1,1.3,0.5,2.5,1.1,3.7c0.6,1.2,2.4,0.8,2.7-0.4c0.4-1.5,0.8-3,0.8-4.5
								c0.1-1.6-0.1-3.1-0.4-4.6c-0.2-0.7-1.1-1.3-1.8-1c-2.3,0.8-3.8,3.3-3.6,5.8c0.1,1.5,0.7,2.9,1.9,3.7c0.6,0.5,1.5,0.6,2.3,0.4
								c0.7-0.2,1.3-0.7,1.8-1.3c1-1.2,1.8-2.6,2.2-4.1c0.2-0.8-0.3-1.7-1-1.8C140.5,62.2,139.7,62.6,139.4,63.5L139.4,63.5z"/>
						</g>
					</g>
					<g>
						<g>
							<path class="st4" d="M137,56.7c-2.8,1.8-4.5,5-4.4,8.3c0,1.4,0.3,2.8,1.4,3.7c0.9,0.8,2.1,1.4,3.1,2.1
								c0.5,0.4,1.4,0.2,1.8-0.2c0.5-0.5,0.5-1.2,0.2-1.8c-0.3-0.7-0.6-1.4-0.9-2.2c-0.1-0.4-0.2-0.7-0.3-1.1c0-0.1-0.1-0.3-0.1-0.4
								c-0.1-0.4,0,0.1,0-0.2c0-0.3,0-0.7,0-1c0-0.4-0.1,0.2,0-0.2c0-0.1,0.1-0.3,0.1-0.4c0.2-0.7,0.4-1.1,0.8-1.8
								c0.1-0.1,0.5-0.7,0.5-0.7c0,0-0.9-0.2-0.8-0.3c0,0,0.1,0.3,0.1,0.3c0.2,0.7,0.2,1.5,0.2,2.3c0,0.8-0.2,1.5-0.4,2.2
								c-0.1,0.3-0.2,0.7-0.4,1c-0.1,0.2-0.2,0.3-0.3,0.5c-0.1,0.1-0.1,0.2-0.2,0.3c-0.2,0.3-0.1,0.2,0.3-0.2c0.3,0,0.5,0,0.8,0
								c0.1,0.1,0.2,0.1,0.3,0.2c-0.1-0.1-0.1-0.2-0.2-0.3c0,0.1,0,0,0-0.1c0-0.1-0.1-0.2-0.1-0.3c0,0.1,0,0.1,0-0.1
								c0-0.1,0-0.2,0-0.4c0-0.1,0-0.2,0-0.4c0-0.2,0-0.2,0-0.1c0.1-0.4,0.2-0.8,0.3-1.3c0.1-0.4,0.3-0.9,0.4-1.1
								c0.1-0.2,0.2-0.4,0.3-0.6c-0.2,0.2,0.3-0.4,0.1-0.1c0.1-0.2,0.1,0-0.1,0c-0.1,0-0.2,0-0.2-0.1c-0.1-0.1-0.1-0.1,0,0
								c-0.1-0.1-0.1-0.1,0,0c-0.1-0.2-0.1-0.2,0,0c0,0.1,0,0.2,0.1,0.3c0-0.2,0-0.2,0,0c0,0.2,0,0.4,0,0.6c0-0.3-0.1,0.2-0.1,0.3
								c-0.5,1.9,2.4,2.7,2.9,0.8c0.3-1.3,0.3-3.1-0.7-4.1c-1.4-1.4-3.3-0.8-4.3,0.6c-0.8,1.1-1.3,2.6-1.5,4
								c-0.2,1.6-0.1,3.8,1.5,4.8c2.1,1.3,3.3-1.5,3.9-3c0.5-1.4,0.7-3,0.6-4.6c-0.1-1.7-0.5-4.1-2.6-4.2c-1.8-0.1-2.9,1.9-3.6,3.3
								c-0.6,1.4-0.9,2.9-0.6,4.5c0.2,1.7,1,3.2,1.6,4.7c0.7-0.7,1.4-1.4,2.1-2.1c-0.5-0.3-0.9-0.6-1.4-0.9
								c-0.2-0.1-0.4-0.2-0.6-0.4c-0.1-0.1-0.2-0.1-0.3-0.2c-0.1,0-0.4-0.3-0.1,0c-0.2-0.1-0.3-0.3-0.4-0.4c-0.1-0.1,0.1,0.2,0,0
								c0-0.1-0.1-0.2-0.2-0.3c0.1,0.2,0,0.1,0,0c0-0.1-0.1-0.3-0.1-0.4c0-0.1,0-0.1,0,0c0-0.1,0-0.1,0-0.2c0-0.2,0-0.3,0-0.5
								c0-2.3,1.1-4.6,3-5.8C140.2,58.2,138.7,55.6,137,56.7L137,56.7z"/>
						</g>
					</g>
					<g>
						<g>
							<path class="st4" d="M129.6,57c-0.3,0-0.5,0-0.8,0c-0.1,0-0.3,0-0.4,0c0,0-0.3,0-0.1,0c0.3,0,0,0-0.1,0
								c-0.6-0.1-1.1-0.2-1.7-0.4c-0.1,0-0.1,0-0.2-0.1c0,0-0.3-0.1-0.1,0c0.2,0.1,0,0-0.1,0c-0.1,0-0.1-0.1-0.2-0.1
								c-0.3-0.1-0.5-0.3-0.7-0.4c-0.1-0.1-0.2-0.2-0.4-0.2c-0.1-0.1-0.2-0.2,0.1,0.1c0,0-0.1-0.1-0.1-0.1c-0.2-0.2-0.4-0.4-0.6-0.6
								c-0.5-0.6-1.6-0.6-2.1,0c-0.6,0.6-0.5,1.5,0,2.1c0.9,1.1,2.2,1.7,3.4,2.2c1.2,0.4,2.5,0.7,3.8,0.6c0.8,0,1.5-0.7,1.5-1.5
								C131.1,57.7,130.5,56.9,129.6,57L129.6,57z"/>
						</g>
					</g>
					<g>
						<g>
							<path class="st4" d="M142,71.3c-3,2.3-6.6,3.5-10.3,3.5c-1.9,0-1.9,3,0,3c4.2,0,8.5-1.3,11.8-3.9c0.6-0.5,1-1.3,0.5-2.1
								C143.7,71.2,142.7,70.8,142,71.3L142,71.3z"/>
						</g>
					</g>
				</g>
				<g>
					<g>
						<path class="st4" d="M126.8,61C126.8,61,126.8,61,126.8,61c0,0,0.2,0,0.3,0c-0.9,0.1-1.9,0.1-2.8,0c0.1,0,0.3,0,0.4,0.1
							c-0.7-0.1-1.4-0.3-2-0.5c-0.7-0.3-1.7,0.3-1.8,1c-0.2,0.8,0.3,1.6,1,1.8c1.8,0.6,3.8,0.7,5.7,0.5c0.3,0,0.7-0.4,0.9-0.7
							c0.2-0.3,0.3-0.8,0.2-1.2c-0.1-0.4-0.3-0.7-0.7-0.9C127.6,61,127.3,61,126.8,61L126.8,61z"/>
					</g>
				</g>
				<g>
					<g>
						<path class="st4" d="M127.2,65.8c-0.5,0.2-1,0.4-1.5,0.5c-0.2,0.1-0.4,0.1-0.7,0.1c-0.1,0-0.3,0.1-0.4,0.1c-0.3,0.1,0.3,0,0,0
							c-0.5,0.1-1,0.1-1.5,0.1c-0.3,0-0.5,0-0.8,0c-0.1,0-0.2,0-0.3,0c-0.1,0-0.1,0-0.2,0c0.2,0,0.2,0,0.1,0
							c-0.4-0.1-0.8-0.1-1.2,0.2c-0.3,0.2-0.6,0.5-0.7,0.9c-0.2,0.7,0.2,1.7,1,1.8c2.4,0.3,4.8,0.2,7-0.7c0.4-0.1,0.7-0.3,0.9-0.7
							c0.2-0.3,0.3-0.8,0.2-1.2C128.8,66.2,128,65.5,127.2,65.8L127.2,65.8z"/>
					</g>
				</g>
			</g>
			<g>
				<path class="st7" d="M72.3,64.8c-6.2-0.2-12.4,0.8-17.9,3.5c-5.5,2.8-10.2,7.4-12.4,13.2c-3.1,8.3-0.9,17.7,2.7,25.7
					s64.6,65.9-86.6,64.8l34.1,17c121.4-17,73.4-73.2,68.5-79.8c-4.9-6.6-9.1-14.9-6.6-22.8c2.6-8.1,11.6-12.6,20.1-13"/>
				<g>
					<path d="M72.3,63.3c-7.8-0.2-15.9,1.3-22.3,5.9c-6,4.3-10,10.5-10.8,17.9c-0.8,7,1.2,14.7,4.3,21c0.3,0.7,0.8,1.3,1.2,1.9
						c1.4,2.1,3,4.1,4.4,6.2c1.9,2.7,3.7,5.5,5.2,8.5c0.4,0.8,0.8,1.6,1.2,2.4c0.1,0.2,0.2,0.4,0.3,0.6c0,0.1,0.1,0.2,0.1,0.3
						c0.1,0.2-0.1-0.3,0,0c0.2,0.4,0.3,0.8,0.5,1.3c0.6,1.6,1.1,3.3,1.5,5.1c0.1,0.4,0.2,0.9,0.2,1.3c0,0.1,0,0.2,0,0.3
						c0,0.3,0-0.3,0,0c0,0.2,0.1,0.4,0.1,0.7c0.1,0.9,0.1,1.7,0.1,2.6c0,0.4,0,0.9-0.1,1.3c0,0.2,0,0.4-0.1,0.6c0,0.1,0,0.2,0,0.3
						c0,0,0-0.3,0,0.1c-0.1,0.9-0.3,1.7-0.6,2.6c-0.1,0.4-0.3,0.8-0.4,1.3c-0.1,0.2-0.2,0.4-0.2,0.6c0.2-0.4-0.1,0.3-0.2,0.4
						c-0.4,0.9-0.9,1.7-1.4,2.5c-0.3,0.4-0.6,0.8-0.9,1.2c-0.2,0.2,0.1-0.2-0.1,0.1c-0.1,0.1-0.2,0.2-0.3,0.3
						c-0.2,0.2-0.3,0.4-0.5,0.6c-0.7,0.8-1.5,1.6-2.4,2.4c-1.8,1.6-3.9,3-6.2,4.3c-2.8,1.6-5.7,2.8-8.8,3.9
						c-8.5,3.1-17.5,4.8-26.4,6c-13.1,1.8-26.4,2.5-39.7,2.7c-4,0.1-8.1,0.1-12.1,0c-1.4,0-2.1,2.1-0.8,2.8
						c5.6,2.8,11.3,5.6,16.9,8.5c3.9,1.9,7.8,3.9,11.7,5.8c1.8,0.9,3.6,2,5.4,2.7c0.8,0.3,1.5,0.1,2.3,0c1.1-0.2,2.2-0.3,3.3-0.5
						c2-0.3,4-0.6,6-1c3.8-0.7,7.5-1.4,11.3-2.2c6.4-1.4,12.8-3.1,19-5.1c9.1-3,18.2-6.8,26-12.5c5.3-3.8,10-8.6,13-14.4
						c2.3-4.6,3.5-9.8,3.3-15c-0.2-4.7-1.3-9.2-3-13.5c-1.5-3.8-3.4-7.4-5.7-10.8c-1.4-2.2-3-4.3-4.6-6.3c-3.4-4.5-6.5-9.6-7.3-15.3
						c-1.1-7.4,3.2-13.4,9.6-16.4c3-1.4,6.2-2.2,9.5-2.3c1.9-0.1,1.9-3.1,0-3c-10.9,0.6-22.6,7.6-22.3,19.8c0.2,7.4,4.3,14,8.7,19.8
						c3.3,4.3,6.3,8.9,8.5,13.9c0.1,0.2,0.2,0.3,0.2,0.5c0,0.1,0.1,0.2,0.1,0.3c0.2,0.4-0.1-0.3,0,0.1c0.2,0.4,0.3,0.8,0.5,1.2
						c0.3,0.8,0.6,1.6,0.9,2.5c0.6,1.7,1,3.5,1.3,5.3c0.2,1.2,0.2,1.4,0.3,2.5c0.1,0.9,0.1,1.9,0.1,2.8c0,2-0.2,3.7-0.5,5.4
						c-0.8,4.3-2.5,7.9-5.1,11.5c-3.1,4.2-7.5,7.9-12,10.9c-6.5,4.2-13.8,7.3-21.1,9.8c-10.6,3.6-21.5,6-32.5,7.9
						c-3.2,0.5-6.4,1-9.6,1.5c0.4,0.1,0.8,0.1,1.2,0.2c-10-5-19.9-10-29.9-15c-1.4-0.7-2.8-1.4-4.2-2.1c-0.3,0.9-0.5,1.9-0.8,2.8
						c14.5,0.1,29-0.3,43.4-1.7c10-1,20.1-2.5,29.8-5.3c6.4-1.8,12.8-4.2,18.3-8c3.8-2.6,7.3-5.8,9.4-9.9c1.7-3.4,2.5-7.1,2.3-10.9
						c-0.2-3.6-1.2-7.2-2.6-10.6c-1.4-3.3-3.1-6.4-5-9.4c-1.6-2.5-3.3-4.8-5-7.2c-1.6-2.2-2.9-4.2-3.9-6.8
						C42.1,96.5,40.5,88,44,80.6c3.2-6.7,9.5-11.1,16.5-13.1c3.8-1.1,7.8-1.4,11.8-1.3C74.3,66.4,74.3,63.4,72.3,63.3L72.3,63.3z"/>
				</g>
			</g>
			<g>
				<g>
					<path class="st4" d="M121.4,34.1c-2.2-1.5-4.4-2.9-6.7-4.4c-0.7-0.4-1.7-0.2-2.1,0.5c-0.4,0.8-0.2,1.6,0.5,2.1
						c2.2,1.5,4.4,2.9,6.7,4.4c0.7,0.4,1.7,0.2,2.1-0.5C122.3,35.4,122.1,34.6,121.4,34.1L121.4,34.1z"/>
				</g>
			</g>
			<g>
				<g>
					<path class="st4" d="M130.9,103.1c-0.2,2.4,0,4.9-0.3,7.3c-0.1,0.8,0.8,1.5,1.5,1.5c0.9,0,1.4-0.7,1.5-1.5
						c0.3-2.4,0.1-4.9,0.3-7.3c0.1-0.8-0.7-1.5-1.5-1.5C131.6,101.6,131,102.2,130.9,103.1L130.9,103.1z"/>
				</g>
			</g>
			<g>
				<g>
					<path class="st4" d="M125.3,100.2c-1.2,2.5-2.3,5-3.6,7.5c-0.3,0.7-0.2,1.7,0.5,2.1c0.7,0.4,1.7,0.2,2.1-0.5
						c1.2-2.5,2.3-5,3.6-7.5c0.4-0.7,0.2-1.7-0.5-2.1C126.7,99.3,125.7,99.5,125.3,100.2L125.3,100.2z"/>
				</g>
			</g>
			<g>
				<g>
					<path class="st4" d="M121.4,96.5c-2.2,1.9-4.3,4-6.4,6c-0.6,0.5-0.6,1.6,0,2.1c0.6,0.6,1.5,0.6,2.1,0c2.1-2,4.2-4.1,6.4-6
						c0.6-0.5,0.6-1.6,0-2.1C122.9,95.9,122,95.9,121.4,96.5L121.4,96.5z"/>
				</g>
			</g>
			<g>
				<g>
					<path class="st4" d="M128.1,32.1c-1.3-2.7-2.7-5.5-4-8.2c-0.3-0.7-1.4-1-2.1-0.5c-0.7,0.5-0.9,1.3-0.5,2.1
						c1.3,2.7,2.7,5.5,4,8.2c0.3,0.7,1.4,1,2.1,0.5C128.3,33.7,128.5,32.8,128.1,32.1L128.1,32.1z"/>
				</g>
			</g>
			<g>
				<g>
					<path class="st4" d="M117.5,39.4c-2.4-0.7-4.7-1.4-7.1-2.1c-0.8-0.2-1.7,0.3-1.8,1c-0.2,0.8,0.2,1.6,1,1.8
						c2.4,0.7,4.7,1.4,7.1,2.1c0.8,0.2,1.7-0.3,1.8-1C118.7,40.4,118.3,39.6,117.5,39.4L117.5,39.4z"/>
				</g>
			</g>
		</g>
	</g>
	<g>
		<g>
			<path d="M406.6,180c-6.8,0-13.5,0-20.3,0c-17.4,0-34.8,0-52.2,0c-23.9,0-47.8,0-71.8,0c-26.4,0-52.9,0-79.3,0
				c-24.7,0-49.5,0-74.2,0c-18.9,0-37.8,0-56.7,0c-9,0-18,0-27,0c-9.3,0-16.6-6.9-16.7-16.4c0-5.9,0-11.8,0-17.6c0-24.5,0-49,0-73.5
				c0-15.5-0.2-31.1,0-46.6c0.1-8.8,7.1-15.8,15.9-15.9c0.5,0,1,0,1.5,0c3.5,0,6.9,0,10.4,0c15.3,0,30.5,0,45.8,0
				c22.7,0,45.4,0,68.2,0c26.1,0,52.3,0,78.4,0c25.5,0,50.9,0,76.4,0c20.8,0,41.6,0,62.4,0c11.8,0,23.5,0,35.3,0
				c4.1,0,8-0.1,11.8,2.1c5.2,3,8,8.4,8,14.3c0,2,0,4.1,0,6.1c0,21.9,0,43.9,0,65.8c0,20.7,0,41.4,0,62c0,1.2,0,2.5,0,3.7
				C422.4,172.9,415.4,179.9,406.6,180c-1.9,0-1.9,3,0,3c9-0.1,17.1-6.6,18.6-15.6c0.3-2,0.3-4,0.3-6.1c0-7.8,0-15.7,0-23.5
				c0-25.5,0-51,0-76.5c0-9.4,0-18.8,0-28.2c0-2.2,0-4.4,0-6.6c0-5.3-1.8-10.4-5.7-14.2C415.3,8,409.7,7,403.7,7
				c-4.2,0-8.4,0-12.7,0c-16.5,0-33,0-49.5,0c-23.7,0-47.4,0-71.1,0c-26.7,0-53.4,0-80.1,0c-25.3,0-50.5,0-75.8,0
				C94.8,7,75,7,55.3,7c-9.9,0-19.7,0-29.6,0c-0.8,0-1.6,0-2.4,0C14.4,7.6,7,14.4,5.7,23.2C5,28.1,5.5,33.4,5.5,38.3c0,24,0,48,0,72
				c0,17.7-0.1,35.5,0,53.2c0,10.8,8.3,19.4,19.2,19.5c2.6,0,5.3,0,7.9,0c14.2,0,28.3,0,42.5,0c22.3,0,44.6,0,66.9,0
				c26.4,0,52.8,0,79.2,0c26,0,51.9,0,77.9,0c21.5,0,43.1,0,64.6,0c12.7,0,25.3,0,38,0c1.7,0,3.3,0,5,0
				C408.5,183,408.5,180,406.6,180z"/>
		</g>
	</g>
	<g>
		<path class="st8" d="M19.9,39.4c4.7,0.9,9-0.1,12-3.8s7.3-12.9,8.9-17.5c-1.1,4.2-2.3,13.9-1.7,18.2s2,7.3,6.2,8.6
			c-6,0-11.2,4.6-13.7,10.4C28.6,61.9,27,66,25.2,71c1-5.2,2.1-11.1,2.4-18.6C27.8,48.2,28.3,42.9,19.9,39.4z"/>
		<g>
			<path d="M19.5,40.8c3.1,0.5,6.3,0.5,9.2-0.9c2.7-1.2,4.5-3.5,6-5.9c3.1-4.8,5.6-10.2,7.4-15.6c-1-0.3-1.9-0.5-2.9-0.8
				c-1.4,5.2-2,10.8-1.9,16.1c0,2.5,0.3,5.1,1.4,7.5c1.2,2.5,3.4,4.2,6,5c0.1-1,0.3-2,0.4-2.9c-6.2,0.1-11.4,4.3-14.3,9.6
				c-1.6,3-2.8,6.2-4,9.4c-1.1,2.7-2.2,5.5-3.1,8.3c1,0.3,1.9,0.5,2.9,0.8c1.3-6.9,2.4-13.8,2.5-20.8c0-2.3-0.3-4.6-1.4-6.6
				c-1.5-2.8-4.3-4.6-7.1-5.9c-1.8-0.8-3.3,1.8-1.5,2.6c2.5,1.1,5,2.5,6.2,5c0.8,1.7,0.9,3.6,0.8,5.5C26,57.7,25,64.1,23.8,70.6
				c-0.4,1.9,2.3,2.6,2.9,0.8c1.9-5.4,4-10.7,6.3-15.9c2.2-4.8,6.6-9,12.2-9.1c1.7,0,2-2.4,0.4-2.9c-4.7-1.5-5.3-6.5-5.2-10.8
				c0.1-4.7,0.6-9.6,1.8-14.1c0.5-1.9-2.3-2.6-2.9-0.8c-1.6,4.8-3.9,9.5-6.5,13.8c-1.2,2.1-2.6,4.2-4.7,5.4c-2.4,1.4-5.2,1.5-7.8,1
				C18.4,37.6,17.6,40.5,19.5,40.8z"/>
		</g>
	</g>
	<g>
		<path class="st9" d="M380.3,46c4.5-1.6,7.6-4.4,8.4-9.1c0.8-4.7-0.1-14.6-1-19.2c1.1,4.1,4.8,12.9,7.4,16.4
			c2.5,3.4,5.3,5.2,9.4,4.3c-5.1,3-7.3,9.4-6.7,15.5c0.8,7.1,1.4,11.4,2.3,16.5c-1.7-4.9-3.6-10.5-7-17
			C391.3,49.6,389.1,44.9,380.3,46z"/>
		<g>
			<path d="M380.7,47.4c2.8-1,5.4-2.5,7.2-4.9c1.7-2.3,2.4-5.1,2.5-7.9c0.3-5.7-0.2-11.7-1.2-17.4c-1,0.3-1.9,0.5-2.9,0.8
				c1.3,5,3.5,9.9,6,14.4c1.2,2.2,2.8,4.3,4.8,5.8c2.3,1.7,5,2.1,7.8,1.5c-0.4-0.9-0.8-1.8-1.2-2.7c-5.2,3.1-7.6,9.1-7.5,15
				c0.1,3.3,0.7,6.6,1.1,9.9c0.4,2.9,0.8,5.9,1.4,8.8c1-0.3,1.9-0.5,2.9-0.8c-2.3-6.6-4.7-13.1-8.1-19.2c-1.1-1.9-2.4-3.7-4.3-4.8
				c-2.6-1.6-5.9-1.8-8.9-1.5c-1.9,0.2-1.9,3.2,0,3c2.6-0.3,5.4-0.3,7.7,1.3c1.5,1,2.4,2.6,3.3,4.1c3.1,5.7,5.4,11.7,7.5,17.9
				c0.6,1.8,3.2,1.1,2.9-0.8c-1-5.5-1.9-11.2-2.3-16.8c-0.4-5.1,1.4-10.7,6-13.5c1.5-0.9,0.5-3.1-1.2-2.7c-4.9,1-7.8-3.2-9.8-7
				c-2.1-4-4-8.2-5.1-12.6c-0.5-1.9-3.2-1.1-2.9,0.8c0.9,5,1.3,10.2,1.2,15.3c-0.1,2.3-0.3,4.7-1.5,6.7c-1.4,2.2-3.7,3.6-6.1,4.4
				C378.1,45.2,378.9,48.1,380.7,47.4z"/>
		</g>
	</g>
	<g>
		<g>
			<g>
				<path d="M63.3,33.1c-0.1-1.4-0.2-2.8-0.3-4.1c0-0.7,0-1.4,0-2c0-0.3,0-0.7,0-1c0-0.2,0-0.3,0-0.5c0-0.1,0-0.2,0-0.3
					c0-0.4-0.1-0.2-0.3,0.5c-0.2,0.1-0.4,0.3-0.7,0.4c0,0,0.1,0,0.1,0c-0.3,0-0.5,0-0.8,0c0,0,0,0,0.1,0c-0.2-0.1-0.4-0.3-0.7-0.4
					c0,0,0,0,0,0c-0.1-0.2-0.3-0.4-0.4-0.7c0-0.3,0.1-0.6,0.1-1c0.3-0.2,0.6-0.5,0.9-0.7c0,0,0,0,0,0c0.4,0.1,0.8,0.1,1.2,0.2
					c0,0,0,0,0,0c-0.7-0.4-1.7-0.2-2.1,0.5c-0.4,0.7-0.2,1.6,0.5,2.1c0.9,0.6,2,0,2.3-0.9c0.3-0.8-0.2-1.8-1.1-2
					c-0.9-0.3-1.8,0.4-2.1,1.2c-0.2,0.6-0.1,1.3-0.1,1.9c-0.1,2.3,0,4.6,0.3,6.9c0.1,0.8,0.6,1.5,1.5,1.5
					C62.5,34.5,63.3,33.9,63.3,33.1L63.3,33.1z"/>
			</g>
		</g>
		<g>
			<g>
				<path d="M57.5,29.6c1.4,0,2.8,0,4.2-0.1c0.7,0,1.4,0,2,0c0.3,0,0.6,0,0.9,0c0.1,0,0.3,0,0.4,0c-0.2,0-0.2,0,0,0
					c-0.2-0.1-0.2-0.1,0,0c0.6,0.4,1.7,0.1,2.1-0.5c0.4-0.8,0.2-1.6-0.5-2.1c-0.7-0.5-1.5-0.5-2.3-0.5c-0.7,0-1.5,0-2.2,0
					c-1.5,0-3,0-4.5,0.1c-0.8,0-1.5,0.7-1.5,1.5C56.1,28.9,56.7,29.6,57.5,29.6L57.5,29.6z"/>
			</g>
		</g>
	</g>
	<g>
		<path class="st7" d="M345.8,33.1c3.5-0.6,6.1-2,7.3-4.5c1.2-2.5,1.8-7.9,1.7-10.4c0.3,2.3,1.9,7.2,3.3,9.2c1.4,2,3.2,3.1,6.3,2.8
			c-4.1,1.3-6.5,4.7-6.8,8c-0.3,3.9-0.4,6.2-0.4,9c-0.6-2.7-1.3-5.8-3-9.5C353.4,35.6,352.4,33,345.8,33.1z"/>
		<g>
			<path d="M346.2,34.6c3.7-0.7,7.2-2.4,8.6-6.1c1.2-3.1,1.6-6.9,1.5-10.2c-1,0-2,0-3,0c0.4,3.1,1.5,6.4,3,9.2
				c1.7,3,4.6,4.5,8.1,4.3c-0.1-1-0.3-2-0.4-2.9c-3.5,1.2-6.4,3.8-7.5,7.4c-0.6,1.8-0.5,3.8-0.6,5.7c-0.1,1.8-0.2,3.6-0.1,5.4
				c1-0.1,2-0.3,2.9-0.4c-0.9-3.9-1.8-8-3.9-11.4c-1.9-3.2-5.6-3.8-9-3.7c-1.9,0-1.9,3,0,3c2.6,0,5.4,0.2,6.7,2.7
				c1.7,3.2,2.5,6.8,3.3,10.2c0.4,1.7,3,1.3,2.9-0.4c0-3.1-0.1-6.3,0.4-9.4c0.5-3,2.9-5.2,5.7-6.2c1.5-0.5,1.4-3.1-0.4-2.9
				c-2.7,0.2-4.5-0.9-5.8-3.3c-1.1-2.2-2.1-4.7-2.4-7.2c-0.2-1.9-3-2-3,0c0.1,2.9-0.3,5.9-1.2,8.6c-1,3.1-3.7,4.3-6.7,4.8
				C343.5,32,344.3,34.9,346.2,34.6z"/>
		</g>
	</g>
	<g>
		<path class="st10" d="M92.1,152.8c3.5,0.2,6.4-0.4,8.2-2.5c1.7-2.1,3.7-7.2,4.3-9.6c-0.3,2.3,0,7.4,0.9,9.7
			c0.9,2.3,2.3,3.8,5.4,4.3c-4.3,0.3-7.5,2.9-8.6,6.1c-1.3,3.7-2,5.9-2.6,8.6c0.1-2.8,0.2-6-0.5-9.9
			C98.7,157.1,98.4,154.3,92.1,152.8z"/>
		<g>
			<path d="M92.1,154.3c3.8,0.2,7.6-0.5,9.9-3.8c1.9-2.7,3.2-6.2,4-9.5c-1-0.1-2-0.3-2.9-0.4c-0.4,3-0.1,6.6,0.8,9.5
				c1,3.2,3.4,5.3,6.7,5.9c0.1-1,0.3-2,0.4-2.9c-3.7,0.3-7.1,2-9.1,5.2c-1,1.6-1.5,3.5-2,5.3c-0.6,1.8-1.1,3.5-1.5,5.3
				c1,0.1,2,0.3,2.9,0.4c0.1-3.9,0.2-8.2-0.9-12c-1-3.6-4.4-5.1-7.8-5.9c-1.9-0.5-2.7,2.4-0.8,2.9c2.6,0.6,5.2,1.6,5.8,4.3
				c0.8,3.5,0.8,7.1,0.7,10.7c0,1.7,2.5,2.1,2.9,0.4c0.7-3,1.5-6.3,2.8-9.1c1.2-2.7,4.1-4.3,7-4.5c1.6-0.1,2.2-2.6,0.4-2.9
				c-2.7-0.5-4.2-1.9-4.8-4.6c-0.6-2.5-0.8-5.3-0.5-7.9c0.2-1.7-2.6-2-2.9-0.4c-0.7,2.8-1.8,5.6-3.2,8c-1.7,2.8-4.6,3.3-7.7,3.1
				C90.1,151.1,90.1,154.1,92.1,154.3z"/>
		</g>
	</g>
	<g>
		<g>
			<g>
				<path d="M315.7,165.9c0-4.1,0-8.2,0-12.3c0-1.9-3-1.9-3,0c0,4.1,0,8.2,0,12.3C312.7,167.9,315.7,167.9,315.7,165.9L315.7,165.9z
					"/>
			</g>
		</g>
		<g>
			<g>
				<path d="M308.8,161.8c3.6,0,7.1,0,10.7,0c0.8,0,1.5-0.7,1.5-1.5c0-0.8-0.7-1.5-1.5-1.5c-3.6,0-7.1,0-10.7,0
					c-0.8,0-1.5,0.7-1.5,1.5C307.3,161.1,308,161.8,308.8,161.8L308.8,161.8z"/>
			</g>
		</g>
	</g>
</g>
</svg>
