<?xml version="1.0" encoding="utf-8"?>
<!-- Generator: Adobe Illustrator 24.2.0, SVG Export Plug-In . SVG Version: 6.00 Build 0)  -->
<svg version="1.1" id="Layer_1" xmlns="http://www.w3.org/2000/svg" xmlns:xlink="http://www.w3.org/1999/xlink" x="0px" y="0px"
	 viewBox="0 0 431 190" style="enable-background:new 0 0 431 190;" xml:space="preserve">
<style type="text/css">
	.st0{fill:#D8D8D8;}
	.st1{fill:#000005;}
	.st2{fill:#5F5F5F;}
	.st3{fill:#FFFFFF;}
	.st4{fill:#BEBEBE;}
	.st5{fill:#797979;}
	.st6{fill:#AFAFAF;}
	.st7{clip-path:url(#SVGID_2_);}
</style>
<g>
	<g>
		<path class="st0" d="M406.6,181.5H24.4c-9.6,0-17.4-7.8-17.4-17.4V25.9c0-9.6,7.8-17.4,17.4-17.4h382.2c9.6,0,17.4,7.8,17.4,17.4
			v138.2C424,173.7,416.2,181.5,406.6,181.5z"/>
		<g>
			<path class="st1" d="M406.6,180c-6.8,0-13.5,0-20.3,0c-17.4,0-34.8,0-52.2,0c-23.9,0-47.8,0-71.8,0c-26.4,0-52.9,0-79.3,0
				c-24.7,0-49.5,0-74.2,0c-18.9,0-37.8,0-56.7,0c-9,0-18,0-27,0c-9.3,0-16.6-6.9-16.7-16.4c0-5.9,0-11.8,0-17.6c0-24.5,0-49,0-73.5
				c0-15.5-0.2-31.1,0-46.6c0.1-8.8,7.1-15.8,15.9-15.9c0.5,0,1,0,1.5,0c3.5,0,6.9,0,10.4,0c15.3,0,30.5,0,45.8,0
				c22.7,0,45.4,0,68.2,0c26.1,0,52.3,0,78.4,0c25.5,0,50.9,0,76.4,0c20.8,0,41.6,0,62.4,0c11.8,0,23.5,0,35.3,0
				c4.1,0,8-0.1,11.8,2.1c5.2,3,8,8.4,8,14.3c0,2,0,4.1,0,6.1c0,21.9,0,43.9,0,65.8c0,20.7,0,41.4,0,62c0,1.2,0,2.5,0,3.7
				C422.4,172.9,415.4,179.9,406.6,180c-1.9,0-1.9,3,0,3c9-0.1,17.1-6.6,18.6-15.6c0.3-2,0.3-4,0.3-6.1c0-7.8,0-15.7,0-23.5
				c0-25.5,0-51,0-76.5c0-9.4,0-18.8,0-28.2c0-2.2,0-4.4,0-6.6c0-5.3-1.8-10.4-5.7-14.2C415.3,8,409.7,7,403.7,7
				c-4.2,0-8.4,0-12.7,0c-16.5,0-33,0-49.5,0c-23.7,0-47.4,0-71.1,0c-26.7,0-53.4,0-80.1,0c-25.3,0-50.5,0-75.8,0
				C94.8,7,75,7,55.3,7c-9.9,0-19.7,0-29.6,0c-0.8,0-1.6,0-2.4,0C14.4,7.6,7,14.4,5.7,23.2C5,28.1,5.5,33.4,5.5,38.3c0,24,0,48,0,72
				c0,17.7-0.1,35.5,0,53.2c0,10.8,8.3,19.4,19.2,19.5c2.6,0,5.3,0,7.9,0c14.2,0,28.3,0,42.5,0c22.3,0,44.6,0,66.9,0
				c26.4,0,52.8,0,79.2,0c26,0,51.9,0,77.9,0c21.5,0,43.1,0,64.6,0c12.7,0,25.3,0,38,0c1.7,0,3.3,0,5,0
				C408.5,183,408.5,180,406.6,180z"/>
		</g>
	</g>
	<g>
		<g>
			<g>
				<g>
					<g>
						<path d="M240.9,84.6c-1.3,7.2-1.4,14.6-1.3,21.9c0.1,3.8,0.2,7.6,0.3,11.3c0.1,3.3,0,6.7,0.3,9.9c0.5,6,2.7,13,8.1,16.5
							c2.5,1.6,5.8,2.4,8.8,2.2c3-0.2,5.4-1.7,6.5-4.6c1.3-3.2,1.1-7.6-1.9-9.7c-1.5-1-3.1-1.3-4.7-0.6c-1.4,0.6-2.8,1.9-2.6,3.5
							c0.2,1.9,3.2,1.9,3,0c0-0.3,0.2-0.5,0.7-0.7c0.3-0.2,0.7-0.3,1.1-0.2c1.3,0.2,2.1,1.6,2.2,2.7c0.2,2-0.1,5-2.2,6
							c-2,1-4.8,0.4-6.8-0.2c-2.3-0.7-4.1-2.2-5.4-4.2c-3-4.4-3.6-9.7-3.7-14.9c-0.1-6-0.4-12-0.5-18.1c-0.1-6.7,0-13.6,1.2-20.2
							C244.1,83.6,241.2,82.7,240.9,84.6L240.9,84.6z"/>
					</g>
				</g>
				<g>
					<path class="st2" d="M225.4,96.6c-4.4-0.4-15.7-0.1-19.7-3.5c0,0,0.3-6.7,0.2-8.7c-0.2-3.4,5.9-2.4,8.4-2.1
						c-0.7-13.1-0.4-57.1,24.3-49.1c29.5,9.5,12.9,37.8,7.2,55.4c2.6,0.5,7.5,1.9,7.2,4.4c-0.3,1.9-2.3,4.2-3.2,8.1
						C248.7,105.3,232.9,96.4,225.4,96.6z"/>
					<g>
						<path class="st1" d="M225.4,95.1c-3.2-0.3-6.4-0.3-9.5-0.6c-2.9-0.3-6.8-0.6-9.1-2.5c0.1,0.4,0.3,0.7,0.4,1.1
							c0.1-2.8,0.3-5.6,0.2-8.3c0-0.5-0.1-0.6,0.2-0.9c0.4-0.4,1.3-0.4,1.9-0.4c1.6-0.1,3.2,0.2,4.8,0.4c0.8,0.1,1.5-0.8,1.5-1.5
							c-0.4-7.1-0.2-14.2,0.6-21.2c0.5-4.2,1.2-8.3,2.4-12.4c1-3.5,2.4-7.1,4.7-10c1.9-2.5,4.5-4.3,7.6-4.9c4.3-0.7,9,1.1,12.8,3.1
							c3.9,2.1,7.3,5.2,8.9,9.5c1.5,3.9,1.6,8.3,1,12.4c-1.3,9.2-5.3,17.7-8.4,26.4c-0.3,1-0.7,1.9-1,2.9c-0.2,0.7,0.3,1.7,1,1.8
							c1.5,0.3,3,0.7,4.3,1.3c0.5,0.2,1.3,0.6,1.6,1.1c0.2,0.4,0.1,0.6-0.1,1c-0.5,1.5-1.4,2.8-2,4.3c-0.4,0.8-0.9,2-1,2.9
							c0,0.2,0,0,0,0c0-0.1,0.2,0-0.1,0c0.3-0.1-0.1,0-0.2,0c0.3,0-0.2,0-0.3,0c-0.4,0-0.9,0-1.2-0.1c-1.2-0.2-2.4-0.5-3.5-0.9
							c-2.9-0.9-5.7-1.9-8.6-2.8C231.6,96,228.5,95,225.4,95.1c-1.9,0-1.9,3,0,3c3-0.1,6.1,1,8.9,1.9c3.1,1,6.3,2.2,9.5,3
							c2,0.5,5,1.3,6.6-0.3c0.3-0.3,0.6-0.8,0.7-1.2c0.4-1.1,0.6-2.2,1.1-3.3c0.7-1.5,1.7-3,2.1-4.7c0.9-4.3-5.1-5.8-8.2-6.4
							c0.3,0.6,0.7,1.2,1,1.8c2.9-9.1,7.2-17.8,9-27.2c0.9-4.6,1.2-9.4,0.1-13.9c-1.2-4.7-4-8.6-7.8-11.4c-4.1-3.1-9.6-5.4-14.7-5.7
							c-3.8-0.2-7.3,1.1-10.2,3.5c-6.2,5.3-8.3,14.5-9.6,22.1c-1.3,7.9-1.6,16-1.3,24c0,0.6,0.1,1.3,0.1,1.9c0.5-0.5,1-1,1.5-1.5
							c-2.6-0.3-5.7-0.9-8.1,0.4c-2.5,1.4-1.7,5-1.8,7.4c0,1.3-0.1,2.6-0.2,3.9c-0.1,1.2,0.6,1.9,1.6,2.5c2.7,1.7,6.2,2.1,9.3,2.4
							c3.4,0.4,6.8,0.3,10.2,0.6C227.4,98.2,227.4,95.2,225.4,95.1z"/>
					</g>
				</g>
				<g>
					<g>
						<path d="M229.5,96.9c-1,10.5-1.4,21.1-1.4,31.7c0,5.2,0.1,10.4,0.5,15.6c0.4,4.6,1.2,9.3,3.5,13.4c2.3,4,5.8,7.1,10.2,8.5
							c1.8,0.6,2.6-2.3,0.8-2.9c-8.5-2.7-11.1-12-11.6-19.9c-0.6-9.8-0.6-19.7-0.2-29.5c0.2-5.6,0.6-11.2,1.1-16.8
							C232.7,95,229.7,95,229.5,96.9L229.5,96.9z"/>
					</g>
				</g>
				<g>
					<g>
						<path class="st3" d="M224,94.4c3.5-8.9,6.2-18.1,7.4-27.6c0.2-1.8,0.7-4.2-0.2-5.9c-0.7-1.4-2.6-2.3-4.2-2.2
							c-3.5,0.2-5.5,4.2-4.3,7.3c1.2,3.2,4.6,4.7,7.7,5.6c3.2,0.9,7,1.2,10.3,0.3c3-0.8,6.5-3.5,6-7c-0.6-4-5.5-4.3-7.7-1.5
							c-1.5,1.9-2.1,4.6-2.9,6.9c-0.9,2.6-1.7,5.3-2.4,8c-1.4,5.3-2.5,10.8-3.2,16.2c-0.2,1.4,2,2,2.2,0.6c1-7.5,2.7-14.9,4.9-22.1
							c0.6-1.8,1.2-3.6,1.8-5.4c0.5-1.5,1.2-3.4,2.9-3.8c1.6-0.3,2.4,1.2,1.9,2.6c-0.5,1.3-1.9,2.4-3.1,3c-2.4,1-5.5,1-8.1,0.5
							c-2.4-0.4-5.2-1.2-7-2.8c-1.1-1-1.7-2.4-1.3-3.9c0.2-1.1,1.4-2.2,2.6-2.2c1.9,0,2.2,1.7,2.1,3.2c-0.1,1.9-0.4,3.7-0.7,5.5
							c-1.3,8.3-3.8,16.3-6.9,24.1C221.3,95.2,223.5,95.8,224,94.4L224,94.4z"/>
					</g>
				</g>
				<g>
					<g>
						<path class="st3" d="M224.9,52.6c0.9-2.3,1.1-5.1,2-7.3c0.4-1,1-1.9,1.9-2.5c0.5-0.3,1-0.5,1.6-0.7c0.5-0.1,1.2-0.1,1.6-0.1
							c0.8,0.1,1.6-0.2,1.8-1c0.2-0.7-0.2-1.7-1-1.8c-3.4-0.5-6.7,1-8.3,4.1c-1.4,2.6-1.5,5.7-2.6,8.5c-0.3,0.8,0.3,1.6,1,1.8
							C223.9,53.9,224.6,53.3,224.9,52.6L224.9,52.6z"/>
					</g>
				</g>
				<g>
					<g>
						<path class="st3" d="M238.8,40.8c1.9,0,1.9-3,0-3C236.8,37.8,236.8,40.8,238.8,40.8L238.8,40.8z"/>
					</g>
				</g>
				<g>
					<g>
						<path d="M218.4,98.1c-0.8,12.3-2.3,24.5-4.6,36.5c-1,5.4-1.8,11.2-4,16.3c-0.7,1.7-1.7,3.3-2.7,4.9c-0.6,1-1.2,1.9-2,2.7
							c-2.9,2.7-7.7,0.8-10.9-0.5c-1.8-0.7-2.6,2.2-0.8,2.9c3.7,1.5,8.3,2.9,12.1,0.9c2.5-1.3,3.7-3.8,5.1-6.1
							c3-5,4.2-10.6,5.3-16.2c1.3-6.5,2.4-13,3.3-19.6c1-7.2,1.7-14.5,2.2-21.8C221.5,96.2,218.5,96.2,218.4,98.1L218.4,98.1z"/>
					</g>
				</g>
			</g>
			<g>
				<g>
					<path d="M208.8,96.2c-3,5.5-6.3,10.7-11.2,14.6c-4.8,3.9-10.1,7.3-16.2,8.7c-4.1,0.9-8.2,0.5-12.2-0.5c-3.4-0.9-6.8-2.3-9-5.2
						c-1.5-2-2.4-4.6-1.5-7c0.5-1.4,1.5-2.8,2.5-3.8c1.1-1.1,2.6-1.3,4-1.4c3.4-0.3,7.1,0.5,10.2,2.1c1,0.5,2.2,1.2,2.9,2.2
						c0.5,0.8,0.3,2.9-1.2,2.4c-1.8-0.6-2.6,2.3-0.8,2.9c4,1.3,6.5-3.6,4.6-6.8c-1.7-2.8-5.3-4.2-8.3-5c-3.5-1-7.8-1.4-11.3,0
						c-1.9,0.8-3.3,2.6-4.3,4.2c-0.9,1.5-1.5,3-1.6,4.7c-0.3,3.4,1.6,6.8,4,9.1c3.3,3.1,7.9,4.5,12.3,5.2c4.8,0.8,9.4,0.4,14-1.2
						c3.5-1.3,6.7-3.1,9.7-5.2c3-2.1,5.9-4.3,8.3-7c3.1-3.4,5.5-7.4,7.7-11.5C212.3,96.1,209.7,94.6,208.8,96.2L208.8,96.2z"/>
				</g>
			</g>
			<g>
				<g>
					<path class="st4" d="M156,128.2c5.1-26.1,10.2-50.7,14.8-77.6c5.3,1.1,10.7,2.2,16,3.3c-4.8,26.3-9.1,51.9-15.5,78.9L156,128.2
						z"/>
					<g>
						<path class="st1" d="M157.4,128.6c3.9-20,8-40,11.7-60c1.1-5.9,2.1-11.7,3.1-17.6c-0.6,0.3-1.2,0.7-1.8,1
							c5.3,1.1,10.7,2.2,16,3.3c-0.3-0.6-0.7-1.2-1-1.8c-3.7,20.4-7.2,40.8-11.5,61.1c-1.3,5.9-2.6,11.9-4,17.8
							c0.6-0.3,1.2-0.7,1.8-1c-5.1-1.5-10.2-3-15.3-4.6c-1.9-0.6-2.6,2.3-0.8,2.9c5.1,1.5,10.2,3,15.3,4.6c0.8,0.2,1.7-0.3,1.8-1
							c4.8-20.3,8.7-40.9,12.4-61.5c1-5.8,2.1-11.6,3.1-17.4c0.1-0.8-0.2-1.7-1-1.8c-5.3-1.1-10.7-2.2-16-3.3
							c-0.7-0.2-1.7,0.2-1.8,1c-3.4,20.2-7.4,40.4-11.4,60.5c-1.1,5.7-2.3,11.4-3.4,17.1C154.2,129.7,157.1,130.5,157.4,128.6z"/>
					</g>
				</g>
				<g>
					<g>
						<path d="M160,113.6c-1.1-1.6-1.8-3.4-1.6-5.4c0.2-1.6,1.1-3.1,2.1-4.4c1-1.3,2-1.8,3.5-2.1c1.5-0.3,3.1-0.2,4.6-0.1
							c2.8,0.3,5.7,1.2,8.1,2.7c0.7,0.5,1.6,1.2,1.8,1.9c0.3,0.8-0.1,2.4-1.4,2c-1.8-0.6-2.6,2.3-0.8,2.9c3.5,1.2,6.1-2.7,5-5.8
							c-0.9-2.5-3.6-4-5.8-4.9c-3-1.3-6.4-1.9-9.6-1.8c-1.6,0.1-3.3,0.2-4.8,0.9c-1.6,0.7-2.8,2.2-3.8,3.6c-1.1,1.6-1.9,3.4-2,5.4
							c-0.1,2.3,0.7,4.6,2,6.5C158.5,116.7,161.1,115.2,160,113.6L160,113.6z"/>
					</g>
				</g>
				<g>
					<g>
						<path class="st1" d="M167.8,131.6c4.2-20,7.8-40.1,11.9-60.2c1.2-5.8,2.4-11.6,3.6-17.4c0.3-1.4-1.9-2-2.2-0.6
							c-4.4,20.2-8.1,40.6-12.1,61c-1.1,5.5-2.2,11.1-3.4,16.6C165.4,132.4,167.6,133,167.8,131.6L167.8,131.6z"/>
					</g>
				</g>
				<g>
					<g>
						<path class="st4" d="M179.9,43.6c0.1,0,0.3,0,0.4-0.1c1.5-0.9,3-1.7,4.5-2.6c-0.6-4.1-1.3-8.2-1.8-11.6c-2,3-3.8,6.2-5.6,9.2
							c0.7,1.6,1.5,3.2,2.2,4.7C179.6,43.5,179.7,43.6,179.9,43.6z"/>
						<g>
							<path class="st1" d="M179.9,45.1c1.1-0.1,2-0.8,2.9-1.3c0.9-0.5,1.8-1,2.7-1.6c0.6-0.4,0.8-1,0.7-1.7
								c-0.6-3.9-1.2-7.7-1.8-11.6c-0.2-1.4-2.1-1.3-2.7-0.4c-1.7,2.5-3.2,5.2-4.8,7.8c-0.4,0.6-1,1.4-1,2.1c0,0.8,0.6,1.7,1,2.4
								c0.3,0.7,0.7,1.4,1,2.1c0.3,0.7,0.6,1.5,1.3,1.9c1.7,0.9,3.2-1.7,1.5-2.6c0.2,0.3,0.3,0.3,0.2,0.1c0-0.1-0.1-0.2-0.1-0.2
								c-0.1-0.2-0.2-0.4-0.3-0.6c-0.2-0.4-0.4-0.8-0.6-1.2c-0.4-0.8-0.8-1.7-1.2-2.5c0,0.5,0,1,0,1.5c1.8-3.1,3.6-6.2,5.6-9.2
								c-0.9-0.1-1.8-0.2-2.7-0.4c0.6,3.9,1.2,7.7,1.8,11.6c0.2-0.6,0.5-1.1,0.7-1.7c-1.5,0.9-3.1,1.9-4.7,2.6
								c0.3-0.1,0.5-0.1,0.8-0.2c-0.1,0-0.1,0-0.2,0c-0.8,0.1-1.5,0.6-1.5,1.5C178.4,44.4,179,45.2,179.9,45.1z"/>
						</g>
					</g>
					<g>
						<path class="st3" d="M180.2,43.5c-0.1,0.1-0.2,0.1-0.4,0.1c-0.2,0-0.2-0.2-0.3-0.3c-0.7-1.6-1.5-3.2-2.2-4.7
							c-0.8,1.3-1.5,2.5-2.3,3.7c-1.1,1.6-3.1,6.5-4.1,8.2l15.7,3.1c-0.6-3.7-1.3-8.1-2-12.6C183.2,41.8,181.7,42.7,180.2,43.5z"/>
						<g>
							<path class="st1" d="M179.5,42.3c-0.1,0-0.1,0.1-0.2,0.1c0.3-0.1,0.5-0.1,0.8-0.2c-0.1,0-0.1,0-0.2,0
								c0.3,0.1,0.5,0.1,0.8,0.2c0.3,0.2,0.2,0.3,0.1-0.1c-0.1-0.2-0.2-0.5-0.3-0.7c-0.2-0.4-0.4-0.8-0.6-1.3
								c-0.4-0.8-0.8-1.7-1.2-2.5c-0.5-1.1-2.1-0.9-2.6,0c-1.3,2.1-2.6,4.1-3.7,6.4c-0.9,1.8-1.7,3.7-2.7,5.5
								c-0.5,0.8-0.1,2,0.9,2.2c4.6,0.9,9.1,1.8,13.7,2.7c0.7,0.1,1.3,0.3,2,0.4c1.2,0.2,2-0.7,1.8-1.8c-0.6-4.2-1.3-8.4-2-12.6
								c-0.2-1-1.4-1.3-2.2-0.9C182.5,40.5,181,41.4,179.5,42.3c-1.7,1-0.2,3.5,1.5,2.6c1.5-0.9,3-1.7,4.5-2.6
								c-0.7-0.3-1.5-0.6-2.2-0.9c0.7,4.2,1.3,8.4,2,12.6c0.6-0.6,1.2-1.2,1.8-1.8c-4.6-0.9-9.1-1.8-13.7-2.7
								c-0.7-0.1-1.3-0.3-2-0.4c0.3,0.7,0.6,1.5,0.9,2.2c1-1.8,1.8-3.7,2.7-5.5c1.1-2.2,2.4-4.2,3.7-6.4c-0.9,0-1.7,0-2.6,0
								c0.6,1.3,1.2,2.6,1.8,3.9c0.3,0.6,0.5,1.3,1.1,1.6c0.7,0.4,1.3,0.3,2,0c0.7-0.4,0.9-1.4,0.5-2.1
								C181.1,42,180.2,41.9,179.5,42.3z"/>
						</g>
					</g>
				</g>
			</g>
		</g>
		<g>
			<path class="st5" d="M235.9,34.4c-1-2.6,0.7-5.5,3-7.1c3.6-2.5,8.6-2.6,12.4-0.5s6.1,6.6,5.7,11c-0.1,1.6-0.6,3.2-0.1,4.8
				c0.5,1.8,2.2,3,3.6,4.2c3.7,3.2,6.4,8,5.7,12.9s-5.7,9-10.4,7.7c-3.9-1.1-6.1-5.3-7.8-9c-3.8-8.4-7.6-16.7-11.4-25.1"/>
			<g>
				<path class="st1" d="M237.3,34c-1.2-3.3,2.4-5.9,5.1-6.7c3.1-0.9,6.6-0.4,9.2,1.6c2.5,2,4,5.2,4,8.4c-0.1,1.9-0.6,3.7-0.1,5.5
					c0.4,1.6,1.5,2.9,2.7,4c2.5,2.3,4.9,4.6,6,7.9c1,3.1,0.7,6.4-1.5,8.9c-2,2.2-5,3.3-7.7,1.8c-2.6-1.5-4.1-4.4-5.3-7
					c-4-8.6-7.8-17.3-11.7-25.9c-0.8-1.8-3.4-0.2-2.6,1.5c4,8.9,7.8,18,12.1,26.7c1.5,3.1,3.6,6.3,6.9,7.7c3.4,1.4,7.2,0.3,9.8-2.1
					c6.3-5.8,3.3-15.2-2.3-20.3c-1.3-1.2-3.3-2.4-3.6-4.2c-0.4-2,0.5-4.1,0.2-6.2c-0.4-3.8-2.5-7.3-5.7-9.5
					c-3.6-2.5-8.5-2.9-12.5-1.2c-3.8,1.6-7.5,5.6-5.9,10C235.1,36.6,238,35.8,237.3,34L237.3,34z"/>
			</g>
		</g>
		<g>
			<path class="st5" d="M232.8,31.2c9.2,11.8,16.1,25.5,20.1,39.9c1.8,0,3.2-1.8,3.4-3.5s-0.4-3.5-1.1-5.2
				c-3.7-9.6-7.3-19.1-12.3-28.1c-1.4-2.6-3.7-5.5-6.7-5c-0.9,0.2-1.8,0.7-2.6,1.2"/>
			<g>
				<path class="st1" d="M231.8,32.3c9,11.7,15.7,25,19.7,39.2c0.2,0.6,0.8,1.1,1.4,1.1c3.7-0.2,5.3-3.9,4.8-7.2c-0.3-2-1.2-4-2-5.9
					c-0.8-2-1.5-4-2.3-5.9c-1.6-3.9-3.2-7.8-5-11.7c-1.7-3.6-3.3-7.4-5.7-10.6c-1.1-1.5-2.5-2.9-4.3-3.4c-2-0.6-3.8,0.1-5.6,1.2
					c-1.6,1-0.1,3.6,1.5,2.6c1.6-1,2.9-1.4,4.5-0.2c1.4,1.1,2.3,2.8,3.1,4.3c2.1,3.8,3.9,7.7,5.6,11.7c1.7,4,3.3,8.1,4.9,12.1
					c0.8,2,1.8,4,2.1,6.1c0.2,1.4,0,3.7-1.8,3.8c0.5,0.4,1,0.7,1.4,1.1c-4.2-14.7-11.2-28.5-20.5-40.5c-0.5-0.6-1.6-0.5-2.1,0
					C231.1,30.8,231.3,31.6,231.8,32.3L231.8,32.3z"/>
			</g>
		</g>
		<g>
			<path class="st5" d="M257.2,43.6c0.6-2.5,2.7-4.6,5.2-5.3c2.5-0.7,5.4,0.1,7.2,2c0.6,0.6,1.1,1.7,0.4,2.3
				c-0.2,0.2-0.6,0.3-0.9,0.4c-3.4,0.8-6.9,1.2-10.4,1.1"/>
			<g>
				<path class="st1" d="M258.6,44c1-3.6,5-5.6,8.4-3.7c0.4,0.2,0.7,0.4,1.1,0.7c0.3,0.3,0.5,0.6,0.7,0.8c0,0.2,0.1,0.2,0,0.1
					c0-0.1,0-0.2,0.1-0.3c0.2-0.1,0.2-0.1,0-0.1c-0.1,0-0.3,0.1-0.4,0.1c-0.7,0.1-1.3,0.3-2,0.4c-2.6,0.5-5.2,0.6-7.8,0.6
					c-1.9,0-1.9,3,0,3c2.7,0,5.4-0.2,8-0.6c1.2-0.2,2.7-0.3,3.7-0.9c1.2-0.6,1.6-2,1.2-3.3c-0.8-2.1-3.1-3.4-5.2-4
					c-2.2-0.5-4.5-0.3-6.5,0.8c-2.1,1.2-3.7,3.2-4.3,5.5C255.3,45,258.1,45.8,258.6,44L258.6,44z"/>
			</g>
		</g>
		<g>
			<g>
				<g>
					<path d="M240.4,82.3c1.8-1.8,4.7-1.8,7-1.1c2.8,0.9,5,2.9,6.9,5c3.8,4.1,8.1,10.2,14.5,7.5c2.5-1.1,4.2-3.1,5.6-5.3
						c1.2-1.8,2.6-4.3,1.9-6.6c-0.6-1.9-2.7-3.3-4.4-4.1c-1.7-0.8-3.9-1.5-5.6-0.6c-2.2,1.2-3.3,4.4-3,6.7c0.4,3.2,3.2,3.1,5.8,2.3
						c1.8-0.6,1.1-3.5-0.8-2.9c-0.5,0.2-1.1,0.4-1.6,0.4c-0.1,0-0.4,0-0.5,0c-0.7,0.3,0.3-0.2,0,0c0.2-0.2,0.1,0.3,0.2,0.1
						c0,0-0.1-0.4-0.1-0.5c-0.1-0.5,0.1-1,0.2-1.5c0.4-1.4,1.1-2.3,2.6-2c1.5,0.3,3.2,1.1,4.1,2.3c1,1.2-0.3,3.1-1,4.1
						c-1,1.7-2.2,3.4-4,4.4c-2.1,1.2-4.3,0.9-6.2-0.6c-3.9-3.1-6.4-7.5-10.6-10.2c-3.9-2.4-9.8-3.2-13.2,0.4
						C236.9,81.6,239,83.7,240.4,82.3L240.4,82.3z"/>
				</g>
			</g>
			<g>
				<g>
					<path d="M240,82.1c2.8-2.3,6.9-1.8,10-0.3c3.5,1.7,6.1,4.5,9.3,6.6c2.8,1.9,6,2.6,9.3,1.9c3-0.7,5.7-2.6,7.3-5.3
						c1-1.7-1.6-3.2-2.6-1.5c-1.5,2.5-4.2,4.1-7.1,4.2c-3.7,0.1-6.5-2.6-9.2-4.7c-2.8-2.2-6-4.4-9.6-5.1c-3.4-0.6-6.8,0-9.5,2.2
						C236.4,81.2,238.6,83.3,240,82.1L240,82.1z"/>
				</g>
			</g>
			<g>
				<g>
					<path d="M259.5,89.2c1.2,1.7,3.2,2.5,5.3,2.8c2.2,0.3,4.3,0.2,6.4-0.5c0.8-0.3,1.3-1,1-1.8c-0.2-0.8-1.1-1.2-1.8-1
						c-0.9,0.2-1.8,0.4-2.8,0.6c-0.8,0.2-1.3,1.1-1,1.8c0.2,0.8,1.1,1.2,1.8,1c0.8-0.2,1.5-0.5,2.2-0.9c0.7-0.5,1-1.3,0.5-2.1
						c-0.4-0.7-1.4-1-2.1-0.5c-0.5,0.4-0.8,0.5-1.4,0.6c0.3,1,0.5,1.9,0.8,2.9c0.9-0.2,1.8-0.4,2.8-0.6c-0.3-1-0.5-1.9-0.8-2.9
						c-1.5,0.5-3.2,0.7-4.7,0.5c-0.8-0.1-1.6-0.3-2.3-0.6c-0.2-0.1-0.2-0.1-0.1,0c-0.1,0-0.2-0.1-0.3-0.1c-0.1-0.1-0.3-0.1-0.4-0.2
						c-0.1-0.1-0.2-0.1-0.3-0.2c0.1,0.1,0.1,0.1,0,0c0,0-0.4-0.4-0.3-0.3c-0.5-0.7-1.3-1-2.1-0.5C259.4,87.6,259,88.6,259.5,89.2
						L259.5,89.2z"/>
				</g>
			</g>
		</g>
		<g>
			<g>
				<g>
					<path d="M223.5,79c-1.5-4.1-5.7-6.1-9.9-5.8c-5.1,0.3-9.2,3.4-14,4.7c-2.2,0.6-4.1,0.3-5.5-1.5c-1.1-1.4-1.5-3.2-1.8-5
						c-0.2-1.1-0.7-3.6,0.5-4.2c1-0.6,2.8-0.3,3.9-0.1c2,0.5,2.2,1.8,2,3.7c-0.1,1.3,0.2-0.3,0.2-0.1c0,0-0.1,0.1-0.3,0.1
						c-0.2,0-0.5,0-0.7,0c-0.8-0.1-1.3-0.5-1.7-1.2c-0.8-1.7-3.4-0.2-2.6,1.5c0.9,1.8,3,2.8,4.9,2.7c2.4-0.1,3.3-1.9,3.2-4.2
						c0-2.2-1.1-4.2-3.2-5c-1.8-0.8-3.9-0.9-5.9-0.5c-4.9,1-3.9,7.6-2.6,11.1c0.8,2.2,2.3,4.3,4.4,5.3c2.8,1.3,5.8,0.4,8.5-0.7
						c3.2-1.3,6.4-3.2,9.9-3.6c2.9-0.4,6.5,0.5,7.6,3.6C221.2,81.6,224.1,80.8,223.5,79L223.5,79z"/>
				</g>
			</g>
			<g>
				<g>
					<path d="M189.5,71.9c2.1,4.5,6.2,5.9,10.9,5.8c2.3,0,4.5-0.4,6.8-1c2.6-0.6,5.5-1.4,8.2-0.7c1.9,0.5,2.7-2.4,0.8-2.9
						c-5-1.3-9.6,1.3-14.5,1.5c-1.7,0.1-3.5,0.2-5.2-0.3c-2.2-0.6-3.5-2-4.4-4C191.3,68.6,188.7,70.1,189.5,71.9L189.5,71.9z"/>
				</g>
			</g>
			<g>
				<g>
					<path d="M191.3,74.9c1.1,1.7,2.8,2.8,4.7,3.4c2.2,0.7,4.5,0.5,6.7,0c-0.5-0.8-1-1.7-1.5-2.5c0,0-0.3,0.3-0.2,0.2
						c0.1-0.1-0.1,0.1-0.1,0.1c-0.1,0-0.3,0.1-0.1,0.1c-0.1,0-0.2,0.1-0.3,0.1c-0.1,0-0.2,0.1-0.4,0.1c-0.1,0-0.4,0.1-0.1,0
						c-0.3,0-0.6,0.1-0.8,0.1c-0.6,0-1.1,0-1.7,0c-0.6,0-1.1-0.1-1.5-0.1c-0.1,1-0.3,2-0.4,2.9c1.5,0.2,2.9,0.4,4.4,0.6
						c0.8,0.1,1.5-0.8,1.5-1.5c0-0.9-0.7-1.4-1.5-1.5c-1.5-0.2-2.9-0.4-4.4-0.6c-0.7-0.1-1.4,0.6-1.5,1.3c-0.1,0.7,0.3,1.5,1.1,1.6
						c1.4,0.2,2.9,0.3,4.4,0.2c1.3-0.1,2.8-0.4,3.7-1.4c1-1.1,0-2.8-1.5-2.5c-1.6,0.3-3.4,0.5-5,0c-0.2-0.1-0.4-0.1-0.6-0.2
						c0,0-0.4-0.2-0.2-0.1c-0.4-0.2-0.7-0.4-1.1-0.6c-0.1-0.1-0.2-0.2-0.4-0.3c0.2,0.1-0.2-0.2-0.3-0.2c-0.1-0.1-0.3-0.3-0.4-0.4
						c-0.1-0.1-0.1-0.2-0.2-0.2c0.1,0.1,0.1,0.1,0-0.1c-0.5-0.7-1.3-1-2.1-0.5C191.2,73.3,190.8,74.3,191.3,74.9L191.3,74.9z"/>
				</g>
			</g>
		</g>
	</g>
	<g>
		<g>
			<path class="st2" d="M382.1,134c-24.8,1.7-48.2,3.1-73.6,5.5c-0.3-5.1-0.6-10.2-0.9-15.2c24.9-2.1,49-4.4,74.9-5.2L382.1,134z"/>
			<g>
				<path class="st1" d="M382.1,132.5c-19,1.3-38,2.5-57,4c-5.5,0.5-11.1,0.9-16.6,1.5c0.5,0.5,1,1,1.5,1.5
					c-0.3-5.1-0.6-10.2-0.9-15.2c-0.5,0.5-1,1-1.5,1.5c19.3-1.6,38.5-3.4,57.8-4.4c5.7-0.3,11.4-0.6,17.1-0.7c-0.5-0.5-1-1-1.5-1.5
					c-0.1,5-0.3,9.9-0.4,14.9c-0.1,1.9,2.9,1.9,3,0c0.1-5,0.3-9.9,0.4-14.9c0-0.8-0.7-1.5-1.5-1.5c-19.5,0.6-38.9,2.1-58.3,3.8
					c-5.5,0.5-11.1,0.9-16.6,1.4c-0.8,0.1-1.6,0.6-1.5,1.5c0.3,5.1,0.6,10.2,0.9,15.2c0,0.8,0.7,1.6,1.5,1.5
					c19.1-1.8,38.3-3.1,57.4-4.4c5.4-0.4,10.8-0.7,16.2-1.1C384,135.3,384,132.3,382.1,132.5z"/>
			</g>
		</g>
		<g>
			<g>
				<path class="st1" d="M382.2,122.4c-19,1.1-38,2.7-57,3.9c-5.6,0.4-11.2,0.7-16.8,1c-1.4,0.1-1.4,2.3,0,2.3
					c19.3-1,38.5-2.5,57.7-3.8c5.3-0.4,10.7-0.7,16-1C383.7,124.5,383.7,122.3,382.2,122.4L382.2,122.4z"/>
			</g>
		</g>
		<g>
			<g>
				<path class="st2" d="M300,133c0-0.1-0.1-0.2-0.2-0.3c-1.1-1.1-2.3-2.3-3.4-3.4c-3.6,1.6-7.1,3.2-10,4.4c3.2,1.1,6.5,1.9,9.6,2.8
					c1.2-1,2.5-2.1,3.7-3.1C299.9,133.2,300,133.1,300,133z"/>
				<g>
					<path class="st1" d="M301.5,132.6c-0.3-0.9-1.2-1.6-1.9-2.3c-0.7-0.7-1.4-1.4-2.1-2.1c-0.5-0.5-1.2-0.5-1.8-0.2
						c-3.3,1.5-6.7,3-10,4.4c-1.3,0.6-0.7,2.4,0.4,2.7c2.7,0.9,5.4,1.6,8.2,2.4c0.7,0.2,1.6,0.6,2.3,0.4c0.7-0.2,1.4-1,1.9-1.4
						c0.6-0.5,1.2-1,1.8-1.5c0.6-0.5,1.2-0.9,1.3-1.6c0.5-1.9-2.4-2.7-2.9-0.8c0.1-0.1,0.1-0.2,0.2-0.3c-0.1,0.1-0.2,0.2-0.3,0.3
						c-0.1,0.1-0.3,0.2-0.4,0.3c-0.3,0.3-0.7,0.6-1,0.9c-0.7,0.6-1.3,1.1-2,1.7c0.5-0.1,1-0.3,1.5-0.4c-3.2-0.9-6.5-1.7-9.6-2.8
						c0.1,0.9,0.2,1.8,0.4,2.7c3.4-1.5,6.7-3,10-4.4c-0.6-0.1-1.2-0.2-1.8-0.2c1.2,1.2,2.4,2.3,3.5,3.6c-0.1-0.2-0.3-0.4-0.4-0.7
						c0,0.1,0,0.1,0.1,0.2c0.3,0.8,1,1.3,1.8,1C301.2,134.2,301.7,133.3,301.5,132.6z"/>
				</g>
			</g>
			<g>
				<path class="st2" d="M299.8,132.7c0.1,0.1,0.2,0.2,0.2,0.3c0,0.1-0.1,0.3-0.2,0.4c-1.2,1-2.5,2.1-3.7,3.1
					c1.3,0.4,2.7,0.8,3.9,1.2c1.7,0.6,6.6,1.2,8.4,1.7l-1-14.9c-3.2,1.4-7,3.1-10.9,4.8C297.6,130.4,298.7,131.5,299.8,132.7z"/>
				<g>
					<path class="st1" d="M298.8,133.7c0,0,0.1,0.1,0.1,0.1c-0.1-0.2-0.3-0.4-0.4-0.7c0,0.1,0,0.1,0.1,0.2c0-0.3,0-0.5,0-0.8
						c0,0.1,0,0.1-0.1,0.2c0.1-0.2,0.3-0.4,0.4-0.7c-1.2,1.2-2.6,2.2-3.9,3.3c-0.9,0.7-0.4,2.2,0.7,2.5c2.2,0.6,4.4,1.4,6.6,1.8
						c1.9,0.4,3.8,0.6,5.6,1.1c0.9,0.2,2-0.5,1.9-1.4c-0.3-4.3-0.6-8.7-0.9-13c0-0.6-0.1-1.3-0.1-1.9c-0.1-1.2-1.2-1.8-2.3-1.3
						c-3.6,1.6-7.2,3.2-10.9,4.8c-0.9,0.4-0.9,1.7-0.3,2.4C296.5,131.4,297.6,132.6,298.8,133.7c1.4,1.4,3.5-0.7,2.1-2.1
						c-1.1-1.1-2.3-2.3-3.4-3.4c-0.1,0.8-0.2,1.6-0.3,2.4c3.6-1.6,7.2-3.2,10.9-4.8c-0.8-0.4-1.5-0.9-2.3-1.3
						c0.3,4.3,0.6,8.7,0.9,13c0,0.6,0.1,1.3,0.1,1.9c0.6-0.5,1.3-1,1.9-1.4c-1.8-0.5-3.8-0.7-5.6-1.1c-2.3-0.4-4.4-1.2-6.6-1.8
						c0.2,0.8,0.4,1.7,0.7,2.5c1-0.8,2-1.7,3-2.5c0.5-0.4,1.1-0.8,1.3-1.5c0.3-0.8,0-1.4-0.5-2c-0.5-0.6-1.6-0.5-2.1,0
						C298.2,132.2,298.3,133.1,298.8,133.7z"/>
				</g>
			</g>
		</g>
	</g>
	<g>
		<g>
			<path class="st6" d="M128.9,136.6c-25.9,6-50.4,11.5-76.9,18.3c-1.2-5.3-2.4-10.6-3.5-15.9c26-6.4,51-13,78.3-18.2L128.9,136.6z"
				/>
			<g>
				<path d="M128.5,135.2c-19.9,4.6-39.8,9.1-59.6,14c-5.8,1.4-11.6,2.9-17.3,4.4c0.6,0.3,1.2,0.7,1.8,1c-1.2-5.3-2.4-10.6-3.5-15.9
					c-0.3,0.6-0.7,1.2-1,1.8c20.2-5,40.3-10.2,60.7-14.6c5.9-1.3,11.7-2.5,17.6-3.6c-0.6-0.5-1.3-1-1.9-1.4
					c0.7,5.3,1.4,10.5,2.1,15.8c0.1,0.8,0.6,1.5,1.5,1.5c0.7,0,1.6-0.7,1.5-1.5c-0.7-5.3-1.4-10.5-2.1-15.8c-0.1-1-0.8-1.6-1.9-1.4
					c-20.6,4-41,8.9-61.3,14c-5.7,1.4-11.3,2.8-17,4.2c-0.8,0.2-1.2,1.1-1,1.8c1.2,5.3,2.4,10.6,3.5,15.9c0.2,0.8,1.1,1.2,1.8,1
					c19.9-5.2,39.9-9.8,59.9-14.4c5.7-1.3,11.3-2.6,17-3.9C131.2,137.6,130.4,134.8,128.5,135.2z"/>
			</g>
		</g>
		<g>
			<g>
				<path class="st1" d="M127,124.5c-19.9,4.4-39.7,9.3-59.6,13.8c-5.8,1.3-11.7,2.6-17.5,3.9c-1.4,0.3-0.8,2.5,0.6,2.2
					c20.2-4.3,40.3-9.2,60.4-13.9c5.6-1.3,11.1-2.6,16.7-3.8C129,126.3,128.4,124.2,127,124.5L127,124.5z"/>
			</g>
		</g>
		<g>
			<g>
				<path class="st6" d="M42,149.6c0-0.1-0.1-0.2-0.2-0.3c-1.4-1-2.8-2-4.2-3c-3.5,2.3-7,4.5-9.9,6.4c3.5,0.6,7.2,0.9,10.7,1.3
					c1.1-1.3,2.3-2.6,3.4-4C41.9,149.9,42,149.7,42,149.6z"/>
				<g>
					<path d="M43.3,148.8c-0.5-0.9-1.6-1.5-2.4-2c-0.8-0.6-1.7-1.2-2.5-1.8c-0.4-0.3-1.1-0.3-1.5,0c-3.3,2.1-6.6,4.3-9.9,6.4
						c-1,0.6-1,2.5,0.4,2.7c3,0.5,6.1,0.8,9.1,1.1c0.7,0.1,1.5,0.3,2.2,0.2c0.9-0.1,1.4-1,1.9-1.7c0.5-0.6,1-1.1,1.4-1.7
						c0.5-0.6,1.3-1.3,1.5-2.1c0.2-0.8-0.2-1.6-1-1.8c-0.7-0.2-1.7,0.2-1.8,1c0-0.2-0.2,0.2-0.2,0.3c-0.1,0.1-0.2,0.3-0.4,0.4
						c-0.3,0.3-0.6,0.7-0.9,1c-0.6,0.7-1.1,1.3-1.7,2c0.4-0.1,0.7-0.3,1.1-0.4c-3.4-0.4-6.9-0.7-10.3-1.3c0.1,0.9,0.2,1.8,0.4,2.7
						c3.3-2.1,6.6-4.3,9.9-6.4c-0.5,0-1,0-1.5,0c0.7,0.5,1.4,1,2.1,1.5c0.3,0.2,0.7,0.5,1,0.7c0.1,0.1,0.3,0.2,0.4,0.3
						c0.1,0.1,0.5,0.5,0.4,0.2C41.6,152,44.2,150.5,43.3,148.8z"/>
				</g>
			</g>
			<g>
				<path class="st3" d="M41.8,149.3c0.1,0.1,0.2,0.2,0.2,0.3c0,0.2-0.1,0.3-0.2,0.4c-1.1,1.3-2.3,2.6-3.4,4
					c1.5,0.2,2.9,0.3,4.3,0.6c1.9,0.3,7.2,0.2,9.1,0.4l-3.6-15.6c-3.1,2-6.9,4.5-10.7,6.9C39,147.2,40.4,148.3,41.8,149.3z"/>
				<g>
					<path class="st1" d="M40.7,150.3C40.7,150.3,40.7,150.3,40.7,150.3c0-0.4-0.1-0.8-0.1-1.2c0,0.2-0.5,0.5-0.6,0.7
						c-0.3,0.3-0.6,0.7-0.9,1c-0.6,0.7-1.1,1.3-1.7,2c-0.9,1-0.2,2.4,1.1,2.6c2.5,0.3,4.9,0.7,7.3,0.8c2,0.1,4.1,0,6.1,0.2
						c1,0.1,1.6-1,1.4-1.9c-1-4.6-2.1-9.1-3.1-13.7c-0.1-0.6-0.3-1.3-0.4-1.9c-0.2-0.9-1.4-1.4-2.2-0.9c-3.6,2.3-7.1,4.6-10.7,6.9
						c-1,0.7-0.9,1.9,0,2.6c1.4,1,2.8,2,4.2,3c0.7,0.5,1.7,0.1,2.1-0.5c0.4-0.8,0.1-1.6-0.5-2.1c-1.4-1-2.8-2-4.2-3
						c0,0.9,0,1.7,0,2.6c3.6-2.3,7.1-4.6,10.7-6.9c-0.7-0.3-1.5-0.6-2.2-0.9c1,4.6,2.1,9.1,3.1,13.7c0.1,0.6,0.3,1.3,0.4,1.9
						c0.5-0.6,1-1.3,1.4-1.9c-2-0.2-4.1-0.1-6.1-0.2c-0.5,0-1,0-1.5-0.1c-0.2,0-0.4,0-0.7,0c-0.1,0-0.7-0.1-0.3,0
						c-1.6-0.2-3.2-0.5-4.8-0.6c0.4,0.9,0.7,1.7,1.1,2.6c0.9-1,1.8-2.1,2.7-3.1c0.4-0.5,1-1,1.2-1.7c0.2-0.7,0-1.5-0.6-2
						c-0.6-0.5-1.5-0.6-2.1,0C40.2,148.7,40.1,149.8,40.7,150.3z"/>
				</g>
			</g>
		</g>
	</g>
	<g>
		<g>
			<path class="st5" d="M317,65.9c24.7,2.8,48,5.6,73.4,7.8c-0.6,5.1-1.2,10.1-1.9,15.2c-24.9-2.4-49-4.5-74.6-8.4L317,65.9z"/>
			<g>
				<path class="st1" d="M317,67.4c18.9,2.1,37.9,4.4,56.8,6.3c5.5,0.5,11.1,1.1,16.6,1.5c-0.5-0.5-1-1-1.5-1.5
					c-0.6,5.1-1.2,10.1-1.9,15.2c0.5-0.5,1-1,1.5-1.5c-19.2-1.9-38.4-3.6-57.6-6c-5.6-0.7-11.1-1.5-16.6-2.3c0.3,0.6,0.7,1.2,1,1.8
					c1-4.9,2-9.7,3.1-14.6c0.4-1.9-2.5-2.7-2.9-0.8c-1,4.9-2,9.7-3.1,14.6c-0.2,0.7,0.2,1.7,1,1.8c19.4,2.9,38.9,4.9,58.4,6.8
					c5.6,0.5,11.1,1.1,16.7,1.6c0.9,0.1,1.4-0.8,1.5-1.5c0.6-5.1,1.2-10.1,1.9-15.2c0.1-0.9-0.8-1.4-1.5-1.5
					c-19.1-1.6-38.2-3.8-57.3-6c-5.4-0.6-10.8-1.2-16.2-1.8C315.1,64.2,315.1,67.2,317,67.4z"/>
			</g>
		</g>
		<g>
			<g>
				<path class="st1" d="M315,77.3c18.9,2.3,37.8,4.2,56.7,6.4c5.6,0.7,11.1,1.3,16.7,2.1c1.4,0.2,1.4-2.1,0-2.2
					c-19.1-2.5-38.3-4.4-57.5-6.6c-5.3-0.6-10.6-1.2-15.9-1.9C313.6,74.9,313.6,77.1,315,77.3L315,77.3z"/>
			</g>
		</g>
		<g>
			<g>
				<path class="st5" d="M397.6,81.6c0,0.1,0.1,0.2,0.1,0.3c0.9,1.3,1.8,2.7,2.7,4c3.8-0.9,7.6-1.8,10.7-2.6c-2.9-1.6-6.1-3.1-9-4.5
					c-1.4,0.8-2.8,1.6-4.3,2.4C397.8,81.4,397.6,81.4,397.6,81.6z"/>
				<g>
					<path class="st1" d="M396.2,82c0.1,0.8,0.9,1.7,1.4,2.4c0.5,0.8,1.1,1.6,1.6,2.3c0.4,0.6,1,0.9,1.7,0.7
						c3.6-0.9,7.1-1.7,10.7-2.6c1.3-0.3,1.5-2.1,0.4-2.7c-2.5-1.4-5.1-2.6-7.7-3.8c-0.6-0.3-1.4-0.8-2.1-0.8c-0.7,0-1.6,0.7-2.2,1
						c-0.6,0.4-1.3,0.7-1.9,1.1c-0.6,0.3-1.4,0.7-1.7,1.4c-0.3,0.7-0.2,1.6,0.5,2.1c0.6,0.4,1.7,0.2,2.1-0.5
						c-0.3,0.2-0.3,0.3-0.1,0.2c0.1,0,0.1-0.1,0.2-0.1c0.2-0.1,0.4-0.2,0.6-0.3c0.4-0.2,0.7-0.4,1.1-0.6c0.7-0.4,1.5-0.8,2.2-1.3
						c-0.5,0-1,0-1.5,0c3,1.5,6.1,2.8,9,4.5c0.1-0.9,0.2-1.8,0.4-2.7c-3.6,0.9-7.1,1.7-10.7,2.6c0.6,0.2,1.1,0.5,1.7,0.7
						c-0.5-0.7-1-1.4-1.4-2.1c-0.2-0.3-0.5-0.7-0.7-1c-0.2-0.2-0.6-0.7-0.6-0.9c-0.1-0.8-1.1-1.2-1.8-1
						C396.4,80.4,396,81.2,396.2,82z"/>
				</g>
			</g>
			<g>
				<path class="st3" d="M397.7,81.9c-0.1-0.1-0.1-0.2-0.1-0.3c0-0.1,0.2-0.2,0.3-0.3c1.4-0.8,2.8-1.6,4.3-2.4
					c-1.3-0.6-2.5-1.2-3.6-1.8c-1.6-0.9-6.3-2.4-7.9-3.2l-1.7,14.9c3.4-0.8,7.5-1.8,11.6-2.8C399.5,84.6,398.6,83.3,397.7,81.9z"/>
				<g>
					<path class="st1" d="M399,81.2C399,81.2,399,81.2,399,81.2c0,0.4-0.1,0.8-0.1,1.2c-0.1,0.2-0.4,0.3,0,0.1
						c0.2-0.1,0.4-0.2,0.6-0.4c0.4-0.2,0.8-0.4,1.1-0.6c0.8-0.4,1.5-0.9,2.3-1.3c0.9-0.5,1-2.1,0-2.6c-2.1-1-4.2-2.2-6.4-3
						c-1-0.4-2-0.7-2.9-1.1c-0.5-0.2-0.9-0.4-1.4-0.5c-0.1,0-0.2-0.1-0.3-0.1c0,0-0.3-0.1-0.2-0.1c0.1,0-0.3-0.1-0.4-0.2
						c-1.1-0.5-2.1,0.1-2.3,1.3c-0.5,4.3-1,8.7-1.5,13c-0.1,0.6-0.1,1.2-0.2,1.9c-0.1,1,1,1.6,1.9,1.4c3.9-0.9,7.7-1.9,11.6-2.8
						c0.9-0.2,1.4-1.4,0.9-2.2C400.8,83.8,399.9,82.5,399,81.2c-0.5-0.7-1.3-1-2.1-0.5c-0.7,0.4-1,1.4-0.5,2.1
						c0.9,1.3,1.8,2.7,2.7,4c0.3-0.7,0.6-1.5,0.9-2.2c-3.9,0.9-7.7,1.9-11.6,2.8c0.6,0.5,1.3,1,1.9,1.4c0.5-4.3,1-8.7,1.5-13
						c0.1-0.6,0.1-1.2,0.2-1.9c-0.8,0.4-1.5,0.9-2.3,1.3c1.8,0.8,3.7,1.4,5.5,2.2c0.9,0.3,1.4,0.5,2.2,0.9c1.3,0.6,2.5,1.3,3.8,1.9
						c0-0.9,0-1.7,0-2.6c-1.2,0.7-2.3,1.3-3.5,2c-0.5,0.3-1.2,0.6-1.5,1.1c-0.4,0.6-0.3,1.4,0.1,2C397.4,84.3,400,82.8,399,81.2z"/>
				</g>
			</g>
		</g>
	</g>
	<g>
		<g>
			<path class="st4" d="M326.4,102.3c22.2,14.5,43.2,28.4,66.5,42.8c-3,4.5-6,9.1-9.1,13.6c-22.6-14.3-44.7-27.8-67.4-43.9
				L326.4,102.3z"/>
			<g>
				<path class="st1" d="M325.6,103.6c17.1,11.1,34.1,22.4,51.3,33.3c5,3.2,10.1,6.3,15.2,9.5c-0.2-0.7-0.4-1.4-0.5-2.1
					c-3,4.5-6,9.1-9.1,13.6c0.7-0.2,1.4-0.4,2.1-0.5c-17.5-11.1-35.2-22-52.4-33.5c-5-3.4-10-6.8-15-10.3c0.1,0.8,0.2,1.6,0.3,2.4
					c3.3-4.2,6.6-8.3,9.9-12.5c1.2-1.5-0.9-3.6-2.1-2.1c-3.3,4.2-6.6,8.3-9.9,12.5c-0.6,0.8-0.5,1.8,0.3,2.4
					c17.1,12.1,34.7,23.3,52.4,34.4c5,3.1,10,6.3,15,9.4c0.7,0.5,1.6,0.1,2.1-0.5c3-4.5,6-9.1,9.1-13.6c0.5-0.7,0.1-1.6-0.5-2.1
					c-17.5-10.8-34.7-22-51.9-33.2c-4.9-3.2-9.7-6.4-14.6-9.5C325.5,100,324,102.6,325.6,103.6z"/>
			</g>
		</g>
		<g>
			<g>
				<path class="st1" d="M319,112.2c17,11.3,34.3,22.2,51.4,33.5c5,3.3,9.9,6.6,14.8,9.9c1.2,0.8,2.3-1.1,1.1-1.9
					c-17.1-11.6-34.6-22.7-52-34c-4.7-3.1-9.5-6.2-14.2-9.3C318.9,109.4,317.8,111.4,319,112.2L319,112.2z"/>
			</g>
		</g>
		<g>
			<g>
				<path class="st4" d="M395.9,156.1c-0.1,0.1-0.1,0.2,0,0.4c0.2,1.7,0.5,3.4,0.7,5.1c4.1,0.9,8.1,1.9,11.5,2.7
					c-2-3-4.3-5.8-6.4-8.6c-1.7,0.1-3.5,0.2-5.2,0.3C396.2,155.9,396,156,395.9,156.1z"/>
				<g>
					<path class="st1" d="M394.5,155.7c-0.2,0.5-0.1,1.1,0,1.6c0.1,0.5,0.1,1,0.2,1.5c0.1,1,0.3,2.1,0.4,3.1c0.1,0.5,0.6,0.9,1,1
						c3.8,0.9,7.6,1.8,11.5,2.7c1.2,0.3,2.5-1.1,1.7-2.2c-1.7-2.5-3.6-5-5.5-7.4c-0.4-0.5-0.9-1.4-1.5-1.7c-0.7-0.4-1.9-0.1-2.7-0.1
						c-0.8,0-1.6,0.1-2.4,0.1c-0.9,0-1.7,0-2.4,0.6c-0.6,0.5-0.5,1.6,0,2.1c0.6,0.6,1.5,0.5,2.1,0c0,0,0.1-0.1,0.1-0.1
						c-0.2,0.1-0.4,0.3-0.7,0.4c-0.2,0.1,0.3,0,0.4,0c0.2,0,0.5,0,0.7,0c0.4,0,0.9,0,1.3-0.1c0.9,0,1.8-0.1,2.7-0.1
						c-0.4-0.2-0.9-0.5-1.3-0.7c2.2,2.8,4.4,5.6,6.4,8.6c0.6-0.7,1.1-1.5,1.7-2.2c-3.8-0.9-7.6-1.8-11.5-2.7c0.3,0.3,0.7,0.7,1,1
						c-0.1-0.9-0.2-1.8-0.4-2.7c-0.1-0.4-0.1-0.9-0.2-1.3c0-0.2-0.1-0.5-0.1-0.7c0-0.3,0.1-0.2,0,0c0.3-0.7-0.3-1.6-1-1.8
						C395.4,154.4,394.8,154.9,394.5,155.7z"/>
				</g>
			</g>
			<g>
				<path class="st3" d="M395.9,156.5c0-0.1,0-0.3,0-0.4c0.1-0.1,0.3-0.1,0.4-0.2c1.7-0.1,3.5-0.2,5.2-0.3c-0.9-1.2-1.8-2.4-2.6-3.5
					c-1.1-1.6-4.9-5.3-6-6.8l-8.8,13.4c3.6,0.9,8,1.9,12.4,2.9C396.3,159.9,396.1,158.2,395.9,156.5z"/>
				<g>
					<path class="st1" d="M397.4,156.5C397.4,156.5,397.3,156.5,397.4,156.5c-0.2,0.3-0.5,0.6-0.7,0.9c0.1,0,0.8,0,1,0
						c0.4,0,0.9,0,1.3-0.1c0.9,0,1.7-0.1,2.6-0.1c1-0.1,2-1.3,1.3-2.3c-1.6-2-3-4.2-4.7-6.1c-1.4-1.5-2.9-3-4.1-4.6
						c-0.6-0.8-1.9-0.4-2.4,0.3c-2.6,3.9-5.1,7.8-7.7,11.7c-0.4,0.6-0.7,1.1-1.1,1.7c-0.5,0.8,0,2,0.9,2.2c4.1,1,8.3,1.9,12.4,2.9
						c1.2,0.3,2-0.7,1.8-1.8c-0.2-1.7-0.5-3.4-0.7-5.1c-0.1-0.8-1.1-1.2-1.8-1c-0.9,0.2-1.2,1-1,1.8c0.2,1.7,0.5,3.4,0.7,5.1
						c0.6-0.6,1.2-1.2,1.8-1.8c-4.1-1-8.3-1.9-12.4-2.9c0.3,0.7,0.6,1.5,0.9,2.2c2.6-3.9,5.1-7.8,7.7-11.7c0.4-0.6,0.7-1.1,1.1-1.7
						c-0.8,0.1-1.6,0.2-2.4,0.3c1.2,1.6,2.7,2.9,4,4.4c1.7,1.8,2.8,3.6,4.4,5.6c0.4-0.8,0.9-1.5,1.3-2.3c-1.4,0.1-2.8,0.1-4.2,0.2
						c-0.6,0-1.4,0-2,0.3c-0.7,0.4-1,1-1,1.8C394.5,158.4,397.5,158.4,397.4,156.5z"/>
				</g>
			</g>
		</g>
	</g>
	<g>
		<defs>
			<path id="SVGID_1_" d="M406.6,181.5H24.4c-9.6,0-17.4-7.8-17.4-17.4V25.9c0-9.6,7.8-17.4,17.4-17.4h382.2
				c9.6,0,17.4,7.8,17.4,17.4v138.2C424,173.7,416.2,181.5,406.6,181.5z"/>
		</defs>
		<clipPath id="SVGID_2_">
			<use xlink:href="#SVGID_1_"  style="overflow:visible;"/>
		</clipPath>
		<g class="st7">
			<g>
				<path class="st2" d="M-9.6,75.3c22.6,10.2,43.9,20.1,67.5,30c-2.1,4.6-4.3,9.2-6.4,13.9c-23-10-45.3-19.3-68.5-30.9L-9.6,75.3z"
					/>
				<g>
					<path class="st1" d="M-10.4,76.6c17.5,7.9,34.9,15.9,52.5,23.5c5.1,2.2,10.2,4.4,15.4,6.6c-0.3-0.7-0.6-1.5-0.9-2.2
						c-2.1,4.6-4.3,9.2-6.4,13.9c0.7-0.2,1.4-0.4,2.1-0.5c-17.8-7.7-35.6-15.3-53.2-23.5c-5.1-2.4-10.2-4.9-15.3-7.4
						c0.2,0.7,0.4,1.4,0.5,2.1c2.5-4.3,4.9-8.6,7.4-12.9c1-1.7-1.6-3.2-2.6-1.5c-2.5,4.3-4.9,8.6-7.4,12.9c-0.4,0.7-0.2,1.7,0.5,2.1
						c17.5,8.7,35.4,16.6,53.3,24.3c5.1,2.2,10.1,4.4,15.2,6.5c0.7,0.3,1.7,0.3,2.1-0.5c2.1-4.6,4.3-9.2,6.4-13.9
						c0.4-1,0.1-1.8-0.9-2.2c-17.6-7.4-35-15.3-52.4-23.1C1,78.4-3.9,76.2-8.8,74C-10.6,73.2-12.1,75.8-10.4,76.6z"/>
				</g>
			</g>
			<g>
				<g>
					<path class="st1" d="M-15.2,85.4c17.3,8,34.7,15.6,52,23.5c5.1,2.3,10.2,4.7,15.3,7.1c1.3,0.6,2.4-1.3,1.1-1.9
						c-17.4-8.3-35.1-16-52.7-23.9c-4.9-2.2-9.7-4.4-14.6-6.7C-15.4,82.9-16.6,84.8-15.2,85.4L-15.2,85.4z"/>
				</g>
			</g>
			<g>
				<g>
					<path class="st2" d="M62.3,115c-0.1,0.1,0,0.2,0,0.4c0.5,1.5,0.9,3.1,1.4,4.6c3.9,0.3,7.7,0.6,11,0.8c-2.3-2.5-4.8-4.8-7.2-7
						c-1.6,0.3-3.2,0.7-4.8,1C62.5,114.8,62.3,114.8,62.3,115z"/>
					<g>
						<path class="st1" d="M60.8,114.6c-0.2,1,0.3,2,0.6,3c0.3,0.9,0.6,1.9,0.8,2.8c0.2,0.7,0.8,1.1,1.4,1.1c3.7,0.3,7.3,0.5,11,0.8
							c1.4,0.1,1.9-1.7,1.1-2.6c-1.9-2.1-4-4-6-5.9c-0.5-0.5-1-1.1-1.6-1.4c-0.7-0.3-1.8,0.1-2.5,0.2c-0.7,0.1-1.4,0.3-2.2,0.4
							c-0.7,0.2-1.6,0.2-2.1,0.8c-0.5,0.6-0.6,1.5,0,2.1c0.5,0.5,1.6,0.6,2.1,0c-0.3,0.2-0.4,0.2-0.2,0.2c0.1,0,0.2,0,0.4-0.1
							c0.2,0,0.3-0.1,0.5-0.1c0.4-0.1,0.9-0.2,1.3-0.3c0.8-0.2,1.7-0.3,2.5-0.5c-0.5-0.1-1-0.3-1.5-0.4c2.4,2.3,4.9,4.6,7.2,7
							c0.4-0.9,0.7-1.7,1.1-2.6c-3.7-0.3-7.3-0.6-11-0.8c0.5,0.4,1,0.7,1.4,1.1c-0.5-1.6-1.1-3.2-1.4-4.8c0,0.3,0,0.5,0,0.8
							c0-0.1,0-0.1,0-0.2c0.1-0.8-0.2-1.6-1-1.8C62,113.3,60.9,113.8,60.8,114.6z"/>
					</g>
				</g>
				<g>
					<path class="st3" d="M62.3,115.3c0-0.1-0.1-0.2,0-0.4c0.1-0.1,0.2-0.2,0.4-0.2c1.6-0.3,3.2-0.7,4.8-1c-1-1-2-1.9-2.9-2.9
						c-1.2-1.3-5.3-4.2-6.6-5.4l-6.2,13.6c3.5,0.3,7.7,0.6,11.9,0.9C63.2,118.4,62.7,116.9,62.3,115.3z"/>
					<g>
						<path class="st1" d="M63.7,114.9c0-0.1,0-0.1,0-0.2c0,0.3,0,0.5,0,0.8c0-0.1,0-0.1,0-0.2c-0.1,0.2-0.3,0.4-0.4,0.7
							c-0.2,0.2-0.4,0.2,0,0.1c0.2,0,0.4-0.1,0.6-0.1c0.4-0.1,0.9-0.2,1.3-0.3c0.8-0.2,1.7-0.4,2.5-0.5c1.1-0.2,1.4-1.8,0.7-2.5
							c-1.7-1.6-3.2-3.3-5-4.7c-1.5-1.2-3.1-2.3-4.4-3.6c-0.6-0.6-1.9-0.6-2.4,0.3c-1.8,4-3.6,7.9-5.4,11.9
							c-0.3,0.6-0.5,1.1-0.8,1.7c-0.5,1.1,0.1,2.2,1.3,2.3c4,0.3,7.9,0.6,11.9,0.9c1,0.1,1.7-1,1.4-1.9
							C64.6,118,64.2,116.5,63.7,114.9c-0.5-1.8-3.4-1.1-2.9,0.8c0.5,1.5,0.9,3.1,1.4,4.6c0.5-0.6,1-1.3,1.4-1.9
							c-4-0.3-7.9-0.6-11.9-0.9c0.4,0.8,0.9,1.5,1.3,2.3c1.8-4,3.6-7.9,5.4-11.9c0.3-0.6,0.5-1.1,0.8-1.7c-0.8,0.1-1.6,0.2-2.4,0.3
							c1.4,1.3,3,2.4,4.4,3.6c1.8,1.4,3.3,3.1,5,4.7c0.2-0.8,0.4-1.7,0.7-2.5c-1.3,0.3-2.7,0.6-4,0.8c-0.6,0.1-1.2,0.2-1.7,0.6
							c-0.5,0.5-0.6,1.2-0.5,1.9C61.3,117.6,64.1,116.8,63.7,114.9z"/>
					</g>
				</g>
			</g>
		</g>
		<g class="st7">
			<g>
				<path class="st5" d="M5,58.3c24.8-0.2,48.3-0.1,73.8-1c0,5.1,0,10.2,0,15.3c-25,0.5-49.2,1.4-75.1,0.6L5,58.3z"/>
				<g>
					<path class="st1" d="M5,59.8c19.1-0.1,38.1-0.1,57.2-0.5c5.6-0.1,11.1-0.3,16.7-0.4c-0.5-0.5-1-1-1.5-1.5c0,5.1,0,10.2,0,15.3
						c0.5-0.5,1-1,1.5-1.5c-19.4,0.4-38.8,1-58.1,0.9c-5.7,0-11.3-0.1-17-0.3c0.5,0.5,1,1,1.5,1.5c0.4-4.9,0.9-9.9,1.3-14.8
						c0.2-1.9-2.8-1.9-3,0c-0.4,4.9-0.9,9.9-1.3,14.8c-0.1,0.8,0.7,1.5,1.5,1.5c19.5,0.6,39.1,0.3,58.6-0.2c5.5-0.1,11-0.3,16.5-0.4
						c0.8,0,1.5-0.7,1.5-1.5c0-5.1,0-10.2,0-15.3c0-0.8-0.7-1.5-1.5-1.5c-19.2,0.6-38.4,0.8-57.6,0.9c-5.4,0-10.8,0.1-16.3,0.1
						C3.1,56.8,3.1,59.8,5,59.8z"/>
				</g>
			</g>
			<g>
				<g>
					<path class="st1" d="M4.2,69.9c19,0.1,38.1-0.4,57.1-0.4c5.6,0,11.2,0,16.8,0.1c1.4,0,1.4-2.2,0-2.2
						c-19.3-0.2-38.6,0.2-57.9,0.3c-5.3,0-10.7,0.1-16,0C2.8,67.6,2.8,69.9,4.2,69.9L4.2,69.9z"/>
				</g>
			</g>
			<g>
				<g>
					<path class="st5" d="M86.9,64.3c0,0.1,0.1,0.2,0.2,0.3c1.1,1.2,2.1,2.4,3.2,3.6c3.7-1.4,7.3-2.7,10.3-3.8
						c-3.1-1.3-6.4-2.3-9.5-3.4c-1.3,1-2.6,1.9-3.9,2.9C87,64.1,86.9,64.2,86.9,64.3z"/>
					<g>
						<path class="st1" d="M85.4,64.7c0.3,0.9,1.2,1.7,1.8,2.4c0.6,0.7,1.3,1.5,1.9,2.2c0.3,0.4,1,0.6,1.5,0.4
							c3.4-1.3,6.9-2.6,10.3-3.8c1.5-0.5,1.4-2.3,0-2.9c-2.6-1.1-5.3-2-8-2.9c-0.7-0.2-1.5-0.7-2.2-0.5c-0.7,0.2-1.3,0.9-1.9,1.3
							c-0.6,0.5-1.2,0.9-1.9,1.4c-0.6,0.5-1.2,0.8-1.5,1.6c-0.6,1.9,2.3,2.6,2.9,0.8c0,0,0-0.1,0-0.1c-0.1,0.2-0.3,0.4-0.4,0.7
							c0.4-0.5,1.2-0.9,1.8-1.3c0.7-0.5,1.4-1,2.1-1.5c-0.4,0.1-0.8,0.1-1.2,0.2c3.2,1.1,6.4,2.1,9.5,3.4c0-1,0-1.9,0-2.9
							c-3.4,1.3-6.9,2.5-10.3,3.8c0.5,0.1,1,0.3,1.5,0.4c-0.5-0.6-1.1-1.2-1.6-1.8c-0.2-0.3-0.5-0.5-0.7-0.8
							c-0.1-0.2-0.3-0.3-0.4-0.5c-0.1-0.1-0.3-0.5-0.2-0.2C87.8,62.1,84.9,62.9,85.4,64.7z"/>
					</g>
				</g>
				<g>
					<path class="st3" d="M87,64.7c-0.1-0.1-0.2-0.2-0.2-0.3c0-0.1,0.1-0.3,0.3-0.3c1.3-1,2.6-1.9,3.9-2.9c-1.3-0.5-2.6-0.9-3.8-1.4
						C85.6,59,80.7,58,79,57.5l0.1,15c3.2-1.2,7.2-2.7,11.1-4.1C89.1,67.1,88.1,65.9,87,64.7z"/>
					<g>
						<path class="st1" d="M88.3,63.9C88.3,63.9,88.3,63.9,88.3,63.9c-0.1,0.4-0.1,0.8-0.2,1.2c0,0.1,0.1-0.1,0.2-0.1
							c0.2-0.1,0.3-0.2,0.5-0.3c0.3-0.3,0.7-0.5,1-0.8c0.7-0.5,1.3-1,2-1.5c1-0.8,0.9-2.3-0.4-2.7c-2.2-0.7-4.3-1.6-6.5-2.2
							c-1.8-0.5-3.7-0.8-5.6-1.4c-0.9-0.3-1.9,0.5-1.9,1.4c0,4.4,0,8.7,0.1,13.1c0,0.6,0,1.3,0,1.9c0,0.9,1,1.8,1.9,1.4
							c3.7-1.4,7.4-2.8,11.1-4.1c1.1-0.4,1.4-1.6,0.7-2.5c-1.1-1.2-2.1-2.4-3.2-3.6c-0.5-0.6-1.6-0.5-2.1,0c-0.6,0.6-0.5,1.5,0,2.1
							c1.1,1.2,2.1,2.4,3.2,3.6c0.2-0.8,0.4-1.7,0.7-2.5c-3.7,1.4-7.4,2.8-11.1,4.1c0.6,0.5,1.3,1,1.9,1.4c0-4.4,0-8.7-0.1-13.1
							c0-0.6,0-1.3,0-1.9c-0.6,0.5-1.3,1-1.9,1.4c1.8,0.6,3.7,1,5.6,1.4c2.2,0.6,4.3,1.4,6.5,2.2c-0.1-0.9-0.2-1.8-0.4-2.7
							c-1,0.8-2.1,1.5-3.1,2.3c-0.5,0.4-1.2,0.7-1.5,1.3c-0.4,0.6-0.4,1.4,0.1,2c0.5,0.6,1.3,1,2.1,0.5
							C88.4,65.6,88.8,64.5,88.3,63.9z"/>
					</g>
				</g>
			</g>
		</g>
		<g class="st7">
			<g>
				<path class="st6" d="M436.4,47.3c-26.5,1.3-51.6,2.4-78.9,4.4c-0.2-5.4-0.4-10.9-0.7-16.3c26.7-1.7,52.5-3.7,80.3-4L436.4,47.3z
					"/>
				<g>
					<path d="M436.4,45.8c-20.4,1-40.7,1.9-61.1,3.2c-5.9,0.4-11.9,0.8-17.8,1.2c0.5,0.5,1,1,1.5,1.5c-0.2-5.4-0.4-10.9-0.7-16.3
						c-0.5,0.5-1,1-1.5,1.5c20.7-1.3,41.4-2.9,62.1-3.6c6.1-0.2,12.1-0.4,18.2-0.4c-0.5-0.5-1-1-1.5-1.5c-0.2,5.3-0.5,10.6-0.7,15.9
						c-0.1,1.9,2.9,1.9,3,0c0.2-5.3,0.5-10.6,0.7-15.9c0-0.8-0.7-1.5-1.5-1.5c-20.9,0.2-41.8,1.5-62.6,2.9
						c-5.9,0.4-11.8,0.8-17.7,1.2c-0.8,0.1-1.5,0.6-1.5,1.5c0.2,5.4,0.4,10.9,0.7,16.3c0,0.8,0.7,1.6,1.5,1.5
						c20.5-1.6,41-2.6,61.5-3.6c5.8-0.3,11.6-0.6,17.4-0.8C438.3,48.7,438.4,45.7,436.4,45.8z"/>
				</g>
			</g>
			<g>
				<g>
					<path class="st1" d="M436.8,35c-20.4,0.8-40.8,2.1-61.3,3.1c-5.9,0.3-11.8,0.5-17.8,0.7c-1.4,0-1.5,2.3,0,2.2
						c20.7-0.6,41.4-1.9,62.1-3c5.6-0.3,11.3-0.5,16.9-0.8C438.2,37.1,438.2,34.9,436.8,35L436.8,35z"/>
				</g>
			</g>
			<g>
				<g>
					<path class="st6" d="M348.6,44.6c0-0.1-0.1-0.2-0.2-0.3c-1.2-1.2-2.4-2.5-3.6-3.7c-3.8,1.6-7.7,3.2-10.8,4.6
						c3.4,1.2,6.9,2.2,10.3,3.2c1.4-1.1,2.7-2.2,4.1-3.3C348.5,44.9,348.6,44.8,348.6,44.6z"/>
					<g>
						<path d="M350.1,44.2c-0.3-1-1.3-1.7-2-2.4c-0.7-0.8-1.5-1.5-2.2-2.3c-0.5-0.5-1.2-0.5-1.8-0.2c-3.5,1.5-7,3-10.5,4.4
							c-1.4,0.6-1.5,2.4,0,2.9c2.9,1,5.8,1.9,8.7,2.7c0.7,0.2,1.6,0.7,2.4,0.5c0.7-0.2,1.4-1,2-1.5c0.6-0.5,1.3-1,1.9-1.6
							c0.6-0.5,1.2-0.9,1.4-1.7c0.5-1.9-2.4-2.7-2.9-0.8c0-0.1,0.1-0.2,0.1-0.3c-0.1,0.1-0.2,0.2-0.3,0.3c-0.2,0.1-0.3,0.2-0.5,0.4
							c-0.4,0.3-0.8,0.6-1.1,0.9c-0.7,0.6-1.4,1.2-2.2,1.7c0.5-0.1,1-0.3,1.5-0.4c-3.4-1-6.9-2-10.3-3.2c0,1,0,1.9,0,2.9
							c3.7-1.6,7.5-3.1,11.2-4.7c-0.6-0.1-1.2-0.2-1.8-0.2c1.2,1.3,2.6,2.5,3.7,3.9c-0.1-0.2-0.3-0.4-0.4-0.7c0,0.1,0,0.1,0.1,0.2
							C347.8,46.8,350.7,46,350.1,44.2z"/>
					</g>
				</g>
				<g>
					<path class="st3" d="M348.4,44.3c0.1,0.1,0.2,0.2,0.2,0.3c0,0.2-0.1,0.3-0.3,0.4c-1.4,1.1-2.7,2.2-4.1,3.3
						c1.4,0.4,2.8,0.9,4.1,1.3c1.8,0.6,7.1,1.4,8.9,2l-0.8-16c-3.4,1.4-7.6,3.2-11.7,4.9C346,41.8,347.2,43,348.4,44.3z"/>
					<g>
						<path class="st1" d="M347.4,45.3c0,0.1,0.1,0.1,0.1,0.2c-0.1-0.2-0.3-0.4-0.4-0.7c0,0.1,0,0.1,0.1,0.2c0-0.3,0-0.5,0-0.8
							c0,0.1-0.1,0.1-0.1,0.2c0.1-0.2,0.3-0.4,0.4-0.7c-1.3,1.3-2.8,2.3-4.2,3.5c-0.9,0.7-0.3,2.2,0.7,2.5c2.4,0.7,4.6,1.5,7,2
							c2,0.4,4,0.7,6,1.3c0.9,0.3,1.9-0.5,1.9-1.4c-0.2-4.7-0.4-9.3-0.7-14c0-0.7-0.1-1.3-0.1-2c0-0.9-0.9-1.8-1.9-1.4
							c-4,1.7-8.1,3.4-12.1,5.1c-0.9,0.4-0.9,1.7-0.3,2.4C345,42.8,346.2,44.1,347.4,45.3c1.3,1.4,3.5-0.7,2.1-2.1
							c-1.2-1.2-2.4-2.5-3.6-3.7c-0.1,0.8-0.2,1.6-0.3,2.4c3.8-1.6,7.6-3.2,11.4-4.8c-0.6-0.5-1.3-1-1.9-1.4c0.2,4.7,0.4,9.3,0.7,14
							c0,0.7,0.1,1.3,0.1,2c0.6-0.5,1.3-1,1.9-1.4c-2-0.6-4-0.8-6-1.3c-2.4-0.5-4.7-1.3-7-2c0.2,0.8,0.4,1.7,0.7,2.5
							c1.1-0.9,2.2-1.7,3.2-2.6c0.5-0.4,1.2-0.8,1.4-1.5c0.3-0.8,0-1.4-0.5-2c-0.5-0.6-1.6-0.5-2.1,0
							C346.7,43.8,346.8,44.7,347.4,45.3z"/>
					</g>
				</g>
			</g>
		</g>
	</g>
	<g>
		<g>
			<path d="M406.6,180c-6.8,0-13.5,0-20.3,0c-17.4,0-34.8,0-52.2,0c-23.9,0-47.8,0-71.8,0c-26.4,0-52.9,0-79.3,0
				c-24.7,0-49.5,0-74.2,0c-18.9,0-37.8,0-56.7,0c-9,0-18,0-27,0c-9.3,0-16.6-6.9-16.7-16.4c0-5.9,0-11.8,0-17.6c0-24.5,0-49,0-73.5
				c0-15.5-0.2-31.1,0-46.6c0.1-8.8,7.1-15.8,15.9-15.9c0.5,0,1,0,1.5,0c3.5,0,6.9,0,10.4,0c15.3,0,30.5,0,45.8,0
				c22.7,0,45.4,0,68.2,0c26.1,0,52.3,0,78.4,0c25.5,0,50.9,0,76.4,0c20.8,0,41.6,0,62.4,0c11.8,0,23.5,0,35.3,0
				c4.1,0,8-0.1,11.8,2.1c5.2,3,8,8.4,8,14.3c0,2,0,4.1,0,6.1c0,21.9,0,43.9,0,65.8c0,20.7,0,41.4,0,62c0,1.2,0,2.5,0,3.7
				C422.4,172.9,415.4,179.9,406.6,180c-1.9,0-1.9,3,0,3c9-0.1,17.1-6.6,18.6-15.6c0.3-2,0.3-4,0.3-6.1c0-7.8,0-15.7,0-23.5
				c0-25.5,0-51,0-76.5c0-9.4,0-18.8,0-28.2c0-2.2,0-4.4,0-6.6c0-5.3-1.8-10.4-5.7-14.2C415.3,8,409.7,7,403.7,7
				c-4.2,0-8.4,0-12.7,0c-16.5,0-33,0-49.5,0c-23.7,0-47.4,0-71.1,0c-26.7,0-53.4,0-80.1,0c-25.3,0-50.5,0-75.8,0
				C94.8,7,75,7,55.3,7c-9.9,0-19.7,0-29.6,0c-0.8,0-1.6,0-2.4,0C14.4,7.6,7,14.4,5.7,23.2C5,28.1,5.5,33.4,5.5,38.3c0,24,0,48,0,72
				c0,17.7-0.1,35.5,0,53.2c0,10.8,8.3,19.4,19.2,19.5c2.6,0,5.3,0,7.9,0c14.2,0,28.3,0,42.5,0c22.3,0,44.6,0,66.9,0
				c26.4,0,52.8,0,79.2,0c26,0,51.9,0,77.9,0c21.5,0,43.1,0,64.6,0c12.7,0,25.3,0,38,0c1.7,0,3.3,0,5,0
				C408.5,183,408.5,180,406.6,180z"/>
		</g>
	</g>
</g>
</svg>
