<?xml version="1.0" encoding="utf-8"?>
<!-- Generator: Adobe Illustrator 24.2.0, SVG Export Plug-In . SVG Version: 6.00 Build 0)  -->
<svg version="1.1" id="Layer_1" xmlns="http://www.w3.org/2000/svg" xmlns:xlink="http://www.w3.org/1999/xlink" x="0px" y="0px"
	 viewBox="0 0 431 190" style="enable-background:new 0 0 431 190;" xml:space="preserve">
<style type="text/css">
	.st0{fill:#C2E1E3;}
	.st1{fill:#000005;}
	.st2{clip-path:url(#SVGID_2_);}
	.st3{fill:#FFFFFF;}
	.st4{fill:#E1262F;}
	.st5{fill:#F7C402;}
	.st6{fill:#4386C6;}
</style>
<g>
	<g>
		<path class="st0" d="M406.6,181.5H24.4c-9.6,0-17.4-7.8-17.4-17.4V25.9c0-9.6,7.8-17.4,17.4-17.4h382.2c9.6,0,17.4,7.8,17.4,17.4
			v138.2C424,173.7,416.2,181.5,406.6,181.5z"/>
		<g>
			<path class="st1" d="M406.6,180c-6.8,0-13.5,0-20.3,0c-17.4,0-34.8,0-52.2,0c-23.9,0-47.8,0-71.8,0c-26.4,0-52.9,0-79.3,0
				c-24.7,0-49.5,0-74.2,0c-18.9,0-37.8,0-56.7,0c-9,0-18,0-27,0c-9.3,0-16.6-6.9-16.7-16.4c0-5.9,0-11.8,0-17.6c0-24.5,0-49,0-73.5
				c0-15.5-0.2-31.1,0-46.6c0.1-8.8,7.1-15.8,15.9-15.9c0.5,0,1,0,1.5,0c3.5,0,6.9,0,10.4,0c15.3,0,30.5,0,45.8,0
				c22.7,0,45.4,0,68.2,0c26.1,0,52.3,0,78.4,0c25.5,0,50.9,0,76.4,0c20.8,0,41.6,0,62.4,0c11.8,0,23.5,0,35.3,0
				c4.1,0,8-0.1,11.8,2.1c5.2,3,8,8.4,8,14.3c0,2,0,4.1,0,6.1c0,21.9,0,43.9,0,65.8c0,20.7,0,41.4,0,62c0,1.2,0,2.5,0,3.7
				C422.4,172.9,415.4,179.9,406.6,180c-1.9,0-1.9,3,0,3c9-0.1,17.1-6.6,18.6-15.6c0.3-2,0.3-4,0.3-6.1c0-7.8,0-15.7,0-23.5
				c0-25.5,0-51,0-76.5c0-9.4,0-18.8,0-28.2c0-2.2,0-4.4,0-6.6c0-5.3-1.8-10.4-5.7-14.2C415.3,8,409.7,7,403.7,7
				c-4.2,0-8.4,0-12.7,0c-16.5,0-33,0-49.5,0c-23.7,0-47.4,0-71.1,0c-26.7,0-53.4,0-80.1,0c-25.3,0-50.5,0-75.8,0
				C94.8,7,75,7,55.3,7c-9.9,0-19.7,0-29.6,0c-0.8,0-1.6,0-2.4,0C14.4,7.6,7,14.4,5.7,23.2C5,28.1,5.5,33.4,5.5,38.3c0,24,0,48,0,72
				c0,17.7-0.1,35.5,0,53.2c0,10.8,8.3,19.4,19.2,19.5c2.6,0,5.3,0,7.9,0c14.2,0,28.3,0,42.5,0c22.3,0,44.6,0,66.9,0
				c26.4,0,52.8,0,79.2,0c26,0,51.9,0,77.9,0c21.5,0,43.1,0,64.6,0c12.7,0,25.3,0,38,0c1.7,0,3.3,0,5,0
				C408.5,183,408.5,180,406.6,180z"/>
		</g>
	</g>
	<g>
		<defs>
			<path id="SVGID_1_" d="M406.6,181.5H24.4c-9.6,0-17.4-7.8-17.4-17.4V25.9c0-9.6,7.8-17.4,17.4-17.4h382.2
				c9.6,0,17.4,7.8,17.4,17.4v138.2C424,173.7,416.2,181.5,406.6,181.5z"/>
		</defs>
		<clipPath id="SVGID_2_">
			<use xlink:href="#SVGID_1_"  style="overflow:visible;"/>
		</clipPath>
		<g class="st2">
			<path class="st3" d="M122.9,189.2c1.3-11.5,0.8-23.9-5.2-33.8c-6-9.9-18.9-16.4-29.7-12c1.8-11.6-4.8-24-15.5-28.9
				c-10.7-4.9-24.4-1.9-32.1,7c-0.8-10.5-7.4-20.6-17.1-24.7c-9.7-4-22.1-1.2-28.3,7.3c0,0-18.2,43.6,3.9,71.9
				S122.9,189.2,122.9,189.2z"/>
			<g>
				<path class="st1" d="M124.4,189.2c1.1-10.2,0.9-20.8-3.2-30.3c-3.6-8.3-10.6-14.9-19.3-17.4c-4.7-1.3-9.7-1.3-14.2,0.5
					c0.6,0.6,1.2,1.2,1.8,1.8c1.4-9.6-2.2-19.6-9.4-26.1c-7.3-6.6-17.6-8.6-27-5.9c-5.2,1.5-10.1,4.5-13.7,8.6
					c0.9,0.4,1.7,0.7,2.6,1.1c-1.1-13.4-10.8-26-24.6-27.8c-6.3-0.8-13,0.7-18.2,4.3c-2,1.4-4.5,3.4-5.6,5.7
					c-0.2,0.5-0.4,0.9-0.5,1.4c-2.7,7.2-4.5,14.7-5.6,22.3c-1.6,11.7-1.5,24,2.5,35.3c2,5.5,4.8,11,8.7,15.4c2.3,2.6,5.1,4.6,8,6.3
					c7.2,4.1,15.4,6.2,23.4,7.6c9.5,1.7,19.1,2.4,28.8,2.6c9.6,0.2,19.2,0,28.7-0.6c7.7-0.4,15.4-1.1,23-1.9c4-0.4,8-0.9,12-1.5
					c0.2,0,0.4-0.1,0.5-0.1c1.9-0.3,1.1-3.2-0.8-2.9c-0.7,0.1-1.3,0.2-2,0.3c-0.3,0-0.5,0.1-0.2,0c-0.2,0-0.4,0.1-0.6,0.1
					c-0.4,0.1-0.9,0.1-1.3,0.2c-1.1,0.1-2.2,0.3-3.3,0.4c-6.6,0.8-13.1,1.4-19.7,1.9c-8.9,0.7-17.8,1.1-26.7,1.2
					c-9.5,0.1-18.9-0.2-28.3-1.2c-8.4-0.9-16.9-2.4-24.8-5.3c-6.6-2.4-12.6-6-16.7-11.8c-6.9-9.9-9.5-22-9.3-33.9
					c0.1-9.5,1.8-18.9,4.6-28c0.7-2.2,1.4-4.3,2.2-6.4c0.4-1,1.1-1.5,2-2.3c2.1-2.1,4.8-3.7,7.6-4.7c5.7-2.1,12.3-2,17.8,0.6
					c5.9,2.8,10.4,7.8,13,13.7c1.3,2.9,2.1,6,2.3,9.2c0.1,1.2,1.6,2.1,2.6,1.1c5.7-6.6,14.7-9.8,23.3-8.7c8.7,1.1,15.9,7,19.6,14.9
					c2,4.4,2.8,9.4,2.1,14.2c-0.1,1,0.7,2.3,1.8,1.8c7.6-3,16-0.5,22.1,4.6c7,5.8,10.2,14.7,11.1,23.5c0.5,5.4,0.3,10.9-0.3,16.2
					C121.2,191.1,124.2,191.1,124.4,189.2z"/>
			</g>
		</g>
		<g class="st2">
			<g>
				<g>
					<path class="st0" d="M280.5,120.8c-0.9,1.8-2,3.5-3.4,4.9c0.1,0,0.1,0,0.2-0.1c3.6-1.2,7-3.4,9.6-6.2
						C284.8,120.1,282.6,120.6,280.5,120.8z"/>
					<g>
						<path class="st1" d="M279.2,120c-0.9,1.7-1.9,3.2-3.1,4.6c-1,1.1,0,2.9,1.5,2.5c2-0.6,3.9-1.6,5.6-2.7c1.8-1.1,3.4-2.5,4.8-4
							c1-1,0-3-1.5-2.5c-2,0.6-4.1,1.1-6,1.3c-0.8,0.1-1.5,0.6-1.5,1.5c0,0.7,0.7,1.6,1.5,1.5c2.3-0.2,4.6-0.7,6.8-1.4
							c-0.5-0.8-1-1.7-1.5-2.5c-1.3,1.4-2.6,2.5-4.2,3.5c-0.8,0.5-1.6,0.9-2.4,1.3c-0.2,0.1-0.4,0.2-0.7,0.3c-0.1,0-0.2,0.1-0.3,0.1
							c-0.1,0-0.1,0,0,0c0,0-0.1,0-0.1,0.1c-0.5,0.2-0.9,0.4-1.4,0.5c0.5,0.8,1,1.7,1.5,2.5c1.4-1.6,2.7-3.3,3.6-5.2
							c0.4-0.7,0.2-1.6-0.5-2.1C280.6,119.1,279.5,119.3,279.2,120z"/>
					</g>
				</g>
				<g>
					<path class="st0" d="M255.1,133.4c0.8,1.2,1.7,2.4,2.5,3.6c0.1,0,0.1,0,0.2-0.1c2.9-1,5.6-2.5,7.9-4.6
						C262.3,133.3,258.7,133.6,255.1,133.4z"/>
					<g>
						<path class="st1" d="M253.8,134.2c0.8,1.2,1.7,2.4,2.5,3.6c0.4,0.5,1,0.9,1.7,0.7c3.2-0.9,6.3-2.8,8.8-5
							c1.2-1-0.1-2.9-1.5-2.5c-3.3,0.9-6.8,1.1-10.2,0.9c-0.8,0-1.5,0.7-1.5,1.5c0,0.8,0.7,1.5,1.5,1.5c3.7,0.2,7.4-0.1,11-1.1
							c-0.5-0.8-1-1.7-1.5-2.5c-2.1,1.8-4.8,3.5-7.5,4.3c0.6,0.2,1.1,0.5,1.7,0.7c-0.8-1.2-1.7-2.4-2.5-3.6c-0.5-0.7-1.3-1-2.1-0.5
							C253.7,132.5,253.4,133.5,253.8,134.2z"/>
					</g>
				</g>
				<g>
					<path class="st4" d="M265.1,93c4.1,5.4,6.5,12,7.3,18.8c0.4,3,0.4,6-0.1,8.9c2.7,0.3,5.4,0.3,8.1,0c0.4-0.9,0.8-1.9,1.1-2.9
						c1.1-3.6,1.1-7.5,0.6-11.2c-0.8-6.8-3.3-13.5-7.3-18.8c-6.9-9.1-18.5-13.7-29.2-12.1c-1.1,1.5-2.1,3.2-3,4.9
						C251.2,81.3,259.7,85.7,265.1,93z"/>
					<g>
						<path class="st1" d="M263.9,93.7c2.7,3.7,4.7,7.8,5.9,12.2c1.3,4.6,2,9.7,1.2,14.4c-0.2,1,0.4,1.8,1.4,1.9
							c1.6,0.2,3.2,0.2,4.8,0.2c1.3,0,3.7,0.3,4.6-0.9c0.8-1.1,1.2-2.8,1.5-4.1c0.4-1.6,0.6-3.2,0.7-4.9c0.3-6-1.1-12.3-3.4-17.8
							c-4.3-10.1-13-17.9-23.9-20.1c-2.8-0.6-5.6-0.8-8.4-0.6c-0.7,0-1.5,0.1-2.2,0.2c-0.9,0.1-1.3,0.4-1.9,1.1
							c-1,1.4-1.9,3-2.8,4.5c-0.6,1.1,0.2,2.2,1.3,2.3C250.9,82.9,258.8,87.1,263.9,93.7c1.2,1.5,3.8,0,2.6-1.5
							c-5.8-7.5-14.4-12.2-23.8-13c0.4,0.8,0.9,1.5,1.3,2.3c0.9-1.7,1.9-3.3,3-4.9c-0.3,0.2-0.6,0.5-0.9,0.7
							c7.6-1.1,15.5,1.1,21.7,5.7c6.9,5.1,11,13.1,12.6,21.4c1,5.2,1.2,10.8-1.2,15.7c0.4-0.2,0.9-0.5,1.3-0.7
							c-2.7,0.3-5.4,0.2-8.1,0c0.5,0.6,1,1.3,1.4,1.9c1.6-9.9-1.5-20.9-7.4-28.9C265.3,90.7,262.7,92.2,263.9,93.7z"/>
					</g>
				</g>
				<g>
					<path class="st4" d="M212.2,127.6c7.5,15.6,34.6,51.4,43.8,62.5c3.7-1.2,9.3,0.9,12.8-0.7c-7-8.4-30.8-40.4-39.5-54.1
						C223.4,133.4,217.7,130.8,212.2,127.6z"/>
					<g>
						<path class="st1" d="M210.9,128.3c4.2,8.8,10,16.9,15.5,24.9c6.5,9.3,13.2,18.4,20.1,27.4c2.7,3.5,5.5,7.1,8.4,10.5
							c0.3,0.4,1,0.5,1.5,0.4c4.2-1.2,8.7,1,12.8-0.7c1.1-0.4,1.4-1.6,0.7-2.5c-6-7.2-11.5-14.8-17.1-22.3
							c-6.8-9.2-13.5-18.4-19.8-27.8c-0.7-1-1.3-2-2-3c-0.5-0.8-0.8-1.1-1.7-1.4c-1.2-0.4-2.3-0.8-3.4-1.2
							c-4.5-1.7-8.8-3.8-12.9-6.2c-1.7-1-3.2,1.6-1.5,2.6c5.5,3.2,11.4,5.9,17.5,7.9c-0.3-0.2-0.6-0.5-0.9-0.7
							c4.8,7.6,10.1,14.8,15.3,22.1c5.7,7.9,11.6,15.8,17.5,23.6c2.3,2.9,4.5,5.9,6.9,8.7c0.2-0.8,0.4-1.7,0.7-2.5
							c-4,1.7-8.7-0.5-12.8,0.7c0.5,0.1,1,0.3,1.5,0.4c-5.8-7-11.2-14.2-16.6-21.5c-6.8-9.2-13.5-18.5-19.6-28.1
							c-2.6-4.1-5.2-8.3-7.3-12.7C212.7,125.1,210.1,126.6,210.9,128.3z"/>
					</g>
				</g>
				<g>
					<path class="st4" d="M255.1,133.4c-2.5-0.1-5-0.5-7.5-1c-2.7-0.5-5.4-1.2-8.1-2.1c-6-1.9-11.9-4.6-17.4-7.8
						c-4.6-2.7-9.1-5.8-13.3-9.3c-2.5-2-4.9-4.1-7.2-6.3c-12.6-12.1-19.1-19.4-24.3-36l-8.3,0.7c4.3,19.1,9.8,27.8,22.8,40.3
						c6.2,6,13,11.3,20.3,15.5c5.5,3.2,11.2,5.8,17.1,7.8c2.8,0.9,5.6,1.7,8.5,2.2c2.3,0.4,4.6,0.8,6.9,0.9c4.3,0.3,8.7,0,12.8-1.4
						C256.8,135.8,255.9,134.6,255.1,133.4z"/>
					<g>
						<path class="st1" d="M255.1,131.9c-15.1-0.9-29.6-7.9-41.5-16.8c-5.8-4.3-11.1-9.3-16.2-14.5c-3.8-3.9-7.5-7.9-10.5-12.5
							c-3.6-5.4-6.1-11.4-8.1-17.6c-0.2-0.6-0.8-1.2-1.4-1.1c-2.8,0.2-5.5,0.5-8.3,0.7c-1,0.1-1.7,0.9-1.4,1.9
							c1.6,6.9,3.5,13.7,6.7,20c2.8,5.6,6.6,10.7,10.9,15.3c11.7,12.7,26,23.4,42.5,29c9.5,3.3,20.5,5.3,30.3,2.1
							c0.9-0.3,1.5-1.4,0.9-2.2c-0.8-1.2-1.7-2.4-2.5-3.6c-1.1-1.6-3.7-0.1-2.6,1.5c0.8,1.2,1.7,2.4,2.5,3.6
							c0.3-0.7,0.6-1.5,0.9-2.2c-8.5,2.8-17.7,1.2-26.1-1.3c-8.4-2.6-16.3-6.6-23.6-11.5c-6.8-4.6-13-10-18.6-15.9
							c-4.2-4.4-8-9.1-11-14.4c-3.6-6.6-5.7-13.9-7.4-21.2c-0.5,0.6-1,1.3-1.4,1.9c2.8-0.2,5.5-0.5,8.3-0.7c-0.5-0.4-1-0.7-1.4-1.1
							c1.8,5.8,4.1,11.5,7.3,16.7c2.9,4.8,6.6,9.1,10.5,13.1c10.5,10.9,22.1,20.7,35.9,27c8,3.6,16.7,6.2,25.5,6.8
							C257,135,257,132,255.1,131.9z"/>
					</g>
				</g>
				<g>
					<path class="st5" d="M270.1,127.1c-4.2,0.3-8.5-0.1-12.7-0.9c-2.8-0.5-5.6-1.3-8.3-2.2c-6-1.9-11.9-4.6-17.4-7.9
						c-4.5-2.7-8.8-5.7-13-9.1c-2.3-1.9-4.5-3.8-6.7-5.9c-0.2-0.2-0.4-0.4-0.6-0.5c-12.7-12.2-15.7-14.3-23.7-30.6L177.3,71
						c5.2,16.6,11.7,23.9,24.3,36c2.3,2.2,4.7,4.3,7.2,6.3c4.2,3.4,8.6,6.5,13.3,9.3c5.6,3.3,11.4,5.9,17.4,7.8
						c2.7,0.8,5.4,1.6,8.1,2.1c2.5,0.5,5,0.8,7.5,1c3.6,0.2,7.2-0.1,10.6-1c0.6-0.2,1.2-0.3,1.8-0.5c3.6-1.2,7-3.4,9.6-6.2
						C274.8,126.4,272.5,126.9,270.1,127.1z"/>
					<g>
						<path class="st1" d="M270.1,125.6c-8.1,0.6-16.3-1.3-23.9-4.1c-7.4-2.7-14.3-6.5-20.7-11c-6.2-4.4-11.7-9.6-17.2-14.8
							c-3.5-3.3-7-6.7-10-10.4c-3.8-4.8-6.6-10.4-9.3-15.9c-0.2-0.4-0.8-0.8-1.3-0.7c-3.5,0.3-6.9,0.6-10.4,0.9
							c-0.9,0.1-1.8,0.9-1.4,1.9c2.2,6.9,5.1,13.6,9.3,19.6c4.2,6,9.4,11.2,14.7,16.3c13.7,13.2,30.7,24.1,49.7,27
							c10.2,1.6,21.2,0.3,28.6-7.6c1-1,0-3-1.5-2.5C274.5,124.9,272.4,125.4,270.1,125.6c-1.9,0.2-1.9,3.2,0,3
							c2.5-0.2,5-0.7,7.4-1.5c-0.5-0.8-1-1.7-1.5-2.5c-6.3,6.7-15.5,8.1-24.2,7c-9-1.1-17.8-4.3-25.8-8.6
							c-8.1-4.3-15.6-9.9-22.3-16.2c-5.2-4.9-10.5-10-14.8-15.7c-4.7-6.2-7.8-13.2-10.2-20.6c-0.5,0.6-1,1.3-1.4,1.9
							c3.5-0.3,6.9-0.6,10.4-0.9c-0.4-0.2-0.9-0.5-1.3-0.7c2.5,5.2,5.1,10.3,8.6,15c2.9,3.9,6.3,7.3,9.8,10.7
							c5.4,5.2,10.9,10.4,16.9,14.9c6.5,4.8,13.6,8.9,21.1,12c8.5,3.5,18,5.9,27.2,5.2C272,128.4,272,125.4,270.1,125.6z"/>
					</g>
				</g>
				<g>
					<path class="st6" d="M244.8,138.5c7.9,11.6,33.1,44.5,38.2,50.6c3.2-1.9,6-3.6,9-5.8c-4.4-5.2-27.5-36.4-34.4-46.3
						C253.5,138.4,249.1,138.7,244.8,138.5z"/>
					<g>
						<path class="st1" d="M243.5,139.2c4.8,7.1,10,13.9,15.1,20.7c5.7,7.6,11.5,15.3,17.4,22.8c1.9,2.5,3.9,5,5.9,7.4
							c0.4,0.5,1.3,0.5,1.8,0.2c3.1-1.8,6.1-3.7,9-5.8c0.8-0.6,1-1.6,0.3-2.4c-4.1-4.9-7.8-10-11.6-15.1
							c-5.4-7.2-10.8-14.5-16.1-21.8c-2.2-3-4.4-6-6.5-9.1c-0.4-0.5-1-0.9-1.7-0.7c-4,1.3-8.2,1.6-12.4,1.4c-1.9-0.1-1.9,2.9,0,3
							c4.5,0.3,8.9-0.1,13.2-1.5c-0.6-0.2-1.1-0.5-1.7-0.7c9.4,13.5,19.3,26.6,29.3,39.7c1.8,2.3,3.5,4.6,5.4,6.9
							c0.1-0.8,0.2-1.6,0.3-2.4c-2.9,2.1-5.9,4-9,5.8c0.6,0.1,1.2,0.2,1.8,0.2c-4.5-5.3-8.6-10.9-12.9-16.4
							c-6-7.8-11.9-15.7-17.7-23.6c-2.5-3.4-5-6.8-7.4-10.3C245,136.1,242.4,137.6,243.5,139.2z"/>
					</g>
				</g>
				<g>
					<path class="st5" d="M237.9,137.5c-2.9-0.6-5.7-1.3-8.5-2.2c8.7,13.7,32.4,45.6,39.5,54.1c3.4-1.5,10.6,1.8,13.8,0
						c-5.1-6.1-29.9-39.3-37.8-50.9C242.5,138.3,240.2,138,237.9,137.5z"/>
					<g>
						<path class="st1" d="M238.3,136.1c-2.9-0.6-5.7-1.3-8.5-2.2c-1.2-0.4-2.4,1.1-1.7,2.2c4.8,7.6,10.1,14.8,15.3,22.1
							c5.7,7.9,11.6,15.8,17.5,23.6c2.3,2.9,4.5,5.9,6.9,8.7c0.3,0.4,1,0.6,1.5,0.4c2.1-0.9,4.8-0.1,7,0.3c2.4,0.4,4.9,0.8,7.1-0.4
							c0.9-0.5,0.9-1.7,0.3-2.4c-4.9-5.8-9.4-12-13.9-18.1c-6.3-8.4-12.5-16.8-18.6-25.4c-1.3-1.8-2.6-3.6-3.8-5.4
							c-0.5-0.8-1.2-2.1-2.1-2.4c-1-0.3-2.2-0.2-3.2-0.3C240.8,136.6,239.5,136.3,238.3,136.1c-1.9-0.4-2.7,2.5-0.8,2.9
							c2.4,0.5,4.9,0.8,7.3,1c-0.4-0.2-0.9-0.5-1.3-0.7c4.8,7.1,9.9,13.9,14.9,20.8c5.6,7.7,11.3,15.3,17.1,22.9
							c2,2.6,3.9,5.1,6,7.6c0.1-0.8,0.2-1.6,0.3-2.4c-1.8,1-4.6,0.1-6.5-0.2c-2.2-0.3-4.8-0.9-7,0c0.5,0.1,1,0.3,1.5,0.4
							c-4.8-5.8-9.4-11.9-13.9-18c-6.1-8.1-12.1-16.3-17.9-24.7c-2.6-3.7-5.1-7.3-7.5-11.1c-0.6,0.7-1.1,1.5-1.7,2.2
							c2.8,0.9,5.6,1.6,8.5,2.2C239.4,139.4,240.2,136.5,238.3,136.1z"/>
					</g>
				</g>
				<g>
					<path class="st6" d="M249.7,71c-3.6,1.4-6.8,3.5-9.6,6.2c-1.2,1.1-2.2,2.3-3.3,3.5c-4.5,5.6-7.5,12.7-8.5,20.1
						c4.1,3.3,8.4,6.4,12.9,9c-2.3-5-3.6-9.3-3.4-12.3c0.4-5.9,2-11.7,4.8-16.8c0.9-1.7,1.9-3.3,3-4.9c1.3-1.7,2.7-3.3,4.2-4.8
						C249.9,71,249.8,71,249.7,71z"/>
					<g>
						<path class="st1" d="M249.3,69.6c-6.9,2.8-12.5,7.9-16.4,14.1c-1.9,3-3.4,6.4-4.5,9.8c-0.6,1.8-1,3.6-1.3,5.4
							c-0.1,0.8-0.5,1.9-0.1,2.6c0.4,0.8,1.5,1.4,2.2,1.9c3.6,2.8,7.3,5.3,11.2,7.7c1.4,0.8,2.6-0.8,2.1-2.1c-1.3-3-2.7-6.1-3.1-9.4
							c-0.4-3.1,0.3-6.5,1.1-9.5c1.8-6.9,5.3-13.3,10.4-18.2c1.1-1,0-3-1.5-2.5C249.5,69.6,249.4,69.6,249.3,69.6
							c-1.8,0.6-1,3.5,0.8,2.9c0.1,0,0.1,0,0.2-0.1c-0.5-0.8-1-1.7-1.5-2.5c-5.6,5.4-9.5,12.5-11.3,20c-0.8,3.3-1.5,7-1,10.4
							c0.5,3.6,2,7,3.4,10.3c0.7-0.7,1.4-1.4,2.1-2.1c-4.4-2.6-8.6-5.5-12.6-8.8c0.1,0.5,0.3,1,0.4,1.5c1.7-12,8.7-24.1,20.3-28.8
							C251.9,71.8,251.1,68.9,249.3,69.6z"/>
					</g>
				</g>
				<g>
					<path class="st5" d="M245.7,75.8c10.7-1.7,22.3,2.9,29.2,12.1c4.1,5.4,6.5,12,7.3,18.8c0.5,3.8,0.5,7.6-0.6,11.2
						c-0.3,1-0.7,2-1.1,2.9c2.2-0.2,4.3-0.6,6.4-1.3c2-2.2,3.6-4.8,4.5-7.8c1.1-3.6,1.1-7.5,0.6-11.2c-0.8-6.8-3.3-13.5-7.3-18.8
						c-8.1-10.7-22.7-15.2-34.7-10.6C248.4,72.4,246.9,74,245.7,75.8z"/>
					<g>
						<path class="st1" d="M246.1,77.2c7.6-1.1,15.5,1.1,21.7,5.7c6.9,5.1,11,13.1,12.6,21.4c1,5.2,1.2,10.8-1.2,15.7
							c-0.4,0.9,0.1,2.4,1.3,2.3c1.8-0.2,3.7-0.5,5.4-1c0.9-0.2,1.6-0.4,2.3-1.1c0.6-0.7,1.2-1.5,1.8-2.2c2-2.8,3.1-6,3.6-9.4
							c0.9-6.8-0.6-14.2-3.4-20.4c-4.9-11.2-15.2-19.1-27.5-20.3c-3.2-0.3-6.4-0.1-9.5,0.6c-1.6,0.4-3.5,0.7-4.7,1.8
							c-1.6,1.4-2.9,3.1-4.2,4.8c-1.2,1.5,1.4,3,2.6,1.5c1-1.3,2-2.5,3.2-3.7c0.9-0.9,2.1-1.1,3.3-1.4c2.4-0.6,4.9-0.8,7.4-0.7
							c4.9,0.2,9.8,1.7,14.1,4.2c10,6,15.5,17.7,15.8,29.1c0.1,3.5-0.4,7.1-2.1,10.3c-0.4,0.7-0.8,1.4-1.3,2.1
							c-0.4,0.5-0.8,1.3-1.3,1.7c-0.6,0.4-1.8,0.5-2.5,0.7c-1,0.2-2,0.4-3.1,0.5c0.4,0.8,0.9,1.5,1.3,2.3c2.3-4.8,2.6-10.1,1.9-15.3
							c-0.6-4.9-2-9.6-4.3-14c-4.1-8.1-11.2-14.2-19.9-16.9c-4.6-1.4-9.4-1.8-14.2-1C243.4,74.6,244.2,77.5,246.1,77.2z"/>
					</g>
				</g>
				<g>
					<path class="st6" d="M284.6,81.6c4.1,5.4,6.5,12,7.3,18.8c0.5,3.8,0.5,7.6-0.6,11.2c-0.9,3-2.5,5.6-4.5,7.8
						c0.1,0,0.1,0,0.2-0.1c6.4-2.2,12.1-7.2,14.1-14c1.1-3.6,1.1-7.5,0.6-11.2c-0.8-6.8-3.3-13.5-7.3-18.8
						c-8.1-10.8-22.9-15.3-34.9-10.6c-3.6,1.4-6.8,3.5-9.6,6.2C261.9,66.4,276.5,70.9,284.6,81.6z"/>
					<g>
						<path class="st1" d="M283.3,82.4c3.8,5.2,6.2,11.3,7.1,17.6c0.9,6.7,0,13.3-4.6,18.4c-1,1.1,0,2.9,1.5,2.5
							c6.3-1.8,12-6.9,14.5-12.9c3-7.2,1.8-15.9-0.7-23.1c-2.4-6.9-6.6-13-12.5-17.2c-5.2-3.8-11.6-6-18.1-6.2
							c-8.1-0.3-15.7,3-21.6,8.5c-1.1,1,0,3,1.5,2.5C262,68,275.8,72.5,283.3,82.4c1.2,1.5,3.8,0,2.6-1.5
							c-8.3-10.9-23.3-16.2-36.4-11.3c0.5,0.8,1,1.7,1.5,2.5c4.8-4.5,10.8-7.3,17.4-7.6c5.8-0.2,11.5,1.3,16.4,4.3
							c5.5,3.3,9.5,8.2,12.2,13.9c2.9,6.3,4.6,14.2,3,21.1c-1.5,6.6-7,12.4-13.6,14.3c0.5,0.8,1,1.7,1.5,2.5c2.3-2.6,4.1-5.5,5-8.9
							c1-3.6,1-7.5,0.5-11.2c-0.9-7-3.3-13.9-7.5-19.6C284.8,79.3,282.2,80.8,283.3,82.4z"/>
					</g>
				</g>
				<g>
					<path class="st4" d="M222.1,95.3c2.5-5.4,6-10.1,10.5-13.6c-0.8,0.2-1.5,0.5-2.2,0.8c-4.8,1.9-8.9,5-12.3,9c1,0.9,2,1.9,3.2,3
						C221.5,94.7,221.8,95,222.1,95.3z"/>
					<g>
						<path class="st1" d="M223.3,96c2.4-5.2,5.8-9.8,10.2-13.3c1.2-1-0.1-2.9-1.5-2.5c-6,1.8-11.2,5.4-15.2,10.2
							c-0.5,0.6-0.6,1.5,0,2.1c1.4,1.3,2.7,2.6,4.1,3.9c1.4,1.3,3.5-0.8,2.1-2.1c-1.4-1.3-2.7-2.6-4.1-3.9c0,0.7,0,1.4,0,2.1
							c3.7-4.3,8.4-7.8,13.9-9.4c-0.5-0.8-1-1.7-1.5-2.5c-4.6,3.7-8.2,8.6-10.7,13.9c-0.3,0.7-0.2,1.6,0.5,2.1
							C221.9,96.9,223,96.8,223.3,96z"/>
					</g>
				</g>
				<g>
					<path class="st6" d="M272.4,120.7c-1.8-0.2-3.5-0.4-5.3-0.8c-9.1-1.8-17.8-5.3-25.9-10.1c-4.5-2.6-8.8-5.7-12.9-9
						c-2.2-1.8-4.3-3.6-6.3-5.6c-0.3-0.3-0.6-0.6-0.9-0.8c-1.2-1.1-2.2-2.1-3.2-3c-9.8-9.1-10-7.8-18.3-22.4l-11.9,1
						c7.9,16.4,11,18.4,23.7,30.6c0.2,0.2,0.4,0.4,0.6,0.5c2.2,2,4.4,4,6.7,5.9c4.1,3.4,8.4,6.4,13,9.1c5.6,3.3,11.4,6,17.4,7.9
						c2.7,0.9,5.5,1.6,8.3,2.2c4.2,0.8,8.5,1.2,12.7,0.9c2.4-0.2,4.7-0.6,7-1.4c1.3-1.5,2.5-3.1,3.4-4.9
						C277.8,121,275.1,121,272.4,120.7z"/>
					<g>
						<path class="st1" d="M272.4,119.2c-14.3-1.5-27.8-8.1-39.2-16.6c-5.6-4.1-10.5-9-15.6-13.7c-2.7-2.5-5.7-4.9-8.1-7.7
							c-3.4-3.9-5.9-8.6-8.5-13.1c-0.2-0.4-0.8-0.8-1.3-0.7c-4,0.3-8,0.7-11.9,1c-1.2,0.1-1.8,1.2-1.3,2.3
							c2.8,5.7,5.7,11.4,9.7,16.4c3.6,4.5,7.9,8.5,12.1,12.4c6.5,6.3,13.4,12.1,21.1,16.8c7.7,4.7,16.1,8.4,24.9,10.6
							c5.1,1.2,10.4,2,15.7,1.6c2.5-0.2,5.3-0.5,7.6-1.5c1-0.4,1.6-1.5,2.3-2.3c0.8-1,1.4-2.1,2-3.3c0.5-0.9-0.1-2.4-1.3-2.3
							C277.8,119.5,275.1,119.5,272.4,119.2c-1.9-0.2-1.9,2.8,0,3c2.7,0.3,5.4,0.3,8.1,0c-0.4-0.8-0.9-1.5-1.3-2.3
							c-0.4,0.9-0.9,1.8-1.5,2.6c-0.5,0.7-1,1.6-1.9,1.9c-2.1,0.7-4.4,1-6.6,1.1c-4.5,0.3-9.1-0.3-13.5-1.3
							c-8.5-1.9-16.6-5.4-24.1-9.9c-7.4-4.5-14.1-9.9-20.3-15.9c-4.1-4-8.4-7.8-12.1-12.2c-4.2-5.1-7.3-11-10.1-17
							c-0.4,0.8-0.9,1.5-1.3,2.3c4-0.3,8-0.7,11.9-1c-0.4-0.2-0.9-0.5-1.3-0.7c2.5,4.4,4.9,8.9,8.2,12.8c2.3,2.8,5.1,5.2,7.8,7.6
							c5.1,4.6,10,9.5,15.5,13.7c5.8,4.5,12.1,8.4,18.7,11.5c7.5,3.5,15.6,6,23.9,6.9C274.3,122.4,274.3,119.4,272.4,119.2z"/>
					</g>
				</g>
				<g>
					<path class="st5" d="M240,77.3c-2.7,1.1-5.2,2.5-7.5,4.4c-4.4,3.5-8,8.2-10.5,13.6c2.1,1.9,4.2,3.8,6.3,5.6
						c1-7.4,4-14.5,8.5-20.1c1-1.3,2.1-2.4,3.3-3.5C240.1,77.2,240,77.3,240,77.3z"/>
					<g>
						<path class="st1" d="M239.6,75.8c-8.5,3.4-15,10.4-18.8,18.7c-0.3,0.6-0.3,1.3,0.2,1.8c2.1,1.9,4.2,3.8,6.3,5.6
							c0.8,0.6,2.3,0.6,2.5-0.7c1.2-8.6,5-16.9,11.4-23c1.1-1,0-3-1.5-2.5C239.7,75.8,239.6,75.8,239.6,75.8c-1.8,0.6-1,3.5,0.8,2.9
							c0.1,0,0.1,0,0.2-0.1c-0.5-0.8-1-1.7-1.5-2.5c-6.7,6.4-10.9,15.2-12.1,24.3c0.8-0.2,1.7-0.4,2.5-0.7c-2.2-1.8-4.3-3.6-6.3-5.6
							c0.1,0.6,0.2,1.2,0.2,1.8c3.5-7.5,9.2-14.2,17-17.3C242.2,78,241.4,75.1,239.6,75.8z"/>
					</g>
				</g>
			</g>
			<g>
				<g>
					<path class="st6" d="M217.8,36.9c-5.3-1.7-10.9-1.8-16.4-1.9c-5.5-0.1-11.1-0.2-16.4-1.8l7.6,15c10.8-2.5,21.6-5,32.4-7.5
						C222.8,39,220.3,37.8,217.8,36.9z"/>
					<g>
						<path class="st1" d="M218.2,35.5c-10.7-3.4-22.1-0.5-32.8-3.7c-1.3-0.4-2.3,1.1-1.7,2.2c2.5,5,5.1,10,7.6,15
							c0.3,0.6,1.1,0.8,1.7,0.7c10.8-2.5,21.6-5,32.4-7.5c1-0.2,1.6-1.8,0.7-2.5C223.6,37.8,221,36.4,218.2,35.5
							c-1.8-0.6-2.6,2.3-0.8,2.9c2.3,0.8,4.6,1.9,6.5,3.4c0.2-0.8,0.4-1.7,0.7-2.5c-10.8,2.5-21.6,5-32.4,7.5
							c0.6,0.2,1.1,0.5,1.7,0.7c-2.5-5-5.1-10-7.6-15c-0.6,0.7-1.1,1.5-1.7,2.2c10.7,3.2,22.2,0.3,32.8,3.7
							C219.2,39,220,36.1,218.2,35.5z"/>
					</g>
				</g>
				<g>
					<path class="st3" d="M230,47.3c-1-2.6-2.8-4.8-5-6.6c-10.8,2.5-21.6,5-32.4,7.5l3.5,7C207.5,52.8,218.8,50.1,230,47.3z"/>
					<g>
						<path class="st1" d="M231.5,46.9c-1.1-2.8-3-5.7-5.6-7.4c-0.8-0.5-1.6-0.2-2.5,0c-0.9,0.2-1.8,0.4-2.7,0.6
							c-1.9,0.5-3.9,0.9-5.8,1.4c-7.6,1.8-15.1,3.5-22.7,5.2c-1,0.2-1.3,1.4-0.9,2.2c1.2,2.3,2.4,4.6,3.5,7c0.3,0.6,1.1,0.8,1.7,0.7
							c11.3-2.4,22.6-5.1,33.9-7.9c1.9-0.5,1.1-3.4-0.8-2.9c-11.3,2.8-22.5,5.4-33.9,7.9c0.6,0.2,1.1,0.5,1.7,0.7
							c-1.2-2.3-2.4-4.6-3.5-7c-0.3,0.7-0.6,1.5-0.9,2.2c10.8-2.5,21.6-5,32.4-7.5c-0.5-0.1-1-0.3-1.5-0.4c2,1.6,3.7,3.5,4.7,5.9
							C229.3,49.5,232.2,48.7,231.5,46.9z"/>
					</g>
				</g>
			</g>
			<g>
				<g>
					<path class="st6" d="M153.8,48.5c-2.8,4.8-6.9,8.6-11,12.4c-4,3.8-8.1,7.7-10.9,12.5c-1.5,2.7-2.6,5.7-2.9,8.8
						c9.2-6.7,18.9-12.7,29-18.1L153.8,48.5z"/>
					<g>
						<path class="st1" d="M152.5,47.7c-3.8,6.2-9.6,10.8-14.7,15.9c-5.1,5.1-9.4,11.1-10.3,18.5c-0.1,1.1,1.4,1.9,2.3,1.3
							c9.2-6.7,18.9-12.7,29-18.1c0.6-0.3,0.9-1.1,0.7-1.7c-1.4-5.2-2.8-10.3-4.2-15.5c-0.5-1.9-3.4-1.1-2.9,0.8
							c1.4,5.2,2.8,10.3,4.2,15.5c0.2-0.6,0.5-1.1,0.7-1.7c-10.1,5.3-19.7,11.4-29,18.1c0.8,0.4,1.5,0.9,2.3,1.3
							c0.8-7.2,5.7-12.8,10.6-17.6c4.9-4.8,10.3-9.3,13.9-15.2C156.1,47.6,153.5,46.1,152.5,47.7z"/>
					</g>
				</g>
				<g>
					<path class="st3" d="M129.1,82.1c-0.2,2.4,0,4.9,0.8,7.2c10.2-5.5,20.3-11.1,30.4-17L158,64C147.9,69.3,138.2,75.4,129.1,82.1z
						"/>
					<g>
						<path class="st1" d="M127.6,82.1c-0.2,2.6,0,5.1,0.9,7.6c0.3,0.9,1.3,1.4,2.2,0.9c10.2-5.5,20.3-11.1,30.4-17
							c0.6-0.3,0.9-1.1,0.7-1.7c-0.8-2.8-1.5-5.5-2.3-8.3c-0.3-1-1.4-1.3-2.2-0.9c-10.1,5.3-19.7,11.4-29,18.1
							c-1.5,1.1-0.1,3.7,1.5,2.6c9.2-6.7,18.9-12.7,29-18.1c-0.7-0.3-1.5-0.6-2.2-0.9c0.8,2.8,1.5,5.5,2.3,8.3
							c0.2-0.6,0.5-1.1,0.7-1.7c-10,5.8-20.2,11.5-30.4,17c0.7,0.3,1.5,0.6,2.2,0.9c-0.8-2.2-1-4.4-0.8-6.8
							C130.7,80.1,127.7,80.1,127.6,82.1z"/>
					</g>
				</g>
			</g>
			<g>
				<g>
					<path class="st5" d="M185.6,82.9c-4,2.3-13.4,9.4-18.9,8.9c0,0-3.8-5.6-5.2-7.2c-2.3-2.6,3.6-5.5,5.9-6.7
						c-8.7-10.2-25.1-49.3-6.5-55.5c30.8-10.2,31.1,24,37.1,41.7c2.5-1.1,7.6-2.9,8.8-0.7c0.9,1.8,0.7,4.8,2.2,8.5
						C210.7,76,191.8,78.3,185.6,82.9z"/>
					<g>
						<path class="st1" d="M184.8,81.6c-2.9,1.7-5.6,3.7-8.6,5.3c-2.8,1.6-6.2,3.6-9.6,3.4c0.4,0.2,0.9,0.5,1.3,0.7
							c-1.6-2.3-3.1-4.6-4.8-6.7c-0.2-0.2-0.6-0.6-0.7-0.9c-0.1-0.5,0.9-1.2,1.2-1.5c1.3-1.1,2.9-1.9,4.4-2.7
							c0.9-0.5,0.9-1.7,0.3-2.4c-2.1-2.5-4-5.8-5.6-8.8c-2.1-4.1-3.9-8.3-5.4-12.7c-1.5-4.4-2.8-9-3.3-13.7c-0.4-3.9-0.5-8,0.9-11.7
							c1.3-3.4,3.8-5.4,7.2-6.4c4.3-1.3,9-2.1,13.5-0.9c7.4,1.9,11.3,9,13.7,15.7c2.8,7.7,4,15.8,6.3,23.6c0.3,0.9,0.5,1.7,0.8,2.6
							c0.3,1,1.3,1.3,2.2,0.9c1.4-0.6,3-1.2,4.5-1.5c0.5-0.1,1.4-0.3,1.9,0c0.4,0.2,0.4,0.6,0.6,1c0.5,1.8,0.6,3.7,1.2,5.6
							c0.2,0.6,0.4,1.2,0.6,1.7c0.2,0.4,0,0.1,0.1,0.1c0.1,0-0.1-0.1,0.1-0.2c0,0-0.3,0.4-0.1,0.2c-1,1.2-3.8,2-5.4,2.6
							c-2.9,1-5.8,1.8-8.7,2.8C190.4,78.8,187.3,79.8,184.8,81.6c-1.5,1.1,0,3.7,1.5,2.6c2.5-1.8,5.6-2.8,8.5-3.7
							c3.3-1.1,6.6-2,9.8-3.2c2-0.7,4.8-1.7,5.7-3.8c0.6-1.6-0.4-3-0.8-4.5c-0.5-1.9-0.5-4-1.3-5.8c-1.9-4.2-8.1-1.5-11-0.2
							c0.7,0.3,1.5,0.6,2.2,0.9c-2.7-8-3.9-16.5-6.6-24.5c-2.5-7.6-6.4-15.6-14.3-18.8c-4.3-1.8-9.2-1.6-13.7-0.7
							c-4.4,0.9-8.6,2.4-11.2,6.3c-2.3,3.4-2.9,7.7-2.8,11.7c0.1,4.8,1,9.7,2.4,14.3c1.4,4.9,3.3,9.7,5.4,14.3
							c1.7,3.7,3.7,7.4,6.1,10.7c0.5,0.7,1,1.3,1.5,2c0.1-0.8,0.2-1.6,0.3-2.4c-2.4,1.3-5.9,2.8-6.9,5.6c-0.5,1.5,0,2.6,0.9,3.7
							c0.8,1,1.6,2.1,2.3,3.1c0.7,1,1.4,2.1,2.2,3.1c0.7,1,1.5,1.2,2.8,1.1c3.3-0.3,6.5-1.9,9.4-3.5c3.1-1.7,6-3.8,9-5.6
							C188,83.2,186.5,80.6,184.8,81.6z"/>
					</g>
				</g>
				<g>
					<g>
						<path class="st3" d="M183,82.1c-2.5-9.3-5.9-18.4-10.7-26.7c-1-1.7-2-4-3.9-4.9c-1.4-0.7-3.5-0.3-4.7,0.7
							c-2.7,2.1-2.3,6,0.1,8.1c2.8,2.4,6.9,1.7,10.1,0.6c3.4-1.2,6.9-3.2,9.2-6c2-2.3,3.3-6.5,1.1-9.1c-2.8-3.1-7.4-0.6-7.6,3.2
							c-0.1,2.6,1.1,5.3,1.9,7.7c0.9,2.7,1.9,5.3,3,7.9c2.1,5.1,4.5,10.1,7.2,14.9c0.7,1.3,2.7,0.1,1.9-1.1
							c-3.8-6.7-6.9-13.7-9.5-21c-0.6-1.8-1.2-3.6-1.8-5.4c-0.5-1.6-1.2-4.1,0.8-5.1c1.4-0.7,2.7,0.5,2.9,1.8
							c0.2,1.3-0.2,2.7-0.9,3.9c-1.5,2.3-4.2,4.1-6.7,5.3c-2.4,1.1-5.7,2.4-8.4,1.7c-1.3-0.4-2.5-1.2-2.9-2.6c-0.3-0.9,0.2-2.4,1-3
							c1.6-1.1,2.9-0.1,3.8,1.3c1,1.5,1.9,3.2,2.8,4.8c4,7.5,7,15.6,9.2,23.8C181.2,84.1,183.4,83.5,183,82.1L183,82.1z"/>
					</g>
				</g>
				<g>
					<g>
						<path class="st3" d="M161.2,47.1c-0.7-2.7-1.4-5.5-1.3-8.3c0-1.2,0.3-2.3,0.4-3.5c0-0.1,0-0.2,0-0.3c0,0.1,0,0.1,0-0.1
							c0-0.1,0.2-0.6,0.1-0.3c0.1-0.3,0.1-0.2,0.2-0.3c0,0,0.4-0.2,0.5-0.3c0.7-0.4,0.9-1.4,0.5-2.1c-0.4-0.7-1.3-0.9-2.1-0.5
							c-1.1,0.5-1.9,1.5-2.1,2.7c-0.2,1.3-0.4,2.6-0.5,3.9c-0.3,3.3,0.5,6.7,1.4,9.9C158.8,49.7,161.7,48.9,161.2,47.1L161.2,47.1z"
							/>
					</g>
				</g>
				<g>
					<g>
						<path class="st3" d="M164.8,29.3c1.9,0,1.9-3,0-3C162.9,26.3,162.9,29.3,164.8,29.3L164.8,29.3z"/>
					</g>
				</g>
			</g>
		</g>
		<g class="st2">
			<path class="st3" d="M92,55.1c-19.4-0.6-35.3-0.4-54.7,0.6c-1.7-5.1,0.4-11.1,4.8-14.1s10.8-2.7,14.9,0.6
				c-1.1-6.9,2.7-14.3,8.8-17.8s14-3.4,20.2-0.1s10.4,10,12.1,16.8c3.2-1.8,7.2-3.9,10.3-2c2.1,1.3,3,3.8,3.5,6.2
				c0.7,3,1.1,6.1,1.1,9.2C106.5,54.6,98.5,55.1,92,55.1z"/>
			<g>
				<path d="M92,53.6c-18.2-0.6-36.5-0.3-54.7,0.6c0.5,0.4,1,0.7,1.4,1.1c-1.4-4.4,0.2-9.6,3.9-12.3c3.8-2.8,9.5-2.6,13.2,0.3
					c1.2,1,2.7,0.1,2.5-1.5c-1.1-7.4,3.8-14.9,10.8-17.4c7.6-2.7,16.2-0.4,21.6,5.7c2.9,3.2,4.8,7.3,5.8,11.5c0.2,1,1.4,1.4,2.2,0.9
					c3-1.7,7.8-4.4,10.3-0.5c1,1.7,1.4,3.7,1.8,5.6c0.4,2.3,0.6,4.7,0.7,7c0.5-0.5,1-1,1.5-1.5C106,53.1,99,53.6,92,53.6
					c-1.9,0-1.9,3,0,3c7,0,14-0.5,21-0.5c0.8,0,1.5-0.7,1.5-1.5c-0.1-2.9-0.4-5.9-1-8.7c-0.5-2.3-1.2-4.8-2.8-6.6
					c-3.7-4.3-9.5-1.7-13.5,0.6c0.7,0.3,1.5,0.6,2.2,0.9c-2.3-8.7-8-16.6-16.8-19.4c-8.7-2.7-18.6,0-23.9,7.6
					c-2.8,4-3.9,8.9-3.2,13.7c0.8-0.5,1.7-1,2.5-1.5c-4.7-3.7-11.8-4.3-16.8-0.8c-4.9,3.5-7.1,10-5.3,15.7c0.2,0.6,0.8,1.1,1.4,1.1
					C55.5,56.3,73.8,56,92,56.6C93.9,56.7,93.9,53.7,92,53.6z"/>
			</g>
		</g>
		<g class="st2">
			<path class="st3" d="M381,67.8c-27.3-0.9-49.7-0.5-77,0.8c-2.3-7.1,0.5-15.6,6.7-19.8s15.1-3.9,20.9,0.9
				c-1.6-9.8,3.8-20.1,12.3-25.1s19.7-4.8,28.5-0.1s14.6,14,17,23.6c4.4-2.5,10.2-5.4,14.5-2.8c2.9,1.8,4.2,5.4,5,8.7
				c1,4.3,1.5,8.6,1.6,13C401.4,67,390.1,67.7,381,67.8z"/>
			<g>
				<path d="M381,66.3c-19.9-0.6-39.8-0.6-59.6,0.1c-5.8,0.2-11.6,0.5-17.4,0.7c0.5,0.4,1,0.7,1.4,1.1c-2-6.3,0.2-13.8,5.6-17.8
					c5.6-4.2,14.1-4,19.5,0.4c1.2,1,2.7,0.1,2.5-1.5c-1.6-10.6,5.3-21.4,15.2-25.1c10.8-4.1,23.3-0.8,31,7.8
					c4.2,4.7,7,10.5,8.6,16.6c0.2,1,1.4,1.4,2.2,0.9c4.4-2.5,11.3-6.3,15-0.8c1.6,2.3,2.1,5.1,2.7,7.8c0.7,3.5,1,7.1,1.1,10.7
					c0.5-0.5,1-1,1.5-1.5C400.7,65.6,390.8,66.2,381,66.3c-1.9,0-1.9,3,0,3c9.8,0,19.7-0.7,29.5-0.7c0.8,0,1.5-0.7,1.5-1.5
					c-0.1-4.1-0.5-8.2-1.4-12.2c-0.7-3.2-1.6-6.4-3.7-8.9c-5-5.8-12.8-2.2-18.3,0.9c0.7,0.3,1.5,0.6,2.2,0.9
					c-3.1-12-11-23-23.2-26.9c-12-3.8-25.6-0.1-33,10.4c-3.8,5.5-5.5,12.2-4.5,18.8c0.8-0.5,1.7-1,2.5-1.5
					c-5.1-4.1-12.1-5.4-18.3-3.3c-6,2-10.5,7.1-12.1,13.3c-0.9,3.4-0.8,7.1,0.2,10.5c0.2,0.6,0.8,1.1,1.4,1.1
					c19.9-1,39.7-1.5,59.6-1.2c5.8,0.1,11.6,0.2,17.4,0.4C382.9,69.3,382.9,66.3,381,66.3z"/>
			</g>
		</g>
		<g class="st2">
			<path class="st3" d="M424.8,98.3c-6.8-14.2-37.7-6.2-45.7,6.5c-2.9,4.6-2.6,10.5,0,15.4c-9.4,0.5-22.1-3.1-31.8,14.6
				c-4.1,7.5-2,17.2,4,23.9c-5.4,0.9-10.9,3-13.5,7.2c-2.7,4.2-3.1,18.3,2.2,19.9c0,0,80.3,3.7,87-9.7
				C433.8,162.6,430,109.3,424.8,98.3z"/>
			<g>
				<path class="st1" d="M426.1,97.6c-3.9-8.1-14.1-9-22-7.9c-4.8,0.7-9.5,2.2-13.9,4.3c-3.9,1.9-7.7,4.4-10.6,7.7
					c-4.7,5.5-5.1,12.9-1.8,19.3c0.4-0.8,0.9-1.5,1.3-2.3c-3.2,0.2-6.4-0.1-9.6,0c-3.7,0.1-7.3,0.8-10.6,2.3c-4,1.8-7.3,4.9-9.9,8.4
					c-3.2,4.3-5.4,9.1-5.3,14.6c0.2,5.9,2.6,11.5,6.5,15.8c0.2-0.8,0.4-1.7,0.7-2.5c-5.4,0.9-11.8,3.1-14.6,8.2
					c-1.9,3.4-2.2,8.1-1.9,11.9c0.2,3.3,1.1,8.6,4.9,9.8c0.8,0.3,1.7,0.2,2.6,0.2c12,0.5,24.1,0.5,36.1,0.2
					c7.9-0.2,15.8-0.6,23.7-1.5c6.3-0.7,12.9-1.6,18.9-3.8c2.1-0.8,4.2-1.7,6-3.3c1.7-1.5,2.5-3.5,3.1-5.6
					c2.2-7.3,2.4-15.3,2.5-22.8c0.1-9.4-0.3-18.8-1.2-28.1c-0.7-7.2-1.5-14.7-3.6-21.7C427,99.7,426.6,98.6,426.1,97.6
					c-0.8-1.7-3.4-0.2-2.6,1.5c0,0.1,0.1,0.2,0.1,0.3c0.2,0.4-0.1-0.3,0,0.1c0.1,0.2,0.2,0.4,0.2,0.6c0.2,0.6,0.4,1.1,0.6,1.7
					c0.4,1.4,0.7,2.7,1,4.1c0.7,3.4,1.3,6.9,1.7,10.4c1.1,8.8,1.7,17.6,1.9,26.4c0.2,8.1,0.1,16.3-1.2,24.3c-0.4,2.7-1.1,5.8-2.1,8
					c-0.2,0.3-0.3,0.6-0.5,0.9c-0.2,0.3,0.2-0.3,0,0c-0.1,0.1-0.1,0.2-0.2,0.2c-0.1,0.2-0.3,0.3-0.4,0.4c-0.2,0.2-0.3,0.3-0.5,0.4
					c-0.1,0-0.2,0.2,0,0c-0.1,0.1-0.2,0.1-0.3,0.2c-0.4,0.3-0.8,0.6-1.3,0.8c-4.4,2.4-10.2,3.4-15.4,4.2c-7.2,1.1-14.6,1.6-21.9,2
					c-13.1,0.6-26.3,0.6-39.4,0.2c-1.6,0-3.1-0.1-4.7-0.2c-0.4,0-0.7,0-1.1,0c-0.1,0-0.1,0-0.2,0c0.4,0.1,0.1-0.1-0.1-0.2
					c-0.2-0.2-0.5-0.4-0.7-0.6c-1-1.3-1.4-3.2-1.6-4.7c-0.3-2.1-0.3-4.2-0.1-6.3c0.2-1.6,0.4-3.4,1.1-4.9c0.9-2.2,3-3.8,5-4.9
					c2.5-1.3,5.3-2.1,8.1-2.5c1.2-0.2,1.3-1.7,0.7-2.5c-3.1-3.5-5.3-8-5.6-12.8c-0.4-5,1.4-9.1,4.2-13.2c2.3-3.4,5.4-6.2,9.1-8
					c2.8-1.3,6-1.8,9.1-2c3.3-0.1,6.6,0.1,9.9-0.1c1.2-0.1,1.8-1.2,1.3-2.3c-2.6-5-2.5-11.1,1.2-15.6c2.5-2.9,5.8-5.2,9.2-6.9
					c7.1-3.6,16.1-6,24-4.1c3.7,0.9,6.9,2.8,8.6,6.3C424.4,100.8,427,99.3,426.1,97.6z"/>
			</g>
		</g>
	</g>
	<g>
		<g>
			<path d="M406.6,180c-6.8,0-13.5,0-20.3,0c-17.4,0-34.8,0-52.2,0c-23.9,0-47.8,0-71.8,0c-26.4,0-52.9,0-79.3,0
				c-24.7,0-49.5,0-74.2,0c-18.9,0-37.8,0-56.7,0c-9,0-18,0-27,0c-9.3,0-16.6-6.9-16.7-16.4c0-5.9,0-11.8,0-17.6c0-24.5,0-49,0-73.5
				c0-15.5-0.2-31.1,0-46.6c0.1-8.8,7.1-15.8,15.9-15.9c0.5,0,1,0,1.5,0c3.5,0,6.9,0,10.4,0c15.3,0,30.5,0,45.8,0
				c22.7,0,45.4,0,68.2,0c26.1,0,52.3,0,78.4,0c25.5,0,50.9,0,76.4,0c20.8,0,41.6,0,62.4,0c11.8,0,23.5,0,35.3,0
				c4.1,0,8-0.1,11.8,2.1c5.2,3,8,8.4,8,14.3c0,2,0,4.1,0,6.1c0,21.9,0,43.9,0,65.8c0,20.7,0,41.4,0,62c0,1.2,0,2.5,0,3.7
				C422.4,172.9,415.4,179.9,406.6,180c-1.9,0-1.9,3,0,3c9-0.1,17.1-6.6,18.6-15.6c0.3-2,0.3-4,0.3-6.1c0-7.8,0-15.7,0-23.5
				c0-25.5,0-51,0-76.5c0-9.4,0-18.8,0-28.2c0-2.2,0-4.4,0-6.6c0-5.3-1.8-10.4-5.7-14.2C415.3,8,409.7,7,403.7,7
				c-4.2,0-8.4,0-12.7,0c-16.5,0-33,0-49.5,0c-23.7,0-47.4,0-71.1,0c-26.7,0-53.4,0-80.1,0c-25.3,0-50.5,0-75.8,0
				C94.8,7,75,7,55.3,7c-9.9,0-19.7,0-29.6,0c-0.8,0-1.6,0-2.4,0C14.4,7.6,7,14.4,5.7,23.2C5,28.1,5.5,33.4,5.5,38.3c0,24,0,48,0,72
				c0,17.7-0.1,35.5,0,53.2c0,10.8,8.3,19.4,19.2,19.5c2.6,0,5.3,0,7.9,0c14.2,0,28.3,0,42.5,0c22.3,0,44.6,0,66.9,0
				c26.4,0,52.8,0,79.2,0c26,0,51.9,0,77.9,0c21.5,0,43.1,0,64.6,0c12.7,0,25.3,0,38,0c1.7,0,3.3,0,5,0
				C408.5,183,408.5,180,406.6,180z"/>
		</g>
	</g>
</g>
</svg>
