<?xml version="1.0" encoding="utf-8"?>
<!-- Generator: Adobe Illustrator 24.2.0, SVG Export Plug-In . SVG Version: 6.00 Build 0)  -->
<svg version="1.1" id="Layer_1" xmlns="http://www.w3.org/2000/svg" xmlns:xlink="http://www.w3.org/1999/xlink" x="0px" y="0px"
	 viewBox="0 0 186 181" style="enable-background:new 0 0 186 181;" xml:space="preserve">
<style type="text/css">
	.st0{fill:#C2E1E3;stroke:#000005;stroke-miterlimit:10;}
	.st1{fill:#C2E1E3;}
	.st2{fill:#000005;}
	.st3{fill:#E1262F;}
	.st4{fill:#F7C402;}
	.st5{fill:#4386C6;}
	.st6{fill:#FFFFFF;}
	.st7{clip-path:url(#SVGID_2_);}
</style>
<g>
	<g>
		<path class="st0" d="M182.8,90.5c0,47.8-40.2,86.6-89.8,86.6S3.2,138.3,3.2,90.5C3.2,42.7,43.4,3.9,93,3.9S182.8,42.7,182.8,90.5"
			/>
		<g>
			<path class="st1" d="M182.8,90.5c0,47.8-40.2,86.6-89.8,86.6S3.2,138.3,3.2,90.5C3.2,42.7,43.4,3.9,93,3.9S182.8,42.7,182.8,90.5
				"/>
			<g>
				<path class="st2" d="M181.3,90.5c0,17.7-5.8,35-16.3,49.3c-10.4,14.1-25.2,24.9-41.7,30.6c-17.4,6.1-36.6,6.8-54.4,1.9
					c-17-4.7-32.5-14.4-44-27.8C13.4,131.3,6.3,114.5,5,97C3.6,79.3,8,61.5,17.4,46.4C26.7,31.7,40.5,20,56.5,13
					c16.9-7.5,36.2-9.5,54.3-5.9c17.4,3.4,33.6,12,46.1,24.6c12.3,12.4,20.6,28.4,23.4,45.6C181,81.7,181.3,86.1,181.3,90.5
					c0,1.9,3,1.9,3,0c0-18.3-6-36.3-16.8-51c-10.8-14.6-25.9-25.7-43.1-31.8c-18-6.4-37.9-7.1-56.3-2c-17.5,4.8-33.6,14.8-45.4,28.7
					C10.8,48.2,3.5,65.5,2,83.6c-1.5,18.3,3.1,36.9,12.9,52.4c9.6,15.3,23.9,27.4,40.4,34.7c17.5,7.6,37.2,9.7,56,6.1
					c18-3.5,34.8-12.4,47.7-25.4c12.7-12.8,21.4-29.4,24.2-47.3c0.7-4.5,1.1-9.1,1.1-13.6C184.3,88.6,181.3,88.6,181.3,90.5
					L181.3,90.5z"/>
			</g>
		</g>
	</g>
	<g>
		<g>
			<g>
				<path class="st1" d="M144.2,132.8c-1,1.4-2.3,2.7-3.7,3.8c0.1,0,0.1,0,0.2,0c3.3-0.5,6.5-1.9,9.3-4
					C148,132.9,146.1,132.9,144.2,132.8z"/>
				<g>
					<path class="st2" d="M142.9,132c-0.9,1.2-2.1,2.5-3.4,3.5c-1,0.8-0.2,2.7,1.1,2.6c3.6-0.4,7.3-2,10.2-4.2
						c0.6-0.5,0.9-1.1,0.6-1.9c-0.3-0.7-1-1-1.8-0.9c-0.7,0.1-1.7,0.2-2.6,0.2c-0.9,0-1.9,0-2.8-0.1c-0.8-0.1-1.5,0.7-1.5,1.5
						c0,0.9,0.7,1.4,1.5,1.5c2.1,0.1,4.1,0,6.2-0.3c-0.4-0.9-0.8-1.8-1.2-2.7c-1.3,1-2.8,1.9-4.3,2.5c0.2-0.1-0.3,0.1-0.4,0.2
						c-0.2,0.1-0.4,0.2-0.6,0.2c-0.4,0.1-0.7,0.2-1.1,0.3c-0.4,0.1-0.8,0.2-1.2,0.3c-0.2,0-0.4,0.1-0.6,0.1c-0.1,0-0.2,0-0.3,0.1
						c-0.2,0-0.2,0-0.1,0c0.4,0.9,0.7,1.7,1.1,2.6c1.5-1.2,2.8-2.5,3.9-4.1c0.5-0.6,0.1-1.7-0.5-2.1
						C144.2,131.1,143.4,131.4,142.9,132z"/>
				</g>
			</g>
			<g>
				<path class="st1" d="M120.3,140c0.5,1.2,1.1,2.4,1.6,3.5c0.1,0,0.1,0,0.2,0c2.6-0.4,5.2-1.4,7.6-2.8
					C126.5,141,123.4,140.7,120.3,140z"/>
				<g>
					<path class="st2" d="M119,140.8c0.5,1.2,1.1,2.4,1.6,3.5c0.2,0.4,0.8,0.8,1.3,0.7c3-0.3,5.9-1.5,8.5-3c0.5-0.3,0.9-1.1,0.7-1.7
						c-0.2-0.6-0.8-1.2-1.4-1.1c-3.1,0.3-6,0-9-0.6c-0.8-0.2-1.7,0.2-1.8,1c-0.2,0.8,0.2,1.7,1,1.8c3.2,0.7,6.5,1,9.8,0.7
						c-0.3-0.9-0.5-1.9-0.8-2.8c-1.1,0.7-2.3,1.3-3.4,1.7c-0.6,0.2-1.3,0.4-1.9,0.6c-0.3,0.1-0.6,0.1-0.9,0.2
						c-0.2,0-0.3,0.1-0.5,0.1c-0.1,0-0.5,0.1-0.3,0.1c0.4,0.2,0.9,0.5,1.3,0.7c-0.6-1.2-1.1-2.4-1.6-3.5c-0.3-0.7-1.4-0.9-2.1-0.5
						C118.8,139.2,118.6,140,119,140.8z"/>
				</g>
			</g>
			<g>
				<path class="st3" d="M135,106.3c2.7,5.3,3.9,11.4,3.6,17.5c-0.1,2.6-0.5,5.3-1.4,7.8c2.3,0.6,4.7,1.1,7,1.2
					c0.5-0.7,1-1.5,1.4-2.3c1.5-3,2-6.3,2.2-9.7c0.3-6-0.9-12.2-3.6-17.5c-4.6-9-14.1-14.7-23.6-14.8c-1.2,1.2-2.3,2.4-3.4,3.8
					C124.6,94.2,131.3,99.2,135,106.3z"/>
				<g>
					<path class="st2" d="M133.7,107.1c3.6,7.2,4.7,16.4,2,24.1c-0.3,0.8,0.3,1.6,1,1.8c1.4,0.4,2.8,0.7,4.2,0.9
						c1.2,0.2,3.3,0.8,4.3-0.1c0.9-0.8,1.5-2.3,2-3.4c0.5-1.2,1-2.5,1.3-3.8c1.2-5.2,1-10.9-0.2-16.1c-2.2-9.7-8.7-17.7-17.9-21.4
						c-2.4-1-4.9-1.6-7.4-1.9c-1.1-0.1-2.6-0.5-3.6,0.3c-1.3,1-2.4,2.5-3.4,3.8c-0.7,0.8-0.5,2.2,0.7,2.5
						C124.1,95.6,130.2,100.5,133.7,107.1c0.9,1.7,3.5,0.2,2.6-1.5c-3.8-7.3-10.7-12.7-18.7-14.7c0.2,0.8,0.4,1.7,0.7,2.5
						c1-1.3,2.1-2.6,3.4-3.8c-0.4,0.1-0.7,0.3-1.1,0.4c6.8,0.1,13.2,3.1,17.9,8c5.4,5.6,7.8,13.4,7.8,21.1c0,4.6-0.8,9.2-3.4,13
						c0.4-0.2,0.9-0.5,1.3-0.7c-2.2-0.2-4.4-0.6-6.6-1.2c0.3,0.6,0.7,1.2,1,1.8c2.9-8.4,1.6-18.5-2.4-26.4
						C135.4,103.9,132.8,105.4,133.7,107.1z"/>
				</g>
			</g>
			<g>
				<path class="st3" d="M83.8,128.6c4.2,14.7,15.8,36.6,22.2,47.6c3.4-0.5,6.7-1.1,10-2c-4.9-8.4-12.9-23.1-18.4-36.3
					C92.7,135.4,88.1,132.2,83.8,128.6z"/>
				<g>
					<path class="st2" d="M82.4,129c1.9,6.7,4.7,13.2,7.6,19.5c3.1,6.7,6.4,13.2,9.9,19.7c1.6,2.9,3.2,5.8,4.9,8.7
						c0.4,0.6,1,0.8,1.7,0.7c3.4-0.5,6.7-1.1,10-2c0.9-0.2,1.4-1.4,0.9-2.2c-3.4-5.8-6.6-11.7-9.6-17.7c-1.8-3.5-3.6-7.1-5.2-10.7
						c-0.8-1.8-1.6-3.6-2.4-5.4c-0.4-0.8-0.6-1.8-1.1-2.6c-0.5-0.8-1.7-1.2-2.5-1.6c-4.1-2.3-7.9-5-11.5-8c-1.5-1.2-3.6,0.9-2.1,2.1
						c4.4,3.6,9,6.9,14.1,9.5c-0.2-0.3-0.5-0.6-0.7-0.9c5.3,12.6,11.7,24.8,18.6,36.7c0.3-0.7,0.6-1.5,0.9-2.2
						c-3.3,0.8-6.6,1.5-10,2c0.6,0.2,1.1,0.5,1.7,0.7c-6.8-11.8-13.2-23.9-18.3-36.6c-1.4-3.5-2.7-7-3.7-10.6
						C84.8,126.4,81.9,127.2,82.4,129z"/>
				</g>
			</g>
			<g>
				<path class="st3" d="M120.3,140c-2.2-0.5-4.3-1.2-6.4-1.9c-2.3-0.9-4.6-1.9-6.8-3c-5-2.6-9.7-5.7-14-9.4c-3.6-3-7-6.4-10.2-10
					c-1.8-2.1-3.6-4.3-5.3-6.6c-9.2-12.4-13.7-19.7-15.8-34.9l-7.3-0.6c0.9,17.2,4.4,25.6,13.9,38.5c4.5,6.1,9.7,11.7,15.4,16.5
					c4.3,3.6,8.9,6.7,13.8,9.3c2.3,1.2,4.7,2.3,7.1,3.2c1.9,0.7,3.9,1.3,5.9,1.8c3.7,0.9,7.6,1.2,11.3,0.6
					C121.4,142.4,120.8,141.2,120.3,140z"/>
				<g>
					<path class="st2" d="M120.7,138.6c-12.8-3-24.2-10.9-33.2-20.2c-4.5-4.6-8.4-9.7-12.1-15c-2.8-4-5.5-8.1-7.5-12.6
						c-2.4-5.4-3.7-11.1-4.5-16.9c-0.1-0.7-0.8-1.1-1.4-1.1c-2.4-0.2-4.9-0.4-7.3-0.6c-0.8-0.1-1.5,0.7-1.5,1.5
						c0.4,6.4,1.1,12.8,3,18.9c1.7,5.5,4.4,10.6,7.6,15.4c8.3,12.5,19.1,23.8,32.4,30.9c8,4.3,17.1,7.6,26.2,6.2
						c1-0.2,1.3-1.4,0.9-2.2c-0.6-1.2-1.1-2.4-1.6-3.5c-0.8-1.8-3.4-0.2-2.6,1.5c0.5,1.2,1.1,2.4,1.6,3.5c0.3-0.7,0.6-1.5,0.9-2.2
						c-7.8,1.1-15.9-1.8-22.7-5.3c-6.5-3.4-12.5-7.7-17.8-12.8c-5.1-4.9-9.7-10.4-13.7-16.2c-3.1-4.5-5.9-9.2-7.7-14.3
						c-2.3-6.4-3.1-13.1-3.5-19.9c-0.5,0.5-1,1-1.5,1.5c2.4,0.2,4.9,0.4,7.3,0.6c-0.5-0.4-1-0.7-1.4-1.1c0.8,5.5,2,10.8,4.1,15.9
						c1.9,4.7,4.5,9,7.4,13.1c7.5,10.9,16.2,21,27.2,28.4c6.3,4.2,13.3,7.7,20.7,9.4C121.8,141.9,122.6,139,120.7,138.6z"/>
				</g>
			</g>
			<g>
				<path class="st4" d="M134.3,136.8c-3.7-0.3-7.4-1.3-10.9-2.7c-2.4-0.9-4.7-1.9-6.9-3.1c-5-2.6-9.7-5.8-14-9.4
					c-3.5-3-6.9-6.3-9.9-9.8c-1.7-2-3.4-4-4.9-6.1c-0.1-0.2-0.3-0.4-0.4-0.6C77.9,92.6,75.5,90.4,71,75l-9.2-0.7
					c2.1,15.2,6.7,22.5,15.8,34.9c1.7,2.3,3.4,4.5,5.3,6.6c3.2,3.6,6.6,7,10.2,10c4.4,3.7,9,6.8,14,9.4c2.2,1.1,4.4,2.1,6.8,3
					c2.1,0.8,4.2,1.5,6.4,1.9c3.1,0.7,6.2,1,9.4,0.7c0.5-0.1,1.1-0.1,1.6-0.2c3.3-0.5,6.5-1.9,9.3-4
					C138.5,136.9,136.3,136.9,134.3,136.8z"/>
				<g>
					<path class="st2" d="M134.3,135.3c-7-0.7-13.8-3.6-19.8-7c-5.9-3.4-11.3-7.6-16.1-12.4c-4.7-4.7-8.8-9.9-12.7-15.3
						c-2.5-3.4-5.1-6.9-7.2-10.6c-2.7-4.8-4.3-10.1-5.9-15.4c-0.2-0.7-0.8-1-1.4-1.1c-3.1-0.2-6.1-0.5-9.2-0.7
						c-1.1-0.1-1.6,1-1.4,1.9c0.9,6.5,2.5,12.9,5.4,18.8c2.9,6,6.9,11.4,10.8,16.8c9.8,13.1,22.8,24.5,38.4,29.9
						c8.6,3,18.6,3.5,26.2-2.2c1.4-1,0.6-3-1.2-2.7C138.2,135.4,136.2,135.4,134.3,135.3c-1.9-0.1-1.9,2.9,0,3
						c2.3,0.2,4.5,0.1,6.7-0.2c-0.4-0.9-0.8-1.8-1.2-2.7c-6.5,4.9-14.6,4.8-22.1,2.5c-7.5-2.3-14.6-6.3-20.8-11
						c-6.3-4.8-11.9-10.6-16.8-16.9c-3.9-5.1-7.8-10.4-10.8-16.1c-3.3-6.2-5-13-6-19.9c-0.5,0.6-1,1.3-1.4,1.9
						c3.1,0.2,6.1,0.5,9.2,0.7c-0.5-0.4-1-0.7-1.4-1.1c1.5,5,3,10,5.4,14.7c2,4,4.7,7.6,7.3,11.1c4,5.4,8,10.8,12.7,15.6
						c4.9,5,10.4,9.5,16.4,13.1c6.9,4.2,14.7,7.6,22.9,8.4C136.2,138.4,136.2,135.4,134.3,135.3z"/>
				</g>
			</g>
			<g>
				<path class="st5" d="M110.6,142.9c5.2,11.3,11.1,22.4,14.7,28.4c3.1-1.2,6.1-2.5,9-3.9c-3-5.2-7.9-14.2-12.4-23.8
					C118.1,144.2,114.3,143.8,110.6,142.9z"/>
				<g>
					<path class="st2" d="M109.3,143.7c4.4,9.7,9.3,19.2,14.7,28.4c0.3,0.5,1.1,0.9,1.7,0.7c3.2-1.2,6.3-2.6,9.4-4.1
						c0.7-0.4,0.9-1.4,0.5-2.1c-4.5-7.7-8.6-15.7-12.4-23.8c-0.3-0.6-1.1-0.8-1.7-0.7c-3.5,0.5-7.1,0.2-10.5-0.6
						c-1.9-0.4-2.7,2.5-0.8,2.9c4,0.9,8,1.2,12.1,0.6c-0.6-0.2-1.1-0.5-1.7-0.7c3.8,8.1,7.9,16.1,12.4,23.8c0.2-0.7,0.4-1.4,0.5-2.1
						c-2.8,1.4-5.7,2.7-8.7,3.8c0.6,0.2,1.1,0.5,1.7,0.7c-5.4-9.2-10.3-18.7-14.7-28.4C111.1,140.4,108.5,141.9,109.3,143.7z"/>
				</g>
			</g>
			<g>
				<path class="st4" d="M104.7,141.1c-2.4-0.9-4.8-2-7.1-3.2c5.5,13.2,13.6,27.9,18.4,36.3c3.2-0.8,6.2-1.8,9.2-2.9
					c-3.6-6.1-9.6-17.1-14.7-28.4C108.6,142.4,106.6,141.8,104.7,141.1z"/>
				<g>
					<path class="st2" d="M105.1,139.7c-2.3-0.9-4.5-1.9-6.7-3c-1-0.5-2.8,0.4-2.2,1.7c5.3,12.6,11.7,24.8,18.6,36.7
						c0.3,0.6,1.1,0.9,1.7,0.7c3.1-0.8,6.2-1.8,9.2-2.9c0.9-0.3,1.4-1.3,0.9-2.2c-3-5-5.7-10.2-8.4-15.4c-1.6-3.2-3.2-6.5-4.8-9.7
						c-0.4-0.8-0.8-1.6-1.1-2.4c-0.5-1-0.7-1.4-1.8-1.7C108.7,140.9,106.9,140.3,105.1,139.7c-1.8-0.7-2.6,2.2-0.8,2.9
						c1.9,0.7,3.9,1.3,5.9,1.8c-0.3-0.2-0.6-0.5-0.9-0.7c4.4,9.7,9.3,19.2,14.7,28.4c0.3-0.7,0.6-1.5,0.9-2.2
						c-3,1.1-6.1,2.1-9.2,2.9c0.6,0.2,1.1,0.5,1.7,0.7c-6.7-11.6-13.1-23.6-18.3-35.9c-0.7,0.6-1.5,1.1-2.2,1.7
						c2.4,1.3,4.9,2.4,7.4,3.3C106.1,143.2,106.9,140.3,105.1,139.7z"/>
				</g>
			</g>
			<g>
				<path class="st5" d="M124.8,85c-3.3,0.7-6.4,2.1-9.3,4c-1.2,0.8-2.3,1.6-3.4,2.6c-4.7,4.2-8.4,9.9-10.4,16.2
					c3.1,3.5,6.4,6.8,9.9,9.7c-1.2-4.7-1.8-8.6-1.1-11.2c1.2-5.1,3.5-9.9,6.6-14c1-1.3,2.2-2.6,3.4-3.8c1.4-1.3,2.8-2.5,4.4-3.6
					C124.9,85,124.9,85,124.8,85z"/>
				<g>
					<path class="st2" d="M124.4,83.5c-8.2,1.8-15.1,7.4-19.6,14.4c-1.1,1.7-2,3.4-2.8,5.2c-0.7,1.5-2.3,4.2-1.2,5.7
						c1.3,1.8,3.2,3.5,4.8,5.1c1.6,1.6,3.3,3.2,5.1,4.7c1.1,0.9,2.9,0.1,2.5-1.5c-0.7-2.8-1.4-5.6-1.3-8.5c0-2.7,1.1-5.5,2.2-8
						c2.5-5.7,6.5-10.9,11.7-14.4c1.5-1,0.5-3-1.2-2.7C124.5,83.5,124.5,83.5,124.4,83.5c-1.9,0.3-1.1,3.2,0.8,2.9c0,0,0.1,0,0.1,0
						c-0.4-0.9-0.8-1.8-1.2-2.7c-5.8,3.9-10.2,9.5-13,15.9c-1.2,2.8-2.3,5.8-2.4,8.8c-0.1,3.2,0.6,6.5,1.4,9.6
						c0.8-0.5,1.7-1,2.5-1.5c-3.5-3-6.8-6.3-9.9-9.7c0.1,0.5,0.3,1,0.4,1.5c3.2-10.2,11.2-19.4,21.9-21.7
						C127.1,86,126.3,83.1,124.4,83.5z"/>
				</g>
			</g>
			<g>
				<path class="st4" d="M120.6,88.5c9.6,0.1,19,5.8,23.6,14.8c2.7,5.3,3.9,11.4,3.6,17.5c-0.1,3.3-0.7,6.7-2.2,9.7
					c-0.4,0.8-0.9,1.6-1.4,2.3c1.9,0.1,3.8,0.1,5.8-0.2c2.1-1.6,3.9-3.7,5.1-6.1c1.5-3,2-6.3,2.2-9.7c0.3-6-0.9-12.2-3.6-17.5
					C148.2,88.8,136.1,82.8,125,85C123.4,86,121.9,87.2,120.6,88.5z"/>
				<g>
					<path class="st2" d="M120.6,90c6.8,0.1,13.2,3.1,17.9,8c5.4,5.6,7.8,13.4,7.8,21.1c0,4.6-0.8,9.2-3.4,13
						c-0.7,1,0.3,2.2,1.3,2.3c1.8,0.1,3.5,0.1,5.3-0.1c1.5-0.2,2.6-1.3,3.6-2.4c2-2.1,3.5-4.6,4.4-7.3c1.9-5.9,1.7-12.7,0.2-18.6
						c-2.6-10.6-10.6-19.2-21.2-22c-2.7-0.7-5.5-1-8.3-0.8c-1.4,0.1-3.2,0.1-4.4,1c-1.5,1-2.9,2.2-4.2,3.4c-1.4,1.3,0.7,3.5,2.1,2.1
						c1-0.9,2-1.8,3-2.6c1.1-0.8,2.1-0.9,3.4-0.9c2.1-0.1,4.3,0,6.3,0.4c4.3,0.9,8.3,2.9,11.7,5.7c7.9,6.8,11,18,9.3,28.1
						c-0.5,2.9-1.4,5.7-3.2,8c-0.4,0.6-0.9,1.1-1.5,1.6c-0.4,0.4-1,1.1-1.5,1.3c-0.1,0-0.6,0-0.7,0c-0.5,0-1,0.1-1.4,0.1
						c-1,0-1.9,0-2.9-0.1c0.4,0.8,0.9,1.5,1.3,2.3c2.6-3.7,3.6-8.1,3.8-12.5c0.2-4.4-0.3-9-1.6-13.3c-2.4-7.6-7.6-14-14.7-17.6
						c-3.8-1.9-8-3-12.3-3.1C118.6,87,118.6,90,120.6,90z"/>
				</g>
			</g>
			<g>
				<path class="st5" d="M153.6,99.3c2.7,5.3,3.9,11.4,3.6,17.5c-0.1,3.3-0.7,6.7-2.2,9.7c-1.2,2.4-3,4.5-5.1,6.1c0.1,0,0.1,0,0.2,0
					c5.8-1,11.6-4.5,14.3-10.1c1.5-3,2-6.3,2.2-9.7c0.3-6-0.9-12.2-3.6-17.5c-5.5-10.6-17.6-16.6-28.8-14.3c-3.3,0.7-6.4,2.1-9.3,4
					C136.1,82.8,148.2,88.8,153.6,99.3z"/>
				<g>
					<path class="st2" d="M152.3,100.1c2.7,5.2,3.7,11.1,3.4,16.9c-0.3,5.7-2.2,10.9-6.8,14.5c-1,0.8-0.2,2.7,1.1,2.6
						c5.9-0.7,11.6-4.2,14.8-9.2c3.7-5.7,3.9-13.4,2.9-20c-1-6.4-3.7-12.4-8.2-17.1c-4-4.1-9.2-7-14.7-8.2c-7.2-1.5-14.4,0-20.5,4
						c-1.5,1-0.5,3.1,1.2,2.7C136.2,84.3,147.3,90.5,152.3,100.1c0.9,1.7,3.5,0.2,2.6-1.5c-5.7-10.8-18.2-17.4-30.3-15.1
						c0.4,0.9,0.8,1.8,1.2,2.7c4.8-3.2,10.4-4.8,16.2-4.1c5,0.6,9.8,2.8,13.6,6c4.3,3.7,7.2,8.6,8.6,14c1.5,5.8,1.8,12.8-0.5,18.4
						c-2.2,5.4-7.8,9.7-13.6,10.4c0.4,0.9,0.7,1.7,1.1,2.6c5.1-4,7.3-9.9,7.7-16.2c0.4-6.5-0.8-13.1-3.8-18.9
						C154,96.9,151.4,98.4,152.3,100.1z"/>
				</g>
			</g>
			<g>
				<path class="st3" d="M97.2,102c2.9-4.3,6.7-7.9,11.1-10.3c-0.7,0.1-1.4,0.2-2.1,0.3c-4.4,0.9-8.5,3.1-12,6
					c0.7,0.9,1.5,1.9,2.3,3.1C96.7,101.4,96.9,101.7,97.2,102z"/>
				<g>
					<path class="st2" d="M98.5,102.7c2.7-4,6.3-7.4,10.6-9.8c1.2-0.7,0.8-3-0.8-2.8c-5.7,0.7-10.8,3.1-15.2,6.8
						c-0.5,0.4-0.6,1.3-0.2,1.8c1,1.3,2,2.6,3,4c0.5,0.6,1.3,1,2.1,0.5c0.6-0.4,1-1.4,0.5-2.1c-1-1.3-2-2.6-3-4
						c-0.1,0.6-0.2,1.2-0.2,1.8c3.7-3.1,8.2-5.3,13-5.9c-0.3-0.9-0.5-1.9-0.8-2.8c-4.7,2.6-8.6,6.4-11.6,10.9
						c-0.5,0.7-0.1,1.7,0.5,2.1C97.1,103.7,98,103.4,98.5,102.7z"/>
				</g>
			</g>
			<g>
				<path class="st5" d="M137.2,131.6c-1.5-0.4-3-0.9-4.5-1.5c-7.6-2.9-14.7-7.2-21-12.6c-3.5-3-6.8-6.2-9.9-9.7
					c-1.6-1.9-3.2-3.8-4.7-5.8c-0.2-0.3-0.4-0.6-0.7-0.9c-0.9-1.2-1.6-2.2-2.3-3.1c-7.2-9.4-7.5-8.3-12.6-22.2L71,75
					c4.5,15.4,6.8,17.7,16.1,30.1c0.1,0.2,0.3,0.4,0.4,0.6c1.6,2.1,3.2,4.1,4.9,6.1c3.1,3.5,6.4,6.8,9.9,9.8c4.4,3.7,9,6.9,14,9.4
					c2.3,1.2,4.6,2.2,6.9,3.1c3.5,1.3,7.2,2.3,10.9,2.7c2.1,0.2,4.2,0.1,6.3-0.2c1.4-1.1,2.6-2.3,3.7-3.8
					C141.8,132.6,139.5,132.2,137.2,131.6z"/>
				<g>
					<path class="st2" d="M137.6,130.1c-12.1-3.4-22.9-11-31.5-20c-4.2-4.4-7.8-9.2-11.5-14c-2.1-2.7-4.3-5.2-6.1-8.1
						c-2.4-3.9-3.9-8.3-5.4-12.6c-0.2-0.7-0.7-1-1.4-1.1c-3.5-0.3-7-0.6-10.5-0.9c-1-0.1-1.7,1-1.4,1.9c1.6,5.5,3.3,11,6.1,16
						c2.6,4.7,5.9,8.9,9.1,13.2c9.5,12.7,21.1,23.9,35.9,30.2c4.2,1.8,8.5,3.1,13.1,3.5c1.2,0.1,2.4,0.2,3.6,0.1
						c1.1,0,2.5,0,3.5-0.3c0.9-0.3,1.7-1.2,2.3-1.8c0.8-0.8,1.6-1.7,2.2-2.6c0.7-1-0.3-2.2-1.3-2.3
						C142,131.1,139.8,130.7,137.6,130.1c-1.9-0.5-2.7,2.4-0.8,2.9c2.4,0.7,4.9,1.1,7.4,1.3c-0.4-0.8-0.9-1.5-1.3-2.3
						c-0.5,0.7-1.1,1.4-1.8,2c-0.3,0.3-0.6,0.7-1,0.9c-0.5,0.3-0.4,0.3-1.1,0.3c-2.1,0.1-4.2,0.1-6.3-0.2c-3.8-0.5-7.6-1.7-11.1-3.2
						c-6.9-2.9-13.3-7.1-19-12c-5.7-4.9-10.6-10.5-15.1-16.6c-3-4.1-6.2-8.1-8.8-12.5c-3-5.1-4.7-10.7-6.4-16.3
						c-0.5,0.6-1,1.3-1.4,1.9c3.5,0.3,7,0.6,10.5,0.9c-0.5-0.4-1-0.7-1.4-1.1c1.5,4.2,3,8.5,5.2,12.4c1.7,2.9,3.9,5.4,5.9,8.1
						c3.8,4.8,7.3,9.8,11.4,14.2c4.4,4.8,9.3,9.1,14.6,12.7c5.9,4.1,12.5,7.4,19.5,9.4C138.7,133.5,139.4,130.6,137.6,130.1z"/>
				</g>
			</g>
			<g>
				<path class="st4" d="M115.4,89c-2.5,0.5-4.9,1.4-7.1,2.7c-4.4,2.4-8.2,6-11.1,10.3c1.5,2,3.1,3.9,4.7,5.8
					c2-6.3,5.6-12,10.4-16.2c1.1-0.9,2.2-1.8,3.4-2.6C115.5,89,115.5,89,115.4,89z"/>
				<g>
					<path class="st2" d="M115,87.5c-8,1.7-14.6,7.1-19.2,13.7c-0.3,0.4-0.3,1.1,0,1.5c1.6,2.1,3.2,4.1,4.9,6.1
						c0.8,0.9,2.2,0.3,2.5-0.7c2.3-7.2,6.8-13.7,13-17.9c1.5-1,0.5-3-1.2-2.7C115.1,87.5,115.1,87.5,115,87.5
						c-0.8,0.1-1.2,1.1-1,1.8c0.2,0.9,1,1.2,1.8,1c0,0,0.1,0,0.1,0c-0.4-0.9-0.8-1.8-1.2-2.7c-6.9,4.7-11.9,11.8-14.4,19.7
						c0.8-0.2,1.7-0.4,2.5-0.7c-1.5-1.8-3-3.6-4.5-5.5c0,0.5,0,1,0,1.5c4.1-6,10.2-10.8,17.4-12.3C117.7,90,116.9,87.1,115,87.5z"/>
				</g>
			</g>
		</g>
		<g>
			<g>
				<path class="st5" d="M102.1,50.6c-4.3-2.3-9.2-3.2-14-4.1c-4.8-0.9-9.7-1.8-14-4l4.4,14.2c9.8-0.5,19.5-1.1,29.3-1.7
					C106.2,53.2,104.2,51.7,102.1,50.6z"/>
				<g>
					<path class="st2" d="M102.8,49.3c-8.8-4.5-19.2-3.7-28-8.1c-1.1-0.5-2.6,0.4-2.2,1.7c1.5,4.7,3,9.4,4.4,14.2
						c0.2,0.6,0.8,1.1,1.4,1.1c9.8-0.5,19.5-1.1,29.3-1.7c1.3-0.1,2-1.6,1.1-2.6C107.1,52,105.1,50.5,102.8,49.3
						c-1.7-0.9-3.2,1.7-1.5,2.6c2,1.1,3.8,2.4,5.4,4.1c0.4-0.9,0.7-1.7,1.1-2.6c-9.8,0.6-19.5,1.2-29.3,1.7c0.5,0.4,1,0.7,1.4,1.1
						c-1.5-4.7-3-9.4-4.4-14.2c-0.7,0.6-1.5,1.1-2.2,1.7c8.9,4.4,19.3,3.6,28,8.1C103,52.8,104.5,50.2,102.8,49.3z"/>
				</g>
			</g>
			<g>
				<path class="st6" d="M111.2,61.4c-0.5-2.4-1.8-4.6-3.4-6.5c-9.8,0.6-19.5,1.2-29.3,1.7l2.1,6.6C90.7,62.8,101,62.2,111.2,61.4z"
					/>
				<g>
					<path class="st2" d="M112.6,61c-0.3-1.3-0.8-2.6-1.4-3.8c-0.6-1.1-1.5-2.7-2.5-3.4c-0.6-0.5-1.4-0.3-2.1-0.2
						c-0.8,0.1-1.7,0.1-2.5,0.2c-1.7,0.1-3.5,0.2-5.2,0.3c-6.8,0.4-13.6,0.8-20.4,1.2c-0.9,0.1-1.8,0.9-1.4,1.9
						c0.7,2.2,1.4,4.4,2.1,6.6c0.2,0.6,0.8,1.1,1.4,1.1c10.2-0.4,20.4-1.1,30.6-1.8c1.9-0.1,1.9-3.1,0-3
						c-10.2,0.8-20.4,1.4-30.6,1.8c0.5,0.4,1,0.7,1.4,1.1c-0.7-2.2-1.4-4.4-2.1-6.6c-0.5,0.6-1,1.3-1.4,1.9
						c9.8-0.5,19.5-1.1,29.3-1.7c-0.4-0.1-0.7-0.3-1.1-0.4c1.5,1.7,2.5,3.6,3,5.8C110.2,63.7,113,62.9,112.6,61z"/>
				</g>
			</g>
		</g>
		<g>
			<g>
				<path class="st5" d="M44.7,51.2c-3.2,3.7-7.3,6.4-11.4,9.1c-4.1,2.7-8.2,5.5-11.3,9.2c-1.7,2.1-3.1,4.6-3.8,7.2
					c9-4.5,18.3-8.3,27.9-11.4L44.7,51.2z"/>
				<g>
					<path class="st2" d="M43.6,50.1c-8.2,9.5-23,13-26.9,26.2c-0.4,1.3,1.1,2.3,2.2,1.7c8.9-4.4,18.1-8.2,27.5-11.3
						c0.6-0.2,1.2-0.8,1.1-1.4c-0.5-4.7-0.9-9.4-1.4-14.1c-0.2-1.9-3.2-1.9-3,0c0.5,4.7,0.9,9.4,1.4,14.1c0.4-0.5,0.7-1,1.1-1.4
						c-9.7,3.2-19.1,7.1-28.2,11.6c0.7,0.6,1.5,1.1,2.2,1.7c1.8-6.1,6.7-10.2,11.7-13.7c5-3.4,10.3-6.5,14.4-11.2
						C47,50.8,44.9,48.7,43.6,50.1z"/>
				</g>
			</g>
			<g>
				<path class="st6" d="M18.2,76.7c-0.6,2.1-0.7,4.2-0.3,6.4c9.7-3.3,19.3-6.7,28.9-10.3l-0.7-7.5C36.5,68.5,27.2,72.3,18.2,76.7z"
					/>
				<g>
					<path class="st2" d="M16.8,76.3c-0.6,2.4-0.7,4.7-0.3,7.2c0.1,0.8,1.1,1.3,1.8,1c9.7-3.3,19.3-6.7,28.9-10.3
						c0.6-0.2,1.2-0.8,1.1-1.4c-0.2-2.5-0.5-5-0.7-7.5c-0.1-0.9-0.9-1.8-1.9-1.4c-9.7,3.2-19.1,7.1-28.2,11.6
						c-1.7,0.9-0.2,3.4,1.5,2.6c8.9-4.4,18.1-8.2,27.5-11.3c-0.6-0.5-1.3-1-1.9-1.4c0.2,2.5,0.5,5,0.7,7.5c0.4-0.5,0.7-1,1.1-1.4
						c-9.6,3.6-19.2,7-28.9,10.3c0.6,0.3,1.2,0.7,1.8,1c-0.3-1.9-0.2-3.7,0.3-5.6C20.2,75.3,17.3,74.5,16.8,76.3z"/>
				</g>
			</g>
		</g>
		<g>
			<g>
				<path class="st4" d="M67.3,85.8c-3.8,1.4-13,6.2-17.7,4.9c0,0-2.5-5.4-3.5-7c-1.6-2.6,3.9-4.2,6.1-5c-6-10.2-14.5-46.6,2.5-49.2
					C83,25.3,78.1,55.1,80.8,71.3c2.4-0.6,7-1.4,7.7,0.7c0.6,1.7-0.1,4.2,0.7,7.7C90.2,83.6,73.3,82.7,67.3,85.8z"/>
				<g>
					<path class="st2" d="M66.9,84.4c-2.8,1.1-5.4,2.3-8.2,3.3c-2.6,1-5.9,2.3-8.7,1.6c0.3,0.2,0.6,0.5,0.9,0.7
						c-1-2.2-2-4.4-3.2-6.5c-0.1-0.2-0.3-0.6-0.3-0.7c0.1-0.4,0.9-0.8,1.3-1c1.2-0.7,2.6-1.1,4-1.6c0.9-0.3,1.4-1.3,0.9-2.2
						c-1.5-2.6-2.6-5.5-3.5-8.3c-1.2-3.8-2.2-7.6-2.8-11.5c-0.7-4-1.1-8.2-0.9-12.3c0.1-3.3,0.6-6.8,2.1-9.8c1.3-2.6,3.4-4.4,6.2-5
						c4-0.8,8.6-0.8,12.5,0.7c6.4,2.5,8.9,9.4,10,15.7c1.5,8,1.1,16.2,2.4,24.2c0.1,0.8,1.1,1.2,1.8,1c1.3-0.3,2.6-0.6,4-0.6
						c0.6,0,1.2,0,1.8,0.2c0.1,0,0.3,0.3,0.2,0.1c-0.1-0.2,0,0.1,0,0.2c0.1,0.2,0.1,0.3,0.1,0.5c0.2,1.6,0,3.3,0.2,5
						c0.1,0.5,0.1,1,0.2,1.5c0,0.1,0,0.2,0.1,0.2c0.1,0.3,0.1,0.3,0,0.1c0.1,0-0.2,0.2,0,0c0,0,0-0.1,0-0.1c0,0,0.2-0.1,0.1-0.1
						c-0.1,0-0.2,0.2-0.2,0.2c0.3-0.2-0.5,0.3-0.5,0.3c-0.3,0.1-0.8,0.3-1.2,0.4c-1.1,0.3-2.2,0.5-3.3,0.7c-2.7,0.4-5.4,0.7-8.1,1.1
						c-2.7,0.4-5.5,0.9-8,2.1c-1.7,0.9-0.2,3.4,1.5,2.6c2.4-1.2,5.4-1.5,8-1.9c3-0.4,6-0.7,9-1.3c1.8-0.4,4.4-0.8,5.4-2.6
						c0.7-1.3,0-3-0.1-4.4c-0.1-1.7,0.2-3.6-0.3-5.3c-1.2-3.7-6.9-2.4-9.6-1.7c0.6,0.3,1.2,0.7,1.8,1c-1.2-7.5-1-15.2-2.2-22.8
						c-1.1-7-3.7-14.8-10.4-18.3c-3.9-2-8.4-2.4-12.7-2c-3.8,0.3-7.3,1.3-9.8,4.4c-4.9,6.1-4.5,15.4-3.7,22.7
						c0.6,4.8,1.6,9.6,3,14.3c1.1,3.6,2.4,7.2,4.2,10.4c0.3-0.7,0.6-1.5,0.9-2.2c-2.3,0.8-5.1,1.5-6.7,3.4c-1.8,2.2,0.2,4.5,1.2,6.6
						c0.6,1.1,1.1,2.3,1.6,3.4c0.5,1,1,1.4,2.1,1.6c2.9,0.4,5.9-0.5,8.6-1.5c3.1-1.1,6-2.5,9-3.6C69.4,86.6,68.7,83.7,66.9,84.4z"/>
				</g>
			</g>
			<g>
				<g>
					<path class="st6" d="M65.3,84.9c-0.8-8.9-2.6-17.7-5.8-26.1c-0.5-1.4-1.1-3.1-2.5-3.9c-1.2-0.7-3-0.7-4.2,0
						c-2.6,1.4-2.9,4.9-1.2,7.1c2,2.6,5.6,2.7,8.6,2.3c3.1-0.4,6.4-1.6,8.9-3.5c2.2-1.7,4.2-4.9,3-7.8c-1.4-3.3-6-2.8-7.3,0.3
						c-0.9,2.1-0.2,4.7,0.1,6.9c0.4,2.5,0.8,4.9,1.3,7.4c1.1,5.1,2.5,10,4.2,14.9c0.5,1.4,2.7,0.8,2.2-0.6c-2.3-6.4-4-13-5.2-19.7
						c-0.3-1.7-0.5-3.4-0.7-5.1c-0.2-1.4-0.4-3.7,1.5-4.1c1.5-0.3,2.1,1.2,1.9,2.4c-0.2,1.2-0.8,2.2-1.7,3c-1.7,1.6-4.1,2.6-6.3,3.2
						c-2.2,0.6-5.2,1.2-7.3,0.2c-1.8-0.8-3.2-3.7-0.8-4.9c1.3-0.7,2.2,0,2.8,1.1c0.7,1.4,1.2,3,1.7,4.5c2.5,7.2,3.9,14.8,4.6,22.4
						C63.2,86.3,65.4,86.3,65.3,84.9L65.3,84.9z"/>
				</g>
			</g>
			<g>
				<g>
					<path class="st6" d="M51.5,51.2c-0.2-2.4-0.5-4.9,0-7.3c0.2-1,0.6-2,0.9-3c0-0.2,0.1-0.4,0.2-0.5c0,0,0.2-0.4,0.1-0.2
						c-0.1,0.2,0-0.1,0.1-0.1c0.1-0.2-0.2,0.2,0,0c0,0,0.2-0.2,0.1-0.1c-0.1,0.1,0.1-0.1,0.1-0.1c0.3-0.1-0.4,0.1,0.2-0.1
						c1.8-0.6,1.1-3.5-0.8-2.9c-1.2,0.4-2.1,1.1-2.5,2.3c-0.4,1-0.7,2.1-1,3.2c-0.7,2.9-0.6,5.8-0.3,8.7c0.1,0.8,0.6,1.5,1.5,1.5
						C50.8,52.7,51.6,52,51.5,51.2L51.5,51.2z"/>
				</g>
			</g>
			<g>
				<g>
					<path class="st6" d="M57.3,36.3c1.9,0,1.9-3,0-3C55.4,33.3,55.4,36.3,57.3,36.3L57.3,36.3z"/>
				</g>
			</g>
		</g>
	</g>
	<g>
		<defs>
			<path id="SVGID_1_" d="M182.8,90.5c0,47.8-40.2,86.5-89.8,86.6S3.2,138.3,3.2,90.5C3.2,42.7,43.4,4,93,4
				C142.6,4,182.8,42.7,182.8,90.5"/>
		</defs>
		<clipPath id="SVGID_2_">
			<use xlink:href="#SVGID_1_"  style="overflow:visible;"/>
		</clipPath>
		<g class="st7">
			<path class="st6" d="M91.9,181.7c0.8-7.3,0.5-15.1-3.3-21.4c-3.8-6.3-12-10.4-18.8-7.6c1.1-7.4-3.1-15.2-9.8-18.3
				s-15.5-1.2-20.3,4.4c-0.5-6.7-4.7-13.1-10.8-15.6s-14-0.8-18,4.6c0,0-6.2,23.8,7.8,41.8S91.9,181.7,91.9,181.7z"/>
			<g>
				<path class="st2" d="M93.4,181.7c0.9-8.1,0.5-17.3-4.7-24c-4.4-5.7-12.3-9.3-19.3-6.5c0.6,0.6,1.2,1.2,1.8,1.8
					c0.9-6.3-1.4-12.8-6.1-17.1c-4.8-4.3-11.5-5.7-17.6-3.9c-3.4,1-6.6,2.9-8.9,5.6c0.9,0.4,1.7,0.7,2.6,1.1
					c-0.7-7.9-5.8-15.6-13.7-17.7c-3.6-1-7.6-0.7-11.1,0.7c-1.8,0.7-3.4,1.7-4.8,3c-0.8,0.7-1.8,1.7-2.1,2.7
					c-1.1,3.5-1.2,7.4-1.4,11c-0.2,7.1,0.7,14.3,3.3,21c2.3,6,5.7,11.8,11.1,15.5c4.2,2.8,9.1,4.5,14,5.8
					c11.1,2.8,22.8,3.4,34.3,3.4c7,0,14-0.2,21-0.9c0.1,0,0.2,0,0.3,0c1.9-0.2,1.9-3.2,0-3c-5.2,0.5-10.5,0.7-15.8,0.9
					c-10.6,0.2-21.4,0-31.9-1.8c-5.1-0.8-10.2-2-14.9-4c-3.9-1.6-7.5-3.9-10-7.3c-7.7-10.4-9.6-24.1-7.7-36.6
					c0.1-0.9,0.2-2.3,0.6-3.1c0.1-0.1,0.2-0.1,0.4-0.4c0.6-0.7,1.3-1.3,2-1.8c1.4-1,3-1.7,4.8-2.2c7.4-1.9,14.5,2.6,17.4,9.4
					c0.7,1.7,1.2,3.6,1.3,5.4c0.1,1.2,1.6,2.1,2.6,1.1c4.5-5.1,12.3-7,18.5-4.2c6.2,2.8,10.1,9.9,9.1,16.7c-0.1,1,0.7,2.3,1.8,1.8
					c6.1-2.4,13,0.9,16.5,6c4.3,6.2,4.5,14.3,3.7,21.6C90.2,183.6,93.2,183.6,93.4,181.7z"/>
			</g>
		</g>
		<g class="st7">
			<path class="st6" d="M149.6,37.6c-19.4-0.6-35.3-0.4-54.7,0.6c-1.7-5.1,0.4-11.1,4.8-14.1c4.4-3,10.8-2.7,14.9,0.6
				c-1.1-6.9,2.7-14.3,8.8-17.8s14-3.4,20.2-0.1s10.4,10,12.1,16.8c3.2-1.8,7.2-3.9,10.3-2c2.1,1.3,3,3.8,3.5,6.2
				c0.7,3,1.1,6.1,1.1,9.2C164.1,37.1,156.1,37.6,149.6,37.6z"/>
			<g>
				<path d="M149.6,36.1c-18.2-0.6-36.5-0.3-54.7,0.6c0.5,0.4,1,0.7,1.4,1.1c-1.4-4.4,0.2-9.6,3.9-12.3c3.8-2.8,9.5-2.6,13.2,0.3
					c1.2,1,2.7,0.1,2.5-1.5c-1.1-7.4,3.8-14.9,10.8-17.4c7.6-2.7,16.2-0.4,21.6,5.7c2.9,3.2,4.8,7.3,5.8,11.5c0.2,1,1.4,1.4,2.2,0.9
					c3-1.7,7.8-4.4,10.3-0.5c1,1.7,1.4,3.7,1.8,5.6c0.4,2.3,0.6,4.7,0.7,7c0.5-0.5,1-1,1.5-1.5C163.6,35.6,156.6,36.1,149.6,36.1
					c-1.9,0-1.9,3,0,3c7,0,14-0.5,21-0.5c0.8,0,1.5-0.7,1.5-1.5c-0.1-2.9-0.4-5.9-1-8.7c-0.5-2.3-1.2-4.8-2.8-6.6
					c-3.7-4.3-9.5-1.7-13.5,0.6c0.7,0.3,1.5,0.6,2.2,0.9c-2.3-8.7-8-16.6-16.8-19.4c-8.7-2.7-18.6,0-23.9,7.6
					c-2.8,4-3.9,8.9-3.2,13.7c0.8-0.5,1.7-1,2.5-1.5c-4.7-3.7-11.8-4.3-16.8-0.8c-4.9,3.5-7.1,10-5.3,15.7c0.2,0.6,0.8,1.1,1.4,1.1
					c18.2-0.9,36.5-1.2,54.7-0.6C151.6,39.2,151.6,36.2,149.6,36.1z"/>
			</g>
		</g>
		<g class="st7">
			<path class="st6" d="M181.6,58.7c-5.8-1.5-10.2,6.6-12.2,12.3c-2,5.6-1.2,12.1,2,17.2c-9.3,1.9-17.2,9.3-19.9,18.4
				c-2.6,9.1,0.2,19.6,7,26.1c-5.2,1.7-10.4,4.9-12.5,10c-2.1,5.1,0.4,12.2,5.8,13.2c0,0,29.9,3.7,34.9-12.3S193.5,61.8,181.6,58.7z
				"/>
			<g>
				<path class="st2" d="M182,57.2c-6.5-1.5-10.7,5.5-12.9,10.5c-1.4,3.3-2.3,6.7-2.3,10.3c0.1,3.9,1.2,7.7,3.2,11
					c0.3-0.7,0.6-1.5,0.9-2.2c-7.4,1.6-14,6.4-18,12.8c-4.2,6.8-5,15.1-2.6,22.7c1.4,4.3,3.8,8.3,7.1,11.5c0.2-0.8,0.4-1.7,0.7-2.5
					c-7.8,2.6-16.1,8.9-14,18.2c0.8,3.5,3.2,6.9,6.9,7.8c1,0.2,2,0.3,3,0.3c4.7,0.3,9.4,0.2,14.1-0.4c5.6-0.8,11.4-2.4,15.7-6.3
					c3.7-3.3,4.9-7.8,5.7-12.4c0.9-5.2,1.5-10.6,1.9-15.9c1-13,1.2-26.1,0.1-39.1c-0.5-5.4-1.1-10.9-2.5-16.1
					c-0.9-3.3-2.2-7.3-5.1-9.3C183.2,57.7,182.6,57.4,182,57.2c-1.9-0.5-2.7,2.4-0.8,2.9c0.1,0,0.2,0.1,0.4,0.1
					c0.2,0.1-0.3-0.1,0.1,0c0.1,0.1,0.2,0.1,0.3,0.2c0.3,0.2,0.1,0.1,0.2,0.1c0.2,0.2,0.4,0.4,0.6,0.6c0.1,0.1,0.2,0.2,0.3,0.3
					c0.1,0.1-0.1-0.1,0.2,0.2c1,1.4,1.5,2.7,2,4.2c1.5,4.3,2.2,9,2.7,13.5c1.4,12.1,1.4,24.4,0.8,36.5c-0.3,5.6-0.7,11.1-1.4,16.6
					c-0.5,3.8-0.9,7.8-2.3,11.4c-1.9,4.8-6.6,7.5-11.3,8.9c-4.8,1.5-10,1.9-15,1.9c-1.7,0-3.5-0.1-5.2-0.2c-1.1-0.1-1.8-0.1-2.6-0.5
					c-3-1.4-4.2-5-4.1-8.1c0.2-4,3.3-7.2,6.5-9.2c1.8-1.1,3.7-2,5.7-2.6c1-0.4,1.5-1.7,0.7-2.5c-5.2-5.1-7.9-12.3-7.5-19.5
					c0.4-6.9,3.9-13.3,9.3-17.6c3-2.4,6.6-4.1,10.4-4.9c0.9-0.2,1.4-1.4,0.9-2.2c-3.4-5.5-3.6-12-1.1-17.9c1.5-3.5,4.8-10.5,9.6-9.4
					C183,60.6,183.8,57.7,182,57.2z"/>
			</g>
		</g>
	</g>
	<g>
		<g>
			<path d="M181.3,90.5c0,17.7-5.8,35-16.3,49.3c-10.4,14.1-25.2,24.9-41.7,30.6c-17.4,6.1-36.6,6.8-54.4,1.9
				c-17-4.6-32.5-14.3-44-27.7C13.5,131.3,6.3,114.5,5,97.1C3.6,79.3,8,61.5,17.4,46.5c9.3-14.8,23.1-26.4,39-33.4
				c16.9-7.5,36.2-9.5,54.3-5.9c17.4,3.4,33.6,12,46.1,24.5c12.3,12.4,20.6,28.4,23.4,45.6C181,81.6,181.3,86.1,181.3,90.5
				c0,1.9,3,1.9,3,0c0-18.3-6-36.2-16.8-50.9c-10.8-14.6-25.9-25.7-43.1-31.7c-18-6.4-37.9-7-56.3-2c-17.5,4.8-33.6,14.8-45.4,28.7
				C10.8,48.3,3.4,65.5,2,83.7c-1.5,18.3,3.1,36.9,12.9,52.4c9.6,15.3,23.9,27.4,40.4,34.6c17.5,7.6,37.2,9.7,56,6.1
				c18-3.5,34.8-12.4,47.7-25.4c12.7-12.8,21.4-29.4,24.2-47.2c0.7-4.5,1.1-9.1,1.1-13.6C184.3,88.5,181.3,88.5,181.3,90.5
				L181.3,90.5z"/>
		</g>
	</g>
</g>
</svg>
