<?xml version="1.0" encoding="utf-8"?>
<!-- Generator: Adobe Illustrator 24.2.0, SVG Export Plug-In . SVG Version: 6.00 Build 0)  -->
<svg version="1.1" id="Layer_1" xmlns="http://www.w3.org/2000/svg" xmlns:xlink="http://www.w3.org/1999/xlink" x="0px" y="0px"
	 viewBox="0 0 186 181" style="enable-background:new 0 0 186 181;" xml:space="preserve">
<style type="text/css">
	.st0{fill:#E5E5E5;}
	.st1{fill:#D8D8D8;}
	.st2{fill:#000005;}
	.st3{fill:#5F5F5F;}
	.st4{fill:#FFFFFF;}
	.st5{fill:#BEBEBE;}
	.st6{fill:#797979;}
	.st7{clip-path:url(#SVGID_2_);}
	.st8{fill:#AFAFAF;}
	.st9{fill:#F7C402;}
</style>
<path class="st0" d="M182.8,90.5c0,47.8-40.2,86.6-89.8,86.6S3.2,138.3,3.2,90.5C3.2,42.7,43.4,3.9,93,3.9S182.8,42.7,182.8,90.5"/>
<g>
	<g>
		<g>
			<path class="st1" d="M182.8,90.5c0,47.8-40.2,86.6-89.8,86.6c-49.6,0-89.8-38.7-89.8-86.6C3.2,42.7,43.4,3.9,93,3.9
				S182.8,42.6,182.8,90.5"/>
			<g>
				<path class="st2" d="M181.3,90.5c0,17.7-5.8,35-16.3,49.3c-10.4,14.1-25.2,24.9-41.7,30.7c-17.4,6.1-36.6,6.8-54.4,1.9
					c-17-4.6-32.5-14.3-44-27.7C13.5,131.3,6.3,114.5,5,97.1C3.6,79.3,8,61.5,17.4,46.5C26.7,31.7,40.5,20,56.5,13
					c16.9-7.5,36.2-9.5,54.3-5.9c17.4,3.4,33.6,12,46.1,24.6c12.3,12.4,20.6,28.4,23.4,45.6C181,81.6,181.3,86.1,181.3,90.5
					c0,1.9,3,1.9,3,0c0-18.3-6-36.3-16.8-51c-10.8-14.6-25.9-25.7-43.1-31.8c-18-6.4-37.9-7-56.3-2c-17.5,4.8-33.6,14.8-45.4,28.7
					C10.8,48.2,3.4,65.5,2,83.7c-1.5,18.3,3.1,36.9,12.9,52.4c9.6,15.3,23.9,27.4,40.4,34.6c17.5,7.6,37.2,9.7,56,6.1
					c18-3.5,34.8-12.4,47.7-25.4c12.7-12.8,21.4-29.4,24.2-47.3c0.7-4.5,1.1-9.1,1.1-13.6C184.3,88.5,181.3,88.5,181.3,90.5
					L181.3,90.5z"/>
			</g>
		</g>
	</g>
	<g>
		<g>
			<g>
				<g>
					<g>
						<g>
							<path d="M112.4,80.2c-1.3,7.2-1.4,14.6-1.3,21.9c0.1,3.8,0.2,7.6,0.3,11.3c0.1,3.3,0,6.7,0.3,9.9c0.5,6,2.7,13,8.1,16.5
								c2.5,1.6,5.8,2.4,8.8,2.2c3-0.2,5.4-1.7,6.5-4.6c1.3-3.2,1.1-7.6-1.9-9.7c-1.5-1-3.1-1.3-4.7-0.6c-1.4,0.6-2.8,1.9-2.6,3.5
								c0.2,1.9,3.2,1.9,3,0c0-0.3,0.2-0.5,0.7-0.7c0.3-0.2,0.7-0.3,1.1-0.2c1.3,0.2,2.1,1.6,2.2,2.7c0.2,2-0.1,5-2.2,6
								c-2,1-4.8,0.4-6.8-0.2c-2.3-0.7-4.1-2.2-5.4-4.2c-3-4.4-3.6-9.7-3.7-14.9c-0.1-6-0.4-12-0.5-18.1c-0.1-6.7,0-13.6,1.2-20.2
								C115.6,79.1,112.7,78.3,112.4,80.2L112.4,80.2z"/>
						</g>
					</g>
					<g>
						<path class="st3" d="M97,92.1c-4.4-0.4-15.7-0.1-19.7-3.5c0,0,0.3-6.7,0.2-8.7c-0.2-3.4,5.9-2.4,8.4-2.1
							c-0.7-13.1-0.4-57.1,24.3-49.1c29.5,9.5,12.9,37.8,7.2,55.4c2.6,0.5,7.5,1.9,7.2,4.4c-0.3,1.9-2.3,4.2-3.2,8.1
							C120.3,100.8,104.4,91.9,97,92.1z"/>
						<g>
							<path class="st2" d="M97,90.6c-3.2-0.3-6.4-0.3-9.5-0.6c-2.9-0.3-6.8-0.6-9.1-2.5c0.1,0.4,0.3,0.7,0.4,1.1
								c0.1-2.8,0.3-5.6,0.2-8.3c0-0.5-0.1-0.6,0.2-0.9c0.4-0.4,1.3-0.4,1.9-0.4c1.6-0.1,3.2,0.2,4.8,0.4c0.8,0.1,1.5-0.8,1.5-1.5
								C87,70.8,87.2,63.7,88,56.7c0.5-4.2,1.2-8.3,2.4-12.4c1-3.5,2.4-7.1,4.7-10c1.9-2.5,4.5-4.3,7.6-4.9c4.3-0.7,9,1.1,12.8,3.1
								c3.9,2.1,7.3,5.2,8.9,9.5c1.5,3.9,1.6,8.3,1,12.4c-1.3,9.2-5.3,17.7-8.4,26.4c-0.3,1-0.7,1.9-1,2.9c-0.2,0.7,0.3,1.7,1,1.8
								c1.5,0.3,3,0.7,4.3,1.3c0.5,0.2,1.3,0.6,1.6,1.1c0.2,0.4,0.1,0.6-0.1,1c-0.5,1.5-1.4,2.8-2,4.3c-0.4,0.8-0.9,2-1,2.9
								c0,0.2,0,0,0,0c0-0.1,0.2,0-0.1,0c0.3-0.1-0.1,0-0.2,0c0.3,0-0.2,0-0.3,0c-0.4,0-0.9,0-1.2-0.1c-1.2-0.2-2.4-0.5-3.5-0.9
								c-2.9-0.9-5.7-1.9-8.6-2.8C103.1,91.5,100,90.6,97,90.6c-1.9,0-1.9,3,0,3c3-0.1,6.1,1,8.9,1.9c3.1,1,6.3,2.2,9.5,3
								c2,0.5,5,1.3,6.6-0.3c0.3-0.3,0.6-0.8,0.7-1.2c0.4-1.1,0.6-2.2,1.1-3.3c0.7-1.5,1.7-3,2.1-4.7c0.9-4.3-5.1-5.8-8.2-6.4
								c0.3,0.6,0.7,1.2,1,1.8c2.9-9.1,7.2-17.8,9-27.2c0.9-4.6,1.2-9.4,0.1-13.9c-1.2-4.7-4-8.6-7.8-11.4
								c-4.1-3.1-9.6-5.4-14.7-5.7c-3.8-0.2-7.3,1.1-10.2,3.5c-6.2,5.3-8.3,14.5-9.6,22.1c-1.3,7.9-1.6,16-1.3,24
								c0,0.6,0.1,1.3,0.1,1.9c0.5-0.5,1-1,1.5-1.5c-2.6-0.3-5.7-0.9-8.1,0.4c-2.5,1.4-1.7,5-1.8,7.4c0,1.3-0.1,2.6-0.2,3.9
								c-0.1,1.2,0.6,1.9,1.6,2.5c2.7,1.7,6.2,2.1,9.3,2.4c3.4,0.4,6.8,0.3,10.2,0.6C98.9,93.8,98.9,90.8,97,90.6z"/>
						</g>
					</g>
					<g>
						<g>
							<path d="M101.1,92.5c-1,10.5-1.4,21.1-1.4,31.7c0,5.2,0.1,10.4,0.5,15.6c0.4,4.6,1.2,9.3,3.5,13.4c2.3,4,5.8,7.1,10.2,8.5
								c1.8,0.6,2.6-2.3,0.8-2.9c-8.5-2.7-11.1-12-11.6-19.9c-0.6-9.8-0.6-19.7-0.2-29.5c0.2-5.6,0.6-11.2,1.1-16.8
								C104.2,90.6,101.2,90.6,101.1,92.5L101.1,92.5z"/>
						</g>
					</g>
					<g>
						<g>
							<path class="st4" d="M95.5,90c3.5-8.9,6.2-18.1,7.4-27.6c0.2-1.8,0.7-4.2-0.2-5.9c-0.7-1.4-2.6-2.3-4.2-2.2
								c-3.5,0.2-5.5,4.2-4.3,7.3c1.2,3.2,4.6,4.7,7.7,5.6c3.2,0.9,7,1.2,10.3,0.3c3-0.8,6.5-3.5,6-7c-0.6-4-5.5-4.3-7.7-1.5
								c-1.5,1.9-2.1,4.6-2.9,6.9c-0.9,2.6-1.7,5.3-2.4,8c-1.4,5.3-2.5,10.8-3.2,16.2c-0.2,1.4,2,2,2.2,0.6c1-7.5,2.7-14.9,4.9-22.1
								c0.6-1.8,1.2-3.6,1.8-5.4c0.5-1.5,1.2-3.4,2.9-3.8c1.6-0.3,2.4,1.2,1.9,2.6c-0.5,1.3-1.9,2.4-3.1,3c-2.4,1-5.5,1-8.1,0.5
								c-2.4-0.4-5.2-1.2-7-2.8c-1.1-1-1.7-2.4-1.3-3.9c0.2-1.1,1.4-2.2,2.6-2.2c1.9,0,2.2,1.7,2.1,3.2c-0.1,1.9-0.4,3.7-0.7,5.5
								c-1.3,8.3-3.8,16.3-6.9,24.1C92.8,90.7,95,91.3,95.5,90L95.5,90z"/>
						</g>
					</g>
					<g>
						<g>
							<path class="st4" d="M96.4,48.1c0.9-2.3,1.1-5.1,2-7.3c0.4-1,1-1.9,1.9-2.5c0.5-0.3,1-0.5,1.6-0.7c0.5-0.1,1.2-0.1,1.6-0.1
								c0.8,0.1,1.6-0.2,1.8-1c0.2-0.7-0.2-1.7-1-1.8c-3.4-0.5-6.7,1-8.3,4.1c-1.4,2.6-1.5,5.7-2.6,8.5c-0.3,0.8,0.3,1.6,1,1.8
								C95.4,49.4,96.1,48.9,96.4,48.1L96.4,48.1z"/>
						</g>
					</g>
					<g>
						<g>
							<path class="st4" d="M110.3,36.4c1.9,0,1.9-3,0-3C108.4,33.4,108.4,36.4,110.3,36.4L110.3,36.4z"/>
						</g>
					</g>
					<g>
						<g>
							<path d="M89.9,93.7c-0.8,12.3-2.3,24.5-4.6,36.5c-1,5.4-1.8,11.2-4,16.3c-0.7,1.7-1.7,3.3-2.7,4.9c-0.6,1-1.2,1.9-2,2.7
								c-2.9,2.7-7.7,0.8-10.9-0.5c-1.8-0.7-2.6,2.2-0.8,2.9c3.7,1.5,8.3,2.9,12.1,0.9c2.5-1.3,3.7-3.8,5.1-6.1
								c3-5,4.2-10.6,5.3-16.2c1.3-6.5,2.4-13,3.3-19.6c1-7.2,1.7-14.5,2.2-21.8C93.1,91.8,90.1,91.8,89.9,93.7L89.9,93.7z"/>
						</g>
					</g>
				</g>
				<g>
					<g>
						<path d="M80.3,91.8c-3,5.5-6.3,10.7-11.2,14.6c-4.8,3.9-10.1,7.3-16.2,8.7c-4.1,0.9-8.2,0.5-12.2-0.5c-3.4-0.9-6.8-2.3-9-5.2
							c-1.5-2-2.4-4.6-1.5-7c0.5-1.4,1.5-2.8,2.5-3.8c1.1-1.1,2.6-1.3,4-1.4c3.4-0.3,7.1,0.5,10.2,2.1c1,0.5,2.2,1.2,2.9,2.2
							c0.5,0.8,0.3,2.9-1.2,2.4c-1.8-0.6-2.6,2.3-0.8,2.9c4,1.3,6.5-3.6,4.6-6.8c-1.7-2.8-5.3-4.2-8.3-5c-3.5-1-7.8-1.4-11.3,0
							c-1.9,0.8-3.3,2.6-4.3,4.2c-0.9,1.5-1.5,3-1.6,4.7c-0.3,3.4,1.6,6.8,4,9.1c3.3,3.1,7.9,4.5,12.3,5.2c4.8,0.8,9.4,0.4,14-1.2
							c3.5-1.3,6.7-3.1,9.7-5.2c3-2.1,5.9-4.3,8.3-7c3.1-3.4,5.5-7.4,7.7-11.5C83.8,91.6,81.2,90.1,80.3,91.8L80.3,91.8z"/>
					</g>
				</g>
				<g>
					<g>
						<path class="st5" d="M27.5,123.7c5.1-26.1,10.2-50.7,14.8-77.6c5.3,1.1,10.7,2.2,16,3.3c-4.8,26.3-9.1,51.9-15.5,78.9
							L27.5,123.7z"/>
						<g>
							<path class="st2" d="M29,124.1c3.9-20,8-40,11.7-60c1.1-5.9,2.1-11.7,3.1-17.6c-0.6,0.3-1.2,0.7-1.8,1
								c5.3,1.1,10.7,2.2,16,3.3c-0.3-0.6-0.7-1.2-1-1.8c-3.7,20.4-7.2,40.8-11.5,61.1c-1.3,5.9-2.6,11.9-4,17.8
								c0.6-0.3,1.2-0.7,1.8-1c-5.1-1.5-10.2-3-15.3-4.6c-1.9-0.6-2.6,2.3-0.8,2.9c5.1,1.5,10.2,3,15.3,4.6c0.8,0.2,1.7-0.3,1.8-1
								c4.8-20.3,8.7-40.9,12.4-61.5c1-5.8,2.1-11.6,3.1-17.4c0.1-0.8-0.2-1.7-1-1.8c-5.3-1.1-10.7-2.2-16-3.3
								c-0.7-0.2-1.7,0.2-1.8,1c-3.4,20.2-7.4,40.4-11.4,60.5c-1.1,5.7-2.3,11.4-3.4,17.1C25.7,125.2,28.6,126,29,124.1z"/>
						</g>
					</g>
					<g>
						<g>
							<path d="M31.5,109.1c-1.1-1.6-1.8-3.4-1.6-5.4c0.2-1.6,1.1-3.1,2.1-4.4c1-1.3,2-1.8,3.5-2.1c1.5-0.3,3.1-0.2,4.6-0.1
								c2.8,0.3,5.7,1.2,8.1,2.7c0.7,0.5,1.6,1.2,1.8,1.9c0.3,0.8-0.1,2.4-1.4,2c-1.8-0.6-2.6,2.3-0.8,2.9c3.5,1.2,6.1-2.7,5-5.8
								c-0.9-2.5-3.6-4-5.8-4.9c-3-1.3-6.4-1.9-9.6-1.8c-1.6,0.1-3.3,0.2-4.8,0.9c-1.6,0.7-2.8,2.2-3.8,3.6c-1.1,1.6-1.9,3.4-2,5.4
								c-0.1,2.3,0.7,4.6,2,6.5C30,112.2,32.6,110.7,31.5,109.1L31.5,109.1z"/>
						</g>
					</g>
					<g>
						<g>
							<path class="st2" d="M39.4,127.1c4.2-20,7.8-40.1,11.9-60.2c1.2-5.8,2.4-11.6,3.6-17.4c0.3-1.4-1.9-2-2.2-0.6
								c-4.4,20.2-8.1,40.6-12.1,61c-1.1,5.5-2.2,11.1-3.4,16.6C36.9,127.9,39.1,128.5,39.4,127.1L39.4,127.1z"/>
						</g>
					</g>
					<g>
						<g>
							<path class="st5" d="M51.4,39.2c0.1,0,0.3,0,0.4-0.1c1.5-0.9,3-1.7,4.5-2.6c-0.6-4.1-1.3-8.2-1.8-11.6c-2,3-3.8,6.2-5.6,9.2
								c0.7,1.6,1.5,3.2,2.2,4.7C51.1,39,51.2,39.2,51.4,39.2z"/>
							<g>
								<path class="st2" d="M51.4,40.7c1.1-0.1,2-0.8,2.9-1.3c0.9-0.5,1.8-1,2.7-1.6c0.6-0.4,0.8-1,0.7-1.7
									c-0.6-3.9-1.2-7.7-1.8-11.6c-0.2-1.4-2.1-1.3-2.7-0.4c-1.7,2.5-3.2,5.2-4.8,7.8c-0.4,0.6-1,1.4-1,2.1c0,0.8,0.6,1.7,1,2.4
									c0.3,0.7,0.7,1.4,1,2.1c0.3,0.7,0.6,1.5,1.3,1.9c1.7,0.9,3.2-1.7,1.5-2.6c0.2,0.3,0.3,0.3,0.2,0.1c0-0.1-0.1-0.2-0.1-0.2
									c-0.1-0.2-0.2-0.4-0.3-0.6c-0.2-0.4-0.4-0.8-0.6-1.2c-0.4-0.8-0.8-1.7-1.2-2.5c0,0.5,0,1,0,1.5c1.8-3.1,3.6-6.2,5.6-9.2
									c-0.9-0.1-1.8-0.2-2.7-0.4c0.6,3.9,1.2,7.7,1.8,11.6c0.2-0.6,0.5-1.1,0.7-1.7c-1.5,0.9-3.1,1.9-4.7,2.6
									c0.3-0.1,0.5-0.1,0.8-0.2c-0.1,0-0.1,0-0.2,0c-0.8,0.1-1.5,0.6-1.5,1.5C49.9,40,50.6,40.8,51.4,40.7z"/>
							</g>
						</g>
						<g>
							<path class="st4" d="M51.7,39.1c-0.1,0.1-0.2,0.1-0.4,0.1c-0.2,0-0.2-0.2-0.3-0.3c-0.7-1.6-1.5-3.2-2.2-4.7
								c-0.8,1.3-1.5,2.5-2.3,3.7c-1.1,1.6-3.1,6.5-4.1,8.2l15.7,3.1c-0.6-3.7-1.3-8.1-2-12.6C54.7,37.4,53.2,38.2,51.7,39.1z"/>
							<g>
								<path class="st2" d="M51,37.8c-0.1,0-0.1,0.1-0.2,0.1c0.3-0.1,0.5-0.1,0.8-0.2c-0.1,0-0.1,0-0.2,0c0.3,0.1,0.5,0.1,0.8,0.2
									c0.3,0.2,0.2,0.3,0.1-0.1c-0.1-0.2-0.2-0.5-0.3-0.7c-0.2-0.4-0.4-0.8-0.6-1.3c-0.4-0.8-0.8-1.7-1.2-2.5
									c-0.5-1.1-2.1-0.9-2.6,0c-1.3,2.1-2.6,4.1-3.7,6.4c-0.9,1.8-1.7,3.7-2.7,5.5c-0.5,0.8-0.1,2,0.9,2.2
									c4.6,0.9,9.1,1.8,13.7,2.7c0.7,0.1,1.3,0.3,2,0.4c1.2,0.2,2-0.7,1.8-1.8c-0.6-4.2-1.3-8.4-2-12.6c-0.2-1-1.4-1.3-2.2-0.9
									C54,36.1,52.5,36.9,51,37.8c-1.7,1-0.2,3.5,1.5,2.6c1.5-0.9,3-1.7,4.5-2.6c-0.7-0.3-1.5-0.6-2.2-0.9c0.7,4.2,1.3,8.4,2,12.6
									c0.6-0.6,1.2-1.2,1.8-1.8c-4.6-0.9-9.1-1.8-13.7-2.7c-0.7-0.1-1.3-0.3-2-0.4c0.3,0.7,0.6,1.5,0.9,2.2c1-1.8,1.8-3.7,2.7-5.5
									c1.1-2.2,2.4-4.2,3.7-6.4c-0.9,0-1.7,0-2.6,0c0.6,1.3,1.2,2.6,1.8,3.9c0.3,0.6,0.5,1.3,1.1,1.6c0.7,0.4,1.3,0.3,2,0
									c0.7-0.4,0.9-1.4,0.5-2.1C52.6,37.6,51.7,37.4,51,37.8z"/>
							</g>
						</g>
					</g>
				</g>
			</g>
			<g>
				<path class="st6" d="M107.4,29.9c-1-2.6,0.7-5.5,3-7.1c3.6-2.5,8.6-2.6,12.4-0.5c3.8,2.2,6.1,6.6,5.7,11
					c-0.1,1.6-0.6,3.2-0.1,4.8c0.5,1.8,2.2,3,3.6,4.2c3.7,3.2,6.4,8,5.7,12.9s-5.7,9-10.4,7.7c-3.9-1.1-6.1-5.3-7.8-9
					c-3.8-8.4-7.6-16.7-11.4-25.1"/>
				<g>
					<path class="st2" d="M108.9,29.5c-1.2-3.3,2.4-5.9,5.1-6.7c3.1-0.9,6.6-0.4,9.2,1.6c2.5,2,4,5.2,4,8.4
						c-0.1,1.9-0.6,3.7-0.1,5.5c0.4,1.6,1.5,2.9,2.7,4c2.5,2.3,4.9,4.6,6,7.9c1,3.1,0.7,6.4-1.5,8.9c-2,2.2-5,3.3-7.7,1.8
						c-2.6-1.5-4.1-4.4-5.3-7c-4-8.6-7.8-17.3-11.7-25.9c-0.8-1.8-3.4-0.2-2.6,1.5c4,8.9,7.8,18,12.1,26.7c1.5,3.1,3.6,6.3,6.9,7.7
						c3.4,1.4,7.2,0.3,9.8-2.1c6.3-5.8,3.3-15.2-2.3-20.3c-1.3-1.2-3.3-2.4-3.6-4.2c-0.4-2,0.5-4.1,0.2-6.2
						c-0.4-3.8-2.5-7.3-5.7-9.5c-3.6-2.5-8.5-2.9-12.5-1.2c-3.8,1.6-7.5,5.6-5.9,10C106.6,32.1,109.5,31.3,108.9,29.5L108.9,29.5z"
						/>
				</g>
			</g>
			<g>
				<path class="st6" d="M104.3,26.7c9.2,11.8,16.1,25.5,20.1,39.9c1.8,0,3.2-1.8,3.4-3.5s-0.4-3.5-1.1-5.2
					c-3.7-9.6-7.3-19.1-12.3-28.1c-1.4-2.6-3.7-5.5-6.7-5c-0.9,0.2-1.8,0.7-2.6,1.2"/>
				<g>
					<path class="st2" d="M103.3,27.8c9,11.7,15.7,25,19.7,39.2c0.2,0.6,0.8,1.1,1.4,1.1c3.7-0.2,5.3-3.9,4.8-7.2
						c-0.3-2-1.2-4-2-5.9c-0.8-2-1.5-4-2.3-5.9c-1.6-3.9-3.2-7.8-5-11.7c-1.7-3.6-3.3-7.4-5.7-10.6c-1.1-1.5-2.5-2.9-4.3-3.4
						c-2-0.6-3.8,0.1-5.6,1.2c-1.6,1-0.1,3.6,1.5,2.6c1.6-1,2.9-1.4,4.5-0.2c1.4,1.1,2.3,2.8,3.1,4.3c2.1,3.8,3.9,7.7,5.6,11.7
						c1.7,4,3.3,8.1,4.9,12.1c0.8,2,1.8,4,2.1,6.1c0.2,1.4,0,3.7-1.8,3.8c0.5,0.4,1,0.7,1.4,1.1c-4.2-14.7-11.2-28.5-20.5-40.5
						c-0.5-0.6-1.6-0.5-2.1,0C102.6,26.3,102.8,27.2,103.3,27.8L103.3,27.8z"/>
				</g>
			</g>
			<g>
				<path class="st6" d="M128.7,39.1c0.6-2.5,2.7-4.6,5.2-5.3c2.5-0.7,5.4,0.1,7.2,2c0.6,0.6,1.1,1.7,0.4,2.3
					c-0.2,0.2-0.6,0.3-0.9,0.4c-3.4,0.8-6.9,1.2-10.4,1.1"/>
				<g>
					<path class="st2" d="M130.2,39.5c1-3.6,5-5.6,8.4-3.7c0.4,0.2,0.7,0.4,1.1,0.7c0.3,0.3,0.5,0.6,0.7,0.8c0,0.2,0.1,0.2,0,0.1
						c0-0.1,0-0.2,0.1-0.3c0.2-0.1,0.2-0.1,0-0.1c-0.1,0-0.3,0.1-0.4,0.1c-0.7,0.1-1.3,0.3-2,0.4c-2.6,0.5-5.2,0.6-7.8,0.6
						c-1.9,0-1.9,3,0,3c2.7,0,5.4-0.2,8-0.6c1.2-0.2,2.7-0.3,3.7-0.9c1.2-0.6,1.6-2,1.2-3.3c-0.8-2.1-3.1-3.4-5.2-4
						c-2.2-0.5-4.5-0.3-6.5,0.8c-2.1,1.2-3.7,3.2-4.3,5.5C126.8,40.6,129.7,41.4,130.2,39.5L130.2,39.5z"/>
				</g>
			</g>
			<g>
				<g>
					<g>
						<path d="M111.9,77.9c1.8-1.8,4.7-1.8,7-1.1c2.8,0.9,5,2.9,6.9,5c3.8,4.1,8.1,10.2,14.5,7.5c2.5-1.1,4.2-3.1,5.6-5.3
							c1.2-1.8,2.6-4.3,1.9-6.6c-0.6-1.9-2.7-3.3-4.4-4.1c-1.7-0.8-3.9-1.5-5.6-0.6c-2.2,1.2-3.3,4.4-3,6.7c0.4,3.2,3.2,3.1,5.8,2.3
							c1.8-0.6,1.1-3.5-0.8-2.9c-0.5,0.2-1.1,0.4-1.6,0.4c-0.1,0-0.4,0-0.5,0c-0.7,0.3,0.3-0.2,0,0c0.2-0.2,0.1,0.3,0.2,0.1
							c0,0-0.1-0.4-0.1-0.5c-0.1-0.5,0.1-1,0.2-1.5c0.4-1.4,1.1-2.3,2.6-2c1.5,0.3,3.2,1.1,4.1,2.3c1,1.2-0.3,3.1-1,4.1
							c-1,1.7-2.2,3.4-4,4.4c-2.1,1.2-4.3,0.9-6.2-0.6c-3.9-3.1-6.4-7.5-10.6-10.2c-3.9-2.4-9.8-3.2-13.2,0.4
							C108.4,77.1,110.6,79.2,111.9,77.9L111.9,77.9z"/>
					</g>
				</g>
				<g>
					<g>
						<path d="M111.6,77.6c2.8-2.3,6.9-1.8,10-0.3c3.5,1.7,6.1,4.5,9.3,6.6c2.8,1.9,6,2.6,9.3,1.9c3-0.7,5.7-2.6,7.3-5.3
							c1-1.7-1.6-3.2-2.6-1.5c-1.5,2.5-4.2,4.1-7.1,4.2c-3.7,0.1-6.5-2.6-9.2-4.7c-2.8-2.2-6-4.4-9.6-5.1c-3.4-0.6-6.8,0-9.5,2.2
							C107.9,76.7,110.1,78.8,111.6,77.6L111.6,77.6z"/>
					</g>
				</g>
				<g>
					<g>
						<path d="M131,84.8c1.2,1.7,3.2,2.5,5.3,2.8c2.2,0.3,4.3,0.2,6.4-0.5c0.8-0.3,1.3-1,1-1.8c-0.2-0.8-1.1-1.2-1.8-1
							c-0.9,0.2-1.8,0.4-2.8,0.6c-0.8,0.2-1.3,1.1-1,1.8c0.2,0.8,1.1,1.2,1.8,1c0.8-0.2,1.5-0.5,2.2-0.9c0.7-0.5,1-1.3,0.5-2.1
							c-0.4-0.7-1.4-1-2.1-0.5c-0.5,0.4-0.8,0.5-1.4,0.6c0.3,1,0.5,1.9,0.8,2.9c0.9-0.2,1.8-0.4,2.8-0.6c-0.3-1-0.5-1.9-0.8-2.9
							c-1.5,0.5-3.2,0.7-4.7,0.5c-0.8-0.1-1.6-0.3-2.3-0.6c-0.2-0.1-0.2-0.1-0.1,0c-0.1,0-0.2-0.1-0.3-0.1c-0.1-0.1-0.3-0.1-0.4-0.2
							c-0.1-0.1-0.2-0.1-0.3-0.2c0.1,0.1,0.1,0.1,0,0c0,0-0.4-0.4-0.3-0.3c-0.5-0.7-1.3-1-2.1-0.5C130.9,83.1,130.5,84.1,131,84.8
							L131,84.8z"/>
					</g>
				</g>
			</g>
			<g>
				<g>
					<g>
						<path d="M95,74.5c-1.5-4.1-5.7-6.1-9.9-5.8c-5.1,0.3-9.2,3.4-14,4.7c-2.2,0.6-4.1,0.3-5.5-1.5c-1.1-1.4-1.5-3.2-1.8-5
							c-0.2-1.1-0.7-3.6,0.5-4.2c1-0.6,2.8-0.3,3.9-0.1c2,0.5,2.2,1.8,2,3.7c-0.1,1.3,0.2-0.3,0.2-0.1c0,0-0.1,0.1-0.3,0.1
							c-0.2,0-0.5,0-0.7,0c-0.8-0.1-1.3-0.5-1.7-1.2c-0.8-1.7-3.4-0.2-2.6,1.5c0.9,1.8,3,2.8,4.9,2.7c2.4-0.1,3.3-1.9,3.2-4.2
							c0-2.2-1.1-4.2-3.2-5c-1.8-0.8-3.9-0.9-5.9-0.5c-4.9,1-3.9,7.6-2.6,11.1c0.8,2.2,2.3,4.3,4.4,5.3c2.8,1.3,5.8,0.4,8.5-0.7
							c3.2-1.3,6.4-3.2,9.9-3.6c2.9-0.4,6.5,0.5,7.6,3.6C92.7,77.1,95.6,76.3,95,74.5L95,74.5z"/>
					</g>
				</g>
				<g>
					<g>
						<path d="M61,67.4c2.1,4.5,6.2,5.9,10.9,5.8c2.3,0,4.5-0.4,6.8-1c2.6-0.6,5.5-1.4,8.2-0.7c1.9,0.5,2.7-2.4,0.8-2.9
							c-5-1.3-9.6,1.3-14.5,1.5c-1.7,0.1-3.5,0.2-5.2-0.3c-2.2-0.6-3.5-2-4.4-4C62.8,64.2,60.2,65.7,61,67.4L61,67.4z"/>
					</g>
				</g>
				<g>
					<g>
						<path d="M62.8,70.5c1.1,1.7,2.8,2.8,4.7,3.4c2.2,0.7,4.5,0.5,6.7,0c-0.5-0.8-1-1.7-1.5-2.5c0,0-0.3,0.3-0.2,0.2
							c0.1-0.1-0.1,0.1-0.1,0.1c-0.1,0-0.3,0.1-0.1,0.1c-0.1,0-0.2,0.1-0.3,0.1c-0.1,0-0.2,0.1-0.4,0.1c-0.1,0-0.4,0.1-0.1,0
							c-0.3,0-0.6,0.1-0.8,0.1c-0.6,0-1.1,0-1.7,0c-0.6,0-1.1-0.1-1.5-0.1c-0.1,1-0.3,2-0.4,2.9c1.5,0.2,2.9,0.4,4.4,0.6
							c0.8,0.1,1.5-0.8,1.5-1.5c0-0.9-0.7-1.4-1.5-1.5c-1.5-0.2-2.9-0.4-4.4-0.6c-0.7-0.1-1.4,0.6-1.5,1.3c-0.1,0.7,0.3,1.5,1.1,1.6
							c1.4,0.2,2.9,0.3,4.4,0.2c1.3-0.1,2.8-0.4,3.7-1.4c1-1.1,0-2.8-1.5-2.5c-1.6,0.3-3.4,0.5-5,0c-0.2-0.1-0.4-0.1-0.6-0.2
							c0,0-0.4-0.2-0.2-0.1c-0.4-0.2-0.7-0.4-1.1-0.6c-0.1-0.1-0.2-0.2-0.4-0.3c0.2,0.1-0.2-0.2-0.3-0.2c-0.1-0.1-0.3-0.3-0.4-0.4
							c-0.1-0.1-0.1-0.2-0.2-0.2c0.1,0.1,0.1,0.1,0-0.1c-0.5-0.7-1.3-1-2.1-0.5C62.7,68.8,62.4,69.8,62.8,70.5L62.8,70.5z"/>
					</g>
				</g>
			</g>
		</g>
		<g>
			<defs>
				<path id="SVGID_1_" d="M182.8,90.5c0,47.8-40.2,86.6-89.8,86.6S3.2,138.3,3.2,90.5C3.2,42.7,43.4,4,93,4
					C142.6,3.9,182.8,42.7,182.8,90.5"/>
			</defs>
			<clipPath id="SVGID_2_">
				<use xlink:href="#SVGID_1_"  style="overflow:visible;"/>
			</clipPath>
			<g class="st7">
				<g>
					<path class="st3" d="M226.3,126c-24.8-1.2-48.2-2.5-73.8-3.1c0.3-5.1,0.6-10.2,0.9-15.2c25,0.9,49.2,1.3,75,3.6L226.3,126z"/>
					<g>
						<path class="st2" d="M226.3,124.5c-19-0.9-38.1-2-57.1-2.6c-5.6-0.2-11.1-0.4-16.7-0.5c0.5,0.5,1,1,1.5,1.5
							c0.3-5.1,0.6-10.2,0.9-15.2c-0.5,0.5-1,1-1.5,1.5c19.4,0.7,38.7,1.1,58.1,2.3c5.6,0.4,11.3,0.8,16.9,1.3
							c-0.5-0.6-1-1.3-1.4-1.9c-0.7,4.9-1.4,9.8-2.1,14.8c-0.1,0.8,0.2,1.6,1,1.8c0.7,0.2,1.7-0.2,1.8-1c0.7-4.9,1.4-9.8,2.1-14.8
							c0.1-1-0.4-1.8-1.4-1.9c-19.5-1.7-39-2.4-58.5-3.1c-5.5-0.2-11-0.3-16.5-0.5c-0.8,0-1.5,0.7-1.5,1.5
							c-0.3,5.1-0.6,10.2-0.9,15.2c0,0.8,0.7,1.5,1.5,1.5c19.2,0.4,38.4,1.3,57.5,2.3c5.4,0.3,10.8,0.5,16.3,0.8
							C228.3,127.6,228.3,124.6,226.3,124.5z"/>
					</g>
				</g>
				<g>
					<g>
						<path class="st2" d="M227.7,114.5c-19-1.1-38-1.7-57-2.8c-5.6-0.3-11.2-0.6-16.8-1c-1.4-0.1-1.4,2.2,0,2.2
							c19.2,1.3,38.5,2,57.8,2.9c5.3,0.3,10.7,0.5,16,0.8C229.1,116.8,229.1,114.6,227.7,114.5L227.7,114.5z"/>
					</g>
				</g>
				<g>
					<g>
						<path class="st3" d="M144.9,115.4c0-0.1-0.1-0.2-0.1-0.3c-1-1.3-2-2.5-3-3.8c-3.7,1.2-7.4,2.3-10.5,3.3c3,1.4,6.2,2.7,9.3,3.9
							c1.4-0.9,2.7-1.8,4.1-2.7C144.8,115.7,144.9,115.6,144.9,115.4z"/>
						<g>
							<path class="st2" d="M146.4,115c-0.2-0.9-1.1-1.7-1.7-2.5c-0.6-0.8-1.2-1.6-1.8-2.3c-0.3-0.4-1-0.5-1.5-0.4
								c-3.5,1.1-7,2.2-10.5,3.3c-1.1,0.4-1.6,2.2-0.4,2.7c2.6,1.3,5.4,2.3,8.1,3.4c0.6,0.3,1.4,0.7,2.1,0.6
								c0.8-0.1,1.5-0.8,2.1-1.2c0.6-0.4,1.2-0.8,1.8-1.2c0.7-0.5,1.3-0.8,1.6-1.7c0.3-0.8-0.3-1.6-1-1.8c-0.8-0.2-1.6,0.3-1.8,1
								c0,0,0,0.1,0,0.1c0.1-0.2,0.3-0.4,0.4-0.7c0.2-0.2-0.2,0.1-0.3,0.2c-0.2,0.1-0.3,0.2-0.5,0.3c-0.4,0.2-0.8,0.5-1.1,0.7
								c-0.7,0.5-1.4,0.9-2.2,1.4c0.4-0.1,0.8-0.1,1.2-0.2c-3-1.2-6-2.4-8.9-3.7c-0.1,0.9-0.2,1.8-0.4,2.7c3.5-1.1,7-2.2,10.5-3.3
								c-0.5-0.1-1-0.3-1.5-0.4c0.5,0.6,1,1.3,1.5,1.9c0.2,0.3,0.4,0.6,0.7,0.8c0.1,0.2,0.3,0.4,0.4,0.5c0.1,0.1,0.2,0.5,0.2,0.2
								C143.9,117.7,146.8,116.9,146.4,115z"/>
						</g>
					</g>
					<g>
						<path class="st4" d="M144.8,115.1c0.1,0.1,0.2,0.2,0.1,0.3c0,0.1-0.1,0.2-0.3,0.3c-1.4,0.9-2.7,1.8-4.1,2.7
							c1.3,0.5,2.6,1.1,3.7,1.6c1.6,0.8,6.4,2,8.1,2.7l0.8-14.9c-3.3,1-7.3,2.3-11.4,3.5C142.8,112.6,143.8,113.8,144.8,115.1z"/>
						<g>
							<path class="st2" d="M143.5,115.9C143.5,115.9,143.5,115.8,143.5,115.9c0-0.3,0-0.6,0-0.8c0,0,0,0.1,0,0.1
								c0.1-0.2,0.3-0.4,0.4-0.7c0.1-0.2-0.1,0.1-0.2,0.1c-0.2,0.1-0.4,0.3-0.6,0.4c-0.4,0.2-0.7,0.5-1.1,0.7
								c-0.7,0.5-1.4,0.9-2.2,1.4c-1.2,0.8-0.8,2.3,0.4,2.7c2.1,0.9,4.2,1.9,6.4,2.5c1.8,0.6,3.7,1,5.5,1.7c1,0.4,1.9-0.6,1.9-1.4
								c0.2-4.4,0.4-8.7,0.7-13.1c0-0.6,0.1-1.3,0.1-1.9c0-1-1-1.7-1.9-1.4c-3.8,1.2-7.6,2.3-11.4,3.5c-1.2,0.4-1.4,1.6-0.7,2.5
								c1,1.3,2,2.5,3,3.8c0.5,0.6,1.6,0.5,2.1,0c0.6-0.6,0.5-1.5,0-2.1c-1-1.3-2-2.5-3-3.8c-0.2,0.8-0.4,1.7-0.7,2.5
								c3.8-1.2,7.6-2.4,11.4-3.5c-0.6-0.5-1.3-1-1.9-1.4c-0.2,4.4-0.4,8.7-0.7,13.1c0,0.6-0.1,1.3-0.1,1.9c0.6-0.5,1.3-1,1.9-1.4
								c-1.8-0.7-3.6-1.2-5.5-1.7c-0.5-0.1-0.9-0.3-1.4-0.4c-0.2-0.1-0.4-0.1-0.6-0.2c-0.1,0-0.5-0.2-0.2-0.1
								c-1.4-0.6-2.8-1.2-4.2-1.8c0.1,0.9,0.2,1.8,0.4,2.7c1.1-0.7,2.2-1.5,3.4-2.2c0.5-0.3,1.2-0.7,1.5-1.2c0.4-0.6,0.3-1.4-0.1-2
								C145,112.8,142.4,114.3,143.5,115.9z"/>
						</g>
					</g>
				</g>
			</g>
			<g class="st7">
				<g>
					<path class="st8" d="M53.8,150.2c-26.5,1.9-51.6,3.4-78.8,6.1c-0.3-5.4-0.7-10.9-1-16.3c26.7-2.3,52.4-4.8,80.2-5.7L53.8,150.2
						z"/>
					<g>
						<path d="M53.8,148.7c-20.3,1.4-40.7,2.8-61,4.5c-5.9,0.5-11.9,1-17.8,1.6c0.5,0.5,1,1,1.5,1.5c-0.3-5.4-0.7-10.9-1-16.3
							c-0.5,0.5-1,1-1.5,1.5c20.7-1.8,41.4-3.7,62.1-4.9c6-0.3,12-0.6,18.1-0.8c-0.5-0.5-1-1-1.5-1.5c-0.1,5.3-0.3,10.6-0.4,15.9
							c0,1.9,3,1.9,3,0c0.1-5.3,0.3-10.6,0.4-15.9c0-0.8-0.7-1.5-1.5-1.5c-20.9,0.7-41.8,2.4-62.7,4.2c-5.8,0.5-11.7,1-17.5,1.5
							c-0.8,0.1-1.6,0.6-1.5,1.5c0.3,5.4,0.7,10.9,1,16.3c0,0.7,0.7,1.6,1.5,1.5c20.4-2,40.9-3.5,61.4-4.9
							c5.8-0.4,11.6-0.8,17.4-1.2C55.7,151.6,55.7,148.6,53.8,148.7z"/>
					</g>
				</g>
				<g>
					<g>
						<path class="st2" d="M53.9,137.9c-20.4,1.2-40.8,3-61.2,4.4c-5.9,0.4-11.8,0.8-17.8,1.1c-1.4,0.1-1.4,2.3,0,2.2
							c20.7-1.1,41.3-2.8,62-4.3c5.6-0.4,11.3-0.8,16.9-1.1C55.4,140.1,55.4,137.8,53.9,137.9L53.9,137.9z"/>
					</g>
				</g>
				<g>
					<g>
						<path class="st9" d="M-34.1,149.4c0-0.1-0.1-0.2-0.2-0.3c-1.2-1.2-2.4-2.4-3.7-3.7c-3.8,1.7-7.6,3.4-10.7,4.8
							c3.4,1.2,7,2,10.3,3c1.3-1.1,2.7-2.2,4-3.4C-34.2,149.7-34.1,149.6-34.1,149.4z"/>
						<g>
							<path class="st2" d="M-32.6,149c-0.4-1-1.3-1.7-2-2.4c-0.7-0.7-1.5-1.5-2.2-2.2c-0.5-0.5-1.2-0.5-1.8-0.2
								c-3.6,1.6-7.2,3.2-10.7,4.8c-1.3,0.6-0.7,2.4,0.4,2.7c2.9,1,5.8,1.7,8.8,2.5c0.7,0.2,1.6,0.6,2.4,0.4c0.7-0.2,1.4-1,2-1.5
								c0.6-0.5,1.3-1.1,1.9-1.6c0.6-0.5,1.2-0.9,1.4-1.7c0.4-1.9-2.4-2.7-2.9-0.8c0-0.1,0.1-0.2,0.1-0.3c-0.1,0.1-0.2,0.2-0.3,0.3
								c-0.1,0.1-0.3,0.2-0.4,0.4c-0.4,0.3-0.7,0.6-1.1,0.9c-0.7,0.6-1.4,1.2-2.1,1.8c0.5-0.1,1-0.3,1.5-0.4
								c-3.5-0.9-6.9-1.8-10.3-3c0.1,0.9,0.2,1.8,0.4,2.7c3.6-1.6,7.2-3.2,10.7-4.8c-0.6-0.1-1.2-0.2-1.8-0.2
								c1.3,1.3,2.6,2.5,3.8,3.8c-0.1-0.2-0.3-0.4-0.4-0.7c0,0.1,0,0.1,0.1,0.2c0.3,0.8,1,1.3,1.8,1
								C-32.9,150.6-32.3,149.8-32.6,149z"/>
						</g>
					</g>
					<g>
						<path class="st4" d="M-34.3,149.1c0.1,0.1,0.2,0.2,0.2,0.3c0,0.2-0.1,0.3-0.2,0.4c-1.3,1.1-2.7,2.2-4,3.4
							c1.4,0.4,2.8,0.8,4.2,1.2c1.8,0.6,7.1,1.3,8.9,1.8l-1.1-16c-3.4,1.5-7.5,3.4-11.6,5.2C-36.7,146.6-35.5,147.8-34.3,149.1z"/>
						<g>
							<path class="st2" d="M-35.3,150.1c0,0.1,0.1,0.1,0.1,0.2c-0.1-0.2-0.3-0.4-0.4-0.7c0,0.1,0,0.1,0.1,0.2c0-0.3,0-0.5,0-0.8
								c0,0.1-0.1,0.1-0.1,0.2c0.1-0.2,0.3-0.4,0.4-0.7c-1.3,1.3-2.8,2.4-4.2,3.5c-0.9,0.7-0.4,2.2,0.7,2.5c2.4,0.7,4.7,1.4,7.1,1.9
								c2,0.4,4.1,0.6,6,1.1c0.9,0.2,2-0.5,1.9-1.4c-0.3-4.7-0.6-9.3-1-14c0-0.7-0.1-1.3-0.1-2c-0.1-1.2-1.2-1.8-2.3-1.3
								c-3.9,1.7-7.7,3.5-11.6,5.2c-0.9,0.4-0.9,1.7-0.3,2.4C-37.8,147.7-36.5,148.9-35.3,150.1c1.4,1.4,3.5-0.8,2.1-2.1
								c-1.2-1.2-2.4-2.4-3.7-3.7c-0.1,0.8-0.2,1.6-0.3,2.4c3.9-1.7,7.7-3.5,11.6-5.2c-0.8-0.4-1.5-0.9-2.3-1.3
								c0.3,4.7,0.6,9.3,1,14c0,0.7,0.1,1.3,0.1,2c0.6-0.5,1.3-1,1.9-1.4c-2-0.5-4-0.8-6-1.1c-2.4-0.4-4.7-1.2-7.1-1.9
								c0.2,0.8,0.4,1.7,0.7,2.5c1.1-0.9,2.1-1.8,3.2-2.7c0.5-0.4,1.1-0.8,1.4-1.5c0.3-0.8,0-1.4-0.5-2
								C-34.5,146.5-36.6,148.7-35.3,150.1z"/>
						</g>
					</g>
				</g>
			</g>
			<g class="st7">
				<g>
					<path class="st6" d="M242.9,116.7c-24.5-3.8-47.7-7.5-73.1-10.8c0.8-5,1.6-10,2.5-15.1c24.8,3.4,48.8,6.5,74.2,11.4
						L242.9,116.7z"/>
					<g>
						<path class="st2" d="M243.3,115.3c-19-2.9-38-6-57-8.6c-5.5-0.8-11-1.5-16.4-2.2c0.5,0.6,1,1.3,1.4,1.9c0.8-5,1.6-10,2.5-15.1
							c-0.6,0.3-1.2,0.7-1.8,1c19.2,2.7,38.4,5.1,57.5,8.4c5.6,0.9,11.1,1.9,16.7,3c-0.3-0.6-0.7-1.2-1-1.8
							c-1.2,4.8-2.4,9.6-3.6,14.5c-0.5,1.9,2.4,2.7,2.9,0.8c1.2-4.8,2.4-9.6,3.6-14.5c0.2-0.7-0.2-1.7-1-1.8
							c-19.2-3.7-38.5-6.5-57.9-9.1c-5.5-0.7-10.9-1.5-16.4-2.2c-0.7-0.1-1.7,0.2-1.8,1c-0.8,5-1.6,10-2.5,15.1
							c-0.2,1.1,0.4,1.8,1.4,1.9c18.9,2.4,37.7,5.3,56.6,8.2c5.4,0.8,10.7,1.7,16.1,2.5C244.4,118.5,245.2,115.6,243.3,115.3z"/>
					</g>
				</g>
				<g>
					<g>
						<path class="st2" d="M245.6,105.5c-18.8-3.1-37.6-5.7-56.4-8.7c-5.5-0.9-11.1-1.8-16.6-2.7c-1.4-0.2-2,1.9-0.6,2.2
							c19,3.3,38.1,6,57.2,8.9c5.3,0.8,10.6,1.6,15.9,2.5C246.4,107.9,247,105.7,245.6,105.5L245.6,105.5z"/>
					</g>
				</g>
				<g>
					<g>
						<path class="st6" d="M163,97.8c0-0.1,0-0.2-0.1-0.3c-0.9-1.4-1.7-2.7-2.6-4.1c-3.8,0.8-7.6,1.5-10.8,2.1
							c2.8,1.8,5.9,3.3,8.8,4.8c1.4-0.7,2.9-1.5,4.3-2.2C162.8,98,163,97.9,163,97.8z"/>
						<g>
							<path class="st2" d="M164.5,97.8c-0.1-1-0.8-1.8-1.3-2.7c-0.5-0.8-1-1.7-1.6-2.5c-0.4-0.6-1-0.8-1.7-0.7
								c-3.6,0.7-7.2,1.4-10.8,2.1c-1.3,0.3-1.4,2.1-0.4,2.7c2.4,1.5,5,2.8,7.5,4.1c0.6,0.3,1.4,0.9,2.1,0.9c0.7,0,1.6-0.6,2.2-1
								c0.6-0.3,1.3-0.7,1.9-1c0.6-0.3,1.4-0.6,1.8-1.3c0.4-0.7,0.2-1.6-0.5-2.1c-0.7-0.4-1.7-0.2-2.1,0.5c0.3-0.2,0.3-0.3,0.1-0.2
								c-0.1,0-0.2,0.1-0.2,0.1c-0.2,0.1-0.4,0.2-0.6,0.3c-0.4,0.2-0.8,0.4-1.1,0.6c-0.8,0.4-1.5,0.8-2.3,1.2c0.5,0,1,0,1.5,0
								c-3-1.6-5.9-3.1-8.8-4.8c-0.1,0.9-0.2,1.8-0.4,2.7c3.6-0.7,7.2-1.4,10.8-2.1c-0.6-0.2-1.1-0.5-1.7-0.7
								c0.9,1.4,1.9,2.8,2.7,4.3c-0.1-0.3-0.1-0.5-0.2-0.8c0,0.1,0,0.1,0,0.2c0.1,0.8,0.6,1.5,1.5,1.5
								C163.8,99.3,164.6,98.6,164.5,97.8z"/>
						</g>
					</g>
					<g>
						<path class="st4" d="M162.9,97.5c0.1,0.1,0.1,0.2,0.1,0.3c0,0.1-0.2,0.2-0.3,0.3c-1.4,0.7-2.9,1.5-4.3,2.2
							c1.2,0.7,2.4,1.3,3.5,2c1.5,0.9,6.2,2.7,7.8,3.5L172,91c-3.4,0.7-7.5,1.5-11.7,2.3C161.2,94.7,162.1,96.1,162.9,97.5z"/>
						<g>
							<path class="st2" d="M161.6,98.2c0,0.1,0.1,0.1,0.1,0.2c-0.1-0.3-0.1-0.5-0.2-0.8c0,0.1,0,0.1,0,0.2c0.1-0.3,0.1-0.5,0.2-0.8
								c0.1-0.3,0.4-0.3,0-0.1c-0.2,0.1-0.4,0.2-0.6,0.3c-0.4,0.2-0.8,0.4-1.2,0.6c-0.8,0.4-1.5,0.8-2.3,1.2c-1,0.5-1,2.1,0,2.6
								c2,1.1,4,2.3,6.1,3.2c1.8,0.8,3.6,1.4,5.3,2.3c0.8,0.4,2,0.1,2.2-0.9c0.7-4.3,1.3-8.6,2-12.9c0.1-0.6,0.2-1.2,0.3-1.8
								c0.2-1.2-0.6-2.1-1.8-1.8c-3.9,0.8-7.8,1.5-11.7,2.3c-0.9,0.2-1.4,1.4-0.9,2.2C159.9,95.5,160.8,96.9,161.6,98.2
								c1,1.6,3.6,0.1,2.6-1.5c-0.9-1.4-1.7-2.7-2.6-4.1c-0.3,0.7-0.6,1.5-0.9,2.2c3.9-0.8,7.8-1.6,11.7-2.3
								c-0.6-0.6-1.2-1.2-1.8-1.8c-0.7,4.3-1.3,8.6-2,12.9c-0.1,0.6-0.2,1.2-0.3,1.8c0.7-0.3,1.5-0.6,2.2-0.9
								c-1.7-0.9-3.5-1.5-5.3-2.3c-2.1-0.9-4-2.1-6.1-3.2c0,0.9,0,1.7,0,2.6c1.2-0.6,2.4-1.2,3.6-1.8c0.6-0.3,1.2-0.5,1.5-1.1
								c0.4-0.6,0.3-1.3,0-2C163.3,95,160.7,96.5,161.6,98.2z"/>
						</g>
					</g>
				</g>
			</g>
		</g>
	</g>
	<g>
		<g>
			<g>
				<path d="M181.3,90.5c0,17.7-5.8,35-16.3,49.3c-10.4,14.1-25.2,24.8-41.7,30.6c-17.4,6.1-36.6,6.8-54.4,1.9
					c-17-4.6-32.5-14.3-44-27.7C13.5,131.3,6.3,114.5,5,97.1C3.6,79.3,8,61.5,17.4,46.5c9.3-14.8,23.1-26.4,39-33.4
					c16.9-7.5,36.2-9.5,54.3-5.9c17.4,3.4,33.6,12,46.1,24.5c12.3,12.4,20.6,28.3,23.4,45.6C181,81.6,181.3,86.1,181.3,90.5
					c0,1.9,3,1.9,3,0c0-18.3-6-36.2-16.8-50.9c-10.8-14.6-25.9-25.7-43.1-31.7c-18-6.4-37.9-7-56.3-2c-17.5,4.8-33.6,14.8-45.4,28.7
					C10.8,48.3,3.4,65.5,2,83.7c-1.5,18.3,3.1,36.9,12.9,52.4c9.6,15.3,23.9,27.4,40.4,34.6c17.5,7.6,37.2,9.7,56,6.1
					c18-3.5,34.8-12.4,47.7-25.4c12.7-12.8,21.4-29.4,24.2-47.2c0.7-4.5,1.1-9.1,1.1-13.6C184.3,88.5,181.3,88.5,181.3,90.5
					L181.3,90.5z"/>
			</g>
		</g>
	</g>
</g>
</svg>
