<?xml version="1.0" encoding="utf-8"?>
<!-- Generator: Adobe Illustrator 24.2.0, SVG Export Plug-In . SVG Version: 6.00 Build 0)  -->
<svg version="1.1" id="Layer_1" xmlns="http://www.w3.org/2000/svg" xmlns:xlink="http://www.w3.org/1999/xlink" x="0px" y="0px"
	 viewBox="0 0 143 144" style="enable-background:new 0 0 143 144;" xml:space="preserve">
<style type="text/css">
	.st0{fill:#8EB6E0;}
	.st1{fill:#4386C6;}
	.st2{clip-path:url(#SVGID_2_);}
	.st3{fill:#E1262F;}
	.st4{fill:#000005;}
	.st5{fill:#FFFFFF;}
	.st6{fill:#F7C402;}
	.st7{fill:#7DC4CA;}
</style>
<g id="Capa_14">
	<path class="st0" d="M18.8,6.4h106.1c6.8,0,12.3,5.5,12.3,12.3v106.1c0,6.8-5.5,12.3-12.3,12.3H18.8c-6.8,0-12.3-5.5-12.3-12.3
		V18.7C6.5,11.9,12,6.4,18.8,6.4z"/>
</g>
<g id="Layer_1_1_">
	<g>
		<path class="st1" d="M130.7,4.8H12c-4.4,0.1-8,3.7-7.9,8.1c0,0,0,0,0,0v117.6c-0.1,4.4,3.5,8.1,7.9,8.2c0,0,0,0,0,0h118.7
			c4.4-0.1,8-3.7,7.9-8.1c0,0,0,0,0,0V12.9C138.8,8.5,135.2,4.8,130.7,4.8C130.8,4.8,130.8,4.8,130.7,4.8z M132.9,124.6
			c0.1,4.6-3.6,8.3-8.1,8.3H18c-4.5-0.1-8.2-3.8-8.1-8.3V18.8c-0.1-4.5,3.6-8.3,8.1-8.3h106.8c4.6,0.1,8.2,3.8,8.1,8.3V124.6z"/>
		<path d="M12,139.7c-5-0.1-9-4.2-9-9.2V12.9c0-2.4,0.9-4.7,2.6-6.4c1.7-1.7,4-2.7,6.4-2.7l118.8,0c5,0.1,9,4.2,8.9,9.2v117.6
			c0.1,5-4,9.1-9,9.2H12z M12,5.8c-1.9,0-3.6,0.8-4.9,2.1c-1.3,1.3-2,3.1-2,5l0,117.7c-0.1,3.9,3,7.1,6.9,7.1h118.7
			c3.9,0,7-3.2,6.9-7.1V12.9c0.1-3.9-3-7.1-6.9-7.1l0-1v1H12z M18,134c-5.1-0.1-9.2-4.3-9.2-9.4V18.8c-0.1-5.1,4-9.3,9.1-9.4h106.8
			c5.1,0.1,9.2,4.3,9.2,9.4v105.8c0.1,5.1-4.1,9.3-9.2,9.4H18z M124.8,11.5H18c-4,0.1-7.2,3.3-7.1,7.3v105.8c0,4,3.2,7.2,7.1,7.3
			h106.8c4,0,7.2-3.3,7.1-7.3V18.8C132,14.9,128.8,11.6,124.8,11.5z"/>
	</g>
</g>
<g>
	<defs>
		<path id="SVGID_1_" d="M124.6,133.1h-106c-4.4,0-8.1-3.6-8.1-8.1v-106c0-4.4,3.6-8.1,8.1-8.1h106c4.4,0,8.1,3.6,8.1,8.1v106
			C132.6,129.4,129,133.1,124.6,133.1z"/>
	</defs>
	<clipPath id="SVGID_2_">
		<use xlink:href="#SVGID_1_"  style="overflow:visible;"/>
	</clipPath>
	<g class="st2">
		<g>
			<g>
				<g>
					<g>
						<g>
							<path d="M81.8,68.7C81,73.2,81,77.8,81,82.4c0.1,2.4,0.1,4.7,0.2,7.1c0.1,2.1,0,4.2,0.2,6.2c0.3,3.7,1.7,8.1,5.1,10.3
								c1.6,1,3.6,1.5,5.5,1.4c1.9-0.1,3.4-1.1,4.1-2.9c0.8-2,0.7-4.7-1.2-6.1c-0.9-0.6-1.9-0.8-2.9-0.4c-0.9,0.4-1.7,1.2-1.6,2.2
								c0.1,1.2,2,1.2,1.9,0c0-0.2,0.1-0.3,0.4-0.4c0.2-0.1,0.4-0.2,0.7-0.1c0.8,0.1,1.3,1,1.4,1.7c0.1,1.2-0.1,3.1-1.4,3.7
								c-1.2,0.6-3,0.2-4.2-0.1c-1.4-0.4-2.6-1.4-3.4-2.6c-1.9-2.7-2.2-6.1-2.3-9.3c-0.1-3.7-0.2-7.5-0.3-11.3
								c-0.1-4.2,0-8.5,0.7-12.6C83.8,68.1,82,67.5,81.8,68.7L81.8,68.7z"/>
						</g>
					</g>
					<g>
						<path class="st3" d="M72.1,76.2c-2.7-0.2-9.8-0.1-12.3-2.2c0,0,0.2-4.2,0.1-5.4c-0.1-2.1,3.7-1.5,5.2-1.3
							c-0.4-8.2-0.2-35.7,15.2-30.7c18.4,5.9,8.1,23.6,4.5,34.6c1.6,0.3,4.7,1.2,4.5,2.7c-0.2,1.2-1.4,2.6-2,5.1
							C86.7,81.6,76.8,76.1,72.1,76.2z"/>
						<g>
							<path class="st4" d="M72.1,75.3c-2-0.2-4-0.2-5.9-0.4c-1.8-0.2-4.2-0.4-5.7-1.6c0.1,0.2,0.2,0.4,0.2,0.7
								c0.1-1.7,0.2-3.5,0.1-5.2c0-0.3-0.1-0.4,0.1-0.6c0.2-0.2,0.8-0.2,1.2-0.2c1-0.1,2,0.1,3,0.2c0.5,0.1,0.9-0.5,0.9-0.9
								c-0.2-4.4-0.1-8.9,0.4-13.2c0.3-2.6,0.7-5.2,1.5-7.7c0.6-2.2,1.5-4.4,2.9-6.2c1.2-1.6,2.8-2.7,4.7-3.1c2.7-0.4,5.6,0.7,8,1.9
								c2.4,1.3,4.6,3.2,5.6,5.9c0.9,2.4,1,5.2,0.6,7.7c-0.8,5.7-3.3,11.1-5.2,16.5c-0.2,0.6-0.4,1.2-0.6,1.8
								c-0.1,0.4,0.2,1.1,0.6,1.1c0.9,0.2,1.9,0.4,2.7,0.8c0.3,0.1,0.8,0.4,1,0.7c0.1,0.2,0.1,0.4-0.1,0.6C88,75.1,87.4,76,87,76.9
								c-0.2,0.5-0.6,1.2-0.6,1.8c0,0.1,0,0,0,0c0-0.1,0.1,0-0.1,0c0.2-0.1-0.1,0-0.1,0c0.2,0-0.1,0-0.2,0c-0.2,0-0.6,0-0.7-0.1
								c-0.7-0.1-1.5-0.3-2.2-0.6c-1.8-0.6-3.6-1.2-5.4-1.7C76,75.8,74.1,75.2,72.1,75.3c-1.2,0-1.2,1.9,0,1.9
								c1.9-0.1,3.8,0.6,5.6,1.2c1.9,0.6,3.9,1.4,5.9,1.9c1.2,0.3,3.1,0.8,4.1-0.2c0.2-0.2,0.4-0.5,0.4-0.7c0.2-0.7,0.4-1.4,0.7-2.1
								c0.4-0.9,1.1-1.9,1.3-2.9c0.6-2.7-3.2-3.6-5.1-4c0.2,0.4,0.4,0.7,0.6,1.1c1.8-5.7,4.5-11.1,5.6-17c0.6-2.9,0.7-5.9,0.1-8.7
								c-0.7-2.9-2.5-5.4-4.9-7.1c-2.6-1.9-6-3.4-9.2-3.6c-2.4-0.1-4.6,0.7-6.4,2.2c-3.9,3.3-5.2,9.1-6,13.8c-0.8,4.9-1,10-0.8,15
								c0,0.4,0.1,0.8,0.1,1.2c0.3-0.3,0.6-0.6,0.9-0.9c-1.6-0.2-3.6-0.6-5.1,0.2c-1.6,0.9-1.1,3.1-1.1,4.6c0,0.8-0.1,1.6-0.1,2.4
								c-0.1,0.7,0.4,1.2,1,1.6c1.7,1.1,3.9,1.3,5.8,1.5c2.1,0.2,4.2,0.2,6.4,0.4C73.4,77.2,73.4,75.3,72.1,75.3z"/>
						</g>
					</g>
					<g>
						<g>
							<path d="M74.7,76.4c-0.6,6.6-0.9,13.2-0.9,19.8c0,3.2,0.1,6.5,0.3,9.7c0.2,2.9,0.7,5.8,2.2,8.4c1.4,2.5,3.6,4.4,6.4,5.3
								c1.1,0.4,1.6-1.4,0.5-1.8c-5.3-1.7-6.9-7.5-7.2-12.4c-0.4-6.1-0.4-12.3-0.1-18.4c0.1-3.5,0.4-7,0.7-10.5
								C76.7,75.2,74.8,75.2,74.7,76.4L74.7,76.4z"/>
						</g>
					</g>
					<g>
						<g>
							<path class="st5" d="M71.3,74.8c2.2-5.6,3.9-11.3,4.6-17.2c0.1-1.1,0.4-2.6-0.1-3.7c-0.4-0.9-1.6-1.4-2.6-1.4
								c-2.2,0.1-3.4,2.6-2.7,4.6c0.7,2,2.9,2.9,4.8,3.5c2,0.6,4.4,0.7,6.4,0.2c1.9-0.5,4.1-2.2,3.7-4.4c-0.4-2.5-3.4-2.7-4.8-0.9
								c-0.9,1.2-1.3,2.9-1.8,4.3c-0.6,1.6-1.1,3.3-1.5,5c-0.9,3.3-1.6,6.7-2,10.1c-0.1,0.9,1.2,1.2,1.4,0.4
								c0.6-4.7,1.7-9.3,3.1-13.8c0.4-1.1,0.7-2.2,1.1-3.4c0.3-0.9,0.7-2.1,1.8-2.4c1-0.2,1.5,0.7,1.2,1.6c-0.3,0.8-1.2,1.5-1.9,1.9
								c-1.5,0.6-3.4,0.6-5.1,0.3c-1.5-0.2-3.2-0.7-4.4-1.7c-0.7-0.6-1.1-1.5-0.8-2.4c0.1-0.7,0.9-1.4,1.6-1.4c1.2,0,1.4,1.1,1.3,2
								c-0.1,1.2-0.2,2.3-0.4,3.4c-0.8,5.2-2.4,10.2-4.3,15.1C69.6,75.3,71,75.7,71.3,74.8L71.3,74.8z"/>
						</g>
					</g>
					<g>
						<g>
							<path class="st5" d="M71.8,48.7c0.6-1.4,0.7-3.2,1.2-4.6c0.2-0.6,0.6-1.2,1.2-1.6c0.3-0.2,0.6-0.3,1-0.4
								c0.3-0.1,0.7-0.1,1-0.1c0.5,0.1,1-0.1,1.1-0.6c0.1-0.4-0.1-1.1-0.6-1.1c-2.1-0.3-4.2,0.6-5.2,2.6c-0.9,1.6-0.9,3.6-1.6,5.3
								c-0.2,0.5,0.2,1,0.6,1.1C71.2,49.5,71.6,49.1,71.8,48.7L71.8,48.7z"/>
						</g>
					</g>
					<g>
						<g>
							<path class="st5" d="M80.5,41.3c1.2,0,1.2-1.9,0-1.9C79.3,39.5,79.3,41.3,80.5,41.3L80.5,41.3z"/>
						</g>
					</g>
					<g>
						<g>
							<path d="M67.8,77.1c-0.5,7.7-1.4,15.3-2.9,22.8c-0.6,3.4-1.1,7-2.5,10.2c-0.4,1.1-1.1,2.1-1.7,3.1c-0.4,0.6-0.7,1.2-1.2,1.7
								c-1.8,1.7-4.8,0.5-6.8-0.3c-1.1-0.4-1.6,1.4-0.5,1.8c2.3,0.9,5.2,1.8,7.6,0.6c1.6-0.8,2.3-2.4,3.2-3.8
								c1.9-3.1,2.6-6.6,3.3-10.1c0.8-4.1,1.5-8.1,2.1-12.2c0.6-4.5,1.1-9.1,1.4-13.6C69.7,76,67.8,76,67.8,77.1L67.8,77.1z"/>
						</g>
					</g>
				</g>
				<g>
					<g>
						<path d="M61.8,76c-1.9,3.4-3.9,6.7-7,9.1c-3,2.4-6.3,4.6-10.1,5.4c-2.6,0.6-5.1,0.3-7.6-0.3c-2.1-0.6-4.2-1.4-5.6-3.2
							c-0.9-1.2-1.5-2.9-0.9-4.4c0.3-0.9,0.9-1.7,1.6-2.4c0.7-0.7,1.6-0.8,2.5-0.9c2.1-0.2,4.4,0.3,6.4,1.3c0.6,0.3,1.4,0.7,1.8,1.4
							c0.3,0.5,0.2,1.8-0.7,1.5c-1.1-0.4-1.6,1.4-0.5,1.8c2.5,0.8,4.1-2.2,2.9-4.2c-1.1-1.7-3.3-2.6-5.2-3.1c-2.2-0.6-4.9-0.9-7.1,0
							c-1.2,0.5-2.1,1.6-2.7,2.6c-0.6,0.9-0.9,1.9-1,2.9c-0.2,2.1,1,4.2,2.5,5.7c2.1,1.9,4.9,2.8,7.7,3.2c3,0.5,5.9,0.2,8.7-0.7
							c2.2-0.8,4.2-1.9,6.1-3.2c1.9-1.3,3.7-2.7,5.2-4.4c1.9-2.1,3.4-4.6,4.8-7.2C64,75.9,62.3,75,61.8,76L61.8,76z"/>
					</g>
				</g>
				<g>
					<g>
						<path class="st6" d="M28.8,95.9C32,79.6,35.2,64.3,38,47.5c3.3,0.7,6.7,1.4,10,2.1c-3,16.4-5.7,32.4-9.7,49.3L28.8,95.9z"/>
						<g>
							<path class="st4" d="M29.7,96.2c2.4-12.5,5-25,7.3-37.5c0.7-3.7,1.3-7.3,1.9-11c-0.4,0.2-0.7,0.4-1.1,0.6
								c3.3,0.7,6.7,1.4,10,2.1c-0.2-0.4-0.4-0.7-0.6-1.1C44.8,62,42.7,74.8,40,87.4c-0.8,3.7-1.6,7.4-2.5,11.1
								c0.4-0.2,0.7-0.4,1.1-0.6c-3.2-0.9-6.4-1.9-9.6-2.9c-1.2-0.4-1.6,1.4-0.5,1.8c3.2,0.9,6.4,1.9,9.6,2.9
								c0.5,0.1,1.1-0.2,1.1-0.6c3-12.7,5.4-25.6,7.7-38.4c0.6-3.6,1.3-7.2,1.9-10.9c0.1-0.5-0.1-1.1-0.6-1.1
								c-3.3-0.7-6.7-1.4-10-2.1c-0.4-0.1-1.1,0.1-1.1,0.6C35,59.9,32.5,72.5,30,85.1c-0.7,3.6-1.4,7.1-2.1,10.7
								C27.7,96.9,29.5,97.4,29.7,96.2z"/>
						</g>
					</g>
					<g>
						<g>
							<path d="M31.3,86.8c-0.7-1-1.1-2.1-1-3.4c0.1-1,0.7-1.9,1.3-2.7c0.6-0.8,1.2-1.1,2.2-1.3c0.9-0.2,1.9-0.1,2.9-0.1
								c1.7,0.2,3.6,0.7,5.1,1.7c0.4,0.3,1,0.7,1.1,1.2c0.2,0.5-0.1,1.5-0.9,1.2c-1.1-0.4-1.6,1.4-0.5,1.8c2.2,0.7,3.8-1.7,3.1-3.6
								c-0.6-1.6-2.2-2.5-3.6-3.1c-1.9-0.8-4-1.2-6-1.1c-1,0.1-2.1,0.1-3,0.6c-1,0.4-1.7,1.4-2.4,2.2c-0.7,1-1.2,2.1-1.2,3.4
								c-0.1,1.4,0.4,2.9,1.2,4.1C30.4,88.8,32,87.8,31.3,86.8L31.3,86.8z"/>
						</g>
					</g>
					<g>
						<g>
							<path class="st4" d="M36.2,98.1C38.8,85.6,41,73,43.6,60.5c0.7-3.6,1.5-7.2,2.2-10.9c0.2-0.9-1.2-1.2-1.4-0.4
								c-2.7,12.6-5.1,25.4-7.6,38.1c-0.7,3.4-1.4,6.9-2.1,10.4C34.7,98.6,36,98.9,36.2,98.1L36.2,98.1z"/>
						</g>
					</g>
					<g>
						<g>
							<path class="st6" d="M43.7,43.1c0.1,0,0.2,0,0.2-0.1c0.9-0.6,1.9-1.1,2.8-1.6c-0.4-2.6-0.8-5.1-1.1-7.2
								c-1.2,1.9-2.4,3.9-3.5,5.7c0.4,1,0.9,2,1.4,2.9C43.5,43,43.6,43.1,43.7,43.1z"/>
							<g>
								<path class="st4" d="M43.7,44c0.7-0.1,1.2-0.5,1.8-0.8c0.6-0.3,1.1-0.6,1.7-1c0.4-0.2,0.5-0.6,0.4-1.1
									c-0.4-2.4-0.7-4.8-1.1-7.2c-0.1-0.9-1.3-0.8-1.7-0.2c-1.1,1.6-2,3.2-3,4.9c-0.2,0.4-0.6,0.9-0.6,1.3c0,0.5,0.4,1.1,0.6,1.5
									c0.2,0.4,0.4,0.9,0.6,1.3c0.2,0.4,0.4,0.9,0.8,1.2c1.1,0.6,2-1.1,0.9-1.6c0.1,0.2,0.2,0.2,0.1,0.1c0-0.1-0.1-0.1-0.1-0.1
									c-0.1-0.1-0.1-0.2-0.2-0.4c-0.1-0.2-0.2-0.5-0.4-0.7c-0.2-0.5-0.5-1.1-0.7-1.6c0,0.3,0,0.6,0,0.9c1.1-1.9,2.2-3.9,3.5-5.7
									c-0.6-0.1-1.1-0.1-1.7-0.2c0.4,2.4,0.7,4.8,1.1,7.2c0.1-0.4,0.3-0.7,0.4-1.1c-0.9,0.6-1.9,1.2-2.9,1.6
									c0.2-0.1,0.3-0.1,0.5-0.1c-0.1,0-0.1,0-0.1,0c-0.5,0.1-0.9,0.4-0.9,0.9C42.8,43.6,43.2,44.1,43.7,44z"/>
							</g>
						</g>
						<g>
							<path class="st5" d="M43.9,43c-0.1,0.1-0.1,0.1-0.2,0.1c-0.1,0-0.1-0.1-0.2-0.2c-0.4-1-0.9-2-1.4-2.9
								c-0.5,0.8-0.9,1.6-1.4,2.3c-0.7,1-1.9,4.1-2.6,5.1l9.8,1.9c-0.4-2.3-0.8-5.1-1.2-7.9C45.8,42,44.8,42.5,43.9,43z"/>
							<g>
								<path class="st4" d="M43.5,42.3c-0.1,0-0.1,0.1-0.1,0.1c0.2-0.1,0.3-0.1,0.5-0.1c-0.1,0-0.1,0-0.1,0
									c0.2,0.1,0.3,0.1,0.5,0.1c0.2,0.1,0.1,0.2,0.1-0.1c-0.1-0.1-0.1-0.3-0.2-0.4c-0.1-0.2-0.2-0.5-0.4-0.8
									c-0.2-0.5-0.5-1.1-0.7-1.6c-0.3-0.7-1.3-0.6-1.6,0c-0.8,1.3-1.6,2.6-2.3,4c-0.6,1.1-1.1,2.3-1.7,3.4
									c-0.3,0.5-0.1,1.2,0.6,1.4c2.9,0.6,5.7,1.1,8.6,1.7c0.4,0.1,0.8,0.2,1.2,0.2c0.7,0.1,1.2-0.4,1.1-1.1
									c-0.4-2.6-0.8-5.2-1.2-7.9c-0.1-0.6-0.9-0.8-1.4-0.6C45.3,41.2,44.4,41.7,43.5,42.3c-1.1,0.6-0.1,2.2,0.9,1.6
									c0.9-0.6,1.9-1.1,2.8-1.6c-0.4-0.2-0.9-0.4-1.4-0.6c0.4,2.6,0.8,5.2,1.2,7.9c0.4-0.4,0.7-0.7,1.1-1.1
									c-2.9-0.6-5.7-1.1-8.6-1.7c-0.4-0.1-0.8-0.2-1.2-0.2c0.2,0.4,0.4,0.9,0.6,1.4c0.6-1.1,1.1-2.3,1.7-3.4
									c0.7-1.4,1.5-2.6,2.3-4c-0.6,0-1.1,0-1.6,0c0.4,0.8,0.7,1.6,1.1,2.4c0.2,0.4,0.3,0.8,0.7,1c0.4,0.2,0.8,0.2,1.2,0
									c0.4-0.2,0.6-0.9,0.3-1.3C44.5,42.1,43.9,42,43.5,42.3z"/>
							</g>
						</g>
					</g>
				</g>
			</g>
			<g>
				<path class="st1" d="M78.7,37.3c-0.6-1.6,0.4-3.4,1.9-4.4c2.2-1.6,5.4-1.6,7.7-0.3s3.8,4.1,3.6,6.9c-0.1,1-0.4,2-0.1,3
					c0.3,1.1,1.4,1.9,2.2,2.6c2.3,2,4,5,3.6,8.1c-0.4,3.1-3.6,5.6-6.5,4.8c-2.4-0.7-3.8-3.3-4.9-5.6c-2.4-5.2-4.7-10.4-7.1-15.7"/>
				<g>
					<path class="st4" d="M79.6,37.1c-0.7-2.1,1.5-3.7,3.2-4.2c1.9-0.6,4.1-0.2,5.7,1c1.6,1.2,2.5,3.2,2.5,5.2
						c-0.1,1.2-0.4,2.3-0.1,3.4c0.2,1,0.9,1.8,1.7,2.5c1.6,1.4,3.1,2.9,3.7,4.9c0.6,1.9,0.4,4-0.9,5.6c-1.2,1.4-3.1,2.1-4.8,1.1
						c-1.6-0.9-2.6-2.7-3.3-4.4C84.8,47,82.5,41.5,80,36.2c-0.5-1.1-2.1-0.1-1.6,0.9c2.5,5.6,4.9,11.2,7.6,16.7
						c0.9,1.9,2.2,3.9,4.3,4.8c2.1,0.9,4.5,0.2,6.1-1.3c3.9-3.6,2.1-9.5-1.4-12.7c-0.8-0.7-2.1-1.5-2.2-2.6
						c-0.2-1.2,0.3-2.6,0.1-3.9c-0.2-2.4-1.6-4.6-3.6-5.9c-2.2-1.6-5.3-1.8-7.8-0.7c-2.4,1-4.7,3.5-3.7,6.2
						C78.2,38.7,80,38.2,79.6,37.1L79.6,37.1z"/>
				</g>
			</g>
			<g>
				<path class="st1" d="M76.8,35.3c5.7,7.4,10.1,15.9,12.6,24.9c1.1,0,2-1.1,2.1-2.2c0.1-1.1-0.2-2.2-0.7-3.2
					c-2.3-6-4.6-11.9-7.7-17.6c-0.9-1.6-2.3-3.4-4.2-3.1c-0.6,0.1-1.1,0.4-1.6,0.7"/>
				<g>
					<path class="st4" d="M76.1,36c5.6,7.3,9.8,15.6,12.3,24.5c0.1,0.4,0.5,0.7,0.9,0.7c2.3-0.1,3.3-2.4,3-4.5
						c-0.2-1.2-0.7-2.5-1.2-3.7c-0.5-1.2-0.9-2.5-1.4-3.7c-1-2.4-2-4.9-3.1-7.3c-1.1-2.2-2.1-4.6-3.6-6.6c-0.7-0.9-1.6-1.8-2.7-2.1
						c-1.2-0.4-2.4,0.1-3.5,0.7c-1,0.6-0.1,2.2,0.9,1.6c1-0.6,1.8-0.9,2.8-0.1c0.9,0.7,1.4,1.7,1.9,2.7c1.3,2.4,2.4,4.8,3.5,7.3
						C87,48,88,50.6,89,53.1c0.5,1.2,1.1,2.5,1.3,3.8c0.1,0.9,0,2.3-1.1,2.4c0.3,0.2,0.6,0.4,0.9,0.7c-2.6-9.2-7-17.8-12.8-25.3
						c-0.3-0.4-1-0.3-1.3,0C75.7,35.1,75.8,35.6,76.1,36L76.1,36z"/>
				</g>
			</g>
			<g>
				<path class="st1" d="M92,43.1c0.4-1.6,1.7-2.9,3.2-3.3c1.6-0.4,3.4,0.1,4.5,1.2c0.4,0.4,0.7,1.1,0.2,1.4
					c-0.1,0.1-0.4,0.2-0.6,0.2c-2.1,0.5-4.3,0.7-6.5,0.7"/>
				<g>
					<path class="st4" d="M92.9,43.3c0.6-2.2,3.1-3.5,5.2-2.3c0.2,0.1,0.4,0.2,0.7,0.4c0.2,0.2,0.3,0.4,0.4,0.5c0,0.1,0.1,0.1,0,0.1
						c0-0.1,0-0.1,0.1-0.2c0.1-0.1,0.1-0.1,0-0.1c-0.1,0-0.2,0.1-0.2,0.1c-0.4,0.1-0.8,0.2-1.2,0.2c-1.6,0.3-3.2,0.4-4.9,0.4
						c-1.2,0-1.2,1.9,0,1.9c1.7,0,3.4-0.1,5-0.4c0.7-0.1,1.7-0.2,2.3-0.6c0.7-0.4,1-1.2,0.7-2.1c-0.5-1.3-1.9-2.1-3.2-2.5
						c-1.4-0.3-2.8-0.2-4.1,0.5c-1.3,0.7-2.3,2-2.7,3.4C90.8,44,92.6,44.5,92.9,43.3L92.9,43.3z"/>
				</g>
			</g>
			<g>
				<g>
					<g>
						<path d="M81.5,67.3c1.1-1.1,2.9-1.1,4.4-0.7c1.7,0.6,3.1,1.8,4.3,3.1c2.4,2.6,5.1,6.4,9.1,4.7c1.6-0.7,2.6-1.9,3.5-3.3
							c0.7-1.1,1.6-2.7,1.2-4.1c-0.4-1.2-1.7-2.1-2.7-2.6c-1.1-0.5-2.4-0.9-3.5-0.4c-1.4,0.7-2.1,2.7-1.9,4.2c0.2,2,2,1.9,3.6,1.4
							c1.1-0.4,0.7-2.2-0.5-1.8c-0.3,0.1-0.7,0.2-1,0.2c-0.1,0-0.2,0-0.3,0c-0.4,0.2,0.2-0.1,0,0c0.1-0.1,0.1,0.2,0.1,0.1
							c0,0-0.1-0.2-0.1-0.3c-0.1-0.3,0.1-0.6,0.1-0.9c0.2-0.9,0.7-1.4,1.6-1.2s2,0.7,2.6,1.4c0.6,0.7-0.2,1.9-0.6,2.6
							c-0.6,1.1-1.4,2.1-2.5,2.7C97.6,73.1,96.2,73,95,72c-2.4-1.9-4-4.7-6.6-6.4c-2.4-1.5-6.1-2-8.2,0.2
							C79.3,66.8,80.6,68.1,81.5,67.3L81.5,67.3z"/>
					</g>
				</g>
				<g>
					<g>
						<path d="M81.3,67.1c1.7-1.4,4.3-1.1,6.2-0.2c2.2,1.1,3.8,2.8,5.8,4.1c1.7,1.2,3.7,1.6,5.8,1.2c1.9-0.4,3.6-1.6,4.6-3.3
							c0.6-1.1-1-2-1.6-0.9c-0.9,1.6-2.6,2.6-4.4,2.6c-2.3,0.1-4.1-1.6-5.7-2.9c-1.7-1.4-3.7-2.7-6-3.2c-2.1-0.4-4.2,0-5.9,1.4
							C79,66.6,80.4,67.9,81.3,67.1L81.3,67.1z"/>
					</g>
				</g>
				<g>
					<g>
						<path d="M93.5,71.6c0.7,1.1,2,1.6,3.3,1.7c1.4,0.2,2.7,0.1,4-0.3c0.5-0.2,0.8-0.6,0.6-1.1c-0.1-0.5-0.7-0.7-1.1-0.6
							c-0.6,0.1-1.1,0.2-1.7,0.4c-0.5,0.1-0.8,0.7-0.6,1.1c0.1,0.5,0.7,0.7,1.1,0.6c0.5-0.1,0.9-0.3,1.4-0.6
							c0.4-0.3,0.6-0.8,0.3-1.3c-0.2-0.4-0.9-0.6-1.3-0.3c-0.3,0.2-0.5,0.3-0.9,0.4c0.2,0.6,0.3,1.2,0.5,1.8
							c0.6-0.1,1.1-0.2,1.7-0.4c-0.2-0.6-0.3-1.2-0.5-1.8c-0.9,0.3-2,0.4-2.9,0.3c-0.5-0.1-1-0.2-1.4-0.4c-0.1-0.1-0.1-0.1-0.1,0
							c-0.1,0-0.1-0.1-0.2-0.1C95.6,71,95.5,71,95.4,71c-0.1-0.1-0.1-0.1-0.2-0.1c0.1,0.1,0.1,0.1,0,0c0,0-0.2-0.2-0.2-0.2
							c-0.3-0.4-0.8-0.6-1.3-0.3C93.4,70.6,93.1,71.2,93.5,71.6L93.5,71.6z"/>
					</g>
				</g>
			</g>
			<g>
				<g>
					<g>
						<path d="M71,65.2c-0.9-2.6-3.6-3.8-6.2-3.6c-3.2,0.2-5.7,2.1-8.7,2.9c-1.4,0.4-2.6,0.2-3.4-0.9c-0.7-0.9-0.9-2-1.1-3.1
							c-0.1-0.7-0.4-2.2,0.3-2.6c0.6-0.4,1.7-0.2,2.4-0.1c1.2,0.3,1.4,1.1,1.2,2.3c-0.1,0.8,0.1-0.2,0.1-0.1c0,0-0.1,0.1-0.2,0.1
							s-0.3,0-0.4,0c-0.5-0.1-0.8-0.3-1.1-0.7c-0.5-1.1-2.1-0.1-1.6,0.9c0.6,1.1,1.9,1.7,3.1,1.7c1.5-0.1,2.1-1.2,2-2.6
							c0-1.4-0.7-2.6-2-3.1c-1.1-0.5-2.4-0.6-3.7-0.3c-3.1,0.6-2.4,4.7-1.6,6.9c0.5,1.4,1.4,2.7,2.7,3.3c1.7,0.8,3.6,0.2,5.3-0.4
							c2-0.8,4-2,6.2-2.2c1.8-0.2,4.1,0.3,4.7,2.2C69.5,66.8,71.3,66.3,71,65.2L71,65.2z"/>
					</g>
				</g>
				<g>
					<g>
						<path d="M49.7,60.8c1.3,2.8,3.9,3.7,6.8,3.6c1.4,0,2.8-0.2,4.2-0.6c1.6-0.4,3.4-0.9,5.1-0.4c1.2,0.3,1.7-1.5,0.5-1.8
							c-3.1-0.8-6,0.8-9.1,0.9c-1.1,0.1-2.2,0.1-3.2-0.2c-1.4-0.4-2.2-1.2-2.7-2.5C50.8,58.7,49.2,59.6,49.7,60.8L49.7,60.8z"/>
					</g>
				</g>
				<g>
					<g>
						<path d="M50.8,62.6c0.7,1.1,1.7,1.7,2.9,2.1c1.4,0.4,2.8,0.3,4.2,0c-0.3-0.5-0.6-1.1-0.9-1.6c0,0-0.2,0.2-0.1,0.1
							c0.1-0.1-0.1,0.1-0.1,0.1c-0.1,0-0.2,0.1-0.1,0.1c-0.1,0-0.1,0.1-0.2,0.1s-0.1,0.1-0.2,0.1c-0.1,0-0.2,0.1-0.1,0
							c-0.2,0-0.4,0.1-0.5,0.1c-0.4,0-0.7,0-1.1,0c-0.4,0-0.7-0.1-0.9-0.1c-0.1,0.6-0.2,1.2-0.2,1.8c0.9,0.1,1.8,0.2,2.7,0.4
							c0.5,0.1,0.9-0.5,0.9-0.9c0-0.6-0.4-0.9-0.9-0.9c-0.9-0.1-1.8-0.2-2.7-0.4c-0.4-0.1-0.9,0.4-0.9,0.8c-0.1,0.4,0.2,0.9,0.7,1
							c0.9,0.1,1.8,0.2,2.7,0.1c0.8-0.1,1.7-0.2,2.3-0.9c0.6-0.7,0-1.7-0.9-1.6c-1,0.2-2.1,0.3-3.1,0C54.2,63,54,63,53.9,62.9
							c0,0-0.2-0.1-0.1-0.1c-0.2-0.1-0.4-0.2-0.7-0.4c-0.1-0.1-0.1-0.1-0.2-0.2c0.1,0.1-0.1-0.1-0.2-0.1c-0.1-0.1-0.2-0.2-0.2-0.2
							c-0.1-0.1-0.1-0.1-0.1-0.1c0.1,0.1,0.1,0.1,0-0.1c-0.3-0.4-0.8-0.6-1.3-0.3C50.8,61.6,50.5,62.3,50.8,62.6L50.8,62.6z"/>
					</g>
				</g>
			</g>
		</g>
		<g>
			<g>
				<path class="st3" d="M125.1,126.3c-8.2,0.6-16,1-24.5,1.8c-0.1-1.7-0.2-3.4-0.3-5.1c8.3-0.7,16.3-1.5,24.9-1.7L125.1,126.3z"/>
				<g>
					<path class="st4" d="M125.1,125.8c-6.3,0.4-12.6,0.8-18.9,1.3c-1.8,0.2-3.7,0.3-5.5,0.5c0.2,0.2,0.3,0.3,0.5,0.5
						c-0.1-1.7-0.2-3.4-0.3-5.1c-0.2,0.2-0.3,0.3-0.5,0.5c6.4-0.5,12.8-1.1,19.2-1.5c1.9-0.1,3.8-0.2,5.7-0.2
						c-0.2-0.2-0.3-0.3-0.5-0.5c0,1.7-0.1,3.3-0.1,5c0,0.6,1,0.6,1,0c0-1.7,0.1-3.3,0.1-5c0-0.3-0.2-0.5-0.5-0.5
						c-6.5,0.2-12.9,0.7-19.4,1.3c-1.8,0.2-3.7,0.3-5.5,0.5c-0.3,0-0.5,0.2-0.5,0.5c0.1,1.7,0.2,3.4,0.3,5.1c0,0.3,0.2,0.5,0.5,0.5
						c6.3-0.6,12.7-1,19.1-1.5c1.8-0.1,3.6-0.2,5.4-0.4C125.7,126.8,125.7,125.8,125.1,125.8z"/>
				</g>
			</g>
			<g>
				<g>
					<path class="st4" d="M125.1,122.5c-6.3,0.4-12.6,0.9-18.9,1.3c-1.9,0.1-3.7,0.2-5.6,0.3c-0.5,0-0.5,0.8,0,0.8
						c6.4-0.3,12.8-0.8,19.2-1.3c1.8-0.1,3.6-0.2,5.3-0.3C125.6,123.2,125.6,122.4,125.1,122.5L125.1,122.5z"/>
				</g>
			</g>
			<g>
				<g>
					<path class="st3" d="M97.8,126C97.8,126,97.8,125.9,97.8,126c-0.4-0.5-0.8-0.9-1.2-1.2c-1.2,0.5-2.4,1.1-3.3,1.5
						c1.1,0.4,2.2,0.6,3.2,0.9c0.4-0.3,0.8-0.7,1.2-1C97.8,126.1,97.8,126,97.8,126z"/>
					<g>
						<path class="st4" d="M98.3,125.9c-0.1-0.3-0.4-0.5-0.6-0.8c-0.2-0.2-0.5-0.5-0.7-0.7c-0.2-0.2-0.4-0.2-0.6-0.1
							c-1.1,0.5-2.2,1-3.3,1.5c-0.4,0.2-0.2,0.8,0.1,0.9c0.9,0.3,1.8,0.5,2.7,0.8c0.2,0.1,0.5,0.2,0.8,0.1c0.2-0.1,0.5-0.3,0.6-0.5
							c0.2-0.2,0.4-0.3,0.6-0.5c0.2-0.2,0.4-0.3,0.4-0.5c0.2-0.6-0.8-0.9-1-0.3c0,0,0-0.1,0.1-0.1c0,0-0.1,0.1-0.1,0.1
							c0,0-0.1,0.1-0.1,0.1c-0.1,0.1-0.2,0.2-0.3,0.3c-0.2,0.2-0.4,0.4-0.7,0.6c0.2,0,0.3-0.1,0.5-0.1c-1.1-0.3-2.2-0.6-3.2-0.9
							c0,0.3,0.1,0.6,0.1,0.9c1.1-0.5,2.2-1,3.3-1.5c-0.2,0-0.4-0.1-0.6-0.1c0.4,0.4,0.8,0.8,1.2,1.2c0-0.1-0.1-0.1-0.1-0.2
							c0,0,0,0,0,0.1c0.1,0.3,0.3,0.4,0.6,0.3C98.2,126.4,98.4,126.1,98.3,125.9z"/>
					</g>
				</g>
				<g>
					<path class="st5" d="M97.7,125.9C97.8,125.9,97.8,126,97.7,125.9c0.1,0.1,0,0.2,0,0.2c-0.4,0.3-0.8,0.7-1.2,1
						c0.4,0.1,0.9,0.3,1.3,0.4c0.6,0.2,2.2,0.4,2.8,0.6l-0.3-5c-1.1,0.5-2.3,1-3.6,1.6C97,125.1,97.4,125.5,97.7,125.9z"/>
					<g>
						<path class="st4" d="M97.4,126.2L97.4,126.2c0,0-0.1-0.1-0.1-0.2c0,0,0,0,0,0.1c0-0.1,0-0.2,0-0.3c0,0,0,0,0,0.1
							c0-0.1,0.1-0.1,0.1-0.2c-0.4,0.4-0.9,0.7-1.3,1.1c-0.3,0.2-0.1,0.7,0.2,0.8c0.7,0.2,1.5,0.5,2.2,0.6c0.6,0.1,1.3,0.2,1.9,0.4
							c0.3,0.1,0.7-0.2,0.6-0.5c-0.1-1.4-0.2-2.9-0.3-4.3c0-0.2,0-0.4,0-0.6c0-0.4-0.4-0.6-0.8-0.4c-1.2,0.5-2.4,1.1-3.6,1.6
							c-0.3,0.1-0.3,0.6-0.1,0.8C96.6,125.5,97,125.9,97.4,126.2c0.5,0.5,1.2-0.2,0.7-0.7c-0.4-0.4-0.8-0.8-1.1-1.1
							c0,0.3-0.1,0.5-0.1,0.8c1.2-0.5,2.4-1.1,3.6-1.6c-0.3-0.1-0.5-0.3-0.8-0.4c0.1,1.4,0.2,2.9,0.3,4.3c0,0.2,0,0.4,0,0.6
							c0.2-0.2,0.4-0.3,0.6-0.5c-0.6-0.2-1.3-0.2-1.9-0.4c-0.8-0.1-1.5-0.4-2.2-0.6c0.1,0.3,0.1,0.6,0.2,0.8c0.3-0.3,0.7-0.6,1-0.8
							c0.2-0.1,0.4-0.3,0.4-0.5c0.1-0.3,0-0.5-0.2-0.7c-0.2-0.2-0.5-0.2-0.7,0C97.2,125.7,97.2,126,97.4,126.2z"/>
					</g>
				</g>
			</g>
		</g>
		<g>
			<g>
				<path class="st3" d="M-0.6,27.1c7.1,4.2,13.8,8.2,21.2,12.3c-0.9,1.5-1.8,2.9-2.6,4.3c-7.2-4.1-14.3-8-21.5-12.7L-0.6,27.1z"/>
				<g>
					<path class="st4" d="M-0.8,27.5c5.5,3.2,10.9,6.5,16.4,9.6c1.6,0.9,3.2,1.8,4.8,2.7c0-0.2-0.1-0.5-0.1-0.7
						c-0.9,1.5-1.8,2.9-2.6,4.3c0.2,0,0.5-0.1,0.7-0.1C12.7,40.1,7.1,37,1.6,33.7c-1.6-1-3.2-2-4.8-3c0,0.2,0.1,0.5,0.1,0.7
						c1-1.4,1.9-2.7,2.9-4c0.4-0.5-0.4-1.1-0.8-0.6c-1,1.4-1.9,2.7-2.9,4C-4,31-4,31.3-3.7,31.5C1.7,35,7.3,38.2,13,41.4
						c1.6,0.9,3.2,1.8,4.8,2.7c0.2,0.1,0.6,0.1,0.7-0.1c0.9-1.5,1.8-2.9,2.6-4.3c0.2-0.2,0.1-0.6-0.1-0.7
						c-5.6-3.1-11.1-6.3-16.6-9.6c-1.6-0.9-3.1-1.8-4.6-2.7C-0.8,26.3-1.4,27.2-0.8,27.5z"/>
				</g>
			</g>
			<g>
				<g>
					<path class="st4" d="M-2.8,30.2c5.4,3.3,10.9,6.4,16.4,9.6c1.6,0.9,3.2,1.9,4.8,2.9c0.4,0.2,0.8-0.4,0.4-0.6
						c-5.5-3.4-11-6.6-16.5-9.8c-1.5-0.9-3.1-1.8-4.6-2.7C-2.8,29.4-3.2,30-2.8,30.2L-2.8,30.2z"/>
				</g>
			</g>
			<g>
				<g>
					<path class="st3" d="M21.8,42.8c0,0,0,0.1,0,0.1c0.1,0.5,0.2,1.1,0.3,1.6c1.3,0.2,2.5,0.5,3.6,0.7c-0.7-0.9-1.4-1.7-2.1-2.6
						c-0.5,0-1.1,0.1-1.6,0.2C21.8,42.7,21.8,42.7,21.8,42.8z"/>
					<g>
						<path class="st4" d="M21.3,42.6c-0.1,0.3,0,0.7,0.1,1c0.1,0.3,0.1,0.6,0.2,1c0,0.2,0.2,0.4,0.5,0.4c1.2,0.2,2.4,0.4,3.6,0.7
							c0.5,0.1,0.6-0.5,0.4-0.8c-0.6-0.8-1.2-1.5-1.8-2.2c-0.2-0.2-0.3-0.5-0.6-0.5c-0.2-0.1-0.6,0-0.8,0c-0.3,0-0.5,0-0.8,0.1
							c-0.3,0-0.5,0-0.7,0.2c-0.5,0.4,0.2,1.2,0.6,0.8c0,0-0.1,0-0.1,0c0,0,0.1,0,0.1,0c0,0,0.1,0,0.2,0c0.1,0,0.3,0,0.4-0.1
							c0.3,0,0.6-0.1,0.9-0.1c-0.2-0.1-0.3-0.1-0.5-0.2c0.7,0.8,1.5,1.7,2.1,2.6c0.1-0.3,0.3-0.5,0.4-0.8c-1.2-0.2-2.4-0.4-3.6-0.7
							c0.1,0.1,0.3,0.3,0.5,0.4c-0.1-0.6-0.2-1.1-0.3-1.6c0,0.1,0,0.2,0,0.3c0,0,0,0,0-0.1c0.1-0.3,0-0.5-0.3-0.6
							C21.7,42.2,21.4,42.4,21.3,42.6z"/>
					</g>
				</g>
				<g>
					<path class="st5" d="M21.8,42.9c0,0,0-0.1,0-0.1c0,0,0.1-0.1,0.1-0.1c0.5,0,1.1-0.1,1.6-0.2c-0.3-0.4-0.6-0.7-0.8-1.1
						c-0.4-0.5-1.6-1.6-2-2l-2.5,4.3c1.1,0.2,2.5,0.5,3.9,0.7C21.9,43.9,21.8,43.4,21.8,42.9z"/>
					<g>
						<path class="st4" d="M22.2,42.8L22.2,42.8c0,0,0,0.1,0,0.2c0,0,0,0,0-0.1c-0.1,0.1-0.1,0.1-0.2,0.2c0,0,0,0,0.1,0
							c-0.1,0-0.2,0.1-0.2,0.1c0.6-0.1,1.1-0.1,1.7-0.2c0.4,0,0.5-0.5,0.3-0.8c-0.5-0.6-0.9-1.2-1.5-1.7c-0.4-0.5-0.9-0.9-1.3-1.4
							c-0.2-0.2-0.6-0.2-0.8,0c-0.7,1.2-1.5,2.5-2.2,3.7c-0.1,0.2-0.2,0.4-0.3,0.5c-0.2,0.3,0,0.7,0.4,0.8c1.3,0.2,2.6,0.5,3.9,0.7
							c0.3,0.1,0.6-0.3,0.5-0.6C22.4,43.9,22.3,43.3,22.2,42.8c-0.1-0.6-1.1-0.5-1,0.2c0.1,0.5,0.2,1.1,0.3,1.6
							c0.2-0.2,0.4-0.4,0.5-0.6c-1.3-0.2-2.6-0.5-3.9-0.7c0.1,0.3,0.2,0.5,0.4,0.8c0.7-1.2,1.5-2.5,2.2-3.7c0.1-0.2,0.2-0.4,0.3-0.5
							c-0.3,0-0.5,0-0.8,0c0.4,0.5,0.9,0.9,1.3,1.4c0.6,0.5,1,1.2,1.5,1.7c0.1-0.3,0.2-0.5,0.3-0.8c-0.4,0-0.9,0.1-1.3,0.1
							c-0.2,0-0.5,0-0.6,0.2c-0.2,0.2-0.3,0.4-0.2,0.6c0,0.3,0.3,0.4,0.6,0.4C22.1,43.3,22.2,43.1,22.2,42.8z"/>
					</g>
				</g>
			</g>
		</g>
		<g>
			<g>
				<path class="st1" d="M105,107.9c12.6,1.4,24.5,2.9,37.4,4c-0.3,2.6-0.6,5.2-1,7.8c-12.7-1.2-25-2.3-38.1-4.3L105,107.9z"/>
				<g>
					<path class="st4" d="M105,108.6c9.6,1.1,19.3,2.2,29,3.2c2.8,0.3,5.7,0.6,8.5,0.8c-0.3-0.3-0.5-0.5-0.8-0.8
						c-0.3,2.6-0.6,5.2-1,7.8c0.3-0.3,0.5-0.5,0.8-0.8c-9.8-1-19.6-1.8-29.4-3.1c-2.9-0.4-5.7-0.8-8.5-1.2c0.2,0.3,0.4,0.6,0.5,0.9
						c0.5-2.5,1-4.9,1.6-7.4c0.2-1-1.3-1.4-1.5-0.4c-0.5,2.5-1,4.9-1.6,7.4c-0.1,0.4,0.1,0.9,0.5,0.9c9.9,1.5,19.8,2.5,29.8,3.5
						c2.9,0.3,5.7,0.6,8.5,0.8c0.5,0.1,0.7-0.4,0.8-0.8c0.3-2.6,0.6-5.2,1-7.8c0.1-0.5-0.4-0.7-0.8-0.8c-9.7-0.8-19.5-1.9-29.2-3.1
						c-2.8-0.3-5.5-0.6-8.3-0.9C104,107,104,108.5,105,108.6z"/>
				</g>
			</g>
			<g>
				<g>
					<path class="st4" d="M103.9,113.7c9.6,1.2,19.3,2.1,28.9,3.3c2.9,0.4,5.7,0.7,8.5,1.1c0.7,0.1,0.7-1.1,0-1.1
						c-9.7-1.3-19.5-2.2-29.3-3.4c-2.7-0.3-5.4-0.6-8.1-1C103.2,112.4,103.2,113.6,103.9,113.7L103.9,113.7z"/>
				</g>
			</g>
			<g>
				<g>
					<path class="st1" d="M146.1,115.9c0,0.1,0.1,0.1,0.1,0.2c0.5,0.7,0.9,1.4,1.4,2c1.9-0.5,3.9-0.9,5.5-1.3
						c-1.5-0.8-3.1-1.6-4.6-2.3c-0.7,0.4-1.4,0.8-2.2,1.2C146.2,115.8,146.1,115.8,146.1,115.9z"/>
					<g>
						<path class="st4" d="M145.4,116.1c0.1,0.4,0.5,0.9,0.7,1.2c0.3,0.4,0.6,0.8,0.8,1.2c0.2,0.3,0.5,0.5,0.9,0.4
							c1.8-0.5,3.6-0.9,5.5-1.3c0.7-0.2,0.8-1.1,0.2-1.4c-1.3-0.7-2.6-1.3-3.9-1.9c-0.3-0.2-0.7-0.4-1.1-0.4c-0.4,0-0.8,0.4-1.1,0.5
							c-0.3,0.2-0.7,0.4-1,0.6c-0.3,0.2-0.7,0.4-0.9,0.7c-0.2,0.4-0.1,0.8,0.3,1.1c0.3,0.2,0.9,0.1,1.1-0.3
							c-0.2,0.1-0.2,0.2-0.1,0.1c0.1,0,0.1-0.1,0.1-0.1c0.1-0.1,0.2-0.1,0.3-0.2c0.2-0.1,0.4-0.2,0.6-0.3c0.4-0.2,0.8-0.4,1.1-0.7
							c-0.3,0-0.5,0-0.8,0c1.5,0.8,3.1,1.4,4.6,2.3c0.1-0.5,0.1-0.9,0.2-1.4c-1.8,0.5-3.6,0.9-5.5,1.3c0.3,0.1,0.6,0.3,0.9,0.4
							c-0.3-0.4-0.5-0.7-0.7-1.1c-0.1-0.2-0.3-0.4-0.4-0.5c-0.1-0.1-0.3-0.4-0.3-0.5c-0.1-0.4-0.6-0.6-0.9-0.5
							C145.5,115.3,145.3,115.7,145.4,116.1z"/>
					</g>
				</g>
				<g>
					<path class="st5" d="M146.1,116c-0.1-0.1-0.1-0.1-0.1-0.2s0.1-0.1,0.2-0.2c0.7-0.4,1.4-0.8,2.2-1.2c-0.7-0.3-1.3-0.6-1.8-0.9
						c-0.8-0.5-3.2-1.2-4-1.6l-0.9,7.6c1.7-0.4,3.8-0.9,5.9-1.4C147,117.4,146.6,116.7,146.1,116z"/>
					<g>
						<path class="st4" d="M146.8,115.7L146.8,115.7c0,0.2-0.1,0.4-0.1,0.6c-0.1,0.1-0.2,0.2,0,0.1c0.1-0.1,0.2-0.1,0.3-0.2
							c0.2-0.1,0.4-0.2,0.6-0.3c0.4-0.2,0.8-0.5,1.2-0.7c0.5-0.3,0.5-1.1,0-1.3c-1.1-0.5-2.1-1.1-3.3-1.5c-0.5-0.2-1-0.4-1.5-0.6
							c-0.3-0.1-0.5-0.2-0.7-0.3c-0.1,0-0.1-0.1-0.2-0.1c0,0-0.2-0.1-0.1-0.1c0.1,0-0.2-0.1-0.2-0.1c-0.6-0.3-1.1,0.1-1.2,0.7
							c-0.3,2.2-0.5,4.4-0.8,6.6c-0.1,0.3-0.1,0.6-0.1,1c-0.1,0.5,0.5,0.8,1,0.7c2-0.5,3.9-1,5.9-1.4c0.5-0.1,0.7-0.7,0.5-1.1
							C147.7,117,147.2,116.3,146.8,115.7c-0.3-0.4-0.7-0.5-1.1-0.3c-0.4,0.2-0.5,0.7-0.3,1.1c0.5,0.7,0.9,1.4,1.4,2
							c0.2-0.4,0.3-0.8,0.5-1.1c-2,0.5-3.9,1-5.9,1.4c0.3,0.3,0.7,0.5,1,0.7c0.3-2.2,0.5-4.4,0.8-6.6c0.1-0.3,0.1-0.6,0.1-1
							c-0.4,0.2-0.8,0.5-1.2,0.7c0.9,0.4,1.9,0.7,2.8,1.1c0.5,0.2,0.7,0.3,1.1,0.5c0.7,0.3,1.3,0.7,1.9,1c0-0.5,0-0.9,0-1.3
							c-0.6,0.4-1.2,0.7-1.8,1c-0.3,0.2-0.6,0.3-0.8,0.6c-0.2,0.3-0.2,0.7,0.1,1C146,117.2,147.3,116.5,146.8,115.7z"/>
					</g>
				</g>
			</g>
		</g>
		<g>
			<g>
				<path class="st1" d="M-10.5,21.6c12.6,1.4,24.5,2.9,37.4,4c-0.3,2.6-0.6,5.2-1,7.8C13.3,32.1,1,31-12.1,29L-10.5,21.6z"/>
				<g>
					<path class="st4" d="M-10.5,22.3c9.6,1.1,19.3,2.2,29,3.2c2.8,0.3,5.7,0.6,8.5,0.8c-0.3-0.3-0.5-0.5-0.8-0.8
						c-0.3,2.6-0.6,5.2-1,7.8c0.3-0.3,0.5-0.5,0.8-0.8c-9.8-1-19.6-1.8-29.4-3.1c-2.9-0.4-5.7-0.8-8.5-1.2c0.2,0.3,0.4,0.6,0.5,0.9
						c0.5-2.5,1-4.9,1.6-7.4c0.2-1-1.3-1.4-1.5-0.4c-0.5,2.5-1,4.9-1.6,7.4c-0.1,0.4,0.1,0.9,0.5,0.9c9.9,1.5,19.8,2.5,29.8,3.5
						c2.9,0.3,5.7,0.6,8.5,0.8c0.5,0.1,0.7-0.4,0.8-0.8c0.3-2.6,0.6-5.2,1-7.8c0.1-0.5-0.4-0.7-0.8-0.8c-9.7-0.8-19.5-1.9-29.2-3.1
						c-2.8-0.3-5.5-0.6-8.3-0.9C-11.5,20.7-11.5,22.2-10.5,22.3z"/>
				</g>
			</g>
			<g>
				<g>
					<path class="st4" d="M-11.5,27.4c9.6,1.2,19.3,2.1,28.9,3.3c2.9,0.4,5.7,0.7,8.5,1.1c0.7,0.1,0.7-1.1,0-1.1
						c-9.7-1.3-19.5-2.2-29.3-3.4c-2.7-0.3-5.4-0.6-8.1-1C-12.2,26.2-12.2,27.3-11.5,27.4L-11.5,27.4z"/>
				</g>
			</g>
			<g>
				<g>
					<path class="st1" d="M30.6,29.6c0,0.1,0.1,0.1,0.1,0.2c0.5,0.7,0.9,1.4,1.4,2c1.9-0.5,3.9-0.9,5.5-1.3
						c-1.5-0.8-3.1-1.6-4.6-2.3c-0.7,0.4-1.4,0.8-2.2,1.2C30.7,29.5,30.6,29.5,30.6,29.6z"/>
					<g>
						<path class="st4" d="M29.9,29.8c0.1,0.4,0.5,0.9,0.7,1.2c0.3,0.4,0.6,0.8,0.8,1.2c0.2,0.3,0.5,0.5,0.9,0.4
							c1.8-0.5,3.6-0.9,5.5-1.3c0.7-0.2,0.8-1.1,0.2-1.4c-1.3-0.7-2.6-1.3-3.9-1.9c-0.3-0.2-0.7-0.4-1.1-0.4s-0.8,0.4-1.1,0.5
							c-0.3,0.2-0.7,0.4-1,0.6c-0.3,0.2-0.7,0.4-0.9,0.7c-0.2,0.4-0.1,0.8,0.3,1.1c0.3,0.2,0.9,0.1,1.1-0.3
							c-0.2,0.1-0.2,0.2-0.1,0.1c0.1,0,0.1-0.1,0.1-0.1c0.1-0.1,0.2-0.1,0.3-0.2c0.2-0.1,0.4-0.2,0.6-0.3c0.4-0.2,0.8-0.4,1.1-0.7
							c-0.3,0-0.5,0-0.8,0c1.5,0.8,3.1,1.4,4.6,2.3c0.1-0.5,0.1-0.9,0.2-1.4c-1.8,0.5-3.6,0.9-5.5,1.3c0.3,0.1,0.6,0.3,0.9,0.4
							c-0.3-0.4-0.5-0.7-0.7-1.1c-0.1-0.2-0.3-0.4-0.4-0.5c-0.1-0.1-0.3-0.4-0.3-0.5c-0.1-0.4-0.6-0.6-0.9-0.5
							C30,29,29.8,29.4,29.9,29.8z"/>
					</g>
				</g>
				<g>
					<path class="st5" d="M30.7,29.7c-0.1-0.1-0.1-0.1-0.1-0.2c0-0.1,0.1-0.1,0.2-0.2c0.7-0.4,1.4-0.8,2.2-1.2
						c-0.7-0.3-1.3-0.6-1.8-0.9c-0.8-0.5-3.2-1.2-4-1.6l-0.9,7.6c1.7-0.4,3.8-0.9,5.9-1.4C31.6,31.1,31.1,30.5,30.7,29.7z"/>
					<g>
						<path class="st4" d="M31.3,29.4L31.3,29.4c0,0.2-0.1,0.4-0.1,0.6c-0.1,0.1-0.2,0.2,0,0.1c0.1-0.1,0.2-0.1,0.3-0.2
							c0.2-0.1,0.4-0.2,0.6-0.3c0.4-0.2,0.8-0.5,1.2-0.7c0.5-0.3,0.5-1.1,0-1.3c-1.1-0.5-2.1-1.1-3.3-1.5c-0.5-0.2-1-0.4-1.5-0.6
							c-0.3-0.1-0.5-0.2-0.7-0.3c-0.1,0-0.1-0.1-0.2-0.1c0,0-0.2-0.1-0.1-0.1c0.1,0-0.2-0.1-0.2-0.1c-0.6-0.3-1.1,0.1-1.2,0.7
							c-0.3,2.2-0.5,4.4-0.8,6.6c-0.1,0.3-0.1,0.6-0.1,1c-0.1,0.5,0.5,0.8,1,0.7c2-0.5,3.9-1,5.9-1.4c0.5-0.1,0.7-0.7,0.5-1.1
							C32.2,30.7,31.8,30,31.3,29.4c-0.3-0.4-0.7-0.5-1.1-0.3c-0.4,0.2-0.5,0.7-0.3,1.1c0.5,0.7,0.9,1.4,1.4,2
							c0.2-0.4,0.3-0.8,0.5-1.1c-2,0.5-3.9,1-5.9,1.4c0.3,0.3,0.7,0.5,1,0.7c0.3-2.2,0.5-4.4,0.8-6.6c0.1-0.3,0.1-0.6,0.1-1
							c-0.4,0.2-0.8,0.5-1.2,0.7c0.9,0.4,1.9,0.7,2.8,1.1c0.5,0.2,0.7,0.3,1.1,0.5c0.7,0.3,1.3,0.7,1.9,1c0-0.5,0-0.9,0-1.3
							c-0.6,0.4-1.2,0.7-1.8,1c-0.3,0.2-0.6,0.3-0.8,0.6c-0.2,0.3-0.2,0.7,0.1,1C30.5,31,31.8,30.2,31.3,29.4z"/>
					</g>
				</g>
			</g>
		</g>
		<g>
			<g>
				<path class="st6" d="M111.4,113.9c8.7,5.7,16.9,11.1,26,16.7c-1.2,1.8-2.3,3.6-3.6,5.3c-8.8-5.6-17.4-10.9-26.3-17.1
					L111.4,113.9z"/>
				<g>
					<path class="st4" d="M111.1,114.4c6.7,4.3,13.3,8.7,20,13c2,1.2,3.9,2.5,5.9,3.7c-0.1-0.3-0.2-0.5-0.2-0.8
						c-1.2,1.8-2.3,3.6-3.6,5.3c0.3-0.1,0.5-0.2,0.8-0.2c-6.8-4.3-13.7-8.6-20.5-13.1c-2-1.3-3.9-2.7-5.9-4c0,0.3,0.1,0.6,0.1,0.9
						c1.3-1.6,2.6-3.2,3.9-4.9c0.5-0.6-0.4-1.4-0.8-0.8c-1.3,1.6-2.6,3.2-3.9,4.9c-0.2,0.3-0.2,0.7,0.1,0.9
						c6.7,4.7,13.5,9.1,20.5,13.4c2,1.2,3.9,2.5,5.9,3.7c0.3,0.2,0.6,0,0.8-0.2c1.2-1.8,2.3-3.6,3.6-5.3c0.2-0.3,0-0.6-0.2-0.8
						c-6.8-4.2-13.5-8.6-20.3-13c-1.9-1.2-3.8-2.5-5.7-3.7C111.1,113,110.5,114.1,111.1,114.4z"/>
				</g>
			</g>
			<g>
				<g>
					<path class="st4" d="M108.5,117.8c6.6,4.4,13.4,8.7,20.1,13.1c2,1.3,3.9,2.6,5.8,3.9c0.5,0.3,0.9-0.4,0.4-0.7
						c-6.7-4.5-13.5-8.9-20.3-13.3c-1.8-1.2-3.7-2.4-5.5-3.6C108.5,116.7,108.1,117.5,108.5,117.8L108.5,117.8z"/>
				</g>
			</g>
			<g>
				<g>
					<path class="st6" d="M138.6,134.9c0,0,0,0.1,0,0.2c0.1,0.7,0.2,1.3,0.3,2c1.6,0.4,3.2,0.7,4.5,1.1c-0.8-1.2-1.7-2.3-2.5-3.4
						c-0.7,0-1.4,0.1-2,0.1C138.7,134.9,138.6,134.9,138.6,134.9z"/>
					<g>
						<path class="st4" d="M138,134.8c-0.1,0.2,0,0.4,0,0.6c0,0.2,0,0.4,0.1,0.6c0,0.4,0.1,0.8,0.2,1.2c0,0.2,0.2,0.4,0.4,0.4
							c1.5,0.4,3,0.7,4.5,1.1c0.5,0.1,1-0.4,0.7-0.9c-0.7-1-1.4-2-2.1-2.9c-0.2-0.2-0.4-0.5-0.6-0.7c-0.3-0.2-0.7,0-1.1,0
							c-0.3,0-0.6,0-0.9,0c-0.4,0-0.7,0-0.9,0.2c-0.2,0.2-0.2,0.6,0,0.8c0.2,0.2,0.6,0.2,0.8,0l0,0c-0.1,0-0.2,0.1-0.3,0.2
							c-0.1,0,0.1,0,0.2,0c0.1,0,0.2,0,0.3,0c0.2,0,0.4,0,0.5,0c0.4,0,0.7,0,1.1,0c-0.2-0.1-0.4-0.2-0.5-0.3
							c0.9,1.1,1.7,2.2,2.5,3.4c0.2-0.3,0.4-0.6,0.7-0.9c-1.5-0.4-3-0.7-4.5-1.1c0.1,0.1,0.3,0.3,0.4,0.4c0-0.4-0.1-0.7-0.2-1.1
							c0-0.2,0-0.4-0.1-0.5c0-0.1,0-0.2,0-0.3c0-0.1,0-0.1,0,0c0.1-0.3-0.1-0.6-0.4-0.7C138.4,134.3,138.1,134.5,138,134.8z"/>
					</g>
				</g>
				<g>
					<path class="st5" d="M138.6,135.1c0,0,0-0.1,0-0.2c0,0,0.1,0,0.2-0.1c0.7,0,1.4-0.1,2-0.1c-0.4-0.5-0.7-0.9-1-1.4
						c-0.4-0.6-1.9-2.1-2.3-2.7L134,136c1.4,0.4,3.1,0.7,4.8,1.1C138.7,136.4,138.6,135.8,138.6,135.1z"/>
					<g>
						<path class="st4" d="M139.1,135.1C139.1,135.1,139.1,135.1,139.1,135.1c-0.1,0.1-0.2,0.2-0.3,0.4c0,0,0.3,0,0.4,0
							c0.2,0,0.4,0,0.5,0c0.4,0,0.7,0,1,0c0.4,0,0.8-0.5,0.5-0.9c-0.6-0.8-1.2-1.6-1.8-2.4c-0.5-0.6-1.1-1.2-1.6-1.8
							c-0.2-0.3-0.7-0.2-0.9,0.1c-1,1.5-2,3-3,4.6c-0.2,0.2-0.3,0.4-0.4,0.7c-0.2,0.3,0,0.8,0.4,0.9c1.6,0.4,3.2,0.7,4.8,1.1
							c0.5,0.1,0.8-0.3,0.7-0.7c-0.1-0.7-0.2-1.3-0.3-2c0-0.3-0.4-0.5-0.7-0.4c-0.4,0.1-0.5,0.4-0.4,0.7c0.1,0.7,0.2,1.3,0.3,2
							c0.2-0.2,0.5-0.5,0.7-0.7c-1.6-0.4-3.2-0.7-4.8-1.1c0.1,0.3,0.2,0.6,0.4,0.9c1-1.5,2-3,3-4.6c0.2-0.2,0.3-0.4,0.4-0.7
							c-0.3,0-0.6,0.1-0.9,0.1c0.5,0.6,1.1,1.1,1.6,1.7c0.7,0.7,1.1,1.4,1.7,2.2c0.2-0.3,0.4-0.6,0.5-0.9c-0.5,0-1.1,0-1.6,0.1
							c-0.2,0-0.5,0-0.8,0.1c-0.3,0.2-0.4,0.4-0.4,0.7C138,135.8,139.2,135.8,139.1,135.1z"/>
					</g>
				</g>
			</g>
		</g>
		<g>
			<g>
				<path class="st7" d="M148.3,23c-12.9,0.6-25,1.2-38.3,2.1c-0.1-2.6-0.2-5.3-0.3-7.9c13-0.8,25.5-1.8,38.9-1.9L148.3,23z"/>
				<g>
					<path d="M148.3,22.2c-9.9,0.5-19.7,0.9-29.6,1.6c-2.9,0.2-5.8,0.4-8.6,0.6c0.2,0.2,0.5,0.5,0.7,0.7c-0.1-2.6-0.2-5.3-0.3-7.9
						c-0.2,0.2-0.5,0.5-0.7,0.7c10-0.6,20.1-1.4,30.1-1.7c3-0.1,5.9-0.2,8.8-0.2c-0.2-0.2-0.5-0.5-0.7-0.7c-0.1,2.6-0.2,5.1-0.3,7.7
						c0,0.9,1.4,0.9,1.5,0c0.1-2.6,0.2-5.1,0.3-7.7c0-0.4-0.3-0.7-0.7-0.7c-10.1,0.1-20.3,0.7-30.4,1.4c-2.9,0.2-5.7,0.4-8.6,0.6
						c-0.4,0-0.7,0.3-0.7,0.7c0.1,2.6,0.2,5.3,0.3,7.9c0,0.4,0.3,0.8,0.7,0.7c9.9-0.8,19.9-1.3,29.8-1.7c2.8-0.1,5.6-0.3,8.4-0.4
						C149.2,23.6,149.3,22.2,148.3,22.2z"/>
				</g>
			</g>
			<g>
				<g>
					<path class="st4" d="M148.5,17c-9.9,0.4-19.8,1-29.7,1.5c-2.9,0.1-5.7,0.2-8.6,0.3c-0.7,0-0.7,1.1,0,1.1
						c10-0.3,20.1-0.9,30.1-1.5c2.7-0.1,5.5-0.2,8.2-0.4C149.2,18,149.2,16.9,148.5,17L148.5,17z"/>
				</g>
			</g>
			<g>
				<g>
					<path class="st7" d="M105.7,21.6c0,0,0-0.1-0.1-0.1c-0.6-0.6-1.2-1.2-1.7-1.8c-1.8,0.8-3.7,1.6-5.2,2.2c1.6,0.6,3.3,1.1,5,1.6
						c0.7-0.5,1.3-1.1,2-1.6C105.7,21.8,105.7,21.7,105.7,21.6z"/>
					<g>
						<path d="M106.4,21.5c-0.1-0.5-0.6-0.8-1-1.2c-0.3-0.4-0.7-0.7-1.1-1.1c-0.2-0.2-0.6-0.2-0.9-0.1c-1.7,0.7-3.4,1.5-5.1,2.1
							c-0.7,0.3-0.7,1.2,0,1.4c1.4,0.5,2.8,0.9,4.2,1.3c0.3,0.1,0.8,0.3,1.2,0.2c0.3-0.1,0.7-0.5,1-0.7c0.3-0.2,0.6-0.5,0.9-0.8
							c0.3-0.2,0.6-0.4,0.7-0.8c0.2-0.9-1.2-1.3-1.4-0.4c0,0,0-0.1,0-0.1c0,0-0.1,0.1-0.1,0.1c-0.1,0-0.1,0.1-0.2,0.2
							c-0.2,0.1-0.4,0.3-0.5,0.4c-0.3,0.3-0.7,0.6-1.1,0.8c0.2,0,0.5-0.1,0.7-0.2c-1.6-0.5-3.3-1-5-1.6c0,0.5,0,0.9,0,1.4
							c1.8-0.8,3.6-1.5,5.4-2.3c-0.3,0-0.6-0.1-0.9-0.1c0.6,0.6,1.3,1.2,1.8,1.9c0-0.1-0.1-0.2-0.2-0.3c0,0,0,0,0,0.1
							C105.3,22.7,106.7,22.3,106.4,21.5z"/>
					</g>
				</g>
				<g>
					<path class="st5" d="M105.6,21.5c0,0,0.1,0.1,0.1,0.1c0,0.1,0,0.1-0.1,0.2c-0.7,0.5-1.3,1.1-2,1.6c0.7,0.2,1.4,0.4,2,0.6
						c0.9,0.3,3.4,0.7,4.3,1l-0.4-7.8c-1.6,0.7-3.7,1.6-5.7,2.4C104.5,20.3,105,20.9,105.6,21.5z"/>
					<g>
						<path class="st4" d="M105.1,22C105.1,22,105.2,22,105.1,22c0,0-0.1-0.1-0.1-0.2c0,0,0,0,0,0.1c0-0.1,0-0.2,0-0.4
							c0,0,0,0,0,0.1c0-0.1,0.1-0.2,0.2-0.3c-0.6,0.6-1.4,1.1-2,1.7c-0.4,0.3-0.1,1.1,0.3,1.2c1.2,0.3,2.2,0.7,3.4,1
							c1,0.2,1.9,0.3,2.9,0.6c0.4,0.1,0.9-0.2,0.9-0.7c-0.1-2.3-0.2-4.5-0.3-6.8c0-0.3,0-0.6,0-1c0-0.4-0.4-0.9-0.9-0.7
							c-1.9,0.8-3.9,1.6-5.9,2.5c-0.4,0.2-0.4,0.8-0.1,1.2C104,20.8,104.6,21.4,105.1,22c0.6,0.7,1.7-0.3,1-1
							c-0.6-0.6-1.2-1.2-1.7-1.8c0,0.4-0.1,0.8-0.1,1.2c1.8-0.8,3.7-1.6,5.5-2.3c-0.3-0.2-0.6-0.5-0.9-0.7c0.1,2.3,0.2,4.5,0.3,6.8
							c0,0.3,0,0.6,0,1c0.3-0.2,0.6-0.5,0.9-0.7c-1-0.3-1.9-0.4-2.9-0.6c-1.2-0.2-2.3-0.6-3.4-1c0.1,0.4,0.2,0.8,0.3,1.2
							c0.5-0.4,1.1-0.8,1.6-1.3c0.2-0.2,0.6-0.4,0.7-0.7c0.1-0.4,0-0.7-0.2-1c-0.2-0.3-0.8-0.2-1,0C104.8,21.3,104.8,21.7,105.1,22z
							"/>
					</g>
				</g>
			</g>
		</g>
		<g>
			<g>
				<path class="st7" d="M35.1,126.4c-12.9,0.6-25,1.2-38.3,2.1c-0.1-2.6-0.2-5.3-0.3-7.9c13-0.8,25.5-1.8,38.9-1.9L35.1,126.4z"/>
				<g>
					<path d="M35.1,125.6c-9.9,0.5-19.7,0.9-29.6,1.6c-2.9,0.2-5.8,0.4-8.6,0.6c0.2,0.2,0.5,0.5,0.7,0.7c-0.1-2.6-0.2-5.3-0.3-7.9
						c-0.2,0.2-0.5,0.5-0.7,0.7c10-0.6,20.1-1.4,30.1-1.7c3-0.1,5.9-0.2,8.8-0.2c-0.2-0.2-0.5-0.5-0.7-0.7c-0.1,2.6-0.2,5.1-0.3,7.7
						c0,0.9,1.4,0.9,1.5,0c0.1-2.6,0.2-5.1,0.3-7.7c0-0.4-0.3-0.7-0.7-0.7c-10.1,0.1-20.3,0.7-30.4,1.4c-2.9,0.2-5.7,0.4-8.6,0.6
						c-0.4,0-0.7,0.3-0.7,0.7c0.1,2.6,0.2,5.3,0.3,7.9c0,0.4,0.3,0.8,0.7,0.7c9.9-0.8,19.9-1.3,29.8-1.7c2.8-0.1,5.6-0.3,8.4-0.4
						C36.1,127,36.1,125.6,35.1,125.6z"/>
				</g>
			</g>
			<g>
				<g>
					<path class="st4" d="M35.3,120.4c-9.9,0.4-19.8,1-29.7,1.5c-2.9,0.1-5.7,0.2-8.6,0.3c-0.7,0-0.7,1.1,0,1.1
						c10-0.3,20.1-0.9,30.1-1.5c2.7-0.1,5.5-0.2,8.2-0.4C36,121.4,36,120.3,35.3,120.4L35.3,120.4z"/>
				</g>
			</g>
			<g>
				<g>
					<path class="st7" d="M-7.4,125.1c0,0,0-0.1-0.1-0.1c-0.6-0.6-1.2-1.2-1.7-1.8c-1.8,0.8-3.7,1.6-5.2,2.2c1.6,0.6,3.3,1.1,5,1.6
						c0.7-0.5,1.3-1.1,2-1.6C-7.5,125.2-7.4,125.2-7.4,125.1z"/>
					<g>
						<path d="M-6.7,124.9c-0.1-0.5-0.6-0.8-1-1.2c-0.3-0.4-0.7-0.7-1.1-1.1c-0.2-0.2-0.6-0.2-0.9-0.1c-1.7,0.7-3.4,1.5-5.1,2.1
							c-0.7,0.3-0.7,1.2,0,1.4c1.4,0.5,2.8,0.9,4.2,1.3c0.3,0.1,0.8,0.3,1.2,0.2c0.3-0.1,0.7-0.5,1-0.7c0.3-0.2,0.6-0.5,0.9-0.8
							c0.3-0.2,0.6-0.4,0.7-0.8c0.2-0.9-1.2-1.3-1.4-0.4c0,0,0-0.1,0-0.1c0,0-0.1,0.1-0.1,0.1c-0.1,0-0.1,0.1-0.2,0.2
							c-0.2,0.1-0.4,0.3-0.5,0.4c-0.3,0.3-0.7,0.6-1.1,0.8c0.2,0,0.5-0.1,0.7-0.2c-1.6-0.5-3.3-1-5-1.6c0,0.5,0,0.9,0,1.4
							c1.8-0.8,3.6-1.5,5.4-2.3c-0.3,0-0.6-0.1-0.9-0.1c0.6,0.6,1.3,1.2,1.8,1.9c0-0.1-0.1-0.2-0.2-0.3c0,0,0,0,0,0.1
							C-7.8,126.1-6.4,125.7-6.7,124.9z"/>
					</g>
				</g>
				<g>
					<path class="st5" d="M-7.5,124.9c0,0,0.1,0.1,0.1,0.1c0,0.1,0,0.1-0.1,0.2c-0.7,0.5-1.3,1.1-2,1.6c0.7,0.2,1.4,0.4,2,0.6
						c0.9,0.3,3.4,0.7,4.3,1l-0.4-7.8c-1.6,0.7-3.7,1.6-5.7,2.4C-8.7,123.7-8.1,124.3-7.5,124.9z"/>
					<g>
						<path class="st4" d="M-8,125.4C-8,125.4-8,125.4-8,125.4c0,0-0.1-0.1-0.1-0.2c0,0,0,0,0,0.1c0-0.1,0-0.2,0-0.4c0,0,0,0,0,0.1
							c0-0.1,0.1-0.2,0.2-0.3c-0.6,0.6-1.4,1.1-2,1.7c-0.4,0.3-0.1,1.1,0.3,1.2c1.2,0.3,2.2,0.7,3.4,1c1,0.2,1.9,0.3,2.9,0.6
							c0.4,0.1,0.9-0.2,0.9-0.7c-0.1-2.3-0.2-4.5-0.3-6.8c0-0.3,0-0.6,0-1c0-0.4-0.4-0.9-0.9-0.7c-1.9,0.8-3.9,1.6-5.9,2.5
							c-0.4,0.2-0.4,0.8-0.1,1.2C-9.2,124.2-8.6,124.8-8,125.4c0.6,0.7,1.7-0.3,1-1c-0.6-0.6-1.2-1.2-1.7-1.8c0,0.4-0.1,0.8-0.1,1.2
							c1.8-0.8,3.7-1.6,5.5-2.3c-0.3-0.2-0.6-0.5-0.9-0.7c0.1,2.3,0.2,4.5,0.3,6.8c0,0.3,0,0.6,0,1c0.3-0.2,0.6-0.5,0.9-0.7
							c-1-0.3-1.9-0.4-2.9-0.6c-1.2-0.2-2.3-0.6-3.4-1c0.1,0.4,0.2,0.8,0.3,1.2c0.5-0.4,1.1-0.8,1.6-1.3c0.2-0.2,0.6-0.4,0.7-0.7
							c0.1-0.4,0-0.7-0.2-1c-0.2-0.3-0.8-0.2-1,0C-8.4,124.7-8.3,125.1-8,125.4z"/>
					</g>
				</g>
			</g>
		</g>
	</g>
</g>
</svg>
