<?xml version="1.0" encoding="utf-8"?>
<!-- Generator: Adobe Illustrator 24.2.0, SVG Export Plug-In . SVG Version: 6.00 Build 0)  -->
<svg version="1.1" id="Layer_1" xmlns="http://www.w3.org/2000/svg" xmlns:xlink="http://www.w3.org/1999/xlink" x="0px" y="0px"
	 viewBox="0 0 143 144" style="enable-background:new 0 0 143 144;" xml:space="preserve">
<style type="text/css">
	.st0{fill:#B1DCDF;}
	.st1{fill:#F8DAD4;}
	.st2{fill:#C69702;}
	.st3{fill:#F7C402;}
	.st4{fill:#FFFFFF;}
	.st5{fill:#E1262F;}
	.st6{fill:#E66869;}
	.st7{fill:#7DC4CA;}
</style>
<g id="Capa_14">
	<g>
		<path class="st0" d="M21,6.3H122c6.8,0,12.3,5.5,12.3,12.3v105.9c0,6.8-5.5,12.3-12.3,12.3H21c-6.8,0-12.3-5.5-12.3-12.3V18.6
			C8.7,11.8,14.2,6.3,21,6.3z"/>
		<path class="st1" d="M122,137.2H21c-7,0-12.7-5.7-12.7-12.7V18.6c0-7,5.7-12.7,12.7-12.7H122c7,0,12.7,5.7,12.7,12.7v105.9
			C134.6,131.5,129,137.2,122,137.2z M21,6.6c-6.6,0-12,5.4-12,12v105.9c0,6.6,5.4,12,12,12H122c6.6,0,12-5.4,12-12V18.6
			c0-6.6-5.4-12-12-12H21z"/>
	</g>
</g>
<g id="Capa_18">
	<path class="st2" d="M97.5,72.3c-1.2-5-2.7-10-6-13.8c-1.8-2.1-4.2-6.4-6.7-7.4l-2.6-1.3c-7.4-3.7-17.2-7-33.6,2.1
		c-7.4,4.1-12.3,12.2-16.1,20.2c-6,12.5-8.9,26.8-6.6,40.4c1.4,8.4,5,16.4,10.5,22.9c4.4,0.2,8.8,1,13.3,1.1c4.9,0,9.8-0.8,14.7-1.1
		c7.5-0.5,15.3-1.5,22.8-0.2c3.8-5.2,6.3-11.5,8.2-17.8C100.5,100,101.5,89.8,97.5,72.3z M77.2,107c-1.1,4.1-2.7,8.2-5.4,11.3
		c-4.5,5.2-11.4,6.5-16.6,3.6s-8.6-9.3-9.4-16.4c-0.8-7.1,0.7-14.6,3.6-21.2c1.8-4.2,4.2-8.5,7.6-10.8c7.6-5,12-3.5,15.3-1.7
		l1.2,0.6c1.1,0.5,2.1,2.7,2.9,3.8c1.4,1.9,2.1,4.5,2.5,7.1C80.4,92.4,79.8,97.7,77.2,107z"/>
	<path d="M98.4,72.1c-0.7-3.6-2-7-3.6-10.3c-0.8-1.5-1.8-2.9-2.9-4.2c-0.9-1.2-1.8-2.4-2.7-3.6c-0.9-1.3-2-2.4-3.2-3.3
		c-0.7-0.4-1.5-0.9-2.3-1.2c-1.6-0.8-3.3-1.6-4.9-2.3c-4.4-1.8-9.1-2.5-13.8-2c-3.1,0.3-6.1,1.1-9,2.2c-3.6,1.3-7,3-10.1,5.1
		c-5.6,4-9.5,9.9-12.6,15.9c-3.5,6.7-6.1,13.9-7.7,21.3c-3,14.6-1.2,30.5,7.5,42.9c0.5,0.7,1,1.4,1.5,2.1c0.5,0.7,1.1,1.7,2,1.8
		c0.9,0.1,2,0.1,3,0.2l3.3,0.3c4.2,0.5,8.4,0.6,12.7,0.2c4.2-0.4,8.4-0.8,12.6-1.1c4.2-0.4,8.4-0.6,12.6-0.6c2.1,0,4.2,0.2,6.3,0.6
		c0.4,0.1,0.9-0.1,1.2-0.5c5.4-7.4,8-16.4,10.2-25.1c1.9-7.8,3.1-15.8,2.5-23.9C100.4,81.8,99.6,76.9,98.4,72.1
		c-0.3-1.3-2.3-0.7-2,0.5c1.9,8,2.9,16.2,2.2,24.4c-0.4,3.9-1.1,7.8-2,11.6c-1,4.4-2.2,8.7-3.7,12.9c-1.6,4.7-3.8,9.1-6.7,13.2
		l1.2-0.5c-6.6-1.1-13.2-0.6-19.8-0.1c-3.3,0.3-6.7,0.5-10,0.9c-3.3,0.4-6.7,0.5-10,0.4c-3.8-0.2-7.5-0.8-11.3-1l0.7,0.3
		c-7.4-8.7-11-20-11-31.3c-0.1-11.8,3.3-23.3,8.7-33.7c2.4-4.7,5.3-9.3,9.1-13c4-3.8,9.2-6.3,14.4-8c4.1-1.4,8.4-1.9,12.6-1.5
		c3.2,0.4,6.3,1.3,9.2,2.7c1.2,0.5,2.4,1.1,3.5,1.7c0.6,0.2,1.2,0.6,1.8,0.9c0.8,0.7,1.6,1.5,2.3,2.4c0.7,1,1.4,2,2.2,3
		S91.4,60,92,61c1.5,2.3,2.6,4.9,3.4,7.5c0.4,1.4,0.8,2.7,1.1,4.1S98.7,73.3,98.4,72.1z"/>
	<path d="M76.2,106.7c-1.3,4.6-3.1,9.4-6.8,12.6c-3.1,2.6-7.2,3.7-11.1,2.7c-3.9-1-6.9-4.2-8.8-7.7c-2.1-4.2-3.1-8.9-2.9-13.6
		c0.2-5.2,1.3-10.2,3.3-15c1.7-4.1,3.9-8.9,7.8-11.4c3.1-2.1,6.9-3.8,10.7-2.9c1.2,0.3,2.3,0.8,3.4,1.4c0.4,0.2,0.9,0.4,1.3,0.7
		c0.7,0.6,1.3,1.3,1.6,2.2c0.5,0.9,1.2,1.7,1.6,2.6c0.5,1.1,0.9,2.3,1.2,3.5c0.6,2.5,0.9,5,1.1,7.6c0.2,4.6-0.2,9.1-1.4,13.6
		C76.9,104.1,76.6,105.4,76.2,106.7c-0.1,0.6,0.2,1.1,0.8,1.3c0.5,0.1,1.1-0.2,1.2-0.7c1.4-5,2.6-10.1,2.5-15.3c0-2.7-0.3-5.3-0.7-8
		c-0.4-2.7-1-5.4-2.4-7.7c-0.6-0.9-1.1-1.8-1.7-2.7c-0.5-0.8-1.2-1.5-2-2.1c-1.1-0.6-2.2-1.2-3.4-1.7c-3.6-1.4-7.3-0.8-10.7,0.8
		c-2.4,1-4.5,2.6-6.2,4.5c-1.6,2-3,4.1-4.1,6.4c-2.5,5-4.1,10.5-4.8,16.1c-0.7,5.2,0,10.6,1.9,15.5c1.7,4.1,4.5,8,8.6,10
		c4,1.8,8.6,1.7,12.5-0.3c4.6-2.3,7.4-6.8,9.1-11.5c0.5-1.3,0.9-2.6,1.3-4c0.2-0.5-0.2-1.1-0.7-1.3S76.4,106.1,76.2,106.7z"/>
	<path class="st3" d="M110.8,58.7c-1.4-4.8-3.4-9.4-6-13.7c-2.1-3.3-9.3-8.7-9.3-8.7c-4.5-2-8.2-3.7-13.8-3.7
		c-0.2,0-5.9,8.2-6.1,8.2c-5.2,0-12.2,2.3-19.9,6.6c-7.4,4.2-12.3,12.2-16.1,20.2c-6,12.5-8.9,26.8-6.6,40.4
		c1.9,11.4,7.8,22,16.5,28.6l0,0c4.9,0,9.8-0.8,14.7-1.1c8.4-0.6,17-1.8,25.2,0.3c0.6-0.5,1.2-1.1,1.8-1.7
		c5.6-5.7,8.8-13.4,11.1-21.2c5.1-17.4,6.2-27.7,2.1-45.1c-0.2-0.8-0.4-1.5-0.6-2.3C104,65.2,110.8,58.9,110.8,58.7z M84.4,102.3
		c-1.1,4.1-2.7,8.2-5.4,11.3c-4.5,5.2-11.4,6.5-16.6,3.6c-5.2-2.9-8.6-9.3-9.4-16.4c-0.8-7,0.7-14.6,3.6-21.2
		c1.8-4.2,4.2-8.5,7.6-10.8c7.6-5,12-3.5,15.3-1.7l1.2,0.6c1.1,0.5,2.1,2.7,2.9,3.8c1.4,1.9,2.1,4.5,2.5,7.1
		C87.6,87.7,87,93.1,84.4,102.3z"/>
	<path d="M111.8,58.4c-0.7-2.4-1.5-4.7-2.5-7c-0.9-2.3-2.1-4.5-3.3-6.6c-2-3.2-5.2-5.7-8.1-8l-1.5-1.2c-0.5-0.3-1-0.6-1.6-0.8
		c-2.4-1.1-4.8-2-7.4-2.6c-1.4-0.3-2.7-0.5-4.1-0.6c-0.8-0.1-1.8-0.3-2.4,0.4c-0.8,0.9-1.5,1.9-2.2,2.9c-0.9,1.3-1.9,2.6-2.8,3.9
		l-0.5,0.7l-0.2,0.3c0.1-0.2,0,0-0.1,0.1S75,40,75,40c0-0.2,0.7-0.2,0.3-0.2c-0.6,0-1.1,0-1.7,0.1c-5.2,0.6-10.3,2.5-15,4.8
		c-2.6,1.2-5,2.7-7.2,4.4c-2,1.7-3.8,3.6-5.4,5.7c-3.2,4.4-5.9,9.1-8,14.1c-4.8,10.8-7.5,22.8-6.4,34.6c1,10.7,5,21.2,12.4,29.1
		c0.9,1,1.8,1.9,2.8,2.7c0.5,0.4,0.9,0.8,1.4,1.2c0.4,0.5,1,0.8,1.6,0.9c1.6,0.1,3.1,0,4.7-0.2c1.7-0.1,3.3-0.3,5-0.5
		c6.4-0.6,12.9-1.3,19.3-1.3c3.2,0,6.4,0.2,9.5,0.9c0.6,0.1,1.5,0.5,2.1,0.2c0.7-0.5,1.3-1,1.8-1.6c1-1,1.9-2,2.7-3.1
		c3.3-4.5,5.9-9.5,7.6-14.9c1.9-5.6,3.4-11.4,4.5-17.2c1-5.1,1.4-10.3,1.3-15.5c-0.3-5.7-1.2-11.4-2.6-17c-0.1-0.4-0.2-0.8-0.3-1.1
		c0-0.1-0.2-0.7-0.2-0.7c0,0-0.2,0.5-0.2,0.4c-0.1,0.3,0,0,0.1-0.1c0.4-0.4,0.8-0.8,1.3-1.3c1.2-1.1,2.3-2.2,3.5-3.4
		c0.4-0.4,0.8-0.8,1.2-1.2c0.2-0.2,0.6-0.6,0.7-0.9c0.1-0.6-0.2-1.1-0.7-1.3c-0.5-0.2-1.1,0.2-1.3,0.7c0-0.3,0.3-0.5,0-0.1
		c-0.2,0.2-0.4,0.4-0.6,0.6c-0.6,0.6-1.1,1.1-1.7,1.7c-1.2,1.2-2.4,2.3-3.6,3.5c-0.4,0.3-0.7,0.8-0.8,1.3c0.1,0.9,0.3,1.7,0.6,2.6
		c0.2,0.8,0.4,1.7,0.6,2.6c0.7,3.2,1.2,6.4,1.6,9.7c0.6,5.8,0.4,11.7-0.6,17.5c-1.1,6.5-2.8,12.9-4.9,19.1
		c-2.4,6.8-5.8,13.4-11.3,18.2l1-0.3c-8.6-2.1-17.5-1-26.2-0.3c-4.5,0.3-8.9,1-13.4,1H50c-0.4,0-0.4,0-0.2,0H50l-0.4-0.3
		c-0.3-0.3-0.7-0.6-1-0.8c-0.7-0.6-1.3-1.2-1.9-1.8c-1.3-1.2-2.4-2.5-3.5-3.9c-9.6-12.4-11.5-28.9-8.3-43.8
		c1.8-7.8,4.7-15.3,8.6-22.2c1.7-3.2,3.8-6.2,6.3-8.9c2.5-2.7,5.6-4.9,8.9-6.5c3.5-1.8,7.1-3.3,10.9-4.3c1.5-0.4,3.1-0.7,4.7-0.8
		c0.9-0.1,1.8,0.1,2.4-0.7c1.2-1.5,2.3-3.1,3.4-4.7c0.6-0.8,1.2-1.6,1.8-2.4c0.1-0.1,0.2-0.3,0.3-0.4c0.1-0.1,0,0,0,0
		c0-0.1,0.1-0.1,0.1-0.2c0,0,0.1-0.1,0.1-0.2c0.1,0.7-0.8,0,0,0.3c0.3,0,0.6,0.1,0.9,0c3.7,0.3,7.2,1.6,10.6,3
		c1.7,0.8,2.9,1.8,4.4,3.1c2,1.7,4.1,3.4,5.6,5.6c1.8,2.8,3.3,5.8,4.4,9c0.6,1.5,1.1,3,1.5,4.6c0.2,0.5,0.9,0.7,1.4,0.5
		C111.6,59.3,111.8,58.9,111.8,58.4z"/>
	<path d="M83.4,102c-1.3,4.6-3.1,9.4-6.8,12.6c-3.1,2.6-7.2,3.7-11.1,2.7c-4-1.1-6.9-4.2-8.8-7.7c-2.1-4.2-3.1-8.9-2.9-13.6
		c0.2-5.2,1.3-10.2,3.3-15c1.7-4.1,3.9-8.9,7.8-11.4c3.1-2.1,6.9-3.8,10.7-2.9c1.2,0.3,2.3,0.8,3.4,1.4c0.4,0.2,0.9,0.4,1.3,0.7
		c0.7,0.6,1.3,1.3,1.7,2.2c0.5,0.9,1.2,1.7,1.6,2.6c0.5,1.1,0.9,2.3,1.2,3.5c0.6,2.5,0.9,5,1.1,7.6c0.2,4.6-0.2,9.1-1.4,13.5
		C84.1,99.5,83.8,100.8,83.4,102c-0.1,0.6,0.3,1.1,0.8,1.2c0.5,0.1,1-0.2,1.2-0.7c1.4-5,2.6-10.1,2.5-15.3c0-2.7-0.3-5.3-0.7-8
		c-0.4-2.6-1-5.4-2.4-7.7c-0.6-0.9-1.1-1.8-1.7-2.7c-0.5-0.8-1.2-1.5-2-2.1c-1.1-0.6-2.2-1.2-3.4-1.7c-3.6-1.4-7.3-0.8-10.7,0.8
		c-2.4,1-4.5,2.6-6.2,4.5c-1.6,2-3,4.1-4.1,6.4c-2.5,5-4.1,10.5-4.8,16.1c-0.7,5.2,0,10.6,1.9,15.5c1.7,4.1,4.5,8,8.6,10
		c4,1.8,8.6,1.7,12.5-0.3c4.6-2.3,7.3-6.8,9.1-11.5c0.5-1.3,0.9-2.6,1.3-4c0-0.6-0.4-1-1-1.1C84,101.5,83.6,101.7,83.4,102z"/>
	<path d="M62.6,52.4c0,0,0.2,0.1,0.2,0.1c-0.1-0.1-0.2-0.1-0.1,0c0,0,0.1,0.1,0.1,0.1l0.1,0.1c-0.1-0.1-0.1-0.2,0-0.1l0.1,0.2
		c0.1,0.2,0-0.2,0,0L63,53c0,0.1,0,0.1,0-0.1c0,0,0,0.1,0,0.1c0,0,0,0.2,0,0.2l1-1c-0.1,0-0.3-0.1,0,0c-0.1,0-0.2,0-0.2-0.1h-0.1
		c0.3,0.1,0.2,0.1,0.1,0l-0.2-0.1c0.3,0.2,0.1,0.1,0,0l-0.1-0.2c-0.1-0.1,0.2,0.2,0.1,0.1l-0.1-0.1c0-0.1-0.1-0.2-0.1-0.2
		c0-0.1,0.1,0.2,0,0l-0.1-0.2v-0.1c0-0.1,0,0.3,0,0.1c0-0.1,0-0.2,0-0.2c0-0.3-0.1,0.2,0,0c0,0,0-0.2,0.1-0.2s-0.1,0.3,0,0.1
		l0.1-0.1c0,0,0-0.1,0.1-0.1c-0.1,0.2-0.1,0.2,0,0.1l0.1-0.1c0.1-0.1,0.2-0.1-0.1,0.1c0.1,0,0.1-0.1,0.2-0.1c0.2-0.1-0.2,0.1,0,0
		l0.3-0.1c0,0-0.3,0-0.1,0H64c0.3,0-0.3-0.1,0,0l0.2,0.1c0,0,0.1,0,0.1,0c0,0-0.3-0.1-0.1,0l0.2,0.1c0,0,0.2,0.2,0.1,0.1
		c-0.2-0.1,0.1,0.1,0.1,0.1l0.1,0.1c0.1,0.1-0.2-0.2-0.1-0.1c0,0.1,0.1,0.1,0.1,0.2c0,0,0,0.1,0,0.1c-0.1-0.3-0.1-0.2-0.1-0.1l0,0.1
		c0,0.1,0,0.2,0-0.1c0,0.1,0,0.2,0,0.3c0,0.1-0.1,0.1,0,0c0,0,0,0.1,0,0.1c0,0.1,0,0.1,0,0.2c0,0.1-0.1,0.1,0,0
		c-0.1,0.1-0.1,0.2-0.2,0.3c-0.1,0.1,0.2-0.2,0,0l-0.1,0.1l-0.1,0.1c-0.1,0.1-0.1,0,0,0c-0.1,0-0.2,0.1-0.2,0.1l-0.1,0
		c0.2-0.1,0.2-0.1,0.1,0l-0.2,0.1h-0.1c-0.2,0,0.3,0,0.1,0h-0.2c-0.1,0-0.4-0.1-0.1,0c-0.2,0-0.3-0.1-0.5-0.1c-0.2,0-0.2-0.1,0.1,0
		l-0.1,0l-0.2-0.1c0,0-0.1,0-0.1-0.1c0.2,0.1,0.2,0.1,0.1,0.1c-0.1-0.1-0.1-0.1-0.2-0.2L62.5,52c0.2,0.2,0.1,0.1,0,0
		c0-0.1-0.1-0.1-0.1-0.2c-0.1-0.2,0.1,0.2,0,0.1c0,0,0-0.1,0-0.1v-0.1c-0.1-0.2,0,0.3,0,0.1c0-0.1,0-0.2,0-0.2s-0.1,0.3,0,0.1
		c0-0.1,0-0.1,0-0.2c0-0.1,0-0.1,0-0.1s0.1-0.2,0,0c0-0.1,0.1-0.1,0.1-0.2c0-0.1,0.1-0.2,0.2-0.2c-0.1,0.2-0.1,0.1,0,0.1
		c0.1-0.1,0.1-0.1,0.1-0.1l0.1-0.1c0.1-0.1-0.1,0.1-0.1,0.1c0.1,0,0.2-0.1,0.2-0.2c0,0,0.1,0,0.1-0.1c0.1-0.1-0.3,0.1-0.1,0
		c0.2-0.1,0.2,0,0.3-0.1c-0.2,0.1-0.2,0-0.1,0h0.2c0.1,0,0.1,0.1-0.1,0h0.1c0.1,0,0.2,0.1-0.1,0l0.1,0.1l0.1,0
		c0.2,0.1-0.1,0-0.1-0.1c0.1,0.1,0.1,0.1,0.2,0.2c0.1,0.1-0.1-0.1-0.1-0.1s0.1,0.1,0.1,0.1c0,0,0.1,0.2,0.1,0.2c-0.2-0.3,0-0.1,0,0
		c0,0.1,0,0.2,0.1,0.2c-0.1-0.3,0-0.1,0,0s0,0.2,0,0.2c0-0.3,0-0.1,0,0c0,0,0,0.1,0,0.1c0,0.1-0.1,0,0-0.1c0,0.1-0.1,0.1-0.1,0.2
		c-0.1,0.1,0.2-0.2,0.1-0.1c0,0-0.1,0.1-0.1,0.1l-0.1,0.1c0.2-0.2,0.1-0.1,0,0l0.5-0.1c0.2,0,0.2,0,0.1,0l0.2,0.1
		c0.1,0.1,0.2,0.1,0.1,0.1c0.1,0.1,0.1,0.2,0.1,0.1c0-0.1,0,0,0.1,0.1c0-0.1,0-0.1,0,0s0,0.1,0,0c0,0.1,0,0.2-0.1,0.3
		c0.3-0.5,0.1-1.1-0.5-1.4c-0.5-0.3-1.1-0.1-1.4,0.5l0,0c-0.2,0.5-0.2,1,0,1.5c0.2,0.4,0.5,0.7,1,0.8c0.5,0.1,1,0,1.4-0.4
		c0.2-0.2,0.4-0.4,0.5-0.6c0.5-1,0.4-2.1-0.2-3c-0.3-0.5-0.8-0.9-1.4-1c-0.7-0.2-1.4-0.1-2,0.3c-1.2,0.7-1.8,2-1.5,3.3
		c0.3,1.2,1.2,2,2.4,2.3c0.6,0.1,1.2,0.1,1.8-0.1c0.7-0.2,1.3-0.6,1.7-1.2c0.8-1.1,0.7-2.6-0.2-3.5c-0.8-0.8-2-1.1-3-0.8
		c-1.1,0.4-1.9,1.5-1.8,2.7c0.1,1.2,0.9,2.2,2,2.6c0.3,0.1,0.5,0.1,0.8,0.1c0.6,0,1-0.5,1-1c0.1-1.1-0.5-2.1-1.4-2.7
		c-0.5-0.3-1.1-0.2-1.4,0.3c-0.3,0.5-0.2,1.1,0.3,1.4C62.5,52.4,62.5,52.4,62.6,52.4L62.6,52.4z"/>
	<path d="M69.7,56.5c0,1.9,1.2,3.5,3,4.1c1.8,0.5,3.7-0.2,4.6-1.8c0.5-0.9,0.7-1.9,0.5-2.9c-0.2-0.5-0.7-0.8-1.3-0.7
		c-0.5,0.2-0.8,0.7-0.7,1.3c0,0.1,0,0.1,0,0c0,0.1,0,0.1,0,0.2v0.2V57c0-0.1,0-0.1,0,0c0,0.1,0,0.2-0.1,0.2c-0.1,0.1,0,0.2-0.1,0.2
		c0,0.1,0,0.1,0,0c0,0,0,0.1-0.1,0.2l-0.1,0.2c0,0-0.2,0.3-0.1,0.1c-0.1,0.1-0.2,0.3-0.4,0.4c-0.2,0.2,0.1,0-0.1,0.1l-0.2,0.1
		c-0.1,0.1-0.2,0.1-0.3,0.2c0.2-0.1,0,0-0.1,0l-0.3,0.1c-0.3,0.1,0.1,0-0.1,0h-0.3c-0.1,0-0.4-0.1-0.1,0c-0.2,0-0.4-0.1-0.5-0.2
		c-0.1,0-0.1,0,0,0l-0.2-0.1c-0.1,0-0.1-0.1-0.2-0.1c0,0-0.3-0.2-0.1-0.1l-0.2-0.2l-0.2-0.2c-0.2-0.2,0.1,0.1-0.1-0.1
		c-0.1-0.2-0.2-0.3-0.3-0.5c0.1,0.2,0,0,0-0.1s-0.1-0.2-0.1-0.3c-0.1-0.2,0,0.2,0-0.1c0-0.1,0-0.2,0-0.3c0-0.6-0.5-1-1-1
		C70.3,55.5,69.8,56,69.7,56.5L69.7,56.5z"/>
	<path class="st4" d="M63.8,50.3l-0.2,0c-0.1,0-0.3,0-0.4,0c-0.1,0-0.3,0-0.4,0.1c-0.1,0.1-0.2,0.1-0.3,0.3
		c-0.1,0.1-0.2,0.2-0.2,0.3l0,0.3c0,0.2,0.1,0.4,0.1,0.5l0.2,0.2c0.1,0.1,0.3,0.2,0.5,0.3l0.2,0.1c0.1,0,0.3,0,0.4,0
		c0.1,0,0.3,0,0.4-0.1c0.1-0.1,0.2-0.2,0.3-0.3c0.1-0.1,0.2-0.2,0.2-0.3l0-0.3c0-0.2,0-0.4-0.1-0.5l-0.2-0.2
		C64.1,50.5,64,50.4,63.8,50.3L63.8,50.3z"/>
	<path d="M84,50.7c-1-1.7,0.1-4.9,2.1-5.3c1.9-0.4,4,2,4.1,4c0,2-1.5,3.8-3.6,4c-2,0.1-3.9-1.1-4.7-2.9c-0.7-1.9,0-4.4,1.9-5.2
		s4.4,0.9,4,2.9c-0.1,0.5-0.4,1-0.9,1.1c-0.5,0.1-1.1-0.4-0.9-0.9"/>
	<path d="M84.9,50.2c0,0-0.2-0.3-0.1-0.1c0-0.1-0.1-0.2-0.1-0.3l0-0.2c0,0,0-0.2,0-0.1c0,0.1,0,0,0,0s0-0.2,0-0.3v-0.3
		c0-0.2,0,0.2,0,0c0-0.1,0-0.1,0-0.2c0.1-0.3,0.1-0.5,0.2-0.8c0.1-0.2-0.1,0.1,0,0l0.1-0.1c0.1-0.1,0.1-0.2,0.2-0.3
		c0.1-0.1,0.1-0.2,0.2-0.3c-0.1,0.1,0.1-0.1,0.1-0.1c0.1-0.1,0.2-0.2,0.3-0.2c-0.2,0.1,0.1-0.1,0.2-0.1l0.1-0.1c0.1-0.1-0.2,0,0,0
		c0.2,0,0.4-0.1,0.2-0.1c0.1,0,0.2,0,0.3,0c0.2,0-0.1,0,0,0l0.2,0c0.2,0,0.4,0.1,0.6,0.3c0.4,0.3,0.7,0.6,1,1c0.3,0.4,0.5,1,0.6,1.5
		c0-0.2,0,0.2,0,0.3s0,0.3,0,0.3c0,0.2-0.1,0.5-0.2,0.7c-0.4,1-1.3,1.7-2.4,1.8h-0.3c-0.1,0-0.3,0-0.4,0c-0.2,0,0.1,0-0.1,0l-0.2,0
		c-0.2,0-0.3-0.1-0.5-0.2c-0.5-0.2-0.9-0.5-1.3-0.8c-0.4-0.4-0.7-0.8-0.9-1.3c-0.2-0.5-0.2-1-0.2-1.5c0,0,0-0.2,0,0
		c0-0.1,0-0.1,0-0.2c0-0.1,0.1-0.3,0.1-0.4c0-0.1,0.1-0.2,0.1-0.3c0,0.1,0,0,0,0l0.1-0.2c0.2-0.4,0.5-0.7,0.9-0.9
		c0.4-0.2,0.8-0.3,1.3-0.2c0.5,0.1,0.9,0.4,1.2,0.7l0.1,0.1c-0.1-0.1,0.1,0.1,0.1,0.1s0.2,0.4,0.1,0.2c0,0.1,0,0.1,0.1,0.2
		c0,0,0,0.3,0,0.1c0-0.1,0,0.1,0,0.1c0,0,0,0.2,0,0.2c0-0.2-0.1,0.2-0.1,0.2l-0.1,0.2c0.1-0.1-0.1,0.2,0,0c-0.1,0.1-0.1,0,0.1,0
		s0.2,0.3,0.2,0.4c0.2-0.5-0.1-1.1-0.6-1.3c-0.5-0.2-1.1,0.2-1.3,0.7c-0.2,1,0.4,1.9,1.4,2.1c0.1,0,0.3,0,0.4,0
		c1.1-0.1,1.9-0.9,2.1-2c0.2-1.7-0.7-3.3-2.3-3.9c-1.6-0.7-3.4-0.3-4.6,1c-1.1,1.3-1.5,3.1-1.1,4.8c0.5,1.8,1.8,3.2,3.5,3.8
		c1.7,0.7,3.6,0.4,5.1-0.8c1.5-1.1,2.1-3,1.7-4.8c-0.4-1.7-1.5-3.1-3-3.8c-0.9-0.4-1.9-0.4-2.8,0c-0.7,0.4-1.3,0.9-1.7,1.6
		c-0.9,1.4-1.2,3.4-0.3,4.9c0.4,0.4,1,0.5,1.4,0.1C84.9,51,85,50.6,84.9,50.2z"/>
	<path class="st4" d="M85.5,51c2.6,0,2.6-4.1,0-4.1C82.9,46.9,82.9,51,85.5,51z"/>
	<path d="M106.4,90.7l8.2,9.1c2.2,2.5,4.7,5,8.2,5.1c0.7,0,1.3-0.5,1.5-1.1c0.6-2.2-0.5-4.8-1.1-7c-0.6-2.2-1.2-4.3-1.8-6.4
		c-1-3.7-2.1-7.3-3.2-11c-0.4-1.2-0.8-3.1-2.5-2.7c-1.9,0.4-1.1,3.4,0.8,3l0,0l-1.2-0.2c0.1,0-0.7-0.7-0.5-0.5
		c0.2,0.2-0.1-0.4-0.1-0.2s0.1,0.3,0.2,0.4c0.2,0.5,0.3,0.9,0.4,1.4c0.4,1.4,0.9,2.9,1.3,4.3c1.1,3.9,2.2,7.8,3.3,11.6l0.8,2.9
		c0.3,1,0.9,2.3,0.6,3.4l1.5-1.1c-2.9-0.1-5-3-6.7-5l-7.5-8.3C107.2,87,105,89.2,106.4,90.7L106.4,90.7z"/>
	<path class="st5" d="M115.9,47.9c0,11.6-9.6,21.1-21.5,21.1s-21.5-9.5-21.5-21.1s9.6-21.1,21.5-21.1S115.9,36.2,115.9,47.9z
		 M94.2,29.4c-10.2,0-18.4,8.3-18.4,18.4c0,10.2,8.3,18.4,18.4,18.4c10.2,0,18.4-8.3,18.4-18.4C112.7,37.7,104.4,29.4,94.2,29.4
		C94.2,29.4,94.2,29.4,94.2,29.4z"/>
	<path d="M115.1,47.9c-0.1,8.6-5.5,16.2-13.6,19.1c-8.2,2.9-17.4,0.4-23.1-6.2c-5.6-6.6-6.3-16.1-1.8-23.5
		c4.6-7.3,13.3-11.1,21.8-9.4c8.4,1.7,14.9,8.3,16.4,16.8C115,45.8,115.1,46.8,115.1,47.9c0,0.4,0.4,0.8,0.8,0.7
		c0.4,0,0.7-0.3,0.7-0.7c-0.1-9.2-6-17.4-14.7-20.5c-8.8-3.1-18.7-0.5-24.8,6.7c-5.9,7.1-6.7,17.3-1.9,25.2
		c5,7.9,14.3,11.9,23.4,10.1c8.9-1.7,16.2-9,17.6-18c0.2-1.2,0.3-2.3,0.3-3.5c0-0.4-0.4-0.7-0.8-0.7
		C115.4,47.2,115.1,47.5,115.1,47.9z"/>
	<path d="M94.2,28.7c-10.6,0-19.3,8.6-19.3,19.2c0,10.6,8.6,19.3,19.2,19.3c10.6,0,19.3-8.6,19.3-19.2c0-9.5-6.8-17.5-16.2-19
		C96.2,28.8,95.2,28.7,94.2,28.7c-0.4,0-0.7,0.4-0.7,0.8c0,0.4,0.3,0.7,0.7,0.7c9.8,0,17.7,7.9,17.7,17.7S104,65.5,94.2,65.5
		c-9.8,0-17.7-7.9-17.7-17.7c0-1.2,0.1-2.4,0.4-3.5c1.7-8.2,8.9-14.1,17.3-14.1c0.4,0,0.7-0.4,0.7-0.8C94.9,29,94.6,28.7,94.2,28.7z
		"/>
	<path class="st6" d="M106.3,65.8c0.6,0.5,1.6,1.5,2.2,2.1c0.3,0.3,0.6,0.2,1,0.2c0.4,0,0.8,0.1,1.3,0.2c0.5,0.2,1,0.3,1.5,0.4
		c0.5,0.1,1-0.1,1.4-0.4c0.2-0.3,0.4-0.6,0.4-1c0.1-0.7,0.1-1.4,0.3-2.2c0.1-0.4,0.2-0.9,0.3-1.3c0.2-0.6,0.1-1.3-0.3-1.9
		c-0.6-0.6-1.4-1.2-2.2-1.7"/>
	<path d="M105.8,66.3c0.4,0.4,0.9,0.8,1.3,1.2c0.4,0.5,0.9,0.9,1.4,1.2c0.3,0.1,0.6,0.1,0.9,0.1c0.4,0,0.8,0.1,1.2,0.2
		c0.7,0.3,1.4,0.4,2.1,0.4c0.7,0,1.4-0.4,1.8-1c0.3-0.7,0.5-1.4,0.5-2.2c0.1-0.7,0.2-1.4,0.4-2.1c0.2-0.6,0.2-1.3,0-2
		c-0.2-0.6-0.6-1.1-1.1-1.5c-0.5-0.4-1-0.8-1.6-1.1c-0.9-0.5-1.7,0.9-0.8,1.3c0.5,0.3,1,0.6,1.4,1c0.4,0.3,0.7,0.5,0.7,1.1
		c0,0.7-0.2,1.4-0.3,2.1c-0.1,0.8-0.2,1.5-0.3,2.3c-0.2,0.6-0.7,0.7-1.3,0.6c-0.8-0.2-1.7-0.4-2.5-0.5c-0.2,0-0.3,0-0.5,0
		c0,0,0.1,0.1,0-0.1c-0.1-0.1-0.4-0.4-0.7-0.7c-0.5-0.5-0.9-0.9-1.4-1.3c-0.3-0.3-0.8-0.3-1.1,0C105.5,65.5,105.5,66,105.8,66.3
		L105.8,66.3z"/>
	<path class="st5" d="M129.4,76c0-0.5-8.5-10.1-13.4-13.7c-0.3-0.3-0.8-0.3-1.1,0c-0.1,0.1-0.1,0.1-0.1,0.2
		c-2.2,2.1-4.5,4.2-6.2,6.8c0.7,2.7,13.7,14.5,14.7,14.1c0.6-0.3,1.1-0.7,1.4-1.2c1.3-1.5,3.1-3.6,4.3-5.3
		C129.1,76.6,129.3,76.3,129.4,76C129.3,76,129.3,76,129.4,76z"/>
	<path d="M130.1,76c-0.1-0.4-0.3-0.8-0.6-1.1c-0.5-0.6-1-1.2-1.5-1.8c-1.5-1.8-3.1-3.5-4.8-5.2c-1.7-1.8-3.6-3.5-5.5-5.1
		c-0.8-0.6-1.8-1.8-2.9-1.5c-0.7,0.2-1.3,1-1.8,1.5c-0.7,0.7-1.4,1.4-2.1,2.1c-0.6,0.6-1.1,1.2-1.6,1.8c-0.7,0.6-1.2,1.4-1.6,2.2
		c-0.2,0.6,0.2,1.2,0.5,1.6c0.9,1.4,2,2.6,3.2,3.8c2.8,2.9,5.7,5.6,8.9,8.1c0.8,0.6,2.1,1.9,3.2,1.5c0.8-0.4,1.4-1,1.9-1.7
		c0.6-0.7,1.2-1.4,1.8-2.1c0.6-0.7,1.1-1.4,1.7-2.1c0.5-0.5,0.9-1.2,1.2-1.9c0.1-1-1.4-1.4-1.5-0.4c-0.1,0.6-0.8,1.3-1.2,1.8
		c-0.5,0.7-1.1,1.3-1.6,2l-1.4,1.7c-0.3,0.3-0.5,0.6-0.8,0.9c-0.1,0.1-0.3,0.2-0.5,0.4c-0.3,0.3-0.1-0.1,0,0.1c0.1,0.2-0.1-0.1,0,0
		c0.1,0.1-0.1-0.1-0.2-0.1c-0.2-0.1-0.4-0.2-0.6-0.4c-0.6-0.4-1.1-0.8-1.6-1.2c-3.2-2.6-6.1-5.4-8.9-8.3c-0.6-0.7-1.2-1.4-1.8-2.1
		c-0.2-0.3-0.4-0.5-0.6-0.8c-0.1-0.2-0.2-0.4-0.3-0.6l-0.1,0.6c1.7-2.3,3.6-4.4,5.7-6.3c0.2-0.2,0.3-0.4,0.5-0.4
		c0.2,0,0.4,0.3,0.5,0.3c0.3,0.2,0.7,0.5,1,0.8c0.7,0.6,1.4,1.2,2.1,1.8c2.8,2.6,5.4,5.3,7.9,8.1c0.4,0.5,0.9,1,1.3,1.6
		c0.1,0.2,0.2,0.3,0.3,0.5c0.1,0.2,0.1,0.3,0.1,0C128.6,76.9,130.2,77,130.1,76z"/>
	<path d="M121.8,77.6c0.3-0.3,0.5-0.5,0.8-0.8c0.1-0.1,0.1-0.1,0.2-0.2l0.1-0.1c0.1-0.1,0.1-0.1,0,0c0-0.1,0.3-0.2,0.4-0.3
		c0.5-0.3,0.9-0.7,1.4-1.1c1-1,1.5-2.2,1.5-3.6c0-0.6-0.5-1-1-1c-0.6,0-1,0.5-1,1c0,0.1,0,0.2,0,0.3c0,0.2,0-0.2,0,0
		c0,0.2-0.1,0.3-0.1,0.5c0,0.1-0.1,0.3-0.1,0.4c0,0.1-0.1,0.2,0,0c0,0,0,0.1-0.1,0.2c-0.1,0.1-0.1,0.2-0.2,0.3c0,0-0.1,0.1-0.1,0.1
		c0.1-0.1,0.1-0.2,0.1-0.1l0,0.1c-0.2,0.2-0.3,0.3-0.5,0.5c-0.1,0.1-0.4,0.3-0.1,0.1l-0.3,0.2l-0.7,0.5c-0.6,0.4-1.1,0.9-1.6,1.4
		c-0.4,0.4-0.4,1.1,0.1,1.5C120.8,77.9,121.4,77.9,121.8,77.6L121.8,77.6z"/>
	<path d="M118.9,75.3c0.3-0.3,0.6-0.5,0.9-0.7c0.2-0.1-0.2,0.1,0,0l0.1-0.1l0.2-0.2c0.4-0.3,0.8-0.7,1.2-1.1c0.5-0.6,0.9-1.3,1.2-2
		c0.5-1,0.7-2.1,0.5-3.2c-0.2-0.5-0.7-0.8-1.3-0.7c-0.5,0.2-0.9,0.7-0.7,1.3c0,0.2,0,0,0,0.2c0,0.2,0,0.2,0,0.3c0,0,0,0.3,0,0.2
		c0,0.1,0,0.2-0.1,0.3s-0.1,0.2-0.1,0.3c0-0.1,0,0.1,0,0.1c-0.1,0.2-0.2,0.4-0.3,0.5c-0.2,0.4-0.4,0.7-0.7,1.1
		c-0.1,0.1-0.2,0.2-0.2,0.4l-0.1,0.1c-0.1,0.1,0.2-0.2,0,0c-0.1,0.1-0.2,0.3-0.4,0.4c-0.1,0.1-0.3,0.2,0,0c-0.1,0-0.1,0.1-0.2,0.2
		c-0.5,0.4-1,0.8-1.5,1.2c-0.4,0.4-0.4,1,0,1.5C117.9,75.7,118.6,75.7,118.9,75.3L118.9,75.3z"/>
	<path d="M116,72.8c1.1-0.8,2.1-1.7,3-2.7c0.7-1.1,1.2-2.4,1.5-3.7c0.2-0.5-0.2-1.1-0.7-1.3c-0.5-0.2-1.1,0.2-1.3,0.7
		c-0.2,0.7-0.4,1.4-0.6,2c-0.1,0.3,0.1-0.1,0,0l-0.1,0.2c-0.1,0.1-0.1,0.2-0.2,0.4c-0.1,0.1-0.1,0.2-0.2,0.3c0,0-0.1,0.1-0.1,0.1
		c0,0-0.2,0.2,0,0.1c0.1-0.2,0,0-0.1,0.1l-0.1,0.1c-0.1,0.1-0.2,0.2-0.3,0.3c-0.2,0.2-0.4,0.4-0.6,0.6c-0.5,0.5-1.1,0.9-1.7,1.4
		c-0.4,0.4-0.4,1.1,0,1.5C115,73.1,115.6,73.1,116,72.8L116,72.8z"/>
	<path d="M31.2,79.8c-0.9,1-1.9,1.8-3,2.6c-1.5,1.2-2.9,2.3-4.4,3.4c-3,2.3-6.1,4.6-8.5,7.5c-1,1-1.7,2.3-2,3.6
		c-0.2,1.6,0.2,3.2,1.2,4.5c2.1,3.2,5.5,5.5,8.7,7.6s6.4,3.6,9.6,5.4c1.4,0.8,2.7-0.8,2.1-2.1l-0.3-0.7c-0.4-0.7-1.4-1-2.1-0.6
		c-0.7,0.4-1,1.4-0.6,2.1l0.3,0.7l2.1-2.1c-2.6-1.5-5.3-2.8-7.8-4.3c-3.1-1.8-6.2-3.8-8.6-6.6c-0.4-0.5-0.8-1-1.1-1.6
		c-0.1-0.1-0.2-0.3-0.2-0.4c0.1,0.3,0-0.1-0.1-0.2s-0.1-0.3-0.1-0.4c0-0.1,0-0.1,0-0.2c0-0.2,0,0.3,0,0c0-0.1,0-0.3,0-0.4
		c0-0.1-0.1,0.3,0,0c0-0.1,0.1-0.2,0.1-0.3c0.1-0.4,0,0.1,0-0.1c0.1-0.2,0.3-0.5,0.4-0.7l0.2-0.3l0.2-0.2c-0.1,0.1,0,0,0,0
		c2.2-2.8,5.2-5,8-7.2c1.6-1.3,3.3-2.5,4.9-3.8c1.1-0.8,2.2-1.8,3.2-2.8C34.7,80.5,32.6,78.3,31.2,79.8L31.2,79.8z"/>
	<path d="M36.1,113.1c0.4-0.3,0.8-0.7,1-1.1c0.2-0.3,0.4-0.7,0.6-1.1c0.4-0.8,0.7-1.6,1.1-2.4c0.1-0.3,0.3-0.5,0.4-0.8l-0.2,0.3
		l0-0.1l-0.3,0.2l0,0l-0.4,0.2l0,0l-0.4,0.1l0,0l-0.4-0.1l0,0l-0.4-0.2l0,0l-0.3-0.2l0,0l-0.2-0.3l0,0l-0.2-0.4c0,0,0,0,0,0
		l-0.1-0.4c0,0.1,0,0.3,0,0.4c0,0.4,0.2,0.8,0.5,1.1c0.6,0.6,1.6,0.6,2.2,0l0.2-0.3c0.1-0.2,0.2-0.5,0.2-0.8c0.1-0.3,0.1-0.6,0-0.8
		c-0.2-0.8-1.1-1.3-1.9-1.1c-0.6,0.2-1,0.6-1.3,1.2c-0.5,0.9-0.8,1.9-1.3,2.8c-0.2,0.5-0.5,0.9-0.8,1.4l0.2-0.3
		c-0.1,0.1-0.1,0.2-0.2,0.2l0.3-0.2l0,0c-0.3,0.2-0.6,0.5-0.7,0.9c-0.1,0.4-0.1,0.8,0.2,1.2c0.2,0.3,0.5,0.6,0.9,0.7
		C35.3,113.3,35.7,113.3,36.1,113.1L36.1,113.1z"/>
	<path d="M35.9,115c2-0.3,4-0.6,5.9-1.1c0.8-0.2,1.3-1.1,1.1-1.9c-0.2-0.8-1.1-1.3-1.9-1.1c-1.7,0.4-3.4,0.8-5.1,1l0.4-0.1l-0.4,0.1
		c-0.4,0-0.8,0.2-1.1,0.4c-0.3,0.3-0.4,0.7-0.5,1.1c0,0.4,0.2,0.8,0.5,1.1C35.1,114.9,35.5,115,35.9,115z"/>
	<path d="M33.9,114.6c3,2.3,6.6,3.7,10.3,3.8c0.9,0,1.5-0.7,1.5-1.5s-0.7-1.5-1.5-1.5c-0.7,0-1.4-0.1-2.1-0.2
		c-0.8-0.2-1.6-0.4-2.3-0.7l-0.5-0.2c-0.2-0.1-0.2-0.1-0.1,0l-0.3-0.1c-0.4-0.2-0.7-0.3-1-0.5c-0.4-0.2-0.7-0.4-1-0.6
		c-0.2-0.1-0.3-0.2-0.5-0.3c0,0-0.5-0.4-0.3-0.2c-0.6-0.6-1.6-0.6-2.2,0C33.4,112.9,33.2,114,33.9,114.6L33.9,114.6z"/>
</g>
<g id="Layer_1_1_">
	<g>
		<path class="st7" d="M131.1,4.6H12.2c-4.4,0.1-8,3.7-8,8.2v117.8c-0.1,4.4,3.5,8.1,8,8.2h118.9c4.4-0.1,8-3.7,8-8.1c0,0,0,0,0,0
			V12.7C139.1,8.3,135.6,4.6,131.1,4.6C131.1,4.6,131.1,4.6,131.1,4.6z M133.3,124.6c0.1,4.6-3.6,8.3-8.1,8.4c0,0,0,0,0,0h-107
			c-4.6-0.1-8.2-3.8-8.2-8.4v-106c-0.1-4.6,3.6-8.3,8.2-8.4h107c4.6,0.1,8.2,3.8,8.2,8.4V124.6z"/>
		<path d="M12.2,139.7c-5-0.1-9-4.2-9-9.2V12.7c-0.1-5,4-9.1,9-9.2h118.9c2.4,0,4.7,1,6.4,2.7c1.7,1.7,2.6,4,2.6,6.5v117.8
			c0,2.4-0.9,4.7-2.6,6.4c-1.7,1.7-4,2.7-6.4,2.7H12.2z M12.2,5.6c-3.9,0-7,3.2-6.9,7.1v117.8c0,3.9,3.1,7.1,6.9,7.1h118.9
			c3.9,0,7-3.2,6.9-7.1V12.7c0-1.9-0.7-3.7-2-5c-1.3-1.3-3.1-2.1-4.9-2.1H12.2z M18.2,134c-5.1-0.1-9.3-4.3-9.2-9.4v-106
			c-0.1-5.1,4.1-9.3,9.2-9.4h107c5.1,0.1,9.2,4.3,9.2,9.4v105.9c0,2.5-0.9,4.8-2.6,6.6c-1.7,1.8-4,2.8-6.5,2.8H18.2z M125.2,11.3
			h-107c-4,0-7.2,3.3-7.1,7.3v106c0,4,3.2,7.3,7.2,7.3h107c1.9,0,3.7-0.8,5.1-2.2c1.3-1.4,2.1-3.2,2-5.1v-106
			C132.3,14.6,129.1,11.4,125.2,11.3z"/>
	</g>
</g>
</svg>
