<svg xmlns="http://www.w3.org/2000/svg" xmlns:xlink="http://www.w3.org/1999/xlink" viewBox="0 0 431 190" xmlns:v="https://vecta.io/nano"><style><![CDATA[.I{fill:#4386c6}.J{fill:#f7c402}.K{fill:#000005}.L{fill:#fff}]]></style><path d="M406.6 181.5H24.4c-9.6 0-17.4-7.8-17.4-17.4V25.9c0-9.6 7.8-17.4 17.4-17.4h382.2c9.6 0 17.4 7.8 17.4 17.4v138.2c0 9.6-7.8 17.4-17.4 17.4z" fill="#c2e1e3"/><use xlink:href="#B" class="K"/><use xlink:href="#B"/><path d="M233.8 110c-1.5-5.5-1.5-13.1-1.5-13.1 15-21.1 44.2-43.5 59.4-61 28.6 18.1 53.7 25.4 76.8 44.8 0 0 1 9.5 2.4 13.9-18.1 26.6-38.2 52-59.9 75.8-25.4-18.1-53.7-40.1-77.2-60.4z" fill="#e76969"/><path d="M235.2 109.6c-.8-3.1-1.1-6.2-1.3-9.3-.1-1-.1-1.9-.1-2.9v-.5c-.2.8.2.2.4-.1l.7-1c4-5.3 8.4-10.3 13-15 9.7-10.1 20.1-19.4 30.3-29 5-4.8 10-9.6 14.5-14.8-.6.1-1.2.2-1.8.2 10.3 6.5 21.1 12.1 31.9 17.6 9.8 4.9 19.6 9.8 28.9 15.7 5.5 3.4 10.7 7.2 15.7 11.4-.1-.4-.3-.7-.4-1.1.5 4.7 1 9.7 2.4 14.3.1-.4.1-.8.2-1.2a676.24 676.24 0 0 1-45.8 59.8l-13.9 15.7c.6-.1 1.2-.2 1.8-.2-20.8-14.8-41.1-30.3-60.8-46.6-5.4-4.4-10.7-8.9-16-13.5-1.5-1.3-3.6.9-2.1 2.1 19.5 16.8 39.7 32.8 60.3 48.1l17.2 12.5c.5.4 1.4.2 1.8-.2 19.7-21.6 38.1-44.5 54.9-68.4 1-1.4 2-2.8 2.9-4.2l1.3-1.9c.6-.8 1.4-1.6 1.2-2.7-.2-1-.6-2-.8-2.9-.3-1.2-.5-2.5-.7-3.8-.3-2-.6-4-.8-6 0-.4 0-.8-.1-1.2-.2-.8-1.1-1.3-1.7-1.8-.7-.5-1.3-1.1-2-1.6-10.2-8-21.4-14.4-32.9-20.2-13.8-7.1-27.7-13.8-40.8-22.1-.5-.3-1.4-.3-1.8.2-8.7 10-18.8 18.8-28.5 27.9-10.3 9.4-20.6 19.1-29.2 30.3-.8 1-2.2 2.4-2.3 3.7-.1.9 0 1.8.1 2.7.2 3.6.5 7.2 1.4 10.7.5 1.9 3.4 1.2 2.9-.7z"/><g class="I"><path d="M256.9 57.5l-.2.2c.4-.3.9-.5 1.3-.8.5-.1 1-.1 1.3.2.1.1.1 0-.2-.2-.1-.2-.4-.5-.5-.7l-1.3-1.8c-.8-1.2-1.5-2.5-2.2-3.8-1.3-2.6-2.2-5.3-2.9-8.1-1.3-5.6-1.4-11.5-.1-17.1a3.07 3.07 0 0 0-2.1-3.7c-1.5-.4-3.3.5-3.7 2.1-1.7 7.4-1.5 15.2.7 22.4 1.1 3.6 2.6 7.1 4.5 10.2 1.7 2.8 5.7 9.3 9.5 5.3 2.8-2.7-1.5-7-4.1-4.2h0z"/><path d="M241 30.4c-.9-.3-1.2-.4-.8-.2.1.1.1.1 0 0-.2-.1-.2-.1 0 .1-.1-.1-.1-.2-.2-.2.3.3.5.8.7 1.1l1.5 2.4 3 4.9a2.98 2.98 0 0 0 4.7.6c3-3 5.9-6.1 8.6-9.3 1-1.2 1.3-3.1 0-4.2-1.1-1-3.2-1.3-4.2 0-2.7 3.2-5.6 6.3-8.6 9.3l4.7.6-3.6-5.9c-.6-.9-1.1-1.8-1.7-2.7-1-1.4-2.2-2.2-4-2.4-1.6-.1-3.1 1.5-3 3 0 1.7 1.3 2.8 2.9 2.9h0zm102 85.2c9.4 9 18.3 18.6 26.4 28.7l3.6-4.7c-.4-.2-.3-.1-.1.2-.6-1.5-2-2.6-3.7-2.1-1.4.4-2.7 2.2-2.1 3.7s1.4 2.7 2.9 3.4c3.2 1.4 5.8-2 3.6-4.7-8.2-10.1-17-19.7-26.4-28.7-2.7-2.7-7 1.6-4.2 4.2h0zm32.3 20c3.9 0 3.9-6 0-6-3.8 0-3.8 6 0 6h0z"/><path d="M365.4 144.6c0-.4.1-.9.1-1.3s-.1.5 0-.1c0-.2.1-.5.1-.7.1-.9.3-1.8.5-2.6l.7-2.5c.1-.4.3-.9.4-1.3.1-.2.1-.4.2-.6s0-.1-.1.3c0-.1.1-.2.1-.3.2-.4.1-.2-.1 0 .4-.4-.6.2 0 0-.3.1-.5.2-.1.1.3-.1-.7 0-.1 0h2.7l5.7-.1c1.6 0 3.1-1.4 3-3s-1.3-3-3-3l-6.4.1c-1.1 0-2.2 0-3.3.2-1.4.3-2.6 1.2-3.3 2.4-.6.9-.9 2-1.3 3l-.8 2.8c-.5 2.2-.9 4.4-1.1 6.6-.1 1.6 1.5 3.1 3 3 1.8 0 2.9-1.3 3.1-3h0zm-107.3-28.9l-27.2 11.7 4.4 1.8-4.5-11-5.5 2.3c.1.3.3.7.4 1 .6 1.5 2.8 1.8 4.1 1.1 1.5-.9 1.7-2.6 1.1-4.1-.1-.3-.3-.7-.4-1-.6-1.4-2.5-1.8-3.7-1.2-1.2.5-2.3 2.1-1.7 3.5l4.5 11c.8 1.9 2.5 2.7 4.4 1.8l25.7-11.1c1.5-.6 2.6-2 2.1-3.7-.4-1.4-2.2-2.8-3.7-2.1h0z"/></g><use xlink:href="#C" class="L"/><use xlink:href="#D" class="K"/><use xlink:href="#C" x="-9.2" y="-6.9" class="L"/><use xlink:href="#D" x="-9.2" y="-6.9" class="K"/><use xlink:href="#C" x="-18.4" y="-13.8" class="L"/><use xlink:href="#D" x="-18.4" y="-13.8" class="K"/><path d="M319.2 50.2c-1.7-1-2.2-1.8-4-2.8-.2-.1-.5-.3-.6-.6s0-.6.2-.8c5.6-6.8 10.8-14.7 16.9-21.6l4.6 3.4c-4.5 5.9-13.4 16.1-17.1 22.4z" class="L"/><use xlink:href="#E" class="K"/><path d="M310 43.3c-1.7-1-2.2-1.8-4-2.8-.2-.1-.5-.3-.6-.6s0-.6.2-.8c5.6-6.8 10.8-14.7 16.9-21.6l4.6 3.4c-4.5 5.9-13.3 16.1-17.1 22.4z" class="L"/><use xlink:href="#E" x="-9.2" y="-6.9" class="K"/><path d="M277.5 134.3c1.2 3 1.4 6.4 1.8 9.6l.8 5.3c.3 1.6.8 3 1.3 4.5.3.9.3.9-.3 1.7-.4.7-1.1 1.1-1.5 1.8l-1 1.5-4.2 6.4-3.2 4.9c-1.1 1.6 0 4 1.8 4.4 4.1 1 8.2.7 12.4 1.2 1.6.2 3-1.5 3-3 0-1.8-1.4-2.8-3-3-3.6-.5-7.2-.2-10.8-1l1.8 4.4 7.3-11c.3-.5.7-1.4 1.2-1.7.3-.2-1.1.4-.1.3.4-.1 1.1-1.2 1.2-1.5.9-1.2 1.6-2.5 1.7-4.1.2-2-.9-3.8-1.4-5.7a43.39 43.39 0 0 1-.9-5.2c-.5-3.7-.7-7.8-2-11.4-.6-1.5-2-2.6-3.7-2.1-1.6.4-2.8 2.2-2.2 3.7h0z" class="I"/><path d="M231.9 96.6c14.4-21.1 41.3-55 58-74.1C320.4 41.9 344.2 60 369 81.2c-18.1 26.6-38.2 52-59.9 75.8-25.4-18-53.7-40-77.2-60.4z" fill="#183d3d"/><path d="M233.2 97.4c6.7-9.8 13.9-19.4 21.1-28.8 7.9-10.3 16.1-20.5 24.3-30.5 4-4.9 8.1-9.7 12.2-14.5-.6.1-1.2.2-1.8.2 21.7 13.8 42.7 28.7 62.7 44.9 5.5 4.4 10.8 8.9 16.2 13.5-.1-.6-.2-1.2-.2-1.8a676.24 676.24 0 0 1-45.8 59.8L308 155.9c.6-.1 1.2-.2 1.8-.2-20.8-14.8-41.1-30.3-60.8-46.6-5.4-4.4-10.7-8.9-16-13.5-1.5-1.3-3.6.9-2.1 2.1 19.5 16.8 39.7 32.8 60.3 48.1l17.2 12.5c.5.4 1.4.2 1.8-.2 17-18.6 33-38.2 47.8-58.5L370.4 82c.3-.5.2-1.4-.2-1.8C351 63.8 331 48.2 310.1 34l-19.4-12.7c-.5-.3-1.4-.3-1.8.2a758.71 758.71 0 0 0-22.8 27.6 904.63 904.63 0 0 0-24.2 31.4c-3.8 5.1-7.5 10.3-11.1 15.5-1.3 1.5 1.3 3 2.4 1.4z"/><g class="I"><use xlink:href="#F"/><use xlink:href="#F" x="-6.4" y="8.4"/><path d="M301 38.5c-1.1.1-1.9.4-2.6 1.2-.6.7-.6 1.7-.2 2.5s1.2 1.2 2.1 1.3c.8.1 1.7-.1 2.3-.7s.9-1.6.6-2.3c-.1-.6-1.2-1.8-2.2-2z"/></g><g class="J"><use xlink:href="#G"/><path d="M294.6 45.4c-.8.1-1.6.2-2.3.6s-1.3 1-1.7 1.6c-.9 1.5-.6 3.6.8 4.7 1.4 1.2 3.3 1.4 4.9.7a3.71 3.71 0 0 0 2.1-4.2c-.2-.7-.7-1.4-1.2-1.9-.6-.6-1.4-1.2-2.2-1.4s-1.7.2-1.8 1c-.2.8.2 1.7 1 1.8.1 0 .3.1.4.1-.1-.1-.2-.1-.4-.2.1 0 .2.1.3.2.1 0 .2.2.3.2 0 0-.3-.2-.1-.1l.1.1.3.3c.1.1.1.2.2.2 0 0 .2.2 0 0s0-.1 0 0c.1.1.2.3.3.4-.1-.1-.1-.2-.2-.4.1.1.1.3.1.4 0-.1 0-.3-.1-.4v.6c0-.1 0-.3.1-.4 0 .2-.1.4-.2.6.1-.1.1-.2.2-.4-.1.1-.1.3-.2.4-.1.2.2-.2.1-.1 0 .1-.1.1-.1.2l-.1.1c.2-.1.2-.2.2-.1 0 0-.1 0-.1.1a.76.76 0 0 1-.4.2c.1-.1.2-.1.4-.2-.3.1-.5.2-.8.2.1 0 .3 0 .4-.1h-.8c.1 0 .3 0 .4.1-.3 0-.5-.1-.8-.2.1.1.2.1.4.2-.1-.1-.3-.1-.4-.2-.1 0-.1-.1-.2-.1l.1.1s-.1 0-.1-.1c-.1 0-.1-.1-.2-.2-.2-.2.1.2.1.1a.76.76 0 0 1-.2-.4c.1.1.1.2.2.4-.1-.2-.1-.4-.2-.6 0 .1 0 .3.1.4V49c0 .1 0 .3-.1.4 0-.2.1-.4.2-.6-.1.1-.1.2-.2.4 0-.1.1-.2.1-.2.2-.3-.2.2-.1.1a1.38 1.38 0 0 0 .3-.4c.1 0 .1-.1.2-.1-.3.3-.2.1-.1.1a.76.76 0 0 1 .4-.2c-.1.1-.2.1-.4.2l1-.3c-.1 0-.3 0-.4.1h.4c.4 0 .8-.1 1.1-.4s.5-.7.4-1.1c0-.8-.6-1.7-1.5-1.6z"/></g><use xlink:href="#G" x="-16" y="3.5" class="I"/><g class="J"><use xlink:href="#G" x="-22.4" y="11.9"/><path d="M272.2 57.3c-.8.1-1.6.2-2.3.6s-1.3 1-1.7 1.6c-.9 1.5-.6 3.6.8 4.7 1.4 1.2 3.3 1.4 4.9.7a3.71 3.71 0 0 0 2.1-4.2c-.2-.7-.7-1.4-1.2-1.9-.6-.6-1.4-1.2-2.2-1.4s-1.7.2-1.8 1c-.2.8.2 1.7 1 1.8.1 0 .3.1.4.1-.1-.1-.2-.1-.4-.2.1 0 .2.1.3.2.1 0 .2.2.3.2 0 0-.3-.2-.1-.1l.1.1.3.3c.1.1.1.2.2.2 0 0 .2.2 0 0s0-.1 0 0c.1.1.2.3.3.4-.1-.1-.1-.2-.2-.4.1.1.1.3.1.4 0-.1 0-.3-.1-.4v.6c0-.1 0-.3.1-.4 0 .2-.1.4-.2.6.1-.1.1-.2.2-.4-.1.1-.1.3-.2.4-.1.2.2-.2.1-.1 0 .1-.1.1-.1.2l-.1.1c.2-.1.2-.2.2-.1 0 0-.1 0-.1.1a.76.76 0 0 1-.4.2c.1-.1.2-.1.4-.2-.3.1-.5.2-.8.2.1 0 .3 0 .4-.1h-.8c.1 0 .3 0 .4.1-.3 0-.5-.1-.8-.2.1.1.2.1.4.2-.1-.1-.3-.1-.4-.2-.1 0-.1-.1-.2-.1l.1.1s-.1 0-.1-.1c-.1 0-.1-.1-.2-.2-.2-.2.1.2.1.1a.76.76 0 0 1-.2-.4c.1.1.1.2.2.4-.1-.2-.1-.4-.2-.6 0 .1 0 .3.1.4v-.7c0 .1 0 .3-.1.4 0-.2.1-.4.2-.6-.1.1-.1.2-.2.4 0-.1.1-.2.1-.2.2-.3-.2.2-.1.1a1.38 1.38 0 0 0 .3-.4c.1 0 .1-.1.2-.1-.3.3-.2.1-.1.1a.76.76 0 0 1 .4-.2c-.1.1-.2.1-.4.2l1-.3c-.1 0-.3 0-.4.1h.4c.4 0 .8-.1 1.1-.4s.5-.7.4-1.1c-.1-.8-.7-1.6-1.5-1.6z"/></g><use xlink:href="#G" x="-7.6" y="10" class="I"/><g class="J"><use xlink:href="#G" x="-14" y="18.4"/><path d="M280.6 63.8c-.8.1-1.6.2-2.3.6s-1.3 1-1.7 1.6c-.9 1.5-.6 3.6.8 4.7 1.4 1.2 3.3 1.4 4.9.7a3.71 3.71 0 0 0 2.1-4.2c-.2-.7-.7-1.4-1.2-1.9-.6-.6-1.4-1.2-2.2-1.4s-1.7.2-1.8 1c-.2.8.2 1.7 1 1.8.1 0 .3.1.4.1-.1-.1-.2-.1-.4-.2.1 0 .2.1.3.2.1 0 .2.2.3.2 0 0-.3-.2-.1-.1l.1.1.3.3c.1.1.1.2.2.2 0 0 .2.2 0 0s0-.1 0 0c.1.1.2.3.3.4-.1-.1-.1-.2-.2-.4.1.1.1.3.1.4 0-.1 0-.3-.1-.4v.6c0-.1 0-.3.1-.4 0 .2-.1.4-.2.6.1-.1.1-.2.2-.4-.1.1-.1.3-.2.4-.1.2.2-.2.1-.1 0 .1-.1.1-.1.2l-.1.1c.2-.1.2-.2.2-.1 0 0-.1 0-.1.1a.76.76 0 0 1-.4.2c.1-.1.2-.1.4-.2-.3.1-.5.2-.8.2.1 0 .3 0 .4-.1h-.8c.1 0 .3 0 .4.1-.3 0-.5-.1-.8-.2.1.1.2.1.4.2-.1-.1-.3-.1-.4-.2-.1 0-.1-.1-.2-.1l.1.1s-.1 0-.1-.1c-.1 0-.1-.1-.2-.2-.2-.2.1.2.1.1a.76.76 0 0 1-.2-.4c.1.1.1.2.2.4-.1-.2-.1-.4-.2-.6 0 .1 0 .3.1.4v-.7c0 .1 0 .3-.1.4 0-.2.1-.4.2-.6-.1.1-.1.2-.2.4 0-.1.1-.2.1-.2.2-.3-.2.2-.1.1a1.38 1.38 0 0 0 .3-.4c.1 0 .1-.1.2-.1-.3.3-.2.1-.1.1a.76.76 0 0 1 .4-.2c-.1.1-.2.1-.4.2l1-.3c-.1 0-.3 0-.4.1h.4c.4 0 .8-.1 1.1-.4s.5-.7.4-1.1c0-.9-.7-1.7-1.5-1.6z"/></g><g class="I"><use xlink:href="#G" x="-27.9" y="20.3"/><use xlink:href="#G" x="-19.4" y="26.7"/><use xlink:href="#G" x="-34.7" y="28.7"/><path d="M253.4 84c-1.1.1-1.9.4-2.6 1.2-.6.7-.6 1.7-.2 2.5s1.2 1.2 2.1 1.3c.8.1 1.7-.1 2.3-.7s.9-1.6.6-2.3c-.1-.6-1.1-1.8-2.2-2z"/><use xlink:href="#G" x="-26.3" y="35.1"/></g><g class="J"><use xlink:href="#G" x="-32.7" y="43.5"/><path d="M261.9 88.9c-.8.1-1.6.2-2.3.6s-1.3 1-1.7 1.6c-.9 1.5-.6 3.6.8 4.7 1.4 1.2 3.3 1.4 4.9.7a3.71 3.71 0 0 0 2.1-4.2c-.2-.7-.7-1.4-1.2-1.9-.6-.6-1.4-1.2-2.2-1.4s-1.7.2-1.8 1c-.2.8.2 1.7 1 1.8.1 0 .3.1.4.1-.1-.1-.2-.1-.4-.2.1 0 .2.1.3.2.1 0 .2.2.3.2 0 0-.3-.2-.1-.1l.1.1.3.3c.1.1.1.2.2.2 0 0 .2.2 0 0s0-.1 0 0c.1.1.2.3.3.4-.1-.1-.1-.2-.2-.4.1.1.1.3.1.4 0-.1 0-.3-.1-.4v.6c0-.1 0-.3.1-.4 0 .2-.1.4-.2.6.1-.1.1-.2.2-.4-.1.1-.1.3-.2.4-.1.2.2-.2.1-.1 0 .1-.1.1-.1.2l-.1.1c.2-.1.2-.2.2-.1 0 0-.1 0-.1.1a.76.76 0 0 1-.4.2c.1-.1.2-.1.4-.2-.3.1-.5.2-.8.2.1 0 .3 0 .4-.1h-.8c.1 0 .3 0 .4.1-.3 0-.5-.1-.8-.2.1.1.2.1.4.2-.1-.1-.3-.1-.4-.2-.1 0-.1-.1-.2-.1l.1.1s-.1 0-.1-.1c-.1 0-.1-.1-.2-.2-.2-.2.1.2.1.1a.76.76 0 0 1-.2-.4c.1.1.1.2.2.4-.1-.2-.1-.4-.2-.6 0 .1 0 .3.1.4v-.7c0 .1 0 .3-.1.4 0-.2.1-.4.2-.6-.1.1-.1.2-.2.4 0-.1.1-.2.1-.2.2-.3-.2.2-.1.1a1.38 1.38 0 0 0 .3-.4c.1 0 .1-.1.2-.1-.3.3-.2.1-.1.1a.76.76 0 0 1 .4-.2c-.1.1-.2.1-.4.2l1-.3c-.1 0-.3 0-.4.1h.4c.4 0 .8-.1 1.1-.4s.5-.7.4-1.1c0-.8-.7-1.6-1.5-1.6z"/></g><g class="I"><use xlink:href="#F" x="-46.6" y="61.7"/><use xlink:href="#G" x="-40.2" y="53.3"/><use xlink:href="#H"/><use xlink:href="#I"/><use xlink:href="#J"/><use xlink:href="#J" x="-6.4" y="8.4"/></g><g class="J"><path d="M328.1 59.1c-1.1.1-1.9.3-2.6 1.2-.6.7-.6 1.7-.1 2.5.4.8 1.3 1.3 2.2 1.4.8.1 1.8-.1 2.4-.7s.9-1.6.6-2.3c-.4-.6-1.4-1.9-2.5-2.1z"/><use xlink:href="#K"/><use xlink:href="#J" x="2.3" y="15"/><use xlink:href="#L"/></g><g class="I"><use xlink:href="#H" x="27.5" y="21.3"/><use xlink:href="#I" x="27.5" y="21.3"/><use xlink:href="#J" x="26.4" y="20.1"/></g><g class="J"><use xlink:href="#H" x="29.5" y="36.1"/><path d="M339.4 79.5c-.8.1-1.6.2-2.3.6-.7.3-1.3.9-1.7 1.6-.9 1.5-.6 3.6.7 4.8 1.3 1.1 3.1 1.6 4.7.9.9-.4 1.6-.9 2.1-1.8.4-.8.6-1.8.3-2.7-.2-.7-.7-1.4-1.2-1.9-.6-.6-1.4-1.2-2.2-1.4s-1.7.2-1.8 1c-.2.8.2 1.6 1 1.8.1 0 .3.1.4.1-.1-.1-.2-.1-.4-.2.2.1.5.2.6.4 0-.1-.3-.2-.1-.1l.1.1.3.3c.1.1.2.2.2.3l.1.1-.1-.1c.1.1.2.3.3.5-.1-.1-.1-.2-.2-.4a.9.9 0 0 1 .1.5c0-.1 0-.3-.1-.4v.5c0-.1 0-.3.1-.4 0 .2-.1.4-.2.6.1-.1.1-.2.2-.4-.1.1-.1.2-.2.3 0 0 0 .1-.1.1-.1.1 0 0 .1-.2l-.1.1-.1.1s.3-.2.1-.1c-.1.1-.3.1-.4.2.1-.1.2-.1.4-.2-.2.1-.5.2-.8.2.1 0 .3 0 .4-.1h-.9c.1 0 .3 0 .4.1-.3 0-.5-.1-.8-.2.1.1.2.1.4.2-.1-.1-.3-.1-.4-.2-.1 0-.1-.1-.2-.1l.1.1s-.1 0-.1-.1l-.2-.2c-.2-.2.1.2 0 .1a.76.76 0 0 1-.2-.4c.1.1.1.2.2.4-.1-.2-.1-.4-.2-.7 0 .1 0 .3.1.4V83c0 .1 0 .3-.1.4 0-.2.1-.4.2-.6-.1.1-.1.2-.2.4 0-.1.1-.2.1-.2.2-.3-.2.2-.1.1a1.38 1.38 0 0 0 .3-.4c.1 0 .1-.1.2-.1-.4.3-.2.1-.1.1a.76.76 0 0 1 .4-.2c-.1.1-.2.1-.4.2l1-.3c-.1 0-.3 0-.4.1h.5c.8-.1 1.5-.7 1.5-1.5.1-.8-.5-1.6-1.3-1.5z"/></g><g class="I"><use xlink:href="#J" x="35.1" y="26.8"/><use xlink:href="#M"/></g><g class="J"><use xlink:href="#I" x="-7.6" y="10"/><use xlink:href="#N"/><use xlink:href="#I" x="-14" y="18.4"/><use xlink:href="#N" x="-6.4" y="8.4"/></g><use xlink:href="#M" x="-42.7" y="-16.8" class="I"/><g class="J"><use xlink:href="#M" x="-49.1" y="-8.4"/><use xlink:href="#O"/><use xlink:href="#J" x="-5.3" y="25"/><use xlink:href="#P"/><use xlink:href="#J" x="-11.7" y="33.4"/><use xlink:href="#P" x="-6.4" y="8.4"/><use xlink:href="#Q"/><use xlink:href="#K" x="-4.8" y="25.4"/></g><g class="I"><use xlink:href="#Q" x="-6.4" y="8.4"/><use xlink:href="#I" x="28.3" y="37.7"/><use xlink:href="#I" x="21.9" y="46.1"/><use xlink:href="#H" x="30.6" y="52.7"/><use xlink:href="#I" x="30.6" y="52.7"/><use xlink:href="#J" x="-35.4" y="27.5"/></g><g class="J"><path d="M293.5 87.6c-1.1.1-1.9.3-2.6 1.2-.6.7-.6 1.7-.1 2.5s1.3 1.3 2.2 1.4c.8.1 1.8-.1 2.4-.7s.9-1.6.6-2.3c-.4-.7-1.4-1.9-2.5-2.1z"/><path d="M293.5 86.1c-.8.1-1.6.2-2.3.6-.7.3-1.3.9-1.7 1.6-.9 1.5-.6 3.6.7 4.8 1.3 1.1 3.1 1.6 4.7.9.9-.4 1.6-.9 2.1-1.8.4-.8.6-1.8.3-2.7-.2-.7-.7-1.4-1.2-1.9-.6-.6-1.4-1.2-2.2-1.4s-1.7.2-1.8 1c-.2.8.2 1.6 1 1.8.1 0 .3.1.4.1-.1-.1-.2-.1-.4-.2.2.1.5.2.6.4 0-.1-.3-.2-.1-.1l.1.1.3.3c.1.1.2.2.2.3l.1.1-.1-.1c.1.1.2.3.3.5-.1-.1-.1-.2-.2-.4.1.1.1.3.1.4 0-.1 0-.3-.1-.4v.6c0-.1 0-.3.1-.4 0 .2-.1.4-.2.6.1-.1.1-.2.2-.4-.1.1-.1.2-.2.3 0 0 0 .1-.1.1-.1.1 0 0 .1-.2l-.1.1-.1.1s.3-.2.1-.1c-.1.1-.3.1-.4.2.1-.1.2-.1.4-.2-.2.1-.5.2-.8.2.1 0 .3 0 .4-.1h-.9c.1 0 .3 0 .4.1-.3 0-.5-.1-.8-.2.1.1.2.1.4.2-.1-.1-.3-.1-.4-.2-.1 0-.1-.1-.2-.1l.1.1s-.1 0-.1-.1l-.2-.2c-.2-.2.1.2 0 .1a.76.76 0 0 1-.2-.4c.1.1.1.2.2.4-.1-.2-.1-.4-.2-.7 0 .1 0 .3.1.4v-.6c0 .1 0 .3-.1.4 0-.2.1-.4.2-.6-.1.1-.1.2-.2.4 0-.1.1-.2.1-.2.2-.3-.2.2-.1.1a1.38 1.38 0 0 0 .3-.4c.1 0 .1-.1.2-.1-.4.3-.2.1-.1.1a.76.76 0 0 1 .4-.2c-.1.1-.2.1-.4.2l1-.3c-.1 0-.3 0-.4.1h.5c.8-.1 1.5-.7 1.5-1.5.2-.8-.4-1.6-1.3-1.5zm8.8 8.1c-1.1.1-1.9.3-2.6 1.2-.6.7-.6 1.7-.1 2.5.4.8 1.3 1.3 2.2 1.4.8.1 1.8-.1 2.4-.7s.9-1.6.6-2.3c-.5-.6-1.5-1.8-2.5-2.1z"/><use xlink:href="#O" x="3.3" y="15"/><use xlink:href="#J" x="-7.9" y="48.8"/><use xlink:href="#P" x="-2.6" y="23.8"/><use xlink:href="#J" x="0.5" y="55.2"/><path d="M319.9 106.2c-.8.1-1.6.2-2.3.6-.7.3-1.3.9-1.7 1.6-.9 1.5-.6 3.6.7 4.8 1.3 1.1 3.1 1.6 4.7.9.9-.4 1.6-.9 2.1-1.8.4-.8.6-1.8.3-2.7-.2-.7-.7-1.4-1.2-1.9-.6-.6-1.4-1.2-2.2-1.4s-1.7.2-1.8 1c-.2.8.2 1.6 1 1.8.1 0 .3.1.4.1-.1-.1-.2-.1-.4-.2.2.1.5.2.6.4 0-.1-.3-.2-.1-.1l.1.1.3.3c.1.1.2.2.2.3l.1.1-.1-.1c.1.1.2.3.3.5-.1-.1-.1-.2-.2-.4.1.1.1.3.1.4 0-.1 0-.3-.1-.4v.6c0-.1 0-.3.1-.4 0 .2-.1.4-.2.6.1-.1.1-.2.2-.4-.1.1-.1.2-.2.3 0 0 0 .1-.1.1-.1.1 0 0 .1-.2l-.1.1-.1.1s.3-.2.1-.1c-.1.1-.3.1-.4.2.1-.1.2-.1.4-.2-.2.1-.5.2-.8.2.1 0 .3 0 .4-.1h-.9c.1 0 .3 0 .4.1-.3 0-.5-.1-.8-.2.1.1.2.1.4.2-.1-.1-.3-.1-.4-.2-.1 0-.1-.1-.2-.1l.1.1s-.1 0-.1-.1l-.2-.2c-.2-.2.1.2 0 .1a.76.76 0 0 1-.2-.4c.1.1.1.2.2.4-.1-.2-.1-.4-.2-.7 0 .1 0 .3.1.4v-.6c0 .1 0 .3-.1.4 0-.2.1-.4.2-.6-.1.1-.1.2-.2.4 0-.1.1-.2.1-.2.2-.3-.2.2-.1.1a1.38 1.38 0 0 0 .3-.4c.1 0 .1-.1.2-.1-.4.3-.2.1-.1.1a.76.76 0 0 1 .4-.2c-.1.1-.2.1-.4.2l1-.3c-.1 0-.3 0-.4.1h.5c.8-.1 1.5-.7 1.5-1.5.2-.8-.5-1.5-1.3-1.5z"/><use xlink:href="#J" x="9.2" y="61.9"/><use xlink:href="#N" x="32.8" y="51.1"/><use xlink:href="#I" x="-26.3" y="35.1"/><use xlink:href="#L" x="-44.6" y="20.9"/></g><use xlink:href="#J" x="-48.7" y="44.3" class="I"/><g class="J"><use xlink:href="#J" x="-32.7" y="43.5"/><path d="M286.7 94.5c-.8.1-1.6.2-2.3.6-.7.3-1.3.9-1.7 1.6-.9 1.5-.6 3.6.7 4.8 1.3 1.1 3.1 1.6 4.7.9.9-.4 1.6-.9 2.1-1.8.4-.8.6-1.8.3-2.7-.2-.7-.7-1.4-1.2-1.9-.6-.6-1.4-1.2-2.2-1.4s-1.7.2-1.8 1c-.2.8.2 1.6 1 1.8.1 0 .3.1.4.1-.1-.1-.2-.1-.4-.2.2.1.5.2.6.4 0-.1-.3-.2-.1-.1l.1.1.3.3c.1.1.2.2.2.3l.1.1-.1-.1c.1.1.2.3.3.5-.1-.1-.1-.2-.2-.4a.9.9 0 0 1 .1.5c0-.1 0-.3-.1-.4v.5c0-.1 0-.3.1-.4 0 .2-.1.4-.2.6.1-.1.1-.2.2-.4-.1.1-.1.2-.2.3 0 0 0 .1-.1.1-.1.1 0 0 .1-.2l-.1.1-.1.1s.3-.2.1-.1c-.1.1-.3.1-.4.2.1-.1.2-.1.4-.2-.2.1-.5.2-.8.2.1 0 .3 0 .4-.1h-.9c.1 0 .3 0 .4.1-.3 0-.5-.1-.8-.2.1.1.2.1.4.2-.1-.1-.3-.1-.4-.2-.1 0-.1-.1-.2-.1l.1.1s-.1 0-.1-.1l-.2-.2c-.2-.2.1.2 0 .1a.76.76 0 0 1-.2-.4c.1.1.1.2.2.4-.1-.2-.1-.4-.2-.7 0 .1 0 .3.1.4V98c0 .1 0 .3-.1.4 0-.2.1-.4.2-.6-.1.1-.1.2-.2.4 0-.1.1-.2.1-.2.2-.3-.2.2-.1.1a1.38 1.38 0 0 0 .3-.4c.1 0 .1-.1.2-.1-.4.3-.2.1-.1.1a.76.76 0 0 1 .4-.2c-.1.1-.2.1-.4.2l1-.3c-.1 0-.3 0-.4.1h.5c.8-.1 1.5-.7 1.5-1.5.1-.8-.5-1.6-1.3-1.5z"/><use xlink:href="#J" x="-39.1" y="51.9"/><path d="M280.3 102.9c-.8.1-1.6.2-2.3.6-.7.3-1.3.9-1.7 1.6-.9 1.5-.6 3.6.7 4.8 1.3 1.1 3.1 1.6 4.7.9.9-.4 1.6-.9 2.1-1.8.4-.8.6-1.8.3-2.7-.2-.7-.7-1.4-1.2-1.9-.6-.6-1.4-1.2-2.2-1.4s-1.7.2-1.8 1c-.2.8.2 1.6 1 1.8.1 0 .3.1.4.1-.1-.1-.2-.1-.4-.2.2.1.5.2.6.4 0-.1-.3-.2-.1-.1l.1.1.3.3c.1.1.2.2.2.3l.1.1-.1-.1c.1.1.2.3.3.5-.1-.1-.1-.2-.2-.4a.9.9 0 0 1 .1.5c0-.1 0-.3-.1-.4v.5c0-.1 0-.3.1-.4 0 .2-.1.4-.2.6.1-.1.1-.2.2-.4-.1.1-.1.2-.2.3 0 0 0 .1-.1.1-.1.1 0 0 .1-.2l-.1.1-.1.1s.3-.2.1-.1c-.1.1-.3.1-.4.2.1-.1.2-.1.4-.2-.2.1-.5.2-.8.2.1 0 .3 0 .4-.1h-.9c.1 0 .3 0 .4.1-.3 0-.5-.1-.8-.2.1.1.2.1.4.2-.1-.1-.3-.1-.4-.2-.1 0-.1-.1-.2-.1l.1.1s-.1 0-.1-.1l-.2-.2c-.2-.2.1.2 0 .1a.76.76 0 0 1-.2-.4c.1.1.1.2.2.4-.1-.2-.1-.4-.2-.7 0 .1 0 .3.1.4v-.6c0 .1 0 .3-.1.4 0-.2.1-.4.2-.6-.1.1-.1.2-.2.4 0-.1.1-.2.1-.2.2-.3-.2.2-.1.1a1.38 1.38 0 0 0 .3-.4c.1 0 .1-.1.2-.1-.4.3-.2.1-.1.1a.76.76 0 0 1 .4-.2c-.1.1-.2.1-.4.2l1-.3c-.1 0-.3 0-.4.1h.5c.8-.1 1.5-.7 1.5-1.5.1-.8-.5-1.6-1.3-1.5z"/></g><g class="I"><use xlink:href="#M" x="-52.7" y="15"/><use xlink:href="#M" x="-59.1" y="23.4"/></g><g class="J"><use xlink:href="#I" x="1.2" y="56.4"/><use xlink:href="#N" x="8.8" y="46.4"/></g><g class="I"><use xlink:href="#J" x="-21.2" y="65.6"/><use xlink:href="#I" x="9.6" y="62.8"/></g><g class="J"><use xlink:href="#I" x="3.2" y="71.2"/><use xlink:href="#L" x="-15.1" y="57"/></g><g class="I"><use xlink:href="#H" x="11.9" y="77.9"/><use xlink:href="#I" x="11.9" y="77.9"/><use xlink:href="#I" x="-40.2" y="53.3"/></g><g class="J"><path d="M272.8 114.2c-1.1.1-1.9.3-2.6 1.2-.6.7-.6 1.7-.1 2.5s1.3 1.3 2.2 1.4c.8.1 1.8-.1 2.4-.7s.9-1.6.6-2.3c-.4-.7-1.5-1.9-2.5-2.1z"/><path d="M272.8 112.7c-.8.1-1.6.2-2.3.6-.7.3-1.3.9-1.7 1.6-.9 1.5-.6 3.6.7 4.8 1.3 1.1 3.1 1.6 4.7.9.9-.4 1.6-.9 2.1-1.8.4-.8.6-1.8.3-2.7-.2-.7-.7-1.4-1.2-1.9-.6-.6-1.4-1.2-2.2-1.4s-1.7.2-1.8 1c-.2.8.2 1.6 1 1.8.1 0 .3.1.4.1-.1-.1-.2-.1-.4-.2.2.1.5.2.6.4 0-.1-.3-.2-.1-.1l.1.1.3.3c.1.1.2.2.2.3l.1.1-.1-.1c.1.1.2.3.3.5-.1-.1-.1-.2-.2-.4.1.1.1.3.1.4 0-.1 0-.3-.1-.4v.6c0-.1 0-.3.1-.4 0 .2-.1.4-.2.6.1-.1.1-.2.2-.4-.1.1-.1.2-.2.3 0 0 0 .1-.1.1-.1.1 0 0 .1-.2l-.1.1-.1.1s.3-.2.1-.1c-.1.1-.3.1-.4.2.1-.1.2-.1.4-.2-.2.1-.5.2-.8.2.1 0 .3 0 .4-.1h-.9c.1 0 .3 0 .4.1-.3 0-.5-.1-.8-.2.1.1.2.1.4.2-.1-.1-.3-.1-.4-.2-.1 0-.1-.1-.2-.1l.1.1s-.1 0-.1-.1l-.2-.2c-.2-.2.1.2 0 .1a.76.76 0 0 1-.2-.4c.1.1.1.2.2.4-.1-.2-.1-.4-.2-.7 0 .1 0 .3.1.4v-.6c0 .1 0 .3-.1.4 0-.2.1-.4.2-.6-.1.1-.1.2-.2.4 0-.1.1-.2.1-.2.2-.3-.2.2-.1.1a1.38 1.38 0 0 0 .3-.4c.1 0 .1-.1.2-.1-.4.3-.2.1-.1.1a.76.76 0 0 1 .4-.2c-.1.1-.2.1-.4.2l1-.3c-.1 0-.3 0-.4.1h.5c.8-.1 1.5-.7 1.5-1.5.2-.8-.5-1.6-1.3-1.5z"/></g><g class="I"><use xlink:href="#I" x="-21.9" y="67.5"/><use xlink:href="#H" x="-19.1" y="83"/><use xlink:href="#H" x="-10.7" y="89.4"/><use xlink:href="#M" x="-40.2" y="53.3"/></g><path d="M312.3 168c-.8-3.6-1.2-7.2-1.2-10.9 0-1.7-2.4-2-2.9-.4-.1.2-.1.3-.2.5-.3.8.3 1.6 1 1.8.8.2 1.6-.3 1.8-1 .1-.2.1-.3.2-.5-1-.1-2-.3-2.9-.4 0 3.9.5 7.9 1.3 11.7.2.8 1.1 1.3 1.8 1 .9-.1 1.3-1 1.1-1.8h0z"/><path d="M197.7 82.2c-12.3 20.3-26.9 55.2-42.5 75.7 0 0-8.6 1-11.3 1.6-31.6-17.7-56.4-34.4-82.3-54.2 16.6-27.6 35.3-54 55.7-79 2.6-.7 9.7-2.6 11.2-1.7 25.2 16 46 39.7 69.2 57.6z" fill="#e76969"/><path d="M196.4 81.5c-5.6 9.3-10.5 19.1-15.4 28.8-5.4 10.6-10.8 21.2-16.9 31.4-3.1 5.3-6.5 10.5-10.2 15.4.4-.2.9-.5 1.3-.7-3.9.4-7.9.8-11.7 1.6.4.1.8.1 1.2.2-22.6-12.6-44.4-26.5-65.4-41.6-5.7-4.1-11.3-8.3-16.9-12.6.2.7.4 1.4.5 2.1C77.2 82.3 93 59.4 110.1 37.6l6.4-8.1c.5-.6.9-1.3 1.5-1.8-.2.2-.1 0 .1-.1s.4-.1.6-.1c1.1-.3 2.3-.6 3.4-.8 1.6-.4 4.1-1.1 5.6-.7.3.1.1 0 0 0 .4.2.7.5 1.1.7l1.8 1.2c1.4 1 2.9 1.9 4.3 2.9 10.4 7.4 20 15.9 29.5 24.5 10.6 9.6 21 19.3 32.2 28.1.6.5 1.5.6 2.1 0 .5-.5.6-1.6 0-2.1C177.9 65.2 160 45.7 138.8 30c-2.5-1.9-5.1-3.7-7.8-5.4-.9-.6-1.8-1.3-2.9-1.5-1-.2-2-.1-3.1.1-2.3.3-4.7.9-6.9 1.5-.4.1-.8.2-1.1.3-.8.3-1.2.9-1.7 1.5-1.1 1.3-2.2 2.7-3.2 4-8.9 11.1-17.4 22.5-25.6 34.1-9.2 13.1-17.9 26.4-26.1 40.1-.5.8-.1 1.6.5 2.1 23.1 17.7 47.2 34 72.3 48.6l4.9 2.8c.8.5 1.7.9 2.5 1.4.9.5 1.9 1.3 2.9 1.6.9.2 2-.2 2.9-.4 1.2-.2 2.4-.3 3.6-.5 1.7-.2 3.4-.3 5.1-.6 1.2-.2 1.7-1.2 2.4-2.1.9-1.2 1.8-2.5 2.6-3.7 7.4-10.8 13.4-22.4 19.4-33.9 6.3-12.3 12.3-24.9 19.5-36.7 1-2-1.6-3.5-2.6-1.8z"/><g class="I"><path d="M176.2 124.1l1.2 24.7.3 5.9c.1 2.1-.2 4.8 1.3 6.5 1.4 1.5 3.6 1.4 5.5 1.6l6.4.5c1.6.1 3-1.4 3-3 0-1.7-1.4-2.9-3-3l-5.4-.4-2.7-.3c-1.8-.2 1.2.8 1 1.1.1-.1 0-.8 0-1l-.5-10.9-1.1-21.8c-.1-1.6-1.3-3-3-3-1.6.1-3.1 1.5-3 3.1h0z"/><path d="M179.2 162l4.5 5.9c.2.3.4.6.8.8.3.3.6.4 1 .5.7.2 1.7.1 2.3-.3s1.2-1 1.4-1.8c.2-.7.2-1.7-.3-2.3l-4.5-5.9c-.2-.3-.4-.6-.8-.8-.3-.3-.6-.4-1-.5-.7-.2-1.7-.1-2.3.3s-1.2 1-1.4 1.8-.2 1.7.3 2.3h0z"/><path d="M185.1 158.8l6-2.9c.6-.3 1.2-1.1 1.4-1.8s.1-1.7-.3-2.3-1-1.2-1.8-1.4c-.3 0-.5-.1-.8-.1-.5 0-1 .1-1.5.4l-6 2.9c-.6.3-1.2 1.1-1.4 1.8s-.1 1.7.3 2.3 1 1.2 1.8 1.4c.3 0 .5.1.8.1.5 0 1-.1 1.5-.4h0zM95.3 64.1L69.8 48c-3.3-2.1-6.3 3.1-3 5.2l25.5 16.1c3.2 2.1 6.2-3.1 3-5.2h0z"/><path d="M63.8 58.8h12c1.9 0 3.5-1.9 2.9-3.8-.3-.8-.5-1.6-.7-2.4l-.3-1.3c0-.2-.1-.4-.1-.6 0-.1-.1-.9-.1-.4.1.5 0-.2 0-.3 0-.2 0-.5-.1-.7 0-.4-.1-.8-.1-1.2v-2.6c.1-1.6-1.4-3.1-3-3-1.7.1-2.9 1.3-3 3-.2 3.7.3 7.5 1.5 11.1l2.9-3.8h-12c-1.6 0-3.1 1.4-3 3 .2 1.6 1.4 3 3.1 3h0zm121 2.1c6-5.1 11.9-10.2 17.7-15.5h-4.2l9.4 11.6 4.2-4.2c-.3-.4-.6-.7-.9-1.1-1-1.2-3.2-1.1-4.2 0-1.2 1.2-1 3 0 4.2.3.4.6.7.9 1.1 1 1.2 3.2 1.1 4.2 0 1.2-1.2 1-3 0-4.2l-9.4-11.6c-1.1-1.3-3.1-1-4.2 0-5.8 5.3-11.7 10.5-17.7 15.5-1.2 1-1.1 3.2 0 4.2 1.1 1.3 2.9 1.1 4.2 0h0zm-20.4-16.5l.9-20.1c.1-1.2-1-2.7-2.2-2.9-2.1-.4-4.3-.5-6.5-.5-1.9 0-3.9.1-5.6-.2-1.6-.3-3.2.4-3.7 2.1-.4 1.4.5 3.4 2.1 3.7 2.1.4 4.3.5 6.5.5 1.9 0 3.9-.1 5.6.2l-2.2-2.9-.9 20.1c-.1 1.6 1.4 3 3 3 1.7 0 2.9-1.4 3-3h0z"/></g><use xlink:href="#R" class="L"/><use xlink:href="#S" class="K"/><path d="M105.4 118.8c1.8.9 2.3 1.7 4.1 2.6.2.1.5.3.6.5.1.3 0 .6-.2.8-5.2 7.1-9.9 15.3-15.7 22.5l-4.8-3.2c4.3-6.1 12.6-16.7 16-23.2z" class="L"/><path d="M104.7 120.1c1 .5 1.8 1.2 2.8 1.8l.8.5c.1.1.2.1.4.2.3.3.4.1.1-.6-.1 0-1.1 1.5-1.2 1.6l-4.6 6.8c-3.1 4.7-6.2 9.4-9.6 13.8.6-.1 1.2-.2 1.8-.2l-4.8-3.2c.2.7.4 1.4.5 2.1 5.3-7.7 11.5-15 15.9-23.3.9-1.7-1.7-3.2-2.6-1.5-4.4 8.3-10.6 15.6-15.9 23.3-.5.7-.1 1.6.5 2.1l4.8 3.2c.5.3 1.4.3 1.8-.2 4.1-5.2 7.6-10.7 11.2-16.1.9-1.3 1.7-2.6 2.6-3.9.8-1.1 2.2-2.4 2.4-3.7.3-1.6-.9-2.2-2.1-2.9s-2.2-1.5-3.4-2.2c-1.6-1.1-3.2 1.5-1.4 2.4z" class="K"/><path d="M115 125.1c1.8.9 2.3 1.7 4.1 2.6.2.1.5.3.6.5.1.3 0 .6-.2.8-5.2 7.1-9.9 15.3-15.7 22.5l-4.8-3.2c4.2-6 12.5-16.6 16-23.2z" class="L"/><use xlink:href="#S" x="19.1" y="12.7" class="K"/><path d="M124.5 131.5c1.8.9 2.3 1.7 4.1 2.6.2.1.5.3.6.5.1.3 0 .6-.2.8-5.2 7.1-9.9 15.3-15.7 22.5l-4.8-3.2c4.3-6 12.6-16.6 16-23.2z" class="L"/><path d="M123.7 132.8c1 .5 1.8 1.2 2.8 1.8l.8.5c.1.1.2.1.4.2.3.3.4.1.1-.6-.1 0-1.1 1.5-1.1 1.6l-4.6 6.8c-3.1 4.7-6.2 9.4-9.6 13.8.6-.1 1.2-.2 1.8-.2l-4.8-3.2c.2.7.4 1.4.5 2.1 5.3-7.7 11.5-15 15.9-23.3.9-1.7-1.7-3.2-2.6-1.5-4.4 8.3-10.6 15.6-15.9 23.3-.5.7-.1 1.6.5 2.1l4.8 3.2c.5.3 1.4.3 1.8-.2 4.1-5.2 7.6-10.7 11.2-16.1.9-1.3 1.7-2.6 2.6-3.9.8-1.1 2.2-2.4 2.4-3.7.3-1.6-.9-2.2-2.1-2.9s-2.2-1.5-3.4-2.2c-1.6-1.1-3.2 1.5-1.5 2.4z" class="K"/><use xlink:href="#R" x="38.2" y="25.5" class="L"/><use xlink:href="#S" x="38.2" y="25.5" class="K"/><path d="M209.1 80.3c-13.2 21.8-38.2 57.2-53.8 77.2-31.6-17.7-56.4-34.4-82.3-54.2 16.6-27.6 35.3-54 55.7-79 26.3 16.6 55.8 37 80.4 56z" fill="#183d3d"/><path d="M207.8 79.6c-6.2 10.2-12.8 20.1-19.5 29.9l-22.6 31.9c-3.7 5.1-7.5 10.2-11.4 15.1.6-.1 1.2-.2 1.8-.2-22.6-12.6-44.4-26.5-65.4-41.6-5.7-4.1-11.3-8.3-16.9-12.6.2.7.4 1.4.5 2.1 12.9-21.4 27-42.2 42.3-62 4.3-5.6 8.7-11.2 13.2-16.6-.6.1-1.2.2-1.8.2 21.6 13.6 42.7 28 63.3 43.1l16.8 12.6c.6.5 1.5.6 2.1 0 .5-.5.6-1.6 0-2.1-20.4-15.7-41.4-30.6-62.9-44.7l-17.8-11.5c-.5-.3-1.4-.3-1.8.2-15.9 19.5-30.8 39.9-44.5 61a562.47 562.47 0 0 0-11.4 18.3c-.5.8-.1 1.6.5 2.1 20 15.3 40.8 29.7 62.4 42.7l19.8 11.5c.5.3 1.4.3 1.8-.2 7.3-9.4 14.4-19.1 21.3-28.8 7.7-10.8 15.2-21.6 22.5-32.7a544.32 544.32 0 0 0 10.2-16.1c1.1-1.8-1.5-3.3-2.5-1.6z"/><g class="I"><use xlink:href="#T"/><use xlink:href="#U"/><path d="M143.2 142.2c1.1-.1 1.8-.5 2.5-1.4.5-.7.5-1.7 0-2.5-.5-.7-1.3-1.2-2.2-1.2-.8-.1-1.7.2-2.3.9-.6.6-.8 1.6-.5 2.3.5.6 1.5 1.7 2.5 1.9z"/></g><g class="J"><use xlink:href="#T" x="-2.8" y="-14.7"/><path d="M149.6 134.9c1.4-.2 2.8-1 3.5-2.3.4-.8.6-1.8.3-2.7-.2-.9-.8-1.6-1.5-2.2-1.3-1-3.2-1-4.7-.3-1.5.8-2.5 2.7-2 4.4.2.7.7 1.4 1.3 1.9.6.6 1.4 1.1 2.2 1.2.4.1.8.1 1.2-.2.3-.2.6-.5.7-.9.2-.7-.2-1.7-1-1.8-.2 0-.4-.1-.5-.2.1.1.2.1.4.2l-.6-.3c-.1-.1-.2-.2.1.1l-.1-.1c-.1-.1-.2-.2-.3-.2l-.2-.2-.1-.1c-.1-.1.1.2.1.2a1.38 1.38 0 0 0-.3-.4c.1.1.1.2.2.4-.1-.2-.1-.3-.1-.5 0 .1 0 .3.1.4v-.5c0 .1 0 .3-.1.4 0-.2.1-.4.2-.6-.1.1-.1.2-.2.4.1-.1.1-.3.2-.4.1-.2-.2.2-.1.1l.2-.2.1-.1c-.2.1-.2.2-.2.1 0 0 .1 0 .1-.1a.76.76 0 0 1 .4-.2c-.1.1-.2.1-.4.2.3-.1.5-.2.8-.2-.1 0-.3 0-.4.1h.8c-.1 0-.3 0-.4-.1.3 0 .5.1.7.2-.1-.1-.2-.1-.4-.2.1.1.3.1.4.2.1 0 .1.1.2.1-.4-.2-.2-.1-.1 0l.2.2c.2.2-.2-.3-.1-.1a.76.76 0 0 1 .2.4c-.1-.1-.1-.2-.2-.4.1.2.1.4.2.6 0-.1 0-.3-.1-.4v.6c0-.1 0-.3.1-.4 0 .2-.1.4-.2.6.1-.1.1-.2.2-.4-.1.2-.2.3-.3.5l.1-.1-.1.1-.2.2c-.1.1-.3.2.1 0-.1 0-.1.1-.2.1a.76.76 0 0 1-.4.2c.1-.1.2-.1.4-.2l-1.2.3c-.3 0-.7.4-.9.7a1.64 1.64 0 0 0-.2 1.2 1.27 1.27 0 0 0 .7.9l1.4-.2z"/></g><g class="I"><use xlink:href="#T" x="13" y="-19.1"/><path d="M171 120.3c1.1-.1 1.8-.5 2.5-1.4.5-.7.5-1.7 0-2.5-.5-.7-1.3-1.2-2.2-1.2-.8-.1-1.7.2-2.3.9-.6.6-.8 1.6-.5 2.3.4.7 1.4 1.8 2.5 1.9z"/><use xlink:href="#T" x="4.2" y="-25.1"/><use xlink:href="#U" x="4.2" y="-25.1"/><use xlink:href="#T" x="23.9" y="-36.5"/><use xlink:href="#V"/><use xlink:href="#V" x="15.2" y="-2.8"/><use xlink:href="#W"/><use xlink:href="#U" x="15.5" y="-42.5"/></g><g class="J"><use xlink:href="#W" x="-8.8" y="-6"/><path d="M179.9 89.6c1.4-.2 2.8-1 3.5-2.3.4-.8.6-1.8.3-2.7-.2-.9-.8-1.6-1.5-2.2-1.3-1-3.2-1-4.7-.3-1.5.8-2.5 2.7-2 4.4.2.7.7 1.4 1.3 1.9.6.6 1.4 1.1 2.2 1.2.4.1.8.1 1.2-.2.3-.2.6-.5.7-.9.2-.7-.2-1.7-1-1.8-.2 0-.4-.1-.5-.2.1.1.2.1.4.2l-.6-.3c-.1-.1-.2-.2.1.1l-.1-.1c-.1-.1-.2-.2-.3-.2l-.2-.2-.1-.1c-.1-.1.1.2.1.2-.1-.2-.2-.3-.3-.4.1.1.1.2.2.4-.1-.2-.1-.3-.1-.5 0 .1 0 .3.1.4v-.5c0 .1 0 .3-.1.4 0-.2.1-.4.2-.6-.1.1-.1.2-.2.4.1-.1.1-.3.2-.4.1-.2-.2.2-.1.1l.2-.2.1-.1c-.2.1-.2.2-.2.1 0 0 .1 0 .1-.1a.76.76 0 0 1 .4-.2c-.1.1-.2.1-.4.2.3-.1.5-.2.8-.2-.1 0-.3 0-.4.1h.8c-.1 0-.3 0-.4-.1.3 0 .5.1.7.2-.1-.1-.2-.1-.4-.2.1.1.3.1.4.2.1 0 .1.1.2.1-.4-.2-.2-.1-.1 0l.2.2c.2.2-.2-.3-.1-.1a.76.76 0 0 1 .2.4c-.1-.1-.1-.2-.2-.4.1.2.1.4.2.6 0-.1 0-.3-.1-.4v.6c0-.1 0-.3.1-.4 0 .2-.1.4-.2.6.1-.1.1-.2.2-.4-.1.2-.2.3-.3.5l.1-.1-.1.1-.2.2c-.1.1-.3.2.1 0-.1 0-.1.1-.2.1a.76.76 0 0 1-.4.2c.1-.1.2-.1.4-.2l-1.2.3c-.3 0-.7.4-.9.7a1.64 1.64 0 0 0-.2 1.2 1.27 1.27 0 0 0 .7.9l1.4-.2z"/></g><g class="I"><use xlink:href="#W" x="6.9" y="-10.2"/><use xlink:href="#U" x="28.4" y="-61.4"/></g><g class="J"><use xlink:href="#X"/><use xlink:href="#Y"/><use xlink:href="#Z"/><use xlink:href="#a"/><use xlink:href="#Z" x="-15.9" y="1.7"/><use xlink:href="#a" x="-15.9" y="1.7"/></g><use xlink:href="#b" class="I"/><g class="J"><use xlink:href="#X" x="-19" y="-13.2"/><use xlink:href="#Y" x="-19" y="-13.2"/></g><use xlink:href="#c" class="I"/><g class="J"><use xlink:href="#X" x="-28.6" y="-19.7"/><use xlink:href="#a" x="-34.5" y="-11"/></g><g class="I"><use xlink:href="#b" x="-18.7" y="-12.7"/><use xlink:href="#d"/></g><g class="J"><use xlink:href="#Z" x="-37.4" y="-25.7"/><path d="M102.6 103.4c.8-.1 1.6-.2 2.3-.6s1.3-1 1.6-1.6c.9-1.6.5-3.6-.9-4.8s-3.4-1.4-5.1-.6c-1.5.7-2.5 2.7-1.9 4.4.3.7.7 1.4 1.3 1.9.6.6 1.4 1.1 2.3 1.3.4.1.8.1 1.2-.2.3-.2.6-.5.7-.9.2-.7-.2-1.7-1-1.8-.1 0-.4 0-.5-.1.1 0 .2.1.2.1s-.1 0-.1-.1c-.1 0-.1-.1-.2-.1s-.1-.1-.2-.1c0 0-.3-.2-.1-.1.2.2 0 0-.1-.1-.1 0-.1-.1-.2-.1l-.3-.3c0-.1-.1-.1-.1-.2-.1-.1.3.4.1.1-.1-.1-.1-.2-.1-.2.1.2.1.3.1.2v-.1c0-.1 0-.2-.1-.3 0 .1 0 .3.1.4V99c0 .1 0 .3-.1.4 0-.1 0-.2.1-.4 0-.1.1-.3 0 0s0 0 0 0 0-.1.1-.1c0 0 .2-.2 0 0s0 0 0 0l.1-.1c.1-.1.2-.1-.1.1l.1-.1c.1-.1.2-.2.3-.2-.1 0-.3.1-.1.1.1 0 .1 0 .2-.1.1 0 .3-.1.4-.1-.1 0-.3 0-.4.1h.9c-.1 0-.3 0-.4-.1.1 0 .3 0 .4.1.1 0 .2 0 .2.1.1 0 .3.1 0 0-.2-.1 0 0 0 0 .1 0 .1.1.2.1s.1.1.2.1c.2.1-.3-.2-.1 0l.3.3c0-.1-.2-.3-.1-.1 0 .1.1.1.1.2.1.2 0 .2 0-.1 0 .1 0 .1.1.2 0 .1.1.3.1.4 0-.1 0-.3-.1-.4v.6c0-.1 0-.3.1-.4 0 .1-.1.3-.1.4.1-.2.1-.3.1-.2v.1c0 .1-.1.1-.1.2-.2.2.2-.3 0-.1 0 .1-.1.1-.1.2 0 0-.1.1-.2.1-.3.2.2-.1.1 0s-.2.1-.3.2c-.1 0-.3.1 0 0s0 0 0 0c-.3.1-.6.2-.9.2.1 0 .3 0 .4-.1h-.2c-.4 0-.8.1-1.1.4s-.5.7-.4 1.1c0 .4.1.8.4 1.1.2 0 .6.2.9.2z"/></g><g class="I"><use xlink:href="#Z" x="-52.4" y="-23.1"/><use xlink:href="#b" x="-36.5" y="-24.8"/><use xlink:href="#X" x="13" y="-19.1"/><use xlink:href="#Z" x="13" y="-19.1"/></g><g class="J"><use xlink:href="#Z" x="-2.9" y="-17.4"/><use xlink:href="#a" x="-2.9" y="-17.4"/></g><g class="I"><use xlink:href="#b" x="13" y="-19.1"/><use xlink:href="#X" x="-6" y="-32.3"/></g><g class="J"><use xlink:href="#X" x="-0.1" y="-41"/><use xlink:href="#a" x="-6" y="-32.3"/></g><g class="I"><use xlink:href="#Z" x="-21.6" y="-30.1"/><use xlink:href="#b" x="-5.7" y="-31.8"/><use xlink:href="#b" x="-20.4" y="-29"/><use xlink:href="#Z" x="-24.4" y="-44.8"/></g><g class="J"><use xlink:href="#e"/><path d="M100.6 86.9c.8-.1 1.6-.2 2.3-.6s1.3-1 1.6-1.6c.9-1.6.5-3.6-.9-4.8s-3.4-1.4-5.1-.6c-1.5.7-2.4 2.7-1.9 4.3.3.7.7 1.4 1.3 1.9.6.6 1.4 1.1 2.3 1.3.4.1.8.1 1.2-.2.3-.2.6-.5.7-.9.2-.7-.2-1.7-1-1.8-.1 0-.4 0-.5-.1.1 0 .2.1.2.1s-.1 0-.1-.1c-.1 0-.1-.1-.2-.1s-.1-.1-.2-.1c0 0-.3-.2-.1-.1.2.2 0 0-.1-.1-.1 0-.1-.1-.2-.1l-.3-.3c0-.1-.1-.1-.1-.2-.1-.1.3.4.1.1-.1-.1-.1-.2-.1-.2.1.2.1.3.1.2v-.1c0-.1 0-.2-.1-.3 0 .1 0 .3.1.4v-.5c0 .1 0 .3-.1.4 0-.1 0-.2.1-.4 0-.1.1-.3 0 0s0 0 0 0 0-.1.1-.1c0 0 .2-.2 0 0s0 0 0 0l.1-.1c.1-.1.2-.1-.1.1l.1-.1c.1-.1.2-.2.3-.2-.1 0-.3.1-.1.1.1 0 .1 0 .2-.1.1 0 .3-.1.4-.1-.1 0-.3 0-.4.1h.9c-.1 0-.3 0-.4-.1.1 0 .3 0 .4.1.1 0 .2 0 .2.1.1 0 .3.1 0 0-.2-.1 0 0 0 0 .1 0 .1.1.2.1s.1.1.2.1c.2.1-.3-.2-.1 0l.3.3c0-.1-.2-.3-.1-.1 0 .1.1.1.1.2.1.2 0 .2 0-.1 0 .1 0 .1.1.2 0 .1.1.3.1.4 0-.1 0-.3-.1-.4v.6c0-.1 0-.3.1-.4 0 .1-.1.3-.1.4.1-.2.1-.3.1-.2v.1c0 .1-.1.1-.1.2-.2.2.2-.3 0-.1 0 .1-.1.1-.1.2 0 0-.1.1-.2.1-.3.2.2-.1.1 0s-.2.1-.3.2c-.1 0-.3.1 0 0s0 0 0 0c-.3.1-.6.2-.9.2.1 0 .3 0 .4-.1h-.2c-.4 0-.8.1-1.1.4s-.5.7-.4 1.1c0 .4.1.8.4 1.1.1.1.5.3.9.3z"/><use xlink:href="#b" x="-23.5" y="-43.9"/><use xlink:href="#Y" x="-27.5" y="-59.7"/></g><g class="I"><use xlink:href="#b" x="27.9" y="-20.7"/><use xlink:href="#Z" x="8" y="-34.8"/></g><g class="J"><use xlink:href="#b" x="8.9" y="-33.9"/><use xlink:href="#Y" x="4.9" y="-49.7"/></g><g class="I"><use xlink:href="#Z" x="-10.7" y="-47.5"/><use xlink:href="#b" x="-9.5" y="-46.4"/></g><g class="J"><use xlink:href="#Z" x="-28.5" y="-59.6"/><use xlink:href="#a" x="-28.5" y="-59.6"/></g><path d="M164.4 91.1c1.1-.1 1.9-.4 2.5-1.3.5-.7.5-1.8 0-2.5s-1.3-1.2-2.2-1.3c-.8-.1-1.7.2-2.3.8s-.8 1.6-.4 2.4c.2.5 1.3 1.7 2.4 1.9z" class="I"/><g class="J"><use xlink:href="#c" x="49.3" y="-32.1"/><use xlink:href="#Y" x="36.2" y="-54"/><use xlink:href="#d" x="57.7" y="-26.6"/><use xlink:href="#Y" x="20.3" y="-52.3"/></g><g class="I"><use xlink:href="#Z" x="20.3" y="-52.3"/><use xlink:href="#e" x="44.7" y="-7.5"/><use xlink:href="#X" x="17.2" y="-67.2"/><use xlink:href="#f"/><use xlink:href="#X" x="7.6" y="-73.7"/><use xlink:href="#X" x="-7.1" y="-70.9"/></g><g class="J"><use xlink:href="#f" x="-2.8" y="-14.7"/><use xlink:href="#Y" x="-1.2" y="-79.7"/><use xlink:href="#Z" x="-22.1" y="-68.4"/><use xlink:href="#Y" x="-16.2" y="-77.1"/></g><use xlink:href="#X" x="-10.2" y="-85.8" class="I"/><g class="J"><use xlink:href="#e" x="76.6" y="-13.2"/><use xlink:href="#a" x="37.2" y="-55.4"/><use xlink:href="#X" x="33.2" y="-71.2"/><use xlink:href="#Y" x="33.2" y="-71.2"/><use xlink:href="#b" x="28.1" y="-61.6"/><path d="M158.2 60.4c.8-.1 1.6-.2 2.3-.6s1.3-1 1.6-1.6c.9-1.6.5-3.6-.9-4.8s-3.4-1.4-5.1-.6c-1.5.7-2.5 2.7-1.9 4.4.3.7.7 1.4 1.3 1.9.6.6 1.4 1.1 2.3 1.3.4.1.8.1 1.2-.2.3-.2.6-.5.7-.9.2-.7-.2-1.7-1-1.8-.1 0-.4 0-.5-.1.1 0 .2.1.2.1s-.1 0-.1-.1c-.1 0-.1-.1-.2-.1s-.1-.1-.2-.1c0 0-.3-.2-.1-.1.2.2 0 0-.1-.1-.1 0-.1-.1-.2-.1l-.3-.3c0-.1-.1-.1-.1-.2-.1-.1.3.4.1.1-.1-.1-.1-.2-.1-.2.1.2.1.3.1.2v-.1c0-.1 0-.2-.1-.3 0 .1 0 .3.1.4V56c0 .1 0 .3-.1.4 0-.1 0-.2.1-.4 0-.1.1-.3 0 0s0 0 0 0 0-.1.1-.1c0 0 .2-.2 0 0s0 0 0 0l.1-.1c.1-.1.2-.1-.1.1l.1-.1c.1-.1.2-.2.3-.2-.1 0-.3.1-.1.1.1 0 .1 0 .2-.1.1 0 .3-.1.4-.1-.1 0-.3 0-.4.1h.9c-.1 0-.3 0-.4-.1.1 0 .3 0 .4.1.1 0 .2 0 .2.1.1 0 .3.1 0 0-.2-.1 0 0 0 0 .1 0 .1.1.2.1s.1.1.2.1c.2.1-.3-.2-.1 0l.3.3c0-.1-.2-.3-.1-.1 0 .1.1.1.1.2.1.2 0 .2 0-.1 0 .1 0 .1.1.2 0 .1.1.3.1.4 0-.1 0-.3-.1-.4v.6c0-.1 0-.3.1-.4 0 .1-.1.3-.1.4.1-.2.1-.3.1-.2v.1c0 .1-.1.1-.1.2-.2.2.2-.3 0-.1 0 .1-.1.1-.1.2 0 0-.1.1-.2.1-.3.2.2-.1.1 0s-.2.1-.3.2c-.1 0-.3.1 0 0s0 0 0 0c-.3.1-.6.2-.9.2.1 0 .3 0 .4-.1h-.2c-.4 0-.8.1-1.1.4s-.5.7-.4 1.1c0 .4.1.8.4 1.1a1.1 1.1 0 0 0 .9.2z"/><use xlink:href="#X" x="14.5" y="-83.9"/><use xlink:href="#Y" x="14.5" y="-83.9"/></g><g class="I"><use xlink:href="#Z" x="-0.2" y="-81.1"/><use xlink:href="#X" x="-3.3" y="-96"/></g><path d="M62.7 106.5l11-1.7c.8-.1 1.2-1.1 1-1.8-.2-.9-1-1.2-1.8-1l-11 1.7c-.8.1-1.2 1.1-1 1.8.2.8 1 1.1 1.8 1h0z"/><path d="M383.4 45.3c4.7-.3 8.6-2.1 10.6-6.3 2.1-4.3 4.1-14 4.5-18.7-.1 4.2 1 13.8 2.4 17.8s3.6 6.5 7.8 6.8c-5.7 1.4-9.7 6.9-10.8 13-1.2 7-1.9 11.3-2.4 16.4-.2-5.2-.5-11.1-1.9-18.3-.8-4.1-1.5-9.2-10.2-10.7z" fill="#ffda83"/><use xlink:href="#g"/><use xlink:href="#h" class="J"/><use xlink:href="#i"/><use xlink:href="#h" x="361" y="119" class="J"/><use xlink:href="#i" x="361" y="119"/><path d="M22.4 137.3c4.7-.3 8.6-2.1 10.6-6.3 2.1-4.3 4.1-14 4.5-18.7-.1 4.2 1 13.8 2.4 17.8 1.5 4 3.6 6.5 7.8 6.8-5.7 1.4-9.7 6.9-10.8 13-1.2 7-1.9 11.3-2.4 16.4-.2-5.2-.5-11.1-1.9-18.3-.8-4.1-1.5-9.2-10.2-10.7z" fill="#ffda83"/><use xlink:href="#g" x="-361" y="92"/><use xlink:href="#j"/><use xlink:href="#k"/><use xlink:href="#j" x="322" y="-135"/><use xlink:href="#k" x="322" y="-135"/><defs ><path id="B" d="M406.6 180h-20.3-52.2-71.8H183h-74.2-56.7-27c-9.3 0-16.6-6.9-16.7-16.4V146 72.5 25.9c.1-8.8 7.1-15.8 15.9-15.9h1.5 10.4H82h68.2 78.4H305h62.4 35.3c4.1 0 8-.1 11.8 2.1 5.2 3 8 8.4 8 14.3v6.1 65.8 62 3.7c-.1 8.9-7.1 15.9-15.9 16-1.9 0-1.9 3 0 3 9-.1 17.1-6.6 18.6-15.6.3-2 .3-4 .3-6.1v-23.5-76.5-28.2-6.6c0-5.3-1.8-10.4-5.7-14.2C415.3 8 409.7 7 403.7 7H391h-49.5-71.1-80.1-75.8-59.2-29.6-2.4C14.4 7.6 7 14.4 5.7 23.2c-.7 4.9-.2 10.2-.2 15.1v72 53.2c0 10.8 8.3 19.4 19.2 19.5h7.9 42.5H142h79.2 77.9 64.6 38 5c1.8 0 1.8-3-.1-3z"/><path id="C" d="M346.7 70.9c-1.7-1-2.2-1.8-4-2.8-.2-.1-.5-.3-.6-.6s0-.6.2-.8c5.6-6.8 10.8-14.7 16.9-21.6l4.6 3.4c-4.4 5.9-13.3 16.1-17.1 22.4z"/><path id="D" d="M347.5 69.6l-2.7-1.9c-.3-.2-.5-.4-.8-.5-.1-.1-.2-.2-.4-.2-.3-.3-.3-.1 0 .5.2 0 1.1-1.4 1.2-1.5l5-6.5c3.4-4.5 6.7-9 10.4-13.3-.6.1-1.2.2-1.8.2l4.6 3.4c-.2-.7-.4-1.4-.5-2.1-5.7 7.4-12.3 14.3-17.1 22.4-1 1.7 1.6 3.2 2.6 1.5 4.8-8 11.4-14.9 17.1-22.4.5-.7 0-1.6-.5-2.1l-4.6-3.4c-.5-.4-1.4-.2-1.8.2-4.3 4.9-8.2 10.2-12.1 15.5-.9 1.3-1.9 2.5-2.9 3.7-.8 1-2.3 2.3-2.5 3.6-.3 1.6.9 2.2 2 3s2.1 1.7 3.3 2.4c1.6 1.1 3.1-1.5 1.5-2.5z"/><path id="E" d="M319.9 48.9l-2.7-1.9c-.3-.2-.5-.4-.8-.5-.1-.1-.2-.2-.4-.2-.3-.3-.3-.1 0 .5.2 0 1.1-1.4 1.2-1.5l5-6.5c3.4-4.5 6.7-9 10.4-13.3-.6.1-1.2.2-1.8.2l4.6 3.4c-.2-.7-.4-1.4-.5-2.1-5.7 7.4-12.3 14.3-17.1 22.4-1 1.7 1.6 3.2 2.6 1.5 4.8-8 11.4-14.9 17.1-22.4.5-.7 0-1.6-.5-2.1l-4.6-3.4c-.5-.4-1.4-.2-1.8.2-4.3 4.9-8.2 10.2-12.1 15.5-.9 1.3-1.9 2.5-2.9 3.7-.8 1-2.3 2.3-2.5 3.6-.3 1.6.9 2.2 2 3s2.1 1.7 3.3 2.4c1.7 1.1 3.2-1.5 1.5-2.5z"/><path id="F" d="M292.6 32.1c-1.1.1-1.9.4-2.6 1.2-.6.7-.6 1.7-.2 2.5s1.2 1.2 2.1 1.3c.8.1 1.7-.1 2.3-.7s.9-1.6.6-2.3c-.2-.7-1.2-1.8-2.2-2z"/><path id="G" d="M294.6 46.9c-1.1.1-1.9.4-2.6 1.2-.6.7-.6 1.7-.2 2.5s1.2 1.2 2.1 1.3c.8.1 1.7-.1 2.3-.7s.9-1.6.6-2.3c-.2-.6-1.2-1.8-2.2-2z"/><path id="H" d="M309.9 44.9c-1.1.1-1.9.3-2.6 1.2-.6.7-.6 1.7-.1 2.5.4.8 1.3 1.3 2.2 1.4.8.1 1.8-.1 2.4-.7s.9-1.6.6-2.3c-.5-.7-1.5-1.9-2.5-2.1z"/><path id="I" d="M303.4 53.3c-1.1.1-1.9.3-2.6 1.2-.6.7-.6 1.7-.1 2.5.4.8 1.3 1.3 2.2 1.4.8.1 1.8-.1 2.4-.7s.9-1.6.6-2.3c-.4-.7-1.4-1.9-2.5-2.1z"/><path id="J" d="M319.4 52.5c-1.1.1-1.9.3-2.6 1.2-.6.7-.6 1.7-.1 2.5.4.8 1.3 1.3 2.2 1.4.8.1 1.8-.1 2.4-.7s.9-1.6.6-2.3c-.4-.7-1.5-1.9-2.5-2.1z"/><path id="K" d="M328.1 57.6c-.8.1-1.6.2-2.3.6-.7.3-1.3.9-1.7 1.6-.9 1.5-.6 3.6.7 4.8 1.3 1.1 3.1 1.6 4.7.9.9-.4 1.6-.9 2.1-1.8.4-.8.6-1.8.3-2.7-.2-.7-.7-1.4-1.2-1.9-.6-.6-1.4-1.2-2.2-1.4s-1.7.2-1.8 1c-.2.8.2 1.6 1 1.8.1 0 .3.1.4.1-.1-.1-.2-.1-.4-.2.2.1.5.2.6.4 0-.1-.3-.2-.1-.1l.1.1.3.3c.1.1.2.2.2.3l.1.1-.1-.1c.1.1.2.3.3.5-.1-.1-.1-.2-.2-.4a.9.9 0 0 1 .1.5c0-.1 0-.3-.1-.4v.5c0-.1 0-.3.1-.4 0 .2-.1.4-.2.6.1-.1.1-.2.2-.4-.1.1-.1.2-.2.3 0 0 0 .1-.1.1-.1.1 0 0 .1-.2l-.1.1-.1.1s.3-.2.1-.1c-.1.1-.3.1-.4.2.1-.1.2-.1.4-.2-.2.1-.5.2-.8.2.1 0 .3 0 .4-.1h-.9c.1 0 .3 0 .4.1-.3 0-.5-.1-.8-.2.1.1.2.1.4.2-.1-.1-.3-.1-.4-.2-.1 0-.1-.1-.2-.1l.1.1s-.1 0-.1-.1l-.2-.2c-.2-.2.1.2 0 .1a.76.76 0 0 1-.2-.4c.1.1.1.2.2.4-.1-.2-.1-.4-.2-.7 0 .1 0 .3.1.4v-.6c0 .1 0 .3-.1.4 0-.2.1-.4.2-.6-.1.1-.1.2-.2.4 0-.1.1-.2.1-.2.2-.3-.2.2-.1.1a1.38 1.38 0 0 0 .3-.4c.1 0 .1-.1.2-.1-.4.3-.2.1-.1.1a.76.76 0 0 1 .4-.2c-.1.1-.2.1-.4.2l1-.3c-.1 0-.3 0-.4.1h.5c.8-.1 1.5-.7 1.5-1.5.2-.7-.4-1.5-1.3-1.5z"/><path id="L" d="M321.7 66c-.8.1-1.6.2-2.3.6-.7.3-1.3.9-1.7 1.6-.9 1.5-.6 3.6.7 4.8 1.3 1.1 3.1 1.6 4.7.9.9-.4 1.6-.9 2.1-1.8.4-.8.6-1.8.3-2.7-.2-.7-.7-1.4-1.2-1.9-.6-.6-1.4-1.2-2.2-1.4s-1.7.2-1.8 1c-.2.8.2 1.6 1 1.8.1 0 .3.1.4.1-.1-.1-.2-.1-.4-.2.2.1.5.2.6.4 0-.1-.3-.2-.1-.1l.1.1.3.3c.1.1.2.2.2.3l.1.1-.1-.1c.1.1.2.3.3.5-.1-.1-.1-.2-.2-.4a.9.9 0 0 1 .1.5c0-.1 0-.3-.1-.4v.5c0-.1 0-.3.1-.4 0 .2-.1.4-.2.6.1-.1.1-.2.2-.4-.1.1-.1.2-.2.3 0 0 0 .1-.1.1-.1.1 0 0 .1-.2l-.1.1-.1.1s.3-.2.1-.1c-.1.1-.3.1-.4.2.1-.1.2-.1.4-.2-.2.1-.5.2-.8.2.1 0 .3 0 .4-.1h-.9c.1 0 .3 0 .4.1-.3 0-.5-.1-.8-.2.1.1.2.1.4.2-.1-.1-.3-.1-.4-.2-.1 0-.1-.1-.2-.1l.1.1s-.1 0-.1-.1l-.2-.2c-.2-.2.1.2 0 .1a.76.76 0 0 1-.2-.4c.1.1.1.2.2.4-.1-.2-.1-.4-.2-.7 0 .1 0 .3.1.4v-.6c0 .1 0 .3-.1.4 0-.2.1-.4.2-.6-.1.1-.1.2-.2.4 0-.1.1-.2.1-.2.2-.3-.2.2-.1.1a1.38 1.38 0 0 0 .3-.4c.1 0 .1-.1.2-.1-.4.3-.2.1-.1.1a.76.76 0 0 1 .4-.2c-.1.1-.2.1-.4.2l1-.3c-.1 0-.3 0-.4.1h.5c.8-.1 1.5-.7 1.5-1.5.2-.8-.4-1.5-1.3-1.5z"/><path id="M" d="M348.1 87.6c-1.1.1-1.9.3-2.6 1.2-.6.7-.6 1.7-.1 2.5.4.8 1.3 1.3 2.2 1.4.8.1 1.8-.1 2.4-.7s.9-1.6.6-2.3c-.4-.6-1.5-1.8-2.5-2.1z"/><path id="N" d="M295.8 61.8c-.8.1-1.6.2-2.3.6-.7.3-1.3.9-1.7 1.6-.9 1.5-.6 3.6.7 4.8 1.3 1.1 3.1 1.6 4.7.9.9-.4 1.6-.9 2.1-1.8.4-.8.6-1.8.3-2.7-.2-.7-.7-1.4-1.2-1.9-.6-.6-1.4-1.2-2.2-1.4s-1.7.2-1.8 1c-.2.8.2 1.6 1 1.8.1 0 .3.1.4.1-.1-.1-.2-.1-.4-.2.2.1.5.2.6.4 0-.1-.3-.2-.1-.1l.1.1.3.3c.1.1.2.2.2.3l.1.1-.1-.1c.1.1.2.3.3.5-.1-.1-.1-.2-.2-.4a.9.9 0 0 1 .1.5c0-.1 0-.3-.1-.4v.5c0-.1 0-.3.1-.4 0 .2-.1.4-.2.6.1-.1.1-.2.2-.4-.1.1-.1.2-.2.3 0 0 0 .1-.1.1-.1.1 0 0 .1-.2l-.1.1-.1.1s.3-.2.1-.1c-.1.1-.3.1-.4.2.1-.1.2-.1.4-.2-.2.1-.5.2-.8.2.1 0 .3 0 .4-.1h-.9c.1 0 .3 0 .4.1-.3 0-.5-.1-.8-.2.1.1.2.1.4.2-.1-.1-.3-.1-.4-.2-.1 0-.1-.1-.2-.1l.1.1s-.1 0-.1-.1l-.2-.2c-.2-.2.1.2 0 .1a.76.76 0 0 1-.2-.4c.1.1.1.2.2.4-.1-.2-.1-.4-.2-.7 0 .1 0 .3.1.4v-.6c0 .1 0 .3-.1.4 0-.2.1-.4.2-.6-.1.1-.1.2-.2.4 0-.1.1-.2.1-.2.2-.3-.2.2-.1.1a1.38 1.38 0 0 0 .3-.4c.1 0 .1-.1.2-.1-.4.3-.2.1-.1.1a.76.76 0 0 1 .4-.2c-.1.1-.2.1-.4.2l1-.3c-.1 0-.3 0-.4.1h.5c.8-.1 1.5-.7 1.5-1.5.2-.8-.4-1.6-1.3-1.5z"/><path id="O" d="M299 77.7c-.8.1-1.6.2-2.3.6-.7.3-1.3.9-1.7 1.6-.9 1.5-.6 3.6.7 4.8 1.3 1.1 3.1 1.6 4.7.9.9-.4 1.6-.9 2.1-1.8.4-.8.6-1.8.3-2.7-.2-.7-.7-1.4-1.2-1.9-.6-.6-1.4-1.2-2.2-1.4s-1.7.2-1.8 1c-.2.8.2 1.6 1 1.8.1 0 .3.1.4.1-.1-.1-.2-.1-.4-.2.2.1.5.2.6.4 0-.1-.3-.2-.1-.1l.1.1.3.3c.1.1.2.2.2.3l.1.1-.1-.1c.1.1.2.3.3.5-.1-.1-.1-.2-.2-.4a.9.9 0 0 1 .1.5c0-.1 0-.3-.1-.4v.5c0-.1 0-.3.1-.4 0 .2-.1.4-.2.6.1-.1.1-.2.2-.4-.1.1-.1.2-.2.3 0 0 0 .1-.1.1-.1.1 0 0 .1-.2l-.1.1-.1.1s.3-.2.1-.1c-.1.1-.3.1-.4.2.1-.1.2-.1.4-.2-.2.1-.5.2-.8.2.1 0 .3 0 .4-.1h-.9c.1 0 .3 0 .4.1-.3 0-.5-.1-.8-.2.1.1.2.1.4.2-.1-.1-.3-.1-.4-.2-.1 0-.1-.1-.2-.1l.1.1s-.1 0-.1-.1l-.2-.2c-.2-.2.1.2 0 .1a.76.76 0 0 1-.2-.4c.1.1.1.2.2.4-.1-.2-.1-.4-.2-.7 0 .1 0 .3.1.4v-.6c0 .1 0 .3-.1.4 0-.2.1-.4.2-.6-.1.1-.1.2-.2.4 0-.1.1-.2.1-.2.2-.3-.2.2-.1.1a1.38 1.38 0 0 0 .3-.4c.1 0 .1-.1.2-.1-.4.3-.2.1-.1.1a.76.76 0 0 1 .4-.2c-.1.1-.2.1-.4.2l1-.3c-.1 0-.3 0-.4.1h.5c.8-.1 1.5-.7 1.5-1.5.1-.7-.5-1.5-1.3-1.5z"/><path id="P" d="M314.1 76c-.8.1-1.6.2-2.3.6-.7.3-1.3.9-1.7 1.6-.9 1.5-.6 3.6.7 4.8 1.3 1.1 3.1 1.6 4.7.9.9-.4 1.6-.9 2.1-1.8.4-.8.6-1.8.3-2.7-.2-.7-.7-1.4-1.2-1.9-.6-.6-1.4-1.2-2.2-1.4s-1.7.2-1.8 1c-.2.8.2 1.6 1 1.8.1 0 .3.1.4.1-.1-.1-.2-.1-.4-.2.2.1.5.2.6.4 0-.1-.3-.2-.1-.1l.1.1.3.3c.1.1.2.2.2.3l.1.1-.1-.1c.1.1.2.3.3.5-.1-.1-.1-.2-.2-.4a.9.9 0 0 1 .1.5c0-.1 0-.3-.1-.4v.5c0-.1 0-.3.1-.4 0 .2-.1.4-.2.6.1-.1.1-.2.2-.4-.1.1-.1.2-.2.3 0 0 0 .1-.1.1-.1.1 0 0 .1-.2l-.1.1-.1.1s.3-.2.1-.1c-.1.1-.3.1-.4.2.1-.1.2-.1.4-.2-.2.1-.5.2-.8.2.1 0 .3 0 .4-.1h-.9c.1 0 .3 0 .4.1-.3 0-.5-.1-.8-.2.1.1.2.1.4.2-.1-.1-.3-.1-.4-.2-.1 0-.1-.1-.2-.1l.1.1s-.1 0-.1-.1l-.2-.2c-.2-.2.1.2 0 .1a.76.76 0 0 1-.2-.4c.1.1.1.2.2.4-.1-.2-.1-.4-.2-.7 0 .1 0 .3.1.4v-.6c0 .1 0 .3-.1.4 0-.2.1-.4.2-.6-.1.1-.1.2-.2.4 0-.1.1-.2.1-.2.2-.3-.2.2-.1.1a1.38 1.38 0 0 0 .3-.4c.1 0 .1-.1.2-.1-.4.3-.2.1-.1.1a.76.76 0 0 1 .4-.2c-.1.1-.2.1-.4.2l1-.3c-.1 0-.3 0-.4.1h.5c.8-.1 1.5-.7 1.5-1.5.2-.8-.5-1.6-1.3-1.5z"/><path id="Q" d="M323.3 84.5c-1.1.1-1.9.3-2.6 1.2-.6.7-.6 1.7-.1 2.5.4.8 1.3 1.3 2.2 1.4.8.1 1.8-.1 2.4-.7s.9-1.6.6-2.3c-.4-.6-1.4-1.8-2.5-2.1z"/><path id="R" d="M95.9 112.4c1.8.9 2.3 1.7 4.1 2.6.2.1.5.3.6.5.1.3 0 .6-.2.8-5.2 7.1-9.9 15.3-15.7 22.5l-4.8-3.2c4.2-6 12.5-16.7 16-23.2z"/><path id="S" d="M95.1 113.7c1 .5 1.8 1.2 2.8 1.8l.8.5c.1.1.2.1.4.2.3.3.4.1.1-.6-.1 0-1.1 1.5-1.1 1.6l-4.6 6.8c-3.1 4.7-6.2 9.4-9.6 13.8.6-.1 1.2-.2 1.8-.2l-4.8-3.2c.2.7.4 1.4.5 2.1 5.3-7.7 11.5-15 15.9-23.3.9-1.7-1.7-3.2-2.6-1.5-4.4 8.3-10.6 15.6-15.9 23.3-.5.7-.1 1.6.5 2.1l4.8 3.2c.5.3 1.4.3 1.8-.2 4.1-5.2 7.6-10.7 11.2-16.1.9-1.3 1.7-2.6 2.6-3.9.8-1.1 2.2-2.4 2.4-3.7.3-1.6-.9-2.2-2.1-2.9s-2.2-1.5-3.4-2.2c-1.7-1.1-3.2 1.5-1.5 2.4z"/><path id="T" d="M152 148.2c1.1-.1 1.8-.5 2.5-1.4.5-.7.5-1.7 0-2.5-.5-.7-1.3-1.2-2.2-1.2-.8-.1-1.7.2-2.3.9-.6.6-.8 1.6-.5 2.3.4.6 1.5 1.7 2.5 1.9z"/><path id="U" d="M158 139.4c1.1-.1 1.8-.5 2.5-1.4.5-.7.5-1.7 0-2.5-.5-.7-1.3-1.2-2.2-1.2-.8-.1-1.7.2-2.3.9-.6.6-.8 1.6-.5 2.3.4.7 1.5 1.8 2.5 1.9z"/><path id="V" d="M167.1 105.7c1.1-.1 1.8-.5 2.5-1.4.5-.7.5-1.7 0-2.5-.5-.7-1.3-1.2-2.2-1.2-.8-.1-1.7.2-2.3.9-.6.6-.8 1.6-.5 2.3.4.6 1.5 1.8 2.5 1.9z"/><path id="W" d="M188.3 94.2c1.1-.1 1.8-.5 2.5-1.4.5-.7.5-1.7 0-2.5-.5-.7-1.3-1.2-2.2-1.2-.8-.1-1.7.2-2.3.9-.6.6-.8 1.6-.5 2.3.4.6 1.4 1.7 2.5 1.9z"/><path id="X" d="M134.1 136.3c1.1-.1 1.9-.4 2.5-1.3.5-.7.5-1.8 0-2.5s-1.3-1.2-2.2-1.3c-.8-.1-1.7.2-2.3.8s-.8 1.6-.4 2.4c.2.6 1.3 1.7 2.4 1.9z"/><path id="Y" d="M134.1 137.8c.8-.1 1.6-.2 2.3-.6s1.3-1 1.6-1.6c.9-1.6.5-3.6-.9-4.8s-3.4-1.4-5.1-.6c-1.5.7-2.5 2.7-1.9 4.4.3.7.7 1.4 1.3 1.9.6.6 1.4 1.1 2.3 1.3.4.1.8.1 1.2-.2.3-.2.6-.5.7-.9.2-.7-.2-1.7-1-1.8-.1 0-.4 0-.5-.1.1 0 .2.1.2.1s-.1 0-.1-.1c-.1 0-.1-.1-.2-.1s-.1-.1-.2-.1c0 0-.3-.2-.1-.1.2.2 0 0-.1-.1-.1 0-.1-.1-.2-.1l-.3-.3c0-.1-.1-.1-.1-.2-.1-.1.3.4.1.1-.1-.1-.1-.2-.1-.2.1.2.1.3.1.2v-.1c0-.1 0-.2-.1-.3 0 .1 0 .3.1.4v-.5c0 .1 0 .3-.1.4 0-.1 0-.2.1-.4 0-.1.1-.3 0 0s0 0 0 0 0-.1.1-.1c0 0 .2-.2 0 0s0 0 0 0l.1-.1c.1-.1.2-.1-.1.1l.1-.1c.1-.1.2-.2.3-.2-.1 0-.3.1-.1.1.1 0 .1 0 .2-.1.1 0 .3-.1.4-.1-.1 0-.3 0-.4.1h.9c-.1 0-.3 0-.4-.1.1 0 .3 0 .4.1.1 0 .2 0 .2.1.1 0 .3.1 0 0-.2-.1 0 0 0 0 .1 0 .1.1.2.1s.1.1.2.1c.2.1-.3-.2-.1 0l.3.3c0-.1-.2-.3-.1-.1 0 .1.1.1.1.2.1.2 0 .2 0-.1 0 .1 0 .1.1.2 0 .1.1.3.1.4 0-.1 0-.3-.1-.4v.6c0-.1 0-.3.1-.4 0 .1-.1.3-.1.4.1-.2.1-.3.1-.2v.1c0 .1-.1.1-.1.2-.2.2.2-.3 0-.1 0 .1-.1.1-.1.2 0 0-.1.1-.2.1-.3.2.2-.1.1 0s-.2.1-.3.2c-.1 0-.3.1 0 0s0 0 0 0c-.3.1-.6.2-.9.2.1 0 .3 0 .4-.1h-.2c-.4 0-.8.1-1.1.4s-.5.7-.4 1.1c0 .4.1.8.4 1.1.1 0 .5.3.9.2z"/><path id="Z" d="M140 127.6c1.1-.1 1.9-.4 2.5-1.3.5-.7.5-1.8 0-2.5s-1.3-1.2-2.2-1.3c-.8-.1-1.7.2-2.3.8s-.8 1.6-.4 2.4c.3.6 1.4 1.7 2.4 1.9z"/><path id="a" d="M140 129.1c.8-.1 1.6-.2 2.3-.6s1.3-1 1.6-1.6c.9-1.6.5-3.6-.9-4.8s-3.4-1.4-5.1-.6c-1.5.7-2.5 2.7-1.9 4.4.3.7.7 1.4 1.3 1.9.6.6 1.4 1.1 2.3 1.3.4.1.8.1 1.2-.2.3-.2.6-.5.7-.9.2-.7-.2-1.7-1-1.8-.1 0-.4 0-.5-.1.1 0 .2.1.2.1s-.1 0-.1-.1c-.1 0-.1-.1-.2-.1s-.1-.1-.2-.1c0 0-.3-.2-.1-.1.2.2 0 0-.1-.1-.1 0-.1-.1-.2-.1l-.3-.3c0-.1-.1-.1-.1-.2-.1-.1.3.4.1.1-.1-.1-.1-.2-.1-.2.1.2.1.3.1.2v-.1c0-.1 0-.2-.1-.3 0 .1 0 .3.1.4v-.5c0 .1 0 .3-.1.4 0-.1 0-.2.1-.4 0-.1.1-.3 0 0s0 0 0 0 0-.1.1-.1c0 0 .2-.2 0 0s0 0 0 0l.1-.1c.1-.1.2-.1-.1.1l.1-.1c.1-.1.2-.2.3-.2-.1 0-.3.1-.1.1.1 0 .1 0 .2-.1.1 0 .3-.1.4-.1-.1 0-.3 0-.4.1h.9c-.1 0-.3 0-.4-.1.1 0 .3 0 .4.1.1 0 .2 0 .2.1.1 0 .3.1 0 0-.2-.1 0 0 0 0 .1 0 .1.1.2.1s.1.1.2.1c.2.1-.3-.2-.1 0l.3.3c0-.1-.2-.3-.1-.1 0 .1.1.1.1.2.1.2 0 .2 0-.1 0 .1 0 .1.1.2 0 .1.1.3.1.4 0-.1 0-.3-.1-.4v.6c0-.1 0-.3.1-.4 0 .1-.1.3-.1.4.1-.2.1-.3.1-.2v.1c0 .1-.1.1-.1.2-.2.2.2-.3 0-.1 0 .1-.1.1-.1.2 0 0-.1.1-.2.1-.3.2.2-.1.1 0s-.2.1-.3.2c-.1 0-.3.1 0 0s0 0 0 0c-.3.1-.6.2-.9.2.1 0 .3 0 .4-.1h-.2c-.4 0-.8.1-1.1.4s-.5.7-.4 1.1c0 .4.1.8.4 1.1.1 0 .5.2.9.2z"/><path id="b" d="M130.1 120.5c1.1-.1 1.9-.4 2.5-1.3.5-.7.5-1.8 0-2.5s-1.3-1.2-2.2-1.3c-.8-.1-1.7.2-2.3.8s-.8 1.6-.4 2.4c.2.6 1.3 1.8 2.4 1.9z"/><path id="c" d="M121 114.4c1.1-.1 1.9-.4 2.5-1.3.5-.7.5-1.8 0-2.5s-1.3-1.2-2.2-1.3c-.8-.1-1.7.2-2.3.8s-.8 1.6-.4 2.4c.2.6 1.4 1.7 2.4 1.9z"/><path id="d" d="M96.7 110.6c1.1-.1 1.9-.4 2.5-1.3.5-.7.5-1.8 0-2.5s-1.3-1.2-2.2-1.3c-.8-.1-1.7.2-2.3.8s-.8 1.6-.4 2.4c.2.6 1.4 1.8 2.4 1.9z"/><path id="e" d="M100.6 85.4c1.1-.1 1.9-.4 2.5-1.3.5-.7.5-1.8 0-2.5s-1.3-1.2-2.2-1.3c-.8-.1-1.7.2-2.3.8s-.8 1.6-.4 2.4c.3.5 1.4 1.7 2.4 1.9z"/><path id="f" d="M135.7 71.3c1.1-.1 1.9-.4 2.5-1.3.5-.7.5-1.8 0-2.5s-1.3-1.2-2.2-1.3c-.8-.1-1.7.2-2.3.8s-.8 1.6-.4 2.4c.3.6 1.4 1.8 2.4 1.9z"/><path id="g" d="M383.4 46.8c2.9-.2 5.9-.9 8.3-2.7 2.3-1.7 3.7-4.2 4.7-6.9 1.9-5.4 3.1-11.3 3.7-17h-3c-.1 5.2.6 10.7 1.8 15.8.6 2.4 1.5 4.9 3.1 6.8 1.7 2.2 4.2 3.2 6.9 3.4-.1-1-.3-2-.4-2.9-5.8 1.5-9.8 6.5-11.4 12.1-.9 3.2-1.3 6.7-1.8 10-.5 2.9-.8 5.9-1.1 8.8h3c-.3-7-.8-13.9-2.4-20.7-.5-2.1-1.3-4.1-2.8-5.8-2.1-2.3-5.1-3.4-8.1-3.9-1.9-.3-2.7 2.6-.8 2.9 2.5.5 5.2 1.2 6.9 3.3 1.2 1.4 1.6 3.1 2 4.9 1.4 6.4 1.8 12.8 2.2 19.3.1 2 2.8 1.9 3 0 .6-5.6 1.3-11.4 2.6-16.9 1.1-5 4.4-9.7 9.5-11.1 1.7-.4 1.2-2.8-.4-2.9-4.9-.4-6.5-5.1-7.3-9.2-.9-4.5-1.6-9.2-1.4-13.8.1-2-2.8-1.9-3 0-.5 5.1-1.6 10.2-3.2 15-.7 2.2-1.6 4.4-3.4 6-1.9 1.7-4.5 2.4-7.1 2.5-2.1.2-2.1 3.2-.1 3z"/><path id="h" d="M25.8 35.1c3.5-.6 6.1-2 7.3-4.5s1.8-7.9 1.7-10.4c.3 2.3 1.9 7.2 3.3 9.2s3.2 3.1 6.3 2.8c-4.1 1.3-6.5 4.7-6.8 8-.3 3.9-.4 6.2-.4 9-.6-2.7-1.3-5.8-3-9.5-.8-2.1-1.8-4.7-8.4-4.6z"/><path id="i" d="M26.2 36.6c3.7-.7 7.2-2.4 8.6-6.1 1.2-3.1 1.6-6.9 1.5-10.2h-3c.4 3.1 1.5 6.4 3 9.2 1.7 3 4.6 4.5 8.1 4.3-.1-1-.3-2-.4-2.9-3.5 1.2-6.4 3.8-7.5 7.4-.6 1.8-.5 3.8-.6 5.7-.1 1.8-.2 3.6-.1 5.4 1-.1 2-.3 2.9-.4-.9-3.9-1.8-8-3.9-11.4-1.9-3.2-5.6-3.8-9-3.7-1.9 0-1.9 3 0 3 2.6 0 5.4.2 6.7 2.7 1.7 3.2 2.5 6.8 3.3 10.2.4 1.7 3 1.3 2.9-.4 0-3.1-.1-6.3.4-9.4.5-3 2.9-5.2 5.7-6.2 1.5-.5 1.4-3.1-.4-2.9-2.7.2-4.5-.9-5.8-3.3-1.1-2.2-2.1-4.7-2.4-7.2-.2-1.9-3-2-3 0 .1 2.9-.3 5.9-1.2 8.6-1 3.1-3.7 4.3-6.7 4.8-1.8.2-1 3.1.9 2.8z"/><path id="j" d="M49.2 161h8.3a1.54 1.54 0 0 0 1.5-1.5 1.54 1.54 0 0 0-1.5-1.5h-8.3a1.54 1.54 0 0 0-1.5 1.5 1.47 1.47 0 0 0 1.5 1.5h0z"/><path id="k" d="M51.9 153.9c0 3.6.1 7.2.3 10.8.1.8.7 1.5 1.5 1.5s1.6-.7 1.5-1.5c-.2-3.6-.3-7.2-.3-10.8a1.54 1.54 0 0 0-1.5-1.5c-.8 0-1.4.7-1.5 1.5h0z"/></defs></svg>