<svg xmlns="http://www.w3.org/2000/svg" xmlns:xlink="http://www.w3.org/1999/xlink" viewBox="0 0 431 190" xmlns:v="https://vecta.io/nano"><style><![CDATA[.J{fill:#bebebe}.K{fill:#797979}.L{fill:#000005}]]></style><path d="M406.6 181.5H24.4c-9.6 0-17.4-7.8-17.4-17.4V25.9c0-9.6 7.8-17.4 17.4-17.4h382.2c9.6 0 17.4 7.8 17.4 17.4v138.2c0 9.6-7.8 17.4-17.4 17.4z" fill="#d8d8d8"/><use xlink:href="#B" class="L"/><use xlink:href="#B"/><g fill="#5f5f5f"><path d="M265.6 104c6.9.7 13.6-3.8 16.8-9.7 3.9-7 3.3-15.5 1.1-22.9-1.1-3.7-6.9-2.1-5.8 1.6 1.7 5.7 2.6 12.4-.3 17.9-2.4 4.5-6.9 7.6-11.8 7.1-1.6-.2-3 1.5-3 3 0 1.8 1.4 2.9 3 3h0z"/><path d="M283.8 75.5l-9.5-9c-1.1-1.1-3.1-1.2-4.2 0s-1.2 3.1 0 4.2l9.5 9c1.1 1.1 3.1 1.2 4.2 0s1.2-3.1 0-4.2h0z"/><path d="M284.1 73.1c-.1-2.8-.5-5.6-1.1-8.3-.1-.7-.8-1.4-1.4-1.8s-1.6-.5-2.3-.3c-1.6.5-2.4 2-2.1 3.7l.6 3.4c0-.3-.1-.5-.1-.8.2 1.3.3 2.7.4 4.1 0 .8.3 1.5.9 2.1.5.5 1.4.9 2.1.9.8 0 1.6-.3 2.1-.9.6-.6 1-1.3.9-2.1h0z"/><path d="M284.8 78.1c1.1-2 2.3-3.9 3.7-5.8-.2.2-.3.4-.5.6l2.8-3.2c1.1-1.1 1.2-3.1 0-4.2s-3.1-1.2-4.2 0c-2.7 2.9-5.1 6.1-7 9.6-.7 1.4-.4 3.3 1.1 4.1 1.4.7 3.3.4 4.1-1.1h0zM166.9 91.3c-4.5-1.9-9.8-1.7-13.8 1.2-4.3 3.1-6.3 8.2-5.5 13.5.8 5.4 4.7 8.6 9 11.5 1.7 1.2 3.7 2.4 4.9 4.1.3.4.6.8.7 1.3-.1-.2.1.5.1.5 0 .1.1.8.1.4.1.8-.1 1.6-.3 2.1-.8 1.9-2.3 2.8-4 2.8h-.2c-.3 0-.7-.1-1-.2s-.6-.2-1.1-.5c-.3-.2-.6-.4-.9-.8-.7-.7.1.2-.2-.3-.2-.3-.4-.7-.6-1-.7-1.5-2.8-1.8-4.1-1.1-1.5.9-1.7 2.6-1.1 4.1 2.1 4.5 7.9 7 12.6 5.3 4.8-1.8 7.7-7.1 6.6-12.1-1.3-5.5-6.5-8.1-10.7-11.1-3.5-2.5-5-6.3-3.5-10.2.7-1.9 2.4-3.4 4.1-4 1.2-.5 2-.6 3.1-.6s2 .1 2.8.5c1.5.6 3.2.4 4.1-1.1.7-1.5.4-3.7-1.1-4.3h0z"/><path d="M156 138.8c5.2-1.1 9.6-5.5 10.8-10.7.4-1.5-.5-3.3-2.1-3.7-1.5-.3-3.3.5-3.7 2.1-.1.6-.3 1.2-.6 1.8.1-.2.2-.5.3-.7-.4.9-.9 1.8-1.5 2.6.2-.2.3-.4.5-.6-.6.8-1.3 1.5-2.1 2.1.2-.2.4-.3.6-.5-.8.6-1.7 1.1-2.6 1.5.2-.1.5-.2.7-.3-.6.3-1.2.5-1.9.6-1.5.3-2.6 2.2-2.1 3.7.5 1.6 2 2.4 3.7 2.1h0z"/><path d="M154.5 128a24.9 24.9 0 0 0 6.1 4.7c.7.4 1.5.5 2.3.3.7-.2 1.5-.7 1.8-1.4.4-.7.6-1.5.3-2.3-.2-.7-.7-1.4-1.4-1.8l-2.9-1.9c.2.2.4.3.6.5-.9-.7-1.8-1.5-2.6-2.4-.5-.5-1.4-.9-2.1-.9s-1.6.3-2.1.9-.9 1.3-.9 2.1c.1.8.4 1.6.9 2.2h0zm43.8 16.8c.1 5.2.4 10.4.8 15.6l3-3h-11.4v6h1.1c1.6 0 3.1-1.4 3-3s-1.3-3-3-3h-1.1c-1.6 0-3.1 1.4-3 3s1.3 3 3 3h11.4c1.5 0 3.1-1.4 3-3-.4-5.2-.6-10.4-.8-15.6 0-1.6-1.4-3.1-3-3-1.6 0-3.1 1.3-3 3h0zm32.7-1v15c0 1.7 1.4 2.8 3 3 3.9.4 7.8-.3 11.7.1 1.6.2 3.1-1.5 3-3-.1-1.8-1.3-2.8-3-3-3.9-.4-7.8.3-11.7-.1l3 3v-15c0-1.6-1.4-3.1-3-3a3.01 3.01 0 0 0-3 3h0z"/></g><path d="M237.9 54.6c-1.9.4-2.8.1-4.7.5-.3 0-.5.1-.8 0-.2-.1-.4-.4-.4-.7-.2-8.5-1.5-17.5-1.4-26.3 1.8-.1 3.7-.3 5.5-.4.5 7 .5 19.9 1.8 26.9z" fill="#fff"/><path d="M237.5 53.2c-1 .2-2 .2-3 .2-.2 0-.5 0-.8.1-.4-.1-.5 0-.3.2s.2.2.1-.1c.2-.4-.1-1.4-.1-1.9l-.5-7.8c-.4-5.3-.8-10.6-.8-16l-1.5 1.5c1.8-.1 3.7-.3 5.5-.4l-1.5-1.5c.6 9.1.2 18.4 1.7 27.4.3 1.9 3.2 1.1 2.9-.8-1.5-8.8-1.1-17.8-1.6-26.6 0-.8-.6-1.6-1.5-1.5-1.8.1-3.7.3-5.5.4-.8.1-1.5.6-1.5 1.5 0 6.4.6 12.7 1 19.1l.3 4.5c.1 1.2-.2 3 .5 4.1.9 1.3 2.2.9 3.5.8s2.5-.1 3.8-.3c1.9-.4 1.1-3.3-.7-2.9z" class="L"/><use xlink:href="#C" fill="#fff"/><path d="M226.4 54c-1 .2-2 .2-3 .2-.2 0-.5 0-.8.1-.4-.1-.5 0-.3.2s.2.2.1-.1c.2-.4-.1-1.4-.1-1.9l-.5-7.8c-.4-5.3-.8-10.6-.8-16l-1.5 1.5c1.8-.1 3.7-.3 5.5-.4l-1.5-1.5c.6 9.1.2 18.4 1.7 27.4.3 1.9 3.2 1.1 2.9-.8-1.5-8.8-1.1-17.8-1.6-26.6 0-.8-.6-1.6-1.5-1.5-1.8.1-3.7.3-5.5.4-.8.1-1.5.6-1.5 1.5 0 6.4.6 12.7 1 19.1l.3 4.5c.1 1.2-.2 3 .5 4.1.9 1.3 2.2.9 3.5.8s2.5-.1 3.8-.3c2-.4 1.2-3.3-.7-2.9z" class="L"/><use xlink:href="#C" x="-11" y="0.8" fill="#fff"/><use xlink:href="#D" class="L"/><path d="M204.8 57c-1.9.4-2.8.1-4.7.5-.3 0-.5.1-.8 0-.2-.1-.4-.4-.4-.7-.2-8.5-1.5-17.5-1.4-26.3 1.8-.1 3.7-.3 5.5-.4.6 6.9.5 19.9 1.8 26.9z" fill="#fff"/><use xlink:href="#D" x="-11" y="0.8" class="L"/><path d="M193.8 57.8c-1.9.4-2.8.1-4.7.5-.3 0-.5.1-.8 0-.2-.1-.4-.4-.4-.7-.2-8.5-1.5-17.5-1.4-26.3 1.8-.1 3.7-.3 5.5-.4.5 6.9.5 19.9 1.8 26.9z" fill="#fff"/><use xlink:href="#D" x="-22" y="1.6" class="L"/><path d="M170.7 145.8c-2.8-24.4-4.7-66-4.7-90.4 34.4-5.2 63.1-7.1 94.5-7.3 3.6 30.8 5.1 61.8 4.3 92.8-29.8 2.9-64.2 4.8-94.1 4.9z" fill="#323232"/><path d="M172.2 145.8c-2.8-23.9-3.8-48.2-4.5-72.2a546.28 546.28 0 0 1-.3-18.1c-.4.5-.7 1-1.1 1.4A649.17 649.17 0 0 1 240 50l20.4-.4-1.5-1.5a671.34 671.34 0 0 1 4.5 72.3l-.2 20.5 1.5-1.5c-24.5 2.4-49.1 3.9-73.7 4.6l-20.4.3c-1.9 0-1.9 3 0 3 24.6-.1 49.2-1.2 73.7-3.1 6.8-.5 13.6-1.1 20.3-1.8.8-.1 1.5-.6 1.5-1.5.6-24.2-.1-48.3-2.2-72.4l-2.1-20.4c-.1-.8-.6-1.5-1.5-1.5-24.4.2-48.7 1.5-73 4.4l-21.9 3c-.6.1-1.1.8-1.1 1.4 0 24.1 1.1 48.2 3 72.2l1.7 18.1c.5 2 3.5 2 3.2.1z"/><g class="K"><use xlink:href="#E"/><use xlink:href="#F"/><path d="M184.3 59.9c-.7.7-1.1 1.4-1.1 2.5 0 .9.6 1.6 1.4 1.9s1.7.1 2.4-.4c.7-.4 1.2-1.2 1.2-2 .1-.8-.3-1.7-1-2-.6-.2-2.1-.5-2.9 0zm.6 10.2c-.7.7-1.1 1.4-1.1 2.5 0 .9.6 1.6 1.4 1.9s1.7.1 2.4-.4c.7-.4 1.2-1.2 1.2-2 .1-.8-.3-1.7-1-2-.6-.3-2-.5-2.9 0z"/><use xlink:href="#E" x="1.4" y="22.2"/><use xlink:href="#F" x="1.4" y="22.2"/><use xlink:href="#E" x="11.6" y="21.5"/><use xlink:href="#F" x="11.6" y="21.6"/></g><g class="J"><use xlink:href="#F" x="2.7" y="31.7"/><use xlink:href="#G"/><path d="M187.6 101.7c-.7.7-1.1 1.4-1.1 2.5 0 .9.6 1.6 1.4 1.9s1.7.1 2.4-.4c.7-.4 1.2-1.2 1.2-2 .1-.8-.3-1.7-1-2-.5-.2-2-.4-2.9 0z"/><path d="M186.6 100.7c-.6.6-1 1.2-1.3 1.9s-.3 1.6-.2 2.3c.3 1.7 2 2.9 3.7 2.9 1.8 0 3.3-1.2 4-2.9.6-1.6 0-3.5-1.4-4.4-.6-.4-1.4-.5-2.1-.6-.8-.1-1.7.1-2.4.5s-1 1.4-.5 2.1 1.3.9 2.1.5c.1 0 .1-.1.2-.1-.1.1-.2.1-.4.2.2-.1.4-.1.7-.2-.1 0-.3 0-.4.1h1.1c-.1 0-.3 0-.4-.1.3 0 .6.1.9.2-.1-.1-.2-.1-.4-.2.1 0 .2.1.2.1.2.2-.1-.1-.1-.1l.1.1s.2.2 0 0 0 0 0 0c.1.1.1.2.2.3-.1-.1-.1-.2-.2-.4.1.2.1.4.2.6 0-.1 0-.3-.1-.4v.6c0-.1 0-.3.1-.4 0 .2-.1.4-.2.7.1-.1.1-.2.2-.4-.1.2-.2.3-.3.5s.2-.3.1-.1l-.2.2s-.1.2-.2.2c.1 0 .1-.1.2-.1l-.1.1c-.2.1-.3.2-.5.3.1-.1.2-.1.4-.2-.2.1-.5.2-.7.2.1 0 .3 0 .4-.1h-.7c.1 0 .3 0 .4.1-.2 0-.4-.1-.5-.1.1.1.2.1.4.2-.1-.1-.2-.1-.3-.2-.2-.1.1 0 .1.1 0 0-.1-.1-.2-.1l-.1-.1c-.1-.1.2.3.1.1-.1-.1-.1-.2-.2-.4.1.1.1.2.2.4-.1-.2-.1-.3-.1-.5 0 .1 0 .3.1.4v-.8c0 .1 0 .3-.1.4 0-.2.1-.5.2-.7-.1.1-.1.2-.2.4l.3-.6c.1-.2-.1.1-.1.1l.1-.1.3-.3c.5-.6.6-1.6 0-2.1-.9-.7-1.8-.7-2.4-.1z"/></g><g class="K"><use xlink:href="#E" x="3.7" y="52.2"/><use xlink:href="#F" x="3.7" y="52.3"/></g><g class="J"><use xlink:href="#E" x="13.9" y="51.6"/><use xlink:href="#G" x="10.5" y="9.8"/></g><g class="K"><use xlink:href="#F" x="13.9" y="51.6"/><use xlink:href="#E" x="5.1" y="74.2"/><use xlink:href="#E" x="15.3" y="73.5"/><use xlink:href="#H"/></g><g class="J"><use xlink:href="#I"/><use xlink:href="#J"/></g><g class="K"><use xlink:href="#H" x="11.7" y="-0.5"/><path d="M207.1 68.6c-.8.7-1.2 1.4-1.1 2.5 0 .9.7 1.6 1.5 1.9s1.7.1 2.4-.4c.7-.4 1.2-1.2 1.3-2s-.3-1.7-1.1-2c-.6-.3-2.2-.5-3 0z"/><use xlink:href="#K"/><use xlink:href="#L"/><use xlink:href="#H" x="33.4" y="-1.9"/></g><g class="J"><use xlink:href="#M"/><use xlink:href="#N"/></g><g class="K"><use xlink:href="#I" x="42.9" y="-12.7"/><use xlink:href="#H" x="44.2" y="7.6"/><use xlink:href="#H" x="54.1" y="-3.2"/><use xlink:href="#H" x="54.7" y="6.9"/></g><g class="J"><use xlink:href="#H" x="1.4" y="22.2"/><path d="M195 80.1c-.6.6-1 1.2-1.3 2-.3.7-.3 1.6-.2 2.3.4 1.7 2.2 2.9 3.9 2.8 1.8-.1 3.4-1.3 4-3 .6-1.6-.1-3.5-1.6-4.3-.7-.4-1.4-.5-2.2-.5s-1.7.1-2.4.5-1 1.4-.5 2.1 1.3.9 2.1.5c.2-.1.2 0-.1 0 .1 0 .1 0 .2-.1.1 0 .3-.1.4-.1-.1 0-.3 0-.4.1h1.2c-.1 0-.3 0-.4-.1.2 0 .4.1.6.1.2.1.4.2-.1-.1 0 0 .2.2.3.2 0 0-.3-.2-.1-.1.1.1.1.1.1.2.1.1-.1-.1-.1-.1s.1.1.1.2 0 .1.1.2c-.2-.3-.1-.3-.1-.1 0 .1.1.3.1.4 0-.1 0-.3-.1-.4v.6c0-.1 0-.3.1-.4 0 .1 0 .3-.1.4-.1.2-.1.2 0-.1 0 .1-.1.1-.1.2s-.1.1-.1.2c0 0-.2.3 0 0 .2-.2 0 0 0 0l-.2.2-.1.1c-.1.1.3-.2.1-.1-.1.1-.2.1-.4.2-.3.2.3-.1 0 0-.1 0-.1 0-.2.1-.2 0-.3.1-.5.1.1 0 .3 0 .4-.1h-.7c.1 0 .3 0 .4.1-.1 0-.2 0-.3-.1-.1 0-.1 0-.2-.1-.2 0 .3.1.2.1-.1-.1-.2-.1-.3-.2s.2.2.1.1l-.1-.1-.1-.1c-.1-.2.1.1.1.1s-.1-.2-.2-.3c0 0 0-.1-.1-.1.2.3.1.2.1.1s-.1-.2-.1-.3c0 .1 0 .3.1.4v-.7c0 .1 0 .3-.1.4 0-.2.1-.3.1-.5.1-.4-.1.3 0 0 0-.1.1-.1.1-.2s.1-.1.1-.2l.1-.1c-.2.2-.2.2-.1.2l.4-.4c.6-.6.6-1.6 0-2.1-.3-.6-1.3-.7-1.9-.1z"/></g><g class="K"><use xlink:href="#K" x="-20.2" y="33.5"/><use xlink:href="#L" x="-9.8" y="12.7"/><use xlink:href="#H" x="13.8" y="31.8"/><use xlink:href="#K" x="1.4" y="22.2"/><use xlink:href="#H" x="24.3" y="31.1"/></g><g class="J"><use xlink:href="#H" x="34.8" y="20.3"/><use xlink:href="#O"/></g><g class="K"><use xlink:href="#H" x="35.4" y="30.4"/><use xlink:href="#K" x="22.7" y="20.8"/><use xlink:href="#H" x="45.6" y="29.8"/><use xlink:href="#H" x="55.5" y="19"/><use xlink:href="#H" x="56.1" y="29.1"/><use xlink:href="#H" x="3.4" y="41.8"/><use xlink:href="#H" x="15.1" y="41.3"/><use xlink:href="#H" x="25.6" y="40.6"/><use xlink:href="#H" x="36.8" y="39.9"/></g><g class="J"><use xlink:href="#H" x="46.9" y="39.3"/><use xlink:href="#J" x="46.3" y="29.1"/><use xlink:href="#K" x="35.2" y="39.8"/><use xlink:href="#O" x="22.7" y="18.3"/></g><use xlink:href="#M" x="-30.3" y="44" class="K"/><g class="J"><use xlink:href="#K" x="-17.9" y="63.6"/><use xlink:href="#O" x="-30.4" y="42.1"/></g><use xlink:href="#H" x="15.4" y="51.7" class="K"/><g class="J"><path d="M210.8 120.8c-.8.7-1.2 1.4-1.1 2.5 0 .9.7 1.6 1.5 1.9s1.7.1 2.4-.4c.7-.4 1.2-1.2 1.3-2s-.3-1.7-1.1-2c-.6-.2-2.2-.4-3 0z"/><use xlink:href="#N" x="-18" y="53.6"/></g><use xlink:href="#I" x="25.3" y="40.9" class="K"/><g class="J"><use xlink:href="#H" x="26.6" y="61.2"/><use xlink:href="#O" x="-8.2" y="40.9"/></g><use xlink:href="#M" x="3.1" y="42.1" class="K"/><g class="J"><use xlink:href="#H" x="37.7" y="60.5"/><use xlink:href="#O" x="3" y="40.2"/><use xlink:href="#K" x="25" y="50.9"/><path d="M240.9 107.6c-.6.6-1 1.2-1.3 2-.3.7-.3 1.6-.2 2.3.4 1.7 2.2 2.9 3.9 2.8 1.8-.1 3.4-1.3 4-3 .6-1.5-.1-3.5-1.6-4.3-.7-.4-1.4-.5-2.2-.5s-1.7.1-2.4.5-1 1.4-.5 2.1 1.3.9 2.1.5c.2-.1.2 0-.1 0 .1 0 .1 0 .2-.1.1 0 .3-.1.4-.1-.1 0-.3 0-.4.1h1.2c-.1 0-.3 0-.4-.1.2 0 .4.1.6.1.2.1.4.2-.1-.1 0 0 .2.2.3.2 0 0-.3-.2-.1-.1.1.1.1.1.1.2.1.1-.1-.1-.1-.1s.1.1.1.2 0 .1.1.2c-.2-.3-.1-.3-.1-.1 0 .1.1.3.1.4 0-.1 0-.3-.1-.4v.6c0-.1 0-.3.1-.4 0 .1 0 .3-.1.4-.1.2-.1.2 0-.1 0 .1-.1.1-.1.2s-.1.1-.1.2c0 0-.2.3 0 0 .2-.2 0 0 0 0l-.2.2-.1.1c-.1.1.3-.2.1-.1-.1.1-.2.1-.4.2-.3.2.3-.1 0 0-.1 0-.1 0-.2.1-.1 0-.3.1-.5.1.1 0 .3 0 .4-.1h-.7c.1 0 .3 0 .4.1-.1 0-.2 0-.3-.1-.1 0-.1 0-.2-.1-.2 0 .3.1.2.1-.1-.1-.2-.1-.3-.2s.2.2.1.1l-.1-.1-.1-.1c-.1-.2.1.1.1.1s-.1-.2-.2-.3c0 0 0-.1-.1-.1.2.3.1.2.1.1s-.1-.2-.1-.3c0 .1 0 .3.1.4v-.7c0 .1 0 .3-.1.4 0-.2.1-.3.1-.5.1-.4-.1.3 0 0 0-.1.1-.1.1-.2s.1-.1.1-.2l.1-.1c-.2.2-.2.2-.1.2l.4-.4c.6-.6.6-1.6 0-2.1-.4-.6-1.3-.7-1.9-.1z"/></g><g class="K"><use xlink:href="#M" x="13.9" y="51.6"/><use xlink:href="#H" x="57.8" y="49"/><use xlink:href="#H" x="58.4" y="59.2"/><use xlink:href="#H" x="5.1" y="74.2"/><use xlink:href="#L" x="-6.1" y="64.7"/><use xlink:href="#H" x="27.3" y="73"/><use xlink:href="#H" x="38.5" y="72.3"/><path d="M243.3 130.6c-.8.7-1.2 1.4-1.1 2.5 0 .9.7 1.6 1.5 1.9s1.7.1 2.4-.4c.7-.4 1.2-1.2 1.3-2s-.3-1.7-1.1-2c-.5-.2-2.1-.5-3 0z"/><use xlink:href="#H" x="59.2" y="71"/></g><path d="M386.2 65.1l-10.9 16.7-14.8-4.4 6.6 15.4-6.5 14.9 17-7.6 10.7 12.3 1.9-15.4 12.7-7.3-15.1-4.9z" class="J"/><path d="M384.9 64.4L374 81.1c.6-.2 1.1-.5 1.7-.7L360.9 76c-1.4-.4-2.2 1.1-1.7 2.2l6.6 15.4v-1.5l-6.5 14.9c-.6 1.4.6 2.7 2.1 2.1l17-7.6c-.6-.1-1.2-.2-1.8-.2l10.7 12.4c1 1.1 2.4.1 2.6-1.1l1.9-15.4-.7 1.3 12.7-7.4c1.1-.7.9-2.4-.4-2.7l-15.2-4.8c.4.5.7 1 1.1 1.4l-1.5-19.7c-.1-1.9-3.1-1.9-3 0l1.5 19.7c.1.7.4 1.2 1.1 1.4l15.2 4.8-.4-2.7-11.6 6.7c-.5.3-1.3.6-1.6 1.2-.3.5-.3 1.4-.4 2l-1 7.9-.8 6.2 2.6-1.1L378.7 99c-.5-.5-1.2-.5-1.8-.2l-17 7.6 2.1 2.1 5.8-13.5c.2-.6.6-1.2.8-1.8.2-.7-.4-1.6-.6-2.3l-3.3-7.8-2.8-6.4-1.7 2.2 14.8 4.4c.7.2 1.3-.1 1.7-.7l10.9-16.7c1-1.7-1.6-3.2-2.7-1.5z"/><path d="M352.5 25.3l-2.3 12.8-11.3.9 9.1 8 .6 12.5 8.7-10.2 10.9 4.7-3.6-10.7 6.1-8.7-11.5 1.6z" fill="#dcdcdc"/><path d="M351 24.9l-2.3 12.8c.5-.4 1-.7 1.4-1.1l-11.2.9c-1.2.1-2.1 1.6-1.1 2.6l9.1 8c-.1-.4-.3-.7-.4-1.1l.6 12.5c.1 1.2 1.7 2.1 2.6 1.1l8.7-10.3c-.6.1-1.2.2-1.8.2l10.9 4.7c1.1.5 2.7-.3 2.2-1.7l-3.5-10.7c-.1.4-.1.8-.2 1.2l6-8.8c.8-1.2-.5-2.4-1.7-2.2l-11.4 1.6c.6.2 1.1.5 1.7.7l-6.8-10.9c-1-1.6-3.6-.1-2.6 1.5l6.8 10.9c.4.6 1 .8 1.7.7l11.4-1.6-1.7-2.2-5.5 8c-.3.4-.6.8-.7 1.3s.2 1 .3 1.5l1.8 5.4 1.5 4.4c.7-.6 1.5-1.1 2.2-1.7l-10.9-4.7c-.6-.3-1.4-.3-1.8.2l-8.7 10.3 2.6 1.1-.5-10.9c-.1-1.2 0-2.2-1-3.1l-4.6-4.1-4-3.5-1.1 2.6 11.2-.9c.6-.1 1.3-.4 1.4-1.1l2.3-12.8c.4-1.9-2.5-2.7-2.9-.8z"/><path d="M39.6 127.6l14-14.3 13.7 7.3-3.5-16.4 9.3-13.4L55 95l-8.1-14.3L42 95.5l-13.9 4.7 13.9 7.7z" class="J"/><path d="M40.7 128.6l14-14.2c-.6.1-1.2.2-1.8.2l13.7 7.2c1.2.6 2.5-.4 2.2-1.7l-3.4-16.4c-.1.4-.1.8-.2 1.2l9.3-13.4c.8-1.1-.5-2.5-1.7-2.2l-18.1 4.2c.6.2 1.1.5 1.7.7L48.3 80c-.7-1.2-2.3-.8-2.7.4l-4.9 14.8 1-1-13.9 4.7c-1.2.4-1.5 2.1-.4 2.7l14 7.7-.7-1.3-2.4 19.7c-.2 1.9 2.8 1.9 3 0l2.4-19.7c.1-.5-.3-1.1-.7-1.3L29 99l-.4 2.7 12.7-4.3c.6-.2 1.4-.4 1.8-.8s.6-1.3.8-1.9l2.5-7.6 2-6-2.7.4 8.1 14.2c.3.6 1 .8 1.7.7l18.1-4.2-1.7-2.2-8.4 12.1c-.3.5-.8 1-1 1.5-.3.7 0 1.5.2 2.2l1.8 8.4 1.4 6.7c.7-.6 1.5-1.1 2.2-1.7L54.4 112c-.6-.3-1.3-.3-1.8.2l-14 14.2c-1.4 1.5.8 3.6 2.1 2.2z"/><path d="M86.6 164.7l-.6-13 10.7-3.4-10.6-5.8-3.4-12-6.2 11.9-11.6-2.2 5.8 9.6-3.9 9.9 10.8-4.1z" fill="#dcdcdc"/><path d="M88.1 164.7l-.6-13c-.4.5-.7 1-1.1 1.4l10.7-3.4c1.2-.4 1.5-2.1.4-2.7l-10.7-5.8c.2.3.5.6.7.9L84.1 130c-.3-1.2-2.1-1.5-2.7-.4l-6.2 12c.6-.2 1.1-.5 1.7-.7l-11.6-2.2c-1.2-.2-2.4 1-1.7 2.2l5.8 9.6c-.1-.4-.1-.8-.2-1.2l-3.9 9.9c-.4 1 .8 2.2 1.8 1.8l10.8-4.1c-.5-.1-1-.3-1.5-.4l9 9.1c1.4 1.4 3.5-.7 2.1-2.1l-9-9.1c-.3-.4-1-.6-1.5-.4l-10.8 4.1 1.8 1.8 3.6-9c.2-.5.4-.9.4-1.4-.1-.5-.4-.9-.7-1.4l-3-4.9-2.4-4-1.7 2.2 11.6 2.2c.6.1 1.4-.1 1.7-.7l6.2-12-2.7-.4 3 10.5c.3 1.2.5 2.1 1.7 2.7l5.4 2.9 4.7 2.5.4-2.7-10.7 3.4c-.6.2-1.1.8-1.1 1.4l.6 13c.2 2.5 3.2 2.5 3.1.5z"/><path d="M105.6 60.5L119 36.9l13.3 19.6 3.4-5.9 16.5 21.9-15.2-7.7-4.7 8.3z" fill="#afafaf"/><path d="M106.9 61.3l11.7-20.6 1.7-2.9h-2.6l11.6 17.1 1.7 2.5s2 1 2.6 0l3.4-5.9h-2.6l14.5 19.1 2.1 2.7 2.1-2.1-15.3-7.7c-.7-.4-1.6-.2-2.1.5l-4.7 8.2 2.1-.5-23.3-11-3.3-1.6c-1.7-.8-3.3 1.8-1.5 2.6l23.3 11 3.3 1.6c.7.3 1.6.2 2.1-.5l4.7-8.2-2.1.5 15.3 7.7c1.2.6 3-.7 2.1-2.1l-14.5-19.1-2.1-2.7c-.6-.9-2-1.1-2.6 0l-3.4 5.9h2.6l-11.6-17.1-1.7-2.5s-2-1-2.6 0l-11.7 20.6-1.7 2.9c-1 1.7 1.6 3.3 2.5 1.6z"/><path d="M325.4 137.8l-14.2 23.1-12.7-20-3.5 5.8-15.8-22.4 15 8.2 5-8.1z" fill="#afafaf"/><path d="M324.1 137l-12.4 20.2-1.8 2.9h2.6l-11.1-17.4-1.6-2.5a1.5 1.5 0 0 0-2.6 0 178.67 178.67 0 0 0-3.5 5.8h2.6l-13.8-19.6-2-2.8-2.1 2.1 15 8.1c.7.4 1.6.2 2.1-.5l5-8.1-2.1.5 23 11.7 3.3 1.7c1.7.9 3.2-1.7 1.5-2.6l-23-11.7-3.3-1.7c-.7-.4-1.6-.2-2.1.5l-5 8.1 2.1-.5-15-8.1c-1.2-.7-3 .8-2.1 2.1l13.8 19.6 2 2.8c.6.9 2 1 2.6 0a178.67 178.67 0 0 0 3.5-5.8h-2.6l11.1 17.4 1.6 2.5a1.5 1.5 0 0 0 2.6 0l12.4-20.2 1.8-2.9c1.1-1.7-1.5-3.2-2.5-1.6z"/><defs ><path id="B" d="M406.6 180h-20.3-52.2-71.8H183h-74.2-56.7-27c-9.3 0-16.6-6.9-16.7-16.4V146 72.5 25.9c.1-8.8 7.1-15.8 15.9-15.9h1.5 10.4H82h68.2 78.4H305h62.4 35.3c4.1 0 8-.1 11.8 2.1 5.2 3 8 8.4 8 14.3v6.1 65.8 62 3.7c-.1 8.9-7.1 15.9-15.9 16-1.9 0-1.9 3 0 3 9-.1 17.1-6.6 18.6-15.6.3-2 .3-4 .3-6.1v-23.5-76.5-28.2-6.6c0-5.3-1.8-10.4-5.7-14.2C415.3 8 409.7 7 403.7 7H391h-49.5-71.1-80.1-75.8-59.2-29.6-2.4C14.4 7.6 7 14.4 5.7 23.2c-.7 4.9-.2 10.2-.2 15.1v72 53.2c0 10.8 8.3 19.4 19.2 19.5h7.9 42.5H142h79.2 77.9 64.6 38 5c1.8 0 1.8-3-.1-3z"/><path id="C" d="M226.8 55.4c-1.9.4-2.8.1-4.7.5-.3 0-.5.1-.8 0-.2-.1-.4-.4-.4-.7-.2-8.5-1.5-17.5-1.4-26.3 1.8-.1 3.7-.3 5.5-.4.6 6.9.6 19.9 1.8 26.9z"/><path id="D" d="M215.4 54.7c-1 .2-2 .2-3 .2-.2 0-.5 0-.8.1-.4-.1-.5 0-.3.2s.2.2.1-.1c.2-.4-.1-1.4-.1-1.9l-.5-7.8c-.4-5.3-.8-10.6-.8-16l-1.5 1.5c1.8-.1 3.7-.3 5.5-.4l-1.5-1.5c.6 9.1.2 18.4 1.7 27.4.3 1.9 3.2 1.1 2.9-.8-1.5-8.8-1.1-17.8-1.6-26.6 0-.8-.6-1.6-1.5-1.5-1.8.1-3.7.3-5.5.4-.8.1-1.5.6-1.5 1.5 0 6.4.6 12.7 1 19.1l.3 4.5c.1 1.2-.2 3 .5 4.1.9 1.3 2.2.9 3.5.8s2.5-.1 3.8-.3c2-.3 1.2-3.2-.7-2.9z"/><path id="E" d="M174.1 60.6c-.7.7-1.1 1.4-1.1 2.5 0 .9.6 1.6 1.4 1.9s1.7.1 2.4-.4c.7-.4 1.2-1.2 1.2-2 .1-.8-.3-1.7-1-2-.6-.3-2.1-.5-2.9 0z"/><path id="F" d="M174.7 70.7c-.7.7-1.1 1.4-1.1 2.5 0 .9.6 1.6 1.4 1.9s1.7.1 2.4-.4c.7-.4 1.2-1.2 1.2-2 .1-.8-.3-1.7-1-2-.5-.3-2-.5-2.9 0z"/><path id="G" d="M176.4 101.3c-.6.6-1 1.2-1.3 1.9s-.3 1.6-.2 2.3c.3 1.7 2 2.9 3.7 2.9 1.8 0 3.3-1.2 4-2.9.6-1.6 0-3.5-1.4-4.4-.6-.4-1.4-.5-2.1-.6-.8-.1-1.7.1-2.4.5s-1 1.4-.5 2.1 1.3.9 2.1.5c.1 0 .1-.1.2-.1-.1.1-.2.1-.4.2.2-.1.4-.1.7-.2-.1 0-.3 0-.4.1h1.1c-.1 0-.3 0-.4-.1.3 0 .6.1.9.2-.1-.1-.2-.1-.4-.2.1 0 .2.1.2.1.2.2-.1-.1-.1-.1l.1.1s.2.2 0 0 0 0 0 0c.1.1.1.2.2.3-.1-.1-.1-.2-.2-.4.1.2.1.4.2.6 0-.1 0-.3-.1-.4v.6c0-.1 0-.3.1-.4 0 .2-.1.4-.2.7.1-.1.1-.2.2-.4-.1.2-.2.3-.3.5s.2-.3.1-.1l-.2.2s-.1.2-.2.2c.1 0 .1-.1.2-.1l-.1.1c-.2.1-.3.2-.5.3.1-.1.2-.1.4-.2-.2.1-.5.2-.7.2.1 0 .3 0 .4-.1h-.7c.1 0 .3 0 .4.1-.2 0-.4-.1-.5-.1.1.1.2.1.4.2-.1-.1-.2-.1-.3-.2-.2-.1.1 0 .1.1 0 0-.1-.1-.2-.1l-.1-.1c-.1-.1.2.3.1.1-.1-.1-.1-.2-.2-.4.1.1.1.2.2.4-.1-.2-.1-.3-.1-.5 0 .1 0 .3.1.4v-.8c0 .1 0 .3-.1.4 0-.2.1-.5.2-.7-.1.1-.1.2-.2.4l.3-.6c.1-.2-.1.1-.1.1l.1-.1.3-.3c.5-.6.6-1.6 0-2.1-.9-.6-1.8-.7-2.4-.1z"/><path id="H" d="M194.7 59c-.8.7-1.2 1.4-1.1 2.5 0 .9.7 1.6 1.5 1.9s1.7.1 2.4-.4c.7-.4 1.2-1.2 1.3-2s-.3-1.7-1.1-2c-.6-.3-2.1-.5-3 0z"/><path id="I" d="M195.3 69.1c-.8.7-1.2 1.4-1.1 2.5 0 .9.7 1.6 1.5 1.9s1.7.1 2.4-.4c.7-.4 1.2-1.2 1.3-2s-.3-1.7-1.1-2c-.5-.2-2.1-.4-3 0z"/><path id="J" d="M194.3 68.1c-.6.6-1 1.2-1.3 2-.3.7-.3 1.6-.2 2.3.4 1.7 2.2 2.9 3.9 2.8 1.8-.1 3.4-1.3 4-3 .6-1.6-.1-3.5-1.6-4.3-.7-.4-1.4-.5-2.2-.5s-1.7.1-2.4.5-1 1.4-.5 2.1 1.3.9 2.1.5c.2-.1.2 0-.1 0 .1 0 .1 0 .2-.1.1 0 .3-.1.4-.1-.1 0-.3 0-.4.1h1.2c-.1 0-.3 0-.4-.1.2 0 .4.1.6.1.2.1.4.2-.1-.1 0 0 .2.2.3.2 0 0-.3-.2-.1-.1.1.1.1.1.1.2.1.1-.1-.1-.1-.1s.1.1.1.2 0 .1.1.2c-.2-.3-.1-.3-.1-.1 0 .1.1.3.1.4 0-.1 0-.3-.1-.4v.6c0-.1 0-.3.1-.4 0 .1 0 .3-.1.4-.1.2-.1.2 0-.1 0 .1-.1.1-.1.2s-.1.1-.1.2c0 0-.2.3 0 0 .2-.2 0 0 0 0l-.2.2-.1.1c-.1.1.3-.2.1-.1-.1.1-.2.1-.4.2-.3.2.3-.1 0 0-.1 0-.1 0-.2.1-.2 0-.3.1-.5.1.1 0 .3 0 .4-.1h-.7c.1 0 .3 0 .4.1-.1 0-.2 0-.3-.1-.1 0-.1 0-.2-.1-.2 0 .3.1.2.1-.1-.1-.2-.1-.3-.2s.2.2.1.1l-.1-.1-.1-.1c-.1-.2.1.1.1.1s-.1-.2-.2-.3c0 0 0-.1-.1-.1.2.3.1.2.1.1s-.1-.2-.1-.3c0 .1 0 .3.1.4v-.7c0 .1 0 .3-.1.4 0-.2.1-.3.1-.5.1-.4-.1.3 0 0 0-.1.1-.1.1-.2s.1-.1.1-.2l.1-.1c-.2.2-.2.2-.1.2l.4-.4c.6-.6.6-1.6 0-2.1-.4-.7-1.3-.7-1.9-.1z"/><path id="K" d="M216.9 57.8c-.8.7-1.2 1.4-1.1 2.5 0 .9.7 1.6 1.5 1.9s1.7.1 2.4-.4c.7-.4 1.2-1.2 1.3-2s-.3-1.7-1.1-2c-.5-.3-2.1-.5-3 0z"/><path id="L" d="M217.6 67.9c-.8.7-1.2 1.4-1.1 2.5 0 .9.7 1.6 1.5 1.9s1.7.1 2.4-.4c.7-.4 1.2-1.2 1.3-2s-.3-1.7-1.1-2c-.6-.2-2.1-.4-3 0z"/><path id="M" d="M228.7 67.2c-.8.7-1.2 1.4-1.1 2.5 0 .9.7 1.6 1.5 1.9s1.7.1 2.4-.4c.7-.4 1.2-1.2 1.3-2s-.3-1.7-1.1-2c-.6-.2-2.1-.5-3 0z"/><path id="N" d="M227.7 66.2c-.6.6-1 1.2-1.3 2-.3.7-.3 1.6-.2 2.3.4 1.7 2.2 2.9 3.9 2.8 1.8-.1 3.4-1.3 4-3 .6-1.5-.1-3.5-1.6-4.3-.7-.4-1.4-.5-2.2-.5s-1.7.1-2.4.5-1 1.4-.5 2.1 1.3.9 2.1.5c.2-.1.2 0-.1 0 .1 0 .1 0 .2-.1.1 0 .3-.1.4-.1-.1 0-.3 0-.4.1h1.2c-.1 0-.3 0-.4-.1.2 0 .4.1.6.1.2.1.4.2-.1-.1 0 0 .2.2.3.2 0 0-.3-.2-.1-.1.1.1.1.1.1.2.1.1-.1-.1-.1-.1s.1.1.1.2 0 .1.1.2c-.2-.3-.1-.3-.1-.1 0 .1.1.3.1.4 0-.1 0-.3-.1-.4v.6c0-.1 0-.3.1-.4 0 .1 0 .3-.1.4-.1.2-.1.2 0-.1 0 .1-.1.1-.1.2s-.1.1-.1.2c0 0-.2.3 0 0 .2-.2 0 0 0 0l-.2.2-.1.1c-.1.1.3-.2.1-.1-.1.1-.2.1-.4.2-.3.2.3-.1 0 0-.1 0-.1 0-.2.1-.2 0-.3.1-.5.1.1 0 .3 0 .4-.1h-.7c.1 0 .3 0 .4.1-.1 0-.2 0-.3-.1-.1 0-.1 0-.2-.1-.2 0 .3.1.2.1-.1-.1-.2-.1-.3-.2s.2.2.1.1l-.1-.1-.1-.1c-.1-.2.1.1.1.1s-.1-.2-.2-.3c0 0 0-.1-.1-.1.2.3.1.2.1.1s-.1-.2-.1-.3c0 .1 0 .3.1.4v-.7c0 .1 0 .3-.1.4 0-.2.1-.3.1-.5.1-.4-.1.3 0 0 0-.1.1-.1.1-.2s.1-.1.1-.2l.1-.1c-.2.2-.2.2-.1.2l.4-.4c.6-.6.6-1.6 0-2.1-.4-.7-1.3-.7-1.9-.1z"/><path id="O" d="M228.4 78.2c-.6.6-1 1.2-1.3 2-.3.7-.3 1.6-.2 2.3.4 1.7 2.2 2.9 3.9 2.8 1.8-.1 3.4-1.3 4-3 .6-1.6-.1-3.5-1.6-4.3-.7-.4-1.4-.5-2.2-.5s-1.7.1-2.4.5-1 1.4-.5 2.1 1.3.9 2.1.5c.2-.1.2 0-.1 0 .1 0 .1 0 .2-.1.1 0 .3-.1.4-.1-.1 0-.3 0-.4.1h1.2c-.1 0-.3 0-.4-.1.2 0 .4.1.6.1.2.1.4.2-.1-.1 0 0 .2.2.3.2 0 0-.3-.2-.1-.1.1.1.1.1.1.2.1.1-.1-.1-.1-.1s.1.1.1.2 0 .1.1.2c-.2-.3-.1-.3-.1-.1 0 .1.1.3.1.4 0-.1 0-.3-.1-.4v.6c0-.1 0-.3.1-.4 0 .1 0 .3-.1.4-.1.2-.1.2 0-.1 0 .1-.1.1-.1.2s-.1.1-.1.2c0 0-.2.3 0 0 .2-.2 0 0 0 0l-.2.2-.1.1c-.1.1.3-.2.1-.1-.1.1-.2.1-.4.2-.3.2.3-.1 0 0-.1 0-.1 0-.2.1-.2 0-.3.1-.5.1.1 0 .3 0 .4-.1h-.7c.1 0 .3 0 .4.1-.1 0-.2 0-.3-.1-.1 0-.1 0-.2-.1-.2 0 .3.1.2.1-.1-.1-.2-.1-.3-.2s.2.2.1.1l-.1-.1-.1-.1c-.1-.2.1.1.1.1s-.1-.2-.2-.3c0 0 0-.1-.1-.1.2.3.1.2.1.1s-.1-.2-.1-.3c0 .1 0 .3.1.4v-.7c0 .1 0 .3-.1.4 0-.2.1-.3.1-.5.1-.4-.1.3 0 0 0-.1.1-.1.1-.2s.1-.1.1-.2l.1-.1c-.2.2-.2.2-.1.2l.4-.4c.6-.6.6-1.6 0-2.1-.4-.6-1.3-.7-1.9-.1z"/></defs></svg>