<svg xmlns="http://www.w3.org/2000/svg" xmlns:xlink="http://www.w3.org/1999/xlink" viewBox="0 0 186 181" xmlns:v="https://vecta.io/nano"><style><![CDATA[.K{fill:#797979}.L{fill:#bebebe}.M{fill:#000005}.N{fill:#fff}.O{clip-path:url(#f)}]]></style><path d="M182.8 90.5c0 47.8-40.2 86.6-89.8 86.6S3.2 138.3 3.2 90.5 43.4 3.9 93 3.9s89.8 38.8 89.8 86.6" fill="#e5e5e5"/><path d="M182.8 90.5c0 47.8-40.2 86.6-89.8 86.6S3.2 138.3 3.2 90.5 43.4 3.9 93 3.9s89.8 38.7 89.8 86.6" fill="#d8d8d8"/><path d="M181.3 90.5c0 17.7-5.8 35-16.3 49.3-10.4 14.1-25.2 24.9-41.7 30.7-17.4 6.1-36.6 6.8-54.4 1.9-17-4.6-32.5-14.3-44-27.7C13.5 131.3 6.3 114.5 5 97 3.6 79.3 8 61.5 17.4 46.5 26.7 31.7 40.5 20 56.5 13c16.9-7.5 36.2-9.5 54.3-5.9 17.4 3.4 33.6 12 46.1 24.6C169.1 44 177.4 60 180.2 77.3c.8 4.3 1.1 8.7 1.1 13.2 0 1.9 3 1.9 3 0 0-18.3-6-36.3-16.8-51-10.8-14.6-25.9-25.7-43.1-31.8-18-6.4-37.9-7-56.3-2-17.5 4.8-33.6 14.8-45.4 28.7C10.8 48.2 3.4 65.5 2 83.7.5 102 5.1 120.6 14.9 136.1c9.6 15.3 23.9 27.4 40.4 34.6 17.5 7.6 37.2 9.7 56 6.1 18-3.5 34.8-12.4 47.7-25.4 12.7-12.8 21.4-29.4 24.2-47.3.7-4.5 1.1-9.1 1.1-13.6 0-2-3-2-3 0h0z" class="M"/><defs><path id="A" d="M182.8 90.5c0 47.8-40.2 86.6-89.8 86.6S3.2 138.3 3.2 90.5 43.4 4 93 3.9c49.6 0 89.8 38.8 89.8 86.6"/><path id="B" d="M175.3 90.7c-1.6-.9-2-1.6-3.6-2.5-.2-.1-.4-.3-.5-.5-.1-.3 0-.5.2-.7 5-6.1 9.6-13.2 15.1-19.3 1.4 1 2.7 2 4.1 3.1-4 5.1-11.9 14.2-15.3 19.9z"/><path id="C" d="M167.8 83.2l-2.6-1.9c-.2-.1-.4-.3-.6-.4-.1-.1-.2-.1-.4-.2.1.3.2.5.2.8.2 0 1-1.2 1.1-1.4l4.5-5.9c3-4 5.9-8 9.2-11.7-.6.1-1.2.2-1.8.2 1.4 1 2.7 2 4.1 3.1-.2-.7-.4-1.4-.5-2.1-5.1 6.6-11 12.8-15.3 20-1 1.7 1.6 3.2 2.6 1.5 4.3-7.2 10.2-13.4 15.3-20 .5-.7 0-1.6-.5-2.1-1.4-1-2.7-2-4.1-3.1-.5-.4-1.4-.2-1.8.2-3.9 4.4-7.3 9.2-10.8 13.8-.8 1.1-1.7 2.2-2.5 3.3-.8 1-2 2-2.3 3.2-.4 1.4.5 2.1 1.6 2.8s2.1 1.6 3.2 2.3c1.6 1.2 3.1-1.4 1.4-2.4z"/><path id="D" d="M135.1 62.1c-1 .1-1.7.3-2.3 1.1-.5.6-.5 1.5-.2 2.2.4.7 1.1 1.1 1.9 1.2.7.1 1.5-.1 2.1-.6a1.86 1.86 0 0 0 .5-2.1c-.2-.6-1.1-1.6-2-1.8z"/><path id="E" d="M116.8 86c-1 .1-1.7.3-2.3 1.1-.5.6-.5 1.5-.2 2.2.4.7 1.1 1.1 1.9 1.2.7.1 1.5-.1 2.1-.6a1.86 1.86 0 0 0 .5-2.1c-.2-.5-1.1-1.6-2-1.8z"/><path id="F" d="M150.5 73.6c-1 .1-1.7.3-2.3 1.1-.5.6-.5 1.5-.1 2.2s1.1 1.1 1.9 1.2 1.6-.1 2.1-.6a1.86 1.86 0 0 0 .5-2.1c-.2-.6-1.1-1.6-2.1-1.8z"/><path id="G" d="M144.8 81.1c-1 .1-1.7.3-2.3 1.1-.5.6-.5 1.5-.1 2.2s1.1 1.1 1.9 1.2 1.6-.1 2.1-.6a1.86 1.86 0 0 0 .5-2.1c-.2-.6-1.2-1.6-2.1-1.8z"/><path id="H" d="M159.1 80.3c-1 .1-1.7.3-2.3 1.1-.5.6-.5 1.5-.1 2.2s1.1 1.1 1.9 1.2 1.6-.1 2.1-.6a1.86 1.86 0 0 0 .5-2.1c-.2-.5-1.2-1.6-2.1-1.8z"/><path id="I" d="M161.1 93.8c-1 .1-1.7.3-2.3 1.1-.5.6-.5 1.5-.1 2.2s1.1 1.1 1.9 1.2 1.6-.1 2.1-.6a1.86 1.86 0 0 0 .5-2.1c-.2-.5-1.1-1.6-2.1-1.8z"/><path id="J" d="M161.1 92.3c-.8 0-1.5.2-2.2.5-.6.3-1.2.9-1.6 1.5-.9 1.4-.5 3.4.7 4.5 1.2 1 2.9 1.5 4.4.9a3.51 3.51 0 0 0 1.9-1.7c.4-.8.6-1.7.3-2.5-.2-.7-.6-1.3-1.1-1.8-.6-.6-1.3-1.1-2.1-1.3s-1.7.2-1.8 1c-.2.8.2 1.6 1 1.8.1 0 .2.1.3.1-.1-.1-.2-.1-.4-.2.2.1.4.2.6.4-.1-.1-.2-.2-.3-.2.3.2.6.5.8.8-.1-.1-.2-.2-.2-.3.1.2.2.3.3.5-.1-.1-.1-.2-.2-.4.1.1.1.3.1.4 0-.1 0-.3-.1-.4v.5c0-.1 0-.3.1-.4 0 .2-.1.3-.1.5.1-.1.1-.2.2-.4-.1.2-.2.3-.3.5.1-.1.2-.2.2-.3l-.3.3c.1-.1.2-.2.3-.2-.2.1-.3.2-.5.3.1-.1.2-.1.4-.2-.2.1-.4.2-.7.2.1 0 .3 0 .4-.1h-.8c.1 0 .3 0 .4.1-.2 0-.5-.1-.7-.2.1.1.2.1.4.2l-.6-.3c.1.1.2.2.3.2-.2-.1-.3-.3-.4-.4.1.1.2.2.2.3-.1-.1-.2-.3-.3-.5.1.1.1.2.2.4-.1-.2-.1-.4-.2-.6 0 .1 0 .3.1.4v-.5c0 .1 0 .3-.1.4 0-.2.1-.4.1-.5-.1.1-.1.2-.2.4.1-.1.1-.2.2-.3-.1.1-.2.2-.2.3.2-.2.3-.4.6-.6-.1.1-.2.2-.3.2.2-.1.3-.2.5-.3-.1.1-.2.1-.4.2.3-.1.6-.2.9-.2-.1 0-.3 0-.4.1h.4c.4 0 .8-.1 1.1-.4s.5-.7.4-1.1c.2-.9-.4-1.7-1.3-1.6z"/><path id="K" d="M182.7 98.3c-1 .1-1.7.3-2.3 1.1-.5.6-.5 1.5-.1 2.2s1.1 1.1 1.9 1.2 1.6-.1 2.1-.6a1.86 1.86 0 0 0 .5-2.1c-.3-.5-1.2-1.6-2.1-1.8z"/><path id="L" d="M176.9 104.4c-.8.1-1.5.2-2.2.5-.6.3-1.2.9-1.6 1.5-.9 1.4-.5 3.4.7 4.5 1.2 1 2.9 1.5 4.4.9a3.51 3.51 0 0 0 1.9-1.7c.4-.8.6-1.7.3-2.5-.2-.7-.6-1.3-1.1-1.8-.6-.6-1.3-1.1-2.1-1.3s-1.7.2-1.8 1c-.2.8.2 1.6 1 1.8.1 0 .2.1.3.1-.1-.1-.2-.1-.4-.2.2.1.4.2.6.4-.1-.1-.2-.2-.3-.2.3.2.6.5.8.8-.1-.1-.2-.2-.2-.3.1.2.2.3.3.5-.1-.1-.1-.2-.2-.4.1.1.1.3.1.4 0-.1 0-.3-.1-.4v.5c0-.1 0-.3.1-.4 0 .2-.1.3-.1.5.1-.1.1-.2.2-.4-.1.2-.2.3-.3.5.1-.1.2-.2.2-.3l-.3.3c.1-.1.2-.2.3-.2-.2.1-.3.2-.5.3.1-.1.2-.1.4-.2-.2.1-.4.2-.7.2.1 0 .3 0 .4-.1h-.8c.1 0 .3 0 .4.1-.2 0-.5-.1-.7-.2.1.1.2.1.4.2l-.6-.3c.1.1.2.2.3.2-.2-.1-.3-.3-.4-.4.1.1.2.2.2.3-.1-.1-.2-.3-.3-.5.1.1.1.2.2.4-.1-.2-.1-.4-.2-.6 0 .1 0 .3.1.4v-.5c0 .1 0 .3-.1.4 0-.2.1-.4.1-.5-.1.1-.1.2-.2.4.1-.1.1-.2.2-.3-.1.1-.2.2-.2.3.2-.2.3-.4.6-.6-.1.1-.2.2-.3.2.2-.1.3-.2.5-.3-.1.1-.2.1-.4.2.3-.1.6-.2.9-.2-.1 0-.3 0-.4.1h.4c.4 0 .8-.1 1.1-.4s.5-.7.4-1.1c.2-.9-.4-1.7-1.3-1.6z"/><path id="M" d="M138 88.5c-.8.1-1.5.2-2.2.5-.6.3-1.2.9-1.6 1.5-.9 1.4-.5 3.4.7 4.5 1.2 1 2.9 1.5 4.4.9a3.51 3.51 0 0 0 1.9-1.7c.4-.8.6-1.7.3-2.5-.2-.7-.6-1.3-1.1-1.8-.6-.6-1.3-1.1-2.1-1.3s-1.7.2-1.8 1c-.2.8.2 1.6 1 1.8.1 0 .2.1.3.1-.1-.1-.2-.1-.4-.2.2.1.4.2.6.4-.1-.1-.2-.2-.3-.2.3.2.6.5.8.8-.1-.1-.2-.2-.2-.3.1.2.2.3.3.5-.1-.1-.1-.2-.2-.4.1.1.1.3.1.4 0-.1 0-.3-.1-.4v.5c0-.1 0-.3.1-.4 0 .2-.1.3-.1.5.1-.1.1-.2.2-.4-.1.2-.2.3-.3.5.1-.1.2-.2.2-.3l-.3.3c.1-.1.2-.2.3-.2-.2.1-.3.2-.5.3.1-.1.2-.1.4-.2-.2.1-.4.2-.7.2.1 0 .3 0 .4-.1h-.8c.1 0 .3 0 .4.1-.2 0-.5-.1-.7-.2.1.1.2.1.4.2l-.6-.3c.1.1.2.2.3.2-.2-.1-.3-.3-.4-.4.1.1.2.2.2.3-.1-.1-.2-.3-.3-.5.1.1.1.2.2.4-.1-.2-.1-.4-.2-.6 0 .1 0 .3.1.4v-.5c0 .1 0 .3-.1.4 0-.2.1-.4.1-.5-.1.1-.1.2-.2.4.1-.1.1-.2.2-.3-.1.1-.2.2-.2.3.2-.2.3-.4.6-.6-.1.1-.2.2-.3.2.2-.1.3-.2.5-.3-.1.1-.2.1-.4.2.3-.1.6-.2.9-.2-.1 0-.3 0-.4.1h.4c.4 0 .8-.1 1.1-.4s.5-.7.4-1.1c.2-.9-.5-1.7-1.3-1.6z"/><path id="N" d="M154.3 101.2c-.8 0-1.5.2-2.2.5-.6.3-1.2.9-1.6 1.5-.9 1.4-.5 3.4.7 4.5 1.2 1 2.9 1.5 4.4.9a3.51 3.51 0 0 0 1.9-1.7c.4-.8.6-1.7.3-2.5-.2-.7-.6-1.3-1.1-1.8-.6-.6-1.3-1.1-2.1-1.3s-1.7.2-1.8 1c-.2.8.2 1.6 1 1.8.1 0 .2.1.3.1-.1-.1-.2-.1-.4-.2.2.1.4.2.6.4-.1-.1-.2-.2-.3-.2.3.2.6.5.8.8-.1-.1-.2-.2-.2-.3.1.2.2.3.3.5-.1-.1-.1-.2-.2-.4.1.1.1.3.1.4 0-.1 0-.3-.1-.4v.5c0-.1 0-.3.1-.4 0 .2-.1.3-.1.5.1-.1.1-.2.2-.4-.1.2-.2.3-.3.5.1-.1.2-.2.2-.3l-.3.3c.1-.1.2-.2.3-.2-.2.1-.3.2-.5.3.1-.1.2-.1.4-.2-.2.1-.4.2-.7.2.1 0 .3 0 .4-.1h-.8c.1 0 .3 0 .4.1-.2 0-.5-.1-.7-.2.1.1.2.1.4.2l-.6-.3c.1.1.2.2.3.2-.2-.1-.3-.3-.4-.4.1.1.2.2.2.3-.1-.1-.2-.3-.3-.5.1.1.1.2.2.4-.1-.2-.1-.4-.2-.6 0 .1 0 .3.1.4v-.5c0 .1 0 .3-.1.4 0-.2.1-.4.1-.5-.1.1-.1.2-.2.4.1-.1.1-.2.2-.3-.1.1-.2.2-.2.3.2-.2.3-.4.6-.6-.1.1-.2.2-.3.2.2-.1.3-.2.5-.3-.1.1-.2.1-.4.2.3-.1.6-.2.9-.2-.1 0-.3 0-.4.1h.4c.4 0 .8-.1 1.1-.4s.5-.7.4-1.1c.2-.9-.4-1.6-1.3-1.6z"/><path id="O" d="M148.6 108.7c-.8 0-1.5.2-2.2.5-.6.3-1.2.9-1.6 1.5-.9 1.4-.5 3.4.7 4.5 1.2 1 2.9 1.5 4.4.9a3.51 3.51 0 0 0 1.9-1.7c.4-.8.6-1.7.3-2.5-.2-.7-.6-1.3-1.1-1.8-.6-.6-1.3-1.1-2.1-1.3s-1.7.2-1.8 1c-.2.8.2 1.6 1 1.8.1 0 .2.1.3.1-.1-.1-.2-.1-.4-.2.2.1.4.2.6.4-.1-.1-.2-.2-.3-.2.3.2.6.5.8.8-.1-.1-.2-.2-.2-.3.1.2.2.3.3.5-.1-.1-.1-.2-.2-.4.1.1.1.3.1.4 0-.1 0-.3-.1-.4v.5c0-.1 0-.3.1-.4 0 .2-.1.3-.1.5.1-.1.1-.2.2-.4-.1.2-.2.3-.3.5.1-.1.2-.2.2-.3l-.3.3c.1-.1.2-.2.3-.2-.2.1-.3.2-.5.3.1-.1.2-.1.4-.2-.2.1-.4.2-.7.2.1 0 .3 0 .4-.1h-.8c.1 0 .3 0 .4.1-.2 0-.5-.1-.7-.2.1.1.2.1.4.2l-.6-.3c.1.1.2.2.3.2-.2-.1-.3-.3-.4-.4.1.1.2.2.2.3-.1-.1-.2-.3-.3-.5.1.1.1.2.2.4-.1-.2-.1-.4-.2-.6 0 .1 0 .3.1.4v-.5c0 .1 0 .3-.1.4 0-.2.1-.4.1-.5-.1.1-.1.2-.2.4.1-.1.1-.2.2-.3-.1.1-.2.2-.2.3.2-.2.3-.4.6-.6-.1.1-.2.2-.3.2.2-.1.3-.2.5-.3-.1.1-.2.1-.4.2.3-.1.6-.2.9-.2-.1 0-.3 0-.4.1h.4c.4 0 .8-.1 1.1-.4s.5-.7.4-1.1c.2-.8-.5-1.6-1.3-1.6z"/><path id="P" d="M135.9 111.7c-1 .1-1.7.3-2.3 1.1-.5.6-.5 1.5-.1 2.2s1.1 1.1 1.9 1.2 1.6-.1 2.1-.6a1.86 1.86 0 0 0 .5-2.1c-.2-.5-1.1-1.5-2.1-1.8z"/><path id="Q" d="M121.3 111c-.8.1-1.5.2-2.2.5-.6.3-1.2.9-1.6 1.5-.9 1.4-.5 3.4.7 4.5 1.2 1 2.9 1.5 4.4.9a3.51 3.51 0 0 0 1.9-1.7c.4-.8.6-1.7.3-2.5-.2-.7-.6-1.3-1.1-1.8-.6-.6-1.3-1.1-2.1-1.3s-1.7.2-1.8 1c-.2.8.2 1.6 1 1.8.1 0 .2.1.3.1-.1-.1-.2-.1-.4-.2.2.1.4.2.6.4-.1-.1-.2-.2-.3-.2.3.2.6.5.8.8-.1-.1-.2-.2-.2-.3.1.2.2.3.3.5-.1-.1-.1-.2-.2-.4.1.1.1.3.1.4 0-.1 0-.3-.1-.4v.5c0-.1 0-.3.1-.4 0 .2-.1.3-.1.5.1-.1.1-.2.2-.4-.1.2-.2.3-.3.5.1-.1.2-.2.2-.3l-.3.3c.1-.1.2-.2.3-.2-.2.1-.3.2-.5.3.1-.1.2-.1.4-.2-.2.1-.4.2-.7.2.1 0 .3 0 .4-.1h-.8c.1 0 .3 0 .4.1-.2 0-.5-.1-.7-.2.1.1.2.1.4.2l-.6-.3c.1.1.2.2.3.2-.2-.1-.3-.3-.4-.4.1.1.2.2.2.3-.1-.1-.2-.3-.3-.5.1.1.1.2.2.4-.1-.2-.1-.4-.2-.6 0 .1 0 .3.1.4v-.5c0 .1 0 .3-.1.4 0-.2.1-.4.1-.5-.1.1-.1.2-.2.4.1-.1.1-.2.2-.3-.1.1-.2.2-.2.3.2-.2.3-.4.6-.6-.1.1-.2.2-.3.2.2-.1.3-.2.5-.3-.1.1-.2.1-.4.2.3-.1.6-.2.9-.2-.1 0-.3 0-.4.1h.4c.4 0 .8-.1 1.1-.4s.5-.7.4-1.1c.1-.9-.5-1.7-1.3-1.6z"/><path id="R" d="M26.4 101.8c.9.5 1.7 1.1 2.5 1.6.2.2.5.4.8.5.1.1.3.1.4.2 0-.3-.1-.6-.1-.8-.2 0-.9 1.2-1 1.3l-4.2 6.1c-2.8 4.2-5.5 8.4-8.6 12.3.6-.1 1.2-.2 1.8-.2-1.4-.9-2.8-1.9-4.3-2.8.2.7.4 1.4.5 2.1 4.7-6.9 10.3-13.4 14.2-20.8.9-1.7-1.7-3.2-2.6-1.5-3.9 7.4-9.5 13.9-14.2 20.8-.5.7-.1 1.6.5 2.1 1.4.9 2.8 1.9 4.3 2.8.5.3 1.4.3 1.8-.2 3.7-4.7 6.9-9.6 10.1-14.6l2.4-3.5c.7-1 1.8-2 2-3.2.3-1.4-.7-2.1-1.8-2.7s-2-1.4-3.2-2c-1.5-1-3 1.6-1.3 2.5z"/><path id="S" d="M60.4 121.1c1-.1 1.6-.4 2.2-1.2.5-.6.4-1.6 0-2.2-.4-.7-1.2-1-1.9-1.1s-1.5.2-2 .8-.7 1.4-.4 2.1c.2.4 1.1 1.4 2.1 1.6z"/><path id="T" d="M65.7 113.2c1-.1 1.6-.4 2.2-1.2.5-.6.4-1.6 0-2.2-.4-.7-1.2-1-1.9-1.1s-1.5.2-2 .8-.7 1.4-.4 2.1c.2.5 1.2 1.5 2.1 1.6z"/><path id="U" d="M72 104c1-.1 1.6-.4 2.2-1.2.5-.6.4-1.6 0-2.2-.4-.7-1.2-1-1.9-1.1s-1.5.2-2 .8-.7 1.4-.4 2.1c.2.4 1.2 1.4 2.1 1.6z"/><path id="V" d="M69.4 90.8c1-.1 1.6-.4 2.2-1.2.5-.6.4-1.6 0-2.2-.4-.7-1.2-1-1.9-1.1s-1.5.2-2 .8-.7 1.4-.4 2.1c.3.5 1.2 1.5 2.1 1.6z"/><path id="W" d="M87.4 80.6c1-.1 1.6-.4 2.2-1.2.5-.6.4-1.6 0-2.2-.4-.7-1.2-1-1.9-1.1s-1.5.2-2 .8-.7 1.4-.4 2.1c.3.4 1.2 1.4 2.1 1.6z"/><path id="X" d="M44.3 110.5c1-.1 1.7-.4 2.3-1.2.5-.6.4-1.6 0-2.2-.4-.7-1.2-1.1-2-1.1-.8-.1-1.6.2-2.1.7-.5.6-.7 1.4-.4 2.1.3.5 1.3 1.5 2.2 1.7z"/><path id="Y" d="M44.3 112c.8-.1 1.5-.2 2.1-.6.6-.3 1.2-.9 1.5-1.5.8-1.5.4-3.4-.8-4.4-1.3-1.1-3.1-1.3-4.7-.5-1.4.7-2.3 2.6-1.8 4.1.2.7.7 1.3 1.2 1.8.6.5 1.3 1 2.1 1.2.4.1.8.1 1.2-.2.3-.2.6-.5.7-.9.2-.7-.2-1.7-1-1.8-.2 0-.3-.1-.5-.1.1.1.2.1.4.2-.3-.1-.5-.3-.7-.4.1.1.2.2.3.2-.3-.2-.6-.5-.8-.8.1.1.2.2.2.3a.76.76 0 0 1-.2-.4c.1.1.1.2.2.4-.1-.1-.1-.3-.1-.4 0 .1 0 .3.1.4v-.5c0 .1 0 .3-.1.4 0-.2.1-.4.1-.5-.1.1-.1.2-.2.4.1-.2.2-.3.3-.5-.1.1-.2.2-.2.3.1-.1.2-.3.4-.4-.1.1-.2.2-.3.2.2-.1.3-.2.5-.3-.1.1-.2.1-.4.2.2-.1.4-.1.7-.2-.1 0-.3 0-.4.1h.8c-.1 0-.3 0-.4-.1.3 0 .5.1.7.2-.1-.1-.2-.1-.4-.2.2.1.4.2.6.4-.1-.1-.2-.2-.3-.2.1.1.3.2.4.4-.1-.1-.2-.2-.2-.3.1.1.2.3.3.5-.1-.1-.1-.2-.2-.4.1.2.1.4.2.6 0-.1 0-.3-.1-.4v.5c0-.1 0-.3.1-.4 0 .2-.1.3-.1.5.1-.1.1-.2.2-.4-.1.2-.2.3-.3.5.1-.1.2-.2.2-.3-.1.2-.3.3-.5.5.1-.1.2-.2.3-.2l-.6.3c.1-.1.2-.1.4-.2-.3.1-.6.2-1 .2.1 0 .3 0 .4-.1h-.1c-.4 0-.8.1-1.1.4s-.5.7-.4 1.1c0 .4.1.8.4 1.1.1 0 .5.2.9.2z"/><path id="Z" d="M49.6 102.6c1-.1 1.7-.4 2.3-1.2.5-.6.4-1.6 0-2.2-.4-.7-1.2-1.1-2-1.1-.8-.1-1.6.2-2.1.7-.5.6-.7 1.4-.4 2.1.3.6 1.3 1.6 2.2 1.7z"/><path id="a" d="M49.6 104.1c.8-.1 1.5-.2 2.1-.6.6-.3 1.2-.9 1.5-1.5.8-1.5.4-3.4-.8-4.4-1.3-1.1-3.1-1.3-4.7-.5-1.4.7-2.3 2.6-1.8 4.1.2.7.7 1.3 1.2 1.8.6.5 1.3 1 2.1 1.2.4.1.8.1 1.2-.2.3-.2.6-.5.7-.9.2-.7-.2-1.7-1-1.8-.2 0-.3-.1-.5-.1.1.1.2.1.4.2-.3-.1-.5-.3-.7-.4.1.1.2.2.3.2-.3-.2-.6-.5-.8-.8.1.1.2.2.2.3a.76.76 0 0 1-.2-.4c.1.1.1.2.2.4-.1-.1-.1-.3-.1-.4 0 .1 0 .3.1.4v-.5c0 .1 0 .3-.1.4 0-.2.1-.4.1-.5-.1.1-.1.2-.2.4.1-.2.2-.3.3-.5-.1.1-.2.2-.2.3.1-.1.2-.3.4-.4-.1.1-.2.2-.3.2.2-.1.3-.2.5-.3-.1.1-.2.1-.4.2.2-.1.4-.1.7-.2-.1 0-.3 0-.4.1h.8c-.1 0-.3 0-.4-.1.3 0 .5.1.7.2-.1-.1-.2-.1-.4-.2.2.1.4.2.6.4-.1-.1-.2-.2-.3-.2.1.1.3.2.4.4-.1-.1-.2-.2-.2-.3.1.1.2.3.3.5-.1-.1-.1-.2-.2-.4.1.2.1.4.2.6 0-.1 0-.3-.1-.4v.5c0-.1 0-.3.1-.4 0 .2-.1.3-.1.5.1-.1.1-.2.2-.4-.1.2-.2.3-.3.5.1-.1.2-.2.2-.3-.1.2-.3.3-.5.5.1-.1.2-.2.3-.2l-.6.3c.1-.1.2-.1.4-.2-.3.1-.6.2-1 .2.1 0 .3 0 .4-.1h-.1c-.4 0-.8.1-1.1.4s-.5.7-.4 1.1c0 .4.1.8.4 1.1a1.1 1.1 0 0 0 .9.2z"/><path id="b" d="M27.3 98.7c1-.1 1.7-.4 2.3-1.2.5-.6.4-1.6 0-2.2-.4-.7-1.2-1.1-2-1.1-.8-.1-1.6.2-2.1.7-.5.6-.7 1.4-.4 2.1.2.5 1.2 1.5 2.2 1.7z"/><path id="c" d="M18.7 92.8c1-.1 1.7-.4 2.3-1.2.5-.6.4-1.6 0-2.2-.4-.7-1.2-1.1-2-1.1-.8-.1-1.6.2-2.1.7-.5.6-.7 1.4-.4 2.1.2.5 1.2 1.6 2.2 1.7z"/><path id="d" d="M18.7 94.3c.8-.1 1.5-.2 2.1-.6.6-.3 1.2-.9 1.5-1.5.8-1.5.4-3.4-.8-4.4-1.3-1.1-3.1-1.3-4.7-.5-1.4.7-2.3 2.6-1.8 4.1.2.7.7 1.3 1.2 1.8.6.5 1.3 1 2.1 1.2.4.1.8.1 1.2-.2.3-.2.6-.5.7-.9.2-.7-.2-1.7-1-1.8-.2 0-.3-.1-.5-.1.1.1.2.1.4.2-.3-.1-.5-.3-.7-.4.1.1.2.2.3.2-.3-.2-.6-.5-.8-.8.1.1.2.2.2.3a.76.76 0 0 1-.2-.4c.1.1.1.2.2.4-.1-.1-.1-.3-.1-.4 0 .1 0 .3.1.4v-.5c0 .1 0 .3-.1.4 0-.2.1-.4.1-.5-.1.1-.1.2-.2.4.1-.2.2-.3.3-.5-.1.1-.2.2-.2.3.1-.1.2-.3.4-.4-.1.1-.2.2-.3.2.2-.1.3-.2.5-.3-.1.1-.2.1-.4.2.2-.1.4-.1.7-.2-.1 0-.3 0-.4.1h.8c-.1 0-.3 0-.4-.1.3 0 .5.1.7.2-.1-.1-.2-.1-.4-.2.2.1.4.2.6.4-.1-.1-.2-.2-.3-.2.1.1.3.2.4.4-.1-.1-.2-.2-.2-.3.1.1.2.3.3.5-.1-.1-.1-.2-.2-.4.1.2.1.4.2.6 0-.1 0-.3-.1-.4v.5c0-.1 0-.3.1-.4 0 .2-.1.3-.1.5.1-.1.1-.2.2-.4-.1.2-.2.3-.3.5.1-.1.2-.2.2-.3-.1.2-.3.3-.5.5.1-.1.2-.2.3-.2l-.6.3c.1-.1.2-.1.4-.2-.3.1-.6.2-1 .2.1 0 .3 0 .4-.1h-.1c-.4 0-.8.1-1.1.4s-.5.7-.4 1.1c0 .4.1.8.4 1.1.1 0 .5.3.9.2z"/><path id="e" d="M59.7 50.3c1-.1 1.7-.4 2.3-1.2.5-.6.4-1.6 0-2.2-.4-.7-1.2-1.1-2-1.1-.8-.1-1.6.2-2.1.7-.5.6-.7 1.4-.4 2.1.2.6 1.2 1.6 2.2 1.7z"/></defs><clipPath id="f"><use xlink:href="#A"/></clipPath><g class="O"><path d="M81.8 131.9c.2-4.2-.8-12.2-.8-12.2 13.4-18.9 39.1-38.4 52.7-54.1 27.4 17.3 48.7 33.5 70.8 52.5-16.2 23.8-34.2 46.5-53.6 67.8-22.8-16.2-48.1-35.8-69.1-54z" fill="#8f8f8f"/><path d="M83.3 131.9c.1-2.5-.1-5-.3-7.6-.1-1.5-.6-3.2-.5-4.6 0 .6-.1.4.2.1.2-.2.5-.6.6-.9.4-.6.9-1.2 1.3-1.7l2.9-3.5 6.1-6.7c8.8-9.3 18.5-17.9 27.8-26.7 4.6-4.4 9.2-8.8 13.4-13.6-.6.1-1.2.2-1.8.2 19.4 12.3 38.1 25.6 55.9 40.1l14.6 12.2c-.1-.6-.2-1.2-.2-1.8-12.6 18.5-26.2 36.3-40.8 53.3-4.1 4.8-8.3 9.5-12.6 14.2.6-.1 1.2-.2 1.8-.2-18.6-13.3-36.8-27.2-54.5-41.7l-14.3-12c-1.5-1.3-3.6.9-2.1 2.1 17.4 15 35.4 29.3 53.9 43l15.5 11.3c.5.4 1.4.2 1.8-.2a630.87 630.87 0 0 0 42.8-52.4c3.8-5.2 7.4-10.4 11-15.7.3-.5.2-1.4-.2-1.8-17.2-14.7-35.1-28.7-53.9-41.4-5.7-3.9-11.4-7.6-17.3-11.3-.5-.3-1.4-.2-1.8.2-8 9.2-17.3 17.2-26.1 25.6-9.3 8.7-18.6 17.6-26.2 28-.6.8-.9 1.3-.8 2.2l.3 3.2c.3 2.8.5 5.6.4 8.5 0 1.5 3 1.5 3.1-.4z"/><g class="K"><path d="M100.5 136l-12.7 15.7H92l-8.1-6.9-4.2 4.2c.3.2.5.4.8.6 1.2 1 3 1.2 4.2 0 1.1-1.1 1.2-3.2 0-4.2-.3-.2-.5-.4-.8-.6-1.2-1-3-1.2-4.2 0-1.1 1.1-1.2 3.2 0 4.2l8.1 6.9c1.1 1 3.2 1.4 4.2 0 4.1-5.3 8.4-10.5 12.7-15.7 1-1.2 1.2-3 0-4.2-1.1-1.1-3.2-1.3-4.2 0h0zm23.8 19l-12.7 14.6c-1.1 1.3-1.1 3 0 4.2 2.4 2.7 5.7 4.5 8.1 7.2 1.1 1.2 3.1 1.1 4.2 0 1.2-1.2 1.1-3 0-4.2-2.4-2.7-5.7-4.5-8.1-7.2v4.2l12.7-14.6c1.1-1.2 1.2-3 0-4.2-1-1.1-3.1-1.3-4.2 0h0z"/></g><path d="M183.5 96.8c-1.6-.9-2-1.6-3.6-2.5-.2-.1-.4-.3-.5-.5-.1-.3 0-.5.2-.7 5-6.1 9.6-13.2 15.1-19.3 1.4 1 2.7 2 4.1 3.1-4 5.2-11.9 14.3-15.3 19.9z" class="N"/><path d="M184.3 95.5l-2.6-1.9c-.2-.1-.4-.3-.6-.4-.1-.1-.2-.1-.4-.2.1.3.2.5.2.8.2 0 1-1.2 1.1-1.4l4.5-5.9c3-4 5.9-8 9.2-11.7-.6.1-1.2.2-1.8.2 1.4 1 2.7 2 4.1 3.1-.2-.7-.4-1.4-.5-2.1-5.1 6.6-11 12.8-15.3 20-1 1.7 1.6 3.2 2.6 1.5 4.3-7.2 10.2-13.4 15.3-20 .5-.7 0-1.6-.5-2.1-1.4-1-2.7-2-4.1-3.1-.5-.4-1.4-.2-1.8.2-3.9 4.4-7.3 9.2-10.8 13.8-.8 1.1-1.7 2.2-2.5 3.3-.8 1-2 2-2.3 3.2-.4 1.4.5 2.1 1.6 2.8s2.1 1.6 3.2 2.3c1.5 1.2 3-1.4 1.4-2.4z" class="M"/><use xlink:href="#B" class="N"/><path d="M176.1 89.4l-2.6-1.9c-.2-.1-.4-.3-.6-.4-.1-.1-.2-.1-.4-.2.1.3.2.5.2.8.2 0 1-1.2 1.1-1.4l4.5-5.9c3-4 5.9-8 9.2-11.7-.6.1-1.2.2-1.8.2 1.4 1 2.7 2 4.1 3.1-.2-.7-.4-1.4-.5-2.1-5.1 6.6-11 12.8-15.3 20-1 1.7 1.6 3.2 2.6 1.5 4.3-7.2 10.2-13.4 15.3-20 .5-.7 0-1.6-.5-2.1-1.4-1-2.7-2-4.1-3.1-.5-.4-1.4-.2-1.8.2-3.9 4.4-7.3 9.2-10.8 13.8-.8 1.1-1.7 2.2-2.5 3.3-.8 1-2 2-2.3 3.2-.4 1.4.5 2.1 1.6 2.8s2.1 1.6 3.2 2.3c1.5 1.1 3-1.4 1.4-2.4z" class="M"/><path d="M167.1 84.5c-1.6-.9-2-1.6-3.6-2.5-.2-.1-.4-.3-.5-.5-.1-.3 0-.5.2-.7 5-6.1 9.6-13.2 15.1-19.3 1.4 1 2.7 2 4.1 3.1-4 5.1-11.9 14.2-15.3 19.9z" class="N"/><use xlink:href="#C" class="M"/><path d="M158.9 78.3c-1.6-.9-2-1.6-3.6-2.5-.2-.1-.4-.3-.5-.5-.1-.3 0-.5.2-.7 5-6.1 9.6-13.2 15.1-19.3 1.4 1 2.7 2 4.1 3.1-4 5.1-12 14.2-15.3 19.9z" class="N"/><path d="M159.6 77l-2.6-1.9c-.2-.1-.4-.3-.6-.4-.1-.1-.2-.1-.4-.2.1.3.2.5.2.8.2 0 1-1.2 1.1-1.4l4.5-5.9c3-4 5.9-8 9.2-11.7-.6.1-1.2.2-1.8.2 1.4 1 2.7 2 4.1 3.1-.2-.7-.4-1.4-.5-2.1-5.1 6.6-11 12.8-15.3 20-1 1.7 1.6 3.2 2.6 1.5 4.3-7.2 10.2-13.4 15.3-20 .5-.7 0-1.6-.5-2.1-1.4-1-2.7-2-4.1-3.1-.5-.4-1.4-.2-1.8.2-3.9 4.4-7.3 9.2-10.8 13.8-.8 1.1-1.7 2.2-2.5 3.3-.8 1-2 2-2.3 3.2-.4 1.4.5 2.1 1.6 2.8s2.1 1.6 3.2 2.3c1.6 1.2 3.1-1.4 1.4-2.4z" class="M"/><path d="M150.7 72.1c-1.6-.9-2-1.6-3.6-2.5-.2-.1-.4-.3-.5-.5-.1-.3 0-.5.2-.7 5-6.1 9.6-13.2 15.1-19.3 1.4 1 2.7 2 4.1 3.1-4 5.2-12 14.3-15.3 19.9z" class="N"/><path d="M151.4 70.8l-2.6-1.9c-.2-.1-.4-.3-.6-.4-.1-.1-.2-.1-.4-.2.1.3.2.5.2.8.2 0 1-1.2 1.1-1.4l4.5-5.9c3-4 5.9-8 9.2-11.7-.6.1-1.2.2-1.8.2 1.4 1 2.7 2 4.1 3.1-.2-.7-.4-1.4-.5-2.1-5.1 6.6-11 12.8-15.3 20-1 1.7 1.6 3.2 2.6 1.5 4.3-7.2 10.2-13.4 15.3-20 .5-.7 0-1.6-.5-2.1-1.4-1-2.7-2-4.1-3.1-.5-.4-1.4-.2-1.8.2-3.9 4.4-7.3 9.2-10.8 13.8-.8 1.1-1.7 2.2-2.5 3.3-.8 1-2 2-2.3 3.2-.4 1.4.5 2.1 1.6 2.8s2.1 1.6 3.2 2.3c1.5 1.2 3.1-1.4 1.4-2.4z" class="M"/><path d="M80.8 119.9c12.9-18.8 37-49.2 51.8-66.3 27.4 17.3 48.7 33.5 70.8 52.5-16.2 23.8-34.2 46.5-53.6 67.8-22.7-16.2-48-35.8-69-54z" fill="#323232"/><path d="M82.1 120.6c12.6-18.4 26.6-36 40.7-53.1l10.9-12.9c-.6.1-1.2.2-1.8.2 19.4 12.3 38.1 25.6 55.9 40.1l14.6 12.2c-.1-.6-.2-1.2-.2-1.8-12.6 18.5-26.2 36.3-40.8 53.3-4.1 4.8-8.3 9.5-12.6 14.2.6-.1 1.2-.2 1.8-.2-18.6-13.3-36.8-27.2-54.5-41.7l-14.3-12c-1.5-1.3-3.6.9-2.1 2.1 17.4 15 35.4 29.3 53.9 43l15.5 11.3c.5.4 1.4.2 1.8-.2a630.87 630.87 0 0 0 42.8-52.4c3.8-5.2 7.4-10.4 11-15.7.3-.5.2-1.4-.2-1.8-17.2-14.7-35.1-28.7-53.9-41.4-5.7-3.9-11.4-7.6-17.3-11.3-.5-.3-1.4-.3-1.8.2-14.7 17-28.7 34.7-42.1 52.7l-10 13.9c-1 1.4 1.6 2.9 2.7 1.3z"/><g class="K"><use xlink:href="#D"/><path d="M129.4 69.6c-1 .1-1.7.3-2.3 1.1-.5.6-.5 1.5-.2 2.2.4.7 1.1 1.1 1.9 1.2.7.1 1.5-.1 2.1-.6a1.86 1.86 0 0 0 .5-2.1c-.2-.6-1.1-1.6-2-1.8zm13.2-1.7c-1 .1-1.7.3-2.3 1.1-.5.6-.5 1.5-.2 2.2.4.7 1.1 1.1 1.9 1.2.7.1 1.5-.1 2.1-.6a1.86 1.86 0 0 0 .5-2.1c-.1-.6-1-1.7-2-1.8z"/></g><g class="L"><path d="M136.9 75.4c-1 .1-1.7.3-2.3 1.1-.5.6-.5 1.5-.2 2.2.4.7 1.1 1.1 1.9 1.2.7.1 1.5-.1 2.1-.6a1.86 1.86 0 0 0 .5-2.1c-.2-.6-1.1-1.6-2-1.8z"/><path d="M136.9 73.9c-.8.1-1.5.2-2.2.6-.6.3-1.2.9-1.6 1.5-.8 1.4-.5 3.3.7 4.4 1.3 1.1 3 1.3 4.6.6 1.5-.7 2.3-2.4 2-4-.2-.7-.6-1.3-1.1-1.8-.5-.6-1.3-1.1-2-1.3-.8-.2-1.7.2-1.8 1-.2.8.2 1.7 1 1.8.1 0 .2.1.3.1-.1-.1-.2-.1-.4-.2.2.1.4.2.6.4-.1-.1-.2-.2-.3-.2.3.2.5.5.8.8-.1-.1-.2-.2-.2-.3.1.2.2.3.3.5-.1-.1-.1-.2-.2-.4 0 .1.1.2.1.4 0-.1 0-.3-.1-.4v.5c0-.1 0-.3.1-.4 0 .2-.1.3-.1.5.1-.1.1-.2.2-.4-.1.2-.2.3-.3.5.1-.1.2-.2.2-.3-.1.1-.2.3-.4.4.1-.1.2-.2.3-.2-.2.1-.3.2-.5.3.1-.1.2-.1.4-.2-.2.1-.5.2-.7.2.1 0 .3 0 .4-.1h-.7c.1 0 .3 0 .4.1-.2 0-.5-.1-.7-.2.1.1.2.1.4.2l-.6-.3c.1.1.2.2.3.2-.2-.1-.3-.3-.4-.4.1.1.2.2.2.3-.1-.1-.2-.3-.3-.5.1.1.1.2.2.4-.1-.2-.1-.3-.1-.5 0 .1 0 .3.1.4v-.6c0 .1 0 .3-.1.4 0-.2.1-.3.1-.5-.1.1-.1.2-.2.4.1-.1.1-.2.2-.3-.1.1-.2.2-.2.3.2-.2.3-.4.6-.6-.1.1-.2.2-.3.2.2-.1.3-.2.5-.3-.1.1-.2.1-.4.2.3-.1.6-.2.9-.2-.1 0-.3 0-.4.1h.3c.4 0 .8-.1 1.1-.4s.5-.7.4-1.1c.1-.9-.6-1.7-1.4-1.6z"/></g><path d="M122.6 78.5c-1 .1-1.7.3-2.3 1.1-.5.6-.5 1.5-.2 2.2.4.7 1.1 1.1 1.9 1.2.7.1 1.5-.1 2.1-.6a1.86 1.86 0 0 0 .5-2.1c-.2-.6-1.1-1.6-2-1.8z" class="K"/><g class="L"><use xlink:href="#E"/><path d="M116.8 84.5c-.8.1-1.5.2-2.2.6-.6.3-1.2.9-1.6 1.5-.8 1.4-.5 3.3.7 4.4 1.3 1.1 3 1.3 4.6.6 1.5-.7 2.3-2.4 2-4-.2-.7-.6-1.3-1.1-1.8-.5-.6-1.3-1.1-2-1.3-.8-.2-1.7.2-1.8 1-.2.8.2 1.7 1 1.8.1 0 .2.1.3.1-.1-.1-.2-.1-.4-.2.2.1.4.2.6.4-.1-.1-.2-.2-.3-.2.3.2.5.5.8.8-.1-.1-.2-.2-.2-.3.1.2.2.3.3.5-.1-.1-.1-.2-.2-.4 0 .1.1.2.1.4 0-.1 0-.3-.1-.4v.5c0-.1 0-.3.1-.4 0 .2-.1.3-.1.5.1-.1.1-.2.2-.4-.1.2-.2.3-.3.5.1-.1.2-.2.2-.3-.1.1-.2.3-.4.4.1-.1.2-.2.3-.2-.2.1-.3.2-.5.3.1-.1.2-.1.4-.2-.2.1-.5.2-.7.2.1 0 .3 0 .4-.1h-.7c.1 0 .3 0 .4.1-.2 0-.5-.1-.7-.2.1.1.2.1.4.2l-.6-.3c.1.1.2.2.3.2-.2-.1-.3-.3-.4-.4.1.1.2.2.2.3-.1-.1-.2-.3-.3-.5.1.1.1.2.2.4-.1-.2-.1-.3-.1-.5 0 .1 0 .3.1.4v-.6c0 .1 0 .3-.1.4 0-.2.1-.3.1-.5-.1.1-.1.2-.2.4.1-.1.1-.2.2-.3-.1.1-.2.2-.2.3.2-.2.3-.4.6-.6-.1.1-.2.2-.3.2.2-.1.3-.2.5-.3-.1.1-.2.1-.4.2.3-.1.6-.2.9-.2-.1 0-.3 0-.4.1h.3c.4 0 .8-.1 1.1-.4s.5-.7.4-1.1c.1-.8-.5-1.6-1.4-1.6z"/></g><path d="M130.1 84.3c-1 .1-1.7.3-2.3 1.1-.5.6-.5 1.5-.2 2.2.4.7 1.1 1.1 1.9 1.2.7.1 1.5-.1 2.1-.6a1.86 1.86 0 0 0 .5-2.1c-.2-.6-1.1-1.6-2-1.8z" class="K"/><g class="L"><path d="M124.4 91.8c-1 .1-1.7.3-2.3 1.1-.5.6-.5 1.5-.2 2.2.4.7 1.1 1.1 1.9 1.2.7.1 1.5-.1 2.1-.6a1.86 1.86 0 0 0 .5-2.1c-.2-.6-1.1-1.6-2-1.8z"/><path d="M124.4 90.3c-.8.1-1.5.2-2.2.6-.6.3-1.2.9-1.6 1.5-.8 1.4-.5 3.3.7 4.4 1.3 1.1 3 1.3 4.6.6 1.5-.7 2.3-2.4 2-4-.2-.7-.6-1.3-1.1-1.8-.5-.6-1.3-1.1-2-1.3-.8-.2-1.7.2-1.8 1-.2.8.2 1.7 1 1.8.1 0 .2.1.3.1-.1-.1-.2-.1-.4-.2.2.1.4.2.6.4-.1-.1-.2-.2-.3-.2.3.2.5.5.8.8-.1-.1-.2-.2-.2-.3.1.2.2.3.3.5-.1-.1-.1-.2-.2-.4 0 .1.1.2.1.4 0-.1 0-.3-.1-.4v.5c0-.1 0-.3.1-.4 0 .2-.1.3-.1.5.1-.1.1-.2.2-.4-.1.2-.2.3-.3.5.1-.1.2-.2.2-.3-.1.1-.2.3-.4.4.1-.1.2-.2.3-.2-.2.1-.3.2-.5.3.1-.1.2-.1.4-.2-.2.1-.5.2-.7.2.1 0 .3 0 .4-.1h-.7c.1 0 .3 0 .4.1-.2 0-.5-.1-.7-.2.1.1.2.1.4.2l-.6-.3c.1.1.2.2.3.2-.2-.1-.3-.3-.4-.4.1.1.2.2.2.3-.1-.1-.2-.3-.3-.5.1.1.1.2.2.4-.1-.2-.1-.3-.1-.5 0 .1 0 .3.1.4v-.6c0 .1 0 .3-.1.4 0-.2.1-.3.1-.5-.1.1-.1.2-.2.4.1-.1.1-.2.2-.3-.1.1-.2.2-.2.3.2-.2.3-.4.6-.6-.1.1-.2.2-.3.2.2-.1.3-.2.5-.3-.1.1-.2.1-.4.2.3-.1.6-.2.9-.2-.1 0-.3 0-.4.1h.3c.4 0 .8-.1 1.1-.4s.5-.7.4-1.1c0-.9-.6-1.7-1.4-1.6z"/></g><g class="K"><path d="M112 93.5c-1 .1-1.7.3-2.3 1.1-.5.6-.5 1.5-.2 2.2.4.7 1.1 1.1 1.9 1.2.7.1 1.5-.1 2.1-.6a1.86 1.86 0 0 0 .5-2.1c-.2-.6-1.1-1.6-2-1.8zm7.5 5.8c-1 .1-1.7.3-2.3 1.1-.5.6-.5 1.5-.2 2.2.4.7 1.1 1.1 1.9 1.2.7.1 1.5-.1 2.1-.6a1.86 1.86 0 0 0 .5-2.1c-.2-.6-1.1-1.6-2-1.8zm-13.7 1.7c-1 .1-1.7.3-2.3 1.1-.5.6-.5 1.5-.2 2.2.4.7 1.1 1.1 1.9 1.2.7.1 1.5-.1 2.1-.6a1.86 1.86 0 0 0 .5-2.1c-.2-.5-1.1-1.6-2-1.8zm-5.7 7.5c-1 .1-1.7.3-2.3 1.1-.5.6-.5 1.5-.2 2.2.4.7 1.1 1.1 1.9 1.2.7.1 1.5-.1 2.1-.6a1.86 1.86 0 0 0 .5-2.1c-.2-.5-1.1-1.6-2-1.8zm13.3-1.7c-1 .1-1.7.3-2.3 1.1-.5.6-.5 1.5-.2 2.2.4.7 1.1 1.1 1.9 1.2.7.1 1.5-.1 2.1-.6a1.86 1.86 0 0 0 .5-2.1c-.2-.6-1.1-1.6-2-1.8z"/></g><g class="L"><path d="M107.6 114.3c-1 .1-1.7.3-2.3 1.1-.5.6-.5 1.5-.2 2.2.4.7 1.1 1.1 1.9 1.2.7.1 1.5-.1 2.1-.6a1.86 1.86 0 0 0 .5-2.1c-.2-.6-1.1-1.6-2-1.8z"/><path d="M107.6 112.8c-.8.1-1.5.2-2.2.6-.6.3-1.2.9-1.6 1.5-.8 1.4-.5 3.3.7 4.4 1.3 1.1 3 1.3 4.6.6 1.5-.7 2.3-2.4 2-4-.2-.7-.6-1.3-1.1-1.8-.5-.6-1.3-1.1-2-1.3-.8-.2-1.7.2-1.8 1-.2.8.2 1.7 1 1.8.1 0 .2.1.3.1-.1-.1-.2-.1-.4-.2.2.1.4.2.6.4-.1-.1-.2-.2-.3-.2.3.2.5.5.8.8-.1-.1-.2-.2-.2-.3.1.2.2.3.3.5-.1-.1-.1-.2-.2-.4 0 .1.1.2.1.4 0-.1 0-.3-.1-.4v.5c0-.1 0-.3.1-.4 0 .2-.1.3-.1.5.1-.1.1-.2.2-.4-.1.2-.2.3-.3.5.1-.1.2-.2.2-.3-.1.1-.2.3-.4.4.1-.1.2-.2.3-.2-.2.1-.3.2-.5.3.1-.1.2-.1.4-.2-.2.1-.5.2-.7.2.1 0 .3 0 .4-.1h-.7c.1 0 .3 0 .4.1-.2 0-.5-.1-.7-.2.1.1.2.1.4.2l-.6-.3c.1.1.2.2.3.2-.2-.1-.3-.3-.4-.4.1.1.2.2.2.3-.1-.1-.2-.3-.3-.5.1.1.1.2.2.4-.1-.2-.1-.3-.1-.5 0 .1 0 .3.1.4v-.6c0 .1 0 .3-.1.4 0-.2.1-.3.1-.5-.1.1-.1.2-.2.4.1-.1.1-.2.2-.3-.1.1-.2.2-.2.3.2-.2.3-.4.6-.6-.1.1-.2.2-.3.2.2-.1.3-.2.5-.3-.1.1-.2.1-.4.2.3-.1.6-.2.9-.2-.1 0-.3 0-.4.1h.3c.4 0 .8-.1 1.1-.4s.5-.7.4-1.1c.1-.9-.5-1.7-1.4-1.6z"/></g><g class="K"><path d="M93.4 117.3c-1 .1-1.7.3-2.3 1.1-.5.6-.5 1.5-.2 2.2.4.7 1.1 1.1 1.9 1.2.7.1 1.5-.1 2.1-.6a1.86 1.86 0 0 0 .5-2.1c-.2-.6-1.1-1.6-2-1.8zm7.6 5.7c-1 .1-1.7.3-2.3 1.1-.5.6-.5 1.5-.2 2.2.4.7 1.1 1.1 1.9 1.2.7.1 1.5-.1 2.1-.6a1.86 1.86 0 0 0 .5-2.1c-.2-.5-1.1-1.6-2-1.8z"/><use xlink:href="#F"/><use xlink:href="#G"/><use xlink:href="#H"/><path d="M153.4 87.8c-1 .1-1.7.3-2.3 1.1-.5.6-.5 1.5-.1 2.2s1.1 1.1 1.9 1.2 1.6-.1 2.1-.6a1.86 1.86 0 0 0 .5-2.1c-.3-.5-1.2-1.5-2.1-1.8z"/></g><g class="L"><path d="M166.9 86.3c-1 .1-1.7.3-2.3 1.1-.5.6-.5 1.5-.1 2.2s1.1 1.1 1.9 1.2 1.6-.1 2.1-.6a1.86 1.86 0 0 0 .5-2.1c-.2-.5-1.2-1.6-2.1-1.8z"/><path d="M166.9 84.8c-.8 0-1.5.2-2.2.5-.6.3-1.2.9-1.6 1.5-.9 1.4-.5 3.4.7 4.5 1.2 1 2.9 1.5 4.4.9a3.51 3.51 0 0 0 1.9-1.7c.4-.8.6-1.7.3-2.5-.2-.7-.6-1.3-1.1-1.8-.6-.6-1.3-1.1-2.1-1.3s-1.7.2-1.8 1c-.2.8.2 1.6 1 1.8.1 0 .2.1.3.1-.1-.1-.2-.1-.4-.2.2.1.4.2.6.4-.1-.1-.2-.2-.3-.2.3.2.6.5.8.8-.1-.1-.2-.2-.2-.3.1.2.2.3.3.5-.1-.1-.1-.2-.2-.4.1.1.1.3.1.4 0-.1 0-.3-.1-.4v.5c0-.1 0-.3.1-.4 0 .2-.1.3-.1.5.1-.1.1-.2.2-.4-.1.2-.2.3-.3.5.1-.1.2-.2.2-.3l-.3.3c.1-.1.2-.2.3-.2-.2.1-.3.2-.5.3.1-.1.2-.1.4-.2-.2.1-.4.2-.7.2.1 0 .3 0 .4-.1h-.8c.1 0 .3 0 .4.1-.2 0-.5-.1-.7-.2.1.1.2.1.4.2l-.6-.3c.1.1.2.2.3.2-.2-.1-.3-.3-.4-.4.1.1.2.2.2.3-.1-.1-.2-.3-.3-.5.1.1.1.2.2.4-.1-.2-.1-.4-.2-.6 0 .1 0 .3.1.4v-.5c0 .1 0 .3-.1.4 0-.2.1-.4.1-.5-.1.1-.1.2-.2.4.1-.1.1-.2.2-.3-.1.1-.2.2-.2.3.2-.2.3-.4.6-.6-.1.1-.2.2-.3.2.2-.1.3-.2.5-.3-.1.1-.2.1-.4.2.3-.1.6-.2.9-.2-.1 0-.3 0-.4.1h.4c.4 0 .8-.1 1.1-.4s.5-.7.4-1.1c.2-.9-.5-1.7-1.3-1.6z"/><use xlink:href="#I"/><use xlink:href="#J"/></g><g class="K"><path d="M175.1 92.6c-1 .1-1.7.3-2.3 1.1-.5.6-.5 1.5-.1 2.2s1.1 1.1 1.9 1.2 1.6-.1 2.1-.6a1.86 1.86 0 0 0 .5-2.1c-.2-.5-1.1-1.6-2.1-1.8zm-5.7 7.5c-1 .1-1.7.3-2.3 1.1-.5.6-.5 1.5-.1 2.2s1.1 1.1 1.9 1.2 1.6-.1 2.1-.6a1.86 1.86 0 0 0 .5-2.1c-.2-.5-1.2-1.6-2.1-1.8z"/><use xlink:href="#K"/></g><g class="L"><path d="M176.9 105.9c-1 .1-1.7.3-2.3 1.1-.5.6-.5 1.5-.1 2.2s1.1 1.1 1.9 1.2 1.6-.1 2.1-.6a1.86 1.86 0 0 0 .5-2.1c-.2-.6-1.1-1.6-2.1-1.8z"/><use xlink:href="#L"/></g><g class="K"><path d="M190.5 104.3c-1 .1-1.7.3-2.3 1.1-.5.6-.5 1.5-.1 2.2s1.1 1.1 1.9 1.2 1.6-.1 2.1-.6a1.86 1.86 0 0 0 .5-2.1c-.3-.5-1.2-1.6-2.1-1.8zm-5.8 7.5c-1 .1-1.7.3-2.3 1.1-.5.6-.5 1.5-.1 2.2s1.1 1.1 1.9 1.2 1.6-.1 2.1-.6a1.86 1.86 0 0 0 .5-2.1c-.2-.5-1.1-1.6-2.1-1.8z"/></g><g class="L"><path d="M138 90c-1 .1-1.7.3-2.3 1.1-.5.6-.5 1.5-.1 2.2s1.1 1.1 1.9 1.2 1.6-.1 2.1-.6a1.86 1.86 0 0 0 .5-2.1c-.2-.5-1.2-1.6-2.1-1.8z"/><use xlink:href="#M"/><path d="M132.3 97.5c-1 .1-1.7.3-2.3 1.1-.5.6-.5 1.5-.1 2.2s1.1 1.1 1.9 1.2 1.6-.1 2.1-.6a1.86 1.86 0 0 0 .5-2.1c-.3-.5-1.2-1.6-2.1-1.8z"/><path d="M132.3 96c-.8 0-1.5.2-2.2.5-.6.3-1.2.9-1.6 1.5-.9 1.4-.5 3.4.7 4.5 1.2 1 2.9 1.5 4.4.9a3.51 3.51 0 0 0 1.9-1.7c.4-.8.6-1.7.3-2.5-.2-.7-.6-1.3-1.1-1.8-.6-.6-1.3-1.1-2.1-1.3s-1.7.2-1.8 1c-.2.8.2 1.6 1 1.8.1 0 .2.1.3.1-.1-.1-.2-.1-.4-.2.2.1.4.2.6.4-.1-.1-.2-.2-.3-.2.3.2.6.5.8.8-.1-.1-.2-.2-.2-.3.1.2.2.3.3.5-.1-.1-.1-.2-.2-.4.1.1.1.3.1.4 0-.1 0-.3-.1-.4v.5c0-.1 0-.3.1-.4 0 .2-.1.3-.1.5.1-.1.1-.2.2-.4-.1.2-.2.3-.3.5.1-.1.2-.2.2-.3l-.3.3c.1-.1.2-.2.3-.2-.2.1-.3.2-.5.3.1-.1.2-.1.4-.2-.2.1-.4.2-.7.2.1 0 .3 0 .4-.1h-.8c.1 0 .3 0 .4.1-.2 0-.5-.1-.7-.2.1.1.2.1.4.2l-.6-.3c.1.1.2.2.3.2-.2-.1-.3-.3-.4-.4.1.1.2.2.2.3-.1-.1-.2-.3-.3-.5.1.1.1.2.2.4-.1-.2-.1-.4-.2-.6 0 .1 0 .3.1.4v-.5c0 .1 0 .3-.1.4 0-.2.1-.4.1-.5-.1.1-.1.2-.2.4.1-.1.1-.2.2-.3-.1.1-.2.2-.2.3.2-.2.3-.4.6-.6-.1.1-.2.2-.3.2.2-.1.3-.2.5-.3-.1.1-.2.1-.4.2.3-.1.6-.2.9-.2-.1 0-.3 0-.4.1h.4c.4 0 .8-.1 1.1-.4s.5-.7.4-1.1c.1-.9-.5-1.7-1.3-1.6z"/></g><path d="M146.5 96.8c-1 .1-1.7.3-2.3 1.1-.5.6-.5 1.5-.1 2.2s1.1 1.1 1.9 1.2 1.6-.1 2.1-.6a1.86 1.86 0 0 0 .5-2.1c-.2-.6-1.1-1.6-2.1-1.8z" class="K"/><g class="L"><path d="M140.8 104.3c-1 .1-1.7.3-2.3 1.1-.5.6-.5 1.5-.1 2.2s1.1 1.1 1.9 1.2 1.6-.1 2.1-.6a1.86 1.86 0 0 0 .5-2.1c-.2-.5-1.2-1.6-2.1-1.8z"/><path d="M140.8 102.8c-.8.1-1.5.2-2.2.5-.6.3-1.2.9-1.6 1.5-.9 1.4-.5 3.4.7 4.5 1.2 1 2.9 1.5 4.4.9a3.51 3.51 0 0 0 1.9-1.7c.4-.8.6-1.7.3-2.5-.2-.7-.6-1.3-1.1-1.8-.6-.6-1.3-1.1-2.1-1.3s-1.7.2-1.8 1c-.2.8.2 1.6 1 1.8.1 0 .2.1.3.1-.1-.1-.2-.1-.4-.2.2.1.4.2.6.4-.1-.1-.2-.2-.3-.2.3.2.6.5.8.8-.1-.1-.2-.2-.2-.3.1.2.2.3.3.5-.1-.1-.1-.2-.2-.4.1.1.1.3.1.4 0-.1 0-.3-.1-.4v.5c0-.1 0-.3.1-.4 0 .2-.1.3-.1.5.1-.1.1-.2.2-.4-.1.2-.2.3-.3.5.1-.1.2-.2.2-.3l-.3.3c.1-.1.2-.2.3-.2-.2.1-.3.2-.5.3.1-.1.2-.1.4-.2-.2.1-.4.2-.7.2.1 0 .3 0 .4-.1h-.8c.1 0 .3 0 .4.1-.2 0-.5-.1-.7-.2.1.1.2.1.4.2l-.6-.3c.1.1.2.2.3.2-.2-.1-.3-.3-.4-.4.1.1.2.2.2.3-.1-.1-.2-.3-.3-.5.1.1.1.2.2.4-.1-.2-.1-.4-.2-.6 0 .1 0 .3.1.4v-.5c0 .1 0 .3-.1.4 0-.2.1-.4.1-.5-.1.1-.1.2-.2.4.1-.1.1-.2.2-.3-.1.1-.2.2-.2.3.2-.2.3-.4.6-.6-.1.1-.2.2-.3.2.2-.1.3-.2.5-.3-.1.1-.2.1-.4.2.3-.1.6-.2.9-.2-.1 0-.3 0-.4.1h.4c.4 0 .8-.1 1.1-.4s.5-.7.4-1.1c.2-.9-.5-1.7-1.3-1.6zm13.5-.1c-1 .1-1.7.3-2.3 1.1-.5.6-.5 1.5-.1 2.2s1.1 1.1 1.9 1.2 1.6-.1 2.1-.6a1.86 1.86 0 0 0 .5-2.1c-.2-.5-1.1-1.6-2.1-1.8z"/><use xlink:href="#N"/><path d="M148.6 110.2c-1 .1-1.7.3-2.3 1.1-.5.6-.5 1.5-.1 2.2s1.1 1.1 1.9 1.2 1.6-.1 2.1-.6a1.86 1.86 0 0 0 .5-2.1c-.2-.5-1.2-1.6-2.1-1.8z"/><use xlink:href="#O"/><path d="M162.6 109c-1 .1-1.7.3-2.3 1.1-.5.6-.5 1.5-.1 2.2s1.1 1.1 1.9 1.2 1.6-.1 2.1-.6a1.86 1.86 0 0 0 .5-2.1c-.2-.5-1.2-1.6-2.1-1.8z"/><path d="M162.6 107.5c-.8.1-1.5.2-2.2.5-.6.3-1.2.9-1.6 1.5-.9 1.4-.5 3.4.7 4.5 1.2 1 2.9 1.5 4.4.9a3.51 3.51 0 0 0 1.9-1.7c.4-.8.6-1.7.3-2.5-.2-.7-.6-1.3-1.1-1.8-.6-.6-1.3-1.1-2.1-1.3s-1.7.2-1.8 1c-.2.8.2 1.6 1 1.8.1 0 .2.1.3.1-.1-.1-.2-.1-.4-.2.2.1.4.2.6.4-.1-.1-.2-.2-.3-.2.3.2.6.5.8.8-.1-.1-.2-.2-.2-.3.1.2.2.3.3.5-.1-.1-.1-.2-.2-.4.1.1.1.3.1.4 0-.1 0-.3-.1-.4v.5c0-.1 0-.3.1-.4 0 .2-.1.3-.1.5.1-.1.1-.2.2-.4-.1.2-.2.3-.3.5.1-.1.2-.2.2-.3l-.3.3c.1-.1.2-.2.3-.2-.2.1-.3.2-.5.3.1-.1.2-.1.4-.2-.2.1-.4.2-.7.2.1 0 .3 0 .4-.1h-.8c.1 0 .3 0 .4.1-.2 0-.5-.1-.7-.2.1.1.2.1.4.2l-.6-.3c.1.1.2.2.3.2-.2-.1-.3-.3-.4-.4.1.1.2.2.2.3-.1-.1-.2-.3-.3-.5.1.1.1.2.2.4-.1-.2-.1-.4-.2-.6 0 .1 0 .3.1.4v-.5c0 .1 0 .3-.1.4 0-.2.1-.4.1-.5-.1.1-.1.2-.2.4.1-.1.1-.2.2-.3-.1.1-.2.2-.2.3.2-.2.3-.4.6-.6-.1.1-.2.2-.3.2.2-.1.3-.2.5-.3-.1.1-.2.1-.4.2.3-.1.6-.2.9-.2-.1 0-.3 0-.4.1h.4c.4 0 .8-.1 1.1-.4s.5-.7.4-1.1c.2-.8-.5-1.6-1.3-1.6z"/></g><g class="K"><path d="M156.9 116.5c-1 .1-1.7.3-2.3 1.1-.5.6-.5 1.5-.1 2.2s1.1 1.1 1.9 1.2 1.6-.1 2.1-.6a1.86 1.86 0 0 0 .5-2.1c-.3-.5-1.2-1.6-2.1-1.8zm13.2-1.7c-1 .1-1.7.3-2.3 1.1-.5.6-.5 1.5-.1 2.2s1.1 1.1 1.9 1.2 1.6-.1 2.1-.6a1.86 1.86 0 0 0 .5-2.1c-.2-.5-1.1-1.6-2.1-1.8zm-5.7 7.5c-1 .1-1.7.3-2.3 1.1-.5.6-.5 1.5-.1 2.2s1.1 1.1 1.9 1.2 1.6-.1 2.1-.6a1.86 1.86 0 0 0 .5-2.1c-.2-.5-1.2-1.6-2.1-1.8zm13.5-1.6c-1 .1-1.7.3-2.3 1.1-.5.6-.5 1.5-.1 2.2s1.1 1.1 1.9 1.2 1.6-.1 2.1-.6a1.86 1.86 0 0 0 .5-2.1c-.2-.5-1.2-1.6-2.1-1.8zm-5.7 7.5c-1 .1-1.7.3-2.3 1.1-.5.6-.5 1.5-.1 2.2s1.1 1.1 1.9 1.2 1.6-.1 2.1-.6a1.86 1.86 0 0 0 .5-2.1c-.3-.5-1.2-1.6-2.1-1.8zM127.4 105c-1 .1-1.7.3-2.3 1.1-.5.6-.5 1.5-.1 2.2s1.1 1.1 1.9 1.2 1.6-.1 2.1-.6a1.86 1.86 0 0 0 .5-2.1c-.2-.6-1.2-1.6-2.1-1.8z"/></g><g class="L"><use xlink:href="#P"/><path d="M135.9 110.2c-.8 0-1.5.2-2.2.5-.6.3-1.2.9-1.6 1.5-.9 1.4-.5 3.4.7 4.5 1.2 1 2.9 1.5 4.4.9a3.51 3.51 0 0 0 1.9-1.7c.4-.8.6-1.7.3-2.5-.2-.7-.6-1.3-1.1-1.8-.6-.6-1.3-1.1-2.1-1.3s-1.7.2-1.8 1c-.2.8.2 1.6 1 1.8.1 0 .2.1.3.1-.1-.1-.2-.1-.4-.2.2.1.4.2.6.4-.1-.1-.2-.2-.3-.2.3.2.6.5.8.8-.1-.1-.2-.2-.2-.3.1.2.2.3.3.5-.1-.1-.1-.2-.2-.4.1.1.1.3.1.4 0-.1 0-.3-.1-.4v.5c0-.1 0-.3.1-.4 0 .2-.1.3-.1.5.1-.1.1-.2.2-.4-.1.2-.2.3-.3.5.1-.1.2-.2.2-.3l-.3.3c.1-.1.2-.2.3-.2-.2.1-.3.2-.5.3.1-.1.2-.1.4-.2-.2.1-.4.2-.7.2.1 0 .3 0 .4-.1h-.8c.1 0 .3 0 .4.1-.2 0-.5-.1-.7-.2.1.1.2.1.4.2l-.6-.3c.1.1.2.2.3.2-.2-.1-.3-.3-.4-.4.1.1.2.2.2.3-.1-.1-.2-.3-.3-.5.1.1.1.2.2.4-.1-.2-.1-.4-.2-.6 0 .1 0 .3.1.4v-.5c0 .1 0 .3-.1.4 0-.2.1-.4.1-.5-.1.1-.1.2-.2.4.1-.1.1-.2.2-.3-.1.1-.2.2-.2.3.2-.2.3-.4.6-.6-.1.1-.2.2-.3.2.2-.1.3-.2.5-.3-.1.1-.2.1-.4.2.3-.1.6-.2.9-.2-.1 0-.3 0-.4.1h.4c.4 0 .8-.1 1.1-.4s.5-.7.4-1.1c.2-.8-.4-1.6-1.3-1.6zm7.8 7.5c-1 .1-1.7.3-2.3 1.1-.5.6-.5 1.5-.1 2.2s1.1 1.1 1.9 1.2 1.6-.1 2.1-.6a1.86 1.86 0 0 0 .5-2.1c-.2-.5-1.1-1.6-2.1-1.8z"/><path d="M143.7 116.2c-.8 0-1.5.2-2.2.5-.6.3-1.2.9-1.6 1.5-.9 1.4-.5 3.4.7 4.5 1.2 1 2.9 1.5 4.4.9a3.51 3.51 0 0 0 1.9-1.7c.4-.8.6-1.7.3-2.5-.2-.7-.6-1.3-1.1-1.8-.6-.6-1.3-1.1-2.1-1.3s-1.7.2-1.8 1c-.2.8.2 1.6 1 1.8.1 0 .2.1.3.1-.1-.1-.2-.1-.4-.2.2.1.4.2.6.4-.1-.1-.2-.2-.3-.2.3.2.6.5.8.8-.1-.1-.2-.2-.2-.3.1.2.2.3.3.5-.1-.1-.1-.2-.2-.4.1.1.1.3.1.4 0-.1 0-.3-.1-.4v.5c0-.1 0-.3.1-.4 0 .2-.1.3-.1.5.1-.1.1-.2.2-.4-.1.2-.2.3-.3.5.1-.1.2-.2.2-.3l-.3.3c.1-.1.2-.2.3-.2-.2.1-.3.2-.5.3.1-.1.2-.1.4-.2-.2.1-.4.2-.7.2.1 0 .3 0 .4-.1h-.8c.1 0 .3 0 .4.1-.2 0-.5-.1-.7-.2.1.1.2.1.4.2l-.6-.3c.1.1.2.2.3.2-.2-.1-.3-.3-.4-.4.1.1.2.2.2.3-.1-.1-.2-.3-.3-.5.1.1.1.2.2.4-.1-.2-.1-.4-.2-.6 0 .1 0 .3.1.4v-.5c0 .1 0 .3-.1.4 0-.2.1-.4.1-.5-.1.1-.1.2-.2.4.1-.1.1-.2.2-.3-.1.1-.2.2-.2.3.2-.2.3-.4.6-.6-.1.1-.2.2-.3.2.2-.1.3-.2.5-.3-.1.1-.2.1-.4.2.3-.1.6-.2.9-.2-.1 0-.3 0-.4.1h.4c.4 0 .8-.1 1.1-.4s.5-.7.4-1.1c.2-.9-.4-1.7-1.3-1.6zm8.3 7.8c-1 .1-1.7.3-2.3 1.1-.5.6-.5 1.5-.1 2.2s1.1 1.1 1.9 1.2 1.6-.1 2.1-.6a1.86 1.86 0 0 0 .5-2.1c-.2-.5-1.2-1.6-2.1-1.8z"/><path d="M152 122.5c-.8.1-1.5.2-2.2.5-.6.3-1.2.9-1.6 1.5-.9 1.4-.5 3.4.7 4.5 1.2 1 2.9 1.5 4.4.9a3.51 3.51 0 0 0 1.9-1.7c.4-.8.6-1.7.3-2.5-.2-.7-.6-1.3-1.1-1.8-.6-.6-1.3-1.1-2.1-1.3s-1.7.2-1.8 1c-.2.8.2 1.6 1 1.8.1 0 .2.1.3.1-.1-.1-.2-.1-.4-.2.2.1.4.2.6.4-.1-.1-.2-.2-.3-.2.3.2.6.5.8.8-.1-.1-.2-.2-.2-.3.1.2.2.3.3.5-.1-.1-.1-.2-.2-.4.1.1.1.3.1.4 0-.1 0-.3-.1-.4v.5c0-.1 0-.3.1-.4 0 .2-.1.3-.1.5.1-.1.1-.2.2-.4-.1.2-.2.3-.3.5.1-.1.2-.2.2-.3l-.3.3c.1-.1.2-.2.3-.2-.2.1-.3.2-.5.3.1-.1.2-.1.4-.2-.2.1-.4.2-.7.2.1 0 .3 0 .4-.1h-.8c.1 0 .3 0 .4.1-.2 0-.5-.1-.7-.2.1.1.2.1.4.2l-.6-.3c.1.1.2.2.3.2-.2-.1-.3-.3-.4-.4.1.1.2.2.2.3-.1-.1-.2-.3-.3-.5.1.1.1.2.2.4-.1-.2-.1-.4-.2-.6 0 .1 0 .3.1.4v-.5c0 .1 0 .3-.1.4 0-.2.1-.4.1-.5-.1.1-.1.2-.2.4.1-.1.1-.2.2-.3-.1.1-.2.2-.2.3.2-.2.3-.4.6-.6-.1.1-.2.2-.3.2.2-.1.3-.2.5-.3-.1.1-.2.1-.4.2.3-.1.6-.2.9-.2-.1 0-.3 0-.4.1h.4c.4 0 .8-.1 1.1-.4s.5-.7.4-1.1c.2-.9-.5-1.6-1.3-1.6zm7.5 7.3c-1 .1-1.7.3-2.3 1.1-.5.6-.5 1.5-.1 2.2s1.1 1.1 1.9 1.2 1.6-.1 2.1-.6a1.86 1.86 0 0 0 .5-2.1c-.2-.6-1.1-1.6-2.1-1.8z"/><path d="M159.5 128.3c-.8.1-1.5.2-2.2.5-.6.3-1.2.9-1.6 1.5-.9 1.4-.5 3.4.7 4.5 1.2 1 2.9 1.5 4.4.9a3.51 3.51 0 0 0 1.9-1.7c.4-.8.6-1.7.3-2.5-.2-.7-.6-1.3-1.1-1.8-.6-.6-1.3-1.1-2.1-1.3s-1.7.2-1.8 1c-.2.8.2 1.6 1 1.8.1 0 .2.1.3.1-.1-.1-.2-.1-.4-.2.2.1.4.2.6.4-.1-.1-.2-.2-.3-.2.3.2.6.5.8.8-.1-.1-.2-.2-.2-.3.1.2.2.3.3.5-.1-.1-.1-.2-.2-.4.1.1.1.3.1.4 0-.1 0-.3-.1-.4v.5c0-.1 0-.3.1-.4 0 .2-.1.3-.1.5.1-.1.1-.2.2-.4-.1.2-.2.3-.3.5.1-.1.2-.2.2-.3l-.3.3c.1-.1.2-.2.3-.2-.2.1-.3.2-.5.3.1-.1.2-.1.4-.2-.2.1-.4.2-.7.2.1 0 .3 0 .4-.1h-.8c.1 0 .3 0 .4.1-.2 0-.5-.1-.7-.2.1.1.2.1.4.2l-.6-.3c.1.1.2.2.3.2-.2-.1-.3-.3-.4-.4.1.1.2.2.2.3-.1-.1-.2-.3-.3-.5.1.1.1.2.2.4-.1-.2-.1-.4-.2-.6 0 .1 0 .3.1.4v-.5c0 .1 0 .3-.1.4 0-.2.1-.4.1-.5-.1.1-.1.2-.2.4.1-.1.1-.2.2-.3-.1.1-.2.2-.2.3.2-.2.3-.4.6-.6-.1.1-.2.2-.3.2.2-.1.3-.2.5-.3-.1.1-.2.1-.4.2.3-.1.6-.2.9-.2-.1 0-.3 0-.4.1h.4c.4 0 .8-.1 1.1-.4s.5-.7.4-1.1c.2-.9-.4-1.7-1.3-1.6zm7.8 7.4c-1 .1-1.7.3-2.3 1.1-.5.6-.5 1.5-.1 2.2s1.1 1.1 1.9 1.2 1.6-.1 2.1-.6a1.86 1.86 0 0 0 .5-2.1c-.2-.5-1.1-1.6-2.1-1.8z"/><path d="M167.3 134.2c-.8 0-1.5.2-2.2.5-.6.3-1.2.9-1.6 1.5-.9 1.4-.5 3.4.7 4.5 1.2 1 2.9 1.5 4.4.9a3.51 3.51 0 0 0 1.9-1.7c.4-.8.6-1.7.3-2.5-.2-.7-.6-1.3-1.1-1.8-.6-.6-1.3-1.1-2.1-1.3s-1.7.2-1.8 1c-.2.8.2 1.6 1 1.8.1 0 .2.1.3.1-.1-.1-.2-.1-.4-.2.2.1.4.2.6.4-.1-.1-.2-.2-.3-.2.3.2.6.5.8.8-.1-.1-.2-.2-.2-.3.1.2.2.3.3.5-.1-.1-.1-.2-.2-.4.1.1.1.3.1.4 0-.1 0-.3-.1-.4v.5c0-.1 0-.3.1-.4 0 .2-.1.3-.1.5.1-.1.1-.2.2-.4-.1.2-.2.3-.3.5.1-.1.2-.2.2-.3l-.3.3c.1-.1.2-.2.3-.2-.2.1-.3.2-.5.3.1-.1.2-.1.4-.2-.2.1-.4.2-.7.2.1 0 .3 0 .4-.1h-.8c.1 0 .3 0 .4.1-.2 0-.5-.1-.7-.2.1.1.2.1.4.2l-.6-.3c.1.1.2.2.3.2-.2-.1-.3-.3-.4-.4.1.1.2.2.2.3-.1-.1-.2-.3-.3-.5.1.1.1.2.2.4-.1-.2-.1-.4-.2-.6 0 .1 0 .3.1.4v-.5c0 .1 0 .3-.1.4 0-.2.1-.4.1-.5-.1.1-.1.2-.2.4.1-.1.1-.2.2-.3-.1.1-.2.2-.2.3.2-.2.3-.4.6-.6-.1.1-.2.2-.3.2.2-.1.3-.2.5-.3-.1.1-.2.1-.4.2.3-.1.6-.2.9-.2-.1 0-.3 0-.4.1h.4c.4 0 .8-.1 1.1-.4s.5-.7.4-1.1c.2-.9-.4-1.6-1.3-1.6zm-46-21.7c-1 .1-1.7.3-2.3 1.1-.5.6-.5 1.5-.1 2.2s1.1 1.1 1.9 1.2 1.6-.1 2.1-.6a1.86 1.86 0 0 0 .5-2.1c-.3-.5-1.2-1.6-2.1-1.8z"/><use xlink:href="#Q"/></g><path d="M115.5 120c-1 .1-1.7.3-2.3 1.1-.5.6-.5 1.5-.1 2.2s1.1 1.1 1.9 1.2 1.6-.1 2.1-.6a1.86 1.86 0 0 0 .5-2.1c-.2-.5-1.2-1.6-2.1-1.8z" class="K"/><g class="L"><path d="M129.8 119.3c-1 .1-1.7.3-2.3 1.1-.5.6-.5 1.5-.1 2.2s1.1 1.1 1.9 1.2 1.6-.1 2.1-.6a1.86 1.86 0 0 0 .5-2.1c-.2-.6-1.2-1.6-2.1-1.8z"/><path d="M129.8 117.8c-.8.1-1.5.2-2.2.5-.6.3-1.2.9-1.6 1.5-.9 1.4-.5 3.4.7 4.5 1.2 1 2.9 1.5 4.4.9a3.51 3.51 0 0 0 1.9-1.7c.4-.8.6-1.7.3-2.5-.2-.7-.6-1.3-1.1-1.8-.6-.6-1.3-1.1-2.1-1.3s-1.7.2-1.8 1c-.2.8.2 1.6 1 1.8.1 0 .2.1.3.1-.1-.1-.2-.1-.4-.2.2.1.4.2.6.4-.1-.1-.2-.2-.3-.2.3.2.6.5.8.8-.1-.1-.2-.2-.2-.3.1.2.2.3.3.5-.1-.1-.1-.2-.2-.4.1.1.1.3.1.4 0-.1 0-.3-.1-.4v.5c0-.1 0-.3.1-.4 0 .2-.1.3-.1.5.1-.1.1-.2.2-.4-.1.2-.2.3-.3.5.1-.1.2-.2.2-.3l-.3.3c.1-.1.2-.2.3-.2-.2.1-.3.2-.5.3.1-.1.2-.1.4-.2-.2.1-.4.2-.7.2.1 0 .3 0 .4-.1h-.8c.1 0 .3 0 .4.1-.2 0-.5-.1-.7-.2.1.1.2.1.4.2l-.6-.3c.1.1.2.2.3.2-.2-.1-.3-.3-.4-.4.1.1.2.2.2.3-.1-.1-.2-.3-.3-.5.1.1.1.2.2.4-.1-.2-.1-.4-.2-.6 0 .1 0 .3.1.4v-.5c0 .1 0 .3-.1.4 0-.2.1-.4.1-.5-.1.1-.1.2-.2.4.1-.1.1-.2.2-.3-.1.1-.2.2-.2.3.2-.2.3-.4.6-.6-.1.1-.2.2-.3.2.2-.1.3-.2.5-.3-.1.1-.2.1-.4.2.3-.1.6-.2.9-.2-.1 0-.3 0-.4.1h.4c.4 0 .8-.1 1.1-.4s.5-.7.4-1.1c.2-.9-.5-1.7-1.3-1.6zm-5.7 9c-1 .1-1.7.3-2.3 1.1-.5.6-.5 1.5-.1 2.2s1.1 1.1 1.9 1.2 1.6-.1 2.1-.6a1.86 1.86 0 0 0 .5-2.1c-.3-.5-1.2-1.6-2.1-1.8z"/><path d="M124.1 125.3c-.8.1-1.5.2-2.2.5-.6.3-1.2.9-1.6 1.5-.9 1.4-.5 3.4.7 4.5 1.2 1 2.9 1.5 4.4.9a3.51 3.51 0 0 0 1.9-1.7c.4-.8.6-1.7.3-2.5-.2-.7-.6-1.3-1.1-1.8-.6-.6-1.3-1.1-2.1-1.3s-1.7.2-1.8 1c-.2.8.2 1.6 1 1.8.1 0 .2.1.3.1-.1-.1-.2-.1-.4-.2.2.1.4.2.6.4-.1-.1-.2-.2-.3-.2.3.2.6.5.8.8-.1-.1-.2-.2-.2-.3.1.2.2.3.3.5-.1-.1-.1-.2-.2-.4.1.1.1.3.1.4 0-.1 0-.3-.1-.4v.5c0-.1 0-.3.1-.4 0 .2-.1.3-.1.5.1-.1.1-.2.2-.4-.1.2-.2.3-.3.5.1-.1.2-.2.2-.3l-.3.3c.1-.1.2-.2.3-.2-.2.1-.3.2-.5.3.1-.1.2-.1.4-.2-.2.1-.4.2-.7.2.1 0 .3 0 .4-.1h-.8c.1 0 .3 0 .4.1-.2 0-.5-.1-.7-.2.1.1.2.1.4.2l-.6-.3c.1.1.2.2.3.2-.2-.1-.3-.3-.4-.4.1.1.2.2.2.3-.1-.1-.2-.3-.3-.5.1.1.1.2.2.4-.1-.2-.1-.4-.2-.6 0 .1 0 .3.1.4v-.5c0 .1 0 .3-.1.4 0-.2.1-.4.1-.5-.1.1-.1.2-.2.4.1-.1.1-.2.2-.3-.1.1-.2.2-.2.3.2-.2.3-.4.6-.6-.1.1-.2.2-.3.2.2-.1.3-.2.5-.3-.1.1-.2.1-.4.2.3-.1.6-.2.9-.2-.1 0-.3 0-.4.1h.4c.4 0 .8-.1 1.1-.4s.5-.7.4-1.1c.1-.9-.5-1.7-1.3-1.6z"/></g><g class="K"><path d="M137.6 125.2c-1 .1-1.7.3-2.3 1.1-.5.6-.5 1.5-.1 2.2s1.1 1.1 1.9 1.2 1.6-.1 2.1-.6a1.86 1.86 0 0 0 .5-2.1c-.2-.5-1.2-1.6-2.1-1.8zm-5.7 7.5c-1 .1-1.7.3-2.3 1.1-.5.6-.5 1.5-.1 2.2s1.1 1.1 1.9 1.2 1.6-.1 2.1-.6a1.86 1.86 0 0 0 .5-2.1c-.3-.5-1.2-1.6-2.1-1.8z"/></g><g class="L"><path d="M145.9 131.5c-1 .1-1.7.3-2.3 1.1-.5.6-.5 1.5-.1 2.2s1.1 1.1 1.9 1.2 1.6-.1 2.1-.6a1.86 1.86 0 0 0 .5-2.1c-.3-.5-1.2-1.6-2.1-1.8z"/><path d="M145.9 130c-.8.1-1.5.2-2.2.5-.6.3-1.2.9-1.6 1.5-.9 1.4-.5 3.4.7 4.5 1.2 1 2.9 1.5 4.4.9a3.51 3.51 0 0 0 1.9-1.7c.4-.8.6-1.7.3-2.5-.2-.7-.6-1.3-1.1-1.8-.6-.6-1.3-1.1-2.1-1.3s-1.7.2-1.8 1c-.2.8.2 1.6 1 1.8.1 0 .2.1.3.1-.1-.1-.2-.1-.4-.2.2.1.4.2.6.4-.1-.1-.2-.2-.3-.2.3.2.6.5.8.8-.1-.1-.2-.2-.2-.3.1.2.2.3.3.5-.1-.1-.1-.2-.2-.4.1.1.1.3.1.4 0-.1 0-.3-.1-.4v.5c0-.1 0-.3.1-.4 0 .2-.1.3-.1.5.1-.1.1-.2.2-.4-.1.2-.2.3-.3.5.1-.1.2-.2.2-.3l-.3.3c.1-.1.2-.2.3-.2-.2.1-.3.2-.5.3.1-.1.2-.1.4-.2-.2.1-.4.2-.7.2.1 0 .3 0 .4-.1h-.8c.1 0 .3 0 .4.1-.2 0-.5-.1-.7-.2.1.1.2.1.4.2l-.6-.3c.1.1.2.2.3.2-.2-.1-.3-.3-.4-.4.1.1.2.2.2.3-.1-.1-.2-.3-.3-.5.1.1.1.2.2.4-.1-.2-.1-.4-.2-.6 0 .1 0 .3.1.4v-.5c0 .1 0 .3-.1.4 0-.2.1-.4.1-.5-.1.1-.1.2-.2.4.1-.1.1-.2.2-.3-.1.1-.2.2-.2.3.2-.2.3-.4.6-.6-.1.1-.2.2-.3.2.2-.1.3-.2.5-.3-.1.1-.2.1-.4.2.3-.1.6-.2.9-.2-.1 0-.3 0-.4.1h.4c.4 0 .8-.1 1.1-.4s.5-.7.4-1.1c.1-.8-.5-1.6-1.3-1.6z"/></g><g class="K"><path d="M140.1 139c-1 .1-1.7.3-2.3 1.1-.5.6-.5 1.5-.1 2.2s1.1 1.1 1.9 1.2 1.6-.1 2.1-.6a1.86 1.86 0 0 0 .5-2.1c-.2-.5-1.1-1.6-2.1-1.8zm13.3-1.7c-1 .1-1.7.3-2.3 1.1-.5.6-.5 1.5-.1 2.2s1.1 1.1 1.9 1.2 1.6-.1 2.1-.6a1.86 1.86 0 0 0 .5-2.1c-.2-.5-1.2-1.6-2.1-1.8z"/></g><g class="L"><path d="M147.7 144.8c-1 .1-1.7.3-2.3 1.1-.5.6-.5 1.5-.1 2.2s1.1 1.1 1.9 1.2 1.6-.1 2.1-.6a1.86 1.86 0 0 0 .5-2.1c-.3-.5-1.2-1.6-2.1-1.8z"/><path d="M147.7 143.3c-.8.1-1.5.2-2.2.5-.6.3-1.2.9-1.6 1.5-.9 1.4-.5 3.4.7 4.5 1.2 1 2.9 1.5 4.4.9a3.51 3.51 0 0 0 1.9-1.7c.4-.8.6-1.7.3-2.5-.2-.7-.6-1.3-1.1-1.8-.6-.6-1.3-1.1-2.1-1.3s-1.7.2-1.8 1c-.2.8.2 1.6 1 1.8.1 0 .2.1.3.1-.1-.1-.2-.1-.4-.2.2.1.4.2.6.4-.1-.1-.2-.2-.3-.2.3.2.6.5.8.8-.1-.1-.2-.2-.2-.3.1.2.2.3.3.5-.1-.1-.1-.2-.2-.4.1.1.1.3.1.4 0-.1 0-.3-.1-.4v.5c0-.1 0-.3.1-.4 0 .2-.1.3-.1.5.1-.1.1-.2.2-.4-.1.2-.2.3-.3.5.1-.1.2-.2.2-.3l-.3.3c.1-.1.2-.2.3-.2-.2.1-.3.2-.5.3.1-.1.2-.1.4-.2-.2.1-.4.2-.7.2.1 0 .3 0 .4-.1h-.8c.1 0 .3 0 .4.1-.2 0-.5-.1-.7-.2.1.1.2.1.4.2l-.6-.3c.1.1.2.2.3.2-.2-.1-.3-.3-.4-.4.1.1.2.2.2.3-.1-.1-.2-.3-.3-.5.1.1.1.2.2.4-.1-.2-.1-.4-.2-.6 0 .1 0 .3.1.4v-.5c0 .1 0 .3-.1.4 0-.2.1-.4.1-.5-.1.1-.1.2-.2.4.1-.1.1-.2.2-.3-.1.1-.2.2-.2.3.2-.2.3-.4.6-.6-.1.1-.2.2-.3.2.2-.1.3-.2.5-.3-.1.1-.2.1-.4.2.3-.1.6-.2.9-.2-.1 0-.3 0-.4.1h.4c.4 0 .8-.1 1.1-.4s.5-.7.4-1.1c.1-.9-.5-1.7-1.3-1.6z"/></g><g class="K"><path d="M161.2 143.2c-1 .1-1.7.3-2.3 1.1-.5.6-.5 1.5-.1 2.2s1.1 1.1 1.9 1.2 1.6-.1 2.1-.6a1.86 1.86 0 0 0 .5-2.1c-.2-.5-1.2-1.6-2.1-1.8zm-5.8 7.5c-1 .1-1.7.3-2.3 1.1-.5.6-.5 1.5-.1 2.2s1.1 1.1 1.9 1.2 1.6-.1 2.1-.6a1.86 1.86 0 0 0 .5-2.1c-.2-.5-1.1-1.6-2.1-1.8zm-46.6-22c-1 .1-1.7.3-2.3 1.1-.5.6-.5 1.5-.1 2.2s1.1 1.1 1.9 1.2 1.6-.1 2.1-.6a1.86 1.86 0 0 0 .5-2.1c-.2-.5-1.1-1.5-2.1-1.8z"/></g><g class="L"><path d="M117.4 135.5c-1 .1-1.7.3-2.3 1.1-.5.6-.5 1.5-.1 2.2s1.1 1.1 1.9 1.2 1.6-.1 2.1-.6a1.86 1.86 0 0 0 .5-2.1c-.2-.5-1.2-1.6-2.1-1.8z"/><path d="M117.4 134c-.8 0-1.5.2-2.2.5-.6.3-1.2.9-1.6 1.5-.9 1.4-.5 3.4.7 4.5 1.2 1 2.9 1.5 4.4.9a3.51 3.51 0 0 0 1.9-1.7c.4-.8.6-1.7.3-2.5-.2-.7-.6-1.3-1.1-1.8-.6-.6-1.3-1.1-2.1-1.3s-1.7.2-1.8 1c-.2.8.2 1.6 1 1.8.1 0 .2.1.3.1-.1-.1-.2-.1-.4-.2.2.1.4.2.6.4-.1-.1-.2-.2-.3-.2.3.2.6.5.8.8-.1-.1-.2-.2-.2-.3.1.2.2.3.3.5-.1-.1-.1-.2-.2-.4.1.1.1.3.1.4 0-.1 0-.3-.1-.4v.5c0-.1 0-.3.1-.4 0 .2-.1.3-.1.5.1-.1.1-.2.2-.4-.1.2-.2.3-.3.5.1-.1.2-.2.2-.3l-.3.3c.1-.1.2-.2.3-.2-.2.1-.3.2-.5.3.1-.1.2-.1.4-.2-.2.1-.4.2-.7.2.1 0 .3 0 .4-.1h-.8c.1 0 .3 0 .4.1-.2 0-.5-.1-.7-.2.1.1.2.1.4.2l-.6-.3c.1.1.2.2.3.2-.2-.1-.3-.3-.4-.4.1.1.2.2.2.3-.1-.1-.2-.3-.3-.5.1.1.1.2.2.4-.1-.2-.1-.4-.2-.6 0 .1 0 .3.1.4v-.5c0 .1 0 .3-.1.4 0-.2.1-.4.1-.5-.1.1-.1.2-.2.4.1-.1.1-.2.2-.3-.1.1-.2.2-.2.3.2-.2.3-.4.6-.6-.1.1-.2.2-.3.2.2-.1.3-.2.5-.3-.1.1-.2.1-.4.2.3-.1.6-.2.9-.2-.1 0-.3 0-.4.1h.4c.4 0 .8-.1 1.1-.4s.5-.7.4-1.1c.2-.8-.5-1.6-1.3-1.6z"/></g><g class="K"><path d="M125.2 141.5c-1 .1-1.7.3-2.3 1.1-.5.6-.5 1.5-.1 2.2s1.1 1.1 1.9 1.2 1.6-.1 2.1-.6a1.86 1.86 0 0 0 .5-2.1c-.2-.5-1.2-1.6-2.1-1.8zm8.3 6.3c-1 .1-1.7.3-2.3 1.1-.5.6-.5 1.5-.1 2.2s1.1 1.1 1.9 1.2 1.6-.1 2.1-.6a1.86 1.86 0 0 0 .5-2.1c-.3-.5-1.2-1.6-2.1-1.8zm7.5 5.7c-1 .1-1.7.3-2.3 1.1-.5.6-.5 1.5-.1 2.2s1.1 1.1 1.9 1.2 1.6-.1 2.1-.6a1.86 1.86 0 0 0 .5-2.1c-.3-.5-1.2-1.6-2.1-1.8zm7.8 6c-1 .1-1.7.3-2.3 1.1-.5.6-.5 1.5-.1 2.2s1.1 1.1 1.9 1.2 1.6-.1 2.1-.6a1.86 1.86 0 0 0 .5-2.1c-.3-.5-1.2-1.6-2.1-1.8z"/></g><path d="M98.4 63.4c-10.8 17.8-34.5 65.2-34.5 65.2-2 1-9 2-13.6 3.9C22 116.7-.2 101.7-23.3 84-8.4 59.3 8.2 35.6 26.5 13.3c3.4-.7 11.8-3.7 13.4-2.7 22.3 14.3 38 37 58.5 52.8z" fill="#8f8f8f"/><path d="M97.1 62.6c-6.7 11.1-12.7 22.8-18.7 34.3L63.5 126c-.2.5-.5.9-.7 1.4 0 .1-.2.2-.2.3v.1c-.2-.4.8-.3.2-.4-.3 0-.8.3-1.1.3-.5.1-.9.2-1.4.4-1.1.3-2.2.5-3.4.8-2.4.6-4.8 1.2-7.1 2.1.4.1.8.1 1.2.2A614.84 614.84 0 0 1-7.5 94l-15.1-11.3c.2.7.4 1.4.5 2.1C-8.6 62.5 6.2 41.2 22.3 20.9c.9-1.2 1.8-2.3 2.8-3.5l1.5-1.8c.2-.3.5-.7.7-.9-.2 0-.2 0 0-.1h.2c1.9-.6 3.9-1.1 5.9-1.6 1.7-.5 3.6-1.1 5.4-1.1h.5c.2.1-.6-.5.3.2l.9.6c1.2.8 2.4 1.6 3.6 2.5 9.3 6.7 17.5 14.9 25.5 23 8.9 9.1 17.7 18.4 27.8 26.2 1.5 1.2 3.6-.9 2.1-2.1-18.6-14.5-32.9-33.7-51.7-48-2.3-1.7-4.6-3.7-7.1-5-1.4-.7-3.1-.4-4.6-.1-2.2.4-4.4 1.1-6.5 1.7-.9.2-1.7.5-2.6.7-.4.1-.8.1-1.2.3-.7.4-1.3 1.4-1.8 2-8.4 10.4-16.4 21-24 31.7-8.7 12.2-16.8 24.7-24.6 37.6-.5.8-.1 1.6.5 2.1 12.6 9.6 25.4 18.8 38.6 27.5 6.9 4.5 13.8 8.8 20.9 13l11.3 6.6c.9.5 1.8 1.1 2.7 1.5s1.6 0 2.5-.3c1.7-.6 3.4-1 5.1-1.4l4.7-1.1c1-.2 2.5-.5 3.3-1.2.3-.3.5-.8.7-1.2l3.6-7.2 13.9-27C88 85.2 92.9 76 98.2 67c.5-.8 1-1.7 1.5-2.5 1-2-1.6-3.5-2.6-1.9z"/><g class="K"><path d="M91 45.2c2.9-3.9 5.7-7.9 8.4-11.9-1.4.4-2.7.7-4.1 1.1l8.4 6.5 3-5.2c-.3-.2-.5-.4-.8-.6-1.3-1-3.4-.2-4.1 1.1-.8 1.6-.3 3.1 1.1 4.1.3.2.5.4.8.6 1.3 1 3.4.2 4.1-1.1.8-1.6.3-3.1-1.1-4.1l-8.4-6.5c-1.3-1-3.3-.1-4.1 1.1-2.7 4-5.5 8-8.4 11.9-.9 1.3-.3 3.4 1.1 4.1 1.5.8 3.1.3 4.1-1.1h0zM65.9 27.9c2.8-3.7 5.7-7.3 8.6-11 1-1.3 1.3-3 0-4.2-1.4-1.3-3-2.5-4.6-3.6-.7-.5-1.4-1-2.1-1.6.2.2 0 0-.1-.1-.2-.1-.3-.3-.5-.4-.4-.3-.8-.7-1.2-1-1.1-1.1-3.1-1.2-4.2 0s-1.2 3.1 0 4.2c1.4 1.3 3 2.5 4.6 3.6.7.5 1.4 1 2.1 1.6-.2-.2 0 0 .1.1.2.1.3.3.5.4.4.3.8.7 1.2 1v-4.2c-2.8 3.7-5.7 7.3-8.6 11-1 1.2-1.3 3.1 0 4.2 1 1 3.2 1.3 4.2 0h0z"/></g><path d="M10.1 89.1c1.6.8 2.1 1.5 3.7 2.3.2.1.4.2.5.5.1.2 0 .5-.1.8-4.7 6.3-8.9 13.7-14 20.1-1.4-.9-2.8-1.9-4.3-2.8C-.4 104.4 7 94.9 10.1 89.1z" class="N"/><path d="M9.3 90.3c.9.5 1.7 1.1 2.5 1.6.2.2.5.4.8.5.1.1.3.1.4.2 0-.3-.1-.6-.1-.8-.2 0-.9 1.2-1 1.3l-4.2 6.1c-2.8 4.2-5.5 8.4-8.6 12.3.6-.1 1.2-.2 1.8-.2-1.4-.9-2.8-1.9-4.3-2.8.2.7.4 1.4.5 2.1 4.7-6.9 10.3-13.4 14.2-20.8.9-1.7-1.7-3.2-2.6-1.5-3.9 7.4-9.5 13.9-14.2 20.8-.5.7-.1 1.6.5 2.1 1.4.9 2.8 1.9 4.3 2.8.5.3 1.4.3 1.8-.2 3.7-4.7 6.9-9.6 10.1-14.6l2.4-3.5c.7-1 1.8-2 2-3.2.3-1.4-.7-2.1-1.8-2.7s-2-1.4-3.2-2c-1.4-1-3 1.6-1.3 2.5z" class="M"/><path d="M18.6 94.8c1.6.8 2.1 1.5 3.7 2.3.2.1.4.2.5.5.1.2 0 .5-.1.8-4.7 6.3-8.9 13.7-14 20.1-1.4-.9-2.8-1.9-4.3-2.8 3.8-5.6 11.2-15.1 14.2-20.9z" class="N"/><path d="M17.9 96.1c.9.5 1.7 1.1 2.5 1.6.2.2.5.4.8.5.1.1.3.1.4.2 0-.3-.1-.6-.1-.8-.2 0-.9 1.2-1 1.3l-4.2 6.1c-2.8 4.2-5.5 8.4-8.6 12.3.6-.1 1.2-.2 1.8-.2-1.4-.9-2.8-1.9-4.3-2.8.2.7.4 1.4.5 2.1 4.7-6.9 10.3-13.4 14.2-20.8.9-1.7-1.7-3.2-2.6-1.5-3.9 7.4-9.5 13.9-14.2 20.8-.5.7-.1 1.6.5 2.1 1.4.9 2.8 1.9 4.3 2.8.5.3 1.4.3 1.8-.2 3.7-4.7 6.9-9.6 10.1-14.6l2.4-3.5c.7-1 1.8-2 2-3.2.3-1.4-.7-2.1-1.8-2.7s-2-1.4-3.2-2c-1.5-1-3 1.5-1.3 2.5z" class="M"/><path d="M27.2 100.5c1.6.8 2.1 1.5 3.7 2.3.2.1.4.2.5.5.1.2 0 .5-.1.8-4.7 6.3-8.9 13.7-14 20.1-1.4-.9-2.8-1.9-4.3-2.8 3.7-5.6 11.1-15.1 14.2-20.9z" class="N"/><use xlink:href="#R" class="M"/><path d="M35.7 106.2c1.6.8 2.1 1.5 3.7 2.3.2.1.4.2.5.5.1.2 0 .5-.1.8-4.7 6.3-8.9 13.7-14 20.1-1.4-.9-2.8-1.9-4.3-2.8 3.7-5.6 11.2-15.1 14.2-20.9z" class="N"/><path d="M35 107.5c.9.5 1.7 1.1 2.5 1.6.2.2.5.4.8.5.1.1.3.1.4.2 0-.3-.1-.6-.1-.8-.2 0-.9 1.2-1 1.3l-4.2 6.1c-2.8 4.2-5.5 8.4-8.6 12.3.6-.1 1.2-.2 1.8-.2-1.4-.9-2.8-1.9-4.3-2.8.2.7.4 1.4.5 2.1 4.7-6.9 10.3-13.4 14.2-20.8.9-1.7-1.7-3.2-2.6-1.5-3.9 7.4-9.5 13.9-14.2 20.8-.5.7-.1 1.6.5 2.1 1.4.9 2.8 1.9 4.3 2.8.5.3 1.4.3 1.8-.2 3.7-4.7 6.9-9.6 10.1-14.6l2.4-3.5c.7-1 1.8-2 2-3.2.3-1.4-.7-2.1-1.8-2.7s-2-1.4-3.2-2c-1.5-1-3 1.6-1.3 2.5z" class="M"/><path d="M44.3 111.9c1.6.8 2.1 1.5 3.7 2.3.2.1.4.2.5.5.1.2 0 .5-.1.8-4.7 6.3-8.9 13.7-14 20.1-1.4-.9-2.8-1.9-4.3-2.8 3.7-5.5 11.1-15.1 14.2-20.9z" class="N"/><path d="M43.5 113.2c.9.5 1.7 1.1 2.5 1.6.2.2.5.4.8.5.1.1.3.1.4.2 0-.3-.1-.6-.1-.8-.2 0-.9 1.2-1 1.3l-4.2 6.1c-2.8 4.2-5.5 8.4-8.6 12.3.6-.1 1.2-.2 1.8-.2-1.4-.9-2.8-1.9-4.3-2.8.2.7.4 1.4.5 2.1 4.7-6.9 10.3-13.4 14.2-20.8.9-1.7-1.7-3.2-2.6-1.5-3.9 7.4-9.4 13.8-14.1 20.8-.5.7-.1 1.6.5 2.1 1.4.9 2.8 1.9 4.3 2.8.5.3 1.4.3 1.8-.2 3.7-4.7 6.9-9.6 10.1-14.6l2.4-3.5c.7-1 1.8-2 2-3.2.3-1.4-.7-2.1-1.8-2.7s-2-1.4-3.2-2c-1.6-1-3.1 1.6-1.4 2.5z" class="M"/><path d="M111.4 60.4c-11.8 19.5-34.2 51.2-48.1 69.1C35 113.7 12.8 98.7-10.3 81 4.6 56.3 21.2 32.6 39.5 10.3 63 25.1 89.4 43.4 111.4 60.4z" fill="#323232"/><path d="M110.1 59.6C98.5 78.7 85.6 97 72.4 115l-10.1 13.5c.6-.1 1.2-.2 1.8-.2A614.84 614.84 0 0 1 5.6 91.1L-9.5 79.7c.2.7.4 1.4.5 2.1C2.5 62.6 15.2 44 28.7 26.3l11.8-14.9c-.6.1-1.2.2-1.8.2C58.1 23.8 77 36.7 95.4 50.2l15 11.3c.6.5 1.5.6 2.1 0 .5-.5.6-1.6 0-2.1-18.2-14-37-27.3-56.1-39.9L40.3 9c-.5-.3-1.4-.3-1.8.2C24.1 26.7 10.8 45-1.4 63.9c-3.5 5.4-6.9 10.8-10.2 16.3-.5.8-.1 1.6.5 2.1 18 13.7 36.5 26.5 55.9 38.2l17.8 10.3c.5.3 1.4.3 1.8-.2 13.8-17.8 26.8-36.2 39.2-55l9.2-14.4c.9-1.7-1.7-3.2-2.7-1.6z"/><g class="K"><use xlink:href="#S"/><use xlink:href="#T"/><path d="M52.5 115.7c1-.1 1.6-.4 2.2-1.2.5-.6.4-1.6 0-2.2-.4-.7-1.2-1-1.9-1.1s-1.5.2-2 .8-.7 1.4-.4 2.1c.2.5 1.2 1.5 2.1 1.6z"/></g><g class="L"><path d="M57.8 107.9c1-.1 1.6-.4 2.2-1.2.5-.6.4-1.6 0-2.2-.4-.7-1.2-1-1.9-1.1s-1.5.2-2 .8-.7 1.4-.4 2.1c.2.5 1.2 1.5 2.1 1.6z"/><path d="M58.2 109.4c1.3-.2 2.6-.9 3.2-2.1.4-.8.5-1.7.3-2.6s-.7-1.5-1.4-2.1c-1.2-.9-3-.9-4.3-.3-1.4.7-2.3 2.5-1.8 4.1.2.7.7 1.3 1.2 1.7.6.5 1.3 1 2 1.1.4.1.8.1 1.2-.2.3-.2.6-.5.7-.9s.1-.8-.2-1.2c-.2-.3-.5-.6-.9-.7-.2 0-.3-.1-.5-.1.1.1.2.1.4.2-.2-.1-.5-.2-.7-.4.1.1.2.2.3.2-.3-.2-.5-.5-.7-.7.1.1.2.2.2.3-.1-.1-.2-.3-.3-.4.1.1.1.2.2.4-.1-.1-.1-.3-.1-.4 0 .1 0 .3.1.4v-.5c0 .1 0 .3-.1.4 0-.2.1-.3.1-.5-.1.1-.1.2-.2.4.1-.2.2-.3.3-.5-.1.1-.2.2-.2.3.1-.1.2-.3.4-.4-.1.1-.2.2-.3.2.2-.1.3-.2.5-.3-.1.1-.2.1-.4.2.2-.1.5-.2.7-.2-.1 0-.3 0-.4.1h.7c-.1 0-.3 0-.4-.1.2 0 .4.1.7.2-.1-.1-.2-.1-.4-.2l.6.3c-.1-.1-.2-.2-.3-.2.1.1.3.2.4.4-.1-.1-.2-.2-.2-.3.1.1.2.3.3.5-.1-.1-.1-.2-.2-.4.1.2.1.3.1.5 0-.1 0-.3-.1-.4v.5c0-.1 0-.3.1-.4 0 .2-.1.3-.1.5.1-.1.1-.2.2-.4-.1.2-.2.3-.3.5.1-.1.2-.2.2-.3-.1.2-.3.3-.5.5.1-.1.2-.2.3-.2-.2.1-.4.3-.6.4.1-.1.2-.1.4-.2l-1 .3c-.3 0-.7.4-.9.7s-.3.8-.2 1.2a1.27 1.27 0 0 0 .7.9c.1.1.2.1.4.2h.8z"/></g><g class="K"><use xlink:href="#U"/><path d="M77.3 96.2c1-.1 1.6-.4 2.2-1.2.5-.6.4-1.6 0-2.2-.4-.7-1.2-1-1.9-1.1s-1.5.2-2 .8-.7 1.4-.4 2.1c.2.4 1.2 1.4 2.1 1.6zm-13.2 2.4c1-.1 1.6-.4 2.2-1.2.5-.6.4-1.6 0-2.2-.4-.7-1.2-1-1.9-1.1s-1.5.2-2 .8-.7 1.4-.4 2.1c.2.5 1.2 1.5 2.1 1.6z"/><use xlink:href="#V"/><path d="M81.7 88.4c1-.1 1.6-.4 2.2-1.2.5-.6.4-1.6 0-2.2-.4-.7-1.2-1-1.9-1.1s-1.5.2-2 .8-.7 1.4-.4 2.1c.3.5 1.2 1.5 2.1 1.6zm-7.8-5.3c1-.1 1.6-.4 2.2-1.2.5-.6.4-1.6 0-2.2-.4-.7-1.2-1-1.9-1.1s-1.5.2-2 .8-.7 1.4-.4 2.1c.2.4 1.2 1.4 2.1 1.6z"/><use xlink:href="#W"/><path d="M92.8 72.8c1-.1 1.6-.4 2.2-1.2.5-.6.4-1.6 0-2.2-.4-.7-1.2-1-1.9-1.1s-1.5.2-2 .8-.7 1.4-.4 2.1c.2.4 1.1 1.4 2.1 1.6zm-13.2 2.4c1-.1 1.6-.4 2.2-1.2.5-.6.4-1.6 0-2.2-.4-.7-1.2-1-1.9-1.1s-1.5.2-2 .8-.7 1.4-.4 2.1c.2.5 1.2 1.5 2.1 1.6z"/></g><g class="L"><path d="M84.9 67.4c1-.1 1.6-.4 2.2-1.2.5-.6.4-1.6 0-2.2-.4-.7-1.2-1-1.9-1.1s-1.5.2-2 .8-.7 1.4-.4 2.1c.2.5 1.2 1.5 2.1 1.6z"/><path d="M85.3 68.9c1.3-.2 2.6-.9 3.2-2.1.4-.8.5-1.7.3-2.6s-.7-1.5-1.4-2.1c-1.2-.9-3-.9-4.3-.3-1.4.7-2.3 2.5-1.8 4.1.2.7.7 1.3 1.2 1.7.6.5 1.3 1 2 1.1.4.1.8.1 1.2-.2.3-.2.6-.5.7-.9s.1-.8-.2-1.2c-.2-.1-.5-.4-.9-.4-.2 0-.3-.1-.5-.1.1.1.2.1.4.2-.2-.1-.5-.2-.7-.4.1.1.2.2.3.2-.3-.2-.5-.5-.7-.7.1.1.2.2.2.3-.1-.1-.2-.3-.3-.4.1.1.1.2.2.4-.1-.1-.1-.3-.1-.4 0 .1 0 .3.1.4V65c0 .1 0 .3-.1.4 0-.2.1-.3.1-.5-.1.1-.1.2-.2.4.1-.2.2-.3.3-.5-.1.1-.2.2-.2.3.1-.1.2-.3.4-.4-.1.1-.2.2-.3.2.2-.1.3-.2.5-.3-.1.1-.2.1-.4.2.2-.1.5-.2.7-.2-.1 0-.3 0-.4.1h.7c-.1 0-.3 0-.4-.1.2 0 .4.1.7.2-.1-.1-.2-.1-.4-.2l.6.3c-.1-.1-.2-.2-.3-.2.1.1.3.2.4.4-.1-.1-.2-.2-.2-.3.1.1.2.3.3.5-.1-.1-.1-.2-.2-.4a.9.9 0 0 1 .1.5c0-.1 0-.3-.1-.4v.5c0-.1 0-.3.1-.4 0 .2-.1.3-.1.5.1-.1.1-.2.2-.4-.1.2-.2.3-.3.5.1-.1.2-.2.2-.3-.1.2-.3.3-.5.5.1-.1.2-.2.3-.2-.2.1-.4.3-.6.4.1-.1.2-.1.4-.2l-1 .3c-.3 0-.7.4-.9.7a1.64 1.64 0 0 0-.2 1.2 1.27 1.27 0 0 0 .7.9c.1.1.2.1.4.2.3-.3.5-.3.8-.3z"/></g><g class="K"><path d="M98.9 63.7c1-.1 1.6-.4 2.2-1.2.5-.6.4-1.6 0-2.2-.4-.7-1.2-1-1.9-1.1s-1.5.2-2 .8-.7 1.4-.4 2.1c.3.4 1.2 1.4 2.1 1.6zm-7.8-5.4c1-.1 1.6-.4 2.2-1.2.5-.6.4-1.6 0-2.2-.4-.7-1.2-1-1.9-1.1s-1.5.2-2 .8-.7 1.4-.4 2.1c.2.5 1.2 1.5 2.1 1.6z"/></g><g class="L"><use xlink:href="#X"/><use xlink:href="#Y"/><use xlink:href="#Z"/><use xlink:href="#a"/><path d="M35.4 104.2c1-.1 1.7-.4 2.3-1.2.5-.6.4-1.6 0-2.2-.4-.7-1.2-1.1-2-1.1-.8-.1-1.6.2-2.1.7-.5.6-.7 1.4-.4 2.1.3.5 1.3 1.5 2.2 1.7z"/><path d="M35.4 105.7c.8-.1 1.5-.2 2.1-.6.6-.3 1.2-.9 1.5-1.5.8-1.5.4-3.4-.8-4.4-1.3-1.1-3.1-1.3-4.7-.5-1.4.7-2.3 2.6-1.8 4.1.2.7.7 1.3 1.2 1.8.6.5 1.3 1 2.1 1.2.4.1.8.1 1.2-.2.3-.2.6-.5.7-.9.2-.7-.2-1.7-1-1.8-.2 0-.3-.1-.5-.1.1.1.2.1.4.2-.3-.1-.5-.3-.7-.4.1.1.2.2.3.2-.3-.2-.6-.5-.8-.8.1.1.2.2.2.3a.76.76 0 0 1-.2-.4c.1.1.1.2.2.4-.1-.1-.1-.3-.1-.4 0 .1 0 .3.1.4v-.5c0 .1 0 .3-.1.4 0-.2.1-.4.1-.5-.1.1-.1.2-.2.4.1-.2.2-.3.3-.5-.1.1-.2.2-.2.3.1-.1.2-.3.4-.4-.1.1-.2.2-.3.2.2-.1.3-.2.5-.3-.1.1-.2.1-.4.2.2-.1.4-.1.7-.2-.1 0-.3 0-.4.1h.8c-.1 0-.3 0-.4-.1.3 0 .5.1.7.2-.1-.1-.2-.1-.4-.2.2.1.4.2.6.4-.1-.1-.2-.2-.3-.2.1.1.3.2.4.4-.1-.1-.2-.2-.2-.3.1.1.2.3.3.5-.1-.1-.1-.2-.2-.4.1.2.1.4.2.6 0-.1 0-.3-.1-.4v.5c0-.1 0-.3.1-.4 0 .2-.1.3-.1.5.1-.1.1-.2.2-.4-.1.2-.2.3-.3.5.1-.1.2-.2.2-.3-.1.2-.3.3-.5.5.1-.1.2-.2.3-.2l-.6.3c.1-.1.2-.1.4-.2-.3.1-.6.2-1 .2.1 0 .3 0 .4-.1h-.1c-.4 0-.8.1-1.1.4s-.5.7-.4 1.1c0 .4.1.8.4 1.1.1 0 .5.2.9.2z"/></g><path d="M40.7 96.4c1-.1 1.7-.4 2.3-1.2.5-.6.4-1.6 0-2.2-.4-.7-1.2-1.1-2-1.1-.8-.1-1.6.2-2.1.7-.5.6-.7 1.4-.4 2.1.3.5 1.3 1.5 2.2 1.7z" class="K"/><g class="L"><use xlink:href="#b"/><path d="M27.3 100.2c.8-.1 1.5-.2 2.1-.6.6-.3 1.2-.9 1.5-1.5.8-1.5.4-3.4-.8-4.4-1.3-1.1-3.1-1.3-4.7-.5-1.4.7-2.3 2.6-1.8 4.1.2.7.7 1.3 1.2 1.8.6.5 1.3 1 2.1 1.2.4.1.8.1 1.2-.2.3-.2.6-.5.7-.9.2-.7-.2-1.7-1-1.8-.2 0-.3-.1-.5-.1.1.1.2.1.4.2-.3-.1-.5-.3-.7-.4.1.1.2.2.3.2-.3-.2-.6-.5-.8-.8.1.1.2.2.2.3a.76.76 0 0 1-.2-.4c.1.1.1.2.2.4-.1-.1-.1-.3-.1-.4 0 .1 0 .3.1.4v-.5c0 .1 0 .3-.1.4 0-.2.1-.4.1-.5-.1.1-.1.2-.2.4.1-.2.2-.3.3-.5-.1.1-.2.2-.2.3.1-.1.2-.3.4-.4-.1.1-.2.2-.3.2.2-.1.3-.2.5-.3-.1.1-.2.1-.4.2.2-.1.4-.1.7-.2-.1 0-.3 0-.4.1h.8c-.1 0-.3 0-.4-.1.3 0 .5.1.7.2-.1-.1-.2-.1-.4-.2.2.1.4.2.6.4-.1-.1-.2-.2-.3-.2.1.1.3.2.4.4-.1-.1-.2-.2-.2-.3.1.1.2.3.3.5-.1-.1-.1-.2-.2-.4.1.2.1.4.2.6 0-.1 0-.3-.1-.4v.5c0-.1 0-.3.1-.4 0 .2-.1.3-.1.5.1-.1.1-.2.2-.4-.1.2-.2.3-.3.5.1-.1.2-.2.2-.3-.1.2-.3.3-.5.5.1-.1.2-.2.3-.2l-.6.3c.1-.1.2-.1.4-.2-.3.1-.6.2-1 .2.1 0 .3 0 .4-.1h-.1c-.4 0-.8.1-1.1.4s-.5.7-.4 1.1c0 .4.1.8.4 1.1.1 0 .5.2.9.2z"/></g><path d="M32.6 90.8c1-.1 1.7-.4 2.3-1.2.5-.6.4-1.6 0-2.2-.4-.7-1.2-1.1-2-1.1-.8-.1-1.6.2-2.1.7-.5.6-.7 1.4-.4 2.1.3.6 1.3 1.6 2.2 1.7z" class="K"/><g class="L"><use xlink:href="#c"/><use xlink:href="#d"/></g><g class="K"><path d="M24 85c1-.1 1.7-.4 2.3-1.2.5-.6.4-1.6 0-2.2-.4-.7-1.2-1.1-2-1.1-.8-.1-1.6.2-2.1.7-.5.6-.7 1.4-.4 2.1.3.5 1.3 1.5 2.2 1.7zm-13.1 2.5c1-.1 1.7-.4 2.3-1.2.5-.6.4-1.6 0-2.2-.4-.7-1.2-1.1-2-1.1-.8-.1-1.6.2-2.1.7-.5.6-.7 1.4-.4 2.1.2.5 1.2 1.5 2.2 1.7z"/></g><g class="L"><path d="M16.2 79.7c1-.1 1.7-.4 2.3-1.2.5-.6.4-1.6 0-2.2-.4-.7-1.2-1.1-2-1.1-.8-.1-1.6.2-2.1.7-.5.6-.7 1.4-.4 2.1.2.5 1.2 1.5 2.2 1.7z"/><path d="M16.2 81.2c.8-.1 1.5-.2 2.1-.6.6-.3 1.2-.9 1.5-1.5.8-1.5.4-3.4-.8-4.4-1.3-1.1-3.1-1.3-4.7-.5-1.4.7-2.3 2.6-1.8 4.1.2.7.7 1.3 1.2 1.8.6.5 1.3 1 2.1 1.2.4.1.8.1 1.2-.2.3-.2.6-.5.7-.9.2-.7-.2-1.7-1-1.8-.2 0-.3-.1-.5-.1.1.1.2.1.4.2-.3-.1-.5-.3-.7-.4.1.1.2.2.3.2-.3-.2-.6-.5-.8-.8.1.1.2.2.2.3a.76.76 0 0 1-.2-.4c.1.1.1.2.2.4-.1-.1-.1-.3-.1-.4 0 .1 0 .3.1.4v-.5c0 .1 0 .3-.1.4 0-.2.1-.4.1-.5-.1.1-.1.2-.2.4.1-.2.2-.3.3-.5-.1.1-.2.2-.2.3.1-.1.2-.3.4-.4-.1.1-.2.2-.3.2.2-.1.3-.2.5-.3-.1.1-.2.1-.4.2.2-.1.4-.1.7-.2-.1 0-.3 0-.4.1h.8c-.1 0-.3 0-.4-.1.3 0 .5.1.7.2-.1-.1-.2-.1-.4-.2.2.1.4.2.6.4-.1-.1-.2-.2-.3-.2.1.1.3.2.4.4-.1-.1-.2-.2-.2-.3.1.1.2.3.3.5-.1-.1-.1-.2-.2-.4.1.2.1.4.2.6 0-.1 0-.3-.1-.4v.5c0-.1 0-.3.1-.4 0 .2-.1.3-.1.5.1-.1.1-.2.2-.4-.1.2-.2.3-.3.5.1-.1.2-.2.2-.3-.1.2-.3.3-.5.5.1-.1.2-.2.3-.2l-.6.3c.1-.1.2-.1.4-.2-.3.1-.6.2-1 .2.1 0 .3 0 .4-.1h-.1c-.4 0-.8.1-1.1.4s-.5.7-.4 1.1c0 .4.1.8.4 1.1.1 0 .5.2.9.2z"/></g><g class="K"><path d="M2.7 82c1-.1 1.7-.4 2.3-1.2.5-.6.4-1.6 0-2.2-.4-.7-1.2-1.1-2-1.1-.8-.1-1.6.2-2.1.7-.5.6-.7 1.4-.4 2.1.3.5 1.3 1.5 2.2 1.7zm5.4-7.8c1-.1 1.7-.4 2.3-1.2.5-.6.4-1.6 0-2.2-.4-.7-1.2-1.1-2-1.1-.8-.1-1.6.2-2.1.7-.5.6-.7 1.4-.4 2.1.2.5 1.2 1.5 2.2 1.7zm47.8 19.2c1-.1 1.7-.4 2.3-1.2.5-.6.4-1.6 0-2.2-.4-.7-1.2-1.1-2-1.1-.8-.1-1.6.2-2.1.7-.5.6-.7 1.4-.4 2.1.3.5 1.3 1.5 2.2 1.7zm5.3-7.9c1-.1 1.7-.4 2.3-1.2.5-.6.4-1.6 0-2.2-.4-.7-1.2-1.1-2-1.1-.8-.1-1.6.2-2.1.7-.5.6-.7 1.4-.4 2.1.3.6 1.3 1.6 2.2 1.7z"/></g><g class="L"><path d="M47 87.1c1-.1 1.7-.4 2.3-1.2.5-.6.4-1.6 0-2.2-.4-.7-1.2-1.1-2-1.1-.8-.1-1.6.2-2.1.7-.5.6-.7 1.4-.4 2.1.3.5 1.3 1.5 2.2 1.7z"/><path d="M47 88.6c.8-.1 1.5-.2 2.1-.6.6-.3 1.2-.9 1.5-1.5.8-1.5.4-3.4-.8-4.4-1.3-1.1-3.1-1.3-4.7-.5-1.4.7-2.3 2.6-1.8 4.1.2.7.7 1.3 1.2 1.8.6.5 1.3 1 2.1 1.2.4.1.8.1 1.2-.2.3-.2.6-.5.7-.9.2-.7-.2-1.7-1-1.8-.2 0-.3-.1-.5-.1.1.1.2.1.4.2-.3-.1-.5-.3-.7-.4.1.1.2.2.3.2-.3-.2-.6-.5-.8-.8.1.1.2.2.2.3a.76.76 0 0 1-.2-.4c.1.1.1.2.2.4-.1-.1-.1-.3-.1-.4 0 .1 0 .3.1.4v-.5c0 .1 0 .3-.1.4 0-.2.1-.4.1-.5-.1.1-.1.2-.2.4.1-.2.2-.3.3-.5-.1.1-.2.2-.2.3.1-.1.2-.3.4-.4-.1.1-.2.2-.3.2.2-.1.3-.2.5-.3-.1.1-.2.1-.4.2.2-.1.4-.1.7-.2-.1 0-.3 0-.4.1h.8c-.1 0-.3 0-.4-.1.3 0 .5.1.7.2-.1-.1-.2-.1-.4-.2.2.1.4.2.6.4-.1-.1-.2-.2-.3-.2.1.1.3.2.4.4-.1-.1-.2-.2-.2-.3.1.1.2.3.3.5-.1-.1-.1-.2-.2-.4.1.2.1.4.2.6 0-.1 0-.3-.1-.4v.5c0-.1 0-.3.1-.4 0 .2-.1.3-.1.5.1-.1.1-.2.2-.4-.1.2-.2.3-.3.5.1-.1.2-.2.2-.3-.1.2-.3.3-.5.5.1-.1.2-.2.3-.2l-.6.3c.1-.1.2-.1.4-.2-.3.1-.6.2-1 .2.1 0 .3 0 .4-.1h-.1c-.4 0-.8.1-1.1.4s-.5.7-.4 1.1c0 .4.1.8.4 1.1.1 0 .5.2.9.2z"/></g><g class="K"><path d="M52.3 79.3c1-.1 1.7-.4 2.3-1.2.5-.6.4-1.6 0-2.2-.4-.7-1.2-1.1-2-1.1-.8-.1-1.6.2-2.1.7-.5.6-.7 1.4-.4 2.1.3.5 1.3 1.5 2.2 1.7zm-13.4 2.3c1-.1 1.7-.4 2.3-1.2.5-.6.4-1.6 0-2.2-.4-.7-1.2-1.1-2-1.1-.8-.1-1.6.2-2.1.7-.5.6-.7 1.4-.4 2.1.3.5 1.3 1.5 2.2 1.7z"/></g><g class="L"><path d="M44.2 73.7c1-.1 1.7-.4 2.3-1.2.5-.6.4-1.6 0-2.2-.4-.7-1.2-1.1-2-1.1-.8-.1-1.6.2-2.1.7-.5.6-.7 1.4-.4 2.1.3.6 1.3 1.6 2.2 1.7z"/><path d="M44.2 75.2c.8-.1 1.5-.2 2.1-.6.6-.3 1.2-.9 1.5-1.5.8-1.5.4-3.4-.8-4.4-1.3-1.1-3.1-1.3-4.7-.5-1.4.7-2.3 2.6-1.8 4.1.2.7.7 1.3 1.2 1.8.6.5 1.3 1 2.1 1.2.4.1.8.1 1.2-.2.3-.2.6-.5.7-.9.2-.7-.2-1.7-1-1.8-.2 0-.3-.1-.5-.1.1.1.2.1.4.2-.3-.1-.5-.3-.7-.4.1.1.2.2.3.2-.3-.2-.6-.5-.8-.8.1.1.2.2.2.3a.76.76 0 0 1-.2-.4c.1.1.1.2.2.4-.1-.1-.1-.3-.1-.4 0 .1 0 .3.1.4v-.5c0 .1 0 .3-.1.4 0-.2.1-.4.1-.5-.1.1-.1.2-.2.4.1-.2.2-.3.3-.5-.1.1-.2.2-.2.3.1-.1.2-.3.4-.4-.1.1-.2.2-.3.2.2-.1.3-.2.5-.3-.1.1-.2.1-.4.2.2-.1.4-.1.7-.2-.1 0-.3 0-.4.1h.8c-.1 0-.3 0-.4-.1.3 0 .5.1.7.2-.1-.1-.2-.1-.4-.2.2.1.4.2.6.4-.1-.1-.2-.2-.3-.2.1.1.3.2.4.4-.1-.1-.2-.2-.2-.3.1.1.2.3.3.5-.1-.1-.1-.2-.2-.4.1.2.1.4.2.6 0-.1 0-.3-.1-.4v.5c0-.1 0-.3.1-.4 0 .2-.1.3-.1.5.1-.1.1-.2.2-.4-.1.2-.2.3-.3.5.1-.1.2-.2.2-.3-.1.2-.3.3-.5.5.1-.1.2-.2.3-.2l-.6.3c.1-.1.2-.1.4-.2-.3.1-.6.2-1 .2.1 0 .3 0 .4-.1h-.1c-.4 0-.8.1-1.1.4s-.5.7-.4 1.1c0 .4.1.8.4 1.1a1.1 1.1 0 0 0 .9.2z"/></g><g class="K"><path d="M30.3 75.7c1-.1 1.7-.4 2.3-1.2.5-.6.4-1.6 0-2.2-.4-.7-1.2-1.1-2-1.1-.8-.1-1.6.2-2.1.7-.5.6-.7 1.4-.4 2.1.3.5 1.3 1.6 2.2 1.7zm5.3-7.8c1-.1 1.7-.4 2.3-1.2.5-.6.4-1.6 0-2.2-.4-.7-1.2-1.1-2-1.1-.8-.1-1.6.2-2.1.7-.5.6-.7 1.4-.4 2.1.3.5 1.3 1.5 2.2 1.7zm-13.1 2.5c1-.1 1.7-.4 2.3-1.2.5-.6.4-1.6 0-2.2-.4-.7-1.2-1.1-2-1.1-.8-.1-1.6.2-2.1.7-.5.6-.7 1.4-.4 2.1.2.5 1.2 1.5 2.2 1.7zm5.3-7.8c1-.1 1.7-.4 2.3-1.2.5-.6.4-1.6 0-2.2-.4-.7-1.2-1.1-2-1.1-.8-.1-1.6.2-2.1.7-.5.6-.7 1.4-.4 2.1.3.5 1.3 1.5 2.2 1.7z"/></g><g class="L"><path d="M14.4 64.9c1-.1 1.7-.4 2.3-1.2.5-.6.4-1.6 0-2.2-.4-.7-1.2-1.1-2-1.1-.8-.1-1.6.2-2.1.7-.5.6-.7 1.4-.4 2.1.2.5 1.2 1.5 2.2 1.7z"/><path d="M14.4 66.4c.8-.1 1.5-.2 2.1-.6.6-.3 1.2-.9 1.5-1.5.8-1.5.4-3.4-.8-4.4-1.3-1.1-3.1-1.3-4.7-.5-1.4.7-2.3 2.6-1.8 4.1.2.7.7 1.3 1.2 1.8.6.5 1.3 1 2.1 1.2.4.1.8.1 1.2-.2.3-.2.6-.5.7-.9.2-.7-.2-1.7-1-1.8-.2 0-.3-.1-.5-.1.1.1.2.1.4.2-.3-.1-.5-.3-.7-.4.1.1.2.2.3.2-.3-.2-.6-.5-.8-.8.1.1.2.2.2.3a.76.76 0 0 1-.2-.4c.1.1.1.2.2.4-.1-.1-.1-.3-.1-.4 0 .1 0 .3.1.4v-.5c0 .1 0 .3-.1.4 0-.2.1-.4.1-.5-.1.1-.1.2-.2.4.1-.2.2-.3.3-.5-.1.1-.2.2-.2.3.1-.1.2-.3.4-.4-.1.1-.2.2-.3.2.2-.1.3-.2.5-.3-.1.1-.2.1-.4.2.2-.1.4-.1.7-.2-.1 0-.3 0-.4.1h.8c-.1 0-.3 0-.4-.1.3 0 .5.1.7.2-.1-.1-.2-.1-.4-.2.2.1.4.2.6.4-.1-.1-.2-.2-.3-.2.1.1.3.2.4.4-.1-.1-.2-.2-.2-.3.1.1.2.3.3.5-.1-.1-.1-.2-.2-.4.1.2.1.4.2.6 0-.1 0-.3-.1-.4v.5c0-.1 0-.3.1-.4 0 .2-.1.3-.1.5.1-.1.1-.2.2-.4-.1.2-.2.3-.3.5.1-.1.2-.2.2-.3-.1.2-.3.3-.5.5.1-.1.2-.2.3-.2l-.6.3c.1-.1.2-.1.4-.2-.3.1-.6.2-1 .2.1 0 .3 0 .4-.1h-.1c-.4 0-.8.1-1.1.4s-.5.7-.4 1.1c0 .4.1.8.4 1.1.1 0 .5.2.9.2zm5.3-9.3c1-.1 1.7-.4 2.3-1.2.5-.6.4-1.6 0-2.2-.4-.7-1.2-1.1-2-1.1-.8-.1-1.6.2-2.1.7-.5.6-.7 1.4-.4 2.1.2.5 1.2 1.5 2.2 1.7z"/><path d="M19.7 58.6c.8-.1 1.5-.2 2.1-.6.6-.3 1.2-.9 1.5-1.5.8-1.5.4-3.4-.8-4.4-1.3-1.1-3.1-1.3-4.7-.5-1.4.7-2.3 2.6-1.8 4.1.2.7.7 1.3 1.2 1.8.6.5 1.3 1 2.1 1.2.4.1.8.1 1.2-.2.3-.2.6-.5.7-.9.2-.7-.2-1.7-1-1.8-.2 0-.3-.1-.5-.1.1.1.2.1.4.2-.3-.1-.5-.3-.7-.4.1.1.2.2.3.2-.3-.2-.6-.5-.8-.8.1.1.2.2.2.3a.76.76 0 0 1-.2-.4c.1.1.1.2.2.4-.1-.1-.1-.3-.1-.4 0 .1 0 .3.1.4v-.5c0 .1 0 .3-.1.4 0-.2.1-.4.1-.5-.1.1-.1.2-.2.4.1-.2.2-.3.3-.5-.1.1-.2.2-.2.3.1-.1.2-.3.4-.4-.1.1-.2.2-.3.2.2-.1.3-.2.5-.3-.1.1-.2.1-.4.2.2-.1.4-.1.7-.2-.1 0-.3 0-.4.1h.8c-.1 0-.3 0-.4-.1.3 0 .5.1.7.2-.1-.1-.2-.1-.4-.2.2.1.4.2.6.4-.1-.1-.2-.2-.3-.2.1.1.3.2.4.4-.1-.1-.2-.2-.2-.3.1.1.2.3.3.5-.1-.1-.1-.2-.2-.4.1.2.1.4.2.6 0-.1 0-.3-.1-.4v.5c0-.1 0-.3.1-.4 0 .2-.1.3-.1.5.1-.1.1-.2.2-.4-.1.2-.2.3-.3.5.1-.1.2-.2.2-.3-.1.2-.3.3-.5.5.1-.1.2-.2.3-.2l-.6.3c.1-.1.2-.1.4-.2-.3.1-.6.2-1 .2.1 0 .3 0 .4-.1h-.1c-.4 0-.8.1-1.1.4s-.5.7-.4 1.1c0 .4.1.8.4 1.1.1 0 .5.2.9.2z"/></g><g class="K"><path d="M65.7 77.8c1-.1 1.7-.4 2.3-1.2.5-.6.4-1.6 0-2.2-.4-.7-1.2-1.1-2-1.1-.8-.1-1.6.2-2.1.7-.5.6-.7 1.4-.4 2.1.2.5 1.2 1.6 2.2 1.7zm-8.9-6.3c1-.1 1.7-.4 2.3-1.2.5-.6.4-1.6 0-2.2A2.75 2.75 0 0 0 57 67c-.8-.1-1.6.2-2.1.7-.5.6-.7 1.4-.4 2.1.3.6 1.3 1.6 2.3 1.7z"/></g><g class="L"><path d="M48.7 66c1-.1 1.7-.4 2.3-1.2.5-.6.4-1.6 0-2.2-.4-.7-1.2-1.1-2-1.1-.8-.1-1.6.2-2.1.7-.5.6-.7 1.4-.4 2.1.2.5 1.2 1.6 2.2 1.7z"/><path d="M48.7 67.5c.8-.1 1.5-.2 2.1-.6.6-.3 1.2-.9 1.5-1.5.8-1.5.4-3.4-.8-4.4-1.3-1.1-3.1-1.3-4.7-.5-1.4.7-2.3 2.6-1.8 4.1.2.7.7 1.3 1.2 1.8.6.5 1.3 1 2.1 1.2.4.1.8.1 1.2-.2.3-.2.6-.5.7-.9.2-.7-.2-1.7-1-1.8-.2 0-.3-.1-.5-.1.1.1.2.1.4.2-.3-.1-.5-.3-.7-.4.1.1.2.2.3.2-.3-.2-.6-.5-.8-.8.1.1.2.2.2.3a.76.76 0 0 1-.2-.4c.1.1.1.2.2.4-.1-.1-.1-.3-.1-.4 0 .1 0 .3.1.4v-.5c0 .1 0 .3-.1.4 0-.2.1-.4.1-.5-.1.1-.1.2-.2.4.1-.2.2-.3.3-.5-.1.1-.2.2-.2.3.1-.1.2-.3.4-.4-.1.1-.2.2-.3.2.2-.1.3-.2.5-.3-.3-.2-.5-.2-.6-.1.2-.1.4-.1.7-.2-.1 0-.3 0-.4.1h.8c-.1 0-.3 0-.4-.1.3 0 .5.1.7.2-.1 0-.2-.1-.4-.1.2.1.4.2.6.4-.1-.1-.2-.2-.3-.2.1.1.3.2.4.4-.1-.1-.2-.2-.2-.3.1.1.2.3.3.5-.1-.1-.1-.2-.2-.4.1.2.1.4.2.6 0-.1 0-.3-.1-.4v.5c0-.1 0-.3.1-.4 0 .2-.1.3-.1.5.1-.1.1-.2.2-.4-.1.2-.2.3-.3.5.1-.1.2-.2.2-.3-.1.2-.3.3-.5.5.1-.1.2-.2.3-.2l-.6.3c.1-.1.2-.1.4-.2-.3.1-.6.2-1 .2.1 0 .3 0 .4-.1h-.1c-.4 0-.8.1-1.1.4s-.5.7-.4 1.1c0 .4.1.8.4 1.1.3.2.7.5 1.1.4z"/></g><g class="K"><path d="M40.1 60.2c1-.1 1.7-.4 2.3-1.2.5-.6.4-1.6 0-2.2-.4-.7-1.2-1.1-2-1.1-.8-.1-1.6.2-2.1.7-.5.6-.7 1.4-.4 2.1.2.5 1.2 1.5 2.2 1.7zm-7.9-5.4c1-.1 1.7-.4 2.3-1.2.5-.6.4-1.6 0-2.2-.4-.7-1.2-1.1-2-1.1-.8-.1-1.6.2-2.1.7-.5.6-.7 1.4-.4 2.1.3.6 1.3 1.6 2.2 1.7z"/></g><g class="L"><path d="M24.1 49.3c1-.1 1.7-.4 2.3-1.2.5-.6.4-1.6 0-2.2-.4-.7-1.2-1.1-2-1.1-.8-.1-1.6.2-2.1.7-.5.6-.7 1.4-.4 2.1.3.6 1.3 1.6 2.2 1.7z"/><path d="M24.1 50.8c.8-.1 1.5-.2 2.1-.6.6-.3 1.2-.9 1.5-1.5.8-1.5.4-3.4-.8-4.4-1.3-1.1-3.1-1.3-4.7-.5-1.4.7-2.3 2.6-1.8 4.1.2.7.7 1.3 1.2 1.8.6.5 1.3 1 2.1 1.2.4.1.8.1 1.2-.2.3-.2.6-.5.7-.9.2-.7-.2-1.7-1-1.8-.2 0-.3-.1-.5-.1.1.1.2.1.4.2-.3-.1-.5-.3-.7-.4.1.1.2.2.3.2-.3-.2-.6-.5-.8-.8.1.1.2.2.2.3a.76.76 0 0 1-.2-.4c.1.1.1.2.2.4-.1-.1-.1-.3-.1-.4 0 .1 0 .3.1.4v-.5c0 .1 0 .3-.1.4 0-.2.1-.4.1-.5-.1.1-.1.2-.2.4.1-.2.2-.3.3-.5-.1.1-.2.2-.2.3.1-.1.2-.3.4-.4-.1.1-.2.2-.3.2.2-.1.3-.2.5-.3-.1.1-.2.1-.4.2.2-.1.4-.1.7-.2-.1 0-.3 0-.4.1h.8c-.1 0-.3 0-.4-.1.3 0 .5.1.7.2-.1-.1-.2-.1-.4-.2.2.1.4.2.6.4-.1-.1-.2-.2-.3-.2.1.1.3.2.4.4-.1-.1-.2-.2-.2-.3.1.1.2.3.3.5-.1-.1-.1-.2-.2-.4.1.2.1.4.2.6 0-.1 0-.3-.1-.4v.5c0-.1 0-.3.1-.4 0 .2-.1.3-.1.5.1-.1.1-.2.2-.4-.1.2-.2.3-.3.5.1-.1.2-.2.2-.3-.1.2-.3.3-.5.5.1-.1.2-.2.3-.2l-.6.3c.1-.1.2-.1.4-.2-.3.1-.6.2-1 .2.1 0 .3 0 .4-.1h-.1c-.4 0-.8.1-1.1.4s-.5.7-.4 1.1c0 .4.1.8.4 1.1.1 0 .5.3.9.2z"/></g><path d="M71.4 70c1-.1 1.7-.4 2.3-1.2.5-.6.4-1.6 0-2.2-.4-.7-1.2-1.1-2-1.1-.8-.1-1.6.2-2.1.7-.5.6-.7 1.4-.4 2.1.3.5 1.3 1.5 2.2 1.7z" class="K"/><g class="L"><path d="M76.7 62.2c1-.1 1.7-.4 2.3-1.2.5-.6.4-1.6 0-2.2-.4-.7-1.2-1.1-2-1.1-.8-.1-1.6.2-2.1.7-.5.6-.7 1.4-.4 2.1.3.5 1.3 1.5 2.2 1.7z"/><path d="M76.7 63.7c.8-.1 1.5-.2 2.1-.6.6-.3 1.2-.9 1.5-1.5.8-1.5.4-3.4-.8-4.4-1.3-1.1-3.1-1.3-4.7-.5-1.4.7-2.3 2.6-1.8 4.1.2.7.7 1.3 1.2 1.8.6.5 1.3 1 2.1 1.2.4.1.8.1 1.2-.2.3-.2.6-.5.7-.9.2-.7-.2-1.7-1-1.8-.2 0-.3-.1-.5-.1.1.1.2.1.4.2-.3-.1-.5-.3-.7-.4.1.1.2.2.3.2-.3-.2-.6-.5-.8-.8.1.1.2.2.2.3a.76.76 0 0 1-.2-.4c.1.1.1.2.2.4-.1-.1-.1-.3-.1-.4 0 .1 0 .3.1.4v-.5c0 .1 0 .3-.1.4 0-.2.1-.4.1-.5-.1.1-.1.2-.2.4.1-.2.2-.3.3-.5-.1.1-.2.2-.2.3.1-.1.2-.3.4-.4-.1.1-.2.2-.3.2.2-.1.3-.2.5-.3-.1.1-.2.1-.4.2.2-.1.4-.1.7-.2-.1 0-.3 0-.4.1h.8c-.1 0-.3 0-.4-.1.3 0 .5.1.7.2-.1-.1-.2-.1-.4-.2.2.1.4.2.6.4-.1-.1-.2-.2-.3-.2.1.1.3.2.4.4-.1-.1-.2-.2-.2-.3.1.1.2.3.3.5-.1-.1-.1-.2-.2-.4.1.2.1.4.2.6 0-.1 0-.3-.1-.4v.5c0-.1 0-.3.1-.4 0 .2-.1.3-.1.5.1-.1.1-.2.2-.4-.1.2-.2.3-.3.5.1-.1.2-.2.2-.3-.1.2-.3.3-.5.5.1-.1.2-.2.3-.2l-.6.3c.1-.1.2-.1.4-.2-.3.1-.6.2-1 .2.1 0 .3 0 .4-.1h-.1c-.4 0-.8.1-1.1.4s-.5.7-.4 1.1c0 .4.1.8.4 1.1.1 0 .5.2.9.2zm-14.2 0c1-.1 1.7-.4 2.3-1.2.5-.6.4-1.6 0-2.2-.4-.7-1.2-1.1-2-1.1-.8-.1-1.6.2-2.1.7-.5.6-.7 1.4-.4 2.1.2.5 1.2 1.5 2.2 1.7z"/><path d="M62.5 65.2c.8-.1 1.5-.2 2.1-.6.6-.3 1.2-.9 1.5-1.5.8-1.5.4-3.4-.8-4.4-1.3-1.1-3.1-1.3-4.7-.5-1.4.7-2.3 2.6-1.8 4.1.2.7.7 1.3 1.2 1.8.6.5 1.3 1 2.1 1.2.4.1.8.1 1.2-.2.3-.2.6-.5.7-.9.2-.7-.2-1.7-1-1.8-.2 0-.3-.1-.5-.1.1.1.2.1.4.2-.3-.1-.5-.3-.7-.4.1.1.2.2.3.2-.3-.2-.6-.5-.8-.8.1.1.2.2.2.3a.76.76 0 0 1-.2-.4c.1.1.1.2.2.4-.1-.1-.1-.3-.1-.4 0 .1 0 .3.1.4v-.5c0 .1 0 .3-.1.4 0-.2.1-.4.1-.5-.1.1-.1.2-.2.4.1-.2.2-.3.3-.5-.1.1-.2.2-.2.3.1-.1.2-.3.4-.4-.1.1-.2.2-.3.2.2-.1.3-.2.5-.3-.1.1-.2.1-.4.2.2-.1.4-.1.7-.2-.1 0-.3 0-.4.1h.8c-.1 0-.3 0-.4-.1.3 0 .5.1.7.2-.1-.1-.2-.1-.4-.2.2.1.4.2.6.4-.1-.1-.2-.2-.3-.2.1.1.3.2.4.4-.1-.1-.2-.2-.2-.3.1.1.2.3.3.5-.1-.1-.1-.2-.2-.4.1.2.1.4.2.6 0-.1 0-.3-.1-.4v.5c0-.1 0-.3.1-.4 0 .2-.1.3-.1.5.1-.1.1-.2.2-.4-.1.2-.2.3-.3.5.1-.1.2-.2.2-.3-.1.2-.3.3-.5.5.1-.1.2-.2.3-.2l-.6.3c.1-.1.2-.1.4-.2-.3.1-.6.2-1 .2.1 0 .3 0 .4-.1h-.1c-.4 0-.8.1-1.1.4s-.5.7-.4 1.1c0 .4.1.8.4 1.1.1 0 .5.2.9.2z"/></g><g class="K"><path d="M67.8 55.9c1-.1 1.7-.4 2.3-1.2.5-.6.4-1.6 0-2.2-.4-.7-1.2-1.1-2-1.1-.8-.1-1.6.2-2.1.7-.5.6-.7 1.4-.4 2.1.3.5 1.3 1.5 2.2 1.7zm-13.4 2.3c1-.1 1.7-.4 2.3-1.2.5-.6.4-1.6 0-2.2-.4-.7-1.2-1.1-2-1.1-.8-.1-1.6.2-2.1.7-.5.6-.7 1.4-.4 2.1.2.5 1.2 1.5 2.2 1.7z"/><use xlink:href="#e"/><path d="M45.8 52.3c1-.1 1.7-.4 2.3-1.2.5-.6.4-1.6 0-2.2-.4-.7-1.2-1.1-2-1.1-.8-.1-1.6.2-2.1.7-.5.6-.7 1.4-.4 2.1.2.5 1.2 1.6 2.2 1.7zm5.3-7.8c1-.1 1.7-.4 2.3-1.2.5-.6.4-1.6 0-2.2-.4-.7-1.2-1.1-2-1.1-.8-.1-1.6.2-2.1.7-.5.6-.7 1.4-.4 2.1.3.5 1.3 1.5 2.2 1.7zM37.9 47c1-.1 1.7-.4 2.3-1.2.5-.6.4-1.6 0-2.2-.4-.7-1.2-1.1-2-1.1-.8-.1-1.6.2-2.1.7-.5.6-.7 1.4-.4 2.1.3.5 1.3 1.5 2.2 1.7z"/></g><g class="L"><path d="M43.3 39.2c1-.1 1.7-.4 2.3-1.2.5-.6.4-1.6 0-2.2-.4-.7-1.2-1.1-2-1.1-.8-.1-1.6.2-2.1.7-.5.6-.7 1.4-.4 2.1.2.5 1.2 1.5 2.2 1.7z"/><path d="M43.3 40.7c.8-.1 1.5-.2 2.1-.6.6-.3 1.2-.9 1.5-1.5.8-1.5.4-3.4-.8-4.4-1.3-1.1-3.1-1.3-4.7-.5-1.4.7-2.3 2.6-1.8 4.1.2.7.7 1.3 1.2 1.8.6.5 1.3 1 2.1 1.2.4.1.8.1 1.2-.2.3-.2.6-.5.7-.9.2-.7-.2-1.7-1-1.8-.2 0-.3-.1-.5-.1.1.1.2.1.4.2-.3-.1-.5-.3-.7-.4.1.1.2.2.3.2-.3-.2-.6-.5-.8-.8.1.1.2.2.2.3a.76.76 0 0 1-.2-.4c.1.1.1.2.2.4-.1-.1-.1-.3-.1-.4 0 .1 0 .3.1.4v-.5c0 .1 0 .3-.1.4 0-.2.1-.4.1-.5-.1.1-.1.2-.2.4.1-.2.2-.3.3-.5-.1.1-.2.2-.2.3.1-.1.2-.3.4-.4-.1.1-.2.2-.3.2.2-.1.3-.2.5-.3-.1.1-.2.1-.4.2.2-.1.4-.1.7-.2-.1 0-.3 0-.4.1h.8c-.1 0-.3 0-.4-.1.3 0 .5.1.7.2-.1-.1-.2-.1-.4-.2.2.1.4.2.6.4-.1-.1-.2-.2-.3-.2.1.1.3.2.4.4-.1-.1-.2-.2-.2-.3.1.1.2.3.3.5-.1-.1-.1-.2-.2-.4.1.2.1.4.2.6 0-.1 0-.3-.1-.4v.5c0-.1 0-.3.1-.4 0 .2-.1.3-.1.5.1-.1.1-.2.2-.4-.1.2-.2.3-.3.5.1-.1.2-.2.2-.3-.1.2-.3.3-.5.5.1-.1.2-.2.3-.2l-.6.3c.1-.1.2-.1.4-.2-.3.1-.6.2-1 .2.1 0 .3 0 .4-.1h-.1c-.4 0-.8.1-1.1.4s-.5.7-.4 1.1c0 .4.1.8.4 1.1.1 0 .5.2.9.2zm-13.5.8c1-.1 1.7-.4 2.3-1.2.5-.6.4-1.6 0-2.2-.4-.7-1.2-1.1-2-1.1-.8-.1-1.6.2-2.1.7-.5.6-.7 1.4-.4 2.1.3.5 1.3 1.5 2.2 1.7z"/><path d="M29.8 43c.8-.1 1.5-.2 2.1-.6.6-.3 1.2-.9 1.5-1.5.8-1.5.4-3.4-.8-4.4-1.3-1.1-3.1-1.3-4.7-.5-1.4.7-2.3 2.6-1.8 4.1.2.7.7 1.3 1.2 1.8.6.5 1.3 1 2.1 1.2.4.1.8.1 1.2-.2.3-.2.6-.5.7-.9.2-.7-.2-1.7-1-1.8-.2 0-.3-.1-.5-.1.1.1.2.1.4.2-.3-.1-.5-.3-.7-.4.1.1.2.2.3.2-.3-.2-.6-.5-.8-.8.1.1.2.2.2.3a.76.76 0 0 1-.2-.4c.1.1.1.2.2.4-.2-.4-.2-.6-.3-.7 0 .1 0 .3.1.4v-.5c0 .1 0 .3-.1.4 0-.2.1-.4.1-.5 0 .1 0 .2-.1.3.1-.2.2-.3.3-.5-.1.1-.2.2-.2.3.1-.1.2-.3.4-.4-.1.1-.2.2-.3.2.2-.1.3-.2.5-.3-.1.1-.2.1-.4.2.2-.1.4-.1.7-.2-.1 0-.3 0-.4.1h.8c-.1 0-.3 0-.4-.1.3 0 .5.1.7.2-.1-.1-.2-.1-.4-.2.2.1.4.2.6.4-.1-.1-.2-.2-.3-.2.1.1.3.2.4.4-.1-.1-.2-.2-.2-.3.1.1.2.3.3.5-.1-.1-.1-.2-.2-.4.1.2.1.4.2.6 0-.1 0-.3-.1-.4v.5c0-.1 0-.3.1-.4 0 .2-.1.3-.1.5.1-.1.1-.2.2-.4-.1.2-.2.3-.3.5.1-.1.2-.2.2-.3-.1.2-.3.3-.5.5.1-.1.2-.2.3-.2l-.6.3c.1-.1.2-.1.4-.2-.3.1-.6.2-1 .2.1 0 .3 0 .4-.1h-.1c-.4 0-.8.1-1.1.4s-.5.7-.4 1.1c0 .4.1.8.4 1.1a1.1 1.1 0 0 0 1 .6z"/></g><path d="M35.1 33.7c1-.1 1.7-.4 2.3-1.2.5-.6.4-1.6 0-2.2-.4-.7-1.2-1.1-2-1.1-.8-.1-1.6.2-2.1.7-.5.6-.7 1.4-.4 2.1.3.5 1.3 1.5 2.2 1.7z" class="K"/><g class="L"><path d="M82.9 53.1c1-.1 1.7-.4 2.3-1.2.5-.6.4-1.6 0-2.2-.4-.7-1.2-1.1-2-1.1-.8-.1-1.6.2-2.1.7-.5.6-.7 1.4-.4 2.1.3.5 1.3 1.5 2.2 1.7z"/><path d="M82.9 54.6c.8-.1 1.5-.2 2.1-.6.6-.3 1.2-.9 1.5-1.5.8-1.5.4-3.4-.8-4.4-1.3-1.1-3.1-1.3-4.7-.5-1.4.7-2.3 2.6-1.8 4.1.2.7.7 1.3 1.2 1.8.6.5 1.3 1 2.1 1.2.4.1.8.1 1.2-.2.3-.2.6-.5.7-.9.2-.7-.2-1.7-1-1.8-.2 0-.3-.1-.5-.1.1.1.2.1.4.2-.3-.1-.5-.3-.7-.4.1.1.2.2.3.2-.3-.2-.6-.5-.8-.8.1.1.2.2.2.3a.76.76 0 0 1-.2-.4c.1.1.1.2.2.4-.1-.1-.1-.3-.1-.4 0 .1 0 .3.1.4v-.5c0 .1 0 .3-.1.4 0-.2.1-.4.1-.5-.1.1-.1.2-.2.4.1-.2.2-.3.3-.5-.1.1-.2.2-.2.3.1-.1.2-.3.4-.4-.1.1-.2.2-.3.2.2-.1.3-.2.5-.3-.1.1-.2.1-.4.2.2-.1.4-.1.7-.2-.1 0-.3 0-.4.1h.8c-.1 0-.3 0-.4-.1.3 0 .5.1.7.2-.1-.1-.2-.1-.4-.2.2.1.4.2.6.4-.1-.1-.2-.2-.3-.2.1.1.3.2.4.4-.1-.1-.2-.2-.2-.3.1.1.2.3.3.5-.1-.1-.1-.2-.2-.4.1.2.1.4.2.6 0-.1 0-.3-.1-.4v.5c0-.1 0-.3.1-.4 0 .2-.1.3-.1.5.1-.1.1-.2.2-.4-.1.2-.2.3-.3.5.1-.1.2-.2.2-.3-.1.2-.3.3-.5.5.1-.1.2-.2.3-.2l-.6.3c.1-.1.2-.1.4-.2-.3.1-.6.2-1 .2.1 0 .3 0 .4-.1h-.1c-.4 0-.8.1-1.1.4s-.5.7-.4 1.1c0 .4.1.8.4 1.1.1 0 .5.2.9.2zM74 46.8c1-.1 1.7-.4 2.3-1.2.5-.6.4-1.6 0-2.2-.4-.7-1.2-1.1-2-1.1-.8-.1-1.6.2-2.1.7-.5.6-.7 1.4-.4 2.1.2.5 1.2 1.5 2.2 1.7z"/><path d="M74 48.3c.8-.1 1.5-.2 2.1-.6.6-.3 1.2-.9 1.5-1.5.8-1.5.4-3.4-.8-4.4-1.3-1.1-3.1-1.3-4.7-.5-1.4.7-2.3 2.6-1.8 4.1.2.7.7 1.3 1.2 1.8.6.5 1.3 1 2.1 1.2.4.1.8.1 1.2-.2.3-.2.6-.5.7-.9.2-.7-.2-1.7-1-1.8-.2 0-.3-.1-.5-.1.1.1.2.1.4.2-.3-.1-.5-.3-.7-.4.1.1.2.2.3.2-.3-.2-.6-.5-.8-.8.1.1.2.2.2.3a.76.76 0 0 1-.2-.4c.1.1.1.2.2.4-.1-.1-.1-.3-.1-.4 0 .1 0 .3.1.4v-.5c0 .1 0 .3-.1.4 0-.2.1-.4.1-.5-.1.1-.1.2-.2.4.1-.2.2-.3.3-.5-.1.1-.2.2-.2.3.1-.1.2-.3.4-.4-.1.1-.2.2-.3.2.2-.1.3-.2.5-.3-.1.1-.2.1-.4.2.2-.1.4-.1.7-.2-.1 0-.3 0-.4.1h.8c-.1 0-.3 0-.4-.1.3 0 .5.1.7.2-.1-.1-.2-.1-.4-.2.2.1.4.2.6.4-.1-.1-.2-.2-.3-.2.1.1.3.2.4.4-.1-.1-.2-.2-.2-.3.1.1.2.3.3.5-.3-.5-.3-.6-.4-.8.1.2.1.4.2.6 0-.1 0-.3-.1-.4v.5c0-.1 0-.3.1-.4 0 .2-.1.3-.1.5.1-.1.1-.2.2-.4-.1.2-.2.3-.3.5.1-.1.2-.2.2-.3-.1.2-.3.3-.5.5.1-.1.2-.2.3-.2l-.6.3c.1-.1.2-.1.4-.2-.3.1-.6.2-1 .2.1 0 .3 0 .4-.1H74c-.4 0-.8.1-1.1.4s-.5.7-.4 1.1c0 .4.1.8.4 1.1.3.4.7.6 1.1.6zm-8.1-7.1c1-.1 1.7-.4 2.3-1.2.5-.6.4-1.6 0-2.2-.4-.7-1.2-1.1-2-1.1-.8-.1-1.6.2-2.1.7-.5.6-.7 1.4-.4 2.1.2.6 1.2 1.6 2.2 1.7z"/><path d="M65.9 42.7c.8-.1 1.5-.2 2.1-.6.6-.3 1.2-.9 1.5-1.5.8-1.5.4-3.4-.8-4.4-1.3-1.1-3.1-1.3-4.7-.5-1.4.7-2.3 2.6-1.8 4.1.2.7.7 1.3 1.2 1.8.6.5 1.3 1 2.1 1.2.4.1.8.1 1.2-.2.3-.2.6-.5.7-.9.2-.7-.2-1.7-1-1.8-.2 0-.3-.1-.5-.1.1.1.2.1.4.2-.3-.1-.5-.3-.7-.4.1.1.2.2.3.2-.3-.2-.6-.5-.8-.8.1.1.2.2.2.3a.76.76 0 0 1-.2-.4c.1.1.1.2.2.4-.3-.4-.3-.5-.3-.7 0 .1 0 .3.1.4v-.5c0 .1 0 .3-.1.4 0-.2.1-.4.1-.5-.1.1-.1.2-.2.4.1-.2.2-.3.3-.5-.1.1-.2.2-.2.3.1-.1.2-.3.4-.4-.1.1-.2.2-.3.2.2-.1.3-.2.5-.3-.1.1-.2.1-.4.2.2-.1.4-.1.7-.2-.1 0-.3 0-.4.1h.8c-.1 0-.3 0-.4-.1.3 0 .5.1.7.2-.1-.1-.2-.1-.4-.2.2.1.4.2.6.4-.1-.1-.2-.2-.3-.2.1.1.3.2.4.4-.1-.1-.2-.2-.2-.3.1.1.2.3.3.5-.1-.1-.1-.2-.2-.4.1.2.1.4.2.6 0-.1 0-.3-.1-.4v.5c0-.1 0-.3.1-.4 0 .2-.1.3-.1.5.1-.1.1-.2.2-.4-.1.2-.2.3-.3.5.1-.1.2-.2.2-.3-.1.2-.3.3-.5.5.1-.1.2-.2.3-.2l-.6.3c.1-.1.2-.1.4-.2-.3.1-.6.2-1 .2.1 0 .3 0 .4-.1h-.1c-.4 0-.8.1-1.1.4s-.5.7-.4 1.1c0 .4.1.8.4 1.1.3.4.7.6 1.1.5zm-8.6-7.3c1-.1 1.7-.4 2.3-1.2.5-.6.4-1.6 0-2.2-.4-.7-1.2-1.1-2-1.1-.8-.1-1.6.2-2.1.7-.5.6-.7 1.4-.4 2.1.2.5 1.2 1.6 2.2 1.7z"/><path d="M57.3 36.9c.8-.1 1.5-.2 2.1-.6.6-.3 1.2-.9 1.5-1.5.8-1.5.4-3.4-.8-4.4-1.3-1.1-3.1-1.3-4.7-.5-1.4.7-2.3 2.6-1.8 4.1.2.7.7 1.3 1.2 1.8.6.5 1.3 1 2.1 1.2.4.1.8.1 1.2-.2.3-.2.6-.5.7-.9.2-.7-.2-1.7-1-1.8-.2 0-.3-.1-.5-.1.1.1.2.1.4.2-.3-.1-.5-.3-.7-.4.1.1.2.2.3.2-.3-.2-.6-.5-.8-.8.1.1.2.2.2.3a.76.76 0 0 1-.2-.4c.1.1.1.2.2.4-.1-.1-.1-.3-.1-.4 0 .1 0 .3.1.4V33c0 .1 0 .3-.1.4 0-.2.1-.4.1-.5-.1.1-.1.2-.2.4.1-.2.2-.3.3-.5-.1.1-.2.2-.2.3.1-.1.2-.3.4-.4-.1.1-.2.2-.3.2.2-.1.3-.2.5-.3-.1.1-.2.1-.4.2.2-.1.4-.1.7-.2-.1 0-.3 0-.4.1h.8c-.1 0-.3 0-.4-.1.3 0 .5.1.7.2-.1-.1-.2-.1-.4-.2.2.1.4.2.6.4-.1-.1-.2-.2-.3-.2.1.1.3.2.4.4-.1-.1-.2-.2-.2-.3.1.1.2.3.3.5-.1-.1-.1-.2-.2-.4.1.2.1.4.2.6 0-.1 0-.3-.1-.4v.5c0-.1 0-.3.1-.4 0 .2-.1.3-.1.5.1-.1.1-.2.2-.4-.1.2-.2.3-.3.5.1-.1.2-.2.2-.3-.1.2-.3.3-.5.5.1-.1.2-.2.3-.2l-.6.3c.1-.1.2-.1.4-.2-.3.1-.6.2-1 .2.1 0 .3 0 .4-.1h-.1c-.4 0-.8.1-1.1.4s-.5.7-.4 1.1c0 .4.1.8.4 1.1.1 0 .5.3.9.2z"/></g><g class="K"><path d="M49.4 30.1c1-.1 1.7-.4 2.3-1.2.5-.6.4-1.6 0-2.2-.4-.7-1.2-1.1-2-1.1-.8-.1-1.6.2-2.1.7-.5.6-.7 1.4-.4 2.1.3.5 1.3 1.5 2.2 1.7zm-8.1-5.5c1-.1 1.7-.4 2.3-1.2.5-.6.4-1.6 0-2.2-.4-.7-1.2-1.1-2-1.1-.8-.1-1.6.2-2.1.7-.5.6-.7 1.4-.4 2.1.3.5 1.3 1.5 2.2 1.7z"/></g><path d="M53.8 158.6c3.7-.2 6.7-1.6 8.4-5s3.2-11 3.6-14.8c-.1 3.3.8 10.9 1.9 14 1.2 3.1 2.8 5.1 6.2 5.4-4.5 1.1-7.6 5.5-8.5 10.3-1 5.5-1.5 8.9-1.9 13-.2-4.1-.4-8.8-1.5-14.4-.7-3.3-1.3-7.3-8.2-8.5z" fill="#dcdcdc"/><path d="M53.8 160.1c2.4-.2 4.7-.7 6.7-2.1 1.9-1.4 3-3.4 3.8-5.6 1.6-4.3 2.5-9 3-13.6h-3c-.1 4.2.5 8.6 1.5 12.7 1.1 4.3 3.5 7.8 8.1 8.2-.1-1-.3-2-.4-2.9-4.6 1.2-7.9 5.2-9.2 9.7-.7 2.5-1 5.3-1.4 7.9-.4 2.3-.7 4.7-.9 7.1h3c-.3-5.5-.6-11.1-1.9-16.5-.4-1.7-1.1-3.4-2.4-4.7-1.7-1.8-4.1-2.6-6.5-3.1-1.9-.3-2.7 2.6-.8 2.9 2 .4 4.1.9 5.4 2.6.9 1.1 1.2 2.4 1.5 3.8 1 5 1.4 10 1.7 15 .1 2 2.8 1.9 3 0 .5-4.4 1.1-8.8 2-13.1.8-3.9 3.3-7.6 7.3-8.7 1.7-.5 1.2-2.8-.4-2.9-3.7-.3-4.8-4-5.5-7.1-.7-3.5-1.2-7.2-1.1-10.7.1-2-2.8-1.9-3 0-.4 3.9-1.3 7.9-2.5 11.6-.5 1.7-1.2 3.4-2.5 4.6-1.5 1.4-3.5 1.9-5.4 2-2 .1-2 3.1-.1 2.9z"/></g><path d="M181.3 90.5c0 17.7-5.8 35-16.3 49.3-10.4 14.1-25.2 24.9-41.7 30.6-17.4 6.1-36.6 6.8-54.4 1.9-17-4.6-32.5-14.3-44-27.7C13.5 131.3 6.3 114.5 5 97 3.6 79.3 8 61.5 17.4 46.5c9.3-14.8 23.1-26.4 39-33.4 16.9-7.5 36.2-9.5 54.3-5.9 17.4 3.4 33.6 12 46.1 24.5 12.3 12.4 20.6 28.4 23.4 45.6.8 4.3 1.1 8.7 1.1 13.2 0 1.9 3 1.9 3 0 0-18.3-6-36.2-16.8-50.9-10.8-14.6-25.9-25.7-43.1-31.7-18-6.4-37.9-7-56.3-2-17.5 4.8-33.6 14.8-45.4 28.7C10.8 48.3 3.4 65.5 2 83.7.5 102 5.1 120.6 14.9 136.1c9.6 15.3 23.9 27.4 40.4 34.6 17.5 7.6 37.2 9.7 56 6.1 18-3.5 34.8-12.4 47.7-25.4 12.7-12.8 21.4-29.4 24.2-47.2.7-4.5 1.1-9.1 1.1-13.6 0-2.1-3-2.1-3-.1h0z"/><path d="M114.8 28.7c3.5-.6 6.1-2 7.3-4.5s1.8-7.9 1.7-10.4c.3 2.3 1.9 7.2 3.3 9.2s3.2 3.1 6.3 2.8c-4.1 1.3-6.5 4.7-6.8 8-.3 3.9-.4 6.2-.4 9-.6-2.7-1.3-5.8-3-9.5-.9-2.2-1.9-4.8-8.4-4.6z" class="L"/><path d="M115.2 30.1c3.7-.7 7.2-2.4 8.6-6.1 1.2-3.1 1.6-6.9 1.5-10.2h-3c.4 3.1 1.5 6.4 3 9.2 1.7 3 4.6 4.5 8.1 4.3-.1-1-.3-2-.4-2.9-3.5 1.2-6.4 3.8-7.5 7.4-.6 1.8-.5 3.8-.6 5.7-.1 1.8-.2 3.6-.1 5.4 1-.1 2-.3 2.9-.4-.9-3.9-1.8-8-3.9-11.4-1.9-3.2-5.6-3.8-9-3.7-1.9 0-1.9 3 0 3 2.6 0 5.4.2 6.7 2.7 1.7 3.2 2.5 6.8 3.3 10.2.4 1.7 3 1.3 2.9-.4 0-3.1-.1-6.3.4-9.4.5-3 2.9-5.2 5.7-6.2 1.5-.5 1.4-3.1-.4-2.9-2.7.2-4.5-.9-5.8-3.3-1.1-2.2-2.1-4.7-2.4-7.2-.2-1.9-3-2-3 0 .1 2.9-.3 5.9-1.2 8.6-1 3.1-3.7 4.3-6.7 4.8-1.8.3-1 3.2.9 2.8z"/></svg>