<svg xmlns="http://www.w3.org/2000/svg" xmlns:xlink="http://www.w3.org/1999/xlink" viewBox="0 0 186 181" xmlns:v="https://vecta.io/nano"><style><![CDATA[.K{fill:#4386c6}.L{fill:#f7c402}.M{fill:#000005}]]></style><g fill="#c2e1e3"><g stroke="#000005"><path d="M182.8 90.5c0 47.8-40.2 86.6-89.8 86.6S3.2 138.3 3.2 90.5 43.4 3.9 93 3.9s89.8 38.8 89.8 86.6" stroke-miterlimit="10"/><ellipse cx="93" cy="90.5" rx="89.5" ry="86"/></g><path d="M182.8 90.5c0 47.8-40.2 86.6-89.8 86.6S3.2 138.4 3.2 90.5C3.2 42.7 43.4 4 93 3.9c49.6 0 89.8 38.8 89.8 86.6"/></g><path d="M181.3 90.5c0 17.7-5.8 35-16.3 49.3-10.4 14.1-25.2 24.9-41.7 30.7-17.4 6.1-36.6 6.8-54.4 1.9-17-4.6-32.5-14.3-44-27.7C13.5 131.4 6.3 114.6 5 97.1a83.36 83.36 0 0 1 12.4-50.6c9.3-14.8 23.1-26.4 39-33.5 16.9-7.5 36.2-9.5 54.3-5.9 17.4 3.4 33.6 12 46.1 24.6 12.3 12.4 20.6 28.4 23.4 45.6.8 4.4 1.1 8.8 1.1 13.2 0 1.9 3 1.9 3 0 0-18.3-6-36.3-16.8-51-10.8-14.6-25.9-25.7-43.1-31.8-18-6.4-37.9-7-56.3-2-17.5 4.8-33.6 14.8-45.4 28.7C10.8 48.3 3.4 65.5 2 83.7.5 102 5.1 120.6 14.9 136.1c9.6 15.3 23.9 27.4 40.4 34.6 17.5 7.6 37.2 9.7 56 6.1 18-3.5 34.8-12.4 47.7-25.4 12.7-12.8 21.4-29.4 24.2-47.3.7-4.5 1.1-9.1 1.1-13.6 0-1.9-3-1.9-3 0h0z" class="M"/><g fill="#e1262f"><path d="M139.1 100.5c6.9.7 13.6-3.8 16.8-9.7 3.9-7 3.3-15.5 1.1-22.9-1.1-3.7-6.9-2.1-5.8 1.6 1.7 5.7 2.6 12.4-.3 17.9-2.4 4.5-6.9 7.6-11.8 7.1-1.6-.2-3 1.5-3 3 0 1.8 1.4 2.8 3 3h0z"/><path d="M157.3 72l-9.5-9c-1.1-1.1-3.1-1.2-4.2 0s-1.2 3.1 0 4.2l9.5 9c1.1 1.1 3.1 1.2 4.2 0s1.2-3.1 0-4.2h0z"/><path d="M157.6 69.6c-.1-2.8-.5-5.6-1.1-8.3-.1-.7-.8-1.4-1.4-1.8s-1.6-.5-2.3-.3c-1.6.5-2.4 2-2.1 3.7l.6 3.4c0-.3-.1-.5-.1-.8.2 1.3.3 2.7.4 4.1 0 .8.3 1.5.9 2.1.5.5 1.4.9 2.1.9.8 0 1.6-.3 2.1-.9.6-.6 1-1.3.9-2.1h0z"/><path d="M158.3 74.6c1.1-2 2.3-3.9 3.7-5.8-.2.2-.3.4-.5.6l2.8-3.2c1.1-1.1 1.2-3.1 0-4.2s-3.1-1.2-4.2 0c-2.7 2.9-5.1 6.1-7 9.6-.7 1.4-.4 3.3 1.1 4.1 1.4.7 3.3.4 4.1-1.1h0zM40.4 87.8c-4.5-1.9-9.8-1.7-13.8 1.2-4.3 3.1-6.3 8.2-5.5 13.5.8 5.4 4.7 8.6 9 11.5 1.7 1.2 3.7 2.4 4.9 4.1.3.4.6.8.7 1.3-.1-.2.1.5.1.5 0 .1.1.8.1.4.1.8-.1 1.6-.3 2.1-.8 1.9-2.3 2.8-4 2.8h-.2c-.3 0-.7-.1-1-.2s-.6-.2-1.1-.5c-.3-.2-.6-.4-.9-.8-.7-.7.1.2-.2-.3-.2-.3-.4-.7-.6-1-.7-1.5-2.8-1.8-4.1-1.1-1.5.9-1.7 2.6-1.1 4.1 2.1 4.5 7.9 7 12.6 5.3 4.8-1.8 7.7-7.1 6.6-12.1-1.3-5.5-6.5-8.1-10.7-11.1-3.5-2.5-5-6.3-3.5-10.2.7-1.9 2.4-3.4 4.1-4 1.2-.5 2-.6 3.1-.6s2 .1 2.8.5c1.5.6 3.2.4 4.1-1.1.7-1.5.4-3.7-1.1-4.3h0z"/><path d="M29.5 135.3c5.2-1.1 9.6-5.5 10.8-10.7.4-1.5-.5-3.3-2.1-3.7-1.5-.3-3.3.5-3.7 2.1-.1.6-.3 1.2-.6 1.8.1-.2.2-.5.3-.7-.4.9-.9 1.8-1.5 2.6.2-.2.3-.4.5-.6-.6.8-1.3 1.5-2.1 2.1.2-.2.4-.3.6-.5-.8.6-1.7 1.1-2.6 1.5.2-.1.5-.2.7-.3-.6.3-1.2.5-1.9.6-1.5.3-2.6 2.2-2.1 3.7.5 1.6 2 2.4 3.7 2.1h0z"/><path d="M28 124.4a24.9 24.9 0 0 0 6.1 4.7c.7.4 1.5.5 2.3.3.7-.2 1.5-.7 1.8-1.4.4-.7.6-1.5.3-2.3-.2-.7-.7-1.4-1.4-1.8l-2.9-1.9c.2.2.4.3.6.5-.9-.7-1.8-1.5-2.6-2.4-.5-.5-1.4-.9-2.1-.9s-1.6.3-2.1.9-.9 1.3-.9 2.1c.1.9.4 1.6.9 2.2h0zm43.8 16.9c.1 5.2.4 10.4.8 15.6l3-3H64.2v6h1.1c1.6 0 3.1-1.4 3-3s-1.3-3-3-3h-1.1c-1.6 0-3.1 1.4-3 3s1.3 3 3 3h11.4c1.5 0 3.1-1.4 3-3-.4-5.2-.6-10.4-.8-15.6 0-1.6-1.4-3.1-3-3-1.6 0-3.1 1.3-3 3h0zm32.7-1v15c0 1.7 1.4 2.8 3 3 3.9.4 7.8-.3 11.7.1 1.6.2 3.1-1.5 3-3-.1-1.8-1.3-2.8-3-3-3.9-.4-7.8.3-11.7-.1l3 3v-15c0-1.6-1.4-3.1-3-3a3.01 3.01 0 0 0-3 3h0z"/></g><use xlink:href="#B" fill="#fff"/><path d="M111 49.7c-1 .2-2 .2-3 .2-.2 0-.5 0-.8.1-.4-.1-.5 0-.3.2s.2.2.1-.1c.2-.4-.1-1.4-.1-1.9l-.5-7.8c-.4-5.3-.8-10.6-.8-16l-1.5 1.5c1.8-.1 3.7-.3 5.5-.4l-1.5-1.5c.6 9.1.2 18.4 1.7 27.4.3 1.9 3.2 1.1 2.9-.8-1.5-8.8-1.1-17.8-1.6-26.6 0-.8-.6-1.6-1.5-1.5-1.8.1-3.7.3-5.5.4-.8.1-1.5.6-1.5 1.5 0 6.4.6 12.7 1 19.1l.3 4.5c.1 1.2-.2 3 .5 4.1.9 1.3 2.2.9 3.5.8s2.5-.1 3.8-.3c1.9-.4 1.1-3.3-.7-2.9z" class="M"/><path d="M100.3 51.9c-1.9.4-2.8.1-4.7.5-.3 0-.5.1-.8 0-.2-.1-.4-.4-.4-.7-.2-8.5-1.5-17.5-1.4-26.3 1.8-.1 3.7-.3 5.5-.4.6 6.9.6 19.9 1.8 26.9z" fill="#fff"/><path d="M99.9 50.4c-1 .2-2 .2-3 .2-.2 0-.5 0-.8.1-.4-.1-.5 0-.3.2s.2.2.1-.1c.2-.4-.1-1.4-.1-1.9l-.5-7.8c-.4-5.3-.8-10.6-.8-16L93 26.6c1.8-.1 3.7-.3 5.5-.4L97 24.7c.6 9.1.2 18.4 1.7 27.4.3 1.9 3.2 1.1 2.9-.8-1.5-8.8-1.1-17.8-1.6-26.6 0-.8-.6-1.6-1.5-1.5-1.8.1-3.7.3-5.5.4-.8.1-1.5.6-1.5 1.5 0 6.4.6 12.7 1 19.1l.3 4.5c.1 1.2-.2 3 .5 4.1.9 1.3 2.2.9 3.5.8s2.5-.1 3.8-.3c2-.3 1.2-3.2-.7-2.9z" class="M"/><path d="M89.3 52.7c-1.9.4-2.8.1-4.7.5-.3 0-.5.1-.8 0-.2-.1-.4-.4-.4-.7-.1-8.6-1.4-17.6-1.3-26.5 1.8-.1 3.7-.3 5.5-.4.5 7.1.5 20.1 1.7 27.1z" fill="#fff"/><path d="M88.9 51.2c-1 .2-2 .2-3 .2-.2 0-.5 0-.8.1-.4-.1-.5 0-.3.2.2.3.2.3.2 0 .2-.4-.1-1.4-.1-1.9l-.5-7.8c-.4-5.3-.8-10.6-.8-16l-1.5 1.5c1.8-.1 3.7-.3 5.5-.4l-1.5-1.5c.6 9.1.2 18.4 1.7 27.4.3 1.9 3.2 1.1 2.9-.8-1.5-8.8-1.1-17.8-1.6-26.6 0-.8-.6-1.6-1.5-1.5-1.8.1-3.7.3-5.5.4-.8.1-1.5.6-1.5 1.5 0 6.4.6 12.7 1 19.1l.3 4.5c.1 1.2-.2 3 .5 4.1.9 1.3 2.2.9 3.5.8s2.5-.1 3.8-.3c1.9-.4 1.1-3.3-.8-3z" class="M"/><path d="M78.3 53.5c-1.9.4-2.8.1-4.7.5-.3 0-.5.1-.8 0-.2-.1-.4-.4-.4-.7-.2-8.5-1.5-17.5-1.4-26.3 1.8-.1 3.7-.3 5.5-.4.6 6.9.5 19.9 1.8 26.9z" fill="#fff"/><path d="M77.9 52c-1 .2-2 .2-3 .2-.2 0-.5 0-.8.1-.4-.1-.5 0-.3.2s.2.2.1-.1c.2-.4-.1-1.4-.1-1.9l-.5-7.8c-.4-5.3-.8-10.6-.8-16L71 28.2c1.8-.1 3.7-.3 5.5-.4L75 26.3c.6 9.1.2 18.4 1.7 27.4.3 1.9 3.2 1.1 2.9-.8-1.5-8.8-1.1-17.8-1.6-26.6 0-.8-.6-1.6-1.5-1.5-1.8.1-3.7.3-5.5.4-.8.1-1.5.6-1.5 1.5 0 6.4.6 12.7 1 19.1l.3 4.5c.1 1.2-.2 3 .5 4.1.9 1.3 2.2.9 3.5.8s2.5-.1 3.8-.3c2-.3 1.2-3.2-.7-2.9z" class="M"/><use xlink:href="#B" x="-44.1" y="3.2" fill="#fff"/><path d="M66.9 52.8c-1 .2-2 .2-3 .2-.2 0-.5 0-.8.1-.4-.1-.5 0-.3.2s.2.2.1-.1c.2-.4-.1-1.4-.1-1.9l-.5-7.8c-.4-5.3-.8-10.6-.8-16L60 29c1.8-.1 3.7-.3 5.5-.4L64 27.1c.6 9.1.2 18.4 1.7 27.4.3 1.9 3.2 1.1 2.9-.8-1.5-8.8-1.1-17.8-1.6-26.6 0-.8-.6-1.6-1.5-1.5-1.8.1-3.7.3-5.5.4-.8.1-1.5.6-1.5 1.5 0 6.4.6 12.7 1 19.1l.3 4.5c.1 1.2-.2 3 .5 4.1.9 1.3 2.2.9 3.5.8s2.5-.1 3.8-.3c2-.3 1.2-3.2-.7-2.9z" class="M"/><path d="M44.2 142.3c-2.8-24.4-4.7-66-4.7-90.4 34.4-5.2 63.1-7.1 94.5-7.3 3.6 30.8 5.1 61.8 4.3 92.8-29.8 2.9-64.2 4.8-94.1 4.9z" fill="#183d3d"/><path d="M45.7 142.3c-2.7-24-3.8-48.2-4.4-72.3a546.28 546.28 0 0 1-.3-18.1c-.4.5-.7 1-1.1 1.4a649.17 649.17 0 0 1 73.7-6.9L134 46l-1.5-1.5a671.34 671.34 0 0 1 4.5 72.3l-.2 20.5 1.5-1.5c-24.5 2.4-49.1 3.9-73.7 4.6l-20.4.3c-1.9 0-1.9 3 0 3 24.6-.1 49.2-1.2 73.7-3.1 6.8-.5 13.6-1.1 20.3-1.8.8-.1 1.5-.6 1.5-1.5.6-24.2-.1-48.3-2.2-72.4l-2.1-20.4c-.1-.8-.6-1.5-1.5-1.5-24.4.2-48.7 1.5-73 4.4l-21.9 3c-.6.1-1.1.8-1.1 1.4 0 24.1 1.1 48.2 3 72.2l1.7 18.1c.4 2 3.4 2.1 3.1.2z"/><g class="K"><use xlink:href="#C"/><use xlink:href="#D"/><use xlink:href="#C" x="10.2" y="-0.7"/><path d="M58.4 66.6c-.7.7-1.1 1.4-1.1 2.5 0 .9.6 1.6 1.4 1.9s1.7.1 2.4-.4c.7-.4 1.2-1.2 1.2-2 .1-.8-.3-1.7-1-2-.6-.3-2-.5-2.9 0z"/><use xlink:href="#E"/><use xlink:href="#D" x="1.4" y="22.2"/><use xlink:href="#C" x="11.6" y="21.5"/><use xlink:href="#F"/></g><g class="L"><use xlink:href="#D" x="2.7" y="31.7"/><path d="M49.9 97.8c-.6.6-1 1.2-1.3 1.9s-.3 1.6-.2 2.3c.3 1.7 2 2.9 3.7 2.9 1.8 0 3.3-1.2 4-2.9.6-1.6 0-3.5-1.4-4.4-.6-.4-1.4-.5-2.1-.6-.8-.1-1.7.1-2.4.5s-1 1.4-.5 2.1 1.3.9 2.1.5c.1 0 .1-.1.2-.1-.1.1-.2.1-.4.2.2-.1.4-.1.7-.2-.1 0-.3 0-.4.1H53c-.1 0-.3 0-.4-.1.3 0 .6.1.9.2-.1-.1-.2-.1-.4-.2.1 0 .2.1.2.1.2.2-.1-.1-.1-.1l.1.1s.2.2 0 0 0 0 0 0c.1.1.1.2.2.3-.1-.1-.1-.2-.2-.4.1.2.1.4.2.6 0-.1 0-.3-.1-.4v.6c0-.1 0-.3.1-.4 0 .2-.1.4-.2.7.1-.1.1-.2.2-.4-.1.2-.2.3-.3.5s.2-.3.1-.1l-.2.2s-.1.2-.2.2c.1 0 .1-.1.2-.1l-.1.1c-.2.1-.3.2-.5.3.1-.1.2-.1.4-.2-.2.1-.5.2-.7.2.1 0 .3 0 .4-.1h-.7c.1 0 .3 0 .4.1-.2 0-.4-.1-.5-.1.1.1.2.1.4.2-.1-.1-.2-.1-.3-.2-.2-.1.1 0 .1.1 0 0-.1-.1-.2-.1l-.1-.1c-.1-.1.2.3.1.1-.1-.1-.1-.2-.2-.4.1.1.1.2.2.4-.1-.2-.1-.3-.1-.5 0 .1 0 .3.1.4v-.8c0 .1 0 .3-.1.4 0-.2.1-.5.2-.7-.1.1-.1.2-.2.4l.3-.6c.1-.2-.1.1-.1.1l.1-.1.3-.3c.5-.6.6-1.6 0-2.1-.9-.6-1.8-.7-2.4-.1zm11.2.4c-.7.7-1.1 1.4-1.1 2.5 0 .9.6 1.6 1.4 1.9s1.7.1 2.4-.4c.7-.4 1.2-1.2 1.2-2 .1-.8-.3-1.7-1-2-.5-.2-2-.5-2.9 0z"/><path d="M60.1 97.2c-.6.6-1 1.2-1.3 1.9s-.3 1.6-.2 2.3c.3 1.7 2 2.9 3.7 2.9 1.8 0 3.3-1.2 4-2.9.6-1.6 0-3.5-1.4-4.4-.6-.4-1.4-.5-2.1-.6-.8-.1-1.7.1-2.4.5s-1 1.4-.5 2.1 1.3.9 2.1.5c.1 0 .1-.1.2-.1-.1.1-.2.1-.4.2.2-.1.4-.1.7-.2-.1 0-.3 0-.4.1h1.1c-.1 0-.3 0-.4-.1.3 0 .6.1.9.2-.1-.1-.2-.1-.4-.2.1 0 .2.1.2.1.2.2-.1-.1-.1-.1l.1.1s.2.2 0 0 0 0 0 0c.1.1.1.2.2.3-.1-.1-.1-.2-.2-.4.1.2.1.4.2.6 0-.1 0-.3-.1-.4v.6c0-.1 0-.3.1-.4 0 .2-.1.4-.2.7.1-.1.1-.2.2-.4-.1.2-.2.3-.3.5s.2-.3.1-.1l-.2.2s-.1.2-.2.2c.1 0 .1-.1.2-.1l-.1.1c-.2.1-.3.2-.5.3.1-.1.2-.1.4-.2-.2.1-.5.2-.7.2.1 0 .3 0 .4-.1h-.7c.1 0 .3 0 .4.1-.2 0-.4-.1-.5-.1.1.1.2.1.4.2-.1-.1-.2-.1-.3-.2-.2-.1.1 0 .1.1 0 0-.1-.1-.2-.1l-.1-.1c-.1-.1.2.3.1.1-.1-.1-.1-.2-.2-.4.1.1.1.2.2.4-.1-.2-.1-.3-.1-.5 0 .1 0 .3.1.4v-.8c0 .1 0 .3-.1.4 0-.2.1-.5.2-.7-.1.1-.1.2-.2.4l.3-.6c.1-.2-.1.1-.1.1l.1-.1.3-.3c.5-.6.6-1.6 0-2.1-.9-.7-1.8-.7-2.4-.1z"/></g><g class="K"><use xlink:href="#C" x="3.7" y="52.2"/><use xlink:href="#F" x="-7.9" y="30.7"/></g><g class="L"><use xlink:href="#C" x="13.9" y="51.6"/><path d="M60.4 107.6c-.6.6-1 1.2-1.3 1.9s-.3 1.6-.2 2.3c.3 1.7 2 2.9 3.7 2.9 1.8 0 3.3-1.2 4-2.9.6-1.6 0-3.5-1.4-4.4-.6-.4-1.4-.5-2.1-.6-.8-.1-1.7.1-2.4.5s-1 1.4-.5 2.1 1.3.9 2.1.5c.1 0 .1-.1.2-.1-.1.1-.2.1-.4.2.2-.1.4-.1.7-.2-.1 0-.3 0-.4.1h1.1c-.1 0-.3 0-.4-.1.3 0 .6.1.9.2-.1-.1-.2-.1-.4-.2.1 0 .2.1.2.1.2.2-.1-.1-.1-.1l.1.1s.2.2 0 0 0 0 0 0c.1.1.1.2.2.3-.1-.1-.1-.2-.2-.4.1.2.1.4.2.6 0-.1 0-.3-.1-.4v.6c0-.1 0-.3.1-.4 0 .2-.1.4-.2.7.1-.1.1-.2.2-.4-.1.2-.2.3-.3.5s.2-.3.1-.1l-.2.2s-.1.2-.2.2c.1 0 .1-.1.2-.1l-.1.1c-.2.1-.3.2-.5.3.1-.1.2-.1.4-.2-.2.1-.5.2-.7.2.1 0 .3 0 .4-.1h-.7c.1 0 .3 0 .4.1-.2 0-.4-.1-.5-.1.1.1.2.1.4.2-.1-.1-.2-.1-.3-.2-.2-.1.1 0 .1.1 0 0-.1-.1-.2-.1l-.1-.1c-.1-.1.2.3.1.1-.1-.1-.1-.2-.2-.4.1.1.1.2.2.4-.1-.2-.1-.3-.1-.5 0 .1 0 .3.1.4v-.8c0 .1 0 .3-.1.4 0-.2.1-.5.2-.7-.1.1-.1.2-.2.4l.3-.6c.1-.2-.1.1-.1.1l.1-.1.3-.3c.5-.6.6-1.6 0-2.1-.9-.6-1.8-.7-2.4-.1z"/></g><g class="K"><use xlink:href="#D" x="13.9" y="51.6"/><use xlink:href="#E" x="3.7" y="52"/><use xlink:href="#C" x="15.3" y="73.5"/><use xlink:href="#G"/></g><g class="L"><use xlink:href="#H"/><use xlink:href="#I"/></g><g class="K"><use xlink:href="#G" x="11.7" y="-0.5"/><path d="M80.6 65.1c-.8.7-1.2 1.4-1.1 2.5 0 .9.7 1.6 1.5 1.9s1.7.1 2.4-.4c.7-.4 1.2-1.2 1.3-2s-.3-1.7-1.1-2c-.6-.3-2.2-.5-3 0z"/><use xlink:href="#H" x="21.6" y="-11.3"/><use xlink:href="#G" x="22.9" y="8.9"/><use xlink:href="#G" x="33.4" y="-1.9"/></g><g class="L"><use xlink:href="#G" x="34" y="8.2"/><use xlink:href="#J"/></g><g class="K"><path d="M111.7 52.9c-.8.7-1.2 1.4-1.1 2.5 0 .9.7 1.6 1.5 1.9s1.7.1 2.4-.4c.7-.4 1.2-1.2 1.3-2s-.3-1.7-1.1-2c-.5-.2-2.1-.5-3 0z"/><use xlink:href="#G" x="44.2" y="7.6"/><use xlink:href="#G" x="54.1" y="-3.2"/><use xlink:href="#G" x="54.7" y="6.9"/></g><g class="L"><use xlink:href="#G" x="1.4" y="22.2"/><path d="M68.5 76.6c-.6.6-1 1.2-1.3 2-.3.7-.3 1.6-.2 2.3.4 1.7 2.2 2.9 3.9 2.8 1.8-.1 3.4-1.3 4-3 .6-1.6-.1-3.5-1.6-4.3-.7-.4-1.4-.5-2.2-.5s-1.7.1-2.4.5-1 1.4-.5 2.1 1.3.9 2.1.5c.2-.1.2 0-.1 0 .1 0 .1 0 .2-.1.1 0 .3-.1.4-.1-.1 0-.3 0-.4.1h1.2c-.1 0-.3 0-.4-.1.2 0 .4.1.6.1.2.1.4.2-.1-.1 0 0 .2.2.3.2 0 0-.3-.2-.1-.1.1.1.1.1.1.2.2.2 0-.1 0-.1s.1.1.1.2 0 .1.1.2c-.2-.3-.1-.3-.1-.1 0 .1.1.3.1.4 0-.1 0-.3-.1-.4v.6c0-.1 0-.3.1-.4 0 .1 0 .3-.1.4-.1.2-.1.2 0-.1 0 .1-.1.1-.1.2s-.1.1-.1.2c0 0-.2.3 0 0 .2-.2 0 0 0 0l-.2.2-.1.1c-.1.1.3-.2.1-.1-.1.1-.2.1-.4.2-.3.2.3-.1 0 0-.1 0-.1 0-.2.1-.2 0-.3.1-.5.1.1 0 .3 0 .4-.1h-.7c.1 0 .3 0 .4.1-.1 0-.2 0-.3-.1-.1 0-.1 0-.2-.1-.2 0 .3.1.2.1-.1-.1-.2-.1-.3-.2s.2.2.1.1l-.1-.1-.1-.1c-.1-.2.1.1.1.1s-.1-.2-.2-.3c0 0 0-.1-.1-.1.2.3.1.2.1.1s-.1-.2-.1-.3c0 .1 0 .3.1.4v-.7c0 .1 0 .3-.1.4 0-.2.1-.3.1-.5.1-.4-.1.3 0 0 0-.1.1-.1.1-.2s.1-.1.1-.2l.1-.1c-.2.2-.2.2-.1.2l.4-.4c.6-.6.6-1.6 0-2.1-.4-.7-1.4-.7-2-.1z"/></g><g class="K"><use xlink:href="#H" x="1.4" y="22.2"/><use xlink:href="#K"/><use xlink:href="#G" x="13.8" y="31.8"/><use xlink:href="#H" x="23" y="10.9"/><use xlink:href="#G" x="24.3" y="31.1"/></g><g class="L"><use xlink:href="#G" x="34.8" y="20.3"/><use xlink:href="#I" x="34.1" y="10.1"/></g><g class="K"><use xlink:href="#G" x="35.4" y="30.4"/><use xlink:href="#H" x="44.3" y="9.5"/><use xlink:href="#G" x="45.6" y="29.8"/><use xlink:href="#L"/><use xlink:href="#G" x="56.1" y="29.1"/><use xlink:href="#G" x="3.4" y="41.8"/><use xlink:href="#G" x="15.1" y="41.3"/><use xlink:href="#G" x="25.6" y="40.6"/><use xlink:href="#G" x="36.8" y="39.9"/></g><g class="L"><use xlink:href="#L" x="-8.6" y="20.3"/><use xlink:href="#I" x="46.3" y="29.1"/><use xlink:href="#H" x="56.8" y="28.5"/><path d="M124.6 93c-.6.6-1 1.2-1.3 2-.3.7-.3 1.6-.2 2.3.4 1.7 2.2 2.9 3.9 2.8 1.8-.1 3.4-1.3 4-3 .6-1.6-.1-3.5-1.6-4.3-.7-.4-1.4-.5-2.2-.5s-1.7.1-2.4.5-1 1.4-.5 2.1 1.3.9 2.1.5c.2-.1.2 0-.1 0 .1 0 .1 0 .2-.1.1 0 .3-.1.4-.1-.1 0-.3 0-.4.1h1.2c-.1 0-.3 0-.4-.1.2 0 .4.1.6.1.2.1.4.2-.1-.1 0 0 .2.2.3.2 0 0-.3-.2-.1-.1.1.1.1.1.1.2.1.1-.1-.1-.1-.1s.1.1.1.2 0 .1.1.2c-.2-.3-.1-.3-.1-.1 0 .1.1.3.1.4 0-.1 0-.3-.1-.4v.6c0-.1 0-.3.1-.4 0 .1 0 .3-.1.4-.1.2-.1.2 0-.1 0 .1-.1.1-.1.2s-.1.1-.1.2c0 0-.2.3 0 0 .2-.2 0 0 0 0l-.2.2-.1.1c-.1.1.3-.2.1-.1-.1.1-.2.1-.4.2-.3.2.3-.1 0 0-.1 0-.1 0-.2.1-.2 0-.3.1-.5.1.1 0 .3 0 .4-.1h-.7c.1 0 .3 0 .4.1-.1 0-.2 0-.3-.1-.1 0-.1 0-.2-.1-.2 0 .3.1.2.1-.1-.1-.2-.1-.3-.2s.2.2.1.1l-.1-.1-.1-.1c-.1-.2.1.1.1.1s-.1-.2-.2-.3c0 0 0-.1-.1-.1.2.3.1.2.1.1s-.1-.2-.1-.3c0 .1 0 .3.1.4V96c0 .1 0 .3-.1.4 0-.2.1-.3.1-.5.1-.4-.1.3 0 0 0-.1.1-.1.1-.2s.1-.1.1-.2l.1-.1c-.2.2-.2.2-.1.2l.4-.4c.6-.6.6-1.6 0-2.1-.4-.6-1.3-.7-1.9-.1z"/></g><use xlink:href="#G" x="3.7" y="52.2" class="K"/><g class="L"><use xlink:href="#H" x="3.7" y="52.3"/><use xlink:href="#M"/></g><use xlink:href="#G" x="15.4" y="51.7" class="K"/><g class="L"><path d="M84.3 117.3c-.8.7-1.2 1.4-1.1 2.5 0 .9.7 1.6 1.5 1.9s1.7.1 2.4-.4c.7-.4 1.2-1.2 1.3-2s-.3-1.7-1.1-2c-.6-.2-2.2-.5-3 0z"/><use xlink:href="#J" x="-18" y="53.6"/></g><use xlink:href="#H" x="25.3" y="40.9" class="K"/><g class="L"><use xlink:href="#G" x="26.6" y="61.2"/><use xlink:href="#M" x="22.2" y="-1.2"/></g><use xlink:href="#G" x="37.1" y="50.3" class="K"/><g class="L"><use xlink:href="#G" x="37.7" y="60.5"/><use xlink:href="#I" x="37.1" y="50.3"/><use xlink:href="#H" x="46.6" y="39.6"/><path d="M114.4 104.1c-.6.6-1 1.2-1.3 2-.3.7-.3 1.6-.2 2.3.4 1.7 2.2 2.9 3.9 2.8 1.8-.1 3.4-1.3 4-3 .6-1.5-.1-3.5-1.6-4.3-.7-.4-1.4-.5-2.2-.5s-1.7.1-2.4.5-1 1.4-.5 2.1 1.3.9 2.1.5c.2-.1.2 0-.1 0 .1 0 .1 0 .2-.1.1 0 .3-.1.4-.1-.1 0-.3 0-.4.1h1.2c-.1 0-.3 0-.4-.1.2 0 .4.1.6.1.2.1.4.2-.1-.1 0 0 .2.2.3.2 0 0-.3-.2-.1-.1.1.1.1.1.1.2.1.1-.1-.1-.1-.1s.1.1.1.2 0 .1.1.2c-.2-.3-.1-.3-.1-.1 0 .1.1.3.1.4 0-.1 0-.3-.1-.4v.6c0-.1 0-.3.1-.4 0 .1 0 .3-.1.4-.1.2-.1.2 0-.1 0 .1-.1.1-.1.2s-.1.1-.1.2c0 0-.2.3 0 0 .2-.2 0 0 0 0l-.2.2-.1.1c-.1.1.3-.2.1-.1-.1.1-.2.1-.4.2-.3.2.3-.1 0 0-.1 0-.1 0-.2.1-.2 0-.3.1-.5.1.1 0 .3 0 .4-.1h-.7c.1 0 .3 0 .4.1-.1 0-.2 0-.3-.1-.1 0-.1 0-.2-.1-.2 0 .3.1.2.1-.1-.1-.2-.1-.3-.2s.2.2.1.1l-.1-.1-.1-.1c-.1-.2.1.1.1.1s-.1-.2-.2-.3c0 0 0-.1-.1-.1.2.3.1.2.1.1s-.1-.2-.1-.3c0 .1 0 .3.1.4v-.7c0 .1 0 .3-.1.4 0-.2.1-.3.1-.5.1-.4-.1.3 0 0 0-.1.1-.1.1-.2s.1-.1.1-.2l.1-.1c-.2.2-.2.2-.1.2l.4-.4c.6-.6.6-1.6 0-2.1-.4-.6-1.3-.7-1.9-.1z"/></g><g class="K"><use xlink:href="#G" x="47.9" y="59.8"/><use xlink:href="#G" x="57.8" y="49"/><use xlink:href="#L" x="2.9" y="40.2"/><use xlink:href="#G" x="5.1" y="74.2"/><use xlink:href="#K" x="3.7" y="52"/><use xlink:href="#G" x="27.3" y="73"/><use xlink:href="#G" x="38.5" y="72.3"/><use xlink:href="#H" x="48" y="61.5"/><use xlink:href="#L" x="3.7" y="52"/></g><defs><path id="A" d="M182.8 90.5c0 47.8-40.2 86.6-89.8 86.6S3.2 138.3 3.2 90.5 43.4 4 93 4c49.6-.1 89.8 38.7 89.8 86.5"/><path id="B" d="M111.4 51.1c-1.9.4-2.8.1-4.7.5-.3 0-.5.1-.8 0-.2-.1-.4-.4-.4-.7-.2-8.5-1.5-17.5-1.4-26.3 1.8-.1 3.7-.3 5.5-.4.5 6.9.5 19.9 1.8 26.9z"/><path id="C" d="M47.6 57.1c-.7.7-1.1 1.4-1.1 2.5 0 .9.6 1.6 1.4 1.9s1.7.1 2.4-.4c.7-.4 1.2-1.2 1.2-2 .1-.8-.3-1.7-1-2-.6-.3-2.1-.5-2.9 0z"/><path id="D" d="M48.2 67.2c-.7.7-1.1 1.4-1.1 2.5 0 .9.6 1.6 1.4 1.9s1.7.1 2.4-.4c.7-.4 1.2-1.2 1.2-2 .1-.8-.3-1.7-1-2-.5-.3-2-.5-2.9 0z"/><path id="E" d="M49 79.2c-.7.7-1.1 1.4-1.1 2.5 0 .9.6 1.6 1.4 1.9s1.7.1 2.4-.4c.7-.4 1.2-1.2 1.2-2 .1-.8-.3-1.7-1-2-.6-.2-2.1-.4-2.9 0z"/><path id="F" d="M59.8 88.7c-.7.7-1.1 1.4-1.1 2.5 0 .9.6 1.6 1.4 1.9s1.7.1 2.4-.4c.7-.4 1.2-1.2 1.2-2 .1-.8-.3-1.7-1-2-.5-.2-2-.4-2.9 0z"/><path id="G" d="M68.2 55.5c-.8.7-1.2 1.4-1.1 2.5 0 .9.7 1.6 1.5 1.9s1.7.1 2.4-.4c.7-.4 1.2-1.2 1.3-2s-.3-1.7-1.1-2c-.6-.3-2.1-.5-3 0z"/><path id="H" d="M68.8 65.6c-.8.7-1.2 1.4-1.1 2.5 0 .9.7 1.6 1.5 1.9s1.7.1 2.4-.4c.7-.4 1.2-1.2 1.3-2s-.3-1.7-1.1-2c-.5-.3-2.1-.5-3 0z"/><path id="I" d="M67.8 64.6c-.6.6-1 1.2-1.3 2-.3.7-.3 1.6-.2 2.3.4 1.7 2.2 2.9 3.9 2.8 1.8-.1 3.4-1.3 4-3 .6-1.6-.1-3.5-1.6-4.3-.7-.4-1.4-.5-2.2-.5s-1.7.1-2.4.5-1 1.4-.5 2.1 1.3.9 2.1.5c.2-.1.2 0-.1 0 .1 0 .1 0 .2-.1.1 0 .3-.1.4-.1-.1 0-.3 0-.4.1h1.2c-.1 0-.3 0-.4-.1.2 0 .4.1.6.1.2.1.4.2-.1-.1 0 0 .2.2.3.2 0 0-.3-.2-.1-.1.1.1.1.1.1.2.1.1-.1-.1-.1-.1s.1.1.1.2 0 .1.1.2c-.2-.3-.1-.3-.1-.1 0 .1.1.3.1.4 0-.1 0-.3-.1-.4v.6c0-.1 0-.3.1-.4 0 .1 0 .3-.1.4-.1.2-.1.2 0-.1 0 .1-.1.1-.1.2s-.1.1-.1.2c0 0-.2.3 0 0 .2-.2 0 0 0 0l-.2.2-.1.1c-.1.1.3-.2.1-.1-.1.1-.2.1-.4.2-.3.2.3-.1 0 0-.1 0-.1 0-.2.1-.2 0-.3.1-.5.1.1 0 .3 0 .4-.1h-.7c.1 0 .3 0 .4.1-.1 0-.2 0-.3-.1-.1 0-.1 0-.2-.1-.2 0 .3.1.2.1-.1-.1-.2-.1-.3-.2s.2.2.1.1l-.1-.1-.1-.1c-.1-.2.1.1.1.1s-.1-.2-.2-.3c0 0 0-.1-.1-.1.2.3.1.2.1.1s-.1-.2-.1-.3c0 .1 0 .3.1.4v-.7c0 .1 0 .3-.1.4 0-.2.1-.3.1-.5.1-.4-.1.3 0 0 0-.1.1-.1.1-.2s.1-.1.1-.2l.1-.1c-.2.2-.2.2-.1.2l.4-.4c.6-.6.6-1.6 0-2.1-.4-.7-1.3-.7-1.9-.1z"/><path id="J" d="M101.2 62.7c-.6.6-1 1.2-1.3 2-.3.7-.3 1.6-.2 2.3.4 1.7 2.2 2.9 3.9 2.8 1.8-.1 3.4-1.3 4-3 .6-1.5-.1-3.5-1.6-4.3-.7-.4-1.4-.5-2.2-.5s-1.7.1-2.4.5-1 1.4-.5 2.1 1.3.9 2.1.5c.2-.1.2 0-.1 0 .1 0 .1 0 .2-.1.1 0 .3-.1.4-.1-.1 0-.3 0-.4.1h1.2c-.1 0-.3 0-.4-.1.2 0 .4.1.6.1.2.1.4.2-.1-.1 0 0 .2.2.3.2 0 0-.3-.2-.1-.1.1.1.1.1.1.2.1.1-.1-.1-.1-.1s.1.1.1.2 0 .1.1.2c-.2-.3-.1-.3-.1-.1 0 .1.1.3.1.4 0-.1 0-.3-.1-.4v.6c0-.1 0-.3.1-.4 0 .1 0 .3-.1.4-.1.2-.1.2 0-.1 0 .1-.1.1-.1.2s-.1.1-.1.2c0 0-.2.3 0 0 .2-.2 0 0 0 0l-.2.2-.1.1c-.1.1.3-.2.1-.1-.1.1-.2.1-.4.2-.3.2.3-.1 0 0-.1 0-.1 0-.2.1-.2 0-.3.1-.5.1.1 0 .3 0 .4-.1h-.7c.1 0 .3 0 .4.1-.1 0-.2 0-.3-.1-.1 0-.1 0-.2-.1-.2 0 .3.1.2.1-.1-.1-.2-.1-.3-.2s.2.2.1.1l-.1-.1-.1-.1c-.1-.2.1.1.1.1s-.1-.2-.2-.3c0 0 0-.1-.1-.1.2.3.1.2.1.1s-.1-.2-.1-.3c0 .1 0 .3.1.4v-.7c0 .1 0 .3-.1.4 0-.2.1-.3.1-.5.1-.4-.1.3 0 0 0-.1.1-.1.1-.2s.1-.1.1-.2l.1-.1c-.2.2-.2.2-.1.2l.4-.4c.6-.6.6-1.6 0-2.1-.4-.7-1.3-.7-1.9-.1z"/><path id="K" d="M81.3 77.1c-.8.7-1.2 1.4-1.1 2.5 0 .9.7 1.6 1.5 1.9s1.7.1 2.4-.4c.7-.4 1.2-1.2 1.3-2s-.3-1.7-1.1-2c-.6-.2-2.1-.5-3 0z"/><path id="L" d="M123.7 74.4c-.8.7-1.2 1.4-1.1 2.5 0 .9.7 1.6 1.5 1.9s1.7.1 2.4-.4c.7-.4 1.2-1.2 1.3-2s-.3-1.7-1.1-2c-.6-.2-2.1-.4-3 0z"/><path id="M" d="M71.5 116.8c-.6.6-1 1.2-1.3 2-.3.7-.3 1.6-.2 2.3.4 1.7 2.2 2.9 3.9 2.8 1.8-.1 3.4-1.3 4-3 .6-1.6-.1-3.5-1.6-4.3-.7-.4-1.4-.5-2.2-.5s-1.7.1-2.4.5-1 1.4-.5 2.1 1.3.9 2.1.5c.2-.1.2 0-.1 0 .1 0 .1 0 .2-.1.1 0 .3-.1.4-.1-.1 0-.3 0-.4.1h1.2c-.1 0-.3 0-.4-.1.2 0 .4.1.6.1.2.1.4.2-.1-.1 0 0 .2.2.3.2 0 0-.3-.2-.1-.1.1.1.1.1.1.2.1.1-.1-.1-.1-.1s.1.1.1.2 0 .1.1.2c-.2-.3-.1-.3-.1-.1 0 .1.1.3.1.4 0-.1 0-.3-.1-.4v.6c0-.1 0-.3.1-.4 0 .1 0 .3-.1.4-.1.2-.1.2 0-.1 0 .1-.1.1-.1.2s-.1.1-.1.2c0 0-.2.3 0 0 .2-.2 0 0 0 0l-.2.2-.1.1c-.1.1.3-.2.1-.1-.1.1-.2.1-.4.2-.3.2.3-.1 0 0-.1 0-.1 0-.2.1-.2 0-.3.1-.5.1.1 0 .3 0 .4-.1h-.7c.1 0 .3 0 .4.1-.1 0-.2 0-.3-.1-.1 0-.1 0-.2-.1-.2 0 .3.1.2.1-.1-.1-.2-.1-.3-.2s.2.2.1.1l-.1-.1-.1-.1c-.1-.2.1.1.1.1s-.1-.2-.2-.3c0 0 0-.1-.1-.1.2.3.1.2.1.1s-.1-.2-.1-.3c0 .1 0 .3.1.4v-.7c0 .1 0 .3-.1.4 0-.2.1-.3.1-.5.1-.4-.1.3 0 0 0-.1.1-.1.1-.2s.1-.1.1-.2l.1-.1c-.2.2-.2.2-.1.2l.4-.4c.6-.6.6-1.6 0-2.1-.4-.6-1.3-.7-1.9-.1z"/></defs><clipPath id="N"><use xlink:href="#A"/></clipPath><g clip-path="url(#N)"><path d="M-5.3 63.4L5 42l12.9 16.3 2.5-5.4 15.8 18.2-13.8-5.8-3.6 7.5z" fill="#7dc4ca"/><path d="M-4 64.2l9-18.8 1.3-2.7c-.8.2-1.5.3-2.3.4l12.8 16.3c.6.7 2 .5 2.4-.3l2.6-5.4-2.4.3 13.8 15.9 2 2.3 1.5-2.5-13.8-5.8c-.6-.2-1.4.1-1.7.7l-3.6 7.5c.6-.2 1.1-.5 1.7-.7l-21.1-8.2-3-1.2c-1.8-.7-2.6 2.2-.8 2.9l21.1 8.2 3 1.2c.6.2 1.4-.1 1.7-.7l3.6-7.5c-.6.2-1.1.5-1.7.7l13.8 5.8c1.5.6 2.3-1.5 1.5-2.5L23.6 54.2l-2-2.3c-.6-.7-2-.5-2.4.3l-2.6 5.4 2.4-.3L6.2 41c-.6-.7-2-.5-2.4.3l-9 18.8-1.3 2.7c-.9 1.6 1.7 3.1 2.5 1.4z"/><path d="M191.6 117.8l-11 21.1-12.3-16.7-2.8 5.2-15.1-18.6L164 115l3.8-7.4z" fill="#7dc4ca"/><path d="M190.3 117l-9.6 18.5-1.4 2.6h2.6l-12.3-16.7c-.6-.8-2-1.1-2.6 0l-2.7 5.3 2.4-.3-13.3-16.3-1.9-2.3-1.8 2.4 13.6 6.2c.7.3 1.6.2 2.1-.5l3.8-7.4-2.1.5 20.8 8.9 2.9 1.3c1.8.8 3.3-1.8 1.5-2.6l-20.8-8.9-2.9-1.3c-.7-.3-1.6-.3-2.1.5l-3.8 7.4 2.1-.5-13.6-6.2c-1.6-.7-2.9 1-1.8 2.4l13.3 16.3 1.9 2.3c.6.7 1.9.5 2.4-.3l2.7-5.3h-2.6l12.3 16.7c.6.8 2 1.1 2.6 0l9.6-18.5 1.4-2.6c.8-1.8-1.8-3.3-2.7-1.6z"/></g><path d="M181.3 90.5c0 17.7-5.8 35-16.3 49.3-10.4 14.1-25.2 24.9-41.7 30.6-17.4 6.1-36.6 6.8-54.4 1.9-17-4.6-32.5-14.3-44-27.7C13.5 131.3 6.3 114.5 5 97.1 3.6 79.3 8 61.5 17.4 46.5c9.3-14.8 23.1-26.4 39-33.4 16.9-7.5 36.2-9.5 54.3-5.9 17.4 3.4 33.6 12 46.1 24.5 12.3 12.4 20.6 28.4 23.4 45.6.8 4.3 1.1 8.8 1.1 13.2 0 1.9 3 1.9 3 0 0-18.3-6-36.2-16.8-50.9-10.8-14.6-25.9-25.7-43.1-31.7-18-6.4-37.9-7-56.3-2-17.5 4.8-33.6 14.8-45.4 28.7C10.8 48.3 3.4 65.5 2 83.7.5 102 5.1 120.6 14.9 136.1c9.6 15.3 23.9 27.4 40.4 34.6 17.5 7.6 37.2 9.7 56 6.1 18-3.5 34.8-12.4 47.7-25.4 12.7-12.8 21.4-29.4 24.2-47.2.7-4.5 1.1-9.1 1.1-13.6 0-2.1-3-2.1-3-.1h0z"/></svg>