<svg xmlns="http://www.w3.org/2000/svg" viewBox="0 0 381.28 380.33" xmlns:v="https://vecta.io/nano"><rect x="4.14" y="3.67" width="373" height="373" rx="23.02" fill="#e1262f"/><path d="M354.12 375.17H33.62c-7.27 0-14.13.11-20.23-5-7.09-5.91-7.75-13.81-7.75-22.11V63.81c0-12.34-.38-24.75 0-37.09C6.06 13 17 5.17 29.81 5.17h278.9 44.51c12.75.11 22.3 9.5 22.42 22.3V41.9v308.89c0 12.86-7.62 24-21.52 24.38-1.92.05-1.93 3.05 0 3 14.41-.44 24.44-11.7 24.52-25.81v-16.51V71.74 27.31A24.94 24.94 0 0 0 354 2.17c-4-.09-8 0-12.05 0H29.62c-11.38 0-21.84 5.33-25.7 16.72-1.67 4.92-1.28 10.25-1.28 15.37v314.1c0 7.22.37 14 5 20.15 5.85 7.69 14.43 9.66 23.47 9.66h323a1.5 1.5 0 0 0 .01-3z"/><rect x="27.63" y="27.15" width="326.03" height="326.03" rx="23.02" fill="#ed7d82"/><path d="M330.64 351.68H74.24c-12 0-30.23 2.95-39.27-6.77-8.71-9.38-5.84-27.11-5.84-38.93v-153.4c0-34.08-1.06-68.34 0-102.41.41-13.42 11-21.52 23.74-21.52h240.57 36.73c12.51.31 21.85 9.62 22 22.19v12.48 264.81c0 12.66-8.24 23.15-21.52 23.55-1.93.06-1.94 3.06 0 3 14-.42 24.37-11.28 24.52-25.19v-12.93-227-38.82c-.27-13.81-10.58-24.68-24.53-25-3-.08-6 0-8.95 0h-269c-9.9 0-19.12 4.13-23.84 13.3-2.72 5.29-2.71 10.74-2.71 16.43v270.06c0 6.4.33 12.51 4 18.12 5.26 8 13.78 11 22.9 11h277.6a1.5 1.5 0 0 0 0-2.97z"/><path d="M214.42 210.97l16.36 65.25 21.05-82.1L63.18 93.27l151.24 117.7z" fill="#b1dcdf"/><path d="M213 211.37l16.37 65.24a1.51 1.51 0 0 0 2.89 0l21.05-82.09a1.52 1.52 0 0 0-.69-1.69l-63.54-34-101.84-54.4L63.94 92c-1.43-.76-3.22 1.27-1.82 2.36l51.2 39.85 81.22 63.21L213.36 212c1.51 1.17 3.64-.94 2.12-2.12l-51.2-39.85-81.22-63.18-18.82-14.64-1.82 2.35 63.54 34L227.77 183l23.31 12.46-.69-1.7-21 82.1h2.89l-16.36-65.25c-.52-1.91-3.42-1.12-2.92.76z"/><path d="M230.67 276.66l.05-.18-.12-.1.07.28z" fill="#5cbfab"/><path d="M232.12 277.06v-.18a1.46 1.46 0 0 0-.38-1.46l-.12-.1a1.56 1.56 0 0 0-1.82-.23 1.54 1.54 0 0 0-.69 1.69l.07.28a1.5 1.5 0 0 0 2.9-.79l-.07-.28-2.51 1.45.12.1-.39-1.46-.05.19a1.5 1.5 0 0 0 2.9.79z" fill="#8eb6e0"/><path d="M251.83 194.12l84.39-8.26L63.18 93.27l188.65 100.85z" fill="#4386c6"/><path d="M251.83 195.62l84.39-8.26a1.51 1.51 0 0 0 .39-3l-92.31-31.3-147.06-49.82-33.66-11.42a1.51 1.51 0 0 0-1.16 2.74l63.54 34L227.77 183l23.31 12.46c1.7.91 3.22-1.68 1.51-2.59l-63.54-34-101.81-54.44L63.94 92l-1.16 2.74L155.09 126l147.07 49.87 33.66 11.41.4-2.94-84.39 8.26c-1.9.21-1.92 3.21 0 3.02z"/><path d="M177.85 233.31l52.75 43.07.12.1.16.14-.1-.4-16.36-65.25-36.57 22.34z" fill="#8eb6e0"/><path d="M176.79 234.37l53 43.31a1.52 1.52 0 0 0 2.51-1.46q-8.19-32.84-16.46-65.65a1.53 1.53 0 0 0-2.21-.9L177.09 232c-1.65 1-.14 3.6 1.51 2.59l36.58-22.34-2.21-.89q8.24 32.82 16.47 65.65l2.5-1.46-53-43.31c-1.52-1.24-3.65.91-2.15 2.13z"/><path d="M101.65 279.85l112.77-68.88L63.18 93.27l38.47 186.58z" fill="#4386c6"/><path d="M102.41 281.15l98.67-60.27 14.1-8.62a1.5 1.5 0 0 0 .3-2.35l-51.2-39.85-81.22-63.21-18.82-14.64a1.52 1.52 0 0 0-2.51 1.46l13 63 20.7 100.41 4.77 23.17c.39 1.89 3.29 1.09 2.9-.8l-13-63L69.4 116l-4.77-23.13-2.51 1.46 51.2 39.85 81.22 63.21L213.36 212l.3-2.36-98.66 60.3-14.1 8.62c-1.65 1-.15 3.6 1.51 2.59z"/></svg>