<?xml version="1.0" encoding="utf-8"?>
<!-- Generator: Adobe Illustrator 24.2.0, SVG Export Plug-In . SVG Version: 6.00 Build 0)  -->
<svg version="1.1" id="Layer_1" xmlns="http://www.w3.org/2000/svg" xmlns:xlink="http://www.w3.org/1999/xlink" x="0px" y="0px"
	 viewBox="0 0 143 144" style="enable-background:new 0 0 143 144;" xml:space="preserve">
<style type="text/css">
	.st0{fill:#F8DAD4;}
	.st1{fill:#7DC4CA;}
	.st2{fill:#E1262F;}
	.st3{fill:#183E41;}
	.st4{fill:#F7C402;}
	.st5{fill:#E66869;}
</style>
<g id="Capa_14">
	<path class="st0" d="M18,8.4h106.3c6.8,0,12.3,5.5,12.3,12.3V127c0,6.8-5.5,12.3-12.3,12.3H18c-6.8,0-12.3-5.5-12.3-12.3V20.7
		C5.6,13.9,11.2,8.4,18,8.4z"/>
</g>
<g id="Capa_9">
	<g id="Capa_8">
		<path class="st1" d="M11.1,131.8C9.5,129.3,7.3,58.1,10.2,25c2.1,4.4,29.6,36.8,42.3,47.5c8.5-3,26.3-20.5,31.2-19.9
			c2.9,0.3,12,12.6,14.5,11.4c2.5-1.2,14.4-18.3,18.3-17.2c2,0.6,16.1,23.2,17.1,26.9c0.9,3,2.1,55.8-2.8,59.6
			C128.5,135.1,17.3,141.4,11.1,131.8z"/>
		<g id="Capa_7">
			<path d="M134.3,75.2c-1.5-5.8-4.3-11.1-7.3-16.2c-1.6-2.6-3.2-5.1-4.9-7.6c-1.3-1.9-2.7-5-5.3-5.6c-1.5-0.3-2.9,0.4-4.1,1.1
				c-1.2,0.8-2.3,1.7-3.4,2.7c-2,1.9-3.9,4-5.5,6.3C100,61,96.5,66.4,93.2,71.7c-3.8,6.2-7.5,12.4-11.2,18.7
				c-0.3,0.5-0.1,1.1,0.4,1.4c0.5,0.3,1.1,0.1,1.4-0.4C89.9,81,96,70.5,103,60.6c3.1-4.4,6.4-9.1,11.1-12c1.1-0.7,2.3-1.2,3.4-0.2
				c0.9,0.9,1.6,1.9,2.3,3c1.6,2.3,3.2,4.7,4.7,7.1c3.3,5.4,6.4,11,8,17.2c0.2,0.5,0.7,0.8,1.3,0.7
				C134.1,76.3,134.5,75.7,134.3,75.2z"/>
			<path d="M98.9,63.8c-3.1-3.6-7.5-5.6-10.7-9.2c-1.4-1.7-3-3.2-5.3-3.1c-2.3,0.1-4.2,1.5-5.9,2.9c-4,3.3-8,6.6-12.3,9.6
				c-4,2.8-8.2,5.6-12.3,8.3c-4.9,3.2-9.7,6.5-14.4,9.9c-1,0.8,0,2.6,1,1.8c7.8-5.8,16.1-11,24.1-16.4c4-2.8,8-5.7,11.8-8.8
				c1.8-1.5,3.5-3.2,5.6-4.4c0.8-0.5,1.8-0.8,2.8-0.8c1,0.2,2,0.7,2.6,1.6c1.6,1.9,3.5,3.5,5.5,5c2.2,1.4,4.1,3.1,5.9,5
				C98.4,66.3,99.8,64.8,98.9,63.8z"/>
			<path d="M52.3,71C46,65.4,39.9,59.6,34.1,53.5c-5.1-5.4-9.9-11.1-14.5-17c-3-3.8-5.9-7.7-8.8-11.6c-0.8-1-2.6,0-1.8,1
				c5,6.7,10,13.3,15.3,19.7c4.8,5.7,10,11.2,15.3,16.4c3.6,3.5,7.4,7,11.1,10.4C51.8,73.3,53.2,71.9,52.3,71L52.3,71z"/>
		</g>
	</g>
	<g id="Capa_5">
		<path class="st2" d="M97.1,24.3c2.7,1.2,16.7,0.1,17,3.3c0.5,4.6-12.1,5.1-16.3,7.6"/>
		<path d="M96.7,24.9c1.9,0.8,4.3,0.7,6.3,0.8c2.7,0,5.4,0.3,8,0.8c0.7,0.2,1.7,0.4,2.2,0.9c-0.1-0.1,0.1,0.3,0.1,0.1
			c0,0.2,0,0.3,0,0.5c-0.1,0.4-0.2,0.7-0.5,0.9c-0.8,0.8-1.7,1.3-2.7,1.6c-1.3,0.5-2.7,0.9-4.1,1.2c-2.9,0.7-6,1.2-8.6,2.7
			c-0.4,0.2-0.5,0.7-0.3,1.1c0.2,0.4,0.7,0.5,1.1,0.3c2.5-1.4,5.5-1.9,8.3-2.6c2.5-0.6,5.6-1.3,7.4-3.2c0.8-0.7,1.1-1.8,1-2.8
			c-0.2-0.8-0.8-1.4-1.6-1.7c-2.3-1.1-5.2-1.1-7.8-1.3c-1.6-0.1-3.3-0.2-4.9-0.3c-1,0-2.1-0.2-3.1-0.4
			C96.5,23.2,95.7,24.6,96.7,24.9L96.7,24.9z"/>
		<path class="st2" d="M84.9,24.5l7.3-1.6c1.4-0.3,3-0.5,4,0.5c0.4,0.5,0.7,1.1,0.8,1.7c0.9,3.6,0.6,7.5,0.2,11.2
			c0,0.2,0,0.4-0.1,0.5c-0.2,0.4-0.8,0.3-1.2,0.1c-2.6-0.8-5.5-1.8-8-0.8c-0.8,0.3-1.4,0.8-1.9,1.5"/>
		<path d="M85.1,25.2c2.5-0.5,5-1.1,7.5-1.7c0.9-0.2,2-0.4,2.8,0.1c0.9,0.6,1,2.2,1.2,3.2c0.3,2.4,0.3,4.9,0,7.3
			c0,0.6-0.1,1.2-0.2,1.8c-0.1,0.3,0.1,0.2-0.2,0.2c-0.3-0.1-0.6-0.2-1-0.3c-1.2-0.4-2.3-0.7-3.5-0.9c-2.3-0.3-5.1,0-6.5,2.2
			c-0.5,0.8,0.8,1.6,1.3,0.8c1.5-2.4,5.2-1.6,7.4-0.9c0.9,0.3,2.3,1,3.3,0.5s0.8-2.3,0.9-3.3c0.3-2.7,0.3-5.5-0.1-8.2
			c-0.2-1.2-0.5-2.6-1.4-3.4c-0.8-0.7-1.8-1-2.9-0.9c-1.4,0.2-2.8,0.4-4.2,0.8l-4.9,1.1C83.8,24,84.2,25.5,85.1,25.2L85.1,25.2z"/>
		<path class="st3" d="M93.7,110.1l-2.5-25.5l-3.5-35.2l-1.7-17.6c-0.3-2.9-0.5-5.9-0.9-8.8c-0.2-1.5-2.5-1.6-2.3,0
			c0.1,0.7,0.4,1.4,0.5,2.2c0.1,0.9,0.2,1.9,0.3,2.8l1.2,11.6l3.5,35.2l3.5,35.2c0.3,0.3,0.7,0.5,1.1,0.5
			C93.1,110.7,93.5,110.5,93.7,110.1z"/>
		<path d="M94.2,110.1l-3.8-38.1l-3.8-37.9c-0.3-3.1-0.5-6.2-0.8-9.2c-0.1-0.9,0-2.3-0.7-3c-0.5-0.5-1.2-0.7-1.8-0.5
			c-0.6,0.2-1.1,0.8-1.1,1.5c0,0.6,0.2,1.1,0.3,1.7c0.1,0.7,0.2,1.5,0.3,2.3c0.3,3.1,0.6,6.2,0.9,9.2l3.8,37.9l1.9,19l0.9,9.5
			l0.5,4.7l0.2,2.4c0.1,0.6,0,0.9,0.5,1.3c0.8,0.6,1.9,0.5,2.5-0.3c0,0,0,0,0,0c0.4-0.5-0.3-1.2-0.7-0.7c-0.2,0.3-0.7,0.6-1,0.3
			c-0.4-0.3-0.2-0.8-0.3-1.1l-0.2-2.2l-0.4-4.4l-0.9-8.8l-1.8-17.6l-3.5-35.4l-0.9-8.7c-0.3-2.6-0.3-5.5-0.9-8
			c-0.1-0.4-0.4-1.1,0-1.4c0.3-0.1,0.6-0.1,0.9,0.1c0.4,0.4,0.4,1.2,0.4,1.7c0.1,0.7,0.2,1.4,0.2,2.1c0.3,2.9,0.5,5.7,0.8,8.6
			l3.5,35.4l3.5,35.3l0.4,4.4C93.2,110.8,94.3,110.8,94.2,110.1z"/>
	</g>
	<g id="Capa_4">
		<path class="st4" d="M57.2,110.4c1.5,0.3,2.9,1.1,3.9,2.2c1.1,1.6,1.9,3.4,2.4,5.3c0.8,2.9,2.1,5.5,4.6,7c0.9,0.6,2,0.9,3.1,0.8
			c0.2,0,1.9-0.1,2.1-0.3c0.6-0.7-1.8-1.5-2.5-2.1c-2-1.7-0.5-14.3-0.3-16.9c1-11.3,0.7-13.2,0.2-24.6c0.7-0.2,1.3-0.6,1.7-1.2
			c4.8-5,10.3-11.4,15.1-16.4c-1-1.3-4.4,0.9-5.8,1.7l-9.7,6.2c-1.9,1.2-3.8-0.3-5.6-1.6c-1.9-1.3-2.2-1.3-1.2-3.1
			c1.1-1.9,2.8-3.3,3.8-5.2c1.2-2.5,1.8-5.5,0.8-8c-0.9-2.5-2.4-4.8-4.4-6.7c-2.2-1.7-4.9-2.8-7.7-3.1c-1.4-0.1-4.4-2.1-5.7-1.7
			c-5.5,1.6-11,1.7-11.5,12.6c-1,3.5,4.2,6.5,3.6,10.1c-0.3,1-0.8,2-1.6,2.7c-1.5,1.8-3.3,3.2-5.3,4.4c-2.2,1.3-4.7,2.2-6.6,3.9
			s-3.9,5.2-2.7,7.5c0.7,1.4,2.7,1.6,3.8,2.6c1.1,1,2.8,2.5,2.5,3.9c-0.4,2.2-3.3,2.9-4.3,4.9c2,1,3.9,0.5,5.4-1.2
			c1.4-1.8,1.5-4.3,0.2-6.2c-0.7-0.8-1.5-1.6-2.3-2.3c-1.6-1.7-2.4-2.9-1.4-5c0.4-0.8,4.6-2.6,5.7-1.6c1.5,1.3,1.5,2.2,1.3,4.2
			l-1.8,22.7c-0.4,5.4-1,11.8-4.2,16.2c-1.6,2.2-3.9,2.5-3.2,5.1c9.8,0,9.8-13.3,17.7-16.7c2.7-1.2,5.9-1.1,8.8-0.6
			C56.3,110.2,56.8,110.3,57.2,110.4z"/>
		<path class="st4" d="M56.9,111.4c1.4,0.3,2.7,1,3.6,2.2c0.8,1.3,1.5,2.7,1.9,4.2c0.8,2.7,1.8,5.4,4,7.2c1.2,0.9,2.6,1.8,4.2,1.8
			c0.5,0,0.9-0.1,1.4-0.1c0.5,0,1-0.1,1.5-0.3c1.2-0.5,1.1-1.8,0.2-2.5c-0.7-0.6-1.7-0.8-2.3-1.5c0.1,0.1-0.2-0.3-0.2-0.3
			c-0.1-0.3-0.2-0.7-0.3-1.1c-0.1-0.8-0.2-1.7-0.2-2.5c-0.1-2.1,0.1-4.3,0.2-6.4c0.3-4.3,0.8-8.6,1.1-12.9
			c0.3-5.8-0.1-11.6-0.3-17.4l-0.8,1c1.8-0.5,3.1-2.4,4.3-3.7c1.5-1.6,2.9-3.1,4.3-4.7c2.8-3.1,5.6-6.3,8.6-9.3c0.4-0.4,0.4-1,0-1.5
			c-1.4-1.5-3.8-0.3-5.2,0.5c-2.4,1.3-4.6,2.9-6.9,4.3c-1.4,0.9-2.8,1.8-4.3,2.7c-0.5,0.4-1.2,0.6-1.8,0.4c-0.7-0.3-1.4-0.6-2.1-1.1
			c-0.5-0.4-1.1-0.8-1.6-1.2c-0.2-0.1-0.3-0.2-0.5-0.3s-0.2-0.2-0.1-0.1c0-0.2,0.4-0.8,0.5-1c0.4-0.6,0.9-1.3,1.4-1.8
			c1.8-2.2,3.3-4.4,3.7-7.3c0.4-2.9-0.5-5.4-1.9-7.9c-1.2-2.3-3.1-4.2-5.4-5.5c-1.2-0.6-2.4-1.1-3.6-1.4c-1-0.3-2.1-0.3-3-0.6
			c-1.8-0.5-3.6-2-5.6-1.5c-1.5,0.3-3,0.7-4.4,1.2c-3.2,0.9-5.8,3.3-6.9,6.5c-0.4,1.1-0.6,2.1-0.7,3.3c-0.1,0.6-0.2,1.3-0.2,1.9
			c0,0.6-0.2,1.2-0.2,1.8c0,2.1,1.4,3.7,2.5,5.4c0.6,0.8,1,1.7,1.2,2.6c0.2,1.2-0.5,2.2-1.2,3c-1.9,2.1-4.2,3.9-6.8,5.1
			c-2.4,1.2-4.8,2.4-6.5,4.5c-1.4,1.8-2.7,4.3-2.1,6.6c0.6,2.3,3.2,2.7,4.8,4.1c0.7,0.6,2,1.7,1.7,2.7c-0.3,0.9-1.3,1.5-2,2.1
			c-0.8,0.6-1.6,1.4-2.1,2.2c-0.3,0.5-0.1,1.1,0.4,1.4c2.4,1.3,5.4,0.5,6.9-1.7c1.5-2.1,1.5-4.9,0.1-7c-1.2-1.6-4.6-3.3-3.9-5.7
			c0-0.1,0.1-0.3,0.1-0.4c0,0,0.2-0.3,0.1-0.1c-0.1,0.1,0.2-0.1,0.1-0.1c0.4-0.2,0.7-0.4,1.1-0.6c0.8-0.4,1.6-0.6,2.5-0.7
			c0.7,0,1.2,0.7,1.4,1.4c0.3,1.2,0,2.6-0.1,3.8l-0.8,10l-0.8,10.2c-0.2,2.8-0.5,5.5-0.9,8.2c-0.5,2.9-1.4,5.9-3.2,8.3
			c-0.7,1-1.8,1.6-2.6,2.5c-0.8,0.9-1,2.2-0.7,3.4c0.1,0.4,0.5,0.7,1,0.8c2.1,0,4.2-0.7,5.9-1.9c1.6-1.3,2.9-2.8,3.9-4.6
			c2.1-3.3,3.7-7.5,7.2-9.7c3.1-1.9,7.1-1.7,10.5-0.9c1.3,0.3,1.8-1.7,0.5-2c-3.3-0.8-7.1-1-10.3,0.3c-2,0.8-3.7,2.2-5,3.9
			c-2.6,3.2-4,7.3-6.8,10.4c-1.5,1.7-3.6,2.6-5.8,2.6l1,0.8c-0.3-1.1,0.2-1.5,1-2.2c0.9-0.7,1.7-1.6,2.4-2.6
			c1.4-2.3,2.4-4.9,2.9-7.5c0.5-2.7,0.9-5.5,1-8.2c0.3-3.4,0.6-6.8,0.8-10.2l0.8-10.4c0.2-2.4,0.9-5.2-1-7.1
			c-1.4-1.5-3.5-0.9-5.3-0.2c-0.8,0.3-1.6,0.7-2.2,1.2c-0.7,0.8-1,1.9-0.8,3c0.3,1.3,0.9,2.5,1.9,3.4c1,1.1,2.5,2,3,3.5
			c0.9,2.9-1.8,6.2-4.8,4.8l0.4,1.4c1-1.7,3.3-2.4,4.2-4.3c1.1-2.4-0.9-4.5-2.7-5.9c-0.9-0.6-1.8-1.1-2.7-1.5
			c-1-0.6-1.1-1.5-0.9-2.6c0.6-2.3,2.1-4.4,4.2-5.6c2.4-1.5,4.9-2.5,7.2-4.2c1.9-1.5,4.5-3.6,5-6.1c0.4-2.1-0.6-3.9-1.7-5.5
			c-0.6-0.8-1.1-1.7-1.6-2.5c-0.4-0.8-0.4-1.6-0.3-2.5c0.3-2.2,0.4-4.5,1.4-6.5c0.7-1.3,1.7-2.4,3-3.1c1.3-0.6,2.6-1.1,4-1.4
			l2.1-0.6c0.8-0.1,1.6,0.1,2.3,0.4c0.9,0.4,1.8,0.8,2.7,1.1c1,0.2,2.1,0.3,3.1,0.6c2.4,0.6,4.6,2,6.2,4c1.6,2,3,4.7,3,7.3
			c0,2.9-1.5,5.2-3.3,7.4c-1.1,1.3-3.4,3.8-1.8,5.5c0.9,0.8,1.8,1.5,2.8,2.1c1.1,0.7,2.4,1.5,3.7,1.4c1.5-0.1,2.7-1.2,4-1.9l4.1-2.6
			c2-1.3,4-2.7,6.2-3.7c0.4-0.2,1.5-0.7,1.8-0.3v-1.5c-2.7,2.9-5.5,5.9-8.2,8.9c-1.3,1.5-2.7,3-4,4.4c-0.7,0.7-1.3,1.4-2,2.2
			c-0.6,0.6-1.3,1.6-2.1,1.8c-0.4,0.1-0.7,0.5-0.8,1c0.2,5,0.5,10,0.4,15c-0.1,4.3-0.6,8.6-1,12.9c-0.3,3.8-0.8,7.9-0.2,11.7
			c0.1,0.7,0.3,1.3,0.6,1.9c0.4,0.6,1,1.1,1.7,1.4c0.3,0.3,0.7,0.5,1.1,0.7c0.4,0.1,0.8-1,0.4-1c-0.1,0-0.2,0.1-0.3,0.1
			c-0.2,0-0.5,0.1-0.7,0.1c-0.4,0.1-0.9,0.1-1.3,0.1c-0.8-0.1-1.6-0.5-2.3-1c-2.7-1.9-3.2-5.1-4.3-8c-0.5-1.5-1.3-2.9-2.3-4.2
			c-1.1-1.1-2.6-1.9-4.1-2.2C56.2,109.1,55.6,111,56.9,111.4z"/>
		<path class="st3" d="M70.5,50.1c-1.4-2.9-4.6-5.1-7.4-6.6c-2.7-1.5-6-1.6-9.1-1.7c-3.3-0.1-6.6,0.3-9.4,2.2
			c-2.6,1.9-4.5,4.6-5.5,7.6c-0.8,2.3-0.5,5.1,0,7.4c0.8,3.3,2.8,6.8,5.8,8.7c2.7,1.7,6,2.3,9.1,2.7c2.9,0.4,5.8,0.2,8.7-0.5
			c3.7-1.1,7.2-3.4,8.8-7.1C73.3,58.8,72.3,53.9,70.5,50.1c-0.6-1.2-2.3-0.2-1.8,1c1.4,3,2.4,7,1.3,10.3c-1,2.9-3.6,5-6.4,6.1
			c-2.5,0.9-5.2,1.3-7.8,1.1c-2.8-0.1-5.6-0.7-8.2-1.8c-5-2.1-7.5-8.5-6.6-13.6c0.2-1,0.6-2.1,1.1-3c0.6-1.3,1.4-2.4,2.5-3.4
			c2.1-1.8,4.7-2.9,7.5-2.9c1.8-0.1,3.7,0,5.5,0.2c1.3,0.1,2.5,0.4,3.7,0.8c1.5,0.7,2.9,1.5,4.2,2.6c1.4,1,2.5,2.2,3.3,3.7
			C69.3,52.3,71.1,51.3,70.5,50.1z"/>
		<path class="st3" d="M34.8,95.9c-0.3,4.3-0.7,8.5-1.1,12.7c-0.2,2.1-0.4,4.1-0.7,6.2c-0.1,1-0.3,2-0.4,3c-0.1,1.1-0.2,2.2-0.5,3.3
			c-0.2,0.8-1,1-1.7,1.2c-0.9,0.3-1.7,0.8-2.3,1.5c-1,1.2-1.2,2.6-0.2,3.9c1,1.3,2.6,1.2,4.1,0.9c1.4-0.3,2.7-0.9,3.9-1.8
			c2.4-1.7,4-4.2,5.5-6.7c0.8-1.3,1.5-2.7,2.4-3.9c0.8-1.1,1.8-2,3.1-2.5c2.6-1.4,5.8-1.7,8.7-1.8c1.4-0.1,3.1-0.3,4.2,0.9
			c1,1.2,1.7,3,2.2,4.6c1,3.2,1.7,6.8,4.9,8.6c2.7,1.4,6.5,2.1,8.7-0.6c0.4-0.4,0.4-1,0-1.5c-0.3-0.4-0.3-0.8-0.5-1.2
			c-0.3-0.4-0.7-0.7-1.2-0.9c-0.7-0.3-1.5-0.3-2.2-0.6c-0.9-0.5-0.6-2.1-0.6-2.9c0.1-1.7,0.3-3.4,0.7-5.1c0.3-1.7,0.7-3.4,1-5.1
			c0.3-1.8,0.4-3.6,0.3-5.4c0.1-3.6,0.2-7.2,0.2-10.8c0-4-0.3-8-0.9-12c-0.2-1.3-2.2-0.8-2,0.5c1,6.9,0.8,13.9,0.7,20.9
			c0.1,1.8,0,3.6-0.2,5.4c-0.3,1.7-0.6,3.3-1,5c-0.3,1.7-0.6,3.2-0.8,4.9c-0.2,1.4-0.4,3.1,0,4.5c0.3,1,1,1.8,2,2.1
			c0.7,0.2,1.7,0.2,2.2,0.7l-0.3-0.7c0.1,0.8,0.4,1.5,1,2.1v-1.5c-1.7,2.1-4.7,1.3-6.7,0c-2.5-1.6-2.8-5.2-3.7-7.8
			c-0.5-1.5-1.2-3-2.1-4.3c-1-1.2-2.4-1.9-4-1.9c-2.9-0.1-5.7,0.3-8.5,1c-2.7,0.7-5.2,2.1-6.8,4.3c-1.6,2.3-2.9,5.1-4.6,7.4
			c-1.5,2.2-3.8,3.8-6.4,4.3c-0.6,0.1-1.2,0.3-1.6-0.3c-0.4-0.5-0.2-1,0.3-1.5c0.5-0.5,1.4-0.7,2.1-1c0.7-0.3,1.2-0.7,1.6-1.2
			c0.6-0.9,0.6-2.2,0.7-3.2c0.1-1,0.3-2.3,0.5-3.4c0.3-2.2,0.5-4.3,0.7-6.5c0.5-4.6,0.9-9.1,1.2-13.7C37,94.6,34.9,94.6,34.8,95.9
			L34.8,95.9z"/>
		<path class="st5" d="M36.4,94.2c1.4,3.3,27.7,5.1,36.6,0c0.1-0.9,0.1-1.8,0.1-2.7c-7.4,4.5-31.6,3.6-35.5,0.7"/>
		<path d="M35.9,94.5c0.6,1.2,2.6,1.7,3.8,2c2.6,0.6,5.2,1,7.9,1.2c6.5,0.5,13.2,0.5,19.5-0.9c1.5-0.3,2.9-0.7,4.4-1.3
			c0.6-0.2,1.2-0.5,1.7-0.8c0.4-0.3,0.3-0.8,0.3-1.3c0.1-0.6,0.1-1.3,0.1-1.9c0-0.3-0.2-0.5-0.5-0.5c-0.1,0-0.2,0-0.2,0.1
			c-1.8,1-3.8,1.7-5.9,2c-2.7,0.5-5.4,0.8-8.1,0.9c-5.3,0.4-10.6,0.1-15.9-0.7c-1.7-0.3-3.7-0.5-5.1-1.6c-0.5-0.4-1,0.5-0.5,0.9
			c1.2,0.9,3,1.2,4.4,1.5c2.4,0.4,4.9,0.7,7.4,0.8c5.7,0.4,11.5,0.1,17.1-0.8c2.5-0.3,4.9-1.1,7.1-2.3l-0.8-0.4
			c0,0.9-0.1,1.8-0.1,2.7l0.3-0.4c-2.1,1.1-4.4,1.8-6.7,2.2c-2.9,0.5-5.9,0.8-8.8,0.9c-5.4,0.3-10.9-0.1-16.3-1.2
			c-1.1-0.2-3.6-0.6-4.1-1.7C36.5,93.3,35.7,93.9,35.9,94.5L35.9,94.5z"/>
		<path class="st3" d="M41.6,65c-2.5,5.6-9.9,5.8-13.8,10.1c-1,1.2-1.7,2.5-2.1,4c-0.6,1.6-0.9,3.4-0.7,5.2c0.4,2.4,2.5,3.6,4.6,4.5
			c1.2,0.5,1.9,0.7,2.1,2.2c0.1,0.9-0.5,1.6-1.2,2.1c-0.8,0.5-1.5,1-2.1,1.7c-0.3,0.3-0.4,0.8-0.2,1.2c1.5,2.4,4.6,2,6.7,0.7
			c2.2-1.3,3.9-3.3,4.1-5.9c0.2-2.2-0.9-4.3-2.8-5.4c-0.8-0.5-1.6-0.9-2.3-1.4c-0.5-0.3-0.8-0.9-0.6-1.5c0-0.1,0.1-0.4,0.1-0.5
			s-0.1,0,0,0c0.4-0.2,0.8-0.4,1.3-0.5c0.4,0,0.7,0.3,1.1,0.4c0.6,0.3,1.2,0.5,1.9,0.5c1.3,0.1,1.3-2,0-2.1
			c-0.9-0.1-1.5-0.7-2.4-0.9c-1-0.1-1.9,0.1-2.7,0.7c-1.2,0.7-1.7,2.6-1.2,3.9c0.6,1.6,2.4,2.3,3.8,3.1c0.8,0.4,1.4,1.1,1.7,1.9
			c0.3,1.1,0.2,2.3-0.4,3.4c-0.7,1.1-1.6,2.1-2.8,2.7c-1.1,0.6-2.8,1.2-3.7-0.1L29.8,96c1-1.3,2.7-1.8,3.5-3.3
			c0.7-1.5,0.4-3.3-0.7-4.5c-0.6-0.6-1.4-1.1-2.2-1.4c-1-0.3-1.8-0.9-2.6-1.5c-1-1-0.9-2.2-0.7-3.5c0.2-1.7,0.8-3.3,1.7-4.7
			c1.5-2.2,4.5-3.4,6.8-4.5c3.1-1.4,6.3-3.3,7.7-6.5C43.8,64.8,42.1,63.8,41.6,65L41.6,65z"/>
		<path class="st3" d="M37.8,77.8c-1,2.6-1.4,5.5-1.8,8.3c-0.1,0.5,0.2,1.1,0.7,1.3c0.5,0.1,1.1-0.2,1.3-0.7
			c0.4-2.7,0.7-5.7,1.7-8.3c0.2-0.5-0.2-1.1-0.7-1.3C38.5,77,37.9,77.3,37.8,77.8z"/>
		<path class="st3" d="M65.7,69.1c0.8,1.5,1.9,3,3.8,3.3c0.8,0.1,1.6-0.1,2.2-0.6c0.7-0.6,1.4-1.1,2.2-1.5c2.4-1.5,4.9-3,7.4-4.3
			c1.5-0.8,3.1-1.5,4.5-2.3c0.3-0.2,1.1-0.8,1.5-0.4c0.3,0.4-0.9,2.1-1.1,2.5c-2,3.1-4.2,6-6.6,8.8c-2.6,3.1-5.5,5.9-8.3,8.7
			c-0.4,0.4-0.4,1.1,0.1,1.5c0.4,0.4,1,0.4,1.4,0c2.6-2.7,5.4-5.3,7.8-8.1c2.5-2.9,4.8-5.9,7-9.1c0.9-1.4,2.5-3.3,1.7-5
			c-0.8-1.7-2.6-1.6-4-0.8c-1.5,0.8-3,1.6-4.6,2.4c-1.3,0.7-2.7,1.4-4,2.2c-1.5,0.9-3,1.8-4.5,2.7c-0.5,0.3-0.9,0.6-1.4,0.9
			c-0.4,0.3-0.6,0.6-1.1,0.5c-1.1-0.2-1.7-1.4-2.2-2.2c-0.3-0.5-0.9-0.7-1.4-0.4C65.6,68,65.4,68.7,65.7,69.1L65.7,69.1z"/>
		<path class="st5" d="M45.4,78.6c-0.3-1.2-8.1-9.9-8.2-9.3c0.8-0.5,1.5-1,2.3-1.4l0.1-0.1h0.2c1.3,0.2,8.4,6.5,8.4,6.8"/>
		<path d="M45.9,78.5c-0.2-0.6-0.6-1.1-1-1.6c-0.7-0.9-1.4-1.8-2.1-2.6c-1.4-1.7-2.8-3.3-4.4-4.8c-0.3-0.3-1.4-1.2-1.6-0.3
			c-0.1,0.3,0.1,0.6,0.4,0.6c0.1,0,0.3,0,0.4,0c0.8-0.5,1.6-1,2.4-1.5l-0.4,0.1c0.6,0.2,1.2,0.5,1.7,1c0.9,0.7,1.8,1.4,2.7,2.2
			c0.9,0.8,1.7,1.5,2.6,2.3c0.3,0.3,0.6,0.5,0.9,0.8c0.1,0.1,0.2,0.2,0.3,0.3c0.1,0.1,0,0,0,0l0,0c0-0.1-0.1-0.1-0.1-0.2
			c0,0.3,0.2,0.5,0.5,0.5s0.5-0.2,0.5-0.5c0-0.5-0.6-1-0.9-1.3c-0.7-0.7-1.5-1.4-2.2-2.1c-1.5-1.4-3.1-2.7-4.9-3.8
			c-0.3-0.2-0.6-0.3-0.9-0.3c-0.4,0-0.8,0.4-1.2,0.6c-0.5,0.3-1.1,0.7-1.6,1l0.8,0.6c0,0.1-0.6,0.5-0.6,0.3c0,0,0,0,0,0
			c0,0,0.1,0,0.2,0.1c0.2,0.2,0.4,0.4,0.7,0.6c0.7,0.6,1.3,1.3,1.9,2c1.4,1.5,2.7,3.1,4,4.7c0.2,0.3,0.5,0.6,0.7,0.9
			c0.1,0.1,0.2,0.2,0.2,0.3l0.1,0.2c0.1,0.1,0-0.1,0,0c0.2,0.6,1.2,0.4,1-0.3L45.9,78.5z"/>
		<path class="st5" d="M62.9,79.3c0.1-0.4,4-7,6-8.7c-0.2-0.9-0.7-1.6-1.5-2.1c-2.3,1.6-5.5,5.1-6.8,7.5"/>
		<path d="M63.4,79.4C63.4,79.6,63.4,79.4,63.4,79.4l0.2-0.3c0.2-0.3,0.3-0.6,0.5-0.9c0.5-0.8,1-1.7,1.5-2.5
			c1.1-1.6,2.2-3.5,3.6-4.8c0.1-0.1,0.2-0.3,0.1-0.5c-0.3-1-0.9-1.8-1.8-2.3c-0.2-0.1-0.4-0.1-0.5,0c-1.4,1-2.7,2.2-3.9,3.5
			c-1.2,1.3-2.2,2.7-3,4.2c-0.3,0.6,0.6,1.1,0.9,0.5c0.8-1.4,1.8-2.8,2.9-4c1.1-1.3,2.3-2.4,3.7-3.4h-0.5c0.6,0.4,1.1,1,1.3,1.7
			l0.1-0.5c-0.7,0.6-1.3,1.4-1.9,2.1c-0.7,0.9-1.3,1.9-1.9,2.8c-0.5,0.8-1.1,1.7-1.6,2.6c-0.3,0.4-0.5,0.9-0.8,1.4
			C62.2,79.7,63.2,80,63.4,79.4L63.4,79.4z"/>
		<path class="st5" d="M43.9,81.8c1.8-4.6,4.3-9.2,9.2-9.2s7.9,3.6,10,7.6c2,3.9,4.7,15.2,3.7,18.2c-2.2,3.9-23.3,4-25.2,1.6
			C39.9,97.7,41.5,88,43.9,81.8z"/>
		<path d="M45,82.1c1.2-3.1,3-7.1,6.4-8.2c3.6-1.1,7.1,1.1,9.1,3.9c1.7,2.5,2.9,5.2,3.6,8.1c0.9,3.1,1.5,6.2,1.8,9.4
			c0,0.6,0.1,1.2,0,1.7c0,0.3-0.1,0.7-0.1,1c-0.1,0.2,0.2-0.1,0,0c-0.1,0-0.1,0.1-0.1,0.1c-0.2,0.2,0,0-0.2,0.2
			c-0.3,0.2-0.6,0.4-1,0.5c-2.2,0.8-4.5,1.2-6.8,1.4c-2.8,0.3-5.5,0.3-8.3,0.2c-2.1,0-4.2-0.3-6.2-0.8c-0.3-0.1-0.5-0.2-0.7-0.3
			c0,0,0-0.1,0,0c-0.1-0.2-0.2-0.3-0.2-0.5c-0.5-1.4-0.3-3-0.2-4.5C42.4,90.1,43.4,86,45,82.1c0.5-1.3-1.5-1.8-2-0.6
			c-1.5,3.9-2.5,8-2.9,12.1c-0.2,1.7-0.2,3.3,0,5c0.1,1,0.6,1.9,1.4,2.5c1.7,1.1,4.1,1.1,6.1,1.3c3,0.2,6,0.2,8.9,0
			c2.7-0.1,5.4-0.6,8-1.4c1-0.3,1.8-0.8,2.6-1.4c0.8-0.8,0.9-1.8,0.9-2.9c0.1-3.3-0.8-6.8-1.6-10c-0.8-3.2-1.8-6.4-3.7-9.2
			c-2.2-3.4-5.5-6.1-9.8-6c-4.2,0.1-7.1,3.6-8.8,7.1c-0.5,0.9-0.9,1.9-1.3,2.9C42.5,82.8,44.5,83.3,45,82.1z"/>
		<path d="M41.4,99.2c1,0.3,2,0.5,3,0.6c1.6,0.2,3.3,0.3,4.9,0.4c3.9,0.2,7.9,0.1,11.8-0.5c1.8-0.2,3.6-0.7,5.2-1.5
			c0.6-0.3,0.1-1.2-0.5-0.9c-3,1.5-6.8,1.7-10.1,1.9c-3.5,0.2-7.1,0.1-10.6-0.3c-1.2-0.1-2.3-0.3-3.4-0.6C41.1,98,40.8,99,41.4,99.2
			L41.4,99.2z"/>
		<path d="M44.5,92.4c0.4-2.5,0.9-5.1,1.6-7.5c0.4-1.3,0.8-2.5,1.4-3.7c0.4-1.2,1.1-2.3,1.9-3.2c4.4-4.3,9.7,0.8,11.5,5.1
			c1.2,3,1.5,6.2,1.8,9.3c0.1,0.7,1.1,0.7,1,0c-0.5-5.5-1.4-11.8-6.1-15.4c-2.2-1.7-4.8-2.3-7.3-1c-2.5,1.3-3.4,3.8-4.4,6.3
			c-1.1,3.2-2,6.5-2.5,9.9C43.4,92.8,44.4,93,44.5,92.4L44.5,92.4z"/>
		<path d="M57,90c-0.1,0-0.1,0-0.2,0l-1.7-0.2c-0.4,0-0.7-0.2-0.8-0.5l-0.1-0.2l0.2-0.2c0.6-0.5,1.1-1.2,1.4-1.9
			c0.2-0.4,0.2-0.9,0.1-1.4c-0.1-0.7-0.5-1.3-1.1-1.8c-0.6-0.4-1.3-0.6-2-0.5c-0.2,0-0.4,0.1-0.6,0.2c-0.8,0.4-1.1,1.6-0.9,2.5
			c0.3,1,0.7,2,1.3,2.8l0.3,0.5l-0.5,0.1c-0.9,0.1-1.7,0.1-2.6,0.1l-0.4,0l0.1-0.4c0.1-0.5,0.2-1,0.1-1.5l0.7-0.1
			c0.1,0.4,0.1,0.9,0,1.3c0.5,0,1,0,1.5,0c-0.5-0.8-0.9-1.7-1.1-2.6c-0.2-1.2,0.1-2.7,1.3-3.3c0.3-0.1,0.5-0.2,0.8-0.2
			c0.9-0.1,1.8,0.1,2.5,0.6c0.7,0.5,1.2,1.3,1.4,2.2c0.1,0.6,0,1.2-0.2,1.8c-0.3,0.7-0.7,1.3-1.3,1.8l1.7,0.2c0.1-0.4,0.1-0.7,0-1
			l0.7-0.1c0,0.4,0,0.8,0,1.1c0,0.1,0,0.1,0,0.2C57.5,89.9,57.3,90,57,90z"/>
		<g id="Capa_6">
			<path class="st5" d="M67.9,45.5c4-0.3,4.6,0.2,8.4,1.5c0.8,0.3,1.7,0.7,1.9,1.5c0.2,1-0.7,1.9-1.5,2.4c-1.6,1-3.4,1.8-5.2,2.3"/>
			<path d="M67.9,46.5c1.3-0.2,2.7-0.1,4,0.1c1.3,0.4,2.6,0.8,3.9,1.3c0.4,0.1,1.3,0.4,1.4,0.9c0.1,0.5-0.7,1-1.1,1.2
				c-1.5,1-3.2,1.7-5,2.1c-1.3,0.3-0.7,2.3,0.5,2c1.7-0.4,3.3-1.1,4.7-1.9c1.4-0.8,3-1.9,2.7-3.7s-1.9-2.3-3.3-2.8
				c-1.1-0.5-2.3-0.8-3.5-1.1c-1.5-0.3-3-0.3-4.5-0.2c-0.6,0-1,0.5-1,1C66.9,46.1,67.3,46.5,67.9,46.5L67.9,46.5z"/>
			<path class="st5" d="M40,49.3c-0.7,0.9-1.9,3.1-0.9,4.5c1.8,2.5,6.8,4.4,15.9,4.4c4.7,0,13.9-2.5,15.9-5.1
				c-1-4.1-4.6-8.4-8.4-10.3C59,41,52.2,41.1,48.5,42.6C45.1,44,42.1,46.3,40,49.3z"/>
			<path d="M39.1,48.7c-0.8,1-1.3,2.3-1.4,3.6c0,1.1,0.5,2.1,1.3,2.9c1.4,1.3,3.2,2.2,5.1,2.7c2.9,0.8,5.8,1.2,8.8,1.2
				c2.8,0.1,5.5-0.1,8.2-0.7c2.6-0.5,5.2-1.4,7.7-2.5c0.9-0.4,1.8-1,2.6-1.7c0.5-0.3,0.7-0.9,0.7-1.4c-0.2-0.8-0.4-1.6-0.8-2.3
				c-1.3-2.9-3.4-5.5-6.1-7.4c-2.4-1.6-5.2-2.5-8.1-2.6C50,39.9,43.2,43,39.1,48.7c-0.8,1,1,2,1.8,1c2.8-3.8,7.1-6.4,11.8-7.1
				c2.3-0.3,4.7-0.2,7,0.2c2.2,0.5,4.3,1.6,5.9,3.2c2.2,1.9,3.7,4.4,4.5,7.2l0.3-1c-1.3,1.5-3.6,2.3-5.4,2.9
				c-2.5,0.9-5.1,1.5-7.7,1.8c-3,0.3-5.9,0.2-8.9-0.3c-2.2-0.2-4.4-0.9-6.4-1.9c-0.7-0.4-1.4-0.9-1.9-1.5c-0.7-0.9,0.3-2.5,0.9-3.4
				C41.6,48.7,39.9,47.7,39.1,48.7z"/>
			<path d="M53.5,42.1c-4.1,3.7-6.9,8.6-7.9,14.1c-0.1,0.7,0.9,0.9,1,0.3c1-5.3,3.7-10,7.6-13.6C54.7,42.4,54,41.6,53.5,42.1
				L53.5,42.1z"/>
			<path d="M55.9,42.4c1.9,1.7,3.4,3.7,4.5,6c1.1,2.5,1.1,5.3,1.2,8c0,0.7,1,0.7,1,0c-0.1-2.8-0.1-5.7-1.3-8.3
				c-1.1-2.4-2.7-4.6-4.7-6.4C56.2,41.2,55.4,41.9,55.9,42.4L55.9,42.4z"/>
		</g>
	</g>
</g>
<g id="Layer_1_1_">
	<g>
		<path class="st2" d="M131.7,5.6h-120c-4.5,0.1-8.1,3.7-8,8.2v119c0,4.5,3.5,8.2,8,8.2h120c4.5-0.1,8.1-3.7,8-8.2v-119
			C139.8,9.3,136.2,5.6,131.7,5.6z M133.9,126.8c0.1,4.6-3.6,8.4-8.2,8.4h-108c-4.6-0.1-8.3-3.8-8.2-8.4v-107
			c-0.1-4.6,3.6-8.4,8.2-8.4h108c4.6,0.1,8.3,3.8,8.2,8.4L133.9,126.8z"/>
		<path d="M11.7,142c-5.1-0.1-9.1-4.2-9.1-9.3v-119c-0.1-5,4-9.2,9-9.2h120.1c5,0.1,9.1,4.2,9,9.3v118.9c0.1,5-4,9.2-9,9.2H11.7z
			 M11.7,6.6c-3.9,0-7,3.3-7,7.2v119c0,3.9,3.1,7.1,7,7.2h120c3.9,0,7-3.3,7-7.2v-119c0-3.9-3.1-7.2-7-7.2H11.7z M17.7,136.3
			c-5.2-0.1-9.3-4.3-9.2-9.5v-107c-0.1-5.1,4.1-9.4,9.2-9.5h108c5.2,0.1,9.3,4.3,9.2,9.5l0,107c0.1,5.1-4.1,9.4-9.2,9.5H17.7z
			 M125.7,12.4h-108c-4,0.1-7.2,3.4-7.2,7.4v107c0,4,3.2,7.4,7.2,7.4h108c4-0.1,7.2-3.4,7.2-7.4l0-107
			C132.9,15.8,129.7,12.5,125.7,12.4z"/>
	</g>
</g>
</svg>
