<svg xmlns="http://www.w3.org/2000/svg" viewBox="0 0 44 43" xmlns:v="https://vecta.io/nano"><path d="M23.8 3.2c-12-1.5-22.2 8.7-20.6 20.7 1 8.2 7.7 14.9 15.9 15.9a18.46 18.46 0 0 0 20.7-20.7c-1.1-8.2-7.7-14.8-16-15.9z" fill="#fff" stroke="#fff" stroke-width="5" stroke-linejoin="round" stroke-miterlimit="10"/><path d="M21.4 40h0C11.3 40 3 31.7 3 21.5S11.3 3.1 21.4 3.1s18.4 8.3 18.4 18.4C39.9 31.7 31.6 40 21.4 40" fill="#e63947"/><path d="M18.6 32.7h4.5V21.4h3.1l.3-3.8H23v-2.1c0-.9.2-1.2 1-1.2h2.4v-3.9h-3.1c-3.3 0-4.8 1.5-4.8 4.3v3h-2.3v3.8h2.3v11.2h.1z" fill="#fff"/></svg>