<svg xmlns="http://www.w3.org/2000/svg" xmlns:xlink="http://www.w3.org/1999/xlink" viewBox="0 0 677 322" xmlns:v="https://vecta.io/nano"><style><![CDATA[.P{fill:#183e41}.Q{fill:#183e42}.R{fill:#fff}.S{fill:#7dc4ca}.T{fill:#f7c402}.U{fill:#e66869}.V{fill:#4386c6}]]></style><path d="M54.6 7.7h569.5c25.1 0 45.4 20.3 45.4 45.4v216.3c0 25.1-20.3 45.4-45.4 45.4H54.6c-25.1 0-45.4-20.3-45.4-45.4V53.1C9.2 28 29.5 7.7 54.6 7.7z" fill="#ffda83"/><path d="M601.8 22.3c25.1 0 51 27.9 51 53l16.6 183.2V53.1c0-25.1-20.3-45.4-45.4-45.4l-271.2.6 249 14z" fill="#fff6e1"/><path d="M629.8 297.3l-544.2-9.5c-25.1 0-45.4-20.3-45.4-45.4V26.1c0-5.8 1.1-11.6 3.3-17-20.2 5.1-34.3 23.2-34.3 44v216.3c0 25.1 20.3 45.4 45.4 45.4h569.5c18.5 0 35.1-11.2 42.1-28.4-3.6.9-6.4 10.9-36.4 10.9z" fill="#ffc200"/><defs><path id="A" d="M54.6 7.7h569.5c25.1 0 45.4 20.3 45.4 45.4v216.3c0 25.1-20.3 45.4-45.4 45.4H54.6c-25.1 0-45.4-20.3-45.4-45.4V53.1C9.2 28 29.5 7.7 54.6 7.7z"/><path id="B" d="M180.4 60.6c-1.8 0-3.3-.5-4.4-1.6s-1.6-2.5-1.6-4.4c0-1.2.2-2.3.7-3.2s1.1-1.6 2-2.1c.8-.5 1.8-.8 2.9-.8 1.6 0 2.8.5 3.7 1.5s1.3 2.4 1.3 4.2c0 .5-.3.7-.8.7h-7.9c.1 1.3.4 2.3 1.2 3 .7.7 1.7 1 2.9 1 .5 0 1.1-.1 1.6-.2s1.1-.4 1.6-.7c.4-.2.7-.3.9-.1s.4.4.4.7-.2.6-.5.8c-.5.4-1.2.7-1.9.9s-1.4.3-2.1.3zm-.3-10.7c-1.1 0-2 .3-2.6 1s-1 1.6-1.1 2.7h7.1a4.67 4.67 0 0 0-.9-2.8c-.7-.5-1.5-.9-2.5-.9z"/><path id="C" d="M235.3 60.6c-.7 0-1.4-.1-2.2-.2s-1.5-.4-2.1-.7c-.3-.2-.5-.4-.6-.7a1.1 1.1 0 0 1 0-.8c.1-.2.3-.4.5-.5s.5-.1.9.1c.6.3 1.2.5 1.8.6s1.1.2 1.7.2c.8 0 1.3-.1 1.7-.4s.6-.6.6-1c0-.7-.5-1.1-1.5-1.3l-2.4-.5c-2-.4-3-1.4-3-3.2 0-.8.2-1.4.6-2s1-1 1.8-1.3 1.6-.5 2.6-.5c1.4 0 2.7.3 3.8.9.3.2.5.4.5.7s0 .5-.1.8c-.1.2-.3.4-.6.5s-.6.1-.9-.1c-.5-.3-1-.4-1.4-.6s-.9-.2-1.3-.2c-.8 0-1.4.1-1.7.4-.4.3-.6.6-.6 1.1 0 .7.5 1.1 1.4 1.3l2.4.5c1 .2 1.8.5 2.4 1.1s.8 1.2.8 2.1c0 1.2-.5 2.1-1.4 2.7s-2.2 1-3.7 1z"/><path id="D" d="M64.8 89.4c-1.2 0-2.3-.3-3.2-.8s-1.6-1.2-2.1-2.1-.7-2-.7-3.3c0-1.2.2-2.3.7-3.2s1.2-1.6 2.1-2.1 2-.7 3.2-.7c.5 0 1.1.1 1.7.2s1.2.4 1.7.7c.3.2.5.4.6.7s0 .6-.1.8c-.1.3-.3.4-.6.6-.3.1-.6.1-.9-.1-.7-.4-1.4-.6-2.1-.6-1 0-1.8.3-2.4 1-.6.6-.9 1.6-.9 2.8s.3 2.1.9 2.8 1.4 1 2.4 1c.7 0 1.4-.2 2.1-.6.3-.2.6-.2.9-.1s.4.3.6.6c.1.3.1.5.1.8s-.2.5-.6.7c-.5.3-1.1.6-1.7.7l-1.7.2z"/><path id="E" d="M75.8 89.4c-1.2 0-2.3-.2-3.2-.7s-1.6-1.2-2.1-2.1-.7-2-.7-3.3.2-2.3.7-3.2 1.2-1.6 2.1-2.1 2-.7 3.2-.7 2.3.2 3.2.7 1.6 1.2 2.1 2.1.7 2 .7 3.2-.2 2.3-.7 3.3c-.5.9-1.2 1.6-2.1 2.1s-2 .7-3.2.7zm0-2.3c.9 0 1.6-.3 2.2-1 .5-.6.8-1.6.8-2.9s-.3-2.2-.8-2.9c-.5-.6-1.3-.9-2.2-.9s-1.6.3-2.2.9c-.5.6-.8 1.6-.8 2.9s.3 2.2.8 2.9c.6.7 1.3 1 2.2 1z"/><path id="F" d="M123.7 89.4c-2.7 0-4-1.5-4-4.5V73.6c0-1 .5-1.5 1.5-1.5s1.5.5 1.5 1.5v11.2c0 1.4.6 2.2 1.8 2.2h.4.3c.2 0 .4 0 .5.2s.1.5.1.9-.1.7-.2.9c-.2.2-.4.4-.8.4h-1.1z"/><path id="G" d="M230 89.4c-3.1 0-4.7-1.5-4.7-4.6v-5.1h-1.2c-.8 0-1.2-.4-1.2-1.1s.4-1.1 1.2-1.1h1.2v-2.2c0-1 .5-1.5 1.5-1.5s1.5.5 1.5 1.5v2.2h2.5c.8 0 1.2.4 1.2 1.1s-.4 1.1-1.2 1.1h-2.5v4.9c0 .8.2 1.3.5 1.7s.9.6 1.6.6c.3 0 .5 0 .7-.1.2 0 .4-.1.6-.1s.4 0 .5.2c.1.1.2.4.2.8 0 .3-.1.6-.2.9-.1.2-.3.4-.6.5-.2.1-.5.1-.8.2s-.6.1-.8.1z"/><path id="H" d="M248.2 89.4c-1 0-1.5-.5-1.5-1.5v-9.1c0-1 .5-1.5 1.5-1.5s1.5.5 1.5 1.5v.7c.6-1.4 1.8-2.1 3.7-2.3.7-.1 1.1.3 1.2 1.2.1.8-.3 1.3-1.2 1.4h-.5c-2 .2-3 1.2-3 3v5c-.2 1.1-.7 1.6-1.7 1.6z"/><path id="I" d="M272.8 89.4c-1.3 0-2.5-.2-3.4-.7-1-.5-1.7-1.2-2.2-2.1s-.8-2-.8-3.2.3-2.3.8-3.2 1.2-1.6 2.1-2.1 1.9-.8 3-.8c1.7 0 3 .5 3.9 1.6 1 1.1 1.5 2.5 1.5 4.3 0 .6-.4.9-1.2.9h-7.2c.2 2.1 1.4 3.1 3.6 3.1.4 0 .9-.1 1.4-.2s1-.3 1.5-.5c.4-.2.8-.3 1.1-.2s.5.3.6.5c.1.3.1.5 0 .9s-.3.6-.7.8c-.6.4-1.2.6-1.9.8l-2.1.1zm-.4-10.2c-.9 0-1.6.3-2.1.8s-.9 1.3-1 2.2h5.9c-.1-1-.3-1.7-.8-2.2s-1.2-.8-2-.8z"/><path id="J" d="M81.9 103.8c-.6 0-1-.1-1.3-.4s-.5-.7-.5-1.2.2-.9.5-1.2.7-.4 1.3-.4c1.2 0 1.8.5 1.8 1.6s-.6 1.6-1.8 1.6zm0 14.3c-.5 0-.8-.1-1.1-.4s-.4-.7-.4-1.2v-8.8c0-1.1.5-1.6 1.5-1.6s1.5.5 1.5 1.6v8.8c0 .5-.1.9-.4 1.2-.2.3-.6.4-1.1.4z"/><path id="K" d="M119.7 118.2c-1 0-1.5-.5-1.5-1.5v-9.1c0-1 .5-1.5 1.5-1.5s1.5.5 1.5 1.5v.5c.4-.7.9-1.2 1.6-1.5.7-.4 1.4-.5 2.3-.5 2.8 0 4.2 1.6 4.2 4.8v5.8c0 1-.5 1.5-1.5 1.5s-1.5-.5-1.5-1.5V111c0-.9-.2-1.6-.5-2s-.9-.6-1.6-.6c-.9 0-1.6.3-2.1.8-.5.6-.8 1.3-.8 2.2v5.3c-.1 1-.6 1.5-1.6 1.5z"/><path id="L" d="M210.3 118.2c-.8 0-1.6-.2-2.3-.5s-1.2-.8-1.6-1.3c-.4-.6-.6-1.2-.6-1.9 0-.9.2-1.5.7-2.1.4-.5 1.2-.9 2.2-1.1s2.4-.3 4.1-.3h.8v-.5c0-.8-.2-1.4-.5-1.7s-.9-.5-1.8-.5c-.5 0-1 .1-1.5.2s-1.1.3-1.7.6c-.4.2-.7.2-1 .1s-.4-.4-.5-.6c-.1-.3-.1-.6 0-.9s.4-.5.7-.7a8.3 8.3 0 0 1 2.1-.6l1.9-.2c1.7 0 3 .4 3.8 1.2s1.2 2 1.2 3.7v5.8c0 1-.5 1.5-1.4 1.5s-1.4-.5-1.4-1.5v-.5c-.3.7-.7 1.2-1.3 1.5-.3.1-1 .3-1.9.3zm.7-2c.8 0 1.4-.3 2-.8.5-.5.8-1.2.8-2.1v-.5h-.8c-1.5 0-2.5.1-3.1.3s-.9.7-.9 1.3c0 .5.2 1 .6 1.3.2.3.7.5 1.4.5z"/><path id="M" d="M230 118.2c-.8 0-1.6-.2-2.3-.5s-1.2-.8-1.6-1.3c-.4-.6-.6-1.2-.6-1.9 0-.9.2-1.5.7-2.1.4-.5 1.2-.9 2.2-1.1s2.4-.3 4.1-.3h.8v-.5c0-.8-.2-1.4-.5-1.7s-.9-.5-1.8-.5c-.5 0-1 .1-1.5.2s-1.1.3-1.7.6c-.4.2-.7.2-1 .1s-.4-.4-.5-.6c-.1-.3-.1-.6 0-.9s.4-.5.7-.7a8.3 8.3 0 0 1 2.1-.6l1.9-.2c1.7 0 3 .4 3.8 1.2s1.2 2 1.2 3.7v5.8c0 1-.5 1.5-1.4 1.5s-1.4-.5-1.4-1.5v-.5c-.3.7-.7 1.2-1.3 1.5-.4.1-1.1.3-1.9.3zm.6-2c.8 0 1.4-.3 2-.8.5-.5.8-1.2.8-2.1v-.5h-.8c-1.5 0-2.5.1-3.1.3s-.9.7-.9 1.3c0 .5.2 1 .6 1.3.2.3.7.5 1.4.5z"/><path id="N" d="M60.6 175.7c-.7 0-1-.3-1-1v-10c0-.7.3-1 .9-1s1 .3 1 1v1.3a3.53 3.53 0 0 1 1.5-1.7c.7-.4 1.5-.6 2.4-.6.5 0 .8.2.8.8s-.2.9-.9.9h-.4c-1.1.1-1.9.4-2.5 1s-.9 1.4-.9 2.5v5.8c.1.7-.2 1-.9 1z"/><path id="O" d="M78.5 175.8c-1.4 0-2.4-.4-3.1-1.1s-1-1.8-1-3.2v-6.1h-1.6c-.6 0-.8-.3-.8-.8s.3-.7.8-.7h1.6v-2.8c0-.7.3-1 1-1 .6 0 1 .3 1 1v2.8h3c.6 0 .8.2.8.7s-.3.8-.8.8h-3v5.9c0 .9.2 1.6.6 2.1s1 .7 1.9.7c.3 0 .6 0 .8-.1s.4-.1.6-.1c.1 0 .3 0 .4.1s.1.3.1.6c0 .2 0 .4-.1.5-.1.2-.2.3-.4.3-.2.1-.4.1-.8.2l-1 .2z"/><path id="P" d="M107.6 175.8c-1.1 0-2.1-.2-3-.7-.8-.5-1.5-1.2-1.9-2.1s-.7-2-.7-3.2.2-2.3.7-3.2 1.1-1.6 1.9-2.1 1.8-.7 3-.7c1.1 0 2.1.2 2.9.7s1.5 1.2 1.9 2.1c.5.9.7 2 .7 3.2s-.2 2.3-.7 3.2-1.1 1.6-1.9 2.1c-.8.4-1.8.7-2.9.7zm0-1.6c1.1 0 2-.4 2.6-1.2.7-.8 1-1.9 1-3.3 0-1.5-.3-2.6-1-3.3a3.22 3.22 0 0 0-2.6-1.2c-1.1 0-2 .4-2.6 1.2s-1 1.9-1 3.3.3 2.5 1 3.3a3.22 3.22 0 0 0 2.6 1.2z"/><path id="Q" d="M158.9 175.8c-2.8 0-4.2-1.5-4.2-4.6v-6.4c0-.7.3-1 1-1s1 .3 1 1v6.4c0 1 .2 1.8.6 2.3s1.1.7 2 .7c1 0 1.8-.3 2.4-1s.9-1.5.9-2.7v-5.8c0-.7.3-1 1-1 .6 0 1 .3 1 1v10c0 .7-.3 1-.9 1s-1-.3-1-1v-1.1a4.63 4.63 0 0 1-1.5 1.6 4.38 4.38 0 0 1-2.3.6z"/><path id="R" d="M173.5 175.8c-1.8 0-3.3-.5-4.4-1.6s-1.6-2.5-1.6-4.4c0-1.2.2-2.3.7-3.2s1.1-1.6 2-2.1c.8-.5 1.8-.8 2.9-.8 1.6 0 2.8.5 3.7 1.5s1.3 2.4 1.3 4.2c0 .5-.3.7-.8.7h-7.9c.1 1.3.4 2.3 1.2 3 .7.7 1.7 1 2.9 1 .5 0 1.1-.1 1.6-.2s1.1-.4 1.6-.7c.4-.2.7-.3.9-.1.2.1.4.4.4.7s-.2.6-.5.8c-.5.4-1.2.7-1.9.9s-1.4.3-2.1.3zm-.3-10.7c-1.1 0-2 .3-2.6 1s-1 1.6-1.1 2.7h7.1a4.67 4.67 0 0 0-.9-2.8 3.77 3.77 0 0 0-2.5-.9z"/><path id="S" d="M188.2 175.7c-.6 0-1-.3-1-1v-10c0-.7.3-1 .9-1s1 .3 1 1v1.2c.4-.7.9-1.3 1.6-1.7s1.5-.6 2.4-.6c2.8 0 4.2 1.5 4.2 4.6v6.4c0 .7-.3 1-1 1s-1-.3-1-1v-6.3c0-1.1-.2-1.9-.6-2.4s-1.1-.8-2-.8c-1.1 0-1.9.3-2.6 1s-.9 1.5-.9 2.7v5.8c0 .8-.4 1.1-1 1.1z"/><path id="T" d="M224.3 175.8c-.7 0-1.4-.1-2.2-.3-.7-.2-1.4-.5-2-.9-.3-.2-.4-.4-.4-.7s.1-.5.3-.7.5-.2.8 0c.6.4 1.2.7 1.8.8l1.7.2c.9 0 1.6-.2 2.1-.5s.7-.8.7-1.4c0-.4-.2-.8-.5-1.1s-.8-.5-1.4-.6l-2.2-.5c-2-.4-3-1.5-3-3.1 0-1.1.4-1.9 1.3-2.5a5.62 5.62 0 0 1 3.3-1c.7 0 1.4.1 2 .3s1.2.5 1.7.9c.3.2.4.4.4.7s-.2.5-.4.6c-.2.2-.5.1-.8-.1-.5-.3-1-.6-1.5-.7-.5-.2-1-.2-1.5-.2-.9 0-1.6.2-2 .5-.5.4-.7.8-.7 1.4 0 .9.6 1.5 1.8 1.7l2.2.5c1 .2 1.8.6 2.3 1.1s.8 1.1.8 2c0 1.1-.4 1.9-1.3 2.5-.7.8-1.9 1.1-3.3 1.1z"/><path id="U" d="M237.2 175.8c-1.8 0-3.3-.5-4.4-1.6s-1.6-2.5-1.6-4.4c0-1.2.2-2.3.7-3.2s1.1-1.6 2-2.1c.8-.5 1.8-.8 2.9-.8 1.6 0 2.8.5 3.7 1.5s1.3 2.4 1.3 4.2c0 .5-.3.7-.8.7h-7.9c.1 1.3.4 2.3 1.2 3 .7.7 1.7 1 2.9 1 .5 0 1.1-.1 1.6-.2s1.1-.4 1.6-.7c.4-.2.7-.3.9-.1.2.1.4.4.4.7s-.2.6-.5.8c-.5.4-1.2.7-1.9.9s-1.4.3-2.1.3zm-.3-10.7c-1.1 0-2 .3-2.6 1s-1 1.6-1.1 2.7h7.1a4.67 4.67 0 0 0-.9-2.8c-.7-.5-1.5-.9-2.5-.9z"/><path id="V" d="M83.9 204.6c-.7 0-1.4-.1-2.2-.3-.7-.2-1.4-.5-2-.9-.3-.2-.4-.4-.4-.7s.1-.5.3-.7.5-.2.8 0c.6.4 1.2.7 1.8.8l1.7.2c.9 0 1.6-.2 2.1-.5s.7-.8.7-1.4c0-.4-.2-.8-.5-1.1s-.8-.5-1.4-.6l-2.2-.5c-2-.4-3-1.5-3-3.1 0-1.1.4-1.9 1.3-2.5a5.62 5.62 0 0 1 3.3-1c.7 0 1.4.1 2 .3s1.2.5 1.7.9c.3.2.4.4.4.7s-.2.5-.4.6c-.2.2-.5.1-.8-.1-.5-.3-1-.6-1.5-.7-.5-.2-1-.2-1.5-.2-.9 0-1.6.2-2 .5-.5.4-.7.8-.7 1.4 0 .9.6 1.5 1.8 1.7l2.2.5c1 .2 1.8.6 2.3 1.1s.8 1.1.8 2c0 1.1-.4 1.9-1.3 2.5-.8.8-1.9 1.1-3.3 1.1z"/><path id="W" d="M138.1 204.6c-2.8 0-4.2-1.5-4.2-4.6v-6.4c0-.7.3-1 1-1s1 .3 1 1v6.4c0 1 .2 1.8.6 2.3s1.1.7 2 .7c1 0 1.8-.3 2.4-1s.9-1.5.9-2.7v-5.8c0-.7.3-1 1-1 .6 0 1 .3 1 1v10c0 .7-.3 1-.9 1s-1-.3-1-1v-1.1a4.63 4.63 0 0 1-1.5 1.6c-.7.4-1.5.6-2.3.6z"/><path id="X" d="M193.3 208.9c-.6 0-1-.3-1-1v-14.4c0-.7.3-1 .9-1 .7 0 1 .3 1 1v1.2c.3-.7.9-1.3 1.6-1.7s1.5-.6 2.4-.6c1 0 1.9.2 2.7.7s1.4 1.2 1.8 2.1.6 2 .6 3.2-.2 2.3-.6 3.2-1 1.6-1.8 2.1-1.7.7-2.7.7c-.9 0-1.7-.2-2.4-.6s-1.2-1-1.6-1.7v5.5c.1.9-.2 1.3-.9 1.3zm4.5-5.9c1.1 0 2-.4 2.6-1.2.7-.8 1-1.9 1-3.3 0-1.5-.3-2.6-1-3.3a3.22 3.22 0 0 0-2.6-1.2c-1.1 0-2 .4-2.6 1.2-.7.8-1 1.9-1 3.3s.3 2.5 1 3.3a3.22 3.22 0 0 0 2.6 1.2z"/><path id="Y" d="M64.6 233.4c-1.2 0-2.2-.3-3-.8s-1.5-1.2-2-2.1-.7-2-.7-3.2c0-1.9.5-3.3 1.5-4.4s2.4-1.6 4.2-1.6c.6 0 1.2.1 1.8.3s1.2.5 1.7.9c.3.2.4.4.3.7 0 .3-.2.5-.4.6s-.5.1-.8-.1c-.4-.3-.9-.5-1.3-.7-.4-.1-.8-.2-1.2-.2-1.2 0-2.2.4-2.8 1.1-.7.8-1 1.9-1 3.3s.3 2.5 1 3.3 1.6 1.2 2.8 1.2c.4 0 .8-.1 1.2-.2s.9-.4 1.3-.7c.3-.2.6-.2.8-.1.2.2.3.4.4.7 0 .3-.1.5-.3.7-.5.4-1.1.7-1.7.9-.6.3-1.2.4-1.8.4z"/><path id="Z" d="M84.8 233.3c-.6 0-1-.3-1-1v-10c0-.7.3-1 .9-1s1 .3 1 1v1.2c.4-.7.9-1.3 1.6-1.7s1.5-.6 2.4-.6c2.8 0 4.2 1.5 4.2 4.6v6.4c0 .7-.3 1-1 1s-1-.3-1-1V226c0-1.1-.2-1.9-.6-2.4s-1.1-.8-2-.8c-1.1 0-1.9.3-2.6 1s-.9 1.5-.9 2.7v5.8c0 .7-.3 1-1 1z"/><path id="a" d="M125.9 218.7c-.8 0-1.3-.4-1.3-1.2s.4-1.2 1.3-1.2c.8 0 1.3.4 1.3 1.2s-.4 1.2-1.3 1.2zm0 14.6c-.6 0-1-.4-1-1.1v-9.8c0-.7.3-1 1-1s1 .3 1 1v9.8c0 .7-.3 1.1-1 1.1z"/><path id="b" d="M280.3 233.4c-1 0-1.9-.2-2.7-.7s-1.4-1.2-1.8-2.1-.6-2-.6-3.2.2-2.3.6-3.2 1-1.6 1.8-2.1 1.7-.7 2.7-.7c.9 0 1.7.2 2.4.6a3.53 3.53 0 0 1 1.5 1.7v-6.5c0-.7.3-1 1-1 .6 0 1 .3 1 1v15.3c0 .7-.3 1-1 1-.6 0-1-.3-1-1v-1.2c-.4.7-.9 1.3-1.6 1.7-.6.2-1.4.4-2.3.4zm.4-1.6c1.1 0 2-.4 2.6-1.2.7-.8 1-1.9 1-3.3 0-1.5-.3-2.6-1-3.3a3.22 3.22 0 0 0-2.6-1.2c-1.1 0-2 .4-2.6 1.2s-1 1.9-1 3.3.3 2.5 1 3.3a3.22 3.22 0 0 0 2.6 1.2z"/></defs><clipPath id="c"><use xlink:href="#A"/></clipPath><g clip-path="url(#c)"><path d="M260.9 325.8c59.5-14.8 100-40 129.5-87 31.6-.6 59.9-9.2 78.4-30-18 9.8-51.3 11.7-72.5 8 25.9-41.8 31-130 19-182-12.6-54.7-40.9-51-112.1-47l-308.4 1-2.5 337h268.6z" fill="#daedee"/><path d="M261.3 327.3c31.3-7.8 61.8-19.7 87.5-39.6 11.8-9.2 22.4-19.9 31.5-31.8 2.3-3 4.5-6 6.6-9.1 1.1-1.6 2-3.3 3.2-4.8 1.9-2.3 4-1.8 6.9-2 8.6-.4 17.2-1.6 25.6-3.6 18-4.3 34.8-12.8 47.3-26.6.6-.6.5-1.6-.1-2.1-.5-.4-1.2-.5-1.7-.2-10.7 5.7-23.1 7.9-35 8.9-12.1 1.2-24.3.8-36.3-1.1l.9 2.2c16.3-26.8 21.6-60.1 24.1-90.9 2.6-32.2 2.1-66.2-6.3-97.6-2.9-10.6-7-21.4-14.6-29.6-6.3-6.8-14.7-10.9-23.7-12.9-24.3-5.5-49.9-.9-74.4-.4-26.7.6-53.4.2-80.2.3l-140 .6-57 .2c-9.8 0-19.6-.4-29.4.1h-1.4a1.54 1.54 0 0 0-1.5 1.5l-.8 114.4-1.4 181.1-.3 41.5a1.54 1.54 0 0 0 1.5 1.5h268.5a1.54 1.54 0 0 0 1.5-1.5 1.54 1.54 0 0 0-1.5-1.5H-7.7l1.5 1.5.8-114.4L-4 30.3l.3-41.5-1.5 1.5 69.3-.3 136.5-.4 97.2-.3c17.3 0 34.7-2 52-2 21.4 0 43.7 2.8 55.2 23.2 6.5 11.5 9.3 25 11.4 37.8 2.5 16.4 3.7 33.1 3.6 49.7-.1 33.3-3.7 68-15.8 99.3-2.5 6.5-5.5 12.8-9.1 18.8-.4.7-.2 1.7.6 2.1.1.1.2.1.3.1 12.8 2.1 25.7 2.4 38.6 1 12-1.2 24.3-3.5 35-9.2l-1.8-2.4c-11.5 12.7-26.6 20.8-43 25.1a135.75 135.75 0 0 1-26.9 4.2c-2.5.1-6.6-.6-8.6.9-.9.7-1.8 2.8-2.5 3.8-1.3 2-2.7 4-4 5.9-17.7 25-41.5 45-69.1 58.2-16.9 8.2-34.9 14-53.1 18.5-2 .5-1.2 3.4.7 3z"/><path d="M272.8-3.2C350.3-7.3 381-11 394.7 45c13.1 53.3 7.3 137.4-20.8 180.3 20.1 3.3 51.7 3.1 72-4 9-4.5 15.8-5 22.5-12.5-18 9.8-51.3 11.7-72.5 8 25.9-41.8 31-130 19-182-12.6-54.7-40.9-51-112.1-47" fill="#f6fbfb"/><path d="M531.2 379.1c-1.4-.1-4.8 0-6.3-.1a3.08 3.08 0 0 1-1.3-.3c-.5-.4-.8-1-.9-1.6-5.1-15.9-10.3-39.4-15.4-55.2l26.2-1.2 7.2 33c.3 1.2.5 2.5.5 3.8a13.67 13.67 0 0 1-.9 4c-1.5 4.4-3.2 8.7-5.2 12.8-1 2.2-2.7 4.6-4.8 3.7l-14.4-57.1" class="T"/><path d="M531.2 376.6c-1.4 0-4.5.5-5.7-.1s-1.9-5.3-2.4-6.9l-4.4-16c-2.8-10.8-5.5-21.7-8.9-32.4l-2.4 3.2 26.2-1.2-2.4-1.8 6 27.4c1.1 5 2 8.8.3 13.7-.6 1.7-4.1 13.4-6.3 13.1l1.8 1.8-14.4-57.1c-.8-3.1-5.6-1.8-4.8 1.3l14.4 57.1c.2.9.9 1.5 1.8 1.7 4.6.6 6.5-2.5 8.3-6.4 2.2-4.7 4.9-10 5.5-15.1.7-6-2-12.9-3.3-18.7l-4.4-20.1c-.3-1.1-1.3-1.8-2.4-1.8l-26.2 1.2c-1.4 0-2.5 1.2-2.5 2.6 0 .2 0 .4.1.6 4 12.8 7.1 25.8 10.6 38.7 1.5 5.6 2.5 12.3 5.1 17.5 2 3.9 6.8 2.9 10.5 3 3.2-.1 3.1-5.1-.1-5.3h0z" class="P"/><path d="M626.2 191.1c-37.3-3.6-75-5.9-112.2-3.4-2.5 0-5.1.5-7.4 1.5-5.9 2.8-8.6 10.3-10.6 17.1 41.8-7.3 74.9-8.4 117.1-4.5 4.4-3.4 10.5-7 13.1-10.7" class="Q"/><path d="M626.2 189.3c-26.8-2.6-53.8-4.5-80.8-4.4-6.6 0-13.1.1-19.7.4-5.5.2-11.4 0-16.8 1.2-9.1 2.1-12.4 11.4-14.8 19.3-.3 1 .4 2 1.4 2.3.3.1.6.1.9 0 23.4-4.2 47.1-6.4 70.9-6.6a488.4 488.4 0 0 1 34.2 1.2c3.2.2 6.4.6 9.5.8 2.8.2 3.1-.3 5.5-1.9 3.9-2.7 8-5.3 11-9.1 1.5-1.9-1.2-4.6-2.7-2.6-2.8 3.5-8.3 8.6-12.7 9.6-2.7.6-6-.2-8.8-.4l-8.4-.6c-11.3-.7-22.5-1-33.8-.8-22.1.6-44.1 2.8-65.8 6.7l2.3 2.3c1.4-4.5 2.8-9.6 6.1-13.1 4.1-4.5 10.5-4.1 16.1-4.4 11.8-.6 23.6-.8 35.4-.6 23.7.3 47.3 2.1 70.9 4.4 2.5.2 2.5-3.5.1-3.7h0z" class="P"/><path d="M612.3 201.8c8.1 37.8 11.5 74.5 19.5 112.3-50.5 7.5-92.6 4.3-143.4 8-4.7-17.9-2.1 3.7.4-60.1.7-17.4 6.2-32.6 7.3-53" class="R"/><path d="M610.5 202.3c7.9 37.2 11.7 75.1 19.6 112.3l1.3-2.3c-47.4 6.9-95.3 4.6-142.9 8l1.8 1.4c-.7-2.8-2.2-6.7-2.5-9-.4-3.5.4-7.4.7-10.9 1.1-13.2 1.6-26.4 2.2-39.6.9-17.9 6.2-35.1 7.3-53 .1-2.4-3.6-2.4-3.8 0-.9 14.5-4.5 28.5-6.4 42.9-1.6 12.5-1.5 25.2-2.3 37.8l-1.4 18c-.3 2-.3 4.1 0 6.1.5 3 1.7 5.9 2.4 8.8.2.8 1 1.4 1.8 1.4 48-3.4 96.2-1.2 143.9-8.1 1-.3 1.6-1.3 1.3-2.3-7.9-37.2-11.7-75.1-19.6-112.3-.3-2.5-3.9-1.5-3.4.8h0z" class="P"/><path d="M626.2 191.1c7.2 30.2 10.5 58.4 17.7 88.7.6 2.1.9 4.3.8 6.5-.3 2.1-1 4.2-2 6.1l-10.1 22-16.8-113.1" class="Q"/><path d="M624.4 191.6c4.8 20.2 8.1 40.7 11.9 61.2 1.9 10.1 5.2 20.3 6.3 30.5.7 5.6-2.8 10.8-5 15.8l-6.6 14.4 3.4.4-14.7-99-2.1-14.1c-.3-2.4-4-1.4-3.6 1l14.7 99 2.1 14.1c.2 1.6 2.8 1.9 3.4.5l7-15.2c1.8-4 4.4-8.2 5.1-12.5s-.8-8.8-1.8-13.1a520.14 520.14 0 0 1-3.6-17.1c-4.4-22.3-7.8-44.7-13-66.8-.3-2.4-3.9-1.4-3.5.9h0z" class="P"/><path d="M633 175c4.5-4.9 9.1-10.1 10.6-16.7.6-3.6.7-7.3.3-10.9-1.2-17.4 0-29.6-2.6-46.8-16.8-1.3-37.7.3-54.6 1.1 0 0-6.3 3.6-8.1 8.8" class="Q"/><path d="M634.3 176.3c3.8-4.2 7.7-8.6 9.9-13.9 2.7-6.6 1.6-13.8 1.2-20.7-.6-13.9-.4-27.8-2.3-41.7-.2-.8-1-1.4-1.8-1.4-14.3-1-28.7-.3-43 .5-4.1.2-9.8-.6-13.4 1.4a19.35 19.35 0 0 0-8.1 9.3c-.9 2.2 2.7 3.2 3.6 1 1.3-3.2 4.5-6.8 7.9-7.5 5.6-1.1 12.1-.7 17.8-1 11.7-.6 23.5-1 35.2-.1l-1.8-1.4c1.8 12.3 1.7 24.7 2.1 37.1.2 6.4 1.6 13.4.2 19.6s-5.9 11.3-10.1 15.9c-1.6 2 1 4.7 2.6 2.9h0z" class="P"/><path d="M564.9 171.7c-.1-.4.2-.7.5-.8h.2c0 4.8.1 9.7.4 14.5.2 3.6-2.4 6.7-6 7.1-1.5.1-3.1.2-4.6.1-2.5-.1-5.3-.7-6.5-2.9a10.24 10.24 0 0 1-.8-3c-.6-5.3-.5-10.6.2-15.8.4.3.7.8.8 1.3" class="R"/><path d="M566.7 172.2l.2-.6-1.3 1.3.5-.2-2.4-1.8c0 3.8.1 7.5.2 11.3.2 5.5-.8 8.6-7 8.6-1.4.1-2.9 0-4.3-.5-3.4-1.6-2.9-5.3-3-8.3-.1-3.7.1-7.4.5-11.1l-3.2 1.3.4.5c.9 2.2 4.5 1.3 3.6-1-.3-.8-.7-1.5-1.3-2.1-1.2-1.3-3-.2-3.2 1.3-.7 5.6-1.9 13.9.7 19.3 1.8 3.7 6.1 4.3 9.9 4.3 4.2 0 8.3-1 10.2-5.2 1-2.3.7-4.7.6-7.1-.2-3.8-.2-7.5-.2-11.3a1.97 1.97 0 0 0-1.9-1.9c-.2 0-.3 0-.5.1-1 .2-1.8 1.1-2 2.1-.8 2.3 2.8 3.3 3.5 1h0z" class="P"/><path d="M559.9 209.6c6 .4 8.5 3.9 10.3 7.4s.8 8.4-1.4 11.6-6 4.5-9.6 4.6c-2.1.2-4.2-.2-6.2-1-5-2.3-7.9-9.3-6.2-15.1s7-7.8 13.1-7.5z" class="T"/><path d="M559.9 211.5c4.8.5 9.1 4.3 9.3 9.3.3 7.1-6.2 11.5-12.9 10.3-5.7-1.1-9.1-6.9-7.9-12.5s6.3-7.2 11.5-7.1c2.4.1 2.4-3.7 0-3.8-7.2-.1-14 2.9-15.2 10.6-1.3 8 4 15.9 12.2 16.6 8.5.8 15.8-4.7 16.1-13.5.2-7.6-6-13-13-13.8-2.5-.1-2.5 3.7-.1 3.9z" class="P"/><path d="M559.7 214.7c3.4.2 4.8 2.2 5.8 4.2s.4 4.8-.8 6.6c-1.3 1.7-3.3 2.6-5.4 2.6-1.2.1-2.4-.1-3.5-.6-2.9-1.3-4.5-5.3-3.5-8.5s4-4.4 7.4-4.3z" class="Q"/><path d="M541.1 112.5l-53 1.5c-2.1 21.7-2.1 43.5 0 65.1 0 1.1.4 2.1 1.1 2.9 1 .7 2.2 1 3.5.8 47-.8 89-.6 135.6-6.4 5.3-.7 4.5-14.1 4.5-16.3-.2-19.3-1.6-31-2.9-50.2l-50.9 1.8" class="R"/><g class="P"><path d="M541.1 110.7l-53 1.5c-1 0-1.8.9-1.9 1.9-1.1 11.2-1.6 22.3-1.6 33.5 0 10.5 0 21.6 1.7 32.1 1.3 7.9 12.2 5 18 4.9l32.2-.5c21.1-.4 42.2-1.1 63.2-2.8l15.2-1.4c4.5-.5 10-.3 14.3-1.7s5.1-6.8 5.5-10.8c1.5-18.9-1.5-38.6-2.8-57.4 0-1-.8-1.9-1.9-1.9l-50.9 1.8c-2.4.1-2.4 3.8 0 3.8l50.9-1.8-2-1.9c1.2 16.8 2.5 33.6 2.9 50.4.1 3.7 1 9.9-1.5 13-2.1 2.7-9.5 2.2-12.7 2.6l-15.2 1.4c-17.9 1.5-35.9 2.2-53.9 2.7l-28.1.5-13.4.2c-3.9.1-11.5 1.5-14.9-.4-1.9-1.1-1.4-2.1-1.6-4.2-.1-1.6-.3-3.3-.4-4.9l-.5-7.9c-.3-5.3-.4-10.5-.4-15.8 0-11.2.5-22.4 1.6-33.6l-1.9 1.9 53-1.5c2.6 0 2.6-3.8.1-3.7h0zm32.3 3.2c-2-3.9 3.3-8.2 5.6-10.6 2.5-2.5 5.2-4.8 8-7 1.9-1.5-.8-4.1-2.7-2.7-5.7 4.4-18.6 13.6-14.2 22.1 1.2 2.2 4.5.3 3.3-1.8h0zm-8.8 1.6l3.1-18.4c.4-2.4-3.2-3.4-3.6-1l-3.1 18.4c-.4 2.3 3.2 3.3 3.6 1zm-8.4-.1c-.4-7.2.5-16.5-5.9-21.4-1.9-1.5-3.8 1.8-1.9 3.2 4.8 3.7 3.7 12.8 4 18.2.2 2.4 3.9 2.4 3.8 0h0z"/><path d="M544.5 115.2c-.4-8.7-5.2-16.7-12.7-21.2-2.1-1.2-4 2-1.9 3.2 6.4 3.8 10.5 10.5 10.9 17.9.2 2.5 3.9 2.5 3.7.1h0zm81.1 9.9a18.78 18.78 0 0 0-.6-5.8c-.3-1.1-.5-2.8-1.5-3.6s-2.3-.6-3.4-.7l-6.5-.4c-1.6-.1-1.6 2.4 0 2.5l3.6.2c1.1.1 3-.1 4 .3 1.9.7 1.8 5.8 1.7 7.5 0 .7.6 1.2 1.2 1.2s1.4-.5 1.5-1.2h0zM506.4 174c-3.1.2-6.1 0-9.1-.4l.9.9c-.7-2.3-1.1-4.7-1-7.1 0-.7-.6-1.2-1.2-1.2s-1.2.6-1.2 1.2c-.1 2.6.3 5.3 1.1 7.8.1.4.4.8.9.9 3.2.5 6.5.7 9.8.5 1.4-.2 1.4-2.7-.2-2.6h0z"/></g><path d="M537.8 103.4c-2.1 0-9.5-.2-11.5-.2-5.1 0-10.3-.2-15.3.7-8.1 1.6-15.3 6.1-22.3 10.6l52.5-1.9-3.4-9.2z" class="Q"/><g class="P"><path d="M537.8 101.5c-7.7 0-15.4-.8-23.1 0-10.1.9-18.7 6-27.1 11.3-1.5 1-1 3.6 1 3.5l52.5-1.9a1.97 1.97 0 0 0 1.9-1.9c0-.2 0-.3-.1-.5l-3.3-9.1c-.8-2.2-4.5-1.3-3.6 1l3.3 9.1 1.8-2.4-52.5 1.9.9 3.5c9.1-5.8 17.9-10.7 29-11.1 6.4-.2 12.8.2 19.2.2 1 0 1.9-.8 1.9-1.9.1-.8-.7-1.7-1.8-1.7zm26.2 77c-5.1 2.3-10.7 2.8-16.1 1.4-2.3-.6-3.3 3-1 3.6 6.4 1.6 13.1.9 19-1.8 2.1-.9.2-4.1-1.9-3.2h0z"/></g><path d="M619.6 244.3c-42.9 2.3-85.9 3.9-128.9 4.6l-1.5 18.2c44.1.6 88.3-3.1 132.4-3.1" class="S"/><g class="P"><path d="M619.6 241.8c-42.9 2.3-85.9 3.9-128.9 4.6-1.4 0-2.5 1.1-2.5 2.5l-1.5 18.2c0 1.4 1.1 2.5 2.5 2.5 44.2.6 88.3-3.1 132.4-3.1 3.2 0 3.2-5 0-5-44.2 0-88.2 3.6-132.4 3.1l2.5 2.5 1.5-18.2-2.5 2.5c43-.7 85.9-2.3 128.9-4.6 3.2-.2 3.2-5.2 0-5zM513.8 208l-9 1c-1.4.2-2.8-.1-3.4 1.4-.4 1.4-.6 3-.5 4.5l-.1 6.5c0 .7.6 1.2 1.2 1.2s1.2-.6 1.2-1.2l.4-9.4c0-.2.1-.5.1-.7 0 0-.5.2 0 .4a10.9 10.9 0 0 0 2.6-.3l7.4-.8c1.7-.2 1.7-2.7.1-2.6h0zm95.1 9.2c.3-3.2-.6-6.4-1.2-9.5-.1-.4-.4-.8-.9-.9-1.5-.5-3.1-.7-4.7-.6-1.6.2-.9 2.6.7 2.4 1.1 0 2.3.2 3.3.6l-.9-.9c.5 3 1.4 5.8 1.1 8.9 0 1.6 2.5 1.6 2.6 0h0zm10.1 77.1c-.6 3.8-.8 7.6-.8 11.5 0 .7.6 1.2 1.2 1.2s1.2-.6 1.2-1.2c-.1-3.6.2-7.2.7-10.8.3-1.6-2.1-2.2-2.3-.7zm-5.3 4.8c-.7 2.4-1.3 4.9-1.7 7.4-.2 1.6 2.2 2.2 2.4.7.4-2.5.9-5 1.7-7.4.5-1.6-1.9-2.2-2.4-.7h0zm-5.6 1.4l-1.9 4.2c-.3.6-.1 1.4.5 1.7s1.4.1 1.7-.4l1.9-4.2c.3-.6.1-1.4-.5-1.7-.6-.4-1.3-.2-1.7.4zm-106.3 8.2l.2 3.3c.1 1.6 2.6 1.6 2.5 0l-.2-3.3c-.1-1.6-2.6-1.6-2.5 0z"/><path d="M503.1 310c.7 0 1.2-.6 1.2-1.2s-.6-1.2-1.2-1.2-1.2.6-1.2 1.2.5 1.2 1.2 1.2zM493 296.8l.2 15.7c0 .7.6 1.2 1.2 1.2s1.2-.6 1.2-1.2l-.2-15.7c0-.7-.6-1.2-1.2-1.2s-1.2.5-1.2 1.2zm4 8.3l.5 9.8c.1 1.6 2.6 1.6 2.5 0l-.5-9.8c-.1-1.6-2.6-1.6-2.5 0z"/></g><path d="M605.5 133.4c9.5 2.6 10.6 19.6 7.2 17.7-6.5-3.6-17.1-1.4-31.8 2.6-4.8 1.3-5.5-9.3-1.1-15.8s17.5-7.6 25.7-4.5z" class="T"/><g class="P"><path d="M604.8 135.8c3.2 1.1 5.1 3.9 6.2 7.1a13.67 13.67 0 0 1 .9 4c-.1.8-.1 1.7-.1 2.6-.3-.5 1.4-.1.6-1.1-.4-.5-1.8-.7-2.4-.8a17.4 17.4 0 0 0-4.5-.6c-3.9-.1-7.8.3-11.5 1.1a78.33 78.33 0 0 0-6.6 1.5c-1.3.3-6.3 2.4-7.4 1.8-2.8-1.4.4-9.8 1.5-11.5 4.5-7.1 16.5-6.4 23.3-4.1 3 1.1 4.3-3.8 1.3-4.8-9.7-3.4-24.9-2.6-29.9 8-1.9 4-3 9.7-1 13.9 2.7 5.7 8.9 2.4 13.5 1.3 6.6-1.6 14.7-3.9 21.4-1.5 2.7 1 5.1 1.6 6.4-1.8 2.7-7.4-3.4-17.6-10.4-19.9-3-1-4.3 3.8-1.3 4.8z"/><path d="M614.6 149c3.2.7 7.6 1.2 9-2.5.9-2.2-2.8-3.2-3.6-1-.1.2-1.2.3-1.5.3-1 0-1.9-.2-2.9-.4-2.4-.5-3.4 3.1-1 3.6h0zm1.4-5.6c3 0 5.8-1.5 7.6-3.9 1.3-2-1.9-3.9-3.2-1.9-1.1 1.3-2.7 2.1-4.3 2.1-2.5.1-2.6 3.9-.1 3.7h0zm-1.8-4.1c2.6-1.1 4.8-3 6.2-5.4 1.2-2.1-2.1-4-3.2-1.9-1.1 1.9-2.8 3.3-4.8 4.1-.9.5-1.2 1.7-.7 2.6.5.8 1.6 1.1 2.5.6z"/><path d="M613.6 145.3c-11.2-1.4-21.8-5.6-33.1-6.6-.8-.1-.8 1.2 0 1.2 11.3 1 21.9 5.2 33.1 6.6.8.1.8-1.1 0-1.2z"/><path d="M607.9 149.5c.6-5.4.1-10.6-.1-15.9 0-.3-.3-.6-.7-.6-.3 0-.5.2-.6.4l-.4 1.4c-.1.3.2.7.5.7.3.1.6-.1.7-.4l.4-1.4-1.2-.2c.2 5.4.7 10.6.1 15.9-.1.9 1.2.9 1.3.1h0zm-7.3-16.5c-.4 5.5-1 11-1.8 16.4-.1.8 1.1 1.1 1.2.3.8-5.6 1.4-11.1 1.8-16.8.1-.7-1.1-.7-1.2.1zm-7.8-.9c-.3 6.2-.4 12.3-1.2 18.4-.1.8 1.1.8 1.2 0 .8-6.1 1-12.2 1.2-18.4.1-.8-1.1-.8-1.2 0h0zm-8.6 3c-.2 6-.6 11.9-1.2 17.9-.1.8 1.2.8 1.2 0 .6-5.9 1-11.9 1.2-17.9 0-.8-1.2-.8-1.2 0z"/><path d="M614.3 141.1l-31.3-5.9c-.3-.1-.7.1-.7.5-.1.3.1.5.3.7l.8.6c.6.5 1.3-.6.6-1.1l-.8-.6-.5 1.1 31.3 5.9c.8.2 1.1-1 .3-1.2h0z"/><path d="M614 149c-11.8-2.1-23.5-4.3-35.1-6.9-.8-.2-1.1 1-.3 1.2a1086.83 1086.83 0 0 0 35.1 6.9c.8.2 1.1-1 .3-1.2zm-19.2 1.2c-.8-.1-3-1-3.6-.1-.2.3-.1.7.2.9s.6.3.9.3a.65.65 0 0 0 .6-.6c0-1.1-3.3-1.7-3.9-1.9-3.7-1.3-7.4-2.7-11.4-3.2-.8-.1-.8 1.2 0 1.2 4.1.5 8 2.1 11.8 3.4.5.2 1.6.8 2 .7.2-.1 1.8-.5.7-1-.5-.2-.3.9-.2 1.1.8.2 1.6.3 2.5.4.8.1 1.2-1.1.4-1.2h0zm-9.3 1.7l-8.4-2.9c-.8-.3-1.1 1-.3 1.2l8.4 2.9c.7.3 1-.9.3-1.2h0zm22.5-16.1c-6.6-.4-13.2-1.2-19.7-2.5-.8-.2-1.1 1-.3 1.2 6.6 1.3 13.3 2.2 20 2.6.7 0 .7-1.2 0-1.3h0z"/></g><path d="M611.2 319.3c-2.8 17.2-3.2 37.8-6 55-.3 1.7-5.5 1-7.6 1.1l-10.3-16.5c-.5-.7-.9-1.5-1.2-2.4-.2-1.2-.2-2.4 0-3.6 1.8-13.2 1.5-19.4 2.5-32.7" class="T"/><g class="P"><path d="M608.7 318.6c-1.6 10.2-2.4 20.5-3.3 30.8l-1.5 15.7c-.2 1.7 0 6.8-1.3 7.8-.9.6-3.8 0-5 0l2.2 1.2-8.2-13.2c-1.7-2.7-3-4.8-2.8-8 .1-2.5.6-5.1.9-7.6.8-8.3 1-16.7 1.6-25 .2-3.2-4.8-3.2-5 0l-1 17.1c-.4 5.7-1.7 11.7-1.7 17.5 0 5.3 4.7 10.3 7.3 14.5 1.4 2.2 3 6.4 5 7.9 1.2.9 2.5.7 4 .8 2.6 0 6 .3 7.5-2.4 1-1.9.9-4.9 1.2-7l1.1-9.4c1.3-13.1 2-26.2 4-39.2.5-3.1-4.3-4.5-4.8-1.3l-.2-.2z"/><path d="M599 374.9c1.1-19.2 3.5-38.4 4.8-57.6.2-2.4-3.6-2.4-3.8 0-1.3 19.2-3.6 38.3-4.8 57.6-.1 2.4 3.7 2.4 3.8 0z"/><path d="M601.9 329.3c-3.7-3.5-7-7.3-10-11.3-1.4-2-4.6-.1-3.2 1.9 3.2 4.3 6.8 8.4 10.7 12.1 1.5 1.6 4.2-1 2.5-2.7h0zm-73.5-8.3a109.68 109.68 0 0 0-8.4 12.9c-1.2 2.1 2.1 4 3.2 1.9a89.05 89.05 0 0 1 8.4-12.9c1.5-2-1.7-3.8-3.2-1.9zm47.8-254.4c-4.6.1-9.3-.4-13.8-1.3-1.5-.3-4.5-.5-5.7-1.5-3.8-3 1.2-2.2 2.7-2 2.4.3 2.4-3.5 0-3.8-2.9-.3-5.1-.7-7.2 1.6-1.5 1.5-1.6 4-.2 5.6 2 2.5 6.6 2.9 9.5 3.6 4.9 1 9.8 1.4 14.8 1.4 1-.1 1.8-1 1.7-2-.1-.9-.8-1.6-1.8-1.6h0z"/></g><path d="M577.3 68.3c1.4-.3 3.6-.7 4.6-1.7s.5-2.8-.5-3.7c-.5-.4-1.1-.6-1.7-.7l-4.8-1.1 2.4-5.4c1.4-3.1 2.8-6.7 1.5-9.9-1.2-2.9-4.6-4.5-7.8-4.2-3.1.5-6 2.1-7.9 4.7-2.9 3.6-4.3 8.3-3.8 12.9" fill="#e1262f"/><g class="P"><path d="M578 70.7c3.3-.7 7.6-2 6.9-6.3-.7-4.6-5.8-4.9-9.4-5.7l1.5 3.7c2.1-4.7 5.7-10.3 4.6-15.6-1-4.3-4.6-7.4-9-7.6-10.5-.9-16.5 11-16 20 .2 3.2 5.2 3.2 5 0-.3-5.4 1.7-12.2 7.3-14.4 4.5-1.7 8.2 1 7.4 6.2-.4 3-2.5 6.2-3.7 8.9-.7 1.2-.3 2.8 1 3.4.2.1.3.2.5.2 2.3.5 7.7 1.2 2.4 2.3-3.1.7-1.8 5.5 1.5 4.9h0zm-8.9-2.1c2.2 11.8 4.2 22.7.3 34.4-.5 1.5 1.9 2.2 2.4.7 4.1-12.1 2-23.5-.3-35.8-.3-1.6-2.7-.9-2.4.7zm-9.4-2.7c-2.9 3.1-5.1 6.9-7.8 10.3-2 2.3-3.9 4.8-5.5 7.4a20.81 20.81 0 0 0-2.7 8.3c0 1.6 2.5 8.1-.2 8.4-1.6.2-.9 2.6.7 2.4a3.83 3.83 0 0 0 3.4-3.4c.4-3.4-1.7-6.2-.8-9.8.9-3.9 3.2-7 5.6-10.1 3.1-3.8 5.7-8.3 9-11.8 1.1-1.1-.7-2.9-1.7-1.7h0zm31.9-18c2.3-2.1 5.5-2.9 8.6-2.3 2.3.5 3.4-3.1 1-3.6-4.4-1-8.9.3-12.2 3.3-1.8 1.5.8 4.2 2.6 2.6zm-1.7-9.4l9.5-9.2c1.7-1.7-.9-4.3-2.7-2.6l-9.5 9.2c-1.6 1.7 1 4.3 2.7 2.6zm-6.4-5l5.6-9.4c1.2-2.1-2-4-3.2-1.9l-5.6 9.4c-1.3 2.1 1.9 4 3.2 1.9z"/></g><path d="M511.9 135.9c-9.3 3.3-9.1 19.6-5.8 17.5 6.2-4 17-2.9 31.9-.3 4.9.8 4.7-9.3-.1-15.1s-18.1-5.7-26-2.1z" class="T"/><g class="P"><path d="M511.3 133.5c-6.8 2.8-12.1 12.5-9.1 19.8 1.6 4 4.3 2.4 7.2 1.2 6-2.4 13.5-1.2 19.6-.4 4.4.6 11.5 3.7 14.3-1.5 2.2-4.3.4-10.5-1.9-14.3-6.1-9.9-21.4-8.6-30.6-4.6-3 1.3-.4 5.6 2.5 4.3 6.4-2.8 18.6-4.3 23.4 2.2 1.2 1.6 1.9 3.5 2.3 5.4.6 2.9.4 4.6-2.9 4.5-4.3-.1-8.7-1.4-13-1.7-3.4-.4-6.9-.3-10.3.1-1.5.2-6.6.8-7.5 2.4-.4.8 1.1.4 1.4-.1s-.1-1-.1-1.4c.2-1.2.1-2.4.4-3.6.8-3.2 2.5-6.4 5.6-7.7 2.9-1 1.6-5.8-1.3-4.6z"/><path d="M502.9 148.1c-.9.3-4 1.5-4.6.3-1.1-2.1-4.3-.2-3.2 1.9 1.7 3.2 6.1 2.3 8.9 1.4 2.2-.7 1.3-4.4-1.1-3.6h0zm-.8-5.4c-1.8.2-3.6-.5-4.9-1.8-1.5-1.9-4.2.8-2.6 2.7 1.8 2.1 4.8 3 7.5 2.9 2.4-.1 2.4-3.9 0-3.8h0z"/><path d="M505 138.8c-1.9-.5-3.5-1.6-4.7-3.2-1.4-2-4.6-.1-3.2 1.9 1.7 2.4 4.2 4.1 7 4.9 2.2.7 3.2-2.9.9-3.6h0zm0 10.3c11.1-2.3 21.3-7.2 32.5-9.1.8-.1.5-1.3-.3-1.2-11.1 1.9-21.4 6.9-32.5 9.1-.8.1-.5 1.3.3 1.2h0z"/><path d="M512.2 151.1c-1-4.5-1.7-9.1-2-13.7l-.8.6h.1c.2.1.5 0 .6-.2s.8-.8.4-.9c.8.2 1.1-1 .3-1.2h-.1c-.2-.1-.5 0-.6.2s-.8.8-.4.9c-.3-.1-.7.1-.8.5v.2c.3 4.7.9 9.4 2 14.1.3.6 1.5.3 1.3-.5h0zm3.3-15.8c.8 5.3 1.8 10.4 3 15.6.2.8 1.4.5 1.2-.3-1.2-5.2-2.2-10.4-3-15.6-.2-.9-1.4-.5-1.2.3h0zm7.6-1.7c.7 5.9 1.4 11.7 2.7 17.6.2.8 1.4.4 1.2-.3-1.3-5.7-1.9-11.4-2.6-17.2-.1-.9-1.4-.9-1.3-.1h0zm8.9 2.1c.7 5.7 1.5 11.4 2.6 17 .2.8 1.3.4 1.2-.3-1-5.6-1.9-11.1-2.5-16.7-.1-.8-1.4-.8-1.3 0h0z"/><path d="M504.1 145.2l30.7-8.3-.6-1-.7.6c-.6.5.3 1.4.9.9l.7-.6c.5-.4 0-1.2-.6-1l-30.7 8.3c-.3.1-.5.4-.4.8 0 .3.3.5.7.3h0 0zm.9 7.4c11.6-3 23-6.2 34.5-9.6.3-.1.5-.4.4-.8-.1-.3-.4-.5-.8-.4a973.87 973.87 0 0 1-34.5 9.6c-.3.1-.5.4-.4.8.1.3.4.5.8.4h0zm19.2-.5c.4-.1 2.3-.3 2.6-.6 1-1.1-.9-1.2-.3-1l.3 1c1.6-1.3 4.6-2 6.5-2.8 2.7-1.2 5.4-2.1 8.2-2.7.8-.2.5-1.4-.3-1.2-3.5.8-6.8 2-10.1 3.5-1.7.7-3.8 1.2-5.2 2.4-.4.3-.1.9.3 1 .6.1 1.2-.2 1.4-.8 0-.4-.3-.6-.6-.6-1 .1-2 .3-3 .7-.3.1-.5.5-.4.8.1.1.4.2.6.3h0zm9.6.8l8.2-3.5c.7-.3.1-1.4-.6-1.1l-8.2 3.5c-.7.3-.1 1.4.6 1.1zm-24-13.3c6.6-.9 13.2-2.3 19.6-4.1.3-.1.5-.5.4-.8s-.4-.4-.7-.4c-6.4 1.8-13 3.2-19.6 4.1-.8.1-.5 1.3.3 1.2h0z"/></g><path d="M552.5 157.4c.2 4.2 1.2 8.4 3.1 12.2.8 1.5 2 3 3.2 2.7.9-.2 3.8-2 4.2-3.1 1.6-3.6.9-14.6.7-19.1-1.9 6.5-7.3 9.8-11.8 7.2" class="Q"/><path d="M550.6 157.4c.4 6 3.5 21.9 12.2 14.7 2.5-2.1 2.8-5 3-8.1.2-4.6.1-9.3-.2-13.9 0-1-.9-1.9-2-1.8-.8 0-1.5.6-1.7 1.3-1.3 3.8-4.5 8.3-9 6.1-2.2-1.1-4.1 2.2-1.9 3.2 6.9 3.3 12.4-2 14.6-8.3l-3.7-.5c.4 4.8.4 9.6.2 14.4-.2 2.4-1.6 7.8-4.8 4.1-2.2-2.5-2.7-8.2-2.9-11.2-.2-2.4-4-2.4-3.8 0h0z" class="P"/><path d="M494.9 205.9c-4.7 3.5-6.6 17.1-5.9 24.4s1.7 12.6 6.1 18.6c4.5 6.3 10.4 10 16.7 12.5s13 2.4 18-.9c4.1-2.6 7-7.1 9.4-11.9 1.9-3.8 2.4-8.6 2.9-13.3.4-3.7-.5-11.7-1.5-15.6-.9-3.4.6-2.5-2.8-4.4-2.7-1.5-7.3-.6-9.7.5.3 2.3.4 4.7.4 7-.2 3.8-.4 13.8-1.4 16.6-2.8 8.1-4.3 7.6-12.8 6.6a16.53 16.53 0 0 1-4.6-2.3c-1-.7-3.9-3.4-4.4-4.6-3.1-7.2-3.4-7.3-4.2-13.5-.1-.6-1.9-6.3-2.1-7-.3-.9-1.4-4.7-1.6-5.6-.9-3.7-2.2-4-2.5-7.1" class="S"/><path d="M494 205c-6.5 5.6-6.9 18.4-6.1 26.2 1.1 11.6 6.1 21.4 16.2 27.8 9.3 5.9 21.7 8.5 30.1-.3 8-8.4 10.3-20.4 9-31.6-.4-3.3-.3-8.7-2.5-11.3-3-3.6-9.2-2.5-12.8-1.1-.5.2-1 .6-.9 1.2.8 7 .6 14.2-.5 21.1-.5 3.1-1.7 7.5-5 8.3-3.6.9-8.5-.7-11.4-2.9-6.1-4.7-6.3-12.3-8.2-19l-2.5-8.4c-.9-3.2-2.6-6.4-3.2-9.6-.3-1.6-2.7-.9-2.4.7.5 3.1 2.1 5.9 3 9l2.4 7.9c1.7 5.8 2.1 11.8 5.4 17.1 4.6 7.6 18.7 12 22.9 2.2 2.4-5.5 2.1-11.9 2.3-17.8.1-1.9.1-3.8 0-5.7-.2-2.6-.9-2.3.9-2.6 2.2-.4 5.8-1 7.6.8 1 1 1.1 2.6 1.4 4 1.9 8.9 2.3 19.3-1.9 27.6-2.2 4.5-5.3 9.1-9.9 11.5-5.8 3-12.5 1.6-18.1-1.1-11.3-5.4-18-14.9-19.4-27.3-.8-7.4-.8-19.9 5.3-25.2 1.3-.8-.5-2.6-1.7-1.5h0z" class="P"/><path d="M534.8 210.7c-3.4-10.4-7.8-6-11.4-15-.8-2.1 2.6-4.7 4.5-4.8 1.3-.1 4.6 1.9 5.4 2.9 4.2 5.2 3 10.4 1.5 16.9.5-6 3-13.1 8-16.6 1.6-1.1 5.5-1.8 6 .7 3.3 9.3-10 10.2-14 15.9" class="S"/><path d="M536 210.4c-1-2.7-2.1-5.3-4.2-7.3-1.5-1.4-3.4-2.2-4.8-3.8-1.9-2.1-2.9-7.2 1.4-7.1 1.6 0 4.1 2.5 4.8 3.5 3 4.4 1.5 9.9.4 14.6l2.5.3c.3-4.4 1.8-8.6 4.2-12.2 1-1.5 3.8-4.8 6-4.2 3.1.9 1.7 5.2.4 6.7-3.4 3.9-9.3 4.7-12.6 8.8-1 1.2.8 3 1.8 1.8 3.2-4 8.7-5 12.3-8.5 2.4-2.3 3.8-6.7 1.5-9.7s-6.4-1.3-8.7.6c-4.8 4.1-6.7 10.7-7.3 16.7-.2 1.4 2.1 1.7 2.5.3 1.3-5.5 2.6-11.5-.7-16.6-1.8-2.8-5.6-5.6-8.9-4.5-4.5 1.5-4.9 5.4-2.8 9 1 1.6 2.3 3 3.8 4.1 2.9 1.9 5 4.7 6.1 8 .4 1.7 2.9 1 2.3-.5h0z" class="P"/><path d="M530.1 211.2c-2.1-3-5.2-8.2-8.5-9.8-1.1-.4-2.3-.4-3.4-.2-1.2.5-2.3 1.3-3.1 2.4-.5.9-.6 2-.5 3 .3 1.2 1.4 2.2 2.6 2.3 4.5 0 6.7-2.6 12.9 2.3" class="R"/><path d="M531.2 210.5c-2.4-3.4-5-8.7-9.1-10.3-3.1-1.2-6.6.1-8.2 3-1.4 2.8 0 6.6 3.4 6.9 1.7.1 3.5-.6 5.2-.7 2.7-.2 4.9 1.2 7 2.8 1.3 1 2.5-1.2 1.3-2.2-2-1.5-4.2-2.9-6.9-3.1-2-.2-4 .8-6 .6-3.1-.2-2.2-3.6-.2-4.8 1.7-.9 3.7-.6 5 .8 2.7 2.2 4.4 5.4 6.4 8.2.8 1.4 3 .2 2.1-1.2h0z" class="P"/><path d="M538.3 212.3c1.9-3.2 7.3-8.2 11-7.8 1.5.2 3 .8 4.2 1.7.9.9 1.2 3.3.8 4.5-.5 1.2-1.6 2-2.9 2.4-2.7.9-3.9-.1-6.6-.8a35.28 35.28 0 0 0-6.5 0" class="R"/><g class="P"><path d="M539.4 212.9c1.6-2.6 3.8-4.7 6.5-6.2 1.2-.8 2.7-1.1 4.2-.8 2.2.5 3.9 2.2 2.6 4.5-1.9 3.3-5.8.8-8.6.5-1.9-.2-3.8-.1-5.7.1-1.6.2-1.6 2.7 0 2.5 1.7-.2 3.5-.2 5.2-.1 2.2.2 4.1 1.3 6.3 1.2 4-.2 6.7-3.3 5.6-7.3-.9-3.3-5.3-4.6-8.4-3.8-4 1.1-7.6 4.7-9.8 8.1-.9 1.4 1.3 2.7 2.1 1.3h0zm.3 16.1c-3.1 2.9-7.9 1.8-10.6-1-1.1-1.2-2.9.6-1.8 1.8 3.6 3.9 10.1 4.8 14.1 1 1.3-1.2-.5-2.9-1.7-1.8h0zm-1.6 15.8c-3.2 2.9-8.1 1.9-10.6-1.4-1-1.3-3.1 0-2.2 1.3 3.5 4.6 10.1 5.9 14.5 1.9 1.2-1.1-.5-2.9-1.7-1.8h0zm-23.1 2.1c-3.2 4.6-2 12.4 2.2 15.9 1.2 1 3-.7 1.8-1.8-3.4-2.9-4.4-9.1-1.8-12.9.9-1.3-1.3-2.5-2.2-1.2h0zm-10.4-7.8c-6.1 2.1-7.6 11-5.4 16.2.6 1.5 2.8.2 2.2-1.3-1.6-3.7-.5-11 3.9-12.5 1.5-.5.9-2.9-.7-2.4zm-3.4-13.8c-4.4-.8-8.9.3-12.3 3.2-1.2 1 .5 2.8 1.8 1.8 2.7-2.2 6.3-3.2 9.8-2.5 1.6.2 2.3-2.3.7-2.5z"/></g><path d="M577.9 206.4c.1-7.1 4.8-11.1 4-17.9-.2-1.2-3.1-2.8-4.3-2.7-1.4.3-2.6 1.1-3.2 2.4-2 5.6.6 13.5 3.5 18.2-2-4.7-6.7-11-11.5-11.9-1.5-.3-3.8 1.3-4.6 2.9-2.6 6 9.5 7.3 16.1 9" class="S"/><path d="M579.2 206.4c.2-4.9 9.7-21.6-1.3-21.8-4.2-.1-5.3 4.3-5.4 7.6-.1 5.2 1.8 10.5 4.4 14.9.4.6 1.2.7 1.7.3s.7-1 .4-1.6c-2.1-4.5-5.4-9.5-10.1-11.7-3.3-1.6-7.2-.4-8.5 3.3-2.7 7.9 12.8 9.3 17.1 10.3 1.6.4 2.2-2 .7-2.4-4.1-.9-11.3-1.2-14.3-4.3-1.4-1.4-2-3.2.5-4.6s5 .8 6.7 2.4c2.4 2.4 4.4 5.3 5.8 8.4l2.2-1.3c-1.8-3-3.1-6.2-3.8-9.7-.3-1.5-.4-3-.3-4.6.2-3.5 4.7-5.9 5.8-1.8.7 2.4-1.2 6-2.1 8.3-1.1 2.7-1.8 5.5-2 8.4-.1 1.5 2.4 1.5 2.5-.1h0z" class="P"/><path d="M623.5 200.4c6.1 3 11.1 13.5 11.9 21s.5 11.4-3.2 17.9c-3.8 6.9-9.5 12.6-16.1 15.9-6.7 3.3-14.4 3.8-20.9 1.1-5.3-2.2-7.4-3.6-10.8-8.5-1.6-2.3-5.4-10.3-7-14.9-1.4-4.3-1.9-8.9-1.7-13.4.3-3.5-.5-4.4 2.9-6.6 2.7-1.8 4.5-2.5 7.4-1.7.1 0 .1.1.1.1.6 1.2 1 2.4 1.3 3.6 1.1 3.8 2.6 10.6 3.6 13.7 3.2 9.8 11.5 14.1 21.1 12.2 1.1-.2 3.8-2 4.7-2.8 1.6-1.5 3-3.2 4.1-5.1 3.5-8.1.5-15.9-3.6-23.2-.4-.6-.6-1.2-.6-1.9.2-.9.8-1.7 1.7-2.2 1.6-1.3 3.5-3.9 5.1-5.2" class="S"/><path d="M622.9 201.5c7.2 4 10.8 13.7 11.5 21.5.8 9.4-3 17.5-9.5 24.1-7.1 7.4-17.7 11.8-27.8 8.5-8-2.6-12-8.4-15.4-15.7-3.1-6.7-6.7-15.8-4.6-23.3.6-2 3.3-4 5.5-4.5 3.2-.8 3 .6 3.7 3 1.1 3.6 1.8 7.4 2.8 11.1 2.9 10.4 13.4 20.6 25 15 5.5-2.8 9.2-8.3 9.5-14.4.2-4.2-.7-8.4-2.5-12.2-1.1-2.6-3.7-5.4-1.9-8.2 1.1-1.7 3.7-3.7 5.2-5 1.2-1.1-.6-2.8-1.8-1.8-1.9 1.7-7 5.3-7.2 8.1.1.9.3 1.8.8 2.6 1.5 3.7 3.7 6.9 4.5 11 2.4 11.5-6.7 21.9-18.5 17.9-10.4-3.6-11-15.6-13.6-24.5-.4-1.3-.7-3.6-2-4.5-2.5-1.7-6.6.2-8.7 1.7-5.5 3.8-3.9 12.3-2.8 18 1.6 7.3 4.7 14.2 9.2 20.2 11.7 15.2 33.5 9.8 44.3-3.3 6.5-7.9 9.4-16.3 7.8-26.4-1.2-7.8-5.2-16.9-12.4-20.8-1.2-1-2.5 1.2-1.1 1.9h0z" class="P"/><path d="M583 205.7c1.4-2.8 3.6-5.1 6.3-6.6 2.5-1.4 5-1.7 5.9-4.4.5-1.1.4-2.4-.2-3.5-.9-1.3-2.7-2.4-4.2-1.9-1.6.6-3 1.5-4.1 2.7-3.1 3.4-2.8 9.1-3.7 13.7" class="R"/><path d="M584.1 206.3c1.3-2.6 3.3-4.8 5.9-6.2 1.8-1 4-1.5 5.4-3.1 2.1-2.2 1.9-5.7-.3-7.8-.1-.1-.3-.2-.4-.4-3.2-2.3-7.2.2-9.3 2.9-2.9 3.8-2.7 9-3.5 13.6-.3 1.6 2.2 2.2 2.4.7.5-2.9.5-5.9 1.3-8.7.4-1.8 1.2-3.5 2.5-4.8.7-.7 1.5-1.3 2.5-1.7 2.1-.6 5.1.9 3.4 4-1.2 2.2-4.9 2.8-6.8 4.2-2.2 1.6-3.9 3.6-5.2 6-.8 1.5 1.4 2.7 2.1 1.3h0z" class="P"/><path d="M575.3 209.9c-1.7-1.3-10.9-3.2-14.2-2-2 .7-3.1 2.5-4.2 4.3-.5.7 0 3.3.6 3.7.8.5 2.3 2.1 3.2 1.9 4.2-.8 7-7.5 14.6-7.9" class="R"/><g class="P"><path d="M575.9 208.8c-3.2-2.1-8.5-2.7-12.2-2.6s-8.2 3-8.2 7.1c0 3.2 3.3 6.3 6.5 5.3 1.7-.5 3.1-1.9 4.5-3.1 2.7-2.3 5.2-4.1 8.9-4.5 1.6-.1 1.6-2.6 0-2.5-3 .2-6 1.4-8.4 3.3-2.1 1.6-5.3 6.1-8 3.4-1.8-1.8-.5-4 1.3-5.4 1.6-1.2 3.2-1.3 5.1-1.2 2.9.1 6.9.5 9.4 2.2 1.2 1.1 2.4-1.1 1.1-2h0zm54.8 4.4l.2.2-.3-1.2c-.6 1.9-1.3 3.1-3.4 3.6-2.1.3-4.2.2-6.2-.4-.7-.2-1.4.2-1.5.9s.2 1.4.9 1.5h0c3 .8 6.7 1.3 9.5-.3 1.7-.9 4.3-4.2 2.7-6-1.2-1.3-3 .5-1.9 1.7h0zm4 14.2c-3.2 4.5-7.3 6.5-12 2.6-1.2-1-3 .7-1.8 1.8 2.4 2 5.2 3.5 8.4 2.8s5.6-3.3 7.5-6c1-1.3-1.2-2.6-2.1-1.2h0zm-16 23.8c-4.3-1.3-8.2-5.2-5.5-9.8.3-.6.1-1.4-.5-1.7s-1.4-.1-1.7.4h0c-3.6 6 1.1 11.7 7 13.4.7.2 1.4-.2 1.5-.9s-.1-1.3-.8-1.4h0zm-21.1-13.7c-6.6 3.5-9.5 13.1-4.8 19 1 1.3 2.8-.5 1.8-1.8-3.7-4.7-.7-12.4 4.3-15.1 1.4-.7.2-2.9-1.3-2.1h0zm-7.3-12.4c-5.1-.5-9.9 2.4-12 7-.6 1.5 1.5 2.7 2.2 1.3 1.6-3.9 5.6-6.2 9.8-5.8 1.5.1 1.5-2.4 0-2.5h0zM573.7 54.4c1.3-1.9 1.9-4.2 1.6-6.5-.3-1.5-1.4-3.9-3.2-2.5-1.2 1 .5 2.8 1.8 1.8l.1-.1-1.2.3c-.2-.1.1 1.4.1 1.3 0 .5 0 1.1-.1 1.6a13.9 13.9 0 0 1-1.2 2.8c-.3.6-.1 1.4.5 1.7.4.5 1.2.3 1.6-.4h0z"/></g><g class="R"><path d="M639.1 100.2l-6.3 5.7c-1.2 1.1.6 2.8 1.8 1.8l6.3-5.7c1.2-1.2-.6-2.9-1.8-1.8zm-16.6 92.1c-3 1.5-5.9 3.2-8.6 5.2-1.3 1 0 3.1 1.3 2.2 2.7-2 5.6-3.7 8.6-5.2 1.4-.8.1-2.9-1.3-2.2zm17.5-36.6c-1.4 2-3.1 3.9-4.9 5.5-1.2 1.1.6 2.8 1.8 1.8 2-1.8 3.8-3.8 5.3-6 .9-1.4-1.3-2.6-2.2-1.3h0zm.7 128.2c-2.4 4.4-5.1 8.5-8.1 12.5-1 1.3.8 3 1.8 1.8 3.2-4.1 6-8.4 8.5-13 .7-1.5-1.4-2.7-2.2-1.3h0zm-1-9.3c-2 2.2-3.8 4.6-5.3 7.2-.3.6-.1 1.4.5 1.7s1.4.1 1.7-.4c1.4-2.4 3.1-4.6 4.9-6.7 1.1-1.2-.7-3-1.8-1.8h0z"/></g><path d="M29.2 249.4L27.8 41.3c4-27 13.5-26.9 15.7-32.2-20.2 5.1-34.3 23.2-34.3 44v216.3c0 25.1 20.3 45.4 45.4 45.4h241.7c14.8-5.5 28.9-12.7 42-21.5l-263.7 1.5c-25.1 0-45.4-20.3-45.4-45.4z" class="S"/><path d="M261.5 327.9c27.1-6.8 53.7-16.5 77.1-32 21.9-14.6 39.8-33.9 53.8-56l-2 1.1c29.3-.7 59.6-8.2 80-30.7.9-.9.8-2.3-.1-3.2-.7-.7-1.8-.8-2.6-.3-10.6 5.6-22.9 7.8-34.6 8.8-12 1.2-24.2.8-36.1-1.1l1.4 3.3c16.4-26.9 21.7-60.4 24.2-91.2 2.6-32.2 2.1-66.4-6.4-97.8-2.9-10.8-7.1-21.7-14.7-29.9-6.4-6.9-14.9-11-24-13.1-24.4-5.6-50-.9-74.6-.4-26.7.6-53.4.2-80.2.3l-140.2.6-57 .2c-9.8 0-19.6-.3-29.4.1h-1.4c-1.2 0-2.2 1-2.3 2.2l-.8 114.4-1.3 181.1-.3 41.5a2.22 2.22 0 0 0 2.2 2.2h268.5c2.9 0 2.9-4.5 0-4.5H-7.7l2.2 2.2.8-114.4 1.3-181.1.4-41.5L-5.2-9 64-9.2l136.5-.4 97.2-.3c17.4-.1 34.7-2 52.1-2 21.2 0 43.2 2.6 54.5 22.8 6.4 11.4 9.2 24.8 11.3 37.6 2.5 16.4 3.7 32.9 3.5 49.5-.1 33.2-3.7 67.9-15.8 99.1-2.5 6.4-5.5 12.7-9.1 18.6-.6 1.1-.2 2.5.8 3.1.2.1.3.2.5.2 12.8 2.1 25.9 2.4 38.8 1.1 12.1-1.2 24.5-3.6 35.4-9.3l-2.7-3.5c-11.4 12.6-26.4 20.6-42.7 24.9-8.8 2.3-17.7 3.7-26.7 4.2-2.7.2-7-.7-9.2 1.2-2.6 2.2-4.5 7-6.6 9.8-17.7 24.9-41.4 44.8-68.9 57.9-16.9 8.1-34.8 13.9-52.9 18.5-2.5.5-1.3 4.8 1.5 4.1z"/></g><path d="M624.1 312.6H79.3c-15.8 0-33.7 2.1-47.6-6.6-12.5-7.9-20.2-21.7-20.3-36.6v-5.7V64.2c0-12.4 0-24.1 7.3-35 8.7-13 23-19.2 38.2-19.2h527.7 39.1c23.9.1 43.2 19.3 43.5 43.2v21.5 111.8 82c-.1 24.1-18.9 43.7-43.1 44.1-2.9 0-2.9 4.5 0 4.5 26.2-.3 47.4-21.5 47.6-47.7v-23.7-115.4-77c-.3-25.8-21-47.2-47-47.7-3.2-.1-6.3 0-9.5 0H56.7C42 5.5 28 10.8 18.3 22.3 8.8 33.5 6.9 46.5 6.9 60.5v202c0 14.5 2.3 28.1 12.6 39.3 9.8 10.6 23.2 15.4 37.3 15.4H624c3-.1 3-4.6.1-4.6z"/><path d="M452.4 25.7c-9.6 6.9-17 19.1-15 31.3 2.1 13.1 15.7 14.7 25.7 8.9 4.2-2.5 9-6.6 7.9-12s-6.5-6-11.1-4.5c-9.8 3.2-19.7 16.8-13.8 27.1s23.4 7.6 27.2-3c.2-.7-.1-1.4-.7-1.7-8.7-3.8-19.1.9-20.3 10.8s7.7 17 17.1 15.3c1.9-.3 1.1-3.2-.8-2.9-7.3 1.3-14.2-4.4-13.3-12s8.9-11.6 15.7-8.6l-.7-1.7c-4.3 12-25.3 8.3-22.6-5.6a19.84 19.84 0 0 1 7.8-12.1c1.8-1.3 4.1-2.9 6.4-3.1 1.2-.4 2.5 0 3.3 1 2.5.1 3.3 1.2 2.3 3.3-.5 2.9-1.9 4.3-4.3 6-9 6.3-22.5 5.6-23.2-7.7-.6-10.3 5.6-20.4 13.8-26.2 1.6-1.2.1-3.8-1.4-2.6h0z" fill="#e1262f"/><path d="M506.2 29.8c-1.4.7-1.3 3 0 3.9a3.25 3.25 0 0 0 4.2-.9 3.67 3.67 0 0 0-.1-4.9c-1.3-1.2-3.9-.9-4.5.8" class="U"/><path d="M505.5 28.5c-1.8 1.2-2.3 3.6-1.1 5.4.2.3.4.5.6.7 2.1 1.9 5.5.8 7-1.4s1.1-5.6-1.3-7c-2.1-1.2-4.8-.6-6.1 1.5l-.1.1c-.8 1.7 1.8 3.3 2.6 1.5.3-.7 1.1-1 1.9-.7h.1c.8.6 1.1 1.7.6 2.5-.3.8-1.5 1.7-2.5 1.3-.5-.2-.8-1.1-.2-1.4.7-.4 1-1.3.5-2.1s-1.3-.8-2-.4h0 0z" class="Q"/><path d="M495.2 78.9l4-8.7c.1-.2.2-.5.5-.6.3 0 .5.1.7.3l2.1 1.8c.3.2.5.5.6.8 0 .2 0 .5-.1.7l-3.2 8.5c-1.3.3-2.7.1-3.9-.5" class="V"/><path d="M496.5 79.7l2.4-5.2 1.2-2.6c.5-1 .6-1.1.2-.6-.4.4-.3.7.5.9.8.8.9.2.5 1.5l-1 2.6-1.9 5.1 1.5-1.1c-1 .2-2.1 0-3.1-.4-1.7-.8-3.3 1.8-1.5 2.6 1.4.7 3 1 4.6.8.7 0 1.3-.4 1.5-1.1 1-2.8 2.5-5.6 3.2-8.5.6-2.3-1.4-3.7-3.1-4.9-.9-.8-2.2-.7-3 .1a1.38 1.38 0 0 0-.3.4c-1.7 2.5-2.8 6-4 8.8-1.1 1.9 1.5 3.4 2.3 1.6h0z" class="Q"/><path d="M529.8 57.9l1-5.1 5.4 3.6c.4.2.6.5.8.9.1.4.1.7 0 1.1l-.7 3.6-7.4-4 .6.6" class="V"/><path d="M531.3 58.3l1-5.1-2.2.9c1.6.9 3.1 1.9 4.6 3 .9.6.9.7.7 1.7l-.5 2.7 2.2-.9-7.4-4c-.7-.4-1.6-.2-2.1.5-.3.6-.3 1.3.2 1.8l.6.6c1.3 1.5 3.4-.7 2.1-2.1l-.6-.6-1.8 2.4 7.4 4c.7.4 1.7.2 2.1-.6.1-.1.1-.2.1-.3.4-1.9 1.6-4.8.2-6.5s-4.3-3.1-6.3-4.3c-.7-.4-1.6-.2-2.1.5-.1.1-.1.2-.1.4l-1 5.1c-.4 1.9 2.5 2.7 2.9.8h0z" class="Q"/><path d="M625.6 37.1c-7.2 7.3-2.1 21 8.8 19.4 4.5-.7 9-4 9.7-8.7.5-3.6-1.9-8-6.1-6.8-5.1 1.5-5.8 8.9-5 13.2 1.1 5.6 5.1 10.3 10.5 12.1 3.5 1.2 11.7 1.9 13.7-2.4 2.2-4.7-5.5-6.8-8.6-6.2-12.4 2.2-13.3 25.7.5 26 1.9 0 1.9-3 0-3-12.8-.2-6.2-23.4 1.8-20 3 1.3 1.8 3.2-1 3.4-1.6.2-3.3 0-4.9-.4-4-1.1-7.3-4.2-8.6-8.2-.6-1.6-.8-3.4-.7-5.1l.3-2.3c0-2.3 1-2.9 3-1.9 2.5-.3 3 .6 1.5 2.9l-1.1 1.6c-1.2 1.3-2.7 2.2-4.3 2.6-8.5 2.3-13.2-8.2-7.5-14 1.5-1.4-.6-3.5-2-2.2h0z" class="V"/><path d="M432.8 207.6c-.8-6.9 2.2-25.9 13.4-22.9 2.9.8 4.1 2.5 3.7 5.3l-5.1 2c-3.1-.4-3.7-6.8-3.6-9.1.4-4.2 2.3-8.1 5.3-11.1 2.6-2.6 5.8-4.5 9.4-5.3 7.8-1.6 8 8.1 1.6 6-11.5-3.8 4.2-20.1 7.8-24.3 1.2-1.5-.9-3.6-2.1-2.1-4.7 5.6-11.4 11.7-12.3 19.2-.6 4.8 1.5 9.1 6.4 10.2 3.5.7 7.6 0 8-4.1.4-4.4-2.6-8.5-7.1-8.3-11.5.4-22.4 13-19.6 24.5 1.1 4.6 5.6 9.9 10.8 7.4 3.7-1.7 4.5-6.8 2.4-10.1-3.4-5-10.6-3.9-14.6-.3-6.2 5.5-8.1 15-7.2 22.9 0 2 3 2 2.8.1h0z" class="R"/><path d="M445.8 143.7a74.29 74.29 0 0 0-7.3-6.4c-1.1-.9-2.3-1.9-2.4-3.2-.1-1.6 1.3-2.9 1.5-4.5l13.2 8.8c.3.1.5.4.6.6.1.3 0 .6-.1.9-.8 1.8-1.9 3.4-3.3 4.7l.6-.1" fill="#f8dad4"/><path d="M446.8 142.6l-6.5-5.7c-1.5-1.2-3-1.8-2.4-4.4.2-.9.8-1.7 1-2.6l-2.2.9 8.6 5.8c1 .7 3.4 1.7 3.8 2.9.5 1.4-1.5 3.1-2.4 4.1-.6.6-.5 1.6.1 2.1.4.3.9.5 1.4.4l.6-.1c1.9-.4 1.1-3.3-.8-2.9l-.6.1 1.5 2.5c1.8-1.8 5.3-5.5 3.2-8.1-1.4-1.8-4.3-3-6.2-4.3l-7.6-5.1c-.7-.4-1.6-.2-2.1.6-.1.1-.1.2-.1.3-.7 2.8-2.6 4.7-.6 7.5 1.1 1.5 2.9 2.6 4.4 3.8l4.8 4.4c1.4 1.3 3.5-.8 2.1-2.2h0z" class="Q"/><path d="M464.2 119.6a4.18 4.18 0 0 0 1.1 5.8c.7.5 1.5.7 2.4.7.4 0 .8-.1 1.2-.3.3-.2.6-.5.8-.8 1.2-1.7 1.2-4 0-5.7-1.3-1.6-3.7-1.8-5.2-.4l-.1.1" class="U"/><path d="M462.9 118.9c-1.6 2.5-1 5.8 1.3 7.7 2.3 1.8 5.6 1.6 7.1-1.2 1.4-2.4 1-5.5-1-7.5-2-1.7-5.1-1.7-7 .2-1.4 1.3.7 3.5 2.1 2.1.8-.7 1.9-.7 2.7-.1 1 .8 1.3 2.2.7 3.4-.2.6-.5 1.2-1.2 1.2-.6 0-1.3-.2-1.8-.7-1.1-.9-1.2-2.5-.4-3.7 1.1-1.5-1.5-3.1-2.5-1.4h0z" class="Q"/><path d="M651.2 204.6c-1.8-3.8-4.2-7.3-7-10.4-.2-.2-.3-.4-.4-.7 0-.2.2-.4.3-.6l1.5-1.6c.4-.6 1.1-.8 1.7-.4a.78.78 0 0 1 .4.4c2.7 2.2 5.3 4.7 7.5 7.4.5.5.8 1.1.9 1.7a2.98 2.98 0 0 1-1.2 2.4c-.9.9-2 1.6-3.2 2.1" class="R"/><path d="M652.5 203.8c-1.1-2.3-2.4-4.5-3.9-6.6-.6-.9-1.3-1.8-2-2.6l-1.3-1.5c.4.2.8 0 1-.4.3-.6.7-.6 1.1.1l1.5 1.2 2.8 2.7c.7.7 2.3 1.9 2.6 2.9.7 2.2-1.7 3.2-3.2 3.9-1.7.8-.2 3.4 1.5 2.6 3-1.4 6.6-4.2 4.5-7.8-1.1-1.6-2.4-3.1-3.9-4.4-1.4-1.4-3.3-3.7-5.2-4.5-2.3-1-5.9 1.9-5.5 4.4.3 1.7 2.6 3.5 3.6 4.8 1.5 2.1 2.8 4.3 3.9 6.6.8 1.8 3.3.3 2.5-1.4h0z" class="Q"/><path d="M472.9 295.9c-9.8 1.7-16.8-17-9.7-23 4.4-3.8 7.5 2.5 4.3 6.2-1.2 1.4-3.7 2.5-5.4 3-4.3 1.4-8.9 1-12.9-1.2-3.3-2.1-5.8-5.1-7.5-8.7-1.1-2.1-5.1-12-.2-12.6 2.5-.3 2.2 3.1 1.8 4.6-.7 3-3.9 4.3-6.9 4.5-6.2.4-14.2-4.1-12.6-11.3.4-1.9-2.5-2.7-2.9-.8-1.5 6.4 2.6 11.7 8.5 13.8 4.9 1.7 13 2.7 15.8-2.9 2-4.1 3.4-9.1-2.1-10.7-4.9-1.4-7.1 2.9-6.9 7.3.6 12.7 12.3 24.2 25.2 21.1 4.7-1.1 11.2-4.5 10.5-10.2-.7-5.2-5-8.6-9.7-5.5-6.1 4.1-5.3 10.8-3.7 17 1.8 7.2 7 13.5 15 12.1 2.1-.1 1.3-3-.6-2.7h0z" class="S"/><path d="M379.2 299.3c-1.8-4.5-3.9-8.9-6.1-13.3 1.2-1.1 2.5-2 4.1-2.5l6.7 14.1c.1.2.2.5.2.7-.2.9-2 .8-1.9 1.7" class="R"/><path d="M380.7 298.8a209.28 209.28 0 0 0-6.2-13.6l-.2 1.8c1-.9 2.1-1.7 3.4-2.2l-1.7-.7 5 10.6c.5.7.8 1.5 1.1 2.4.2 1 .4-.1 0 .8-.4.7-1 .8-1.3 1.6-.6 1.8 2.3 2.6 2.9.8-.1.3 1.5-.7 1.7-1.3.4-1-.1-1.9-.5-2.8-1.9-4.6-4.3-9.1-6.4-13.6-.3-.6-1-.9-1.7-.7-1.7.7-3.4 1.7-4.7 2.9-.5.5-.6 1.2-.2 1.8 2.1 4.2 4.1 8.5 5.9 12.9.7 1.9 3.6 1.1 2.9-.7h0z" class="Q"/><path d="M395.5 256.9c-1.3 1.8-1.3 4.2-.1 6 1.3 1.8 3.6 2.4 5.6 1.6 2-1 2.9-3.3 2.1-5.3-.4-.8-.9-1.5-1.6-2-1.5-1.1-3.3-1.5-5.1-1.3-.4.1-.9.5-.5.7" class="U"/><path d="M394.2 256.2c-1.8 2.6-1.5 6.2.7 8.5 2.2 2.2 5.7 2.3 8.1.3 2.3-2.1 2.5-5.6.5-7.9-1.7-1.9-6.8-4.3-8.8-1.7-.5.5-.5 1.2-.2 1.8l.1.2c.8 1.8 3.4.2 2.6-1.5l-.1-.3-.2 1.8c.3-.4 1.6 0 2.1.1.9.2 1.7.7 2.3 1.4 1 1.1.8 2.8-.3 3.8-.1.1-.2.2-.3.2-1.3.7-2.8.4-3.8-.6-1.1-1.3-1.1-3.3-.1-4.7 1-1.6-1.6-3.1-2.6-1.4h0z" class="Q"/><path d="M470.3 234.3c-1 1-1.4 2.5-1.1 3.9a3.3 3.3 0 0 0 3.6 2.5c1.7-.5 2.6-2.3 2.2-4-.5-1.6-1.6-3-3.2-3.8-.6.2-1 .5-1.3 1" class="V"/><path d="M469.2 233.3c-1.9 1.9-2.2 5-.5 7.2 1.4 1.9 4.1 2.3 6 .9.2-.1.4-.3.5-.5 1.6-1.9 1.7-4.8.1-6.8-.8-1.1-1.8-2-3-2.5-1.3-.4-2.5.6-3.2 1.6-1.2 1.5 1.4 3 2.6 1.5l.4-.3-1.2-.1c1.4.8 3.6 2.8 2.1 4.5-.7.8-1.6.5-2.2-.3-.6-1-.5-2.3.4-3.1 1.5-1.4-.7-3.6-2-2.1h0z" class="Q"/><path d="M430.5 300.5c5-.5 10-1.3 15-2.2-.1 1.7.1 3.4.4 5-4.6 1.4-9.3 2.4-14 3-.3.1-.7 0-1-.1-.3-.2-.4-.5-.5-.8l-1.2-3.7" fill="#f8dad4"/><path d="M430.5 302c5.1-.6 10.2-1.3 15.4-2.2l-1.9-1.4c0 1.8.1 3.6.5 5.4l1-1.8c-2.7.8-5.4 1.5-8.1 2-1.2.2-2.4.5-3.5.6-1.4.8-2.2.6-2.5-.8-.3-.8-.5-1.6-.8-2.5-.5-1.9-3.4-1.1-2.9.8 1 3.5 1.4 6 5.4 5.5 4.5-.6 8.9-1.6 13.2-2.9.8-.2 1.3-1.1 1-1.9-.2-1.5-.4-3-.3-4.6 0-.8-.7-1.5-1.6-1.5h-.3c-4.8.9-9.7 1.6-14.5 2.1-2 .4-2 3.4-.1 3.2h0z" class="Q"/><path d="M651.2 243.8c-1.4.7-1.3 3.1 0 3.9a3.25 3.25 0 0 0 4.2-.9 3.67 3.67 0 0 0-.1-4.9c-1.3-1.2-3.9-.9-4.5.8" class="U"/><path d="M650.5 242.5c-1.8 1.2-2.3 3.6-1.1 5.4.2.3.4.5.6.7 2.1 1.9 5.5.8 7-1.4s1.1-5.6-1.3-7c-2.1-1.2-4.8-.6-6.1 1.5l-.1.1c-.8 1.7 1.8 3.3 2.6 1.5.3-.7 1.1-1 1.9-.7h.1c.8.6 1.1 1.7.6 2.5-.3.8-1.5 1.7-2.5 1.3-.5-.2-.8-1.1-.2-1.4.7-.4 1-1.3.5-2.1s-1.3-.8-2-.4h0z" class="Q"/><path d="M60.6 51.3c-.4 0-.7-.1-1-.4-.2-.2-.4-.6-.4-.9 0-.4.1-.7.4-1a1.53 1.53 0 0 1 1-.4c.4 0 .7.1.9.4.2.2.3.6.3 1s-.1.7-.3.9-.5.4-.9.4zm0 13.6c-.4 0-.7-.1-.9-.3s-.3-.5-.3-.9l.5-9.9c0-.5.3-.7.7-.7s.6.2.6.7l.5 9.9c0 .4-.1.7-.3.9s-.5.3-.8.3zm17.7-1.3c.2.3.3.6.2.8s-.2.4-.4.5-.5.1-.7.1c-.3-.1-.5-.2-.7-.5L75.1 62c-.5-.9-1.4-1.4-2.7-1.4-1.6 0-2.9-.4-4.1-1.1s-2.1-1.7-2.7-3-.9-2.8-.9-4.6.3-3.3.9-4.6 1.5-2.3 2.7-3 2.5-1.1 4.1-1.1 3 .4 4.1 1.1c1.2.7 2.1 1.7 2.7 3s.9 2.8.9 4.6c0 2.1-.4 3.8-1.3 5.2s-2 2.4-3.5 3c.3.1.6.3.9.6s.6.6.8 1.1l1.3 1.8zm-5.8-4.8c1.8 0 3.2-.6 4.2-1.8s1.5-2.9 1.5-5.1-.5-3.9-1.5-5.1-2.4-1.8-4.2-1.8-3.2.6-4.2 1.8-1.5 2.9-1.5 5.1.5 3.9 1.5 5.1 2.4 1.8 4.2 1.8zm15.2 1.8c-2.8 0-4.2-1.5-4.2-4.6v-6.4c0-.7.3-1 1-1s1 .3 1 1V56c0 1 .2 1.8.6 2.3s1.1.7 2 .7c1 0 1.8-.3 2.4-1s.9-1.5.9-2.7v-5.8c0-.7.3-1 1-1 .6 0 1 .3 1 1v10c0 .7-.3 1-.9 1s-1-.3-1-1v-1.1A4.63 4.63 0 0 1 90 60c-.8.4-1.5.6-2.3.6zm14.5 0c-1.8 0-3.3-.5-4.4-1.6s-1.6-2.5-1.6-4.4c0-1.2.2-2.3.7-3.2s1.1-1.6 2-2.1c.8-.5 1.8-.8 2.9-.8 1.6 0 2.8.5 3.7 1.5s1.3 2.4 1.3 4.2c0 .5-.3.7-.8.7h-7.9c.1 1.3.4 2.3 1.2 3 .7.7 1.7 1 2.9 1 .5 0 1.1-.1 1.6-.2s1.1-.4 1.6-.7c.4-.2.7-.3.9-.1s.4.4.4.7-.2.6-.5.8c-.5.4-1.2.7-1.9.9s-1.4.3-2.1.3zm-.3-10.7c-1.1 0-2 .3-2.6 1s-1 1.6-1.1 2.7h7.1a4.67 4.67 0 0 0-.9-2.8 3.77 3.77 0 0 0-2.5-.9zm.8-2.9c-.1.2-.3.3-.6.3s-.4-.1-.5-.3-.1-.4 0-.6l2-3.9c.1-.3.3-.4.6-.5.2 0 .4 0 .6.1s.3.3.4.5 0 .4-.1.7l-2.4 3.7zm17.6 13.5c-.6 0-1-.3-1.2-.9l-4.2-9.7c-.2-.4-.2-.7 0-1s.4-.4.9-.4c.4 0 .8.3 1 .8l3.6 8.9 3.7-8.9c.1-.3.2-.5.4-.6.1-.1.4-.2.6-.2.4 0 .6.1.7.4s.1.6 0 .9l-4.2 9.7c-.3.7-.7 1-1.3 1zm12.7.1c-1.1 0-2.1-.2-3-.7-.8-.5-1.5-1.2-1.9-2.1-.5-.9-.7-2-.7-3.2s.2-2.3.7-3.2 1.1-1.6 1.9-2.1 1.8-.7 3-.7c1.1 0 2.1.2 2.9.7s1.5 1.2 1.9 2.1c.5.9.7 2 .7 3.2s-.2 2.3-.7 3.2-1.1 1.6-1.9 2.1c-.8.4-1.8.7-2.9.7zm0-1.6c1.1 0 2-.4 2.6-1.2.7-.8 1-1.9 1-3.3 0-1.5-.3-2.6-1-3.3A3.22 3.22 0 0 0 133 50c-1.1 0-2 .4-2.6 1.2s-1 1.9-1 3.3.3 2.5 1 3.3A3.22 3.22 0 0 0 133 59zm12 1.6c-1.2 0-2-.3-2.6-1s-.9-1.7-.9-3V44.3c0-.7.3-1 1-1s1 .3 1 1v12.1c0 1.7.7 2.6 2 2.6h.4.3c.2 0 .3 0 .4.1s.1.3.1.6c0 .5-.3.9-.8.9-.1 0-.3.1-.4.1-.2-.1-.3-.1-.5-.1zm8.1 0c-1.4 0-2.4-.4-3.1-1.1s-1-1.8-1-3.2v-6.1h-1.6c-.6 0-.8-.3-.8-.8s.3-.7.8-.7h1.6V46c0-.7.3-1 1-1 .6 0 1 .3 1 1v2.8h3c.6 0 .8.2.8.7s-.3.8-.8.8h-3v5.9c0 .9.2 1.6.6 2.1s1 .7 1.9.7c.3 0 .6 0 .8-.1s.4-.1.6-.1c.1 0 .3 0 .4.1s.1.3.1.6c0 .2 0 .4-.1.5-.1.2-.2.3-.4.3-.2.1-.4.1-.8.2s-.8.1-1 .1zm7.3 0a4.65 4.65 0 0 1-2.1-.5c-.6-.3-1.1-.7-1.5-1.3-.4-.5-.6-1.2-.6-1.8 0-.8.2-1.5.7-2 .4-.5 1.2-.9 2.2-1.1s2.4-.3 4.2-.3h.8v-.7c0-1-.2-1.7-.6-2.1s-1.1-.7-2-.7c-.6 0-1.1.1-1.7.2s-1.2.4-1.8.7c-.3.1-.5.2-.7.1a.78.78 0 0 1-.4-.4c-.1-.2-.1-.4 0-.6s.2-.4.5-.5c.7-.4 1.4-.6 2.1-.8s1.4-.2 2-.2c1.5 0 2.6.4 3.3 1.1s1.1 1.9 1.1 3.4v6.5c0 .7-.3 1-.9 1s-.9-.3-.9-1v-1.2c-.3.7-.8 1.2-1.4 1.6a4.38 4.38 0 0 1-2.3.6zm.4-1.5c1 0 1.7-.3 2.4-1 .6-.7.9-1.5.9-2.5v-.7h-.7c-1.3 0-2.3.1-3.1.2s-1.3.3-1.6.6-.4.7-.4 1.2c0 .7.2 1.2.7 1.6.4.4 1 .6 1.8.6zm6.5 5.9c-.4 0-.7-.1-.8-.3-.2-.2-.2-.5-.1-.8s.3-.4.6-.4a3.01 3.01 0 0 0 2-.7c.5-.4.6-1.1.6-2V49.5c0-.7.3-1 1-1 .6 0 1 .3 1 1v11.1c0 1.5-.4 2.6-1.1 3.2-.8.7-1.9 1.1-3.2 1.2zm3.2-19.1c-.8 0-1.3-.4-1.3-1.2s.4-1.2 1.3-1.2 1.3.4 1.3 1.2-.4 1.2-1.3 1.2z"/><use xlink:href="#B"/><path d="M188.9 60.5c-.4 0-.7-.1-1-.4-.2-.2-.4-.6-.4-.9 0-.4.1-.7.4-.9a1.53 1.53 0 0 1 1-.4c.4 0 .7.1.9.4s.3.6.3.9c0 .4-.1.7-.3.9s-.5.4-.9.4zm0-4.4c-.4 0-.6-.3-.7-.8l-.5-10.8c0-.4.1-.7.3-.9s.5-.3.9-.3.6.1.8.3.3.5.3.9l-.5 10.8c0 .5-.2.8-.6.8zm12.2 4.5c-1 0-1.5-.5-1.5-1.6V44.9c0-1.1.5-1.6 1.5-1.6s1.5.5 1.5 1.6v5.7h8.7v-5.7c0-1.1.5-1.6 1.5-1.6s1.5.5 1.5 1.6V59c0 1.1-.5 1.6-1.5 1.6s-1.5-.5-1.5-1.6v-5.9h-8.7V59c.1 1-.4 1.6-1.5 1.6zm20.6 0c-.8 0-1.6-.2-2.3-.5s-1.2-.8-1.6-1.3c-.4-.6-.6-1.2-.6-1.9 0-.9.2-1.5.7-2.1.4-.5 1.2-.9 2.2-1.1s2.4-.3 4.1-.3h.8v-.5c0-.8-.2-1.4-.5-1.7s-.9-.5-1.8-.5c-.5 0-1 .1-1.5.2s-1.1.3-1.7.6c-.4.2-.7.2-1 .1s-.4-.4-.5-.6c-.1-.3-.1-.6 0-.9s.4-.5.7-.7a8.3 8.3 0 0 1 2.1-.6l1.9-.2c1.7 0 3 .4 3.8 1.2s1.2 2 1.2 3.7V59c0 1-.5 1.5-1.4 1.5s-1.4-.5-1.4-1.5v-.5c-.3.7-.7 1.2-1.3 1.5-.3.4-1 .6-1.9.6zm.7-2c.8 0 1.4-.3 2-.8.5-.5.8-1.2.8-2.1v-.5h-.8c-1.5 0-2.5.1-3.1.3s-.9.7-.9 1.3c0 .5.2 1 .6 1.3.2.3.7.5 1.4.5z"/><use xlink:href="#C"/><use xlink:href="#D"/><use xlink:href="#E"/><path d="M85.8 89.4c-1 0-1.5-.5-1.5-1.5v-9.1c0-1 .5-1.5 1.5-1.5s1.5.5 1.5 1.5v.5c.4-.6.8-1.1 1.5-1.5s1.3-.5 2.2-.5c1.8 0 2.9.8 3.5 2.3.4-.7.9-1.3 1.6-1.7s1.5-.6 2.4-.6c2.6 0 4 1.6 4 4.8v5.8c0 1-.5 1.5-1.5 1.5s-1.5-.5-1.5-1.5v-5.7c0-.9-.1-1.6-.4-2s-.8-.6-1.5-.6c-.8 0-1.4.3-1.8.8-.4.6-.7 1.3-.7 2.3v5.2c0 1-.5 1.5-1.5 1.5s-1.5-.5-1.5-1.5v-5.7c0-.9-.1-1.6-.4-2s-.8-.6-1.5-.6c-.8 0-1.4.3-1.8.8-.4.6-.7 1.3-.7 2.3v5.2c-.4 1-.9 1.5-1.9 1.5zm21 4.3c-1 0-1.5-.5-1.5-1.5V78.8c0-1 .5-1.5 1.5-1.5s1.5.5 1.5 1.5v.5c.3-.6.8-1.1 1.5-1.5a4.38 4.38 0 0 1 2.3-.6c1 0 1.9.2 2.7.7s1.4 1.2 1.8 2.1.6 2 .6 3.3c0 1.2-.2 2.3-.6 3.3-.4.9-1 1.6-1.8 2.1s-1.7.7-2.7.7c-.8 0-1.6-.2-2.2-.5-.7-.4-1.2-.8-1.5-1.5v4.8c-.1 1-.6 1.5-1.6 1.5zm4.5-6.6c.9 0 1.6-.3 2.2-1 .5-.6.8-1.6.8-2.9s-.3-2.2-.8-2.9c-.5-.6-1.3-.9-2.2-.9s-1.6.3-2.2.9c-.5.6-.8 1.6-.8 2.9s.3 2.2.8 2.9c.6.7 1.3 1 2.2 1z"/><use xlink:href="#F"/><path d="M133.1 89.4c-1.3 0-2.5-.2-3.4-.7-1-.5-1.7-1.2-2.2-2.1s-.8-2-.8-3.2.3-2.3.8-3.2 1.2-1.6 2.1-2.1 1.9-.8 3-.8c1.7 0 3 .5 3.9 1.6 1 1.1 1.5 2.5 1.5 4.3 0 .6-.4.9-1.2.9h-7.2c.2 2.1 1.4 3.1 3.6 3.1.4 0 .9-.1 1.4-.2s1-.3 1.5-.5c.4-.2.8-.3 1.1-.2s.5.3.6.5c.1.3.1.5 0 .9s-.3.6-.7.8c-.6.4-1.2.6-1.9.8l-2.1.1zm-.5-10.2c-.9 0-1.6.3-2.1.8s-.9 1.3-1 2.2h5.9c-.1-1-.3-1.7-.8-2.2s-1.1-.8-2-.8zm13 10.2c-3.1 0-4.7-1.5-4.7-4.6v-5.1h-1.2c-.8 0-1.2-.4-1.2-1.1s.4-1.1 1.2-1.1h1.2v-2.2c0-1 .5-1.5 1.5-1.5s1.5.5 1.5 1.5v2.2h2.5c.8 0 1.2.4 1.2 1.1s-.4 1.1-1.2 1.1H144v4.9c0 .8.2 1.3.5 1.7s.9.6 1.6.6c.3 0 .5 0 .7-.1.2 0 .4-.1.6-.1s.4 0 .5.2c.1.1.2.4.2.8 0 .3-.1.6-.2.9-.1.2-.3.4-.6.5-.2.1-.5.1-.8.2s-.6.1-.9.1zm7.7 0c-.8 0-1.6-.2-2.3-.5s-1.2-.8-1.6-1.3c-.4-.6-.6-1.2-.6-1.9 0-.9.2-1.5.7-2.1.4-.5 1.2-.9 2.2-1.1s2.4-.3 4.1-.3h.8v-.5c0-.8-.2-1.4-.5-1.7s-.9-.5-1.8-.5c-.5 0-1 .1-1.5.2s-1.1.3-1.7.6c-.4.2-.7.2-1 .1s-.4-.4-.5-.6c-.1-.3-.1-.6 0-.9s.4-.5.7-.7a8.3 8.3 0 0 1 2.1-.6l1.9-.2c1.7 0 3 .4 3.8 1.2s1.2 2 1.2 3.7v5.8c0 1-.5 1.5-1.4 1.5s-1.4-.5-1.4-1.5v-.5c-.3.7-.7 1.2-1.3 1.5-.4.1-1.1.3-1.9.3zm.6-2c.8 0 1.4-.3 2-.8.5-.5.8-1.2.8-2.1V84h-.8c-1.5 0-2.5.1-3.1.3s-.9.7-.9 1.3c0 .5.2 1 .6 1.3.3.3.8.5 1.4.5zm13.2 2c-1 0-1.9-.2-2.7-.7s-1.4-1.2-1.8-2.1-.6-2-.6-3.3.2-2.3.6-3.3 1-1.6 1.8-2.1 1.7-.7 2.7-.7c.8 0 1.6.2 2.3.6s1.2.9 1.5 1.5v-5.6c0-1 .5-1.5 1.5-1.5s1.5.5 1.5 1.5V88c0 1-.5 1.5-1.5 1.5s-1.5-.5-1.5-1.5v-.5c-.3.6-.8 1.1-1.5 1.5-.7.2-1.5.4-2.3.4zm.8-2.3c.9 0 1.6-.3 2.2-1 .5-.6.8-1.6.8-2.9s-.3-2.2-.8-2.9c-.5-.6-1.3-.9-2.2-.9s-1.6.3-2.2.9c-.5.6-.8 1.6-.8 2.9s.3 2.2.8 2.9c.6.7 1.3 1 2.2 1z"/><use xlink:href="#E" x="106.5"/><use xlink:href="#F" x="77.6"/><path d="M208.8 89.4c-.8 0-1.6-.2-2.3-.5s-1.2-.8-1.6-1.3c-.4-.6-.6-1.2-.6-1.9 0-.9.2-1.5.7-2.1.4-.5 1.2-.9 2.2-1.1s2.4-.3 4.1-.3h.8v-.5c0-.8-.2-1.4-.5-1.7s-.9-.5-1.8-.5c-.5 0-1 .1-1.5.2s-1.1.3-1.7.6c-.4.2-.7.2-1 .1s-.4-.4-.5-.6c-.1-.3-.1-.6 0-.9s.4-.5.7-.7a8.3 8.3 0 0 1 2.1-.6l1.9-.2c1.7 0 3 .4 3.8 1.2s1.2 2 1.2 3.7v5.8c0 1-.5 1.5-1.4 1.5s-1.4-.5-1.4-1.5v-.5c-.3.7-.7 1.2-1.3 1.5-.4.1-1.1.3-1.9.3zm.7-2c.8 0 1.4-.3 2-.8.5-.5.8-1.2.8-2.1V84h-.8c-1.5 0-2.5.1-3.1.3s-.9.7-.9 1.3c0 .5.2 1 .6 1.3.2.3.7.5 1.4.5z"/><use xlink:href="#G"/><path d="M239.5 89.4c-1.3 0-2.5-.2-3.4-.7-1-.5-1.7-1.2-2.2-2.1s-.8-2-.8-3.2.3-2.3.8-3.2 1.2-1.6 2.1-2.1 1.9-.8 3-.8c1.7 0 3 .5 3.9 1.6 1 1.1 1.5 2.5 1.5 4.3 0 .6-.4.9-1.2.9H236c.2 2.1 1.4 3.1 3.6 3.1.4 0 .9-.1 1.4-.2s1-.3 1.5-.5c.4-.2.8-.3 1.1-.2s.5.3.6.5c.1.3.1.5 0 .9s-.3.6-.7.8c-.6.4-1.2.6-1.9.8l-2.1.1zm-.5-10.2c-.9 0-1.6.3-2.1.8s-.9 1.3-1 2.2h5.9c-.1-1-.3-1.7-.8-2.2-.4-.5-1.1-.8-2-.8z"/><use xlink:href="#H"/><path d="M261.3 89.4c-1.2 0-2.3-.3-3.2-.8s-1.6-1.2-2.1-2.1-.7-2-.7-3.3c0-1.2.2-2.3.7-3.2s1.2-1.6 2.1-2.1 2-.7 3.2-.7c.5 0 1.1.1 1.7.2s1.2.4 1.7.7c.3.2.5.4.6.7s0 .6-.1.8c-.1.3-.3.4-.6.6-.3.1-.6.1-.9-.1-.7-.4-1.4-.6-2.1-.6-1 0-1.8.3-2.4 1-.6.6-.9 1.6-.9 2.8s.3 2.1.9 2.8 1.4 1 2.4 1c.7 0 1.4-.2 2.1-.6.3-.2.6-.2.9-.1s.4.3.6.6c.1.3.1.5.1.8s-.2.5-.6.7c-.5.3-1.1.6-1.7.7s-1.1.2-1.7.2z"/><use xlink:href="#I"/><path d="M281.5 89.4c-1 0-1.5-.5-1.5-1.5v-9.1c0-1 .5-1.5 1.5-1.5s1.5.5 1.5 1.5v.7c.6-1.4 1.8-2.1 3.7-2.3.7-.1 1.1.3 1.2 1.2.1.8-.3 1.3-1.2 1.4h-.5c-2 .2-3 1.2-3 3v5c-.1 1.1-.6 1.6-1.7 1.6zm11.7 0c-.8 0-1.6-.2-2.3-.5s-1.2-.8-1.6-1.3c-.4-.6-.6-1.2-.6-1.9 0-.9.2-1.5.7-2.1.4-.5 1.2-.9 2.2-1.1s2.4-.3 4.1-.3h.8v-.5c0-.8-.2-1.4-.5-1.7s-.9-.5-1.8-.5c-.5 0-1 .1-1.5.2s-1.1.3-1.7.6c-.4.2-.7.2-1 .1s-.4-.4-.5-.6c-.1-.3-.1-.6 0-.9s.4-.5.7-.7a8.3 8.3 0 0 1 2.1-.6l1.9-.2c1.7 0 3 .4 3.8 1.2s1.2 2 1.2 3.7v5.8c0 1-.5 1.5-1.4 1.5s-1.4-.5-1.4-1.5v-.5c-.3.7-.7 1.2-1.3 1.5-.4.1-1.1.3-1.9.3zm.6-2c.8 0 1.4-.3 2-.8.5-.5.8-1.2.8-2.1V84h-.8c-1.5 0-2.5.1-3.1.3s-.9.7-.9 1.3c0 .5.2 1 .6 1.3.2.3.7.5 1.4.5zM60.9 118.2c-1 0-1.5-.5-1.5-1.5v-9.1c0-1 .5-1.5 1.5-1.5s1.5.5 1.5 1.5v.5c.4-.6.8-1.1 1.5-1.5s1.3-.5 2.2-.5c1.8 0 2.9.8 3.5 2.3.4-.7.9-1.3 1.6-1.7s1.5-.6 2.4-.6c2.6 0 4 1.6 4 4.8v5.8c0 1-.5 1.5-1.5 1.5s-1.5-.5-1.5-1.5V111c0-.9-.1-1.6-.4-2s-.8-.6-1.5-.6c-.8 0-1.4.3-1.8.8-.4.6-.7 1.3-.7 2.3v5.2c0 1-.5 1.5-1.5 1.5s-1.5-.5-1.5-1.5V111c0-.9-.1-1.6-.4-2s-.8-.6-1.5-.6c-.8 0-1.4.3-1.8.8-.4.6-.7 1.3-.7 2.3v5.2c-.4 1-.9 1.5-1.9 1.5z"/><use xlink:href="#J"/><path d="M90.8 118.2c-.7 0-1.4-.1-2.2-.2s-1.5-.4-2.1-.7c-.3-.2-.5-.4-.6-.7a1.1 1.1 0 0 1 0-.8c.1-.2.3-.4.5-.5s.5-.1.9.1c.6.3 1.2.5 1.8.6s1.1.2 1.7.2c.8 0 1.3-.1 1.7-.4s.6-.6.6-1c0-.7-.5-1.1-1.5-1.3l-2.4-.5c-2-.4-3-1.4-3-3.2 0-.8.2-1.4.6-2s1-1 1.8-1.3 1.6-.5 2.6-.5c1.4 0 2.7.3 3.8.9.3.2.5.4.5.7s0 .5-.1.8c-.1.2-.3.4-.6.5s-.6.1-.9-.1c-.5-.3-1-.4-1.4-.6s-.9-.2-1.3-.2c-.8 0-1.4.1-1.7.4-.4.3-.6.6-.6 1.1 0 .7.5 1.1 1.4 1.3l2.4.5c1 .2 1.8.5 2.4 1.1s.8 1.2.8 2.1c0 1.2-.5 2.1-1.4 2.7s-2.1 1-3.7 1z"/><use xlink:href="#J" x="17.8"/><path d="M109.7 118.2c-1.2 0-2.3-.2-3.2-.7s-1.6-1.2-2.1-2.1-.7-2-.7-3.3.2-2.3.7-3.2 1.2-1.6 2.1-2.1 2-.7 3.2-.7 2.3.2 3.2.7 1.6 1.2 2.1 2.1.7 2 .7 3.2-.2 2.3-.7 3.3c-.5.9-1.2 1.6-2.1 2.1s-2 .7-3.2.7zm0-2.3c.9 0 1.6-.3 2.2-1 .5-.6.8-1.6.8-2.9s-.3-2.2-.8-2.9c-.5-.6-1.3-.9-2.2-.9s-1.6.3-2.2.9c-.5.6-.8 1.6-.8 2.9s.3 2.2.8 2.9c.6.7 1.3 1 2.2 1zm1.2-11.4c-.2.2-.4.4-.6.4s-.4 0-.6-.1-.4-.3-.4-.5c-.1-.2-.1-.4.1-.7l1.8-3.6c.2-.4.4-.6.7-.6.3-.1.6 0 .9.2s.5.4.6.7.1.6-.2.9l-2.3 3.3z"/><use xlink:href="#K"/><path d="M143.3 118.2c-1 0-1.9-.2-2.7-.7s-1.4-1.2-1.8-2.1-.6-2-.6-3.3.2-2.3.6-3.3 1-1.6 1.8-2.1 1.7-.7 2.7-.7c.8 0 1.6.2 2.3.6s1.2.9 1.5 1.5v-5.6c0-1 .5-1.5 1.5-1.5s1.5.5 1.5 1.5v14.3c0 1-.5 1.5-1.5 1.5s-1.5-.5-1.5-1.5v-.5c-.3.6-.8 1.1-1.5 1.5-.7.2-1.5.4-2.3.4zm.8-2.3c.9 0 1.6-.3 2.2-1 .5-.6.8-1.6.8-2.9s-.3-2.2-.8-2.9c-.5-.6-1.3-.9-2.2-.9s-1.6.3-2.2.9c-.5.6-.8 1.6-.8 2.9s.3 2.2.8 2.9c.6.7 1.3 1 2.2 1z"/><use xlink:href="#I" x="-113.9" y="28.8"/><path d="M178.4 118.2c-1.3 0-2.5-.2-3.4-.7-1-.5-1.7-1.2-2.2-2.1s-.8-2-.8-3.2.3-2.3.8-3.2 1.2-1.6 2.1-2.1 1.9-.8 3-.8c1.7 0 3 .5 3.9 1.6 1 1.1 1.5 2.5 1.5 4.3 0 .6-.4.9-1.2.9h-7.2c.2 2.1 1.4 3.1 3.6 3.1.4 0 .9-.1 1.4-.2s1-.3 1.5-.5c.4-.2.8-.3 1.1-.2s.5.3.6.5c.1.3.1.5 0 .9s-.3.6-.7.8c-.6.4-1.2.6-1.9.8l-2.1.1zM178 108c-.9 0-1.6.3-2.1.8s-.9 1.3-1 2.2h5.9c-.1-1-.3-1.7-.8-2.2s-1.1-.8-2-.8z"/><use xlink:href="#C" x="-45.3" y="57.6"/><path d="M202.6 118.2c-3.1 0-4.7-1.5-4.7-4.6v-5.1h-1.2c-.8 0-1.2-.4-1.2-1.1s.4-1.1 1.2-1.1h1.2v-2.2c0-1 .5-1.5 1.5-1.5s1.5.5 1.5 1.5v2.2h2.5c.8 0 1.2.4 1.2 1.1s-.4 1.1-1.2 1.1H201v4.9c0 .8.2 1.3.5 1.7s.9.6 1.6.6c.3 0 .5 0 .7-.1.2 0 .4-.1.6-.1s.4 0 .5.2c.1.1.2.4.2.8 0 .3-.1.6-.2.9-.1.2-.3.4-.6.5-.2.1-.5.1-.8.2s-.6.1-.9.1z"/><use xlink:href="#L"/><use xlink:href="#M"/><path d="M243.9 118.2c-.8 0-1.4-.4-1.8-1.3l-3.8-8.9c-.2-.5-.2-1 0-1.4s.7-.6 1.3-.6c.4 0 .7.1.9.3s.4.5.6.9l2.9 7.2 3-7.2c.2-.4.4-.8.6-.9.2-.2.5-.3.9-.3.5 0 .9.2 1.1.6s.2.9 0 1.4l-3.9 8.9c-.4.8-1 1.3-1.8 1.3z"/><use xlink:href="#I" x="-15.5" y="28.8"/><use xlink:href="#K" x="146.3"/><path d="M283.9 118.2c-3.1 0-4.7-1.5-4.7-4.6v-5.1H278c-.8 0-1.2-.4-1.2-1.1s.4-1.1 1.2-1.1h1.2v-2.2c0-1 .5-1.5 1.5-1.5s1.5.5 1.5 1.5v2.2h2.5c.8 0 1.2.4 1.2 1.1s-.4 1.1-1.2 1.1h-2.5v4.9c0 .8.2 1.3.5 1.7s.9.6 1.6.6c.3 0 .5 0 .7-.1.2 0 .4-.1.6-.1s.4 0 .5.2c.1.1.2.4.2.8 0 .3-.1.6-.2.9-.1.2-.3.4-.6.5-.2.1-.5.1-.8.2-.2.1-.5.1-.8.1zm8.1 0c-2.9 0-4.3-1.6-4.3-4.8v-5.8c0-1 .5-1.5 1.5-1.5s1.5.5 1.5 1.5v5.9c0 .8.2 1.4.5 1.8s.9.6 1.6.6c.8 0 1.5-.3 2-.8.5-.6.8-1.3.8-2.2v-5.3c0-1 .5-1.5 1.5-1.5s1.5.5 1.5 1.5v9.1c0 1-.5 1.5-1.5 1.5s-1.5-.5-1.5-1.5v-.4c-.7 1.3-2 1.9-3.6 1.9z"/><use xlink:href="#H" x="55" y="28.8"/><use xlink:href="#L" x="104.5"/><use xlink:href="#G" x="-165.2" y="57.6"/><path d="M74.3 147c-1.3 0-2.5-.2-3.4-.7-1-.5-1.7-1.2-2.2-2.1s-.8-2-.8-3.2.3-2.3.8-3.2 1.2-1.6 2.1-2.1 1.9-.8 3-.8c1.7 0 3 .5 3.9 1.6 1 1.1 1.5 2.5 1.5 4.3 0 .6-.4.9-1.2.9h-7.2c.2 2.1 1.4 3.1 3.6 3.1.4 0 .9-.1 1.4-.2s1-.3 1.5-.5c.4-.2.8-.3 1.1-.2s.5.3.6.5c.1.3.1.5 0 .9s-.3.6-.7.8c-.6.4-1.2.6-1.9.8-.8 0-1.5.1-2.1.1zm-.5-10.2c-.9 0-1.6.3-2.1.8s-.9 1.3-1 2.2h5.9c-.1-1-.3-1.7-.8-2.2s-1.1-.8-2-.8z"/><use xlink:href="#D" x="22.1" y="57.6"/><path d="M94.3 147c-1 0-1.5-.5-1.5-1.5v-9.1c0-1 .5-1.5 1.5-1.5s1.5.5 1.5 1.5v.5c.4-.7.9-1.2 1.6-1.5.7-.4 1.4-.5 2.3-.5 2.8 0 4.2 1.6 4.2 4.8v5.8c0 1-.5 1.5-1.5 1.5s-1.5-.5-1.5-1.5v-5.7c0-.9-.2-1.6-.5-2s-.9-.6-1.6-.6c-.9 0-1.6.3-2.1.8-.5.6-.8 1.3-.8 2.2v5.3c-.1 1-.6 1.5-1.6 1.5z"/><use xlink:href="#E" x="36.4" y="57.6"/><path d="M124.7 147c-2.7 0-4-1.5-4-4.5v-11.4c0-1 .5-1.5 1.5-1.5s1.5.5 1.5 1.5v11.2c0 1.4.6 2.2 1.8 2.2h.4.3c.2 0 .4 0 .5.2s.1.5.1.9-.1.7-.2.9c-.2.2-.4.4-.8.4-.4.1-.8.1-1.1.1zm8.9 0c-1.2 0-2.3-.2-3.2-.7s-1.6-1.2-2.1-2.1-.7-2-.7-3.3.2-2.3.7-3.2 1.2-1.6 2.1-2.1 2-.7 3.2-.7 2.3.2 3.2.7 1.6 1.2 2.1 2.1.7 2 .7 3.2-.2 2.3-.7 3.3c-.5.9-1.2 1.6-2.1 2.1-1 .5-2 .7-3.2.7zm0-2.3c.9 0 1.6-.3 2.2-1 .5-.6.8-1.6.8-2.9s-.3-2.2-.8-2.9c-.5-.6-1.3-.9-2.2-.9s-1.6.3-2.2.9c-.5.6-.8 1.6-.8 2.9s.3 2.2.8 2.9 1.3 1 2.2 1zm1.1-11.4c-.2.2-.4.4-.6.4s-.4 0-.6-.1-.4-.3-.4-.5c-.1-.2-.1-.4.1-.7l1.8-3.6c.2-.4.4-.6.7-.6.3-.1.6 0 .9.2s.5.4.6.7.1.6-.2.9l-2.3 3.3zm12.8 18c-.9 0-1.7-.1-2.5-.2-.8-.2-1.5-.4-2.2-.7-.4-.2-.6-.4-.7-.7s0-.6.1-.9a.9.9 0 0 1 .6-.6c.3-.1.5-.1.9 0 .7.4 1.4.6 2 .7l1.6.2c2.1 0 3.2-1 3.2-3.1v-1.6c-.3.7-.9 1.2-1.5 1.6-.7.4-1.5.6-2.3.6-1.1 0-2-.2-2.8-.7s-1.4-1.2-1.8-2.1-.6-1.9-.6-3.1.2-2.2.6-3.1 1-1.6 1.8-2c.8-.5 1.7-.7 2.8-.7.8 0 1.6.2 2.3.6s1.2.9 1.5 1.5v-.5c0-.5.1-.9.4-1.1s.6-.4 1.1-.4c1 0 1.5.5 1.5 1.5v9.2c0 1.9-.5 3.3-1.5 4.3-1.1.9-2.6 1.3-4.5 1.3zm-.1-7.1c.9 0 1.7-.3 2.2-1s.8-1.5.8-2.6-.3-2-.8-2.6-1.3-.9-2.2-.9-1.7.3-2.2.9-.8 1.5-.8 2.6.3 2 .8 2.6 1.3 1 2.2 1z"/><use xlink:href="#J" x="76.1" y="28.8"/><use xlink:href="#D" x="103.3" y="57.6"/><use xlink:href="#M" x="-52.2" y="28.8"/><path d="M188.5 146.9c-.5 0-1-.2-1.3-.5s-.5-.8-.5-1.3.2-.9.5-1.3c.3-.3.8-.5 1.3-.5.6 0 1 .2 1.3.5s.5.7.5 1.3c0 .5-.2 1-.5 1.3s-.8.5-1.3.5zm16.7.1c-1.2 0-2.2-.1-3.3-.4-1-.3-1.9-.7-2.6-1.2-.3-.2-.4-.4-.5-.6 0-.2 0-.5.1-.7s.3-.3.5-.4.4 0 .7.2c.7.5 1.5.9 2.3 1.1s1.7.3 2.8.3c1.4 0 2.5-.3 3.2-.8s1-1.2 1-2.1c0-.7-.3-1.3-.8-1.7s-1.3-.7-2.5-1l-2.5-.5c-1.5-.3-2.6-.8-3.4-1.6-.7-.7-1.1-1.7-1.1-2.9 0-1 .3-1.9.8-2.6s1.2-1.3 2.2-1.8c.9-.4 2-.6 3.2-.6 1 0 1.9.1 2.8.4s1.7.7 2.4 1.3c.2.2.4.4.4.6s0 .4-.1.6-.3.3-.5.4-.5 0-.7-.2c-.6-.5-1.3-.8-2-1.1-.7-.2-1.5-.3-2.3-.3-1.3 0-2.3.3-3 .9s-1.1 1.4-1.1 2.3c0 .8.2 1.4.7 1.8s1.2.8 2.3 1l2.5.5c1.6.3 2.8.8 3.6 1.5s1.2 1.6 1.2 2.8c0 .9-.3 1.8-.8 2.5a4.83 4.83 0 0 1-2.2 1.7c-.9.4-2 .6-3.3.6zm10-14.7c-.8 0-1.3-.4-1.3-1.2s.4-1.2 1.3-1.2c.8 0 1.3.4 1.3 1.2-.1.8-.5 1.2-1.3 1.2zm0 14.6c-.6 0-1-.4-1-1.1V136c0-.7.3-1 1-1s1 .3 1 1v9.8c-.1.7-.4 1.1-1 1.1zm9.7 4.4a10.68 10.68 0 0 1-2.5-.3c-.8-.2-1.5-.5-2.2-.9-.2-.1-.4-.3-.4-.5s0-.4.1-.6a.78.78 0 0 1 .4-.4c.2-.1.4-.1.6 0a11.33 11.33 0 0 0 2 .9c.6.2 1.3.2 1.9.2 2.3 0 3.5-1.2 3.5-3.6V144c-.3.7-.9 1.3-1.6 1.7s-1.5.6-2.4.6c-1.1 0-2-.2-2.8-.7s-1.4-1.2-1.8-2.1-.6-1.9-.6-3c0-1.2.2-2.2.6-3 .4-.9 1-1.5 1.8-2s1.7-.7 2.8-.7c.9 0 1.7.2 2.4.6s1.2 1 1.6 1.7v-1.2c0-.7.3-1 1-1s1 .3 1 1v10c0 1.8-.4 3.1-1.3 4-1 1-2.3 1.4-4.1 1.4zm-.3-6.4c1.1 0 2-.4 2.7-1.2s1-1.8 1-3.1-.3-2.3-1-3.1-1.5-1.1-2.7-1.1c-1.1 0-2 .4-2.6 1.1-.7.8-1 1.8-1 3.1s.3 2.3 1 3.1a3.22 3.22 0 0 0 2.6 1.2zM238 147c-2.8 0-4.2-1.5-4.2-4.6V136c0-.7.3-1 1-1s1 .3 1 1v6.4c0 1 .2 1.8.6 2.3s1.1.7 2 .7c1 0 1.8-.3 2.4-1s.9-1.5.9-2.7v-5.8c0-.7.3-1 1-1 .6 0 1 .3 1 1v10c0 .7-.3 1-.9 1s-1-.3-1-1v-1.1a4.63 4.63 0 0 1-1.5 1.6c-.8.4-1.5.6-2.3.6zm14.6 0c-1.8 0-3.3-.5-4.4-1.6s-1.6-2.5-1.6-4.4c0-1.2.2-2.3.7-3.2s1.1-1.6 2-2.1c.8-.5 1.8-.8 2.9-.8 1.6 0 2.8.5 3.7 1.5s1.3 2.4 1.3 4.2c0 .5-.3.7-.8.7h-7.9c.1 1.3.4 2.3 1.2 3 .7.7 1.7 1 2.9 1 .5 0 1.1-.1 1.6-.2s1.1-.4 1.6-.7c.4-.2.7-.3.9-.1s.4.4.4.7-.2.6-.5.8c-.5.4-1.2.7-1.9.9-.8.2-1.5.3-2.1.3zm-.4-10.7c-1.1 0-2 .3-2.6 1s-1 1.6-1.1 2.7h7.1a4.67 4.67 0 0 0-.9-2.8 3.77 3.77 0 0 0-2.5-.9zm17.7 10.7a4.65 4.65 0 0 1-2.1-.5c-.6-.3-1.1-.7-1.5-1.3-.4-.5-.6-1.2-.6-1.8 0-.8.2-1.5.7-2 .4-.5 1.2-.9 2.2-1.1s2.4-.3 4.2-.3h.8v-.7c0-1-.2-1.7-.6-2.1s-1.1-.7-2-.7c-.6 0-1.1.1-1.7.2s-1.2.4-1.8.7c-.3.1-.5.2-.7.1a.78.78 0 0 1-.4-.4c-.1-.2-.1-.4 0-.6s.2-.4.5-.5c.7-.4 1.4-.6 2.1-.8s1.4-.2 2-.2c1.5 0 2.6.4 3.3 1.1s1.1 1.9 1.1 3.4v6.5c0 .7-.3 1-.9 1s-.9-.3-.9-1v-1.2c-.3.7-.8 1.2-1.4 1.6a4.38 4.38 0 0 1-2.3.6zm.3-1.5c1 0 1.7-.3 2.4-1 .6-.7.9-1.5.9-2.5v-.7h-.7c-1.3 0-2.3.1-3.1.2s-1.3.3-1.6.6-.4.7-.4 1.2c0 .7.2 1.2.7 1.6.4.4 1.1.6 1.8.6zm20.9 1.5c-.9 0-1.7-.2-2.4-.6s-1.2-1-1.6-1.7v1.2c0 .7-.3 1-1 1-.6 0-1-.3-1-1v-15.3c0-.7.3-1 1-1s1 .3 1 1v6.5c.3-.7.9-1.2 1.6-1.6s1.5-.6 2.4-.6c1 0 1.9.2 2.7.7s1.4 1.2 1.8 2.1.6 2 .6 3.2-.2 2.3-.6 3.2-1 1.6-1.8 2.1-1.7.8-2.7.8zm-.4-1.6c1.1 0 2-.4 2.6-1.2.7-.8 1-1.9 1-3.3 0-1.5-.3-2.6-1-3.3a3.22 3.22 0 0 0-2.6-1.2c-1.1 0-2 .4-2.6 1.2-.7.8-1 1.9-1 3.3s.3 2.5 1 3.3c.6.8 1.5 1.2 2.6 1.2zm12.6 1.6c-2.8 0-4.2-1.5-4.2-4.6V136c0-.7.3-1 1-1s1 .3 1 1v6.4c0 1 .2 1.8.6 2.3s1.1.7 2 .7c1 0 1.8-.3 2.4-1s.9-1.5.9-2.7v-5.8c0-.7.3-1 1-1 .6 0 1 .3 1 1v10c0 .7-.3 1-.9 1s-1-.3-1-1v-1.1a4.63 4.63 0 0 1-1.5 1.6c-.7.4-1.5.6-2.3.6z"/><use xlink:href="#B" x="137.5" y="86.4"/><path d="M326.4 146.9c-.6 0-1-.3-1-1v-10c0-.7.3-1 .9-1s1 .3 1 1v1.2c.4-.7.9-1.3 1.6-1.7s1.5-.6 2.4-.6c2.8 0 4.2 1.5 4.2 4.6v6.4c0 .7-.3 1-1 1s-1-.3-1-1v-6.3c0-1.1-.2-1.9-.6-2.4s-1.1-.8-2-.8c-1.1 0-1.9.3-2.6 1s-.9 1.5-.9 2.7v5.8c-.1.8-.4 1.1-1 1.1z"/><use xlink:href="#N"/><path d="M69.2 161.1c-.8 0-1.3-.4-1.3-1.2s.4-1.2 1.3-1.2c.8 0 1.3.4 1.3 1.2s-.5 1.2-1.3 1.2zm0 14.6c-.6 0-1-.4-1-1.1v-9.8c0-.7.3-1 1-1s1 .3 1 1v9.8c0 .7-.3 1.1-1 1.1z"/><use xlink:href="#O"/><path d="M83.2 175.7c-.6 0-1-.3-1-1v-10c0-.7.3-1 .9-1s1 .3 1 1v1.2c.4-.7.8-1.2 1.5-1.6.6-.4 1.4-.6 2.2-.6 1.8 0 3 .8 3.5 2.4.4-.7.9-1.3 1.6-1.7s1.5-.6 2.4-.6c2.6 0 3.9 1.5 3.9 4.6v6.4c0 .7-.3 1-1 1-.6 0-1-.3-1-1v-6.3c0-1.1-.2-1.9-.6-2.4s-1-.8-1.9-.8-1.7.3-2.3 1-.8 1.6-.8 2.7v5.8c0 .7-.3 1-1 1-.6 0-1-.3-1-1v-6.3c0-1.1-.2-1.9-.6-2.4s-1-.8-1.9-.8c-1 0-1.7.3-2.3 1s-.8 1.6-.8 2.7v5.8c.2.6-.1.9-.8.9z"/><use xlink:href="#P"/><path d="M124.9 180.1c-.4 0-.6-.1-.7-.4s-.1-.6 0-.9l1.5-3.3-4.4-10.3c-.2-.4-.2-.7 0-1s.4-.4.9-.4c.4 0 .8.3 1 .8l3.6 8.9 3.6-8.9c.1-.3.3-.5.4-.6s.4-.2.6-.2c.4 0 .6.1.7.4s.1.6 0 .9l-6.1 14.2c-.1.3-.3.5-.4.6-.2.1-.5.2-.7.2zm25.3 0c-.7 0-1-.3-1-1v-5.5c-.3.7-.9 1.2-1.5 1.6-.7.4-1.5.6-2.4.6-1 0-1.9-.2-2.7-.7s-1.4-1.2-1.8-2.1-.6-2-.6-3.2.2-2.3.6-3.2 1-1.6 1.8-2.1 1.7-.7 2.7-.7c.9 0 1.7.2 2.4.6s1.2 1 1.6 1.7v-1.2c0-.7.3-1 1-1 .6 0 1 .3 1 1v14.4c-.1.4-.5.8-1.1.8zm-4.5-5.9c1.1 0 2-.4 2.6-1.2.7-.8 1-1.9 1-3.3 0-1.5-.3-2.6-1-3.3a3.22 3.22 0 0 0-2.6-1.2c-1.1 0-2 .4-2.6 1.2s-1 1.9-1 3.3.3 2.5 1 3.3a3.22 3.22 0 0 0 2.6 1.2z"/><use xlink:href="#Q"/><use xlink:href="#R"/><use xlink:href="#S"/><use xlink:href="#P" x="98.1"/><use xlink:href="#T"/><use xlink:href="#U"/><use xlink:href="#O" x="177.1"/><use xlink:href="#R" x="90.9"/><path d="M287.5 180.1c-.7 0-1-.3-1-1v-5.5c-.3.7-.9 1.2-1.5 1.6-.7.4-1.5.6-2.4.6-1 0-1.9-.2-2.7-.7s-1.4-1.2-1.8-2.1-.6-2-.6-3.2.2-2.3.6-3.2 1-1.6 1.8-2.1 1.7-.7 2.7-.7c.9 0 1.7.2 2.4.6s1.2 1 1.6 1.7v-1.2c0-.7.3-1 1-1 .6 0 1 .3 1 1v14.4c-.1.4-.4.8-1.1.8zm-4.5-5.9c1.1 0 2-.4 2.6-1.2.7-.8 1-1.9 1-3.3 0-1.5-.3-2.6-1-3.3a3.22 3.22 0 0 0-2.6-1.2c-1.1 0-2 .4-2.6 1.2s-1 1.9-1 3.3.3 2.5 1 3.3a3.22 3.22 0 0 0 2.6 1.2zm13.3 1.6c-2.8 0-4.2-1.5-4.2-4.6v-6.4c0-.7.3-1 1-1s1 .3 1 1v6.4c0 1 .2 1.8.6 2.3s1.1.7 2 .7c1 0 1.8-.3 2.4-1s.9-1.5.9-2.7v-5.8c0-.7.3-1 1-1 .6 0 1 .3 1 1v10c0 .7-.3 1-.9 1s-1-.3-1-1v-1.1a4.63 4.63 0 0 1-1.5 1.6c-.8.4-1.5.6-2.3.6zm14.6 0c-1.8 0-3.3-.5-4.4-1.6s-1.6-2.5-1.6-4.4c0-1.2.2-2.3.7-3.2s1.1-1.6 2-2.1c.8-.5 1.8-.8 2.9-.8 1.6 0 2.8.5 3.7 1.5s1.3 2.4 1.3 4.2c0 .5-.3.7-.8.7h-7.9c.1 1.3.4 2.3 1.2 3 .7.7 1.7 1 2.9 1 .5 0 1.1-.1 1.6-.2s1.1-.4 1.6-.7c.4-.2.7-.3.9-.1.2.1.4.4.4.7s-.2.6-.5.8c-.5.4-1.2.7-1.9.9-.8.2-1.5.3-2.1.3zm-.4-10.7c-1.1 0-2 .3-2.6 1s-1 1.6-1.1 2.7h7.1a4.67 4.67 0 0 0-.9-2.8 3.77 3.77 0 0 0-2.5-.9zm8.9 10.6c-.6 0-1-.3-1-1v-10c0-.7.3-1 .9-1s1 .3 1 1v1.2c.4-.7.8-1.2 1.5-1.6.6-.4 1.4-.6 2.2-.6 1.8 0 3 .8 3.5 2.4.4-.7.9-1.3 1.6-1.7s1.5-.6 2.4-.6c2.6 0 3.9 1.5 3.9 4.6v6.4c0 .7-.3 1-1 1-.6 0-1-.3-1-1v-6.3c0-1.1-.2-1.9-.6-2.4s-1-.8-1.9-.8-1.7.3-2.3 1-.8 1.6-.8 2.7v5.8c0 .7-.3 1-1 1-.6 0-1-.3-1-1v-6.3c0-1.1-.2-1.9-.6-2.4s-1-.8-1.9-.8c-1 0-1.7.3-2.3 1s-.8 1.6-.8 2.7v5.8c.2.6-.2.9-.8.9zm24.8.1c-1.8 0-3.3-.5-4.4-1.6s-1.6-2.5-1.6-4.4c0-1.2.2-2.3.7-3.2s1.1-1.6 2-2.1 1.8-.8 2.9-.8c1.6 0 2.8.5 3.7 1.5s1.3 2.4 1.3 4.2c0 .5-.3.7-.8.7h-7.9c.1 1.3.4 2.3 1.2 3 .7.7 1.7 1 2.9 1 .5 0 1.1-.1 1.6-.2s1.1-.4 1.6-.7c.4-.2.7-.3.9-.1.2.1.4.4.4.7s-.2.6-.5.8c-.5.4-1.2.7-1.9.9s-1.4.3-2.1.3zm-.3-10.7c-1.1 0-2 .3-2.6 1s-1 1.6-1.1 2.7h7.1a4.67 4.67 0 0 0-.9-2.8c-.5-.7-1.5-.9-2.5-.9zm8.7 10.6c-.6 0-1-.3-1-1v-10c0-.7.3-1 .9-1s1 .3 1 1v1.2c.4-.7.9-1.3 1.6-1.7s1.5-.6 2.4-.6c2.8 0 4.2 1.5 4.2 4.6v6.4c0 .7-.3 1-1 1s-1-.3-1-1v-6.3c0-1.1-.2-1.9-.6-2.4s-1.1-.8-2-.8c-1.1 0-1.9.3-2.6 1s-.9 1.5-.9 2.7v5.8c0 .8-.3 1.1-1 1.1zM63.2 204.6c-1.2 0-2-.3-2.6-1s-.9-1.7-.9-3v-12.2c0-.7.3-1 1-1s1 .3 1 1v12.1c0 1.7.7 2.6 2 2.6h.4.3c.2 0 .3 0 .4.1s.1.3.1.6c0 .5-.3.9-.8.9-.1 0-.3.1-.4.1-.2-.2-.4-.2-.5-.2z"/><use xlink:href="#P" x="-36.1" y="28.8"/><use xlink:href="#V"/><path d="M102.7 204.6c-1.2 0-2.2-.3-3-.8s-1.5-1.2-2-2.1-.7-2-.7-3.2c0-1.9.5-3.3 1.5-4.4s2.4-1.6 4.2-1.6c.6 0 1.2.1 1.8.3s1.2.5 1.7.9c.3.2.4.4.3.7 0 .3-.2.5-.4.6s-.5.1-.8-.1c-.4-.3-.9-.5-1.3-.7-.4-.1-.8-.2-1.2-.2-1.2 0-2.2.4-2.8 1.1-.7.8-1 1.9-1 3.3s.3 2.5 1 3.3 1.6 1.2 2.8 1.2c.4 0 .8-.1 1.2-.2s.9-.4 1.3-.7c.3-.2.6-.2.8-.1.2.2.3.4.4.7 0 .3-.1.5-.3.7-.5.4-1.1.7-1.7.9-.7.3-1.3.4-1.8.4zm7.1-14.7c-.8 0-1.3-.4-1.3-1.2s.4-1.2 1.3-1.2c.8 0 1.3.4 1.3 1.2s-.5 1.2-1.3 1.2zm0 14.6c-.6 0-1-.4-1-1.1v-9.8c0-.7.3-1 1-1s1 .3 1 1v9.8c0 .7-.4 1.1-1 1.1zm5.6 0c-.7 0-1-.3-1-1v-10c0-.7.3-1 .9-1s1 .3 1 1v1.3a3.53 3.53 0 0 1 1.5-1.7c.7-.4 1.5-.6 2.4-.6.5 0 .8.2.8.8s-.2.9-.9.9h-.4c-1.1.1-1.9.4-2.5 1s-.9 1.4-.9 2.5v5.8c.1.7-.3 1-.9 1zm12.4.1c-1.2 0-2.2-.3-3-.8s-1.5-1.2-2-2.1-.7-2-.7-3.2c0-1.9.5-3.3 1.5-4.4s2.4-1.6 4.2-1.6c.6 0 1.2.1 1.8.3s1.2.5 1.7.9c.3.2.4.4.3.7 0 .3-.2.5-.4.6s-.5.1-.8-.1c-.4-.3-.9-.5-1.3-.7-.4-.1-.8-.2-1.2-.2-1.2 0-2.2.4-2.8 1.1-.7.8-1 1.9-1 3.3s.3 2.5 1 3.3 1.6 1.2 2.8 1.2c.4 0 .8-.1 1.2-.2s.9-.4 1.3-.7c.3-.2.6-.2.8-.1.2.2.3.4.4.7 0 .3-.1.5-.3.7-.5.4-1.1.7-1.7.9-.7.3-1.2.4-1.8.4z"/><use xlink:href="#W"/><path d="M148.4 189.9c-.8 0-1.3-.4-1.3-1.2s.4-1.2 1.3-1.2c.8 0 1.3.4 1.3 1.2-.1.8-.5 1.2-1.3 1.2zm0 14.6c-.6 0-1-.4-1-1.1v-9.8c0-.7.3-1 1-1s1 .3 1 1v9.8c0 .7-.4 1.1-1 1.1zm9.3.1c-1.4 0-2.4-.4-3.1-1.1s-1-1.8-1-3.2v-6.1H152c-.6 0-.8-.3-.8-.8s.3-.7.8-.7h1.6V190c0-.7.3-1 1-1 .6 0 1 .3 1 1v2.8h3c.6 0 .8.2.8.7s-.3.8-.8.8h-3v5.9c0 .9.2 1.6.6 2.1s1 .7 1.9.7c.3 0 .6 0 .8-.1s.4-.1.6-.1c.1 0 .3 0 .4.1s.1.3.1.6c0 .2 0 .4-.1.5-.1.2-.2.3-.4.3-.2.1-.4.1-.8.2s-.8.1-1 .1z"/><use xlink:href="#P" x="58.5" y="28.8"/><use xlink:href="#T" x="-45.8" y="28.8"/><use xlink:href="#X"/><use xlink:href="#P" x="103.6" y="28.8"/><path d="M220.7 204.5c-.7 0-1-.3-1-1v-10c0-.7.3-1 .9-1s1 .3 1 1v1.3a3.53 3.53 0 0 1 1.5-1.7c.7-.4 1.5-.6 2.4-.6.5 0 .8.2.8.8s-.2.9-.9.9h-.4c-1.1.1-1.9.4-2.5 1s-.9 1.4-.9 2.5v5.8c0 .7-.3 1-.9 1zm16.8 4.4c-.7 0-1-.3-1-1v-5.5c-.3.7-.9 1.2-1.5 1.6-.7.4-1.5.6-2.4.6-1 0-1.9-.2-2.7-.7s-1.4-1.2-1.8-2.1-.6-2-.6-3.2.2-2.3.6-3.2 1-1.6 1.8-2.1 1.7-.7 2.7-.7c.9 0 1.7.2 2.4.6s1.2 1 1.6 1.7v-1.2c0-.7.3-1 1-1 .6 0 1 .3 1 1v14.4c-.1.4-.5.8-1.1.8zM233 203c1.1 0 2-.4 2.6-1.2.7-.8 1-1.9 1-3.3 0-1.5-.3-2.6-1-3.3a3.22 3.22 0 0 0-2.6-1.2c-1.1 0-2 .4-2.6 1.2s-1 1.9-1 3.3.3 2.5 1 3.3a3.22 3.22 0 0 0 2.6 1.2z"/><use xlink:href="#Q" x="87.3" y="28.8"/><use xlink:href="#R" x="87.3" y="28.8"/><use xlink:href="#X" x="82.2"/><use xlink:href="#N" x="228.9" y="28.8"/><use xlink:href="#P" x="194.2" y="28.8"/><use xlink:href="#S" x="123.1" y="28.8"/><path d="M328.6 204.6c-1.4 0-2.4-.4-3.1-1.1s-1-1.8-1-3.2v-6.1h-1.6c-.6 0-.8-.3-.8-.8s.3-.7.8-.7h1.6V190c0-.7.3-1 1-1 .6 0 1 .3 1 1v2.8h3c.6 0 .8.2.8.7s-.3.8-.8.8h-3v5.9c0 .9.2 1.6.6 2.1s1 .7 1.9.7c.3 0 .6 0 .8-.1s.4-.1.6-.1c.1 0 .3 0 .4.1s.1.3.1.6c0 .2 0 .4-.1.5-.1.2-.2.3-.4.3-.2.1-.4.1-.8.2s-.7.1-1 .1zm8.5 0c-1.1 0-2.1-.2-3-.7-.8-.5-1.5-1.2-1.9-2.1s-.7-2-.7-3.2.2-2.3.7-3.2 1.1-1.6 1.9-2.1 1.8-.7 3-.7c1.1 0 2.1.2 2.9.7s1.5 1.2 1.9 2.1c.5.9.7 2 .7 3.2s-.2 2.3-.7 3.2-1.1 1.6-1.9 2.1c-.8.4-1.8.7-2.9.7zm0-1.6c1.1 0 2-.4 2.6-1.2s1-1.9 1-3.3c0-1.5-.3-2.6-1-3.3s-1.5-1.2-2.6-1.2-2 .4-2.6 1.2-1 1.9-1 3.3.3 2.5 1 3.3c.6.8 1.5 1.2 2.6 1.2z"/><use xlink:href="#Y"/><use xlink:href="#P" x="-32.2" y="57.6"/><use xlink:href="#Z"/><path d="M106.9 237.7c-.7 0-1-.3-1-1v-5.5c-.3.7-.9 1.2-1.5 1.6-.7.4-1.5.6-2.4.6-1 0-1.9-.2-2.7-.7s-1.4-1.2-1.8-2.1-.6-2-.6-3.2.2-2.3.6-3.2 1-1.6 1.8-2.1 1.7-.7 2.7-.7c.9 0 1.7.2 2.4.6s1.2 1 1.6 1.7v-1.2c0-.7.3-1 1-1 .6 0 1 .3 1 1v14.4c-.2.4-.5.8-1.1.8zm-4.6-5.9c1.1 0 2-.4 2.6-1.2.7-.8 1-1.9 1-3.3 0-1.5-.3-2.6-1-3.3a3.22 3.22 0 0 0-2.6-1.2c-1.1 0-2 .4-2.6 1.2s-1 1.9-1 3.3.3 2.5 1 3.3a3.22 3.22 0 0 0 2.6 1.2z"/><use xlink:href="#W" x="-22.5" y="28.8"/><use xlink:href="#a"/><use xlink:href="#V" x="50.6" y="28.8"/><path d="M146.6 233.4c-1.4 0-2.4-.4-3.1-1.1s-1-1.8-1-3.2V223h-1.6c-.6 0-.8-.3-.8-.8s.3-.7.8-.7h1.6v-2.8c0-.7.3-1 1-1 .6 0 1 .3 1 1v2.8h3c.6 0 .8.2.8.7s-.3.8-.8.8h-3v5.9c0 .9.2 1.6.6 2.1s1 .7 1.9.7c.3 0 .6 0 .8-.1s.4-.1.6-.1c.1 0 .3 0 .4.1s.1.3.1.6c0 .2 0 .4-.1.5-.1.2-.2.3-.4.3-.2.1-.4.1-.8.2s-.7.2-1 .2zm7.4 0a4.65 4.65 0 0 1-2.1-.5c-.6-.3-1.1-.7-1.5-1.3-.4-.5-.6-1.2-.6-1.8 0-.8.2-1.5.7-2 .4-.5 1.2-.9 2.2-1.1s2.4-.3 4.2-.3h.8v-.7c0-1-.2-1.7-.6-2.1s-1.1-.7-2-.7c-.6 0-1.1.1-1.7.2s-1.2.4-1.8.7c-.3.1-.5.2-.7.1a.78.78 0 0 1-.4-.4c-.1-.2-.1-.4 0-.6s.2-.4.5-.5c.7-.4 1.4-.6 2.1-.8s1.4-.2 2-.2c1.5 0 2.6.4 3.3 1.1s1.1 1.9 1.1 3.4v6.5c0 .7-.3 1-.9 1s-.9-.3-.9-1v-1.2c-.3.7-.8 1.2-1.4 1.6a4.38 4.38 0 0 1-2.3.6zm.3-1.5c1 0 1.7-.3 2.4-1 .6-.7.9-1.5.9-2.5v-.7h-.7c-1.3 0-2.3.1-3.1.2-.7.1-1.3.3-1.6.6s-.4.7-.4 1.2c0 .7.2 1.2.7 1.6.4.4 1 .6 1.8.6z"/><use xlink:href="#N" x="103.4" y="57.6"/><path d="M175.3 233.4a4.65 4.65 0 0 1-2.1-.5c-.6-.3-1.1-.7-1.5-1.3-.4-.5-.6-1.2-.6-1.8 0-.8.2-1.5.7-2 .4-.5 1.2-.9 2.2-1.1s2.4-.3 4.2-.3h.8v-.7c0-1-.2-1.7-.6-2.1s-1.1-.7-2-.7c-.6 0-1.1.1-1.7.2s-1.2.4-1.8.7c-.3.1-.5.2-.7.1a.78.78 0 0 1-.4-.4c-.1-.2-.1-.4 0-.6s.2-.4.5-.5c.7-.4 1.4-.6 2.1-.8s1.4-.2 2-.2c1.5 0 2.6.4 3.3 1.1s1.1 1.9 1.1 3.4v6.5c0 .7-.3 1-.9 1s-.9-.3-.9-1v-1.2c-.3.7-.8 1.2-1.4 1.6a4.38 4.38 0 0 1-2.3.6zm.3-1.5c1 0 1.7-.3 2.4-1 .6-.7.9-1.5.9-2.5v-.7h-.7c-1.3 0-2.3.1-3.1.2-.7.1-1.3.3-1.6.6s-.4.7-.4 1.2c0 .7.2 1.2.7 1.6.4.4 1.1.6 1.8.6zm1.5-12.1c-.1.2-.3.3-.6.3a.55.55 0 0 1-.5-.3c-.1-.2-.1-.4 0-.6l2-3.9c.1-.3.3-.4.6-.5.2 0 .4 0 .6.1s.3.3.4.5 0 .4-.1.7l-2.4 3.7z"/><use xlink:href="#V" x="104.4" y="28.8"/><use xlink:href="#U" x="-29.8" y="57.6"/><path d="M218.4 233.4c-1.2 0-2-.3-2.6-1s-.9-1.7-.9-3v-12.2c0-.7.3-1 1-1s1 .3 1 1v12.1c0 1.7.7 2.6 2 2.6h.4.3c.2 0 .3 0 .4.1s.1.3.1.6c0 .5-.3.9-.8.9-.1 0-.3.1-.4.1-.2-.2-.3-.2-.5-.2zm10.8-.1c-.6 0-1-.3-1-1v-10c0-.7.3-1 .9-1s1 .3 1 1v1.2c.4-.7.8-1.2 1.5-1.6.6-.4 1.4-.6 2.2-.6 1.8 0 3 .8 3.5 2.4.4-.7.9-1.3 1.6-1.7s1.5-.6 2.4-.6c2.6 0 3.9 1.5 3.9 4.6v6.4c0 .7-.3 1-1 1-.6 0-1-.3-1-1V226c0-1.1-.2-1.9-.6-2.4s-1-.8-1.9-.8-1.7.3-2.3 1-.8 1.6-.8 2.7v5.8c0 .7-.3 1-1 1-.6 0-1-.3-1-1V226c0-1.1-.2-1.9-.6-2.4s-1-.8-1.9-.8c-1 0-1.7.3-2.3 1s-.8 1.6-.8 2.7v5.8c.2.7-.2 1-.8 1z"/><use xlink:href="#Q" x="93.9" y="57.6"/><use xlink:href="#Z" x="178.3"/><use xlink:href="#b"/><path d="M294.6 233.4c-1.1 0-2.1-.2-3-.7-.8-.5-1.5-1.2-1.9-2.1s-.7-2-.7-3.2.2-2.3.7-3.2 1.1-1.6 1.9-2.1 1.8-.7 3-.7c1.1 0 2.1.2 2.9.7s1.5 1.2 1.9 2.1c.5.9.7 2 .7 3.2s-.2 2.3-.7 3.2-1.1 1.6-1.9 2.1c-.7.4-1.7.7-2.9.7zm0-1.6c1.1 0 2-.4 2.6-1.2.7-.8 1-1.9 1-3.3 0-1.5-.3-2.6-1-3.3a3.22 3.22 0 0 0-2.6-1.2c-1.1 0-2 .4-2.6 1.2s-1 1.9-1 3.3.3 2.5 1 3.3a3.22 3.22 0 0 0 2.6 1.2z"/><use xlink:href="#b" x="33.5"/><use xlink:href="#U" x="91.4" y="57.6"/><path d="M67.2 262.2c-1.7 0-3.1-.4-4.3-1.1s-2.1-1.7-2.7-3-.9-2.8-.9-4.6.3-3.3.9-4.6 1.5-2.3 2.7-3 2.6-1.1 4.3-1.1c1 0 1.9.1 2.8.4s1.7.7 2.3 1.2c.3.2.4.4.5.7 0 .3 0 .5-.1.7s-.3.3-.5.4-.5 0-.8-.2c-1.1-.9-2.5-1.4-4.1-1.4-1.9 0-3.4.6-4.4 1.8s-1.5 2.9-1.5 5.1.5 3.9 1.5 5.1 2.5 1.8 4.4 1.8c1.6 0 3-.5 4.2-1.4.3-.2.5-.3.8-.2.2 0 .4.2.5.4s.2.4.1.6c0 .2-.2.5-.4.6-.7.6-1.5 1-2.4 1.3s-1.8.5-2.9.5zm9.6-14.7c-.8 0-1.3-.4-1.3-1.2s.4-1.2 1.3-1.2c.8 0 1.3.4 1.3 1.2-.1.8-.5 1.2-1.3 1.2zm0 14.6c-.6 0-1-.4-1-1.1v-9.8c0-.7.3-1 1-1s1 .3 1 1v9.8c-.1.7-.4 1.1-1 1.1zm9.8.1c-1.8 0-3.3-.5-4.4-1.6s-1.6-2.5-1.6-4.4c0-1.2.2-2.3.7-3.2s1.1-1.6 2-2.1c.8-.5 1.8-.8 2.9-.8 1.6 0 2.8.5 3.7 1.5s1.3 2.4 1.3 4.2c0 .5-.3.7-.8.7h-7.9c.1 1.3.4 2.3 1.2 3 .7.7 1.7 1 2.9 1 .5 0 1.1-.1 1.6-.2s1.1-.4 1.6-.7c.4-.2.7-.3.9-.1.2.1.4.4.4.7s-.2.6-.5.8c-.5.4-1.2.7-1.9.9s-1.4.3-2.1.3zm-.3-10.7c-1.1 0-2 .3-2.6 1s-1 1.6-1.1 2.7h7.1a4.67 4.67 0 0 0-.9-2.8c-.6-.5-1.5-.9-2.5-.9z"/><use xlink:href="#S" x="-93.1" y="86.4"/><use xlink:href="#Y" x="48.1" y="28.8"/><use xlink:href="#a" x="-6.1" y="28.8"/><path d="M128.1 262.2a4.65 4.65 0 0 1-2.1-.5c-.6-.3-1.1-.7-1.5-1.3-.4-.5-.6-1.2-.6-1.8 0-.8.2-1.5.7-2 .4-.5 1.2-.9 2.2-1.1s2.4-.3 4.2-.3h.8v-.7c0-1-.2-1.7-.6-2.1s-1.1-.7-2-.7c-.6 0-1.1.1-1.7.2s-1.2.4-1.8.7c-.3.1-.5.2-.7.1a.78.78 0 0 1-.4-.4c-.1-.2-.1-.4 0-.6s.2-.4.5-.5c.7-.4 1.4-.6 2.1-.8s1.4-.2 2-.2c1.5 0 2.6.4 3.3 1.1s1.1 1.9 1.1 3.4v6.5c0 .7-.3 1-.9 1s-.9-.3-.9-1V260c-.3.7-.8 1.2-1.4 1.6a4.38 4.38 0 0 1-2.3.6zm.3-1.5c1 0 1.7-.3 2.4-1 .6-.7.9-1.5.9-2.5v-.7h-.7c-1.3 0-2.3.1-3.1.2-.7.1-1.3.3-1.6.6s-.4.7-.4 1.2c0 .7.2 1.2.7 1.6.4.4 1 .6 1.8.6z"/><use xlink:href="#U" x="-88.6" y="86.4"/><use xlink:href="#S" x="-31.1" y="86.4"/><use xlink:href="#Y" x="116.3" y="28.8"/><path d="M190.6 262.2a4.65 4.65 0 0 1-2.1-.5c-.6-.3-1.1-.7-1.5-1.3-.4-.5-.6-1.2-.6-1.8 0-.8.2-1.5.7-2 .4-.5 1.2-.9 2.2-1.1s2.4-.3 4.2-.3h.8v-.7c0-1-.2-1.7-.6-2.1s-1.1-.7-2-.7c-.6 0-1.1.1-1.7.2s-1.2.4-1.8.7c-.3.1-.5.2-.7.1a.78.78 0 0 1-.4-.4c-.1-.2-.1-.4 0-.6s.2-.4.5-.5c.7-.4 1.4-.6 2.1-.8s1.4-.2 2-.2c1.5 0 2.6.4 3.3 1.1s1.1 1.9 1.1 3.4v6.5c0 .7-.3 1-.9 1s-.9-.3-.9-1V260c-.3.7-.8 1.2-1.4 1.6a4.38 4.38 0 0 1-2.3.6zm.3-1.5c1 0 1.7-.3 2.4-1 .6-.7.9-1.5.9-2.5v-.7h-.7c-1.3 0-2.3.1-3.1.2-.7.1-1.3.3-1.6.6s-.4.7-.4 1.2c0 .7.2 1.2.7 1.6.4.4 1.1.6 1.8.6z"/><use xlink:href="#T" x="-20.7" y="86.4"/><path d="M214.9 262.2a4.65 4.65 0 0 1-2.1-.5c-.6-.3-1.1-.7-1.5-1.3-.4-.5-.6-1.2-.6-1.8 0-.8.2-1.5.7-2 .4-.5 1.2-.9 2.2-1.1s2.4-.3 4.2-.3h.8v-.7c0-1-.2-1.7-.6-2.1s-1.1-.7-2-.7c-.6 0-1.1.1-1.7.2s-1.2.4-1.8.7c-.3.1-.5.2-.7.1a.78.78 0 0 1-.4-.4c-.1-.2-.1-.4 0-.6s.2-.4.5-.5c.7-.4 1.4-.6 2.1-.8s1.4-.2 2-.2c1.5 0 2.6.4 3.3 1.1s1.1 1.9 1.1 3.4v6.5c0 .7-.3 1-.9 1s-.9-.3-.9-1V260c-.3.7-.8 1.2-1.4 1.6-.7.4-1.5.6-2.3.6zm.3-1.5c1 0 1.7-.3 2.4-1 .6-.7.9-1.5.9-2.5v-.7h-.7c-1.3 0-2.3.1-3.1.2-.7.1-1.3.3-1.6.6s-.4.7-.4 1.2c0 .7.2 1.2.7 1.6.4.4 1 .6 1.8.6zm9.7 1.4c-.4 0-.7-.1-1-.4-.2-.2-.4-.6-.4-.9 0-.4.1-.7.4-.9a1.53 1.53 0 0 1 1-.4c.4 0 .7.1.9.4s.3.6.3.9c0 .4-.1.7-.3.9-.2.3-.5.4-.9.4z"/></svg>