<?xml version="1.0" encoding="utf-8"?>
<!-- Generator: Adobe Illustrator 24.2.0, SVG Export Plug-In . SVG Version: 6.00 Build 0)  -->
<svg version="1.1" id="Layer_1" xmlns="http://www.w3.org/2000/svg" xmlns:xlink="http://www.w3.org/1999/xlink" x="0px" y="0px"
	 viewBox="0 0 65 107" style="enable-background:new 0 0 65 107;" xml:space="preserve">
<style type="text/css">
	.st0{fill:#1D76B8;}
</style>
<g>
	<g>
		<g>
			<g>
				<g>
					<g>
						<path class="st0" d="M46.6,93.1c-0.1,0.4,0.1,0,0.4-0.1L46.6,93.1z"/>
						<path class="st0" d="M47,93l0.3-0.1C47.2,92.9,47.1,92.9,47,93z"/>
						<path class="st0" d="M49.6,91.9c-0.5,0.5-1.3,0.6-1.5,1.1C48.8,92.8,49.6,92.3,49.6,91.9z"/>
						<polygon class="st0" points="48.7,92.1 48.7,92.3 49,91.8 						"/>
						<polygon class="st0" points="48.2,92.2 48.3,92.2 49,91.6 						"/>
						<path class="st0" d="M47.9,90.6l0.6,0c0.6,0.3-0.4,0.3-0.1,0.5c0.8,0.1,0.3-0.5,1.3-0.3l1.8,0.4l-1.6,0.7c0,0,0,0,0,0
							c0,0,0,0,0,0l0.5-0.1l-0.7-1c-0.2-0.2-1.5-0.2-1.3-0.5C47.6,90.1,48.3,90.5,47.9,90.6z"/>
						<path class="st0" d="M16.6,69.7c0,0,0-0.1,0-0.1C16.5,69.7,16.5,69.7,16.6,69.7z"/>
						<path class="st0" d="M13.6,59.1c0-0.2,0-0.3,0-0.5c0,0-0.1,0.1-0.1,0.2L13.6,59.1z"/>
						<path class="st0" d="M20.6,75.3c0.1,0.2,0.1,0.3,0.2,0.4C20.7,75.6,20.7,75.5,20.6,75.3z"/>
						<path class="st0" d="M28.3,60.4c0,0,0-0.1,0-0.1c0,0,0,0,0,0L28.3,60.4L28.3,60.4z"/>
						<path class="st0" d="M15.3,46.4c0.1-0.2,0.2-0.3,0.2-0.5C15.4,46.2,15.4,46.3,15.3,46.4z"/>
						<path class="st0" d="M23,78.3c0,0-0.1-0.1-0.1-0.1C22.9,78.3,23,78.3,23,78.3L23,78.3L23,78.3z"/>
						<path class="st0" d="M13.6,62.8c0-0.2,0-0.3,0-0.4C13.5,62.5,13.5,62.7,13.6,62.8z"/>
						<path class="st0" d="M38.7,87.7c-0.2-0.1-0.3-0.1-0.4-0.1C38.4,87.6,38.5,87.7,38.7,87.7z"/>
						<path class="st0" d="M35.4,86.1L35.4,86.1C35.4,86.1,35.4,86.1,35.4,86.1z"/>
						<path class="st0" d="M33.3,84.9L33.3,84.9C33.3,84.9,33.3,84.9,33.3,84.9z"/>
						<path class="st0" d="M38.3,87.5c-0.2-0.3-0.1-0.7-0.7-0.4l0,0.1c-0.2-0.2-0.6-0.2-0.8-0.3c0,0.1,0,0.1,0,0.2
							c0.1,0.1,0.3,0.2,0.5,0.3C37.6,87.6,37.9,87.5,38.3,87.5z"/>
						<path class="st0" d="M16.7,69.7C16.6,69.8,16.7,70,16.7,69.7L16.7,69.7z"/>
						<path class="st0" d="M18.6,72.6c-0.1-0.1-0.1-0.2-0.2-0.3C18.5,72.4,18.5,72.5,18.6,72.6z"/>
						<path class="st0" d="M26.5,82.3C26.5,82.3,26.4,82.3,26.5,82.3C26.4,82.3,26.4,82.3,26.5,82.3z"/>
						<path class="st0" d="M18.3,72l0.2,0.3C18.4,72.2,18.3,72.1,18.3,72z"/>
						<path class="st0" d="M23.9,79.5C23.9,79.5,23.9,79.5,23.9,79.5C23.9,79.5,23.9,79.5,23.9,79.5z"/>
						<path class="st0" d="M12.8,25.6c-0.1,0.2-0.2,0.3-0.4,0.5c0.1,0.6,0.4-0.9,0.4-0.2c0.1-0.2,0.1-0.4,0.1-0.6l-0.4,0.2
							C12.5,26,12.8,25.4,12.8,25.6z"/>
						<path class="st0" d="M25.4,60.2L25.4,60.2c0-0.1,0.1-0.2-0.3-0.2c-0.3,0.2,0.2,0.5-0.4,0.8c0.1,0,0.3,0,0.4,0
							C24.9,60.6,25.1,60.4,25.4,60.2z"/>
						<path class="st0" d="M25.1,60.8L25.1,60.8c0,0,0.1,0.1,0.1,0.1c0.1,0,0.2,0,0.2,0C25.4,60.8,25.3,60.8,25.1,60.8z"/>
						<path class="st0" d="M10.1,33c0,0.1-0.1,0.2-0.1,0.2C10,33.1,10.1,33,10.1,33z"/>
						<path class="st0" d="M18.6,48.9c0,0.1,0,0.2,0,0.3C18.7,49,18.7,48.9,18.6,48.9z"/>
						<path class="st0" d="M30.4,58.9c0.1,0,0.2-0.1,0.2-0.1c0,0,0.1-0.1,0.1-0.1L30.4,58.9z"/>
						<path class="st0" d="M11.7,57.9c0.4-0.1-0.1-0.1-0.3-0.6L11,57.1C11.2,57.4,11.5,57.7,11.7,57.9z"/>
						<path class="st0" d="M13,25.4C13,25.4,13,25.4,13,25.4C13,25.4,13,25.4,13,25.4L13,25.4z"/>
						<path class="st0" d="M5.5,47c0-0.1,0-0.1,0-0.2C5.5,46.9,5.5,46.9,5.5,47z"/>
						<path class="st0" d="M27.3,60.7c0.5-0.1,0.9-0.2,1.4-0.4l-0.4,0C28.1,60.6,27.5,60.4,27.3,60.7z"/>
						<path class="st0" d="M17.3,62.1l0,0.3c0.9,0.1,1.7,0.5,2.5,0.8c0.8,0.3,1.7,0.4,2.4,0.2c1,0.5,1.4,0.3,1.7,0.2
							c0.3-0.1,0.6-0.3,1.6,0l-0.1-0.1c1.5,0,3.1-0.3,4.7-0.9c1.5-0.6,3.1-1.5,4.3-2.9c1.2-1.4,1.9-3.1,2.1-4.8
							c0.2-1.6,0.1-3.2-0.2-4.6l0.2,0c-0.3-2.3-1-4.5-2.3-6.5c-1.2-2-2.9-3.9-5.4-5c-1.3-0.5-2.8-0.7-4.2-0.5
							c-1.4,0.2-2.7,0.8-3.7,1.5c-1,0.7-1.9,1.5-2.6,2.4C17.3,43,16.7,44,16,44.9c-0.3,0.8,0.2,0.5,0,1.2c-0.2,0.3-0.5,0.9-0.6,0.8
							c0.2-0.6-0.1-0.4-0.1-0.6c-0.4,0.9-1.2,2-1.2,3l0.5-0.6c0,0.4-0.2,0.9-0.3,1.1c-0.1-0.2-0.5,0.2-0.4-0.1c0,1-0.1,1.3-0.3,1.6
							c-0.2,0.3-0.4,0.6-0.4,1.4c0.2,0.2,0.4,0.8,0.5,1.5c0.2,0.7,0.3,1.5,0.5,2.1c-0.1,0.2-0.1,0.4-0.1,0.6c0-0.9-0.4,0-0.3-1.1
							c-0.2,0.9,0.1,1.7,0,2.6c0.1-0.2,0.3-0.1,0.4,0.2c0,0.5-0.3,0.6-0.3,1.2l-0.2-0.6c-0.2,0.4,0.1,0.7,0.2,1.1
							c-0.2,0.1-0.1,1-0.4,0.9c0.4,0.8,0.3,1.1,0.7,1.9c0-0.9,0.3,0.2,0.5,0c-0.1-0.3-0.2-0.6-0.3-1c0.1,1.4-0.1-0.4-0.5-0.3
							c0.1-0.7,0.7,0.8,0.5-0.3c0.4,1.3,0.3,1.6,0.9,2.8c-0.3-0.8,0.3,0.1,0.3-0.4c0.3,1-0.1,0.3-0.2,0.6c0.2,0.5,0,0.8,0.4,1.2
							c0.2,0.9-0.3,0-0.3,0.4C15,66.3,15,64,14.3,64.5c-0.1-0.5-0.5-1-0.7-1.7c0,0.6-0.1,1.6,0.3,2.3l0.5-0.1c0.2,0.6,0.5,0.6,0.6,1
							c-0.2-0.2-0.3,0.3-0.1,0.7c0-0.1,0-0.3,0-0.3c0.3,0.8,0.6,0.8,1.1,1.7c-0.2-0.8-0.1-1-0.2-1.8c0.4,0.1,0.2,0.5,0.4,0.9
							c-0.1,0-0.1-0.1-0.1,0l0.3,0.4c0.2,1-0.5,0-0.3,0.9c0,0.6,0.5,0.7,0.5,1.2c0,0,0-0.1,0-0.1c0,0.1,0.1,0.2,0.1,0.2c0,0,0,0,0,0
							c0.2,0.5,0.5,1,0.8,1c-0.1,0.1,0.2,0.4,0.4,0.5c0.2,0.2,0.8,0.7,0.7,1.3l0,0c0.3,0.6,0.5,1.1,0.3,1.1c0.2,0.3,0.3,0.7,0.5,1
							L19,74.7c0.6,0.8,0.7,0.6,1.4,1c0.3,0.7,1.2,1.6,1.5,1.9c0,0.1,0.1,0.2,0.2,0.3L22,77.4c0.5,0.6,0.6,0.4,0.9,0.8
							c0-0.1,0-0.1,0.1,0.1c0.1,0.1,0.1,0.1,0.2,0.2c0,0-0.1-0.1-0.2-0.2l0,0.1c0.2,0.7,0.8,0.6,1.1,1.1c-0.1,0-0.1-0.1-0.2-0.1
							c0.2,0.3,0.3,1,0.6,0.9c0,0.1,0.2,0.1,0.3,0.2l0.2,0.2c-0.1-0.1-0.1-0.2-0.2-0.2c0.2,0.1,0.4,0.1,0.3,0.2
							c0.2,0.2,0.4,0.5,0.6,0.7c0.1,0.2,0.3,0.3,0.5,0.4l0,0.2c0.3,0.2,0.2,0.3,0.2,0.3c0.6,1.2,1.6,1,2.3,2.1c0.3,0,0-0.4,0-0.5
							c0.3,0,0.9,0.3,1.3,0.4c0.3,0.6,1.6,1.8,1.1,2c0.9,0.6-0.1-0.4,0.4-0.2l0.1,0.1c-0.3-0.2-0.4-0.5-0.5-0.8
							c0.1-0.2,0.9,0.2,1.1,0.4L31.9,86c0.9,0.4,1-0.1,1.7-0.1c0.6,0.5,0.1,0.5,0.1,0.9l0.8,0.3l-0.1,0.2c0.5,0.2,0.7,0,1.3,0.5
							c-0.6,0,0.9,0.7,0.1,0.7c0.3,0.2,0.7-0.1,0.7,0.2c0.4-0.1-0.3-0.3-0.4-0.4c0-0.4,0.9,0.2,1.4,0.3c0,0.2-0.4,0.1,0.1,0.4
							c0.2-0.1,0.5,0,0.8,0.2c0.1-0.2,0.6,0.2,0.9,0.3c-0.3-0.2-0.7-0.5-0.4-0.7c0.3,0,0.5,0.1,1.1,0.3L39.4,89
							c0.6-0.1,0.8,0.6,1.5,0.7c-0.4,0-0.6,0-0.9,0.1c0.4,0,1.1,0,1.7,0.1l0.5,0.5c0.1-0.1,0.7,0.2,0.8,0c0.7,0.4-0.7,0.1-0.8,0.3
							c0.9,0.4,0.9-0.2,1.7,0.4l-0.4,0.1c0.3,0.1,1,0.1,1,0.3c0-0.1-0.1-0.1-0.3-0.1c0.3-0.4,1.5,0,1.5-0.6l-0.4-0.1
							c0.7,0,1.2-0.2,1.7,0c0.4,0.2-0.3,0.3-0.6,0.4c0.6,0.1,0.6-0.4,1.3-0.3c-0.4-0.1-0.3-0.3,0-0.4c-0.4-0.1-1.3-0.4-1.2-0.1
							l0.1,0.1c-0.1,0.1-0.3,0.1-0.4,0.2c-0.6-0.1-0.2-0.3-0.3-0.4c-1-0.3-0.2,0.5-1.1,0.3l-0.1-0.1c-0.5,0-1.1-0.1-1.3,0.1
							c-0.3-0.4-1-0.1-1.4-0.5c0.1-0.7,1.5,0.5,2.1,0.2c-0.4-0.3,0.3-0.3,0.6-0.4l-1.5-0.1c-0.1-0.1-0.4-0.6-0.7-0.4l0.1,0.1
							c-0.6-0.1-0.5,0.2-1,0c-0.1-0.1,0.1-0.2,0.2-0.2c-0.4-0.2-0.4,0-0.8,0c-0.4-0.2,0.3-0.2,0-0.4c-0.6,0.1-0.8-0.4-1.2-0.5
							c0,0.5-2-0.2-1.2,0.5c-0.4,0-0.8-0.1-1.2-0.2c-0.2-0.3,1-0.2,0.8-0.7c0.3,0.1,0.6,0.2,0.8,0.4c0-0.5-1.9-0.4-2.2-1.2
							c-0.4-0.2-0.4-0.1-1.1-0.8l-0.1,0.5c-0.4-0.3-0.4-0.6-0.4-0.7c-0.3-0.1-0.5-0.2-0.7-0.4c0.1,0,0.2,0,0.4,0
							c-0.2-0.4-0.3-0.4-0.5-0.3c-0.2,0-0.5-0.2-0.7-0.3l0.3,0c-0.2-0.1-0.4-0.1-0.4-0.1c-0.1-0.1-0.2-0.1-0.3-0.1
							c0,0.1,0.1,0.4,0.4,0.8c-0.8-0.7-1.7-1.1-2.2-2c0.1-0.1,0.5,0,0.4-0.1c-0.3-0.3-0.9-0.4-1-0.2c-0.1-0.1-0.2-0.1-0.2-0.1
							c0-0.1,0-0.3-0.2-0.4c0-0.1-0.1-0.1-0.2-0.3c-0.3,0.2-0.9-0.5-1.2-0.5c0.1,0.2,0.4,0.3,0.6,0.5c-0.4,0-0.9,0-1-0.4
							c0.7,0.3-0.3-0.8,0.5-0.2c-0.3-0.8-0.5,0-1-0.6L28,80.9c0.2-0.1,0.7,0.4,0.7,0.3L28.4,81c0.4,0.1,1.3,1,2.2,1.3l-1.2-1.1
							c-1.8-1.1-3.4-3.1-4.9-4l0.1,0.1c0,0-0.1,0-0.2,0.1l0-0.1L24,77c-0.1-0.4-0.5-1.1-0.7-1.7c0.1,0.4,0.1,0.4,0,0.6
							C23,76,22.9,76,22.6,75.5c0.1-0.1,0.4,0.2,0.2-0.3c0.1,0.2-0.2,0.2-0.3,0c-0.1-0.3-0.4-0.8-0.3-0.9c0.1,0.1,0.1,0.2,0.2,0.3
							c0.1,0.1-0.2-0.6,0.2-0.3l-0.4-0.5c-0.1-0.4,0.3,0,0.3-0.1c-0.6-0.7-1.3-0.9-1.9-1.6c0.1,0,0.5-0.2,0.4-0.2
							c-0.2-0.7-1.2-1-1.5-1.7c0.2,0,0.2,0.3,0.4,0.5c-1-2.2-1.7-4-1.9-6.2l-0.6-0.4c0-0.2,0.1-0.4,0.1-0.6c-0.3-2.3-0.8-4-0.9-6.2
							c0-0.7,0.3-0.4,0.4-0.7c0.1-0.7,0-1.2-0.1-1.7c-0.1-0.5-0.2-0.9-0.1-1.6c0.1,0.2,0.4,0.6,0.5,0c-0.1-0.1-0.3-0.2-0.1-0.6
							l0.1,0.2c0.3-0.3,0.2-0.7,0.4-1.3c0.2-0.6,0.3-1.2,0.4-1.8c0.1-0.6,0.1-1.2,0.2-1.8c0.6-1,0.4,0.3,0.5,0.2
							c-0.5,0.6-0.2,0.5-0.1,0.7c0-0.4,0.2-0.9,0.6-0.9c0.3-0.5,0.4-0.7,0.5-1.3c-0.1,0.3-0.4,0.4-0.3,0.1c0.4-0.3,1-1.4,1.2-1.1
							c0.4-0.5,0.9-1.1,1.4-1.5c0.5-0.5,1-0.9,1.6-1.2c0.5-0.3,1.1-0.5,1.6-0.5c0.5-0.1,1.1,0,1.6,0.2c0.4-0.1-0.2-0.2,0-0.2
							c0.6-0.1,0.4,0.3,0.9,0.3c-0.1,0-0.2,0.1-0.3,0.1c0.6,0.3,1.5,0.5,2.2,1c-0.3,0.1,0.3,0.6-0.3,0.2c0.3,0.3-0.2,1.3,0.1,1.4
							c0.2-0.3,0.4-0.6,0.5-0.9c0.1,0,0.4,0.4,0.4,0.3c0,0.4,0.1,0.9,0.2,1.1c-0.1,0.2-0.4-0.3-0.6-0.5c-0.4,0.2,0.4,1-0.2,0.9
							c0.4,0.5,0.1-0.2,0.5,0.1c0.1,0.2,0.2,0.4,0.2,0.5c0-0.2-0.1-0.3-0.1-0.5c0.4,0.4,0.7,0.4,0.8,1.1c0.2,0.2,0.4,0.3,0.7,0.5
							c-0.3,0.2,0.1,0.5,0.2,0.9l-0.3-0.1c0.2,0.4,0.2,0.6,0.1,1c-0.4-0.2-0.1-0.5-0.4-0.5l0.1,0.5c0.2-0.1,0.4,0.2,0.4-0.2
							c0.5,0.4,0.9,0.6,1,1.9c-0.2,0.6-0.4-0.6-0.7-0.3c0.1,1.3,1,1.5,1,2.3c-0.2,1,0.1,0.9-0.1,1.9c-0.1-0.3-0.4,0.6-0.7,0.7
							c0-0.1-0.1-0.3-0.1-0.4c0,0.3-0.2,0.5-0.3,0.3c0.3,0.1-0.2,1.1-0.5,1.7l0.3,0.1c-0.2,0.4-0.7,1.1-1.2,1.3
							c-0.6,0.5-0.4,0.6-0.8,1.2c-0.4,0-0.5-0.3-0.5-0.6c0.3,0,0.6-0.2,0.9-0.3c0.8-0.8,0.9-1.7,1.5-2.3c-0.3-0.7-0.3,0.5-0.8,0.7
							c0,0,0-0.1,0-0.1c0,0-0.1,0-0.1,0.1c0.2-0.3,0.4-0.7,0.2-1c-0.2,0.4,0.3,0.7-0.4,1c-0.2,0.5-0.9,0.3-1.1,0.4
							c-0.2,0.4,0.1,0.8-0.8,1.1l0.2-0.5c-0.9,0.4-0.2,0.7-1.1,1c0.3-0.1-0.2,0.4,0.4,0.2c-0.2,0.3-1,0.5-1.5,0.5
							c-0.1,0.1,0,0.1,0,0.2c0.7,0.1,0.9-0.4,1.5-0.3l0.3-0.5c0.6-0.1,0.8,0.2,0.5,0.4c0.1-0.1,0.3-0.2,0.4-0.2
							c0.3,0.5-0.7,0.1-0.8,0.6c0.1-0.1,0.3-0.1,0.4-0.2c0.3,0.3-0.8,0.7-1.4,0.8c-0.7,0-1.2,0-1.3-0.3c0.3-0.1,0.5-0.2,0.8-0.2
							c-0.4-0.1-1,0.3-1.5,0.3c0,0-0.1-0.1-0.1-0.1c0,0,0,0,0,0.1c-0.1,0-0.2,0-0.3-0.1c-0.4,0-1,0.2-1.4,0.1l0,0.2l0.1-0.1
							c0.4,0.1,0.9,0.2,0.6,0.4c-0.9,0.1-1.1-0.4-1.2-0.6c0.2-0.4,0.8,0.1,1.3,0c-0.3-0.3-0.9-0.1-1.7-0.4c0.4-0.4,1,0.1,1.2-0.3
							c-0.7-0.1-0.9,0.2-1.6-0.1c0.1-0.1,0.3-0.1,0.4-0.1c0.2,0,0.4-0.1,0.3-0.2c-0.1,0-0.3-0.1-0.4-0.2c1.1,0.1-0.1-0.5,0.7-0.5
							c-0.4-0.2-0.6,0.3-1.1-0.1c0.1,0.2,0.5,0.6,0,0.6l-0.6-0.2c-0.2-0.2,0.7-0.3,0.4-0.5c-0.2,0-0.4,0-0.6,0c0,0.1,0.3,0.3,0,0.4
							c-0.3-0.2-0.7,0.3-1.2,0.3c-0.4-0.1-0.6-0.3-0.7-0.4c-0.5,0-1-0.1-1.5-0.3c-0.3-0.1-0.5-0.2-0.8-0.2c-0.2-0.1-0.5-0.2-0.7-0.2
							c0.6,0.1,0.2-0.4,0-0.7c0.6,0.3,0.8,0,0.9-0.2c-0.4-0.2-0.8,0-0.7,0.2c-0.5-0.5-0.5,0-0.9-0.6c-0.2-0.3,0.4-0.2,0.3-0.4
							c-0.6-0.5-0.4,0.2-1-0.3c0.1,0,0.1,0,0.1-0.1c-0.3-0.3-0.7-0.5-0.9-0.5c0-0.6-1-0.9-0.6-1.1c-0.8-0.7-0.1,0.3-0.3,0.2
							c-0.5-0.2-0.9-0.9-0.9-1.1c0.2,0.2,0.4,0.3,0.5,0.5l0.1-0.4c-0.6-1.2-1.1-0.2-1.6-1.4c0.5,0.4,0.3,0,0.7,0.2
							c-0.2-0.1-0.7-1-0.5-0.3c-0.3-0.4-0.4-0.7-0.5-1c-0.3-0.3-0.6-0.6-0.9-0.8c-0.3-0.6-0.3-1.2-0.3-1.5C9.5,47.8,9.6,46.4,9,45
							l0,0.1c-0.1-1.2-0.3,0.6-0.5-0.6c0.4,0.1,0.1-0.8,0.3-1.2c0.1-1.5-0.5-2.5-0.2-3.9c0.1,0,0.2,0.1,0.2,0.4
							c0.1-0.5,0.1-1,0.1-1.4c0-0.5,0.1-0.9,0.1-1.4l0,0c0.5-1.4,0.4-2.8,0.7-4.4c0,0.1,0.2,0.2,0.2,0.3c0.3-0.7,0.7-1.9,0.5-2.6
							c0.7-0.8,0.1-0.6,0.9-1.7c0.1,0,0,0.1,0,0.2c0.3-0.5,0.4-0.9,0.7-1.5c0.3-1.3,0-1.8,0.8-3.2c0.5,0.2-0.3,0.9,0.1,1.1
							c0-0.3,0.1-0.6,0.4-0.9c0.1,0.3,0.1,0.1,0.2,0.4c0.3-0.2,0.1-1.4,0.1-1.4c-0.1-0.1-0.2,0-0.3,0.3c-0.1-0.5,0.7-1.4,0.9-2.1
							c-0.1,0.2-0.6,0.9-0.7,0.5c0.6-0.9,0.3-1.4,0.5-2.1c0.7-0.7,0,0.8,0.5,0.9c0.2-0.1,0.6-0.2,0.6,0.2c0.5-0.7,0.5-1.4,0.9-2
							l0.1,0.1c0.5-0.9,0.8-2.1,1.5-2.7l-0.4,0.3c0.1-0.2,0.4-0.6,0.4-1c0.1,0.1,0.7-0.3,0.6,0c-0.2-0.7,1.2-2.1,1.2-2.8
							c0.3-0.1,0.3,0.2,0.3,0.4c-0.5,0.4-0.7,0.6-0.8,1c0.4-0.4,0.7-0.6,0.8-0.5c0.1-0.6,0.9-1.7,0.9-2.1c0.4-0.2,0.8-0.4,0.9,0
							c1.1-1.3-1.2-0.1,0.2-1.4c0.8-0.4-0.4,0.9,0.6,0.1l-0.1,0.2c1.1,0,0.1-0.8,0.9-1.4c0.4,0.2-0.4,0.7,0.4,0.5
							C24,8.9,24,8.1,24.8,7.8l0,0.2c0.5-0.4,1.5-0.8,2-1.1c0.1,0.1,0,0.1-0.1,0.2c1-0.3,0.3-0.4,1.2-0.5L28,6.2
							c-0.4,0.1-1.3,0.2-1.7,0.7c0.4-0.5-1,0-1-0.5l0,0.2C23.7,6.9,22,8,20.4,9.1c-0.3,0.6-0.7,0.9-1.2,1.2
							c-0.4,0.3-0.9,0.7-1.2,1.3c0.2,0.5-0.1,0.2-0.8,1.2c0.3-0.5-0.2-0.3-0.5,0c-0.1,0.2-0.2,0.5-0.3,0.7c-0.3,0.1-1.5,1-1.5,1.6
							c-0.5,0.5,0-0.2,0-0.4c-0.4,0.1-0.2,0.6-0.4,0.7c0,0,0,0,0-0.1c-0.6,0.9-1,1.3-1.7,2.2c0.3,0.3-0.4,1-0.5,1.5
							c-0.1-0.2-0.5,0.4-0.7,0.7l0,0.7c0,0.6-0.6,0.6-0.8,1.3l0.2-0.1c-0.1,0.5-1,1.7-1.5,2.1c-0.6,2.5-1.4,4.3-2.3,6.1
							c-0.8,1.8-1.6,3.8-1.9,6.5c0.1,0.4,0.3-0.2,0.4,0.1c0,0.6-0.1,0.7-0.1,1.2c0.2-0.4,0-0.4,0.1-0.3l0-0.8c0,0,0,0.1,0.1,0
							c0-0.3-0.1-0.6,0-0.9c0,0.5,0.4,0.7,0.2,1.3c0-0.1,0-0.1-0.1-0.3c-0.1,0.5,0.1,0.6-0.1,1c-0.1,0.5,0,0.4-0.2,0.4
							c-0.1,0.5-0.2,1-0.3,1.5c0.4,0.8,0,1.7,0,2c-0.3-0.2-0.1-1-0.4-1.4l-0.2,0.6l0.2,0l0,0.8l0,0c0.1,0.1,0.2,0.2,0.1,0.4
							c0,0-0.1,0.1-0.1,0l0.2,0.6c-0.3-0.3,0,0.5-0.3,0.4c0,1,0.2,1.5,0.3,2.1c0.1,0.6,0.3,1.1,0.3,1.9c0.1-0.3,0.5,0.4,0.7,0.9
							c0,0.3,0,0.4-0.2,0.2l0.3,0.6c-0.1,0.5,0,0.9,0.2,1.3c0.2,0.4,0.4,0.9,0.6,1.5l-0.1,0c0.3,0.4,0.7,0.8,1,1.4l-0.3,0
							C8,53.7,8.4,53.2,8.8,54c0.2-0.2,0-0.7,0.2-0.9c-0.2,0.3,0.4,1.2,0.4,0.9c0.6,0.7,0.4,0.5,0.3,0.6c0.1,0.1,0.3,0.2,0.5,0.3
							c0.4,0.5-0.2,0.4-0.4,0.3c0.6,0.3,0.8,0.9,1.3,1.5l-0.3-0.1l0.6,0.7c0.6,0.3,1.2,0.8,1.7,1.4l-0.6-0.1
							c0.3,0.5,0.3,0.1,0.4,0.1c0.8,0.4,0.8,0.7,1,1.2c0.7,0.3,1.2,0.8,1.7,1.2C16.1,61.7,16.6,62.1,17.3,62.1z M26.4,82l-0.1-0.1
							C26.5,82,26.7,82.1,26.4,82z M21.6,76.8c0.6,0.6,0.3,0.5,0.3,0.6c-0.4-0.7-0.8-1-1.2-1.7c0,0.1-0.1,0.2-0.1,0.3
							c-0.2-0.2-0.3-0.5-0.2-0.7C21,75.4,21.7,77.2,21.6,76.8z M34.4,85.5c0,0-0.1,0-0.1,0l0,0L34.4,85.5z M30.9,83.6
							c0-0.1-0.1-0.2-0.1-0.3C30.8,83.4,30.8,83.5,30.9,83.6z M25.2,78c0-0.2-0.3-0.5-0.5-0.7C24.7,77.4,24.9,77.6,25.2,78z
							 M30.2,44.1c-0.2-0.2-0.6-0.3-0.4,0c0.2,0,0.3,0.5,0.5,0.5c0,0,0,0,0,0C30.2,44.4,30.2,44.2,30.2,44.1z M25.1,61.7
							c0-0.2,0.2-0.3,0.1-0.4c0,0,0,0,0.1,0c-0.1,0-0.1-0.1-0.1-0.1c-0.2,0-0.4-0.1-0.5,0C24.6,61.7,24.2,61.7,25.1,61.7z"/>
						<path class="st0" d="M31.1,57.3c0,0.1-0.1,0.1-0.1,0.1C31,57.4,31,57.3,31.1,57.3z"/>
						<path class="st0" d="M24.7,61.2c0,0,0.2,0.1,0.5,0.1C25.2,61.2,25,61.2,24.7,61.2z"/>
						<path class="st0" d="M46.3,91.6l-0.2,0l0.5,0.2c0.8,0,0.9-0.2,1.1-0.5c-0.8,0.1-1.2-0.1-2.1-0.2L46.3,91.6z"/>
						<path class="st0" d="M46.2,89.9c-0.1-0.1-0.2-0.3-0.3-0.3l-0.1,0.1L46.2,89.9z"/>
						<path class="st0" d="M37.7,86.4l0.6,0.4C38.6,86.8,37.9,86.2,37.7,86.4z"/>
						<path class="st0" d="M39.8,90.1c0.1,0,0.3,0,0.4,0c-0.3-0.2-0.8-0.4-0.9-0.3C39.9,89.9,39.5,89.9,39.8,90.1z"/>
						<path class="st0" d="M36,85.5c-0.3,0.2-0.6-0.5-0.8-0.3C35.4,85.2,35.8,85.7,36,85.5z"/>
						<path class="st0" d="M35.2,88.3c0.1,0.4,0.6,0.3,1,0.6C35.8,88.7,35.4,88.2,35.2,88.3z"/>
						<path class="st0" d="M32.2,84.2c0.1-0.2,0.4,0,0.7,0.3c-0.1,0-0.3,0-0.4,0c0.6,0.2,0.6,0.2,1.1,0.4c-0.3-0.4-0.9-0.8-0.7-1
							C32.4,83.8,31.9,83.8,32.2,84.2z"/>
						<path class="st0" d="M34.1,87.7c0.3,0.3,0.5,0.6,0.9,0.8c0-0.2-0.1-0.4-0.6-0.7l0.3-0.1C34.3,87.3,34.7,88.1,34.1,87.7z"/>
						<path class="st0" d="M30.7,82.5l0.1,0.2c0.6,0.1,1.1,0.6,1.5,0.5C31.8,82.9,31.1,82.6,30.7,82.5z"/>
						<path class="st0" d="M32.6,86.3l-0.2,0.3c0.5,0.3,0-0.1,0.2-0.1c0.1,0.1,0.3,0.3,0.4,0.3C32.4,86.5,33.1,86.5,32.6,86.3z"/>
						<path class="st0" d="M30.8,85.6l-0.7-0.3l0.3,0.6C31.2,86.4,30.5,85.8,30.8,85.6z"/>
						<path class="st0" d="M30.2,84.9l0-0.1c-0.4-0.1-0.8-0.1-1.2-0.2C29.6,84.8,29.6,84.9,30.2,84.9z"/>
						<path class="st0" d="M22.6,74.3c-0.2,0,0,0.6,0,0.3C22.7,74.6,22.4,73.8,22.6,74.3z"/>
						<path class="st0" d="M21.9,78c-0.1-0.3-0.9-1-1.3-1.3C21,77.1,21.8,78.2,21.9,78z"/>
						<path class="st0" d="M20.5,76.6c0,0,0.1,0.1,0.1,0.1C20.6,76.7,20.5,76.6,20.5,76.6z"/>
						<path class="st0" d="M12.9,58.8c0-0.1,0-0.1-0.1-0.1C12.9,58.7,12.9,58.7,12.9,58.8z"/>
						<path class="st0" d="M13,59.2c0,0.3,0.1,1,0.3,1c-0.1-0.5-0.2-0.9-0.4-1.5C12.9,59,12.9,59.3,13,59.2z"/>
						<path class="st0" d="M13.1,54.6c0.1,0.2,0,0.6,0.2,0.5C13.4,55,13.2,54.5,13.1,54.6z"/>
						<path class="st0" d="M30.8,47.3c0.1,0.4,0.2,0.5,0.4,0.3C31,47.3,30.9,47.6,30.8,47.3z"/>
						<polygon class="st0" points="31.4,48.1 31.3,48.2 31.2,48.4 						"/>
						<path class="st0" d="M31.7,50.6c0,0-0.1-0.1-0.1-0.1C31.7,50.6,31.7,50.7,31.7,50.6z"/>
						<path class="st0" d="M31.6,50.4C31.6,50.4,31.6,50.4,31.6,50.4L31.6,50.4z"/>
						<path class="st0" d="M31.6,50.2l-0.1,0c0,0,0.1,0.1,0.1,0.2C31.6,50.3,31.6,50.2,31.6,50.2z"/>
						<path class="st0" d="M31.8,51.3c0.1-0.2,0.2-0.3,0.2-0.5c-0.2-0.4-0.1,0.6-0.5,0.2L31.8,51.3z"/>
						<path class="st0" d="M32.1,52.8c-0.1,0.4,0.4,1,0,1.2c0,1.1,0.7-0.2,0.6,1.2c0.3-0.6,0.1-0.8-0.1-1c-0.2-0.2-0.3-0.3-0.2-0.9
							C32.1,53.9,32.2,53,32.1,52.8z"/>
						<path class="st0" d="M32.7,52.6c-0.2-0.1-0.2,0.5-0.1,0.7C32.7,53.1,32.9,52.8,32.7,52.6z"/>
						<path class="st0" d="M32,55.1l-0.2,0.3l0.1,0.1C31.9,55.3,31.9,55.2,32,55.1z"/>
						<path class="st0" d="M31.5,56.2c0-0.1,0-0.3-0.1-0.4C31.4,55.9,31.2,56.3,31.5,56.2z"/>
						<path class="st0" d="M30.2,57.2c-0.3,0.1-0.1,0.7,0.3,0.2l-0.1,0.1C30.4,57.4,30,57.5,30.2,57.2z"/>
						<path class="st0" d="M26.7,59.7c0.2,0,0.5-0.2,0.4-0.3c-0.2,0.1-0.4,0.2-0.6,0.2L26.7,59.7z"/>
						<path class="st0" d="M27,61c0.3,0.3,0.7-0.2,1.2-0.2C27.7,60.8,27.7,60.8,27,61z"/>
						<path class="st0" d="M25.9,59.4c0.2-0.1,0.4-0.1,0.6-0.1C26.4,59.1,26,59.2,25.9,59.4z"/>
						<path class="st0" d="M24.9,59.5c-0.2-0.1,0-0.2-0.1-0.3c-0.5-0.1-0.9-0.2-1.2,0c0.1,0.1,0.2,0.5,0,0.7c0.8,0,1.1-0.7,1.5-0.2
							c0.2-0.2,0.4-0.4,0.6-0.6C25.1,59.1,25.3,59.6,24.9,59.5z"/>
						<path class="st0" d="M26.5,60.5c-0.2,0-0.3-0.1-0.4-0.1c0.1,0.2-0.2,0.3-0.4,0.3C25.8,61.1,26.3,60.5,26.5,60.5z"/>
						<path class="st0" d="M20.7,59.2c-0.3,0-0.6-0.1-0.9-0.2l0.3,0.1C20.3,59.1,20.5,59.1,20.7,59.2z"/>
						<polygon class="st0" points="20.2,58.9 20.3,58.7 19.6,58.7 						"/>
						<polygon class="st0" points="19.5,58.4 19.5,58.4 20,58.5 						"/>
						<path class="st0" d="M17.9,57.5l0,0.2c0.2,0.1,0.5,0.4,0.6,0.2C18.3,57.9,17.9,57.7,17.9,57.5z"/>
						<path class="st0" d="M10,56.3c0.2,0.1,0.2-0.1,0.2-0.2L9.8,56C9.8,56.1,10,56.2,10,56.3z"/>
						<path class="st0" d="M9.6,55l-0.7-0.5c0.5,0.8,0.8,0.7,1.3,1.3c-0.1-0.3-0.6-0.5-0.8-1L9.6,55z"/>
						<path class="st0" d="M5.4,40.2c0.2,0.1,0.2-0.1,0.3,0.5c-0.1-0.8-0.1-1.4,0-2.3c-0.1,0.1-0.3-0.5-0.3-0.2l0.1,1L5.3,39
							C5.1,39.7,5.5,39.4,5.4,40.2z"/>
						<path class="st0" d="M24.4,8.2c0,0.1,0.1,0.2,0.3,0.2C25.1,7.9,24.3,8.2,24.4,8.2z"/>
					</g>
				</g>
			</g>
		</g>
	</g>
	<g>
		<g>
			<g>
				<g>
					<g>
						<path class="st0" d="M40.9,82.8C40.7,83,40.9,82.9,40.9,82.8L40.9,82.8z"/>
						<path class="st0" d="M40.9,82.9L40.9,82.9C41,82.9,41,82.9,40.9,82.9z"/>
						<path class="st0" d="M41.1,83.3c-0.2,0.1-0.1-0.2-0.4,0C40.7,83.5,40.8,83.6,41.1,83.3z"/>
						<polygon class="st0" points="41.2,83.1 41,83.2 41.3,83.1 						"/>
						<polygon class="st0" points="41.2,82.9 41.2,83 41.4,83 						"/>
						<path class="st0" d="M41.3,83.7l-0.1,0c0.1-0.2,0.3-0.2,0.4-0.3c-0.1-0.1-0.4,0.3-0.4,0.2c-0.2,0.2,0.2,0.2-0.1,0.4
							C41,84,41.1,83.7,41.3,83.7z"/>
						<path class="st0" d="M46.9,86.6C46.9,86.6,46.9,86.6,46.9,86.6C46.9,86.6,46.9,86.5,46.9,86.6z"/>
						<path class="st0" d="M48.2,87.6c0,0.1,0,0.1,0,0.1C48.2,87.7,48.3,87.6,48.2,87.6L48.2,87.6z"/>
						<path class="st0" d="M45.7,86.3c0,0,0-0.1,0-0.1C45.6,86.2,45.6,86.3,45.7,86.3z"/>
						<path class="st0" d="M47.6,92.2c0,0-0.1-0.1-0.1-0.1c0,0,0,0,0,0L47.6,92.2L47.6,92.2z"/>
						<path class="st0" d="M51,89.6c0,0,0.1,0.1,0.1,0.1C51.1,89.7,51.1,89.6,51,89.6z"/>
						<path class="st0" d="M45.2,85.9L45.2,85.9C45.2,85.9,45.2,85.9,45.2,85.9L45.2,85.9L45.2,85.9z"/>
						<path class="st0" d="M48.2,86.8C48.2,86.9,48.2,86.9,48.2,86.8C48.2,86.9,48.2,86.8,48.2,86.8z"/>
						<path class="st0" d="M42,85C42,85.1,42.1,85.1,42,85C42.1,85,42.1,85,42,85z"/>
						<path class="st0" d="M42.5,85.4L42.5,85.4C42.4,85.5,42.4,85.5,42.5,85.4z"/>
						<path class="st0" d="M42.7,85.7C42.7,85.7,42.7,85.7,42.7,85.7C42.7,85.8,42.7,85.8,42.7,85.7z"/>
						<path class="st0" d="M42.1,85.1c-0.1,0.1-0.4,0.5,0,0.2l0-0.1c-0.1,0.1,0.1,0,0.2,0c0,0,0.1-0.1,0.1-0.1c0,0,0-0.1,0-0.1
							C42.4,84.9,42.2,85,42.1,85.1z"/>
						<path class="st0" d="M46.8,86.6C46.9,86.6,46.8,86.6,46.8,86.6L46.8,86.6z"/>
						<path class="st0" d="M46.2,86.5C46.2,86.5,46.2,86.6,46.2,86.5C46.2,86.6,46.2,86.5,46.2,86.5z"/>
						<path class="st0" d="M44.9,85.1C44.9,85.1,44.9,85.1,44.9,85.1C45,85.1,44.9,85.1,44.9,85.1z"/>
						<path class="st0" d="M46.2,86.6C46.2,86.6,46.2,86.6,46.2,86.6C46.2,86.6,46.2,86.6,46.2,86.6z"/>
						<path class="st0" d="M45.1,85.7C45.1,85.7,45.1,85.7,45.1,85.7C45.1,85.7,45.1,85.7,45.1,85.7z"/>
						<path class="st0" d="M40.1,91.9c0-0.1,0.1,0.1,0.1,0.1c0-0.3-0.2,0-0.1-0.3C40.1,91.7,40.1,91.7,40.1,91.9l0.1,0.2
							C40.2,92,40.1,92,40.1,91.9z"/>
						<path class="st0" d="M46.6,91.7L46.6,91.7c-0.1-0.1-0.2-0.1-0.3-0.2c0.2,0.2,0.6,0.5,0.8,0.7c0,0,0,0,0.1,0
							C46.9,92,46.7,91.8,46.6,91.7z"/>
						<path class="st0" d="M47.1,92.2L47.1,92.2c0.1,0,0.1,0.1,0.1,0.1c0,0,0,0,0.1,0C47.3,92.2,47.2,92.2,47.1,92.2z"/>
						<path class="st0" d="M41.4,91.7L41.4,91.7C41.4,91.7,41.4,91.7,41.4,91.7z"/>
						<path class="st0" d="M46.1,90.3l-0.1,0C46,90.4,46,90.4,46.1,90.3z"/>
						<path class="st0" d="M47.5,91.9C47.5,91.9,47.5,91.9,47.5,91.9L47.5,91.9L47.5,91.9z"/>
						<path class="st0" d="M46.4,95.1c0-0.4,0,0-0.2-0.2l-0.1,0.2C46.2,95.2,46.3,95.1,46.4,95.1z"/>
						<polygon class="st0" points="40,91.8 40,91.8 40,91.8 						"/>
						<path class="st0" d="M44.4,95.5C44.4,95.4,44.4,95.4,44.4,95.5C44.4,95.4,44.4,95.4,44.4,95.5z"/>
						<path class="st0" d="M47.6,92.3l0.2,0L47.6,92.3C47.8,92.4,47.4,92.1,47.6,92.3z"/>
						<path class="st0" d="M48.2,95.1l0.2,0.2c0.1-0.2,0.3-0.2,0.6-0.2c0.2,0,0.5,0,0.4-0.3c1.3,0.7-0.4-0.7,0.8-0.1l-0.1-0.1
							c0.9,0,1.9,0.1,2.9,0.1c1,0,1.9,0,2.2-0.2l0.3,0.1c0.2,0,0.4,0,0.6,0c-0.5-0.7-1.4-1.6-2.3-2.3c-0.8-0.8-1.7-1.6-2.4-2.4
							c-0.3-0.1-0.7,0-1-0.1c0-0.1-0.2-0.2,0.1-0.2c0.2,0.1,0.4,0,0.5,0c-0.2-0.2-0.2-0.5-0.6-0.6l-0.1,0.2c-0.2,0-0.2-0.1-0.2-0.2
							c0.2,0,0.4-0.2,0.5-0.2c-1-0.1,0-0.4-0.6-0.6c-0.6,0.2-1.3,0-1.8,0.1l0-0.2c0.1,0.1,0.3-0.2,0.5,0c0-0.2-0.3-0.2-0.4-0.4
							c-0.1,0.1-0.2,0.2-0.3,0.2c0-0.1,0.2-0.3,0.1-0.4l0.2-0.1c0.1-0.2-0.1,0-0.2-0.1c0.1-0.2,0.1-0.3,0.3-0.4
							c-0.3,0.1-0.2,0-0.4,0c-0.1,0.3-0.2,0.2-0.3,0.3l0.2,0c0-0.3,0.1,0,0.3-0.2c-0.1,0.2-0.5,0.3-0.4,0.4c-0.3,0-0.2-0.2-0.5-0.1
							c0.1,0-0.2,0.2-0.2,0.3c-0.1-0.1,0.1-0.1,0.2-0.3c-0.1-0.1,0.1-0.2-0.2-0.1c0-0.2,0.2-0.2,0.3-0.3c0.2-0.1,0,0.5,0.6-0.1
							c0.1,0,0.3-0.1,0.4,0c0-0.1,0.1-0.4-0.1-0.4l-0.3,0.3c-0.1-0.1-0.3,0.2-0.3,0.1c0.1-0.1,0.2-0.2,0.1-0.3c0,0.1,0,0.1-0.1,0.1
							c-0.1-0.1-0.3,0.1-0.5,0.1c0,0.2-0.1,0.3-0.1,0.5c-0.3,0.2-0.1,0-0.2,0c0,0,0.1,0,0.1-0.1l-0.2,0.1c0-0.2,0.3-0.3,0.4-0.5
							c0.1-0.3-0.2,0-0.1-0.1c0,0,0,0,0,0.1c0,0,0,0,0,0l0,0c-0.1,0-0.1-0.1-0.3,0c0.1-0.1-0.1,0-0.1,0c-0.1,0-0.4,0.2-0.2-0.2l0,0
							c0-0.1,0-0.2,0.1-0.3l0-0.2l0.2-0.2c-0.2,0-0.3,0.1-0.6,0.2c0.1-0.2-0.2-0.2-0.3-0.2c0,0,0,0,0,0l0,0.1c-0.1-0.1-0.2,0-0.2,0
							c0,0,0,0,0,0c0,0,0,0,0,0c0,0,0,0,0,0l0.1-0.1c0.2-0.3-0.2,0-0.2-0.1c0,0,0,0,0,0c0-0.1,0.3-0.5,0.1-0.3c0,0,0,0-0.1,0l0-0.1
							c0,0,0,0,0,0.1c-0.1,0-0.2,0.1-0.1,0.1l-0.1-0.1c0-0.1,0,0-0.1,0l0.1-0.1c-0.1,0,0-0.1,0-0.1c0.2-0.4-0.4,0-0.2-0.5
							c-0.2,0.1-0.2,0.3-0.3,0.3c-0.1,0.1-0.3,0.1-0.4,0.2c0.2-0.3,0.2-0.6,0.5-0.9c-0.1-0.1-0.2,0.2-0.3,0.3l0,0
							c0,0.1-0.1,0.2-0.2,0.3c-0.2,0.2-0.3,0.1-0.3,0l0.3-0.2c-0.2,0-0.5,0.3-0.8,0.5c0-0.2,0.3-0.3,0.5-0.6l-0.1,0l0.2-0.2
							c-0.1,0-0.3,0.1-0.3,0c0.2-0.1,0-0.3,0.4-0.4c0-0.1-0.3,0.2-0.1,0c-0.2,0.2-0.1,0.1-0.1,0.2c-0.3,0.3-0.2,0-0.3,0
							c0.1-0.1,0.2-0.1,0.2-0.3c-0.1,0.1-0.2,0.1-0.1,0c-0.2,0.2-0.1,0-0.1-0.1c0,0.1-0.1,0.3-0.2,0.4c-0.1,0-0.2,0-0.2,0l0,0.1
							c-0.3,0.2,0.1-0.3-0.1-0.3c0.1-0.1,0.2,0,0.3-0.1c-0.1,0-0.3,0.1-0.5,0.1l0.2-0.3c-0.1,0.1-0.1-0.1-0.2,0.1
							c0-0.2,0.3-0.1,0.4-0.3c0-0.2-0.4,0.2-0.2-0.2l0.2-0.1c0,0-0.2,0-0.1-0.1c-0.1,0.1,0,0.1,0,0.1c-0.4,0.3-0.4,0.1-0.8,0.5
							l0,0.1c-0.1,0-0.4,0.2-0.4,0c0.1-0.2,0.3-0.2,0.4-0.3c0-0.1-0.5,0.3-0.5,0.2c0,0.1-0.2,0.2-0.3,0.3c0,0.1,0.1,0.2,0.2,0.1
							l0-0.1c0.1-0.1,0.2-0.1,0.2-0.1c0.1,0.1-0.1,0.2-0.2,0.3c0.1,0.2,0.4-0.4,0.5-0.2l-0.1,0.1c0.1,0,0.2,0,0.5-0.2
							c-0.2,0.3,0.2,0,0.1,0.2c-0.5,0.5-0.1-0.2-0.5,0c-0.1,0.2-0.3,0.2-0.4,0.3l0.4-0.1c-0.1,0.1-0.3,0.4,0,0.2l0,0
							c0.1,0,0.3-0.2,0.3-0.1c0,0.1-0.1,0.1-0.2,0.1c0,0.1,0.2-0.1,0.2-0.1c0,0.1-0.2,0.2-0.3,0.3c0.3-0.1,0,0.1,0.1,0.2
							c0.3-0.3,0.6-0.2,0.8-0.6l0.3-0.1c-0.1,0.2-0.5,0.3-0.7,0.6l-0.1-0.1c-0.4,0.4,0.4,0,0.1,0.4c0,0.1,0.1,0,0,0.3l0.3-0.3
							c0,0.1-0.2,0.3-0.2,0.4c0.1,0,0.1,0,0.1,0.1c-0.1,0-0.1,0.1-0.1,0.1c-0.1,0.2-0.1,0.2,0,0.1c0.1-0.1,0.1,0,0.2,0l-0.2,0.1
							c0,0,0.1,0,0.2-0.1c0,0,0,0,0.1,0c0-0.1,0.2-0.3,0.3-0.4c0,0.3,0.2,0.3,0,0.7c-0.1,0.1-0.3,0.2-0.3,0.2c0,0.1,0.2,0,0.4-0.2
							c0,0,0,0,0,0C43,86.1,43,86.2,43,86.3c0,0,0,0.1,0,0.1c0.3-0.2,0.2,0,0.4-0.1c0-0.1,0-0.1-0.1-0.1c0.2-0.1,0.5-0.3,0.3-0.1
							c-0.2,0.1-0.2,0.4-0.4,0.3c-0.2,0.4,0.3-0.2,0.2,0l-0.1,0.2c-0.2,0.2-0.2,0-0.2,0.1l0.1,0c-0.2,0.1-0.2-0.1-0.5,0l0.1,0.3
							c0.5,0,0.5,0.6,1.1,0.4c0,0,0,0,0,0c0,0,0.1,0,0.1-0.1l0,0.1l0.2-0.1C44,87.3,44,87.4,44,87.6c0.1-0.2,0.1-0.2,0.2-0.3
							c0.2-0.2,0.3-0.2,0.3-0.1c-0.1,0.1-0.2,0.1-0.2,0.2c0-0.1,0.2-0.2,0.2-0.1c-0.1,0.1,0,0.2-0.1,0.3c-0.1,0,0,0,0-0.1
							c-0.1,0-0.1,0.2-0.2,0.2l0.1,0C44.1,88,44,88,43.9,88.1c0.2,0,0.6-0.2,0.8-0.2c-0.1,0.1-0.4,0.4-0.3,0.3
							c0,0.2,0.5-0.2,0.6-0.1c-0.1,0.1-0.1,0-0.2,0c0.2,0.4,0.4,0.6,0.3,1.2l0.4-0.2l-0.1,0.3c0,0.2,0.2,0.3,0.3,0.4
							c0.1,0,0.2,0.1,0.2,0.1c0.1,0,0.1,0,0.2,0c0.1,0-0.2,0.2-0.3,0.3c0,0.1,0.4-0.2,0.6-0.1c-0.1,0-0.5,0.2-0.5,0.2
							c0.1-0.1,0.3-0.1,0.3-0.1l-0.1,0c-0.2,0.1,0,0,0,0.1c0.1,0,0.4,0,1.1,0c0,0.1-0.6,0.1-0.7,0.1c0.2-0.1-0.1,0-0.3,0
							c0.2,0,0.3,0-0.1,0.1c0,0,0,0,0.3,0c-0.1,0,0.1,0,0.3,0c-0.1,0,0.1,0.1-0.4,0.1c0.2,0.1,0.2,0.2,0.3,0.3
							c0.4,0.1,0.1,0,0.4,0.1c0.5,0.1-0.2,0,0.2,0.1l-0.4-0.1c0,0,0.7,0.2,1.2,0.4c-0.5-0.1-0.3-0.1-0.7-0.2c0.1,0.1-2-0.5-1.6-0.4
							l2,0.6c0.2,0.1,0.1,0.1,0.2,0.1c-0.4-0.1-0.8-0.2-0.8-0.2c-0.5-0.2-0.4-0.2-0.4-0.2c-0.8-0.2-0.5-0.2-1.3-0.4
							c0.2,0.1,0.4,0.1,0.8,0.2l-0.2-0.1l0.3,0.1c0.3,0.1,0.9,0.3,0.5,0.2l0.9,0.3c-0.7-0.3-0.1,0-0.3-0.1l-0.5-0.2
							c0,0-0.1,0-0.4-0.1c-0.5-0.2,0,0-0.4-0.2l-0.2-0.1c0.4,0.1,0.7,0.3,1,0.4c0.1,0,0.2,0.1,0.3,0.1c0.6,0.2,1,0.4,0.8,0.4
							c-0.7-0.3-0.5-0.2-1.2-0.5c-0.3-0.1,1.5,0.7,1.4,0.7c-0.3-0.1,0.2,0.1,0.1,0.2c-0.4-0.2-0.5-0.2-0.8-0.4l-0.4-0.2
							c0.1,0.1-0.1,0-0.3-0.1c0.5,0.2,0.4,0.2,0.5,0.4l0.4,0.2c0.1,0.1,0.2,0.2,0.1,0.2c0,0.1,0.4,0.3,0.6,0.5
							c-0.4-0.2-0.7-0.4-1.1-0.7c0.2,0.1,0.1,0,0.3,0.1c-0.2-0.2-0.9-0.6-0.7-0.5c-0.9-0.5,0.1,0.1-0.3-0.1c-0.1,0-0.1,0-0.1,0
							c0,0,0,0,0,0c-0.1-0.1-0.2-0.1-0.7-0.4c0.1,0.1,0.9,0.5,0.5,0.3c0.2,0.1-0.5-0.3-0.6-0.3c0.3,0.2,1,0.6,0.8,0.5L45.9,91
							c0,0,0.6,0.4,0.5,0.4c0.1,0,0.4,0.3,0.5,0.3c0.2,0.2,0.2,0.2,0,0.1c0,0,0.1,0.1,0.3,0.2c0.4,0.2-0.2-0.2,0.3,0.1l-0.4-0.3
							c0.2,0.1,0.6,0.4,0.8,0.5c0,0,0-0.1,0.1,0c0.7,0.5-0.4-0.2,0.2,0.2l0,0c0.5,0.3,0.3,0.3,0.1,0.3c-0.3-0.1-0.5-0.2-0.8-0.4
							l0-0.1c-0.3-0.2,0,0.1-0.1,0.1c0,0-0.1-0.1-0.1-0.1l0.1,0.1c0,0-0.1,0-0.1-0.1c-0.1,0,0,0.1-0.1,0.1l0.2,0.2l-0.1-0.1
							c0.1,0,0.3,0.1,0.4,0.3c0,0.2-0.4-0.2-0.6-0.4c-0.3-0.3,0.1,0,0-0.1c-0.4-0.3-0.1,0-0.5-0.2c-0.3-0.4,0.1,0-0.2-0.3
							c-0.1-0.1,0.1,0.2,0,0.1c-0.1-0.2-0.1-0.2-0.3-0.4l-0.1-0.1c0,0-0.4-0.4-0.5-0.5c-0.1-0.1,0.3,0.3,0,0.1
							c0.1,0.2,0.4,0.4,0.5,0.6l-0.1-0.1c-0.2-0.2-0.3-0.4-0.5-0.5l0.1,0.1c0.1,0.1,0.2,0.2,0.3,0.3c-0.1-0.1,0.3,0.4,0.4,0.6
							c0,0-0.1,0-0.2-0.1c0.2,0.3,0,0.3,0.1,0.6c0-0.2-0.2-0.4-0.3-0.5c0-0.1-0.2-0.4-0.3-0.6c0,0,0.2,0.4,0.2,0.5
							c-0.1-0.1,0.1,0.2-0.1,0c-0.1-0.1-0.1-0.3-0.2-0.5c-0.1,0,0.2,0.4,0.1,0.4c0,0,0-0.1,0-0.1c-0.1-0.1,0,0.1,0,0.3
							c-0.2-0.5-0.1,0.1-0.2-0.4c0,0.1,0.1,0.2,0.1,0.4c0,0.2-0.1,0.1-0.1,0c0,0,0-0.1,0.1-0.1l-0.1-0.3c-0.2-0.2,0,0.7-0.2,0.5
							c0.1-0.2,0-0.2,0-0.5c0,0.1-0.2,0-0.1,0.2c-0.1,0-0.2-0.1-0.2-0.1c-0.1,0.1-0.1,0.2-0.1,0.4c-0.1,0-0.2-0.2-0.3-0.4
							c-0.2,0.3-0.5-0.1-0.7,0.2l0,0c-0.2,0,0.2,0.4,0,0.4c0-0.4-0.2-0.2-0.3-0.4c-0.3-0.2-0.4,0.4-0.7,0.2c0-0.1,0-0.2,0-0.2
							c-0.2-0.1-0.3,0-0.5,0l0,0c-0.3-0.3-0.5,0.2-0.7,0.3c0-0.1,0-0.2,0-0.3c-0.2-0.1-0.4-0.1-0.4,0.3c-0.2-0.3-0.1,0.1-0.4-0.2
							c0-0.1,0-0.1,0-0.1c-0.1-0.1-0.2,0-0.3-0.1c-0.2,0.3-0.1,0.8-0.4,0.7c-0.1-0.5,0.1-0.2,0-0.6c0,0.1,0,0.2-0.1,0.1
							c0-0.2,0-0.1,0-0.3c-0.1-0.1-0.1,0.6-0.1,0.5c0,0.1,0.1,0.2,0.1,0.1c0,0.3-0.2,0.1-0.3,0.3c0,0,0.2,0.1,0.2,0.3
							c-0.2-0.1-0.1,0.4-0.2,0.7c-0.2-0.2,0-0.5-0.1-0.8c-0.1-0.1-0.2-0.4-0.2-0.6c-0.2,0-0.2,0.3-0.3,0.4l0-0.1
							c-0.2,0.1-0.2,0.6-0.4,0.4l0.1,0.1c0,0.1-0.1,0.1-0.1,0.3c0-0.2-0.2-0.3-0.2-0.4c0.1,0.6-0.3,0.4-0.2,1
							c-0.1-0.1-0.1-0.4-0.1-0.5c0.1,0,0.2,0.1,0.2-0.1c-0.1,0-0.2-0.1-0.2-0.2c0,0.4-0.2,0.6-0.1,0.9c-0.1-0.1-0.2-0.2-0.3-0.5
							c-0.2,0.3,0.4,0.8,0.1,0.9c-0.2-0.2,0-0.4-0.2-0.4l0-0.1c-0.4-0.7,0.1,0.5-0.1,0.6c-0.1-0.4,0-0.3-0.2-0.6
							c-0.1,0.1,0,0.7-0.2,0.7l0-0.2c-0.1,0.1-0.3,0-0.4,0.1c0-0.1,0-0.1,0-0.1c-0.2-0.1,0,0.2-0.2,0l0,0.2c0.1,0.1,0.3,0.3,0.3,0
							c0,0.2,0.3,0.4,0.4,0.8l0-0.1c0.4,0.5,0.7,0.5,1,0.6c0.1-0.5,0.3,0.1,0.4-0.3c-0.1-0.5,0-0.1,0.1-0.2
							c-0.1,0.1,0.1,0.4,0.2,0.4c0-0.1,0-0.2,0-0.2c0.1,0.1,0.4,0.5,0.4,0.1c0.1,0.1,0,0.2,0,0.3c0.1,0.2,0-0.2,0.1-0.1
							c0,0,0,0.1,0,0.1c0.1-0.1,0.3,0,0.4,0.1c-0.1-0.5,0.1-0.2,0.1-0.4c0,0.2,0.1,0.1,0.2,0.2l0-0.4c0-0.3,0.2,0.2,0.2,0l0-0.1
							c0-0.2,0.3,0.1,0.5,0.3c0.5-1.1,1.2,0.2,1.9-0.2c0-0.1-0.1-0.2-0.1-0.4c0.1-0.1,0.1-0.1,0.2-0.1c-0.1-0.1,0,0-0.1-0.1
							l-0.1,0.2c0,0,0,0,0-0.1c0,0.1-0.1,0.2-0.1,0.1c0-0.1,0-0.5,0.1-0.4c0,0,0,0.1,0,0.1c0.1,0,0.1-0.2,0.1-0.1
							c0.1,0.1,0,0,0.1,0.1l0.3,0.1c0-0.4,0.2-0.1,0.3,0c0,0.3-0.1,0.1-0.1,0.4l0.1,0.2l0-0.2l0.1,0l0,0c0-0.1,0-0.2,0-0.1
							c0,0,0,0.1,0,0.1l0.1-0.2c0,0.3,0.1,0.1,0.1,0.4c0.3,0.1,0.3-0.5,0.6-0.1c-0.1-0.1,0-0.5,0.1-0.4c0.1,0.1,0.1,0.1,0.1,0.2
							l0.1-0.2c0.2,0.4,0.3,0.1,0.4,0.3l0,0.1c0-0.2,0.1-0.3,0.2-0.3l0,0.3c0.1,0.2,0-0.6,0.2-0.4c0-0.3-0.1-0.4-0.2-0.7
							c0.1,0.3,0.2,0.3,0.2,0.1c0.1-0.1,0.1,0,0.1,0.1l0-0.2c0.1,0,0.1,0.4,0.1,0.5c0-0.3,0.2-0.1,0.4-0.1l0,0.1l0.2,0
							c0.1-0.2,0.3-0.3,0.5-0.2l0,0.4c0.2,0.2,0-0.1,0-0.2c0.1-0.2,0.3,0,0.5,0.2C47.3,94.7,48.2,95.6,48.2,95.1z M44.8,85.2
							L44.8,85.2C44.7,85.3,44.7,85.3,44.8,85.2z M45.5,86.1c-0.2,0,0-0.1,0-0.2c0,0.2,0.2,0.1,0.1,0.3c0-0.1,0.1-0.1,0.1-0.2
							c0,0,0,0.1-0.1,0.3C45.4,86.5,45.6,85.9,45.5,86.1z M42.5,85.6L42.5,85.6L42.5,85.6L42.5,85.6z M43.2,85.9
							c-0.1,0.1-0.1,0.1-0.1,0.1C43.2,85.9,43.2,85.9,43.2,85.9z M43.8,87.1c-0.1,0.1,0,0.1,0,0.2C43.8,87.2,43.8,87.2,43.8,87.1z
							 M48.2,91.4c-0.1-0.1-0.5-0.2-0.7-0.2c0.3,0.1-0.2,0,0.3,0.1c0,0,0,0,0,0C48,91.3,48.2,91.4,48.2,91.4z M48.1,93
							c-0.2-0.1-0.3-0.3-0.4-0.4l0,0c-0.1,0-0.1-0.1-0.1-0.1c-0.1,0-0.1-0.1-0.1,0C47.9,92.9,48,93,48.1,93z"/>
						<path class="st0" d="M46.4,91.2C46.4,91.2,46.4,91.2,46.4,91.2C46.4,91.2,46.4,91.2,46.4,91.2z"/>
						<path class="st0" d="M47.5,92.5c0,0,0.1,0.1,0.2,0.1C47.6,92.6,47.5,92.5,47.5,92.5z"/>
						<path class="st0" d="M42.3,83L42.3,83l0.1-0.2c-0.2,0-0.4,0.2-0.6,0.3c0.2-0.1,0.2,0,0.4,0.1L42.3,83z"/>
						<path class="st0" d="M41.1,84.2c0,0.1-0.1,0.2-0.1,0.2l0.1-0.1L41.1,84.2z"/>
						<path class="st0" d="M41.6,85.8l0-0.2C41.5,85.6,41.5,85.9,41.6,85.8z"/>
						<path class="st0" d="M43.1,83.5L43,83.6c-0.1,0.1,0,0.2,0.1,0.1C43,83.7,43.2,83.6,43.1,83.5z"/>
						<path class="st0" d="M41.8,86c0.2-0.2,0,0.2,0.2,0C42,86,42.1,85.8,41.8,86z"/>
						<path class="st0" d="M43.8,84c0.2-0.2,0-0.1-0.1-0.2C43.8,83.8,43.6,84.1,43.8,84z"/>
						<path class="st0" d="M42.9,85.9c-0.2,0.1-0.2,0.1-0.2,0C42.8,85.9,42.8,85.8,42.9,85.9c-0.2,0-0.2-0.1-0.3,0
							c-0.1,0.2,0,0.3-0.2,0.5C42.5,86.2,42.8,86,42.9,85.9z"/>
						<path class="st0" d="M43.9,84.1c0-0.1,0.1-0.3,0.1-0.3C43.9,83.9,43.8,84,43.9,84.1l-0.3,0.2C43.6,84.4,43.9,84,43.9,84.1z"/>
						<path class="st0" d="M42.7,86.5l0.1-0.1c-0.2,0.1-0.2-0.1-0.5,0.1C42.4,86.6,42.6,86.6,42.7,86.5z"/>
						<path class="st0" d="M43.8,84.6l0.3-0.2c0-0.1-0.1,0.1-0.2,0.1c0-0.1,0-0.1,0-0.1C44,84.5,43.7,84.6,43.8,84.6z"/>
						<path class="st0" d="M44.3,84.5l0.2,0l0.2-0.3C44.5,84.2,44.5,84.3,44.3,84.5z"/>
						<path class="st0" d="M44.2,84.8L44.2,84.8l0.4-0.2C44.5,84.7,44.5,84.7,44.2,84.8z"/>
						<path class="st0" d="M44,87.8c0.1-0.1,0.2-0.3,0.1-0.1C44,87.8,44,88,44,87.8z"/>
						<path class="st0" d="M45.8,85.6c0,0.1,0.2,0.1,0.3,0.1C46,85.6,45.9,85.4,45.8,85.6z"/>
						<path class="st0" d="M46.1,85.6C46.1,85.6,46.1,85.6,46.1,85.6C46.1,85.6,46.1,85.6,46.1,85.6z"/>
						<path class="st0" d="M48.7,87.2C48.7,87.2,48.8,87.2,48.7,87.2C48.8,87.2,48.8,87.2,48.7,87.2z"/>
						<path class="st0" d="M48.6,87.1c0-0.1-0.1-0.1-0.3,0c0.1,0,0.1,0,0.4,0C48.7,87.1,48.7,87,48.6,87.1z"/>
						<path class="st0" d="M49.4,88.1c-0.1,0-0.1-0.1-0.3,0C49.1,88.1,49.3,88.1,49.4,88.1z"/>
						<path class="st0" d="M45.9,90.8c-0.2-0.1,0,0,0.4,0.2C46.4,90.9,46.1,90.8,45.9,90.8z"/>
						<polygon class="st0" points="46.5,91 46.3,90.9 45.9,90.8 						"/>
						<path class="st0" d="M45.8,90.7c-0.1,0-0.1-0.1-0.2-0.1C45.7,90.7,45.7,90.7,45.8,90.7z"/>
						<path class="st0" d="M45.6,90.7C45.6,90.7,45.6,90.7,45.6,90.7L45.6,90.7z"/>
						<path class="st0" d="M45.7,90.7l-0.2-0.1l0.1,0C45.5,90.7,45.6,90.7,45.7,90.7z"/>
						<path class="st0" d="M45.7,90.7l0.7,0.3c-0.4-0.1-0.3-0.1-1.1-0.4L45.7,90.7z"/>
						<path class="st0" d="M45.8,90.8C45.6,90.7,46.6,91.1,45.8,90.8c0.3,0.2,1.2,0.6,1.4,0.7c0.5,0.2-1.3-0.6-0.8-0.4
							C45.9,90.8,46,90.9,45.8,90.8z"/>
						<path class="st0" d="M47.1,91.3c-0.4-0.2-0.4-0.2-0.2-0.1C46.9,91.3,47.5,91.5,47.1,91.3z"/>
						<polygon class="st0" points="46.1,90.9 45.8,90.8 46,90.9 						"/>
						<path class="st0" d="M45.9,90.9l-0.4-0.2C45.7,90.8,45.7,90.8,45.9,90.9z"/>
						<path class="st0" d="M45.4,90.6c-0.1-0.1,0.6,0.4,0.5,0.3l0,0C45.8,90.8,45.5,90.7,45.4,90.6z"/>
						<path class="st0" d="M46.3,91.4c0,0,0-0.1-0.2-0.1L46.3,91.4L46.3,91.4z"/>
						<path class="st0" d="M47.8,92.5c0.4,0.3,0.1,0,0.3,0.1C47.9,92.5,47.9,92.4,47.8,92.5z"/>
						<path class="st0" d="M45.8,91C45.6,90.9,45.7,90.9,45.8,91C45.5,90.8,45.6,90.8,45.8,91z"/>
						<path class="st0" d="M45.8,91.1c-0.1-0.1-0.2-0.2-0.3-0.2c-0.2-0.1-0.1-0.1,0,0c0.1,0.1,0.5,0.4,0.6,0.6
							c0-0.1-0.6-0.6-0.1-0.2c-0.2-0.2-0.4-0.3-0.6-0.5C45.4,90.7,45.9,91.1,45.8,91.1z"/>
						<path class="st0" d="M47.1,92l-0.3-0.2C47.1,92,47.1,92,47.1,92C47.5,92.4,47.1,92,47.1,92z"/>
						<polygon class="st0" points="45.8,91.3 45.8,91.4 45.9,91.4 						"/>
						<polygon class="st0" points="45.7,91.2 45.6,91.1 45.7,91.3 						"/>
						<polygon class="st0" points="45.6,91.1 45.6,91.1 45.5,91 						"/>
						<path class="st0" d="M45.5,91l0.1,0.2C45.5,91.1,45.7,91.3,45.5,91C45.6,91.2,45.5,91.1,45.5,91z"/>
						<path class="st0" d="M45.8,95.4c0-0.1,0-0.2-0.1-0.3C45.8,95.2,45.7,95.3,45.8,95.4C45.8,95.3,45.8,95.3,45.8,95.4z"/>
						<path class="st0" d="M45.6,94.9l-0.1,0.3c0.1,0,0.1-0.2,0.2-0.3c-0.1-0.1-0.1,0.1-0.2,0.1L45.6,94.9z"/>
						<path class="st0" d="M43.4,95.1c0-0.2-0.1-0.2,0-0.3c-0.1,0.2-0.2,0.1-0.3,0.2c0,0.1,0,0.4,0,0.3l0.1-0.2l0,0.1
							C43.4,95.3,43.2,95,43.4,95.1z"/>
						<path class="st0" d="M37.2,94.3c0-0.1-0.1-0.2-0.1-0.3C37,94.2,37.2,94.3,37.2,94.3z"/>
					</g>
				</g>
			</g>
		</g>
	</g>
</g>
</svg>
