<?xml version="1.0" encoding="utf-8"?>
<!-- Generator: Adobe Illustrator 24.2.0, SVG Export Plug-In . SVG Version: 6.00 Build 0)  -->
<svg version="1.1" id="Layer_1" xmlns="http://www.w3.org/2000/svg" xmlns:xlink="http://www.w3.org/1999/xlink" x="0px" y="0px"
	 viewBox="0 0 69 68" style="enable-background:new 0 0 69 68;" xml:space="preserve">
<style type="text/css">
	.st0{fill:#FFFFFF;}
	.st1{fill:#FAC706;}
	.st2{fill:#E76969;}
	.st3{fill:#846504;}
	.st4{fill:#FFDD71;}
	.st5{fill:#FFB0B0;}
</style>
<g>
	<g>
		<g>
			<g>
				<path d="M47.6,60H21.4c-5,0-9.1-3.4-9.1-7.6V28.2C12.2,24,34,13.8,34,13.8c5,0,22.8,10.3,22.8,14.4v24.3
					C56.8,56.6,52.6,60,47.6,60z"/>
				<path class="st0" d="M47.6,63.6H21.4c-7,0-12.7-5-12.7-11.1V28.2c0-1.8,0-6.4,23.8-17.6l0.7-0.3H34c5.4,0,26.4,10.5,26.4,18
					v24.3C60.3,58.6,54.6,63.6,47.6,63.6z M15.8,28.7v23.7c0,2.1,2.6,4,5.6,4h26.2c3,0,5.6-1.9,5.6-4V28.6
					c-1.7-3-14.2-10.4-18.5-11.2C26.6,21.3,17.6,26.5,15.8,28.7z M53.3,28.7L53.3,28.7L53.3,28.7z"/>
			</g>
			<g>
				<path d="M63.2,27.5L36.7,8.7C36,8.2,35.2,8,34.5,8c-0.7,0-1.5,0.2-2.2,0.6L5.8,27.5c-1.6,1.1-2,3.4-0.9,5l0.2,0.3
					c1.1,1.6,3.4,2,5,0.9l24.4-17.3l24.4,17.3c1.6,1.1,3.9,0.8,5-0.9l0.2-0.3C65.2,30.9,64.8,28.6,63.2,27.5z"/>
				<path class="st0" d="M8.1,37.8c-0.4,0-0.8,0-1.2-0.1c-1.9-0.3-3.5-1.4-4.6-2.9L2,34.6c-1.1-1.6-1.5-3.5-1.2-5.3
					c0.3-1.9,1.4-3.5,2.9-4.6L30.3,5.7c1.2-0.9,2.7-1.3,4.2-1.3c1.5,0,3,0.4,4.2,1.3l26.6,18.8c1.6,1.1,2.6,2.8,2.9,4.6
					c0.3,1.9-0.1,3.8-1.2,5.3l-0.2,0.3c-1.1,1.6-2.7,2.6-4.6,2.9c-1.9,0.3-3.8-0.1-5.3-1.2L34.5,20.7L12.2,36.5
					C11,37.4,9.5,37.8,8.1,37.8z M34.5,12.7c0.7,0,1.4,0.2,2.1,0.7l24.4,17.3l0.2-0.3c0,0,0,0,0,0L34.6,11.6c-0.1,0-0.1,0-0.2,0
					L7.8,30.4L8,30.7l24.4-17.3C33.1,13,33.8,12.7,34.5,12.7z"/>
			</g>
			<g>
				<g>
					<path d="M39.5,51.3c-0.3,0-0.6-0.1-0.9-0.2l-3.3-1.8c-0.3-0.1-0.6-0.2-0.9-0.2c-0.3,0-0.6,0.1-0.9,0.2L30.2,51
						c-0.3,0.2-0.6,0.2-0.9,0.2c-0.6,0-1.2-0.3-1.5-0.7c-0.4-0.5-0.5-1.1-0.4-1.6l0.7-3.6c0.1-0.6-0.1-1.2-0.5-1.7l-2.6-2.6
						c-0.5-0.5-0.7-1.3-0.5-2.1c0.2-0.7,0.9-1.3,1.6-1.4l3.7-0.5c0.6-0.1,1.1-0.5,1.4-1l1.7-3.3c0.3-0.7,1-1.1,1.8-1.1
						c0.8,0,1.5,0.4,1.8,1.1L38,36c0.3,0.6,0.8,0.9,1.4,1l3.7,0.6c0.8,0.1,1.4,0.7,1.6,1.4c0.2,0.7,0,1.5-0.5,2.1l-2.7,2.6
						c-0.4,0.4-0.7,1-0.6,1.7l0.6,3.7c0.1,0.6-0.1,1.2-0.5,1.6C40.6,51.1,40.1,51.3,39.5,51.3C39.5,51.3,39.5,51.3,39.5,51.3z"/>
					<path class="st0" d="M39.5,54.9C39.5,54.9,39.5,54.9,39.5,54.9L39.5,54.9c-1,0-1.8-0.2-2.7-0.7l-2.5-1.3l-2.5,1.3
						c-0.8,0.4-1.7,0.6-2.6,0.6c-1.7,0-3.2-0.8-4.3-2c-1.1-1.3-1.5-2.9-1.2-4.6l0.5-2.8l-2-2c-1.5-1.5-2-3.7-1.4-5.8
						c0.7-2,2.4-3.5,4.6-3.8l2.8-0.4l1.3-2.5c1-1.9,2.9-3.1,5-3.1c2.1,0,4.1,1.2,5,3.2l1.2,2.5l2.8,0.4c2.1,0.3,3.8,1.8,4.5,3.8
						c0.6,2.1,0.1,4.2-1.5,5.7l-2,1.9l0.4,2.8c0.3,1.6-0.2,3.3-1.3,4.5C42.7,54.2,41.1,54.9,39.5,54.9z M35.2,52.5L35.2,52.5
						C35.2,52.5,35.2,52.5,35.2,52.5z M38,49.6C38,49.6,38,49.6,38,49.6L38,49.6z M34.4,45.5C34.4,45.5,34.4,45.5,34.4,45.5
						c0.9,0,1.8,0.2,2.6,0.7l0.5,0.3l-0.1-0.6c-0.3-1.8,0.3-3.6,1.6-4.8l0.4-0.4l-0.6-0.1c-1.8-0.3-3.3-1.4-4.1-3l-0.2-0.5l-0.3,0.5
						c-0.8,1.6-2.4,2.7-4.1,2.9l-0.6,0.1L30,41c1.3,1.3,1.8,3.1,1.5,4.8l-0.1,0.6l0.5-0.3C32.7,45.7,33.5,45.5,34.4,45.5z M26.5,41
						L26.5,41C26.5,41,26.5,41,26.5,41z M41.2,34.5L41.2,34.5C41.2,34.5,41.2,34.5,41.2,34.5z M33.2,34.3
						C33.2,34.3,33.2,34.3,33.2,34.3L33.2,34.3z"/>
				</g>
				<g>
					<path d="M39.5,50.8c-1-0.1-2-0.9-2.8-1.3c-0.9-0.5-1.8-1.1-2.8-0.8c-0.9,0.2-1.7,0.8-2.5,1.2c-1,0.5-2.4,1.5-3.3,0.2
						c-0.6-0.9,0-2.4,0.2-3.3c0.2-0.9,0.5-2,0.1-2.9c-0.4-0.8-1.3-1.5-1.9-2.1c-0.7-0.7-2-1.6-1.6-2.8c0.4-1.2,2-1.1,3-1.2
						c0.9-0.1,2-0.1,2.8-0.5c0.9-0.5,1.2-1.5,1.7-2.4c0.4-0.8,0.8-2.1,1.5-2.6c2.2-1.4,3.1,3.2,4,4.4c0.7,0.9,1.7,0.9,2.7,1.1
						c0.9,0.1,1.8,0.2,2.6,0.4c1.2,0.3,1.5,1.7,0.6,2.6c-0.3,0.3-0.6,0.6-0.9,0.9c-0.7,0.7-1.8,1.4-2.3,2.4c-0.5,1-0.1,2.4,0.1,3.4
						C40.9,48.6,41.5,50.8,39.5,50.8c-0.7,0-0.7,1,0,1c1.7,0,2.7-1.5,2.5-3.1c-0.1-1.1-0.3-2.1-0.5-3.1c-0.1-0.6-0.1-1.1,0.4-1.6
						c0.3-0.3,0.6-0.6,0.9-0.9c0.7-0.7,1.7-1.4,2.2-2.3c0.9-1.5-0.1-3.4-1.7-3.8c-1-0.2-1.9-0.3-2.9-0.5c-0.5-0.1-1-0.1-1.4-0.4
						c-0.4-0.3-0.6-0.8-0.8-1.2c-0.4-0.9-0.8-1.8-1.3-2.7c-0.9-1.6-3.1-1.9-4.2-0.5c-0.6,0.8-1,1.9-1.5,2.8c-0.2,0.3-0.3,0.7-0.5,1
						c-0.4,0.6-0.9,0.7-1.5,0.8C28,36.7,27,36.8,25.9,37c-1.5,0.3-2.6,1.8-2.1,3.3c0.3,1,1.4,1.8,2.1,2.5c0.7,0.7,1.7,1.4,1.5,2.5
						c-0.2,1.1-0.4,2.2-0.6,3.3c-0.3,1.5,0.5,3,2.1,3.2c1.1,0.1,2.2-0.6,3.1-1.1c0.9-0.5,1.9-1.3,3-0.8c1,0.5,1.9,1,2.9,1.5
						c0.5,0.3,1,0.4,1.5,0.5C40.1,51.9,40.1,50.9,39.5,50.8z"/>
					<path class="st0" d="M39.5,55.4c-0.1,0-0.1,0-0.2,0c-0.1,0-0.3,0-0.4,0c-1.2-0.1-2.1-0.6-2.6-0.9c-0.3-0.2-0.7-0.4-1-0.6
						c-0.3-0.2-0.6-0.3-0.9-0.5c-0.2,0.1-0.4,0.2-0.6,0.3c-0.1,0.1-0.3,0.2-0.4,0.2c-1.1,0.6-2.7,1.5-4.8,1.2
						c-1.7-0.2-3.1-1-4.1-2.4c-1-1.4-1.4-3.2-1.1-5c0.1-0.5,0.2-0.9,0.3-1.4c0.1-0.3,0.1-0.6,0.2-0.9c-0.1-0.1-0.2-0.2-0.3-0.3
						c-0.1-0.1-0.3-0.2-0.4-0.4c-0.8-0.7-2-1.8-2.6-3.5c-0.6-1.7-0.4-3.5,0.6-5c0.9-1.6,2.5-2.6,4.3-2.9c0.8-0.1,1.5-0.2,2.3-0.3
						c0.1,0,0.2,0,0.4,0c0.1-0.2,0.2-0.4,0.3-0.6c0.4-0.8,0.8-1.8,1.6-2.7c1.3-1.6,3.2-2.4,5.3-2.2c2.1,0.2,3.9,1.4,4.9,3.2
						c0.3,0.6,0.7,1.3,1,2c0.1,0.2,0.2,0.3,0.2,0.5c0.2,0,0.4,0.1,0.6,0.1c0.7,0.1,1.4,0.2,2.1,0.3c1.9,0.4,3.6,1.7,4.4,3.5
						c0.8,1.8,0.7,3.9-0.3,5.5c-0.7,1.1-1.6,1.9-2.3,2.6c-0.2,0.2-0.4,0.3-0.5,0.5l-0.1,0.1l0,0.3c0.1,0.7,0.2,1.5,0.3,2.2
						c0.3,1.8-0.3,3.7-1.5,5.1c-1.1,1.2-2.6,2-4.2,2C39.7,55.4,39.6,55.4,39.5,55.4z M34.3,45c1,0,1.8,0.2,2.5,0.5
						c-0.1-1,0.1-2.1,0.6-3.2c0.3-0.5,0.6-0.9,0.9-1.3c-1.1-0.3-2.4-0.8-3.4-2.2c-0.2-0.2-0.3-0.4-0.4-0.7c-0.5,0.8-1.2,1.6-2.2,2.1
						c-0.6,0.3-1.1,0.5-1.6,0.6c0.3,0.4,0.6,0.8,0.8,1.3c0.6,1.1,0.6,2.3,0.5,3.2c0.3-0.1,0.6-0.2,0.9-0.3
						C33.4,45.1,33.9,45,34.3,45z"/>
				</g>
			</g>
		</g>
		<g>
			<g>
				<path class="st1" d="M47.7,60H21.4c-5,0-9.1-3.4-9.1-7.6V28.2C12.3,24,34,13.8,34,13.8c5,0,22.8,10.3,22.8,14.4v24.3
					C56.8,56.6,52.7,60,47.7,60z"/>
				<path d="M47.7,58.9c-8.7,0-17.4,0.1-26.1,0c-3.4,0-7.5-1.8-8.1-5.6c-0.2-1.4-0.1-3-0.1-4.4c0-5.7,0-11.3,0-17
					c0-1.1-0.2-2.8,0-3.7c0.3-1.4,3-3.1,4.2-4c4.8-3.3,10-6,15.2-8.5c0.5-0.3,1.1-0.5,1.6-0.8c0,0,0.1,0,0.1-0.1
					c-0.8,0.3-0.3,0.1-0.1,0.2c0.4,0.2,1,0.2,1.4,0.3c3,0.8,5.9,2.3,8.6,3.9c3,1.6,5.9,3.5,8.4,5.7c1.1,1,2.7,2.3,2.7,3.7
					c0.2,4.9,0,9.8,0,14.6c0,2.5,0,5.1,0,7.6c0,2.2-0.1,4.1-1.8,5.7C52.2,58.1,49.9,58.8,47.7,58.9c-1.5,0-1.5,2.3,0,2.3
					c4.3-0.1,9-2.4,10.1-6.9c0.4-1.6,0.2-3.5,0.2-5.2c0-6,0-12,0-18.1c0-1.3,0.2-2.9-0.3-4.1c-1.1-2.4-3.7-4.2-5.7-5.7
					c-3.1-2.2-6.4-4.2-9.8-5.8c-1.5-0.7-3-1.4-4.5-1.9c-1-0.4-2.3-0.8-3.5-0.7c-1.4,0.1-2.9,1.3-4.1,1.9c-2.9,1.4-5.7,2.9-8.4,4.5
					c-2.7,1.6-5.5,3.2-7.8,5.3c-1.3,1.1-2.5,2.3-2.5,4.1c-0.2,5.3,0,10.6,0,15.8c0,2.4,0,4.9,0,7.3c0,2.7,0.8,5.2,3,7
					c4.1,3.4,10.2,2.6,15.2,2.6c5.7,0,11.4,0,17.1,0c0.4,0,0.8,0,1.2,0C49.1,61.1,49.1,58.9,47.7,58.9z"/>
			</g>
			<g>
				<path class="st2" d="M63.3,27.5L36.7,8.7C36,8.2,35.3,8,34.5,8c-0.7,0-1.5,0.2-2.2,0.6L5.8,27.5c-1.6,1.1-2,3.4-0.9,5l0.2,0.3
					c1.1,1.6,3.4,2,5,0.9l24.4-17.3l24.4,17.3c1.6,1.1,3.9,0.8,5-0.9l0.2-0.3C65.3,30.9,64.9,28.6,63.3,27.5z"/>
				<path d="M63.8,26.5c-6.2-4.4-12.4-8.8-18.6-13.2c-2.6-1.8-5.2-3.7-7.8-5.5c-3.1-2.1-5.6-0.2-8,1.6c-7.3,5.2-14.6,10.4-21.9,15.6
					c-0.7,0.5-1.5,1-2.2,1.6c-2.3,1.7-2.7,4.8-0.9,7.1c1.6,2,4.4,2.4,6.5,0.9c1-0.6,1.9-1.3,2.8-2c7-4.9,13.9-9.9,20.9-14.8
					c0.2-0.1,0.3-0.2,0.5-0.4c-0.4,0-0.8,0-1.1,0c4,2.9,8,5.7,12.1,8.6c4.1,2.9,8.1,6,12.3,8.7c5,3.2,10.4-4.1,5.7-7.9
					c-1.1-0.9-2.7,0.7-1.6,1.6c1,0.8,1.5,2,0.9,3.3c-0.5,1.1-1.8,1.8-3,1.5c-0.5-0.1-1-0.5-1.4-0.8c-1.7-1.2-3.4-2.4-5-3.6
					c-5-3.5-10-7.1-15-10.6c-1.3-0.9-2.5-1.8-3.8-2.7c-0.3-0.2-0.8-0.2-1.1,0c-5.9,4.2-11.8,8.4-17.7,12.6c-2.2,1.6-4.4,3.3-6.7,4.7
					c-2.8,1.7-5.8-2.1-3.2-4.2c0.6-0.5,1.3-0.9,2-1.4c7-5,14-9.9,20.9-14.9c1.9-1.4,4.4-4,6.8-2.5c2.3,1.4,4.4,3.1,6.6,4.7
					c6.6,4.7,13.3,9.4,19.9,14.1C63.9,29.3,65,27.3,63.8,26.5z"/>
			</g>
		</g>
		<path class="st3" d="M13.4,32.6c0,0,0,18.8,0,20.7s3.1,5.5,7.2,5.5c4.6,0,26.3,0,27.8,0s7.2-1.5,7.2-6c0,0-3.2,4.3-7.4,4.2
			c-4.2-0.1-25.8,0-27.4,0c-1.6,0-5.2-2.4-5.2-6.1c0-3.7,0.1-20,0.1-20L13.4,32.6z"/>
		<polygon class="st4" points="31.4,20.1 34.7,17.7 55.6,32.7 55.6,43.4 53.6,35.6 		"/>
		<path class="st5" d="M62.4,30.5l-27.3-19c-0.3-0.2-0.3-0.6-0.2-0.9v0c0.2-0.3,0.6-0.3,0.9-0.2l27.3,19c0.3,0.2,0.3,0.6,0.2,0.9
			l0,0C63.1,30.6,62.7,30.7,62.4,30.5z"/>
	</g>
	<g>
		<path class="st2" d="M39.9,51c-0.4,0-0.7-0.1-1-0.3l-3.5-1.9c-0.3-0.2-0.6-0.2-0.9-0.2c-0.3,0-0.7,0.1-1,0.2l-3.6,1.8
			c-0.3,0.2-0.7,0.2-1,0.2c-0.6,0-1.3-0.3-1.7-0.8c-0.4-0.5-0.6-1.1-0.5-1.8l0.7-4c0.1-0.7-0.1-1.3-0.6-1.8L24,39.6
			c-0.6-0.6-0.8-1.5-0.5-2.3c0.3-0.8,1-1.4,1.8-1.5l4-0.5c0.7-0.1,1.2-0.5,1.5-1.1l1.8-3.6c0.4-0.8,1.1-1.2,2-1.2
			c0.8,0,1.6,0.5,2,1.2l1.7,3.6c0.3,0.6,0.9,1,1.5,1.1l4,0.6c0.8,0.1,1.5,0.7,1.8,1.5c0.3,0.8,0,1.7-0.6,2.2l-2.9,2.8
			c-0.5,0.5-0.7,1.1-0.6,1.8l0.6,4c0.1,0.6-0.1,1.3-0.5,1.8C41.2,50.7,40.6,51,39.9,51C39.9,51,39.9,51,39.9,51z"/>
		<path d="M39.9,51.6C39.9,51.6,39.9,51.6,39.9,51.6c-0.5,0-0.9-0.1-1.4-0.3L35,49.4c-0.2-0.1-0.4-0.2-0.6-0.2c-0.2,0-0.4,0-0.6,0.2
			l-3.6,1.8c-0.4,0.2-0.9,0.3-1.3,0.3c-0.8,0-1.6-0.4-2.2-1c-0.5-0.6-0.8-1.5-0.6-2.3l0.7-4c0.1-0.4-0.1-0.9-0.4-1.2l-2.9-2.8
			c-0.8-0.8-1-1.9-0.7-2.9c0.4-1,1.2-1.8,2.3-1.9l4-0.5c0.4-0.1,0.8-0.3,1-0.7l1.8-3.6c0.5-1,1.5-1.6,2.6-1.6c1.1,0,2.1,0.6,2.5,1.6
			l1.7,3.6c0.2,0.4,0.6,0.7,1,0.8l4,0.6c1.1,0.2,2,0.9,2.3,2c0.3,1,0,2.2-0.8,2.9l-2.9,2.8c-0.3,0.3-0.5,0.8-0.4,1.2l0.6,4
			c0.1,0.8-0.1,1.7-0.7,2.3C41.6,51.3,40.8,51.6,39.9,51.6z M39.9,50.3C39.9,50.3,39.9,50.3,39.9,50.3c0.5,0,0.9-0.2,1.2-0.5
			c0.3-0.3,0.4-0.8,0.3-1.2l-0.6-4c-0.1-0.9,0.2-1.8,0.8-2.4l2.9-2.8c0.4-0.4,0.6-1,0.4-1.6s-0.6-1-1.2-1.1l-4-0.6
			c-0.9-0.1-1.6-0.7-2-1.5L36,31c-0.3-0.5-0.8-0.9-1.4-0.9c0,0,0,0,0,0c-0.6,0-1.1,0.3-1.4,0.8l-1.8,3.6c-0.4,0.8-1.2,1.3-2.1,1.5
			l-4,0.5c-0.6,0.1-1.1,0.5-1.2,1c-0.2,0.6,0,1.2,0.4,1.6l2.9,2.8c0.6,0.6,0.9,1.5,0.8,2.4l-0.7,4c-0.1,0.4,0,0.9,0.3,1.2
			c0.3,0.4,0.7,0.6,1.2,0.6c0.2,0,0.5-0.1,0.7-0.2l3.6-1.8c0.4-0.2,0.8-0.3,1.3-0.3c0.4,0,0.9,0.1,1.3,0.3l3.5,1.9
			C39.4,50.2,39.7,50.3,39.9,50.3z"/>
	</g>
</g>
</svg>
