<svg xmlns="http://www.w3.org/2000/svg" viewBox="0 0 250 250"><defs><style>.cls-1{fill:#f7c402;}.cls-2{fill:#ffda83;}.cls-3{fill:#7dc4ca;}.cls-4{fill:#183e41;}.cls-5{fill:#4287c7;}.cls-6{fill:#1d1d1b;}.cls-7{fill:#e4252e;}.cls-8{fill:#0065af;}.cls-9{fill:#fff;}.cls-10{fill:#c4e3e6;}.cls-11{fill:#e1262f;}.cls-12{opacity:0.42;}.cls-13{opacity:0.32;}</style></defs><g id="Circulos_amarillos" data-name="Circulos amarillos"><circle class="cls-1" cx="123.61" cy="125.17" r="112.25"/><path d="M234.36,125.17A110.72,110.72,0,0,1,62.87,217.79a111.78,111.78,0,0,1-24.73-22.17,110.28,110.28,0,0,1-25-61.88A111.93,111.93,0,0,1,16,98.94a110.7,110.7,0,0,1,94.76-83.79,112.17,112.17,0,0,1,35,1.47,110.74,110.74,0,0,1,87.35,91.48,112.19,112.19,0,0,1,1.3,17.07,1.5,1.5,0,0,0,3,0,114.39,114.39,0,0,0-5.53-35.12,113.17,113.17,0,0,0-15.41-30.66A115,115,0,0,0,192.81,34.9,113.67,113.67,0,0,0,35.92,52.72a114.86,114.86,0,0,0-17.6,29.35,113.33,113.33,0,0,0-8.13,34.36,114.52,114.52,0,0,0,2.9,35.77A113.76,113.76,0,0,0,236,142.69a116.76,116.76,0,0,0,1.35-17.52A1.5,1.5,0,0,0,234.36,125.17Z"/><circle class="cls-2" cx="123.61" cy="125.17" r="96.77"/><path d="M218.88,125.17a94.77,94.77,0,1,1-1.11-14.66,97.28,97.28,0,0,1,1.11,14.66,1.5,1.5,0,0,0,3,0,98.18,98.18,0,1,0-1.19,15.28,101.52,101.52,0,0,0,1.19-15.28A1.5,1.5,0,0,0,218.88,125.17Z"/><path d="M234.36,125.17A110.72,110.72,0,0,1,62.87,217.79a111.78,111.78,0,0,1-24.73-22.17,110.28,110.28,0,0,1-25-61.88A111.93,111.93,0,0,1,16,98.94a110.7,110.7,0,0,1,94.76-83.79,112.17,112.17,0,0,1,35,1.47,110.74,110.74,0,0,1,87.35,91.48,112.19,112.19,0,0,1,1.3,17.07,1.5,1.5,0,0,0,3,0,114.39,114.39,0,0,0-5.53-35.12,113.17,113.17,0,0,0-15.41-30.66A115,115,0,0,0,192.81,34.9,113.67,113.67,0,0,0,35.92,52.72a114.86,114.86,0,0,0-17.6,29.35,113.33,113.33,0,0,0-8.13,34.36,114.52,114.52,0,0,0,2.9,35.77A113.76,113.76,0,0,0,236,142.69a116.76,116.76,0,0,0,1.35-17.52A1.5,1.5,0,0,0,234.36,125.17Z"/></g><g id="_5" data-name="5"><path class="cls-3" d="M178.78,88.59,180.27,59"/><path class="cls-4" d="M179.53,88.59,181,59c0-1-1.45-1-1.5,0L178,88.59c-.05,1,1.45,1,1.5,0Z"/><path class="cls-3" d="M179.47,70.31a10.53,10.53,0,0,1,.53,1,28,28,0,0,1,1.7-3.16c.6-.42,3.57,2.35,3.68,2.29s-.13-1.46.21-2.06c2.26.39,4.73.5,5.61,1.16,0-1.06-8.48-8.3-10.8-10.29L169.33,73.78c3-2.72,3.92-3,7.83-6.11A10.67,10.67,0,0,1,179.47,70.31Z"/><path class="cls-4" d="M178.82,70.69c.19.32.37.63.53,1a.75.75,0,0,0,1.29,0c.36-.72.72-1.45,1.11-2.17,0-.06.5-.83.49-.85-.38.06-.5.13-.36.2l.1.05c.06.08.31.16.4.22a15.34,15.34,0,0,1,1.72,1.28c.3.24.69.68,1.08.75a.79.79,0,0,0,.93-.52c.23-.58-.12-1.29.13-1.88l-.85.34c1.05.17,2.1.29,3.15.45a5.85,5.85,0,0,1,2.29.64A.75.75,0,0,0,192,69.5a3.82,3.82,0,0,0-1.29-2c-1-1.07-2.09-2.06-3.17-3-2.15-2-4.36-3.86-6.56-5.75a.76.76,0,0,0-1.18.15q-5.52,7.29-11.07,14.58c-.53.7.58,1.44,1.18.9,2.48-2.2,5.24-4,7.83-6.11h-1.06a11.29,11.29,0,0,1,2.19,2.49c.53.81,1.83.06,1.3-.76a12.44,12.44,0,0,0-2.43-2.79.78.78,0,0,0-1.06,0c-2.59,2.07-5.35,3.9-7.83,6.11l1.18.91q5.53-7.29,11.07-14.58l-1.18.16c2,1.73,4,3.46,6,5.24,1,.94,2.08,1.89,3.08,2.89.38.39.77.78,1.12,1.2.1.12.19.27.29.37s.12.34.09.06l1.13-.65c-1.59-1-4-.94-5.79-1.24a.79.79,0,0,0-.85.35,3.56,3.56,0,0,0-.28,1.21,5.88,5.88,0,0,1,0,1l.92-.53c.23,0,.08.07,0,0a2.25,2.25,0,0,0-.45-.35c-.32-.26-.64-.52-1-.77a5.46,5.46,0,0,0-2-1.19c-.69-.14-1.06.24-1.39.78a30.07,30.07,0,0,0-1.43,2.76h1.29c-.16-.33-.33-.64-.52-1A.75.75,0,0,0,178.82,70.69Z"/><path class="cls-3" d="M170.69,91.69,181.47,89a.85.85,0,0,1,1.26.81l4.25,20.4a1.4,1.4,0,0,1,0,1,1.38,1.38,0,0,1-.91.57l-4.32,1.35a2.12,2.12,0,0,1-1.11.13,2,2,0,0,1-1-.82c-1.88-2.6-2.6-5.83-3.67-8.86A38.48,38.48,0,0,0,170.27,93"/><path class="cls-3" d="M171,92.78l6.09-1.52,3-.76a5.13,5.13,0,0,1,1.4-.35c.87.12,0-.11.11,0s.16.75.2.93l2.51,12,1.26,6a6.17,6.17,0,0,1,.34,1.42c0,.1-.61.24-.84.31l-2.81.87c-.48.15-1,.45-1.46.24s-.58-.64-.78-1a16.52,16.52,0,0,1-1.26-2.61c-.63-1.62-1.1-3.31-1.67-5a40.52,40.52,0,0,0-5.88-11c-.86-1.14-2.82,0-1.95,1.13a41.4,41.4,0,0,1,6.29,12.41,29.86,29.86,0,0,0,2.33,5.85,6.28,6.28,0,0,0,1.71,2.18,3.13,3.13,0,0,0,2.83.07l3.24-1a3.43,3.43,0,0,0,2.23-1.29,3.56,3.56,0,0,0,0-2.51l-.82-3.94L184,90.22c-.2-1-.41-2-1.49-2.33s-2.4.31-3.41.56l-8.66,2.16a1.13,1.13,0,0,0,.59,2.17Z"/><path d="M164.2,85.35A174.79,174.79,0,0,1,175,107.21c.71,1.81,1.36,3.65,1.94,5.5.46,1.48.85,2.78,2.59,3a8.32,8.32,0,0,0,3.56-.49,29.21,29.21,0,0,1,4.7-1.12,2.27,2.27,0,0,0,1.93-2.79,48,48,0,0,0-1.32-5.38c-.94-3.79-1.78-7.6-2.48-11.44S184.7,86.84,184.32,83c-.09-.94-.18-1.88-.25-2.82a9.88,9.88,0,0,0-.34-2.77c-.55-1.37-2.15-1.46-3.42-1.53-6.13-.37-13.43,2.25-17,7.46a1.14,1.14,0,0,0,0,1.13c.84,1.69,2.84,1.86,4.52,1.76a24.87,24.87,0,0,0,5.73-1.07c3.59-1.11,7.29-3,9.66-6,.88-1.13-.7-2.73-1.6-1.6a16.47,16.47,0,0,1-7.62,5,25.73,25.73,0,0,1-4.49,1.15c-1.07.17-3.66.73-4.26-.46v1.13c2.77-4,8.37-6.09,13.1-6.34.78,0,2.88-.28,3.32.37.3.46.14,1.84.19,2.39.07.94.16,1.87.26,2.8q.51,4.86,1.32,9.68c.55,3.22,1.21,6.43,1.94,9.62.34,1.49.7,3,1.07,4.48.23.92.47,1.84.71,2.76.08.31.17.62.24.94a2.68,2.68,0,0,1,.11.64c.22.12.15.16-.2.09a13.22,13.22,0,0,1-1.9.32c-.61.15-1.22.32-1.82.51a9.46,9.46,0,0,1-3.45.81c-.83-.09-.81-.69-1-1.4s-.47-1.48-.73-2.21c-.58-1.7-1.22-3.38-1.9-5a189.77,189.77,0,0,0-10.36-20.66,1.13,1.13,0,0,0-1.94,1.14Z"/><path class="cls-5" d="M162.29,169.59c-5.63-19-27.56-51.62-33.44-70.56-.42-1.35-.94-2.83-2.19-3.5a4,4,0,0,0-2.81-.36c-18,4.67-35.45.15-54.25,5.19-2.68.72-4.69,7-8.17,11.24,6.2,20.57,20.64,67.12,26.44,87.71,0,0,0,2.95,4.7,1.77s60.41-20,60.41-20Z"/><path d="M163.37,169.29a108.72,108.72,0,0,0-6.73-16.35c-3.11-6.39-6.47-12.65-9.83-18.9s-6.71-12.45-9.85-18.78a117.9,117.9,0,0,1-7-16.41c-.48-1.52-1-3.18-2.44-4.11-1.88-1.24-3.81-.66-5.82-.21a79.44,79.44,0,0,1-13.47,1.72c-9.07.46-18.18,0-27.23.93-2.24.23-4.47.54-6.68,1-1.87.35-4.27.55-5.93,1.53-2.48,1.47-3.79,4.91-5.19,7.28-.45.77-.91,1.53-1.41,2.27s-1.36,1.44-1.48,2.23c-.14,1,.62,2.42.9,3.33.76,2.52,1.52,5,2.29,7.55q5.81,19,11.62,38.05c3.62,11.94,7.25,23.88,10.7,35.87.29,1,.7,2.22.91,3.11a5.42,5.42,0,0,0,.42,1.42c1.18,2.05,3.89,1.86,5.86,1.35,2.21-.58,4.38-1.34,6.55-2,8.73-2.82,17.43-5.73,26.13-8.64l23.87-8,2.85-1a3.92,3.92,0,0,0,1.37-.6,25.87,25.87,0,0,0,2.59-3.2l4.38-5.43,2.32-2.88c.91-1.11-.68-2.71-1.59-1.59l-8.64,10.71a3.39,3.39,0,0,0-.56.69c-.16.38.24-.19.36-.15-.14,0-.57.19-.7.23l-3.71,1.25q-16.05,5.4-32.12,10.76-8,2.66-16.05,5.28-2.67.87-5.35,1.71a13.26,13.26,0,0,1-4.23,1,1.74,1.74,0,0,1-1.33-.49.64.64,0,0,1-.12-.24c-.11-.23-.06-.21,0-.12-.27-1.22-.62-2.41-1-3.61-.94-3.3-1.91-6.59-2.88-9.89Q81.63,174,78,162.17c-4.73-15.6-9.54-31.19-14.27-46.8-.42-1.36-.83-2.71-1.24-4.07l-.29,1.09a44.86,44.86,0,0,0,4-6.23c.82-1.44,1.8-3.8,3.37-4.6a17.18,17.18,0,0,1,4.11-1q2.36-.48,4.74-.81c3.16-.43,6.35-.66,9.53-.79,6.06-.25,12.12-.13,18.17-.35,3.06-.11,6.12-.32,9.16-.69s5.86-1.1,8.81-1.65,3.46,2.7,4.18,4.8c.62,1.78,1.31,3.53,2,5.27,1.67,4,3.55,7.91,5.5,11.78,4.37,8.66,9.09,17.14,13.6,25.72,4.41,8.38,9,17,11.73,26.07A1.13,1.13,0,0,0,163.37,169.29Z"/><path class="cls-5" d="M75.58,99.43a79.77,79.77,0,0,0-3.1-8.76,79,79,0,0,1,8.83-3.18c2.33-.82,5.07-1.49,7.29-2,0,0,2.36,5.52,3.63,9.12"/><path d="M76.67,99.13a82.13,82.13,0,0,0-3.22-9l-.4,1.54a73.22,73.22,0,0,1,8-2.88c2.57-.88,5.17-1.57,7.81-2.22L87.63,86c1.2,2.82,2.46,5.87,3.51,8.85.48,1.35,2.66.77,2.17-.6-1.12-3.17-2.42-6.29-3.74-9.39a1.14,1.14,0,0,0-1.27-.52c-2.76.68-5.46,1.43-8.16,2.33a70.19,70.19,0,0,0-8.22,3,1.15,1.15,0,0,0-.41,1.54,77,77,0,0,1,3,8.49,1.13,1.13,0,0,0,2.17-.6Z"/><path class="cls-5" d="M112.3,89.78A81.35,81.35,0,0,0,109.19,81,81.08,81.08,0,0,1,118,77.83c2.33-.81,5.07-1.48,7.29-2,0,0,2.36,5.52,3.63,9.12"/><path d="M113.38,89.48a80.92,80.92,0,0,0-3.21-9L109.76,82a73.22,73.22,0,0,1,8-2.88c2.57-.88,5.17-1.57,7.81-2.21l-1.27-.52c1.2,2.82,2.46,5.88,3.51,8.85.48,1.36,2.66.77,2.17-.6-1.12-3.17-2.42-6.29-3.74-9.39a1.14,1.14,0,0,0-1.27-.51c-2.76.67-5.46,1.43-8.15,2.33a70.29,70.29,0,0,0-8.23,3,1.15,1.15,0,0,0-.41,1.54,75.67,75.67,0,0,1,3,8.49,1.13,1.13,0,0,0,2.17-.59Z"/><path class="cls-6" d="M101.53,92.14c-2.24-4.49-4.49-9-6.48-13.58-.94-2.19-1.82-4.41-2.61-6.65a36.5,36.5,0,0,1-2-7.17,14.49,14.49,0,0,1,1-6.95c.65-1.76,1.37-4,2.82-5.24a10.12,10.12,0,0,1,2.45-1.67,13,13,0,0,1,3.39-.67c2.46-.33,4.85-.62,7.24.25,1.82.65,2.6-2.25.8-2.9a14,14,0,0,0-6.22-.58,24.86,24.86,0,0,0-6,1,12,12,0,0,0-4.24,2.88A15.7,15.7,0,0,0,89,55.77a18.44,18.44,0,0,0-1,12,83.34,83.34,0,0,0,4.44,12.25c2,4.61,4.24,9.1,6.48,13.59.87,1.72,3.46.2,2.59-1.52Z"/><path class="cls-7" d="M108.84,90.61c-4.06-6.79-8.43-13.76-10.69-21.4a10.11,10.11,0,0,1-.22-5.91,21.36,21.36,0,0,1,2.66-5.21c.39-.61.65-1.26,1.36-1.49a20.11,20.11,0,0,0,2.27-.63,4.39,4.39,0,0,1,2-.54,22.13,22.13,0,0,0,2.7.06c1.9-.19,1.92-3.19,0-3s-3.7-.31-5.57.55c-1.58.73-3.28.63-4.44,2.1C96.31,58.5,94.1,63,94.67,67.32s2.78,8.82,4.77,12.77c2.07,4.12,4.44,8.08,6.81,12a1.5,1.5,0,0,0,2.59-1.52Z"/><path class="cls-8" d="M161.43,163.77c-5.63-19-18.49-56.94-24.37-75.89-.41-1.35-.94-2.83-2.18-3.49a4,4,0,0,0-2.82-.37c-20.59,5.34-40.47,10.48-62.42,16.43,6.21,20.57,20.64,67.12,26.44,87.72,0,0,0,2.94,4.7,1.77s60.42-20,60.42-20S163.43,170.54,161.43,163.77Z"/><path d="M162.87,163.37c-5.06-17.09-10.79-34-16.33-50.94-2.58-7.9-5.17-15.81-7.65-23.75-.63-2-1.18-4.32-3.11-5.5-2.55-1.56-5.55-.23-8.17.45l-17.67,4.59Q89.57,93.52,69.24,99a1.51,1.51,0,0,0-1,1.84c4.33,14.34,8.75,28.66,13.12,43,4.41,14.49,8.85,29,13,43.54l.28,1c0-.08,0-.25,0-.07a5.25,5.25,0,0,0,.38,1.38,3.79,3.79,0,0,0,2.82,2,11.24,11.24,0,0,0,5.21-.77c3.89-1.19,7.74-2.47,11.6-3.74q16.92-5.56,33.79-11.26l11.26-3.78c.43-.15,1.61-.31,1.93-.65s-1.66.13-.3.05a2.43,2.43,0,0,0,1.06-.25,2.91,2.91,0,0,0,1.38-2.38,14.61,14.61,0,0,0-.85-5.47,1.5,1.5,0,0,0-2.89.8,20,20,0,0,1,.73,3.15,13.38,13.38,0,0,1,0,1.46c0,.14,0,0,0,0s-.46.37.06-.06c-.08.07.25-.15.35-.18.48-.18-.15.15.47,0a10,10,0,0,0-1.09.1c-.36.1-.7.23-1,.35l-10,3.38q-16.28,5.46-32.57,10.86c-4.22,1.4-8.44,2.79-12.68,4.13-1.12.36-2.25.73-3.39,1a4.48,4.48,0,0,1-2.84.2.75.75,0,0,1-.32-.31c.1.14,0-.14-.06-.23s.08.43,0,.13a80.09,80.09,0,0,0-2.31-8.28q-1.47-5-3-10-3.39-11.37-6.86-22.72c-4.38-14.43-8.82-28.84-13.2-43.27-.39-1.28-.78-2.56-1.16-3.84l-1,1.85q17.64-4.79,35.32-9.39l17-4.42,8.75-2.27c1.18-.3,2.55-.79,3.51.26A7.63,7.63,0,0,1,135.84,89c5.14,16.49,10.67,32.87,16,49.31,2.79,8.59,5.57,17.19,8.14,25.86C160.53,166,163.42,165.23,162.87,163.37Z"/><path class="cls-9" d="M91.62,114.38,102,111.43a1.53,1.53,0,0,0,1.05-1.85,1.52,1.52,0,0,0-1.84-1l-10.35,3a1.5,1.5,0,1,0,.8,2.89Z"/><path class="cls-9" d="M117.36,99.91c1,3.66,2.2,7.29,3.14,11a1.5,1.5,0,1,0,2.89-.8c-.93-3.69-2.09-7.32-3.13-11a1.53,1.53,0,0,0-1.85-1,1.52,1.52,0,0,0-1,1.84Z"/><path class="cls-9" d="M115.05,107.91c4.15-1.25,8.44-2.23,12.44-4a1.51,1.51,0,0,0,.53-2.06,1.53,1.53,0,0,0-2.05-.53c.37-.16-.26.1-.36.14l-.69.26-1.42.49c-1.14.37-2.28.73-3.43,1.07-1.94.57-3.89,1.11-5.82,1.69s-1.06,3.45.8,2.89Z"/><path class="cls-6" d="M109.45,59.34,108,44.91a1.44,1.44,0,0,1,.22-1.19,1.49,1.49,0,0,1,.95-.31q11.1-.85,22.24-.91a1,1,0,0,1,1.2,1.24l.82,15.67c-3.69.17-7.16-.26-10.15-.38A82.46,82.46,0,0,0,109.45,59.34Z"/><path class="cls-6" d="M110.2,59.34l-1.39-13.47c0-.34-.25-1-.13-1.28.27-.63,1.14-.48,1.68-.52l3.21-.22c2.3-.15,4.61-.26,6.92-.36s4.45-.15,6.67-.19l3.22,0c.94,0,1.28,0,1.46,1a12.07,12.07,0,0,1,.08,1.47l.72,13.71.75-.75c-4,.16-8-.32-12-.44a73,73,0,0,0-11.92.37c-1,.13-1,1.63,0,1.5a73,73,0,0,1,11.92-.37c4,.12,8,.6,12,.44a.76.76,0,0,0,.75-.75l-.67-12.73c-.06-1.22.3-3.62-.76-4.53a2.12,2.12,0,0,0-1.34-.4c-1.15,0-2.32,0-3.46,0q-6.31.09-12.61.46c-2.1.12-4.26.16-6.34.43-1.44.19-1.86,1.11-1.73,2.47.45,4.73,1,9.46,1.47,14.19C108.79,60.29,110.3,60.3,110.2,59.34Z"/><path class="cls-6" d="M122.59,41.29,121,37.85l-.74-1.64a4.85,4.85,0,0,0-.83-1.47c-.8-.8-2.24-.44-3.25-.39l-3.75.22c-1,0-1,1.55,0,1.5l3.28-.19,1.69-.09c.42,0,.88-.18,1.12.23.53.91.9,2,1.34,2.93l1.4,3.1a.75.75,0,0,0,1.3-.76Z"/><path class="cls-6" d="M122,59.6l-1.09,3.08-.52,1.46a5.93,5.93,0,0,1-.5,1.25.83.83,0,0,1-.77.31c-.51,0-1,0-1.52-.07l-3.25-.15c-1,0-1,1.46,0,1.5l3.57.17c1,0,2.24.21,3-.65a3.91,3.91,0,0,0,.7-1.36l.6-1.68L123.47,60c.32-.91-1.13-1.31-1.45-.4Z"/><path class="cls-9" d="M122.86,54.77l4.69-.13a1.13,1.13,0,1,0,0-2.25l-4.69.13a1.13,1.13,0,0,0,0,2.25Z"/><path class="cls-9" d="M123.36,47.86l.27,0,.18,0h-.07l.55-.06c.37,0,.76-.05,1.14-.06s.73,0,1.09,0l.55,0,.31,0c.06,0,.4,0,.11,0a1.25,1.25,0,0,0,.87-.12,1.12,1.12,0,0,0-.27-2.05,17.33,17.33,0,0,0-5.33.07,1.13,1.13,0,0,0-.78,1.38,1.16,1.16,0,0,0,1.38.79Z"/><path d="M152.48,128.55c4.31-2.77,8.62-5.52,12.65-8.69,3.85-3,7.72-6.65,9.79-11.18a3.1,3.1,0,0,0-1.08-4.11,3,3,0,0,0-4.1,1.08c-1.87,4.09-5.13,7-8.85,10-1.51,1.2-3.83,2.81-5.74,4.08s-3.79,2.46-5.7,3.68a3.06,3.06,0,0,0-1.07,4.11,3,3,0,0,0,4.1,1.07Z"/><path class="cls-9" d="M78.52,114.31a9.6,9.6,0,0,0,4.46,1,.77.77,0,0,0,.75-.75.76.76,0,0,0-.75-.75,8.86,8.86,0,0,1-1,0l-.22,0c-.09,0-.1,0,0,0l-.15,0a3.55,3.55,0,0,1-.47-.09c-.33-.07-.65-.16-1-.26l-.48-.19-.09,0-.27-.12a.75.75,0,1,0-.76,1.29Z"/><path class="cls-9" d="M79.24,110.44a17.49,17.49,0,0,0,3.6,1.58.75.75,0,1,0,.4-1.44l-.89-.31-.41-.16-.11,0c.08,0,.08,0,0,0l-.2-.09a15.81,15.81,0,0,1-1.64-.84.76.76,0,0,0-1,.27.77.77,0,0,0,.27,1Z"/><path class="cls-9" d="M132,98.87a16.14,16.14,0,0,0,1.9-3.26A.78.78,0,0,0,134,95a.81.81,0,0,0-.34-.45.77.77,0,0,0-1,.27,16.83,16.83,0,0,1-1.9,3.26.78.78,0,0,0-.08.58.82.82,0,0,0,.35.45.78.78,0,0,0,1-.27Z"/><path class="cls-9" d="M133.88,100.6a6.66,6.66,0,0,1,.56-.5c.1-.08-.11.08,0,0a.18.18,0,0,1,.07,0l.14-.11.33-.21a5.13,5.13,0,0,1,.66-.34l.07,0c.09,0-.14.06-.05,0l.18-.07.37-.13a.75.75,0,0,0,.52-.92.76.76,0,0,0-.92-.53,7.26,7.26,0,0,0-3,1.78.75.75,0,0,0,0,1.06.77.77,0,0,0,1.06,0Z"/><path class="cls-9" d="M102.26,130.74a18.78,18.78,0,0,0,22.46-4.83,22.28,22.28,0,0,1,1,7.07,11.45,11.45,0,0,1-1.53,6,9,9,0,0,1-7.93,3.8,13.53,13.53,0,0,1-8.25-3.66,27.71,27.71,0,0,1-5.48-7.35"/><path class="cls-9" d="M101.7,131.71a20.15,20.15,0,0,0,23.81-5l-1.88-.49c1,3.25,1.49,7,.45,10.35a7.39,7.39,0,0,1-6.27,5c-6.68.89-11.46-5.24-14.31-10.39-.7-1.27-2.64-.13-1.94,1.14,3.43,6.2,9.32,12.84,17.21,11.36a9.57,9.57,0,0,0,7.29-6c1.42-3.76.87-8.34-.26-12.1a1.14,1.14,0,0,0-1.88-.5,17.9,17.9,0,0,1-21.09,4.66c-1.3-.6-2.45,1.33-1.13,1.94Z"/><path d="M75.11,139c-6,4.62-10.45,10.71-11.38,18.36-.88,7.27,2.09,14.17,6.52,19.77,1,1.28,3.19,1,4.24,0a3.07,3.07,0,0,0,0-4.24c-3.53-4.48-5.43-9.69-4.8-15.2,0,.44.09-.52.08-.51.06-.32.13-.65.2-1q.23-1,.54-1.92a16.93,16.93,0,0,1,1.74-3.63,24,24,0,0,1,5.89-6.47A3.11,3.11,0,0,0,79.22,140c-.74-1.26-2.82-2.07-4.11-1.08Z"/><path class="cls-10" d="M188.82,103.55c-.23,2-10.49,3.91-15,4.38a2.52,2.52,0,0,1-2.22-.52,3,3,0,0,1-.08-3.43c1.66-1.8,7.73-2.73,10.13-3.2s6-2.82,6.89,1.63c.08.45.65.87.29,1.14"/><path d="M187.74,103.26c0,.2,0,0,.06,0s-.34.31-.21.21a5.4,5.4,0,0,1-1.18.64,24.51,24.51,0,0,1-3.47,1.09,66.19,66.19,0,0,1-8.25,1.54,6.43,6.43,0,0,1-1.85.12c-.67-.12-.79-1-.7-1.56.17-1,1.68-1.45,2.53-1.74,2.57-.88,5.26-1.1,7.86-1.81a11.57,11.57,0,0,1,3.44-.85,1.18,1.18,0,0,1,1,.46,3.28,3.28,0,0,1,.44,1.12c0,.16.06.3.11.45s.28.77.3.53l.33-.8-.1.13c-.91,1.12.68,2.72,1.59,1.59.77-.95.2-1.52-.06-2.49a4.81,4.81,0,0,0-1.28-2.39c-1.17-1.07-2.8-.94-4.22-.57s-2.62.77-4,1a48,48,0,0,0-5.28,1.2c-1.45.43-3.21,1-4.21,2.21-1.19,1.46-.91,4.33.79,5.33,1.45.86,3.6.26,5.17,0,1.77-.26,3.54-.57,5.29-1a31.52,31.52,0,0,0,5.3-1.54c1-.43,2.56-1.09,2.77-2.35s-1.94-2-2.17-.59Z"/><path class="cls-10" d="M179.62,99.55c-.8.2-7.44,1.9-8.26,1.8a4.56,4.56,0,0,1-2.43-2.29,3.51,3.51,0,0,1,.87-3.83c1.69-1.37,8.46-2.59,10.59-3s4.59-.35,5.23,1.85c.19.67,1,1,1,1.73,0,1.06-1.15,1.71-2.12,2.14-1.58.7-6.31,1.4-8,1.6"/><path d="M179.32,98.47c-2.21.54-4.42,1.12-6.66,1.57l-.71.13c-.31,0-.1.07-.38,0s0,.08-.2-.06a3.76,3.76,0,0,1-.94-.84,2.27,2.27,0,0,1,.35-3.4,14.85,14.85,0,0,1,3.68-1.27c1.53-.4,3.07-.73,4.62-1a11.91,11.91,0,0,1,3.84-.43,1.87,1.87,0,0,1,1.5.89,10.38,10.38,0,0,0,.47,1c.14.21.6.59.61.78,0,.53-1.42,1.05-1.75,1.16a18.63,18.63,0,0,1-2.34.59c-1.62.33-3.27.6-4.92.8-1.42.16-1.43,2.42,0,2.25,1.85-.22,3.7-.51,5.52-.88s3.72-.78,5-2.12a2.5,2.5,0,0,0,.46-3c-.2-.33-.53-.58-.73-.91a8.78,8.78,0,0,0-.79-1.48c-1.4-1.62-3.79-1.52-5.7-1.18-3.34.59-6.94,1.16-10,2.59a4.4,4.4,0,0,0-2.59,4.45c.16,1.78,1.72,4.06,3.62,4.29,1.38.18,3.07-.45,4.39-.76s2.88-.7,4.32-1a1.13,1.13,0,0,0-.6-2.17Z"/><path class="cls-10" d="M72.69,174.24A55.17,55.17,0,0,0,64.87,176a10.42,10.42,0,0,0-3.55,1.62,6.88,6.88,0,0,0-2,2.81A3.1,3.1,0,0,0,64,184.05a18.6,18.6,0,0,0,2.41-2.19c2.17-2.32,4-5,6.68-6.75"/><path d="M72.39,173.15a48,48,0,0,0-8.92,2.1c-2.47.88-4.84,2.68-5.45,5.38a4.29,4.29,0,0,0,3,5c2.59.79,4.66-1.34,6.27-3.06,2-2.22,3.83-4.78,6.37-6.49,1.2-.8.07-2.75-1.13-1.94A26,26,0,0,0,67.45,179c-.77.89-1.54,1.79-2.37,2.63a6.56,6.56,0,0,1-2.41,1.88,2,2,0,0,1-2.51-2.06,4.61,4.61,0,0,1,1.3-2.42,6.76,6.76,0,0,1,2.83-1.66,50.63,50.63,0,0,1,8.7-2,1.14,1.14,0,0,0,.79-1.38,1.16,1.16,0,0,0-1.39-.79Z"/><path class="cls-10" d="M73.7,173.71a19.47,19.47,0,0,0-1.08,14.75A6,6,0,0,0,74,191a2.6,2.6,0,0,0,2.64.69c1.13-.43,1.6-1.77,1.74-3,.4-3.64-1.08-7.19-2.52-10.56l-1.65-3.86"/><path d="M72.73,173.14c-2.51,5.07-3.08,11.44-.78,16.7a4.91,4.91,0,0,0,2.74,2.84,3.28,3.28,0,0,0,3.51-.75c1.92-2,1.5-5.54.94-8-.81-3.57-2.53-6.93-4-10.28a1.14,1.14,0,0,0-1.54-.4,1.15,1.15,0,0,0-.4,1.54,65.92,65.92,0,0,1,3.62,9.25c.27,1.09,1.28,7.73-1.55,6.44-1.24-.56-1.65-2.33-2-3.51a18.09,18.09,0,0,1-.58-4.2,18.34,18.34,0,0,1,1.89-8.52c.64-1.29-1.3-2.44-1.94-1.14Z"/><path class="cls-6" d="M136.29,185.19c7.74,1,15.49,2,23.26,2.87,3.89.42,7.79.81,11.71,1a36.1,36.1,0,0,0,8.44-.11,4.89,4.89,0,0,0,3.52-2.49c1.46-2.51,2-5.55,3.16-8.2a3.09,3.09,0,0,0-1.07-4.1c-1.28-.75-3.45-.42-4.11,1.07-1.12,2.55-1.89,5.21-2.93,7.77.21-.53-.26.45-.34.62l.25-.3c-.19.19-.16.17.1,0,.42-.31.23-.16.12-.1s.89-.22.29-.14a3.94,3.94,0,0,0-.47.1c-.66.19.81-.05.08,0l-.71.05c-.6,0-1.2.05-1.8,0-1.47,0-2.94-.07-4.41-.15-8-.47-15.92-1.46-23.84-2.46q-5.62-.71-11.25-1.46c-1.61-.22-3,1.53-3,3,0,1.8,1.39,2.78,3,3Z"/><path class="cls-6" d="M112.44,192.42c6.53,3.64,13.13,7.17,19.71,10.71,3.56,1.91,7.12,3.82,10.69,5.7,1.07.55,2.13,1.11,3.21,1.65s2.21,1.19,3.5.84c2.93-.79,2.49-4.4,2.37-6.72s-.39-4.56-.4-6.85c0-3.86-6-3.87-6,0,0,1.87.21,3.73.33,5.6.06,1,.12,2,.14,3,0,.4,0,.79,0,1.18,0,.17-.13.58,0,0,0-.31.05-.37,0-.18-.16.52.06.15.66-1.09l1.32-.77s2.09.16,1.43,0c0,0,.92.43.49.2l-.74-.35c-.78-.39-1.56-.8-2.34-1.2q-3.6-1.87-7.17-3.8-8.88-4.74-17.71-9.56c-2.16-1.17-4.33-2.35-6.48-3.55-3.37-1.88-6.4,3.3-3,5.18Z"/><path class="cls-11" d="M100.12,107c.9-1.9,2.8-3.12,4.66-4.12a10.31,10.31,0,0,1,2.39-1c2.37-.58,4.82.43,7.06,1.42l-1.91,3c-1.57-.72-3.87-.45-5.88.48a12.94,12.94,0,0,0-4.89,4.13Z"/><path d="M101.42,107.73c1-2,3.11-3.17,5-4.06,2.36-1.09,4.79-.1,7,.87l-.54-2.05-1.91,3,2.06-.54c-4.82-2.06-10,1.34-12.83,5.16l2.75.36-1.43-3.9a1.54,1.54,0,0,0-1.85-1,1.51,1.51,0,0,0-1,1.84l1.43,3.89a1.52,1.52,0,0,0,2.74.36,11.47,11.47,0,0,1,4-3.44c1.29-.65,3.27-1.24,4.68-.64a1.54,1.54,0,0,0,2-.54l1.91-3A1.51,1.51,0,0,0,115,102c-3.08-1.35-6.27-2.5-9.55-1.08-2.55,1.1-5.33,2.78-6.6,5.35a1.5,1.5,0,1,0,2.59,1.51Z"/><path class="cls-11" d="M115.43,106.56c-4.31,1.66-8.3-5.84-.29-12.39,1.6-1.3,3.82-1.5,5.85-1.86,4-.73,8-1.65,12-2.76A30.77,30.77,0,0,0,141.71,86a12.33,12.33,0,0,0,5.54-7.37c3.43,3.62,7.95,16.44.88,20.86"/><path d="M115,105.12c-1.58.55-2.74-.66-3-2.34-.39-3,2-6.27,4.46-7.75,1.61-1,3.75-1.07,5.57-1.4q3.38-.63,6.72-1.44c4.06-1,8.26-2,12-3.92s6.89-5.09,7.9-9.24l-2.51.67c2.19,2.36,3.35,5.92,3.92,9,.6,3.33.38,7.44-2.74,9.47-1.61,1-.11,3.64,1.52,2.59,4.07-2.65,4.9-7.48,4.25-12-.57-3.92-2.09-8.26-4.83-11.22a1.52,1.52,0,0,0-2.51.67c-1,4.26-4.8,6.91-8.7,8.42a84.86,84.86,0,0,1-13.95,3.71,47,47,0,0,0-6.57,1.35,11.51,11.51,0,0,0-4.91,3.8c-2,2.45-3.35,5.83-2.27,9,.92,2.68,3.6,4.52,6.43,3.52,1.81-.64,1-3.54-.8-2.89Z"/><path d="M114.54,102.14c1.76,5.68,5.55,14.15,11,15.48a18.39,18.39,0,0,0,15.13-3.27,12.52,12.52,0,0,0,3.4-3.48,16.23,16.23,0,0,0,1.8-4.94c.91-4,.49-9.33.51-13.51-10.68,3.12-27.4,1.77-31.82,9.72"/><path d="M113.1,102.54a41.6,41.6,0,0,0,4.44,10c1.79,2.81,4.22,5.64,7.58,6.5a19.46,19.46,0,0,0,13.28-1.6c4.22-2.07,7.32-5.25,8.58-9.83,1.35-5,.88-10.12.88-15.21A1.53,1.53,0,0,0,146,91c-6.1,1.76-12.51,2-18.74,3.14-5.11.92-11.18,2.43-14,7.28a1.5,1.5,0,0,0,2.59,1.51c2.5-4.35,8.66-5.32,13.15-6.07,5.92-1,12-1.3,17.77-3l-1.9-1.45c0,3.86.35,7.78-.18,11.61a16.21,16.21,0,0,1-1.81,5.9,12.08,12.08,0,0,1-4.17,3.93,17,17,0,0,1-11.27,2.6c-3.19-.44-5.28-2.36-7-5a37.74,37.74,0,0,1-4.42-9.74c-.57-1.83-3.47-1-2.89.8Z"/><path class="cls-11" d="M100.33,111.9c4.53-.92,3.85-9.39-6.42-10.6-2-.24-4,.79-5.94,1.57q-5.7,2.34-11.6,4.13a30.91,30.91,0,0,1-9.26,1.7,12.38,12.38,0,0,1-8.63-3.24c-.95,4.89,2.14,18.14,10.48,18.06"/><path d="M100.73,113.35a4.89,4.89,0,0,0,3.76-4.64,7.81,7.81,0,0,0-3.43-6.37,12.22,12.22,0,0,0-11.2-1.86c-4.92,1.85-9.73,3.87-14.79,5.35s-11.32,2.6-15.52-1.43a1.52,1.52,0,0,0-2.51.66c-.74,4,.32,8.49,2,12.18,1.82,4.1,5.18,7.74,10,7.78a1.5,1.5,0,0,0,0-3c-3.76,0-6.14-3.33-7.46-6.49-1.2-2.88-2.11-6.73-1.57-9.67l-2.51.66c6.93,6.64,17.44,2.76,25.2,0q3.3-1.17,6.52-2.52c2.13-.9,3.88-1.47,6.19-.94s4.94,1.71,5.9,4a2.93,2.93,0,0,1,.09,2.3,1.8,1.8,0,0,1-1.39,1c-1.88.43-1.08,3.33.8,2.9Z"/><path d="M98.7,107.7c1.57,5.73,2.93,14.91-.93,19A18.44,18.44,0,0,1,83.25,132a12.41,12.41,0,0,1-4.74-1.11,16.34,16.34,0,0,1-4.18-3.2c-2.88-2.83-5.42-7.6-7.68-11.11,10.68-3.11,24-13.24,32.05-8.91"/><path d="M97.25,108.1a39.49,39.49,0,0,1,1.52,9.53c.06,2.87-.21,6.12-2.35,8.25a16.51,16.51,0,0,1-10.11,4.61,16,16,0,0,1-5.73-.39,12.43,12.43,0,0,1-5.31-3.56c-3-3.08-5-7.08-7.33-10.69l-.9,2.21c5.76-1.71,11-4.67,16.55-7,4.14-1.78,9.94-4.32,14.35-2,1.71.89,3.23-1.7,1.52-2.59-5-2.59-10.84-.69-15.68,1.3-5.86,2.41-11.43,5.64-17.53,7.45a1.52,1.52,0,0,0-.9,2.21c2.36,3.68,4.41,7.68,7.42,10.89a17.14,17.14,0,0,0,5.57,4.22,16.19,16.19,0,0,0,6.82,1.08A20.22,20.22,0,0,0,97,129.33a12.36,12.36,0,0,0,4.68-9.45,38.59,38.59,0,0,0-1.57-12.58,1.51,1.51,0,0,0-2.9.8Z"/><path class="cls-9" d="M122,108.69a1.83,1.83,0,0,1-.27-2.37,38,38,0,0,1,7.18-8.4.62.62,0,0,1,.33-.17.59.59,0,0,1,.41.16c.22.15.44.31.65.48a1.81,1.81,0,0,1,.21,2.63,53.17,53.17,0,0,0-6.41,8.59c-.1.18-.25.38-.46.37a.58.58,0,0,1-.3-.13A13.5,13.5,0,0,1,122,108.69Z"/><path class="cls-9" d="M129.7,108a1.82,1.82,0,0,1-.26-2.36,38,38,0,0,1,7.17-8.41.66.66,0,0,1,.33-.17.6.6,0,0,1,.42.16c.22.15.44.31.65.48a1.8,1.8,0,0,1,.2,2.63,53.71,53.71,0,0,0-6.4,8.59c-.11.18-.25.38-.46.37a.58.58,0,0,1-.31-.13A14.74,14.74,0,0,1,129.7,108Z"/><path class="cls-9" d="M74.83,123.06a1.89,1.89,0,0,1-.28-2.46A39.61,39.61,0,0,1,82,111.82a.75.75,0,0,1,.34-.18.73.73,0,0,1,.44.17l.68.5a1.9,1.9,0,0,1,.21,2.75A55.71,55.71,0,0,0,77,124c-.11.19-.26.4-.48.4a.77.77,0,0,1-.32-.14A14.76,14.76,0,0,1,74.83,123.06Z"/><path class="cls-9" d="M82.85,122.34a1.91,1.91,0,0,1-.28-2.47,39.88,39.88,0,0,1,7.49-8.78.78.78,0,0,1,.35-.18.73.73,0,0,1,.43.17c.23.16.46.33.68.51a1.88,1.88,0,0,1,.21,2.74,55.15,55.15,0,0,0-6.68,9c-.11.18-.27.39-.48.39a.71.71,0,0,1-.32-.14A16,16,0,0,1,82.85,122.34Z"/><path d="M145.29,108.93l6.18,1.35a1.5,1.5,0,1,0,.8-2.9L146.09,106a1.5,1.5,0,0,0-.8,2.9Z"/><path d="M146.79,105.94c2.13-.24,4.27-.41,6.42-.49a1.5,1.5,0,0,0,0-3c-2.15.08-4.29.25-6.42.49a1.56,1.56,0,0,0-1.06.44,1.5,1.5,0,0,0-.44,1.06,1.52,1.52,0,0,0,1.5,1.5Z"/><path d="M76.4,126.65l-5.85,2.42a1.67,1.67,0,0,0-.9.69,1.61,1.61,0,0,0-.15,1.16,1.54,1.54,0,0,0,.69.89,1.43,1.43,0,0,0,1.16.15l5.85-2.41a1.7,1.7,0,0,0,.89-.69,1.51,1.51,0,0,0-.54-2.06,1.46,1.46,0,0,0-1.15-.15Z"/><path d="M76.57,130.16c-.79.7-1.6,1.39-2.42,2.05q-.6.49-1.2,1l-.31.24c-.21.17.19-.14,0,0l-.15.12-.65.49a1.63,1.63,0,0,0-.69.9,1.49,1.49,0,0,0,.15,1.15,1.47,1.47,0,0,0,.89.69,1.43,1.43,0,0,0,1.16-.15q2.73-2,5.3-4.3a1.51,1.51,0,0,0,0-2.12,1.54,1.54,0,0,0-2.12,0Z"/></g><g id="sombras"><g class="cls-12"><path class="cls-9" d="M214.86,130.42c-.53,8.38-2,18-5,17-2.05-.66-2.63-14.2-4-20-5.1-21.59-15.43-39.49-29-55-20-22.82-47-35-58-37,.68-6.88,32.85,2.23,39,5,11.88,5.36,26.4,15.21,35,25C214.3,89.83,215.66,117.81,214.86,130.42Z"/></g><g class="cls-13"><path d="M112.26,219.28c40.13,4.85,71.13-17.15,71.13-20.15-63,39-185-11-137-131-7.46-.79-25,51-18.09,73.48,4,13.07,10.72,30.26,19.35,41.16C69.17,210,98.64,217.64,112.26,219.28Z"/></g></g></svg>