<svg xmlns="http://www.w3.org/2000/svg" xmlns:xlink="http://www.w3.org/1999/xlink" viewBox="0 0 250 250"><defs><style>.cls-1{fill:none;}.cls-2{fill:#e66869;}.cls-3{fill:#f8dad4;}.cls-4{fill:#e1262f;}.cls-5{clip-path:url(#clip-path);}.cls-6{fill:#c3e0e2;}.cls-7{stroke:#000;stroke-width:6px;}.cls-7,.cls-8,.cls-9{stroke-miterlimit:10;}.cls-12,.cls-8{fill:#fff;}.cls-8{stroke:#fff;stroke-width:3px;}.cls-10,.cls-9{fill:#1b3e42;}.cls-9{stroke:#1b3e42;stroke-width:0.75px;}.cls-11{opacity:0.42;}.cls-13{opacity:0.32;}</style><clipPath id="clip-path"><circle class="cls-1" cx="119.24" cy="136.76" r="88.76"/></clipPath></defs><g id="Circulos_amarillos" data-name="Circulos amarillos"><circle class="cls-2" cx="120.2" cy="129.65" r="112.25"/><path d="M231,129.65A110.72,110.72,0,0,1,59.46,222.28a111.81,111.81,0,0,1-24.73-22.17,110.16,110.16,0,0,1-25-61.89,111.63,111.63,0,0,1,2.8-34.8A110.5,110.5,0,0,1,25.46,72.25,111.2,111.2,0,0,1,74.6,28.69a109.58,109.58,0,0,1,32.72-9.06,112.14,112.14,0,0,1,35,1.48,110.79,110.79,0,0,1,87.36,91.48,112,112,0,0,1,1.3,17.06,1.5,1.5,0,0,0,3,0A113.73,113.73,0,0,0,32.5,57.21,114.86,114.86,0,0,0,14.9,86.56a113.26,113.26,0,0,0-8.12,34.35A113.82,113.82,0,0,0,142.92,241.13a113,113,0,0,0,32.64-12.08,114.2,114.2,0,0,0,46.49-48.7,113,113,0,0,0,10.54-33.17A116.9,116.9,0,0,0,234,129.65,1.5,1.5,0,0,0,231,129.65Z"/><circle class="cls-3" cx="120.2" cy="129.65" r="96.77"/><path d="M215.46,129.65A94.8,94.8,0,1,1,214.35,115a95.71,95.71,0,0,1,1.11,14.65,1.5,1.5,0,0,0,3,0,98.15,98.15,0,1,0-1.19,15.29,101.66,101.66,0,0,0,1.19-15.29A1.5,1.5,0,0,0,215.46,129.65Z"/><path d="M231,129.65A110.72,110.72,0,0,1,59.46,222.28a111.81,111.81,0,0,1-24.73-22.17,110.16,110.16,0,0,1-25-61.89,111.63,111.63,0,0,1,2.8-34.8A110.5,110.5,0,0,1,25.46,72.25,111.2,111.2,0,0,1,74.6,28.69a109.58,109.58,0,0,1,32.72-9.06,112.14,112.14,0,0,1,35,1.48,110.79,110.79,0,0,1,87.36,91.48,112,112,0,0,1,1.3,17.06,1.5,1.5,0,0,0,3,0A113.73,113.73,0,0,0,32.5,57.21,114.86,114.86,0,0,0,14.9,86.56a113.26,113.26,0,0,0-8.12,34.35A113.82,113.82,0,0,0,142.92,241.13a113,113,0,0,0,32.64-12.08,114.2,114.2,0,0,0,46.49-48.7,113,113,0,0,0,10.54-33.17A116.9,116.9,0,0,0,234,129.65,1.5,1.5,0,0,0,231,129.65Z"/></g><g id="_4" data-name="4"><circle class="cls-4" cx="50.01" cy="164.49" r="11.01"/><path d="M60.26,164.49a10.25,10.25,0,1,1-8.35-10.08,10.38,10.38,0,0,1,8.35,10.08.75.75,0,0,0,1.5,0,11.76,11.76,0,1,0-9.59,11.56,11.9,11.9,0,0,0,9.59-11.56A.75.75,0,0,0,60.26,164.49Z"/><g class="cls-5"><rect class="cls-6" x="67.35" y="101.56" width="101.1" height="147.21"/><path d="M168.45,247.27h-97a29.07,29.07,0,0,0-4,0h-.18l1.5,1.5V107.56a52.7,52.7,0,0,0,0-5.76,1.92,1.92,0,0,1,0-.24l-1.5,1.5h97a30.78,30.78,0,0,0,4,0,1.08,1.08,0,0,1,.18,0l-1.5-1.5V230.61c0,6-.21,12,0,17.91v.25a1.5,1.5,0,0,0,3,0V119.71c0-5.95.2-11.95,0-17.91a1.92,1.92,0,0,1,0-.24,1.52,1.52,0,0,0-1.5-1.5H79.78c-4.07,0-8.18-.18-12.25,0h-.18a1.52,1.52,0,0,0-1.5,1.5V230.61c0,6-.21,12,0,17.91v.25a1.52,1.52,0,0,0,1.5,1.5H156c4.07,0,8.19.17,12.26,0h.18A1.5,1.5,0,0,0,168.45,247.27Z"/><path d="M81.05,113.37c1.4-.34,2.8-.64,4.22-.88a1.5,1.5,0,0,0,.36-2.74,1.72,1.72,0,0,0-1.16-.15c-1.41.24-2.82.53-4.22.88a1.5,1.5,0,0,0,.8,2.89Z"/><path d="M115,162.81l.19,25.6.29,40.46.07,9.26a1.5,1.5,0,0,0,3,0l-.18-25.61-.3-40.46-.07-9.25a1.5,1.5,0,0,0-3,0Z"/><path d="M80.81,129l4.34.19a1.5,1.5,0,0,0,1.5-1.5,1.52,1.52,0,0,0-1.5-1.5L80.81,126a1.51,1.51,0,0,0-1.5,1.5,1.54,1.54,0,0,0,1.5,1.5Z"/><path d="M80.75,145.07l4.22.08a1.5,1.5,0,0,0,1.5-1.5,1.54,1.54,0,0,0-1.5-1.5l-4.22-.08a1.5,1.5,0,0,0,0,3Z"/><path d="M80.73,160.39l4.38.15a1.5,1.5,0,0,0,0-3l-4.38-.15a1.5,1.5,0,0,0,0,3Z"/><path d="M80.8,176.46l4.35,0a1.5,1.5,0,0,0,0-3l-4.35,0a1.5,1.5,0,1,0,0,3Z"/><path d="M80.73,192l4.38,0a1.5,1.5,0,0,0,1.5-1.5,1.52,1.52,0,0,0-1.5-1.5l-4.38,0a1.52,1.52,0,0,0-1.5,1.5,1.54,1.54,0,0,0,1.5,1.5Z"/><path d="M80.79,207.83l5,0a1.5,1.5,0,0,0,1.5-1.5,1.53,1.53,0,0,0-1.5-1.5l-5,0a1.5,1.5,0,1,0,0,3Z"/><path d="M80.79,223.91l5.27-.17a1.5,1.5,0,0,0,0-3l-5.27.17a1.5,1.5,0,1,0,0,3Z"/><path d="M101.72,160.32l4.38.14a1.5,1.5,0,0,0,1.5-1.5,1.54,1.54,0,0,0-1.5-1.5l-4.38-.14a1.5,1.5,0,0,0-1.5,1.5,1.53,1.53,0,0,0,1.5,1.5Z"/><path d="M101.79,176.39l4.34,0a1.5,1.5,0,0,0,0-3l-4.34,0a1.5,1.5,0,0,0,0,3Z"/><path d="M101.72,192l4.38,0a1.5,1.5,0,1,0,0-3l-4.38,0a1.5,1.5,0,0,0,0,3Z"/><path d="M101.78,207.76l5,0a1.5,1.5,0,1,0,0-3l-5,0a1.5,1.5,0,1,0,0,3Z"/><path d="M101.78,223.83l5.26-.16a1.5,1.5,0,0,0,0-3l-5.26.16a1.5,1.5,0,0,0,0,3Z"/><path d="M81,238.55l5.26-.16a1.5,1.5,0,0,0,0-3l-5.26.16a1.5,1.5,0,1,0,0,3Z"/><path d="M102,238.48l5.27-.17a1.5,1.5,0,0,0,0-3l-5.27.17a1.5,1.5,0,1,0,0,3Z"/><path d="M128.62,160.8l4.4.14a1.5,1.5,0,0,0,1.5-1.5,1.53,1.53,0,0,0-1.5-1.5l-4.4-.14a1.51,1.51,0,0,0-1.5,1.5,1.53,1.53,0,0,0,1.5,1.5Z"/><path d="M128.69,176.87l4.37,0a1.5,1.5,0,0,0,0-3l-4.37,0a1.5,1.5,0,0,0,0,3Z"/><path d="M128.62,192.44l4.4,0a1.5,1.5,0,0,0,0-3l-4.4,0a1.5,1.5,0,0,0,0,3Z"/><path d="M128.68,208.24l5.07,0a1.5,1.5,0,0,0,0-3l-5.07,0a1.5,1.5,0,0,0,0,3Z"/><path d="M128.68,224.31l5.29-.16a1.5,1.5,0,0,0,0-3l-5.29.16a1.5,1.5,0,0,0,0,3Z"/><path d="M150,113.71c1.4-.35,2.81-.64,4.24-.88a1.5,1.5,0,0,0,.89-.69,1.57,1.57,0,0,0,.16-1.16,1.54,1.54,0,0,0-.69-.89,1.72,1.72,0,0,0-1.16-.15c-1.42.24-2.84.53-4.24.88a1.52,1.52,0,0,0-1.05,1.84,1.54,1.54,0,0,0,1.85,1Z"/><path d="M149.8,129.33c1.45.07,2.91.14,4.36.19a1.5,1.5,0,0,0,1.5-1.5,1.54,1.54,0,0,0-1.5-1.5c-1.45,0-2.91-.12-4.36-.19a1.5,1.5,0,1,0,0,3Z"/><path d="M149.74,145.41l4.24.08a1.5,1.5,0,1,0,0-3l-4.24-.08a1.5,1.5,0,0,0-1.5,1.5,1.54,1.54,0,0,0,1.5,1.5Z"/><path d="M149.72,160.73l4.4.14a1.5,1.5,0,0,0,1.5-1.5,1.54,1.54,0,0,0-1.5-1.5l-4.4-.14a1.5,1.5,0,0,0-1.5,1.5,1.52,1.52,0,0,0,1.5,1.5Z"/><path d="M149.79,176.8l4.36,0a1.5,1.5,0,0,0,0-3l-4.36,0a1.5,1.5,0,0,0,0,3Z"/><path d="M149.72,192.37l4.4,0a1.5,1.5,0,0,0,0-3l-4.4,0a1.5,1.5,0,0,0,0,3Z"/><path d="M149.78,208.17l5.07,0a1.51,1.51,0,0,0,1.5-1.5,1.53,1.53,0,0,0-1.5-1.5l-5.07,0a1.5,1.5,0,0,0,0,3Z"/><path d="M149.78,224.24l5.29-.16a1.5,1.5,0,0,0,0-3l-5.29.16a1.5,1.5,0,1,0,0,3Z"/><path d="M128.9,239c1.77-.06,3.53-.12,5.29-.16a1.5,1.5,0,0,0,0-3c-1.76,0-3.52.1-5.29.16a1.5,1.5,0,0,0,0,3Z"/><path d="M150,238.89l5.29-.17a1.5,1.5,0,0,0,0-3l-5.29.17a1.5,1.5,0,0,0,0,3Z"/><circle class="cls-7" cx="105.11" cy="125.46" r="3.44"/><circle class="cls-7" cx="131.37" cy="125.46" r="3.44"/><circle class="cls-8" cx="105.11" cy="125.46" r="3.44"/><circle class="cls-8" cx="131.37" cy="125.46" r="3.44"/><circle class="cls-9" cx="105.67" cy="124.45" r="2.45"/><circle class="cls-9" cx="132.36" cy="124.45" r="2.45"/><path d="M134.79,114.5a9.09,9.09,0,0,1,1.33.81c.31.21.61.43.9.65s-.08-.07.1.07a1.84,1.84,0,0,0,.22.17l.51.43a21.33,21.33,0,0,1,2,1.84c.28.31.56.63.82,1-.16-.2.05.07.08.11l.18.26c.12.17.22.35.33.53a1.13,1.13,0,1,0,1.94-1.14,16.35,16.35,0,0,0-3.72-4.15,17,17,0,0,0-3.52-2.49,1.13,1.13,0,1,0-1.13,2Z"/><path d="M102.41,112.37a1.85,1.85,0,0,0-1.52.43c-.57.37-1.11.8-1.64,1.22a31.62,31.62,0,0,0-3.51,3.23,9.32,9.32,0,0,0-1.44,1.87,1.13,1.13,0,0,0,2,1.13,6.29,6.29,0,0,1,.41-.64c.14-.19-.13.16,0,0l.13-.15c.1-.13.22-.26.33-.39.49-.54,1-1.06,1.54-1.56s1.14-1,1.74-1.53c.25-.22.52-.43.78-.64h0l.18-.13.35-.26c.19-.14.39-.27.59-.39s.34-.16.09-.06-.11,0,0,0h0a1.24,1.24,0,0,1-.54,0,1.13,1.13,0,0,0,.6-2.17Z"/><path class="cls-10" d="M137.77,143.87c0,5.88-8.22,10.65-18.35,10.65s-18.34-4.77-18.34-10.65,7.79.13,17.92.13S137.77,138,137.77,143.87Z"/><path d="M136.64,143.87c-.11,5.52-7.16,8.12-11.6,9-6.28,1.24-13.87.59-19.22-3.21-1.79-1.26-3.45-3.14-3.6-5.42-.14-1.88.61-1.89,2.27-1.5,2.53.6,5,1.54,7.51,2.11a29.09,29.09,0,0,0,10.19.51,88.92,88.92,0,0,0,10-2.3,9.72,9.72,0,0,1,3.46-.51c.81.1.93.54.95,1.32a1.13,1.13,0,0,0,2.25,0,3.39,3.39,0,0,0-3.9-3.57c-3.13.17-6.2,1.42-9.22,2.12a28.88,28.88,0,0,1-12.27.45c-3-.6-5.92-1.84-9-2.41-1.89-.36-3.93-.1-4.46,2.07-.62,2.54.6,5.21,2.28,7.07,4.88,5.41,13.75,6.63,20.6,5.85,6.23-.71,15.77-3.91,15.92-11.58A1.13,1.13,0,0,0,136.64,143.87Z"/><path d="M67.44,159.44a84.53,84.53,0,0,0-6.37,7.64c-1,1.36-2.13,2.68-3.29,3.95a19.71,19.71,0,0,1-4,3.71c-2,1.25-5.56,1.76-7.65.39A8.42,8.42,0,0,1,42,168.5c0-1.93-3-1.93-3,0a11.22,11.22,0,0,0,4.88,8.67c2.64,2,6.18,2.08,9.27,1.11,3.75-1.16,6.52-4.69,8.9-7.63s4.75-6.25,7.51-9.09c1.35-1.38-.77-3.51-2.12-2.12Z"/><path d="M52.89,178.27c1.9-3,3.2-6.62,2.06-10.17a1.5,1.5,0,1,0-2.9.8,7.7,7.7,0,0,1,.27,1c0,.18,0,.2,0,.05l0,.3c0,.15,0,.3,0,.45a5.69,5.69,0,0,1-.22,1.93,13.24,13.24,0,0,1-1.87,4.07,1.51,1.51,0,0,0,.54,2.05,1.52,1.52,0,0,0,2-.53Z"/><path d="M48.72,174.12c.55-.08.39,0,.25,0,.54,0,.37.06.24,0s.19.08.19.09l-.16-.08-.13-.09c-.13-.07.33.28.12.09l-.28-.27-.13-.16c-.23-.25.19.27,0,0a4.56,4.56,0,0,1-.27-.39c-.18-.29-.33-.6-.48-.9s.12.33,0,0c0-.08-.07-.16-.1-.25s-.11-.35-.16-.53a5.29,5.29,0,0,1-.13-.54,1.26,1.26,0,0,0,0-.28c0,.24,0,.28,0,.12v-.09a5.44,5.44,0,0,1,0-.57,2.67,2.67,0,0,0,0-.56c0,.25,0,.29,0,.13l0-.14.06-.27a4,4,0,0,1,.2-.58,1.51,1.51,0,0,0-1.05-1.85,1.55,1.55,0,0,0-1.85,1,7.6,7.6,0,0,0,.53,6,7.08,7.08,0,0,0,1.41,2,2.85,2.85,0,0,0,2.53.89,1.5,1.5,0,0,0,1-1.84,1.55,1.55,0,0,0-1.85-1Z"/><path d="M168.65,164.65a27.36,27.36,0,0,1,4.54,5.25c1.56,2.07,3.05,4.21,4.75,6.17a17.54,17.54,0,0,0,6.71,4.74,5.15,5.15,0,0,0,4.39,0,7.29,7.29,0,0,0,2.66-3.1,43.13,43.13,0,0,0,1.72-4.51,12.06,12.06,0,0,0,.76-4.3,1.5,1.5,0,0,0-3,0,11.47,11.47,0,0,1-.86,4.05,16.3,16.3,0,0,1-1.9,4.41,2,2,0,0,1-1.17.95,4.9,4.9,0,0,1-2.6-.82,16.55,16.55,0,0,1-3.75-2.68c-4-3.9-6.27-9.38-10.74-12.79a1.5,1.5,0,0,0-2,.54,1.54,1.54,0,0,0,.54,2.05Z"/><path d="M184,168.5c-.07,1.75-.66,3.49-.24,5.26a8.3,8.3,0,0,0,3.7,4.9,6.65,6.65,0,0,0,5.73.75,12.93,12.93,0,0,0,3.95-2.82,18.31,18.31,0,0,0,3.67-4.33c.92-1.7-1.67-3.22-2.6-1.52a15.46,15.46,0,0,1-3.33,3.85c-1.05,1-2.24,2.2-3.75,2.18a5.15,5.15,0,0,1-4.17-3,3.33,3.33,0,0,1-.32-2.23c0,.19.05-.37.06-.44l.12-.73a17.8,17.8,0,0,0,.18-1.92c.08-1.93-2.92-1.93-3,0Z"/></g><circle class="cls-4" cx="58.28" cy="81.37" r="11.01"/><path d="M68.54,81.37a10.25,10.25,0,1,1-8.35-10.08,10.38,10.38,0,0,1,8.35,10.08.75.75,0,0,0,1.5,0,11.76,11.76,0,1,0-9.6,11.56A11.93,11.93,0,0,0,70,81.37.75.75,0,0,0,68.54,81.37Z"/><circle class="cls-4" cx="139.77" cy="53.88" r="11.01"/><path d="M150,53.88a10.25,10.25,0,1,1-8.34-10.08A10.37,10.37,0,0,1,150,53.88a.75.75,0,0,0,1.5,0,11.75,11.75,0,1,0-9.59,11.55,11.89,11.89,0,0,0,9.59-11.55A.75.75,0,0,0,150,53.88Z"/><circle class="cls-4" cx="196.99" cy="130.15" r="11.01"/><path d="M207.25,130.15a10.25,10.25,0,1,1-8.35-10.08,10.37,10.37,0,0,1,8.35,10.08.75.75,0,0,0,1.5,0,11.76,11.76,0,1,0-9.59,11.55,11.91,11.91,0,0,0,9.59-11.55A.75.75,0,0,0,207.25,130.15Z"/><path d="M215.46,129.65A94.8,94.8,0,1,1,214.35,115a95.71,95.71,0,0,1,1.11,14.65,1.5,1.5,0,0,0,3,0,98.15,98.15,0,1,0-1.19,15.29,101.66,101.66,0,0,0,1.19-15.29A1.5,1.5,0,0,0,215.46,129.65Z"/></g><g id="sombras"><g class="cls-11"><path class="cls-12" d="M211.45,134.9c-.53,8.39-2,18-5,17-2.06-.65-2.64-14.2-4-20-5.1-21.58-15.43-39.48-29-55-20-22.82-47-35-58-37,.67-6.88,32.85,2.23,39,5,11.87,5.36,26.4,15.22,35,25C210.89,94.31,212.24,122.3,211.45,134.9Z"/></g><g class="cls-13"><path d="M110.12,224.93c40.14,4.85,71.14-17.15,71.14-20.15-63,39-185-11-137-131-7.47-.79-25,51-18.09,73.48,4,13.07,10.71,30.26,19.35,41.16C67,215.6,96.51,223.29,110.12,224.93Z"/></g></g></svg>