<svg xmlns="http://www.w3.org/2000/svg" viewBox="0 0 250 250"><defs><style>.cls-1{fill:#f7c402;}.cls-2{fill:#ffda83;}.cls-3{fill:#c2e1e3;}.cls-4{fill:#e1262f;}.cls-5{fill:#7dc4ca;}.cls-6{fill:#183e41;}.cls-7{fill:#4386c6;}.cls-8{opacity:0.42;}.cls-9{fill:#fff;}.cls-10{opacity:0.32;}</style></defs><g id="Circulos_amarillos" data-name="Circulos amarillos"><circle class="cls-1" cx="125.16" cy="124.26" r="112.25"/><path d="M235.91,124.26A110.71,110.71,0,0,1,64.43,216.89,111.59,111.59,0,0,1,39.7,194.72a110.08,110.08,0,0,1-25-61.89A111.65,111.65,0,0,1,17.54,98,110.5,110.5,0,0,1,30.43,66.86,111.2,111.2,0,0,1,79.57,23.3a109.58,109.58,0,0,1,32.72-9.06,112.16,112.16,0,0,1,35,1.48,110.5,110.5,0,0,1,88.65,108.54,1.5,1.5,0,0,0,3,0A113.11,113.11,0,0,0,218,58.49,115.26,115.26,0,0,0,194.36,34,113.68,113.68,0,0,0,37.47,51.82a114.86,114.86,0,0,0-17.6,29.35,113.25,113.25,0,0,0-8.12,34.36,114.43,114.43,0,0,0,2.9,35.76,112.76,112.76,0,0,0,13.19,31.89,113.84,113.84,0,0,0,120,52.56,113,113,0,0,0,32.64-12.08A114.2,114.2,0,0,0,227,175a112.87,112.87,0,0,0,10.54-33.17,115.59,115.59,0,0,0,1.35-17.53A1.5,1.5,0,0,0,235.91,124.26Z"/><circle class="cls-2" cx="125.16" cy="124.26" r="96.77"/><path d="M220.43,124.26a94.8,94.8,0,1,1-1.11-14.65,95.71,95.71,0,0,1,1.11,14.65,1.5,1.5,0,0,0,3,0,98.15,98.15,0,1,0-1.19,15.29,101.66,101.66,0,0,0,1.19-15.29A1.5,1.5,0,0,0,220.43,124.26Z"/><path d="M235.91,124.26A110.71,110.71,0,0,1,64.43,216.89,111.59,111.59,0,0,1,39.7,194.72a110.08,110.08,0,0,1-25-61.89A111.65,111.65,0,0,1,17.54,98,110.5,110.5,0,0,1,30.43,66.86,111.2,111.2,0,0,1,79.57,23.3a109.58,109.58,0,0,1,32.72-9.06,112.16,112.16,0,0,1,35,1.48,110.5,110.5,0,0,1,88.65,108.54,1.5,1.5,0,0,0,3,0A113.11,113.11,0,0,0,218,58.49,115.26,115.26,0,0,0,194.36,34,113.68,113.68,0,0,0,37.47,51.82a114.86,114.86,0,0,0-17.6,29.35,113.25,113.25,0,0,0-8.12,34.36,114.43,114.43,0,0,0,2.9,35.76,112.76,112.76,0,0,0,13.19,31.89,113.84,113.84,0,0,0,120,52.56,113,113,0,0,0,32.64-12.08A114.2,114.2,0,0,0,227,175a112.87,112.87,0,0,0,10.54-33.17,115.59,115.59,0,0,0,1.35-17.53A1.5,1.5,0,0,0,235.91,124.26Z"/></g><g id="_2" data-name="2"><circle class="cls-3" cx="125.29" cy="114.92" r="18.67"/><path d="M143.21,114.92a17.92,17.92,0,1,1-14.36-17.56,18.12,18.12,0,0,1,14.36,17.56.75.75,0,0,0,1.5,0,19.42,19.42,0,1,0-15.62,19,19.65,19.65,0,0,0,15.62-19A.75.75,0,0,0,143.21,114.92Z"/><path d="M189.61,76.63c1.33,2.27,1,5,.28,7.39a34.58,34.58,0,0,1-5.53,10.06c-6.81,9.27-15.77,17-24.82,24A246.52,246.52,0,0,1,121,142.47c-11.89,6.07-24.44,11.48-37.51,14.38A51.76,51.76,0,0,1,70,158.33c-2.91-.13-6.29-.65-8.5-2.73-4.6-4.32-.46-11.81,2.22-16,6-9.24,14.47-16.92,22.94-23.81A238.69,238.69,0,0,1,124,91.08c12.15-6.57,24.94-12.39,38.32-16a66.85,66.85,0,0,1,14.79-2.53c3.29-.12,7,0,9.91,1.67a7,7,0,0,1,2.55,2.39c.51.83,1.8.07,1.3-.75-1.55-2.51-4.32-3.79-7.12-4.36a36.2,36.2,0,0,0-12.5.13c-12.8,1.93-25.19,6.95-36.82,12.46a247.37,247.37,0,0,0-41.21,24.7c-10,7.38-19.72,15.55-27.42,25.33a44.44,44.44,0,0,0-6.57,10.7c-1.06,2.65-1.78,5.76-.88,8.56,2.15,6.74,11.24,6.8,17,6.27,12.18-1.13,24.09-5.66,35.19-10.57a244.78,244.78,0,0,0,41.85-23.84c10.61-7.48,20.93-15.79,29.44-25.64a56.28,56.28,0,0,0,7.85-11.16c1.39-2.76,2.6-5.92,2.32-9.07a8.36,8.36,0,0,0-1.08-3.51A.75.75,0,0,0,189.61,76.63Z"/><path d="M189.26,154c-1.48,2.38-4.29,3.37-6.93,3.8a37.49,37.49,0,0,1-12.45-.51c-12.38-2.17-24.32-7.07-35.57-12.55a240.25,240.25,0,0,1-38.73-23.58c-9.5-7.1-18.76-15-26.18-24.3a44.75,44.75,0,0,1-6.51-10.38c-1-2.47-1.85-5.39-1.07-8.05,1.89-6.44,11.39-5.88,16.52-5.3C90.2,74.5,101.8,79,112.58,83.94A238.79,238.79,0,0,1,152,106.75c10.06,7.16,19.79,15.11,27.94,24.44a59,59,0,0,1,7.8,10.9c1.4,2.66,2.66,5.7,2.5,8.76a6.85,6.85,0,0,1-1,3.18.75.75,0,0,0,1.3.76c3.41-5.76-1.09-13.29-4.36-18-6.65-9.62-15.67-17.64-24.79-24.83A239.43,239.43,0,0,0,122.1,86.87c-11.92-6.08-24.56-11.54-37.72-14.24A47,47,0,0,0,70.9,71.48c-3,.27-6.3,1-8.53,3.23C57.66,79.37,61,86.83,63.8,91.52,69.49,101,78,108.85,86.4,115.85a233,233,0,0,0,38,25.53c12.31,6.68,25.33,12.61,38.94,16.07A62,62,0,0,0,178,159.63c3.32,0,7-.33,9.87-2.13a8.62,8.62,0,0,0,2.73-2.71C191.07,154,189.77,153.21,189.26,154Z"/><path d="M124.86,39.52c2.69,0,4.91,1.78,6.61,3.72a36.05,36.05,0,0,1,5.94,10.49C141.9,65,144,77.2,145.21,89.15a248.47,248.47,0,0,1,.51,46c-1,12.65-2.91,25.5-7.08,37.53A48.9,48.9,0,0,1,133,184.51c-1.58,2.29-3.69,4.71-6.48,5.5-6.29,1.77-10.68-6.23-12.84-10.78-4.94-10.41-7.12-22.24-8.6-33.58a243.45,243.45,0,0,1-1.49-45.48c.77-13.24,2.44-26.64,6.26-39.38a63.32,63.32,0,0,1,5.32-13.12c1.56-2.76,3.54-5.66,6.38-7.24a6.77,6.77,0,0,1,3.28-.91.75.75,0,0,0,0-1.5c-7,.07-11.12,8.52-13.43,14-4.82,11.37-7,23.9-8.3,36.1a247.34,247.34,0,0,0-.55,48c1.1,12.92,3,26.1,7.51,38.33A45.51,45.51,0,0,0,116,186.12c1.75,2.35,4,4.65,7,5.39,6.66,1.68,11.37-5.59,13.88-10.6,5.25-10.48,7.53-22.51,9.09-34a243,243,0,0,0,1.61-47.39C146.74,85.88,145,72.05,140.87,59a59.44,59.44,0,0,0-5.64-13.11c-1.66-2.72-3.8-5.53-6.73-7a8.36,8.36,0,0,0-3.64-.9A.75.75,0,0,0,124.86,39.52Z"/><circle class="cls-4" cx="166.84" cy="73.37" r="4.82"/><path d="M170.91,73.37a4.07,4.07,0,1,1-3.34-4,4.11,4.11,0,0,1,3.34,4,.75.75,0,0,0,1.5,0,5.57,5.57,0,1,0-4.51,5.46,5.64,5.64,0,0,0,4.51-5.46A.75.75,0,0,0,170.91,73.37Z"/><circle class="cls-4" cx="72.9" cy="102.28" r="4.82"/><path d="M77,102.28a4.07,4.07,0,1,1-3.34-4,4.09,4.09,0,0,1,3.34,4,.75.75,0,0,0,1.5,0,5.65,5.65,0,0,0-3.64-5.23,5.57,5.57,0,1,0,3.64,5.23A.75.75,0,0,0,77,102.28Z"/><circle class="cls-4" cx="137.94" cy="173.33" r="4.82"/><path d="M142,173.33a4.07,4.07,0,1,1-7.56-2.09,4.07,4.07,0,0,1,7.56,2.09.75.75,0,0,0,1.5,0,5.66,5.66,0,0,0-3.65-5.22,5.57,5.57,0,0,0-6.19,1.66,5.57,5.57,0,1,0,9.84,3.56A.75.75,0,0,0,142,173.33Z"/><path d="M111.66,109a8,8,0,0,0,8.78,2.51A.75.75,0,0,0,120,110a6.49,6.49,0,0,1-7.32-2.12.75.75,0,0,0-1.06,0,.78.78,0,0,0,0,1.06Z"/><path d="M128.6,112a8.48,8.48,0,0,0,9,.54c.84-.47.09-1.76-.76-1.3a7,7,0,0,1-7.46-.54.75.75,0,0,0-1,.27.77.77,0,0,0,.26,1Z"/><ellipse class="cls-1" cx="123.49" cy="122.75" rx="2.41" ry="4.82"/><path d="M120.33,122.75c0,1.76.39,4.16,2,5.21s3-.32,3.63-1.71a9.19,9.19,0,0,0,.26-6.31c-.45-1.4-1.62-3.22-3.36-2.66-2.06.66-2.53,3.65-2.54,5.47a.75.75,0,0,0,1.5,0c0-1.22.17-3.06,1.23-3.89a.55.55,0,0,1,.78,0,2.7,2.7,0,0,1,.86,1.27,8,8,0,0,1,.17,4.81,3.82,3.82,0,0,1-.81,1.62,1.47,1.47,0,0,1-.4.28.58.58,0,0,1-.37,0,2.28,2.28,0,0,1-1-1.3,7.27,7.27,0,0,1-.47-2.73A.75.75,0,0,0,120.33,122.75Z"/><g id="microfono"><path class="cls-5" d="M54.2,150.4c-2.63,6.16-7.05,12-10.9,17.54,6.75-.24,22.73,1.2,23.38,1s11.37-13.26,17.37-16.55c-3.93-.78-24.89.34-29.92-1.36"/><path class="cls-5" d="M52.9,149.64C50.15,156,46,161.56,42,167.18a1.52,1.52,0,0,0,1.3,2.26c7.16-.24,14.36.57,21.51,1a7.2,7.2,0,0,0,2.27,0,4.73,4.73,0,0,0,1.82-1.51c2.27-2.43,4.47-4.92,6.79-7.31,2.75-2.83,5.64-5.93,9.12-7.88a1.51,1.51,0,0,0-.36-2.74,33.56,33.56,0,0,0-5.84-.35c-2.94,0-5.87,0-8.81,0s-6.07,0-9.1-.19a23.67,23.67,0,0,1-6.17-.78c-1.84-.6-2.62,2.29-.79,2.89a25.88,25.88,0,0,0,6.44.86c3,.17,6,.2,9,.21s6,0,8.92,0c1.17,0,2.35,0,3.52.08.44,0,.89.05,1.33.09.18,0,.37.05.54.05-.38,0,0,0,.15,0l-.36-2.74a39.1,39.1,0,0,0-8.1,6.7c-2.54,2.52-5,5.16-7.36,7.8-.64.7-1.31,1.37-1.94,2.07-.24.26-.07,0,0,0s.88-.06.51-.18a5.63,5.63,0,0,0-1.09,0c-3.21-.15-6.42-.41-9.63-.6-4.14-.25-8.3-.53-12.44-.39l1.29,2.26c4-5.63,8.15-11.2,10.9-17.55.76-1.75-1.82-3.28-2.59-1.51Z"/><path class="cls-6" d="M68.38,147.77a27.15,27.15,0,0,1,7.7-12.59,10.69,10.69,0,0,1,3.54-2.35,15.22,15.22,0,0,1,6.29-1.08,16.81,16.81,0,0,1,9.1,4.41,5.28,5.28,0,0,1,1.4,1.85c.47,1.13,1.26,3.28,1.09,4.49-.47,3.28-2.14,5.63-3.15,8.78-.36,1.1-2,3.44-3,3.91a.88.88,0,0,1-.5.09.76.76,0,0,1-.57-.41c-2.06-5-5.56-6.26-9.66-7.08a27.29,27.29,0,0,0-12.41.57"/><path class="cls-6" d="M69.82,148.16a26.6,26.6,0,0,1,3.38-7.32,20.08,20.08,0,0,1,5.65-6c5-3.08,11.07-1.43,15.1,2.34a6.76,6.76,0,0,1,1.81,6.32,56,56,0,0,1-2.86,7.34,8.51,8.51,0,0,1-1.47,2.27,5.4,5.4,0,0,0-.41.42l-.2.18c-.28.14-.09.14.55,0,.13-.19-.74-1.45-.88-1.67a11.4,11.4,0,0,0-4.74-4.23c-5.53-2.62-12.18-2.44-18-.92-1.86.48-1.07,3.38.8,2.89a26.31,26.31,0,0,1,10.7-.74A14.59,14.59,0,0,1,86,151.46a8.82,8.82,0,0,1,2.29,2.75c.72,1.31,1.31,3,3.19,2.51,2.07-.49,3.64-3.22,4.33-5,1.09-2.88,2.72-5.7,3.16-8.78a10,10,0,0,0-2.59-7.53,18.42,18.42,0,0,0-7.63-4.54,14.38,14.38,0,0,0-9.16.43c-3.37,1.17-5.94,4-8,6.75a29,29,0,0,0-4.61,9.36,1.5,1.5,0,0,0,2.89.79Z"/><path class="cls-6" d="M55.26,190.78c1.14-2.27,3.07-4.92,4.54-5.68,3.5-1.79,7.3.13,8-2.27,0-.14-2.1-10.14-2.27-10.21-1.3-.56-24.23-3.15-25-2.27-.58.67,12.56,17.67,13.62,19.3"/><path class="cls-6" d="M56.56,191.54c1-1.95,2.41-4.62,4.62-5.4,2-.7,4.35,0,6.28-.89,2.83-1.31,1.38-4.69.89-7-.31-1.45-.63-2.9-1-4.35-.2-.85-.32-2.1-1.15-2.6a5.08,5.08,0,0,0-1.85-.45c-1.2-.2-2.4-.36-3.61-.51-5.89-.76-11.86-1.5-17.81-1.68-1.48,0-4.53-.17-3.9,2.24.47,1.83,2.12,3.63,3.18,5.13,2.08,2.93,4.23,5.8,6.38,8.68,1.41,1.88,2.91,3.72,4.21,5.67,1.06,1.6,3.66.1,2.59-1.51-2.6-3.92-5.65-7.58-8.43-11.37-1.49-2-3-4.06-4.34-6.19-.2-.31-.38-.62-.56-.94-.07-.1-.11-.27-.19-.36.09.1,0,.24.07.17l0,0c0-.16,0-.06,0,.27a2.92,2.92,0,0,1-1,1.31s.09,0,.1,0-.17,0,0,0l1,0A136.2,136.2,0,0,1,58.2,173c2.06.25,4,.45,6.09.84.13,0,.55.19.67.15s-.9-.82-.87-.88.11.38.13.47c.3,1.12.54,2.25.79,3.39.33,1.49.65,3,1,4.48.1.48.17,1,.29,1.44s0-.4,0-.39c-.18-.19.19.05,0,0a4.66,4.66,0,0,0-.65.13c-2.43.31-4.88,0-7,1.44A16,16,0,0,0,54,190c-.88,1.72,1.71,3.24,2.6,1.52Z"/><path class="cls-7" d="M66.61,171.48c3-1.54,7.65-4.66,9.75-7.24a146.06,146.06,0,0,1,9.87-10.94,33.93,33.93,0,0,1,3,7.83,3.48,3.48,0,0,1,0,2.32,3.54,3.54,0,0,1-.91,1.06c-5.61,5-14.49,12.71-19.42,18.32"/><path class="cls-7" d="M67.37,172.78a35.06,35.06,0,0,0,9.65-7c3.44-3.8,6.65-7.76,10.27-11.4l-2.35-.3A32.78,32.78,0,0,1,87,159c.27.84.54,1.69.73,2.55a1.57,1.57,0,0,1-.53,1.92c-2.1,1.92-4.27,3.76-6.38,5.66a157.41,157.41,0,0,0-13,12.66c-1.27,1.45.84,3.58,2.12,2.13a169.39,169.39,0,0,1,14.5-14L88,166.77c1.13-1,2.48-1.92,2.82-3.48s-.42-3.71-1-5.32a38.14,38.14,0,0,0-2.33-5.42,1.51,1.51,0,0,0-2.36-.31c-3.55,3.57-6.77,7.37-10.06,11.17a32.26,32.26,0,0,1-9.25,6.78c-1.71.9-.2,3.49,1.51,2.59Z"/><path d="M65.18,173.38c.86,3.23,1.57,6.5,2.11,9.79a2.6,2.6,0,0,0,.1.58v.1c.2-.17.24-.27.13-.28a6.74,6.74,0,0,0-.93.08l-2.49.18L59,184.2a1.13,1.13,0,1,0,0,2.25l5.92-.43c.9-.07,1.81-.1,2.7-.21a2,2,0,0,0,2-1.62,9,9,0,0,0-.36-2.9c-.16-.92-.34-1.85-.53-2.77q-.6-2.9-1.36-5.73a1.13,1.13,0,0,0-2.17.59Z"/><path d="M70,184.64c7.43-6.81,14.8-13.68,22.39-20.31,1.1-1-.5-2.54-1.59-1.59-7.59,6.63-15,13.5-22.4,20.31-1.07,1,.53,2.57,1.6,1.59Z"/><path d="M92.39,163l-3.92-12.35a1.14,1.14,0,0,0-1.88-.49,135.42,135.42,0,0,0-18.25,18.76c-.76.94-1.3,1.6-2.59,1.55-1.11-.05-2.22-.18-3.32-.27l-6.9-.57-14.28-1.17c-1.45-.12-1.44,2.13,0,2.25L56,171.91l7.39.61c2.1.17,4.11.57,5.73-1.08S72,168,73.43,166.3s3-3.41,4.61-5.06a133.88,133.88,0,0,1,10.14-9.5l-1.88-.5,3.92,12.35c.44,1.38,2.61.79,2.17-.6Z"/><path d="M85.26,148.65l-28.35-.74c-2.07-.06-3.52.13-4.8,1.88s-2.6,3.75-3.9,5.62L40,167.25c-.82,1.2,1.13,2.32,1.94,1.14l7.64-11,3.68-5.31c.71-1,1.12-1.87,2.49-1.92,1,0,2.09.05,3.13.08l26.37.69a1.13,1.13,0,0,0,0-2.25Z"/><path d="M90.24,157.76a14.86,14.86,0,0,0,9-9.3,19.46,19.46,0,0,0,.26-10.83A9.54,9.54,0,0,0,97.87,134a15.11,15.11,0,0,0-6.28-4.27,18.51,18.51,0,0,0-16.1,1.38c-5.61,3.46-8.39,9.82-9.37,16.11-.22,1.41,1.95,2,2.17.6.77-5,2.57-10,6.42-13.35A15.92,15.92,0,0,1,89,131.27c3.34.84,7,2.76,8.12,6.08a17.14,17.14,0,0,1,.45,8.82,12.68,12.68,0,0,1-7.88,9.42c-1.33.52-.75,2.7.6,2.17Z"/><path d="M59.91,181.72c-1.72,2.76-3.41,5.53-5.1,8.32a1.13,1.13,0,0,0,1.95,1.13q2.52-4.17,5.09-8.32a1.12,1.12,0,0,0-1.94-1.13Z"/><path d="M57.37,191.35A50.59,50.59,0,0,0,61,185.59,27.65,27.65,0,0,0,62.74,182a4.68,4.68,0,0,0,.4-2.89c-.68-2.41-3.14-3.74-5.38-4.38a18.92,18.92,0,0,0-7.78-.46,7.7,7.7,0,0,0-2.93.9c-1.37.84-1.95,2.54-2.75,3.85s1.19,2.37,1.94,1.13c.37-.6.67-1.25,1-1.86a5.27,5.27,0,0,1,.58-.82c.07-.09.49-.46.24-.29a1.87,1.87,0,0,1,.39-.22,1.14,1.14,0,0,1,.31-.12,10.06,10.06,0,0,1,1.23-.31,16.41,16.41,0,0,1,6.32.16c1.68.37,3.9,1.12,4.57,2.82l.09.27c.07.25,0-.27,0,0v.18c-.06.32,0-.14,0,.07a7.24,7.24,0,0,1-.41,1.35,24,24,0,0,1-1.52,3.1,47.69,47.69,0,0,1-3.63,5.76c-.87,1.16,1.09,2.28,1.95,1.14Z"/><path class="cls-5" d="M204.2,170.49a4.54,4.54,0,0,1,.53,1.23c-6.27-.49-20.75,1.66-21.68,1.34-.56-.2-14.14-14.58-18.49-16.95,8.87-.73,28.12-1.74,28.87-1.21C193.79,155.16,202.17,166.58,204.2,170.49Z"/><path class="cls-5" d="M202.91,171.24a3.23,3.23,0,0,1,.37.88l1.45-1.9c-7-.51-14.1,1-21.11,1.37-.85,0,.25,0,.35.31-.05-.18-.51-.47-.65-.6-.85-.82-1.68-1.66-2.51-2.49-2.55-2.53-5.09-5.07-7.7-7.53-2.4-2.26-4.89-4.85-7.79-6.47l-.76,2.8q11.44-.95,22.94-1.29c1.37,0,2.74-.08,4.12-.07l1.22.05c.34,0,.17.1,0,0,.3.22-.46-.51-.43-.26,0,.08.55.68.37.44.36.47.71.95,1.07,1.43,1,1.31,1.92,2.62,2.86,3.95a85.89,85.89,0,0,1,6.18,9.39c.9,1.71,3.49.2,2.59-1.51a81.07,81.07,0,0,0-5.51-8.45,73.17,73.17,0,0,0-5.29-7.2c-1.15-1.27-3.64-.84-5.18-.81-3.88.07-7.76.26-11.64.47-4.44.23-8.88.5-13.32.87a1.51,1.51,0,0,0-.76,2.79c2.53,1.41,4.69,3.66,6.78,5.62,2.7,2.53,5.32,5.14,7.94,7.75.86.86,1.72,1.72,2.59,2.57a4,4,0,0,0,1.63,1.18,9.9,9.9,0,0,0,3.21-.1l5.32-.53a79.79,79.79,0,0,1,13.46-.67,1.52,1.52,0,0,0,1.45-1.9,6.36,6.36,0,0,0-.68-1.59C204.62,168,202,169.53,202.91,171.24Z"/><path class="cls-6" d="M159.44,157.79c-2.69-2-6.7-4.36-7.21-7.68a10.23,10.23,0,0,1,.28-3.85c.59-2.61,1.69-5.27,3.86-6.83,1.43-1,3.18-2.59,4.9-3s3.59-.82,5.39-1.18c1.59-.32,3.31.51,4.79,1.18a13.8,13.8,0,0,1,3.32,1.74,21.36,21.36,0,0,1,6,13.8c-5.66,1.3-11.38,1.18-17.15,1.86a13.43,13.43,0,0,0-3.55.73c-1.12.45-1.05,1.28-1.45,2.42"/><path class="cls-6" d="M160.19,156.49c-2.17-1.61-5.41-3.3-6.33-6-.55-1.62,0-3.54.44-5.11a9.27,9.27,0,0,1,2.54-4.4,17.1,17.1,0,0,1,4.15-2.87,16.56,16.56,0,0,1,2.69-.68c1-.23,2.1-.51,3.15-.67,1.69-.25,3.3.74,4.8,1.39a8.25,8.25,0,0,1,3.62,2.86,19.75,19.75,0,0,1,4,11l1.1-1.44c-4.56,1-9.23,1.13-13.87,1.52a27.6,27.6,0,0,0-6.4.9c-1.94.65-2.34,1.84-2.92,3.64s2.3,2.63,2.89.79c.17-.52.2-1.15.64-1.46a7,7,0,0,1,2.69-.57c2-.23,4-.38,6-.51a80.54,80.54,0,0,0,11.8-1.42,1.53,1.53,0,0,0,1.1-1.45,22.67,22.67,0,0,0-4.22-12.18,11.08,11.08,0,0,0-4.13-3.89,19.52,19.52,0,0,0-5.87-2.17,10.57,10.57,0,0,0-3.39.4c-1.27.27-2.56.51-3.81.85a16.37,16.37,0,0,0-5.25,3.15,13.84,13.84,0,0,0-4.94,11.55c.35,4.51,4.73,7,8,9.4,1.55,1.15,3-1.45,1.51-2.59Z"/><path class="cls-6" d="M195.89,188.29c-2.22-1.11-5.76.28-5.54,0s-10.12-1-10-1.11c2.32-.84.93-11.67,3.32-11.07,1.21.3,23.36-3.46,23.25-2.22-.09,1-6.87,10.73-7.78,11.22-1.82,1-2.85,2.93-4.4,4.28"/><path class="cls-6" d="M196.65,187a7.5,7.5,0,0,0-3.83-.59,16.19,16.19,0,0,0-1.7.25c-.22,0-.45.08-.66.14-.43.13-.43-.16.28.08l1,1.84c.75-2.46-3.89-2.25-5.23-2.38s-2.59-.26-3.88-.39l-1.51-.16a4.43,4.43,0,0,0-.51-.06c-.12,0,.37.09.13,0l1.1,1.44h0l-.74,1.29c1.69-.74,1.92-3.25,2.12-4.82.25-2,.16-4.08.74-6,.07-.22.06-.17.06-.2,0-.19,0-.13.07-.13-.15,0-.63.45-.83.23.06.07.39.06.51.06a6.73,6.73,0,0,0,1.19-.07c1.75-.16,3.49-.41,5.23-.65,4.22-.56,8.44-1.19,12.68-1.58.79-.08,1.58-.14,2.37-.17.26,0,.53,0,.79,0h.29c-.18,0-.1-.11,0,0s.06,0,.07,0c-.51-.54.11.83-.59-.88l-.31-.77a.3.3,0,0,1,0,.1s0-.09.07-.16a3.74,3.74,0,0,0-.45.84c-.48.84-1,1.65-1.54,2.45-1.36,2.06-2.77,4.12-4.32,6-.23.3-.49.58-.73.87,0,.06-.38.35-.15.17s-.61.38-.69.44c-1.54,1.13-2.55,2.76-3.95,4s.7,3.42,2.12,2.12,2.28-2.85,3.78-3.87a7.16,7.16,0,0,0,1.58-1.43c1.54-1.88,2.94-3.89,4.3-5.9,1-1.45,2.41-3.13,2.88-4.85s-1.4-2.27-2.76-2.26a104.66,104.66,0,0,0-12.83,1.42c-2.09.28-4.18.57-6.27.83-.67.08-1.35.16-2,.21l-.57,0c-.06,0-.36,0,0,0s-.35,0-.53,0c-2.51.14-2.62,3.74-2.8,5.54-.12,1.27-.19,2.54-.38,3.8a9.26,9.26,0,0,1-.35,1.56,1.33,1.33,0,0,1-.21.42c0,.07.33-.19,0,0a1.48,1.48,0,0,0-.74,1.3h0a1.56,1.56,0,0,0,1.1,1.45,27.82,27.82,0,0,0,5,.54l3.35.34,1.21.14c.19,0,.18,0,0,0l.19,0c.06,0,.71.28-.12-.1l-.69-.89v-.77a1.53,1.53,0,0,0,1,1.85,4.59,4.59,0,0,0,2.1-.24,5.47,5.47,0,0,1,3.08.06c1.75.77,3.28-1.81,1.52-2.59Z"/><path class="cls-7" d="M181.5,176.11c-4.43-3.32-18.7-18.39-18.92-18.34s-4.39,9.21-4.33,9.48,20,18.31,21,18.82"/><path class="cls-7" d="M182.25,174.81a71.12,71.12,0,0,1-5.4-4.91c-2.39-2.32-4.74-4.68-7.08-7.05-1.73-1.75-3.44-3.52-5.19-5.26a6.08,6.08,0,0,0-1.22-1.1c-1.14-.63-2,.21-2.42,1.14-1.18,2.3-2.23,4.68-3.26,7.05a7.2,7.2,0,0,0-.93,2.55,2.1,2.1,0,0,0,.88,1.53c3.33,3.23,6.84,6.29,10.29,9.39,2.27,2,4.54,4.06,6.82,6.06a24.82,24.82,0,0,0,3.79,3.16c1.69.94,3.2-1.65,1.51-2.59-.42-.24.11.11-.18-.13l-.88-.73-2.72-2.36q-3.8-3.33-7.54-6.73-3.5-3.15-7-6.32c-.68-.63-1.37-1.25-2-1.9-.1-.1-.25-.31-.38-.37.46.22,0,1.7.41,1.21a2.75,2.75,0,0,0,.25-.64c.55-1.34,1.39-3.15,2.09-4.65.37-.79.74-1.59,1.12-2.38.13-.26.29-.53.4-.8.18-.43.55-.54-.27.09l-1.16.15c-.37-.07-.78-.57-.35-.12l.59.57,1.77,1.79L169.7,167c3.53,3.55,7,7.33,11,10.36,1.54,1.17,3-1.43,1.51-2.59Z"/><path d="M181.26,176.49c-.61,2.27-1.13,4.56-1.58,6.86-.21,1.08-.41,2.16-.57,3.24a2,2,0,0,0,1.44,2.56,15.53,15.53,0,0,0,2.89.25l2.91.18c2,.13,4.05.25,6.07.4a1.13,1.13,0,1,0,0-2.25c-3.51-.25-7-.44-10.53-.69a5.59,5.59,0,0,0-.77,0c.12.33.17.4.16.2s0-.23.05-.35c0-.27.09-.54.14-.81.17-1,.36-2,.56-3,.41-2,.87-4,1.4-5.95a1.12,1.12,0,0,0-2.17-.59Z"/><path d="M180.29,186.48c-7.25-6.64-14.43-13.34-21.84-19.8-1.09-1-2.68.63-1.59,1.59,7.4,6.46,14.59,13.16,21.84,19.8,1.07,1,2.66-.61,1.59-1.59Z"/><path d="M159,167.53l3.83-12L161,156a129.38,129.38,0,0,1,9.89,9.28c1.47,1.52,2.89,3.08,4.28,4.67s2.75,3.51,4.26,5.12,3.6,1.37,5.78,1.19l6.86-.56,14.71-1.21c1.44-.11,1.45-2.36,0-2.25L193,173.36l-6.87.56c-1.11.09-2.28.3-3.4.28-1.33,0-1.78-.73-2.55-1.69a132.58,132.58,0,0,0-17.65-18.12,1.14,1.14,0,0,0-1.88.5l-3.83,12.05c-.44,1.38,1.73,2,2.17.59Z"/><path d="M163.82,155.18l25.88-.68c1,0,1.93-.11,2.89-.07,1.33.06,1.72.87,2.42,1.88l3.67,5.3L206,172.22c.82,1.18,2.77.06,1.94-1.14l-7.91-11.42c-1.29-1.87-2.54-3.78-3.89-5.61-1.18-1.61-2.56-1.9-4.48-1.85-9.29.22-18.58.48-27.87.73a1.13,1.13,0,0,0,0,2.25Z"/><path d="M159.36,158.38c-3.09-.08-5.54-3.3-6.68-5.85a11.92,11.92,0,0,1,1.38-12.07c5-6.83,16-7.31,22-1.69a14.4,14.4,0,0,1,4.26,12.8c-.2,1.42,2,2,2.17.6.69-5-.33-10-3.71-13.84a17,17,0,0,0-12.76-5.69c-4.79,0-9.83,1.85-13,5.53a14.25,14.25,0,0,0-2.88,14.07c1.36,3.85,4.73,8.28,9.21,8.39a1.13,1.13,0,0,0,0-2.25Z"/><path d="M195.35,189.53a17.46,17.46,0,0,1-4.34-3.75c-.59-.62-1.36-1.47-1.77-2-.16-.21-.3-.45-.46-.67s.2.3.05.27c.07,0-.18.25,0-.05a1.91,1.91,0,0,0,.1-.34,4,4,0,0,1,.44-.6,4.44,4.44,0,0,1,.93-.72,10.42,10.42,0,0,1,2.57-1,15.9,15.9,0,0,1,5.49-.53,1,1,0,0,1,.36,0,3.16,3.16,0,0,1,.53.13c-.34-.13.18.14.06.06a4.54,4.54,0,0,1,.52.45,9.36,9.36,0,0,1,1.08,1.19,4.38,4.38,0,0,1,.37.58c.15.28-.05,0,.05.09a.65.65,0,0,1,0,.13.71.71,0,0,1,.23-.69,1.15,1.15,0,0,0,0,1.59,1.13,1.13,0,0,0,1.59,0c.87-1.08.11-2.27-.61-3.19a7.78,7.78,0,0,0-2.4-2.24,6.4,6.4,0,0,0-2.71-.45,19.85,19.85,0,0,0-3.61.31c-2.18.38-4.75,1.13-6.25,2.88a3.37,3.37,0,0,0-1,2.83,7.14,7.14,0,0,0,1.57,2.25,40,40,0,0,0,2.93,3,14.59,14.59,0,0,0,3.06,2.37c1.29.67,2.43-1.28,1.14-1.94Z"/><path class="cls-5" d="M104.41,174.57a143.1,143.1,0,0,1-4.32,18.16c6.31.1,32.71,2.25,38.47,2-.23-6.4-.66-13.68-.22-20.56a147.3,147.3,0,0,1-32,0"/><path class="cls-5" d="M103,174.17a146.64,146.64,0,0,1-4.33,18.16,1.52,1.52,0,0,0,1.45,1.9c10.71.19,21.41,1.38,32.1,1.88,2.12.1,4.25.22,6.37.14a1.52,1.52,0,0,0,1.5-1.5c-.25-6.85-.64-13.7-.22-20.56a1.52,1.52,0,0,0-1.5-1.5,144.83,144.83,0,0,1-32,0c-1.91-.21-1.9,2.79,0,3a144.83,144.83,0,0,0,32,0l-1.5-1.5c-.42,6.86,0,13.71.22,20.56l1.5-1.5c-4.56.17-9.19-.27-13.74-.55-6-.37-12-.79-18.08-1.15-2.21-.13-4.43-.28-6.65-.32l1.44,1.9A147.07,147.07,0,0,0,105.86,175c.33-1.89-2.57-2.7-2.89-.8Z"/><path class="cls-6" d="M108.18,170.2a16.31,16.31,0,0,1,3.66-9.21c1.18-1.47,3.51-4.08,5.19-4.92a10.91,10.91,0,0,1,4.57-.9c1.89,0,4.92,1.19,6.7,1.82,5,1.76,6.83,7.16,7.45,12.42a1,1,0,0,1-1,1.35,64,64,0,0,1-7.31-.4,85.54,85.54,0,0,0-18.51.57"/><path class="cls-6" d="M109.68,170.2c.4-4.28,2.54-7.71,5.5-10.72a7.92,7.92,0,0,1,5.13-2.74,12.89,12.89,0,0,1,5.71,1,9.44,9.44,0,0,1,7.24,7,21.82,21.82,0,0,1,.69,2.73q.12.61.21,1.23a2.91,2.91,0,0,0,.09.65c-.05.39,0,.41.24.08.37-.27.28-.35-.27-.22a12.62,12.62,0,0,0-1.95,0l-1.7-.11c-1.38-.11-2.76-.24-4.14-.34a89.55,89.55,0,0,0-17.93.69,1.51,1.51,0,0,0-1,1.84,1.53,1.53,0,0,0,1.84,1.05,87.6,87.6,0,0,1,19.08-.43c1.55.14,3.09.29,4.63.32,1.3,0,2.93.22,3.8-1a3.87,3.87,0,0,0,.31-3,29.2,29.2,0,0,0-.7-3.47,16.24,16.24,0,0,0-2.93-6,11.57,11.57,0,0,0-5.35-3.55c-2.16-.78-4.42-1.72-6.75-1.66a10.73,10.73,0,0,0-6.9,2.35,21,21,0,0,0-7.8,14.17c-.18,1.93,2.82,1.91,3,0Z"/><path class="cls-6" d="M114.25,217.42a60.51,60.51,0,0,0,1.81-13.52,1,1,0,0,1,.18-.7,1,1,0,0,1,.85-.19c2.67.19,5.4-.71,7.89.31,1.32.54,1.52.28,2.07,1.6a22.07,22.07,0,0,1,.34,4.46c0,3.26,0,5.3-1,8.39a1.11,1.11,0,0,1-.26.49,1,1,0,0,1-.71.16c-3.23-.06-6.44.39-9.44-.8"/><path class="cls-6" d="M115.7,217.82a66.28,66.28,0,0,0,1.36-7.26c.15-1.18.27-2.36.36-3.55,0-.59.07-1.18.1-1.78l0-.89c0-.15,0-.29,0-.44s0-.25,0,0l-.54.54c-.07,0-.27-.06,0,0a2.33,2.33,0,0,0,.53,0h.83c.7,0,1.39-.08,2.08-.13a10.4,10.4,0,0,1,3.52.15c.48.13.94.35,1.42.5l.19.07c-.12-.05-.11,0-.09,0s.21.21.07,0,0,.08,0,0,0,0,0,.08a3.36,3.36,0,0,1,.16.33c-.07-.19,0,0,0,.11a1.14,1.14,0,0,1,0,.24s0-.22,0,0,0,.45.06.68a51.28,51.28,0,0,1,.07,5.26,19,19,0,0,1-.26,3.11c-.1.54-.22,1.07-.37,1.59a4,4,0,0,0-.24.79c0,.48.87-.22.52-.32a2.26,2.26,0,0,0-.52,0c-2.9,0-5.84.31-8.61-.75a1.51,1.51,0,0,0-1.85,1.05,1.54,1.54,0,0,0,1,1.85,17.08,17.08,0,0,0,6.15.88c1,0,2.08,0,3.12,0s2.08,0,2.69-1a9,9,0,0,0,.86-2.73,23,23,0,0,0,.39-2.73c.12-1.57.12-3.15.09-4.72a18.08,18.08,0,0,0-.3-3.89,3.59,3.59,0,0,0-2.5-2.67,13,13,0,0,0-2.28-.67,15.37,15.37,0,0,0-3.39-.06c-.92.07-1.84.15-2.77.13-1.17,0-2.31,0-2.87,1.24-.44,1-.24,2.43-.31,3.5s-.17,2.37-.31,3.55a60.44,60.44,0,0,1-1.34,7.2c-.47,1.87,2.42,2.67,2.89.8Z"/><path class="cls-6" d="M112.32,208.15a29.31,29.31,0,0,1-5.3.18,2.41,2.41,0,0,1-1.06-.23,2.45,2.45,0,0,1-.79-.95,74.57,74.57,0,0,1-5-10.67q3.93.41,7.87.53c2.78.09,5.57.07,8.35.06l22.57-.13a49.9,49.9,0,0,1-5.21,11.65l-3.23-.09a.94.94,0,0,1-.59-.16,1,1,0,0,1-.25-.63c-.41-2.3-2.49-3.91-4.58-5a11.9,11.9,0,0,0-8.06-1.32c-2.7.69-5.07,3.12-5,5.9,0,.24.38.49.38.25"/><path class="cls-6" d="M112.32,206.65a31.72,31.72,0,0,1-4.57.21,2.62,2.62,0,0,1-1-.07c-.11-.06-.15-.31-.23-.39a10.93,10.93,0,0,1-1.14-2.07,72.67,72.67,0,0,1-3.71-8.25l-1.45,1.9a184.81,184.81,0,0,0,19.41.57l19.38-.11-1.45-1.9a49.32,49.32,0,0,1-5.06,11.29l1.3-.74-2.53-.07c-1.33,0-.07.27-.09.3s-.28-.95-.31-1a7.88,7.88,0,0,0-2.43-3.19,15.76,15.76,0,0,0-8.11-3.34,9.21,9.21,0,0,0-7.6,2.54c-1.45,1.48-3.41,5.16-1.1,6.69a1.51,1.51,0,0,0,1.82-.23l.1-.1a1.5,1.5,0,0,0-2.12-2.12l-.1.1,1.82-.24.46.61,0-.28a4.55,4.55,0,0,0,.17-.66,4.41,4.41,0,0,1,.71-1.27,5.58,5.58,0,0,1,2.16-1.63c2.27-1,5-.35,7.13.61,1.77.79,3.85,2,4.41,4,.27,1,.54,1.84,1.65,2.16a17.81,17.81,0,0,0,3.94.17,1.52,1.52,0,0,0,1.3-.75,53.15,53.15,0,0,0,5.36-12,1.52,1.52,0,0,0-1.45-1.9l-19.38.11a184.81,184.81,0,0,1-19.41-.57,1.51,1.51,0,0,0-1.45,1.9,79.79,79.79,0,0,0,4.69,10.21c.79,1.42,1.52,2.52,3.25,2.72a26.14,26.14,0,0,0,5.66-.16c1.9-.23,1.92-3.23,0-3Z"/><path d="M112.92,208.28c-2.94-.11-5.89-.22-8.83-.06l1.08.83q-1.47-3.63-3-7.26c-.47-1.16-1-2.32-1.42-3.49a18.24,18.24,0,0,0-1.61-3.47c-.81-1.19-2.76-.06-1.94,1.14a17.28,17.28,0,0,1,1.49,3.2l1.42,3.49,2.85,7a1.16,1.16,0,0,0,1.08.82c2.94-.16,5.89-.05,8.83.06,1.44.06,1.44-2.19,0-2.25Z"/><path d="M139.45,195.79c-1.49,3.9-2.87,7.84-4.21,11.8-.17.47-.33.95-.49,1.43a2.46,2.46,0,0,0-.14.38c0,.16.13-.28.07-.16.14-.27.19-.15-.15-.09a13.18,13.18,0,0,1-2.35,0c-1.15,0-2.3-.06-3.44-.11-1.45-.07-1.45,2.18,0,2.25,1.21,0,2.43.1,3.65.11a12.32,12.32,0,0,0,2.78-.14c1.38-.3,1.63-1.35,2-2.5,1.42-4.16,2.86-8.31,4.43-12.42a1.14,1.14,0,0,0-.78-1.39,1.16,1.16,0,0,0-1.39.79Z"/><path d="M138.31,172.89c0,5.38.52,10.66,1,16,.1,1.11.18,2.22.23,3.34a7.59,7.59,0,0,1,.09,2.12c-.13.43-.21.42-.67.6-.1,0-1.1.26-.4.18a18.2,18.2,0,0,1-2.09,0c-8.2-.08-16.42-.39-24.62-.69-4.43-.17-8.86-.33-13.28-.62-1.44-.1-1.44,2.15,0,2.25,9,.59,18,.81,27,1.06,3.68.11,7.36.21,11,.25a10.85,10.85,0,0,0,2.28-.07,4,4,0,0,0,2.8-1.77c.52-1.14.13-2.92.06-4.15-.37-6.2-1.16-12.31-1.17-18.54a1.13,1.13,0,0,0-2.25,0Z"/><path d="M139.23,171.84c-8.45-.17-16.89-.39-25.34-.58l-6.63-.14c-1.75,0-3.65,0-5,1.38a5.11,5.11,0,0,0-1,2.45c-.26,1-.51,2-.74,3-.39,1.71-.74,3.43-1.07,5.15a79.53,79.53,0,0,1-2.57,10.44c-.48,1.37,1.7,2,2.16.6,2-5.9,2.73-12.13,4.27-18.15.27-1.06.32-2,1.44-2.44a8,8,0,0,1,3-.18l6.14.13,11.74.28c4.53.1,9.06.21,13.6.3a1.13,1.13,0,0,0,0-2.25Z"/><path d="M127.6,210.21a38.17,38.17,0,0,1-.3,11,1.14,1.14,0,0,0,.78,1.38,1.13,1.13,0,0,0,1.39-.78,40.19,40.19,0,0,0,.38-11.59,1.16,1.16,0,0,0-1.13-1.12,1.12,1.12,0,0,0-1.12,1.12Z"/><path d="M114,219.29c0-4.9,0-9.85.41-14.73,0-.15,0-.31,0-.46s.06.13,0-.09a1.49,1.49,0,0,0,0-.18c-.27-.23,0,.22-.1.25.13-.05.26-.23.37-.31a7.15,7.15,0,0,1,3.68-1,14.87,14.87,0,0,1,3.77,0,10.4,10.4,0,0,1,3,1.22,5.3,5.3,0,0,1,1.36,1c.27.29.17.16.29.63a29.48,29.48,0,0,1,.71,4.58c.14,1.43,2.39,1.44,2.25,0a37.09,37.09,0,0,0-.73-4.93,3.78,3.78,0,0,0-1.39-2.28,13.17,13.17,0,0,0-3.48-1.93,9.68,9.68,0,0,0-3.85-.58,18.75,18.75,0,0,0-4.84.51c-1.1.31-2.76,1-3.17,2.19a7.84,7.84,0,0,0-.22,1.87c-.09,1.15-.14,2.31-.18,3.47-.14,3.58-.2,7.17-.2,10.76a1.13,1.13,0,0,0,2.25,0Z"/><path d="M108.86,171a13.79,13.79,0,1,1,27.05-5.37,13.58,13.58,0,0,1,.17,3,13.06,13.06,0,0,1-.24,2c-.07.34-.3,1.51-.3,1.51l1.77.22a2.32,2.32,0,0,0-.19-.44,1.14,1.14,0,0,0-1.77-.22l0,0c-1.12.92.48,2.5,1.59,1.59l.05,0-1.76-.23a2.47,2.47,0,0,0,.19.44,1.13,1.13,0,0,0,1.76.23c.67-.66.81-2.06,1-2.95a16,16,0,1,0-31.4.85c.31,1.41,2.48.81,2.17-.6Z"/></g><path d="M220.43,124.26a94.8,94.8,0,1,1-1.11-14.65,95.71,95.71,0,0,1,1.11,14.65,1.5,1.5,0,0,0,3,0,98.15,98.15,0,1,0-1.19,15.29,101.66,101.66,0,0,0,1.19-15.29A1.5,1.5,0,0,0,220.43,124.26Z"/></g><g id="sombras"><g class="cls-8"><path class="cls-9" d="M216.41,129.51c-.53,8.39-2,18-5,17-2-.65-2.63-14.2-4-20-5.09-21.58-15.42-39.48-29-55-20-22.82-47-35-58-37,.68-6.88,32.86,2.23,39,5,11.88,5.36,26.4,15.22,35,25C215.86,88.92,217.21,116.91,216.41,129.51Z"/></g><g class="cls-10"><path d="M114.86,219.93C155,224.79,186,202.79,186,199.79c-63,39-185-11-137-131-7.47-.8-25,51-18.09,73.47,4,13.08,10.72,30.26,19.35,41.16C71.78,210.6,101.25,218.29,114.86,219.93Z"/></g></g></svg>