<svg xmlns="http://www.w3.org/2000/svg" viewBox="0 0 250 250"><defs><style>.cls-1{fill:#4386c6;}.cls-2{fill:#c2e1e3;}.cls-3{fill:#f7c402;}.cls-4{fill:#fff;}.cls-5{stroke:#000;stroke-miterlimit:10;}.cls-6{opacity:0.42;}.cls-7{opacity:0.32;}</style></defs><g id="Circulos_amarillos" data-name="Circulos amarillos"><circle class="cls-1" cx="124.39" cy="123.98" r="112.25"/><path d="M235.14,124A110.74,110.74,0,0,1,63.65,216.61a111.85,111.85,0,0,1-24.73-22.18,110.09,110.09,0,0,1-25-61.88,111.93,111.93,0,0,1,2.8-34.8A110.67,110.67,0,0,1,111.52,14a112.17,112.17,0,0,1,35,1.47,110.33,110.33,0,0,1,31.75,11.75,110.5,110.5,0,0,1,56.9,96.8,1.5,1.5,0,0,0,3,0A113.75,113.75,0,0,0,11,115.24,114.52,114.52,0,0,0,13.87,151a113.66,113.66,0,0,0,97.3,86,114.49,114.49,0,0,0,36-1.51,113.05,113.05,0,0,0,32.63-12.08,113.7,113.7,0,0,0,57-81.87A118.09,118.09,0,0,0,238.14,124,1.5,1.5,0,0,0,235.14,124Z"/><circle class="cls-2" cx="124.39" cy="123.98" r="96.77"/><path d="M219.66,124a95,95,0,1,1-1.12-14.66A95.84,95.84,0,0,1,219.66,124a1.5,1.5,0,0,0,3,0,98.34,98.34,0,1,0-1.2,15.28,101.53,101.53,0,0,0,1.2-15.28A1.5,1.5,0,0,0,219.66,124Z"/><path d="M235.14,124A110.74,110.74,0,0,1,63.65,216.61a111.85,111.85,0,0,1-24.73-22.18,110.09,110.09,0,0,1-25-61.88,111.93,111.93,0,0,1,2.8-34.8A110.67,110.67,0,0,1,111.52,14a112.17,112.17,0,0,1,35,1.47,110.33,110.33,0,0,1,31.75,11.75,110.5,110.5,0,0,1,56.9,96.8,1.5,1.5,0,0,0,3,0A113.75,113.75,0,0,0,11,115.24,114.52,114.52,0,0,0,13.87,151a113.66,113.66,0,0,0,97.3,86,114.49,114.49,0,0,0,36-1.51,113.05,113.05,0,0,0,32.63-12.08,113.7,113.7,0,0,0,57-81.87A118.09,118.09,0,0,0,238.14,124,1.5,1.5,0,0,0,235.14,124Z"/></g><g id="_6" data-name="6"><path class="cls-3" d="M184.82,132.39c-3.22,18.47-7.11,32.84-22.94,38.83-13.45,5.1-69.52-2.82-83.24-14.8-11.06-9.66-11.61-28.07-8.81-44.1,5.75-32.94,36.15-55.15,67.9-49.61S190.57,99.45,184.82,132.39Z"/><path d="M183.37,132c-2,11.57-4.29,25-13.74,33.07a24.86,24.86,0,0,1-11.88,5.65,64.94,64.94,0,0,1-11.8.56,188.91,188.91,0,0,1-32.14-3.74c-9.72-1.91-19.85-4.24-28.74-8.75a23.65,23.65,0,0,1-9.82-8.62c-3.56-5.63-4.93-12.39-5.26-19-.69-13.45,2-27.5,8.86-39.16a59,59,0,0,1,27.57-24.29,55.32,55.32,0,0,1,66.77,19,60.09,60.09,0,0,1,11.07,35.43,61.49,61.49,0,0,1-.89,9.76c-.32,1.89,2.57,2.7,2.9.8a64.06,64.06,0,0,0-5.61-39.37,60.07,60.07,0,0,0-26.9-27,58.57,58.57,0,0,0-39.06-4.47,60.85,60.85,0,0,0-32.33,20A64,64,0,0,0,72.05,99.09a74,74,0,0,0-4.76,20.82c-1.24,12.94-.11,29.2,10.84,38a41.05,41.05,0,0,0,10.77,5.8,118.12,118.12,0,0,0,15.16,4.7,206.13,206.13,0,0,0,34.57,5.46,112.31,112.31,0,0,0,14.56.26A31.13,31.13,0,0,0,163.91,172a30.3,30.3,0,0,0,13.51-11.37c3.44-5.28,5.37-11.44,6.8-17.54.8-3.41,1.44-6.86,2.05-10.31C186.6,130.9,183.71,130.09,183.37,132Z"/><path class="cls-4" d="M138.46,95.6a4.52,4.52,0,0,0-1.88,6.33,2.77,2.77,0,0,0,.82.85,4.05,4.05,0,0,0,2.16.35A55.22,55.22,0,0,1,163.11,108a4.6,4.6,0,0,0,1.71.53c1.62,0,2.74-1.62,3.31-3.14a5.46,5.46,0,0,0,.45-2.1c-.08-1.89-1.83-4-3.71-3.77-3.49.48-2.16,0-5.66.08-5.66.16-9.72-.26-14.22-2-2.1-.81-4.22-1.87-6.47-1.79"/><path class="cls-4" d="M137.89,94.63a5.7,5.7,0,0,0-3,5.57,4.92,4.92,0,0,0,1.17,2.85c1,1.13,2.33,1.22,3.77,1.2a54.6,54.6,0,0,1,19.64,3.45c2.41.9,5.31,3.06,7.73,1.12,1.92-1.55,3.1-4.73,2.22-7.09a5.51,5.51,0,0,0-1.9-2.54,4.61,4.61,0,0,0-3.62-.66c-1.84.2-3.73,0-5.58,0a36.88,36.88,0,0,1-9.66-.91c-3.39-.87-6.54-2.91-10.1-2.91a1.13,1.13,0,0,0,0,2.25c2.65,0,5,1.4,7.47,2.23a30.79,30.79,0,0,0,6.44,1.37,60.15,60.15,0,0,0,7.23.19c1.3,0,2.58.2,3.88.08,1-.09,2-.4,2.83.36a3.07,3.07,0,0,1,.95,3.11,5.3,5.3,0,0,1-1.49,2.73c-1.12.9-2.56-.16-3.68-.63a56.48,56.48,0,0,0-15.28-4c-1.44-.17-2.89-.29-4.33-.34-.69,0-1.38,0-2.06,0a7.75,7.75,0,0,1-2.1,0c-1.2-.39-1.46-1.91-1.23-3A3.41,3.41,0,0,1,139,96.57c1.3-.63.16-2.58-1.14-1.94Z"/><path class="cls-4" d="M97.52,87.91a4.8,4.8,0,0,0-4.39,3.68A2.75,2.75,0,0,0,93.59,94c.93,1,2.59.75,4,.52,8.33-1.42,16.52,2.41,24.46,5.29a3.4,3.4,0,0,0,1.76.31,2.76,2.76,0,0,0,1.84-1.67,5.89,5.89,0,0,0,.5-3.31,2.17,2.17,0,0,0-1.1-1.79,2.66,2.66,0,0,0-1.16-.11c-8.48.36-16.7-2.59-24.67-5.49"/><path class="cls-4" d="M97.52,86.78a6,6,0,0,0-5.16,3.59c-.82,1.92-.46,4.47,1.75,5.23a6.6,6.6,0,0,0,3,.08,27.16,27.16,0,0,1,4.41-.38,32.83,32.83,0,0,1,9,1.55c2.78.83,5.5,1.87,8.22,2.9,2.29.86,5.22,2.57,7.19.25,1.42-1.67,2-4.73.76-6.66a2.79,2.79,0,0,0-2.43-1.28c-1.54,0-3.06,0-4.61-.07-7-.53-13.64-3-20.15-5.37-1.36-.5-2,1.68-.6,2.17A117.33,117.33,0,0,0,112.4,93.1a50,50,0,0,0,6.77,1.1c1.08.1,2.18.15,3.27.15s2.35-.41,2.56,1a4.11,4.11,0,0,1-.8,3.24c-.88.87-2.41,0-3.39-.41-2.15-.8-4.28-1.64-6.45-2.4a40.54,40.54,0,0,0-12.81-2.69,23.22,23.22,0,0,0-3.63.24c-.9.13-2.39.63-3.24.11s-.41-2.09.09-2.8A3.75,3.75,0,0,1,97.52,89c1.44-.1,1.45-2.35,0-2.25Z"/><path d="M123.63,101.69c-3.89,2-8.65,2.23-12.94,1.76a29.54,29.54,0,0,1-13-4.35c-2.2-1.44-5.08-3.93-4.71-6.9s4-4.53,6.61-5.2c6.61-1.69,14.06-.39,20.19,2.46,2.46,1.15,5.23,2.7,6.56,5.18,1.16,2.17.57,6.27-2.59,5.82a32.81,32.81,0,0,1-5.08-1.67,82.1,82.1,0,0,0-8.61-2.16c-5.53-1.11-11.61-2.39-17.23-1.38-1.14.21-1,1.88,0,2.17l1,.3a1.13,1.13,0,0,0,.6-2.17l-1-.3v2.17a29.17,29.17,0,0,1,9,.21c3.07.41,6.13.94,9.16,1.62a59.91,59.91,0,0,1,7.79,2.16,14.51,14.51,0,0,0,5.1,1.35c3.71-.07,5.29-4.37,4.5-7.52s-3.64-5.34-6.32-6.83a34,34,0,0,0-22.64-3.81c-3.34.68-7.26,2.25-8.75,5.57-1.41,3.13.18,6.39,2.45,8.62,3.76,3.7,9.2,5.65,14.29,6.54,5.48,1,11.67,1,16.71-1.7,1.28-.68.15-2.62-1.13-1.94Z"/><path d="M169.45,105.24c-1,5-8.56,5.82-12.61,5.83-6.22,0-13.44-1.64-18.26-5.82-1.47-1.28-3-3-3-5.1s1.5-3.45,3.12-4.36c5.37-3.05,12.78-2.41,18.5-.83a24.31,24.31,0,0,1,9,4.39c1.68,1.4,3.58,3.52,3.22,5.89-.22,1.42,2,2,2.17.6.9-6-5.66-10-10.39-11.89-6.68-2.69-15.27-3.7-22.08-.87-2.36,1-4.66,2.59-5.52,5.11a7.21,7.21,0,0,0,1.48,6.64c4.26,5.58,12.37,7.85,19,8.38a25.51,25.51,0,0,0,11.75-1.49c2.6-1.08,5.14-3,5.72-5.88C171.9,104.43,169.73,103.82,169.45,105.24Z"/><path d="M136.94,105.86a42.66,42.66,0,0,1,18.45,2,42.06,42.06,0,0,1,5.74,2.33c.54.27,1.08.55,1.59.85.16.09.33.23.49.3.36.15-.1-.09-.25-.47l.29-1.1h0l.8-.33h0a1.13,1.13,0,0,0,0,2.25,1.14,1.14,0,0,0,.81-.34,1.11,1.11,0,0,0,.29-1.09c-.36-.89-1.57-1.36-2.37-1.77a47,47,0,0,0-25.82-4.91c-1.42.18-1.44,2.43,0,2.25Z"/><path d="M138.22,95.65a64.09,64.09,0,0,0,15.14,4.19,49.23,49.23,0,0,0,7.93.8c1.77,0,3.88-.07,5.4-1.08,1.2-.8.07-2.75-1.14-1.94s-3.25.79-4.76.76a49.08,49.08,0,0,1-7.45-.82,60.89,60.89,0,0,1-14-3.85c-1.32-.58-2.46,1.36-1.14,1.94Z"/><path d="M96.8,87.56c8.63,4,18.63,7.62,28.15,4.88a1.13,1.13,0,0,0-.6-2.17c-8.9,2.56-18.35-1-26.41-4.65C96.63,85,95.49,87,96.8,87.56Z"/><path class="cls-5" d="M113.59,91.56a4.12,4.12,0,0,0-2.33,3.55,3.52,3.52,0,0,0,2,3.5,1.69,1.69,0,0,0,.83.11,2.31,2.31,0,0,0,.88-.36,4.56,4.56,0,0,0,2.26-3.25,3.31,3.31,0,0,0,0-.89A3.39,3.39,0,0,0,116.05,92a2.24,2.24,0,0,0-2.2-.34"/><path class="cls-5" d="M155.58,99.16a4.12,4.12,0,0,0-2.33,3.55,3.52,3.52,0,0,0,2,3.5,1.69,1.69,0,0,0,.83.11A2.42,2.42,0,0,0,157,106a4.59,4.59,0,0,0,2.26-3.25,3.78,3.78,0,0,0,0-.89A3.36,3.36,0,0,0,158,99.6a2.24,2.24,0,0,0-2.2-.34"/><path d="M144.22,125.82q-17.1-1.42-34.23-2.39c-1.93-.11-1.92,2.89,0,3q17.13,1,34.23,2.39c1.92.17,1.91-2.84,0-3Z"/><path class="cls-3" d="M112.17,164.38a14.49,14.49,0,0,1,1.33-4.48c.63-1.21,1.49-2.3,2-3.55a13.11,13.11,0,0,0,.8-4.49c.28-6.09-.46-12.48-3.78-17.59a10.61,10.61,0,0,0-2.74-3,12.65,12.65,0,0,0-4.22-1.7,25.35,25.35,0,0,0-6-.87c-5.48,0-10.58,2.58-15.44,5.11a16.59,16.59,0,0,0-3.59,2.29,16.05,16.05,0,0,0-2.85,3.83l-3.61,6A78.21,78.21,0,0,0,73,172.41a9.9,9.9,0,0,0,1.18,4.05c1.08,1.72,3,2.66,5,3.34a45.05,45.05,0,0,0,13,2.35,28.13,28.13,0,0,0,10.3-1.07,13.31,13.31,0,0,0,7.86-6.41C111.78,171.53,111.64,167.85,112.17,164.38Z"/><path class="cls-3" d="M113.62,164.78a14.07,14.07,0,0,1,1.08-3.93c.57-1.17,1.38-2.2,2-3.37,1.2-2.5,1.23-5.4,1.22-8.12,0-5.21-.91-10.6-3.6-15.14a11.84,11.84,0,0,0-5.52-5.2,25.29,25.29,0,0,0-8.24-1.79c-5.69-.32-11,2.12-15.94,4.67-2.45,1.26-4.79,2.48-6.49,4.72a83.91,83.91,0,0,0-4.77,7.67,11.38,11.38,0,0,0-1.26,4.25c-.26,1.46-.47,2.93-.65,4.4A79.33,79.33,0,0,0,71.31,171c.3,2.64.57,5.4,2.48,7.42,1.74,1.84,4.35,2.72,6.72,3.42a45.62,45.62,0,0,0,8.74,1.62c6,.57,12.76.54,17.88-3.08a13.35,13.35,0,0,0,4.91-6.1c1.17-3,1.12-6.32,1.58-9.49a1.55,1.55,0,0,0-1.05-1.84,1.52,1.52,0,0,0-1.85,1.05c-.66,4.6-.38,9.59-4.1,13-3.55,3.23-8.58,3.83-13.18,3.73-5-.11-10.39-.71-15-2.76a7.74,7.74,0,0,1-2.53-1.65,6.36,6.36,0,0,1-1.36-3.43,63.63,63.63,0,0,1-.67-7.8,76.87,76.87,0,0,1,1.1-16,10.13,10.13,0,0,1,1.18-3.72l2.19-3.63c1.29-2.15,2.47-4.27,4.67-5.61,4.11-2.51,8.9-4.88,13.67-5.71a19.36,19.36,0,0,1,7.58.37c2.41.55,4.64,1.22,6.25,3.2,3.24,4,4.23,9.53,4.34,14.52.06,2.71.19,5.74-1.18,8.16a32.37,32.37,0,0,0-1.83,3.24,16.72,16.72,0,0,0-1.13,4.07C110.42,165.87,113.31,166.69,113.62,164.78Z"/><path d="M86.78,145c1.31,5.12,6.72,7.79,11.75,6.8,3.12-.62,4.16-4.11,4.38-6.86a26.45,26.45,0,0,0,0-7.11c-.79-4.08-3.58-7.39-6.6-10.08-1.08-1-2.68.63-1.6,1.6,2.4,2.12,4.7,4.61,5.69,7.72a15.81,15.81,0,0,1,.42,6.09,25.09,25.09,0,0,1-.37,3.34,5.61,5.61,0,0,1-.82,2,3.12,3.12,0,0,1-.7.75,2.47,2.47,0,0,1-.52.31c.12-.06.19-.07,0,0a8.5,8.5,0,0,1-4.33-.09,6.75,6.75,0,0,1-5.15-5,1.13,1.13,0,0,0-2.17.6Z"/><path d="M81.18,160c2.77,1.53,5.67,3.2,8.82,3.8a17.12,17.12,0,0,0,8.93-.91,9.73,9.73,0,0,0,5.93-6.84,7,7,0,0,0-.71-4.46c-.74-1.29-2.1-1.93-3.27-2.75s-2.32,1.11-1.14,1.94c.88.62,2.05,1.09,2.54,2.1a4.76,4.76,0,0,1,0,3.91,9,9,0,0,1-2.38,2.93,8.64,8.64,0,0,1-3.75,1.62,13.23,13.23,0,0,1-6.7,0A33.52,33.52,0,0,1,82.32,158c-1.27-.71-2.4,1.24-1.14,1.94Z"/><path d="M80.12,174.06a13.54,13.54,0,0,0,5.75,2.72,19.5,19.5,0,0,0,6.69.95,13.23,13.23,0,0,0,7.94-3.25c2-1.85,3.67-4.64,3.3-7.44a5.32,5.32,0,0,0-1.84-3.6c-1-.81-2.44-1.06-3.62-1.64s-2.44,1.3-1.14,1.94a22.08,22.08,0,0,1,3.34,1.43c1.1.81,1.24,2.6.92,3.81a9.26,9.26,0,0,1-6.24,6A13.41,13.41,0,0,1,88,175c-2-.46-4.73-1-6.29-2.54-1-1-2.64.59-1.59,1.6Z"/><path d="M108.1,142c-2.2,3-4.49,6.26-4.7,10.11-.17,3.16,1.21,6.56,4.2,7.95s7.26.5,9.87-1.54c2.78-2.17,3.72-6.15,3.65-9.5-.14-5.91-1.58-12.05-5.92-16.33-3.57-3.51-8.57-5.5-13.31-6.84a21.75,21.75,0,0,0-19.55,3.51,32.32,32.32,0,0,0-7.51,8.83,34.72,34.72,0,0,0-5,11.39,38.75,38.75,0,0,0-.42,12.11c.39,3.47.73,7,1.23,10.43a16.73,16.73,0,0,0,1,4.25,8.92,8.92,0,0,0,2.71,3.18,20.12,20.12,0,0,0,10.46,4.65A51.55,51.55,0,0,0,98,183.9a21.79,21.79,0,0,0,10.73-4.08,18.11,18.11,0,0,0,6.13-7.77,37,37,0,0,0,1.54-9.17,29,29,0,0,1,.39-3.36c.29-1.42-1.88-2-2.17-.6-1,4.8-.17,10.29-3,14.56a18.25,18.25,0,0,1-7.29,6.43c-3.45,1.66-7.41,1.94-11.17,2.18s-7.65.36-11.21-.79A18,18,0,0,1,77.37,179a11.46,11.46,0,0,1-3.48-3.16c-1.27-2.2-1.26-5.39-1.51-7.85-.33-3.28-.9-6.55-1-9.85a31.68,31.68,0,0,1,1.25-10.52,39.47,39.47,0,0,1,5.22-10c3.58-5.41,8.89-9.83,15.56-10.44,5.19-.46,10.56,1.28,15.16,3.59a17.13,17.13,0,0,1,8.75,9.26,26.91,26.91,0,0,1,1.57,9.58,10.46,10.46,0,0,1-1.55,5.61,6.73,6.73,0,0,1-4.12,2.88,6.14,6.14,0,0,1-5.44-.55,5.92,5.92,0,0,1-2.11-4.25c-.33-3.87,2.22-7.23,4.38-10.18.86-1.17-1.09-2.29-1.94-1.14Z"/><path d="M95.75,142.13c.11.07.11.07,0,0a.35.35,0,0,1-.1-.22c-.08-.32,0,.06-.05.16a1.14,1.14,0,0,0,1.13,1.13,1.15,1.15,0,0,0,1.12-1.13,1.53,1.53,0,0,0-.17-.89,1.18,1.18,0,0,0-1.83-.21,3,3,0,0,0-.66,1.52,8.78,8.78,0,0,0,.65,5.71l1.27-1.65-.48-.18-.18-.07c.19.08,0,0,0,0l-.85-.43-.7-.43-.28-.21c-.23-.16.12.11,0,0l-.2-.16a8.35,8.35,0,0,1-1-1l0-.05h0l0,.05a.44.44,0,0,1-.08-.11c-.06-.07-.11-.15-.16-.22a6.32,6.32,0,0,1-.33-.56s-.15-.33-.07-.13,0-.08,0-.13a4.07,4.07,0,0,0-.13-.5s0,.32,0,.16,0-.06,0-.09v-.19c0-.22-.08.3,0,.07a1,1,0,0,0,.05-.18c0,.19-.12.27-.06.15a.35.35,0,0,0,0-.08c0-.12-.23.22-.06.09s.28-.28.44-.41l0,0a2.2,2.2,0,0,1,.25-.17l.17-.09s.28-.13.11-.06.1,0,.11,0l.15-.05.16,0c.24-.07-.19,0,0,0s.26,0,.39,0a.71.71,0,0,0,.14,0c-.18,0-.2,0,0,0l.31.08.12,0c.2.07,0,0,0,0a1.36,1.36,0,0,0,.27.13c.24.13.45.3.68.44a1.13,1.13,0,0,0,1.14-1.94c-.23-.14-.45-.31-.69-.44a4.49,4.49,0,0,0-1.67-.54,3.74,3.74,0,0,0-2,.35A4.42,4.42,0,0,0,90.71,141a2.8,2.8,0,0,0-.15,2.55,7.32,7.32,0,0,0,1.85,2.71,11.18,11.18,0,0,0,4.11,2.42,1.12,1.12,0,0,0,1.18-.41,1.16,1.16,0,0,0,.09-1.25c0-.08-.09-.17-.12-.25s0,.13,0,0-.11-.31-.16-.47a8.17,8.17,0,0,1-.22-1c0-.18,0,.27,0-.05a1.23,1.23,0,0,1,0-.2c0-.14,0-.29,0-.43a8.23,8.23,0,0,1,0-.86c0-.05,0-.11,0-.17s0-.27,0-.09,0,0,0,0l0-.18a5.45,5.45,0,0,1,.14-.58c0-.08,0-.16.07-.25s0-.05,0,.06a.38.38,0,0,0,.06-.13c0-.07-.12.16-.13.17a1.21,1.21,0,0,1-.74.3l-.56-.16a1.16,1.16,0,0,1-.49-.61s0-.3,0-.22a1.21,1.21,0,0,0,0,.19h2.25a1.88,1.88,0,0,0-1-1.87,1.13,1.13,0,0,0-1.54.4A1.15,1.15,0,0,0,95.75,142.13Z"/></g><g id="sombras"><g class="cls-6"><path class="cls-4" d="M215.64,129.23c-.53,8.38-2,18-5,17-2.06-.66-2.63-14.2-4-20-5.1-21.59-15.43-39.49-29-55-20-22.82-47-35-58-37,.68-6.88,32.85,2.23,39,5,11.87,5.36,26.4,15.21,35,25C215.08,88.64,216.44,116.62,215.64,129.23Z"/></g><g class="cls-7"><path d="M114.25,219.07c40.14,4.85,71.14-17.15,71.14-20.15-63,39-185-11-137-131-7.47-.79-25,51-18.09,73.48,4,13.07,10.71,30.26,19.35,41.16C71.17,209.74,100.64,217.42,114.25,219.07Z"/></g></g></svg>