<svg xmlns="http://www.w3.org/2000/svg" viewBox="0 0 250 250"><defs><style>.cls-1{fill:#f7c402;}.cls-2{fill:#ffda83;}.cls-3,.cls-8{fill:#7dc4ca;}.cls-3{stroke:#7dc4ca;}.cls-3,.cls-6{stroke-miterlimit:10;}.cls-4{fill:#c2e1e3;}.cls-5{fill:#fff;}.cls-6{stroke:#000;}.cls-7{fill:#e66869;}.cls-9{fill:#183e41;}.cls-10{opacity:0.42;}.cls-11{opacity:0.32;}</style></defs><g id="Circulos_amarillos" data-name="Circulos amarillos"><circle class="cls-1" cx="124.33" cy="125.4" r="112.25"/><path d="M235.08,125.4A110.72,110.72,0,0,1,63.59,218a111.51,111.51,0,0,1-24.72-22.17,110.09,110.09,0,0,1-25-61.88A110.94,110.94,0,0,1,78.74,24.43a109.57,109.57,0,0,1,32.72-9,112.15,112.15,0,0,1,35,1.47,110.65,110.65,0,0,1,57.93,32,110.11,110.11,0,0,1,30.72,76.56,1.5,1.5,0,0,0,3,0A113.73,113.73,0,0,0,36.64,53,114.86,114.86,0,0,0,19,82.3a113,113,0,0,0-8.12,34.36,114.82,114.82,0,0,0,2.89,35.77,113.81,113.81,0,0,0,212.38,23.66,112.87,112.87,0,0,0,10.54-33.17,116.76,116.76,0,0,0,1.35-17.52A1.5,1.5,0,0,0,235.08,125.4Z"/><circle class="cls-2" cx="124.33" cy="125.4" r="96.77"/><path d="M219.6,125.4a94.8,94.8,0,1,1-1.11-14.66,95.83,95.83,0,0,1,1.11,14.66,1.5,1.5,0,0,0,3,0,98.18,98.18,0,1,0-1.19,15.28,101.52,101.52,0,0,0,1.19-15.28A1.5,1.5,0,0,0,219.6,125.4Z"/><path d="M235.08,125.4A110.72,110.72,0,0,1,63.59,218a111.51,111.51,0,0,1-24.72-22.17,110.09,110.09,0,0,1-25-61.88A110.94,110.94,0,0,1,78.74,24.43a109.57,109.57,0,0,1,32.72-9,112.15,112.15,0,0,1,35,1.47,110.65,110.65,0,0,1,57.93,32,110.11,110.11,0,0,1,30.72,76.56,1.5,1.5,0,0,0,3,0A113.73,113.73,0,0,0,36.64,53,114.86,114.86,0,0,0,19,82.3a113,113,0,0,0-8.12,34.36,114.82,114.82,0,0,0,2.89,35.77,113.81,113.81,0,0,0,212.38,23.66,112.87,112.87,0,0,0,10.54-33.17,116.76,116.76,0,0,0,1.35-17.52A1.5,1.5,0,0,0,235.08,125.4Z"/></g><g id="Capa_14" data-name="Capa 14"><g id="Capa_15" data-name="Capa 15"><path class="cls-3" d="M178.5,202.5l-106,2c-6.7-2.47-10.77-3.5-15-9V88.5a18.05,18.05,0,0,1,18-18h101a18.05,18.05,0,0,1,18,18v103C189.5,197.5,187.5,199.5,178.5,202.5Z"/><path class="cls-4" d="M72,94c-.82,33,.67,66.87,1.25,99.87.08,4.56-3.57,11-.25,14.13,1.69,1.6,38.67,14,41,14,19,0,16.43.05,40-5,2.91-.62,7.35-1.65,10-3,7.28-3.7,13.51-3,15-11s.75-109.72,0-111S78.42,93.69,73,91"/><path d="M58,194.4V89.82a23.33,23.33,0,0,1,.21-4,16.81,16.81,0,0,1,9.23-12.23C71.12,71.8,75,72,78.94,72h96.31a21.42,21.42,0,0,1,4.59.34A16.8,16.8,0,0,1,191.69,82c1.53,3.56,1.31,7.29,1.31,11V192a1.5,1.5,0,0,0,3,0V98.73c0-3.29,0-6.59,0-9.88a19.78,19.78,0,0,0-15.36-19.4c-3.21-.69-6.65-.45-9.92-.45H74.92A19.81,19.81,0,0,0,55.56,83.87c-.79,3.23-.56,6.67-.56,10V194.4a1.5,1.5,0,0,0,3,0Z"/><path d="M73,206.48V96.2a35.72,35.72,0,0,0,0-4.51,1.21,1.21,0,0,1,0-.19L71.5,93l10.79-.1,25.77-.24,31.16-.29,26.95-.25,8.92-.08a31.27,31.27,0,0,0,4.22,0,1.21,1.21,0,0,1,.19,0L178,90.5V190.84c0,4.61-.19,9.26,0,13.87v.19a1.5,1.5,0,0,0,3,0V104.57c0-4.61.19-9.27,0-13.88V90.5a1.52,1.52,0,0,0-1.5-1.5l-10.79.1-25.77.24-31.16.29-26.95.25c-4.36,0-8.77-.09-13.14.12H71.5A1.52,1.52,0,0,0,70,91.5V192.37c0,4.62-.19,9.29,0,13.91v.2a1.5,1.5,0,0,0,3,0Z"/><rect class="cls-5" x="86.5" y="114.5" width="79" height="55"/><path d="M165.5,168h-79l1.5,1.5v-55L86.5,116h79l-1.5-1.5v55a1.5,1.5,0,0,0,3,0v-55a1.52,1.52,0,0,0-1.5-1.5h-79a1.52,1.52,0,0,0-1.5,1.5v55a1.52,1.52,0,0,0,1.5,1.5h79A1.5,1.5,0,0,0,165.5,168Z"/><rect class="cls-6" x="108.5" y="79.5" width="34" height="3" rx="1.5"/><path d="M219.6,125.4a94.8,94.8,0,1,1-1.11-14.66,95.83,95.83,0,0,1,1.11,14.66,1.5,1.5,0,0,0,3,0,98.18,98.18,0,1,0-1.19,15.28,101.52,101.52,0,0,0,1.19-15.28A1.5,1.5,0,0,0,219.6,125.4Z"/><circle class="cls-7" cx="126.16" cy="140.82" r="13.84"/><path d="M139.25,140.82A13.09,13.09,0,1,1,128.71,128a13.23,13.23,0,0,1,10.54,12.84.75.75,0,0,0,1.5,0,14.59,14.59,0,1,0-11.81,14.32,14.79,14.79,0,0,0,11.81-14.32A.75.75,0,0,0,139.25,140.82Z"/><path class="cls-5" d="M121.85,147.67l0-13.81a.67.67,0,0,1,.93,0L134,140.14a.64.64,0,0,1,0,.92l-11.18,6.57A.64.64,0,0,1,121.85,147.67Z"/><path d="M122.6,147.67l0-12.1v-1.71l-.22.53a9.77,9.77,0,0,0,1.11.7l2.68,1.51,6.12,3.44.89.5c.1.06.3.23.42.24-.25,0-.06-.36,0-.35a1.86,1.86,0,0,0-.19.11c-.24.13-.48.28-.72.42l-5.84,3.43-3.14,1.85-1,.56a2.07,2.07,0,0,1-.25.15c-.12.06-.13.14-.23.07-.78-.56-1.53.74-.75,1.3s1.33.16,2-.2l1.54-.91,5.14-3,4-2.33a1.44,1.44,0,0,0,.78-1.64c-.15-.57-.57-.77-1-1l-9.38-5.28c-.41-.23-.83-.45-1.23-.69-.72-.44-2-.46-2.15.64a28.65,28.65,0,0,0,0,3.21l0,10.59A.75.75,0,0,0,122.6,147.67Z"/><path class="cls-8" d="M103.17,219.05a332.66,332.66,0,0,0,13.47-45.88,4.5,4.5,0,0,0,0-2.62c-.44-1.12-1.66-1.7-2.77-2.17-2.92-1.22-6-2.42-9.17-1.92S76.65,203,73.19,208.32"/><path class="cls-9" d="M104.61,219.45a334.72,334.72,0,0,0,11.43-37c.75-3.08,1.57-6.18,2.14-9.3a5.26,5.26,0,0,0-.36-3.66,6.17,6.17,0,0,0-3.16-2.38c-2.7-1.16-5.59-2.3-8.58-2.25a4.55,4.55,0,0,0-3.06.92,27.07,27.07,0,0,0-3.58,3.83c-1.89,2.27-3.69,4.62-5.48,7-4.32,5.71-8.5,11.53-12.64,17.38-3.18,4.51-6.39,9-9.42,13.62-1.07,1.62,1.53,3.12,2.59,1.52,6.06-9.24,12.57-18.22,19.14-27.1a146.15,146.15,0,0,1,9.92-12.55A18.27,18.27,0,0,1,105,168c-.28.24,0-.12.26-.15-.27,0-.31,0-.09.07.71.09,1.49-.08,2.23,0a18.6,18.6,0,0,1,4.19,1.15c1,.39,2.7.8,3.43,1.67s-.07,3.05-.31,4.15c-.33,1.48-.67,3-1,4.43a334.75,334.75,0,0,1-12,39.34c-.67,1.82,2.22,2.6,2.89.8Z"/><path class="cls-9" d="M112.39,188.56c-2.67-3.4-6.48-5.29-10.5-6.63-3.22-1.06-7.88-2.14-11-.2-1.63,1-.13,3.62,1.51,2.59,1.23-.77,2.89-.64,4.26-.49a21.62,21.62,0,0,1,4.58,1.06c3.51,1.2,6.66,2.83,9,5.79a1.5,1.5,0,0,0,2.12,0,1.53,1.53,0,0,0,0-2.12Z"/><path class="cls-9" d="M106.44,211c-7.31-7.49-18-10.15-28.11-10.92-1.92-.15-1.91,2.86,0,3,9.33.7,19.25,3.14,26,10,1.35,1.39,3.47-.73,2.12-2.12Z"/><path class="cls-5" d="M91.14,149.08a4.39,4.39,0,0,1,1.67-.43,6.07,6.07,0,0,1,4.66,2.19,12.3,12.3,0,0,1,2.39,4.71,24.33,24.33,0,0,1,.79,3.58,42.6,42.6,0,0,0,.72,4.66,34.49,34.49,0,0,0-4.87-3.29c-3.16-1.75-6.32-3.1-7.34-6.56a4.79,4.79,0,0,1-.19-2.19A3.82,3.82,0,0,1,91.14,149.08Z"/><path class="cls-9" d="M91.9,150.38c2.71-1.22,5.1,1.86,6,4a21.93,21.93,0,0,1,1.26,4.72c.28,1.69.37,3.41.78,5.08s2.84,1.23,3-.4c0-.81-.65-1.3-1.22-1.72s-1.13-.81-1.71-1.19c-1.45-1-3-1.81-4.48-2.65a10.84,10.84,0,0,1-4.2-3.28,4.67,4.67,0,0,1-.85-2.65,2.35,2.35,0,0,1,1.49-1.92c1.71-.89.2-3.48-1.52-2.59a5.37,5.37,0,0,0-2.67,6.54,9.66,9.66,0,0,0,4.08,5.2c1.63,1.11,3.45,1.92,5.13,3,.76.48,1.52,1,2.26,1.48l.86.62q.21.15,0,0l.13.11.1.09c.11.11.05,0-.17-.23l-.2-.75h0l2.94-.4c-.49-2-.55-4-1-6a20.16,20.16,0,0,0-1.88-5.49c-1.87-3.46-5.75-5.79-9.6-4.06a1.51,1.51,0,0,0-.54,2.05A1.55,1.55,0,0,0,91.9,150.38Z"/><path class="cls-8" d="M104.68,142a3.22,3.22,0,0,1,1.21.61c3.51,2.65,4.52,5,4.61,8.85.06,2.88-.42,5.84-2.49,8.13-.14.15-.27.3-.41.44-1.1-5.57-5.1-10.57-5.53-15.55a2.46,2.46,0,0,1,.57-1.69,2.1,2.1,0,0,1,1.8-.82Z"/><path class="cls-9" d="M104.28,143.49a8.3,8.3,0,0,1,4.6,6.24c.48,3.32,0,6.75-2.34,9.28l2.51.67a43.31,43.31,0,0,0-3.48-9,28.26,28.26,0,0,1-1.61-4.15,7.82,7.82,0,0,1-.39-2c0-.31.22-1.1.71-1a1.54,1.54,0,0,0,1.84-1.05,1.51,1.51,0,0,0-1-1.85,3.83,3.83,0,0,0-4.46,3.24c-.29,1.79.52,3.92,1.17,5.57,1.45,3.69,3.55,7.14,4.37,11.07a1.51,1.51,0,0,0,2.5.67,11.67,11.67,0,0,0,3-5.8,18.69,18.69,0,0,0,.09-6.33,10.1,10.1,0,0,0-1.93-4.6c-1.16-1.53-2.88-3.28-4.77-3.82A1.51,1.51,0,0,0,104.28,143.49Z"/><path class="cls-8" d="M121.28,144.56c-5.65,4.1-6.14,12.52-8,19.2,2.17-2.51,12.83-9.8,13.55-13.63C127.5,146.5,125.5,141.5,121.28,144.56Z"/><path class="cls-9" d="M120.52,143.27c-6.33,4.7-6.75,13.08-8.69,20.09a1.51,1.51,0,0,0,2.51,1.46,33.31,33.31,0,0,1,4-3.56c1.91-1.58,3.83-3.16,5.63-4.87a16.5,16.5,0,0,0,3.89-4.79,8.43,8.43,0,0,0-.32-6.86,4.62,4.62,0,0,0-2.72-2.46,5.1,5.1,0,0,0-4.33,1c-1.57,1.09-.08,3.69,1.51,2.59a3.87,3.87,0,0,1,1.33-.7,1.23,1.23,0,0,1,.73,0,2.53,2.53,0,0,1,1.08,1.58,6.51,6.51,0,0,1,.24,2.74,2.78,2.78,0,0,1-.66,1.57,22.49,22.49,0,0,1-3.72,4c-1.58,1.44-3.23,2.8-4.87,4.16a33.54,33.54,0,0,0-4,3.49l2.51,1.46c.93-3.37,1.48-6.83,2.47-10.18.89-3,2.23-6.18,4.84-8.12a1.54,1.54,0,0,0,.54-2.05A1.5,1.5,0,0,0,120.52,143.27Z"/><path class="cls-5" d="M138.71,164.21c0-.08-.05-.15-.08-.22a6.11,6.11,0,0,0-5.15-3.8,14.53,14.53,0,0,0-6.08,1.27l-3.3,1.2c-2.08.76-4.43,1.78-5,4.68,6.45-.84,11.45,1.16,18.25,1.09a1.73,1.73,0,0,0,1.14-.73A3.79,3.79,0,0,0,138.71,164.21Z"/><path class="cls-9" d="M140.15,163.81a7.79,7.79,0,0,0-4.55-4.66c-2.39-.92-5-.37-7.36.43a47.15,47.15,0,0,0-6.85,2.61,7.25,7.25,0,0,0-3.79,4.75c-.2.84.43,2,1.45,1.9,4.39-.54,8.67.29,13,.78,1.13.13,2.27.23,3.41.28a5.5,5.5,0,0,0,3.19-.41c1.93-1.2,2.12-3.71,1.48-5.68s-3.48-1.05-2.89.8a2.75,2.75,0,0,1,.11,2c-.32.59-1.47.3-2.06.27-1.82-.08-3.63-.3-5.44-.55a41.74,41.74,0,0,0-10.82-.5l1.44,1.89a4.37,4.37,0,0,1,2.52-3,44.75,44.75,0,0,1,5.32-2c1.78-.64,3.83-1.4,5.74-.91a4.58,4.58,0,0,1,3.19,2.8C137.94,166.39,140.84,165.62,140.15,163.81Z"/></g></g><g id="sombras"><g class="cls-10"><path class="cls-5" d="M215.58,130.65c-.53,8.38-2,18-5,17-2.05-.66-2.63-14.2-4-20-5.09-21.59-15.42-39.49-29-55-20-22.82-47-35-58-37,.68-6.88,32.86,2.23,39,5,11.88,5.35,26.4,15.21,35,25C215,90.05,216.38,118,215.58,130.65Z"/></g><g class="cls-11"><path d="M112.13,220.14C152.26,225,183.26,203,183.26,200c-63,39-185-11-137-131-7.46-.8-25,51-18.09,73.47,4,13.07,10.72,30.26,19.35,41.16C69,210.81,98.51,218.5,112.13,220.14Z"/></g></g></svg>