<svg xmlns="http://www.w3.org/2000/svg" viewBox="0 0 250 250"><defs><style>.cls-1{fill:#f7c402;}.cls-2{fill:#ffda83;}.cls-3{fill:#fff;}.cls-4{fill:#e66869;}.cls-5{fill:#c2e1e3;}.cls-6{fill:#4386c6;}.cls-7{opacity:0.42;}.cls-8{opacity:0.32;}</style></defs><g id="Circulos_amarillos" data-name="Circulos amarillos"><circle class="cls-1" cx="127.36" cy="124.43" r="112.25"/><path d="M238.11,124.43A110.72,110.72,0,0,1,66.62,217.05a112,112,0,0,1-24.73-22.17,110.27,110.27,0,0,1-25-61.89,112,112,0,0,1,2.8-34.8A110.52,110.52,0,0,1,32.63,67,111.22,111.22,0,0,1,81.77,23.46a109.27,109.27,0,0,1,32.72-9,111.86,111.86,0,0,1,35,1.47,110.74,110.74,0,0,1,87.35,91.48,112.09,112.09,0,0,1,1.3,17.07,1.5,1.5,0,0,0,3,0,114.39,114.39,0,0,0-5.53-35.12,113.17,113.17,0,0,0-15.41-30.66,115.26,115.26,0,0,0-23.61-24.5A113.68,113.68,0,0,0,39.67,52a114.86,114.86,0,0,0-17.6,29.35,113.33,113.33,0,0,0-8.13,34.36,114.52,114.52,0,0,0,2.9,35.77,113.71,113.71,0,0,0,97.31,85.95,114.71,114.71,0,0,0,35.94-1.51,113.71,113.71,0,0,0,89.67-94,116.76,116.76,0,0,0,1.35-17.52A1.5,1.5,0,0,0,238.11,124.43Z"/><circle class="cls-2" cx="127.36" cy="124.43" r="96.77"/><path d="M222.63,124.43a94.77,94.77,0,1,1-1.11-14.66,97.19,97.19,0,0,1,1.11,14.66,1.5,1.5,0,0,0,3,0,98.15,98.15,0,1,0-1.19,15.28,101.52,101.52,0,0,0,1.19-15.28A1.5,1.5,0,0,0,222.63,124.43Z"/><path d="M238.11,124.43A110.72,110.72,0,0,1,66.62,217.05a112,112,0,0,1-24.73-22.17,110.27,110.27,0,0,1-25-61.89,112,112,0,0,1,2.8-34.8A110.52,110.52,0,0,1,32.63,67,111.22,111.22,0,0,1,81.77,23.46a109.27,109.27,0,0,1,32.72-9,111.86,111.86,0,0,1,35,1.47,110.74,110.74,0,0,1,87.35,91.48,112.09,112.09,0,0,1,1.3,17.07,1.5,1.5,0,0,0,3,0,114.39,114.39,0,0,0-5.53-35.12,113.17,113.17,0,0,0-15.41-30.66,115.26,115.26,0,0,0-23.61-24.5A113.68,113.68,0,0,0,39.67,52a114.86,114.86,0,0,0-17.6,29.35,113.33,113.33,0,0,0-8.13,34.36,114.52,114.52,0,0,0,2.9,35.77,113.71,113.71,0,0,0,97.31,85.95,114.71,114.71,0,0,0,35.94-1.51,113.71,113.71,0,0,0,89.67-94,116.76,116.76,0,0,0,1.35-17.52A1.5,1.5,0,0,0,238.11,124.43Z"/></g><g id="_1" data-name="1"><g id="_1.1" data-name="1.1"><path d="M168.76,92.69c6-2.23,12.74-2.08,19-1.35A59.49,59.49,0,0,1,196,92.89a14.7,14.7,0,0,1,4.81,1.84c1.58,1.12,3.08-1.48,1.52-2.59a16.69,16.69,0,0,0-5.29-2.08,65,65,0,0,0-9-1.68c-6.59-.8-13.8-.94-20.11,1.41-1.8.67-1,3.57.79,2.9Z"/><path d="M205.51,87.66c-1-.87-2.49-.38-3.65-.1s-2.6.68-3.88,1.07c-1.12.34-2.47.57-2.8,1.89a4.53,4.53,0,0,0,.09,2,13.29,13.29,0,0,0,.56,2,14,14,0,0,0,2,4.12,1.51,1.51,0,0,0,2.12,0,1.55,1.55,0,0,0,0-2.13c.39.51,0,0-.07-.17s-.25-.46-.37-.7l-.33-.73c-.1-.24,0,.08,0,.1s-.07-.17-.09-.22l-.2-.51c-.21-.57-.41-1.16-.58-1.75-.07-.28-.14-.56-.2-.84a1.54,1.54,0,0,0,0-.31c.13.25,0,.35,0,.16s0-.15,0-.22a1.76,1.76,0,0,0,0-.23c0-.17-.11.43,0,.12-.18.51-.17.36-.11.26a6,6,0,0,1-.43.42c.13-.08-.46.16-.17.07l1.12-.35c1.14-.35,2.28-.68,3.43-1,.6-.15,1.2-.3,1.81-.41l.32-.06c.25,0-.38,0-.2,0l.18,0h.09a1.51,1.51,0,0,1-.75-.37,1.54,1.54,0,0,0,2.12,0,1.52,1.52,0,0,0,0-2.12Z"/><path class="cls-3" d="M169.32,73.17C163.12,70.88,136.5,62.5,125.81,62c-16.19-.73-33.67,1-49,6.19a15,15,0,0,1,3.7-5.71c14.73-5.58,30-6.9,45.63-6.15,10,.48,35,8.86,40.87,11.15"/><path d="M169.52,72.44a265.76,265.76,0,0,0-27.93-8.32,93.13,93.13,0,0,0-14.79-2.79,129.8,129.8,0,0,0-23.32.53A121.67,121.67,0,0,0,76.6,67.49l.93.92a13.59,13.59,0,0,1,2.9-4.78,5.19,5.19,0,0,1,2.26-1.13c1-.37,2.07-.71,3.11-1a97.54,97.54,0,0,1,11.92-2.87A124.22,124.22,0,0,1,122.39,57c10.78.28,21.24,3.58,31.46,6.82,4.34,1.38,8.7,2.78,13,4.44.9.35,1.29-1.1.4-1.44a232.39,232.39,0,0,0-28.47-8.91,73.05,73.05,0,0,0-15.18-2.38A129.28,129.28,0,0,0,98.46,57,97,97,0,0,0,84.51,60.3c-1.19.39-2.37.79-3.55,1.23A4.29,4.29,0,0,0,79,63a15.52,15.52,0,0,0-2.93,5,.75.75,0,0,0,.92.92c15.41-5.21,31.94-6.85,48.14-6.19a76.13,76.13,0,0,1,14.36,2.41c5.55,1.33,11.06,2.87,16.53,4.51,4.39,1.31,8.79,2.65,13.1,4.23.9.34,1.29-1.11.39-1.45Z"/><path class="cls-4" d="M85.81,117.3a11.82,11.82,0,0,1-6.4-3.45h0a9.91,9.91,0,0,1-.94-1.1c-5.22-6.1-7.72-9.78-5.87-22a13.95,13.95,0,0,1,3.92-13.87,14.15,14.15,0,0,1-.18-5.88c1.4-7.63,6.74-13,14.38-11.56l.11,0a14,14,0,0,1,15.26-7.91,16.51,16.51,0,0,1,1.81.47A20.81,20.81,0,0,1,124,48.36a20.58,20.58,0,0,1,9.47,4.41,12.27,12.27,0,0,1,10.68-3.21c6.07,1.11,11.38,5.66,11.16,11.65l.54.36a14.06,14.06,0,0,1,14.21,15l0,0a14,14,0,0,1,7.83,21.86,13.91,13.91,0,0,1,1,8.28c-1.39,7.64-10.11,15.53-17.75,14.13a13.86,13.86,0,0,1-5.49-2.3c-2.64-.81-5.5-1.89-8.58-3.08a9.15,9.15,0,0,1,.1,3.68c-1,5.52-6.46,5.8-14.7,4.29-6-1.1-13.17-5.12-21.47-6.79-8.87,3-13.65,13-21.62,11.51a6.59,6.59,0,0,1-.82-.21c-6.06-1.93,1.85-6.83,5.37-12.11a11.75,11.75,0,0,1-5.34,1.61A11.24,11.24,0,0,1,85.81,117.3Z"/><path d="M86.21,115.85a10.86,10.86,0,0,1-5.74-3.06l.38,1.46c.21-1.14-.76-1.87-1.42-2.67s-1.17-1.38-1.73-2.08a23.25,23.25,0,0,1-2.63-4c-1.64-3.31-1.74-7.07-1.44-10.68a39,39,0,0,0,.47-4,10.87,10.87,0,0,0-.34-1.68,13.55,13.55,0,0,1-.15-2.47,12.47,12.47,0,0,1,2.69-7.28c.75-.94,1.8-1.52,1.67-2.84A18.73,18.73,0,0,1,77.71,72a15.86,15.86,0,0,1,2.12-6.16c2.17-3.59,6.36-5.9,10.6-4.86a1.51,1.51,0,0,0,1.69-.69,12.55,12.55,0,0,1,12.49-7.35c1,.08,1.92.48,2.89.61s1.66-.53,2.5-1.06a19.46,19.46,0,0,1,22.39,1.36,1.56,1.56,0,0,0,2.13,0,11.3,11.3,0,0,1,11.94-2.07c3.24,1.2,6.25,3.74,7.11,7.19.22.86,0,1.84.28,2.65.35,1.16,1.62,1.44,2.65,1.48a12.48,12.48,0,0,1,5.86,1.7,12.71,12.71,0,0,1,6,8.56c.31,1.61-.46,4.11,1.47,4.75a13.76,13.76,0,0,1,4.95,2.63,12.51,12.51,0,0,1,2.5,16c-.64,1-1.09,1.52-.6,2.76a12.65,12.65,0,0,1,.9,3.67,14.74,14.74,0,0,1-4.18,11c-2.75,3-6.71,5.62-11,5.41a10.66,10.66,0,0,1-3.42-.8c-1.18-.48-2.18-1.31-3.37-1.72-2.75-.93-5.47-1.91-8.18-3-1.15-.45-2,.84-1.84,1.84.43,2.2.16,5-2,6.11-1.94,1-4.43.82-6.52.62-6.38-.59-12-3.15-18-5.23-1.51-.53-3-1-4.59-1.44-.87-.23-1.74-.46-2.62-.63a3.88,3.88,0,0,0-2.52.4,29.05,29.05,0,0,0-6.9,4.31c-3.41,2.73-7.34,7.22-12.16,6.76a5,5,0,0,1-2-.56,1.26,1.26,0,0,1-.4-.28c.12.13-.05-.22,0,0-.09-.6.81-1.62,1.23-2.13,2-2.45,4.37-4.55,6.15-7.18.88-1.28-.81-2.75-2-2a10.54,10.54,0,0,1-7,1.29c-1.89-.3-2.7,2.59-.8,2.9a13.89,13.89,0,0,0,9.28-1.6l-2-2.05c-1.72,2.52-4.06,4.52-6,6.9-1.35,1.69-2.79,4.16-.94,6.07s5.24,2,7.66,1.45a18.78,18.78,0,0,0,7-4,81.45,81.45,0,0,1,7.06-5.5c1-.63,2.67-1.8,3.78-1.78a12.79,12.79,0,0,1,2.82.7c1.06.3,2.1.63,3.14,1,3.53,1.17,7,2.63,10.48,3.8a41.66,41.66,0,0,0,9.71,1.91c2.81.23,6.06.19,8.44-1.54,2.84-2.06,3.3-5.79,2.66-9l-1.84,1.84c1.9.73,3.8,1.46,5.72,2.13.8.28,1.67.48,2.45.83s1.71,1,2.62,1.4a13.44,13.44,0,0,0,9.3.66,20.77,20.77,0,0,0,12.89-12.4,15.74,15.74,0,0,0-.48-11.85v1.51a15.57,15.57,0,0,0,1.73-14.94,15.75,15.75,0,0,0-10.45-9.13l.89.69c.3.43.21.34.21-.16,0-.23,0-.46,0-.7,0-.53-.09-1.06-.16-1.59a15,15,0,0,0-.72-3,16.07,16.07,0,0,0-3.24-5.36,15,15,0,0,0-4.94-3.58,15.6,15.6,0,0,0-3-1c-1-.22-2.73-.08-3.43-.55l.74,1.3c.1-5.31-3.51-9.68-8.2-11.8-5.51-2.48-11.68-1.87-16.2,2.3h2.13a22.55,22.55,0,0,0-27.37-.92l1.15-.15a15.7,15.7,0,0,0-18.77,8.12l1.7-.69c-11-2.73-18.34,9.68-16.15,19.26l.38-1.46a15.66,15.66,0,0,0-4.85,11.45c0,1.18.38,2.3.44,3.45a20.94,20.94,0,0,1-.33,3,33.36,33.36,0,0,0-.17,5.65c.39,6.16,3.66,11.07,7.79,15.46L78,113.45c-.28,1.54,1.65,2.69,2.77,3.42a13.43,13.43,0,0,0,4.68,1.88C87.3,119.13,88.1,116.23,86.21,115.85Z"/><path class="cls-5" d="M168.28,70.58c-9.45,3-62.76-4.33-76.63-10.84,0-3.25,3.55-6.81,7.64-7.26,13.77,5.34,52.84,12.24,61.3,9.36"/><path d="M168,69.5c-3,.93-6.55.7-9.73.62-5.39-.15-10.77-.62-16.12-1.2A307.81,307.81,0,0,1,106.05,63c-4.64-1.08-9.48-2.19-13.83-4.22l.56,1C92.9,56.86,96,54,98.85,53.68a7.65,7.65,0,0,1,2.61.77c.94.32,1.9.62,2.85.9,4.71,1.4,9.5,2.53,14.3,3.55a213.55,213.55,0,0,0,31.21,4.6c3.55.21,7.63.56,11.07-.58,1.37-.45.78-2.62-.6-2.17-3,1-6.59.7-9.72.54-5.15-.27-10.27-.9-15.37-1.67a211,211,0,0,1-31.43-6.79c-1-.32-2.07-.66-3.09-1a4.42,4.42,0,0,0-1.57-.42,7.76,7.76,0,0,0-2.62.69c-3.1,1.29-5.82,4.18-6,7.67a1.1,1.1,0,0,0,.55,1,66.69,66.69,0,0,0,12.27,3.93c5.71,1.41,11.5,2.53,17.29,3.52a281.8,281.8,0,0,0,36.05,4.15c3.82.16,8.18.51,11.89-.64,1.38-.43.79-2.6-.59-2.17Z"/><path d="M86.21,115.85a10.86,10.86,0,0,1-5.74-3.06l.38,1.46c.21-1.14-.76-1.87-1.42-2.67s-1.17-1.38-1.73-2.08a23.25,23.25,0,0,1-2.63-4c-1.64-3.31-1.74-7.07-1.44-10.68a39,39,0,0,0,.47-4,10.87,10.87,0,0,0-.34-1.68,13.55,13.55,0,0,1-.15-2.47,12.47,12.47,0,0,1,2.69-7.28c.75-.94,1.8-1.52,1.67-2.84A18.73,18.73,0,0,1,77.71,72a15.86,15.86,0,0,1,2.12-6.16c2.17-3.59,6.36-5.9,10.6-4.86a1.51,1.51,0,0,0,1.69-.69,12.55,12.55,0,0,1,12.49-7.35c1,.08,1.92.48,2.89.61s1.66-.53,2.5-1.06a19.46,19.46,0,0,1,22.39,1.36,1.56,1.56,0,0,0,2.13,0,11.3,11.3,0,0,1,11.94-2.07c3.24,1.2,6.25,3.74,7.11,7.19.22.86,0,1.84.28,2.65.35,1.16,1.62,1.44,2.65,1.48a12.48,12.48,0,0,1,5.86,1.7,12.71,12.71,0,0,1,6,8.56c.31,1.61-.46,4.11,1.47,4.75a13.76,13.76,0,0,1,4.95,2.63,12.51,12.51,0,0,1,2.5,16c-.64,1-1.09,1.52-.6,2.76a12.65,12.65,0,0,1,.9,3.67,14.74,14.74,0,0,1-4.18,11c-2.75,3-6.71,5.62-11,5.41a10.66,10.66,0,0,1-3.42-.8c-1.18-.48-2.18-1.31-3.37-1.72-2.75-.93-5.47-1.91-8.18-3-1.15-.45-2,.84-1.84,1.84.43,2.2.16,5-2,6.11-1.94,1-4.43.82-6.52.62-6.38-.59-12-3.15-18-5.23-1.51-.53-3-1-4.59-1.44-.87-.23-1.74-.46-2.62-.63a3.88,3.88,0,0,0-2.52.4,29.05,29.05,0,0,0-6.9,4.31c-3.41,2.73-7.34,7.22-12.16,6.76a5,5,0,0,1-2-.56,1.26,1.26,0,0,1-.4-.28c.12.13-.05-.22,0,0-.09-.6.81-1.62,1.23-2.13,2-2.45,4.37-4.55,6.15-7.18.88-1.28-.81-2.75-2-2a10.54,10.54,0,0,1-7,1.29c-1.89-.3-2.7,2.59-.8,2.9a13.89,13.89,0,0,0,9.28-1.6l-2-2.05c-1.72,2.52-4.06,4.52-6,6.9-1.35,1.69-2.79,4.16-.94,6.07s5.24,2,7.66,1.45a18.78,18.78,0,0,0,7-4,81.45,81.45,0,0,1,7.06-5.5c1-.63,2.67-1.8,3.78-1.78a12.79,12.79,0,0,1,2.82.7c1.06.3,2.1.63,3.14,1,3.53,1.17,7,2.63,10.48,3.8a41.66,41.66,0,0,0,9.71,1.91c2.81.23,6.06.19,8.44-1.54,2.84-2.06,3.3-5.79,2.66-9l-1.84,1.84c1.9.73,3.8,1.46,5.72,2.13.8.28,1.67.48,2.45.83s1.71,1,2.62,1.4a13.44,13.44,0,0,0,9.3.66,20.77,20.77,0,0,0,12.89-12.4,15.74,15.74,0,0,0-.48-11.85v1.51a15.57,15.57,0,0,0,1.73-14.94,15.75,15.75,0,0,0-10.45-9.13l.89.69c.3.43.21.34.21-.16,0-.23,0-.46,0-.7,0-.53-.09-1.06-.16-1.59a15,15,0,0,0-.72-3,16.07,16.07,0,0,0-3.24-5.36,15,15,0,0,0-4.94-3.58,15.6,15.6,0,0,0-3-1c-1-.22-2.73-.08-3.43-.55l.74,1.3c.1-5.31-3.51-9.68-8.2-11.8-5.51-2.48-11.68-1.87-16.2,2.3h2.13a22.55,22.55,0,0,0-27.37-.92l1.15-.15a15.7,15.7,0,0,0-18.77,8.12l1.7-.69c-11-2.73-18.34,9.68-16.15,19.26l.38-1.46a15.66,15.66,0,0,0-4.85,11.45c0,1.18.38,2.3.44,3.45a20.94,20.94,0,0,1-.33,3,33.36,33.36,0,0,0-.17,5.65c.39,6.16,3.66,11.07,7.79,15.46L78,113.45c-.28,1.54,1.65,2.69,2.77,3.42a13.43,13.43,0,0,0,4.68,1.88C87.3,119.13,88.1,116.23,86.21,115.85Z"/><circle class="cls-3" cx="139.32" cy="84.49" r="5.77"/><path d="M143.91,85.23a4.74,4.74,0,0,1-3.83,3.85,4.65,4.65,0,1,1,3.83-3.85,1.17,1.17,0,0,0,.78,1.39,1.15,1.15,0,0,0,1.39-.79,6.89,6.89,0,0,0-11.2-6.61,6.89,6.89,0,1,0,11.2,6.61,1.15,1.15,0,0,0-.79-1.38A1.12,1.12,0,0,0,143.91,85.23Z"/><circle class="cls-3" cx="113.47" cy="79.76" r="5.77"/><path d="M118.07,80.5a4.73,4.73,0,0,1-3.83,3.85,4.66,4.66,0,0,1-4.32-7.59,4.65,4.65,0,0,1,8.15,3.74,1.16,1.16,0,0,0,.78,1.39,1.15,1.15,0,0,0,1.39-.79A6.89,6.89,0,0,0,109,74.49,6.91,6.91,0,0,0,107,82.08a6.9,6.9,0,0,0,13.26-1,1.16,1.16,0,0,0-.79-1.38A1.13,1.13,0,0,0,118.07,80.5Z"/><ellipse class="cls-5" cx="124.25" cy="102.42" rx="7.88" ry="5.77" transform="translate(-10.66 190.33) rotate(-72.59)"/><path d="M128.56,104.19c-.77,2.12-2.48,4.47-4.89,4.8s-3.76-1.73-4.16-3.77a9,9,0,0,1,2.15-7.49c1.39-1.52,3.69-2.65,5.57-1.26,2.33,1.71,2.15,5.31,1.33,7.72-.47,1.38,1.71,2,2.17.6,1.06-3.12,1-7.21-1.58-9.64s-5.81-1.81-8.21.16a11.16,11.16,0,0,0-3.75,9.48c.33,3.12,2.22,6.19,5.61,6.46,3.85.31,6.75-3.2,7.93-6.46C131.22,103.43,129.05,102.84,128.56,104.19Z"/><path d="M115.06,120.14c3.3,4.35,3.62,10.23,3.32,15.5a45,45,0,0,1-.81,6.53c-.14.73-.29,1.46-.47,2.19-.06.22-.13.44-.18.66-.11.48-.11.09.09-.17l.81-.81h0l2.73.35h0l.58,1,.08.56a2.25,2.25,0,0,0-4.5,0,1.93,1.93,0,0,0-.08.39l.2-.18c.65.17.69.1.12-.22-.64-.7-1.61-1.26-2.33-1.91a46,46,0,0,1-3.54-3.58,76.15,76.15,0,0,0-7.17-7.53c-.7-.59-1.45-1.12-2.11-1.76a3.54,3.54,0,0,0-2.43-1.26,3.74,3.74,0,0,0-3.14,1.79A16.77,16.77,0,0,0,92.75,141a2.27,2.27,0,0,0,2.85,2.17c1.72-.53,3.69-1.18,4.57-2.89.79-1.53.63-3.19,1-4.65.66-2.82-3.68-4-4.34-1.2a22.59,22.59,0,0,0-.43,2.57c0,.29-.06.57-.1.86.08-.58,0,.15-.06.26-.08.55.11-.07-.06.14.15-.18.26-.25.07-.14a7.42,7.42,0,0,1-1.82.71L97.25,141a11.46,11.46,0,0,1,1.33-4.67,16.5,16.5,0,0,1,1.07-1.76c.09-.14.35-.19.47-.56-.28.89-2.51-.56-1.27.58.32.29.67.54,1,.81.78.62,1.52,1.27,2.24,1.95,1.24,1.16,2.39,2.41,3.51,3.69a59.67,59.67,0,0,0,7.3,7.44c1.63,1.3,3.18,2.65,5.4,1.93,1.94-.63,2.78-2.55,2.88-4.46h-4.5a2.23,2.23,0,0,0,.66,1.63,2.35,2.35,0,0,0,2.73.35c1.26-.73,1.46-2.72,1.72-4a57.6,57.6,0,0,0,1-7.85c.4-6.09-.08-13.16-3.91-18.21a2.32,2.32,0,0,0-3.08-.8,2.26,2.26,0,0,0-.8,3.08Z"/><path class="cls-5" d="M111,167c-.31,0,.62-15.9.65-18.75,1.56-.54,68.65-4.16,66.35-2.25-.25.2.36,14.05,1,14C182.14,159.74,119,167,111,167Z"/><path class="cls-6" d="M111.35,149.49c.51,2.8-.86,13.71-.35,16.51.08.43,10.3.52,11,0s1.35-17.64,1-18c-.5-.52-9.06-.42-11,0"/><path class="cls-6" d="M134.29,147.16c.68,3.28.2,17.2.73,17.44a68.83,68.83,0,0,0,8-1.11c.25-.22.54-6.09.45-7.69-.12-1.89-.39-9.18-.6-9.32a73.1,73.1,0,0,0-7.59.7"/><path class="cls-6" d="M153.09,148.7c-.13,3.71-.1,13.51,0,13.69.38.54,4.67-.32,4.85-.51s1.05-15.62.76-15.9a27.46,27.46,0,0,0-6.11,1"/><path class="cls-6" d="M169.38,147.06a101.15,101.15,0,0,0,.53,13.78c.18.23,9.09-1.56,9.09-1.84,0-2.58-1.48-13.06-1.56-13.21a39.05,39.05,0,0,0-7.52.56"/><path d="M113.59,167.08c.61,4.38.34,9.29.27,13.8-.08,5.36-.25,10.71-.45,16.05,0,.93-.07,1.85-.11,2.77,0,.62,0,1.68-.53,2.05-.84.54-2.37-.78-3.1-1.14-1.29-.64-2.43,1.3-1.13,1.94,1.61.8,3.36,2.23,5.23,1.26,1.54-.79,1.71-2.57,1.78-4.11.09-2.18.17-4.35.24-6.53.22-6.33.4-12.67.35-19a59.77,59.77,0,0,0-.38-7.68c-.2-1.43-2.37-.82-2.17.6Z"/><path d="M176.09,161.56c.69,4.64.35,9.53.16,14.19s-.49,9.57-1,14.33c0,.39-.08.79-.13,1.19a6,6,0,0,1-.08.64c0,.1,0,.34-.09.43.39-.5-.72-.62-1.06-.79-.51-.24-1-.55-1.5-.79-1.3-.6-2.45,1.34-1.13,2,1.56.72,3.58,2.22,5.31,1a1.68,1.68,0,0,0,.65-1.29c.29-1.78.41-3.6.55-5.4.48-5.94.82-11.91.85-17.86a53,53,0,0,0-.4-8.16c-.22-1.42-2.39-.82-2.17.6Z"/><path d="M178.92,144.73c-.46-.59-1.66-.5-2.31-.52-1.43-.06-2.86-.05-4.29,0-4.84,0-9.68.19-14.52.35q-17.6.57-35.2,1.45c-3.77.19-7.55.34-11.31.63a1.17,1.17,0,0,0-1.13,1.12,127.82,127.82,0,0,0,0,18.77,1.15,1.15,0,0,0,1.12,1.13,146.21,146.21,0,0,0,16.34-.7c7.18-.57,14.35-1.31,21.51-2.12q9.78-1.11,19.54-2.46c2.26-.32,4.52-.65,6.78-1a24.34,24.34,0,0,0,3.5-.69c.85-.28,1.08-.82,1.18-1.68a29.13,29.13,0,0,0,0-5q-.15-2.85-.47-5.7a10.93,10.93,0,0,0-.54-3.27c-.58-1.33-2.52-.18-1.94,1.13-.2-.45,0,.35,0,.55.08.53.13,1.06.19,1.59.18,1.66.33,3.32.43,5a43.2,43.2,0,0,1,.11,4.69,6.62,6.62,0,0,0-.06.88c0,.05,0,.14,0,.18l0,.14.49-.63s.27-.07-.07,0c-3.22.75-6.51,1.17-9.78,1.63-13,1.84-26.14,3.34-39.25,4.43a156.25,156.25,0,0,1-18,.83l1.13,1.12a127.82,127.82,0,0,1,0-18.77l-1.12,1.13c8.44-.65,16.92-.91,25.38-1.27,11.11-.48,22.23-1,33.36-1.13,1.86,0,3.73-.06,5.59,0,.57,0,1.14,0,1.71.07l.26,0c.18,0,0,0,0,0l.16,0a1.64,1.64,0,0,1-.39-.23C178.22,147.46,179.8,145.86,178.92,144.73Z"/><path d="M121.87,148.45c.14,3.48-.07,7-.21,10.46-.07,1.62-.15,3.23-.22,4.85,0,.77-.29,1.9.26,2.54,1,1.09,2.54-.51,1.6-1.6.71.83.26,1,.32.58a2.47,2.47,0,0,0,0-.47c0-.53,0-1.06.07-1.58.08-1.61.15-3.21.22-4.81.14-3.31.33-6.65.19-10-.06-1.44-2.31-1.45-2.25,0Z"/><path d="M133,147.58c.29,2.78.54,5.56.68,8.35a36.88,36.88,0,0,1-.23,8.27c-.26,1.42,1.91,2,2.16.6a38.15,38.15,0,0,0,.33-8.61c-.13-2.88-.39-5.75-.69-8.61-.15-1.43-2.4-1.44-2.25,0Z"/><path d="M142.21,147.87c.11,2.43.29,4.86.38,7.3a39.53,39.53,0,0,1-.21,8.43c-.27,1.42,1.9,2,2.17.6a41.28,41.28,0,0,0,.3-8.82c-.09-2.51-.28-5-.39-7.51-.07-1.44-2.32-1.45-2.25,0Z"/><path d="M151.15,146.57c-.09,5.16-.05,10.31.15,15.47.06,1.44,2.31,1.45,2.25,0-.2-5.16-.24-10.31-.15-15.47a1.13,1.13,0,0,0-2.25,0Z"/><path d="M158.16,145.86a54.5,54.5,0,0,1,.17,8.57c-.09,2.61-.23,5.24-.4,7.85-.09,1.44,2.16,1.44,2.25,0,.17-2.61.31-5.24.4-7.85a54.5,54.5,0,0,0-.17-8.57,1.17,1.17,0,0,0-1.13-1.13,1.13,1.13,0,0,0-1.12,1.13Z"/><path d="M168.12,146.11c.17,4.79.08,9.59.26,14.39.05,1.44,2.3,1.45,2.24,0-.17-4.8-.08-9.6-.25-14.39-.05-1.45-2.3-1.45-2.25,0Z"/><path d="M147.86,121.94a40.22,40.22,0,0,1,10.77,7.32,13.34,13.34,0,0,1,2.44,3.18c.14.25.26.5.38.76-.18-.4.08.23.12.37a11.48,11.48,0,0,1,.44,2.25c.49,4-.09,7.92-.35,11.92a31.27,31.27,0,0,0,.16,6c.23,1.93.34,3.89,2.51,4.48a8.7,8.7,0,0,0,9.61-4.12,2.29,2.29,0,0,0-.35-2.73,7.65,7.65,0,0,0-5.52-1.57,6.88,6.88,0,0,0-5.92,5.21c-.84,2.78,3.5,4,4.34,1.2a3.75,3.75,0,0,1,.81-1.49,2,2,0,0,1,1.21-.46,6.13,6.13,0,0,1,.86,0c-.42,0,.34.08.49.12s.84.35.36.1c.2.1.78.52.19,0l-.35-2.73a3.84,3.84,0,0,1-2.81,2,5.55,5.55,0,0,1-1.32.08c-.59,0,.16,0-.19,0a1.42,1.42,0,0,0-.28-.07q-.26-.09.06,0a.87.87,0,0,1,.6.65c.76,1,.4.44.31-.11-.05-.26-.09-.51-.12-.78-.06-.44-.11-.88-.14-1.33a29.17,29.17,0,0,1-.08-3.1c0-1.69.22-3.37.39-5.06a33.26,33.26,0,0,0-.44-11.39,15.59,15.59,0,0,0-4.23-6.73,43.78,43.78,0,0,0-11.67-8c-2.58-1.3-4.86,2.58-2.28,3.88Z"/><path d="M80.94,92.2c-6.82.44-13.37,3.48-19.15,7a62.85,62.85,0,0,0-7.5,5.23,16.63,16.63,0,0,0-4,4.15,1.5,1.5,0,0,0,2.59,1.52,16.33,16.33,0,0,1,3.48-3.47,56.86,56.86,0,0,1,7-4.84c5.31-3.19,11.37-6.13,17.64-6.54,1.92-.13,1.94-3.13,0-3Z"/><path d="M48.28,106.92a1.8,1.8,0,0,1-.43.44c.23-.18-.33.11-.17.06l.51-.16c.5-.13,1-.23,1.51-.32l1.86-.31.93-.13c.08,0,.52-.07.24,0l.31,0,1.32-.15c.12,0,.53,0,.17,0a1.07,1.07,0,0,1-.66-.31c.2.18-.26-.39-.06-.06l0,.09c.13.2-.13-.38-.06-.14l.09.28a6.82,6.82,0,0,1,.19.78c0,.14.05.29.07.43a1.13,1.13,0,0,0,0,.18c-.1-.39,0-.2,0-.08,0,.33.07.66.1,1,0,.67.07,1.35.06,2a7.87,7.87,0,0,1,0,.84c0,.06,0,.13,0,.19s-.12.26,0-.16a2.33,2.33,0,0,0,0,.28,1.5,1.5,0,1,0,2.89.79,12.6,12.6,0,0,0,.14-3.73,10.71,10.71,0,0,0-.83-4.2,2,2,0,0,0-1.78-1.19,11.63,11.63,0,0,0-1.17.13c-1.41.17-2.83.37-4.24.61-.65.12-1.29.23-1.93.41a2.4,2.4,0,0,0-1.64,1,1.5,1.5,0,1,0,2.59,1.52Z"/><path d="M85,141.77a50.61,50.61,0,0,0-10.8,30.56,1.13,1.13,0,0,0,2.25,0,48.07,48.07,0,0,1,10.14-29c.88-1.13-.7-2.73-1.59-1.59Z"/><path d="M73.51,148A33.71,33.71,0,0,0,69,176.6a1.12,1.12,0,0,0,2.17-.59,31.54,31.54,0,0,1,4.31-26.91c.83-1.19-1.12-2.32-1.94-1.14Z"/><path class="cls-5" d="M174.41,66.28a23.88,23.88,0,0,0,3.31-7.52,2.67,2.67,0,0,0,.07-1.37,2,2,0,0,0-1.3-1.19A3.92,3.92,0,0,0,172.08,58a6.34,6.34,0,0,0-.45,5,17.89,17.89,0,0,0,2.31,4.6"/><path d="M175.06,66.66a25.18,25.18,0,0,0,2.75-5.58c.61-1.76,1.55-4.23-.56-5.36a4.37,4.37,0,0,0-4.8.75,5.87,5.87,0,0,0-1.85,5A14.57,14.57,0,0,0,173.29,68c.52.81,1.82.06,1.3-.76-1.13-1.78-2.36-3.7-2.5-5.86-.12-1.82.57-3.78,2.42-4.44a2.33,2.33,0,0,1,2.31.28c.39.37.28.85.17,1.32s-.27,1-.43,1.55a23.47,23.47,0,0,1-2.8,5.79c-.53.81.77,1.56,1.3.76Z"/><path class="cls-5" d="M177.07,70.39c.86-2,1.86-4.06,3.79-5a6.68,6.68,0,0,1,1.75-.53,5.62,5.62,0,0,1,2.88,0A2.37,2.37,0,0,1,187.2,67a2.73,2.73,0,0,1-.87,1.77c-2,2.1-5.35,2.16-8.28,2.07"/><path d="M177.72,70.77a13.11,13.11,0,0,1,2.05-3.6,5.9,5.9,0,0,1,4.2-1.71,2.62,2.62,0,0,1,2,.6,1.25,1.25,0,0,1,.2,1.64,5.18,5.18,0,0,1-3.37,2.08,18.78,18.78,0,0,1-4.79.3c-1,0-1,1.47,0,1.5a19.77,19.77,0,0,0,5.26-.37,6.55,6.55,0,0,0,4.24-2.82,3,3,0,0,0-2-4.25,6.62,6.62,0,0,0-3.19,0,6.79,6.79,0,0,0-2.68,1.06A11.08,11.08,0,0,0,176.42,70a.78.78,0,0,0,.27,1,.76.76,0,0,0,1-.27Z"/><path d="M156.89,86a11.86,11.86,0,0,0-4.72-10.14.75.75,0,1,0-.76,1.29,10.34,10.34,0,0,1,4,8.85c-.06,1,1.44,1,1.5,0Z"/><path d="M106.28,66.92a13.48,13.48,0,0,0-5,2.85,13.56,13.56,0,0,0-2.86,5,.75.75,0,1,0,1.45.4A17,17,0,0,1,101,72.63a7.31,7.31,0,0,1,1.33-1.8,7.49,7.49,0,0,1,1.81-1.33,17.52,17.52,0,0,1,2.55-1.13.78.78,0,0,0,.53-.92.76.76,0,0,0-.93-.53Z"/><path d="M115.5,83.5c-1-3-2.6-3-4-3-1.09,0-1.94,1.25-2.23,2.3a21.6,21.6,0,0,0,3.58,1.31c-.59-.67,2.24,1.06,1.65.39"/><path d="M116.22,83.3a4.85,4.85,0,0,0-2.73-3.3,5.11,5.11,0,0,0-1.5-.24,2.79,2.79,0,0,0-2,.52,4.54,4.54,0,0,0-1.49,2.32.76.76,0,0,0,.35.85,22.93,22.93,0,0,0,3.76,1.39.76.76,0,0,0,.73-1.26c-.08-.08.1.14.06.08a.74.74,0,0,1,0,.68l-.27.27a.81.81,0,0,1-.42.08c-.15,0-.08,0,0,0l.12,0c.2.07-.12,0,0,0l.18.08.78.36a1.46,1.46,0,0,0,1,.2.79.79,0,0,0,.57-.76A1,1,0,0,0,115,84,.75.75,0,0,0,114,84,.76.76,0,0,0,114,85l-.06-.08a.72.72,0,0,1,0-.68l.26-.27a.83.83,0,0,1,.42-.08c.16,0,.08,0,0,0l-.11,0c-.2-.06.12.06,0,0l-.17-.07c-.26-.13-.52-.26-.79-.37a1.41,1.41,0,0,0-1-.19A.78.78,0,0,0,112,84a1,1,0,0,0,.3.65l.73-1.25a20.75,20.75,0,0,1-3.41-1.24L110,83a2.75,2.75,0,0,1,1.14-1.66.81.81,0,0,1,.29-.09c.13,0,.26,0,.39,0l.37,0h.21s.24,0,.11,0l.11,0,.19,0,.37.12s0,0,0,0l.1,0,.18.1.17.12c.12.07-.06-.07.08.06l.33.34.07.09s0,0,0,0l.16.24a6.7,6.7,0,0,1,.55,1.22.75.75,0,1,0,1.44-.4Z"/><path d="M142.11,87.61a4.45,4.45,0,0,0-3.42-3,3.08,3.08,0,0,0-3.42,2.55,1.64,1.64,0,0,0,.31,1.2,2.14,2.14,0,0,0,.7.52,5.06,5.06,0,0,0,2.58.84,2,2,0,0,0,2-1.54,2.14,2.14,0,0,0-.29-1.25,2.47,2.47,0,0,0-1.68-1.33,1.57,1.57,0,0,0-1.76,1,1.16,1.16,0,0,0,1.2,1.42c.73-.15.91-1.38.22-1.64"/><path d="M142.83,87.41c-.8-2.19-3-4-5.43-3.44a3.89,3.89,0,0,0-2.54,2,2.58,2.58,0,0,0,.76,3.43,5.38,5.38,0,0,0,3.82,1,2.6,2.6,0,0,0,2.17-2.58,3.4,3.4,0,0,0-2.32-2.91,2.34,2.34,0,0,0-2.88,1.49c-.37,1.35,1.1,2.94,2.46,2.21,1-.54,1.25-2.37.06-2.88a.78.78,0,0,0-1,.27.77.77,0,0,0,.27,1l.06,0c.08,0,.08,0,0,0l0-.06c0,.08.05.07,0,0s.06.24,0,.06a.29.29,0,0,1,0,.13c.05-.17,0,.06,0,.07.07-.15-.05.06-.05.06l0,0c-.06.06-.06.06,0,0l0,0h0c.13,0-.09-.06-.07,0a.6.6,0,0,1-.2-.27.41.41,0,0,1,.15-.45,1,1,0,0,1,.61-.22,1.33,1.33,0,0,1,.79.33c.46.39.93,1.2.57,1.75a1.64,1.64,0,0,1-1.64.53,4.36,4.36,0,0,1-1.16-.42,3.08,3.08,0,0,1-1-.62c-.38-.47-.07-1.22.21-1.59a2.53,2.53,0,0,1,1.61-.94c1.47-.26,2.9,1.05,3.4,2.43a.78.78,0,0,0,.93.52.76.76,0,0,0,.52-.92Z"/></g></g><g id="sombras"><g class="cls-7"><path class="cls-3" d="M218.61,129.68c-.53,8.38-2,18-5,17-2.05-.66-2.63-14.21-4-20-5.1-21.59-15.43-39.49-29-55-20-22.83-47-35-58-37,.68-6.89,32.85,2.23,39,5,11.88,5.35,26.4,15.21,35,25C218.05,89.08,219.41,117.07,218.61,129.68Z"/></g><g class="cls-8"><path d="M115.87,220.15C156,225,187,203,187,200,124,239,2,189,50,69c-7.46-.79-25,51-18.09,73.47,4,13.08,10.72,30.26,19.35,41.16C72.78,210.81,102.25,218.5,115.87,220.15Z"/></g></g></svg>