<?xml version="1.0" encoding="utf-8"?>
<!-- Generator: Adobe Illustrator 24.2.0, SVG Export Plug-In . SVG Version: 6.00 Build 0)  -->
<svg version="1.1" id="Layer_1" xmlns="http://www.w3.org/2000/svg" xmlns:xlink="http://www.w3.org/1999/xlink" x="0px" y="0px"
	 viewBox="0 0 112 102" style="enable-background:new 0 0 112 102;" xml:space="preserve">
<style type="text/css">
	.st0{fill:#4386C6;}
	.st1{fill:#8EB6E0;}
	.st2{clip-path:url(#SVGID_2_);}
	.st3{fill:#E1262F;}
	.st4{fill:#E66869;}
	.st5{fill:#F8DAD4;}
	.st6{fill:#F7C402;}
	.st7{fill:#E4252E;}
	.st8{fill:#FFFFFF;stroke:#FFFFFF;stroke-width:0.1245;stroke-miterlimit:10;}
</style>
<g id="_1._Circuito">
	<g id="_3">
		<path class="st0" d="M74.5,1.7h-37c-6.2,0-11.9,3.3-14.9,8.6L4,42.4C1,47.7,1,54.3,4,59.6l18.5,32.1c3.1,5.3,8.8,8.6,14.9,8.6h37
			c6.2,0,11.9-3.3,14.9-8.6L108,59.6c3.1-5.3,3.1-11.9,0-17.2L89.5,10.3C86.4,5,80.7,1.7,74.5,1.7z"/>
		<path d="M74.5,0.9H38.7c-2.4-0.1-4.8,0.3-7.1,1c-4.1,1.4-7.5,4.3-9.7,8c-0.6,1.1-1.3,2.2-1.9,3.3l-9,15.5L3.7,41.4
			c-1.7,2.8-2.6,5.9-2.8,9.1c-0.1,3.5,0.9,7,2.7,10l7,12.2l9.1,15.7c0.7,1.2,1.4,2.4,2.1,3.7c2,3.5,5.1,6.2,8.8,7.7
			c4.3,1.8,9.1,1.4,13.6,1.4H63c3.8,0,7.6,0,11.5,0c4.6,0,9-1.8,12.4-4.9c1.6-1.5,2.9-3.3,3.9-5.3l7.8-13.6l8.6-14.9
			c0.6-1.1,1.3-2.2,1.9-3.3c2.5-5,2.5-10.8,0.2-15.8c-0.6-1.2-1.3-2.4-2-3.6l-3.7-6.4l-9.5-16.4l-3.3-5.6c-1-1.8-2.2-3.6-3.7-5.1
			C83.8,2.8,79.3,0.9,74.5,0.9c-0.4,0-0.7,0.3-0.7,0.7s0.3,0.7,0.7,0.7c4.8,0,9.4,2.2,12.6,5.8c1,1.3,1.9,2.7,2.7,4.1l8.1,14
			l8.2,14.2c0.8,1.3,1.5,2.6,2.1,3.9c2,4.8,1.6,10.2-0.9,14.6c-1.8,3.2-3.7,6.4-5.6,9.7L92.4,85l-3,5.3c-1.1,2-2.5,3.8-4.2,5.4
			c-3,2.5-6.8,3.9-10.8,3.9H38.2c-2.7,0.1-5.5-0.5-8-1.7c-3-1.5-5.6-3.9-7.2-6.9l-6.6-11.4L7.4,63.9l-2.5-4.3
			C3,56.5,2.2,52.8,2.6,49.2c0.5-4.6,3.4-8.6,5.6-12.5l9.3-16.1c1.9-3.3,3.8-6.6,5.7-9.9C25.4,6.9,29,4.1,33.3,3
			c1.9-0.4,3.8-0.6,5.7-0.5h35.5c0.4,0,0.7-0.3,0.7-0.7C75.3,1.3,74.9,0.9,74.5,0.9z"/>
		<circle class="st1" cx="56" cy="51" r="43.3"/>
		<path d="M98.6,51c0,23.4-19,42.4-42.4,42.3c-23.4,0-42.4-19-42.3-42.4s19-42.4,42.4-42.3c20.9,0,38.7,15.3,41.8,35.9
			C98.4,46.6,98.6,48.8,98.6,51c0,0.4,0.3,0.7,0.7,0.7s0.7-0.3,0.7-0.7c0-24.4-19.7-44.1-44.1-44.2c-24.4,0-44.1,19.7-44.2,44.1
			c0,24.4,19.7,44.1,44.1,44.2c21.8,0,40.3-15.9,43.6-37.4c0.3-2.2,0.5-4.5,0.5-6.8c0-0.4-0.3-0.7-0.7-0.7S98.6,50.6,98.6,51z"/>
		<g>
			<defs>
				<circle id="SVGID_1_" cx="56" cy="51" r="37.4"/>
			</defs>
			<clipPath id="SVGID_2_">
				<use xlink:href="#SVGID_1_"  style="overflow:visible;"/>
			</clipPath>
			<g class="st2">
				<path d="M52.9,54.8c0.1-0.2-0.1,0.1-0.2,0.2c-0.2,0.2-0.4,0.4-0.6,0.6c-0.6,0.6-1.2,1.2-1.8,1.8c-0.8,0.8-1.6,1.6-2.4,2.4
					c-0.7,0.7-1.4,1.4-2.3,1.9c-1,0.6-2.2,0.9-3.3,0.3c-0.9-0.6-1.7-1.4-2.3-2.4c-0.7-1-1.2-2-2-2.9c-0.5-0.6-1.3,0.2-0.8,0.8
					c1.5,1.8,2.4,4.2,4.5,5.4c3.4,1.9,6.5-1.9,8.6-4c1.2-1.1,2.4-2.4,3.5-3.6C54.4,54.8,53.4,54.2,52.9,54.8L52.9,54.8z"/>
				<path class="st3" d="M96,83.9c-2.5,2.8-11.6,7.4-12.6,7.4c-0.9,0-29.2-6.6-29.9-7c-0.9-0.6-1-1.7-1-2.6
					c-0.4-14.4-0.7-28.8,0.1-43.2c0.1-1.6,0.6-5.6,0.6-7.2c0-1.4,7.8-4.9,11.1-6.5c0.4-0.2,0.9-0.4,1.3-0.4
					c1.8-0.3,31.1,5.1,31.2,6.9c0.2,2.6,0.7,7.6,0.8,10.2c0.2,5.7,0.1,11.3-0.1,17c-0.3,8.3-0.9,16.5-1.4,24.8
					C96,83.4,96,83.6,96,83.9z"/>
				<path class="st4" d="M84.3,55.7c1.1-0.4,12.8-6.6,13-8.8c0.2-3.2,0.2-15.9-0.8-16.7c-0.7-0.6-28.9-6.5-29.8-6.5
					c-1.5,0-10.4,5.1-12.7,6.6c-0.2,0.1-0.4,0.3-0.5,0.4c-0.2,0.3-0.3,0.6-0.3,0.9c-0.7,3-0.9,17.1-0.2,17.8
					c0.5,0.6,26.1,6.1,28.2,6.3C82,55.7,83.4,56,84.3,55.7z"/>
				<path d="M95.5,83.3c-1,1-2.1,1.9-3.2,2.6c-1.5,1-3,1.8-4.5,2.6c-1.2,0.6-2.3,1.2-3.6,1.7c-0.2,0.1-0.4,0.1-0.5,0.2l-0.2,0.1
					c-0.2,0,0.1,0,0,0c-0.1,0,0,0,0.1,0l-0.2,0c-4-0.8-8-1.8-12-2.7c-5-1.2-10-2.3-14.9-3.6c-0.7-0.2-1.3-0.3-2-0.5
					c-0.2,0-0.3-0.1-0.5-0.1c-0.2,0,0.1,0.1,0.1,0c-0.3-0.3-0.5-0.8-0.6-1.2c-0.1-1.3-0.2-2.6-0.1-3.9c0-1.4-0.1-2.8-0.1-4.2
					c-0.1-2.8-0.1-5.6-0.2-8.4c-0.1-10.4-0.2-20.9,0.8-31.3c0.1-0.9,0.2-1.8,0.2-2.7c0-0.2,0-0.3,0-0.5c0-0.1,0-0.5,0-0.2
					c0-0.2,0,0,0-0.1c0-0.1,0,0,0.1-0.2c0.9-0.9,2.2-1.6,3.3-2.2c1.6-0.8,3.2-1.6,4.8-2.4c0.7-0.3,1.4-0.7,2.1-1
					c0.5-0.3,1-0.5,1.5-0.5c0.5,0,1,0.1,1.6,0.1l0.3,0h0.1l0.7,0.1l1.5,0.2c2.5,0.4,5.1,0.9,7.6,1.3c5.2,1,10.5,2,15.6,3.5
					c0.8,0.2,1.6,0.5,2.3,0.8l0.1,0l0.2,0.1c0.1,0.1,0.2,0.1,0.3,0.2s0.1,0.1,0.1,0.1c0.1,0.1-0.1-0.1,0,0c0.1,0.2,0-0.1,0,0
					c0-0.1-0.1-0.4-0.1-0.2c0,0.3,0,0.4,0.1,0.6l0.1,1.3c0.1,1,0.2,2,0.3,3c0.2,2,0.3,4,0.4,6c0.3,11.3-0.4,22.5-1.1,33.7
					c-0.2,2.6-0.4,5.3-0.5,8c0,1,1.4,1,1.5,0c0.3-5.7,0.7-11.5,1.1-17.2s0.5-11.6,0.6-17.4c0-4.8-0.1-9.5-0.5-14.3
					c-0.1-1-0.2-2-0.3-2.9c0-0.5-0.1-1-0.2-1.4c-0.4-0.5-0.9-0.8-1.5-1c-1.9-0.7-3.8-1.3-5.7-1.7c-2.8-0.7-5.6-1.3-8.5-1.9
					c-4.9-1-9.8-2-14.7-2.6c-0.4-0.1-0.9-0.1-1.4-0.1c-0.9,0.1-1.7,0.4-2.5,0.9l-2.2,1c-1.7,0.8-3.3,1.6-5,2.5
					c-1.1,0.6-2.4,1.3-3.2,2.3c-0.3,0.4-0.4,1-0.4,1.5c0,0.9-0.1,1.8-0.2,2.7c-0.2,2.1-0.4,4.1-0.5,6.2c-0.3,5.8-0.4,11.5-0.4,17.3
					s0.1,11.5,0.2,17.3c0,1.5,0.1,3,0.1,4.4c0,1.2-0.1,2.4,0.2,3.5c0.2,0.9,0.9,1.7,1.8,1.9c4.2,1.2,8.6,2.1,12.9,3.1
					c4.9,1.2,9.9,2.3,14.8,3.4c0.5,0.1,1,0.2,1.6,0.3c0.6,0.1,1.2,0,1.7-0.3c3-1.2,5.8-2.8,8.5-4.6c1.2-0.7,2.3-1.6,3.3-2.7
					C97.2,83.7,96.1,82.6,95.5,83.3z"/>
				<path d="M56.4,34.7c6,1.6,12,3.4,18.2,4.8c1.5,0.3,3,0.6,4.6,0.9c1.5,0.3,3.2,0.7,4.8,0.4c0.6-0.1,1.1-0.4,1.6-0.7
					c0.8-0.4,1.6-0.9,2.4-1.4c2-1.1,4-2.3,5.8-3.6c0.8-0.5,0-1.8-0.8-1.3C91.4,35,89.7,36,88,37c-0.8,0.5-1.7,1-2.5,1.4
					c-0.3,0.2-0.6,0.3-1,0.5l-0.3,0.2c-0.1,0-0.4,0.2-0.2,0.1c-1.2,0.4-2.7,0-3.9-0.2c-1.5-0.3-3-0.5-4.5-0.9
					c-2.8-0.6-5.6-1.3-8.4-2c-3.4-0.9-6.9-1.9-10.3-2.8c-0.4-0.1-0.8,0.1-0.9,0.5C55.8,34.1,56,34.5,56.4,34.7L56.4,34.7z"/>
				<path d="M83,40.8c-0.2,7,0.2,14.1,0.4,21.1c0.2,8.5,0.3,17-0.1,25.5c-0.2,4.6-0.7,9.2-1.5,13.7c-0.2,0.9,1.3,1.3,1.4,0.4
					c1.4-8.3,1.8-16.7,1.9-25.1c0.1-8.2-0.2-16.4-0.5-24.6c-0.1-3.7-0.2-7.3-0.1-11C84.5,39.8,83,39.8,83,40.8L83,40.8z"/>
				<g id="cara">
					<path d="M73.5,60.2c-2.6-0.5-5.3-1.1-8-1.2c-0.6,0-1.3,0-1.9,0.1c-0.5,0-1,0.1-1.5,0.4C61.5,60.1,61,61,61,61.9
						c-0.1,0.7,1,1,1.1,0.3c0.1-0.6,0.4-1.7,0.9-1.9c0.5-0.1,1.1-0.2,1.6-0.2c0.6,0,1.2,0,1.7,0c2.3,0.2,4.6,0.6,6.8,1.1
						C73.9,61.4,74.2,60.3,73.5,60.2L73.5,60.2z"/>
					<path class="st5" d="M63,58.6l0.4-2.4c0-0.1,2.2,0,3,0c-0.3,1.2-0.7,1.4-1.3,2.5"/>
					<path d="M63.6,58.8l0.4-2.1c0-0.1,0-0.2,0-0.3c0-0.2,0-0.1-0.2,0.3c-0.1,0-0.2,0.1-0.1,0c0.1,0-0.2,0,0,0H64
						c0.8,0,1.6,0.1,2.4,0.1l-0.5-0.7c0,0.1-0.1,0.3-0.1,0.4c0,0.1,0,0.1-0.1,0.2c0,0.1,0,0,0,0c0,0,0,0.1,0,0.1
						c-0.1,0.2-0.2,0.4-0.3,0.5c-0.2,0.4-0.5,0.8-0.7,1.2c-0.2,0.3-0.1,0.6,0.1,0.8c0.3,0.2,0.6,0.1,0.8-0.1c0,0,0-0.1,0.1-0.1
						c0.2-0.4,0.5-0.8,0.7-1.3c0.3-0.4,0.5-0.9,0.6-1.4c0.1-0.3-0.1-0.6-0.4-0.7c-0.1,0-0.1,0-0.2,0c-0.7,0-1.3-0.1-2-0.1
						c-0.3,0-0.5,0-0.8,0c-0.1,0-0.3,0-0.4,0.1c-0.3,0.2-0.3,0.5-0.3,0.8l-0.3,2c-0.1,0.3,0.1,0.6,0.4,0.7
						C63.2,59.2,63.5,59.1,63.6,58.8L63.6,58.8z"/>
					<path d="M76.7,46.4c-4.7-1.3-9.4-2.5-14.2-3.5c-0.9-0.2-1.3,1.2-0.4,1.4c4.8,1,9.5,2.2,14.2,3.5c0.4,0.1,0.8-0.2,0.9-0.6
						C77.2,46.9,77,46.5,76.7,46.4z"/>
					<path d="M73,50.1l-0.6,3.4c-0.1,0.4,0.1,0.8,0.5,0.9c0.4,0.1,0.8-0.1,0.9-0.5l0.6-3.4c0.1-0.4-0.1-0.8-0.5-0.9
						C73.6,49.4,73.2,49.6,73,50.1C73,50.1,73,50.1,73,50.1z"/>
					<path d="M62.7,48.3l-0.6,3.4c-0.1,0.4,0.1,0.8,0.5,0.9c0.4,0.1,0.8-0.1,0.9-0.5l0.6-3.4c0.1-0.4-0.1-0.8-0.5-0.9
						C63.3,47.7,62.9,47.9,62.7,48.3L62.7,48.3z"/>
					<path d="M69.1,40.3l-1.3,7.8c-0.1,0.4,0.1,0.8,0.5,0.9c0.4,0.1,0.8-0.1,0.9-0.5l1.3-7.8c0.1-0.4-0.1-0.8-0.5-0.9
						C69.7,39.7,69.3,39.9,69.1,40.3L69.1,40.3z"/>
				</g>
				<ellipse class="st3" cx="67.1" cy="25.6" rx="5.4" ry="3.3"/>
				<path d="M71.8,25.6c0,1.5-1.9,2.2-3.1,2.4c-1.7,0.4-3.8,0.2-5.3-0.8c-1.1-0.7-1.4-1.9-0.4-2.9c1.3-1.2,3.3-1.5,5-1.3
					C69.4,23.2,71.8,23.9,71.8,25.6c0,1,1.5,1,1.5,0c-0.1-2.2-2.2-3.4-4.1-3.9c-2.3-0.5-5-0.3-6.9,1.2c-1.6,1.2-1.9,3.3-0.5,4.8
					c1.6,1.7,4.2,2.1,6.4,1.8c2.2-0.3,5-1.5,5-4C73.3,24.6,71.8,24.6,71.8,25.6z"/>
				<ellipse class="st3" cx="67.1" cy="26.4" rx="5.4" ry="3.3"/>
				<path d="M71.8,26.4c0,1.5-1.9,2.2-3.1,2.4C67,29.2,64.9,29,63.5,28c-1.1-0.7-1.4-1.9-0.4-2.9c1.3-1.2,3.3-1.5,5-1.3
					C69.4,24,71.8,24.7,71.8,26.4c0,1,1.5,1,1.5,0c-0.1-2.2-2.2-3.4-4.1-3.9c-2.3-0.5-5-0.3-6.9,1.2c-1.6,1.2-1.9,3.3-0.5,4.8
					c1.6,1.7,4.2,2.1,6.4,1.8c2.2-0.3,5-1.5,5-4C73.3,25.4,71.8,25.4,71.8,26.4z"/>
				<ellipse class="st3" cx="81.3" cy="29.8" rx="5.4" ry="3.3"/>
				<path d="M86,29.8c0,1.5-1.9,2.2-3.1,2.4c-1.7,0.4-3.8,0.2-5.3-0.8c-1.1-0.7-1.4-1.9-0.4-2.9c1.3-1.2,3.3-1.5,5-1.3
					C83.6,27.3,86,28.1,86,29.8c0,1,1.5,1,1.5,0c-0.1-2.2-2.2-3.4-4.1-3.9c-2.3-0.5-5-0.3-6.9,1.2c-1.6,1.2-1.9,3.3-0.5,4.8
					c1.6,1.7,4.2,2.1,6.4,1.8c2.2-0.3,5-1.5,5-4C87.5,28.8,86,28.8,86,29.8z"/>
				<ellipse class="st3" cx="81.3" cy="27.2" rx="5.4" ry="3.3"/>
				<path d="M86,27.2c0,1.5-1.9,2.2-3.1,2.4c-1.7,0.4-3.8,0.2-5.3-0.8c-1.1-0.7-1.4-1.9-0.4-2.9c1.3-1.2,3.3-1.5,5-1.3
					C83.6,24.8,86,25.5,86,27.2c0,1,1.5,1,1.5,0c-0.1-2.2-2.2-3.4-4.1-3.9c-2.3-0.5-5-0.3-6.9,1.2c-1.6,1.2-1.9,3.3-0.5,4.8
					c1.6,1.7,4.2,2.1,6.4,1.8c2.2-0.3,5-1.5,5-4C87.5,26.3,86,26.3,86,27.2z"/>
				<g id="abajo">
					<path class="st6" d="M63.9,91l0.3-0.4c0.3-0.3,0.6-0.7,1.1-0.6c0.4,0.1,0.7,0.5,0.8,0.9l1,2.4c0.1,0.3,0.2,0.5,0.4,0.7
						c0.6,0.5,1.4-0.1,1.8-0.8c0.3-0.7,0.5-1.5,1.1-1.9c1.1-0.8,2.7,0.3,3.2,1.5c0.6,1.2,0.7,2.7,1.6,3.7c0.1,0.1,0.3,0.2,0.4,0.3
						c0.2,0,0.3-0.1,0.4-0.2c0.9-0.9,1.4-2.1,2.4-2.9c0.2-0.1,0.4-0.2,0.6-0.2c0.4,0,0.6,0.4,0.8,0.8c1.3,3.3,2.2,6.9,4.5,9.7
						l1.5-10.2c0.2-1.2,0.4-2.6,1.5-3.3l2.6,3.1c0.1,0.1,0.2,0.3,0.4,0.3c0.1,0,0.3-0.1,0.3-0.2c0.8-0.9,0.6-2.8,1.8-2.9
						c0.8-0.1,1.3,0.7,1.7,1.3c1.3,2.2,2.7,4.2,4.4,6.1c0.7-0.8,0.7-2,0.6-3.1c-0.9-9.4-1.8-18.7-2.6-28.1
						c-3.2,3.3-7.3,5.6-11.8,6.5c-5.7,1.2-11.6,0.3-17.3-0.8c-5.1-1-11.7-2.9-16.4-5.3c-2.1,9.7-7.6,20.5-7.5,30.4
						c2.1-2.4,10-5.1,12-7.5c0.9-1.1,2-2.2,3.4-2.3c0.4,2.1,1.1,4.2,2,6.2L63.9,91z"/>
					<path d="M64.4,91.5c0.1-0.2,0.4-0.6,0.7-0.7c0.2-0.1,0-0.1,0.2,0c0.1,0.1,0.1,0.2,0.2,0.3c0.3,0.7,0.6,1.4,0.9,2
						c0.2,0.6,0.5,1.1,0.9,1.5c0.4,0.3,1,0.3,1.5,0.1c1.1-0.4,1.3-1.5,1.9-2.4c0.6-1,1.7-0.3,2.2,0.4c0.7,1,1.6,6.4,3.8,4.4
						c0.9-0.8,1.3-2,2.2-2.8c0.2-0.2,0.2-0.3,0.3-0.1c0.1,0.2,0.2,0.4,0.3,0.7c0.2,0.6,0.5,1.3,0.7,1.9c1,2.6,1.9,5.3,3.7,7.5
						c0.3,0.3,0.8,0.3,1.1,0c0.1-0.1,0.2-0.2,0.2-0.3l1.1-7.3c0.2-1.2,0.3-2.3,0.5-3.5c0.1-0.8,0.3-1.8,1-2.3l-0.9-0.1l1.8,2.2
						c0.5,0.6,1,1.6,1.9,1.4c1.3-0.2,1.3-2,1.8-2.9c0.3-0.6,0.8,0,1,0.4c0.5,0.7,0.9,1.5,1.4,2.2c1,1.5,2.1,2.9,3.3,4.3
						c0.3,0.3,0.8,0.3,1.1,0c1.2-1.4,0.8-3.3,0.7-4.9l-0.6-6.4l-1.2-13l-0.7-7.4c0-0.4-0.4-0.7-0.8-0.7c-0.2,0-0.4,0.1-0.5,0.2
						c-4.4,4.4-10.3,6.9-16.4,6.9c-3.4,0-6.9-0.4-10.2-1.1c-2.9-0.5-5.8-1.2-8.6-2c-3.2-0.9-6.3-2.1-9.3-3.5c-0.4-0.2-0.8-0.1-1,0.3
						c0,0,0,0.1-0.1,0.2c-1.8,8.1-5.3,15.7-6.8,23.9c-0.4,2.2-0.6,4.5-0.6,6.7c0,0.4,0.4,0.7,0.8,0.7c0.2,0,0.4-0.1,0.5-0.2
						c0.9-0.9,1.9-1.6,3.1-2.2c1.4-0.8,2.9-1.5,4.4-2.3c1.3-0.6,2.6-1.4,3.7-2.3c1.2-0.9,2.1-2.7,3.7-2.8l-0.7-0.5
						c0.5,2.2,1.2,4.4,2.1,6.4c0.2,0.4,0.7,0.5,1,0.3c0.1,0,0.1-0.1,0.1-0.1L64.4,91.5c0.6-0.7-0.4-1.8-1.1-1.1l-2.7,3.1l1.2,0.1
						c-0.9-1.9-1.5-4-2-6c-0.1-0.3-0.4-0.5-0.7-0.6c-1,0.1-1.9,0.5-2.6,1.1c-0.6,0.5-1.1,1.2-1.7,1.8c-1.1,0.9-2.4,1.7-3.7,2.3
						c-1.5,0.8-3.1,1.5-4.6,2.4c-1.2,0.6-2.4,1.4-3.4,2.4l1.3,0.5c0-8.2,3.3-16,5.7-23.7c0.7-2.1,1.3-4.3,1.8-6.5l-1.1,0.4
						c5.5,2.8,11.5,4.4,17.5,5.5C75,74.7,82,75.6,88.5,73c3.2-1.3,6.2-3.2,8.6-5.7l-1.3-0.5c0.8,8.2,1.6,16.5,2.3,24.8
						c0.1,1.1,0.2,2.3,0.3,3.4c0.1,0.8,0.2,1.8-0.4,2.4h1.1c-1.2-1.4-2.3-2.8-3.3-4.4c-0.7-1.1-1.5-3.3-3.2-3.2
						c-1.4,0-1.7,1.4-2.1,2.4c0,0.1-0.3,0.7-0.3,0.7c-0.1,0.1,0,0.1,0.3,0l-0.2-0.3l-0.5-0.5l-1.9-2.3c-0.2-0.2-0.6-0.3-0.9-0.1
						c-1.8,1.3-1.8,3.9-2.1,5.9l-1.2,8l1.3-0.3c-1.7-2.1-2.6-4.7-3.5-7.2c-0.2-0.6-0.4-1.2-0.7-1.8c-0.1-0.6-0.5-1.1-1-1.5
						c-1.1-0.7-2.2,0.6-2.8,1.4c-0.4,0.5-0.7,1.1-1.1,1.5l-0.1,0.1C75.6,96,75.6,96,75.9,96c-0.1-0.1-0.2-0.2-0.2-0.3
						c-0.2-0.3-0.3-0.6-0.4-1c-0.4-1.2-0.6-2.4-1.5-3.3c-0.7-0.8-1.9-1.4-3-1c-0.5,0.2-1,0.6-1.3,1c-0.3,0.5-0.4,1.1-0.7,1.5
						c-0.1,0.1-0.4,0.5-0.6,0.4c-0.2,0-0.4-0.8-0.5-0.9c-0.3-0.8-0.6-1.6-1-2.3c-0.3-0.6-0.8-1-1.4-1c-0.8,0-1.3,0.7-1.8,1.2
						C62.7,91.2,63.8,92.2,64.4,91.5z"/>
					<path class="st3" d="M58.8,80.1c-0.1-0.1-0.3-0.1-0.4-0.2l-1.8-1.3c-0.4-0.3-0.8-0.6-0.8-1c0-0.5,0.3-0.9,0.7-1.1
						c0.7-0.6,1.5-1.1,2.4-1.5c1.5,0.2,2.3,1.1,3,2.4c0.1,0.1,0.2,0.3,0.1,0.5c0,0.2-0.1,0.3-0.3,0.5c-0.6,0.6-1.2,1.1-1.9,1.6
						c-0.2,0.2-0.5,0.3-0.8,0.3C59,80.1,58.9,80.1,58.8,80.1z"/>
					<path d="M59.1,79.6c-0.6-0.3-1.2-0.7-1.7-1.1c-0.3-0.2-1.1-0.6-1-1c0-0.2,0.3-0.4,0.4-0.5c0.2-0.2,0.5-0.4,0.7-0.5
						c0.5-0.4,1.1-0.7,1.7-1l-0.3,0c1.1,0.1,1.8,0.9,2.4,1.8c0.1,0.1,0.1,0.2,0.2,0.4c0.1,0.1,0,0.1,0.1,0c0,0.1-0.1,0.1-0.1,0.1
						c-0.2,0.2-0.5,0.5-0.8,0.7s-0.6,0.5-0.9,0.7c-0.2,0.2-0.5,0.4-0.8,0.3c-0.7-0.2-1,0.9-0.3,1.1c0.7,0.2,1.4-0.2,1.9-0.7
						c0.6-0.4,1.1-0.9,1.6-1.4c0.2-0.2,0.4-0.5,0.4-0.8c0-0.4-0.1-0.7-0.4-1c-0.3-0.5-0.6-0.9-1-1.3c-0.4-0.4-0.9-0.7-1.4-0.9
						c-0.2-0.1-0.5-0.2-0.8-0.2c-0.2,0-0.4,0-0.6,0.1c-0.2,0.1-0.4,0.2-0.5,0.3c-0.6,0.3-1.1,0.7-1.7,1.1c-0.5,0.4-1.1,0.9-1.1,1.6
						c0,0.7,0.6,1.3,1.2,1.7l1,0.7c0.3,0.3,0.7,0.5,1.1,0.7c0.3,0.1,0.6,0.1,0.8-0.2C59.5,80.1,59.4,79.7,59.1,79.6z"/>
					<path class="st3" d="M74.9,86.9c0-0.5-0.2-0.9-0.6-1.3c-0.4-0.4-0.9-0.9-1.2-1.4c-0.2-0.3-0.3-0.7-0.5-1
						c-0.2-0.3-0.5-0.6-0.9-0.8c-0.3-0.3-0.8-0.5-1.2-0.7c-0.5-0.1-0.9,0-1.2,0.4c-0.1,0.2-1,1.3-1.3,1.8c-0.1,0.2-0.1,0.5-0.1,0.7
						c0.8,2-0.7,2-0.5,3.2c0.1,0.5,0.6,0.9,1.1,1c0.5,0.1,1.1,0.1,1.6-0.1l2.8-0.5c0.7-0.1,1.5-0.3,1.8-1
						C74.9,87.2,74.9,87,74.9,86.9z"/>
					<path d="M75.5,86.9c0-1.2-0.9-1.8-1.6-2.6c-0.3-0.4-0.5-0.8-0.7-1.3c-0.3-0.5-0.7-0.8-1.1-1.1c-0.8-0.6-1.8-1.1-2.7-0.6
						c-0.3,0.2-0.5,0.4-0.7,0.7c-0.2,0.3-0.5,0.6-0.7,0.9c-0.2,0.3-0.4,0.6-0.5,0.9c-0.2,0.6,0.1,1,0.2,1.5c0.1,0.5-0.1,0.7-0.4,1.1
						c-0.4,0.5-0.5,1.2-0.2,1.7c0.4,0.9,1.5,1.2,2.5,1.1c0.7-0.1,1.3-0.2,1.9-0.3c0.6-0.1,1.3-0.2,1.9-0.3
						C74.4,88.6,75.4,88.1,75.5,86.9c0.1-0.7-1.1-0.7-1.1,0c-0.1,0.7-1,0.8-1.5,0.9L70,88.3c-0.6,0.1-1.7,0.3-1.9-0.5
						c0-0.1,0-0.3,0-0.4c0,0.1,0.1-0.1,0.1-0.1c0.1-0.1,0.1-0.2,0.2-0.3c0.3-0.4,0.4-0.8,0.5-1.2c0-0.3,0-0.6-0.1-0.9
						c0-0.1-0.2-0.3-0.1-0.4c0-0.1,0.1-0.3,0.2-0.4c0.3-0.5,0.7-1,1-1.4c0.3-0.5,0.9-0.3,1.4,0c0.4,0.2,0.8,0.6,1.1,0.9
						c0.2,0.4,0.3,0.8,0.6,1.2c0.5,0.7,1.5,1.3,1.6,2.2c0,0.3,0.2,0.6,0.6,0.6C75.2,87.5,75.5,87.2,75.5,86.9z"/>
					<path class="st3" d="M86.3,81.7c0.7-1.1,0.5-2.6-0.4-3.5c-0.8-0.7-4.2-0.8-4.2-1.5c0-0.2-1.1,0.1-1.4,0.3l-0.8,0.6
						c-0.2,0.1-0.3,0.5-0.1,0.5c-0.1,0.1,0.1,0.5-0.3,1.1c-0.3,0.3-0.5,0.8-0.4,1.3c0.1,0.3,0.3,0.6,0.6,0.8c0.5,0.6,1.1,1,1.8,1.2
						c0.9,0.2,1.8-0.2,2.6,0c0.3,0.1,0.7,0.2,1.1,0.2c0.6,0,1.1-0.3,1.5-0.8C86.3,81.9,86.3,81.8,86.3,81.7z"/>
					<path d="M86.8,82c0.6-1.1,0.6-2.4,0-3.5c-0.5-0.8-1.2-1.3-2.1-1.4c-0.8-0.1-1.6-0.3-2.4-0.5l-0.1,0c0,0,0,0-0.1,0
						c0,0,0,0.1,0,0c0,0.1,0.2,0.4,0.1,0.1c0-0.1-0.1-0.2-0.2-0.3c-0.3-0.3-0.9-0.2-1.3-0.1c-0.6,0.2-1.1,0.5-1.6,0.8
						c-0.5,0.4-0.8,1.3,0,1.5l-0.3-0.8c-0.1,0.2-0.1,0.3-0.1,0.5c0,0.2-0.1,0.4-0.2,0.6c-0.4,0.4-0.5,1-0.5,1.6
						c0.1,0.5,0.5,1,0.9,1.4c0.4,0.4,0.8,0.7,1.3,1c0.5,0.2,1.1,0.3,1.7,0.2c0.6-0.1,1.2-0.1,1.8,0c0.6,0.2,1.2,0.2,1.7,0
						C86.1,82.8,86.5,82.4,86.8,82c0.4-0.7-0.6-1.2-1-0.6c-0.2,0.3-0.5,0.6-0.9,0.7c-0.4,0-0.8-0.1-1.2-0.2c-0.9-0.1-1.9,0.3-2.8,0
						c-0.4-0.2-0.7-0.4-1-0.7c-0.2-0.2-0.7-0.5-0.7-0.9c0-0.4,0.4-0.8,0.6-1.2c0.1-0.2,0.1-0.4,0.2-0.6c0-0.1,0-0.2,0-0.2
						c0-0.1,0,0,0,0.1c0.2-0.3,0.1-0.6-0.2-0.8c0,0-0.1,0-0.1-0.1c0.1,0.5,0.2,0.7,0.3,0.5l0.2-0.1l0.5-0.3c0.1-0.1,0.3-0.2,0.4-0.2
						c0.2-0.1,0.4-0.1,0.5-0.1h0.1c-0.3-0.6-0.5-0.7-0.4-0.3c0,0.1,0.1,0.2,0.1,0.2c0.4,0.6,1.4,0.7,2,0.8c0.7,0.1,1.7,0.2,2.3,0.6
						c-0.1-0.1,0.1,0.1,0.1,0.2c0.1,0.1,0.2,0.2,0.2,0.3c0.4,0.7,0.4,1.6,0,2.3c-0.2,0.3-0.1,0.6,0.2,0.8
						C86.3,82.4,86.6,82.3,86.8,82z"/>
					<path class="st3" d="M95.2,85.7c0,0.2,0,0.5,0.1,0.7c0.1,0.2,0.2,0.3,0.2,0.5c0,0.2-0.3,0.4-0.5,0.5c-0.7,0.2-1.4,0.2-2.2,0.1
						c-0.5,0-1-0.1-1.4-0.4c-0.4-0.4-1.2-2.7-0.1-2.1l0.3-0.7c0.1-0.5,0.4-0.9,0.7-1.3c0.5-0.5,1.3-0.7,2-0.4c0.7,0.3,1.1,1,1.1,1.7
						C95.4,84.8,95.2,85.3,95.2,85.7z"/>
					<path d="M94.6,85.7c0,0.4,0.1,0.8,0.3,1.1c0.1,0.2,0-0.1,0.1-0.1c0,0-0.1,0-0.1,0.1c-0.1,0-0.2,0.1-0.3,0.1
						c-0.7,0.1-1.4,0.1-2.1,0c-0.1,0-0.2,0-0.4-0.1c0,0-0.1,0-0.1-0.1l-0.1-0.1c-0.1-0.1,0,0,0,0s0,0,0,0l-0.1-0.1
						c0-0.1-0.1-0.1-0.1-0.2l-0.1-0.1c0,0.1,0,0,0,0c0-0.1-0.1-0.2-0.1-0.3c0-0.1-0.1-0.2-0.1-0.3c0,0,0-0.1,0-0.1c0,0,0-0.2,0-0.1
						c0,0.1,0-0.1,0-0.1c0,0,0-0.1,0-0.1c0-0.1,0,0,0,0c0-0.1,0-0.1,0,0c0-0.1,0,0-0.1,0.1s0,0,0,0c-0.1,0-0.1,0-0.2,0
						c0.1,0-0.1,0-0.1,0c0,0,0,0,0.1,0c0.1,0-0.1,0,0,0c0.3,0.2,0.6,0,0.8-0.2c0,0,0-0.1,0-0.1c0.2-0.6,0.4-1.1,0.7-1.6
						c0.3-0.3,0.7-0.5,1.2-0.5c0.4,0.1,0.8,0.4,0.9,0.8C95,84.5,94.7,85.1,94.6,85.7c0,0.3,0.3,0.6,0.6,0.6c0,0,0,0,0,0
						c0.3,0,0.6-0.3,0.6-0.6c0-0.4,0.2-0.8,0.2-1.2c0.1-1.2-0.7-2.2-1.9-2.5c-0.8-0.1-1.5,0.1-2.1,0.7c-0.6,0.6-0.8,1.4-1.1,2.2
						l0.8-0.3c-0.3-0.2-0.6-0.2-1-0.1c-0.2,0.1-0.4,0.4-0.4,0.6c-0.1,0.5,0,1.1,0.2,1.6c0.1,0.2,0.2,0.5,0.3,0.7
						c0.2,0.3,0.5,0.5,0.9,0.6c0.5,0.1,0.9,0.2,1.4,0.2c0.5,0,1,0,1.5-0.1c0.5,0,1-0.3,1.3-0.8c0.1-0.3,0.1-0.6-0.1-0.9
						c-0.1-0.2-0.2-0.4-0.2-0.6c0-0.3-0.3-0.5-0.6-0.5C94.9,85.2,94.6,85.4,94.6,85.7L94.6,85.7z"/>
					<path class="st3" d="M54.4,86.3c0,0.2,0,0.5,0.1,0.7c0.1,0.2,0.2,0.3,0.2,0.5s-0.3,0.4-0.5,0.5c-0.7,0.2-1.4,0.2-2.2,0.1
						c-0.5,0-1-0.1-1.3-0.4c-0.5-0.4-1.2-2.7-0.1-2.1c0.1-0.2,0.2-0.5,0.3-0.7c0.1-0.5,0.4-0.9,0.7-1.3c0.7-0.7,1.8-0.7,2.5,0
						c0.3,0.4,0.5,0.8,0.5,1.3C54.7,85.4,54.5,85.8,54.4,86.3z"/>
					<path d="M53.9,86.3c0,0.4,0.1,0.8,0.3,1.1c0.1,0.2,0-0.1,0.1-0.1c0,0-0.1,0-0.1,0.1c-0.1,0-0.2,0.1-0.3,0.1
						c-0.7,0.1-1.4,0.1-2.1,0c-0.1,0-0.2,0-0.4-0.1c0,0-0.1,0-0.1-0.1l-0.1-0.1l0,0c-0.1,0,0,0,0,0c0,0,0,0-0.1-0.1
						c0,0-0.1-0.1-0.1-0.2l-0.1-0.1c0,0.1,0,0,0,0c0,0-0.1-0.2-0.1-0.3c0-0.1-0.1-0.2-0.1-0.3c0,0,0-0.1,0-0.1c0,0,0-0.2,0-0.1
						c0,0.1,0-0.1,0-0.1v-0.1c0-0.1,0,0,0,0c0-0.1,0-0.1,0,0c0.1-0.1,0,0-0.1,0.1l0,0c-0.1,0-0.1,0.1-0.2,0.1c0.1,0-0.1,0-0.1,0
						c0,0,0,0,0.1,0c0.1,0-0.1,0,0,0c0.3,0.2,0.6,0.1,0.8-0.2c0,0,0-0.1,0-0.1c0.2-0.6,0.4-1.1,0.7-1.6c0.3-0.3,0.7-0.5,1.2-0.5
						c0.4,0.1,0.8,0.4,0.9,0.8C54.3,85,54,85.6,53.9,86.3c0.1,0.2,0.4,0.5,0.7,0.4c0.3,0,0.5-0.2,0.5-0.5c0-0.4,0.2-0.8,0.2-1.2
						c0-0.4,0-0.8-0.2-1.1c-0.3-0.7-0.9-1.2-1.7-1.3c-0.8-0.1-1.5,0.1-2.1,0.7c-0.6,0.6-0.8,1.5-1.1,2.2L51,85
						c-0.3-0.2-0.6-0.2-1-0.1c-0.2,0.1-0.4,0.4-0.4,0.6c-0.1,0.5,0,1.1,0.2,1.6c0.1,0.2,0.2,0.5,0.3,0.7c0.2,0.3,0.5,0.5,0.9,0.6
						c0.5,0.1,0.9,0.2,1.4,0.2c0.5,0,1,0,1.5-0.1c0.5,0,1-0.3,1.3-0.8c0.1-0.3,0.1-0.6-0.1-0.9c-0.1-0.2-0.2-0.4-0.2-0.6
						c0-0.3-0.2-0.6-0.6-0.6c-0.3,0-0.6,0.2-0.7,0.5C53.9,86.2,53.9,86.2,53.9,86.3z"/>
					<path class="st3" d="M96.3,72c0,0.2,0,0.5,0.1,0.7c0.1,0.2,0.2,0.3,0.2,0.5c0,0.2-0.3,0.4-0.5,0.5c-0.7,0.2-1.4,0.2-2.2,0.1
						c-0.5,0-1-0.1-1.4-0.4c-0.4-0.4-1.2-2.7-0.1-2.1c0.1-0.2,0.2-0.5,0.3-0.7c0.1-0.5,0.4-0.9,0.7-1.3c0.7-0.7,1.8-0.7,2.5,0
						c0.3,0.4,0.5,0.8,0.5,1.3C96.5,71.2,96.3,71.6,96.3,72z"/>
					<path d="M95.7,72c0,0.4,0.1,0.8,0.3,1.1c0.1,0.2,0-0.1,0.1-0.1c0,0-0.1,0-0.1,0.1c-0.1,0-0.2,0.1-0.3,0.1
						c-0.7,0.1-1.4,0.1-2.1,0c-0.1,0-0.2,0-0.4-0.1c0,0-0.1,0-0.1-0.1l-0.1-0.1l0,0c-0.1,0,0,0,0,0c0,0,0,0-0.1-0.1
						c0,0-0.1-0.1-0.1-0.2l-0.1-0.1c0,0.1,0,0,0,0c0-0.1-0.1-0.2-0.1-0.3c0-0.1-0.1-0.2-0.1-0.3c0,0,0-0.1,0-0.1c0,0,0-0.2,0-0.1
						c0,0.1,0-0.1,0-0.1v-0.1c0-0.1,0,0,0,0c0-0.1,0-0.1,0,0c0.1-0.1,0,0-0.1,0.1c0,0,0,0,0,0c-0.1,0-0.1,0.1-0.2,0.1
						c0.1,0-0.1,0-0.1,0c0,0,0,0,0.1,0c0.1,0-0.1,0,0,0c0.3,0.2,0.6,0.1,0.8-0.2c0,0,0-0.1,0-0.1c0.2-0.6,0.4-1.1,0.7-1.6
						c0.3-0.3,0.7-0.5,1.2-0.5c0.4,0.1,0.8,0.4,0.9,0.8C96.2,70.7,95.9,71.4,95.7,72c0.1,0.2,0.4,0.5,0.7,0.4c0.3,0,0.5-0.2,0.5-0.5
						c0-0.4,0.2-0.8,0.2-1.2c0.1-1.2-0.7-2.2-1.9-2.5c-0.8-0.1-1.5,0.1-2.1,0.7c-0.6,0.6-0.8,1.5-1.1,2.2l0.8-0.3
						c-0.3-0.2-0.6-0.2-1-0.1c-0.2,0.1-0.4,0.4-0.4,0.6c-0.1,0.5,0,1.1,0.2,1.6c0.1,0.2,0.2,0.5,0.3,0.7c0.2,0.3,0.5,0.5,0.9,0.6
						c0.5,0.1,0.9,0.2,1.4,0.2c0.5,0,1,0,1.5-0.1c0.5,0,1-0.3,1.3-0.8c0.1-0.3,0.1-0.6-0.1-0.9c-0.1-0.2-0.2-0.4-0.2-0.6
						c0-0.3-0.3-0.5-0.6-0.5c0,0,0,0,0,0C96,71.5,95.7,71.7,95.7,72z"/>
				</g>
				<path class="st7" d="M34.9,51.8c-1.1,0-3.9,0.3-4.9-0.6c0,0,0.1-1.9,0-2.5c-0.1-1,2.4-0.8,3-0.8c-0.2-3.8-1.7-16.5,5.2-14.8
					c7.4,1.9,2.9,11.4,0.7,15.8c0.7,0.1,3,0.5,3,1.2c-0.1,0.6-0.6,1.3-0.8,2.4C40.7,53.8,36.8,51.6,34.9,51.8z"/>
				<path d="M34.9,51.6c-1,0-1.9,0.1-2.9,0c-0.6,0-1.1-0.1-1.6-0.4c-0.2-0.1-0.1,0-0.2-0.2c0-0.2,0-0.3,0-0.5c0-0.4,0-0.8,0-1.3
					c0-0.4-0.1-0.8,0.4-1c0.8-0.2,1.6-0.3,2.4-0.2c0.1,0,0.2-0.1,0.2-0.2c-0.1-2.1-0.3-4.3-0.3-6.4c0-2.2,0.1-5,1.4-6.9
					c1.4-2.1,4.4-1.6,6.1-0.1c1.9,1.6,1.7,4.4,1.3,6.6c-0.6,2.7-1.8,5.3-3.1,7.8c-0.1,0.1,0,0.2,0.1,0.3h0.1
					c0.8,0.1,1.9,0.2,2.5,0.7c0.5,0.3-0.1,1.2-0.3,1.7s-0.1,1.1-0.6,1.2c-0.8,0.2-2-0.4-2.7-0.6C36.8,51.8,35.8,51.6,34.9,51.6
					c-0.3,0-0.3,0.4,0,0.4c1.3-0.1,2.7,0.5,3.9,0.8c0.6,0.2,1.8,0.6,2.3,0c0.1-0.3,0.2-0.5,0.2-0.8c0.1-0.5,0.4-0.9,0.5-1.3
					c0.1-0.4,0.2-0.7,0-1c-0.6-0.7-2.1-0.8-2.9-1L39,49c1.3-2.4,2.3-4.9,3-7.5c0.6-2.3,0.8-5-0.8-6.9C39.9,33,36.9,32,35,33.4
					c-1.9,1.4-2.2,4.2-2.4,6.3c-0.2,2.8,0,5.5,0.2,8.2l0.2-0.2c-0.9,0-2-0.2-2.8,0.3c-0.8,0.5-0.4,1.7-0.5,2.4c0,0.3-0.1,0.7,0,0.9
					c0.2,0.4,0.9,0.5,1.3,0.6c1.3,0.3,2.6,0.1,3.9,0.1c0.1,0,0.2-0.1,0.2-0.3C35.1,51.7,35,51.6,34.9,51.6z"/>
				<path d="M34.9,51.2c-1.3,0-3.1,0.4-4.3-0.3c-0.1,0-0.2-0.1-0.2-0.1c0.1,0.2,0.1,0.1,0.2,0c0.1-0.3,0.1-0.6,0-0.9
					c0-0.3,0-0.5,0-0.8s-0.1-0.4,0.3-0.6c0.2-0.1,0.5-0.1,0.7-0.1c0.5,0,1.2,0.2,1.6,0c0.6-0.2,0.4-1.1,0.3-1.5
					c-0.1-1.6-0.2-3.1-0.2-4.7c0-2.4-0.1-5.6,1.5-7.6c1.4-1.8,4.2-1,5.6,0.4c1.7,1.8,1.3,4.7,0.7,6.9c-0.4,1.4-0.9,2.8-1.5,4.2
					c-0.3,0.6-0.6,1.2-0.9,1.8c-0.2,0.4-0.7,1-0.4,1.4c0.4,0.6,3.1,0.2,2.8,1.3c-0.1,0.4-0.4,0.8-0.5,1.3c-0.1,0.2-0.1,0.5-0.3,0.6
					c-0.4,0-0.8,0-1.1-0.2c-1.2-0.4-2.3-0.9-3.6-1c-0.4,0-0.9-0.1-1.1,0.3c-0.2,0.3-0.1,0.7,0.2,0.8c0.3,0.1,0.7,0,0.9,0.1
					c0.4,0,0.8,0.1,1.2,0.2c0.7,0.2,1.4,0.5,2.2,0.7c0.8,0.2,2.1,0.5,2.6-0.4c0.1-0.3,0.2-0.6,0.3-1c0.1-0.3,0.3-0.6,0.4-0.9
					c0.2-0.5,0.3-1.1-0.1-1.5c-0.7-0.9-2.1-0.9-3.1-1.1c-0.2-0.1-0.4,0.1-0.5,0.3c0,0.1,0,0.2,0,0.3l0.2,0.3
					c0.1,0.2,0.3,0.2,0.5,0.1c0.1,0,0.1-0.1,0.1-0.1c1.3-2.6,2.6-5.3,3.2-8.3c0.5-2.3,0.5-4.9-1.2-6.7c-1.4-1.5-3.9-2.4-5.8-1.7
					c-2.1,0.8-2.9,3.3-3.2,5.3c-0.5,3.3-0.2,6.7,0,10c0,0.2,0.2,0.4,0.4,0.4c0.1,0,0.2,0,0.2-0.1l0.2-0.2c0.1-0.2,0.1-0.4,0-0.5
					c-0.1-0.1-0.2-0.1-0.2-0.1c-1.1-0.1-2.9-0.3-3.5,1c-0.2,0.6-0.2,1.2-0.1,1.7c0,0.5-0.2,1.2,0.1,1.6c0.4,0.4,0.9,0.6,1.4,0.7
					c0.9,0.2,1.7,0.2,2.6,0.2c0.4,0,0.9,0,1.4,0c0.2,0,0.3-0.1,0.5-0.2c0.2-0.3,0.2-0.6-0.1-0.8c-0.1-0.1-0.2-0.1-0.2-0.1
					c-0.5-0.1-0.7,0.6-0.2,0.7c0-0.3-0.1-0.4-0.3-0.3H34h-0.7c-0.5,0-1.1,0-1.6,0c-0.4,0-0.8-0.1-1.1-0.2c-0.6-0.2-0.5-0.5-0.4-1
					c0-0.6-0.2-1.4,0.1-2c0.5-0.7,2-0.4,2.7-0.4l-0.3-0.6l-0.2,0.2l0.6,0.3c-0.1-2.8-0.4-5.5-0.2-8.3c0.1-1.9,0.4-4.3,1.9-5.6
					c1.6-1.5,4.2-0.8,5.6,0.5c1.8,1.5,1.8,4,1.4,6.2c-0.6,2.9-1.8,5.6-3.2,8.3h0.6l-0.1-0.3l-0.4,0.5c0.5,0.1,1.1,0.1,1.6,0.3
					c0.3,0.1,0.5,0.1,0.8,0.3c0.4,0.1,0.5,0.5,0.4,0.8c0,0,0,0.1,0,0.1c-0.2,0.6-0.4,1.2-0.6,1.8c-0.2,0.7-1.1,0.5-1.6,0.3
					c-1.3-0.4-2.5-0.9-3.8-1c-0.1,0-0.7-0.1-0.3,0.3c0,0,0.4,0,0.4,0c0.4,0,0.8,0.1,1.2,0.2c0.6,0.2,1.2,0.4,1.8,0.6
					c0.8,0.3,2.1,0.7,2.6-0.3c0.2-0.4,0.2-0.8,0.4-1.2c0.3-0.4,0.3-0.9,0.3-1.3c-0.3-0.9-2.1-1.1-2.9-1.1h-0.1
					c0.2,0.1,0.3,0,0.3-0.2c0.1-0.1,0.1-0.3,0.2-0.4c0.2-0.3,0.3-0.7,0.5-1c0.3-0.6,0.6-1.3,0.9-2c1.6-3.9,3.4-10.3-1.9-12.1
					c-2.1-0.7-4.1,0-5.1,2c-1.1,2.2-1.1,5-1.1,7.4c0,0.9,0.1,1.8,0.1,2.7c0,0.5,0.1,1,0.1,1.5c0,0.2,0.2,0.9,0,1.1
					c-0.4,0-0.8,0-1.2,0c-0.3,0-0.6,0.1-0.9,0.1c-0.5,0.1-0.8,0.5-0.9,1c-0.1,0.6,0,1.3-0.1,2c0,0.4,0.2,0.8,0.6,0.9
					c0.6,0.2,1.1,0.3,1.7,0.3c0.9,0.1,1.8,0,2.8,0c0.2,0,0.4-0.2,0.4-0.4C35.3,51.4,35.1,51.2,34.9,51.2z"/>
				<path d="M33.1,52.3c-0.1,2.9-0.4,5.8-0.9,8.6c-0.4,2.2-0.8,6-3.7,6.3c-0.9,0.1-1.8-0.1-2.6-0.5c-0.9-0.5-0.9-1.2-0.7-2.2
					c0.2-1,0.7-2,1.9-2.2c0.4-0.1,0.8,0,1.1,0.2c0.3,0.2,0.5,0.6,0.3,0.9c-0.1,0.1-0.2,0.2-0.3,0.3c-0.5,0.3,0,1,0.5,0.7
					c0.7-0.4,1-1.4,0.5-2.1L29,62.2c-0.5-0.5-1.2-0.8-1.9-0.7c-0.9,0.1-1.8,0.6-2.3,1.4c-0.5,0.9-0.7,1.9-0.7,2.9
					c0.3,1.9,2.7,2.3,4.3,2.2c2.7-0.2,3.8-2.9,4.3-5.2c0.7-3.5,1.1-7,1.2-10.6C33.9,51.7,33.1,51.8,33.1,52.3L33.1,52.3z"/>
				<path d="M32.9,52.3c-0.1,3-0.4,6.1-0.9,9.1c-0.3,1.7-0.6,3.8-2,5c-0.9,0.8-2.3,0.8-3.4,0.4c-0.7-0.2-1.3-0.6-1.4-1.4
					c0-0.6,0.1-1.2,0.4-1.8c0.3-0.6,0.9-1,1.5-1.1c0.3,0,1,0.1,1.1,0.5c0.1,0.4-0.4,0.5-0.5,0.8c-0.3,0.7,0.6,1,1.1,0.7
					c0.7-0.5,0.9-1.4,0.5-2.1c-0.4-0.8-1.4-1.1-2.2-1.1c-2.2,0.1-3.5,2.5-3.1,4.5c0.3,1.7,2.3,2.3,3.8,2.4c2,0.1,3.5-1,4.3-2.8
					c0.5-1.1,0.8-2.3,1-3.5c0.3-1.6,0.5-3.3,0.7-5c0.1-0.8,0.2-1.7,0.2-2.5c0-0.5,0.1-1,0.1-1.5c0-0.3,0-0.6,0-0.9
					c-0.1-0.3-0.5-0.5-0.8-0.3C33.1,51.8,33,52,32.9,52.3c0,0,0,0.1,0.1,0.2c0,0,0.1,0,0.1,0l0,0c0.2,0,0.1-0.4-0.1-0.4l0,0l0.2,0.2
					c0-0.1,0.2-0.4,0.4-0.3c0.2,0.1,0.1,0.3,0.1,0.4c0,0.4,0,0.7,0,1.1c0,0.7-0.1,1.4-0.1,2.1c-0.1,1.4-0.3,2.9-0.5,4.3
					c-0.3,2.1-0.6,4.5-1.8,6.3c-1.2,1.6-3.2,2-5,1.4c-0.9-0.3-1.7-0.8-1.9-1.8c-0.1-1.2,0.3-2.5,1.1-3.4c0.8-0.8,2.5-1.1,3.4-0.2
					c0.5,0.5,0.5,1.3,0,1.8l-0.1,0.1c-0.1,0.2-0.3,0.1-0.6-0.2c0,0,0.1-0.1,0.2-0.1c0.1-0.2,0.2-0.3,0.3-0.5
					c0.2-0.8-0.6-1.1-1.3-1.2c-0.8,0-1.5,0.4-1.9,1.1c-0.4,0.7-0.6,1.6-0.6,2.4c0.1,0.8,0.7,1.2,1.4,1.5c1.6,0.6,3.4,0.3,4.5-1.1
					c1.1-1.4,1.3-3.2,1.6-4.8c0.5-3,0.8-5.9,0.9-8.9C33.3,52,32.9,52,32.9,52.3z"/>
				<path d="M36.7,52.8c-0.1,2.6,0,5.3,0.1,7.9c0.1,2.4,0.2,5,0.8,7.3c0.5,1.8,1.9,3.7,3.8,3.9c1.6,0.2,3.3-1.3,3.8-2.7
					c0.2-0.5-0.7-0.7-0.8-0.2c-0.3,0.8-0.9,1.5-1.7,1.8c-0.8,0.4-1.6,0.3-2.3-0.2c-1.7-1.1-2.2-3.3-2.4-5.2
					c-0.5-4.2-0.6-8.4-0.5-12.6C37.6,52.2,36.8,52.2,36.7,52.8L36.7,52.8z"/>
				<path d="M36.6,52.8c-0.1,2.3,0,4.6,0.1,6.9c0.1,2,0.1,4,0.4,6c0.2,1.7,0.6,3.3,1.7,4.7c0.9,1.1,2.3,1.9,3.7,1.6
					c0.8-0.2,1.5-0.6,2-1.2c0.4-0.4,1-1.2,1-1.8c0-0.3-0.3-0.6-0.6-0.6c0,0-0.1,0-0.1,0c-0.2,0-0.3,0.2-0.4,0.3
					c-0.2,0.5-0.5,0.9-0.9,1.3c-1.9,1.8-4-0.2-4.7-2.2c-0.6-1.9-0.7-3.9-0.8-5.9c-0.2-2.5-0.3-5-0.2-7.5c0-0.6,0.1-1.2,0-1.8
					c0-0.2-0.1-0.4-0.3-0.5c-0.2-0.1-0.4-0.1-0.6,0c-0.1,0-0.2,0.1-0.2,0.2c0,0-0.2,0.3-0.1,0.2c-0.2,0.1,0,0.4,0.2,0.3
					c0.2-0.1,0.1-0.5,0.4-0.4c0.3,0.1,0.1,1.2,0.1,1.4c0,1,0,1.9,0,2.9c0,1.9,0.1,3.9,0.3,5.8c0.2,2.6,0.2,6.2,2.6,7.9
					c1.1,0.8,2.7,0.7,3.6-0.4c0.2-0.2,0.4-0.4,0.5-0.7c0.1-0.1,0.1-0.3,0.2-0.4c0.3-0.5,0.6-0.4,0.5,0.1c-0.2,0.8-1,1.6-1.7,2
					c-1.5,0.9-3.2,0.2-4.3-1.1s-1.4-2.9-1.7-4.5c-0.3-2.1-0.3-4.2-0.4-6.3c-0.1-2.2-0.1-4.4,0-6.7c0-0.1-0.1-0.2-0.2-0.2
					S36.6,52.7,36.6,52.8z"/>
				<path class="st8" d="M35,38.1c0.3-1,0.2-2.7,1.7-2.6c0.5,0,0.5-0.8,0-0.9c-0.7-0.1-1.4,0.3-1.8,0.9c-0.5,0.7-0.4,1.6-0.7,2.4
					C34,38.4,34.9,38.6,35,38.1L35,38.1z"/>
				<path class="st8" d="M38.2,35.1c0.2,0.1,0.5-0.1,0.5-0.3c0.1-0.2-0.1-0.5-0.3-0.5c-0.2-0.1-0.5,0.1-0.5,0.3
					C37.8,34.8,38,35,38.2,35.1L38.2,35.1z"/>
				<path d="M45.6,39.1l4-2.4c0.2-0.1,0-0.5-0.2-0.4l-4,2.4C45.2,38.9,45.4,39.3,45.6,39.1z"/>
				<path d="M45.8,39.5l3.9-2.3c0.1-0.1,0.2-0.1,0.3-0.2c0.2-0.3,0.1-0.7-0.2-0.8c-0.1,0-0.2-0.1-0.3-0.1c-0.3,0-0.5,0.2-0.7,0.3
					l-2.5,1.5l-1,0.6c-0.2,0.1-0.3,0.2-0.4,0.4c-0.1,0.2,0,0.4,0.2,0.6C45.3,39.6,45.6,39.6,45.8,39.5l-0.6-0.4l0,0
					c-0.1,0.5,0.6,0.7,0.7,0.2l0,0c0.1-0.2-0.1-0.4-0.3-0.5c-0.1,0-0.2,0-0.3,0c0,0,0.2,0,0.2,0.1c0,0.1,0,0.2-0.1,0.2l0,0
					c0,0,0.1,0,0.1,0c0.1,0,0.2-0.1,0.3-0.1l0.9-0.6l2.2-1.3l0.3-0.2c0.1,0,0.1-0.1,0.2-0.1c0,0,0.5,0-0.1,0c-0.3,0,0-0.2-0.1-0.3h0
					c-0.1,0-0.2,0.1-0.2,0.1l-2,1.2l-1.7,1c-0.2,0.1-0.2,0.3-0.1,0.5S45.6,39.6,45.8,39.5z"/>
				<path d="M45.7,42.1c1.2-0.4,2.5-0.6,3.8-0.8c0.3,0,0.3-0.5,0-0.4c-1.3,0.2-2.6,0.5-3.9,0.8c-0.1,0-0.2,0.2-0.1,0.3c0,0,0,0,0,0
					C45.5,42.1,45.6,42.1,45.7,42.1z"/>
				<path d="M45.8,42.5c0.8-0.2,1.5-0.4,2.3-0.6c0.4-0.1,0.8-0.1,1.2-0.2c0.4-0.1,0.6-0.1,0.8-0.5c0.1-0.3-0.1-0.6-0.4-0.7
					c-0.2,0-0.4,0-0.5,0c-0.2,0-0.4,0.1-0.6,0.1c-0.8,0.1-1.5,0.3-2.3,0.5c-0.4,0.1-1,0.1-1.1,0.6c-0.1,0.2,0,0.4,0.1,0.6
					C45.4,42.5,45.6,42.5,45.8,42.5c0.2-0.1,0.3-0.3,0.3-0.5c0,0,0,0,0,0c-0.1-0.2-0.3-0.3-0.5-0.3c0.1,0.1,0.2,0.2,0.1,0.3l0.1,0
					l0.2-0.1l0.5-0.1c0.3-0.1,0.7-0.2,1-0.2l1.1-0.2l0.5-0.1c0.1,0,0.2,0,0.2,0s-0.2,0-0.2-0.2v0c0-0.1,0.1-0.1,0.1-0.1
					c-0.1,0-0.1,0-0.2,0L48.7,41c-0.3,0.1-0.7,0.1-1,0.2c-0.7,0.1-1.4,0.3-2.1,0.5c-0.2,0.1-0.3,0.3-0.3,0.5
					C45.4,42.4,45.6,42.5,45.8,42.5z"/>
				<path d="M29.7,36.9l-3.3-3l-0.1-0.1c-0.2-0.2-0.6-0.2-0.8,0c-0.1,0.1-0.2,0.4-0.2,0.6c0.1,0.3,0.3,0.4,0.5,0.6l2,1.9l0.9,0.8
					c0.1,0.1,0.1,0.1,0.2,0.2c0.3,0.1,0.6,0.1,0.8-0.2C29.9,37.4,29.9,37.1,29.7,36.9c-0.1-0.2-0.4-0.2-0.5,0
					c-0.1,0.1-0.1,0.4,0,0.5c-0.2-0.2,0.2-0.3,0.2-0.2l0,0c0,0,0,0-0.1-0.1l-0.2-0.2l-0.8-0.7l-1.8-1.7l-0.3-0.3L26,34.1l0,0v0.1
					c0.1,0.1,0,0.2-0.2,0.2l-0.1,0l0,0c0,0,0,0,0,0l0.2,0.2l1.8,1.6l1.4,1.3C29.5,37.7,30.1,37.2,29.7,36.9z"/>
				<path d="M28.8,39.6c-0.7-0.4-1.4-0.7-2.1-1c-0.4-0.2-0.7-0.3-1.1-0.4s-0.7-0.4-1-0.1c-0.2,0.2-0.3,0.5-0.1,0.8
					c0.1,0.1,0.2,0.2,0.4,0.3l0.5,0.2c0.7,0.3,1.4,0.6,2.1,1c0.2,0.1,0.4,0.2,0.6,0.3c0.2,0.1,0.4,0.2,0.6,0.1
					c0.3-0.1,0.5-0.4,0.4-0.8C29.1,39.8,29,39.7,28.8,39.6c-0.2-0.1-0.4,0-0.5,0.1c-0.1,0.2,0,0.4,0.1,0.5c-0.1-0.2-0.1-0.3,0.1-0.3
					c0,0-0.1,0-0.1,0l-0.3-0.1l-0.4-0.2c-0.3-0.2-0.6-0.3-1-0.5c-0.3-0.1-0.7-0.3-1-0.4l-0.5-0.2c-0.1,0-0.2-0.1-0.2-0.1
					c0,0,0.1,0.1,0.1,0.1c0,0.1-0.2,0.1-0.2,0.2s0,0,0,0h0.1l0.5,0.2c0.3,0.1,0.6,0.3,1,0.4c0.7,0.3,1.3,0.6,1.9,0.9
					C28.9,40.5,29.2,39.8,28.8,39.6z"/>
				<path d="M28.4,42.6c-1,0.1-1.9,0.1-2.9,0.2c-0.3,0-0.5,0.2-0.6,0.4c-0.1,0.3,0.1,0.6,0.4,0.7c0.2,0,0.4,0,0.5,0l1.9-0.2
					c0.2,0,0.4,0,0.6,0c0.3,0,0.6-0.3,0.6-0.6C29,42.9,28.7,42.7,28.4,42.6C28.4,42.6,28.4,42.6,28.4,42.6c-0.2,0-0.3,0.1-0.4,0.3
					l0,0c0,0.2,0.1,0.4,0.3,0.5c0.2,0.1,0.4-0.1,0.5-0.3l0,0l-0.4,0.3c0.1,0,0,0,0,0c0,0-0.1,0-0.1,0c0,0,0-0.1,0-0.1c0,0,0,0.1,0,0
					c0-0.1,0-0.1,0,0c0,0,0-0.1,0-0.1c0,0,0,0,0.1,0c0,0,0,0,0,0h0.1c0,0-0.1,0-0.1,0l-0.6,0l-1.7,0.1c-0.1,0-0.3,0-0.4,0l0,0
					c0,0,0,0,0,0c0,0,0.1,0,0.1,0c0.1,0,0.1,0.1,0,0.2c0,0,0,0,0,0c0,0-0.1,0-0.1,0c0.1,0,0,0,0,0h0l1.4-0.1l1.4-0.1
					c0.2,0,0.4-0.2,0.4-0.4C28.7,42.8,28.6,42.7,28.4,42.6C28.4,42.6,28.4,42.6,28.4,42.6z"/>
			</g>
		</g>
		<path d="M92.6,51c0,20.1-16.4,36.4-36.5,36.4C36,87.4,19.7,71,19.7,50.9s16.4-36.4,36.5-36.4c18,0,33.2,13.1,36,30.9
			C92.5,47.2,92.6,49.1,92.6,51c0,0.4,0.3,0.7,0.7,0.7s0.7-0.3,0.7-0.7C94.1,29.9,77,12.9,56,12.9S17.9,29.9,17.9,51
			C17.9,72,34.9,89.1,56,89.1c18.8,0,34.8-13.7,37.7-32.2c0.3-1.9,0.5-3.9,0.5-5.9c0-0.4-0.3-0.7-0.7-0.7S92.6,50.6,92.6,51z"/>
	</g>
</g>
</svg>
