<?xml version="1.0" encoding="utf-8"?>
<!-- Generator: Adobe Illustrator 24.2.0, SVG Export Plug-In . SVG Version: 6.00 Build 0)  -->
<svg version="1.1" id="Layer_1" xmlns="http://www.w3.org/2000/svg" xmlns:xlink="http://www.w3.org/1999/xlink" x="0px" y="0px"
	 viewBox="0 0 112 102" style="enable-background:new 0 0 112 102;" xml:space="preserve">
<style type="text/css">
	.st0{fill:#E66869;}
	.st1{fill:#F0A4A5;}
	.st2{fill:#F7CBCA;}
	.st3{fill:#7DC4CA;}
	.st4{fill:#EDC043;}
	.st5{fill:#183E41;}
	.st6{fill:#FFFFFF;}
</style>
<g>
	<g id="Fondos_y_letras">
		<path class="st0" d="M74.1,2.7H37.9c-6,0-11.6,3.2-14.6,8.4L5.2,42.5c-3,5.2-3,11.7,0,16.9l18.1,31.4c3,5.2,8.6,8.4,14.6,8.4h36.2
			c6,0,11.6-3.2,14.6-8.4l18.1-31.4c3-5.2,3-11.7,0-16.9L88.7,11.2C85.7,6,80.1,2.7,74.1,2.7z"/>
		<path d="M74.1,2H39c-2.4-0.1-4.7,0.3-6.9,1c-4,1.4-7.3,4.2-9.5,7.9c-0.6,1.1-1.3,2.2-1.9,3.3L12,29.3L4.9,41.6
			c-1.6,2.7-2.6,5.8-2.7,8.9c-0.1,3.4,0.8,6.8,2.6,9.7l6.9,11.9l8.9,15.3c0.7,1.2,1.4,2.4,2.1,3.6c1.9,3.4,5,6.1,8.6,7.6
			c4.2,1.8,8.9,1.3,13.3,1.3h18.4c3.7,0,7.5,0,11.2,0c4.5,0,8.8-1.7,12.1-4.8c1.5-1.5,2.8-3.2,3.9-5.1l7.7-13.3l8.4-14.6
			c0.6-1.1,1.3-2.1,1.8-3.3c2.4-4.9,2.5-10.5,0.2-15.4c-0.6-1.2-1.3-2.4-1.9-3.5l-3.6-6.3l-9.3-16.1l-3.2-5.5c-1-1.8-2.2-3.5-3.6-5
			C83.2,3.9,78.8,2,74.1,2c-0.4,0-0.7,0.3-0.7,0.7s0.3,0.7,0.7,0.7c4.7,0,9.2,2.1,12.3,5.7c1,1.3,1.9,2.6,2.6,4L97,27l8.1,13.9
			c0.8,1.2,1.5,2.5,2.1,3.8c1.9,4.7,1.6,9.9-0.9,14.3c-1.8,3.2-3.6,6.3-5.5,9.5l-9.1,15.7l-3,5.2c-1.1,2-2.5,3.8-4.1,5.2
			c-3,2.5-6.7,3.8-10.6,3.8H38.6c-2.7,0.1-5.4-0.5-7.8-1.6c-3-1.5-5.4-3.8-7.1-6.7L17.3,79L8.4,63.6L6,59.4
			c-1.8-3.1-2.6-6.6-2.3-10.2C4.2,44.7,7,40.8,9.2,37l9.1-15.8c1.9-3.2,3.7-6.4,5.6-9.6c2.2-3.7,5.7-6.5,9.9-7.6
			c1.8-0.4,3.7-0.6,5.6-0.5h34.7c0.4,0,0.7-0.3,0.7-0.7C74.8,2.3,74.5,2,74.1,2z"/>
		<circle class="st1" cx="56" cy="51" r="42.4"/>
		<path d="M97.7,51c0,22.9-18.6,41.4-41.5,41.4S14.7,73.8,14.7,50.9C14.8,28,33.3,9.4,56.2,9.5c20.4,0,37.8,14.9,40.9,35.1
			C97.5,46.7,97.7,48.8,97.7,51c0,0.4,0.3,0.7,0.7,0.7c0.4,0,0.7-0.3,0.7-0.7C99.1,27.1,79.8,7.8,56,7.8
			c-23.8,0-43.2,19.3-43.2,43.2c0,23.8,19.3,43.2,43.2,43.2c21.3,0,39.4-15.5,42.7-36.6c0.3-2.2,0.5-4.4,0.5-6.6
			c0-0.4-0.3-0.7-0.7-0.7C98,50.3,97.7,50.6,97.7,51z"/>
		<circle class="st2" cx="56" cy="51" r="36.5"/>
		<path d="M91.8,51c0,19.7-16,35.7-35.7,35.6c-19.7,0-35.7-16-35.6-35.7c0-19.7,16-35.7,35.7-35.6c17.6,0,32.5,12.8,35.2,30.2
			C91.7,47.3,91.8,49.1,91.8,51c0,0.4,0.3,0.7,0.7,0.7c0.4,0,0.7-0.3,0.7-0.7c0-20.6-16.7-37.3-37.3-37.3S18.7,30.4,18.7,51
			S35.4,88.3,56,88.3c18.4,0,34-13.4,36.8-31.5c0.3-1.9,0.4-3.8,0.4-5.8c0-0.4-0.3-0.7-0.7-0.7C92.1,50.3,91.8,50.6,91.8,51z"/>
	</g>
	<g id="_6._emoticon">
		<path class="st3" d="M82,36.7c0.9,0.5,0.5,4.2-1.7,3.7c-6.1-1.3-24.7-20.8-49.1,0.5c-0.9,0.8-3.2-2.4-2.4-3.1
			C46.6,23.2,62.5,26,82,36.7z"/>
		<path d="M81.7,37.4C81.6,37.3,81.7,37.4,81.7,37.4c0,0.1,0.1,0.2,0.1,0.3c0,0.3,0,0.5,0,0.8c-0.1,0.5-0.3,1.2-0.9,1.2
			c-0.4,0-0.7-0.1-1-0.2c-0.3-0.1-0.7-0.3-1-0.4c-2-1-4-2.2-6-3.3c-5.8-3.1-12-5.5-18.6-5.4c-4.2,0.1-8.3,1-12.1,2.7
			c-2.3,1-4.5,2.3-6.6,3.7c-1.2,0.8-2.3,1.7-3.4,2.5c-0.4,0.3-1,1-1.3,1.2c0.1,0,0,0,0,0s-0.2-0.2-0.3-0.2c-0.5-0.4-0.9-1-1.1-1.7
			c0,0,0-0.2,0-0.1c0-0.2,0,0,0,0c-0.2,0.1,0.4-0.3,0.3-0.3c0.6-0.5,1.2-0.9,1.8-1.4c2-1.5,4.2-2.9,6.5-4.1c4-2.1,8.4-3.5,13-3.9
			c9.5-0.8,18.7,2.6,27,6.8C79.2,36.1,80.5,36.7,81.7,37.4c0.8,0.5,1.6-0.8,0.7-1.2c-8.9-4.9-18.8-9.3-29.2-9.1
			c-4.8,0.1-9.4,1.2-13.8,3.2c-2.4,1.1-4.7,2.4-6.9,3.9c-1.2,0.8-2.4,1.7-3.6,2.7c-0.4,0.3-0.8,0.6-1,1c-0.1,0.4-0.1,0.8,0.1,1.1
			c0.4,1.2,1.7,3.3,3.2,2.8c0.6-0.2,1.1-0.8,1.5-1.2c0.6-0.5,1.2-1,1.8-1.5c1.1-0.9,2.3-1.7,3.5-2.4c4-2.5,8.5-4.2,13.2-4.7
			c7.1-0.7,13.9,1.5,20.1,4.8c2.1,1.2,4.2,2.5,6.4,3.6c0.8,0.5,1.7,0.8,2.7,0.9c1.7,0,2.6-1.9,2.5-3.4c0-0.7-0.3-1.3-0.8-1.7
			C81.6,35.6,80.9,36.9,81.7,37.4z"/>
		<path class="st4" d="M72.7,62.5c0,5-0.4,8.9-4.4,11.2c-3.4,1.9-19,2.4-23.3-0.1c-3.5-2-4.5-6.8-4.5-11.1c0-8.9,7.2-16.1,16.1-16.1
			S72.7,53.6,72.7,62.5z"/>
		<path d="M72,62.5c0,3.2,0,6.9-2.4,9.3c-1.7,1.7-3.7,2-6,2.4c-2.9,0.4-5.9,0.5-8.8,0.4c-2.6-0.1-5.4-0.2-7.9-1
			c-3-0.9-4.5-3.6-5.1-6.5c-0.8-3.4-0.6-7,0.6-10.4c3.2-7.9,12.1-11.7,20-8.5c5,2,8.5,6.4,9.4,11.7C72,60.8,72,61.6,72,62.5
			c0,0.4,0.4,0.7,0.8,0.7s0.7-0.3,0.7-0.7c0-9.3-7.5-16.8-16.8-16.8c-5.8,0-11.3,3-14.3,8c-1.9,3.2-2.8,7-2.4,10.7
			c0.3,3.7,1.4,7.9,4.8,9.9c2.2,1.3,5,1.5,7.4,1.7c3.3,0.2,6.5,0.2,9.8-0.1c1.4-0.1,2.7-0.3,4.1-0.6c1-0.2,1.9-0.5,2.7-0.9
			c1.5-0.9,2.8-2.2,3.5-3.8c0.7-1.6,1.1-3.4,1.1-5.1c0.1-1,0.1-2,0.1-3c0-0.4-0.3-0.7-0.7-0.7S72,62.1,72,62.5z"/>
		<path class="st4" d="M68.8,34.9c-1,5-1.8,9.1-2.8,14c-1.3-0.2-2.4-1.1-3.4-2.1c1.2-5.2,1.9-7.5,3.1-12.9"/>
		<path d="M68.1,34.7c-1,4.7-1.8,9.4-2.8,14l0.9-0.5c-1.3-0.2-2.2-1-3.1-1.9l0.2,0.7c1-4.3,2.2-8.6,3.1-12.9
			c0.2-0.9-1.2-1.3-1.4-0.4c-0.6,2.9-1.3,5.8-2.1,8.8c-0.2,0.7-0.4,1.5-0.5,2.2L62.1,46c-0.1,0.4-0.3,0.8-0.1,1.2
			c0.3,0.6,1.1,1.1,1.6,1.5c0.6,0.5,1.4,0.8,2.2,0.9c0.4,0.1,0.8-0.1,0.9-0.5c1-4.7,1.8-9.4,2.8-14C69.7,34.2,68.2,33.8,68.1,34.7
			L68.1,34.7z"/>
		<path class="st4" d="M39.4,35.7c-0.8-0.1-1.5-0.5-1.9-1.1c-0.6-1-0.8-1.9,0.4-3.2c1.1-1.3,5.8-3.2,6.7-3c0.8,0.2,1.5,0.7,1.9,1.4
			c0.4,0.8,0.3,1.7-0.1,2.4C46,33.2,39.9,35.8,39.4,35.7z"/>
		<path d="M39.5,35c-0.9-0.1-1.7-0.7-1.8-1.6c-0.1-0.7,0.6-1.5,1.1-1.9c1.4-1,2.9-1.7,4.5-2.1c0.3-0.1,0.6-0.2,0.9-0.2
			c-0.2,0,0.1,0,0.2,0c0.2,0-0.2,0,0,0c0.1,0,0.3,0.1,0.5,0.2c0.9,0.4,1.4,1.5,1,2.4c0,0,0,0,0,0.1c0,0.1-0.1,0.1-0.1,0.2
			c0.1-0.2,0.1-0.1,0,0s-0.1,0.1-0.2,0.2c0.1-0.1-0.2,0.1-0.2,0.1l-0.4,0.3c-0.7,0.4-1.4,0.7-2,1.1c-0.7,0.3-1.5,0.7-2.3,1
			c-0.3,0.1-0.6,0.2-0.9,0.3L39.4,35c-0.2,0.1,0.1,0,0,0c-0.9-0.1-0.9,1.4,0,1.5c0.5,0,1.1-0.2,1.6-0.4c0.9-0.3,1.7-0.7,2.6-1.1
			c0.8-0.4,1.6-0.8,2.4-1.2c0.7-0.4,1.2-1,1.5-1.8c0.4-1.3-0.1-2.8-1.3-3.6c-0.8-0.6-1.7-0.7-2.7-0.5c-1,0.3-1.9,0.6-2.8,1
			c-0.9,0.4-1.8,0.9-2.6,1.5c-1,0.8-1.9,2-1.7,3.3c0.2,1.5,1.4,2.6,2.9,2.8c0.4,0.1,0.8-0.1,0.9-0.5C40.2,35.6,39.9,35.1,39.5,35
			C39.5,35,39.5,35,39.5,35z"/>
		<path class="st4" d="M63.9,33.1c-0.5-0.6-0.8-1.3-0.7-2.1c0.2-1.1,0.7-1.9,2.5-2.1c1.7-0.2,6.4,1.5,7,2.3c0.5,0.7,0.7,1.5,0.5,2.3
			c-0.2,0.8-0.9,1.5-1.7,1.8C70.5,35.7,64.3,33.6,63.9,33.1z"/>
		<path d="M64.4,32.6c-0.6-0.7-0.6-1.6-0.1-2.4c0.4-0.6,1.3-0.7,2-0.6c1.6,0.2,3.2,0.6,4.7,1.3c0.3,0.1,0.6,0.3,0.9,0.5l0.2,0.1
			c-0.1-0.1,0,0,0,0c0,0,0.1,0.1,0.1,0.1c-0.1-0.1-0.1-0.1,0,0.1c0.1,0.2,0.1,0.2,0.2,0.3c0.4,0.9,0.1,2-0.8,2.4
			c-0.1,0.1-0.2,0.1-0.3,0.2s-0.2,0,0,0c-0.1,0-0.2,0-0.3,0c-0.3,0-0.5,0-0.8-0.1c-0.8-0.1-1.5-0.4-2.3-0.6
			c-0.8-0.2-1.6-0.5-2.4-0.8l-0.5-0.2c-0.1,0-0.1,0-0.3-0.1C64.7,32.7,64.6,32.7,64.4,32.6L64.4,32.6C64.3,32.5,64.6,32.7,64.4,32.6
			c-0.6-0.7-1.6,0.3-1,1c0.5,0.4,1,0.6,1.6,0.8c0.9,0.3,1.8,0.6,2.7,0.9c0.8,0.3,1.7,0.5,2.6,0.6c0.8,0.2,1.7,0,2.4-0.5
			c1.1-0.8,1.6-2.3,1.2-3.6c-0.3-0.9-0.9-1.6-1.8-2c-1-0.5-2-0.8-3-1.1c-0.9-0.3-1.9-0.5-2.9-0.6c-1.2,0-2.5,0.4-3.2,1.4
			c-0.8,1.3-0.6,2.9,0.4,4.1c0.3,0.3,0.8,0.3,1,0C64.7,33.3,64.7,32.9,64.4,32.6L64.4,32.6z"/>
		<path class="st4" d="M41.2,35.4c1.4,5.3,3.5,9.4,5.2,14.3c1-0.9,2.1-1.6,3.4-2.1c-2-4.8-3-8.3-4.9-13.6"/>
		<path d="M40.4,35.6c1.3,4.9,3.6,9.5,5.2,14.3c0.1,0.4,0.5,0.6,0.9,0.5c0.1,0,0.2-0.1,0.3-0.2c0.9-0.8,1.9-1.4,3-1.9
			c0.3-0.1,0.7-0.5,0.5-0.9c-1.8-4.4-3.2-9-4.9-13.6c-0.3-0.9-1.7-0.5-1.4,0.4c1.6,4.5,3.1,9.1,4.9,13.6l0.5-0.9
			c-1.3,0.5-2.6,1.3-3.7,2.3l1.2,0.3c-1.7-4.8-3.9-9.4-5.2-14.3c-0.1-0.4-0.5-0.6-0.9-0.5C40.6,34.8,40.4,35.2,40.4,35.6L40.4,35.6z
			"/>
		
			<rect x="29.4" y="32.8" transform="matrix(0.7991 -0.6013 0.6013 0.7991 -16.2424 26.6902)" class="st3" width="4.9" height="9.7"/>
		<rect x="74.4" y="35.3" transform="matrix(0.4662 -0.8847 0.8847 0.4662 8.9215 90.2196)" class="st3" width="9.7" height="4.9"/>
		<path d="M28.3,32c-0.4,0.3-0.7,0.6-1,1c-0.1,0.1-0.1,0.1-0.2,0.2c0,0.1-0.1,0.2-0.1,0.3c0,0.1,0,0.2,0.1,0.3
			c0,0.1,0.1,0.2,0.2,0.2c0.1,0.1,0.3,0.2,0.5,0.2l0.2,0c0.1,0,0.2-0.1,0.3-0.2c0.2-0.3,0.5-0.6,0.8-0.8l-0.2,0.1l0.1,0
			c0.1,0,0.2-0.1,0.2-0.2c0.1-0.1,0.1-0.2,0.1-0.2c0-0.1,0-0.2,0-0.3c0-0.1,0-0.2-0.1-0.3C29.2,32.2,29,32,28.8,32h-0.2
			C28.5,32,28.4,32,28.3,32L28.3,32z"/>
		<path class="st5" d="M33.3,36.7c-1.1,0.8-2.2,1.7-3.2,2.6c0,0.1,2.4,3.2,2.7,3.7c1.1-0.8,2.8-2.1,3.9-2.9c0.1-0.1-2.5-3-2.9-3.4"
			/>
		<path class="st5" d="M32.9,36c-0.7,0.5-1.3,1-2,1.6c-0.5,0.4-0.9,0.7-1.3,1.2c-0.5,0.5,0,1,0.3,1.5l1.2,1.7c0.4,0.5,0.7,0.9,1,1.5
			c0.2,0.3,0.7,0.5,1,0.3l2.2-1.7l1.2-0.9c0.4-0.3,0.9-0.5,0.9-1s-0.5-0.9-0.8-1.3c-0.4-0.5-0.8-1-1.3-1.5c-0.3-0.4-0.7-0.8-1.1-1.2
			c-0.3-0.3-0.7-0.3-1,0c-0.3,0.3-0.3,0.7,0,1c0.6,0.5,1.1,1.1,1.5,1.7c0.3,0.3,0.6,0.7,0.9,1l0.2,0.2c0.1,0.1,0,0,0,0l0.1,0.1
			l0.1,0.1c0,0,0,0,0,0.1c-0.1-0.1,0-0.6,0-0.7l0.3-0.3c-1.3,1-2.6,1.9-3.9,2.9l1,0.3c-0.4-0.7-0.9-1.3-1.4-1.9
			c-0.3-0.4-0.6-0.8-0.8-1.1l-0.3-0.4c0,0-0.1-0.1-0.1-0.1c0,0,0-0.2,0,0.1v0.4c-0.1,0.4-0.2,0.4,0,0.2l0.3-0.3
			c0.3-0.2,0.5-0.5,0.8-0.7c0.3-0.2,0.6-0.5,1-0.8c0.3-0.3,0.5-0.4,0.8-0.6c0.3-0.2,0.5-0.7,0.3-1C33.7,35.9,33.2,35.8,32.9,36
			L32.9,36z"/>
		<path class="st5" d="M79.6,32.8c1,0.7,3.1,1,3.9,1.9c0,0.1-2.2,3.9-2.4,4.4c-1.1-0.8-2.8-1.6-3.9-2.4c-0.1-0.1,2-4,2.4-4.4"/>
		<path class="st5" d="M79.2,33.4c0.6,0.4,1.3,0.7,2.1,0.9c0.6,0.2,1.2,0.5,1.7,0.9l-0.2-0.3l0,0v-0.4c0,0.1,0.1-0.2,0-0.1
			s0,0.1-0.1,0.2c-0.1,0.2-0.2,0.3-0.3,0.5c-0.3,0.5-0.5,0.9-0.8,1.4c-0.4,0.8-0.8,1.5-1.3,2.3l1-0.3c-1.2-0.9-2.7-1.5-3.9-2.4
			l0.3,0.3c0,0.1,0.1,0.4,0.1,0.5c0,0,0,0,0-0.1c0,0,0-0.1,0-0.1c0-0.1-0.1,0.2,0,0c0.1-0.1,0.2-0.3,0.2-0.5
			c0.2-0.5,0.5-0.9,0.7-1.4s0.5-0.9,0.8-1.3c0.1-0.2,0.2-0.3,0.3-0.5c0.1-0.1,0.2-0.2,0-0.1c0,0,0.1-0.1,0.1-0.1
			c0.7-0.6-0.3-1.7-1-1c-0.3,0.4-0.6,0.7-0.8,1.2c-0.3,0.6-0.7,1.2-1,1.7c-0.3,0.5-0.5,1-0.8,1.5c-0.1,0.2-0.1,0.4-0.1,0.6
			c0.1,0.5,0.8,0.8,1.2,1c1,0.6,2.1,1.2,3.1,1.9c0.4,0.2,0.8,0.1,1-0.3c0.6-1,1.2-2,1.7-3c0.2-0.4,0.5-0.8,0.7-1.3
			c0.2-0.4,0.1-0.8-0.2-1.1c-0.3-0.3-0.7-0.6-1.1-0.7c-0.9-0.4-2-0.6-2.8-1.2c-0.4-0.2-0.8-0.1-1,0.3C78.7,32.8,78.8,33.2,79.2,33.4
			L79.2,33.4z"/>
		<path d="M36.3,39.4l-3.9,2.9l1,0.3l-5.1-6.8l-0.7-1l-0.3,1l3.9-2.9l-1-0.3l5.1,6.8l0.7,1c0.6,0.7,1.8,0,1.3-0.7l-5.1-6.8l-0.7-1
			c-0.2-0.3-0.6-0.4-1-0.3l-3.9,2.9c-0.3,0.2-0.4,0.6-0.3,1l5.1,6.8l0.7,1c0.2,0.3,0.6,0.4,1,0.3l3.9-2.9
			C37.8,40.1,37.1,38.9,36.3,39.4z"/>
		<path d="M74.4,41.5l4.3,2.3c0.3,0.2,0.8,0.1,1-0.3l3.9-7.5l0.6-1.1c0.2-0.3,0.1-0.8-0.3-1l-4.3-2.3c-0.3-0.2-0.8-0.1-1,0.3l-4,7.5
			l-0.6,1.1c-0.4,0.8,0.8,1.6,1.3,0.7l4-7.5l0.6-1.1l-1,0.3l4.3,2.3l-0.3-1l-4,7.5l-0.6,1.1l1-0.3l-4.3-2.3
			C74.3,39.8,73.6,41.1,74.4,41.5z"/>
		<path d="M77.4,42.3l-0.8-0.4c-0.1-0.1-0.2-0.1-0.3-0.1c-0.1,0-0.2,0-0.3,0c-0.1,0-0.2,0.1-0.2,0.1c-0.1,0-0.1,0.1-0.2,0.2
			c-0.1,0.2-0.1,0.4-0.1,0.6c0.1,0.2,0.2,0.3,0.3,0.4l0.8,0.4c0.1,0.1,0.2,0.1,0.3,0.1c0.1,0,0.2,0,0.3,0c0.2-0.1,0.3-0.2,0.4-0.3
			c0.1-0.2,0.1-0.4,0.1-0.6C77.7,42.6,77.6,42.4,77.4,42.3L77.4,42.3z"/>
		<polygon points="30.3,34.9 29.9,35.2 29.6,34.7 29.2,35 29.6,35.4 29.2,35.7 29.5,36.2 29.9,35.8 30.3,36.3 30.6,36.1 30.2,35.6 
			30.6,35.3 		"/>
		<polygon points="33.8,39.1 33.4,39.4 33.1,39.7 32.7,40 33,40.4 33.4,40.1 33.7,39.8 34.1,39.5 		"/>
		<polygon points="80.2,34.6 80.7,34.9 81,34.3 81.3,34.5 81.1,35.1 81.5,35.3 81.3,35.8 80.8,35.5 80.5,36.1 80.2,35.9 80.5,35.3 
			80,35.1 		"/>
		<polygon points="77.5,39.4 77.9,39.6 78.3,39.8 78.8,40.1 78.5,40.5 78.1,40.3 77.7,40.1 77.3,39.9 		"/>
		<g id="Capa_23">
			<path d="M63.5,52.8l-12.8,5.1l-1.8,0.7c-0.9,0.3-0.5,1.8,0.4,1.4l12.8-5.1l1.8-0.7C64.8,53.9,64.4,52.5,63.5,52.8L63.5,52.8z"/>
			<path d="M64.1,59.2l-12.8-6l-1.8-0.9c-0.8-0.4-1.6,0.9-0.7,1.3l12.8,6l1.8,0.9C64.2,60.8,65,59.6,64.1,59.2z"/>
			<path class="st6" d="M63.7,69.6c0,0.3-14.1,0.3-14.1,0c0.7-5.6,3.2-7,7-7S63.5,65.9,63.7,69.6z"/>
			<path d="M63,69.4c0-0.2,0.4-0.4,0.4-0.5c0,0-0.1,0-0.1,0s0.1,0,0,0h-0.2c-0.3,0-0.6,0-0.9,0.1c-1,0-1.9,0.1-2.9,0.1
				c-2.3,0-4.6,0-6.8,0c-0.8,0-1.6,0-2.4-0.1c-0.1,0-0.2,0-0.3,0s0.1,0.1,0,0c-0.1-0.1-0.1,0-0.1,0c0,0,0.2,0.1,0.1,0.1
				c0.6,0.9,0.3,0.5,0.4,0.2c0.1-0.2,0.1-0.4,0.1-0.6c0.1-0.4,0.2-0.8,0.3-1.2c0.4-2.4,2.6-4.1,5-4c1.7-0.2,3.5,0.4,4.8,1.5
				c1.4,1.2,2.2,2.9,2.4,4.8c0.1,0.9,1.5,0.9,1.5,0c-0.3-3.8-3.1-7.3-7.1-7.7c-2.9-0.3-5.9,0.7-7.3,3.4c-0.4,0.8-0.7,1.6-0.9,2.5
				c-0.1,0.5-0.2,1-0.3,1.5c-0.1,0.4,0,0.7,0.3,0.9c0.5,0.3,1.3,0.2,1.8,0.2c2.5,0.1,5,0.1,7.4,0.1c1.3,0,2.6,0,3.8-0.1
				c0.6,0,1.9,0.1,2.1-0.7C64.6,68.8,63.2,68.4,63,69.4z"/>
			<path d="M52.8,63l-0.1,3.1c-0.1,1-0.1,2.1,0.1,3.1c0.1,0.4,0.5,0.6,0.9,0.5c0.4-0.1,0.6-0.5,0.5-0.9C54,67.9,54,67,54.1,66l0.1-3
				c0-0.4-0.3-0.7-0.7-0.7S52.8,62.6,52.8,63L52.8,63z"/>
			<path d="M57.7,63.1l0,5.7c0,0.4,0.3,0.7,0.7,0.7s0.7-0.3,0.7-0.7l0-5.7c0-0.4-0.3-0.7-0.7-0.7S57.7,62.7,57.7,63.1z"/>
		</g>
	</g>
</g>
</svg>
