<?xml version="1.0" encoding="utf-8"?>
<!-- Generator: Adobe Illustrator 24.2.0, SVG Export Plug-In . SVG Version: 6.00 Build 0)  -->
<svg version="1.1" id="Layer_1" xmlns="http://www.w3.org/2000/svg" xmlns:xlink="http://www.w3.org/1999/xlink" x="0px" y="0px"
	 viewBox="0 0 112 102" style="enable-background:new 0 0 112 102;" xml:space="preserve">
<style type="text/css">
	.st0{fill:#4386C6;}
	.st1{fill:#1D1D1B;}
	.st2{fill:#7DC4CA;}
	.st3{fill:#C2E1E3;}
	.st4{fill:#F7C402;}
	.st5{fill:#183E41;}
	.st6{fill:#FFDA83;}
	.st7{fill:#E1262F;}
</style>
<g>
	<g id="Fondos_y_letras">
		<path class="st0" d="M74.4,2H37.6c-6.1,0-11.8,3.3-14.8,8.6L4.4,42.4c-3.1,5.3-3.1,11.8,0,17.1l18.4,31.8
			c3.1,5.3,8.7,8.6,14.8,8.6h36.8c6.1,0,11.8-3.3,14.8-8.6l18.4-31.8c3.1-5.3,3.1-11.8,0-17.1L89.2,10.6C86.1,5.3,80.5,2,74.4,2z"/>
		<path class="st1" d="M74.4,1.3H38.8c-2.4-0.1-4.8,0.3-7,1c-4,1.4-7.5,4.3-9.6,8c-0.6,1.1-1.3,2.2-1.9,3.3L11.3,29L4.1,41.5
			c-1.7,2.7-2.6,5.8-2.7,9C1.3,54,2.2,57.4,4,60.4l7,12.1L20,88c0.7,1.2,1.4,2.4,2.1,3.6c2,3.4,5,6.1,8.7,7.7
			c4.3,1.8,9,1.4,13.5,1.4H63c3.8,0,7.6,0,11.4,0c4.6,0,8.9-1.8,12.3-4.9c1.6-1.5,2.9-3.3,3.9-5.2l7.8-13.5l8.5-14.8
			c0.6-1.1,1.3-2.2,1.9-3.3c2.4-4.9,2.5-10.7,0.2-15.7c-0.6-1.2-1.3-2.4-2-3.6l-3.7-6.4l-9.4-16.3l-3.2-5.6c-1-1.8-2.2-3.5-3.6-5
			C83.6,3.2,79.1,1.3,74.4,1.3c-0.4,0-0.7,0.3-0.7,0.7s0.3,0.7,0.7,0.7c4.8,0,9.4,2.1,12.5,5.8c1,1.3,1.9,2.7,2.7,4.1l8,13.9
			l8.2,14.1c0.8,1.3,1.5,2.6,2.1,3.9c1.9,4.7,1.6,10.1-0.9,14.5c-1.8,3.2-3.7,6.4-5.5,9.6l-9.2,16l-3,5.2c-1.1,2-2.5,3.8-4.2,5.3
			c-3,2.5-6.8,3.9-10.7,3.9H38.4c-2.7,0.1-5.4-0.5-7.9-1.6c-3-1.5-5.5-3.9-7.2-6.8l-6.5-11.3l-9-15.6l-2.4-4.2
			C3.4,56.4,2.6,52.8,3,49.2c0.5-4.6,3.3-8.5,5.6-12.4l9.2-16c1.9-3.3,3.8-6.5,5.7-9.8c2.2-3.8,5.8-6.6,10.1-7.7
			c1.9-0.4,3.8-0.6,5.7-0.5h35.2c0.4,0,0.7-0.3,0.7-0.7C75.1,1.6,74.8,1.3,74.4,1.3z"/>
		<circle class="st2" cx="56" cy="51" r="43"/>
		<path class="st1" d="M98.3,51c0,23.2-18.9,42.1-42.1,42s-42.1-18.9-42-42.1c0-23.2,18.9-42.1,42.1-42C77,8.9,94.6,24,97.8,44.5
			C98.1,46.7,98.3,48.8,98.3,51c0,0.4,0.3,0.7,0.7,0.7s0.7-0.3,0.7-0.7C99.8,26.8,80.2,7.2,56,7.2c-24.2,0-43.8,19.6-43.8,43.8
			c0,24.2,19.6,43.8,43.8,43.8c21.6,0,40-15.7,43.3-37.1c0.3-2.2,0.5-4.5,0.5-6.7c0-0.4-0.3-0.7-0.7-0.7S98.3,50.6,98.3,51z"/>
		<circle class="st3" cx="56" cy="51" r="37.1"/>
		<path class="st1" d="M92.3,51c0,20-16.3,36.2-36.3,36.1S19.9,70.9,19.9,50.9c0-20,16.3-36.2,36.3-36.1c17.8,0,33,13,35.7,30.6
			C92.2,47.2,92.3,49.1,92.3,51c0,0.4,0.3,0.7,0.7,0.7c0.4,0,0.7-0.3,0.7-0.7c0-20.9-16.9-37.8-37.8-37.8S18.2,30.1,18.2,51
			S35.1,88.8,56,88.8c18.6,0,34.5-13.6,37.4-32c0.3-1.9,0.4-3.9,0.5-5.8c0-0.4-0.3-0.7-0.7-0.7C92.7,50.2,92.3,50.6,92.3,51z"/>
	</g>
	<g id="_4._Acuatico">
		<path class="st4" d="M74.1,49.7c2.8-0.6,4.3-3.6,6.9-4.9c0.9,1.1,0.9,2.8,0.7,4.2c-0.3,1.9-0.9,3.7-1.9,5.4c1.9,1.3,3,3.5,2.9,5.8
			c0,0.2-0.1,0.4-0.2,0.5c-0.2,0.1-0.5,0.1-0.7,0l-6.8-2.4"/>
		<path d="M74.3,50.4c3-0.7,4.5-3.6,7.1-4.9l-1-0.3c0.9,1.2,0.8,2.8,0.5,4.2C80.5,51,80,52.5,79.1,54c-0.2,0.4-0.1,0.8,0.3,1
			c0.8,0.5,1.5,1.3,1.9,2.2c0.2,0.4,0.4,0.9,0.5,1.4c0.1,0.2,0.1,0.5,0.1,0.7c0,0.3,0,0.6,0,0.8c0,0.1,0,0.1,0.1,0
			c0.1-0.1,0.1-0.1,0-0.1c0-0.1-0.3-0.1-0.4-0.2l-0.9-0.3l-1.8-0.6l-3.7-1.3c-0.9-0.3-1.3,1.1-0.4,1.4l4.9,1.7
			c1.1,0.4,3.3,1.6,3.8-0.2c0.2-1.3,0-2.6-0.6-3.8c-0.6-1.2-1.5-2.3-2.6-3l0.3,1c1-1.7,1.6-3.5,1.9-5.4c0.3-1.7,0.3-3.5-0.8-4.9
			c-0.2-0.3-0.7-0.5-1-0.3c-2.4,1.3-4,4.2-6.7,4.8C72.9,49.2,73.3,50.6,74.3,50.4L74.3,50.4z"/>
		<ellipse class="st4" cx="57.8" cy="53.2" rx="16.9" ry="17.2"/>
		<path d="M74,53.2c0,6.8-4.2,13.1-10.6,15.5c-6.5,2.3-13.7,0.3-18-5c-4.4-5.4-4.9-13-1.4-19c3.5-5.9,10.3-8.9,17-7.6
			c6.7,1.4,11.8,6.8,12.9,13.6C73.9,51.4,74,52.3,74,53.2c0,0.4,0.4,0.7,0.8,0.7c0.4,0,0.7-0.3,0.7-0.7c0-7.5-4.6-14.1-11.6-16.8
			c-7.1-2.6-15-0.4-19.7,5.4c-4.7,5.9-5.3,14.1-1.5,20.7c4.9,8.4,15.7,11.2,24.1,6.2c4.6-2.7,7.7-7.4,8.5-12.7
			c0.1-0.9,0.2-1.9,0.2-2.8c0-0.4-0.3-0.7-0.7-0.7S74,52.7,74,53.2z"/>
		<ellipse transform="matrix(0.228 -0.9737 0.9737 0.228 -18.669 90.9358)" class="st5" cx="48" cy="57.2" rx="2.7" ry="4.1"/>
		<path d="M51.5,58c-0.3,1.2-1.8,1.4-2.8,1.4c-1.4,0-2.8-0.6-3.7-1.6c-0.7-0.8-0.7-1.8,0.3-2.4c1.2-0.7,2.8-0.6,4-0.1
			C50.2,55.8,51.8,56.8,51.5,58c-0.1,0.7,0.9,1,1.1,0.3c0.3-1.6-0.9-3-2.2-3.7c-1.6-0.9-3.6-1-5.3-0.3c-1.3,0.5-2,2-1.4,3.4
			c0,0.1,0.1,0.2,0.1,0.2c0.8,1.6,2.7,2.4,4.4,2.6s4-0.3,4.5-2.2c0.1-0.3-0.2-0.6-0.5-0.6C51.9,57.6,51.6,57.8,51.5,58z"/>
		<ellipse transform="matrix(0.228 -0.9737 0.9737 0.228 -18.7327 90.786)" class="st6" cx="47.9" cy="57.2" rx="1.4" ry="2.4"/>
		<path d="M49.8,57.6c-0.2,0.6-1,0.7-1.5,0.7c-0.8,0-1.5-0.3-2.1-0.9c-0.3-0.2-0.3-0.7-0.1-1c0.1-0.1,0.1-0.1,0.2-0.2
			c0.7-0.3,1.5-0.3,2.2,0C49.1,56.5,50,57,49.8,57.6c-0.1,0.5,0.6,0.7,0.7,0.2c0.2-0.9-0.5-1.7-1.3-2.1c-0.9-0.5-2.1-0.6-3.1-0.2
			c-0.7,0.3-1.1,1.1-0.8,1.8c0,0.1,0.1,0.1,0.1,0.2c0.5,0.9,1.6,1.3,2.5,1.5s2.3-0.1,2.6-1.2c0.1-0.2,0-0.4-0.2-0.5
			C50.1,57.3,49.9,57.5,49.8,57.6L49.8,57.6z"/>
		<path d="M65.4,58.1c1.6,0.4,3.3,0.5,4.9,0.3c0.9-0.1,1.1-0.7,1.1-1.5c0-0.8,0-1.6,0-2.3c-0.1-1.6-0.5-3.2-1.1-4.7
			c-0.2-0.6-0.5-1.4-1.2-1.6c-0.7-0.2-1.4,0.2-2,0.5c-1.4,0.7-2.6,1.8-3.4,3.1c-0.4,0.6,0.6,1.2,1,0.6c0.7-1.2,1.8-2.1,3.1-2.7
			c0.3-0.2,0.6-0.3,0.9-0.3c0.2,0,0.2,0,0.3,0.2c0.1,0.2,0.1,0.3,0.2,0.5c0.9,2.2,1.3,4.6,1.1,6.9c0,0.2,0,0.3-0.2,0.4
			c-0.2,0-0.5,0.1-0.7,0.1c-0.4,0-0.8,0-1.2,0c-0.9,0-1.7-0.2-2.5-0.4c-0.3-0.1-0.6,0.1-0.7,0.4C65,57.7,65.2,58,65.4,58.1
			L65.4,58.1z"/>
		<path d="M46.1,62c-1,0.6-2,1.1-3.1,1.6c-0.3,0.2-0.4,0.5-0.2,0.8c0.2,0.3,0.5,0.3,0.8,0.2c1-0.6,2-1.1,3.1-1.6
			c0.3-0.2,0.4-0.5,0.2-0.8C46.7,61.9,46.4,61.8,46.1,62L46.1,62L46.1,62z"/>
		<path d="M47.6,65.4c-0.7,0.8-1.4,1.6-2,2.4c-0.1,0.1-0.1,0.3-0.1,0.4c0.1,0.3,0.4,0.5,0.7,0.4c0.1,0,0.3-0.1,0.3-0.3l0.2-0.3
			c0-0.1-0.1,0.1,0,0l0.1-0.1l0.1-0.1c0.2-0.2,0.3-0.4,0.5-0.6c0.3-0.4,0.7-0.8,1-1.1c0.2-0.2,0.2-0.6,0-0.8
			C48.2,65.2,47.8,65.2,47.6,65.4L47.6,65.4z"/>
		<path d="M51.7,65.5c0,0.5,0.1,1,0.3,1.5c0,0.1,0.1,0.1,0.1,0.2c0,0.1,0.1,0.1,0.2,0.1c0.1,0.1,0.3,0.1,0.4,0.1
			c0.1,0,0.3-0.1,0.3-0.3c0.1-0.1,0.1-0.3,0.1-0.4c-0.1-0.3-0.2-0.6-0.3-0.9v0.1c0-0.1,0-0.3,0-0.4c0-0.1-0.1-0.3-0.2-0.4
			C52.5,65,52.4,65,52.2,65C51.9,65,51.7,65.2,51.7,65.5L51.7,65.5z"/>
		<path d="M54.1,68.4c-0.1,0.1-0.1,0.2-0.2,0.3l-0.1,0.1c0.1-0.1,0,0,0,0c0,0,0,0-0.1,0.1c-0.2,0.2-0.3,0.4-0.5,0.6
			c-0.4,0.4-0.7,0.8-1,1.3c-0.2,0.3-0.1,0.6,0.2,0.8c0.3,0.1,0.6,0.1,0.8-0.2l0.2-0.3c0,0,0.1-0.1,0.1-0.1c-0.1,0.1,0,0,0,0l0.1-0.1
			l0.5-0.6c0.4-0.4,0.7-0.8,1-1.3c0.2-0.3,0.1-0.6-0.2-0.8C54.5,68.1,54.2,68.2,54.1,68.4L54.1,68.4z"/>
		<path d="M56,64.7c0.1,0.1,0.3,0.2,0.4,0.3l-0.1-0.1c0.2,0.2,0.4,0.4,0.6,0.6l-0.1-0.1c0.1,0.1,0.2,0.2,0.2,0.3
			c0.1,0.1,0.2,0.2,0.3,0.3c0.1,0,0.3,0,0.4-0.1c0.3-0.1,0.4-0.5,0.2-0.7c0,0,0,0,0,0c-0.3-0.6-0.8-1-1.4-1.4
			c-0.1-0.1-0.3-0.1-0.4-0.1c-0.1,0-0.3,0.1-0.3,0.3C55.6,64.2,55.7,64.5,56,64.7z"/>
		<path d="M50.3,62.7l-0.7,0.5c-0.1,0.1-0.1,0.1-0.1,0.2c-0.1,0.1-0.1,0.3,0,0.4c0,0.1,0.1,0.1,0.1,0.2c0.1,0.1,0.2,0.2,0.4,0.2h0.1
			c0.1,0,0.2-0.1,0.2-0.1l0.7-0.6c0.1,0,0.1-0.1,0.1-0.2c0-0.1,0.1-0.1,0-0.2c0-0.1,0-0.1,0-0.2c0-0.1-0.1-0.1-0.1-0.2
			c-0.1-0.1-0.2-0.2-0.4-0.2h-0.1C50.5,62.6,50.4,62.6,50.3,62.7z"/>
		<path d="M42.4,57.8c-0.2,0.1-0.3,0.2-0.5,0.3c-0.1,0.1-0.3,0.3-0.4,0.4c-0.1,0.1-0.3,0.3-0.4,0.4c0,0-0.2,0.1,0,0l-0.1,0.1
			c-0.1,0-0.1,0.1-0.2,0.1l0.1-0.1l-0.1,0h0.1h0c-0.1,0-0.3,0.1-0.4,0.2c-0.1,0.1-0.2,0.2-0.2,0.4c0,0.3,0.2,0.6,0.6,0.6
			c0.5-0.1,1-0.4,1.3-0.8c0.2-0.2,0.3-0.3,0.5-0.5l0.1-0.1c0,0,0.2-0.1,0,0c0.1,0,0.1-0.1,0.2-0.1c0.3-0.2,0.4-0.5,0.2-0.8
			C43,57.8,42.7,57.7,42.4,57.8L42.4,57.8z"/>
		<path d="M41.6,53.9L41.6,53.9L41.6,53.9h-0.2l-0.3,0l-0.6-0.1c-0.4-0.1-0.7-0.2-1.1-0.3c-0.3-0.1-0.6,0.1-0.7,0.4
			c-0.1,0.3,0.1,0.6,0.4,0.7c0.8,0.2,1.6,0.4,2.4,0.5c0.1,0,0.3-0.1,0.4-0.2c0.2-0.2,0.2-0.6,0-0.8c0,0,0,0,0,0
			C41.9,54,41.7,53.9,41.6,53.9L41.6,53.9z"/>
		<path d="M61,66.6c0.1,0.3,0.2,0.6,0.4,0.8c0.1,0.1,0.2,0.3,0.3,0.4c0.1,0.1,0.3,0.2,0.4,0.3c0.1,0.1,0.3,0.1,0.4,0.1
			c0.1,0,0.3-0.1,0.3-0.3c0.1-0.1,0.1-0.3,0.1-0.4l-0.1-0.1c0-0.1-0.1-0.2-0.2-0.2l-0.1-0.1l0.1,0.1c-0.2-0.1-0.3-0.3-0.4-0.4
			l0.1,0.1c-0.1-0.2-0.2-0.4-0.3-0.6l0.1,0.1l0-0.1c0-0.1-0.1-0.3-0.3-0.3c-0.1-0.1-0.3-0.1-0.4-0.1c-0.1,0-0.3,0.1-0.3,0.3
			C61,66.3,61,66.5,61,66.6L61,66.6z"/>
		<path d="M58.7,61c0.7-0.2,1.3-0.5,1.9-0.9c0.3-0.2,0.3-0.5,0.1-0.8c-0.2-0.2-0.5-0.3-0.7-0.2c-0.4,0.2-0.8,0.5-1.2,0.6l0.1-0.1
			c-0.2,0.1-0.4,0.2-0.6,0.2c-0.3,0.1-0.5,0.4-0.4,0.7C58.1,60.9,58.4,61,58.7,61z"/>
		<path d="M63.3,62.7l2.2,0.1c0.3,0,0.6-0.3,0.6-0.6c0-0.3-0.3-0.5-0.6-0.6l-2.2-0.1c-0.3,0-0.6,0.3-0.6,0.6
			C62.8,62.5,63,62.7,63.3,62.7z"/>
		<path d="M66,67.7c0.2,0.4,0.4,0.7,0.6,1.1c0.1,0.2,0.2,0.3,0.3,0.5c0,0.1,0.1,0.2,0.1,0.3l0.1,0.2l0,0.1c0-0.1,0-0.1,0-0.2
			l0.1-0.3l0,0l0.3-0.3l0,0l0.4,0.1l0,0l0.2,0.2l0,0l0.1,0.3l0,0l-0.4,0.5l0,0c0.1,0,0.3-0.1,0.3-0.3c0.1-0.1,0.1-0.3,0.1-0.4
			c-0.1-0.3-0.4-0.5-0.7-0.4l0,0c-0.2,0.1-0.4,0.3-0.4,0.5c0,0.3,0.3,0.6,0.6,0.6c0,0,0.1,0,0.1,0c0.3-0.1,0.5-0.4,0.4-0.8
			c-0.1-0.2-0.1-0.3-0.2-0.4l-0.2-0.4c-0.3-0.5-0.5-1-0.8-1.5c-0.2-0.3-0.5-0.4-0.8-0.2S65.9,67.5,66,67.7L66,67.7L66,67.7z"/>
		<path d="M59.7,71.9c-0.1-0.5-0.2-1-0.3-1.5c-0.1-0.3-0.1-0.6-0.2-0.9l-0.1-0.3c0,0,0-0.1,0-0.1c0,0,0,0.1,0,0s0,0,0,0.1
			c0-0.2,0-0.1-0.3,0.3c0.3-0.1,0.4-0.4,0.3-0.7c-0.1-0.3-0.4-0.4-0.6-0.4c-0.3,0.1-0.6,0.4-0.5,0.8c0,0.1,0,0.3,0.1,0.4
			c0.1,0.3,0.1,0.6,0.2,0.9c0.1,0.6,0.2,1.2,0.3,1.8c0.1,0.3,0.4,0.5,0.7,0.4c0,0,0,0,0,0C59.6,72.5,59.8,72.2,59.7,71.9L59.7,71.9z
			"/>
		<path d="M71.7,66.1l-0.3-3.3c0-0.3-0.3-0.5-0.6-0.5c-0.3,0-0.5,0.2-0.5,0.5l0.3,3.3c0,0.3,0.3,0.5,0.6,0.6
			C71.5,66.6,71.7,66.4,71.7,66.1z"/>
		<path d="M75,59.6l-0.3,0h-0.1c-0.1,0,0.1,0,0,0l-0.2,0l-0.9-0.1c-0.5-0.1-1.1-0.2-1.6-0.2c-0.3,0-0.6,0.2-0.6,0.6
			c0,0.3,0.3,0.5,0.6,0.6l0.3,0h0.1h-0.1h0.2l0.9,0.1c0.5,0.1,1.1,0.2,1.6,0.2c0.3,0,0.6-0.2,0.6-0.6C75.5,59.9,75.3,59.6,75,59.6
			L75,59.6z"/>
		<path d="M66.7,61.4c0.2,0.1,0.4,0.2,0.6,0.4l-0.1-0.1c0.2,0.2,0.4,0.3,0.6,0.6c0.1,0.1,0.2,0.2,0.4,0.2c0.1,0,0.3-0.1,0.4-0.2
			c0.1-0.1,0.2-0.2,0.2-0.4v-0.1c0-0.1-0.1-0.2-0.1-0.2c-0.2-0.2-0.4-0.4-0.6-0.5c-0.2-0.2-0.5-0.4-0.8-0.5c-0.1-0.1-0.3-0.1-0.5,0
			c-0.1,0-0.3,0.1-0.3,0.3c-0.1,0.1-0.1,0.3-0.1,0.4C66.5,61.3,66.5,61.4,66.7,61.4L66.7,61.4z"/>
		<path d="M63.8,65.1c0,0.1,0,0.2,0,0.3v-0.1c0,0.2,0,0.5,0,0.7c0,0.1,0.1,0.3,0.2,0.4c0.2,0.2,0.6,0.2,0.8,0c0,0,0,0,0,0l0.1-0.1
			c0-0.1,0.1-0.2,0.1-0.3c0-0.4,0-0.8-0.1-1.2c0-0.1-0.1-0.3-0.3-0.3c-0.1-0.1-0.3-0.1-0.4-0.1c-0.1,0-0.3,0.1-0.3,0.3
			C63.8,64.8,63.8,65,63.8,65.1L63.8,65.1z"/>
		<path d="M59.4,44.2c0.7-0.6,1.4-1.2,2-1.9c0.2-0.2,0.2-0.6,0-0.8c-0.2-0.2-0.6-0.2-0.8,0l0,0c-0.6,0.7-1.3,1.3-2,1.9
			c-0.1,0.1-0.2,0.2-0.2,0.4c0,0.3,0.3,0.6,0.6,0.6l0,0C59.1,44.4,59.2,44.3,59.4,44.2z"/>
		<path d="M54.6,43.4c0-0.3-0.1-0.6-0.1-0.8c-0.1-0.3-0.2-0.5-0.3-0.8c-0.2-0.3-0.5-0.3-0.8-0.2c-0.1,0.1-0.2,0.2-0.3,0.3v0.1
			c0,0.1,0,0.2,0.1,0.3c0,0,0,0,0,0.1l-0.1-0.1c0.1,0.4,0.3,0.7,0.3,1.1v-0.1v0.1c0,0.1,0.1,0.3,0.2,0.4c0.2,0.2,0.6,0.2,0.8,0
			c0,0,0,0,0,0C54.6,43.7,54.6,43.5,54.6,43.4z"/>
		<path d="M50.8,43.3l1-1.5c0.2-0.3,0.1-0.6-0.2-0.8c-0.3-0.1-0.6-0.1-0.8,0.2l-1,1.5c-0.2,0.3-0.1,0.6,0.2,0.8
			C50.3,43.6,50.7,43.5,50.8,43.3L50.8,43.3z"/>
		<path d="M47.7,42.3l-0.2-0.9c0-0.1,0-0.1-0.1-0.2c0-0.1-0.1-0.1-0.2-0.1C47.2,41,47,41,46.9,41.1c-0.1,0-0.3,0.1-0.3,0.3l-0.1,0.1
			c0,0.1,0,0.2,0,0.3l0.2,0.9c0,0.1,0.1,0.1,0.1,0.2c0,0.1,0.1,0.1,0.2,0.1c0.1,0.1,0.3,0.1,0.4,0.1c0.1,0,0.3-0.1,0.3-0.3l0.1-0.1
			C47.8,42.5,47.8,42.4,47.7,42.3z"/>
		<path d="M52.7,39c-0.3-0.4-0.5-0.8-0.7-1.2l0.1,0.1c-0.1-0.1-0.1-0.3-0.2-0.4c0-0.1-0.1-0.3-0.3-0.3c-0.1-0.1-0.3-0.1-0.4-0.1
			c-0.3,0.1-0.5,0.4-0.4,0.7c0.2,0.6,0.5,1.2,0.9,1.7c0.1,0.1,0.2,0.2,0.3,0.3c0.1,0,0.3,0,0.4-0.1C52.8,39.6,52.9,39.3,52.7,39z"/>
		<path d="M58,55.8c0.4,0.5,0.9,0.9,1.4,1.2c0.3,0.1,0.6,0,0.7-0.3c0.1-0.2,0-0.5-0.2-0.7c-0.2-0.1-0.4-0.2-0.6-0.4l0.1,0.1
			c-0.3-0.2-0.5-0.4-0.7-0.7c-0.1-0.1-0.2-0.2-0.4-0.2c-0.3,0-0.6,0.3-0.6,0.6v0.1C57.9,55.7,57.9,55.8,58,55.8L58,55.8z"/>
		<path d="M42.6,43.2L42.6,43.2L42.6,43.2c-0.2,0-0.4-0.1-0.6-0.2l0.1,0.1l-0.1,0c-0.1,0-0.1-0.1-0.2-0.1c-0.1,0-0.1,0-0.2,0
			c-0.1,0-0.3,0.1-0.3,0.3c-0.1,0.1-0.1,0.3-0.1,0.4c0,0.1,0.1,0.3,0.3,0.3c0.2,0.1,0.4,0.1,0.5,0.2c0.2,0,0.4,0.1,0.6,0.1
			c0.1,0,0.1,0,0.2,0c0.1,0,0.1-0.1,0.2-0.1c0.1-0.1,0.2-0.2,0.2-0.4c0-0.1-0.1-0.3-0.2-0.4l-0.1-0.1C42.8,43.2,42.7,43.1,42.6,43.2
			L42.6,43.2z"/>
		<ellipse transform="matrix(0.288 -0.9576 0.9576 0.288 -12.248 90.07)" class="st5" cx="54.4" cy="53.3" rx="1" ry="0.7"/>
		<path d="M54.6,53.3C54.6,53.4,54.6,53.4,54.6,53.3C54.6,53.5,54.6,53.4,54.6,53.3c0,0.1,0,0.1-0.1,0.2l0,0.1c0,0-0.1,0.1,0,0
			c0,0-0.1,0.1-0.1,0.1c0,0,0,0,0,0c0,0-0.1,0,0,0l-0.1,0.1l-0.1,0c0.1-0.1,0.1,0,0.1,0l-0.1,0h0.1h-0.2h0.1h-0.1c0,0-0.1,0,0,0
			c0.1,0,0,0,0,0l0,0c0,0,0.1,0.1,0.1,0s-0.1-0.1-0.1-0.1c0,0,0.1,0.1,0,0.1c0,0,0,0,0,0l0,0c0-0.1,0,0.1,0,0.1c0,0,0-0.1,0-0.1
			c0,0,0-0.1,0-0.1v0.1c0-0.1,0-0.2,0-0.3v0.1c0-0.1,0-0.1,0-0.2l0-0.1v0c0-0.1,0,0,0,0c0,0,0-0.1,0.1-0.1l0-0.1c0,0-0.1,0.1,0,0
			l0.1-0.1c0,0,0.1,0,0,0l0.1,0l0.1,0c0.1,0-0.1,0,0,0c0,0,0.1,0,0.1,0h-0.1h0.2h-0.1h0.1c0,0,0.1,0,0,0c-0.1,0,0,0,0,0l0,0
			c0,0-0.1-0.1-0.1,0c0,0,0.1,0.1,0.1,0.1c0,0-0.1-0.1,0-0.1c0,0,0,0,0,0l0,0c0,0.1,0-0.1,0-0.1c0,0,0,0.1,0,0.1c0,0,0,0.1,0,0.1
			v-0.1C54.7,53,54.7,53.2,54.6,53.3l0.1-0.2C54.7,53.2,54.7,53.3,54.6,53.3c-0.1,0.3,0.1,0.6,0.3,0.7s0.6,0,0.7-0.3
			c0,0,0-0.1,0-0.1c0.2-0.6,0-1.2-0.4-1.6c-0.2-0.2-0.5-0.3-0.8-0.3c-0.3,0-0.6,0.2-0.8,0.4c-0.4,0.4-0.6,1-0.5,1.6
			c0.1,0.6,0.6,1,1.2,1.1c0.7-0.1,1.2-0.5,1.4-1.2c0.1-0.3-0.1-0.6-0.4-0.7C55,52.8,54.7,53,54.6,53.3
			C54.6,53.3,54.6,53.3,54.6,53.3z"/>
		<ellipse transform="matrix(0.4349 -0.9005 0.9005 0.4349 -21.2954 68.6664)" class="st5" cx="44.1" cy="51.3" rx="1" ry="0.7"/>
		<path d="M44.3,51.3c0,0.1-0.1,0.2-0.1,0.2l0.1-0.1c-0.1,0.1-0.1,0.1-0.2,0.2l0.1-0.1c-0.1,0.1-0.1,0.1-0.2,0.1l0.1-0.1
			c-0.1,0-0.1,0-0.2,0H44h-0.2H44c-0.1,0-0.1,0-0.2,0l0.1,0.1c0,0-0.1,0-0.1-0.1l0.1,0.1c0,0-0.1-0.1-0.1-0.1l0.1,0.1
			c0,0-0.1-0.1-0.1-0.2l0.1,0.1c0-0.1,0-0.1-0.1-0.2v0.1c0-0.1,0-0.2,0-0.3v0.1c0-0.1,0.1-0.2,0.1-0.3l-0.1,0.1
			c0-0.1,0.1-0.2,0.2-0.3l-0.1,0.1c0.1-0.1,0.1-0.1,0.2-0.2L44,51c0.1-0.1,0.1-0.1,0.2-0.1l-0.1,0.1c0.1,0,0.1,0,0.2,0h-0.1h0.2
			h-0.1c0.1,0,0.1,0,0.2,0l-0.1-0.1c0,0,0.1,0,0.1,0.1l-0.1-0.1c0,0,0.1,0.1,0.1,0.1l-0.1-0.1c0,0,0.1,0.1,0.1,0.2l-0.1-0.1
			c0,0.1,0,0.1,0.1,0.2v-0.1C44.3,51,44.3,51.1,44.3,51.3l0.1-0.2C44.3,51.2,44.3,51.3,44.3,51.3L44.3,51.3
			C44.3,51.3,44.3,51.3,44.3,51.3c-0.1,0.1-0.1,0.3-0.1,0.4c0,0.1,0.1,0.3,0.3,0.3c0.3,0.2,0.6,0.1,0.8-0.2c0.1-0.3,0.2-0.6,0.2-0.9
			c0-0.3-0.1-0.6-0.3-0.9c-0.4-0.4-1-0.5-1.5-0.2c-0.5,0.3-0.8,0.9-0.8,1.5c0,0.6,0.4,1.1,0.9,1.3c0.7,0.1,1.3-0.3,1.6-0.9
			c0.1-0.3,0-0.6-0.3-0.7C44.7,51,44.4,51.1,44.3,51.3L44.3,51.3z"/>
		<path class="st7" d="M74.3,43.3c0.1-2.6-0.4-5.1-1.5-7.4c-1.6-3.3-4.3-5.9-7.6-7.5c-3.5-1.6-7.9-2-11.4-0.6
			c-2.3,0.9-4.3,2.5-5.8,4.5c-1.7,2.1-2.9,4.5-3.5,7.2c-2,1.1-4.4,1.5-5.9,3c-0.2,0.2-0.4,0.4-0.4,0.7c0.1,0.2,0.2,0.4,0.4,0.6
			c2.3,2.2,5.6,3.5,8.8,4.8c3.2,1.3,6.5,2.5,9.9,2.1c2-0.3,3.9-1,5.5-2.1c1.7-1,3.3-2,5.2-2.7c1.9-0.8,4.1-0.9,6.1-0.3
			C74.2,44.7,74.3,44,74.3,43.3z"/>
		<path d="M75.1,43.3c0.3-9.1-6.7-16.7-15.8-17.1c-0.8,0-1.5,0-2.3,0.1c-3,0.3-5.8,1.6-8,3.7c-2.6,2.5-4.4,5.7-5.2,9.2l0.3-0.4
			c-1.3,0.7-2.7,1.1-4.1,1.8c-1,0.5-2.8,1.5-2.5,2.8c0.1,0.7,0.8,1.2,1.3,1.6c0.6,0.5,1.2,0.9,1.9,1.3c1.4,0.8,2.8,1.5,4.2,2.1
			c3.1,1.3,6.2,2.7,9.6,3c3.3,0.4,6.2-0.8,9-2.4c3.1-1.8,6.6-3.9,10.3-2.7c0.4,0.1,0.8-0.1,0.9-0.5C75,44.9,75.1,44.1,75.1,43.3
			c0.1-1-1.4-1-1.5,0c0,0.7-0.1,1.3-0.2,2l0.9-0.5c-2.9-0.9-6-0.1-8.6,1.3c-2.6,1.4-5.1,3.3-8.1,3.8c-3.1,0.5-6.3-0.6-9.2-1.8
			c-2.7-1.1-5.5-2.1-7.9-3.8c-0.3-0.2-0.5-0.4-0.8-0.6c-0.1-0.1-0.6-0.4-0.6-0.5c0-0.2,0.5-0.5,0.7-0.6c0.3-0.2,0.6-0.4,0.9-0.5
			c1.2-0.6,2.5-1,3.7-1.6c0.3-0.1,0.6-0.3,0.8-0.5c0.1-0.3,0.2-0.6,0.3-1c0.2-0.7,0.5-1.5,0.8-2.2c0.6-1.4,1.3-2.7,2.3-3.9
			c1.6-2.2,3.9-3.8,6.5-4.6c2.8-0.7,5.8-0.6,8.5,0.3c2.9,1,5.5,2.9,7.3,5.4c1.9,2.7,2.9,6,2.8,9.4C73.6,44.2,75,44.2,75.1,43.3z"/>
		<path class="st7" d="M44.9,39.8c-0.2,1,0.8,1.9,1.7,2.5c3.1,2.3,7,4.1,11.1,3.9"/>
		<path d="M44.3,39.8c-0.2,1.3,0.9,2.2,1.8,2.9c1.1,0.8,2.3,1.6,3.5,2.2c2.5,1.3,5.2,2,8,1.9c0.7,0,0.7-1.1,0-1.1
			c-2.5,0-4.9-0.5-7.1-1.6c-1-0.5-2-1.1-3-1.7c-0.8-0.6-2.3-1.4-2.2-2.6C45.5,39.1,44.4,39.1,44.3,39.8L44.3,39.8z"/>
		<path class="st7" d="M58.2,46.6c0-0.6,0.1-1.1,0.3-1.7c0,0,0-0.1,0.1-0.1c0.1,0,0.1,0,0.2,0l4.2,0.3c0.1,0,0.1,0,0.1,0
			c0,0,0,0.1,0,0.1l-0.2,2c0,0.1,0,0.1-0.1,0.1c-0.1,0-0.1,0-0.2,0c-1.4-0.1-2.8-0.3-4.1-0.6c-0.1,0-0.1,0.1-0.1,0.1"/>
		<path d="M58.7,46.6c0-0.3,0-0.5,0.1-0.8c0-0.1,0-0.2,0.1-0.4l0.1-0.2c0-0.1,0.1-0.2,0-0.1l-0.2,0.1l0,0h0.1h0.3l0.6,0l1.1,0.1
			l1.1,0.1l0.6,0h0.2h0.1c0.1,0,0.1,0,0,0l-0.3-0.3c0-0.1,0-0.1,0,0v0.1l0,0.3l-0.1,0.5c0,0.3,0,0.6-0.1,0.9l0.1-0.2l0,0l0.3-0.1
			c-0.4,0-0.8,0-1.3-0.1c-0.4,0-0.8-0.1-1.3-0.2c-0.4-0.1-0.9-0.2-1.3-0.3c-0.2-0.1-0.5-0.1-0.7,0c-0.2,0.1-0.4,0.4-0.3,0.7
			c0.2,0.7,1.3,0.4,1.1-0.3v0L58.9,47l0,0l-0.3,0.3h0h-0.3c1,0.3,2,0.4,3,0.5c0.2,0,0.5,0,0.7,0.1c0.3,0,0.5,0,0.8,0
			c0.6-0.2,0.5-0.8,0.6-1.3l0.1-0.7c0-0.3,0.1-0.5,0.1-0.8c-0.1-0.6-0.8-0.6-1.3-0.6l-3-0.2c-0.3,0-0.6,0-0.8,0
			c-0.3,0.1-0.5,0.4-0.6,0.7c-0.2,0.5-0.3,1.1-0.3,1.7C57.6,47.3,58.7,47.3,58.7,46.6L58.7,46.6z"/>
		<path class="st7" d="M64.8,29.8c-6.9-0.2-10.2,6.1-10,7.6c0.2,1.2,0.8,2.4,1.9,3.1c3.7,2.8,10.3,2.6,13.7,1.2"/>
		<path d="M64.8,29.3c-4.3-0.1-8.3,2.4-10.1,6.3c-0.3,0.5-0.4,1.1-0.5,1.7c-0.1,1.1,0.6,2.2,1.3,3c1.8,1.9,4.6,2.7,7,3
			c2.7,0.3,5.5-0.1,8-1.1c0.7-0.3,0.1-1.2-0.6-1c-2,0.8-4.1,1.1-6.2,1c-2.3-0.1-4.7-0.6-6.6-1.9c-0.9-0.7-1.8-1.7-1.8-2.9
			c0-0.4,0.1-0.8,0.3-1.2c0.6-1.4,1.5-2.6,2.7-3.6c1.8-1.5,4.1-2.3,6.5-2.2c0.3,0,0.5-0.3,0.5-0.6C65.3,29.5,65.1,29.3,64.8,29.3z"
			/>
		<circle class="st2" cx="40.4" cy="54.8" r="2"/>
		<path d="M41.8,54.8c0,0.3-0.1,0.6-0.3,0.9c-0.1,0.1,0,0,0,0c-0.1,0.1-0.1,0.1-0.1,0.1l-0.1,0.1c0,0-0.1,0.1,0,0
			C41.2,55.9,41.1,56,41,56l-0.1,0l0,0l-0.1,0l-0.3,0.1c0,0-0.1,0,0,0h-0.1c-0.1,0-0.2,0-0.3,0c-0.1,0,0.1,0,0,0l-0.2,0l-0.2,0l0,0
			c-0.1,0-0.2-0.1-0.2-0.1l-0.1-0.1c-0.1-0.1,0.1,0.1,0,0c-0.1-0.1-0.1-0.1-0.2-0.2c0.1,0.1,0,0,0,0c-0.1,0-0.1-0.1-0.2-0.1
			l-0.1-0.1c0,0-0.1-0.2,0-0.1c0-0.1-0.1-0.2-0.1-0.2c0,0,0-0.1,0-0.1s0-0.1,0,0c0,0,0-0.1,0-0.1c0-0.1,0-0.2,0-0.2c0,0,0-0.2,0-0.1
			c0,0,0-0.1,0-0.1c0-0.1,0-0.2,0.1-0.3c0-0.1,0,0.1,0-0.1c0,0,0-0.1,0.1-0.1c0,0,0-0.1,0.1-0.1c0,0,0.1-0.1,0,0
			c0.1-0.1,0.1-0.1,0.2-0.2c0,0,0.1-0.1,0.1-0.1s0.1,0,0.1,0c0.1-0.1,0.2-0.1,0.3-0.2c0,0-0.1,0,0,0l0.2,0H40c0,0,0.2,0,0.1,0
			c-0.1,0,0.1,0,0.1,0h0.3c0.1,0,0,0,0.1,0c0.1,0,0.2,0,0.3,0.1c0.1,0-0.1,0,0,0c0.1,0,0.2,0,0.2,0l0.1,0.1l0.1,0.1c0,0,0,0,0,0
			l0.2,0.2c0.1,0.1,0-0.1,0,0c0,0,0.1,0.1,0.1,0.1c0,0,0,0.1,0.1,0.1c0,0,0-0.1,0,0.1s0.1,0.2,0.1,0.3c0,0,0,0.1,0,0
			C41.8,54.6,41.8,54.7,41.8,54.8c0,0.3,0.2,0.5,0.5,0.5c0.3,0,0.6-0.2,0.6-0.6c0-1.1-0.7-2-1.7-2.4c-1-0.4-2.1-0.1-2.8,0.7
			c-0.9,1.1-0.8,2.7,0.3,3.6c1.1,0.9,2.7,0.8,3.6-0.3c0.4-0.5,0.6-1.1,0.6-1.7c0-0.3-0.3-0.5-0.6-0.6C42,54.2,41.8,54.5,41.8,54.8z"
			/>
		<circle class="st2" cx="34.8" cy="52.2" r="1"/>
		<path d="M35.2,51.8C35.2,51.9,35.2,51.9,35.2,51.8L35.2,51.8c0.1,0.1,0.1,0.1,0.1,0.2L35.2,51.8c0.1,0.2,0.1,0.3,0.2,0.4V52
			c0,0.1,0,0.2,0,0.3v-0.1c0,0.1,0,0.2-0.1,0.3l0.1-0.1c0,0.1-0.1,0.2-0.1,0.2l0.1-0.1c-0.1,0.1-0.1,0.1-0.2,0.2l0.1-0.1
			c-0.1,0.1-0.2,0.1-0.2,0.1l0.1-0.1c-0.1,0-0.2,0.1-0.3,0.1h0.1c-0.1,0-0.2,0-0.3,0h0.1c-0.1,0-0.2,0-0.3-0.1l0.1,0.1
			c-0.1,0-0.2-0.1-0.2-0.1l0.1,0.1c-0.1-0.1-0.1-0.1-0.2-0.2l0.1,0.1c-0.1-0.1-0.1-0.1-0.1-0.2l0.1,0.1c0-0.1-0.1-0.2-0.1-0.3v0.1
			c0-0.1,0-0.2,0-0.3v0.1c0-0.1,0-0.2,0.1-0.3l-0.1,0.1c0-0.1,0.1-0.2,0.1-0.2l-0.1,0.1c0.1-0.1,0.1-0.1,0.2-0.2l-0.1,0.1
			c0.1-0.1,0.1-0.1,0.2-0.1l-0.1,0.1c0.1,0,0.2-0.1,0.3-0.1h-0.1c0.1,0,0.2,0,0.3,0h-0.1c0.1,0,0.2,0,0.3,0.1l-0.1-0.1
			C35,51.7,35.1,51.8,35.2,51.8L35,51.8L35.2,51.8c0.2,0.2,0.6,0.2,0.8,0c0,0,0,0,0,0c0.2-0.2,0.2-0.6,0-0.8
			c-0.2-0.2-0.5-0.4-0.8-0.4c-0.2,0-0.4,0-0.6,0c-0.2,0-0.3,0.1-0.4,0.1c-0.3,0.1-0.5,0.4-0.7,0.6c-0.2,0.3-0.2,0.6-0.2,0.9
			c0,0.2,0,0.3,0.1,0.4c0.1,0.2,0.2,0.3,0.3,0.5c0.2,0.2,0.5,0.4,0.8,0.5c0.3,0.1,0.6,0.1,0.9,0c0.3-0.1,0.6-0.4,0.8-0.7
			c0.4-0.6,0.3-1.5-0.2-2c-0.2-0.2-0.6-0.2-0.8,0C34.9,51.3,34.9,51.6,35.2,51.8L35.2,51.8z"/>
		<circle class="st2" cx="31.8" cy="44.5" r="2.8"/>
		<path d="M34.1,44.5c0,1.3-1,2.3-2.3,2.3c-1.3,0-2.3-1-2.3-2.3c0-1.3,1-2.3,2.3-2.3c0.1,0,0.3,0,0.4,0
			C33.3,42.4,34.1,43.4,34.1,44.5c0,0.3,0.2,0.6,0.6,0.6c0.3,0,0.6-0.2,0.6-0.6c0-1.9-1.5-3.4-3.4-3.4c-1.9,0-3.4,1.5-3.4,3.4
			c0,1.9,1.5,3.4,3.4,3.4c0.2,0,0.4,0,0.7-0.1c1.6-0.3,2.7-1.7,2.7-3.3c0-0.3-0.2-0.6-0.6-0.6C34.4,43.9,34.1,44.2,34.1,44.5z"/>
		<circle class="st2" cx="33.8" cy="36.8" r="1.1"/>
		<path d="M34.4,36.8L34.4,36.8C34.4,37,34.4,36.9,34.4,36.8c0,0.1,0,0.1,0,0.2c0,0,0,0.1,0,0.1c0,0,0.1-0.1,0-0.1l-0.1,0.1
			c-0.1,0.1,0.1-0.1,0,0l0,0l0,0c0,0-0.1,0.1,0,0L34,37.3l0,0c-0.1,0,0.1,0,0,0l-0.1,0c-0.1,0-0.1,0,0,0h-0.1c-0.1,0-0.1,0-0.2,0
			c-0.1,0,0.1,0,0,0h-0.1h-0.1c0,0,0,0,0,0c0,0-0.1,0-0.1-0.1c0,0,0,0-0.1,0c-0.1,0,0.1,0.1,0,0c-0.1-0.1-0.1-0.1-0.1-0.1
			c0.1,0.1,0.1,0.1,0,0s0,0,0-0.1l0,0c0,0,0-0.1,0,0c0,0,0-0.1,0-0.1c0,0,0,0,0-0.1c0-0.1,0,0.1,0,0c0,0,0-0.1,0-0.1c0,0,0-0.1,0,0
			c0,0,0,0,0-0.1s0-0.1,0-0.1c0,0-0.1,0.1,0,0l0-0.1c0,0,0,0,0-0.1c0,0,0.1,0,0,0c0,0,0.1-0.1,0.1-0.1s0.1-0.1,0,0l0,0
			c0.1,0,0.1-0.1,0.1-0.1h0h0.1c0,0,0.2,0,0.1,0c-0.1,0,0.1,0,0.1,0h0.1c0.1,0-0.1,0,0,0c0.1,0,0.1,0,0.2,0c0.1,0-0.1-0.1,0,0
			c0.1,0.1,0.1,0,0.1,0l0,0c0.1,0.1-0.1-0.1,0,0l0.1,0.1c0.1,0.1-0.1-0.1,0,0c0.1,0.1,0,0,0,0.1l0,0.1c0,0.1,0-0.1,0,0L34.4,36.8
			C34.3,36.9,34.3,36.9,34.4,36.8c-0.1,0-0.1,0.1-0.1,0.1c0,0.3,0.2,0.6,0.5,0.6s0.6-0.2,0.6-0.5c0,0,0-0.1,0-0.1
			c0-0.7-0.5-1.3-1.1-1.6c-0.9-0.3-1.8,0.2-2.1,1c-0.2,0.5-0.1,1,0.1,1.4c0.4,0.6,1.1,0.9,1.8,0.8c0.8-0.2,1.3-0.8,1.3-1.6
			c0-0.3-0.2-0.6-0.6-0.6c0,0,0,0,0,0C34.6,36.4,34.4,36.6,34.4,36.8z"/>
		<circle class="st2" cx="36.8" cy="32.9" r="1.1"/>
		<path d="M37.3,32.9C37.3,32.9,37.3,32.9,37.3,32.9C37.3,33.1,37.3,32.9,37.3,32.9c0,0.1,0,0.1,0,0.2c0,0,0,0.1,0,0.1
			c0,0,0.1-0.1,0-0.1l-0.1,0.1c-0.1,0.1,0.1-0.1,0,0l0,0l0,0c0,0-0.1,0.1,0,0L37,33.4l0,0c-0.1,0,0.1,0,0,0l-0.1,0c-0.1,0-0.1,0,0,0
			h-0.1c-0.1,0-0.1,0-0.2,0c-0.1,0,0.1,0,0,0h-0.1h-0.1c0,0,0,0,0,0c0,0-0.1,0-0.1-0.1c0,0,0,0-0.1,0c-0.1,0,0.1,0.1,0,0
			c-0.1-0.1-0.1-0.1-0.1-0.1c0.1,0.1,0.1,0.1,0,0s0,0,0-0.1l0,0c0,0,0-0.1,0,0c0,0,0-0.1,0-0.1c0,0,0,0,0-0.1c0-0.1,0,0.1,0,0
			c0,0,0-0.1,0-0.1c0,0,0-0.1,0,0c0,0,0,0,0-0.1c0,0,0-0.1,0-0.1c0,0-0.1,0.1,0,0l0-0.1c0,0,0,0,0-0.1c0,0,0.1,0,0,0
			c0,0,0.1-0.1,0.1-0.1c0,0,0.1-0.1,0,0l0,0c0.1,0,0.1-0.1,0.1-0.1h0h0.1c0,0,0.2,0,0.1,0c-0.1,0,0.1,0,0.1,0h0.1c0.1,0-0.1,0,0,0
			c0.1,0,0.1,0,0.2,0c0.1,0-0.1-0.1,0,0s0.1,0,0.1,0l0,0c0.1,0.1-0.1-0.1,0,0l0.1,0.1c0.1,0.1-0.1-0.1,0,0c0.1,0.1,0,0,0,0.1l0,0.1
			c0,0.1,0-0.1,0,0L37.3,32.9C37.3,33,37.3,33,37.3,32.9c-0.1,0-0.1,0.1-0.1,0.1c0,0.3,0.2,0.6,0.6,0.6s0.6-0.2,0.6-0.6c0,0,0,0,0,0
			c0-0.7-0.5-1.3-1.1-1.6c-0.9-0.3-1.8,0.2-2.1,1c-0.2,0.5-0.1,1,0.1,1.4c0.4,0.6,1.2,0.9,1.9,0.7c0.8-0.2,1.3-0.8,1.3-1.6
			c0-0.3-0.2-0.6-0.6-0.6C37.6,32.3,37.4,32.6,37.3,32.9C37.4,32.9,37.4,32.9,37.3,32.9L37.3,32.9z"/>
		<circle class="st2" cx="32.3" cy="29.7" r="1.4"/>
		<path d="M33.1,29.7c0,0,0,0.1,0,0.1C33.1,29.9,33.1,29.7,33.1,29.7c0,0.1,0,0.2,0,0.3s0,0.1,0,0.1s0.1-0.1,0,0
			c-0.1,0.1-0.1,0.1-0.1,0.2c0,0.1,0.1-0.1,0,0l-0.1,0.1c0,0,0,0,0,0c-0.1,0.1,0,0,0,0l-0.1,0.1l-0.1,0c-0.1,0.1,0.1,0,0,0l-0.2,0
			c-0.1,0,0,0,0,0h-0.1c-0.1,0-0.1,0-0.2,0c-0.1,0,0.1,0,0,0h-0.1l-0.1,0c-0.1,0,0,0,0,0c0,0-0.1-0.1-0.2-0.1l0-0.1
			c-0.1,0,0.1,0.1,0,0c-0.1,0-0.1-0.1-0.1-0.2c0,0,0.1,0.1,0,0l-0.1-0.1c0,0,0,0,0-0.1c-0.1-0.1,0,0,0,0s-0.1-0.2-0.1-0.2v-0.1
			c0-0.1,0,0.1,0,0c0-0.1,0-0.1,0-0.2c0-0.1,0-0.1,0,0c0,0,0,0,0-0.1c0-0.1,0-0.1,0-0.2s-0.1,0.1,0,0c0,0,0-0.1,0-0.1l0-0.1
			c0.1-0.1,0,0,0,0c0,0,0.1-0.1,0.1-0.1l0,0l0,0h0l0.1,0l0.2-0.1c0,0-0.1,0,0,0l0.1,0h0.1h0.1c0,0,0,0,0,0h0.2c0.1,0-0.1,0,0,0
			l0.2,0.1c0.1,0-0.1,0,0,0c0,0,0.1,0,0.1,0.1l0.1,0l0.1,0c-0.1,0-0.1-0.1,0,0l0.1,0.1c0.1,0.1-0.1-0.1,0,0l0.1,0.1c0,0,0,0.1,0,0.1
			c0.1,0.1,0-0.1,0,0C33.1,29.5,33.1,29.5,33.1,29.7c0,0,0-0.1,0-0.1S33.1,29.7,33.1,29.7c0,0.3,0.2,0.6,0.5,0.6s0.6-0.2,0.6-0.6
			c0,0,0,0,0,0c0-0.8-0.5-1.5-1.3-1.8c-0.7-0.3-1.6,0-2.1,0.6c-0.7,0.8-0.6,2,0.2,2.7c0.8,0.7,2,0.6,2.7-0.2
			c0.3-0.3,0.5-0.8,0.5-1.2c0-0.3-0.2-0.6-0.6-0.6C33.4,29.1,33.1,29.4,33.1,29.7C33.1,29.7,33.1,29.7,33.1,29.7L33.1,29.7z"/>
	</g>
</g>
</svg>
