<?xml version="1.0" encoding="utf-8"?>
<!-- Generator: Adobe Illustrator 24.2.0, SVG Export Plug-In . SVG Version: 6.00 Build 0)  -->
<svg version="1.1" id="Layer_1" xmlns="http://www.w3.org/2000/svg" xmlns:xlink="http://www.w3.org/1999/xlink" x="0px" y="0px"
	 viewBox="0 0 112 102" style="enable-background:new 0 0 112 102;" xml:space="preserve">
<style type="text/css">
	.st0{fill:#F7C402;}
	.st1{fill:#FADC67;}
	.st2{fill:#FDEAAB;}
	.st3{fill:#183E41;}
	.st4{fill:#7DC4CA;}
	.st5{fill:#183E41;stroke:#000000;stroke-width:0.4945;stroke-miterlimit:10;}
	.st6{fill:#FDEAAB;stroke:#000000;stroke-width:0.4945;stroke-miterlimit:10;}
	.st7{fill:#E4252E;}
	.st8{fill:#FFFFFF;}
	.st9{fill:#A3D7D8;}
	.st10{fill:#E1262F;}
</style>
<g>
	<g id="Fondos_y_letras">
		<path class="st0" d="M74.4,2H37.6c-6.1,0-11.8,3.3-14.8,8.6L4.4,42.4c-3.1,5.3-3.1,11.8,0,17.1l18.4,31.8
			c3.1,5.3,8.7,8.6,14.8,8.6h36.8c6.1,0,11.8-3.3,14.8-8.6l18.4-31.8c3.1-5.3,3.1-11.8,0-17.1L89.2,10.6C86.2,5.3,80.5,2,74.4,2z"/>
		<path d="M74.4,1.3H38.8c-2.4-0.1-4.8,0.3-7,1c-4,1.4-7.5,4.3-9.6,8l-1.9,3.3l-8.9,15.4L4.1,41.4c-1.7,2.7-2.6,5.8-2.7,9
			C1.3,54,2.2,57.4,4,60.4l7,12.1L20,88l2.1,3.6c2,3.4,5,6.1,8.7,7.7c4.3,1.8,9,1.4,13.5,1.4H63c3.8,0,7.6,0,11.4,0
			c4.6,0,8.9-1.8,12.3-4.9c1.5-1.5,2.9-3.3,3.9-5.2l7.8-13.5l8.6-14.8c0.6-1.1,1.3-2.2,1.9-3.3c2.4-4.9,2.5-10.7,0.2-15.7
			c-0.6-1.2-1.3-2.4-2-3.6l-3.7-6.4l-9.4-16.3l-3.2-5.6c-1-1.8-2.2-3.5-3.6-5C83.6,3.1,79.1,1.3,74.4,1.3c-0.4,0-0.7,0.3-0.7,0.7
			c0,0.4,0.3,0.7,0.7,0.7c4.8,0,9.4,2.1,12.5,5.8c1,1.3,1.9,2.7,2.7,4.1l8,13.9l8.2,14.1c0.8,1.3,1.5,2.6,2.1,3.9
			c2,4.7,1.6,10.1-0.9,14.5c-1.8,3.2-3.7,6.4-5.5,9.6l-9.2,16l-3,5.2c-1.1,2-2.5,3.8-4.2,5.3c-3,2.5-6.8,3.9-10.7,3.9H38.4
			c-2.7,0.1-5.4-0.5-7.9-1.6c-3-1.5-5.5-3.9-7.2-6.8l-6.5-11.3l-9-15.7l-2.5-4.2c-1.9-3.1-2.7-6.7-2.3-10.4
			c0.5-4.6,3.3-8.5,5.6-12.4l9.3-16c1.9-3.3,3.8-6.5,5.7-9.8c2.2-3.8,5.8-6.5,10.1-7.7c1.9-0.4,3.8-0.6,5.7-0.5h35.2
			c0.4,0,0.7-0.3,0.7-0.7C75.1,1.6,74.8,1.3,74.4,1.3z"/>
		<circle class="st1" cx="56" cy="51" r="43"/>
		<path d="M98.3,51c0,23.2-18.9,42.1-42.1,42c-23.2,0-42.1-18.9-42-42.1S33,8.8,56.3,8.9C77,8.9,94.6,24,97.8,44.5
			C98.1,46.6,98.3,48.8,98.3,51c0,0.4,0.3,0.7,0.7,0.7s0.7-0.3,0.7-0.7C99.7,26.8,80,7.3,55.9,7.4C31.8,7.5,12.2,27.1,12.3,51.3
			c0.1,24.1,19.7,43.7,43.9,43.6C77.8,94.8,96,79,99.3,57.7c0.3-2.2,0.5-4.5,0.5-6.7c0-0.4-0.3-0.7-0.7-0.7S98.3,50.6,98.3,51z"/>
		<circle class="st2" cx="56" cy="51" r="37.1"/>
		<path d="M92.4,51C92.3,70.9,76.1,87,56.2,87s-36.1-16.3-36-36.2c0.1-19.9,16.3-36.1,36.2-36c17.8,0,32.9,13,35.6,30.6
			C92.2,47.2,92.4,49.1,92.4,51c0,0.4,0.3,0.7,0.7,0.7c0.4,0,0.7-0.3,0.7-0.7c0-20.8-16.9-37.7-37.8-37.7
			c-20.8,0-37.7,16.9-37.7,37.8s16.9,37.7,37.8,37.7c18.6,0,34.4-13.6,37.3-31.9c0.3-1.9,0.4-3.9,0.5-5.8c0-0.4-0.3-0.7-0.7-0.7
			C92.7,50.2,92.4,50.6,92.4,51z"/>
	</g>
	<g id="_8._artista">
		<path class="st3" d="M87.6,62.2c1.2-2.3,4.4-14-10.4-25.8c-5.5-4.4-16-9.5-25-7.8c-5,0.9-11.8,2.6-15.4,5.1
			c-5.6,2.6-12.8,9.9-12.5,16.1c0.1,2,1.6,5.7,6.7,7.2c2.7,0.8,9.1,0.3,12,0.5c4.1,0.3,9.5,5.3,12.8,7.8c4,3.1,12.5,7.1,15.3,7.4
			C81.6,73.8,85.9,65.3,87.6,62.2z"/>
		<path d="M88.2,62.6c1.4-2.7,1.4-6.1,1-9c-0.9-6.1-4.6-11.4-9.1-15.5c-5.2-4.8-11.6-8.2-18.5-9.8c-1.8-0.4-3.7-0.6-5.5-0.6
			c-1.8,0-3.5,0.2-5.2,0.6c-3.5,0.6-7,1.6-10.4,2.9c-0.8,0.3-1.5,0.6-2.2,1c-0.7,0.4-1.3,0.8-2,1.1c-1.3,0.7-2.6,1.5-3.8,2.3
			c-2.7,2-5,4.5-6.8,7.4c-1.4,2.3-2.6,5.2-2,8c0.5,2.4,2.2,4.5,4.3,5.7c2.7,1.6,5.7,1.7,8.7,1.7c1.5,0,3-0.1,4.5,0
			c1.3-0.1,2.6,0.1,3.8,0.6c3,1.2,5.7,3.5,8.2,5.5c2.2,1.9,4.6,3.5,7.2,4.9c2.6,1.5,5.3,2.7,8.2,3.7c2.5,0.8,5.2,0.9,7.8,0.3
			c4.8-1.1,8.4-4.6,10.8-8.7C87.5,63.9,87.8,63.2,88.2,62.6c0.4-0.8-0.9-1.6-1.3-0.7c-1.8,3.4-4,6.7-7.4,8.6
			c-2.5,1.3-5.3,1.9-8.1,1.6c-2.1-0.2-4.5-1.3-6.4-2.2c-2.7-1.2-5.3-2.7-7.7-4.3c-2.4-1.7-4.6-3.7-6.9-5.4s-4.9-3.3-7.9-3.4
			c-2.9-0.1-5.7,0.1-8.6,0c-2.7-0.2-5.4-1.1-7.2-3.2c-1.4-1.6-1.8-3.8-1.3-5.8c0.7-3,2.6-5.7,4.6-7.9c1.1-1.2,2.3-2.2,3.6-3.2
			c1.2-0.8,2.4-1.6,3.7-2.2c1.3-0.8,2.6-1.5,4-2c1.6-0.6,3.3-1.1,4.9-1.6c3.2-0.9,6.6-1.7,10-1.7c6.7,0.1,13.5,2.9,19,6.7
			c5.2,3.6,9.9,8.7,11.9,14.8c1.1,3.3,1.4,7,0.3,10.3c-0.1,0.2-0.2,0.4-0.2,0.7c-0.1,0.2,0.1-0.1,0,0.1l-0.1,0.2
			C86.5,62.7,87.8,63.4,88.2,62.6z"/>
		<path class="st4" d="M88.6,59.9c1.2-2.3,4.4-14-10.4-25.8c-5.5-4.4-16-9.5-25-7.8c-5,0.9-11.8,2.6-15.5,5.1
			c-5.6,2.6-12.8,9.9-12.5,16.1c0.1,2,1.6,5.7,6.7,7.2c2.7,0.8,9.1,0.3,12,0.5c4.1,0.3,9.5,5.3,12.8,7.8c4,3.1,12.5,7.1,15.3,7.4
			C82.6,71.5,87,63.1,88.6,59.9z"/>
		<path d="M89.3,60.3c1.4-2.7,1.4-6.1,1-9c-0.9-6.1-4.6-11.4-9.1-15.5c-5.2-4.8-11.6-8.2-18.5-9.8c-1.8-0.4-3.7-0.6-5.5-0.6
			c-1.8,0-3.5,0.2-5.2,0.6c-3.5,0.6-7,1.6-10.4,2.9c-0.8,0.3-1.5,0.6-2.2,1s-1.3,0.8-2,1.1c-1.3,0.7-2.6,1.5-3.8,2.3
			c-2.7,2-5,4.5-6.8,7.4c-1.4,2.3-2.6,5.2-2,8c0.5,2.4,2.2,4.5,4.3,5.7c2.7,1.6,5.7,1.7,8.7,1.7c1.5,0,3-0.1,4.5,0
			c1.3-0.1,2.6,0.1,3.8,0.6c3,1.2,5.7,3.5,8.2,5.5c2.2,1.9,4.6,3.5,7.2,4.9c2.6,1.5,5.3,2.7,8.2,3.7c2.5,0.8,5.2,0.9,7.8,0.3
			c4.8-1.1,8.4-4.6,10.8-8.7C88.6,61.6,89,60.9,89.3,60.3c0.4-0.8-0.8-1.6-1.3-0.7c-1.8,3.4-4,6.7-7.4,8.6c-2.5,1.3-5.3,1.9-8.1,1.6
			c-2.1-0.2-4.5-1.3-6.4-2.2c-2.7-1.2-5.3-2.7-7.7-4.3c-2.4-1.7-4.6-3.7-6.9-5.4s-4.9-3.3-7.9-3.4c-2.9-0.1-5.7,0.1-8.6,0
			c-2.7-0.2-5.4-1.1-7.2-3.2c-1.4-1.6-1.9-3.8-1.3-5.8c0.7-3,2.6-5.7,4.6-7.9c1.1-1.2,2.3-2.2,3.6-3.2c1.2-0.8,2.4-1.6,3.7-2.2
			c1.3-0.8,2.6-1.4,4-2c1.6-0.6,3.3-1.1,4.9-1.6c3.2-0.9,6.6-1.7,10-1.7c6.7,0.1,13.5,2.9,19,6.7c5.2,3.6,9.9,8.7,11.9,14.8
			c1.1,3.3,1.4,7,0.3,10.3c-0.1,0.2-0.1,0.4-0.2,0.7c-0.1,0.2,0.1-0.1,0,0.1L88,59.5C87.6,60.4,88.9,61.1,89.3,60.3z"/>
		
			<ellipse transform="matrix(1.640540e-02 -0.9999 0.9999 1.640540e-02 -6.5125 87.6622)" class="st5" cx="41.3" cy="47.1" rx="4.2" ry="5.9"/>
		
			<ellipse transform="matrix(1.640540e-02 -0.9999 0.9999 1.640540e-02 -7.4098 88.8215)" class="st6" cx="41.4" cy="48.2" rx="3.3" ry="5.3"/>
		<path class="st7" d="M43.2,31.8c-0.5,0.1-1.6,0.5-2.1,0.2c0,0-0.1-0.8-0.2-1c-0.1-0.4,0.9-0.6,1.2-0.6c-0.4-1.6-2.3-6.7,0.7-6.6
			c3.3,0.1,2.3,4.4,1.8,6.5c0.3,0,1.3-0.1,1.3,0.2s-0.1,0.6-0.1,1.1S44,31.5,43.2,31.8z"/>
		<path d="M43.2,31.7c-0.4,0.1-0.8,0.2-1.2,0.3c-0.2,0.1-0.5,0.1-0.7,0c-0.1,0,0,0-0.1-0.1c0-0.1,0-0.1,0-0.2c0-0.2-0.1-0.4-0.1-0.5
			c0-0.2-0.1-0.3,0.1-0.5c0.3-0.2,0.6-0.3,1-0.3c0,0,0.1-0.1,0.1-0.1c-0.2-0.9-0.5-1.7-0.7-2.6s-0.4-2.1-0.1-3
			c0.4-1,1.7-1.1,2.5-0.6c0.9,0.5,1.1,1.7,1.1,2.6c0,1.2-0.2,2.4-0.5,3.5c0,0,0,0.1,0.1,0.1l0,0c0.4-0.1,0.8,0,1.1,0
			c0.2,0.1,0.1,0.5,0,0.7c0,0.2,0,0.5-0.1,0.6c-0.4,0.1-0.8,0.1-1.2,0C44,31.6,43.6,31.6,43.2,31.7c-0.1,0.1-0.1,0.2,0,0.2
			c0.6-0.1,1.1-0.1,1.7,0c0.3,0,0.8,0.1,0.9-0.2c0-0.1,0-0.2,0-0.4c0-0.2,0.1-0.4,0.1-0.6c0-0.2,0-0.3-0.1-0.4
			c-0.3-0.2-0.9-0.1-1.3-0.1l0.1,0.1c0.3-1.1,0.5-2.2,0.5-3.4c0-1-0.1-2.2-1-2.8c-0.7-0.5-2.1-0.7-2.7,0.1c-0.6,0.7-0.5,1.9-0.4,2.8
			c0.2,1.1,0.5,2.3,0.9,3.4l0.1-0.1c-0.4,0-0.8,0.2-1.1,0.4c-0.3,0.3,0,0.8,0,1c0,0.1,0,0.3,0.1,0.4c0.1,0.1,0.4,0.1,0.6,0.1
			c0.5-0.1,1.1-0.2,1.6-0.3c0.1,0,0.1-0.1,0.1-0.1S43.3,31.7,43.2,31.7L43.2,31.7z"/>
		<path d="M42.5,32.1c0.2,1.2,0.4,2.4,0.5,3.7c0.1,1,0.2,2.6-0.9,2.9c-0.4,0.1-0.8,0.1-1.1,0.1c-0.4-0.1-0.5-0.4-0.5-0.8
			c-0.1-0.4,0.2-0.9,0.6-1.1c0.1-0.1,0.3-0.1,0.5,0c0.2,0,0.3,0.2,0.2,0.3c0,0.1,0,0.1-0.1,0.2c-0.2,0.2,0.1,0.4,0.3,0.3
			c0.3-0.3,0.3-0.7,0-0.9l0,0c-0.3-0.2-0.6-0.2-0.9-0.1c-0.4,0.1-0.7,0.4-0.8,0.8c-0.1,0.4-0.1,0.9,0,1.3c0.3,0.7,1.4,0.7,2,0.5
			c1.1-0.3,1.3-1.6,1.3-2.5c0-1.5-0.2-3-0.5-4.5C42.8,31.8,42.5,31.9,42.5,32.1L42.5,32.1z"/>
		<path d="M44.1,32c0.2,1.1,0.5,2.2,0.8,3.3c0.2,1,0.6,2,1,2.9c0.4,0.7,1.1,1.3,2,1.3c0.7-0.2,1.2-0.8,1.3-1.5c0-0.2-0.3-0.2-0.4,0
			c0,0.4-0.2,0.7-0.5,0.9c-0.3,0.2-0.7,0.3-1,0.1c-0.8-0.3-1.2-1.2-1.5-1.9c-0.6-1.7-1-3.4-1.4-5.2C44.4,31.7,44.1,31.8,44.1,32
			L44.1,32z"/>
		<path class="st8" d="M43.2,31.3c0.1-1.3,0-2.7-0.3-4c-0.1-0.3-0.2-0.7-0.6-0.6c-0.4,0.2-0.3,0.6-0.2,0.9c0.3,0.7,1.4,0.7,1.9,0.3
			c0.3-0.3,0.3-0.7,0.2-1c-0.1-0.2-0.3-0.2-0.5-0.2c-0.1,0-0.2,0.1-0.2,0.2c-0.1,0.3-0.1,0.6-0.1,0.9c0,0.4,0,0.7,0,1.1
			c0,0.8,0.1,1.5,0.2,2.2c0,0.1,0.2,0.1,0.2,0c-0.2-1-0.3-2.1-0.3-3.1c0-0.2,0-0.5,0-0.7c0-0.1,0-0.1,0-0.2c0.3-0.1,0.4-0.1,0.4,0.1
			c0,0.1,0,0.2-0.1,0.3c-0.2,0.3-0.6,0.5-1,0.5c-0.4,0-1-0.3-0.9-0.8c0-0.2,0.2-0.5,0.4-0.1c0,0.1,0.1,0.2,0.1,0.3
			c0.1,0.3,0.1,0.6,0.1,0.9c0.1,1,0.2,2,0.1,3C43.1,31.3,43.1,31.4,43.2,31.3C43.2,31.3,43.2,31.3,43.2,31.3L43.2,31.3z"/>
		<path class="st8" d="M42,26.1c0-0.5-0.2-1.1,0.5-1.2c0.2,0,0.1-0.4-0.1-0.4c-0.3,0-0.6,0.3-0.7,0.5c-0.1,0.3-0.1,0.7-0.1,1
			C41.6,26.3,42,26.3,42,26.1z"/>
		<path class="st8" d="M43,24.5c0.1,0,0.2-0.1,0.2-0.2c0-0.1-0.1-0.2-0.2-0.2c-0.1,0-0.2,0.1-0.2,0.2C42.8,24.4,42.9,24.5,43,24.5z"
			/>
		<path d="M46.5,25.5l1.4-1.4c0.1-0.1,0-0.2-0.1-0.1l-1.4,1.4C46.3,25.4,46.4,25.6,46.5,25.5z"/>
		<path d="M46.8,26.7c0.5-0.3,1-0.5,1.5-0.7c0.1,0,0.1-0.2,0-0.2c-0.5,0.2-1,0.4-1.5,0.7c0,0-0.1,0.1,0,0.1
			C46.7,26.7,46.8,26.7,46.8,26.7z"/>
		<path d="M46.9,28l1.2,0.1c0.1,0,0.1-0.2,0-0.2l-1.2-0.1C46.8,27.8,46.8,28,46.9,28z"/>
		<path d="M39.6,26.2l-1.7-1c0,0-0.1,0-0.1,0c0,0,0,0.1,0,0.1l1.7,1c0,0,0.1,0,0.1,0C39.7,26.3,39.6,26.2,39.6,26.2z"/>
		<path d="M39.5,27.4c-0.5-0.2-1.1-0.3-1.7-0.3c-0.1,0-0.1,0.2,0,0.2c0.5,0.1,1.1,0.2,1.6,0.3c0,0,0.1,0,0.1-0.1
			C39.6,27.5,39.6,27.4,39.5,27.4C39.5,27.4,39.5,27.4,39.5,27.4z"/>
		<path d="M39.7,28.7l-1.2,0.4c-0.1,0-0.1,0.2,0,0.2l1.2-0.4C39.9,28.9,39.8,28.7,39.7,28.7z"/>
		<path class="st7" d="M58.1,30.8c-0.5,0-1.7,0.3-2.1-0.1c0,0,0-0.8-0.1-1.1c-0.1-0.4,1-0.4,1.2-0.4c-0.2-1.6-1.3-6.9,1.7-6.4
			c3.2,0.5,1.6,4.7,0.8,6.7c0.3,0,1.3,0.1,1.3,0.4s-0.2,0.6-0.3,1C60.7,31.4,58.9,30.6,58.1,30.8z"/>
		<path d="M58.1,30.7c-0.4,0-0.8,0.1-1.2,0.1c-0.2,0-0.5,0-0.7-0.1c-0.1-0.1,0,0-0.1-0.1c0-0.1,0-0.1,0-0.2l0-0.5
			c0-0.2-0.1-0.3,0.1-0.4c0.3-0.1,0.7-0.2,1-0.1c0,0,0.1-0.1,0.1-0.1c-0.1-0.9-0.3-1.8-0.3-2.7s-0.1-2.1,0.4-3
			c0.5-0.9,1.8-0.8,2.6-0.3c0.9,0.6,0.9,1.8,0.8,2.7c-0.2,1.2-0.6,2.3-1.1,3.4c0,0,0,0.1,0,0.1c0,0,0,0,0,0h0c0.4,0,0.7,0.1,1.1,0.2
			c0.2,0.1,0,0.5-0.1,0.7c-0.1,0.2,0,0.5-0.2,0.5c-0.4,0-0.8,0-1.2-0.2C58.9,30.7,58.5,30.6,58.1,30.7c-0.1,0-0.1,0.2,0,0.2
			c0.6,0,1.1,0.1,1.7,0.2c0.3,0,0.8,0.2,1-0.1c0-0.1,0.1-0.2,0.1-0.4c0-0.2,0.1-0.4,0.2-0.6c0.1-0.2,0.1-0.3,0-0.4
			c-0.3-0.3-0.9-0.3-1.3-0.3l0.1,0.1c0.5-1,0.8-2.1,1-3.3c0.2-1,0.2-2.2-0.6-2.9c-0.6-0.6-2-1-2.7-0.3s-0.8,1.8-0.8,2.8
			c0,1.2,0.2,2.3,0.4,3.5l0.1-0.1c-0.4,0-0.8,0-1.2,0.2c-0.3,0.2-0.1,0.7-0.1,1c0,0.1,0,0.3,0,0.4s0.4,0.2,0.5,0.2
			c0.5,0,1.1,0,1.6-0.1C58.3,30.8,58.2,30.7,58.1,30.7z"/>
		<path d="M57.4,31c0,1.2,0,2.5-0.1,3.7c-0.1,1-0.1,2.6-1.4,2.8c-0.4,0.1-0.8,0-1.1-0.1c-0.4-0.2-0.4-0.5-0.4-0.9
			c0.1-0.4,0.2-0.9,0.7-1c0.2,0,0.3,0,0.5,0c0.1,0.1,0.2,0.2,0.1,0.4c0,0-0.1,0.1-0.1,0.1c-0.2,0.1,0,0.4,0.2,0.3
			c0.3-0.2,0.4-0.6,0.2-0.9c0,0,0,0,0,0c0,0,0,0,0,0c-0.2-0.2-0.5-0.3-0.8-0.2c-0.4,0.1-0.7,0.3-0.9,0.7c-0.2,0.4-0.2,0.8-0.2,1.3
			c0.2,0.8,1.2,0.9,1.9,0.8c1.1-0.2,1.5-1.3,1.6-2.3c0.2-1.5,0.2-3,0.2-4.5C57.8,30.7,57.4,30.7,57.4,31L57.4,31z"/>
		<path d="M59,31.1c0.1,1.1,0.2,2.2,0.3,3.3c0.1,1,0.3,2.1,0.6,3.1c0.3,0.7,0.9,1.5,1.8,1.5c0.7,0,1.3-0.6,1.5-1.3
			c0.1-0.2-0.3-0.3-0.4-0.1c-0.1,0.3-0.3,0.6-0.6,0.8c-0.3,0.2-0.7,0.2-1,0c-0.8-0.4-1-1.3-1.2-2.1c-0.3-1.8-0.5-3.5-0.6-5.3
			C59.3,30.8,58.9,30.9,59,31.1L59,31.1z"/>
		<path class="st8" d="M58.2,30.3c0.2-1.3,0.3-2.7,0.3-4c0-0.3-0.1-0.8-0.5-0.6c-0.4,0.1-0.4,0.6-0.3,0.8c0.2,0.7,1.3,0.9,1.9,0.5
			c0.3-0.2,0.5-0.6,0.3-1c-0.1-0.2-0.2-0.3-0.4-0.2c-0.1,0-0.2,0.1-0.2,0.2c-0.1,0.3-0.2,0.6-0.2,0.9c0,0.4-0.1,0.7-0.1,1.1
			c-0.1,0.8-0.1,1.5-0.1,2.3c0,0.1,0.2,0.1,0.2,0c0-1,0-2.1,0.2-3.1c0-0.2,0.1-0.5,0.1-0.7c0-0.1,0-0.1,0.1-0.2
			c0.3-0.1,0.4,0,0.4,0.2c0,0.1,0,0.2-0.1,0.3c-0.2,0.3-0.6,0.5-1,0.4c-0.4-0.1-0.9-0.4-0.8-0.9c0-0.2,0.2-0.4,0.5,0
			c0,0.1,0,0.2,0,0.3c0,0.3,0,0.6,0,0.9c0,1-0.1,2-0.3,3C58,30.3,58,30.3,58.2,30.3C58.1,30.3,58.2,30.3,58.2,30.3L58.2,30.3z"/>
		<path class="st8" d="M57.7,24.9c0.1-0.4,0-1.2,0.6-1.2c0.2,0,0.2-0.4,0-0.4c-0.3,0-0.6,0.2-0.7,0.4c-0.1,0.3-0.2,0.7-0.2,1
			C57.3,25.1,57.7,25.2,57.7,24.9z"/>
		<path class="st8" d="M59,23.6c0.1,0,0.2-0.1,0.2-0.2c0-0.1-0.1-0.2-0.1-0.2c-0.1,0-0.2,0.1-0.2,0.2C58.8,23.5,58.9,23.5,59,23.6z"
			/>
		<path d="M62.3,25l1.6-1.1c0.1-0.1,0-0.2-0.1-0.1l-1.6,1.1C62,25,62.1,25.1,62.3,25z"/>
		<path d="M62.4,26.3c0.5-0.2,1-0.4,1.6-0.5c0.1,0,0.1-0.2,0-0.2c-0.6,0.1-1.1,0.3-1.6,0.5c0,0-0.1,0.1,0,0.1
			C62.3,26.3,62.4,26.3,62.4,26.3C62.4,26.3,62.4,26.3,62.4,26.3z"/>
		<path d="M62.3,27.6l1.2,0.3c0.1,0,0.1-0.2,0-0.2l-1.2-0.3C62.2,27.4,62.1,27.6,62.3,27.6z"/>
		<path d="M55.3,24.7l-1.5-1.2c0,0-0.1,0-0.1,0c0,0,0,0.1,0,0.1l1.5,1.2c0,0,0.1,0,0.1,0C55.4,24.8,55.4,24.8,55.3,24.7z"/>
		<path d="M55.1,25.9c-0.5-0.2-1.1-0.4-1.6-0.6c-0.1,0-0.1,0.2,0,0.2c0.5,0.1,1.1,0.3,1.6,0.6c0,0,0.1,0,0.1,0c0,0,0,0,0,0
			C55.2,26,55.1,26,55.1,25.9C55.1,25.9,55.1,25.9,55.1,25.9z"/>
		<path d="M55.1,27.2l-1.2,0.2c-0.1,0-0.1,0.2,0,0.2l1.2-0.2C55.2,27.4,55.2,27.2,55.1,27.2z"/>
		<path class="st7" d="M72.2,34.5c-0.5,0-1.7,0.2-2.1-0.2c0,0,0-0.8,0-1.1c0-0.4,1-0.4,1.3-0.4c-0.1-1.6-0.9-7,2.1-6.3
			c3.2,0.7,1.4,4.8,0.4,6.7c0.3,0,1.3,0.2,1.3,0.5s-0.2,0.5-0.3,1C74.7,35.2,73,34.3,72.2,34.5z"/>
		<path d="M72.2,34.4c-0.4,0-0.8,0.1-1.2,0c-0.2,0-0.5,0-0.7-0.1c-0.1-0.1,0,0-0.1-0.1c0-0.1,0-0.1,0-0.2c0-0.2,0-0.4,0-0.5
			c0-0.2,0-0.3,0.2-0.4c0.3-0.1,0.7-0.1,1-0.1c0,0,0.1,0,0.1-0.1c0,0,0,0,0,0c-0.1-0.9-0.2-1.8-0.2-2.7s0-2.1,0.5-2.9
			c0.6-0.9,1.8-0.7,2.6-0.1c0.8,0.7,0.8,1.8,0.6,2.8c-0.3,1.2-0.7,2.3-1.2,3.3c0,0,0,0.1,0,0.1l0,0c0.4,0,0.7,0.1,1.1,0.3
			c0.2,0.1,0,0.5-0.1,0.7c-0.1,0.2,0,0.5-0.3,0.5c-0.4,0-0.8-0.1-1.2-0.2C72.9,34.4,72.5,34.3,72.2,34.4c-0.2,0-0.2,0.2-0.1,0.2
			c0.6,0,1.1,0.1,1.7,0.3c0.3,0.1,0.8,0.2,1,0c0.1-0.1,0.1-0.2,0.1-0.4c0.1-0.2,0.1-0.4,0.2-0.6c0.1-0.2,0.1-0.3,0-0.4
			c-0.3-0.3-0.9-0.3-1.3-0.4l0.1,0.1c0.5-1,0.9-2.1,1.2-3.2c0.2-1,0.3-2.2-0.4-3c-0.6-0.7-1.9-1.1-2.7-0.5c-0.8,0.6-0.9,1.8-0.9,2.7
			c0,1.2,0,2.3,0.2,3.5l0.1-0.1c-0.4-0.1-0.8,0-1.2,0.2c-0.3,0.2-0.2,0.7-0.2,1c0,0.1,0,0.3,0,0.4s0.4,0.2,0.5,0.2
			c0.5,0.1,1.1,0.1,1.6,0C72.2,34.5,72.2,34.4,72.2,34.4C72.2,34.4,72.2,34.4,72.2,34.4z"/>
		<path d="M71.4,34.7c0,1.2-0.1,2.5-0.3,3.7c-0.1,1-0.3,2.5-1.5,2.7c-0.4,0.1-0.8,0-1.1-0.2c-0.4-0.2-0.4-0.5-0.3-0.9
			c0.1-0.4,0.3-0.9,0.8-0.9c0.2,0,0.3,0,0.5,0.1c0.1,0.1,0.2,0.2,0.1,0.4c0,0-0.1,0.1-0.1,0.1c-0.2,0.1,0,0.4,0.2,0.3
			c0.3-0.2,0.4-0.6,0.2-0.9l0-0.1c-0.2-0.2-0.5-0.3-0.8-0.3c-0.4,0-0.8,0.3-1,0.6c-0.2,0.4-0.3,0.8-0.3,1.2c0.1,0.8,1.2,1,1.8,0.9
			c1.1-0.1,1.6-1.3,1.8-2.2c0.3-1.5,0.4-3,0.4-4.5C71.7,34.4,71.4,34.4,71.4,34.7L71.4,34.7z"/>
		<path d="M73,34.8c0,1.1,0,2.2,0.1,3.3c0,1,0.2,2.1,0.4,3.1c0.2,0.7,0.8,1.5,1.7,1.6c0.7,0,1.4-0.5,1.6-1.2
			c0.1-0.2-0.3-0.3-0.4-0.1c-0.1,0.3-0.4,0.6-0.7,0.8c-0.3,0.2-0.7,0.1-1-0.1c-0.8-0.5-1-1.4-1.1-2.2c-0.2-1.8-0.3-3.6-0.3-5.4
			C73.3,34.6,73,34.6,73,34.8L73,34.8z"/>
		<path class="st8" d="M72.2,34c0.3-1.3,0.5-2.6,0.5-4c0-0.3-0.1-0.8-0.5-0.7c-0.4,0.1-0.4,0.5-0.3,0.8c0.2,0.7,1.2,1,1.8,0.6
			c0.3-0.2,0.5-0.6,0.4-0.9c0-0.2-0.2-0.3-0.4-0.3c-0.1,0-0.2,0.1-0.2,0.2c-0.1,0.3-0.2,0.6-0.3,0.9c-0.1,0.4-0.1,0.7-0.2,1.1
			c-0.1,0.7-0.2,1.5-0.2,2.3c0,0.1,0.2,0.1,0.2,0c0-1,0.2-2.1,0.4-3.1c0-0.2,0.1-0.5,0.1-0.7c0-0.1,0-0.1,0.1-0.2
			c0.3-0.1,0.4,0,0.4,0.2c0,0.1-0.1,0.2-0.1,0.3c-0.3,0.3-0.7,0.4-1,0.3c-0.4-0.1-0.9-0.5-0.7-1c0.1-0.2,0.3-0.4,0.5,0
			c0,0.1,0,0.2,0,0.3c0,0.3,0,0.6,0,0.9c-0.1,1-0.3,2-0.5,3c0,0.1,0,0.1,0.1,0.1C72.1,34.1,72.2,34,72.2,34L72.2,34z"/>
		<path class="st8" d="M72.1,28.6c0.1-0.4,0.1-1.1,0.7-1.1c0.2,0,0.2-0.4,0-0.4c-0.3,0-0.6,0.1-0.8,0.4c-0.1,0.3-0.2,0.6-0.3,1
			C71.7,28.8,72,28.8,72.1,28.6L72.1,28.6z"/>
		<path class="st8" d="M73.4,27.3c0.1,0,0.2-0.1,0.2-0.2c0-0.1,0-0.2-0.1-0.2c-0.1,0-0.2,0.1-0.2,0.2C73.3,27.2,73.3,27.3,73.4,27.3
			z"/>
		<path d="M76.6,29l1.7-1c0.1-0.1,0-0.2-0.1-0.2l-1.7,1c0,0-0.1,0.1,0,0.1C76.5,29,76.6,29,76.6,29L76.6,29z"/>
		<path d="M76.7,30.2c0.5-0.2,1.1-0.3,1.6-0.4c0.1,0,0.1-0.2,0-0.2c-0.6,0.1-1.1,0.2-1.6,0.4c0,0-0.1,0.1-0.1,0.1
			C76.6,30.2,76.6,30.2,76.7,30.2C76.6,30.2,76.6,30.2,76.7,30.2z"/>
		<path d="M76.5,31.5l1.2,0.3c0.1,0,0.1-0.1,0-0.2l-1.2-0.3C76.4,31.3,76.3,31.5,76.5,31.5z"/>
		<path d="M69.7,28.3L68.2,27c0,0-0.1,0-0.1,0c0,0,0,0.1,0,0.1l1.5,1.3c0,0,0.1,0,0.1,0C69.7,28.4,69.7,28.3,69.7,28.3z"/>
		<path d="M69.4,29.5c-0.5-0.3-1-0.5-1.6-0.7c-0.1,0-0.1,0.1,0,0.2c0.5,0.2,1,0.4,1.5,0.6c0,0,0.1,0,0.1,0
			C69.5,29.5,69.4,29.5,69.4,29.5C69.4,29.5,69.4,29.5,69.4,29.5z"/>
		<path d="M69.3,30.8l-1.2,0.1c-0.1,0-0.1,0.2,0,0.2l1.2-0.1C69.4,31,69.4,30.8,69.3,30.8L69.3,30.8z"/>
		<path class="st7" d="M79.6,46.5c-0.5,0.1-1.6,0.5-2.1,0.2c0,0-0.1-0.8-0.2-1.1c-0.1-0.4,0.9-0.6,1.2-0.6c-0.4-1.6-2.3-6.7,0.7-6.6
			c3.3,0.1,2.3,4.4,1.8,6.5c0.3,0,1.3-0.1,1.3,0.2c0,0.3-0.1,0.6-0.1,1.1C82.2,46.8,80.3,46.3,79.6,46.5z"/>
		<path d="M79.6,46.4c-0.4,0.1-0.8,0.2-1.2,0.3c-0.2,0.1-0.5,0.1-0.7,0c-0.1,0,0,0-0.1-0.1c0-0.1,0-0.1,0-0.2l-0.1-0.5
			c0-0.2-0.1-0.3,0.1-0.5c0.3-0.2,0.6-0.3,1-0.3c0,0,0.1-0.1,0.1-0.1c-0.2-0.9-0.5-1.7-0.7-2.6c-0.2-0.9-0.4-2.1-0.1-3
			c0.4-0.9,1.7-1.1,2.5-0.6c0.9,0.5,1.1,1.7,1.1,2.6c0,1.2-0.2,2.4-0.5,3.5c0,0.1,0,0.1,0.1,0.1l0,0c0.4-0.1,0.8,0,1.1,0
			c0.2,0.1,0.1,0.5,0,0.7c0,0.2,0,0.5-0.1,0.6c-0.4,0.1-0.8,0.1-1.2,0C80.4,46.4,80,46.4,79.6,46.4c-0.1,0.1-0.1,0.2,0,0.2
			c0.6-0.1,1.1-0.1,1.7,0c0.3,0,0.8,0.1,0.9-0.2c0-0.1,0-0.2,0-0.4c0-0.2,0.1-0.4,0.1-0.6c0-0.2,0-0.3-0.1-0.4
			c-0.3-0.2-0.9-0.1-1.3-0.1L81,45c0.3-1.1,0.5-2.2,0.5-3.4c0-1-0.1-2.2-1-2.8c-0.7-0.5-2.1-0.7-2.7,0.1s-0.5,1.9-0.4,2.8
			c0.2,1.1,0.5,2.3,0.9,3.4l0.1-0.1c-0.4,0-0.8,0.2-1.1,0.4c-0.3,0.3,0,0.8,0,1c0,0.1,0,0.3,0.1,0.4C77.5,47,77.8,47,78,47
			c0.5-0.1,1.1-0.2,1.6-0.3c0.1,0,0.1-0.1,0.1-0.1C79.7,46.5,79.6,46.4,79.6,46.4z"/>
		<path d="M78.9,46.9c0.2,1.2,0.4,2.4,0.5,3.7c0.1,1,0.2,2.6-0.9,3c-0.4,0.1-0.8,0.1-1.1,0.1c-0.4-0.1-0.5-0.4-0.5-0.8
			c-0.1-0.4,0.2-0.9,0.6-1.1c0.2-0.1,0.3-0.1,0.5,0c0.2,0,0.2,0.2,0.2,0.3c0,0.1,0,0.1-0.1,0.1c-0.2,0.2,0.1,0.4,0.3,0.3
			c0.3-0.2,0.3-0.7,0-0.9l0,0c-0.3-0.2-0.6-0.2-0.9-0.1c-0.4,0.1-0.7,0.4-0.8,0.8c-0.1,0.4-0.1,0.9,0,1.3c0.3,0.7,1.4,0.7,2,0.5
			c1.1-0.3,1.3-1.6,1.3-2.5c0-1.5-0.2-3-0.5-4.5C79.2,46.6,78.9,46.7,78.9,46.9L78.9,46.9z"/>
		<path d="M80.4,46.8c0.2,1.1,0.5,2.2,0.8,3.3c0.2,1,0.6,2,1,2.9c0.4,0.7,1.1,1.3,2,1.3c0.7-0.2,1.2-0.8,1.3-1.5
			c0-0.2-0.3-0.2-0.4,0c0,0.4-0.2,0.7-0.5,0.9c-0.3,0.2-0.7,0.3-1,0.1c-0.8-0.3-1.2-1.2-1.5-1.9c-0.6-1.7-1-3.4-1.4-5.2
			C80.8,46.4,80.4,46.5,80.4,46.8L80.4,46.8z"/>
		<path class="st8" d="M79.6,46c0.1-1.3,0-2.7-0.3-4c-0.1-0.3-0.2-0.7-0.6-0.6c-0.4,0.2-0.3,0.6-0.2,0.9c0.3,0.7,1.4,0.7,1.9,0.3
			c0.3-0.3,0.3-0.7,0.2-1c-0.1-0.2-0.3-0.2-0.5-0.2c-0.1,0-0.1,0.1-0.2,0.2c-0.1,0.3-0.1,0.6-0.1,0.9c0,0.4,0,0.7,0,1.1
			c0,0.8,0.1,1.5,0.2,2.2c0,0.1,0.2,0.1,0.2,0c-0.2-1-0.3-2.1-0.3-3.1c0-0.2,0-0.5,0-0.7c0-0.1,0-0.1,0-0.2c0.3-0.1,0.4-0.1,0.4,0.1
			c0,0.1,0,0.2-0.1,0.3c-0.2,0.3-0.6,0.5-1,0.5c-0.4,0-1-0.3-0.9-0.8c0-0.2,0.2-0.5,0.4-0.1c0,0.1,0.1,0.2,0.1,0.3
			c0.1,0.3,0.1,0.6,0.1,0.9c0.1,1,0.2,2,0.1,3C79.4,46.1,79.4,46.1,79.6,46C79.5,46.1,79.6,46.1,79.6,46L79.6,46z"/>
		<path class="st8" d="M78.3,40.8c0-0.5-0.2-1.1,0.5-1.2c0.2,0,0.1-0.4-0.1-0.4c-0.3,0-0.6,0.3-0.7,0.5c-0.1,0.3-0.1,0.7-0.1,1
			C78,41.1,78.3,41.1,78.3,40.8L78.3,40.8z"/>
		<path class="st8" d="M79.4,39.3c0.1,0,0.2-0.1,0.2-0.2c0-0.1-0.1-0.2-0.2-0.2c-0.1,0-0.2,0.1-0.2,0.2
			C79.2,39.2,79.3,39.3,79.4,39.3z"/>
		<path d="M82.8,40.3l1.4-1.4c0,0,0-0.1,0-0.1c0,0-0.1,0-0.1,0l0,0l-1.4,1.4C82.6,40.2,82.7,40.3,82.8,40.3L82.8,40.3z"/>
		<path d="M83.2,41.5c0.5-0.3,1-0.5,1.5-0.7c0.1,0,0.1-0.2,0-0.2c-0.5,0.2-1,0.4-1.5,0.7c0,0,0,0.1,0,0.1
			C83.1,41.5,83.1,41.5,83.2,41.5L83.2,41.5z"/>
		<path d="M83.2,42.8l1.2,0.1c0.1,0,0.1-0.2,0-0.2l-1.2-0.1C83.1,42.6,83.1,42.8,83.2,42.8z"/>
		<path d="M75.9,41l-1.7-1c0,0-0.1,0-0.1,0c0,0,0,0.1,0,0.1l1.7,1c0,0,0.1,0,0.1,0C76,41,76,41,75.9,41z"/>
		<path d="M75.9,42.2c-0.5-0.2-1.1-0.3-1.7-0.3c-0.1,0-0.1,0.2,0,0.2c0.5,0.1,1.1,0.2,1.6,0.3c0,0,0.1,0,0.1,0
			C76,42.3,75.9,42.2,75.9,42.2C75.9,42.2,75.9,42.2,75.9,42.2L75.9,42.2z"/>
		<path d="M76,43.5l-1.2,0.4c-0.1,0-0.1,0.2,0,0.2l1.2-0.4C76.2,43.6,76.2,43.5,76,43.5z"/>
		<path class="st7" d="M74.9,57.8c-0.5,0-1.7,0.1-2.1-0.3c0,0,0.1-0.8,0-1.1c0-0.4,1-0.3,1.3-0.3c0-1.6-0.5-7,2.4-6.2
			c3.1,0.9,1.1,4.9,0.1,6.7c0.3,0,1.3,0.2,1.2,0.5c0,0.3-0.3,0.5-0.4,1C77.3,58.6,75.7,57.7,74.9,57.8z"/>
		<path d="M74.9,57.7c-0.4,0-0.8,0-1.2,0c-0.2,0-0.5-0.1-0.7-0.2c-0.1-0.1,0,0-0.1-0.1c0-0.1,0-0.1,0-0.2l0-0.5c0-0.2,0-0.3,0.2-0.4
			c0.3-0.1,0.7-0.1,1,0c0,0,0.1,0,0.1-0.1c0,0,0,0,0,0c0-0.9-0.1-1.8,0-2.7c0-0.9,0.1-2.1,0.7-2.9c0.6-0.8,1.9-0.6,2.6,0
			s0.7,1.9,0.5,2.8c-0.3,1.1-0.8,2.2-1.4,3.3c0,0,0,0.1,0,0.1l0,0c0.4,0,0.7,0.1,1.1,0.3c0.2,0.2-0.1,0.5-0.1,0.7s-0.1,0.5-0.3,0.5
			c-0.4,0-0.8-0.1-1.2-0.3C75.6,57.8,75.2,57.7,74.9,57.7c-0.2,0-0.2,0.1,0,0.1c0.6,0,1.1,0.2,1.6,0.4c0.3,0.1,0.8,0.3,1,0
			c0.1-0.1,0.1-0.2,0.1-0.4c0.1-0.2,0.2-0.4,0.2-0.6c0.1-0.1,0.1-0.3,0-0.4c-0.2-0.3-0.9-0.4-1.2-0.4l0.1,0.1c0.6-1,1-2,1.4-3.1
			c0.3-0.9,0.4-2.1-0.3-3c-0.6-0.7-1.8-1.2-2.7-0.6c-0.8,0.6-1,1.8-1.1,2.7c-0.1,1.2-0.1,2.3,0,3.5l0.1-0.1c-0.4-0.1-0.8,0-1.2,0.1
			c-0.3,0.2-0.2,0.7-0.2,1c0,0.1,0,0.3,0,0.4c0.1,0.2,0.4,0.2,0.5,0.3c0.5,0.1,1.1,0.1,1.6,0.1C75,57.9,75,57.7,74.9,57.7z"/>
		<path d="M74.1,58c-0.1,1.2-0.2,2.4-0.5,3.7c-0.2,0.9-0.4,2.5-1.6,2.6c-0.4,0-0.8,0-1.1-0.2c-0.4-0.2-0.4-0.5-0.3-0.9
			s0.3-0.8,0.8-0.9c0.2,0,0.3,0,0.5,0.1c0.1,0.1,0.2,0.3,0.1,0.4c0,0-0.1,0.1-0.1,0.1c-0.2,0.1,0,0.4,0.2,0.3
			c0.3-0.2,0.4-0.6,0.2-0.9c0,0,0,0,0,0c0,0,0,0,0-0.1c-0.2-0.2-0.5-0.4-0.8-0.3c-0.4,0-0.8,0.2-1,0.6c-0.2,0.4-0.3,0.8-0.3,1.2
			c0.1,0.8,1.1,1,1.8,1c1.1,0,1.7-1.2,1.9-2.1c0.3-1.5,0.5-3,0.6-4.5C74.5,57.7,74.1,57.7,74.1,58L74.1,58z"/>
		<path d="M75.6,58.2c-0.1,1.1-0.1,2.2,0,3.4c0,1,0.1,2.1,0.3,3.1c0.2,0.8,0.8,1.6,1.6,1.7c0.7,0,1.4-0.4,1.6-1.1
			c0.1-0.2-0.3-0.3-0.4-0.1c-0.1,0.3-0.4,0.6-0.7,0.8c-0.3,0.2-0.7,0.1-1-0.1c-0.7-0.5-0.9-1.4-1-2.2c-0.1-1.8-0.2-3.6-0.1-5.4
			C76,58,75.7,58,75.6,58.2L75.6,58.2z"/>
		<path class="st8" d="M75,57.3c0.4-1.3,0.6-2.6,0.7-4c0-0.3,0-0.8-0.4-0.7c-0.4,0.1-0.4,0.5-0.4,0.8c0.1,0.7,1.2,1.1,1.8,0.7
			c0.3-0.2,0.5-0.6,0.4-0.9c0-0.2-0.2-0.3-0.4-0.3c-0.1,0-0.2,0.1-0.2,0.1c-0.2,0.3-0.3,0.6-0.3,0.9c-0.1,0.4-0.2,0.7-0.2,1.1
			c-0.1,0.7-0.2,1.5-0.3,2.2c0,0.1,0.2,0.1,0.2,0c0.1-1,0.3-2.1,0.5-3.1c0-0.2,0.1-0.5,0.2-0.7c0-0.1,0-0.1,0.1-0.2
			c0.3,0,0.4,0,0.4,0.2c0,0.1-0.1,0.2-0.1,0.3c-0.3,0.3-0.7,0.4-1.1,0.3c-0.4-0.1-0.9-0.5-0.7-1c0.1-0.2,0.3-0.4,0.5,0
			c0,0.1,0,0.2,0,0.3c0,0.3-0.1,0.6-0.1,0.9c-0.1,1-0.3,2-0.6,3C74.8,57.3,74.8,57.3,75,57.3C74.9,57.3,74.9,57.3,75,57.3L75,57.3z"
			/>
		<path class="st8" d="M75.1,51.9c0.1-0.4,0.1-1.1,0.8-1.1c0.2,0,0.2-0.3,0-0.4c-0.3,0-0.6,0.1-0.8,0.4c-0.2,0.3-0.3,0.6-0.3,1
			C74.7,52.1,75,52.2,75.1,51.9L75.1,51.9z"/>
		<path class="st8" d="M76.5,50.7c0.1,0,0.2,0,0.2-0.1s0-0.2-0.1-0.2c-0.1,0-0.2,0-0.2,0.1S76.4,50.7,76.5,50.7L76.5,50.7z"/>
		<path d="M79.6,52.5l1.7-1c0,0,0.1-0.1,0-0.1c0,0-0.1-0.1-0.1,0l-1.7,1c0,0,0,0.1,0,0.1C79.5,52.5,79.5,52.5,79.6,52.5L79.6,52.5z"
			/>
		<path d="M79.6,53.8c0.5-0.1,1.1-0.2,1.6-0.3c0.1,0,0.1-0.2,0-0.2c-0.6,0.1-1.1,0.2-1.7,0.3C79.5,53.6,79.5,53.7,79.6,53.8
			C79.5,53.8,79.6,53.8,79.6,53.8L79.6,53.8z"/>
		<path d="M79.3,55.1l1.2,0.4c0.1,0,0.2-0.1,0-0.2l-1.2-0.4C79.2,54.9,79.2,55,79.3,55.1z"/>
		<path d="M72.7,51.5l-1.4-1.4c0,0-0.1,0-0.1,0c0,0,0,0.1,0,0.1l1.4,1.4c0,0,0.1,0,0.1,0c0,0,0,0,0,0C72.8,51.6,72.8,51.5,72.7,51.5
			z"/>
		<path d="M72.3,52.7c-0.5-0.3-1-0.5-1.5-0.7c-0.1,0-0.2,0.1,0,0.2c0.5,0.2,1,0.4,1.5,0.7c0,0,0.1,0,0.1,0
			C72.4,52.7,72.4,52.7,72.3,52.7L72.3,52.7z"/>
		<path d="M72.2,54L71,54c-0.1,0-0.1,0.2,0,0.2l1.2-0.1C72.2,54.1,72.3,54.1,72.2,54C72.3,54,72.2,54,72.2,54z"/>
		<path class="st9" d="M73.6,83.8c-10.2-5.6-23.1-11.7-25-12.5c0,0,0,0.1,0,0.1c0.2,0.2,0.4,0.5,0.6,0.7l-0.3,0.5
			c0.1,1.5-0.7,3-1.9,3.8c-0.3,0.1-0.6,0.2-0.9,0.3L46,76.8c5.1,1.6,13.8,5.7,21.8,9.4C68.4,86.1,73.5,83.9,73.6,83.8z"/>
		<path d="M74,83.2c-7.3-4-14.8-7.8-22.4-11.3c-0.9-0.4-1.8-0.9-2.8-1.3c-0.5-0.2-1.1,0.4-0.9,0.9c0.2,0.4,0.4,0.7,0.7,1v-0.8
			c-0.2,0.3-0.4,0.6-0.4,1c0,0.6-0.1,1.1-0.4,1.6c-0.2,0.5-0.6,0.9-1.1,1.3c-0.5,0.3-1.1,0.2-1.4,0.8c-0.2,0.4-0.1,0.8,0.3,1
			c0.1,0,0.1,0,0.2,0.1c4.4,1.4,8.6,3.4,12.8,5.3c2.5,1.1,5,2.3,7.5,3.5c0.5,0.2,1.2,0.8,1.8,0.6c0.2,0,0.3-0.1,0.5-0.2
			c0.6-0.2,1.3-0.5,1.9-0.8c1.2-0.5,2.5-1,3.7-1.6c0.9-0.4,0.1-1.7-0.7-1.3c-0.9,0.4-1.7,0.7-2.6,1.1c-1,0.5-2,0.9-3.1,1.2l0.6,0.1
			c-4-1.9-8-3.7-12-5.5c-3.2-1.5-6.5-2.8-9.9-4l0.4,1.1l0.1-0.1l-0.4,0.3c1.3-0.3,2.3-1.1,2.9-2.3c0.3-0.5,0.5-1.1,0.5-1.7
			c0-0.2,0-0.3,0-0.5v-0.2c-0.1,0.2-0.1,0.2-0.1,0.1c0.1-0.1,0.2-0.3,0.3-0.4c0.1-0.2,0.1-0.5,0-0.8c-0.1-0.1-0.2-0.3-0.3-0.4
			c0,0-0.3-0.4-0.2-0.2l-0.9,0.9l0.2,0.1l0.5,0.2l1.4,0.7c1.4,0.7,2.8,1.3,4.1,2c3.9,1.9,7.7,3.8,11.6,5.8c2.3,1.2,4.6,2.4,6.9,3.7
			C74.1,84.9,74.8,83.7,74,83.2z"/>
		<path class="st9" d="M48.7,71.4c-1.3-1.5-3.9-3.3-5.8-3.3c0.3,2.5-0.6,5-2.5,6.7c1.5,1.2,3.8,2.5,5.4,1.9l0.3-0.1l2.9-4.1
			C48.9,72.2,48.8,71.8,48.7,71.4z"/>
		<path d="M49.2,70.9c-0.8-0.9-1.8-1.7-2.9-2.4c-1-0.7-2.2-1.1-3.4-1.2c-0.4,0-0.7,0.3-0.7,0.7c0.3,2.3-0.6,4.6-2.3,6.2
			c-0.3,0.3-0.3,0.8,0,1c1.1,0.9,2.3,1.6,3.6,2c0.6,0.2,1.3,0.3,1.9,0.2c0.5,0,1-0.2,1.4-0.6c0.8-1.1,1.6-2.2,2.4-3.4
			c0.2-0.2,0.3-0.4,0.5-0.6c0.3-0.5,0-1.3-0.1-1.8c-0.1-0.4-0.5-0.6-0.9-0.5c-0.4,0.1-0.6,0.5-0.5,0.9c0.1,0.3,0.2,0.6,0.2,1
			l0.1-0.4l-2.9,4.1l0.4-0.3c-0.4,0.1-0.8,0.2-1.2,0.2c-0.4-0.1-0.9-0.2-1.3-0.4c-0.9-0.4-1.7-0.9-2.5-1.5v1c2-1.8,3.1-4.5,2.7-7.2
			l-0.7,0.7c1,0.1,2,0.5,2.8,1.1c0.9,0.6,1.7,1.3,2.5,2.1C48.8,72.7,49.8,71.6,49.2,70.9z"/>
		<path class="st10" d="M40.2,74.4c-2.4,0-5.1-0.5-6.6-2.4c-0.6-0.9-1.1-1.9-1.4-2.9c-0.7-1.8-1.7-3.5-2.8-5
			c2.9,0.6,5.3,0.7,8.2,1.3c0.9,0.2,4,1.6,4.9,3.1"/>
		<path d="M40.2,73.7c-2.2,0-4.9-0.4-6.2-2.4c-0.7-1.2-1.1-2.5-1.7-3.8c-0.6-1.3-1.4-2.6-2.3-3.8l-0.8,1.1c2.7,0.5,5.6,0.6,8.3,1.3
			c0.7,0.2,1.5,0.5,2.1,0.9c0.9,0.4,1.7,1.1,2.3,1.8c0.5,0.8,1.8,0,1.3-0.8c-1.1-1.6-3.2-2.8-5.1-3.4c-1.3-0.3-2.6-0.5-3.9-0.6
			c-1.6-0.2-3.1-0.4-4.7-0.7c-0.6-0.1-1.3,0.5-0.8,1.1c1,1.3,1.8,2.7,2.4,4.1c0.6,1.4,1,2.9,2,4.1c1.7,2,4.5,2.5,7,2.5
			c0.4,0,0.7-0.3,0.7-0.7S40.6,73.7,40.2,73.7L40.2,73.7z"/>
	</g>
</g>
</svg>
