<?xml version="1.0" encoding="UTF-8" standalone="no"?>
<!-- Generator: Adobe Illustrator 24.2.0, SVG Export Plug-In . SVG Version: 6.00 Build 0)  -->

<svg
   xmlns:dc="http://purl.org/dc/elements/1.1/"
   xmlns:cc="http://creativecommons.org/ns#"
   xmlns:rdf="http://www.w3.org/1999/02/22-rdf-syntax-ns#"
   xmlns:svg="http://www.w3.org/2000/svg"
   xmlns="http://www.w3.org/2000/svg"
   xmlns:sodipodi="http://sodipodi.sourceforge.net/DTD/sodipodi-0.dtd"
   xmlns:inkscape="http://www.inkscape.org/namespaces/inkscape"
   version="1.1"
   id="Layer_1"
   x="0px"
   y="0px"
   viewBox="0 0 105.31264 96.085403"
   xml:space="preserve"
   sodipodi:docname="Ins-1.svg"
   width="105.31264"
   height="96.085403"
   inkscape:version="0.92.5 (2060ec1f9f, 2020-04-08)"><metadata
   id="metadata123"><rdf:RDF><cc:Work
       rdf:about=""><dc:format>image/svg+xml</dc:format><dc:type
         rdf:resource="http://purl.org/dc/dcmitype/StillImage" /><dc:title></dc:title></cc:Work></rdf:RDF></metadata><defs
   id="defs121" /><sodipodi:namedview
   pagecolor="#ffffff"
   bordercolor="#666666"
   borderopacity="1"
   objecttolerance="10"
   gridtolerance="10"
   guidetolerance="10"
   inkscape:pageopacity="0"
   inkscape:pageshadow="2"
   inkscape:window-width="1920"
   inkscape:window-height="1023"
   id="namedview119"
   showgrid="false"
   fit-margin-top="0"
   fit-margin-left="0"
   fit-margin-right="0"
   fit-margin-bottom="0"
   inkscape:zoom="2.3137255"
   inkscape:cx="51.21264"
   inkscape:cy="47.84096"
   inkscape:window-x="0"
   inkscape:window-y="25"
   inkscape:window-maximized="1"
   inkscape:current-layer="Layer_1" />
<style
   type="text/css"
   id="style2">
	.st0{fill:#4386C6;}
	.st1{fill:#8EB6E0;}
	.st2{fill:#BBD3EC;}
	.st3{fill:#143E41;}
	.st4{fill:#78C7CC;}
	.st5{fill:#183E41;}
	.st6{fill:#F2A2A5;stroke:#000000;stroke-width:0.4788;stroke-miterlimit:10;}
	.st7{fill:#F8C142;}
	.st8{fill:#E9676B;}
	.st9{fill:#FFFFFF;}
	.st10{fill:#143F41;}
	.st11{fill:#FCC545;}
	.st12{fill:#E91F33;}
</style>
<g
   id="g10"
   transform="translate(-4.7873601,-2.7555556)">
	<path
   class="st0"
   d="M 75.1,3.5 H 39.6 c -5.9,0 -11.4,3.1 -14.3,8.3 L 7.5,42.5 c -3,5.1 -3,11.4 0,16.5 l 17.7,30.7 c 3,5.1 8.4,8.3 14.3,8.3 H 75 c 5.9,0 11.4,-3.1 14.3,-8.3 L 107,59 c 3,-5.1 3,-11.4 0,-16.5 L 89.4,11.8 C 86.4,6.7 81,3.5 75.1,3.5 Z"
   id="path4"
   inkscape:connector-curvature="0"
   style="fill:#4386c6" />
	<g
   id="g8">
		<path
   d="m 75.1,2.8 c -9.6,0 -19.2,0 -28.8,0 -4.3,0 -8.9,-0.4 -13,1.2 -3.6,1.5 -6.6,4.1 -8.6,7.5 -0.6,1.1 -1.3,2.2 -1.9,3.3 -5.2,9 -10.4,17.9 -15.5,26.9 -3.3,5.8 -3.4,12.4 0,18.2 2.3,3.9 4.5,7.9 6.8,11.8 2.9,5 5.8,10.1 8.7,15.1 0.6,1.1 1.3,2.2 1.9,3.3 2,3.3 4.9,5.9 8.5,7.4 4.1,1.7 8.6,1.3 13,1.3 6.1,0 12.2,0 18.2,0 3.6,0 7.2,0 10.8,0 4.4,0 8.6,-1.7 11.8,-4.7 1.6,-1.5 2.7,-3.2 3.8,-5.1 5.3,-9.1 10.5,-18.2 15.8,-27.3 0.7,-1.2 1.5,-2.4 2,-3.7 2,-4.5 2,-9.7 0,-14.3 -1.5,-3.4 -3.7,-6.6 -5.6,-9.8 C 99.9,28.6 96.9,23.3 93.8,18 91.8,14.5 89.9,10.4 87,7.6 83.7,4.5 79.5,2.9 75.1,2.8 c -0.9,0 -0.9,1.4 0,1.4 4.9,0.1 9.5,2.3 12.5,6.1 0.9,1.1 1.6,2.4 2.3,3.7 2.6,4.5 5.2,8.9 7.7,13.4 2.6,4.5 5.2,9.1 7.9,13.6 0.7,1.3 1.5,2.6 2.1,4 1.8,4.5 1.3,9.5 -1,13.7 -4.7,8.3 -9.5,16.5 -14.3,24.8 -2,3.5 -3.8,7.5 -7,10.2 -2.9,2.4 -6.6,3.7 -10.3,3.7 -1.4,0 -2.7,0 -4.1,0 -10.2,0 -20.3,0 -30.5,0 -6.2,0 -11.5,-2.9 -14.6,-8.3 -2.1,-3.7 -4.3,-7.4 -6.4,-11 -2.9,-5 -5.8,-10 -8.6,-15 C 10,61.8 9.2,60.4 8.5,59.1 6.7,55.9 5.8,52.3 6.3,48.6 c 0.6,-4.3 3.3,-8 5.4,-11.7 3,-5.1 5.9,-10.2 8.9,-15.4 1.8,-3.1 3.6,-6.2 5.4,-9.3 2.2,-3.7 5.8,-6.5 10,-7.5 1.8,-0.4 3.5,-0.4 5.4,-0.4 10.4,0 20.7,0 31.1,0 0.9,0 1.8,0 2.7,0 0.8,0 0.8,-1.5 -0.1,-1.5 z"
   id="path6"
   inkscape:connector-curvature="0" />
	</g>
</g>
<g
   id="g18"
   transform="translate(-4.7873601,-2.7555556)">
	<circle
   class="st1"
   cx="57.299999"
   cy="50.799999"
   r="41.5"
   id="circle12"
   style="fill:#8eb6e0" />
	<g
   id="g16">
		<path
   d="M 98.1,50.8 C 98,67.8 87.2,83.4 71.2,89.2 55.2,95 36.8,90 25.9,76.9 14.9,63.7 13.5,44.3 22.4,29.6 31.2,15.1 48.7,7.4 65.4,10.7 82,14 95,27.7 97.7,44.3 c 0.3,2.2 0.4,4.4 0.4,6.5 0,0.9 1.4,0.9 1.4,0 C 99.4,33.2 88.3,17.2 71.8,11.1 55.2,5 35.9,10.3 24.7,24 13.4,37.7 12,57.5 21.2,72.7 c 9.2,15.1 27.3,23 44.6,19.5 17.1,-3.4 30.7,-17.7 33.3,-35 0.3,-2.1 0.5,-4.3 0.5,-6.4 0,-0.9 -1.5,-0.9 -1.5,0 z"
   id="path14"
   inkscape:connector-curvature="0" />
	</g>
</g>
<g
   id="g26"
   transform="translate(-4.7873601,-2.7555556)">
	<circle
   class="st2"
   cx="57.299999"
   cy="50.799999"
   r="35.799999"
   id="circle20"
   style="fill:#bbd3ec" />
	<g
   id="g24">
		<path
   d="m 92.4,50.8 c -0.1,14.6 -9.3,28 -23,33 C 55.6,88.8 39.7,84.5 30.3,73.2 20.9,61.9 19.6,45.3 27.3,32.7 34.9,20.1 50,13.5 64.4,16.4 78.5,19.3 89.7,31 92,45.3 c 0.3,1.8 0.4,3.7 0.4,5.5 0,0.9 1.4,0.9 1.4,0 C 93.7,35.6 84.1,21.8 69.9,16.5 55.5,11.2 38.8,15.8 29.1,27.6 c -9.7,11.8 -11,28.9 -3,42 7.9,13.1 23.5,19.9 38.5,16.9 14.7,-2.9 26.5,-15.2 28.8,-30.1 0.3,-1.9 0.4,-3.8 0.5,-5.7 -0.1,-0.8 -1.5,-0.8 -1.5,0.1 z"
   id="path22"
   inkscape:connector-curvature="0" />
	</g>
</g>
<g
   id="Ing._Mec"
   transform="translate(-4.7873601,-2.7555556)">
	<g
   id="Ing._mec-2">
		<path
   class="st3"
   d="m 42.6,78.1 -4.2,-5.9 c -0.5,-0.6 -0.9,-1.3 -1.2,-2 -0.3,-1 -0.4,-2 -0.3,-3.1 C 37,58 37.1,48.7 39,39.7 c 9.4,-0.9 18.7,-1.3 28.1,-1.4 0.6,0 1.2,0 1.7,0.2 0.5,0.3 0.9,0.7 1.2,1.2 1.1,1.4 2.1,2.8 3.1,4.3 l -0.8,-0.1"
   id="path28"
   inkscape:connector-curvature="0"
   style="fill:#143e41" />
		<path
   class="st3"
   d="m 43.4,77.7 c -1.5,-2.1 -3.1,-4.2 -4.6,-6.4 -0.7,-0.9 -1,-2 -1,-3.2 0,-1.3 0,-2.6 0,-3.8 0.1,-5.2 0.2,-10.4 0.7,-15.6 0.3,-2.9 0.7,-5.8 1.3,-8.7 L 39,40.6 c 4.8,-0.4 9.6,-0.8 14.4,-1 2.4,-0.1 4.7,-0.2 7.1,-0.3 2.4,-0.1 4.8,-0.2 7.1,-0.1 1.2,0 1.8,1.1 2.4,2 0.8,1.1 1.6,2.2 2.3,3.3 l 1,-1.3 -0.8,-0.1 c -0.5,-0.1 -1,0.2 -1.1,0.6 -0.1,0.5 0.1,1 0.6,1.1 l 0.8,0.1 c 0.7,0.1 1.5,-0.6 1,-1.3 -0.7,-1 -1.4,-2 -2.1,-3 -0.7,-0.9 -1.3,-1.9 -2.2,-2.6 -0.9,-0.6 -2.1,-0.6 -3.2,-0.6 -1.3,0 -2.5,0 -3.8,0.1 -5.1,0.1 -10.1,0.3 -15.1,0.7 -2.8,0.2 -5.7,0.4 -8.5,0.7 -0.4,0 -0.8,0.3 -0.9,0.7 -1,5.3 -1.6,10.7 -1.8,16.1 -0.1,2.7 -0.2,5.4 -0.2,8.1 0,1.3 0,2.6 0,3.9 -0.1,1.2 0.2,2.5 0.7,3.6 0.6,1.3 1.6,2.5 2.5,3.6 l 2.7,3.8 c 0.3,0.4 0.8,0.6 1.2,0.3 0.4,-0.4 0.6,-0.9 0.3,-1.3 z"
   id="path30"
   inkscape:connector-curvature="0"
   style="fill:#143e41" />
		<path
   class="st4"
   d="m 45.9,46 c -3,-1.4 -4.1,-5.4 -7.1,-6.6 10.1,-0.6 20.3,-0.8 30.5,-0.5 0.8,-0.1 1.6,0.4 1.8,1.2 0.9,1.6 1.7,3.3 2.5,5.1 C 70.4,44.6 67.2,44.5 64,44.4 58,44.2 51.9,44.1 46.2,45.6"
   id="path32"
   inkscape:connector-curvature="0"
   style="fill:#78c7cc" />
		<path
   class="st5"
   d="M 46.3,45.2 C 44.8,44.5 43.8,43.1 42.8,41.8 41.7,40.4 40.6,39.2 39,38.5 l -0.2,1.8 c 10,-0.6 20,-0.7 30,-0.5 0.6,0 1,-0.1 1.4,0.5 0.3,0.5 0.6,1.1 0.9,1.7 0.6,1.2 1.2,2.4 1.7,3.7 l 1,-1.3 c -4.6,-0.9 -9.4,-0.9 -14,-1 -4.6,-0.1 -9.3,0.1 -13.9,1.3 -1.1,0.3 -0.6,2 0.5,1.7 4.4,-1.1 8.9,-1.3 13.4,-1.2 4.5,0.1 9.1,0 13.6,0.9 0.5,0.1 1,-0.2 1.1,-0.7 0.1,-0.2 0,-0.4 -0.1,-0.6 -0.5,-1.2 -1.1,-2.3 -1.6,-3.5 -0.5,-0.9 -0.9,-2.1 -1.7,-2.7 -1,-0.8 -2.5,-0.5 -3.7,-0.6 -1.3,0 -2.5,0 -3.8,-0.1 -5.3,-0.1 -10.6,0 -15.8,0.2 -3,0.1 -6,0.2 -8.9,0.4 -0.5,0 -0.9,0.4 -0.9,0.9 0,0.4 0.3,0.7 0.6,0.8 1.4,0.6 2.4,1.9 3.3,3.1 1,1.3 2.1,2.6 3.6,3.4 0.9,0.6 1.9,-1 0.8,-1.5 z"
   id="path34"
   inkscape:connector-curvature="0"
   style="fill:#183e41" />
		<path
   class="st4"
   d="m 63.5,73.2 c -3.2,0.6 -6.4,0.8 -9.6,0.7 -0.4,0 -0.8,-0.1 -1.1,-0.2 -1.1,-0.5 -1.7,-2.1 -1.7,-3.6 0,-0.9 -0.4,-2.1 0,-2.9 0.4,-0.9 0.5,-2 1.2,-2.5 1.4,-1 4,-0.7 5.6,-0.8 2.4,-0.2 4.8,0 7.2,-0.2 1.4,-0.1 3.1,-0.7 3.6,1 0.3,1.4 0.5,2.8 0.7,4.3 0,0.7 -0.2,1.5 -0.6,2.1 -0.3,0.4 -0.7,0.7 -1.2,0.9 -1.4,0.5 -2.7,0.9 -4.2,1.2"
   id="path36"
   inkscape:connector-curvature="0"
   style="fill:#78c7cc" />
		<path
   class="st3"
   d="m 63.3,72.3 c -1.8,0.3 -3.7,0.6 -5.6,0.7 -1,0 -1.9,0.1 -2.8,0 -0.6,0 -1.5,0.1 -2,-0.4 -1,-0.9 -0.9,-2.7 -1,-3.9 0,-0.3 0,-0.7 0,-1.1 0.1,-0.3 0.2,-0.6 0.3,-0.8 0.2,-0.6 0.3,-1.3 0.9,-1.7 1.1,-0.7 2.7,-0.5 3.9,-0.5 1.6,0 3.2,-0.1 4.8,-0.1 1.6,0 3.2,0 4.8,-0.2 0.4,0 0.9,-0.1 1.2,0.1 0.3,0.3 0.4,1 0.4,1.4 0.1,0.7 0.2,1.4 0.3,2 0.1,0.8 0.2,1.5 -0.2,2.2 -0.4,0.7 -1.2,0.9 -2,1.2 -1.1,0.5 -2.1,0.8 -3,1.1 -1.2,0.2 -0.7,2 0.4,1.7 1.1,-0.2 2.1,-0.5 3.2,-0.9 0.8,-0.3 1.8,-0.5 2.4,-1.2 0.7,-0.8 1,-1.7 1,-2.7 0,-0.7 -0.1,-1.5 -0.2,-2.2 -0.2,-1.4 -0.3,-3.3 -1.6,-4.1 -0.6,-0.3 -1.3,-0.4 -2,-0.3 -0.9,0.1 -1.7,0.2 -2.6,0.2 -2.1,0 -4.2,0.1 -6.3,0.1 -1.6,0.1 -3.3,-0.1 -4.8,0.5 -0.8,0.3 -1.4,0.8 -1.7,1.5 -0.4,0.8 -0.7,1.6 -0.8,2.4 -0.1,0.9 0.1,1.8 0.1,2.7 0,0.9 0.2,1.8 0.6,2.7 0.3,0.9 1,1.5 1.9,1.9 1.1,0.4 2.4,0.2 3.5,0.2 2.5,0 5.1,-0.3 7.6,-0.8 0.9,-0.2 0.4,-1.9 -0.7,-1.7 z"
   id="path38"
   inkscape:connector-curvature="0"
   style="fill:#143e41" />
		<circle
   class="st6"
   cx="56.900002"
   cy="36.900002"
   r="10.6"
   id="circle40"
   style="fill:#f2a2a5;stroke:#000000;stroke-width:0.4788;stroke-miterlimit:10" />
		<path
   class="st7"
   d="m 53.9,31.9 c -2.6,1.6 -3.4,5 -2,7.7 1.5,2.7 5,3.7 7.8,2.2 2.7,-1.5 3.7,-5 2.2,-7.8 -1.5,-2.7 -5,-3.7 -7.8,-2.2 -0.1,0 -0.1,0 -0.2,0.1 z"
   id="path42"
   inkscape:connector-curvature="0"
   style="fill:#f8c142" />
		<path
   d="m 53.5,31.3 c -2.3,1.5 -3.4,4.2 -2.9,6.8 0.7,3.5 4.2,5.7 7.6,4.9 1.9,-0.4 3.5,-1.6 4.3,-3.3 1.7,-3.1 0.4,-7 -2.7,-8.7 -1.9,-1 -4.3,-0.9 -6.3,0.3 -0.3,0.2 -0.4,0.7 -0.2,1 0.2,0.3 0.6,0.4 0.9,0.2 2.3,-1.5 5.4,-0.7 6.9,1.6 1.5,2.3 0.7,5.4 -1.6,6.9 -2.3,1.5 -5.4,0.7 -6.9,-1.6 -0.2,-0.2 -0.3,-0.5 -0.4,-0.8 -0.9,-2.3 0,-4.8 2,-6.1 0.8,-0.5 0.1,-1.7 -0.7,-1.2 z"
   id="path44"
   inkscape:connector-curvature="0" />
		<path
   class="st8"
   d="m 71.1,38.3 c 0.1,-1 0.1,-2.1 0,-3.1 L 68.7,34.6 C 68.6,34 68.4,33.3 68.2,32.7 L 70,31 C 69.8,30.5 69.5,30.1 69.3,29.6 69,29.2 68.8,28.7 68.4,28.3 L 65.9,29 C 65.5,28.5 65,28.1 64.5,27.6 l 0.7,-2.4 c -0.8,-0.6 -1.7,-1.1 -2.7,-1.5 l -1.7,1.8 C 60.2,25.3 59.6,25.1 58.9,25 l -0.6,-2.4 c -1,-0.1 -2.1,-0.1 -3.1,0 L 54.6,25 c -0.6,0.1 -1.3,0.3 -1.9,0.5 L 51,23.9 c -0.5,0.2 -0.9,0.4 -1.4,0.7 -0.4,0.3 -0.9,0.5 -1.3,0.9 l 0.7,2.4 c -0.5,0.4 -0.9,0.9 -1.4,1.4 l -2.4,-0.7 c -0.6,0.8 -1.1,1.7 -1.5,2.7 l 1.8,1.7 c -0.2,0.6 -0.4,1.2 -0.5,1.9 l -2.4,0.6 c -0.1,1 -0.1,2.1 0,3.1 l 2.4,0.6 c 0.1,0.6 0.3,1.3 0.5,1.9 l -1.8,1.7 c 0.2,0.5 0.5,0.9 0.7,1.4 0.3,0.4 0.5,0.9 0.9,1.3 l 2.4,-0.7 c 0.4,0.5 0.9,0.9 1.4,1.4 l -0.7,2.4 c 0.8,0.6 1.7,1.1 2.7,1.5 l 1.7,-1.8 c 0.6,0.2 1.2,0.4 1.9,0.5 l 0.6,2.4 c 1,0.1 2.1,0.1 3.1,0 L 59,48.8 c 0.6,-0.1 1.3,-0.3 1.9,-0.5 l 1.7,1.8 c 0.5,-0.2 0.9,-0.5 1.4,-0.7 0.4,-0.3 0.9,-0.6 1.3,-0.9 l -0.7,-2.4 c 0.5,-0.4 0.9,-0.9 1.4,-1.4 l 2.4,0.7 c 0.6,-0.8 1.1,-1.7 1.5,-2.7 L 68.1,41 c 0.2,-0.6 0.4,-1.2 0.5,-1.9 z m -14.4,7.8 c -5.1,-0.1 -9.1,-4.3 -9,-9.4 0.1,-5.1 4.3,-9.1 9.4,-9 5.1,0.1 9.1,4.3 9,9.4 0,0 0,0 0,0 -0.1,5.1 -4.3,9.1 -9.4,9 z"
   id="path46"
   inkscape:connector-curvature="0"
   style="fill:#e9676b" />
		<path
   d="m 71.8,38.3 c 0.1,-1 0.1,-2.1 0,-3.1 0,-0.3 -0.2,-0.6 -0.5,-0.7 l -2.4,-0.6 0.5,0.5 c -0.1,-0.6 -0.3,-1.3 -0.5,-1.9 l -0.2,0.7 1.8,-1.7 c 0.2,-0.2 0.3,-0.6 0.1,-0.9 -0.4,-0.9 -1,-1.8 -1.6,-2.7 -0.2,-0.3 -0.5,-0.4 -0.8,-0.3 l -2.4,0.7 0.7,0.2 C 66.1,28 65.6,27.6 65.1,27.1 l 0.2,0.7 0.7,-2.4 C 66.1,25.1 65.9,24.8 65.7,24.6 64.9,24 64,23.5 63,23.1 62.7,22.9 62.4,23 62.1,23.2 l -1.7,1.8 0.7,-0.2 c -0.6,-0.2 -1.2,-0.4 -1.9,-0.5 l 0.5,0.5 -0.6,-2.4 c -0.1,-0.3 -0.4,-0.5 -0.7,-0.5 -1,-0.1 -2.1,-0.1 -3.1,0 -0.3,0 -0.6,0.2 -0.7,0.5 l -0.6,2.4 0.5,-0.5 c -0.6,0.1 -1.3,0.3 -1.9,0.5 L 53.3,25 51.6,23.2 C 51.4,23 51,22.9 50.7,23.1 c -0.9,0.4 -1.8,1 -2.7,1.6 -0.3,0.2 -0.4,0.5 -0.3,0.8 l 0.7,2.4 0.2,-0.7 c -0.5,0.4 -0.9,0.9 -1.4,1.4 l 0.7,-0.2 -2.4,-0.7 c -0.3,-0.1 -0.6,0.1 -0.8,0.3 -0.6,0.8 -1.1,1.7 -1.5,2.7 -0.2,0.3 -0.1,0.6 0.1,0.9 l 1.8,1.7 -0.1,-0.7 c -0.2,0.6 -0.4,1.2 -0.5,1.9 L 45,34 42.6,34.6 c -0.3,0.1 -0.5,0.4 -0.5,0.7 -0.1,1 -0.1,2.1 0,3.1 0,0.3 0.2,0.6 0.5,0.7 l 2.4,0.6 -0.5,-0.5 c 0.1,0.6 0.3,1.3 0.5,1.9 l 0.2,-0.7 -1.8,1.7 c -0.2,0.2 -0.3,0.6 -0.1,0.9 0.4,0.9 1,1.8 1.6,2.7 0.2,0.3 0.5,0.4 0.8,0.3 l 2.4,-0.7 -0.7,-0.2 c 0.4,0.5 0.9,0.9 1.4,1.4 l -0.2,-0.7 -0.7,2.4 c -0.1,0.3 0.1,0.6 0.3,0.8 0.8,0.6 1.7,1.1 2.7,1.5 0.3,0.2 0.6,0.1 0.9,-0.1 l 1.7,-1.8 -0.7,0.2 c 0.6,0.2 1.2,0.4 1.9,0.5 l -0.5,-0.5 0.6,2.4 c 0.1,0.3 0.4,0.5 0.7,0.5 1,0.1 2.1,0.1 3.1,0 0.3,0 0.6,-0.2 0.7,-0.5 l 0.6,-2.4 -0.5,0.5 C 60,49.2 60.7,49 61.3,48.8 l -0.7,-0.2 1.7,1.8 c 0.2,0.2 0.6,0.3 0.9,0.1 0.9,-0.4 1.8,-1 2.7,-1.6 0.3,-0.2 0.4,-0.5 0.3,-0.8 l -0.7,-2.4 -0.2,0.7 C 65.8,46 66.2,45.5 66.7,45 l -0.7,0.2 2.4,0.7 c 0.3,0.1 0.6,-0.1 0.8,-0.3 0.6,-0.8 1.1,-1.7 1.5,-2.7 0.2,-0.3 0.1,-0.6 -0.1,-0.9 L 68.8,40.3 69,41 c 0.2,-0.6 0.4,-1.2 0.5,-1.9 L 69,39.6 71.4,39 c 0.4,-0.1 0.6,-0.5 0.5,-0.9 -0.1,-0.3 -0.5,-0.6 -0.8,-0.5 l -2.4,0.6 c -0.2,0.1 -0.4,0.2 -0.5,0.5 -0.1,0.6 -0.3,1.3 -0.5,1.9 -0.1,0.2 0,0.5 0.2,0.7 L 69.7,43 69.6,42.1 C 69.2,43 68.7,44 68.1,44.8 l 0.8,-0.3 -2.4,-0.7 c -0.2,-0.1 -0.5,0 -0.7,0.2 -0.4,0.5 -0.9,1 -1.4,1.4 C 64,45.5 64,45.8 64,46 l 0.7,2.4 0.3,-0.8 c -0.8,0.6 -1.7,1.1 -2.7,1.6 l 0.9,0.1 -1.7,-1.8 c -0.2,-0.2 -0.4,-0.3 -0.7,-0.2 -0.6,0.2 -1.2,0.4 -1.9,0.5 -0.2,0.1 -0.4,0.2 -0.5,0.5 l -0.6,2.4 0.7,-0.5 c -1,0.1 -2.1,0.1 -3.1,0 l 0.7,0.5 -0.6,-2.4 c -0.1,-0.2 -0.2,-0.4 -0.5,-0.5 -0.6,-0.1 -1.3,-0.3 -1.9,-0.5 -0.2,-0.1 -0.5,0 -0.7,0.2 l -1.8,1.8 0.9,-0.1 c -0.9,-0.4 -1.8,-0.9 -2.7,-1.5 l 0.3,0.8 0.7,-2.4 c 0.1,-0.2 0,-0.5 -0.2,-0.7 -0.5,-0.4 -1,-0.9 -1.4,-1.4 0,0 -0.3,0 -0.5,0 l -2.4,0.7 0.8,0.3 C 45.5,44.2 45,43.3 44.5,42.3 l -0.1,0.9 1.8,-1.7 C 46.4,41.3 46.5,41 46.4,40.8 46.2,40.2 46,39.6 45.9,38.9 45.8,38.7 45.6,38.5 45.4,38.4 l -2.4,-0.6 0.5,0.7 c -0.1,-1 -0.1,-2.1 0,-3.1 l -0.5,0.7 2.4,-0.6 c 0.2,-0.1 0.4,-0.2 0.5,-0.5 0.1,-0.6 0.3,-1.3 0.5,-1.9 0.1,-0.2 0,-0.5 -0.2,-0.7 l -1.8,-1.7 0.1,0.9 c 0.4,-1 0.9,-1.9 1.5,-2.7 l -0.8,0.3 2.4,0.7 c 0.2,0.1 0.5,0 0.7,-0.2 0.4,-0.5 0.9,-1 1.4,-1.4 0.2,-0.2 0.3,-0.4 0.2,-0.7 L 49,25.3 48.7,26.1 c 0.8,-0.6 1.7,-1.1 2.7,-1.6 l -0.9,-0.1 1.7,1.8 c 0.2,0.2 0.5,0.3 0.7,0.2 0.6,-0.2 1.2,-0.4 1.9,-0.5 0.2,-0.1 0.4,-0.2 0.5,-0.5 l 0.6,-2.4 -0.7,0.5 c 1,-0.1 2.1,-0.1 3.1,0 l -0.7,-0.5 0.6,2.4 c 0.1,0.2 0.3,0.4 0.5,0.5 0.6,0.1 1.3,0.3 1.9,0.5 0.3,0.1 0.6,0 0.8,-0.2 l 1.7,-1.8 -0.9,0.1 c 0.9,0.4 1.9,0.9 2.7,1.5 l -0.3,-0.8 -0.7,2.4 c -0.1,0.2 0,0.5 0.2,0.7 0.5,0.4 1,0.9 1.4,1.4 0.2,0.2 0.4,0.3 0.7,0.2 l 2.4,-0.7 -0.8,-0.3 c 0.6,0.8 1.1,1.7 1.6,2.7 l 0.1,-0.9 -1.8,1.7 c -0.2,0.2 -0.3,0.4 -0.2,0.7 0.2,0.6 0.4,1.2 0.5,1.9 0.1,0.2 0.2,0.4 0.5,0.5 l 2.4,0.6 -0.5,-0.7 c 0.1,1 0.1,2.1 0,3.1 -0.1,0.7 1.3,0.7 1.4,-0.2 z"
   id="path48"
   inkscape:connector-curvature="0" />
		<path
   d="m 56.7,45.4 c -4.7,-0.1 -8.4,-4 -8.3,-8.7 0.1,-4.7 4,-8.4 8.7,-8.3 4.7,0.1 8.4,4 8.3,8.7 0,0.5 -0.1,1.1 -0.2,1.6 -0.9,4 -4.5,6.7 -8.5,6.7 -0.9,0 -0.9,1.4 0,1.4 5.5,0.1 10,-4.3 10.1,-9.7 0.1,-5.5 -4.3,-10 -9.7,-10.1 -5.5,-0.1 -10,4.3 -10.1,9.7 0,0.7 0,1.3 0.2,2 0.9,4.6 4.9,8 9.6,8.1 0.8,0 0.8,-1.4 -0.1,-1.4 z"
   id="path50"
   inkscape:connector-curvature="0" />
		<path
   class="st9"
   d="m 66.3,77.8 -20.8,1 c -0.4,0.1 -0.9,0 -1.3,-0.2 -0.8,-0.4 -0.9,-1.4 -1,-2.3 -0.6,-9.7 0,-19.4 1.8,-29 0.2,-0.8 0.4,-1.8 1.1,-2.3 0.6,-0.4 1.4,-0.5 2.1,-0.4 h 23.5 c 0.8,0 1.7,0 2.3,0.7 0.3,0.5 0.5,1 0.5,1.6 0.8,9 1.7,18.1 2.5,27.1 0.1,0.6 0,1.2 -0.3,1.7 -0.6,0.7 -1.5,1.1 -2.3,1.3 -2.7,0.5 -5.4,0.7 -8.1,0.8"
   id="path52"
   inkscape:connector-curvature="0"
   style="fill:#ffffff" />
		<path
   class="st10"
   d="m 66.3,76.9 -12.7,0.6 -6.2,0.3 -1.6,0.1 C 45.4,77.9 44.9,78 44.5,77.8 44,77.5 44.1,76.5 44,76 43.5,67.8 43.9,59.6 45.1,51.5 c 0.2,-1 0.3,-2.1 0.5,-3.1 0.1,-0.7 0.2,-1.7 0.6,-2.3 0.4,-0.6 1.3,-0.6 1.9,-0.6 H 70 c 0.8,0 1.8,-0.1 2.6,0.1 0.8,0.3 0.7,1.2 0.7,1.8 l 1.2,12.6 1.2,12.5 c 0,0.5 0.1,1 0.1,1.5 0.1,0.3 0.1,0.7 -0.1,1 -0.2,0.4 -1,0.8 -1.4,1 -0.8,0.2 -1.6,0.3 -2.4,0.3 -1,0.1 -2,0.2 -3,0.3 -0.8,0.2 -1.7,0.3 -2.6,0.3 -1.2,0 -1.2,1.8 0,1.8 2.1,0 4.3,-0.2 6.4,-0.4 0.9,0 1.8,-0.2 2.7,-0.5 0.7,-0.3 1.3,-0.7 1.8,-1.2 0.7,-0.7 0.7,-1.6 0.6,-2.5 C 77.7,73 77.6,71.9 77.5,70.8 L 76.9,63.9 75.6,50.2 C 75.5,49.1 75.4,47.9 75.3,46.8 75.2,45.9 75,45 74.2,44.4 73.5,44 72.6,43.8 71.8,43.8 c -1.1,0 -2.3,0 -3.4,0 H 54.7 c -2.2,0 -4.5,0 -6.7,0 -1.8,-0.2 -3.5,1 -3.7,2.8 0,0.1 0,0.1 0,0.2 -0.9,4.3 -1.4,8.7 -1.7,13.1 -0.3,4.4 -0.4,8.9 -0.3,13.4 0,1.1 0.1,2.1 0.1,3.2 0,0.9 0.3,1.7 0.8,2.4 0.7,0.8 1.6,0.8 2.6,0.7 l 3.4,-0.2 13.7,-0.7 3.5,-0.2 c 1.1,0.1 1.1,-1.7 -0.1,-1.6 z"
   id="path54"
   inkscape:connector-curvature="0"
   style="fill:#143f41" />
		<path
   class="st11"
   d="m 49.4,57.7 c 0,-2.1 -0.5,-4 -0.5,-6.1 -0.1,-0.3 0.1,-0.7 0.4,-0.8 0.2,-0.1 0.5,0 0.7,-0.1 6.6,-3.4 12.6,-3.6 19.1,0.3 0.2,0.1 0.4,0 0.6,0.1 0.3,0.2 0.4,0.5 0.4,0.8 0.2,1.9 0.3,3.9 0.3,5.8 -7,-0.3 -12.3,-0.3 -18.8,1 -0.8,0 -2.3,-0.5 -2.2,-1"
   id="path56"
   inkscape:connector-curvature="0"
   style="fill:#fcc545" />
		<path
   class="st11"
   d="m 50,57.7 c 0,-1.1 -0.1,-2.2 -0.3,-3.4 -0.1,-0.6 -0.1,-1.1 -0.2,-1.7 0,-0.3 -0.2,-1.2 0.1,-1.4 0.1,-0.1 0.5,-0.1 0.7,-0.2 0.2,-0.1 0.5,-0.2 0.7,-0.3 0.6,-0.3 1.1,-0.5 1.7,-0.7 1,-0.4 2,-0.7 3.1,-1 4.2,-0.9 8.6,-0.2 12.4,2 0.2,0.2 0.5,0.3 0.8,0.4 0.2,0.1 0.5,0 0.6,0.3 0.1,0.3 0.1,0.6 0.1,1 0,0.3 0.1,0.6 0.1,0.9 0.1,1.3 0.1,2.7 0.1,4 L 70.5,57 c -3.7,-0.2 -7.4,-0.2 -11.1,-0.1 -1.7,0.1 -3.5,0.3 -5.2,0.6 -0.9,0.1 -1.8,0.4 -2.7,0.5 -0.3,0 -0.6,0 -0.8,-0.1 -0.1,0 -0.2,-0.1 -0.4,-0.1 -0.2,0 -0.3,-0.3 -0.3,-0.1 0.1,-0.8 -1.1,-0.8 -1.2,0 -0.1,1.4 2.2,1.6 3.1,1.4 2,-0.4 4.1,-0.7 6.1,-0.9 4.1,-0.3 8.2,-0.3 12.3,0 0.3,0 0.6,-0.3 0.6,-0.6 0,-1.3 0,-2.7 -0.1,-4 0,-0.6 -0.1,-1.2 -0.2,-1.9 0,-0.5 -0.3,-1 -0.7,-1.2 -0.2,-0.1 -0.4,-0.1 -0.6,-0.1 -0.3,-0.1 -0.6,-0.3 -0.9,-0.5 -0.6,-0.3 -1.2,-0.6 -1.8,-0.9 -1.1,-0.5 -2.3,-0.9 -3.5,-1.1 -2.3,-0.5 -4.6,-0.5 -6.9,-0.1 -1.2,0.2 -2.4,0.6 -3.6,1 -0.6,0.2 -1.1,0.4 -1.7,0.7 -0.3,0.1 -0.5,0.2 -0.8,0.4 -0.3,0.1 -0.7,0.2 -1,0.3 -1.2,0.4 -0.9,2.2 -0.8,3.1 0.2,1.5 0.4,3 0.4,4.5 0,0.3 0.3,0.6 0.6,0.6 C 49.7,58.3 50,58 50,57.7 Z"
   id="path58"
   inkscape:connector-curvature="0"
   style="fill:#fcc545" />
		<path
   class="st12"
   d="m 72.4,63.5 c -0.1,-1.4 -0.1,-2.8 0,-4.2 0,-0.3 -0.3,-0.6 -0.6,-0.6 -0.3,0 -0.6,0.3 -0.6,0.6 -0.1,1.4 0,2.8 0,4.2 0,0.3 0.3,0.6 0.6,0.6 0.4,0 0.6,-0.3 0.6,-0.6 z"
   id="path60"
   inkscape:connector-curvature="0"
   style="fill:#e91f33" />
		<path
   class="st12"
   d="m 69.6,61.7 h 3.9 c 0.3,0 0.6,-0.3 0.6,-0.6 0,-0.3 -0.3,-0.6 -0.6,-0.6 h -3.9 c -0.3,0 -0.6,0.3 -0.6,0.6 0,0.4 0.3,0.6 0.6,0.6 z"
   id="path62"
   inkscape:connector-curvature="0"
   style="fill:#e91f33" />
		<path
   class="st12"
   d="m 47.5,62 c 1.1,-0.1 2.2,0 3.3,0.1 0.3,0 0.6,-0.3 0.6,-0.6 0,-0.3 -0.3,-0.6 -0.6,-0.6 -1.1,-0.1 -2.2,-0.1 -3.3,-0.1 -0.3,0 -0.6,0.3 -0.6,0.6 0,0.3 0.3,0.6 0.6,0.6 z"
   id="path64"
   inkscape:connector-curvature="0"
   style="fill:#e91f33" />
		<path
   class="st11"
   d="m 40.7,73.3 c -1.1,-9 -0.9,-18.2 0.7,-27.2 0.1,-0.8 -1,-1.1 -1.2,-0.3 -1.6,9.1 -1.9,18.3 -0.8,27.5 0.2,0.7 1.4,0.8 1.3,0 z"
   id="path66"
   inkscape:connector-curvature="0"
   style="fill:#fcc545" />
		<path
   class="st11"
   d="m 37.8,54.4 c 1,0.5 2,0.9 3.1,1.1 0.3,0.1 0.6,-0.1 0.7,-0.4 0.1,-0.3 -0.1,-0.6 -0.4,-0.7 -0.5,-0.1 -1,-0.3 -1.5,-0.4 l -0.4,-0.1 -0.2,-0.1 c -0.1,0 -0.1,0 0,0 H 39 c -0.2,-0.1 -0.5,-0.2 -0.7,-0.3 -0.3,-0.2 -0.7,-0.1 -0.8,0.2 -0.1,0.2 0,0.6 0.3,0.7 z"
   id="path68"
   inkscape:connector-curvature="0"
   style="fill:#fcc545" />
		<path
   class="st11"
   d="m 38.2,52.9 c 0.3,0 0.5,0 0.8,0.1 0.1,0 0.1,0 0,0 h 0.1 c 0.1,0 0.1,0 0.2,0 l 0.4,0.1 c 0.5,0.1 1,0.2 1.5,0.4 0.3,0.1 0.6,-0.1 0.7,-0.4 0.1,-0.3 -0.1,-0.6 -0.4,-0.7 -1.1,-0.4 -2.1,-0.6 -3.3,-0.7 -0.3,0 -0.6,0.3 -0.6,0.6 0,0.3 0.3,0.6 0.6,0.6 z"
   id="path70"
   inkscape:connector-curvature="0"
   style="fill:#fcc545" />
		<path
   class="st11"
   d="m 37,67.4 3.3,1.7 c 0.3,0.2 0.7,0.1 0.8,-0.2 0.2,-0.3 0.1,-0.7 -0.2,-0.8 l -3.2,-1.7 c -0.3,-0.2 -0.7,-0.1 -0.8,0.2 -0.2,0.2 -0.1,0.6 0.1,0.8 0,0 0,0 0,0 z"
   id="path72"
   inkscape:connector-curvature="0"
   style="fill:#fcc545" />
		<path
   class="st11"
   d="m 37.2,65.4 3.1,2 c 0.3,0.2 0.7,0.1 0.8,-0.2 0.2,-0.3 0.1,-0.7 -0.2,-0.8 v 0 l -3.1,-2 c -0.3,-0.2 -0.7,-0.1 -0.8,0.2 -0.2,0.3 -0.1,0.6 0.2,0.8 z"
   id="path74"
   inkscape:connector-curvature="0"
   style="fill:#fcc545" />
		<path
   class="st9"
   d="m 63,71.1 c -2.5,0.4 -5,0.6 -7.5,0.6 -0.3,0 -0.6,0 -0.9,-0.1 -0.9,-0.3 -1.4,-1.2 -1.4,-2.1 0,-0.5 -0.3,-1.2 -0.1,-1.7 0.2,-0.5 0.4,-1.2 0.9,-1.5 1.1,-0.6 3.1,-0.5 4.4,-0.6 1.9,-0.2 3.7,-0.1 5.6,-0.2 1.1,-0.1 2.4,-0.5 2.9,0.5 0.3,0.8 0.5,1.6 0.6,2.5 0,0.4 -0.1,0.9 -0.4,1.2 -0.3,0.3 -0.6,0.5 -1,0.5 -1,0.4 -2.1,0.7 -3.1,0.9"
   id="path76"
   inkscape:connector-curvature="0"
   style="fill:#ffffff" />
		<path
   class="st10"
   d="m 62.7,70.2 c -1.3,0.2 -2.6,0.4 -3.8,0.4 -1.2,0.1 -2.5,0.2 -3.7,0.1 -1,-0.1 -1.1,-1.2 -1.2,-2 -0.1,-0.7 0.1,-1.6 0.8,-1.8 0.9,-0.2 1.8,-0.3 2.8,-0.3 1.1,0 2.2,-0.1 3.3,-0.2 1.2,0 2.4,0 3.7,-0.2 0.5,-0.1 1.4,-0.4 1.6,0.3 0.1,0.5 0.3,1 0.4,1.4 0.1,0.4 0.2,0.8 -0.2,1.1 -0.4,0.3 -1.2,0.4 -1.6,0.5 -0.8,0.4 -1.4,0.6 -2.1,0.7 -1.2,0.2 -0.7,1.9 0.4,1.7 0.7,-0.1 1.4,-0.3 2.2,-0.5 0.7,-0.1 1.4,-0.4 2,-0.7 0.5,-0.4 0.9,-1 1.1,-1.6 0.1,-0.6 0,-1.3 -0.2,-1.8 C 68,66.2 67.7,65 66.5,64.6 66,64.5 65.4,64.5 64.9,64.5 c -0.7,0.1 -1.5,0.1 -2.2,0.2 -1.6,0 -3.1,0.1 -4.7,0.2 -1.2,0.1 -2.5,0 -3.7,0.3 -0.6,0.1 -1.1,0.5 -1.4,1 -0.3,0.5 -0.6,1.1 -0.7,1.7 0,0.6 0,1.2 0.2,1.8 0.1,0.7 0.3,1.3 0.8,1.9 1.1,1.3 3,1.1 4.5,1 1.9,-0.1 3.8,-0.3 5.6,-0.6 0.5,-0.1 0.8,-0.6 0.6,-1.1 -0.2,-0.5 -0.7,-0.7 -1.2,-0.7 z"
   id="path78"
   inkscape:connector-curvature="0"
   style="fill:#143f41" />
		<path
   class="st9"
   d="m 53.5,69.1 c 2,-0.3 4,-0.5 6.1,-0.8 2.5,-0.3 5,-0.5 7.5,-0.4 0.1,0 0.2,0 0.2,0.1 0,0.1 -0.1,0.1 -0.1,0"
   id="path80"
   inkscape:connector-curvature="0"
   style="fill:#ffffff" />
		<path
   class="st10"
   d="m 53.7,69.9 c 2.2,-0.3 4.4,-0.6 6.6,-0.8 1.1,-0.1 2.2,-0.2 3.3,-0.3 0.5,0 1.1,0 1.6,0 0.3,0 0.6,0 0.8,0 h 0.5 c 0.3,0.1 0.3,0 0,-0.1 l -0.1,-1.1 v 0 l 0.8,-0.4 h -0.1 l 0.9,0.7 v 0 c -0.3,-1.1 -2.1,-0.6 -1.7,0.5 v 0 c 0.1,0.4 0.5,0.7 0.9,0.7 0.4,0 0.7,-0.2 0.9,-0.5 0.2,-0.4 0.1,-0.8 -0.1,-1.1 -0.4,-0.4 -1,-0.4 -1.5,-0.4 -0.6,0 -1.3,0 -1.9,0 -1.3,0 -2.5,0.1 -3.8,0.3 -2.5,0.3 -5,0.6 -7.5,0.9 -0.5,0.1 -0.8,0.6 -0.6,1.1 0.1,0.4 0.6,0.6 1,0.5 z"
   id="path82"
   inkscape:connector-curvature="0"
   style="fill:#143f41" />
		<path
   class="st10"
   d="m 53,55.7 c 0.1,-0.5 0,-1 0,-1.4 0,-0.5 0.3,-1 0.7,-1.2 0.2,-0.1 0.5,-0.2 0.8,-0.3 0.2,0 0.5,-0.1 0.7,0 0.5,0.1 1,0.3 1.4,0.8 0.3,0.4 0.4,0.8 0.5,1.3 0.1,0.4 0.2,0.9 0.2,1.3 L 53,55.9"
   id="path84"
   inkscape:connector-curvature="0"
   style="fill:#143f41" />
		<path
   class="st10"
   d="m 53.6,55.7 c 0,-0.4 0,-0.8 0,-1.2 0,-0.1 0,-0.2 0,-0.2 0,-0.1 0,-0.1 0,0 0,0 0,-0.1 0,-0.1 0,-0.1 0.1,-0.2 0.1,-0.3 0.1,-0.2 0.3,-0.3 0.5,-0.4 0.3,-0.1 0.6,-0.2 1,-0.1 -0.1,0 0.1,0 0.1,0 h 0.1 v 0 c 0.1,0 0.2,0.1 0.3,0.2 0.1,0.1 0.2,0.2 0.3,0.2 0.1,0.1 0.2,0.2 0.2,0.3 0.2,0.6 0.4,1.3 0.4,1.9 L 57.2,55.4 53,55.3 c -0.3,0 -0.6,0.3 -0.6,0.6 0,0.3 0.3,0.6 0.6,0.6 l 4.3,0.3 c 0.3,0 0.6,-0.3 0.6,-0.6 -0.1,-1.3 -0.3,-2.9 -1.6,-3.6 -0.6,-0.4 -1.3,-0.5 -2,-0.3 -0.7,0.1 -1.3,0.5 -1.6,1.2 -0.1,0.3 -0.2,0.7 -0.2,1.1 0,0.4 0,0.8 0,1.2 0,0.3 0.3,0.6 0.6,0.6 0.3,-0.1 0.5,-0.4 0.5,-0.7 z"
   id="path86"
   inkscape:connector-curvature="0"
   style="fill:#143f41" />
		<path
   class="st10"
   d="m 63.3,55.7 c 0.1,-0.7 -0.2,-1.7 0.2,-2.3 0.3,-0.4 0.7,-0.6 1.2,-0.6 0.2,0 0.4,0 0.5,0 0.4,0.1 0.8,0.4 1,0.8 0.3,0.5 0.5,1 0.7,1.5 0,0 0,0.1 0,0.1 0,0 -0.1,0.1 -0.1,0.1 -1.2,0.1 -2.4,0.3 -3.5,0.4"
   id="path88"
   inkscape:connector-curvature="0"
   style="fill:#143f41" />
		<path
   class="st10"
   d="m 63.9,55.7 c 0.1,-0.5 -0.1,-1 0,-1.6 0,0 0,-0.1 0,-0.1 0,0.1 0,0.1 0,0 0,-0.1 0,-0.1 0.1,-0.2 0.1,-0.1 0,-0.1 0,0 0,0 0,-0.1 0,-0.1 0,0 0.1,-0.1 0,0 l 0.1,-0.1 c 0.1,0 0.1,0 0,0 l 0.1,-0.1 c 0.1,0 0.1,-0.1 0.2,-0.1 -0.1,0 0.1,0 0.1,0 0.1,0 0.1,0 0.2,-0.1 h 0.1 c 0,0 0,0 0,0 H 65 c 0.1,0 0.1,0 0,0 0,0 0.1,0 0.1,0 -0.1,0 0.1,0.1 0.1,0.1 l 0.1,0.1 c -0.1,0 -0.1,0 0,0 0.1,0 0.1,0.1 0.1,0.1 l 0.1,0.1 v 0 c 0.4,0.5 0.6,1 0.8,1.6 V 55 55 l 0.2,-0.3 c 0,0 0.3,-0.1 0.1,-0.1 h -0.1 -0.2 l -0.4,0.1 h -0.1 v 0 h -0.1 -0.1 l -0.5,0.1 c -0.6,0.1 -1.2,0.1 -1.8,0.2 -0.3,0 -0.6,0.3 -0.6,0.6 0,0.3 0.3,0.6 0.6,0.6 0.7,-0.1 1.5,-0.1 2.2,-0.2 0.4,0 0.8,-0.1 1.2,-0.2 0.2,0 0.3,-0.1 0.5,-0.2 0.2,-0.1 0.3,-0.3 0.3,-0.5 0,-0.2 0,-0.4 -0.1,-0.5 -0.2,-0.5 -0.4,-0.9 -0.6,-1.4 -0.2,-0.4 -0.5,-0.7 -0.9,-1 -0.9,-0.5 -2.1,-0.2 -2.7,0.6 -0.3,0.4 -0.5,0.9 -0.4,1.5 0,0.4 0,0.9 0,1.3 0,0.3 0.3,0.6 0.6,0.6 0.2,0 0.5,-0.2 0.5,-0.5 z"
   id="path90"
   inkscape:connector-curvature="0"
   style="fill:#143f41" />
		<path
   class="st10"
   d="m 50.9,53 c 1.7,-0.5 3.4,-1.2 5,-2 0.3,-0.2 0.4,-0.5 0.2,-0.8 -0.2,-0.3 -0.5,-0.4 -0.8,-0.2 -1.5,0.8 -3.1,1.4 -4.7,1.9 -0.8,0.2 -0.5,1.3 0.3,1.1 z"
   id="path92"
   inkscape:connector-curvature="0"
   style="fill:#143f41" />
		<path
   class="st10"
   d="m 63.6,50.7 c 1.7,0.8 3.4,1.5 5.3,1.9 0.3,0.1 0.6,-0.1 0.7,-0.4 0.1,-0.3 -0.1,-0.6 -0.4,-0.7 -1.7,-0.4 -3.4,-1 -5,-1.8 -0.7,-0.4 -1.3,0.7 -0.6,1 z"
   id="path94"
   inkscape:connector-curvature="0"
   style="fill:#143f41" />
		<path
   class="st3"
   d="m 61.4,78.4 c 0.8,0.2 1.3,0.9 1.3,1.6 0,0.4 -0.1,0.8 -0.3,1.1 -0.4,0.4 -0.9,0.7 -1.4,0.8 -1.9,0.5 -4,0.5 -5.9,-0.2 -0.2,-0.1 -0.5,-0.2 -0.6,-0.3 -0.1,-0.2 -0.2,-0.3 -0.2,-0.5 -0.1,-0.7 -0.1,-1.5 0.7,-1.9 -0.1,0 1.4,-2 6.4,-0.6 z"
   id="path96"
   inkscape:connector-curvature="0"
   style="fill:#143e41" />
		<path
   class="st3"
   d="m 61.2,79 c 0.5,0.1 0.8,0.5 0.9,1 0,0.3 0,0.6 -0.2,0.8 -0.3,0.3 -0.6,0.4 -1,0.5 -1.8,0.5 -3.7,0.5 -5.5,-0.1 -0.1,0 -0.4,-0.1 -0.5,-0.2 -0.1,-0.1 -0.1,-0.2 -0.1,-0.3 -0.1,-0.3 0,-0.6 0.1,-0.9 0.1,-0.1 0.2,-0.2 0.3,-0.3 0.1,-0.1 0.4,-0.4 0.2,-0.1 0,0 0.1,-0.1 0.1,-0.1 l 0.2,-0.1 c -0.1,0.1 0.1,-0.1 0.2,-0.1 0.3,-0.2 0.6,-0.3 0.9,-0.4 1.4,-0.4 3,-0.1 4.4,0.3 0.3,0.1 0.6,-0.1 0.7,-0.4 C 62,78.3 61.8,78 61.5,77.9 59.8,77.4 58,77.1 56.2,77.6 c -0.7,0.2 -1.3,0.5 -1.8,1 v 0 c -0.3,0.3 0.3,-0.1 -0.1,0 -0.1,0.1 -0.2,0.1 -0.3,0.2 -0.3,0.4 -0.5,0.8 -0.5,1.3 0,0.4 0,0.8 0.1,1.2 0.2,0.5 0.7,0.9 1.2,1 2.2,0.7 4.6,0.7 6.8,-0.1 1,-0.3 1.7,-1.4 1.5,-2.4 -0.1,-1 -0.8,-1.7 -1.7,-2 -0.6,-0.2 -0.9,0.9 -0.2,1.2 z"
   id="path98"
   inkscape:connector-curvature="0"
   style="fill:#143e41" />
		<path
   class="st3"
   d="m 54.7,82.2 c -0.3,0.5 -0.3,1.2 -0.1,1.8 0.4,0.7 1.1,1.1 1.9,1.2 0.8,0.2 1.7,0.2 2.5,0.2 1.5,0 3.2,-0.2 3.8,-1.2 0.5,-0.8 0,-1.7 -0.6,-2.5"
   id="path100"
   inkscape:connector-curvature="0"
   style="fill:#143e41" />
		<path
   class="st3"
   d="m 54.1,82.1 c -0.3,0.7 -0.3,1.4 -0.1,2.1 0.3,0.6 0.7,1 1.3,1.3 1.3,0.7 2.8,0.6 4.2,0.6 1.1,0 2.5,-0.2 3.4,-1 1.2,-1 0.6,-2.5 -0.1,-3.6 -0.4,-0.6 -1.4,0 -1,0.6 0.4,0.6 1.1,1.7 0.1,2.3 -0.8,0.4 -1.6,0.6 -2.5,0.5 -1.1,0.1 -2.1,0 -3.2,-0.3 -0.4,-0.1 -0.7,-0.3 -1,-0.7 -0.3,-0.4 -0.1,-1 0,-1.5 0.3,-0.7 -0.9,-1 -1.1,-0.3 z"
   id="path102"
   inkscape:connector-curvature="0"
   style="fill:#143e41" />
		<path
   class="st11"
   d="m 53.9,80.2 c -0.1,0.6 0.1,1.3 0.7,1.6 0.6,0.4 1.3,0.6 2,0.6 1.4,0.1 2.8,0 4.2,-0.4 0.3,-0.1 0.5,-0.4 0.4,-0.7 -0.1,-0.3 -0.4,-0.5 -0.7,-0.4 -1.1,0.3 -2.2,0.4 -3.3,0.4 -0.5,0 -1,-0.1 -1.5,-0.2 -0.2,-0.1 -0.3,-0.2 -0.5,-0.3 -0.1,-0.1 -0.1,-0.2 -0.1,-0.2 -0.1,-0.1 0,-0.1 0,0.1 0,0 0,0 0,-0.1 0.1,-0.3 -0.1,-0.7 -0.4,-0.7 -0.4,-0.2 -0.8,0 -0.8,0.3 z"
   id="path104"
   inkscape:connector-curvature="0"
   style="fill:#fcc545" />
		<path
   class="st11"
   d="m 54.5,83.8 c 0.5,1.1 1.8,1.5 2.9,1.6 1.5,0.3 3,0 4.3,-0.6 0.7,-0.4 0.1,-1.4 -0.6,-1 -1.1,0.5 -2.3,0.6 -3.5,0.4 -0.5,-0.1 -1.1,-0.2 -1.5,-0.4 l -0.2,-0.1 -0.1,-0.1 c 0,0 0,0 0,0 0,0 0,0 0,0 0,0 0,-0.1 -0.1,-0.1 C 55.6,83.4 55.6,83.3 55.6,83.2 55.3,83 55,82.9 54.7,83 c -0.3,0.2 -0.4,0.6 -0.2,0.8 z"
   id="path106"
   inkscape:connector-curvature="0"
   style="fill:#fcc545" />
		<path
   d="m 41,24.8 c -2.3,2.3 -3.6,5.6 -3.4,8.9 0,0.7 1.1,0.7 1.1,0 -0.2,-3 0.9,-6 3.1,-8.1 0.4,-0.5 -0.3,-1.2 -0.8,-0.8 z"
   id="path108"
   inkscape:connector-curvature="0" />
		<path
   d="m 36.6,27.3 c -0.7,1 -1.2,2.2 -1.3,3.5 0,0.3 0.2,0.5 0.5,0.5 0.3,0 0.5,-0.2 0.5,-0.5 0,-0.1 0,-0.1 0,-0.2 0,0 0,-0.1 0,-0.1 0,-0.1 0,-0.2 0.1,-0.4 0.1,-0.3 0.1,-0.5 0.2,-0.8 l 0.1,-0.2 c 0,0.1 0,-0.1 0.1,-0.1 0.1,-0.1 0.1,-0.2 0.2,-0.4 0.1,-0.3 0.3,-0.5 0.5,-0.7 0.1,-0.3 0.1,-0.6 -0.2,-0.7 C 37,27 36.7,27.1 36.6,27.3 Z"
   id="path110"
   inkscape:connector-curvature="0" />
		<path
   d="m 71.9,25.3 c 2.2,2.1 3.3,5.1 3.1,8.1 0,0.7 1,0.7 1.1,0 0.2,-3.3 -1,-6.5 -3.4,-8.9 -0.5,-0.5 -1.2,0.3 -0.8,0.8 z"
   id="path112"
   inkscape:connector-curvature="0" />
		<path
   d="m 76.2,27.6 c 0.2,0.2 0.3,0.5 0.4,0.7 0.1,0.1 0.1,0.3 0.2,0.4 0,0 0.1,0.2 0.1,0.1 0,0.1 0,0.1 0.1,0.2 0.1,0.3 0.2,0.5 0.2,0.8 0,0.1 0.1,0.3 0.1,0.4 0,0 0,0.2 0,0.1 0,0.1 0,0.1 0,0.2 0,0.3 0.2,0.5 0.5,0.5 0.3,0 0.5,-0.2 0.5,-0.5 -0.1,-1.2 -0.5,-2.4 -1.3,-3.5 -0.2,-0.2 -0.5,-0.3 -0.8,-0.1 -0.1,0.1 -0.1,0.4 0,0.7 z"
   id="path114"
   inkscape:connector-curvature="0" />
	</g>
</g>
</svg>