<?xml version="1.0" encoding="UTF-8" standalone="no"?>
<svg
   xmlns:dc="http://purl.org/dc/elements/1.1/"
   xmlns:cc="http://creativecommons.org/ns#"
   xmlns:rdf="http://www.w3.org/1999/02/22-rdf-syntax-ns#"
   xmlns:svg="http://www.w3.org/2000/svg"
   xmlns="http://www.w3.org/2000/svg"
   xmlns:sodipodi="http://sodipodi.sourceforge.net/DTD/sodipodi-0.dtd"
   xmlns:inkscape="http://www.inkscape.org/namespaces/inkscape"
   viewBox="0 0 220.87155 201.10414"
   version="1.1"
   id="svg84"
   sodipodi:docname="Ins-5.svg"
   width="220.87155"
   height="201.10414"
   inkscape:version="0.92.5 (2060ec1f9f, 2020-04-08)">
  <metadata
     id="metadata88">
    <rdf:RDF>
      <cc:Work
         rdf:about="">
        <dc:format>image/svg+xml</dc:format>
        <dc:type
           rdf:resource="http://purl.org/dc/dcmitype/StillImage" />
        <dc:title></dc:title>
      </cc:Work>
    </rdf:RDF>
  </metadata>
  <sodipodi:namedview
     pagecolor="#ffffff"
     bordercolor="#666666"
     borderopacity="1"
     objecttolerance="10"
     gridtolerance="10"
     guidetolerance="10"
     inkscape:pageopacity="0"
     inkscape:pageshadow="2"
     inkscape:window-width="1920"
     inkscape:window-height="1048"
     id="namedview86"
     showgrid="false"
     fit-margin-top="0"
     fit-margin-left="0"
     fit-margin-right="0"
     fit-margin-bottom="0"
     inkscape:zoom="0.67428571"
     inkscape:cx="108.7654"
     inkscape:cy="57.98298"
     inkscape:window-x="1920"
     inkscape:window-y="0"
     inkscape:window-maximized="1"
     inkscape:current-layer="svg84" />
  <defs
     id="defs4">
    <style
       id="style2">.cls-1{fill:#e1262f;}.cls-2{fill:#e66869;}.cls-3{fill:#f8dad4;}.cls-4{fill:#7dc4ca;}.cls-5{fill:#4386c6;}.cls-6{fill:#fff;}.cls-7{fill:#183e41;}</style>
  </defs>
  <g
     id="Fondos_y_letras"
     data-name="Fondos y letras"
     transform="translate(-16.234605,-31.878832)">
    <path
       class="cls-1"
       d="M 163.85,33.4 H 89.51 a 34.62,34.62 0 0 0 -30,17.3 l -37.15,64.39 a 34.62,34.62 0 0 0 0,34.61 l 37.17,64.39 a 34.63,34.63 0 0 0 30,17.31 h 74.34 a 34.61,34.61 0 0 0 30,-17.31 L 231,149.7 a 34.57,34.57 0 0 0 0,-34.61 L 193.83,50.7 A 34.6,34.6 0 0 0 163.85,33.4 Z"
       id="path6"
       inkscape:connector-curvature="0"
       style="fill:#e1262f" />
    <path
       d="m 163.85,31.9 h -72 A 42.2,42.2 0 0 0 77.61,33.9 36.61,36.61 0 0 0 58.18,50 l -3.86,6.69 -18,31.11 -14.55,25.31 a 38.47,38.47 0 0 0 -5.53,18.27 37.68,37.68 0 0 0 5.35,20 l 14.1,24.41 18.18,31.49 4.24,7.34 a 36.63,36.63 0 0 0 17.59,15.52 c 8.62,3.59 18.17,2.76 27.3,2.76 h 37.83 c 7.66,0 15.33,0 23,0 a 36.54,36.54 0 0 0 24.8,-9.83 45.06,45.06 0 0 0 7.88,-10.59 l 15.72,-27.24 17.29,-30 c 1.28,-2.21 2.64,-4.39 3.78,-6.68 a 36.48,36.48 0 0 0 0.37,-31.68 c -1.16,-2.48 -2.64,-4.83 -4,-7.19 l -7.43,-12.88 -19.07,-33 -6.52,-11.3 A 47,47 0 0 0 189.3,42.33 36.5,36.5 0 0 0 163.85,31.9 a 1.5,1.5 0 0 0 0,3 33.52,33.52 0 0 1 25.3,11.72 54.85,54.85 0 0 1 5.4,8.32 l 16.26,28.17 16.52,28.6 a 72.42,72.42 0 0 1 4.26,7.9 33.45,33.45 0 0 1 -1.89,29.39 c -3.71,6.49 -7.48,12.94 -11.21,19.42 l -18.65,32.3 -6.11,10.57 a 39.78,39.78 0 0 1 -8.45,10.71 33.54,33.54 0 0 1 -21.67,7.86 H 91 A 35.73,35.73 0 0 1 75,226.53 34.16,34.16 0 0 1 60.45,212.71 L 47.3,189.9 29,158.25 24,149.67 a 34.21,34.21 0 0 1 -4.66,-20.94 c 1,-9.21 6.75,-17.24 11.28,-25.09 L 49.37,71.3 C 53.18,64.7 57,58.09 60.8,51.51 A 33.39,33.39 0 0 1 81.14,36 44.74,44.74 0 0 1 92.67,34.9 h 71.18 a 1.5,1.5 0 0 0 0,-3 z"
       id="path8"
       inkscape:connector-curvature="0" />
    <circle
       class="cls-2"
       cx="126.68"
       cy="132.39999"
       r="87"
       id="circle10"
       style="fill:#e66869" />
    <path
       d="m 212.18,132.4 a 85.1,85.1 0 1 1 -1,-13.11 86,86 0 0 1 1,13.11 1.5,1.5 0 0 0 3,0 88.41,88.41 0 1 0 -1,13.56 91.89,91.89 0 0 0 1,-13.56 1.5,1.5 0 0 0 -3,0 z"
       id="path12"
       inkscape:connector-curvature="0" />
    <circle
       class="cls-3"
       cx="126.68"
       cy="132.39999"
       r="75"
       id="circle14"
       style="fill:#f8dad4" />
    <path
       d="m 200.18,132.4 a 73,73 0 1 1 -0.86,-11.37 73.94,73.94 0 0 1 0.86,11.37 1.5,1.5 0 0 0 3,0 76.32,76.32 0 1 0 -0.91,11.82 80.8,80.8 0 0 0 0.91,-11.82 1.5,1.5 0 0 0 -3,0 z"
       id="path16"
       inkscape:connector-curvature="0" />
  </g>
  <g
     id="Capa_19"
     data-name="Capa 19"
     transform="translate(-16.234605,-31.878832)">
    <path
       class="cls-4"
       d="m 157,189 c -1.5,2.5 -67.5,1.5 -69,0 -1.5,-1.5 -1.5,-26.5 0,-28 2.69,-2.69 67.5,-1.5 69,0 1.5,1.5 1.5,25.5 0,28 z"
       id="path19"
       inkscape:connector-curvature="0"
       style="fill:#7dc4ca" />
    <path
       d="m 156,188.43 c 0.06,-0.09 0.27,-0.32 0.23,-0.25 -0.04,0.07 0.19,-0.05 0,0 a 7.58,7.58 0 0 1 -0.82,0.21 21.45,21.45 0 0 1 -2.45,0.32 c -2.92,0.27 -5.86,0.38 -8.79,0.47 -8.27,0.25 -16.56,0.24 -24.83,0.15 -7.7,-0.09 -15.41,-0.24 -23.1,-0.63 -2.25,-0.11 -4.52,-0.21 -6.75,-0.5 a 4.79,4.79 0 0 0 -0.61,-0.11 2.46,2.46 0 0 0 -0.29,-0.07 c -0.25,0 0,0 0.05,0 a 3.9,3.9 0 0 1 0.29,0.29 c 0,0 -0.09,-0.14 -0.08,-0.15 0.01,-0.01 0.06,0.24 0,0 0,-0.11 -0.06,-0.21 -0.09,-0.32 -0.12,-0.52 -0.2,-1.05 -0.27,-1.58 A 99.33,99.33 0 0 1 88,174.34 73.84,73.84 0 0 1 88.57,163 c 0.07,-0.46 0.25,-0.91 0.32,-1.37 0,0.21 0.07,-0.07 -0.07,0.12 -0.24,0.34 -0.15,0 0,0 -0.12,0 -0.16,0 0.11,0 l 0.42,-0.11 c 0.37,-0.09 0.75,-0.16 1.12,-0.22 2.15,-0.34 5,-0.47 7.39,-0.59 8,-0.37 16.12,-0.37 24.18,-0.3 8.06,0.07 16.27,0.21 24.4,0.59 2.62,0.12 5.25,0.24 7.86,0.5 a 13.17,13.17 0 0 1 1.87,0.26 c 0.09,0 0.18,0.06 0.26,0.06 0.26,0 -0.11,-0.09 0,0 l -0.3,-0.27 c 0.09,0 0,0.22 0.05,0.07 0.05,-0.15 0.11,0.37 0.15,0.53 0.81,3.38 0.65,7.16 0.69,10.61 a 111.77,111.77 0 0 1 -0.42,12.68 c -0.07,0.62 -0.14,1.24 -0.26,1.86 -0.05,0.24 -0.11,0.48 -0.17,0.73 l -0.09,0.26 c 0,0.06 0.1,-0.19 0,0 a 1.13,1.13 0 0 0 1.94,1.14 9.62,9.62 0 0 0 0.8,-3.55 c 0.22,-2 0.32,-4 0.39,-6 a 135.18,135.18 0 0 0 -0.15,-13.8 26.51,26.51 0 0 0 -0.56,-4.62 2.18,2.18 0 0 0 -1.39,-1.82 21.71,21.71 0 0 0 -5.21,-0.61 c -7.57,-0.53 -15.18,-0.68 -22.76,-0.81 -8.86,-0.15 -17.73,-0.19 -26.59,0.06 -3.27,0.09 -6.54,0.2 -9.8,0.5 -1.56,0.14 -3.76,0.11 -5.15,1 a 3.3,3.3 0 0 0 -1.14,2.42 46,46 0 0 0 -0.48,5.11 c -0.24,4.55 -0.25,9.11 -0.07,13.66 0.08,1.83 0.17,3.67 0.4,5.48 0.13,1 0.18,2.43 0.93,3.17 0.94,0.92 3.06,0.79 4.25,0.89 7,0.58 14,0.69 21,0.82 8.92,0.17 17.84,0.23 26.76,0.07 3.56,-0.06 7.13,-0.15 10.68,-0.36 a 34.6,34.6 0 0 0 6.51,-0.71 2.47,2.47 0 0 0 1.59,-0.92 c 0.75,-1.17 -1.2,-2.3 -2.03,-1.1 z"
       id="path21"
       inkscape:connector-curvature="0" />
    <path
       class="cls-5"
       d="m 156.34,160.9 c -0.87,0.56 -66.16,1.39 -68,0 -1.84,-1.39 -2.16,-25.61 0,-28 2.16,-2.39 66.84,-2.61 68,0 1.16,2.61 2.16,26.6 0,28 z"
       id="path23"
       inkscape:connector-curvature="0"
       style="fill:#4386c6" />
    <path
       d="m 155.77,159.92 0.16,-0.08 c -0.19,0.1 0.31,0 0,0 h -0.71 c -0.83,0.06 -1.65,0.09 -2.48,0.12 -2.81,0.1 -5.63,0.16 -8.44,0.22 q -12.15,0.24 -24.3,0.29 c -7.74,0 -15.47,0 -23.2,-0.14 -2.28,0 -4.57,-0.1 -6.84,-0.31 h -0.49 c -0.38,0 0.12,0 -0.22,0 a 2.22,2.22 0 0 0 -0.53,-0.12 c 0.14,-0.07 0.38,0.31 0.41,0.29 0.03,-0.02 -0.17,-0.37 -0.14,-0.3 a 10.65,10.65 0 0 1 -0.38,-1.6 71,71 0 0 1 -0.61,-11.96 52.51,52.51 0 0 1 0.79,-11.41 c 0.11,-0.47 0.41,-1 0.41,-1.25 0,0 0,0 -0.15,0.12 0.13,-0.17 0.09,0 0,0 a 17.56,17.56 0 0 1 1.88,-0.42 c 2.14,-0.33 5,-0.5 7.43,-0.63 7.91,-0.44 15.83,-0.55 23.75,-0.57 7.92,-0.02 16,0 24,0.46 2.44,0.13 5.33,0.29 7.5,0.62 a 10.28,10.28 0 0 1 2,0.43 c 0.13,0 0,-0.15 0,0 0,0.15 -0.16,-0.2 -0.2,-0.23 -0.19,-0.13 0,-0.13 0,0.19 l 0.15,0.69 a 72.42,72.42 0 0 1 0.86,11 81.08,81.08 0 0 1 -0.26,12.37 11.91,11.91 0 0 1 -0.29,1.67 4.79,4.79 0 0 1 -0.15,0.49 c -0.05,0.28 -0.19,0.24 0.06,0.06 -1.16,0.85 0,2.8 1.14,2 a 4.39,4.39 0 0 0 1.34,-3 42.5,42.5 0 0 0 0.44,-5.53 136,136 0 0 0 -0.33,-13.84 c -0.13,-1.76 -0.28,-3.54 -0.56,-5.29 a 3.28,3.28 0 0 0 -1,-2.4 c -1.3,-0.87 -3.43,-0.85 -4.9,-1 -7.27,-0.74 -14.63,-0.78 -21.92,-0.85 -8.78,-0.09 -17.57,0 -26.34,0.3 -3.31,0.12 -6.62,0.27 -9.91,0.56 a 19.43,19.43 0 0 0 -5.37,0.84 c -2.24,0.89 -2.16,5 -2.33,6.89 a 104.71,104.71 0 0 0 -0.16,13.72 c 0.1,2 0.24,3.92 0.52,5.86 a 7.13,7.13 0 0 0 1,3.36 c 0.86,1.08 3,0.9 4.18,1 6.85,0.41 13.75,0.35 20.61,0.36 q 13.26,0 26.53,-0.21 c 5.59,-0.09 11.24,0 16.82,-0.45 a 3.63,3.63 0 0 0 1.43,-0.26 c 1.21,-0.8 0.03,-2.75 -1.2,-2.06 z"
       id="path25"
       inkscape:connector-curvature="0" />
    <path
       class="cls-5"
       d="m 93.13,131.06 -0.41,-5.31 a 1.54,1.54 0 0 1 0.06,-0.71 c 0.18,-0.46 0.75,-0.62 1.23,-0.71 a 75.11,75.11 0 0 1 12.23,-1.4 c 1.2,0 2.69,0.12 3.15,1.24 a 2.84,2.84 0 0 1 0.17,1.08 l 0.16,4.76"
       id="path27"
       inkscape:connector-curvature="0"
       style="fill:#4386c6" />
    <path
       d="M 94.25,131.06 94,127.41 a 11.94,11.94 0 0 1 -0.13,-1.78 c 0,-0.23 -0.18,0 0,-0.11 a 2.81,2.81 0 0 1 0.75,-0.17 70.94,70.94 0 0 1 7.12,-1 q 1.74,-0.15 3.48,-0.24 a 6.62,6.62 0 0 1 2.66,0.14 c 0.82,0.35 0.55,1.56 0.58,2.29 l 0.11,3.49 c 0,1.45 2.3,1.45 2.25,0 -0.05,-1.45 -0.09,-3 -0.14,-4.44 0,-1.24 -0.24,-2.42 -1.38,-3.13 a 5.66,5.66 0 0 0 -3.08,-0.64 c -1.5,0 -3,0.15 -4.48,0.28 -1.48,0.13 -3,0.32 -4.44,0.54 a 20.88,20.88 0 0 0 -4.24,0.8 c -1.39,0.52 -1.54,1.67 -1.43,3 l 0.35,4.65 c 0.11,1.43 2.37,1.45 2.25,0 z"
       id="path29"
       inkscape:connector-curvature="0" />
    <path
       class="cls-5"
       d="m 131.66,130.12 c -0.11,-1.22 -0.21,-3.44 -0.31,-4.66 a 0.67,0.67 0 0 1 0.58,-0.89 37.28,37.28 0 0 1 15.18,-1.35 3.33,3.33 0 0 1 1.55,0.46 c 0.86,0.61 1,1.82 1,2.88 0.06,1.56 0,3.39 -1.28,4.29"
       id="path31"
       inkscape:connector-curvature="0"
       style="fill:#4386c6" />
    <path
       d="m 132.78,130.12 c -0.08,-1 -0.13,-2 -0.19,-3 0,-0.49 -0.07,-1 -0.1,-1.46 0,-0.12 0,-0.76 -0.15,-0.21 -0.21,0.26 -0.14,0.29 0.21,0.11 l 0.5,-0.15 a 36.05,36.05 0 0 1 7.93,-1.28 c 1.31,-0.06 2.62,0 3.92,0 0.83,0 2.69,-0.1 3.27,0.61 0.58,0.71 0.42,2 0.39,2.81 a 3,3 0 0 1 -1,2.48 c -1.14,0.89 0.46,2.48 1.59,1.59 a 4.79,4.79 0 0 0 1.6,-3.56 9.06,9.06 0 0 0 -0.35,-3.77 3.43,3.43 0 0 0 -3.06,-2.18 36.25,36.25 0 0 0 -5.21,-0.29 37.92,37.92 0 0 0 -10.13,1.57 2.15,2.15 0 0 0 -1.57,1.07 3.19,3.19 0 0 0 -0.12,1.65 c 0.09,1.34 0.15,2.68 0.26,4 0.11,1.32 2.37,1.45 2.25,0 z"
       id="path33"
       inkscape:connector-curvature="0" />
    <path
       class="cls-2"
       d="M 106.29,75.43 A 121.28,121.28 0 0 0 96.37,95.31 2.6,2.6 0 0 0 96.1,96.8 c 0.18,0.84 1.08,1.29 1.87,1.62 l 28.94,12.12 c 10.11,4.23 20.3,8.49 31,10.72 a 4.06,4.06 0 0 0 5.39,-2.07 q 4.39,-6.69 8.54,-13.53 a 4.66,4.66 0 0 0 0.9,-2.42 c -0.05,-1.59 -1.62,-2.64 -3,-3.4 A 277.86,277.86 0 0 0 107.16,75.26"
       id="path35"
       inkscape:connector-curvature="0"
       style="fill:#e66869" />
    <path
       d="M 105.32,74.86 A 123.82,123.82 0 0 0 96.5,92 c -1,2.28 -2.75,5.25 0,7 a 27.72,27.72 0 0 0 3.91,1.71 l 4.83,2 c 12.45,5.21 24.81,10.83 37.53,15.37 3.09,1.11 6.22,2.12 9.39,3 1.5,0.41 3,0.79 4.55,1.12 a 10.26,10.26 0 0 0 4.15,0.39 c 2.76,-0.53 4.18,-3.91 5.55,-6 q 2.75,-4.29 5.41,-8.62 c 1.4,-2.28 3.14,-4.81 1,-7.21 a 10.62,10.62 0 0 0 -2.89,-2 c -1.49,-0.81 -3,-1.59 -4.49,-2.37 Q 157,91.95 148.31,88.2 a 279.59,279.59 0 0 0 -40.84,-14 1.13,1.13 0 0 0 -0.6,2.17 278.23,278.23 0 0 1 33.32,10.89 q 8.24,3.29 16.23,7.09 4,1.89 7.86,3.89 c 1.23,0.64 2.46,1.28 3.68,1.93 a 10.11,10.11 0 0 1 3.24,2.12 c 1,1.21 -0.14,2.56 -0.8,3.65 -0.85,1.38 -1.69,2.76 -2.55,4.13 q -2.44,3.9 -5,7.76 c -0.75,1.15 -1.4,2.49 -2.92,2.58 a 16.47,16.47 0 0 1 -4.48,-0.83 c -2.89,-0.7 -5.74,-1.53 -8.56,-2.46 -11.5,-3.77 -22.58,-8.85 -33.73,-13.51 l -9.88,-4.14 c -1.61,-0.68 -3.24,-1.32 -4.84,-2 -0.79,-0.35 -1.32,-0.51 -1.16,-1.45 A 10.54,10.54 0 0 1 98.1,93.93 122.38,122.38 0 0 1 107.26,76 c 0.76,-1.23 -1.18,-2.36 -1.94,-1.13 z"
       id="path37"
       inkscape:connector-curvature="0" />
    <path
       class="cls-2"
       d="M 112.86,75.29 A 19.85,19.85 0 0 0 116,68.76 c 5.48,1.14 11,2.3 16.17,4.45 0.86,0.36 1.82,0.87 2,1.78 a 2.88,2.88 0 0 1 -0.31,1.69 20.69,20.69 0 0 1 -2.72,4.63"
       id="path39"
       inkscape:connector-curvature="0"
       style="fill:#e66869" />
    <path
       d="m 113.83,75.86 a 21.49,21.49 0 0 0 3.27,-6.8 l -1.39,0.79 a 117.22,117.22 0 0 1 12.42,3.06 c 1,0.33 2,0.69 3,1.08 0.61,0.25 1.83,0.57 2,1.34 0.17,0.77 -0.83,2.19 -1.21,2.85 a 22,22 0 0 1 -1.7,2.57 c -0.88,1.15 1.07,2.27 1.94,1.13 a 22,22 0 0 0 2.07,-3.24 8,8 0 0 0 1.14,-3.14 c 0.08,-2.29 -2.21,-3.13 -4,-3.82 a 95.08,95.08 0 0 0 -15.05,-4 1.14,1.14 0 0 0 -1.38,0.78 19.77,19.77 0 0 1 -3,6.26 c -0.85,1.18 1.1,2.3 1.94,1.14 z"
       id="path41"
       inkscape:connector-curvature="0" />
    <path
       class="cls-2"
       d="m 150,88.46 2.87,-4.53 a 2.61,2.61 0 0 1 0.88,-1 2.53,2.53 0 0 1 1.8,0 c 5.63,1.41 10.78,3.64 14.48,8.1 a 2.26,2.26 0 0 1 0.57,1 5,5 0 0 1 -0.83,2.91 l -2.24,2.61"
       id="path43"
       inkscape:connector-curvature="0"
       style="fill:#e66869" />
    <path
       d="m 150.93,89 2.35,-3.72 c 0.23,-0.37 0.57,-1.21 1,-1.39 0.43,-0.18 1.38,0.21 1.88,0.34 a 33,33 0 0 1 6.73,2.55 20.43,20.43 0 0 1 5.65,4.28 c 0.32,0.34 0.82,0.75 0.91,1.21 a 2.93,2.93 0 0 1 -0.3,1.32 12.5,12.5 0 0 1 -2.47,3.12 c -0.94,1.09 0.64,2.69 1.59,1.59 1.55,-1.8 4.64,-4.7 3,-7.4 a 14.18,14.18 0 0 0 -3.25,-3.4 24.74,24.74 0 0 0 -3.71,-2.5 33.92,33.92 0 0 0 -8.66,-3.2 3.18,3.18 0 0 0 -3.65,1.33 c -1.06,1.55 -2,3.18 -3,4.77 -0.77,1.22 1.17,2.35 2,1.13 z"
       id="path45"
       inkscape:connector-curvature="0" />
    <path
       class="cls-6"
       d="m 116.94,81.91 a 6.69,6.69 0 0 0 -3.91,3.8 4.68,4.68 0 0 0 1.27,5.12 6.45,6.45 0 0 0 3,1.16 6.31,6.31 0 0 0 3.92,-0.31 4.76,4.76 0 0 0 2.45,-3.91 5.86,5.86 0 0 0 -6.23,-6.33"
       id="path47"
       inkscape:connector-curvature="0"
       style="fill:#ffffff" />
    <path
       d="m 116.74,81.19 a 7.21,7.21 0 0 0 -4.63,5 5.24,5.24 0 0 0 2.71,5.8 9.85,9.85 0 0 0 3.89,0.87 5.5,5.5 0 0 0 3.71,-1.15 6.08,6.08 0 0 0 1.58,-6.61 6.7,6.7 0 0 0 -6.62,-4.41 c -1,0 -1,1.54 0,1.5 a 5.17,5.17 0 0 1 4.86,2.65 4.83,4.83 0 0 1 -0.24,5.26 c -1.36,1.68 -3.78,1.46 -5.64,0.91 a 3.74,3.74 0 0 1 -2.81,-4 5.52,5.52 0 0 1 3.63,-4.37 0.79,0.79 0 0 0 0.53,-0.93 0.77,0.77 0 0 0 -0.93,-0.52 z"
       id="path49"
       inkscape:connector-curvature="0" />
    <path
       class="cls-7"
       d="m 136.57,109 a 4,4 0 0 1 -1.76,-0.1 4.82,4.82 0 0 1 -2.39,-1.5 2.86,2.86 0 0 1 -0.52,-3.32 6,6 0 0 1 2.06,-1.59 3,3 0 0 1 3.12,0.29 4.45,4.45 0 0 1 1.72,2.38 3.4,3.4 0 0 1 0.12,1.84 2.81,2.81 0 0 1 -1.64,1.79 3,3 0 0 1 -0.71,0.21 z"
       id="path51"
       inkscape:connector-curvature="0"
       style="fill:#183e41" />
    <path
       d="m 136.37,108.28 a 3.87,3.87 0 0 1 -3.53,-1.55 2.52,2.52 0 0 1 -0.52,-1.71 1.67,1.67 0 0 1 0.24,-0.59 c -0.11,0.2 0,0 0.06,-0.05 l 0.27,-0.26 a 6,6 0 0 1 1.06,-0.83 l 0.13,-0.07 c 0.09,0 -0.16,0 0,0 0.16,0 0,-0.07 -0.1,0 0.08,0 0.27,0 0.38,-0.1 a 1.48,1.48 0 0 1 0.74,-0.24 3.29,3.29 0 0 1 2.9,2.12 2.58,2.58 0 0 1 0.13,2.12 2.32,2.32 0 0 1 -1.71,1.17 0.74,0.74 0 0 0 -0.52,0.92 0.76,0.76 0 0 0 0.92,0.52 3.68,3.68 0 0 0 2.69,-2 4.24,4.24 0 0 0 -0.29,-3.59 4.86,4.86 0 0 0 -2.27,-2.25 3.44,3.44 0 0 0 -3.32,0 l 0.38,-0.1 a 3.33,3.33 0 0 0 -1.72,1 3.81,3.81 0 0 0 -1.25,1.54 c -0.72,1.89 0.7,3.9 2.27,4.82 a 5.26,5.26 0 0 0 3.51,0.66 0.75,0.75 0 0 0 0.52,-0.92 0.76,0.76 0 0 0 -0.97,-0.61 z"
       id="path53"
       inkscape:connector-curvature="0" />
    <path
       d="m 113.78,139.28 a 6.58,6.58 0 0 0 -7.42,-2.48 11.43,11.43 0 0 0 -4,2.24 c -0.53,0.44 -1.23,0.91 -1.36,1.63 a 1,1 0 0 0 1.15,1.2 c 1,-0.16 0.55,-1.61 -0.4,-1.45 h -0.09 l 0.58,0.08 c 0,0 0.33,0.47 0.2,0.45 0,0 0.3,-0.27 0.34,-0.32 l 0.64,-0.55 a 11.54,11.54 0 0 1 1.29,-0.91 7.85,7.85 0 0 1 3.06,-1.15 4.88,4.88 0 0 1 4.76,2 c 0.51,0.82 1.81,0.06 1.3,-0.76 z"
       id="path55"
       inkscape:connector-curvature="0" />
    <path
       d="m 131.09,139 a 10.76,10.76 0 0 1 6.25,-1 5.09,5.09 0 0 1 3.8,2.89 c 0.35,0.89 1.8,0.5 1.45,-0.4 a 6.58,6.58 0 0 0 -4.69,-3.9 c -2.58,-0.61 -5.2,0.15 -7.57,1.17 a 0.76,0.76 0 0 0 -0.27,1 0.78,0.78 0 0 0 1,0.26 z"
       id="path57"
       inkscape:connector-curvature="0" />
    <path
       d="M 126.37,149.15 A 5.49,5.49 0 0 1 117,148.33 c -0.45,-0.86 -1.74,-0.1 -1.3,0.76 a 7,7 0 0 0 12,0.82 c 0.57,-0.78 -0.73,-1.53 -1.29,-0.76 z"
       id="path59"
       inkscape:connector-curvature="0" />
    <path
       d="M 129.23,175.11 A 66.47,66.47 0 0 0 117,177 a 0.75208045,0.75208045 0 0 0 0.4,1.45 63.85,63.85 0 0 1 11.82,-1.81 c 1,-0.06 1,-1.56 0,-1.5 z"
       id="path61"
       inkscape:connector-curvature="0" />
    <path
       class="cls-6"
       d="m 108.88,173.36 a 4.53,4.53 0 0 0 1.85,-2.68 4.38,4.38 0 0 0 -1.77,-4.11 5.93,5.93 0 0 0 -7.57,0.39 c -1.85,1.24 -1.54,4.29 -0.07,6.11 1.67,2.07 5,2 7.25,0.51 z"
       id="path63"
       inkscape:connector-curvature="0"
       style="fill:#ffffff" />
    <path
       d="m 109.26,174 a 5.43,5.43 0 0 0 2.2,-3.13 4.72,4.72 0 0 0 -0.86,-3.65 6.48,6.48 0 0 0 -6.35,-2.49 6.25,6.25 0 0 0 -3.15,1.47 4.23,4.23 0 0 0 -1.66,2.56 5.89,5.89 0 0 0 2.57,5.87 6.8,6.8 0 0 0 7.25,-0.63 0.77,0.77 0 0 0 0.27,-1 0.75,0.75 0 0 0 -1,-0.26 5.65,5.65 0 0 1 -5,1 4.14,4.14 0 0 1 -2.67,-3.71 2.85,2.85 0 0 1 0.55,-2 6.07,6.07 0 0 1 0.93,-0.82 4.79,4.79 0 0 1 1.24,-0.67 5.25,5.25 0 0 1 5,0.74 3.8,3.8 0 0 1 1.42,2.72 3.52,3.52 0 0 1 -1.54,2.74 0.77,0.77 0 0 0 -0.27,1 0.76,0.76 0 0 0 1.07,0.26 z"
       id="path65"
       inkscape:connector-curvature="0" />
    <path
       d="m 105.34,170.57 a 0.75,0.75 0 0 0 0,-1.5 0.75,0.75 0 0 0 0,1.5 z"
       id="path67"
       inkscape:connector-curvature="0" />
    <path
       class="cls-6"
       d="m 153.66,97 a 6.68,6.68 0 0 0 -3.92,3.8 4.66,4.66 0 0 0 1.26,5.2 7.88,7.88 0 0 0 6.88,0.86 4.79,4.79 0 0 0 2.45,-3.91 5.89,5.89 0 0 0 -6.23,-6.34"
       id="path69"
       inkscape:connector-curvature="0"
       style="fill:#ffffff" />
    <path
       d="m 153.46,96.32 a 7.22,7.22 0 0 0 -4.63,5 5.25,5.25 0 0 0 2.7,5.81 9.85,9.85 0 0 0 3.89,0.87 5.5,5.5 0 0 0 3.71,-1.15 6.08,6.08 0 0 0 1.59,-6.66 6.71,6.71 0 0 0 -6.61,-4.41 c -1,0 -1,1.55 0,1.5 a 5.21,5.21 0 0 1 4.89,2.72 4.83,4.83 0 0 1 -0.3,5.26 c -1.36,1.68 -3.77,1.46 -5.64,0.91 a 3.74,3.74 0 0 1 -2.81,-4 5.52,5.52 0 0 1 3.64,-4.38 0.78,0.78 0 0 0 0.52,-0.92 0.74,0.74 0 0 0 -0.92,-0.52 z"
       id="path71"
       inkscape:connector-curvature="0" />
    <path
       class="cls-6"
       d="m 144.77,172.85 a 4.53,4.53 0 0 0 1.85,-2.68 4.38,4.38 0 0 0 -1.77,-4.11 5.93,5.93 0 0 0 -7.57,0.39 c -1.85,1.24 -1.54,4.29 -0.07,6.11 1.67,2.07 5,2 7.25,0.52 z"
       id="path73"
       inkscape:connector-curvature="0"
       style="fill:#ffffff" />
    <path
       d="m 145.15,173.5 a 5.43,5.43 0 0 0 2.2,-3.13 4.76,4.76 0 0 0 -0.86,-3.65 6.5,6.5 0 0 0 -6.35,-2.49 6.33,6.33 0 0 0 -3.14,1.47 4.25,4.25 0 0 0 -1.66,2.56 5.86,5.86 0 0 0 2.57,5.87 6.78,6.78 0 0 0 7.25,-0.63 0.77,0.77 0 0 0 0.27,-1 0.75,0.75 0 0 0 -1,-0.27 5.62,5.62 0 0 1 -5,1 4.11,4.11 0 0 1 -2.67,-3.71 2.89,2.89 0 0 1 0.54,-2 6.66,6.66 0 0 1 0.94,-0.82 4.79,4.79 0 0 1 1.24,-0.67 5.28,5.28 0 0 1 5,0.74 3.8,3.8 0 0 1 1.5,2.79 3.5,3.5 0 0 1 -1.54,2.74 0.77,0.77 0 0 0 -0.27,1 0.76,0.76 0 0 0 0.98,0.2 z"
       id="path75"
       inkscape:connector-curvature="0" />
    <path
       d="m 141.23,170.06 a 0.75,0.75 0 0 0 0,-1.5 0.75,0.75 0 0 0 0,1.5 z"
       id="path77"
       inkscape:connector-curvature="0" />
    <path
       d="m 114,90.88 0.37,0.3 a 2.25,2.25 0 0 0 1,0.62 2.72,2.72 0 0 0 2.32,0 2.25,2.25 0 0 0 1,-0.62 l 0.47,-0.61 a 3,3 0 0 0 0.41,-1.51 l -0.11,-0.8 a 2.94,2.94 0 0 0 -0.77,-1.32 l -0.36,-0.3 A 2.9,2.9 0 0 0 115,86 a 2.34,2.34 0 0 0 -1,0.62 l -0.46,0.61 a 2.86,2.86 0 0 0 -0.41,1.51 l 0.1,0.8 a 3,3 0 0 0 0.77,1.32 z"
       id="path79"
       inkscape:connector-curvature="0" />
    <path
       d="m 150.71,106 0.36,0.3 a 2.38,2.38 0 0 0 1,0.62 2.26,2.26 0 0 0 1.15,0.25 2.29,2.29 0 0 0 1.16,-0.25 2.34,2.34 0 0 0 1,-0.62 l 0.47,-0.61 a 3,3 0 0 0 0.41,-1.52 l -0.1,-0.79 a 3,3 0 0 0 -0.78,-1.33 l -0.36,-0.29 a 2.27,2.27 0 0 0 -1,-0.63 2.82,2.82 0 0 0 -2.32,0 2.27,2.27 0 0 0 -1,0.63 l -0.47,0.6 a 3,3 0 0 0 -0.41,1.52 l 0.11,0.79 a 3,3 0 0 0 0.77,1.33 z"
       id="path81"
       inkscape:connector-curvature="0" />
  </g>
</svg>
