<?xml version="1.0" encoding="utf-8"?>
<!-- Generator: Adobe Illustrator 24.2.0, SVG Export Plug-In . SVG Version: 6.00 Build 0)  -->
<svg version="1.1" id="Layer_1" xmlns="http://www.w3.org/2000/svg" xmlns:xlink="http://www.w3.org/1999/xlink" x="0px" y="0px"
	 viewBox="0 0 112 102" style="enable-background:new 0 0 112 102;" xml:space="preserve">
<style type="text/css">
	.st0{fill:#E1262F;}
	.st1{fill:#ED7D82;}
	.st2{fill:#F4B1B4;}
	.st3{fill:#183E41;}
	.st4{fill:#F7C402;}
	.st5{fill:#FFFFFF;}
</style>
<g id="_3.fruta">
	<path class="st0" d="M74.4,2.1H37.6c-6.1,0-11.8,3.3-14.8,8.6L4.5,42.4c-3.1,5.3-3.1,11.8,0,17.1l18.4,31.8
		c3.1,5.3,8.7,8.6,14.8,8.5h36.7c6.1,0,11.8-3.3,14.8-8.5l18.4-31.8c3.1-5.3,3.1-11.8,0-17.1L89.2,10.6C86.1,5.3,80.5,2.1,74.4,2.1z
		"/>
	<path d="M74.4,1.3H38.8c-2.4-0.1-4.8,0.3-7,1c-4.1,1.4-7.5,4.3-9.6,8c-0.6,1.1-1.3,2.2-1.9,3.3L11.4,29L4.2,41.4
		c-1.7,2.7-2.6,5.8-2.7,9c-0.1,3.5,0.9,6.9,2.6,9.9l7,12.1l9,15.6l2.1,3.6c2,3.4,5,6.1,8.7,7.7c4.3,1.8,9,1.4,13.5,1.4H63
		c3.8,0,7.6,0,11.4,0c4.5,0,8.9-1.7,12.3-4.8c1.5-1.5,2.9-3.3,3.9-5.2l7.8-13.5l8.5-14.8c0.6-1.1,1.3-2.2,1.9-3.3
		c2.4-4.9,2.5-10.7,0.2-15.7c-0.6-1.2-1.3-2.4-2-3.6l-3.7-6.4l-9.4-16.3l-3.2-5.6c-1-1.8-2.2-3.5-3.6-5C83.6,3.2,79.1,1.4,74.4,1.3
		c-0.4,0-0.7,0.3-0.7,0.7s0.3,0.7,0.7,0.7c4.8,0,9.4,2.1,12.5,5.8c1,1.3,1.9,2.7,2.7,4.1l8,13.9l8.2,14.1c0.8,1.3,1.5,2.6,2.1,3.9
		c2,4.7,1.6,10.1-0.9,14.5c-1.8,3.2-3.7,6.4-5.5,9.6l-9.2,16l-3,5.2c-1.1,2-2.5,3.8-4.2,5.4c-3,2.5-6.8,3.9-10.7,3.9H38.4
		c-2.7,0.1-5.4-0.5-7.9-1.6c-3-1.5-5.5-3.9-7.2-6.8l-6.5-11.3l-9-15.7l-2.4-4.2C3.5,56.4,2.6,52.8,3,49.2c0.5-4.6,3.3-8.5,5.6-12.4
		l9.2-16c1.9-3.3,3.8-6.5,5.6-9.8c2.2-3.8,5.8-6.6,10-7.7c1.9-0.4,3.8-0.6,5.7-0.5h35.2c0.4,0,0.7-0.3,0.7-0.7S74.8,1.3,74.4,1.3z"
		/>
	<circle class="st1" cx="56" cy="51" r="43"/>
	<path d="M98.3,51c0,23.2-18.9,42-42.1,42s-42-18.9-42-42.1c0-23.2,18.9-42,42.1-42C77,8.9,94.6,24,97.8,44.5
		C98.1,46.7,98.3,48.8,98.3,51c0,0.4,0.3,0.7,0.7,0.7s0.7-0.3,0.7-0.7C99.7,26.9,80,7.4,55.9,7.5C31.8,7.6,12.3,27.2,12.4,51.3
		c0.1,24.1,19.7,43.6,43.8,43.5C77.8,94.7,96,79,99.2,57.7c0.3-2.2,0.5-4.5,0.5-6.7c0-0.4-0.3-0.7-0.7-0.7
		C98.6,50.2,98.3,50.6,98.3,51z"/>
	<circle class="st2" cx="56" cy="51" r="37.1"/>
	<path d="M92.3,51c-0.1,19.9-16.2,36-36.2,36c-19.9-0.1-36-16.2-36-36.2c0.1-19.9,16.2-36,36.2-36c17.8,0,32.8,13,35.6,30.5
		C92.2,47.2,92.3,49.1,92.3,51c0,0.4,0.3,0.7,0.7,0.7s0.7-0.3,0.7-0.7c0-20.9-16.9-37.8-37.8-37.8c-20.9,0-37.8,16.9-37.8,37.8
		S35.1,88.8,56,88.8c18.6,0,34.5-13.6,37.4-32c0.3-1.9,0.4-3.9,0.5-5.8c0-0.4-0.3-0.7-0.7-0.7C92.7,50.2,92.3,50.6,92.3,51z"/>
	<path class="st3" d="M60.2,49.8c1-0.3,2.5,0,3.9-0.1c-0.2-0.9-0.2-1.8-0.2-2.8c-1.4,0.2-2.7,0.6-4,1.2"/>
	<path d="M60.3,50.4c0.3-0.1,0.5-0.1,0.8-0.1c0.3,0,0.6,0,0.9,0c0.7,0,1.4,0,2,0c0.3,0,0.6-0.3,0.6-0.6c0,0,0-0.1,0-0.1
		c-0.1-0.4-0.1-0.8-0.2-1.3c0-0.5,0-0.9,0-1.4c0-0.3-0.3-0.6-0.6-0.6c0,0-0.1,0-0.1,0c-1.4,0.2-2.7,0.6-4,1.2
		c-0.3,0.1-0.5,0.4-0.4,0.7c0.1,0.3,0.4,0.5,0.7,0.4c1.3-0.5,2.6-0.9,4-1.2L63.3,47c-0.1,1,0,2,0.2,2.9l0.5-0.7
		c-1.3,0.1-2.7-0.2-4,0.1c-0.3,0.1-0.4,0.4-0.3,0.7C59.8,50.3,60.1,50.5,60.3,50.4L60.3,50.4z"/>
	<path class="st4" d="M63.8,27.9c-0.5-0.2-2-2.5-2.5-2.4C56,26.6,48.1,34,45.2,38s-4,9.3-5.9,14c-2.5,6.3,0,27.5,7.4,34.5
		c4.2,1.2,8.5,1.6,12.8,1c7.5-1.1,14.3-4.7,13.8-4.9C59.5,76,59.4,50.7,60,45.4c0.6-5.2,4.5-14.3,2.7-15.4
		C61.3,29.4,65.3,28.4,63.8,27.9z"/>
	<path class="st3" d="M61.4,25.6L61.4,25.6c-0.5,0.3-1,0.6-1.5,1c0.8,1.4,1.7,2.7,2.7,3.9c0.7-0.4,1.4-0.9,2.1-1.5
		C63.7,28.2,61.7,25.6,61.4,25.6z"/>
	<path d="M61.4,24.9c-0.5,0.1-0.9,0.3-1.3,0.7c-0.4,0.3-1.1,0.7-0.9,1.3c0.1,0.4,0.3,0.7,0.6,1c0.3,0.5,0.7,1,1,1.5
		c0.4,0.6,0.8,1.2,1.3,1.7c0.2,0.2,0.6,0.3,0.9,0.1c0.8-0.5,1.5-1,2.2-1.6c0.3-0.3,0.3-0.8,0-1c-0.7-0.7-1.4-1.4-2-2.1
		c-0.3-0.3-0.6-0.7-0.9-1C62.1,25.1,61.7,24.9,61.4,24.9c-0.4,0-0.8,0.3-0.8,0.7c0,0.4,0.3,0.7,0.7,0.7c-0.1,0-0.2,0-0.3-0.1l0,0
		l0,0c-0.2-0.2-0.1-0.1,0,0c0.1,0.1,0.2,0.2,0.3,0.3c0.3,0.3,0.6,0.7,0.9,1c0.6,0.7,1.2,1.4,1.8,2v-1c-0.6,0.5-1.2,1-1.9,1.3
		l0.9,0.1c-0.1-0.1-0.3-0.3-0.4-0.5l-0.1-0.1c0.1,0.1,0,0,0,0c-0.1-0.1-0.1-0.2-0.2-0.3c-0.3-0.4-0.6-0.8-0.9-1.2
		c-0.3-0.4-0.5-0.7-0.7-1.1l-0.2-0.3c0,0,0-0.1-0.1-0.1c-0.1-0.1,0.1,0.2,0,0.1c0-0.1,0,0.2,0,0.2L60.5,27c-0.1,0.2-0.1,0.2,0,0.1
		s0.1,0-0.1,0c0,0,0.1-0.1,0.1-0.1c0.1-0.1,0.3-0.2,0.4-0.3l0.5-0.3l0.2-0.1c0,0,0,0,0.1,0c-0.1,0-0.2,0.1-0.3,0.1
		c0.4,0,0.7-0.3,0.7-0.7S61.8,24.9,61.4,24.9L61.4,24.9z"/>
	<path d="M59.2,26.2c-7.2,2.4-12.8,8.6-16.4,15.2c-4.5,8.4-6,18.1-4.4,27.5c1.1,6.3,3.5,12.3,6.9,17.7c0.5,0.8,1.8,0.1,1.3-0.8
		c-5.5-8.8-8.3-19.3-7-29.7c1.1-8.2,4.7-16.3,10.5-22.3c2.7-2.7,5.9-5,9.5-6.2C60.5,27.3,60.1,25.9,59.2,26.2L59.2,26.2z"/>
	<path d="M57.8,87.6c-6.8-6.2-11-15.4-12.3-24.4c-0.7-4.8-0.5-9.7,0.8-14.4c1.1-3.8,3.2-7.2,5.5-10.4c1.4-2,3-3.8,4.7-5.5
		c1.3-1.3,2.7-2.6,4.4-3.3c0.9-0.3,0.5-1.8-0.4-1.4c-1.6,0.7-3.1,1.7-4.3,3c-1.6,1.5-3.1,3.1-4.4,4.9c-2.5,3.2-5,6.7-6.4,10.5
		c-3.4,9.5-1.9,20.4,2.2,29.4c2.1,4.8,5.1,9.3,9,12.8C57.4,89.3,58.5,88.3,57.8,87.6L57.8,87.6z"/>
	<path d="M73.5,82.1c-6.9-4-10.3-11.8-11.9-19.3c-0.8-3.8-1.1-7.7-1.1-11.6c0-3.2,0.3-6.4,0.8-9.5c0.2-1.2,0.6-2.4,1-3.6
		c0-0.1,0.1-0.1,0.1-0.2l0.1-0.3c0.3-0.7,0.7-1.4,1-2.1c0.6-1.6,0.8-3.3,0.1-4.9c-0.4-0.9-1.7-0.1-1.3,0.8c1,2.2-0.7,4.4-1.4,6.4
		c-0.4,1-0.7,2.1-0.9,3.2c-0.6,3.2-0.9,6.4-1,9.6c-0.1,7.9,1.1,16.2,4.8,23.2c2,4,5.1,7.3,8.9,9.6c0.4,0.2,0.8,0,1-0.3
		C73.9,82.7,73.8,82.3,73.5,82.1L73.5,82.1z"/>
	<path d="M92.5,51c-0.1,20-16.3,36.2-36.4,36.2S19.9,70.8,20,50.8c0.1-20,16.3-36.2,36.4-36.2c17.8,0,33,13.1,35.7,30.7
		C92.4,47.2,92.5,49.1,92.5,51c0,0.3,0.3,0.5,0.6,0.5c0.3,0,0.5-0.2,0.5-0.5c0-20.7-16.8-37.5-37.6-37.5S18.5,30.3,18.5,51
		s16.8,37.5,37.6,37.5c18.5,0,34.2-13.5,37.1-31.8c0.3-1.9,0.4-3.9,0.4-5.8c0-0.3-0.3-0.5-0.6-0.5C92.7,50.5,92.5,50.7,92.5,51z"/>
	<path d="M57.1,53c-2.5-1.7-5.5-1.8-8.4-1c-0.3,0.1-0.5,0.4-0.4,0.7c0.1,0.3,0.4,0.5,0.7,0.4c1.4-0.4,2.8-0.6,4.2-0.4
		c1.2,0.2,2.3,0.6,3.3,1.3C57.2,54.3,57.7,53.4,57.1,53L57.1,53z"/>
	<path d="M50.8,54.1c0.2-1.4,0.4-2.8,0.5-4.2l-0.9,0.4c0.1,0.1,0-0.1,0,0c0.1,0.3,0.4,0.5,0.7,0.4c0,0,0,0,0,0
		c0.3-0.1,0.5-0.4,0.4-0.7c0-0.2-0.1-0.4-0.3-0.5c-0.2-0.2-0.6-0.2-0.8,0c-0.1,0.1-0.1,0.2-0.2,0.4c-0.1,1.3-0.2,2.6-0.4,4
		c-0.1,0.3,0.1,0.6,0.4,0.7C50.5,54.5,50.8,54.4,50.8,54.1L50.8,54.1z"/>
	<path d="M53.6,54.9c-0.1-1.4,0.1-2.9,0.6-4.3c0.2-0.7-0.9-1-1.1-0.3c-0.5,1.5-0.7,3-0.6,4.6c0,0.3,0.3,0.5,0.6,0.5
		C53.4,55.4,53.6,55.2,53.6,54.9z"/>
	<path d="M56.2,54.9l0.3-4c0-0.3-0.2-0.6-0.5-0.6c-0.3,0-0.6,0.2-0.6,0.5c0,0,0,0.1,0,0.1l-0.3,4c0,0.3,0.3,0.5,0.6,0.5
		C56,55.3,56.2,55.1,56.2,54.9z"/>
	<path class="st3" d="M51.8,43.5c-0.3-0.2-0.5-0.6-0.5-0.9c0-0.4,0.1-0.8,0.4-1.2c0.3-0.7,0.9-1.4,1.6-1.4c0.7,0.7,0.6,1.9,0.1,2.7
		C53.1,43.2,52.5,43.8,51.8,43.5L51.8,43.5z"/>
	<path d="M52.1,43.1C52.1,43.1,52,43,52.1,43.1c0,0-0.1-0.1-0.1-0.1s0-0.1,0,0l-0.1-0.1c0-0.1,0,0.1,0,0l0-0.1c0-0.1,0,0,0,0
		c0,0,0-0.1,0-0.1c0-0.4,0.1-0.7,0.3-1c0.1-0.1,0.2-0.3,0.2-0.4l0.1-0.1c0,0,0-0.1,0,0c0.1-0.1,0.1-0.1,0.2-0.2l0.1-0.1
		c0,0,0.1-0.1,0.1-0.1s0.1,0,0.1,0l0.1,0c0,0,0.1-0.1,0.1,0h0.1h0.1c-0.1,0,0,0,0.1,0l-0.4-0.2l0.1,0.1c0,0,0,0,0,0
		c0.1,0.1,0.1,0.2,0.1,0.2c0,0.1,0-0.1,0,0l0,0.1c0,0,0,0.1,0,0.1c0,0,0,0.2,0,0c0,0.2,0,0.3,0,0.5c0-0.1,0,0,0,0c0,0,0,0.1,0,0.1
		c0,0.1,0,0.2-0.1,0.3c0,0,0,0.1,0,0.1l0,0.1c0-0.1,0,0.1,0,0.1c0,0,0,0.1-0.1,0.1c0,0.1-0.1,0.2-0.2,0.3c0,0-0.1,0.1-0.1,0.1
		c0,0-0.1,0.1-0.1,0.1c-0.1,0.1-0.1,0.1-0.2,0.2c0.1,0,0,0,0,0L52.3,43c0.1,0,0,0-0.1,0c-0.1,0,0,0,0,0C52.2,43,52.1,43,52.1,43.1
		C52.2,43,52.1,43,52.1,43.1c-0.3-0.2-0.6,0-0.7,0.2c-0.1,0.2,0,0.5,0.2,0.7c1.7,0.8,2.9-1.6,2.8-3c0-0.4-0.2-0.8-0.4-1.1
		c-0.2-0.2-0.4-0.5-0.7-0.5c-0.2,0-0.5,0.1-0.7,0.2c-0.7,0.4-1.2,0.9-1.4,1.7c-0.2,0.5-0.4,1-0.4,1.5c0,0.5,0.3,1,0.8,1.3
		c0.3,0.2,0.6,0.1,0.8-0.2C52.5,43.5,52.4,43.2,52.1,43.1z"/>
	<path class="st3" d="M56.5,45c-0.3-0.2-0.5-0.6-0.5-0.9c0-0.4,0.1-0.8,0.3-1.2c0.3-0.7,0.9-1.4,1.6-1.4c0.7,0.7,0.6,1.9,0.1,2.7
		C57.7,44.7,57.1,45.2,56.5,45L56.5,45z"/>
	<path d="M56.7,44.5L56.7,44.5c0,0-0.1-0.1-0.1-0.1s0-0.1,0,0l-0.1-0.1c0-0.1,0,0.1,0,0c0,0,0-0.1,0-0.1c0-0.1,0,0,0,0
		c0,0,0-0.1,0-0.1c0-0.3,0.1-0.7,0.3-1c0.1-0.1,0.2-0.3,0.2-0.4c0,0,0-0.1,0.1-0.1c0,0,0-0.1,0,0c0.1-0.1,0.1-0.1,0.2-0.2l0.1-0.1
		c0,0,0.1-0.1,0.1-0.1c-0.1,0,0.1,0,0.1,0c0,0,0.1,0,0.1,0c0,0,0.1-0.1,0.1,0c-0.1,0,0.1,0,0.1,0h0.1c-0.1,0,0,0,0,0l-0.4-0.2
		l0.1,0.1c0,0,0,0,0,0c0.1,0.1,0.1,0.2,0.1,0.2c0,0.1,0-0.1,0,0c0,0.1,0,0.1,0,0.1l0,0.1c0,0,0,0.2,0,0c0,0.2,0,0.3,0,0.5
		c0-0.1,0,0,0,0s0,0.1,0,0.1c0,0.1,0,0.2-0.1,0.3l0,0.1c0,0-0.1,0.1,0,0.1l0,0.1l-0.1,0.1c0,0.1-0.1,0.2-0.1,0.3l-0.1,0.1
		c0,0-0.1,0.1-0.1,0.1c-0.1,0.1-0.1,0.1-0.2,0.2c0.1-0.1,0,0,0,0L57,44.5c0.1,0,0,0-0.1,0c-0.1,0,0,0,0,0s-0.1,0,0,0
		C56.9,44.5,56.7,44.5,56.7,44.5c-0.2-0.1-0.6-0.1-0.7,0.2c-0.2,0.3-0.1,0.6,0.2,0.8c1.7,0.8,2.9-1.6,2.8-3c0-0.4-0.2-0.8-0.4-1.1
		c-0.1-0.3-0.4-0.4-0.7-0.5c-0.2,0-0.5,0.1-0.7,0.2c-0.7,0.4-1.2,0.9-1.4,1.6c-0.3,0.5-0.4,1-0.4,1.5c0,0.5,0.3,1,0.8,1.3
		c0.3,0.2,0.6,0.1,0.8-0.2C57.1,45,57,44.7,56.7,44.5L56.7,44.5L56.7,44.5z"/>
	<path class="st3" d="M38.3,47.7c0.2,0.1,4.7,1.1,4.7,1c0.3-0.7,0.6-1.4,0.8-2.2c-1.4-0.9-3.1-1.5-4.8-2.1
		C38.9,45.6,38.6,46.7,38.3,47.7z"/>
	<path d="M38,48.2c0.3,0.1,0.6,0.2,1,0.3c0.6,0.1,1.1,0.3,1.7,0.4c0.6,0.1,1.1,0.2,1.6,0.3c0.3,0.1,0.8,0.2,1.1,0s0.4-0.6,0.5-0.9
		c0.2-0.5,0.4-1.1,0.5-1.6c0.1-0.2,0-0.5-0.3-0.6c-1.6-0.9-3.2-1.6-4.9-2.2c-0.3-0.1-0.6,0.1-0.7,0.4c0,0,0,0.1,0,0.1
		c0,0.1,0-0.1,0,0c0,0.1,0,0.1,0,0.2L38.4,45c-0.1,0.3-0.1,0.6-0.2,0.9c-0.1,0.6-0.3,1.1-0.4,1.7c-0.1,0.3,0.1,0.6,0.4,0.7
		c0.3,0,0.5-0.1,0.6-0.4c0.3-1.1,0.6-2.2,0.7-3.4L38.9,45c1.6,0.5,3.2,1.2,4.7,2l-0.3-0.6c-0.1,0.5-0.3,0.9-0.4,1.4
		c0,0.1-0.1,0.3-0.2,0.4l0,0.1c0,0.1,0-0.1,0,0c0,0.1-0.1,0.1-0.1,0.1c0.1-0.1,0.3-0.1,0.4-0.2c0,0-0.1,0,0,0c0.1,0,0,0-0.1,0
		l-0.5-0.1c-1-0.2-2-0.4-3-0.6l-0.6-0.2l-0.2-0.1c0,0-0.1,0-0.1,0c-0.1,0,0.1,0.1,0.1,0C38,46.9,37.4,47.9,38,48.2z"/>
	<path d="M61.3,36.9c-0.2-1.9-1.6-3.4-3.3-4.2c-0.9-0.5-1.9-0.8-2.9-1.1c-1.1-0.4-2.3-0.6-3.4-0.7c-0.5,0-0.5,0.7,0,0.7
		c1,0.1,2,0.3,3,0.6c0.9,0.2,1.8,0.6,2.7,0.9c1.5,0.7,3,2,3.2,3.7C60.6,37.4,61.3,37.4,61.3,36.9L61.3,36.9z"/>
	<path d="M58.6,32.3l-1.3,1.5c-0.1,0.1-0.1,0.4,0,0.5c0.1,0.1,0.4,0.1,0.5,0l1.3-1.5c0.1-0.1,0.1-0.4,0-0.5
		C58.9,32.2,58.7,32.2,58.6,32.3z"/>
	<path d="M59.8,33.6l-1.2,1.2c-0.1,0.1-0.1,0.4,0,0.5c0.1,0.1,0.4,0.1,0.5,0l1.2-1.2c0.1-0.1,0.1-0.4,0-0.5
		C60.2,33.4,60,33.4,59.8,33.6z"/>
	<path d="M60.8,34.8c-0.4,0.4-0.7,0.8-0.9,1.3c-0.1,0.2,0,0.4,0.1,0.5c0.2,0.1,0.4,0,0.5-0.1c0.1-0.2,0.2-0.4,0.4-0.6l0.1-0.1
		c0,0,0,0.1,0,0v0l0.1-0.1c0.1-0.1,0.2-0.2,0.3-0.3c0.1-0.1,0.1-0.4,0-0.5C61.1,34.7,60.9,34.7,60.8,34.8L60.8,34.8z"/>
	<path d="M54.1,31.1l-1,1.1C53,32.3,53,32.3,53,32.4c0,0.1,0,0.2,0.1,0.3c0.1,0.1,0.4,0.1,0.5,0l1-1.1c0.1-0.1,0.1-0.2,0.1-0.3
		c0-0.1,0-0.2-0.1-0.3C54.5,30.9,54.2,30.9,54.1,31.1z"/>
	<path d="M37.7,46.1c-3.8-0.4-6.4,3.1-7.1,6.4c-0.4,2-0.6,4.1-0.5,6.2c0,1.1,0,2.3,0.1,3.4c0.1,1.1,0.4,2.3,0.1,3.4
		c-0.3,1.2-1.1,2.3-1.7,3.4l-2,3.4c-0.1,0.2,0,0.4,0.1,0.5c0.2,0.1,0.4,0,0.5-0.1c1.1-1.8,2.3-3.7,3.2-5.6c0.4-0.8,0.7-1.7,0.7-2.6
		c0-1.1-0.2-2.1-0.3-3.2c-0.1-2.1-0.1-4.2,0.1-6.2c0.2-1.9,0.5-4,1.7-5.5c1.1-1.6,3-2.9,5.1-2.6C38.2,46.8,38.2,46.1,37.7,46.1
		L37.7,46.1z"/>
	<path d="M63.7,48.6c2.4-1,4.9,0.2,7,1.5c2,1.3,3.7,2.7,5.3,4.4c1.6,1.7,2.8,3.8,3.4,6.1c0.6,2.4,0.7,4.9,1.8,7.2
		c1,1.9,2.9,3.6,5.2,3.5c0.5,0,0.5-0.8,0-0.7c-2.3,0.2-4.1-1.8-4.9-3.8c-0.9-2.4-0.9-5.1-1.8-7.5c-1.5-4.2-5.2-7.5-8.9-9.8
		c-2.1-1.4-4.8-2.5-7.4-1.5C63,48.1,63.2,48.8,63.7,48.6L63.7,48.6z"/>
	<path class="st5" d="M66.3,30.6l1.3,1.4c0.3,0.3,0.8,0.3,1,0c0,0,0.1-0.1,0.1-0.1c0.2-0.3,0.3-0.7,0.5-1c0.1-0.2,0.2-0.3,0.3-0.4
		c0.1-0.1,0.4-0.3,0.4-0.4c0-0.1-0.3,0-0.3,0c-0.1,0-0.1-0.2-0.1,0c0,0,0.1,0.1,0.1,0.1c0.1,0.2,0.2,0.5,0.4,0.7
		c0.2,0.4,0.6,1.1,1.2,1.1c0.2,0,0.5-0.1,0.6-0.3c1.4-1.1,2.7-2.3,4-3.6c0.7-0.6,1.2-1.3,1.6-2.1c0.1-0.4-0.1-0.8-0.5-0.9
		c-0.4-0.1-0.8,0.1-0.9,0.5c0.1-0.2-0.1,0.1-0.1,0.2c0,0.1-0.2,0.3-0.2,0.3c-0.3,0.3-0.6,0.7-0.9,1c-0.7,0.7-1.4,1.4-2.1,2.1
		c-0.3,0.3-0.6,0.6-1,0.8l-0.4,0.3L71,30.5c0,0,0.1-0.1,0,0c-0.1,0-0.1,0.1-0.2,0.1c0.2-0.3,0.9,0.4,0.7,0c0-0.1-0.1-0.2-0.2-0.3
		c-0.2-0.5-0.4-0.9-0.7-1.3c-1.3-1.4-2.6,1.1-3.1,2l1.2-0.1l-1.3-1.4C66.7,28.8,65.6,29.9,66.3,30.6L66.3,30.6z"/>
	<path class="st5" d="M64.7,25.9c0.7-0.6,1.3-1.3,1.8-2c0.2-0.3,0.3-0.8,0.3-1.2c0-0.5-0.1-1.1-0.2-1.6c-0.1-0.5-0.2-0.9-0.2-1.4
		c0,0,0-0.3,0-0.2c0-0.1,0-0.2,0-0.2c0-0.1,0-0.1,0-0.2c0-0.1,0,0,0,0.1c0,0.1-0.1,0.2-0.2,0.3c0.3-0.1,0.5-0.2,0.8-0.3
		c0.3-0.1,0.6-0.1,0.9-0.2c0.6-0.1,1.2-0.2,1.7-0.5c0.3-0.2,0.4-0.7,0.2-1c-0.2-0.3-0.6-0.4-0.9-0.2C68,17.8,67,17.7,66.2,18
		c-0.5,0.1-0.9,0.3-1.2,0.7c-0.1,0.2-0.2,0.5-0.1,0.8c0.1,0.8,0.2,1.5,0.4,2.3c0.1,0.4,0.1,0.7,0.1,1.1c0,0.1,0,0.2,0,0.3
		c0,0.2,0-0.1,0.1-0.1c0,0,0,0.1-0.1,0.1c0,0-0.1,0.1,0,0s0,0,0,0c-0.5,0.6-1.1,1.1-1.6,1.7c-0.3,0.3-0.3,0.8,0,1
		C64,26.2,64.5,26.2,64.7,25.9L64.7,25.9z"/>
	<path class="st5" d="M59,24.4c0-0.5-0.1-1-0.3-1.5c-0.1-0.6-0.4-1.1-0.7-1.5c-0.4-0.4-1-0.4-1.5-0.1c-0.3,0.1-0.5,0.2-0.7,0.4
		l-0.3,0.1l-0.1,0c0,0,0,0-0.1,0c-0.2,0,0,0.1,0.5,0.2l0.2,0.3c0.1,0.2,0,0.1,0,0c0-0.1,0-0.3-0.1-0.4c0-0.3-0.1-0.5-0.2-0.8
		c-0.1-0.5-0.3-1.1-0.4-1.6c-0.1-0.4-0.3-0.9-0.8-1.1c-0.3-0.1-0.6-0.1-0.8,0c-0.9,0.1-1.8,0.3-2.7,0.4c-0.7,0.2-1.4,0.3-2.2,0.3
		c-0.4,0-0.7,0.3-0.7,0.7c0,0.4,0.3,0.7,0.7,0.7c1-0.1,2.1-0.2,3.1-0.4c0.6-0.1,1.1-0.2,1.7-0.3c0.2,0,0.3,0,0.5-0.1
		c0.1,0,0.1,0,0.2,0c0.1,0-0.1,0-0.2-0.1l-0.3-0.3c-0.1-0.2,0,0,0,0.1c0,0.1,0.1,0.2,0.1,0.3c0.1,0.2,0.1,0.4,0.2,0.7
		c0.1,0.4,0.2,0.9,0.3,1.4c0,0.1,0,0.2,0,0.3c0,0.3,0-0.1,0,0.1c0,0.2,0,0.4,0.1,0.6c0.2,0.4,0.7,0.5,1.1,0.3
		c0.4-0.1,0.7-0.3,1.1-0.5c0.1-0.1,0.3-0.1,0.4-0.1h-0.1c0.2,0,0.1,0-0.3-0.1c0,0,0,0,0,0.1c0.2,0.3,0.3,0.6,0.4,1
		c0.1,0.2,0.1,0.4,0.1,0.6c0,0.1,0,0.2,0,0.3C57.5,25.3,59,25.3,59,24.4L59,24.4z"/>
	<path class="st4" d="M66.5,30.3l1.3,1.4c0.1,0.1,0.4,0.1,0.5,0c0,0,0,0,0.1-0.1c0.2-0.3,0.3-0.6,0.5-1s0.4-0.8,0.8-0.9
		c0.1,0,0-0.1,0.1,0c0.1,0.1,0.1,0.1,0.1,0.2c0.1,0.2,0.2,0.5,0.4,0.7s0.4,1,0.8,1c0.2,0,0.3-0.1,0.5-0.2c1.4-1.1,2.7-2.3,3.9-3.6
		c0.6-0.5,1.1-1.2,1.5-1.9c0.2-0.4-0.5-0.6-0.7-0.2c-0.3,0.6-0.8,1.2-1.3,1.6c-0.7,0.7-1.4,1.4-2.1,2.1c-0.5,0.5-1,0.9-1.6,1.4
		c-0.1,0-0.1,0.1-0.2,0.1h0c0.1-0.1,0.2-0.1,0.3,0c0,0-0.1-0.1-0.1-0.1c-0.1-0.1-0.1-0.2-0.2-0.4c-0.2-0.4-0.4-0.8-0.7-1.2
		c-1-1.1-2.2,1.3-2.5,2l0.6-0.1L67,29.8C66.7,29.4,66.2,30,66.5,30.3L66.5,30.3z"/>
	<path class="st4" d="M64.4,25.6c0.6-0.6,1.2-1.2,1.8-1.9c0.2-0.3,0.3-0.6,0.2-1c0-0.5-0.1-1-0.2-1.5c-0.1-0.5-0.2-0.9-0.2-1.4
		c0-0.2,0-0.3-0.1-0.5c0-0.1,0-0.1,0-0.2c-0.1-0.1,0,0.1,0,0.1c0.1,0,0.3-0.2,0.4-0.2c0.1,0,0.3-0.1,0.4-0.1
		c0.3-0.1,0.6-0.1,0.9-0.2c0.6-0.1,1.1-0.2,1.6-0.5c0.2-0.1,0.2-0.3,0.1-0.5c-0.1-0.2-0.3-0.2-0.5-0.1c-0.8,0.5-1.8,0.4-2.7,0.6
		c-0.3,0.1-0.8,0.2-1,0.5c-0.1,0.2-0.1,0.4-0.1,0.6c0.1,0.7,0.2,1.5,0.3,2.2c0.1,0.4,0.1,0.8,0.1,1.2c0,0.3,0,0.3-0.2,0.6
		c-0.5,0.6-1.1,1.1-1.6,1.7c-0.1,0.1-0.2,0.4,0,0.5C64,25.8,64.3,25.8,64.4,25.6L64.4,25.6z"/>
	<path class="st4" d="M58.6,24.4c0-0.5-0.1-1-0.3-1.5c-0.1-0.4-0.3-1.1-0.7-1.3c-0.4-0.2-1,0-1.3,0.2c-0.2,0.1-0.4,0.2-0.7,0.3
		c0,0-0.1,0-0.1,0l0,0c-0.1,0-0.1,0.1,0.2,0.3c0-0.1,0-0.3,0-0.3c-0.1-0.6-0.2-1.2-0.4-1.8c-0.1-0.4-0.2-1.3-0.7-1.5
		c-0.3-0.1-0.5-0.1-0.8,0c-0.5,0.1-1,0.1-1.5,0.2c-1.1,0.3-2.2,0.4-3.3,0.5c-0.2,0-0.4,0.2-0.4,0.4c0,0.2,0.2,0.4,0.4,0.4
		c0.9-0.1,1.8-0.2,2.6-0.4c0.9-0.2,1.8-0.4,2.7-0.4c0,0,0.1,0,0.1,0c-0.1,0.1-0.2-0.3-0.2-0.1c0.1,0.3,0.2,0.6,0.3,0.9
		c0.2,0.6,0.3,1.2,0.4,1.8c0.1,0.4,0,0.8,0.5,0.8c0.4-0.1,0.8-0.2,1.2-0.5c0.2-0.1,0.5-0.3,0.7-0.2c-0.1,0,0,0.1,0.1,0.2
		c0.1,0.1,0.1,0.2,0.1,0.3c0.2,0.5,0.4,1.1,0.4,1.7C57.9,24.9,58.6,24.9,58.6,24.4L58.6,24.4z"/>
</g>
</svg>
