<?xml version="1.0" encoding="UTF-8" standalone="no"?>
<svg
   xmlns:dc="http://purl.org/dc/elements/1.1/"
   xmlns:cc="http://creativecommons.org/ns#"
   xmlns:rdf="http://www.w3.org/1999/02/22-rdf-syntax-ns#"
   xmlns:svg="http://www.w3.org/2000/svg"
   xmlns="http://www.w3.org/2000/svg"
   xmlns:sodipodi="http://sodipodi.sourceforge.net/DTD/sodipodi-0.dtd"
   xmlns:inkscape="http://www.inkscape.org/namespaces/inkscape"
   viewBox="0 0 220.88011 201.10754"
   version="1.1"
   id="svg238"
   sodipodi:docname="Ins-4.svg"
   width="220.88011"
   height="201.10754"
   inkscape:version="0.92.5 (2060ec1f9f, 2020-04-08)">
  <metadata
     id="metadata242">
    <rdf:RDF>
      <cc:Work
         rdf:about="">
        <dc:format>image/svg+xml</dc:format>
        <dc:type
           rdf:resource="http://purl.org/dc/dcmitype/StillImage" />
        <dc:title></dc:title>
      </cc:Work>
    </rdf:RDF>
  </metadata>
  <sodipodi:namedview
     pagecolor="#ffffff"
     bordercolor="#666666"
     borderopacity="1"
     objecttolerance="10"
     gridtolerance="10"
     guidetolerance="10"
     inkscape:pageopacity="0"
     inkscape:pageshadow="2"
     inkscape:window-width="755"
     inkscape:window-height="429"
     id="namedview240"
     showgrid="false"
     fit-margin-top="0"
     fit-margin-left="0"
     fit-margin-right="0"
     fit-margin-bottom="0"
     inkscape:zoom="0.67428571"
     inkscape:cx="131.70006"
     inkscape:cy="56.605361"
     inkscape:window-x="1161"
     inkscape:window-y="83"
     inkscape:window-maximized="0"
     inkscape:current-layer="svg238" />
  <defs
     id="defs4">
    <style
       id="style2">.cls-1{fill:#f7c402;}.cls-2{fill:#fadc67;}.cls-3{fill:#fdeaab;}.cls-4{fill:#fff;}.cls-5{fill:#143f41;}.cls-6{fill:#e91f33;}.cls-7{fill:#143e41;}.cls-8{fill:#78c7cc;}.cls-9{fill:#fcc545;stroke:#143e41;}.cls-10,.cls-9{stroke-miterlimit:10;}.cls-10{fill:#e9676b;stroke:#000;stroke-width:0.25px;}</style>
  </defs>
  <g
     id="Fondos_y_letras"
     data-name="Fondos y letras"
     transform="translate(-13.344214,-30.497823)">
    <path
       class="cls-1"
       d="M 161,32 H 86.63 a 34.61,34.61 0 0 0 -30,17.31 l -37.15,64.41 a 34.57,34.57 0 0 0 0,34.61 l 37.17,64.39 a 34.6,34.6 0 0 0 30,17.3 H 161 a 34.6,34.6 0 0 0 30,-17.3 l 37.17,-64.39 a 34.62,34.62 0 0 0 0,-34.61 L 191,49.33 A 34.61,34.61 0 0 0 161,32 Z"
       id="path6"
       inkscape:connector-curvature="0"
       style="fill:#f7c402" />
    <path
       d="M 161,30.52 H 89 a 42,42 0 0 0 -14.24,2 36.57,36.57 0 0 0 -19.46,16.15 c -1.3,2.22 -2.58,4.46 -3.86,6.69 l -18,31.11 -14.6,25.27 a 38.69,38.69 0 0 0 -5.49,18.26 37.54,37.54 0 0 0 5.36,20 l 14.09,24.42 18.2,31.49 4.23,7.34 a 36.72,36.72 0 0 0 17.59,15.52 c 8.62,3.59 18.18,2.75 27.31,2.75 h 37.82 c 7.67,0 15.33,0 23,0 a 36.51,36.51 0 0 0 24.79,-9.82 44.78,44.78 0 0 0 7.88,-10.59 l 15.72,-27.24 17.3,-30 c 1.27,-2.21 2.64,-4.4 3.78,-6.68 a 36.45,36.45 0 0 0 0.36,-31.68 c -1.16,-2.48 -2.64,-4.83 -4,-7.19 l -7.44,-12.88 -19.07,-33 -6.52,-11.29 A 46.63,46.63 0 0 0 186.39,41 36.52,36.52 0 0 0 161,30.52 a 1.5,1.5 0 0 0 0,3 33.53,33.53 0 0 1 25.29,11.73 54.85,54.85 0 0 1 5.4,8.32 l 16.27,28.17 16.51,28.6 a 70.75,70.75 0 0 1 4.26,7.9 33.45,33.45 0 0 1 -1.89,29.36 c -3.7,6.49 -7.47,12.94 -11.21,19.42 l -18.63,32.3 -6.1,10.57 a 40,40 0 0 1 -8.46,10.78 33.43,33.43 0 0 1 -21.67,7.85 H 88.15 a 35.74,35.74 0 0 1 -16,-3.32 34.14,34.14 0 0 1 -14.54,-13.82 L 44.41,188.53 26.14,156.88 21.19,148.3 a 34.29,34.29 0 0 1 -4.66,-20.94 c 1,-9.22 6.76,-17.25 11.29,-25.09 L 46.49,69.93 C 50.3,63.33 54.08,56.72 57.92,50.14 A 33.39,33.39 0 0 1 78.26,34.6 44.68,44.68 0 0 1 89.78,33.52 H 161 a 1.5,1.5 0 0 0 0,-3 z"
       id="path8"
       inkscape:connector-curvature="0" />
    <circle
       class="cls-2"
       cx="123.8"
       cy="131.02"
       r="87"
       id="circle10"
       style="fill:#fadc67" />
    <path
       d="m 209.3,131 a 85.1,85.1 0 1 1 -1,-13.1 87,87 0 0 1 1,13.1 1.5,1.5 0 0 0 3,0 88.38,88.38 0 1 0 -1,13.57 91.92,91.92 0 0 0 1,-13.57 1.5,1.5 0 0 0 -3,0 z"
       id="path12"
       inkscape:connector-curvature="0" />
    <circle
       class="cls-3"
       cx="123.8"
       cy="131.02"
       r="75"
       id="circle14"
       style="fill:#fdeaab" />
    <path
       d="m 197.3,131 a 73,73 0 1 1 -0.86,-11.36 74,74 0 0 1 0.86,11.36 1.5,1.5 0 0 0 3,0 76.55,76.55 0 1 0 -0.92,11.82 79.24,79.24 0 0 0 0.92,-11.82 1.5,1.5 0 0 0 -3,0 z"
       id="path16"
       inkscape:connector-curvature="0" />
  </g>
  <g
     id="Capa_17"
     data-name="Capa 17"
     transform="translate(-13.344214,-30.497823)">
    <path
       class="cls-4"
       d="m 90.5,171.56 a 20.79,20.79 0 0 0 1.92,7 c 1.12,2 3.19,3.14 4.78,2 1.82,-1.35 2.11,-4.74 2.18,-7.61"
       id="path19"
       inkscape:connector-curvature="0"
       style="fill:#ffffff" />
    <path
       class="cls-5"
       d="m 89.3,171.9 c 0.51,3.32 1.06,7.33 4,9.47 a 4,4 0 0 0 4.36,0.37 5.89,5.89 0 0 0 2.38,-3.55 21.22,21.22 0 0 0 0.62,-5.27 1.26,1.26 0 0 0 -1.25,-1.25 1.27,1.27 0 0 0 -1.25,1.25 c 0,0.66 0,1.31 -0.09,2 0,0.32 -0.06,0.64 -0.1,1 0,0.14 0,0 0,0 a 2.51,2.51 0 0 1 0,0.27 l -0.09,0.52 c -0.06,0.3 -0.13,0.59 -0.21,0.88 0,0.14 -0.08,0.28 -0.13,0.42 l -0.06,0.17 c 0,0 -0.12,0.31 -0.07,0.19 0.05,-0.12 0,0.09 -0.06,0.12 l -0.07,0.15 a 3.79,3.79 0 0 1 -0.2,0.34 c 0,0.07 -0.24,0.33 -0.09,0.15 a 2.7,2.7 0 0 1 -0.28,0.31 1.07,1.07 0 0 1 -0.16,0.14 v 0 a 2.5,2.5 0 0 1 -0.35,0.21 c 0.2,-0.09 -0.11,0 -0.18,0.05 -0.07,0.05 0,0 0.06,0 h -0.43 l -0.38,-0.11 c -0.14,0 0,0 0,0 l -0.22,-0.11 a 3.45,3.45 0 0 1 -0.41,-0.25 v 0 l -0.15,-0.13 c -0.11,-0.1 -0.22,-0.21 -0.32,-0.32 a 3.45,3.45 0 0 1 -0.51,-0.68 8,8 0 0 1 -0.82,-1.79 29.47,29.47 0 0 1 -1.08,-5.1 1.26,1.26 0 0 0 -1.54,-0.87 1.28,1.28 0 0 0 -0.87,1.54 z"
       id="path21"
       inkscape:connector-curvature="0"
       style="fill:#143f41" />
    <path
       class="cls-4"
       d="m 144,169.48 a 20.9,20.9 0 0 0 1.91,7 c 1.13,2 3.19,3.14 4.79,2 1.81,-1.35 2.11,-4.74 2.18,-7.61"
       id="path23"
       inkscape:connector-curvature="0"
       style="fill:#ffffff" />
    <path
       class="cls-5"
       d="m 142.82,169.81 c 0.51,3.33 1.07,7.33 4,9.48 a 4,4 0 0 0 4.36,0.37 5.93,5.93 0 0 0 2.38,-3.55 21.82,21.82 0 0 0 0.62,-5.27 1.25,1.25 0 0 0 -2.5,0 c 0,0.65 0,1.31 -0.1,2 0,0.32 -0.05,0.64 -0.09,0.95 0,0.15 0,0 0,0 a 2.51,2.51 0 0 0 0,0.27 c 0,0.17 -0.06,0.35 -0.1,0.52 a 6.63,6.63 0 0 1 -0.21,0.88 c 0,0.14 -0.08,0.28 -0.12,0.42 l -0.06,0.17 c 0,0 -0.13,0.31 -0.07,0.19 0.06,-0.12 -0.05,0.09 -0.06,0.11 -0.01,0.02 -0.05,0.11 -0.08,0.16 -0.03,0.05 -0.12,0.23 -0.19,0.34 -0.07,0.11 -0.24,0.33 -0.09,0.15 -0.09,0.11 -0.19,0.21 -0.29,0.31 l -0.15,0.14 v 0 a 2.6,2.6 0 0 1 -0.36,0.21 c 0.2,-0.09 -0.11,0 -0.18,0 -0.07,0 0,0 0.06,0 a 2.45,2.45 0 0 1 -0.27,0 c 0,0 -0.27,0 -0.1,0 0.17,0 0,0 -0.06,0 l -0.38,-0.11 c -0.13,0 0,0 0,0 l -0.21,-0.11 a 3.66,3.66 0 0 1 -0.42,-0.26 c 0,0 -0.18,-0.14 0,0 L 148,177 a 3.34,3.34 0 0 1 -0.33,-0.32 3.45,3.45 0 0 1 -0.51,-0.68 8.71,8.71 0 0 1 -0.82,-1.79 31.46,31.46 0 0 1 -1.08,-5.1 1.25,1.25 0 0 0 -1.54,-0.87 1.28,1.28 0 0 0 -0.87,1.53 z"
       id="path25"
       inkscape:connector-curvature="0"
       style="fill:#143f41" />
    <path
       class="cls-6"
       d="m 101.31,92.24 c -0.42,-3.31 -0.83,-6.88 -0.12,-10 0.71,-3.12 3,-5.21 4.44,-3 1.55,2.36 0.78,7.12 1.68,10.43"
       id="path27"
       inkscape:connector-curvature="0"
       style="fill:#e91f33" />
    <path
       class="cls-7"
       d="m 101.93,92.24 a 48.92,48.92 0 0 1 -0.5,-6.28 11.21,11.21 0 0 1 1.16,-5.65 c 0.59,-1 1.75,-2.06 2.58,-0.69 a 9.7,9.7 0 0 1 0.92,4.52 28.72,28.72 0 0 0 0.62,5.63 0.63,0.63 0 0 0 1.21,-0.33 30.58,30.58 0 0 1 -0.61,-5.89 c -0.12,-1.66 -0.26,-3.59 -1.33,-5 a 2.29,2.29 0 0 0 -3.56,-0.09 c -1.46,1.38 -1.93,3.51 -2.13,5.43 a 36.61,36.61 0 0 0 0.39,8.3 c 0.1,0.79 1.35,0.8 1.25,0 z"
       id="path29"
       inkscape:connector-curvature="0"
       style="fill:#143e41" />
    <path
       class="cls-6"
       d="m 110.24,90.11 a 94.09,94.09 0 0 1 0.4,-18.85 15,15 0 0 1 0.86,-3.89 c 0.46,-1 1.21,-1.56 1.77,-0.84 a 6.67,6.67 0 0 1 0.84,2.65 95.9,95.9 0 0 1 1.24,20.82"
       id="path31"
       inkscape:connector-curvature="0"
       style="fill:#e91f33" />
    <path
       class="cls-7"
       d="m 110.87,90.11 a 95.81,95.81 0 0 1 -0.2,-11.74 c 0.06,-1.32 0.46,-11.61 2,-11.35 0.9,0.16 1.15,4.33 1.26,5.08 q 0.42,3 0.64,6 a 100.86,100.86 0 0 1 0.16,11.9 c 0,0.8 1.21,0.8 1.25,0 a 98.18,98.18 0 0 0 -0.37,-14.35 c -0.22,-2.22 -0.51,-4.44 -0.9,-6.63 -0.2,-1.08 -0.49,-3.46 -2,-3.44 -1.51,0.02 -2.06,2.3 -2.3,3.44 a 53.22,53.22 0 0 0 -0.78,6.67 95.22,95.22 0 0 0 0,14.43 c 0.06,0.8 1.31,0.8 1.25,0 z"
       id="path33"
       inkscape:connector-curvature="0"
       style="fill:#143e41" />
    <path
       class="cls-6"
       d="m 125.57,90.31 c -1,-5 -0.38,-11 1.53,-14.88 0.23,-0.47 0.51,-0.94 0.84,-1 0.54,-0.07 0.94,0.9 1.21,1.8 a 50.92,50.92 0 0 1 2,14"
       id="path35"
       inkscape:connector-curvature="0"
       style="fill:#e91f33" />
    <path
       class="cls-7"
       d="m 126.17,90.15 c -0.89,-4.58 -0.65,-9.94 1.37,-14.21 0.06,-0.13 0.2,-0.59 0.35,-0.65 0.31,-0.14 0.39,0.34 0.5,0.62 0.21,0.6 0.37,1.23 0.53,1.84 0.35,1.31 0.63,2.63 0.86,4 a 52.38,52.38 0 0 1 0.74,8.57 0.63,0.63 0 0 0 1.25,0 55.37,55.37 0 0 0 -0.64,-8 c -0.2,-1.3 -0.45,-2.59 -0.76,-3.87 a 17.64,17.64 0 0 0 -1,-3.41 c -0.31,-0.66 -0.91,-1.4 -1.73,-1.07 -0.82,0.33 -1.21,1.5 -1.52,2.27 a 22.8,22.8 0 0 0 -1.48,6.42 27.48,27.48 0 0 0 0.35,7.89 c 0.16,0.79 1.36,0.46 1.21,-0.33 z"
       id="path37"
       inkscape:connector-curvature="0"
       style="fill:#143e41" />
    <path
       class="cls-6"
       d="m 140.62,90.5 c -0.18,-2.74 -0.34,-5.71 0.39,-8.09 0.73,-2.38 2.73,-3.37 3.57,-1.13 0.84,2.24 -0.17,6.24 0.85,8.4"
       id="path39"
       inkscape:connector-curvature="0"
       style="fill:#e91f33" />
    <path
       class="cls-7"
       d="m 141.24,90.5 a 41,41 0 0 1 -0.11,-5.08 7.4,7.4 0 0 1 1.16,-4.17 c 0.22,-0.28 0.61,-0.65 1,-0.6 0.39,0.05 0.65,0.65 0.77,1 a 12.39,12.39 0 0 1 0.28,3.89 10.37,10.37 0 0 0 0.56,4.43 c 0.33,0.74 1.41,0.1 1.08,-0.63 a 10.32,10.32 0 0 1 -0.38,-4.29 9.39,9.39 0 0 0 -0.63,-4.46 2,2 0 0 0 -3,-0.74 c -1.28,1 -1.7,2.68 -1.91,4.18 a 31.6,31.6 0 0 0 0,6.45 c 0,0.8 1.3,0.81 1.25,0 z"
       id="path41"
       inkscape:connector-curvature="0"
       style="fill:#143e41" />
    <path
       class="cls-6"
       d="m 118.08,90.11 a 92.63,92.63 0 0 1 0.4,-18.85 14.61,14.61 0 0 1 0.85,-3.89 c 0.46,-1 1.21,-1.56 1.77,-0.84 a 6.67,6.67 0 0 1 0.84,2.65 95.9,95.9 0 0 1 1.24,20.82"
       id="path43"
       inkscape:connector-curvature="0"
       style="fill:#e91f33" />
    <path
       class="cls-7"
       d="m 118.7,90.11 a 95.81,95.81 0 0 1 -0.2,-11.74 c 0.06,-1.32 0.46,-11.61 2,-11.35 0.9,0.16 1.15,4.33 1.26,5.08 q 0.42,3 0.64,6 a 100.86,100.86 0 0 1 0.16,11.9 c 0,0.8 1.21,0.8 1.25,0 a 98.18,98.18 0 0 0 -0.37,-14.35 c -0.22,-2.22 -0.51,-4.44 -0.9,-6.63 -0.2,-1.08 -0.49,-3.46 -2.05,-3.44 -1.56,0.02 -2.06,2.3 -2.29,3.44 a 51.43,51.43 0 0 0 -0.79,6.67 95.22,95.22 0 0 0 0,14.43 c 0.06,0.8 1.31,0.8 1.25,0 z"
       id="path45"
       inkscape:connector-curvature="0"
       style="fill:#143e41" />
    <path
       class="cls-6"
       d="m 133.32,89.82 c -1,-5 -0.38,-11 1.53,-14.88 0.23,-0.48 0.51,-0.94 0.84,-1 0.54,-0.08 0.94,0.9 1.21,1.79 a 51,51 0 0 1 2,14"
       id="path47"
       inkscape:connector-curvature="0"
       style="fill:#e91f33" />
    <path
       class="cls-7"
       d="m 133.92,89.65 c -0.89,-4.57 -0.65,-9.94 1.37,-14.2 0.06,-0.13 0.2,-0.59 0.34,-0.65 0.32,-0.15 0.4,0.34 0.5,0.62 0.22,0.6 0.38,1.22 0.54,1.84 0.35,1.3 0.63,2.62 0.86,3.95 a 52.47,52.47 0 0 1 0.74,8.57 0.63,0.63 0 0 0 1.25,0 55.35,55.35 0 0 0 -0.64,-8 c -0.2,-1.3 -0.45,-2.59 -0.76,-3.87 a 17.73,17.73 0 0 0 -1,-3.42 c -0.31,-0.65 -0.91,-1.39 -1.73,-1.07 -0.82,0.32 -1.21,1.5 -1.52,2.28 a 22.82,22.82 0 0 0 -1.48,6.41 27.53,27.53 0 0 0 0.35,7.9 c 0.16,0.79 1.36,0.45 1.21,-0.34 z"
       id="path49"
       inkscape:connector-curvature="0"
       style="fill:#143e41" />
    <path
       class="cls-4"
       d="m 79.54,167.55 c -0.41,-24.25 2.88,-51.21 5.95,-75.28 q 38,-1.08 76,-0.44 3.51,38.48 3.75,77.17 a 451.26,451.26 0 0 1 -83.89,0.95 c -1.4,-0.11 -3.14,-1.92 -1.81,-2.39"
       id="path51"
       inkscape:connector-curvature="0"
       style="fill:#ffffff" />
    <path
       class="cls-5"
       d="m 81.41,167.55 c -0.31,-19.71 1.61,-39.41 3.93,-59 q 1,-8.16 2,-16.31 l -1.88,1.88 q 29.57,-0.84 59.13,-0.65 8.44,0.06 16.9,0.2 l -1.88,-1.87 q 2.73,30 3.47,60.07 0.21,8.55 0.25,17.09 l 1.88,-1.88 a 453,453 0 0 1 -67.61,2 c -3.13,-0.15 -6.25,-0.32 -9.38,-0.53 l -4.93,-0.35 a 7.43,7.43 0 0 1 -2,-0.21 c -0.13,-0.05 -0.17,-0.19 -0.33,-0.21 l -0.06,-0.06 c -0.5,-0.17 -0.65,0.3 -0.45,1.42 2.18,-1 0.28,-4.28 -1.89,-3.24 -2.41,1.16 -1.24,4 0.5,5.12 a 7,7 0 0 0 3.49,0.87 l 4.93,0.36 q 9.38,0.65 18.76,0.89 18.9,0.5 37.79,-0.59 10.6,-0.6 21.18,-1.72 a 1.91,1.91 0 0 0 1.87,-1.87 q -0.17,-30.09 -2.32,-60.13 -0.61,-8.52 -1.4,-17 A 1.92,1.92 0 0 0 161.52,90 q -29.57,-0.49 -59.14,0 -8.44,0.15 -16.89,0.4 a 1.93,1.93 0 0 0 -1.87,1.87 c -2.5,19.56 -4.92,39.16 -5.73,58.88 -0.22,5.46 -0.31,10.93 -0.23,16.4 0,2.41 3.79,2.42 3.75,0 z"
       id="path53"
       inkscape:connector-curvature="0"
       style="fill:#143f41" />
    <path
       class="cls-8"
       d="M 97.79,128.83 C 96.9,122.67 97.57,109.98 98,103.78 l 49.09,0.83 a 81.79,81.79 0 0 1 1,22.25 1.65,1.65 0 0 1 -0.4,1.13 2.15,2.15 0 0 1 -1.41,0.35 c -15.18,0.24 -33.36,0.26 -48.54,0.49"
       id="path55"
       inkscape:connector-curvature="0"
       style="fill:#78c7cc" />
    <path
       class="cls-7"
       d="m 99.6,128.34 a 76.41,76.41 0 0 1 -0.32,-12.2 c 0.1,-4.13 0.31,-8.25 0.6,-12.36 l -1.88,1.87 49.09,0.83 -1.81,-1.38 a 80.82,80.82 0 0 1 1.31,15 c 0,1.14 0,2.27 -0.09,3.4 0,0.65 -0.07,1.29 -0.12,1.94 a 8.33,8.33 0 0 0 -0.14,1.56 l 0.47,-0.52 h -0.38 a 3.82,3.82 0 0 0 -0.83,0 h -1.47 -3.41 c -9.21,0.11 -18.41,0.17 -27.62,0.25 q -7.6,0.06 -15.21,0.17 c -2.41,0 -2.42,3.79 0,3.75 9.91,-0.15 19.82,-0.21 29.72,-0.29 q 7.3,-0.06 14.61,-0.14 l 3.38,-0.05 a 5.13,5.13 0 0 0 3.37,-0.77 3.86,3.86 0 0 0 1.17,-2.84 c 0.13,-1.37 0.2,-2.75 0.25,-4.12 a 85.89,85.89 0 0 0 -1.39,-18.39 1.9,1.9 0 0 0 -1.81,-1.38 L 98,101.9 a 1.92,1.92 0 0 0 -1.87,1.88 c -0.3,4.23 -0.51,8.48 -0.61,12.72 a 80.8,80.8 0 0 0 0.48,12.83 1.89,1.89 0 0 0 2.31,1.31 1.92,1.92 0 0 0 1.31,-2.3 z"
       id="path57"
       inkscape:connector-curvature="0"
       style="fill:#143e41" />
    <path
       d="m 102.84,155.65 v -12.54 a 268,268 0 0 1 41.83,0.91 v 14.44 h -41.9"
       id="path59"
       inkscape:connector-curvature="0" />
    <path
       class="cls-7"
       d="m 104.71,155.65 0.06,-12.54 -1.88,1.89 a 273,273 0 0 1 41.83,0.91 L 142.84,144 v 14.44 l 1.87,-1.88 h -41.9 c -2.41,0 -2.41,3.76 0,3.75 h 41.9 a 1.9,1.9 0 0 0 1.88,-1.87 V 144 a 1.92,1.92 0 0 0 -1.87,-1.88 273,273 0 0 0 -41.83,-0.91 1.91,1.91 0 0 0 -1.87,1.88 L 101,155.65 c 0,2.41 3.74,2.41 3.75,0 z"
       id="path61"
       inkscape:connector-curvature="0"
       style="fill:#143e41" />
    <path
       class="cls-7"
       d="m 105.23,115.53 a 3.28,3.28 0 0 0 -0.31,1.14 2.74,2.74 0 0 0 0.06,0.9 3.33,3.33 0 0 0 0.79,1.55 2.79,2.79 0 0 0 3.46,0.68 3.15,3.15 0 0 0 1.26,-1.22 2.92,2.92 0 0 0 0.41,-1.71 2.6,2.6 0 0 0 -0.82,-1.73 2.77,2.77 0 0 0 -0.78,-0.49 3.32,3.32 0 0 0 -0.94,-0.23 3,3 0 0 0 -1.68,0.34 2.59,2.59 0 0 0 -1.26,1.51 1.29,1.29 0 0 0 0.13,1 1.23,1.23 0 0 0 0.75,0.57 1.29,1.29 0 0 0 1.54,-0.87 v -0.09 l -0.13,0.29 a 1.61,1.61 0 0 1 0.17,-0.28 l -0.19,0.25 a 1.2,1.2 0 0 1 0.23,-0.22 l -0.26,0.19 a 1.63,1.63 0 0 1 0.34,-0.19 l -0.29,0.12 a 1.66,1.66 0 0 1 0.45,-0.12 h -0.34 a 2.17,2.17 0 0 1 0.51,0 H 108 a 1.66,1.66 0 0 1 0.45,0.12 l -0.3,-0.13 a 1.51,1.51 0 0 1 0.35,0.2 l -0.26,-0.2 a 1.36,1.36 0 0 1 0.24,0.24 l -0.2,-0.26 a 1.56,1.56 0 0 1 0.16,0.28 l -0.12,-0.3 a 1.64,1.64 0 0 1 0.1,0.38 v -0.34 a 1.28,1.28 0 0 1 0,0.39 v -0.34 a 1.66,1.66 0 0 1 -0.12,0.45 l 0.13,-0.3 a 1.78,1.78 0 0 1 -0.28,0.48 l 0.2,-0.25 a 2.13,2.13 0 0 1 -0.34,0.33 l 0.26,-0.19 a 1.69,1.69 0 0 1 -0.41,0.24 l 0.3,-0.13 a 1.46,1.46 0 0 1 -0.41,0.11 h 0.33 -0.35 0.33 a 1.46,1.46 0 0 1 -0.41,-0.11 l 0.3,0.13 a 1.63,1.63 0 0 1 -0.4,-0.24 l 0.26,0.2 a 2.45,2.45 0 0 1 -0.36,-0.36 l 0.2,0.25 a 2.78,2.78 0 0 1 -0.28,-0.47 l 0.13,0.29 a 1.88,1.88 0 0 1 -0.14,-0.53 v 0.34 a 2.18,2.18 0 0 1 0,-0.51 v 0.33 a 1.93,1.93 0 0 1 0.12,-0.41 l -0.13,0.3 v -0.07 a 1.37,1.37 0 0 0 0.13,-1 1.26,1.26 0 0 0 -0.58,-0.74 1.24,1.24 0 0 0 -1,-0.13 1.23,1.23 0 0 0 -0.75,0.57 z"
       id="path63"
       inkscape:connector-curvature="0"
       style="fill:#143e41" />
    <path
       class="cls-4"
       d="m 107.44,113.47 c -1.06,2.23 0,4.43 2.42,4.62 2.42,0.19 4.57,-2.86 3.4,-5 -1.17,-2.14 -5.06,-1.93 -5.82,0.42"
       id="path65"
       inkscape:connector-curvature="0"
       style="fill:#ffffff" />
    <path
       class="cls-7"
       d="m 106.9,113.15 a 3.67,3.67 0 0 0 5.47,4.76 4.34,4.34 0 0 0 1.73,-4.43 3.6,3.6 0 0 0 -3.38,-2.54 3.74,3.74 0 0 0 -3.88,2.36 c -0.26,0.76 0.94,1.09 1.2,0.33 a 1.18,1.18 0 0 1 0.12,-0.27 1.74,1.74 0 0 1 0.11,-0.18 v -0.07 c 0.06,-0.08 0,0.06 0,0 a 2.29,2.29 0 0 1 0.27,-0.27 c 0,0 0.14,-0.13 0.12,-0.1 v 0 l 0.12,-0.09 a 2.07,2.07 0 0 1 0.65,-0.29 l 0.38,-0.1 h 0.11 0.62 0.22 0.1 l 0.42,0.1 0.18,0.06 h 0.11 c -0.06,0 0,0 0,0 l 0.34,0.19 a 1,1 0 0 1 0.17,0.12 l 0.08,0.07 a 1.65,1.65 0 0 1 0.45,0.57 2.36,2.36 0 0 1 0.18,1.61 3.4,3.4 0 0 1 -0.85,1.57 2.71,2.71 0 0 1 -3.25,0.62 2,2 0 0 1 -1.08,-1.36 3.1,3.1 0 0 1 0.26,-2 0.64,0.64 0 0 0 -0.23,-0.85 0.62,0.62 0 0 0 -0.85,0.22 z"
       id="path67"
       inkscape:connector-curvature="0"
       style="fill:#143e41" />
    <path
       class="cls-7"
       d="m 131.23,116.23 a 3.22,3.22 0 0 0 -0.31,1.14 2.68,2.68 0 0 0 0.06,0.89 3.31,3.31 0 0 0 0.79,1.56 2.93,2.93 0 0 0 1.45,0.91 2.86,2.86 0 0 0 2,-0.24 3.12,3.12 0 0 0 1.26,-1.21 2.94,2.94 0 0 0 0.41,-1.71 2.6,2.6 0 0 0 -0.82,-1.74 2.77,2.77 0 0 0 -0.78,-0.49 3.31,3.31 0 0 0 -0.94,-0.22 3.06,3.06 0 0 0 -1.68,0.33 2.65,2.65 0 0 0 -1.26,1.51 1.26,1.26 0 0 0 2.42,0.67 v -0.1 l -0.12,0.3 a 1,1 0 0 1 0.16,-0.28 l -0.19,0.25 a 1.25,1.25 0 0 1 0.23,-0.23 l -0.26,0.2 a 1.68,1.68 0 0 1 0.34,-0.2 l -0.29,0.13 a 2.13,2.13 0 0 1 0.45,-0.13 l -0.34,0.05 a 2.18,2.18 0 0 1 0.51,0 l -0.33,-0.05 a 1.66,1.66 0 0 1 0.45,0.12 l -0.3,-0.12 a 1.48,1.48 0 0 1 0.35,0.19 l -0.26,-0.19 a 1.31,1.31 0 0 1 0.24,0.23 l -0.2,-0.25 a 1.56,1.56 0 0 1 0.16,0.28 l -0.12,-0.3 a 1.56,1.56 0 0 1 0.1,0.37 v -0.33 a 1.21,1.21 0 0 1 0,0.38 v -0.33 a 1.88,1.88 0 0 1 -0.12,0.45 l 0.13,-0.3 a 1.94,1.94 0 0 1 -0.28,0.48 l 0.2,-0.26 a 1.82,1.82 0 0 1 -0.34,0.34 l 0.26,-0.2 a 1.69,1.69 0 0 1 -0.41,0.24 l 0.3,-0.12 a 1.91,1.91 0 0 1 -0.41,0.11 h 0.33 a 1,1 0 0 1 -0.35,0 h 0.33 a 1.91,1.91 0 0 1 -0.41,-0.11 l 0.3,0.12 a 2.3,2.3 0 0 1 -0.4,-0.23 l 0.26,0.19 a 1.75,1.75 0 0 1 -0.36,-0.36 l 0.2,0.26 a 2.87,2.87 0 0 1 -0.28,-0.48 l 0.13,0.3 a 2,2 0 0 1 -0.14,-0.53 v 0.33 a 2.09,2.09 0 0 1 0,-0.5 v 0.33 a 2.21,2.21 0 0 1 0.12,-0.42 l -0.13,0.3 v -0.07 a 1.34,1.34 0 0 0 0.13,-1 1.25,1.25 0 0 0 -2.29,-0.3 z"
       id="path69"
       inkscape:connector-curvature="0"
       style="fill:#143e41" />
    <path
       class="cls-4"
       d="m 133.44,114.16 c -1.06,2.23 0,4.44 2.42,4.62 2.42,0.18 4.57,-2.86 3.4,-5 -1.17,-2.14 -5.06,-1.94 -5.82,0.41"
       id="path71"
       inkscape:connector-curvature="0"
       style="fill:#ffffff" />
    <path
       class="cls-7"
       d="m 132.9,113.85 a 3.67,3.67 0 0 0 5.47,4.76 4.35,4.35 0 0 0 1.73,-4.43 3.61,3.61 0 0 0 -3.38,-2.55 3.74,3.74 0 0 0 -3.88,2.37 c -0.26,0.76 0.94,1.09 1.2,0.33 a 1.18,1.18 0 0 1 0.12,-0.27 0.78,0.78 0 0 1 0.11,-0.18 v -0.08 c 0.06,-0.08 0,0.07 0,0 a 2.37,2.37 0 0 1 0.27,-0.28 l 0.12,-0.1 v 0 l 0.12,-0.08 a 2.36,2.36 0 0 1 0.65,-0.3 c 0.12,0 0.25,-0.07 0.38,-0.09 h 0.11 0.22 0.71 c -0.07,0 0,0 0,0 a 2.86,2.86 0 0 1 0.42,0.1 h 0.18 0.11 v 0 a 2.79,2.79 0 0 1 0.34,0.18 l 0.17,0.12 0.08,0.08 a 1.62,1.62 0 0 1 0.45,0.56 2.37,2.37 0 0 1 0.18,1.61 3.36,3.36 0 0 1 -0.85,1.57 2.71,2.71 0 0 1 -3.25,0.62 2.05,2.05 0 0 1 -1.08,-1.35 3.1,3.1 0 0 1 0.26,-2 0.65,0.65 0 0 0 -0.23,-0.86 0.62,0.62 0 0 0 -0.85,0.23 z"
       id="path73"
       inkscape:connector-curvature="0"
       style="fill:#143e41" />
    <path
       class="cls-7"
       d="m 114.16,97.27 a 1.27,1.27 0 0 0 1,2 1.55,1.55 0 0 0 1.44,-2.14 1.42,1.42 0 0 0 -2.47,0.18"
       id="path75"
       inkscape:connector-curvature="0"
       style="fill:#143e41" />
    <path
       class="cls-7"
       d="m 129.23,97.27 a 1.27,1.27 0 0 0 1,2 1.55,1.55 0 0 0 1.44,-2.14 1.41,1.41 0 0 0 -2.46,0.18"
       id="path77"
       inkscape:connector-curvature="0"
       style="fill:#143e41" />
    <path
       class="cls-7"
       d="m 118.71,97.1 a 1.64,1.64 0 0 0 1.29,2.53 2,2 0 0 0 1.85,-2.76 1.84,1.84 0 0 0 -3.18,0.23"
       id="path79"
       inkscape:connector-curvature="0"
       style="fill:#143e41" />
    <path
       class="cls-7"
       d="m 124.18,97.1 a 1.64,1.64 0 0 0 1.32,2.53 2,2 0 0 0 1.86,-2.76 1.84,1.84 0 0 0 -3.18,0.23"
       id="path81"
       inkscape:connector-curvature="0"
       style="fill:#143e41" />
    <path
       class="cls-9"
       d="m 86.49,159.75 a 2.7,2.7 0 1 0 3.73,3.58 2.72,2.72 0 0 0 -0.54,-3.16 2.59,2.59 0 0 0 -3.19,-0.42"
       id="path83"
       inkscape:connector-curvature="0"
       style="fill:#fcc545;stroke:#143e41;stroke-miterlimit:10" />
    <path
       class="cls-9"
       d="m 86,160.11 3.52,4.09"
       id="path85"
       inkscape:connector-curvature="0"
       style="fill:#fcc545;stroke:#143e41;stroke-miterlimit:10" />
    <path
       class="cls-9"
       d="m 90.16,96.9 a 2.7,2.7 0 1 0 3.19,0.41 2.6,2.6 0 0 0 -3.19,-0.41"
       id="path87"
       inkscape:connector-curvature="0"
       style="fill:#fcc545;stroke:#143e41;stroke-miterlimit:10" />
    <path
       class="cls-9"
       d="m 89.68,97.26 3.52,4.09"
       id="path89"
       inkscape:connector-curvature="0"
       style="fill:#fcc545;stroke:#143e41;stroke-miterlimit:10" />
    <path
       class="cls-9"
       d="m 152.82,96.9 a 2.7,2.7 0 1 0 3.2,0.41 2.61,2.61 0 0 0 -3.2,-0.41"
       id="path91"
       inkscape:connector-curvature="0"
       style="fill:#fcc545;stroke:#143e41;stroke-miterlimit:10" />
    <path
       class="cls-9"
       d="m 152.35,97.26 3.51,4.09"
       id="path93"
       inkscape:connector-curvature="0"
       style="fill:#fcc545;stroke:#143e41;stroke-miterlimit:10" />
    <path
       class="cls-9"
       d="m 155.51,159.75 a 2.71,2.71 0 1 0 3.19,0.42 2.59,2.59 0 0 0 -3.19,-0.42"
       id="path95"
       inkscape:connector-curvature="0"
       style="fill:#fcc545;stroke:#143e41;stroke-miterlimit:10" />
    <path
       class="cls-9"
       d="m 155,160.11 3.51,4.09"
       id="path97"
       inkscape:connector-curvature="0"
       style="fill:#fcc545;stroke:#143e41;stroke-miterlimit:10" />
    <path
       class="cls-4"
       d="m 142.12,201.38 a 84,84 0 0 0 15.47,-4.75 c -6.09,-14.53 -13.45,-27.37 -18,-42.44 a 3.52,3.52 0 0 0 -0.39,-0.94 2.44,2.44 0 0 0 -1.12,-0.8 9.29,9.29 0 0 0 -5.83,-0.82 49.22,49.22 0 0 1 -8.41,0.38 l -14.08,-0.19 c -4.79,9.74 -7.49,20.33 -10.17,30.84 l -3.57,14 a 2.78,2.78 0 0 0 -0.12,1 c 0.12,1.16 1.52,1.66 2.66,1.9 l 6,1.26 c 6.89,1.44 13.87,2.9 20.91,2.65 3,-0.11 6,-0.53 9,-0.94 2.53,-0.36 5.1,-0.72 7.65,-1.15 z"
       id="path99"
       inkscape:connector-curvature="0"
       style="fill:#ffffff" />
    <path
       class="cls-4"
       d="m 142.41,202.47 a 80.55,80.55 0 0 0 15.48,-4.76 c 0.51,-0.19 1.05,-0.77 0.79,-1.38 -4,-9.48 -8.69,-18.64 -12.73,-28.09 -1,-2.43 -2,-4.87 -2.93,-7.34 -0.93,-2.47 -1.6,-4.91 -2.48,-7.33 -0.74,-2 -3.08,-2.77 -5,-3.09 -2.4,-0.39 -4.83,0.3 -7.23,0.39 -6.16,0.22 -12.37,-0.09 -18.53,-0.18 a 1.12,1.12 0 0 0 -1,0.56 C 103,163.06 100.1,176 96.88,188.64 l -1.23,4.83 c -0.34,1.31 -1.07,3 -0.89,4.34 0.33,2.63 3.76,2.9 5.78,3.32 6.49,1.36 13,2.89 19.63,3.36 7.43,0.52 14.94,-0.81 22.24,-2 1.43,-0.24 0.83,-2.41 -0.59,-2.17 -6.09,1 -12.35,2.14 -18.54,2.07 -6.19,-0.07 -12.21,-1.33 -18.22,-2.59 l -4.38,-0.92 c -0.82,-0.17 -3,-0.27 -3.54,-1.08 -0.32,-0.49 0,-1.23 0.19,-1.78 l 0.61,-2.41 1.23,-4.84 c 1.49,-5.84 2.92,-11.69 4.57,-17.49 a 114.75,114.75 0 0 1 7,-18.87 l -1,0.55 c 5.16,0.07 10.32,0.17 15.48,0.21 a 51.06,51.06 0 0 0 7.31,-0.44 c 1.86,-0.25 5.36,-0.12 6,2 2.87,9.25 6.87,18 11,26.8 2.39,5.11 4.8,10.22 7,15.42 l 0.79,-1.38 a 81,81 0 0 1 -15.48,4.75 c -1.45,0.23 -0.84,2.39 0.57,2.15 z"
       id="path101"
       inkscape:connector-curvature="0"
       style="fill:#ffffff" />
    <path
       class="cls-10"
       d="m 112.81,155.4 c 0,2 -0.74,3.09 -2,3.09 -1.26,0 -1.92,-1.07 -1.94,-3 -0.02,-1.93 0.85,-3 2,-3 1.15,0 1.94,1.05 1.94,2.91 z m -3.18,0.09 c 0,1.52 0.47,2.39 1.19,2.39 0.72,0 1.2,-0.95 1.2,-2.44 0,-1.49 -0.37,-2.39 -1.19,-2.39 -0.82,0 -1.2,0.85 -1.2,2.44 z"
       id="path103"
       inkscape:connector-curvature="0"
       style="fill:#e9676b;stroke:#000000;stroke-width:0.25px;stroke-miterlimit:10" />
    <path
       class="cls-10"
       d="m 115.26,153.28 v 0 l -1,0.55 -0.15,-0.61 1.28,-0.68 H 116 v 5.85 h -0.76 z"
       id="path105"
       inkscape:connector-curvature="0"
       style="fill:#e9676b;stroke:#000000;stroke-width:0.25px;stroke-miterlimit:10" />
    <path
       class="cls-10"
       d="m 122.05,155.4 c 0,2 -0.74,3.09 -2,3.09 -1.14,0 -1.92,-1.07 -1.93,-3 -0.01,-1.93 0.84,-3 2,-3 1.16,0 1.93,1.05 1.93,2.91 z m -3.18,0.09 c 0,1.52 0.47,2.39 1.19,2.39 0.72,0 1.19,-0.95 1.19,-2.44 0,-1.49 -0.37,-2.39 -1.18,-2.39 -0.81,0 -1.2,0.85 -1.2,2.44 z"
       id="path107"
       inkscape:connector-curvature="0"
       style="fill:#e9676b;stroke:#000000;stroke-width:0.25px;stroke-miterlimit:10" />
    <path
       class="cls-10"
       d="m 124.49,153.28 v 0 l -1,0.55 -0.15,-0.61 1.27,-0.68 h 0.68 v 5.85 h -0.77 z"
       id="path109"
       inkscape:connector-curvature="0"
       style="fill:#e9676b;stroke:#000000;stroke-width:0.25px;stroke-miterlimit:10" />
    <path
       class="cls-10"
       d="m 131.28,155.4 c 0,2 -0.74,3.09 -2,3.09 -1.26,0 -1.92,-1.07 -1.94,-3 -0.02,-1.93 0.85,-3 2,-3 1.15,0 1.94,1.05 1.94,2.91 z m -3.18,0.09 c 0,1.52 0.47,2.39 1.19,2.39 0.72,0 1.2,-0.95 1.2,-2.44 0,-1.49 -0.37,-2.39 -1.19,-2.39 -0.82,0 -1.2,0.85 -1.2,2.44 z"
       id="path111"
       inkscape:connector-curvature="0"
       style="fill:#e9676b;stroke:#000000;stroke-width:0.25px;stroke-miterlimit:10" />
    <path
       class="cls-10"
       d="m 133.73,153.28 v 0 l -1,0.55 -0.15,-0.61 1.28,-0.68 h 0.67 v 5.85 h -0.76 z"
       id="path113"
       inkscape:connector-curvature="0"
       style="fill:#e9676b;stroke:#000000;stroke-width:0.25px;stroke-miterlimit:10" />
    <path
       class="cls-10"
       d="m 139.58,154.13 a 5.53,5.53 0 0 1 0.14,1.31 c 0,1.49 -0.38,2.44 -1.19,2.44 -0.81,0 -1.19,-0.87 -1.19,-2.39 0,-1.52 0.5,-2.44 1.19,-2.44 a 1,1 0 0 1 0.88,0.61 q -0.21,-0.58 -0.39,-1.17 a 2.12,2.12 0 0 0 -0.44,-0.05 c -1.19,0 -2,1.08 -2,3 0,1.92 0.8,3 1.94,3 1.14,0 1.78,-0.79 2,-2.22 -0.38,-0.65 -0.67,-1.36 -0.94,-2.09 z"
       id="path115"
       inkscape:connector-curvature="0"
       style="fill:#e9676b;stroke:#000000;stroke-width:0.25px;stroke-miterlimit:10" />
    <path
       class="cls-10"
       d="m 106.26,161.44 a 1.65,1.65 0 0 0 -0.32,0 l -0.37,0.88 a 0.86,0.86 0 0 1 0.64,-0.31 c 0.82,0 1.19,0.95 1.19,2.39 0,1.44 -0.38,2.44 -1.19,2.44 -0.81,0 -1.21,-0.84 -1.21,-2.35 a 5.83,5.83 0 0 1 0.08,-1 c -0.27,0.63 -0.53,1.26 -0.79,1.9 0.22,1.35 0.9,2.09 1.85,2.09 1.3,0 2,-1.1 2,-3.09 0,-1.99 -0.65,-2.95 -1.88,-2.95 z"
       id="path117"
       inkscape:connector-curvature="0"
       style="fill:#e9676b;stroke:#000000;stroke-width:0.25px;stroke-miterlimit:10" />
    <path
       class="cls-10"
       d="m 110.64,162.28 v 0 l -1,0.55 -0.16,-0.61 1.28,-0.68 h 0.68 v 5.85 h -0.77 z"
       id="path119"
       inkscape:connector-curvature="0"
       style="fill:#e9676b;stroke:#000000;stroke-width:0.25px;stroke-miterlimit:10" />
    <path
       class="cls-10"
       d="m 117.43,164.4 c 0,2 -0.74,3.09 -2,3.09 -1.14,0 -1.91,-1.07 -1.93,-3 -0.02,-1.93 0.84,-3 2,-3 1.16,0 1.93,1.05 1.93,2.91 z m -3.18,0.09 c 0,1.52 0.47,2.39 1.19,2.39 0.72,0 1.2,-0.95 1.2,-2.44 0,-1.49 -0.37,-2.39 -1.19,-2.39 -0.82,0 -1.2,0.85 -1.2,2.44 z"
       id="path121"
       inkscape:connector-curvature="0"
       style="fill:#e9676b;stroke:#000000;stroke-width:0.25px;stroke-miterlimit:10" />
    <path
       class="cls-10"
       d="m 119.88,162.28 v 0 l -1,0.55 -0.15,-0.61 1.28,-0.68 h 0.67 v 5.85 h -0.76 z"
       id="path123"
       inkscape:connector-curvature="0"
       style="fill:#e9676b;stroke:#000000;stroke-width:0.25px;stroke-miterlimit:10" />
    <path
       class="cls-10"
       d="m 126.66,164.4 c 0,2 -0.74,3.09 -2,3.09 -1.14,0 -1.92,-1.07 -1.94,-3 -0.02,-1.93 0.85,-3 2,-3 1.15,0 1.94,1.05 1.94,2.91 z m -3.17,0.09 c 0,1.52 0.46,2.39 1.18,2.39 0.72,0 1.2,-0.95 1.2,-2.44 0,-1.49 -0.37,-2.39 -1.19,-2.39 -0.82,0 -1.19,0.85 -1.19,2.44 z"
       id="path125"
       inkscape:connector-curvature="0"
       style="fill:#e9676b;stroke:#000000;stroke-width:0.25px;stroke-miterlimit:10" />
    <path
       class="cls-10"
       d="m 129.11,162.28 v 0 l -1,0.55 -0.16,-0.61 1.28,-0.68 h 0.68 v 5.85 h -0.77 z"
       id="path127"
       inkscape:connector-curvature="0"
       style="fill:#e9676b;stroke:#000000;stroke-width:0.25px;stroke-miterlimit:10" />
    <path
       class="cls-10"
       d="m 135.9,164.4 c 0,2 -0.74,3.09 -2,3.09 -1.14,0 -1.91,-1.07 -1.93,-3 -0.02,-1.93 0.84,-3 2,-3 1.16,0 1.93,1.05 1.93,2.91 z m -3.18,0.09 c 0,1.52 0.47,2.39 1.19,2.39 0.72,0 1.2,-0.95 1.2,-2.44 0,-1.49 -0.37,-2.39 -1.19,-2.39 -0.82,0 -1.2,0.85 -1.2,2.44 z"
       id="path129"
       inkscape:connector-curvature="0"
       style="fill:#e9676b;stroke:#000000;stroke-width:0.25px;stroke-miterlimit:10" />
    <path
       class="cls-10"
       d="m 138.35,162.28 v 0 l -1,0.55 -0.15,-0.61 1.28,-0.68 h 0.67 v 5.85 h -0.76 z"
       id="path131"
       inkscape:connector-curvature="0"
       style="fill:#e9676b;stroke:#000000;stroke-width:0.25px;stroke-miterlimit:10" />
    <path
       class="cls-10"
       d="m 144.28,163.57 a 5.75,5.75 0 0 1 0.06,0.87 c 0,1.49 -0.39,2.44 -1.2,2.44 -0.81,0 -1.14,-0.88 -1.14,-2.39 0,-1.51 0.51,-2.44 1.2,-2.44 a 0.94,0.94 0 0 1 0.3,0 l -0.36,-0.65 c -1.13,0.07 -1.93,1.13 -1.93,3 0,1.87 0.79,3 1.94,3 1.15,0 1.86,-0.88 2,-2.48 -0.32,-0.39 -0.59,-0.87 -0.87,-1.35 z"
       id="path133"
       inkscape:connector-curvature="0"
       style="fill:#e9676b;stroke:#000000;stroke-width:0.25px;stroke-miterlimit:10" />
    <path
       class="cls-10"
       d="m 101.65,172.08 c -0.07,0.22 -0.16,0.43 -0.24,0.65 v 3.66 h 0.76 v -5.67 c -0.17,0.46 -0.35,0.91 -0.52,1.36 z"
       id="path135"
       inkscape:connector-curvature="0"
       style="fill:#e9676b;stroke:#000000;stroke-width:0.25px;stroke-miterlimit:10" />
    <path
       class="cls-10"
       d="m 108.19,173.4 c 0,2 -0.73,3.09 -2,3.09 -1.14,0 -1.92,-1.07 -1.94,-3 -0.02,-1.93 0.85,-3 2,-3 1.15,0 1.94,1.05 1.94,2.91 z m -3.17,0.09 c 0,1.52 0.47,2.39 1.19,2.39 0.72,0 1.19,-0.95 1.19,-2.44 0,-1.49 -0.37,-2.39 -1.19,-2.39 -0.82,0 -1.21,0.85 -1.21,2.44 z"
       id="path137"
       inkscape:connector-curvature="0"
       style="fill:#e9676b;stroke:#000000;stroke-width:0.25px;stroke-miterlimit:10" />
    <path
       class="cls-10"
       d="m 110.64,171.28 v 0 l -1,0.55 -0.16,-0.61 1.28,-0.68 h 0.68 v 5.85 h -0.77 z"
       id="path139"
       inkscape:connector-curvature="0"
       style="fill:#e9676b;stroke:#000000;stroke-width:0.25px;stroke-miterlimit:10" />
    <path
       class="cls-10"
       d="m 117.43,173.4 c 0,2 -0.74,3.09 -2,3.09 -1.14,0 -1.91,-1.07 -1.93,-3 -0.02,-1.93 0.84,-3 2,-3 1.16,0 1.93,1.05 1.93,2.91 z m -3.18,0.09 c 0,1.52 0.47,2.39 1.19,2.39 0.72,0 1.2,-0.95 1.2,-2.44 0,-1.49 -0.37,-2.39 -1.19,-2.39 -0.82,0 -1.2,0.85 -1.2,2.44 z"
       id="path141"
       inkscape:connector-curvature="0"
       style="fill:#e9676b;stroke:#000000;stroke-width:0.25px;stroke-miterlimit:10" />
    <path
       class="cls-10"
       d="m 119.88,171.28 v 0 l -1,0.55 -0.15,-0.61 1.28,-0.68 h 0.67 v 5.85 h -0.76 z"
       id="path143"
       inkscape:connector-curvature="0"
       style="fill:#e9676b;stroke:#000000;stroke-width:0.25px;stroke-miterlimit:10" />
    <path
       class="cls-10"
       d="m 126.66,173.4 c 0,2 -0.74,3.09 -2,3.09 -1.14,0 -1.92,-1.07 -1.94,-3 -0.02,-1.93 0.85,-3 2,-3 1.15,0 1.94,1.05 1.94,2.91 z m -3.17,0.09 c 0,1.52 0.46,2.39 1.18,2.39 0.72,0 1.2,-0.95 1.2,-2.44 0,-1.49 -0.37,-2.39 -1.19,-2.39 -0.82,0 -1.19,0.85 -1.19,2.44 z"
       id="path145"
       inkscape:connector-curvature="0"
       style="fill:#e9676b;stroke:#000000;stroke-width:0.25px;stroke-miterlimit:10" />
    <path
       class="cls-10"
       d="m 129.11,171.28 v 0 l -1,0.55 -0.16,-0.61 1.28,-0.68 h 0.68 v 5.85 h -0.77 z"
       id="path147"
       inkscape:connector-curvature="0"
       style="fill:#e9676b;stroke:#000000;stroke-width:0.25px;stroke-miterlimit:10" />
    <path
       class="cls-10"
       d="m 135.9,173.4 c 0,2 -0.74,3.09 -2,3.09 -1.14,0 -1.91,-1.07 -1.93,-3 -0.02,-1.93 0.84,-3 2,-3 1.16,0 1.93,1.05 1.93,2.91 z m -3.18,0.09 c 0,1.52 0.47,2.39 1.19,2.39 0.72,0 1.2,-0.95 1.2,-2.44 0,-1.49 -0.37,-2.39 -1.19,-2.39 -0.82,0 -1.2,0.85 -1.2,2.44 z"
       id="path149"
       inkscape:connector-curvature="0"
       style="fill:#e9676b;stroke:#000000;stroke-width:0.25px;stroke-miterlimit:10" />
    <path
       class="cls-10"
       d="m 138.35,171.28 v 0 l -1,0.55 -0.15,-0.61 1.28,-0.68 h 0.67 v 5.85 h -0.76 z"
       id="path151"
       inkscape:connector-curvature="0"
       style="fill:#e9676b;stroke:#000000;stroke-width:0.25px;stroke-miterlimit:10" />
    <path
       class="cls-10"
       d="m 145.13,173.4 c 0,2 -0.74,3.09 -2,3.09 -1.26,0 -1.92,-1.07 -1.94,-3 -0.02,-1.93 0.85,-3 2,-3 1.15,0 1.94,1.05 1.94,2.91 z m -3.18,0.09 c 0,1.52 0.47,2.39 1.19,2.39 0.72,0 1.2,-0.95 1.2,-2.44 0,-1.49 -0.37,-2.39 -1.19,-2.39 -0.82,0 -1.15,0.85 -1.15,2.44 z"
       id="path153"
       inkscape:connector-curvature="0"
       style="fill:#e9676b;stroke:#000000;stroke-width:0.25px;stroke-miterlimit:10" />
    <path
       class="cls-10"
       d="m 148.31,171.12 c -0.09,-0.2 -0.19,-0.39 -0.28,-0.58 h -0.36 l -1.28,0.68 0.15,0.61 1,-0.55 v 0 5.11 h 0.76 v -5.18 z"
       id="path155"
       inkscape:connector-curvature="0"
       style="fill:#e9676b;stroke:#000000;stroke-width:0.25px;stroke-miterlimit:10" />
    <path
       class="cls-10"
       d="m 99.33,179.44 v 0 a 1.17,1.17 0 0 1 0.15,0.64 c 0.7,0.12 1,1 1,2.36 0,1.49 -0.39,2.44 -1.2,2.44 -0.55,0 -1,-0.5 -1.11,-1.41 l -0.08,0.2 a 2.4,2.4 0 0 1 -0.17,0.32 v 0.1 a 2,2 0 0 1 -0.18,0.36 1.69,1.69 0 0 0 1.53,1 c 1.3,0 2,-1.1 2,-3.09 0,-1.99 -0.7,-2.92 -1.94,-2.92 z"
       id="path157"
       inkscape:connector-curvature="0"
       style="fill:#e9676b;stroke:#000000;stroke-width:0.25px;stroke-miterlimit:10" />
    <path
       class="cls-10"
       d="m 103.72,180.28 v 0 l -1,0.55 -0.15,-0.61 1.28,-0.68 h 0.67 v 5.85 h -0.76 z"
       id="path159"
       inkscape:connector-curvature="0"
       style="fill:#e9676b;stroke:#000000;stroke-width:0.25px;stroke-miterlimit:10" />
    <path
       class="cls-10"
       d="m 110.5,182.4 c 0,2 -0.74,3.09 -2,3.09 -1.14,0 -1.92,-1.07 -1.94,-3 -0.02,-1.93 0.85,-3 2,-3 1.15,0 1.94,1.05 1.94,2.91 z m -3.17,0.09 c 0,1.52 0.46,2.39 1.18,2.39 0.72,0 1.2,-0.95 1.2,-2.44 0,-1.49 -0.37,-2.39 -1.19,-2.39 -0.82,0 -1.19,0.85 -1.19,2.44 z"
       id="path161"
       inkscape:connector-curvature="0"
       style="fill:#e9676b;stroke:#000000;stroke-width:0.25px;stroke-miterlimit:10" />
    <path
       class="cls-10"
       d="m 113,180.28 v 0 l -1,0.55 -0.16,-0.61 1.28,-0.68 h 0.68 v 5.85 H 113 Z"
       id="path163"
       inkscape:connector-curvature="0"
       style="fill:#e9676b;stroke:#000000;stroke-width:0.25px;stroke-miterlimit:10" />
    <path
       class="cls-10"
       d="m 119.74,182.4 c 0,2 -0.74,3.09 -2,3.09 -1.14,0 -1.91,-1.07 -1.93,-3 -0.02,-1.93 0.84,-3 2,-3 1.16,0 1.93,1.05 1.93,2.91 z m -3.18,0.09 c 0,1.52 0.47,2.39 1.19,2.39 0.72,0 1.2,-0.95 1.2,-2.44 0,-1.49 -0.37,-2.39 -1.19,-2.39 -0.82,0 -1.2,0.85 -1.2,2.44 z"
       id="path165"
       inkscape:connector-curvature="0"
       style="fill:#e9676b;stroke:#000000;stroke-width:0.25px;stroke-miterlimit:10" />
    <path
       class="cls-10"
       d="m 122.19,180.28 v 0 l -1,0.55 -0.15,-0.61 1.28,-0.68 H 123 v 5.85 h -0.76 z"
       id="path167"
       inkscape:connector-curvature="0"
       style="fill:#e9676b;stroke:#000000;stroke-width:0.25px;stroke-miterlimit:10" />
    <path
       class="cls-10"
       d="m 129,182.4 c 0,2 -0.74,3.09 -2,3.09 -1.26,0 -1.92,-1.07 -1.94,-3 -0.02,-1.93 0.85,-3 2,-3 1.15,0 1.94,1.05 1.94,2.91 z m -3.18,0.09 c 0,1.52 0.47,2.39 1.19,2.39 0.72,0 1.2,-0.95 1.2,-2.44 0,-1.49 -0.37,-2.39 -1.19,-2.39 -0.82,0 -1.23,0.85 -1.23,2.44 z"
       id="path169"
       inkscape:connector-curvature="0"
       style="fill:#e9676b;stroke:#000000;stroke-width:0.25px;stroke-miterlimit:10" />
    <path
       class="cls-10"
       d="m 131.42,180.28 v 0 l -1,0.55 -0.15,-0.61 1.28,-0.68 h 0.67 v 5.85 h -0.76 z"
       id="path171"
       inkscape:connector-curvature="0"
       style="fill:#e9676b;stroke:#000000;stroke-width:0.25px;stroke-miterlimit:10" />
    <path
       class="cls-10"
       d="m 138.21,182.4 c 0,2 -0.74,3.09 -2,3.09 -1.14,0 -1.92,-1.07 -1.93,-3 -0.01,-1.93 0.84,-3 2,-3 1.16,0 1.93,1.05 1.93,2.91 z m -3.18,0.09 c 0,1.52 0.47,2.39 1.19,2.39 0.72,0 1.19,-0.95 1.19,-2.44 0,-1.49 -0.37,-2.39 -1.18,-2.39 -0.81,0 -1.23,0.85 -1.23,2.44 z"
       id="path173"
       inkscape:connector-curvature="0"
       style="fill:#e9676b;stroke:#000000;stroke-width:0.25px;stroke-miterlimit:10" />
    <path
       class="cls-10"
       d="m 140.65,180.28 v 0 l -1,0.55 -0.15,-0.61 1.27,-0.68 h 0.68 v 5.85 h -0.77 z"
       id="path175"
       inkscape:connector-curvature="0"
       style="fill:#e9676b;stroke:#000000;stroke-width:0.25px;stroke-miterlimit:10" />
    <path
       class="cls-10"
       d="m 147.44,182.4 c 0,2 -0.74,3.09 -2,3.09 -1.26,0 -1.92,-1.07 -1.94,-3 -0.02,-1.93 0.85,-3 2,-3 1.15,0 1.94,1.05 1.94,2.91 z m -3.18,0.09 c 0,1.52 0.47,2.39 1.19,2.39 0.72,0 1.2,-0.95 1.2,-2.44 0,-1.49 -0.37,-2.39 -1.19,-2.39 -0.82,0 -1.2,0.85 -1.2,2.44 z"
       id="path177"
       inkscape:connector-curvature="0"
       style="fill:#e9676b;stroke:#000000;stroke-width:0.25px;stroke-miterlimit:10" />
    <path
       class="cls-10"
       d="m 149.89,180.28 v 0 l -1,0.55 -0.15,-0.61 1.28,-0.68 h 0.67 v 5.85 h -0.76 z"
       id="path179"
       inkscape:connector-curvature="0"
       style="fill:#e9676b;stroke:#000000;stroke-width:0.25px;stroke-miterlimit:10" />
    <path
       class="cls-10"
       d="m 152.84,182.59 -0.12,-0.32 c 0,0.07 0,0.13 0,0.21 0,1.45 0.45,2.41 1.14,2.81 -0.34,-0.9 -0.69,-1.8 -1.02,-2.7 z"
       id="path181"
       inkscape:connector-curvature="0"
       style="fill:#e9676b;stroke:#000000;stroke-width:0.25px;stroke-miterlimit:10" />
    <path
       class="cls-10"
       d="m 96,189 c -0.08,0.24 -0.15,0.47 -0.23,0.7 v 0.1 l 1,-0.55 v 0 5.11 h 0.77 v -5.85 h -0.68 z"
       id="path183"
       inkscape:connector-curvature="0"
       style="fill:#e9676b;stroke:#000000;stroke-width:0.25px;stroke-miterlimit:10" />
    <path
       class="cls-10"
       d="m 101.41,189.28 v 0 l -1,0.55 -0.15,-0.61 1.28,-0.68 h 0.67 v 5.85 h -0.76 z"
       id="path185"
       inkscape:connector-curvature="0"
       style="fill:#e9676b;stroke:#000000;stroke-width:0.25px;stroke-miterlimit:10" />
    <path
       class="cls-10"
       d="m 108.19,191.4 c 0,2 -0.73,3.09 -2,3.09 -1.14,0 -1.92,-1.07 -1.94,-3 -0.02,-1.93 0.85,-3 2,-3 1.15,0 1.94,1.05 1.94,2.91 z m -3.17,0.09 c 0,1.52 0.47,2.39 1.19,2.39 0.72,0 1.19,-0.95 1.19,-2.44 0,-1.49 -0.37,-2.39 -1.19,-2.39 -0.82,0 -1.21,0.85 -1.21,2.44 z"
       id="path187"
       inkscape:connector-curvature="0"
       style="fill:#e9676b;stroke:#000000;stroke-width:0.25px;stroke-miterlimit:10" />
    <path
       class="cls-10"
       d="m 110.64,189.28 v 0 l -1,0.55 -0.16,-0.61 1.28,-0.68 h 0.68 v 5.85 h -0.77 z"
       id="path189"
       inkscape:connector-curvature="0"
       style="fill:#e9676b;stroke:#000000;stroke-width:0.25px;stroke-miterlimit:10" />
    <path
       class="cls-10"
       d="m 117.43,191.4 c 0,2 -0.74,3.09 -2,3.09 -1.14,0 -1.91,-1.07 -1.93,-3 -0.02,-1.93 0.84,-3 2,-3 1.16,0 1.93,1.05 1.93,2.91 z m -3.18,0.09 c 0,1.52 0.47,2.39 1.19,2.39 0.72,0 1.2,-0.95 1.2,-2.44 0,-1.49 -0.37,-2.39 -1.19,-2.39 -0.82,0 -1.2,0.85 -1.2,2.44 z"
       id="path191"
       inkscape:connector-curvature="0"
       style="fill:#e9676b;stroke:#000000;stroke-width:0.25px;stroke-miterlimit:10" />
    <path
       class="cls-10"
       d="m 119.88,189.28 v 0 l -1,0.55 -0.15,-0.61 1.28,-0.68 h 0.67 v 5.85 h -0.76 z"
       id="path193"
       inkscape:connector-curvature="0"
       style="fill:#e9676b;stroke:#000000;stroke-width:0.25px;stroke-miterlimit:10" />
    <path
       class="cls-10"
       d="m 126.66,191.4 c 0,2 -0.74,3.09 -2,3.09 -1.14,0 -1.92,-1.07 -1.94,-3 -0.02,-1.93 0.85,-3 2,-3 1.15,0 1.94,1.05 1.94,2.91 z m -3.17,0.09 c 0,1.52 0.46,2.39 1.18,2.39 0.72,0 1.2,-0.95 1.2,-2.44 0,-1.49 -0.37,-2.39 -1.19,-2.39 -0.82,0 -1.19,0.85 -1.19,2.44 z"
       id="path195"
       inkscape:connector-curvature="0"
       style="fill:#e9676b;stroke:#000000;stroke-width:0.25px;stroke-miterlimit:10" />
    <path
       class="cls-10"
       d="m 129.11,189.28 v 0 l -1,0.55 -0.16,-0.61 1.28,-0.68 h 0.68 v 5.85 h -0.77 z"
       id="path197"
       inkscape:connector-curvature="0"
       style="fill:#e9676b;stroke:#000000;stroke-width:0.25px;stroke-miterlimit:10" />
    <path
       class="cls-10"
       d="m 135.9,191.4 c 0,2 -0.74,3.09 -2,3.09 -1.14,0 -1.91,-1.07 -1.93,-3 -0.02,-1.93 0.84,-3 2,-3 1.16,0 1.93,1.05 1.93,2.91 z m -3.18,0.09 c 0,1.52 0.47,2.39 1.19,2.39 0.72,0 1.2,-0.95 1.2,-2.44 0,-1.49 -0.37,-2.39 -1.19,-2.39 -0.82,0 -1.2,0.85 -1.2,2.44 z"
       id="path199"
       inkscape:connector-curvature="0"
       style="fill:#e9676b;stroke:#000000;stroke-width:0.25px;stroke-miterlimit:10" />
    <path
       class="cls-10"
       d="m 138.35,189.28 v 0 l -1,0.55 -0.15,-0.61 1.28,-0.68 h 0.67 v 5.85 h -0.76 z"
       id="path201"
       inkscape:connector-curvature="0"
       style="fill:#e9676b;stroke:#000000;stroke-width:0.25px;stroke-miterlimit:10" />
    <path
       class="cls-10"
       d="m 145.13,191.4 c 0,2 -0.74,3.09 -2,3.09 -1.26,0 -1.92,-1.07 -1.94,-3 -0.02,-1.93 0.85,-3 2,-3 1.15,0 1.94,1.05 1.94,2.91 z m -3.18,0.09 c 0,1.52 0.47,2.39 1.19,2.39 0.72,0 1.2,-0.95 1.2,-2.44 0,-1.49 -0.37,-2.39 -1.19,-2.39 -0.82,0 -1.15,0.85 -1.15,2.44 z"
       id="path203"
       inkscape:connector-curvature="0"
       style="fill:#e9676b;stroke:#000000;stroke-width:0.25px;stroke-miterlimit:10" />
    <path
       class="cls-10"
       d="m 147.58,189.28 v 0 l -1,0.55 -0.15,-0.61 1.28,-0.68 h 0.67 v 5.85 h -0.76 z"
       id="path205"
       inkscape:connector-curvature="0"
       style="fill:#e9676b;stroke:#000000;stroke-width:0.25px;stroke-miterlimit:10" />
    <path
       class="cls-10"
       d="m 154.37,191.4 c 0,2 -0.74,3.09 -2,3.09 -1.14,0 -1.92,-1.07 -1.93,-3 -0.01,-1.93 0.84,-3 2,-3 1.16,0 1.93,1.05 1.93,2.91 z m -3.18,0.09 c 0,1.52 0.47,2.39 1.19,2.39 0.72,0 1.19,-0.95 1.19,-2.44 0,-1.49 -0.36,-2.39 -1.18,-2.39 -0.82,0 -1.2,0.85 -1.2,2.44 z"
       id="path207"
       inkscape:connector-curvature="0"
       style="fill:#e9676b;stroke:#000000;stroke-width:0.25px;stroke-miterlimit:10" />
    <path
       class="cls-10"
       d="m 95.7,199.36 0.17,0.11 c 0.17,-0.93 0.58,-1.42 1.11,-1.42 0.82,0 1.19,0.95 1.19,2.39 0,0.12 0,0.24 0,0.36 l 0.78,0.08 c 0,-0.16 0,-0.31 0,-0.48 0,-1.86 -0.7,-3 -1.94,-3 a 2,2 0 0 0 -1.87,1.72 1.08,1.08 0 0 1 0.56,0.24 z"
       id="path209"
       inkscape:connector-curvature="0"
       style="fill:#e9676b;stroke:#000000;stroke-width:0.25px;stroke-miterlimit:10" />
    <path
       class="cls-10"
       d="m 101.39,198.28 v 0 2.87 l 0.76,0.1 v -3.71 h -0.67 l -1.28,0.68 0.15,0.61 z"
       id="path211"
       inkscape:connector-curvature="0"
       style="fill:#e9676b;stroke:#000000;stroke-width:0.25px;stroke-miterlimit:10" />
    <path
       class="cls-10"
       d="m 108.19,200.4 c 0,2 -0.73,3.09 -2,3.09 -1.14,0 -1.92,-1.07 -1.94,-3 -0.02,-1.93 0.85,-3 2,-3 1.15,0 1.94,1.05 1.94,2.91 z m -3.17,0.09 c 0,1.52 0.47,2.39 1.19,2.39 0.72,0 1.19,-0.95 1.19,-2.44 0,-1.49 -0.37,-2.39 -1.19,-2.39 -0.82,0 -1.21,0.85 -1.21,2.44 z"
       id="path213"
       inkscape:connector-curvature="0"
       style="fill:#e9676b;stroke:#000000;stroke-width:0.25px;stroke-miterlimit:10" />
    <path
       class="cls-10"
       d="m 110.64,198.28 v 0 l -1,0.55 -0.16,-0.61 1.28,-0.68 h 0.68 v 5.85 h -0.77 z"
       id="path215"
       inkscape:connector-curvature="0"
       style="fill:#e9676b;stroke:#000000;stroke-width:0.25px;stroke-miterlimit:10" />
    <path
       class="cls-10"
       d="m 117.43,200.4 c 0,2 -0.74,3.09 -2,3.09 -1.14,0 -1.91,-1.07 -1.93,-3 -0.02,-1.93 0.84,-3 2,-3 1.16,0 1.93,1.05 1.93,2.91 z m -3.18,0.09 c 0,1.52 0.47,2.39 1.19,2.39 0.72,0 1.2,-0.95 1.2,-2.44 0,-1.49 -0.37,-2.39 -1.19,-2.39 -0.82,0 -1.2,0.85 -1.2,2.44 z"
       id="path217"
       inkscape:connector-curvature="0"
       style="fill:#e9676b;stroke:#000000;stroke-width:0.25px;stroke-miterlimit:10" />
    <path
       class="cls-10"
       d="m 122.05,200.4 c 0,2 -0.74,3.09 -2,3.09 -1.14,0 -1.92,-1.07 -1.93,-3 -0.01,-1.93 0.84,-3 2,-3 1.16,0 1.93,1.05 1.93,2.91 z m -3.18,0.09 c 0,1.52 0.47,2.39 1.19,2.39 0.72,0 1.19,-0.95 1.19,-2.44 0,-1.49 -0.37,-2.39 -1.18,-2.39 -0.81,0 -1.2,0.85 -1.2,2.44 z"
       id="path219"
       inkscape:connector-curvature="0"
       style="fill:#e9676b;stroke:#000000;stroke-width:0.25px;stroke-miterlimit:10" />
    <path
       class="cls-10"
       d="m 124.49,198.28 v 0 l -1,0.55 -0.15,-0.61 1.27,-0.68 h 0.68 v 5.85 h -0.77 z"
       id="path221"
       inkscape:connector-curvature="0"
       style="fill:#e9676b;stroke:#000000;stroke-width:0.25px;stroke-miterlimit:10" />
    <path
       class="cls-10"
       d="m 131.28,200.4 c 0,2 -0.74,3.09 -2,3.09 -1.26,0 -1.92,-1.07 -1.94,-3 -0.02,-1.93 0.85,-3 2,-3 1.15,0 1.94,1.05 1.94,2.91 z m -3.18,0.09 c 0,1.52 0.47,2.39 1.19,2.39 0.72,0 1.2,-0.95 1.2,-2.44 0,-1.49 -0.37,-2.39 -1.19,-2.39 -0.82,0 -1.2,0.85 -1.2,2.44 z"
       id="path223"
       inkscape:connector-curvature="0"
       style="fill:#e9676b;stroke:#000000;stroke-width:0.25px;stroke-miterlimit:10" />
    <path
       class="cls-10"
       d="m 133.73,198.28 v 0 l -1,0.55 -0.15,-0.61 1.28,-0.68 h 0.67 v 5.85 h -0.76 z"
       id="path225"
       inkscape:connector-curvature="0"
       style="fill:#e9676b;stroke:#000000;stroke-width:0.25px;stroke-miterlimit:10" />
    <path
       class="cls-10"
       d="m 140.51,200.4 c 0,2 -0.73,3.09 -2,3.09 -1.14,0 -1.92,-1.07 -1.94,-3 -0.02,-1.93 0.85,-3 2,-3 1.15,0 1.94,1.05 1.94,2.91 z m -3.17,0.09 c 0,1.52 0.47,2.39 1.19,2.39 0.72,0 1.19,-0.95 1.19,-2.44 0,-1.49 -0.37,-2.39 -1.19,-2.39 -0.82,0 -1.19,0.85 -1.19,2.44 z"
       id="path227"
       inkscape:connector-curvature="0"
       style="fill:#e9676b;stroke:#000000;stroke-width:0.25px;stroke-miterlimit:10" />
    <path
       class="cls-10"
       d="m 143,198.28 v 5.11 h 0.62 0.15 v -5.79 h -0.68 l -1.28,0.68 0.16,0.61 1,-0.55 z"
       id="path229"
       inkscape:connector-curvature="0"
       style="fill:#e9676b;stroke:#000000;stroke-width:0.25px;stroke-miterlimit:10" />
    <path
       class="cls-10"
       d="m 146.86,202.18 a 4.21,4.21 0 0 1 -0.29,-1.69 c 0,-1.59 0.51,-2.44 1.2,-2.44 0.69,0 1.19,0.95 1.19,2.39 a 6.26,6.26 0 0 1 -0.05,0.78 l 0.81,-0.31 a 4.24,4.24 0 0 0 0,-0.51 c 0,-1.86 -0.7,-3 -1.94,-3 -1.24,0 -2,1.08 -2,3 a 4.57,4.57 0 0 0 0.39,1.94 z"
       id="path231"
       inkscape:connector-curvature="0"
       style="fill:#e9676b;stroke:#000000;stroke-width:0.25px;stroke-miterlimit:10" />
    <path
       d="m 159,196.9 a 52.33,52.33 0 0 0 -3,-9.17 c -1.74,-4.51 -3.64,-9 -5.56,-13.4 -3.35,-7.71 -6.81,-15.39 -10.46,-23 -0.44,-0.9 -0.72,-1.31 -1.8,-1.47 -1.51,-0.23 -3,-0.42 -4.55,-0.56 -3.26,-0.32 -6.53,-0.46 -9.79,-0.47 a 83.38,83.38 0 0 0 -8.66,0.37 22.9,22.9 0 0 0 -5.75,1.07 c -2.1,0.8 -2.49,2.81 -3.2,4.75 -1.4,3.8 -2.69,7.64 -3.95,11.48 -3.19,9.76 -6.32,19.63 -8.53,29.67 q -0.33,1.48 -0.6,3 c -0.27,1.42 1.9,2 2.16,0.6 2.06,-11.12 5.67,-22.05 9.19,-32.78 1.36,-4.14 2.73,-8.29 4.28,-12.37 l 0.33,-0.85 c 0.07,-0.17 0.28,-0.67 0.21,-0.52 0.06,-0.14 0.13,-0.28 0.2,-0.43 0.07,-0.15 0,-0.06 0.06,-0.11 -0.12,0.1 0.34,-0.19 0.45,-0.24 a 9.14,9.14 0 0 1 1.26,-0.38 26.67,26.67 0 0 1 3.45,-0.56 89.37,89.37 0 0 1 23.56,0.64 l -0.68,-0.52 c 6,12.35 11.78,25 16.66,37.82 a 48.27,48.27 0 0 1 2.56,8 c 0.27,1.42 2.43,0.82 2.17,-0.6 z"
       id="path233"
       inkscape:connector-curvature="0" />
    <path
       d="m 197.3,131 a 73,73 0 1 1 -0.86,-11.36 74,74 0 0 1 0.86,11.36 1.5,1.5 0 0 0 3,0 76.55,76.55 0 1 0 -0.92,11.82 79.24,79.24 0 0 0 0.92,-11.82 1.5,1.5 0 0 0 -3,0 z"
       id="path235"
       inkscape:connector-curvature="0" />
  </g>
</svg>
