<?xml version="1.0" encoding="UTF-8" standalone="no"?>
<svg
   xmlns:dc="http://purl.org/dc/elements/1.1/"
   xmlns:cc="http://creativecommons.org/ns#"
   xmlns:rdf="http://www.w3.org/1999/02/22-rdf-syntax-ns#"
   xmlns:svg="http://www.w3.org/2000/svg"
   xmlns="http://www.w3.org/2000/svg"
   xmlns:sodipodi="http://sodipodi.sourceforge.net/DTD/sodipodi-0.dtd"
   xmlns:inkscape="http://www.inkscape.org/namespaces/inkscape"
   viewBox="0 0 220.89345 201.10751"
   version="1.1"
   id="svg126"
   sodipodi:docname="Ins-3.svg"
   width="220.89345"
   height="201.10751"
   inkscape:version="0.92.5 (2060ec1f9f, 2020-04-08)">
  <metadata
     id="metadata130">
    <rdf:RDF>
      <cc:Work
         rdf:about="">
        <dc:format>image/svg+xml</dc:format>
        <dc:type
           rdf:resource="http://purl.org/dc/dcmitype/StillImage" />
        <dc:title></dc:title>
      </cc:Work>
    </rdf:RDF>
  </metadata>
  <sodipodi:namedview
     pagecolor="#ffffff"
     bordercolor="#666666"
     borderopacity="1"
     objecttolerance="10"
     gridtolerance="10"
     guidetolerance="10"
     inkscape:pageopacity="0"
     inkscape:pageshadow="2"
     inkscape:window-width="1920"
     inkscape:window-height="1048"
     id="namedview128"
     showgrid="false"
     fit-margin-top="0"
     fit-margin-left="0"
     fit-margin-right="0"
     fit-margin-bottom="0"
     inkscape:zoom="0.67428571"
     inkscape:cx="109.30574"
     inkscape:cy="57.455041"
     inkscape:window-x="1920"
     inkscape:window-y="0"
     inkscape:window-maximized="1"
     inkscape:current-layer="svg126" />
  <defs
     id="defs4">
    <style
       id="style2">.cls-1{fill:#e66869;}.cls-2{fill:#f0a4a5;}.cls-3{fill:#f7cbca;}.cls-4{fill:#78c3c8;}.cls-5{fill:#e9676b;}.cls-6{fill:#fff;}.cls-7{stroke:#000;stroke-miterlimit:10;stroke-width:0.75px;}.cls-8{fill:#1d1d1b;}.cls-9{fill:#f1f1f1;}.cls-10{fill:#ffda83;}</style>
  </defs>
  <g
     id="Fondos_y_letras"
     data-name="Fondos y letras"
     transform="translate(-15.694263,-31.347527)">
    <path
       class="cls-1"
       d="M 163.32,32.87 H 89 A 34.64,34.64 0 0 0 59,50.18 l -37.18,64.38 a 34.64,34.64 0 0 0 0,34.62 L 59,213.56 a 34.64,34.64 0 0 0 30,17.31 h 74.35 a 34.64,34.64 0 0 0 30,-17.31 l 37.17,-64.38 a 34.64,34.64 0 0 0 0,-34.62 L 193.3,50.18 A 34.64,34.64 0 0 0 163.32,32.87 Z"
       id="path6"
       inkscape:connector-curvature="0"
       style="fill:#e66869" />
    <path
       d="m 163.32,31.37 h -72 a 42,42 0 0 0 -14.25,2 36.65,36.65 0 0 0 -19.43,16.15 q -1.94,3.33 -3.85,6.68 l -18,31.11 -14.56,25.28 a 38.57,38.57 0 0 0 -5.53,18.26 37.55,37.55 0 0 0 5.36,20 l 14.09,24.41 18.18,31.5 c 1.42,2.44 2.82,4.89 4.24,7.33 a 36.57,36.57 0 0 0 17.59,15.52 c 8.62,3.6 18.17,2.76 27.31,2.76 h 37.82 c 7.66,0 15.33,0 23,0 a 36.54,36.54 0 0 0 24.8,-9.83 A 44.65,44.65 0 0 0 196,212 l 15.72,-27.23 17.28,-30 c 1.28,-2.21 2.65,-4.4 3.79,-6.68 a 36.51,36.51 0 0 0 0.36,-31.68 c -1.16,-2.48 -2.64,-4.83 -4,-7.2 L 221.72,96.34 202.65,63.34 196.09,52 a 46.87,46.87 0 0 0 -7.35,-10.18 36.51,36.51 0 0 0 -25.42,-10.46 1.5,1.5 0 0 0 0,3 33.51,33.51 0 0 1 25.29,11.74 54.76,54.76 0 0 1 5.4,8.31 l 16.26,28.18 16.52,28.6 a 70.61,70.61 0 0 1 4.26,7.89 33.47,33.47 0 0 1 -1.89,29.37 c -3.71,6.49 -7.48,12.94 -11.21,19.41 l -18.65,32.31 -6.11,10.57 a 39.58,39.58 0 0 1 -8.45,10.77 33.41,33.41 0 0 1 -21.67,7.86 H 90.49 a 35.72,35.72 0 0 1 -16,-3.32 A 34.18,34.18 0 0 1 60,212.22 L 46.76,189.37 28.49,157.72 23.54,149.15 a 34.23,34.23 0 0 1 -4.66,-20.94 c 1,-9.22 6.75,-17.25 11.28,-25.09 L 48.83,70.78 c 3.81,-6.6 7.6,-13.21 11.43,-19.8 A 33.41,33.41 0 0 1 80.61,35.45 44.63,44.63 0 0 1 92.13,34.37 h 71.19 a 1.5,1.5 0 0 0 0,-3 z"
       id="path8"
       inkscape:connector-curvature="0" />
    <circle
       class="cls-2"
       cx="126.15"
       cy="131.87"
       r="87"
       id="circle10"
       style="fill:#f0a4a5" />
    <path
       d="m 211.65,131.87 a 85.1,85.1 0 1 1 -1,-13.1 87,87 0 0 1 1,13.1 1.5,1.5 0 0 0 3,0 88.61,88.61 0 1 0 -1.05,13.56 91.9,91.9 0 0 0 1.05,-13.56 1.5,1.5 0 0 0 -3,0 z"
       id="path12"
       inkscape:connector-curvature="0" />
    <circle
       class="cls-3"
       cx="126.15"
       cy="131.87"
       r="75"
       id="circle14"
       style="fill:#f7cbca" />
    <path
       d="m 199.65,131.87 a 73.21,73.21 0 1 1 -0.87,-11.36 74,74 0 0 1 0.87,11.36 1.5,1.5 0 0 0 3,0 76.52,76.52 0 1 0 -0.92,11.82 79.24,79.24 0 0 0 0.92,-11.82 1.5,1.5 0 0 0 -3,0 z"
       id="path16"
       inkscape:connector-curvature="0" />
  </g>
  <g
     id="Cocinando"
     transform="translate(-15.694263,-31.347527)">
    <path
       d="m 87,196.06 a 9.12,9.12 0 0 1 5.55,-5.68 2.55,2.55 0 0 0 1.7,-3 2.5,2.5 0 0 0 -3,-1.79 14.1,14.1 0 0 0 -8.2,7.2 c 1.3,1.09 2.6,2.21 3.95,3.27 z"
       id="path19"
       inkscape:connector-curvature="0" />
    <path
       d="m 141.44,194 c 0.41,-0.08 0.25,0.08 0,0 a 0.71,0.71 0 0 1 0.41,0.24 8.37,8.37 0 0 1 1.62,1.79 35.12,35.12 0 0 1 2.6,3.41 14.12,14.12 0 0 1 1.65,3.5 l 4.73,-1.58 c 0,0 0,-0.09 0,-0.13 a 25.93,25.93 0 0 0 -4.55,-7.64 c -1.87,-2.27 -4.31,-5.36 -7.72,-4.31 a 2.56,2.56 0 0 0 -1.7,3 2.45,2.45 0 0 0 2.96,1.72 z"
       id="path21"
       inkscape:connector-curvature="0" />
    <path
       class="cls-4"
       d="m 78.47,170.88 c -2,-1.46 -9.83,-6.17 -11.13,-8.37 -1.3,-2.2 -1.54,-5.2 0.08,-7.15 1.79,-2.19 5,-2.19 7.8,-2.76 6.83,-1.38 9.18,-8.29 14.55,-12.76 9.34,-7.72 18,-12.35 30.14,-12.92 12.14,-0.57 30.39,5.45 36.24,16.09 3.9,7.07 5.28,16.58 12.59,20 3.17,1.46 7.4,1.71 9.1,4.87 1.38,2.6 -0.08,6 -2.52,7.72 -2.44,1.72 -5.52,2.12 -8.45,2.44 a 8.84,8.84 0 0 0 -3.57,0.81 c -1.3,0.73 -2,2.12 -2.84,3.33 -6.75,10.08 -19.83,13.66 -31.86,15 -8.2,0.89 -16.65,1.13 -24.53,-1.47 -14.3,-4.55 -21.29,-12.75 -25.6,-24.86"
       id="path23"
       inkscape:connector-curvature="0"
       style="fill:#78c3c8" />
    <path
       d="m 79,169.82 c -2.84,-1.95 -5.85,-3.73 -8.53,-5.85 a 6.74,6.74 0 0 1 -2.76,-3.33 c -0.73,-2.27 -0.08,-4.63 2.19,-5.6 2.27,-0.97 4.63,-0.82 6.83,-1.55 a 14,14 0 0 0 5.2,-3.25 c 3.25,-3.08 5.44,-6.9 8.93,-9.75 a 63.37,63.37 0 0 1 12.43,-8.2 40.43,40.43 0 0 1 13.74,-3.82 48.83,48.83 0 0 1 25.18,4.63 34.4,34.4 0 0 1 10.08,7 c 2.84,3 4.23,6.9 5.77,10.64 1.62,3.9 3.25,8 6.42,10.89 a 13.78,13.78 0 0 0 5.6,3.17 c 1.95,0.65 4.31,1.05 5.77,2.6 1.63,1.62 1.3,3.9 0.08,5.68 -1.46,2.12 -4.14,2.93 -6.58,3.34 -2.44,0.41 -5.44,0.16 -7.55,1.86 -1.79,1.47 -2.77,3.82 -4.31,5.53 -6.26,7.23 -16,10.16 -25.19,11.62 a 81.75,81.75 0 0 1 -16.65,1.06 44.53,44.53 0 0 1 -16.09,-3.74 36.77,36.77 0 0 1 -10.73,-7.07 35,35 0 0 1 -6.9,-9.59 48.4,48.4 0 0 1 -2.36,-5.69 c -0.49,-1.46 -2.84,-0.81 -2.36,0.65 3,8.29 7.72,15.6 15.2,20.56 a 43.92,43.92 0 0 0 14,6 57.11,57.11 0 0 0 18.61,1 c 10,-0.81 20.8,-2.68 29.09,-8.7 a 26,26 0 0 0 7.47,-7.8 c 0.82,-1.22 1.55,-2.35 3,-2.68 a 36,36 0 0 1 4,-0.49 19.34,19.34 0 0 0 4.23,-0.89 9.71,9.71 0 0 0 5.77,-4.79 6.51,6.51 0 0 0 -0.33,-6.75 c -1.38,-1.87 -3.57,-2.76 -5.69,-3.41 a 18.64,18.64 0 0 1 -6,-2.84 19.27,19.27 0 0 1 -3.9,-5.2 c -2.11,-4.07 -3.41,-8.45 -5.52,-12.43 a 26.2,26.2 0 0 0 -8.7,-8.94 50.37,50.37 0 0 0 -25.92,-8 46.88,46.88 0 0 0 -28.19,8.86 61.61,61.61 0 0 0 -6.34,5 40.61,40.61 0 0 0 -4.63,5.28 25.21,25.21 0 0 1 -4.55,4.79 c -1.95,1.47 -4.06,1.87 -6.42,2.28 -2.36,0.41 -4.88,1 -6.34,3.17 a 7.28,7.28 0 0 0 -0.4,7.07 8.92,8.92 0 0 0 3.35,3.7 58.27,58.27 0 0 0 5.11,3.58 c 1.3,0.81 2.52,1.62 3.82,2.52 1.3,0.9 2.44,-1.22 1.14,-2.12 z"
       id="path25"
       inkscape:connector-curvature="0" />
    <path
       d="m 112.52,180.06 c -0.14,-3.27 -0.07,-6.74 1.29,-9.74 1.36,-3 4.22,-5.58 7.56,-5.58 a 4.49,4.49 0 0 1 2.32,0.54 c 1.43,0.82 2,2.52 2.51,4.16 a 68,68 0 0 1 2.32,11.78 c 0,0.27 0.07,0.54 -0.14,0.75 a 1,1 0 0 1 -0.68,0.13 c -4.49,-0.27 -9,-0.61 -13.55,-1.15 -0.41,-0.07 -0.88,-0.28 -0.75,-0.62"
       id="path27"
       inkscape:connector-curvature="0" />
    <path
       d="m 113.54,180.06 c -0.14,-3.27 -0.14,-6.81 1.43,-9.81 1.22,-2.38 3.54,-4.49 6.4,-4.49 3.4,0 3.95,4.15 4.56,6.74 0.41,1.7 0.75,3.47 1.09,5.24 0.14,0.89 0.27,1.78 0.41,2.59 0,0.21 0.07,0.41 0.07,0.62 0,0.21 0.07,0.68 0.13,0.2 0.07,-0.07 0.07,-0.14 0.14,-0.2 h -0.48 a 3.17,3.17 0 0 1 -0.81,-0.07 c -2.11,-0.14 -4.23,-0.28 -6.27,-0.48 -1,-0.07 -2,-0.2 -3,-0.27 a 13,13 0 0 0 -1.64,-0.14 c -0.2,0 -0.41,-0.07 -0.68,-0.07 a 0.68,0.68 0 0 1 -0.34,-0.06 c -0.41,-0.14 -0.41,0.06 -0.07,0.61 0.21,-1.3 -1.7,-1.84 -2,-0.55 -0.41,2.32 3.06,2.11 4.49,2.25 l 7.08,0.61 3.34,0.21 c 0.95,0.07 1.91,-0.14 2.11,-1.23 a 8,8 0 0 0 -0.27,-2.86 33.6,33.6 0 0 0 -0.61,-3.54 c -0.41,-2.18 -1,-4.43 -1.57,-6.54 -0.54,-1.7 -1.29,-3.54 -2.86,-4.49 -3.2,-1.84 -7.35,0.14 -9.47,2.65 -3.06,3.61 -3.33,8.45 -3.13,13 a 1,1 0 1 0 1.91,0.07 z"
       id="path29"
       inkscape:connector-curvature="0" />
    <path
       class="cls-5"
       d="m 112.52,179.72 a 9,9 0 0 1 8.58,-5.58 c 3.67,0.27 6.94,3.6 6.6,7.21"
       id="path31"
       inkscape:connector-curvature="0"
       style="fill:#e9676b" />
    <path
       d="m 113.4,180.26 a 8.14,8.14 0 0 1 7.7,-5.1 6.1,6.1 0 0 1 5.58,6.19 c -0.07,1.3 2,1.3 2,0 0.28,-4.08 -3.2,-7.76 -7.21,-8.24 -4.16,-0.47 -8.18,2.39 -9.88,6.06 -0.54,1.23 1.23,2.32 1.77,1.09 z"
       id="path33"
       inkscape:connector-curvature="0" />
    <ellipse
       class="cls-6"
       cx="135.75"
       cy="147"
       rx="9"
       ry="8.25"
       transform="rotate(-80.85,135.74425,146.99874)"
       id="ellipse35"
       style="fill:#ffffff" />
    <path
       d="m 142.81,148 a 8,8 0 0 1 -5.78,6.68 6.81,6.81 0 0 1 -7.5,-3.61 8.57,8.57 0 0 1 0.74,-8.94 7,7 0 0 1 8,-2.59 c 3.37,1.24 5.06,5 4.56,8.46 a 1.17,1.17 0 0 0 0.79,1.39 1.14,1.14 0 0 0 1.38,-0.79 10.25,10.25 0 0 0 -4.51,-10.47 9.06,9.06 0 0 0 -10.88,1.39 10.79,10.79 0 0 0 -2.6,11.35 9.25,9.25 0 0 0 9,6.22 c 4.63,-0.26 8.24,-4 9,-8.49 0.22,-1.4 -1.95,-2.01 -2.2,-0.6 z"
       id="path37"
       inkscape:connector-curvature="0" />
    <ellipse
       class="cls-6"
       cx="112.96"
       cy="144.5"
       rx="9"
       ry="8.25"
       transform="rotate(-80.85,112.95456,144.50128)"
       id="ellipse39"
       style="fill:#ffffff" />
    <path
       d="m 120,145.51 a 8,8 0 0 1 -5.78,6.68 6.81,6.81 0 0 1 -7.5,-3.6 8.59,8.59 0 0 1 0.74,-9 7,7 0 0 1 8,-2.59 c 3.37,1.24 5.07,5 4.56,8.46 a 1.16,1.16 0 0 0 0.79,1.39 1.13,1.13 0 0 0 1.38,-0.79 10.25,10.25 0 0 0 -4.51,-10.47 9.06,9.06 0 0 0 -10.88,1.41 10.83,10.83 0 0 0 -2.6,11.35 9.25,9.25 0 0 0 9,6.22 10,10 0 0 0 9,-8.49 c 0.24,-1.38 -1.93,-1.99 -2.2,-0.57 z"
       id="path41"
       inkscape:connector-curvature="0" />
    <ellipse
       class="cls-7"
       cx="117.53"
       cy="142.38"
       rx="3.1800001"
       ry="4.5500002"
       transform="matrix(0.87,-0.5,0.5,0.87,-55.45,77.84)"
       id="ellipse43"
       style="stroke:#000000;stroke-width:0.75px;stroke-miterlimit:10" />
    <ellipse
       class="cls-7"
       cx="139.82001"
       cy="144.11"
       rx="3.1800001"
       ry="4.5500002"
       transform="matrix(0.87,-0.5,0.5,0.87,-53.32,89.22)"
       id="ellipse45"
       style="stroke:#000000;stroke-width:0.75px;stroke-miterlimit:10" />
    <path
       d="m 164.27,162 c 6.18,-4 10.89,-10.31 14.14,-16.81 a 40.66,40.66 0 0 0 4.8,-21.54 31.8,31.8 0 0 0 -3.5,-12.43 2.44,2.44 0 0 0 -4.22,2.44 c 6.25,12.19 1.62,26.32 -6,36.64 a 30.3,30.3 0 0 1 -7.63,7.48 2.51,2.51 0 0 0 -0.9,3.33 2.4,2.4 0 0 0 3.33,0.89 z"
       id="path47"
       inkscape:connector-curvature="0" />
    <path
       d="m 180.85,113 -1,-7.72 a 2.49,2.49 0 0 0 -2.43,-2.44 2.25,2.25 0 0 0 -1.71,0.73 2.34,2.34 0 0 0 -0.73,1.71 c 0.32,2.6 0.65,5.12 1,7.72 a 2.77,2.77 0 0 0 0.74,1.71 2.71,2.71 0 0 0 1.7,0.73 2.49,2.49 0 0 0 2.44,-2.44 z"
       id="path49"
       inkscape:connector-curvature="0" />
    <path
       d="m 181.57,115.89 a 15.53,15.53 0 0 0 4.71,-13 2.4409066,2.4409066 0 1 0 -4.8,0.89 6.91,6.91 0 0 1 0.06,0.69 c 0,-0.18 0,-0.43 0,-0.61 a 17.11,17.11 0 0 1 -0.1,2.39 1.68,1.68 0 0 1 -0.11,0.51 c -0.08,0.4 0,-0.11 0,-0.18 a 0.45,0.45 0 0 0 0,0.29 7.2,7.2 0 0 1 -0.34,1.16 8.18,8.18 0 0 1 -0.45,1.12 c 0,0.11 -0.07,0.22 -0.14,0.25 -0.15,0.26 0.29,-0.5 0.07,-0.21 -0.11,0.14 -0.18,0.36 -0.29,0.5 a 10.88,10.88 0 0 1 -1.41,2 c 0.11,-0.15 0.3,-0.33 0.41,-0.47 a 6.92,6.92 0 0 1 -0.85,0.86 2.5,2.5 0 0 0 -0.21,3.45 2.41,2.41 0 0 0 3.52,0.37 z"
       id="path51"
       inkscape:connector-curvature="0" />
    <path
       d="m 74.9,154.14 a 37.07,37.07 0 0 1 -0.41,-36 53.1,53.1 0 0 1 3,-4.63 c 1.13,-1.87 2,-4.15 1.22,-6.26 a 2.45,2.45 0 0 0 -4.72,1.3 1.21,1.21 0 0 1 -0.08,1.38 9.86,9.86 0 0 1 -1.38,2.2 35.65,35.65 0 0 0 -2.53,4.15 43.17,43.17 0 0 0 -3.57,9.51 42.46,42.46 0 0 0 0,20.23 37.86,37.86 0 0 0 4.3,10.64 c 1.47,2.6 5.69,0.16 4.15,-2.52 z"
       id="path53"
       inkscape:connector-curvature="0" />
    <path
       d="m 76.12,106.94 c -0.49,-0.17 -0.9,-0.33 -1.3,-0.49 0.16,0.08 0.4,0.16 0.56,0.24 A 9.08,9.08 0 0 1 73,105.23 c 0.16,0.16 0.32,0.24 0.48,0.41 a 12.34,12.34 0 0 1 -2.11,-2 c 0.16,0.17 0.25,0.33 0.41,0.49 a 11.6,11.6 0 0 1 -1.46,-2.44 2.94,2.94 0 0 0 -1.47,-1.13 2.48,2.48 0 0 0 -1.87,0.24 2.61,2.61 0 0 0 -1.13,1.46 c 0,0.25 -0.09,0.41 -0.09,0.65 a 2.31,2.31 0 0 0 0.33,1.22 13.53,13.53 0 0 0 8.69,7.48 2.5,2.5 0 0 0 3,-1.71 2.2,2.2 0 0 0 -1.62,-2.92 z"
       id="path55"
       inkscape:connector-curvature="0" />
    <path
       d="M 79.12,109.13 C 78.8,105.96 78.55,102.87 78.23,99.7 A 2.73,2.73 0 0 0 77.5,98 2.7,2.7 0 0 0 75.79,97.27 c -1.22,0.08 -2.6,1 -2.44,2.43 0.33,3.17 0.57,6.26 0.9,9.43 a 2.7,2.7 0 0 0 0.73,1.71 2.73,2.73 0 0 0 1.7,0.73 2.56,2.56 0 0 0 2.44,-2.44 z"
       id="path57"
       inkscape:connector-curvature="0" />
    <path
       d="m 78.72,112 a 29.65,29.65 0 0 0 7.39,-7.88 2.42,2.42 0 0 0 -0.89,-3.33 2.51,2.51 0 0 0 -3.34,0.89 c -0.4,0.57 -0.81,1.22 -1.21,1.79 0.16,-0.16 0.24,-0.32 0.4,-0.49 a 29.31,29.31 0 0 1 -5,5 c 0.17,-0.16 0.33,-0.24 0.49,-0.4 a 1.1,1.1 0 0 1 -0.32,0.24 2.88,2.88 0 0 0 -1.14,1.46 2.53,2.53 0 0 0 0.24,1.87 2.61,2.61 0 0 0 1.47,1.14 2.65,2.65 0 0 0 2,-0.33 z"
       id="path59"
       inkscape:connector-curvature="0" />
    <path
       d="m 79,164.14 a 5.26,5.26 0 0 0 3.58,-1.47 5.14,5.14 0 0 0 1.7,-3.49 1.83,1.83 0 0 0 -0.24,-1.3 1.56,1.56 0 0 0 -2,-0.57 1.21,1.21 0 0 0 -0.41,1.71 1.19,1.19 0 0 0 1.71,0.4 1.09,1.09 0 0 1 -1.22,-0.16 c -0.16,-0.16 -0.16,-0.24 -0.08,-0.16 0.08,0.08 0,0 -0.08,-0.16 V 159 a 0.27,0.27 0 0 1 -0.09,0.24 c 0,0.16 -0.08,0.25 -0.08,0.41 0,0.16 -0.08,0.08 -0.08,0.16 0.16,-0.32 0.08,-0.16 0,-0.08 -0.08,0.08 -0.16,0.24 -0.24,0.41 -0.08,0.17 -0.16,0.24 -0.25,0.32 0.25,-0.32 0.09,-0.08 0,-0.08 l -0.16,0.16 -0.32,0.33 -0.17,0.16 c -0.16,0.16 0.25,-0.16 0.09,0 a 3.9,3.9 0 0 1 -0.74,0.41 c -0.08,0.08 -0.24,0.08 0.09,0 -0.09,0 -0.09,0.08 -0.17,0.08 -0.08,0 -0.24,0.08 -0.4,0.16 H 79 a 1.25,1.25 0 0 0 -1.22,1.22 1.33,1.33 0 0 0 1.3,1.22 z"
       id="path61"
       inkscape:connector-curvature="0" />
    <path
       d="m 84.57,155.36 a 3.4,3.4 0 0 0 3.16,-5.12 1.24,1.24 0 0 0 -2.11,1.3 0.31,0.31 0 0 1 0.08,0.25 c -0.08,-0.08 -0.08,-0.17 -0.16,-0.33 a 1.53,1.53 0 0 1 0.16,0.57 0.48,0.48 0 0 0 -0.08,-0.32 v 0.56 a 0.48,0.48 0 0 1 0.08,-0.32 1.53,1.53 0 0 1 -0.16,0.57 c 0.08,-0.08 0.08,-0.16 0.16,-0.33 a 1.64,1.64 0 0 1 -0.24,0.41 c 0.08,-0.08 0.16,-0.16 0.16,-0.24 -0.08,0.16 -0.24,0.24 -0.4,0.4 0.08,-0.08 0.16,-0.16 0.24,-0.16 -0.16,0.08 -0.33,0.24 -0.49,0.32 0.08,-0.08 0.16,-0.08 0.33,-0.16 a 1.58,1.58 0 0 1 -0.57,0.16 0.48,0.48 0 0 0 0.32,-0.08 h -0.57 a 1.72,1.72 0 0 0 -0.89,0.33 1,1 0 0 0 -0.32,0.89 1.25,1.25 0 0 0 0.32,0.9 c 0.08,0.08 0.16,0.16 0.24,0.16 a 1.11,1.11 0 0 0 0.74,0.24 z"
       id="path63"
       inkscape:connector-curvature="0" />
    <path
       d="m 88.87,161.37 a 4.93,4.93 0 0 0 2.76,-4.71 1.23,1.23 0 0 0 -0.32,-0.89 1,1 0 0 0 -0.89,-0.33 1.2,1.2 0 0 0 -1.22,1.22 v 0.73 a 0.48,0.48 0 0 1 0.08,-0.32 L 89,158 c 0.09,-0.08 0.09,-0.16 0.17,-0.32 -0.17,0.32 -0.33,0.57 -0.49,0.89 0.08,-0.08 0.16,-0.16 0.16,-0.24 a 2.37,2.37 0 0 1 -0.65,0.65 c 0.08,-0.08 0.16,-0.16 0.25,-0.16 a 3.36,3.36 0 0 1 -0.74,0.4 1.3,1.3 0 0 0 -0.56,0.73 1,1 0 0 0 0.16,1 1.28,1.28 0 0 0 0.73,0.57 1.08,1.08 0 0 0 0.81,-0.17 z"
       id="path65"
       inkscape:connector-curvature="0" />
    <path
       d="m 85.22,170 a 6.74,6.74 0 0 0 3.57,-4.15 1.18,1.18 0 0 0 -0.81,-1.46 1.16,1.16 0 0 0 -1.46,0.81 c -0.09,0.17 -0.17,0.41 -0.25,0.57 0.08,-0.08 0.08,-0.16 0.16,-0.32 a 4.8,4.8 0 0 1 -0.73,1.22 c 0.08,-0.09 0.17,-0.17 0.17,-0.25 a 5.66,5.66 0 0 1 -1,1 c 0.08,-0.08 0.16,-0.17 0.24,-0.17 a 4.83,4.83 0 0 1 -1.13,0.65 1.3,1.3 0 0 0 -0.57,0.74 1.08,1.08 0 0 0 0.16,1 1.31,1.31 0 0 0 0.73,0.57 1.22,1.22 0 0 0 0.9,-0.16 z"
       id="path67"
       inkscape:connector-curvature="0" />
    <path
       d="m 89.52,175.35 c 0.33,-0.24 0.73,-0.41 1.06,-0.65 a 0.61,0.61 0 0 0 0.32,-0.33 1.74,1.74 0 0 0 0.25,-0.4 0.53,0.53 0 0 0 0,-0.49 A 1.11,1.11 0 0 0 91,173 c -0.08,-0.08 -0.16,-0.16 -0.16,-0.24 a 1.39,1.39 0 0 0 -0.57,-0.33 0.48,0.48 0 0 1 -0.32,-0.08 1.7,1.7 0 0 0 -0.65,0.17 c -0.33,0.24 -0.73,0.4 -1.06,0.65 a 0.62,0.62 0 0 0 -0.32,0.32 1.63,1.63 0 0 0 -0.25,0.41 0.51,0.51 0 0 0 0,0.48 1,1 0 0 0 0.17,0.49 c 0.08,0.08 0.16,0.16 0.16,0.25 a 1.27,1.27 0 0 0 0.57,0.32 0.48,0.48 0 0 1 0.32,0.08 1,1 0 0 0 0.65,-0.16 z"
       id="path69"
       inkscape:connector-curvature="0" />
    <path
       d="m 152.65,180.87 a 7.74,7.74 0 0 0 2.85,-5.68 1.22,1.22 0 1 0 -2.44,0 v 0.48 c 0,0.17 0.08,-0.24 0,-0.08 a 1.88,1.88 0 0 1 -0.16,0.65 c -0.08,0.25 -0.16,0.41 -0.25,0.65 0,0.08 0,0.08 -0.08,0.17 -0.08,0.09 0.08,-0.25 0,-0.09 -0.08,0.16 -0.08,0.25 -0.16,0.33 -0.08,0.08 -0.24,0.41 -0.32,0.57 -0.08,0.16 -0.17,0.16 -0.17,0.24 v 0 l -0.08,0.08 -1,1 a 1.09,1.09 0 0 0 -0.33,0.89 1.67,1.67 0 0 0 0.33,0.9 1,1 0 0 0 0.89,0.32 2,2 0 0 0 0.89,-0.41 z"
       id="path71"
       inkscape:connector-curvature="0" />
    <path
       d="m 161.51,174.86 a 11.21,11.21 0 0 0 0.16,-3.74 1.23,1.23 0 0 0 -0.32,-0.89 1,1 0 0 0 -0.89,-0.32 1.25,1.25 0 0 0 -0.9,0.32 1,1 0 0 0 -0.32,0.89 10.72,10.72 0 0 1 -0.08,2.77 0.51,0.51 0 0 1 0.08,-0.33 c 0,0.25 -0.08,0.41 -0.08,0.65 a 1,1 0 0 0 0.16,1 1.32,1.32 0 0 0 0.73,0.57 1.05,1.05 0 0 0 1,-0.17 0.91,0.91 0 0 0 0.49,-0.73 z"
       id="path73"
       inkscape:connector-curvature="0" />
    <path
       d="m 156.8,168.85 c 0.08,-0.41 0.16,-0.89 0.24,-1.3 a 0.53,0.53 0 0 0 0,-0.49 1.22,1.22 0 0 0 -0.16,-0.49 0.62,0.62 0 0 0 -0.32,-0.32 2.11,2.11 0 0 0 -0.41,-0.24 0.48,0.48 0 0 1 -0.33,-0.09 2,2 0 0 0 -0.65,0.17 c -0.08,0.08 -0.16,0.16 -0.24,0.16 a 1.39,1.39 0 0 0 -0.33,0.57 c -0.08,0.4 -0.16,0.89 -0.24,1.3 a 0.53,0.53 0 0 0 0,0.49 1.14,1.14 0 0 0 0.16,0.48 0.63,0.63 0 0 0 0.33,0.33 1.64,1.64 0 0 0 0.41,0.24 0.48,0.48 0 0 1 0.32,0.08 1.94,1.94 0 0 0 0.65,-0.16 c 0.08,-0.08 0.16,-0.16 0.24,-0.16 a 1.25,1.25 0 0 0 0.33,-0.57 z"
       id="path75"
       inkscape:connector-curvature="0" />
    <path
       class="cls-6"
       d="m 95.21,182.91 c 3.9,5.85 10.89,7.63 17.31,9.1 1.54,0.32 2.19,-2 0.65,-2.36 -5.77,-1.3 -12.35,-2.76 -15.85,-8 -0.89,-1.3 -3,-0.08 -2.11,1.22 z"
       id="path77"
       inkscape:connector-curvature="0"
       style="fill:#ffffff" />
    <path
       class="cls-6"
       d="m 125.52,132.37 c 0.08,0.08 0.16,0.24 0.24,0.32 v 0 l 0.24,0.25 c 0,0 0.09,0 0.09,0.08 a 0.61,0.61 0 0 0 0.4,0.16 1.4,1.4 0 0 0 0.81,0 h 0.09 a 0.61,0.61 0 0 0 0.32,-0.16 1,1 0 0 0 0.49,-0.49 c 0.08,-0.08 0.08,-0.24 0.16,-0.41 V 132 a 3.46,3.46 0 0 0 0.08,-0.4 v -0.09 a 2.46,2.46 0 0 0 -0.16,-0.73 1.33,1.33 0 0 0 -0.49,-0.48 1.38,1.38 0 0 0 -0.65,-0.17 1.79,1.79 0 0 0 -0.65,0.17 c -0.08,0.08 -0.24,0.16 -0.32,0.24 a 1,1 0 0 0 -0.33,0.57 0.6,0.6 0 0 0 -0.08,0.4 1.39,1.39 0 0 0 1.3,1.3 1.06,1.06 0 0 0 0.49,-0.08 c 0.16,-0.08 0.24,-0.16 0.4,-0.24 a 1.38,1.38 0 0 0 0.25,-0.41 1,1 0 0 0 0.08,-0.48 0.49,0.49 0 0 0 -0.08,-0.33 1.25,1.25 0 0 0 -0.33,-0.57 c -0.08,-0.08 -0.16,-0.16 -0.24,-0.16 a 1.55,1.55 0 0 0 -0.65,-0.16 v 0 a 0.48,0.48 0 0 1 0.32,0.08 v 0 c 0.09,0.08 0.17,0.08 0.33,0.16 v 0 c 0.08,0.08 0.16,0.16 0.24,0.16 v 0 c 0.08,0.08 0.17,0.17 0.17,0.25 v 0 c 0.08,0.08 0.08,0.16 0.16,0.32 v 0 a 0.51,0.51 0 0 0 0.08,0.33 v 0 A 0.48,0.48 0 0 1 128.2,132 v 0 c -0.08,0.08 -0.08,0.16 -0.16,0.33 v -0.08 c -0.09,0.08 -0.17,0.16 -0.17,0.24 v 0 c -0.08,0.08 -0.16,0.16 -0.24,0.16 v 0 c -0.08,0.08 -0.16,0.08 -0.33,0.16 v 0 a 0.44,0.44 0 0 0 -0.32,0.09 v 0 a 0.48,0.48 0 0 1 -0.33,-0.09 v 0 c -0.08,-0.08 -0.16,-0.08 -0.32,-0.16 v 0 c -0.08,-0.08 -0.16,-0.16 -0.24,-0.16 v 0 c -0.09,-0.08 -0.17,-0.16 -0.17,-0.24 v 0.08 c -0.08,-0.08 -0.08,-0.17 -0.16,-0.33 v 0.08 a 0.48,0.48 0 0 0 -0.08,-0.32 v 0.08 a 0.52,0.52 0 0 1 0.08,-0.33 v 0.17 c 0.08,-0.08 0.08,-0.17 0.16,-0.33 a 0.08,0.08 0 0 1 -0.08,0.08 l 0.41,-0.4 h -0.08 c 0.08,-0.08 0.16,-0.08 0.32,-0.17 h -0.08 a 0.52,0.52 0 0 0 0.33,-0.08 h -0.09 a 0.49,0.49 0 0 1 0.33,0.08 h -0.08 c 0.08,0.09 0.16,0.09 0.32,0.17 a 0.08,0.08 0 0 1 -0.08,-0.08 c 0.08,0.08 0.16,0.16 0.25,0.16 l -0.09,-0.08 c 0.09,0.08 0.17,0.16 0.17,0.24 v -0.08 a 0.7,0.7 0 0 0 -0.33,-0.33 1.75,1.75 0 0 0 -0.4,-0.24 0.53,0.53 0 0 0 -0.49,0 1.18,1.18 0 0 0 -0.49,0.16 c -0.08,0.08 -0.16,0.17 -0.24,0.17 a 1.21,1.21 0 0 0 -0.33,0.56 0.49,0.49 0 0 1 -0.08,0.33 c 0.24,0.08 0.24,0.32 0.41,0.49 z"
       id="path79"
       inkscape:connector-curvature="0"
       style="fill:#ffffff" />
    <path
       class="cls-6"
       d="m 133,133.83 a 15.53,15.53 0 0 1 9.9,4.17 c 1.14,1.06 2.85,-0.65 1.71,-1.7 A 17.83,17.83 0 0 0 133,131.39 c -1.54,-0.08 -1.54,2.36 0,2.44 z"
       id="path81"
       inkscape:connector-curvature="0"
       style="fill:#ffffff" />
    <path
       class="cls-6"
       d="m 164.68,167.47 c 2,0.65 4.06,1.3 6,1.95 a 1.25,1.25 0 0 0 1.47,-0.81 1.18,1.18 0 0 0 -0.82,-1.47 c -2,-0.65 -4.06,-1.3 -6,-1.95 a 1.19,1.19 0 0 0 -0.65,2.28 z"
       id="path83"
       inkscape:connector-curvature="0"
       style="fill:#ffffff" />
    <path
       class="cls-6"
       d="m 70.35,160.4 v 0 c 0,0.08 0.08,0.16 0.08,0.24 -0.08,-0.24 -0.16,-0.57 -0.25,-0.81 a 0.48,0.48 0 0 0 0.09,0.33 1.81,1.81 0 0 1 0,-1 0.48,0.48 0 0 1 -0.09,0.33 c 0.09,-0.33 0.17,-0.57 0.25,-0.9 -0.08,0.08 -0.08,0.16 -0.16,0.33 0.08,-0.17 0.16,-0.25 0.24,-0.41 a 1.24,1.24 0 1 0 -2.11,-1.3 4.87,4.87 0 0 0 -0.65,2.19 5.42,5.42 0 0 0 0.08,1.14 c 0.08,0.41 0.24,0.73 0.32,1.14 a 1.31,1.31 0 0 0 0.73,0.57 1.1,1.1 0 0 0 1,-0.16 1.34,1.34 0 0 0 0.57,-0.74 0.48,0.48 0 0 1 0.08,-0.32 0.89,0.89 0 0 0 -0.16,-0.65 z"
       id="path85"
       inkscape:connector-curvature="0"
       style="fill:#ffffff" />
    <path
       class="cls-6"
       d="m 118.29,190.38 a 6.13,6.13 0 0 1 1,0.57 18.39,18.39 0 0 1 0.33,-2.19 c -0.17,0 -0.41,0.08 -0.57,0.08 0.48,0.16 0.89,0.4 1.38,0.57 -0.08,-0.08 -0.08,-0.17 -0.16,-0.25 0.08,0.08 0.08,0.17 0.16,0.33 0,-0.08 -0.08,-0.16 -0.08,-0.33 a 0.51,0.51 0 0 0 0.08,0.33 v -0.33 a 1,1 0 0 0 -0.08,-0.48 c -0.08,-0.17 -0.17,-0.25 -0.25,-0.41 a 1.75,1.75 0 0 0 -0.4,-0.24 1,1 0 0 0 -0.49,-0.09 0.48,0.48 0 0 0 -0.33,0.09 1.29,1.29 0 0 0 -0.56,0.32 c -0.09,0.08 -0.17,0.16 -0.17,0.24 a 1.6,1.6 0 0 0 -0.16,0.65 v 0.25 a 1.08,1.08 0 0 0 0.08,0.49 c 0.08,0.16 0.08,0.32 0.16,0.48 a 0.31,0.31 0 0 0 0.09,0.17 c 0.08,0.08 0.16,0.16 0.16,0.24 a 1.75,1.75 0 0 0 0.4,0.24 c 0.09,0.08 0.17,0.08 0.33,0.08 h 0.49 c 0.16,0 0.4,-0.08 0.57,-0.08 0.17,0 0.16,-0.08 0.32,-0.16 0.16,-0.08 0.16,-0.16 0.24,-0.16 0.08,0 0.17,-0.16 0.17,-0.25 a 1.14,1.14 0 0 0 0.16,-0.48 v -0.33 a 0.48,0.48 0 0 0 -0.08,-0.32 c 0,-0.08 -0.08,-0.17 -0.16,-0.25 a 0.68,0.68 0 0 0 -0.33,-0.32 6.13,6.13 0 0 1 -1,-0.57 1.22,1.22 0 0 0 -0.49,-0.16 h -0.49 a 0.47,0.47 0 0 0 -0.41,0.24 0.61,0.61 0 0 0 -0.32,0.33 c -0.08,0.08 -0.08,0.16 -0.16,0.32 a 0.91,0.91 0 0 0 0,0.65 c 0.08,0.08 0.08,0.16 0.16,0.33 0.08,0.17 0.16,0.32 0.41,0.4 z"
       id="path87"
       inkscape:connector-curvature="0"
       style="fill:#ffffff" />
    <path
       class="cls-8"
       d="m 169.15,182.9 a 0.65,0.65 0 0 0 -0.77,-0.24 8,8 0 0 1 -4,0.64 c -4.56,-0.52 -8.54,-5.66 -14.57,-13.44 l -1.64,-2.12 a 15.24,15.24 0 0 0 -10.62,-6 c -7.47,-0.85 -14.53,3.06 -14.83,3.22 a 0.63,0.63 0 0 0 -0.3,0.71 0.62,0.62 0 0 0 0.59,0.48 c 4.41,0.18 6.47,2.91 12,10.23 1.1,1.46 2.33,3.09 3.74,4.92 4,5.23 8.64,8.17 13.66,8.74 9.15,1.05 16.37,-6.07 16.67,-6.37 a 0.62,0.62 0 0 0 0.07,-0.77 z"
       id="path89"
       inkscape:connector-curvature="0"
       style="fill:#1d1d1b" />
    <path
       d="m 170.21,181.84 c -1,-0.94 -1.87,-0.69 -3.06,-0.32 a 6.07,6.07 0 0 1 -3.27,0.17 10,10 0 0 1 -4,-2.36 c -3.49,-3.1 -6.27,-7 -9.12,-10.71 -2.36,-3.05 -4.8,-5.72 -8.48,-7.21 -4.66,-1.89 -10,-1.46 -14.71,0 -1.72,0.53 -8.34,2.23 -6.3,5.3 0.87,1.32 2.88,0.92 4.21,1.53 a 11.34,11.34 0 0 1 3.56,3 c 6.42,7.23 11.09,17.84 21.45,20.06 a 20.55,20.55 0 0 0 14.34,-2.58 28.16,28.16 0 0 0 4.22,-2.94 c 1,-0.84 2.11,-1.78 1.57,-3.25 -0.67,-1.79 -3.57,-1 -2.9,0.8 -0.44,-1.2 0.57,-0.7 0.19,-0.54 -0.09,0 -0.21,0.2 -0.29,0.26 -0.31,0.29 -0.63,0.56 -1,0.83 a 25.27,25.27 0 0 1 -3.47,2.32 17.53,17.53 0 0 1 -11.15,2.3 c -4.32,-0.7 -7.91,-3.33 -10.75,-6.54 -3.24,-3.66 -5.9,-7.83 -9,-11.62 -1.87,-2.28 -4,-4.61 -7,-5.36 a 9.83,9.83 0 0 0 -1.06,-0.19 c -0.79,-0.11 -0.93,-0.34 -0.76,0.7 0.17,1.04 0.18,0.74 0.93,0.37 a 27.69,27.69 0 0 1 4.19,-1.62 c 4.26,-1.28 9.11,-1.71 13.26,0.2 3,1.4 4.95,3.85 6.92,6.4 2.88,3.71 5.69,7.72 9.28,10.81 a 13.86,13.86 0 0 0 4.56,2.77 8.37,8.37 0 0 0 2.63,0.42 8.75,8.75 0 0 0 2,-0.22 7.4,7.4 0 0 0 0.81,-0.21 l 0.42,-0.14 c 0.65,-0.16 0.56,-0.26 -0.27,-0.31 1.34,1.32 3.46,-0.8 2.05,-2.12 z"
       id="path91"
       inkscape:connector-curvature="0" />
    <path
       class="cls-8"
       d="m 72.42,172 a 0.63,0.63 0 0 1 0.8,-0.06 8.1,8.1 0 0 0 3.78,1.5 c 4.57,0.52 9.6,-3.59 17.23,-9.82 l 2.07,-1.69 A 15.24,15.24 0 0 1 108,158.5 c 7.48,0.85 13.47,6.25 13.72,6.48 a 0.63,0.63 0 0 1 -0.54,1.1 c -4.34,-0.83 -7,1.37 -14,7.26 -1.4,1.17 -3,2.49 -4.75,3.95 -5.11,4.19 -10.25,6 -15.28,5.45 -9.15,-1.05 -14.58,-9.6 -14.81,-10 A 0.64,0.64 0 0 1 72.42,172 Z"
       id="path93"
       inkscape:connector-curvature="0"
       style="fill:#1d1d1b" />
    <path
       d="m 73.17,173.27 c -0.56,0.33 -0.25,0.17 0,0.43 a 4.08,4.08 0 0 0 0.75,0.39 9.74,9.74 0 0 0 1.66,0.62 8.85,8.85 0 0 0 2.61,0.26 13,13 0 0 0 4.55,-1.28 c 3.77,-1.77 7,-4.61 10.26,-7.21 2.65,-2.14 5.26,-4.75 8.56,-5.86 4.27,-1.45 8.88,-0.55 12.84,1.39 a 29.31,29.31 0 0 1 4.5,2.7 c 0.38,0.27 0.76,0.56 1.13,0.86 a 1.87,1.87 0 0 0 0.34,0.29 c 0,0 0.07,0.08 0.11,0.1 v 0 q 0.62,0.57 0.72,-1.41 a 4.71,4.71 0 0 0 -2,-0.18 8.72,8.72 0 0 0 -2.1,0.29 12.89,12.89 0 0 0 -3.89,1.85 c -3.88,2.55 -7.31,5.81 -10.88,8.76 -3.76,3.1 -8,5.88 -13.07,6 a 17,17 0 0 1 -11.55,-4.52 26.63,26.63 0 0 1 -3.12,-3.25 c -0.24,-0.31 -0.47,-0.61 -0.75,-1 a 1.78,1.78 0 0 0 -0.25,-0.36 c -0.35,-0.28 0.6,-0.38 0,0.54 1.07,-1.61 -1.53,-3.12 -2.59,-1.51 -1.33,2 1.57,4.67 2.83,6 a 23,23 0 0 0 9.68,6.3 18.93,18.93 0 0 0 14.15,-1.41 c 5.13,-2.53 9.31,-6.85 13.7,-10.43 2.45,-2 5.34,-4.59 8.73,-4.24 a 2.81,2.81 0 0 0 2.5,-0.43 2.19,2.19 0 0 0 0,-3.09 15.29,15.29 0 0 0 -2.19,-1.73 26.86,26.86 0 0 0 -12,-5.11 17.34,17.34 0 0 0 -13.4,3.97 120.63,120.63 0 0 1 -11.22,8.67 13.64,13.64 0 0 1 -5.23,2.26 5.93,5.93 0 0 1 -3.11,-0.44 c -1.35,-0.59 -2.29,-1.7 -3.81,-0.82 a 1.5109269,1.5109269 0 0 0 1.54,2.6 z"
       id="path95"
       inkscape:connector-curvature="0" />
    <path
       class="cls-9"
       d="M 162.27,103 A 17.09,17.09 0 0 0 142.51,76.58 17.09,17.09 0 0 0 113.38,75 17.08,17.08 0 0 0 92,99.9 l 10.61,16.3 c 0.1,0.16 0.21,0.32 0.32,0.47 a 9.46,9.46 0 0 0 7.31,14.92 l 31.1,1.35 a 9.45,9.45 0 0 0 9.86,-9 9.36,9.36 0 0 0 -1.29,-5.19 c 0.12,-0.13 0.23,-0.27 0.34,-0.41 z"
       id="path97"
       inkscape:connector-curvature="0"
       style="fill:#f1f1f1" />
    <path
       d="M 163.57,103.75 A 18.57,18.57 0 0 0 142.11,75.12 l 1.7,0.69 a 18.59,18.59 0 0 0 -31.72,-1.56 l 2,-0.54 A 18.59,18.59 0 0 0 87.78,89.64 c -0.44,7.83 5,14.13 9,20.31 1.62,2.49 3.17,5 4.88,7.48 v -1.51 c -4.39,6.46 -0.66,15.76 7.17,17 a 73.68,73.68 0 0 0 8.66,0.47 c 7.94,0.35 15.88,0.8 23.83,1 A 11,11 0 0 0 151.23,118 l -0.24,1.81 c 4.28,-5.09 8.24,-10.48 12.35,-15.72 1.17,-1.5 -0.93,-3.64 -2.13,-2.12 -4.1,5.24 -8.06,10.63 -12.34,15.72 a 1.56,1.56 0 0 0 -0.23,1.82 8,8 0 0 1 -7.37,12 c -2.64,-0.08 -5.27,-0.23 -7.9,-0.35 -7.56,-0.33 -15.12,-0.64 -22.68,-1 a 8.05,8.05 0 0 1 -6.44,-12.68 1.46,1.46 0 0 0 0,-1.51 C 101,111.27 98,106.4 95,101.65 93.45,99.27 91.89,96.99 91.22,94.17 a 15.59,15.59 0 0 1 21.41,-17.87 1.55,1.55 0 0 0 2.05,-0.54 15.6,15.6 0 0 1 26.54,1.56 1.49,1.49 0 0 0 1.69,0.69 15.61,15.61 0 0 1 18.09,24.23 c -1.2,1.53 1.41,3.02 2.57,1.51 z"
       id="path99"
       inkscape:connector-curvature="0" />
    <path
       class="cls-6"
       d="m 115.42,111.19 a 4.72,4.72 0 0 1 -4.93,4.52 v 0 a 4.73,4.73 0 0 1 -4.52,-4.93 l 0.42,-9.54 a 4.73,4.73 0 0 1 4.93,-4.52 v 0 a 4.74,4.74 0 0 1 4.52,4.93 z"
       id="path101"
       inkscape:connector-curvature="0"
       style="fill:#ffffff" />
    <path
       d="m 113.92,111.19 a 3.26,3.26 0 0 1 -3.69,3 3.3,3.3 0 0 1 -2.76,-3.42 c 0,-2.25 0.2,-4.52 0.3,-6.77 0,-0.91 0,-1.81 0.12,-2.72 a 3.23,3.23 0 0 1 6.44,-0.25 13.87,13.87 0 0 1 -0.07,2.41 l -0.34,7.75 c -0.08,1.93 2.92,1.93 3,0 l 0.36,-8.19 a 8.71,8.71 0 0 0 -0.53,-4.19 6.23,6.23 0 0 0 -11.75,1.39 25,25 0 0 0 -0.23,3.46 l -0.22,5.18 a 12,12 0 0 0 0.14,3.84 6.23,6.23 0 0 0 12.22,-1.49 c 0.15,-1.93 -2.85,-1.92 -2.99,0 z"
       id="path103"
       inkscape:connector-curvature="0" />
    <path
       class="cls-6"
       d="m 131.26,111.88 a 4.74,4.74 0 0 1 -4.94,4.52 v 0 a 4.73,4.73 0 0 1 -4.52,-4.93 l 0.42,-9.54 a 4.73,4.73 0 0 1 4.93,-4.52 v 0 a 4.73,4.73 0 0 1 4.52,4.93 z"
       id="path105"
       inkscape:connector-curvature="0"
       style="fill:#ffffff" />
    <path
       d="m 129.76,111.88 a 3.24,3.24 0 1 1 -6.46,-0.42 c 0,-2.25 0.2,-4.52 0.3,-6.77 0,-0.91 0.05,-1.81 0.12,-2.72 a 3.23,3.23 0 0 1 6.44,-0.25 13.87,13.87 0 0 1 -0.07,2.41 l -0.33,7.75 c -0.09,1.93 2.91,1.93 3,0 l 0.35,-8.19 a 8.47,8.47 0 0 0 -0.53,-4.19 6.22,6.22 0 0 0 -11.73,1.39 23.58,23.58 0 0 0 -0.24,3.46 l -0.22,5.18 a 12,12 0 0 0 0.14,3.84 6.24,6.24 0 0 0 12.23,-1.49 c 0.13,-1.88 -2.87,-1.88 -3,0 z"
       id="path107"
       inkscape:connector-curvature="0" />
    <path
       class="cls-6"
       d="m 147.09,112.57 a 4.73,4.73 0 0 1 -4.93,4.52 v 0 a 4.72,4.72 0 0 1 -4.52,-4.93 l 0.41,-9.54 A 4.74,4.74 0 0 1 143,98.1 v 0 a 4.73,4.73 0 0 1 4.5,4.9 z"
       id="path109"
       inkscape:connector-curvature="0"
       style="fill:#ffffff" />
    <path
       d="m 145.59,112.57 a 3.23183,3.23183 0 1 1 -6.45,-0.42 c 0,-2.25 0.19,-4.52 0.29,-6.77 0,-0.91 0,-1.81 0.12,-2.72 a 3.23,3.23 0 0 1 6.44,-0.25 14.78,14.78 0 0 1 -0.06,2.4 l -0.34,7.76 c -0.09,1.93 2.91,1.93 3,0 l 0.36,-8.19 a 8.71,8.71 0 0 0 -0.53,-4.19 6.23,6.23 0 0 0 -11.74,1.39 23.57,23.57 0 0 0 -0.23,3.46 l -0.23,5.18 a 11.76,11.76 0 0 0 0.15,3.84 6.23,6.23 0 0 0 12.22,-1.49 c 0.13,-1.93 -2.87,-1.92 -3,0 z"
       id="path111"
       inkscape:connector-curvature="0" />
    <path
       class="cls-5"
       d="m 152.75,117.05 a 2.57,2.57 0 0 1 -2.67,2.44 l -47.73,-2.08 a 2.55,2.55 0 0 1 -2.44,-2.66 v 0 a 2.56,2.56 0 0 1 2.66,-2.44 l 47.74,2.08 a 2.55,2.55 0 0 1 2.44,2.66 z"
       id="path113"
       inkscape:connector-curvature="0"
       style="fill:#e9676b" />
    <path
       d="m 151.25,117.05 c -0.13,1.1 -1.26,0.94 -2,0.9 l -3.33,-0.14 -11.69,-0.51 -26.53,-1.16 a 34.79,34.79 0 0 1 -5.31,-0.23 1.06,1.06 0 0 1 0.23,-2.1 3,3 0 0 1 0.42,0 c 0.91,0 1.82,0.08 2.73,0.12 l 25.3,1.1 12.69,0.55 a 63.2,63.2 0 0 1 6.46,0.29 1.1,1.1 0 0 1 1.07,1.16 c 0,1.93 3,1.94 3,0 a 4.2,4.2 0 0 0 -4.25,-4.17 c -0.95,-0.06 -1.9,-0.09 -2.85,-0.13 l -12,-0.52 -28.33,-1.21 c -2.35,-0.11 -5.64,-0.81 -7.41,1.15 -2.38,2.65 -0.35,6.52 3,6.76 0.71,0 1.41,0.06 2.12,0.09 l 26.65,1.17 13.44,0.58 4.1,0.18 a 9.66,9.66 0 0 0 2.28,0 4.15,4.15 0 0 0 3.25,-3.85 c 0.17,-1.94 -2.83,-1.93 -3.04,-0.03 z"
       id="path115"
       inkscape:connector-curvature="0" />
    <path
       class="cls-10"
       d="m 146.79,93.51 c -3.3,-0.5 -6.5,1.22 -9.82,1.59 -4.86,0.56 -9.58,-1.79 -13.54,-4.66 -2.55,-1.84 -5.1,-4.27 -5.34,-7.4 a 7.38,7.38 0 0 1 3.75,-6.63 11.56,11.56 0 0 1 7.76,-1.2 21,21 0 0 1 10.08,5 42.58,42.58 0 0 1 7.68,8.19 c 12.63,4.29 41,17.52 42.08,19.24 a 2.75,2.75 0 0 1 -1.33,4.27 c -1.28,0.45 -39.85,-18.17 -41.32,-18.4 z"
       id="path117"
       inkscape:connector-curvature="0"
       style="fill:#ffda83" />
    <path
       d="M 146.79,92.39 C 142.4,91.84 138.4,94.5 134,94 c -4.22,-0.5 -8.42,-3 -11.57,-5.75 a 8.79,8.79 0 0 1 -3.15,-4.74 5.86,5.86 0 0 1 1.91,-5.17 c 3.23,-3.09 8.5,-2.45 12.26,-0.8 3.76,1.65 7.14,4.67 10,7.74 0.71,0.77 1.39,1.57 2,2.4 0.61,0.83 0.94,1.54 1.82,1.87 1.1,0.4 2.22,0.78 3.32,1.2 5.61,2.11 11.12,4.48 16.59,6.92 5.22,2.33 10.42,4.74 15.53,7.32 1.61,0.82 3.22,1.64 4.77,2.57 l 0.7,0.45 a 1.44,1.44 0 0 1 0.25,0.18 c 0.16,0.11 -0.15,-0.15 0.05,0 a 1.66,1.66 0 0 1 0.13,0.14 c -0.27,-0.41 0.18,0.51 0.21,0.7 a 1.48,1.48 0 0 1 -0.16,1 4.83,4.83 0 0 1 -0.86,0.71 c 0,-0.19 0.69,0.17 0.28,0 a 3.33,3.33 0 0 0 -0.45,-0.13 c -0.47,-0.15 -0.92,-0.33 -1.38,-0.51 -1.44,-0.56 -2.85,-1.18 -4.26,-1.8 -4.27,-1.88 -8.5,-3.83 -12.73,-5.78 L 156,96.39 c -2.75,-1.27 -5.49,-2.63 -8.31,-3.74 a 3.52,3.52 0 0 0 -0.62,-0.22 c -1.42,-0.26 -2,1.9 -0.6,2.17 a 4.72,4.72 0 0 1 1.14,0.43 l 2.79,1.25 c 2.87,1.3 5.73,2.63 8.59,4 6.83,3.18 13.66,6.38 20.55,9.45 2.25,1 4.5,2 6.8,2.87 A 4.65,4.65 0 0 0 188,113 c 2.08,0 3.35,-2.6 3,-4.41 -0.46,-2.4 -2.92,-3.33 -4.86,-4.36 -3.44,-1.84 -7,-3.52 -10.51,-5.17 a 278.89,278.89 0 0 0 -28,-11.78 l 0.67,0.51 A 40.2,40.2 0 0 0 137.18,77 c -4.2,-2.61 -9.74,-4.14 -14.52,-2.2 -4.3,1.74 -7,6.54 -5,11 a 14.14,14.14 0 0 0 4.59,5.2 30.77,30.77 0 0 0 6.75,3.9 16.35,16.35 0 0 0 8.59,1.25 c 3.11,-0.44 6,-1.91 9.24,-1.51 1.39,0.18 1.38,-2.08 -0.04,-2.25 z"
       id="path119"
       inkscape:connector-curvature="0" />
    <path
       d="m 141.09,91.57 a 3,3 0 0 0 1.65,-3.28 7.32,7.32 0 0 0 -1.5,-2.9 23.66,23.66 0 0 0 -7.66,-6.62 c -0.85,-0.46 -1.61,0.83 -0.76,1.29 a 22.44,22.44 0 0 1 6.65,5.49 10.26,10.26 0 0 1 1.62,2.45 1.63,1.63 0 0 1 -0.75,2.29 0.75,0.75 0 0 0 0.75,1.29 z"
       id="path121"
       inkscape:connector-curvature="0" />
    <path
       d="m 177.86,109.44 -0.63,-0.37 -0.31,-0.18 c -0.31,-0.18 0.58,0.44 0.16,0.09 a 8.65,8.65 0 0 1 -1.08,-1 c -0.2,-0.21 -0.31,-0.37 -0.5,-0.58 -0.08,0 -0.39,-0.41 -0.08,0 0.31,0.41 0,0 -0.08,0 a 5.75,5.75 0 0 1 -0.75,-1.21 2.48,2.48 0 0 1 -0.34,-0.67 c 0,-0.12 -0.12,-0.17 -0.15,-0.28 0.33,0.67 0.15,0.28 0,0.11 a 4.85,4.85 0 0 1 -0.39,-1.28 2,2 0 0 1 -0.14,-0.66 c 0,-0.3 0.06,0.61 0,0.19 a 0.41,0.41 0 0 1 0,-0.3 l -0.08,-1.48 a 2.93,2.93 0 0 0 -2.73,-2.66 2.46,2.46 0 0 0 -2.57,2.4 14.08,14.08 0 0 0 7.06,12.08 2.61,2.61 0 0 0 3.59,-0.75 2.49,2.49 0 0 0 -1,-3.34 z"
       id="path123"
       inkscape:connector-curvature="0" />
  </g>
</svg>
