<?xml version="1.0" encoding="utf-8"?>
<!-- Generator: Adobe Illustrator 24.2.0, SVG Export Plug-In . SVG Version: 6.00 Build 0)  -->
<svg version="1.1" id="Layer_1" xmlns="http://www.w3.org/2000/svg" xmlns:xlink="http://www.w3.org/1999/xlink" x="0px" y="0px"
	 viewBox="0 0 112 102" style="enable-background:new 0 0 112 102;" xml:space="preserve">
<style type="text/css">
	.st0{fill:#F7C402;}
	.st1{fill:#FFDA83;}
	.st2{fill:#F9DEA7;}
	.st3{fill:#4386C6;}
	.st4{fill:#7DC4CA;}
	.st5{fill:#FFFFFF;}
	.st6{fill:#E1262F;}
	.st7{fill:#E76969;}
</style>
<g id="_9._binario">
	<path class="st0" d="M74.2,2.5H37.8c-6.1,0-11.7,3.2-14.7,8.5L4.9,42.5c-3,5.2-3,11.7,0,17L23.1,91c3,5.3,8.6,8.5,14.7,8.5h36.4
		c6.1,0,11.7-3.2,14.7-8.5l18.2-31.5c3-5.2,3-11.7,0-17L88.9,11C85.9,5.7,80.3,2.5,74.2,2.5z"/>
	<path d="M74.2,1.7H38.9c-2.4-0.1-4.7,0.3-7,1c-4,1.4-7.4,4.2-9.5,7.9c-0.6,1.1-1.3,2.2-1.9,3.3l-8.8,15.2L4.6,41.5
		C3,44.2,2,47.3,1.9,50.5c-0.1,3.4,0.8,6.8,2.6,9.8l6.9,12l8.9,15.4c0.7,1.2,1.4,2.4,2.1,3.6c2,3.4,5,6.1,8.6,7.6
		c4.2,1.8,8.9,1.4,13.4,1.4h18.5c3.8,0,7.5,0,11.3,0c4.5,0,8.9-1.7,12.2-4.8c1.5-1.5,2.8-3.3,3.9-5.2l7.7-13.3l8.5-14.7
		c0.6-1.1,1.3-2.2,1.9-3.3c2.4-4.9,2.5-10.6,0.2-15.5c-0.6-1.2-1.3-2.4-2-3.5l-3.7-6.3l-9.3-16.2l-3.2-5.5c-1-1.8-2.2-3.5-3.6-5
		C83.4,3.6,78.9,1.8,74.2,1.7c-0.4,0-0.7,0.3-0.7,0.7s0.3,0.7,0.7,0.7c4.8,0,9.3,2.1,12.4,5.7c1,1.3,1.9,2.6,2.6,4.1l8,13.8l8.1,14
		c0.8,1.2,1.5,2.5,2.1,3.9c1.9,4.7,1.6,10-0.9,14.4c-1.8,3.2-3.7,6.3-5.5,9.5l-9.1,15.8l-3,5.2c-1.1,2-2.5,3.8-4.1,5.3
		c-3,2.5-6.7,3.9-10.6,3.8H38.5c-2.7,0.1-5.4-0.5-7.8-1.6c-3-1.5-5.5-3.9-7.1-6.8l-6.4-11.2l-9-15.5l-2.4-4.2
		c-1.8-3.1-2.6-6.7-2.3-10.3c0.5-4.5,3.3-8.5,5.5-12.3L18.1,21c1.9-3.2,3.7-6.5,5.6-9.7c2.2-3.8,5.8-6.5,10-7.6
		c1.9-0.4,3.8-0.6,5.7-0.5h34.9c0.4,0,0.7-0.3,0.7-0.7C75,2.1,74.6,1.7,74.2,1.7z"/>
	<circle class="st1" cx="56" cy="51" r="42.6"/>
	<path d="M97.9,51c0,23-18.7,41.6-41.7,41.6c-23,0-41.6-18.7-41.6-41.7c0-23,18.7-41.6,41.7-41.6c20.5,0,37.9,15,41.1,35.2
		C97.7,46.7,97.9,48.8,97.9,51c0,0.4,0.3,0.7,0.7,0.7c0.4,0,0.7-0.3,0.7-0.7C99.3,27.1,79.8,7.7,55.9,7.8
		C32,7.9,12.6,27.4,12.7,51.3c0.1,23.9,19.5,43.3,43.5,43.2c21.4-0.1,39.5-15.7,42.7-36.8c0.3-2.2,0.5-4.4,0.5-6.6
		c0-0.4-0.3-0.7-0.7-0.7C98.2,50.2,97.9,50.6,97.9,51z"/>
	<circle class="st2" cx="56" cy="51" r="36.8"/>
	<path d="M92,51C92,70.7,75.9,86.7,56.2,86.7S20.4,70.6,20.5,50.8C20.5,31,36.6,15.1,56.3,15.1c17.6,0,32.6,12.9,35.3,30.3
		C91.9,47.3,92,49.1,92,51c0,0.4,0.3,0.7,0.7,0.7c0.4,0,0.7-0.3,0.7-0.7c0-20.7-16.8-37.4-37.4-37.4c-20.7,0-37.4,16.8-37.4,37.4
		s16.8,37.4,37.4,37.4C74.5,88.4,90.2,75,93,56.8c0.3-1.9,0.4-3.9,0.4-5.8c0-0.4-0.3-0.7-0.7-0.7C92.4,50.2,92,50.6,92,51z"/>
	<path class="st3" d="M42,48.4c-0.5-1.8-1.2-3.6-2.4-5c-0.7-0.8-1.6-2.3-2.6-2.6l-1-0.4c-2.8-1.2-6.4-2.3-12.3,1.3
		c-1.4,0.9-2.6,2.1-3.5,3.6c0,7.5-0.4,14.6,2.6,21.7c1,2.3,2.2,4.6,3.7,6.6c0.9,0.9,1.9,1.8,2.8,2.7c0.1,0.1,0.2,0.2,0.3,0.3
		c3.2,0,6.3-1.3,8.5-3.7c2-2.2,3-5,3.8-7.9C43.5,58.6,43.8,54.8,42,48.4z M35.1,61.4c-0.3,1.5-0.9,3-1.8,4.2
		c-1.4,1.9-3.9,2.6-6.1,1.6c-2-1-3.3-3.3-3.7-5.9c-0.3-2.7,0-5.4,1-7.8c0.6-1.6,1.4-3.2,2.6-4.1c2.7-2,4.3-1.4,5.6-0.8l0.4,0.2
		c0.4,0.2,0.8,1,1.1,1.3c0.5,0.8,0.9,1.7,1,2.6C36.1,56,35.9,58,35.1,61.4z"/>
	<path d="M42.8,48.3c-0.4-1.7-1.1-3.3-2.1-4.7c-0.5-0.6-1-1.2-1.4-1.7c-0.4-0.6-0.9-1.1-1.5-1.4c-0.8-0.4-1.6-0.7-2.4-1
		c-1-0.4-2-0.6-3.1-0.7c-3-0.3-5.9,0.8-8.4,2.3C22.3,41.8,21,43,20,44.5c-0.3,0.3-0.4,0.7-0.4,1.1c0,0.5,0,1,0,1.5c0,1,0,2,0,2.9
		c-0.1,3.7,0.2,7.4,0.8,11.1c0.7,3.7,2.1,7.3,4.1,10.6c0.4,0.8,0.9,1.5,1.5,2.3c0.6,0.7,1.3,1.4,2,2c0.3,0.3,0.6,0.6,0.9,0.9
		c0.3,0.4,0.7,0.6,1.2,0.5c0.8,0,1.6-0.1,2.4-0.3c3.3-0.8,6.2-2.9,7.9-5.9c1.8-3.1,2.6-6.8,3.2-10.3c0.6-3.2,0.5-6.6-0.1-9.8
		C43.2,50.1,43,49.2,42.8,48.3c-0.1-0.4-0.6-0.6-0.9-0.5c-0.4,0.1-0.6,0.5-0.5,0.9c0.6,2.2,1,4.4,1.2,6.6c0.1,2.1-0.1,4.2-0.5,6.2
		c-0.8,4.3-2,9.3-5.6,12.1c-1.9,1.4-4.2,2.2-6.6,2.2l0.5,0.2c-0.8-0.8-1.6-1.5-2.4-2.3c-0.8-0.8-1.5-1.7-2-2.7
		c-1.2-1.9-2.1-4-2.9-6.1c-1.5-4.3-1.8-8.8-1.9-13.3c0-1.2,0-2.3,0-3.4c0-0.5,0-1,0-1.6c0-0.3,0-0.6,0-0.9c0-0.2,0.1-0.4,0.2-0.6
		c1.3-1.8,3-3.1,5-4c2.7-1.3,5.7-1.5,8.5-0.5c0.5,0.2,1,0.4,1.5,0.6c0.7,0.3,1.3,0.8,1.7,1.4c0.7,0.8,1.3,1.6,1.9,2.5
		c0.6,1.1,1,2.2,1.3,3.4c0.1,0.4,0.5,0.6,0.9,0.5C42.6,49.1,42.9,48.7,42.8,48.3z"/>
	<path d="M34.4,61.2c-0.4,1.6-1,3.4-2.2,4.6c-1,0.9-2.4,1.3-3.8,1c-3.1-0.8-4.2-4.6-4.2-7.4c0-1.8,0.3-3.6,1-5.3
		c0.5-1.4,1.2-3.1,2.5-4c1-0.8,2.4-1.5,3.7-1.2c0.4,0.1,0.8,0.2,1.1,0.4c0.1,0.1,0.3,0.1,0.4,0.2c0.3,0.2,0.5,0.5,0.7,0.8
		c1.1,1.6,1.4,3.5,1.5,5.3C35.1,57.5,34.9,59.4,34.4,61.2c-0.2,0.9,1.2,1.3,1.4,0.4c0.5-1.9,0.8-3.9,0.7-5.9c-0.1-1-0.2-2.1-0.4-3.1
		c-0.1-1-0.5-1.9-1-2.7c-0.4-0.6-0.8-1.4-1.5-1.8c-0.5-0.3-0.9-0.5-1.4-0.6c-1.4-0.4-2.9-0.2-4.2,0.5c-1.9,1-3,2.6-3.8,4.5
		c-0.8,1.9-1.3,3.9-1.5,6c-0.2,3.5,1,8,4.6,9.4c1.8,0.7,3.8,0.4,5.3-0.7c1.9-1.3,2.7-3.5,3.3-5.7C36.1,60.7,34.6,60.3,34.4,61.2z"/>
	<path d="M45.1,53.1c2.9-1.3,5.4-3.3,7.3-5.8c2-2.8,1.5-6.4,0-9.3c-0.4-0.7-1.3-0.9-2-0.5c-0.7,0.4-0.9,1.3-0.5,2
		c0.6,1,0.9,2.2,1,3.4c0,1.1-0.4,2.2-1.1,3.1c-1.6,2-3.7,3.5-6.1,4.5c-0.7,0.4-0.9,1.3-0.5,2C43.5,53.2,44.4,53.4,45.1,53.1
		L45.1,53.1z"/>
	<path d="M46.2,37.7c1.2,1.4,3.1,2,4.9,1.6c0.8-0.2,1.6-0.7,2.2-1.3c0.7-0.7,1.1-1.6,1.2-2.6c0-0.8-0.7-1.5-1.5-1.5
		c-0.8,0-1.4,0.7-1.5,1.5c0-0.5,0-0.1,0,0.1s0,0.1-0.1,0.2c-0.1,0.2,0.2-0.3,0-0.1c-0.1,0.1-0.1,0.2-0.2,0.3
		c-0.1,0.2,0.2-0.2,0.1-0.1c0,0-0.1,0.1-0.1,0.2c0,0-0.1,0.1-0.1,0.1c-0.1,0.1-0.2,0.1,0.1,0c-0.1,0.1-0.2,0.2-0.3,0.2l-0.2,0.1
		c-0.1,0.1,0.4-0.1,0.1,0l-0.4,0.1c-0.2,0,0.1,0,0.1,0c-0.1,0-0.2,0-0.3,0s-0.3,0-0.4,0c0.1,0,0.3,0.1,0.1,0l-0.2-0.1
		c-0.1,0-0.2-0.1-0.4-0.1c-0.1,0,0.3,0.1,0.1,0l-0.2-0.1c-0.1-0.1-0.2-0.1-0.4-0.2c-0.2-0.2,0,0,0.1,0c0,0-0.1-0.1-0.2-0.1
		c-0.1-0.1-0.2-0.2-0.3-0.3c-0.6-0.6-1.5-0.6-2.1,0c0,0,0,0,0,0C45.6,36.2,45.6,37.1,46.2,37.7L46.2,37.7z"/>
	<path d="M48.7,35.7c0.1,0.2,0.2,0.4,0.3,0.6L48.8,36c0.3,0.8,0.6,1.6,0.7,2.5c0.2,0.8,1,1.2,1.8,1c0.4-0.1,0.7-0.3,0.9-0.7l0.1-0.4
		c0.1-0.3,0.1-0.5,0-0.8c-0.2-1.2-0.6-2.3-1.2-3.4c-0.2-0.3-0.5-0.6-0.9-0.7c-0.4-0.1-0.8-0.1-1.1,0.1c-0.3,0.2-0.6,0.5-0.7,0.9
		C48.5,35,48.5,35.4,48.7,35.7L48.7,35.7z"/>
	<path class="st4" d="M44.6,46.6c-0.5-1.8-1.2-3.6-2.4-5c-0.7-0.8-1.6-2.3-2.6-2.6l-1-0.4c-2.8-1.2-6.4-2.3-12.3,1.3
		c-2.7,1.6-4.3,4.7-5.6,7.6c-0.2,0.4-0.3,0.8-0.5,1.2c0,6.2,0,12.3,2.6,18.3c0.9,2.2,2.1,4.3,3.4,6.2c0.4,0.2,0.7,0.4,1.1,0.6
		c4.4,2,9.9,1,13.3-2.7c2-2.2,3-5,3.8-7.9C46.1,56.7,46.4,53,44.6,46.6z M37.7,59.6c-0.3,1.5-0.9,2.9-1.8,4.2
		c-1.4,1.9-3.9,2.6-6,1.6c-2-1-3.3-3.3-3.7-5.9c-0.3-2.7,0-5.4,1-7.8c0.6-1.6,1.4-3.2,2.6-4.1c2.7-2,4.3-1.4,5.6-0.8l0.4,0.2
		c0.4,0.2,0.8,1,1.1,1.3c0.5,0.8,0.9,1.6,1,2.6C38.7,54.2,38.5,56.2,37.7,59.6z"/>
	<path d="M45.3,46.4c-0.4-1.8-1.2-3.5-2.3-5c-0.5-0.6-1-1.2-1.5-1.8c-0.4-0.5-0.9-1-1.5-1.3c-2-0.8-3.8-1.6-6-1.7
		c-1.5,0-2.9,0.3-4.3,0.8c-1.8,0.6-3.4,1.5-4.9,2.7c-1.3,1.1-2.4,2.5-3.2,4c-0.4,0.8-0.8,1.6-1.2,2.4c-0.4,0.8-0.8,1.7-0.9,2.6
		c0,4,0.1,8,0.8,11.9c0.8,4,2.3,7.9,4.5,11.3c0.2,0.4,0.5,0.8,0.8,1.2c0.3,0.3,0.7,0.6,1.2,0.8c0.7,0.3,1.5,0.6,2.3,0.8
		c1.6,0.4,3.2,0.5,4.8,0.2c3.3-0.4,6.2-2.2,8.2-4.9c2.2-3.1,3.2-7,3.8-10.7c0.7-3.5,0.7-7,0-10.5C45.8,48.4,45.6,47.4,45.3,46.4
		c-0.1-0.4-0.5-0.6-0.9-0.5c-0.4,0.1-0.6,0.5-0.5,0.9c1,3.2,1.3,6.6,1.1,9.9c-0.2,1.7-0.5,3.4-0.9,5.1c-0.4,1.7-0.9,3.5-1.6,5.1
		c-1.3,2.9-3.3,5.3-6.4,6.4c-2.8,1-5.8,0.9-8.5-0.3c-0.3-0.1-0.7-0.3-0.9-0.6c-0.3-0.4-0.5-0.7-0.7-1.1c-0.5-0.8-1-1.7-1.4-2.5
		c-0.9-1.7-1.6-3.5-2.1-5.3c-0.9-3.5-1.4-7.1-1.4-10.8c0-0.9,0-1.8,0-2.7c0-0.4,0-0.9,0.1-1.3c0.1-0.5,0.3-0.9,0.6-1.3
		c0.6-1.5,1.4-2.9,2.4-4.3c1.9-2.5,4.9-4.2,8-4.8c2.3-0.4,4.4,0.1,6.5,1c0.5,0.2,0.9,0.4,1.3,0.7c0.6,0.6,1.1,1.2,1.6,1.8
		c0.6,0.7,1.1,1.4,1.5,2.2c0.4,0.9,0.7,1.8,1,2.8c0.1,0.4,0.5,0.6,0.9,0.5C45.2,47.2,45.4,46.8,45.3,46.4z"/>
	<path d="M37,59.4c-0.4,1.6-1,3.4-2.2,4.6c-1,0.9-2.4,1.3-3.8,1c-3.1-0.8-4.2-4.6-4.2-7.4c0-1.8,0.3-3.6,1-5.3
		c0.5-1.4,1.2-3.1,2.5-4c1-0.8,2.4-1.5,3.7-1.2c0.4,0.1,0.8,0.2,1.1,0.4c0.1,0.1,0.3,0.1,0.4,0.2c0.3,0.2,0.5,0.5,0.7,0.8
		c1.1,1.5,1.4,3.5,1.5,5.3C37.7,55.7,37.5,57.6,37,59.4c-0.2,0.9,1.2,1.3,1.4,0.4c0.5-1.9,0.8-3.9,0.7-5.9c-0.1-1-0.2-2.1-0.4-3.1
		c-0.2-1-0.5-1.9-1-2.7c-0.4-0.6-0.8-1.4-1.5-1.8c-0.4-0.2-0.9-0.5-1.4-0.6c-1.4-0.4-2.9-0.2-4.2,0.5c-1.9,1-3,2.6-3.8,4.5
		c-0.8,1.9-1.3,3.9-1.5,6c-0.2,3.5,1,8,4.6,9.4c1.8,0.7,3.8,0.4,5.3-0.7c1.9-1.4,2.7-3.6,3.3-5.7C38.6,58.9,37.2,58.5,37,59.4z"/>
	<path d="M28.8,41.9c0,0,0.1,0,0.1,0.1L28.8,41.9C28.8,41.9,28.8,42,28.8,41.9L28.8,41.9C28.8,41.9,28.8,42,28.8,41.9l0-0.1
		C28.8,41.9,28.8,41.9,28.8,41.9l0-0.1C28.8,41.9,28.8,41.9,28.8,41.9l0.7-0.7h-0.1h0.2c0,0-0.1,0-0.1,0l0.2,0.1
		c-0.1,0-0.1-0.1-0.1-0.1l0.1,0.1c0,0-0.1-0.1-0.1-0.1l0.1,0.1c0-0.1-0.1-0.1-0.1-0.2l0.1,0.2c0-0.1,0-0.1-0.1-0.2l0,0.2
		c0-0.1,0-0.1,0-0.2v0.2c0-0.1,0-0.1,0-0.1l-0.1,0.2c0,0,0-0.1,0.1-0.1l-0.1,0.1c0,0,0.1-0.1,0.1-0.1l-0.1,0.1c0,0,0.1-0.1,0.1-0.1
		l-0.2,0.1c0.1,0,0.1,0,0.2,0l-0.2,0c0.1,0,0.1,0,0.2,0l-0.2,0c0.1,0,0.1,0,0.2,0.1l-0.2-0.1c0.1,0,0.1,0.1,0.2,0.1l-0.2-0.1
		c0,0,0.1,0.1,0.1,0.1l-0.1-0.1c0,0,0.1,0.1,0.1,0.1l-0.1-0.2c0,0,0,0.1,0,0.1l0-0.2c0,0.1,0,0.1,0,0.2l0-0.2c0,0.1,0,0.1-0.1,0.2
		l0.1-0.2c0,0.1-0.1,0.1-0.1,0.2l0.1-0.1c0,0.1-0.1,0.1-0.2,0.2l0.1-0.1c0,0-0.1,0.1-0.2,0.1l0.2-0.1c-0.1,0-0.1,0-0.2,0.1l0.2,0
		c-0.1,0-0.2,0-0.2,0l0.2,0c-0.1,0-0.2,0-0.2-0.1l0.2,0.1c-0.1,0-0.1-0.1-0.2-0.1l0.1,0.1c0,0-0.1-0.1-0.1-0.1l0.1,0.2
		c0,0-0.1-0.1-0.1-0.1l0.1,0.2c0,0,0-0.1,0-0.2v0.2c0-0.1,0-0.1,0-0.2l0,0.2c0-0.1,0-0.1,0.1-0.2l-0.1,0.2c0-0.1,0.1-0.1,0.1-0.2
		l-0.1,0.2c0-0.1,0.1-0.1,0.2-0.2l-0.2,0.1c0,0,0.1-0.1,0.2-0.1l-0.2,0.1c0.1,0,0.1,0,0.2,0l-0.2,0c0.1,0,0.1,0,0.2,0l-0.2,0
		c0,0,0.1,0,0.1,0l-0.2-0.1c0,0,0.1,0,0.1,0.1L29,41.2c0,0,0.1,0.1,0.1,0.1L29,41.2c0,0,0.1,0.1,0.1,0.2L29,41.2c0,0.1,0,0.1,0,0.2
		v-0.2c0,0.1,0,0.1,0,0.2l0-0.2c0,0.1,0,0.1,0,0.2l0.1-0.2c0,0,0,0.1-0.1,0.1l0.1-0.1c0,0-0.1,0.1-0.1,0.1l0.1-0.1l0,0l0.4-0.1h0
		h0.2h0l0.2,0.1c0,0,0,0,0,0l0.1,0.1l0,0l0.1,0.1c0,0,0,0,0,0l0.1,0.2v-0.1l0,0.2c0,0,0,0,0,0l0,0.2c0,0,0,0,0,0l-0.1,0.2l0,0
		c0.1-0.1,0.1-0.2,0.1-0.3c0-0.1,0-0.2,0-0.3c-0.1-0.2-0.2-0.3-0.3-0.4c-0.2-0.1-0.4-0.1-0.6-0.1c-0.2,0-0.3,0.2-0.4,0.3
		c-0.1,0.1-0.1,0.3-0.1,0.4C28.7,41.7,28.7,41.9,28.8,41.9c0.1,0.3,0.3,0.4,0.6,0.5c0.2,0.1,0.4,0,0.6-0.1c0.1-0.1,0.2-0.1,0.2-0.2
		c0.1-0.1,0.2-0.2,0.2-0.3c0.1-0.2,0.1-0.4,0.1-0.5c0-0.1,0-0.3,0-0.4c0-0.3-0.2-0.5-0.3-0.7c-0.1-0.1-0.2-0.2-0.3-0.2
		c-0.1-0.1-0.2-0.1-0.4-0.1c-0.3-0.1-0.7,0-1,0.2c-0.2,0.1-0.4,0.4-0.6,0.6c-0.1,0.2-0.1,0.3-0.2,0.5c0,0.2,0,0.3,0,0.5
		c0,0.1,0,0.1,0.1,0.2c0.1,0.2,0.2,0.4,0.4,0.5c0.2,0.2,0.5,0.3,0.7,0.4c0.1,0,0.3,0,0.4,0c0.1,0,0.3,0,0.4-0.1
		c0.1,0,0.3-0.1,0.4-0.2c0.2-0.1,0.3-0.3,0.4-0.5c0,0,0-0.1,0.1-0.1c0.2-0.3,0.2-0.6,0.1-0.9c0-0.1-0.1-0.2-0.1-0.3
		c-0.1-0.1-0.1-0.2-0.2-0.3C30.2,40.1,30,40,29.8,40c-0.1,0-0.3,0-0.4,0c-0.1,0-0.3,0-0.4,0.1c-0.6,0.2-1,0.8-0.9,1.4
		c0.1,0.6,0.5,1,1,1.2c0.1,0,0.3,0.1,0.4,0c0.2,0,0.4-0.1,0.5-0.2c0.1-0.1,0.2-0.3,0.2-0.5c0-0.3-0.1-0.5-0.2-0.7
		c-0.1-0.2-0.3-0.4-0.5-0.5c-0.2-0.1-0.4-0.1-0.6-0.1c-0.2,0.1-0.3,0.2-0.4,0.3c-0.1,0.2-0.1,0.4-0.1,0.6
		C28.5,41.7,28.6,41.8,28.8,41.9L28.8,41.9z"/>
	<path d="M36.8,40.7C36.7,40.7,36.7,40.7,36.8,40.7l0,0.1C36.8,40.8,36.8,40.7,36.8,40.7l0,0.2C36.8,40.9,36.8,40.8,36.8,40.7l0,0.3
		c0,0,0-0.1,0-0.1L36.7,41c0,0,0-0.1,0.1-0.1L36.7,41c0,0,0.1-0.1,0.1-0.1l-0.2,0.1c0,0,0.1,0,0.1-0.1l-0.2,0.1c0,0,0.1,0,0.1,0
		h-0.2c0,0,0.1,0,0.1,0h-0.2l0.1,0L36.3,41c0,0,0.1,0,0.1,0.1L36.3,41c0,0,0.1,0.1,0.1,0.1l-0.1-0.2c0,0,0,0.1,0.1,0.1l-0.1-0.2
		c0,0,0,0.1,0,0.1v-0.2c0,0,0,0.1,0,0.1v-0.2c0,0.1,0,0.1,0,0.2l0.1-0.2c0,0-0.1,0.1-0.1,0.1l0.1-0.2c0,0-0.1,0.1-0.1,0.1l0.2-0.1
		c0,0-0.1,0.1-0.1,0.1l0.2-0.1l-0.1,0l0.2,0c-0.1,0-0.1,0-0.2,0l0.2,0c-0.1,0-0.1,0-0.2,0l0.2,0.1c-0.1,0-0.1-0.1-0.2-0.1l0.1,0.1
		c-0.1,0-0.1-0.1-0.1-0.1l0.1,0.2c0,0-0.1-0.1-0.1-0.2l0.1,0.2c0-0.1,0-0.1,0-0.2l0,0.2c0-0.1,0-0.1,0-0.2v0.2c0-0.1,0-0.1,0-0.2
		l-0.1,0.2c0,0,0-0.1,0.1-0.1l-0.1,0.2l0.1-0.1l-0.1,0.1c0,0,0.1,0,0.1-0.1l-0.2,0.1c0,0,0.1,0,0.1,0l-0.2,0c0,0,0.1,0,0.1,0h-0.2
		c0,0,0.1,0,0.1,0l-0.2-0.1c0,0,0.1,0,0.1,0.1L36,40.8c0,0,0,0.1,0,0.1L36,40.8c0,0,0,0.1,0.1,0.1l-0.1-0.2c0,0,0,0.1,0,0.1l0-0.2
		c0,0,0,0.1,0,0.1v-0.2c0,0,0,0.1,0,0.1l0.1-0.2l0,0.1l0.1-0.2l0,0l0.2-0.1h0l0.2-0.1h0l0.2,0c0,0,0,0,0,0l0.2,0h0l0.2,0.1l0,0
		l0.1,0.1l0,0l0.1,0.1c0,0,0,0,0,0l0.1,0.2c0,0,0,0,0,0v0.2l0,0v0.2l0,0c0-0.1,0-0.2,0-0.3c0-0.1,0-0.2-0.1-0.3
		c-0.2-0.3-0.6-0.5-1-0.3c-0.2,0.1-0.3,0.3-0.3,0.4c0,0.1,0,0.3,0,0.4c0,0.1,0.1,0.3,0.2,0.4c0.2,0.2,0.4,0.3,0.6,0.3
		c0.2,0,0.5-0.1,0.6-0.3c0.1-0.1,0.1-0.1,0.2-0.2c0-0.1,0.1-0.2,0.1-0.2c0-0.2,0-0.3,0-0.5c0,0,0,0,0-0.1c0-0.1-0.1-0.2-0.1-0.2
		c-0.2-0.4-0.7-0.6-1.1-0.6c-0.2,0-0.3,0-0.5,0.1c-0.1,0.1-0.2,0.1-0.3,0.2c-0.2,0.2-0.3,0.3-0.3,0.6c0,0.1-0.1,0.2-0.1,0.3
		c0,0.1,0,0.1,0,0.2c0,0.2,0.1,0.5,0.2,0.7c0.1,0.2,0.3,0.4,0.5,0.5c0.2,0.1,0.4,0.2,0.7,0.2c0.2,0,0.5,0,0.7-0.2
		c0.1-0.1,0.2-0.1,0.3-0.2c0.1-0.1,0.2-0.2,0.2-0.3c0.1-0.2,0.2-0.4,0.2-0.7c0-0.5-0.2-0.9-0.7-1.2c-0.1-0.1-0.2-0.1-0.3-0.1
		c-0.2,0-0.4,0-0.5,0h-0.1c-0.1,0-0.2,0.1-0.2,0.1c-0.1,0.1-0.2,0.1-0.3,0.2c-0.1,0.1-0.1,0.2-0.2,0.3c0,0.1-0.1,0.2-0.1,0.2
		c0,0.1,0,0.2,0,0.3c0,0.2,0,0.5,0.2,0.7c0.1,0.2,0.3,0.3,0.4,0.3c0.2,0.1,0.4,0,0.6-0.1c0.2-0.1,0.3-0.3,0.3-0.4
		C36.9,41.1,36.9,40.9,36.8,40.7L36.8,40.7z"/>
	<path d="M31.3,43c0,0.8,0.6,1.6,1.4,1.8c0.8,0.2,1.7-0.2,2.1-0.9c0.2-0.4,0.3-0.9,0.2-1.4c-0.1-0.4-0.5-0.6-0.9-0.5
		c-0.4,0.1-0.6,0.5-0.5,0.9c0,0,0,0.1,0,0.1l0-0.2c0,0.1,0,0.2,0,0.3l0-0.2c0,0.1,0,0.2-0.1,0.3l0.1-0.2c0,0.1-0.1,0.2-0.2,0.3
		l0.1-0.1c-0.1,0.1-0.1,0.2-0.2,0.2l0.1-0.1c-0.1,0.1-0.1,0.1-0.2,0.1l0.2-0.1c-0.1,0-0.2,0.1-0.3,0.1l0.2,0c-0.1,0-0.2,0-0.3,0
		l0.2,0c-0.1,0-0.2,0-0.3-0.1l0.2,0.1c-0.1,0-0.2-0.1-0.3-0.2l0.2,0.1c-0.1-0.1-0.2-0.2-0.2-0.2l0.1,0.1c-0.1-0.1-0.1-0.2-0.2-0.3
		l0.1,0.2c0-0.1-0.1-0.2-0.1-0.3l0,0.2c0,0,0-0.1,0-0.1c0-0.4-0.3-0.7-0.7-0.7C31.6,42.3,31.3,42.6,31.3,43L31.3,43z"/>
	<path class="st5" d="M29.5,40.5L29.5,40.5c-0.2,0-0.3,0-0.4,0c-0.2,0-0.4,0.1-0.5,0.3c-0.1,0.1-0.1,0.2-0.1,0.2l0,0.2
		c0,0.1,0,0.3,0.1,0.4l0.1,0.2c0.1,0.1,0.2,0.2,0.3,0.2h0.1c0.1,0,0.2,0,0.3,0c0.1,0,0.2,0,0.3-0.1c0.1,0,0.2-0.1,0.2-0.2
		c0.1-0.1,0.1-0.2,0.1-0.2l0-0.2c0-0.1,0-0.3-0.1-0.4l-0.1-0.1C29.7,40.6,29.6,40.6,29.5,40.5L29.5,40.5z"/>
	<path class="st5" d="M36.3,41.4c0.4,0,0.7-0.3,0.7-0.7c0-0.4-0.3-0.7-0.7-0.7c-0.4,0-0.7,0.3-0.7,0.7
		C35.6,41.1,35.9,41.4,36.3,41.4z"/>
	<path class="st6" d="M61.7,56.3c2.6,1.4,3.9,1.7,6.1,2.9l0,0c2.2-2.7,4.4-4.6,6.7-7.4c-1,9-2.7,19.1-3,28.1L67,79.4
		c-0.2-0.1-0.5,0-0.7,0.1c-0.2,0.1-3.9,5.3-3.7,5.4c0.5,0.4,0.9,0.9,1.2,1.3c0.4-0.3,0.9-0.5,1.4-0.5c4.5-0.1,9.9-2.1,13.4-4.9
		c0.7-0.6,1.3-1.2,1.9-1.9c0,0,0,0,0-0.1c1.1-11.1,1.7-23.6,2.6-35.1c-0.4-1.2-1.3-2-2.3-2.9c-0.4-0.3-7.3,2.2-7.7,2.4
		c-0.3,0.2-14.1,9.8-13.9,10.2C60.2,54.7,60.7,55.5,61.7,56.3z"/>
	<path d="M61.3,56.9c2,1.1,4.1,1.8,6.1,2.9c0.3,0.2,0.6,0.1,0.9-0.1c0.3-0.3,0.5-0.6,0.8-0.9c0.2-0.3,0.5-0.6,0.8-0.9
		c0.6-0.6,1.2-1.2,1.7-1.8c1.2-1.2,2.3-2.5,3.4-3.8l-1.3-0.5c-1.1,9.4-2.6,18.7-3,28.1l0.7-0.7l-3.6-0.4c-0.7-0.1-1.7-0.3-2.2,0.2
		c-0.6,0.7-1.1,1.4-1.6,2.1c-0.6,0.9-1.3,1.8-1.9,2.7c-0.2,0.3-0.4,0.6-0.4,1c0,0.3,0.2,0.5,0.4,0.7c0.4,0.4,0.7,0.8,1.1,1.2
		c0.2,0.2,0.6,0.3,0.9,0.1c0.7-0.5,1.7-0.4,2.5-0.5c0.9-0.1,1.9-0.3,2.8-0.5c1.9-0.4,3.7-1.1,5.5-1.9c1.7-0.8,3.2-1.8,4.6-3
		c0.4-0.3,0.7-0.7,1-1.1c0.4-0.3,0.6-0.8,0.7-1.3c0.1-1.1,0.2-2.2,0.3-3.3c0.8-9.1,1.3-18.1,2-27.2c0.1-1.1,0.2-2.2,0.2-3.3
		c0.1-0.5,0.1-1.1,0-1.6c-0.2-0.4-0.4-0.9-0.7-1.3c-0.3-0.4-0.6-0.7-0.9-1c-0.3-0.4-0.7-0.7-1.1-0.9c-0.3-0.1-0.6,0-0.9,0
		c-2.1,0.5-4.2,1.2-6.3,2c-0.9,0.4-1.8,0.9-2.6,1.5c-1.8,1.2-3.5,2.5-5.3,3.7c-1.8,1.3-3.6,2.6-5.3,3.9c-0.5,0.4-1.1,0.8-1.6,1.3
		c-0.1,0.1-0.3,0.3-0.4,0.4c-0.4,0.7,0.4,1.3,0.8,1.8c0.5,0.7,1.1,1.4,1.8,2c0.7,0.6,1.8-0.4,1-1c-0.6-0.5-1-1-1.5-1.6
		c-0.2-0.3-0.4-0.6-0.6-0.8L60,53.2c-0.2-0.3-0.2-0.2-0.1,0.4c0,0-0.1,0.2-0.1,0.3c0.2,0,0.6-0.5,0.7-0.7c1-0.8,2.2-1.7,3.4-2.5
		c2.8-2,5.6-4,8.4-5.9c0.3-0.2,0.7-0.5,1-0.7l0.2-0.1c0.1-0.1-0.2,0.1,0,0l0.4-0.1c1.6-0.6,3.3-1.2,5-1.7c0.4-0.1,0.8-0.2,1.2-0.3
		c0.1,0,0.3-0.1,0.4-0.1l0.2,0h0c0,0,0,0,0.1,0c-0.2,0-0.3-0.2-0.1,0.1c0.2,0.2,0.6,0.5,0.9,0.8c0.2,0.2,0.4,0.5,0.6,0.8
		c0.3,0.4,0.3,0.9,0.2,1.4c-0.3,3.5-0.5,7-0.7,10.5c-0.3,4-0.5,8-0.8,12c-0.3,3.9-0.7,7.8-1,11.7l0.2-0.5c-1,1.2-2.2,2.2-3.5,3.1
		c-1.3,0.9-2.8,1.6-4.3,2.1c-1.5,0.5-3,1-4.5,1.2C67,85,66.2,85,65.5,85.1c-0.7,0-1.5,0.2-2.1,0.6l0.9,0.1c-0.3-0.4-0.6-0.8-0.9-1.1
		l-0.2-0.1c0.1,0.2,0.1,0.3,0,0.5c0-0.1-0.1,0.1,0,0c0.2-0.2,0.3-0.5,0.5-0.8c0.5-0.8,1.1-1.6,1.7-2.5c0.3-0.4,0.5-0.8,0.8-1.1
		c0.1-0.2,0.2-0.3,0.3-0.4c0.1,0,0.1-0.1,0.1-0.2c0,0,0-0.1,0.1-0.1c-0.2,0.1-0.1,0,0.1,0.1c0.5,0.1,1,0.2,1.5,0.2l3.1,0.4
		c0.4,0,0.7-0.3,0.7-0.7c0.4-9.4,1.9-18.8,3-28.1c0-0.4-0.3-0.7-0.8-0.7c-0.2,0-0.4,0.1-0.5,0.2c-1.1,1.3-2.2,2.5-3.4,3.8
		c-0.6,0.6-1.1,1.2-1.7,1.8c-0.3,0.3-0.6,0.6-0.8,0.9c-0.2,0.3-0.5,0.6-0.8,0.9l0.9-0.1c-2-1-4.1-1.8-6.1-2.9
		C61.2,55.2,60.5,56.5,61.3,56.9z"/>
	<path d="M69.1,65c-1.1,0.6-2.9,0.6-4.2,0.4c-1.5-0.3-2.9-1-4.1-2c-2-1.6-4-3.3-6-5c-1.1-0.9-2.1-1.8-3-2.9c-0.6-0.6-1.5-0.6-2.1,0
		c-0.6,0.6-0.6,1.5,0,2.1c1.9,2.2,4.2,4,6.5,5.8c2.4,1.9,4.8,4.2,7.9,4.9c2.2,0.5,4.5,0.3,6.5-0.7c0.7-0.4,0.9-1.3,0.5-2
		C70.7,64.9,69.8,64.7,69.1,65L69.1,65z"/>
	<path d="M47.3,61.5c0.9,1.1,2.2,1.6,3.6,1.5c1.2-0.1,2.3-0.5,3.3-1.2c0.9-0.5,1.8-1.1,2.3-2c0.7-1.3,0.9-2.9,0.5-4.3
		c-0.5-1.5-1.8-2.3-3-3.2c-0.7-0.4-1.6-0.2-2,0.5c-0.4,0.7-0.2,1.6,0.5,2l0.7,0.5l0.3,0.2l0.1,0.1c0.3,0.2-0.2-0.2,0,0
		c0.1,0.1,0.3,0.3,0.4,0.4c0.2,0.2-0.1-0.2,0,0c0,0.1,0.1,0.2,0.2,0.3c0,0-0.1-0.4-0.1-0.1c0,0,0,0.1,0,0.1c0,0.1,0,0.2,0.1,0.3
		c0,0.1-0.1,0.1,0-0.1c0,0.1,0,0.1,0,0.2c0,0.1,0,0.3,0,0.4s0,0.3,0,0.4c0,0.2-0.1,0,0-0.1c0,0.1,0,0.1,0,0.2c0,0.1,0,0.2-0.1,0.4
		c-0.1,0.1-0.1,0.3-0.1,0.4c0,0,0.2-0.3,0-0.1L54,58.4c0,0-0.2,0.3-0.2,0.3c0,0,0.2-0.3,0.1-0.1c0,0-0.1,0.1-0.1,0.1
		c0,0-0.1,0.1-0.1,0.1c0-0.1,0.2-0.2,0.1-0.1c-0.2,0.1-0.5,0.3-0.7,0.5c-0.3,0.2-0.7,0.4-1,0.6c-0.1,0-0.2,0.1-0.3,0.1
		c0,0,0.3-0.1,0.1,0l-0.1,0C51.5,60,51.2,60,51,60.1c-0.1,0-0.2,0-0.3,0.1c0,0,0.4,0,0.1,0h-0.2c-0.1,0-0.2,0-0.3,0
		c-0.2,0,0.1,0,0.1,0c0,0-0.1,0-0.2,0l-0.2,0c-0.1,0-0.3,0-0.1,0c0.2,0,0.1,0,0,0l-0.2-0.1c0,0-0.1-0.1-0.1-0.1c0,0,0.2,0.2,0,0
		c-0.1-0.1-0.2-0.2-0.3-0.4c-0.6-0.6-1.5-0.6-2.1,0C46.7,60.1,46.7,61,47.3,61.5L47.3,61.5z"/>
	<path d="M78.7,61.8c3.4,2.4,7.6,3.3,11.7,2.6c0.8-0.2,1.2-1,1-1.8c0,0,0,0,0,0c-0.2-0.8-1-1.2-1.8-1c-3.3,0.6-6.7-0.3-9.5-2.3
		c-0.7-0.4-1.6-0.2-2,0.5c0,0,0,0,0,0C77.8,60.5,78,61.3,78.7,61.8z"/>
	<path class="st7" d="M82.1,77c-1.5-0.2-1.4,0-3.4-0.3c-0.4,0-0.7-0.3-0.7-0.6c0-0.1,0-0.2,0-0.3c1.1-11.1,1.7-23.7,2.6-35.1
		c-3.8-0.3-4.8-0.4-8.6-0.6c-0.5-0.1-0.9,0-1.4,0.2c-0.3,0.2-0.6,0.5-0.8,0.8c-2.6,3.4-7.5,8.7-10.6,12.3c2.6,1.4,3.9,1.7,6.1,2.9
		l0,0c2.2-2.7,4.4-4.6,6.7-7.4c-1,9-2.7,19.1-3,28.1l-4.5-0.5c-0.2-0.1-0.5,0-0.7,0.1c-0.2,0.2-0.3,0.4-0.4,0.6
		c-0.9,2.8-0.9,4.7-0.9,7.6l8,0.2c2.9-0.8,5.7-2.2,8-4.1c1-0.8,2-2.2,3.2-3.3C81.9,77.3,82,77.2,82.1,77z"/>
	<path d="M82.1,76.3c-0.7-0.1-1.3-0.1-2-0.1c-0.2,0-1.2,0-1.3-0.2c-0.1-0.2,0.1-0.7,0.1-0.8c0-0.3,0.1-0.7,0.1-1
		c0.2-2.7,0.5-5.3,0.7-8c0.4-5.5,0.8-11,1.1-16.4c0.2-3,0.4-6.1,0.6-9.1c0-0.4-0.3-0.7-0.7-0.7l-5.2-0.4l-2.8-0.2
		c-1-0.1-2-0.2-2.8,0.5c-0.6,0.6-1.1,1.2-1.6,1.9c-0.6,0.7-1.1,1.4-1.7,2c-1.2,1.5-2.5,2.9-3.8,4.3c-1.4,1.5-2.7,3-4,4.6
		c-0.3,0.3-0.3,0.8,0,1c0,0,0.1,0.1,0.1,0.1c2,1.1,4.1,1.8,6.1,2.9c0.3,0.2,0.7,0.1,0.9-0.1c0.3-0.3,0.5-0.6,0.8-0.9
		c0.2-0.3,0.5-0.6,0.8-0.9c0.6-0.6,1.2-1.2,1.7-1.8c1.2-1.2,2.3-2.5,3.4-3.8l-1.2-0.5c-1.1,9.4-2.6,18.7-3,28.1l0.7-0.7
		c-1.5-0.2-3-0.4-4.5-0.5c-0.7-0.1-1.4,0.2-1.7,0.9c-0.4,0.9-0.6,1.8-0.7,2.8c-0.2,1.8-0.3,3.6-0.3,5.4c0,0.4,0.3,0.7,0.7,0.7
		l6.5,0.2c0.5,0,1,0.1,1.5,0c0.5-0.1,1-0.2,1.4-0.4c0.9-0.3,1.7-0.6,2.6-1c1.6-0.7,3.2-1.7,4.5-2.8c0.6-0.6,1.2-1.2,1.7-1.8
		c0.3-0.4,0.7-0.7,1-1.1c0.3-0.3,0.6-0.7,0.9-1c0.6-0.7-0.7-1.5-1.3-0.7s-1.2,1.3-1.7,1.9c-0.5,0.6-1,1.1-1.6,1.7
		c-1.3,1.1-2.7,2-4.3,2.7c-0.8,0.4-1.6,0.7-2.5,1c-0.4,0.2-0.9,0.3-1.3,0.3c-0.5,0-1,0-1.5,0l-6-0.1l0.7,0.7c0-1.6,0-3.2,0.2-4.8
		c0.1-0.8,0.3-1.6,0.6-2.4c0.1-0.3,0.1-0.4,0.4-0.3l0.2,0l4.3,0.5c0.4,0,0.7-0.4,0.7-0.7c0.4-9.4,1.9-18.8,3-28.1
		c0-0.4-0.3-0.7-0.8-0.7c-0.2,0-0.4,0.1-0.5,0.2c-1.1,1.3-2.2,2.5-3.4,3.8c-0.6,0.6-1.1,1.2-1.7,1.8c-0.3,0.3-0.6,0.6-0.8,0.9
		c-0.2,0.3-0.5,0.6-0.8,0.9l0.9-0.1c-2-1-4.1-1.8-6.1-2.9l0.1,1.2c2.3-2.7,4.7-5.4,7.1-8.1c1.1-1.2,2.1-2.5,3.1-3.7
		c0.2-0.3,0.5-0.6,0.7-0.9c0.4-0.4,0.9-0.3,1.5-0.3l2.8,0.2c1.9,0.1,3.8,0.3,5.7,0.4l-0.7-0.7c-0.9,11.5-1.4,23-2.5,34.5
		c-0.1,0.7-0.2,1.5,0.4,2c0.5,0.4,1.2,0.4,1.8,0.4c0.9,0.1,1.7,0.1,2.6,0.2C83,77.9,83.1,76.4,82.1,76.3z"/>
	<path d="M72.1,43.5L72.1,43.5l0.1,0.1C72.2,43.5,72.1,43.5,72.1,43.5l0.1,0.1C72.2,43.5,72.1,43.4,72.1,43.5L72.1,43.5
		c0,0,0,0,0-0.1L72.1,43.5c0,0,0-0.1,0-0.2L72.1,43.5c0,0,0-0.1,0-0.1L71.6,44l0.2,0l-0.2,0c0.1,0,0.2,0,0.3,0h-0.2
		c0.1,0,0.2,0,0.3,0.1L71.7,44c0.1,0,0.1,0.1,0.2,0.1L71.7,44c0.1,0,0.1,0.1,0.1,0.1L71.8,44c0,0,0.1,0.1,0.1,0.2L71.8,44
		c0,0.1,0,0.1,0,0.2l0-0.2c0,0.1,0,0.1,0,0.2l0-0.2c0,0.1,0,0.1-0.1,0.2l0.1-0.2c0,0.1-0.1,0.1-0.1,0.1l0.1-0.2c0,0-0.1,0.1-0.1,0.1
		l0.2-0.1c0,0-0.1,0-0.1,0.1L72,44c0,0-0.1,0-0.1,0H72c-0.1,0-0.1,0-0.2,0l0.2,0c-0.1,0-0.2,0-0.2-0.1L72,44c-0.1,0-0.2-0.1-0.2-0.1
		l0.1,0.1c-0.1-0.1-0.1-0.1-0.2-0.2l0.1,0.2c-0.1-0.1-0.1-0.2-0.2-0.3l0.1,0.2c0-0.1-0.1-0.2-0.1-0.3l0,0.2c0-0.1,0-0.2,0-0.2l0,0.2
		c0-0.1,0-0.1,0.1-0.2l-0.1,0.2c0-0.1,0.1-0.1,0.1-0.2l-0.1,0.1c0,0,0.1-0.1,0.1-0.1l-0.1,0.1c0,0,0.1-0.1,0.1-0.1l-0.2,0.1
		c0.1,0,0.1,0,0.2,0l-0.2,0c0.1,0,0.2,0,0.2,0l-0.2,0c0.1,0,0.2,0,0.2,0.1l-0.2-0.1c0.1,0,0.1,0.1,0.2,0.1l-0.2-0.1
		c0,0,0.1,0.1,0.1,0.1l-0.1-0.1c0,0,0.1,0.1,0.1,0.1l-0.1-0.2c0,0,0,0.1,0,0.1v-0.2c0,0,0,0.1,0,0.1v-0.2c0,0,0,0,0,0.1
		c0,0.1,0,0.2,0,0.2v-0.2c0,0,0,0.1,0,0.1l0.1-0.2c0,0,0,0.1,0,0.1l0.1-0.1c0,0,0,0.1-0.1,0.1l0.1-0.1c0,0-0.1,0-0.1,0.1l0.2-0.1
		c0,0-0.1,0-0.1,0l0.2,0c0,0-0.1,0-0.1,0H72c0,0-0.1,0-0.1,0L72.1,43.5C72,43.4,72,43.3,72,43.3L72.1,43.5L72.1,43.5L72.1,43.5
		L72.1,43.5c0-0.1-0.2-0.3-0.4-0.3c-0.2-0.1-0.4,0-0.6,0.1c-0.2,0.1-0.3,0.3-0.3,0.4c0,0.2,0,0.4,0.1,0.6c0.1,0.2,0.4,0.4,0.6,0.5
		c0.2,0.1,0.5,0.1,0.7,0c0.2-0.1,0.4-0.2,0.6-0.3c0.1-0.1,0.1-0.2,0.2-0.3c0.1-0.2,0.1-0.3,0.1-0.5l0,0.2c0.1-0.2,0.1-0.4,0-0.7
		c-0.1-0.2-0.2-0.4-0.3-0.5c-0.2-0.2-0.5-0.4-0.8-0.5c-0.4-0.1-0.8-0.1-1.1,0.1c-0.2,0.1-0.3,0.3-0.5,0.5c-0.1,0.1-0.1,0.2-0.1,0.3
		c0,0.1,0,0.1-0.1,0.2c0,0.2,0,0.5,0,0.7c0,0.2,0.1,0.3,0.2,0.5c0.2,0.3,0.4,0.6,0.7,0.8c0.4,0.3,1,0.3,1.5,0
		c0.4-0.3,0.7-0.7,0.7-1.2c0-0.5-0.3-1-0.7-1.3c-0.4-0.2-0.9-0.3-1.4-0.2c-0.2,0-0.3,0.1-0.4,0.3c-0.1,0.1-0.2,0.3-0.2,0.4
		c0,0.2,0,0.3,0,0.5c0.1,0.3,0.3,0.6,0.5,0.8c0.2,0.1,0.4,0.2,0.6,0.3c0.2,0,0.4,0,0.6-0.1c0.2-0.1,0.3-0.3,0.3-0.4
		c0-0.2,0-0.4-0.1-0.6C72.4,43.7,72.3,43.5,72.1,43.5L72.1,43.5z"/>
	<path d="M76.3,42.9L76.3,42.9L76.3,42.9C76.3,42.9,76.3,42.9,76.3,42.9l0.1,0.1C76.4,43,76.3,42.9,76.3,42.9l0.1,0.1
		C76.3,43,76.3,42.9,76.3,42.9l0.1,0.2l0,0l-0.1,0.6v0l-0.1,0.1l0,0l-0.1,0.1l0,0L76,43.9h0h-0.2h0h-0.2h0l-0.2-0.1h0l-0.2-0.1
		l0.1,0.1l-0.1-0.1c0,0,0,0.1,0.1,0.1l-0.1-0.2c0,0.1,0,0.1,0,0.2l0-0.2c0,0.1,0,0.1,0,0.2l0-0.2c0,0,0,0.1,0,0.1l0.2-0.3
		c-0.1,0.1-0.1,0.1-0.2,0.2l0.2-0.1c0,0-0.1,0.1-0.1,0.1l0.2-0.1c0,0-0.1,0-0.1,0h0.2c0,0-0.1,0-0.1,0h0.2c-0.1,0-0.1,0-0.2-0.1
		l0.2,0.1c-0.1,0-0.2-0.1-0.3-0.2l0.1,0.1c-0.1,0-0.1-0.1-0.2-0.2l0.1,0.1c-0.1-0.1-0.1-0.1-0.1-0.2l0.1,0.2c0-0.1-0.1-0.2-0.1-0.3
		l0,0.2c0-0.1,0-0.2,0-0.3l0,0.2c0-0.1,0-0.1,0.1-0.2l-0.1,0.2c0-0.1,0.1-0.1,0.1-0.2l-0.1,0.1c0,0,0.1-0.1,0.1-0.1l-0.2,0.1
		c0,0,0.1-0.1,0.1-0.1l-0.2,0.1c0.1,0,0.1,0,0.2-0.1l-0.2,0c0.1,0,0.2,0,0.2,0l-0.2,0c0.1,0,0.2,0,0.2,0.1L75.3,43
		c0.1,0,0.1,0.1,0.2,0.1L75.3,43c0,0,0.1,0.1,0.1,0.1L75.3,43c0,0,0.1,0.1,0.1,0.1l-0.1-0.2c0,0,0,0.1,0,0.2l0-0.2
		c0,0.1,0,0.1,0,0.2l0-0.2c0,0.1,0,0.1-0.1,0.2l0.1-0.2c0,0.1-0.1,0.1-0.1,0.2l0.1-0.1c0,0.1-0.1,0.1-0.1,0.1l0.1-0.1
		c-0.1,0-0.1,0.1-0.2,0.1l0.2-0.1c-0.1,0-0.1,0-0.2,0l0.2,0c-0.1,0-0.1,0-0.2,0l0.2,0c-0.1,0-0.1,0-0.2,0l0.2,0.1
		c-0.1,0-0.1-0.1-0.2-0.1l0.1,0.1c-0.1,0-0.1-0.1-0.1-0.1l0.1,0.1c0-0.1-0.1-0.1-0.1-0.2l0.1,0.2c0-0.1,0-0.1-0.1-0.2l0,0.2
		c0-0.1,0-0.1,0-0.2l0,0.2c0,0,0-0.1,0-0.1l-0.5,0.5c0,0,0.1,0,0.1,0h-0.2c0.1,0,0.1,0,0.2,0h-0.2c0.1,0,0.1,0,0.2,0.1l-0.2-0.1
		c0.1,0,0.1,0.1,0.1,0.1l-0.1-0.1c0,0,0.1,0.1,0.1,0.1l-0.1-0.1c0,0,0,0.1,0.1,0.1c0.2,0.4,0.7,0.5,1,0.3c0,0,0,0,0,0
		c0.2-0.1,0.3-0.3,0.3-0.4V43c0-0.1,0-0.3-0.1-0.4c0-0.1-0.1-0.1-0.1-0.2c0-0.1-0.1-0.1-0.1-0.2c-0.2-0.1-0.3-0.2-0.5-0.3
		c-0.1-0.1-0.3-0.1-0.5-0.1c-0.3,0-0.6,0.1-0.8,0.3c-0.2,0.3-0.3,0.7-0.1,1.1c0,0.1,0.1,0.3,0.2,0.4c0.1,0.2,0.3,0.3,0.4,0.4
		c0.1,0.1,0.3,0.1,0.4,0.2c0.1,0,0.2,0,0.3,0c0,0,0.1,0,0.1,0c0.2,0,0.4-0.1,0.6-0.2c0.1,0,0.1-0.1,0.2-0.1c0.1,0,0.1-0.1,0.2-0.1
		c0.3-0.3,0.4-0.6,0.4-1c0,0,0-0.1,0-0.1c0-0.1,0-0.2-0.1-0.3c-0.1-0.2-0.1-0.3-0.2-0.4c-0.2-0.2-0.4-0.4-0.7-0.5
		c-0.1,0-0.3-0.1-0.4-0.1c-0.1,0-0.3,0-0.4,0c-0.1,0-0.3,0.1-0.4,0.1c-0.1,0.1-0.2,0.1-0.3,0.2c-0.1,0-0.1,0.1-0.1,0.2
		c0,0.1-0.1,0.1-0.1,0.2c-0.1,0.1-0.1,0.3-0.2,0.4c-0.1,0.3-0.1,0.6,0,0.9c0.1,0.3,0.3,0.6,0.5,0.8c0.2,0.2,0.5,0.4,0.8,0.5
		c0,0,0.1,0,0.1,0c0.1,0,0.2,0,0.3,0c0.2,0,0.4-0.1,0.6-0.1c0.1-0.1,0.3-0.2,0.4-0.3c0.2-0.1,0.3-0.3,0.3-0.5c0.1-0.4,0-0.7-0.2-1
		c-0.1-0.2-0.3-0.4-0.6-0.4c-0.2-0.1-0.5,0-0.7,0.1c-0.1,0.1-0.2,0.2-0.3,0.3c-0.1,0.1-0.1,0.2-0.1,0.3c0,0.2,0,0.3,0.1,0.5
		c0.1,0.1,0.1,0.2,0.2,0.2c0,0,0.1,0.1,0.1,0.1c0.2,0.1,0.4,0.2,0.6,0.3c0.2,0.1,0.4,0,0.6-0.1c0.2-0.1,0.3-0.3,0.3-0.4
		C76.9,43.4,76.7,43,76.3,42.9C76.3,42.9,76.3,42.9,76.3,42.9L76.3,42.9z"/>
	<path d="M63.9,55.1c1.8-1.2,3.1-3,3.6-5.1c0.1-0.4-0.1-0.8-0.5-0.9c-0.4-0.1-0.8,0.1-0.9,0.5c0,0.2-0.1,0.5-0.2,0.7
		c0,0.1-0.1,0.2-0.1,0.3c0,0.1,0,0.1-0.1,0.2c0,0.1,0,0,0,0.1c-0.2,0.4-0.4,0.8-0.7,1.2l-0.2,0.3l0,0l-0.1,0.1
		c-0.1,0.2-0.3,0.3-0.5,0.5c-0.2,0.2-0.3,0.3-0.5,0.5c0,0-0.1,0.1-0.1,0.1c0.1-0.1,0,0,0,0l-0.3,0.2c-0.4,0.2-0.5,0.6-0.3,1
		C63,55.2,63.5,55.4,63.9,55.1C63.9,55.2,63.9,55.1,63.9,55.1L63.9,55.1z"/>
	<path class="st5" d="M71.7,44.3c0.4,0,0.7-0.3,0.7-0.7c0-0.4-0.3-0.7-0.7-0.7c-0.4,0-0.7,0.3-0.7,0.7
		C70.9,43.9,71.3,44.3,71.7,44.3z"/>
	<path class="st5" d="M74.6,42.8V43c0,0.1,0,0.2,0.1,0.3c0.1,0.2,0.2,0.3,0.4,0.4c0.1,0,0.2,0.1,0.3,0.1l0.2,0
		c0.1,0,0.2-0.1,0.3-0.2l0.1-0.2C76,43.2,76,43.1,76,43v-0.1c0-0.1,0-0.2-0.1-0.3c-0.1-0.2-0.2-0.3-0.4-0.4c-0.1,0-0.2-0.1-0.3-0.1
		h-0.2c-0.1,0-0.2,0.1-0.3,0.2l-0.1,0.1C74.6,42.6,74.6,42.7,74.6,42.8L74.6,42.8z"/>
	<path class="st0" d="M70.1,29.4c-0.5,1-0.7,2.6-1,3.9c-0.9-1-1.9-1.9-2.9-2.7c0,1.2-0.3,2.4-0.7,3.6c-0.7-0.5-3.1-1.4-3.7-1.9
		c0.5,1,2.9,5.4,3.9,6.9c2.3-2.3,5.4-3.4,8.8-2.5c0-2.5,0.2-5.7-0.5-8.3c-0.5,0.9-2,3.9-2,3.9C71.8,32.1,70.9,30.2,70.1,29.4z"/>
	<path d="M69.5,29c-0.6,1.3-0.7,2.7-1.1,4.1l1.2-0.3c-1-1-2-1.9-3.1-2.8c-0.5-0.4-1.1,0.1-1.1,0.6c0,1.2-0.3,2.3-0.7,3.4l1.2-0.3
		c-0.6-0.4-1.2-0.7-1.9-1c-0.7-0.2-1.3-0.5-1.9-0.9c-0.3-0.3-0.8-0.3-1,0c-0.2,0.2-0.3,0.6-0.1,0.9c1.2,2.4,2.5,4.6,3.9,6.9
		c0.2,0.4,0.7,0.5,1,0.2c0,0,0.1-0.1,0.1-0.1c2.2-2.2,5.1-3.1,8.1-2.3c0.4,0.1,0.8-0.1,0.9-0.5c0-0.1,0-0.1,0-0.2
		c0-2.8,0.2-5.7-0.5-8.5c-0.1-0.4-0.5-0.6-0.9-0.5c-0.2,0.1-0.3,0.2-0.4,0.3c-0.7,1.3-1.3,2.6-2,3.9l1.2-0.1
		c-0.3-0.4-0.5-0.8-0.8-1.3c-0.3-0.6-0.7-1.2-1.2-1.7c-0.6-0.7-1.7,0.3-1,1c0.8,0.9,1.2,2.1,2,2.9c0.3,0.3,0.8,0.3,1.1,0
		c0,0,0.1-0.1,0.1-0.1c0.6-1.3,1.3-2.6,2-3.9l-1.3-0.2c0.6,2.7,0.5,5.4,0.5,8.1l0.9-0.7c-3.5-1-7,0.1-9.5,2.6l1.2,0.1
		c-1.4-2.2-2.7-4.5-3.9-6.9l-1.2,0.9c0.6,0.4,1.2,0.7,1.9,1c0.6,0.2,1.3,0.5,1.9,0.9c0.3,0.3,0.8,0.3,1.1,0c0.1-0.1,0.1-0.2,0.2-0.3
		c0.4-1.2,0.6-2.5,0.7-3.8l-1.1,0.6c1,0.8,1.9,1.6,2.8,2.6c0.3,0.3,0.7,0.3,1,0.1c0.1-0.1,0.2-0.2,0.2-0.4c0.3-1.2,0.4-2.6,0.9-3.7
		C71.2,28.9,69.9,28.2,69.5,29z"/>
	<path class="st0" d="M41.3,28.7c-0.9,0.6-2,1.8-2.9,2.8c-0.2-1.3-0.6-2.6-1-3.8c-0.7,1-1.6,1.9-2.5,2.7c-0.3-0.8-1.8-2.8-2.1-3.6
		c-0.1,1.1-0.4,6.8-0.3,8.6c3.1-0.7,5.9,0,8.7,2c1.3-2.1,3.2-4.7,4.1-7.3c-0.9,0.5-3.8,2.2-3.8,2.2C41.3,31.9,41.5,29.8,41.3,28.7z"
		/>
	<path d="M41,28.1c-1.2,0.8-2.1,1.9-3.1,2.9l1.2,0.3c-0.3-1.3-0.6-2.6-1-3.8c-0.1-0.4-0.5-0.6-0.9-0.5c-0.2,0.1-0.3,0.2-0.4,0.3
		c-0.7,1-1.5,1.8-2.4,2.5l1.2,0.3c-0.5-1.3-1.6-2.3-2.1-3.6c-0.1-0.4-0.4-0.7-0.8-0.6c-0.4,0.1-0.7,0.4-0.6,0.8
		c-0.1,1.3-0.2,2.7-0.2,4c0,1.5-0.1,3-0.1,4.5c0,0.4,0.3,0.8,0.7,0.8c0.1,0,0.1,0,0.2,0c3-0.6,5.7,0.2,8.1,2c0.4,0.2,0.8,0.1,1-0.3
		c1.5-2.4,3.2-4.7,4.2-7.5c0.1-0.4-0.1-0.8-0.5-0.9c-0.2,0-0.4,0-0.5,0.1c-1.3,0.7-2.5,1.5-3.8,2.2l1.1,0.4c0,0.2,0-0.1,0-0.1
		c0-0.1,0-0.2,0-0.4c0-0.3,0-0.7,0-1c0-0.7,0-1.4-0.1-2.1c-0.1-0.9-1.5-0.5-1.4,0.4c0.2,1.2-0.1,2.4,0.1,3.5
		c0.1,0.4,0.5,0.6,0.9,0.5c0.1,0,0.1,0,0.2-0.1c1.2-0.8,2.5-1.5,3.8-2.2l-1.1-0.8c-0.9,2.6-2.5,4.8-4,7.1l1-0.3
		c-2.8-2-5.9-2.8-9.3-2.1l1,0.7c0-1.5,0-3,0.1-4.5c0.1-1.3,0.1-2.7,0.2-4L32,26.9c0.5,1.3,1.6,2.3,2.1,3.6c0.1,0.4,0.5,0.6,0.9,0.5
		c0.1,0,0.2-0.1,0.3-0.2c1-0.8,1.9-1.8,2.7-2.8l-1.3-0.2c0.4,1.2,0.8,2.5,1,3.8c0.1,0.4,0.5,0.6,0.9,0.5c0.1,0,0.2-0.1,0.3-0.2
		c0.9-0.9,1.7-2,2.8-2.7C42.5,28.9,41.8,27.6,41,28.1z"/>
</g>
</svg>
