<?xml version="1.0" encoding="utf-8"?>
<!-- Generator: Adobe Illustrator 24.2.0, SVG Export Plug-In . SVG Version: 6.00 Build 0)  -->
<svg version="1.1" id="Layer_1" xmlns="http://www.w3.org/2000/svg" xmlns:xlink="http://www.w3.org/1999/xlink" x="0px" y="0px"
	 viewBox="0 0 112 102" style="enable-background:new 0 0 112 102;" xml:space="preserve">
<style type="text/css">
	.st0{fill:#E66869;}
	.st1{fill:#F0A4A5;}
	.st2{fill:#F7CBCA;}
	.st3{fill:#78C3C8;}
	.st4{fill:#FFFFFF;stroke:#FFFFFF;stroke-width:0.471;stroke-miterlimit:10;}
	.st5{fill:#FFFFFF;stroke:#000000;stroke-width:0.9419;stroke-miterlimit:10;}
	.st6{fill:#FFFFFF;}
	.st7{opacity:0.5;}
	.st8{fill:#C2E1E3;}
	.st9{fill:#183E41;}
	.st10{fill:#0D67AD;}
</style>
<g>
	<path class="st0" d="M74.2,2.6H38.7c-5.9,0-11.4,3.1-14.3,8.3L6.7,41.6c-3,5.1-3,11.4,0,16.5l17.7,30.7c3,5.1,8.4,8.3,14.3,8.3
		h35.5c5.9,0,11.4-3.1,14.3-8.3l17.7-30.7c3-5.1,3-11.4,0-16.5L88.5,10.9C85.6,5.8,80.1,2.6,74.2,2.6z"/>
	<g>
		<path d="M74.2,1.9c-9.6,0-19.2,0-28.8,0c-4.3,0-8.9-0.4-13,1.2c-3.6,1.5-6.6,4.1-8.6,7.5c-0.6,1.1-1.3,2.2-1.9,3.3
			c-5.2,9-10.4,17.9-15.5,26.9C3,46.6,3,53.2,6.3,59c2.3,3.9,4.5,7.9,6.8,11.8c2.9,5,5.8,10.1,8.7,15.1c0.6,1.1,1.3,2.2,1.9,3.3
			c2,3.3,4.9,5.9,8.5,7.4c4.1,1.7,8.6,1.3,13,1.3c6.1,0,12.2,0,18.2,0c3.6,0,7.2,0,10.8,0c4.4,0,8.6-1.7,11.8-4.7
			c1.6-1.5,2.7-3.2,3.8-5.1c5.3-9.1,10.5-18.2,15.8-27.3c0.7-1.2,1.5-2.4,2-3.7c2-4.5,2-9.7,0-14.3c-1.5-3.4-3.7-6.6-5.6-9.8
			c-3-5.4-6-10.7-9.1-16c-2-3.5-3.9-7.6-6.8-10.4C82.9,3.6,78.6,2,74.2,1.9c-0.9,0-0.9,1.4,0,1.4c4.9,0.1,9.5,2.3,12.5,6.1
			c0.9,1.1,1.6,2.4,2.3,3.7c2.6,4.5,5.2,8.9,7.7,13.4c2.6,4.5,5.2,9.1,7.9,13.6c0.7,1.3,1.5,2.6,2.1,4c1.8,4.5,1.3,9.5-1,13.7
			c-4.7,8.3-9.5,16.5-14.3,24.8c-2,3.5-3.8,7.5-7,10.2c-2.9,2.4-6.6,3.7-10.3,3.7c-1.4,0-2.7,0-4.1,0c-10.2,0-20.3,0-30.5,0
			c-6.2,0-11.5-2.9-14.6-8.3c-2.1-3.7-4.3-7.4-6.4-11c-2.9-5-5.8-10-8.6-15c-0.8-1.3-1.6-2.7-2.3-4C5.8,55,4.9,51.4,5.4,47.7
			c0.6-4.3,3.3-8,5.4-11.7c3-5.1,5.9-10.2,8.9-15.4c1.8-3.1,3.6-6.2,5.4-9.3c2.2-3.7,5.8-6.5,10-7.5c1.8-0.4,3.5-0.4,5.4-0.4
			c10.4,0,20.7,0,31.1,0c0.9,0,1.8,0,2.7,0C75.2,3.4,75.2,1.9,74.2,1.9z"/>
	</g>
</g>
<g>
	<circle class="st1" cx="56.5" cy="49.9" r="41.5"/>
	<g>
		<path d="M97.3,49.9c-0.1,17-10.9,32.6-26.9,38.4C54.3,94.1,36,89.1,25.1,76c-11-13.2-12.4-32.6-3.5-47.3
			c8.8-14.5,26.3-22.2,43-18.9c16.6,3.3,29.6,17,32.3,33.6C97.1,45.6,97.3,47.8,97.3,49.9c0,0.9,1.4,0.9,1.4,0
			C98.6,32.3,87.5,16.3,71,10.2C54.4,4.1,35.1,9.4,23.9,23.1s-12.7,33.6-3.5,48.7s27.3,23,44.6,19.5c17.1-3.4,30.7-17.7,33.3-35
			c0.3-2.1,0.5-4.3,0.5-6.4C98.7,49,97.3,49,97.3,49.9z"/>
	</g>
</g>
<g>
	<circle class="st2" cx="56.5" cy="49.9" r="35.8"/>
	<g>
		<path d="M91.6,49.9c-0.1,14.6-9.3,28-23,33c-13.8,5-29.7,0.7-39.1-10.6C20,61,18.8,44.4,26.4,31.8s22.7-19.2,37.1-16.3
			c14.2,2.9,25.3,14.6,27.6,28.9C91.4,46.2,91.6,48.1,91.6,49.9c0,0.9,1.4,0.9,1.4,0c-0.1-15.2-9.7-29-23.9-34.3
			C54.7,10.3,38,14.9,28.2,26.7c-9.7,11.8-11,28.9-3,42c7.9,13.1,23.5,19.9,38.5,16.9c14.7-2.9,26.5-15.2,28.8-30.1
			c0.3-1.9,0.4-3.8,0.5-5.7C93,49,91.6,49,91.6,49.9z"/>
	</g>
</g>
<g id="quimica">
	<g id="_2">
		<path class="st3" d="M30.4,60.7c-1.1-0.9-5.4-3.7-6.1-5c-0.7-1.3-0.8-3,0.2-4c1.1-1.2,2.9-1.1,4.5-1.4c3.9-0.6,5.4-4.5,8.5-6.9
			c5.4-4.2,10.5-6.6,17.3-6.7s17.1,3.7,20.2,9.9c2.1,4.1,2.6,9.5,6.7,11.6c1.8,0.9,4.1,1.1,5,2.9c0.7,1.5-0.2,3.4-1.6,4.3
			c-1.4,0.9-3.2,1.1-4.8,1.2c-0.7,0-1.4,0.1-2,0.4c-0.8,0.4-1.2,1.1-1.7,1.8c-4,5.6-11.5,7.3-18.3,7.8c-4.7,0.3-9.4,0.3-13.9-1.3
			C36.4,72.4,32.6,67.6,30.4,60.7"/>
		<path d="M30.8,60.1c-1.6-1.2-3.2-2.2-4.7-3.5c-0.7-0.5-1.2-1.1-1.5-1.9c-0.4-1.3,0.1-2.6,1.4-3.1c1.3-0.5,2.6-0.4,3.9-0.7
			c1.1-0.3,2.1-0.9,3-1.7c1.9-1.7,3.2-3.8,5.3-5.3c2.2-1.7,4.6-3.2,7.2-4.4c2.5-1.1,5.1-1.7,7.8-1.9c4.9-0.2,9.8,0.9,14.2,3.1
			c2.1,1,4,2.5,5.6,4.2c1.5,1.8,2.2,4,3,6.1c0.8,2.2,1.7,4.6,3.4,6.3c0.9,0.9,1.9,1.5,3.1,1.9c1.1,0.4,2.4,0.7,3.2,1.6
			c0.9,0.9,0.7,2.2-0.1,3.2c-0.9,1.2-2.4,1.6-3.8,1.7c-1.4,0.2-3.1,0-4.3,0.9c-1,0.8-1.6,2.1-2.6,3c-3.7,4-9.3,5.4-14.5,6
			c-3.1,0.4-6.3,0.5-9.4,0.2c-3.1-0.2-6.2-1.1-9-2.4c-2.2-1.1-4.2-2.5-5.9-4.2c-1.5-1.6-2.8-3.5-3.7-5.6c-0.5-1.1-0.9-2.2-1.2-3.3
			c-0.2-0.8-1.6-0.5-1.3,0.3c1.5,4.8,4,9,8.2,11.9c2.4,1.7,5,2.9,7.8,3.7c3.4,0.9,7,1.2,10.5,0.9c5.7-0.2,11.8-1.1,16.6-4.3
			c1.2-0.7,2.2-1.6,3.1-2.6c0.5-0.5,0.9-1,1.3-1.6c0.5-0.7,0.9-1.3,1.8-1.5c0.8-0.1,1.5-0.2,2.3-0.2c0.8,0,1.6-0.2,2.4-0.4
			c1.4-0.5,2.7-1.2,3.4-2.6c0.7-1.2,0.7-2.7,0-3.8c-0.7-1.1-2-1.6-3.1-2c-1.2-0.4-2.4-0.9-3.3-1.7c-0.9-0.9-1.6-1.9-2.1-3
			c-1.1-2.4-1.8-4.9-2.9-7.1c-1.1-2.2-2.8-3.8-4.7-5.2c-4.3-3-9.3-4.7-14.5-5c-5.7-0.4-11.3,1.3-16.1,4.4c-1.3,0.8-2.5,1.7-3.7,2.7
			c-1,0.9-1.9,1.9-2.7,2.9c-0.8,1-1.7,1.9-2.7,2.6c-1.1,0.8-2.4,1-3.7,1.2s-2.8,0.5-3.6,1.7c-0.9,1.2-0.9,2.7-0.4,4
			c0.4,0.9,1,1.6,1.8,2.2c0.9,0.8,1.8,1.5,2.8,2.1c0.7,0.5,1.4,1,2.1,1.5C30.9,61.8,31.6,60.6,30.8,60.1L30.8,60.1z"/>
		<path class="st4" d="M50.5,62.1c0.4,1.8,0.7,4,1.6,5.6c0.4,0.7,1.3,0.8,1.9,1.2c0.7,0.5,1.5,0.5,2.2,0c0.7-0.6,1.2-1.4,1.5-2.2
			c0.6-2.1,0.3-3.7,0.6-5.9c-0.7,0.2-6.6,0.9-7.6,0.7"/>
		<path d="M50.8,61.4c0,1.8,0.1,3.8,1,5.4c0.7,1.3,2,2.4,3.6,2.4c1.9-0.1,2.1-2.4,2.4-3.8c0.2-0.9,0.3-1.9,0.5-2.9
			c0.1-0.5,0.1-1,0.2-1.4c0-0.1,0-0.2,0-0.3c0,0,0-0.4,0.1-0.1c0,0,0,0.1,0.1,0.1h-0.3c-0.2,0-0.3,0-0.4,0.1
			c-1.2,0.1-2.3,0.2-3.4,0.4c-0.6,0.1-1.1,0.2-1.6,0.2c-0.3,0.1-2.9,0.5-3.1,0.2c-0.3-1.3,2.1-1.2,2.9-1.3l3.9-0.5l1.8-0.2
			c0.5-0.1,1.1,0,1.2,0.6c0.1,0.5,0,1.1-0.1,1.6c-0.1,0.7-0.1,1.3-0.3,2c-0.2,1.2-0.4,2.5-0.7,3.6c-0.3,0.9-0.6,2-1.5,2.5
			c-1.7,1.1-4.1,0.1-5.3-1.3c-1.8-1.9-2-4.6-2-7.1c0-0.3,0.2-0.6,0.5-0.6C50.5,60.9,50.8,61.1,50.8,61.4
			C50.8,61.4,50.8,61.4,50.8,61.4L50.8,61.4z"/>
		<path d="M52.1,61.4c0.2,2.3,0.4,4.7,0.5,7c0.1,0.7,1.1,0.7,1.1,0c-0.2-2.3-0.4-4.7-0.5-7C53.1,60.7,52,60.7,52.1,61.4L52.1,61.4z"
			/>
		<path d="M55.8,60.8c0,2.7,0.1,5.4,0.4,8.1c0.1,0.7,1.1,0.7,1.1,0c-0.3-2.7-0.4-5.4-0.4-8.1c0-0.3-0.3-0.5-0.6-0.5
			C56,60.3,55.8,60.5,55.8,60.8z"/>
		<path d="M50.8,64.9c2.4,0.6,5,0.6,7.4,0c0.3-0.1,0.4-0.4,0.4-0.6c-0.1-0.3-0.4-0.4-0.6-0.4l0,0c-2.2,0.6-4.6,0.6-6.8,0
			c-0.3-0.1-0.6,0.1-0.6,0.4C50.4,64.6,50.6,64.9,50.8,64.9L50.8,64.9z"/>
		<path class="st5" d="M68.6,52.7c0.3-0.6,0.5-1.2,0.5-1.9c0-2.3-1.8-4.1-4.1-4.1c-2.3,0-4.1,1.8-4.1,4.1c0,1.8,1.2,3.4,2.9,3.9
			C65.1,53.3,67.4,52.3,68.6,52.7z"/>
		<circle cx="65" cy="50.8" r="1.6"/>
		<path class="st5" d="M41.6,52.6c-0.3-0.6-0.5-1.2-0.5-1.9c0-2.3,1.8-4.1,4.1-4.1c2.3,0,4.1,1.8,4.1,4.1c0,1.8-1.2,3.4-2.9,3.9
			C45.2,53.2,42.8,52.2,41.6,52.6z"/>
		<circle cx="45.3" cy="50.7" r="1.6"/>
		<path d="M30.9,56.9c0.8,0,1.5-0.3,2.1-0.8c0.6-0.5,1-1.2,1-1.9c0.1-0.3,0-0.5-0.1-0.7c-0.2-0.4-0.7-0.6-1.1-0.4
			c-0.3,0.2-0.5,0.6-0.3,0.9c0,0,0,0,0,0c0.2,0.3,0.6,0.5,0.9,0.3c0,0,0,0,0,0c-0.2,0.1-0.5,0.1-0.7-0.1c-0.1-0.1-0.1-0.1,0-0.1
			c0,0,0,0,0-0.1v0c0,0,0-0.2,0,0v0.1c0-0.2,0-0.1,0,0c0,0.1,0,0.1-0.1,0.1c0,0.1,0,0.1-0.1,0.2s0,0-0.1,0.1c0.1-0.2,0.1-0.1,0,0
			c-0.1,0-0.1,0.1-0.1,0.2s-0.1,0.1-0.1,0.2c0.1-0.2,0,0,0,0l-0.1,0.1l-0.2,0.2l-0.1,0.1c-0.1,0.1,0.1-0.1,0,0
			c-0.1,0.1-0.3,0.2-0.4,0.2c-0.1,0-0.1,0,0,0c0,0,0,0-0.1,0s-0.1,0-0.2,0.1h-0.1c0,0-0.1,0,0,0h-0.2c-0.4,0-0.6,0.3-0.7,0.7
			C30.2,56.6,30.5,56.9,30.9,56.9L30.9,56.9z"/>
		<path d="M34.2,52c1.1,0.1,2-0.7,2.1-1.7c0-0.4,0-0.8-0.2-1.1c-0.2-0.3-0.6-0.5-0.9-0.3c0,0,0,0,0,0c-0.3,0.2-0.5,0.6-0.3,0.9
			c0,0,0,0,0,0c0,0,0,0.1,0,0.1c0,0,0-0.1-0.1-0.2c0,0.1,0.1,0.2,0.1,0.3c0-0.1,0-0.1,0-0.2v0.3c0-0.1,0-0.1,0.1-0.2
			c0,0.1,0,0.2-0.1,0.3c0,0,0-0.1,0.1-0.2c0,0.1-0.1,0.2-0.2,0.2c0.1,0,0.1-0.1,0.1-0.1c0,0.1-0.1,0.1-0.2,0.2
			c0.1,0,0.1-0.1,0.1-0.1c-0.1,0-0.2,0.1-0.3,0.2c0.1,0,0.1-0.1,0.2-0.1c-0.1,0-0.2,0.1-0.3,0.1c0.1,0,0.1,0,0.2,0h-0.3
			c-0.2,0-0.4,0.1-0.5,0.2c-0.1,0.1-0.2,0.3-0.2,0.5c0,0.2,0,0.4,0.2,0.5c0,0,0.1,0.1,0.1,0.1C33.9,52,34.1,52,34.2,52L34.2,52z"/>
		<path d="M36.5,55.5c1-0.5,1.7-1.5,1.7-2.6c0-0.2,0-0.4-0.2-0.5c-0.1-0.2-0.3-0.2-0.5-0.2c-0.4,0-0.7,0.3-0.7,0.6c0,0,0,0,0,0v0.4
			c0-0.1,0-0.1,0.1-0.2l-0.2,0.5c0,0,0-0.1,0.1-0.2c-0.1,0.2-0.2,0.3-0.3,0.5c0,0,0.1-0.1,0.1-0.1c-0.1,0.1-0.2,0.3-0.4,0.4
			c0,0,0.1-0.1,0.1-0.1c-0.1,0.1-0.3,0.2-0.4,0.2c-0.2,0.1-0.3,0.2-0.3,0.4c-0.1,0.2,0,0.4,0.1,0.6c0.1,0.2,0.2,0.3,0.4,0.3
			C36.2,55.6,36.4,55.6,36.5,55.5L36.5,55.5z"/>
		<path d="M34.3,60.3c1-0.4,1.8-1.2,2.1-2.3c0.1-0.4-0.1-0.7-0.4-0.8c-0.3-0.1-0.7,0.1-0.8,0.4c0,0,0,0,0,0c0,0.1-0.1,0.2-0.1,0.3
			c0,0,0-0.1,0.1-0.2c-0.1,0.2-0.3,0.5-0.4,0.7c0.1,0,0.1-0.1,0.1-0.1c-0.2,0.2-0.4,0.4-0.6,0.5c0,0,0.1-0.1,0.1-0.1
			c-0.2,0.1-0.4,0.3-0.7,0.3c-0.1,0-0.3,0.3-0.3,0.4c-0.1,0.2,0,0.4,0.1,0.6c0.1,0.2,0.2,0.3,0.4,0.3C33.9,60.4,34.1,60.4,34.3,60.3
			z"/>
		<path d="M36.6,63.4c0.2-0.1,0.4-0.2,0.6-0.3c0.1,0,0.2-0.1,0.2-0.2c0.1-0.1,0.1-0.1,0.1-0.2c0-0.1,0-0.2,0-0.3
			c0-0.1,0-0.2-0.1-0.3c0,0-0.1-0.1-0.1-0.1c-0.1-0.1-0.2-0.2-0.3-0.2c0,0-0.1,0-0.2-0.1c-0.1,0-0.3,0-0.4,0.1
			c-0.2,0.1-0.4,0.2-0.6,0.3c-0.1,0-0.2,0.1-0.2,0.2c-0.1,0.1-0.1,0.1-0.1,0.2c0,0.1,0,0.2,0,0.3c0,0.1,0,0.2,0.1,0.3
			c0,0,0.1,0.1,0.1,0.1c0.1,0.1,0.2,0.2,0.3,0.2c0.1,0,0.1,0,0.2,0.1C36.4,63.5,36.5,63.5,36.6,63.4L36.6,63.4z"/>
		<path d="M72.2,67.9c1-0.8,1.6-1.9,1.7-3.2c0-0.4-0.2-0.7-0.6-0.8c-0.4,0-0.7,0.2-0.8,0.6c0,0,0,0.1,0,0.1V65c0,0.1,0.1-0.1,0,0
			c0,0.1,0,0.2-0.1,0.4c-0.1,0.1-0.1,0.2-0.2,0.4c0,0,0,0-0.1,0.1c-0.1,0,0.1-0.1,0,0c-0.1,0.1-0.1,0.1-0.1,0.2c0,0-0.1,0.2-0.2,0.3
			c-0.1,0.1-0.1,0.1-0.1,0.1l0,0c0.1-0.1,0,0,0,0l-0.6,0.5C71.1,67,71,67.2,71,67.4c0,0.2,0.1,0.4,0.2,0.5c0.1,0.2,0.3,0.2,0.5,0.2
			C71.9,68.1,72.1,68,72.2,67.9L72.2,67.9z"/>
		<path d="M77.3,64.7c0.2-0.7,0.2-1.4,0.2-2.1c0-0.2,0-0.4-0.2-0.5c-0.1-0.1-0.3-0.2-0.5-0.2c-0.2,0-0.4,0-0.5,0.2
			c-0.1,0.1-0.2,0.3-0.2,0.5c0,0.5,0,1-0.1,1.6c0-0.1,0-0.1,0.1-0.2c0,0.1-0.1,0.2-0.1,0.4c-0.1,0.2,0,0.4,0.1,0.6
			c0.1,0.2,0.2,0.3,0.4,0.3c0.2,0.1,0.4,0,0.6-0.1C77.2,65,77.3,64.8,77.3,64.7L77.3,64.7z"/>
		<path d="M74.8,61.2c0.1-0.2,0.1-0.5,0.2-0.7c0-0.1,0-0.2,0-0.3c0-0.1,0-0.2-0.1-0.3c0-0.1-0.1-0.1-0.2-0.2
			c-0.1-0.1-0.1-0.1-0.2-0.1c-0.1,0-0.1,0-0.2-0.1c-0.1,0-0.3,0-0.4,0.1c0,0-0.1,0.1-0.1,0.1c-0.1,0.1-0.2,0.2-0.2,0.3
			c-0.1,0.2-0.1,0.5-0.2,0.7c0,0.1,0,0.2,0,0.3c0,0.1,0,0.2,0.1,0.3c0,0.1,0.1,0.2,0.2,0.2c0.1,0.1,0.1,0.1,0.2,0.1
			c0,0,0.1,0,0.2,0.1c0.1,0,0.3,0,0.4-0.1c0,0,0.1-0.1,0.1-0.1C74.7,61.4,74.7,61.3,74.8,61.2L74.8,61.2z"/>
		<path class="st6" d="M39.6,67.8c2.1,3.4,6,4.5,9.6,5.5c0.9,0.2,1.3-1.1,0.4-1.3c-3.2-0.9-6.9-1.8-8.8-4.8
			C40.4,66.4,39.2,67.1,39.6,67.8z"/>
		<path class="st6" d="M52.6,72.5c0.2,0.1,0.4,0.2,0.5,0.3c0.1-0.4,0.1-0.8,0.2-1.2c-0.1,0-0.2,0-0.3,0c0.3,0.1,0.5,0.2,0.8,0.3
			c0,0,0-0.1-0.1-0.1c0,0,0,0.1,0.1,0.2c0,0,0-0.1,0-0.2c0,0.1,0,0.1,0,0.2v-0.2c0-0.1,0-0.2,0-0.3c0-0.1-0.1-0.1-0.1-0.2
			c-0.1-0.1-0.1-0.1-0.2-0.1c-0.1,0-0.2-0.1-0.3-0.1c-0.1,0-0.1,0-0.2,0c-0.1,0-0.2,0.1-0.3,0.2c0,0-0.1,0.1-0.1,0.1
			c-0.1,0.1-0.1,0.2-0.1,0.4V72c0,0.1,0,0.2,0,0.3C52.5,72.4,52.5,72.5,52.6,72.5c0,0.1,0,0.1,0,0.1c0,0,0.1,0.1,0.1,0.1
			c0.1,0.1,0.1,0.1,0.2,0.1c0,0,0.1,0.1,0.2,0.1h0.3c0.1,0,0.2,0,0.3,0c0.1,0,0.1,0,0.2-0.1c0.1,0,0.1-0.1,0.1-0.1s0.1-0.1,0.1-0.1
			c0.1-0.1,0.1-0.2,0.1-0.3v-0.2c0-0.1,0-0.1,0-0.2c0,0,0-0.1-0.1-0.1c0-0.1-0.1-0.1-0.2-0.2c-0.2-0.1-0.4-0.2-0.5-0.3
			c-0.1-0.1-0.2-0.1-0.3-0.1h-0.3c-0.1,0-0.2,0-0.2,0.1c-0.1,0-0.2,0.1-0.2,0.2c-0.1,0-0.1,0.1-0.1,0.2c0,0.1,0,0.2,0,0.4
			c0,0,0,0.1,0.1,0.2S52.4,72.5,52.6,72.5L52.6,72.5z"/>
		<path class="st6" d="M57.9,39.9c0,0,0.1,0.1,0.1,0.2l0,0l0.1,0.1c0,0,0,0,0,0c0,0,0,0,0,0c0.1,0.1,0.1,0.1,0.2,0.1
			c0.2,0,0.3,0,0.5,0h0c0.1,0,0.1,0,0.2-0.1c0.1,0,0.2-0.1,0.3-0.3c0,0,0.1-0.1,0.1-0.2v0c0,0,0-0.1,0.1-0.2v0c0-0.1,0-0.3-0.1-0.4
			c-0.1-0.1-0.2-0.2-0.3-0.3c-0.1-0.1-0.2-0.1-0.4-0.1c-0.1,0-0.3,0-0.4,0.1c0,0-0.1,0.1-0.2,0.1c-0.1,0.1-0.2,0.2-0.2,0.3
			c0,0.1-0.1,0.1-0.1,0.2c0,0.2,0.1,0.4,0.2,0.5c0.1,0.1,0.3,0.2,0.5,0.2c0.1,0,0.2,0,0.3,0c0.1,0,0.1-0.1,0.2-0.1
			c0.1-0.1,0.1-0.1,0.1-0.2c0-0.1,0.1-0.2,0.1-0.3c0-0.1,0-0.1,0-0.2c0-0.1-0.1-0.2-0.2-0.3c0,0-0.1-0.1-0.1-0.1
			c-0.1-0.1-0.2-0.1-0.4-0.1l0,0c0.1,0,0.1,0,0.2,0.1l0,0c0,0,0.1,0.1,0.2,0.1l0,0c0,0,0.1,0.1,0.1,0.1l0,0c0,0,0.1,0.1,0.1,0.1l0,0
			c0,0,0,0.1,0.1,0.2l0,0c0,0.1,0,0.1,0,0.2l0,0c0,0.1,0,0.1-0.1,0.2l0,0c0,0,0,0.1-0.1,0.2v0c-0.1,0-0.1,0.1-0.1,0.1l0,0
			c0,0-0.1,0.1-0.1,0.1l0,0c0,0-0.1,0-0.2,0.1l0,0c-0.1,0-0.1,0-0.2,0l0,0c-0.1,0-0.1,0-0.2-0.1l0,0c0,0-0.1,0-0.2-0.1l0,0
			c0,0-0.1-0.1-0.1-0.1l0,0c0,0-0.1-0.1-0.1-0.1v0c0,0,0-0.1-0.1-0.2v0c0-0.1,0-0.1,0-0.2v0c0-0.1,0-0.1,0.1-0.2v0.1
			c0,0,0-0.1,0.1-0.2c0,0,0,0,0,0l0.2-0.2h0c0.1,0,0.1-0.1,0.2-0.1h0c0.1,0,0.1,0,0.2,0h0c0.1,0,0.1,0,0.2,0.1h0
			c0,0,0.1,0.1,0.2,0.1c0,0,0,0,0,0c0,0,0,0,0,0c0,0,0.1,0.1,0.1,0.1l0-0.1c0,0.1,0.1,0.1,0.1,0.1v0c0-0.1-0.1-0.2-0.2-0.2
			c-0.1-0.1-0.1-0.1-0.2-0.1c-0.1,0-0.2,0-0.3,0c-0.1,0-0.2,0-0.3,0.1c0,0-0.1,0.1-0.1,0.1c-0.1,0.1-0.2,0.2-0.2,0.3
			c0,0.1,0,0.1-0.1,0.2C57.8,39.6,57.8,39.8,57.9,39.9L57.9,39.9z"/>
		<path class="st6" d="M62.1,40.9c2.1,0.2,4,1.1,5.5,2.5c0.6,0.6,1.6-0.3,1-0.9c-1.7-1.8-4-2.8-6.5-3C61.2,39.4,61.2,40.8,62.1,40.9
			L62.1,40.9z"/>
		<path class="st6" d="M79.3,60.6c1.1,0.4,2.3,0.8,3.4,1.2c0.3,0.1,0.7-0.1,0.8-0.4c0.1-0.3-0.1-0.7-0.4-0.8c0,0,0,0,0,0
			c-1.1-0.4-2.3-0.8-3.4-1.2c-0.3-0.1-0.7,0.1-0.8,0.4C78.7,60,78.9,60.4,79.3,60.6C79.3,60.5,79.3,60.6,79.3,60.6L79.3,60.6z"/>
		<path class="st6" d="M26.1,54.6L26.1,54.6c0,0,0,0.1,0,0.1c0-0.1-0.1-0.3-0.1-0.5c0,0.1,0,0.1,0,0.2c0-0.2,0-0.4,0-0.6
			c0,0.1,0,0.1-0.1,0.2c0.1-0.2,0.1-0.3,0.2-0.5c0,0,0,0.1-0.1,0.2c0.1-0.1,0.1-0.1,0.1-0.2c0.2-0.3,0.1-0.8-0.2-1
			c-0.3-0.2-0.7-0.1-1,0.2c-0.2,0.4-0.4,0.8-0.4,1.2c0,0.2,0,0.4,0,0.6c0,0.2,0.1,0.4,0.2,0.7c0.1,0.2,0.2,0.3,0.4,0.3
			c0.2,0.1,0.4,0,0.6-0.1c0.2-0.1,0.3-0.2,0.3-0.4c0-0.1,0-0.1,0.1-0.2C26.1,54.8,26.1,54.7,26.1,54.6L26.1,54.6z"/>
		<g class="st7">
			<path class="st8" d="M35.9,44.8c0,2,1.1,7.2,1.9,8.1c1,1.2,8.4,3.7,11.4,3.5c1.6-0.1,2.6-1.9,3.5-3.2c0.6-0.9,1.6-2.5,2.6-2.7
				c0.7-0.1,1.7,1.1,2.2,2.2c0.4,0.9,1.4,3.1,2.2,3.6c0.4,0.3,11.6-1.2,12.9-3.2c0.8-1.2,1.9-5.2,2-7.7"/>
		</g>
		<path d="M35.4,44.8c0.1,2.2,0.5,4.3,1.2,6.4c0.2,0.8,0.5,1.5,0.9,2.1c0.5,0.5,1,0.8,1.7,1.1c2,0.9,4.2,1.7,6.4,2.1
			c1,0.2,2,0.4,3,0.5c1.1,0.1,2.1-0.3,2.9-1c0.9-0.9,1.6-1.9,2.3-3c0.3-0.5,0.7-1,1.2-1.4c0.6-0.5,0.9-0.4,1.4,0.1
			c0.9,0.9,1.3,2.2,1.9,3.3c0.3,0.6,0.9,1.8,1.7,2c0.4,0.1,0.8,0.1,1.3,0c0.8-0.1,1.6-0.2,2.3-0.3c1.9-0.3,3.8-0.6,5.7-1.1
			c0.9-0.2,1.8-0.6,2.7-0.9c0.6-0.2,1.1-0.6,1.5-1.2c0.6-1.1,1.1-2.3,1.3-3.5c0.4-1.4,0.6-2.9,0.7-4.4c0-0.7-1-0.7-1.1,0
			c-0.1,1.3-0.3,2.5-0.6,3.8c-0.2,1.1-0.6,2.1-1,3.2c-0.2,0.5-0.6,0.9-1.1,1.1c-0.7,0.3-1.3,0.6-2.1,0.8c-1.8,0.5-3.6,0.9-5.4,1.2
			c-1.3,0.2-2.6,0.4-3.9,0.5c-0.1,0-0.1,0-0.2,0c-0.1,0,0.1,0,0.1,0c-0.1-0.2-0.3-0.4-0.5-0.5c-0.2-0.2-0.3-0.5-0.5-0.8
			c-0.6-1-0.9-2.1-1.6-3.1c-0.6-0.9-1.5-1.9-2.7-1.4c-1.1,0.5-1.8,1.6-2.4,2.6c-0.6,0.9-1.3,2.1-2.2,2.8c-0.8,0.6-1.8,0.4-2.7,0.3
			c-2.1-0.3-4.2-0.9-6.2-1.7c-0.9-0.3-1.8-0.8-2.6-1.3c-0.6-0.3-0.7-0.8-0.9-1.4c-0.4-1.1-0.7-2.3-0.9-3.4c-0.3-1.1-0.4-2.2-0.4-3.3
			c0-0.3-0.3-0.5-0.6-0.5C35.6,44.4,35.4,44.6,35.4,44.8L35.4,44.8z"/>
		<path class="st9" d="M75.9,45.2c1.2-0.5,0.5-3.8-0.2-4.4c-0.1-0.1-2.4,2.2-3.4,1.9c-0.7-0.2-31.5-0.2-33.4-0.5
			c-0.8-0.7-2.6-1.7-3.1-1.9c-0.4-0.1-1.2,3.8,0.2,4.3C37.7,45.3,74.6,45.7,75.9,45.2z"/>
		<path d="M76.1,45.7c0.9-0.4,1-1.6,0.9-2.5s-0.3-2-0.9-2.7c-0.6-0.6-1.4,0.4-1.9,0.7c-0.6,0.4-1.3,1-2,0.9c-2-0.2-4.1-0.1-6.1-0.1
			c-4,0-7.9-0.1-11.9-0.1c-3.7,0-7.5-0.1-11.2-0.1c-1.1,0-2.3,0-3.4-0.1l-0.5,0H39c-0.1,0,0,0,0,0s0.1,0.1,0.1,0
			c0-0.1-0.1-0.1-0.2-0.1c-0.1-0.1-0.3-0.2-0.4-0.3c-0.3-0.2-0.6-0.4-0.9-0.6c-0.5-0.3-1-0.6-1.6-0.8c-1.6-0.5-1.5,3.3-1.2,4.1
			c0.4,1,1.1,1.2,2.1,1.2c2.6,0.2,5.2,0.3,7.9,0.3c4,0.1,8,0.2,12,0.2c3.9,0,7.8,0.1,11.7,0.1c2.3,0,4.7,0.1,7-0.1
			c0.2,0,0.4,0,0.6-0.1c0.6-0.2,0.4-1.3-0.3-1c-0.1,0-0.1,0-0.2,0c0.2,0-0.1,0-0.2,0c-0.3,0-0.7,0-1,0.1c-1,0-2.1,0.1-3.1,0.1
			c-3.3,0-6.5,0-9.8,0c-7.1-0.1-14.1-0.1-21.2-0.4c-1,0-2-0.1-3.1-0.2l-0.5,0c-0.1,0-0.5-0.1-0.3,0c-0.3,0-0.4-0.1-0.6-0.3
			c-0.3-0.7-0.2-1.7,0-2.4c0-0.2,0.1-0.4,0.1-0.5c0,0,0.1-0.2,0-0.1c0-0.1,0.1,0,0-0.1l-0.4,0.1l0.2,0.1c0.1,0,0.1,0.1,0.2,0.1
			c0.3,0.1,0.6,0.3,0.9,0.5c0.5,0.3,1,0.6,1.5,1c0.2,0.2,0.4,0.2,0.6,0.3c0.3,0,0.6,0,0.8,0.1c6.4,0.3,12.9,0.2,19.3,0.3
			c3.3,0,6.5,0,9.8,0.1c0.9,0,1.8,0,2.7,0.1c0.2,0,0.4,0,0.6,0c-0.3,0,0.1,0,0.1,0c0.2,0,0.3,0,0.5,0c0.5-0.1,0.9-0.4,1.3-0.6
			c0.4-0.3,0.7-0.5,1.1-0.8c0.2-0.1,0.3-0.2,0.5-0.4c0.2-0.1,0.2-0.1,0-0.1l-0.4-0.2c0.5,0.4,0.6,1.2,0.7,1.8
			c0.1,0.5,0.2,1.5-0.4,1.7C75,45,75.5,46,76.1,45.7z"/>
		<path class="st9" d="M44.2,27.6L44.2,27.6l0.2,0.1c0.1,0.1,0.2,0.1,0.4,0.2c0.3,0.2,0.6,0.3,0.8,0.5c0.1,0.1,0.2,0.1,0.3,0.2
			c-0.7-1.9-1.4-3.8-2-5.8c0-0.2-0.1-0.3-0.2-0.4c-0.2-0.1-0.4-0.2-0.6-0.2c-0.8-0.1-0.1,0.1-0.8,0.4c0.6,1.6,1.1,3.2,1.7,4.8
			C44.1,27.5,44.1,27.5,44.2,27.6z"/>
		<path d="M44,27.8c0.5,0.4,1.2,0.7,1.8,1.1c0.2,0.1,0.4,0,0.5-0.1c0-0.1,0.1-0.2,0-0.3c-0.6-1.7-1.3-3.4-1.8-5.2
			c-0.1-0.4-0.2-0.8-0.4-1.1c-0.2-0.3-0.6-0.4-0.9-0.4c-0.2-0.1-0.5,0-0.7,0.1c-0.1,0.1-0.1,0.1-0.1,0.2c0,0-0.1,0.1-0.2,0.1
			c-0.1,0.1-0.2,0.2-0.2,0.4c0.4,0.9,0.7,1.8,1,2.8c0.2,0.5,0.3,0.9,0.5,1.4c0.1,0.2,0.1,0.5,0.2,0.7C43.7,27.7,43.9,27.8,44,27.8
			c0.5,0.3,0.8-0.3,0.4-0.6c-0.1-0.1-0.2-0.1-0.3-0.2l0.2,0.2c-0.5-1.6-1.1-3.2-1.7-4.8l-0.2,0.4c0.2-0.1,0.4-0.2,0.5-0.4
			c0,0,0-0.1,0.1-0.1c0-0.2,0.1,0.4-0.2,0.2c0,0,0.3,0,0.4,0c0.1,0,0.3,0.1,0.4,0.2c0.1,0.2,0.1,0.3,0.2,0.5
			c0.1,0.4,0.2,0.7,0.4,1.1c0.5,1.5,1,2.9,1.5,4.3l0.5-0.4c-0.3-0.2-0.5-0.4-0.8-0.5c-0.3-0.1-0.5-0.3-0.8-0.5
			C44.1,27,43.6,27.5,44,27.8z"/>
		<path class="st10" d="M31,40.1c-0.1-1.1-0.8-2.8-1.1-3.9c-0.7-2.5-1.8-4.1-2.3-6.3c-0.3,0.4-0.5,0.8-0.8,1.1
			c-0.2,0.3-0.4,0.5-0.7,0.7c0,0.1,0,0.1,0.1,0.2c0.6,1.9,1.3,4.1,1.8,6.1c0.4,1.3,0.7,2.8,0.1,4c-1.1,2.5-3.9,3.9-6.7,4.7l0,0
			c0,0.9,0.1,1.7,0.2,2.6c2.8-0.9,5.3-1.9,6.1-2.6c1.8-1.7,2.7-3,3.1-4.6C31.1,41.4,31.1,40.7,31,40.1z"/>
		<path d="M31.4,40.1c-0.1-0.8-0.3-1.6-0.6-2.4c-0.3-0.9-0.5-1.7-0.8-2.6c-0.6-1.8-1.5-3.5-2-5.3c-0.1-0.2-0.3-0.3-0.5-0.2
			c-0.1,0-0.1,0.1-0.2,0.2c-0.3,0.6-0.8,1.2-1.4,1.7c-0.1,0.1-0.2,0.2-0.2,0.4c0.5,1.6,1,3.2,1.4,4.8c0.4,1.5,1.1,3.2,0.7,4.8
			c-0.3,1.4-1.5,2.5-2.6,3.2c-1.2,0.8-2.6,1.4-4,1.7c-0.2,0-0.3,0.2-0.3,0.3c0.1,0.9,0.1,1.7,0.2,2.6c0,0.2,0.2,0.4,0.3,0.4
			c0,0,0.1,0,0.1,0c2.4-0.8,5.1-1.5,6.9-3.3C30.2,44.7,31.6,42.4,31.4,40.1c0-0.5-0.7-0.5-0.7,0c0.2,2.2-1.2,4.3-2.7,5.8
			c-0.7,0.7-1.6,1.2-2.5,1.5c-1.3,0.5-2.6,1-4,1.4l0.5,0.3c-0.1-0.9-0.1-1.7-0.2-2.6L21.5,47c2.7-0.8,5.9-2.2,7-5.1
			c0.6-1.6,0-3.3-0.4-4.8c-0.5-1.8-1.1-3.6-1.6-5.4L26.3,32c0.7-0.5,1.2-1.2,1.6-1.9L27.3,30c0.4,1.8,1.3,3.4,1.9,5.1
			c0.3,0.8,0.5,1.6,0.8,2.4c0.3,0.8,0.6,1.7,0.7,2.5C30.7,40.5,31.4,40.6,31.4,40.1z"/>
		<path class="st10" d="M32.7,24.2c-0.5,0.4-1,0.9-1.5,1.3l0.3,0.2c0.9,0.7,2.2,1.2,2.9,2.1L35,26C34.1,25.3,33.4,24.7,32.7,24.2z"
			/>
		<path d="M32.4,23.9c-0.5,0.4-1,0.9-1.5,1.3c-0.2,0.2-0.1,0.4,0.1,0.6c0.3,0.2,0.5,0.4,0.8,0.6c0.3,0.2,0.5,0.3,0.8,0.5
			c0.5,0.3,1,0.7,1.4,1.1c0.1,0.2,0.3,0.2,0.5,0.1c0.1,0,0.1-0.1,0.2-0.2l0.7-1.8c0-0.1,0-0.3-0.1-0.3c-0.8-0.6-1.6-1.3-2.4-1.9
			C32.7,23.8,32.5,23.8,32.4,23.9c-0.1,0.3-0.1,0.5,0.1,0.6c0.8,0.6,1.5,1.2,2.3,1.8l-0.1-0.3L34,27.7l0.6-0.1c-0.4-0.5-1-1-1.6-1.3
			c-0.3-0.2-0.6-0.3-0.8-0.5s-0.6-0.4-0.9-0.6l0.1,0.6c0.5-0.4,1-0.9,1.5-1.3c0.1-0.1,0.1-0.4,0-0.5C32.8,23.8,32.6,23.8,32.4,23.9z
			"/>
		<path class="st10" d="M37.5,25.9c-0.2-0.1-0.4-0.2-0.6-0.3c-0.1,0-0.2-0.1-0.2-0.1c-0.1,0-0.2,0.1-0.2,0.2
			c-0.2,0.3-0.3,0.5-0.4,0.8c-0.3,1-0.6,1.8-1,2.9c-0.1,0.2-0.1,0.5,0,0.7c0.1,0.2,0.6,0.4,0.8,0.4"/>
		<path d="M37.6,25.6c-0.3-0.2-0.7-0.4-1-0.4c-0.4,0-0.5,0.3-0.7,0.6c-0.3,0.7-0.5,1.4-0.7,2.1c-0.1,0.3-0.2,0.7-0.4,1
			c-0.1,0.3-0.2,0.6-0.2,1c0,0.3,0.1,0.6,0.4,0.8c0.2,0.2,0.5,0.3,0.8,0.3c0.2,0,0.4-0.2,0.4-0.4c0-0.2-0.2-0.3-0.4-0.4
			c-0.2,0-0.3-0.1-0.5-0.2c-0.1-0.1,0-0.3,0-0.4c0.1-0.5,0.3-1,0.5-1.5c0.2-0.5,0.3-0.9,0.5-1.4c0-0.1,0.1-0.3,0.2-0.4
			c0.1-0.1,0.1-0.3,0.2-0.3c-0.1,0.1,0.1,0.1,0.2,0.1c0.1,0,0.3,0.1,0.4,0.2C37.7,26.4,38,25.8,37.6,25.6L37.6,25.6z"/>
		<path class="st10" d="M36.3,25.8c-0.2-0.1-0.4-0.2-0.6-0.3c-0.1,0-0.2-0.1-0.2-0.1c-0.1,0-0.2,0.1-0.2,0.1
			c-0.1,0.2-0.2,0.5-0.3,0.7c-0.3,0.8-0.5,1.5-0.8,2.4c-0.1,0.2-0.1,0.4,0,0.6c0.2,0.2,0.5,0.4,0.8,0.4"/>
		<path d="M36.4,25.5c-0.3-0.2-0.6-0.3-0.9-0.4c-0.3-0.1-0.6,0.1-0.7,0.4c-0.2,0.3-0.3,0.6-0.4,1c-0.1,0.3-0.2,0.6-0.3,0.9
			c-0.1,0.3-0.2,0.6-0.3,0.9c-0.1,0.3-0.1,0.6-0.1,0.9c0.1,0.5,0.6,0.8,1.1,0.9c0.2,0,0.4-0.1,0.4-0.2c0-0.2-0.1-0.4-0.2-0.4
			c-0.2,0-0.3-0.1-0.5-0.2c-0.2-0.1-0.2-0.1-0.2-0.3c0-0.2,0.1-0.4,0.2-0.6c0.1-0.2,0.2-0.5,0.2-0.7c0.2-0.5,0.3-0.9,0.4-1.4
			c0-0.1,0.1-0.2,0.1-0.3c0,0,0.1-0.1,0.1-0.1c0.1-0.1,0.1-0.1,0,0c-0.1,0-0.1,0,0,0s0.2,0.1,0.3,0.1l0.4,0.2
			C36.5,26.3,36.8,25.7,36.4,25.5L36.4,25.5z"/>
		<path class="st10" d="M46.2,28.4c1.9,1.5,3.8,2.9,5.8,4.2c0.1,0.1,0.3,0.2,0.4,0.3c0.1,0.2,0.1,0.3,0,0.5
			c-0.1,0.7-0.3,1.3-0.6,1.9c0.1-0.5-0.1-1.3-0.6-1.5s-1.2,0.2-1.5,0.5c0-0.4-0.1-0.7-0.2-1.1c-0.1-0.3-0.5-0.6-0.9-0.5
			c-0.4,0.1-0.6,0.4-1,0.5c0.1-0.8-0.5-1.5-1.3-1.5c0,0,0,0,0,0c-0.5,0-1.3,0.5-1.7,0.3c-0.4-0.2-0.4-0.7-0.5-1.1
			C44,30.4,44,30,43.9,29.6c-0.3,0.7-0.5,1.4-0.5,2.1c-0.1,0.8,0.2,1.5,0.7,2c0.6,0.5,1.4,0.5,2,0.1c-0.2,0.7,0.1,1.5,0.8,1.7
			c0.7,0.2,1.4,0.1,2-0.4c0,0.5,0.3,1,0.7,1.3c0.5,0.2,1.2,0.2,1.7-0.1c-0.3,0.6-1,1-1.7,1c-0.6,0-1.2-0.2-1.8-0.4
			c-2.4-0.9-4.8-1.9-7.2-2.8c-1.5-1-0.4-2.4-1.5-3.3c-0.3-0.1-0.4,0.1-0.5,0.3c-0.1,0.3-0.4,0.4-0.7,0.5c-0.5,0-0.9-0.1-1.3-0.4
			c-0.2-0.1-0.5-0.3-0.6-0.5c-0.1-0.1-0.1-0.3-0.1-0.5c0.2-1.3,0.7-2.6,1.3-3.8c0.1-0.1,0.2-0.8,0.5-0.8c0.5,0,1,0.1,1.4,0.4
			c0.5,0.3,0.4,1.1,1.2,1.4c0.4,0.2,1.5-0.5,1.8-0.7c0.4-0.2,0.8-0.2,1.2,0c0.5,0.2,0.9,0.4,1.3,0.7C45.4,27.9,45.6,27.9,46.2,28.4z
			"/>
		<path d="M45.9,28.6c1.2,1,2.5,1.9,3.8,2.8c0.7,0.5,1.3,0.9,2,1.3c0.5,0.3,0.4,0.5,0.3,1c-0.1,0.5-0.3,0.9-0.5,1.3l0.7,0.2
			c0.1-0.6-0.1-1.5-0.7-1.8s-1.5,0.1-2,0.6l0.6,0.2c0-0.7-0.1-1.4-0.7-1.8c-0.7-0.5-1.1,0.1-1.8,0.3l0.4,0.3c0.1-1-0.7-1.8-1.6-1.9
			c-0.1,0-0.1,0-0.2,0c-0.4,0-1.3,0.6-1.6,0.1c-0.1-0.3-0.2-0.6-0.2-0.8c0-0.3-0.1-0.7-0.1-1c-0.1-0.3-0.6-0.3-0.7,0
			c-0.5,1.3-0.9,2.8-0.1,4.1c0.6,0.9,1.8,1.2,2.7,0.7c0.1,0,0.2-0.1,0.2-0.2l-0.6-0.3c-0.3,0.8,0.1,1.7,0.8,2.1
			c0.9,0.4,1.9,0.2,2.5-0.4l-0.6-0.2c0.1,1.6,1.6,2.2,2.9,1.5L51,36.2c-0.6,1.3-2.3,0.7-3.3,0.3c-1.3-0.5-2.6-1-3.8-1.5L42,34.3
			c-0.7-0.3-1.5-0.5-1.8-1.2c-0.3-0.7-0.1-1.5-0.5-2.2c-0.2-0.3-0.6-0.5-0.9-0.4c-0.1,0.1-0.3,0.2-0.3,0.3c-0.3,0.4-0.3,0.6-0.8,0.5
			c-0.4-0.1-1.1-0.4-1.3-0.8c0-0.3,0-0.6,0.2-0.9c0.1-0.3,0.2-0.7,0.3-1c0.2-0.6,0.5-1.2,0.8-1.8c0.2-0.4,0.2-0.9,0.8-0.8
			c0.5,0.1,0.9,0.4,1.1,0.9c0.2,0.4,0.5,0.7,0.9,0.9c0.7,0.3,1.5-0.4,2.1-0.7c0.6-0.3,1.5,0.2,2.1,0.6S45.5,28.3,45.9,28.6
			c0.4,0.3,0.8-0.3,0.4-0.5c-1-0.7-2.2-1.7-3.5-1.8c-0.8,0-2,1.3-2.6,0.6c-0.3-0.3-0.4-0.7-0.7-1c-0.5-0.4-1.1-0.6-1.7-0.6
			c-0.4,0.1-0.6,0.4-0.7,0.7c-0.2,0.6-0.5,1.1-0.7,1.6c-0.3,0.7-0.5,1.4-0.7,2.2c-0.1,0.5-0.2,1,0.2,1.4c0.6,0.6,2.1,1.3,2.8,0.4
			c0.1-0.1,0.1-0.2,0.2-0.3c0.2-0.1-0.1-0.2,0.2,0c0.2,0.2,0.2,0.5,0.3,0.7c0,0.5,0.1,1,0.3,1.5c0.2,0.4,0.5,0.8,0.9,1
			c0.8,0.4,1.7,0.7,2.5,1c1.8,0.7,3.5,1.4,5.3,2c1.1,0.4,2.7,0.3,3.3-1c0.1-0.2,0-0.4-0.2-0.5c-0.1,0-0.2,0-0.3,0
			c-0.8,0.4-1.8,0.1-1.9-0.9c0-0.2-0.2-0.4-0.4-0.3c-0.1,0-0.2,0-0.2,0.1c-0.4,0.4-1.1,0.6-1.7,0.3c-0.5-0.2-0.7-0.8-0.5-1.3
			c0.1-0.4-0.3-0.6-0.6-0.3c-0.9,0.7-1.9-0.2-2.1-1.1c-0.2-0.9,0.2-1.9,0.5-2.8h-0.7c0.1,0.8,0,2.3,1,2.5c0.4,0,0.9,0,1.3-0.2
			c0.5-0.2,1.1,0.1,1.3,0.7c0,0.1,0.1,0.3,0.1,0.4c0,0.2,0.2,0.4,0.4,0.4c0,0,0.1,0,0.1,0c0.3-0.1,0.6-0.4,0.9-0.4
			c0.6,0,0.6,0.8,0.7,1.2c0,0.2,0.2,0.4,0.4,0.3c0.1,0,0.2,0,0.2-0.1c0.3-0.3,0.9-0.7,1.2-0.4c0.2,0.3,0.3,0.7,0.2,1.1
			c0,0.4,0.5,0.5,0.7,0.2c0.5-0.7,0.7-1.6,0.7-2.4c-0.1-0.7-1.1-1.1-1.7-1.5c-1.6-1.1-3.2-2.2-4.7-3.5
			C46.1,27.8,45.5,28.3,45.9,28.6z"/>
		<path class="st6" d="M42.2,29.2c0.4,0.3,0.2,0.9,0,1.3c-0.3,0.4-0.9,0.6-1.3,0.3c-0.4-0.3-0.6-0.9-0.3-1.3c0-0.1,0.1-0.2,0.2-0.3
			c0.2-0.1,0.4-0.3,0.6-0.3C41.8,28.8,42.1,29,42.2,29.2"/>
		<path d="M42.2,29.4c0.1,0.1,0.1,0.2,0.1,0.3c0,0.2,0,0.3-0.1,0.5c-0.1,0.3-0.4,0.5-0.8,0.5c-0.4,0-0.8-0.4-0.7-0.9
			c0-0.1,0-0.1,0-0.2c0.1-0.2,0.2-0.3,0.4-0.4c0.1-0.1,0.2-0.1,0.3-0.1c0.1,0,0.1,0,0.2,0C41.8,29.1,42,29.2,42.2,29.4
			c0.1,0.2,0.4-0.1,0.2-0.2c-0.2-0.2-0.4-0.3-0.6-0.4h-0.1h-0.1h0l0,0c-0.1,0-0.3,0-0.4,0.1c-0.1,0.1-0.2,0.1-0.3,0.2
			c-0.1,0.1-0.2,0.2-0.3,0.3c-0.1,0.2-0.2,0.4-0.1,0.7c0,0.5,0.4,0.9,0.9,1c0.5,0.1,0.9-0.2,1.2-0.6c0.3-0.4,0.2-1-0.2-1.3
			c-0.1,0-0.2,0-0.2,0.1C42,29.2,42.1,29.3,42.2,29.4L42.2,29.4z"/>
		<path d="M42.2,29.2c-0.4,0-0.7,0.2-0.9,0.5c-0.1,0.2-0.2,0.3-0.1,0.5c0.1,0.2,0.1,0.3,0.2,0.5c0,0.1,0.1,0.1,0.2,0.1
			c0.1,0,0.1-0.1,0.1-0.2v-0.1c0,0,0,0,0-0.1c0,0,0,0,0,0c0-0.1,0-0.1,0-0.2c0,0,0-0.1,0-0.1c0,0,0,0,0,0c0,0,0,0,0,0c0,0,0,0,0-0.1
			l0,0c0,0,0,0,0,0l0,0l0.1-0.1l0,0l0,0l0,0l0.1-0.1l0.1,0l0,0l0,0c0,0,0,0,0,0s0,0-0.1,0c0,0,0,0,0,0l0,0c0,0,0,0.1,0,0.1
			c0,0.1-0.1,0.2-0.1,0.2c0,0.1-0.1,0.1-0.2,0.2c0,0-0.1,0.1-0.1,0.1l-0.1,0l0,0h0c0,0,0,0,0.1,0l0.1,0c0.1,0.1,0,0.1,0,0l0,0
			c0,0,0,0,0,0c0,0,0,0,0,0c0,0,0-0.1,0-0.1c0-0.1,0.1-0.1,0.2-0.2L42,30l0.1,0h0l0,0l0,0c0,0,0,0,0,0c0,0,0,0,0,0s0,0,0,0
			c0,0,0,0.1,0,0c0,0,0,0,0,0.1c0,0,0,0,0,0l0,0c0,0-0.1,0.1-0.1,0.1c-0.1,0.1-0.2,0.1-0.3,0.1h-0.1l0,0l0,0l0,0c0,0,0,0,0,0
			c0,0,0,0,0,0l0,0v0c0,0,0,0,0,0c0,0,0,0,0,0s0,0,0,0s0,0,0,0c0,0,0,0,0,0l0,0l0-0.1l0,0l0,0l0.1,0l0,0h0l0,0h0l0,0h0h0l0,0h0
			c0,0,0.1,0,0,0l-0.1-0.2c-0.1,0.3-0.3,0.6-0.5,0.8l0.3,0.1c0,0,0-0.1,0-0.1c0,0,0,0,0,0c0,0,0,0,0,0c0,0,0-0.1,0-0.1v0
			c0,0,0,0,0,0l0-0.1c0,0,0,0,0,0c0,0,0,0,0,0c0-0.1,0.1-0.1,0.1-0.1l-0.3-0.2c-0.1,0.2-0.2,0.3-0.3,0.4c-0.2,0.2,0.1,0.4,0.2,0.2
			c0.1-0.1,0.3-0.3,0.4-0.5c0-0.1,0-0.2,0-0.2c-0.1-0.1-0.2-0.1-0.2,0c-0.2,0.2-0.4,0.5-0.4,0.8c0,0.1,0.1,0.2,0.2,0.2
			c0,0,0.1,0,0.1,0c0.3-0.3,0.5-0.6,0.6-0.9c0-0.1,0-0.2-0.1-0.2c-0.3,0-0.6,0.1-0.7,0.3c-0.1,0.2-0.2,0.6,0.1,0.7
			c0.2,0.1,0.3,0,0.5-0.1c0.1-0.1,0.3-0.2,0.4-0.3c0.1-0.1,0.2-0.2,0.2-0.4c0-0.2-0.1-0.3-0.3-0.3c-0.2,0-0.3,0.1-0.4,0.2
			c-0.1,0.1-0.2,0.2-0.3,0.3c-0.1,0.1-0.1,0.3-0.1,0.4c0,0.1,0.1,0.2,0.2,0.2c0.1,0,0.2,0,0.2-0.1c0.2-0.2,0.4-0.4,0.5-0.6
			c0.1-0.1,0.1-0.3,0.1-0.5c-0.1-0.2-0.3-0.2-0.5-0.1c0,0,0,0,0,0c-0.2,0.1-0.4,0.3-0.5,0.5C41,30.4,41,30.6,41,30.9l0.3-0.1
			c0-0.1-0.1-0.1-0.1-0.2l0-0.1v0c0,0,0,0,0,0s0,0,0,0l0,0c0,0,0,0,0,0c0,0,0,0,0,0c0-0.1,0.1-0.1,0.1-0.2c0,0,0.1-0.1,0.1-0.1
			c0,0,0.1-0.1,0.2-0.1c0.1,0,0.1-0.1,0.2-0.1l0.1,0h0.1c0.1,0,0.2-0.1,0.2-0.2c0-0.1-0.1-0.2-0.2-0.2L42.2,29.2z"/>
		<path d="M41.3,28.7L41.3,28.7l-0.1-0.1l0,0c0,0,0,0,0,0c-0.1,0-0.1-0.1-0.2-0.2l0,0c0,0,0,0,0,0s0,0,0,0l0,0c0,0,0-0.1-0.1-0.1
			c0,0,0,0,0,0c0,0,0,0,0,0l0,0l0-0.1c0-0.1-0.1-0.2-0.2-0.1c-0.1,0-0.1,0.1-0.1,0.2c0,0.2,0.1,0.3,0.2,0.5c0.1,0.1,0.2,0.2,0.4,0.3
			c0.1,0,0.2,0,0.2-0.1c0-0.1,0-0.2-0.1-0.2L41.3,28.7z"/>
		<path d="M41.8,31.1c-0.5,0.1-0.9,0-1.3-0.3c-0.1,0-0.2,0-0.2,0.1c0,0.1,0,0.2,0.1,0.2c0.5,0.3,1,0.4,1.6,0.3
			c0.1,0,0.1-0.1,0.1-0.2c0,0,0,0,0,0C41.9,31.1,41.9,31.1,41.8,31.1z"/>
		<path d="M40.8,29L40.8,29L40.8,29c-0.1,0-0.2-0.1-0.3-0.2l0,0c-0.1-0.1-0.1-0.1-0.2-0.2c-0.1-0.1-0.2-0.1-0.2,0c0,0,0,0,0,0
			c-0.1,0.1-0.1,0.2,0,0.2c0.2,0.2,0.4,0.3,0.6,0.4c0,0,0.1,0,0.1,0c0,0,0.1-0.1,0.1-0.1c0,0,0-0.1,0-0.1
			C40.9,29.1,40.8,29.1,40.8,29L40.8,29z"/>
		<path d="M40.5,29.6l-0.2,0l-0.1,0h0h0l0,0h0l-0.1,0l-0.1-0.1l0,0c0,0-0.1,0,0,0c0,0-0.1,0-0.1-0.1c0,0-0.1,0-0.1,0.1
			c-0.1,0.1-0.1,0.2,0,0.2c0,0,0,0,0,0c0.2,0.2,0.5,0.3,0.8,0.4c0,0,0.1,0,0.1,0c0,0,0.1-0.1,0.1-0.1C40.7,29.8,40.6,29.7,40.5,29.6
			C40.5,29.7,40.5,29.7,40.5,29.6L40.5,29.6z"/>
		<path class="st9" d="M49.8,39.3c-0.6-2-1.3-4-2-5.9c0,0-0.1,0-0.1-0.1c-0.2-0.1-0.3-0.3-0.4-0.5c0,0,0-0.1,0-0.1
			c0-0.1-0.1-0.1-0.1-0.2L47,32.5c0,0,0,0,0,0l0,0l-0.1-0.1c0-0.1-0.1-0.1-0.1-0.1l-0.1-0.1l0,0c-0.2,0-0.3,0.1-0.5,0.1
			c-0.2,0-0.4,0-0.5,0c-0.1,0-0.3-0.1-0.4-0.2c0.8,3.1,1.5,6.2,2.1,9.3c0.8,0,0.3,0,1-0.2c0.7-0.3,1.4-0.9,1.2-1.7L49.8,39.3z"/>
		<path d="M50.1,39.2c-0.4-1.3-0.8-2.6-1.3-3.9c-0.2-0.6-0.5-1.2-0.7-1.9c-0.1-0.3-0.2-0.3-0.4-0.5c-0.2-0.2-0.2-0.4-0.3-0.6
			c-0.1-0.2-0.3-0.2-0.5-0.1c-0.1,0.1-0.2,0.2-0.1,0.4l0,0l0.6-0.3c-0.1-0.2-0.3-0.4-0.5-0.5c-0.2-0.1-0.4,0-0.6,0
			c-0.3,0-0.6,0-0.8-0.2c-0.2-0.1-0.4,0-0.5,0.1c0,0.1-0.1,0.2,0,0.3c0.8,3.1,1.5,6.2,2.1,9.3c0,0.2,0.2,0.3,0.3,0.3
			c0.2,0,0.5,0,0.7-0.1c0.3-0.1,0.6-0.3,0.9-0.5c0.4-0.2,0.6-0.5,0.8-0.9c0.1-0.3,0.1-0.6,0.2-0.8c0.2-0.4-0.4-0.7-0.6-0.4
			c-0.1,0.2-0.2,0.4-0.1,0.6c-0.1,0.4-0.3,0.8-0.7,0.9c-0.2,0.2-0.5,0.2-0.8,0.4c-0.1,0.1,0.1,0,0,0c-0.1,0-0.3,0-0.4,0l0.3,0.3
			c-0.5-3.1-1.2-6.2-2.1-9.3l-0.5,0.4c0.5,0.3,1.1,0.3,1.7,0.2l-0.3,0c0.1,0.1,0.1,0.1,0.2,0.2c0.1,0.2,0.3,0.2,0.5,0.1
			c0.1-0.1,0.2-0.2,0.2-0.4l0,0l-0.6,0.3c0.1,0.2,0.2,0.4,0.3,0.6s0.3,0.2,0.4,0.4c0.2,0.3,0.3,0.7,0.4,1c0.1,0.3,0.2,0.6,0.3,0.9
			c0.5,1.3,0.9,2.5,1.3,3.8C49.6,39.8,50.2,39.6,50.1,39.2z"/>
		<path class="st9" d="M66.2,26.9c0.5-1.5,1-3,1.6-4.5C67.7,22,67.7,22,67,22c-0.2,0-0.4,0.1-0.6,0.2c-0.1,0.1-0.2,0.3-0.2,0.4
			c-0.5,1.8-1.2,3.5-1.8,5.3"/>
		<path d="M66.6,27c0.3-1,0.7-2,1-3c0.2-0.5,0.4-1,0.5-1.5c0.1-0.3,0-0.5-0.2-0.8c-0.2-0.2-0.4-0.2-0.6-0.2c-0.4,0-0.8,0.1-1.1,0.3
			c-0.3,0.3-0.5,0.7-0.5,1.1c-0.2,0.5-0.3,1-0.5,1.5c-0.4,1.1-0.8,2.2-1.2,3.3c-0.2,0.4,0.5,0.6,0.7,0.2c0.4-1.1,0.8-2.1,1.1-3.2
			c0.2-0.5,0.3-1,0.5-1.5c0.1-0.2,0.1-0.5,0.2-0.7c0.1-0.2,0.3-0.2,0.5-0.2c0.2,0,0.3,0,0.5,0c0,0-0.1-0.1-0.1-0.1s0,0,0,0
			c0,0,0,0.1,0,0.1v0.1c0,0,0,0,0,0c0,0.1-0.1,0.3-0.2,0.4c-0.1,0.3-0.2,0.5-0.3,0.8c-0.4,1.1-0.7,2.1-1.1,3.2
			C65.7,27.2,66.4,27.4,66.6,27L66.6,27z"/>
		<path class="st10" d="M81.5,25.2c-0.5-0.3-0.9-0.8-1.1-1.4c-0.6,0.4-1.2,0.8-1.9,1.2v2.1C79.4,26.5,80.4,25.8,81.5,25.2L81.5,25.2
			z"/>
		<path d="M81.7,24.9c-0.4-0.3-0.8-0.7-0.9-1.2c-0.1-0.2-0.3-0.3-0.4-0.2c0,0-0.1,0-0.1,0c-0.5,0.3-0.9,0.6-1.4,0.9
			c-0.2,0.1-0.6,0.3-0.6,0.6c0,0,0,0.1,0,0.1v2c0,0.2,0.2,0.4,0.4,0.3c0.1,0,0.2,0,0.2-0.1c0.3-0.3,0.7-0.6,1.1-0.8
			c0.6-0.4,1.2-0.7,1.8-1.1c0.2-0.1,0.2-0.3,0.1-0.5C81.8,25,81.7,25,81.7,24.9L81.7,24.9c-0.1-0.1-0.3,0-0.4,0.1
			c-0.1,0.2,0,0.4,0.1,0.5l0,0v-0.6c-0.6,0.3-1.2,0.7-1.8,1.1c-0.4,0.3-0.8,0.6-1.2,0.9l0.6,0.2v-2.1l-0.2,0.3
			c0.6-0.4,1.3-0.8,1.9-1.2l-0.5-0.2c0.2,0.7,0.6,1.3,1.2,1.6C81.7,25.8,82,25.2,81.7,24.9z"/>
		<path class="st10" d="M90.8,44.9c-0.1-0.3-0.1-2-0.1-2.3c0,0,0,0,0-0.1c-1.8-0.8-3.9-2.1-4.1-2.9c-0.3-1.3,0.3-2.6,0.6-3.9
			c0.1-0.6,0.3-1.6,0.5-2.7c-0.7-0.9-1.3-1.9-1.9-2.8c-0.7,3-1.6,6.5-1.8,7.3c-0.7,2.6,0.8,4.8,2,5.9c0,0,2.9,1.7,4.9,1.9
			C90.9,45.1,90.9,45,90.8,44.9z"/>
		<path d="M91.2,44.8c-0.1-0.5-0.1-1-0.1-1.5c0-0.5,0.1-0.9-0.4-1.1c-0.7-0.3-1.5-0.7-2.2-1.2c-0.6-0.3-1.1-0.8-1.5-1.3
			c-0.4-0.8,0-1.9,0.2-2.7c0.2-0.8,0.4-1.5,0.5-2.3c0.1-0.5,0.2-0.9,0.2-1.4s0-0.5-0.3-0.8c-0.6-0.8-1.1-1.7-1.7-2.5
			c-0.1-0.2-0.3-0.2-0.5-0.1c-0.1,0-0.1,0.1-0.2,0.2c-0.4,1.7-0.8,3.3-1.2,5c-0.3,1.1-0.6,2.2-0.8,3.3c-0.1,1.5,0.4,3,1.3,4.2
			c0.5,0.7,1.2,1.2,1.9,1.5c1.3,0.7,2.7,1.3,4.2,1.5c0.3,0,0.4-0.2,0.3-0.5L91.2,44.8c0-0.5-0.7-0.3-0.7,0.2l0.1,0.4l0.3-0.4
			c-1.5-0.2-2.9-0.9-4.2-1.6c-1.1-0.7-2-1.7-2.3-3c-0.5-1.5,0-2.9,0.4-4.4c0.5-1.9,0.9-3.7,1.4-5.6l-0.6,0.1
			c0.5,0.9,1.1,1.7,1.7,2.5c0.1,0.1,0.2,0.3,0.2,0.5c0,0.2-0.1,0.5-0.1,0.7c-0.1,0.4-0.1,0.8-0.2,1.1c-0.2,0.9-0.4,1.7-0.6,2.6
			c-0.2,0.7-0.2,1.5,0,2.2c0.3,0.5,0.6,0.9,1.1,1.2c0.7,0.5,1.4,1,2.2,1.3c0.2,0.1,0.3,0.2,0.5,0.2c0.1,0.1,0.2,0.1,0.2,0v0.1
			c0,0.2,0.1,0.5,0,0.8c0,0.5,0,1,0.1,1.5C90.6,45.4,91.3,45.3,91.2,44.8z"/>
		<path class="st10" d="M75.8,24.6c0.2-0.1,0.4-0.2,0.6-0.2c0.1,0,0.2,0,0.2,0c0.1,0,0.2,0.1,0.2,0.2c0.1,0.3,0.2,0.6,0.3,0.9
			c0.2,1,0.4,1.8,0.6,2.9c0,0.2,0,0.5-0.1,0.7c-0.2,0.2-0.5,0.3-0.8,0.3"/>
		<path d="M75.9,24.9l0.4-0.2c0.1,0,0.2,0,0.2-0.1c0.1-0.1,0,0,0-0.1c0.1,0.3,0.2,0.5,0.2,0.8c0.1,0.5,0.2,1,0.3,1.5
			c0.1,0.5,0.2,1,0.3,1.5c0,0.2,0,0.3-0.1,0.4C77.2,28.9,77,29,76.8,29c-0.2,0-0.4,0.2-0.4,0.4c0,0.2,0.2,0.4,0.4,0.4
			c0.5,0,1.1-0.2,1.2-0.8c0-0.3,0-0.6-0.1-0.9c-0.1-0.4-0.2-0.7-0.2-1.1c-0.2-0.7-0.3-1.4-0.5-2.1c-0.1-0.3-0.2-0.6-0.5-0.7
			c-0.3-0.1-0.8,0.1-1.1,0.2c-0.2,0.1-0.3,0.2-0.2,0.4C75.5,24.9,75.7,25,75.9,24.9L75.9,24.9z"/>
		<path class="st10" d="M76.9,24.6c0.2-0.1,0.4-0.2,0.6-0.2c0.1,0,0.2,0,0.2,0c0.1,0,0.2,0.1,0.2,0.1c0.1,0.2,0.2,0.5,0.2,0.7
			c0.2,0.8,0.3,1.5,0.5,2.5c0,0.2,0,0.4-0.1,0.6c-0.2,0.2-0.5,0.3-0.8,0.3"/>
		<path d="M77,25l0.4-0.1c0.1,0,0.2-0.1,0.4-0.1c0,0-0.1-0.2-0.1,0c0,0.1,0,0.1,0.1,0.2c0,0.1,0.1,0.2,0.1,0.4
			c0.1,0.5,0.2,0.9,0.3,1.4c0,0.2,0.1,0.5,0.1,0.7c0.1,0.2,0.1,0.4,0.1,0.6c0,0,0,0.1,0,0.1c0,0-0.1,0.1,0,0.1c0,0-0.1,0.1-0.1,0.1
			c-0.1,0.1-0.3,0.1-0.5,0.1c-0.5,0-0.5,0.7,0,0.7c0.5,0,1.1-0.2,1.2-0.7c0.1-0.3,0.1-0.6,0-0.9c-0.1-0.3-0.1-0.6-0.2-1
			c-0.1-0.3-0.1-0.6-0.2-0.9c0-0.3-0.1-0.6-0.2-0.9c-0.1-0.3-0.3-0.6-0.6-0.6c-0.3,0-0.6,0.1-0.9,0.3c-0.2,0.1-0.3,0.2-0.2,0.4
			C76.7,24.9,76.9,25,77,25C77,25,77,25,77,25L77,25z"/>
		<path class="st10" d="M67,26c-2,1.3-4.1,2.4-6.2,3.4c-0.2,0.1-0.3,0.1-0.4,0.3c-0.1,0.1-0.1,0.3-0.1,0.5c0,0.7,0.1,1.3,0.4,1.9
			c0-0.5,0.2-1.3,0.7-1.4c0.5-0.2,1.1,0.3,1.4,0.7c0-0.4,0.1-0.7,0.3-1c0.2-0.3,0.5-0.5,0.9-0.4c0.3,0.1,0.6,0.5,0.9,0.6
			c0-0.8,0.7-1.4,1.5-1.3c0.5,0.1,1.2,0.6,1.7,0.5c0.4-0.1,0.4-0.7,0.6-1c0.1-0.4,0.2-0.7,0.3-1.1c0.2,0.7,0.3,1.4,0.3,2.2
			c0,0.7-0.4,1.4-0.9,1.9c-0.6,0.4-1.5,0.4-2-0.2c0.2,0.7-0.3,1.4-0.9,1.6c-0.7,0.2-1.4-0.1-1.9-0.6c-0.1,0.5-0.4,1-0.9,1.2
			c-0.6,0.2-1.2,0.1-1.6-0.3c0.3,0.6,0.8,1.1,1.5,1.2c0.6,0,1.2,0,1.8-0.2c2.4-0.6,4.9-1.3,7.4-1.9c1.6-0.8,0.7-2.3,1.9-3.1
			c0.3-0.1,0.4,0.1,0.5,0.3c0.1,0.3,0.3,0.5,0.6,0.6c0.4,0,0.9,0,1.3-0.2c0.3-0.1,0.5-0.3,0.7-0.5c0.1-0.1,0.1-0.3,0.1-0.4
			c-0.1-1.3-0.4-2.7-0.9-3.9c-0.1-0.1-0.1-0.8-0.4-0.9c-0.5-0.1-1,0-1.4,0.2c-0.5,0.2-0.5,1-1.4,1.3c-0.4,0.1-1.5-0.7-1.7-0.9
			c-0.3-0.2-0.8-0.2-1.1-0.1c-0.5,0.1-1,0.3-1.4,0.5C67.8,25.7,67.6,25.7,67,26z"/>
		<path d="M66.8,25.7c-1.6,1-3.3,2-5,2.9c-0.6,0.3-1.6,0.5-1.8,1.2c-0.1,0.9,0,1.7,0.4,2.5c0.2,0.3,0.6,0.2,0.7-0.2
			c0-0.3,0.1-0.9,0.4-1.1c0.4-0.2,0.9,0.3,1.1,0.6c0.1,0.1,0.4,0.1,0.5,0c0,0,0.1-0.1,0.1-0.1c0.1-0.4,0.2-1.3,0.8-1.2
			c0.3,0,0.6,0.4,0.9,0.5c0.2,0.1,0.4,0,0.5-0.2c0,0,0-0.1,0-0.1c0-0.8,0.8-1.1,1.5-0.8c0.4,0.2,0.8,0.3,1.3,0.3
			c0.9-0.2,0.9-1.7,1.1-2.4h-0.7c0.2,0.9,0.5,2,0.1,2.9c-0.3,0.8-1.4,1.4-2.1,0.6c-0.1-0.1-0.4-0.1-0.5,0c-0.1,0.1-0.1,0.2-0.1,0.3
			c0.1,0.5-0.2,1.1-0.8,1.2c0,0,0,0,0,0c-0.5,0.1-1.1-0.2-1.4-0.6c-0.1-0.1-0.4-0.1-0.5,0c0,0-0.1,0.1-0.1,0.2
			c-0.2,1.1-1.2,1.2-2,0.7c-0.2-0.1-0.4,0-0.5,0.1c0,0.1-0.1,0.2,0,0.3c0.4,1.1,1.6,1.6,2.6,1.4c0.8-0.1,1.6-0.3,2.4-0.6l2.5-0.6
			l2.2-0.6c0.7-0.2,1.5-0.3,2-0.8c0.3-0.3,0.5-0.7,0.6-1.1c0.1-0.4,0.1-1,0.4-1.3c0.3-0.3,0.2,0,0.4,0.2c0.1,0.2,0.3,0.3,0.4,0.4
			c0.5,0.2,1.1,0.1,1.5-0.1c0.5-0.1,0.9-0.4,1.1-0.8c0.2-0.5,0-1.3-0.1-1.8c-0.1-0.8-0.4-1.5-0.6-2.2c-0.1-0.4-0.2-0.9-0.5-1.3
			c-0.6-0.7-2.1-0.1-2.5,0.6c-0.1,0.2-0.3,0.5-0.6,0.6c-0.3,0.2-0.5,0-0.8-0.1c-0.4-0.3-0.8-0.6-1.3-0.8c-0.7-0.2-1.4,0.2-2,0.4
			S67.4,25.4,66.8,25.7c-0.4,0.2,0,0.8,0.4,0.6c0.9-0.5,2-1.2,3-1.3c0.8-0.1,1.4,0.9,2.2,1.1c0.8,0.1,1.2-0.7,1.6-1.2
			c0.2-0.2,0.4-0.3,0.6-0.3c0.3-0.1,0.6-0.1,0.8,0.2c0.2,0.5,0.3,1,0.5,1.5c0.2,0.6,0.3,1.2,0.4,1.8c0,0.3,0.2,0.8,0,1.1
			c-0.2,0.2-0.5,0.3-0.8,0.4c-0.2,0.1-0.5,0.1-0.8,0.1c-0.3-0.1-0.3-0.3-0.4-0.5c-0.1-0.3-0.5-0.5-0.8-0.3c-0.7,0.3-0.9,1.1-1,1.7
			c0,0.4-0.2,0.7-0.5,1c-0.5,0.5-1.4,0.6-2,0.7l-4.5,1.2c-1.1,0.3-3.5,1.3-4.1-0.4l-0.5,0.4c1.2,0.8,2.8,0.4,3-1.1l-0.6,0.2
			c0.6,0.7,1.5,1,2.4,0.7c0.8-0.3,1.2-1.2,1-2l-0.6,0.3c0.8,0.7,2,0.7,2.7,0c0.1-0.1,0.1-0.1,0.2-0.2c0.9-1.2,0.6-2.7,0.3-4
			c-0.1-0.2-0.3-0.3-0.4-0.2c-0.1,0-0.2,0.1-0.2,0.2c-0.2,0.5-0.2,1.2-0.4,1.6c-0.3,0.5-1.2-0.2-1.7-0.2c-1-0.1-1.8,0.7-1.9,1.6
			c0,0,0,0,0,0.1l0.4-0.3c-0.6-0.2-0.9-0.8-1.6-0.5c-0.6,0.3-0.8,1-0.9,1.6l0.6-0.2c-0.4-0.5-1.2-1-1.9-0.7
			c-0.7,0.3-0.9,1.1-0.9,1.7l0.7-0.2c-0.2-0.4-0.3-0.9-0.3-1.3c0-0.5-0.1-0.7,0.4-0.9c0.7-0.3,1.4-0.7,2.1-1.1
			c1.4-0.7,2.7-1.5,4-2.4C67.6,26.1,67.2,25.5,66.8,25.7z"/>
		<path class="st6" d="M70.7,27.3c-0.4,0.2-0.3,0.9-0.1,1.2c0.3,0.4,0.9,0.6,1.3,0.3c0.4-0.2,0.5-0.7,0.4-1.1c0-0.1-0.1-0.2-0.2-0.3
			c-0.2-0.1-0.3-0.4-0.5-0.4C71.2,27,70.9,27.1,70.7,27.3"/>
		<path d="M70.6,27.1c-0.3,0.3-0.5,0.7-0.3,1.1c0.1,0.5,0.5,0.8,1,0.8c0.5,0,1-0.2,1.1-0.7c0.1-0.2,0.1-0.5,0-0.7
			c-0.1-0.2-0.2-0.5-0.4-0.6c-0.1-0.1-0.2-0.2-0.4-0.2c-0.1,0-0.2,0-0.3,0C71.1,26.9,70.8,27,70.6,27.1c-0.1,0.1-0.1,0.2,0,0.3
			c0.1,0.1,0.2,0.1,0.2,0c0.1-0.1,0.2-0.1,0.3-0.2c0.2-0.1,0.4-0.1,0.6,0c0.1,0.1,0.1,0.1,0.2,0.2c0.1,0.1,0.1,0.1,0.2,0.2
			c0.1,0.1,0.1,0.3,0,0.5c-0.1,0.3-0.4,0.6-0.7,0.6c-0.3,0-0.6-0.2-0.8-0.5c-0.1-0.2-0.1-0.3-0.1-0.5c0-0.1,0-0.1,0.1-0.2
			c0-0.1,0.1-0.1,0.1-0.2c0.1-0.1,0.1-0.2,0.1-0.2C70.8,27.1,70.7,27.1,70.6,27.1L70.6,27.1z"/>
		<path d="M70.8,27.6c0.1,0,0.2,0.1,0.4,0.1c0.1,0.1,0.2,0.2,0.3,0.3c0,0.1,0.1,0.1,0.1,0.2c0,0,0,0,0,0c0,0,0,0,0,0c0,0,0,0,0,0
			s0,0,0,0s0,0,0,0c0,0,0,0,0,0c0,0,0,0.1-0.1,0.1c0,0.1-0.1,0.1-0.1,0.2l0.3,0.1c0-0.2,0-0.4-0.1-0.6c-0.1-0.2-0.2-0.4-0.4-0.5
			c-0.1-0.1-0.2-0.1-0.4-0.2c-0.2,0-0.3,0.2-0.2,0.3c0,0,0,0,0,0c0,0.3,0.2,0.5,0.4,0.8c0.1,0.1,0.2,0.2,0.3,0.2
			c0.2,0.1,0.3-0.2,0.3-0.4c0-0.1-0.1-0.3-0.2-0.4c-0.1-0.1-0.2-0.2-0.3-0.3c-0.1-0.1-0.3-0.1-0.4,0c-0.1,0.1-0.1,0.3-0.1,0.4
			c0.1,0.3,0.3,0.5,0.6,0.7c0.2,0.1,0.4,0,0.4-0.2c0.1-0.1,0.1-0.3,0-0.5c-0.1-0.3-0.4-0.5-0.7-0.5c-0.1,0-0.2,0.1-0.2,0.2
			c0,0,0,0,0,0c0.1,0.4,0.2,0.7,0.5,1c0,0.1,0.1,0.1,0.2,0c0.1,0,0.1-0.1,0.1-0.2c0-0.3-0.1-0.6-0.3-0.8c-0.1-0.1-0.2-0.1-0.2,0
			c-0.1,0.1-0.1,0.2,0,0.2c0.1,0.2,0.2,0.4,0.3,0.5c0.1,0.1,0.2,0.1,0.2,0c0.1-0.1,0.1-0.2,0-0.2c-0.1-0.1-0.2-0.3-0.3-0.5L71,28.2
			c0,0,0.1,0.1,0.1,0.1l0,0.1v0c0,0,0,0,0,0c0,0,0,0.1,0,0.1c0,0,0,0,0,0c0,0,0,0,0,0c0,0.1,0,0.1,0,0.2l0.3-0.1
			c-0.1-0.1-0.2-0.2-0.3-0.4c-0.1-0.1-0.1-0.3-0.1-0.5L70.9,28h0.1c0,0,0,0,0,0h0c0,0,0,0,0,0l0.1,0c0.1,0,0.1,0.1,0.1,0.2
			c0,0,0,0.1,0,0.1c0,0,0,0,0,0l0,0v0c0,0,0,0,0,0c0,0,0,0,0,0.1c0,0,0,0,0,0c0,0,0,0,0,0s0,0,0,0c0,0,0,0,0,0l0,0l-0.1-0.1L71,28.2
			c-0.1-0.1-0.1-0.1-0.2-0.2v0c0,0,0,0,0-0.1c0,0,0,0,0,0c0,0,0,0,0,0l0,0l0,0h0l0,0l0,0h0l0,0c0.1,0.1,0.1,0.2,0.2,0.2
			c0,0,0,0.1,0.1,0.1c0,0,0,0,0,0c0,0,0,0,0,0c0,0,0,0,0,0l0,0c0,0,0,0,0.1-0.1h0.1l0,0l0,0h0l-0.1-0.1c-0.1-0.1-0.1-0.1-0.1-0.2
			c0-0.1-0.1-0.1-0.1-0.2C70.9,27.8,70.9,27.8,70.8,27.6L70.8,27.6L70.8,27.6L70.8,27.6L70.8,27.6L70.8,27.6
			C70.8,27.7,70.8,27.7,70.8,27.6L70.8,27.6L70.8,27.6L70.8,27.6l0.2,0.2c0,0,0,0,0,0l0,0l0,0l0.1,0.1c0,0,0,0,0,0l0,0
			c0,0,0,0.1,0,0.1l0,0c0,0,0,0,0,0v0l0,0.1c0,0,0,0,0,0.1l0,0c0,0,0,0,0,0c0,0,0,0.1,0,0.1c0,0.1,0,0.2,0,0.3
			c0,0.1,0.1,0.2,0.2,0.2c0.1,0,0.1,0,0.1-0.1c0.1-0.1,0.2-0.3,0.3-0.4c0-0.2,0-0.4-0.1-0.5c-0.2-0.3-0.5-0.6-0.8-0.6
			c-0.1,0-0.2,0-0.2,0.1c0,0.1,0,0.2,0.1,0.2c0,0,0,0,0,0L70.8,27.6z"/>
		<path d="M71.8,27.3c0.2-0.1,0.3-0.2,0.4-0.3c0.1-0.1,0.2-0.3,0.3-0.4c0-0.1,0-0.2-0.1-0.2c-0.1,0-0.2,0-0.2,0.1v0.1v0
			c0,0.1-0.1,0.1-0.1,0.2c0,0,0,0,0,0l0,0L72,26.8l0,0l0,0c0,0,0,0,0,0l-0.1,0.1c0,0-0.1,0.1-0.2,0.1h0h0c-0.1,0-0.1,0.1-0.1,0.2
			C71.6,27.2,71.7,27.3,71.8,27.3L71.8,27.3z"/>
		<path d="M70.9,29.5c0.5,0.1,1.1,0.1,1.6-0.1c0.1-0.1,0.1-0.2,0.1-0.2c-0.1-0.1-0.2-0.1-0.2-0.1c-0.4,0.2-0.9,0.2-1.3,0.1
			C70.8,29.1,70.7,29.5,70.9,29.5L70.9,29.5z"/>
		<path d="M72.3,27.6c0.2-0.1,0.4-0.2,0.6-0.3c0.1-0.1,0.1-0.2,0-0.2c0,0,0,0,0,0c-0.1-0.1-0.2-0.1-0.2,0l-0.1,0.1l0,0
			c-0.1,0.1-0.2,0.1-0.3,0.2h0l-0.2,0.1c-0.1,0-0.2,0.1-0.1,0.2C72.1,27.6,72.2,27.7,72.3,27.6C72.3,27.6,72.3,27.6,72.3,27.6
			L72.3,27.6z"/>
		<path d="M72.4,28.2c0.3,0,0.6-0.1,0.8-0.2c0.1,0,0.1-0.1,0.1-0.2c0-0.1-0.1-0.1-0.2-0.1c0,0,0,0,0,0l-0.2,0.1l0,0h0l-0.1,0l-0.2,0
			c0,0-0.1,0,0,0h0h-0.1c-0.1,0-0.2,0.1-0.2,0.2C72.3,28.1,72.3,28.2,72.4,28.2L72.4,28.2z"/>
		<path class="st9" d="M64.7,30.9c-0.3-0.1-0.5-0.3-0.8-0.5c-0.1,0-0.2-0.1-0.3-0.1h-0.1h-0.1c-1.1,2.9-2.2,5.8-3.1,8.7l0.1,0.2
			c-0.1,0.7,0.5,1.4,1.2,1.7c0.7,0.3,0.2,0.3,1,0.2c0.6-3.4,1.4-6.8,2.4-10.2C64.9,31,64.8,31,64.7,30.9z"/>
		<path d="M64.9,30.6c-0.4-0.3-0.9-0.5-1.5-0.6c-0.2,0-0.3,0.1-0.3,0.3c-1,2.7-2.1,5.4-3,8.2C60,38.7,60,39,60,39.2
			c0,0.1,0.1,0.2,0.1,0.3c0.1,0.5,0.3,0.9,0.7,1.2c0.4,0.3,0.7,0.5,1.1,0.7c0.2,0.1,0.5,0.1,0.8,0.1c0.2,0,0.3-0.1,0.3-0.3
			c0.6-3.4,1.4-6.8,2.4-10.2c0.1-0.2-0.1-0.4-0.2-0.4C65,30.6,64.9,30.6,64.9,30.6c-0.5-0.2-0.7,0.5-0.3,0.6c0.1,0,0.2,0.1,0.3,0.1
			l-0.2-0.4c-0.9,3.4-1.7,6.7-2.4,10.2l0.3-0.3c-0.1,0-0.2,0-0.3,0c0,0-0.2,0-0.1,0c0.1,0-0.1-0.1-0.1-0.1c-0.4-0.2-0.9-0.4-1.2-0.8
			c-0.1-0.2-0.2-0.5-0.2-0.7c0-0.1-0.1-0.2-0.1-0.3c0,0.1,0.1-0.2,0.1-0.2c0.1-0.2,0.1-0.3,0.2-0.5c0.1-0.3,0.2-0.6,0.3-0.9
			c0.8-2.4,1.7-4.6,2.5-6.9l-0.3,0.3c0.4,0.1,0.8,0.3,1.1,0.5C64.9,31.4,65.3,30.8,64.9,30.6z"/>
	</g>
</g>
</svg>
