<svg xmlns="http://www.w3.org/2000/svg" viewBox="0 0 224 205"><defs><style>.cls-1{fill:#5b5b5b;}.cls-2{fill:#797979;}.cls-3{fill:#bebebe;}.cls-4{fill:#fff;}</style></defs><title>Plataforma menu insignias</title><g id="contenido"><path class="cls-1" d="M149.17,3.5H74.83a34.61,34.61,0,0,0-30,17.31L7.68,85.19a34.59,34.59,0,0,0,0,34.62l37.17,64.38a34.61,34.61,0,0,0,30,17.31h74.34a34.61,34.61,0,0,0,30-17.31l37.17-64.38a34.59,34.59,0,0,0,0-34.62L179.15,20.81A34.61,34.61,0,0,0,149.17,3.5Z"/><path d="M149.17,2H88c-9.33,0-18.88-.79-27.65,3.06-10.21,4.48-15.55,12.88-20.83,22C28.6,46,17.55,64.75,6.8,83.71a37.27,37.27,0,0,0,.12,37.79c4.81,8.45,9.72,16.84,14.58,25.25l18.31,31.72c5.43,9.4,11.16,17.83,21.83,22,8.56,3.37,18.1,2.5,27.12,2.5H127.5c7.69,0,15.46.31,23.15,0,13.86-.61,24.46-8.78,31.18-20.42l33.48-58c6.71-11.64,9.76-24.3,3.84-37.16-3.34-7.24-7.93-14.06-11.92-21L187.82,32.82c-4.36-7.55-8.32-16.23-15-22A37,37,0,0,0,149.17,2c-1.93,0-1.93,3,0,3a33.59,33.59,0,0,1,27.51,14.69c1.36,2,2.52,4.21,3.75,6.33l16.26,28.17,16,27.76c6.88,11.93,9.25,24.62,2.17,37.34-9.75,17.51-20,34.73-30.07,52.08-4.53,7.85-8.59,16.77-16.09,22.25-8.89,6.49-18.7,6.38-29,6.38-21.17,0-42.35.1-63.52,0-13-.06-24-6.2-30.59-17.5C41,174.67,36.53,166.79,32,158.94L14.23,128.16c-5.76-10-11.43-19.51-9.13-31.75,1.61-8.57,7.35-16.49,11.65-23.94L35.08,40.73c3.67-6.36,7.24-12.81,11-19.1C53.44,9.46,65.4,5,79,5h70.22A1.5,1.5,0,0,0,149.17,2Z"/><circle class="cls-2" cx="112" cy="102.5" r="87"/><path d="M197.5,102.5c-.28,35.61-22.69,68.27-56.38,80.42a86.37,86.37,0,0,1-94.88-25.76c-23.08-27.65-26-68.16-7.39-98.95a86.32,86.32,0,0,1,90.62-39.43c39.4,8.23,67.71,43.68,68,83.72a1.5,1.5,0,0,0,3,0c-.29-36.79-23.31-70.28-57.95-83.08-35.09-13-75.75-1.73-99.26,27.31-23.22,28.68-26.19,70-7,101.57a89.41,89.41,0,0,0,92.67,41.08c41.32-7.92,71.24-45.11,71.57-86.88A1.5,1.5,0,0,0,197.5,102.5Z"/><circle class="cls-3" cx="112" cy="102.5" r="75"/><path d="M185.5,102.5c-.28,30.58-19.45,58.68-48.42,69.12a74.26,74.26,0,0,1-81.47-22C35.71,125.94,33,91.16,49,64.65a74.21,74.21,0,0,1,77.74-34.18c34.05,6.94,58.46,37.51,58.78,72a1.5,1.5,0,0,0,3,0c-.29-31.78-20.08-60.66-50-71.78C108.18,19.46,73,29.16,52.65,54.24,32.59,78.94,30,114.56,46.39,141.87a77.27,77.27,0,0,0,80.46,35.68c35.65-7,61.32-39,61.65-75.05A1.5,1.5,0,0,0,185.5,102.5Z"/><path class="cls-1" d="M108.1,123.57c0,.07-.25.12-.65.14a4.14,4.14,0,0,1-1.27-.16,3.43,3.43,0,0,1-1.25-.66,1.42,1.42,0,0,1-.52-1.27v-.33a2.61,2.61,0,0,0-.08-.32c0-.18-.11-.39-.16-.63s-.11-.45-.16-.65a2.38,2.38,0,0,1-.09-.35c0-.18-.08-.45-.13-.79a4.66,4.66,0,0,1-.08-.62v-.44c0-.25,0-.54,0-.87s0-.66.06-1,0-.63,0-.84c0-1,.08-1.89.16-2.85a7.91,7.91,0,0,1,.7-2.75c.58-1.48,1.18-2.83,1.79-4a16.62,16.62,0,0,1,2.5-3.56c.18-.14.62-.54,1.31-1.19s1.43-1.34,2.22-2.07,1.54-1.41,2.23-2.06a13.46,13.46,0,0,1,1.36-1.19l.29-.38L117,94l.66-.81a7,7,0,0,1,.54-.63l.22-.24q.1-.13.21-.3a4.27,4.27,0,0,1,.22-.38l1.52-2.23a3.39,3.39,0,0,0,.82-1,17.64,17.64,0,0,0,.84-1.58c.27-.58.51-1.14.73-1.68s.38-1,.49-1.3c0-.15,0-.5,0-1.06s0-.93,0-1.12a10.77,10.77,0,0,0,.08-1.24c0-.55,0-.85,0-.93a5.16,5.16,0,0,0-.7-2.66,7.53,7.53,0,0,0-1.8-2.06,8.56,8.56,0,0,0-2.44-1.36,7.94,7.94,0,0,0-2.66-.49,14,14,0,0,0-6.33,2.58,12.4,12.4,0,0,0-2.19,2.07,10.28,10.28,0,0,0-1.42,2.14,9.48,9.48,0,0,0-.89,2.39c-.13.65-.3,1.43-.52,2.33,0,.11-.14.24-.43.38a2,2,0,0,1-.44.17,2.39,2.39,0,0,0-.68-.06h-1.71a10.12,10.12,0,0,1-1.65.17c-.78,0-1.67,0-2.66,0s-2,0-3.15-.11-2.15-.11-3.12-.19A24.86,24.86,0,0,1,88,84.5a5.09,5.09,0,0,1-1.46-.4V84s0-.08-.14-.14a1.93,1.93,0,0,0-.32-.13,3.17,3.17,0,0,1-.33-.11c-.09,0-.12-.09-.08-.16v-.11a1.12,1.12,0,0,0-.16-.6.72.72,0,0,1-.11-.54,19.43,19.43,0,0,1,.68-4.64,32.75,32.75,0,0,1,1.6-4.65,38.4,38.4,0,0,1,2.22-4.39,37.05,37.05,0,0,1,2.61-3.86s0-.09.11-.16l.11-.11c.21-.15.53-.34,1-.6s.84-.53,1.27-.84l1.25-.87c.4-.27.71-.5.93-.68a3.55,3.55,0,0,0,.73-.24c.31-.13.64-.27,1-.44l1-.46.75-.32a24.09,24.09,0,0,1,5.06-1.42,29.41,29.41,0,0,1,5.21-.38c.32,0,.93,0,1.82,0s1.89.05,3,.11,2.3.11,3.53.19,2.36.15,3.39.24,1.89.18,2.56.27,1,.17,1,.25l.81.32,1.12.46,1.06.46c.32.15.54.24.65.28l.7.38,1.06.59,1.06.63c.33.2.56.35.71.46l2.66,1.93a21.5,21.5,0,0,1,2.39,2A15.15,15.15,0,0,1,140.41,69a11.84,11.84,0,0,1,1.41,2.85c.33.94.66,1.91,1,2.91s.65,2,.92,3.06A32,32,0,0,1,144.4,81a16.34,16.34,0,0,1,.19,3.1,11.87,11.87,0,0,1-.78,3.77c-.46,1.14-.94,2.35-1.44,3.61-.29.62-.58,1.23-.87,1.82a6.37,6.37,0,0,1-1.09,1.6,21.74,21.74,0,0,1-2,2,11.47,11.47,0,0,0-2,2.28c-.43.29-1,.71-1.63,1.25a20.15,20.15,0,0,0-1.84,1.74,17.55,17.55,0,0,0-1.47,1.76c-.4.57-.56,1-.49,1.23a14.15,14.15,0,0,0-2,3.06,18.42,18.42,0,0,0-1.19,3.34v.22l-1,3.26a2.06,2.06,0,0,1-.08.4c-.06.2-.12.43-.19.68s-.16.49-.25.71a3.2,3.2,0,0,1-.24.49,3.77,3.77,0,0,1-.14.81,4.13,4.13,0,0,0-.13.65V120q-.12,0-.33.57t-.33.57a14.88,14.88,0,0,1-3.31.87q-1.62.21-3.42.54l-.57,0-1,.05-1.06.08-.6.06a12.5,12.5,0,0,1-1.49.3c-.6.09-1.22.16-1.87.21s-1.3.1-1.93.14S108.57,123.5,108.1,123.57Zm-4.61,15a14.89,14.89,0,0,1,.43-2.63,20.08,20.08,0,0,1,.93-2.64l.35-.65c.16-.29.33-.59.49-.9s.31-.58.46-.81l.27-.46s.16-.15.38-.33l.79-.65c.31-.25.61-.5.92-.73l.73-.57a9.35,9.35,0,0,1,3.56-1.79,13.34,13.34,0,0,1,3.94-.49,12.35,12.35,0,0,1,7.65,2.71,14.87,14.87,0,0,1,4.73,6.68v2a23.06,23.06,0,0,1-.33,3.06,14,14,0,0,1-.87,3,11.22,11.22,0,0,1-1.55,2.66,9.53,9.53,0,0,1-2.25,2.09,19.4,19.4,0,0,1-2.79,1.66,15,15,0,0,1-2.67.95,15.45,15.45,0,0,1-2.82.4c-1,.06-2.09.07-3.28,0a1.18,1.18,0,0,1-.38-.08,1.25,1.25,0,0,0-.33-.08,9.79,9.79,0,0,1-3.83-1.71,10.71,10.71,0,0,1-2.63-2.91,12.82,12.82,0,0,1-1.52-3.69A14,14,0,0,1,103.49,138.56Z"/><path d="M107.7,122.13c-2.67.55-2.46-4.55-2.44-6a19.91,19.91,0,0,1,6.08-14.67c4.28-4.17,8.48-7.9,11.51-13.09,3.55-6.07,2.76-15.25-5.37-16.77-3.63-.68-7.71,1.39-10.29,3.83a13.26,13.26,0,0,0-3.31,5c-.8,2.14-.23,3-2.78,3a1.5,1.5,0,0,0,0,3h.05l-.39-2.94c-4,.58-10.05.61-13.81-.82l1.1,1.45c0-1.34-.93-1.09-1.56-1.83,1.85,2.17.2.72.47.07.88-2.12.69-5.18,1.56-7.5,2.9-7.74,7.71-12.62,15.87-14.52,6.23-1.45,15.34-1.44,21.45.3a23.38,23.38,0,0,1,16,16.08c2.42,8.18.13,14.77-5.9,20.57-3.29,3.16-6.26,6.07-8.31,10.21a48.88,48.88,0,0,0-3.27,10.26c-.65,2.84-1.41,2.6-4.73,3.06-3.83.53-7.71.89-11.56,1.27-1.9.19-1.92,3.19,0,3,3.22-.31,6.43-.69,9.64-1,2.25-.22,6.44-.28,8.21-1.76s1.84-5.52,2.49-7.71c1.6-5.4,3.8-9.86,8.05-13.6a27.88,27.88,0,0,0,8.76-12.73c3.94-11.88-4.64-24.08-15-29-5.27-2.52-11-2.5-16.82-2.61s-11.9.57-17.08,3.47c-5.57,3.11-8.56,8-10.75,13.93-.92,2.51-2.48,6.54-1.5,9.25a6.71,6.71,0,0,0,.45,1.23c.11.18.3.23.42.39,1.11,1.34,0-1.63,0-.81a1.53,1.53,0,0,0,1.1,1.44c4.4,1.67,10.82,1.49,15.4.82,1.7-.25,1.25-3-.4-3h-.05a1.5,1.5,0,0,0,0,3c2,0,3.66.32,4.76-1.59,1.44-2.49,1.06-5,3.45-7.28,4-3.77,11.83-4.33,12.52,2.87.62,6.43-6.07,12.86-10.39,16.85-6,5.5-9.39,11.47-9.22,19.8.08,4,1.15,9,6.28,8C110.39,124.63,109.59,121.73,107.7,122.13Z"/><path d="M105,138.56c.59-4.91,3.23-9.25,8.21-10.72,5.9-1.73,13.42,2.06,14.42,8.38,1,6.67-4.37,12.21-10.57,13.18-7.25,1.13-12.09-3.55-12.06-10.84a1.5,1.5,0,0,0-3,0c0,8.29,5.36,14.6,13.85,14s15.51-7.39,14.78-16.35c-.64-7.7-9.3-12.75-16.48-11.62s-11.32,7-12.15,14C101.76,140.47,104.76,140.46,105,138.56Z"/><path class="cls-4" d="M102.11,119.34c0,.07-.26.12-.65.14a3.93,3.93,0,0,1-1.28-.17,3.33,3.33,0,0,1-1.25-.65,1.4,1.4,0,0,1-.51-1.27v-.33a2.55,2.55,0,0,0-.08-.33c-.06-.18-.11-.39-.17-.62s-.11-.45-.16-.65a3.42,3.42,0,0,1-.08-.35c0-.18-.08-.45-.14-.79s-.08-.55-.08-.63v-.43q0-.37,0-.87c0-.33,0-.66.05-1s0-.63,0-.85c0-.94.09-1.89.16-2.85a7.87,7.87,0,0,1,.71-2.74c.58-1.48,1.17-2.83,1.79-4a16.38,16.38,0,0,1,2.5-3.56c.18-.14.61-.54,1.3-1.19s1.43-1.34,2.23-2.07S108,92.68,108.73,92a15.79,15.79,0,0,1,1.36-1.2,2.93,2.93,0,0,0,.3-.38c.16-.21.35-.46.57-.73l.65-.81q.33-.41.54-.63a1.7,1.7,0,0,0,.22-.24c.07-.09.15-.19.22-.3a4.32,4.32,0,0,1,.21-.38l1.52-2.23a3.24,3.24,0,0,0,.82-1,15.39,15.39,0,0,0,.84-1.58c.27-.58.52-1.14.73-1.68s.38-1,.49-1.3c0-.15,0-.5,0-1.06s0-.94,0-1.12.06-.7.08-1.25,0-.85,0-.92a5.14,5.14,0,0,0-.71-2.66,7.52,7.52,0,0,0-1.79-2.06,8.69,8.69,0,0,0-2.44-1.36,7.79,7.79,0,0,0-2.67-.49,14,14,0,0,0-6.32,2.58,12.43,12.43,0,0,0-2.2,2.06,10.11,10.11,0,0,0-1.41,2.15,10,10,0,0,0-.9,2.39c-.12.65-.3,1.43-.51,2.33,0,.11-.15.24-.44.38a2.56,2.56,0,0,1-.43.17,2.44,2.44,0,0,0-.68-.06H95.16a10.74,10.74,0,0,1-1.66.16c-.78,0-1.66,0-2.66,0s-2-.05-3.15-.11-2.14-.12-3.12-.19a24.31,24.31,0,0,1-2.55-.3,5.19,5.19,0,0,1-1.47-.4v-.11s0-.08-.13-.14a1.26,1.26,0,0,0-.33-.13l-.32-.11c-.1,0-.12-.09-.09-.16v-.11a1.12,1.12,0,0,0-.16-.6.76.76,0,0,1-.11-.54,20.1,20.1,0,0,1,.68-4.65,34.4,34.4,0,0,1,1.6-4.64,39.46,39.46,0,0,1,2.23-4.4,34.94,34.94,0,0,1,2.61-3.85s0-.09.1-.17l.11-.1c.22-.15.54-.35,1-.6s.84-.53,1.28-.84.85-.6,1.25-.87.7-.5.92-.68a5,5,0,0,0,.73-.24l1-.44,1-.46.76-.33a24.42,24.42,0,0,1,5-1.41,28.56,28.56,0,0,1,5.21-.38c.33,0,.93,0,1.82,0s1.89.06,3,.11l3.53.19c1.23.08,2.37.16,3.4.25s1.88.18,2.55.27,1,.17,1,.24l.82.33,1.11.46,1.06.46a5.81,5.81,0,0,0,.65.27l.71.38,1.06.6,1,.63a8.3,8.3,0,0,1,.71.46l2.66,1.92a22.84,22.84,0,0,1,2.39,2,15.78,15.78,0,0,1,2,2.34,12.62,12.62,0,0,1,1.41,2.85c.32.94.66,1.91,1,2.9s.65,2,.93,3.07.48,2.1.65,3.15a17.15,17.15,0,0,1,.19,3.1,12.15,12.15,0,0,1-.79,3.77c-.45,1.14-.93,2.34-1.44,3.61-.29.62-.58,1.22-.87,1.82a6.61,6.61,0,0,1-1.08,1.6,24.49,24.49,0,0,1-2,2,10.89,10.89,0,0,0-2,2.28,19.67,19.67,0,0,0-1.63,1.25A20.26,20.26,0,0,0,126.92,98a15.23,15.23,0,0,0-1.46,1.76c-.4.56-.56,1-.49,1.22a13.85,13.85,0,0,0-2,3.07,17.72,17.72,0,0,0-1.2,3.34v.22l-1,3.26a1.56,1.56,0,0,1-.08.4c-.05.2-.12.43-.19.68a5.9,5.9,0,0,1-.24.71,3.07,3.07,0,0,1-.25.49,3.62,3.62,0,0,1-.13.81,4.84,4.84,0,0,0-.14.65v1.2c-.07,0-.18.19-.32.57s-.26.57-.33.57a15,15,0,0,1-3.31.87q-1.63.21-3.42.54l-.57,0-1,0-1,.08-.6.06c-.4.1-.9.2-1.49.29s-1.23.17-1.88.22-1.29.1-1.93.14A16.51,16.51,0,0,0,102.11,119.34Zm-4.62,15a15.15,15.15,0,0,1,.44-2.64,20.35,20.35,0,0,1,.92-2.63l.35-.65c.17-.29.33-.59.49-.9s.32-.58.46-.81l.28-.46a3.93,3.93,0,0,1,.38-.33l.78-.65c.31-.25.62-.5.93-.73l.73-.57a9.32,9.32,0,0,1,3.55-1.8,14.08,14.08,0,0,1,3.94-.49,12.45,12.45,0,0,1,7.66,2.72,14.72,14.72,0,0,1,4.72,6.68v2a23,23,0,0,1-.32,3.07,14.65,14.65,0,0,1-.87,3,11.79,11.79,0,0,1-1.55,2.66,9.73,9.73,0,0,1-2.25,2.09,18,18,0,0,1-2.8,1.65,14.2,14.2,0,0,1-2.66,1,15.71,15.71,0,0,1-2.82.4c-1,.06-2.09.07-3.29,0a1.23,1.23,0,0,1-.38-.08.86.86,0,0,0-.32-.08A9.66,9.66,0,0,1,102,145a10.74,10.74,0,0,1-2.64-2.91,13.1,13.1,0,0,1-1.52-3.69A14.31,14.31,0,0,1,97.49,134.33Z"/><path d="M101.71,117.89c-2.67.56-2.46-4.55-2.44-6a19.94,19.94,0,0,1,6.07-14.67c4.28-4.17,8.48-7.9,11.52-13.09,3.54-6.07,2.76-15.26-5.38-16.77-3.62-.68-7.7,1.39-10.29,3.83a13.35,13.35,0,0,0-3.31,5c-.79,2.15-.23,3-2.78,3a1.5,1.5,0,0,0,0,3h.06l-.4-3c-4,.59-10.05.61-13.81-.81l1.1,1.45c0-1.35-.93-1.09-1.56-1.83,1.86,2.17.21.72.48.07.88-2.12.69-5.18,1.56-7.5C85.43,62.87,90.24,58,98.4,56.09c6.23-1.45,15.33-1.44,21.44.3a23.36,23.36,0,0,1,16,16.08C138.29,80.65,136,87.23,130,93c-3.29,3.16-6.26,6.07-8.32,10.2a50.37,50.37,0,0,0-3.27,10.27c-.65,2.84-1.4,2.59-4.72,3-3.83.53-7.71.9-11.56,1.28-1.91.19-1.93,3.19,0,3,3.22-.32,6.42-.7,9.64-1,2.25-.22,6.43-.28,8.21-1.77s1.84-5.51,2.49-7.7c1.6-5.4,3.8-9.86,8-13.61A27.82,27.82,0,0,0,139.26,84c3.93-11.88-4.65-24.09-15-29-5.26-2.52-11-2.51-16.82-2.61S95.57,53,90.38,55.87c-5.57,3.11-8.55,8-10.75,13.94-.92,2.51-2.48,6.54-1.5,9.25a6.31,6.31,0,0,0,.46,1.23c.11.18.29.23.42.38,1.1,1.35,0-1.62,0-.8a1.54,1.54,0,0,0,1.1,1.44C84.56,83,91,82.8,95.56,82.13c1.7-.25,1.25-2.95-.4-2.95H95.1a1.5,1.5,0,0,0,0,3c2,0,3.66.32,4.76-1.59,1.44-2.49,1.07-5,3.45-7.28,4-3.77,11.84-4.33,12.53,2.86.62,6.44-6.08,12.87-10.39,16.86-6,5.5-9.39,11.47-9.23,19.79.08,4,1.15,9,6.29,8C104.4,120.39,103.6,117.5,101.71,117.89Z"/><path d="M99,134.33c.59-4.91,3.23-9.25,8.21-10.72,5.9-1.73,13.43,2,14.42,8.38,1,6.67-4.37,12.21-10.56,13.18C103.81,146.3,99,141.62,99,134.33a1.5,1.5,0,0,0-3,0c0,8.29,5.36,14.6,13.86,14S125.36,141,124.62,132c-.63-7.7-9.29-12.76-16.47-11.62s-11.33,7-12.16,14C95.76,136.24,98.77,136.22,99,134.33Z"/></g></svg>