<?xml version="1.0" encoding="utf-8"?>
<!-- Generator: Adobe Illustrator 24.2.0, SVG Export Plug-In . SVG Version: 6.00 Build 0)  -->
<svg version="1.1" id="Layer_1" xmlns="http://www.w3.org/2000/svg" xmlns:xlink="http://www.w3.org/1999/xlink" x="0px" y="0px"
	 viewBox="0 0 112 102" style="enable-background:new 0 0 112 102;" xml:space="preserve">
<style type="text/css">
	.st0{fill:#F7C402;}
	.st1{fill:#FADC67;}
	.st2{fill:#FDEAAB;}
	.st3{clip-path:url(#SVGID_2_);}
	.st4{fill:#C2E1E3;}
	.st5{fill:#183E41;stroke:#FFFFFF;stroke-width:1.4969;stroke-miterlimit:10;}
	.st6{fill:#183E41;}
	.st7{fill:#7DC4CA;}
	.st8{fill:#FFFFFF;}
	.st9{fill:#FCE1AC;}
</style>
<g id="_2.Placas">
	<path class="st0" d="M74.5,1.6H37.5c-6.2,0-11.9,3.3-15,8.6L3.9,42.3c-3.1,5.3-3.1,11.9,0,17.3l18.6,32.1c3.1,5.3,8.8,8.6,15,8.6
		h37.1c6.2,0,11.9-3.3,15-8.6l18.5-32.1c3.1-5.3,3.1-11.9,0-17.3L89.5,10.2C86.4,4.9,80.7,1.6,74.5,1.6z"/>
	<path d="M74.5,0.8H38.6c-2.4-0.1-4.8,0.3-7.1,1c-4.1,1.5-7.5,4.3-9.7,8.1c-0.6,1.1-1.3,2.2-1.9,3.3l-9,15.5L3.7,41.4
		C2,44.1,1,47.3,0.9,50.5c-0.1,3.5,0.9,7,2.7,10l7,12.2l9.1,15.7c0.7,1.2,1.4,2.4,2.1,3.7c2,3.5,5.1,6.2,8.8,7.7
		c4.3,1.8,9.1,1.4,13.6,1.4h18.9c3.8,0,7.6,0,11.5,0c4.6,0,9-1.8,12.4-4.9c1.6-1.6,2.9-3.3,3.9-5.3l7.8-13.6l8.6-15
		c0.6-1.1,1.3-2.2,1.9-3.3c2.5-5,2.5-10.8,0.2-15.8c-0.6-1.2-1.3-2.4-2-3.6l-3.7-6.4l-9.5-16.5l-3.3-5.6c-1-1.9-2.2-3.6-3.7-5.1
		C83.9,2.7,79.3,0.9,74.5,0.8c-0.4,0-0.7,0.3-0.7,0.7s0.3,0.7,0.7,0.7c4.9,0,9.5,2.2,12.6,5.9c1,1.3,1.9,2.7,2.7,4.1L98,26.4
		l8.2,14.3c0.8,1.3,1.5,2.6,2.1,3.9c2,4.8,1.6,10.2-0.9,14.6c-1.9,3.2-3.7,6.5-5.6,9.7l-9.3,16.1l-3,5.3c-1.1,2-2.5,3.8-4.2,5.4
		c-3,2.5-6.9,3.9-10.8,3.9H38.2c-2.8,0.1-5.5-0.5-8-1.7c-3.1-1.5-5.6-3.9-7.3-6.9l-6.6-11.4L7.3,63.9l-2.5-4.3
		c-1.9-3.1-2.7-6.8-2.3-10.4c0.5-4.6,3.4-8.6,5.6-12.5l9.3-16.1c1.9-3.3,3.8-6.6,5.7-9.9C25.4,6.8,29,4,33.3,2.9
		c1.9-0.4,3.8-0.6,5.7-0.5h35.5c0.4,0,0.7-0.3,0.7-0.7S75,0.8,74.5,0.8z"/>
	<circle class="st1" cx="56" cy="51" r="43.4"/>
	<path d="M98.7,51c0,23.5-19.1,42.4-42.5,42.4c-23.5,0-42.4-19.1-42.4-42.5S32.8,8.4,56.3,8.5c20.9,0,38.7,15.3,41.9,36
		C98.5,46.6,98.7,48.8,98.7,51c0,0.4,0.3,0.7,0.7,0.7s0.7-0.3,0.7-0.7C100.1,26.6,80.2,6.8,55.8,6.9C31.4,7,11.7,26.9,11.8,51.3
		c0.1,24.4,19.9,44.1,44.3,44.1c21.8-0.1,40.3-16,43.6-37.6c0.3-2.2,0.5-4.5,0.5-6.8c0-0.4-0.3-0.7-0.7-0.7
		C99,50.2,98.7,50.6,98.7,51z"/>
	<circle class="st2" cx="56" cy="51" r="37.4"/>
	<path d="M92.7,51c0,20.2-16.4,36.5-36.6,36.5c-20.2,0-36.5-16.4-36.5-36.6c0-20.2,16.4-36.5,36.6-36.5c18,0,33.3,13.1,36,30.9
		C92.5,47.2,92.7,49.1,92.7,51c0,0.4,0.3,0.7,0.7,0.7c0.4,0,0.7-0.3,0.7-0.7c0-21.1-17.1-38.2-38.2-38.2S17.8,29.9,17.8,51
		S34.9,89.2,56,89.2c18.8,0,34.8-13.7,37.7-32.3c0.3-2,0.5-3.9,0.5-5.9c0-0.4-0.3-0.7-0.7-0.7C93,50.2,92.7,50.6,92.7,51z"/>
	<g>
		<defs>
			<circle id="SVGID_1_" cx="56" cy="51" r="37.4"/>
		</defs>
		<clipPath id="SVGID_2_">
			<use xlink:href="#SVGID_1_"  style="overflow:visible;"/>
		</clipPath>
		<g class="st3">
			<rect x="34.1" y="36.1" class="st4" width="42.6" height="62.1"/>
			<path d="M76.8,97.5H35.9c-0.6,0-1.1,0-1.7,0h-0.1l0.7,0.7V38.7c0.1-0.8,0.1-1.6,0-2.4c0,0,0-0.1,0-0.1l-0.7,0.7H75
				c0.6,0,1.1,0,1.7,0c0,0,0,0,0.1,0L76,36.1v54.4c0,2.5-0.1,5,0,7.6v0.1c0,0.4,0.3,0.7,0.7,0.7s0.7-0.3,0.7-0.7V43.8
				c0-2.5,0.1-5,0-7.6c0,0,0-0.1,0-0.1c0-0.4-0.3-0.7-0.7-0.7H39.4c-1.7,0-3.5-0.1-5.2,0h-0.1c-0.4,0-0.7,0.3-0.7,0.7v54.4
				c0,2.5-0.1,5,0,7.6v0.1c0,0.4,0.3,0.7,0.7,0.7h37.4c1.7,0,3.5,0.1,5.2,0h0.1c0.4,0,0.7-0.4,0.7-0.8
				C77.4,97.8,77.1,97.5,76.8,97.5z"/>
			<path d="M39.9,41.3c0.6-0.1,1.2-0.3,1.8-0.4c0.2-0.1,0.3-0.2,0.4-0.3c0.1-0.2,0.1-0.4,0.1-0.6c0-0.2-0.2-0.4-0.3-0.4
				c-0.2-0.1-0.4-0.1-0.6-0.1c-0.6,0.1-1.2,0.2-1.8,0.4c-0.4,0.1-0.6,0.5-0.5,0.9C39.1,41.1,39.5,41.4,39.9,41.3z"/>
			<path d="M54.1,62l0.1,10.7l0.1,17.1v3.9c0,0.4,0.3,0.7,0.7,0.7s0.7-0.3,0.7-0.7L55.7,83l-0.1-17.1l0-3.9c0-0.4-0.3-0.7-0.7-0.7
				C54.4,61.2,54.1,61.5,54.1,62z"/>
			<path d="M39.8,47.8l1.8,0.1c0.4,0,0.7-0.3,0.7-0.7c0-0.4-0.3-0.7-0.7-0.7l-1.8-0.1c-0.4,0-0.7,0.3-0.7,0.7l0,0
				C39.1,47.5,39.4,47.8,39.8,47.8z"/>
			<path d="M39.8,54.6l1.8,0c0.2,0,0.4-0.1,0.5-0.2c0.3-0.3,0.3-0.8,0-1.1c-0.1-0.1-0.3-0.2-0.5-0.2l-1.8,0c-0.4,0-0.7,0.3-0.7,0.7
				C39,54.3,39.4,54.6,39.8,54.6z"/>
			<path d="M39.8,61.1c0.6,0,1.2,0,1.8,0.1c0.4,0,0.7-0.3,0.7-0.7c0-0.4-0.3-0.7-0.7-0.7c-0.6,0-1.2,0-1.8-0.1
				c-0.4,0-0.7,0.3-0.7,0.7C39,60.7,39.4,61.1,39.8,61.1z"/>
			<path d="M39.8,67.8h1.8c0.2,0,0.4-0.1,0.5-0.2c0.1-0.1,0.2-0.3,0.2-0.5c0-0.4-0.3-0.7-0.7-0.7h-1.8c-0.2,0-0.4,0.1-0.5,0.2
				c-0.3,0.3-0.3,0.8,0,1.1C39.4,67.8,39.6,67.8,39.8,67.8z"/>
			<path d="M39.8,74.4h1.8c0.2,0,0.4-0.1,0.5-0.2c0.1-0.1,0.2-0.3,0.2-0.5c0-0.4-0.3-0.7-0.7-0.7h-1.8c-0.4,0-0.7,0.3-0.7,0.7
				C39,74.1,39.4,74.4,39.8,74.4z"/>
			<path d="M39.8,81.1h2.1c0.4,0,0.7-0.3,0.7-0.7c0-0.4-0.3-0.7-0.7-0.7h-2.1c-0.4,0-0.7,0.3-0.7,0.7C39,80.7,39.4,81.1,39.8,81.1z"
				/>
			<path d="M39.8,87.8l2.2-0.1c0.4,0,0.7-0.3,0.7-0.7s-0.3-0.7-0.7-0.7l-2.2,0.1c-0.4,0-0.7,0.3-0.7,0.7S39.4,87.8,39.8,87.8z"/>
			<path d="M48.6,61l1.8,0.1c0.4,0,0.7-0.3,0.7-0.7c0-0.4-0.3-0.7-0.7-0.7l-1.8-0.1c-0.4,0-0.7,0.3-0.7,0.7
				C47.8,60.7,48.2,61,48.6,61L48.6,61z"/>
			<path d="M48.6,67.8h1.8c0.2,0,0.4-0.1,0.5-0.2c0.1-0.1,0.2-0.3,0.2-0.5c0-0.4-0.3-0.7-0.7-0.7h-1.8c-0.2,0-0.4,0.1-0.5,0.2
				c-0.3,0.3-0.3,0.8,0,1.1C48.3,67.7,48.4,67.8,48.6,67.8z"/>
			<path d="M48.6,74.4h1.9c0.2,0,0.4-0.1,0.5-0.2c0.3-0.3,0.3-0.8,0-1.1c-0.1-0.1-0.3-0.2-0.5-0.2h-1.9c-0.4,0-0.7,0.3-0.7,0.7
				C47.8,74,48.2,74.4,48.6,74.4L48.6,74.4z"/>
			<path d="M48.6,81h2.1c0.4,0,0.7-0.3,0.7-0.7c0-0.4-0.3-0.7-0.7-0.7h-2.1c-0.4,0-0.7,0.3-0.7,0.7C47.9,80.7,48.2,81,48.6,81z"/>
			<path d="M48.6,87.8l2.2-0.1c0.4,0,0.7-0.3,0.7-0.7s-0.3-0.7-0.7-0.7l0,0l-2.2,0.1c-0.4,0-0.7,0.3-0.7,0.7S48.2,87.8,48.6,87.8z"
				/>
			<path d="M39.9,94l2.2-0.1c0.4,0,0.7-0.3,0.7-0.7c0-0.4-0.3-0.7-0.7-0.7l-2.2,0.1c-0.4,0-0.7,0.3-0.7,0.7S39.5,94,39.9,94L39.9,94
				z"/>
			<path d="M48.7,94l2.2-0.1c0.4,0,0.7-0.3,0.7-0.7c0-0.4-0.3-0.7-0.7-0.7l-2.2,0.1c-0.4,0-0.7,0.3-0.7,0.7S48.3,94,48.7,94L48.7,94
				z"/>
			<path d="M60,61.2l1.9,0.1c0.4,0,0.7-0.3,0.7-0.7c0-0.4-0.3-0.7-0.7-0.7L60,59.7c-0.4,0-0.7,0.3-0.7,0.7
				C59.2,60.9,59.5,61.2,60,61.2z"/>
			<path d="M60,68h1.8c0.2,0,0.4-0.1,0.5-0.2c0.3-0.3,0.3-0.8,0-1.1c-0.1-0.1-0.3-0.2-0.5-0.2H60c-0.4,0-0.7,0.3-0.7,0.7
				C59.2,67.7,59.6,68,60,68z"/>
			<path d="M60,74.6h1.9c0.4,0,0.7-0.3,0.7-0.7c0-0.4-0.3-0.7-0.7-0.7H60c-0.4,0-0.7,0.3-0.7,0.7C59.2,74.2,59.6,74.6,60,74.6z"/>
			<path d="M60,81.2h2.1c0.4,0,0.7-0.3,0.7-0.7c0-0.4-0.3-0.7-0.7-0.7H60c-0.4,0-0.7,0.3-0.7,0.7C59.2,80.9,59.6,81.2,60,81.2z"/>
			<path d="M60,88l2.2-0.1c0.4,0,0.7-0.3,0.7-0.7c0-0.4-0.3-0.7-0.7-0.7L60,86.5c-0.4,0-0.7,0.3-0.7,0.7C59.2,87.7,59.6,88,60,88z"
				/>
			<path d="M69,41.4c0.6-0.1,1.2-0.3,1.8-0.4c0.4-0.1,0.6-0.5,0.5-0.9c0,0,0,0,0,0c-0.1-0.2-0.2-0.3-0.3-0.4
				c-0.2-0.1-0.4-0.1-0.6-0.1c-0.6,0.1-1.2,0.2-1.8,0.4c-0.4,0.1-0.6,0.5-0.5,0.9C68.2,41.2,68.7,41.5,69,41.4L69,41.4z"/>
			<path d="M68.9,48l1.8,0.1c0.4,0,0.7-0.3,0.7-0.7c0-0.4-0.3-0.7-0.7-0.7l-1.8-0.1c-0.4,0-0.7,0.3-0.7,0.7
				C68.1,47.6,68.5,48,68.9,48z"/>
			<path d="M68.9,54.7l1.8,0c0.4,0,0.7-0.3,0.7-0.7c0-0.4-0.3-0.7-0.7-0.7l-1.8,0c-0.4,0-0.7,0.3-0.7,0.7
				C68.1,54.4,68.5,54.7,68.9,54.7z"/>
			<path d="M68.9,61.2l1.9,0.1c0.4,0,0.7-0.3,0.7-0.7c0-0.4-0.3-0.7-0.7-0.7l-1.9-0.1c-0.4,0-0.7,0.3-0.7,0.7
				C68.1,60.9,68.4,61.2,68.9,61.2z"/>
			<path d="M68.9,68h1.8c0.4,0,0.7-0.3,0.7-0.7c0-0.4-0.3-0.7-0.7-0.7h-1.8c-0.2,0-0.4,0.1-0.5,0.2c-0.3,0.3-0.3,0.8,0,1.1
				C68.5,67.9,68.7,68,68.9,68z"/>
			<path d="M68.9,74.5h1.9c0.4,0,0.7-0.3,0.7-0.7S71.1,73,70.7,73h-1.9c-0.4,0-0.7,0.3-0.7,0.7C68.1,74.2,68.4,74.5,68.9,74.5z"/>
			<path d="M68.9,81.2H71c0.4,0,0.7-0.3,0.7-0.7s-0.3-0.7-0.7-0.7h-2.1c-0.4,0-0.7,0.3-0.7,0.7S68.5,81.2,68.9,81.2z"/>
			<path d="M68.9,88l2.2-0.1c0.4,0,0.7-0.3,0.7-0.7c0-0.4-0.3-0.7-0.7-0.7l-2.2,0.1c-0.4,0-0.7,0.3-0.7,0.7
				C68.1,87.6,68.5,88,68.9,88z"/>
			<path d="M60.1,94.2l2.2-0.1c0.4,0,0.7-0.3,0.7-0.7c0-0.4-0.3-0.7-0.7-0.7l-2.2,0.1c-0.4,0-0.7,0.3-0.7,0.7
				C59.3,93.8,59.7,94.2,60.1,94.2z"/>
			<path d="M69,94.1l2.2-0.1c0.4,0,0.7-0.3,0.7-0.7c0-0.4-0.3-0.7-0.7-0.7L69,92.6c-0.4,0-0.7,0.3-0.7,0.7
				C68.2,93.8,68.6,94.1,69,94.1z"/>
		</g>
	</g>
	<path d="M92.7,51c0,20.2-16.4,36.5-36.6,36.5c-20.2,0-36.5-16.4-36.5-36.6c0-20.2,16.4-36.5,36.6-36.5c18,0,33.3,13.1,36,30.9
		C92.5,47.2,92.7,49.1,92.7,51c0,0.4,0.3,0.7,0.7,0.7c0.4,0,0.7-0.3,0.7-0.7c0-21.1-17.1-38.2-38.2-38.2S17.8,29.9,17.8,51
		S34.9,89.2,56,89.2c18.8,0,34.8-13.7,37.7-32.3c0.3-2,0.5-3.9,0.5-5.9c0-0.4-0.3-0.7-0.7-0.7C93,50.2,92.7,50.6,92.7,51z"/>
	<circle class="st5" cx="50" cy="45" r="1.5"/>
	<circle class="st5" cx="61.1" cy="45" r="1.5"/>
	<path class="st6" d="M63.6,35.8c0,4.1-16,4.1-16,0s3.6-7.5,8-7.5S63.6,31.6,63.6,35.8z"/>
	<path d="M62.8,35.8c0,0.2-0.1,0.4-0.2,0.5c-0.2,0.3-0.5,0.5-0.8,0.6C61,37.4,60,37.7,59,37.8c-2.3,0.4-4.7,0.4-7,0
		c-1-0.1-1.9-0.5-2.8-0.9c-0.1-0.1-0.3-0.2-0.4-0.3c-0.1-0.1-0.1-0.1-0.2-0.2c0,0-0.2-0.2-0.1-0.1c-0.1-0.1-0.1-0.1-0.1-0.2
		c-0.1-0.1,0,0,0-0.1c-0.1-0.3-0.1-0.1,0-0.4c0.1-3.5,3.2-6.3,6.6-6.5C58.9,28.8,62.8,31.6,62.8,35.8c0,0.4,0.3,0.8,0.7,0.8
		c0.4,0,0.7-0.3,0.7-0.7c0-4.2-3.4-7.6-7.5-8.1s-8.4,1.8-9.6,5.8c-0.4,1.3-0.6,2.8,0.3,3.9c0.7,0.8,1.7,1.3,2.7,1.5
		c2.7,0.7,5.5,0.9,8.3,0.5c2-0.3,5.8-1,5.8-3.7C64.3,34.8,62.8,34.8,62.8,35.8z"/>
	<path d="M64.1,27.1c1.1-2,2.7-3.9,5.1-4.2c2.5-0.3,4.9,1.4,6.8,2.8c2,1.5,3.7,3.3,4.9,5.4c0.6,1,0.9,2,1.1,3.1c0,0.1,0,0.3,0,0.6
		c0,0.3,0,0.6,0,0.9c0,0.1,0,0.2,0,0.4c0-0.3,0-0.1,0,0L82,36.4c-0.5,2.1-1.6,4.1-2.3,6.1c-0.9,2.6-1,5.5,0,8.1
		c1.9,4.8,6.7,8,11,10.4c1.7,0.9,3.2-1.6,1.5-2.6c-2.4-1.3-4.6-2.8-6.7-4.7c-0.3-0.3-0.7-0.7-1-1c-0.2-0.2-0.3-0.4-0.5-0.5l-0.3-0.3
		l-0.1-0.1c-0.5-0.7-0.9-1.4-1.2-2.1c0.2,0.4-0.1-0.2-0.1-0.3c-0.1-0.2-0.1-0.3-0.2-0.5c-0.1-0.3-0.2-0.7-0.2-1c0-0.1,0-0.2,0-0.3
		c0,0,0,0.4,0,0.1c0-0.2,0-0.3,0-0.5c0-0.3,0-0.6,0-1c0-0.2,0-0.3,0-0.5c0-0.2,0-0.2,0-0.3c0,0-0.1,0.4,0,0.1c0.1-0.3,0.1-0.6,0.2-1
		c0.1-0.6,0.3-1.2,0.5-1.8c0.7-2.1,1.9-4,2.2-6.2c0.8-5.6-3.2-10.3-7.3-13.4c-2.5-1.9-5.5-3.7-8.8-3.3s-5.8,2.8-7.3,5.7
		C60.5,27.3,63.1,28.8,64.1,27.1L64.1,27.1z"/>
	<path class="st7" d="M63.3,26.7c1.2-2.3,3.2-4.4,5.9-4.7c2.8-0.3,5.4,1.5,7.5,3.1c3.4,2.6,7.3,6.9,6.2,11.6
		c-0.5,2.1-1.6,4.1-2.3,6.1c-0.8,2.5-1,5.1,0,7.6c1.9,4.5,6.5,7.5,10.6,9.8c0.3,0.1,0.6,0,0.7-0.3c0.1-0.2,0-0.5-0.2-0.7
		c-3.8-2.1-8.2-4.9-10-9.1c-1.1-2.4-0.8-5,0.1-7.5c0.7-2.1,1.9-4,2.2-6.2c0.8-5.1-3.2-9.5-6.9-12.4c-2.4-1.8-5.2-3.6-8.3-3.2
		c-3,0.4-5.2,2.6-6.5,5.2C61.9,26.7,62.9,27.3,63.3,26.7L63.3,26.7z"/>
	<path d="M50.2,26.3c-0.6-1.7-1.6-3.4-3.4-4.2c-1.5-0.7-3.1-0.7-4.7-0.7c-0.7,0-1.5,0-2.2,0.1c-0.7,0.1-1.4,0.2-2,0.3h0l-0.3,0
		c-0.2,0-0.4,0-0.6,0c-0.4,0-0.8,0-1.2,0c-0.2,0-0.2,0,0,0l-0.3-0.1c-0.1,0-0.6-0.2-0.2-0.1c-0.1,0-0.5-0.3-0.2-0.1
		c-0.1-0.1-0.2-0.2-0.3-0.4c-0.5-0.6-1.6-0.5-2.1,0c-0.6,0.6-0.6,1.5,0,2.1c1,1.3,2.9,1.6,4.5,1.4c0.9-0.1,1.7-0.2,2.5-0.3l0.9-0.1
		c0.3-0.1-0.3,0,0.1,0c0.1,0,0.2,0,0.3,0c0.7,0,1.5,0,2.2,0c0.4,0,0.7,0,1.1,0.1c0.2,0,0.2,0,0,0l0.3,0c0.2,0,0.3,0.1,0.5,0.1
		c0.2,0,0.3,0.1,0.5,0.2c-0.3-0.1,0,0,0.1,0.1c0.1,0.1,0.3,0.2,0.4,0.3c0.1,0.1,0.1,0.1,0,0l0.2,0.2c0.1,0.1,0.3,0.3,0.4,0.4
		c-0.1-0.2,0.2,0.3,0.2,0.3c0.2,0.4,0.4,0.7,0.5,1.1c0.2,0.8,1,1.2,1.8,1C50,27.9,50.4,27.1,50.2,26.3
		C50.2,26.3,50.2,26.3,50.2,26.3L50.2,26.3z"/>
	<path class="st7" d="M49.3,26.5c-0.5-1.5-1.3-2.9-2.8-3.7c-1.2-0.6-2.6-0.6-4-0.6c-0.6,0-1.2,0-1.8,0c-0.7,0.1-1.3,0.2-2,0.3
		c-1.2,0.2-3.2,0.5-4-0.6c-0.4-0.6-1.4,0-1,0.6c1.8,2.4,5.1,0.8,7.5,0.8c1.3,0,2.8-0.1,4.1,0.2c1.6,0.4,2.4,1.7,3,3.2
		C48.4,27.5,49.5,27.2,49.3,26.5L49.3,26.5z"/>
	<path class="st6" d="M51.6,28.5c-0.4-0.7-1.3-1.8-1.7-2.5c-0.7,0.6-1.4,1.3-2,2c0,0.1,1.3,1.4,1.6,1.7"/>
	<path d="M52.2,28.1c-0.5-0.8-1.2-1.6-1.7-2.5c-0.2-0.3-0.6-0.5-1-0.3c-0.7,0.6-1.4,1.2-2,1.9c-0.1,0.1-0.2,0.2-0.3,0.4
		c-0.2,0.3-0.1,0.7,0.2,1c0.2,0.3,0.5,0.5,0.7,0.8c0.2,0.3,0.6,0.6,0.9,0.9c0.3,0.3,0.8,0.3,1.1,0c0.3-0.3,0.3-0.7,0-1
		c-0.5-0.5-1-1-1.4-1.5l-0.1-0.1c0,0,0,0,0,0c-0.1-0.1,0.1,0.2,0.1,0.1c0,0.1-0.2,1,0,0.7c0-0.1-0.1,0.2-0.1,0.1l0.1-0.1
		c0.2-0.3,0.5-0.6,0.8-0.8c0.2-0.2,0.4-0.4,0.5-0.5l0.2-0.3l0.1-0.1l-0.1,0.1c0,0,0.1,0,0.1-0.1l-1-0.3c0.5,0.8,1.2,1.6,1.7,2.5
		c0.2,0.4,0.6,0.5,1,0.3C52.3,29,52.4,28.5,52.2,28.1C52.2,28.2,52.2,28.1,52.2,28.1L52.2,28.1z"/>
	<path class="st6" d="M61.9,30.6c0.5-0.9,1.1-1.7,1.8-2.4c0.1-0.1,0.1-0.2,0.1-0.2c0-0.1-0.1-0.2-0.2-0.2c-0.7-0.4-1.5-0.7-2.2-1
		c-0.2-0.1-0.4-0.1-0.5-0.1c-0.2,0.1-0.3,0.3-0.4,0.5l-0.7,1.5"/>
	<path d="M62.6,31c0.2-0.3,0.3-0.5,0.5-0.8c0.1-0.1,0.2-0.3,0.3-0.4l0.1-0.1c0,0.1,0,0,0,0c0,0,0.1-0.1,0.1-0.1
		c0.2-0.2,0.4-0.5,0.6-0.7c0.4-0.4,0.4-1,0-1.4c-0.3-0.2-0.6-0.4-0.9-0.5c-0.3-0.2-0.6-0.3-0.9-0.4c-0.7-0.3-1.6-0.8-2.3-0.2
		c-0.3,0.3-0.4,0.6-0.6,1l-0.5,1.1c-0.2,0.4-0.1,0.8,0.3,1c0.4,0.2,0.8,0.1,1-0.3l0.5-1l0.2-0.5c0-0.1,0.1-0.1,0.1-0.2
		c0.1-0.1,0,0-0.1,0c0,0-0.2,0-0.2,0c0.1,0,0.2,0,0.3,0.1l0.2,0.1l0.1,0.1h0c0.3,0.1,0.6,0.3,0.9,0.4c0.2,0.1,0.3,0.1,0.4,0.2
		c0.1,0.1,0.2,0.1,0.3,0.1c0.1,0,0.1,0,0,0C63,28.2,63,28,63.1,27.7c0.1-0.1,0.1-0.1,0,0c0,0-0.1,0.1-0.1,0.1L62.8,28
		c-0.1,0.1-0.2,0.3-0.3,0.4c-0.5,0.6-0.9,1.2-1.3,1.8c-0.2,0.4-0.1,0.8,0.3,1C61.9,31.5,62.4,31.4,62.6,31z"/>
	<path class="st8" d="M51.7,22.7c0-0.5,0-1,0-1.4c0-0.5,0-1,0-1.5l-2.2,1.7l1.5,1c0.7,0.4,1.6,0.2,2-0.5c0.1-0.1,0.1-0.2,0.2-0.4
		c0.2-0.9,0.2-1.8,0-2.6c-0.1-0.3-0.1-0.7-0.2-1c0-0.1-0.1-0.3,0-0.1c0.1,0.2,0,0,0-0.1c0-0.2,0-0.4,0-0.6c0-0.8-0.7-1.5-1.5-1.5
		c-0.8,0-1.5,0.7-1.5,1.5c0,0.8,0.1,1.5,0.3,2.3c0,0.2,0.1,0.3,0.1,0.5c0,0.3,0-0.3,0-0.1c0,0.1,0,0.2,0,0.2c0,0.2,0,0.3,0,0.5
		c0,0,0,0.1,0,0.1c0,0.1,0,0.1,0-0.2c0,0,0,0.2-0.1,0.3l2.2-0.9l-1.5-1c-0.5-0.3-1.2-0.3-1.7,0.1c-0.2,0.2-0.4,0.4-0.5,0.6
		c-0.1,0.3-0.2,0.7-0.1,1c-0.1-0.5,0-0.1,0,0s0,0.2,0,0.2c0,0.2,0,0.4,0,0.6c0,0.4,0,0.9,0,1.3c0,0.4,0.2,0.7,0.4,1
		c0.3,0.3,0.7,0.4,1.1,0.4c0.4,0,0.8-0.2,1.1-0.4C51.5,23.5,51.7,23.1,51.7,22.7L51.7,22.7z"/>
	<path class="st7" d="M50.7,22.7c-0.1-0.9,0.1-1.8,0-2.7l-0.8,0.6l1.5,1c0.3,0.2,0.6,0.1,0.8-0.2c0,0,0-0.1,0-0.1
		c0.4-1.4-0.3-2.7-0.2-4.2c0-0.7-1.1-0.7-1.1,0c0,0.7,0.1,1.4,0.2,2c0.2,0.6,0.2,1.2,0,1.8l0.8-0.3l-1.5-1c-0.2-0.1-0.4-0.1-0.6,0
		c-0.2,0.1-0.3,0.4-0.2,0.6c0,0.4,0,0.7,0,1.1c0,0.4,0,0.9,0,1.3c0,0.3,0.2,0.5,0.5,0.6C50.5,23.3,50.7,23,50.7,22.7L50.7,22.7z"/>
	<path class="st8" d="M43.9,25.7c-0.1,0-0.1,0-0.2,0C43.5,25.8,43.5,25.8,43.9,25.7c-0.2,0-0.3,0-0.4,0c-0.1,0-0.2,0-0.3,0
		c-0.1,0-0.5-0.1,0,0c-0.5-0.1-0.9-0.2-1.4-0.1c-0.5,0-1,0.3-1.3,0.7c-0.3,0.5-0.3,1,0,1.5c0.1,0.1,0.1,0.2,0.2,0.3
		c0.1,0.2-0.1-0.3,0,0c0,0.1,0.1,0.2,0.1,0.3c0,0.1,0,0.1,0,0.2c0-0.2,0-0.3,0-0.1l1.9-1.4c-1.4-0.4-3-0.4-4.4,0.1
		c-0.8,0.2-1.3,1-1,1.8c0.2,0.8,1,1.3,1.8,1c0.3-0.1,0.6-0.2,0.8-0.2c0,0,0.3,0,0.1,0c-0.2,0,0,0,0,0c0.1,0,0.3,0,0.5,0
		c0.1,0,0.3,0,0.4,0c0.1,0,0.3,0,0.4,0c-0.1,0-0.3,0-0.1,0l0.2,0c0.1,0,0.3,0.1,0.4,0.1c0.9,0.2,2-0.5,1.9-1.4
		c0-0.8-0.3-1.5-0.7-2.1l-1.3,2.2c0.2,0,0.4,0,0.6,0c-0.5,0-0.2,0-0.1,0l0.7,0.1c0.6,0.1,1.2,0,1.8-0.1c0.8-0.2,1.3-1,1-1.8
		C45.5,25.9,44.7,25.5,43.9,25.7L43.9,25.7z"/>
	<path class="st7" d="M44.1,26.6c-0.8,0.2-1.6-0.2-2.4-0.1c-0.4,0-0.8,0.5-0.5,0.8c0.2,0.3,0.4,0.7,0.4,1.1l0.7-0.5
		c-1.3-0.4-2.6-0.3-3.9,0.1c-0.7,0.2-0.4,1.3,0.3,1.1c1.1-0.3,2.2-0.4,3.3-0.1c0.3,0.1,0.6-0.1,0.7-0.4c0,0,0-0.1,0-0.2
		c0-0.6-0.2-1.2-0.6-1.7l-0.5,0.8c0.4,0,0.8,0,1.2,0.1c0.5,0.1,1,0,1.5-0.1c0.3-0.1,0.4-0.4,0.3-0.7C44.6,26.7,44.3,26.6,44.1,26.6
		L44.1,26.6z"/>
	<path class="st8" d="M62.3,22.4c0-0.2-0.1,0.5,0,0.2C62.2,22.6,62.2,22.5,62.3,22.4l0.1-0.3c0.1-0.3,0.2-0.7,0.3-1
		c0.2-0.6,0.3-1.3,0.4-2c0-0.6-0.4-1.1-0.9-1.4c-0.6-0.2-1.2-0.1-1.6,0.3l-0.1,0.1l0.2-0.1l-0.1,0.1l-0.5,0.3
		c-0.2,0.1-0.3,0.2-0.5,0.3c0,0-0.1,0-0.1,0.1c-0.2,0.1,0.2-0.1,0.2-0.1c0,0-0.1,0-0.1,0c0.3-0.1,0.7,0,1,0.2l0.5,0.5
		c0,0,0.2,0.7,0.2,0.7c0,0,0-0.2,0,0.1c0,0.3,0,0.1,0,0s0.1-0.3,0.1-0.4c0.1-0.4,0.3-0.8,0.4-1.2c0.3-0.8,0.7-1.7,0.5-2.6
		c-0.1-0.4-0.3-0.7-0.6-0.9c-0.3-0.2-0.8-0.3-1.2-0.1c-0.8,0.2-1.2,1-1,1.8c0,0-0.1-0.5,0-0.3c0,0.2,0.1-0.3,0-0.3
		c0,0.1,0,0.2-0.1,0.2c-0.1,0.2-0.1,0.4-0.2,0.6c-0.2,0.5-0.4,1-0.5,1.5c-0.2,0.4-0.3,0.9-0.4,1.4c0,0.7,0.4,1.3,1.1,1.5
		c0.5,0.1,1.1,0,1.6-0.3c0.6-0.3,1.2-0.7,1.7-1.2l-2.5-1.1c0,0.2,0.1-0.5,0-0.2c0,0.1,0,0.1,0,0.2c0,0.1-0.1,0.3-0.1,0.4
		c-0.1,0.3-0.2,0.7-0.3,1c-0.2,0.7-0.3,1.3-0.4,2c0,0.8,0.7,1.5,1.5,1.5C61.6,23.9,62.3,23.2,62.3,22.4L62.3,22.4z"/>
	<path class="st7" d="M61.3,22.4C61.3,22.3,61.3,22.5,61.3,22.4c0-0.1,0-0.1,0-0.2s0.1-0.3,0.1-0.4c0.1-0.3,0.2-0.7,0.3-1
		c0.2-0.6,0.3-1.1,0.4-1.7c0-0.2-0.1-0.4-0.3-0.5c-0.2-0.1-0.4,0-0.6,0.1L61,18.8c-0.1,0,0.1-0.1,0,0l-0.1,0.1
		c-0.2,0.1-0.3,0.2-0.5,0.3s-0.3,0.2-0.5,0.3c0,0-0.2,0.1-0.1,0.1c0,0-0.1,0-0.1,0c0,0,0,0,0,0c0.1,0,0.2,0,0.3,0.1l0.2,0.2
		c0,0,0.1,0.3,0.1,0.2c0-0.1,0,0,0,0s0,0.1,0,0s0-0.1,0-0.1c0-0.1,0.1-0.3,0.1-0.4c0.1-0.4,0.3-0.8,0.4-1.2c0.1-0.4,0.3-0.7,0.4-1.1
		c0.1-0.3,0.2-0.6,0.1-1c-0.1-0.3-0.4-0.5-0.7-0.4c0,0,0,0,0,0c-0.3,0.1-0.5,0.4-0.4,0.7c0,0,0-0.2,0-0.1s0,0,0,0s0,0.2,0,0.2
		c-0.1,0.2-0.1,0.4-0.2,0.6c-0.2,0.5-0.4,1-0.5,1.5c-0.2,0.4-0.3,0.7-0.3,1.1c0,0.3,0.2,0.5,0.4,0.6c0.3,0,0.6,0,0.8-0.2
		c0.5-0.3,1.1-0.7,1.5-1.1l-1-0.4c0,0.1,0-0.1,0,0c0,0.1,0,0.1,0,0.2c0,0.1-0.1,0.3-0.1,0.4c-0.1,0.3-0.2,0.7-0.3,1
		c-0.2,0.6-0.3,1.1-0.4,1.7c0,0.3,0.2,0.6,0.5,0.6c0.3,0,0.6-0.2,0.6-0.5C61.3,22.5,61.3,22.5,61.3,22.4L61.3,22.4z"/>
	<path class="st8" d="M67.1,29.2c0.1-0.1,0.3-0.2,0.4-0.3c0.1-0.1,0.2-0.1,0.3-0.1l-0.1,0.1l0.1-0.1l0.5-0.2c0.2-0.1,0.5-0.1-0.2,0
		l-0.8-0.2l0,0l-0.5-0.5c0,0-0.2-0.4-0.1-0.1c0,0.2,0-0.4,0-0.2v0.2c0,0.3,0,0.6,0.1,0.8c0.1,0.9,0.9,1.6,1.8,1.5
		c0.1,0,0.2,0,0.4-0.1c0.5-0.2,1-0.4,1.4-0.7l0.5-0.4l0.2-0.1c0.2-0.1,0.2,0-0.2,0.1l-1.2-0.1c-0.3-0.1-0.7-1.2-0.6-0.6
		c0.1,0.2,0-0.4,0,0c0,0.3,0.1,0.6,0.1,0.9c0.2,0.9,1.1,1.3,2,1.2c1.2-0.1,2.3-0.4,3.3-0.8c0.8-0.2,1.2-1,1-1.8
		c-0.2-0.8-1-1.3-1.8-1c-0.5,0.2-1.1,0.4-1.6,0.5c-0.3,0.1-0.6,0.1-0.8,0.2c-0.5,0-0.9,0.5-0.9,1c0,0.5,0.5,0.9,1,0.9
		c0.5,0,0.9-0.5,0.9-1c0-0.5-0.4-0.9-0.9-0.9h-0.2c-0.1,0-0.1,0-0.2,0c0,0-0.1,0,0.1,0c0.1,0,0.3,0.1,0.4,0.1l0.5,0.5
		c0.2,0.3,0.1,0.4,0.1,0.2c0.1,0.5,0,0.2,0,0c0-0.3-0.1-0.6-0.1-0.9c-0.2-0.9-1-1.4-1.9-1.2c-0.2,0-0.3,0.1-0.4,0.2
		c-0.3,0.1-0.5,0.3-0.7,0.5c-0.2,0.2-0.6,0.3-0.9,0.5c0.3-0.2,0.3-0.1,0.1-0.1c0.7-0.2,1.2,0.1,1.7,1c0-0.1,0-0.1,0,0.3
		c0-0.2,0-0.3,0-0.5c-0.1-0.8-0.1-1.6-0.9-2c-0.5-0.3-1.2-0.3-1.7,0c-0.6,0.2-1.1,0.4-1.6,0.8c-0.7,0.4-0.9,1.3-0.5,2.1
		C65.4,29.3,66.4,29.7,67.1,29.2L67.1,29.2z"/>
	<path class="st7" d="M66.6,28.4c0.3-0.2,0.6-0.4,0.9-0.5l0.5-0.2c0.1,0,0.1,0,0.1-0.1h0.1l-0.6-0.2c0,0,0-0.1,0,0c0,0,0,0.1,0,0.1
		c0,0.2,0,0.3,0,0.5c0,0.3,0.1,0.6,0.2,0.9c0.4,0.4,1.1,0,1.6-0.2c0.3-0.1,0.5-0.3,0.8-0.5l0.3-0.2c0.1-0.1,0.2-0.1,0,0l-0.4-0.1
		c-0.2-0.1-0.2-0.3-0.1-0.1c0-0.1,0,0.2,0,0.1c0,0.2,0,0.4,0.1,0.6c0.1,0.5,0.4,0.6,0.9,0.7c1.1,0.1,2.3-0.4,3.3-0.8
		c0.7-0.2,0.4-1.3-0.3-1.1c-0.6,0.2-1.3,0.4-1.9,0.6c-0.2,0.1-0.5,0.1-0.8,0.1c-0.1,0-0.2,0-0.3,0c0,0-0.1,0-0.1,0l0.3,0.3
		c0,0,0,0,0-0.1c0-0.1,0-0.3,0-0.4c0-0.2,0-0.4-0.1-0.6c-0.1-0.4-0.4-0.6-0.8-0.5c-0.1,0-0.1,0-0.2,0.1c-0.5,0.3-1,0.7-1.6,1
		c0,0-0.1,0-0.1,0c0,0,0-0.1,0,0c0-0.1,0.5,0.3,0.5,0.3c0,0,0-0.1,0,0c0,0,0-0.1,0-0.1l0-0.3c0-0.4-0.1-0.7-0.2-1
		c-0.3-0.4-0.7-0.3-1.1-0.1c-0.5,0.2-1,0.4-1.4,0.7c-0.3,0.2-0.3,0.5-0.2,0.8C66,28.4,66.3,28.5,66.6,28.4L66.6,28.4z"/>
	<path d="M62.5,41.3c0.2,0.1,0.4,0.2,0.6,0.3l0.4,0.3c0.1,0.1-0.1-0.1,0,0l0.1,0.1l0.2,0.2c0.3,0.2,0.6,0.5,0.8,0.8
		c0.1,0.1,0.2,0.3,0.3,0.4c-0.1-0.1,0,0,0,0l0.1,0.1c0,0.1,0.1,0.1,0.1,0.2c0.2,0.3,0.5,0.4,0.8,0.2c0.3-0.2,0.4-0.5,0.2-0.8
		c-0.4-0.7-1-1.3-1.6-1.8c-0.5-0.4-1-0.8-1.5-1.1c-0.3-0.1-0.6-0.1-0.8,0.2C62.1,40.7,62.2,41.1,62.5,41.3L62.5,41.3z"/>
	<path d="M48.9,40.2c-0.3,0-0.5,0-0.7,0.2c-0.2,0.2-0.5,0.3-0.7,0.5c-0.5,0.4-1,0.9-1.5,1.4c-0.2,0.2-0.4,0.5-0.6,0.8
		c-0.1,0.3,0,0.6,0.2,0.8c0.3,0.1,0.6,0.1,0.7-0.2c0.1-0.1,0.1-0.2,0.2-0.3c0.1-0.1-0.1,0.1,0,0l0.1-0.1l0.1-0.2
		c0.2-0.2,0.4-0.4,0.6-0.7s0.5-0.4,0.7-0.6l0.3-0.3c0.1-0.1-0.1,0.1,0,0l0.1-0.1l0.1-0.1c0.1-0.1,0.2-0.1,0.2-0.2c0,0,0.2-0.1,0,0h0
		c-0.1,0-0.2,0-0.3,0c0.3,0.1,0.6,0,0.7-0.3c0.1-0.3,0-0.6-0.3-0.7C49,40.2,49,40.2,48.9,40.2L48.9,40.2z"/>
	<ellipse class="st6" cx="56.1" cy="54" rx="7.7" ry="4.5"/>
	<path class="st9" d="M62.3,52.1c0.3,0.1,0.5,0.2,0.7,0.4c0.2,0.1,0.5,0.4,0.5,0c0-0.4-3.5-2.5-3.9-2.6c-1.3-0.2-2.7-0.4-4-0.4
		c-1.1,0-2.2,0.1-3.3,0.4c-0.4,0.1-3.1,1.6-3,1.9c0.1,0.6,0.4,1.1,0.6,1.7c0,0.1,1.1-0.9,1.5-1.3c0.2,0.2,0.8,0.8,0.9,0.9
		c0.2,0,0.9-0.9,1-0.8c0.5,0.3,1.4,1.2,1.5,1.2c0.1,0,0.8-1.5,1.2-1.9c0.2,0.7,0.8,2.3,1.3,2.7c0.3-0.9,0.5-1.4,0.8-2.3
		c0.2,0.2,1.1,1.2,1.2,1.1l1-0.8c0,0,0.9,1.2,1,1.2C61.5,53.5,62.1,52,62.3,52.1z"/>
	<path d="M62.2,52.4c0.4,0.1,1.6,1.2,1.7,0.1c0.1-0.5-0.4-0.8-0.8-1c-0.6-0.4-1.2-0.8-1.9-1.2c-0.5-0.3-1-0.6-1.5-0.8
		c-0.5-0.1-1-0.2-1.5-0.2c-0.7-0.1-1.5-0.2-2.2-0.2c-1.3-0.1-2.6,0.1-3.8,0.4c-0.6,0.2-1.1,0.5-1.6,0.8c-0.5,0.3-1.2,0.6-1.5,1.1
		c-0.2,0.4,0,0.8,0.2,1.2c0.2,0.4,0.2,1.1,0.7,1.2c0.3,0,0.6-0.3,0.8-0.4c0.4-0.3,0.7-0.6,1-0.9h-0.5c0.3,0.3,0.9,1.2,1.4,0.9
		c0.3-0.2,0.5-0.4,0.7-0.6c0,0,0.1-0.1,0.1-0.1c-0.2,0.2-0.1,0,0,0.2c0.2,0.2,0.3,0.3,0.5,0.4c0.3,0.3,0.8,0.8,1.2,0.3
		c0.4-0.5,0.7-1.3,1.1-1.8l-0.6-0.2c0.3,0.9,0.6,2.2,1.4,2.9c0.2,0.1,0.4,0.1,0.5,0c0,0,0.1-0.1,0.1-0.2c0.2-0.8,0.5-1.5,0.8-2.3
		l-0.6,0.2c0.3,0.5,0.8,0.8,1.2,1.2c0.5,0.3,1.1-0.5,1.5-0.8h-0.5c0.2,0.2,0.4,0.5,0.6,0.7c0.2,0.2,0.4,0.5,0.6,0.6s0.5-0.2,0.6-0.4
		c0.1-0.2,0.2-0.4,0.3-0.6c0.1-0.1,0.2-0.3,0.2-0.4c0.5-0.1,0.3-0.8-0.2-0.7c-0.2,0-0.4,0.3-0.5,0.5s-0.5,0.8-0.5,0.9
		c0,0,0.4,0.2,0.3,0c0,0-0.1-0.1-0.1-0.1c-0.1-0.1-0.2-0.3-0.3-0.4L60.6,52c-0.1-0.1-0.4-0.1-0.5,0l-0.6,0.5l-0.2,0.1
		c-0.1,0.1-0.1,0.1,0.2,0.1c0-0.1-0.1-0.1-0.2-0.1c-0.3-0.3-0.6-0.6-0.9-0.9c-0.1-0.1-0.4-0.1-0.5,0c0,0-0.1,0.1-0.1,0.2
		c-0.2,0.8-0.5,1.5-0.8,2.3l0.6-0.2c-0.7-0.6-0.9-1.7-1.2-2.6c-0.1-0.2-0.4-0.4-0.6-0.2c-0.3,0.3-0.5,0.7-0.7,1.1
		c-0.1,0.3-0.3,0.6-0.5,0.9l0.4-0.1c-0.5-0.1-1.1-1.5-1.8-1.1c-0.1,0.1-0.8,0.6-0.8,0.7c0,0,0.2,0.2,0.1,0c0-0.1-0.2-0.2-0.2-0.2
		c-0.2-0.2-0.3-0.3-0.5-0.5c-0.1-0.1-0.4-0.1-0.5,0c-0.2,0.2-0.4,0.4-0.6,0.6C50.5,52.7,50,53,50,53.1c0,0.1-0.3,0.1,0.1,0.1
		c0.3,0,0.2,0,0.1-0.3c-0.1-0.2-0.2-0.4-0.2-0.6c-0.1-0.3-0.2-0.3,0-0.6c0.7-0.6,1.6-1.1,2.5-1.4c2-0.6,4.3-0.4,6.4-0.1
		c0.4,0,0.9,0.2,1.3,0.4c0.5,0.2,0.9,0.5,1.4,0.8c0.5,0.3,1,0.6,1.5,1c0,0,0.1,0.2,0.2,0.2s0,0.1,0.1,0.1l0.2-0.3
		c0-0.2-0.8-0.5-1-0.5C61.9,51.6,61.7,52.3,62.2,52.4z"/>
	<path class="st9" d="M62.4,56.1c0.9,0.3-2.2,1.7-2.6,1.8c-1.3,0.2-2.7,0.3-4,0.3c-1.1,0-2.2-0.1-3.3-0.3c-0.4-0.1-0.9-0.2-1.3-0.3
		c-0.4-0.2-0.8-0.4-1.2-0.6c-0.3-0.2-0.6-0.3-0.5-0.6c0.1-0.5,0.2-0.9,0.3-1.4c0.6,0.3,1.2,0.6,1.7,1.1c0.2-0.1,0.8-1.2,0.9-1.2
		s0.9,1.2,1,1.1c0.4-0.2,0.9-0.4,1.4-0.5c0.1,0,1.1,1.1,1.5,1.5l1-1c0.3,0.3,0.6,0.6,0.9,0.8c0.2-0.2,1.1-2,1.2-1.9
		c0.5,0.3,1,0.8,1.5,1.1c0,0,0.9-1,1-1C62.1,55,62.2,56,62.4,56.1z"/>
	<path d="M62.2,56.4c0.2,0.1,0-0.2,0-0.2s-0.1,0.1-0.2,0.2c-0.2,0.1-0.4,0.3-0.6,0.4c-0.4,0.2-0.8,0.4-1.3,0.6
		c-0.5,0.2-1.1,0.3-1.6,0.3c-0.9,0.1-1.9,0.2-2.8,0.2c-1.8,0-3.9-0.1-5.4-1.1c-0.1-0.1-0.4-0.2-0.4-0.3s0.1-0.5,0.2-0.7
		c0-0.1,0.1-0.3,0.1-0.5l-0.3,0c0,0,0.2,0.1,0.2,0.1c0.4,0.3,0.9,0.6,1.4,0.9c0.1,0.1,0.3,0.1,0.5-0.1c0.2-0.2,0.4-0.4,0.5-0.7
		c0.1-0.1,0.2-0.2,0.2-0.4l0.1-0.1c-0.3-0.1-0.4,0-0.3,0.1c0,0.2,0.4,0.6,0.5,0.7c0.1,0.1,0.2,0.3,0.4,0.4c0.3,0.1,0.6-0.2,0.8-0.3
		c0.2,0,0.4-0.1,0.6-0.2c0.2,0,0.1-0.1-0.1-0.1l0.1,0.1c0.4,0.5,0.9,0.9,1.3,1.3c0.1,0.1,0.4,0.1,0.5,0l1-1h-0.5
		c0.3,0.3,0.6,0.6,1,0.8c0.1,0.1,0.3,0.1,0.5-0.1c0.3-0.4,0.6-0.9,0.9-1.4c0.1-0.1,0.1-0.2,0.2-0.3l0.1-0.1c0.1-0.1,0,0-0.2,0.1
		c0.2,0.2,0.5,0.4,0.8,0.6c0.2,0.1,0.4,0.3,0.6,0.4c0.1,0.1,0.3,0.1,0.5-0.1l0.3-0.4c0.1-0.1,0.5-0.4,0.5-0.5c0.2-0.1,0-0.1-0.4,0
		l0,0.1c0,0.2,0.1,0.3,0.1,0.5C61.9,56.2,62.1,56.3,62.2,56.4c0.4,0.3,0.8-0.4,0.4-0.6c0.1,0.1,0-0.3-0.1-0.4c0-0.2-0.1-0.3-0.1-0.5
		c-0.1-0.2-0.4-0.4-0.6-0.3c0,0,0,0,0,0c-0.4,0.2-0.8,0.7-1.1,1l0.5-0.1c-0.5-0.3-1-1-1.5-1.2c-0.3-0.1-0.4,0.1-0.6,0.3
		c-0.4,0.5-0.6,1.2-1.1,1.7l0.5-0.1c-0.3-0.2-0.6-0.4-0.8-0.7c-0.1-0.1-0.4-0.1-0.5,0l-1,1h0.5c-0.4-0.5-0.9-1-1.4-1.5
		c-0.2-0.1-0.4-0.2-0.7-0.1c-0.2,0.1-0.5,0.1-0.7,0.2c-0.1,0-0.2,0.1-0.2,0.1c-0.2,0.2,0.1,0,0,0.1c0-0.1-0.5-0.7-0.6-0.8
		c-0.1-0.2-0.3-0.4-0.6-0.4c-0.5,0-0.8,1-1.2,1.3l0.5-0.1c-0.5-0.4-1-0.7-1.5-1c-0.5-0.3-0.8-0.1-0.9,0.5c-0.2,0.7-0.5,1.4,0.1,1.9
		c0.7,0.5,1.6,0.9,2.4,1.1c2.1,0.4,4.2,0.5,6.3,0.2c0.7,0,1.3-0.1,2-0.3c0.5-0.2,0.9-0.4,1.4-0.6c0.4-0.2,2.2-1.2,1-1.8
		C62.2,55.6,61.8,56.2,62.2,56.4z"/>
	<path d="M63.3,54c-0.1,2.2-2.9,3.3-4.7,3.7c-2.6,0.5-5.7,0.3-7.9-1.2c-0.8-0.5-1.5-1.2-1.7-2.2c-0.1-0.9,0.3-1.8,1-2.3
		c1.9-1.8,5-2.1,7.5-1.9C59.5,50.3,63.2,51.4,63.3,54c0,0.3,0.3,0.6,0.6,0.6c0.3,0,0.6-0.3,0.6-0.6c-0.1-2.8-3.1-4.2-5.4-4.7
		c-3-0.7-6.7-0.4-9.3,1.5c-1,0.6-1.6,1.6-1.9,2.8c-0.1,1.1,0.3,2.3,1.1,3.1c2.2,2.2,5.9,2.7,8.8,2.3c2.6-0.3,6.6-1.7,6.6-4.9
		c0-0.3-0.3-0.6-0.6-0.5C63.5,53.4,63.3,53.7,63.3,54z"/>
</g>
</svg>
