<?xml version="1.0" encoding="utf-8"?>
<!-- Generator: Adobe Illustrator 24.2.0, SVG Export Plug-In . SVG Version: 6.00 Build 0)  -->
<svg version="1.1" id="Layer_1" xmlns="http://www.w3.org/2000/svg" xmlns:xlink="http://www.w3.org/1999/xlink" x="0px" y="0px"
	 viewBox="0 0 112 102" style="enable-background:new 0 0 112 102;" xml:space="preserve">
<style type="text/css">
	.st0{fill:#FFDA83;}
	.st1{fill:#1D1D1B;}
	.st2{fill:#FFE8B8;}
	.st3{clip-path:url(#SVGID_2_);}
	.st4{fill:#E66869;}
	.st5{font-family:'Courier-Bold';}
	.st6{font-size:14.2774px;}
	.st7{fill:none;stroke:#000000;stroke-width:0.4923;stroke-miterlimit:10;}
	.st8{fill:none;}
	.st9{fill:#7DC4CA;}
	.st10{fill:#F8DAD4;}
</style>
<g id="_10._Juego">
	<g id="juego_1">
		<path class="st0" d="M74.3,2.2H37.7c-6.1,0-11.7,3.2-14.8,8.5L4.7,42.5c-3,5.3-3,11.8,0,17L23,91.2c3,5.3,8.7,8.5,14.8,8.5h36.6
			c6.1,0,11.7-3.2,14.8-8.5l18.3-31.7c3-5.3,3-11.8,0-17L89.1,10.8C86,5.5,80.4,2.2,74.3,2.2z"/>
		<path class="st1" d="M74.3,1.5H38.9c-2.4-0.1-4.7,0.3-7,1c-4,1.4-7.4,4.3-9.6,8c-0.6,1.1-1.3,2.2-1.9,3.3l-8.9,15.3L4.4,41.5
			c-1.7,2.7-2.6,5.8-2.7,9c-0.1,3.5,0.9,6.9,2.6,9.8l6.9,12l9,15.5c0.7,1.2,1.4,2.4,2.1,3.6c2,3.4,5,6.1,8.7,7.6
			c4.2,1.8,8.9,1.4,13.4,1.4H63c3.8,0,7.5,0,11.3,0c4.5,0,8.9-1.7,12.2-4.8c1.5-1.5,2.9-3.3,3.9-5.2L98.1,77l8.5-14.7
			c0.6-1.1,1.3-2.2,1.9-3.3c2.4-4.9,2.5-10.6,0.2-15.6c-0.6-1.2-1.3-2.4-2-3.5l-3.7-6.3l-9.4-16.2l-3.2-5.6c-1-1.8-2.2-3.5-3.6-5
			C83.5,3.4,79,1.5,74.3,1.5c-0.4,0-0.7,0.3-0.7,0.8S73.9,3,74.3,3c4.8,0,9.3,2.1,12.5,5.8c1,1.3,1.9,2.6,2.7,4.1l8,13.9l8.1,14.1
			c0.8,1.3,1.5,2.5,2.1,3.9c1.9,4.7,1.6,10-0.9,14.5c-1.8,3.2-3.7,6.4-5.5,9.6L92,84.6l-3,5.2c-1.1,2-2.5,3.8-4.2,5.3
			c-3,2.5-6.8,3.9-10.7,3.9H38.5c-2.7,0.1-5.4-0.5-7.9-1.6c-3-1.5-5.5-3.9-7.2-6.8l-6.5-11.2l-9-15.6l-2.4-4.2
			c-1.8-3.1-2.7-6.7-2.3-10.3c0.5-4.5,3.3-8.5,5.6-12.4L18,20.9c1.9-3.2,3.7-6.5,5.6-9.7c2.2-3.8,5.8-6.5,10-7.6
			c1.9-0.4,3.8-0.6,5.7-0.5h35c0.4,0,0.7-0.3,0.7-0.7C75.1,1.8,74.7,1.5,74.3,1.5z"/>
		<circle class="st2" cx="56" cy="51" r="42.8"/>
		<path class="st1" d="M98.1,51c0,23.1-18.8,41.9-41.9,41.9C33,92.8,14.3,74,14.3,50.9S33.1,9,56.3,9c20.6,0,38.2,15.1,41.4,35.5
			C98,46.7,98.1,48.8,98.1,51c0,0.4,0.3,0.7,0.7,0.7c0.4,0,0.7-0.3,0.7-0.7C99.5,26.9,80,7.5,55.9,7.6c-24,0.1-43.5,19.6-43.4,43.7
			c0.1,24,19.6,43.5,43.7,43.4c21.5-0.1,39.7-15.8,42.9-37c0.3-2.2,0.5-4.4,0.5-6.7c0-0.4-0.3-0.7-0.7-0.7
			C98.5,50.3,98.1,50.6,98.1,51z"/>
		<g>
			<defs>
				<circle id="SVGID_1_" cx="56" cy="51" r="36.9"/>
			</defs>
			<clipPath id="SVGID_2_">
				<use xlink:href="#SVGID_1_"  style="overflow:visible;"/>
			</clipPath>
			<g class="st3">
				<text transform="matrix(1 0 0 1 5.5141 22.7793)" class="st4 st5 st6">10101010101</text>
				<text transform="matrix(1 0 0 1 5.5141 22.7793)" class="st7 st5 st6">10101010101</text>
				<text transform="matrix(1 0 0 1 5.5141 35.5796)" class="st4 st5 st6">01010101010</text>
				<text transform="matrix(1 0 0 1 5.5141 35.5796)" class="st7 st5 st6">01010101010</text>
				<text transform="matrix(1 0 0 1 5.5141 48.3804)" class="st4 st5 st6">10101010101</text>
				<text transform="matrix(1 0 0 1 5.5141 48.3804)" class="st7 st5 st6">10101010101</text>
				<text transform="matrix(1 0 0 1 5.5141 61.1807)" class="st4 st5 st6">01010101010</text>
				<text transform="matrix(1 0 0 1 5.5141 61.1807)" class="st7 st5 st6">01010101010</text>
				<text transform="matrix(1 0 0 1 5.5141 73.9805)" class="st4 st5 st6">10101010101</text>
				<text transform="matrix(1 0 0 1 5.5141 73.9805)" class="st7 st5 st6">10101010101</text>
				<text transform="matrix(1 0 0 1 14.7954 86.7812)" class="st4 st5 st6">010101010</text>
				<text transform="matrix(1 0 0 1 14.7954 86.7812)" class="st7 st5 st6">010101010</text>
			</g>
		</g>
		<path class="st1" d="M92.2,51c-0.1,19.8-16.2,35.9-36,35.8c-19.8-0.1-35.9-16.2-35.8-36C20.4,31,36.5,14.9,56.4,15
			c17.7,0,32.7,13,35.4,30.4C92.1,47.2,92.2,49.1,92.2,51c0,0.4,0.3,0.7,0.7,0.7c0.4,0,0.7-0.3,0.7-0.7c0-20.8-16.9-37.6-37.6-37.6
			c-20.8,0-37.6,16.9-37.6,37.6c0,20.8,16.9,37.6,37.6,37.6c18.5,0,34.3-13.5,37.1-31.8c0.3-1.9,0.4-3.9,0.4-5.8
			c0-0.4-0.3-0.7-0.7-0.7C92.5,50.3,92.2,50.6,92.2,51z"/>
		<path class="st8" d="M65.1,52.9c-0.6-0.5-1.3-0.7-2.1-0.7H49.1c-0.8,0-1.5,0.3-2.1,0.7c-1,0.8-2.1,1.4-3.3,1.8L42,59.6h28.1
			l-1.6-4.9C67.2,54.3,66.1,53.7,65.1,52.9z"/>
		<path class="st9" d="M29.5,65.6c0,2.2,1.8,4.1,4.1,4.1h2.1c2,0,3.6-1.4,4-3.3l0.8-2.4h-11V65.6z"/>
		<path d="M28.8,65.6c0,1.6,0.8,3,2,3.9c1,0.7,2.2,0.9,3.4,0.9c1.1,0,2.2,0.1,3.3-0.4c1.4-0.6,2.5-1.8,2.9-3.3
			c0.2-0.8,0.5-1.7,0.8-2.5c0.1-0.4-0.1-0.8-0.5-0.9c-0.1,0-0.1,0-0.2,0h-11c-0.4,0-0.7,0.3-0.7,0.7V65.6c0,0.4,0.3,0.7,0.7,0.7
			s0.7-0.3,0.7-0.7V64l-0.7,0.7h11l-0.7-0.9l-0.7,2c-0.1,0.4-0.2,0.7-0.3,1.1c-0.2,0.6-0.6,1-1.1,1.4c-0.8,0.6-1.7,0.6-2.7,0.6
			c-0.8,0.1-1.7,0-2.5-0.2c-1.3-0.5-2.2-1.7-2.2-3.1C30.2,64.6,28.8,64.6,28.8,65.6z"/>
		<path class="st9" d="M43.7,54.7c1.2-0.4,2.3-1,3.3-1.8c0.6-0.5,1.3-0.7,2.1-0.7H63c0.8,0,1.5,0.3,2.1,0.7c1,0.8,2.1,1.4,3.3,1.8
			l1.6,4.9h12.5v-9.4c3.9-5.5,2.6-13.2-2.9-17.2c-4.7-3.4-11.2-2.9-15.5,1c-0.4,0.4-1,0.6-1.5,0.5H49.4c-0.5,0-1.1-0.2-1.5-0.6
			c-5-4.6-12.8-4.3-17.4,0.7c-4,4.3-4.4,10.8-1,15.5v9.4H42L43.7,54.7z M73.4,50c-1.6,0-2.8-1.3-2.8-2.8c0-1.6,1.3-2.8,2.8-2.8
			c1.6,0,2.8,1.3,2.8,2.8l0,0C76.3,48.7,75,50,73.4,50L73.4,50L73.4,50z M78.7,39c1.6,0,2.8,1.3,2.8,2.8c0,1.6-1.3,2.8-2.8,2.8
			c-1.6,0-2.8-1.3-2.8-2.8l0,0C75.9,40.3,77.1,39,78.7,39z M73.4,33.8c1.6,0,2.8,1.3,2.8,2.8c0,1.6-1.3,2.8-2.8,2.8
			c-1.6,0-2.8-1.3-2.8-2.8l0,0C70.6,35,71.9,33.8,73.4,33.8z M68.2,39c1.6,0,2.8,1.3,2.8,2.8c0,1.6-1.3,2.8-2.8,2.8
			c-1.6,0-2.8-1.3-2.8-2.8C65.3,40.3,66.6,39,68.2,39C68.2,39,68.2,39,68.2,39z M30.3,43c0-5.1,4.1-9.2,9.2-9.2
			c5.1,0,9.2,4.1,9.2,9.2c0,5.1-4.1,9.2-9.2,9.2c0,0,0,0,0,0C34.4,52.2,30.3,48.1,30.3,43L30.3,43z"/>
		<path d="M43.9,55.4c0.7-0.3,1.4-0.6,2.1-1c0.7-0.4,1.2-0.9,1.9-1.3c0.5-0.2,1-0.3,1.6-0.3h12.9c0.4,0,0.8,0,1.3,0.1
			c0.8,0.2,1.4,0.8,2.1,1.3c0.8,0.5,1.6,0.9,2.5,1.2l-0.5-0.5l1.6,4.9c0.1,0.3,0.4,0.5,0.7,0.5h12.5c0.4,0,0.7-0.3,0.7-0.7v-9
			c0-0.1,0-0.2,0-0.4c0,0,0,0,0-0.1c-0.1,0.5,0.1,0.1,0.2,0c0.1-0.2,0.2-0.4,0.4-0.6c1.3-2.3,1.9-5,1.7-7.7
			c-0.7-7.2-7-12.4-14.2-11.8c-2.7,0.3-5.3,1.4-7.4,3.2c-0.4,0.4-0.9,0.6-1.5,0.6h-5.2c-2.6,0-5.1,0-7.7,0c-0.6,0-1.2-0.3-1.6-0.7
			c-5.5-4.7-13.7-4-18.4,1.5c-1,1.1-1.7,2.4-2.3,3.8c-0.9,2.4-1.1,5.1-0.5,7.6c0.3,1.3,0.8,2.5,1.5,3.7c0.1,0.1,0.1,0.2,0.2,0.3
			c0.1,0.1,0.3,0.6,0.2,0.1c0,0,0,0,0,0.1c0,0.1,0,0.3,0,0.4v8.9c0,0.4,0.3,0.7,0.7,0.7H42c0.3,0,0.6-0.2,0.7-0.5l1.7-4.9
			c0.3-0.9-1.1-1.3-1.4-0.4l-1.6,4.9l0.7-0.5H29.5l0.7,0.7v-8.7c0-0.3,0-0.6,0-0.8c-0.1-0.5-0.6-1-0.9-1.5c-0.3-0.6-0.6-1.2-0.8-1.8
			c-2-6.1,1.4-12.6,7.4-14.6c2-0.6,4-0.7,6-0.3c1.2,0.3,2.3,0.7,3.4,1.3c0.5,0.3,1,0.6,1.5,1c0.4,0.4,1,0.8,1.5,1
			c0.8,0.2,1.6,0.2,2.4,0.2H55c2.5,0,5,0,7.5,0c0.5,0,0.9-0.1,1.3-0.2c0.5-0.2,1-0.6,1.3-1c0.5-0.4,1-0.8,1.5-1.1
			c5.5-3.2,12.6-1.4,15.8,4.1c1.7,2.9,2.1,6.4,1,9.5c-0.2,0.6-0.4,1.2-0.7,1.7c-0.3,0.5-0.9,1.1-0.9,1.7c0,0.2,0,0.5,0,0.7v8.7
			l0.7-0.7H70.1l0.7,0.5c-0.5-1.6-1-3.2-1.6-4.8c-0.2-0.7-1-0.8-1.6-1.1c-0.9-0.4-1.7-1.1-2.6-1.6c-0.8-0.4-1.6-0.5-2.4-0.5H50.7
			c-0.5,0-1,0-1.6,0c-0.9,0-1.8,0.3-2.6,0.9c-0.9,0.7-2,1.2-3.1,1.7C42.6,54.3,43,55.8,43.9,55.4z"/>
		<path d="M73.4,49.3c-0.5,0-0.9-0.1-1.3-0.4c-0.2-0.1,0,0-0.1,0L72,48.7l-0.1-0.1c0,0-0.2-0.2-0.1-0.1c-0.1-0.1-0.1-0.2-0.2-0.3
			l-0.1-0.1c0-0.1,0-0.1,0,0l0-0.1c-0.3-0.9-0.1-1.8,0.7-2.4c-0.1,0.1,0,0,0,0l0.2-0.1l0.1-0.1c0,0,0.2-0.1,0.1,0
			c0.1,0,0.2-0.1,0.4-0.1l0.1,0h0h0.1c0.2,0,0.4,0,0.6,0c0.1,0,0.2,0.1,0.4,0.1c0.1,0,0.2,0.1,0.3,0.2c0.4,0.2,0.7,0.6,0.9,1
			c0,0,0-0.1,0,0c0,0.1,0,0.1,0.1,0.2c0,0,0,0.1,0,0.1c0,0,0,0.2,0,0.1c0-0.1,0,0.2,0,0.1c0,0.1,0,0.1,0,0.2c0,0.1,0,0.1,0,0.2
			c0,0.2,0,0,0,0.1c0,0.3-0.1,0.5-0.3,0.7c0,0,0,0.1-0.1,0.1l-0.1,0.1c0-0.1,0,0,0,0c-0.1,0-0.2,0.2-0.3,0.3
			C74.4,49.1,73.9,49.3,73.4,49.3c-0.9,0-0.9,1.5,0,1.5c1.5,0,2.8-1,3.4-2.4c0.5-1.4,0.1-3-1-3.9c-1.5-1.3-3.8-1.1-5,0.4
			c-1.3,1.5-1.1,3.8,0.4,5c0.6,0.6,1.5,0.9,2.3,0.9C74.4,50.8,74.4,49.3,73.4,49.3z"/>
		<path d="M78.7,39.8c0.5,0,0.9,0.1,1.3,0.4c0.2,0.1,0,0,0.1,0l0.1,0.1l0.1,0.1c0,0,0.2,0.2,0.1,0.1c0.1,0.1,0.1,0.2,0.2,0.3
			c0,0,0,0.1,0.1,0.1c0,0,0,0.1,0,0c0,0,0,0.1,0,0.1C81,42,80.7,43,80,43.5c0.1-0.1,0,0,0,0l-0.2,0.1l-0.1,0.1c0,0-0.2,0.1-0.1,0
			c-0.1,0-0.2,0.1-0.4,0.1l-0.1,0h0h-0.1c-0.1,0-0.2,0-0.4,0c0,0-0.3,0-0.1,0c-0.1,0-0.1,0-0.1,0c-0.1,0-0.2-0.1-0.4-0.1
			c-0.1,0-0.2-0.1-0.3-0.2c-0.4-0.2-0.7-0.6-0.9-1c0,0,0,0.1,0,0c0-0.1,0-0.1-0.1-0.2s0-0.1,0-0.1c0,0,0-0.2,0-0.1s0-0.2,0-0.1
			c0-0.1,0-0.1,0-0.2c0-0.1,0-0.1,0-0.2c0-0.2,0,0,0-0.1c0-0.3,0.1-0.5,0.3-0.7l0.1-0.1l0.1-0.1c0,0.1,0,0,0,0
			c0.1,0,0.2-0.2,0.3-0.3C77.7,40,78.2,39.8,78.7,39.8c0.9,0,0.9-1.5,0-1.5c-1.5,0-2.8,1-3.4,2.4c-0.5,1.4-0.1,3,1.1,3.9
			c1.5,1.3,3.8,1.1,5-0.4c1.3-1.5,1.1-3.8-0.4-5c-0.6-0.5-1.5-0.8-2.3-0.8C77.8,38.3,77.8,39.8,78.7,39.8z"/>
		<path d="M73.4,34.5c0.5,0,0.9,0.2,1.3,0.4c0.2,0.1,0,0,0.1,0l0.1,0.1l0.1,0.1c0,0,0.2,0.2,0.1,0.1c0.1,0.1,0.1,0.2,0.2,0.3
			l0.1,0.1c0,0.1,0,0.1,0,0c0,0,0,0.1,0,0.1c0.3,0.9,0.1,1.8-0.7,2.4l0,0c-0.1,0-0.1,0.1-0.2,0.1l-0.1,0.1c0,0-0.2,0.1-0.1,0.1
			c-0.1,0-0.2,0.1-0.4,0.1l-0.2,0c-0.1,0-0.1,0,0,0h-0.1c-0.2,0-0.4,0-0.6,0c-0.1,0-0.2-0.1-0.4-0.1c-0.1,0-0.2-0.1-0.3-0.1
			c-0.4-0.2-0.7-0.6-0.9-1c0,0,0,0.1,0,0c0-0.1,0-0.1-0.1-0.2s0-0.1,0-0.1c0,0,0-0.2,0-0.1c0,0.1,0-0.2,0-0.1c0-0.1,0-0.1,0-0.2
			s0-0.1,0-0.2c0-0.2,0,0,0-0.1c0-0.3,0.1-0.5,0.3-0.7l0.1-0.1c0,0,0.1-0.1,0.1-0.1c0,0.1,0,0,0,0c0.1,0,0.2-0.2,0.3-0.3
			C72.5,34.7,73,34.5,73.4,34.5c0.4,0,0.7-0.4,0.7-0.8c0-0.4-0.3-0.7-0.7-0.7c-1.5,0-2.8,1-3.4,2.4c-0.5,1.4-0.1,3,1.1,3.9
			c1.5,1.3,3.8,1.1,5-0.4c1.3-1.5,1.1-3.8-0.4-5c-0.6-0.5-1.5-0.8-2.3-0.8c-0.4,0-0.8,0.3-0.8,0.7C72.7,34.2,73,34.5,73.4,34.5z"/>
		<path d="M68.2,39.8c0.5,0,0.9,0.1,1.3,0.4c0.2,0.1,0,0,0.1,0l0.1,0.1c0,0,0.1,0.1,0.1,0.1c0,0,0.2,0.2,0.1,0.1
			c0.1,0.1,0.1,0.2,0.2,0.3c0,0,0,0.1,0.1,0.1c0,0,0,0.1,0,0c0,0,0,0.1,0,0.1c0.3,0.9,0.1,1.8-0.7,2.4c0.1-0.1,0,0,0,0l-0.2,0.1
			l-0.1,0.1c0,0-0.2,0.1-0.1,0c-0.1,0-0.2,0.1-0.4,0.1l-0.1,0h0h-0.1c-0.2,0-0.4,0-0.6,0c-0.1,0-0.2-0.1-0.4-0.1
			c-0.1,0-0.2-0.1-0.3-0.2c-0.4-0.2-0.7-0.6-0.9-1c0,0,0,0.1,0,0c0-0.1,0-0.1-0.1-0.2s0-0.1,0-0.1c0,0,0-0.2,0-0.1s0-0.2,0-0.1
			c0-0.1,0-0.1,0-0.2c0-0.1,0-0.1,0-0.2c0-0.2,0,0,0-0.1c0-0.3,0.1-0.5,0.3-0.7l0.1-0.1l0.1-0.1c0,0.1,0,0,0,0c0,0,0.2-0.2,0.3-0.3
			C67.2,39.9,67.6,39.8,68.2,39.8c0.9,0,0.9-1.5,0-1.5c-1.5,0-2.8,1-3.4,2.4c-0.5,1.4-0.1,3,1.1,3.9c1.5,1.3,3.8,1.1,5-0.4
			c1.3-1.5,1.1-3.8-0.4-5c-0.6-0.5-1.5-0.8-2.3-0.8C67.2,38.3,67.2,39.8,68.2,39.8z"/>
		<path d="M31,43c0-4.7,3.8-8.4,8.5-8.4s8.4,3.8,8.4,8.5c0,4.7-3.8,8.4-8.5,8.4c-0.5,0-1.1-0.1-1.6-0.2C33.9,50.5,31.1,47.1,31,43
			c0-0.4-0.3-0.7-0.7-0.7s-0.7,0.3-0.7,0.7c0,5.5,4.5,9.9,9.9,9.9c5.5,0,9.9-4.5,9.9-9.9c0-5.5-4.5-9.9-9.9-9.9
			c-0.7,0-1.3,0.1-1.9,0.2c-4.6,1-7.9,5-8,9.7c0,0.4,0.3,0.7,0.7,0.7C30.7,43.8,31,43.5,31,43z"/>
		<path class="st9" d="M72.4,66.3c0.4,1.9,2,3.3,4,3.3h2.1c2.2,0,4.1-1.8,4.1-4.1V64h-11L72.4,66.3z"/>
		<path d="M71.7,66.5c0.3,1.4,1.2,2.6,2.5,3.3c1,0.4,2.1,0.6,3.2,0.6c1,0.1,2,0,3-0.3c1.3-0.5,2.4-1.6,2.9-3c0.3-1,0.2-2.1,0.2-3.1
			c0-0.4-0.3-0.7-0.7-0.7h-11c-0.4,0-0.7,0.3-0.7,0.7c0,0.1,0,0.1,0,0.2L71.7,66.5c0.3,0.9,1.7,0.5,1.4-0.4l-0.8-2.3l-0.7,0.9h11
			L81.8,64c0,0.9,0.1,2-0.2,2.8c-0.5,1.3-1.7,2.1-3.1,2.1c-0.8,0-1.6,0-2.4,0c-1.5-0.2-2.7-1.3-3-2.8C72.9,65.2,71.5,65.6,71.7,66.5
			z"/>
		<path class="st4" d="M48.6,43c0-5.1-4.1-9.2-9.2-9.2S30.3,38,30.3,43s4.1,9.2,9.2,9.2c0,0,0,0,0,0C44.5,52.2,48.6,48.1,48.6,43z
			 M34.4,44.7v-3.3h3.4v-3.4h3.4v3.4h3.4v3.3h-3.4v3.4h-3.4v-3.4H34.4z"/>
		<path class="st1" d="M49.4,43c0-5.5-4.4-9.9-9.9-9.9s-9.9,4.4-9.9,9.9S34,53,39.5,53c0.7,0,1.3-0.1,2-0.2
			C46,51.8,49.3,47.7,49.4,43c0-0.4-0.3-0.7-0.7-0.7s-0.7,0.3-0.7,0.7c0,4.7-3.8,8.4-8.4,8.4c-4.7,0-8.4-3.8-8.4-8.4
			c0-4.7,3.8-8.4,8.4-8.4c0.6,0,1.1,0.1,1.7,0.2c3.9,0.8,6.8,4.3,6.8,8.3c0,0.4,0.3,0.7,0.7,0.7S49.4,43.5,49.4,43L49.4,43z"/>
		<path class="st1" d="M35.1,44.7v-3.3l-0.7,0.7h3.4c0.4,0,0.7-0.3,0.7-0.7v-3.4l-0.7,0.7h3.4l-0.7-0.7v3.4c0,0.4,0.3,0.7,0.7,0.7
			h3.4l-0.7-0.7v3.3l0.7-0.7h-3.4c-0.4,0-0.7,0.3-0.7,0.7v3.4l0.7-0.7h-3.4l0.7,0.7v-3.4c0-0.4-0.3-0.7-0.7-0.7h-3.4
			c-0.4,0-0.7,0.3-0.7,0.7s0.3,0.7,0.7,0.7h3.4l-0.7-0.7v3.4c0,0.4,0.3,0.7,0.7,0.7h3.4c0.4,0,0.7-0.3,0.7-0.7v-3.4l-0.7,0.7h3.4
			c0.4,0,0.7-0.3,0.7-0.7v-3.3c0-0.4-0.3-0.7-0.7-0.7h-3.4l0.7,0.7v-3.4c0-0.4-0.3-0.7-0.7-0.7h-3.4c-0.4,0-0.7,0.3-0.7,0.7v3.4
			l0.7-0.7h-3.4c-0.4,0-0.7,0.3-0.7,0.7v3.3c0,0.4,0.3,0.8,0.8,0.8S35.1,45.1,35.1,44.7z"/>
		<polygon class="st10" points="41.1,48.2 41.1,44.7 44.6,44.7 44.6,41.4 41.1,41.4 41.1,37.9 37.8,37.9 37.8,41.4 34.4,41.4 
			34.4,44.7 37.8,44.7 37.8,48.2 		"/>
		<path d="M41.9,48.2v-3.4l-0.7,0.7h3.4c0.4,0,0.7-0.3,0.7-0.7v-3.3c0-0.4-0.3-0.7-0.7-0.7h-3.4l0.7,0.7v-3.4c0-0.4-0.3-0.7-0.7-0.7
			h-3.4c-0.4,0-0.7,0.3-0.7,0.7v3.4l0.7-0.7h-3.4c-0.4,0-0.7,0.3-0.7,0.7v3.3c0,0.4,0.3,0.7,0.7,0.7h3.4l-0.7-0.7v3.4
			c0,0.4,0.3,0.7,0.7,0.7h3.4C41.6,48.9,41.9,48.6,41.9,48.2c0-0.4-0.3-0.7-0.7-0.7h-3.4l0.7,0.7v-3.4c0-0.4-0.3-0.7-0.7-0.7h-3.4
			l0.7,0.7v-3.3l-0.7,0.7h3.4c0.4,0,0.7-0.3,0.7-0.7v-3.4l-0.7,0.7h3.4l-0.7-0.7v3.4c0,0.4,0.3,0.7,0.7,0.7h3.4l-0.7-0.7v3.3
			l0.7-0.7h-3.4c-0.4,0-0.7,0.3-0.7,0.7v3.4c0,0.4,0.3,0.7,0.7,0.7S41.9,48.6,41.9,48.2z"/>
		<path class="st4" d="M73.4,39.4c1.6,0,2.8-1.3,2.8-2.8c0-1.6-1.3-2.8-2.8-2.8c-1.6,0-2.8,1.3-2.8,2.8l0,0
			C70.6,38.2,71.9,39.4,73.4,39.4z"/>
		<path d="M73.4,40.2c1.5,0,2.8-1,3.4-2.4c0.5-1.4,0.1-3-1-3.9c-1.5-1.3-3.8-1.1-5,0.4c-1.3,1.5-1.1,3.8,0.4,5
			C71.8,39.9,72.6,40.2,73.4,40.2c1,0,1-1.5,0-1.5c-0.5,0-0.9-0.1-1.3-0.4c-0.2-0.1,0,0-0.1,0L72,38.1L71.9,38c0,0-0.2-0.2-0.1-0.1
			c-0.1-0.1-0.1-0.2-0.2-0.3l-0.1-0.1c0-0.1,0-0.1,0,0l0-0.1c-0.3-0.9-0.1-1.8,0.7-2.4c-0.1,0.1,0,0,0,0l0.2-0.1l0.1-0.1
			c0,0,0.2-0.1,0.1,0c0.1,0,0.2-0.1,0.4-0.1l0.1,0c0.1,0,0.1,0,0,0h0.1c0.2,0,0.4,0,0.6,0c0.1,0,0.2,0.1,0.4,0.1
			c0.1,0,0.2,0.1,0.3,0.2c0.4,0.2,0.7,0.6,0.9,1c0,0,0-0.1,0,0c0,0.1,0,0.1,0.1,0.2c0,0.1,0,0.1,0,0.1c0,0,0,0.2,0,0.1
			c0-0.1,0,0.2,0,0.1c0,0.1,0,0.1,0,0.2s0,0.1,0,0.2c0,0.2,0,0,0,0.1c0,0.3-0.1,0.5-0.3,0.7c0,0,0,0.1-0.1,0.1L75.1,38
			c0-0.1,0,0,0,0c-0.1,0-0.2,0.2-0.3,0.3c-0.4,0.3-0.9,0.5-1.3,0.5C72.5,38.7,72.5,40.2,73.4,40.2z"/>
		<path class="st4" d="M73.4,44.3c-1.6,0-2.8,1.3-2.8,2.8c0,1.6,1.3,2.8,2.8,2.8c1.6,0,2.8-1.3,2.8-2.8l0,0
			C76.3,45.6,75,44.3,73.4,44.3z"/>
		<path d="M73.4,43.6c-1.5,0-2.8,1-3.4,2.4c-0.5,1.4-0.1,3,1.1,3.9c1.5,1.3,3.8,1.1,5-0.4c1.3-1.5,1.1-3.8-0.4-5
			C75.1,43.9,74.3,43.6,73.4,43.6c-1,0-1,1.5,0,1.5c0.5,0,0.9,0.1,1.3,0.4c0.2,0.1,0,0,0.1,0l0.1,0.1l0.1,0.1c0,0,0.2,0.2,0.1,0.1
			c0.1,0.1,0.1,0.2,0.2,0.3l0.1,0.1c0,0.1,0,0.1,0,0c0,0,0,0.1,0,0.1c0.3,0.9,0.1,1.8-0.7,2.4l0,0c-0.1,0-0.1,0.1-0.2,0.1L74.4,49
			c0,0-0.2,0.1-0.1,0.1c-0.1,0-0.2,0.1-0.4,0.1l-0.2,0c-0.1,0-0.1,0,0,0h-0.1c-0.2,0-0.4,0-0.6,0c-0.1,0-0.2-0.1-0.4-0.1
			c-0.1,0-0.2-0.1-0.3-0.1c-0.4-0.2-0.7-0.6-0.9-1c0,0,0,0.1,0,0c0-0.1,0-0.1-0.1-0.2s0-0.1,0-0.1c0,0,0-0.2,0-0.1
			c0,0.1,0-0.2,0-0.1c0-0.1,0-0.1,0-0.2s0-0.1,0-0.2c0-0.2,0,0,0-0.1c0-0.3,0.1-0.5,0.3-0.7l0.1-0.1l0.1-0.1c0,0.1,0,0,0,0
			c0.1,0,0.2-0.2,0.3-0.3c0.4-0.3,0.9-0.5,1.3-0.5C74.4,45.1,74.4,43.6,73.4,43.6z"/>
		<path class="st4" d="M68.2,44.7c1.6,0,2.8-1.3,2.8-2.8c0-1.6-1.3-2.8-2.8-2.8c-1.6,0-2.8,1.3-2.8,2.8
			C65.3,43.5,66.6,44.7,68.2,44.7C68.2,44.7,68.2,44.7,68.2,44.7z"/>
		<path d="M68.2,45.5c1.5,0,2.8-1,3.4-2.4c0.5-1.4,0.1-3-1.1-3.9c-1.5-1.3-3.8-1.1-5,0.4c-1.3,1.5-1.1,3.8,0.4,5
			C66.5,45.2,67.3,45.5,68.2,45.5c1,0,1-1.5,0-1.5c-0.5,0-0.9-0.1-1.3-0.4c-0.2-0.1,0,0-0.1,0l-0.1-0.1l-0.1-0.1
			c0,0-0.2-0.2-0.1-0.1c-0.1-0.1-0.1-0.2-0.2-0.3l-0.1-0.1c0-0.1,0-0.1,0,0c0,0,0-0.1,0-0.1c-0.3-0.9-0.1-1.8,0.7-2.4
			c-0.1,0.1,0,0,0,0l0.2-0.1l0.1-0.1c0,0,0.2-0.1,0.1-0.1c0.1,0,0.2-0.1,0.4-0.1l0.1,0c0.1,0,0.1,0,0,0H68c0.1,0,0.2,0,0.4,0
			c0,0,0.3,0,0.1,0l0.1,0c0.1,0,0.2,0.1,0.4,0.1c0.1,0,0.2,0.1,0.3,0.1c0.4,0.2,0.7,0.6,0.9,1c0,0,0-0.1,0,0c0,0.1,0,0.1,0.1,0.2
			c0,0.1,0,0.1,0,0.1c0,0,0,0.2,0,0.1c0-0.1,0,0.2,0,0.1c0,0.1,0,0.1,0,0.2c0,0.1,0,0.1,0,0.2c0,0.2,0,0,0,0.1
			c0,0.3-0.1,0.5-0.3,0.7l-0.1,0.1l-0.1,0.1c0-0.1,0,0,0,0l-0.3,0.3c-0.4,0.3-0.9,0.5-1.3,0.5C67.2,44,67.2,45.5,68.2,45.5z"/>
		<path class="st4" d="M78.7,44.7c1.6,0,2.8-1.3,2.8-2.8c0-1.6-1.3-2.8-2.8-2.8c-1.6,0-2.8,1.3-2.8,2.8l0,0
			C75.9,43.5,77.1,44.7,78.7,44.7z"/>
		<path d="M78.7,45.5c1.5,0,2.8-1,3.4-2.4c0.5-1.4,0.1-3-1.1-3.9c-1.5-1.3-3.8-1.1-5,0.4s-1.1,3.8,0.4,5
			C77,45.2,77.9,45.5,78.7,45.5c1,0,1-1.5,0-1.5c-0.5,0-0.9-0.1-1.3-0.4c-0.2-0.1,0,0-0.1,0l-0.1-0.1l-0.1-0.1c0,0-0.2-0.2-0.1-0.1
			c-0.1-0.1-0.1-0.2-0.2-0.3l-0.1-0.1c0-0.1,0-0.1,0,0c0,0,0-0.1,0-0.1c-0.3-0.9-0.1-1.8,0.7-2.4c-0.1,0.1,0,0,0,0l0.2-0.1l0.1-0.1
			c0,0,0.2-0.1,0.1-0.1c0.1,0,0.2-0.1,0.4-0.1l0.1,0c0.1,0,0.1,0,0,0h0.1c0.2,0,0.4,0,0.6,0c0.1,0,0.2,0.1,0.4,0.1
			c0.1,0,0.2,0.1,0.3,0.1c0.4,0.2,0.7,0.6,0.9,1c0,0,0-0.1,0,0c0,0.1,0,0.1,0.1,0.2c0,0.1,0,0.1,0,0.1c0,0,0,0.2,0,0.1
			c0-0.1,0,0.2,0,0.1c0,0.1,0,0.1,0,0.2c0,0.1,0,0.1,0,0.2c0,0.2,0,0,0,0.1c0,0.3-0.1,0.5-0.3,0.7l-0.1,0.1l-0.1,0.1c0-0.1,0,0,0,0
			l-0.3,0.3c-0.4,0.3-0.9,0.5-1.3,0.5C77.8,44,77.8,45.5,78.7,45.5z"/>
		<polygon class="st4" points="40.9,62.9 41.6,60.7 42,59.6 29.5,59.6 29.5,60.7 29.5,60.7 29.5,62.9 29.5,63.8 29.5,64 40.5,64 
			40.6,63.8 		"/>
		<path d="M41.6,63.1l1.1-3.3c0.1-0.4-0.1-0.8-0.5-0.9c-0.1,0-0.1,0-0.2,0H29.5c-0.4,0-0.7,0.3-0.7,0.7v1.2l0.7-0.7l0,0
			c-0.4,0-0.7,0.3-0.7,0.7V64c0,0.4,0.3,0.7,0.7,0.7h11c0.3,0,0.6-0.2,0.7-0.5C41.4,63.8,41.5,63.5,41.6,63.1
			c0.3-0.9-1.1-1.3-1.4-0.4c-0.1,0.4-0.2,0.7-0.4,1.1l0.7-0.5h-11l0.7,0.7v-3.3l-0.7,0.7l0,0c0.4,0,0.7-0.3,0.7-0.7v-1.2l-0.7,0.7
			H42l-0.7-0.9c-0.4,1.1-0.7,2.2-1.1,3.3C39.9,63.6,41.3,64,41.6,63.1z"/>
		<polygon class="st4" points="82.6,62.9 82.6,60.7 82.6,60.7 82.6,59.6 70.1,59.6 70.5,60.7 71.2,62.9 71.5,63.8 71.6,64 82.6,64 
			82.6,63.8 		"/>
		<path d="M83.3,62.9v-2.2l-0.7,0.7l0,0c0.4,0,0.7-0.3,0.7-0.7v-1.2c0-0.4-0.3-0.7-0.7-0.7H70.1c-0.4,0-0.7,0.3-0.7,0.7
			c0,0.1,0,0.1,0,0.2c0.5,1.5,1,3,1.5,4.4c0.1,0.3,0.4,0.5,0.7,0.5h11c0.4,0,0.7-0.3,0.7-0.7L83.3,62.9c0-0.4-0.4-0.7-0.8-0.7
			c-0.4,0-0.7,0.3-0.7,0.7V64l0.7-0.7h-11l0.7,0.5l-1.5-4.4l-0.7,0.9h12.5l-0.7-0.7v1.2l0.7-0.7l0,0c-0.4,0-0.7,0.3-0.7,0.7v2.2
			c0.1,0.4,0.5,0.7,0.9,0.6C83,63.4,83.3,63.2,83.3,62.9z"/>
	</g>
</g>
</svg>
