<?xml version="1.0" encoding="utf-8"?>
<!-- Generator: Adobe Illustrator 24.2.0, SVG Export Plug-In . SVG Version: 6.00 Build 0)  -->
<svg version="1.1" id="Layer_1" xmlns="http://www.w3.org/2000/svg" xmlns:xlink="http://www.w3.org/1999/xlink" x="0px" y="0px"
	 viewBox="0 0 112 102" style="enable-background:new 0 0 112 102;" xml:space="preserve">
<style type="text/css">
	.st0{fill:#4386C6;}
	.st1{fill:#7DC4CA;}
	.st2{fill:#C2E1E3;}
	.st3{fill:#183E41;}
	.st4{fill:#FFFFFF;}
	.st5{fill:#E82033;}
	.st6{fill:#E82033;stroke:#000000;stroke-width:0.25;stroke-linecap:round;stroke-linejoin:round;stroke-miterlimit:10;}
</style>
<g id="_5._Magia">
	<path class="st0" d="M74.4,1.9H37.6c-6.1,0-11.8,3.3-14.9,8.6L4.3,42.4c-3.1,5.3-3.1,11.9,0,17.2l18.4,31.9
		c3.1,5.3,8.7,8.6,14.9,8.6h36.9c6.1,0,11.8-3.3,14.9-8.6l18.4-31.9c3.1-5.3,3.1-11.9,0-17.2L89.3,10.5C86.2,5.2,80.6,1.9,74.4,1.9z
		"/>
	<path d="M74.4,1.2H38.7c-2.4-0.1-4.8,0.3-7.1,1c-4.1,1.4-7.5,4.3-9.6,8l-1.9,3.3l-8.9,15.4L4,41.4c-1.7,2.7-2.6,5.9-2.7,9.1
		c-0.1,3.5,0.9,6.9,2.7,9.9l7,12.1l9,15.6l2.1,3.6c2,3.5,5.1,6.2,8.7,7.7c4.2,1.8,9,1.4,13.5,1.4H63c3.8,0,7.6,0,11.4,0
		c4.6,0,9-1.8,12.3-4.9c1.6-1.5,2.9-3.3,3.9-5.3l7.8-13.5l8.6-14.8c0.6-1.1,1.3-2.2,1.9-3.3c2.4-4.9,2.5-10.7,0.2-15.7
		c-0.6-1.2-1.3-2.4-2-3.6l-3.7-6.4L93.9,17l-3.2-5.6c-1-1.9-2.2-3.6-3.6-5.1C83.7,3,79.1,1.2,74.4,1.2c-0.4,0-0.7,0.3-0.7,0.7
		s0.3,0.7,0.7,0.7c4.8,0,9.4,2.1,12.5,5.8c1,1.3,1.9,2.7,2.7,4.1l8.1,14l8.2,14.2c0.8,1.3,1.5,2.6,2.1,3.9c2,4.7,1.6,10.1-0.9,14.5
		c-1.8,3.2-3.7,6.4-5.6,9.6l-9.3,16l-3,5.2c-1.1,2-2.5,3.8-4.2,5.4c-3,2.5-6.8,3.9-10.7,3.9h-36c-2.7,0.1-5.5-0.5-7.9-1.7
		c-3-1.5-5.5-3.9-7.2-6.9l-6.5-11.3L7.6,63.8l-2.5-4.3c-1.9-3.1-2.7-6.8-2.3-10.4c0.5-4.6,3.3-8.5,5.6-12.4l9.3-16
		c1.9-3.3,3.8-6.5,5.7-9.8c2.2-3.8,5.8-6.6,10.1-7.7c1.9-0.4,3.8-0.6,5.7-0.5h35.3c0.4,0,0.7-0.3,0.7-0.7S74.8,1.2,74.4,1.2z"/>
	<circle class="st1" cx="56" cy="51" r="43.1"/>
	<path d="M98.4,51c0,23.3-18.9,42.2-42.2,42.1S14,74.2,14,50.9C14,27.6,32.9,8.7,56.2,8.7c20.8,0,38.5,15.2,41.6,35.7
		C98.2,46.6,98.4,48.8,98.4,51c0,0.4,0.3,0.7,0.7,0.7s0.7-0.3,0.7-0.7c-0.1-24.2-19.8-43.7-44-43.7s-43.7,19.8-43.7,44
		C12.3,75.5,32,95,56.2,94.9C77.8,94.9,96.1,79,99.4,57.7c0.3-2.2,0.5-4.5,0.5-6.7c0-0.4-0.3-0.7-0.7-0.7S98.4,50.6,98.4,51z"/>
	<circle class="st2" cx="56" cy="51" r="37.2"/>
	<path d="M92.4,51c-0.1,20-16.3,36.1-36.3,36.1C36.2,87,20,70.8,20.1,50.8s16.3-36.1,36.3-36.1c17.8,0,32.9,13,35.7,30.7
		C92.3,47.2,92.4,49.1,92.4,51c0,0.4,0.3,0.7,0.7,0.7c0.4,0,0.7-0.3,0.7-0.7C93.9,30,76.9,13,56,13C35,13,18.1,30,18,51
		c0,21,17,37.9,37.9,37.9c18.7,0,34.6-13.6,37.5-32.1c0.3-1.9,0.5-3.9,0.5-5.9c0-0.4-0.3-0.7-0.7-0.7C92.8,50.2,92.4,50.6,92.4,51z"
		/>
	<g id="Capa_24">
		<path class="st3" d="M73.2,83.7c0-3.9,0-7.7,0-11.6v-0.6c-12.2,1.9-24.6,1.9-36.8,0c0,0.2,0,0.3,0,0.4c0,3.5,0,7,0,10.5
			c0,0,8,5.6,17.6,5.9C65.8,88.6,71.7,84.2,73.2,83.7z"/>
		<path d="M73.9,83.7c0-4.1,0-8.2,0-12.2c0-0.4-0.4-0.7-0.8-0.7c-0.1,0-0.1,0-0.2,0c-9.4,1.5-18.9,1.8-28.4,1
			c-2.7-0.2-5.4-0.6-8.1-1c-0.4-0.1-0.8,0.1-0.9,0.5c0,0.1,0,0.1,0,0.2c-0.1,1.3-0.1,2.7,0,4v6.1c0,0.5-0.1,1,0.4,1.4
			c0.1,0.1,0.3,0.2,0.4,0.3c2.4,1.5,4.9,2.7,7.6,3.7c7.8,2.8,16.3,2.8,24,0c1.3-0.5,2.5-1,3.7-1.6c0.4-0.2,0.8-0.4,1.2-0.6l0.4-0.2
			c0.1-0.1,0.4-0.2,0.2-0.1c0.9-0.3,0.5-1.8-0.4-1.4c-1.2,0.5-2.3,1.2-3.5,1.7c-2.3,1-4.7,1.8-7.2,2.2c-3.7,0.7-7.4,0.8-11.2,0.3
			c-3.4-0.5-6.7-1.5-9.8-3c-1.2-0.5-2.3-1.1-3.4-1.8c-0.3-0.2-0.7-0.4-1-0.6c-0.1-0.1-0.6-0.4-0.2-0.1l0.2,0.5v-8.2
			c0-0.9,0-1.8,0-2.7l-0.9,0.7c9.6,1.5,19.3,1.9,29,1c2.8-0.2,5.5-0.6,8.2-1l-0.9-0.7c0,4.1,0,8.2,0,12.2c0,0.4,0.3,0.7,0.8,0.7
			S73.9,84.1,73.9,83.7z"/>
		<ellipse class="st3" cx="58.7" cy="67.4" rx="20" ry="5.4"/>
		<path class="st3" d="M54.9,60.7c5.7-0.1,11.3,0.4,16.9,1.5c2.5,0.4,4.9,1.2,7.2,2.3c0.8,0.4,1.6,0.9,2.3,1.5
			c0.9,0.8,0.8,1.6,0,2.4c-0.9,0.8-1.9,1.5-3,1.9c-1.8,0.8-3.7,1.4-5.7,1.7c-2.4,0.4-4.8,0.9-7.3,1.2c-4.3,0.5-8.6,0.7-12.8,0.5
			c-3.6-0.1-7.2-0.4-10.8-1c-3.4-0.6-6.8-1.3-9.9-2.9c-0.4-0.2-0.8-0.5-1.2-0.7c-1.6-1.2-1.6-2.3,0-3.4c0.9-0.6,1.9-1.2,3-1.6
			c3-1.2,6.2-1.9,9.4-2.3C46.9,61,50.9,60.7,54.9,60.7z M55.5,70.4c4.4,0,8.8-0.2,13.1-1.1c1.2-0.2,2.3-0.6,3.3-1.2
			c0.8-0.5,1.2-1.4,0.8-2.1c-0.3-0.5-0.6-0.8-1.1-1.1c-0.8-0.4-1.6-0.7-2.5-0.9c-3.6-0.7-7.3-1.1-11-1.1c-3.8-0.1-7.7,0-11.5,0.4
			c-2,0.3-4,0.7-5.9,1.2c-0.7,0.2-1.3,0.5-1.8,1c-0.6,0.5-0.7,1.5-0.1,2.1c0,0,0.1,0.1,0.1,0.1c0.3,0.3,0.6,0.5,1,0.7
			c0.9,0.3,1.8,0.6,2.8,0.9C46.8,70.2,51.1,70.3,55.5,70.4L55.5,70.4z"/>
		<path d="M54.9,61.4c3.6,0,7.2,0.2,10.8,0.5c3.5,0.3,7,1,10.4,2.1c1.6,0.5,3.1,1.3,4.5,2.3c0.2,0.2,0.6,0.5,0.6,0.8
			s-0.4,0.7-0.6,0.9c-0.6,0.5-1.2,0.9-1.9,1.2c-3.2,1.5-6.7,2-10.2,2.7c-7.2,1.3-14.6,1.3-21.9,0.6c-3.5-0.3-7-0.9-10.3-1.9
			c-1.6-0.4-3.2-1.1-4.7-1.9c-0.5-0.3-1.4-0.8-1.5-1.5c-0.1-0.7,0.8-1.1,1.2-1.4c3.3-2.1,7.4-2.9,11.2-3.5
			C46.6,61.7,50.7,61.4,54.9,61.4c0.4,0,0.8-0.3,0.8-0.8s-0.3-0.7-0.7-0.7c-4,0-8.1,0.3-12,0.9c-3.8,0.6-7.6,1.3-11,3
			c-1.3,0.7-3.3,1.7-3.2,3.4c0.1,1.6,1.9,2.6,3.1,3.2c3.4,1.7,7.2,2.4,10.9,3c3.9,0.6,7.9,0.9,11.9,0.9c4,0.1,8.1-0.1,12.1-0.6
			c2-0.3,4-0.7,6-1c1.9-0.3,3.7-0.8,5.5-1.6c1.5-0.6,3.3-1.4,4.2-2.8c1.1-1.7-0.5-3-1.8-3.9c-3.1-2-7.1-2.8-10.7-3.4
			c-3.9-0.6-7.9-1-11.9-1.1c-1,0-2,0-3,0c-0.4,0.1-0.7,0.5-0.6,0.9C54.3,61.1,54.6,61.3,54.9,61.4z"/>
		<path d="M55.5,71.1c2.7,0,5.5-0.1,8.2-0.4c1.3-0.1,2.7-0.3,4-0.5c1.2-0.2,2.4-0.5,3.5-0.9c1-0.4,2-1.1,2.2-2.2
			c0.3-1.1-0.4-2-1.3-2.6c-1-0.7-2.3-1-3.5-1.3c-1.3-0.3-2.6-0.5-3.9-0.6c-2.7-0.3-5.4-0.5-8-0.5c-2.8-0.1-5.5,0-8.3,0.2
			c-2.7,0.2-5.3,0.7-7.9,1.3c-1,0.2-2.2,0.9-2.8,1.8c-0.5,0.9-0.3,2,0.4,2.7c0.9,0.9,2.4,1.3,3.7,1.6c1.4,0.3,2.9,0.6,4.4,0.7
			C49.4,70.9,52.4,71.1,55.5,71.1c0.4,0,0.7-0.3,0.7-0.7s-0.3-0.7-0.7-0.7c-2.3,0-4.7-0.1-7-0.3c-2.3-0.1-4.6-0.5-6.8-1.1
			c-0.8-0.2-2.4-0.5-2.6-1.5c-0.2-0.9,1.2-1.5,1.8-1.6c2.2-0.6,4.5-1,6.8-1.3c4.7-0.4,9.4-0.5,14.1-0.1c2.4,0.1,4.7,0.5,7.1,1
			c0.9,0.2,2.2,0.5,2.9,1.2c0.8,0.8,0,1.5-0.8,1.8c-1.1,0.5-2.2,0.8-3.4,0.9c-1.3,0.2-2.6,0.4-3.9,0.5c-2.7,0.2-5.3,0.3-8,0.3
			c-0.4,0-0.7,0.3-0.7,0.7C54.8,70.8,55.1,71.1,55.5,71.1z"/>
		<path class="st4" d="M47.5,26.4L22.8,36.6c-0.3,0.7-0.6,1.3-0.9,1.9c0,0.1-0.1,0.2-0.1,0.3l0,0l0.1-0.2c0.1-0.1,0.1-0.2,0,0
			c0,0,0,0.1-0.1,0.1c-0.1,0.1-0.1,0.2-0.2,0.3l0,0.1l26.5-11C48,27.6,47.7,27,47.5,26.4z"/>
		<path d="M47.3,25.9l-14.3,5.9l-7,2.9l-1.8,0.7c-0.6,0.2-1.2,0.4-1.7,0.7c-0.4,0.3-0.5,0.9-0.7,1.3c-0.2,0.4-0.4,0.7-0.6,1.1
			c-0.2,0.6,0.7,1,1,0.4l0.2-0.4l-0.9-0.6c-0.2,0.4-0.5,0.7-0.3,1.1c0.1,0.2,0.4,0.5,0.7,0.4l26.5-11c0.3-0.1,0.5-0.4,0.4-0.7
			c0,0,0-0.1,0-0.1c-0.3-0.6-0.5-1.1-0.8-1.7c-0.3-0.6-1.2-0.1-0.9,0.6l0.8,1.7l0.3-0.8l-26.5,11l0.7,0.4l0-0.1l-0.1,0.4l0.3-0.6
			c0.2-0.3,0.1-0.6-0.2-0.8c-0.3-0.2-0.6-0.1-0.8,0.2l0,0l-0.2,0.4l1,0.4c0.3-0.7,0.7-1.3,1-2L23,37.2L47.6,27
			C48.2,26.7,48,25.6,47.3,25.9z"/>
		<path class="st5" d="M47.2,26.9c-0.4-0.6-1.5-2-1.4-2.8c0,0,1-0.6,1.3-0.9c0.5-0.4,1.3,1,1.5,1.3c1.9-1.4,8-6.6,9.5-2.4
			c1.6,4.5-4.9,5.5-8,5.9c0.2,0.4,0.8,1.8,0.4,2c-0.3,0.2-0.9,0.1-1.5,0.4C48.2,30.6,48,27.8,47.2,26.9z"/>
		<path d="M47.7,26.6c-0.5-0.7-1.4-1.6-1.3-2.5l-0.3,0.5c0.4-0.2,0.9-0.5,1.3-0.8c0.1-0.1-0.1-0.1,0,0c0.1,0.1,0.2,0.3,0.3,0.4
			c0.1,0.2,0.3,0.4,0.4,0.6c0.2,0.3,0.5,0.4,0.8,0.2c1.1-0.8,2.2-1.7,3.3-2.4s2.6-1.7,4-1.5c1.3,0.1,1.8,1.8,1.5,2.9
			c-0.3,1.3-1.7,2-2.9,2.4c-1.6,0.5-3.2,0.8-4.8,1c-0.3,0-0.6,0.2-0.6,0.6c0,0.1,0,0.2,0.1,0.3c0.1,0.2,0.2,0.5,0.3,0.7
			c0,0.2,0.1,0.3,0.1,0.5c0,0,0,0.1,0,0.1c0,0.1,0.1,0.1,0.2-0.1c-0.4,0-0.8,0.1-1.2,0.3c-0.4,0.2-0.1,0,0,0.1
			c0-0.1-0.1-0.1-0.1-0.2c-0.4-1-0.6-2.3-1.3-3.2c-0.4-0.6-1.2,0.2-0.8,0.8c0.4,0.5,0.6,1.5,0.8,2.2c0.2,0.6,0.5,1.4,1.2,1.4
			c0.5-0.1,1-0.2,1.4-0.3c0.4,0,0.7-0.3,0.9-0.6c0.2-0.7-0.3-1.6-0.6-2.2L50,28.5c1.7-0.2,3.3-0.5,4.9-1c1.5-0.5,3.1-1.3,3.7-2.9
			c0.6-1.4,0.1-3.5-1.3-4.3c-1.4-0.8-3.2,0-4.5,0.6c-1.6,0.9-3.1,2-4.6,3.1l0.8,0.2c-0.3-0.5-0.7-1.2-1.3-1.5
			c-0.7-0.3-1.3,0.3-1.8,0.7c-0.2,0.1-0.4,0.2-0.6,0.4c-0.1,0.4-0.1,0.8,0.1,1.1c0.4,0.8,0.8,1.5,1.3,2.2
			C47.1,27.8,48.1,27.2,47.7,26.6z"/>
		<path d="M46.2,25.8c-1.4,0.9-2.8,1.6-4.3,2.3c-1.2,0.6-3.1,1.7-4.4,0.8c-0.4-0.4-0.7-0.8-0.9-1.4c-0.2-0.6,0-0.9,0.6-1.1
			c0.6-0.2,1.1-0.4,1.5,0.1c0.1,0.1,0.4,0.9,0.1,0.7c-0.6-0.3-1.2,0.6-0.6,0.9c0.6,0.3,1.4,0.1,1.7-0.5c0,0,0,0,0,0
			c0.2-0.5,0.1-1.1-0.2-1.5c-0.8-1.3-2.5-1.1-3.7-0.3c-1.2,0.9-0.5,2.6,0.2,3.5c1.2,1.5,3.2,1,4.7,0.4c2-0.8,3.9-1.8,5.8-2.9
			C47.4,26.4,46.8,25.5,46.2,25.8L46.2,25.8z"/>
		<path d="M47.2,27.9c-1.4,0.9-2.8,1.8-4.1,2.8c-1.2,0.9-2.6,1.8-3.6,3c-0.8,1-1.4,2.6-0.7,3.8c0.7,0.9,1.9,1.3,3,1
			c0.3-0.1,0.4-0.4,0.3-0.7c-0.1-0.3-0.4-0.4-0.6-0.4c-0.8,0.2-1.8-0.2-1.9-1.1c-0.1-1.3,0.9-2.3,1.8-3c2-1.7,4.2-3.2,6.4-4.6
			C48.4,28.5,47.8,27.5,47.2,27.9L47.2,27.9z"/>
		<path class="st4" d="M47.9,26.6c1.7-0.6,3.3-1.3,4.8-2.2c0.4-0.3,1.4-0.6,1.1-1.3c-0.2-0.6-0.9-0.4-1.3-0.2c-1,0.7-0.6,2.4,0.4,3
			c0.5,0.3,1.2,0.2,1.6-0.2c0.4-0.5-0.1-1-0.7-0.9c-0.5,0.1-1,0.3-1.4,0.5c-0.4,0.2-0.9,0.4-1.3,0.6c-1,0.4-1.9,0.9-2.8,1.4
			c-0.1,0.1-0.1,0.2,0,0.3c0.1,0.1,0.1,0.1,0.2,0.1c1.1-0.6,2.2-1.2,3.3-1.7c0.6-0.3,1.2-0.5,1.8-0.7c0.1,0,0.4-0.2,0.5-0.1
			c0.1,0.1,0.1,0.3,0,0.4c0,0-0.1,0.1-0.1,0.1c-0.2,0.1-0.5,0.2-0.8,0.1c-0.9-0.3-1.4-1.9-0.5-2.4c0.2-0.1,0.4-0.2,0.6-0.2
			c0.4,0.1,0,0.5-0.2,0.6c-0.5,0.3-1,0.6-1.6,0.9c-1.2,0.7-2.5,1.2-3.8,1.7C47.5,26.4,47.6,26.7,47.9,26.6L47.9,26.6z"/>
		<path class="st4" d="M54.4,22.1c0.4-0.1,0.8-0.3,1.2-0.4c0.4-0.1,0.7,0.1,0.9,0.4c0.1,0.2,0.4,0,0.3-0.2c-0.2-0.4-0.7-0.7-1.1-0.6
			c-0.5,0.1-0.9,0.3-1.4,0.4c-0.1,0-0.2,0.1-0.1,0.2C54.2,22.1,54.3,22.1,54.4,22.1C54.4,22.1,54.4,22.1,54.4,22.1z"/>
		<path class="st4" d="M57.3,22.9c0.1,0,0.2-0.1,0.2-0.2c0-0.1-0.1-0.1-0.2-0.2c-0.1,0-0.2,0.1-0.2,0.2
			C57.2,22.8,57.3,22.9,57.3,22.9z"/>
		<path d="M57.3,28.4l2.6,1.3c0.3,0.2,0.6,0.1,0.8-0.2c0.2-0.3,0.1-0.6-0.2-0.8l-2.6-1.3c-0.3-0.2-0.6-0.1-0.8,0.2
			C56.9,27.9,57,28.3,57.3,28.4z"/>
		<path d="M55.7,29.5c0.6,0.5,1.2,1.1,1.8,1.7c0.2,0.2,0.6,0.2,0.8,0c0.2-0.2,0.2-0.6,0-0.8c-0.5-0.6-1.1-1.2-1.8-1.7
			c-0.1-0.1-0.2-0.2-0.4-0.2c-0.3,0-0.5,0.3-0.5,0.6C55.6,29.2,55.6,29.4,55.7,29.5L55.7,29.5z"/>
		<path d="M53.8,30l0.5,1.7c0.1,0.3,0.3,0.5,0.6,0.4s0.5-0.3,0.4-0.6c0,0,0-0.1,0-0.1l-0.5-1.7c-0.1-0.3-0.4-0.5-0.7-0.4
			C53.9,29.4,53.7,29.7,53.8,30L53.8,30z"/>
		<path d="M53.4,19.1l0.5-2.9c0.1-0.3-0.1-0.6-0.4-0.7c-0.3-0.1-0.6,0.1-0.7,0.4l-0.5,2.9c-0.1,0.3,0.1,0.6,0.4,0.7
			C53,19.5,53.3,19.3,53.4,19.1z"/>
		<path d="M51.6,19.5c-0.1-0.9-0.2-1.7-0.4-2.6c-0.1-0.3-0.3-0.5-0.6-0.4c-0.3,0.1-0.5,0.3-0.4,0.6c0,0,0,0.1,0,0.1
			c0.1,0.4,0.2,0.8,0.2,1.2l0,0.3c0,0,0,0.2,0,0.1c0-0.1,0,0.1,0,0.1c0,0.2,0,0.4,0.1,0.6c0,0.3,0.3,0.5,0.6,0.5
			C51.4,20,51.6,19.8,51.6,19.5L51.6,19.5z"/>
		<path d="M49.8,20.1l-1.1-1.4c-0.1-0.1-0.2-0.2-0.4-0.2c-0.1,0-0.3,0.1-0.4,0.2c-0.1,0.1-0.2,0.2-0.2,0.4v0.1
			c0,0.1,0.1,0.2,0.1,0.2l1.1,1.4c0.1,0.1,0.2,0.2,0.4,0.2c0.1,0,0.3-0.1,0.4-0.2c0.1-0.1,0.2-0.2,0.2-0.4v-0.1
			C49.9,20.2,49.9,20.2,49.8,20.1z"/>
		<path d="M58.5,38.2c1.2,0.1,2.2,0.9,3.3,1.4c1,0.4,2,0.7,2.8,1.5c0.3,0.3,0.8,0.3,1,0c0.1-0.1,0.1-0.2,0.2-0.3l0.5-2.4
			c0.1-0.3-0.1-0.7-0.3-0.8c-1.1-0.6-2.2-1.3-3.3-1.9c-1-0.6-2.1-1.2-3.3-1.6c-2.1-0.6-4.3,0-5.7,1.7c-1.5,1.8-1.6,4.5-0.9,6.7
			c0.4,1.2,0.9,2.3,1.6,3.4c0.6,1.1,1.1,2.3,1.7,3.4c0.6,1.2,1.2,2.5,1.8,3.7c0.6,1.2,1.1,2.4,1.5,3.6c0.3,1.1,0.3,2.2-0.2,3.3
			c-0.3,0.7-0.6,1.3-1.1,1.8c-1.9,2.4-4.9,3.8-7.8,4.8c-1.4,0.5-2.9,0.9-4.4,1.1c-1,0.2-1.7,0.2-2.8,0.4c-0.9,0.1-0.6,1.4,0.2,1.4
			c1,0.1,2,0.2,2.9,0.5c0.2,0.1,0.4,0.2,0.7,0.2c0.2,0,0.3,0,0.5,0c0.4,0,0.8,0.2,1.3,0.3c1,0.1,2,0.1,2.9,0.2
			c0.5,0.1,0.9,0.1,1.3-0.1c0.5-0.2,1-0.5,1.5-0.7c1.7-0.8,3.4-1.8,5-2.8c1.2-0.8,2.2-1.9,3-3.2c0.9-1.3,1.5-2.7,1.7-4.3
			c0.2-0.7,0.2-1.4,0.2-2.1c-0.1-0.7-0.2-1.4-0.5-2.1c-0.6-1.5-1.5-2.9-2.2-4.4c-0.7-1.6-1.7-3-2.6-4.5c-0.9-1.5-1.6-3.2-2-5
			c-0.3-0.7-0.4-1.5-0.3-2.3C56.8,38.4,57.8,38.2,58.5,38.2c1,0.1,1-1.4,0-1.4c-1.5-0.1-3.1,0.8-3.3,2.4c-0.1,1.4,0.4,2.9,0.7,4.2
			c0.5,1.6,1.2,3.1,2.2,4.5c0.9,1.5,1.8,3,2.5,4.6c0.7,1.4,1.6,2.8,2,4.4c0.3,1.3,0,2.8-0.4,4c-0.3,0.8-0.7,1.5-1.1,2.2
			c-0.4,0.7-0.9,1.4-1.5,2c-1.1,1-2.6,1.8-3.9,2.5c-1,0.6-2.1,1.1-3.2,1.7c-0.2,0.1-0.4,0.2-0.6,0.2c-0.3,0-0.6,0-0.9-0.1l-1.6-0.1
			c-2.1-0.1-4.1-0.9-6.3-1.1l0.2,1.5c0.7-0.1,1.6-0.2,2.4-0.3c1.2-0.2,2.4-0.5,3.6-0.8c3-0.9,6-2.2,8.3-4.2c1.2-1,2.1-2.2,2.7-3.6
			c0.4-0.9,0.6-2,0.5-3c-0.2-1.2-0.6-2.4-1.1-3.6c-1.1-2.4-2.2-4.8-3.4-7.2c-1-2.2-2.6-4.3-2.6-6.8c-0.1-1.3,0.4-2.5,1.2-3.5
			c0.8-0.8,1.9-1.2,3-1.2c1.3,0,2.4,0.8,3.5,1.4c1.3,0.7,2.5,1.4,3.7,2.1L64.8,38l-0.5,2.4l1.2-0.4c-0.9-0.9-2.1-1.3-3.3-1.8
			c-1.3-0.6-2.4-1.3-3.8-1.5C57.5,36.7,57.5,38.1,58.5,38.2z"/>
		<path class="st5" d="M58.5,37.5c0.9,0.1,1.8,0.4,2.6,0.9c1.3,0.7,2.9,1.1,4,2.1l0.5-2.4c-2.1-1.2-3.6-2.1-5.6-3.1
			c-2.1-1-4.6-0.4-6,1.5c-0.7,1.1-1,2.3-0.9,3.5c0,2.5,1.6,4.8,2.7,7.1c1.1,2.3,2.4,4.9,3.4,7.2c0.7,1.6,1.4,3.3,0.9,5
			c-2,7.3-14.6,9.4-16.3,9.4l-0.5,0.1c0.8,0.1,1.5,0.2,2.2,0.3c0.5,0.1,0.9,0.3,1.4,0.4c0.4-0.1,0.7,0,1.1,0.1
			c0.2,0.1,0.5,0.1,0.7,0.2l1.8,0.1c0.6,0,1.2,0.1,1.9,0.2c3.6-1.8,7.3-3.8,8.2-4.9c2-2.4,2.7-4.3,3-6.4c0.2-1.2,0.2-1.3-0.1-2.4
			c-0.4-1.3-1.6-3.3-2.1-4.6c-1.6-3.7-3.9-5.7-4.7-9.6c-0.2-0.8-0.8-2.9-0.3-3.7C56.6,37.8,57.5,37.4,58.5,37.5z"/>
		<path class="st5" d="M68.6,37.5c-0.3-0.1-0.5-0.2-0.8-0.3c-0.1,0-0.2,0-0.3,0c-0.1,0-0.2,0.1-0.2,0.2c-0.1,0.4-0.2,0.7-0.3,1.1
			c-0.2,1.3-0.4,2.3-0.7,3.8c-0.1,0.3,0,0.6,0.1,0.9c0.3,0.3,0.7,0.4,1.1,0.4"/>
		<path d="M68.8,36.8c-0.5-0.2-1.1-0.4-1.6-0.3c-0.5,0.2-0.8,0.7-0.8,1.2c-0.2,0.9-0.3,1.8-0.5,2.7c-0.1,0.4-0.2,0.9-0.2,1.4
			c-0.1,0.5-0.1,1,0,1.5c0.2,0.8,1.1,1.2,1.9,1.1c0.9,0,0.9-1.5,0-1.5h-0.2c-0.1,0,0.1,0,0,0c-0.1,0-0.2-0.1-0.3-0.1
			c0.1,0,0-0.1,0,0c0,0.1,0.1,0.1,0.1,0.1c0-0.1,0-0.2,0-0.3c0-0.6,0.1-1.3,0.3-1.9c0.1-0.6,0.2-1.3,0.4-2c0-0.2,0.1-0.4,0.1-0.6
			c0.1-0.1,0.1-0.3,0.1-0.4c0.1,0.1-0.6,0-0.4,0.2c0.1,0,0.2,0.1,0.3,0.1c0.2,0.1,0.4,0.1,0.6,0.2c0.4,0.1,0.8-0.1,0.9-0.5
			C69.4,37.4,69.2,37,68.8,36.8C68.8,36.8,68.8,36.8,68.8,36.8L68.8,36.8z"/>
		<path d="M67.3,36.9c-0.4-0.2-0.9-0.3-1.3-0.3c-0.6,0-0.9,0.5-1,1c-0.1,0.4-0.2,0.8-0.2,1.2c-0.1,0.4-0.1,0.8-0.2,1.2
			s-0.1,0.9-0.2,1.3c-0.1,0.4-0.1,0.8,0.1,1.1c0.3,0.8,1.1,1,1.9,1c0.4,0,0.7-0.3,0.7-0.7s-0.3-0.7-0.7-0.7h-0.1c-0.1,0,0.1,0,0,0
			L65.7,42c-0.1,0,0,0,0,0c-0.1,0-0.1-0.1,0,0c0,0,0.1,0.1,0.1,0.1c0,0-0.1-0.2,0-0.1c0-0.2,0-0.5,0-0.7c0-0.3,0.1-0.6,0.2-0.9
			c0.1-0.6,0.2-1.2,0.3-1.8c0-0.2,0.1-0.3,0.1-0.5c0-0.1,0-0.1,0.1-0.2s0,0,0,0c0.1-0.2,0-0.1-0.4,0.2c0.1,0.1,0.3,0.1,0.4,0.1
			c0.2,0,0.3,0.1,0.5,0.2c0.4,0.1,0.8-0.1,0.9-0.5C67.9,37.5,67.7,37.1,67.3,36.9C67.3,36.9,67.3,36.9,67.3,36.9L67.3,36.9z"/>
		<path class="st5" d="M67.1,37.6c-0.3-0.1-0.6-0.2-0.8-0.3c-0.1,0-0.2,0-0.3,0c-0.1,0-0.2,0.1-0.2,0.2c-0.1,0.3-0.2,0.6-0.2,0.9
			c-0.2,1.1-0.4,2-0.5,3.2c0,0.3,0,0.5,0.2,0.8c0.3,0.2,0.7,0.4,1.1,0.4"/>
		<path d="M77.5,40.2h-0.3c-0.1,0-0.2,0-0.2,0c-0.1,0-0.2,0-0.3,0h0c-0.1,0-0.1,0.1-0.2,0.1c0,0-0.1,0-0.1,0.1c0,0-0.1,0-0.1,0.1
			c0,0-0.1,0.1-0.1,0.2l0,0c0,0.1-0.1,0.1-0.1,0.2c0,0.2,0,0.4,0.1,0.6c0,0.1,0.1,0.2,0.2,0.2c0.1,0.1,0.2,0.1,0.2,0.1h0.2
			c0.1,0,0.3,0,0.4-0.1l0.1-0.1c0.1-0.1,0.2-0.2,0.2-0.3l0,0l-0.1,0.2c0,0,0,0,0,0l-0.1,0.2c0,0,0,0,0,0l-0.1,0.1l0,0l-0.2,0.1h0.1
			H77c0.1,0,0.2,0,0.2,0h0.3c0.1,0,0.2,0,0.3-0.1c0.2-0.1,0.3-0.2,0.4-0.4c0-0.1,0.1-0.2,0.1-0.3l0-0.2c0-0.1-0.1-0.2-0.2-0.3
			C77.9,40.2,77.7,40.1,77.5,40.2L77.5,40.2z"/>
		<path d="M79.5,39.6c1.8,1,3.6,2,5.4,2.9c0.9,0.4,1.8,0.8,2.7,1.2c0.3,0.1,0.2,0,0.3,0.3c0,0.2,0,0.4,0,0.6c0,0.6-0.2,1.1-0.4,1.6
			l1.4,0.2c0-0.9-0.5-2.1-1.4-2.4c-1.1-0.4-2.1,0.4-2.7,1.2l1.3,0.2c-0.2-0.9-0.5-1.9-1.5-2.2c-0.4-0.2-0.8-0.2-1.2,0
			c-0.4,0.2-0.6,0.5-1,0.7l0.9,0.7c-0.1-1.5-1.5-2.7-3-2.3c-0.3,0.1-0.6,0.2-0.9,0.4c-0.2,0.1-0.6,0.2-0.6,0.2
			c-0.2-0.1-0.2-0.6-0.3-0.8c-0.2-0.5-0.2-0.9-0.4-1.4c-0.2-0.6-1.3-0.8-1.4,0c-0.4,1.8-0.7,3.9,0.7,5.4c1,1.2,3,1.4,4.1,0.1
			l-1.2-0.7c-0.2,1.2,0.4,2.4,1.6,2.8c1.2,0.4,2.5,0,3.3-1L83.9,47c0.4,2.1,2.7,2.6,4.3,1.5l-1.1-0.8c-0.2,0.5-0.7,0.9-1.2,1.1
			c-0.9,0.2-1.9-0.1-2.8-0.3l-5.3-1.1l-2.6-0.6c-0.7-0.1-1.3-0.2-1.6-0.8c-0.5-0.8-0.4-1.8-1.1-2.6c-0.3-0.5-0.9-0.7-1.5-0.6
			c-0.3,0.1-0.5,0.3-0.6,0.6c-0.1,0.3-0.1,0.5-0.5,0.6c-0.6,0-1.1-0.1-1.6-0.5c-0.1-0.2-0.1-0.6,0-0.8c0-0.5,0.1-0.9,0.2-1.4
			c0.1-0.8,0.4-1.6,0.6-2.4c0.1-0.2,0.1-0.5,0.2-0.7c0.1-0.3,0-0.5,0.3-0.4c0.6,0.2,0.9,0.2,1.3,0.7c0.4,0.5,0.9,0.9,1.5,1.1
			c1.2,0.3,1.9-0.9,2.8-1.4c0.6-0.3,1.6,0.2,2.2,0.4C78.2,38.9,78.8,39.2,79.5,39.6c0.9,0.4,1.6-0.8,0.7-1.3
			c-1.4-0.7-2.8-1.5-4.4-1.6c-0.7,0-1.4,0.2-1.9,0.7c-0.2,0.2-0.4,0.3-0.6,0.5c-0.1,0.1-0.3,0.2-0.4,0.2c0,0-0.1,0-0.1,0
			c-0.1,0,0.1,0.1,0,0c-0.5-0.3-0.7-0.8-1.2-1.2c-0.6-0.5-1.5-0.7-2.3-0.7c-0.7,0-1.3,0.6-1.4,1.3c-0.2,0.8-0.5,1.5-0.6,2.3
			c-0.2,0.9-0.4,1.9-0.4,2.9c0,0.8,0.1,1.4,0.8,1.9c1.1,0.8,3.3,1.1,4-0.4c0.1-0.2,0.3-0.5-0.1-0.3c-0.4,0.2-0.1,0.1,0,0.3
			c0.1,0.2,0.2,0.4,0.3,0.7c0.1,0.6,0.3,1.1,0.5,1.6c0.3,0.6,0.9,1.1,1.5,1.3c1,0.3,2.1,0.6,3.2,0.7c2.3,0.5,4.6,1,6.9,1.5
			c1,0.3,2,0.2,3-0.2c0.8-0.4,1.4-1,1.6-1.8c0.2-0.6-0.5-1.2-1.1-0.8c-0.8,0.6-1.9,0.6-2.1-0.6c-0.1-0.4-0.5-0.6-0.9-0.5
			c-0.1,0-0.2,0.1-0.3,0.2c-0.4,0.5-0.9,0.8-1.6,0.7c-0.5-0.1-0.9-0.6-0.9-1.1c0.1-0.7-0.7-1.3-1.2-0.7c-0.7,0.8-1.7,0.4-2.2-0.4
			c-0.7-1.1-0.4-2.5-0.1-3.7h-1.4c0.4,1.1,0.5,3.1,2,3.2c0.7,0,1.2-0.4,1.9-0.6c0.5-0.2,1.1,0.1,1.3,0.7c0,0.1,0,0.1,0,0.2
			c0,0.4,0.4,0.9,0.9,0.7c0.2-0.1,0.4-0.2,0.6-0.4c0.1-0.1,0.3-0.4,0.5-0.4c0.5-0.1,0.7,0.9,0.7,1.3c0.1,0.7,1,0.6,1.3,0.2
			c0.2-0.2,0.7-0.7,1-0.6c0.3,0.1,0.4,0.8,0.4,1.1c-0.1,0.4,0.2,0.8,0.6,0.8c0.4,0.1,0.8-0.2,0.8-0.6c0.4-0.9,0.7-2.4,0.3-3.3
			c-0.2-0.5-0.6-0.8-1-0.9c-0.5-0.2-1.1-0.5-1.6-0.7c-2.2-1-4.3-2.1-6.4-3.3c-0.4-0.1-0.8,0-0.9,0.4C79.2,39,79.2,39.4,79.5,39.6z"
			/>
		<path class="st6" d="M79.8,38.9c2.6,1.5,5.3,2.9,8,4.1c0.2,0.1,0.4,0.2,0.5,0.3c0.1,0.2,0.2,0.4,0.1,0.6c0,0.8-0.1,1.7-0.4,2.4
			c0-0.6-0.4-1.6-1-1.8c-0.6-0.2-1.4,0.4-1.8,0.9c-0.1-0.5-0.2-0.9-0.4-1.3c-0.2-0.4-0.7-0.6-1.2-0.5c-0.4,0.1-0.7,0.6-1.1,0.8
			c-0.1-1-0.9-1.7-1.9-1.6c0,0,0,0-0.1,0c-0.7,0.1-1.5,0.8-2.1,0.7c-0.5-0.1-0.6-0.8-0.8-1.3c-0.2-0.4-0.2-0.9-0.4-1.4
			c-0.2,0.9-0.3,1.8-0.3,2.8c0.1,0.9,0.5,1.8,1.3,2.4c0.8,0.5,1.9,0.4,2.5-0.3c-0.2,0.9,0.4,1.8,1.3,2c0.9,0.2,1.8-0.2,2.4-0.9
			c0.1,0.7,0.5,1.2,1.1,1.5c0.7,0.2,1.5,0,2.1-0.4c-0.2,0.8-1.1,1.5-1.9,1.6c-0.8,0.1-1.5,0-2.3-0.2c-3.2-0.7-6.4-1.4-9.5-2.1
			c-2.1-0.9-1-2.9-2.5-3.8c-0.4-0.1-0.5,0.2-0.6,0.4c-0.1,0.4-0.4,0.7-0.7,0.7c-0.6,0.1-1.1,0-1.7-0.2c-0.3-0.1-0.6-0.3-0.9-0.5
			c-0.1-0.2-0.2-0.4-0.2-0.6c0.1-1.7,0.4-3.4,1-5.1c0.1-0.2,0.1-1,0.5-1.1c0.6-0.1,1.3,0,1.8,0.2c0.6,0.3,0.7,1.2,1.8,1.5
			c0.6,0.2,1.8-1,2.1-1.2c0.4-0.3,0.9-0.4,1.4-0.2c0.6,0.1,1.2,0.3,1.8,0.6C78.8,38.5,79,38.5,79.8,38.9z"/>
		<path class="st4" d="M75.1,40.7c0.5,0.3,0.5,1.1,0.2,1.6c-0.4,0.6-1.1,0.7-1.7,0.4c-0.5-0.3-0.7-0.8-0.5-1.3
			c0-0.2,0.1-0.3,0.2-0.4c0.2-0.2,0.4-0.5,0.7-0.5C74.5,40.3,74.9,40.4,75.1,40.7"/>
		<path d="M75.1,40.9c0.3,0.2,0.4,0.7,0.3,1c-0.1,0.4-0.4,0.7-0.9,0.8c-0.5,0.1-0.9-0.2-1.1-0.6c-0.1-0.2-0.1-0.4-0.1-0.6
			c0.1-0.2,0.2-0.5,0.4-0.6c0.1-0.1,0.2-0.2,0.3-0.2c0.1,0,0.2,0,0.3,0C74.6,40.6,74.8,40.7,75.1,40.9c0.1,0.1,0.2,0,0.2-0.1
			c0-0.1,0-0.2-0.1-0.2c-0.2-0.2-0.5-0.3-0.8-0.3c-0.3,0-0.5,0-0.7,0.2c-0.1,0.1-0.2,0.2-0.3,0.3c-0.1,0.1-0.2,0.2-0.3,0.4
			c-0.1,0.3-0.1,0.6-0.1,0.9c0.2,0.6,0.7,1,1.3,1c0.6,0,1.1-0.4,1.3-0.9c0.2-0.5,0.1-1.3-0.4-1.5C75,40.5,74.8,40.8,75.1,40.9
			L75.1,40.9z"/>
		<path d="M75,40.8c-0.4,0.1-0.8,0.4-1,0.8c-0.1,0.2-0.1,0.4-0.1,0.6c0.1,0.2,0.2,0.4,0.3,0.5c0.1,0.1,0.4,0.1,0.3-0.1
			c0-0.2,0-0.4,0-0.6l0,0l0,0c0,0,0,0,0-0.1l0-0.1v0v0l0.1-0.1c0-0.1,0.1-0.1,0.1-0.2c0.1-0.1,0.1-0.1,0.2-0.2c0,0,0,0,0,0
			c0,0,0,0,0,0s0,0.1,0,0.1c0,0.1-0.1,0.2-0.1,0.3c0,0.1-0.1,0.2-0.2,0.3c0,0.1-0.1,0.1-0.1,0.1l-0.1,0.1h0c0,0,0,0,0,0h0.1
			c0,0,0,0.1,0,0v-0.1c0-0.1,0-0.1,0-0.2c0.1-0.1,0.1-0.2,0.2-0.3c0,0,0.1-0.1,0.1-0.1l0.1,0c0,0,0,0,0,0l0,0c0,0,0,0,0,0s0,0,0,0
			c0,0,0,0,0,0.1c-0.1,0.2-0.3,0.4-0.5,0.5c0,0-0.1,0-0.1,0l0,0l0,0c0,0,0,0,0,0c0-0.1,0-0.2,0-0.2c0-0.2,0.2-0.4,0.4-0.4l-0.2-0.2
			c-0.1,0.4-0.2,0.8-0.5,1.1l0.3,0.1c-0.1-0.3,0-0.6,0.2-0.8l-0.3-0.2c-0.1,0.2-0.2,0.4-0.3,0.6c-0.1,0.1,0,0.2,0.1,0.2
			c0.1,0.1,0.2,0,0.2-0.1l0,0c0.2-0.2,0.3-0.4,0.4-0.7c0.1-0.2-0.2-0.3-0.3-0.2c-0.3,0.3-0.4,0.7-0.3,1c0,0.1,0,0.1,0.1,0.2
			c0.1,0,0.1,0,0.2,0c0.3-0.4,0.5-0.8,0.6-1.3c0-0.1,0-0.2-0.1-0.2c0,0,0,0,0,0c-0.3,0-0.6,0.2-0.8,0.5c-0.1,0.2-0.1,0.3-0.1,0.5
			c0,0.2,0.1,0.3,0.3,0.3c0.2,0,0.4,0,0.5-0.2c0.2-0.1,0.3-0.2,0.4-0.4c0.1-0.1,0.1-0.3,0.1-0.4c0-0.2-0.1-0.3-0.3-0.4
			c-0.2,0-0.3,0.1-0.5,0.2c-0.1,0.1-0.2,0.3-0.3,0.4c-0.1,0.2-0.1,0.4,0,0.6c0,0.1,0.1,0.2,0.2,0.2c0.1,0,0.2-0.1,0.3-0.1
			c0.3-0.2,0.5-0.5,0.5-0.9c0.1-0.2,0.1-0.3,0-0.5c-0.1-0.2-0.3-0.2-0.5-0.1c0,0,0,0,0,0c-0.3,0.1-0.5,0.4-0.6,0.7
			c-0.1,0.3-0.1,0.6-0.1,0.9l0.3-0.1c-0.1-0.2-0.2-0.3-0.3-0.4c0,0,0-0.1,0-0.2c0-0.1,0-0.2,0.1-0.2c0.2-0.3,0.4-0.6,0.8-0.6
			c0.1,0,0.2-0.1,0.1-0.2c0,0,0,0,0,0C75.2,40.8,75.1,40.8,75,40.8L75,40.8z"/>
		<path d="M73.9,40.4L73.9,40.4C73.8,40.4,73.8,40.4,73.9,40.4L73.9,40.4l-0.2-0.1l-0.1-0.1l0,0c0,0,0,0,0,0c0,0,0,0,0,0l0,0
			l-0.1-0.1l0,0l0,0l0,0l-0.1-0.1l0-0.1c0,0,0,0,0,0c0,0,0,0,0,0c0-0.1-0.1-0.2-0.2-0.1c-0.1,0-0.2,0.1-0.1,0.2
			c0.1,0.2,0.2,0.4,0.4,0.5c0.2,0.1,0.3,0.2,0.6,0.3c0.1,0,0.2,0,0.2-0.1c0,0,0,0,0,0C74.1,40.5,74.1,40.4,73.9,40.4L73.9,40.4z"/>
		<path d="M75,43.2c-0.6,0.2-1.2,0.1-1.8-0.1c-0.1,0-0.2,0-0.2,0.2c0,0.1,0,0.2,0.1,0.2c0.6,0.2,1.3,0.3,2,0.1
			c0.1,0,0.2-0.1,0.1-0.2C75.2,43.2,75.1,43.2,75,43.2L75,43.2L75,43.2z"/>
		<path d="M73.3,40.8c-0.1,0-0.1,0-0.2-0.1l-0.1,0l0,0l0,0h0c-0.1,0-0.1-0.1-0.2-0.1l-0.1-0.1l0,0l0,0c0,0,0,0,0,0
			c0,0-0.1-0.1-0.1-0.1c0,0-0.1,0-0.1,0.1c-0.1,0.1-0.1,0.2,0,0.3c0.2,0.2,0.5,0.3,0.8,0.4c0.1,0,0.2,0,0.2-0.1
			C73.5,41,73.4,40.9,73.3,40.8L73.3,40.8z"/>
		<path d="M73,41.6c-0.1,0-0.2,0-0.2,0h0l0,0h0l-0.1,0c-0.1,0-0.2,0-0.2-0.1l0,0l0,0l-0.1,0l-0.1-0.1c-0.1-0.1-0.2,0-0.2,0.1
			c-0.1,0.1,0,0.2,0.1,0.2c0.3,0.2,0.7,0.3,1.1,0.3c0.1,0,0.2-0.1,0.2-0.2C73.3,41.7,73.2,41.6,73,41.6L73,41.6z"/>
		<path d="M48.5,63.1c-0.4,1.5-0.2,3.2,0.5,4.6c0.5,1.1,1.3,2.1,2.3,2.8c0.3,0.3,0.7,0.4,1.1,0.5c1,0,2.1,0.1,3.1,0.1
			c0.9,0.1,1.9,0,2.8,0c1-0.1,2-0.4,3-0.5c0.3,0,0.5-0.3,0.5-0.6c0-0.3-0.2-0.5-0.5-0.5c-1.1-0.1-2.3-0.3-3.4-0.5
			c-1.3-0.5-2.5-1.1-3.7-1.8c-0.5-0.3-0.9-0.7-1.3-1.1c-0.5-0.6-0.3-1.4-0.2-2c0.2-1,0.5-1.9,0.7-2.8c0.1-0.6,0.2-1.2,0.3-1.8
			c0.5-2.8,1.1-5.8,1.1-8.7c0-1.6-0.3-3.3-1.3-4.5c-1.1-1.4-3-1.9-4.6-1.3c-1.1,0.4-2.1,1-3,1.7l-1.6,1.1c-0.5,0.4-1.1,0.7-1.6,1.1
			c-0.4,0.3-0.3,1-0.3,1.5v1.5c0,0.3,0.3,0.6,0.6,0.5c0.1,0,0.3-0.1,0.4-0.2c0.9-0.9,2.2-1.6,3.3-2.2c0.7-0.4,1.4-0.8,2.1-1.1
			c0.4-0.2,0.8-0.4,1.2-0.4c0.5,0,0.8,0.7,1,1c0.2,0.4,0.4,0.9,0.4,1.4c0,0.8-0.1,1.6-0.3,2.4c-0.4,1.9-0.8,3.8-1.3,5.6
			C49.2,60.1,48.8,61.6,48.5,63.1c-0.1,0.3,0.1,0.6,0.4,0.7c0.3,0.1,0.6-0.1,0.7-0.4c0.9-3.5,1.8-7,2.5-10.5
			c0.4-1.9,0.5-4.1-1.2-5.5c-1.2-0.9-2.9,0.3-3.9,0.9c-0.9,0.5-1.8,1-2.7,1.5c-0.6,0.4-1.2,0.8-1.8,1.3l0.9,0.4v-2.4l-0.3,0.5
			c1.6-1,3.2-2.2,4.9-3.2c0.7-0.5,1.6-0.8,2.5-0.7c0.8,0.1,1.5,0.5,2,1.1c0.9,1,1.1,2.7,1.1,4c0,1.2-0.2,2.4-0.3,3.6
			c-0.3,2.6-0.7,5.2-1.3,7.8c-0.3,1.3-1,3.1-0.2,4.4c0.6,0.8,1.5,1.5,2.4,2c1.1,0.7,2.3,1.2,3.6,1.7c1.1,0.3,2.3,0.4,3.5,0.5v-1.1
			c-0.8,0.1-1.6,0.3-2.4,0.4c-0.9,0.1-1.8,0.2-2.7,0.1c-0.8,0-1.7-0.1-2.5-0.1c-0.4,0-0.9,0-1.3,0c0,0,0.2,0.1,0,0
			c-0.1,0-0.2-0.1-0.3-0.2c-2.1-1.2-3.1-4-2.5-6.4C49.7,62.7,48.6,62.4,48.5,63.1z"/>
		<path class="st5" d="M49,63.2c-0.8,2.9,0.9,5.5,2.3,6.7l0.8,0.5h0.1c2.3,0,4.6,0.4,6.9-0.1c0.7-0.1,1.4-0.3,2-0.3
			c-0.8-0.1-2-0.2-2-0.2c-1.5,0.1-6.8-2.5-7.2-4c-0.4-1.5,0.4-3,0.7-4.5c0.4-2.4,1.5-8.7,1.5-11c0-1.1-0.3-2.7-1-3.6
			c-1.2-1.6-3-2.1-4.9-1.1c-1.7,0.9-3.6,2.3-5.4,3.5v2.4c0.9-1,6-3.8,6.8-3.9c0.8-0.1,1.2,0.7,1.7,1.4c0.5,0.7,0.5,2.1,0.3,2.8
			C51,55.3,49.3,62,49,63.2z"/>
		<path class="st5" d="M39.7,48.5c0.2-0.1,0.5-0.2,0.7-0.3c0.1,0,0.2,0,0.3,0c0.1,0,0.2,0.1,0.2,0.2c0.1,0.3,0.2,0.6,0.3,1
			c0.2,1.1,0.5,2.1,0.7,3.3c0.1,0.3,0,0.6-0.1,0.8c-0.1,0.2-0.7,0.4-1,0.4"/>
		<path d="M39.8,49c0.2-0.1,0.3-0.1,0.5-0.2c0.1,0,0.2,0,0.3-0.1h0.1l-0.2-0.1c0,0,0.1,0.4,0.1,0.4c0,0.1,0.1,0.3,0.1,0.4
			c0.1,0.6,0.3,1.2,0.4,1.8c0.2,0.6,0.3,1.1,0.4,1.7c0,0.1,0,0.2,0,0.3c0-0.1,0.1-0.1,0,0c-0.1,0.1-0.3,0.1-0.5,0.1
			c-0.3,0-0.5,0.3-0.5,0.6c0,0.3,0.2,0.5,0.5,0.5c0.6,0,1.4-0.3,1.6-1c0.1-0.4,0-0.8-0.1-1.2c-0.1-0.4-0.2-0.8-0.3-1.3
			c-0.2-0.8-0.3-1.6-0.6-2.4c-0.1-0.4-0.3-0.8-0.7-1c-0.4-0.2-1,0.1-1.4,0.3c-0.3,0.1-0.5,0.4-0.4,0.7C39.3,48.9,39.6,49.1,39.8,49
			L39.8,49z"/>
		<path d="M41.2,49.1c0.1-0.1,0.3-0.1,0.4-0.1c0.1,0,0.3-0.1,0.4-0.1l-0.3-0.2l0,0c0,0.1,0,0.1,0.1,0.1c0,0.1,0.1,0.3,0.1,0.4
			c0.1,0.5,0.2,1.1,0.3,1.6l0.2,0.8c0,0.1,0.1,0.3,0.1,0.4c0,0,0,0.2,0,0.1c0,0,0,0.1,0,0.1c0,0.1-0.1,0.3,0,0.1l-0.1,0
			c-0.1,0-0.2,0.1-0.3,0.1l-0.2,0c-0.1,0,0.1,0-0.1,0c-0.3,0-0.5,0.2-0.5,0.5c0,0.3,0.2,0.6,0.5,0.6c0,0,0,0,0,0
			c0.6,0,1.3-0.3,1.6-0.9c0.1-0.3,0.1-0.7,0-1.1c-0.1-0.4-0.1-0.7-0.2-1.1c-0.1-0.4-0.2-0.7-0.2-1c-0.1-0.4-0.1-0.7-0.2-1.1
			c-0.1-0.4-0.4-0.8-0.8-0.8c-0.4,0-0.8,0.1-1.1,0.3c-0.3,0.1-0.5,0.4-0.4,0.7C40.5,49,40.8,49.2,41.2,49.1L41.2,49.1z"/>
		<path class="st5" d="M41,48.5c0.2-0.1,0.5-0.2,0.7-0.3c0.1,0,0.2,0,0.3,0c0.1,0,0.2,0.1,0.2,0.2c0.1,0.3,0.2,0.5,0.2,0.8
			c0.2,1,0.4,1.8,0.6,2.8c0,0.2,0,0.5-0.1,0.7c-0.3,0.2-0.6,0.4-1,0.4"/>
		<path d="M31.8,52.4h0.3c0.1,0,0.1,0,0.2,0h-0.1c0,0,0.1,0,0.1,0l-0.1-0.1h0L32,52.3v0l-0.1-0.1v0l-0.1-0.1l0,0
			c0,0.1,0,0.1,0.1,0.2c0,0.1,0.1,0.1,0.2,0.1c0.1,0,0.1,0.1,0.2,0.1c0.1,0,0.1,0,0.2,0c0.1,0,0.3-0.1,0.3-0.3
			c0.1-0.1,0.1-0.3,0.1-0.4l0-0.1c0,0,0-0.1,0-0.1l0,0c0,0-0.1-0.1-0.1-0.1c0,0-0.1-0.1-0.1-0.1h0c-0.1-0.1-0.3-0.1-0.4-0.1
			c-0.1,0-0.1,0-0.2,0h-0.2c-0.1,0-0.3,0.1-0.4,0.2c-0.1,0-0.1,0.1-0.1,0.2c0,0.1-0.1,0.1,0,0.2c0,0.1,0.1,0.3,0.2,0.4
			C31.5,52.4,31.6,52.4,31.8,52.4L31.8,52.4z"/>
		<path d="M29.4,49.7c-1.8,1.1-3.7,2.2-5.6,3.2c-0.5,0.2-1,0.5-1.5,0.7c-0.4,0.1-0.7,0.4-0.8,0.8c-0.2,0.9,0.1,2.2,0.5,3
			c0.2,0.5,1,0.2,1-0.3c0-0.3,0.1-1,0.4-1.1c0.3-0.1,0.9,0.4,1.1,0.6c0.2,0.2,0.6,0.2,0.8,0c0.1-0.1,0.1-0.1,0.1-0.2
			c0.1-0.4,0.2-1.4,0.8-1.2c0.3,0.1,0.6,0.5,1,0.6c0.3,0.1,0.6-0.1,0.7-0.4c0,0,0-0.1,0-0.1c0-0.6,0.5-1,1.1-1c0.1,0,0.3,0,0.4,0.1
			c0.5,0.2,1,0.5,1.6,0.4c1.2-0.2,1.3-2,1.5-2.8h-1.1c0.3,1.1,0.6,2.3,0.1,3.3c-0.4,0.8-1.5,1.3-2.1,0.6c-0.2-0.2-0.6-0.2-0.8,0
			c-0.2,0.1-0.2,0.4-0.2,0.6c0.1,0.5-0.2,1-0.7,1.1c-0.6,0.1-1.2-0.1-1.6-0.6c-0.2-0.2-0.6-0.2-0.8,0c-0.1,0.1-0.1,0.1-0.1,0.2
			c-0.2,1.1-1.2,1.3-2,0.7c-0.3-0.1-0.6,0-0.8,0.2c-0.1,0.1-0.1,0.3-0.1,0.4c0.5,1.4,2,1.9,3.3,1.7c0.9-0.2,1.7-0.4,2.5-0.6l3-0.8
			l2.6-0.7c0.8-0.2,1.6-0.3,2.2-0.9c0.4-0.4,0.7-0.9,0.8-1.4c0.1-0.2,0.1-0.4,0.1-0.6c0-0.1,0.1-0.2,0.1-0.4c0-0.1,0.2-0.3,0.2-0.4
			l0.1-0.1c-0.2-0.2-0.3-0.2-0.2,0c0,0.2,0.1,0.3,0.2,0.4c0.1,0.2,0.3,0.3,0.5,0.5c0.7,0.4,1.5,0.2,2.1-0.1c0.5-0.2,0.9-0.5,1.2-0.9
			c0.3-0.6,0-1.6-0.1-2.3c-0.2-0.9-0.4-1.7-0.7-2.5c-0.2-0.5-0.2-1.1-0.6-1.5c-0.4-0.4-1.2-0.4-1.7-0.2c-0.6,0.2-1.1,0.6-1.5,1.1
			c-0.1,0.2-0.4,0.6-0.7,0.6c-0.2,0-0.5-0.2-0.7-0.3c-0.5-0.3-0.9-0.7-1.5-0.9c-0.8-0.1-1.6,0.2-2.3,0.5
			C30.8,48.9,30.1,49.3,29.4,49.7c-0.7,0.3-0.1,1.3,0.6,0.9c1-0.5,2.1-1.2,3.3-1.4c0.5-0.1,0.8,0.2,1.2,0.5c0.4,0.3,0.8,0.5,1.3,0.7
			c1,0.2,1.5-0.7,2.1-1.3c0.2-0.2,0.4-0.3,0.7-0.3c0.3-0.1,0.6-0.2,0.7,0.2c0.2,0.5,0.4,1.1,0.5,1.6c0.2,0.7,0.4,1.4,0.5,2.1
			c0.1,0.3,0.1,0.7,0.1,1.1c-0.1,0.2-0.4,0.4-0.7,0.5c-0.3,0.1-0.6,0.2-1,0.2c-0.2-0.1-0.3-0.2-0.4-0.4c-0.2-0.5-0.7-0.7-1.1-0.6
			c-0.9,0.3-1.1,1.3-1.3,2.1c-0.1,0.4-0.3,0.9-0.6,1.2c-0.5,0.5-1.5,0.6-2.2,0.7l-5.1,1.3c-0.9,0.3-1.8,0.5-2.7,0.6
			c-0.7,0-1.6-0.3-1.8-1l-0.8,0.6c1.4,0.9,3.4,0.4,3.6-1.4l-0.9,0.2c0.7,0.8,1.9,1.2,2.9,0.8c0.9-0.4,1.4-1.4,1.2-2.4l-0.9,0.5
			c1,1,2.6,0.8,3.5-0.2c1.1-1.4,0.8-3.2,0.4-4.8c-0.1-0.3-0.4-0.5-0.7-0.4c-0.2,0.1-0.3,0.2-0.4,0.4c-0.1,0.4-0.2,0.8-0.3,1.2
			c0,0.2-0.1,0.5-0.2,0.7c-0.3,0.3-1.2-0.3-1.6-0.4c-1.2-0.2-2.3,0.6-2.4,1.8c0,0.1,0,0.2,0,0.3l0.7-0.5c-0.3-0.1-0.6-0.4-0.9-0.6
			c-0.3-0.1-0.7-0.1-1,0c-0.8,0.3-1.1,1.2-1.2,2l0.9-0.2c-0.5-0.6-1.5-1.2-2.3-0.9c-0.8,0.4-1.1,1.3-1.1,2.1l1-0.3
			c-0.2-0.4-0.3-0.9-0.3-1.4c0-0.2-0.1-0.6,0-0.7c0.1-0.1,0.3-0.2,0.5-0.3c0.8-0.4,1.5-0.8,2.3-1.2c1.5-0.8,3.1-1.7,4.6-2.7
			C30.5,50.3,30,49.3,29.4,49.7z"/>
		<path class="st5" d="M29.6,50.2c-2.3,1.4-4.6,2.8-7,3.9c-0.2,0.1-0.3,0.2-0.5,0.3c-0.1,0.2-0.1,0.4-0.1,0.6c0,0.8,0.2,1.5,0.5,2.2
			c0-0.6,0.3-1.5,0.8-1.6c0.5-0.2,1.3,0.3,1.6,0.8c0-0.4,0.2-0.8,0.4-1.2c0.2-0.4,0.6-0.6,1-0.5c0.4,0.1,0.7,0.5,1.1,0.6
			c0-0.9,0.8-1.6,1.6-1.5c0,0,0,0,0,0c0.6,0.1,1.3,0.7,1.9,0.5c0.4-0.1,0.5-0.8,0.6-1.2c0.1-0.4,0.2-0.8,0.3-1.2
			c0.2,0.8,0.4,1.6,0.4,2.5c0,0.8-0.4,1.6-1.1,2.2c-0.7,0.5-1.7,0.4-2.3-0.2c0.2,0.8-0.3,1.6-1.1,1.8c-0.8,0.2-1.6-0.1-2.1-0.7
			c-0.1,0.6-0.4,1.1-1,1.4c-0.6,0.2-1.3,0.1-1.9-0.3c0.2,0.7,1.1,1.3,1.7,1.3c0.7,0,1.4,0,2-0.3c2.8-0.7,5.6-1.5,8.4-2.2
			c1.8-0.9,0.8-2.7,2.1-3.5c0.3-0.1,0.4,0.1,0.5,0.4c0.1,0.3,0.3,0.6,0.7,0.6c0.5,0,1,0,1.5-0.2c0.3-0.1,0.5-0.3,0.8-0.5
			c0.1-0.1,0.2-0.3,0.1-0.5c-0.1-1.5-0.5-3-1.1-4.5c-0.1-0.2-0.1-0.9-0.5-1c-0.6-0.1-1.1,0-1.6,0.3C37,48.7,37,49.5,36,49.8
			c-0.5,0.2-1.7-0.8-2-1c-0.4-0.2-0.9-0.3-1.3-0.1c-0.6,0.1-1.1,0.3-1.6,0.6C30.5,49.7,30.4,49.8,29.6,50.2z"/>
		<path class="st4" d="M33.9,51.6c-0.4,0.2-0.4,1-0.1,1.4c0.3,0.5,1,0.6,1.5,0.3c0.4-0.3,0.6-0.8,0.4-1.2c0-0.1-0.1-0.3-0.2-0.4
			c-0.2-0.2-0.4-0.4-0.6-0.4C34.5,51.3,34.2,51.4,33.9,51.6"/>
		<path d="M33.8,51.4c-0.4,0.3-0.5,0.8-0.4,1.3c0.1,0.5,0.6,0.9,1.1,0.9c0.6,0.1,1.1-0.3,1.3-0.8c0.1-0.3,0.1-0.5,0.1-0.8
			c-0.1-0.3-0.3-0.5-0.5-0.7c-0.1-0.1-0.2-0.2-0.4-0.2c-0.1,0-0.2,0-0.4,0C34.3,51.1,34,51.3,33.8,51.4c-0.1,0.1-0.1,0.2,0,0.3
			c0.1,0.1,0.2,0.1,0.3,0c0.2-0.1,0.3-0.2,0.5-0.2c0.2,0,0.3,0,0.5,0.1c0.1,0.1,0.1,0.1,0.2,0.2c0.1,0.1,0.2,0.2,0.2,0.3
			c0.1,0.2,0.1,0.4,0.1,0.6c-0.1,0.4-0.4,0.7-0.8,0.7c-0.4,0-0.7-0.2-0.9-0.5c-0.1-0.3-0.1-0.8,0.2-1c0.1-0.1,0.1-0.2,0-0.3
			C34,51.4,33.9,51.4,33.8,51.4L33.8,51.4z"/>
		<path d="M33.9,52c0.3,0,0.6,0.2,0.7,0.5c0,0.1,0.1,0.1,0.1,0.2l0,0l0,0c0,0,0,0,0,0.1l0,0v0c0,0.1-0.2,0.3-0.3,0.4l0.3,0.1
			c0-0.2,0-0.5-0.1-0.7c-0.1-0.2-0.2-0.4-0.4-0.6c-0.1-0.1-0.3-0.2-0.4-0.2c-0.2,0-0.3,0.2-0.3,0.4c0,0,0,0,0,0
			c0,0.3,0.2,0.6,0.4,0.9c0.1,0.1,0.2,0.2,0.4,0.3c0.2,0,0.3-0.2,0.3-0.4c0-0.2-0.1-0.3-0.2-0.5c-0.1-0.1-0.2-0.3-0.4-0.3
			c-0.1-0.1-0.3-0.1-0.5,0c-0.1,0.1-0.1,0.3-0.1,0.4c0.1,0.3,0.4,0.5,0.7,0.7c0.2,0.1,0.4,0,0.5-0.2c0.1-0.2,0.1-0.3,0-0.5
			c-0.1-0.3-0.4-0.6-0.8-0.6c-0.1,0-0.2,0.1-0.2,0.2c0,0,0,0,0,0c0.1,0.4,0.3,0.8,0.6,1.1c0.1,0.1,0.1,0.1,0.2,0
			c0.1,0,0.1-0.1,0.1-0.2c0-0.3-0.1-0.7-0.3-0.9c-0.1-0.1-0.2-0.1-0.2,0c-0.1,0.1-0.1,0.2,0,0.2c0.1,0.2,0.2,0.5,0.3,0.7
			c0.1,0.1,0.2,0.1,0.3,0c0.1-0.1,0.1-0.2,0-0.3c-0.1-0.2-0.2-0.3-0.3-0.5l-0.3,0.2c0.2,0.2,0.3,0.4,0.2,0.7l0.3-0.1
			c-0.2-0.3-0.4-0.6-0.5-1l-0.2,0.2c0,0,0.1,0,0.1,0h0l0.1,0c0.1,0,0.1,0.1,0.2,0.2c0,0,0,0.1,0,0.1v0v0.1c0,0,0,0.1,0,0.1l0,0
			c0,0,0,0,0,0s0,0,0,0s0,0-0.1,0l-0.1,0c0,0-0.1-0.1-0.1-0.1c-0.1-0.1-0.2-0.1-0.2-0.2c0,0,0-0.1,0-0.1c0,0,0,0,0,0c0,0,0,0,0,0
			l0,0h0c0,0,0,0,0,0c0,0,0.1,0,0.1,0.1c0.1,0.1,0.2,0.2,0.2,0.3c0,0,0,0.1,0.1,0.1c0,0,0,0,0,0.1c0,0,0,0,0,0s0,0,0,0s0,0,0.1-0.1
			h0.1c-0.1,0-0.1-0.1-0.2-0.2c-0.1-0.1-0.1-0.1-0.2-0.2c0-0.1-0.1-0.2-0.1-0.3c0,0,0-0.1,0-0.2v0c0,0,0,0,0,0l0,0v0c0,0,0,0,0,0
			s0,0,0,0h0c0,0,0.1,0,0.1,0.1l0,0l0,0l0.1,0.1v0v0c0,0,0,0.1,0.1,0.1l0,0c0,0,0,0,0,0v0c0,0,0,0.1,0,0.1v0.1v0c0,0,0,0,0,0
			s0,0.1,0,0.1s0,0.2,0,0.3c0,0.1,0.1,0.2,0.2,0.2c0.1,0,0.1,0,0.1-0.1c0.1-0.2,0.2-0.3,0.3-0.5c0-0.2,0-0.4-0.1-0.6
			c-0.2-0.4-0.5-0.6-0.9-0.7c-0.1,0-0.1,0.1-0.1,0.1C33.8,51.8,33.8,51.9,33.9,52C33.9,51.9,33.9,51.9,33.9,52L33.9,52z"/>
		<path d="M35.1,51.6c0.2-0.1,0.3-0.2,0.5-0.3c0.1-0.1,0.3-0.3,0.3-0.5c0-0.1,0-0.2-0.1-0.2c0,0,0,0,0,0c-0.1,0-0.2,0-0.2,0.1
			c0,0,0,0,0,0.1c0,0,0,0,0,0l0,0l-0.1,0.1l0,0c0,0,0,0,0,0l0,0L35.4,51c0,0,0,0,0,0l0,0c0,0,0,0,0,0c0,0,0,0,0,0h0l0,0l-0.1,0.1
			l-0.1,0c0,0,0,0,0,0l0,0c-0.1,0-0.2,0.1-0.1,0.2c0,0.1,0.1,0.2,0.2,0.1L35.1,51.6z"/>
		<path d="M34.1,54.1c0.6,0.2,1.2,0.1,1.8-0.2c0.1,0,0.1-0.2,0.1-0.2c0,0,0,0,0,0c-0.1-0.1-0.2-0.1-0.2-0.1c-0.5,0.2-1,0.2-1.5,0.1
			C34,53.7,33.9,54.1,34.1,54.1L34.1,54.1z"/>
		<path d="M35.7,52c0.3-0.1,0.5-0.2,0.7-0.4c0.1-0.1,0.1-0.2,0-0.3c-0.1-0.1-0.2-0.1-0.3,0c0,0,0,0,0,0l0,0c0,0,0,0,0,0l-0.1,0.1
			c-0.1,0-0.1,0.1-0.2,0.1h0c-0.1,0-0.1,0-0.2,0.1c-0.1,0-0.2,0.1-0.1,0.2C35.5,51.9,35.6,52,35.7,52L35.7,52z"/>
		<path d="M35.8,52.6c0.3,0,0.7-0.1,0.9-0.3c0.1-0.1,0.1-0.2,0.1-0.2C36.8,52,36.7,52,36.6,52l-0.2,0.1l0,0h-0.1l-0.1,0l-0.2,0
			c0,0-0.1,0,0,0h-0.1h-0.1c-0.1,0-0.2,0.1-0.2,0.2S35.7,52.6,35.8,52.6C35.8,52.6,35.8,52.6,35.8,52.6L35.8,52.6z"/>
		<path d="M80.7,66.5c0.3,0.2,0.5,0.5,0.4,0.9c-0.2,0.4-0.5,0.7-0.8,0.9c-0.7,0.5-1.4,1-2.2,1.3c-1.7,0.7-3.4,1.3-5.2,1.6
			c-3.8,0.8-7.7,1.3-11.6,1.6c-7.5,0.5-15.3,0.1-22.7-1.5c-2-0.4-3.9-1-5.7-1.8c-0.9-0.4-1.7-0.9-2.4-1.6c-0.6-0.7-0.2-1.2,0.5-1.7
			c0.8-0.5,0-1.8-0.7-1.3c-0.7,0.5-1.4,1.1-1.5,2c-0.1,0.8,0.1,1.5,0.7,2.1c1.3,1.4,3.4,2.2,5.2,2.8c4,1.4,8.4,2,12.6,2.4
			c4.4,0.4,8.9,0.5,13.3,0.3c4.4-0.3,8.8-0.9,13.1-1.8c2.3-0.4,4.5-1.2,6.5-2.3c1-0.5,1.8-1.2,2.3-2.1c0.5-1,0.1-1.9-0.6-2.6
			S80,65.8,80.7,66.5L80.7,66.5z"/>
		<path d="M38.2,65c-0.8,0.8-0.9,2.1-0.2,3c0.8,1.1,2.2,1.4,3.5,1.8c2.8,0.8,5.7,1,8.6,1.2c5.9,0.3,12,0.3,17.9-0.8
			c2-0.4,6.8-1.4,5.3-4.5c-0.4-0.9-1.7-0.1-1.3,0.7s-1.1,1.5-1.7,1.7c-1.1,0.3-2.2,0.6-3.3,0.7c-2.4,0.4-4.9,0.6-7.4,0.7
			c-4.9,0.3-9.8,0.1-14.7-0.6c-1.3-0.2-2.6-0.5-3.8-0.9c-0.7-0.2-2.8-1-1.7-2.1C40,65.4,38.9,64.4,38.2,65L38.2,65z"/>
	</g>
	<path d="M92.4,51c-0.1,20-16.3,36.1-36.3,36.1C36.2,87,20,70.8,20.1,50.8s16.3-36.1,36.3-36.1c17.8,0,32.9,13,35.7,30.7
		C92.3,47.2,92.4,49.1,92.4,51c0,0.4,0.3,0.7,0.7,0.7c0.4,0,0.7-0.3,0.7-0.7C93.9,30,76.9,13,56,13C35,13,18.1,30,18,51
		c0,21,17,37.9,37.9,37.9c18.7,0,34.6-13.6,37.5-32.1c0.3-1.9,0.5-3.9,0.5-5.9c0-0.4-0.3-0.7-0.7-0.7C92.8,50.2,92.4,50.6,92.4,51z"
		/>
</g>
</svg>
