<?xml version="1.0" encoding="UTF-8" standalone="no"?>
<svg
   xmlns:dc="http://purl.org/dc/elements/1.1/"
   xmlns:cc="http://creativecommons.org/ns#"
   xmlns:rdf="http://www.w3.org/1999/02/22-rdf-syntax-ns#"
   xmlns:svg="http://www.w3.org/2000/svg"
   xmlns="http://www.w3.org/2000/svg"
   xmlns:sodipodi="http://sodipodi.sourceforge.net/DTD/sodipodi-0.dtd"
   xmlns:inkscape="http://www.inkscape.org/namespaces/inkscape"
   viewBox="0 0 220.87675 201.10721"
   version="1.1"
   id="svg58"
   sodipodi:docname="Ins-0.svg"
   width="220.87675"
   height="201.10721"
   inkscape:version="0.92.5 (2060ec1f9f, 2020-04-08)">
  <metadata
     id="metadata62">
    <rdf:RDF>
      <cc:Work
         rdf:about="">
        <dc:format>image/svg+xml</dc:format>
        <dc:type
           rdf:resource="http://purl.org/dc/dcmitype/StillImage" />
        <dc:title></dc:title>
      </cc:Work>
    </rdf:RDF>
  </metadata>
  <sodipodi:namedview
     pagecolor="#ffffff"
     bordercolor="#666666"
     borderopacity="1"
     objecttolerance="10"
     gridtolerance="10"
     guidetolerance="10"
     inkscape:pageopacity="0"
     inkscape:pageshadow="2"
     inkscape:window-width="755"
     inkscape:window-height="480"
     id="namedview60"
     showgrid="false"
     fit-margin-top="0"
     fit-margin-left="0"
     fit-margin-right="0"
     fit-margin-bottom="0"
     inkscape:zoom="0.67428571"
     inkscape:cx="32.627119"
     inkscape:cy="176.33329"
     inkscape:window-x="0"
     inkscape:window-y="25"
     inkscape:window-maximized="0"
     inkscape:current-layer="svg58" />
  <defs
     id="defs4">
    <style
       id="style2">.cls-1{fill:#f7c402;}.cls-2{fill:#ffda83;}.cls-3{fill:#fdeaab;}.cls-4{fill:#f8dad4;stroke:#f8dad4;stroke-miterlimit:10;}.cls-5{fill:#e9676b;}.cls-6{fill:#4386c6;stroke:#000;stroke-linecap:round;stroke-linejoin:round;stroke-width:3px;}.cls-7{fill:#bfe0e2;}.cls-8{fill:#8bb6db;}.cls-9{fill:#fff;}</style>
  </defs>
  <g
     id="Fondos_y_letras"
     data-name="Fondos y letras"
     transform="translate(-14.334263,-30.237835)">
    <path
       class="cls-1"
       d="M 162,31.76 H 87.62 a 34.61,34.61 0 0 0 -30,17.31 l -37.16,64.38 a 34.64,34.64 0 0 0 0,34.62 l 37.18,64.38 a 34.59,34.59 0 0 0 30,17.31 H 162 a 34.6,34.6 0 0 0 30,-17.31 l 37.17,-64.38 a 34.64,34.64 0 0 0 0,-34.62 L 191.94,49.07 A 34.63,34.63 0 0 0 162,31.76 Z"
       id="path6"
       inkscape:connector-curvature="0"
       style="fill:#f7c402" />
    <path
       d="M 162,30.26 H 89.91 a 42.06,42.06 0 0 0 -14.25,2 36.59,36.59 0 0 0 -19.37,16.15 c -1.3,2.22 -2.58,4.46 -3.86,6.68 l -18,31.11 -14.56,25.28 a 38.57,38.57 0 0 0 -5.53,18.26 37.55,37.55 0 0 0 5.36,20 l 14.09,24.41 18.21,31.5 c 1.41,2.45 2.81,4.89 4.23,7.33 A 36.57,36.57 0 0 0 73.8,228.5 c 8.62,3.6 18.17,2.76 27.31,2.76 h 37.82 c 7.66,0 15.33,0 23,0 a 36.51,36.51 0 0 0 24.8,-9.82 44.63,44.63 0 0 0 7.88,-10.6 l 15.72,-27.23 17.3,-30 c 1.27,-2.21 2.64,-4.4 3.78,-6.68 a 36.48,36.48 0 0 0 0.36,-31.68 c -1.16,-2.48 -2.64,-4.83 -4,-7.19 l -7.43,-12.88 -19.07,-33 -6.52,-11.29 A 46.93,46.93 0 0 0 187.4,40.7 36.51,36.51 0 0 0 162,30.26 a 1.5,1.5 0 0 0 0,3 33.53,33.53 0 0 1 25.25,11.74 54.85,54.85 0 0 1 5.4,8.32 l 16.27,28.17 16.51,28.6 a 70.75,70.75 0 0 1 4.26,7.9 33.45,33.45 0 0 1 -1.89,29.36 c -3.71,6.49 -7.47,12.94 -11.21,19.41 l -18.65,32.31 -6.1,10.57 a 40,40 0 0 1 -8.46,10.78 33.45,33.45 0 0 1 -21.67,7.85 c -2.74,0 -5.49,0 -8.23,0 H 89.14 a 35.74,35.74 0 0 1 -16,-3.32 34.22,34.22 0 0 1 -14.55,-13.82 L 45.4,188.26 27.13,156.62 22.18,148 a 34.23,34.23 0 0 1 -4.66,-20.94 c 1,-9.22 6.76,-17.25 11.28,-25.09 l 18.68,-32.3 q 5.7,-9.9 11.42,-19.79 A 33.41,33.41 0 0 1 79.25,34.34 44.63,44.63 0 0 1 90.77,33.26 H 162 a 1.5,1.5 0 0 0 0,-3 z"
       id="path8"
       inkscape:connector-curvature="0" />
    <circle
       class="cls-2"
       cx="124.79"
       cy="130.75999"
       r="87"
       id="circle10"
       style="fill:#ffda83" />
    <path
       d="m 210.29,130.76 a 85.1,85.1 0 1 1 -1,-13.1 87,87 0 0 1 1,13.1 1.5,1.5 0 0 0 3,0 88.58,88.58 0 1 0 -1,13.57 91.93,91.93 0 0 0 1,-13.57 1.5,1.5 0 0 0 -3,0 z"
       id="path12"
       inkscape:connector-curvature="0" />
    <circle
       class="cls-3"
       cx="124.79"
       cy="130.75999"
       r="75"
       id="circle14"
       style="fill:#fdeaab" />
    <path
       d="m 198.29,130.76 a 73.21,73.21 0 1 1 -0.87,-11.36 74,74 0 0 1 0.87,11.36 1.5,1.5 0 0 0 3,0 76.52,76.52 0 1 0 -0.92,11.82 79.24,79.24 0 0 0 0.92,-11.82 1.5,1.5 0 0 0 -3,0 z"
       id="path16"
       inkscape:connector-curvature="0" />
  </g>
  <g
     id="Mecanica"
     transform="translate(-14.334263,-30.237835)">
    <ellipse
       class="cls-4"
       cx="139"
       cy="148"
       rx="30.5"
       ry="31.5"
       id="ellipse19"
       style="fill:#f8dad4;stroke:#f8dad4;stroke-miterlimit:10" />
    <path
       class="cls-5"
       d="m 121.28,188.7 a 45.62,45.62 0 0 0 9.33,3 l 4.08,-6.65 a 40.37,40.37 0 0 0 6.14,0.26 l 3.48,7 a 43.2,43.2 0 0 0 4.84,-0.8 44.33,44.33 0 0 0 4.71,-1.31 l 0.2,-7.81 a 37.58,37.58 0 0 0 5.46,-2.83 l 6.5,4.31 a 45.28,45.28 0 0 0 7.21,-6.61 l -3.73,-6.87 a 38.25,38.25 0 0 0 3.3,-5.16 l 7.81,0.47 a 45,45 0 0 0 2.92,-9.31 l -6.63,-4.1 a 37.83,37.83 0 0 0 0.25,-6.13 l 7,-3.48 a 41.32,41.32 0 0 0 -0.79,-4.84 45.92,45.92 0 0 0 -1.31,-4.7 l -7.81,-0.22 a 38.48,38.48 0 0 0 -2.83,-5.45 l 4.3,-6.5 a 44.73,44.73 0 0 0 -6.59,-7.21 l -6.87,3.72 a 38.92,38.92 0 0 0 -5.17,-3.29 l 0.46,-7.8 a 44.62,44.62 0 0 0 -9.31,-2.94 l -4.1,6.55 a 39.18,39.18 0 0 0 -6.14,-0.27 l -3.49,-7 a 42.45,42.45 0 0 0 -4.82,0.79 45.62,45.62 0 0 0 -4.72,1.32 l -0.21,7.81 a 39,39 0 0 0 -5.45,2.83 l -6.51,-4.3 a 44.59,44.59 0 0 0 -7.19,6.59 l 3.71,6.88 a 36.5,36.5 0 0 0 -3.29,5.17 l -7.81,-0.48 a 46.77,46.77 0 0 0 -2.94,9.32 l 6.65,4.08 a 37.83,37.83 0 0 0 -0.25,6.13 l -7,3.51 a 43,43 0 0 0 0.79,4.81 44.75,44.75 0 0 0 1.33,4.81 l 7.81,0.21 a 38.55,38.55 0 0 0 2.82,5.46 l -4.3,6.51 a 44.69,44.69 0 0 0 6.6,7.19 l 6.88,-3.72 a 37.37,37.37 0 0 0 5.16,3.3 z M 112,137.89 A 29.07,29.07 0 1 1 129.79,175 29.1,29.1 0 0 1 112,137.89 Z"
       id="path21"
       inkscape:connector-curvature="0"
       style="fill:#e9676b" />
    <path
       d="m 120.53,190 a 49,49 0 0 0 9.68,3.1 1.53,1.53 0 0 0 1.69,-0.69 l 4.08,-6.64 -1.29,0.74 a 44.92,44.92 0 0 0 6.14,0.26 l -1.3,-0.75 3.48,7 a 1.46,1.46 0 0 0 1.3,0.74 48.85,48.85 0 0 0 9.94,-2.17 1.55,1.55 0 0 0 1.11,-1.44 l 0.2,-7.81 -0.74,1.3 a 40.77,40.77 0 0 0 5.45,-2.83 h -1.51 l 6.5,4.3 a 1.46,1.46 0 0 0 1.52,0 49.66,49.66 0 0 0 7.51,-6.83 1.54,1.54 0 0 0 0.23,-1.82 l -3.72,-6.87 v 1.51 a 42.19,42.19 0 0 0 3.3,-5.16 l -1.3,0.74 7.81,0.47 a 1.44,1.44 0 0 0 1.29,-0.75 48.82,48.82 0 0 0 3.08,-9.67 1.57,1.57 0 0 0 -0.69,-1.69 l -6.64,-4.1 0.75,1.3 a 40.51,40.51 0 0 0 0.25,-6.13 l -0.75,1.3 7,-3.49 a 1.44,1.44 0 0 0 0.74,-1.29 48.81,48.81 0 0 0 -2.15,-9.94 1.55,1.55 0 0 0 -1.45,-1.1 l -7.81,-0.22 1.29,0.74 a 42,42 0 0 0 -2.82,-5.45 v 1.52 l 4.3,-6.51 a 1.46,1.46 0 0 0 0,-1.51 49.18,49.18 0 0 0 -6.83,-7.51 1.54,1.54 0 0 0 -1.82,-0.23 l -6.87,3.72 H 163 a 40.36,40.36 0 0 0 -5.17,-3.29 l 0.75,1.29 0.46,-7.8 a 1.43,1.43 0 0 0 -0.74,-1.29 49.3,49.3 0 0 0 -9.67,-3.1 1.57,1.57 0 0 0 -1.7,0.69 l -4.08,6.65 1.3,-0.74 a 43.45,43.45 0 0 0 -6.14,-0.27 l 1.29,0.74 -3.48,-7 a 1.47,1.47 0 0 0 -1.3,-0.74 48.22,48.22 0 0 0 -9.93,2.16 1.56,1.56 0 0 0 -1.11,1.45 l -0.21,7.81 0.75,-1.29 a 39.58,39.58 0 0 0 -5.45,2.82 h 1.51 l -6.51,-4.3 a 1.5,1.5 0 0 0 -1.52,0 49,49 0 0 0 -7.49,6.83 1.54,1.54 0 0 0 -0.24,1.81 l 3.72,6.88 v -1.51 a 39.36,39.36 0 0 0 -3.3,5.17 l 1.3,-0.74 -7.81,-0.48 a 1.46,1.46 0 0 0 -1.29,0.75 49.06,49.06 0 0 0 -3.09,9.67 1.55,1.55 0 0 0 0.69,1.7 l 6.65,4.07 -0.75,-1.29 a 40.51,40.51 0 0 0 -0.25,6.13 l 0.74,-1.29 -7,3.5 a 1.43,1.43 0 0 0 -0.74,1.3 47.5,47.5 0 0 0 2.17,9.92 1.53,1.53 0 0 0 1.44,1.1 l 7.81,0.21 -1.3,-0.74 a 40.77,40.77 0 0 0 2.83,5.45 v -1.51 l -4.3,6.51 a 1.44,1.44 0 0 0 0,1.51 47.66,47.66 0 0 0 6.83,7.5 1.56,1.56 0 0 0 1.82,0.24 l 6.88,-3.72 h -1.52 a 41,41 0 0 0 5.16,3.3 l -0.74,-1.3 -0.48,7.8 c -0.12,1.93 2.89,1.92 3,0 l 0.48,-7.8 a 1.47,1.47 0 0 0 -0.75,-1.29 40.91,40.91 0 0 1 -5.15,-3.3 1.48,1.48 0 0 0 -1.52,0 L 109,180 l 1.82,0.23 a 44.67,44.67 0 0 1 -6.36,-6.89 v 1.51 l 4.3,-6.51 a 1.49,1.49 0 0 0 0,-1.51 41.39,41.39 0 0 1 -2.83,-5.45 1.48,1.48 0 0 0 -1.29,-0.75 l -7.81,-0.21 1.45,1.1 a 44.45,44.45 0 0 1 -2.06,-9.12 l -0.75,1.29 7,-3.5 a 1.48,1.48 0 0 0 0.74,-1.3 40.51,40.51 0 0 1 0.25,-6.13 1.46,1.46 0 0 0 -0.74,-1.3 l -6.72,-4.04 0.69,1.69 a 46.07,46.07 0 0 1 2.79,-9 l -1.3,0.74 7.81,0.48 a 1.47,1.47 0 0 0 1.29,-0.75 40.43,40.43 0 0 1 3.3,-5.17 1.48,1.48 0 0 0 0,-1.51 l -3.72,-6.88 -0.23,1.82 a 44.67,44.67 0 0 1 6.89,-6.36 H 112 l 6.52,4.3 a 1.46,1.46 0 0 0 1.51,0 40.16,40.16 0 0 1 5.45,-2.82 1.48,1.48 0 0 0 0.74,-1.3 l 0.21,-7.81 -1.1,1.44 a 44.77,44.77 0 0 1 9.14,-2 l -1.29,-0.74 3.48,7 a 1.5,1.5 0 0 0 1.3,0.74 43.45,43.45 0 0 1 6.14,0.27 1.47,1.47 0 0 0 1.29,-0.74 l 4.08,-6.65 -1.69,0.68 a 46.1,46.1 0 0 1 9,2.8 l -0.75,-1.3 -0.46,7.8 a 1.48,1.48 0 0 0 0.74,1.3 41.06,41.06 0 0 1 5.17,3.29 1.48,1.48 0 0 0 1.51,0 l 6.88,-3.72 -1.82,-0.24 a 46.2,46.2 0 0 1 6.36,6.9 v -1.51 l -4.3,6.5 a 1.48,1.48 0 0 0 0,1.52 40.71,40.71 0 0 1 2.82,5.45 1.48,1.48 0 0 0 1.3,0.74 l 7.81,0.22 -1.44,-1.1 a 45.27,45.27 0 0 1 2,9.14 l 0.74,-1.3 -7,3.49 a 1.47,1.47 0 0 0 -0.74,1.29 40.46,40.46 0 0 1 -0.25,6.13 1.49,1.49 0 0 0 0.74,1.3 l 6.63,4.09 -0.69,-1.69 a 44.59,44.59 0 0 1 -2.77,9 l 1.3,-0.74 -7.81,-0.47 a 1.46,1.46 0 0 0 -1.29,0.74 41.55,41.55 0 0 1 -3.3,5.17 1.46,1.46 0 0 0 0,1.51 l 3.72,6.87 0.24,-1.82 a 45.81,45.81 0 0 1 -6.91,6.37 h 1.52 l -6.51,-4.3 a 1.46,1.46 0 0 0 -1.51,0 41.51,41.51 0 0 1 -5.41,2.72 1.45,1.45 0 0 0 -0.74,1.29 l -0.2,7.81 1.1,-1.45 a 45.56,45.56 0 0 1 -9.15,2.06 l 1.29,0.74 -3.48,-7 a 1.44,1.44 0 0 0 -1.29,-0.74 44.92,44.92 0 0 1 -6.14,-0.26 1.5,1.5 0 0 0 -1.3,0.75 l -4.08,6.64 1.69,-0.69 a 45.42,45.42 0 0 1 -9,-2.8 c -1.71,-0.7 -3.24,1.88 -1.47,2.65 z"
       id="path23"
       inkscape:connector-curvature="0" />
    <path
       d="m 113.42,138.29 a 27.6,27.6 0 1 1 -1.13,4.23 30.66,30.66 0 0 1 1.13,-4.23 c 0.63,-1.83 -2.26,-2.62 -2.89,-0.8 a 30.57,30.57 0 1 0 1.91,-4.37 32.66,32.66 0 0 0 -1.91,4.37 c -0.65,1.82 2.25,2.6 2.89,0.8 z"
       id="path25"
       inkscape:connector-curvature="0" />
    <polygon
       class="cls-6"
       points="118.44,148.3 129.13,165.76 149.59,165.24 159.37,147.26 148.69,129.79 128.23,130.31 "
       id="polygon27"
       style="fill:#4386c6;stroke:#000000;stroke-width:3px;stroke-linecap:round;stroke-linejoin:round" />
    <path
       class="cls-7"
       d="M 160.5,109.5 C 153.2,97.87 136.91,91 124.13,92.59 L 103,58.92 c -2.41,1.28 -5,2.26 -7.5,3.31 l 20.46,32.58 -10.79,6.77 L 84,67.89 a 21.08,21.08 0 0 0 -6.26,4.65 l 22.15,35.28 c -7,10.8 -11.38,22.68 -6.38,34.68 4.67,11.21 18,26 35.55,26.91 l -18.68,-31.94 19.57,-12 14.84,-7.2 17.78,29.81 c 5.93,-10.58 5.29,-26.86 -2.07,-38.58 z"
       id="path29"
       inkscape:connector-curvature="0"
       style="fill:#bfe0e2" />
    <path
       d="m 161.8,108.74 a 38.37,38.37 0 0 0 -16.67,-14 39.87,39.87 0 0 0 -21,-3.69 l 1.3,0.74 -18.49,-29.4 -2.66,-4.23 a 1.55,1.55 0 0 0 -2.06,-0.54 c -2.31,1.21 -4.73,2.16 -7.14,3.16 a 1.52,1.52 0 0 0 -0.9,2.2 l 17.91,28.52 2.55,4.07 0.54,-2.06 -10.78,6.78 2,0.54 L 88,71.36 85.34,67.13 a 1.53,1.53 0 0 0 -2.06,-0.54 23.71,23.71 0 0 0 -6.57,4.89 1.53,1.53 0 0 0 -0.23,1.81 l 19.36,30.91 2.75,4.38 v -1.52 c -3.58,5.54 -6.7,11.58 -8,18.09 a 30.67,30.67 0 0 0 1.85,18.6 48.83,48.83 0 0 0 19,21.52 38.11,38.11 0 0 0 17.66,5.64 1.51,1.51 0 0 0 1.29,-2.25 l -16.37,-28 -2.31,-3.95 -0.54,2 14.69,-9 c 1.63,-1 3.23,-2.08 4.9,-3 2.22,-1.21 4.57,-2.22 6.85,-3.33 l 8,-3.87 -2,-0.53 15.57,26.11 2.21,3.7 a 1.51,1.51 0 0 0 2.59,0 c 6.72,-12.2 5.15,-28.5 -2.06,-40.13 -1,-1.63 -3.62,-0.13 -2.6,1.52 6.65,10.7 8.28,25.82 2.07,37.1 h 2.59 l -15.58,-26.12 -2.2,-3.7 A 1.55,1.55 0 0 0 144,117 c -4.89,2.37 -9.89,4.58 -14.69,7.12 -1.41,0.76 -2.76,1.68 -4.13,2.51 l -9.36,5.72 -6.24,3.82 a 1.53,1.53 0 0 0 -0.54,2.05 l 16.37,28 2.31,3.95 1.3,-2.26 c -10.15,-0.58 -19.25,-6.07 -26,-13.46 -6.75,-7.39 -11.44,-16.69 -9.91,-26.84 1,-6.9 4.28,-13.23 8,-19 a 1.5,1.5 0 0 0 0,-1.52 L 81.77,76.15 79,71.78 78.77,73.6 a 20.93,20.93 0 0 1 6,-4.42 l -2.06,-0.54 18.49,29.46 2.66,4.24 a 1.52,1.52 0 0 0 2,0.54 L 116.7,96.1 a 1.51,1.51 0 0 0 0.53,-2 l -17.91,-28.57 -2.55,-4.06 -0.89,2.2 c 2.64,-1.09 5.32,-2.13 7.86,-3.46 l -2,-0.54 18.49,29.45 2.65,4.23 a 1.47,1.47 0 0 0 1.3,0.74 c 13.07,-1.59 28,5 35.07,16.17 0.99,1.62 3.59,0.12 2.55,-1.52 z"
       id="path31"
       inkscape:connector-curvature="0" />
    <path
       class="cls-8"
       d="m 95.48,62.23 a 43.11,43.11 0 0 0 -4.72,2.21 c -2.15,1.21 -4.52,2.24 -6.77,3.45 l 21.16,33.69 10.79,-6.77 z"
       id="path33"
       inkscape:connector-curvature="0"
       style="fill:#8bb6db" />
    <path
       d="m 95.08,60.78 c -4,1.69 -8,3.77 -11.85,5.81 a 1.52,1.52 0 0 0 -0.54,2 l 18.51,29.51 2.66,4.24 a 1.52,1.52 0 0 0 2,0.54 L 116.7,96.1 a 1.51,1.51 0 0 0 0.53,-2 L 99.32,65.53 96.77,61.47 c -1,-1.63 -3.62,-0.13 -2.59,1.51 l 17.91,28.52 2.55,4.07 0.54,-2.06 -10.78,6.78 2,0.54 L 88,71.36 85.34,67.13 84.8,69.18 c 3.64,-1.92 7.33,-3.92 11.13,-5.51 a 1.54,1.54 0 0 0 1,-1.84 1.5,1.5 0 0 0 -1.85,-1.05 z"
       id="path35"
       inkscape:connector-curvature="0" />
    <path
       d="m 158.18,91.77 a 35.13,35.13 0 0 0 -18.11,-8.86 1.56,1.56 0 0 0 -1.85,1 1.52,1.52 0 0 0 1.05,1.84 32.37,32.37 0 0 1 16.79,8.09 c 1.42,1.31 3.55,-0.8 2.12,-2.12 z"
       id="path37"
       inkscape:connector-curvature="0" />
    <path
       d="m 156.52,83.45 a 22.36,22.36 0 0 0 -9.88,-4.1 1.54,1.54 0 0 0 -1.85,1.05 1.52,1.52 0 0 0 1.05,1.84 19.88,19.88 0 0 1 9.16,3.76 1.51,1.51 0 0 0 2.06,-0.54 1.54,1.54 0 0 0 -0.54,-2 z"
       id="path39"
       inkscape:connector-curvature="0" />
    <path
       d="m 84.93,112.11 a 18.22,18.22 0 0 0 -3.42,18.89 1.55,1.55 0 0 0 1.84,1 1.52,1.52 0 0 0 1.05,-1.85 15.29,15.29 0 0 1 2.65,-16 c 1.29,-1.43 -0.82,-3.56 -2.12,-2.12 z"
       id="path41"
       inkscape:connector-curvature="0" />
    <path
       d="m 77.52,112.24 a 25.63,25.63 0 0 0 -1.93,8.42 1.5,1.5 0 0 0 3,0 c 0,-0.35 0,-0.69 0.08,-1 l 0.06,-0.52 c 0,-0.11 0,-0.1 0,0 0,-0.09 0,-0.19 0,-0.29 0.1,-0.66 0.22,-1.31 0.38,-2 a 25.1,25.1 0 0 1 1.3,-3.85 1.51,1.51 0 0 0 -1,-1.85 1.55,1.55 0 0 0 -1.85,1 z"
       id="path43"
       inkscape:connector-curvature="0" />
    <ellipse
       class="cls-9"
       cx="105.24"
       cy="115.26"
       rx="9.21"
       ry="8.5"
       transform="rotate(-45,105.23274,115.26117)"
       id="ellipse45"
       style="fill:#ffffff" />
    <path
       d="m 112.81,107.69 a 10.22,10.22 0 0 0 -11.71,-1.62 11.22,11.22 0 0 0 -6.21,10.43 9.6,9.6 0 0 0 7.41,8.88 11.11,11.11 0 0 0 11.36,-4.69 10.29,10.29 0 0 0 -0.85,-13 c -1.35,-1.38 -3.47,0.74 -2.12,2.12 a 7.1,7.1 0 0 1 1.11,8.19 8.32,8.32 0 0 1 -7.71,4.65 6.62,6.62 0 0 1 -6.09,-5.25 7.63,7.63 0 0 1 0.47,-4.44 8.53,8.53 0 0 1 2.92,-3.59 8,8 0 0 1 4.9,-1.46 6.79,6.79 0 0 1 2.4,0.54 7.05,7.05 0 0 1 2,1.36 c 1.38,1.35 3.5,-0.81 2.12,-2.12 z"
       id="path47"
       inkscape:connector-curvature="0" />
    <ellipse
       class="cls-9"
       cx="128.33"
       cy="102.4"
       rx="9.21"
       ry="8.5"
       transform="rotate(-45,128.324,102.39646)"
       id="ellipse49"
       style="fill:#ffffff" />
    <path
       d="m 135.9,94.83 a 10.22,10.22 0 0 0 -11.71,-1.62 11.24,11.24 0 0 0 -6.19,10.43 9.61,9.61 0 0 0 7.42,8.88 11.16,11.16 0 0 0 11.36,-4.69 10.3,10.3 0 0 0 -0.86,-13 c -1.35,-1.39 -3.47,0.73 -2.12,2.12 a 7.08,7.08 0 0 1 1.11,8.16 8.32,8.32 0 0 1 -7.71,4.64 6.59,6.59 0 0 1 -6.08,-5.21 7.59,7.59 0 0 1 0.48,-4.45 8.47,8.47 0 0 1 2.91,-3.58 8,8 0 0 1 4.9,-1.47 7.07,7.07 0 0 1 2.41,0.54 6.85,6.85 0 0 1 2,1.37 c 1.34,1.35 3.47,-0.77 2.08,-2.12 z"
       id="path51"
       inkscape:connector-curvature="0" />
    <path
       d="m 99.87,112.31 a 3.65,3.65 0 0 0 -0.76,3.37 4.47,4.47 0 0 0 2.11,2.69 7.92,7.92 0 0 0 6.4,0.62 5.26,5.26 0 0 0 2.61,-2 4.64,4.64 0 0 0 -4.12,-7.16 3.88,3.88 0 0 0 -3.31,1.93 2.48,2.48 0 0 0 1.37,3.5 1.13,1.13 0 0 0 1.38,-0.78 1.15,1.15 0 0 0 -0.78,-1.39 c 0.15,0.06 0,0 0,0 h 0.07 c 0,0.07 0,0.07 0,0 v 0 c 0,0.09 0,0.09 0,0 0,-0.09 -0.11,-0.27 0,-0.09 0,0 0,-0.23 0,0 a 0.88,0.88 0 0 1 0.07,-0.23 c 0,0.12 0,0 0,-0.06 0,-0.06 0.13,-0.15 0.14,-0.15 a 1.78,1.78 0 0 1 0.63,-0.35 l 0.3,-0.07 c 0,0 0.21,0 0.06,0 a 4,4 0 0 1 0.6,0 2.35,2.35 0 0 1 2.13,2.15 2.06,2.06 0 0 1 -0.08,0.87 1.91,1.91 0 0 1 -0.42,0.84 c 0.1,-0.12 -0.06,0.07 -0.09,0.09 l -0.16,0.17 -0.17,0.15 c -0.17,0.13 0.2,-0.13 -0.1,0.06 a 3.08,3.08 0 0 1 -0.79,0.4 5.78,5.78 0 0 1 -4,-0.15 2.75,2.75 0 0 1 -1.55,-1.33 1.84,1.84 0 0 1 -0.15,-0.83 c 0,0 0,-0.29 0,-0.11 0,-0.09 0,-0.19 0.08,-0.28 0.08,-0.09 -0.13,0.17 0,-0.1 0,0 0.2,-0.27 0.1,-0.15 a 1.16,1.16 0 0 0 0,-1.6 1.14,1.14 0 0 0 -1.59,0 z"
       id="path53"
       inkscape:connector-curvature="0" />
    <path
       d="m 123.48,105.51 a 4.93,4.93 0 0 0 5.86,1.45 5.94,5.94 0 0 0 4,-5 5,5 0 0 0 -3.13,-5 4.86,4.86 0 0 0 -3.38,0.11 6,6 0 0 0 -2.83,2.15 c -0.91,1.39 0.43,3 1.55,3.84 a 3,3 0 0 0 3.88,-0.25 1.15,1.15 0 0 0 0,-1.59 1.13,1.13 0 0 0 -1.59,0 c 0,0 -0.24,0.24 -0.14,0.13 0.1,-0.11 -0.21,0.08 0,0 h -0.22 c 0.19,0 0,0 -0.09,0 -0.09,0 -0.29,0 -0.1,0 l -0.22,-0.06 c 0.15,0.05 -0.09,0 -0.12,-0.06 l -0.25,-0.16 a 3.29,3.29 0 0 1 -0.63,-0.72 l -0.13,-0.22 c 0,0 0,0.1 0,0.12 -0.17,0.26 0.12,0 0.19,-0.13 a 4.31,4.31 0 0 1 1.74,-1 3.9,3.9 0 0 1 0.59,-0.14 c -0.15,0 0.23,0 0.3,0 h 0.3 c 0.21,0 -0.24,-0.07 0.12,0 l 0.23,0.06 c 0,0 0.36,0.12 0.16,0 a 3.42,3.42 0 0 1 0.46,0.26 c 0.18,0.1 0.07,0 0,0 l 0.2,0.17 c 0.11,0.11 0.22,0.23 0.32,0.35 -0.12,-0.15 0,0 0,0.07 0,0.07 0.11,0.18 0.16,0.28 0.05,0.1 0.08,0.15 0.12,0.24 -0.08,-0.17 0,0 0,0 a 4.48,4.48 0 0 1 0.16,0.52 c 0,0.07 0,0.14 0,0.21 0.07,0.33 0,-0.13 0,0.07 a 5.81,5.81 0 0 1 0,0.59 c 0,0.07 0,0.14 0,0.21 0,-0.21 0,0 0,0.07 a 3.94,3.94 0 0 1 -0.14,0.49 c -0.11,0.34 0.05,-0.09 0,0.1 -0.05,0.19 -0.09,0.17 -0.13,0.26 -0.04,0.09 -0.2,0.32 -0.31,0.48 0.1,-0.14 -0.06,0 -0.08,0.08 l -0.2,0.21 -0.34,0.32 a 5.4,5.4 0 0 1 -0.84,0.52 c 0,0 -0.34,0.16 -0.15,0.08 l -0.33,0.12 q -0.28,0.09 -0.57,0.15 h -0.18 -0.24 c -0.2,0 -0.41,0 -0.61,0 -0.2,0 -0.09,0 0,0 l -0.33,-0.06 -0.32,-0.1 c -0.21,-0.06 0.08,0.07 -0.13,0 l -0.19,-0.1 c 0,0 -0.28,-0.2 -0.12,-0.07 l -0.19,-0.18 -0.11,-0.12 v 0 a 1.151043,1.151043 0 0 0 -2,1.14 z"
       id="path55"
       inkscape:connector-curvature="0" />
  </g>
</svg>
