<?xml version="1.0" encoding="utf-8"?>
<!-- Generator: Adobe Illustrator 24.2.0, SVG Export Plug-In . SVG Version: 6.00 Build 0)  -->
<svg version="1.1" id="Layer_1" xmlns="http://www.w3.org/2000/svg" xmlns:xlink="http://www.w3.org/1999/xlink" x="0px" y="0px"
	 viewBox="0 0 112 102" style="enable-background:new 0 0 112 102;" xml:space="preserve">
<style type="text/css">
	.st0{fill:#4386C6;}
	.st1{fill:#8EB6E0;}
	.st2{fill:#BBD3EC;}
	.st3{fill:#3A9B8B;}
	.st4{fill:#E1262F;}
	.st5{fill:#FFFFFF;}
</style>
<g>
	<g id="Fondos_y_letras">
		<path class="st0" d="M74.2,2.5H37.8c-6.1,0-11.7,3.2-14.7,8.5L4.9,42.5c-3,5.2-3,11.7,0,17L23.1,91c3,5.3,8.6,8.5,14.7,8.5h36.4
			c6.1,0,11.7-3.2,14.7-8.5l18.2-31.6c3-5.2,3-11.7,0-17L88.9,11C85.9,5.7,80.3,2.5,74.2,2.5z"/>
		<path d="M74.2,1.7H39c-2.4-0.1-4.7,0.3-7,1c-4,1.4-7.4,4.2-9.5,7.9c-0.6,1.1-1.3,2.2-1.9,3.3l-8.8,15.2L4.6,41.5
			c-1.6,2.7-2.6,5.8-2.7,8.9c-0.1,3.4,0.8,6.8,2.6,9.8l6.9,12l8.9,15.4l2.1,3.6c2,3.4,5,6.1,8.6,7.6c4.2,1.8,8.9,1.3,13.4,1.3h18.5
			c3.8,0,7.5,0,11.3,0c4.5,0,8.8-1.7,12.1-4.8c1.5-1.5,2.8-3.3,3.9-5.2l7.7-13.3l8.5-14.7c0.6-1.1,1.3-2.2,1.9-3.3
			c2.4-4.9,2.5-10.6,0.2-15.5c-0.6-1.2-1.3-2.4-2-3.5l-3.6-6.3l-9.3-16.2l-3.2-5.5c-1-1.8-2.2-3.5-3.6-5C83.4,3.6,78.9,1.8,74.2,1.7
			c-0.4,0-0.7,0.3-0.7,0.7s0.3,0.7,0.7,0.7c4.8,0,9.3,2.1,12.4,5.7c1,1.3,1.9,2.6,2.6,4.1l8,13.8l8.1,14c0.8,1.2,1.5,2.5,2.1,3.9
			c1.9,4.7,1.6,10-0.9,14.4c-1.8,3.2-3.7,6.3-5.5,9.5l-9.1,15.8l-3,5.2c-1.1,2-2.5,3.8-4.1,5.3c-3,2.5-6.7,3.9-10.6,3.8H38.5
			c-2.7,0.1-5.4-0.5-7.8-1.6c-3-1.5-5.5-3.9-7.1-6.8l-6.5-11.2l-9-15.5l-2.4-4.2c-1.8-3.1-2.6-6.7-2.3-10.3
			c0.5-4.5,3.3-8.5,5.5-12.3L18.1,21c1.9-3.2,3.7-6.5,5.6-9.7c2.2-3.8,5.8-6.5,10-7.6c1.9-0.4,3.7-0.6,5.6-0.5h34.9
			c0.4,0,0.7-0.3,0.7-0.7C75,2.1,74.6,1.7,74.2,1.7z"/>
		<circle class="st1" cx="56" cy="51" r="42.6"/>
		<path d="M97.9,51c0,23-18.7,41.7-41.7,41.7c-23,0-41.7-18.7-41.7-41.7c0-23,18.7-41.7,41.7-41.7c20.6,0,38,15,41.2,35.3
			C97.7,46.7,97.9,48.8,97.9,51c0,0.4,0.3,0.7,0.7,0.7c0.4,0,0.7-0.3,0.7-0.7C99.3,27.1,79.8,7.7,55.9,7.8S12.7,27.4,12.8,51.3
			c0.1,23.9,19.5,43.2,43.5,43.2c21.4-0.1,39.5-15.7,42.7-36.8c0.3-2.2,0.5-4.4,0.5-6.6c0-0.4-0.3-0.7-0.7-0.7
			C98.2,50.2,97.9,50.6,97.9,51z"/>
		<circle class="st2" cx="56" cy="51" r="36.8"/>
		<path d="M92,51C92,70.7,75.9,86.7,56.2,86.7c-19.8-0.1-35.7-16.1-35.7-35.9C20.5,31,36.6,15.1,56.3,15.1
			C74,15.2,88.9,28,91.6,45.4C91.9,47.3,92,49.1,92,51c0,0.4,0.3,0.7,0.7,0.7c0.4,0,0.7-0.3,0.7-0.7c0-20.7-16.8-37.5-37.5-37.5
			c-20.7,0-37.5,16.8-37.5,37.5c0,20.7,16.8,37.5,37.5,37.5C74.5,88.5,90.2,75,93,56.8c0.3-1.9,0.4-3.9,0.5-5.8
			c0-0.4-0.3-0.7-0.7-0.7C92.4,50.2,92,50.6,92,51z"/>
	</g>
	<g id="_7._rgb">
		<g id="Capa_11">
			<path class="st0" d="M42.7,54.4c0.1,1.5,0.3,2.9,0.4,4.4c0.1,0.9,0.3,1.9,0.9,2.6c0.8,0.8,2,0.9,3.1,1c2.3,0.2,4.6,0.1,6.9-0.1
				c2.3-0.3,4.7-0.9,6.9-0.3c2.2,0.7,3.3,3.5,4.6,5.3c1.3,1.8,1.9,4.2,3.4,5.9c0.1,0.1,0.2,0.2,0.3,0.2c0.5,0.1,2.7-1,2.6-1.5
				c-0.3-3.2-3.5-6.9-3.7-10.1c0-0.9,0-1.9,0.1-2.8c0.1-2.7-0.2-5.5-1.4-7.9c-1-2-2.6-3.6-3.9-5.3c-1.7-2.2-3.1-4.6-5.4-6.1
				c-2.9-1.8-6.5-1.9-9.6-0.4c-3,1.6-5.2,4.4-6.1,7.7c-0.2,0.8-0.3,1.6-0.2,2.4c0.1,0.6,0.2,1.1,0.4,1.6c0.4,1.3,0.6,2.7,0.6,4"/>
			<path class="st0" d="M42,54.4c0.1,1.1,0.2,2.2,0.3,3.3c0.1,1,0.2,1.9,0.4,2.8c0.6,1.9,2.2,2.5,4.1,2.6c2.2,0.2,4.4,0.2,6.6,0
				c2.1-0.2,4.2-0.8,6.3-0.6c1.8,0.2,2.8,1.2,3.7,2.7c0.9,1.4,1.8,2.8,2.6,4.2c0.4,0.8,0.8,1.7,1.2,2.5c0.4,0.7,0.9,1.7,1.6,2.1
				c1,0.6,2.5-0.4,3.2-1c0.5-0.3,0.7-0.9,0.6-1.4c-0.1-0.8-0.4-1.6-0.7-2.3c-0.7-1.6-1.6-3.2-2.3-4.8c-0.3-0.7-0.6-1.5-0.7-2.3
				c-0.1-1-0.1-2.1,0-3.1c0.1-2-0.1-4-0.6-5.9c-0.6-1.9-1.6-3.6-2.8-5.2c-1.2-1.5-2.5-3-3.6-4.6c-1.1-1.5-2.3-2.9-3.8-4
				c-1.5-1-3.2-1.6-5-1.8c-3.6-0.2-7,1.3-9.3,4.1c-1.1,1.3-2,2.8-2.5,4.5C41,47,40.8,48,40.8,48.9c0,1,0.4,2,0.6,2.9
				c0.2,1,0.4,2.1,0.4,3.2c0,0.9,1.5,0.9,1.5,0c0-1-0.1-2-0.3-2.9c-0.2-0.9-0.5-1.7-0.7-2.6c-0.3-1.6,0.5-3.5,1.2-4.9
				c1.5-2.8,4.2-4.9,7.4-5.4c1.7-0.3,3.4-0.1,4.9,0.6c1.5,0.7,2.9,1.8,3.9,3.1c1.1,1.3,2.1,2.8,3.1,4.1c1.2,1.4,2.5,2.8,3.3,4.5
				c0.8,1.6,1.3,3.4,1.4,5.3c0.1,1.9-0.3,3.7,0,5.6C68,65.4,70.2,68,71,71c0,0.1,0.2,0.9,0.2,0.9s0-0.2,0.1-0.2c0.1,0-0.1,0.1,0,0.1
				S71,72,71,72c-0.4,0.3-0.9,0.5-1.3,0.7c-0.1,0-0.2,0-0.2,0.1c0.2,0.1,0-0.2-0.1-0.2c-0.3-0.3-0.5-0.7-0.8-1.1
				c-0.4-0.7-0.7-1.4-1.1-2.2c-0.7-1.4-1.5-2.7-2.4-4c-0.7-1.2-1.5-2.5-2.7-3.3c-1.4-1-3.3-1-4.9-0.8c-2,0.2-4,0.6-6,0.6
				c-1,0-2,0-3-0.1c-0.9,0-1.8-0.1-2.7-0.2c-0.8-0.1-1.4-0.7-1.7-1.5c-0.2-0.8-0.3-1.7-0.4-2.6c-0.1-1-0.2-2-0.3-3
				C43.4,53.5,41.9,53.5,42,54.4L42,54.4z"/>
			<path class="st3" d="M80.3,61.4c0.7-1,1.4-2,1.9-3.1c1.4-2.9,1.9-6.3,1.3-9.5c-0.1-0.8-0.3-1.5-0.4-2.3c-0.3-2-0.1-4.1-0.2-6.2
				c-0.1-0.9-0.2-1.9-0.9-2.5s-1.6-0.6-2.5-0.8c-1.4-0.4-2.5-1.4-3.6-2.5l-2.1-2c-0.3-0.3-0.7-0.6-1.1-0.9c-0.8-0.4-1.7-0.6-2.6-0.6
				c-1.4-0.2-2.8-0.5-4.1-1c-1.6-0.6-3.1-1.4-4.7-1.8c-1.8-0.5-3.9-0.4-5.3,1c-0.1,2.5,0.5,4.8,1.1,7.2l3.2,13.2
				c0.2,0.9,0.5,1.8,1,2.7c0.6,0.7,1.2,1.4,2,2c3.1,2.7,4.9,6.5,6,10.4c0.1,0.3,0.2,0.7,0.5,0.9c0.3,0.2,0.6,0.3,0.9,0.4
				c1.5,0.3,3.2,0.7,4.6,0.2c1.4-0.5,2.5-1.6,3.4-2.7C79.3,62.8,79.8,62.1,80.3,61.4z"/>
			<path class="st3" d="M81,61.8c2.2-2.9,3.5-6.4,3.6-10.1c0-0.9-0.1-1.9-0.2-2.8c-0.2-1-0.4-1.9-0.5-2.9c-0.2-2,0-4-0.2-6
				c-0.2-1.7-0.9-3-2.6-3.4c-0.8-0.1-1.6-0.4-2.3-0.7c-0.7-0.4-1.4-1-2-1.5c-0.7-0.7-1.4-1.3-2.1-2c-0.6-0.6-1.3-1.2-2.1-1.5
				c-0.8-0.3-1.6-0.4-2.5-0.5c-0.9-0.1-1.9-0.4-2.8-0.6c-3.2-1-6.4-3.3-9.8-2.2c-0.8,0.2-1.5,0.6-2,1.2c-0.2,0.4-0.2,0.8-0.2,1.3
				c0,0.5,0.1,1,0.1,1.5c0.3,2,0.7,3.9,1.2,5.9l2.9,11.9c0.2,0.9,0.4,1.8,0.8,2.6c0.4,0.7,0.9,1.4,1.5,2c1.3,1.1,2.5,2.3,3.5,3.7
				c0.9,1.4,1.7,2.9,2.3,4.4c0.3,0.8,0.6,1.6,0.8,2.5c0.2,0.7,0.4,1.5,1.1,1.9c0.7,0.4,1.9,0.5,2.7,0.6c0.9,0.1,1.8,0.1,2.7-0.1
				c1.7-0.4,3-1.7,4.1-2.9C79.8,63.3,80.4,62.5,81,61.8c0.6-0.8-0.7-1.5-1.3-0.7c-1,1.3-2.1,2.8-3.4,3.7c-1.3,1-3,1-4.6,0.7
				c-0.4,0-0.9-0.1-1.3-0.3c-0.3-0.1-0.4-0.4-0.5-0.7c-0.2-0.8-0.5-1.5-0.7-2.3c-0.5-1.4-1.1-2.7-1.8-4c-0.7-1.3-1.7-2.5-2.7-3.6
				c-1-1-2.4-1.8-3-3.2c-0.3-0.7-0.5-1.4-0.7-2.2l-0.7-2.8l-1.3-5.2c-0.5-2-1-3.9-1.4-5.9c-0.5-2-0.8-4-0.8-6.1l-0.2,0.5
				c2.5-2.4,6.3-0.2,8.8,0.9c1.6,0.6,3.4,1.1,5.1,1.3c0.8,0,1.5,0.3,2.1,0.7c0.7,0.6,1.3,1.2,2,1.8c1.2,1.1,2.3,2.4,3.8,3.1
				c0.7,0.3,1.4,0.5,2.1,0.6c0.8,0.1,1.4,0.7,1.5,1.4c0.1,0.8,0.2,1.5,0.2,2.3c0,1,0,2.1,0,3.1c0.1,1.8,0.6,3.4,0.8,5.2
				c0.4,4-1,7.7-3.3,10.9C79.1,61.8,80.4,62.5,81,61.8z"/>
			<path class="st4" d="M35.7,37.9c-3.2,0.4-5.7,2.8-6.3,6c-0.3,1.8,0,3.6-0.4,5.4c-0.2,1-0.6,2.1-0.8,3.1c-0.4,3,2,6,5,6.7
				c2.9,0.8,7.4,0.7,9.7-1.2c2.4-1.9,2.8-5.5,4.2-8.2c1.2-2.3,2.5-4.8,5-5.4c0.8-0.2,1.7-0.1,2.5-0.3c1.6-0.3,3.1-1.1,4.3-2.3
				c2.9-2.6,4.8-6.2,5.4-10.1c0.2-1.2,0.1-2.7-0.8-3.4c-0.9-0.6-3-0.9-4-0.5c-1,0.4-2,0.9-3,0.9c-2.1-0.1-1.3-1.7-3.3-2.5
				c-1.6-0.6-6.2,0.3-7.2,1.7s-0.1,3.3-1.8,3.9c-0.5,0.1-1,0.2-1.5,0.2c-3.5,0.2-6.2,2.9-6.8,6.4"/>
		</g>
		<g id="Capa_10">
			<path d="M73.5,67.9c0.9,0,1.7-0.2,2.5-0.5c0.6-0.2,1.7-0.7,1.7-1.4l-0.4,0.6c2.2-1.6,4.1-3.5,5.6-5.8c0.8-1.3,1.3-2.7,1.6-4.2
				c0.2-0.8,0.3-1.7,0.3-2.6c0.1-0.4,0.2-0.8,0.3-1.1c0.2-0.5,0.3-1,0.3-1.5c0.3-2-0.2-4.1-1.4-5.7v0.7c1.2-2.7,0.9-5.8-0.9-8.1
				c-1.5-1.9-4-3.3-6.4-3.2l0.7,0.5c-1-3.8-4.7-6.3-8.7-5.9l0.5,0.2c-3.6-3.8-9.3-4.6-13.9-2.2l1,0.3c-2.2-3.2-6.6-3.9-9.8-1.7
				c-1.6,1.1-2.6,2.8-2.9,4.7l0.3-0.4l-0.3,0.1l0.6-0.1c-4.4-0.8-8.6,2-9.4,6.4c0,0.2-0.1,0.4-0.1,0.6l0.2-0.5l0,0l0.5-0.2
				c-4.4,0.3-7.7,4-7.5,8.4c0.1,1.1,0.3,2.1,0.8,3.1v-0.7c-2.5,3.6-1.5,8.6,2.1,11.1c1.8,1.2,3.9,1.6,6,1.2c0.5-0.1,1-0.3,1.5-0.4
				c0.4-0.1,0.9-0.2,1.3-0.2c1.2-0.2,2.3-0.4,3.5-0.6l-0.9-0.9c-0.6,1.5-0.6,3.3,0.5,4.6c1,1.1,2.5,1.4,3.9,1.6
				c1.9,0.2,3.9,0.2,5.8,0.1c2.3-0.1,4.7-0.2,7-0.3c0.5-0.1,1-0.1,1.5,0c0.3,0.1,0.6,0.3,0.8,0.6c0.5,0.5,1,1,1.4,1.6
				c0.8,1.2,1.5,2.6,2.2,3.9c1.2,2.2,3.2,5.1,6.1,4.2c1.7-0.5,1.6-2.2,1-3.5c-0.7-1.8-1.8-3.4-2.6-5.1L69,66.2
				C70.2,67.3,71.8,67.9,73.5,67.9c1,0,1-1.5,0-1.5c-1.3,0-2.5-0.5-3.5-1.3c-0.3-0.3-0.8-0.3-1,0c-0.2,0.2-0.3,0.6-0.1,0.9
				c0.6,1.4,1.5,2.7,2.2,4.1c0.3,0.5,0.5,1.1,0.6,1.7c0,0.4,0,0.5-0.3,0.6c-2.3,0.8-3.8-2.4-4.7-3.9c-0.6-1.2-1.3-2.4-2.1-3.6
				c-0.7-1-1.6-2.2-2.8-2.7c-0.5-0.1-1-0.2-1.6-0.1c-0.6,0-1.2,0-1.8,0.1c-1,0-2.1,0.1-3.1,0.1c-1.9,0.1-3.8,0.2-5.7,0.2
				c-1.6,0-3.4,0-4.8-0.8c-1.4-0.8-1.3-2.4-0.8-3.7c0.2-0.6-0.4-1-0.9-0.9c-1.3,0.2-2.5,0.5-3.8,0.7c-0.3,0-0.6,0.1-0.9,0.1
				c-0.3,0.1-0.5,0.2-0.8,0.3c-3.4,1.1-7.1-0.8-8.2-4.2c-0.3-0.9-0.4-1.9-0.3-2.8c0.1-0.6,0.2-1.1,0.4-1.6c0.2-0.5,0.7-1,0.8-1.5
				c0.1-0.5-0.3-1.2-0.5-1.7c-0.2-0.6-0.2-1.3-0.2-1.9c0.1-2.9,2.1-5.3,4.9-6c0.4-0.1,0.9-0.1,1.3-0.2c0.6-0.2,0.5-0.7,0.6-1.2
				c0.4-1.8,1.5-3.4,3.1-4.3c0.8-0.5,1.7-0.8,2.7-0.9c0.6,0,1.2,0,1.8,0.1c0.5,0.1,1.1-0.2,1.2-0.7c0.2-1,0.6-2,1.3-2.9
				c2-2.3,5.5-2.6,7.8-0.6c0.3,0.3,0.6,0.6,0.8,0.9c0.2,0.3,0.7,0.5,1,0.3c3.8-2.1,8.5-1.5,11.6,1.5c0.4,0.4,0.6,0.7,1.2,0.7
				c0.5,0,1,0,1.5,0c0.9,0.1,1.7,0.4,2.5,0.8c1.5,0.9,2.6,2.3,3.1,4c0.1,0.3,0.4,0.5,0.7,0.5c2.1,0,4.1,1,5.4,2.7
				c1,1.4,1.4,3.2,1.1,4.9c-0.1,0.4-0.2,0.7-0.3,1c-0.1,0.4-0.4,0.7-0.2,1.2c0.3,0.6,0.7,1.1,0.9,1.7c0.2,0.7,0.4,1.4,0.4,2.1
				c0,0.7-0.1,1.4-0.3,2c-0.1,0.3-0.3,0.6-0.4,1c-0.1,0.4-0.1,0.8-0.1,1.3c-0.2,2.4-1,4.6-2.4,6.6c-0.7,0.9-1.4,1.7-2.3,2.5
				c-0.4,0.4-0.8,0.7-1.2,1c-0.4,0.3-1.2,0.8-1.2,1.4l0.4-0.6c-0.9,0.7-2,1-3.2,1.1C72.5,66.5,72.5,67.9,73.5,67.9z"/>
			<path d="M49.1,64.4c0.1,3.4,0,6.7-0.1,10.1l0.9-0.7c-1-0.2-2.1-0.3-3.1-0.2c-0.9,0.1-0.9,1.5,0,1.5c0.9-0.1,1.8,0,2.7,0.2
				c0.4,0.1,0.8-0.1,0.9-0.5c0-0.1,0-0.1,0-0.2c0.1-3.4,0.1-6.7,0.1-10.1C50.6,63.4,49.1,63.4,49.1,64.4z"/>
			<path d="M57.2,64c-0.1,2.6-0.2,5.2-0.3,7.8c0,0.6,0,1.2,0,1.9c-0.1,0.6,0.2,1.1,0.7,1.4c1.1,0.5,2.3,0,3.4,0.2
				c0.9,0.2,1.3-1.3,0.4-1.4c-0.9-0.2-1.9,0.1-2.9,0c-0.2,0-0.1-0.1-0.1,0c0-0.1,0-0.3,0-0.4c0-0.3,0-0.6,0-0.8c0-0.6,0-1.2,0-1.8
				c0.1-2.2,0.2-4.5,0.3-6.7C58.7,63,57.3,63,57.2,64L57.2,64z"/>
			<path class="st5" d="M52,51.8c0.4,2.6,2.6,4.5,5.2,4.5c2.6-0.1,4.7-2.2,4.7-4.9c0-0.1,0-0.2,0-0.2c-0.1-1.2-2-1.2-1.8,0
				c0.2,1.6-1,3.1-2.6,3.3c-0.2,0-0.4,0-0.5,0c-1.7-0.1-2.9-1.5-3.1-3.1C53.6,50.2,51.8,50.7,52,51.8L52,51.8z"/>
			<path d="M51.5,52c0.4,2.5,2.4,4.5,4.9,4.8c2.5,0.3,4.9-1.2,5.8-3.6c0.3-0.9,0.6-2.4-0.3-3.1c-0.6-0.5-1.6-0.5-2.1,0.2
				c-0.1,0.1-0.1,0.2-0.2,0.3c-0.2,0.5-0.1,1.1-0.2,1.6c-0.1,0.5-0.4,1-0.8,1.3c-1,0.7-2.3,0.6-3.2-0.2c-0.5-0.4-0.8-1-1-1.7
				c-0.1-0.6-0.2-1.1-0.8-1.4c-0.8-0.3-1.7,0.1-2,0.9c-0.1,0.2-0.1,0.4-0.1,0.6c0.1,0.7,1.2,0.7,1.1,0c-0.1-0.3,0.1-0.5,0.4-0.6
				c0,0,0,0,0,0c0.3-0.1,0.3,0.2,0.4,0.4c0.2,1,0.7,1.9,1.5,2.5c1.6,1.2,3.8,1,5.1-0.6c0.1-0.1,0.1-0.2,0.2-0.2
				c0.2-0.4,0.4-0.8,0.5-1.3c0-0.2,0.1-0.4,0.1-0.7c0-0.1-0.1-0.4,0-0.5c0.1-0.1,0.4-0.1,0.5,0c0.3,0.2,0.2,0.8,0.2,1.1
				c-0.3,2-1.9,3.6-4,3.7c-2.4,0.1-4.5-1.7-4.8-4.1C52.5,51,51.4,51.3,51.5,52z"/>
			<circle class="st5" cx="63.3" cy="44.1" r="3"/>
			<path d="M65.7,44.1c0,1.3-1.1,2.4-2.4,2.4c-1.3,0-2.4-1.1-2.4-2.4c0-1.3,1.1-2.4,2.4-2.4c0.1,0,0.3,0,0.4,0
				C64.9,41.9,65.7,42.9,65.7,44.1c0,0.3,0.3,0.5,0.6,0.5c0.3,0,0.5-0.2,0.5-0.5c0-1.5-0.9-2.8-2.3-3.3c-1.8-0.7-3.9,0.3-4.5,2.1
				c-0.4,1-0.3,2.1,0.3,3c1,1.7,3.2,2.2,4.8,1.2c1.1-0.6,1.7-1.8,1.7-3c0-0.3-0.3-0.5-0.6-0.5C66,43.6,65.8,43.8,65.7,44.1z"/>
			<circle class="st5" cx="49.8" cy="44.1" r="3"/>
			<path d="M52.2,44.1c0,1.3-1.1,2.4-2.4,2.4c-1.3,0-2.4-1.1-2.4-2.4c0-1.3,1.1-2.4,2.4-2.4c0.1,0,0.3,0,0.4,0
				C51.4,41.9,52.2,42.9,52.2,44.1c0,0.3,0.3,0.5,0.6,0.5c0.3,0,0.5-0.2,0.5-0.5c0-1.5-0.9-2.8-2.3-3.3c-1.8-0.7-3.9,0.3-4.5,2.1
				c-0.7,1.8,0.3,3.9,2.1,4.5c1.8,0.7,3.9-0.3,4.5-2.1c0.1-0.4,0.2-0.8,0.2-1.2c0-0.3-0.3-0.5-0.6-0.5
				C52.5,43.6,52.2,43.8,52.2,44.1z"/>
		</g>
	</g>
</g>
</svg>
