<?xml version="1.0" encoding="utf-8"?>
<!-- Generator: Adobe Illustrator 24.2.0, SVG Export Plug-In . SVG Version: 6.00 Build 0)  -->
<svg version="1.1" id="Layer_1" xmlns="http://www.w3.org/2000/svg" xmlns:xlink="http://www.w3.org/1999/xlink" x="0px" y="0px"
	 viewBox="0 0 69 68" style="enable-background:new 0 0 69 68;" xml:space="preserve">
<style type="text/css">
	.st0{fill:#F9C62B;stroke:#FFFFFF;stroke-width:7.1483;stroke-linecap:round;stroke-linejoin:round;stroke-miterlimit:10;}
	.st1{stroke:#FFFFFF;stroke-width:7.1483;stroke-linecap:round;stroke-linejoin:round;stroke-miterlimit:10;}
	.st2{fill:none;}
	.st3{font-family:'Pangram-ExtraBold';}
	.st4{font-size:22.4635px;}
	.st5{fill:none;stroke:#FFFFFF;stroke-width:7.1483;stroke-linecap:round;stroke-linejoin:round;}
	.st6{fill:#F9C62B;}
</style>
<g>
	<g>
		<g>
			<path class="st0" d="M49.5,61.1c-0.9,0-1.8-0.2-2.7-0.7l-9.3-5c-0.7-0.4-1.6-0.7-2.5-0.7c-0.9,0-1.8,0.2-2.5,0.5L23.2,60
				c-0.9,0.4-1.8,0.7-2.7,0.7c-1.6,0-3.2-0.7-4.3-2.1c-1.1-1.3-1.4-3-1.3-4.6l2-10.4c0.4-1.8-0.2-3.6-1.4-4.8L8,31.2
				c-1.6-1.6-2.1-3.8-1.4-5.9c0.7-2.1,2.5-3.6,4.6-3.9L21.6,20c1.8-0.2,3.2-1.3,4.1-2.9l4.8-9.5c1.1-2,3-3.2,5.2-3.2
				s4.1,1.3,5.2,3.2l4.6,9.5c0.7,1.6,2.3,2.7,3.9,3l10.4,1.6c2.1,0.4,3.9,1.8,4.6,3.9c0.7,2.1,0,4.3-1.4,5.9l-7.7,7.3
				c-1.3,1.3-1.8,3-1.6,4.6l1.6,10.4c0.4,1.6-0.2,3.4-1.3,4.6C52.9,60.3,51.3,61.1,49.5,61.1L49.5,61.1z"/>
			<path class="st1" d="M49.5,59.6c-2.7-0.2-5.7-2.5-8-3.8c-2.5-1.4-5-3-8-2.3c-2.5,0.5-4.8,2.3-7,3.4c-2.9,1.4-7,4.3-9.3,0.5
				c-1.6-2.5,0-6.8,0.5-9.5c0.5-2.7,1.4-5.5,0.2-8.2c-1.1-2.3-3.6-4.1-5.4-5.9C10.4,31.9,7,29.4,8,26c1.3-3.2,5.5-3,8.4-3.4
				c2.5-0.4,5.5-0.4,7.9-1.4c2.5-1.4,3.6-4.3,4.6-6.8c1.1-2.1,2.1-5.9,4.5-7.3c6.3-3.9,8.9,9.3,11.4,12.5c2,2.5,4.8,2.7,7.7,3
				c2.5,0.4,5.2,0.5,7.5,1.3c3.2,0.9,4.1,4.8,1.8,7.3c-0.7,0.9-1.6,1.6-2.5,2.5c-2.1,2-5.2,4.1-6.4,6.6c-1.4,2.9-0.2,6.6,0.4,9.7
				C53.6,53.4,55.4,59.6,49.5,59.6c-2,0-2,2.9,0,2.9c4.6,0,7.7-4.3,7.1-8.6c-0.4-3-0.9-5.9-1.4-8.9c-0.4-1.8-0.4-3.2,1.1-4.6
				c0.7-0.9,1.6-1.6,2.5-2.5c2-2,4.8-3.9,6.3-6.4c2.5-4.3-0.2-9.7-5-10.7c-2.7-0.5-5.5-0.9-8.2-1.3c-1.3-0.2-2.9-0.4-3.9-1.1
				c-1.1-0.9-1.6-2.3-2.1-3.4c-1.3-2.5-2.3-5-3.6-7.5c-2.5-4.5-8.8-5.4-12-1.3c-1.8,2.1-2.9,5.4-4.1,7.9c-0.5,0.9-0.9,2-1.4,2.9
				c-1.1,1.8-2.5,2.1-4.3,2.3c-3,0.4-6.1,0.7-9.1,1.3C7,21.2,3.9,25.7,5.4,30c0.9,2.9,3.9,5,5.9,7c2.1,2,4.8,3.9,4.3,7.1
				c-0.5,3-1.1,6.3-1.6,9.3c-0.7,4.3,1.4,8.6,6.1,9.1c3.2,0.4,6.3-1.8,8.9-3.2c2.5-1.3,5.5-3.6,8.4-2.1c2.7,1.3,5.4,2.9,8,4.3
				c1.4,0.7,2.7,1.3,4.3,1.4C51.5,62.7,51.5,59.8,49.5,59.6z"/>
		</g>
		
			<rect x="26.6" y="8.6" transform="matrix(1.036672e-02 -0.9999 0.9999 1.036672e-02 7.623205e-02 69.9101)" class="st2" width="17.5" height="52.7"/>
		<text transform="matrix(1.037 1.075488e-02 -1.037044e-02 0.9999 22.2088 42.8247)" class="st3 st4">11</text>
		<text transform="matrix(1.037 1.075488e-02 -1.037044e-02 0.9999 22.2088 42.8247)" class="st5 st3 st4">11</text>
	</g>
</g>
<g>
	<g>
		<g>
			<path class="st6" d="M49.5,61.1c-0.9,0-1.8-0.2-2.7-0.7l-9.3-5c-0.7-0.4-1.6-0.7-2.5-0.7c-0.9,0-1.8,0.2-2.5,0.5L23.2,60
				c-0.9,0.4-1.8,0.7-2.7,0.7c-1.6,0-3.2-0.7-4.3-2.1c-1.1-1.3-1.4-3-1.3-4.6l2-10.4c0.4-1.8-0.2-3.6-1.4-4.8L8,31.2
				c-1.6-1.6-2.1-3.8-1.4-5.9c0.7-2.1,2.5-3.6,4.6-3.9L21.6,20c1.8-0.2,3.2-1.3,4.1-2.9l4.8-9.5c1.1-2,3-3.2,5.2-3.2
				s4.1,1.3,5.2,3.2l4.6,9.5c0.7,1.6,2.3,2.7,3.9,3l10.4,1.6c2.1,0.4,3.9,1.8,4.6,3.9c0.7,2.1,0,4.3-1.4,5.9l-7.7,7.3
				c-1.3,1.3-1.8,3-1.6,4.6l1.6,10.4c0.4,1.6-0.2,3.4-1.3,4.6C52.9,60.3,51.3,61.1,49.5,61.1L49.5,61.1z"/>
			<g>
				<path d="M49.5,59.6c-2.7-0.2-5.7-2.5-8-3.8c-2.5-1.4-5-3-8-2.3c-2.5,0.5-4.8,2.3-7,3.4c-2.9,1.4-7,4.3-9.3,0.5
					c-1.6-2.5,0-6.8,0.5-9.5c0.5-2.7,1.4-5.5,0.2-8.2c-1.1-2.3-3.6-4.1-5.4-5.9C10.4,31.9,7,29.4,8,26c1.3-3.2,5.5-3,8.4-3.4
					c2.5-0.4,5.5-0.4,7.9-1.4c2.5-1.4,3.6-4.3,4.6-6.8c1.1-2.1,2.1-5.9,4.5-7.3c6.3-3.9,8.9,9.3,11.4,12.5c2,2.5,4.8,2.7,7.7,3
					c2.5,0.4,5.2,0.5,7.5,1.3c3.2,0.9,4.1,4.8,1.8,7.3c-0.7,0.9-1.6,1.6-2.5,2.5c-2.1,2-5.2,4.1-6.4,6.6c-1.4,2.9-0.2,6.6,0.4,9.7
					C53.6,53.4,55.4,59.6,49.5,59.6c-2,0-2,2.9,0,2.9c4.6,0,7.7-4.3,7.1-8.6c-0.4-3-0.9-5.9-1.4-8.9c-0.4-1.8-0.4-3.2,1.1-4.6
					c0.7-0.9,1.6-1.6,2.5-2.5c2-2,4.8-3.9,6.3-6.4c2.5-4.3-0.2-9.7-5-10.7c-2.7-0.5-5.5-0.9-8.2-1.3c-1.3-0.2-2.9-0.4-3.9-1.1
					c-1.1-0.9-1.6-2.3-2.1-3.4c-1.3-2.5-2.3-5-3.6-7.5c-2.5-4.5-8.8-5.4-12-1.3c-1.8,2.1-2.9,5.4-4.1,7.9c-0.5,0.9-0.9,2-1.4,2.9
					c-1.1,1.8-2.5,2.1-4.3,2.3c-3,0.4-6.1,0.7-9.1,1.3C7,21.2,3.9,25.7,5.4,30c0.9,2.9,3.9,5,5.9,7c2.1,2,4.8,3.9,4.3,7.1
					c-0.5,3-1.1,6.3-1.6,9.3c-0.7,4.3,1.4,8.6,6.1,9.1c3.2,0.4,6.3-1.8,8.9-3.2c2.5-1.3,5.5-3.6,8.4-2.1c2.7,1.3,5.4,2.9,8,4.3
					c1.4,0.7,2.7,1.3,4.3,1.4C51.5,62.7,51.5,59.8,49.5,59.6z"/>
			</g>
		</g>
		
			<rect x="26.6" y="8.6" transform="matrix(1.036672e-02 -0.9999 0.9999 1.036672e-02 7.623205e-02 69.9101)" class="st2" width="17.5" height="52.7"/>
		<text transform="matrix(1.037 1.075488e-02 -1.037044e-02 0.9999 22.2088 42.8247)" class="st3 st4">11</text>
	</g>
</g>
<g>
	<g>
		<g>
			<path class="st6" d="M49.5,61.1c-0.9,0-1.8-0.2-2.7-0.7l-9.3-5c-0.7-0.4-1.6-0.7-2.5-0.7c-0.9,0-1.8,0.2-2.5,0.5L23.2,60
				c-0.9,0.4-1.8,0.7-2.7,0.7c-1.6,0-3.2-0.7-4.3-2.1c-1.1-1.3-1.4-3-1.3-4.6l2-10.4c0.4-1.8-0.2-3.6-1.4-4.8L8,31.2
				c-1.6-1.6-2.1-3.8-1.4-5.9c0.7-2.1,2.5-3.6,4.6-3.9L21.6,20c1.8-0.2,3.2-1.3,4.1-2.9l4.8-9.5c1.1-2,3-3.2,5.2-3.2
				s4.1,1.3,5.2,3.2l4.6,9.5c0.7,1.6,2.3,2.7,3.9,3l10.4,1.6c2.1,0.4,3.9,1.8,4.6,3.9c0.7,2.1,0,4.3-1.4,5.9l-7.7,7.3
				c-1.3,1.3-1.8,3-1.6,4.6l1.6,10.4c0.4,1.6-0.2,3.4-1.3,4.6C52.9,60.3,51.3,61.1,49.5,61.1L49.5,61.1z"/>
			<path d="M49.5,59.6c-2.7-0.2-5.7-2.5-8-3.8c-2.5-1.4-5-3-8-2.3c-2.5,0.5-4.8,2.3-7,3.4c-2.9,1.4-7,4.3-9.3,0.5
				c-1.6-2.5,0-6.8,0.5-9.5c0.5-2.7,1.4-5.5,0.2-8.2c-1.1-2.3-3.6-4.1-5.4-5.9C10.4,31.9,7,29.4,8,26c1.3-3.2,5.5-3,8.4-3.4
				c2.5-0.4,5.5-0.4,7.9-1.4c2.5-1.4,3.6-4.3,4.6-6.8c1.1-2.1,2.1-5.9,4.5-7.3c6.3-3.9,8.9,9.3,11.4,12.5c2,2.5,4.8,2.7,7.7,3
				c2.5,0.4,5.2,0.5,7.5,1.3c3.2,0.9,4.1,4.8,1.8,7.3c-0.7,0.9-1.6,1.6-2.5,2.5c-2.1,2-5.2,4.1-6.4,6.6c-1.4,2.9-0.2,6.6,0.4,9.7
				C53.6,53.4,55.4,59.6,49.5,59.6c-2,0-2,2.9,0,2.9c4.6,0,7.7-4.3,7.1-8.6c-0.4-3-0.9-5.9-1.4-8.9c-0.4-1.8-0.4-3.2,1.1-4.6
				c0.7-0.9,1.6-1.6,2.5-2.5c2-2,4.8-3.9,6.3-6.4c2.5-4.3-0.2-9.7-5-10.7c-2.7-0.5-5.5-0.9-8.2-1.3c-1.3-0.2-2.9-0.4-3.9-1.1
				c-1.1-0.9-1.6-2.3-2.1-3.4c-1.3-2.5-2.3-5-3.6-7.5c-2.5-4.5-8.8-5.4-12-1.3c-1.8,2.1-2.9,5.4-4.1,7.9c-0.5,0.9-0.9,2-1.4,2.9
				c-1.1,1.8-2.5,2.1-4.3,2.3c-3,0.4-6.1,0.7-9.1,1.3C7,21.2,3.9,25.7,5.4,30c0.9,2.9,3.9,5,5.9,7c2.1,2,4.8,3.9,4.3,7.1
				c-0.5,3-1.1,6.3-1.6,9.3c-0.7,4.3,1.4,8.6,6.1,9.1c3.2,0.4,6.3-1.8,8.9-3.2c2.5-1.3,5.5-3.6,8.4-2.1c2.7,1.3,5.4,2.9,8,4.3
				c1.4,0.7,2.7,1.3,4.3,1.4C51.5,62.7,51.5,59.8,49.5,59.6z"/>
		</g>
		
			<rect x="26.6" y="8.6" transform="matrix(1.036672e-02 -0.9999 0.9999 1.036672e-02 7.623205e-02 69.9101)" class="st2" width="17.5" height="52.7"/>
		<text transform="matrix(1.037 1.075488e-02 -1.037044e-02 0.9999 22.2088 42.8247)" class="st3 st4">11</text>
	</g>
</g>
</svg>
