<svg xmlns="http://www.w3.org/2000/svg" viewBox="0 0 44 43" xmlns:v="https://vecta.io/nano"><path d="M24.1 2.8C12 1.3 1.9 11.5 3.4 23.5c1 8.2 7.7 14.9 15.9 15.9A18.46 18.46 0 0 0 40 18.7c-1.1-8.2-7.7-14.8-15.9-15.9z" fill="#fff" stroke="#fff" stroke-width="5" stroke-linejoin="round" stroke-miterlimit="10"/><path d="M21.7 39.6h0c-10.2 0-18.4-8.3-18.4-18.4C3.3 11 11.6 2.8 21.7 2.8s18.4 8.3 18.4 18.4-8.2 18.4-18.4 18.4" fill="#e63947"/><path d="M21.7 11l-4.2.1c-1.1 0-1.8.2-2.5.5s-1.2.6-1.8 1.2-.9 1.1-1.2 1.8c-.2.6-.4 1.4-.5 2.5l-.1 4.2.1 4.2c.1 1.1.2 1.8.5 2.5s.6 1.2 1.2 1.8 1.1.9 1.8 1.2c.6.2 1.4.4 2.5.5s1.4.1 4.2.1l4.2-.1c1.1 0 1.8-.2 2.5-.5s1.2-.6 1.8-1.2.9-1.1 1.2-1.8c.2-.6.4-1.4.5-2.5l.1-4.2-.1-4.2c-.1-1.1-.2-1.8-.5-2.5s-.6-1.2-1.2-1.8-1.1-.9-1.8-1.2c-.6-.3-1.4-.4-2.5-.5s-1.5-.1-4.2-.1m0 1.8l4.1.1c1 0 1.5.2 1.9.3.5.2.8.4 1.2.8s.6.7.8 1.2c.1.4.3.9.3 1.9l.1 4.1-.1 4.1c0 1-.2 1.5-.3 1.9-.2.5-.4.8-.8 1.2s-.7.6-1.2.8c-.4.1-.9.3-1.9.3l-4.1.1c-2.7 0-3 0-4.1-.1-1 0-1.5-.2-1.9-.3-.5-.2-.8-.4-1.2-.8s-.6-.7-.8-1.2c-.1-.4-.3-.9-.3-1.9l-.1-4.1.1-4.1c0-1 .2-1.5.3-1.9.2-.5.4-.8.8-1.2s.7-.6 1.2-.8c.4-.1.9-.3 1.9-.3 1.1-.1 1.4-.1 4.1-.1m0 11.7a3.37 3.37 0 0 1-3.4-3.4 3.37 3.37 0 0 1 3.4-3.4 3.37 3.37 0 0 1 3.4 3.4 3.44 3.44 0 0 1-3.4 3.4m0-8.6c-2.9 0-5.2 2.3-5.2 5.2s2.3 5.2 5.2 5.2 5.2-2.3 5.2-5.2-2.3-5.2-5.2-5.2m6.6-.2c0 .7-.5 1.2-1.2 1.2s-1.2-.5-1.2-1.2.5-1.2 1.2-1.2 1.2.6 1.2 1.2" fill="#fff"/></svg>