<svg xmlns="http://www.w3.org/2000/svg" viewBox="0 0 44 44" xmlns:v="https://vecta.io/nano"><circle cx="22" cy="22" r="21" fill="#fff"/><path d="M22 43.3C10.3 43.3.7 33.7.7 22S10.3.7 22 .7 43.3 10.3 43.3 22 33.7 43.3 22 43.3zm0-42C10.6 1.3 1.3 10.6 1.3 22S10.6 42.7 22 42.7 42.7 33.4 42.7 22 33.4 1.3 22 1.3zM13.5 32l4.6-1.2.6-.3 14-14c.5-.5.5-1.2 0-1.7l-3.3-3.3c-.5-.5-1.2-.5-1.7 0l-14 13.8c-.2.2-.3.4-.4.7L12 30.7c-.1.8.6 1.5 1.5 1.3z"/><path d="M26 15.4L16 25.6c-.2.3-.3.7 0 .9l1.7 1.8c.3.3.7.3 1 0l10.1-10c.3-.3.3-.7 0-.9l-1.9-2c-.2-.2-.7-.2-.9 0z" fill="#fff"/></svg>