<?xml version="1.0" encoding="utf-8"?>
<!-- Generator: Adobe Illustrator 24.2.0, SVG Export Plug-In . SVG Version: 6.00 Build 0)  -->
<svg version="1.1" id="Layer_1" xmlns="http://www.w3.org/2000/svg" xmlns:xlink="http://www.w3.org/1999/xlink" x="0px" y="0px"
	 viewBox="0 0 431 190" style="enable-background:new 0 0 431 190;" xml:space="preserve">
<style type="text/css">
	.st0{fill:#F7BFC2;}
	.st1{clip-path:url(#SVGID_2_);}
	.st2{fill:#4287C7;}
	.st3{fill:#1D1D1B;}
	.st4{fill:#E4252E;}
	.st5{fill:#0065AF;}
	.st6{fill:#FFFFFF;}
	.st7{fill:#C4E3E6;}
	.st8{fill:#F7C402;}
	.st9{fill:#E1262F;}
	.st10{fill:#7DC4CA;}
</style>
<g>
	<g>
		<path class="st0" d="M406.6,181.5H24.4c-9.6,0-17.4-7.8-17.4-17.4V25.9c0-9.6,7.8-17.4,17.4-17.4h382.2c9.6,0,17.4,7.8,17.4,17.4
			v138.2C424,173.7,416.2,181.5,406.6,181.5z"/>
		<g>
			<path d="M406.6,180c-6.8,0-13.5,0-20.3,0c-17.4,0-34.8,0-52.2,0c-23.9,0-47.8,0-71.8,0c-26.4,0-52.9,0-79.3,0
				c-24.7,0-49.5,0-74.2,0c-18.9,0-37.8,0-56.7,0c-9,0-18,0-27,0c-9.3,0-16.6-6.9-16.7-16.4c0-5.9,0-11.8,0-17.6c0-24.5,0-49,0-73.5
				c0-15.5-0.2-31.1,0-46.6c0.1-8.8,7.1-15.8,15.9-15.9c0.5,0,1,0,1.5,0c3.5,0,6.9,0,10.4,0c15.3,0,30.5,0,45.8,0
				c22.7,0,45.4,0,68.2,0c26.1,0,52.3,0,78.4,0c25.5,0,50.9,0,76.4,0c20.8,0,41.6,0,62.4,0c11.8,0,23.5,0,35.3,0
				c4.1,0,8-0.1,11.8,2.1c5.2,3,8,8.4,8,14.3c0,2,0,4.1,0,6.1c0,21.9,0,43.9,0,65.8c0,20.7,0,41.4,0,62c0,1.2,0,2.5,0,3.7
				C422.4,172.9,415.4,179.9,406.6,180c-1.9,0-1.9,3,0,3c9-0.1,17.1-6.6,18.6-15.6c0.3-2,0.3-4,0.3-6.1c0-7.8,0-15.7,0-23.5
				c0-25.5,0-51,0-76.5c0-9.4,0-18.8,0-28.2c0-2.2,0-4.4,0-6.6c0-5.3-1.8-10.4-5.7-14.2C415.3,8,409.7,7,403.7,7
				c-4.2,0-8.4,0-12.7,0c-16.5,0-33,0-49.5,0c-23.7,0-47.4,0-71.1,0c-26.7,0-53.4,0-80.1,0c-25.3,0-50.5,0-75.8,0
				C94.8,7,75,7,55.3,7c-9.9,0-19.7,0-29.6,0c-0.8,0-1.6,0-2.4,0C14.4,7.6,7,14.4,5.7,23.2C5,28.1,5.5,33.4,5.5,38.3c0,24,0,48,0,72
				c0,17.7-0.1,35.5,0,53.2c0,10.8,8.3,19.4,19.2,19.5c2.6,0,5.3,0,7.9,0c14.2,0,28.3,0,42.5,0c22.3,0,44.6,0,66.9,0
				c26.4,0,52.8,0,79.2,0c26,0,51.9,0,77.9,0c21.5,0,43.1,0,64.6,0c12.7,0,25.3,0,38,0c1.7,0,3.3,0,5,0
				C408.5,183,408.5,180,406.6,180z"/>
		</g>
	</g>
	<g>
		<defs>
			<path id="SVGID_1_" d="M406.6,181.5H24.4c-9.6,0-17.4-7.8-17.4-17.4V25.9c0-9.6,7.8-17.4,17.4-17.4h382.2
				c9.6,0,17.4,7.8,17.4,17.4v138.2C424,173.7,416.2,181.5,406.6,181.5z"/>
		</defs>
		<clipPath id="SVGID_2_">
			<use xlink:href="#SVGID_1_"  style="overflow:visible;"/>
		</clipPath>
		<g class="st1">
			<g>
				<path class="st2" d="M159.6,105.5c-1-3.5-2.5-7.9-4-11.2c3.8-1.8,7.4-2.7,11.3-4.1c3-1,6.5-1.9,9.3-2.6c0,0,3,7,4.6,11.6"/>
				<g>
					<path d="M160.7,105.2c-1.1-3.9-2.5-7.7-4.1-11.4c-0.1,0.5-0.3,1-0.4,1.5c3.3-1.6,6.9-2.5,10.3-3.7c3.3-1.1,6.6-2,10-2.8
						c-0.4-0.2-0.8-0.3-1.3-0.5c1.6,3.7,3.2,7.5,4.5,11.4c0.5,1.4,2.7,0.8,2.2-0.6c-1.4-4-3.1-8-4.7-11.9c-0.2-0.5-0.8-0.6-1.3-0.5
						c-3.5,0.9-7,1.8-10.4,3c-3.5,1.2-7.1,2.2-10.4,3.8c-0.6,0.3-0.6,1-0.4,1.5c1.5,3.5,2.8,7.2,3.8,10.9
						C158.9,107.2,161.1,106.6,160.7,105.2L160.7,105.2z"/>
				</g>
			</g>
			<g>
				<path class="st2" d="M206.4,93.2c-1-3.5-2.5-7.9-4-11.2c3.8-1.8,7.4-2.7,11.3-4.1c3-1,6.5-1.9,9.3-2.6c0,0,3,7,4.6,11.6"/>
				<g>
					<path d="M207.5,92.9c-1.1-3.9-2.5-7.7-4.1-11.4c-0.1,0.5-0.3,1-0.4,1.5c3.3-1.6,6.9-2.5,10.3-3.7c3.3-1.1,6.6-2,10-2.8
						c-0.4-0.2-0.8-0.3-1.3-0.5c1.6,3.7,3.2,7.5,4.5,11.4c0.5,1.4,2.7,0.8,2.2-0.6c-1.4-4-3.1-8-4.7-11.9c-0.2-0.5-0.8-0.6-1.3-0.5
						c-3.5,0.9-7,1.8-10.4,3c-3.5,1.2-7.1,2.2-10.4,3.8c-0.6,0.3-0.6,1-0.4,1.5c1.5,3.5,2.8,7.2,3.8,10.9
						C205.8,94.9,207.9,94.3,207.5,92.9L207.5,92.9z"/>
				</g>
			</g>
			<g>
				<g>
					<path class="st3" d="M192.4,96.4c-4.5-8.9-8.9-17.9-12.1-27.3c-1.6-4.6-2.9-9.3-1.6-14.1c0.6-2.3,1.5-4.5,2.6-6.6
						c0.9-1.9,2.1-3.1,3.8-4.3c2.1-1.5,4.8-1.6,7.3-1.9c2.7-0.3,5.3-0.4,7.9,0.5c1.8,0.7,2.6-2.2,0.8-2.9c-2.5-0.9-5.2-1-7.9-0.7
						c-2.4,0.3-5.1,0.4-7.4,1.2c-1.9,0.7-4,2.1-5.4,3.7c-1.6,1.7-2.5,4.2-3.3,6.3c-1,2.4-1.7,4.8-2,7.4c-0.3,2.7,0.2,5.5,0.9,8.1
						c1.4,5.2,3.5,10.3,5.6,15.3c2.5,5.7,5.3,11.3,8.1,16.9C190.6,99.6,193.2,98.1,192.4,96.4L192.4,96.4z"/>
				</g>
			</g>
			<g>
				<g>
					<path class="st4" d="M201.7,94.5c-4.1-6.9-8.4-13.9-11.5-21.4c-1.5-3.5-3.2-7.4-3-11.3c0.2-3.7,2.6-7.5,4.7-10.5
						c0.5-0.7,1.2-0.8,2-1c0.9-0.2,1.7-0.4,2.4-0.8c1.8-0.9,3.8-0.2,5.7-0.4c1.9-0.2,1.9-3.2,0-3c-1.9,0.2-3.8-0.4-5.7,0.1
						c-0.9,0.2-1.6,0.8-2.5,1c-0.8,0.2-1.6,0.3-2.4,0.6c-1.8,0.7-2.8,2.7-3.8,4.3c-1.1,1.8-2.1,3.7-2.9,5.7
						c-1.5,4.3-0.6,8.5,0.9,12.6c1.5,4.2,3.4,8.2,5.5,12.2c2.4,4.5,5,9,7.7,13.4C200.1,97.6,202.7,96.1,201.7,94.5L201.7,94.5z"/>
				</g>
			</g>
			<g>
				<g>
					<path class="st4" d="M260.9,51.4c6.1,9.5,10.8,19.8,13.9,30.6c3.2,11,4.5,22.1,4.7,33.4c0.2,12,0.2,23.9,0.8,35.9
						c0.4,8.4,1.1,16.9,3.4,25c2.2,7.5,6,14.1,11.2,19.8c1.3,1.4,3.4-0.7,2.1-2.1c-4.5-4.9-8-10.7-10-17.1c-2.5-7.8-3.2-16-3.7-24
						c-0.6-11.7-0.6-23.5-0.8-35.2c-0.1-5.8-0.2-11.5-0.9-17.2c-0.7-5.5-1.7-10.9-3.1-16.3c-3.2-12.1-8.3-23.7-15-34.3
						C262.5,48.3,259.9,49.8,260.9,51.4L260.9,51.4z"/>
				</g>
			</g>
			<g>
				<g>
					<path class="st3" d="M331.2,188.5c-1.1-1.2-2.7-1.8-4.2-2.3c-2-0.7-4-1.3-5.9-2.1c-2.3-0.9-4.9-2.2-7.2-3.7
						c-3-2-5.7-4.4-8.1-7.1c-7.7-8.7-12.1-20.1-15.3-31.1c-2.2-7.6-3.8-15.5-4.6-23.4c-0.4-4-0.6-8-0.6-12c0.1-4,0.5-8,0.8-12.1
						c1.3-16.7,1.9-33.6-1.6-50.1c-0.4-2.1-0.9-4.2-1.5-6.2c-0.5-1.9-3.4-1.1-2.9,0.8c4.4,16.5,4.5,33.4,3.3,50.3
						c-0.6,8.2-1.5,16.4-1,24.6c0.5,8,1.7,15.9,3.7,23.7c3.1,12.2,7.4,24.6,15.1,34.7c4.3,5.7,9.8,10.4,16.4,13.3
						c2.2,1,4.5,1.8,6.8,2.6c0.9,0.3,1.7,0.6,2.6,0.9c0.4,0.2-0.1-0.1,0.2,0.1c0.2,0.1,0.3,0.2,0.5,0.2c0.3,0.2,0.6,0.3,0.9,0.5
						c0.4,0.2-0.1-0.1,0.1,0.1c0.1,0.1,0.2,0.2,0.3,0.3C330.4,192,332.5,189.9,331.2,188.5L331.2,188.5z"/>
				</g>
			</g>
			<g>
				<path class="st5" d="M269,187.1c-7.5-24.1-23.5-72.3-31-96.4c-0.5-1.7-1.2-3.6-2.8-4.4c-1.1-0.6-2.4-0.8-3.6-0.5
					c-26.3,6.8-51.6,13.4-79.6,20.9c7.9,26.1,17.6,59.8,25,85.9"/>
				<g>
					<path d="M270.4,186.7c-6.7-21.6-13.8-43-20.8-64.5c-3.3-10.1-6.6-20.2-9.7-30.4c-0.8-2.6-1.6-5.7-4.3-7
						c-3.2-1.5-7,0.3-10.2,1.1c-7.4,1.9-14.9,3.9-22.3,5.8c-17.2,4.5-34.3,9-51.4,13.6c-0.8,0.2-1.3,1.1-1,1.8
						c6.8,22.5,13.3,45.1,19.8,67.7c1.7,6.1,3.5,12.1,5.2,18.2c0.5,1.9,3.4,1.1,2.9-0.8c-6.4-22.6-12.9-45.2-19.5-67.7
						c-1.8-6.1-3.6-12.1-5.4-18.2c-0.3,0.6-0.7,1.2-1,1.8c15-4.1,30.1-8.1,45.2-12c7.1-1.9,14.3-3.7,21.4-5.6
						c3.6-0.9,7.2-1.9,10.7-2.8c1.6-0.4,3.5-1.2,5-0.1c1.2,0.8,1.5,2.5,1.9,3.8c6.6,21.1,13.5,42,20.3,63
						c3.5,10.9,7.1,21.9,10.5,32.9C268.1,189.3,271,188.5,270.4,186.7L270.4,186.7z"/>
				</g>
			</g>
			<g>
				<g>
					<path class="st6" d="M179.2,125.7c4.4-1.3,8.8-2.5,13.2-3.8c1.9-0.5,1.1-3.4-0.8-2.9c-4.4,1.3-8.8,2.5-13.2,3.8
						C176.6,123.3,177.4,126.2,179.2,125.7L179.2,125.7z"/>
				</g>
			</g>
			<g>
				<g>
					<path class="st6" d="M212.6,107.5c1.3,4.7,2.8,9.3,4,14c0.5,1.9,3.4,1.1,2.9-0.8c-1.2-4.7-2.7-9.3-4-14
						C214.9,104.8,212,105.6,212.6,107.5L212.6,107.5z"/>
				</g>
			</g>
			<g>
				<g>
					<path class="st6" d="M209.1,117.4c5.3-1.6,10.7-2.8,15.8-5c0.7-0.3,0.9-1.4,0.5-2.1c-0.5-0.8-1.3-0.9-2.1-0.5
						c0.3-0.1-0.2,0.1-0.2,0.1c-0.1,0-0.2,0.1-0.4,0.1c-0.3,0.1-0.6,0.2-0.9,0.3c-0.6,0.2-1.2,0.4-1.8,0.6c-1.5,0.5-2.9,0.9-4.4,1.4
						c-2.5,0.7-5,1.4-7.4,2.2C206.5,115.1,207.2,118,209.1,117.4L209.1,117.4z"/>
				</g>
			</g>
			<g>
				<path class="st3" d="M202.8,54.4c-0.6-6.1-1.3-12.3-1.9-18.4c-0.1-0.5-0.1-1.1,0.3-1.5c0.3-0.3,0.8-0.4,1.2-0.4
					c9.4-0.7,18.9-1.1,28.4-1.2c0.4,0,0.7,0,1,0.2c0.4,0.3,0.5,0.9,0.5,1.4c0.4,6.7,0.7,13.3,1.1,20c-4.7,0.2-9.1-0.3-12.9-0.5
					C214.9,53.8,208.3,53.6,202.8,54.4z"/>
				<g>
					<path class="st3" d="M203.6,54.4c-0.5-4.4-0.9-8.9-1.4-13.3c-0.1-1.1-0.2-2.3-0.3-3.4c-0.1-0.8-0.6-2.4,0.3-2.8
						c0.9-0.3,2.2-0.2,3.2-0.3c1.2-0.1,2.5-0.2,3.7-0.2c4.6-0.3,9.1-0.5,13.7-0.6c2.3-0.1,4.6-0.1,7-0.1c0.5,0,1.4-0.1,1.7,0.4
						c0.2,0.3,0.1,1.3,0.1,1.6c0.1,1.1,0.1,2.3,0.2,3.4c0.3,5.1,0.5,10.2,0.8,15.3c0.2-0.2,0.5-0.5,0.8-0.8
						c-5.1,0.2-10.2-0.4-15.3-0.6c-5.1-0.2-10.2-0.2-15.3,0.5c-0.9,0.1-1,1.6,0,1.5c5.1-0.7,10.2-0.6,15.3-0.5
						c5.1,0.2,10.2,0.8,15.3,0.6c0.4,0,0.8-0.3,0.8-0.8c-0.3-5.2-0.5-10.4-0.8-15.6c-0.1-1.3-0.1-2.6-0.2-3.9c0-0.7,0-1.6-0.5-2.2
						c-0.6-0.7-1.4-0.6-2.3-0.6c-1.4,0-2.8,0-4.2,0c-5.3,0.1-10.6,0.3-15.9,0.6c-2.6,0.2-5.3,0.2-7.9,0.5c-2,0.2-2.2,1.6-2,3.4
						c0.6,5.9,1.2,11.8,1.8,17.7C202.2,55.3,203.7,55.3,203.6,54.4z"/>
				</g>
			</g>
			<g>
				<g>
					<path class="st3" d="M219.4,31.4c-0.7-1.5-1.3-2.9-2-4.4c-0.3-0.7-0.6-1.4-0.9-2.1c-0.3-0.6-0.5-1.3-1-1.8
						c-0.5-0.4-1.1-0.6-1.7-0.6c-0.8,0-1.6,0.1-2.3,0.1c-1.6,0.1-3.2,0.2-4.8,0.3c-1,0.1-1,1.6,0,1.5c1.4-0.1,2.8-0.2,4.2-0.2
						c0.7,0,1.4-0.1,2.1-0.1c0.6,0,1.3-0.2,1.6,0.4c0.7,1.2,1.2,2.5,1.7,3.7c0.6,1.3,1.2,2.6,1.8,3.9
						C218.5,33.1,219.8,32.3,219.4,31.4L219.4,31.4z"/>
				</g>
			</g>
			<g>
				<g>
					<path class="st3" d="M219,54.7c-0.5,1.3-0.9,2.6-1.4,3.9c-0.2,0.6-0.4,1.2-0.7,1.9c-0.2,0.5-0.3,1.2-0.7,1.6
						c-0.3,0.4-0.7,0.5-1.2,0.5c-0.6,0-1.3-0.1-1.9-0.1c-1.4-0.1-2.8-0.1-4.1-0.2c-1,0-1,1.5,0,1.5c1.5,0.1,3,0.1,4.6,0.2
						c1.2,0.1,2.8,0.3,3.7-0.8c0.4-0.5,0.6-1.1,0.8-1.6c0.3-0.7,0.5-1.4,0.8-2.1c0.5-1.5,1-2.9,1.6-4.4
						C220.8,54.2,219.4,53.8,219,54.7L219,54.7z"/>
				</g>
			</g>
			<g>
				<g>
					<path class="st6" d="M219.9,48.2c2-0.1,4-0.1,6-0.2c0.6,0,1.2-0.5,1.1-1.1c0-0.6-0.5-1.1-1.1-1.1c-2,0.1-4,0.1-6,0.2
						c-0.6,0-1.2,0.5-1.1,1.1C218.8,47.7,219.3,48.2,219.9,48.2L219.9,48.2z"/>
				</g>
			</g>
			<g>
				<g>
					<path class="st6" d="M220.5,39.4c0.1,0,0.2,0,0.3-0.1c0.1,0,0.2,0,0.2,0c-0.1,0-0.1,0,0,0c0.2,0,0.5-0.1,0.7-0.1
						c0.5,0,1-0.1,1.5-0.1c0.5,0,0.9,0,1.4,0c0.2,0,0.5,0,0.7,0.1c0.1,0,0.3,0,0.4,0c0,0,0.4,0.1,0.2,0c0.6,0.1,1.2-0.1,1.4-0.8
						c0.1-0.5-0.2-1.3-0.8-1.4c-2.2-0.3-4.4-0.3-6.6,0.1c-0.6,0.1-1,0.8-0.8,1.4C219.3,39.3,219.9,39.5,220.5,39.4L220.5,39.4z"/>
				</g>
			</g>
			<g>
				<path class="st7" d="M293.4,110.7c-0.3,2.6-9.4,5-15.2,5.6c-1,0.1-2.2,0.1-2.8-0.7c-0.9-1.1-1.1-3.3-0.1-4.4
					c2.1-2.3,5.9-3.5,8.9-4.1s7.7-3.6,8.8,2.1C293.1,109.9,293.9,110.4,293.4,110.7"/>
				<g>
					<path d="M292.3,110.4c-0.1,0.4-0.1,0.3-0.3,0.6c-0.3,0.3-0.8,0.6-1.2,0.8c-1.2,0.7-2.5,1.1-3.8,1.5c-2.9,0.9-6.2,1.7-9.3,1.9
						c-0.7,0-1.4,0-1.7-0.7c-0.3-0.6-0.4-1.3-0.2-1.9c0.4-1.4,2.4-2.3,3.6-2.8c1.5-0.7,3.2-1.1,4.8-1.5c1.1-0.2,2.2-0.6,3.2-0.9
						c0.9-0.3,2.1-0.7,3-0.3c0.5,0.2,0.8,0.7,1,1.2c0.2,0.4,0.2,0.8,0.3,1.2c0.1,0.2,0.1,0.4,0.2,0.6
						C292.2,110.3,292.3,110.4,292.3,110.4c0.2,0.4,0.3,0.3,0.3-0.5c-0.9,1.1,0.6,2.7,1.6,1.6c0.8-1,0.3-1.6-0.1-2.5
						c-0.3-0.9-0.4-1.8-1-2.6c-0.9-1.2-2.3-1.8-3.8-1.7c-1.5,0.1-2.8,0.6-4.2,1.1c-1.8,0.5-3.6,0.8-5.3,1.4c-1.9,0.7-4,1.7-5.4,3.4
						c-1.2,1.5-1.1,3.9-0.1,5.4c1.3,1.9,3.7,1.5,5.6,1.2c1.9-0.3,3.8-0.6,5.7-1.1c2-0.5,4.1-1.2,6-2.1c1.2-0.6,2.7-1.5,2.9-2.9
						C294.7,109.6,292.5,109,292.3,110.4L292.3,110.4z"/>
				</g>
			</g>
			<g>
				<path class="st7" d="M281.7,105.6c-1,0.3-5.5,2.4-6.5,2.3c-1.1-0.1-2.7-1.9-3.1-2.9c-0.6-1.6-0.2-3.8,1.1-4.9
					c2.2-1.7,6.8-3.3,9.5-3.8s5.9-0.4,6.7,2.4c0.2,0.9,1.3,1.3,1.3,2.2c0,1.4-1.5,2.2-2.7,2.7C285.9,104.5,283.8,105.4,281.7,105.6"
					/>
				<g>
					<path d="M281.4,104.6c-2,0.5-3.8,1.7-5.9,2.2c-0.3,0.1-0.2,0.1-0.3,0c0.1,0-0.4-0.2-0.5-0.3c-0.5-0.4-1.1-0.9-1.4-1.5
						c-0.7-1.1-0.6-2.8,0.3-3.8c0.9-1,2.4-1.6,3.6-2.1c1.5-0.6,3.1-1.1,4.7-1.5c1.3-0.3,2.6-0.6,4-0.4c0.6,0.1,1.1,0.2,1.6,0.5
						c0.6,0.4,0.7,1,1,1.5c0.2,0.4,0.4,0.7,0.7,1c0.1,0.1,0.4,0.4,0.4,0.6c0.1,0.7-1.2,1.3-1.7,1.5c-1.9,0.9-4,1.8-6.2,2.1
						c-0.6,0.1-1.1,0.5-1.1,1.1c0,0.5,0.5,1.2,1.1,1.1c2.5-0.3,4.8-1.2,7.1-2.3c1.6-0.7,3.5-2.3,2.9-4.3c-0.3-0.8-1-1.3-1.3-2
						c-0.3-0.8-0.8-1.6-1.5-2.1c-1.4-1.1-3.3-1.2-5.1-1c-1.9,0.2-3.8,0.7-5.6,1.4c-1.8,0.6-3.7,1.4-5.3,2.5
						c-1.6,1.1-2.4,2.9-2.3,4.9c0.1,1.9,1.3,3.5,2.9,4.6c1.4,1,2.7,0.6,4.2,0c1.4-0.5,2.8-1.3,4.3-1.7
						C283.4,106.4,282.8,104.2,281.4,104.6L281.4,104.6z"/>
				</g>
			</g>
			<g>
				<path class="st3" d="M255.7,48.7c1.2-1.7,2.9-3.1,4.8-4c0.2-0.1,0.4-0.2,0.7-0.1c0.1,0.1,0.2,0.2,0.3,0.3
					c2.5,2.8,4.9,5.8,7.1,8.9c0.3,0.4,0.5,0.8,0.4,1.2c-0.1,0.3-0.3,0.4-0.5,0.6c-1.1,0.8-2.2,1.5-3.3,2.2c-0.3,0.2-0.7,0.4-1.1,0.4
					c-0.6,0-1-0.6-1.4-1.1c-2.1-3-4.2-5.9-6.3-8.9c0.1-0.1,0.3-0.2,0.4-0.2"/>
				<g>
					<path class="st3" d="M257,49.4c0.6-0.8,1.2-1.5,2-2.1c0.3-0.3,0.7-0.5,1.1-0.8c0.3-0.2,0.8-0.5,1-0.5c-0.3-0.1-0.5-0.1-0.8-0.2
						c-0.1-0.1-0.1-0.1,0,0c0.1,0.1,0.2,0.3,0.3,0.4c0.2,0.2,0.4,0.4,0.6,0.7c0.4,0.5,0.8,1,1.2,1.4c0.8,0.9,1.5,1.8,2.2,2.8
						c0.7,0.9,1.4,1.8,2,2.7c0.2,0.2,0.3,0.6,0.6,0.8c0.1,0.3,0.2,0.3,0.2-0.1c0.1-0.4,0.1-0.4-0.1-0.2c-0.5,0.2-0.9,0.7-1.4,1
						c-0.5,0.3-1,0.7-1.6,1c-0.2,0.1-0.3,0.2-0.5,0.3c0.3-0.1,0.2,0.2,0-0.1c-0.2-0.4-0.6-0.9-0.9-1.3c-0.4-0.5-0.7-1-1.1-1.5
						c-1.5-2.1-3-4.2-4.5-6.3c-0.1,0.6-0.2,1.2-0.2,1.8c-0.1,0.1-0.1,0.1-0.2,0.2c0.8-0.1,1.2-1.1,1-1.8c-0.2-0.9-1-1.2-1.8-1
						c-0.4,0.1-0.8,0.3-1.1,0.6c-0.5,0.4-0.6,1.3-0.2,1.8c1.8,2.6,3.6,5.1,5.5,7.7c0.8,1.1,1.6,2.7,3.1,2.9c1.5,0.3,3.1-1,4.3-1.8
						c1.3-0.9,3-1.8,2.6-3.7c-0.2-0.8-0.7-1.4-1.1-2c-0.4-0.6-0.9-1.2-1.3-1.8c-0.9-1.2-1.9-2.4-2.8-3.6c-0.9-1.1-1.7-2.3-2.8-3.2
						c-1.4-1.2-3.4,0.1-4.6,1c-1.3,0.9-2.3,2-3.3,3.3c-0.5,0.7-0.1,1.7,0.5,2.1C255.7,50.4,256.5,50.1,257,49.4L257,49.4z"/>
				</g>
			</g>
			<g>
				<path class="st3" d="M274.9,32.1c1.3,4.5,3,9,5,13.2c2.6-0.8,3.9-1.2,6.5-2.1c0.1,0,0.3-0.1,0.4-0.2c0.1-0.2,0-0.4-0.1-0.6
					c-2-3.9-2.6-8.2-4.5-12.1c-0.3-0.7-0.7-1.4-1.2-2c-0.1-0.1-0.2-0.2-0.3-0.2c-0.1,0-0.3,0-0.4,0.1c-1.8,1.1-3.5,2.1-5.3,3.2
					C274.9,31.6,274.6,32,274.9,32.1"/>
				<g>
					<path class="st3" d="M273.5,32.5c1.3,4.7,3.1,9.2,5.2,13.5c0.3,0.6,1.1,0.9,1.7,0.7c1.4-0.4,2.7-0.9,4.1-1.3
						c1.3-0.4,3.6-0.7,3.9-2.2c0.2-0.9-0.3-1.6-0.7-2.4c-0.3-0.7-0.6-1.5-0.9-2.2c-0.5-1.5-1-3-1.5-4.5c-0.5-1.5-1.1-3.1-1.8-4.5
						c-0.6-1.3-1.5-3.3-3.3-2.9c-0.8,0.2-1.6,0.9-2.3,1.3c-0.8,0.5-1.6,0.9-2.3,1.4c-0.7,0.4-1.6,0.8-2,1.5
						c-0.5,0.8-0.3,1.6,0.2,2.3c0.5,0.6,1.6,0.5,2.1,0c0.6-0.6,0.5-1.5,0-2.1c0,0-0.1-0.1-0.1-0.1c0.1,0.4,0.3,0.7,0.4,1.1
						c0-0.1,0-0.1,0-0.2c-0.1,0.3-0.1,0.5-0.2,0.8c-0.2,0.1-0.2,0.1,0,0c0.1-0.1,0.2-0.1,0.3-0.2c0.2-0.1,0.5-0.3,0.7-0.4
						c0.5-0.3,1-0.6,1.5-0.9c0.9-0.6,1.8-1.2,2.8-1.7c-0.3,0.1-0.5,0.1-0.8,0.2c0.1,0,0.1,0,0.2,0c-0.3-0.1-0.5-0.1-0.8-0.2
						c-0.2-0.2-0.1-0.1,0.1,0.1c0.1,0.1,0.2,0.2,0.2,0.4c0.1,0.2,0.3,0.5,0.4,0.8c0.3,0.6,0.6,1.1,0.8,1.7c0.5,1.2,0.9,2.4,1.3,3.6
						c0.4,1.2,0.8,2.5,1.2,3.7c0.2,0.6,0.4,1.2,0.7,1.7c0.2,0.6,0.7,1.2,0.8,1.8c0-0.3,0-0.5,0-0.8c0,0.1,0,0.1,0,0.2
						c0.1-0.2,0.3-0.4,0.4-0.7c-0.1,0.1-0.1,0.1-0.2,0.2c0.2-0.1,0.4-0.3,0.7-0.4c-2.2,0.9-4.5,1.4-6.8,2.2c0.6,0.2,1.1,0.5,1.7,0.7
						c-2-4.1-3.6-8.4-4.9-12.8C275.8,29.9,272.9,30.7,273.5,32.5L273.5,32.5z"/>
				</g>
			</g>
			<g>
				<g>
					<path class="st3" d="M258.5,43.6c-1.5-2.3-3-4.5-4.5-6.8c-0.4-0.7-1.3-1-2.1-0.5c-0.6,0.4-1,1.4-0.5,2.1c1.5,2.3,3,4.5,4.5,6.8
						c0.4,0.7,1.3,1,2.1,0.5C258.6,45.2,259,44.3,258.5,43.6L258.5,43.6z"/>
				</g>
			</g>
			<g>
				<g>
					<path class="st3" d="M278.8,29.4c-1.4-2.9-3-5.7-4.6-8.4c-0.4-0.7-1.4-1-2.1-0.5c-0.7,0.4-1,1.3-0.5,2.1
						c1.7,2.7,3.2,5.6,4.6,8.4c0.4,0.7,1.4,1,2.1,0.5C279,31,279.2,30.2,278.8,29.4L278.8,29.4z"/>
				</g>
			</g>
			<g>
				<g>
					<path d="M256.5,140.6c9.2-6,16.6-14.5,21.1-24.5c0.8-1.7-1.8-3.3-2.6-1.5c-4.3,9.5-11.3,17.7-20.1,23.4
						C253.4,139.1,254.9,141.7,256.5,140.6L256.5,140.6z"/>
				</g>
			</g>
			<g>
				<g>
					<path class="st6" d="M162.7,125.8c1.7,0.9,3.6,1.3,5.6,1.2c0.4,0,0.8-0.3,0.8-0.8c0-0.4-0.3-0.8-0.8-0.8c-1.7,0-3.3-0.3-4.8-1
						c-0.4-0.2-0.8-0.1-1,0.3C162.3,125.1,162.4,125.6,162.7,125.8L162.7,125.8z"/>
				</g>
			</g>
			<g>
				<g>
					<path class="st6" d="M163.6,120.8c1.4,0.8,3,1.5,4.5,2c0.4,0.1,0.8-0.1,0.9-0.5c0.1-0.4-0.1-0.8-0.5-0.9
						c-1.5-0.5-2.8-1-4.2-1.9c-0.3-0.2-0.8-0.1-1,0.3C163.2,120.2,163.3,120.6,163.6,120.8L163.6,120.8z"/>
				</g>
			</g>
			<g>
				<g>
					<path class="st6" d="M230.7,106.2c1-1.3,1.8-2.7,2.4-4.2c0.2-0.4,0.1-0.8-0.3-1c-0.3-0.2-0.9-0.1-1,0.3
						c-0.6,1.5-1.5,2.9-2.4,4.2c-0.2,0.3-0.1,0.9,0.3,1C230,106.6,230.4,106.5,230.7,106.2L230.7,106.2z"/>
				</g>
			</g>
			<g>
				<g>
					<path class="st6" d="M233.1,108.3c0.2-0.2,0.5-0.4,0.7-0.6c0.1-0.1-0.1,0.1,0,0c0,0,0.1,0,0.1-0.1c0.1,0,0.1-0.1,0.2-0.1
						c0.1-0.1,0.3-0.2,0.4-0.3c0.3-0.2,0.5-0.3,0.8-0.4c0,0,0.1,0,0.1,0c0.1,0-0.1,0,0,0c0.1,0,0.2-0.1,0.2-0.1
						c0.2-0.1,0.3-0.1,0.5-0.2c0.4-0.1,0.7-0.5,0.5-0.9c-0.1-0.4-0.5-0.6-0.9-0.5c-1.4,0.4-2.7,1.2-3.7,2.2c-0.3,0.3-0.3,0.8,0,1.1
						C232.3,108.6,232.8,108.6,233.1,108.3L233.1,108.3z"/>
				</g>
			</g>
			<g>
				<path class="st6" d="M191.6,137.6c4.7,2.3,10.2,2.9,15.4,1.8c5.1-1.1,9.9-4,13.3-8c0.9,2.9,1.3,6,1.3,9c0,2.7-0.5,5.4-2,7.7
					c-2.1,3.3-6.2,5-10.1,4.8c-3.9-0.2-7.6-2.1-10.5-4.7s-5.1-5.9-7-9.4"/>
				<g>
					<path class="st6" d="M191,138.6c10.3,4.8,22.6,2.3,30-6.3c-0.6-0.2-1.3-0.3-1.9-0.5c1.2,4.1,1.9,8.8,0.7,13
						c-1.1,3.8-4.2,6.3-8.1,7c-8.7,1.4-15.1-6.6-18.8-13.4c-0.7-1.3-2.6-0.1-1.9,1.1c3.5,6.4,8.6,12.9,16.2,14.3
						c6.8,1.3,13.7-2.4,15.1-9.5c0.9-4.3,0.4-9-0.9-13.2c-0.2-0.8-1.3-1.2-1.9-0.5c-6.7,7.8-17.9,10.4-27.3,6
						C190.8,136,189.7,138,191,138.6L191,138.6z"/>
				</g>
			</g>
		</g>
	</g>
	<g>
		<g>
			<path class="st8" d="M147.9,45.6c2.3,5.7,4.2,11.5,5.7,17.5c0.2,0.8,0.4,1.8,0,2.5c-0.3,0.6-0.9,1-1.5,1.3
				c-6,3.4-12,6.6-18.1,9.8c-2.3-4-4.6-7.9-6.8-11.9c-4.2,5.4-8.6,10.7-13.2,15.7c0.3-10.8,4.1-21.1,7.9-31.2
				c4.1,3.3,8.5,6.4,13,9.2c2.4-6.6,5.3-13.1,8.4-19.3c1.8,1.4,3.3,3.2,4.2,5.3"/>
			<g>
				<path d="M146.4,46c1.3,3.2,2.5,6.5,3.5,9.8c0.5,1.6,1,3.3,1.5,5c0.3,1,1.4,3.5,0.6,4.4c-0.5,0.5-1.4,0.8-2,1.2
					c-0.8,0.4-1.6,0.9-2.4,1.3c-1.6,0.9-3.2,1.7-4.7,2.6c-3.2,1.8-6.5,3.5-9.8,5.2c0.7,0.2,1.4,0.4,2.1,0.5c-2.3-4-4.6-7.9-6.8-11.9
					c-0.6-1.1-1.9-0.9-2.6,0c-4.1,5.3-8.5,10.5-13,15.4c0.9,0.4,1.7,0.7,2.6,1.1c0.4-10.7,4.1-20.9,7.8-30.8
					c-0.8,0.2-1.7,0.4-2.5,0.7c4.3,3.4,8.7,6.6,13.3,9.4c0.9,0.5,1.9,0,2.2-0.9c2.4-6.5,5.2-12.8,8.3-19c-0.7,0.2-1.4,0.4-2.1,0.5
					c1.6,1.3,2.8,2.9,3.7,4.8c0.8,1.8,3.4,0.2,2.6-1.5c-1.1-2.4-2.7-4.3-4.8-5.9c-0.6-0.5-1.7-0.1-2.1,0.5c-3.2,6.4-6.1,13-8.6,19.7
					c0.7-0.3,1.5-0.6,2.2-0.9c-4.4-2.7-8.7-5.7-12.7-9c-0.9-0.7-2.1-0.5-2.5,0.7c-3.8,10.2-7.5,20.6-7.9,31.6c0,1.3,1.7,2,2.6,1.1
					c4.7-5.2,9.2-10.5,13.5-16c-0.9,0-1.7,0-2.6,0c2.3,4,4.6,7.9,6.8,11.9c0.4,0.7,1.3,0.9,2.1,0.5c3.6-1.9,7.2-3.8,10.8-5.8
					c1.7-0.9,3.4-1.9,5.2-2.8c1.4-0.8,3.3-1.5,4.1-2.9c0.9-1.5,0.4-3.2,0-4.7c-0.5-1.8-1-3.6-1.5-5.4c-1.1-3.8-2.5-7.5-3.9-11.1
					C148.6,43.4,145.7,44.2,146.4,46L146.4,46z"/>
			</g>
		</g>
		<g>
			<path class="st8" d="M114.1,33.1c-2,6.7-3.8,13.5-5.3,20.3c-3.7-2.1-7.1-4.5-10.4-7.2c-1.6,6-3.1,12-4.7,18
				c-1.8-4.6-2.6-9.6-3.3-14.5c-0.9-5.8-1.8-11.5-2.7-17.3c4.2,0.6,8.4,1.7,12.3,3.5c-0.2-4.2-0.4-8.3-0.6-12.5
				c5.5,2.2,10.7,5.5,15,9.7"/>
			<g>
				<path d="M112.7,32.7c-2,6.7-3.8,13.5-5.3,20.3c0.7-0.3,1.5-0.6,2.2-0.9c-3.5-2.1-6.9-4.4-10.1-7c-0.8-0.7-2.2-0.5-2.5,0.7
					c-1.6,6-3.1,12-4.7,18c1,0,1.9,0,2.9,0c-1.9-5-2.7-10.2-3.5-15.5c-0.8-5.5-1.7-10.9-2.5-16.4c-0.6,0.6-1.2,1.2-1.8,1.8
					c4.1,0.6,8.2,1.7,12,3.3c1,0.4,2.3,0,2.3-1.3c-0.2-4.2-0.4-8.3-0.6-12.5c-0.6,0.5-1.3,1-1.9,1.4c5.3,2.2,10.2,5.3,14.3,9.3
					c1.4,1.3,3.5-0.8,2.1-2.1c-4.5-4.3-9.8-7.7-15.6-10.1C99,21.7,98,22.6,98,23.5c0.2,4.2,0.4,8.3,0.6,12.5
					c0.8-0.4,1.5-0.9,2.3-1.3c-4.1-1.8-8.3-3-12.7-3.6c-1.2-0.2-2,0.6-1.8,1.8c0.8,5.5,1.7,10.9,2.5,16.4c0.8,5.2,1.6,10.5,3.5,15.5
					c0.5,1.3,2.5,1.5,2.9,0c1.6-6,3.1-12,4.7-18c-0.8,0.2-1.7,0.4-2.5,0.7c3.4,2.8,6.9,5.3,10.7,7.4c0.8,0.5,2,0.1,2.2-0.9
					c1.5-6.8,3.3-13.6,5.3-20.3C116.1,31.7,113.2,30.9,112.7,32.7L112.7,32.7z"/>
			</g>
		</g>
	</g>
	<g>
		<g>
			<path d="M406.6,180c-6.8,0-13.5,0-20.3,0c-17.4,0-34.8,0-52.2,0c-23.9,0-47.8,0-71.8,0c-26.4,0-52.9,0-79.3,0
				c-24.7,0-49.5,0-74.2,0c-18.9,0-37.8,0-56.7,0c-9,0-18,0-27,0c-9.3,0-16.6-6.9-16.7-16.4c0-5.9,0-11.8,0-17.6c0-24.5,0-49,0-73.5
				c0-15.5-0.2-31.1,0-46.6c0.1-8.8,7.1-15.8,15.9-15.9c0.5,0,1,0,1.5,0c3.5,0,6.9,0,10.4,0c15.3,0,30.5,0,45.8,0
				c22.7,0,45.4,0,68.2,0c26.1,0,52.3,0,78.4,0c25.5,0,50.9,0,76.4,0c20.8,0,41.6,0,62.4,0c11.8,0,23.5,0,35.3,0
				c4.1,0,8-0.1,11.8,2.1c5.2,3,8,8.4,8,14.3c0,2,0,4.1,0,6.1c0,21.9,0,43.9,0,65.8c0,20.7,0,41.4,0,62c0,1.2,0,2.5,0,3.7
				C422.4,172.9,415.4,179.9,406.6,180c-1.9,0-1.9,3,0,3c9-0.1,17.1-6.6,18.6-15.6c0.3-2,0.3-4,0.3-6.1c0-7.8,0-15.7,0-23.5
				c0-25.5,0-51,0-76.5c0-9.4,0-18.8,0-28.2c0-2.2,0-4.4,0-6.6c0-5.3-1.8-10.4-5.7-14.2C415.3,8,409.7,7,403.7,7
				c-4.2,0-8.4,0-12.7,0c-16.5,0-33,0-49.5,0c-23.7,0-47.4,0-71.1,0c-26.7,0-53.4,0-80.1,0c-25.3,0-50.5,0-75.8,0
				C94.8,7,75,7,55.3,7c-9.9,0-19.7,0-29.6,0c-0.8,0-1.6,0-2.4,0C14.4,7.6,7,14.4,5.7,23.2C5,28.1,5.5,33.4,5.5,38.3c0,24,0,48,0,72
				c0,17.7-0.1,35.5,0,53.2c0,10.8,8.3,19.4,19.2,19.5c2.6,0,5.3,0,7.9,0c14.2,0,28.3,0,42.5,0c22.3,0,44.6,0,66.9,0
				c26.4,0,52.8,0,79.2,0c26,0,51.9,0,77.9,0c21.5,0,43.1,0,64.6,0c12.7,0,25.3,0,38,0c1.7,0,3.3,0,5,0
				C408.5,183,408.5,180,406.6,180z"/>
		</g>
	</g>
	<g>
		<g>
			<path class="st9" d="M354.4,93.4c-3.8-0.8-14-1.6-16.8-5.5c0,0,1.6-6.7,1.9-8.8c0.5-3.4,8.9-1.2,11-0.7c2-13.4,5.5-59,28.3-48.2
				c24.8,11.7,2.5,41.8-8.6,55.9c2.2,0.8,10.3,3.8,9.5,6.2c-0.7,1.9-2.9,4-4.5,7.9C373.4,104.6,361.1,94,354.4,93.4z"/>
			<g>
				<path d="M354.8,92c-2.8-0.6-5.6-0.9-8.3-1.5c-2.4-0.5-6-1.2-7.6-3.3c0.1,0.4,0.1,0.8,0.2,1.2c0.3-1.4,0.7-2.8,1-4.2
					c0.2-1,0.4-2,0.6-3c0.1-0.5,0.2-1.7,0.3-1.9c0.6-0.9,3.3-0.5,4.3-0.4c1.6,0.2,3.2,0.6,4.8,1c0.7,0.2,1.7-0.2,1.8-1
					c1-7,1.8-14,3.2-21c1.5-7.7,3.5-16.1,8.2-22.6c1.8-2.4,4.1-4.3,6.9-5c3.5-0.8,7.4,0.7,10.4,2.6c3.9,2.4,6.7,5.9,7.6,10.5
					c0.9,4.5-0.2,9.1-1.7,13.3c-3.4,9.5-9.5,18-15.6,25.9c-0.6,0.8-1.2,1.6-1.9,2.4c-0.7,0.9-0.5,2.1,0.7,2.5
					c2.5,0.9,5.1,1.9,7.3,3.4c0.4,0.3,0.7,0.6,1,0.9c0.1,0.1,0.2,0.4,0.1,0.1c0,0.1,0,0.1-0.2,0.4c-0.8,1.6-1.9,2.9-2.8,4.4
					c-0.5,0.9-0.9,1.8-1.4,2.7c-0.2,0.3,0.1,0-0.1,0.2c0,0,0.1,0,0,0c-0.2,0,0.1,0-0.3,0c-0.2,0-0.3,0-0.3,0
					c-0.6-0.1-1.1-0.3-1.6-0.5c-2.7-1-5.3-2.6-7.9-3.9c-2.9-1.5-5.9-3.1-9.2-3.4c-1.9-0.2-1.9,2.8,0,3c3.1,0.3,6.2,2.2,8.9,3.6
					c2.7,1.5,5.6,3.3,8.6,4c1.1,0.3,2.4,0.4,3.4-0.2c1.4-0.9,1.9-2.9,2.7-4.3c1-1.6,2.2-3.1,2.9-4.8c0.6-1.4,0.1-2.7-1-3.7
					c-2.4-2.4-6.2-3.7-9.4-4.8c0.2,0.8,0.4,1.7,0.7,2.5c6.4-8.2,12.8-16.8,16.9-26.4c3.8-8.9,5.7-20-2.1-27.5
					c-3.4-3.3-8.2-5.9-12.9-6.2c-3.5-0.2-6.8,1.1-9.4,3.4c-2.8,2.5-4.8,5.9-6.3,9.3c-1.8,4.1-3.1,8.3-4.1,12.6
					c-1.9,7.7-2.9,16.1-3.9,23.7c-0.1,0.7-0.2,1.3-0.3,2c0.6-0.3,1.2-0.7,1.8-1c-2.6-0.7-5.3-1.3-8-1.2c-1.3,0-2.8,0.2-3.9,1.2
					c-1,0.9-1.1,2-1.3,3.2c-0.5,2.5-1.3,4.9-1.7,7.4c-0.2,1.6,1.6,2.8,2.8,3.5c1.4,0.8,3,1.4,4.6,1.9c3.4,1,7,1.3,10.5,2
					C355.9,95.3,356.7,92.4,354.8,92z"/>
			</g>
		</g>
		<g>
			<g>
				<path d="M351.2,92.2c-2.5,6-5.3,11.8-8.5,17.5c-1.5,2.7-3.1,5.4-4.8,8.1c-1.5,2.4-3.2,4.8-5.5,6.5c-2.3,1.7-5.3,2.6-8.1,2
					c-2.5-0.5-5-1.9-7-3.5c-1.5-1.1-3.3-2.8-3.5-4.8c-0.1-0.9,0.4-1.7,0.8-2.4c0.7-1.1,1.4-2.2,2.4-3.1c2-2,5.2-1.7,7.5-0.3
					c0.7,0.4,1.7,1.1,2,1.9c0.4,0.9-0.1,2.1-1.2,2.1c-1.9,0-1.9,3,0,3c3.1,0,5-3.2,4-6c-0.9-2.5-3.8-4.2-6.3-4.8
					c-3.3-0.8-6.6,0.1-8.9,2.6c-1.8,2-3.8,4.7-3.4,7.5c0.4,2.9,2.7,5.2,4.9,6.9c2.6,2,5.9,3.7,9.2,4c3.6,0.4,7.2-0.9,9.9-3.2
					c2.9-2.4,4.8-5.6,6.8-8.8c4.8-7.8,8.9-15.9,12.4-24.3C354.8,91.2,351.9,90.4,351.2,92.2L351.2,92.2z"/>
			</g>
		</g>
		<g>
			<g>
				<path d="M360.4,97.1c-0.5,14.1-0.1,28.2,1.2,42.2c0.6,6.1,1.1,12.6,4.4,18c2.5,4.1,7.3,8.4,12.4,8.2c5.3-0.2,10.6-4.7,12.1-9.7
					c0.6-1.8-2.3-2.6-2.9-0.8c-1.1,3.7-5.4,7.4-9.4,7.5c-4.5,0.1-8.5-4.3-10.4-8c-2.7-5.2-3-11.4-3.5-17.1
					c-0.5-6.2-0.9-12.4-1.1-18.7c-0.2-7.2-0.2-14.4,0-21.6C363.4,95.1,360.4,95.1,360.4,97.1L360.4,97.1z"/>
			</g>
		</g>
		<g>
			<g>
				<path class="st6" d="M356.1,89.9c4.1-8.6,7.6-17.5,10.2-26.7c0.6-2.1,1.2-4.2,1.6-6.4c0.3-1.8,0.2-3.5-1.4-4.7
					c-1.4-1.1-3.1-0.7-4.4,0.4c-1.4,1.1-2,2.7-2.2,4.4c-0.5,3.7,1.8,6.7,4.8,8.5c2.6,1.5,6.4,2.4,9.3,1.4c3.2-1.1,6.2-5,4.9-8.5
					c-0.6-1.5-2-2.5-3.6-2.1c-1.9,0.5-3,2.3-3.8,4c-4.6,9.8-8.1,20.1-11,30.5c-0.4,1.4,1.8,2,2.2,0.6c2-7.2,4.3-14.3,7-21.3
					c0.7-1.7,1.4-3.4,2.1-5.2c0.7-1.6,1.3-3.4,2.3-4.9c0.7-1.2,2.5-2.6,2.8-0.4c0.2,1.7-1.1,3.5-2.5,4.4c-2,1.4-4.8,1-6.9,0.2
					c-2.5-0.9-5.1-2.9-5.5-5.7c-0.2-1.3,0.1-2.9,0.9-3.9c0.3-0.4,1-1.1,1.6-1.1c0.9,0.1,1.2,1.1,1.2,1.8c0,1.6-0.6,3.2-1,4.7
					c-0.5,1.9-1,3.8-1.6,5.6c-2.4,7.9-5.5,15.6-9.1,23C353.6,90,355.5,91.2,356.1,89.9L356.1,89.9z"/>
			</g>
		</g>
		<g>
			<g>
				<path class="st6" d="M364.3,45.5c0.6-1.1,1-2.2,1.5-3.3c0.1-0.3,0.2-0.5,0.3-0.8c0-0.1,0.2-0.4,0.1-0.1c0.1-0.1,0.1-0.3,0.2-0.4
					c0.2-0.5,0.5-1,0.8-1.5c0.1-0.2,0.3-0.4,0.4-0.6c-0.2,0.3,0,0,0.1-0.1c0.1-0.1,0.2-0.2,0.3-0.3c0.1-0.1,0.2-0.2,0.3-0.3
					c0,0,0.1-0.1,0.2-0.1c-0.1,0.1-0.1,0.1,0,0c0.3-0.2,0.5-0.3,0.8-0.5c-0.2,0.1,0.2-0.1,0.2-0.1c0.1,0,0.3-0.1,0.4-0.1
					c0.1,0,0.3-0.1,0.4-0.1c-0.3,0.1,0.2,0,0.2,0c0.3,0,0.6,0,0.9,0c-0.3,0,0.2,0,0.3,0.1c0.2,0,0.3,0.1,0.5,0.1
					c0.7,0.2,1.7-0.3,1.8-1c0.2-0.8-0.2-1.6-1-1.8c-1.5-0.5-3.1-0.4-4.6,0.1c-1.4,0.6-2.5,1.5-3.4,2.7c-0.8,1-1.2,2.2-1.7,3.4
					c-0.1,0.3-0.2,0.6-0.4,0.9c-0.1,0.1-0.1,0.3-0.2,0.4c0,0.1-0.2,0.5-0.1,0.2c-0.2,0.6-0.5,1.1-0.8,1.7c-0.4,0.7-0.2,1.7,0.5,2.1
					C362.9,46.4,363.8,46.3,364.3,45.5L364.3,45.5z"/>
			</g>
		</g>
		<g>
			<g>
				<path class="st6" d="M378.1,37.1c1.9,0,1.9-3,0-3C376.2,34.1,376.2,37.1,378.1,37.1L378.1,37.1z"/>
			</g>
		</g>
	</g>
	<g>
		<path class="st8" d="M307.1,26c-0.6,8.1-1.5,16.2-2.6,24.2c4.8-0.8,9.6-2,14.2-3.5c-0.8,7.1-1.6,14.3-2.4,21.4
			c3.9-4.3,6.7-9.3,9.6-14.3c3.3-5.9,6.7-11.8,10-17.6c-4.8-1.1-9.8-1.6-14.8-1.3c1.9-4.4,3.9-8.8,5.8-13.2
			c-6.9,0.1-13.8,1.6-20.2,4.3"/>
		<g>
			<path d="M305.6,26c-0.6,8-1.4,15.9-2.6,23.8c-0.2,1.2,0.6,2,1.8,1.8c4.8-0.8,9.6-2,14.2-3.5c-0.6-0.5-1.3-1-1.9-1.4
				c-0.8,7.1-1.6,14.3-2.4,21.4c-0.1,1.3,1.7,2,2.6,1.1c4-4.5,7-9.6,9.9-14.8c3.3-5.8,6.6-11.6,9.9-17.4c0.5-0.8,0.1-2-0.9-2.2
				c-5-1.1-10.1-1.6-15.2-1.3c0.4,0.8,0.9,1.5,1.3,2.3c1.9-4.4,3.9-8.8,5.8-13.2c0.4-1-0.1-2.3-1.3-2.3c-7.2,0.2-14.3,1.7-20.9,4.5
				c-0.8,0.3-0.9,1.4-0.5,2.1c0.4,0.8,1.3,0.9,2.1,0.5c6.1-2.6,12.8-4,19.4-4.1c-0.4-0.8-0.9-1.5-1.3-2.3c-1.9,4.4-3.9,8.8-5.8,13.2
				c-0.4,1,0,2.3,1.3,2.3c4.8-0.3,9.6,0.2,14.4,1.2c-0.3-0.7-0.6-1.5-0.9-2.2c-3.2,5.7-6.4,11.3-9.6,17c-2.9,5.1-5.8,10.3-9.7,14.7
				c0.9,0.4,1.7,0.7,2.6,1.1c0.8-7.1,1.6-14.3,2.4-21.4c0.1-0.9-1-1.7-1.9-1.4c-4.6,1.6-9.4,2.7-14.2,3.5c0.6,0.6,1.2,1.2,1.8,1.8
				c1.2-8.2,2.1-16.4,2.7-24.6C308.8,24,305.8,24.1,305.6,26L305.6,26z"/>
		</g>
	</g>
	<g>
		<g>
			<path class="st10" d="M66.5,113.2c-3.7,1.3-12.8,5.8-17.2,3.9c0,0-2.1-6.6-2.9-8.5c-1.4-3.2,7-5.6,9.1-6.3
				c-5.2-12.5-25.6-53.4-0.5-55.9C82.1,43.7,78.5,81,76.3,98.8c2.3-0.5,10.8-2,11.3,0.5c0.4,2-0.4,4.9,0.2,9.1
				C88.5,112.9,72.4,110.2,66.5,113.2z"/>
			<g>
				<path d="M66.1,111.7c-2.7,0.9-5.3,2.2-8,3.1c-2.6,0.8-5.8,1.9-8.4,0.9c0.3,0.3,0.7,0.7,1,1c-0.4-1.3-0.8-2.6-1.3-4
					c-0.3-1-0.7-2-1-3.1c-0.2-0.5-0.7-1.5-0.7-1.8c0,0,0.1-0.2,0.2-0.4c0.2-0.3,0.4-0.5,0.7-0.7c0.7-0.6,1.6-1,2.5-1.4
					c1.5-0.7,3.1-1.2,4.8-1.7c0.7-0.2,1.4-1.1,1-1.8c-3.1-7.5-6.5-14.8-9.1-22.5c-1.5-4.4-2.7-8.9-3.3-13.5
					c-0.5-3.8-0.6-7.8,0.8-11.4c1.2-3.2,3.8-5.2,7.1-6.1c4-1.1,8.9-0.9,12.7,0.9c7.4,3.6,9.9,12.4,10.7,20c1,8.9,0.3,18-0.7,26.8
					c-0.1,0.9-0.2,1.8-0.3,2.7c-0.1,1,1.1,1.6,1.9,1.4c2.5-0.5,5.2-1,7.8-0.8c0.5,0,1,0.1,1.6,0.2c-0.1,0,0.4,0.2,0.2,0.1
					c-0.1-0.1,0-0.1,0,0.3c0.1,1.7-0.1,3.5-0.1,5.3c0,1.1,0.2,2.1,0.2,3.2c0,0.4,0,0,0,0.2c0-0.1,0.2-0.2-0.1,0c0,0-0.5,0.3-0.6,0.3
					c-0.5,0.2-1.1,0.3-1.6,0.4c-2.8,0.5-5.8,0.5-8.6,0.6c-3.2,0.2-6.7,0.4-9.6,1.8c-1.7,0.8-0.2,3.4,1.5,2.6
					c2.8-1.3,6.3-1.3,9.3-1.5c3.1-0.2,6.5-0.1,9.5-1c1.1-0.3,2.2-0.9,2.9-1.9c0.9-1.4,0.2-3.4,0.2-4.9c0-2,0.4-4.2,0-6.1
					c-0.3-1.4-1.5-2.2-2.9-2.5c-3.3-0.7-7.1,0.1-10.4,0.7c0.6,0.5,1.3,1,1.9,1.4c1.1-9.1,2-18.2,1.2-27.4
					c-0.7-8.5-2.9-18.4-10.4-23.6c-3.9-2.6-8.7-3.4-13.3-3c-4.3,0.4-8.4,1.8-11.1,5.3c-2.4,3.1-3.1,7.2-3,11.1c0,4.7,1,9.5,2.3,14
					c2.4,8.8,6.2,17.2,9.8,25.6c0.3,0.7,0.5,1.2,0.8,1.8c0.3-0.6,0.7-1.2,1-1.8c-2.5,0.8-5.1,1.6-7.4,3c-1.1,0.7-2.4,1.7-2.8,3
					c-0.4,1.2,0,2.1,0.4,3.2c0.9,2.4,1.5,5,2.5,7.4c0.6,1.4,2.3,1.6,3.7,1.6c1.7,0.1,3.4-0.3,5-0.7c3.6-0.9,6.9-2.5,10.4-3.8
					C68.7,114,67.9,111.1,66.1,111.7z"/>
			</g>
		</g>
		<g>
			<g>
				<path d="M63.1,113.8c1.1,7.3,1.7,14.7,1.8,22.1c0,3.5,0.1,7-0.3,10.4c-0.3,3-1.3,5.9-3.4,8.1c-3.4,3.4-9.4,3.8-13.9,2.4
					c-1.6-0.5-3.3-1.3-3.5-3.1c-0.3-2-0.1-5,1.1-6.7c1.5-1.9,4-2.7,6.3-2.5c0.7,0.1,1.5,0.2,2,0.6c0.8,0.6,1,1.8,0.1,2.4
					c-1.6,1-0.1,3.6,1.5,2.6c2.7-1.7,2.7-5.5,0.2-7.4c-1.9-1.4-4.7-1.4-6.8-1c-2.9,0.6-5.6,2.5-6.6,5.3c-0.6,1.5-0.7,3.1-0.8,4.7
					c0,1.3,0,2.7,0.5,3.9c2.3,5.3,10.4,5.1,15.1,4.4c3.4-0.6,6.3-2.5,8.3-5.2c2.4-3.2,2.9-7.3,3.1-11.2c0.4-10.2-0.3-20.5-1.8-30.7
					C65.7,111.1,62.8,111.9,63.1,113.8L63.1,113.8z"/>
			</g>
		</g>
		<g>
			<g>
				<path d="M73.4,113.2c6.7,12.1,14.1,23.7,22.3,34.9c3.7,5,7.5,10.5,13.1,13.6c4.6,2.5,11.5,4,16,0.5c4-3.1,6-9.2,4.8-14.1
					c-0.5-1.9-3.4-1.1-2.9,0.8c0.9,3.6-0.7,8.5-3.6,10.9c-1.8,1.4-4.4,1.6-6.6,1.4c-2.7-0.3-5.3-1.4-7.5-2.9
					c-4.9-3.3-8.3-8.5-11.7-13.2c-3.6-5-7-10-10.3-15.2c-3.8-5.9-7.4-12-10.8-18.2C75.1,110,72.5,111.5,73.4,113.2L73.4,113.2z"/>
			</g>
		</g>
		<g>
			<g>
				<path class="st6" d="M66.1,109.2c-1-9.8-2.6-19.6-5.3-29.2c-0.9-3-1.8-9.2-6.2-8.6c-1.6,0.2-2.4,1.6-2.8,3
					c-0.4,1.6-0.1,3.2,0.6,4.7c2.9,6.2,12.5,5.8,16.9,1.4c2.3-2.3,3-6.7,1-9.4c-1-1.3-2.7-2.1-4.2-1.3c-1.7,0.9-2.1,2.9-2,4.7
					c0.1,2.6,0.6,5.3,1,7.9c0.4,2.8,0.9,5.6,1.4,8.4c1.1,5.7,2.4,11.3,4,16.8c0.4,1.4,2.6,0.8,2.2-0.6c-2.1-7.5-3.8-15.1-5.1-22.8
					c-0.3-2-0.6-3.9-0.9-5.9c-0.2-1.6-0.7-3.7-0.3-5.3c0.2-0.7,0.6-1.5,1.4-1.1c0.7,0.3,1,1.1,1.2,1.8c0.4,1.3,0.1,2.9-0.5,4.1
					c-1,2-3.6,3.1-5.7,3.5c-2.6,0.5-5.7,0.2-7.5-1.9c-0.8-1-1.5-2.4-1.4-3.7c0.1-1.1,0.8-2.6,2.1-1.8c1.1,0.7,1.4,2.6,1.8,3.8
					c0.6,2,1.2,4,1.7,6c2.2,8.4,3.6,16.9,4.4,25.5C64,110.7,66.2,110.7,66.1,109.2L66.1,109.2z"/>
			</g>
		</g>
		<g>
			<g>
				<path class="st6" d="M50.3,67c-0.1-2.4-0.9-4.8-0.7-7.2c0.1-1.9,1.4-3.3,3.2-3.8c0.8-0.2,1.3-1.1,1-1.8c-0.2-0.8-1.1-1.2-1.8-1
					c-2.6,0.6-4.7,2.8-5.2,5.4c-0.5,2.9,0.5,5.6,0.6,8.5C47.3,69,50.3,69,50.3,67L50.3,67z"/>
			</g>
		</g>
		<g>
			<g>
				<path class="st6" d="M57,52.9c1.9,0,1.9-3,0-3C55.1,49.9,55.1,52.9,57,52.9L57,52.9z"/>
			</g>
		</g>
	</g>
</g>
</svg>
