<?xml version="1.0" encoding="utf-8"?>
<!-- Generator: Adobe Illustrator 24.2.0, SVG Export Plug-In . SVG Version: 6.00 Build 0)  -->
<svg version="1.1" id="Layer_1" xmlns="http://www.w3.org/2000/svg" xmlns:xlink="http://www.w3.org/1999/xlink" x="0px" y="0px"
	 viewBox="0 0 186 181" style="enable-background:new 0 0 186 181;" xml:space="preserve">
<style type="text/css">
	.st0{fill:#D0D0D0;}
	.st1{fill:#AFAFAF;}
	.st2{fill:#FFFFFF;}
	.st3{fill:#BEBEBE;}
	.st4{clip-path:url(#SVGID_2_);}
	.st5{fill:#797979;}
	.st6{fill:#1D1D1B;}
	.st7{fill:#5F5F5F;}
	.st8{fill:#4F4F4F;}
	.st9{fill:#DADADA;}
</style>
<g>
	<g>
		<path class="st0" d="M182.8,90.5c0,47.8-40.2,86.6-89.8,86.6S3.2,138.3,3.2,90.5C3.2,42.7,43.4,3.9,93,3.9S182.8,42.7,182.8,90.5"
			/>
	</g>
	<g>
		<g>
			<path class="st1" d="M54.7,85.9c-3.8-0.8-14-1.6-16.8-5.5c0,0,1.6-6.7,1.9-8.8c0.5-3.4,8.9-1.2,11-0.7c2-13.4,5.5-59,28.3-48.2
				c24.8,11.7,2.5,41.8-8.6,55.9c2.2,0.8,10.3,3.8,9.5,6.2c-0.7,1.9-2.9,4-4.5,7.9C73.7,97.1,61.4,86.5,54.7,85.9z"/>
			<g>
				<path d="M55.1,84.5c-2.8-0.6-5.6-0.9-8.3-1.5c-2.4-0.5-6-1.2-7.6-3.3c0.1,0.4,0.1,0.8,0.2,1.2c0.3-1.4,0.7-2.8,1-4.2
					c0.2-1,0.4-2,0.6-3c0.1-0.5,0.2-1.7,0.3-1.9c0.6-0.9,3.3-0.5,4.3-0.4c1.6,0.2,3.2,0.6,4.8,1c0.7,0.2,1.7-0.2,1.8-1
					c1-7,1.8-14,3.2-21c1.5-7.7,3.5-16.1,8.2-22.6c1.8-2.4,4.1-4.3,6.9-5c3.5-0.8,7.4,0.7,10.4,2.6c3.9,2.4,6.7,5.9,7.6,10.5
					c0.9,4.5-0.2,9.1-1.7,13.3c-3.4,9.5-9.5,18-15.6,25.9c-0.6,0.8-1.2,1.6-1.9,2.4c-0.7,0.9-0.5,2.1,0.7,2.5
					c2.5,0.9,5.1,1.9,7.3,3.4c0.4,0.3,0.7,0.6,1,0.9c0.1,0.1,0.2,0.4,0.1,0.1c0,0.1,0,0.1-0.2,0.4c-0.8,1.6-1.9,2.9-2.8,4.4
					c-0.5,0.9-0.9,1.8-1.4,2.7c-0.2,0.3,0.1,0-0.1,0.2c0,0,0.1,0,0,0c-0.2,0,0.1,0-0.3,0c-0.2,0-0.3,0-0.3,0
					c-0.6-0.1-1.1-0.3-1.6-0.5c-2.7-1-5.3-2.6-7.9-3.9c-2.9-1.5-5.9-3.1-9.2-3.4c-1.9-0.2-1.9,2.8,0,3c3.1,0.3,6.2,2.2,8.9,3.6
					c2.7,1.5,5.6,3.3,8.6,4c1.1,0.3,2.4,0.4,3.4-0.2c1.4-0.9,1.9-2.9,2.7-4.3c1-1.6,2.2-3.1,2.9-4.8c0.6-1.4,0.1-2.7-1-3.7
					c-2.4-2.4-6.2-3.7-9.4-4.8c0.2,0.8,0.4,1.7,0.7,2.5c6.4-8.2,12.8-16.8,16.9-26.4c3.8-8.9,5.7-20-2.1-27.5
					c-3.4-3.3-8.2-5.9-12.9-6.2c-3.5-0.2-6.8,1.1-9.4,3.4c-2.8,2.5-4.8,5.9-6.3,9.3c-1.8,4.1-3.1,8.3-4.1,12.6
					c-1.9,7.7-2.9,16.1-3.9,23.7c-0.1,0.7-0.2,1.3-0.3,2c0.6-0.3,1.2-0.7,1.8-1c-2.6-0.7-5.3-1.3-8-1.2c-1.3,0-2.8,0.2-3.9,1.2
					c-1,0.9-1.1,2-1.3,3.2c-0.5,2.5-1.3,4.9-1.7,7.4c-0.2,1.6,1.6,2.8,2.8,3.5c1.4,0.8,3,1.4,4.6,1.9c3.4,1,7,1.3,10.5,2
					C56.2,87.8,57,84.9,55.1,84.5z"/>
			</g>
		</g>
		<g>
			<g>
				<path d="M51.5,84.7c-2.5,6-5.3,11.8-8.5,17.5c-1.5,2.7-3.1,5.4-4.8,8.1c-1.5,2.4-3.2,4.8-5.5,6.5c-2.3,1.7-5.3,2.6-8.1,2
					c-2.5-0.5-5-1.9-7-3.5c-1.5-1.1-3.3-2.8-3.5-4.8c-0.1-0.9,0.4-1.7,0.8-2.4c0.7-1.1,1.4-2.2,2.4-3.1c2-2,5.2-1.7,7.5-0.3
					c0.7,0.4,1.7,1.1,2,1.9c0.4,0.9-0.1,2.1-1.2,2.1c-1.9,0-1.9,3,0,3c3.1,0,5-3.2,4-6c-0.9-2.5-3.8-4.2-6.3-4.8
					c-3.3-0.8-6.6,0.1-8.9,2.6c-1.8,2-3.8,4.7-3.4,7.5c0.4,2.9,2.7,5.2,4.9,6.9c2.6,2,5.9,3.7,9.2,4c3.6,0.4,7.2-0.9,9.9-3.2
					c2.9-2.4,4.8-5.6,6.8-8.8c4.8-7.8,8.9-15.9,12.4-24.3C55.1,83.7,52.2,82.9,51.5,84.7L51.5,84.7z"/>
			</g>
		</g>
		<g>
			<g>
				<path d="M60.7,89.6c-0.5,14.1-0.1,28.2,1.2,42.2c0.6,6.1,1.1,12.6,4.4,18c2.5,4.1,7.3,8.4,12.4,8.2c5.3-0.2,10.6-4.7,12.1-9.7
					c0.6-1.8-2.3-2.6-2.9-0.8c-1.1,3.7-5.4,7.4-9.4,7.5c-4.5,0.1-8.5-4.3-10.4-8c-2.7-5.2-3-11.4-3.5-17.1
					c-0.5-6.2-0.9-12.4-1.1-18.7c-0.2-7.2-0.2-14.4,0-21.6C63.7,87.6,60.7,87.6,60.7,89.6L60.7,89.6z"/>
			</g>
		</g>
		<g>
			<g>
				<path class="st2" d="M56.4,82.4c4.1-8.6,7.6-17.5,10.2-26.7c0.6-2.1,1.2-4.2,1.6-6.4c0.3-1.8,0.2-3.5-1.4-4.7
					c-1.4-1.1-3.1-0.7-4.4,0.4c-1.4,1.1-2,2.7-2.2,4.4C59.7,53,62,56,65.1,57.8c2.6,1.5,6.4,2.4,9.3,1.4c3.2-1.1,6.2-5,4.9-8.5
					c-0.6-1.5-2-2.5-3.6-2.1c-1.9,0.5-3,2.3-3.8,4c-4.6,9.8-8.1,20.1-11,30.5c-0.4,1.4,1.8,2,2.2,0.6c2-7.2,4.3-14.3,7-21.3
					c0.7-1.7,1.4-3.4,2.1-5.2c0.7-1.6,1.3-3.4,2.3-4.9c0.7-1.2,2.5-2.6,2.8-0.4c0.2,1.7-1.1,3.5-2.5,4.4c-2,1.4-4.8,1-6.9,0.2
					c-2.5-0.9-5.1-2.9-5.5-5.7c-0.2-1.3,0.1-2.9,0.9-3.9c0.3-0.4,1-1.1,1.6-1.1c0.9,0.1,1.2,1.1,1.2,1.8c0,1.6-0.6,3.2-1,4.7
					c-0.5,1.9-1,3.8-1.6,5.6c-2.4,7.9-5.5,15.6-9.1,23C53.9,82.5,55.8,83.7,56.4,82.4L56.4,82.4z"/>
			</g>
		</g>
		<g>
			<g>
				<path class="st2" d="M64.6,38c0.6-1.1,1-2.2,1.5-3.3c0.1-0.3,0.2-0.5,0.3-0.8c0-0.1,0.2-0.4,0.1-0.1c0.1-0.1,0.1-0.3,0.2-0.4
					c0.2-0.5,0.5-1,0.8-1.5c0.1-0.2,0.3-0.4,0.4-0.6c-0.2,0.3,0,0,0.1-0.1c0.1-0.1,0.2-0.2,0.3-0.3c0.1-0.1,0.2-0.2,0.3-0.3
					c0,0,0.1-0.1,0.2-0.1c-0.1,0.1-0.1,0.1,0,0c0.3-0.2,0.5-0.3,0.8-0.5c-0.2,0.1,0.2-0.1,0.2-0.1c0.1,0,0.3-0.1,0.4-0.1
					c0.1,0,0.3-0.1,0.4-0.1c-0.3,0.1,0.2,0,0.2,0c0.3,0,0.6,0,0.9,0c-0.3,0,0.2,0,0.3,0.1c0.2,0,0.3,0.1,0.5,0.1
					c0.7,0.2,1.7-0.3,1.8-1c0.2-0.8-0.2-1.6-1-1.8c-1.5-0.5-3.1-0.4-4.6,0.1c-1.4,0.6-2.5,1.5-3.4,2.7c-0.8,1-1.2,2.2-1.7,3.4
					c-0.1,0.3-0.2,0.6-0.4,0.9c-0.1,0.1-0.1,0.3-0.2,0.4c0,0.1-0.2,0.5-0.1,0.2c-0.2,0.6-0.5,1.1-0.8,1.7c-0.4,0.7-0.2,1.7,0.5,2.1
					C63.2,38.9,64.1,38.8,64.6,38L64.6,38z"/>
			</g>
		</g>
		<g>
			<g>
				<path class="st2" d="M78.4,29.6c1.9,0,1.9-3,0-3C76.5,26.6,76.5,29.6,78.4,29.6L78.4,29.6z"/>
			</g>
		</g>
	</g>
	<g>
		<path class="st3" d="M102.6,18.1c-0.5,6.1-1.1,12.2-2,18.3c3.6-0.6,7.2-1.5,10.7-2.7c-0.6,5.4-1.2,10.8-1.8,16.2
			c2.9-3.2,5.1-7,7.2-10.8c2.5-4.4,5-8.9,7.6-13.3c-3.6-0.9-7.4-1.2-11.1-1c1.5-3.3,2.9-6.7,4.4-10c-5.2,0.1-10.4,1.2-15.2,3.3"/>
		<g>
			<path d="M101.1,18.1c-0.4,6-1.1,11.9-1.9,17.9c-0.2,1.2,0.6,2,1.8,1.8c3.6-0.6,7.2-1.5,10.7-2.7c-0.6-0.5-1.3-1-1.9-1.4
				c-0.6,5.4-1.2,10.8-1.8,16.2c-0.1,1.3,1.7,2,2.6,1.1c3-3.4,5.3-7.4,7.6-11.3c2.5-4.4,5-8.7,7.4-13.1c0.5-0.8,0.1-2-0.9-2.2
				c-3.8-0.9-7.7-1.2-11.5-1c0.4,0.8,0.9,1.5,1.3,2.3c1.5-3.3,2.9-6.7,4.4-10c0.4-1-0.1-2.3-1.3-2.3c-5.5,0.1-10.9,1.3-16,3.5
				c-0.8,0.3-0.9,1.4-0.5,2.1c0.4,0.8,1.3,0.9,2.1,0.5c4.6-1.9,9.5-3,14.5-3.1c-0.4-0.8-0.9-1.5-1.3-2.3c-1.5,3.3-2.9,6.7-4.4,10
				c-0.4,1,0,2.3,1.3,2.3c3.6-0.2,7.2,0.1,10.8,0.9c-0.3-0.7-0.6-1.5-0.9-2.2c-2.4,4.2-4.8,8.5-7.2,12.7c-2.2,3.9-4.4,7.8-7.4,11.2
				c0.9,0.4,1.7,0.7,2.6,1.1c0.6-5.4,1.2-10.8,1.8-16.2c0.1-0.9-1-1.7-1.9-1.4c-3.5,1.2-7.1,2.1-10.7,2.7c0.6,0.6,1.2,1.2,1.8,1.8
				c0.9-6.2,1.6-12.4,2-18.7C104.3,16.2,101.3,16.2,101.1,18.1L101.1,18.1z"/>
		</g>
	</g>
	<g>
		<defs>
			<path id="SVGID_1_" d="M182.8,90.5c0,47.8-40.2,86.6-89.8,86.6c-49.6,0-89.8-38.7-89.8-86.6C3.2,42.7,43.4,3.9,93,3.9
				S182.8,42.6,182.8,90.5"/>
		</defs>
		<clipPath id="SVGID_2_">
			<use xlink:href="#SVGID_1_"  style="overflow:visible;"/>
		</clipPath>
		<g class="st4">
			<g>
				<path class="st5" d="M91.2,122.8c-1.6-2-3.7-4.5-5.5-6.3c2-2.2,4.1-3.7,6.3-5.5c1.7-1.4,3.7-2.9,5.4-4.1c0,0,3.8,3.8,6,6.4"/>
				<g>
					<path d="M92.2,121.8c-1.7-2.2-3.5-4.3-5.5-6.3c0,0.7,0,1.4,0,2.1c1.7-1.9,3.7-3.4,5.7-5c1.8-1.5,3.7-3,5.7-4.4
						c-0.6-0.1-1.2-0.2-1.8-0.2c2.1,2.1,4.1,4.2,6,6.4c1.3,1.5,3.4-0.7,2.1-2.1c-1.9-2.2-4-4.3-6-6.4c-0.4-0.4-1.3-0.6-1.8-0.2
						c-2.1,1.5-4.1,3-6.1,4.6c-2,1.7-4.1,3.3-5.9,5.2c-0.6,0.6-0.6,1.5,0,2.1c1.9,2,3.8,4.1,5.5,6.3c0.5,0.6,1.6,0.5,2.1,0
						C92.8,123.2,92.7,122.4,92.2,121.8L92.2,121.8z"/>
				</g>
			</g>
			<g>
				<path class="st5" d="M118.5,102.8c-1.6-2-3.7-4.5-5.5-6.3c2-2.2,4.1-3.7,6.3-5.5c1.7-1.4,3.7-2.9,5.4-4.1c0,0,3.8,3.8,6,6.4"/>
				<g>
					<path d="M119.6,101.7c-1.7-2.2-3.5-4.3-5.5-6.3c0,0.7,0,1.4,0,2.1c1.7-1.9,3.7-3.4,5.7-5c1.8-1.5,3.7-3,5.7-4.4
						c-0.6-0.1-1.2-0.2-1.8-0.2c2.1,2.1,4.1,4.2,6,6.4c1.3,1.5,3.4-0.7,2.1-2.1c-1.9-2.2-4-4.3-6-6.4c-0.4-0.4-1.3-0.6-1.8-0.2
						c-2.1,1.5-4.1,3-6.1,4.6c-2,1.7-4.1,3.3-5.9,5.2c-0.6,0.6-0.6,1.5,0,2.1c1.9,2,3.8,4.1,5.5,6.3c0.5,0.6,1.6,0.5,2.1,0
						C120.2,103.2,120.1,102.3,119.6,101.7L119.6,101.7z"/>
				</g>
			</g>
			<g>
				<g>
					<path class="st6" d="M110.6,108.2c-3.3-2.9-6.5-5.9-9.6-9c-3-3-6.3-6.2-8.5-10c-1.1-1.9-1.5-3.9-1.6-6c-0.1-2-0.2-4.2,0.9-6
						c0.5-0.7,0.9-1.5,1.6-2c0.7-0.6,1.6-0.9,2.3-1.4c1.8-1,3.6-2,5.7-2c1.9-0.1,1.9-3.1,0-3c-1.8,0.1-3.4,0.5-5,1.3
						c-1.5,0.7-3.1,1.5-4.5,2.5c-1.3,1-2.3,2.3-3,3.7c-0.8,1.6-0.9,3.3-0.9,5.1c-0.1,4,0.6,7.6,2.9,10.8c2.3,3.2,5,6.1,7.8,8.9
						c3.2,3.2,6.5,6.1,9.8,9.1C109.9,111.7,112,109.5,110.6,108.2L110.6,108.2z"/>
				</g>
			</g>
			<g>
				<g>
					<path class="st7" d="M115.8,104.3c-5.6-4.3-11.6-8.7-15.9-14.3c-1.1-1.4-1.8-2.9-1.9-4.7c-0.1-1.9,0.2-3.8,0.6-5.6
						c0.2-0.8,0.3-0.9,0.9-1.3c0.5-0.4,1-0.7,1.5-1.2c0.9-1,2.5-1.1,3.7-1.8c1.7-0.9,0.2-3.5-1.5-2.6c-1.5,0.8-3,0.9-4.2,2.1
						C98,76,96.5,76.6,96,78.1c-0.7,1.9-0.9,4.3-0.9,6.3c0,2,0.4,4,1.4,5.7c2,3.4,5.2,6.4,8.2,9c3.1,2.8,6.4,5.3,9.7,7.8
						c0.6,0.5,1.7,0.1,2.1-0.5C116.8,105.6,116.5,104.8,115.8,104.3L115.8,104.3z"/>
				</g>
			</g>
			<g>
				<g>
					<path class="st7" d="M143.2,62c8.8,6.3,16.2,14.4,21.8,23.6c2.8,4.6,5.1,9.5,7,14.6c2.1,5.5,4,11.2,7.2,16.1
						c3.2,4.8,7.5,8.9,13.1,10.6c1.9,0.6,2.6-2.3,0.8-2.9c-11.1-3.3-14.9-15.8-18.6-25.5c-3.8-10-9.3-19.3-16.5-27.3
						c-4-4.5-8.5-8.4-13.4-11.9C143.2,58.3,141.7,60.9,143.2,62L143.2,62z"/>
				</g>
			</g>
			<g>
				<g>
					<path class="st6" d="M196,119c-4.9-2.4-9.6-5.5-12.7-10c-3-4.3-4.7-9.4-6.1-14.4c-1.6-5.4-3.1-10.7-5.1-16
						c-2-5.2-4.3-10.2-6.9-15.1c-3-5.7-6.5-11.1-10.3-16.3c-1.1-1.5-3.7,0-2.6,1.5C159.1,58,164.8,68.2,169,79
						c2,5.2,3.6,10.6,5.1,16c1.5,5.2,3.2,10.5,6.2,15c3.5,5.2,8.6,8.9,14.2,11.6C196.2,122.4,197.7,119.8,196,119L196,119z"/>
				</g>
			</g>
			<g>
				<path class="st8" d="M175.4,139.7c-11.1-13.8-25.8-32.9-36.9-46.7c-0.8-1-1.7-2-3-2.2c-0.9-0.1-1.8,0.1-2.5,0.6
					c-15.4,11.2-30.2,22-46.5,34.1c11.9,15,26.8,34.5,38.4,49.6"/>
				<g>
					<path d="M176.4,138.6c-9.7-12.1-19.3-24.4-28.9-36.6c-2.3-2.9-4.6-5.8-6.9-8.7c-1.1-1.3-2.1-2.9-3.8-3.6
						c-1.8-0.7-3.6-0.2-5.1,0.9c-7.1,5.1-14.2,10.3-21.2,15.5c-8.3,6-16.5,12.1-24.7,18.2c-0.8,0.6-0.9,1.5-0.3,2.4
						c10.1,12.8,20.2,25.8,30.1,38.8c2.7,3.5,5.4,7,8,10.5c1.2,1.5,3.8,0,2.6-1.5c-10-13.2-20.1-26.3-30.3-39.3
						c-2.8-3.5-5.5-7.1-8.3-10.6c-0.1,0.8-0.2,1.6-0.3,2.4c13.8-10.3,27.7-20.4,41.6-30.5c0.9-0.6,1.8-1.3,2.6-1.9
						c0.8-0.6,1.7-1.4,2.6-1.8c1.8-0.9,2.9,1,3.9,2.2c2.2,2.8,4.4,5.6,6.7,8.4c4.8,6,9.5,12.1,14.3,18.1c5.1,6.5,10.2,13,15.4,19.4
						C175.5,142.3,177.6,140.1,176.4,138.6L176.4,138.6z"/>
				</g>
			</g>
			<g>
				<g>
					<path class="st2" d="M109.2,131.4c2.5-1.9,5.1-3.9,7.6-5.8c0.3-0.2,0.6-0.5,0.7-0.9c0.1-0.4,0.1-0.8-0.2-1.2
						c-0.4-0.6-1.4-1-2.1-0.5c-2.5,1.9-5.1,3.9-7.6,5.8c-0.3,0.2-0.6,0.5-0.7,0.9c-0.1,0.4-0.1,0.8,0.2,1.2
						C107.6,131.5,108.6,131.9,109.2,131.4L109.2,131.4z"/>
				</g>
			</g>
			<g>
				<g>
					<path class="st2" d="M124.5,110.9c1.4,1.2,2.8,2.5,4,3.9c0.6,0.7,1.2,1.3,1.7,2c0.1,0.2,0.3,0.4,0.4,0.5c-0.2-0.2,0,0,0.1,0.1
						c0.1,0.1,0.1,0.2,0.2,0.3c0.3,0.4,0.6,0.9,0.9,1.3c0.5,0.6,1.3,1,2.1,0.5c0.6-0.4,1-1.4,0.5-2.1c-1.2-1.6-2.4-3.2-3.7-4.7
						c-1.3-1.4-2.7-2.7-4.1-4c-0.6-0.5-1.6-0.6-2.1,0C124,109.3,123.9,110.3,124.5,110.9L124.5,110.9z"/>
				</g>
			</g>
			<g>
				<g>
					<path class="st2" d="M126.9,118.1c0.1-0.1,0.3-0.2,0.4-0.3c0.1-0.1,0.3-0.2,0,0c0.1-0.1,0.2-0.1,0.2-0.2
						c0.4-0.3,0.7-0.6,1.1-0.8c0.9-0.7,1.8-1.4,2.6-2c1.5-1.2,3.1-2.4,4.5-3.8c0.6-0.6,0.6-1.6,0-2.1c-0.6-0.6-1.5-0.6-2.1,0
						c-1.4,1.4-2.9,2.6-4.5,3.8c-0.2,0.2-0.4,0.3-0.6,0.5c-0.1,0.1-0.2,0.2-0.3,0.3c0,0-0.4,0.3-0.1,0.1c-0.4,0.3-0.8,0.6-1.2,0.9
						c-0.7,0.5-1.4,1.1-2.1,1.6c-0.6,0.5-0.5,1.6,0,2.1C125.4,118.7,126.2,118.6,126.9,118.1L126.9,118.1z"/>
				</g>
			</g>
			<g>
				<path class="st6" d="M106.2,78.4c-2-3.8-4-7.7-6-11.5c-0.2-0.3-0.3-0.7-0.2-1.1c0.1-0.3,0.4-0.4,0.7-0.6c6-2.9,12-5.6,18.2-8
					c0.2-0.1,0.5-0.2,0.7-0.1c0.3,0.1,0.5,0.4,0.7,0.8c1.9,4.3,3.9,8.5,5.8,12.8c-3,1.4-6,2.1-8.6,3
					C113.9,74.9,109.6,76.5,106.2,78.4z"/>
				<g>
					<path class="st6" d="M106.8,78c-1.9-3.6-3.7-7.2-5.6-10.8c-0.2-0.4-0.6-0.8-0.3-1.2c0.2-0.3,1.1-0.5,1.4-0.7
						c0.9-0.4,1.8-0.8,2.6-1.2c1.8-0.8,3.5-1.6,5.3-2.4c1.9-0.8,3.7-1.6,5.6-2.4c0.9-0.4,1.8-0.9,2.7-1.1c0.8-0.2,0.8,0,1.2,0.6
						c0.3,0.4,0.4,0.9,0.6,1.3c1.7,3.7,3.3,7.3,5,11c0.1-0.3,0.2-0.7,0.3-1c-3.4,1.5-7,2.4-10.5,3.7c-3.2,1.2-6.4,2.4-9.4,4.1
						c-0.8,0.5-0.1,1.8,0.8,1.3c3.1-1.7,6.5-3,9.8-4.2c3.4-1.2,6.8-2.1,10.1-3.6c0.4-0.2,0.4-0.7,0.3-1c-1-2.2-2-4.4-3-6.6
						c-0.5-1.2-1.1-2.3-1.6-3.5c-0.4-1-0.8-2.1-1.4-3c-1.1-1.7-3.4-0.1-4.8,0.4c-2.1,0.9-4.1,1.7-6.2,2.6c-2.1,0.9-4.3,1.9-6.4,2.9
						c-1.1,0.5-2.4,0.9-3.3,1.6c-0.5,0.3-0.9,0.8-0.8,1.4c0,0.8,0.7,1.7,1,2.4c0.6,1.2,1.2,2.4,1.8,3.5c1.1,2.2,2.3,4.4,3.4,6.6
						C106,79.6,107.3,78.9,106.8,78z"/>
				</g>
			</g>
			<g>
				<g>
					<path class="st6" d="M111.3,59.1c-0.8-0.8-1.6-1.6-2.4-2.4c-0.4-0.4-0.8-0.8-1.2-1.2c-0.4-0.4-0.8-0.8-1.3-1
						c-1-0.4-2,0.4-2.9,0.8c-1,0.5-2.1,1-3.1,1.4c-0.9,0.4-0.1,1.7,0.8,1.3c0.9-0.4,1.8-0.8,2.6-1.2c0.4-0.2,0.8-0.4,1.2-0.6
						c0.3-0.1,0.7-0.5,1-0.2c0.7,0.6,1.4,1.3,2,2c0.7,0.7,1.4,1.4,2.1,2.1C110.9,60.8,112,59.7,111.3,59.1L111.3,59.1z"/>
				</g>
			</g>
			<g>
				<g>
					<path class="st6" d="M116.6,74.4c0,1,0.1,1.9,0.1,2.9c0,0.5,0,1,0,1.4c0,0.4,0.1,0.9,0,1.3c-0.1,0.2-0.3,0.3-0.5,0.4
						c-0.4,0.2-0.8,0.3-1.2,0.4c-0.9,0.3-1.8,0.6-2.8,0.9c-0.9,0.3-0.5,1.8,0.4,1.4c1-0.3,2-0.7,3.1-1c0.8-0.3,1.8-0.5,2.3-1.4
						c0.5-0.9,0.2-2.1,0.2-3c0-1.1-0.1-2.2-0.1-3.4C118.1,73.4,116.6,73.4,116.6,74.4L116.6,74.4z"/>
				</g>
			</g>
			<g>
				<g>
					<path class="st2" d="M116,70.2c1.3-0.5,2.6-1.1,3.9-1.6c0.2-0.1,0.5-0.4,0.5-0.7c0.1-0.3,0-0.6-0.1-0.9
						c-0.2-0.2-0.4-0.5-0.7-0.5c-0.3-0.1-0.6,0-0.9,0.1c-1.3,0.5-2.6,1.1-3.9,1.6c-0.2,0.1-0.5,0.4-0.5,0.7c-0.1,0.3,0,0.6,0.1,0.9
						c0.2,0.2,0.4,0.5,0.7,0.5C115.5,70.4,115.7,70.4,116,70.2L116,70.2z"/>
				</g>
			</g>
			<g>
				<g>
					<path class="st2" d="M113.9,64.4c0.3-0.2,0.6-0.4,0.9-0.5c0.1-0.1,0.3-0.1,0.4-0.2c0.1,0,0.2-0.1,0.3-0.1c0.2-0.1-0.2,0.1,0,0
						c0.6-0.3,1.3-0.5,2-0.6c0.6-0.1,1-0.8,0.8-1.4c-0.2-0.6-0.8-0.9-1.4-0.8c-1.5,0.4-2.9,0.9-4.2,1.7c-0.5,0.3-0.7,1-0.4,1.5
						C112.7,64.6,113.4,64.8,113.9,64.4L113.9,64.4z"/>
				</g>
			</g>
			<g>
				<path class="st9" d="M179.7,91.9c0.5,1.8-4.8,5.7-8.4,7.5c-0.6,0.3-1.4,0.6-2,0.3c-0.9-0.5-1.6-1.9-1.2-2.8c0.8-2,2.9-3.8,4.8-5
					c1.8-1.2,4.1-4.3,6.3-0.9C179.3,91.4,179.9,91.5,179.7,91.9"/>
				<g>
					<path d="M178.3,92.3c0.1,0.3,0-0.4,0-0.2c0,0.3-0.1-0.1,0-0.1C178.3,92,178.2,92.2,178.3,92.3c0-0.5-0.1,0-0.2,0.1
						c-0.1,0.1-0.4,0.5-0.2,0.2c-0.6,0.7-1.2,1.3-1.9,1.9c-0.7,0.6-1.5,1.1-2.4,1.7c-0.9,0.6-1.7,1.1-2.6,1.6
						c-0.3,0.2-0.8,0.3-1.1,0.5c-0.1,0-0.1,0-0.2,0c0.2,0.1,0.3,0.1,0.2,0c0,0,0,0-0.1,0c0.1,0.1,0.1,0.1,0,0c0,0-0.2-0.2-0.1,0
						c-0.1-0.1-0.2-0.3-0.2-0.4c0.1,0.2,0-0.1,0-0.2c0-0.1-0.1-0.4,0-0.1c0-0.1,0-0.2,0-0.3c0,0.3,0,0,0,0c0.1-0.2,0.5-0.9,0.7-1.1
						c1.3-1.7,3.2-2.7,4.9-4.1c0.1-0.1,0.6-0.4,0.4-0.3c0.2-0.2,0.5-0.3,0.7-0.5c0.1,0,0.2-0.1,0.2-0.1c0.1,0,0.4-0.2,0.1-0.1
						c0.1,0,0.2,0,0.2-0.1c0.2,0,0.2,0,0,0c0,0,0.1,0,0.1,0c0.3,0.1-0.2,0,0,0c0.1,0,0.1,0,0.2,0c-0.1-0.1-0.1-0.1,0,0
						c0,0,0.3,0.2,0.1,0.1c0.1,0.1,0.3,0.2,0.4,0.4c0.2,0.2,0.3,0.5,0.6,0.8c0.1,0.1,0.2,0.2,0.3,0.3c0.2,0.1,0.2,0.2,0,0
						c0.1,0.1,0.1,0.1,0-0.1c-0.1-0.3-0.1-0.5-0.2-0.8c0-0.1,0-0.1,0-0.2c-0.3,0.8,0.3,1.6,1,1.8c0.9,0.2,1.5-0.3,1.8-1
						c0.2-0.5,0.1-1-0.2-1.4c-0.1-0.2-0.2-0.3-0.4-0.5c-0.1-0.1-0.6-0.5-0.3-0.2c-0.4-0.5-0.9-1.2-1.6-1.6c-1.2-0.8-2.7-0.6-4,0.1
						c-0.6,0.3-1.1,0.7-1.6,1.2c-0.2,0.2-0.4,0.4-0.7,0.5c0,0-0.2,0.2,0,0c-0.1,0.1-0.3,0.2-0.4,0.3c-1.3,0.8-2.5,1.7-3.5,2.8
						c-1,1.1-2.1,2.6-2.1,4.1c0.1,1.5,1.2,3.3,2.7,3.7c1.6,0.4,3.1-0.7,4.4-1.5c1.1-0.7,2.3-1.4,3.3-2.2c1.1-0.8,2.2-1.7,3.1-2.8
						c0.8-0.9,1.4-2,1.1-3.3c-0.2-0.8-1.1-1.3-1.8-1C178.5,90.7,178.1,91.5,178.3,92.3L178.3,92.3z"/>
				</g>
			</g>
			<g>
				<path class="st9" d="M170.8,91.6c-0.6,0.4-3,3-3.7,3.2c-0.7,0.2-2.3-0.6-2.8-1.1c-0.8-0.9-1.1-2.4-0.5-3.5
					c1-1.7,3.6-3.9,5.2-4.9c1.6-1,3.7-1.8,5-0.2c0.4,0.5,1.2,0.5,1.4,1.1c0.3,0.9-0.4,1.8-1.1,2.5C173.2,89.7,172.1,90.8,170.8,91.6
					"/>
				<g>
					<path d="M170,90.3c-0.6,0.5-1.2,1-1.7,1.5c-0.3,0.3-0.6,0.6-0.9,0.8c-0.1,0.1-0.3,0.3-0.4,0.4c-0.1,0.1-0.1,0.1-0.2,0.2
						c-0.3,0.2,0.3-0.1,0,0c-0.2,0.1-0.5,0.2,0,0.1c-0.1,0,0,0,0.1,0c-0.3,0,0,0,0,0c-0.6-0.1-0.7-0.2-1.1-0.4
						c-0.1-0.1-0.2-0.1-0.4-0.2c0.1,0,0.2,0.2,0,0c-0.2-0.2-0.1-0.1-0.3-0.4c-0.1-0.2-0.1-0.2-0.1-0.4c-0.1-0.4,0,0.1,0-0.2
						c0-0.1,0-0.5,0-0.3c0-0.1,0-0.2,0.1-0.3c-0.1,0.2,0,0,0-0.1c0.1-0.2,0.2-0.4,0.4-0.6c0.1-0.1,0.2-0.2,0.4-0.4
						c0.2-0.2,0.4-0.4,0.6-0.6c0.4-0.4,0.8-0.7,1.1-1.1c0.4-0.4,0.9-0.8,1.2-1c0.4-0.3,0.8-0.5,1.2-0.8c0.5-0.3,0.9-0.5,1.3-0.7
						c0.1,0,0.2-0.1,0.3-0.1c0,0,0.5-0.1,0.3-0.1c-0.1,0,0.6,0,0.3,0c0,0,0.4,0.1,0.2,0.1c-0.2-0.1,0.2,0.1,0.2,0.1
						c-0.1,0-0.1-0.1,0.1,0.1c0.1,0.1,0.2,0.2,0.3,0.4c0.2,0.2,0.5,0.4,0.8,0.6c0.2,0.1,0.6,0.3,0.2,0c-0.2-0.2,0-0.2-0.2,0.1
						c-0.2,0.3-0.4,0.5-0.6,0.7C172.3,88.6,171.3,89.6,170,90.3c-1.7,0.9-0.2,3.5,1.5,2.6c1.5-0.8,2.7-2,3.9-3.2
						c1.2-1.3,2.3-3.4,0.7-4.9c-0.2-0.2-0.5-0.4-0.8-0.5c-0.1-0.1-0.2-0.1-0.4-0.2c0.3,0.2-0.1-0.2-0.1-0.2c-0.6-0.6-1.3-1-2.1-1.2
						c-1.6-0.3-3.1,0.3-4.4,1.2c-1.2,0.7-2.2,1.6-3.2,2.5c-1,0.9-2,1.9-2.7,3.1c-0.8,1.4-0.6,3.3,0.2,4.6c0.7,1.1,2.1,1.9,3.4,2.2
						c0.7,0.1,1.4,0.1,2-0.3c0.5-0.3,1-0.7,1.4-1.1c0.4-0.4,0.8-0.8,1.3-1.2c0.2-0.2,0.4-0.4,0.6-0.5c0.1-0.1,0.6-0.5,0.2-0.2
						c0.7-0.5,1-1.3,0.5-2.1C171.7,90.2,170.7,89.8,170,90.3L170,90.3z"/>
				</g>
			</g>
			<g>
				<path class="st6" d="M139.2,61.1c0.3-1.4,1.1-2.7,2.1-3.8c0.1-0.1,0.2-0.2,0.4-0.2c0.1,0,0.2,0,0.3,0.1c2.4,1.2,4.7,2.5,6.9,4
					c0.3,0.2,0.6,0.4,0.6,0.7c0,0.2-0.1,0.4-0.2,0.5c-0.5,0.8-1,1.6-1.6,2.3c-0.2,0.2-0.4,0.4-0.6,0.5c-0.4,0.1-0.8-0.1-1.2-0.3
					c-2.1-1.4-4.3-2.8-6.4-4.2c0-0.1,0.1-0.2,0.2-0.2"/>
				<g>
					<path class="st6" d="M140.7,61.5c0.2-0.7,0.3-1.1,0.7-1.8c0.2-0.3,0.3-0.6,0.5-0.9c0-0.1,0.1-0.1,0.2-0.2
						c0.1-0.1,0.1-0.1,0.2-0.2c0.2-0.2,0.1-0.2-0.2,0c-0.3,0-0.5,0-0.8,0c-0.1-0.1-0.1-0.1,0.1,0c0.1,0.1,0.2,0.1,0.3,0.2
						c0.2,0.1,0.3,0.2,0.5,0.3c0.4,0.2,0.8,0.4,1.2,0.6c0.7,0.4,1.5,0.8,2.2,1.3c0.7,0.4,1.4,0.9,2.1,1.3c0.1,0.1,0.2,0.1,0.3,0.2
						c0.1,0.1,0.2,0.1,0.1,0c-0.1-0.1-0.2-0.2-0.2-0.4c0.1-0.6,0.1-0.8,0-0.5c-0.2,0.3-0.4,0.7-0.7,1c-0.2,0.3-0.5,0.7-0.7,1
						c0,0-0.1,0.2-0.2,0.2c-0.2,0.2-0.1,0.1,0.2-0.1c0.1,0,0.2,0,0.3,0c0,0-2-1.3-2.2-1.4c-1.5-1-3-2-4.5-3c0.2,0.7,0.4,1.4,0.5,2.1
						c-0.1,0.1-0.2,0.2-0.3,0.3c1.7-1,0.2-3.6-1.5-2.6c-0.3,0.2-0.6,0.5-0.8,0.8c-0.4,0.8-0.2,1.6,0.5,2.1c1.9,1.2,3.7,2.4,5.6,3.6
						c1,0.7,2,1.4,3.3,1c1.1-0.4,1.7-1.6,2.3-2.4c0.7-1,1.5-2.1,0.8-3.3c-0.5-0.9-1.7-1.4-2.5-1.9c-1.8-1.1-3.6-2.2-5.6-3.1
						c-1.6-0.7-2.6,0.6-3.5,1.8c-0.6,0.9-1.1,2-1.4,3.1c-0.2,0.8,0.3,1.6,1,1.8C139.6,62.7,140.5,62.3,140.7,61.5L140.7,61.5z"/>
				</g>
			</g>
			<g>
				<path class="st6" d="M147.5,45.4c2,2.6,4.2,5.1,6.7,7.3c1.5-1.2,2.2-1.8,3.7-3c0.1-0.1,0.2-0.1,0.2-0.3c0-0.1-0.1-0.3-0.2-0.4
					c-2.3-2-3.8-4.7-6.1-6.8c-0.4-0.4-0.8-0.7-1.3-1c-0.1,0-0.2-0.1-0.2-0.1c-0.1,0-0.2,0.1-0.2,0.2c-0.9,1.1-1.8,2.3-2.6,3.4
					C147.3,45,147.2,45.3,147.5,45.4"/>
				<g>
					<path class="st6" d="M146.2,46.1c2.1,2.7,4.4,5.3,6.9,7.6c0.6,0.6,1.5,0.5,2.1,0c1.2-1,2.6-1.9,3.7-3c0.5-0.5,0.7-1.1,0.6-1.8
						c-0.1-0.5-0.5-0.9-0.9-1.2c-0.6-0.6-1.2-1.2-1.7-1.8c-1.1-1.3-2.1-2.6-3.2-3.8c-0.7-0.7-1.4-1.3-2.1-1.9
						c-0.4-0.3-0.9-0.5-1.4-0.4c-0.7,0.1-1.1,0.6-1.5,1.2c-0.7,0.9-1.3,1.7-2,2.6c-0.3,0.4-0.6,0.7-0.7,1.2
						c-0.2,0.7,0.1,1.6,0.8,1.9c0.7,0.4,1.6,0.2,2.1-0.5c0.4-0.7,0.2-1.7-0.5-2.1c0,0-0.1,0-0.1,0c0.2,0.2,0.4,0.4,0.5,0.5
						c0,0,0-0.1,0-0.1c0.1,0.3,0.1,0.5,0.2,0.8c0,0.2-0.2,0.5,0.1,0.1c0.1-0.1,0.2-0.2,0.3-0.4c0.3-0.3,0.5-0.7,0.8-1
						c0.2-0.3,0.5-0.6,0.7-0.9c0.1-0.1,0.2-0.3,0.3-0.4c0-0.1,0.1-0.1,0.1-0.2c0.2-0.2,0.2-0.2-0.1,0c-0.3,0.1-0.5,0.1-0.8,0.2
						c0,0,0.1,0,0.1,0c-0.3-0.1-0.5-0.1-0.8-0.2c0.7,0.4,1.3,1,1.9,1.6c0.6,0.6,1.2,1.3,1.8,2c0.6,0.7,1.1,1.4,1.7,2.1
						c0.3,0.3,0.6,0.7,0.9,1c0.1,0.1,0.3,0.3,0.4,0.4c0.1,0.1,0.2,0.2,0.3,0.3c0.2,0.2,0.2,0.2,0-0.2c0.1-0.4,0.1-0.8,0.2-1.2
						c0.1-0.1,0.1-0.1-0.1,0.1c-0.1,0.1-0.2,0.2-0.3,0.3c-0.1,0.1-0.3,0.2-0.4,0.4c-0.3,0.2-0.6,0.5-0.9,0.7c-0.6,0.5-1.3,1-1.9,1.6
						c0.7,0,1.4,0,2.1,0c-2.3-2.1-4.5-4.5-6.4-7c-0.5-0.6-1.3-1-2.1-0.5C146.1,44.4,145.7,45.5,146.2,46.1L146.2,46.1z"/>
				</g>
			</g>
			<g>
				<g>
					<path class="st6" d="M139.8,56.6c-1.6-1.1-3.1-2.2-4.7-3.3c-0.3-0.2-0.8-0.2-1.2-0.2c-0.3,0.1-0.7,0.4-0.9,0.7
						c-0.4,0.8-0.2,1.6,0.5,2.1c1.6,1.1,3.1,2.2,4.7,3.3c0.3,0.2,0.8,0.2,1.2,0.2c0.3-0.1,0.7-0.4,0.9-0.7
						C140.8,57.9,140.5,57.1,139.8,56.6L139.8,56.6z"/>
				</g>
			</g>
			<g>
				<g>
					<path class="st6" d="M149.7,42.4c-1.8-1.6-3.6-3.1-5.5-4.5c-0.3-0.2-0.8-0.2-1.2-0.2c-0.3,0.1-0.7,0.4-0.9,0.7
						c-0.2,0.3-0.3,0.8-0.2,1.2c0.1,0.4,0.4,0.6,0.7,0.9c0.1,0,0.1,0.1,0.2,0.1c0.2,0.1,0,0-0.1-0.1c0.1,0.1,0.2,0.2,0.4,0.3
						c0.2,0.2,0.4,0.3,0.6,0.5c0.4,0.4,0.9,0.7,1.3,1.1c0.9,0.7,1.7,1.4,2.5,2.2c0.6,0.5,1.6,0.6,2.1,0
						C150.2,43.9,150.3,42.9,149.7,42.4L149.7,42.4z"/>
				</g>
			</g>
			<g>
				<g>
					<path d="M163.8,120.9c4.5-6.3,7.1-13.9,7.5-21.7c0.1-1.9-2.9-1.9-3,0c-0.4,7.3-2.8,14.3-7.1,20.2
						C160.1,121,162.7,122.5,163.8,120.9L163.8,120.9z"/>
				</g>
			</g>
			<g>
				<g>
					<path class="st2" d="M98.5,135.5c1.4,0.1,2.8-0.2,4.1-0.7c0.4-0.2,0.5-0.7,0.3-1c-0.2-0.4-0.6-0.4-1-0.3c0.1-0.1-0.1,0-0.1,0.1
						c-0.1,0-0.1,0-0.2,0.1c-0.1,0.1-0.3,0.1-0.4,0.1c-0.3,0.1-0.6,0.1-0.9,0.2c0,0-0.2,0-0.1,0c-0.1,0-0.2,0-0.2,0
						c-0.1,0-0.3,0-0.4,0c-0.3,0-0.6,0-0.9,0c-0.4,0-0.8,0.4-0.8,0.8C97.7,135.2,98.1,135.5,98.5,135.5L98.5,135.5z"/>
				</g>
			</g>
			<g>
				<g>
					<path class="st2" d="M97.6,132c1.2,0.2,2.4,0.2,3.5,0.2c0.4,0,0.8-0.3,0.8-0.8c0-0.4-0.3-0.8-0.8-0.8c-0.5,0-1.1,0-1.6,0
						c-0.3,0-0.5,0-0.8-0.1c-0.1,0-0.3,0-0.4,0c-0.1,0-0.2,0-0.1,0c-0.1,0-0.2,0-0.3,0c-0.2,0-0.4,0-0.6,0.1
						c-0.2,0.1-0.3,0.3-0.3,0.4C97,131.4,97.2,131.9,97.6,132L97.6,132z"/>
				</g>
			</g>
			<g>
				<g>
					<path class="st2" d="M137.9,105.1c0.3-1.2,0.5-2.3,0.5-3.5c0-0.4-0.4-0.8-0.8-0.8c-0.4,0-0.7,0.3-0.8,0.8c0,0.3,0,0.6-0.1,0.8
						c0,0.1,0,0.3,0,0.4c0,0,0,0.1,0,0.1c0-0.1,0-0.1,0,0c0,0.1,0,0.1,0,0.2c-0.1,0.5-0.2,1.1-0.3,1.6c-0.1,0.4,0.1,0.8,0.5,0.9
						C137.3,105.7,137.7,105.5,137.9,105.1L137.9,105.1z"/>
				</g>
			</g>
			<g>
				<g>
					<path class="st2" d="M139.9,106c0.2-0.4,0.4-0.8,0.7-1.2c0,0.1-0.1,0.1-0.1,0.2c0.3-0.4,0.6-0.7,1-1c0.1-0.1,0.2-0.4,0.2-0.5
						c0-0.2-0.1-0.4-0.2-0.5c-0.1-0.1-0.3-0.2-0.5-0.2c-0.2,0-0.4,0.1-0.5,0.2c-0.8,0.6-1.4,1.4-1.8,2.3c-0.1,0.2-0.1,0.4-0.1,0.6
						c0,0.2,0.2,0.4,0.3,0.4c0.2,0.1,0.4,0.1,0.6,0.1C139.7,106.3,139.9,106.1,139.9,106L139.9,106z"/>
				</g>
			</g>
			<g>
				<path class="st2" d="M120.2,135.5c3.7,0.3,7.4-0.7,10.5-2.8c3.1-2,5.4-5.1,6.6-8.6c1.3,1.7,2.4,3.5,3.2,5.5
					c0.7,1.8,1.1,3.7,0.7,5.5c-0.5,2.7-2.8,4.9-5.4,5.8c-2.6,0.9-5.5,0.6-8.1-0.3c-2.6-1-4.9-2.6-7-4.3"/>
				<g>
					<path class="st2" d="M120.2,137c8.3,0.5,15.8-4.7,18.5-12.5c-0.8,0.2-1.7,0.4-2.5,0.7c1.7,2.1,3.1,4.7,3.5,7.4
						c0.4,2.5-0.7,4.8-2.9,6.2c-5,3.2-11-0.3-15-3.6c-1.5-1.2-3.6,0.9-2.1,2.1c2.7,2.2,5.6,4.3,9.1,5.2c3.4,0.9,7.2,0.6,10.1-1.5
						c2.7-1.9,4.2-4.9,3.9-8.3c-0.4-3.6-2.2-6.9-4.4-9.7c-0.8-1-2.2-0.3-2.5,0.7c-2.3,6.6-8.7,10.7-15.6,10.3
						C118.3,133.9,118.3,136.9,120.2,137L120.2,137z"/>
				</g>
			</g>
		</g>
	</g>
	<g>
		<g>
			<g>
				<path d="M181.3,90.5c0,17.7-5.8,35-16.3,49.3c-10.4,14.1-25.2,24.8-41.7,30.6c-17.4,6.1-36.6,6.8-54.4,1.9
					c-17-4.6-32.5-14.3-44-27.7C13.5,131.3,6.3,114.5,5,97.1C3.6,79.3,8,61.5,17.4,46.5c9.3-14.8,23.1-26.4,39-33.4
					c16.9-7.5,36.2-9.5,54.3-5.9c17.4,3.4,33.6,12,46.1,24.5c12.3,12.4,20.6,28.3,23.4,45.6C181,81.6,181.3,86.1,181.3,90.5
					c0,1.9,3,1.9,3,0c0-18.3-6-36.2-16.8-50.9c-10.8-14.6-25.9-25.7-43.1-31.7c-18-6.4-37.9-7-56.3-2c-17.5,4.8-33.6,14.8-45.4,28.7
					C10.8,48.3,3.4,65.5,2,83.7c-1.5,18.3,3.1,36.9,12.9,52.4c9.6,15.3,23.9,27.4,40.4,34.6c17.5,7.6,37.2,9.7,56,6.1
					c18-3.5,34.8-12.4,47.7-25.4c12.7-12.8,21.4-29.4,24.2-47.2c0.7-4.5,1.1-9.1,1.1-13.6C184.3,88.5,181.3,88.5,181.3,90.5
					L181.3,90.5z"/>
			</g>
		</g>
	</g>
</g>
</svg>
