<svg xmlns="http://www.w3.org/2000/svg" xmlns:xlink="http://www.w3.org/1999/xlink" viewBox="0 0 412 391"><defs><style>.cls-1{fill:none;}.cls-2{fill:#7dc4ca;}.cls-3{fill:#ffda83;}.cls-4{clip-path:url(#clip-path);}.cls-5{fill:#183e42;}.cls-6{fill:#fff;}.cls-7{fill:#fac706;}.cls-8{fill:#183e41;}.cls-9{fill:#7ec7cd;}.cls-10{fill:#e4252e;}.cls-11{opacity:0.32;}.cls-12{fill:#1d1d1b;}.cls-13{opacity:0.42;}.cls-14{fill:#d2e8eb;}.cls-15{fill:#42797d;}.cls-16{fill:#f7c402;}.cls-17{fill:#f72872;}.cls-18{fill:#e66869;}.cls-19{fill:#390075;}.cls-20{fill:#aa8b12;}.cls-21{fill:#993637;}.cls-22{fill:#729496;}.cls-23{fill:#fdeaab;}.cls-24{fill:#f5c3c3;}.cls-25{fill:#e7f3f4;}.cls-26{fill:#fff0d1;}.cls-27{fill:#bfa362;}.cls-28{fill:#c2e1e3;}</style><clipPath id="clip-path"><circle class="cls-1" cx="191" cy="189.75" r="161"/></clipPath></defs><title>Perfil Plataforma final</title><g id="contenido"><path class="cls-2" d="M357.13,272.33a184.67,184.67,0,0,0,19.37-82.58C376.5,87.3,293.45,4.25,191,4.25S5.5,87.3,5.5,189.75,88.55,375.25,191,375.25a184.65,184.65,0,0,0,102.52-30.89,57.5,57.5,0,1,0,63.61-72ZM191,350.75a161,161,0,1,1,161-161A161,161,0,0,1,191,350.75Zm158,19a40.5,40.5,0,1,1,40.5-40.5A40.5,40.5,0,0,1,349,369.75Z"/><circle class="cls-3" cx="191" cy="189.75" r="161"/><g class="cls-4"><path class="cls-1" d="M219,224.89a2.72,2.72,0,0,0-3.1-2,3.6,3.6,0,0,0-3,4.64,87.22,87.22,0,0,1,3.68,15.93c0,.36.11.75.16,1.14l3.26-.67a88.33,88.33,0,0,0-4-17.72,88.33,88.33,0,0,1,4,17.72l1.25-.26,2.46-.46C223,236.92,220.8,230.31,219,224.89Z"/><path class="cls-1" d="M192.88,230.77c1.19,6.08,2.21,12.18,3.1,18.31l3.39-.76c-.21-.9-.39-1.86-.55-2.9-.78-5-1.67-10.08-2.63-15.1a3.37,3.37,0,0,0-3.92-2.71,3,3,0,0,0-2.69,3.62c1,5,1.85,10.05,2.63,15.1.18,1.17.32,2.35.51,3.51,1.09-.26,2.17-.52,3.26-.76C195.09,243,194.07,236.85,192.88,230.77Z"/><path class="cls-5" d="M207.53,250.49l.44-.07.9-.14a13.49,13.49,0,0,0,3.78-.93c.56-.57.36-2.46.16-3.94q-4.77,1-9.54,2C204.09,251,205.11,250.83,207.53,250.49Z"/><path class="cls-5" d="M220,243.93c.13,1.12.25,2.24.34,3.37a10.72,10.72,0,0,1-.23,4.15c-1,3.25-4.66,4.82-8,5.61a44,44,0,0,1-6.16,1,9.14,9.14,0,0,1-9.85-7.89c-.05-.38-.12-.76-.17-1.13-1.09.24-2.17.5-3.26.76a15.55,15.55,0,0,0,1.78,5.44c3.27,5.56,8.79,6.57,14.51,5.78.86-.12,1.73-.28,2.59-.48,5.51-1.22,10.9-3.62,12-9.72a27.84,27.84,0,0,0,.13-7.65l-2.46.46Z"/><path class="cls-5" d="M298.46,258.4c-5.5-10.23-12.43-22-25.41-22.51-8.23-.31-16.92,1.77-25,3-6.81,1.06-13.6,2.27-20.37,3.54a32,32,0,0,1-.14,9.08c-.44,2.47-1.76,10-15.05,12.94-1,.22-2,.4-2.91.53-10.67,1.48-16-3.37-18.51-7.7a19.2,19.2,0,0,1-2.23-6.56c-24,5.72-47.85,12.35-71.52,19.39a2.93,2.93,0,0,0-1.32.39,2.69,2.69,0,0,0-1.78,3.7,3.27,3.27,0,0,0,1.14,2c4.57,3.94,10.23,6.25,15.69,8.67,2.23,1,4.69,2.71,7.18,2.7,3.78,0,8.74-2.51,12.42-3.53,16-4.4,32.07-8.28,48.33-11.4,32-6.13,64.37-9,96.9-9.67C297.93,263,299.42,260.17,298.46,258.4Z"/><path class="cls-5" d="M196.15,250.21A9.14,9.14,0,0,0,206,258.1a44,44,0,0,0,6.16-1c3.29-.79,6.91-2.36,8-5.61a10.72,10.72,0,0,0,.23-4.15c-.09-1.13-.21-2.25-.34-3.37l-3.26.67c.36,2.55.71,5.57-1.22,7.55-1.53,1.56-4.86,1.88-6.88,2.22l-.57.09c-5.7.79-7.66-1.77-8.7-6.14l-3.39.76C196,249.45,196.1,249.83,196.15,250.21Z"/><path class="cls-6" d="M208.07,254.46l.57-.09c2-.34,5.35-.66,6.88-2.22,1.93-2,1.58-5,1.22-7.55l-3.93.81c.2,1.48.4,3.37-.16,3.94a13.49,13.49,0,0,1-3.78.93l-.9.14-.44.07c-2.42.34-3.44.47-4.26-3l-3.9.87C200.41,252.69,202.37,255.25,208.07,254.46Z"/><path class="cls-6" d="M209.56,265c.93-.13,1.91-.31,2.91-.53,13.29-2.94,14.61-10.47,15.05-12.94a32,32,0,0,0,.14-9.08l-3.95.74a27.84,27.84,0,0,1-.13,7.65c-1.08,6.1-6.47,8.5-12,9.72-.86.2-1.73.36-2.59.48-5.72.79-11.24-.22-14.51-5.78a15.55,15.55,0,0,1-1.78-5.44l-3.9.92a19.2,19.2,0,0,0,2.23,6.56C193.6,261.65,198.89,266.5,209.56,265Z"/><path class="cls-6" d="M193.1,230.75q1.89,9.67,3.27,19.43a9.14,9.14,0,0,0,9.85,7.9,46.09,46.09,0,0,0,6.16-1.05c3.29-.79,6.9-2.35,7.94-5.61a10.72,10.72,0,0,0,.24-4.15,87.29,87.29,0,0,0-4.38-21.08"/><path class="cls-5" d="M190,231.6q1.23,6.36,2.26,12.74c.58,3.6.64,7.59,2.49,10.82,3.62,6.3,10.26,6.64,16.66,5.38,6.07-1.21,12.19-4.21,12.46-11.17.32-7.92-2.1-16.61-4.57-24-1.3-3.91-7.53-2.24-6.21,1.71a86.63,86.63,0,0,1,4,17.84c.25,2.27,1,5.23-.85,7-1.67,1.57-4.42,2-6.57,2.46-5.81,1.14-9.43-.1-10.39-6.22s-1.93-12.17-3.1-18.22c-.78-4.06-7-2.34-6.21,1.71Z"/><path class="cls-6" d="M192.44,281.86a14.56,14.56,0,0,1,1.4,8.61c.4-.1.81-.17,1.22-.23a12.52,12.52,0,0,1,9.21,2.36,11.65,11.65,0,0,1,4.49,7.8,10,10,0,0,1-3.87,9.68c4.87,2.72,8.62,7.8,7.88,13.5a11.85,11.85,0,0,1-9.88,9.92,9.78,9.78,0,0,1-6.34-1.24,31.75,31.75,0,0,1-7.05-6.07c-.77-.83-1.5-1.58-2.23-2.28a33.84,33.84,0,0,1-.31,5.53l-.12,1.12a55.27,55.27,0,0,1-5.25,18.54c-4.59,9.28-10.44,19.61-19,25.84a36.77,36.77,0,0,1-16.75,6.87c-.45.06-.9.09-1.35.13.64,17.95,1.09,35.91.92,53.87,63.1-3.58,124.66-18.33,187.24-26.24q.21-2.79.47-5.6c.09-.94.28-4,.3-3.55a31.87,31.87,0,0,0-1.68-7.61q-3.56-12.27-6.82-24.63c-1.74-6.71-3.31-13.49-4.91-20.26a32.32,32.32,0,0,1-17.3,8.33,34.12,34.12,0,0,1-17.83-2.52c-13.65-5.6-24.81-17.25-32.27-33.71-.32-.69-.65-1.37-1-2a30.61,30.61,0,0,1-2.45-6.09c-.2.23-.39.46-.59.71a16.35,16.35,0,0,1-4.47,4.19,13.9,13.9,0,0,1-5.06,1.79,11.26,11.26,0,0,1-12.61-8.15,12,12,0,0,1,1.83-10c-3-1.87-5.4-5.07-5.75-10.42-.37-5.6,3.65-9.81,10.23-10.72a17.45,17.45,0,0,1,4.39-.05,21.43,21.43,0,0,1,2.2.36V279a19.07,19.07,0,0,1,2.09-8.39l-53.33,7A10.37,10.37,0,0,1,192.44,281.86Z"/><path class="cls-7" d="M210.82,280.93c-7.93,2.08-10.35,7.39-11.81,12.51s1.2,11.47,4.89,15.13,9.14,4.42,14,3.68a18.14,18.14,0,0,0,8-3c6.14-4.4,8.16-14.56,4.34-21.75S218.88,279,210.82,280.93Z"/><path class="cls-5" d="M210.39,279.37a18.16,18.16,0,0,0-13.14,14.51c-1.44,7.26,3.21,15.88,9.95,18.81,7.17,3.11,17.41,1.34,22.44-4.83a19.89,19.89,0,0,0,2.15-20.78c-4.1-8.28-13.17-9.59-21.4-7.71-2,.46-1.17,3.57.85,3.11,7.89-1.8,16.25,0,18.7,8.69,2.25,8-1.63,16.76-9.86,19-8.81,2.38-17.44-1.5-19.53-10.83-1.71-7.6,3.58-14.79,10.69-16.84C213.23,281.9,212.39,278.8,210.39,279.37Z"/><path class="cls-8" d="M212.39,287.68c-4.48,1.18-5.85,4.19-6.68,7.09s.68,6.49,2.77,8.56,5.17,2.5,7.91,2.08a10.28,10.28,0,0,0,4.52-1.69c3.48-2.49,4.62-8.24,2.46-12.31S217,286.57,212.39,287.68Z"/><path class="cls-9" d="M320.37,339.16c-58.68,12.35-118.77,18.91-177.68,30.55l-2.52-26.89q86.94-12.15,173.37-27.59"/><path class="cls-5" d="M319.51,336.05c-45.88,9.63-92.39,15.75-138.6,23.49q-19.59,3.27-39.07,7.06l4.07,3.11-2.52-26.89-2.36,3.1q67.72-9.46,135.15-20.92,19.13-3.25,38.22-6.66c4.07-.73,2.35-6.94-1.71-6.21q-67.32,12-135,22.05-19.18,2.85-38.4,5.53a3.21,3.21,0,0,0-2.37,3.11l2.52,26.89a3.28,3.28,0,0,0,4.08,3.1c46-9.05,92.54-15.05,138.72-23.11,13-2.28,26-4.72,39-7.44,4.06-.85,2.34-7.06-1.71-6.21Z"/><path class="cls-5" d="M152,302.71c-1.14-3.83-.71-7.8-.75-11.74l-1.59,2.78c1.35-.62,2.31-1.37,3.58-1.43,4.12-.2,4.15-6.64,0-6.44-2.68.13-4.46,1.21-6.83,2.31a3.15,3.15,0,0,0-1.6,2.78c0,4.54-.34,9,1,13.45,1.19,4,7.41,2.27,6.21-1.71Z"/><path class="cls-6" d="M268.39,268.48a12,12,0,0,1,8.38,1.84,10.7,10.7,0,0,1,4.92,9,9.94,9.94,0,0,1-5,8.31,24.63,24.63,0,0,1-3.41,1.66,17.56,17.56,0,0,0-2.49,1.21,5.91,5.91,0,0,0-1.64,1.63,6.78,6.78,0,0,1,4.39,3.57A96.52,96.52,0,0,0,289.32,318c2.74,2.9,4.75,4.15,6.31,3.93a4.77,4.77,0,0,0,2.09-1c4-2.94,6-6.2,6.74-10.57.82-5.19-1.27-10.35-3.47-15.81-.95-2.34-1.93-4.77-2.68-7.24-.32-1-.63-2.05-.94-3.08-.75-2.49-1.53-5.08-2.34-7.58-.6-1.85-1-3.74-1.42-5.57a35.47,35.47,0,0,0-1.84-6.49c-.08-.18-.13-.36-.19-.54L261.68,268A12,12,0,0,1,263,270.5,13.37,13.37,0,0,1,268.39,268.48Z"/><path class="cls-6" d="M142.11,284.61c-.3,19.92.24,39.83,1,59.74.16-.07.32-.12.48-.2,7.08-3.25,9.74-10.78,12.55-18.75a77.41,77.41,0,0,1,4.83-11.59,10.26,10.26,0,0,1,6.06-5.09,16.09,16.09,0,0,0-5.46-6.49c-.47-.32-1-.64-1.57-1a16.3,16.3,0,0,1-5.57-4.74,12,12,0,0,1-1.72-9.7A10.77,10.77,0,0,1,155.4,282L142,283.75A3.91,3.91,0,0,1,142.11,284.61Z"/><path class="cls-6" d="M172.29,282.67a11.06,11.06,0,0,1,2.44-3.23l-5.83.77A15.22,15.22,0,0,1,172.29,282.67Z"/><path class="cls-5" d="M142,283.76H142a4.55,4.55,0,0,0-.18-.59A3.75,3.75,0,0,1,142,283.76Z"/><path class="cls-5" d="M139.58,339.51l.08,5.95.13,0Z"/><path class="cls-5" d="M138.85,287.61l.73,51.9.21,5.91a18.44,18.44,0,0,0,3.28-1.07c-.72-19.91-1.26-39.82-1-59.74a3.91,3.91,0,0,0-.09-.86H142C142.14,285.66,140.81,287.69,138.85,287.61Z"/><path class="cls-5" d="M118.11,287.73a6.29,6.29,0,0,1,4.6,1.17,6.59,6.59,0,0,1,1.19,1c.33.36.71.75,1.13,1.19,3.58,3.77,9,9.47,8.38,15.1-.33,3-2.08,5.22-3.49,7-.38.5-.75,1-1,1.38a41.24,41.24,0,0,0-5.07,9.7,17.4,17.4,0,0,0,2.68,16.58,12.88,12.88,0,0,0,10,4.86c-.77-20.67-1.36-41.34-1-62,.06-3.74,5.11-3.52,6.35-.57a3.27,3.27,0,0,0-1.77-2.07L118.63,270.5a3.36,3.36,0,0,0-4.58,2.65c-.21,5.47-.32,10.93-.4,16.4a28.63,28.63,0,0,1,2.84-1.38A7.21,7.21,0,0,1,118.11,287.73Z"/><path class="cls-5" d="M135.49,283.73c-.31,20.7.28,41.37,1,62a16,16,0,0,0,2.06-.12c.35,0,.71-.12,1.06-.19l-.08-5.95c-.65-18.26-1.09-36.62-.78-55.34l3.15-.41a3.75,3.75,0,0,0-.11-.6C140.6,280.21,135.55,280,135.49,283.73Z"/><path class="cls-5" d="M142,283.76l-3.15.41c-.31,18.72.13,37.08.78,55.34l-.73-51.9C140.81,287.69,142.14,285.66,142,283.76Z"/><path class="cls-5" d="M338.75,393.2c-4.75-17-8.8-34.25-13.24-51.36a41.76,41.76,0,0,1-2.9,3.5c-.84.91-1.7,1.78-2.59,2.58,1.6,6.77,3.17,13.55,4.91,20.26q3.24,12.36,6.82,24.63a31.87,31.87,0,0,1,1.68,7.61c0-.47-.21,2.61-.3,3.55q-.25,2.8-.47,5.6l2.66-.34-2.85,2.86c.06-.84.12-1.68.19-2.52-62.58,7.91-124.14,22.66-187.24,26.24.17-18-.28-35.92-.92-53.87-1.08.11-2.17.17-3.26.18-.36,0-.71,0-1.06,0-.76,0-1.51-.06-2.26-.12a44.78,44.78,0,0,1-19.71-6.52c-1.41-.85-2.77-1.79-4.1-2.77,0,4.77-.1,9.54-.22,14.31-.16,6.2-1.35,13.28.43,19.34s6.44,11.07,10,16l14,19.58a3,3,0,0,0,4.36.65c65.26-3.24,128.83-18.84,193.52-26.8a3.37,3.37,0,0,0,2.85-2.87C339.52,406.06,340.63,399.94,338.75,393.2ZM145.39,439.79l-.59-.59.59,0Z"/><path class="cls-5" d="M299.22,263c5.58,21.59,16,41.46,22,62.88,1,3.6,2,7.21,2.94,10.82.17-.27.35-.53.52-.81,8.4-13.93,10.37-30.35,3.62-45.37-5.16-11.5-16.32-29.32-30.24-31.05a2.81,2.81,0,0,0-.71,0,2.26,2.26,0,0,0-1.47.86A3.52,3.52,0,0,1,299.22,263Z"/><path class="cls-5" d="M264.07,299.82a5.47,5.47,0,0,1-1.32.35,5.94,5.94,0,0,1-1.46,0,5.32,5.32,0,0,1-2.35,2.34,5.75,5.75,0,0,1-.55,2,2.79,2.79,0,0,1-.15.3,5.72,5.72,0,0,1-.44.69l-.06.07a5.45,5.45,0,0,1-2.16,1.71c-1.05.56-2,1.09-2.78,1.6.07,3.21,2,6.25,3.46,9.49,6.23,13.73,15.93,25.82,30.15,31.66a30.37,30.37,0,0,0,15.76,2.26,28.89,28.89,0,0,0,16.77-8.87,261.84,261.84,0,0,0-7.73-26.91c-.85-2.38-1.73-4.74-2.62-7.1,0,.52-.1,1-.18,1.57-.9,5.66-3.71,9.75-8.3,13.16a8.63,8.63,0,0,1-3.93,1.73c-3.57.49-6.76-2-9.77-5.15A99.82,99.82,0,0,1,270,297.5a2.6,2.6,0,0,0-2.51-1.52l-.11,0A5.27,5.27,0,0,1,264.07,299.82Z"/><path class="cls-5" d="M319.5,332.4c.67,2.85,1.32,5.56,1.95,8.16a42.35,42.35,0,0,0,2.71-3.84c-1-3.61-1.93-7.22-2.94-10.82-6-21.42-16.42-41.29-22-62.88a3.52,3.52,0,0,0-3.34-2.67l-.06.07a2.24,2.24,0,0,0-.39,2.54c.08.18.14.37.22.55l.27,0C302.7,290.47,314,309.3,319.5,332.4Z"/><path class="cls-5" d="M318.94,343.42c.87-.9,1.71-1.85,2.51-2.86-.63-2.6-1.28-5.31-1.95-8.16-5.49-23.1-16.8-41.93-23.58-68.93l-.27,0c1.49,3.7,1.94,8.06,3.19,11.9,1.15,3.56,2.2,7.15,3.3,10.73,2.31,7.57,7.05,15.08,6.45,23.27.89,2.36,1.77,4.72,2.62,7.1A261.84,261.84,0,0,1,318.94,343.42Z"/><path class="cls-6" d="M293.61,271.07c.4,1.83.82,3.72,1.42,5.57.81,2.5,1.59,5.09,2.34,7.58.31,1,.62,2.06.94,3.08.75,2.47,1.73,4.9,2.68,7.24,2.2,5.46,4.29,10.62,3.47,15.81-.7,4.37-2.77,7.63-6.74,10.57a4.77,4.77,0,0,1-2.09,1c-1.56.22-3.57-1-6.31-3.93a96.52,96.52,0,0,1-15.77-22.24,6.78,6.78,0,0,0-4.39-3.57,12.67,12.67,0,0,0-1,1.84,4.71,4.71,0,0,1,3.62,2.61,98.35,98.35,0,0,0,16.1,22.74c3.28,3.45,5.76,4.85,8.05,4.53a6.66,6.66,0,0,0,3-1.35c4.42-3.28,6.73-6.94,7.51-11.87a20.49,20.49,0,0,0-.57-8.39c-4.88-12.62-9.84-25.16-13.25-38.34v0l-1,.13c.06.18.11.36.19.54A35.47,35.47,0,0,1,293.61,271.07Z"/><path class="cls-6" d="M302.45,354.27h0a32.31,32.31,0,0,1-16.8-2.39c-13.17-5.4-24-16.71-31.21-32.69-.32-.7-.67-1.4-1-2.09a24,24,0,0,1-2.53-6.88c-.2.16-.42.33-.6.49a9.82,9.82,0,0,0-1.11,1.18,30.61,30.61,0,0,0,2.45,6.09c.33.67.66,1.35,1,2,7.46,16.46,18.62,28.11,32.27,33.71a34.12,34.12,0,0,0,17.83,2.52,32.32,32.32,0,0,0,17.3-8.33l-.54-2.25A30.61,30.61,0,0,1,302.45,354.27Z"/><path class="cls-6" d="M293.6,263.77a4.4,4.4,0,0,1-.33-2.53,2.62,2.62,0,0,0-.66,2.67l1-.13Z"/><path class="cls-6" d="M322,343l.58,2.37a41.76,41.76,0,0,0,2.9-3.5c-.22-.84-.45-1.68-.67-2.52A43.47,43.47,0,0,1,322,343Z"/><path class="cls-6" d="M300.22,286.72l-.92-3.05c-.77-2.55-1.54-5.11-2.37-7.64-.57-1.76-1-3.61-1.37-5.39a35.65,35.65,0,0,0-2-6.86l-1,.13v0c3.41,13.18,8.37,25.72,13.25,38.34a68.07,68.07,0,0,0-3-8.48C301.91,291.49,301,289.11,300.22,286.72Z"/><path class="cls-6" d="M319.48,345.67l.54,2.25c.89-.8,1.75-1.67,2.59-2.58L322,343A36.5,36.5,0,0,1,319.48,345.67Z"/><path class="cls-6" d="M267.34,296l.11,0A2.6,2.6,0,0,1,270,297.5a99.82,99.82,0,0,0,16.45,23.22c3,3.18,6.2,5.64,9.77,5.15a8.63,8.63,0,0,0,3.93-1.73c4.59-3.41,7.4-7.5,8.3-13.16.08-.53.14-1.05.18-1.57-.9-2.39-1.82-4.76-2.73-7.14a20.49,20.49,0,0,1,.57,8.39c-.78,4.93-3.09,8.59-7.51,11.87a6.66,6.66,0,0,1-3,1.35c-2.29.32-4.77-1.08-8.05-4.53a98.35,98.35,0,0,1-16.1-22.74,4.71,4.71,0,0,0-3.62-2.61c-.27.6-.53,1.26-.8,2Z"/><path class="cls-6" d="M302.17,352.29A30.37,30.37,0,0,1,286.41,350c-14.22-5.84-23.92-17.93-30.15-31.66-1.47-3.24-3.39-6.28-3.46-9.49a22,22,0,0,0-1.9,1.34,24,24,0,0,0,2.53,6.88c.34.69.69,1.39,1,2.09,7.25,16,18,27.29,31.21,32.69a32.31,32.31,0,0,0,16.8,2.39h0a30.61,30.61,0,0,0,17-8.6l-.54-2.25A28.89,28.89,0,0,1,302.17,352.29Z"/><path class="cls-6" d="M293.6,263.77h0l2-.27c-.08-.18-.14-.37-.22-.55a2.24,2.24,0,0,1,.39-2.54l.06-.07a3.5,3.5,0,0,0-2.61.89A4.4,4.4,0,0,0,293.6,263.77Z"/><path class="cls-6" d="M321.45,340.56c.2.82.39,1.62.58,2.41a43.47,43.47,0,0,0,2.81-3.65c-.22-.86-.45-1.73-.68-2.6A42.35,42.35,0,0,1,321.45,340.56Z"/><path class="cls-6" d="M302.14,286.14c-1.1-3.58-2.15-7.17-3.3-10.73-1.25-3.84-1.7-8.2-3.19-11.9l-2,.27a35.65,35.65,0,0,1,2,6.86c.4,1.78.8,3.63,1.37,5.39.83,2.53,1.6,5.09,2.37,7.64l.92,3.05c.73,2.39,1.69,4.77,2.62,7.07a68.07,68.07,0,0,1,3,8.48c.91,2.38,1.83,4.75,2.73,7.14C309.19,301.22,304.45,293.71,302.14,286.14Z"/><path class="cls-6" d="M318.94,343.42l.54,2.25A36.5,36.5,0,0,0,322,343c-.19-.79-.38-1.59-.58-2.41C320.65,341.57,319.81,342.52,318.94,343.42Z"/><path class="cls-5" d="M262,285.54l-.23.64a14.22,14.22,0,0,0-.63,7.49,29.43,29.43,0,0,1,3.21-1,11.73,11.73,0,0,1,4.27-5.47c1.87-1.2,4.08-1.76,6-2.92,4.24-2.58,4-7.87-.09-10.6a7.93,7.93,0,0,0-5.59-1.2,9.34,9.34,0,0,0-5.08,2.4,22.85,22.85,0,0,1,.07,2.37A25.3,25.3,0,0,1,262,285.54Z"/><path class="cls-5" d="M261.51,295.51a.94.94,0,0,1,0,.16c.61-.25,1.25-.47,1.9-.68v0c.28-.78.58-1.56.91-2.32a29.43,29.43,0,0,0-3.21,1C261.25,294.26,261.36,294.86,261.51,295.51Z"/><path class="cls-5" d="M261.7,296.19a1.68,1.68,0,0,0,.5,0,1.36,1.36,0,0,0,.39-.12,1.26,1.26,0,0,0,.86-1.1c-.65.21-1.29.43-1.9.68A4.44,4.44,0,0,1,261.7,296.19Z"/><path class="cls-6" d="M268.66,270.46a10,10,0,0,1,7,1.52,8.73,8.73,0,0,1,4,7.32,8,8,0,0,1-4,6.65,23.94,23.94,0,0,1-3.15,1.53,18.58,18.58,0,0,0-2.79,1.37,8.35,8.35,0,0,0-2.81,3.17,6.07,6.07,0,0,1,2.25.14,5.91,5.91,0,0,1,1.64-1.63,17.56,17.56,0,0,1,2.49-1.21,24.63,24.63,0,0,0,3.41-1.66,9.94,9.94,0,0,0,5-8.31,10.7,10.7,0,0,0-4.92-9,12,12,0,0,0-8.38-1.84,13.37,13.37,0,0,0-5.42,2,15.32,15.32,0,0,1,.58,2A11.4,11.4,0,0,1,268.66,270.46Z"/><path class="cls-6" d="M263.33,298a3.14,3.14,0,0,1-.86.24h0a4.42,4.42,0,0,1-.63,0,5.32,5.32,0,0,1-.55,2,5.94,5.94,0,0,0,1.46,0,5.47,5.47,0,0,0,1.32-.35,5.27,5.27,0,0,0,3.27-3.82h0c-.8.17-1.59.37-2.38.6A3.18,3.18,0,0,1,263.33,298Z"/><path class="cls-6" d="M265.83,294.32c.36-.09.7-.19,1.08-.27l.27-.05a4.4,4.4,0,0,1,1,0,12.67,12.67,0,0,1,1-1.84,6.07,6.07,0,0,0-2.25-.14A20.54,20.54,0,0,0,265.83,294.32Z"/><path class="cls-6" d="M266.91,294.05c-.38.08-.72.18-1.08.27-.14.36-.28.73-.42,1.12a3.35,3.35,0,0,1-.47,1.17c.79-.23,1.58-.43,2.38-.6h0v0c.27-.72.53-1.38.8-2a4.4,4.4,0,0,0-1,0Z"/><path class="cls-6" d="M263.86,274.84a9.34,9.34,0,0,1,5.08-2.4,7.93,7.93,0,0,1,5.59,1.2c4.06,2.73,4.33,8,.09,10.6-1.9,1.16-4.11,1.72-6,2.92a11.73,11.73,0,0,0-4.27,5.47c.69-.19,1.38-.38,2.12-.54l.41-.07h0a8.35,8.35,0,0,1,2.81-3.17,18.58,18.58,0,0,1,2.79-1.37,23.94,23.94,0,0,0,3.15-1.53,8,8,0,0,0,4-6.65,8.73,8.73,0,0,0-4-7.32,10,10,0,0,0-7-1.52,11.4,11.4,0,0,0-5.11,2.06A18.31,18.31,0,0,1,263.86,274.84Z"/><path class="cls-6" d="M261.84,298.21a4.42,4.42,0,0,0,.63,0h0a3.14,3.14,0,0,0,.86-.24,3.18,3.18,0,0,0,1.61-1.34,24.53,24.53,0,0,0-3.08,1.12C261.86,297.89,261.85,298.05,261.84,298.21Z"/><path class="cls-6" d="M266.49,292.09c-.74.16-1.43.35-2.12.54-.33.76-.63,1.54-.91,2.32v0c.76-.25,1.56-.47,2.38-.67a20.54,20.54,0,0,1,1.08-2.3h0Z"/><path class="cls-6" d="M262.59,296.09a1.36,1.36,0,0,1-.39.12,1.68,1.68,0,0,1-.5,0,6,6,0,0,1,.14,1,5.52,5.52,0,0,1,0,.58,24.53,24.53,0,0,1,3.08-1.12,3.35,3.35,0,0,0,.47-1.17c.14-.39.28-.76.42-1.12-.82.2-1.62.42-2.38.67A1.26,1.26,0,0,1,262.59,296.09Z"/><path class="cls-5" d="M251.68,267.6c-.17,0-.33,0-.48.06a7.46,7.46,0,0,0-4.4,2.28l9.89-1.3A8,8,0,0,0,251.68,267.6Z"/><path class="cls-5" d="M252.3,299.87a29.78,29.78,0,0,0-4.11-1.27,33.6,33.6,0,0,1,5.18.09,19.24,19.24,0,0,1,3.06-2.58,5.73,5.73,0,0,1-.24-1.3,4.43,4.43,0,0,1,0-.52c0-1,0-2,0-3.16-.08-5.35-.18-12,3.18-17.09.11-.16.23-.31.35-.46a7.1,7.1,0,0,0-3-4.94l-9.89,1.3a13.81,13.81,0,0,0-3.44,9.16,17.06,17.06,0,0,0,1.27,6.65,23.59,23.59,0,0,0-7.94-2.5,13.64,13.64,0,0,0-3.37.05c-3.59.49-7,2.46-6.79,6.49.44,6.59,4.73,8.61,10,9.07-3.95,1.52-7.6,6.1-6.28,10.4a7.26,7.26,0,0,0,8.23,5.35,9.93,9.93,0,0,0,3.59-1.27c2.36-1.39,3.54-3.88,5.55-5.64.4-.36.84-.7,1.29-1a12.37,12.37,0,0,1,1.07-3.29A18.22,18.22,0,0,1,252.3,299.87Z"/><path class="cls-5" d="M256.43,296.11a19.24,19.24,0,0,0-3.06,2.58,13,13,0,0,1,2,.38,1.37,1.37,0,0,0,.31.13,17.42,17.42,0,0,1,1.64-1.27A6,6,0,0,1,256.43,296.11Z"/><path class="cls-5" d="M254.24,300.65a1.26,1.26,0,0,0-.67-.31c-.41-.17-.85-.31-1.27-.47a18.22,18.22,0,0,0-2.28,3.51,12.37,12.37,0,0,0-1.07,3.29,29.7,29.7,0,0,1,2.56-1.68,6.66,6.66,0,0,1,.31-.73A16.4,16.4,0,0,1,254.24,300.65Z"/><path class="cls-5" d="M254.57,303.13h0l.15-.23,0-.09a1.67,1.67,0,0,0-.27-1.94,1.26,1.26,0,0,0-.26-.21,16.4,16.4,0,0,0-2.42,3.61,6.66,6.66,0,0,0-.31.73c.79-.48,1.59-.93,2.37-1.33A1.63,1.63,0,0,0,254.57,303.13Z"/><path class="cls-5" d="M255.7,299.2a1.33,1.33,0,0,0,.59.07,1.57,1.57,0,0,0,.65-.25,1.33,1.33,0,0,0,.78-.69c-.12-.13-.27-.26-.38-.4A17.42,17.42,0,0,0,255.7,299.2Z"/><path class="cls-5" d="M256.15,291.13c0,1.12,0,2.18,0,3.16a4.43,4.43,0,0,0,0,.52,5.73,5.73,0,0,0,.24,1.3c.32-.21.66-.4,1-.59a18.91,18.91,0,0,1,.6-10.69c.1-.27.19-.53.29-.79a21.35,21.35,0,0,1,1.62-6.9v0a17.26,17.26,0,0,0-.25-3.53c-.12.15-.24.3-.35.46C256,279.13,256.07,285.78,256.15,291.13Z"/><path class="cls-5" d="M257.84,297.6c0-.05,0-.1,0-.15a1.49,1.49,0,0,0-.16-.72c-.1-.41-.18-.81-.26-1.21-.33.19-.67.38-1,.59a6,6,0,0,0,.91,1.82C257.5,297.81,257.67,297.71,257.84,297.6Z"/><path class="cls-5" d="M257.34,297.93c.11.14.26.27.38.4a1.31,1.31,0,0,0,.12-.73C257.67,297.71,257.5,297.81,257.34,297.93Z"/><path class="cls-5" d="M259.93,277.14a21.35,21.35,0,0,0-1.62,6.9A21.48,21.48,0,0,0,259.93,277.14Z"/><path class="cls-6" d="M250.92,265.67q.3,0,.6-.06c3.14-.24,5.64.51,7.44,2.22a5.87,5.87,0,0,1,.41.46l2.31-.31a10.33,10.33,0,0,0-1.34-1.6c-2.23-2.12-5.25-3.05-9-2.77l-.72.08h0c-4.24.59-7.33,3.38-9.2,7l2.5-.33A10,10,0,0,1,250.92,265.67Z"/><path class="cls-6" d="M239.36,279.64a21.43,21.43,0,0,0-2.2-.36,17.45,17.45,0,0,0-4.39.05c-6.58.91-10.6,5.12-10.23,10.72.35,5.35,2.71,8.55,5.75,10.42a12,12,0,0,0-1.83,10,11.26,11.26,0,0,0,12.61,8.15,13.9,13.9,0,0,0,5.06-1.79,16.35,16.35,0,0,0,4.47-4.19c.2-.25.39-.48.59-.71a13.82,13.82,0,0,1-.39-2.51,21.34,21.34,0,0,0-1.76,2,14.77,14.77,0,0,1-3.92,3.72,11.6,11.6,0,0,1-4.33,1.53h0a9.29,9.29,0,0,1-10.41-6.75c-1.12-3.63.47-7.39,3.14-10-4.31-1.61-6.66-4.92-7-9.9-.3-4.47,3-7.85,8.5-8.6a15.29,15.29,0,0,1,3.88-.05,23.91,23.91,0,0,1,4.67,1,19.32,19.32,0,0,1-.23-3.24,16.67,16.67,0,0,1,2.59-8.75l-2.5.33a19.07,19.07,0,0,0-2.09,8.39Z"/><path class="cls-6" d="M261.3,271.78A12.31,12.31,0,0,1,263,270.5a12,12,0,0,0-1.29-2.52l-2.31.31A9.16,9.16,0,0,1,261.3,271.78Z"/><path class="cls-6" d="M257.74,305.57l.06-.07a5.72,5.72,0,0,0,.44-.69,2.79,2.79,0,0,0,.15-.3,5.75,5.75,0,0,0,.55-2,5.32,5.32,0,0,0,2.35-2.34,6.19,6.19,0,0,1-2-.6,3.41,3.41,0,0,1-1.49,1.25,3.84,3.84,0,0,1-1,.38,3.81,3.81,0,0,1-.29,2.47.91.91,0,0,0-.09.17,4.58,4.58,0,0,1-.31.49,3.74,3.74,0,0,1-1.46,1.15c-.56.29-1.07.57-1.57.85a7.62,7.62,0,0,0-.35,2.55c.81-.51,1.73-1,2.78-1.6A5.45,5.45,0,0,0,257.74,305.57Z"/><path class="cls-6" d="M250.9,310.22a10.84,10.84,0,0,1-.08-2.42,21.48,21.48,0,0,0-1.84,1.4l-.18.18a13.82,13.82,0,0,0,.39,2.51,9.82,9.82,0,0,1,1.11-1.18C250.48,310.55,250.7,310.38,250.9,310.22Z"/><path class="cls-6" d="M253.15,306.33c-.87.5-1.63,1-2.33,1.47a10.84,10.84,0,0,0,.08,2.42,22,22,0,0,1,1.9-1.34A7.62,7.62,0,0,1,253.15,306.33Z"/><path class="cls-6" d="M261.16,293.67a14.22,14.22,0,0,1,.63-7.49l.23-.64a25.3,25.3,0,0,0,1.91-8.33,22.85,22.85,0,0,0-.07-2.37,7.89,7.89,0,0,0-1.18,1.4,11.75,11.75,0,0,0-.79,1.43,23.57,23.57,0,0,1-1.62,6.82c-.26,3.28-.07,6.67-.1,9.61C260.5,294,260.82,293.8,261.16,293.67Z"/><path class="cls-6" d="M261.51,295.51c-.15-.65-.26-1.25-.35-1.84-.34.13-.66.28-1,.43v.25a1.1,1.1,0,0,0,0,.18,1.65,1.65,0,0,0,.81,1.39l.55-.25A.94.94,0,0,0,261.51,295.51Z"/><path class="cls-6" d="M261,295.92a1.82,1.82,0,0,0,.7.27,4.44,4.44,0,0,0-.15-.52Z"/><path class="cls-6" d="M263.55,272.52a15.32,15.32,0,0,0-.58-2,12.31,12.31,0,0,0-1.67,1.28,14.42,14.42,0,0,1,.49,2.34A10.73,10.73,0,0,1,263.55,272.52Z"/><path class="cls-6" d="M259.7,298.81a3.15,3.15,0,0,1-.37.76,6.19,6.19,0,0,0,2,.6,5.32,5.32,0,0,0,.55-2,4.29,4.29,0,0,1-.8-.12C260.58,298.31,260.14,298.56,259.7,298.81Z"/><path class="cls-6" d="M259.85,297.54a3.34,3.34,0,0,1-.15,1.27c.44-.25.88-.5,1.34-.72A3.9,3.9,0,0,1,259.85,297.54Z"/><path class="cls-6" d="M261.89,277.67a11.75,11.75,0,0,1,.79-1.43,7.89,7.89,0,0,1,1.18-1.4,18.31,18.31,0,0,0-.31-2.32,10.73,10.73,0,0,0-1.76,1.6,19.7,19.7,0,0,1,.14,3C261.93,277.34,261.9,277.5,261.89,277.67Z"/><path class="cls-6" d="M260.27,284.49c0,.12-.09.24-.13.37l-.23.65a16.56,16.56,0,0,0-.64,9c.29-.15.6-.29.9-.42C260.2,291.16,260,287.77,260.27,284.49Z"/><path class="cls-6" d="M261.84,298.21c0-.16,0-.32,0-.48-.28.12-.55.23-.82.36A4.29,4.29,0,0,0,261.84,298.21Z"/><path class="cls-6" d="M259.72,296.51c.41-.21.85-.4,1.28-.59a1.65,1.65,0,0,1-.81-1.39,1.1,1.1,0,0,1,0-.18v-.25c-.3.13-.61.27-.9.42.09.52.2,1,.32,1.57C259.64,296.23,259.68,296.37,259.72,296.51Z"/><path class="cls-6" d="M259.72,296.51a4.19,4.19,0,0,1,.12.79,1.93,1.93,0,0,1,0,.24,3.9,3.9,0,0,0,1.19.55c.27-.13.54-.24.82-.36a5.52,5.52,0,0,0,0-.58,6,6,0,0,0-.14-1,1.82,1.82,0,0,1-.7-.27C260.57,296.11,260.13,296.3,259.72,296.51Z"/><path class="cls-6" d="M251.2,267.66c.15,0,.31,0,.48-.06a8,8,0,0,1,5,1l2.68-.35a5.87,5.87,0,0,0-.41-.46c-1.8-1.71-4.3-2.46-7.44-2.22q-.3,0-.6.06a10,10,0,0,0-7,4.65l2.85-.38A7.46,7.46,0,0,1,251.2,267.66Z"/><path class="cls-6" d="M259.68,273.58a11.47,11.47,0,0,1,1.62-1.8,9.16,9.16,0,0,0-1.93-3.49l-2.68.35A7.1,7.1,0,0,1,259.68,273.58Z"/><path class="cls-6" d="M247.66,307.7c-2,1.76-3.19,4.25-5.55,5.64a9.93,9.93,0,0,1-3.59,1.27,7.26,7.26,0,0,1-8.23-5.35c-1.32-4.3,2.33-8.88,6.28-10.4-5.31-.46-9.6-2.48-10-9.07-.26-4,3.2-6,6.79-6.49a13.64,13.64,0,0,1,3.37-.05,23.59,23.59,0,0,1,7.94,2.5,17.06,17.06,0,0,1-1.27-6.65,13.81,13.81,0,0,1,3.44-9.16l-2.85.38a16.67,16.67,0,0,0-2.59,8.75,19.32,19.32,0,0,0,.23,3.24,23.91,23.91,0,0,0-4.67-1,15.29,15.29,0,0,0-3.88.05c-5.46.75-8.8,4.13-8.5,8.6.32,5,2.67,8.29,7,9.9-2.67,2.63-4.26,6.39-3.14,10a9.29,9.29,0,0,0,10.41,6.75h0a11.6,11.6,0,0,0,4.33-1.53,14.77,14.77,0,0,0,3.92-3.72,21.34,21.34,0,0,1,1.76-2,11.36,11.36,0,0,1,.15-2.71C248.5,307,248.06,307.34,247.66,307.7Z"/><path class="cls-6" d="M248.19,298.6a29.78,29.78,0,0,1,4.11,1.27c.34-.41.7-.8,1.07-1.18A33.6,33.6,0,0,0,248.19,298.6Z"/><path class="cls-6" d="M256.18,304.33a4.58,4.58,0,0,0,.31-.49.91.91,0,0,1,.09-.17,3.81,3.81,0,0,0,.29-2.47,3.84,3.84,0,0,0,1-.38,3.41,3.41,0,0,0,1.49-1.25c-.15-.08-.29-.17-.43-.26a14.56,14.56,0,0,0-5.28,5.83,8.89,8.89,0,0,0-.47,1.19c.5-.28,1-.56,1.57-.85A3.74,3.74,0,0,0,256.18,304.33Z"/><path class="cls-6" d="M253.37,298.69c-.37.38-.73.77-1.07,1.18.42.16.86.3,1.27.47a1.26,1.26,0,0,1,.67.31,16.66,16.66,0,0,1,1.46-1.45,1.37,1.37,0,0,1-.31-.13A13,13,0,0,0,253.37,298.69Z"/><path class="cls-6" d="M250.82,307.8a9.54,9.54,0,0,1,.69-2.81,29.7,29.7,0,0,0-2.56,1.68,11.36,11.36,0,0,0-.15,2.71l.18-.18A21.48,21.48,0,0,1,250.82,307.8Z"/><path class="cls-6" d="M253.62,305.14a14.56,14.56,0,0,1,5.28-5.83,5.47,5.47,0,0,1-.76-.53c-.15-.14-.28-.3-.42-.45a1.33,1.33,0,0,1-.78.69,1.57,1.57,0,0,1-.65.25,1.33,1.33,0,0,1-.59-.07,16.66,16.66,0,0,0-1.46,1.45,1.26,1.26,0,0,1,.26.21,1.67,1.67,0,0,1,.27,1.94l0,.09-.15.23h0a1.63,1.63,0,0,1-.69.53c-.78.4-1.58.85-2.37,1.33a9.54,9.54,0,0,0-.69,2.81c.7-.48,1.46-1,2.33-1.47A8.89,8.89,0,0,1,253.62,305.14Z"/><path class="cls-6" d="M260.27,284.49a23.57,23.57,0,0,0,1.62-6.82A19.33,19.33,0,0,0,260.27,284.49Z"/><path class="cls-6" d="M259.93,277.11v0a13.34,13.34,0,0,1,1.08-2,9.5,9.5,0,0,1,.78-1,14.42,14.42,0,0,0-.49-2.34,11.47,11.47,0,0,0-1.62,1.8A17.26,17.26,0,0,1,259.93,277.11Z"/><path class="cls-6" d="M258.19,294.65a3,3,0,0,1,0-.32c0-1,0-2.12,0-3.23a69.91,69.91,0,0,1,.16-7.06c-.1.26-.19.52-.29.79a18.91,18.91,0,0,0-.6,10.69c.28-.17.54-.34.82-.5A2.35,2.35,0,0,1,258.19,294.65Z"/><path class="cls-6" d="M259.7,298.81l-.8.5c.14.09.28.18.43.26A3.15,3.15,0,0,0,259.7,298.81Z"/><path class="cls-6" d="M257.84,297.45c0,.05,0,.1,0,.15.4-.26.81-.5,1.24-.74a3.54,3.54,0,0,1-.84-1.84c-.28.16-.54.33-.82.5.08.4.16.8.26,1.21A1.49,1.49,0,0,1,257.84,297.45Z"/><path class="cls-6" d="M259.85,297.54a3.39,3.39,0,0,1-.39-.27,3.69,3.69,0,0,1-.38-.41c-.43.24-.84.48-1.24.74a1.31,1.31,0,0,1-.12.73c.14.15.27.31.42.45a5.47,5.47,0,0,0,.76.53l.8-.5A3.34,3.34,0,0,0,259.85,297.54Z"/><path class="cls-6" d="M258.15,291.1c0,1.11,0,2.2,0,3.23a3,3,0,0,0,0,.32,2.35,2.35,0,0,0,.05.37c.33-.18.68-.34,1-.5a16.56,16.56,0,0,1,.64-9l.23-.65c0-.13.09-.25.13-.37a19.33,19.33,0,0,1,1.62-6.82c0-.17,0-.33,0-.51a19.7,19.7,0,0,0-.14-3,9.5,9.5,0,0,0-.78,1,13.34,13.34,0,0,0-1.08,2,21.48,21.48,0,0,1-1.62,6.9A69.91,69.91,0,0,0,258.15,291.1Z"/><path class="cls-6" d="M259.72,296.51c0-.14-.08-.28-.13-.42-.12-.53-.23-1-.32-1.57-.35.16-.7.32-1,.5a3.54,3.54,0,0,0,.84,1.84C259.29,296.75,259.5,296.62,259.72,296.51Z"/><path class="cls-6" d="M259.72,296.51c-.22.11-.43.24-.64.35a3.69,3.69,0,0,0,.38.41,3.39,3.39,0,0,0,.39.27,1.93,1.93,0,0,0,0-.24A4.19,4.19,0,0,0,259.72,296.51Z"/><path class="cls-5" d="M178.5,303.39c0,1.49,0,2.91,0,4.27a4.67,4.67,0,0,1,0,.72v.07a1.23,1.23,0,0,1,0,.2c0,.14,0,.26-.06.39a5.65,5.65,0,0,1-.38,1.14,1.66,1.66,0,0,0,.27.53l0,.05.32.2a5.36,5.36,0,0,1,2.4-1.41,22.64,22.64,0,0,1,6-1.62,44.64,44.64,0,0,1,12.33.23c.27,0,.54.1.81.16,3.07-1.48,5.05-3.78,4.57-7.39a7.92,7.92,0,0,0-9.18-6.72,8.9,8.9,0,0,0-1.34.29,20.8,20.8,0,0,0-6.38,3.32c2.86-7.64,3.7-15.82-3.91-17.41a6.77,6.77,0,0,0-2.29-.07,7.62,7.62,0,0,0-6.29,5.29c-.06.26-.1.51-.15.77l.42.67C178.66,292.3,178.57,298.19,178.5,303.39Z"/><path class="cls-6" d="M181.41,278.36a8.21,8.21,0,0,1,1.85,0l4.86-.65a12.64,12.64,0,0,0-3.32-1.18,10.44,10.44,0,0,0-3.66-.11,11.78,11.78,0,0,0-6.41,3.06l4.94-.65A9.42,9.42,0,0,1,181.41,278.36Z"/><path class="cls-6" d="M172.29,282.67a18,18,0,0,1,1.47,1.62,9.5,9.5,0,0,1,5.91-5.5l-4.94.65A11.06,11.06,0,0,0,172.29,282.67Z"/><path class="cls-6" d="M184.39,278.45a8.85,8.85,0,0,1,6.3,4.37c1.45,2.63,1.65,6.2.62,10.65a21,21,0,0,1,2.39-.89,11.28,11.28,0,0,1,1.63-.36,10.46,10.46,0,0,1,7.72,2,9.67,9.67,0,0,1,3.72,6.48,8.18,8.18,0,0,1-3.92,8.45,18.85,18.85,0,0,1,2,1,10,10,0,0,0,3.87-9.68,11.65,11.65,0,0,0-4.49-7.8,12.52,12.52,0,0,0-9.21-2.36c-.41.06-.82.13-1.22.23a14.56,14.56,0,0,0-1.4-8.61,10.37,10.37,0,0,0-4.32-4.19l-4.86.65A7.11,7.11,0,0,1,184.39,278.45Z"/><path class="cls-6" d="M181.41,278.36a9.42,9.42,0,0,0-1.74.43l3.59-.47A8.21,8.21,0,0,0,181.41,278.36Z"/><path class="cls-6" d="M175.4,285.63a7.62,7.62,0,0,1,6.29-5.29,6.77,6.77,0,0,1,2.29.07c7.61,1.59,6.77,9.77,3.91,17.41a20.8,20.8,0,0,1,6.38-3.32,8.9,8.9,0,0,1,1.34-.29,7.92,7.92,0,0,1,9.18,6.72c.48,3.61-1.5,5.91-4.57,7.39a16.18,16.18,0,0,1,2.63.8,8.18,8.18,0,0,0,3.92-8.45,9.67,9.67,0,0,0-3.72-6.48,10.46,10.46,0,0,0-7.72-2,11.28,11.28,0,0,0-1.63.36,21,21,0,0,0-2.39.89c1-4.45.83-8-.62-10.65a8.85,8.85,0,0,0-6.3-4.37,7.11,7.11,0,0,0-1.13-.13l-3.59.47a9.5,9.5,0,0,0-5.91,5.5,21.13,21.13,0,0,1,1.49,2.11C175.3,286.14,175.34,285.89,175.4,285.63Z"/><path class="cls-6" d="M178.32,310.76l0-.05a1.66,1.66,0,0,1-.27-.53,1.87,1.87,0,0,1-.15.32Z"/><path class="cls-5" d="M172.57,299.85c-.93-3.82-1.94-8.07-1.5-12.47-2.12-2.8-5.38-5.17-8.77-4.7a6.48,6.48,0,0,0-2.05.64c-4.18,2.09-5.07,7.18-2.54,11,1.48,2.2,4,3.2,6.09,4.65a20.1,20.1,0,0,1,7.37,9.38,14.53,14.53,0,0,1,2.8.53A34.05,34.05,0,0,0,172.57,299.85Z"/><path class="cls-5" d="M172.57,299.85a34.05,34.05,0,0,1,1.4,9l.2.06a1.6,1.6,0,0,0,.29-.65l0-.14v-.06a2,2,0,0,0,0-.25c-.11-2.73.06-5.62,0-8.49a46,46,0,0,1-1.53-8.65,14.75,14.75,0,0,0-.78-1.6,14.43,14.43,0,0,0-1.12-1.68C170.63,291.78,171.64,296,172.57,299.85Z"/><path class="cls-5" d="M174.5,299.31a23.75,23.75,0,0,0-1.53-8.65A46,46,0,0,0,174.5,299.31Z"/><path class="cls-6" d="M162,280.7a8.3,8.3,0,0,1,2.68.06l4.2-.55a11.89,11.89,0,0,0-7.15-1.5,10.85,10.85,0,0,0-3.29,1A11.17,11.17,0,0,0,155.4,282l4.2-.56A8.44,8.44,0,0,1,162,280.7Z"/><path class="cls-6" d="M171.49,284.79l0-.13a9.64,9.64,0,0,1,.77-2,15.22,15.22,0,0,0-3.39-2.46l-4.2.55A12.71,12.71,0,0,1,171.49,284.79Z"/><path class="cls-6" d="M152.67,286.81a12,12,0,0,0,1.72,9.7,16.3,16.3,0,0,0,5.57,4.74c.57.34,1.1.66,1.57,1a16.09,16.09,0,0,1,5.46,6.49,10.63,10.63,0,0,1,1.6-.37l.41,0a18.14,18.14,0,0,0-6.33-7.74c-.54-.37-1.11-.71-1.68-1.05a14.26,14.26,0,0,1-4.94-4.13,10,10,0,0,1-1.44-8.08,9,9,0,0,1,4.74-5.79l.25-.1-4.2.56A10.77,10.77,0,0,0,152.67,286.81Z"/><path class="cls-6" d="M176.49,299c.86,3.51,1.7,7,1.46,10.54a1.74,1.74,0,0,0,.06.61,5.65,5.65,0,0,0,.38-1.14c0-.13,0-.25.06-.39a1.23,1.23,0,0,0,0-.2v-.07a4.67,4.67,0,0,0,0-.72c0-1.36,0-2.78,0-4.27.07-5.2.16-11.09-2.83-16.32l-.42-.67a16.58,16.58,0,0,0-.29,3.84A25.61,25.61,0,0,1,176.49,299Z"/><path class="cls-6" d="M173.46,285.15a6.24,6.24,0,0,1,.3-.86,18,18,0,0,0-1.47-1.62,9.64,9.64,0,0,0-.77,2l0,.13a16.64,16.64,0,0,1,1.65,2A16.37,16.37,0,0,1,173.46,285.15Z"/><path class="cls-6" d="M173.14,286.82c.28.41.55.83.79,1.25a17.84,17.84,0,0,1,1,2.17,16.58,16.58,0,0,1,.29-3.84,21.13,21.13,0,0,0-1.49-2.11,6.24,6.24,0,0,0-.3.86A16.37,16.37,0,0,0,173.14,286.82Z"/><path class="cls-6" d="M178,310.18a1.74,1.74,0,0,1-.06-.61c.24-3.51-.6-7-1.46-10.54,0,1.45,0,2.89,0,4.33s-.05,3,0,4.36a4,4,0,0,1,0,.5s0,.14,0,.16a2.56,2.56,0,0,1-.05.27,3.4,3.4,0,0,1-.34,1,19.6,19.6,0,0,1,1.78.88A1.87,1.87,0,0,0,178,310.18Z"/><path class="cls-6" d="M162,280.7a8.44,8.44,0,0,0-2.42.73l5.1-.67A8.3,8.3,0,0,0,162,280.7Z"/><path class="cls-6" d="M163.8,298.93c-2.11-1.45-4.61-2.45-6.09-4.65-2.53-3.78-1.64-8.87,2.54-11a6.48,6.48,0,0,1,2.05-.64c3.39-.47,6.65,1.9,8.77,4.7a19.4,19.4,0,0,1,.42-2.59,12.71,12.71,0,0,0-6.79-4l-5.1.67-.25.1a9,9,0,0,0-4.74,5.79,10,10,0,0,0,1.44,8.08,14.26,14.26,0,0,0,4.94,4.13c.57.34,1.14.68,1.68,1.05a18.14,18.14,0,0,1,6.33,7.74,11.23,11.23,0,0,1,2.17,0A20.1,20.1,0,0,0,163.8,298.93Z"/><path class="cls-6" d="M176.49,299a25.61,25.61,0,0,0-1.53-8.79A44.26,44.26,0,0,0,176.49,299Z"/><path class="cls-6" d="M174.52,299.38l0-.07c.07,2.87-.1,5.76,0,8.49a2,2,0,0,1,0,.25v.06l0,.14a1.6,1.6,0,0,1-.29.65,16.56,16.56,0,0,1,1.78.66.48.48,0,0,0,0-.12C176.18,306.19,175.37,302.88,174.52,299.38Z"/><path class="cls-6" d="M172.19,289.06a14.75,14.75,0,0,1,.78,1.6,19.07,19.07,0,0,1,.17-3.84,16.64,16.64,0,0,0-1.65-2,19.4,19.4,0,0,0-.42,2.59A14.43,14.43,0,0,1,172.19,289.06Z"/><path class="cls-6" d="M174.5,299.31l0,.07c.85,3.5,1.66,6.81,1.43,10.06a.48.48,0,0,1,0,.12l.13.06a3.4,3.4,0,0,0,.34-1,2.56,2.56,0,0,0,.05-.27s0-.14,0-.16a4,4,0,0,0,0-.5c-.06-1.4,0-2.84,0-4.36s0-2.88,0-4.33a44.26,44.26,0,0,1-1.53-8.79,17.84,17.84,0,0,0-1-2.17c-.24-.42-.51-.84-.79-1.25a19.07,19.07,0,0,0-.17,3.84A23.75,23.75,0,0,1,174.5,299.31Z"/><path class="cls-5" d="M183.76,315.2l.49.56a12.46,12.46,0,0,1,1.43,2.11c5.24,2.59,7.7,7.89,12.9,10.94a5.81,5.81,0,0,0,3.76.73,7.84,7.84,0,0,0,6.46-6.47c.64-4.95-3.83-9.15-8.32-10.55a34.75,34.75,0,0,1-7.87,1.94C189.44,314.9,186.3,315.07,183.76,315.2Z"/><path class="cls-5" d="M182.25,313.38a1,1,0,0,0-.24.08,20.55,20.55,0,0,1,1.75,1.74c2.54-.13,5.68-.3,8.85-.74a34.75,34.75,0,0,0,7.87-1.94,11.42,11.42,0,0,0-1.68-.41c-.84-.13-1.74-.24-2.69-.32-1.17.27-2.42.5-3.77.69-3.13.43-6.26.59-8.78.72l-1,.05c-.09.05-.19.08-.28.12Z"/><path class="cls-5" d="M192.34,312.48c1.35-.19,2.6-.42,3.77-.69a37.66,37.66,0,0,0-8.48.1,18.73,18.73,0,0,0-5,1.36l1-.05C186.08,313.07,189.21,312.91,192.34,312.48Z"/><path class="cls-6" d="M210.79,323.32a9.79,9.79,0,0,1-8.17,8.2,7.7,7.7,0,0,1-5.05-1,29.22,29.22,0,0,1-6.61-5.72,33.43,33.43,0,0,0-4.09-3.87,15.34,15.34,0,0,1,.4,3c.73.7,1.46,1.45,2.23,2.28a31.75,31.75,0,0,0,7.05,6.07,9.78,9.78,0,0,0,6.34,1.24,11.85,11.85,0,0,0,9.88-9.92c.74-5.7-3-10.78-7.88-13.5a14.66,14.66,0,0,1-1.88,1.27C207.67,313.54,211.45,318.14,210.79,323.32Z"/><path class="cls-6" d="M187.08,307.93a22.64,22.64,0,0,0-6,1.62,5.36,5.36,0,0,0-2.4,1.41l.75.47.07,0a1.78,1.78,0,0,0,.4,0l.07,0c.61-.06,1.35-.11,2.19-.15a20.88,20.88,0,0,1,5.23-1.37,39.56,39.56,0,0,1,8.64-.14,21.23,21.23,0,0,0,4.23-1.45c-.27-.06-.54-.12-.81-.16A44.64,44.64,0,0,0,187.08,307.93Z"/><path class="cls-6" d="M203,311.35a14.66,14.66,0,0,0,1.88-1.27,18.85,18.85,0,0,0-2-1,16.28,16.28,0,0,1-2.43,1.29A15.78,15.78,0,0,1,203,311.35Z"/><path class="cls-6" d="M196,309.77c1.24.1,2.32.24,3.12.36.43.07.87.17,1.31.28a16.28,16.28,0,0,0,2.43-1.29,16.18,16.18,0,0,0-2.63-.8A21.23,21.23,0,0,1,196,309.77Z"/><path class="cls-6" d="M181.69,311.45l.43-.17c-.84,0-1.58.09-2.19.15l-.07,0a1.78,1.78,0,0,1-.4,0l-.07,0c.33.22.65.45,1,.68A3.3,3.3,0,0,1,181.69,311.45Z"/><path class="cls-6" d="M208.8,323.07a7.84,7.84,0,0,1-6.46,6.47,5.81,5.81,0,0,1-3.76-.73c-5.2-3.05-7.66-8.35-12.9-10.94a12.64,12.64,0,0,1,1.19,3.07,33.43,33.43,0,0,1,4.09,3.87,29.22,29.22,0,0,0,6.61,5.72,7.7,7.7,0,0,0,5.05,1,9.79,9.79,0,0,0,8.17-8.2c.66-5.18-3.12-9.78-7.78-12a21.41,21.41,0,0,1-2.53,1.17C205,313.92,209.44,318.12,208.8,323.07Z"/><path class="cls-6" d="M182.12,311.28c2.67-.15,6.33-.28,9.94-.78,1.34-.19,2.66-.43,3.93-.73a39.56,39.56,0,0,0-8.64.14A20.88,20.88,0,0,0,182.12,311.28Z"/><path class="cls-6" d="M182.25,313.38h.05c.09,0,.19-.07.28-.12l-.76.05.19.16A1,1,0,0,1,182.25,313.38Z"/><path class="cls-6" d="M198.8,312.11a11.42,11.42,0,0,1,1.68.41,21.41,21.41,0,0,0,2.53-1.17,15.78,15.78,0,0,0-2.59-.94,26,26,0,0,1-4.31,1.38C197.06,311.87,198,312,198.8,312.11Z"/><path class="cls-6" d="M182.12,311.28l-.43.17a3.3,3.3,0,0,0-1.34.66c.51.38,1,.78,1.47,1.19l.76-.05a18.73,18.73,0,0,1,5-1.36,37.66,37.66,0,0,1,8.48-.1,26,26,0,0,0,4.31-1.38c-.44-.11-.88-.21-1.31-.28-.8-.12-1.88-.26-3.12-.36-1.27.3-2.59.54-3.93.73C188.45,311,184.79,311.13,182.12,311.28Z"/><path class="cls-5" d="M140,349.46l-.23.05.4,28.63,1,0C140.73,368.56,140.32,359,140,349.46Z"/><path class="cls-5" d="M140,349.46c.37,9.56.78,19.1,1.14,28.66,1.09,0,2.17-.07,3.26-.18-.36-9.79-.76-19.57-1.12-29.35A21,21,0,0,1,140,349.46Z"/><path class="cls-5" d="M182.7,321c-.21-.07-.41-.15-.62-.2a5.36,5.36,0,0,1-3.14-1.37,5.88,5.88,0,0,1-1.91-4.12,3.68,3.68,0,0,1,0-.47,5.68,5.68,0,0,1-1.27-.89c-.38-.21-.76-.4-1.15-.57a6.27,6.27,0,0,1-1.15.3,5.56,5.56,0,0,1-3.27-.55l0,0-.22-.12a6,6,0,0,1-.88-.61,6.2,6.2,0,0,0-4.62,3.4c-5.94,10.75-6.7,26.3-19.2,32.05-.68.31-1.34.57-2,.8.36,9.78.76,19.56,1.12,29.35.32,0,.64-.05,1-.1a32.67,32.67,0,0,0,14.94-6.14c7.92-5.77,13.5-15.76,17.76-24.37a51,51,0,0,0,4.86-17.19C183.2,326.91,183.73,323.8,182.7,321Z"/><path class="cls-5" d="M120,323.05a45.68,45.68,0,0,1,5.53-10.65c1.33-2,3.59-4.14,3.86-6.63.49-4.33-5.8-10.23-8.47-13.14a2.57,2.57,0,0,0-.56-.45,2.27,2.27,0,0,0-1.74-.48,3,3,0,0,0-.66.18,25,25,0,0,0-4.41,2.38c-7.93,5.27-13.45,14.85-16.07,23.6-3.74,12.51-2.17,23.73,4.19,35.09a52.8,52.8,0,0,0,12.42,14.76c6.88,5.67,15.15,9.52,23.64,10.29-.35-9.41-.73-18.81-1.08-28.22C124.07,349.81,115.55,336.33,120,323.05Z"/><path class="cls-5" d="M139.72,349.51c-.19,0-.38.08-.57.1a17.35,17.35,0,0,1-2.46.17c.35,9.41.73,18.81,1.08,28.22.78.07,1.57.12,2.35.14Z"/><path class="cls-5" d="M177,314.7v0a13.85,13.85,0,0,0-1.27-.77,5.68,5.68,0,0,0,1.27.89v-.1Z"/><path class="cls-5" d="M170.15,313.07l0,0a5.56,5.56,0,0,0,3.27.55,6.27,6.27,0,0,0,1.15-.3,10.15,10.15,0,0,0-5.47-1l-.09,0a6,6,0,0,0,.88.61Z"/><path class="cls-5" d="M177,314.8a3.68,3.68,0,0,0,0,.47,5.88,5.88,0,0,0,1.91,4.12,5.36,5.36,0,0,0,3.14,1.37c.21.05.41.13.62.2a8.67,8.67,0,0,0-1.35-2.41,3.38,3.38,0,0,1-1.07-.65,3.79,3.79,0,0,1-1-1.5,20.29,20.29,0,0,0-1.69-1.34A4.94,4.94,0,0,1,177,314.8Z"/><path class="cls-5" d="M177,314.68v.12a4.94,4.94,0,0,0,.57.26Z"/><path class="cls-5" d="M181.35,318.55l-.18-.23a17.8,17.8,0,0,0-1.88-1.92,3.79,3.79,0,0,0,1,1.5A3.38,3.38,0,0,0,181.35,318.55Z"/><path class="cls-6" d="M185.08,322.12a24.42,24.42,0,0,1-.1,7.09l-.13,1.14a53.23,53.23,0,0,1-5,17.86c-4.49,9.06-10.18,19.14-18.38,25.11a34.92,34.92,0,0,1-15.84,6.51h0c-.39.05-.77.07-1.15.11,0,.67,0,1.33.07,2,.45,0,.9-.07,1.35-.13a36.77,36.77,0,0,0,16.75-6.87c8.55-6.23,14.4-16.56,19-25.84a55.27,55.27,0,0,0,5.25-18.54l.12-1.12a33.84,33.84,0,0,0,.31-5.53A15.89,15.89,0,0,0,185.08,322.12Z"/><path class="cls-6" d="M141.17,380.12c-.34,0-.68,0-1,0l0,2c.35,0,.7,0,1.06,0C141.21,381.45,141.19,380.79,141.17,380.12Z"/><path class="cls-6" d="M141.17,380.12c0,.67,0,1.33.07,2,1.09,0,2.18-.07,3.26-.18,0-.67-.05-1.33-.07-2C143.34,380.05,142.25,380.11,141.17,380.12Z"/><path class="cls-6" d="M144.39,346c7.84-3.61,10.64-11.52,13.6-19.9a75.53,75.53,0,0,1,4.69-11.29,8.34,8.34,0,0,1,5-4.2,5.43,5.43,0,0,1-.35-1c-.12-.3-.25-.59-.39-.88a10.26,10.26,0,0,0-6.06,5.09,77.41,77.41,0,0,0-4.83,11.59c-2.81,8-5.47,15.5-12.55,18.75-.16.08-.32.13-.48.2,0,.71.05,1.43.08,2.14C143.56,346.33,144,346.16,144.39,346Z"/><path class="cls-6" d="M139.87,347.44c0-.67-.05-1.35-.08-2l-.13,0,0,2Z"/><path class="cls-6" d="M143.15,346.49c0-.71-.06-1.43-.08-2.14a18.44,18.44,0,0,1-3.28,1.07c0,.67.06,1.35.08,2A18.67,18.67,0,0,0,143.15,346.49Z"/><path class="cls-6" d="M118.39,289.72a4.25,4.25,0,0,1,3.17.82,4.81,4.81,0,0,1,.87.73c.33.37.72.78,1.15,1.22,3.33,3.5,8.37,8.79,7.84,13.5-.26,2.4-1.76,4.33-3.08,6-.4.51-.78,1-1.1,1.48a43.55,43.55,0,0,0-5.31,10.18,19.42,19.42,0,0,0,3,18.5,15,15,0,0,0,11.64,5.58c0-.67-.05-1.34-.07-2a12.88,12.88,0,0,1-10-4.86,17.4,17.4,0,0,1-2.68-16.58,41.24,41.24,0,0,1,5.07-9.7c.27-.41.64-.88,1-1.38,1.41-1.82,3.16-4.08,3.49-7,.63-5.63-4.8-11.33-8.38-15.1-.42-.44-.8-.83-1.13-1.19a6.59,6.59,0,0,0-1.19-1,6.29,6.29,0,0,0-4.6-1.17,7.21,7.21,0,0,0-1.62.44,28.63,28.63,0,0,0-2.84,1.38l0,2.32a25.64,25.64,0,0,1,3.62-1.84A4.37,4.37,0,0,1,118.39,289.72Z"/><path class="cls-6" d="M138.88,347.63l.81-.15,0-2c-.35.07-.71.14-1.06.19a16,16,0,0,1-2.06.12c0,.66.05,1.33.07,2a17.51,17.51,0,0,0,2.27-.14Z"/><path class="cls-6" d="M137.92,382c0-.67,0-1.34-.08-2-8.63-.72-16.85-4.5-23.72-9.83,0,.85,0,1.7,0,2.55,1.33,1,2.69,1.92,4.1,2.77A44.78,44.78,0,0,0,137.92,382Z"/><path class="cls-6" d="M137.84,380c0,.67,0,1.34.08,2,.75.06,1.5.11,2.26.12l0-2C139.38,380.13,138.61,380.08,137.84,380Z"/><path class="cls-6" d="M178.64,311l-.32-.2a1.61,1.61,0,0,0,.24.28Z"/><path class="cls-6" d="M176.64,312.12l.41.23c-.1-.11-.2-.23-.29-.35Z"/><path class="cls-6" d="M176.76,312c.09.12.19.24.29.35l.47.28a5.54,5.54,0,0,1,1-1.59,1.61,1.61,0,0,1-.24-.28l-.46-.26A5.64,5.64,0,0,1,176.76,312Z"/><path class="cls-6" d="M171.17,308.31a.94.94,0,0,0,.06.15,1.29,1.29,0,0,0,.68,1l.1,0h0a1.52,1.52,0,0,0,.89.14,1.94,1.94,0,0,0,1.05-.52c0-.11,0-.21,0-.31A14.53,14.53,0,0,0,171.17,308.31Z"/><path class="cls-6" d="M174,308.84c0,.1,0,.2,0,.31a2.52,2.52,0,0,0,.21-.25Z"/><path class="cls-6" d="M167.73,310.58a8.54,8.54,0,0,1,1.14-.24,8.09,8.09,0,0,1,1-.08,3.27,3.27,0,0,1-.56-1.26c-.09-.23-.2-.45-.3-.68l-.41,0a10.63,10.63,0,0,0-1.6.37c.14.29.27.58.39.88A5.43,5.43,0,0,0,167.73,310.58Z"/><path class="cls-6" d="M176.76,312c0-.05-.09-.09-.13-.15a3.54,3.54,0,0,1-.67-2,4,4,0,0,1-1.38,1.33,16.61,16.61,0,0,1,2.06.95Z"/><path class="cls-6" d="M176.63,311.85c0,.06.09.1.13.15a5.64,5.64,0,0,0,1.1-1.5,19.6,19.6,0,0,0-1.78-.88l-.12.22A3.54,3.54,0,0,0,176.63,311.85Z"/><path class="cls-6" d="M169.86,310.26a11.87,11.87,0,0,1,4.25.74,5.4,5.4,0,0,1-.15-1.7v-.15a1.94,1.94,0,0,1-1.05.52,1.52,1.52,0,0,1-.89-.14h0l-.1,0a1.29,1.29,0,0,1-.68-1,.94.94,0,0,1-.06-.15,11.23,11.23,0,0,0-2.17,0c.1.23.21.45.3.68A3.27,3.27,0,0,0,169.86,310.26Z"/><path class="cls-6" d="M176,309.84c0-.09,0-.18,0-.28a16.56,16.56,0,0,0-1.78-.66,2.52,2.52,0,0,1-.21.25v.15a5.4,5.4,0,0,0,.15,1.7l.47.17A4,4,0,0,0,176,309.84Z"/><path class="cls-6" d="M176,309.56c0,.1,0,.19,0,.28l.12-.22Z"/><path class="cls-6" d="M183.76,315.2h-.1l-2.55.15c.48.46.94.93,1.36,1.41h.16a13.73,13.73,0,0,1,3.05,1.1,12.46,12.46,0,0,0-1.43-2.11Z"/><path class="cls-6" d="M183.66,315.2h.1a20.55,20.55,0,0,0-1.75-1.74,1.51,1.51,0,0,0-1,1.39v0a1.34,1.34,0,0,0,0,.2,1.49,1.49,0,0,0,0,.21l.06.05Z"/><path class="cls-6" d="M186.87,320.94a13.31,13.31,0,0,0-2.65-1.54,10.85,10.85,0,0,1,.86,2.72,15.89,15.89,0,0,1,2.19,1.79A15.34,15.34,0,0,0,186.87,320.94Z"/><path class="cls-6" d="M179.39,311.43l-.75-.47-.08.08A1.53,1.53,0,0,0,179.39,311.43Z"/><path class="cls-6" d="M179.36,313.43h-.2a2.69,2.69,0,0,1-.61-.14c.23.16.46.32.68.49A3.62,3.62,0,0,1,179.36,313.43Z"/><path class="cls-6" d="M177.52,312.63c.35.21.69.43,1,.66a2.69,2.69,0,0,0,.61.14h.2a3.46,3.46,0,0,1,1-1.32c-.31-.23-.63-.46-1-.68a1.53,1.53,0,0,1-.83-.39A5.54,5.54,0,0,0,177.52,312.63Z"/><path class="cls-6" d="M182.63,316.77h-.16l.24.28a10.42,10.42,0,0,1,1.51,2.36,13.31,13.31,0,0,1,2.65,1.54,12.64,12.64,0,0,0-1.19-3.07A13.73,13.73,0,0,0,182.63,316.77Z"/><path class="cls-6" d="M180.13,313.43a4,4,0,0,1-.77,0,3.62,3.62,0,0,0-.13.35,22.53,22.53,0,0,1,1.82,1.52,1.49,1.49,0,0,1,0-.21,1.34,1.34,0,0,1,0-.2v0a1.51,1.51,0,0,1,1-1.39l-.19-.16c-.61,0-1.16.07-1.62.12Z"/><path class="cls-6" d="M179.36,313.43a4,4,0,0,0,.77,0h.07c.46-.05,1-.09,1.62-.12-.47-.41-1-.81-1.47-1.19A3.46,3.46,0,0,0,179.36,313.43Z"/><path class="cls-6" d="M145.23,347.79c12.5-5.75,13.26-21.3,19.2-32.05a6.2,6.2,0,0,1,4.62-3.4,5.33,5.33,0,0,1-1.32-1.76,8.34,8.34,0,0,0-5,4.2A75.53,75.53,0,0,0,158,326.07c-3,8.38-5.76,16.29-13.6,19.9-.41.19-.83.36-1.24.52,0,.7,0,1.4.08,2.1C143.89,348.36,144.55,348.1,145.23,347.79Z"/><path class="cls-6" d="M139.87,347.44l-.18,0,0,2,.23-.05C139.92,348.79,139.9,348.12,139.87,347.44Z"/><path class="cls-6" d="M143.23,348.59c0-.7-.06-1.4-.08-2.1a18.67,18.67,0,0,1-3.28.95c0,.68,0,1.35.08,2A21,21,0,0,0,143.23,348.59Z"/><path class="cls-6" d="M175.11,313.14a4.34,4.34,0,0,1-.5.2c.39.17.77.36,1.15.57A6,6,0,0,1,175.11,313.14Z"/><path class="cls-6" d="M182.86,330.14A51,51,0,0,1,178,347.33c-4.26,8.61-9.84,18.6-17.76,24.37a32.67,32.67,0,0,1-14.94,6.14c-.31.05-.63.06-1,.1,0,.66.05,1.33.08,2,.38,0,.76-.06,1.15-.11h0a34.92,34.92,0,0,0,15.84-6.51c8.2-6,13.89-16.05,18.38-25.11a53.23,53.23,0,0,0,5-17.86l.13-1.14a24.42,24.42,0,0,0,.1-7.09A10.31,10.31,0,0,0,182.7,321C183.73,323.8,183.2,326.91,182.86,330.14Z"/><path class="cls-6" d="M140.12,378.14l0,2c.34,0,.68,0,1,0,0-.67-.06-1.33-.08-2Z"/><path class="cls-6" d="M144.35,377.94c-1.09.11-2.17.17-3.26.18,0,.67,0,1.33.08,2,1.08,0,2.17-.07,3.26-.18C144.4,379.27,144.38,378.6,144.35,377.94Z"/><path class="cls-6" d="M118.66,291.7a2.27,2.27,0,0,1,1.74.48,2.57,2.57,0,0,1,.56.45c2.67,2.91,9,8.81,8.47,13.14-.27,2.49-2.53,4.64-3.86,6.63A45.68,45.68,0,0,0,120,323.05c-4.49,13.28,4,26.76,16.65,26.73,0-.67-.05-1.34-.08-2A15,15,0,0,1,125,342.19a19.42,19.42,0,0,1-3-18.5,43.55,43.55,0,0,1,5.31-10.18c.32-.48.7-1,1.1-1.48,1.32-1.71,2.82-3.64,3.08-6,.53-4.71-4.51-10-7.84-13.5-.43-.44-.82-.85-1.15-1.22a4.81,4.81,0,0,0-.87-.73,4.25,4.25,0,0,0-3.17-.82,4.37,4.37,0,0,0-1.15.31,25.64,25.64,0,0,0-3.62,1.84c0,.79,0,1.59,0,2.39a25,25,0,0,1,4.41-2.38A3,3,0,0,1,118.66,291.7Z"/><path class="cls-6" d="M139.72,349.51l0-2-.81.15h0a17.51,17.51,0,0,1-2.27.14c0,.67,0,1.34.08,2a17.35,17.35,0,0,0,2.46-.17C139.34,349.59,139.53,349.54,139.72,349.51Z"/><path class="cls-6" d="M137.77,378c-8.49-.77-16.76-4.62-23.64-10.29,0,.82,0,1.65,0,2.47,6.87,5.33,15.09,9.11,23.72,9.83C137.82,379.34,137.79,378.67,137.77,378Z"/><path class="cls-6" d="M140.12,378.14c-.78,0-1.57-.07-2.35-.14,0,.67,0,1.34.07,2,.77.07,1.54.12,2.31.13Z"/><path class="cls-6" d="M177,314.68v-.07a5.93,5.93,0,0,1,.44-1.89,2.93,2.93,0,0,1-.42-.37l-.41-.23a5.84,5.84,0,0,1-1.53,1,6,6,0,0,0,.65.77A13.85,13.85,0,0,1,177,314.68Z"/><path class="cls-6" d="M177.05,312.35a2.93,2.93,0,0,0,.42.37l.05-.09Z"/><path class="cls-6" d="M169.14,312.32a10.15,10.15,0,0,1,5.47,1,4.34,4.34,0,0,0,.5-.2A1.58,1.58,0,0,1,175,313a5.35,5.35,0,0,1-.79-1.63,3.9,3.9,0,0,1-1,.29,3.48,3.48,0,0,1-2.07-.33l-.14-.08a3.31,3.31,0,0,1-1.12-1,8.09,8.09,0,0,0-1,.08,8.54,8.54,0,0,0-1.14.24,5.33,5.33,0,0,0,1.32,1.76Z"/><path class="cls-6" d="M174.58,311.17l-.38.19A5.35,5.35,0,0,0,175,313a1.58,1.58,0,0,0,.12.15,5.84,5.84,0,0,0,1.53-1A16.61,16.61,0,0,0,174.58,311.17Z"/><path class="cls-6" d="M171,311.24l.14.08a3.48,3.48,0,0,0,2.07.33,3.9,3.9,0,0,0,1-.29,2.37,2.37,0,0,1-.09-.36,11.87,11.87,0,0,0-4.25-.74A3.31,3.31,0,0,0,171,311.24Z"/><path class="cls-6" d="M174.58,311.17l-.47-.17a2.37,2.37,0,0,0,.09.36Z"/><path class="cls-6" d="M181.06,315.35a1.6,1.6,0,0,0,1.41,1.41c-.42-.48-.88-.95-1.36-1.41Z"/><path class="cls-6" d="M181.05,315.3a.11.11,0,0,1,0,.05h.05Z"/><path class="cls-6" d="M177.6,315.06a20.29,20.29,0,0,1,1.69,1.34,4,4,0,0,1-.23-1H179A5.4,5.4,0,0,1,177.6,315.06Z"/><path class="cls-6" d="M181.35,318.55A8.67,8.67,0,0,1,182.7,321a10.31,10.31,0,0,1,2.38,1.16,10.85,10.85,0,0,0-.86-2.72,11.91,11.91,0,0,0-1.83-.63A3.07,3.07,0,0,1,181.35,318.55Z"/><path class="cls-6" d="M179,314.81a3.77,3.77,0,0,1,.2-1c-.22-.17-.45-.33-.68-.49a3.31,3.31,0,0,1-1.08-.57,5.93,5.93,0,0,0-.44,1.89v.07l.57.38a5.4,5.4,0,0,0,1.38.36h.08a2.4,2.4,0,0,1,0-.28A1.91,1.91,0,0,1,179,314.81Z"/><path class="cls-6" d="M177.52,312.63l-.05.09a3.31,3.31,0,0,0,1.08.57C178.21,313.06,177.87,312.84,177.52,312.63Z"/><path class="cls-6" d="M182.47,316.76a1.6,1.6,0,0,1-1.41-1.41l-.61.06h0a5.55,5.55,0,0,1-1.35,0,4,4,0,0,0,.23,1,17.8,17.8,0,0,1,1.88,1.92l.18.23a3.07,3.07,0,0,0,1,.22,11.91,11.91,0,0,1,1.83.63,10.42,10.42,0,0,0-1.51-2.36Z"/><path class="cls-6" d="M179.23,313.78a3.77,3.77,0,0,0-.2,1,1.91,1.91,0,0,0,0,.34,2.4,2.4,0,0,0,0,.28,5.55,5.55,0,0,0,1.35,0h0l.61-.06a.11.11,0,0,0,0-.05A22.53,22.53,0,0,0,179.23,313.78Z"/><path class="cls-8" d="M211.91,118.87c2.79-.52,12.59-2.77,15.36-3.33,6.83-1.4,13.68-3,20.66-3,11.22,0,22,4.16,32.58,8.28l-72,15.08"/><path class="cls-5" d="M212.77,122c9-1.72,17.81-4.19,26.85-5.57,14.15-2.16,27,2.4,40,7.47v-6.21l-63,13.2-9,1.88c-4,.85-2.33,7.06,1.72,6.21l63-13.2,9-1.88c3.41-.71,2.68-5.17,0-6.21-13.37-5.21-26.68-9.74-41.21-7.8-9.83,1.32-19.38,4-29.1,5.9-4.07.78-2.35,7,1.71,6.21Z"/><path class="cls-8" d="M103.46,239.43c-7.24-5.38-14.81-11.15-18.47-19.57-2-4.56-2.67-9.59-3.29-14.54-3-23.55-7.71-39.5-8.78-63.2,22.11-6.17,50.4-9.49,73.29-12.8,0,0,9.38,3.08,13.08,9.58"/><path class="cls-5" d="M105.08,236.65c-6.22-4.63-12.78-9.57-16.43-16.59-4.16-8-4.07-18.07-5.45-26.81-2.71-17-6.23-33.85-7.06-51.13l-2.36,3.1c16.11-4.44,32.69-7,49.21-9.4q6-.87,12.06-1.7l5.84-.82,3.12-.44c.31,0,3.05-.09,1.38-.43,4.18.86,9,4.58,11.12,8.1s7.74.3,5.56-3.25c-3.1-5.07-8.54-8.83-14.13-10.75-2.58-.88-5.6.12-8.24.49l-13.44,1.88c-18.18,2.56-36.46,5.22-54.19,10.11a3.29,3.29,0,0,0-2.37,3.11c.89,18.62,4.83,36.74,7.64,55.12,1.41,9.23,1.61,19.15,6.48,27.39,4.35,7.34,11.28,12.57,18,17.58,3.33,2.47,6.55-3.12,3.25-5.56Z"/><path class="cls-6" d="M209.85,132l71.21-11.86a450,450,0,0,1,17,87c.14,1.44.23,3-.65,4.21s-2.77,1.68-4.4,2c-63,11.17-119.07,22.55-182.86,27-7.33.51-9.78-17.71-10.25-20.54-4.82-25.78-6-41.86-9.3-67.88,20.9-3.48,47.59-7.42,68.49-10.9"/><path class="cls-5" d="M210.7,135.05l71.22-11.86-4-2.25a448.76,448.76,0,0,1,16,77.54c.35,3,1.21,6.46,1,9.46-.12,1.53-.46,1.68-1.93,2s-3.06.56-4.58.83q-10.17,1.81-20.33,3.66c-12.84,2.32-25.68,4.65-38.53,6.89-25.47,4.46-51,8.57-76.7,11.61q-19.73,2.34-39.53,3.82c-1.35.1-3.06.63-4.28-.09s-2-2.58-2.51-3.76a44,44,0,0,1-2.74-9.63c-4.63-23.65-7-47.61-10-71.5l-2.36,3.11c22.8-3.79,45.68-7.12,68.49-10.91,4.08-.68,2.35-6.88-1.72-6.21-22.8,3.79-45.68,7.12-68.48,10.91a3.2,3.2,0,0,0-2.37,3.1c3,23.67,5.79,47.23,9.74,70.77,1.06,6.31,2.5,14.69,7.73,19,3.88,3.19,9.56,1.6,14.12,1.23q10.86-.87,21.68-2c27.76-2.93,55.36-7.14,82.87-11.87,13.81-2.37,27.6-4.86,41.39-7.35l21.48-3.88c4.74-.84,12.63-.74,14.54-6.3,1.1-3.2.08-7.19-.27-10.44q-.63-5.73-1.4-11.44-1.57-11.82-3.77-23.55a456.63,456.63,0,0,0-11.36-46.71,3.32,3.32,0,0,0-4-2.25L209,128.84c-4.08.68-2.35,6.89,1.71,6.21Z"/><path class="cls-7" d="M127.74,170.72c-11.84,6.79-6.88,37-2.95,32.82,7.41-7.91,22.49-6.49,43.79-2.77,6.93,1.21,3.83-17.66-4.46-28S137.58,163.33,127.74,170.72Z"/><path class="cls-5" d="M126.12,167.94c-8.85,5.4-9.79,18.21-8.66,27.48.4,3.34.93,7.9,3.49,10.4,3.82,3.72,7.1-1.57,10.47-3,5.71-2.46,12.6-2,18.63-1.44,4.34.38,8.66,1,13,1.72,2.83.47,6.31,1.78,9,.23,4.58-2.59,3.77-9.52,3-13.8a43.07,43.07,0,0,0-8.12-18.38c-9.39-12.06-29.17-11.6-40.79-3.18-3.33,2.41-.12,8,3.25,5.56,8.16-5.92,21.68-7.71,30-1,4.19,3.37,6.74,9.05,8.31,14.06a30.27,30.27,0,0,1,1.49,7.35c0,.91.21,3.42-.44,3.94.67-.53-.64-.4-1.06-.48q-2.6-.45-5.21-.85c-3.62-.57-7.26-1.08-10.91-1.45a63,63,0,0,0-16.74.15c-3.81.65-9.43,2.29-11.85,5.62-1,1.42-.23,0-.09.2-.55-.64,2.94.14,2.48.12.26,0,.15.35-.07-.32a37.07,37.07,0,0,1-1.09-3.85c-1.34-6.84-1.7-19.26,5.2-23.47C132.9,171.35,129.67,165.78,126.12,167.94Z"/><path class="cls-5" d="M172.56,143.94c2-5.79-2.08-11.28-6.42-14.72a108.92,108.92,0,0,0-18.82-11.81c-3.69-1.85-7,3.71-3.25,5.56a112.41,112.41,0,0,1,14.26,8.46c3.1,2.17,9.66,6.13,8,10.8-1.37,3.92,4.85,5.61,6.21,1.71Z"/><path class="cls-5" d="M184.64,140l-9-23.83c-1.45-3.84-7.68-2.17-6.21,1.72l9,23.83c1.45,3.84,7.68,2.17,6.21-1.72Z"/><path class="cls-5" d="M196.06,138.41c-.64-4.53-1.47-9.09-1.83-13.65-.31-3.81-.33-8,2.43-10.94s-1.72-7.6-4.56-4.56c-7.59,8.15-3.62,21.12-2.25,30.86.57,4.09,6.78,2.35,6.21-1.71Z"/><path class="cls-5" d="M211.6,135a29.41,29.41,0,0,1,9.82-26c3.1-2.75-1.46-7.29-4.56-4.55a36,36,0,0,0-11.47,32.3c.59,4.09,6.8,2.35,6.21-1.71Z"/><path class="cls-5" d="M103.58,170c-.5-2.3-2-9.26.55-10.52,2.87-1.44,7-1.83,10.1-2.65,2-.52,1.15-3.63-.86-3.1l-8.5,2.23c-1.43.38-3.28.56-4.23,1.84s-.9,3.65-1,5.17a31.23,31.23,0,0,0,.78,7.89c.45,2,3.55,1.17,3.11-.86Z"/><path class="cls-5" d="M272.68,208.26a59.71,59.71,0,0,0,13-3.17,1.72,1.72,0,0,0,1.18-1.56,32.31,32.31,0,0,0-.57-10.65c-.44-2-3.54-1.17-3.1.85a29.62,29.62,0,0,1,.45,9.8l1.18-1.55a56.07,56.07,0,0,1-12.1,3.06c-2,.27-2.05,3.5,0,3.22Z"/><path class="cls-5" d="M196.39,242.87a34.64,34.64,0,0,0,24-2.42"/><path class="cls-5" d="M195.53,246A39.58,39.58,0,0,0,222,243.23c3.75-1.76.48-7.31-3.25-5.56a32.42,32.42,0,0,1-21.49,2.1c-4-1-5.75,5.25-1.71,6.21Z"/><path class="cls-5" d="M272.3,270c3.07-.39,6.14-.59,9.22-.77a18.08,18.08,0,0,0,4-.26c1.16-.37.75-.82,1.24.52a76.09,76.09,0,0,1,2.94,12.47c.37,2,3.48,1.17,3.11-.86-.51-2.77-1.09-5.53-1.77-8.27-.47-1.9-.84-4.39-1.94-6.07s-2.69-1.08-4.52-.94c-4.09.32-8.17.44-12.25,1-2,.26-2.05,3.49,0,3.22Z"/><path class="cls-5" d="M319.79,380.59l3.84,21c.38,2,3.48,1.17,3.11-.86l-3.84-21c-.37-2-3.48-1.18-3.11.85Z"/><path class="cls-5" d="M316.59,392.72l1.83,13.21c.28,2.05,3.38,1.18,3.1-.85l-1.83-13.22c-.28-2-3.38-1.17-3.1.86Z"/><path class="cls-5" d="M118.44,194.44c-1.22.61-4.13,2.35-5.07.56-1.92-3.67-7.48-.41-5.56,3.25,2.9,5.51,9.4,4,13.88,1.75,3.7-1.86.45-7.42-3.25-5.56Z"/><path class="cls-5" d="M116.71,184.23a7.41,7.41,0,0,1-6.88-2.95c-1.09-1.36-3.42-1.13-4.56,0a3.31,3.31,0,0,0,0,4.55,13.26,13.26,0,0,0,11.44,4.84,3.31,3.31,0,0,0,3.22-3.22,3.24,3.24,0,0,0-3.22-3.22Z"/><path class="cls-5" d="M119.65,176.78a15,15,0,0,1-7.26-5.6c-2.33-3.39-7.92-.17-5.56,3.25A22.4,22.4,0,0,0,117.94,183a3.25,3.25,0,0,0,4-2.25,3.29,3.29,0,0,0-2.25-4Z"/><path class="cls-5" d="M121.89,195.71c14.72-4.87,27.06-15,42-19.25a1.21,1.21,0,0,0-.64-2.33c-15,4.24-27.3,14.39-42,19.26-1.47.48-.84,2.81.64,2.32Z"/><path class="cls-5" d="M132.56,199.06c-2.87-9.24-4.12-18.59-5.89-28.07l-2.2.93,1,2.33c.62,1.42,2.7.2,2.09-1.22l-1-2.33c-.57-1.33-2.44-.32-2.21.93,1.77,9.48,3,18.83,5.89,28.07.46,1.48,2.79.85,2.33-.64Z"/><path class="cls-5" d="M132.1,169.32c2.66,9.68,5.54,19.25,8.67,28.79.49,1.47,2.82.84,2.33-.64-3.13-9.54-6-19.11-8.67-28.79a1.21,1.21,0,0,0-2.33.64Z"/><path class="cls-5" d="M142.17,165.88c2.69,10.8,5.19,21.53,8.6,32.14.48,1.47,2.81.84,2.33-.65-3.41-10.6-5.91-21.33-8.6-32.13a1.21,1.21,0,0,0-2.33.64Z"/><path class="cls-5" d="M155,169.28q3.84,15.66,8.36,31.11a1.2,1.2,0,0,0,2.32-.64q-4.51-15.47-8.35-31.11c-.37-1.51-2.7-.87-2.33.64Z"/><path class="cls-5" d="M119.81,188.42q19.86-8.89,39.79-17.58L158,169.19l-.8,1.2c-.86,1.3,1.23,2.51,2.09,1.22l.79-1.2c.74-1.12-.66-2.09-1.65-1.65q-19.94,8.69-39.79,17.57c-1.41.63-.19,2.72,1.22,2.09Z"/><path class="cls-5" d="M122.89,202.32q22.72-9.56,44.93-20.3c1.4-.67.17-2.76-1.22-2.08Q144.69,190.56,122.24,200c-1.41.6-.79,2.93.65,2.33Z"/><path class="cls-5" d="M149.49,199.82a19.58,19.58,0,0,0,3.25-1.25c0-.08-.91-2-1.07-1.86s0,0,0,0l1.48.84c.72,1.92-.73.74.3.61a8.18,8.18,0,0,0,1.58-1.12q2.28-1.56,4.54-3.15c3.37-2.34,6.84-4.79,10.78-6.08,1.47-.48.84-2.81-.65-2.32-5.06,1.65-9.38,5-13.7,8-.89.61-5.83,3-5.18,4.73a1.27,1.27,0,0,0,1.49.85c1-.14,2-1.31,1.43-2.25-1-1.7-4.36.45-5.43.91-1.42.62-.19,2.7,1.22,2.09Z"/><path class="cls-5" d="M162.66,200.72l10.21-7.08c1.26-.88.06-3-1.22-2.09l-10.21,7.08c-1.27.88-.06,3,1.22,2.09Z"/><path class="cls-5" d="M125.85,177.83a140,140,0,0,0,26.07-9.15c1.41-.65.19-2.74-1.21-2.08a137.87,137.87,0,0,1-25.5,8.9c-1.51.36-.87,2.69.64,2.33Z"/><path class="cls-10" d="M178.67,65.23a23.86,23.86,0,0,0-6.42-17.13C169.3,45,165.3,42.64,161,42.53s-8.76,2.39-10.15,6.45c-1.51,4.43.76,9.17,3,13.3l3.82,7.11-6.42,1.92A5.14,5.14,0,0,0,149,72.42c-1.37,1.35-1.83,3.87-.37,5.1s4.55,1.54,6.45,1.82c9.19-.51,19.74-2.32,28.34-5.63a7.78,7.78,0,0,0,3.81-2.47c.87-1.26.78-3.32-.58-4-.64-.33-1.92-1.7-2.64-1.66a32.81,32.81,0,0,0-5.4.76"/><path class="cls-5" d="M181.89,65.23c.21-12.24-9.39-27.94-23.45-25.71-5.7.9-10.54,5.23-11.18,11.09-.8,7.26,4.35,14.32,7.61,20.4l1.92-4.73c-3.44,1-8.23,1.57-10.63,4.5-2.09,2.55-2.36,6.64.16,9,5.39,5.1,16.51,2.22,22.85,1.09a86.43,86.43,0,0,0,13.05-3.34c3.27-1.13,7.25-2.49,8.43-6.14,1.06-3.28-.56-5.63-3.09-7.48-3.1-2.27-6.26-1.45-9.85-.73-4.06.81-2.34,7,1.71,6.21,1.2-.24,3.43-1.07,4.46-.24s.4.38-.42,1a10.85,10.85,0,0,1-3,1.15,87.63,87.63,0,0,1-13.62,3.44c-4,.7-8.95,1.84-13,1.15a7,7,0,0,1-2.61-.62c-.39-.26-.5-.23-.33.11a.81.81,0,0,1,.76-.86,50.41,50.41,0,0,1,6.84-2.07,3.26,3.26,0,0,0,1.92-4.73c-3-5.51-13.08-21.09-.28-22,9.79-.7,15.44,11.33,15.3,19.47-.07,4.15,6.37,4.15,6.44,0Z"/><path class="cls-5" d="M162.89,78.67c-1,8.42-2.25,16.9-2,25.4a62.49,62.49,0,0,0,5.24,23.11c.81,1.9,3.59.26,2.78-1.62a59.13,59.13,0,0,1-4.82-23.46c0-7.84,1.15-15.65,2.05-23.43.24-2-3-2-3.22,0Z"/><path class="cls-5" d="M176.49,76.83c2.56,2.16,4.38,5,6.52,7.54,2,2.33,4.05,4.58,6.13,6.81,3.24,3.47,6.47,6.94,8.4,11.34.92,2.09,2,4.71,2,7a49.09,49.09,0,0,1-1,6.23c-.48,3.44.55,7.43,4.91,7.23,2.07-.1,2.08-3.32,0-3.22-3.77.17-.66-8.66-.73-10.68-.13-3.83-2.26-8.32-4.27-11.54a63.52,63.52,0,0,0-7.73-9.29c-2-2.16-4-4.35-5.91-6.62s-3.72-5-6.13-7.08c-1.57-1.33-3.86.94-2.28,2.28Z"/><path class="cls-5" d="M134.81,76.88A18.85,18.85,0,0,0,121.23,87.2c-1.78,3.72,3.77,7,5.56,3.25a12.9,12.9,0,0,1,9.73-7.36c4.08-.72,2.35-6.93-1.71-6.21Z"/><path class="cls-5" d="M126.16,67.3l-17.77,2.51c-4.09.58-2.35,6.79,1.71,6.21l17.77-2.51c4.09-.58,2.35-6.78-1.71-6.21Z"/><path class="cls-5" d="M127.73,56l-14.8-1.85c-4.1-.52-4.06,5.93,0,6.44l14.8,1.85c4.11.51,4.07-5.93,0-6.44Z"/><path class="cls-7" d="M254.7,148.93c13.33,2.93,17.64,33.26,12.63,30.43-9.43-5.33-23.4.53-42.62,10.44-6.24,3.22-8.93-15.7-4.12-28.08C225.35,149.49,243.11,144.81,254.7,148.93Z"/><path class="cls-5" d="M253.85,152c7.21,1.79,10.3,11.64,11.64,18a29.52,29.52,0,0,1,.6,4.29,16,16,0,0,1,0,2.08c0,.3-.22,1.14-.2,1.15-.77-.48,2.68-1.2,2.64-1.14l.4.17c-.37-.21-.74-.4-1.13-.58s-.9-.4-1.35-.57a20.4,20.4,0,0,0-6.56-1.29c-12.52-.51-24.89,7-35.7,12.3-1.55.77-.91.11-.4.67a6.39,6.39,0,0,1-.85-1.19,17.7,17.7,0,0,1-1.49-6.65c-.44-5.49,0-11.58,2.23-16.7,4.63-10.84,19.92-14,30.15-10.54,3.94,1.32,5.62-4.89,1.71-6.21-11.82-4-27.39-.53-35.11,9.67-4.21,5.57-5.46,13.18-5.54,20-.06,5,.31,12.05,4.06,15.89a6,6,0,0,0,5.82,1.8,25.36,25.36,0,0,0,4.88-2.32c2.44-1.24,4.89-2.45,7.37-3.61,6.44-3,13.56-6.31,20.77-6.67a15.7,15.7,0,0,1,7.33,1.24c1.7.74,3.19,1.38,4.94.3,3.07-1.89,2.63-6.71,2.27-9.75-1.16-9.89-5.89-23.86-16.79-26.57C251.54,144.82,249.82,151,253.85,152Z"/><path class="cls-5" d="M269.09,175c2.81.46,5.65.84,8.34-.33a7.48,7.48,0,0,0,4.49-5.31,3.31,3.31,0,0,0-2.25-4,3.25,3.25,0,0,0-4,2.25c-.38,2.05-3.44,1.38-4.9,1.14a3.31,3.31,0,0,0-4,2.25c-.43,1.54.52,3.68,2.24,4Z"/><path class="cls-5" d="M271.09,164.69a13.52,13.52,0,0,0,9.82-8.7,3.24,3.24,0,0,0-2.25-4,3.29,3.29,0,0,0-4,2.25,7,7,0,0,1-5.32,4.2,3.25,3.25,0,0,0-2.25,4,3.29,3.29,0,0,0,4,2.25Z"/><path class="cls-5" d="M267.61,157.77a22.42,22.42,0,0,0,8.13-11.42c1.22-4-5-5.67-6.21-1.71a15.1,15.1,0,0,1-5.17,7.57,3.34,3.34,0,0,0-1.16,4.41c.8,1.36,3,2.21,4.41,1.15Z"/><path class="cls-5" d="M267.72,168.61c-15.5-.26-30.3-6.23-45.86-5.82a1.21,1.21,0,0,0,0,2.42c15.55-.42,30.35,5.55,45.86,5.81a1.21,1.21,0,0,0,0-2.41Z"/><path class="cls-5" d="M260.66,177.35a222.9,222.9,0,0,0-1.28-26.47,1.22,1.22,0,0,0-2.25-.61l-.08.14,1.65-.43c-.66-.38-.87-1.43-1.59-1.84a1.23,1.23,0,0,0-1.66.43l-.08.14a1.21,1.21,0,0,0,2.09,1.22l.08-.14-1.65.43c.66.38.86,1.43,1.59,1.84a1.23,1.23,0,0,0,1.65-.43l.08-.14-2.25-.61a222.91,222.91,0,0,1,1.29,26.47,1.21,1.21,0,0,0,2.41,0Z"/><path class="cls-5" d="M247.71,148.93c.36,10,.47,20,.33,30.07a1.21,1.21,0,0,0,2.41,0c.14-10,0-20-.33-30.07-.05-1.55-2.47-1.56-2.41,0Z"/><path class="cls-5" d="M237.07,148.66c.67,11.11,1.49,22.09,1.4,33.23a1.21,1.21,0,0,0,2.41,0c.09-11.14-.73-22.12-1.39-33.23-.09-1.55-2.51-1.56-2.42,0Z"/><path class="cls-5" d="M225.86,155.73q1,16.08,1.33,32.19a1.21,1.21,0,0,0,2.42,0q-.31-16.11-1.33-32.19c-.1-1.54-2.52-1.55-2.42,0Z"/><path class="cls-5" d="M267.83,161.05q-21.6-2.53-43.22-4.87a1.21,1.21,0,0,0-.85,2.06l1.12.91c1.19,1,2.91-.73,1.7-1.71l-1.12-.91-.85,2.06q21.62,2.34,43.22,4.88c1.54.18,1.53-2.24,0-2.42Z"/><path class="cls-5" d="M268.74,175.21q-24.23-2.28-48.31-5.87c-1.52-.22-2.18,2.1-.64,2.33q24.39,3.63,49,6c1.55.14,1.54-2.27,0-2.42Z"/><path class="cls-5" d="M242.91,180.81c-1-.11-5.22-1.15-5.21,1,0,1.14,1.43,1.56,2.35,1.41a1.22,1.22,0,0,0,.89-1.16c.11-2.08-6-2.92-7.27-3.29-5-1.54-10.24-3.29-15.54-3.34a1.21,1.21,0,0,0,0,2.42c4.35,0,8.65,1.37,12.78,2.6q2.82.84,5.61,1.71a8.68,8.68,0,0,0,1.85.6c1.27,0,0,1,.15-.7l.89-1.17c.78-.13.34,0,.16-.08-.72-.5-.6,1.76-.07,2.1s2.8.21,3.41.27c1.55.16,1.54-2.25,0-2.41Z"/><path class="cls-5" d="M230.94,185.64l-11.86-3.7c-1.48-.47-2.12,1.86-.64,2.33L230.3,188c1.48.47,2.12-1.86.64-2.33Z"/><path class="cls-5" d="M258.59,152.72a138.43,138.43,0,0,1-27.3-.9c-1.54-.21-1.52,2.21,0,2.41a138.43,138.43,0,0,0,27.3.91c1.54-.1,1.55-2.52,0-2.42Z"/><path class="cls-6" d="M162.83,57.63A13.58,13.58,0,0,1,161,54.31a5.45,5.45,0,0,1-.3-1.75c0-.17.12-1.27,0-1.12l-1.42.83.24-.1L157,51.84l.17.12c3.41,2.37,6.63-3.21,3.25-5.56-3.59-2.49-5.86,2.45-6.12,5.17-.33,3.39,1,6.57,2.93,9.31,2.35,3.38,7.93.17,5.56-3.25Z"/><path class="cls-5" d="M188.18,193.46c.77,4.94,2.36,17.11,5.95,20.6,1.12,1.09,5.16,2.93,8,2.12a7.66,7.66,0,0,0,4.7-3.91c2.23-4.34,3.93-9.64,3.16-14.47a17.12,17.12,0,0,1-21.78-4.34"/><path class="cls-5" d="M186.62,193.88a116.76,116.76,0,0,0,2.54,13.27c1,3.7,2.34,7.65,6,9.46,11.7,5.81,17.57-9.45,16.42-18.81a1.64,1.64,0,0,0-2.42-1.39,15.67,15.67,0,0,1-19.84-4.09c-1.28-1.63-3.54.66-2.27,2.28a18.85,18.85,0,0,0,23.73,4.59l-2.42-1.39a21.83,21.83,0,0,1-3.4,14.45c-2.56,3.58-8.33,3.06-10.61-.56-3.29-5.23-3.68-12.69-4.61-18.66-.32-2-3.42-1.18-3.11.85Z"/><path class="cls-9" d="M297.82,262.1c7.92.4,20.41,14.46,25.12,23.26s7.52,15.54,7.15,25.7c-.39,10.6-4.26,19.15-9.45,26.81s-12.84,12.54-21.06,12.65c-6.64.09-13.31-2.82-19.62-6.39-5-2.84-9.22-8-13.33-12.83-3.29-3.86-8.23-13.59-10-18.77-1.54-4.47-2.53-2.42-.18-7.13,1.9-3.79,7.76-6.21,11.33-6.79a59.33,59.33,0,0,0,4.91,8.26c3.08,4.12,10.88,15.27,14.1,17.72,9.33,7.11,10.65,5.41,19.53-2.18,1.05-.9,2.83-4.58,3.42-6s1.87-6.81,1.55-8.58c-1.94-10.5-1.64-10.9-5.44-18.49-.37-.76-2.63-8.53-2.93-9.44-.41-1.25-1.94-6.31-2.41-7.53-1.91-5-.69-6.38-2.67-10.23"/><path class="cls-5" d="M297.82,264.52c4.63.41,8.95,4.69,12.05,7.77a64,64,0,0,1,10.3,13c6.85,11.77,9.7,24.42,5.34,37.67-3.69,11.25-12.35,24.61-25.48,25.08-13.86.49-26.78-10.41-33.8-21.49-3.26-5.15-5.48-10.65-7.88-16.21a17.36,17.36,0,0,1-.84-1.74c-.2-.77-.52.69.15-.29.87-1.27,1.22-2.62,2.4-3.7a17,17,0,0,1,8.34-3.72l-2.73-1.11c3.83,7.84,9.6,15,15.07,21.8,4.6,5.68,12.37,12.81,19.94,8.32s13.37-12.56,13.05-21.69a50.11,50.11,0,0,0-2.46-12.48c-1.08-3.42-2.94-6.4-3.91-9.5-1.16-3.73-2.25-7.48-3.43-11.2a64,64,0,0,1-2.09-6.74c-.52-2.64-.75-5-1.93-7.46-1.33-2.8-5.5-.36-4.17,2.44a20.19,20.19,0,0,1,1.31,5.53,39.21,39.21,0,0,0,1.68,5.8q1.31,4,2.5,8a59.32,59.32,0,0,0,2.92,8.64,39.33,39.33,0,0,1,3.23,8.71c.89,4.12,1.89,8.12,1,12.29a17.23,17.23,0,0,1-5.48,9.85c-2.61,2.23-5.61,5.56-9.3,4a24.14,24.14,0,0,1-8.68-7c-5.52-6.64-11.24-13.93-15-21.7a2.45,2.45,0,0,0-2.73-1.11C261,297.42,255,300.92,253,307.1c-.66,2,.06,3.16.89,5,1.35,3,2.39,6.09,3.85,9,6.9,14.07,18,26.18,33.48,30.58,15.87,4.51,28.29-5.57,35.37-19a47.76,47.76,0,0,0,.87-43.87,71.89,71.89,0,0,0-12.88-18.68c-4.39-4.61-10.08-9.9-16.74-10.48-3.09-.28-3.07,4.55,0,4.83Z"/><path class="cls-9" d="M256.26,297.7c-4-14.42,4.32-12.7,1.53-25.61-.64-2.95-6.45-3.34-8.66-2-1.47.88-3.77,5.68-3.93,7.37-.84,9,4.4,14.08,11.06,20.26-5.12-6.42-13.36-12.6-21.59-12.82-2.62-.07-7.62,2.1-6.28,5.4,3.28,13,19,4,27.87,7.42"/><path class="cls-5" d="M258.59,297.05c-.92-3.5-1.48-6.94-.32-10.43.71-2.14,1.77-4.1,2.2-6.32.56-2.93.68-7.25-.78-9.95s-4.64-3.43-7.36-3.41c-6.48.07-9.8,7.09-9.62,12.9.25,8.38,6.06,14.19,11.85,19.56,2.31,2.16,5.35-1,3.41-3.41-5.18-6.33-12.4-12-20.68-13.27-5.92-.9-13.34,2.33-10.88,9.35,4.67,13.34,19.61,4.6,29.21,7.95,2.94,1,4.21-3.63,1.29-4.65-3.8-1.33-7.88-.93-11.8-.57-3.61.33-8.55,1.31-11.76-.88C232,293,230,290.21,231,288.69c1.37-2.17,5.64-1.3,7.48-.81,6.51,1.74,11.92,6.41,16.11,11.52L258,296c-4.3-4-9.43-8.41-10.31-14.57a11.13,11.13,0,0,1,1.66-7.77c1.06-1.78,3.72-2.87,5.66-1.37,1.46,1.13,1.1,5.28.77,7a28.26,28.26,0,0,1-1.69,4.86c-1.82,4.71-1.39,9.37-.13,14.19.79,3,5.45,1.73,4.66-1.29Z"/><path class="cls-6" d="M261.92,294.7c.11-5.06-.33-13.18,2.29-17.51a8.79,8.79,0,0,1,3.72-2.75c1.2-.38,4.19-.3,5.26.36a6.37,6.37,0,0,1,2.78,3.05c.38,1.11.5,3.41-1.24,4.56-5,3.32-9.45,2.09-12.81,12.29"/><path class="cls-5" d="M264.34,294.7c.07-4.57-.32-9.43,1-13.87.68-2.34,2-4,4.54-4.2,1.64-.11,4.66,1,3.9,3.21-.7,2-6.29,3.33-8,4.55-3.23,2.36-4.9,6-6.18,9.66-1,2.95,3.64,4.21,4.66,1.29s2.25-5.75,4.91-7.43c1.7-1.07,3.65-1.65,5.41-2.6,5-2.71,5.3-8.88.53-12.14-4.06-2.77-10.35-1.32-13,2.8-3.34,5.25-2.52,12.81-2.61,18.73-.06,3.11,4.77,3.11,4.83,0Z"/><path class="cls-6" d="M253.44,302.18c-4.54-2.2-14.41-3.75-18.29-.52a11.77,11.77,0,0,0-3.41,5.09c-.39,1.67,1.16,4.62,2.53,5.65a5.76,5.76,0,0,0,5,.5c3.66-1,4.28-3.08,6.85-5.89a54.91,54.91,0,0,1,7.3-4.83"/><path class="cls-5" d="M254.66,300.09c-5-2.27-11.07-3.41-16.48-2.32s-10.36,6.76-8.33,12.28c2.23,6.07,9.07,7.12,13.93,3.22,2-1.58,3.11-3.91,5.16-5.4a42,42,0,0,1,5.72-3.6c2.78-1.4.34-5.57-2.44-4.18a38.94,38.94,0,0,0-6.8,4.4c-2.43,2-5.5,8.15-9.46,6-2.77-1.5-1.7-4.47,0-6.26a6.81,6.81,0,0,1,4.77-2,23.83,23.83,0,0,1,11.48,2c2.81,1.28,5.27-2.88,2.44-4.18Z"/><path class="cls-5" d="M263.5,326.11c7.71,1.36,15-4.62,16.19-12.2.47-3-4.19-4.35-4.66-1.28-.72,4.71-5,9.75-10.25,8.82-3-.54-4.34,4.12-1.28,4.66Z"/><path class="cls-5" d="M277.29,342.76c8.46,1.4,15.64-5.26,16-13.67.16-3.1-4.68-3.09-4.83,0-.24,5-4.66,9.88-9.93,9-3-.5-4.35,4.15-1.29,4.65Z"/><path class="cls-5" d="M304.64,327.56c5.23,2,8.42,9.69,6.93,14.83-.87,3,3.79,4.27,4.66,1.28,2.27-7.87-2.63-17.79-10.3-20.77-2.9-1.13-4.16,3.54-1.29,4.66Z"/><path class="cls-5" d="M313,311c6-1.68,12.24,6,13.12,11.1.53,3.06,5.19,1.76,4.66-1.28-1.35-7.72-10.61-16.86-19.06-14.47-3,.84-1.72,5.5,1.28,4.65Z"/><path class="cls-5" d="M308.26,291.7a16,16,0,0,1,13-4.42c3.09.3,3.07-4.53,0-4.83a20.66,20.66,0,0,0-16.38,5.83c-2.24,2.16,1.17,5.58,3.41,3.42Z"/><path class="cls-9" d="M179.7,309.92c1.08-9.59-4.62-15.86-2.38-24.82.42-1.64,4.72-3.3,6.33-3,1.41.29,3.66,2.23,4,3.75,1.65,8-3.14,18.22-7.93,24,3.5-6,10.9-13.7,17.61-14.21,2.13-.16,4.95,2.37,5.72,4.61,2.51,8.72-14,8.53-23.33,9.6"/><path class="cls-5" d="M182.11,309.92c.4-4.59-.58-8.87-1.7-13.29a30.47,30.47,0,0,1-1.19-6.62c-.08-2.61-.13-4.39,2.56-5.22,5.53-1.71,3.5,8.36,2.76,10.9A36.37,36.37,0,0,1,178,308.21l3.79,2.93c2.72-4.48,6.44-8.81,11.05-11.41,2.09-1.18,4.42-2.33,6.49-.6,1.24,1,2.1,2.75,1.07,4.16-1.63,2.26-6.32,2.67-8.81,3-3.94.57-7.93.74-11.88,1.17-3.06.34-3.09,5.18,0,4.83,6.85-.75,26,.27,26-10.35a9.06,9.06,0,0,0-3.92-7.05c-2.63-1.93-5.38-1.88-8.37-.78-6.75,2.46-12.16,8.55-15.8,14.55-1.38,2.28,2,5.11,3.8,2.93A40,40,0,0,0,190,293.58c.85-5.12.49-13.13-6.32-13.86a10.2,10.2,0,0,0-6.72,2.18c-2.22,1.72-2.5,4.5-2.55,7.17-.12,7.14,3.54,13.63,2.9,20.85-.27,3.1,4.56,3.08,4.83,0Z"/><path class="cls-6" d="M173,308.15c-1.15-4-5-8.33-7.45-10-3.17-2.24-6.51-3.12-7.29-6.92a5.6,5.6,0,0,1,.83-4.68c1.38-1.67,4.05-2.8,6-1.88A14.11,14.11,0,0,1,170.2,289c3.75,5.2,2.39,12.77,2.75,19.17"/><path class="cls-5" d="M175.28,307.51a23.93,23.93,0,0,0-6.36-9.67c-2.46-2.31-8.62-4.2-8.38-8.12s4-3,6-1.19a11,11,0,0,1,3.39,5.85c1.06,4.46.4,9.23.59,13.77.14,3.1,5,3.12,4.83,0-.26-6.19.84-13-2.1-18.76-2.34-4.59-7.75-9.13-13-6.7-5.14,2.37-6,9.18-2.18,13.2,2,2.06,4.72,3,6.87,4.82a18.68,18.68,0,0,1,5.72,8.09c1,2.93,5.65,1.67,4.66-1.29Z"/><path class="cls-6" d="M182.7,315.18c2.45-1.52,15.28-2.52,19.49-.31,2.56,1.34,3.75,3.86,5,6.46.52,1.08-.57,4.45-1.42,4.85-1.21.56-3.42,2.41-4.7,2-5.55-1.66-8.16-11.25-18.37-13"/><path class="cls-5" d="M183.92,317.27c3.16-1.72,8.31-1.39,11.76-1.23,1.94.09,4.14.18,5.81,1.25s4.59,4.92,2.78,7c-3.22,3.74-6.66-1.82-8.69-4-3.38-3.67-7.27-6.44-12.23-7.44-3-.61-4.34,4-1.29,4.66,7.07,1.42,9.72,7.07,14.94,11.16,2.29,1.79,4.58,2.52,7.29,1.16s4.67-3,5.28-6.21-1.42-6.53-3.52-8.77-4.82-3.08-7.81-3.43c-5-.6-12.14-.83-16.76,1.67-2.73,1.49-.29,5.66,2.44,4.18Z"/><path class="cls-9" d="M119.09,294.31c-8.79,3-17.28,16.41-19.6,26.31s-2.52,15.26,1.36,24.75c4.05,9.91,10.68,18.68,19.14,24.19s18.76,7.58,28.07,4.94c7.51-2.13,10.62-3.64,16.08-9.66,2.55-2.82,9-13.07,12-19A49.88,49.88,0,0,0,180.61,328c.22-4.74,1.44-5.8-2.82-9.48-3.39-2.93-5.62-4.13-9.76-3.52a.3.3,0,0,0-.2.1,22.58,22.58,0,0,0-2.38,4.72c-2.07,4.93-5.26,13.82-7.17,17.91-5.95,12.72-17.89,17.12-30.5,12.9-1.49-.5-4.75-3.38-5.91-4.57a31.26,31.26,0,0,1-4.67-7.6c-3.33-11.58,2-21.58,8.8-30.76a4.49,4.49,0,0,0,1.13-2.49c0-1.32-1-2.39-1.88-3.27-2-1.91-4.17-5.76-6.16-7.67"/><path class="cls-5" d="M118.44,292c-10.14,3.8-17,14.95-20.35,24.77a45.34,45.34,0,0,0-2.58,17.76c.55,6.21,3,12.23,5.89,17.69,5.9,11,15.45,20.49,27.59,24.22,10.52,3.23,23.62,1.6,32.33-5.48a45.72,45.72,0,0,0,9.09-10.66,111.23,111.23,0,0,0,8.18-14A51.11,51.11,0,0,0,183,328.92c.16-2.05.61-4.34.26-6.4-.4-2.38-2-4.11-3.74-5.66a16.93,16.93,0,0,0-6.43-4c-2-.56-5.29-1-6.94.55-1.1,1-1.73,2.86-2.31,4.16-1.15,2.57-2.15,5.21-3.16,7.83-3.95,10.2-7.83,21.89-20.1,24.07-6.16,1.1-12.21-.27-16.62-4.74a19.51,19.51,0,0,1-5.06-17,33.23,33.23,0,0,1,4-10.81c1.7-3.06,4-5.71,5.75-8.72s.5-5.53-1.65-7.92-3.88-5.32-6.17-7.68-5.57,1.18-3.41,3.41c1.8,1.87,3.15,4.1,4.78,6.12.71.87,2,1.83,2.18,2.95.15,1.38-1.51,2.91-2.29,4.05-3.32,4.8-6.25,10.09-7.54,15.84-2.12,9.48.63,18.89,8.17,25.13,6.93,5.72,17.69,5.81,25.56,1.88,9.23-4.61,12.75-14.06,16.23-23.08,1.55-4,2.78-8.78,5.29-12.31-.34.47-1.06.34-.27.73.49.24,1.71.05,2.3.22a10.46,10.46,0,0,1,3.47,2c2,1.57,3.37,2.77,3.2,5.34a60.8,60.8,0,0,1-2.9,16c-1.62,4.68-4.36,9-7,13.19-4.94,8-10,14.65-19.32,17.49-12.37,3.78-24.91-.14-34.11-9s-16.63-22.76-14.47-35.89a48.55,48.55,0,0,1,6.14-17.39c3-5,7.21-10.58,12.89-12.7,2.88-1.09,1.63-5.76-1.29-4.66Z"/><path class="cls-5" d="M104.52,307.27c-2.85,2.46.68,8,3,9.61,3.65,2.53,8.59,2.56,12.83,2,3-.39,3.08-5.23,0-4.83-2.74.35-5.72.57-8.38-.34s-3.21-2.59-3.69-5.16l-.62,2.35.28-.24c2.35-2-1.08-5.43-3.42-3.41Z"/><path class="cls-5" d="M95.86,330.67c2,3.91,4.89,7.76,9.18,9.34s8.75.17,12.48-2.26c2.6-1.69.18-5.87-2.43-4.17s-5.68,3.09-8.81,1.73c-3-1.29-4.81-4.33-6.25-7.07s-5.62-.32-4.17,2.43Z"/><path class="cls-5" d="M118.09,367.63c8.86-1.44,15.76-9.18,11.78-18.18-1.26-2.83-5.42-.38-4.17,2.44,2.74,6.19-3.65,10.23-8.89,11.08-3.06.5-1.77,5.15,1.28,4.66Z"/><path class="cls-5" d="M145.62,352.17c6,4.08,8.19,14.85,2.81,20-2.25,2.16,1.17,5.57,3.41,3.42,7.78-7.46,4.77-21.81-3.78-27.61-2.58-1.74-5,2.44-2.44,4.18Z"/><path class="cls-5" d="M159.72,337.28A12.22,12.22,0,0,1,171,346c.89,3,5.55,1.7,4.66-1.29a17.18,17.18,0,0,0-15.95-12.28c-3.11-.1-3.11,4.73,0,4.83Z"/><path class="cls-6" d="M114.52,276.13c9.48,5.3,19.78,9.22,28.63,15.62,3.36,2.43,6.58-3.16,3.25-5.57-8.85-6.39-19.15-10.31-28.63-15.61-3.63-2-6.88,3.53-3.25,5.56Z"/><path class="cls-6" d="M82.39,216.77a102.35,102.35,0,0,0,15.88,13.12c1.72,1.15,3.34-1.64,1.62-2.79a97.2,97.2,0,0,1-15.22-12.61c-1.46-1.48-3.74.8-2.28,2.28Z"/><path class="cls-6" d="M89.84,215.52A24.15,24.15,0,0,1,96.18,221c1.31,1.6,3.58-.69,2.28-2.28a26.79,26.79,0,0,0-7-6,1.61,1.61,0,0,0-1.62,2.78Z"/><path class="cls-6" d="M74.83,148.88A44.43,44.43,0,0,1,88.32,156c1.64,1.26,3.25-1.53,1.63-2.78a47.25,47.25,0,0,0-14.26-7.44c-2-.64-2.83,2.47-.86,3.11Z"/><path class="cls-6" d="M73.78,154.39l7.35,3.79c1.84.95,3.47-1.83,1.63-2.78l-7.36-3.79c-1.83-1-3.47,1.83-1.62,2.78Z"/><path class="cls-6" d="M277,244.44a61.66,61.66,0,0,1,9.58,9c1.35,1.57,3.62-.71,2.28-2.28a65.63,65.63,0,0,0-10.24-9.54c-1.65-1.25-3.26,1.55-1.62,2.78Z"/></g><g class="cls-11"><path class="cls-12" d="M210,332.75A161,161,0,0,1,90.15,64.26a161,161,0,1,0,220.7,233A160.31,160.31,0,0,1,210,332.75Z"/></g><g class="cls-13"><path class="cls-6" d="M178,46.75a161,161,0,0,1,136.77,246A161,161,0,1,0,54.23,104.79,160.66,160.66,0,0,1,178,46.75Z"/></g><circle class="cls-6" cx="349" cy="329.25" r="40.5"/><path class="cls-12" d="M387,329.25A38,38,0,1,1,356.5,292c17.76,3.55,30.2,19.38,30.5,37.27.05,3.21,5.05,3.22,5,0a43,43,0,1,0-34.84,42.21c20.24-3.79,34.5-21.92,34.84-42.21C392.05,326,387.05,326,387,329.25Z"/><path class="cls-14" d="M184,16.25c102.45,0,181.5,75.05,181.5,177.5,0,36.89-2.5,44.5-8.5,78.5,13-35,19.5-37.14,19.5-82.5C376.5,87.3,293.45,4.25,191,4.25A185.34,185.34,0,0,0,34.83,89.61C68.86,49.05,126.91,16.25,184,16.25Z"/><path class="cls-15" d="M196,362.25c-102.45,0-184.5-83.05-184.5-185.5,0-34,10.13-65.8,27.39-93.18A184.62,184.62,0,0,0,5.5,189.75c0,102.45,83.05,185.5,185.5,185.5a184.69,184.69,0,0,0,93.61-25.33C260.26,358.05,223.54,362.25,196,362.25Z"/><g class="cls-11"><path class="cls-12" d="M355,360.75a40.51,40.51,0,0,1-36.43-58.21A40.5,40.5,0,1,0,385.43,347,40.4,40.4,0,0,1,355,360.75Z"/></g><path class="cls-16" d="M337.16,341.63a4.35,4.35,0,0,1,.17,1,1.69,1.69,0,0,0,2.57,1.71,3,3,0,0,1,1.46-.2L361.48,314l-4.08-2.73Z"/><polygon class="cls-17" points="356.31 305.5 358.82 301.75 356.31 305.5 356.31 305.5 356.31 305.5"/><path class="cls-18" d="M362.43,303.78l-2.69,4,4.09,2.72,2-2.95c1.15-1.72,3.08-3.62,1.35-4.77l1.26.83-1.57-1C365.12,301.44,363.58,302.05,362.43,303.78Z"/><path class="cls-17" d="M364,300.71a3.75,3.75,0,0,0-5.21,1A3.75,3.75,0,0,1,364,300.71Z"/><polygon class="cls-19" points="356.26 305.58 356.31 305.5 356.31 305.5 356.31 305.5 356.26 305.58 356.26 305.58"/><polygon class="cls-19" points="356.26 305.58 354.69 307.93 356.26 305.58 356.26 305.58"/><polygon class="cls-19" points="364.64 316.04 365.88 314.18 364.64 316.04 364.64 316.04"/><path class="cls-3" d="M336.13,343.42l-.8-.15-4.92,10.61,8.86-6.82.34-.26,1.65-2.47a3.05,3.05,0,0,0-1.31.21,1.85,1.85,0,0,1-2.8-1.86,4.69,4.69,0,0,0-.12-.86l-.55.83A2.34,2.34,0,0,0,336.13,343.42Z"/><path class="cls-19" d="M339.9,344.37a1.69,1.69,0,0,1-2.57-1.71,4.35,4.35,0,0,0-.17-1l-.07.1c.29.92,0,2.08.91,2.7s2.19-.37,3.31-.18l.05-.08A3,3,0,0,0,339.9,344.37Z"/><path class="cls-19" d="M338,344.43c-.95-.62-.62-1.78-.91-2.7l-.06.09a4.69,4.69,0,0,1,.12.86,1.85,1.85,0,0,0,2.8,1.86,3.05,3.05,0,0,1,1.31-.21l.05-.08C340.19,344.06,339.09,345.18,338,344.43Z"/><polygon class="cls-19" points="366.84 302.59 364.03 300.71 366.84 302.59 366.84 302.59"/><path class="cls-20" d="M334.24,341a2.12,2.12,0,0,1,2.15-.25,1.61,1.61,0,0,1,.77.92l20.24-30.32L354,309l-21.34,32-.09.33h0A2.07,2.07,0,0,0,334.24,341Z"/><path class="cls-21" d="M359.74,307.8l2.69-4c1.15-1.73,2.69-2.34,4.41-1.19L364,300.71a3.75,3.75,0,0,0-5.21,1l-2.51,3.75Z"/><rect class="cls-22" x="354.96" y="306.41" width="3.86" height="4.04" transform="translate(-97.79 434.01) rotate(-56.27)"/><path class="cls-19" d="M336.35,340.79a1.53,1.53,0,0,1,.74.94l.07-.1a1.61,1.61,0,0,0-.77-.92,2.12,2.12,0,0,0-2.15.25,2.07,2.07,0,0,1-1.7.35h0l0,.09C333.89,341.89,334.88,340,336.35,340.79Z"/><polygon class="cls-6" points="366.94 312.6 366.94 312.6 369.44 308.85 366.94 312.6"/><path class="cls-23" d="M361.48,314l-20.12,30.13a1.75,1.75,0,0,1,.7.32,2.13,2.13,0,0,1,.59,2.08,2.12,2.12,0,0,0,.33,1.71h0l.26-.2,21.34-32h0Z"/><path class="cls-24" d="M365.8,307.57l-2,2.95,3.11,2.08,2.5-3.75a3.76,3.76,0,0,0-1-5.22l-1.26-.83C368.88,304,367,305.85,365.8,307.57Z"/><rect class="cls-25" x="362.24" y="311.47" width="3.86" height="3.65" transform="translate(-98.6 442.21) rotate(-56.27)"/><path class="cls-26" d="M339.27,347.06l-8.86,6.82-2,4.21a.78.78,0,0,0,.25.26.92.92,0,0,0,1.09,0l13-10a2.31,2.31,0,0,1-.31-1.76,2,2,0,0,0-.53-1.93,1.5,1.5,0,0,0-.68-.3l-1.65,2.47Z"/><path class="cls-6" d="M342.65,346.57a2.13,2.13,0,0,0-.59-2.08,1.75,1.75,0,0,0-.7-.32l-.05.08a1.51,1.51,0,0,1,.69.31c1.29,1.06-.07,2.69.91,3.78l.08-.06h0A2.12,2.12,0,0,1,342.65,346.57Z"/><path class="cls-27" d="M336.3,340.87a2,2,0,0,0-2,.25,2.29,2.29,0,0,1-1.75.39l-4.25,15.83a1,1,0,0,0,0,.37.81.81,0,0,0,.16.38l2-4.21,4.16-7.64,1.56-2.82a2.34,2.34,0,0,1,.35-.77l.55-.83A1.5,1.5,0,0,0,336.3,340.87Z"/><rect class="cls-28" x="358.68" y="308.46" width="3.86" height="4.91" transform="translate(-98.2 438.19) rotate(-56.27)"/><path class="cls-12" d="M369.16,302.34c-2.22-1.49-4.8-4-7.64-3.74-3.35.29-4.85,3.67-6.5,6.15a1.52,1.52,0,0,0,.53,2.05q5.32,3.54,10.63,7.1a1.54,1.54,0,0,0,2.05-.54c2.22-3.32,5.41-7.43,1.24-10.79-1.49-1.2-3.63.91-2.13,2.12,2.67,2.15-.32,5.1-1.7,7.15l2.06-.54-10.63-7.09.54,2.05c1.32-2,2.75-5.62,5.66-4.25a36.64,36.64,0,0,1,4.38,2.92C369.26,306,370.76,303.41,369.16,302.34Z"/><path class="cls-12" d="M364.53,309.38l-7.55-5a1.53,1.53,0,0,0-2.05.54l-3.08,4.53a1.53,1.53,0,0,0,.54,2.06L363,318.56a1.54,1.54,0,0,0,2.06-.54l3.08-4.53a1.54,1.54,0,0,0-.54-2.06l-3.08-2.05c-1.61-1.08-3.11,1.52-1.51,2.59l3.08,2-.54-2-3.08,4.54,2-.54-10.63-7.09.54,2.05,3.08-4.54-2,.54,7.55,5C364.63,313,366.13,310.45,364.53,309.38Z"/><path class="cls-12" d="M361.33,314l-7.52-5a1.54,1.54,0,0,0-2.05.54l-11,16.57-7,10.49c-.86,1.3-2.23,2.77-2.65,4.31a1.53,1.53,0,0,0,1.05,1.84c1.36.49,2.4-.71,3.75.31.65.49.47,2.07,1.59,2.67,1.4.75,2.62-.41,3.67.84.45.54.08,2,.78,2.77a1.5,1.5,0,0,0,1.81.24c1.24-1,2-2.55,2.86-3.83l7.07-10.62,11.31-17a1.53,1.53,0,0,0-.54-2L361.33,314c-1.61-1.07-3.11,1.53-1.51,2.59l3.11,2.08-.54-2.05L351.9,332.39,345,342.83c-.74,1.11-1.5,2.21-2.23,3.34-.47.73-1,1.22-.49.82l1.82.23c-.72-.79.42-2.6-.93-3.79s-2.85,0-4-.84-.5-2.43-2.17-3.25-2.82,1-4,.52l1,1.85a35.68,35.68,0,0,1,2.73-4.17l7.15-10.73,10.49-15.75-2.05.53,7.52,5C361.43,317.69,362.93,315.09,361.33,314Z"/><path class="cls-12" d="M344,346.56a3.42,3.42,0,0,0-1.27-3.22c-1.17-.8-3.25.21-4.05-.66s0-2.27-1.59-3.11c-1.73-.91-2.81.41-4.48.44a1.55,1.55,0,0,0-1.45,1.1l-2.74,10.19c-.51,1.92-2.72,6.41-.74,8.11,2.26,2,5.66-1.92,7.27-3.16l8.62-6.63a1.54,1.54,0,0,0,.69-1.69l-.26-1.37c0-1.93-3-1.93-3,0a3.93,3.93,0,0,0,.37,2.16L342,347l-6.22,4.79-4.52,3.48c-.93.71-2.12,1.21-1.85,2.05.32,1,.92-1.76,1-2.09l1.46-5.44,2.12-7.91-1.44,1.1c1,0,2.36-.53,3.15.35.31.33.31,1.24.67,1.69a3,3,0,0,0,2.16,1.17c.55.06,2.46-.66,2.41.34C340.88,348.49,343.88,348.48,344,346.56Z"/><path class="cls-12" d="M328.33,357.34a1,1,0,0,0,0,.37.81.81,0,0,0,.16.38.78.78,0,0,0,.25.26.92.92,0,0,0,1.09,0l6.29-4.84a15.26,15.26,0,0,0-5.83-3.34Z"/><path class="cls-15" d="M292.52,342.36a57.5,57.5,0,0,0,96.29,25.39,57.49,57.49,0,0,1-89.29-31.39Z"/><path class="cls-14" d="M342.55,276.74a53,53,0,0,1,38.35,91.39,50.15,50.15,0,0,0-38.35-91.39Z"/><path class="cls-12" d="M359.29,273.6C392.82,205.49,382.2,122.36,332,65.39,286.27,13.51,213.88-9.21,146.68,7,80.87,22.88,27.41,74.92,9.6,140.2c-18.21,66.74,2.59,139.87,53.16,187,54.55,50.86,136.11,64.62,204.39,34.44a190.85,190.85,0,0,0,27.63-15.14l-3.67-1.5c9.74,34.21,47.76,53.48,80.94,39.62,31.95-13.35,46.15-52.22,30.22-83a60.59,60.59,0,0,0-44.47-31.7c-3.15-.48-4.51,4.34-1.33,4.82,31.92,4.92,53.91,36.31,45.85,68.05-7.9,31.07-41.74,48.95-71.9,38.25-16.89-6-29.62-20.23-34.49-37.35a2.52,2.52,0,0,0-3.67-1.49c-62.93,41.4-146.43,40.21-207.75-3.59C30.05,299.69,1,232.49,9.48,166.17,17.81,100.9,62.56,43.57,123.76,19.48c62.81-24.72,136.1-12.34,187.08,32,53.6,46.57,75.8,121.71,55.76,190A184.67,184.67,0,0,1,355,271.07C353.56,274,357.87,276.49,359.29,273.6Z"/><path class="cls-12" d="M349.5,189.75c-.28,65.86-42.08,126.45-104.24,149-62.52,22.66-134,3.12-176.47-48-42.56-51.32-47.92-126.28-13.3-183.22C89.86,51,157.73,21.19,222.62,34.4c64.06,13,114.65,65.89,125,130.44a163.57,163.57,0,0,1,1.93,24.91c0,3.22,5,3.22,5,0-.29-68-43.35-130.06-107.28-153.57C182.63,12.43,107.89,33,64.43,86.27,21.16,139.29,15.56,216,51.17,274.53c35.46,58.33,105.18,88.85,172.11,75.53C289.4,336.89,342.15,282,352.5,215.31a172.12,172.12,0,0,0,2-25.56C354.51,186.53,349.51,186.53,349.5,189.75Z"/></g></svg>