<?xml version="1.0" encoding="utf-8"?>
<!-- Generator: Adobe Illustrator 24.2.0, SVG Export Plug-In . SVG Version: 6.00 Build 0)  -->
<svg version="1.1" id="Layer_1" xmlns="http://www.w3.org/2000/svg" xmlns:xlink="http://www.w3.org/1999/xlink" x="0px" y="0px"
	 viewBox="0 0 223 219" style="enable-background:new 0 0 223 219;" xml:space="preserve">
<style type="text/css">
	.st0{clip-path:url(#SVGID_2_);}
	.st1{fill:#183E41;}
	.st2{fill:#FFFFFF;}
	.st3{fill:#FAC706;}
	.st4{fill:#183E42;}
	.st5{fill:#7EC7CD;}
	.st6{fill:#E4252E;}
	.st7{fill:#7CC6CD;}
</style>
<g>
	<defs>
		<rect id="SVGID_1_" x="1.2" y="0" width="221.8" height="217.9"/>
	</defs>
	<clipPath id="SVGID_2_">
		<use xlink:href="#SVGID_1_"  style="overflow:visible;"/>
	</clipPath>
	<g class="st0">
		<g>
			<path class="st1" d="M162.8,150.3c-3.1-5.1-6.8-10.7-12.2-11.7c-2.2-0.4-4.4,0-6.4,0.3c-8,1.5-15.9,3.1-23.6,4.9
				c0.2,1.6,0.2,3.3-0.2,4.8c-0.8,3.6-3.3,5-6.7,6.3c-3.2,1.2-7,2-10.1,0.3c-2.5-1.3-3.8-3.5-4.6-6c-13.2,3.6-26.5,7.9-40.6,13
				l0.1,0.4l0,0l0,0l0.1,0.4c0,0,0.1,0,0.1,0l0.5,0.7l-0.4,0.2c0.8,1.3,2.4,2.5,3.9,3.6c1.5,1.1,3,2.2,3.7,3.4l0.2,0.3L67,171
				c33.3-11.7,60.9-17.5,95.5-20.1l0.7,0L162.8,150.3z"/>
			<path class="st2" d="M103.5,155.2c3.2,1.6,7,0.8,10.1-0.3c3.3-1.2,5.9-2.6,6.7-6.3c0.4-1.6,0.4-3.2,0.2-4.8
				c-0.7,0.2-1.3,0.3-2,0.5c0.3,3.5-0.7,6.7-4.7,8.4c-2.5,1.1-5.7,2-8.4,1.2c-2.6-0.8-3.9-2.8-4.6-5.1c-0.7,0.2-1.3,0.4-2,0.5
				C99.7,151.7,101,153.9,103.5,155.2z"/>
		</g>
		<g>
			<path class="st1" d="M63.3,233.5c-1.3-2.3-3.9-3.4-6.5-3.7c0,1.2,0,2.4,0,3.6c0,1.9-0.1,4,0,6C59.6,239,65.5,237.5,63.3,233.5z"
				/>
			<path class="st1" d="M64.2,186.2c-0.6-2.5-2.4-5.5-4.3-7.2c-1.3-1.1-2.5-1.4-3.8-1.5c0.1,5.6,0.1,11.2,0.2,16.8
				c0.9-0.6,1.8-1.1,2.9-1.4C62.6,191.7,65.3,190.4,64.2,186.2z"/>
			<path class="st1" d="M68.7,167.4c-3.2-2.3-6.5-4.6-9.7-6.9c-1.2-0.8-3.2,0-3.1,1.5c0.1,4.5,0.1,8.9,0.2,13.4
				c1.6-0.1,3,0.1,4.6,1.4c2.4,2,4.3,5,5.3,7.9c0.9,2.5,1.2,5.6-0.8,7.7c-2.3,2.4-6.2,2.2-8.8,4.3c0.1,7.7,0.2,15.3,0.3,23
				c0,2.7,0.1,5.3,0.1,8c3.8,0.4,8.2,2.5,8.9,6.4c0.9,5-5,6.8-8.7,7.3c0.1,1.3,0.3,2.5,0.7,3.7c1.3,3.6,4.3,6.5,6.6,9.4
				c3,3.8,6.1,7.6,9.1,11.4c1.6,2,4.7-0.6,3-2.7c-0.6-0.7-1.2-1.5-1.8-2.2l-6.9-89.9C69.3,171,70.4,168.6,68.7,167.4z"/>
			<path class="st2" d="M56.2,196.9C56.3,196.9,56.3,196.8,56.2,196.9c0.1-0.9,0.1-1.7,0-2.6c-0.5,0.3-0.9,0.7-1.4,1"/>
			<path class="st2" d="M65.9,184.8c-1-2.9-2.9-5.9-5.3-7.9c-1.6-1.3-3-1.5-4.6-1.4c0,0.7,0,1.4,0,2.1c1.3,0,2.6,0.3,3.8,1.5
				c1.9,1.7,3.7,4.7,4.3,7.2c1.1,4.2-1.7,5.5-5.1,6.6c-1.1,0.4-2,0.9-2.9,1.4c0,0.8,0,1.7,0,2.5c2.6-2.1,6.5-1.9,8.8-4.3
				C67.1,190.4,66.8,187.3,65.9,184.8z"/>
			<path class="st2" d="M65.6,234.1c-0.7-3.9-5.1-5.9-8.9-6.4c0,0.7,0,1.4,0,2c2.6,0.3,5.2,1.5,6.5,3.7c2.2,4-3.6,5.5-6.5,5.9
				c0,0.7,0.1,1.4,0.1,2C60.7,240.9,66.6,239.2,65.6,234.1z"/>
		</g>
		<g>
			<path class="st1" d="M107.4,68c1.7-0.4,7.5-2.1,9.2-2.5c4.1-1.1,8.2-2.3,12.4-2.5c6.8-0.4,13.5,1.8,20,3.9l-42.1,11.3"/>
		</g>
		<g>
			<path class="st1" d="M45.6,144.5c-4.6-3-9.3-6.3-11.8-11.2c-1.3-2.7-1.9-5.7-2.5-8.7c-2.6-14.2-6-23.7-7.4-38
				c13.2-4.5,30.2-7.4,43.9-10.1c0,0,5.8,1.6,8.2,5.4"/>
		</g>
		<g>
			<path class="st3" d="M92.8,262.1c3.1,14,4,31.2,7.1,45.2c0.3,1.4,3.4,1,6.7,0.4c2.6-4.7,5.1-9.4,7.7-14.1c0.3-0.6,0.7-1.3,0.8-2
				c0.2-1-0.1-2-0.2-3c-1.4-10.6-2.5-19.3-3.9-30.1"/>
			<g>
				<path class="st4" d="M91.6,262.4c3,13.8,3.8,28.1,6.5,42c0.2,1.3,0.3,3.1,1.1,4.1c0.8,0.9,2.2,1,3.3,1c1.4,0,3.2-0.1,4.5-0.6
					c0.8-0.3,1-1.1,1.4-1.8c0.5-1,1.1-2,1.6-3c1.9-3.4,3.8-6.7,5.6-10.2c0.8-1.6,0.9-2.9,0.7-4.7c-0.3-1.9-0.5-3.8-0.8-5.7
					c-1.1-8.3-2.1-16.7-3.2-25c-0.2-1.5-2.6-1.5-2.4,0c1.1,8.3,2.1,16.5,3.2,24.8c0.3,2,0.5,4.1,0.8,6.1c0.2,1.2,0.2,2.1-0.4,3.2
					c-0.5,0.9-1,1.8-1.5,2.7c-2.1,3.9-4.3,7.8-6.4,11.7c0.2-0.2,0.5-0.4,0.7-0.6c-1.2,0.2-2.3,0.4-3.5,0.5c-0.4,0-1.5,0.2-1.8-0.1
					c-0.3-0.2-0.5-2.2-0.6-2.8c-0.2-1-0.4-1.9-0.5-2.9c-0.8-4.4-1.4-8.9-2-13.4c-1.1-8.7-2.1-17.5-4-26
					C93.6,260.3,91.3,260.9,91.6,262.4L91.6,262.4z"/>
			</g>
		</g>
		<g>
			<path class="st3" d="M153.7,251.9c2.7,9.1,5.5,18.3,8.2,27.4c0.3,1,0.6,2,1.1,2.9c0.6,1.1,1.3,1.9,2.1,2.6
				c2.7,2.7,5.5,5.1,8.3,7.4c1.5,1.2,1.6,2.1,4.5,1.3c1.5-0.7,3-1.5,4.5-2.2c0.4-0.2,0.9-0.5,1.2-0.8c0.3-0.5,0.3-1.1,0.2-1.6
				c-2.7-14.2-5.4-28.3-8.2-42.5c-0.1-0.4-0.7-0.8-0.9-0.4"/>
			<g>
				<path class="st4" d="M152.6,252.2c2.3,7.7,4.6,15.5,6.9,23.2c1,3.4,1.7,7.1,4.2,9.7c2.5,2.7,5.3,5.1,8.2,7.4
					c0.8,0.7,1.6,1.5,2.5,2.1c1,0.5,2,0.5,3.1,0.3c1.8-0.3,3.5-1.5,5.1-2.3c1.3-0.7,2.5-1.4,2.5-3.1c0-1.8-0.6-3.7-1-5.4
					c-0.4-2-0.8-3.9-1.1-5.9c-0.8-3.9-1.5-7.8-2.3-11.7c-0.8-4.4-1.7-8.8-2.5-13.2c-0.4-2.3-0.8-4.6-1.3-6.8c-0.3-1.3-1.7-2.8-3-1.5
					c-1.1,1.1,0.6,2.8,1.7,1.7c0,0,0.1-0.1,0.1-0.1c-0.3,0.1-0.6,0.2-0.9,0.4c-0.6,0,0,1.7,0,2.1c0.2,0.8,0.3,1.6,0.5,2.4
					c0.3,1.8,0.7,3.6,1,5.4c0.6,3.3,1.3,6.5,1.9,9.8c1.3,6.8,2.6,13.5,3.9,20.3c0.1,0.7,0.4,1.5,0.4,2.2c0,0.9-0.5,1-1.2,1.3
					c-1.5,0.7-3.2,1.9-4.9,2.1c-0.8,0.1-1.1-0.2-1.6-0.7c-1.1-0.9-2.2-1.8-3.2-2.7c-2.3-2-4.8-4-6.8-6.4c-1-1.2-1.5-2.8-1.9-4.3
					c-0.5-1.7-1-3.3-1.5-5c-2.2-7.3-4.4-14.7-6.6-22C154.4,250.1,152.1,250.7,152.6,252.2L152.6,252.2z"/>
			</g>
		</g>
		<g>
			<path class="st2" d="M100.3,136.8c0-0.3-0.4-0.6-0.7-0.5c1,3.9,1.8,7.7,2.6,11.7c0.6,2.9,3.3,4.9,6.2,4.5
				c1.2-0.2,2.5-0.5,3.7-0.8c2-0.6,4.1-1.7,4.6-3.7c0.2-0.8,0.1-1.7,0-2.5c-0.6-4.3-1.7-8.6-3.3-12.6c-0.3,0.3-0.5,0.8-0.4,1.2"/>
			<g>
				<path class="st4" d="M101.5,136.4c-0.3-0.8-1-1.5-1.9-1.4c-0.8,0.1-1.4,0.7-1.2,1.5c0.9,3.7,1.8,7.4,2.5,11.1
					c0.5,2.7,2.3,5.1,5.1,5.8c1.5,0.4,3,0.1,4.4-0.2c1.5-0.3,3-0.7,4.3-1.4c1.2-0.6,2.3-1.5,2.8-2.8c0.7-1.6,0.4-3.2,0.2-4.9
					c-0.6-4-1.7-7.9-3.2-11.7c-0.3-0.7-1.4-1.3-2-0.5c-0.5,0.6-0.8,1.2-0.8,2.1c0,1.6,2.4,1.6,2.4,0c0-0.1,0-0.2,0.1-0.4
					c-0.7-0.2-1.3-0.4-2-0.5c1.4,3.6,2.5,7.3,3.1,11.2c0.3,1.7,0.7,3.5-0.7,4.7c-1.1,1-2.7,1.4-4.1,1.7c-1.5,0.4-3.1,0.8-4.6,0.2
					c-1.3-0.6-2.2-1.7-2.5-3c-0.5-1.9-0.8-4-1.2-5.9c-0.4-2-0.9-4-1.4-6c-0.4,0.5-0.8,1-1.2,1.5c-0.2-0.1-0.3-0.3-0.5-0.4
					C99.6,138.6,101.9,137.9,101.5,136.4L101.5,136.4z"/>
			</g>
		</g>
		<g>
			<path class="st2" d="M106.5,76c11.7-2.6,31-6.9,42.7-9.5c6.1,16.9,10.5,34.3,13.1,52.1c0.1,0.9,0.2,1.8-0.3,2.6
				c-0.5,0.8-1.6,1.1-2.6,1.3c-37.7,8.8-71.3,17.5-109.8,22.3c-4.4,0.5-6.5-10.4-6.9-12.1c-3.8-15.4-5-25.1-7.8-40.8
				c12.5-2.8,28.6-6,41.1-8.8"/>
			<g>
				<path class="st4" d="M107,77.5c14.2-3.2,28.5-6.3,42.7-9.5c-0.7-0.4-1.3-0.8-2-1.1c5.5,15.2,9.6,30.9,12.3,46.9
					c0.3,1.9,0.8,3.8,0.9,5.7c0,1.6-2.8,1.6-3.9,1.9c-4,0.9-8,1.9-12,2.8c-7.7,1.8-15.5,3.7-23.2,5.5c-15.4,3.6-30.9,6.9-46.5,9.6
					c-8,1.4-16.1,2.6-24.2,3.7c-0.5,0.1-1.3,0.2-1.7,0.2c-0.1,0-0.4-0.2-0.5-0.3c-0.7-0.6-1.2-1.4-1.6-2.2c-1-1.8-1.5-3.9-2-5.9
					c-3.1-12.4-5.2-25-7.4-37.6c-0.3-1.9-0.7-3.9-1-5.8c-0.4,0.7-0.8,1.3-1.1,2c13.7-3,27.4-5.8,41.1-8.8c2-0.4,1.2-3.6-0.9-3.1
					c-13.7,3-27.4,5.8-41.1,8.8c-0.9,0.2-1.3,1.2-1.1,2c1.3,7.5,2.6,15,3.9,22.4c1.2,6.5,2.7,13,4.2,19.5c0.4,2,1,4,1.7,5.9
					c0.8,2,1.8,4.3,3.8,5.6c0.8,0.5,1.7,0.8,2.7,0.7c2.2-0.1,4.3-0.6,6.5-0.8c4.2-0.6,8.4-1.2,12.6-1.9c16.4-2.6,32.6-6,48.8-9.7
					c8.2-1.9,16.3-3.8,24.5-5.7c4.1-1,8.3-2,12.4-2.9c2-0.5,4.1-0.9,6.1-1.4c1.5-0.5,2.9-1.3,3.4-3c0.5-1.8-0.2-4-0.5-5.8
					c-0.3-2.1-0.7-4.2-1.1-6.3c-0.8-4.1-1.6-8.2-2.6-12.3c-1.9-8.2-4.2-16.3-6.9-24.3c-0.7-2-1.4-4.1-2.1-6.1
					c-0.3-0.9-1.1-1.3-2-1.1c-14.2,3.2-28.5,6.3-42.7,9.5C104.1,74.9,104.9,78,107,77.5L107,77.5z"/>
			</g>
		</g>
		<g>
			<g>
				<path class="st4" d="M95.5,120.2c1.7,2.1,4,4,6.7,4.5c2.5,0.5,5-0.1,6.9-1.8c0.5-0.4,0.4-1.3,0-1.7c-0.5-0.5-1.2-0.4-1.7,0
					c-1.4,1.2-3.2,1.5-4.9,1.1c-2.2-0.6-4-2.1-5.3-3.8c-0.4-0.5-1.3-0.4-1.7,0C95,119,95.1,119.7,95.5,120.2L95.5,120.2z"/>
			</g>
		</g>
		<g>
			<path class="st3" d="M59.4,101.2c-7.5,3.6-6.8,13.4-3.3,19.7c4.4,7.9,14.9,10,22.3,5.1c7.1-4.7,7.4-15.3,2.8-21.9
				C76.8,97.5,65.7,97.2,59.4,101.2z"/>
			<g>
				<path class="st4" d="M58.8,100.1c-6.4,3.1-7.4,10.7-5.6,16.9c2,6.9,7.4,11.9,14.7,12.7c7.1,0.8,14.2-3,16.7-9.8
					c2.2-6.1,0.7-14.6-4.5-18.9C74.4,96.2,65,96.3,58.8,100.1c-1.3,0.8-0.1,2.9,1.2,2.1c4.7-3,11.5-3.4,16.5-0.8
					c5.2,2.8,7.3,9.5,6.4,15.1c-1,6.3-6.2,10.6-12.5,10.9c-6.2,0.3-11.7-3.2-14.1-8.8c-2.4-5.6-2.5-13.3,3.7-16.3
					C61.4,101.5,60.2,99.5,58.8,100.1z"/>
			</g>
		</g>
		<g>
			<g>
				<path class="st4" d="M83.6,84.3c1.2-3.6-2.1-6.7-4.7-8.5c-3.5-2.3-7.1-4.3-11-6c-0.6-0.3-1.3-0.2-1.7,0.4
					c-0.3,0.5-0.2,1.4,0.4,1.7c3.4,1.5,6.7,3.2,9.8,5.2c2,1.3,5.8,3.6,4.8,6.5C80.8,85.2,83.1,85.8,83.6,84.3L83.6,84.3z"/>
			</g>
		</g>
		<g>
			<g>
				<path class="st4" d="M90.7,81.7c-2.1-4.7-4.1-9.4-6.2-14.1c-0.3-0.6-1.1-0.7-1.7-0.4c-0.6,0.4-0.7,1.1-0.4,1.7
					c2.1,4.7,4.1,9.4,6.2,14.1c0.3,0.6,1.1,0.7,1.7,0.4C90.9,83,91,82.3,90.7,81.7L90.7,81.7z"/>
			</g>
		</g>
		<g>
			<g>
				<path class="st4" d="M97.7,80.6c-0.6-2.9-1.3-5.9-1.7-8.8c-0.3-2.3-0.3-5,1.3-6.8c1-1.2-0.7-2.9-1.7-1.7c-2,2.2-2.4,5.1-2.1,8
					c0.3,3.4,1.2,6.7,1.8,10C95.7,82.8,98,82.1,97.7,80.6L97.7,80.6z"/>
			</g>
		</g>
		<g>
			<g>
				<path class="st4" d="M107,78.1c-1.3-6,0.8-12.5,5.2-16.8c1.1-1.1-0.6-2.8-1.7-1.7c-5.1,4.9-7.3,12.3-5.8,19.2
					C105,80.2,107.3,79.6,107,78.1L107,78.1z"/>
			</g>
		</g>
		<g>
			<path class="st3" d="M121,84.9c-7.8,2.8-8,12.7-5.1,19.3c3.7,8.3,13.9,11.4,21.8,7.2c7.6-4,8.8-14.5,4.9-21.5
				C138.6,82.8,127.6,81.5,121,84.9z"/>
			<g>
				<path class="st4" d="M120.6,83.7c-6.7,2.6-8.5,9.7-7.4,16.3c1.3,7,6.2,12.7,13.3,14.1c6.9,1.4,14.6-1.6,17.6-8.2
					c2.7-6,2.1-14.4-2.7-19.3c-5.3-5.4-14.7-6-21.2-2.8c-1.4,0.7-0.2,2.8,1.2,2.1c5-2.5,11.8-2.2,16.4,0.9
					c4.9,3.2,6.3,10.3,4.9,15.7c-1.6,6.1-7.1,9.7-13.3,9.5c-6.1-0.2-11.4-4.1-13.3-9.9c-1.8-5.6-1.4-13.6,5-16
					C122.7,85.5,122.1,83.1,120.6,83.7z"/>
			</g>
		</g>
		<g>
			<g>
				<path class="st4" d="M43.3,102.6c-0.3-1.1-0.5-2.2-0.6-3.3c0-0.6-0.1-1.1,0-1.7c0-0.3,0-0.5,0-0.8c0-0.1,0-0.3,0-0.4
					c0-0.1,0.1-0.2,0-0.1c0.1-0.1,0.4-0.2,0.6-0.2c0.3-0.1,0.5-0.2,0.8-0.3c0.6-0.2,1.1-0.4,1.7-0.6c1.2-0.4,2.4-0.8,3.5-1.1
					c1-0.3,0.6-1.9-0.4-1.6c-1.3,0.4-2.7,0.9-4,1.3c-0.7,0.2-1.3,0.4-2,0.6c-0.6,0.2-1.2,0.3-1.5,0.9c-0.4,0.5-0.4,1.2-0.4,1.8
					c0,0.7,0,1.3,0,2c0.1,1.3,0.3,2.7,0.7,3.9C42.1,104,43.6,103.6,43.3,102.6L43.3,102.6z"/>
			</g>
		</g>
		<g>
			<g>
				<path class="st4" d="M147.2,119.9c2.6-0.5,5.2-1.3,7.7-2.4c0.3-0.1,0.4-0.4,0.4-0.7c0.2-2.1-0.1-4.3-0.7-6.4
					c-0.3-1-1.8-0.6-1.6,0.4c0.6,1.9,0.8,3.9,0.6,6c0.1-0.2,0.3-0.5,0.4-0.7c-2.3,1-4.8,1.8-7.3,2.2c-0.4,0.1-0.7,0.6-0.6,1
					C146.3,119.8,146.8,120,147.2,119.9L147.2,119.9z"/>
			</g>
		</g>
		<g>
			<g>
				<path class="st4" d="M102.1,144.2c4.9,1,10,0.3,14.3-2.2c0.9-0.5,0.1-1.9-0.8-1.4c-4,2.3-8.6,3-13.1,2
					C101.5,142.5,101.1,144,102.1,144.2L102.1,144.2z"/>
			</g>
		</g>
		<g>
			<path class="st2" d="M67.4,170.4c1.2,31.9,7,61.9,8.2,93.8c41.9-4.2,74.9-15.2,116.3-22.5c0.1-15.3,2.4,2.5-12.5-48
				c-4.1-13.8-11.5-24.8-16.5-40.9"/>
			<g>
				<path class="st4" d="M65.7,170.4c0.9,24.4,4.7,48.6,6.8,72.9c0.6,6.9,1.1,13.9,1.4,20.9c0,0.8,0.7,1.7,1.6,1.6
					c15.5-1.6,31-4.2,46.2-7.4c14.7-3.1,29.4-6.7,44.1-9.9c8.8-1.9,17.6-3.7,26.4-5.3c0.7-0.1,1.2-0.9,1.2-1.6c0-2.3,0.2-4.7,0.2-7
					c0-1.6-0.5-3.2-1-4.7c-1.4-4.1-2.8-8.2-4.2-12.3c-1.4-4.3-2.7-8.6-4-12.8c-1.7-5.6-3.2-11.3-5.2-16.8
					c-4.4-12.1-10.9-23.3-14.8-35.7c-0.6-2-3.7-1.1-3.1,0.9c3.4,11,8.9,21.2,13.3,31.8c2.2,5.4,3.8,11.1,5.5,16.7
					c1.4,4.7,2.8,9.3,4.3,14c1.5,4.8,3.1,9.5,4.8,14.2c0.3,1,0.7,1.9,1,2.9c0.1,0.3,0.2,0.7,0.2,1c0.1,0.5,0,0,0,0
					c0,0.1,0,0.3,0,0.4c0.2,2.5-0.2,5-0.2,7.5c0.4-0.5,0.8-1,1.2-1.6c-15.3,2.7-30.4,6.1-45.5,9.6c-14.6,3.3-29.2,6.7-44,9.2
					c-8.8,1.5-17.6,2.8-26.5,3.7c0.5,0.5,1.1,1.1,1.6,1.6c-0.9-24.4-4.7-48.6-6.8-72.9c-0.6-6.9-1.1-13.9-1.4-20.9
					C68.9,168.3,65.7,168.3,65.7,170.4L65.7,170.4z"/>
			</g>
		</g>
		<g>
			<path class="st5" d="M172.9,182.2c-35.5,9.4-67.5,17.1-103.4,25l3.1,14.3c35.3-9.3,71.1-16.7,106.9-23.7"/>
			<g>
				<path class="st4" d="M172.6,181c-26.6,7.1-53.4,13.7-80.2,19.8c-7.7,1.8-15.4,3.5-23.2,5.2c-0.7,0.1-1,0.9-0.8,1.5
					c1,4.8,2,9.6,3.1,14.3c0.1,0.6,0.9,1,1.5,0.8c27.6-7.2,55.4-13.4,83.3-19c7.9-1.6,15.7-3.1,23.6-4.7c1.5-0.3,0.9-2.6-0.6-2.3
					c-28,5.4-55.9,11.1-83.6,17.8c-7.8,1.9-15.6,3.8-23.3,5.9c0.5,0.3,1,0.6,1.5,0.8c-1-4.8-2-9.6-3.1-14.3c-0.3,0.5-0.6,1-0.8,1.5
					c26.9-5.9,53.7-12.2,80.4-19c7.7-2,15.3-4,23-6C174.8,183,174.1,180.6,172.6,181L172.6,181z"/>
			</g>
		</g>
		<g>
			<g>
				<path class="st4" d="M78.8,225.6c1.9-1,4-1.6,6.1-1.6c1,0,1-1.6,0-1.6c-2.4,0-4.8,0.7-6.9,1.8C77.1,224.8,77.9,226.1,78.8,225.6
					L78.8,225.6z"/>
			</g>
		</g>
		<g>
			<g>
				<path class="st4" d="M168.6,209.9c2.4-0.9,4.9-1.6,7.4-2.1c0.4-0.1,0.7-0.6,0.6-1c-0.1-0.4-0.6-0.6-1-0.6
					c-2.5,0.5-5,1.2-7.4,2.1c-0.4,0.2-0.7,0.5-0.6,1C167.7,209.7,168.2,210,168.6,209.9L168.6,209.9z"/>
			</g>
		</g>
		<g>
			<g>
				<path class="st4" d="M147.8,159.3c1.9-0.4,3.8-1.2,5.7-1.7c0.8-0.2,1.7-0.4,2.6-0.4c0.4,0,0.9,0,1.3,0.1c-0.2,0-0.1,0,0,0.1
					c0.7,1.1,1.1,2.3,1.5,3.5c0.5,1.5,0.9,2.9,1.3,4.4c0.2,1,1.8,0.6,1.6-0.4c-0.4-1.6-0.9-3.2-1.4-4.8c-0.4-1.2-0.8-2.8-1.8-3.8
					c-0.5-0.5-1.2-0.6-1.8-0.6c-1-0.1-1.9,0.1-2.9,0.3c-2.2,0.5-4.2,1.4-6.4,1.9C146.4,158,146.8,159.5,147.8,159.3L147.8,159.3z"/>
			</g>
		</g>
		<g>
			<g>
				<path class="st4" d="M75.6,181.5c-0.9-2.3-1.5-4.7-1.7-7.2c-0.1,0.2-0.3,0.5-0.4,0.7c0.4-0.3,1-0.4,1.6-0.6
					c0.9-0.2,1.9-0.4,2.8-0.7c1.8-0.4,3.9-0.9,5.4-2c0.4-0.3,0.5-0.7,0.3-1.1c-0.2-0.3-0.8-0.5-1.1-0.3c-0.8,0.6-1.8,0.9-2.7,1.2
					c-1.2,0.4-2.3,0.6-3.5,0.9c-0.9,0.2-1.9,0.4-2.8,0.7c-0.3,0.1-0.7,0.3-1,0.5c-0.4,0.3-0.3,0.7-0.3,1.1c0,0.5,0.1,0.9,0.2,1.4
					c0.3,2,0.8,3.9,1.5,5.8c0.2,0.4,0.5,0.7,1,0.6C75.4,182.4,75.7,181.9,75.6,181.5L75.6,181.5z"/>
			</g>
		</g>
		<g>
			<g>
				<path class="st4" d="M80.1,246.5c1.2,2.8,2.1,5.8,2.8,8.8c0.2,1,1.8,0.6,1.6-0.4c-0.7-3-1.6-5.9-2.8-8.8c-0.2-0.4-0.5-0.7-1-0.6
					C80.3,245.6,80,246.1,80.1,246.5L80.1,246.5z"/>
			</g>
		</g>
		<g>
			<g>
				<path class="st4" d="M85.4,249.4c1.1,1.7,2,3.5,2.7,5.4c0.2,0.4,0.5,0.7,1,0.6c0.4-0.1,0.7-0.6,0.6-1c-0.8-2-1.8-3.9-2.9-5.8
					c-0.2-0.4-0.7-0.5-1.1-0.3C85.3,248.5,85.2,249.1,85.4,249.4L85.4,249.4z"/>
			</g>
		</g>
		<g>
			<g>
				<path class="st4" d="M90.4,249.8c0.8,1,1.6,2,2.3,3c0.1,0.2,0.4,0.2,0.6,0.2c0.2,0,0.4-0.1,0.6-0.2c0.1-0.2,0.2-0.4,0.2-0.6
					c0-0.2-0.1-0.4-0.2-0.6c-0.8-1-1.6-2-2.3-3c-0.1-0.2-0.4-0.2-0.6-0.2c-0.2,0-0.4,0.1-0.6,0.2c-0.1,0.2-0.2,0.4-0.2,0.6
					C90.2,249.4,90.3,249.6,90.4,249.8L90.4,249.8z"/>
			</g>
		</g>
		<g>
			<g>
				<path class="st4" d="M178,233c0.2,0.9,0.3,1.8,0.5,2.6c0.1,0.4,0.6,0.7,1,0.6c0.4-0.1,0.6-0.5,0.6-1c-0.2-0.9-0.3-1.8-0.5-2.6
					c-0.1-0.4-0.6-0.7-1-0.6C178.1,232.1,177.9,232.6,178,233L178,233z"/>
			</g>
		</g>
		<g>
			<g>
				<path class="st4" d="M178.8,233.6c1,0,1-1.6,0-1.6C177.8,232,177.8,233.6,178.8,233.6L178.8,233.6z"/>
			</g>
		</g>
		<g>
			<g>
				<path class="st4" d="M182.7,221.6c1,4.2,2,8.4,3,12.6c0.2,1,1.8,0.6,1.6-0.4c-1-4.2-2-8.4-3-12.6
					C184,220.2,182.5,220.6,182.7,221.6L182.7,221.6z"/>
			</g>
		</g>
		<g>
			<g>
				<path class="st4" d="M181.2,229.1c0.5,2.6,1,5.3,1.5,7.9c0.1,0.4,0.6,0.7,1,0.6c0.4-0.1,0.6-0.6,0.6-1c-0.5-2.6-1-5.3-1.5-7.9
					c-0.1-0.4-0.6-0.7-1-0.6C181.3,228.2,181.1,228.7,181.2,229.1L181.2,229.1z"/>
			</g>
		</g>
		<g>
			<g>
				<path class="st4" d="M53.2,115.7c-0.5,0.2-1.1,0.4-1.6,0.6c-0.1,0-0.3,0.1-0.4,0.1c-0.1,0-0.1,0-0.2,0c0,0-0.2,0-0.1,0
					c0.2,0-0.1,0-0.1,0c-0.1,0-0.1,0-0.2,0c-0.1,0-0.3,0-0.4,0c-0.2,0,0,0,0.1,0c0,0-0.1,0-0.2,0c-0.1,0-0.2,0-0.3-0.1
					c-0.1,0-0.1,0-0.2-0.1c-0.2-0.1,0,0,0.1,0c-0.1-0.1-0.2-0.1-0.3-0.1c0,0-0.1-0.1-0.1-0.1c-0.2-0.1,0.1,0,0.1,0
					c0,0-0.2-0.2-0.3-0.2c0,0-0.1-0.2,0,0c0.1,0.1,0,0,0,0c0,0,0-0.1-0.1-0.1c-0.1-0.1,0.1,0.3,0,0c-0.2-0.6-0.8-1.1-1.5-0.8
					c-0.6,0.2-1.1,0.9-0.8,1.5c0.5,1.3,1.6,2.2,3,2.4c1.5,0.2,2.9-0.2,4.2-0.8c0.3-0.1,0.5-0.3,0.7-0.6c0.2-0.3,0.2-0.6,0.1-0.9
					C54.6,116,53.9,115.4,53.2,115.7L53.2,115.7z"/>
			</g>
		</g>
		<g>
			<g>
				<path class="st4" d="M51.2,109.7c-0.2,0-0.5,0-0.7,0c-0.1,0-0.1,0-0.2,0c-0.2,0,0.3,0.1,0,0c-0.1,0-0.2,0-0.4-0.1
					c-0.2-0.1-0.5-0.1-0.7-0.2c-0.1,0-0.1,0-0.2-0.1c-0.2-0.1,0,0,0.1,0c-0.1-0.1-0.3-0.1-0.4-0.2c-0.2-0.1-0.4-0.2-0.6-0.4
					c0,0-0.1-0.1-0.1-0.1c0,0-0.2-0.2-0.1-0.1c0.2,0.1-0.1,0-0.1-0.1c0,0-0.1-0.1-0.1-0.1c-0.2-0.2-0.4-0.4-0.5-0.5
					c0,0-0.1-0.1-0.1-0.1c-0.1-0.1,0-0.1,0,0c0-0.1-0.2-0.2-0.2-0.3c-0.3-0.5-1.1-0.8-1.7-0.4c-0.5,0.3-0.8,1.1-0.4,1.7
					c1.4,2.1,3.8,3.5,6.4,3.4c0.6,0,1.2-0.5,1.2-1.2C52.4,110.3,51.9,109.7,51.2,109.7L51.2,109.7z"/>
			</g>
		</g>
		<g>
			<g>
				<path class="st4" d="M54.2,105.3c-0.5-0.2-1-0.5-1.5-0.8c-0.2-0.2-0.5-0.4-0.7-0.5c0.1,0.1,0.2,0.1,0,0c-0.1,0-0.1-0.1-0.2-0.1
					c-0.1-0.1-0.2-0.2-0.3-0.3c-0.4-0.4-0.8-0.8-1.2-1.2c0-0.1-0.1-0.1-0.1-0.2c0.2,0.3,0,0,0,0c-0.1-0.1-0.2-0.2-0.2-0.3
					c-0.2-0.2-0.3-0.5-0.5-0.8c-0.3-0.6-1.1-0.8-1.7-0.4c-0.6,0.4-0.8,1.1-0.4,1.7c1.3,2.2,3.3,4.1,5.7,5.1c0.3,0.1,0.6,0.2,0.9,0.1
					c0.3-0.1,0.6-0.3,0.7-0.6C54.9,106.4,54.8,105.5,54.2,105.3L54.2,105.3z"/>
			</g>
		</g>
		<g>
			<g>
				<path class="st4" d="M142.6,89.3c2.7-0.7,3.9-3.6,4.7-6c0.2-0.6-0.2-1.3-0.8-1.5c-0.7-0.1-1.3,0.2-1.5,0.8
					c-0.2,0.5-0.3,1-0.5,1.6c0,0.1-0.1,0.1-0.1,0.2c0.1-0.3,0-0.1,0,0c-0.1,0.1-0.1,0.3-0.2,0.4c-0.1,0.2-0.3,0.5-0.4,0.7
					c-0.1,0.1-0.1,0.2-0.2,0.3c0,0.1-0.1,0.1-0.1,0.2c0.1-0.3,0.1-0.1,0,0c-0.2,0.2-0.3,0.4-0.5,0.6c0,0-0.1,0.1-0.1,0.1
					c0.2-0.2,0.1-0.1,0,0c-0.1,0.1-0.2,0.1-0.3,0.2c-0.1,0-0.1,0.1-0.2,0.1c-0.2,0.1,0.3-0.1,0,0c-0.1,0-0.3,0.1-0.4,0.1
					c-0.6,0.2-1,0.9-0.8,1.5C141.3,89,141.9,89.4,142.6,89.3L142.6,89.3z"/>
			</g>
		</g>
		<g>
			<g>
				<path class="st4" d="M144.5,94c2.8-0.2,5.4-1.9,6.6-4.5c0.3-0.6,0.2-1.3-0.4-1.7c-0.5-0.3-1.4-0.2-1.7,0.4
					c-0.1,0.3-0.3,0.5-0.4,0.7c-0.1,0.1-0.1,0.2-0.2,0.3c-0.1,0.1-0.1,0.1,0,0c-0.1,0-0.1,0.1-0.2,0.2c-0.2,0.2-0.4,0.4-0.6,0.6
					c-0.1,0.1-0.2,0.2-0.3,0.3c-0.2,0.2,0.2-0.2,0,0c-0.1,0-0.1,0.1-0.2,0.1c-0.2,0.2-0.5,0.3-0.7,0.4c-0.1,0.1-0.3,0.1-0.4,0.2
					c-0.2,0.1,0.2-0.1,0,0c-0.1,0-0.1,0-0.2,0.1c-0.3,0.1-0.5,0.2-0.8,0.2c-0.1,0-0.3,0.1-0.4,0.1c-0.2,0,0,0,0,0c0,0-0.2,0-0.2,0
					c-0.6,0.1-1.2,0.5-1.2,1.2C143.3,93.4,143.8,94.1,144.5,94L144.5,94z"/>
			</g>
		</g>
		<g>
			<g>
				<path class="st4" d="M145.6,99.9c3.4,0,6.7-1.9,8.5-4.9c0.3-0.5,0.1-1.4-0.4-1.7c-0.6-0.3-1.3-0.1-1.7,0.4
					c-0.1,0.2-0.2,0.3-0.3,0.5c0,0.1-0.1,0.1-0.1,0.2c-0.2,0.3,0.1-0.1,0,0.1c-0.2,0.3-0.5,0.5-0.7,0.8c-0.1,0.1-0.2,0.2-0.4,0.3
					c-0.1,0.1-0.1,0.1-0.2,0.2c-0.2,0.1,0,0-0.1,0.1c-0.3,0.2-0.6,0.4-0.9,0.6c-0.3,0.2-0.6,0.3-0.9,0.5c0.2-0.1,0,0-0.1,0
					c-0.1,0-0.2,0.1-0.3,0.1c-0.2,0.1-0.3,0.1-0.5,0.2c-0.3,0.1-0.7,0.2-1,0.2c-0.2,0,0.1,0-0.1,0c-0.1,0-0.2,0-0.3,0
					c-0.2,0-0.4,0-0.6,0c-0.6,0-1.2,0.5-1.2,1.2C144.4,99.4,144.9,99.9,145.6,99.9L145.6,99.9z"/>
			</g>
		</g>
		<g>
			<g>
				<g>
					<path class="st4" d="M54.7,115.7c9.1-2.2,17-7.9,26.3-9.7c0.5-0.1,0.3-0.9-0.2-0.8c-9.2,1.8-17.1,7.5-26.3,9.7
						C54,115,54.2,115.8,54.7,115.7L54.7,115.7z"/>
				</g>
			</g>
			<g>
				<g>
					<g>
						<path class="st4" d="M63.2,127c-1.9-8.3-3.6-16.7-4.5-25.2c-0.1-0.5-0.9-0.5-0.8,0c1,8.5,2.6,17,4.6,25.4
							C62.6,127.7,63.3,127.5,63.2,127L63.2,127z"/>
					</g>
				</g>
				<g>
					<g>
						<path class="st4" d="M62.4,100.5c1.7,8.5,3.5,16.9,5.6,25.3c0.1,0.5,0.9,0.3,0.8-0.2c-2.1-8.4-3.9-16.8-5.6-25.3
							C63.1,99.8,62.3,100,62.4,100.5L62.4,100.5z"/>
					</g>
				</g>
				<g>
					<g>
						<path class="st4" d="M68.7,98.9c1.7,9.9,3.7,19.8,6.1,29.6c0.1,0.3,0.6,0.4,0.7,0.1c0.3-0.6,0.4-1.2,0.1-1.9
							c-0.2-0.5-1-0.3-0.8,0.2c0.2,0.4,0.2,0.8,0,1.2c0.2,0,0.5,0.1,0.7,0.1c-2.4-9.8-4.4-19.7-6.1-29.6
							C69.4,98.2,68.6,98.4,68.7,98.9L68.7,98.9z"/>
					</g>
				</g>
				<g>
					<g>
						<path class="st4" d="M76.3,101.5c1.2,7,2.5,14.1,4,21.1c0.1,0.5,0.9,0.3,0.8-0.2c-1.5-7-2.8-14-4-21.1
							C77,100.8,76.2,101,76.3,101.5L76.3,101.5z"/>
					</g>
				</g>
				<g>
					<g>
						<path class="st4" d="M53.6,111.2c8.3-3,16.5-5.9,24.8-8.8c0.5-0.2,0.3-0.9-0.2-0.8c-8.3,2.9-16.6,5.8-24.8,8.8
							C52.9,110.6,53.1,111.4,53.6,111.2L53.6,111.2z"/>
					</g>
				</g>
				<g>
					<g>
						<path class="st4" d="M55,119.7c9.4-3.1,18.7-6.5,27.9-10.2c0.5-0.2,0.3-1-0.2-0.8c-9.2,3.6-18.5,7-27.9,10.2
							C54.3,119.1,54.5,119.9,55,119.7L55,119.7z"/>
					</g>
				</g>
				<g>
					<g>
						<path class="st4" d="M59.1,125.1c4.1-1.5,8.1-3.2,12-5.2c3.9-2,7.6-4.8,11.9-5.8c0.5-0.1,0.3-0.9-0.2-0.8
							c-4.1,0.9-7.6,3.6-11.3,5.5c-4.1,2.1-8.3,4-12.6,5.5C58.4,124.5,58.6,125.2,59.1,125.1L59.1,125.1z"/>
					</g>
				</g>
				<g>
					<g>
						<path class="st4" d="M67.3,127.5c5.5-3.2,11.2-5.9,16.7-9.1c0.4-0.3,0-1-0.4-0.7c-5.5,3.2-11.2,5.9-16.7,9.1
							C66.4,127.1,66.8,127.8,67.3,127.5L67.3,127.5z"/>
					</g>
				</g>
				<g>
					<g>
						<path class="st4" d="M55.2,106.4c3.3-0.5,6.6-1.8,9.7-2.9c3.2-1.2,6.4-2.4,9.5-3.6c0.5-0.2,0.3-1-0.2-0.8
							c-3.2,1.2-6.3,2.5-9.5,3.6c-3.2,1.1-6.4,2.4-9.7,2.9C54.4,105.7,54.7,106.5,55.2,106.4L55.2,106.4z"/>
					</g>
				</g>
			</g>
		</g>
		<g>
			<g>
				<g>
					<path class="st4" d="M115.5,100.3c9.1-2.2,17-7.9,26.3-9.7c0.5-0.1,0.3-0.9-0.2-0.8c-9.2,1.8-17.1,7.5-26.3,9.7
						C114.8,99.6,115,100.4,115.5,100.3L115.5,100.3z"/>
				</g>
			</g>
			<g>
				<g>
					<g>
						<path class="st4" d="M123.7,111.6c-2-8.8-3.5-17.8-4.5-26.8c-0.3,0-0.5,0.1-0.8,0.1c0.2,0.5,0.3,1,0.5,1.5
							c0.2,0.5,0.9,0.3,0.8-0.2c-0.2-0.5-0.3-1-0.5-1.5c-0.1-0.4-0.8-0.4-0.8,0.1c1,9.1,2.5,18.1,4.5,27
							C123,112.4,123.8,112.1,123.7,111.6L123.7,111.6z"/>
					</g>
				</g>
				<g>
					<g>
						<path class="st4" d="M123.3,85.1c1.7,8.5,3.5,16.9,5.6,25.3c0.1,0.5,0.9,0.3,0.8-0.2c-2.1-8.4-3.9-16.8-5.6-25.3
							C124,84.4,123.2,84.6,123.3,85.1L123.3,85.1z"/>
					</g>
				</g>
				<g>
					<g>
						<path class="st4" d="M129.5,83.5c1.7,9.9,3.7,19.8,6.1,29.6c0.1,0.3,0.6,0.4,0.7,0.1c0.3-0.6,0.4-1.2,0.1-1.9
							c-0.2-0.5-1-0.3-0.8,0.2c0.2,0.4,0.2,0.8,0,1.2c0.2,0,0.5,0.1,0.7,0.1c-2.4-9.8-4.4-19.7-6.1-29.6
							C130.2,82.8,129.4,83,129.5,83.5L129.5,83.5z"/>
					</g>
				</g>
				<g>
					<g>
						<path class="st4" d="M137.1,86.1c1.2,7,2.5,14.1,4,21.1c0.1,0.5,0.9,0.3,0.8-0.2c-1.5-7-2.8-14-4-21.1
							C137.8,85.4,137,85.6,137.1,86.1L137.1,86.1z"/>
					</g>
				</g>
				<g>
					<g>
						<path class="st4" d="M114.4,95.9c8.3-3,16.5-5.9,24.8-8.8c-0.1-0.2-0.3-0.4-0.4-0.7c-0.2,0.2-0.4,0.5-0.5,0.7
							c-0.3,0.4,0.3,1,0.6,0.6c0.2-0.2,0.4-0.5,0.5-0.7c0.2-0.3,0-0.8-0.4-0.7c-8.3,2.9-16.6,5.8-24.8,8.8
							C113.7,95.2,113.9,96,114.4,95.9L114.4,95.9z"/>
					</g>
				</g>
				<g>
					<g>
						<path class="st4" d="M115.8,104.3c9.4-3.1,18.7-6.5,27.9-10.2c0.5-0.2,0.3-1-0.2-0.8c-9.2,3.6-18.5,7-27.9,10.2
							C115.1,103.7,115.3,104.5,115.8,104.3L115.8,104.3z"/>
					</g>
				</g>
				<g>
					<g>
						<path class="st4" d="M119.9,109.7c4.1-1.5,8.1-3.2,12-5.2c3.9-2,7.6-4.8,11.9-5.8c0.5-0.1,0.3-0.9-0.2-0.8
							c-4.1,0.9-7.6,3.6-11.3,5.5c-4.1,2.1-8.3,4-12.6,5.5C119.2,109.1,119.4,109.8,119.9,109.7L119.9,109.7z"/>
					</g>
				</g>
				<g>
					<g>
						<path class="st4" d="M128.1,112.1c5-2.9,9.9-5.8,14.9-8.7c0.4-0.3,0-1-0.4-0.7c-5,2.9-9.9,5.8-14.9,8.7
							C127.2,111.7,127.6,112.4,128.1,112.1L128.1,112.1z"/>
					</g>
				</g>
				<g>
					<g>
						<path class="st4" d="M115.8,90.4c3.3-0.5,6.5-1.5,9.6-2.5c3.2-1,6.3-2,9.4-3.2c0.5-0.2,0.3-1-0.2-0.8
							c-3.1,1.2-6.3,2.2-9.4,3.2c-3.2,1-6.4,2-9.6,2.5C115.1,89.8,115.3,90.5,115.8,90.4L115.8,90.4z"/>
					</g>
				</g>
			</g>
		</g>
		<g>
			<path class="st3" d="M177.5,291.1c-3.9-15-7.9-30-11.8-44.9"/>
			<g>
				<path class="st4" d="M178.6,290.8c-3.9-15-7.9-30-11.8-44.9c-0.4-1.5-2.7-0.9-2.3,0.6c3.9,15,7.9,30,11.8,44.9
					C176.7,292.9,179,292.3,178.6,290.8L178.6,290.8z"/>
			</g>
		</g>
		<g>
			<g>
				<path class="st4" d="M106.7,305.8c-1.7-15.1-3.2-30.2-5-45.3c-0.2-1.5-2.6-1.5-2.4,0c1.8,15.1,3.3,30.2,5,45.3
					C104.5,307.3,106.9,307.3,106.7,305.8L106.7,305.8z"/>
			</g>
		</g>
		<g>
			<g>
				<path class="st4" d="M110.5,291c-0.3-0.8-0.4-1.6-0.6-2.4c0-0.1,0-0.1,0,0.1c0-0.1,0-0.1,0-0.2c0-0.1,0-0.2,0-0.3
					c0-0.2,0-0.4,0-0.6c0-0.4,0-0.8,0-1.3c0-0.6-0.6-1.2-1.2-1.2c-0.7,0-1.2,0.5-1.2,1.2c-0.1,1.8,0.2,3.6,0.8,5.3
					c0.2,0.6,0.8,1.1,1.5,0.8C110.3,292.3,110.7,291.7,110.5,291L110.5,291z"/>
			</g>
		</g>
		<g>
			<g>
				<path class="st4" d="M169.2,278.9c-0.4-1.7-1.1-3.4-1.9-4.9c-0.3-0.6-1.1-0.8-1.7-0.4c-0.6,0.4-0.7,1.1-0.4,1.7
					c0.2,0.4,0.4,0.7,0.5,1.1c0,0.1,0.1,0.2,0.1,0.3c0,0.1,0,0.1,0.1,0.2c0,0,0-0.1-0.1-0.1c0.1,0.2,0.2,0.4,0.2,0.6
					c0.3,0.8,0.5,1.5,0.7,2.3c0.2,0.6,0.9,1,1.5,0.8C169,280.2,169.3,279.5,169.2,278.9L169.2,278.9z"/>
			</g>
		</g>
		<g>
			<g>
				<path class="st4" d="M102.9,271.8c3-3.5,5.8-7.2,8.2-11.2c0.8-1.3-1.3-2.6-2.1-1.2c-2.3,3.8-4.9,7.4-7.8,10.7
					c-0.4,0.5-0.5,1.2,0,1.7C101.6,272.2,102.5,272.3,102.9,271.8L102.9,271.8z"/>
			</g>
		</g>
		<g>
			<g>
				<path class="st4" d="M154.9,251c4.5,2,8.8,4.3,12.9,7c1.3,0.9,2.5-1.2,1.2-2.1c-4.1-2.7-8.5-5-12.9-7c-0.6-0.3-1.3-0.2-1.7,0.4
					C154.2,249.9,154.3,250.8,154.9,251L154.9,251z"/>
			</g>
		</g>
		<g>
			<g>
				<path class="st4" d="M72.5,47.2c5.7-0.6,11.3-2.1,16.5-4.5c2-0.9,4.2-2.8,2.9-5.2c-0.6-1.1-1.7-1.4-2.9-1.3
					c-1.4,0.1-2.8,0.4-4.2,0.8c-1.5,0.4-0.9,2.7,0.6,2.3c1-0.3,2-0.5,3.1-0.6c0.4-0.1,1.4-0.4,1.3,0.3c-0.1,0.8-1.3,1.2-1.9,1.5
					c-1,0.4-2,0.8-3,1.2c-4,1.5-8.2,2.5-12.5,3C71,44.9,71,47.3,72.5,47.2L72.5,47.2z"/>
			</g>
		</g>
		<g>
			<path class="st6" d="M71.6,45.9c-1.2-0.1-2.4-0.2-3.3-0.9c-0.9-0.7-1.4-2.2-0.6-3c0.3-0.4,0.9-0.6,1.3-0.7c1.3-0.5,1-0.6,2.2-1.1
				c-0.8-1.4-1.7-2.8-2.5-4.2c-1.5-2.4-1.4-5.5-0.6-8.3c0.7-2.5,3.3-4.2,5.9-4.2c2.6-0.1,5.1,1.2,7,3c2.8,2.6,4.4,6.4,4.4,10.2"/>
			<g>
				<path class="st4" d="M71.6,44.7c-0.8-0.1-1.6-0.1-2.3-0.5c-0.4-0.2-1.1-0.9-0.8-1.4c0.3-0.4,1.2-0.6,1.7-0.8
					c0.5-0.2,0.9-0.5,1.3-0.7c0.7-0.3,1.2-1.1,0.7-1.8c-0.9-1.5-2-3.1-2.8-4.7c-0.7-1.4-0.8-3-0.7-4.6c0.1-1.3,0.4-2.8,1.3-3.8
					c0.9-1,2.1-1.6,3.4-1.7c2.9-0.4,5.7,1.5,7.6,3.6c2,2.3,3,5.3,3.1,8.3c0,1.6,2.5,1.6,2.4,0c-0.2-6.9-5.9-15.5-13.7-14.3
					c-1.6,0.3-3.1,1-4.3,2.1c-1.3,1.3-1.9,2.9-2.1,4.7c-0.3,1.9-0.3,3.9,0.4,5.8c0.7,2.1,2.2,3.9,3.3,5.8c0.2-0.6,0.5-1.2,0.7-1.8
					c-1,0.4-1.9,0.9-2.8,1.3c-1.1,0.5-2,1.4-2,2.7c-0.1,3.1,3.1,3.9,5.5,4.2C73.2,47.3,73.2,44.9,71.6,44.7L71.6,44.7z"/>
			</g>
		</g>
		<g>
			<g>
				<path class="st4" d="M73.3,45.4c-0.3,5,0,10,1.2,14.9c1.2,4.9,3.3,9.5,5.5,14c0.5,0.9,1.9,0.1,1.4-0.8
					c-2.2-4.4-4.2-8.9-5.3-13.6c-1.2-4.8-1.4-9.6-1.1-14.5C75,44.4,73.4,44.4,73.3,45.4L73.3,45.4z"/>
			</g>
		</g>
		<g>
			<g>
				<path class="st4" d="M85.2,43.9c4.1,2.9,7.5,6.8,10.9,10.4c1.2,1.3,2,2.5,2.5,4.2c0.4,1.2,1,2.5,1.1,3.8
					c0.1,0.9-0.1,1.9-0.2,2.8c-0.1,1.1-0.4,2.4-0.1,3.5c0.4,1.3,1.9,2.1,3.2,1.9c1-0.2,0.6-1.7-0.4-1.6c-0.4,0.1-1.1-0.4-1.2-0.8
					c-0.1-0.1,0-0.3,0-0.5c0-0.5,0.1-1.1,0.1-1.6c0.1-1.1,0.3-2.2,0.3-3.3c0-1.1-0.4-2.1-0.7-3.1c-0.3-0.9-0.6-1.9-0.9-2.8
					c-0.6-1.5-1.6-2.7-2.7-3.9c-1.7-1.8-3.4-3.7-5.2-5.4C90,45.9,88.1,44,86,42.5C85.2,41.9,84.4,43.3,85.2,43.9L85.2,43.9z"/>
			</g>
		</g>
		<g>
			<g>
				<path class="st4" d="M59.4,28.4c-2.7-2-6.5-2.5-9.7-1.3c-0.6,0.2-1,0.8-0.8,1.5c0.2,0.6,0.9,1.1,1.5,0.8c2.7-1,5.5-0.6,7.9,1.1
					c0.5,0.4,1.3,0.1,1.7-0.4C60.2,29.5,59.9,28.8,59.4,28.4L59.4,28.4z"/>
			</g>
		</g>
		<g>
			<g>
				<path class="st4" d="M59.8,20.6c-2.9-2.2-5.8-4.4-8.7-6.5c-0.5-0.4-1.4-0.1-1.7,0.4c-0.4,0.6-0.1,1.3,0.4,1.7
					c2.9,2.2,5.8,4.4,8.7,6.5c0.5,0.4,1.4,0.1,1.7-0.4C60.6,21.6,60.3,21,59.8,20.6L59.8,20.6z"/>
			</g>
		</g>
		<g>
			<g>
				<path class="st4" d="M65.1,16.3c-1.8-2.4-3.7-4.8-5.5-7.1c-0.4-0.5-1.3-0.4-1.7,0c-0.5,0.5-0.4,1.2,0,1.7
					c1.8,2.4,3.7,4.8,5.5,7.1c0.4,0.5,1.3,0.4,1.7,0C65.6,17.5,65.6,16.9,65.1,16.3L65.1,16.3z"/>
			</g>
		</g>
		<g>
			<path class="st5" d="M163.5,149c12-1.2,22-5.6,25.2-17.2s0.6-29.9-3.4-41.2c-0.7-2-1.5-4.1-1.5-6.3l9-3.7
				c1.5,1.6,2.3,3.7,3.1,5.8c5.5,15.1,10,31.1,8,47.1c-0.6,4.9-1.9,9.9-5,13.8c-3,3.8-7.4,6.2-11.8,8.2c-5.8,2.6-11.7,4.8-17.8,6.6"
				/>
			<g>
				<path class="st4" d="M163.5,150.2c9.7-1,20-4.4,24.6-13.7c2.3-4.7,3-10,3.2-15.2c0.2-6-0.4-12-1.5-17.9
					c-0.5-3.1-1.2-6.1-2.1-9.1c-0.9-3.3-2.7-6.6-2.8-10.1c-0.3,0.4-0.6,0.8-0.9,1.2c3-1.2,6-2.4,9-3.7c-0.4-0.1-0.8-0.2-1.2-0.3
					c2.2,2.4,3,5.8,4,8.8c1.1,3.1,2.1,6.3,3,9.5c1.9,6.6,3.4,13.3,3.9,20.1c0.5,6.4,0.4,13.2-1.4,19.4c-0.8,3-2.2,5.8-4.3,8.1
					c-2,2.2-4.4,3.8-7,5.2c-6.7,3.6-14,6.2-21.2,8.3c-1.5,0.4-0.9,2.8,0.6,2.3c6.9-2,13.7-4.5,20.1-7.7c5.8-2.9,10.7-6.7,13.1-12.9
					c2.5-6.2,2.8-13.4,2.6-20c-0.3-7.2-1.6-14.3-3.5-21.3c-1.1-4-2.3-7.9-3.7-11.8c-1.2-3.4-2.2-7.2-4.7-9.9
					c-0.3-0.3-0.8-0.5-1.2-0.3c-3,1.2-6,2.4-9,3.7c-0.5,0.2-0.9,0.6-0.9,1.2c0.1,3.1,1.4,5.9,2.3,8.8c0.8,2.4,1.4,4.8,1.9,7.3
					c1.2,5.5,2,11.2,2.1,16.8c0.1,5.1-0.1,10.4-1.7,15.3c-1.4,4.4-4.3,8.1-8.2,10.6c-4.6,2.9-10.1,4.2-15.5,4.7
					C162,147.9,161.9,150.3,163.5,150.2L163.5,150.2z"/>
			</g>
		</g>
		<g>
			<path class="st5" d="M181.2,78.3c-2.8-0.3-5.7-0.5-8.5-0.8c-1.4-0.1-2.9-0.3-4.2-0.9c-1.3-0.7-2.4-2-2.3-3.4
				c0.1-2.1,2.5-3.5,4.7-3.2c2.1,0.3,3.9,1.7,5.5,3C178,74.3,179.5,76.9,181.2,78.3"/>
			<g>
				<path class="st4" d="M181.2,77.5c-2.7-0.2-5.4-0.5-8.1-0.7c-2.1-0.2-5-0.3-6-2.6c-0.8-1.9,1.1-3.3,2.8-3.5
					c2.2-0.2,4.2,1.5,5.8,2.8c1.9,1.6,3,3.8,4.9,5.4c0.8,0.7,1.9-0.5,1.1-1.1c-2-1.7-3.3-4.1-5.4-5.7c-2-1.6-4.3-3.2-7-2.8
					c-2.1,0.3-4.1,1.9-4.1,4.2c0.1,2.7,2.7,4.3,5.1,4.7c1.7,0.3,3.5,0.4,5.2,0.5c1.9,0.2,3.7,0.3,5.6,0.5
					C182.3,79.2,182.2,77.6,181.2,77.5L181.2,77.5z"/>
			</g>
		</g>
		<g>
			<path class="st5" d="M185.2,73.7c-3.5-3.2-6.8-7.4-7.8-12c-0.3-1.2-0.4-2.5-0.1-3.7c0.4-1.2,2.2-2.4,3.4-2.5
				c0.7,0,2.1-0.4,2.7-0.1c2.8,1.5,4,5.2,4.1,8.4C187.6,67,186.4,70,185.2,73.7"/>
			<g>
				<path class="st4" d="M185.8,73.1c-2.1-2-4-4.1-5.5-6.6c-0.7-1.2-1.3-2.5-1.8-3.9c-0.4-1.4-1-3.3-0.3-4.6
					c0.5-1.1,1.8-1.6,2.9-1.7c0.5-0.1,1.2-0.3,1.7-0.2c0.5,0.1,1,0.5,1.4,0.9c1.7,1.7,2.4,4.2,2.5,6.6c0.1,3.4-1.2,6.7-2.3,9.9
					c-0.3,1,1.2,1.4,1.6,0.4c1.1-3.4,2.5-6.8,2.3-10.4c-0.1-2.8-1-5.8-3.1-7.7c-1.1-1-2.1-1.3-3.6-1.1c-1.4,0.2-2.6,0.4-3.7,1.3
					c-2.7,2.2-1.5,6.3-0.3,9c1.6,3.6,4.1,6.7,7,9.3C185.4,75,186.6,73.8,185.8,73.1L185.8,73.1z"/>
			</g>
		</g>
		<g>
			<path class="st2" d="M192.6,71.4c0.4-1.9,1.1-5.6,1.8-7c1.7-3.7,0.9-4.8,4-7.4c0.8-0.7,2.9-0.7,3.9-0.7c1.6,0,2.9,1.8,2.9,3.4
				c0,1.6-0.2,3.7-1.2,5C201.6,67.7,196.1,69.6,192.6,71.4"/>
			<g>
				<path class="st4" d="M193.4,71.6c0.5-2.5,1-5.1,2-7.5c0.9-2.1,1.1-4.2,2.7-5.9c0.4-0.4,0.8-0.8,1.4-1c0.7-0.2,1.4-0.2,2.1-0.3
					c0.6,0,1.1-0.1,1.7,0.3c0.6,0.4,0.9,1,1.1,1.7c0.3,1.3,0,3.2-0.5,4.4c-0.6,1.2-1.8,2.1-2.8,2.9c-2.7,1.8-5.8,2.9-8.7,4.4
					c-0.9,0.5-0.1,1.8,0.8,1.4c3-1.5,6.1-2.6,8.9-4.5c1.2-0.9,2.6-1.9,3.2-3.3c0.7-1.5,0.9-3.3,0.8-5c-0.1-1.5-1-3.1-2.5-3.6
					c-1.3-0.5-3.1-0.3-4.4,0.1c-1.4,0.4-2.5,1.6-3.2,2.7c-0.6,0.9-0.9,2-1.3,3.1c-0.5,1.5-1.2,2.9-1.6,4.5c-0.5,1.7-0.8,3.4-1.1,5.1
					C191.6,72.2,193.2,72.6,193.4,71.6L193.4,71.6z"/>
			</g>
		</g>
		<g>
			<path class="st2" d="M196.1,76.4c2.1,1.4,7.2,3.5,9.7,3.9c2.6,0.4,5.9-0.3,6.4-2.9c0.3-1.6-0.9-3.1-2.3-3.8s-3.1-0.7-4.7-0.5
				C202,73.6,198.9,74.7,196.1,76.4"/>
			<g>
				<path class="st4" d="M195.7,77.1c2,1.3,4.2,2.2,6.4,3c2.2,0.8,4.4,1.4,6.7,1c2.3-0.4,4.5-2,4.1-4.6c-0.4-3.2-3.8-4.4-6.7-4.2
					c-3.7,0.2-7.4,1.5-10.6,3.4c-0.9,0.5-0.1,1.9,0.8,1.4c2.4-1.4,5-2.4,7.7-2.9c2.3-0.4,5.9-0.7,6.9,2c0.8,2.2-1.6,3.3-3.3,3.4
					c-1.8,0.2-3.6-0.4-5.3-1.1c-2.1-0.8-4.2-1.6-6.1-2.9C195.7,75.1,194.9,76.5,195.7,77.1L195.7,77.1z"/>
			</g>
		</g>
		<g>
			<path class="st5" d="M62.9,189.3c0,0-18,6.9-20.1,16.9c-1.5,7.4-1.4,14.2,0.1,22c0.2,1-1.5,0.8-2.3,1.2c-0.6,0.3-8.5,0.7-8.5,0.7
				c-0.5-1.2-2.6-7.1-3-13.1c-0.6-9.1,1.9-18.3,6.7-25.3c4.9-7,13.8-10.7,21.8-12.3C57.6,179.4,63.5,182.5,62.9,189.3z"/>
			<g>
				<path class="st4" d="M62.6,188.1c-5.7,2.2-11.4,5.4-15.8,9.6c-1.5,1.4-2.9,3-3.9,4.9c-1.2,2.2-1.6,4.6-1.9,7
					c-0.5,3.4-0.6,6.8-0.4,10.2c0.1,1.7,0.3,3.3,0.5,4.9c0.1,0.8,0.2,1.6,0.4,2.4c0.1,0.6-0.1,1.1,0.5,0.7c-0.2,0.1-0.6,0.1-0.8,0.2
					c-0.2,0-0.3,0.1-0.5,0.1c-0.1,0-1,0.3-0.5,0.2c-0.2,0.1-0.4,0.1-0.6,0.1c-1,0.1-2,0.2-3,0.2c-1.5,0.1-3,0.2-4.5,0.2
					c0.4,0.3,0.8,0.6,1.2,0.9c-6.1-15-3.2-36.2,12-44.7c3.9-2.2,8.3-3.6,12.7-4.5c-0.3,0-0.6-0.1-0.9-0.1c3.2,1.7,5,5.3,4.7,8.8
					c-0.1,1.6,2.3,1.5,2.4,0c0.3-4.3-1.8-8.1-5.3-10.5c-0.2-0.1-0.4-0.3-0.6-0.4c-1.1-0.5-3,0.3-4.1,0.6c-2.7,0.7-5.4,1.7-8,2.9
					c-5.3,2.5-9.7,6.2-12.7,11.3c-3.3,5.6-5.2,12.1-5.6,18.6c-0.4,6.3,0.6,12.8,3,18.6c0.2,0.5,0.6,0.9,1.2,0.9
					c1.3-0.1,2.5-0.1,3.8-0.2c1.6-0.1,3.3,0,4.9-0.5c0.7-0.2,1.4-0.3,2.1-0.6c1.3-0.5,1.4-1.5,1.2-2.7c-0.6-3.5-1-7-1.1-10.6
					c0-5.2,0.2-11.2,3.7-15.4c2.7-3.2,6.2-5.6,9.8-7.7c1.6-0.9,3.2-1.7,4.9-2.5c0.8-0.4,1.2-0.5,1.9-0.8
					C64.7,189.9,64,187.5,62.6,188.1z"/>
			</g>
		</g>
		<g>
			<g>
				<path class="st4" d="M173.5,147.8c3.9,1.9,6.1,6.5,5,10.7c-0.3,1,1.3,1.4,1.6,0.4c1.3-4.9-1.2-10.4-5.7-12.5
					C173.4,145.9,172.6,147.3,173.5,147.8L173.5,147.8z"/>
			</g>
		</g>
		<g>
			<g>
				<path class="st4" d="M186.4,138.6c4.3,1.1,7.7,5.2,7.8,9.7c0,1,1.6,1,1.6,0c-0.2-5.2-3.9-9.9-9-11.2
					C185.8,136.8,185.3,138.3,186.4,138.6L186.4,138.6z"/>
			</g>
		</g>
		<g>
			<g>
				<path class="st4" d="M190.8,127c2.3-1.1,5-2,7.6-1.5c2.1,0.4,4,1.6,4.9,3.5c0.4,0.9,1.8,0.1,1.4-0.8c-1.1-2.3-3.4-3.8-5.8-4.2
					c-3-0.6-6.1,0.4-8.8,1.7C189,126.1,189.9,127.5,190.8,127L190.8,127z"/>
			</g>
		</g>
		<g>
			<g>
				<path class="st4" d="M190.6,111.6c3-2.3,7.1-3.1,10.7-2.1c1,0.3,1.4-1.3,0.4-1.6c-4.3-1.1-8.8-0.2-12.3,2.5
					c-0.3,0.3-0.3,0.9,0,1.1C189.8,112,190.2,111.9,190.6,111.6L190.6,111.6z"/>
			</g>
		</g>
		<g>
			<g>
				<path class="st4" d="M188.3,95.7c1.3-2.7,4.2-4.4,7.2-4.1c0.4,0,0.8-0.4,0.8-0.8c0-0.5-0.4-0.8-0.8-0.8
					c-3.5-0.3-7.1,1.7-8.6,4.9c-0.2,0.4-0.1,0.9,0.3,1.1C187.5,96.2,188.1,96.1,188.3,95.7L188.3,95.7z"/>
			</g>
		</g>
		<g>
			<path class="st3" d="M113,162.3c-4.7,1.5-6,4.8-6.7,8s1.1,6.9,3.5,9c2.4,2.1,5.7,2.4,8.6,1.8c1.7-0.3,3.4-1,4.7-2.1
				c3.6-2.9,4.5-9.1,1.9-13.3S117.8,160.9,113,162.3z"/>
			<g>
				<path class="st4" d="M112.8,161.6c-2.1,0.7-4,1.8-5.3,3.6c-1.1,1.5-1.7,3.3-2.1,5.1c-0.8,4.5,2.4,9.7,6.7,11.2
					c4.3,1.5,10.3,0.1,13-3.6c2.5-3.5,2.8-8.6,0.7-12.3c-1.2-2.1-3.1-3.8-5.4-4.4C117.9,160.5,115.2,160.8,112.8,161.6
					c-1,0.3-0.6,1.8,0.4,1.6c3.6-1.1,7.8-1.1,10.4,2c2.3,2.8,2.6,7.2,1.1,10.4c-1.8,3.8-6.3,5.4-10.3,4.9c-4.1-0.5-7.4-4.5-7.5-8.6
					c0-1.7,0.6-3.7,1.5-5.2c1.1-1.8,2.8-3,4.8-3.6C114.2,162.8,113.7,161.2,112.8,161.6z"/>
			</g>
		</g>
		<g>
			<path class="st4" d="M114.1,166.4c-2.7,0.9-3.4,2.7-3.8,4.5s0.6,3.9,2,5.1c1.3,1.2,3.2,1.3,4.9,1c1-0.2,1.9-0.5,2.7-1.2
				c2-1.6,2.5-5.1,1.1-7.5S116.9,165.6,114.1,166.4z"/>
		</g>
		<g>
			<path class="st2" d="M46.5,231.8c2.8-0.2,5.7-0.4,8.5-0.7c1.5-0.1,2.9-0.2,4.3,0.2c1.4,0.4,2.7,1.5,2.9,3c0.3,2.1-1.9,3.9-4,4
				c-2.1,0.1-4.1-1-5.9-2C50.3,235.1,48.4,232.8,46.5,231.8"/>
			<g>
				<path class="st4" d="M46.5,232.6c2.6-0.2,5.2-0.4,7.8-0.6c2.1-0.2,5-0.6,6.6,1.2c1.4,1.6,0,3.6-1.7,4.1
					c-2.2,0.7-4.6-0.6-6.5-1.7c-2.1-1.2-3.6-3.2-5.7-4.5c-0.9-0.5-1.7,0.9-0.8,1.4c2.3,1.3,3.9,3.5,6.2,4.7c2.2,1.2,5,2.5,7.5,1.5
					c2-0.8,3.7-2.8,3-5c-0.7-2.5-3.5-3.4-5.8-3.5c-1.7,0-3.4,0.2-5.1,0.3c-1.8,0.1-3.6,0.3-5.5,0.4C45.5,231,45.5,232.6,46.5,232.6
					L46.5,232.6z"/>
			</g>
		</g>
		<g>
			<path class="st2" d="M43.3,237c4,2.6,7.9,6.1,9.7,10.5c0.5,1.2,0.9,2.4,0.7,3.6c-0.1,1.2-1.7,2.8-2.9,3c-0.7,0.2-2,0.7-2.6,0.5
				c-3-1-4.9-4.4-5.5-7.6S42.8,240.8,43.3,237"/>
			<g>
				<path class="st4" d="M42.9,237.7c2.3,1.5,4.5,3.3,6.4,5.4c0.9,1,1.7,2.2,2.4,3.4c0.7,1.3,1.4,2.8,1.3,4.3
					c-0.1,1.2-1.2,2.2-2.3,2.6c-0.5,0.2-1,0.3-1.5,0.5c-0.7,0.2-1.1,0-1.7-0.3c-2.1-1.2-3.3-3.8-3.9-6.1c-0.8-3.3,0-6.8,0.5-10.2
					c0.1-1-1.4-1.5-1.6-0.4c-0.5,3.6-1.3,7.2-0.6,10.8c0.6,2.8,2.1,5.7,4.6,7.2c0.5,0.3,1.2,0.7,1.8,0.7c0.7,0.1,1.4-0.2,2.1-0.4
					c1.4-0.4,2.5-1,3.4-2.2c2-2.7-0.1-6.6-1.7-8.9c-2.2-3.1-5.1-5.6-8.3-7.7C42.9,235.7,42.1,237.1,42.9,237.7L42.9,237.7z"/>
			</g>
		</g>
		<g>
			<path class="st5" d="M36.5,240.5c-0.1,1.9-0.2,5.7-0.5,7.2c-1,3.9,0,4.9-2.7,8c-0.7,0.8-2.7,1.2-3.7,1.4
				c-1.6,0.3-3.1-1.2-3.4-2.9c-0.3-1.6-0.5-3.6,0.3-5.1C28.3,245.6,33.3,242.8,36.5,240.5"/>
			<g>
				<path class="st4" d="M35.7,240.5c-0.1,2.4,0,4.9-0.6,7.3c-0.5,2.1-0.3,4.5-1.6,6.3c-0.3,0.5-0.7,1-1.2,1.3
					c-0.6,0.3-1.2,0.5-1.9,0.7c-0.5,0.1-1.2,0.3-1.7,0.2c-0.7-0.2-1.3-0.8-1.6-1.5c-0.5-1.2-0.6-3.2-0.3-4.4
					c0.3-1.3,1.4-2.4,2.3-3.3c2.3-2.3,5.1-3.9,7.7-5.8c0.8-0.6,0-2-0.8-1.4c-2.7,1.9-5.6,3.6-8,5.9c-1.1,1.1-2.3,2.4-2.7,3.9
					c-0.5,1.6-0.4,3.6,0.1,5.2c0.4,1.5,1.6,2.8,3.2,3.1c1.3,0.2,3.1-0.3,4.2-0.9c1.2-0.6,2.1-2,2.7-3.2c0.5-1.1,0.6-2.2,0.7-3.4
					c0.2-1.6,0.6-3.1,0.8-4.7c0.1-1.7,0.2-3.4,0.3-5.1C37.3,239.5,35.7,239.5,35.7,240.5L35.7,240.5z"/>
			</g>
		</g>
		<g>
			<path class="st5" d="M32.2,236.2c-2.3-1-7.7-2.2-10.2-2.2c-2.6,0-5.8,1.3-5.8,3.9c0,1.6,1.4,2.9,2.9,3.3c1.5,0.4,3.2,0.1,4.7-0.3
				C26.9,239.9,29.7,238.3,32.2,236.2"/>
			<g>
				<path class="st4" d="M32.6,235.5c-2.2-1-4.6-1.5-7-1.9c-2.3-0.4-4.7-0.7-6.9,0.2c-2.2,0.9-4.1,3-3,5.5c1.3,3.1,5,3.3,7.7,2.6
					c3.4-0.9,6.6-2.7,9.3-5c0.8-0.7-0.4-1.8-1.1-1.1c-2,1.7-4.3,3.1-6.8,4c-2.2,0.8-5.6,1.8-7.3-0.4c-1.5-2,0.6-3.6,2.3-4.1
					c1.8-0.5,3.7-0.3,5.5,0.1c2.2,0.4,4.5,0.9,6.5,1.8C32.7,237.3,33.5,235.9,32.6,235.5L32.6,235.5z"/>
			</g>
		</g>
		<g>
			<g>
				<path class="st4" d="M30.8,224.1c3.3-1.4,7-2.4,10.6-1.2c0.1-0.5,0.1-1.1,0.2-1.6c-0.1,0-0.3,0-0.4,0c-1,0-1,1.6,0,1.6
					c0.1,0,0.3,0,0.4,0c0.9,0,1.1-1.3,0.2-1.6c-4-1.4-8.1-0.3-11.8,1.3c-0.4,0.2-0.5,0.8-0.3,1.1C29.9,224.2,30.4,224.3,30.8,224.1
					L30.8,224.1z"/>
			</g>
		</g>
		<g>
			<g>
				<path class="st4" d="M30.4,213.2c1.6-0.8,3.3-1.4,5.1-1.6c0.9-0.1,1.8-0.1,2.7-0.1c0.4,0,0.9,0.1,1.3,0.1c0.2,0,0.4,0.1,0.6,0.1
					c0.1,0,0.2,0,0.4,0.1c0.3,0.1,0.3,0,0-0.1c-0.1-0.3-0.1-0.5-0.2-0.8c0,0,0,0,0,0c0.1-0.2,0.2-0.3,0.4-0.5c0,0,0,0,0,0
					c0.3,0,0.7,0.1,1,0.1c0,0,0,0,0,0c-0.3-0.3-0.8-0.3-1.1,0c-0.3,0.3-0.3,0.9,0,1.1c0,0,0,0,0,0c0.3,0.2,0.6,0.3,1,0.1
					c0.5-0.2,0.6-1,0.2-1.4c-0.4-0.4-1-0.4-1.5-0.5c-1.2-0.2-2.4-0.3-3.6-0.2c-2.4,0.1-4.7,0.8-6.9,1.9
					C28.7,212.3,29.5,213.7,30.4,213.2L30.4,213.2z"/>
			</g>
		</g>
		<g>
			<g>
				<path class="st4" d="M33.4,199.4c0.8-0.3,1.8,0.2,2.5,0.5c0.8,0.3,1.6,0.7,2.4,1.1c1.6,0.8,3.1,1.7,4.4,2.8
					c0.3,0.3,0.8,0.3,1.1,0c0.3-0.3,0.3-0.9,0-1.1c-1.6-1.3-3.3-2.4-5.1-3.2c-0.9-0.4-1.8-0.8-2.7-1.2c-1-0.4-2.1-0.7-3.1-0.4
					C32,198.2,32.4,199.7,33.4,199.4L33.4,199.4z"/>
			</g>
		</g>
		<g>
			<g>
				<path class="st4" d="M40.5,188c4.1,1.5,6.8,5.2,8.6,9c0.2,0.4,0.7,0.5,1,0.3c0.4-0.2,0.5-0.5,0.5-1c0-0.2,0-0.3-0.1-0.5
					c-0.1-0.4-0.6-0.7-1-0.6c-0.5,0.1-0.6,0.6-0.6,1c0,0.2,0,0.3,0.1,0.5c0.5-0.2,1-0.4,1.5-0.6c-2-4.2-5.1-8.1-9.6-9.7
					c-0.4-0.1-0.9,0.2-1,0.6C39.9,187.5,40.1,187.9,40.5,188L40.5,188z"/>
			</g>
		</g>
		<g>
			<g>
				<path class="st4" d="M50.7,182.4c2.8,2.2,4.9,5.3,5.7,8.8c0.2,0.9,1.7,0.7,1.6-0.2c0-0.1,0-0.1,0-0.2c-0.1-0.4-0.3-0.8-0.8-0.8
					c-0.4,0-0.9,0.4-0.8,0.8c0,0.1,0,0.1,0,0.2c0.5-0.1,1.1-0.1,1.6-0.2c-1-3.9-3.3-7.3-6.5-9.7c-0.3-0.3-0.9-0.1-1.1,0.3
					C50.2,181.7,50.3,182.1,50.7,182.4L50.7,182.4z"/>
			</g>
		</g>
		<g>
			<g>
				<path class="st2" d="M75,37.7c-1.6-1.6-2.3-4.4-2-6.6c0.1-0.4-0.1-0.9-0.6-1c-0.4-0.1-0.9,0.1-1,0.6c-0.4,2.8,0.4,6.1,2.4,8.2
					C74.6,39.6,75.7,38.4,75,37.7L75,37.7z"/>
			</g>
		</g>
		<g>
			<g>
				<path class="st2" d="M73,28.6c1,0,1-1.6,0-1.6C71.9,27,71.9,28.6,73,28.6L73,28.6z"/>
			</g>
		</g>
		<g>
			<path class="st2" d="M56.3,162.8c5,3.3,10,6.5,15,9.8c1.1,0.7,2.2-1,1.1-1.7c-5-3.3-10-6.5-15-9.8
				C56.3,160.4,55.2,162.1,56.3,162.8L56.3,162.8z"/>
		</g>
		<g>
			<g>
				<path class="st2" d="M25.9,91c2.9,1.5,5.9,3,8.8,4.5c0.9,0.5,1.7-0.9,0.8-1.4c-2.9-1.5-5.9-3-8.8-4.5C25.8,89.1,25,90.5,25.9,91
					L25.9,91z"/>
			</g>
		</g>
		<g>
			<g>
				<path class="st2" d="M29.8,97.2c0.4,0.1,0.7,0.2,1.1,0.3c0.1,0,0.2,0.1,0.3,0.1c0,0,0.3,0.1,0.1,0.1c0.2,0.1,0.3,0.1,0.5,0.2
					c0.7,0.3,1.3,0.7,1.9,1.1c0.3,0.3,0.9,0.1,1.1-0.3c0.2-0.4,0.1-0.8-0.3-1.1c-1.2-0.9-2.7-1.6-4.2-2c-0.4-0.1-0.9,0.1-1,0.6
					C29.1,96.6,29.4,97.1,29.8,97.2L29.8,97.2z"/>
			</g>
		</g>
		<g>
			<g>
				<path class="st2" d="M31.4,101.1c0.1,0,0.2,0.1,0.4,0.1c0.1,0,0,0-0.1,0c0,0,0.1,0,0.1,0c0.1,0,0.1,0.1,0.2,0.1
					c0.2,0.1,0.5,0.2,0.7,0.4c0.2,0.1,0.4,0.3,0.7,0.4c0.1,0,0.1,0.1,0.2,0.1c-0.1,0-0.1-0.1,0,0c0,0,0.1,0,0.1,0.1
					c0.1,0.1,0.2,0.2,0.3,0.3c0.3,0.3,0.8,0.3,1.1,0c0.3-0.3,0.3-0.8,0-1.1c-0.9-0.8-2-1.5-3.2-1.9c-0.4-0.1-0.9,0.2-1,0.6
					C30.8,100.5,31,100.9,31.4,101.1L31.4,101.1z"/>
			</g>
		</g>
		<g>
			<g>
				<path class="st2" d="M33.7,106.5c0.1,0,0.1,0,0.2,0c0.1,0,0.2-0.1,0.3-0.1c0.1-0.1,0.2-0.1,0.2-0.2c0.1-0.1,0.1-0.2,0.1-0.3
					c0-0.1,0-0.2,0-0.3c0-0.1-0.1-0.1-0.1-0.2c-0.1-0.1-0.2-0.2-0.3-0.3c-0.1,0-0.1-0.1-0.2-0.1c-0.1,0-0.3,0-0.4,0
					c-0.1,0-0.1,0-0.2,0c-0.1,0-0.2,0.1-0.3,0.1c-0.1,0.1-0.2,0.1-0.2,0.2c-0.1,0.1-0.1,0.2-0.1,0.3c0,0.1,0,0.2,0,0.3
					c0,0.1,0.1,0.1,0.1,0.2c0.1,0.1,0.2,0.2,0.3,0.3c0.1,0,0.1,0.1,0.2,0.1C33.4,106.5,33.6,106.5,33.7,106.5L33.7,106.5z"/>
			</g>
		</g>
		<g>
			<g>
				<path class="st2" d="M34.6,132.7c2.7,2,5.3,4.2,7.8,6.5c0.8,0.7,1.9-0.4,1.1-1.1c-2.6-2.4-5.3-4.6-8.1-6.7
					c-0.3-0.3-0.9-0.1-1.1,0.3C34.1,132,34.3,132.4,34.6,132.7L34.6,132.7z"/>
			</g>
		</g>
		<g>
			<g>
				<path class="st2" d="M39.3,133.2c0.6,0.5,1.3,1,1.9,1.5c0.2,0.1,0.4,0.1,0.6,0.1c0.2-0.1,0.4-0.2,0.5-0.4
					c0.1-0.2,0.1-0.4,0.1-0.6c0-0.1-0.1-0.1-0.1-0.2c-0.1-0.1-0.2-0.2-0.3-0.3c-0.6-0.5-1.3-1-1.9-1.5c-0.2-0.1-0.4-0.1-0.6-0.1
					c-0.2,0.1-0.4,0.2-0.5,0.4c-0.1,0.2-0.1,0.4-0.1,0.6c0,0.1,0.1,0.1,0.1,0.2C39.1,133,39.2,133.1,39.3,133.2L39.3,133.2z"/>
			</g>
		</g>
		<g>
			<g>
				<path class="st2" d="M40,127.7c-0.1,0-0.1,0-0.2,0c-0.1,0-0.2,0.1-0.3,0.1c-0.1,0.1-0.2,0.1-0.2,0.2c-0.1,0.1-0.1,0.2-0.1,0.3
					c0,0.1,0,0.2,0,0.3c0,0.1,0.1,0.1,0.1,0.2c0.1,0.1,0.2,0.2,0.3,0.3c0.1,0,0.1,0.1,0.2,0.1c0.1,0,0.3,0,0.4,0c0.1,0,0.1,0,0.2,0
					c0.1,0,0.2-0.1,0.3-0.1c0.1-0.1,0.2-0.1,0.2-0.2c0.1-0.1,0.1-0.2,0.1-0.3c0-0.1,0-0.2,0-0.3c0-0.1-0.1-0.1-0.1-0.2
					c-0.1-0.1-0.2-0.2-0.3-0.3c-0.1,0-0.1-0.1-0.2-0.1C40.3,127.7,40.1,127.7,40,127.7L40,127.7z"/>
			</g>
		</g>
		<g>
			<path class="st2" d="M61.5,245.6c3,3.1,6.2,6,9.6,8.6c1,0.8,2.2-0.9,1.1-1.7c-3.3-2.5-6.3-5.3-9.2-8.3
				C62.1,243.3,60.6,244.6,61.5,245.6L61.5,245.6z"/>
		</g>
		<g>
			<g>
				<path class="st7" d="M94.4,267.5c4.4-1.3,8.8-2.5,13.3-3.8c2-0.6,1.1-3.7-0.9-3.1c-4.4,1.3-8.8,2.5-13.3,3.8
					C91.6,264.9,92.4,268,94.4,267.5L94.4,267.5z"/>
			</g>
		</g>
		<g>
			<g>
				<path class="st7" d="M155.8,253.9c6.4-1.9,13-3.3,19.6-4.2c0.9-0.1,1.3-1.2,1.1-2c-0.3-0.9-1.1-1.2-2-1.1
					c-6.6,0.9-13.2,2.3-19.6,4.2C153,251.4,153.8,254.5,155.8,253.9L155.8,253.9z"/>
			</g>
		</g>
		<g>
			<g>
				<path class="st7" d="M155.7,253.4c2.2,1,4.4,2,6.6,3c1,0.5,2.1,0.9,3.1,1.5c0.4,0.2,0.5,0.3,0.9,0.7c0.4,0.3,0.8,0.7,1.2,1
					c0.7,0.5,1.6,0.7,2.3,0c0.6-0.6,0.7-1.7,0-2.3c-0.8-0.7-1.6-1.4-2.4-2c-1-0.6-2.1-1-3.1-1.5c-2.3-1-4.6-2.1-6.8-3.1
					c-0.8-0.4-1.7-0.2-2.2,0.6C154.7,251.9,154.9,253.1,155.7,253.4L155.7,253.4z"/>
			</g>
		</g>
		<g>
			<g>
				<path class="st7" d="M104.9,274.7c2.5-3.1,4.8-6.3,7-9.6c0.5-0.7,0.2-1.8-0.6-2.2c-0.8-0.4-1.7-0.2-2.2,0.6
					c-1.1,1.6-2.1,3.1-3.2,4.6c-1.1,1.5-2.2,2.9-3.3,4.3c-0.5,0.7-0.7,1.6,0,2.3C103.2,275.2,104.3,275.4,104.9,274.7L104.9,274.7z"
					/>
			</g>
		</g>
	</g>
</g>
</svg>
