<?xml version="1.0" encoding="utf-8"?>
<!-- Generator: Adobe Illustrator 24.2.0, SVG Export Plug-In . SVG Version: 6.00 Build 0)  -->
<svg version="1.1" id="Layer_1" xmlns="http://www.w3.org/2000/svg" xmlns:xlink="http://www.w3.org/1999/xlink" x="0px" y="0px"
	 viewBox="0 0 186 181" style="enable-background:new 0 0 186 181;" xml:space="preserve">
<style type="text/css">
	.st0{clip-path:url(#SVGID_2_);}
	.st1{fill:#DDDDDD;}
	.st2{clip-path:url(#SVGID_4_);}
	.st3{fill:#A8A8A8;}
	.st4{fill:#BFBFBF;}
	.st5{fill:#686868;}
	.st6{fill:#666666;}
	.st7{fill:#FFFFFF;}
	.st8{fill:#939393;}
</style>
<g>
	<g>
		<g>
			<defs>
				<path id="SVGID_1_" d="M182.8,90.47c0.02,47.82-40.17,86.6-89.77,86.62C43.44,177.11,3.22,138.35,3.2,90.53
					S43.38,3.93,92.97,3.91S182.78,42.65,182.8,90.47"/>
			</defs>
			<clipPath id="SVGID_2_">
				<use xlink:href="#SVGID_1_"  style="overflow:visible;"/>
			</clipPath>
			<g class="st0">
				<path class="st1" d="M182.8,90.47c0.02,47.82-40.17,86.6-89.77,86.62C43.44,177.11,3.22,138.35,3.2,90.53S43.38,3.93,92.97,3.91
					S182.78,42.65,182.8,90.47"/>
				<g>
					<path d="M181.3,90.47c-0.03,17.74-5.8,35.03-16.3,49.32c-10.38,14.11-25.17,24.86-41.67,30.66
						c-17.42,6.11-36.61,6.8-54.43,1.94c-17.03-4.64-32.52-14.35-44.03-27.75c-11.41-13.29-18.56-30.1-19.91-47.58
						C3.58,79.33,7.98,61.52,17.43,46.47c9.28-14.78,23.09-26.43,39.03-33.46c16.91-7.46,36.18-9.47,54.3-5.88
						c17.37,3.44,33.57,11.98,46.06,24.56c12.29,12.37,20.62,28.37,23.44,45.6C180.96,81.64,181.29,86.06,181.3,90.47
						c0,1.93,3,1.93,3,0c-0.04-18.28-5.97-36.25-16.84-50.95c-10.81-14.62-25.94-25.69-43.07-31.76
						C106.4,1.38,86.44,0.71,68.04,5.74C50.5,10.54,34.43,20.57,22.6,34.42C10.78,48.24,3.45,65.52,1.98,83.67
						c-1.48,18.31,3.11,36.88,12.89,52.43c9.61,15.28,23.9,27.44,40.44,34.65c17.53,7.64,37.2,9.73,55.97,6.08
						c17.97-3.5,34.81-12.42,47.7-25.43c12.69-12.8,21.39-29.44,24.23-47.27c0.72-4.52,1.09-9.08,1.09-13.65
						C184.3,88.54,181.3,88.54,181.3,90.47L181.3,90.47z"/>
				</g>
			</g>
		</g>
	</g>
	<g>
		<g>
			<defs>
				<path id="SVGID_3_" d="M182.8,90.47c0.02,47.82-40.17,86.6-89.77,86.62C43.44,177.11,3.22,138.35,3.2,90.53
					S43.38,3.93,92.97,3.91S182.78,42.65,182.8,90.47"/>
			</defs>
			<clipPath id="SVGID_4_">
				<use xlink:href="#SVGID_3_"  style="overflow:visible;"/>
			</clipPath>
			<g class="st2">
				<g>
					<g>
						<path d="M52.91,140.5c-6.32,2.06-10.84,7.88-11.25,14.53c-0.23,3.71,1.15,7.3,2.54,10.67c1.53,3.69,3.2,7.31,5.06,10.84
							c0.86-1.5,1.73-3.01,2.59-4.51c-4.82,0.2-9.62,0.77-14.36,1.67c-3.39,0.64-2.5,5.86,0.8,5.89c0.92,0.01,1.85,0.02,2.77,0.03
							c3.86,0.04,3.87-5.96,0-6c-0.92-0.01-1.85-0.02-2.77-0.03c0.27,1.96,0.53,3.93,0.8,5.89c4.22-0.8,8.47-1.28,12.76-1.45
							c2.32-0.1,3.67-2.46,2.59-4.51c-1.55-2.95-3-5.95-4.3-9.03c-1.11-2.62-2.41-5.49-2.5-8.38c-0.13-4.23,2.78-8.49,6.86-9.82
							c1.54-0.5,2.54-2.08,2.1-3.69C56.19,141.08,54.46,139.99,52.91,140.5L52.91,140.5z"/>
					</g>
				</g>
				<g>
					<g>
						<path d="M111.4,150.55c0.84-0.26-0.31-0.04-0.25-0.15c0.03-0.05,0.69,0.44,0.8,0.54c0.65,0.56,1.19,1.27,1.75,1.93
							c1.13,1.34,2.22,2.71,3.16,4.2c1.8,2.87,2.68,5.91,1.87,9.27c-0.9,3.76-3.13,6.93-4.34,10.55c-1.79,5.34,6.08,6.09,9.52,6.78
							c1.17,0.23,2.34,0.45,3.51,0.64c1.16,0.19,2.42,0.52,3.59,0.38c1.24-0.15,2.52-0.78,3.18-1.88c0.88-1.49,0.48-2.9-0.52-4.17
							s-3.19-1.05-4.24,0c-1.26,1.26-1.01,2.97,0,4.24c0.05,0.06,0.09,0.12,0.14,0.17c-0.29-0.71-0.59-1.41-0.88-2.12
							c0,0.06,0.01,0.12,0.01,0.18c0.14-0.5,0.27-1.01,0.41-1.51c0.38-0.64,0.9-0.91,1.56-0.82c-0.31-0.05-0.63-0.09-0.94-0.14
							c-0.47-0.07-0.94-0.15-1.41-0.23c-1.17-0.2-2.34-0.42-3.51-0.66c-1.09-0.23-2.17-0.47-3.25-0.74
							c-0.89-0.22-2.24-0.45-2.69-0.79c0.36,0.36,0.72,0.72,1.08,1.08c0.03,0.04,0.06,0.08,0.09,0.11c0,0.53,0,1.06,0,1.6
							c0.31-1.47,1.28-2.94,1.92-4.31c0.77-1.67,1.53-3.37,2.1-5.13c1.14-3.49,1.4-7.28,0.23-10.8c-1.12-3.39-3.17-6.28-5.41-9.02
							c-2.23-2.73-5.08-6.23-9.07-4.98C106.13,145.91,107.7,151.7,111.4,150.55L111.4,150.55z"/>
					</g>
				</g>
				<g>
					<path class="st3" d="M38.14,123.61c-2.4-1.69-11.44-7.2-12.97-9.72c-1.52-2.52-1.84-6.01,0.05-8.27
						c2.1-2.51,5.83-2.56,9.03-3.22c7.89-1.62,10.68-9.65,16.88-14.8c10.85-9,20.91-14.36,34.99-15.01s35.35,6.29,42.14,18.64
						c4.52,8.21,6.17,19.28,14.67,23.21c3.7,1.71,8.62,2.02,10.53,5.63c1.62,3.05-0.09,7.02-2.9,9.02s-6.39,2.5-9.83,2.81
						c-1.43,0.13-2.91,0.26-4.15,0.98c-1.47,0.86-2.35,2.43-3.3,3.84c-7.84,11.72-23.01,15.91-37.02,17.49
						c-9.53,1.07-19.37,1.32-28.48-1.66C51.32,147.15,43.15,137.61,38.14,123.61"/>
					<g>
						<path d="M38.9,122.31c-3.28-2.3-6.76-4.32-9.91-6.8c-1.52-1.2-2.71-2.2-3.27-4.06c-0.8-2.69,0.09-5.26,2.79-6.32
							c2.55-0.99,5.39-0.87,7.95-1.8c2.34-0.85,4.37-2.28,6.13-4.02c3.62-3.57,6.26-7.93,10.23-11.18
							c8.86-7.25,18.86-12.73,30.42-13.84c9.87-0.95,20.14,1.17,29.07,5.43c4.27,2.03,8.36,4.61,11.59,8.09
							c3.32,3.57,5,8.17,6.82,12.61c1.83,4.48,3.79,9.2,7.41,12.57c1.82,1.69,3.93,2.83,6.27,3.64c2.27,0.79,5.05,1.26,6.84,2.98
							c1.87,1.8,1.55,4.45,0.19,6.46c-1.65,2.44-4.61,3.4-7.38,3.9c-2.94,0.53-6.37,0.16-8.87,2.05c-2.25,1.7-3.45,4.56-5.29,6.66
							c-7.24,8.25-18.38,11.68-28.88,13.37c-12.8,2.07-26.13,2.35-38.2-2.99c-8.97-3.97-15.98-10.45-20.41-19.21
							c-1.09-2.16-2.01-4.38-2.83-6.66c-0.65-1.8-3.55-1.03-2.89,0.8c3.5,9.72,9.11,18.32,17.89,24.04
							c4.94,3.22,10.63,5.6,16.36,6.95c7.07,1.67,14.42,1.7,21.62,1.09c11.61-0.99,24.04-3.19,33.71-10.13
							c2.24-1.61,4.32-3.44,6.11-5.55c0.96-1.14,1.82-2.34,2.64-3.58c0.93-1.41,1.83-2.67,3.55-3.12c1.5-0.39,3.12-0.38,4.65-0.58
							c1.71-0.23,3.41-0.54,5.03-1.16c2.77-1.06,5.19-2.85,6.46-5.59c1.18-2.55,1.23-5.54-0.47-7.87c-1.55-2.11-4.01-3.11-6.41-3.91
							c-2.52-0.83-5.03-1.54-7.09-3.3c-1.88-1.6-3.27-3.64-4.43-5.81c-2.55-4.74-4.03-9.97-6.59-14.71c-2.32-4.3-6-7.68-10.03-10.35
							c-8.7-5.77-19.61-8.94-30.01-9.33c-11.89-0.45-23.26,3.54-32.92,10.32c-2.49,1.74-4.95,3.59-7.23,5.61
							c-2.09,1.84-3.81,4.03-5.55,6.19c-1.56,1.93-3.15,3.93-5.13,5.45c-2.28,1.76-4.77,2.29-7.55,2.75
							c-2.73,0.46-5.58,1.16-7.36,3.45c-1.87,2.41-1.86,5.73-0.72,8.45c0.78,1.86,2.1,3.1,3.65,4.33c1.93,1.53,3.96,2.92,6.01,4.28
							c1.5,1,3.03,1.96,4.51,2.99C38.97,126.01,40.47,123.41,38.9,122.31L38.9,122.31z"/>
					</g>
				</g>
				<g>
					<path class="st4" d="M75.77,63.99c-3.58-8.01-7.62-15.82-12.1-23.37c3.48-1.46,6.96-2.92,10.44-4.38
						c-3.28-5.47-7.58-10.33-12.61-14.25c-0.25-0.2-0.53-0.44-0.53-0.75c0-0.34,0.3-0.58,0.57-0.78c6.1-4.31,12.65-7.99,19.51-10.95
						c2.96,10.46,6.14,20.85,9.54,31.17c-3.69,0.77-7.37,1.54-11.06,2.32c-0.91,0.19-1.91,0.43-2.47,1.18
						c-0.5,0.66-0.52,1.56-0.52,2.39c-0.01,5.18-0.02,10.36-0.03,15.53"/>
					<g>
						<path d="M77.06,63.23c-3.58-8.01-7.62-15.81-12.1-23.37c-0.3,0.73-0.6,1.47-0.9,2.2c3.48-1.46,6.96-2.92,10.44-4.38
							c0.86-0.36,1.45-1.29,0.9-2.2c-1.75-2.9-3.77-5.64-6.02-8.17c-1.13-1.27-2.33-2.48-3.58-3.64c-0.63-0.58-1.27-1.14-1.92-1.68
							c-0.33-0.27-0.66-0.54-0.99-0.8c-0.2-0.15-0.4-0.31-0.58-0.47c-0.26,0.94-0.2,1.24,0.19,0.89c0.65-0.15,1.68-1.16,2.25-1.54
							c0.76-0.51,1.53-1,2.3-1.49c1.55-0.98,3.12-1.91,4.72-2.81c3.26-1.83,6.61-3.48,10.04-4.97c-0.73-0.3-1.47-0.6-2.2-0.9
							c2.96,10.46,6.15,20.85,9.54,31.17c0.35-0.62,0.7-1.23,1.05-1.85c-2.97,0.62-5.93,1.24-8.9,1.86
							c-2.35,0.49-5.27,0.75-6.05,3.47c-0.33,1.17-0.21,2.5-0.21,3.7c0,1.54-0.01,3.07-0.01,4.61c-0.01,3.07-0.01,6.15-0.02,9.22
							c0,1.93,3,1.93,3,0c0.01-5.24-0.06-10.48,0.03-15.71c0.02-1.12,0.26-1.54,1.37-1.82c1.2-0.3,2.43-0.52,3.64-0.77
							c2.65-0.55,5.29-1.11,7.94-1.66c0.77-0.16,1.29-1.11,1.05-1.85c-3.4-10.32-6.58-20.72-9.54-31.17
							c-0.29-1.02-1.33-1.28-2.2-0.9c-3.78,1.64-7.46,3.48-11.03,5.53c-1.72,0.99-3.41,2.02-5.07,3.11
							c-0.77,0.5-1.53,1.01-2.28,1.53c-0.71,0.49-1.71,1-2.15,1.79c-1,1.82,0.81,2.95,2,3.95c1.42,1.18,2.77,2.44,4.05,3.76
							c2.68,2.77,5.01,5.83,7,9.12c0.3-0.73,0.6-1.47,0.9-2.2c-3.48,1.46-6.96,2.92-10.44,4.38c-0.87,0.36-1.44,1.28-0.9,2.2
							c4.48,7.55,8.51,15.35,12.1,23.37C75.26,66.5,77.84,64.98,77.06,63.23L77.06,63.23z"/>
					</g>
				</g>
				<g>
					<path class="st4" d="M93.74,61.61c0.52-6.34,1.05-12.68,1.57-19.01c5.24-0.52,10.52-0.7,15.79-0.53
						c-1.63-8.29-2.42-16.76-2.35-25.21c8.01,4.85,15.62,10.34,22.76,16.4c0.53,0.45,1.09,0.95,1.25,1.63
						c0.2,0.85-0.27,1.69-0.74,2.43c-5.01,8.02-10.56,15.7-16.62,22.97c-3.59-2.97-7.18-5.93-10.77-8.9
						c-4.25,4.92-8.5,9.84-12.76,14.76c0.38-0.35,0.76-0.7,1.14-1.05"/>
					<g>
						<path d="M95.24,61.61c0.52-6.34,1.05-12.68,1.57-19.01c-0.5,0.5-1,1-1.5,1.5c5.25-0.51,10.52-0.69,15.79-0.53
							c1.04,0.03,1.63-0.98,1.45-1.9c-1.59-8.18-2.35-16.48-2.3-24.81c-0.75,0.43-1.5,0.86-2.26,1.3c4.2,2.55,8.29,5.26,12.27,8.15
							c2.01,1.46,3.98,2.96,5.92,4.5c0.96,0.76,1.91,1.54,2.86,2.32c0.56,0.46,2.02,1.29,2.21,2.03c0.22,0.85-1.07,2.28-1.51,2.97
							c-0.67,1.05-1.34,2.09-2.03,3.12c-1.37,2.07-2.78,4.11-4.22,6.13c-2.9,4.06-5.95,8.01-9.14,11.84c0.71,0,1.41,0,2.12,0
							c-3.59-2.97-7.18-5.93-10.77-8.9c-0.59-0.49-1.55-0.66-2.12,0c-4.25,4.92-8.5,9.84-12.76,14.76
							c-1.26,1.45,0.68,3.44,2.12,2.12c0.38-0.35,0.76-0.7,1.14-1.05c1.43-1.31-0.7-3.42-2.12-2.12c-0.38,0.35-0.76,0.7-1.14,1.05
							c0.71,0.71,1.41,1.41,2.12,2.12c4.25-4.92,8.5-9.84,12.76-14.76c-0.71,0-1.41,0-2.12,0c3.59,2.97,7.18,5.93,10.77,8.9
							c0.58,0.48,1.57,0.67,2.12,0c5.43-6.54,10.49-13.39,15.1-20.53c0.99-1.54,2.62-3.4,2.71-5.31c0.09-2.04-1.54-3.19-2.95-4.36
							c-3.22-2.68-6.54-5.26-9.94-7.71c-3.86-2.79-7.83-5.41-11.89-7.88c-0.98-0.6-2.25,0.18-2.26,1.3
							c-0.06,8.6,0.76,17.17,2.41,25.61c0.48-0.63,0.96-1.27,1.45-1.9c-5.27-0.15-10.54,0.03-15.79,0.53
							c-0.86,0.08-1.43,0.62-1.5,1.5c-0.52,6.34-1.05,12.68-1.57,19.01C92.08,63.53,95.08,63.52,95.24,61.61L95.24,61.61z"/>
					</g>
				</g>
				<g>
					<g>
						<g>
							<path class="st5" d="M141.61,83.06c5.57-7.87,15.57-12.09,25.1-11.08c10.78,1.14,19.31,9.35,24.87,18.1
								c3.7,5.82,6.47,12.16,9.23,18.47c0.77,1.76,3.36,0.24,2.59-1.51c-4.97-11.35-10.29-23.2-20.27-31.06
								c-4.4-3.46-9.55-6.05-15.14-6.84c-5.15-0.73-10.47-0.1-15.31,1.81c-5.49,2.17-10.24,5.76-13.66,10.59
								C137.9,83.12,140.5,84.62,141.61,83.06L141.61,83.06z"/>
						</g>
					</g>
					<g>
						<path class="st6" d="M124.64,109.64c-1.78-1.83-3.55-3.65-5.33-5.48c5.64-9.4,12.25-18.22,19.71-26.26
							c1.69,2.43,3.39,4.87,5.08,7.3c0.22,0.32,0.45,0.68,0.38,1.06c-0.06,0.33-0.36,0.55-0.58,0.8
							c-5.87,6.5-12.87,15.51-18.87,22.51"/>
						<g>
							<path d="M125.7,108.58c-1.78-1.83-3.55-3.65-5.33-5.48c0.08,0.61,0.16,1.21,0.23,1.82c5.59-9.3,12.11-17.99,19.47-25.95
								c-0.79-0.1-1.57-0.2-2.36-0.3c1.08,1.56,2.16,3.11,3.25,4.67c0.52,0.74,1.04,1.48,1.55,2.23c0.09,0.14,0.19,0.27,0.28,0.41
								c0.22,0.5,0.31,0.43,0.27-0.2c-0.02-0.01-0.59,0.63-0.62,0.67c-2.07,2.31-4.08,4.69-6.06,7.08c-4.15,4.99-8.2,10.07-12.42,15
								c-1.25,1.46,0.86,3.59,2.12,2.12c4.59-5.37,8.99-10.91,13.53-16.33c1.07-1.28,2.16-2.56,3.25-3.82
								c0.92-1.05,2.34-2.18,2.9-3.46c0.74-1.7-0.9-3.31-1.8-4.6c-1.22-1.76-2.45-3.52-3.67-5.28c-0.53-0.76-1.65-1.06-2.36-0.3
								c-7.53,8.15-14.23,17.05-19.94,26.56c-0.35,0.58-0.23,1.34,0.23,1.82c1.78,1.83,3.55,3.65,5.33,5.48
								C124.93,112.09,127.05,109.97,125.7,108.58L125.7,108.58z"/>
						</g>
					</g>
				</g>
				<g>
					<path d="M76.23,126.28c-0.19-4.58-0.1-9.32,1.76-13.51s5.86-7.72,10.45-7.73c1.11,0,2.24,0.21,3.19,0.77
						c1.97,1.16,2.83,3.52,3.46,5.72c1.54,5.33,2.62,10.8,3.23,16.32c0.04,0.35,0.06,0.75-0.2,0.99c-0.23,0.22-0.58,0.22-0.9,0.2
						c-6.28-0.35-12.55-0.87-18.8-1.55c-0.53-0.06-1.24-0.42-1.01-0.9"/>
					<g>
						<path d="M77.73,126.28c-0.18-4.52-0.2-9.43,1.94-13.55c1.69-3.26,4.91-6.19,8.77-6.19c4.71,0,5.42,5.87,6.27,9.41
							c0.58,2.4,1.07,4.82,1.47,7.25c0.2,1.24,0.38,2.48,0.53,3.72c0.03,0.27,0.02,0.67,0.11,0.92c0,0.06,0.01,0.12,0.01,0.18
							c-0.01,0.43,0.13,0.27,0.4-0.49c-0.05-0.12-1.91-0.11-2.12-0.12c-2.82-0.17-5.65-0.38-8.47-0.62
							c-1.41-0.12-2.82-0.25-4.23-0.39c-0.7-0.07-1.41-0.14-2.11-0.21c-0.31-0.03-0.63-0.06-0.94-0.1
							c-0.16-0.02-0.31-0.03-0.47-0.05c-0.61-0.2-0.62,0.12-0.03,0.95c0.34-1.89-2.55-2.7-2.89-0.8c-0.6,3.29,4.14,2.98,6.21,3.19
							c3.21,0.32,6.42,0.59,9.63,0.82c1.57,0.11,3.14,0.21,4.71,0.3c1.34,0.08,2.75-0.04,3.22-1.55c0.4-1.26-0.14-2.98-0.32-4.26
							c-0.24-1.68-0.51-3.35-0.84-5.02c-0.59-3.04-1.3-6.08-2.2-9.04c-0.69-2.25-1.68-4.58-3.71-5.93
							c-4.4-2.92-10.4-0.14-13.47,3.42c-4.33,5.02-4.72,11.84-4.47,18.17C74.8,128.2,77.8,128.21,77.73,126.28L77.73,126.28z"/>
					</g>
				</g>
				<g>
					<path class="st7" d="M94.38,93.71c4.12,0.53,8.2-0.87,12.29-1.58c2.13-0.37,4.28-0.56,6.44-0.56
						c0.47,4.98-2.16,10.5-6.92,12.01c-2.92,0.93-6.28,0.2-8.64-1.75s-3.7-5.04-3.65-8.1"/>
					<g>
						<path d="M94.38,95.21c3.19,0.36,6.34-0.3,9.45-0.97c3.08-0.67,6.13-1.15,9.29-1.17c-0.5-0.5-1-1-1.5-1.5
							c0.36,4.32-1.68,9.5-6.25,10.69c-5.39,1.4-9.97-3.35-9.97-8.53c0-1.93-3-1.93-3,0c0,5.28,3.43,10.3,8.72,11.47
							c4.97,1.11,9.72-1.44,11.97-5.92c1.19-2.37,1.74-5.06,1.52-7.71c-0.07-0.8-0.63-1.51-1.5-1.5c-3.17,0.02-6.28,0.45-9.37,1.12
							c-3.1,0.67-6.18,1.39-9.37,1.02c-0.81-0.09-1.5,0.76-1.5,1.5C92.88,94.6,93.57,95.12,94.38,95.21L94.38,95.21z"/>
					</g>
				</g>
				<g>
					<path class="st7" d="M64.47,87c4.63,1.9,10.75,5.21,15.38,7.12c0.31,0.13,0.64,0.27,0.84,0.54c0.21,0.29,0.23,0.67,0.22,1.03
						c-0.08,2.07-1.24,4.07-3,5.16c-1.13,0.7-2.44,1.03-3.74,1.29c-1.3,0.26-2.63,0.46-3.96,0.36c-3.35-0.24-6.46-2.55-7.67-5.68
						s-0.45-6.93,1.87-9.36"/>
					<g>
						<path d="M64.07,88.44c3.02,1.25,5.94,2.74,8.89,4.16c1.45,0.7,2.9,1.39,4.37,2.05c0.65,0.29,1.32,0.65,2,0.86
							c0.47,0.15,0.12,0.13,0.08-0.1c0.03,0.15,0,0.4-0.02,0.54c-0.04,0.36-0.13,0.71-0.25,1.05c-1.05,3.08-4.73,3.84-7.61,4
							c-2.89,0.16-5.65-1.22-7.12-3.75c-1.6-2.76-1.08-6.41,1.06-8.73c1.31-1.42-0.81-3.54-2.12-2.12
							c-2.64,2.85-3.65,7.13-2.25,10.82c1.31,3.46,4.51,6.12,8.19,6.67c2.2,0.33,4.5-0.04,6.63-0.62c2.04-0.55,3.82-1.58,5.06-3.32
							c1.01-1.42,1.88-3.72,1.3-5.46c-0.36-1.09-1.28-1.51-2.26-1.93c-0.84-0.35-1.67-0.73-2.49-1.11
							c-4.22-1.95-8.34-4.12-12.64-5.91c-0.75-0.31-1.65,0.34-1.85,1.05C62.79,87.46,63.32,88.13,64.07,88.44L64.07,88.44z"/>
					</g>
				</g>
				<g>
					<g>
						<path d="M38.79,115.85c1.58,0,3.07-0.65,4.24-1.7c1.18-1.06,1.88-2.52,2.05-4.08c0.06-0.54-0.05-1.09-0.33-1.56
							c-0.51-0.83-1.6-1.21-2.46-0.67c-0.66,0.42-0.99,1.36-0.54,2.05c0.43,0.67,1.34,0.98,2.05,0.54c-0.09,0.03-0.17,0.07-0.26,0.1
							c-0.13,0.02-0.27,0.04-0.4,0.05c0.02,0,0.03,0,0.05,0c-0.13-0.02-0.27-0.04-0.4-0.05c0.25,0.04,0.09-0.06-0.48-0.3
							c-0.16-0.23-0.2-0.28-0.12-0.15c-0.21-0.41-0.07-0.19-0.04-0.04c-0.02-0.13-0.04-0.27-0.05-0.4c0.02,0.16,0,0.33-0.02,0.49
							c0.02-0.13,0.04-0.27,0.05-0.4c-0.03,0.25-0.09,0.5-0.16,0.74c-0.04,0.12-0.08,0.23-0.12,0.34c-0.06,0.17,0.16-0.35,0.05-0.12
							c-0.03,0.07-0.06,0.13-0.1,0.2c-0.11,0.22-0.25,0.42-0.38,0.62c-0.14,0.2,0.19-0.24,0.08-0.1c-0.04,0.05-0.08,0.09-0.12,0.14
							c-0.09,0.1-0.18,0.2-0.27,0.29c-0.09,0.09-0.18,0.17-0.27,0.25c-0.05,0.04-0.1,0.08-0.14,0.12c0.3-0.29,0.2-0.15,0.1-0.08
							c-0.21,0.15-0.42,0.28-0.65,0.4c-0.05,0.03-0.11,0.05-0.16,0.08c-0.23,0.11,0.06-0.04,0.13-0.05
							c-0.11,0.01-0.24,0.09-0.34,0.12c-0.25,0.08-0.51,0.14-0.78,0.17c0.13-0.02,0.27-0.04,0.4-0.05
							c-0.19,0.02-0.39,0.03-0.58,0.03c-0.78,0-1.54,0.69-1.5,1.5C37.32,115.16,37.95,115.85,38.79,115.85L38.79,115.85z"/>
					</g>
				</g>
				<g>
					<g>
						<path d="M45.28,105.65c0.73,0.08,1.47-0.11,2.13-0.42c0.64-0.3,1.16-0.81,1.57-1.39c0.85-1.23,0.83-2.96,0.1-4.23
							c-0.19-0.33-0.54-0.59-0.9-0.69c-0.36-0.1-0.84-0.05-1.16,0.15c-0.69,0.44-0.96,1.32-0.54,2.05c0.05,0.09,0.09,0.17,0.13,0.26
							c-0.05-0.12-0.1-0.24-0.15-0.36c0.09,0.22,0.15,0.44,0.19,0.68c-0.02-0.13-0.04-0.27-0.05-0.4c0.03,0.23,0.03,0.47,0,0.7
							c0.02-0.13,0.04-0.27,0.05-0.4c-0.03,0.23-0.1,0.46-0.19,0.68c0.05-0.12,0.1-0.24,0.15-0.36c-0.08,0.18-0.18,0.34-0.29,0.5
							c0.08-0.1,0.16-0.2,0.23-0.3c-0.13,0.16-0.27,0.31-0.43,0.44c0.1-0.08,0.2-0.16,0.3-0.23c-0.18,0.14-0.37,0.25-0.58,0.34
							c0.12-0.05,0.24-0.1,0.36-0.15c-0.23,0.1-0.46,0.16-0.7,0.19c0.13-0.02,0.27-0.04,0.4-0.05c-0.21,0.02-0.41,0.03-0.62,0
							c-0.36-0.04-0.82,0.2-1.06,0.44c-0.26,0.26-0.46,0.69-0.44,1.06c0.02,0.39,0.14,0.79,0.44,1.06c0.1,0.08,0.2,0.16,0.3,0.23
							C44.76,105.58,45.01,105.65,45.28,105.65L45.28,105.65z"/>
					</g>
				</g>
				<g>
					<g>
						<path d="M50.28,112.61c2.05-0.91,3.43-3.28,3.27-5.51c-0.03-0.4-0.15-0.77-0.44-1.06c-0.26-0.26-0.69-0.46-1.06-0.44
							c-0.77,0.03-1.56,0.66-1.5,1.5c0.02,0.28,0.01,0.57-0.03,0.85c0.02-0.13,0.04-0.27,0.05-0.4c-0.06,0.38-0.16,0.75-0.31,1.11
							c0.05-0.12,0.1-0.24,0.15-0.36c-0.16,0.35-0.35,0.69-0.59,0.99c0.08-0.1,0.16-0.2,0.23-0.3c-0.23,0.29-0.48,0.54-0.77,0.77
							c0.1-0.08,0.2-0.16,0.3-0.23c-0.26,0.2-0.54,0.36-0.83,0.49c-0.32,0.14-0.6,0.57-0.69,0.9c-0.1,0.36-0.05,0.84,0.15,1.16
							c0.21,0.32,0.51,0.6,0.9,0.69c0.13,0.02,0.27,0.04,0.4,0.05C49.79,112.81,50.05,112.75,50.28,112.61L50.28,112.61z"/>
					</g>
				</g>
				<g>
					<g>
						<path d="M46.04,122.64c2.01-0.9,3.56-2.79,4.17-4.89c0.22-0.75-0.27-1.67-1.05-1.85c-0.8-0.18-1.61,0.24-1.85,1.05
							c-0.07,0.23-0.15,0.46-0.24,0.68c0.05-0.12,0.1-0.24,0.15-0.36c-0.21,0.5-0.49,0.97-0.82,1.4c0.08-0.1,0.16-0.2,0.23-0.3
							c-0.33,0.43-0.71,0.81-1.14,1.15c0.1-0.08,0.2-0.16,0.3-0.23c-0.4,0.31-0.83,0.57-1.28,0.77c-0.32,0.14-0.6,0.57-0.69,0.9
							c-0.1,0.36-0.05,0.84,0.15,1.16c0.21,0.32,0.51,0.6,0.9,0.69c0.13,0.02,0.27,0.04,0.4,0.05
							C45.56,122.84,45.81,122.77,46.04,122.64L46.04,122.64z"/>
					</g>
				</g>
				<g>
					<g>
						<path d="M51.02,128.85c0.42-0.25,0.83-0.5,1.25-0.75c0.17-0.09,0.32-0.22,0.42-0.39c0.13-0.14,0.22-0.31,0.27-0.51
							c0.06-0.2,0.07-0.4,0.03-0.6c-0.01-0.2-0.07-0.39-0.18-0.56c-0.08-0.1-0.16-0.2-0.23-0.3c-0.19-0.19-0.41-0.31-0.66-0.39
							c-0.13-0.02-0.27-0.04-0.4-0.05c-0.27,0-0.52,0.07-0.76,0.2c-0.42,0.25-0.83,0.5-1.25,0.75c-0.17,0.09-0.32,0.22-0.42,0.39
							c-0.13,0.14-0.22,0.31-0.27,0.51c-0.06,0.2-0.07,0.4-0.03,0.6c0.01,0.2,0.07,0.39,0.18,0.56c0.08,0.1,0.16,0.2,0.23,0.3
							c0.19,0.19,0.41,0.31,0.66,0.39c0.13,0.02,0.27,0.04,0.4,0.05C50.54,129.06,50.79,128.99,51.02,128.85L51.02,128.85z"/>
					</g>
				</g>
				<g>
					<g>
						<path d="M124.43,135.24c2.02-1.59,3.19-4.12,3.28-6.66c0.03-0.79-0.71-1.54-1.5-1.5c-0.84,0.04-1.47,0.66-1.5,1.5
							c0,0.13-0.01,0.26-0.02,0.39c0,0.06-0.01,0.12-0.02,0.17c-0.02,0.19,0.06-0.36,0.01-0.09c-0.04,0.25-0.09,0.49-0.15,0.73
							c-0.07,0.25-0.15,0.51-0.24,0.75c-0.02,0.05-0.04,0.11-0.06,0.16c-0.07,0.17,0.14-0.32,0.03-0.08
							c-0.06,0.12-0.11,0.24-0.17,0.36c-0.11,0.22-0.24,0.44-0.37,0.64c-0.07,0.11-0.15,0.22-0.22,0.33
							c-0.03,0.04-0.16,0.21-0.01,0.02c0.15-0.2-0.01,0.01-0.05,0.05c-0.34,0.41-0.71,0.77-1.13,1.1c-0.28,0.22-0.44,0.72-0.44,1.06
							c0,0.37,0.16,0.81,0.44,1.06c0.29,0.26,0.66,0.46,1.06,0.44C123.8,135.66,124.1,135.5,124.43,135.24L124.43,135.24z"/>
					</g>
				</g>
				<g>
					<g>
						<path d="M134.79,128.23c0.28-1.45,0.38-2.93,0.23-4.41c-0.04-0.41-0.14-0.76-0.44-1.06c-0.26-0.26-0.69-0.46-1.06-0.44
							c-0.39,0.02-0.79,0.14-1.06,0.44c-0.25,0.28-0.48,0.67-0.44,1.06c0.1,1.08,0.09,2.17-0.06,3.24c0.02-0.13,0.04-0.27,0.05-0.4
							c-0.04,0.26-0.08,0.51-0.12,0.76c-0.08,0.4-0.06,0.79,0.15,1.16c0.18,0.31,0.54,0.61,0.9,0.69c0.38,0.09,0.82,0.07,1.16-0.15
							C134.41,128.93,134.72,128.61,134.79,128.23L134.79,128.23z"/>
					</g>
				</g>
				<g>
					<g>
						<path d="M129.24,121.23c0.09-0.5,0.19-1,0.28-1.49c0.06-0.2,0.07-0.4,0.03-0.6c-0.01-0.2-0.07-0.39-0.18-0.56
							c-0.09-0.17-0.22-0.32-0.39-0.42c-0.14-0.13-0.31-0.22-0.51-0.27c-0.13-0.02-0.27-0.04-0.4-0.05c-0.27,0-0.52,0.07-0.76,0.2
							c-0.1,0.08-0.2,0.16-0.3,0.23c-0.19,0.19-0.31,0.41-0.39,0.66c-0.09,0.5-0.19,1-0.28,1.49c-0.06,0.2-0.07,0.4-0.03,0.6
							c0.01,0.2,0.07,0.39,0.18,0.56c0.09,0.17,0.22,0.32,0.39,0.42c0.14,0.13,0.31,0.22,0.51,0.27c0.13,0.02,0.27,0.04,0.4,0.05
							c0.27,0,0.52-0.07,0.76-0.2c0.1-0.08,0.2-0.16,0.3-0.23C129.04,121.7,129.17,121.48,129.24,121.23L129.24,121.23z"/>
					</g>
				</g>
				<g>
					<g>
						<path d="M68.43,90.21c-1.41,1.39-1.61,3.83-0.48,5.45c0.67,0.96,1.64,1.6,2.81,1.8c1.06,0.18,2.19,0.2,3.22-0.13
							c1.2-0.39,2.28-1.23,2.59-2.51c0.18-0.76-0.24-1.66-1.05-1.85c-0.77-0.18-1.65,0.23-1.85,1.05c-0.01,0.02-0.04,0.2-0.06,0.2
							s0.19-0.37,0.07-0.17c-0.02,0.03-0.03,0.06-0.05,0.09c-0.03,0.06-0.18,0.26-0.02,0.04c0.17-0.22-0.01,0-0.06,0.05
							c-0.02,0.02-0.05,0.04-0.08,0.07c-0.12,0.12,0.29-0.2,0.14-0.11c-0.06,0.04-0.12,0.08-0.18,0.11
							c-0.06,0.04-0.12,0.07-0.19,0.1c-0.27,0.15,0.33-0.11,0.02-0.01c-0.14,0.05-0.28,0.09-0.43,0.13
							c-0.09,0.02-0.17,0.04-0.26,0.05c-0.23,0.05,0.38-0.04,0.06-0.01c-0.35,0.04-0.71,0.03-1.07,0c-0.05,0-0.1-0.02-0.15-0.01
							c0,0,0.32,0.05,0.16,0.02c-0.11-0.02-0.22-0.04-0.34-0.07c-0.09-0.02-0.19-0.05-0.28-0.08c-0.05-0.02-0.09-0.03-0.14-0.05
							c-0.18-0.06,0.25,0.13,0.09,0.04c-0.08-0.05-0.17-0.09-0.25-0.14c-0.03-0.02-0.06-0.04-0.08-0.06
							c-0.13-0.07,0.2,0.13,0.17,0.13c-0.04,0.01-0.34-0.31-0.33-0.33c0.01-0.02,0.2,0.29,0.13,0.17c-0.02-0.03-0.04-0.05-0.06-0.08
							c-0.04-0.06-0.07-0.11-0.11-0.17c-0.04-0.07-0.07-0.14-0.11-0.21c-0.07-0.13,0.11,0.22,0.08,0.2
							c-0.02-0.01-0.04-0.11-0.05-0.13c-0.04-0.13-0.08-0.26-0.11-0.39c0,0.01-0.03-0.13-0.02-0.13c0.01-0.01,0.04,0.36,0.03,0.23
							c0-0.08-0.01-0.16-0.02-0.24c0-0.09,0-0.18,0-0.27c0-0.03,0.01-0.07,0.01-0.1c-0.01-0.16-0.06,0.35-0.03,0.2
							c0.04-0.16,0.08-0.33,0.12-0.49c0.06-0.21-0.17,0.34-0.04,0.08c0.04-0.07,0.07-0.14,0.11-0.21c0.02-0.03,0.04-0.06,0.05-0.08
							c0.14-0.23-0.1,0.11-0.09,0.11c-0.01-0.03,0.16-0.18,0.18-0.2c0.56-0.55,0.59-1.58,0-2.12
							C69.95,89.66,69.03,89.62,68.43,90.21L68.43,90.21z"/>
					</g>
				</g>
				<g>
					<g>
						<path d="M98.34,94.8c-0.14,1.26,0.55,2.58,1.5,3.37c0.97,0.81,2.12,1.24,3.38,1.32c1.13,0.07,2.36-0.23,3.32-0.84
							c1.03-0.66,1.75-1.6,2.22-2.72c0.48-1.15,0.54-2.49,0.2-3.69c-0.22-0.75-1.07-1.3-1.85-1.05c-0.77,0.25-1.28,1.04-1.05,1.85
							c0.04,0.12,0.07,0.25,0.09,0.37c0.08,0.39,0.01-0.22,0.01,0.09c0,0.22,0.01,0.44-0.01,0.66c-0.02,0.31,0.06-0.31-0.02,0.09
							c-0.03,0.13-0.06,0.25-0.09,0.37c-0.03,0.11-0.07,0.21-0.1,0.31c-0.12,0.34,0.15-0.27-0.02,0.04
							c-0.12,0.21-0.24,0.41-0.37,0.61c-0.06,0.09-0.04,0.06,0.07-0.09c-0.05,0.06-0.09,0.11-0.14,0.16
							c-0.07,0.08-0.15,0.16-0.23,0.23c-0.05,0.05-0.11,0.1-0.17,0.14c0.04-0.03,0.09-0.07,0.13-0.1c-0.07,0.09-0.24,0.16-0.34,0.22
							s-0.24,0.16-0.35,0.18c0.05-0.02,0.1-0.04,0.15-0.06c-0.07,0.03-0.14,0.05-0.22,0.08c-0.2,0.06-0.46,0.17-0.67,0.16
							c0.39,0.03-0.01-0.01-0.11,0c-0.13,0.01-0.27,0-0.4,0c-0.09,0-0.43,0.03-0.06,0.01c-0.1,0.01-0.23-0.04-0.34-0.07
							c-0.13-0.03-0.26-0.07-0.38-0.11c-0.37-0.12,0.14,0.1-0.12-0.04c-0.2-0.11-0.4-0.22-0.59-0.36c0.28,0.2,0-0.02-0.06-0.08
							c-0.06-0.06-0.34-0.45-0.15-0.15c-0.06-0.1-0.12-0.2-0.19-0.3c-0.18-0.29,0.05,0.25-0.03-0.07c-0.02-0.07-0.04-0.15-0.06-0.22
							c0.01,0.06,0.01,0.11,0.02,0.17c-0.05-0.11,0-0.35,0.01-0.47c0.09-0.78-0.75-1.53-1.5-1.5C98.95,93.34,98.43,93.96,98.34,94.8
							L98.34,94.8z"/>
					</g>
				</g>
				<g>
					<g>
						<path d="M60.4,85.75c8.07,2.62,15.09,7.63,23.13,10.34c0.99,0.33,1.83-0.54,1.9-1.45c0.17-2.14,0.63-4.2,1.34-6.23
							c0.63-1.83-2.26-2.61-2.89-0.8c-0.79,2.28-1.25,4.62-1.44,7.03c0.63-0.48,1.27-0.96,1.9-1.45
							c-8.03-2.7-15.05-7.72-23.13-10.34C59.36,82.26,58.57,85.15,60.4,85.75L60.4,85.75z"/>
					</g>
				</g>
				<g>
					<g>
						<path d="M90.19,87.77c-0.05,1.6-0.2,3.22-0.16,4.82c0.03,1.35,0.75,2.39,2.22,2.27c1.38-0.11,2.84-0.93,4.15-1.35
							c1.54-0.5,3.1-0.95,4.67-1.35c3.09-0.79,6.29-1.51,9.47-1.73c2.92-0.21,6.01,0.17,8.21,2.28c1.39,1.34,3.52-0.78,2.12-2.12
							c-4.37-4.19-10.65-3.37-16.08-2.32c-2.96,0.57-5.88,1.31-8.75,2.21c-0.74,0.23-1.47,0.48-2.2,0.73
							c-0.29,0.1-0.58,0.21-0.87,0.31c-0.22,0.08-0.43,0.16-0.65,0.24c-0.55,0.14-0.31,0.34,0.71,0.61c0.25-0.25,0.06-1.7,0.07-2.07
							c0.03-0.84,0.06-1.68,0.09-2.53C93.26,85.84,90.26,85.85,90.19,87.77L90.19,87.77z"/>
					</g>
				</g>
				<g>
					<g>
						<path d="M137.96,113.41c7.16-4.6,12.62-12.02,16.46-19.51c3.99-7.77,6.31-16.55,5.57-25.33c-0.42-5.05-1.73-9.9-4.05-14.41
							c-0.74-1.44-2.76-1.86-4.1-1.08c-1.46,0.86-1.82,2.66-1.08,4.1c7.24,14.12,1.89,30.45-7,42.41c-2.45,3.3-5.35,6.4-8.83,8.63
							c-1.36,0.87-1.92,2.66-1.08,4.1C134.65,113.69,136.59,114.29,137.96,113.41L137.96,113.41z"/>
					</g>
				</g>
				<g>
					<g>
						<path d="M153.79,55.32c-0.46,0-0.91-0.04-1.37-0.09c0.27,0.04,0.53,0.07,0.8,0.11c-0.91-0.13-1.78-0.37-2.65-0.68
							c-0.38-0.14,0.23,0.11,0.29,0.13c-0.12-0.04-0.24-0.1-0.35-0.16c-0.21-0.1-0.41-0.2-0.61-0.31c-0.4-0.22-0.79-0.46-1.17-0.72
							c-0.08-0.06-0.16-0.12-0.25-0.18c-0.36-0.26,0.25,0.17,0.24,0.19c0.01-0.02-0.47-0.4-0.52-0.44
							c-0.34-0.31-0.66-0.63-0.96-0.97c-0.08-0.1-0.16-0.19-0.25-0.29c-0.26-0.3,0.14,0.2,0.19,0.25c-0.15-0.16-0.27-0.37-0.4-0.56
							c-0.27-0.4-0.5-0.82-0.72-1.25c-0.7-1.41-2.81-1.91-4.1-1.08c-1.44,0.93-1.82,2.6-1.08,4.1c2.37,4.78,7.59,7.9,12.89,7.96
							c1.57,0.02,3.07-1.39,3-3C156.72,56.68,155.48,55.33,153.79,55.32L153.79,55.32z"/>
					</g>
				</g>
				<g>
					<g>
						<path d="M157.31,56.32c-0.37-2.99-0.75-5.99-1.12-8.98c-0.1-0.83-0.27-1.51-0.88-2.12c-0.52-0.52-1.37-0.91-2.12-0.88
							c-0.78,0.03-1.58,0.29-2.12,0.88c-0.5,0.54-0.97,1.35-0.88,2.12c0.37,2.99,0.75,5.99,1.12,8.98c0.1,0.83,0.27,1.51,0.88,2.12
							c0.52,0.52,1.37,0.91,2.12,0.88c0.78-0.03,1.58-0.29,2.12-0.88C156.93,57.89,157.4,57.08,157.31,56.32L157.31,56.32z"/>
					</g>
				</g>
				<g>
					<g>
						<path d="M155.56,61.12c5.45-1.69,9.73-5.9,11.65-11.25c0.25-0.7,0.06-1.69-0.3-2.31c-0.36-0.62-1.08-1.22-1.79-1.38
							c-1.68-0.38-3.12,0.51-3.69,2.1c-0.1,0.27-0.2,0.53-0.31,0.79c0.1-0.24,0.2-0.48,0.3-0.72c-0.5,1.17-1.15,2.27-1.93,3.28
							c0.16-0.2,0.31-0.4,0.47-0.61c-0.79,1-1.69,1.9-2.7,2.69c0.2-0.16,0.4-0.31,0.61-0.47c-1.01,0.77-2.11,1.42-3.29,1.92
							c0.24-0.1,0.48-0.2,0.72-0.3c-0.44,0.18-0.88,0.34-1.33,0.48c-1.5,0.46-2.61,2.11-2.1,3.69
							C152.36,60.53,153.96,61.62,155.56,61.12L155.56,61.12z"/>
					</g>
				</g>
				<g>
					<g>
						<g>
							<path class="st5" d="M37.39,75.58c-6.07-8.55-16.7-13.49-27.17-12.6c-11.66,1-21.01,9.13-27.25,18.53
								c-4.06,6.13-7.02,12.89-9.95,19.6c-0.77,1.75,1.82,3.28,2.59,1.51c4.63-10.59,9.46-21.64,18.42-29.34
								c3.98-3.43,8.75-6.03,13.95-7c4.65-0.87,9.5-0.33,13.94,1.23c5.11,1.8,9.73,5.14,12.88,9.58
								C35.9,78.66,38.51,77.16,37.39,75.58L37.39,75.58z"/>
						</g>
					</g>
					<g>
						<path class="st6" d="M51.78,103.67c1.77-1.83,3.55-3.66,5.32-5.48c-5.64-9.4-12.27-18.21-19.73-26.24
							c-1.69,2.44-3.38,4.87-5.08,7.31c-0.22,0.32-0.45,0.68-0.38,1.06c0.06,0.33,0.36,0.55,0.58,0.8
							c5.88,6.5,12.88,15.5,18.88,22.49"/>
						<g>
							<path d="M52.84,104.73c1.77-1.83,3.55-3.66,5.32-5.48c0.46-0.47,0.58-1.24,0.23-1.82c-5.72-9.51-12.42-18.41-19.96-26.55
								c-0.7-0.76-1.83-0.45-2.36,0.3c-1.17,1.69-2.35,3.38-3.52,5.07c-0.89,1.29-2.57,2.92-2.01,4.63c0.25,0.75,0.9,1.29,1.41,1.86
								c0.53,0.59,1.05,1.19,1.57,1.78c1.1,1.26,2.18,2.54,3.26,3.82c4.54,5.42,8.94,10.95,13.54,16.32
								c1.26,1.47,3.37-0.66,2.12-2.12c-4.22-4.93-8.28-10.01-12.43-15c-1.95-2.34-3.91-4.66-5.94-6.93
								c-0.03-0.04-0.71-0.84-0.75-0.82c-0.05,0.57,0.01,0.69,0.17,0.37c0.12-0.2,0.25-0.39,0.39-0.57
								c0.47-0.68,0.94-1.35,1.41-2.03c1.13-1.62,2.26-3.25,3.38-4.87c-0.79,0.1-1.57,0.2-2.36,0.3
								c7.37,7.96,13.9,16.65,19.49,25.94c0.08-0.61,0.16-1.21,0.23-1.82c-1.77,1.83-3.55,3.66-5.32,5.48
								C49.38,103.99,51.49,106.12,52.84,104.73L52.84,104.73z"/>
						</g>
					</g>
				</g>
				<g>
					<g>
						<path d="M34.12,104c-7.37-12.61-7.51-28.94-0.46-41.73c2.08-3.77,6.67-8.07,4.83-12.77c-0.59-1.51-2.01-2.56-3.69-2.1
							c-1.44,0.4-2.69,2.17-2.1,3.69c0.05,0.13,0.2,0.92,0.21,0.61c0,0.01-0.12,0.56-0.18,0.71c-0.38,0.99-1.1,1.89-1.7,2.75
							c-1.11,1.58-2.12,3.21-3.01,4.92c-1.81,3.46-3.21,7.16-4.12,10.96c-1.85,7.7-1.87,15.83,0,23.53
							c1.06,4.36,2.77,8.58,5.03,12.45C30.88,110.36,36.07,107.34,34.12,104L34.12,104z"/>
					</g>
				</g>
				<g>
					<g>
						<path d="M35.49,49.05c-0.53-0.15-1.04-0.33-1.55-0.54c0.24,0.1,0.48,0.2,0.72,0.3c-1.01-0.44-1.95-0.99-2.82-1.65
							c0.2,0.16,0.4,0.31,0.61,0.47c-0.9-0.7-1.71-1.5-2.41-2.39c0.16,0.2,0.31,0.4,0.47,0.61c-0.67-0.87-1.23-1.81-1.67-2.81
							c-0.28-0.64-1.15-1.2-1.79-1.38c-0.72-0.2-1.67-0.11-2.31,0.3s-1.2,1.03-1.38,1.79c-0.04,0.27-0.07,0.53-0.11,0.8
							c0,0.54,0.14,1.05,0.41,1.51c1.85,4.25,5.82,7.52,10.24,8.78c1.51,0.43,3.33-0.53,3.69-2.1
							C37.95,51.14,37.1,49.51,35.49,49.05L35.49,49.05z"/>
					</g>
				</g>
				<g>
					<g>
						<path d="M39.02,51.77c-0.35-3.65-0.7-7.3-1.06-10.95c-0.08-0.81-0.28-1.52-0.88-2.12c-0.52-0.52-1.37-0.91-2.12-0.88
							c-1.5,0.07-3.16,1.33-3,3c0.35,3.65,0.7,7.3,1.06,10.95c0.08,0.81,0.28,1.52,0.88,2.12c0.52,0.52,1.37,0.91,2.12,0.88
							C37.52,54.71,39.18,53.45,39.02,51.77L39.02,51.77z"/>
					</g>
				</g>
				<g>
					<g>
						<path d="M38.51,55.25c1.7-1.28,3.31-2.64,4.77-4.19c1.45-1.54,2.76-3.23,3.92-4.99c0.86-1.31,0.3-3.38-1.08-4.1
							c-1.5-0.79-3.18-0.33-4.1,1.08c-0.46,0.7-0.95,1.38-1.46,2.05c0.16-0.2,0.31-0.4,0.47-0.61c-1.69,2.17-3.64,4.13-5.82,5.81
							c0.2-0.16,0.4-0.31,0.61-0.47c-0.11,0.09-0.22,0.17-0.33,0.25c-0.65,0.49-1.15,0.98-1.38,1.79c-0.2,0.72-0.11,1.67,0.3,2.31
							c0.41,0.64,1.03,1.2,1.79,1.38C36.94,55.72,37.88,55.73,38.51,55.25L38.51,55.25z"/>
					</g>
				</g>
				<g>
					<path class="st8" d="M76.19,125.87c2-4.63,6.83-8.11,11.86-7.79s9.6,5,9.15,10.02"/>
					<g>
						<path d="M77.49,126.63c1.83-4.1,5.91-7.37,10.57-7.04c4.25,0.29,7.95,4.24,7.65,8.52c-0.14,1.93,2.86,1.92,3,0
							c0.41-5.75-4.51-10.81-10.06-11.46c-5.81-0.69-11.44,3.29-13.75,8.47c-0.33,0.75-0.21,1.6,0.54,2.05
							C76.07,127.54,77.16,127.36,77.49,126.63L77.49,126.63z"/>
					</g>
				</g>
				<g>
					<g>
						<path class="st7" d="M57.57,137.55c4.54,6.8,12.64,8.93,20.17,10.6c1.88,0.42,2.68-2.47,0.8-2.89
							c-6.65-1.47-14.33-3.16-18.38-9.22C59.09,134.44,56.49,135.94,57.57,137.55L57.57,137.55z"/>
					</g>
				</g>
				<g>
					<g>
						<path class="st7" d="M84.36,146.3c0.37,0.21,0.74,0.42,1.11,0.63c0.12-0.91,0.24-1.83,0.36-2.74
							c-0.22,0.04-0.44,0.09-0.67,0.13c0.56,0.23,1.13,0.46,1.69,0.69c-0.06-0.08-0.1-0.16-0.14-0.25c0.05,0.12,0.1,0.24,0.15,0.36
							c-0.04-0.11-0.08-0.22-0.09-0.33c0.02,0.13,0.04,0.27,0.05,0.4c-0.02-0.11-0.02-0.23,0-0.34c0.01-0.21-0.04-0.4-0.13-0.58
							c-0.06-0.19-0.16-0.35-0.31-0.48c-0.14-0.15-0.3-0.25-0.48-0.31c-0.18-0.09-0.37-0.14-0.58-0.13
							c-0.13,0.02-0.27,0.04-0.4,0.05c-0.25,0.07-0.47,0.2-0.66,0.39c-0.08,0.1-0.16,0.2-0.23,0.3c-0.14,0.23-0.2,0.49-0.2,0.76
							c-0.01,0.08-0.01,0.17-0.01,0.25c0.01,0.21,0.04,0.43,0.09,0.63c0.05,0.2,0.15,0.4,0.23,0.58c0.04,0.08,0.08,0.15,0.13,0.22
							c0.08,0.1,0.16,0.2,0.23,0.3c0.14,0.15,0.3,0.25,0.48,0.31c0.12,0.07,0.24,0.1,0.38,0.1c0.2,0.04,0.4,0.04,0.6-0.03
							c0.22-0.04,0.44-0.09,0.67-0.13c0.12-0.05,0.24-0.1,0.36-0.15c0.1-0.08,0.2-0.16,0.3-0.23c0.08-0.1,0.16-0.2,0.23-0.3
							c0.11-0.17,0.17-0.36,0.18-0.56c0.04-0.13,0.04-0.27,0-0.4c0-0.14-0.03-0.26-0.1-0.38c-0.04-0.13-0.1-0.24-0.19-0.33
							c-0.11-0.16-0.25-0.29-0.42-0.39c-0.37-0.21-0.74-0.42-1.11-0.63c-0.17-0.11-0.36-0.17-0.56-0.18c-0.2-0.04-0.4-0.04-0.6,0.03
							c-0.2,0.05-0.37,0.14-0.51,0.27c-0.16,0.11-0.29,0.25-0.39,0.42c-0.05,0.12-0.1,0.24-0.15,0.36c-0.07,0.27-0.07,0.53,0,0.8
							c0.05,0.12,0.1,0.24,0.15,0.36C83.96,145.99,84.14,146.17,84.36,146.3L84.36,146.3z"/>
					</g>
				</g>
				<g>
					<g>
						<path class="st7" d="M92.73,78.85c0.07,0.14,0.19,0.27,0.29,0.39c0.01,0.01,0.02,0.03,0.04,0.04c0.11,0.1,0.23,0.19,0.35,0.27
							c0.03,0.02,0.06,0.04,0.1,0.06c0.12,0.06,0.31,0.15,0.47,0.19c0.38,0.08,0.63,0.09,1.01,0c0.16-0.04,0.31-0.11,0.45-0.18
							c0.26-0.13,0.47-0.36,0.62-0.61c0.08-0.15,0.15-0.32,0.2-0.47c0.02-0.04,0.03-0.09,0.04-0.13c0.03-0.15,0.05-0.3,0.06-0.45
							c0-0.02,0-0.04,0-0.06c-0.03-0.32-0.06-0.57-0.24-0.85c-0.16-0.25-0.34-0.45-0.6-0.6c-0.24-0.14-0.54-0.23-0.82-0.22
							c-0.3,0.01-0.55,0.07-0.81,0.22c-0.13,0.08-0.26,0.17-0.36,0.28c-0.25,0.28-0.29,0.38-0.42,0.72
							c-0.06,0.15-0.07,0.31-0.07,0.46c0,0.41,0.17,0.81,0.46,1.1c0.3,0.29,0.7,0.46,1.12,0.45c0.21,0.01,0.4-0.04,0.58-0.13
							c0.19-0.06,0.35-0.16,0.48-0.31c0.15-0.14,0.25-0.3,0.31-0.48c0.09-0.18,0.14-0.37,0.13-0.58c-0.02-0.13-0.04-0.27-0.05-0.4
							c-0.07-0.25-0.2-0.47-0.39-0.66c-0.1-0.08-0.2-0.16-0.3-0.23c-0.23-0.14-0.49-0.2-0.76-0.2c-0.01,0-0.01,0-0.02,0
							c0.13,0.02,0.27,0.04,0.4,0.05c-0.01,0-0.01,0-0.02-0.01c0.12,0.05,0.24,0.1,0.36,0.15c-0.01,0-0.01-0.01-0.02-0.01
							c0.1,0.08,0.2,0.16,0.3,0.23l-0.01-0.01c0.08,0.1,0.16,0.2,0.23,0.3c0,0,0-0.01-0.01-0.01c0.05,0.12,0.1,0.24,0.15,0.36
							c0-0.01,0-0.01,0-0.02c0.02,0.13,0.04,0.27,0.05,0.4c0-0.01,0-0.02,0-0.03c-0.02,0.13-0.04,0.27-0.05,0.4
							c0-0.01,0.01-0.03,0.01-0.04c-0.05,0.12-0.1,0.24-0.15,0.36c0.01-0.02,0.02-0.04,0.03-0.05c-0.08,0.1-0.16,0.2-0.23,0.3
							c0.01-0.02,0.03-0.03,0.04-0.04c-0.1,0.08-0.2,0.16-0.3,0.23c0.01-0.01,0.02-0.02,0.04-0.02c-0.12,0.05-0.24,0.1-0.36,0.15
							c0.01,0,0.02-0.01,0.03-0.01c-0.13,0.02-0.27,0.04-0.4,0.05c0.01,0,0.02,0,0.03,0c-0.13-0.02-0.27-0.04-0.4-0.05
							c0.01,0,0.02,0,0.03,0.01c-0.12-0.05-0.24-0.1-0.36-0.15c0.01,0,0.01,0.01,0.02,0.01c-0.1-0.08-0.2-0.16-0.3-0.23
							c0.01,0.01,0.03,0.02,0.04,0.04c-0.08-0.1-0.16-0.2-0.23-0.3c0.01,0.02,0.02,0.03,0.03,0.05c-0.05-0.12-0.1-0.24-0.15-0.36
							c0.01,0.02,0.01,0.04,0.02,0.06c-0.02-0.13-0.04-0.27-0.05-0.4c0,0.03,0,0.07,0,0.1c0.02-0.13,0.04-0.27,0.05-0.4
							c-0.01,0.05-0.02,0.1-0.05,0.15c0.05-0.12,0.1-0.24,0.15-0.36c-0.02,0.05-0.04,0.09-0.07,0.13c0.18-0.18,0.36-0.36,0.54-0.54
							c-0.03,0.02-0.05,0.03-0.08,0.04c0.12-0.05,0.24-0.1,0.36-0.15c-0.03,0.01-0.07,0.02-0.11,0.03c0.13-0.02,0.27-0.04,0.4-0.05
							c-0.05,0.01-0.09,0.01-0.14,0c0.13,0.02,0.27,0.04,0.4,0.05c-0.05-0.01-0.09-0.02-0.14-0.04c0.12,0.05,0.24,0.1,0.36,0.15
							c-0.04-0.02-0.08-0.04-0.11-0.07c0.1,0.08,0.2,0.16,0.3,0.23c-0.03-0.02-0.06-0.05-0.09-0.09c0.08,0.1,0.16,0.2,0.23,0.3
							c-0.02-0.02-0.03-0.05-0.04-0.07c-0.09-0.17-0.22-0.32-0.39-0.42c-0.14-0.13-0.31-0.22-0.51-0.27c-0.2-0.06-0.4-0.07-0.6-0.03
							c-0.2,0.01-0.39,0.07-0.56,0.18c-0.1,0.08-0.2,0.16-0.3,0.23c-0.19,0.19-0.31,0.41-0.39,0.66c-0.02,0.13-0.04,0.27-0.05,0.4
							C92.52,78.37,92.59,78.62,92.73,78.85L92.73,78.85z"/>
					</g>
				</g>
				<g>
					<g>
						<path class="st7" d="M101.55,80.57c4.25,0.15,8.38,1.87,11.47,4.79c1.4,1.32,3.53-0.79,2.12-2.12
							c-3.68-3.47-8.54-5.5-13.59-5.67C99.62,77.5,99.62,80.5,101.55,80.57L101.55,80.57z"/>
					</g>
				</g>
				<g>
					<g>
						<path class="st7" d="M138.38,119.63c2.34,0.75,4.69,1.49,7.03,2.24c0.75,0.24,1.67-0.28,1.85-1.05
							c0.19-0.82-0.25-1.59-1.05-1.85c-2.34-0.75-4.69-1.49-7.03-2.24c-0.75-0.24-1.67,0.28-1.85,1.05
							C137.15,118.6,137.58,119.37,138.38,119.63L138.38,119.63z"/>
					</g>
				</g>
				<g>
					<g>
						<path class="st7" d="M28.83,111.33c-0.01-0.02-0.02-0.04-0.02-0.05c0.05,0.12,0.1,0.24,0.15,0.36
							c-0.13-0.31-0.22-0.64-0.27-0.98c0.02,0.13,0.04,0.27,0.05,0.4c-0.05-0.38-0.05-0.75,0-1.13c-0.02,0.13-0.04,0.27-0.05,0.4
							c0.05-0.36,0.14-0.7,0.28-1.03c-0.05,0.12-0.1,0.24-0.15,0.36c0.07-0.16,0.15-0.32,0.24-0.48c0.2-0.34,0.25-0.78,0.15-1.16
							c-0.1-0.35-0.36-0.72-0.69-0.9c-0.72-0.38-1.63-0.19-2.05,0.54c-0.46,0.79-0.7,1.66-0.75,2.57c-0.03,0.44,0.03,0.88,0.1,1.32
							c0.07,0.46,0.24,0.87,0.43,1.3c0.14,0.32,0.58,0.6,0.9,0.69c0.36,0.1,0.84,0.05,1.16-0.15c0.32-0.21,0.6-0.51,0.69-0.9
							c0.02-0.13,0.04-0.27,0.05-0.4C29.03,111.82,28.96,111.57,28.83,111.33L28.83,111.33z"/>
					</g>
				</g>
			</g>
		</g>
	</g>
</g>
<g>
	<g>
		<path d="M181.3,90.47c-0.03,17.74-5.8,35.03-16.3,49.32c-10.38,14.11-25.17,24.86-41.67,30.66c-17.42,6.11-36.61,6.8-54.43,1.94
			c-17.03-4.64-32.52-14.35-44.03-27.75c-11.41-13.29-18.56-30.1-19.91-47.58C3.58,79.33,7.98,61.52,17.43,46.47
			c9.28-14.78,23.09-26.43,39.03-33.46c16.91-7.46,36.18-9.47,54.3-5.88c17.37,3.44,33.57,11.98,46.06,24.56
			c12.29,12.37,20.62,28.37,23.44,45.6C180.96,81.64,181.29,86.06,181.3,90.47c0,1.93,3,1.93,3,0
			c-0.04-18.28-5.97-36.25-16.84-50.95c-10.81-14.62-25.94-25.69-43.07-31.76C106.4,1.38,86.44,0.71,68.04,5.74
			C50.5,10.54,34.43,20.57,22.6,34.42C10.78,48.24,3.45,65.52,1.98,83.67c-1.48,18.31,3.11,36.88,12.89,52.43
			c9.61,15.28,23.9,27.44,40.44,34.65c17.53,7.64,37.2,9.73,55.97,6.08c17.97-3.5,34.81-12.42,47.7-25.43
			c12.69-12.8,21.39-29.44,24.23-47.27c0.72-4.52,1.09-9.08,1.09-13.65C184.3,88.54,181.3,88.54,181.3,90.47L181.3,90.47z"/>
	</g>
</g>
</svg>
