<?xml version="1.0" encoding="utf-8"?>
<!-- Generator: Adobe Illustrator 24.2.0, SVG Export Plug-In . SVG Version: 6.00 Build 0)  -->
<svg version="1.1" id="Layer_1" xmlns="http://www.w3.org/2000/svg" xmlns:xlink="http://www.w3.org/1999/xlink" x="0px" y="0px"
	 viewBox="0 0 581 42" style="enable-background:new 0 0 581 42;" xml:space="preserve">
<style type="text/css">
	.st0{fill:#4386C6;}
	.st1{fill:#E76969;}
</style>
<g>
	<g>
		<g>
			<g>
				<path d="M568.7,20c-5,0-9.9,0-14.9,0c-13.4,0-26.8,0-40.2,0c-19.9,0-39.7,0-59.6,0c-24.2,0-48.5,0-72.7,0c-26.4,0-52.9,0-79.3,0
					c-26.9,0-53.7,0-80.6,0c-24.9,0-49.8,0-74.7,0c-21.1,0-42.2,0-63.3,0c-15.2,0-30.3,0-45.5,0c-7.2,0-14.3-0.1-21.5,0
					c-0.3,0-0.6,0-0.9,0c-1.8,0-1.8,2.7,0,2.7c5,0,9.9,0,14.9,0c13.4,0,26.8,0,40.2,0c19.9,0,39.7,0,59.6,0c24.2,0,48.5,0,72.7,0
					c26.4,0,52.9,0,79.3,0c26.9,0,53.7,0,80.6,0c24.9,0,49.8,0,74.7,0c21.1,0,42.2,0,63.3,0c15.2,0,30.3,0,45.5,0
					c7.2,0,14.3,0.1,21.5,0c0.3,0,0.6,0,0.9,0C570.4,22.7,570.4,20,568.7,20L568.7,20z"/>
			</g>
		</g>
		<g>
			<g>
				<path class="st0" d="M540.2,20.4c0.5,1.8,1,3.6,1.6,5.3c0.4,1.4,0.6,3.1,1.4,4.3c0.2,0.4,0.7,0.7,1.2,0.7
					c1.6-0.1,3.1-1.1,4.6-1.8c0.8,1.3,1.8,2.5,3,3.3c-1.1,2.1-3,5.2,0.1,6.2c3.5,1.2,7.6,0.8,11.1-0.2c0.7-0.2,1.1-0.9,1-1.7
					c-0.2-1.2-0.4-2.3-0.6-3.5c1.5-0.5,2.9-1.3,4.1-2.2c1.8,1.5,4.2,3.6,5.8,1.4c0.9-1.3,1.6-3.1,2.2-4.6c0.7-1.7,1.4-3.3,2-5
					c0.3-0.9-0.5-1.7-1.3-1.7c-1.4,0-2.8-0.2-4.2-0.3c0-1.7-0.4-3.4-1.1-5c1.8-1.3,3.9-3.3,2.1-5.3c-1.1-1.3-2.9-2.2-4.3-3.2
					c-1.7-1.2-3.4-2.5-5.1-3.7c-0.7-0.5-1.9,0-2,0.8c-0.2,1.1-0.4,2.2-0.6,3.3c-0.3,0-0.5-0.1-0.8-0.1c-1.2-0.1-2.4,0-3.5,0.2
					c-0.5-1.1-1-2.4-1.4-3.3c-0.3-0.7-1.3-0.8-1.9-0.5c-2.8,1.6-6,3.8-8,6.6c-1.2,1.7,0.2,3.2,1.7,4.2c-0.4,0.9-0.7,1.9-0.9,2.9
					c-1.6-0.3-3.9,0.8-5.2,1.2C540.5,19,540,19.7,540.2,20.4z"/>
				<g>
					<path d="M538.9,20.8c0.5,1.7,1,3.4,1.5,5.1c0.4,1.5,0.7,3.1,1.4,4.5c1.7,3.3,5.4,0.8,7.8-0.2c-0.6-0.2-1.2-0.3-1.9-0.5
						c0.9,1.5,2.1,2.8,3.5,3.8c-0.2-0.6-0.3-1.2-0.5-1.9c-0.9,1.7-2.1,3.7-1.7,5.7c0.6,2.5,3.6,2.9,5.7,3.2c2.8,0.3,6,0.1,8.7-0.9
						c3-1.1,1.7-4.5,1.3-6.8c-0.3,0.6-0.6,1.1-1,1.7c1.6-0.6,3.1-1.3,4.4-2.3c-0.6-0.1-1.1-0.1-1.7-0.2c1.6,1.3,3.6,3.2,5.8,2.7
						c2.4-0.5,3.3-3.6,4.1-5.6c0.5-1.3,1.1-2.5,1.6-3.8c0.4-1.1,1.2-2.4,0.8-3.6c-0.3-1-1.2-1.7-2.2-1.9c-1.5-0.3-3.1-0.2-4.6-0.4
						c0.5,0.5,0.9,0.9,1.4,1.4c-0.1-1.9-0.4-3.6-1.1-5.4c-0.2,0.5-0.4,1-0.6,1.5c1.7-1.3,3.9-3.1,3.4-5.5c-0.5-2.4-3.1-3.7-5-4.9
						c-1.1-0.8-2.2-1.6-3.3-2.4c-1-0.7-2.1-1.9-3.4-2.1c-3.1-0.4-3.2,3.1-3.6,5.3c0.6-0.3,1.1-0.6,1.7-1c-1.7-0.3-3.4-0.3-5.1,0
						c0.5,0.2,1,0.4,1.5,0.6c-0.8-1.8-1.3-4.7-3.9-4.7c-1,0-1.9,0.7-2.8,1.3c-1,0.6-2,1.3-3,2.1c-1.6,1.3-3.7,2.9-4.4,4.9
						c-0.8,2.3,0.9,4,2.6,5.2c-0.2-0.6-0.3-1.2-0.5-1.9c-0.5,1-0.8,2.1-1,3.2c0.4-0.3,0.9-0.7,1.3-1c-1.8-0.2-3.5,0.5-5.1,1.1
						C539.6,17.9,538.6,18.9,538.9,20.8c0.3,1.7,2.9,1,2.6-0.7c0,0,2-0.6,2.1-0.7c0.9-0.3,1.8-0.5,2.7-0.4c0.5,0.1,1.2-0.5,1.3-1
						c0.2-0.9,0.4-1.8,0.8-2.6c0.3-0.7,0.2-1.4-0.5-1.9c-0.5-0.3-1.2-0.8-1.4-1.3c-0.2-0.7,0.3-1.2,0.7-1.6c0.9-1.1,2-2.1,3.1-2.9
						c1.1-0.8,2.2-1.5,3.3-2.2c0.1-0.1,0.4-0.3,0.5-0.3c0.2,0,0.4,0.9,0.5,1c0.3,0.8,0.6,1.5,0.9,2.3c0.3,0.6,1,0.7,1.5,0.6
						c1.2-0.2,2.4-0.3,3.6,0c0.7,0.1,1.5-0.2,1.7-1c0.2-0.9,0.3-1.9,0.5-2.8c0-0.1,0.1-0.5,0.1-0.5c0.1,0,0.9,0.7,1,0.7
						c1.5,1.1,2.9,2.2,4.4,3.2c1.1,0.8,2.5,1.5,3.5,2.5c1.2,1.3-0.5,2.6-1.6,3.4c-0.4,0.3-0.9,0.9-0.6,1.5c0.6,1.5,0.9,3,1,4.7
						c0,0.8,0.6,1.3,1.4,1.4c0.9,0.1,1.9,0.2,2.8,0.2c0.2,0,1.2,0,1.4,0.1c0.1,0.1-0.2,0.7-0.3,0.8c-0.6,1.6-1.3,3.1-2,4.7
						c-0.3,0.7-0.6,1.4-0.9,2c-0.3,0.6-0.6,1.6-1.2,1.9c-1,0.4-2.7-1.4-3.4-1.9c-0.4-0.4-1.2-0.6-1.7-0.2c-1.2,0.9-2.4,1.5-3.8,2
						c-0.7,0.3-1.1,0.9-1,1.7c0.1,0.8,0.7,2.2,0.5,3c-0.1,0.8,0.4,0-0.3,0.5c-0.3,0.2-0.9,0.2-1.2,0.3c-1.9,0.4-3.9,0.6-5.9,0.4
						c-0.9-0.1-3.5-0.2-3.5-1.5c0-1.1,0.9-2.4,1.4-3.3c0.4-0.7,0.1-1.4-0.5-1.9c-1-0.8-1.8-1.8-2.5-2.9c-0.4-0.7-1.2-0.8-1.9-0.5
						c-1,0.5-2,1.1-3.1,1.4c-0.6,0.2-0.7,0.3-1-0.2c-0.3-0.5-0.4-1.3-0.6-1.8c-0.6-2.4-1.3-4.8-2-7.1
						C541.1,18.4,538.4,19.1,538.9,20.8z"/>
				</g>
			</g>
			<g>
				<g>
					<path class="st1" d="M558.9,28.3c4-0.4,7.1-2.8,7-7.1c0-3.6-2.7-6.9-6.4-7.2c-3.7-0.4-7.8,2.7-7.6,6.6
						C552.3,24.7,554.2,28.8,558.9,28.3z"/>
				</g>
				<g>
					<path d="M558.9,29.7c3.4-0.4,6.6-2.1,7.9-5.4c1.2-3.3,0.1-7.3-2.5-9.6c-2.8-2.4-6.9-2.6-10-0.6c-1.5,1-2.7,2.4-3.3,4.1
						c-0.6,1.6-0.3,3.5,0.1,5.1c0.4,1.7,1.2,3.5,2.5,4.7C555,29.3,556.9,29.9,558.9,29.7c0.7-0.1,1.4-0.6,1.4-1.4
						c0-0.7-0.6-1.4-1.4-1.4c-1.2,0.1-2.3-0.1-3.2-0.7c-0.9-0.7-1.4-1.7-1.8-2.7c-0.4-1.1-0.7-2.4-0.6-3.6c0.1-1.1,0.8-2.1,1.6-2.9
						c1.9-1.7,4.7-2.1,6.8-0.7c2.1,1.3,3.1,3.9,2.7,6.3c-0.5,2.7-2.9,4.2-5.6,4.5c-0.7,0.1-1.4,0.6-1.4,1.4
						C557.5,29,558.1,29.8,558.9,29.7z"/>
				</g>
			</g>
		</g>
		<g>
			<circle class="st1" cx="13.7" cy="21.4" r="7.3"/>
			<g>
				<path d="M7.8,21.4c0-2.4,1.5-4.7,3.8-5.5c2.4-0.9,5.1-0.1,6.7,1.9c1.5,1.9,1.7,4.6,0.4,6.7c-1.2,2.1-3.7,3.2-6.1,2.8
					C9.9,26.7,7.8,24.2,7.8,21.4c0-1.8-2.8-1.8-2.7,0c0,3.6,2.3,6.8,5.7,8.1c3.3,1.3,7.3,0.2,9.6-2.6c2.3-2.8,2.7-6.8,0.8-10
					c-1.9-3.1-5.5-4.7-9.1-4.1c-4,0.7-6.9,4.4-7,8.5C5,23.1,7.8,23.1,7.8,21.4z"/>
			</g>
		</g>
	</g>
</g>
</svg>
