<svg xmlns="http://www.w3.org/2000/svg" viewBox="0 0 715 96"><defs><style>.cls-1{fill:#4386c6;}.cls-2{fill:#e76969;}</style></defs><title>Mini marco teorico refuerzo - Recarga del limón</title><g id="contenido"><path d="M53.5,49.5H636.72c7.79,0,16,.73,23.74,0,.34,0,.7,0,1,0a1.5,1.5,0,0,0,0-3H78.28c-7.79,0-16-.73-23.74,0-.34,0-.7,0-1,0a1.5,1.5,0,0,0,0,3Z"/><path class="cls-1" d="M84.75,49c-.57-2-1.15-3.91-1.72-5.87a23.65,23.65,0,0,0-1.49-4.75,1.49,1.49,0,0,0-1.29-.75c-1.71.13-3.44,1.25-5,1.93A12.3,12.3,0,0,0,72,35.89c1.24-2.32,3.25-5.7-.12-6.81a20.8,20.8,0,0,0-12.2.26,1.53,1.53,0,0,0-1.05,1.83c.22,1.27.45,2.54.68,3.82a15.68,15.68,0,0,0-4.51,2.39c-1.93-1.63-4.64-4-6.4-1.58a28.76,28.76,0,0,0-2.44,5c-.81,1.82-1.55,3.66-2.25,5.52a1.51,1.51,0,0,0,1.43,1.9c1.55,0,3.1.18,4.64.34a15.25,15.25,0,0,0,1.16,5.51c-1.94,1.41-4.29,3.62-2.35,5.78,1.24,1.38,3.22,2.42,4.71,3.52l5.6,4.11a1.49,1.49,0,0,0,2.19-.87L61.71,63c.3,0,.6.11.91.14a13.77,13.77,0,0,0,3.89-.19c.56,1.26,1,2.6,1.55,3.64a1.52,1.52,0,0,0,2,.55c3.12-1.81,6.65-4.22,8.76-7.21C80.21,58,78.68,56.4,77,55.3a11.06,11.06,0,0,0,1-3.19c1.76.29,4.23-.85,5.7-1.27A1.51,1.51,0,0,0,84.75,49Z"/><path d="M86.2,48.61c-.89-3-1.42-9.94-4.14-11.83-2.35-1.62-5.4.47-7.57,1.49l2.05.54a18.62,18.62,0,0,0-3.49-4l.23,1.82c2.9-5.4,2.2-8.94-4.45-9.73-2.77-.33-7.38-.33-9.92,1.13-2.79,1.61-1.52,4.77-1.06,7.33l1-1.84A23.72,23.72,0,0,0,54,36.09l1.81.23c-1.76-1.47-3.89-3.48-6.38-2.9-3,.7-4.06,4.86-5.11,7.32-.83,2-3,5.11-1.94,7.26,1.2,2.49,5.18,1.87,7.35,2.08l-1.5-1.5c.1,1.44,1,3.78.58,5S47,55.48,46.56,56.91c-.84,2.83,1.5,4.66,3.52,6.12,2.44,1.76,6.44,6.08,9.47,6.16s3.22-3.56,3.61-5.81l-1.85,1.05a18.13,18.13,0,0,0,5.6-.05l-1.7-.69c.8,1.89,1.36,4.67,3.75,5.08,2.22.38,4.78-2.09,6.29-3.23,2-1.5,5.22-3.81,5.57-6.59s-2-3.55-1.37-6.45L78,53.61c3,0,7.72-.75,8.2-4.2.26-1.89-2.63-2.71-2.9-.8-.23,1.73-4.2,2-5.3,2a1.52,1.52,0,0,0-1.45,1.1,10.56,10.56,0,0,1-1,3.19A1.44,1.44,0,0,0,76,56.36c3.1,2.41-.54,5.3-2.69,6.9-1.54,1.15-1.94,1.91-3.66,1.16-1.41-.62-1.21-.85-1.8-2.24a1.51,1.51,0,0,0-1.69-.69,11.44,11.44,0,0,1-4,0,1.51,1.51,0,0,0-1.84,1.05c-.72,4.14-3.23,1.67-5.52,0S48.63,57.82,52,55.15a1.42,1.42,0,0,0,.38-1.45,17.59,17.59,0,0,1-1.1-5.12,1.55,1.55,0,0,0-1.5-1.5c-4.55-.44-4.19-1.58-2.52-5.51,1.35-3.16,2.84-6.16,6.48-3.13a1.55,1.55,0,0,0,1.82.24,14.78,14.78,0,0,1,4.15-2.25,1.55,1.55,0,0,0,1-1.84c-.79-4.4,2.14-4.86,5.9-4.81,4.1,0,6,1.75,4,5.35A1.54,1.54,0,0,0,70.93,37a11.13,11.13,0,0,1,3,3.38,1.55,1.55,0,0,0,2,.53c3.23-1.53,4.31-2,5.37,1.87C82,45,82.65,47.19,83.3,49.41,83.85,51.26,86.74,50.47,86.2,48.61Z"/><path class="cls-2" d="M64.3,40.33c-4.38.43-7.76,3.13-7.72,7.76a8,8,0,0,0,7,7.95c4,.39,8.62-2.95,8.31-7.24S69.45,39.82,64.3,40.33Z"/><path d="M64.3,38.83c-4.87.64-9,3.55-9.2,8.84s3.95,10,9.29,9.9c5.12-.1,9.45-4.39,8.92-9.56s-3.55-9.42-9-9.18c-1.93.08-1.94,3.08,0,3,3.5-.16,5.22,2.24,5.86,5.42a5.92,5.92,0,0,1-5.77,7.32c-3.51.11-6.27-3.09-6.31-6.48,0-3.67,2.8-5.81,6.22-6.26C66.18,41.58,66.21,38.57,64.3,38.83Z"/><circle class="cls-2" cx="663.38" cy="48" r="8"/><path d="M669.88,48c-.45,8.32-13,8.4-13,0s12.55-8.33,13,0c.1,1.92,3.1,1.93,3,0-.28-5.15-4.13-9.5-9.5-9.5a9.49,9.49,0,0,0-.44,19c5.54.25,9.65-4.15,9.94-9.48C673,46.07,670,46.08,669.88,48Z"/></g></svg>