<?xml version="1.0" encoding="utf-8"?>
<!-- Generator: Adobe Illustrator 24.2.0, SVG Export Plug-In . SVG Version: 6.00 Build 0)  -->
<svg version="1.1" id="Layer_1" xmlns="http://www.w3.org/2000/svg" xmlns:xlink="http://www.w3.org/1999/xlink" x="0px" y="0px"
	 viewBox="0 0 119 101" style="enable-background:new 0 0 119 101;" xml:space="preserve">
<style type="text/css">
	.st0{fill:#E4252E;}
</style>
<g>
	<path class="st0" d="M106.5,48.5c-1.1,0-2,0.9-2,2c0,1.1,0.9,2,2,2s2-0.9,2-2C108.5,49.3,107.6,48.5,106.5,48.5 M107.4,50.4
		c0,0.5-0.4,0.9-0.9,0.9c-0.5,0-0.9-0.4-0.9-0.9c0-0.5,0.4-0.9,0.9-0.9C107,49.5,107.4,49.9,107.4,50.4"/>
	<path class="st0" d="M106.5,17.9c-1.1,0-2,0.9-2,2c0,1.1,0.9,2,2,2s2-0.9,2-2C108.5,18.8,107.6,17.9,106.5,17.9 M107.4,19.9
		c0,0.5-0.4,0.9-0.9,0.9c-0.5,0-0.9-0.4-0.9-0.9c0-0.5,0.4-0.9,0.9-0.9C107,19,107.4,19.4,107.4,19.9"/>
	<path class="st0" d="M11.1,48.5c-1.1,0-2,0.9-2,2c0,1.1,0.9,2,2,2c1.1,0,2-0.9,2-2C13,49.3,12.2,48.5,11.1,48.5 M12,50.4
		c0,0.5-0.4,0.9-0.9,0.9s-0.9-0.4-0.9-0.9c0-0.5,0.4-0.9,0.9-0.9S12,49.9,12,50.4"/>
	<path class="st0" d="M11.1,17.9c-1.1,0-2,0.9-2,2c0,1.1,0.9,2,2,2c1.1,0,2-0.9,2-2C13,18.8,12.2,17.9,11.1,17.9 M12,19.9
		c0,0.5-0.4,0.9-0.9,0.9s-0.9-0.4-0.9-0.9c0-0.5,0.4-0.9,0.9-0.9S12,19.4,12,19.9"/>
	<path class="st0" d="M68,46.3H49.2c-1.7,0-3,1.4-3,3c0,1.7,1.4,3,3,3H68c1.7,0,3-1.4,3-3C71,47.6,69.7,46.3,68,46.3"/>
	<path class="st0" d="M68.1,17.4c-1.2,0-2.1,1-2.1,2.1c0,1.2,1,2.1,2.1,2.1c1.2,0,2.1-1,2.1-2.1C70.3,18.3,69.3,17.4,68.1,17.4"/>
	<path class="st0" d="M61.7,17.4c-1.2,0-2.1,1-2.1,2.1c0,1.2,1,2.1,2.1,2.1c1.2,0,2.1-1,2.1-2.1C63.8,18.3,62.9,17.4,61.7,17.4"/>
	<path class="st0" d="M55.3,17.4c-1.2,0-2.1,1-2.1,2.1c0,1.2,1,2.1,2.1,2.1c1.2,0,2.1-1,2.1-2.1C57.4,18.3,56.4,17.4,55.3,17.4"/>
	<path class="st0" d="M48.8,17.4c-1.2,0-2.1,1-2.1,2.1c0,1.2,1,2.1,2.1,2.1c1.2,0,2.1-1,2.1-2.1C51,18.3,50,17.4,48.8,17.4"/>
	<path class="st0" d="M69.2,14.4V5.1h-1.5v9.2h-5.3V5.1H61v9.2h-5V5.1h-1.5v9.2h-5V5.1h-1.5v9.2H5.2v41.9H112V14.4H69.2z
		 M109.8,53.9H7.4V16.7h102.4V53.9z"/>
	<path class="st0" d="M70.2,63.7c-0.3-2.2-2-3.9-4.2-4.2v10c2.2-0.3,3.9-2.1,4.2-4.4h22v-1.4H70.2z"/>
	<polygon class="st0" points="56.4,63.7 56.4,65.1 56.4,68 60.6,68 60.6,65.1 60.6,63.7 60.6,61 56.4,61 	"/>
	<path class="st0" d="M61.7,61v2.7v1.4V68h0c0.9,1,2.2,1.6,3.6,1.6c0,0,0,0,0,0V59.4h0C63.9,59.4,62.6,60.1,61.7,61"/>
	<path class="st0" d="M51.7,59.4c-0.2,0-0.4,0.1-0.3,0.1v10c-0.1,0,0.1,0.1,0.3,0.1c1.4,0,2.7-0.6,3.6-1.6h0.1v-2.9v-1.4V61h-0.1
		C54.4,60.1,53.1,59.4,51.7,59.4"/>
	<path class="st0" d="M46.8,63.7H25v1.4h21.8c0,0,0,0,0,0c0.3,2.2,1.8,3.9,3.9,4.3v-9.9C48.7,60,47.1,61.7,46.8,63.7"/>
	<polygon class="st0" points="13.6,82.8 9.7,82.8 9.7,96.2 5.6,96.2 5.6,82.8 1.6,82.8 1.6,78.9 13.6,78.9 	"/>
	<path class="st0" d="M25.5,91.3h-8.2c0,0.6,0.6,1.5,2.3,1.5c1,0,1.7-0.4,2.1-1l3.6,0.4c-0.2,1.7-2.2,4.3-5.8,4.3
		c-3.9,0-6.4-3-6.4-6.5c0-3.4,2.4-6.3,6.2-6.3c3.8,0,6.2,3,6.2,6.6V91.3z M21.3,88.5c0-0.6-0.8-1.2-2-1.2s-2,0.6-2,1.2H21.3z"/>
	<path class="st0" d="M33.7,87.5c-1.2,0-2.6,0.9-2.6,2.5c0,1.6,1.4,2.5,2.6,2.5c0.9,0,1.7-0.2,2.7-1v3.9c-0.7,0.5-1.8,1-3.4,1
		c-3.7,0-6.3-3-6.3-6.4c0-3.4,2.6-6.4,6.3-6.4c1.6,0,2.7,0.5,3.4,1v3.9C35.4,87.7,34.5,87.5,33.7,87.5"/>
	<path class="st0" d="M51.2,88.8v7.4H47v-5.4c0-2.6-0.7-3.3-2-3.3c-1.2,0-2.6,0.6-2.6,3.1v5.6h-4.1V83.9h3.9l0.2,1.5
		c1.2-1,2.7-1.7,4.3-1.7C49.8,83.6,51.2,85.6,51.2,88.8"/>
	<path class="st0" d="M52.6,90c0-3.5,2.7-6.4,6.7-6.4c4,0,6.7,2.9,6.7,6.4c0,3.5-2.6,6.4-6.7,6.4C55.3,96.5,52.6,93.6,52.6,90
		 M61.9,90c0-1.3-0.9-2.5-2.5-2.5c-1.6,0-2.6,1.2-2.6,2.5c0,1.3,1,2.5,2.6,2.5C60.9,92.5,61.9,91.4,61.9,90"/>
	<polygon class="st0" points="76.4,89.2 81.9,96.2 76.8,96.2 73.4,92 71.9,93.5 71.9,96.2 67.7,96.2 67.7,77.9 71.9,77.9 71.9,88 
		76.1,83.9 81.9,83.9 	"/>
	<path class="st0" d="M87.1,96.2h-4.1V83.9h4.1V96.2z M83,80.6c0-1.1,0.9-2,2-2c1.1,0,2,0.9,2,2c0,1.1-0.9,2-2,2
		C83.9,82.5,83,81.7,83,80.6"/>
	<path class="st0" d="M94.5,83.6c1.9,0,3.2,0.9,3.7,1.9v-7.6h4.1v18.3h-3.9l-0.2-1.6c-0.5,1-1.9,1.9-3.7,1.9c-3.5,0-6-2.9-6-6.4
		C88.5,86.5,91,83.6,94.5,83.6 M95.2,92.5c1.6,0,2.5-1.2,2.5-2.5c0-1.3-0.9-2.5-2.5-2.5c-1.6,0-2.6,1.2-2.6,2.5
		C92.7,91.4,93.6,92.5,95.2,92.5"/>
	<path class="st0" d="M108.2,92.1c0,0.6,0.8,1,1.9,1c0.5,0,1.2-0.1,1.2-0.5c0-0.5-0.6-0.5-3-1.1c-2.4-0.6-3.9-1.8-3.9-3.9
		c0-2.4,2.4-3.9,5.1-3.9c3.5,0,5.5,2,5.5,4.2h-4.1c0-0.6-0.9-0.8-1.2-0.8c-0.5,0-1.1,0.1-1.1,0.5c0,0.3,0.4,0.4,3.2,1.2
		c3.3,1,3.8,2.7,3.8,3.9c0,2.6-2.6,3.8-5.5,3.8c-3.5,0-6-1.4-6-4.4H108.2z"/>
	<path class="st0" d="M89,50.3c-8.5,0-15.4-6.9-15.4-15.4S80.5,19.4,89,19.4s15.4,6.9,15.4,15.4S97.5,50.3,89,50.3z M89,21.3
		c-7.5,0-13.6,6.1-13.6,13.6S81.5,48.4,89,48.4s13.6-6.1,13.6-13.6S96.5,21.3,89,21.3z"/>
	<rect x="75.5" y="30.7" class="st0" width="27" height="1.9"/>
	<rect x="79.5" y="23.4" class="st0" width="19" height="1.9"/>
	<rect x="80.5" y="45.4" class="st0" width="17" height="1.9"/>
	<rect x="75.5" y="38.1" class="st0" width="27" height="1.9"/>
	<rect x="91.7" y="21.3" class="st0" width="1.9" height="27.5"/>
	<rect x="99.1" y="25.4" class="st0" width="1.9" height="19.4"/>
	<rect x="77.1" y="25.3" class="st0" width="1.9" height="18.4"/>
	<rect x="84.4" y="21.3" class="st0" width="1.9" height="27.5"/>
	<path class="st0" d="M31,50.3c-8.5,0-15.4-6.9-15.4-15.4S22.5,19.4,31,19.4s15.4,6.9,15.4,15.4S39.5,50.3,31,50.3z M31,21.3
		c-7.5,0-13.6,6.1-13.6,13.6S23.5,48.4,31,48.4s13.6-6.1,13.6-13.6S38.5,21.3,31,21.3z"/>
	<rect x="17.5" y="30.7" class="st0" width="27" height="1.9"/>
	<rect x="21.5" y="23.4" class="st0" width="19" height="1.9"/>
	<rect x="22.5" y="45.4" class="st0" width="17" height="1.9"/>
	<rect x="17.5" y="38.1" class="st0" width="27" height="1.9"/>
	<rect x="33.7" y="21.3" class="st0" width="1.9" height="27.5"/>
	<rect x="41.1" y="25.4" class="st0" width="1.9" height="19.4"/>
	<rect x="19.1" y="25.3" class="st0" width="1.9" height="18.4"/>
	<rect x="26.4" y="21.3" class="st0" width="1.9" height="27.5"/>
</g>
</svg>
