<?xml version="1.0" encoding="utf-8"?>
<!-- Generator: Adobe Illustrator 24.2.0, SVG Export Plug-In . SVG Version: 6.00 Build 0)  -->
<svg version="1.1" id="Layer_1" xmlns="http://www.w3.org/2000/svg" xmlns:xlink="http://www.w3.org/1999/xlink" x="0px" y="0px"
	 viewBox="0 0 131 131" style="enable-background:new 0 0 131 131;" xml:space="preserve">
<style type="text/css">
	.st0{fill:#FFFFFF;}
	.st1{fill:#E56869;}
</style>
<circle class="st0" cx="66" cy="65.4" r="59.9"/>
<g>
	<g>
		<path class="st1" d="M100.9,63.6c-0.8,0-1.4,0.6-1.4,1.4c0,0.8,0.6,1.4,1.4,1.4c0.8,0,1.4-0.6,1.4-1.4
			C102.3,64.3,101.7,63.6,100.9,63.6 M101.6,65.1c0,0.4-0.3,0.7-0.7,0.7c-0.4,0-0.7-0.3-0.7-0.7c0-0.4,0.3-0.7,0.7-0.7
			C101.3,64.4,101.6,64.7,101.6,65.1"/>
		<path class="st1" d="M100.9,41.4c-0.8,0-1.4,0.6-1.4,1.4c0,0.8,0.6,1.4,1.4,1.4c0.8,0,1.4-0.6,1.4-1.4
			C102.3,42.1,101.7,41.4,100.9,41.4 M101.6,42.9c0,0.4-0.3,0.7-0.7,0.7c-0.4,0-0.7-0.3-0.7-0.7c0-0.4,0.3-0.7,0.7-0.7
			C101.3,42.2,101.6,42.5,101.6,42.9"/>
		<path class="st1" d="M31.5,63.6c-0.8,0-1.4,0.6-1.4,1.4c0,0.8,0.6,1.4,1.4,1.4c0.8,0,1.4-0.6,1.4-1.4
			C32.9,64.3,32.3,63.6,31.5,63.6 M32.1,65.1c0,0.4-0.3,0.7-0.7,0.7s-0.7-0.3-0.7-0.7c0-0.4,0.3-0.7,0.7-0.7S32.1,64.7,32.1,65.1"/>
		<path class="st1" d="M31.5,41.4c-0.8,0-1.4,0.6-1.4,1.4c0,0.8,0.6,1.4,1.4,1.4c0.8,0,1.4-0.6,1.4-1.4
			C32.9,42.1,32.3,41.4,31.5,41.4 M32.1,42.9c0,0.4-0.3,0.7-0.7,0.7s-0.7-0.3-0.7-0.7c0-0.4,0.3-0.7,0.7-0.7S32.1,42.5,32.1,42.9"/>
		<path class="st1" d="M72.9,62.1H59.2c-1.2,0-2.2,1-2.2,2.2c0,1.2,1,2.2,2.2,2.2h13.7c1.2,0,2.2-1,2.2-2.2
			C75.1,63,74.1,62.1,72.9,62.1"/>
		<path class="st1" d="M73,41c-0.9,0-1.6,0.7-1.6,1.6c0,0.9,0.7,1.6,1.6,1.6c0.9,0,1.6-0.7,1.6-1.6C74.5,41.7,73.8,41,73,41"/>
		<path class="st1" d="M68.3,41c-0.9,0-1.6,0.7-1.6,1.6c0,0.9,0.7,1.6,1.6,1.6c0.9,0,1.6-0.7,1.6-1.6C69.8,41.7,69.1,41,68.3,41"/>
		<path class="st1" d="M63.6,41c-0.9,0-1.6,0.7-1.6,1.6c0,0.9,0.7,1.6,1.6,1.6c0.9,0,1.6-0.7,1.6-1.6C65.2,41.7,64.5,41,63.6,41"/>
		<path class="st1" d="M58.9,41c-0.9,0-1.6,0.7-1.6,1.6c0,0.9,0.7,1.6,1.6,1.6c0.9,0,1.6-0.7,1.6-1.6C60.5,41.7,59.8,41,58.9,41"/>
		<path class="st1" d="M73.7,38.9v-6.7h-1.1v6.7h-3.8v-6.7h-1.1v6.7h-3.6v-6.7h-1.1v6.7h-3.6v-6.7h-1.1v6.7H27.2v30.4h77.7V38.9
			H73.7z M103.3,67.6H28.8v-27h74.5V67.6z"/>
		<path class="st1" d="M74.5,74.8c-0.3-1.6-1.5-2.8-3.1-3.1V79c1.6-0.2,2.9-1.5,3.1-3.2h16v-1H74.5z"/>
		<polygon class="st1" points="64.4,74.8 64.4,75.8 64.4,77.9 67.5,77.9 67.5,75.8 67.5,74.8 67.5,72.8 64.4,72.8 		"/>
		<path class="st1" d="M68.3,72.8v2v1v2.1h0c0.7,0.7,1.6,1.1,2.6,1.1c0,0,0,0,0,0v-7.4h0C69.9,71.6,68.9,72.1,68.3,72.8"/>
		<path class="st1" d="M61,71.6c-0.1,0-0.3,0-0.2,0V79c0,0,0.1,0,0.2,0c1,0,2-0.4,2.6-1.1h0.1v-2.1v-1v-2h-0.1
			C63,72.1,62.1,71.6,61,71.6"/>
		<path class="st1" d="M57.4,74.8H41.6v1h15.9c0,0,0,0,0,0c0.2,1.6,1.3,2.8,2.9,3.2v-7.2C58.8,72,57.7,73.3,57.4,74.8"/>
		<polygon class="st1" points="33.3,88.6 30.5,88.6 30.5,98.4 27.4,98.4 27.4,88.6 24.6,88.6 24.6,85.8 33.3,85.8 		"/>
		<path class="st1" d="M41.9,94.8h-6c0,0.4,0.4,1.1,1.7,1.1c0.7,0,1.2-0.3,1.6-0.7l2.6,0.3c-0.2,1.2-1.6,3.1-4.2,3.1
			c-2.9,0-4.7-2.2-4.7-4.7c0-2.5,1.7-4.6,4.5-4.6c2.8,0,4.5,2.2,4.5,4.8V94.8z M38.9,92.8c0-0.5-0.6-0.9-1.5-0.9S36,92.3,36,92.8
			H38.9z"/>
		<path class="st1" d="M47.9,92.1c-0.9,0-1.9,0.6-1.9,1.8c0,1.2,1,1.8,1.9,1.8c0.6,0,1.2-0.1,1.9-0.7v2.8c-0.5,0.4-1.3,0.7-2.5,0.7
			c-2.7,0-4.6-2.1-4.6-4.7c0-2.5,1.9-4.7,4.6-4.7c1.2,0,2,0.4,2.5,0.7v2.8C49.2,92.2,48.5,92.1,47.9,92.1"/>
		<path class="st1" d="M60.6,93v5.4h-3v-3.9c0-1.9-0.5-2.4-1.5-2.4c-0.9,0-1.9,0.4-1.9,2.2v4.1h-3v-9h2.8l0.2,1.1
			c0.9-0.7,1.9-1.3,3.1-1.3C59.7,89.2,60.6,90.7,60.6,93"/>
		<path class="st1" d="M61.7,93.9c0-2.6,2-4.7,4.9-4.7c2.9,0,4.8,2.1,4.8,4.7c0,2.6-1.9,4.7-4.8,4.7C63.7,98.6,61.7,96.5,61.7,93.9
			 M68.4,93.9c0-1-0.7-1.8-1.8-1.8c-1.2,0-1.9,0.9-1.9,1.8c0,1,0.7,1.8,1.9,1.8C67.7,95.7,68.4,94.9,68.4,93.9"/>
		<polygon class="st1" points="79,93.3 83,98.4 79.3,98.4 76.8,95.4 75.7,96.5 75.7,98.4 72.7,98.4 72.7,85.1 75.7,85.1 75.7,92.4 
			78.8,89.4 83,89.4 		"/>
		<path class="st1" d="M86.7,98.4h-3v-9h3V98.4z M83.8,87c0-0.8,0.6-1.4,1.4-1.4c0.8,0,1.4,0.6,1.4,1.4c0,0.8-0.6,1.4-1.4,1.4
			C84.4,88.5,83.8,87.8,83.8,87"/>
		<path class="st1" d="M92.1,89.2c1.4,0,2.3,0.6,2.7,1.4v-5.5h3v13.3H95l-0.2-1.2c-0.4,0.7-1.3,1.4-2.7,1.4c-2.6,0-4.3-2.1-4.3-4.7
			C87.8,91.3,89.6,89.2,92.1,89.2 M92.7,95.7c1.2,0,1.8-0.9,1.8-1.8c0-1-0.7-1.8-1.8-1.8c-1.2,0-1.9,0.9-1.9,1.8
			C90.8,94.9,91.5,95.7,92.7,95.7"/>
		<path class="st1" d="M102.1,95.4c0,0.4,0.6,0.7,1.4,0.7c0.3,0,0.9-0.1,0.9-0.4c0-0.3-0.5-0.4-2.2-0.8c-1.8-0.5-2.9-1.3-2.9-2.8
			c0-1.8,1.8-2.8,3.7-2.8c2.6,0,4,1.4,4,3h-3c0-0.5-0.6-0.6-0.9-0.6c-0.4,0-0.8,0.1-0.8,0.3c0,0.2,0.3,0.3,2.3,0.9
			c2.4,0.7,2.7,1.9,2.7,2.8c0,1.9-1.9,2.8-4,2.8c-2.6,0-4.3-1-4.3-3.2H102.1z"/>
		<path class="st1" d="M88.2,65c-6.2,0-11.2-5-11.2-11.2s5-11.2,11.2-11.2s11.2,5,11.2,11.2S94.4,65,88.2,65z M88.2,43.9
			c-5.4,0-9.9,4.4-9.9,9.9s4.4,9.9,9.9,9.9s9.9-4.4,9.9-9.9S93.6,43.9,88.2,43.9z"/>
		<rect x="78.3" y="50.8" class="st1" width="19.6" height="1.4"/>
		<rect x="81.3" y="45.4" class="st1" width="13.8" height="1.4"/>
		<rect x="82" y="61.4" class="st1" width="12.4" height="1.4"/>
		<rect x="78.3" y="56.1" class="st1" width="19.6" height="1.4"/>
		<rect x="90.1" y="43.9" class="st1" width="1.4" height="20"/>
		<rect x="95.5" y="46.9" class="st1" width="1.4" height="14.1"/>
		<rect x="79.5" y="46.8" class="st1" width="1.4" height="13.4"/>
		<rect x="84.8" y="43.9" class="st1" width="1.4" height="20"/>
		<path class="st1" d="M46,65c-6.2,0-11.2-5-11.2-11.2s5-11.2,11.2-11.2s11.2,5,11.2,11.2S52.2,65,46,65z M46,43.9
			c-5.4,0-9.9,4.4-9.9,9.9s4.4,9.9,9.9,9.9s9.9-4.4,9.9-9.9S51.4,43.9,46,43.9z"/>
		<rect x="36.1" y="50.8" class="st1" width="19.6" height="1.4"/>
		<rect x="39.1" y="45.4" class="st1" width="13.8" height="1.4"/>
		<rect x="39.8" y="61.4" class="st1" width="12.4" height="1.4"/>
		<rect x="36.1" y="56.1" class="st1" width="19.6" height="1.4"/>
		<rect x="47.9" y="43.9" class="st1" width="1.4" height="20"/>
		<rect x="53.3" y="46.9" class="st1" width="1.4" height="14.1"/>
		<rect x="37.3" y="46.8" class="st1" width="1.4" height="13.4"/>
		<rect x="42.6" y="43.9" class="st1" width="1.4" height="20"/>
	</g>
</g>
</svg>
