<svg xmlns="http://www.w3.org/2000/svg" viewBox="0 0 303 190" xmlns:v="https://vecta.io/nano"><g fill="#fff"><g stroke="#fff" stroke-linejoin="round" stroke-miterlimit="10" stroke-width="5"><path d="M284.2 97.6a.76.76 0 0 0-.4.2c1-.3 1.4-.4.4-.2zM20.7 136.9c.1 0 .3 0 .6-.1-.6 0-.9 0-.6.1zm2.2 9.1c.2 0 .5 0 .8-.1-1.2 0-1.6-.1-.8.1zm259.3-51.6a.76.76 0 0 0-.4.2c1-.4 1.4-.5.4-.2z"/><path d="M21.7 140.4c.2 0 .5 0 .8-.1-1.2 0-1.6-.1-.8.1zm-2.1-8.9c.1 0 .3 0 .6-.1-.6 0-.8 0-.6.1zm3.6 7.3c.2 0 .5 0 .8-.1-1.2 0-1.6-.1-.8.1zm260.5-46a.76.76 0 0 0-.4.2c1-.3 1.4-.5.4-.2z"/><path d="M267.4 141.5c9.8-2.9 19.7-6.7 28.8-11.9 0 0-5.6 1-9.4.8-.8 0-.8-.5-.4-1.2 2.5-1.1 4.9-2.3 7.2-3.6 0 0-.9.1-2.2.3l3.7-1.9s-1.8.3-4.1.5c2.5-2.3 4.9-4.8 4.8-6.3 0 0-3.9 1.9-7.6 2.7 1.4-1.2 2.8-2.6 3.8-3.7 1.7-1.7 3-3.3 2.9-4.3 0 0-3.4 1.6-6.9 2.5 1.9-1.9 3.9-3.6 3.9-3.6s-5.4 2.1-8.3 2.6c.3-.6.8-1.3 1.5-2 2.2-2.1 4.6-4.1 4.6-4.1s-.2.1-.6.2c1.2-1.1 2.1-1.8 2.1-1.8s-3.3 1.2-6.1 2c1.6-2 3.4-3.9 4.5-4.6 1.9-1.3-3.3 1.1-7.2 2.2.8-1.2 2-2.6 3.1-3.9.8-.7 1.5-1.4 2-1.7.6-.4.5-.4-.1-.2.6-.6 1.2-1.1 1.6-1.4 2.3-1.4-5.4 2-9.1 2.5 1.1-1.7 2.5-3.3 3.8-3.9-1.2.3-3.4.9-5.5 1.2.4-1.1 1.2-2.4 2.1-3.6a8.05 8.05 0 0 1 1.4-.9c-.2.1-.5.1-.8.2.8-.8 1.6-1.5 2.3-1.8-1.4.4-3.9 1-6.1 1.2 2.2-2 4.7-4.2 5.1-5.7.4-1.8-2.5-.1-5.5 1.3 1.1-.9 2.1-1.9 2.8-2.7 1.2-1.2 2.2-2.3 2.5-3.2.5-2-3.2.2-6.5 1.7 3-2.5 6.2-5.2 6-7 0 0-3 1.5-6.3 2.8 1.4-1.2 2.8-2.3 3.6-3.4 1.5-1.4 2.6-2.7 2.5-3.8 0 0-5.2 2.5-9.3 3.8 2.7-2.4 5.9-4.9 6.4-6 0 0-3.9 1.7-7.4 2.7 2.4-2 4.9-4 5.7-5.1.8-.8 1.5-1.4 1.7-1.8 0 0-3.5 1.5-6.8 2.4 1.8-1.4 3.6-3 4.5-4.3 0 0-3.2 1.1-6.4 2 1.8-1.4 3.7-2.8 4.6-4.1.8-.7 1.4-1.3 1.8-1.9 0 0-2.6.9-5.3 1.6 2-2 3.5-3.9 2.8-4.8 0 0-1.4.7-3.2 1.4.2-.2.4-.4.6-.7 2-1.9 3.5-3.8 2.8-4.6 0 0-2.5 1.1-5 2 1.7-2 3.2-4.1 3.1-5.5 0 0-1.4 1-3.2 2 1.9-2 3.6-4.3 3.5-5.7 0 0-3.3 2.2-6.2 3.3 2.2-3.2 4.2-6.8 2.4-6.8 1.4-2.4 1.9-4.2-.6-3.4 0 0-18.4 20.9-78.4 26.9-21.2 2.1-37.4 2.2-50.9 1.6l-13.3-.7c-18.4-1.2-32.4-2.8-50.4.6-46.1 8.3-58.8 20.3-64.6 26L9.1 96c-.9.8-1.5 1.5-2.2 1.8-1.2.7-1.2.9-.4.8-.5.4-.8.7-1.2.9-3.3 1.9 2.9.2 7.7-1.5-3.8 3-5.5 5.2-7.2 6.1-2.4 1.4.2.9 3.6-.2h.6c-1.2 1-2.3 1.7-2.9 1.6-1.8 0 3 .3 7.9-1.2-2.6 2.8-5.8 6-7.2 6-1.3 0 .9.1 4-.4 0 .1.1.2.3.2-5.1 2.4 1.3 1.9 7 .4-1.7 1.6-3.7 3.2-5.9 4.2-4.2 2-2 2.2 1.8 1.7-.2.1-.5.2-.7.3-1.7.5-1.3.8.1.9-.6.3-1.1.6-1.6.7-4 1.2 3.4 1.3 8.6-.4-2.6 2.4-5.7 4.8-7.7 5.4-2.7.9-.1 1.1 3.5.7-.3.2-.7.3-.9.4-1.6.3 2.4.7 7.1.3-2.2 2.3-5 4.7-6.2 4.9-1.4.2 1.7.6 5.9.4-1.2.7-2.2 1.2-2.8 1.4 1.6.1 5.7.5 9.3.2-3 2.2-6.7 4.6-8.2 5.2 1.1.1 3.2.2 5.6.3-1.2.8-2.2 1.4-3 1.6h1.4c-1.2.8-2.2 1.4-2.9 1.6 2.1 0 6.6 0 11-1.5-3.2 2.8-7.7 6.3-9.8 7.1h2.1c-.2.1-.4.1-.5.2-.9 0 0 .1 1.6 0-1.5.9-2.7 1.6-3.2 1.6-2.4.1 7.5.3 11.8-2.3 1.2-.7 1.1-.3.3.7l-.4.4c-3.8 3.1-9.2 7-10.4 7.1-.9 0-.1.1 1.4 0-.3.1-.5.2-.7.2-1 .1-.7.4.6.6-.9.6-1.7 1-2.1 1-2.3.2 2.2 1.6 9.9-.5-3 2.9-7.1 6.3-8.4 6.4-1.5.1-.2.8 3 .7.1.1.2.1.3.2-.7.4-1.2.7-1.5.8-1.9.7 2.4 2.3 9.9-.6 1.1-.4 1.7-.5 1.9-.5-3.2 2.8-9.1 6.8-10.2 7.2-.8.3-.5.7.5.9l-1.2.7c-1.7.7 4.5 2 11.1-2.1.5-.3.9-.5 1.2-.6 2.9-.3-9 8.5-10.5 9.1-1.7.7.6 1.2 7.2-3.1.7-.4 1.2-.7 1.7-.8-.6.8-1.2 1.5-1.8 2.2-.2.2-.5.4-.6.5-.6.4-.7.6-.4.6-.5.5-.8.8-1.1 1-1.6 1 .1 1.4 5.5-3.4.6 2.5-2.1 8.9-3.6 9.8-2.1 1.3 1.2 1.7 10.3-8.5 1.9-2.1 5.9-4.4 11-6.5l4.9 16.3 8.5-2.9-.5-1.6 2.1-.7-4.5-15 2.9-.9 7 7.4 3.1-1 .3-1.9 1.3-.4 1.2-7.8c1.4-.4 2.7-.7 4.1-1l4.7 15.6 8.5-2.9-.5-1.6 2.1-.7-3.9-12.9 5.6-1.1c3.4 10 10.1 13.6 19.5 12.1 5.3-.9 9.2-3 11.6-6.6 2-1.9 3.4-4.5 4.1-7.8l8-.3 1 8.9 9.2-.7-.2-2 1.9-.1-.7-6.5 9.5-.4 6.2 7.8 9.2-.7-.2-2 1.9-.1-.6-5.7c3.5-.2 6.8-.3 9.6-.4l1.7 9.5 13.7-2.2c4.8-.8 8.7-3.4 11.2-7.1.4-.5.9-1 1.3-1.5 4.2-.4 9.1-.9 14.4-1.6 4.4 4.1 10 6.1 15.8 5.1 4.4-.8 8.1-3.4 10.8-6.9 1.2-1.8 2.3-3.4 3.2-5.1zm-142.5 13.8c-2.7.4-4.7 0-6.2-1.6h.9c1.4.1 4.6 0 9-.1a.76.76 0 0 1-.2.4c-.9.7-2 1.1-3.5 1.3zM83.2 64.8c30.9-3 100-18.3 135.3-22.6-4.7-12.1-5.3-24.6-8-37.5l-57.8 8.6c-.1-.9-.5-1.8-.6-2.5l-.9-3.1c-.2-.5-.8-.2-.7.3v.1h-.2c-.2.1-.3.1-.5.1s-.3 0-.5.1c-.1 0-.1.1-.1.2-.4.1-.7.2-1.1.3-.5-.1-1.1 0-1.6.1-.1 0-.1 0-.2.1-.1 0-.2.1-.3.2-.3-.1-.6-.1-.9-.1 0-.1-.1-.3-.3-.3-.4 0-.8.1-1.2.1-.1-.1-.3-.2-.4-.3-.3-.2-.6.1-.6.4-2-.1-3.9.2-5.9.6-.1 0-.3 0-.4.1-2.7.5-5 2-7.6 2.6-.1 0-.1.1-.1.1-.1 0-.1.1-.1.2s.1.2.2.2v.1c-.1-.1-.2-.2-.3-.2-.4-.3-.8.2-.5.5l-.1.1v-.4c0-.2-.4-.2-.4.1l.6 4-49.8 7.4c1.3 14.7 2.4 25.8 5 40.4zm51.4-51.3c.2.2.5.4.5.6v.1c-.1-.2-.1-.3-.3-.5l-.1-.1c-.1 0-.1-.1-.1-.1zm-1.7 2c-.1 0-.1 0 0 0-.1-.1-.2-.1-.2-.1v-.1c0 .1.1.1.2.2zm-.9-1l-.2-.2-.2-.2a.78.78 0 0 1 .4.4zm10.2-.9c.1-.1.1-.2.2-.3-.1.1-.1.2-.2.3zm-1.8.1zm-3.3 1.8c.1-.2.3-.4.5-.6-.2.3-.3.4-.5.6zm5.8-1.1l-.1-.1h-.1c.1-.1.1-.3.2-.4.1 0 .2-.1.3-.3.1-.4.1-.8.1-1.2 0-.2.1-.5.1-.7.2-.1.3-.4.2-.6 0-.1-.1-.1-.1-.1v-.2c.5.3 1 .8 1 1.3 0 .7-.6 1.4-1 2-.1.2-.3.3-.4.5l-.2-.2zm-1.3-4v.1c-.1 0-.2-.1-.2-.1h.2zm-3.3 3c.1.2 0 .4-.2.7.1-.2.1-.3-.1-.6s-.6-.6-.9-.8c-.1 0-.1-.1-.2-.2.5.3 1.3.7 1.4.9zm-1 .4c.2.5-.7 1.2-1 1.7-.1.1-.1.2-.1.3 0-.1 0-.2.1-.3v-.1c.1-.4.1-.8.2-1.1.3.1.6-.2.4-.5 0 0 0-.1-.1-.1v-.1c0-.2 0-.3-.1-.4.1.1.5.4.6.6zm9.3-2.2h.2c-.1.1-.1.1-.2 0 0 .2 0 .3-.1.4 0-.1.1-.2.1-.4zm.5 0zm-1.3-.2c0 .1 0 .3-.1.4l-.3.6v.1-.2c.1-.3.1-.5.1-.7-.1-.5-.8-.9-1.3-1.2-.1-.1-.2-.1-.3-.2h.1c.6.3 1.2.7 1.8 1.2zm2.5 1.9zm-12.4-.8c0 .1.1.1.2.2-.2-.1-.2-.1-.2-.2-.1 0 0 0 0 0zm-2.5.6h-.1l-.1-.1h.1s.1 0 .1.1zm15.6-2.3c0 .2-.3.7-.3.9-.1.2-.1.4-.1.6 0-.3.1-.6 0-.8 0-.1.1-.2.1-.2.1-.5-.2-.9-.6-1.3l-.1-.1c.2.1.4.2.6.4.3.2.4.2.4.5zm-13.5.2c-.1 0-.2 0-.3-.1.1.1.1.1.3.1-.1 0 0 0 0 0zm.1 1.1c-.1 0-.1.1 0 0-.1.1-.1.1 0 0-.1 0-.1-.1-.1-.1l-.1-.1c-.2-.2-.4-.1-.5.1-.1-.1-.2-.1-.3-.2.2-.1.4-.1.5-.1.2.1.3.3.5.4zm3.7-2.3h-.5.5zm-5.8 1.7c.1 0 .2-.1.3-.1-.1 0-.2 0-.3.1zm-.5.2c0-.1-.1-.1 0 0 0-.1 0-.1 0 0 0-.1 0-.1 0 0zm-2.3.5zm20.7-1.1c-.1-.2-.1-.4-.1-.5 0 .2.1.4.1.5s0 .1 0 0zm-16.7-.3c-.6.2-1.2.3-1.8.5.5-.2 1.1-.4 1.6-.6.1.1.2.1.2.1z"/></g><path d="M267.2 44s-19.4 21.3-79.7 26.7c-60.4 5.4-57.4-10.3-114 3.1C16.8 87.2 10.7 101.2 5.9 104c-4.9 2.8 10.4-2 12.3-3.8s-7.7 10-10.4 10 9.5.7 14.6-5.4c5-6.1-.6 5.9-9.1 9.9s9.3 1 12.8-1.9-7.5 8.9-12.4 10.5 7.5 1.2 11.8-1.9c4.2-3.1-5.7 7.7-8.2 8.2-2.5.4 9.1 1.3 15.5-1.7s-10.5 9.5-12 8.9 11.1 1.5 15.6-1.4c4.5-3-10.9 11.1-13.4 10.5s7.2 1.1 14.7-2.9-10.1 10.1-12.4 10.3c-2.4.1 7.5.2 11.9-2.4 4.4-2.7-8.5 10-11.1 10.2s3.5 2.1 12.9-1.5c9.5-3.5-7.6 8.5-9.5 9.2-1.9.8 2.5 2.3 9.9-.7 7.5-3-7.2 7.9-8.9 8.6s.6 1.2 7.2-3.1c6.6-4.2 1.7 8.6-.3 9.9-2.1 1.3 1.2 1.7 10.3-8.5 9-10.1 63.7-22 72.1-21.5s87-3.4 87-3.4 51.6.6 89.6-20.7c0 0-5.6 1-9.4.8s9.4-8.7 9-12.1c0 0-6.3 3.2-10.6 3.1s6.8-9.5 6.8-9.5-8.5 3.3-9.9 2.7c-1.5-.6 5.1-8.8 7.6-10.5s-7.2 2.9-10.2 2.7 1.5-8.3 4.7-9.2-8.3 2.7-10.3 1.3c-2-1.5 7.7-7.3 8.4-10.4.7-3.2-8.7 4.3-11.1 2.5-2.4-1.9 10.7-8.8 10.3-12.4 0 0-10.8 5.4-13.4 4.6s9.3-8.9 10.3-11.2c0 0-8.8 3.8-11.6 3.4-2.8-.5 7-5.8 9.2-9.4 0 0-8.5 3-11.3 2.8 0 0 10.4-8 8.8-10 0 0-7.1 3.4-9.6 2.8 0 0 8.2-7.2 7.9-10.3 0 0-6.5 4.5-9.3 4.2-.2-.1 10.4-13.3 4.5-11.3z"/></g><path d="M266.2 42s-19.6 20.7-79.7 25.7-69.6-5.1-113.4 2.5C15.9 80.3 10.2 96.8 5.3 99.5s10.4-1.9 12.3-3.6-7.8 9.7-10.5 9.7 9.4.7 14.6-5.2c5.1-5.9-.7 5.7-9.2 9.6s9.3 1 12.8-1.8-7.6 8.7-12.5 10.2 7.5 1.2 11.7-1.8c4.3-3-5.8 7.5-8.3 7.9s9.1 1.3 15.5-1.6-10.6 9.2-12.1 8.6 11 1.5 15.5-1.3c4.6-2.9-11 10.8-13.5 10.2s7.2 1.1 14.6-2.8c7.5-3.8-10.2 9.8-12.5 10-2.4.1 7.5.3 11.8-2.3 4.4-2.6-8.6 9.7-11.2 9.9s3.4 2 12.9-1.4-7.7 8.2-9.6 9c-1.9.7 2.4 2.3 9.9-.6s-7.3 7.7-9 8.3c-1.7.7 4.5 2 11.1-2.1s-2.3 7.6-4.4 8.8c-2.1 1.3 1.2 1.6 10.3-8.2s63.7-21.1 72-20.6 86.6-2.9 86.6-2.9 51.3.8 89.4-19.8c0 0-5.6.9-9.3.7-3.8-.2 9.5-8.5 9.2-11.8 0 0-6.4 3.1-10.6 3-4.3-.1 6.9-9.2 6.9-9.2s-8.5 3.1-9.9 2.5c-1.5-.6 5.2-8.6 7.7-10.2s-7.2 2.8-10.2 2.6 1.6-8.1 4.8-9c3.2-.8-8.3 2.6-10.3 1.2s7.7-7 8.5-10.1-8.7 4.2-11 2.3c-2.3-1.8 10.8-8.6 10.4-12.1 0 0-10.8 5.2-13.4 4.4s9.4-8.7 10.4-10.9c0 0-8.8 3.7-11.6 3.2s7-5.7 9.3-9.1c0 0-8.5 2.9-11.2 2.6 0 0 10.5-7.7 8.9-9.8 0 0-7.1 3.3-9.6 2.7 0 0 8.3-6.9 8-10 0 0-6.6 4.3-9.3 4.1.1.1 10.8-12.7 5-10.8z" fill="#3e2959"/><path d="M267.7 40.4s-18.4 20.9-78.4 26.9c-61.2 6-80.8-4.8-114.7 1.4-57 10.6-62.8 26.5-67.7 29.2s10.3-1.9 12.3-3.6c1.9-1.7-7.8 9.7-10.5 9.7s9.4.7 14.6-5.2c5.1-5.9-.7 5.7-9.2 9.6s9.3 1 12.8-1.8-7.6 8.7-12.5 10.2 7.5 1.2 11.7-1.8c4.3-3-5.8 7.5-8.3 7.9s9.1 1.3 15.5-1.6-10.6 9.2-12.1 8.6 11 1.5 15.5-1.3c4.6-2.9-11 10.8-13.5 10.2s7.2 1.1 14.6-2.8c7.5-3.8-10.2 9.8-12.5 10-2.4.1 7.5.3 11.8-2.3 4.4-2.6-8.6 9.7-11.2 9.9s3.4 2 12.9-1.4-7.7 8.2-9.6 9c-1.9.7 2.4 2.3 9.9-.6s-7.3 7.7-9 8.3c-1.7.7 4.5 2 11.1-2.1s-2.3 7.6-4.4 8.8c-2.1 1.3 1.2 1.6 10.3-8.2s63.7-21.1 72-20.6 86.6-2.9 86.6-2.9 51.3.8 89.4-19.8c0 0-5.6.9-9.3.7-3.8-.2 9.5-8.5 9.2-11.8 0 0-6.4 3.1-10.6 3s6.9-9.2 6.9-9.2-8.5 3.1-9.9 2.5c-1.5-.6 5.2-8.6 7.7-10.2s-7.2 2.8-10.2 2.6 1.6-8.1 4.8-9c3.2-.8-8.3 2.6-10.3 1.2s7.7-7 8.5-10.1-8.7 4.2-11 2.3c-2.3-1.8 10.8-8.6 10.4-12.1 0 0-10.8 5.2-13.4 4.4s9.4-8.7 10.4-10.9c0 0-8.8 3.7-11.6 3.2s7-5.7 9.3-9.1c0 0-8.5 2.9-11.2 2.6 0 0 10.5-7.7 8.9-9.8 0 0-7.1 3.3-9.6 2.7 0 0 8.3-6.9 8-10 0 0-6.6 4.3-9.3 4.1 0 .1 10.7-12.7 4.9-10.8z" fill="#fbdcd5"/><path d="M88 125.3l14.1 46.6-8.5 2.9-8.2-26.8-3.4 22.3-3.1 1-15.1-16.1L72 182l-8.5 2.9-14.1-46.6 8.5-2.9 17.5 18.2 4.2-25.5 8.4-2.8zm36.9 42.3c-11 1.8-18.4-3.5-21-18L99.5 125l9.9-1.6 4.4 24.6c1.5 8.1 4.2 10.4 9.3 9.5 5.2-.8 7-3.8 5.5-11.9l-4.4-24.6 9.9-1.6 4.4 24.6c2.6 14.5-2.6 21.8-13.6 23.6zm54.9-51.4l4.8 43-9.2.7-19.5-24.6 2.9 25.8-9.2.7-4.8-43 9.2-.7 19.5 24.6-2.9-25.8 9.2-.7zm45.2 18.2c2.1 11.7-3.8 22.1-14.3 23.8l-13.7 2.2-7.6-41.7 13.7-2.2c10.5-1.7 19.8 6.2 21.9 17.9zm-8.9 1.5c-1.5-8.1-6.5-10.7-11.4-10l-4.8.8 4.2 22.9 4.8-.8c4.9-.8 8.7-4.8 7.2-12.9zm13.7-2.5c-2.4-12.9 4.2-24.8 14.9-26.8s21.1 6.7 23.5 19.6S264 151 253.3 153s-21.1-6.7-23.5-19.6zm29.4-5.5c-1.3-7.1-6.5-12.3-12.7-11.1-6.1 1.1-9.1 7.8-7.8 14.9s6.5 12.3 12.7 11.1c6.1-1.1 9.1-7.8 7.8-14.9z" fill="#183e41"/><path d="M89.6 123l14.1 46.6-8.5 2.9-8.2-26.8-3.4 22.3-3.1 1-15.1-16.1 8.2 26.8-8.5 2.9L50.9 136l8.5-2.9 17.5 18.2 4.2-25.5 8.5-2.8z" fill="#f9c710"/><path d="M126.7 165.4c-11 1.8-18.4-3.5-21-18l-4.4-24.6 9.9-1.6 4.4 24.6c1.5 8.1 4.2 10.4 9.3 9.5 5.2-.8 7-3.8 5.5-11.9l-4.4-24.6 9.9-1.6 4.4 24.6c2.6 14.5-2.5 21.8-13.6 23.6z" fill="#e3262e"/><path d="M181.4 114.1l4.8 43-9.2.7-19.5-24.6 2.9 25.8-9.2.7-4.8-43 9.2-.7 19.5 24.6-2.9-25.8 9.2-.7z" fill="#f9c710"/><path d="M226.6 132.4c2.1 11.7-3.8 22.1-14.3 23.8l-13.7 2.2-7.6-41.7 13.7-2.2c10.5-1.7 19.8 6.2 21.9 17.9zm-8.8 1.4c-1.5-8.1-6.5-10.7-11.4-10l-4.8.8 4.2 22.9 4.8-.8c4.9-.7 8.7-4.8 7.2-12.9z" fill="#e3262e"/><path d="M231.5 131.3c-2.4-12.9 4.2-24.8 14.9-26.8s21.1 6.7 23.5 19.6-4.2 24.8-14.9 26.8c-10.6 2-21.1-6.7-23.5-19.6zm29.5-5.5c-1.3-7.1-6.5-12.3-12.7-11.1-6.1 1.1-9.1 7.8-7.8 14.9s6.5 12.3 12.7 11.1c6.1-1.1 9.1-7.7 7.8-14.9z" fill="#f9c710"/><path d="M127.9 160.2c-4 1-8 1-9.4.7-3.4-.7-6.6-5-7.4-9.9l-5.3-29 1.2-.2c0 .3 4.7 25.5 5.3 29.1.7 4.3 3.5 8.2 6.4 8.8 2 .3 9.3.3 14.1-2.9 4-2.7 2.4-10.4 2.4-10.5l-4.5-28.7 1.2-.2 4.5 28.6c.1.3 1.7 8.6-3 11.8-1.7 1.2-3.6 1.9-5.5 2.4z" fill="#fbdcd5"/><path d="M68.5 182.1l-13.8-46.3 1-.6 23.9 25.1 5.3-34.8 1.2-.1 14.2 46-1.2.4-13.4-43.4-5.1 33.3-1 .3-23-24.1 13.1 43.8zM181 157.6l-28.9-38.7 3.7 40.8-1.1.2-4-42.9 1.1-.4 28.8 38.6-4.4-40.3 1.1-.2 4.7 42.5z" fill="#183e41"/><path d="M213.8 152.4l-12.4 1.7-6.1-33.4.4-.1-.1-.6 11.8-1.8c.2 0 12.7-.6 15.6 14.9 3 15.7-9 19.3-9.2 19.3zm-11.4.5l11.2-1.6c.4-.1 11.1-3.3 8.4-17.9s-13.9-14.1-14.3-14l-11.1 1.7 5.8 31.8z" fill="#fbdcd5"/><path d="M255.5 146.3c-.3.1-.6.1-.8.2-8.4 1.6-16.9-5.7-18.8-16.1-.9-5-.2-10.1 2-14.2 2.2-4.2 5.7-6.9 9.8-7.6 8.4-1.6 16.9 5.7 18.8 16.1h0c1.8 10.1-3 19.6-11 21.6zm-8.4-36.2c-3.4.9-6.3 3.3-8.2 6.8-2.1 3.8-2.7 8.6-1.8 13.3 1.8 9.7 9.6 16.5 17.3 15.1s12.6-10.5 10.8-20.3c-1.8-9.7-9.6-16.5-17.3-15.1-.3.1-.5.1-.8.2zm18.7 14.7h0 0z" fill="#183e41"/><g fill="#3e2959"><path d="M51.5 94.1c3.6.5 6.8-2.6 6.8-6.2 0-4-3.1-7.1-6.8-8.3-3.8-1.2-8.6-.7-11.4 2.5-2.7 3.1-3.1 7.4-3.1 11.3.1 4.9 1.1 9.7 2.4 14.4 1.2 4.5 2.4 9.5 5.1 13.4 2.1 2.9 5.3 5.3 9 5.4 3.9.1 7.5-2.3 8.9-6 .7-2 .9-4.3.1-6.3-.6-1.6-2.3-3.1-4.1-2a1.82 1.82 0 0 0 .4 3.2c1.4.5 2.7-1.1 1.9-2.4-.6-.8-1.9 0-1.3.8.2.3-.7 0 .1-.4.4-.3 1.2.5 1.3.7.4.6.6 1.6.7 2.4.1 1.5-.2 3-.9 4.4-1.4 2.7-4.5 4.3-7.5 4.1-6.4-.5-9.3-7.4-10.8-12.7-1.9-6.4-3.8-13-3.8-19.7 0-2.8.3-5.8 1.8-8.3 1.7-2.9 4.8-4.1 8.1-3.9s6.9 1.9 8 5.3c1.1 3.3-1.1 7.2-4.9 6.7-.9-.1-.9 1.5 0 1.6h0z"/><path d="M58.1 112.9c0 1.2.6 1.9 1.3 2.8.8 1.1 1 2.3.7 3.6-.7 2.6-3.1 4.1-5.7 4-6.1-.3-9-6.8-10.8-11.7-2-5.3-3.8-10.8-3.9-16.5-.1-5.1 1-12.4 7.2-13.2 2.9-.4 6.4.4 8.1 2.9 1.6 2.3.7 6.2-2.4 6.6-1 .1-.6 1.6.4 1.5 2.6-.3 4.3-2.9 4.4-5.4.1-2.9-2.1-5.2-4.6-6.3-2.7-1.2-6-1.3-8.7-.1-2.8 1.3-4.4 4.2-5.1 7.1-1.8 6.9-.2 14.2 2.1 20.7 2.1 6 4.7 13.9 11.6 15.6 3 .7 6.2-.1 8-2.7.8-1.2 1.3-2.6 1.2-4.1 0-.7-.2-1.4-.5-2-.5-.9-1.6-1.7-1.6-2.8-.2-1-1.7-1-1.7 0h0z"/><path d="M53.2 93.5c2.9-1.2 3.8-5 2.7-7.7-1.3-3.1-4.8-5-8-5.5-1.9-.3-4.1-.1-5.5 1.5-.6.7.4 1.8 1.1 1.1 1.3-1.4 3.4-1.4 5.1-.9 1.7.4 3.3 1.2 4.6 2.5 1.2 1.2 1.8 2.7 1.7 4.3-.1 1.5-.9 2.9-2.4 3.5-1 .3-.2 1.6.7 1.2h0z"/><path d="M52.7 93.1c3.3-2 3.6-6.9 1.1-9.7-3-3.4-8.6-2.6-11.6.3-3.8 3.6-4.1 9.2-3.1 14 .7 3.3 1.6 6.5 2.4 9.8.8 3 1.4 6.1 2.6 9 2 5 6.7 9.9 12.5 8.4.9-.2.6-1.7-.4-1.5-4.5 1.1-8.4-2.4-10.2-6.2-2.2-4.4-3-9.7-4.2-14.4-1.1-4.4-2.6-9.1-1.2-13.7 1.2-3.9 4.8-7.1 9.1-6.2 2 .4 3.6 1.8 4.1 3.9.4 1.9-.2 4-1.8 5-.9.5-.1 1.8.7 1.3h0z"/><path d="M54.1 123.7c-2-.2-3.5-1.6-4.7-3-1.6-1.8-2.9-3.8-4.3-5.8-.5-.7-1.6-.3-1.4.6 1.1 5.8 6.9 10.2 12.8 9.6.4 0 .8-.3.8-.7s-.3-.8-.7-.8c-5.2.5-10.3-3.3-11.3-8.5-.5.2-.9.4-1.4.6 1.6 2.1 3 4.4 4.8 6.3 1.5 1.6 3.3 3 5.5 3.2.9.1.9-1.4-.1-1.5h0z"/><path d="M54.2 123.5c-2.9.5-6-1.4-6.8-4.2-.3-.9-1.7-.6-1.5.4 1 3.6 4.9 6 8.7 5.3.4-.1.6-.5.5-.9s-.5-.7-.9-.6h0zm5.6-9a1.38 1.38 0 0 1 .3.4c.1.1.1.1 0 0 0 0 0 .1.1.1 0 .1.1.1.1.2a.76.76 0 0 1 .2.4s.1.3 0 .1c0 .1.1.1.1.2 0 .2.1.3.1.5v.3c0 .1 0 .1 0 0v.1.5.3.1c0-.1 0-.1 0 0-.1.4.1.8.5.9s.9-.1.9-.5c.3-1.6-.2-3.3-1.4-4.5-.3-.3-.8-.3-1.1 0-.1.1-.1.6.2.9h0z"/><path d="M59.1 114.6c1.9 1.3 1.1 4-.4 5.3-1.6 1.4-4.3 2.4-6.4 1.9-2.2-.4-4-2.4-5.3-4.1-1.6-2-2.6-4.3-3.2-6.7-.2-.9-1.7-.6-1.5.4.6 2.3 1.6 4.6 3 6.5 1.3 1.8 2.9 3.6 4.8 4.7 2.1 1.1 4.3 1 6.5.2 1.9-.7 3.8-1.9 4.7-3.8.9-2 .4-4.4-1.4-5.7-.9-.5-1.6.8-.8 1.3h0z"/><path d="M57.9 122l-2.9.7c-.4.1-.7.5-.5.9.1.4.5.7.9.5l2.9-.7c.4-.1.7-.5.5-.9-.1-.4-.5-.6-.9-.5h0zM45.7 80.6C38.4 82.5 40.1 92 41 97.4c1.3 8 3.4 15.9 6.1 23.6.5-.2.9-.4 1.4-.6a70.05 70.05 0 0 1-8.6-25.5c-.5.2-.9.4-1.4.6 1.7 3.2 2.8 6.6 3.4 10.2.5-.1 1-.3 1.5-.4L40 91.6c-.2-.9-1.7-.6-1.5.4l3.4 13.7c.2 1 1.6.6 1.5-.4-.6-3.7-1.8-7.2-3.6-10.6-.4-.8-1.5-.2-1.4.6 1.3 9.1 4.2 17.9 8.8 25.9.4.7 1.7.3 1.4-.6-2.4-6.7-4.3-13.5-5.6-20.5-.6-3.4-1.4-6.9-1.4-10.3-.1-3.1 1-6.9 4.4-7.7 1.1-.3.7-1.8-.3-1.5h0zm26.8 11.6c-4.3-.1-7.6 3.6-8.3 7.6-.4 2.4-.1 4.8.4 7.2.6 2.4 1.4 5 2.6 7.1 1 1.7 2.6 3.3 4.7 3.6 2.2.4 4.3-.8 5.8-2.3 3.2-3.3 3.6-8.2 2.6-12.5-.9-4.1-3.3-12.3-9.1-10.8-.9.2-.6 1.7.4 1.5 4.3-1.1 6.1 5.5 6.9 8.4 1 3.6 1.2 7.7-.9 11-1 1.6-2.7 3.1-4.6 3.3-2 .2-3.7-1.3-4.6-3-1-1.7-1.6-3.7-2.1-5.5-.6-1.9-1-3.8-.9-5.8.1-3.9 2.6-8.4 7-8.3 1.1 0 1.1-1.5.1-1.5h0z"/><path d="M70.3 94.1c6.1-.6 8.9 6.1 9.8 11 .4 2.3.5 4.8-.5 7-1.1 2.3-3.7 3.5-6.2 3-2.9-.6-4.4-3.4-5.1-6-.4-1.5-.7-3.1-1-4.6-.4-1.5-1.1-3-1.1-4.5 0-2.4 2.3-4.2 4.5-4.4 2.5-.2 4.9 1.5 6.2 3.6 1.9 2.8 2.1 6.6 1.9 9.9-.1 1.4-.4 2.9-1.5 3.9-1.2 1.1-3 1.4-4.5 1.7-1 .2-.6 1.6.4 1.5 3.2-.6 6.1-1.7 6.9-5.2.8-3.3.4-7.4-.8-10.5-1.1-2.8-3.4-5.3-6.3-6-2.7-.7-5.6.3-7.2 2.5-2.2 2.9-.3 6.4.4 9.5.7 3.3 1.5 7 4.3 9.1 2.4 1.7 5.8 1.7 8.2 0 2.3-1.7 3.2-4.6 3.2-7.3 0-6.4-3.7-16.3-11.5-15.5-1-.1-1.1 1.4-.1 1.3h0z"/><path d="M67.3 94.8c-.8 2 .3 4.1 1.9 5.2 1.7 1.2 4.1 1.5 6.1 1.3 4.2-.3 8.1-2.6 10.3-6.2.5-.8-.8-1.6-1.3-.8-1.8 2.9-4.8 4.9-8.2 5.4-1.6.3-3.4.2-4.9-.4-1.7-.6-3.2-2.2-2.4-4.1.3-.9-1.1-1.3-1.5-.4h0z"/><path d="M66.7 97.6c1.8 4.2 6.9 4.8 10.9 4 3.9-.8 9.2-2.5 9.3-7.4 0-.7-.8-1-1.3-.6-2.6 2.6-5.3 6-9 6.9-3.1.7-6.4-.3-8.7-2.6-.7-.7-1.8.4-1.1 1.1 2.5 2.5 6.1 3.6 9.6 3.1 4.4-.7 7.3-4.4 10.3-7.3-.4-.2-.9-.4-1.3-.6-.1 4-5 5.3-8.2 5.9-3.4.7-7.7.3-9.2-3.3-.4-.9-1.7-.1-1.3.8h0z"/><path d="M85.8 95.6c.1-.7.4-1.6.9-2.1.7-.7 1.3-.1 1.7.6.8 1.6.9 3.6 1 5.3.1 3.5-.1 7 1.4 10.3.3.7 1.4.3 1.4-.4.2-4.2-.3-8.4-1.4-12.5-.4-1.6-.9-3.6-2.3-4.6-1.2-.8-2.9-.6-3.6.7-.5.9.9 1.6 1.3.8.3-.6 1-.5 1.5-.2.6.4.9 1.2 1.1 1.8a31.66 31.66 0 0 1 1.2 4.4c.6 3.1.9 6.3.8 9.6.5-.1.9-.2 1.4-.4-1.9-4.1-.7-8.9-1.6-13.2-.3-1.6-1-3.9-2.9-4-1.9-.2-2.8 2-3.2 3.5-.4.9 1.1 1.4 1.3.4h0z"/><path d="M91.3 99.9c-.3-2.6 1-5.4 3.2-6.7 1.1-.7 2.7-.9 3.8 0 .8.6.9 2.5 1 3.4.3 2.8-.8 5.7-.3 8.5.4 2.5 2.9 3.7 5.3 3.4 3.1-.5 5.1-3.2 6.6-5.7.5-.8-.8-1.6-1.3-.8-1.4 2.3-3.3 5.3-6.4 5.1-1.6-.1-2.6-1.2-2.7-2.8-.1-1.5.2-3.2.3-4.7.1-1.4.2-2.6 0-4-.2-1-.3-2.5-1.1-3.3S97.4 91 96.3 91c-1.3 0-2.5.7-3.5 1.5-2.2 1.9-3.3 4.8-2.9 7.7.1 1 1.6.7 1.4-.3h0z"/><path d="M108.6 101.4c-.6 1.2-1.1 2.5-1.9 3.6-.6.8-1.4 1.2-2.5 1.4-.8.1-1.9.1-2.5-.5-.3-.4-.3-.8-.3-1.3 0-.9.2-1.8.3-2.7.2-1.6.3-3.1.1-4.7-.2-1.4-.5-3.1-1.4-4.3-1.3-1.6-3.3-1.3-5-.6-2 .8-3.8 2.3-5.3 3.8-.7.7.4 1.8 1.1 1.1 1.3-1.4 2.9-2.6 4.6-3.5.8-.4 1.7-.7 2.5-.5 1.3.3 1.5 2 1.7 3.1.4 1.7.4 3.3.2 5-.2 1.4-.7 3.1-.3 4.5.5 2 3.1 2.3 4.8 2 2.9-.5 3.8-3.2 5-5.6.6-.9-.7-1.7-1.1-.8h0z"/><path d="M85.6 95.6c.3-1 1.2-3 2.2-1.4.9 1.3 1.3 3 1.7 4.6s.7 3.2.9 4.9l.3 2.6c.1.6.3 1.5 0 2 .2-.1.4-.2.7-.4.2.1.4.2.5.2-.3-.4-.4-1.3-.4-1.7 0-1.1.2-2.3.3-3.4l.6-6.9c.1-1-1.4-1-1.5 0l-.8 8.9c-.1 1.1-.2 2.1.1 3.2.2.7.9 1.9 1.7 1.1s.4-2.2.3-3.2c-.1-1.5-.3-2.9-.6-4.4-.2-1.5-.6-3-1-4.5-.4-1.2-.8-2.6-1.6-3.7-.6-1-1.7-1.6-2.9-1.2-1.2.5-1.7 1.9-2 3-.2.9 1.3 1.3 1.5.3h0zm25.1.3c1.7-.5 3.5-1 5-2.1 1.1-.8 2.8-2.3 2.7-3.9 0-.6-.4-1.5-.7-1.9-.5-.7-1.7-.8-2.4-.8-1.8 0-3.7.8-5 2.1-2.5 2.5-3.4 6.5-3.1 9.9.2 1.9.6 3.8 1.7 5.4 1.1 1.5 2.9 2.3 4.7 2.3 3.9 0 6.7-3.6 8.4-6.7.5-.9-.8-1.6-1.3-.8-.6 1.1-1.4 2.2-2.2 3.2-.8.9-1.7 2-2.9 2.5-1.4.5-3 .5-4.3-.3-1.4-.8-2.1-2.5-2.4-4.1-.6-2.7-.3-5.9 1-8.3.7-1.3 1.6-2.4 2.9-3a4.99 4.99 0 0 1 2.1-.5c.4 0 .8 0 1.1.1.4.1.4.1.5.5.1.2.3.5.2.7 0 .3-.3.7-.5.9-.4.6-1 1.1-1.6 1.6-1.3.9-2.9 1.4-4.4 1.8-.9.1-.5 1.6.5 1.4h0z"/><path d="M120.6 99.1c-.6 1.3-1.5 2.4-2.6 3.3-1 .9-2.4 1.7-3.8 1.9-2.8.3-5.1-2.5-5.5-5-.1-1-1.6-.6-1.5.4.5 3.1 3.5 6.3 6.8 6.1 1.7-.1 3.3-.9 4.6-2s2.5-2.4 3.2-4c.5-.8-.8-1.6-1.2-.7h0z"/><path d="M120.8 99.2l-2.8 2.7c-.9.8-2 1.8-3.2 2.1-1.6.4-2.9 0-4.1-1.2-1.1-1.2-1.9-2.7-2.3-4.3-.7-2.9-.3-6.2 1.8-8.4 1-1 2.3-1.8 3.7-1.9s2.8.6 2.5 2.2-1.6 2.3-3.1 2.7c-1.4.4-2.9.6-4.4.7-1 .1-1 1.6 0 1.5 3-.2 7.3-.5 8.7-3.7.6-1.5.3-3.3-1.1-4.3-1.4-.9-3.3-.7-4.8-.1-3.4 1.5-5.3 5.1-5.2 8.7a11.94 11.94 0 0 0 1.5 5.8c.9 1.7 2.4 3.4 4.3 3.9 3.9.9 7-2.8 9.5-5.3.8-.7-.3-1.8-1-1.1h0z"/><path d="M108.8 96c.6 0 1.1-.1 1.7-.1.2 0 .4-.1.5-.2s.2-.3.2-.5-.1-.4-.2-.5-.3-.2-.5-.2c-.6 0-1.1.1-1.7.1-.2 0-.4.1-.5.2s-.2.3-.2.5.1.4.2.5.3.2.5.2h0z"/><path d="M108.9 96.4c2.3-.2 4.6-.8 6.6-2 1.5-.9 2.8-2.4 2.6-4.3s-1.9-3.1-3.7-3.2c-2.1-.1-3.9 1.3-5.1 2.8-2.2 2.9-2.7 7.1-1.4 10.5 1 2.4 2.9 4.7 5.6 5 3.7.4 6.6-2.7 8.6-5.4.6-.8-.8-1.6-1.3-.8-1.4 2.1-3.5 4.4-6.2 4.7-1.7.2-2.9-.6-3.9-1.8-2-2.4-2.4-5.7-1.5-8.6.4-1.3 1.1-2.6 2.2-3.6 1.2-1.1 3.1-1.9 4.6-.8 1.5 1.2.4 3-.8 3.8-1.7 1.3-4 1.9-6.1 2.1-1.2.2-1.2 1.7-.2 1.6h0z"/><path d="M130.2 90.8c.8-2.4-1.7-4.5-3.9-4-2.9.6-4.1 3.6-4.5 6.2-.5 2.9-.7 6.1.7 8.8 1.1 2 3.3 3.9 5.7 3.4 2.3-.5 4.8-2.4 5.8-4.6.4-.9-.9-1.7-1.3-.8-.9 1.8-2.9 3.5-4.9 3.9-2.4.4-4.2-2.5-4.6-4.5-.3-1.5-.3-3.1-.1-4.6.2-1.4.4-2.9 1-4.2.5-1.1 1.6-2.2 2.9-2.3 1.1 0 2.2 1 1.8 2.2-.4 1.1 1.1 1.5 1.4.5h0z"/><path d="M121.5 90.5c-1.4 4.4-2.1 9.7 1.5 13.4 1.4 1.5 3.5 2.4 5.6 2 2.3-.4 3.8-2.3 4.8-4.3.4-.9-.9-1.7-1.3-.8-.8 1.6-2 3.3-3.8 3.6s-3.4-.8-4.5-2.1c-2.7-3.3-1.8-7.8-.7-11.4.2-1-1.3-1.4-1.6-.4h0z"/><path d="M130 91.7c.2-1.4.9-2.8.2-4.1-.6-1-1.6-1.5-2.7-1.7-2.5-.3-4.6 1.3-5.6 3.5-.6 1.4-.9 2.9-1.2 4.4-.1.4.1.8.5.9s.9-.1.9-.5c.4-2.3.8-5.6 3.4-6.6.9-.3 2.1-.4 2.9.2 1.1.9.3 2.3.1 3.5-.1.4.1.8.5.9s.9-.1 1-.5h0zm1.4 12.6c6.8-8.2 7.7-19 8.3-29.2.1-1-1.5-1-1.5 0-.6 9.7-1.4 20.3-7.9 28.1-.6.8.5 1.9 1.1 1.1h0z"/><path d="M136.8 88.1l-.4 8c-.1 2.3-.5 5 .7 7.1.9 1.5 2.7 2.6 4.5 2.1 2-.6 3.1-2.6 3.9-4.3.4-.9-.9-1.7-1.3-.8-.6 1.3-1.5 3.3-3.1 3.7-1.8.4-3-1.5-3.2-3-.3-2 0-4.2.1-6.2l.4-6.5c0-1.1-1.5-1.1-1.6-.1h0zm-6.3-3.1c4.3.4 8.7.5 13 .3 1-.1 1-1.6 0-1.5-4.3.2-8.7.1-13-.3-1-.1-1 1.4 0 1.5h0z"/><path d="M153 89.6c-1-.9-2.4-1.2-3.6-.8-1.4.4-2.4 1.6-3.1 2.9-1.4 2.5-2 5.9-1.3 8.7.7 2.5 2.8 4.7 5.6 4 3.1-.8 4.3-4.1 4.3-7 0-1.9-.2-3.9-.6-5.7-.3-1.3-1-3.5-2.8-2.6-.9.4-.1 1.7.8 1.3-.1.1-.1 0 0 .1s.1.2.2.2c.1.2.2.4.2.7.2.6.3 1.3.4 2 .2 1.3.3 2.6.3 3.9 0 2.2-.6 4.7-2.8 5.6-2 .8-3.5-.7-4-2.5-.7-2.1-.3-4.5.4-6.5.4-1.1 1-2.4 2.1-3.1.9-.6 2.1-.7 2.9 0 .7.5 1.7-.5 1-1.2h0z"/><path d="M152.1 88.6c-2.8-.7-5.6 1.2-6.7 3.7-.6 1.4-.8 3-.7 4.5s.3 3 .9 4.4c.6 1.3 1.6 2.4 2.9 2.8s2.6.2 3.8-.4c2.7-1.3 3.7-4.4 3.8-7.2.1-1.8-.1-3.8-1-5.4-.8-1.3-2.2-2.3-3.8-2.4-1-.1-1 1.5 0 1.5 2.7.1 3.3 3.5 3.3 5.6 0 2.2-.4 4.8-2.3 6.2-.8.6-1.8.9-2.8.8-1.1-.1-1.9-.8-2.4-1.8s-.7-2.2-.8-3.4-.1-2.5.2-3.6c.6-2.3 2.7-4.5 5.3-3.9.8.3 1.2-1.1.3-1.4h0z"/><path d="M154.7 89.6c.3 1.8.5 3.7.6 5.5l.1 5.4c.2 1.4.8 2.8 2.2 3.3 1.1.4 2.5.1 3-1 .4-.9-.9-1.7-1.3-.8-.3.8-1.4.5-1.9-.1-.8-1-.5-2.8-.5-4 0-2.9-.3-5.8-.7-8.6-.2-1-1.7-.6-1.5.3h0z"/><path d="M158.4 102.1c-2-1.3-2-4.1-1.7-6.2.3-2.7.9-5.6-.6-8-.3-.5-1.3-.5-1.4.2-.5 2.5-.4 5.1.4 7.5.3.9 1.8.6 1.5-.4-.7-2.2-.9-4.5-.4-6.7-.5.1-.9.1-1.4.2 1.6 2.6.4 5.7.3 8.5-.1 2.4.4 4.9 2.6 6.2.7.5 1.5-.8.7-1.3h0z"/><path d="M159.1 104.2c2-.4 2.6-2.7 2.7-4.4l.5-8.3c0-.3-.1-1.1.4-1.1.3 0 .7.7.8 1 .5 1.1.7 2.3 1 3.5.5 2.6.6 5.3.1 8-.1 1 1.3 1.4 1.5.4.4-2.2.4-4.5.2-6.7a20.21 20.21 0 0 0-.6-3.4c-.2-1-.5-2.1-1-2.9-.4-.6-1-1.3-1.8-1.4-.9-.1-1.6.5-1.8 1.3-.3 1.1-.2 2.3-.3 3.4l-.2 3.7c-.1 1.2 0 2.4-.3 3.5-.2.8-.5 1.7-1.4 1.9-1.1.2-.7 1.7.2 1.5h0z"/><path d="M166.8 99.8c-.4-2.3-.7-4.9-.3-7.3.1-.9.5-2 1.4-2.4.8-.4 1.8-.1 2.6.3 1.9 1.2 2.1 3.9 1.9 5.9-.1 2.1-.3 4.4 1.2 6.2 1.3 1.5 4.1 1.6 5.1-.3.5-.9-.8-1.6-1.3-.8-.4.8-1.5.9-2.2.4-.9-.6-1.3-1.8-1.4-2.9-.2-2.4.5-4.7-.4-7-.7-1.9-2.3-3.4-4.4-3.5s-3.5 1.4-3.9 3.3c-.6 2.7-.2 5.7.2 8.4.2 1 1.7.6 1.5-.3h0z"/><path d="M178.2 101.1c-.9.7-2.1.5-3-.1-1.1-.7-1.6-2-1.8-3.3-.2-1.4-.1-2.9 0-4.3.1-1.3.2-2.7-.3-3.9-1-2.6-4-2.1-5.7-.7-1.9 1.5-2.3 3.8-2 6.1.3 2.5 1.5 5.1.6 7.6h1.5l-2-12.4c-.2-1-1.6-.6-1.5.4l2 12.4c.1.8 1.2.7 1.5 0 .8-2.1.3-4.3-.2-6.4-.4-2.1-.9-4.6.9-6.3.7-.7 2.1-1.5 3.1-.9 1.1.6.8 2.6.7 3.6-.1 2.6-.5 5.3.9 7.6 1.2 2 4 3.2 6.1 1.7.7-.3 0-1.6-.8-1.1h0z"/><path d="M169 89.8c2.5-.3 3.9 2.4 4.2 4.4.5 2.7.1 5.5 1 8.1.3.9 1.8.5 1.5-.4-1.1-3.1-.3-6.6-1.4-9.7-.9-2.4-3-4.3-5.7-3.9-.9.1-.5 1.6.4 1.5h0z"/><path d="M174.6 97.6v-3.7c0-1.2.1-2.4-.3-3.5-.6-1.8-2.6-3.3-4.6-2.4-.9.4-.1 1.8.8 1.3.6-.3 1.2 0 1.7.4.6.5.8 1.3.9 2.1.1.9 0 1.8 0 2.7v3c0 1.1 1.5 1.1 1.5.1h0zm12-8.3c-.7-1.3-2.2-1.7-3.5-1.4-1.6.3-2.6 1.8-3.1 3.2-.7 1.7-1 3.6-1.1 5.5s0 3.9.9 5.6c.7 1.4 2.1 2.5 3.7 2.5s2.9-1.1 3.7-2.5c.9-1.6 1.2-3.4 1.4-5.2.2-1.7.3-3.5-.1-5.2-.3-1.6-1.1-3.2-2.6-4.1-1.2-.7-3.4-.6-3.2 1.2.1 1 1.6.6 1.5-.4 0 .4-.1.1.3.2.2 0 .4.1.6.2.4.3.8.6 1.1 1 .6.9.9 2 1 3.1.3 2.5-.1 5.4-1 7.7-.4 1-1.1 2.1-2.2 2.3s-2.2-.6-2.7-1.5c-.7-1.2-.8-2.7-.8-4.1s.1-2.7.5-4c.3-1.3.7-2.7 1.7-3.6.8-.7 2.2-.8 2.8.2.2 1 1.5.2 1.1-.7h0z"/><path d="M188.9 93.9c.7-4.3 1.3-8.6 1.7-13 .2-2.2.5-4.5.5-6.7 0-1.4-.5-3.1-2.1-3.3s-2.2 1.4-2.4 2.6c-.4 2.1-.5 4.3-.3 6.4.4 4.5 1.5 8.9 2.5 13.2l1.8 7.7c.3 1.5.6 3.7 2.5 4 .4.1.7-.1.9-.3.7-1.1 1.5-2.1 2.2-3.2.6-.8-.7-1.6-1.3-.8-.7 1.1-1.5 2.1-2.2 3.2l.9-.3c-1.1-.2-1.2-1.9-1.4-2.7-.2-1-.5-2.1-.7-3.1l-1.5-6.4c-1-4.4-2.2-8.8-2.2-13.3 0-1 0-2 .2-2.9.1-.4.1-1.3.3-1.7 0-.6.4-.7 1.2-.4.1.4.2.7.2 1.1.1 2-.2 4.2-.4 6.2-.4 4.5-.9 8.9-1.7 13.3-.3.9 1.1 1.3 1.3.4h0z"/><path d="M201.1 89.2c-3 0-4.9 2.7-5.6 5.4s-1.2 6.1.6 8.5c1.6 2.2 4.5 2.7 6.7 1 2.4-1.8 2.7-4.9 2.8-7.7 0-1.7.1-3.7-.8-5.2-.7-1.2-2-2.1-3.4-2-1 0-1 1.5 0 1.5 2.6-.1 2.7 3.3 2.7 5.2 0 2.1 0 4.6-1.4 6.4-1.4 1.7-3.6 2-5.1.3-1.5-1.8-1.2-4.4-.8-6.5.4-2.3 1.6-5.3 4.3-5.3 1-.1 1-1.6 0-1.6h0z"/><path d="M197.7 91.5c.4 2.5 2.6 4.7 5.1 5.2 2.6.4 5.3-.9 6.6-3.1.5-.9-.8-1.6-1.3-.8-1 1.7-3 2.8-5 2.4s-3.6-2.1-3.9-4c-.2-1-1.7-.7-1.5.3h0z"/><path d="M208 92.2c-1.7 2.2-5 3-7.5 1.6-.7-.4-1.4-1-1.6-1.7s.1-1.6.9-1.7c1.5-.4 2.8 1.3 3.3 2.5.6 1.4.8 3 .9 4.5.1 1.6.1 3.4-.8 4.8-.8 1.3-2.2 2.2-3.7 1.9-1.6-.4-2.6-2-3-3.5-.5-1.8-.5-4 0-5.8.5-1.7 1.8-3.4 3.8-3.3 1 0 1-1.5 0-1.5-2.1-.1-4 1.4-4.9 3.3-.9 2.1-.9 4.5-.6 6.7.3 2.1 1.4 4.2 3.4 5.2 1.9.9 4 .4 5.4-1.1 1.5-1.6 2-3.8 1.9-5.9s-.3-4.3-1.2-6.1c-.8-1.8-2.6-3.4-4.6-3.2-2.1.3-2.9 2.6-2 4.3 1 2 3.6 2.9 5.7 2.9a7.41 7.41 0 0 0 5.7-2.7c.6-.9-.4-2-1.1-1.2h0z"/><path d="M199.4 88.7c-2.2.4-4 2.6-3.8 4.8 0 .4.3.8.7.8s.8-.3.8-.7v-.7c0-.1 0 0 0 0v-.1-.1c0-.1.1-.2.1-.3s0-.1.1-.2c0 0 .1-.2 0 0 0-.1.1-.2.1-.3.1-.1.1-.2.2-.3l.1-.1s.1-.2 0 0c.1-.2.3-.3.4-.5l.1-.1s.2-.1 0 0c.1-.1.2-.1.3-.2s.2-.1.3-.2c0 0 .1 0 .1-.1h.1-.1c0-.1.6-.2.7-.2.4-.1.7-.6.5-.9.1-.5-.2-.7-.7-.6h0zm-11.5 2.1c-.8-3.3-5.3-3.1-7-.8-.9 1.3-1.2 3-1.4 4.5-.2 1.6-.2 3.3 0 5 .3 1.5.9 3.1 2.3 3.9 1.2.8 2.8.8 4-.1s1.8-2.4 2.1-3.8c.4-1.7.6-3.5.5-5.3 0-1.8-.4-3.7-1.8-5-1.2-1.1-2.9-1.5-4.4-.7-.9.4-.1 1.8.8 1.3 1-.5 2.1-.1 2.8.7.8.9 1.1 2.2 1.1 3.4s0 2.4-.2 3.6c-.1 1.1-.3 2.4-.8 3.4s-1.4 1.8-2.6 1.5c-1.1-.3-1.8-1.4-2-2.4-.6-2.3-.4-5 .2-7.2.3-1.3.8-2.4 2.1-2.9 1.2-.4 2.7-.1 3 1.2.1 1 1.5.7 1.3-.3h0z"/><path d="M184.3 87.6c-.4-.1-.8-.1-1.2 0s-.7.3-1 .5c-.6.4-1 1-1.4 1.6-.2.3-.1.8.3 1s.8.1 1-.3c.1-.1.1-.2.2-.4 0-.1.1-.1.1-.2 0 0 0-.1.1-.1l-.1.1.3-.3.3-.3h-.1s.1 0 .1-.1c.1 0 .1-.1.2-.1s.1-.1.2-.1c.1-.1-.2.1 0 0 .1 0 .1 0 .2-.1h.1 0 .2.1c.2 0 .4 0 .6-.1s.3-.3.4-.5c0 0-.2-.5-.6-.6h0zm4.3 3.2c0-.7.1-1.4.2-2.2 0-.1 0 0 0 0v-.1-.3c0-.2.1-.4.1-.5 0-.2.1-.4.2-.5 0-.1.1-.2.1-.3 0 0 0-.1.1-.1 0 .1 0 .1 0 0 .2-.4.1-.8-.3-1-.3-.2-.9-.1-1 .3-.7 1.5-.8 3.1-.9 4.7 0 .4.3.8.7.8.4-.1.8-.4.8-.8h0z"/><path d="M188.5 70.9c-1.4.1-2.1 1.1-2.3 2.4-.3 1.8-.4 3.6-.4 5.4.1 4 1.2 7.9 2.2 11.7.9 3.8 1.6 7.9 3 11.5.4.9.9 2.2 2.2 2.1 1.4-.2 2.5-1.6 2.9-2.8.4-.9-1.1-1.3-1.5-.4-.2.4-1 1.9-1.6 1.7-.4-.1-.8-1.4-.9-1.8-.4-1.3-.8-2.7-1.1-4l-2-8.2c-.7-2.7-1.4-5.4-1.7-8.2-.1-1.4-.2-2.7-.1-4.1 0-.8 0-3.9 1.1-4 1.1.2 1.1-1.3.2-1.3h0z"/><path d="M193.4 103.1c-1.7-1.5-2.3-3.7-2.9-5.8-.7-2.4-1.3-4.8-1.2-7.3 0-1-1.5-1-1.5 0-.1 2.7.6 5.3 1.3 7.9.7 2.3 1.4 4.6 3.2 6.3.7.6 1.8-.5 1.1-1.1h0z"/><path d="M187.9 71c-3 1-3.1 4.2-2.9 6.8.2 3.7.6 7.3 1.3 11 .4 2.2 3.2 18.8 7.4 15.8.8-.6 0-1.9-.8-1.3-1.3.9-3.4-7-3.7-7.8-.7-2.5-1.2-5-1.6-7.6s-.8-5.3-1-8c-.2-2.1-1.1-6.5 1.6-7.5 1-.2.6-1.7-.3-1.4h0zM198 89.5c-3.5 2.5-3.2 7.1-3.2 10.9 0 1 1.5 1 1.5 0 0-1.8-.1-3.8.3-5.6.3-1.5.9-3.1 2.2-4 .3-.2.5-.7.3-1-.2-.4-.7-.6-1.1-.3h0z"/><path d="M203.6 90.3c-1.5-1.2-3.5-1.1-4.9.1-1.6 1.3-2.1 3.4-2.4 5.3-.3 2.2-.4 4.4 0 6.5.3 1.6 1.2 3.4 3 3.7 1.1.2 2.1-.3 3-.9.8-.6 1.8-1.5 2.1-2.5.3-.9-1.2-1.4-1.5-.4-.2.8-1.3 1.7-2 2.1s-1.5.5-2.2-.1c-1.2-1.1-1.2-3.5-1.2-5 0-1.9.2-4 .9-5.8.6-1.4 2.5-3.2 4.1-1.9.8.6 1.9-.5 1.1-1.1h0zm-27.4 12.9c1.6-.2 3.1-1.3 3.9-2.7.2-.3.1-.8-.3-1s-.8-.1-1 .3a1.38 1.38 0 0 1-.3.4s0 .1-.1.1c-.1.1.1-.1 0 0l-.2.2c-.1.1-.2.3-.4.4l-.2.2c-.1.1.1-.1 0 0l-.1.1c-.1.1-.3.2-.4.3-.1 0-.2.1-.2.1s-.1 0-.1.1c0 0-.1.1 0 0 .1 0-.1 0-.1 0h-.1c-.1 0-.2 0-.2.1-.2 0-.4.1-.5.1-.4.1-.7.6-.5.9 0 .2.4.4.8.4h0z"/><path d="M178.9 100.2c0 .1-.1.2-.2.2 0 0-.1.1 0 0s0 0 0 0c-.1.1-.2.3-.4.4l-.1.1c.2-.1.1-.1 0 0-.1 0-.1.1-.2.1-.2.1-.3.2-.5.2.1 0 .1-.1.2-.1-.2.1-.5.2-.7.2-.4.1-.7.6-.5.9.1.4.5.6.9.5 1.2-.2 2.2-.9 2.8-1.9.2-.3.1-.8-.3-1-.3-.1-.7 0-1 .4h0z"/><path d="M177.1 101.4h-.1c-.1 0-.1 0 0 0h-.2-.1c.1 0 0 0-.1 0h-.1s-.2-.1 0 0c0 0-.1 0-.1-.1-.1 0-.2-.1-.2-.1h0l-.1-.1-.1-.1-.1-.1s0-.1-.1-.1c0-.1-.1-.1-.1-.2l-.3-.6c0 .1 0 0 0-.1 0 0 0-.1-.1-.2 0-.1-.1-.2-.1-.3l-.5-1.4c-.1-.4-.5-.7-.9-.5-.4.1-.7.5-.5.9.2.5.3 1.1.5 1.6s.4 1.1.7 1.5c.6.9 1.8 1.6 2.9 1.2.4-.1.7-.5.5-.9 0-.3-.4-.5-.8-.4h0zm-3.4-7.1c-.3-1-.4-2.1-.9-3.1-.5-.8-1.2-1.4-2-1.8-1.8-.8-4-.2-5.3 1.2-.7.7.4 1.8 1.1 1.1 1-1 2.5-1.5 3.7-.9a3.04 3.04 0 0 1 1.3 1.2c.4.8.5 1.7.7 2.6.1.4.5.7.9.5.3 0 .6-.4.5-.8h0z"/><path d="M171 87.9c-2.5-.1-5 .8-6.4 3-.5.8.8 1.6 1.3.8 1.1-1.7 3.1-2.3 5-2.3 1.1 0 1.1-1.5.1-1.5h0z"/><path d="M166.1 91.2c-.4-.7-.9-1.4-1.5-1.8-.7-.5-1.5-.7-2.3-.4-.4.1-.7.5-.5.9.1.4.5.7.9.5h.2-.2.4c.1 0-.1 0-.1 0h.1c.1 0 .1 0 .2.1h.1c.1 0 .1.1 0 0 .1 0 .1.1.2.1s.1.1.2.1c0 0 .1 0 .1.1.1 0-.2-.1 0 0l.3.3c.1.1.1.1.1.2l.1.1c.1.1-.1-.1 0 0l.5.8c.2.4.7.5 1 .3.3-.5.4-1 .2-1.3h0z"/><path d="M165.3 92.4l.9 5.2.3 2.6c0 .4.1.7.1 1.1v.5.3c-.1.1 0 .1.1 0-1-.2-1.4 1.2-.4 1.5 1.1.2 1.8-.6 1.9-1.6s-.2-2.1-.3-3.2l-1.1-6.8c-.2-.9-1.7-.6-1.5.4h0zm-5.2 8.3c-.3.6-.9 1.1-1.6 1-.8-.1-1.1-.8-1.3-1.5-.5-1.9-.5-4-.5-5.9 0-1-1.5-1-1.5 0l.1 3.9c.1 1.2.3 2.6.9 3.7 1.2 2 4.3 1.8 5.3-.3.2-.4.1-.8-.3-1-.4-.4-.9-.3-1.1.1h0z"/><path d="M155.3 93.9c-.2 1.9.1 3.8.7 5.7.4 1.6 1.5 3.6 3.4 3.4.4 0 .8-.3.8-.7s-.3-.8-.7-.8c-1.5.1-1.9-1.8-2.1-2.9-.4-1.5-.6-3.1-.4-4.7 0-.4-.4-.8-.7-.8-.7.1-.9.4-1 .8h0z"/><path d="M155.4 88.9h.4.2.1c.1 0 0 0-.2 0l-.3-.3c0 .1.1.1 0 0 0-.1 0-.1 0 0v.3.6c0 .4 0 .8-.1 1.2l-.3 2.3c-.1.4.1.8.5.9s.9-.1.9-.5c.2-1.2.4-2.4.4-3.5 0-.6.1-1.2 0-1.8-.1-.4-.4-.7-.8-.8-.3-.1-.6 0-.9 0-.4 0-.8.3-.8.7.1.5.5.9.9.9h0zm-.6 3c-.3-1.2-1.1-2.2-2.2-2.7-.3-.2-.7-.1-1 .2-.2.3-.2.7.1 1 .1.1.2.3.3.4s.1.1 0 0l.1.1c0 .1.1.1.1.2.2.3.4.6.5.9.1.1.1.3.2.4 0 .1.1.1.1.2-.1-.2 0 .1.1.1l.3 1c.1.4.5.7.9.5.4-.1.6-.5.5-.9-.4-1.5-1.1-2.8-2.1-4l-.9 1.2c.1.1.2.1.3.2l.1.1c.1 0 .1.1 0 0l.5.5c.1.1-.1-.1 0 0 0 .1.1.1.1.2.1.1.1.2.2.3 0 0 0 .1.1.1-.1-.2 0 0 0 0 0 .1.1.2.1.4.1.4.5.7.9.5.5-.1.8-.5.7-.9h0z"/><path d="M144.8 94.1c-.3 1.2-.4 2.5-.4 3.7 0 1 .1 2.1-.3 3.1-.2.4.2.8.5.9.4.1.8-.1.9-.5.4-1 .4-2.2.4-3.3 0-1.2.1-2.4.3-3.5.1-.4-.1-.8-.5-.9-.3-.2-.8.1-.9.5h0zm10-1.2a7.14 7.14 0 0 0-1.4-3.2c-.1-.1-.4-.2-.5-.2-.2 0-.4.1-.5.2s-.2.3-.2.5.1.4.2.5 0 .1 0 0c0 0 0 .1.1.1l.1.1c.1.1.1.2.2.3.1.2.2.4.3.7 0 .1 0 0 0-.1v.1c0 .1 0 .1.1.2 0 .1.1.2.1.4.1.2.1.5.2.8 0 .2.2.4.3.5.2.1.4.1.6.1.3-.2.5-.5.4-1h0z"/><path d="M137.5 84c-.6 3-.8 6-.9 9-.1 2.9 0 6 1.1 8.7.5 1.1 1.1 2.2 2.3 2.6 1 .3 2 .2 2.9-.3 2.3-1.2 2.7-3.9 3-6.2.1-1-1.4-1-1.5 0-.2 1.8-.6 4.4-2.5 5.1-2.5.9-3.2-2.8-3.5-4.5-.4-2.3-.3-4.6-.2-6.9s.4-4.7.8-7c.1-1-1.4-1.4-1.5-.5h0zm-64 10.8c-.1-.7-.8-1-1.4-1.2-.4-.2-.9-.2-1.4-.2-.3 0-.5.1-.8.1-.3.1-.5.2-.7.4-.2.3-.1.7.1 1 .3.3.6.3 1 .3.3 0 .6-.1.9-.1.4-.1.7-.5.5-.9-.1-.4-.5-.6-.9-.5-.2 0-.3.1-.5.1h.2c-.2 0-.4.1-.6 0h.2c-.1 0-.1 0 .2.1 0 .1.1.1.1.2s.1.1.1.2v.4l-.5.5c.2-.1.4-.1.6-.2h-.2.8-.2c.2 0 .4.1.6.2.1 0 .1 0-.1 0h.1s.1 0 .1.1h.1c.1 0 0 0-.1 0l.1.1c0-.1-.1-.1-.1-.2l.1.1c0-.1-.1-.1-.1-.2v.1c.1.4.5.7.9.5.8-.1 1-.5.9-.9h0zm-6.9 1.1c-1.5 2.3-1.8 4.5-1.2 7.2s1.2 5.6 2.6 8.1c1.1 2.1 2.9 4 5.2 4.7 2 .7 4.9.5 6.1-1.5.5-.8-.8-1.6-1.3-.8-1.1 1.8-4.1 1.2-5.6.3-1.9-1.1-3-3.1-3.8-5.1s-1.2-4.1-1.7-6.2c-.5-2.3-.3-4.1 1-6 .6-.7-.7-1.5-1.3-.7h0zm19.5-1.4v-.6.2c0-.2.1-.4.2-.6-.5-.1-1-.3-1.5-.4l-.3 1.2v.3c0 .1 0 .2.1.3.1.2.3.3.5.4.2 0 .4 0 .6-.1s.3-.3.4-.5l.3-1.2v-.3c0-.1 0-.2-.1-.3-.1-.2-.3-.3-.5-.4-.2 0-.4 0-.6.1-.1 0-.1.1-.2.1-.1.1-.2.2-.2.3-.1.2-.1.5-.2.8v.6c0 .1 0 .2.1.3 0 .1.1.2.2.3s.3.2.5.2.4-.1.5-.2.2-.3.2-.5h0z"/><path d="M86.1 94.9c.1-.1-.1.1 0 0l.2-.2.1-.1s.1-.1.2-.1c0 0-.1.1-.1 0 0 0 .1 0 .1-.1.1 0 .1-.1.2-.1.1-.1.2-.1.4-.2-.1 0-.1.1-.2.1.2-.1.5-.2.8-.2h-.2.4c.4 0 .8-.3.8-.7s-.3-.8-.7-.8a3.84 3.84 0 0 0-3.1 1.6c-.2.3-.1.9.3 1 .1.3.5.2.8-.2h0z"/><path d="M86.2 92.6l-1 .7c-.1 0-.2.1-.2.2-.1.1-.1.2-.1.3v.3c0 .1 0 .2.1.3.1.2.3.3.5.4.2 0 .4 0 .6-.1l1-.7c.1 0 .2-.1.2-.2.1-.1.1-.2.1-.3v-.3c0-.1 0-.2-.1-.3-.1-.2-.3-.3-.5-.4-.2 0-.4 0-.6.1h0zm-25.7 20.2c-.4-.4-.9-.8-1.5-.7-.6 0-1.1.4-1.3 1-.2.5-.1 1.1.2 1.6s.8.8 1.1 1.3c.6.8.9 1.8.8 2.8-.1.9-.6 2-1.5 2.2-1 .2-.6 1.7.4 1.5 2.2-.4 2.9-3.1 2.6-5-.2-1-.7-2-1.3-2.7-.3-.3-.7-.6-.8-1v-.1s0 .1-.1.1l.2.1c.1.1.2.1.2.2.6.5 1.7-.6 1-1.3h0zm-3.1 10c-4.4 2.8-9.7-.4-11.8-4.6-1.2-2.3-2.1-4.7-1.7-7.4.2-1.2.2-2.3.1-3.4-.2-1.3-.9-2.5-1.2-3.7-.2-1-1.7-.6-1.5.4.4 1.6 1.2 2.9 1.3 4.5.1 1.4-.4 2.8-.3 4.3.2 2.6 1.5 5.7 3 7.7 3 4 8.4 6.4 12.9 3.5.7-.5 0-1.8-.8-1.3h0zM39.2 90.7l-.4 3.8h1.5c0-.7.1-1.3.1-2 0-.4-.4-.8-.7-.8-.4 0-.7.3-.8.7-.1.7-.1 1.3-.1 2 0 .4.3.8.7.8s.7-.3.8-.7c0-.6.1-1.2.2-1.8 0-.3.1-.6.1-.8s0-.3.1-.5v-.2c0-.1 0-.1 0 0v-.1c0-.2 0-.4-.1-.6s-.3-.3-.5-.4c-.4-.1-.9.1-.9.6h0zm1.7-8.1l-1.1 1.7c-.1.2-.1.4-.1.6s.2.4.3.5c.2.1.4.1.6.1.2-.1.3-.2.5-.3l1.1-1.7c.1-.2.1-.4.1-.6s-.2-.4-.3-.5c-.2-.1-.4-.1-.6-.1a.55.55 0 0 0-.5.3h0zm13.3 6.9c.1-.2 0 0 0 0 0 .2.1-.1 0 0s-.1.2-.1.2c-.1.1.1-.1 0 0-.2.2-.3.4-.5.5l-.3.3c-.1 0-.1.1-.2.1.1-.1-.1 0-.1.1-.3.2-.5.3-.8.4-.6.3-1.1.8-1.3 1.5-.1.5 0 1 .5 1.2s1.1-.1 1.2-.6c.1-.4-.1-.8-.5-.9s-.8.1-.9.5c.1-.1.1-.2.2-.3.2-.2.9.9 1 .4 0-.1-.1.1 0 0 0 0 0-.1.1-.1.1-.1-.1 0 0 0l.1-.1c-.1.1 0 0 0 0 .1-.1.2-.1.3-.2.5-.2.9-.5 1.3-.8.3-.3.7-.5.9-.8.4-.4.6-.8.7-1.4.1-.4-.4-.8-.7-.8-.5 0-.8.3-.9.8h0z"/><path d="M44.2 81.6c-.7.8-1.7 1.4-2.3 2.3-.7.9-1.2 2.1-1.7 3.2.5.1 1 .3 1.5.4 0-.2.1-.4.2-.6 0-.1.1-.2.1-.3 0 0 0-.1.1-.1 0 .1 0 0 0 0 .2-.4.4-.7.6-1l.2-.2c.1-.1.1-.1 0 0l.1-.1c.1-.2.3-.3.4-.5.1-.1.3-.3.5-.4l.1-.1c.1-.1.2-.1.3-.2.3-.2.5-.7.3-1s-.7-.5-1-.3c-1.6 1.1-2.7 2.7-3.2 4.5-.1.4.1.8.5.9s.8-.1.9-.5c.2-.5.4-1 .7-1.5l.7-1.3c.6-.8 1.5-1.3 2.2-2.1.3-.3.3-.8 0-1.1-.4-.2-1-.3-1.2 0h0zm197.6 39.8c3 .6 4.4-2.4 4.1-4.9-.4-3.5-2.6-6.4-5-8.8-2.5-2.6-5.5-4.9-7.4-8.1-1.6-2.8-2.1-6.4 0-9 .6-.8-.7-1.5-1.3-.8-3.5 4.6-.7 10.5 2.7 14.1 2.2 2.4 4.9 4.4 6.9 7.1 1.1 1.4 2 3 2.4 4.7.3 1.4.3 4.7-2 4.2-.9-.2-1.3 1.3-.4 1.5h0z"/><path d="M233 90c-2.7 5.3.4 10.8 4 14.8 2.2 2.5 4.7 4.7 6.5 7.5.9 1.3 1.7 2.9 1.8 4.5.2 2.3-1.5 3-3.5 2.9-.7 0-1 .8-.6 1.3s.9.6 1.4.4c.9-.3.5-1.8-.4-1.5-.2.4-.4.9-.6 1.3 2.8.1 5.2-1.2 5-4.3s-2.3-5.9-4.2-8.2c-4-4.7-11.9-10.8-8.3-18 .7-.8-.6-1.6-1.1-.7h0z"/><path d="M242.2 119.1c-.4.2-.7.6-.9 1.1-.2.4-.5 1.1-.1 1.5.2.2.5.3.8.2.3 0 .6-.1.8-.2l1.7-.6c.2-.1.3-.4.1-.6-.1-.2-.4-.2-.6-.1-.4.2-.8.4-1.2.5-.2.1-.5.1-.7.2-.1 0-.2 0-.3.1h-.1-.1l.1.1v-.1-.1c0-.2.1-.3.2-.4.1-.2.2-.3.3-.5 0 0 0-.1 0 0l.1-.1c.1-.1.1-.1.2-.1.2-.1.3-.4.1-.6 0-.4-.2-.4-.4-.3h0z"/><path d="M242.2 119.5c.6.5 1.4.5 2.1.1s1.1-1.3 1.3-2c.1-.5-.6-.7-.8-.2l-.3.9a.76.76 0 0 0-.2.4c0 .1-.1.1-.2.2l-.1.1s-.1.1 0 0c-.1 0-.1.1-.2.1h-.1c-.1.1.1 0-.1 0-.1 0-.1 0-.2.1h-.1 0-.2s-.1 0 0 0h-.1-.1 0-.1c-.1 0 0 0 0 0-.2-.1-.4-.2-.6 0-.2-.1-.2.2 0 .3h0z"/><path d="M242.6 119.5c.8.3 1.8 0 2.4-.6s.8-1.5.5-2.3a.55.55 0 0 0-.5-.3c-.2.1-.4.3-.3.5.2.5.1 1.1-.3 1.5s-1 .6-1.6.4c-.2-.1-.4.1-.5.3s.1.4.3.5h0zm-1.3 2.5c2.2-.2 4.6-.7 5.4-3s-.4-4.6-2-6.3c-.4-.4-.9.2-.6.6 1.3 1.4 2.5 3.4 1.8 5.4s-2.9 2.3-4.7 2.5c-.4 0-.5.8.1.8h0zm-46.1-20.8c.4 1.1.9 2.2 1.7 3.1.7.7 1.7 1.2 2.8 1.2.5 0 .5-.8 0-.8-2.1.1-3.1-2-3.7-3.6-.2-.6-1-.4-.8.1h0zm6.7-11.1c-2.7.3-4.5 2.8-4.8 5.3-.2 1.5 0 3.1.3 4.6.3 1.4.6 3 1.7 4l.6-.6c-1-.8-1.6-1.8-1.8-3.1-.3 0-.5.1-.8.1.3 1.1.7 2.1 1.2 3.1.2.4.9.1.7-.3-.1-.2-.2-.5-.2-.7-.2.1-.5.3-.7.4a13.65 13.65 0 0 1 1.7 1.7c.1-.2.3-.4.4-.7-.4-.1-.8-.3-1.1-.5-.4-.3-.8.4-.4.7s.8.4 1.3.6c.4.1.7-.4.4-.7a13.65 13.65 0 0 0-1.7-1.7c-.3-.3-.8 0-.7.4.1.2.2.5.2.7.2-.1.5-.2.7-.3-.5-.9-.9-1.9-1.2-2.9-.1-.4-.8-.4-.8.1.2 1.5.8 2.8 2 3.7.4.3 1-.2.6-.6-.9-.8-1.1-2.3-1.4-3.4-.3-1.3-.5-2.6-.4-3.9.1-2.3 1.6-4.9 4.1-5.2.6-.1.6-.9.1-.8h0zm6.6 4.6c2.3-4.1 8-1.3 10.3 1.2 3 3.3 4 7.8 3.7 12.2-.1 2.5-.6 4.9-1.2 7.4-.4 1.7-.6 3.4.1 5.1 1.3 3.4 4.5 3.8 7.8 3.9 1.2.1 1.3-1.9 0-1.9-1.7-.1-3.8 0-5.1-1.2-1.8-1.7-1.2-4.1-.7-6.2 1.1-4.6 1.7-9.5.3-14.1-1.1-3.8-3.6-7.5-7.2-9.2-3.3-1.6-7.7-1.6-9.7 2-.5.9 1.1 1.9 1.7.8h0zM91.6 97.2c1.4-1.5 3-2.7 4.8-3.5.6-.3 1.6-.8 2.3-.5s.8 1.4.9 2c.1.4.6.6.9.5.4-.1.6-.5.5-.9-.1-1-.4-2.1-1.3-2.8s-2.1-.5-3.1-.1a16.85 16.85 0 0 0-6.1 4.1c-.7.8.4 1.9 1.1 1.2h0z"/><path d="M95.1 93.1c1-.1 1.9-.6 2.8-.7.7-.1 1.4.1 1.8.7.4.7.5 1.5.6 2.3 0 .9-.1 1.7-.5 2.5-.2.4-.1.8.3 1 .3.2.9.1 1-.3.5-1 .7-2.1.7-3.3 0-1.1-.2-2.2-.8-3.2s-1.7-1.5-2.8-1.4c-1.2 0-2.3.6-3.5.8-.4.1-.6.6-.5.9.1.5.5.7.9.7h0zm12.8-.9c-1.8 5.3 1.6 12.4 7.5 12.9 1 .1 1-1.4 0-1.5-5-.5-7.6-6.7-6.1-11 .4-.9-1.1-1.3-1.4-.4h0z"/><path d="M109.7 103.1c-2-3.8-2.8-9 .7-12.3.7-.7-.4-1.8-1.1-1.1-4 3.8-3.3 9.7-.9 14.1.4.9 1.7.1 1.3-.7h0zm28-27.9c-1.3 9.1-3.4 18.6-.7 27.6.3.9 1.8.6 1.5-.4-2.7-8.9-.6-18.3.7-27.2.2-.9-1.4-.9-1.5 0h0zm28 28.6l1-.3h-.2.5c.2 0 .4-.1.5-.2s.2-.3.2-.5-.1-.4-.2-.5-.3-.2-.5-.2c-.6 0-1.2.1-1.7.3-.1 0-.2.1-.3.1l-.2.2c-.1.2-.1.4-.1.6.1.2.2.4.3.5.3 0 .5.1.7 0h0zM90 107.2c.1.5.1.9.2 1.4 0 .2.1.5.1.7 0 .1 0 .2.1.4 0 .2.2.5.4.6.6.3 1.3.1 1.6-.5.3-.5.2-1.1.1-1.6s-.1-1.1-.2-1.6c0-.2-.2-.4-.3-.5-.2-.1-.4-.1-.6-.1-.2.1-.4.2-.5.3-.1.2-.1.4-.1.6.1.6.2 1.3.2 1.9v-.2.3.1c0 .1 0-.2 0 0s0-.1 0 0c-.1.1.1-.1 0-.1-.1.1.1-.1.1 0 0 0-.1 0-.1.1.1 0 .1-.1.2-.1h-.1.2c-.1 0-.1 0 .1 0 .1 0 .2.1.2.1.1.1.1.2.2.3l-.4-2.5c0-.2-.2-.4-.3-.5-.2-.1-.4-.1-.6-.1-.2.1-.4.2-.5.3v.7h0zm5.6-14.1c.8-.6 1.7-1.1 2.7-.8.9.3 1.5 1 1.9 1.8.5 1.1.5 2.3.5 3.4 0 1.2-.2 2.3-.4 3.5-.2 1 1.3 1.4 1.5.4.3-1.4.4-2.9.4-4.4 0-1.4-.2-2.9-.9-4.2-.6-1-1.5-1.8-2.7-2.1-1.4-.4-2.6.1-3.7.9-.9.7-.1 2 .7 1.5h0zm-10.3-.5c-.8.7-1.2 1.7-1.3 2.7 0 .4.3.8.7.8s.7-.3.8-.7v-.3.2c0-.3.1-.5.2-.7 0 .1-.1.1-.1.2.1-.2.2-.5.4-.7 0 .1-.1.1-.1.2.1-.2.3-.3.4-.5.1-.1.2-.4.2-.5 0-.2-.1-.4-.2-.5s-.3-.2-.5-.2c-.2-.2-.3-.1-.5 0h0z"/><path d="M86.7 92.8a7.35 7.35 0 0 0-1.6 1.9c-.2.3-.1.8.3 1s.8.1 1-.3a3.04 3.04 0 0 1 .5-.7c0 .1-.1.1-.1.2a4.74 4.74 0 0 1 1-1c.1-.1.2-.4.2-.5 0-.2-.1-.4-.2-.5s-.3-.2-.5-.2c-.3-.1-.4-.1-.6.1h0zm146.2 2.6c.2.1.3.1.5.2 1.6.7 3.7 1.2 4.8 0 .4-.4.6-1 1.1-1.2s1.1 0 1.7.2c2.3.8 5-.1 6.9-1.6s3.3-3.7 4.6-5.8l4-6.4c.9.6 1.8 1 2.7 1.1 4.1.6 4.6-3.3 2.5-5.8a29.82 29.82 0 0 0-2.5-2.8c1.8-1.7.5-.3 1.9-1.8 1.3-1.4 2.6-2.6 2-4.8-.6-1.9-2.8-1.7-4-.7-2.7 2.3-1 1.1-3.4 3.7 0 0-.4-.1.1.3-1-.9-5.3-3.5-6.4-4.3 2.1-2.1.5-.3 2.4-2.6 1-1.2 1.8-3.2.1-4.3-1.8-1.2-3.5.7-4.6 1.9l-2.1 2.1c-2-1.3-3-1.6-5.9-2.2-4.3-1-4.3 1.8-2.8 4.4 0 .2.1.3.3.5 0 .1.1.1.1.2-1.1 2-2.7 3.7-4.3 5.4-2 2.1-4.1 4.3-5.2 6.9-1.1 2.7-1.1 6.1.9 8.2.2.3.5.5.6.9 0 .4-.3.8-.5 1.1-.9 1.4-.3 3.4.8 4.6.3.3.7.6 1.1.9m10-29.8c1.8.5 3.7 1.7 5.4 2.7 2.8 1.6 5.5 3.5 8.1 5.5 1.4 1.1 3.8 2.4 4.7 3.9 2.4 1.3 1.9 2.2-1.3 2.4l-2.5-2.1-5.9-4.6c-3.1-2.3-6.3-4.6-9.7-6.5v-.1c-.9-1.7-1.6-1.9 1.2-1.2z"/></g><g fill="#fff"><path d="M237.8 75.1c-2.6.1-6.4 1.9-6.5 4.9 0 1.2.9 2.2 2 2.6 1.5.5 3.1-.1 4.5-.7.4-.2.1-.9-.3-.7-1.6.5-3.6 1.2-4.2 2.9-.7 1.8.2 4.5 1.6 5.7s3.4 1.4 5.1.7c2-.8 3.4-2.7 4.3-4.7s1.2-4.2 1.3-6.4c.1-2.3.2-5-1.1-7-.4-.6-1-1-1.6-.5-.7.6-.6 2-.7 2.8-.3 2.5-.2 5.1.3 7.6.4 2.2.9 5 2.9 6.3 1.5 1 3.8.6 4.4-1.1.2-.5-.6-.7-.8-.2-.6 1.7-2.9 1.2-3.8.2-1.2-1.3-1.5-3.2-1.9-4.8-.4-1.8-.5-3.7-.5-5.6 0-.9.1-1.7.2-2.5.1-.4 0-1.1.2-1.5.4-.7.8.4 1 .8.7 1.7.7 3.7.6 5.6-.1 1.6-.3 3.3-.7 4.9-.9 3-3.5 6.9-7.2 5.8-1-.3-1.7-.9-2.2-1.8s-.9-2.3-.7-3.3c.4-1.7 2.4-2.4 3.8-2.8-.1-.2-.2-.5-.3-.7-1.1.5-2.4 1-3.6.7s-2-1.3-1.6-2.5c.7-2.2 3.4-3.4 5.5-3.5.5-.4.5-1.2 0-1.2h0z"/><path d="M238 75.9c-.1 0-.2 0-.2.1-.1 0 0-.5-.2-.5-.1 0-.2 0-.2.1-.1 0-.3.1-.4.1-.3.1-.6.2-.9.2-.5.1-1 .3-1.5.5-.9.3-1.8.8-2.3 1.7a3.12 3.12 0 0 0-.5 2.5c.3.8 1 1.4 1.8 1.7 1.1.3 2.3 0 3.4-.3.5-.1.3-.9-.2-.8-.9.3-2 .6-3 .3-.8-.2-1.4-.8-1.4-1.7.1-2.1 2.7-2.7 4.4-3.1.4-.1 1.2-.2 1.4-.6.2-.5-.4-.9-.8-.6-.4.2.2.7.6.4h0z"/><path d="M237.2 80.8c-.5.2-1 .3-1.5.3-.4 0-.9 0-1.3-.1-.7-.2-1.5-.7-1.4-1.6.1-.8 1.1-1.2 1.8-1.6.9-.5 1.9-.9 2.9-1.3.5-.2.3-.9-.2-.8-.9.3-1.9.7-2.8 1.1-.7.4-1.6.8-2.1 1.4-.5.7-.6 1.5-.1 2.2.4.7 1.2 1.1 2 1.2 1 .2 2.2.1 3.1-.4.5.1.1-.6-.4-.4h0z"/><path d="M237.4 76.5c.9.1 1.3-1.2.4-1.6-.4-.2-.8 0-1.1.1-.5.2-.9.4-1.4.7-.9.5-1.7 1.2-2.5 1.9-.7.7-1.1 1.6-1 2.6.2 1 1 1.9 2 2.1.5.1.7-.7.2-.8-.7-.2-1.3-.8-1.4-1.5-.1-.9.5-1.6 1.1-2.2.7-.6 1.4-1.1 2.2-1.6l1.1-.6c.1 0 .3-.1.4-.1-.1.1.1.1-.1 0-.4.2-.4 1 .1 1h0z"/><path d="M237.2 81.3c-.7.4-1.4.8-2 1.3-.5.4-.9.8-1.2 1.4-.5 1.3-.1 3 .5 4.2.6 1.1 1.7 1.9 2.9 2.2 1.4.2 2.8-.3 4-1 1.3-.8 2.3-2 3-3.4.2-.5-.5-.9-.7-.4-.6 1.3-1.6 2.5-2.9 3.2-1.2.7-2.9 1.2-4.2.5-1.3-.8-1.9-2.3-2-3.8 0-.8.2-1.4.8-1.9.6-.6 1.4-1 2.2-1.4.5-.4.1-1.1-.4-.9h0z"/><path d="M237.4 81.1c-1.8 1.1-3.3 2.9-3 5.2.2 2 1.9 3.7 4 3.6 2.2 0 4.7-1.7 6-3.5 1.5-2 1.7-4.7 1.9-7.1.2-2.6-.1-5.6-2.3-7.4-.4-.3-1 .2-.6.6 2.1 1.8 2.3 4.6 2 7.2-.3 2.5-.5 5.3-2.5 7.1-1.7 1.6-4.8 3.3-6.8 1.3-.9-.9-1.2-2.3-.8-3.5.4-1.3 1.4-2.2 2.5-2.9.5-.2.1-.9-.4-.6h0z"/><path d="M243.6 71.5c-3.3.8-3 4.7-2.4 7.3.7 3.3 1.5 6.6 3.8 9.2.3.4.9-.2.6-.6-1.9-2.2-2.7-5-3.3-7.8-.5-2.3-1.6-6.5 1.6-7.4.4 0 .2-.8-.3-.7h0z"/><path d="M249 87c-1 .8-2.3.1-3.1-.7a13.86 13.86 0 0 1-2.3-3.1c-.2.1-.5.3-.7.4 1.2 1.8 1.5 4.3 3.8 5.2.4.1.7-.4.4-.7s-.6-.6-1-.9c-.1.2-.3.4-.4.7.7.2 1.2.9 2.1.8.5-.1.8-.5 1.1-.8.3-.4.7-.8.9-1.2-.2 0-.5-.1-.7-.1 0 .3-.2.6-.5.7-.5.2-.3.9.2.8.7-.2 1.2-.9 1-1.7-.1-.4-.6-.4-.7-.1-.2.4-.5.7-.8 1-.2.2-.5.6-.8.6s-.5-.2-.7-.3c-.3-.2-.6-.3-.9-.4-.4-.1-.7.4-.4.7s.6.6 1 .9c.1-.2.3-.4.4-.7-.9-.3-1.4-1.1-1.8-1.9-.5-1-.8-2-1.4-2.9-.3-.4-.9-.1-.7.4.7 1.3 1.6 2.6 2.7 3.6 1 .9 2.6 1.5 3.8.6.3-.5-.1-1.2-.5-.9h0z"/><path d="M242.9 72c-2.3 4.3-.7 9.1.9 13.4.2.5 1 .3.8-.2-1.5-4-3.1-8.7-.9-12.8.1-.5-.6-.9-.8-.4h0z"/><path d="M245.3 87.5c-1.9-1.6-2.7-4.3-3-6.7-.4-2.5-.1-5.1.7-7.5.2-.5-.6-.7-.8-.2-.8 2.6-1.1 5.3-.7 7.9.4 2.5 1.2 5.3 3.2 7 .4.5 1-.1.6-.5h0z"/><path d="M243.3 72.7c.2-.2.5-.1.7 0 .3.2.4.6.6 1 .3.9.5 1.9.7 2.9 0 .2.3.3.5.3a.55.55 0 0 0 .3-.5c-.2-1.2-.4-2.4-.9-3.5a1.98 1.98 0 0 0-1.1-1.1c-.5-.2-1-.1-1.3.3-.4.4.1.9.5.6h0z"/><path d="M245.8 75.3c-.2-.9-.4-1.7-.8-2.5-.2-.5-.6-1.4-1.3-1.5-.6 0-1.1.5-1.5.9-.4.5-.7 1-.9 1.6-.4 1.4-.4 2.9-.2 4.3.2 1.7.6 3.4 1.3 5 .2.5.9.1.7-.4-1-2.3-1.5-5-1.2-7.5.1-1 .5-2 1.2-2.7.3-.3.5-.3.7.1.2.3.3.6.5.9a8.3 8.3 0 0 1 .6 2.1c.3.4 1 .2.9-.3h0z"/><path d="M243.7 71.4c-2.5.2-3.5 2.9-3.3 5.1.3 2.9 1.2 5.8 2.1 8.5.2.5.9.3.8-.2-.8-2.3-1.4-4.7-1.9-7.1-.2-1.1-.4-2.3 0-3.4.3-1 1.2-2 2.3-2 .5-.2.5-1 0-.9h0z"/><path d="M240.7 75.2c-.2 3.3.2 6.7 1.5 9.7.5 1.2 1.2 2.4 2.3 3.1s2.4.8 3.5.1c.4-.3 0-1-.4-.7-1.2.7-2.6.2-3.5-.8-.9-.9-1.3-2.2-1.7-3.4-.8-2.6-1.1-5.4-1-8.1.1-.4-.7-.5-.7.1h0zm-3.2.9c.1.1.1.1.1.2s0 .1.1.1c.2.1.1.2-.3.1-.1.4.4.7.7.4.5-.6.2-1.6-.6-1.9-.9-.4-2 .2-2.8.7-1.7.9-3.2 2.5-3 4.6 0 .2.3.3.5.3a.55.55 0 0 0 .3-.5c-.2-1.4.9-2.6 2-3.3.6-.4 1.3-.7 2-.9.3-.1.6-.1.9 0 .1.1.3.4.2.5.2.1.4.3.7.4.1-.4-.2-.9-.7-.9s-.7.6-.5 1 .8.4 1.1.1c.4-.4.2-1-.2-1.4-.3-.4-.9.1-.5.5h0z"/><path d="M236.2 77.1c.3-.2.9.1 1.3.1.5 0 1-.4 1-.9.1-.6-.3-1.1-.8-1.2-.6-.2-1.3 0-1.9.3-1.3.6-2.7 1.3-3.7 2.3-.9.8-1.4 2.1-1 3.3.5 1.2 1.9 1.7 3.1 1.7.5 0 .5-.8 0-.8-1 .1-2.3-.4-2.5-1.5-.2-1.3.9-2.2 1.9-2.8.6-.4 1.3-.7 1.9-1 .5-.3 1.3-.9 1.9-.6.1.1.3.3.2.5-.1.1-.4 0-.6 0-.4-.1-.9-.2-1.3.1-.3.1.1.8.5.5h0zm1.5 4.4c.5 0 .5-.8 0-.8-.5.1-.5.8 0 .8h0z"/><path d="M237.9 81.9c.5 0 .5-.8 0-.8s-.5.8 0 .8h0zm-.5-5.7l-2.9.6c-.2 0-.3.3-.3.5a.55.55 0 0 0 .5.3l2.9-.6c.2 0 .3-.3.3-.5s-.3-.3-.5-.3h0z"/><path d="M238.1 76c-.4-1-1.8-1-2.7-.8-1.2.3-2.3 1.1-3.2 1.9-.8.6-1.6 1.5-1.5 2.6s1.2 2 2.1 2.6c.4.3.9-.4.4-.7-.7-.4-1.6-1.1-1.8-2-.1-.8.7-1.4 1.3-1.9.7-.6 1.6-1.3 2.5-1.6.6-.2 1.8-.5 2.2.3.2.5.9.1.7-.4h0z"/></g><path d="M210.5 4.7L78 24.5c1.5 14.7 2.6 25.8 5.2 40.3 30.9-3 100-18.3 135.3-22.6-4.7-12.1-5.3-24.6-8-37.5" fill="#e3262e"/><path d="M81.2 30.3l65-10.3 31.5-4.8 15.8-2.3 7.2-1.3c-.3.1-.3.4.1.4l6.5-1.1c.3-.1.3-.4-.1-.4L81.1 29.9c-.3 0-.2.4.1.4h0zM212.4 39c-42.2 5-83.6 13.7-125.7 19.9a.2.2 0 0 0 0 .4c42-6.2 83.5-14.9 125.7-19.8.4-.1.3-.5 0-.5h0z" fill="#f9c713"/><g fill="#3d2758"><path d="M127.2 13l.9 5.8c0 .1.1.2.2.2 7.5-1.5 15-2.7 22.6-3.6.1 0 .2-.1.2-.2-.2-2.2-.6-4.4-1.1-6.6 0-.1-.1-.2-.2-.2-7.2 1.6-14.1 4.8-21.6 4.5-.2 0-.3.4 0 .4 4.1.1 7.8-.6 11.7-1.7 2-.6 4.6-1.8 6.6-2 1.3-.8 2.5-.5 3.5.7.2 1.1.4 2.2.5 3.3-1.1 3.1-10.7 2.9-13.6 3.4-1.8.3-5.2 1.6-6.9 1.3-2.5-.5-2.1-3.3-2.4-5.2 0-.4-.4-.4-.4-.1h0z"/><path d="M127.8 13.2c.4.3.8.5 1.1.8.3.2.5.5.6.8.3.3.3.6.1.9-.1.8-.4 1.8-.6 2.6h.7l-.8-3.9c0-.4-.7-.4-.7 0l.1 2.5c.2 0 .5-.1.7-.1l-.6-3.1c-.1-.5-.8-.4-.7.1.1.8.3 1.5.6 2.2.2.4.8.2.7-.2l-.7-2.6c-.2.1-.4.3-.6.4l1.5 1.7c.3.3.8 0 .6-.4a6.42 6.42 0 0 0-1-1.3c-.3-.2-.7.1-.6.5l.9 2.3c.2.5.8.2.7-.3-.3-.9-.7-1.7-1.2-2.5-.2-.3-.6-.1-.7.2-.1 1 .1 2 .4 3 .1.4.8.2.7-.2l-.7-2.9c-.1-.4-.7-.4-.7 0-.1 1.1.1 2.2.6 3.2.2.4.8.2.7-.2 0-.2 0-.4-.1-.6-.2 0-.5.1-.7.1l.5 2.3c.2-.1.3-.3.5-.4-.1 0-.3-.1-.4-.1-.2-.1-.5.1-.5.3-.1.4 0 .8.4.9.1 0 .3 0 .4-.1.4-.3.4-.8.5-1.2l.7-3c.1-.5-.6-.6-.7-.1l-.4 1.9c-.1.3-.1.6-.2.9-.2.3-.2.6.2.7-.2.1-.3.2-.5.3.1 0 .3.1.4.1.3.1.6-.1.5-.4L129 16c-.1-.5-.8-.4-.7.1 0 .2 0 .4.1.6.2-.1.5-.1.7-.2-.4-.9-.6-1.8-.5-2.8h-.7l.7 2.9c.2-.1.5-.1.7-.2-.3-.9-.4-1.7-.3-2.6-.2.1-.4.1-.7.2.5.7.8 1.5 1.1 2.3.2-.1.5-.2.7-.3l-.9-2.3c-.2.2-.4.3-.6.5.4.3.6.6.8 1 .2-.1.4-.3.6-.4l-1.5-1.7c-.3-.3-.8 0-.6.4.3.8.5 1.6.7 2.4.2-.1.5-.1.7-.2-.3-.7-.4-1.3-.5-2-.2 0-.5.1-.7.1l.6 3.1c.1.5.8.4.7-.1-.1-.8-.1-1.5-.1-2.3h-.7l.8 3.9a.35.35 0 0 0 .7 0c.2-.7.4-1.5.5-2.2.1-.5.4-1 .3-1.5-.2-.9-1.6-1.7-2.3-2.2-.7-.2-1.2.5-.8.7h0z"/><path d="M129 19.1c.5.4 1.2.3 1.8.1.8-.4 1-1.1 1.2-1.9l.6-1.8c.1-.3.4-.9.3-1.2-.1-.2-.1-.2-.3-.4-.5-.5-1.2-.6-1.7-1.2-.3-.4-.9.1-.6.5a2.93 2.93 0 0 0 1 .9c.3.2.7-.3.4-.6-.8-.9-1.8-1.2-2.9-.8-.4.1-.2.8.2.7.7-.1 2-.4 2.6 0 .3.2.4.5.7.6.3.2.7-.3.4-.6-.4-.4-.8-.7-1.4-.9-.3-.1-.6.2-.5.5.5 1 1.3 1.6 2.4 1.9.3.1.5-.3.4-.5-.3-.8-.8-1.4-1.6-1.9-.4-.2-.8.2-.5.5.5.6 1 1.1 1.6 1.5.3.2.8-.1.6-.5-.4-.7-.9-1.3-1.6-1.8-.4-.3-.8.3-.4.6 1 .8 1.8 1.7 2.7 2.6.2-.2.3-.4.5-.5l-1.4-1.1c-.4-.3-.7.2-.5.5.2.4.5.7.8 1.1.2-.2.3-.4.5-.5-.5-.4-1-.7-1.6-.9-.2-.1-.5 0-.5.3 0 .8.6 1.9 1.4 1.1-.2-.1-.4-.3-.6-.4l-.6 1.7c-.2.5.5.7.7.3.2-.6.5-1.1.8-1.7-.2-.1-.5-.2-.7-.3v.7c0 .4.5.6.7.2v-.2c.1.2.4.3.6.1.1-.1.2-.1.3-.2-.2-.1-.4-.3-.6-.4-.3.8-.7 2.2-1.5 2.7s-2.2.4-3.1.6c-.5.1-.4.8.1.7.9-.1 2.3-.2 3-.8.6-.5.6-1.6.8-2.2.1-.4-.5-.5-.7-.3-.3.3-.5.6-.7.9.2.1.5.2.7.3 0-.4.1-.8.1-1.3 0-.3-.5-.6-.7-.3-.2.4-.5.8-.7 1.2.2.1.4.2.7.4l.6-1.3c.2-.4-.5-.7-.7-.3l-.8 1.7c-.2.4.4.7.7.4.4-.5.7-1 1.1-1.4h-.6c.1.2.2.4.3.5.1.2.4.3.6.1.2-.1.4-.3.6-.4-.2-.1-.4-.3-.6-.4-.4.9-1.1 1.4-2.1 1.5-.5.1-.4.8.1.7 1.2-.2 2.1-.9 2.7-2 .2-.3-.3-.7-.6-.4-.2.2-.4.3-.6.4.2 0 .4.1.6.1-.1-.4-.1-.4-.4-.7-.1-.2-.5-.2-.6 0-.4.5-.7 1-1.1 1.4.2.1.4.2.7.4l.8-1.7c-.2-.1-.5-.2-.7-.3l-.6 1.3c-.2.4.4.7.7.4.2-.4.5-.8.7-1.2-.2-.1-.5-.2-.7-.3 0 .4-.1.8-.1 1.3 0 .4.5.6.7.3s.4-.6.7-.9c-.2-.1-.5-.2-.7-.3-.2.9-.3 1.6-1.3 2-.6.2-1.3.3-1.9.4 0 .2.1.5.1.7.8-.2 1.5-.3 2.3-.4.5 0 1 0 1.4-.3.8-.6 1.2-2.1 1.6-3 .1-.4-.3-.6-.6-.4-.1.1-.2.1-.3.2.2 0 .4.1.6.1-.3-.8-1.1-.3-1.4.2.2.1.5.1.7.2V15c0-.3-.5-.6-.7-.3-.4.6-.7 1.2-.9 1.8.2.1.5.2.7.3l.6-1.7c.1-.3-.3-.7-.6-.4-.1-.1-.1-.3-.2-.4-.2.1-.3.2-.5.3.6.1 1 .4 1.4.8.3.3.8-.2.5-.5a4.44 4.44 0 0 1-.8-1.1c-.2.2-.3.4-.5.5l1.4 1.1c.3.3.8-.2.5-.5-.9-1-1.8-1.9-2.8-2.7-.1.2-.3.4-.4.6a4.06 4.06 0 0 1 1.4 1.5c.2-.2.4-.3.6-.5-.6-.4-1.1-.8-1.5-1.4-.2.2-.3.4-.5.5.7.4 1.1.9 1.4 1.6.1-.2.3-.4.4-.5-.8-.2-1.4-.7-1.8-1.4l-.5.5c.4.1.8.4 1 .7.1-.2.3-.4.4-.6-.4-.2-.5-.7-1-.8-.8-.2-1.9.1-2.7.2.1.2.1.5.2.7.8-.2 1.5 0 2 .6.1-.2.3-.4.4-.6-.2-.2-.4-.4-.7-.6-.2.2-.4.3-.6.5.3.3.7.6 1 .9.6.4.7.4.5 1.2-.2.9-1 4.4-2.4 3.4-.3-.5-.8.1-.4.4h0z"/><path d="M129.1 19.5c7-1.6 14.1-3 21.2-4 .5-.1.4-.8-.1-.7-7.1 1-14.2 2.3-21.2 4-.5.1-.4.8.1.7h0z"/><path d="M135.8 11.2c.3.5.6.9 1.1 1.3.2.2 1.3.7 1.4.9.3.8-1.8 2.7-2.2 3.4-.2.3.1.7.5.6.8-.3 1.6-.5 2.4-.7.4-.1 1.1 0 1.4-.3.7-.5.1-1.6-.1-2.2-.1-.3-.4-.4-.7-.2-.5.5-.9 1.1-1.2 1.8.2.1.5.2.7.3.1-.5.3-1 .4-1.5.1-.4-.4-.7-.7-.4-.5.5-.8 1.1-1.1 1.7.2.1.5.2.7.3l.7-1.8c.2-.4-.4-.7-.7-.4-.5.7-.9 1.4-1.3 2.1.2.1.5.2.7.3l1.4-3.2c-.2-.1-.5-.1-.7-.2-.1.9-.1 1.8 0 2.7 0 .4.6.4.7.1.3-.7.6-1.4.7-2.1-.2 0-.5-.1-.7-.1v2.2c0 .4.6.6.7.2.2-.4.3-.8.6-1.2-.2-.1-.5-.2-.7-.3 0 .5-.1 1.1-.2 1.6-.1.4.6.6.7.2.3-.8.6-1.5 1-2.2-.2-.1-.5-.2-.7-.3-.3.8-.6 1.6-.7 2.4-.1.4.6.6.7.2l1.3-3c-.2-.1-.5-.2-.7-.3l-1.1 3.1c.2.1.5.2.7.3.4-1.1.9-2.3 1.1-3.5.1-.6.1-1-.5-1.3-.9-.6-2.1-1.3-3.2-1.5-.8-.2-1.5.1-2.2.5-.2.1-.3.5-.1.6.9.7 1.9 1.3 2.8 1.9.3.2.9-.2.5-.5l-1.6-1.6c-.3-.3-.8 0-.6.4.5 1 1.1 1.8 2.1 2.3.3.2.6-.2.5-.5-.3-.9-.9-1.5-1.6-2-.4-.3-.8.3-.4.6.7.6 1.4 1 2.2 1.3.3.1.6-.2.5-.5-.5-.9-1.1-1.5-2.1-1.9-.3-.1-.6.2-.5.5.4 1 1 1.8 1.7 2.6.2.2.5.2.6-.1a1.95 1.95 0 0 0 0-1.5c-.1-.3-.6-.3-.7 0-.3.7-.2 1.3.2 1.9.2.3.5.1.6-.1.3-.5.4-.9.5-1.5h-.7c0 .2.1.5.1.7.1.4.5.4.7.2 1.2-1.2-.7-2.1-1.6-2.5-.4-.2-.7.4-.4.7s.7.4 1.1.6.7-.4.4-.7c-.7-.6-1.4-1.1-2.2-1.5-.3-.2-.7.3-.4.6l.9.9c.1-.2.3-.4.4-.6-.4-.1-.8-.3-1.1-.6-.1.2-.2.4-.4.7l1.7.8c.2.1 2.4.9 1.6 1.6-.4.3.1.9.5.6 2.2-1.7-2.7-3.3-3.5-3.7-.4-.2-.7.4-.4.7.4.3.8.5 1.3.7.3.1.7-.3.4-.6l-.9-.9c-.1.2-.3.4-.4.6.8.4 1.4.8 2 1.4.1-.2.2-.4.4-.7-.3-.1-.6-.3-.9-.5-.1.2-.2.4-.4.7.3.1 1.9.7 1.2 1.3.2.1.5.1.7.2 0-.2-.1-.5-.1-.7-.1-.4-.7-.4-.7 0 0 .5-.2.9-.4 1.3.2 0 .4-.1.6-.1 0-.4-.1-.8-.1-1.1h-.7v.9c.2 0 .4-.1.6-.1-.7-.7-1.2-1.5-1.6-2.4l-.5.5c.8.3 1.3.7 1.7 1.5l.5-.5c-.8-.3-1.4-.7-2-1.2-.1.2-.3.4-.4.6.7.4 1.1 1 1.4 1.7l.5-.5a3.51 3.51 0 0 1-1.7-1.9c-.2.1-.4.3-.6.4l1.6 1.6c.2-.2.3-.4.5-.5-1-.6-1.9-1.2-2.8-1.9 0 .2 0 .4-.1.6 1.3-.7 3-.3 4.2.7s.1 3-.4 4.2c-.2.5.5.7.7.3l1.1-3.1c.2-.5-.5-.7-.7-.3l-1.3 3c.2.1.5.1.7.2.1-.8.4-1.5.7-2.2.2-.5-.5-.7-.7-.3-.4.7-.7 1.5-1 2.2.2.1.5.1.7.2.1-.5.1-1.1.2-1.6 0-.3-.5-.6-.7-.3-.3.5-.5.9-.7 1.4.2.1.5.1.7.2v-2.2c0-.5-.7-.6-.7-.1-.1.7-.3 1.3-.6 1.9.2 0 .5.1.7.1-.1-.8-.1-1.7 0-2.5 0-.4-.6-.6-.7-.2l-1.4 3.2c-.2.5.5.7.7.3.3-.7.7-1.3 1.2-1.9-.2-.1-.4-.2-.7-.4l-.7 1.8c-.2.5.5.7.7.3.3-.6.6-1 1-1.5-.2-.1-.4-.2-.7-.4-.1.5-.3 1-.4 1.5s.5.7.7.3c.3-.6.7-1.1 1.1-1.6-.2-.1-.5-.1-.7-.2 0 .2.4 1.1.3 1.3-.2.4-1 .4-1.3.4-.8.1-1.6.4-2.4.7.2.2.3.4.5.6.6-1.1 2.4-2.5 2.3-3.8 0-.3-.1-.4-.3-.7-.3-.3-.7-.4-1.1-.6-.5-.4-.9-.8-1.2-1.4 0-.6-.6-.2-.4.2h0z"/><path d="M140.9 12.7a1.62 1.62 0 0 0-.5.9c.2-.1.4-.1.7-.2v.5c-.1 0-.1.1-.2.1-.1-.1-.3-.1-.4-.2-.1 0-.2.1-.3.2-.3.4.3.8.6.4.3-.3.5-.6.3-1-.1-.2-.2-.2-.4-.2s-.3.1-.3.2c-.1.1-.1.3 0 .5.2.2.6.1.7-.2.1-.1.1-.3.2-.4.4-.4-.1-1-.4-.6h0zm2.9-2.8c.5.3 1.2.6 1.6 1.1.4.1.5.4.3.9l-.3.6c-.5 1.1-1.1 2.1-1.7 3.1-.1.2 0 .6.3.6.8 0 1.8 0 2.3-.8.6-1 .9-2.3 1.1-3.4.1-.4-.5-.5-.7-.3-.9 1.2-1.7 2.4-2.4 3.7.2.1.5.2.7.3.5-1.1 1.1-2.1 1.7-3.2-.2-.1-.4-.3-.6-.4a13.9 13.9 0 0 0-1.2 2.8c-.1.3.2.6.5.5 1.1-.5 1.5-2.3 2-3.3-.2-.1-.5-.2-.7-.3-.6 1.2-1 2.4-1.5 3.6-.2.5.5.7.7.3.4-1.3 1-2.4 1.8-3.5-.2-.1-.4-.3-.6-.4-.5.8-.8 1.6-1.2 2.5-.2.5.5.7.7.3l.9-2c.2-.4.5-.9.4-1.4-.2-.8-1.1-1.1-1.8-1.2-.3 0-.5.3-.4.5.3.4.5.8.8 1.2.3.3.8 0 .6-.4-.3-.6-.5-.9-1.1-1.2-.2-.1-.6-.1-.6.3 0 .7.2 1.1.8 1.4.3.2.6-.2.5-.5-.6-1.1-1.5-1.8-2.8-2 0 .2-.1.5-.1.7.6 0 1.4-.1 1.9.1s.8.9 1.2 1.3c.2.3.8.1.7-.3-.2-.8-.6-1.3-1.3-1.6-.4-.2-.6.3-.4.6.5.7 1.5.7 1.3 1.8-.2 1-.9 2-1.3 2.9-.2.4.5.7.7.3l1-2.1c.2-.5.6-1.1.6-1.7-.1-1-1.1-1-1.6-1.7-.1.2-.3.4-.4.6.3.3.6.7.8 1 .2-.1.4-.2.7-.3-.4-.5-.8-1.3-1.4-1.6s-1.5-.1-2.2-.1c-.5 0-.6.7-.1.7 1 .1 1.7.6 2.2 1.5l.5-.5c-.1-.2-.2-.4-.4-.6l-.6.3c.4.2.7.5.8.9.2-.1.4-.3.6-.4-.3-.3-.5-.7-.7-1-.1.2-.3.4-.4.5.4.1 1 .3 1.1.8 0 .3-.3.8-.4 1l-.8 1.8c.2.1.5.2.7.3.3-.8.6-1.6 1.1-2.3.2-.4-.3-.9-.6-.4-.8 1.2-1.4 2.4-1.9 3.7.2.1.5.2.7.3a27.49 27.49 0 0 1 1.5-3.6c.2-.4-.5-.7-.7-.3-.3.7-.9 2.6-1.6 2.9l.5.5c.2-.9.6-1.8 1.1-2.6.2-.4-.3-.9-.6-.4a26.85 26.85 0 0 0-1.8 3.3c-.2.5.5.7.7.3.7-1.3 1.5-2.4 2.3-3.6-.2-.1-.5-.2-.7-.3l-.6 2.1c-.4 1-.8 1.4-1.9 1.4l.3.6c.8-1.2 1.9-2.8 2.3-4.3.3-1.2-1.5-1.9-2.3-2.4-.5-.4-1 .2-.6.5h0zm5.5 5.1l.8-2.3c.2-.5.5-1.1.4-1.7-.1-1-1.2-1.8-2.1-2.2-.4-.2-.7.5-.3.7 1 .5 2.3 1.1 2 2.5-.1.7-.6 1.4-.8 2 .2 0 .5.1.7.1-.1-.6 0-1.1.3-1.5-.2-.1-.4-.2-.7-.4-.3.7-.5 1.3-.6 2.1 0 .3.3.5.5.4.1 0 .2-.1.3-.1.4-.2.1-.9-.3-.7-.1 0-.2.1-.3.1.2.1.4.3.5.4.1-.7.3-1.3.6-1.9.2-.4-.4-.7-.7-.4-.4.6-.6 1.3-.4 2.1.1.3.6.5.7.1.4-1.1 1.2-2.1.9-3.3s-1.5-1.7-2.5-2.2c-.1.2-.2.5-.3.7 1.2.5 1.8 1.4 1.3 2.7l-.9 2.5c.1.4.8.7.9.3h0z"/><path d="M149.5 15.4c.7-.1 2.2 0 2.5-.7.4-.8-.4-2.6-.7-3.5-.2-.4-.7-.2-.7.2.1.9 0 1.8-.1 2.8.2 0 .5-.1.7-.1 0-.3-.1-.6-.1-1 .1-.5-.7-.6-.7-.1-.1.5 0 .9 0 1.4 0 .3.5.4.7.2.4-.5.4-1 .3-1.7-.1-1.2-.2-2.3-.5-3.5-.1-.5-.8-.4-.7.1l.6 4c.1.5.8.4.7-.1-.1-1.7-.4-3.4-.7-5-.1-.3-.3-.4-.5-.3-.3.1-.6.2-1 .2.1.2.1.5.2.7.2-.1.8 2 .9 2.3.1.5.9.4.7-.1-.2-.8-.5-3.6-1.9-2.8-.4.2-.2.8.2.7s.8-.1 1.2-.3c-.2-.1-.4-.2-.5-.3.4 1.7.6 3.3.7 5 .2 0 .5-.1.7-.1l-.6-4c-.2 0-.5.1-.7.1.1.7.3 1.5.3 2.2.1.7.4 1.8-.1 2.4.2.1.5.1.7.2-.1-.4-.1-.8 0-1.2-.2 0-.5-.1-.7-.1-.1.5 0 .9.2 1.4.1.4.7.3.7-.1.1-1 .2-2 .1-3-.2.1-.5.1-.7.2.2.5.8 1.8.6 2.4-.2.7-1.3.7-1.9.7-.5.1-.4.8.1.8h0z"/><path d="M149.6 15.3c.9 0 3.1.3 3.2-1 .1-1.1-.5-2.5-.7-3.5l-.9-3.1c-.2-.5-.8-.2-.7.3l1.1 4.1c.1.4.5 1.3.3 1.8-.2.9-1.6.7-2.3.6-.4 0-.5.8 0 .8h0zm-21-2.7c2.7-.3 5.1-1.3 7.8-1.9 2.5-.5 5-.7 7.6-1 .2 0 .1-.3 0-.3-2.5.3-5.1.4-7.6 1-2.6.6-5.1 1.6-7.8 1.9-.2 0-.2.3 0 .3h0z"/><path d="M144.8 8.8l-8.5.9c-2.7.5-5 2-7.6 2.6-.3.1-.3.6.1.5 2.5-.5 4.7-1.8 7.2-2.4 2.9-.7 6-.7 9-1 .2-.1.1-.7-.2-.6h0z"/><path d="M143.8 9c-3.2-.3-6 .2-9 1.1-.3.1-.3.6.1.5l8.8-.5c.3 0 .3-.5 0-.5a17.61 17.61 0 0 0-3.3-.3c0 .2.1.4.1.5.9-.1 1.7-.1 2.6-.1v-.5c-1.2.2-2.4-.4-3.5.1-.3.1-.1.6.2.5.9-.4 2.4.1 3.3-.1.3 0 .3-.5 0-.5l-2.7.1c-.3 0-.3.5.1.5 1.1 0 2.1.1 3.1.3v-.5l-8.8.5c0 .2.1.4.1.5 3-.8 5.8-1.4 8.9-1.1.3.1.3-.4 0-.5h0z"/><path d="M136.2 9.7c-.5.2-1 .3-1.5.5-.4.1-.3.7.1.7.9 0 1.8.3 2.5.8.1-.2.3-.4.4-.6-.6-.4-1.2-.7-1.9-.9-.4-.1-.7.4-.4.7.5.4.9.8 1.5 1.1.4.2.9-.3.4-.6l-1.9-1.3c-.4-.2-.8.2-.5.5.8 1 1.8 1.7 3 2.2.5.2.7-.5.3-.7-1.1-.4-2-1-2.6-1.9-.2.2-.3.4-.5.5L137 12c.1-.2.3-.4.4-.6-.5-.3-1-.7-1.5-1.1-.1.2-.2.4-.4.7.6.2 1.2.5 1.7.9.4.3.8-.3.4-.6-.9-.6-1.8-1-2.9-1 0 .2.1.5.1.7.5-.2 1-.3 1.5-.5.7-.2.4-.9-.1-.8h0zm6.5-.5l3.4 2.5c.4.3.8-.3.4-.6a42.49 42.49 0 0 0-3.4-2.5c-.3-.3-.8.3-.4.6h0zm-11.8 3.6c.7.4 1.5.7 2.2 1 .2.1.9.2 1.1.4.4.5-.2 1.2-.5 1.6.2.1.4.2.7.4.2-.6.4-1.1.5-1.7h-.7c.1.3.1.6-.1.8.2.1.5.1.7.2.3-1.3 0-2.2-1-3.1-.4-.3-1-1.1-1.5-1.1-.2 0-.8.5-.8.5-.5-.1-.6.6-.1.7.2.1.3 0 .5-.1.1 0 .1-.1.2-.2.3-.1.3 0 .6.2.4.3.8.7 1.1 1 .5.6.4 1.2.3 1.9-.1.4.6.6.7.2.2-.4.2-.8.1-1.2s-.7-.4-.7 0c-.1.5-.3 1-.5 1.5-.2.4.4.7.7.4.4-.6 1.3-1.9.5-2.6-.4-.3-1.1-.5-1.6-.7l-2.1-1c-.5-.1-.8.6-.3.9h0z"/></g><g fill="#fff"><path d="M129.1 13.3c.3.3.7.6.9 1 .4.6.2.9.1 1.5-.1.7-.4 1.5-.3 2.3 0 .1.1.3.2.3.3.1.6 0 .8-.2.1-.1.2-.6.2-.7.1-.6.3-1.1.5-1.6s.5-.9.2-1.3c-.3-.6-1.1-1.1-1.6-1.6-.2.2-.3.4-.5.5.4.3.8.7 1.2 1 .4.4.6.6.5 1.2-.2.8-.6 1.7-.9 2.5-.2.5.5.7.7.3.2-.6.4-1.3.7-1.9.1-.4.4-.9.4-1.4 0-.3-.1-.5-.4-.7-.5-.6-1.2-1-1.8-1.5-.3-.3-.8.2-.5.5.2.3.5.6.8.8.5.5.7.7.5 1.4-.1.5-.3.9-.5 1.4 0 .1-.1.3-.1.4.3.3.5.2.4-.2.2-.3.2-1 .3-1.4.1-.3.2-.8.1-1.1-.1-.6-.9-1.3-1.4-1.7-.3-.6-.9-.1-.5.2h0zm4-1.3l1.1 1.1c.2.2.8.6.9.9s-.3.9-.4 1.2l-.6 1.5c-.1.3.1.5.4.5.4 0 1.3.1 1.7-.2.3-.2.4-.7.6-1 .3-.7.9-1.1 1.3-1.8.2-.3.2-.5 0-.8s-.6-.6-.9-.8c-.5-.4-.9-1.2-1.5-1.6s-1.6.2-2.2.4c-.3.1-.3.6 0 .7 1 .4 1.8 1.2 2.6 2 .3.3.9 0 .6-.4-.4-.7-.8-1.2-1.4-1.8-.3-.3-.8.2-.5.5.3.5.7.9 1.1 1.4.2.3.7.1.7-.3l-.2-.7c-.1-.3-.7-.3-.7.1-.1 1.1-.3 2.2-.6 3.3-.1.4.6.6.7.2l.3-1c.1-.4-.6-.6-.7-.2-.1.2-.2.5-.3.7.2.1.5.1.7.2.1-.2.1-.4.2-.5.3-.4-.3-.8-.6-.4a2.47 2.47 0 0 0-.4.9c-.1.5.5.5.7.2.1-.2.2-.5.3-.7-.2-.1-.5-.1-.7-.2 0 .3-.1.5-.2.8.2.1.5.1.7.2.3-1.1.5-2.2.6-3.3-.2 0-.5.1-.7.1.1.2.1.4.2.5.2-.1.4-.2.7-.3a7.55 7.55 0 0 1-1.1-1.4c-.2.2-.3.4-.5.5.5.4.8.9 1.1 1.5.2-.1.4-.3.6-.4-.9-.9-1.8-1.7-2.9-2.2v.7c.3-.1.9-.4 1.3-.4s.5.3.7.6c.2.2.4.5.7.7.2.2.7.5.8.7.2.5-.7 1.2-1 1.7-.1.2-.2.5-.4.7-.1.4-.3.5-.6.4h-.9c.1.2.3.3.4.5l.7-1.9c.1-.4.4-.8.4-1.2s-.4-.6-.7-.9l-1.6-1.6c-.3-.2-.9.3-.5.6h0zm6.2-1.6l1.3 1.2c.3.2.8.6 1 .9.2.5-.1 1-.3 1.5l-.6 1.7c-.1.2 0 .5.3.5.5 0 1.3.2 1.8 0 .4-.2.7-.7.9-1 .6-.7 1.9-2.1 1.8-3.1-.1-.8-1.4-1.8-2-2.1-.9-.5-2.5-.1-3.5-.1-.3 0-.4.5-.2.7l1.8 1.1c.8.5 1.1 1.1.9 2.1h.7c-.2-1-.1-2.7-1-3.4-.4-.2-.8.2-.5.5.4.6.9.9 1.6 1.1.4.1.5-.4.3-.6-.2-.3-.4-.5-.6-.7v.6c.1-.1.2-.1.3-.2-.2-.1-.4-.3-.5-.4-.1 1-.1 2.5-.6 3.3-.4.5-.7.7-.5 1.5.1.3.6.2.7 0 .2-.4.2-.4.3-.8.1-.5-.6-.6-.7-.1-.2.9 1.1 1.2 1.1.3l-.6.3c-.1.5.6.6.7.1v-.2c0-.1-.1-.3-.1-.3l-.1-.1c-.2-.2-.6 0-.6.3.1-.1.3-.1.4-.1-.2 0-.5-.1-.7-.1-.1.2-.1.4-.2.6h.7c0 .1.7-1.3.7-1.4.2-1 .4-1.9.4-2.9 0-.3-.2-.5-.5-.4s-.3.1-.5.3-.2.4 0 .6c.2.1.4.3.5.5l.3-.6c-.5-.1-.9-.4-1.1-.8-.2.2-.3.4-.5.5.6.4.6 2.2.7 2.9.1.4.7.4.7 0 .2-.7.3-1.5-.2-2.1-.6-.8-1.9-1.3-2.7-1.8-.1.2-.1.5-.2.7l2.1-.1c.9 0 2.3.7 2.4 1.7 0 .7-.6 1.4-1 2-.7.9-1.2 1.3-2.4 1.2.1.2.2.3.3.5.3-.8.5-1.6.9-2.3.2-.3.4-.7.3-1.1s-.6-.7-.9-.9l-2-1.8c-.5-.7-1 0-.6.3h0z"/><path d="M142.1 15.9c.5.1 1.1.3 1.5-.1.6-.5 1.2-1.7 1.5-2.5.1-.4.6-1.3.5-1.8-.2-.6-1.3-1.2-1.8-1.6-.4-.3-.8.3-.4.6s1.1.7 1.3 1.1c.1 0 .1 0 .2.1-.1.1-.1.3-.2.4-.1.2-.1.5-.2.7-.2.6-.5 1.1-.9 1.6-.1.1-.3.7-.5.8-.1 0-.7-.1-.9-.2-.5.1-.6.8-.1.9h0zm4.7-6.1c.2.3.7.7.9 1 .3.6-.1 1.1-.3 1.6l-1.1 2.6c-.1.3.1.6.4.5.7-.1 1.7-.1 2.1-.9.5-1.1.6-2.4 1-3.5.3-.8 0-.9-.7-1.5-.4-.3-.8-.7-1.3-.8-.4-.1-.7.1-1 .2-.4.1-.4.6 0 .8 1.7.9 1.1 3.1.3 4.4-.2.4.3.8.6.4.1-.2.3-.4.4-.5-.2-.1-.5-.2-.7-.3 0 .2-.1.4-.1.6-.1.5.5.7.7.3.1-.3.2-.6.4-.9.2-.4-.5-.7-.7-.3-.1.3-.3.6-.4.9.2.1.5.2.7.3.1-.4.1-.4.1-.8s-.4-.6-.7-.3c-.1.2-.3.4-.4.5.2.1.4.3.6.4 1-1.8 1.6-4.4-.7-5.6.1.4 0 .6-.1.9.8-.1 1.2 0 1.8.5.3.2.4.3.4.6 0 .2-.3.7-.3.9l-.3 1.4c-.3 1.2-.7 1.4-1.8 1.6.1.2.3.3.4.5.3-.7.6-1.3.8-2 .3-.6.8-1.3.9-2 .1-.8-.8-1.4-1.3-2-.3-.4-.9.1-.6.5h0z"/><path d="M146 9.5c.6.7 1.2 1.3 1.9 2 .3.4.9-.1.6-.5-.6-.7-1.2-1.3-1.9-2-.3-.4-.9.1-.6.5h0z"/><path d="M146.5 9.6c.2 0 .5-.1.7-.1.6 0 .8.1 1.3.5.2.2 1 .8 1.1 1.1s-.7 1.2-.8 1.5l-1 1.8c-.2.4.5.7.7.3l1.6-3c.3-.5.4-.7.1-1.1s-.9-.9-1.2-1.2c-.2-.2-.4-.4-.6-.5-.5-.3-1.4-.1-1.9 0-.6 0-.5.7 0 .7h0zM97.9 37.3l-4.1.6 2.1 13.9-4.3.6-2.1-13.9-4.1.6-.6-4.1 12.4-1.8.7 4.1zm13.6 7.1l-8.5 1.3c.1.6.8 1.5 2.6 1.2 1-.1 1.7-.7 2.1-1.4l3.8-.2c0 1.8-1.6 4.8-5.3 5.3-4.1.6-7.1-2.2-7.6-5.8-.5-3.5 1.5-6.9 5.4-7.5 4-.6 6.9 2.2 7.4 5.9l.1 1.2zm-4.7-2.3c-.1-.7-1-1.1-2.3-1-1.3.2-2 .9-1.9 1.6l4.2-.6zm12.7-2.9c-1.2.2-2.6 1.3-2.3 3s1.9 2.4 3.1 2.2c.9-.1 1.7-.4 2.6-1.5l.6 4.1c-.7.7-1.7 1.3-3.4 1.6-3.8.6-7-2.1-7.5-5.7-.5-3.5 1.7-7.1 5.5-7.6 1.6-.2 2.9.1 3.7.5l.6 4c-1.1-.7-2-.8-2.9-.6zm18.4-1.3l1.1 7.6-4.3.6-.8-5.6c-.4-2.7-1.2-3.3-2.6-3.1-1.2.2-2.6 1-2.2 3.6l.9 5.8-4.3.6-1.9-12.8 4.1-.6.5 1.5c1.1-1.3 2.5-2.2 4.2-2.5 3.1-.4 4.8 1.5 5.3 4.9zm1.7 1c-.5-3.7 1.8-7.1 6-7.7s7.4 2 7.9 5.6c.5 3.7-1.8 7.1-5.9 7.7-4.3.6-7.5-2-8-5.6zm9.5-1.4c-.2-1.4-1.3-2.5-3-2.2-1.6.2-2.5 1.6-2.3 3s1.4 2.5 3 2.2c1.8-.3 2.5-1.6 2.3-3zm15-3.1l6.8 6.4-5.3.8-4.1-3.8-1.4 1.8.4 2.8-4.3.6-2.8-19 4.3-.6 1.5 10.5L163 29l6-.9-4.9 6.3zm12.1 5.6l-4.3.6-1.9-12.8 4.3-.6 1.9 12.8zm-6.5-15.6c-.2-1.1.6-2.2 1.7-2.3 1.1-.2 2.2.6 2.3 1.7.2 1.1-.6 2.2-1.7 2.3-1.2.2-2.2-.5-2.3-1.7zm12.3 1.4c2-.3 3.5.4 4.2 1.4l-1.2-7.9 4.3-.6 2.8 19-4.1.6-.5-1.7c-.4 1.1-1.6 2.2-3.6 2.5-3.7.5-6.6-2.1-7.2-5.7-.4-3.7 1.6-7.1 5.3-7.6zm2.1 9.2c1.6-.2 2.4-1.6 2.2-3s-1.3-2.5-3-2.2c-1.6.2-2.5 1.6-2.3 3 .3 1.3 1.5 2.4 3.1 2.2zm13.5-2.5c.1.6 1 .9 2.2.7.5-.1 1.3-.3 1.2-.7-.1-.5-.7-.5-3.3-.7-2.6-.3-4.4-1.3-4.7-3.4-.4-2.5 1.9-4.4 4.7-4.8 3.7-.5 6 1.2 6.4 3.5l-4.3.6c-.1-.7-1-.7-1.4-.6-.5.1-1.1.3-1 .6s.5.3 3.5.8c3.5.5 4.3 2.2 4.5 3.5.4 2.7-2.1 4.4-5.1 4.8-3.6.5-6.4-.5-6.9-3.6l4.2-.7z"/></g></svg>