<svg xmlns="http://www.w3.org/2000/svg" viewBox="0 0 478 150"><defs><style>.cls-1{fill:#c2e1e3;}.cls-2{fill:#ffda83;}</style></defs><title>RetroalimentacioÌn pag completa Ciencia en casa</title><g id="fondos"><path class="cls-1" d="M123.55,120.1c-9.65-7.71-29.82-18.57-39.47-26.28,5.53-6.18,9.43-7.67,16.35-13.66-9.75-5.47-18.39-9.31-28-15.44,5.79-5.56,6.72-5.84,13.21-10.53,1.12-.82,6.74-5.95,8.18-6,1.84,0,3.25,3.21,4.35,4.88,7.19,10.8,17.36,17,24.66,24.24C125,78.25,107.52,92,107.52,92c3.19,7.71,13.21,20.72,16.4,28.43"/><path d="M124.61,119c-12.46-9.77-27-16.51-39.47-26.28v2.12c4.87-5.26,10.9-9,16.35-13.66a1.5,1.5,0,0,0-.31-2.35c-9.32-5.19-19-9.77-28-15.45l.3,2.36a93.18,93.18,0,0,1,10.27-8.41c2.77-2,5.39-4.77,8.31-6.48,2.49-1.46,2.69-.34,4.23,2A62.64,62.64,0,0,0,100,58.15a86.21,86.21,0,0,0,11,10.91c1.85,1.57,3.72,3.11,5.56,4.68,1.52,1.31,4.16,2.89,5.11,4.65-.7-1.29-.57-.41-1.69.82-.84.91-1.76,1.74-2.67,2.58C113.89,85,110.19,88,106.46,91a1.54,1.54,0,0,0-.24,1.82c4.4,10,12,18.37,16.41,28.43.77,1.76,3.35.24,2.59-1.52-4.4-10-12-18.37-16.41-28.43l-.23,1.82c4.66-3.68,9.54-7.41,13.6-11.77,1.09-1.17,2.76-2.7,2.15-4.47s-3.29-3.26-4.5-4.32c-2.18-1.9-4.42-3.72-6.63-5.6-5.07-4.34-10.1-9-13.75-14.61-1.64-2.53-3.23-6.4-6.85-5.3-3.33,1-6.37,4.86-9.14,6.87a114.62,114.62,0,0,0-12.11,9.76,1.51,1.51,0,0,0,.3,2.35c9,5.68,18.69,10.26,28,15.45l-.3-2.36C93.91,83.72,87.9,87.48,83,92.76a1.51,1.51,0,0,0,0,2.12c12.45,9.77,27,16.51,39.46,26.28,1.51,1.18,3.64-.93,2.13-2.12Z"/><path class="cls-1" d="M359.42,95.49c3.48-11.85,5.88-34.63,9.36-46.48,7.81,2.77,10.67,5.82,18.84,10,1.36-11.09,1.65-20.54,3.67-31.78,7.33,3.25,7.94,4,14.74,8.23,1.19.74,8.06,4,8.64,5.31.73,1.69-1.74,4.22-2.86,5.87-7.27,10.75-9.12,22.5-13.09,32,0,2.4-19.41-8.58-19.41-8.58-5.92,5.88-14.17,20.08-20.09,26"/><path d="M360.87,95.89c4.32-15.23,5-31.25,9.36-46.48l-1.85,1.05c6.59,2.46,12.27,6.57,18.48,9.8a1.53,1.53,0,0,0,2.26-1.3c1.24-10.46,1.82-21,3.61-31.38l-2.2.89c6.74,3,12.85,7.08,19.29,10.67,2.33,1.3,3.53,2,2.09,4.81-1.14,2.26-3,4.28-4.2,6.54a86,86,0,0,0-5.65,13.73c-.76,2.28-1.46,4.57-2.21,6.85-.47,1.43-1.32,6.18-2.57,7.13,1.42-1.08-.3-.93-1.2-1.38-1.36-.67-2.82-1.2-4.19-1.85-4-1.93-7.95-4-11.82-6.24a1.54,1.54,0,0,0-1.82.23c-7.64,7.89-12.45,18.08-20.09,26-1.35,1.39.77,3.51,2.12,2.12,7.64-7.88,12.45-18.08,20.09-25.95l-1.82.23a140.12,140.12,0,0,0,15.54,7.92c1.5.62,3.75,1.82,5.34.83,1.07-.66,1.46-2.87,1.82-3.85,1.08-2.92,2-5.92,2.94-8.89,2.25-6.94,4.73-13.93,8.91-20,1.65-2.39,4.47-5.16,2.36-8.06-1.79-2.47-6.1-3.7-8.67-5.18-5-2.84-9.5-5.87-14.75-8.23a1.52,1.52,0,0,0-2.2.9C388,37.44,387.39,48.23,386.12,59l2.25-1.3c-6.46-3.35-12.34-7.53-19.19-10.1a1.54,1.54,0,0,0-1.85,1c-4.32,15.23-5,31.26-9.36,46.48a1.51,1.51,0,0,0,2.9.8Z"/><path class="cls-2" d="M77.1,118.8C70,112,59.41,97.34,52.35,90.58c-4.27,5-5,8.2-9,14.25C38,97.76,34.11,91.38,28.29,84.46c-3.75,5.13-3.87,5.88-6.88,11.46-.52,1-4,5.92-3.83,7,.16,1.45,2.85,2.21,4.28,2.91,9.22,4.51,15.12,11.85,21.59,16.82,1,1.64,9.95-13.54,9.95-13.54,6.38,1.7,17.64,8.2,24,9.9"/><path d="M78.16,117.74c-9-8.77-15.8-19.45-24.75-28.22a1.51,1.51,0,0,0-2.12,0C47.59,94,45.16,99.2,42,104.08h2.59C39.52,97.19,34.82,90,29.35,83.4a1.52,1.52,0,0,0-2.35.3,108,108,0,0,0-6.51,10.76c-1.28,2.31-3.94,5-4.3,7.66s1.84,3.61,3.93,4.62a60.63,60.63,0,0,1,14.2,10c3.51,3.17,8,10.46,12.26,5.51,3.18-3.66,5.65-8.13,8.12-12.29l-1.7.69c8.34,2.44,15.69,7.47,24,9.91,1.85.54,2.65-2.35.79-2.9-8.33-2.43-15.68-7.46-24-9.9a1.52,1.52,0,0,0-1.69.69c-1.88,3.17-3.82,6.32-5.93,9.33-.55.78-1.91,2-2.14,2.86a9.09,9.09,0,0,1-.75.77q2.39.81.15-.57c-2.23-2.83-6-5.35-8.69-7.73a62.8,62.8,0,0,0-9.18-6.88c-1.53-.9-3.63-1.46-5-2.5-1.9-1.41-1.18-1.55,0-3.54,3-5,5.61-10.19,9-14.92l-2.36.3c5.31,6.42,9.86,13.39,14.81,20.07a1.52,1.52,0,0,0,2.59,0c3-4.65,5.25-9.67,8.78-14H51.29c9,8.77,15.8,19.45,24.74,28.22,1.38,1.36,3.51-.76,2.13-2.12Z"/><path class="cls-2" d="M400.9,99.8C408,93,418.59,78.34,425.65,71.58c4.27,5,5,8.2,9,14.25,5.31-7.07,9.23-13.45,15-20.37,3.75,5.13,3.87,5.88,6.88,11.46.52,1,4,5.92,3.83,7-.16,1.45-2.85,2.21-4.28,2.91-9.22,4.51-15.12,11.85-21.59,16.82-1,1.64-9.95-13.54-9.95-13.54-6.38,1.7-17.64,8.2-24,9.9"/><path d="M402,100.86c8.94-8.77,15.79-19.45,24.74-28.22h-2.12c3.52,4.28,5.81,9.3,8.78,14a1.52,1.52,0,0,0,2.59,0c5-6.68,9.5-13.65,14.81-20.07l-2.36-.3c3.43,4.73,6,9.92,9,14.92,1.19,2,1.91,2.13,0,3.54-1.4,1-3.5,1.6-5,2.5a62.8,62.8,0,0,0-9.18,6.88c-2.73,2.38-6.46,4.9-8.69,7.73q-2.24,1.38.15.57a9.09,9.09,0,0,1-.75-.77c-.23-.86-1.59-2.08-2.14-2.86-2.11-3-4.05-6.16-5.93-9.33a1.52,1.52,0,0,0-1.69-.69c-8.34,2.44-15.69,7.47-24,9.9-1.85.54-1.07,3.44.79,2.9,8.34-2.44,15.69-7.47,24-9.91l-1.7-.69c2.47,4.16,4.95,8.62,8.12,12.29,4.29,5,8.76-2.35,12.26-5.51A58.07,58.07,0,0,1,457.39,88c2.24-1.07,4.75-2,4.42-4.84-.28-2.4-2.74-4.9-3.93-7A129.35,129.35,0,0,0,451,64.7a1.52,1.52,0,0,0-2.35-.3c-5.47,6.62-10.17,13.79-15.28,20.68H436c-3.12-4.88-5.55-10.07-9.25-14.56a1.51,1.51,0,0,0-2.12,0c-8.95,8.77-15.8,19.45-24.75,28.22-1.38,1.36.75,3.48,2.13,2.12Z"/></g></svg>