<svg xmlns="http://www.w3.org/2000/svg" viewBox="0 0 451.23 392.87"><defs><style>.cls-1{fill:#ffd982;}.cls-2{fill:#7cc3ca;}</style></defs><title>pantalla landing page</title><g id="Layer_1" data-name="Layer 1"><path class="cls-1" d="M445.09,266.71c-.21-3.91.09-28.64-.3-32.9-1-10.63.7-21.25-.62-33.46-.38-3.57-.45-29.27,0-38.86,1.29-26.88.31-37.44.62-69.7.16-16.84-.16-31.94-3-48.83-1.39-8.2-8.92-14.32-18-14.46C304.68,26.78,147.46,26,31.58,26.09a26.59,26.59,0,0,0-8.26.86A12.25,12.25,0,0,0,17,32.24c-8.83,13.13-9,27.86-8.57,42.12,3.05,93.55-6.92,189-1.82,280.25.27,4.73,15.16,8,15.16,8s298.81,1.66,362.8,3.92,59.59-11,59.59-11C445.09,323.72,447.47,310.93,445.09,266.71Zm-78.44,76.67C309.35,341.43,41.76,340,41.76,340s-13.34-2.84-13.57-6.92C23.62,254.26,32.55,171.81,29.82,91c-.42-12.32-.23-25,7.68-36.39A10.92,10.92,0,0,1,43.18,50a24.8,24.8,0,0,1,7.39-.74c103.77-.1,244.57.58,351.25,2.07,8.09.11,14.84,5.41,16.09,12.48,2.57,14.59,2.85,27.64,2.71,42.19-.28,27.87.6,37-.56,60.21-.41,8.29-.35,30.49,0,33.57,1.18,10.55-.33,19.72.55,28.91.36,3.68.09,25,.27,28.42,2.13,38.2,0,49.25-.85,76.78C420,333.92,424,345.33,366.65,343.38Z"/><path d="M446.59,266.71c-1-22.88-.15-45.86-1-68.74-1-24.55,1-49.11.79-73.66-.11-17.12.38-34.28-.18-51.38a229.76,229.76,0,0,0-2.46-27.47c-1-6.31-3.3-11.6-8.86-15.19-5.88-3.8-12.71-3.29-19.41-3.38q-12.14-.18-24.26-.32-25.4-.33-50.79-.57-106.85-1.07-213.7-1.32-25.32-.06-50.65-.09c-15.86,0-32-.91-47.85.06-15.42,1-20,20.49-21,33.17C6.33,66.88,7,76,7.2,85.09c.23,10.1.31,20.2.3,30.3-.07,40.5-1.78,81-2.91,121.46-.56,20.07-1,40.15-1,60.24q0,14.91.37,29.84.2,7.17.47,14.35c.18,4.31-.31,9.54.7,13.73,1.37,5.68,11.55,8.55,16.62,9.11a44.29,44.29,0,0,0,4.61,0l30.45.18q58.13.38,116.26.85,67,.56,133.9,1.37c17.5.23,35,.48,52.49.84,17.84.36,35.8,1.56,53.63.52,8.28-.49,17.19-1.14,25-4.28,2.68-1.08,5.93-2.68,7.15-5.51,1.3-3,.57-7.68.69-10.67.47-11.91,1.26-23.8,1.55-35.71.37-15-.1-30-.89-45-.1-1.92-3.1-1.93-3,0,1.4,26.62.49,52.87-.61,79.46-.14,3.26.1,6.76-.25,10,0-.37-.07.46-.18.67-1.61,3-5.62,4.19-8.62,5.07-18.73,5.5-39.49,3.38-58.73,2.86-14.29-.38-28.59-.62-42.89-.84q-61.81-1-123.64-1.42-61.5-.56-123-1l-43.07-.28c-6.68,0-13.49.31-20.16-.12a3.2,3.2,0,0,1-1.16-.15c-3.67-.72-10.57-2.3-12.72-5.57-1.87-2.84-.93-9.76-1.07-13.17-.19-4.78-.36-9.56-.48-14.35Q6.62,313.45,6.62,299c-.08-39,1.49-78,2.65-117,.57-19.28,1.05-38.56,1.19-57.85.14-19.1-.71-38.18-.69-57.28,0-9,.86-18,4.42-26.36,1.76-4.13,4-8.88,8-11.22S31.42,27.59,36,27.58q23.19,0,46.38,0,102.09.11,204.18.92,49.89.39,99.79,1,11.82.14,23.65.3c7.56.1,16.65-1.21,23.3,3.05,8.06,5.17,8,15.83,8.85,24.35.9,9.26,1.16,18.57,1.16,27.87q0,41.49-.85,82.91c-.47,23.93.7,47.84,1,71.75.11,9-.27,18,.12,27C443.68,268.64,446.68,268.65,446.59,266.71Z"/><path d="M366.65,341.88c-26.63-.9-53.29-1.09-79.92-1.41q-57.51-.69-115-1.1-49.11-.37-98.24-.68l-26.73-.16c-1.57,0-3.22.13-4.78,0-.29,0-2.91-.71-4.16-1.1A25.43,25.43,0,0,1,31.74,335c-3.28-2-2.38-7.82-2.54-11.34-3-68.15,2.94-136.28,2.64-204.44q-.06-13.12-.46-26.24c-.23-7.51-.5-15.1,1-22.5C33.85,63.54,37.21,53,45,51.12c6.45-1.56,14.67-.34,21.29-.34q42.39,0,84.78.13,90.72.27,181.43,1.13,21.54.23,43.08.48l20.21.26c7.38.1,15.46.23,19.42,7.71,1.73,3.29,1.93,7.41,2.4,11,.57,4.46,1,8.93,1.21,13.42.45,8.31.36,16.62.3,24.94-.08,12.21.19,24.41.08,36.62-.1,11-.8,21.91-.87,32.87-.07,10,.72,20,.73,30q0,31.5,1,63,.54,17-.26,33.9c-.43,9.27-.18,18.93-1.21,28.12,0-.06.07.07-.05.34a5.57,5.57,0,0,1-1.35,1.68c-3.43,3-9.34,3.66-13.6,4.31-12.16,1.84-24.67,1.6-36.93,1.21-1.93-.06-1.93,2.94,0,3,12.4.39,25,.56,37.28-1.25,4.85-.72,10.52-1.62,14.61-4.56a6.59,6.59,0,0,0,3-4.62c1-6.56.48-13.8.83-20.47,1.17-22.6-.11-45-.1-67.58,0-21.53-1.09-43-1-64.53,0-11.38.73-22.73.86-34.11.15-12.94-.14-25.88-.05-38.82.07-8.6.12-17.2-.42-25.79-.44-7-.54-15.48-3-22.12-4.45-12.12-17.76-11.19-28.31-11.33q-93.06-1.22-186.14-1.58-46.53-.23-93.08-.31-21.69,0-43.38,0c-7,0-14.09-.46-21,.12-5.38.45-8.73,3-11.56,7.43-8.1,12.81-7.07,28-6.69,42.45.46,17.85.39,35.71.06,53.56-.66,35.7-2.37,71.37-3,107.07-.31,17.93-.35,35.86.19,53.79q.18,6.18.46,12.36c.14,2.88-.43,7,.69,9.68,1.37,3.22,5.65,4.58,8.69,5.62,5.36,1.82,9.75,1.67,15.33,1.7q41.13.22,82.26.53,60.25.42,120.5,1c32.9.34,65.8.65,98.7,1.39,4.74.11,9.49.23,14.24.39C368.58,344.94,368.58,341.94,366.65,341.88Z"/><path class="cls-2" d="M24.67,36.92A7.65,7.65,0,0,0,27,51.06a7.6,7.6,0,0,0,6.64-13,7.3,7.3,0,0,0-9-1.17"/><path d="M24.29,36.28A8.56,8.56,0,0,0,21,47.38a8.32,8.32,0,1,0,3.26-11.1c-.85.46-.09,1.76.75,1.29,7.7-4.24,14.45,7.69,6.69,12A6.83,6.83,0,0,1,22.52,47,7,7,0,0,1,25,37.57c.81-.52.06-1.82-.75-1.29Z"/><path class="cls-2" d="M23.31,37.93l9.93,11.59"/><path d="M22.78,38.46l9.93,11.59c.63.74,1.68-.33,1.06-1.06L23.84,37.4c-.63-.73-1.68.33-1.06,1.06Z"/><path class="cls-2" d="M17.86,339.37a7.64,7.64,0,0,0,2.37,14.13,7.6,7.6,0,0,0,6.65-13,7.3,7.3,0,0,0-9-1.17"/><path d="M17.48,338.72c-3.65,2.37-5.38,7.1-3.25,11.1a8.31,8.31,0,1,0,3.25-11.1c-.84.47-.09,1.76.76,1.3,7.7-4.24,14.45,7.68,6.69,12a6.82,6.82,0,0,1-9.21-2.57A7,7,0,0,1,18.24,340c.81-.53.06-1.83-.76-1.3Z"/><path class="cls-2" d="M16.51,340.38,26.43,352"/><path d="M16,340.91,25.9,352.5c.63.73,1.69-.33,1.06-1.06L17,339.85c-.63-.74-1.69.33-1.06,1.06Z"/><path class="cls-2" d="M421.48,39.29a7.64,7.64,0,1,0,9,1.17,7.29,7.29,0,0,0-9-1.17"/><path d="M421.1,38.64a8.57,8.57,0,0,0-3.26,11.11,8.32,8.32,0,1,0,3.26-11.11c-.85.47-.09,1.76.76,1.3,7.69-4.24,14.45,7.69,6.68,12a6.83,6.83,0,0,1-9.21-2.57,7,7,0,0,1,2.53-9.38c.8-.53.05-1.83-.76-1.3Z"/><path class="cls-2" d="M420.12,40.3l9.93,11.59"/><path d="M419.59,40.83l9.93,11.59c.63.73,1.69-.33,1.06-1.06l-9.93-11.59c-.62-.74-1.68.33-1.06,1.06Z"/><path class="cls-2" d="M425.23,341a7.64,7.64,0,1,0,9,1.16,7.28,7.28,0,0,0-9-1.16"/><path d="M424.85,340.3c-3.65,2.37-5.38,7.1-3.25,11.1a8.31,8.31,0,1,0,3.25-11.1c-.84.46-.09,1.76.76,1.29,7.7-4.23,14.45,7.69,6.69,12a6.83,6.83,0,0,1-9.21-2.57,7,7,0,0,1,2.52-9.39c.81-.52.05-1.82-.76-1.29Z"/><path class="cls-2" d="M423.88,342l9.92,11.59"/><path d="M423.35,342.49l9.92,11.59c.63.73,1.69-.34,1.06-1.06l-9.92-11.59c-.63-.74-1.69.33-1.06,1.06Z"/></g></svg>