<svg xmlns="http://www.w3.org/2000/svg" viewBox="0 0 381.28 380.33"><defs><style>.cls-1{fill:#f7c402;}.cls-2{fill:#fadc67;}.cls-3{fill:#e1262f;}.cls-4{fill:#e76969;}.cls-5{fill:#fff;}</style></defs><title>Mblok mapa conceptual</title><g id="gráficos"><rect class="cls-1" x="4.14" y="3.67" width="373" height="373" rx="23.02" ry="23.02"/><path d="M354.12,375.17H33.62c-7.27,0-14.13.11-20.23-5-7.09-5.91-7.75-13.81-7.75-22.12V63.81c0-12.34-.38-24.75,0-37.09C6.06,13,17,5.17,29.81,5.17h278.9c14.84,0,29.68-.14,44.51,0,12.75.11,22.3,9.5,22.42,22.3,0,4.81,0,9.62,0,14.43V350.79c0,12.86-7.62,24-21.52,24.38-1.93.05-1.93,3.05,0,3,14.41-.44,24.44-11.7,24.52-25.81,0-5.5,0-11,0-16.51V71.73c0-14.8.15-29.62,0-44.42A24.94,24.94,0,0,0,354,2.17c-4-.09-8,0-12.06,0H29.62c-11.38,0-21.84,5.32-25.7,16.72C2.25,23.8,2.64,29.14,2.64,34.26v314.1c0,7.21.37,14,5,20.15,5.85,7.69,14.43,9.66,23.46,9.66h323A1.5,1.5,0,0,0,354.12,375.17Z"/><rect class="cls-2" x="27.63" y="27.15" width="326.03" height="326.03" rx="23.02" ry="23.02"/><path d="M330.64,351.68H74.24c-12,0-30.23,2.95-39.27-6.77-8.71-9.38-5.84-27.12-5.84-38.94V152.58c0-34.08-1.06-68.34,0-102.41.41-13.42,11-21.52,23.74-21.52H293.44c12.23,0,24.5-.3,36.73,0,12.51.31,21.85,9.62,22,22.19.05,4.16,0,8.32,0,12.48V328.13c0,12.66-8.23,23.15-21.51,23.55-1.93.06-1.94,3.06,0,3,14-.42,24.37-11.28,24.51-25.19.05-4.31,0-8.63,0-12.94v-227c0-12.94.25-25.89,0-38.82-.26-13.81-10.57-24.68-24.52-25-3-.08-6,0-8.95,0h-269c-9.9,0-19.11,4.13-23.83,13.3-2.72,5.29-2.71,10.73-2.71,16.43V325.53c0,6.4.33,12.5,4,18.12,5.26,8,13.78,11,22.9,11H330.64A1.5,1.5,0,0,0,330.64,351.68Z"/><path class="cls-3" d="M227.15,80.71,231,95.09c1.73,6.56-3.6,13.65-11.91,15.85L155.7,127.67c-8.31,2.19-16.44-1.34-18.18-7.9l-3.79-14.38c-1.74-6.55-9.87-10.09-18.18-7.9l-26.6,7c-8.31,2.2-13.64,9.29-11.91,15.85l30.07,113.82c1.73,6.56,9.87,10.1,18.18,7.9l26.6-7c8.31-2.19,16.45,1.35,18.18,7.9l3.36,12.72c1.73,6.56,9.87,10.1,18.17,7.9L255,246.85c8.3-2.2,13.63-9.29,11.9-15.85l-3.36-12.72c-1.73-6.55,3.6-13.65,11.91-15.84l26.6-7c8.31-2.19,13.64-9.29,11.9-15.85L283.84,65.74c-1.74-6.56-9.88-10.09-18.18-7.9l-26.61,7C230.75,67.06,225.42,74.16,227.15,80.71Z"/><path d="M225.7,81.11l2.15,8.12c.82,3.1,2.39,6.87,1.75,10.11-1.46,7.47-9,9.64-15.38,11.32L171.3,122c-5,1.31-10,2.68-15,4a18.56,18.56,0,0,1-10.52.09c-5.08-1.68-6.58-5.67-7.8-10.27-1.67-6.32-2.34-14.22-8.41-18-6.44-4-13.41-2-20.13-.25-10.94,2.89-36.06,5.3-34.17,21.66.85,7.39,3.83,15,5.72,22.13l22.55,85.34c.68,2.58,1.24,5.23,2,7.77,2.6,8.21,11.44,10.9,19.28,9.26,5.84-1.22,11.6-3,17.37-4.56,7.3-1.93,17.05-6,23.52-.14,5.3,4.81,3.9,13.76,7.27,19.74,3.88,6.89,12.66,7.83,19.6,6.1,12.44-3.11,24.81-6.55,37.21-9.83l20-5.27c4.41-1.16,8.91-2.07,12.63-4.91,7.31-5.58,6.33-12.38,4.28-20.12-.85-3.24-2.57-7.28-1.9-10.68,1.08-5.57,6.43-8.89,11.49-10.3,6.5-1.81,13.06-3.45,19.59-5.17,6.34-1.68,13-3,17.08-8.7,5.26-7.25.74-16.82-1.3-24.52L288.84,78.83c-2-7.79-2.83-18.19-11.23-21.77-6.82-2.9-13.84-.27-20.55,1.5-6.09,1.61-12.25,3-18.29,4.83-7.91,2.34-14.84,8.9-13.07,17.72.38,1.89,3.28,1.09,2.9-.79-2.09-10.39,9.21-13.57,16.92-15.61,6.5-1.72,13-3.5,19.5-5.15,7.19-1.82,15.21-.47,17.59,7.43.95,3.14,1.69,6.37,2.52,9.54L307,159.39c1.79,6.77,4.21,13.66,5.44,20.57,1.77,10-8.46,13.37-16.13,15.4-6.62,1.74-13.25,3.44-19.86,5.24-6.78,1.85-13.83,6.12-14.7,13.79-.64,5.61,2.53,11.5,3.61,16.92,2.8,14.09-20.47,16.64-29.87,19.12L195.13,261.1c-6.61,1.74-15.45,3.39-19.47-3.86-2.81-5.08-2.38-11.59-5-16.79-7-13.95-28.1-4.48-38.91-1.63-7.88,2.08-19.75,5.47-23.23-5-.62-1.85-1-3.82-1.51-5.71l-21.22-80.3c-2.36-9-5-17.91-7.12-27-3.39-14.89,19.55-17.21,29.48-19.83,7.42-2,18.49-5.83,23.3,2.85,2.67,4.82,2.87,11.12,4.59,16.33,4.63,14,20.47,8.83,30.83,6.09L209.37,115c10.23-2.7,25.92-6.13,23-20.35-1-4.83-2.53-9.61-3.79-14.37A1.5,1.5,0,0,0,225.7,81.11Z"/><path class="cls-4" d="M200.25,87.82l3.8,14.37c1.73,6.56-3.6,13.66-11.91,15.85L128.8,134.77c-8.31,2.2-16.44-1.34-18.18-7.9l-3.79-14.37c-1.74-6.56-9.87-10.09-18.18-7.9l-26.6,7c-8.31,2.19-13.64,9.29-11.91,15.84L80.21,241.3c1.73,6.55,9.87,10.09,18.18,7.9l26.6-7c8.31-2.19,16.45,1.34,18.18,7.9l3.36,12.72c1.73,6.55,9.87,10.09,18.17,7.9L228.05,254c8.3-2.19,13.63-9.29,11.9-15.84l-3.36-12.72c-1.73-6.56,3.6-13.65,11.91-15.85l26.6-7c8.31-2.2,13.64-9.29,11.9-15.85L256.94,72.85c-1.74-6.56-9.88-10.1-18.18-7.9l-26.61,7C203.85,74.17,198.52,81.26,200.25,87.82Z"/><path d="M198.8,88.22,201,96.34c.82,3.09,2.39,6.86,1.75,10.1-1.46,7.47-9,9.65-15.38,11.33L144.4,129.1c-5,1.32-10,2.68-15,4a18.38,18.38,0,0,1-10.52.09c-5.08-1.68-6.58-5.66-7.8-10.26-1.67-6.33-2.34-14.22-8.41-18-6.44-4-13.41-2-20.13-.25-10.94,2.89-36.06,5.31-34.17,21.66.85,7.4,3.83,15,5.72,22.14l22.55,85.34c.68,2.58,1.24,5.23,2,7.77,2.6,8.2,11.44,10.9,19.28,9.26,5.84-1.23,11.6-3,17.37-4.56,7.3-1.93,17.05-6,23.52-.15,5.3,4.81,3.9,13.77,7.27,19.75,3.88,6.88,12.66,7.83,19.6,6.1,12.44-3.11,24.81-6.56,37.21-9.83l20-5.27c4.41-1.17,8.91-2.07,12.63-4.91,7.31-5.58,6.33-12.38,4.28-20.12-.85-3.25-2.57-7.29-1.9-10.69,1.08-5.56,6.43-8.88,11.49-10.29,6.5-1.81,13.06-3.45,19.59-5.18,6.34-1.67,13-3,17.08-8.69,5.26-7.25.74-16.82-1.3-24.52L261.94,85.93c-2.05-7.79-2.83-18.19-11.23-21.76-6.82-2.91-13.84-.28-20.55,1.49-6.09,1.61-12.25,3-18.29,4.84C204,72.83,197,79.39,198.8,88.22c.38,1.89,3.28,1.09,2.9-.8-2.09-10.38,9.21-13.57,16.92-15.6,6.5-1.72,13-3.5,19.5-5.15,7.19-1.83,15.21-.47,17.59,7.43,1,3.14,1.69,6.37,2.52,9.54l21.89,82.85c1.79,6.78,4.21,13.67,5.44,20.57,1.77,10.05-8.46,13.38-16.13,15.4-6.62,1.75-13.25,3.45-19.86,5.25-6.78,1.84-13.83,6.11-14.7,13.79-.64,5.61,2.53,11.49,3.61,16.91,2.8,14.1-20.47,16.64-29.87,19.13L168.23,268.2c-6.61,1.75-15.45,3.39-19.47-3.86-2.81-5.07-2.38-11.59-5-16.78-7-13.95-28.1-4.49-38.91-1.63-7.88,2.08-19.75,5.47-23.23-5-.62-1.86-1-3.82-1.51-5.71l-21.22-80.3c-2.36-9-5-17.92-7.12-27C48.42,113,71.36,110.72,81.29,108.09c7.42-2,18.49-5.83,23.3,2.86,2.67,4.81,2.87,11.12,4.59,16.32,4.63,14,20.47,8.83,30.83,6.1l42.46-11.22c10.23-2.7,25.92-6.14,23-20.35-1-4.84-2.53-9.61-3.79-14.38A1.51,1.51,0,0,0,198.8,88.22Z"/><path class="cls-5" d="M160.88,186.67l28.69-7.48a63,63,0,0,1-.12,13c-.79,7-3.89,15.09-10.78,16.77-5.32,1.29-10.9-2-13.95-6.56s-4.14-10.08-5.16-15.45"/><path d="M161.28,188.12,190,180.64l-1.9-1.45c.66,8.25,1.19,21.78-6.86,27-5.75,3.71-12.3-.08-15.63-5.21-2.75-4.24-3.64-9.52-4.57-14.4-.37-1.9-3.26-1.09-2.9.79,1.94,10.12,7.72,27,21.58,22.87,12-3.61,12.17-21.19,11.38-31a1.51,1.51,0,0,0-1.9-1.44l-28.69,7.48c-1.87.48-1.07,3.38.8,2.89Z"/><path d="M196,151.67a5.44,5.44,0,0,0,2.47,7.31c2.79,1.4,6.23-.06,7.77-2.63,2.94-4.87-1.18-11.59-6.88-11-6,.64-8.91,7.95-4.55,12.33a7.05,7.05,0,0,0,7.87,1.62,6.21,6.21,0,0,0,3.6-7.21c-1-3.73-6.75-2.15-5.78,1.6,0,.08.26-.31.05-.11a1,1,0,0,1-.62.37,1.57,1.57,0,0,1-.87-.51,1.21,1.21,0,0,1,.59-2.08c.83-.28,1.46.38,1.57,1.2,0,.35-.3.64-.32.9-.21.1-.25.12-.12.08a.31.31,0,0,1,.36.07c.06.77.84-.77,0,1.06a3.09,3.09,0,0,0-1.07-4.1c-1.27-.74-3.46-.42-4.11,1.08Z"/><path d="M132.09,168.54a5.45,5.45,0,0,0,2.47,7.32c2.79,1.4,6.23-.06,7.78-2.63,2.93-4.88-1.19-11.6-6.89-11a7.28,7.28,0,0,0-4.54,12.33,7,7,0,0,0,7.86,1.62,6.21,6.21,0,0,0,3.6-7.21c-1-3.73-6.75-2.15-5.78,1.6,0,.07.26-.31,0-.11a1,1,0,0,1-.62.36c-.29,0-.7-.33-.87-.5a1.21,1.21,0,0,1,.59-2.08c.83-.28,1.47.37,1.57,1.2,0,.35-.3.63-.31.89-.22.1-.26.13-.12.08a.32.32,0,0,1,.35.07c.07.77.84-.76.05,1.07a3.1,3.1,0,0,0-1.08-4.1c-1.27-.74-3.46-.42-4.11,1.07Z"/><path class="cls-5" d="M271.51,273.71c18.19,2.69,37.66,7.12,58.36,9.57l-19.52,18.8q8.29,9.76,17.14,19c-6,5.08-9.59,9.26-15.56,14.34-5.33-5.49-12.48-13.59-17.23-19.59-7,5.17-12.9,9.59-18.44,13.95-1.88-23.15-1.83-34-4.75-56.09"/><path d="M271.11,275.16c19.64,2.95,39,7.22,58.76,9.62l-1.06-2.57L309.29,301a1.54,1.54,0,0,0,0,2.12q8.32,9.75,17.14,19V320c-5.33,4.62-10.22,9.72-15.56,14.34H313c-6-6.26-11.8-12.8-17.23-19.59a1.51,1.51,0,0,0-1.82-.23c-6.29,4.67-12.57,9.35-18.75,14.18l2.57,1.06c-1.5-18.72-2.32-37.46-4.75-56.09-.24-1.89-3.25-1.91-3,0,2.43,18.63,3.25,37.37,4.75,56.09a1.52,1.52,0,0,0,2.56,1.06c6-4.67,12.05-9.19,18.14-13.71l-1.82-.24c5.43,6.79,11.2,13.33,17.23,19.59a1.54,1.54,0,0,0,2.12,0c5.34-4.62,10.23-9.72,15.56-14.34a1.51,1.51,0,0,0,0-2.12q-8.82-9.29-17.14-19v2.12l19.53-18.8a1.52,1.52,0,0,0-1.07-2.56c-19.45-2.36-38.59-6.6-58-9.52-1.89-.28-2.7,2.61-.8,2.9Z"/><path d="M300.19,259.52l1.09-19c.11-1.93-2.89-1.93-3,0l-1.09,19c-.12,1.93,2.89,1.92,3,0Z"/><path d="M312.33,266.76l11.09-13c1.25-1.46-.86-3.59-2.12-2.12l-11.09,13c-1.25,1.46.86,3.6,2.12,2.12Z"/><path d="M278.58,248.54a46,46,0,0,1,4.6,11.77c.45,1.88,3.34,1.08,2.89-.8a49,49,0,0,0-4.9-12.49c-.94-1.68-3.54-.17-2.59,1.52Z"/></g></svg>