<svg xmlns="http://www.w3.org/2000/svg" viewBox="0 0 381.28 380.33"><defs><style>.cls-1{fill:#ed7d82;}.cls-2{fill:#f8dad4;}.cls-3{fill:#e66869;}.cls-4{fill:#f7c402;}.cls-5{fill:#4386c6;}.cls-6{fill:#fff;}</style></defs><title>Mblok mapa conceptual</title><g id="gráficos"><rect class="cls-1" x="4.14" y="3.66" width="373" height="373" rx="23.02" ry="23.02"/><path d="M354.12,375.16H33.62c-7.27,0-14.13.12-20.23-5-7.09-5.91-7.75-13.81-7.75-22.12V63.81c0-12.34-.38-24.75,0-37.09C6.06,13,17,5.16,29.81,5.16h278.9c14.84,0,29.68-.13,44.51,0,12.75.12,22.3,9.51,22.42,22.31,0,4.81,0,9.62,0,14.43V350.79c0,12.86-7.62,24-21.52,24.37-1.93.06-1.93,3.06,0,3,14.41-.43,24.44-11.69,24.52-25.8,0-5.5,0-11,0-16.51V71.73c0-14.8.15-29.62,0-44.42A25,25,0,0,0,354,2.16c-4-.08-8,0-12.06,0H29.62c-11.38,0-21.84,5.33-25.7,16.73C2.25,23.8,2.64,29.14,2.64,34.26v314.1c0,7.21.37,14,5,20.15,5.85,7.69,14.43,9.65,23.46,9.65h323A1.5,1.5,0,0,0,354.12,375.16Z"/><rect class="cls-2" x="27.63" y="29.15" width="326.03" height="326.03" rx="23.02" ry="23.02"/><path d="M330.64,353.68H74.24c-12,0-30.23,2.95-39.27-6.77-8.71-9.38-5.84-27.12-5.84-38.94V154.58c0-34.08-1.06-68.34,0-102.41.41-13.42,11-21.52,23.74-21.52H293.44c12.23,0,24.5-.3,36.73,0,12.51.31,21.85,9.62,22,22.19.05,4.16,0,8.32,0,12.48V330.13c0,12.66-8.23,23.15-21.51,23.55-1.93.06-1.94,3.06,0,3,14-.42,24.37-11.28,24.51-25.19.05-4.31,0-8.63,0-12.94v-227c0-12.94.25-25.89,0-38.82-.26-13.81-10.57-24.68-24.52-25-3-.08-6,0-8.95,0h-269c-9.9,0-19.11,4.13-23.83,13.3-2.72,5.29-2.71,10.73-2.71,16.43V327.53c0,6.4.33,12.5,4,18.12,5.26,8,13.78,11,22.9,11H330.64A1.5,1.5,0,0,0,330.64,353.68Z"/><circle class="cls-3" cx="190.64" cy="90.16" r="35.35"/><path d="M214.58,114.1a33.85,33.85,0,1,1,4.29-42.63c8.94,13.45,6.73,31.15-4.29,42.63-1.34,1.4.78,3.52,2.12,2.12,10.58-11,13.88-27.33,7.46-41.38a36.85,36.85,0,1,0-54.31,45.75c14.62,10.08,34.23,7.75,46.85-4.37C218.09,114.88,216,112.76,214.58,114.1Z"/><circle class="cls-4" cx="190.64" cy="186.16" r="35.35"/><path d="M214.58,210.1a33.85,33.85,0,1,1,4.29-42.63c8.94,13.45,6.73,31.15-4.29,42.63-1.34,1.4.78,3.52,2.12,2.12,10.58-11,13.88-27.33,7.46-41.38a36.85,36.85,0,1,0-54.31,45.75c14.62,10.08,34.23,7.75,46.85-4.37C218.09,210.88,216,208.76,214.58,210.1Z"/><circle class="cls-5" cx="89.07" cy="186.16" r="35.35"/><path d="M113,210.1a33.85,33.85,0,1,1,4.29-42.63c8.94,13.45,6.73,31.15-4.29,42.63-1.34,1.4.78,3.52,2.12,2.12,10.58-11,13.88-27.33,7.46-41.38a36.85,36.85,0,1,0-54.31,45.75c14.62,10.08,34.23,7.75,46.85-4.37C116.52,210.88,114.4,208.76,113,210.1Z"/><circle class="cls-3" cx="290.21" cy="186.16" r="35.35"/><path d="M314.15,210.1a33.85,33.85,0,1,1,4.29-42.63c8.94,13.45,6.73,31.15-4.29,42.63-1.34,1.4.78,3.52,2.12,2.12,10.58-11,13.88-27.33,7.46-41.38a36.85,36.85,0,1,0-54.31,45.75c14.62,10.08,34.23,7.75,46.85-4.37C317.66,210.88,315.54,208.76,314.15,210.1Z"/><circle class="cls-4" cx="90.57" cy="90.17" r="35.35"/><path d="M114.51,114.1a33.85,33.85,0,1,1,4.29-42.63c8.94,13.45,6.73,31.15-4.29,42.63-1.34,1.4.78,3.52,2.12,2.12,10.58-11,13.88-27.33,7.46-41.38a36.85,36.85,0,1,0-54.31,45.75c14.62,10.08,34.23,7.75,46.85-4.37C118,114.88,115.9,112.76,114.51,114.1Z"/><circle class="cls-5" cx="291.71" cy="90.16" r="35.35"/><path d="M315.65,114.1a33.85,33.85,0,1,1,4.29-42.63c8.94,13.45,6.73,31.15-4.29,42.63-1.34,1.4.78,3.52,2.12,2.12,10.58-11,13.88-27.33,7.46-41.38a36.85,36.85,0,1,0-54.31,45.75c14.62,10.08,34.23,7.75,46.85-4.37C319.16,114.88,317,112.76,315.65,114.1Z"/><circle class="cls-5" cx="190.64" cy="290.16" r="35.35"/><path d="M214.58,314.1a33.85,33.85,0,1,1,4.29-42.63c8.94,13.45,6.73,31.15-4.29,42.63-1.34,1.4.78,3.52,2.12,2.12,10.58-11,13.88-27.33,7.46-41.38a36.85,36.85,0,1,0-54.31,45.75c14.62,10.08,34.23,7.75,46.85-4.37C218.09,314.88,216,312.76,214.58,314.1Z"/><path class="cls-6" d="M80.56,114.63a.87.87,0,0,1-.82-.15,1.54,1.54,0,0,1-.43-.7,3.42,3.42,0,0,1-.18-.9,5.68,5.68,0,0,0-.09-.76l.06-12.66c-1.52,0-3.13,0-4.84,0a47,47,0,0,1-4.9-.36,4.22,4.22,0,0,0-.24-.58s-.08,0-.23,0-.2,0-.12,0c0-.42-.1-1.23-.17-2.42s-.16-2.45-.24-3.79-.16-2.62-.26-3.82-.17-2-.2-2.46v-.52a2,2,0,0,1,.55-1.4A3.08,3.08,0,0,1,70,83.23a14.32,14.32,0,0,0,4.46-.11,25,25,0,0,1,4.35-.41l.93,0a1.29,1.29,0,0,0,.88-.26v-1c0-1.2,0-2.27,0-3.18s-.05-1.8-.09-2.66-.07-1.73-.09-2.62,0-2,0-3.21v-.67q0-.49,0-1t0-1v-.68A.44.44,0,0,1,81,66a11.17,11.17,0,0,1,2,.26c.27,0,.73-.08,1.37-.12l2-.14,2-.18c.64-.06,1.08-.11,1.31-.15l1,0c.53,0,1.09,0,1.7,0s1.14,0,1.63,0l.85,0h2.51a9.24,9.24,0,0,0,1-.06l1.28.82c0,.19,0,.5,0,.9a3,3,0,0,0,.15.91,1.3,1.3,0,0,1,0,.5,4,4,0,0,0-.06.49,13.86,13.86,0,0,1,.2,1.43,6.9,6.9,0,0,1,0,.91q0,.41-.06.93c0,.35,0,.88,0,1.58,0,.34,0,.85,0,1.51s0,1.4.06,2.19,0,1.62.06,2.45,0,1.61,0,2.31a.46.46,0,0,0,.18.41.94.94,0,0,0,.49.11c.22,0,.43,0,.64,0s.4,0,.56,0h.29a15.88,15.88,0,0,1,4-.47h4.14l.53,0c.23,0,.46,0,.7,0h.93l.35,1.63c0,1.67,0,3.28,0,4.81a23.28,23.28,0,0,0,.38,4.94v3.67a1.12,1.12,0,0,1-.29.82,1.86,1.86,0,0,1-.67.44,5.79,5.79,0,0,1-.85.23,5.9,5.9,0,0,0-.81.21l-1.7.29-7.35-.06-.12,4.14V105c0,.68,0,1.48,0,2.39s0,1.84,0,2.77v2.28c0,.66-.2,1-.61,1.14s-.92.2-1.54.32Z"/><path d="M81,113.18c-1.22-.22-.36-12.31-.36-13.72A1.5,1.5,0,0,0,79.1,98a79.15,79.15,0,0,1-9.74-.36l1.44,1.11-.23-.59A1.61,1.61,0,0,0,69.12,97h0l1.1,1.44c-.16-2.07-.28-4.14-.41-6.21-.08-1.27-1-5.15-.46-6.28,1.24-2.44,9.1-1.3,11.62-2a1.54,1.54,0,0,0,1.1-1.45c0-3.4-.14-6.79-.15-10.19,0-.71-.47-4.71.09-5.24-.59.56,3.3.53,3.37.53,3.26-.26,6.4-.32,9.68-.29a15,15,0,0,1,2.32,0c1.52.27.78-.14,1,1.06.41,2.71.1,5.66.16,8.41,0,1.78-.73,5.79.56,7.22.87,1,2.38.71,3.56.59a98.44,98.44,0,0,1,9.87-.35L111.1,83.1c.64,3,.14,6.19.39,9.27.21,2.56,1.12,4.65-1.27,5.64s-6.16.2-8.65.18a1.52,1.52,0,0,0-1.5,1.5c-.07,2.56-.12,5.11-.15,7.67,0,4.17.11,5-3.79,5.14l-15.57.63c-1.92.08-1.93,3.08,0,3,6.06-.25,12.24-.13,18.27-.74,3.37-.35,4-1.33,4.06-4.62.06-3.7.08-7.39.18-11.08l-1.5,1.5c3.17,0,9.46,1.1,12.14-1.32,1.43-1.29,1.12-3.74,1-5.49-.19-3.94.08-8.2-.75-12.07a1.52,1.52,0,0,0-1.45-1.1,91.12,91.12,0,0,0-9.2.17c-2.13.22-1.44.74-1.7-1a42.05,42.05,0,0,1-.15-6.15c0-4.22,1.26-9.49-4.06-9.91a67.42,67.42,0,0,0-7.65-.12c-1.78.08-3.55.42-5.34.47-1,0-3-.5-4,0-2,1-1.42,3.29-1.45,5.2-.06,4.22.12,8.44.12,12.66L80.22,81C76.56,82.12,69.28,79.89,67,83.65c-1.09,1.81-.45,4-.3,6,.21,2.94.34,5.88.57,8.81a1.56,1.56,0,0,0,1.1,1.45,6.46,6.46,0,0,0,.75.11l-1.44-1.1.23.58a1.58,1.58,0,0,0,1.45,1.1,79.15,79.15,0,0,0,9.74.36l-1.5-1.5c0,3.31-2.15,15.78,2.56,16.61C82.05,116.41,82.86,113.52,81,113.18Z"/><circle class="cls-3" cx="89.57" cy="290.16" r="35.35"/><path d="M113.51,314.1a33.85,33.85,0,1,1,4.29-42.63c8.94,13.45,6.73,31.15-4.29,42.63-1.34,1.4.78,3.52,2.12,2.12,10.58-11,13.88-27.33,7.46-41.38a36.85,36.85,0,1,0-54.31,45.75c14.62,10.08,34.23,7.75,46.85-4.37C117,314.88,114.9,312.76,113.51,314.1Z"/><circle class="cls-4" cx="290.71" cy="290.16" r="35.35"/><path d="M314.65,314.1a33.85,33.85,0,1,1,4.29-42.63c8.94,13.45,6.73,31.15-4.29,42.63-1.34,1.4.78,3.52,2.12,2.12,10.58-11,13.88-27.33,7.46-41.38a36.85,36.85,0,1,0-54.31,45.75c14.62,10.08,34.23,7.75,46.85-4.37C318.16,314.88,316,312.76,314.65,314.1Z"/><path class="cls-6" d="M271.35,296.53a3.66,3.66,0,0,1-.06-1.15,5.53,5.53,0,0,0,0-1.15q0-.17,0-.78c0-.41,0-.86.08-1.35s.07-.93.09-1.35,0-.67,0-.78c0-1.12,0-2.24-.11-3.34a19.93,19.93,0,0,1,.06-3.28,1.85,1.85,0,0,1,.89-1.43,3.25,3.25,0,0,1,1.58-.65c.15,0,.49,0,1,.11s1.14.14,1.77.2,1.24.1,1.8.14l1,.06h1l1.63,0,1.62,0h.93c.11,0,.39,0,.84.08s.95.11,1.49.14l1.51.12.93.05a25.77,25.77,0,0,0,5,0,41.34,41.34,0,0,1,5-.19,4,4,0,0,1,1.09,0L303,282c.92.05,1.86.12,2.81.19s1.73.14,2.33.17l.25,0,.25,0a1.43,1.43,0,0,1,1.29.73,3.09,3.09,0,0,1,.23,1.51,10.82,10.82,0,0,1-.28,1.83,6.9,6.9,0,0,0-.23,1.6,6.39,6.39,0,0,0,.06.64c0,.32.07.66.11,1s.08.69.11,1a6.27,6.27,0,0,1,.06.65,4.21,4.21,0,0,1,0,1,7.82,7.82,0,0,1-.17.84,5.72,5.72,0,0,0,.17,2.08,4.76,4.76,0,0,1,.17,1.85.3.3,0,0,0-.06.22v.17c-.07.08-.24.22-.5.45a1.22,1.22,0,0,1-.56.34,3.18,3.18,0,0,0-1,.08c-.47.09-.83.18-1.1.25H294.63l-.84,0-.84,0h-.51l-.75,0c-.4,0-.81,0-1.24.08s-.84.07-1.23.08a3.35,3.35,0,0,0-.76.09l-1.24,0-2-.06-2.05,0h-1.24c-1.16,0-2,0-2.55,0a13.16,13.16,0,0,1-1.49-.11l-1.51-.19c-.56-.08-1.44-.17-2.64-.28-.11,0-.34-.11-.7-.2l-.81-.2a1.39,1.39,0,0,1-.51-.7C271.53,296.94,271.42,296.68,271.35,296.53Z"/><path d="M272.85,296.53c-.11-2.07.1-4.1.15-6.17.07-3.12-1.27-6.68,2.85-7.38,2.17-.36,5.66.19,7.92.24,1.91,0,3.8.29,5.7.39,4.74.25,9.44-.35,14.19,0a12.52,12.52,0,0,1,3.41.25c1.63.67.59-.77,1.3,1.2.37,1,0,4.44,0,5.76s-.14,2.61-.07,3.92c0,.42.57,2.09.27,2.53s-.48-.35-1-.21c-3.87,1-8.69.16-12.68.2-3.24,0-6.45.32-9.7.25-2.74-.05-11.32,1.07-12.54-1.69-.78-1.77-3.37-.24-2.59,1.51,1.88,4.24,9.23,3.15,13.08,3.16,4.68,0,9.32-.23,14-.23,3.09,0,11.77,1.5,14-1.56.62-.85.46-1.68.46-2.71,0-2.67-.45-5.43-.35-8.11.16-4.42.59-6.49-4.16-7-6.71-.75-13.35.18-20-.38-2.84-.23-5.66-.07-8.5-.22-2.41-.12-5.19-1.17-7.24.64-1.72,1.51-1.41,3.62-1.39,5.77,0,3.29-.22,6.61,0,9.9C269.94,298.45,272.94,298.47,272.85,296.53Z"/><path class="cls-6" d="M183,110.87c.31-.82.63-1.6,1-2.35s.64-1.48.94-2.19.58-1.41.84-2.1.47-1.37.65-2.06v-.06l0,0,.3-1.24a.64.64,0,0,1,.2-.16c.12-.07.18-.14.18-.19a.66.66,0,0,1,.07-.23c0-.12.09-.24.14-.36l.13-.36.1-.23c0-.22.1-.42.15-.62a1.41,1.41,0,0,0,0-.58l-.54-1.26a5.65,5.65,0,0,0-.66-1.81l-1-1.7-.63-.9a.17.17,0,0,1,0-.14V92.2a10.1,10.1,0,0,1-.83-1.36c-.23-.46-.46-.93-.68-1.39s-.44-.93-.67-1.4-.48-.92-.75-1.38a5.62,5.62,0,0,1-.47-.7c-.22-.35-.46-.74-.73-1.15L180,83.63c-.24-.38-.41-.67-.52-.85-.64-1-1.25-2-1.85-3s-1.18-2-1.76-3-1.18-2-1.8-3-1.24-2-1.9-2.94a.09.09,0,0,1,0-.06v-.11c0-.23.07-.45.36-.65l.16,0,.17-.06s.09,0,.18-.17l.18-.26.27,0,.45-.07.45-.08a1.51,1.51,0,0,0,.28-.07l.74-.19,1.3-.37,1.3-.38.76-.24.11,0,.1,0H179a.58.58,0,0,0,.19,0,.32.32,0,0,0,.14,0l.41,0,.53-.06.49,0H181a.3.3,0,0,1,.23,0,1.59,1.59,0,0,1,.29.15c.06.09.15.24.27.46l.4.7c.14.25.27.48.41.7l.29.47a32.79,32.79,0,0,0,1.89,3c.67,1,1.32,2,1.94,3l.13.26c.06.14.13.28.21.43a3.32,3.32,0,0,1,.22.41,1.15,1.15,0,0,0,.13.21l.09.14a2.55,2.55,0,0,1,.14.24c0,.08.09.16.14.24l.09.18.34.49.62.89.63.9.38.54.3.57.54,1c.19.36.37.7.53,1s.28.51.33.58,0,.09.1.16l.15.15c0-.19.07-.41.09-.68a4.53,4.53,0,0,1,.1-.61q.21-1.29.51-2.49a23.19,23.19,0,0,1,.72-2.44,10.08,10.08,0,0,1,.58-1.52,11.22,11.22,0,0,0,.57-1.52l.85-2.49c.31-.89.6-1.71.88-2.44,0-.05.06-.17.13-.35s.16-.39.25-.6l.25-.61.13-.35.18-.58c.05-.16.1-.32.15-.46a2.49,2.49,0,0,1,.22-.43,5,5,0,0,1,.36-.45l.17,0,.32-.06.31-.09a.83.83,0,0,0,.21-.07,11,11,0,0,1,1.38-.12h1.38l.58,0,1,0h1.53c.15,0,.4,0,.77,0h2.28a6.54,6.54,0,0,1,.76,0l.41.2a.61.61,0,0,1,.32.32,2.61,2.61,0,0,1,0,.56,3.44,3.44,0,0,1-.1.63c-.06.21-.11.41-.17.6s-.1.35-.14.48c-.23.9-.47,1.76-.72,2.59s-.51,1.65-.78,2.45-.57,1.6-.88,2.41-.65,1.61-1,2.43q-.93,2.08-1.74,4.45c-.54,1.58-1,3.07-1.55,4.48a20.77,20.77,0,0,1-.76,1.94q-.47,1-.93,1.89-.3.55-.54,1.11a9,9,0,0,0-.37,1.11c-.07.33-.13.61-.19.85a6.75,6.75,0,0,1-.19.68c-.07.22-.16.45-.26.69l-.34.85a1.67,1.67,0,0,0-.11.6,3.55,3.55,0,0,0,0,.66,1.28,1.28,0,0,1-.13.32,1.42,1.42,0,0,1-.17.33s0,.06-.09.13l-.2.22-.22.21-.12.13a1.49,1.49,0,0,1-.06.26c0,.13-.08.28-.12.44s-.08.3-.11.43a1.6,1.6,0,0,0,0,.26,4,4,0,0,0-.23.51l-.32.78c-.11.27-.21.54-.3.78a2.75,2.75,0,0,1-.22.51,4.62,4.62,0,0,1,0,1,1.78,1.78,0,0,1-.45.88l-2.49,7.47a2.36,2.36,0,0,1-.12.26,3.61,3.61,0,0,1-.23.36l-.28.31a.51.51,0,0,1-.25.17,5.77,5.77,0,0,1-.61.08,1.78,1.78,0,0,1-.59,0,.42.42,0,0,0-.23,0l-.41.07-.45.07a.82.82,0,0,1-.39,0l-.27,0a.52.52,0,0,0-.25,0l-.55-.1-.89-.15-.91-.15c-.29,0-.49-.07-.58-.07a2.34,2.34,0,0,1-.45,0h-.37l-.3,0-.55-.07-.56,0-.29,0a1.53,1.53,0,0,1-.41-.08.75.75,0,0,1-.39-.36,1.52,1.52,0,0,1-.14-.77A4.07,4.07,0,0,1,183,110.87Z"/><path d="M184.47,111.27c1-2.44,2.53-5.09,3.1-7.67a14.07,14.07,0,0,1,.35-1.49c.12-.31.37-1.06.07-.27.56-1.47,1.34-2.59,1.06-4.33-.45-2.87-2.61-5.05-3.74-7.42-2.82-5.91-6.53-11.53-10-17.09-.51-.82-2-4.6-2.31-1.58a2.59,2.59,0,0,0,.83-.45c-.21-.2,1-.5-.43,0a8.66,8.66,0,0,1,1.44-.24c1-.15,5.09-1.81,5.67-1.49,1.61.89,3.57,5.63,4.45,7.09.49.81.9,1.65,1.39,2.45,1.33,2.14,2.63,5.27,4.39,7a1.51,1.51,0,0,0,2.5-.67c.73-5,2.68-9.78,4.44-14.53.42-1.15.53-2.17,1.29-2.61,1.18-.69,4.3-.21,5.64-.23,3.12-.07,3.2-.86,2.33,2.18a74.69,74.69,0,0,1-2.89,8.21c-2.15,5.17-4.25,10.5-6.13,15.76-1.5,4.2-2.81,8.33-4.28,12.62-.85,2.48-.81,5.7-3.45,6.06a14.41,14.41,0,0,1-3.51-.43,8,8,0,0,1-1.3,0c-1.37-.46-1.3.53-.93-.85a1.5,1.5,0,0,0-2.89-.8c-.87,3.18.34,4.27,3.32,4.59,2.12.22,4.9,1,7,.42,2.37-.63,2.7-2.44,3.42-4.61,1.07-3.22,2-6.44,3.2-9.54a35,35,0,0,0,1.72-4.84c1.39-5.58,4.18-11.52,6.37-16.84A79.67,79.67,0,0,0,209.49,72c.38-1.29,1.6-4,1.16-5.46-.9-3-5.75-1.81-8-1.76-3.6.08-5.65-.23-7.1,3.16-2.2,5.19-4.35,10.79-5.15,16.39l2.51-.66c-1.63-1.63-3-5-4.27-7-1.45-2.37-3-4.71-4.4-7.09-.61-1-1.08-2.45-2.19-3-1.33-.68-3.12,0-4.48.29-2.12.51-5.56,1.24-6.14,2.1a2.65,2.65,0,0,0-.59,2.58c.15.73,1.46,2.25,1.93,3,1.23,2,2.36,4,3.56,6,2.6,4.33,5.09,8.8,7.61,13.07.77,1.31,2.38,3.35,2.34,4.89,0,1-.66,1-.85,1.55a22.51,22.51,0,0,0-.51,2.74c-.66,2.31-2.33,5.17-3.31,7.66C180.88,112.27,183.78,113.05,184.47,111.27Z"/><path class="cls-6" d="M85.79,308a4.48,4.48,0,0,0-.57-.12l-1-.18-.25,0a4.77,4.77,0,0,1-.53-.14,4.28,4.28,0,0,1-.66-.26,2.33,2.33,0,0,1-.61-.41l-.24-.1-.39-.16-.4-.16-.23-.1a4.21,4.21,0,0,1-1-.52c-.3-.22-.59-.45-.86-.68s-.54-.48-.8-.73l-.71-.7a21.15,21.15,0,0,1-2.35-2.6,14.74,14.74,0,0,1-1.78-3,23.93,23.93,0,0,1-1-2.4,15.91,15.91,0,0,1-.55-2.13,18.84,18.84,0,0,1-.26-2.18c0-.75-.07-1.6-.07-2.57v-2.06c.24-1,.52-2,.83-2.94a17.19,17.19,0,0,1,1.13-2.64,17.62,17.62,0,0,1,1.55-2.41,16.25,16.25,0,0,1,2-2.22A12.52,12.52,0,0,1,79,275.13a15.9,15.9,0,0,1,2-1.1.89.89,0,0,0,.23-.11l.33-.15.31-.12.2-.08.41,0,.38,0,.33-.24.3-.23.18,0a2,2,0,0,0,.31-.07l.3-.06a.44.44,0,0,0,.17-.06l.49-.12.82-.21.84-.2a2.53,2.53,0,0,1,.5-.1,4.77,4.77,0,0,1,.8-.15l1.23-.12,1.25-.11.86-.08H92l1.09.06a5.72,5.72,0,0,1,1,.16q.77.19,1.56.36t1.56.27l.65.3c.3.15.62.31,1,.5s.66.35,1,.52l.6.35a4.42,4.42,0,0,1,.43.4l.75.75c.27.28.54.55.79.82l.58.63a2.58,2.58,0,0,0,.16.25l.32.45.35.51c.12.16.22.3.29.41a19.37,19.37,0,0,1,2.66,6,24.2,24.2,0,0,1,.56,3.12,29.88,29.88,0,0,1,.18,3.33V291c0,.31-.08.73-.13,1.27s-.09,1.07-.13,1.6-.09,1-.13,1.43a6.14,6.14,0,0,1-.08.74,15.75,15.75,0,0,1-.59,2.65,20,20,0,0,1-1,2.49q-.53.66-.84,1.11c-.21.3-.42.6-.64.88l-.75.93c-.29.34-.67.76-1.17,1.27a17.42,17.42,0,0,1-2,1.32,16.73,16.73,0,0,1-2.23,1,14.58,14.58,0,0,1-2.34.68,8.88,8.88,0,0,1-2.34.19h-.94l-.58,0h-.37a.52.52,0,0,0-.19-.11.55.55,0,0,0-.19-.06l-.25,0-.42.07-.44.07a.53.53,0,0,1-.26,0l-.51,0-.86-.11-.86-.13a2.67,2.67,0,0,1-.48-.08h-.27ZM82.21,289.2a12.64,12.64,0,0,0,.13,1.51,5.94,5.94,0,0,0,.41,1.45,1.06,1.06,0,0,0,.14.3,1.06,1.06,0,0,1,.14.3l.22.77c.07.27.15.55.23.82a6.74,6.74,0,0,0,.29.79,2.63,2.63,0,0,0,.41.69l.27.29c.13.13.26.27.38.41l.36.38c.11.12.18.19.22.2l.18.14.35.23.41.26a2.27,2.27,0,0,0,.35.2l.27.19.35.24a1.49,1.49,0,0,0,.33.2,1.16,1.16,0,0,0,.28.12,1.43,1.43,0,0,0,.35.07,3.56,3.56,0,0,0,.87.31,1.34,1.34,0,0,0,.49,0l.44-.08a2.4,2.4,0,0,1,.72,0H91l.36,0,.38-.06.3-.05a6.38,6.38,0,0,0,2.41-.88,7.77,7.77,0,0,0,2-1.7A7.57,7.57,0,0,0,97.7,294a7.17,7.17,0,0,0,.47-2.53c0-.05,0-.28,0-.67s0-1.08.12-2.07a3.56,3.56,0,0,0-.28-1.39,13.76,13.76,0,0,1-.51-1.4,4.29,4.29,0,0,0-1.25-1.85,18.15,18.15,0,0,0-1.79-1.38c-.38-.25-.73-.47-1-.64a5.81,5.81,0,0,0-2-.67,8.49,8.49,0,0,0-1.22-.11c-.42,0-.79,0-1.1,0a6.25,6.25,0,0,0-1.09.15,10.45,10.45,0,0,0-1.42.39,8.11,8.11,0,0,0-1.41.61,6,6,0,0,0-1.21.89,3.19,3.19,0,0,0-.78,1.21l-.46,1.31a2.63,2.63,0,0,0-.31.63,5.53,5.53,0,0,0-.21.89,5.2,5.2,0,0,0-.09,1A3.72,3.72,0,0,0,82.21,289.2Z"/><path d="M86.19,306.56c-10.47-2.24-16.32-15.08-11.27-24.62,3.22-6.11,9.88-8.77,16.57-8.73,12.72.07,16.61,14.72,13.49,25.09-2.43,8.06-11.85,10.2-18.79,8.26a1.51,1.51,0,0,0-.8,2.9c5.84,1.63,13.81.91,18.39-3.72,7.32-7.41,6.71-21.61.56-29.52-9.9-12.71-32.57-4.24-34.18,10.87-1.06,10.05,5.27,20.23,15.23,22.37C87.28,309.86,88.08,307,86.19,306.56Z"/><path d="M80.71,289.2c.26,4.23,1.94,8.46,5.86,10.47,4.29,2.2,9.86.17,12.08-4.07,3.15-6.07.15-14.24-6.83-15.62-6-1.18-11.72,2.89-11.11,9.22.18,1.91,3.18,1.93,3,0-.55-5.69,5.55-7.89,10-5.16s4.09,11.46-1.24,13.2-8.48-3.41-8.76-8C83.59,287.28,80.58,287.27,80.71,289.2Z"/><path class="cls-6" d="M264.87,199.89a1.33,1.33,0,0,1-.43-.16.73.73,0,0,1-.28-.3,1.09,1.09,0,0,1-.12-.36,1.32,1.32,0,0,1,0-.34c0-.11,0-.21,0-.29,0-1,0-2.07,0-3.09s-.05-2.06-.07-3.1,0-2.07,0-3.1.07-2.07.15-3.1l-.08-1c0-.11,0-.22,0-.31a2.11,2.11,0,0,0,0-.26,1.64,1.64,0,0,1,0-.23v-2.72c0-.34,0-.66,0-1s0-.5,0-.58,0-.25,0-.55,0-.62.06-1,0-.66,0-1,0-.49,0-.57a6,6,0,0,0,0-1c0-.38-.06-.73-.07-1l0-.72a.43.43,0,0,1,.13-.34.79.79,0,0,1,.29-.11h.29c.08,0,.14,0,.15,0h.23l.37,0,.36,0a.71.71,0,0,0,.2,0h2.13l.77,0,.23,0,.13,0,.25,0,.25.05.18,0a1.86,1.86,0,0,1,.61.2.51.51,0,0,1,.22.3,1.65,1.65,0,0,1,.06.48,5.37,5.37,0,0,0,.09.7,8.78,8.78,0,0,1,1.84-1.29,9.67,9.67,0,0,1,2-.74,11.2,11.2,0,0,1,2.1-.32,20.36,20.36,0,0,1,2.21,0,3.16,3.16,0,0,1,.66.07l.7.18a5.1,5.1,0,0,1,.69.24c.23.1.43.19.61.29l.48.34.58.46.5.41a1.12,1.12,0,0,0,.23.17,5,5,0,0,1,1,1,6.49,6.49,0,0,1,.76,1.19,8.19,8.19,0,0,1,.53,1.33c.14.46.26.92.36,1.37a1.27,1.27,0,0,1,.14.41,6.82,6.82,0,0,1,.15.76c.05.28.09.56.13.85s.05.51.05.67v.76c0,.21,0,.45,0,.71s0,.5,0,.72,0,.35,0,.4l0,3.39,0,.72a1.41,1.41,0,0,0,0,.24c0,.13,0,.26-.05.39s0,.27-.05.39a1.53,1.53,0,0,0,0,.27l0,.44c0,.26,0,.59,0,1s0,.83,0,1.28,0,.92,0,1.39v1.3c0,.39,0,.73,0,1s0,.44,0,.51v.67c0,.15,0,.29,0,.42s0,.21,0,.24l0,.2c0,.15-.08.24-.25.27l-.42.08h-.17a1,1,0,0,0-.24,0l-.21,0a.18.18,0,0,0-.11,0h-1.37l-.31,0c-.64,0-1.23.06-1.79.11a13.49,13.49,0,0,1-1.82,0,.67.67,0,0,1-.51-.19.9.9,0,0,1-.19-.42,2.22,2.22,0,0,1,0-.52,4.7,4.7,0,0,0,0-.52v-.48c0-.25,0-.54,0-.87s0-.68,0-1.06,0-.74,0-1.06,0-.62,0-.86v-.49l0-4.74a15.08,15.08,0,0,0,0-1.65,16.53,16.53,0,0,0-.19-1.94,15.86,15.86,0,0,0-.42-2,9,9,0,0,0-.65-1.71,3.82,3.82,0,0,0-.9-1.17A1.48,1.48,0,0,0,276,180l-.72,0a3,3,0,0,0-1.17.16,11.18,11.18,0,0,0-1.1.55.15.15,0,0,0-.08,0,.16.16,0,0,0,0,.1,3.43,3.43,0,0,0-1,1.21,10,10,0,0,0-.67,1.78,18,18,0,0,0-.46,2.1c-.12.74-.23,1.48-.31,2.2q0,.1-.06.51c0,.27-.06.57-.09.91s-.06.66-.08,1,0,.59-.05.76c0,0,0,.08,0,.21s0,.27,0,.44,0,.33,0,.5,0,.29,0,.38,0,.18,0,.33,0,.31,0,.48,0,.33,0,.48,0,.25,0,.31l0,3.06a.86.86,0,0,0,0,.25,1.12,1.12,0,0,1,0,.24.8.8,0,0,1,0,.11,1.27,1.27,0,0,1,0,.2v.32a3,3,0,0,0,0,.39,1.6,1.6,0,0,1,0,.44.67.67,0,0,1-.17.36.59.59,0,0,1-.46.12c-.31,0-.65,0-1,0l-1.17,0-1.25,0A9.32,9.32,0,0,1,264.87,199.89Z"/><path d="M265.26,198.44c.6.23.19-4.45.17-5.41,0-2.49,0-5,.1-7.46.05-2,0-4.07.09-6.1a40.63,40.63,0,0,0,0-4.55c0,.44-1.31-.18.36.25.93.24,2.13-.21,3.1,0s.4-.61.52.36a1.53,1.53,0,0,0,2.57,1.06c5.05-4.05,11.39-1.66,12.87,4.45a29.38,29.38,0,0,1,.33,7.61c-.11,2.56-.27,5.09-.27,7.67a13.48,13.48,0,0,1,0,2.84c.33-1.38.4-.8-1.29-.84-.65,0-2.43.55-3,.19-.3-.21.31.7-.16.09-.1-.13.08-.58,0-.74-.47-1.24,0-3.44.05-4.81,0-3.49.42-7.34-.8-10.67-1.06-2.93-3.29-4.76-6.46-3.65s-3.95,5.06-4.38,8.07a58.27,58.27,0,0,0-.59,7.92,18.08,18.08,0,0,1,.08,3.34c0,.16.14.81,0,.91.62-.62-3.63-.57-3.81-.58-1.93-.08-1.93,2.92,0,3,3.41.14,6.47.86,6.78-3,.17-2-.13-4.14,0-6.19a50.27,50.27,0,0,1,.6-5.88c.62-3.47,2.95-7.54,5-2.66,1.45,3.41.56,8.61.52,12.3,0,4.37.13,5.68,4.9,5.48,1.79-.08,4.53.3,5.42-1.65,1.06-2.31,0-6.65.12-9.12a72.4,72.4,0,0,0,.12-7.37c-.56-9.84-10.06-15.38-18.27-8.8l2.56,1.06c-.42-3.19-2.4-3.44-5.32-3.4-2.43,0-4.38-.07-4.66,2.79-.36,3.63,0,7.47-.06,11.13-.11,3.89-.88,8.84-.05,12.68.29,1.35.54,2.07,2,2.61C266.27,202,267.05,199.12,265.26,198.44Z"/><path class="cls-6" d="M300.35,199.4l-.43-.09-.72-.13-.18,0-.4-.11a2.74,2.74,0,0,1-.49-.19,1.77,1.77,0,0,1-.46-.31l-.17-.07-.3-.12-.29-.12-.18-.08a3,3,0,0,1-.7-.38c-.23-.17-.44-.34-.65-.51s-.4-.36-.59-.55-.37-.35-.53-.52a15.27,15.27,0,0,1-1.76-1.94,11.29,11.29,0,0,1-1.32-2.24,18.59,18.59,0,0,1-.72-1.79,12.05,12.05,0,0,1-.6-3.22c0-.55-.05-1.19-.05-1.91v-1.54c.18-.77.38-1.5.61-2.19a12.86,12.86,0,0,1,.85-2,12.26,12.26,0,0,1,2.68-3.45,9.66,9.66,0,0,1,1.31-1.06,10.68,10.68,0,0,1,1.45-.82l.18-.08.24-.12.24-.09.14-.06.3,0,.29,0,.25-.17.22-.18.13,0,.24-.05.22,0a.25.25,0,0,0,.12,0l.37-.09.61-.16.63-.15a1.81,1.81,0,0,1,.38-.07,2.55,2.55,0,0,1,.59-.11c.28,0,.59-.07.92-.09l.93-.09.64-.06H305l.82,0a4.59,4.59,0,0,1,.77.13l1.17.26,1.16.21.48.22c.23.11.47.23.72.37l.7.39.45.26a4.34,4.34,0,0,1,.32.3l.56.56.59.61.43.47a1.15,1.15,0,0,0,.12.19l.24.33c.09.13.17.26.26.38l.22.31a15.27,15.27,0,0,1,1.21,2.22,14.47,14.47,0,0,1,.77,2.24,17.43,17.43,0,0,1,.42,2.33,22,22,0,0,1,.13,2.48v.08c0,.23-.06.55-.09.95s-.07.8-.1,1.19-.07.75-.1,1.06a3.37,3.37,0,0,1-.06.56,11.41,11.41,0,0,1-.44,2,15.81,15.81,0,0,1-.72,1.86c-.26.32-.47.6-.62.82s-.32.45-.48.66l-.57.69c-.21.25-.5.57-.86.95a14.79,14.79,0,0,1-1.53,1,12.56,12.56,0,0,1-1.66.78,13,13,0,0,1-1.75.51,6.89,6.89,0,0,1-1.74.14h-.71l-.42,0h-.28a.37.37,0,0,0-.14-.08.41.41,0,0,0-.15,0,.82.82,0,0,0-.18,0l-.32,0-.32.05h-.2l-.38,0-.64-.08-.64-.1a1.52,1.52,0,0,1-.36-.06h-.2Zm-2.68-14a10.13,10.13,0,0,0,.1,1.12,4.81,4.81,0,0,0,.31,1.09.76.76,0,0,0,.1.22.67.67,0,0,1,.1.23c.06.17.11.36.17.57s.11.41.17.61a4.19,4.19,0,0,0,.22.59,2.14,2.14,0,0,0,.3.51l.21.22.28.3.27.29a.6.6,0,0,0,.16.15,1.06,1.06,0,0,0,.13.11l.27.17.3.19a2,2,0,0,0,.26.15l.2.14.27.18a1.05,1.05,0,0,0,.24.15l.21.09a1.14,1.14,0,0,0,.26.05,2.7,2.7,0,0,0,.65.23,1.14,1.14,0,0,0,.37,0l.32-.06a1.79,1.79,0,0,1,.54,0h.15l.26,0,.29,0,.22,0a4.7,4.7,0,0,0,1.8-.65,5.91,5.91,0,0,0,1.46-1.27,5.85,5.85,0,0,0,1-1.68,5.4,5.4,0,0,0,.35-1.89s0-.21,0-.5,0-.81.09-1.55a2.56,2.56,0,0,0-.22-1,9.16,9.16,0,0,1-.37-1,3.25,3.25,0,0,0-.93-1.38,16.45,16.45,0,0,0-1.34-1c-.29-.19-.55-.35-.79-.48a4.47,4.47,0,0,0-.72-.31,3.94,3.94,0,0,0-.77-.19,7.52,7.52,0,0,0-.91-.08c-.31,0-.58,0-.81,0a4.65,4.65,0,0,0-.82.11,10,10,0,0,0-1.06.29,5.48,5.48,0,0,0-1.05.46,3.73,3.73,0,0,0-.9.66,2.29,2.29,0,0,0-.58.9l-.35,1a1.87,1.87,0,0,0-.23.47,5.8,5.8,0,0,0-.16.66,4.37,4.37,0,0,0-.06.72A3.1,3.1,0,0,0,297.67,185.37Z"/><path d="M300.75,198c-7.56-1.61-11.82-10.88-8.19-17.8,2.31-4.39,7.06-6.45,12-6.33,8.5.22,11.23,8.76,10.14,16.1-1,7.06-8.25,9.64-14,8a1.51,1.51,0,0,0-.8,2.9c4.83,1.35,11.54.63,15.25-4.3,4.4-5.83,3.61-15.72-.87-21.3-7.77-9.67-24.8-2.85-26,8.5-.83,7.69,4,15.47,11.64,17.1C301.83,201.25,302.63,198.36,300.75,198Z"/><path d="M296.17,185.37c.21,3.28,1.53,6.57,4.56,8.14a7.29,7.29,0,0,0,9.53-3.18c2.49-4.74.12-11.1-5.32-12.2-4.67-1-9.24,2.28-8.77,7.24.18,1.91,3.19,1.93,3,0-.38-4,3.8-5.43,6.89-3.52s2.82,7.93-.83,9.15-5.86-2.42-6.06-5.63C299.05,183.45,296.05,183.44,296.17,185.37Z"/><path class="cls-6" d="M276,86.29a3.2,3.2,0,0,1,0-.93,4.92,4.92,0,0,0,0-.94c0-.09,0-.3,0-.63s0-.7.07-1.1.05-.76.07-1.09,0-.55,0-.64c0-.91,0-1.81-.09-2.71a15.86,15.86,0,0,1,0-2.67,1.55,1.55,0,0,1,.73-1.16,2.61,2.61,0,0,1,1.28-.52q.18,0,.84.09c.44.06.92.11,1.44.16s1,.08,1.45.11l.82,0h.8l1.32,0,1.33,0h.75l.68.07c.36,0,.77.08,1.21.12l1.23.09.75,0a20.85,20.85,0,0,0,4,0,32.15,32.15,0,0,1,4.08-.16,3.54,3.54,0,0,1,.89,0l2,.11,2.28.16,1.89.14.2,0,.21,0a1.19,1.19,0,0,1,1,.59,2.58,2.58,0,0,1,.18,1.23,8.72,8.72,0,0,1-.23,1.48,5.66,5.66,0,0,0-.18,1.3,5,5,0,0,0,0,.52c0,.26.06.53.09.82s.06.56.1.82,0,.43,0,.53a3.71,3.71,0,0,1,0,.82,6.88,6.88,0,0,1-.14.68,4.6,4.6,0,0,0,.14,1.68,3.94,3.94,0,0,1,.14,1.51.26.26,0,0,0-.05.18v.14l-.41.36c-.21.18-.36.28-.45.28a2.74,2.74,0,0,0-.85.06l-.89.21h-9.93l-.68,0c-.24,0-.47,0-.69,0h-.4l-.62,0c-.32,0-.65,0-1,.07l-1,.06a3.34,3.34,0,0,0-.61.07l-1,0-1.67,0-1.66,0h-1c-.94,0-1.64,0-2.07,0a10.52,10.52,0,0,1-1.21-.09L280,88c-.46-.06-1.17-.13-2.14-.22l-.57-.16-.66-.16a1.11,1.11,0,0,1-.41-.57C276.11,86.62,276,86.41,276,86.29Zm.05,18.09a3.2,3.2,0,0,1-.05-.93,4.92,4.92,0,0,0,0-.94c0-.09,0-.3,0-.64s0-.69.06-1.09.06-.76.07-1.09,0-.55,0-.64c0-.91,0-1.82-.09-2.71a15.84,15.84,0,0,1,.05-2.67,1.52,1.52,0,0,1,.73-1.16A2.58,2.58,0,0,1,278.1,92c.12,0,.41,0,.85.09s.92.11,1.43.16l1.46.11.82.05h.8l1.32,0,1.32,0h.75l.69.07c.36,0,.76.09,1.2.11l1.23.1.76,0a21.68,21.68,0,0,0,4,0,32.15,32.15,0,0,1,4.08-.16,3.44,3.44,0,0,1,.88,0l2,.11,2.28.16,1.89.14.21,0a.71.71,0,0,0,.2,0,1.19,1.19,0,0,1,1.05.6,2.58,2.58,0,0,1,.18,1.23,8.68,8.68,0,0,1-.22,1.48,5.22,5.22,0,0,0-.19,1.3c0,.09,0,.26.05.52s.06.53.09.82.06.56.09.82.05.43.05.53a3.71,3.71,0,0,1,0,.82,6.88,6.88,0,0,1-.14.68,4.39,4.39,0,0,0,.14,1.68,3.91,3.91,0,0,1,.13,1.51.26.26,0,0,0,0,.18v.14l-.41.36a1,1,0,0,1-.46.27,3.15,3.15,0,0,0-.84.07c-.38.08-.68.15-.89.21h-9.93l-.69,0c-.24,0-.47,0-.68,0h-.41l-.61,0c-.32,0-.66,0-1,.07l-1,.06a3.22,3.22,0,0,0-.61.07l-1,0-1.66,0-1.66,0h-1c-.94,0-1.63,0-2.07,0a10.88,10.88,0,0,1-1.21-.09l-1.23-.16c-.45-.06-1.17-.13-2.14-.23l-.57-.15-.66-.16a1.27,1.27,0,0,1-.41-.57C276.16,104.71,276.07,104.5,276,104.38Z"/><path d="M277.46,86.29c-.12-2.42-.91-9.83,1.44-10.8,1.1-.45,4.43.31,5.83.3,1.76,0,3.45.12,5.2.25,3.73.26,7.44-.25,11.18-.06.6,0,4.36-.13,4.8.34s-.29,3.16-.28,4.07c0,1.08,0,2.19,0,3.26a14.8,14.8,0,0,1,.26,3.17c-.27.3.05-.55-.64-.4-3.15.67-6.79.12-10,.15-2.7,0-5.38.25-8.09.2-2,0-9,.83-9.93-1.24-.78-1.76-3.37-.23-2.59,1.52,1.48,3.35,6.78,2.71,9.86,2.7,4.13,0,8.24-.18,12.37-.18,2.86,0,8.84,1.18,11.15-1,2.1-2,.48-6.5.57-9.31.13-3.7.48-5.53-3.65-6-5.44-.63-10.84.09-16.27-.3-2.31-.17-4.6-.07-6.91-.19-2-.1-4.35-.94-6.07.6s-1.17,4.18-1.14,6.24c0,2.24-.23,4.46-.12,6.69C274.56,88.21,277.56,88.23,277.46,86.29Z"/><path d="M277.51,104.38c-.12-2.42-.92-9.83,1.44-10.8,1.09-.45,4.42.31,5.83.3,1.75,0,3.44.12,5.19.25,3.74.26,7.45-.25,11.19-.06.59,0,4.35-.14,4.8.34s-.29,3.15-.29,4.07c0,1.08,0,2.19.05,3.26a14.24,14.24,0,0,1,.25,3.17c-.26.3.06-.55-.63-.4-3.15.67-6.8.12-10,.15-2.71,0-5.38.25-8.09.2-2,0-9,.83-9.94-1.24-.78-1.76-3.36-.23-2.59,1.52,1.49,3.35,6.78,2.71,9.86,2.7,4.14,0,8.24-.18,12.37-.18,2.87,0,8.84,1.18,11.16-1,2.09-2,.47-6.5.57-9.31.13-3.7.47-5.53-3.65-6-5.44-.63-10.84.09-16.28-.31-2.3-.16-4.59-.06-6.9-.18-2-.1-4.35-.94-6.07.6s-1.17,4.18-1.15,6.24c0,2.23-.22,4.46-.11,6.69C274.6,106.3,277.6,106.31,277.51,104.38Z"/><path class="cls-6" d="M105.46,204.26,105,204l-.5-.25-.91-.33-1.21-.45-1.14-.4-.66-.22-.79-.22-1.54-.4-1.75-.44L95.11,201l-.28,0-.46-.09-.47-.11-.26-.06a4.42,4.42,0,0,1-.63-.18l-1.3-.42-1.54-.48-1.27-.38a13.56,13.56,0,0,0-1.52-.52,11.47,11.47,0,0,1-1.52-.55l-1.29-.57c-.41-.18-.85-.36-1.32-.53l-.77-.2c-.41-.11-.86-.24-1.34-.39L79.8,196l-.77-.22a14,14,0,0,1-1.76-.68c-.61-.28-1.17-.56-1.69-.83a.15.15,0,0,1-.16,0l-.17,0s-.06-.05-.2-.08l-.24,0-1.46-.41a5.85,5.85,0,0,1-1.36-.55.08.08,0,0,0,0-.05.08.08,0,0,1,0-.06v-.22a2.63,2.63,0,0,0,0-.29c0-.17,0-.36,0-.57s0-.48-.09-.82c0-.18,0-.32,0-.45a1.93,1.93,0,0,0,0-.34c0-.11,0-.24,0-.37s0-.3-.06-.5a4.35,4.35,0,0,1,0-1c0-.28.06-.55.08-.8s0-.52,0-.79a5.14,5.14,0,0,0-.17-1,.83.83,0,0,1,.46-.49,2.49,2.49,0,0,0,.57-.28c.1-.07.3-.24.62-.51s.67-.56,1-.86l1.06-.86a3.67,3.67,0,0,1,.68-.48,25,25,0,0,1,2.81-1.67,14.81,14.81,0,0,0,2.7-1.78.67.67,0,0,1,.12-.17l.17-.16.2-.07.35-.15.33-.15a.56.56,0,0,0,.18-.11,4.31,4.31,0,0,0,.43-.27l.77-.52.8-.51.5-.31a.93.93,0,0,1,.22-.15l.4-.22c.15-.07.28-.15.41-.22l.25-.15.85-.49,1.41-.83,1.41-.84c.44-.27.71-.44.81-.52a12,12,0,0,1,1.65-1c.54-.26,1.1-.57,1.69-.93a3.32,3.32,0,0,1,.38-.21l.57-.25.54-.24a1,1,0,0,0,.27-.15l.75-.4,1.12-.63,1.1-.6.74-.39.84-.29a1.62,1.62,0,0,1,1.16.06,1.41,1.41,0,0,1,.71,1c0,.22.07.58.13,1.1s.13,1.06.2,1.65.14,1.14.21,1.67.1.89.12,1.08a7.75,7.75,0,0,0,.33,1.54,15.45,15.45,0,0,1,.41,1.54.7.7,0,0,1-.2.55,2.28,2.28,0,0,1-.59.46,4.79,4.79,0,0,1-.72.35l-.58.26L99.62,181c-.78.51-1.57,1.06-2.35,1.65l-.57.42-.9.66-.9.66q-.42.32-.6.42a12.53,12.53,0,0,1-1.21.83l-1.19.68c-.41.22-.81.44-1.22.68a13.21,13.21,0,0,0-1.22.79v.18a.64.64,0,0,0,.2,0,.8.8,0,0,1,.2.06.74.74,0,0,1,.07.29c0,.17.06.27.11.3a15.59,15.59,0,0,0,2.15.9c.77.25,1.51.48,2.22.67l.24,0a.56.56,0,0,1,.24.06,4,4,0,0,0,.53.25,4.71,4.71,0,0,0,.53.22c0,.05.1.07.22.06s.2,0,.22,0c.29.07.59.16.9.26l.9.29A17.59,17.59,0,0,0,100,192l1.8.52a.89.89,0,0,1,.22,0l.22.06a1.4,1.4,0,0,0,.29.12l.57.23.64.25.52.2a7.24,7.24,0,0,1,1,.65,1.39,1.39,0,0,1,.59,1c.12,1.22.25,2.43.37,3.63s.21,2.42.26,3.67v0s0,.05,0,.06,0,0,0,.05a.91.91,0,0,1,0,.32.86.86,0,0,0,0,.31v.18c0,.1-.06.25-.11.46s-.11.33-.18.35a.28.28,0,0,0-.15,0,.53.53,0,0,1-.22.07Z"/><path d="M106.21,203c-3.83-2-8.06-2.63-12.17-3.74a175.09,175.09,0,0,1-16.89-5.79c-1.22-.47-2.18-.57-3.41-1.11s.41,1.42-.33.27c-.33-.53-.07-1.57-.09-2.18,0-1.16-.36-3,.08-3.9,1.23-2.36,5.55-3.82,7.61-5.19,4.52-3,11-6.95,16.78-10,.29-.15,2.6-1.74,3-1.61,1.09.35,1,4,1,4.94.26,3.87-1,3.56-4.17,5.78-2.18,1.54-4.27,3.14-6.55,4.52-1.2.72-3.18,1.28-3.18,3a1.53,1.53,0,0,0,1.1,1.45c.4.11-1.61-.82-.08.31a14.05,14.05,0,0,0,3.94,1.64c1.92.62,3.82,1.18,5.75,1.81a19.83,19.83,0,0,1,3.41,1.06c2.47,1.35,2.56,3.59,2.76,6.33,0,.67.17,1.78.16,2.32,0,.87,1-.09.46-.09a1.5,1.5,0,0,0,0,3c1.67,0,2.26-.91,2.56-2.45.37-1.91.2-6.58-.9-9-1.17-2.55-4.36-3-6.77-3.77-.86-.27-8.93-2.45-9-2.92a1.54,1.54,0,0,0-1-1l-.41-.11L91,187.93c0,.81,4.44-2.1,5.15-2.61,2.29-1.65,4.56-3.28,7-4.77,1.08-.69,2.14-1,2.48-2.39.28-1.1-.4-2.38-.6-3.45-.33-1.73-.16-3.87-.74-5.53-2.26-6.56-14.08,3-17.41,4.92-2,1.13-4,2.24-5.84,3.44-2.08,1.34-4.32,2.67-6.32,4.14-1.12.82-3.64,2.18-4.3,3.55s-.41,6.1.12,7.73c.7,2.15,2.46,2.06,4.57,2.8,5.1,1.8,10.29,3.87,15.52,5.51,4.68,1.46,9.77,2,14.16,4.29C106.41,206.45,107.93,203.86,106.21,203Z"/><path class="cls-6" d="M172.91,270.59c.06,0,.23.12.54.28l.53.27,1,.36,1.31.48,1.23.43a6.29,6.29,0,0,0,.71.24l.86.24,1.66.44,1.87.47c.62.16,1.12.28,1.49.36l.28,0,.51.1.5.12a1.27,1.27,0,0,0,.3.06l.65.2,1.43.45c.54.18,1.1.35,1.67.52l1.37.42a16.79,16.79,0,0,0,1.65.55,11.45,11.45,0,0,1,1.64.6l1.39.61c.45.2.93.39,1.43.58l.84.22,1.45.41,1.43.44.85.24a14.68,14.68,0,0,1,1.9.73q1,.46,1.83.9a.19.19,0,0,1,.18,0,.74.74,0,0,0,.18,0s.07.05.22.08l.26,0c.5.13,1,.27,1.58.43a6.63,6.63,0,0,1,1.47.6v.12a.2.2,0,0,0,0,.08v.16s0,.13,0,.31a5.44,5.44,0,0,1,.06.62c0,.22.05.52.1.89a5.05,5.05,0,0,0-.06.86c0,.19,0,.51.1.93a6.57,6.57,0,0,1,0,1.09q0,.47-.06.87c0,.28,0,.57,0,.86a3.43,3.43,0,0,0,.2,1,.93.93,0,0,1-.5.54,2.59,2.59,0,0,0-.61.29c-.11.08-.33.27-.68.56s-.72.6-1.13.93l-1.15.94a3.46,3.46,0,0,1-.74.51,26.61,26.61,0,0,1-3,1.81,15.8,15.8,0,0,0-2.92,1.92.55.55,0,0,1-.14.18l-.18.18a1,1,0,0,0-.22.08l-.37.16a3.17,3.17,0,0,0-.36.16.71.71,0,0,0-.2.12,4.54,4.54,0,0,0-.46.3l-.83.55-.87.58a3,3,0,0,1-.54.31l-.24.16-.43.24-.46.24a1.38,1.38,0,0,0-.26.16l-.91.53-1.53.9-1.53.91c-.48.29-.77.48-.87.56a13.6,13.6,0,0,1-1.79,1.05,19.13,19.13,0,0,0-1.83,1,2.3,2.3,0,0,1-.41.22l-.62.28-.57.26-.3.15-.82.44-1.21.68-1.19.65-.79.42-.92.32a1.76,1.76,0,0,1-1.25-.06,1.65,1.65,0,0,1-.77-1.06c0-.23-.07-.63-.14-1.19s-.14-1.15-.22-1.78-.15-1.24-.22-1.81-.11-1-.13-1.17a9.12,9.12,0,0,0-.36-1.67,15.38,15.38,0,0,1-.44-1.67.7.7,0,0,1,.22-.59,2.67,2.67,0,0,1,.63-.5,6.15,6.15,0,0,1,.78-.37c.26-.11.48-.2.63-.28.88-.59,1.74-1.16,2.59-1.71s1.69-1.15,2.54-1.79l.61-.45,1-.72,1-.71c.3-.23.52-.38.65-.46a19.9,19.9,0,0,1,2.6-1.63,21.5,21.5,0,0,0,2.64-1.59v-.19a.53.53,0,0,0-.22-.06l-.21-.06a.67.67,0,0,1-.08-.32c0-.19-.07-.29-.12-.32a16.82,16.82,0,0,0-2.32-1c-.84-.28-1.64-.52-2.41-.74l-.26,0a.58.58,0,0,1-.25,0,3.46,3.46,0,0,0-.58-.28c-.3-.14-.49-.21-.57-.24s-.11-.07-.24-.06-.21,0-.24,0c-.32-.08-.64-.17-1-.28s-.66-.21-1-.32a18,18,0,0,0-1.9-.67l-2-.56-.24-.06-.23-.06-.34-.14-.6-.23c-.22-.1-.45-.19-.69-.28l-.56-.22a7.46,7.46,0,0,1-1.11-.69,1.55,1.55,0,0,1-.63-1.1c-.14-1.32-.27-2.63-.4-3.93s-.23-2.62-.28-4c0,0,0,0,0,0v-.12a1,1,0,0,1,0-.33,1,1,0,0,0,0-.34v-.2c0-.1.07-.27.12-.5s.12-.35.2-.37l.12,0a.27.27,0,0,1,.14,0,.51.51,0,0,0,.14,0Z"/><path d="M172.16,271.88c5.43,2.83,11.77,3.58,17.57,5.42,6.38,2,12.93,4.22,19,6.68l-1.1-1.44c0,1.23.15.2.08.67a30.92,30.92,0,0,0,.2,4.39c.07,3.78-4,5.21-7,7-3.78,2.29-7.35,4.6-11.68,7.23-2.36,1.43-4.71,2.74-7.16,4-1.55.79-3.42,2.64-4.83,1.49a34.68,34.68,0,0,1-1-6.83c.47-2.72,7.08-5.91,9.48-7.55,1.64-1.13,6-2.34,6-4.71a1.52,1.52,0,0,0-1.1-1.45c-.93-.25,1.35,1,.41.29-.21-.16-.26-.58-.53-.78-1.5-1.06-3.53-1.41-5.24-2-2.29-.76-4.63-1.51-7-2.22a10.45,10.45,0,0,1-2.39-.78c-2.73-1.72-2.41-5.79-2.57-8.74-.11-2-.19.25-.06-.49.16-.92-1.12,0-.37,0a1.5,1.5,0,0,0,0-3,2.46,2.46,0,0,0-2.65,2.57c0,.76.43,1.34.48,2,.18,2.06-.51,5.2.4,7.46,1.17,2.9,4.69,3.36,7.33,4.2,1.14.37,9.71,2.6,9.87,3.25a1.49,1.49,0,0,0,1,1l.43.12-1.1-1.44c0-.48-10.5,6.44-11.53,7.09-4.59,2.85-4.22,2.89-3.38,8.41.45,2.93,0,8.16,4.5,7.34,2.77-.5,5.63-2.79,8.12-4.11,6-3.21,11.75-7,17.53-10.59,2.36-1.46,6.35-3.47,7-6.24.35-1.42,0-4.38-.18-5.88,0-.4-.19-3.07-.19-1.74a1.56,1.56,0,0,0-1.1-1.45c-5.42-2.2-11.1-4-16.66-5.91-6.23-2.19-13.32-2.83-19.19-5.89C172,268.4,170.44,271,172.16,271.88Z"/><path class="cls-6" d="M172.42,190.51a2.7,2.7,0,0,1,0-.9,3.32,3.32,0,0,0,0-.89c0-.09,0-.3,0-.62s0-.67.08-1,.06-.73.08-1.05,0-.53,0-.62c0-.87,0-1.74-.1-2.6a12.26,12.26,0,0,1,.05-2.57,1.44,1.44,0,0,1,.84-1.11,3.4,3.4,0,0,1,1.48-.51c.14,0,.47,0,1,.09s1.06.11,1.66.15,1.16.08,1.69.11l.95.05h.92l1.54,0,1.53,0H185c.1,0,.37,0,.79.07s.89.08,1.4.11l1.42.08.87.05a29.09,29.09,0,0,0,4.67,0,45.84,45.84,0,0,1,4.73-.16,4.71,4.71,0,0,1,1,0l2.27.11,2.64.16,2.19.13.23,0,.24,0a1.46,1.46,0,0,1,1.22.57,2.21,2.21,0,0,1,.21,1.19,7.38,7.38,0,0,1-.27,1.42,4.58,4.58,0,0,0-.21,1.25c0,.09,0,.25.05.5s.07.51.11.79.07.54.11.79.05.42.05.5a3.43,3.43,0,0,1,0,.79,6.29,6.29,0,0,1-.16.66,3.62,3.62,0,0,0,.16,1.62,3.21,3.21,0,0,1,.16,1.45.21.21,0,0,0-.06.17v.13l-.47.35a1.16,1.16,0,0,1-.53.27,3.64,3.64,0,0,0-1,.06c-.44.08-.78.14-1,.2h-11.5l-.79,0-.8,0h-.47l-.71,0-1.16.06-1.16.07a3.9,3.9,0,0,0-.72.06l-1.16,0-1.93,0c-.68,0-1.32,0-1.92,0h-1.16c-1.09,0-1.89,0-2.4,0s-1,0-1.4-.09l-1.43-.15c-.53-.06-1.35-.13-2.48-.22l-.66-.16-.76-.15a1.16,1.16,0,0,1-.48-.55C172.6,190.83,172.49,190.63,172.42,190.51Zm12.17-23.81a9.75,9.75,0,0,0,.11,1.1,3.71,3.71,0,0,0,.31,1,.65.65,0,0,0,.1.22.65.65,0,0,1,.1.22c.06.17.11.36.17.55s.11.4.17.6a5.77,5.77,0,0,0,.22.58,2,2,0,0,0,.31.49l.21.21.29.3.26.28.17.15.13.1.27.16.31.19a1.14,1.14,0,0,0,.26.14l.21.14.27.18a1,1,0,0,0,.24.14.53.53,0,0,0,.21.09,1.12,1.12,0,0,0,.27,0,2.7,2.7,0,0,0,.65.23,1.14,1.14,0,0,0,.37,0l.33-.06a1.86,1.86,0,0,1,.55,0h.14l.27,0,.29,0,.23,0a5,5,0,0,0,1.82-.64,5.82,5.82,0,0,0,2.46-2.87,5.09,5.09,0,0,0,.35-1.84s0-.2,0-.48,0-.79.09-1.5a2.43,2.43,0,0,0-.22-1c-.14-.33-.27-.67-.38-1a3.09,3.09,0,0,0-.94-1.34,13.17,13.17,0,0,0-1.35-1c-.29-.18-.56-.34-.8-.46a4.21,4.21,0,0,0-.73-.31,4.92,4.92,0,0,0-.78-.18,7.51,7.51,0,0,0-.92-.08c-.31,0-.59,0-.82,0a4.75,4.75,0,0,0-.83.11,10,10,0,0,0-1.07.28,6.72,6.72,0,0,0-1.07.45,4.15,4.15,0,0,0-.91.64,2.33,2.33,0,0,0-.58.88l-.36.95a1.8,1.8,0,0,0-.22.46,4,4,0,0,0-.17.64,4.14,4.14,0,0,0-.06.7A2.9,2.9,0,0,0,184.59,166.7Zm0,37.24c0,.37,0,.74.05,1.1a4.44,4.44,0,0,0,.26,1.06.8.8,0,0,0,.09.23.65.65,0,0,1,.1.22c0,.17.09.36.13.56l.15.61a3.93,3.93,0,0,0,.19.58,2.09,2.09,0,0,0,.28.51l.2.22.27.31c.1.1.18.2.26.29a1.11,1.11,0,0,0,.16.16.71.71,0,0,0,.13.1,2,2,0,0,0,.26.18l.3.21a1.48,1.48,0,0,0,.25.15l.2.15.26.19a.74.74,0,0,0,.24.15.68.68,0,0,0,.2.1l.26.06a2.65,2.65,0,0,0,.64.25,1,1,0,0,0,.38,0l.33,0a1.63,1.63,0,0,1,.54.05h.15l.27,0,.29,0,.23,0a5.09,5.09,0,0,0,1.85-.56,5.76,5.76,0,0,0,2.59-2.75,4.91,4.91,0,0,0,.44-1.82s0-.21,0-.49.07-.78.16-1.49a2.45,2.45,0,0,0-.16-1,8.83,8.83,0,0,1-.33-1,3.17,3.17,0,0,0-.88-1.38,13.08,13.08,0,0,0-1.3-1.06c-.28-.2-.54-.37-.77-.51a5.85,5.85,0,0,0-.72-.34,4.73,4.73,0,0,0-.76-.21c-.27-.05-.58-.09-.92-.12s-.59,0-.82-.05a5.25,5.25,0,0,0-.83.07,9.68,9.68,0,0,0-1.09.23,6.75,6.75,0,0,0-1.09.4,4.56,4.56,0,0,0-.94.6,2.36,2.36,0,0,0-.63.85l-.39.94a1.38,1.38,0,0,0-.25.44,4,4,0,0,0-.2.64,4.1,4.1,0,0,0-.1.69A3.13,3.13,0,0,0,184.63,203.94Z"/><path d="M173.92,190.51c-.09-1.53.08-3,.14-4.51.07-2.13-.95-5.06,1.77-5.82,1.72-.48,4.84.3,6.76.28s4,.13,6,.24c4.53.27,9-.26,13.57,0,.8,0,4.57-.25,5.06.31a39.26,39.26,0,0,1-.12,4.44c0,1.6.1,3.16.21,4.77s-.18.48.29.2a5.75,5.75,0,0,1-2,.25c-3.55-.39-7.5,0-11.09.07-2.89,0-5.75.26-8.64.21-2.31,0-11,1-12.21-1.18-.91-1.7-3.5-.19-2.59,1.52,2,3.7,8.92,2.62,12.38,2.63,4.09,0,8.15-.16,12.24-.18,3.46,0,10.45,1.42,13.38-.73,2.58-1.9.85-6,.92-9,.1-4.1.36-5.63-4-6.05-6.3-.59-12.57.14-18.85-.29-2.68-.19-5.33-.06-8-.18-2.2-.09-5-1-6.87.59-1.52,1.25-1.35,2.89-1.33,4.75,0,2.57-.21,5.17-.06,7.73C171,192.43,174,192.44,173.92,190.51Z"/><path d="M183.09,166.7c.22,3.29,1.59,6.4,4.61,8a7.42,7.42,0,0,0,9.75-3.4c2.33-4.8-.32-10.76-5.71-11.67-4.52-.77-9.14,2.2-8.65,7.11.19,1.91,3.19,1.93,3,0-.32-3.25,2.9-5,5.83-4,3.82,1.27,4.78,7.55.74,9.27-3.72,1.59-6.34-1.8-6.57-5.26C186,164.79,183,164.77,183.09,166.7Z"/><path d="M183.13,203.94c.06,3.29,1.33,6.46,4.28,8.12a7.45,7.45,0,0,0,9.88-3c2.5-4.69.14-10.8-5.25-11.88-4.53-.91-9.15,1.86-8.91,6.8.1,1.92,3.1,1.93,3,0-.17-3.45,3.62-4.87,6.45-3.47,3.46,1.71,3.73,7.71-.22,9.12s-6.17-2.19-6.23-5.65C186.1,202,183.1,202,183.13,203.94Z"/></g></svg>