<?xml version="1.0" encoding="utf-8"?>
<!-- Generator: Adobe Illustrator 24.2.0, SVG Export Plug-In . SVG Version: 6.00 Build 0)  -->
<svg version="1.1" id="Layer_1" xmlns="http://www.w3.org/2000/svg" xmlns:xlink="http://www.w3.org/1999/xlink" x="0px" y="0px"
	 viewBox="0 0 186 181" style="enable-background:new 0 0 186 181;" xml:space="preserve">
<style type="text/css">
	.st0{fill:#CECECE;}
	.st1{clip-path:url(#SVGID_2_);fill:#FFFFFF;stroke:#000000;stroke-miterlimit:10;}
	.st2{clip-path:url(#SVGID_4_);}
	.st3{fill:#FFFFFF;stroke:#000000;stroke-miterlimit:10;}
	.st4{fill:#1C1C1C;}
	.st5{clip-path:url(#SVGID_6_);}
	.st6{fill:#FFFFFF;}
	.st7{clip-path:url(#SVGID_8_);}
	.st8{fill:#6D6D6D;}
	.st9{fill:#8E8E8E;}
	.st10{clip-path:url(#SVGID_10_);}
</style>
<g>
	<g>
		<g>
			<path d="M181.3,90.47c-0.03,17.74-5.8,35.03-16.3,49.32c-10.38,14.11-25.17,24.86-41.67,30.66c-17.42,6.11-36.61,6.8-54.43,1.94
				c-17.03-4.64-32.52-14.35-44.03-27.75c-11.41-13.29-18.56-30.1-19.91-47.58C3.58,79.33,7.98,61.52,17.43,46.47
				c9.28-14.78,23.09-26.43,39.03-33.46c16.91-7.46,36.18-9.47,54.3-5.88c17.37,3.44,33.57,11.98,46.06,24.56
				c12.29,12.37,20.62,28.37,23.44,45.6C180.96,81.64,181.29,86.06,181.3,90.47c0,1.93,3,1.93,3,0
				c-0.04-18.28-5.97-36.25-16.84-50.95c-10.81-14.62-25.94-25.69-43.07-31.76C106.4,1.38,86.44,0.71,68.04,5.74
				C50.5,10.54,34.43,20.57,22.6,34.42C10.78,48.24,3.45,65.52,1.98,83.67c-1.48,18.31,3.11,36.88,12.89,52.43
				c9.61,15.28,23.9,27.44,40.44,34.65c17.53,7.64,37.2,9.73,55.97,6.08c17.97-3.5,34.81-12.42,47.7-25.43
				c12.69-12.8,21.39-29.44,24.23-47.27c0.72-4.52,1.09-9.08,1.09-13.65C184.3,88.54,181.3,88.54,181.3,90.47L181.3,90.47z"/>
		</g>
	</g>
	<g>
		<g>
			<g>
				<path class="st0" d="M182.8,90.47c0.02,47.82-40.17,86.6-89.77,86.62C43.44,177.11,3.22,138.35,3.2,90.53S43.38,3.93,92.97,3.91
					S182.78,42.65,182.8,90.47"/>
				<g>
					<path d="M181.3,90.47c-0.03,17.74-5.8,35.03-16.3,49.32c-10.38,14.11-25.17,24.86-41.67,30.66
						c-17.42,6.11-36.61,6.8-54.43,1.94c-17.03-4.64-32.52-14.35-44.03-27.75c-11.41-13.29-18.56-30.1-19.91-47.58
						C3.58,79.33,7.98,61.52,17.43,46.47c9.28-14.78,23.09-26.43,39.03-33.46c16.91-7.46,36.18-9.47,54.3-5.88
						c17.37,3.44,33.57,11.98,46.06,24.56c12.29,12.37,20.62,28.37,23.44,45.6C180.96,81.64,181.29,86.06,181.3,90.47
						c0,1.93,3,1.93,3,0c-0.04-18.28-5.97-36.25-16.84-50.95c-10.81-14.62-25.94-25.69-43.07-31.76
						C106.4,1.38,86.44,0.71,68.04,5.74C50.5,10.54,34.43,20.57,22.6,34.42C10.78,48.24,3.45,65.52,1.98,83.67
						c-1.48,18.31,3.11,36.88,12.89,52.43c9.61,15.28,23.9,27.44,40.44,34.65c17.53,7.64,37.2,9.73,55.97,6.08
						c17.97-3.5,34.81-12.42,47.7-25.43c12.69-12.8,21.39-29.44,24.23-47.27c0.72-4.52,1.09-9.08,1.09-13.65
						C184.3,88.54,181.3,88.54,181.3,90.47L181.3,90.47z"/>
				</g>
			</g>
		</g>
		<g>
			<g>
				<defs>
					<path id="SVGID_1_" d="M182.8,90.47c0.02,47.82-40.17,86.6-89.77,86.62C43.44,177.11,3.22,138.35,3.2,90.53
						S43.38,3.93,92.97,3.91S182.78,42.65,182.8,90.47"/>
				</defs>
				<clipPath id="SVGID_2_">
					<use xlink:href="#SVGID_1_"  style="overflow:visible;"/>
				</clipPath>
				<ellipse class="st1" cx="94.33" cy="159.63" rx="59.5" ry="44"/>
			</g>
			<g>
				<defs>
					<path id="SVGID_3_" d="M182.8,90.47c0.02,47.82-40.17,86.6-89.77,86.62C43.44,177.11,3.22,138.35,3.2,90.53
						S43.38,3.93,92.97,3.91S182.78,42.65,182.8,90.47"/>
				</defs>
				<clipPath id="SVGID_4_">
					<use xlink:href="#SVGID_3_"  style="overflow:visible;"/>
				</clipPath>
				<g class="st2">
					<ellipse class="st3" cx="94.33" cy="159.63" rx="59.5" ry="44"/>
					<g>
						<path class="st4" d="M49.42,118.31c-6.51,4.24-12.24,9.66-16.83,15.93c-7.03,9.61-11.28,22.67-6.18,33.43
							c3.77,7.96,11.94,13.03,20.36,15.64c20.71,6.4,44.94-0.8,58.81-17.46c1.51-1.82,2.94-3.8,3.55-6.09
							c1.22-4.6-1.17-9.53-4.66-12.77c-3.93-3.65-9.29-5.72-14.65-5.65c-10.28,0.13-19.43,7.65-29.71,7.52
							c-0.88-0.01-1.79-0.09-2.59-0.45c-2.16-0.99-2.88-3.91-2.1-6.16c0.78-2.25,2.67-3.92,4.62-5.28
							c7.69-5.39,17.17-7.59,26.5-8.65c8.23-0.93,21.63,0.95,29.71,2.73c17.13,3.76,32.03,16.44,38.48,32.75
							c0.42,1.05,0.88,2.22,1.89,2.73c0.91,0.47,2.01,0.26,3,0c5.2-1.38,5.09-6.29,8.29-10.63c3.19-4.33,4.52-10.15,2.93-15.29
							c-0.83-2.66-2.37-5.05-4.03-7.29c-8.44-11.41-20.42-20.15-33.86-24.7c-12.4-4.2-25.72-4.83-38.81-4.62
							c-4.72,0.08-9.47,0.26-14.06,1.33c-4.72,1.1-9.18,3.1-13.54,5.2c-5.49,2.63-10.9,5.43-16.22,8.39
							c0.9,0.17,1.79,0.34,2.69,0.51"/>
						<g>
							<path d="M48.66,117.01c-7.57,4.96-14.3,11.45-19.17,19.11c-4.55,7.15-7.68,15.91-6.62,24.48
								c2.16,17.49,20.8,25.57,36.5,26.44c15.86,0.87,32.1-5.04,43.54-16.1c2.95-2.86,6.17-6.21,7.49-10.18
								c1.35-4.05,0.09-8.5-2.32-11.89c-5.25-7.39-14.73-10.22-23.39-8.43c-4.22,0.87-8.19,2.6-12.2,4.11
								c-4.05,1.52-8.42,3.05-12.81,2.79c-2.02-0.12-3.17-1.46-3.05-3.49c0.12-2.03,1.7-3.66,3.21-4.87
								c3.62-2.9,8.05-4.87,12.43-6.27c8.18-2.61,16.72-3.53,25.26-2.9c7.83,0.57,16.02,1.62,23.5,4.1
								c7.6,2.53,14.57,6.88,20.28,12.48c2.86,2.8,5.42,5.91,7.58,9.28c1.1,1.71,2.1,3.49,2.99,5.32c0.83,1.7,1.34,3.69,2.38,5.26
								c2.32,3.52,7.56,1.89,9.93-0.78c1.11-1.25,1.83-2.74,2.52-4.25c0.82-1.79,1.73-3.44,2.85-5.07c2.45-3.56,3.78-8.08,3.4-12.4
								c-0.42-4.72-2.87-8.64-5.69-12.32c-11.05-14.37-27.19-23.84-44.97-27.1c-9.96-1.82-20.17-2.07-30.27-1.8
								c-5.08,0.14-10.17,0.58-15.05,2.07c-4.78,1.46-9.31,3.68-13.78,5.87c-4.6,2.26-9.14,4.64-13.63,7.13
								c-1.07,0.59-0.93,2.5,0.36,2.74c0.9,0.17,1.79,0.34,2.69,0.51c1.89,0.36,2.7-2.53,0.8-2.89c-0.9-0.17-1.79-0.34-2.69-0.51
								c0.12,0.91,0.24,1.83,0.36,2.74c4.41-2.45,8.88-4.79,13.41-7.02c4.46-2.19,8.95-4.4,13.73-5.81
								c4.72-1.39,9.61-1.74,14.51-1.85c4.92-0.11,9.85-0.1,14.77,0.16c9.56,0.49,19.12,1.98,28.07,5.48
								c7.79,3.05,15.02,7.6,21.19,13.24c3.11,2.84,5.99,5.97,8.52,9.34c2.68,3.58,4.89,7.4,4.73,12.01
								c-0.08,2.15-0.62,4.31-1.53,6.25c-0.85,1.83-2.15,3.35-3.11,5.12c-1.46,2.68-2.29,6.52-5.45,7.73
								c-0.72,0.28-1.93,0.69-2.66,0.29c-0.71-0.4-1-1.57-1.28-2.27c-0.73-1.78-1.53-3.52-2.44-5.21c-1.84-3.43-4.07-6.64-6.58-9.6
								c-4.97-5.87-11.21-10.75-18.11-14.15c-6.86-3.37-14.21-4.93-21.73-6.02c-7.82-1.13-15.66-1.78-23.52-0.7
								c-8.75,1.2-17.77,3.6-24.96,8.95c-3.08,2.29-5.82,5.66-4.81,9.74c0.43,1.75,1.6,3.28,3.29,3.97c1.95,0.8,4.31,0.56,6.36,0.29
								c8.35-1.09,15.61-6.12,23.96-7.14c8.11-0.99,18.06,3.38,20.22,11.9c1.1,4.36-1.33,7.87-4.09,11
								c-2.54,2.88-5.4,5.48-8.52,7.72c-6.22,4.46-13.32,7.58-20.79,9.22c-7.42,1.63-15.21,1.76-22.65,0.18
								c-7.58-1.61-15.2-4.93-20.42-10.83c-12.24-13.82-2.03-33.48,8.95-44.43c3.06-3.06,6.43-5.78,10.05-8.15
								C51.78,118.55,50.28,115.95,48.66,117.01L48.66,117.01z"/>
						</g>
					</g>
					<g>
						<g>
							<circle class="st4" cx="114.32" cy="26.67" r="22.67"/>
							<g>
								<path d="M135.5,26.67c-0.07,8.77-5.58,16.91-13.9,19.9c-8.44,3.03-17.95,0.4-23.67-6.49c-5.65-6.8-6.29-16.79-1.75-24.33
									c4.53-7.52,13.55-11.59,22.19-9.87C128.26,7.85,135.42,16.62,135.5,26.67c0.01,1.93,3.01,1.93,3,0
									c-0.08-10.12-6.44-19.23-15.95-22.73c-9.49-3.49-20.6-0.41-26.95,7.45c-6.36,7.88-7.24,19.17-1.92,27.85
									c5.28,8.64,15.58,13.08,25.49,11.11c11.18-2.22,19.24-12.38,19.33-23.68C138.51,24.74,135.51,24.74,135.5,26.67z"/>
							</g>
						</g>
						<g>
							<g>
								<defs>
									<path id="SVGID_5_" d="M143.66,71.68c0.08-1.01,0.14-2.03,0.14-3.07c0-25.67-26.39-46.48-58.95-46.48
										S23.63,47.08,25.9,81.09c0.06,0.9,0.16,1.78,0.27,2.64c-0.17,1-0.27,2-0.27,3.03c0,18.16,27.91,32.88,62.35,32.88
										s60.08-15.85,60.08-34.01C148.33,80.19,148.08,76.2,143.66,71.68z"/>
								</defs>
								<clipPath id="SVGID_6_">
									<use xlink:href="#SVGID_5_"  style="overflow:visible;"/>
								</clipPath>
								<g class="st5">
									<path class="st6" d="M143.66,71.68c0.08-1.01,0.14-2.03,0.14-3.07c0-25.67-26.39-46.48-58.95-46.48S23.63,47.08,25.9,81.09
										c0.06,0.9,0.16,1.78,0.27,2.64c-0.17,1-0.27,2-0.27,3.03c0,18.16,27.91,32.88,62.35,32.88s60.08-15.85,60.08-34.01
										C148.33,80.19,148.08,76.2,143.66,71.68z"/>
									<g>
										<path d="M145.16,71.68c0.9-11.42-3.45-22.39-11.01-30.85c-8.06-9.02-19.26-14.99-30.9-17.93
											c-12.23-3.09-25.36-3.13-37.45,0.6c-11.06,3.41-21.25,9.86-28.7,18.75C29.51,51.3,25,62.56,24.37,74.37
											c-0.09,1.58-0.1,3.17-0.05,4.75c0.06,1.73,0.49,3.57,0.27,5.27c-0.32,2.45-0.15,4.95,0.48,7.34
											c1.16,4.39,3.81,8.27,7,11.45c8.4,8.36,20.36,12.85,31.72,15.36c14.37,3.17,29.57,3.53,44.04,0.81
											c11.67-2.19,23.67-6.59,32.55-14.72c3.44-3.15,6.33-6.95,8.02-11.32c1.75-4.52,1.94-9.9,0.91-14.61
											c-0.68-3.12-2.38-5.79-4.58-8.07c-1.34-1.39-3.46,0.73-2.12,2.12c2.14,2.22,3.56,4.76,4,7.84
											c0.34,2.38,0.41,4.99,0.09,7.39c-0.52,3.93-2.37,7.63-4.83,10.7c-6.63,8.28-17,13.1-26.99,15.94
											c-13.48,3.83-27.92,4.4-41.77,2.55c-11.84-1.58-24.06-5.02-33.95-11.95c-3.65-2.56-7.02-5.73-9.26-9.62
											c-0.98-1.7-1.72-3.52-2.13-5.45c-0.19-0.89-0.31-1.78-0.34-2.69c-0.06-1.62,0.3-3.2,0.13-4.81
											c-1.25-11.33,1.5-22.99,7.56-32.62c5.82-9.26,14.52-16.46,24.44-20.97c10.69-4.86,22.55-6.27,34.16-4.9
											c11.64,1.38,23.26,5.73,32.41,13.16c8.06,6.55,14.16,15.52,15.79,25.91c0.44,2.8,0.48,5.63,0.26,8.45
											C142,73.61,145.01,73.6,145.16,71.68z"/>
									</g>
								</g>
							</g>
							<g>
								<defs>
									<path id="SVGID_7_" d="M143.66,71.68c0.08-1.01,0.14-2.03,0.14-3.07c0-25.67-26.39-46.48-58.95-46.48
										S23.63,47.08,25.9,81.09c0.06,0.9,0.16,1.78,0.27,2.64c-0.17,1-0.27,2-0.27,3.03c0,18.16,27.91,32.88,62.35,32.88
										s60.08-15.85,60.08-34.01C148.33,80.19,148.08,76.2,143.66,71.68z"/>
								</defs>
								<clipPath id="SVGID_8_">
									<use xlink:href="#SVGID_7_"  style="overflow:visible;"/>
								</clipPath>
								<g class="st7">
									<g>
										<path class="st4" d="M58.78,95.82c-1.94,0-4.52-1.31-5.46-2.95c-0.95-1.64-1.22-3.56-1.3-5.43
											c-0.52-10.97,4.93-22,13.97-28.62c1.92-1.41,4.02-2.64,6.33-3.3c6.67-1.92,14.55,1.8,17.09,8.09
											c1.84,4.54,3.39,9.19,3.39,14.08c0,4.53,0.42,4.33,0,6.8c-0.2,1.15-1.66,3.53-2.27,4.53c-0.57,0.94-3.62,3.9-4.53,4.53
											C78.4,98.83,67.95,97.52,58.78,95.82"/>
									</g>
									<g>
										<path class="st4" d="M149.47,84.49c2.86,3.79-8.51,7.49-10.64,8.03c-5.13,1.3-9.7,1.65-14.3-1.23
											c-3.72-2.33-8.61-7.53-10.54-11.5c-2.17-4.46-1.43-13.1,0.33-17.67c3.99-10.36,17.69-16.48,26.61-7.26
											c3.79,3.92,2.43,9.23,4,13.75C146.82,74.06,151.76,78.15,149.47,84.49"/>
									</g>
								</g>
							</g>
						</g>
						<g>
							<g>
								<path d="M145.16,71.68c0.9-11.42-3.45-22.39-11.01-30.85c-8.06-9.02-19.26-14.99-30.9-17.93
									c-12.23-3.09-25.36-3.13-37.45,0.6c-11.06,3.41-21.25,9.86-28.7,18.75C29.51,51.3,25,62.56,24.37,74.37
									c-0.09,1.58-0.1,3.17-0.05,4.75c0.06,1.73,0.49,3.57,0.27,5.27c-0.32,2.45-0.15,4.95,0.48,7.34c1.16,4.39,3.81,8.27,7,11.45
									c8.4,8.36,20.36,12.85,31.72,15.36c14.37,3.17,29.57,3.53,44.04,0.81c11.67-2.19,23.67-6.59,32.55-14.72
									c3.44-3.15,6.33-6.95,8.02-11.32c1.75-4.52,1.94-9.9,0.91-14.61c-0.68-3.12-2.38-5.79-4.58-8.07
									c-1.34-1.39-3.46,0.73-2.12,2.12c2.14,2.22,3.56,4.76,4,7.84c0.34,2.38,0.41,4.99,0.09,7.39c-0.52,3.93-2.37,7.63-4.83,10.7
									c-6.63,8.28-17,13.1-26.99,15.94c-13.48,3.83-27.92,4.4-41.77,2.55c-11.84-1.58-24.06-5.02-33.95-11.95
									c-3.65-2.56-7.02-5.73-9.26-9.62c-0.98-1.7-1.72-3.52-2.13-5.45c-0.19-0.89-0.31-1.78-0.34-2.69
									c-0.06-1.62,0.3-3.2,0.13-4.81c-1.25-11.33,1.5-22.99,7.56-32.62c5.82-9.26,14.52-16.46,24.44-20.97
									c10.69-4.86,22.55-6.27,34.16-4.9c11.64,1.38,23.26,5.73,32.41,13.16c8.06,6.55,14.16,15.52,15.79,25.91
									c0.44,2.8,0.48,5.63,0.26,8.45C142,73.61,145.01,73.6,145.16,71.68z"/>
							</g>
						</g>
						<g>
							<ellipse class="st6" cx="78.05" cy="75.42" rx="11.34" ry="13.6"/>
						</g>
						<g>
							<path class="st4" d="M40.11,58.38c3.86-11.88,11.38-22,21.18-28.87c-2.71-9.49-11.43-16.44-21.78-16.44
								c-12.52,0-22.67,10.15-22.67,22.67s10.15,22.67,22.67,22.67C39.71,58.41,39.91,58.39,40.11,58.38z"/>
							<g>
								<path d="M41.56,58.78C45.24,47.57,52.4,37.63,62.05,30.8c0.54-0.38,0.89-1.02,0.69-1.69c-2.02-6.86-6.97-12.66-13.55-15.51
									c-6.66-2.89-14.37-2.65-20.82,0.69c-6.09,3.14-10.68,8.97-12.32,15.62c-1.68,6.85-0.29,14.34,3.91,20.03
									c4.6,6.23,12.31,10.39,20.16,9.94c1.92-0.11,1.93-3.11,0-3c-6.09,0.34-12.17-2.43-16.25-6.88
									c-4.19-4.57-6.15-10.89-5.36-17.03c0.76-5.93,4.16-11.43,9.12-14.76c5.26-3.54,11.89-4.57,17.97-2.75
									c6.87,2.05,12.24,7.6,14.25,14.45c0.23-0.56,0.46-1.13,0.69-1.69c-10.32,7.3-17.93,17.77-21.87,29.77
									C38.06,59.82,40.96,60.61,41.56,58.78z"/>
							</g>
						</g>
						<g>
							<ellipse class="st6" cx="129.06" cy="70.88" rx="11.34" ry="13.6"/>
						</g>
						<g>
							<path d="M127.93,61.82c-0.65,0-1.27,0.11-1.88,0.28c1.75,0.63,3.01,2.29,3.01,4.25c0,2.5-2.03,4.53-4.53,4.53
								c-1.85,0-3.43-1.11-4.14-2.7c-0.23,0.86-0.4,1.75-0.4,2.7c0,5.01,3.55,9.07,7.94,9.07c4.39,0,7.94-4.06,7.94-9.07
								C135.86,65.88,132.31,61.82,127.93,61.82z"/>
						</g>
						<g>
							<path d="M104.21,76.75c-1.63-0.88-3.17-1.93-4.6-3.11c0.16-1.02,1.38-1.46,2.41-1.58c1.72-0.2,3.47-0.06,5.13,0.41
								c0.24,0.07,0.52,0.19,0.55,0.43c0.02,0.17-0.09,0.32-0.2,0.45c-1.1,1.32-2.05,2.7-3.66,3.28"/>
							<g>
								<path d="M104.96,75.45c-0.79-0.43-1.56-0.9-2.31-1.4c-0.36-0.24-0.72-0.5-1.08-0.76c-0.08-0.06-0.16-0.12-0.23-0.18
									c-0.06-0.05-0.26-0.2-0.1-0.08c-0.19-0.15-0.38-0.3-0.57-0.46c0.13,0.49,0.26,0.97,0.39,1.46c0.07-0.38-0.01-0.01-0.03-0.02
									c0.03-0.06,0.06-0.11,0.1-0.17c-0.13,0.16-0.16,0.2-0.08,0.11c0.03-0.04,0.07-0.07,0.1-0.1c0.1-0.08,0.1-0.09,0-0.01
									c-0.1,0.08-0.09,0.08,0.01,0c0.04-0.03,0.09-0.05,0.14-0.08c0.31-0.2-0.2,0.04,0.08-0.04c0.1-0.03,0.21-0.07,0.31-0.1
									s0.21-0.05,0.32-0.07c0.1-0.02,0.43-0.11,0.02-0.01c0.57-0.13,1.24-0.1,1.83-0.08c0.3,0.01,0.61,0.02,0.91,0.05
									c0.15,0.01,0.3,0.03,0.45,0.05c-0.27-0.04,0.22,0.04,0.28,0.05c0.3,0.05,0.6,0.12,0.89,0.19c0.14,0.03,0.28,0.09,0.42,0.11
									c0.1,0.03,0.07,0.02-0.1-0.05c0.16-1.52,0.05-2.02-0.35-1.5c-0.35,0.36-0.64,0.79-0.97,1.18c-0.32,0.37-0.66,0.74-1.03,1.06
									c-0.09,0.08-0.29,0.22-0.08,0.07c-0.1,0.07-0.2,0.14-0.3,0.21c-0.12,0.08-0.25,0.15-0.37,0.21
									c-0.06,0.03-0.11,0.06-0.17,0.08c0.17-0.07,0.17-0.07,0.01-0.01c-0.73,0.28-1.31,1.02-1.05,1.85
									c0.23,0.71,1.06,1.35,1.85,1.05c1.17-0.44,2.14-1.15,2.98-2.07c0.35-0.39,0.68-0.8,1.02-1.21c0.57-0.69,1.2-1.43,0.89-2.4
									c-0.29-0.89-1.09-1.27-1.94-1.48c-0.72-0.18-1.46-0.29-2.2-0.37c-1.28-0.14-2.63-0.13-3.89,0.15
									c-1.3,0.29-2.66,1.14-2.93,2.54c-0.1,0.49-0.04,1.11,0.39,1.46c1.53,1.26,3.16,2.39,4.9,3.34c0.69,0.38,1.67,0.19,2.05-0.54
									C105.87,76.8,105.7,75.86,104.96,75.45L104.96,75.45z"/>
							</g>
						</g>
						<g>
							<g>
								<path d="M77.87,43.95c0.19,0.02,0.38,0.04,0.58,0.06c0.18,0.02,0.19,0.02,0.03,0c0.1,0.01,0.19,0.03,0.29,0.04
									c0.33,0.05,0.66,0.11,0.99,0.18c0.68,0.15,1.36,0.33,2.02,0.55c0.34,0.12,0.68,0.24,1.02,0.38
									c0.44,0.17-0.26-0.12,0.17,0.07c0.18,0.08,0.35,0.16,0.53,0.24c0.65,0.31,1.28,0.67,1.89,1.05
									c0.66,0.42,1.68,0.16,2.05-0.54c0.39-0.74,0.17-1.6-0.54-2.05c-2.73-1.72-5.83-2.71-9.03-2.99c-0.78-0.07-1.53,0.74-1.5,1.5
									C76.41,43.33,77.03,43.88,77.87,43.95L77.87,43.95z"/>
							</g>
						</g>
						<g>
							<g>
								<path d="M114.98,43.04c0.48-0.27,0.96-0.52,1.46-0.74c0.07-0.03,0.14-0.06,0.21-0.09c-0.18,0.08-0.19,0.08-0.03,0.02
									c0.11-0.04,0.22-0.09,0.33-0.13c0.27-0.1,0.55-0.2,0.83-0.29c0.52-0.17,1.05-0.31,1.58-0.42c0.27-0.06,0.53-0.11,0.8-0.15
									c0.13-0.02,0.27-0.05,0.4-0.06c-0.42,0.04,0.1-0.01,0.18-0.02c0.41-0.04,0.76-0.14,1.06-0.44c0.26-0.26,0.46-0.69,0.44-1.06
									c-0.03-0.74-0.66-1.59-1.5-1.5c-2.57,0.28-5.03,1.02-7.28,2.3c-0.68,0.39-0.97,1.38-0.54,2.05
									C113.37,43.19,114.24,43.45,114.98,43.04L114.98,43.04z"/>
							</g>
						</g>
						<g>
							<g>
								<path d="M97.85,84.33c1.93,0.89,4.14,1.06,5.8-0.49c1.62-1.52,1.91-4.04,1.78-6.14c-0.05-0.81-0.65-1.5-1.5-1.5
									s-1.45,0.69-1.5,1.5c-0.23,3.85,3.08,7.15,6.93,6.92c0.81-0.05,1.5-0.65,1.5-1.5c0-0.77-0.69-1.55-1.5-1.5
									c-2.31,0.14-4.06-1.61-3.93-3.92c-1,0-2,0-3,0c0.03,0.49,0.04,0.97,0.02,1.46c-0.01,0.12-0.02,0.25-0.03,0.37
									c0,0.03-0.04,0.32-0.02,0.16c0.03-0.19-0.03,0.18-0.04,0.21c-0.02,0.09-0.04,0.17-0.06,0.26c-0.04,0.19-0.09,0.37-0.15,0.55
									c-0.03,0.1-0.07,0.19-0.1,0.28c0.04-0.11,0.09-0.19,0.01-0.04c-0.09,0.16-0.18,0.32-0.27,0.48s-0.02,0.03,0.05-0.05
									c-0.06,0.06-0.11,0.13-0.17,0.19c-0.09,0.1-0.43,0.33-0.1,0.13c-0.12,0.08-0.24,0.16-0.37,0.23
									c-0.05,0.03-0.25,0.1-0.04,0.02c0.23-0.09-0.04,0.01-0.09,0.02c-0.06,0.01-0.13,0.03-0.19,0.05c-0.25,0.09,0.23,0.01,0.05,0
									c-0.15-0.01-0.31,0.02-0.47,0.01c-0.07,0-0.14-0.01-0.22-0.02c0.35,0.01,0.11,0.02,0.01-0.01
									c-0.18-0.04-0.35-0.08-0.52-0.14c-0.08-0.03-0.16-0.06-0.24-0.08c-0.4-0.13,0.26,0.13-0.13-0.06
									c-0.74-0.34-1.62-0.21-2.05,0.54C96.94,82.92,97.11,83.99,97.85,84.33L97.85,84.33z"/>
							</g>
						</g>
						<g>
							<path d="M78.05,66.35c-0.65,0-1.27,0.11-1.88,0.28c1.75,0.63,3.01,2.29,3.01,4.25c0,2.5-2.03,4.53-4.53,4.53
								c-1.85,0-3.43-1.11-4.14-2.7c-0.23,0.86-0.4,1.75-0.4,2.7c0,5.01,3.55,9.07,7.94,9.07s7.94-4.06,7.94-9.07
								C85.98,70.41,82.43,66.35,78.05,66.35z"/>
						</g>
					</g>
					<g>
						<path class="st8" d="M134.02,102.7l0.96,4.17c0.44,1.9-1.16,3.89-3.57,4.45l-18.36,4.23c-2.41,0.55-4.71-0.54-5.15-2.44
							l-0.96-4.17c-0.44-1.9-2.74-2.99-5.15-2.44l-7.71,1.78c-2.41,0.55-4,2.54-3.57,4.45l7.6,32.99c0.44,1.9,2.74,2.99,5.15,2.44
							l7.71-1.78c2.41-0.55,4.71,0.54,5.15,2.44l0.85,3.69c0.44,1.9,2.74,2.99,5.15,2.44l18.36-4.23c2.41-0.55,4-2.54,3.57-4.45
							l-0.85-3.69c-0.44-1.9,1.16-3.89,3.57-4.45l7.71-1.78c2.41-0.55,4-2.54,3.57-4.45l-7.6-32.99c-0.44-1.9-2.74-2.99-5.15-2.44
							l-7.71,1.78C135.18,98.81,133.58,100.8,134.02,102.7z"/>
						<g>
							<path d="M132.57,103.1c0.19,0.81,0.37,1.63,0.56,2.44c0.17,0.73,0.56,1.67,0.34,2.42c-0.47,1.6-2.36,1.88-3.76,2.2
								c-4.1,0.94-8.2,1.89-12.3,2.83c-1.48,0.34-2.95,0.69-4.43,1.02c-0.68,0.15-1.37,0.24-2.06,0.06c-1.13-0.29-1.49-1-1.72-2.03
								c-0.49-2.11-0.66-4.61-2.5-6.02c-2.03-1.55-4.4-1.19-6.69-0.66c-3.84,0.88-11.3,1.43-11.05,6.9
								c0.04,0.78,0.28,1.57,0.45,2.32c0.34,1.48,0.68,2.95,1.02,4.43c1.89,8.21,3.78,16.43,5.68,24.64
								c0.18,0.79,0.34,1.6,0.55,2.38c0.77,2.82,3.7,4.06,6.43,3.64c1.73-0.26,3.45-0.76,5.15-1.15c1.65-0.38,4.16-1.4,5.72-0.34
								c0.79,0.54,0.84,1.52,1.04,2.38c0.2,0.86,0.34,1.77,0.62,2.61c0.97,2.93,4.28,3.74,7,3.17c3.45-0.71,6.87-1.58,10.3-2.37
								c2.01-0.46,4.02-0.93,6.03-1.39c1.31-0.3,2.68-0.52,3.85-1.22c1.4-0.82,2.52-2.19,2.76-3.82c0.15-1.02-0.12-1.97-0.35-2.95
								c-0.19-0.81-0.53-1.7-0.57-2.54c-0.07-1.41,1.4-2.21,2.57-2.51c1.77-0.45,3.56-0.82,5.34-1.23c2.14-0.49,4.33-0.86,5.84-2.64
								c2.05-2.42,0.82-5.42,0.2-8.13c-1.91-8.31-3.83-16.63-5.74-24.94c-0.6-2.6-0.79-5.8-3.47-7.14
								c-2.14-1.06-4.29-0.49-6.47,0.01c-1.87,0.43-3.76,0.82-5.62,1.3C134.34,97.54,132.02,99.94,132.57,103.1
								c0.33,1.9,3.22,1.09,2.89-0.8c-0.38-2.16,2.7-2.64,4.21-2.99c1.9-0.44,3.79-0.89,5.69-1.31c1.47-0.33,3.24-0.16,3.68,1.5
								c0.23,0.86,0.4,1.74,0.6,2.6c1.83,7.94,3.66,15.87,5.48,23.81c0.34,1.48,0.68,2.97,1.03,4.45c0.14,0.62,0.38,1.28,0.44,1.92
								c0.2,2.06-2.27,2.55-3.81,2.91c-1.95,0.45-3.89,0.9-5.84,1.35c-2.39,0.55-4.74,1.98-5.22,4.57
								c-0.35,1.88,0.69,3.68,0.88,5.51c0.19,1.8-1.8,2.46-3.23,2.78c-1.57,0.36-3.14,0.72-4.7,1.08c-3.93,0.9-7.85,1.81-11.78,2.71
								c-1.35,0.31-3.13,0.8-4.16-0.47c-0.48-0.6-0.55-1.65-0.71-2.38c-0.18-0.8-0.31-1.63-0.59-2.4c-1.89-5.2-8.64-2.64-12.46-1.76
								c-1.55,0.36-4.17,1.31-5.22-0.43c-0.33-0.54-0.39-1.35-0.53-1.95c-1.76-7.65-3.53-15.31-5.29-22.96
								c-0.63-2.73-1.32-5.45-1.89-8.2c-0.33-1.61,1.02-2.59,2.48-2.97c1.69-0.43,3.41-0.79,5.12-1.18
								c1.59-0.37,3.91-1.29,5.33-0.07c0.61,0.53,0.68,1.5,0.85,2.24c0.21,0.89,0.38,1.8,0.62,2.68c0.84,3.12,4.1,4.19,7.02,3.6
								c0.93-0.19,1.85-0.43,2.78-0.64c4.08-0.94,8.16-1.88,12.25-2.82c1.09-0.25,2.2-0.48,3.28-0.76c2.71-0.69,5.19-3,4.72-6
								c-0.24-1.5-0.67-2.99-1.01-4.47C135.03,100.42,132.14,101.22,132.57,103.1z"/>
						</g>
					</g>
					<g>
						<path class="st9" d="M127.19,104.27l0.96,4.17c0.44,1.9-1.16,3.89-3.57,4.45l-18.36,4.23c-2.41,0.55-4.71-0.54-5.15-2.44
							l-0.96-4.17c-0.44-1.9-2.74-2.99-5.15-2.44l-7.71,1.78c-2.41,0.55-4,2.54-3.57,4.45l7.6,32.99c0.44,1.9,2.74,2.99,5.15,2.44
							l7.71-1.78c2.41-0.55,4.71,0.54,5.15,2.44l0.85,3.69c0.44,1.9,2.74,2.99,5.15,2.44l18.36-4.23c2.41-0.55,4-2.54,3.57-4.45
							l-0.85-3.69c-0.44-1.9,1.16-3.89,3.57-4.45l7.71-1.78c2.41-0.55,4-2.54,3.57-4.45l-7.6-32.99c-0.44-1.9-2.74-2.99-5.15-2.44
							l-7.71,1.78C128.35,100.38,126.76,102.37,127.19,104.27z"/>
						<g>
							<path d="M125.75,104.67c0.19,0.81,0.37,1.63,0.56,2.44c0.17,0.73,0.56,1.67,0.34,2.42c-0.47,1.6-2.36,1.88-3.76,2.2
								c-4.1,0.94-8.2,1.89-12.3,2.83c-1.48,0.34-2.95,0.69-4.43,1.02c-0.68,0.15-1.37,0.24-2.06,0.06c-1.13-0.29-1.49-1-1.72-2.03
								c-0.49-2.11-0.66-4.61-2.5-6.02c-2.03-1.55-4.4-1.19-6.69-0.66c-3.84,0.88-11.3,1.43-11.05,6.9
								c0.04,0.78,0.28,1.57,0.45,2.32c0.34,1.48,0.68,2.95,1.02,4.43c1.89,8.21,3.78,16.43,5.68,24.64
								c0.18,0.79,0.34,1.6,0.55,2.38c0.77,2.82,3.7,4.06,6.43,3.64c1.73-0.26,3.45-0.76,5.15-1.15c1.65-0.38,4.16-1.4,5.72-0.34
								c0.79,0.54,0.84,1.52,1.04,2.38c0.2,0.86,0.34,1.77,0.62,2.61c0.97,2.93,4.28,3.74,7,3.17c3.45-0.71,6.87-1.58,10.3-2.37
								c2.01-0.46,4.02-0.93,6.03-1.39c1.31-0.3,2.68-0.52,3.85-1.22c1.4-0.82,2.52-2.19,2.76-3.82c0.15-1.02-0.12-1.97-0.35-2.95
								c-0.19-0.81-0.53-1.7-0.57-2.54c-0.07-1.41,1.4-2.21,2.57-2.51c1.77-0.45,3.56-0.82,5.34-1.23c2.14-0.49,4.33-0.86,5.84-2.64
								c2.05-2.42,0.82-5.42,0.2-8.13c-1.91-8.31-3.83-16.63-5.74-24.94c-0.6-2.6-0.79-5.8-3.47-7.14
								c-2.14-1.06-4.29-0.49-6.47,0.01c-1.87,0.43-3.76,0.82-5.62,1.3C127.52,99.11,125.2,101.51,125.75,104.67
								c0.33,1.9,3.22,1.09,2.89-0.8c-0.38-2.16,2.7-2.64,4.21-2.99c1.9-0.44,3.79-0.89,5.69-1.31c1.47-0.33,3.24-0.16,3.68,1.5
								c0.23,0.86,0.4,1.74,0.6,2.6c1.83,7.94,3.66,15.87,5.48,23.81c0.34,1.48,0.68,2.97,1.03,4.45c0.14,0.62,0.38,1.28,0.44,1.92
								c0.2,2.06-2.27,2.55-3.81,2.91c-1.95,0.45-3.89,0.9-5.84,1.35c-2.39,0.55-4.74,1.98-5.22,4.57
								c-0.35,1.88,0.69,3.68,0.88,5.51c0.19,1.8-1.8,2.46-3.23,2.78c-1.57,0.36-3.14,0.72-4.7,1.08c-3.93,0.9-7.85,1.81-11.78,2.71
								c-1.35,0.31-3.13,0.8-4.16-0.47c-0.48-0.6-0.55-1.65-0.71-2.38c-0.18-0.8-0.31-1.63-0.59-2.4c-1.89-5.2-8.64-2.64-12.46-1.76
								c-1.55,0.36-4.17,1.31-5.22-0.43c-0.33-0.54-0.39-1.35-0.53-1.95c-1.76-7.65-3.53-15.31-5.29-22.96
								c-0.63-2.73-1.32-5.45-1.89-8.2c-0.33-1.61,1.02-2.59,2.48-2.97c1.69-0.43,3.41-0.79,5.12-1.18
								c1.59-0.37,3.91-1.29,5.33-0.07c0.61,0.53,0.68,1.5,0.85,2.24c0.21,0.89,0.38,1.8,0.62,2.68c0.84,3.12,4.1,4.19,7.02,3.6
								c0.93-0.19,1.85-0.43,2.78-0.64c4.08-0.94,8.16-1.88,12.25-2.82c1.09-0.25,2.2-0.48,3.28-0.76c2.71-0.69,5.19-3,4.72-6
								c-0.24-1.5-0.67-2.99-1.01-4.47C128.21,101.99,125.31,102.79,125.75,104.67z"/>
						</g>
					</g>
					<g>
						<path class="st4" d="M32.59,134.24c-7.03,9.61-11.28,22.67-6.18,33.43c3.77,7.96,11.94,13.03,20.36,15.64
							c20.71,6.4,44.94-0.8,58.81-17.46c1.51-1.82,2.94-3.8,3.55-6.09c1.22-4.6-1.17-9.53-4.66-12.77
							c-3.93-3.65-9.29-5.72-14.65-5.65c-10.28,0.13-19.43,7.65-29.71,7.52c-0.88-0.01-1.79-0.09-2.59-0.45
							c-2.16-0.99-2.88-3.91-2.1-6.16c0.78-2.25,2.67-3.92,4.62-5.28"/>
						<g>
							<path d="M31.29,133.48c-8.34,11.49-12.71,27.95-2.95,39.97c4.38,5.4,10.78,8.94,17.31,11.07c6.39,2.08,13.23,2.89,19.93,2.51
								c13.39-0.76,26.5-6.11,36.38-15.22c2.55-2.35,5.05-4.97,6.91-7.91c1.99-3.14,2.59-6.78,1.51-10.36
								c-2.15-7.11-9.18-12.07-16.28-13.33c-7.56-1.35-14.52,1.64-21.44,4.26c-3.4,1.28-6.93,2.53-10.57,2.81
								c-1.55,0.12-3.78,0.42-4.84-0.99c-0.89-1.2-0.79-2.91-0.15-4.19c0.8-1.62,2.25-2.82,3.69-3.84c1.56-1.11,0.06-3.71-1.51-2.59
								c-2.72,1.94-5.43,4.47-5.65,8.02c-0.21,3.28,1.84,6.15,5.15,6.58c7.08,0.91,14.11-2.8,20.56-5.13
								c3.31-1.19,6.74-2.22,10.27-2.29c3.66-0.08,7.3,0.89,10.46,2.74c3.03,1.78,5.69,4.39,7.04,7.68
								c1.43,3.48,0.82,6.79-1.29,9.83c-3.71,5.32-9.08,9.72-14.6,13.03c-5.56,3.33-11.68,5.66-18.04,6.93
								c-12.57,2.52-27,0.83-37.58-6.85c-5.49-3.99-9.31-9.91-9.86-16.75c-0.56-7.05,1.78-14.06,5.28-20.09
								c0.87-1.5,1.83-2.95,2.85-4.36C35.02,133.43,32.42,131.93,31.29,133.48L31.29,133.48z"/>
						</g>
					</g>
					<g>
						<g>
							<g>
								<path class="st6" d="M97.24,150.66c0.19-0.16,0.38-0.32,0.57-0.47c0.11-0.09,0.22-0.17,0.33-0.26
									c0.15-0.12-0.24,0.18-0.08,0.06c0.05-0.04,0.1-0.07,0.15-0.11c0.41-0.31,0.82-0.6,1.25-0.89c0.85-0.57,1.73-1.09,2.64-1.56
									c0.7-0.36,0.96-1.39,0.54-2.05c-0.46-0.71-1.31-0.93-2.05-0.54c-1.96,1.02-3.78,2.27-5.46,3.7c-0.6,0.51-0.56,1.6,0,2.12
									C95.76,151.24,96.6,151.2,97.24,150.66L97.24,150.66z"/>
							</g>
						</g>
						<g>
							<g>
								<path class="st6" d="M101.71,156.17c1.35-0.17,2.59-0.49,3.84-1.03c1.14-0.49,2.16-1.16,3.11-1.94
									c0.61-0.5,0.56-1.61,0-2.12c-0.65-0.59-1.47-0.53-2.12,0c-0.05,0.04-0.1,0.08-0.15,0.12c-0.13,0.1-0.1,0.08,0.07-0.05
									c-0.04,0.08-0.24,0.18-0.32,0.23c-0.21,0.15-0.43,0.29-0.66,0.43c-0.44,0.26-0.89,0.49-1.35,0.7
									c-0.1,0.05-0.06,0.03,0.13-0.06c-0.06,0.02-0.12,0.05-0.18,0.07c-0.12,0.05-0.25,0.09-0.37,0.14
									c-0.25,0.09-0.5,0.16-0.75,0.23c-0.25,0.07-0.51,0.13-0.77,0.18c-0.13,0.03-0.26,0.05-0.39,0.07
									c-0.06,0.01-0.13,0.02-0.19,0.03c0.24-0.03,0.27-0.04,0.11-0.01c-0.41,0.05-0.76,0.13-1.06,0.44
									c-0.26,0.26-0.46,0.69-0.44,1.06C100.25,155.4,100.88,156.28,101.71,156.17L101.71,156.17z"/>
							</g>
						</g>
						<g>
							<g>
								<path class="st6" d="M105.62,162.62c1.6-0.45,3.15-1.18,4.47-2.19c0.32-0.25,0.58-0.49,0.69-0.9
									c0.1-0.36,0.05-0.84-0.15-1.16c-0.21-0.32-0.51-0.6-0.9-0.69c-0.37-0.08-0.84-0.09-1.16,0.15
									c-0.81,0.62-1.69,1.13-2.63,1.53c0.12-0.05,0.24-0.1,0.36-0.15c-0.48,0.2-0.98,0.38-1.49,0.52
									c-0.76,0.21-1.3,1.07-1.05,1.85C104.02,162.34,104.81,162.85,105.62,162.62L105.62,162.62z"/>
							</g>
						</g>
						<g>
							<g>
								<path class="st6" d="M90.64,146.93c0.36-0.44,0.74-0.86,1.15-1.25c0.2-0.2,0.41-0.39,0.63-0.57c0.1-0.09,0.2-0.17,0.31-0.26
									c0.06-0.05,0.12-0.09,0.17-0.14c0.14-0.12-0.31,0.23-0.06,0.04c0.91-0.68,1.89-1.26,2.92-1.72c0.32-0.14,0.6-0.57,0.69-0.9
									c0.1-0.36,0.05-0.84-0.15-1.16c-0.21-0.32-0.51-0.6-0.9-0.69c-0.42-0.1-0.77-0.02-1.16,0.15c-2.21,0.98-4.21,2.5-5.73,4.37
									c-0.26,0.32-0.44,0.64-0.44,1.06c0,0.37,0.16,0.81,0.44,1.06C89.06,147.44,90.1,147.58,90.64,146.93L90.64,146.93z"/>
							</g>
						</g>
					</g>
				</g>
			</g>
			<g>
				<defs>
					<path id="SVGID_9_" d="M182.8,90.47c0.02,47.82-40.17,86.6-89.77,86.62C43.44,177.11,3.22,138.35,3.2,90.53
						S43.38,3.93,92.97,3.91S182.78,42.65,182.8,90.47"/>
				</defs>
				<clipPath id="SVGID_10_">
					<use xlink:href="#SVGID_9_"  style="overflow:visible;"/>
				</clipPath>
				<g class="st10">
					<g>
						<path class="st6" d="M115.33,133.74c2.79-0.56,5.57-1.12,8.36-1.68c0.05,1.25-0.03,2.5-0.24,3.74
							c-0.34,2.01-1.36,4.27-3.37,4.64c-1.55,0.29-3.1-0.75-3.9-2.11s-1.03-2.96-1.23-4.52"/>
						<g>
							<path d="M115.73,135.19c2.79-0.56,5.57-1.12,8.36-1.68c-0.63-0.48-1.27-0.96-1.9-1.45c0.05,1.35-0.02,2.61-0.28,3.8
								c-0.05,0.24-0.11,0.47-0.18,0.7c-0.04,0.12-0.07,0.23-0.11,0.35c-0.02,0.06-0.04,0.12-0.06,0.17
								c-0.01,0.03-0.11,0.28-0.04,0.1c0.07-0.16-0.07,0.16-0.1,0.21c-0.05,0.11-0.11,0.21-0.17,0.32c-0.06,0.1-0.12,0.2-0.18,0.3
								c-0.07,0.1-0.27,0.34-0.07,0.12c-0.15,0.17-0.3,0.33-0.47,0.49c-0.2,0.19,0.18-0.1-0.05,0.04c-0.11,0.06-0.24,0.12-0.34,0.2
								c-0.15,0.12,0.24-0.06,0.05-0.02c-0.05,0.01-0.11,0.04-0.16,0.06c-0.11,0.03-0.22,0.05-0.34,0.08
								c0.25-0.06,0.01-0.01-0.12-0.01c-0.06,0-0.13-0.01-0.19-0.01c-0.2,0.01,0.22,0.06,0.02,0.01c-0.12-0.03-0.25-0.05-0.37-0.09
								c-0.06-0.02-0.12-0.04-0.18-0.06c0.02,0.01,0.21,0.11,0.06,0.02c-0.11-0.06-0.23-0.12-0.35-0.18
								c-0.07-0.04-0.4-0.27-0.18-0.1c-0.21-0.16-0.4-0.35-0.58-0.55c-0.06-0.07-0.23-0.32-0.1-0.11c-0.08-0.13-0.18-0.26-0.25-0.4
								c-0.09-0.15-0.17-0.31-0.25-0.47c0,0-0.1-0.23-0.05-0.1c0.05,0.11-0.05-0.15-0.06-0.17c-0.12-0.33-0.22-0.67-0.3-1.02
								s-0.15-0.7-0.21-1.05c-0.03-0.18-0.06-0.35-0.08-0.53c-0.01-0.08-0.02-0.15-0.03-0.23c-0.04-0.28,0.05,0.35-0.02-0.13
								c-0.1-0.77-0.62-1.54-1.5-1.5c-0.72,0.03-1.61,0.67-1.5,1.5c0.22,1.68,0.45,3.34,1.22,4.88c0.7,1.41,1.94,2.53,3.43,3.06
								c1.53,0.54,3.18,0.13,4.41-0.88c1.03-0.85,1.67-2.12,2.07-3.38c0.55-1.72,0.67-3.63,0.61-5.42c-0.03-1.02-0.93-1.64-1.9-1.45
								c-2.79,0.56-5.57,1.12-8.36,1.68c-0.77,0.16-1.29,1.11-1.05,1.85C114.15,134.96,114.91,135.36,115.73,135.19L115.73,135.19z"
								/>
						</g>
					</g>
					<g>
						<g>
							<path d="M125.4,123.98c-0.5,0.82-0.32,2,0.4,2.64c0.43,0.38,0.91,0.59,1.49,0.61c0.43,0.02,0.92-0.13,1.28-0.36
								c0.37-0.23,0.71-0.56,0.92-0.95c0.21-0.4,0.31-0.78,0.33-1.22c0.01-0.15-0.02-0.3-0.04-0.44c-0.02-0.16-0.04-0.32-0.09-0.47
								c-0.16-0.44-0.33-0.73-0.63-1.09c-0.46-0.55-1.23-0.86-1.94-0.85c-0.74,0.01-1.47,0.32-1.99,0.85
								c-0.51,0.52-0.85,1.27-0.77,2.01c0.05,0.45,0.14,0.86,0.39,1.26c0.24,0.39,0.53,0.67,0.9,0.93c0.19,0.13,0.41,0.21,0.62,0.3
								c0.22,0.09,0.45,0.11,0.69,0.13c0.47,0.05,0.94-0.1,1.36-0.31c0.21-0.11,0.4-0.26,0.57-0.43c0.08-0.08,0.15-0.17,0.22-0.27
								c0.07-0.09,0.15-0.18,0.2-0.28c0.29-0.53,0.38-1.13,0.22-1.71c-0.1-0.36-0.36-0.71-0.69-0.9c-0.32-0.19-0.8-0.27-1.16-0.15
								c-0.36,0.12-0.71,0.34-0.9,0.69c-0.19,0.36-0.26,0.76-0.15,1.16c0.01,0.03,0.02,0.07,0.02,0.1c-0.02-0.13-0.04-0.27-0.05-0.4
								c0.01,0.07,0.01,0.13,0,0.2c0.02-0.13,0.04-0.27,0.05-0.4c-0.01,0.07-0.03,0.13-0.05,0.19c0.05-0.12,0.1-0.24,0.15-0.36
								c-0.03,0.07-0.07,0.14-0.12,0.2c0.08-0.1,0.16-0.2,0.23-0.3c-0.06,0.07-0.12,0.14-0.19,0.19c0.1-0.08,0.2-0.16,0.3-0.23
								c-0.08,0.06-0.15,0.1-0.24,0.14c0.12-0.05,0.24-0.1,0.36-0.15c-0.09,0.04-0.17,0.06-0.27,0.08c0.13-0.02,0.27-0.04,0.4-0.05
								c-0.09,0.01-0.18,0.01-0.27,0c0.13,0.02,0.27,0.04,0.4,0.05c-0.1-0.02-0.19-0.04-0.29-0.08c0.12,0.05,0.24,0.1,0.36,0.15
								c-0.1-0.04-0.2-0.1-0.29-0.17c0.1,0.08,0.2,0.16,0.3,0.23c-0.1-0.08-0.18-0.16-0.26-0.26c0.08,0.1,0.16,0.2,0.23,0.3
								c-0.07-0.09-0.12-0.19-0.17-0.29c0.05,0.12,0.1,0.24,0.15,0.36c-0.04-0.1-0.07-0.21-0.09-0.32c0.02,0.13,0.04,0.27,0.05,0.4
								c-0.01-0.1-0.01-0.2,0-0.3c-0.02,0.13-0.04,0.27-0.05,0.4c0.02-0.09,0.04-0.18,0.08-0.27c-0.05,0.12-0.1,0.24-0.15,0.36
								c0.04-0.1,0.1-0.18,0.16-0.27c-0.08,0.1-0.16,0.2-0.23,0.3c0.07-0.08,0.14-0.16,0.22-0.22c-0.1,0.08-0.2,0.16-0.3,0.23
								c0.1-0.08,0.21-0.14,0.33-0.19c-0.12,0.05-0.24,0.1-0.36,0.15c0.11-0.04,0.22-0.07,0.33-0.09c-0.13,0.02-0.27,0.04-0.4,0.05
								c0.1-0.01,0.21-0.01,0.31,0c-0.13-0.02-0.27-0.04-0.4-0.05c0.09,0.01,0.18,0.04,0.27,0.07c-0.12-0.05-0.24-0.1-0.36-0.15
								c0.08,0.04,0.16,0.08,0.24,0.14c-0.1-0.08-0.2-0.16-0.3-0.23c0.09,0.07,0.17,0.15,0.24,0.24c-0.08-0.1-0.16-0.2-0.23-0.3
								c0.07,0.09,0.12,0.19,0.17,0.29c-0.05-0.12-0.1-0.24-0.15-0.36c0.05,0.11,0.08,0.23,0.1,0.35c-0.02-0.13-0.04-0.27-0.05-0.4
								c0.01,0.11,0.02,0.22,0,0.33c0.02-0.13,0.04-0.27,0.05-0.4c-0.01,0.1-0.04,0.2-0.08,0.29c0.05-0.12,0.1-0.24,0.15-0.36
								c-0.04,0.08-0.08,0.16-0.13,0.23c0.08-0.1,0.16-0.2,0.23-0.3c-0.06,0.08-0.12,0.14-0.2,0.2c0.1-0.08,0.2-0.16,0.3-0.23
								c-0.08,0.06-0.15,0.1-0.24,0.14c0.12-0.05,0.24-0.1,0.36-0.15c-0.08,0.03-0.15,0.05-0.23,0.06c0.13-0.02,0.27-0.04,0.4-0.05
								c-0.07,0.01-0.14,0.01-0.21,0c0.13,0.02,0.27,0.04,0.4,0.05c-0.05-0.01-0.1-0.02-0.15-0.04c0.12,0.05,0.24,0.1,0.36,0.15
								c-0.06-0.02-0.11-0.05-0.16-0.09c0.1,0.08,0.2,0.16,0.3,0.23c-0.06-0.04-0.1-0.09-0.15-0.15c0.08,0.1,0.16,0.2,0.23,0.3
								c-0.04-0.05-0.07-0.1-0.09-0.16c0.05,0.12,0.1,0.24,0.15,0.36c-0.03-0.06-0.04-0.13-0.05-0.2c0.02,0.13,0.04,0.27,0.05,0.4
								c0-0.05,0-0.1,0-0.14c-0.02,0.13-0.04,0.27-0.05,0.4c0.01-0.05,0.02-0.09,0.04-0.14c-0.05,0.12-0.1,0.24-0.15,0.36
								c0.01-0.03,0.03-0.05,0.04-0.08c0.2-0.33,0.25-0.79,0.15-1.16c-0.1-0.35-0.36-0.73-0.69-0.9c-0.35-0.18-0.77-0.28-1.16-0.15
								C125.92,123.41,125.61,123.64,125.4,123.98L125.4,123.98z"/>
						</g>
					</g>
					<g>
						<g>
							<path d="M106.79,127.8c-0.5,0.82-0.32,2,0.4,2.64c0.43,0.38,0.91,0.59,1.49,0.61c0.43,0.02,0.92-0.13,1.28-0.36
								c0.37-0.23,0.71-0.56,0.92-0.95c0.21-0.4,0.31-0.78,0.33-1.22c0.01-0.15-0.02-0.3-0.04-0.44c-0.02-0.16-0.04-0.32-0.09-0.47
								c-0.16-0.44-0.33-0.73-0.63-1.09c-0.46-0.55-1.23-0.86-1.94-0.85c-0.74,0.01-1.47,0.32-1.99,0.85
								c-0.51,0.52-0.85,1.27-0.77,2.01c0.05,0.45,0.14,0.86,0.39,1.26c0.24,0.39,0.53,0.67,0.9,0.93c0.19,0.13,0.41,0.21,0.62,0.3
								c0.22,0.09,0.45,0.11,0.69,0.13c0.47,0.05,0.94-0.1,1.36-0.31c0.21-0.11,0.4-0.26,0.57-0.43c0.08-0.08,0.15-0.17,0.22-0.27
								c0.07-0.09,0.15-0.18,0.2-0.28c0.29-0.53,0.38-1.13,0.22-1.71c-0.1-0.36-0.36-0.71-0.69-0.9c-0.32-0.19-0.8-0.27-1.16-0.15
								c-0.36,0.12-0.71,0.34-0.9,0.69c-0.19,0.36-0.26,0.76-0.15,1.16c0.01,0.03,0.02,0.07,0.02,0.1c-0.02-0.13-0.04-0.27-0.05-0.4
								c0.01,0.07,0.01,0.13,0,0.2c0.02-0.13,0.04-0.27,0.05-0.4c-0.01,0.07-0.03,0.13-0.05,0.19c0.05-0.12,0.1-0.24,0.15-0.36
								c-0.03,0.07-0.07,0.14-0.12,0.2c0.08-0.1,0.16-0.2,0.23-0.3c-0.06,0.07-0.12,0.14-0.19,0.19c0.1-0.08,0.2-0.16,0.3-0.23
								c-0.08,0.06-0.15,0.1-0.24,0.14c0.12-0.05,0.24-0.1,0.36-0.15c-0.09,0.04-0.17,0.06-0.27,0.08c0.13-0.02,0.27-0.04,0.4-0.05
								c-0.09,0.01-0.18,0.01-0.27,0c0.13,0.02,0.27,0.04,0.4,0.05c-0.1-0.02-0.19-0.04-0.29-0.08c0.12,0.05,0.24,0.1,0.36,0.15
								c-0.1-0.04-0.2-0.1-0.29-0.17c0.1,0.08,0.2,0.16,0.3,0.23c-0.1-0.08-0.18-0.16-0.26-0.26c0.08,0.1,0.16,0.2,0.23,0.3
								c-0.07-0.09-0.12-0.19-0.17-0.29c0.05,0.12,0.1,0.24,0.15,0.36c-0.04-0.1-0.07-0.21-0.09-0.32c0.02,0.13,0.04,0.27,0.05,0.4
								c-0.01-0.1-0.01-0.2,0-0.3c-0.02,0.13-0.04,0.27-0.05,0.4c0.02-0.09,0.04-0.18,0.08-0.27c-0.05,0.12-0.1,0.24-0.15,0.36
								c0.04-0.1,0.1-0.18,0.16-0.27c-0.08,0.1-0.16,0.2-0.23,0.3c0.07-0.08,0.14-0.16,0.22-0.22c-0.1,0.08-0.2,0.16-0.3,0.23
								c0.1-0.08,0.21-0.14,0.33-0.19c-0.12,0.05-0.24,0.1-0.36,0.15c0.11-0.04,0.22-0.07,0.33-0.09c-0.13,0.02-0.27,0.04-0.4,0.05
								c0.1-0.01,0.21-0.01,0.31,0c-0.13-0.02-0.27-0.04-0.4-0.05c0.09,0.01,0.18,0.04,0.27,0.07c-0.12-0.05-0.24-0.1-0.36-0.15
								c0.08,0.04,0.16,0.08,0.24,0.14c-0.1-0.08-0.2-0.16-0.3-0.23c0.09,0.07,0.17,0.15,0.24,0.24c-0.08-0.1-0.16-0.2-0.23-0.3
								c0.07,0.09,0.12,0.19,0.17,0.29c-0.05-0.12-0.1-0.24-0.15-0.36c0.05,0.11,0.08,0.23,0.1,0.35c-0.02-0.13-0.04-0.27-0.05-0.4
								c0.01,0.11,0.02,0.22,0,0.33c0.02-0.13,0.04-0.27,0.05-0.4c-0.01,0.1-0.04,0.2-0.08,0.29c0.05-0.12,0.1-0.24,0.15-0.36
								c-0.04,0.08-0.08,0.16-0.13,0.23c0.08-0.1,0.16-0.2,0.23-0.3c-0.06,0.08-0.12,0.14-0.2,0.2c0.1-0.08,0.2-0.16,0.3-0.23
								c-0.08,0.06-0.15,0.1-0.24,0.14c0.12-0.05,0.24-0.1,0.36-0.15c-0.08,0.03-0.15,0.05-0.23,0.06c0.13-0.02,0.27-0.04,0.4-0.05
								c-0.07,0.01-0.14,0.01-0.21,0c0.13,0.02,0.27,0.04,0.4,0.05c-0.05-0.01-0.1-0.02-0.15-0.04c0.12,0.05,0.24,0.1,0.36,0.15
								c-0.06-0.02-0.11-0.05-0.16-0.09c0.1,0.08,0.2,0.16,0.3,0.23c-0.06-0.04-0.1-0.09-0.15-0.15c0.08,0.1,0.16,0.2,0.23,0.3
								c-0.04-0.05-0.07-0.1-0.09-0.16c0.05,0.12,0.1,0.24,0.15,0.36c-0.03-0.06-0.04-0.13-0.05-0.2c0.02,0.13,0.04,0.27,0.05,0.4
								c0-0.05,0-0.1,0-0.14c-0.02,0.13-0.04,0.27-0.05,0.4c0.01-0.05,0.02-0.09,0.04-0.14c-0.05,0.12-0.1,0.24-0.15,0.36
								c0.01-0.03,0.03-0.05,0.04-0.08c0.2-0.33,0.25-0.79,0.15-1.16c-0.1-0.35-0.36-0.73-0.69-0.9c-0.35-0.18-0.77-0.28-1.16-0.15
								C107.31,127.23,107,127.45,106.79,127.8L106.79,127.8z"/>
						</g>
					</g>
				</g>
			</g>
		</g>
		<g>
			<g>
				<path d="M181.3,90.47c-0.03,17.74-5.8,35.03-16.3,49.32c-10.38,14.11-25.17,24.86-41.67,30.66c-17.42,6.11-36.61,6.8-54.43,1.94
					c-17.03-4.64-32.52-14.35-44.03-27.75c-11.41-13.29-18.56-30.1-19.91-47.58C3.58,79.33,7.98,61.52,17.43,46.47
					c9.28-14.78,23.09-26.43,39.03-33.46c16.91-7.46,36.18-9.47,54.3-5.88c17.37,3.44,33.57,11.98,46.06,24.56
					c12.29,12.37,20.62,28.37,23.44,45.6C180.96,81.64,181.29,86.06,181.3,90.47c0,1.93,3,1.93,3,0
					c-0.04-18.28-5.97-36.25-16.84-50.95c-10.81-14.62-25.94-25.69-43.07-31.76C106.4,1.38,86.44,0.71,68.04,5.74
					C50.5,10.54,34.43,20.57,22.6,34.42C10.78,48.24,3.45,65.52,1.98,83.67c-1.48,18.31,3.11,36.88,12.89,52.43
					c9.61,15.28,23.9,27.44,40.44,34.65c17.53,7.64,37.2,9.73,55.97,6.08c17.97-3.5,34.81-12.42,47.7-25.43
					c12.69-12.8,21.39-29.44,24.23-47.27c0.72-4.52,1.09-9.08,1.09-13.65C184.3,88.54,181.3,88.54,181.3,90.47L181.3,90.47z"/>
			</g>
		</g>
	</g>
</g>
</svg>
