<svg xmlns="http://www.w3.org/2000/svg" viewBox="0 0 381.28 380.33"><defs><style>.cls-1{fill:#4386c6;}.cls-2{fill:#8eb6e0;}.cls-3{fill:#f7c402;}.cls-4{fill:#ffda83;}.cls-5{fill:#7dc4ca;}.cls-6{fill:#b1dcdf;}</style></defs><title>Mblok mapa conceptual</title><g id="gráficos"><rect class="cls-1" x="4.14" y="3.67" width="373" height="373" rx="23.02" ry="23.02"/><path d="M354.12,375.17H33.62c-7.27,0-14.13.11-20.23-5-7.09-5.91-7.75-13.81-7.75-22.12V63.81c0-12.34-.38-24.75,0-37.09C6.06,13,17,5.17,29.81,5.17h278.9c14.84,0,29.68-.14,44.51,0,12.75.11,22.3,9.5,22.42,22.3,0,4.81,0,9.62,0,14.43V350.79c0,12.86-7.62,24-21.52,24.38-1.93.05-1.93,3.05,0,3,14.41-.44,24.44-11.7,24.52-25.81,0-5.5,0-11,0-16.51V71.73c0-14.8.15-29.62,0-44.42A24.94,24.94,0,0,0,354,2.17c-4-.09-8,0-12.06,0H29.62c-11.38,0-21.84,5.32-25.7,16.72C2.25,23.8,2.64,29.14,2.64,34.26v314.1c0,7.21.37,14,5,20.15,5.85,7.69,14.43,9.66,23.46,9.66h323A1.5,1.5,0,0,0,354.12,375.17Z"/><rect class="cls-2" x="27.63" y="27.15" width="326.03" height="326.03" rx="23.02" ry="23.02"/><path d="M330.64,351.68H74.24c-12,0-30.23,2.95-39.27-6.77-8.71-9.38-5.84-27.12-5.84-38.94V152.58c0-34.08-1.06-68.34,0-102.41.41-13.42,11-21.52,23.74-21.52H293.44c12.23,0,24.5-.3,36.73,0,12.51.31,21.85,9.62,22,22.19.05,4.16,0,8.32,0,12.48V328.13c0,12.66-8.23,23.15-21.51,23.55-1.93.06-1.94,3.06,0,3,14-.42,24.37-11.28,24.51-25.19.05-4.31,0-8.63,0-12.94v-227c0-12.94.25-25.89,0-38.82-.26-13.81-10.57-24.68-24.52-25-3-.08-6,0-8.95,0h-269c-9.9,0-19.11,4.13-23.83,13.3-2.72,5.29-2.71,10.73-2.71,16.43V325.53c0,6.4.33,12.5,4,18.12,5.26,8,13.78,11,22.9,11H330.64A1.5,1.5,0,0,0,330.64,351.68Z"/><path class="cls-3" d="M187.3,288.77l-60.17-55.71,53.48-46.79,7,101.9-2-108s81.92,19.47,79.69,26.15-76.88,83.56-76.88,83.56"/><path d="M188.36,287.71,128.19,232v2.12l53.48-46.79-2.56-1.06,6.12,89.19.87,12.71c.13,1.9,3,1.95,3,0l-1.75-94.53-.25-13.47-1.9,1.44c10.75,2.56,21.47,5.32,32.13,8.21,8.59,2.33,17.15,4.75,25.62,7.46,6.15,2,12.7,3.86,18.35,7a6.57,6.57,0,0,1,2.19,1.46c.48.69.31.11.31.23-.07,1.08-2.06,3-2.68,3.73-4,5-8.26,9.66-12.52,14.36-12,13.29-24.39,26.3-36.77,39.27q-12.2,12.76-24.48,25.45c-1.34,1.39.77,3.51,2.12,2.12,20.59-21.2,41.1-42.51,61-64.39,4.46-4.92,9-9.85,13.11-15.06,1.57-2,4.3-4.53,2.67-7.14-2.25-3.64-9.24-5.35-12.92-6.71-8.25-3-16.72-5.54-25.18-7.95q-20.93-6-42.11-11a1.52,1.52,0,0,0-1.9,1.45l1.75,94.52.25,13.48h3L183,199l-.87-12.7a1.52,1.52,0,0,0-2.56-1.07L126.07,232a1.52,1.52,0,0,0,0,2.12l60.17,55.71c1.41,1.31,3.54-.81,2.12-2.12Z"/><path class="cls-4" d="M223,94.9c4.46,2.23,75.76,111.42,75.76,111.42l33.43-69.08Z"/><path d="M222.19,96.2c3.26,1.88,7,9,9.37,12.35,6.28,8.91,12.39,17.93,18.47,27q19.47,28.9,38.55,58.07,4.43,6.75,8.84,13.49a1.52,1.52,0,0,0,2.59,0L333.44,138a1.53,1.53,0,0,0-.9-2.2l-95.48-37-13.71-5.31c-1.8-.7-2.58,2.2-.8,2.89l95.48,37,13.71,5.32-.9-2.21-33.42,69.08H300c-21.34-32.67-42.63-65.43-65-97.37-2.42-3.45-4.85-6.9-7.41-10.25-1.08-1.41-2.25-3.41-3.84-4.33A1.5,1.5,0,0,0,222.19,96.2Z"/><path class="cls-3" d="M224.07,96,223,195.18s78,15.6,75.76,11.14S224.07,96,224.07,96Z"/><path d="M222.57,96l-1,86.72-.14,12.44a1.52,1.52,0,0,0,1.1,1.45q20.74,4.14,41.6,7.73c3.38.58,35.72,7.92,36.11,2.12.16-2.46-4-6.78-5.22-8.63-4.27-6.44-8.6-12.84-12.93-19.25Q265,153.22,247.66,127.92q-11.13-16.33-22.3-32.66c-1.08-1.58-3.68-.08-2.59,1.51q24.51,35.83,48.89,71.74c8.07,11.89,16.25,23.72,24,35.79.21.34,2.33,3.69,1.95,1.93-.26-1.21,0-.4-1.55-.61-1.15-.16-2.39-.08-3.55-.17-8-.63-15.92-2-23.8-3.34-15.18-2.53-30.31-5.36-45.4-8.38l1.1,1.45,1-86.73L225.57,96A1.5,1.5,0,0,0,222.57,96Z"/><path class="cls-3" d="M172.81,91.56l55.66,88S188.22,244.33,191,238.86,172.81,91.56,172.81,91.56Z"/><path d="M171.52,92.32l40.67,64.32,10.31,16.3c1.24,2,2.77,5.9,4.65,7.35-.73-.56.69-1.6-.19-1.11-.37.21-.77,1.24-1,1.61l-3.63,5.83q-5.69,9.12-11.39,18.23Q204,216,197,227.06c-1.66,2.62-3.32,5.24-5,7.84a14.91,14.91,0,0,0-1.61,2.44c-.61,1.69-1-.33.89.4l1.05,1.84c.67-4,.11-10.24-.34-15.07-1.12-11.9-2.62-23.76-4.13-35.62-3.37-26.39-7.07-52.74-10.86-79.08q-1.33-9.33-2.71-18.65c-.28-1.9-3.17-1.09-2.89.8,6.29,42.64,12.75,85.36,17.16,128.24.6,5.83,1.7,13.69.87,18.58a1.57,1.57,0,0,0,1,1.85c2.15.82,5.51-6.39,6.26-7.56q6.57-10.27,13-20.64,10-16,20-32.09a1.5,1.5,0,0,0,0-1.52L181.17,102,174.11,90.8C173.08,89.18,170.48,90.68,171.52,92.32Z"/><path class="cls-4" d="M171.7,90.45c2.23,2.22,20.4,147.3,20.4,147.3L64.74,195.18Z"/><path d="M170.64,91.51c-.57-.72.05.52.14,1,.21,1.18.48,2.36.69,3.54.67,3.74,1.24,7.49,1.81,11.25,1.78,11.77,3.39,23.56,5,35.35q5.23,38.64,10.09,77.32,1.13,8.86,2.24,17.73l1.9-1.45L81,199l-15.82-5.29.66,2.51,93.71-91.76,13.25-13c1.38-1.36-.74-3.48-2.12-2.12L76.93,181.14l-13.25,13a1.52,1.52,0,0,0,.66,2.51L175.88,233.9l15.82,5.29a1.51,1.51,0,0,0,1.9-1.44c-5.41-43.21-10.74-86.46-17.18-129.52-.65-4.38-1.3-8.77-2.09-13.13-.32-1.75-.41-4.26-1.57-5.71S169.44,90,170.64,91.51Z"/><polygon class="cls-3" points="146.07 111.62 186.06 185.91 161.6 249.16 146.07 111.62"/><path d="M144.78,112.37l31.39,58.33L183,183.43c.51,1,1.09,1.92,1.56,2.91.07.15.62-1.12-.35.16-2.31,3-3.36,8.68-4.73,12.21L172,218.07l-11.88,30.7,2.95.4L149.52,128.82l-2-17.2c-.21-1.9-3.21-1.92-3,0L158.16,232l1.94,17.21a1.51,1.51,0,0,0,3,.39l23.67-61.2c1.85-4.77-3.1-10.16-5.34-14.32l-19.84-36.86-14.17-26.32C146.45,109.16,143.86,110.67,144.78,112.37Z"/><polygon class="cls-4" points="49.14 235.29 144.96 110.5 161.6 249.16 49.14 235.29"/><path d="M50.44,236.05l83.91-109.29,11.9-15.5-2.79-.76,14.59,121.62,2,17,1.5-1.5L63.14,235.52l-14-1.73c-1.91-.24-1.89,2.77,0,3l98.46,12.15,14,1.73a1.5,1.5,0,0,0,1.5-1.5L148.5,127.55l-2-17a1.52,1.52,0,0,0-2.8-.76L59.75,219l-11.91,15.5C46.67,236.06,49.27,237.56,50.44,236.05Z"/><polygon class="cls-4" points="161.6 249.16 276.43 273.17 202.9 114.96 161.6 249.16"/><path d="M161.2,250.61l100.42,21,14.41,3a1.53,1.53,0,0,0,1.7-2.21L253,219.15l-39.71-85.43-9.07-19.52c-.57-1.23-2.39-.78-2.74.36L165.29,232.08l-5.14,16.69c-.57,1.85,2.33,2.64,2.9.79L199.21,132l5.13-16.68-2.74.36L226.36,169l39.7,85.43,9.08,19.52,1.69-2.21-100.42-21-14.41-3C160.11,247.32,159.31,250.22,161.2,250.61Z"/><path class="cls-3" d="M275.32,272.06c2.23-8.92,23.39-65.74,23.39-65.74L204,116.07l71.31,156"/><path d="M276.76,272.46c3.18-12.3,8.2-24.3,12.54-36.21q5.37-14.79,10.86-29.53a1.49,1.49,0,0,0-.38-1.46l-82.89-79L205.07,115a1.51,1.51,0,0,0-2.36,1.82l24,52.57,38.37,83.94,8.9,19.47c.8,1.76,3.39.23,2.59-1.51l-24-52.57-38.37-83.94-8.9-19.47L203,117.13l57,54.35,32.12,30.61c1.74,1.66,3.52,3.95,5.55,5.28-1.39-.91.32-1.86-.69-.61a11.22,11.22,0,0,0-1,2.82q-1.74,4.71-3.49,9.43c-6.37,17.31-13.93,34.76-18.55,52.65-.48,1.87,2.41,2.67,2.89.8Z"/><path class="cls-5" d="M119.64,226.4c-10.78,2.39-22.8-4.81-25.78-15.46s3.55-23,14-26.6A32.75,32.75,0,0,1,119.62,183a21.08,21.08,0,0,1,6.75,1.1c4.2,1.57,7.34,5.31,9,9.48a33.82,33.82,0,0,1,1.93,13.23c-.08,4.47-.65,9.18-3.32,12.77-2.88,3.86-8.38,5.61-14.38,6.61"/><path d="M119.25,225c-9.87,1.83-20.63-4.05-23.75-13.78-3-9.28,2-20.25,10.7-24.52,5.14-2.54,12.57-3.06,18.13-1.64,6.4,1.64,9.83,7.68,11,13.77,1,5.42,1.18,12.56-1.26,17.62-2.79,5.76-9,7.26-14.83,8.31-1.9.34-1.09,3.23.8,2.89,6.66-1.2,13.64-3.25,16.76-9.84,2.75-5.81,2.57-13.6,1.42-19.78-1.19-6.38-4.77-12.7-11.05-15.21s-14.87-1.88-20.89.59c-10.53,4.31-16.91,17-13.83,28,3.29,11.76,16,18.67,27.63,16.51,1.9-.35,1.1-3.24-.79-2.89Z"/><path class="cls-6" d="M207.86,232.59c-1.23-3.88-4.28-6.92-7.59-9.29s-7-4.21-10.22-6.66a7.44,7.44,0,0,1-2.67-3.07c-.76-2,.11-4.25,1.54-5.81a10.14,10.14,0,0,1,9.77-2.78,12,12,0,0,1,7.81,6.71,24.85,24.85,0,0,1,4.6-6.93c2-1.92,4.93-3.14,7.63-2.44,3.92,1,5.87,5.65,5.66,9.7A20.49,20.49,0,0,1,219,224.15a47,47,0,0,1-10.48,8.44"/><path d="M209.3,232.19c-2.36-6.15-7.25-9.64-12.66-13-1.48-.92-3-1.79-4.42-2.8-4.47-3.16-3.7-8.36,1.59-9.85,4.94-1.39,9.21,1.73,11.4,5.94a1.51,1.51,0,0,0,2.59,0c1.89-3.66,5.2-10.17,10.53-8.68,4.47,1.25,5,7,4.19,10.8-1.77,7.68-8.47,12.7-14.72,16.72-1.62,1-.11,3.64,1.52,2.59,8.54-5.5,20.17-15.48,15.74-27.13-1.44-3.81-4.82-6.59-9.06-6-5.5.72-8.48,5.75-10.79,10.21h2.59c-3.92-7.52-15.57-11.43-21-2.91-2.31,3.65-1,7.11,2.15,9.68,6.09,5,14.37,7.35,17.42,15.29.69,1.78,3.59,1,2.89-.8Z"/><path d="M120.05,218.49a13.1,13.1,0,0,1-16.85-9.67c-1.36-6.4,1.87-14.39,8.21-16.8,7.31-2.77,17.38,2.31,15.6,11.13-.74,3.7-4.14,7.51-8.17,7.56-2.67,0-4.77-1.71-6.09-3.85l-1-2q1.91-9.27,5.37-1.58a1.5,1.5,0,0,0,1.51,2.59l1.18-.66c1.69-.93.18-3.52-1.51-2.59l-1.18.66,1.51,2.59c7.68-5-3.77-13.65-8.85-6.23-5.34,7.78,5.79,16.4,13.1,13.08,9.88-4.49,9.2-18.48-.23-23-9.87-4.68-20.14,1.85-22.31,12-2.63,12.28,8.06,23.43,20.48,19.63,1.84-.56,1.06-3.46-.8-2.89Z"/><path class="cls-1" d="M282.51,132.67a21.58,21.58,0,0,0,12.77,14.67,5,5,0,0,0,2.51.48c2.17-.3,3.21-2.95,3-5.13-.34-3.14-2.35-5.81-4.33-8.28-2.84-3.54-6.35-7.31-10.9-7.4a3.91,3.91,0,0,0-1.82.33c-2.07,1-1.9,4-1.41,6.24"/><path d="M281.06,133.07a23.41,23.41,0,0,0,12.37,15.1c5.23,2.45,9.79-.56,8.66-6.54s-7.55-13.42-13.22-15.46c-6.29-2.27-9.08,2-8,7.81.35,1.9,3.24,1.09,2.89-.8-1.38-7.53,6.2-3.63,9.15-.58,2.42,2.51,5.4,5.69,6.18,9.17,1,4.37-3.53,4.34-6.21,2.68a20.23,20.23,0,0,1-3.43-2.69,20.72,20.72,0,0,1-5.48-9.49,1.5,1.5,0,0,0-2.89.8Z"/><path d="M263.1,127.34l6.61,2.76c1.78.74,2.55-2.16.79-2.9l-6.6-2.75c-1.78-.74-2.56,2.16-.8,2.89Z"/><path d="M277.22,139.3a25.51,25.51,0,0,0-7,3.36c-1.59,1.09-.09,3.69,1.51,2.59a23.19,23.19,0,0,1,6.31-3.06c1.84-.55,1.06-3.45-.8-2.89Z"/><path d="M295.17,157.67a52.41,52.41,0,0,1-1.65,11.06,1.5,1.5,0,0,0,2.89.8,56,56,0,0,0,1.76-11.86c.08-1.93-2.92-1.93-3,0Z"/><path d="M309.94,146.43a9,9,0,0,1,3.75-.28,1.55,1.55,0,0,0,1.85-1,1.52,1.52,0,0,0-1.05-1.85,12.51,12.51,0,0,0-5.34.28,1.5,1.5,0,0,0,.79,2.89Z"/><path d="M278.66,119.6l-2-2a1.5,1.5,0,1,0-2.12,2.13l2,2a1.5,1.5,0,0,0,2.12-2.13Z"/><path d="M303.66,132.23a13.07,13.07,0,0,1,4.19-3.27c1.73-.87.21-3.45-1.51-2.59a15.2,15.2,0,0,0-4.8,3.74c-1.25,1.46.87,3.59,2.12,2.12Z"/></g></svg>