<svg xmlns="http://www.w3.org/2000/svg" viewBox="0 0 381.28 380.33"><defs><style>.cls-1{fill:#f7c402;}.cls-2{fill:#ffe9b5;}.cls-3{fill:#ed7d82;}.cls-4{fill:#4386c6;}.cls-5{fill:#333745;}</style></defs><title>Mblok mapa conceptual</title><g id="gráficos"><rect class="cls-1" x="4.14" y="3.66" width="373" height="373" rx="23.02" ry="23.02"/><path d="M354.12,375.16H33.62c-7.27,0-14.13.12-20.23-5-7.09-5.91-7.75-13.81-7.75-22.12V63.81c0-12.34-.38-24.75,0-37.09C6.06,13,17,5.16,29.81,5.16h278.9c14.84,0,29.68-.13,44.51,0,12.75.12,22.3,9.51,22.42,22.31,0,4.81,0,9.62,0,14.43V350.79c0,12.86-7.62,24-21.52,24.37-1.93.06-1.93,3.06,0,3,14.41-.43,24.44-11.69,24.52-25.8,0-5.5,0-11,0-16.51V71.73c0-14.8.15-29.62,0-44.42A25,25,0,0,0,354,2.16c-4-.08-8,0-12.06,0H29.62c-11.38,0-21.84,5.33-25.7,16.73C2.25,23.8,2.64,29.14,2.64,34.26v314.1c0,7.21.37,14,5,20.15,5.85,7.69,14.43,9.65,23.46,9.65h323A1.5,1.5,0,0,0,354.12,375.16Z"/><rect class="cls-2" x="27.63" y="27.15" width="326.03" height="326.03" rx="23.02" ry="23.02"/><path d="M330.64,351.68H74.24c-12,0-30.23,2.95-39.27-6.77-8.71-9.38-5.84-27.12-5.84-38.94V152.58c0-34.08-1.06-68.34,0-102.41.41-13.42,11-21.52,23.74-21.52H293.44c12.23,0,24.5-.3,36.73,0,12.51.31,21.85,9.62,22,22.19.05,4.16,0,8.32,0,12.48V328.13c0,12.66-8.23,23.15-21.51,23.55-1.93.06-1.94,3.06,0,3,14-.42,24.37-11.28,24.51-25.19.05-4.31,0-8.63,0-12.94v-227c0-12.94.25-25.89,0-38.82-.26-13.81-10.57-24.68-24.52-25-3-.08-6,0-8.95,0h-269c-9.9,0-19.11,4.13-23.83,13.3-2.72,5.29-2.71,10.73-2.71,16.43V325.53c0,6.4.33,12.5,4,18.12,5.26,8,13.78,11,22.9,11H330.64A1.5,1.5,0,0,0,330.64,351.68Z"/><path class="cls-3" d="M125,138.32c-2.17-14.62.91-29.5,4-43.92l7.26-34.18c.44-2.07,1-4.29,2.44-5.65,2.82-2.6,9.8-.28,12,3s4.8,8.76,7,12c4.73,7,9.55,6.38,17.46,6.74l18.64.84c4.31.2,8.92.31,12.55-2.25,4.2-3,5.92-8.61,8.3-13.43s6.88-9.54,11.71-8.15c3.58,1,5.69,5,7.36,8.61a404.59,404.59,0,0,1,27.48,82.46"/><path d="M126.45,138.32c-2.87-21.56,3.91-43.49,8.35-64.41,1-4.78,1.61-9.9,3.1-14.55,2.31-7.15,9.43-4.24,12.41.56,3.43,5.51,5.83,13,12.05,16,6.06,3,14.58,1.93,21.09,2.23,7.39.33,17.41,2.51,23.86-2.23s6.6-14.24,12.7-19.37c9.89-8.34,17,16.69,19.45,22.66a410,410,0,0,1,20.19,65.54c.42,1.88,3.31,1.08,2.9-.8A411.85,411.85,0,0,0,242,77.58Q239.34,71,236.43,64.5C234.7,60.64,233,56,229.5,53.32c-5.79-4.3-11.93.31-15.14,5.43-2.45,3.91-3.58,8.53-6.38,12.23-4.41,5.84-11.56,4.78-18,4.49-5.45-.25-10.91-.53-16.36-.74-4.86-.19-9.58-.17-13.17-4C155.29,65.31,154.3,56,146.78,53c-6.6-2.65-10.54.43-12.05,6.86C131.64,73,129,86.38,126.29,99.66c-2.6,12.76-4.57,25.65-2.84,38.66.25,1.88,3.26,1.91,3,0Z"/><path class="cls-4" d="M278.05,135.79l-1.83-3.67-2.4,4c-87.29,6.44-168.77-.31-168.77-.31v141l-1.82-.31,1.82,3.64h0v0h0l86.45,47.12L278,280.15V135.84Z"/><path d="M279.35,135l-1.84-3.67a1.51,1.51,0,0,0-2.59,0c-.48.8-1.34,3.17-2.15,3.62-.48.26-4.06,0-4.89.07-2.3.16-4.6.3-6.9.44q-13.08.78-26.17,1.23-24.3.84-48.61.67-34.33-.19-68.65-2.21c-4.17-.26-8.34-.52-12.5-.86a1.51,1.51,0,0,0-1.5,1.5v141l1.9-1.45-1.82-.31a1.52,1.52,0,0,0-1.7,2.2c.3.61.59,1.23.91,1.83s.71,2.29.71,1.07a1.48,1.48,0,0,0,.74,1.29l-.52-.52a1.51,1.51,0,0,0,2.59,0h0l-2,.53L181,323.24c2.81,1.53,6.57,4.63,9.74,5.31,2.36.51,5.4-2.07,7.41-3.16l44.37-24.19,36.25-19.76a1.48,1.48,0,0,0,.74-1.29V140.74a22,22,0,0,0,0-3.63c-.32-1.77.78-.85-.67,0a1.5,1.5,0,0,0-1.51-2.59l-.08,0a1.5,1.5,0,0,0-.74,1.3V277.63a7.64,7.64,0,0,0,0,2.29c-.38-.91,1.64-1-.18-.56-3.51.84-7.52,4.09-10.67,5.81L226.14,306.7l-32.9,17.93a10.74,10.74,0,0,0-2.38,1.3c.9-.9,2,.65,0-.69-3.5-2.45-7.75-4.22-11.5-6.26l-73.59-40.12a1.53,1.53,0,0,0-2,.54h2.59c-1-1.88.71,2.13-.07-.13a30.76,30.76,0,0,0-1.77-3.54l-1.69,2.2,1.82.31a1.52,1.52,0,0,0,1.9-1.44v-141l-1.5,1.5c43.05,3.55,86.61,3.89,129.76,2.4q15.56-.54,31.09-1.54c2.48-.16,7.19.54,9.1-1.14,1.06-.94,1.79-3,2.51-4.17h-2.59l1.84,3.67C277.62,138.28,280.21,136.76,279.35,135Z"/><path class="cls-5" d="M190.6,313.67l-1.39-.73.37-.67,1,.54,5.05-2.7.38.67Zm-7.83-4.17-6.44-3.43.37-.67,6.44,3.44Zm19.7-2.15-.37-.67,6.44-3.43.37.66Zm-32.59-4.72-6.44-3.43.37-.67,6.44,3.44Zm45.47-2.15-.37-.67,6.45-3.43.37.66ZM157,295.77l-6.45-3.44.37-.66,6.45,3.43Zm71.24-2.16-.37-.67,6.44-3.43.37.66Zm-84.13-4.71-6.44-3.44.37-.66,6.44,3.43Zm97-2.16-.37-.67,6.44-3.43.37.67ZM131.22,282l-6.44-3.44.37-.66,6.45,3.43ZM254,279.87l-.37-.66,6.44-3.44.38.67Zm-135.67-4.71-5.49-2.92v-1.52h.78v1.07l5.08,2.7ZM266.9,273l-.37-.66,1-.55v-5.58h.78v6Zm-153.27-9.46h-.78v-7.17h.78ZM268.34,259h-.78v-7.18h.78Zm-154.71-9.85h-.78V242h.78Zm154.71-4.5h-.78v-7.18h.78Zm-154.71-9.85h-.78v-7.17h.78Zm154.71-4.51h-.78v-7.17h.78Zm-154.71-9.84h-.78v-7.18h.78ZM268.34,216h-.78v-7.17h.78Zm-154.71-9.84h-.78V199h.78Zm154.71-4.51h-.78v-7.17h.78Zm-154.71-9.84h-.78v-7.18h.78Zm154.71-4.51h-.78V180.1h.78Zm-154.71-9.84h-.78v-7.18h.78Zm154.71-4.51h-.78v-7.18h.78Zm-154.71-9.85h-.78v-7.17h.78Zm154.71-4.5h-.78V151.4h.78Zm-154.71-9.85h-.78v-7.17h.78Zm154.71-4.5h-.78v-7.18h.78Z"/><path d="M191.35,312.38l-1.38-.74.54,2.05.37-.66-2,.54c.84.45,1.54.95,2.52.54.44-.19.86-.46,1.28-.69l3.78-2-2-.54.37.67.54-2.06-5.43,2.9c-1.71.91-.19,3.5,1.51,2.59l5.43-2.9a1.52,1.52,0,0,0,.54-2.05l-.37-.66a1.52,1.52,0,0,0-2-.54l-5.06,2.7h1.51l-1-.54a1.52,1.52,0,0,0-2.05.53l-.37.67a1.52,1.52,0,0,0,.53,2.05l1.39.74C191.54,315.88,193.06,313.29,191.35,312.38Z"/><path d="M183.53,308.21l-6.45-3.44.54,2.06.37-.67-2.05.54,6.44,3.43-.54-2.05-.37.67c-.94,1.68,1.65,3.2,2.59,1.51l.37-.67a1.52,1.52,0,0,0-.53-2l-6.45-3.43a1.51,1.51,0,0,0-2,.54l-.37.66a1.52,1.52,0,0,0,.54,2.05L182,310.8C183.71,311.71,185.23,309.12,183.53,308.21Z"/><path d="M203.76,306.59l-.37-.67-.54,2.05,6.45-3.43-2.05-.54.37.67.53-2.05-6.44,3.43c-1.7.91-.19,3.5,1.52,2.59l6.44-3.43a1.54,1.54,0,0,0,.54-2.06l-.37-.66a1.53,1.53,0,0,0-2.06-.54l-6.44,3.43a1.54,1.54,0,0,0-.54,2.06l.37.66C202.11,309.79,204.71,308.28,203.76,306.59Z"/><path d="M170.64,301.34l-6.44-3.44.53,2.06.38-.67-2.06.54,6.45,3.43-.54-2.05-.37.67c-.94,1.68,1.65,3.2,2.59,1.51l.37-.66a1.53,1.53,0,0,0-.54-2.06l-6.44-3.43a1.52,1.52,0,0,0-2,.54l-.38.66a1.52,1.52,0,0,0,.54,2.05l6.45,3.44C170.83,304.84,172.35,302.25,170.64,301.34Z"/><path d="M216.65,299.72l-.37-.67-.54,2.06,6.44-3.44-2.05-.54.37.67.54-2.05-6.44,3.43c-1.71.91-.19,3.5,1.51,2.59l6.44-3.43a1.51,1.51,0,0,0,.54-2l-.37-.67a1.53,1.53,0,0,0-2.05-.54l-6.44,3.44a1.52,1.52,0,0,0-.54,2.05l.37.66C215,302.92,217.59,301.41,216.65,299.72Z"/><path d="M157.75,294.47,151.31,291l.54,2,.37-.67-2.05.54,6.44,3.44-.54-2.06-.37.67c-.94,1.69,1.65,3.2,2.59,1.51l.37-.66a1.52,1.52,0,0,0-.54-2.06l-6.44-3.43a1.53,1.53,0,0,0-2.05.54l-.37.66a1.53,1.53,0,0,0,.54,2.06l6.44,3.43C157.94,298,159.46,295.38,157.75,294.47Z"/><path d="M229.54,292.85l-.38-.66-.53,2.05,6.44-3.44-2-.53.37.66.54-2.05-6.45,3.43c-1.7.91-.19,3.5,1.52,2.59l6.44-3.43a1.52,1.52,0,0,0,.54-2.05l-.37-.67a1.53,1.53,0,0,0-2.05-.54l-6.45,3.44a1.53,1.53,0,0,0-.54,2.05l.38.67C227.89,296.05,230.48,294.54,229.54,292.85Z"/><path d="M144.87,287.6l-6.45-3.43.54,2.05.37-.67-2.05.54,6.44,3.44-.53-2.06-.37.67a1.5,1.5,0,0,0,2.59,1.51l.37-.66a1.52,1.52,0,0,0-.54-2.05l-6.44-3.44a1.54,1.54,0,0,0-2.06.54l-.37.67a1.52,1.52,0,0,0,.54,2.05l6.44,3.43C145.06,291.1,146.57,288.51,144.87,287.6Z"/><path d="M242.42,286l-.37-.66-.54,2.05,6.45-3.43-2.06-.54.37.66.54-2.05-6.44,3.43c-1.7.91-.19,3.5,1.51,2.6l6.45-3.44a1.52,1.52,0,0,0,.53-2.05l-.37-.67a1.53,1.53,0,0,0-2.05-.54L240,284.78a1.52,1.52,0,0,0-.54,2.05l.37.67C240.77,289.18,243.36,287.67,242.42,286Z"/><path d="M132,280.73l-6.44-3.43.54,2.05.37-.66-2,.53,6.44,3.44-.54-2.05-.37.66c-.94,1.69,1.65,3.2,2.59,1.52l.37-.67a1.52,1.52,0,0,0-.54-2.05l-6.44-3.44a1.53,1.53,0,0,0-2,.54l-.37.67a1.52,1.52,0,0,0,.53,2.05l6.45,3.43C132.17,284.23,133.69,281.64,132,280.73Z"/><path d="M255.31,279.11l-.37-.66-.54,2.05,6.44-3.43-2-.54.37.66.54-2.05-6.44,3.44c-1.71.9-.2,3.5,1.51,2.59l6.44-3.44a1.52,1.52,0,0,0,.54-2.05l-.37-.67a1.53,1.53,0,0,0-2.05-.53l-6.45,3.43a1.52,1.52,0,0,0-.53,2l.37.67C253.66,282.32,256.25,280.8,255.31,279.11Z"/><path d="M119.1,273.87l-5.49-2.93.74,1.3v-1.52l-1.5,1.5h.78l-1.5-1.5v1.07a1.48,1.48,0,0,0,.74,1.29l5.08,2.71-.54-2.05-.37.66c-.94,1.69,1.65,3.21,2.59,1.52l.37-.67a1.52,1.52,0,0,0-.53-2.05l-5.08-2.71.74,1.3v-1.07a1.52,1.52,0,0,0-1.5-1.5h-.78a1.52,1.52,0,0,0-1.5,1.5v1.52a1.49,1.49,0,0,0,.75,1.29l5.48,2.93C119.28,277.36,120.8,274.77,119.1,273.87Z"/><path d="M268.19,272.25l-.37-.67-.54,2.05,1-.55a1.48,1.48,0,0,0,.74-1.29v-5.58l-1.5,1.5h.78l-1.5-1.5v6l.74-1.3-1.44.77c-1.7.91-.19,3.5,1.52,2.59l1.43-.77a1.49,1.49,0,0,0,.75-1.29v-6a1.52,1.52,0,0,0-1.5-1.5h-.78a1.52,1.52,0,0,0-1.5,1.5v5.58l.74-1.3-1,.55a1.52,1.52,0,0,0-.54,2l.37.67C266.54,275.45,269.14,273.94,268.19,272.25Z"/><path d="M113.63,262h-.78l1.5,1.5v-7.17l-1.5,1.5h.78l-1.5-1.5v7.17a1.5,1.5,0,0,0,3,0v-7.17a1.52,1.52,0,0,0-1.5-1.5h-.78a1.52,1.52,0,0,0-1.5,1.5v7.17a1.52,1.52,0,0,0,1.5,1.5h.78A1.5,1.5,0,0,0,113.63,262Z"/><path d="M268.34,257.54h-.78l1.5,1.5v-7.18l-1.5,1.5h.78l-1.5-1.5V259a1.5,1.5,0,0,0,3,0v-7.18a1.52,1.52,0,0,0-1.5-1.5h-.78a1.52,1.52,0,0,0-1.5,1.5V259a1.52,1.52,0,0,0,1.5,1.5h.78A1.5,1.5,0,0,0,268.34,257.54Z"/><path d="M113.63,247.69h-.78l1.5,1.5V242l-1.5,1.5h.78l-1.5-1.5v7.17a1.5,1.5,0,0,0,3,0V242a1.52,1.52,0,0,0-1.5-1.5h-.78a1.52,1.52,0,0,0-1.5,1.5v7.17a1.52,1.52,0,0,0,1.5,1.5h.78A1.5,1.5,0,0,0,113.63,247.69Z"/><path d="M268.34,243.19h-.78l1.5,1.5v-7.18l-1.5,1.5h.78l-1.5-1.5v7.18a1.5,1.5,0,0,0,3,0v-7.18a1.52,1.52,0,0,0-1.5-1.5h-.78a1.52,1.52,0,0,0-1.5,1.5v7.18a1.52,1.52,0,0,0,1.5,1.5h.78A1.5,1.5,0,0,0,268.34,243.19Z"/><path d="M113.63,233.34h-.78l1.5,1.5v-7.17l-1.5,1.5h.78l-1.5-1.5v7.17a1.5,1.5,0,0,0,3,0v-7.17a1.52,1.52,0,0,0-1.5-1.5h-.78a1.52,1.52,0,0,0-1.5,1.5v7.17a1.52,1.52,0,0,0,1.5,1.5h.78A1.5,1.5,0,0,0,113.63,233.34Z"/><path d="M268.34,228.83h-.78l1.5,1.5v-7.17l-1.5,1.5h.78l-1.5-1.5v7.17a1.5,1.5,0,0,0,3,0v-7.17a1.52,1.52,0,0,0-1.5-1.5h-.78a1.52,1.52,0,0,0-1.5,1.5v7.17a1.52,1.52,0,0,0,1.5,1.5h.78A1.5,1.5,0,0,0,268.34,228.83Z"/><path d="M113.63,219h-.78l1.5,1.5v-7.18l-1.5,1.5h.78l-1.5-1.5v7.18a1.5,1.5,0,0,0,3,0v-7.18a1.52,1.52,0,0,0-1.5-1.5h-.78a1.52,1.52,0,0,0-1.5,1.5v7.18a1.52,1.52,0,0,0,1.5,1.5h.78A1.5,1.5,0,0,0,113.63,219Z"/><path d="M268.34,214.48h-.78l1.5,1.5v-7.17l-1.5,1.5h.78l-1.5-1.5V216a1.5,1.5,0,0,0,3,0v-7.17a1.52,1.52,0,0,0-1.5-1.5h-.78a1.52,1.52,0,0,0-1.5,1.5V216a1.52,1.52,0,0,0,1.5,1.5h.78A1.5,1.5,0,0,0,268.34,214.48Z"/><path d="M113.63,204.64h-.78l1.5,1.5V199l-1.5,1.5h.78l-1.5-1.5v7.18a1.5,1.5,0,0,0,3,0V199a1.52,1.52,0,0,0-1.5-1.5h-.78a1.52,1.52,0,0,0-1.5,1.5v7.18a1.52,1.52,0,0,0,1.5,1.5h.78A1.5,1.5,0,0,0,113.63,204.64Z"/><path d="M268.34,200.13h-.78l1.5,1.5v-7.17l-1.5,1.5h.78l-1.5-1.5v7.17a1.5,1.5,0,0,0,3,0v-7.17a1.52,1.52,0,0,0-1.5-1.5h-.78a1.52,1.52,0,0,0-1.5,1.5v7.17a1.52,1.52,0,0,0,1.5,1.5h.78A1.5,1.5,0,0,0,268.34,200.13Z"/><path d="M113.63,190.29h-.78l1.5,1.5v-7.18l-1.5,1.5h.78l-1.5-1.5v7.18a1.5,1.5,0,0,0,3,0v-7.18a1.52,1.52,0,0,0-1.5-1.5h-.78a1.52,1.52,0,0,0-1.5,1.5v7.18a1.52,1.52,0,0,0,1.5,1.5h.78A1.5,1.5,0,0,0,113.63,190.29Z"/><path d="M268.34,185.78h-.78l1.5,1.5V180.1l-1.5,1.5h.78l-1.5-1.5v7.18a1.5,1.5,0,0,0,3,0V180.1a1.52,1.52,0,0,0-1.5-1.5h-.78a1.52,1.52,0,0,0-1.5,1.5v7.18a1.52,1.52,0,0,0,1.5,1.5h.78A1.5,1.5,0,0,0,268.34,185.78Z"/><path d="M113.63,175.94h-.78l1.5,1.5v-7.18l-1.5,1.5h.78l-1.5-1.5v7.18a1.5,1.5,0,0,0,3,0v-7.18a1.52,1.52,0,0,0-1.5-1.5h-.78a1.52,1.52,0,0,0-1.5,1.5v7.18a1.52,1.52,0,0,0,1.5,1.5h.78A1.5,1.5,0,0,0,113.63,175.94Z"/><path d="M268.34,171.43h-.78l1.5,1.5v-7.18l-1.5,1.5h.78l-1.5-1.5v7.18a1.5,1.5,0,0,0,3,0v-7.18a1.52,1.52,0,0,0-1.5-1.5h-.78a1.52,1.52,0,0,0-1.5,1.5v7.18a1.52,1.52,0,0,0,1.5,1.5h.78A1.5,1.5,0,0,0,268.34,171.43Z"/><path d="M113.63,161.58h-.78l1.5,1.5v-7.17l-1.5,1.5h.78l-1.5-1.5v7.17a1.5,1.5,0,0,0,3,0v-7.17a1.52,1.52,0,0,0-1.5-1.5h-.78a1.52,1.52,0,0,0-1.5,1.5v7.17a1.52,1.52,0,0,0,1.5,1.5h.78A1.5,1.5,0,0,0,113.63,161.58Z"/><path d="M268.34,157.08h-.78l1.5,1.5V151.4l-1.5,1.5h.78l-1.5-1.5v7.18a1.5,1.5,0,0,0,3,0V151.4a1.52,1.52,0,0,0-1.5-1.5h-.78a1.52,1.52,0,0,0-1.5,1.5v7.18a1.52,1.52,0,0,0,1.5,1.5h.78A1.5,1.5,0,0,0,268.34,157.08Z"/><path d="M113.63,147.23h-.78l1.5,1.5v-7.17l-1.5,1.5h.78l-1.5-1.5v7.17a1.5,1.5,0,0,0,3,0v-7.17a1.52,1.52,0,0,0-1.5-1.5h-.78a1.52,1.52,0,0,0-1.5,1.5v7.17a1.52,1.52,0,0,0,1.5,1.5h.78A1.5,1.5,0,0,0,113.63,147.23Z"/><path d="M268.34,142.73h-.78l1.5,1.5v-7.18l-1.5,1.5h.78l-1.5-1.5v7.18a1.5,1.5,0,0,0,3,0v-7.18a1.52,1.52,0,0,0-1.5-1.5h-.78a1.52,1.52,0,0,0-1.5,1.5v7.18a1.52,1.52,0,0,0,1.5,1.5h.78A1.5,1.5,0,0,0,268.34,142.73Z"/><path class="cls-5" d="M111.72,160.83l-3.58-.27.06-.76,3.57.27Z"/><path d="M111.72,159.33l-3.58-.27,1.5,1.5.06-.76-1.5,1.5,3.57.27-1.5-1.5,0,.76a1.5,1.5,0,0,0,3,0l0-.76a1.52,1.52,0,0,0-1.5-1.5l-3.57-.27a1.54,1.54,0,0,0-1.5,1.5l-.06.76a1.54,1.54,0,0,0,1.5,1.5l3.58.27a1.5,1.5,0,0,0,0-3Z"/><path class="cls-5" d="M194.75,163.59l-5.61,0v-.75h7v.76Zm8.48,0v-.76l7-.07v.76Zm-21.13,0c-2.34,0-4.71-.05-7-.09v-.76c2.33,0,4.7.07,7,.09Zm35.22-.14,0-.76,7-.16v.76ZM168,163.3l-7-.16,0-.76,7,.17Zm63.38-.28,0-.75,7-.25,0,.76C236.1,162.87,233.74,163,231.39,163Zm-77.46-.09c-2.35-.07-4.71-.16-7-.24l0-.76c2.32.09,4.69.17,7,.24Zm91.53-.44,0-.76c2.35-.1,4.72-.21,7-.33l0,.75C250.18,162.27,247.82,162.39,245.46,162.49Zm-105.61-.09-7-.32,0-.76,7,.33Zm119.67-.64,0-.75,7-.44.05.75C264.23,161.48,261.87,161.63,259.52,161.76Zm-133.74,0-7-.41.05-.76,7,.41Z"/><path d="M194.75,162.09l-5.61,0,1.5,1.5v-.75l-1.5,1.5h7l-1.5-1.5v.76l1.5-1.5h-1.44a1.5,1.5,0,0,0,0,3h1.44a1.53,1.53,0,0,0,1.5-1.5v-.76a1.52,1.52,0,0,0-1.5-1.5h-7a1.51,1.51,0,0,0-1.5,1.5v.75a1.52,1.52,0,0,0,1.5,1.5l5.61,0A1.5,1.5,0,0,0,194.75,162.09Z"/><path d="M204.73,163.56v-.76l-1.5,1.5,7-.07-1.5-1.5v.76l1.5-1.5-7.05.07a1.5,1.5,0,0,0,0,3l7.05-.07a1.52,1.52,0,0,0,1.5-1.5v-.76a1.52,1.52,0,0,0-1.5-1.5l-7,.07a1.51,1.51,0,0,0-1.5,1.5v.76A1.5,1.5,0,0,0,204.73,163.56Z"/><path d="M182.1,162q-3.53,0-7-.09l1.5,1.5v-.76l-1.5,1.5c2.35,0,4.69.07,7,.09l-1.5-1.5v.76a1.5,1.5,0,0,0,3,0v-.76a1.53,1.53,0,0,0-1.5-1.5c-2.35,0-4.69,0-7-.09a1.52,1.52,0,0,0-1.5,1.5v.76a1.52,1.52,0,0,0,1.5,1.5q3.51.06,7,.09A1.5,1.5,0,0,0,182.1,162Z"/><path d="M218.82,163.38l0-.76-1.5,1.5,7-.16-1.5-1.5v.76l1.5-1.5-7,.16c-1.93,0-1.94,3,0,3l7-.16a1.51,1.51,0,0,0,1.5-1.5v-.76a1.53,1.53,0,0,0-1.5-1.5l-7,.16a1.52,1.52,0,0,0-1.5,1.5l0,.76C215.85,165.3,218.85,165.31,218.82,163.38Z"/><path d="M168,161.8l-7-.16,1.5,1.5,0-.76-1.5,1.5,7,.17-1.5-1.5,0,.75c0,1.93,3,1.93,3,0l0-.75a1.51,1.51,0,0,0-1.5-1.5l-7-.17a1.52,1.52,0,0,0-1.5,1.5l0,.76a1.53,1.53,0,0,0,1.5,1.5l7,.16C170,164.84,170,161.84,168,161.8Z"/><path d="M232.89,163l0-.75-1.5,1.5,7-.25-1.5-1.5,0,.76,1.5-1.5c-2.35.09-4.69.17-7,.24-1.92.07-1.93,3.07,0,3,2.35-.07,4.69-.15,7-.24a1.52,1.52,0,0,0,1.5-1.5l0-.76a1.53,1.53,0,0,0-1.5-1.5l-7,.25a1.51,1.51,0,0,0-1.5,1.5l0,.75C230,165,233,165,232.89,163Z"/><path d="M153.93,161.43c-2.35-.07-4.69-.16-7-.24l1.5,1.5,0-.76-1.5,1.5c2.34.09,4.69.17,7,.24l-1.5-1.5,0,.76c-.06,1.93,2.94,1.93,3,0l0-.76a1.52,1.52,0,0,0-1.5-1.5c-2.34-.07-4.69-.15-7-.24a1.52,1.52,0,0,0-1.5,1.5l0,.76a1.52,1.52,0,0,0,1.5,1.5c2.35.08,4.69.17,7,.24C155.86,164.49,155.86,161.49,153.93,161.43Z"/><path d="M247,162.49l0-.76-1.5,1.5q3.51-.15,7-.33l-1.5-1.5,0,.75,1.5-1.5c-2.34.12-4.69.24-7,.34-1.92.09-1.93,3.09,0,3,2.34-.1,4.69-.22,7-.34a1.51,1.51,0,0,0,1.5-1.5l0-.75a1.51,1.51,0,0,0-1.5-1.5q-3.51.18-7,.33a1.52,1.52,0,0,0-1.5,1.5l0,.76C244.05,164.41,247.05,164.43,247,162.49Z"/><path d="M139.85,160.9l-7-.32,1.5,1.5,0-.76-1.5,1.5,7,.33-1.5-1.5,0,.75c-.08,1.93,2.92,1.93,3,0l0-.75a1.51,1.51,0,0,0-1.5-1.5l-7-.33a1.52,1.52,0,0,0-1.5,1.5l0,.76a1.53,1.53,0,0,0,1.5,1.5l7,.32C141.78,164,141.78,161,139.85,160.9Z"/><path d="M261,161.76l0-.75-1.5,1.5,7-.44-1.5-1.5.05.75,1.5-1.5q-3.51.24-7,.44c-1.92.12-1.93,3.12,0,3q3.53-.19,7-.44a1.51,1.51,0,0,0,1.5-1.5l-.05-.75a1.52,1.52,0,0,0-1.5-1.5l-7,.44A1.52,1.52,0,0,0,258,161l0,.75C258.14,163.68,261.14,163.7,261,161.76Z"/><path d="M125.78,160.21l-7-.41,1.5,1.5.05-.76-1.5,1.5c2.34.15,4.69.28,7,.41l-1.5-1.5,0,.76c-.11,1.93,2.89,1.92,3,0l0-.76a1.53,1.53,0,0,0-1.5-1.5c-2.34-.13-4.69-.26-7-.41a1.53,1.53,0,0,0-1.5,1.5l-.05.76a1.54,1.54,0,0,0,1.5,1.5l7,.41C127.71,163.32,127.7,160.32,125.78,160.21Z"/><path class="cls-5" d="M273.59,160.83l0-.76,3.57-.27.06.76Z"/><path d="M275.09,160.83l0-.76-1.5,1.5,3.57-.27-1.5-1.5.06.76,1.5-1.5-3.58.27a1.5,1.5,0,0,0,0,3l3.58-.27a1.53,1.53,0,0,0,1.5-1.5l-.06-.76a1.52,1.52,0,0,0-1.5-1.5l-3.57.27a1.51,1.51,0,0,0-1.5,1.5l0,.76a1.54,1.54,0,0,0,1.5,1.5A1.51,1.51,0,0,0,275.09,160.83Z"/><path d="M165.83,114.62c-6.53,2.85-4.4,9.68,1.64,11.47,5.38,1.58,14.46-.74,16.18-6.73l-2.74.36c4.9,9.81,23.6,8.22,23.35-4,0-1.93-3-1.94-3,0,.19,9.36-14.25,9.51-17.76,2.48a1.51,1.51,0,0,0-2.74.36c-.76,2.63-3.89,3.85-6.26,4.49a13,13,0,0,1-3.57.52q-5.44.53-3.58-6.36c1.76-.76.24-3.35-1.52-2.59Z"/><path d="M151.94,100.6c2.79-1.47,5.11-3.3,8.43-2.85a8.79,8.79,0,0,1,6.6,4.47,1.5,1.5,0,0,0,2.59-1.51,11.82,11.82,0,0,0-8.15-5.84c-4.35-.83-7.3,1.19-11,3.14-1.71.9-.19,3.49,1.52,2.59Z"/><path d="M199.59,100.84c2.55-3,5.92-5.27,9.93-5.56,4.58-.33,6,3,9.74,4.32a1.54,1.54,0,0,0,1.7-.69l.24-.33a1.46,1.46,0,0,0,0-1.51l-.19-.29c-1.07-1.6-3.66-.1-2.59,1.52l0-.9,1.69-.69c-2.16-.79-3.67-3-5.91-3.9a10.86,10.86,0,0,0-5.24-.53,18.26,18.26,0,0,0-11.45,6.44c-1.25,1.45.86,3.59,2.13,2.12Z"/><path d="M222.84,59.26c-2.7,1.28-4.19,4.66-5.38,7.21-1.46,3.12-3.1,6.62-3.68,10-.46,2.73.32,5.66,3.36,6.37,3.64.84,6.2-2.23,7.83-5l-2.36.31c3.63,3.23,10.63,5.27,11.42-1.61.41-3.55-1.5-6.86-3.19-9.82s-3.26-6.59-6.65-8c-1.76-.75-3.29,1.84-1.51,2.59,3,1.25,4.75,5.34,6.24,8.11a17.73,17.73,0,0,1,2,4.51c.72,1.92.11,3.42-1.83,4.48a6.92,6.92,0,0,1-4.31-2.37,1.52,1.52,0,0,0-2.36.31c-1.27,2.14-1.12,2.73-3.64,1.41-2.36-1.23-2.07-.85-1.46-2.76.49-1.5,1.05-3,1.64-4.46,1.09-2.67,2.63-7.4,5.44-8.73,1.74-.83.22-3.42-1.52-2.59Z"/><path d="M141,61.54c-.2,6.13-7.65,14.78-3.63,20.83,3.34,5,8.3.77,9.33-3.41l-2.5.66c3.19,4,9.59,5.29,10.29-1.35.73-6.83-6.91-12.53-10.45-17.44-1.12-1.55-3.73-.06-2.59,1.51,1.84,2.56,4.05,4.79,6,7.25,1.34,1.68,3.17,3.94,3.73,6.06,1.68,6.2-2.83,4.41-4.88,1.85a1.51,1.51,0,0,0-2.51.66c-.16,2.15-1.62,2.19-4.38.14a26.76,26.76,0,0,1,.67-3.55,38.54,38.54,0,0,1,1.71-5c1.09-2.72,2.1-5.23,2.19-8.19.07-1.93-2.93-1.93-3,0Z"/><path class="cls-1" d="M181.39,117.73c-2.27-1.62-4.68-3.42-5.54-6.07a1.25,1.25,0,0,1,0-.85,1.18,1.18,0,0,1,.48-.51,4.41,4.41,0,0,1,6.37,2.23,7.41,7.41,0,0,1,3.42-2.94c1.46-.45,3.4.46,3.4,2,0,1.19-1.1,2-2.09,2.72l-4.88,3.29c-.09.06-.23.13-.31,0s.13-.2.12-.09"/><path d="M182.15,116.44c-1.31-.94-3.15-2.06-3.94-3.53-1.46-2.7,2.26-1.74,3,0,.37.89,1.72,1.66,2.51.66a11.44,11.44,0,0,1,1.5-1.76c.76-1.07,1.34-1.12,1.75-.15.78.56.66,1-.35,1.32-.63.78-3.8,3-4.83,3.19l1.84,1.84,0-.12-1.85,1,.09,0c1.84.6,2.62-2.3.79-2.89l-.08,0a1.51,1.51,0,0,0-1.84,1.05l0,.12a1.52,1.52,0,0,0,1.84,1.84c1.15-.17,2.18-1.21,3.12-1.84a40.29,40.29,0,0,0,3.33-2.31c1.35-1.11,2.4-2.76,1.7-4.55a4.18,4.18,0,0,0-4-2.4c-2.25.09-3.85,1.84-5.13,3.49l2.51.66c-1.34-3.2-5.6-5.41-8.73-3-3.94,3,3.08,8.33,5.26,9.91,1.57,1.13,3.07-1.47,1.52-2.59Z"/><path d="M233.9,110.1c8-7.34,16.06-13.67,27.51-12.9,1.93.12,1.92-2.88,0-3-12.21-.82-21.08,5.92-29.63,13.78-1.42,1.31.7,3.43,2.12,2.12Z"/><path d="M236.24,114.64A44.8,44.8,0,0,1,263.36,110c1.91.25,1.89-2.75,0-3a47.54,47.54,0,0,0-28.63,5.08c-1.71.89-.2,3.48,1.51,2.59Z"/><path d="M134.69,112a55,55,0,0,0-31.44-17.4c-1.88-.33-2.69,2.56-.79,2.9a52.46,52.46,0,0,1,30.11,16.62c1.3,1.44,3.41-.69,2.12-2.12Z"/><path d="M128.8,116.21c-7.8-2.8-16.59-4.72-24.89-3.52-1.91.27-1.1,3.16.8,2.89,7.73-1.12,16.05.92,23.29,3.53,1.82.65,2.61-2.25.8-2.9Z"/></g></svg>