<svg xmlns="http://www.w3.org/2000/svg" xmlns:xlink="http://www.w3.org/1999/xlink" viewBox="0 0 381.28 380.33"><defs><style>.cls-1{fill:none;}.cls-2{fill:#e1262f;}.cls-3{fill:#ed7d82;}.cls-4{fill:#7dc4ca;}.cls-5{fill:#ffda83;}.cls-6{fill:#f7c402;}.cls-7{fill:#4386c6;}.cls-8{clip-path:url(#clip-path);}.cls-9{fill:#fff;}.cls-10{fill:#8eb6e0;}.cls-11{clip-path:url(#clip-path-2);}</style><clipPath id="clip-path"><path class="cls-1" d="M105,149.36a41.11,41.11,0,1,0,41.1,41.1A41.11,41.11,0,0,0,105,149.36Z"/></clipPath><clipPath id="clip-path-2"><path class="cls-1" d="M277.43,149.36a41.11,41.11,0,1,0,41.1,41.1A41.11,41.11,0,0,0,277.43,149.36Z"/></clipPath></defs><title>Mblok mapa conceptual</title><g id="gráficos"><rect class="cls-2" x="4.14" y="3.67" width="373" height="373" rx="23.02" ry="23.02"/><path d="M354.12,375.17H33.62c-7.27,0-14.13.11-20.23-5-7.09-5.91-7.75-13.81-7.75-22.12V63.81c0-12.34-.38-24.75,0-37.09C6.06,13,17,5.17,29.81,5.17h278.9c14.84,0,29.68-.14,44.51,0,12.75.11,22.3,9.5,22.42,22.3,0,4.81,0,9.62,0,14.43V350.79c0,12.86-7.62,24-21.52,24.38-1.93.05-1.93,3.05,0,3,14.41-.44,24.44-11.7,24.52-25.81,0-5.5,0-11,0-16.51V71.73c0-14.8.15-29.62,0-44.42A24.94,24.94,0,0,0,354,2.17c-4-.09-8,0-12.06,0H29.62c-11.38,0-21.84,5.32-25.7,16.72C2.25,23.8,2.64,29.14,2.64,34.26v314.1c0,7.21.37,14,5,20.15,5.85,7.69,14.43,9.66,23.46,9.66h323A1.5,1.5,0,0,0,354.12,375.17Z"/><rect class="cls-3" x="27.63" y="27.15" width="326.03" height="326.03" rx="23.02" ry="23.02"/><path d="M330.64,351.68H74.24c-12,0-30.23,2.95-39.27-6.77-8.71-9.38-5.84-27.12-5.84-38.94V152.58c0-34.08-1.06-68.34,0-102.41.41-13.42,11-21.52,23.74-21.52H293.44c12.23,0,24.5-.3,36.73,0,12.51.31,21.85,9.62,22,22.19.05,4.16,0,8.32,0,12.48V328.13c0,12.66-8.23,23.15-21.51,23.55-1.93.06-1.94,3.06,0,3,14-.42,24.37-11.28,24.51-25.19.05-4.31,0-8.63,0-12.94v-227c0-12.94.25-25.89,0-38.82-.26-13.81-10.57-24.68-24.52-25-3-.08-6,0-8.95,0h-269c-9.9,0-19.11,4.13-23.83,13.3-2.72,5.29-2.71,10.73-2.71,16.43V325.53c0,6.4.33,12.5,4,18.12,5.26,8,13.78,11,22.9,11H330.64A1.5,1.5,0,0,0,330.64,351.68Z"/><path class="cls-4" d="M157.88,190.46a53.46,53.46,0,1,0-69.12,51.12c1.11,3.39,2.55,6.68,3.85,10,18.3,47.38,31.79,47.42,54,50.35h0a95.83,95.83,0,0,0,73.77-2.56q4.13-1.91,8-4.14l10.32,22.66,33-59.72-66.6-14.06,13.29,29.15a70.73,70.73,0,0,1-7.95,4.3A72.48,72.48,0,0,1,115,242.87,53.54,53.54,0,0,0,157.88,190.46ZM105,231.57a41.11,41.11,0,1,1,41.1-41.11A41.11,41.11,0,0,1,105,231.57Z"/><path d="M159.38,190.46c-.36-27.84-21.47-51.82-49.41-54.67-27.76-2.84-54.1,16.59-59.46,44a54.92,54.92,0,0,0,21.53,55,54.2,54.2,0,0,0,9.47,5.57c1.37.63,2.86,1.07,4.2,1.73,2.25,1.11,2.56,2.6,3.46,4.88,8,20.43,17.18,47.38,40.91,53.75a101.47,101.47,0,0,0,13.2,2.29c4,.52,7.53,2.06,11.41,3.12a97.39,97.39,0,0,0,74.45-9.59l-2-.54,10.32,22.65a1.51,1.51,0,0,0,2.59,0L273,259a1.51,1.51,0,0,0-.9-2.2l-66.6-14.07a1.52,1.52,0,0,0-1.69,2.2l13.28,29.16.54-2.05c-36,21.77-82.88,7.69-101.32-29.91l-.89,2.2a55.72,55.72,0,0,0,44-53.85c0-1.93-3-1.93-3,0a52.71,52.71,0,0,1-41.77,51,1.52,1.52,0,0,0-.9,2.2c19.15,39.05,68.11,53.55,105.42,31a1.54,1.54,0,0,0,.54-2.05L206.39,243.4l-1.7,2.2,66.6,14.07-.89-2.2-33,59.71H240l-10.32-22.65a1.51,1.51,0,0,0-2.05-.54,96.33,96.33,0,0,1-50,12.61,94.91,94.91,0,0,1-26.41-4.6,77.48,77.48,0,0,0-12.66-2.6c-7.11-1.09-14-2.92-19.83-7.36C110,285.39,104.54,275,100,265.3c-1.75-3.76-3.36-7.58-4.89-11.43-.8-2-1.58-4-2.37-6s-1.33-5.18-2.52-6.7-2.68-1.55-4.35-2.19a52.16,52.16,0,0,1-32.5-38.88c-5.31-27.74,13.58-55.28,41.2-60.67,31.87-6.22,61.41,19,61.82,51C156.41,192.39,159.41,192.4,159.38,190.46Z"/><path d="M105,230.07c-16.52-.27-31.62-10.42-37.26-26.14a39.61,39.61,0,1,1,76.11-5.74c-3.68,18.54-20.15,31.57-38.85,31.88-1.92,0-1.93,3,0,3a42.61,42.61,0,1,0-41.87-34.75c3.69,20.16,21.65,34.42,41.87,34.75A1.5,1.5,0,0,0,105,230.07Z"/><path class="cls-5" d="M105,149.36a41.11,41.11,0,1,0,41.1,41.1A41.11,41.11,0,0,0,105,149.36Z"/><path d="M105,147.86a42.61,42.61,0,1,0,41.87,34.75c-3.7-20.15-21.65-34.42-41.87-34.75-1.93,0-1.93,3,0,3,16.52.27,31.62,10.42,37.26,26.14a39.62,39.62,0,1,1-76.12,5.74C69.83,164.2,86.3,151.17,105,150.86,106.93,150.83,106.94,147.83,105,147.86Z"/><path class="cls-6" d="M129.49,174l-.12-.13-.32-.32-.47-.44-.27-.24-.28-.23-.56-.44-.5-.34-.31-.21c0-.12,0-.24-.08-.36s.12-.19.2-.32l.16-.24.16-.28c.11-.19.22-.41.34-.63s.21-.43.3-.65.1-.21.14-.31.08-.19.11-.28l.23-.59a.59.59,0,0,0,0-.47.63.63,0,0,0-.33-.33l-.16-.07-.43-.16-.29-.11-.32-.1-.69-.21-.17-.05-.18,0-.34-.07-.32-.07-.28-.05-.38-.06-.21-.28q0-.15.06-.39c0-.17,0-.38.08-.61s0-.46,0-.7,0-.25,0-.37v-.35c0-.24,0-.46,0-.65s0-.34,0-.45,0-.18,0-.18a.62.62,0,0,0-.07-.23.55.55,0,0,0-.15-.19.63.63,0,0,0-.44-.16H123l-.64.06h-.17l-.18,0-.36.05c-.48.07-1,.18-1.3.26l-.23.06-.18.06a2.26,2.26,0,0,0-.26-.16,1.36,1.36,0,0,0,0-.17c0-.07,0-.16-.07-.24s-.1-.36-.17-.58-.07-.22-.12-.33l-.12-.34c-.09-.22-.18-.46-.28-.67s-.19-.41-.27-.58l-.21-.41-.08-.15a.67.67,0,0,0-.37-.29.62.62,0,0,0-.23,0,.61.61,0,0,0-.24.06l-.56.28-.13.07-.14.08-.3.16-.3.19-.31.19a11.69,11.69,0,0,0-1.07.77l-.37.29-.24,0-.29-.36-.19-.22-.1-.12-.11-.12c-.15-.17-.32-.34-.49-.52a6,6,0,0,0-.53-.49l-.48-.43-.35-.28-.14-.11a.63.63,0,0,0-.46-.12.68.68,0,0,0-.42.21l-.11.14-.13.15-.08.09-.08.11-.39.51a3,3,0,0,0-.2.29l-.21.31c-.13.2-.26.4-.37.6l-.3.53c-.08.16-.15.29-.19.38a.59.59,0,0,0,0,.08l-.17.06-.45-.24-.13-.06-.13-.06-.3-.14-.32-.13-.16-.07-.17-.07-.69-.24-.16-.05-.16,0-.29-.08-.44-.12-.13,0h0a.65.65,0,0,0-.47.07.9.9,0,0,0-.18.16.53.53,0,0,0-.11.21s-.08.25-.17.61c0,.09,0,.19-.07.29s-.05.22-.07.33-.1.47-.14.71-.06.49-.09.71l0,.32c0,.1,0,.2,0,.29,0,.27,0,.47,0,.55l-.09.08H103l-.42,0H102l-.71,0h-.37l-.35,0-.34,0-.15,0-.15,0-.62.11a.5.5,0,0,0-.23.09.85.85,0,0,0-.17.16.68.68,0,0,0-.12.46s0,.06,0,.17,0,.27.08.45.07.41.11.63.11.47.17.71.06.23.1.34.07.23.1.34.14.41.2.57.12.31.15.4l.06.14,0,.08-.14.05-.17.07-.23.09-.56.23-.16.07-.16.08-.32.16-.32.17-.16.09-.15.09-.55.33-.22.14-.16.11-.15.1a.7.7,0,0,0-.26.39.72.72,0,0,0,0,.24.63.63,0,0,0,.08.23s.13.22.34.53.23.34.37.53l.21.28.11.15.12.14c.15.19.31.37.46.54l.1.12.11.12.21.21.41.41h0v.08h0s-.17.15-.41.41l-.21.21-.11.11-.1.12c-.15.17-.31.36-.46.55l-.12.14-.11.14-.21.29-.37.52c-.21.32-.34.54-.34.54a.53.53,0,0,0-.08.22.72.72,0,0,0,0,.24.72.72,0,0,0,.26.4,1,1,0,0,1,.15.1l.16.11.22.14.55.33.15.09.16.08.32.17.32.16.16.08.16.07.56.24.23.09.17.06.14,0a.36.36,0,0,1,0,.09l-.06.13c0,.1-.09.24-.15.4s-.13.36-.2.58-.07.22-.1.33-.07.23-.1.35-.12.47-.17.7-.08.44-.11.63-.06.34-.08.46,0,.17,0,.17a.66.66,0,0,0,.12.45.6.6,0,0,0,.4.26l.62.1.15,0,.15,0,.34,0,.35,0,.18,0h.19l.71,0h.61l.42,0h.13l.09.08c0,.08,0,.28,0,.55,0,.09,0,.19,0,.29l0,.32c0,.22.06.46.09.7s.09.48.14.71a2.72,2.72,0,0,0,.07.33c0,.11,0,.2.07.29.09.37.17.62.17.62a.53.53,0,0,0,.11.21.84.84,0,0,0,.18.15.71.71,0,0,0,.47.08h0l.13,0,.44-.12.29-.09.16,0,.16-.06q.34-.1.69-.24l.17-.06.16-.07.32-.14.3-.13.13-.06.13-.07.45-.23.17.05,0,.08c0,.1.11.22.19.38l.3.54c.11.19.24.39.37.6l.21.31a2.83,2.83,0,0,0,.2.28c.14.19.27.37.39.52l.08.1.08.1.13.15.11.13a.64.64,0,0,0,.88.09l.14-.11.35-.28.48-.42c.18-.16.36-.32.53-.5l.49-.51.11-.12.1-.12.19-.22.29-.37.24,0,.37.29c.27.23.66.5,1.07.78l.31.19.3.18.3.17.14.08.13.06.56.28a.61.61,0,0,0,.24.07.62.62,0,0,0,.23,0,.64.64,0,0,0,.37-.3l.08-.15c0-.09.13-.24.21-.41s.18-.37.27-.58.19-.44.28-.67l.12-.33c.05-.12.08-.23.12-.34s.13-.41.17-.58,0-.16.07-.23,0-.13,0-.18l.26-.15.18,0,.23.06c.35.08.82.19,1.3.26l.36.06.18,0,.17,0,.64,0,.26,0h.37a.64.64,0,0,0,.44-.17.55.55,0,0,0,.15-.19.62.62,0,0,0,.07-.23s0-.06,0-.17,0-.27,0-.46,0-.41,0-.64V185c0-.12,0-.24,0-.36s0-.49,0-.71-.06-.43-.08-.61,0-.29-.06-.39l.21-.27.38-.06.28-.06.32-.06.34-.08.18,0,.17-.05.69-.2L127,182l.29-.1.43-.17.16-.06a.68.68,0,0,0,.33-.34.59.59,0,0,0,0-.47l-.23-.59c0-.09-.07-.18-.11-.28s-.09-.2-.14-.31-.2-.43-.3-.65l-.34-.63c-.06-.09-.11-.19-.16-.27l-.16-.25-.2-.31c0-.12,0-.24.08-.36L127,177l.5-.35c.18-.13.37-.28.56-.44l.28-.23.27-.23.47-.44.32-.33a1.06,1.06,0,0,1,.12-.12.65.65,0,0,0,0-.88Z"/><path d="M130.55,173a8.7,8.7,0,0,0-1.74-1.58,6,6,0,0,1-1.09-.8c.81.93.07,1.6.67.65.84-1.32,1.9-3.32.86-4.75A5.11,5.11,0,0,0,126,165c-1.42.14-.54,1.1-.33.22a7.37,7.37,0,0,0,.06-2.92c-.38-1.43-.83-1.93-2.33-2.17a6.7,6.7,0,0,0-1.67.15c-3.72.45-.64.47-.77.93.25-.9-1.37-3.7-2.16-4.13-1.3-.71-2.42,0-3.57.68a9.44,9.44,0,0,0-1.38,1c-.86.77,1.36.5.73-.07a17,17,0,0,0-1.71-1.68c-1.33-.94-2.18-1.24-3.6-.17a6.47,6.47,0,0,0-1,1.32,5.07,5.07,0,0,0-.68,1c-.63,2-.69-.56.9.27a10.46,10.46,0,0,0-2.86-1.1c-1.18-.2-2.11-.26-2.95.76a5.14,5.14,0,0,0-.65,2.16,5.3,5.3,0,0,0-.21,1.46c.66,1.4-1.61-.94,1.26-.27-2.14-.5-5.41,0-5.8,2.44a6.32,6.32,0,0,0,.44,2.35c.1.26.19,1.13.39,1.26.84.56.57-1.17,1-1.14-.72,0-2.74,1.18-3.28,1.63-2.11,1.77-1,4.3,1,5.84.3.22.45-1.15,0-.75a6.29,6.29,0,0,0-1.08,1.32c-.94,1.28-1.65,2.27-.74,3.71a5.52,5.52,0,0,0,2.57,1.73c.25.1,1.28.75,1.46.62.41-.29-.21-1.58-.91-1.11-.23.16-.27,1-.39,1.26-1.33,3.23,1,5.48,4.27,4.83.36-.08.78.06,1.15,0-1.84.5-1.24-1.85-1.17.84,0,1.78.8,3.31,2.65,3.49a6,6,0,0,0,2.64-.77,10.46,10.46,0,0,1,1.23-.55c-1.62.78-1.52-1.69-.9.28a6.46,6.46,0,0,0,.79,1.19c2.4,3.27,4,1.18,6.41-.89-.8.67-1.65-.51-.92.14a9.2,9.2,0,0,0,2,1.31,4,4,0,0,0,1.83.7c1.61-.1,2.81-2.09,3-3.58a5.23,5.23,0,0,1,.32-1c-.52,1.3-2.58.13.2,1a6.57,6.57,0,0,0,2,.22,2.43,2.43,0,0,0,2.54-2.25,10.68,10.68,0,0,0-.11-3.14c-.11-1.21-1.15.89-.29.67a4.11,4.11,0,0,1,.83-.18c1.41,0,3.24-1.11,3.5-2.48A4.28,4.28,0,0,0,129,179a8.47,8.47,0,0,0-.81-1.55c-.23-.32-1.17,1.09,0,.57,1.5-.65,3.37-2.67,2.7-4.36s-3.6-1-2.89.8c-.18-.46,0,0-.93.66-.46.35-1.46.82-1.75,1.41-.61,1.23.08,2.31.78,3.34s1,.38.59.71a5.41,5.41,0,0,1-1.51.46c-1.16.37-2.06.24-2.57,1.58a5.3,5.3,0,0,0,.14,2.28c.38,1.95-.71,1,.63.9-1.13.11-2.39-.77-3.52-.55-1.48.29-1.44,1.08-2,2.25-.25.52-.35,1.7-.84,2,1-.54.23-.47-.31-.89-1.38-1.07-2.21-1.85-3.8-1-.28.15-.44.61-.69.83s-.66.69-1,1c-1,.88.22.52,0,.44-2.69-1.22-.79-3.95-4.56-2.84-.53.16-1.88,1-2.46.83,1.3.45.85-2.89.28-3.55-1.31-1.5-3.83,0-4.84-1,.74.72,1.77-1.94,1.57-3-.23-1.26-.93-1.28-1.88-1.83-.44-.25-2-.74-2.21-1.23.33.88,2.06-.86,2.42-1.63.88-1.89-2.08-4.64-2.42-3.84.71-1.69,3.68-.83,4.09-3.05.2-1.08-1-3.71-1.57-3,.33-.36,2-.11,2.61-.2.86-.12,1.44.14,2.11-.64s1.21-4.25-.16-3.7c1.74-.7,3.16,2.26,5.16.9.87-.59.88-2.3,1.82-2.86.62-.36-.59-.06-.47,0a6.22,6.22,0,0,1,1,.92,7.56,7.56,0,0,0,1.18,1.34c1.93,1,2.32-.38,4.11-1.18,1-.45-.27-.83.2-.3s.43,1.69.88,2.37c.86,1.31,1.08,1.24,2.56,1.27,1.07,0,1.57-.44,2.51-.37-.67,0,0-1.17-.42.7-.39,1.61-.32,2.91,1.1,3.8.33.21,1.1.16,1.5.29s.69.19,1,.31c.81.27.52.43.5.13,0,.19-2.07,2.13-1.75,3.49s2.33,2.22,3.26,3.19C129.76,176.48,131.88,174.36,130.55,173Z"/><path class="cls-4" d="M223.4,190.46a53.46,53.46,0,1,0,64.34-52.33,96.82,96.82,0,0,0-3.66-9.44,95.8,95.8,0,0,0-54-50.34h0a95.83,95.83,0,0,0-73.77,2.57q-4.14,1.89-8,4.13L138,62.39,105,122.1l66.59,14.07L158.31,107a73.15,73.15,0,0,1,7.94-4.3,72.56,72.56,0,0,1,96,35.92c.06.13.1.27.16.4A53.51,53.51,0,0,0,223.4,190.46Zm54-41.1a41.11,41.11,0,1,1-41.1,41.1A41.1,41.1,0,0,1,277.42,149.36Z"/><path d="M221.9,190.46c.33,25.88,18.64,48.91,44.29,53.92a55.52,55.52,0,0,0,61.16-32.24c10.39-24.19,1.66-53-20.27-67.55a54.43,54.43,0,0,0-8.22-4.47c-1.15-.5-2.32-1-3.5-1.39-1.52-.55-4.57-.85-5.87-1.75-2.19-1.52-3-6.56-4.11-9a96.12,96.12,0,0,0-5.64-10.61,97.76,97.76,0,0,0-29-30.1c-30.9-20.62-71-21.58-103.24-3.49l2.05.54L139.27,61.64a1.51,1.51,0,0,0-2.59,0l-33,59.7a1.52,1.52,0,0,0,.9,2.21l66.58,14.07a1.53,1.53,0,0,0,1.7-2.21L159.6,106.26l-.54,2A71.35,71.35,0,0,1,222,102.52c16.56,6.46,32.48,20,39,36.91l1.05-1.84a55.75,55.75,0,0,0-40.14,52.87,1.5,1.5,0,0,0,3,0,52.69,52.69,0,0,1,37.94-50,1.51,1.51,0,0,0,1-1.84c-6.74-17.46-22.67-31.51-39.7-38.45a74.38,74.38,0,0,0-66.63,5.53,1.55,1.55,0,0,0-.54,2l13.29,29.16,1.69-2.21L105.4,120.65l.9,2.21,33-59.71h-2.59L147,85.8a1.51,1.51,0,0,0,2.05.53A96,96,0,0,1,239,83.85a94.49,94.49,0,0,1,30.64,24.44,96,96,0,0,1,11.18,17.08,93.08,93.08,0,0,1,4.37,10c.82,2.25.74,3.51,2.83,4.37,2.68,1.11,5.71,1.51,8.44,2.62a51.56,51.56,0,0,1,8.55,4.48,52,52,0,0,1,23.58,48.5c-2.35,25.53-24,46.07-49.64,47.06-29.35,1.14-53.68-22.81-54-51.92C224.87,188.54,221.87,188.53,221.9,190.46Z"/><path d="M277.42,150.86c16.52.27,31.62,10.42,37.26,26.14a39.61,39.61,0,1,1-76.11,5.74c3.69-18.54,20.15-31.57,38.85-31.88,1.93,0,1.94-3,0-3a42.61,42.61,0,1,0,41.87,34.75c-3.69-20.16-21.65-34.42-41.87-34.75C275.49,147.83,275.49,150.83,277.42,150.86Z"/><path class="cls-7" d="M236.32,190.46a41.1,41.1,0,1,0,41.1-41.1A41.1,41.1,0,0,0,236.32,190.46Z"/><path d="M234.82,190.46a42.6,42.6,0,1,0,34.75-41.87c-20.15,3.7-34.41,21.66-34.75,41.87a1.5,1.5,0,0,0,3,0c.28-16.51,10.42-31.62,26.14-37.25a39.61,39.61,0,1,1,5.74,76.11c-18.54-3.69-31.57-20.16-31.88-38.86C237.79,188.54,234.79,188.53,234.82,190.46Z"/><circle class="cls-6" cx="112.83" cy="174.46" r="9.1"/><path d="M116,167.56c3.6,1.95,5.55,6.18,3.71,10.08a7.7,7.7,0,0,1-10.08,3.72c-8.88-4.1-2.63-17.62,6.37-13.8,1.76.74,3.29-1.84,1.51-2.59-5.31-2.25-11.51-.6-14.19,4.79A10.59,10.59,0,1,0,117.53,165C115.84,164.05,114.32,166.64,116,167.56Z"/><path class="cls-5" d="M296.34,162.17c-10.4-3-17.87,5.71-17.87,12.29,0,6.81,6.38,12.33,14.25,12.33,2,0,5.94-.62,8.25-3.62C285.94,183.17,281.32,169.17,296.34,162.17Z"/><path d="M296.74,160.72c-9.62-2.3-21.68,4.88-19.54,16,2.06,10.65,17.35,15.64,24.83,7.5a1.52,1.52,0,0,0-1.06-2.56c-4.61-.14-10.79-1.59-12.14-6.78-1.41-5.47,4.1-9.34,8.27-11.43,1.73-.86.21-3.45-1.51-2.59-5.48,2.74-11.47,7.95-9.65,14.82,1.74,6.56,9,8.8,15,9l-1.06-2.57c-6,6.56-18.85,2.24-19.82-6.6-.95-8.64,8.43-13.66,15.86-11.89C297.82,164.06,298.62,161.17,296.74,160.72Z"/><g class="cls-8"><path class="cls-9" d="M85.49,214.42a23.72,23.72,0,0,1,2.27-6.1c.45-.81,1.09-1.7,2-1.72,1.59,0,2.52,2.49,4.08,2.14a2.56,2.56,0,0,0,1.21-.88c1.7-1.84,3.8-3.74,6.3-3.59a11.27,11.27,0,0,0,2.58.2,6.42,6.42,0,0,0,1.66-.67,16.5,16.5,0,0,1,7.65-1.25L107,194.94l-7.1,3.8-9.61-17.07s-5.9,10.67-11.93,21.21C80,207.23,82.08,211.33,85.49,214.42Z"/><path d="M86.93,214.81c.28-1.07,1-5.16,2.13-5.73,2.38-1.22,1.72.56,3.17.86,1.84.39,2,.17,3.6-.79,3-1.8-.3-2.54,6.43-3.26.68-.07,1.39.15,2.09,0,3.13-.54,5.46-1.88,8.91-1.87a1.52,1.52,0,0,0,1.06-2.56L108,193.88a1.5,1.5,0,0,0-1.81-.23l-7.11,3.8,2,.53-9.61-17.07a1.51,1.51,0,0,0-2.59,0q-4.72,8.57-9.57,17.07c-2,3.45-3.05,4.23-1.49,7.8a30.08,30.08,0,0,0,6.54,9.7c1.39,1.35,3.51-.77,2.13-2.12-2.19-2.14-4.92-5.32-5.77-8.39-1.07-3.86,2.91-8.53,4.73-11.76q3-5.39,6-10.79H88.94l9.61,17.08a1.54,1.54,0,0,0,2,.54l7.11-3.8-1.82-.24,6.31,7.61,1.06-2.56c-4.05,0-7.53,1.45-11.49,1.77a9.71,9.71,0,0,0-3.61.67c-1.57.71-2.63,2.28-4.36,2.55-2,.31-3.25-1.5-5.37-.46-2.7,1.33-3.71,5.82-4.39,8.44A1.5,1.5,0,0,0,86.93,214.81Z"/><path class="cls-10" d="M113.26,202.55a16.5,16.5,0,0,0-7.65,1.25,6.42,6.42,0,0,1-1.66.67,11.27,11.27,0,0,1-2.58-.2c-2.5-.15-4.6,1.75-6.3,3.59a2.56,2.56,0,0,1-1.21.88c-1.56.35-2.49-2.18-4.08-2.14-.93,0-1.57.91-2,1.72a23.72,23.72,0,0,0-2.27,6.1c-3.41-3.09-5.54-7.19-7.18-11.54-5.73,10-11.58,19.89-12.62,20.41v13.88L134,227.56Z"/><path d="M113.26,201.05c-4.05,0-7.53,1.45-11.49,1.77a9.71,9.71,0,0,0-3.61.67c-1.57.71-2.63,2.28-4.36,2.55-2,.31-3.25-1.5-5.37-.46-2.7,1.33-3.71,5.82-4.39,8.44l2.51-.66a29.7,29.7,0,0,1-6.8-10.88,1.52,1.52,0,0,0-2.74-.36c-2.88,5-5.76,10.06-8.81,15-1.18,1.91-3.43,4.11-4,6.24-.53,2,0,4.87,0,6.89v6.94a1.52,1.52,0,0,0,1.9,1.44L134.4,229c1.23-.18,1.28-1.76.66-2.51l-20.74-25c-1.23-1.49-3.35.64-2.12,2.12l20.74,25,.66-2.51-68.31,9.61,1.9,1.45c0-4.19-1-9.62,0-13.66-.23.93,0,.31.69-.46a31.61,31.61,0,0,0,2.91-4.43c3-4.93,5.93-10,8.81-15l-2.74-.36a33.66,33.66,0,0,0,7.56,12.2,1.52,1.52,0,0,0,2.51-.67c.28-1.07,1-5.16,2.13-5.73,2.38-1.22,1.72.56,3.17.86,1.84.39,2,.17,3.6-.79,3-1.8-.3-2.54,6.43-3.26.68-.07,1.39.15,2.09,0,3.13-.54,5.46-1.88,8.91-1.87A1.5,1.5,0,0,0,113.26,201.05Z"/></g><path d="M105,147.86a42.61,42.61,0,1,0,41.87,34.75c-3.7-20.15-21.65-34.42-41.87-34.75-1.93,0-1.93,3,0,3,16.52.27,31.62,10.42,37.26,26.14a39.62,39.62,0,1,1-76.12,5.74C69.83,164.2,86.3,151.17,105,150.86,106.93,150.83,106.94,147.83,105,147.86Z"/><g class="cls-11"><path class="cls-9" d="M257.91,214.42a24.12,24.12,0,0,1,2.28-6.1c.44-.81,1.08-1.7,2-1.72,1.6,0,2.53,2.49,4.08,2.14a2.58,2.58,0,0,0,1.22-.88c1.69-1.84,3.8-3.74,6.29-3.59a11.32,11.32,0,0,0,2.58.2,6.35,6.35,0,0,0,1.67-.67,16.48,16.48,0,0,1,7.64-1.25l-6.3-7.61-7.11,3.8-9.61-17.07s-5.9,10.67-11.93,21.21C252.37,207.23,254.5,211.33,257.91,214.42Z"/><path d="M259.36,214.81c.28-1.07,1-5.16,2.12-5.73,2.38-1.22,1.72.56,3.18.86,1.84.39,2,.17,3.59-.79,3.06-1.8-.3-2.54,6.44-3.26.67-.07,1.39.15,2.08,0,3.14-.54,5.47-1.88,8.91-1.87a1.52,1.52,0,0,0,1.06-2.56l-6.3-7.61a1.51,1.51,0,0,0-1.82-.23l-7.11,3.8,2.05.53L264,180.91a1.51,1.51,0,0,0-2.59,0q-4.74,8.57-9.57,17.07c-2,3.45-3.05,4.23-1.49,7.8a30.08,30.08,0,0,0,6.54,9.7c1.38,1.35,3.5-.77,2.12-2.12-2.19-2.14-4.92-5.32-5.77-8.39-1.06-3.86,2.92-8.53,4.74-11.76,2-3.59,4-7.18,6-10.79h-2.59L271,199.5A1.55,1.55,0,0,0,273,200l7.1-3.8-1.81-.24,6.3,7.61,1.06-2.56c-4.05,0-7.53,1.45-11.49,1.77a9.66,9.66,0,0,0-3.6.67c-1.58.71-2.64,2.28-4.37,2.55-2,.31-3.25-1.5-5.37-.46-2.69,1.33-3.7,5.82-4.39,8.44A1.5,1.5,0,0,0,259.36,214.81Z"/><path class="cls-10" d="M285.68,202.55A16.48,16.48,0,0,0,278,203.8a6.35,6.35,0,0,1-1.67.67,11.32,11.32,0,0,1-2.58-.2c-2.49-.15-4.6,1.75-6.29,3.59a2.58,2.58,0,0,1-1.22.88c-1.55.35-2.48-2.18-4.08-2.14-.93,0-1.57.91-2,1.72a24.12,24.12,0,0,0-2.28,6.1c-3.41-3.09-5.54-7.19-7.18-11.54-5.73,10-11.58,19.89-12.61,20.41v13.88l68.3-9.61Z"/><path d="M285.68,201.05c-4.05,0-7.53,1.45-11.49,1.77a9.66,9.66,0,0,0-3.6.67c-1.58.71-2.64,2.28-4.37,2.55-2,.31-3.25-1.5-5.37-.46-2.69,1.33-3.7,5.82-4.39,8.44l2.51-.66a29.67,29.67,0,0,1-6.79-10.88,1.52,1.52,0,0,0-2.74-.36c-2.89,5-5.77,10.06-8.82,15-1.18,1.91-3.43,4.11-4,6.24-.54,2,0,4.87,0,6.89v6.94a1.52,1.52,0,0,0,1.89,1.44l68.31-9.6c1.23-.18,1.29-1.76.66-2.51l-20.74-25c-1.23-1.49-3.34.64-2.12,2.12l20.74,25,.66-2.51-68.3,9.61,1.9,1.45c0-4.19-1-9.62,0-13.66-.23.93,0,.31.69-.46a32.45,32.45,0,0,0,2.9-4.43c3.06-4.93,5.94-10,8.82-15l-2.75-.36a33.68,33.68,0,0,0,7.57,12.2,1.52,1.52,0,0,0,2.51-.67c.28-1.07,1-5.16,2.12-5.73,2.38-1.22,1.72.56,3.18.86,1.84.39,2,.17,3.59-.79,3.06-1.8-.3-2.54,6.44-3.26.67-.07,1.39.15,2.08,0,3.14-.54,5.47-1.88,8.91-1.87A1.5,1.5,0,0,0,285.68,201.05Z"/></g><path d="M234.82,190.46a42.6,42.6,0,1,0,34.75-41.87c-20.15,3.7-34.41,21.66-34.75,41.87a1.5,1.5,0,0,0,3,0c.28-16.51,10.42-31.62,26.14-37.25a39.61,39.61,0,1,1,5.74,76.11c-18.54-3.69-31.57-20.16-31.88-38.86C237.79,188.54,234.79,188.53,234.82,190.46Z"/></g></svg>