<svg xmlns="http://www.w3.org/2000/svg" xmlns:xlink="http://www.w3.org/1999/xlink" viewBox="0 0 154 80" xmlns:v="https://vecta.io/nano"><g fill="#fff" stroke="#e56869" stroke-width="3.012" stroke-miterlimit="10"><path d="M100.8 76.2H21.6c-5 0-9.1-4.1-9.1-9.1V20.8c0-5 4.1-9.1 9.1-9.1h79.3c5 0 9.1 4.1 9.1 9.1v46.3c0 5-4.1 9.1-9.2 9.1z"/><path d="M89.7 2.5s5.6 0 11.3 2.4c4.6 2 8.5 5.2 9.2 13.2v6.5" stroke-linecap="round" stroke-linejoin="round"/><path d="M91.7 67.1H12.4c-5 0-9.1-4.1-9.1-9.1V11.6c0-5 4.1-9.1 9.1-9.1h79.3c5 0 9.1 4.1 9.1 9.1v46.3c0 5.1-4.1 9.2-9.1 9.2z"/></g><g fill="#e56869"><use xlink:href="#B"/><use xlink:href="#B" y="14.1"/><path d="M72.2 52.9H31.9c-1.4 0-2.5-1.1-2.5-2.5v-1.7c0-1.4 1.1-2.5 2.5-2.5h40.3c1.4 0 2.5 1.1 2.5 2.5v1.7c0 1.3-1.1 2.5-2.5 2.5z"/></g><path d="M100.9 24.8h60.5v17.8h-60.5z" fill="#fff" stroke="#e56869" stroke-width="3.012" stroke-miterlimit="10"/><defs ><path id="B" d="M72.2 25.9H31.9c-1.4 0-2.5-1.1-2.5-2.5v-1.7c0-1.4 1.1-2.5 2.5-2.5h40.3c1.4 0 2.5 1.1 2.5 2.5v1.7c0 1.4-1.1 2.5-2.5 2.5z"/></defs></svg>