<svg xmlns="http://www.w3.org/2000/svg" viewBox="0 0 363 317" xmlns:v="https://vecta.io/nano"><style><![CDATA[.M{fill:#183e42}.N{fill:#183e41}.O{fill:#fff}.P{fill:#fac706}.Q{fill:#1d1d1b}.R{fill:#45b7c0}.S{fill:#e4252e}.T{fill:#193e42}.U{fill:#7ec7cd}]]></style><defs><clipPath id="A"><path transform="matrix(.077067 -.997026 .997026 .077067 116.51 417.41)" d="M273.21 133.63h21.03v24.29h-21.03z" fill="none"/></clipPath></defs><path d="M155.15 245.49a3.18 3.18 0 0 1-2.63-2.85 2.83 2.83 0 0 1 1.93-3L166 235.5l2.45-.78c3.12-.93 7-2.09 8.23-4.42 1.05-2 .8-4.4.54-6.94-.31-3-.66-6.37 1.22-9.44 3.79-6.18 11.5-8.91 21.14-7.51a34.71 34.71 0 0 1 9.67 2.87 3 3 0 0 1 1.59 3.66 3 3 0 0 1-3.22 2.18h0a3.24 3.24 0 0 1-.9-.28 29.65 29.65 0 0 0-8.32-2.52c-3.92-.57-9.38-.5-13.21 3.06-2.73 2.55-2.49 5.57-2.21 9.05a18 18 0 0 1-.44 7.43c-1.38 4.08-4.26 5.56-7.35 6.84-4 1.68-8.29 3.12-12.39 4.5l-6.17 2.13a3.19 3.19 0 0 1-1.48.16z" class="S"/><g class="M"><path d="M155.55 244c-5.4-1.81.23-3.18.62-3.44a10.22 10.22 0 0 1 2.23-.8l6-2.15c3.74-1.33 8.14-2 11.4-4.32 4.74-3.39 2.41-9 2.67-13.86.5-9.16 10.22-12.28 17.95-11.88a33.39 33.39 0 0 1 6.12.92c1.1.28 2.19.6 3.26 1 3.57.52 3.59 1.65.07 3.36-2.06.12-5.27-1.73-7.49-2-5.27-.72-11.82 0-15.27 4.62-4.24 5.67 1.22 13.59-3.77 19-2.78 3-7.93 4.2-11.64 5.51-4 1.4-8.41 3.61-12.58 4.06-1.9.2-1.92 3.2 0 3 3.36-.36 6.62-1.85 9.82-2.94a121.44 121.44 0 0 0 11.56-4.3c5.83-2.67 8.28-7 8.09-13.48-.16-5.55-.42-10.42 6.15-12.22 4-1.1 8.48-.35 12.33.94 3.4 1.14 8.85 3.19 9.32-2.6.45-5.58-8.57-6.84-12.43-7.43-5.6-.85-11.72-.5-16.74 2.36a14.48 14.48 0 0 0-7.76 12.94c0 5.35 1.83 9.77-4.64 12.14-2 .72-4 1.23-6 1.93-3.56 1.24-7.63 2.18-11 3.92-4.12 2.16-3.39 7.25.88 8.68 1.88.59 2.67-2.31.85-2.96z"/><path d="M199.4,207.75a32.76,32.76,0,0,1,9.27,2.76,1.72,1.72,0,0,1-.85,3.26,1.57,1.57,0,0,1-.51-.16A31.46,31.46,0,0,0,198.6,211c-5.16-.75-10.58-.07-14.33,3.42-5.28,4.93-1.09,11.38-3,17-1.14,3.38-3.4,4.7-6.58,6-6,2.49-12.36,4.41-18.5,6.6a1.78,1.78,0,0,1-.84.09c-1.52-.22-2.19-2.61-.43-3.24l11.56-4.12c3.42-1.23,9.56-2.29,11.42-5.85,2.59-4.94-1.43-11.17,1.72-16.3,4-6.56,12.26-8,19.79-6.88m.39-2.69c-10.21-1.48-18.41,1.49-22.49,8.15-2.13,3.46-1.75,7.09-1.42,10.28.25,2.44.47,4.54-.39,6.18-1,1.82-4.69,2.94-7.42,3.75-.9.27-1.75.52-2.51.8l-1.45.51L154,238.34a4.21,4.21,0,0,0-2.82,4.43,4.55,4.55,0,0,0,3.78,4.06,4.47,4.47,0,0,0,2.14-.22c2-.73,4.12-1.43,6.14-2.12,4.12-1.39,8.39-2.84,12.49-4.54,3.25-1.34,6.56-3,8.12-7.65a19.36,19.36,0,0,0,.5-8c-.3-3.74-.36-6,1.79-8,3.61-3.37,9.12-3.15,12.08-2.72a28.21,28.21,0,0,1,7.93,2.41,4.67,4.67,0,0,0,1.29.39,4.44,4.44,0,0,0,2.41-8.41,35.89,35.89,0,0,0-10.05-3Z"/></g><path d="M218.71,205.38a27.65,27.65,0,0,1-10.84-.1c-1.35,3.37-2.62,7.65-.56,10.33,2.37,3.09,7,1.27,10.35,2.85" class="P"/><path d="M218.32,203.93a27.6,27.6,0,0,1-10-.1,1.57,1.57,0,0,0-1.85,1c-1.38,3.55-2.95,8.47-.17,11.79s7.4,1.78,11,3.23c1.79.72,2.57-2.18.8-2.89-2.63-1.06-5.64-.27-8.2-1.32-3.88-1.59-1.61-7.27-.54-10l-1.85,1a32.07,32.07,0,0,0,11.64.1c1.9-.33,1.1-3.22-.79-2.9Z" class="M"/><path d="M233.42 65.55c-4.69 12.87-8.92 25.92-12.33 39.19-1.45 5.66-2.79 11.52-2 17.3a36.44 36.44 0 0 0 5.19 13.19c4.87 8.22 11.51 15.74 20.21 19.7 0 0 11.59 13.77 3.87 18.36s-17.53-5.94-17.53-5.94c-17.38-8.91-28.38-27.22-29-46.73s7.74-40.31 16.72-57.62c0 0 4.39-8.25 8.75-5.66s8.31 2.22 6.12 8.21z" class="O"/><path d="M232 65.15c-3.83 10.54-7.38 21.18-10.4 32-2.58 9.23-5.86 19.23-3.14 28.79 2.43 8.55 8.21 16.87 14.62 23 3.07 2.91 6.49 4.54 9.87 6.93 1.73 1.23 2.91 3.34 4 5.2 1.38 2.39 3.57 6.32 2.32 9.13-2.28 5.09-9.3 2.25-12.64 0-1.7-1.12-3-2.61-4.6-3.82-3.28-2.5-7.06-4.19-10.24-6.94-15.42-13.34-20.68-33.53-17.4-53.2 2.06-12.34 6.61-24.18 12-35.43 1.55-3.24 2.94-6.84 5.26-9.65 2-2.4 3.55-2.83 6.54-1.68 2.67 1 4.89 2.31 3.85 5.7-.57 1.85 2.32 2.64 2.89.8.84-2.74 1-5.16-1.3-7.09-2.1-1.72-6.41-4-9.25-3.4-6.86 1.52-10.56 13.6-12.83 18.68-9.46 21.24-16.14 46-6.06 68.25a55.84 55.84 0 0 0 18.47 22.49c2.9 2.06 5.77 3.66 8.5 5.9 2.9 2.37 6.36 4.56 10.15 5 6.2.79 11-3.43 9.72-9.73a20.92 20.92 0 0 0-9.81-13.9c-13.47-7.64-24.23-24.6-21.52-40.18s8.47-31.17 13.87-46c.66-1.87-2.24-2.65-2.87-.85z" class="N"/><path d="M241.87,52.67a11.72,11.72,0,0,1-3.68,5.4c-1.79,1.67-3.87,3.24-6.31,3.48-3.57.36-7-2.51-7.87-6a11.13,11.13,0,0,1,2.92-9.93" class="O"/><path d="M240.42,52.27c-1.35,4-7,9.48-11.5,7.22-5.19-2.58-4-9.12-.93-12.81,1.23-1.47-.88-3.6-2.12-2.12-4.37,5.19-5.44,13.85,1.53,17.52,6.45,3.39,13.93-3.08,15.91-9,.62-1.84-2.28-2.63-2.89-.8Z" class="N"/><path d="M233.49,147.32a34.8,34.8,0,0,0-10.24,12.35" class="O"/><path d="M232.73,146A37.89,37.89,0,0,0,222,158.91c-.87,1.72,1.71,3.24,2.59,1.52a34.6,34.6,0,0,1,9.7-11.82c1.5-1.16,0-3.77-1.52-2.59Z" class="N"/><path d="M225.92,138.17c-1.54-.41-5.25,1.75-6.61,2.58a40.78,40.78,0,0,0-8,6.29" class="O"/><path d="M225.92,136.67c-2.46-.3-5.16,1.47-7.17,2.67a52,52,0,0,0-8.5,6.64c-1.42,1.32.71,3.44,2.12,2.13a47.21,47.21,0,0,1,7.27-5.8c1.73-1.07,4.16-2.89,6.28-2.64,1.91.22,1.9-2.78,0-3Z" class="N"/><path d="M219.25,126.88a16.81,16.81,0,0,0-11.89,2.45c-1.36.88-2.87,2-4.42,1.56" class="O"/><path d="M219.64,125.43a19.83,19.83,0,0,0-8,.36A18.15,18.15,0,0,0,208.4,127c-1.72.84-3.4,2.59-5.46,2.37s-1.91,2.8,0,3c2.45.26,4-1.17,6.06-2.3a15.82,15.82,0,0,1,9.85-1.77c1.89.26,2.7-2.63.79-2.89Z" class="N"/><path d="M218.68 109.79h.5a24.59 24.59 0 0 0-15 .7" class="O"/><path d="M218.68 111.29h.5a1.51 1.51 0 0 0 .4-2.95 28.22 28.22 0 0 0-15.77.7c-1.83.6-1.05 3.5.79 2.89a25.19 25.19 0 0 1 14.18-.7l.4-2.94h-.5c-1.93-.1-1.92 2.9 0 3z" class="N"/><path d="M221.68,94.37a40.28,40.28,0,0,0-13.54-3.14" class="O"/><path d="M222.07,92.92a43.87,43.87,0,0,0-13.93-3.19c-1.92-.13-1.92,2.87,0,3a41.33,41.33,0,0,1,13.14,3.09c1.78.73,2.56-2.17.79-2.9Z" class="N"/><path d="M226.67,80.79a63.69,63.69,0,0,0-12.78-3" class="O"/><path d="M227.07,79.34a69,69,0,0,0-12.78-3c-1.88-.26-2.7,2.63-.79,2.89a68.35,68.35,0,0,1,12.77,3c1.83.62,2.62-2.28.8-2.9Z" class="N"/><path d="M230,69.74a50.83,50.83,0,0,0-12.47-3.64" class="O"/><path d="M230.8,68.44A48.79,48.79,0,0,0,218,64.66c-1.89-.26-2.7,2.63-.8,2.89A45.92,45.92,0,0,1,229.28,71c1.75.77,3.28-1.82,1.52-2.59Z" class="N"/><path d="M227.42 15.75c-.82 6.3-5.06 11.91-5.09 18.26a19.23 19.23 0 0 0 3.15 9.99 20.1 20.1 0 0 0 8.72 8.12 12.29 12.29 0 0 0 11.59-.65 18 18 0 0 0 4.59-5.07 82.14 82.14 0 0 0 10.82-23.2 29 29 0 0 0-8.72-4.2l-5.38 11a14.85 14.85 0 0 1-3.12 4.7 5 5 0 0 1-5.24 1.11 4.93 4.93 0 0 1-2.51-4.38 13.48 13.48 0 0 1 1.18-5.16c1.57-4.13 3.33-8.19 5.27-12.15l-11.36-3.94a1.79 1.79 0 0 0-1.43-.08 1.79 1.79 0 0 0-.69 1.4c-.32 2-1.64 3.69-1.95 5.68" class="R"/><path d="M226,15.35c-1.39,8-6.77,15-4.44,23.38,1.82,6.55,7,13.28,13.7,15.32,6.37,1.93,11.89-.66,15.66-5.81a81.45,81.45,0,0,0,11.75-24.69,1.55,1.55,0,0,0-.68-1.7,35.71,35.71,0,0,0-9.08-4.32,1.51,1.51,0,0,0-1.7.69l-3.46,7.05c-.82,1.68-1.8,5.25-3.26,6.43l-6.6.61.4-4a24.28,24.28,0,0,1,1.28-3.45c1.33-3.4,2.85-6.73,4.44-10a1.53,1.53,0,0,0-.9-2.21l-8-2.78c-1.43-.5-3.6-1.77-5.21-1.29-2.59.78-3.45,6-4,8.18a1.5,1.5,0,0,0,2.89.8,19.36,19.36,0,0,1,1.56-4.23c1.12-2-.44-1.94,2.38-1.13,3.25.93,6.45,2.24,9.65,3.34l-.89-2.2c-2.45,5.07-11.73,20-3.22,23.82s13.22-12.55,15.6-17.4l-1.69.69a32.57,32.57,0,0,1,8.36,4l-.69-1.69c-2.82,9.46-10.29,32.62-23.72,28.41-6.69-2.1-12.19-10.25-12.2-17.15,0-6.2,4-11.82,5-17.86.33-1.89-2.56-2.7-2.89-.8Z" class="M"/><path d="M228.83,18.62l8.84,3.51c.42.17.89.71.51.95" class="O"/><path d="M228.43,20.06l4.42,1.76,2,.81c.49.2,1.84.45,2.12.89l-.15-1.16-.13.32c-.73,1.79,2.17,2.56,2.89.8.81-2-1.52-2.78-2.91-3.33l-7.48-3c-1.79-.71-2.57,2.19-.8,2.89Z" class="N"/><path d="M250.48,27.82l7.09,3.39" class="O"/><path d="M249.72,29.12l7.09,3.39c1.74.83,3.26-1.76,1.52-2.59l-7.09-3.39c-1.73-.83-3.26,1.76-1.52,2.59Z" class="N"/><g class="M"><path d="M308.25,288.42c9.62-2.2,20.76-7,25.15-18s5.82-23.48,6.94-35.66c1.72-18.83,5.53-47.42,1.24-65.36-1.42-6-3.58-11.93-7.58-15.54-6.44-5.81-15.37-3.81-23.4-2.66a86.71,86.71,0,0,1-33.5-1.76c-9.19-2.32-18.21-6.16-27.63-6.17s-19.76,4.85-24.22,15.45"/><path d="M308.65,289.86c7.26-1.73,14.5-4.52,20-9.78,6.46-6.23,8.73-15.5,10.42-24,1.92-9.74,2.61-19.67,3.59-29.54.93-9.32,1.85-18.65,2.24-28,.35-8.57.35-17.26-1.07-25.74-1.31-7.74-3.87-17.17-10.92-21.66-7.55-4.8-16.87-2-25.08-1.1a90.45,90.45,0,0,1-35.45-3.49c-9.52-2.78-19.48-6.31-29.49-4.05A27.19,27.19,0,0,0,224,157.92c-.8,1.75,1.79,3.27,2.59,1.52a24.43,24.43,0,0,1,17.73-14.2c8.92-1.8,18,1.41,26.41,3.92a97.25,97.25,0,0,0,26.81,4.37c8.53.08,16.93-2.42,25.4-2.15,19.9.64,19.46,29.61,19.08,44-.42,15.58-2.15,31.22-3.87,46.71-1.15,10.31-2.41,23.18-8.34,32-5,7.41-13.57,10.91-21.92,12.9-1.88.45-1.08,3.34.8,2.89Z"/></g><path d="M314.55,148.06c9.21.16,13.47,1.76,20.57,6.19-3.5,2.07-7.86,2.39-11.59,4a15.08,15.08,0,0,1-4.42,1.35c-1.84.18-5.93,2.31-7.74,1.92-9.43-2-10-1.95-19.65-1.14-6.74.57-20.34-1.45-27.1-1.77-13-.61-26.82-3.44-39.37.08,6.4-9.51,19.4-18.36,30.69-16.4,5.42.95,10.45,3.36,15.62,5.23,8.07,2.93,16.77,4.59,25.26,3.35,5.94-.86,11.74-3.12,17.73-2.8" class="R"/><path d="M314.55,149.56a37.34,37.34,0,0,1,19.81,6V153c-4.39,2.27-10.1,3.8-14.9,5-1.75.46-3.5,1.13-5.26,1.53-2.69.61-5.16-.09-7.8-.56-7.49-1.31-15,.29-22.51-.19-8.81-.55-17.64-1.43-26.43-2.18-10.93-.92-21.84-2.13-32.61.63l1.7,2.21c4.56-6.49,11.11-12,18.7-14.6,8-2.72,15-.08,22.48,2.81,7,2.71,14.21,4.84,21.78,5.1,8.57.3,16.54-3.3,25-3.19,1.93,0,1.93-3,0-3-9.77-.12-18.78,4-28.7,2.92s-18.21-6.15-27.72-8.28c-13.57-3-26.67,6-34.17,16.72-.79,1.12.51,2.51,1.69,2.21,11.69-3,23.57-1.08,35.41-.24,8.9.63,17.85,1.92,26.78,2.07,4.09.07,8.14-.64,12.24-.63s7.83,1.69,11.74,1.69c3.28,0,7.56-1.73,10.67-2.74,4.42-1.44,9.25-2.59,13.39-4.73a1.52,1.52,0,0,0,0-2.59,40.57,40.57,0,0,0-21.33-6.4c-1.93-.05-1.93,2.95,0,3Z" class="M"/><g clip-path="url(#A)"><path d="M291.19,138.44a4.14,4.14,0,0,1,2.86,4.19,4.57,4.57,0,0,1-.89,2.55,6.45,6.45,0,0,1-3.62,1.61,25.54,25.54,0,0,1-14.29-1.49,3.33,3.33,0,0,1-1.45-.94,2.31,2.31,0,0,1-.34-1.32c-.08-1.66.09-3.66,2-4.39,0,0,3.93-4.46,15.77-.21" class="T"/><path d="M290.44,139.74c3.32,1.61,2.09,4.27-.77,5.48-1.81.77-4.75.57-6.73.41-3.18-.25-11.12-1.63-6.41-6,3.56-3.27,10.46-1.06,14.27.23,1.83.62,2.61-2.27.79-2.89-4.78-1.62-11.1-3.21-15.83-.45-2.82,1.64-5.48,5.46-3.14,8.71,1.66,2.3,6.29,2.88,8.79,3.21,3.34.44,7.57.53,10.74-.87,4.8-2.13,4.17-8.33-.2-10.45-1.73-.84-3.25,1.74-1.51,2.59Z" class="M"/><path d="M290.72,139.77c3.88,1.89.83,5.29-2.16,5.75a24.61,24.61,0,0,1-6.91,0c-3.06-.42-9.59-2-5.17-6,3.59-3.25,10.42-1.11,14.24.18a1.41,1.41,0,0,0,.95-2.65c-4.8-1.63-11-3.22-15.76-.55-2.82,1.58-5.5,5.3-3.28,8.55,1.61,2.36,6.23,2.92,8.8,3.26,3.43.46,8.05.58,11.2-1.11,4.59-2.46,3.05-8.2-1-10.15-1.63-.8-2.57,1.87-.95,2.65" class="T"/><path d="M290,141.07l-.21,1.28q.33,1.72-1.38,1.56a8,8,0,0,1-2.57.37A21.2,21.2,0,0,1,281,144a8.75,8.75,0,0,1-2.28-.56c-.33-.17-1.23-.28-1.43-.59-1.39-2.19,1.67-3,2.82-3.26,2.5-.51,5.17.15,7.57.84,1.33.38,3,1.28,4.37.8,2.59-.9,2.41-4.09.35-5.37-3.49-2.16-10.1-2.71-14-1.78-8.11,1.93-11.46,12.14-2.13,14.92,5.72,1.7,19.15,3.23,20.57-5.06.54-3.14-1.74-7.73-5.14-8.3-3.2-.53-4.22,3.34-2.05,5.23,1.46,1.26,3.59-.85,2.13-2.12,2.75,2.39,2.89,6-.75,7.59-2.58,1.15-5.78,1-8.54.71a23,23,0,0,1-6.41-1.27c-2.65-1.1-3-4.81-.92-6.77a9.44,9.44,0,0,1,5.47-2.28c2.91-.3,5.54.6,8.34,1.14,3.42.67-2.13-.79-3-1-3.44-.69-7.39-.94-10.28,1.42-5.88,4.82,1.42,8.2,5.93,8.78,3.46.44,8.54.76,11.14-2.17,2.14-2.4,1.17-4.86-1.32-6.42-1.64-1-3.14,1.56-1.51,2.59Z" class="M"/><path d="M274.26,146.42a5.47,5.47,0,0,0-.54,4.22c.6,1.52,2.34,2.68,4.27,3.32a24.6,24.6,0,0,0,6.09,1c3.53.24,7.8.1,9.46-2.21,1.34-1.85.26-4.21-.89-6.22" class="T"/><path d="M272.81,146c-3.4,8.45,6.63,10.35,12.9,10.48,2.85.06,6.54-.12,8.61-2.4,2.3-2.55,1.05-5.72-.37-8.36-.92-1.7-3.51-.18-2.59,1.52,3.34,6.19-2.78,6.4-6.74,6.2-3.65-.19-11.3-.71-8.91-6.64.72-1.79-2.18-2.57-2.9-.8Z" class="M"/><path d="M272.93,145.94c-3.27,8.14,5.86,10.22,12.12,10.45,2.88.11,6.55.09,8.84-2,2.7-2.43,1.49-5.8,0-8.54-.85-1.59-3.39-.37-2.54,1.23,3.29,6.19-2.26,6.66-6.66,6.44-3.69-.19-11.52-.71-9.13-6.65.68-1.69-2-2.64-2.66-1" class="T"/><path d="M271.49,145.55c-2.86,8.25,4.83,11.61,11.79,12.23,3.76.34,8.7.52,11.67-2.3,2.77-2.63,2.52-7.4.27-10.35-1.35-1.78-4.12-2.11-5.19.2s2.4,4.55-.52,6.39c-1.32.83-3.9.39-5.44.3-1.73-.11-4.65-.13-6.12-1.26-2.08-1.6-.27-3.07-.83-5-.81-2.87-4-2.46-5.48-.54-1.17,1.53,1.43,3,2.59,1.51-2.82,3.7,2.21,7,5.15,7.72,3.52.84,9.45,1.65,12.6-.57a4.32,4.32,0,0,0,1.87-3.87,8.6,8.6,0,0,0-.31-1.59c-.3-1.29,0-.63-.08,0l.36,1.12-1.61,4.26c-.77.74-2.7.94-3.7,1.05-5.54.56-16.91-.47-14.13-8.52.63-1.82-2.26-2.61-2.89-.79Z" class="M"/><path d="M272.78,141.31c-2,7.42,12.34,6.44,16.12,5.75a1.41,1.41,0,0,0-.54-2.77c-1.25.23-13.82,1.3-12.93-2,.47-1.74-2.18-2.71-2.65-.95" class="P"/><path d="M271.33,140.91c-1.14,5.25,3.5,7.35,7.95,7.9,2.71.33,11.91,1.44,12.2-2.85.34-4.87-8-2.72-10.69-2.86a8.22,8.22,0,0,1-3.39-.49c-1-.57,0,.39-.43-1a5.65,5.65,0,0,0-.39-1.27,2.89,2.89,0,0,0-5.1.17c-.86,1.72,1.72,3.24,2.59,1.51-2.42,4.82,11.55,4.16,13.46,3.84,1.68-.29.56-.19-.61-.07a35.55,35.55,0,0,1-4.84.18c-2.62-.07-8.72-.33-7.86-4.3.41-1.89-2.48-2.69-2.89-.8Z" class="M"/><path d="M273.51,150.28c2.21,5.86,12.45,5.7,17.18,3.86,1.69-.66.46-3.19-1.23-2.54-3.28,1.28-11.83,1.63-13.42-2.55-.64-1.7-3.17-.46-2.53,1.23" class="P"/><path d="M272.21,151c2.06,4.6,7.54,5.83,12.15,5.73,2.53-.06,11.09-.83,8.12-5.41-1.14-1.76-2.81-1.26-4.49-.87-2.68.62-6,.86-8.57-.28-2-.87-2.36-3.71-4.85-3.42-2.06.24-2.76,2.08-2.51,3.89s3.15,1.09,2.89-.8c.61,4.44,9.66,4.41,13.22,3.65,1.32-.29,2.52-.73.29-.27a23.1,23.1,0,0,1-4.9.51c-3.4-.05-7.24-.86-8.76-4.25-.79-1.76-3.37-.23-2.59,1.52Z" class="M"/></g><g class="M"><path d="M317.55,141.73c3.48-4.24,10.73-9.44,14.22-13.69a19.75,19.75,0,0,0,3-4.43,19.85,19.85,0,0,0,1.22-6.94c1.1-20.92,2.2-42-.65-62.74q-31.75-5-63.85-7.38a6.46,6.46,0,0,0-6.88,2.78q-4,4.55-7.71,9.35l1.77-.16"/><path d="M318.61,142.79c4.32-5,9.94-8.66,14.22-13.69,4.91-5.78,4.64-12,5-19.3.94-18.64,1.43-37.32-1-55.87a1.54,1.54,0,0,0-1.11-1.44q-23.28-3.68-46.77-6-5.82-.57-11.64-1c-2.8-.22-6.11-1-8.88-.4-5.45,1.13-9.44,8.48-12.6,12.53-.7.9-.39,2.69,1.06,2.56l1.77-.16c1.9-.17,1.92-3.17,0-3l-1.77.16L258,59.74c3.73-4.78,7.76-12.08,14.5-11.62s13.6,1.1,20.38,1.79q21.12,2.15,42.1,5.47l-1.1-1.45c2.18,16.59,2,33.29,1.28,50-.37,8.27.68,17.48-5.22,24-4.15,4.59-9.35,8.09-13.41,12.77-1.26,1.45.85,3.58,2.12,2.12Z"/></g><path d="M267.45,136.49l47.17,5.42a5.8,5.8,0,0,0,2.93-.18c1.79-.77,2.29-3,2.54-5a274.74,274.74,0,0,0,.23-66.16c-.23-1.92-.57-4-2.06-5.29-1.27-1.06-3-1.22-4.69-1.32l-53.43-3.5c-1.85-.12-4-.14-5.25,1.2a6.43,6.43,0,0,0-1.32,3.53l-9.81,61.34c-.22,1.36-.41,2.85.35,4a11.25,11.25,0,0,0,5.13,3.38,172.13,172.13,0,0,0,18.21,2.57" class="O"/><path d="M267.45,138l35.37,4.06c6.62.76,16.88,4.69,18.62-4.3,2-10.4,2.14-21.57,2.25-32.12a229.27,229.27,0,0,0-1.87-35c-.39-2.69-.87-5.34-3.32-6.9-3.37-2.15-9.09-1.49-12.84-1.73L271,59.69c-6.76-.44-17-3.69-18.91,5.12-2.39,11.35-3.68,23-5.52,34.51l-3.06,19.17c-.57,3.53-2.76,9.41-.72,12.81,1.4,2.33,4.47,3.67,7,4.23A126.53,126.53,0,0,0,267.45,138c1.92.15,1.91-2.85,0-3-4.39-.34-8.73-1-13.07-1.69s-9.42-1.21-9.08-6.81c.5-8.44,2.71-17.07,4-25.42l4.14-25.88c.62-3.84.23-9.78,3.51-12.06,3.48-2.42,9.91-.71,14-.44l25.72,1.69,12.86.84c1.82.12,4.35-.14,6.05.51,3.78,1.44,3.47,7.42,3.78,10.68a274.75,274.75,0,0,1,.09,51.62c-.25,2.71-.44,5.46-.89,8.15-.12.71-.22,2.67-.79,3.27-1.13,1.19-3.76.78-5.2.73-4.89-.18-9.87-1.13-14.74-1.69L267.45,135c-1.92-.22-1.9,2.78,0,3Z" class="N"/><g class="P"><path d="M308.71,96.12q.63-9.78,1.25-19.56a3.08,3.08,0,0,0-.65-2.6,3,3,0,0,0-1.61-.53A246.58,246.58,0,0,0,266,71.65a3.1,3.1,0,0,0-1.45.3,3.15,3.15,0,0,0-1.14,2.27,162.29,162.29,0,0,0-2.27,18.52q21.19,3.62,42.61,5.71c1.67.16,5.14-.65,5-2.33"/><path d="M310.21 96.12q.5-7.82 1-15.64c.14-2.2 1.07-5.77-.84-7.58s-6.09-1.39-8.33-1.63q-7.1-.73-14.21-1.07-7.11-.34-14.26-.2c-2.71 0-7.56-.79-10 .83s-2.22 6.12-2.58 8.57c-.65 4.44-1.1 8.91-1.42 13.39a1.49 1.49 0 0 0 1.1 1.44q15.62 2.64 31.35 4.51c4 .48 16.45 4.07 18.1-2.17a1.5 1.5 0 0 0-2.89-.79c-.85 3.22-19.33-.53-22-.87q-11.92-1.55-23.77-3.57l1.11 1.45c.22-3.11.49-6.21.87-9.3.47-3.75-.06-9.3 4.39-10.36 2.88-.69 6.54-.16 9.51-.15 3.48 0 7 .11 10.45.27q4.74.22 9.48.63c2.87.24 7.62-.14 9.83 1.8 1.81 1.59 1.23 2.34 1.07 4.85l-.31 4.89-.69 10.75c-.12 1.93 2.88 1.93 3 0z"/></g><path d="M293.6,108.31a153.09,153.09,0,0,1-21.17-1.92,16.79,16.79,0,0,0-.94,13.79,14.13,14.13,0,0,0,9.65,8.72,7.38,7.38,0,0,0,3.17.13c1.87-.38,5-1.54,6.31-3.06,3.45-4,3.75-6.78,3.83-12.24,0-1,0-5.1-.85-5.42" class="U"/><path d="M293.6,106.81a140.28,140.28,0,0,1-20.77-1.87,1.54,1.54,0,0,0-1.7.69c-2.78,5.64-3.07,12.31.31,17.8,2.81,4.56,8.31,8.1,13.78,6.92a13.27,13.27,0,0,0,10.16-10.06c.78-3.19,1.8-10.34-.72-13-1.32-1.41-3.44.71-2.13,2.12,1.18,1.26.43,6.81.24,8.31-.5,4.08-2.59,7.86-6.68,9.28-4.82,1.67-9.49-1-12.06-5-2.83-4.52-2.6-10.11-.31-14.78l-1.69.69a145.61,145.61,0,0,0,21.57,2c1.93,0,1.93-3,0-3Z" class="M"/><path d="M318.45,172.61c-.67-8.72-3.37-10.93-7.08-11.1-21-1-41.77-1.72-62.45-5.86-6.72-1.35-13.9-3.2-20.2.38-6.14,3.49-10,11.55-11.72,19.71s-1.58,16.65-2,25c-.84,15.08-3.58,29.95-5.71,44.88-1,6.85-1.74,14.35,1,20.26s8.12,8.56,13.31,10.34c7.38,2.54,15,3.84,22.62,5.15L269,285.31c12.11,2.07,24.29,4.15,36.56,3.41a11,11,0,0,0,5.41-1.35c4.45-2.78,4.31-9.93,4.73-16.08,2.3-34,5-65,2.73-98.68" class="O"/><path d="M320 172.61c-.38-3.87-.86-8.79-4.34-11.26-4-2.84-11.1-1.65-15.67-1.87-17.23-.84-34.46-2-51.4-5.44-6.16-1.23-12.7-2.69-18.75-.19-4.84 2-8.29 6.29-10.6 10.85-7.06 13.92-5 30.82-6.52 45.88-.93 9-2.35 17.94-3.71 26.88-1.1 7.27-2.77 14.92-1.88 22.29 1.72 14.29 15.07 18.36 27.31 21 16.3 3.49 33 6.27 49.57 8.43 7.52 1 15.63 1.95 23.21.93 4.67-.63 7.57-3.29 8.83-7.8 2.06-7.43 1.56-16 2.09-23.62l1.81-28.42a488.29 488.29 0 0 0 .05-57.64c-.13-1.92-3.13-1.93-3 0 1.81 27.75.26 55.48-1.66 83.18L314 275.66c-.21 2.7-.37 6-1.84 8.42-2.49 4-8.23 3.34-12.33 3.31-14.68-.09-29.27-3.32-43.68-5.79-12.25-2.1-27.35-2.87-38.17-9.51-13.59-8.33-6.79-29-4.89-41.59 2.07-13.78 3.18-27.43 3.92-41.34.66-12.27 3.35-32.83 19.35-33.67 7.69-.4 15.93 2.46 23.5 3.57 7 1 14.09 1.75 21.16 2.3 7.58.58 15.18 1 22.77 1.32 2.83.13 7-.51 9.61.8 3 1.54 3.32 6.25 3.6 9.15.18 1.9 3.18 1.92 3 0z" class="N"/><path d="M303.39,193.09c-.49-5.63-5.73-6.23-8.3-6.35-14.56-.7-29.27.13-43.62-2.6-4.66-.89-9.64-2.11-14,.18s-6.92,7.43-8.07,12.7-1,10.75-1.34,16.16c-.53,9.75-2.38,19.34-3.81,29-.66,4.43-1.17,9.27.75,13.1s5.66,5.55,9.26,6.72a105.84,105.84,0,0,0,15.7,3.39L265.8,268c8.4,1.38,16.85,2.76,25.36,2.32a8.1,8.1,0,0,0,3.74-.85c3.08-1.79,3.74-6.48,4-10.45q2.23-33,4.48-65.9" class="R"/><g class="M"><path d="M304.84 192.69c-1.17-7.05-7.63-7.41-13.55-7.6-12.52-.42-25.15 0-37.55-2.06-7.93-1.34-15.94-3.32-21.58 4-6.08 7.9-5.06 18.74-5.72 28.09-.45 6.35-1.44 12.64-2.44 18.93-.84 5.37-2.25 11.07-1.75 16.54.84 9.23 8.82 12.37 16.79 14.25 11.15 2.63 22.79 4.17 34.13 5.78a96.68 96.68 0 0 0 16 1.23c3.36-.08 6.59-.32 8.71-3.25 2.67-3.69 2.47-9.21 2.77-13.5q.65-9.69 1.31-19.38 1.45-21.31 2.9-42.64c.13-1.93-2.87-1.92-3 0q-1.9 28.1-3.82 56.21c-.3 4.37-.21 9.05-1.08 13.37-1.39 6.9-6.95 6.38-12.69 6.11-9.62-.46-19.17-2.43-28.66-4-8.06-1.32-18.16-1.74-25.26-6.12-9.36-5.77-3.88-20.89-2.58-29.6s1.48-17.18 2.24-25.82c.39-4.47 1.14-9.06 3.54-12.95 3.31-5.4 8.42-6.29 14.35-5.32a200.79 200.79 0 0 0 28.12 2.8l16.19.34c4.26.15 8.84.14 9.7 5.37.32 1.9 3.21 1.09 2.9-.8zm-61.26-23.08c.76 1.93-.21 3.72-2.28 3.74a3.07 3.07 0 0 1-2.58-4.4c1.1-1.76 4.35-1.34 4.86.66"/><path d="M242.13 170c.26.72.38 1.63-.56 1.83a1.54 1.54 0 0 1-1.65-1.26c-.36-1.41 1.86-1.69 2.21-.57.57 1.84 3.46 1.06 2.89-.79a4.27 4.27 0 0 0-5.06-2.77 3.91 3.91 0 0 0-2.93 4.93 4.54 4.54 0 0 0 5.2 3.37 4 4 0 0 0 2.79-5.53c-.64-1.81-3.54-1-2.89.79zm22.24.64c1 2.48-.27 4.79-2.94 4.81s-4.73-3.41-3.32-5.67 5.6-1.73 6.26.86"/><path d="M262.92 171c.44 1.21.4 2.66-1.14 2.91a2.44 2.44 0 0 1-2.55-1.94c-.59-2.35 3.07-3 3.69-1 .57 1.84 3.46 1.06 2.89-.79a5.07 5.07 0 0 0-6-3.27 4.63 4.63 0 0 0-3.48 5.83 5.42 5.42 0 0 0 6.18 4c3.09-.63 4.3-3.81 3.29-6.6-.64-1.81-3.54-1-2.89.79zm-9.35-1.07c1 2.48-.27 4.8-2.94 4.82s-4.73-3.41-3.32-5.67 5.6-1.73 6.26.85"/><path d="M252.12,170.33c.43,1.21.4,2.66-1.14,2.9a2.42,2.42,0,0,1-2.55-1.93c-.59-2.35,3.07-3,3.69-1,.56,1.84,3.46,1.06,2.89-.8a5.07,5.07,0,0,0-6-3.26,4.62,4.62,0,0,0-3.48,5.83,5.41,5.41,0,0,0,6.18,4c3.09-.62,4.29-3.81,3.29-6.6-.65-1.8-3.55-1-2.89.8Z"/></g><path d="M300.12 91.25c1.71-3.07 3-9.81-2.18-10.09-4.13-.22-6 3.76-5.8 7.32a6.55 6.55 0 0 0 1.6 4.43 4.06 4.06 0 0 0 5.17.48c3-1.93 3.82-6.48 2.58-9.61a3.09 3.09 0 0 0-3.69-2.1c-1.43.4-2.69 2.18-2.09 3.69a3.4 3.4 0 0 1 .3 1.94c-.12.67-.15.13-.27.77a1.28 1.28 0 0 1-.23.37 2.47 2.47 0 0 1 2.54.27.36.36 0 0 1 .14.16c-.08-.38-.1-.44 0-.18 0-.44-.07-.87 0-1.31.13-1.16-.08.2-1.1-.38l-1.49-2.59a5.75 5.75 0 0 1-.6 3.8c-1.89 3.37 3.29 6.4 5.18 3zm-23.48-2.6a10.26 10.26 0 0 0 .9-9.29 3 3 0 0 0-5-1.32 9 9 0 0 0-2.66 9.84 3.06 3.06 0 0 0 3.68 2.12c3.14-.93 5.46-3.9 4.5-7.25-1.05-3.7-6.85-2.13-5.78 1.6-.17-.59.52-.25 0-.15a.13.13 0 0 1 .05-.12c.14.09 0 .13-.34.14l3.69 2.09a3.22 3.22 0 0 1 1.11-4l-5-1.33a4.69 4.69 0 0 1-.3 4.67c-2 3.29 3.14 6.31 5.18 3zm33.3-9.23c-.2-1.62 0-4.51-1.53-5.56s-4.14-.75-5.86-.53a1.56 1.56 0 0 0-1.5 1.5 1.5 1.5 0 0 0 1.5 1.5 15.93 15.93 0 0 1 1.83-.15 5.35 5.35 0 0 1 2 .09c.46.21-.09-.33.18.15a2.92 2.92 0 0 1 .12.9l.26 2.1a1.56 1.56 0 0 0 1.5 1.5 1.49 1.49 0 0 0 1.5-1.5zm-42.8 11.63l-1.87-.38-.82-.17c-.26-.08-.17.08-.25-.15a5.94 5.94 0 0 1 0-1.88c0-.74.1-1.48.17-2.21.2-1.92-2.8-1.9-3 0-.17 1.65-.7 4.24.21 5.75s3.17 1.61 4.74 1.93c1.88.39 2.69-2.5.8-2.89z" class="N"/><path d="M288.89,112.34a89,89,0,0,1-12.42-1.12,9.86,9.86,0,0,0-.55,8.09,8.31,8.31,0,0,0,5.66,5.11,4.32,4.32,0,0,0,1.86.07,7.68,7.68,0,0,0,3.7-1.79c2-2.33,2.2-4,2.24-7.18,0-.6,0-3-.49-3.18" class="M"/><g class="S"><path d="M260.28,109.06q.6-4.75.73-9.54c.05-1.93-2.95-1.93-3,0q-.13,4.78-.73,9.54c-.25,1.91,2.76,1.89,3,0Z"/><path d="M264.21 102.58l-8.83-.57c-1.93-.13-1.92 2.87 0 3l8.83.57c1.92.12 1.92-2.88 0-3zm47.95 4.21a54.37 54.37 0 0 0-7.44-.36c-1.93 0-1.93 3 0 3a54.37 54.37 0 0 1 7.44.36c1.92.23 1.9-2.77 0-3z"/></g><path d="M293.63 200c1.32 3.32-.36 6.41-3.93 6.44s-6.31-4.56-4.43-7.58 7.48-2.31 8.36 1.14m-53.31 46.57c1.32 3.31-.37 6.4-3.93 6.43s-6.32-4.55-4.43-7.58 7.47-2.31 8.36 1.15" class="P"/><path d="M249.28 197.14c1.32 3.31-.36 6.4-3.93 6.43S239 199 240.93 196s7.47-2.32 8.35 1.14M289.3 256c1.32 3.31-.36 6.4-3.93 6.43s-6.32-4.55-4.43-7.58 7.48-2.31 8.36 1.15" class="N"/><path d="M289.18,223.5c-2.62-1.33-6-2.59-8.28.07-1.45,1.7-1.26,4.22-1.62,6.26-.54,3.11-4.55,12.92-9.53,7.52-4.52-4.9.57-10.64.57-15.8,0-3.51-2.64-6.41-5.76-7.75s-6.31-.72-8.4,2.18c-2.59,3.59-1.27,15-6.34,16.31-4.29,1.09-2.87-6.88-5-9.11s-5.1-1.93-7.41-.1c-1.52,1.19.62,3.3,2.12,2.12,5.19-4.09,3.13,5.79,3.32,6.46a3.46,3.46,0,0,0,1.47,1.88c1.56,1.21,4.9,2.25,6.83,1.51,3.3-1.25,4.85-6.46,5.43-9.47.61-3.19.59-10.08,5.63-9.44,4.47.58,5.3,5.56,4.14,9-1.75,5.2-2.31,15,4.65,17.14,3.27,1,6.19-2.06,8-4.39a14.54,14.54,0,0,0,2.69-5.19c.93-3.19.85-9.19,5.92-6.62,1.72.87,3.24-1.72,1.51-2.59Z" class="S"/><path d="M318.73 67.2c6.94-2.75 9.47-11.06 16.61-13.27-23-2.85-45.55-5.43-68.7-6.33a3.84 3.84 0 0 0-4.33 2.4q-3.44 5.43-6.39 11.13c7.26-1 14.49.72 21.82 1 13.63.5 27.62-.4 40.57 3.9" class="R"/><g class="M"><path d="M319.49,68.49c6.57-3,9.48-10.6,16.24-13.11a1.51,1.51,0,0,0-.39-3c-16.3-2-32.61-3.93-49-5.18q-5.89-.45-11.81-.78c-2.9-.16-6.65-1-9.46-.32-5.35,1.27-8.17,9.89-10.46,14.24-.48.9.09,2.38,1.29,2.25,9.94-1.07,20.23,1,30.22,1.18,10.74.17,21.43.42,31.77,3.66,1.85.58,2.64-2.32.8-2.89-10-3.13-20.32-3.57-30.7-3.74-10.57-.18-21.59-2.34-32.09-1.21l1.3,2.26c1.56-3,3.19-5.92,4.94-8.79,2.64-4.37,5.83-4,10.42-3.74q10.34.52,20.64,1.44c14.07,1.23,28.1,2.89,42.12,4.62l-.4-2.94c-7.18,2.66-10.15,10.3-17,13.41-1.76.81-.23,3.39,1.51,2.59Z"/><path d="M315.69,57.5q-7.9-.36-15.73-1.5a1.21,1.21,0,0,1-.7-.25,1.23,1.23,0,0,1-.24-.89q0-5.2-.08-10.41l17.39.48a52.29,52.29,0,0,0-.22,12.93c1.63-.6,3.43-1.36,4.12-3a6.32,6.32,0,0,0,.26-3.06,55.46,55.46,0,0,0-1.91-10.14,10.74,10.74,0,0,0-1.26-3.05"/><path d="M315.69 56c-4.22-.21-8.42-.54-12.6-1.07q-3.51.91-2.58-1.55v-3-5.95l-1.5 1.5 17.39.48-1.5-1.5a58.85 58.85 0 0 0-.22 12.93c.08.87.91 1.84 1.9 1.45 3.41-1.34 5.62-3 5.51-6.94-.13-4.69-1.13-10.34-3.4-14.47-.93-1.69-3.53-.18-2.59 1.51 2.33 4.24 5.4 14.76-.32 17l1.9 1.44a58.85 58.85 0 0 1 .22-12.93c.1-.82-.77-1.48-1.5-1.5l-17.46-.4a1.52 1.52 0 0 0-1.5 1.5l.07 8.93c0 1.51-.08 2.79 1.17 3.74s5.25.92 6.76 1.08a167.09 167.09 0 0 0 10.25.8c1.93.1 1.92-2.9 0-3zm-27.91-.83a127.34 127.34 0 0 1-17-1.83 1 1 0 0 1-.67-.29 1.11 1.11 0 0 1-.18-.51l-1.67-10.33 19.47.18a52.79 52.79 0 0 0-.21 12.93c1.63-.6 3.42-1.36 4.12-3a6.2 6.2 0 0 0 .25-3.06A56.3 56.3 0 0 0 290 39.17a11 11 0 0 0-1.26-3.05"/><path d="M287.78 53.67c-4.73-.22-9.36-.91-14.06-1.36-2.89-.28-2.43-.77-2.89-3.61l-1.12-6.89-1.44 1.9 19.47.18-1.5-1.5a60.75 60.75 0 0 0-.24 12.93c.08.87.91 1.85 1.9 1.45 3.29-1.32 5.45-2.87 5.51-6.68A33.64 33.64 0 0 0 290 35.36c-.87-1.72-3.46-.2-2.59 1.52 2 3.9 5.38 14.72-.31 17l1.9 1.44a60.75 60.75 0 0 1 .21-12.93 1.51 1.51 0 0 0-1.5-1.5l-19.47-.18a1.53 1.53 0 0 0-1.45 1.9c.5 3.06.33 7.57 1.68 10.33.51 1 .54 1.25 1.71 1.77 2 .91 5.1.86 7.34 1.13 3.4.42 6.81.67 10.23.83 1.93.1 1.92-2.9 0-3z"/></g><path d="M317,46.48c-.58-2.62.82-6.3.24-8.92a.63.63,0,0,0-.4-.51,2.71,2.71,0,0,0-.77-.1l-14.95-.24a2.37,2.37,0,0,0-.94.1.68.68,0,0,0-.38.43,23.74,23.74,0,0,0-1.64,7.63.61.61,0,0,0,.35.67,2.8,2.8,0,0,0,1,.16q8.75.49,17.53.78" class="P"/><path d="M318.54,46.48c-.4-3.13,2.26-9.53-1.66-10.93-1.47-.53-3.71-.15-5.26-.17l-6-.1c-2,0-5.05-.77-6.67.68s-3.63,9.1-1.33,10.76c1.77,1.27,5.65.69,7.7.79q5.85.27,11.7.47C319,48,319,45,317,45q-6.21-.21-12.43-.51c-1.21-.06-2.43-.09-3.65-.19-1.47-.11-1,1.26-1.17-.69a10.86,10.86,0,0,1,.66-3.43c.38-1.29.35-1.52,1.46-1.94,1.47-.56,4.38.07,6,.1,2.23,0,4.48,0,6.72.11,1.95.08,1.38.38,1.2,2.41a24.8,24.8,0,0,0-.27,5.64c.25,1.88,3.25,1.91,3,0Z" class="M"/><path d="M287.4 44.64c-.59-2.62.81-6.3.23-8.92a.61.61 0 0 0-.4-.51 2.36 2.36 0 0 0-.77-.09l-14.95-.25a2.32 2.32 0 0 0-.93.1.68.68 0 0 0-.38.43 23.75 23.75 0 0 0-1.65 7.6.61.61 0 0 0 .35.67 2.83 2.83 0 0 0 1 .17q8.75.48 17.54.77" class="P"/><path d="M288.9 44.64c-.41-3.13 2.26-9.52-1.67-10.93-1.47-.52-3.71-.14-5.25-.17l-6-.1c-2 0-5.06-.77-6.67.69s-3.64 9.1-1.34 10.75c1.78 1.27 5.66.69 7.71.79q5.85.27 11.7.47c1.93.07 1.92-2.93 0-3q-6.22-.21-12.43-.51l-3.65-.18c-1.48-.12-1 1.25-1.17-.7a10.53 10.53 0 0 1 .66-3.42c.37-1.3.35-1.53 1.45-1.95 1.47-.56 4.39.07 6 .1 2.24 0 4.49 0 6.72.11 2 .09 1.38.38 1.2 2.41a24.26 24.26 0 0 0-.26 5.64c.24 1.89 3.25 1.91 3 0zm24.99 7.83l-3.4-4.38" class="M"/><path d="M315 51.41l-3.16-4.08a1.54 1.54 0 0 0-2.05-.54 1.52 1.52 0 0 0-.54 2.06q1.77 2.37 3.63 4.68a1.5 1.5 0 0 0 2.12-2.12z" class="P"/><path d="M310.07,54.83A88.33,88.33,0,0,0,303,47.54" class="M"/><path d="M311.13,53.76a95.11,95.11,0,0,0-7.06-7.28c-1.42-1.31-3.54.81-2.12,2.12A93.44,93.44,0,0,1,309,55.89c1.27,1.46,3.38-.67,2.12-2.13Z" class="P"/><path d="M303.63,55.24a9.65,9.65,0,0,0-1.76-2" class="M"/><path d="M304.92,54.48a11.57,11.57,0,0,0-2-2.26,1.5,1.5,0,0,0-2.12,2.12A8.41,8.41,0,0,1,302.33,56a1.54,1.54,0,0,0,2.05.53,1.5,1.5,0,0,0,.54-2.05Z" class="P"/><path d="M284.63,49.42a13.39,13.39,0,0,0-3-3.21" class="M"/><path d="M285.93,48.66a16.47,16.47,0,0,0-3.57-3.74,1.5,1.5,0,0,0-2.05.54,1.53,1.53,0,0,0,.53,2,12,12,0,0,1,2.5,2.67,1.54,1.54,0,0,0,2.05.53,1.51,1.51,0,0,0,.54-2.05Z" class="P"/><path d="M280.88,53a73.9,73.9,0,0,0-6.61-5.78" class="M"/><path d="M281.94,52a78.79,78.79,0,0,0-6.61-5.78c-1.5-1.17-3.64.93-2.12,2.12a77.1,77.1,0,0,1,6.6,5.78c1.39,1.35,3.51-.77,2.13-2.12Z" class="P"/><path d="M275,53a11.9,11.9,0,0,1-2.86-2.53" class="M"/><g class="P"><path d="M275.77 51.71a11.66 11.66 0 0 1-2.56-2.3 1.51 1.51 0 0 0-2.12 0 1.54 1.54 0 0 0 0 2.12 14.22 14.22 0 0 0 3.17 2.77 1.51 1.51 0 0 0 2.05-.54 1.53 1.53 0 0 0-.54-2zm53.43 78.89a216 216 0 0 0 2.38-62.68c-.2-1.9-3.2-1.92-3 0a213.29 213.29 0 0 1-2.28 61.88c-.35 1.89 2.55 2.7 2.9.8z"/><path d="M333 79.71a28.47 28.47 0 0 1-6.52 1.82c-1.9.3-1.1 3.2.79 2.89a31.09 31.09 0 0 0 7.25-2.12c1.77-.75.24-3.34-1.52-2.59zm1.46-5.12a28.34 28.34 0 0 0-7.55 1 1.51 1.51 0 0 0 .8 2.9 24.86 24.86 0 0 1 6.75-.92 1.5 1.5 0 0 0 0-3zm-1.98 42.03l-7.65 3.45c-1.76.79-.23 3.37 1.51 2.59l7.65-3.45c1.76-.8.23-3.38-1.51-2.59zm.39-5.7l-7.39 4.08c-1.69.93-.18 3.52 1.52 2.59l7.39-4.08c1.69-.93.18-3.52-1.52-2.59zm-6.73 165.81a302.71 302.71 0 0 0 10.64-55.42c1.78-18.68 2.41-37.95-2.62-56.21a1.5 1.5 0 0 0-2.89.8c5 18 4.27 37 2.51 55.41a297.87 297.87 0 0 1-10.53 54.63 1.5 1.5 0 0 0 2.89.79z"/><path d="M339.65 172.27a98.49 98.49 0 0 1-11.5 6.17c-1.75.8-.23 3.39 1.51 2.59a98.63 98.63 0 0 0 11.51-6.17c1.63-1 .13-3.61-1.52-2.59zm-.77 8.54a31 31 0 0 1-9.48 4.37 1.5 1.5 0 0 0 .8 2.89 33.47 33.47 0 0 0 10.2-4.67c1.57-1.1.07-3.7-1.52-2.59zm-3.81 73.48a101.47 101.47 0 0 1-13.05-.11c-1.93-.14-1.92 2.86 0 3a101.47 101.47 0 0 0 13.05.11c1.92-.11 1.93-3.11 0-3zm-1.56 5.94a31.17 31.17 0 0 1-10.41-.69c-1.88-.44-2.68 2.45-.8 2.89a33.58 33.58 0 0 0 11.21.8c1.9-.2 1.92-3.2 0-3z"/></g><rect x="6" y="257.07" width="351" height="50" rx="8.55" fill="#e76969"/><path d="M348.45 305.57H29.07c-4.72 0-9.55.29-14.26 0-8-.5-7.31-7.62-7.31-13.35v-24.06c0-5.13 2.05-9.34 7.82-9.59 1.9-.08 3.83 0 5.73 0h306.42 19.18c4.43.08 8.46 1.83 8.85 7.09.47 6.38 0 13 0 19.36s2.44 19.85-7.05 20.55c-1.92.14-1.93 3.14 0 3 8.53-.63 10.05-7.4 10.05-14.48v-25c0-6.78-2.16-13-10.07-13.48-1.14-.07-2.3 0-3.43 0H68.8c-17.81 0-35.67-.41-53.48 0-14.19.28-10.82 17.88-10.82 27.45s-2.82 25.25 11.05 25.51c18.38.34 36.79 0 55.17 0h277.73a1.5 1.5 0 0 0 0-3z"/><path d="M240.71 250.55a267.19 267.19 0 0 0 45.88-12.08c7.29-2.79 15.76-4.87 21.79-10.32 3.57-3.21 6.08-7.43 8.14-11.77 3.68-7.73 6.12-16.31 5.52-24.8a16 16 0 0 1 1.14-7.41c2.07-4.89 6.16-12 11.7-9.39 6.16 2.93 6.32 11.62 6 15.79-.2 3-.61 5.21-.8 7.67-1.62 21-7.76 34.1-23.18 45.22-16 11.54-52.52 19.18-72.12 21.42 0 0-9.39 1-9.66-4.15-.27-5.61-3.28-8.83 5.59-10.18z" class="O"/><path d="M241.11 252a250.43 250.43 0 0 0 32.42-7.59c9.36-2.78 19.17-5.8 28-10 9.49-4.55 14.8-12.73 18.51-22.32a51.4 51.4 0 0 0 3.57-16.22c.27-6.52.08-12 4.52-17.29 6.28-7.47 11 2.4 11.35 8.22.26 4.82-.63 9.78-1.13 14.57-1 9.76-3.43 19.51-9 27.71C318 245.74 297.63 252.2 279 257a265.55 265.55 0 0 1-32.11 6.18c-2.59.32-5.82.8-8.26-.36s-2.19-3.49-2.47-5.78c-.48-3.76 1.5-4.37 4.94-5 1.9-.34 1.1-3.23-.79-2.89-3.07.55-6.72 1.39-7.33 4.94-.44 2.62.11 7.49 1.76 9.62 3.77 4.87 13.28 2.37 18.23 1.62a265 265 0 0 0 35.22-7.74c10.14-3 20.8-6.58 29.48-12.78 8.33-5.95 15.09-13.66 19-23.18 4.17-10.16 6-22.81 5.82-33.76-.1-6.6-4.87-19.33-13.72-14-11 6.65-7 22.32-10 32.51-2.5 8.68-6.93 18.21-14.78 23.23-6.25 4-13.88 6.07-20.84 8.55a239.6 239.6 0 0 1-42.84 11c-1.9.24-1.09 3.13.8 2.84z" class="N"/><path d="M322.07,194.37A43.29,43.29,0,0,0,340,196.18" class="O"/><path d="M321.67 195.82a43.72 43.72 0 0 0 18.33 1.86c1.9-.21 1.92-3.22 0-3a41.55 41.55 0 0 1-17.51-1.75c-1.84-.6-2.63 2.29-.8 2.89zm-3.97 16.96c1.22 2.51 3.79 3.51 6.23 4.54a68 68 0 0 0 10.34 3.4c1.87.46 2.67-2.43.8-2.89a68.49 68.49 0 0 1-7.82-2.39c-2.32-.88-5.79-1.78-6.95-4.18-.85-1.73-3.44-.21-2.6 1.52zm-7.27 14.81c2.62 5.49 7.43 8.34 12.6 11.08 1.71.9 3.23-1.69 1.52-2.59-4.72-2.5-9.13-5-11.53-10-.83-1.74-3.42-.22-2.59 1.51zm-15.04 8.1a30.44 30.44 0 0 0 9.93 13.68c1.5 1.17 3.64-.93 2.12-2.12a27.69 27.69 0 0 1-9.15-12.36c-.67-1.8-3.57-1-2.9.8zM280 242.25a44.32 44.32 0 0 0 5.13 13.47 1.502 1.502 0 0 0 2.59-1.52 41.67 41.67 0 0 1-4.83-12.75c-.38-1.89-3.27-1.09-2.89.8zm-17.35 4.44a77.24 77.24 0 0 0 5.23 13.86c.84 1.74 3.43.22 2.59-1.51a74.08 74.08 0 0 1-4.93-13.15 1.5 1.5 0 0 0-2.89.8zm-16.54 3.66a56.12 56.12 0 0 0 5 14.27c.86 1.73 3.45.21 2.6-1.51a53.43 53.43 0 0 1-4.71-13.56c-.36-1.89-3.25-1.09-2.89.8z" class="N"/><path d="M224.09,251.06a11.75,11.75,0,0,1,6.56.65c2.35.77,4.74,1.87,6.13,3.91,2.05,3,1.16,7.42-1.51,9.88a11.28,11.28,0,0,1-10.22,2.21" class="O"/><path d="M224.48,252.5c4.3-.76,11.86,1.67,11.91,6.91.07,5.78-6.18,7.84-10.94,6.85-1.88-.39-2.69,2.51-.8,2.9,6.7,1.38,14.78-1.89,14.74-9.75,0-7.44-9.45-10.91-15.7-9.8-1.9.34-1.1,3.23.79,2.89Z" class="N"/><path d="M203 283c5.29-3.61 12.38-4.18 17.19-8.43a19.43 19.43 0 0 0 5.38-9.05 20.25 20.25 0 0 0 .26-12 12.38 12.38 0 0 0-8.27-8.3 18.25 18.25 0 0 0-6.91-.05 82.93 82.93 0 0 0-24.76 7.42 29.17 29.17 0 0 0 2.71 9.37l11.89-3.31a14.91 14.91 0 0 1 5.63-.8 5.06 5.06 0 0 1 4.37 3.2 5 5 0 0 1-1.62 4.84 13.67 13.67 0 0 1-4.69 2.57q-6.24 2.39-12.7 4.19l4.66 11.21A1.87 1.87 0 0 0 197 285a1.85 1.85 0 0 0 1.53-.43c1.71-1.1 3.87-1.23 5.59-2.34" class="R"/><path d="M203.74 284.33c6.45-4 14.8-4.68 19.67-11.05 4.4-5.77 6.27-14.83 3.3-21.61s-9.13-8.85-16.07-8a84.86 84.86 0 0 0-25.52 7.62 1.56 1.56 0 0 0-.69 1.7 35.85 35.85 0 0 0 2.87 9.73 1.5 1.5 0 0 0 1.69.69l7.64-2.13 3.4-.94c.59-.17 1.18-.33 1.78-.48q4.11-1.51 6 5c-1.41 1.92-5.47 2.75-7.61 3.5-3 1.06-6.05 2-9.12 2.87a1.51 1.51 0 0 0-1 1.85l3.63 8.72c.54 1.31 1 3.44 2.32 4.29 2.44 1.56 6.73-1.43 8.93-2.53 1.73-.86.21-3.45-1.51-2.59-.33.16-3.32 1.66-4.24 1.66l-1.35.68a8.6 8.6 0 0 1-1.26-2.3c-1.35-2.83-2.42-5.84-3.62-8.73l-1 1.84c5.22-1.49 22.34-4.39 20.08-13.24-2.38-9.33-18.44-1.81-23.76-.33l1.7.69a33.09 33.09 0 0 1-2.56-9l-.69 1.69c9.5-4.44 34-14.86 38 .88 1.8 7.15-1.16 16.29-7.55 20.27-4.62 2.88-10.17 3.8-14.82 6.71-1.63 1-.13 3.62 1.51 2.59z" class="M"/><path d="M205.65 279.64q-.9-2.44-1.78-4.89l-.82-2.26-.41-1.12c-.15-.83-.25-1-.32-.57l-.9.69.27-.05c1.89-.34 1.09-3.23-.8-2.89s-1.6 2.3-1.15 3.61l3 8.28c.66 1.8 3.56 1 2.9-.8zm-7.6-22.51l-2.2-7.62a1.51 1.51 0 0 0-2.9.8l2.21 7.62a1.5 1.5 0 0 0 2.89-.8z" class="N"/><path d="M31.89,251.46a96.67,96.67,0,0,1-1.24,13.32c1.48,2,5.79,3.19,7.87,4.61,4.9,3.37,9.85,4.73,14.85,8,12.36,8,27.37,15.76,39.81,23.67-.25-.48-.16.52,0,0,7.18-3,14.07-5.14,21.49-8.81,19.37-9.61,35.63-13.23,55.71-21.4,2.27-.93,5.14-4.09,6.08-6.29.46-1.08.11-.21.12-1.37l.1-14.36" class="U"/><path d="M30.39 251.46c-.13 4-.75 7.9-1 11.86-.07 1.12-.33 1.48.21 2.52 1.21 2.29 5.22 3.18 7.3 4.32 3.25 1.79 6.39 3.63 9.75 5.26 7.85 3.82 15.12 8.95 22.69 13.3 7.74 4.46 15.53 8.84 23.1 13.61 1.64 1 3.1-1.53 1.51-2.59l-.15-.11a1.52 1.52 0 0 0-2.26 1.3v.22a1.52 1.52 0 0 0 2.56 1.06c1.49-1.37 5-1.92 6.86-2.64l6.55-2.55c4.69-1.9 9.18-4.21 13.79-6.29 9.54-4.3 19.45-7.65 29.33-11.05l14.05-5c3.45-1.3 7.09-2.34 9.8-4.94 5.7-5.47 3.64-13.66 3.69-20.91a1.5 1.5 0 0 0-3 0c0 4.46.84 10-.1 14.36-.89 4.08-4.79 6.07-8.61 7.61-8.6 3.46-17.46 6.25-26.2 9.32a246 246 0 0 0-24.66 10c-4.8 2.3-9.65 4.37-14.62 6.27-2.65 1-6.91 1.79-9 3.73l2.56 1.06v-.22l-2.26 1.3.16.1 1.51-2.59c-13.73-8.66-27.91-17.09-42.06-25-3.14-1.76-6.51-3.07-9.66-4.82-2.65-1.48-5.29-3.51-8.22-4.46-2.45-.8-1.79-.67-1.43-3.47.45-3.49.7-7 .82-10.52.06-1.93-2.94-1.92-3 0z" class="Q"/><path d="M31.75 250.6c22.54 12.57 41 22 62.68 36 23.8-13 51.55-15.79 74.1-30.87 1.53-1 6-5.77 6.41-7.55-14.58-6.13-39.16-18.28-54.25-23l-3.89-64.65a3.83 3.83 0 0 0-1.43-3c-1-.69-2.33-.21-3.55-.11-25.56 2-59.57.41-84.63 9.75-1.56.58-3.24 1.26-4.11 2.68a7.56 7.56 0 0 0-.82 3.65c-1.06 20.94 7.53 56.22 9.49 77.09" class="U"/><path d="M31 251.89c21.07 11.73 42.42 22.92 62.68 36a1.53 1.53 0 0 0 1.51 0c15.52-8.31 32.61-12.52 49-18.62a126.69 126.69 0 0 0 21.52-10c4.22-2.53 8.81-5.95 10.67-10.7a1.51 1.51 0 0 0-.69-1.7c-18.18-7.69-35.78-17.12-54.61-23.17l1.1 1.44q-2.06-29.44-3.58-58.92c-.15-2.64.39-6.73-1.4-9s-5-1.39-7.58-1.19c-8.68.68-17.4.86-26.09 1.23-17.53.8-35.53 1.74-52.4 6.99-6.25 1.95-10.15 3.43-10.42 10.42a139.5 139.5 0 0 0 1.54 23c2.27 17.69 6.25 35.17 8 52.93.19 1.9 3.19 1.92 3 0-1.29-13.06-3.85-26-5.93-38.92-1.18-7.31-2.27-14.64-3-22-.52-5.53-3.09-18.5 3.25-21 14.35-5.75 30.66-6.92 45.93-7.81l23.84-1.05 10.79-.56c1.12-.08 2.78-.53 3.87-.3 4 .85 3.48 5.39 3.64 8.29l3.53 58a1.56 1.56 0 0 0 1.1 1.45c18.58 6 36 15.28 53.9 22.87l-.69-1.69c-2.05 5.22-8.37 8.52-12.93 11a137.3 137.3 0 0 1-18.73 8.2c-12.35 4.48-25.06 8-37.17 13.08-2.62 1.1-5.32 2.82-8 3.68-1.72.56-2.06.86-3.9 0a44.43 44.43 0 0 1-4.77-3q-8.74-5.46-17.72-10.56L32.5 249.39c-1.69-.94-3.21 1.65-1.52 2.59z" class="Q"/><path d="M112.16 224.89l-3.47-59c-20.73 4.51-41.11 3-61.84 7.54-3.22.7-13.59 1.07-14.64 4.2-.65 1.93.61 3.37.24 5.38-.19 1.09.43 14.62.54 15.72a32 32 0 0 0 .93 5.24c2.85 13.26 6 29.28 7.54 42.38z" class="P"/><path d="M113.66 224.89l-3.47-59a1.52 1.52 0 0 0-1.9-1.45c-17.19 3.59-34.81 3.33-52.15 5.82-6.07.87-12.35 1.79-18.37 3-3 .62-6.71 1.5-7.15 5s.32 8.31.46 12a86.47 86.47 0 0 0 .75 11c2.59 15 6.29 29.79 8.13 45a1.52 1.52 0 0 0 1.9 1.45l70.69-21.46c1.85-.56 1.06-3.46-.79-2.9l-70.7 21.55 1.9 1.45c-2.57-21.2-9-41.68-9-63.1 0-2.46-.83-5 1.6-6.3 1.93-1 4.92-1.13 7-1.41 6.62-.9 13.12-2.32 19.77-3.06 15.61-1.74 31.33-1.92 46.75-5.15l-1.9-1.44 3.47 59c.11 1.92 3.11 1.93 3.01 0z" class="Q"/><path d="M53.84,230.1c-1.46-2.48-2.67-9.28-3.28-12.39a158,158,0,0,1-2.48-20.18c-.08-1.2-2.16-7.41-1.41-8.6s6.61-1.29,8.11-1.58c13.18-2.55,29.36-6,42.3-7.11,1.59,8.9,3,22.12,4.21,31.13.21,1.6.8,3.77-.22,5-1.28,1.53-6.09,2.17-7.8,2.74-8.87,3-30.21,12.65-39.43,11" class="U"/><path d="M55.14 229.34c-3.25-6.45-3.93-15.52-4.75-22.57-.41-3.61-.37-7.33-1.11-10.88-.49-2.37-2.16-5.07-.09-6.42 1.47-1 5.64-.62 7.59-1l13.51-2.64c8.88-1.7 17.79-3.27 26.79-4.11l-1.44-1.1c1.43 8.25 2.37 16.58 3.4 24.89q.36 2.92.75 5.84c.38 2.93.09 4.09-2.86 5.27-2.21.88-4.72 1.21-7 2.05-5.77 2.13-11.46 4.45-17.29 6.4-5.64 1.93-12.33 4.43-18.4 3.58-1.89-.26-2.71 2.63-.8 2.89 13.69 1.91 27.58-7.13 40.23-11 2.46-.75 5.78-.86 7.83-2.59 2.58-2.2 1.4-5.76 1-8.68-1.3-9.81-2.29-19.67-4-29.43a1.49 1.49 0 0 0-1.45-1.1c-10.15.94-20.19 2.78-30.19 4.72-4.7.9-9.42 2.08-14.17 2.6-2 .23-5.69 0-7.11 1.81-1.21 1.53-.37 4.08 0 5.75a120.42 120.42 0 0 1 1.77 13.15c.89 7.71 1.61 17 5.16 24.08.86 1.73 3.45.21 2.59-1.51z" class="Q"/><path d="M52 247.7c21.05-5.2 42.43-12.41 63-15.7a13.61 13.61 0 0 1 3.13-.59c1 .09 4.4 1.79 5.33 2.1l22.32 7.58c.9.29 2 .85 1.84 1.65-.09.49-.59.82-1.08 1-17.61 7.67-41.37 15.41-58.94 23.08-1.82.79-5 .48-6.93-.18a13.75 13.75 0 0 1-3-1.61C70.59 260.51 59.1 252.25 52 247.7" class="O"/><g class="Q"><path d="M52.24 248.42c18.6-4.64 36.88-10.64 55.69-14.38 2.42-.48 4.85-.95 7.29-1.31 3.42-.51 4.34 0 7.23 1.17 2.46 1 5 1.74 7.53 2.59l11.06 3.79c1 .32 4 .77 4.57 1.53 1.68 2.19-3.39 3-5 3.66-15.68 6.43-31.77 11.8-47.45 18.23-4.53 1.86-8.76 4-13.66 1.61-3.25-1.59-6.29-4.09-9.27-6.13l-17.81-12.13c-.82-.52-1.57.77-.76 1.3 5.61 3.64 11.07 7.49 16.58 11.28 4.5 3.09 9.59 7.84 15.22 8.36 3.29.31 5.64-1 8.63-2.24 3.79-1.57 7.62-3.08 11.45-4.55l22.67-8.51c6.57-2.48 13.87-4.57 20-8 2.38-1.31 2.84-2.77.23-4.17-2.78-1.49-6.4-2.19-9.38-3.2l-10.89-3.72c-2.23-.75-4.43-2-6.7-2.6-2.71-.67-5.57.38-8.3.87C91.08 235.53 71.63 242 51.84 247a.75.75 0 0 0 .4 1.44z"/><path d="M98.6,260.76c-1.84-2.22-2-4.3.32-6,1.11-.81,3.1-1.05,4.44-1.5l8.88-3,8-2.7c4.91-1.66,6.43.39,9.72,3.76.68.69,1.74-.37,1.06-1.06-2.09-2.14-4-5.48-7.33-5.36-2.53.08-5.87,1.9-8.29,2.71l-8.88,3c-2.94,1-9.64,1.75-11.5,4.5-1.57,2.32,1.12,5,2.53,6.7.62.75,1.67-.32,1.06-1.06Z"/><path d="M76.93,264.06q10-4.33,20.15-8.4c.88-.35.5-1.8-.4-1.44q-10.31,4.14-20.51,8.54c-.88.38-.12,1.68.76,1.3Z"/><path d="M83.49 261a21.19 21.19 0 0 0 4.58 5.53c.72.63 1.79-.43 1.06-1.06a20 20 0 0 1-4.34-5.22.75.75 0 0 0-1.3.75zm5.74-2.37a20.53 20.53 0 0 1 2.69 3.66c.54.95.88 1.78 1.94 2.22.89.37 1.28-1.08.4-1.44-.49-.2-.72-.95-1-1.37l-.92-1.49a22.32 22.32 0 0 0-2.1-2.64c-.65-.72-1.71.34-1.06 1.06zm36.37-12.18a48.86 48.86 0 0 1 14.71-5.62c.94-.2.54-1.65-.4-1.45a50.31 50.31 0 0 0-15.06 5.77.75.75 0 0 0 .75 1.3z"/><path d="M128.5 244.49c2.16 1.62 4.7 2.82 6.48 4.9.63.73 1.69-.34 1.06-1.06-1.87-2.18-4.53-3.44-6.78-5.14-.77-.58-1.52.72-.76 1.3zm4.58-1.76c2.7.88 6.11 1.64 8.28 3.58.72.64 1.79-.41 1.06-1.06-2.37-2.12-6-3-8.94-4-.92-.3-1.32 1.15-.4 1.45zm-75.28 9.44l34.45-10.3c9.89-3 20.73-4.46 30.1-8.8.88-.4.12-1.7-.75-1.29-5 2.32-10.37 3.38-15.72 4.68S95.27 239.4 90 241l-32.6 9.73a.75.75 0 0 0 .4 1.44zm5.98 3.36c5.83-2 11.63-4.16 17.52-5.93 5.61-1.69 11.41-2.59 16.92-4.63 9.77-3.61 20.7-5.2 29.87-10.2.85-.47.09-1.76-.76-1.3-4.9 2.68-10.22 4.06-15.59 5.46s-10.45 3.48-15.74 5.25c-4.93 1.67-10.11 2.47-15.1 4-5.89 1.78-11.69 3.94-17.52 5.93-.91.32-.52 1.76.4 1.45z"/><path d="M70.76 260.22c5.18-2.38 10.38-5.16 15.86-6.75 5-1.46 10.25-2.2 15.27-3.78 10.78-3.4 21.34-7.65 32-11.53.9-.32.51-1.77-.4-1.44-11.15 4.06-22.25 8.68-33.63 12-5 1.48-10.28 2.12-15.25 3.78s-9.81 4.22-14.61 6.42c-.88.41-.12 1.7.75 1.3zm-1.44-10.85l2.37 2.47c.66.7 1.72-.36 1.06-1.06l-2.37-2.47c-.66-.7-1.72.36-1.06 1.06z"/><path d="M75.9 251.57a20.18 20.18 0 0 1 3.67 4.16c.53.81 1.83.06 1.3-.75a21.6 21.6 0 0 0-3.9-4.47c-.73-.63-1.8.43-1.07 1.06zm8.44 3.15l3.77 4.3c.64.72 1.7-.34 1.06-1.07l-3.77-4.29c-.64-.73-1.69.34-1.06 1.06zm34.03-19.33a25.13 25.13 0 0 1 3.34 2c.78.57 1.53-.73.76-1.29a24.72 24.72 0 0 0-3.34-2c-.86-.44-1.62.86-.76 1.29zm.23 3.21a31.93 31.93 0 0 1 5 2.94c.79.57 1.54-.73.76-1.29a33.29 33.29 0 0 0-5-2.95c-.87-.41-1.63.88-.76 1.3z"/><path d="M123.44 242a20.37 20.37 0 0 1 4.19 2.31c.78.57 1.53-.73.75-1.29a20.78 20.78 0 0 0-4.54-2.46c-.89-.36-1.28 1.09-.4 1.44zm-46.01 4.86a12.36 12.36 0 0 0 2.84 2.75c.79.56 1.54-.74.75-1.29a10.31 10.31 0 0 1-2.3-2.22.75.75 0 1 0-1.29.76zm5.69-2.24l2.16 2.38c.53.58 1.23 1.14 2 .49s-.34-1.69-1.06-1.06l-.08.08.53-.22a3.51 3.51 0 0 0-.46-.53l-.66-.72-1.33-1.43c-.65-.71-1.71.35-1.06 1.06zm6.6-1.76a10 10 0 0 1 2.7 2.41c.57.76 1.88 0 1.29-.76a12.12 12.12 0 0 0-3.23-2.95c-.82-.51-1.57.78-.76 1.3zm7.7-2.48l2.08 2.36c.64.72 1.7-.34 1.06-1.06l-2.08-2.36c-.64-.73-1.7.33-1.06 1.06zm6.15-1.28a15.68 15.68 0 0 1 2.34 2.54c.56.77 1.86 0 1.29-.76a17.78 17.78 0 0 0-2.57-2.84c-.72-.64-1.79.42-1.06 1.06zm8.11-1.8a8.73 8.73 0 0 1 2 1.14.77.77 0 0 0 1.06 0 .75.75 0 0 0 0-1.06 9.91 9.91 0 0 0-2.27-1.38.75.75 0 0 0-.75 1.3zm-28.53 12.37q1.81 1.43 3.75 2.67c.82.52 1.57-.77.76-1.29l-3.45-2.44c-.75-.59-1.82.47-1.06 1.06z"/><path d="M88.93 247.28a59.58 59.58 0 0 0 5 3.6c.81.53 1.57-.77.76-1.3a54.44 54.44 0 0 1-4.69-3.36c-.74-.6-1.81.46-1.06 1.06zm7.44-1.62l3.76 3.27c.73.63 1.79-.43 1.06-1.06l-3.76-3.27c-.73-.63-1.79.42-1.06 1.06zm6.34-2.66a36 36 0 0 1 3.53 4 .77.77 0 0 0 1 .27 1.19 1.19 0 0 0 .63-1.08.75.75 0 0 0-1.5 0l.11-.21 1 .27a39.49 39.49 0 0 0-3.77-4.29c-.69-.68-1.75.38-1.06 1.06zm7.03-1.87l3.94 2.74c.79.55 1.55-.75.76-1.3l-3.94-2.74c-.8-.55-1.55.75-.76 1.3zm5.97-1.32a11 11 0 0 1 2.77 2.49.77.77 0 0 0 1 .27.75.75 0 0 0 .27-1 12.71 12.71 0 0 0-3.31-3c-.81-.52-1.57.78-.75 1.29zM90.55 253l3.29 3.13c.72.64 1.79-.41 1.06-1.06q-1.7-1.51-3.29-3.13c-.68-.69-1.74.37-1.06 1.06zm6.51-2.15q1.32 1.08 2.55 2.25c.7.67 1.76-.39 1.06-1.06l-2.55-2.25a.76.76 0 0 0-1.06 0 .75.75 0 0 0 0 1.06zm6.51-1.85a37.65 37.65 0 0 0 2.65 2.71c.71.65 1.77-.4 1.06-1.06a37.65 37.65 0 0 1-2.65-2.71c-.64-.72-1.7.34-1.06 1.06z"/><path d="M109.09 247.75a2.56 2.56 0 0 1 1.68 1 5.21 5.21 0 0 0 1.52 1.16c.87.4 1.63-.89.75-1.29a8.6 8.6 0 0 1-1.83-1.53 3.34 3.34 0 0 0-2.12-.86.75.75 0 0 0 0 1.5zm5.37-1.98l2.91 1.62c.84.47 1.6-.83.75-1.3l-2.9-1.62a.753.753 0 0 0-.76 1.3zm4.64-2a7.25 7.25 0 0 1 2.74 2.26c.55.78 1.86 0 1.3-.76a8.68 8.68 0 0 0-3.28-2.79c-.86-.43-1.62.86-.76 1.29zm-57.88 2.81a10 10 0 0 0 2.78 2.34.75.75 0 0 0 .75-1.29 8.85 8.85 0 0 1-2.45-2.11.753.753 0 1 0-1.07 1.06zm5.5-1.58l3.12 2.41a.77.77 0 0 0 1.06 0 .75.75 0 0 0 0-1.06L67.78 244a.77.77 0 0 0-1.06 0 .75.75 0 0 0 0 1.06zm5.95-1.76a13.18 13.18 0 0 0 3.18 2.2c.86.43 1.62-.87.76-1.3a11.82 11.82 0 0 1-2.88-2c-.7-.66-1.76.4-1.06 1.06zm5.62-2.42l2.49 2.12c.73.62 1.79-.44 1.06-1.06l-2.49-2.12c-.73-.63-1.79.43-1.06 1.06zm6.97-1.82a24 24 0 0 0 3.8 2.13c.87.39 1.63-.9.75-1.3a24.29 24.29 0 0 1-3.81-2.15c-.8-.55-1.55.75-.76 1.29zm7.39-.59a.75.75 0 0 0 0-1.5.75.75 0 0 0 0 1.5z"/><path d="M92.27 238.3a19.35 19.35 0 0 0 3.91 2c.9.35 1.29-1.1.4-1.44A17.52 17.52 0 0 1 93 237c-.8-.54-1.55.76-.76 1.3zm7.73-2.63l3.76 1.79c.87.42 1.63-.88.76-1.29l-3.76-1.8c-.87-.41-1.63.88-.76 1.3zm6.73-1.67l3.94 2.13c.85.46 1.61-.83.76-1.29l-3.94-2.14c-.85-.46-1.61.84-.76 1.3z"/></g><path d="M105.66,262.46c7.08-3.33,15.63-5.73,23.22-8.34.76-.26,2.67-.7,3.45-.92,1.71-.49,3.32-1,3.8-.82A86.27,86.27,0,0,1,147,258c-5.09,2.33-14.09,6.28-19.71,7.76-3.87,1-8,3.67-11.89,4.69a1.44,1.44,0,0,1-.65.07,1.49,1.49,0,0,1-.64-.32c-2.37-1.71-6-6-8.42-7.74" class="O"/><path d="M106.23 263.44a190.59 190.59 0 0 1 22.13-7.95c2.78-.88 6.1-2.24 8.93-1.34 3.12 1 6.36 3.1 9.11 4.82V257c-6.87 3.13-13.79 5.64-20.9 8.1-3 1.05-8.33 4.95-11.46 3.62-2.75-1.17-5.19-5.19-7.58-7.08-1.13-.89-2.73.69-1.59 1.59 2.81 2.23 5.37 6.45 8.64 7.91 2.5 1.12 5.3-.72 7.62-1.75 8.64-3.85 17.75-6.51 26.4-10.45a1.13 1.13 0 0 0 0-1.94c-3.07-1.93-7.23-4.88-10.83-5.62-2.3-.48-4.85.69-7.06 1.32a177.91 177.91 0 0 0-24.55 8.76c-1.31.6-.17 2.54 1.14 1.95zm-74.02-12.37a17.28 17.28 0 0 0 4.91-1.28l5.84-2c1.82-.62 1-3.52-.8-2.9l-5.11 1.74a17.79 17.79 0 0 1-4.84 1.42c-1.93.07-1.94 3.07 0 3zm81.36-24.75a25.08 25.08 0 0 1 7 .05c1.89.29 2.7-2.6.8-2.89a27.76 27.76 0 0 0-7.83-.16c-1.89.23-1.91 3.23 0 3zm-38.36-61.54c-.11-.17 0-.1 0 0a.57.57 0 0 1-.06.25 1.5 1.5 0 0 0-2.08-2.03l-.57.35a1.5 1.5 0 0 0 1.5 2.59l.58-.35-2.06-2.05a2.71 2.71 0 0 0 .09 2.75 1.54 1.54 0 0 0 2.06.54 1.51 1.51 0 0 0 .53-2.05z" class="Q"/><path d="M53.89,228.34c-1.54-2.19-2-6.18-2.69-8.89a124,124,0,0,1-3-17.58c-.11-1-1.25-5-.53-6.05s5.62-1.19,7.14-1.27c13.26-.74,31.47-6,43.56-6.2,1.83,7.76,2.38,19.05,3.82,26.91.26,1.39.9,3.28-.09,4.31-1.25,1.3-6.08,1.73-7.79,2.18-8.87,2.35-17.76,4.14-26.51,6.77-4.07,1.23-10.59,2.62-14.9,1.4l1,.18" class="N"/><path d="M55.18,227.59c-1.76-3.08-2.17-6.87-3-10.29a128.68,128.68,0,0,1-2.34-13.64c-.18-1.54-1.49-6-.61-7s6.17-.61,7.62-.74c13.92-1.18,27.46-5.66,41.46-6l-1.45-1.1c1.41,6.36,1.94,12.86,2.73,19.32.31,2.53.81,5.05,1.09,7.59.25,2.25.52,2.63-1.6,3.6a16.8,16.8,0,0,1-3.47.69c-6.94,1.39-13.87,3.27-20.73,5s-14.4,5-21.64,3.49l-.8,2.89,1,.17c1.89.34,2.7-2.55.8-2.89l-1-.17c-1.88-.34-2.71,2.49-.8,2.89,7.91,1.68,15.68-1.54,23.23-3.49,8-2.06,16.28-3.46,24.2-5.72,5.55-1.59,4-5.4,3.26-10-1.21-8.05-1.61-16.21-3.37-24.17a1.52,1.52,0,0,0-1.45-1.1c-8.13.22-16.16,1.9-24.14,3.38-4.79.89-9.58,1.78-14.42,2.37-3.24.39-6.59.28-9.8.85-6.08,1.07-3.59,6.43-3,11.09a135.27,135.27,0,0,0,2.34,13.56c.86,3.7,1.35,7.66,3.26,11a1.5,1.5,0,0,0,2.59-1.51Z" class="Q"/><path d="M84.27,196.37l8.62,1.6-.33-1.25a34.87,34.87,0,0,1-5.26,4.2c-.81.53-.06,1.83.75,1.3a37.3,37.3,0,0,0,5.57-4.44.76.76,0,0,0-.33-1.26l-8.63-1.59c-.94-.18-1.34,1.27-.39,1.44Z" class="O"/><path d="M52.24,192.13a1.5,1.5,0,0,0,0-3,1.5,1.5,0,0,0,0,3Z" class="S"/></svg>