<svg xmlns="http://www.w3.org/2000/svg" viewBox="0 0 265 196"><defs><style>.cls-1{fill:#e4252e;}.cls-2{fill:#1d1d1b;}.cls-3{fill:#f7c402;}</style></defs><title>Mini marco teorico refuerzo - Plastilina conductiva</title><g id="contenido"><circle class="cls-1" cx="209.23" cy="51.39" r="46.46"/><path d="M162.44,61.89a48,48,0,0,0,89.87,10.57A48,48,0,0,0,190.39,7.3c-21.27,9.05-32.58,32.21-27.95,54.59.39,1.89,3.28,1.09,2.89-.8-3.81-18.41,3.89-37.66,19.94-47.75A45,45,0,0,1,252,65.16a45.39,45.39,0,0,1-42.4,31.2c-21.25.21-39.43-14.82-44.31-35.27C164.88,59.22,162,60,162.44,61.89Z"/><path class="cls-1" d="M184,45.6a6,6,0,0,1,5.42-5,8.85,8.85,0,0,1,7.09,3"/><path d="M186.87,46.4c.72-4.21,5.33-2.81,7.5-.65,2.73,2.74,7-1.5,4.24-4.24s-6.7-4.63-10.67-3.7a9,9,0,0,0-6.86,7c-.64,3.78,5.14,5.4,5.79,1.6Z"/><path class="cls-2" d="M222.62,43.11c10.75,0,10.77-16.7,0-16.7s-10.76,16.7,0,16.7Z"/><path class="cls-2" d="M222.69,52.53a2.61,2.61,0,0,0-2.5.74l-19.88,8.12a3.08,3.08,0,0,0-1.44,1,6.69,6.69,0,0,0-.45,7.09c4.05,7.14,10.06,10.45,15.47,8.63.22-.07.45-.15.67-.24,5.51-2.3,9.81-9.94,11-19.47C225.85,55.66,224.58,53,222.69,52.53Z"/><circle class="cls-1" cx="50.15" cy="62.12" r="46.46"/><path d="M94.05,71.82C89.72,90,75,104.07,56.3,106.66A45,45,0,0,1,17.15,31.57,45.41,45.41,0,0,1,68.74,21.16C88,29.93,98.31,51.24,94.05,71.82c-.39,1.88,2.5,2.69,2.89.79,4-19.53-3.86-39.82-20.74-50.78A48,48,0,0,0,4.66,77.31a48.46,48.46,0,0,0,43.71,32.74c23,.91,43.28-15.24,48.57-37.44C97.39,70.74,94.5,69.94,94.05,71.82Z"/><path class="cls-2" d="M45.66,83.87c-.22,0-.45-.1-.67-.16-5.53-1.54-9.91-6.77-11.15-13.31a3.47,3.47,0,0,1,6.82-1.3C41.4,73,43.89,76.19,46.85,77c2.81.67,6.42-.62,8.79-3.55a3.47,3.47,0,0,1,5.41,4.35C57.07,82.77,51.1,85.08,45.66,83.87Z"/><path class="cls-1" d="M33.43,40.3a6,6,0,0,0,3.69,6.38,8.86,8.86,0,0,0,7.67-.79"/><path d="M30.53,39.51a9.09,9.09,0,0,0,4.26,9.33c3.58,2.19,8,1.51,11.52-.36s.38-7-3-5.18a5.87,5.87,0,0,1-4.94.63c-1-.44-2.19-1.59-2-2.83a3.11,3.11,0,0,0-2.1-3.69c-1.4-.4-3.47.49-3.69,2.1Z"/><path class="cls-1" d="M63.36,51.22a6,6,0,0,0,3.7,6.37,8.83,8.83,0,0,0,7.67-.79"/><path d="M60.47,50.42a9.11,9.11,0,0,0,4.26,9.34c3.57,2.18,8,1.51,11.51-.36s.39-7-3-5.19a5.81,5.81,0,0,1-4.94.63c-1-.44-2.2-1.59-2-2.82a3.1,3.1,0,0,0-2.09-3.69c-1.4-.41-3.47.49-3.69,2.09Z"/><circle class="cls-1" cx="134.89" cy="131.92" r="46.46"/><path d="M179.85,131.92c-.28,18.91-12,36.11-30,42.42A45,45,0,1,1,144,87.88c20.86,4.34,35.52,22.94,35.83,44,0,1.92,3,1.93,3,0A48,48,0,1,0,143.5,179.1c22.77-4,39-24.35,39.35-47.18A1.5,1.5,0,0,0,179.85,131.92Z"/><path d="M117.16,121.26a1.5,1.5,0,0,0,0-3,1.5,1.5,0,0,0,0,3Z"/><path class="cls-2" d="M117.16,128.11c10.75,0,10.77-16.7,0-16.7s-10.76,16.7,0,16.7Z"/><path d="M152.62,121.26a1.5,1.5,0,0,0,0-3,1.5,1.5,0,0,0,0,3Z"/><path class="cls-2" d="M152.62,128.11c10.75,0,10.77-16.7,0-16.7s-10.76,16.7,0,16.7Z"/><path class="cls-2" d="M135.24,154.13c-.22,0-.46,0-.69,0-5.74-.3-11.14-4.44-13.78-10.56a3.47,3.47,0,1,1,6.38-2.75c1.57,3.65,4.69,6.22,7.77,6.39,2.88,0,6.12-2,7.81-5.38a3.46,3.46,0,1,1,6.21,3.07C146.13,150.57,140.81,154.13,135.24,154.13Z"/><path class="cls-3" d="M233.94,180.28a147.89,147.89,0,0,1-19.64,5.2,3.87,3.87,0,0,1-2.79-.16,3.92,3.92,0,0,1-1.33-1.76q-5-10.25-9.74-20.64L214,156.09q-8.61-7.44-16.57-15.6c11.9,1,23.08,5.85,34,10.62a143,143,0,0,0-11,13.81,209.39,209.39,0,0,1,20.84,10.5,14.41,14.41,0,0,1-6.16,4.33"/><path d="M233.54,178.83c-4.8,1.6-18.76,7.63-22.48,3.12-2-2.43-3.18-6.57-4.53-9.43q-2.43-5.16-4.79-10.36l-.54,2.05,13.58-6.83a1.51,1.51,0,0,0,.3-2.36q-8.6-7.47-16.57-15.59L197.45,142c11.73,1.19,22.56,5.75,33.27,10.41l-.3-2.35a160.46,160.46,0,0,0-11.22,14.12,1.5,1.5,0,0,0,.54,2.05,225.56,225.56,0,0,1,20.84,10.49l-.3-2.35a16.33,16.33,0,0,1-5.86,4.1c-1.77.75-.24,3.33,1.52,2.59a18,18,0,0,0,6.46-4.57,1.53,1.53,0,0,0-.31-2.36,224.31,224.31,0,0,0-20.84-10.49l.54,2.05a152,152,0,0,1,10.75-13.51,1.52,1.52,0,0,0-.3-2.36c-11.23-4.89-22.5-9.58-34.79-10.82-1.35-.14-1.9,1.7-1.06,2.56q8,8.13,16.57,15.6l.31-2.36-13.58,6.83a1.53,1.53,0,0,0-.54,2q3.15,6.93,6.42,13.8c1.25,2.61,2.48,7.59,5.18,9.15s6.85-.25,9.37-.84c4.81-1.11,9.54-2.49,14.22-4.05,1.82-.61,1-3.51-.8-2.9Z"/><path class="cls-3" d="M249.81,143.79q-11-3.94-22.15-7.11a80.87,80.87,0,0,1,8.6-11l-19.65-6.26c5.23-1.71,10.75-2.25,16.23-2.78l19.29-1.87a49.37,49.37,0,0,1-4.61,13.4l13.8.07a51.56,51.56,0,0,1-11.64,15.93"/><path d="M250.2,142.34q-10.95-3.9-22.14-7.11l.89,2.2a90.87,90.87,0,0,1,8.37-10.7,1.52,1.52,0,0,0-.67-2.51L217,118v2.89c11.19-3.37,23.54-3.47,35.12-4.59l-1.45-1.9a53.33,53.33,0,0,1-4.46,13,1.52,1.52,0,0,0,1.3,2.26l13.8.07-1.3-2.26a54.06,54.06,0,0,1-11.4,15.63c-1.4,1.33.72,3.45,2.12,2.12A56.32,56.32,0,0,0,262.61,129a1.52,1.52,0,0,0-1.29-2.26l-13.8-.07,1.29,2.25a57.62,57.62,0,0,0,4.77-13.75c.18-.86-.42-2-1.45-1.9-11.85,1.15-24.45,1.24-35.91,4.7a1.51,1.51,0,0,0,0,2.89l19.64,6.27-.67-2.51a96.5,96.5,0,0,0-8.83,11.31,1.51,1.51,0,0,0,.9,2.2q11.19,3.21,22.15,7.12c1.82.65,2.6-2.25.79-2.9Z"/><path class="cls-3" d="M8.54,151.77a148.18,148.18,0,0,1-.23-20.32,4,4,0,0,1,.84-2.67,3.94,3.94,0,0,1,2-.85q11.17-2.36,22.41-4.38l3.29,14.84q9.32-6.52,19.19-12.24c-3.9,11.28-11.33,20.95-18.64,30.39a141.64,141.64,0,0,0-10.7-14,206.78,206.78,0,0,1-15.29,17.63,14.36,14.36,0,0,1-2.69-7"/><path d="M10,151.77c-.27-3.69-.45-7.38-.47-11.08,0-3.24-1.14-9.3,2-11.31,2.52-1.61,8.2-1.69,11.19-2.27Q28.37,126,34,125l-1.85-1,3.29,14.84a1.51,1.51,0,0,0,2.21.9q9.34-6.51,19.18-12.24l-2.2-1.7c-4,11.09-11.1,20.48-18.25,29.73l2.35.3a161.85,161.85,0,0,0-10.93-14.34,1.5,1.5,0,0,0-2.13,0,224.67,224.67,0,0,1-15.28,17.63l2.36.3a16,16,0,0,1-2.54-6.67c-.3-1.9-3.19-1.09-2.9.8a18,18,0,0,0,2.85,7.39,1.51,1.51,0,0,0,2.35.3,226.92,226.92,0,0,0,15.29-17.63H25.66a154.45,154.45,0,0,1,10.47,13.73,1.52,1.52,0,0,0,2.36.31c7.48-9.68,14.81-19.44,19-31a1.51,1.51,0,0,0-2.2-1.69q-9.84,5.73-19.19,12.24l2.21.89L35,123.15a1.52,1.52,0,0,0-1.84-1q-7.48,1.35-14.95,2.84c-2.84.57-8,.54-10.15,2.77S6.65,134.33,6.6,137c-.1,4.94.08,9.86.44,14.78.14,1.91,3.14,1.93,3,0Z"/><path class="cls-3" d="M40,176.1q6.49-9.65,12.32-19.73a83.09,83.09,0,0,1,8.57,11L71.8,149.9c.38,5.48-.45,11-1.28,16.41L67.6,185.47a49.33,49.33,0,0,1-11.86-7.76l-3.45,13.36A51.1,51.1,0,0,1,39.7,175.88"/><path d="M41.32,176.85q6.48-9.66,12.33-19.72l-2.36.3a91.09,91.09,0,0,1,8.33,10.73,1.52,1.52,0,0,0,2.59,0l10.89-17.5-2.8-.76c.53,11.68-2.39,23.66-4.15,35.17l2.2-.89a54.22,54.22,0,0,1-11.55-7.53,1.51,1.51,0,0,0-2.5.66l-3.46,13.36,2.51-.66A54.1,54.1,0,0,1,41,175.13a1.5,1.5,0,0,0-2.59,1.51,56.26,56.26,0,0,0,12.82,15.49,1.51,1.51,0,0,0,2.5-.66l3.46-13.36-2.51.66a57.71,57.71,0,0,0,12.16,8c.77.37,2,.13,2.2-.9,1.8-11.77,4.8-24,4.26-36a1.51,1.51,0,0,0-2.79-.76L59.62,166.65h2.59a95.51,95.51,0,0,0-8.8-11.34,1.51,1.51,0,0,0-2.35.3q-5.85,10.06-12.33,19.73c-1.08,1.61,1.52,3.11,2.59,1.51Z"/><path class="cls-3" d="M143.67,28.29q-1.17,11.58-1.54,23.21a82.26,82.26,0,0,1-12.76-5.68L128,66.39c-2.92-4.65-4.78-9.88-6.62-15.07L115,33.05a49.24,49.24,0,0,1,14.11,1.24l-3.27-13.41a51.34,51.34,0,0,1,18.27,7.45"/><path d="M142.17,28.29Q141,39.87,140.63,51.5l1.9-1.45a89.26,89.26,0,0,1-12.4-5.53,1.52,1.52,0,0,0-2.26,1.3l-1.33,20.57,2.8-.76c-6-10-9.06-22-13-33L115,34.55a54,54,0,0,1,13.71,1.19,1.52,1.52,0,0,0,1.84-1.85l-3.26-13.41-1.85,1.85a54.09,54.09,0,0,1,17.91,7.29c1.64,1,3.15-1.56,1.52-2.59a56.46,56.46,0,0,0-18.63-7.59,1.51,1.51,0,0,0-1.84,1.84l3.26,13.41,1.85-1.85A57.55,57.55,0,0,0,115,31.55a1.52,1.52,0,0,0-1.45,1.9c4,11.23,7.12,23.41,13.25,33.7a1.51,1.51,0,0,0,2.79-.76l1.33-20.57-2.26,1.29A96.72,96.72,0,0,0,141.73,53a1.51,1.51,0,0,0,1.9-1.45q.41-11.62,1.54-23.21c.19-1.92-2.81-1.91-3,0Z"/></g></svg>