<svg xmlns="http://www.w3.org/2000/svg" viewBox="0 0 238 268.88"><defs><style>.cls-1{isolation:isolate;}.cls-2{fill:#fac706;}.cls-3{fill:#183e42;}.cls-4{fill:#fff;}.cls-5{fill:none;}.cls-6{fill:#183e41;}.cls-7{fill:#7ec7cd;}.cls-8{fill:#1d1d1b;}.cls-9{fill:#e4252e;}.cls-10{mix-blend-mode:color;}.cls-11{fill:#7cc6cd;}.cls-12{fill:#f7c402;}.cls-13{fill:#7dc4ca;}</style></defs><title>Mini marco teorico refuerzo - Recarga del limón</title><g class="cls-1"><g id="contenido"><path class="cls-2" d="M64.57,266.5a8.78,8.78,0,0,0,4.74-1.18,63.41,63.41,0,0,0,2.92-13.21c1.34-9.6,3.07-11.56,4.41-21.17l-22.82-9.48"/><path class="cls-3" d="M64.57,268c2.29-.12,4.73-.39,6.18-2.28,2.16-2.78,2.31-9,2.81-12.38,1.11-7.43,3.42-14.57,4.52-22a1.57,1.57,0,0,0-1-1.85L54.22,220c-1.79-.74-2.56,2.16-.8,2.89l22.82,9.49-1-1.85c-.79,5.28-2.3,10.32-3.41,15.52-.64,3-1,6-1.48,8.95-.61,3.73-.71,9.72-5.73,10-1.92.11-1.94,3.11,0,3Z"/><path class="cls-2" d="M48.05,222.48c-.84,9.56-1.17,21.63-1.19,31.34A3.06,3.06,0,0,0,47,255a2.11,2.11,0,0,0,.9.92l16.62,10.49a332.65,332.65,0,0,1,4.87-36.19"/><path class="cls-3" d="M46.55,222.48c-.81,9.64-1.11,19.32-1.17,29,0,3.78.23,4.76,3.46,6.82,5,3.17,10,6.3,15,9.45a1.51,1.51,0,0,0,2.25-1.3,334.35,334.35,0,0,1,4.82-35.79c.36-1.89-2.53-2.7-2.89-.8a341.66,341.66,0,0,0-4.93,36.59l2.26-1.29L53.68,257.8l-3.33-2.1q-2.55-1-2-3.43c-.34-1.73,0-3.92.06-5.69.14-8,.45-16.09,1.12-24.1.17-1.93-2.83-1.92-3,0Z"/><path class="cls-2" d="M56,248.37a4.54,4.54,0,0,0,.58,4.77,22.21,22.21,0,0,0,.25-8.56,17,17,0,0,0-1,8.07"/><path class="cls-3" d="M54.5,248a6.13,6.13,0,0,0,1,6.23,1.5,1.5,0,0,0,2.5-.66,25.57,25.57,0,0,0,.26-9.35c-.25-1.61-2.45-1.23-2.9,0a18.87,18.87,0,0,0-1,8.46c.2,1.9,3.2,1.92,3,0a16.7,16.7,0,0,1,.93-7.67h-2.9a21.38,21.38,0,0,1-.25,7.77l2.51-.67a3.23,3.23,0,0,1-.2-3.31c.75-1.78-2.15-2.55-2.89-.8Z"/><path class="cls-3" d="M68.07,141.68l-8.88-2.55c3.44,1.3,6.83,2.72,10.16,4.3A1.66,1.66,0,0,0,68.07,141.68Z"/><path class="cls-3" d="M38.55,151.34q2.12-1.49,4.39-2.85a3.81,3.81,0,0,1,.58-.34,3.48,3.48,0,0,1,.63-.26,16.17,16.17,0,0,1,6-1.42A9.24,9.24,0,0,1,56.51,149c1.13,1,4.13,3.68,3.5,7.23-.53,3-3.16,4.71-5.08,6l-.52.34A72.23,72.23,0,0,0,42.24,172a23.85,23.85,0,0,0-6.79,15.69c0,.57-.05,1.17-.06,1.74a12.84,12.84,0,0,1-1.12,6,3.24,3.24,0,0,1,.36.2A15.83,15.83,0,0,0,41,198a14.6,14.6,0,0,1,6.45,2.57c1.77,1.39,3.61,4.05,3.47,6.62a4.63,4.63,0,0,1-2.24,3.74,8.09,8.09,0,0,1-4.41,1.17,14.91,14.91,0,0,1-7.1-2,13,13,0,0,1,.42,2.1,7.66,7.66,0,0,1-.89,4.42c2,1.37,4.12,2.52,5.43,3.34,9,5.62,19.15,9.12,29.07,12.84,2.21.83,3.16-2.64,1-3.46l-.58-.22-3.81-82.42a129.55,129.55,0,0,0-27.51-9.42C39.63,141.93,39.08,146.63,38.55,151.34Z"/><path class="cls-3" d="M53.18,160.74c1.8-1.2,4.25-2.58,4.66-4.89.38-2.14-1.33-3.94-2.81-5.26a7.1,7.1,0,0,0-4.88-2,14.38,14.38,0,0,0-5.26,1.3,1.38,1.38,0,0,0-.36.15,1.79,1.79,0,0,0-.34.2,69.92,69.92,0,0,0-5.95,4c-.84,7.69-1.62,15.38-2.4,23.07a25.64,25.64,0,0,1,4.81-6.8A73.74,73.74,0,0,1,53.18,160.74Z"/><path class="cls-4" d="M34.35,187.63c0,.6-.05,1.19-.06,1.78,0,1.94-.09,4-1.12,5.68a3.49,3.49,0,0,1,.79.18q.75-6.89,1.45-13.77A27.47,27.47,0,0,0,34.35,187.63Z"/><path class="cls-4" d="M44,149.11a3.14,3.14,0,0,1,.49-.21,15.42,15.42,0,0,1,5.63-1.36,8.2,8.2,0,0,1,5.62,2.25c1.71,1.53,3.62,3.62,3.16,6.25s-2.76,4-4.61,5.25l-.52.34a72.69,72.69,0,0,0-12.36,9.62,24.45,24.45,0,0,0-6,10.25q-.7,6.88-1.45,13.77l.31.13a12.84,12.84,0,0,0,1.12-6c0-.57,0-1.17.06-1.74A23.85,23.85,0,0,1,42.24,172a72.23,72.23,0,0,1,12.17-9.48l.52-.34c1.92-1.25,4.55-3,5.08-6,.63-3.55-2.37-6.22-3.5-7.23a9.24,9.24,0,0,0-6.36-2.52,16.17,16.17,0,0,0-6,1.42,3.48,3.48,0,0,0-.63.26,3.81,3.81,0,0,0-.58.34q-2.28,1.37-4.39,2.85l-.15,1.44q2.46-1.78,5.16-3.39A1.89,1.89,0,0,1,44,149.11Z"/><path class="cls-4" d="M33.17,195.09c1-1.64,1.08-3.74,1.12-5.68,0-.59,0-1.18.06-1.78a27.47,27.47,0,0,1,1.06-6.13c.14-1.4.29-2.8.43-4.19a27.2,27.2,0,0,0-2.59,10.26c-.19,3.15.25,6.22-1.92,8a2.91,2.91,0,0,1,1.59-.46Z"/><path class="cls-4" d="M41.44,171.25a72.69,72.69,0,0,1,12.36-9.62l.52-.34c1.85-1.21,4.16-2.71,4.61-5.25s-1.45-4.72-3.16-6.25a8.2,8.2,0,0,0-5.62-2.25,15.42,15.42,0,0,0-5.63,1.36,3.14,3.14,0,0,0-.49.21,1.89,1.89,0,0,0-.47.28q-2.7,1.61-5.16,3.39c-.06.49-.11,1-.16,1.46a69.92,69.92,0,0,1,5.95-4,1.79,1.79,0,0,1,.34-.2,1.38,1.38,0,0,1,.36-.15,14.38,14.38,0,0,1,5.26-1.3,7.1,7.1,0,0,1,4.88,2c1.48,1.32,3.19,3.12,2.81,5.26-.41,2.31-2.86,3.69-4.66,4.89a73.74,73.74,0,0,0-12.53,9.77,25.64,25.64,0,0,0-4.81,6.8c-.14,1.39-.29,2.79-.43,4.19A24.45,24.45,0,0,1,41.44,171.25Z"/><path class="cls-3" d="M35.35,212.36a14.07,14.07,0,0,0-2.1-5.62q-.31-.37-.6-.78c-.19,1.56-.36,3.11-.48,4.67s1.07,3.18,2.72,4.59A5.6,5.6,0,0,0,35.35,212.36Z"/><path class="cls-4" d="M37.54,212.15a13,13,0,0,0-.42-2.1,12.83,12.83,0,0,1-1.36-.89l-.12-.1a11.83,11.83,0,0,1,.8,3.2,6.59,6.59,0,0,1-.68,3.66l.89.65A7.66,7.66,0,0,0,37.54,212.15Z"/><path class="cls-4" d="M36.44,212.26a11.83,11.83,0,0,0-.8-3.2,15,15,0,0,1-2.39-2.32,14.07,14.07,0,0,1,2.1,5.62,5.6,5.6,0,0,1-.46,2.86c.28.23.57.47.87.7A6.59,6.59,0,0,0,36.44,212.26Z"/><path class="cls-3" d="M33.7,197.58l-.3-.19a.88.88,0,0,0-.48-.16.73.73,0,0,0-.29.07l.28,4.7.2.33C33.32,200.74,33.52,199.16,33.7,197.58Z"/><path class="cls-3" d="M37.11,207.47a12.74,12.74,0,0,0,7.11,2.43,6,6,0,0,0,3.22-.82c2.68-1.69.46-5.39-1.41-6.86a12.47,12.47,0,0,0-5.49-2.14,18.3,18.3,0,0,1-6.84-2.5c-.18,1.58-.38,3.16-.59,4.75.26.44.54.88.82,1.33.39.62.79,1.25,1.16,1.89A14.12,14.12,0,0,0,37.11,207.47Z"/><path class="cls-3" d="M33.11,202.33l-.2-.33c.06.14.13.28.19.41Z"/><path class="cls-3" d="M33.11,202.33v.08a13.24,13.24,0,0,0,2,3.14c-.37-.64-.77-1.27-1.16-1.89C33.65,203.21,33.37,202.77,33.11,202.33Z"/><path class="cls-4" d="M33.65,196.31l.19.08c0-.12,0-.25,0-.38Z"/><path class="cls-4" d="M33.84,196.39l.17.11A17.09,17.09,0,0,0,40.74,199a13.52,13.52,0,0,1,6,2.36c1.61,1.26,3.17,3.62,3.06,5.72A3.52,3.52,0,0,1,48,210a7,7,0,0,1-3.81,1,13.83,13.83,0,0,1-7.68-2.59,13.58,13.58,0,0,1,.58,1.66,14.91,14.91,0,0,0,7.1,2,8.09,8.09,0,0,0,4.41-1.17,4.63,4.63,0,0,0,2.24-3.74c.14-2.57-1.7-5.23-3.47-6.62A14.6,14.6,0,0,0,41,198a15.83,15.83,0,0,1-6.32-2.36,3.24,3.24,0,0,0-.36-.2c-.12.21-.25.41-.39.61S33.85,196.27,33.84,196.39Z"/><path class="cls-4" d="M31.32,195.54a4.14,4.14,0,0,0-.48.34,4.69,4.69,0,0,0,.49-.34Z"/><path class="cls-4" d="M33.65,196.31l.23-.3c0-.25,0-.49.08-.74a3.49,3.49,0,0,0-.79-.18A5,5,0,0,1,32,196.41a1.88,1.88,0,0,1,.92-.26A1.84,1.84,0,0,1,33.65,196.31Z"/><path class="cls-4" d="M33.88,196c.14-.2.27-.4.39-.61l-.31-.13C33.93,195.52,33.91,195.76,33.88,196Z"/><path class="cls-4" d="M33.17,195.09h-.25a2.91,2.91,0,0,0-1.59.46,4.69,4.69,0,0,1-.49.34l1.05.59.11-.06A5,5,0,0,0,33.17,195.09Z"/><path class="cls-4" d="M32.67,205.78l0,.18q.29.4.6.78C33.06,206.42,32.87,206.1,32.67,205.78Z"/><path class="cls-4" d="M36.43,208.31a14.92,14.92,0,0,1-2.26-2.16,20.35,20.35,0,0,1,1.47,2.91l.12.1a12.83,12.83,0,0,0,1.36.89,13.58,13.58,0,0,0-.58-1.66Z"/><path class="cls-4" d="M35.64,209.06a20.35,20.35,0,0,0-1.47-2.91,14.83,14.83,0,0,1-1.32-1.85l-.18,1.48c.2.32.39.64.58,1A15,15,0,0,0,35.64,209.06Z"/><path class="cls-4" d="M33.4,197.39l.3.19c0-.16,0-.33.06-.49s.05-.46.08-.7l-.19-.08a6.4,6.4,0,0,1-1,1,.73.73,0,0,1,.29-.07A.88.88,0,0,1,33.4,197.39Z"/><path class="cls-4" d="M48,210a3.52,3.52,0,0,0,1.74-2.89c.11-2.1-1.45-4.46-3.06-5.72a13.52,13.52,0,0,0-6-2.36A17.09,17.09,0,0,1,34,196.5l-.17-.11c0,.24-.05.47-.08.7s0,.33-.06.49a18.3,18.3,0,0,0,6.84,2.5A12.47,12.47,0,0,1,46,202.22c1.87,1.47,4.09,5.17,1.41,6.86a6,6,0,0,1-3.22.82,12.74,12.74,0,0,1-7.11-2.43,14.12,14.12,0,0,1-2-1.92,22.3,22.3,0,0,1,1.45,2.84A13.83,13.83,0,0,0,44.22,211,7,7,0,0,0,48,210Z"/><path class="cls-4" d="M33.65,196.31a1.84,1.84,0,0,0-.73-.16,1.88,1.88,0,0,0-.92.26l.63.89A6.4,6.4,0,0,0,33.65,196.31Z"/><path class="cls-4" d="M32.91,202l0,2.05.21-1.64C33,202.28,33,202.14,32.91,202Z"/><path class="cls-4" d="M34.17,206.15a14.92,14.92,0,0,0,2.26,2.16l.11.08a22.3,22.3,0,0,0-1.45-2.84,13.24,13.24,0,0,1-2-3.14l-.21,1.64.1.17C33.39,204.86,33.79,205.5,34.17,206.15Z"/><path class="cls-4" d="M33,204.22l-.1-.17c0,.08,0,.17,0,.25a14.83,14.83,0,0,0,1.32,1.85C33.79,205.5,33.39,204.86,33,204.22Z"/><path class="cls-4" d="M73.69,145.57q-2.14-1.11-4.34-2.14c-3.33-1.58-6.72-3-10.16-4.3l-16.51-4.74a1.86,1.86,0,0,0-2.32,1.73c0,.37-.09.74-.13,1.11a129.55,129.55,0,0,1,27.51,9.42c1.37.65,2.74,1.32,4.1,2C73.92,149.76,75.78,146.66,73.69,145.57Z"/><path class="cls-5" d="M88.09,106.37a1.82,1.82,0,0,0-1.9,2.23c0,.18.1.35.16.53l-8.11,5a1.42,1.42,0,0,0-1.34-.78,2,2,0,0,0-2,2.25c.12.78.27,1.62.46,2.5l1.74-.82a1.83,1.83,0,0,1,.47-.15A2.07,2.07,0,0,1,78,117c2.38-.22,6-2.54,8.34-3.66l4.79-2.32a15.42,15.42,0,0,1-1.4-3.41A1.62,1.62,0,0,0,88.09,106.37Z"/><path class="cls-3" d="M78,117a2.07,2.07,0,0,0-.46.1,1.83,1.83,0,0,0-.47.15l-1.74.82c.82,3.86,2.35,8.37,5.25,10.7a6.37,6.37,0,0,0,4.09,1.34,12.18,12.18,0,0,0,5.2-1.33c3-1.5,5.68-4.27,5.6-7.78-.09-3.69-2.59-6.74-4.34-10l-4.79,2.32C84,114.5,80.38,116.82,78,117Z"/><path class="cls-3" d="M121.47,115.43a62.75,62.75,0,0,0-16.61-7.36c-3.6-1-5-1-8.24.42-1.17.52-2.34,1.07-3.51,1.62.38.7.8,1.4,1.24,2.12,1.59,2.64,3.24,5.38,3.32,8.76.09,4-2.46,7.6-6.81,9.75a14.28,14.28,0,0,1-6.19,1.56,8.63,8.63,0,0,1-5.48-1.82c-2.71-2.18-4.69-6-5.9-11.4-10.69,5.15-21.07,10.85-32,15.49-1.49.63-1,2.93.44,3.28,7.15,1.79,12.48,6.61,19.06,9.56,2.75,1.23,6.09,2.57,9.17,2.34,3.35-.25,6.47-3,9.12-4.74,13.81-9.18,26.39-20,42-26.3A1.81,1.81,0,0,0,121.47,115.43Z"/><path class="cls-4" d="M79.19,130.48a8.63,8.63,0,0,0,5.48,1.82,14.28,14.28,0,0,0,6.19-1.56c4.35-2.15,6.9-5.8,6.81-9.75-.08-3.38-1.73-6.12-3.32-8.76-.44-.72-.86-1.42-1.24-2.12l-2,1c1.75,3.24,4.25,6.29,4.34,10,.08,3.51-2.57,6.28-5.6,7.78a12.18,12.18,0,0,1-5.2,1.33,6.37,6.37,0,0,1-4.09-1.34c-2.9-2.33-4.43-6.84-5.25-10.7l-2,1C74.5,124.47,76.48,128.3,79.19,130.48Z"/><path class="cls-4" d="M76.64,115.13a23.16,23.16,0,0,0,2.22,7.72c1.25,2.32,2.19,5,4.55,5.4,3.92.75,10.51-2.68,10.22-7.21-.26-4.15-4.9-8.85-5.67-12.91"/><path class="cls-3" d="M74.87,115.61c.65,4.18,2.15,10.33,5.71,13.2,2.63,2.12,6.47,1.4,9.29,0,3-1.5,5.68-4.27,5.6-7.78-.11-5-4.57-8.75-5.74-13.39-.57-2.25-4.1-1.29-3.54.95,1.23,4.88,9,12,3.35,16.23-2.52,1.88-5.77,2.53-7.73-.28s-2.87-6.48-3.4-9.9c-.36-2.28-3.89-1.31-3.54,1Z"/><path class="cls-2" d="M118.08,243.83c2.33-1.23,6.82-1.56,7.19-4.35s.23-9,.29-11.83c.16-7.09,1.5-21,1.46-27.86l-14.88,1.71"/><path class="cls-3" d="M118.84,245.12c3-1.32,6.8-1.65,7.87-5.24s.28-8.12.35-11.77c.16-9.45,1.42-18.86,1.46-28.32a1.52,1.52,0,0,0-1.5-1.5L112.14,200c-1.89.21-1.92,3.22,0,3L127,201.29l-1.5-1.5c0,8.16-.93,16.3-1.33,24.44-.16,3.34-.12,6.67-.17,10,0,2,.33,4.75-1.33,6.23-1.22,1.08-3.79,1.37-5.36,2.06-1.76.78-.24,3.37,1.51,2.59Z"/><path class="cls-2" d="M100.82,217.54c-.11,7,0,15.42,2.33,23.14,6.48,1.55,8.37,2.6,14.93,3.15-1.29-11.6,1.5-28.29,1.51-39.94"/><path class="cls-3" d="M99.32,217.54c-.1,8,.22,15.83,2.38,23.53a1.49,1.49,0,0,0,1,1.05c5.13,1.27,10,2.7,15.33,3.21a1.5,1.5,0,0,0,1.5-1.5c-1.28-13.32,1.39-26.63,1.51-39.94a1.5,1.5,0,0,0-3,0c-.12,13.31-2.79,26.62-1.51,39.94l1.5-1.5a52.38,52.38,0,0,1-8.25-1.45c-3-.78-5.1-.8-6.11-3.95-1.91-6-1.48-13.19-1.4-19.39,0-1.93-3-1.93-3,0Z"/><path class="cls-6" d="M52.54,124c-8.09-.69-15.56-3.65-23.31-6a3.62,3.62,0,0,1-1.65-.85,3.54,3.54,0,0,1-.69-1.67c-3.69-17-7.88-33.09-6-50.28a6.28,6.28,0,0,1,3.32-4.84A221.63,221.63,0,0,1,61,44.48c8-2.73,9.87-4.83,18.35-4.56,4.87.16,26.58-1.77,28.89,1.14"/><path class="cls-3" d="M52.54,122.48a73.29,73.29,0,0,1-14-3.14c-1.78-.55-3.54-1.15-5.31-1.72-3.26-1.05-4.11-1.24-5.26-4.5C25.3,105.68,24.25,96.81,23.11,89A107,107,0,0,1,22,75.51c-.08-4.39-.89-11,3-13.93,5.52-4.08,13.31-6.77,19.61-9.41C56.12,47.35,68.45,41.62,81,41.42c4.37-.07,8.74-.37,13.11-.45,3-.06,10.6-1.15,13,1.16,1.39,1.33,3.51-.79,2.12-2.13-1.86-1.78-5.09-1.79-7.5-1.94a148.52,148.52,0,0,0-14.92.14c-4.09.17-8.34-.07-12.4.38-6,.67-11.7,3.67-17.31,5.63C51,46.34,45,48.66,39.15,51.28c-5.36,2.38-13.25,4.91-17.45,9.06-4,3.93-2.88,12-2.69,17a144.23,144.23,0,0,0,3.2,23.49c.95,4.67,1.91,9.36,3,14,.46,1.88.79,3.13,2.52,4.12,3.31,1.88,8.06,2.71,11.71,3.8a72.93,72.93,0,0,0,13.07,2.7c1.92.2,1.9-2.8,0-3Z"/><path class="cls-7" d="M123.86,152.3c6.1,2.58,13.37,2.48,17.5.8,6.1-2.49,8-6.65,9.12-13.3.79-4.85-.35-9.52-2-13.71A47.66,47.66,0,0,0,135.15,107c-1.46-1.25-1.44,0-3.37.82-2.13.94-5,1.6-4.5,3.84s2,3.85,3.41,5.44a29,29,0,0,1,6.13,9.72c1.28,3.79,3.75,10.52.51,13.6-5.6,5.29-14.62,1-15.13-2.1"/><path class="cls-3" d="M123.47,153.75c9.24,3.52,22.41,3.15,26.81-7.34,5-11.79-.66-25-8.19-34.39-2.55-3.16-5.68-8.16-9.93-6.15-3.45,1.62-7.59,2.9-5.92,7.47.87,2.37,2.89,4.17,4.45,6.07a29.27,29.27,0,0,1,5.39,9.93c1.3,4.11,3,9.8-2.58,11.68-2.87,1-8.77.29-9.85-3.09-.59-1.83-3.49-1.05-2.9.8,2.1,6.51,12.55,7.14,17.09,3.2,6.43-5.59,0-18.23-4-23.37-2.14-2.76-7.2-6.54-1.65-9.29,2.69-1.33,3.85.44,5.77,2.53a45.4,45.4,0,0,1,10.21,17.91c1.76,6.2,1.65,15.1-3.58,19.77-5.4,4.83-14.13,3.73-20.32,1.37-1.8-.68-2.58,2.21-.79,2.9Z"/><path class="cls-4" d="M120.1,118.36c-.39.42-.61-.84,0-.83s.83.7,1,1.27c3.92,16.24,6.62,32.76,9.25,47.73,0,0,8.66,22.34,3,27.76a20.51,20.51,0,0,1-2.55,2c-9.92,7-14.56,9.8-19.92,13.57-8,5.64-15.14,12.68-23.86,17.13-4.83,2.47-10,4.94-15.35,4.08-2-37.54-3.48-45.51-1.7-83.06"/><path class="cls-3" d="M120.1,116.86l-.31,0,1.5,1.5-.18.26-1.82.23c1.62,1.08,2.43,9.82,2.82,11.65q1.17,5.59,2.23,11.21c1.47,7.82,2.59,15.72,4.18,23.51,1.44,7.09,4.7,13.64,5.13,21,.12,2,.24,4.48-.82,6.28-1.57,2.66-5.85,4.59-8.44,6.36-4.19,2.87-8.45,5.63-12.62,8.51-5.8,4-11.09,8.65-16.79,12.79-6.59,4.79-14.88,10.19-23.34,9.38l1.5,1.5c-1.51-27.81-3-55.21-1.7-83.06.09-1.93-2.91-1.93-3,0-1.3,27.85.19,55.25,1.7,83.06a1.54,1.54,0,0,0,1.5,1.5c15.93,1.52,29.73-14.36,41.64-22.58,5.06-3.49,10.22-6.84,15.28-10.34,4.38-3,7.74-5,8.11-10.55.55-8.35-3.22-15.91-5.11-23.79-2.13-8.9-3.13-18.18-4.87-27.17-.9-4.7-1.86-9.39-2.92-14.06-.58-2.61-.56-6.2-3-7.8a1.52,1.52,0,0,0-1.82.24,1.86,1.86,0,0,0-.69,1.86,1.56,1.56,0,0,0,1.5,1.5l.31,0c1.92.21,1.91-2.79,0-3Z"/><path class="cls-4" d="M52.57,118.87c-1.14-13-5.23-26.33-6.37-39.34-.48-5.44-2.38-9.92,1.23-14.08,1.35-1.57,11.61-6.18,16.64-7.92,13.3-4.61,27.43-11.2,40.73-15.81,1.8-.62,4.06-1.16,5.42.15a5,5,0,0,1,1.15,2.47A185.06,185.06,0,0,1,115.9,70c.32,3,2.63,15.51,2.63,15.51-3.49,4.07-10.08,7.38-12.41,9.36-9.83,8.38-18.31,11.27-29,18.57-5.36,3.66-15.49,7.78-21.18,10.05-3.74,1.5-2.6-.76-3.37-4.64"/><path class="cls-3" d="M54.07,118.87c-.88-9-2.87-17.78-4.52-26.65-.89-4.81-1.46-9.63-2.06-14.49-.52-4.26-1.89-9.1,2.16-12.07,5.4-4,12.79-5.89,19-8.18,8.62-3.19,17-6.83,25.59-10.21,3.42-1.35,8-4,11.67-4.31,5.52-.45,5.84,9.63,6.57,13.63,1.21,6.66,1.81,13.4,3,20.08.41,2.41,1,4.84,1.29,7.27,0,.36.46,1.45.32,1.77s-.4-.4-.5-.24c-.73,1.17-2.51,2.19-3.61,3-6,4.39-12.08,9-18.41,12.87-7.26,4.4-14.56,9.09-22,13.13a131.28,131.28,0,0,1-12.34,5.72c-1.26.52-3.26,1.86-4.64,1.88-2.07,0-.42.67-1.17-.87a14.38,14.38,0,0,1-.35-2.72c-.3-1.91-3.2-1.1-2.9.79.26,1.64-.06,4.82,1.7,5.87,2.26,1.35,6.12-1.21,8.15-2,8.66-3.59,16.18-8.21,24.22-12.93,4-2.37,8.2-4.56,12.18-7.05,4.19-2.62,7.86-5.89,11.94-8.64,3.17-2.13,6.7-4,9.35-6.86,1.58-1.69,1.34-2.33,1-4.46-1.21-6.65-2.11-13.3-3.06-20a166.13,166.13,0,0,0-3.29-17.4c-.77-3-1.43-5.69-4.89-6.11-4.15-.51-9.47,2.61-13.22,4.07-5.44,2.12-10.84,4.37-16.25,6.56C70.3,53.75,61.41,56.56,53,60.54c-2.83,1.34-6.12,2.6-7.81,5.41-2,3.38-1.35,7.15-.86,10.83,1.87,14.07,5.33,28,6.72,42.09.19,1.9,3.19,1.92,3,0Z"/><path class="cls-2" d="M63,71.5c-1.83,5.63-2.77,11.9-1.49,17.74s5.15,11.11,10.1,12.1a6,6,0,0,0,3.7-.31,8.39,8.39,0,0,0,3-2.69,23.34,23.34,0,0,0,3.83-18c-1.24-6.29-2.85-11.7-7.86-14a5.38,5.38,0,0,0-3.62-.58c-1.2.33-7.63,4.29-7.65,5.78"/><path class="cls-3" d="M61.58,71.1c-2.89,9.48-3.88,22.3,4.77,29.26s15.36-1.75,17.16-10.08c1.65-7.66,0-20.17-7.36-24.69a7.28,7.28,0,0,0-7.93-.33C66,66.5,62.41,68.45,61.58,71.1c-.58,1.85,2.32,2.64,2.9.8.48-1.55,3.47-3.14,4.85-3.81,3.26-1.58,6.14,0,8.12,2.88,3.36,4.94,4.36,12.82,3.17,18.52-.62,2.94-1.92,6.8-4.24,8.87C72,102.25,67.11,97.83,64.92,94c-3.85-6.75-2.6-15-.44-22.1.56-1.85-2.33-2.65-2.9-.8Z"/><path class="cls-2" d="M94.75,57a34,34,0,0,0-1,14.26c.83,4.7,3.34,8.93,6.54,9.73a3.2,3.2,0,0,0,2.4-.25,6.11,6.11,0,0,0,1.93-2.16,22.47,22.47,0,0,0,2.48-14.5c-.8-5.05-1.85-9.4-5.09-11.26a2.86,2.86,0,0,0-2.34-.47c-.78.27-4.94,3.45-5,4.65"/><path class="cls-3" d="M93.3,56.61c-1.81,7.51-3,18.22,3.48,24,5.81,5.25,10.11-1.51,11.43-7,1.48-6.13,1.13-16.74-4.11-21.2-3.84-3.28-9.26-.29-10.8,4.13-.63,1.83,2.27,2.61,2.9.8.34-1,2.8-3.34,3.82-3.53,2.25-.4,3.64,2.74,4.28,4.45a26.07,26.07,0,0,1,1.17,13.8c-.33,1.64-.77,4.64-2.11,5.7-4.49,3.54-6.67-1.83-7.57-4.67C94.18,68,95,62.52,96.2,57.41c.45-1.88-2.44-2.68-2.9-.8Z"/><path class="cls-3" d="M92,92.59a10.44,10.44,0,0,1,1-5.44c.43-.9,1.3-1.86,2.27-1.56a2,2,0,0,1,1.12,1.61,6.17,6.17,0,0,1-2,5.78,1.21,1.21,0,0,1-.88.37c-.51-.07-1.43-.25-1.47-.76-.07-1.1.92-2.66,1.52-3.6"/><path class="cls-3" d="M93.54,92.59a8.91,8.91,0,0,1,.78-4.69c.09-.17.41-.77.54-.7.32.16.15,1.59.1,1.87a10,10,0,0,1-1.33,2.79c-.44-.18-.45-.06,0,.34a4.62,4.62,0,0,1,.37-.93,15.65,15.65,0,0,1,.91-1.52c1-1.64-1.56-3.14-2.59-1.51-1.26,2-3.11,5.49.24,6.44,2.92.83,5-2.58,5.38-5s-.53-6.48-3.8-5.48c-3.1,1-3.72,5.75-3.55,8.43.13,1.92,3.13,1.93,3,0Z"/><path class="cls-3" d="M73.28,56.51c1.81-3.85-3-8.07-5.92-10-1.94-1.32-3.77,1.79-1.85,3.1A14.94,14.94,0,0,1,68.27,52c.28.32,2,2.3,1.84,2.69-1,2.09,2.18,3.91,3.17,1.81Z"/><path class="cls-4" d="M74,56.71c1.46-3.66-1.5-7.05-4.13-9.27-1-.87-2.34-2.22-3.8-2A2.66,2.66,0,0,0,64,47.76c-.2,1.79,1.32,2.46,2.47,3.48a18.07,18.07,0,0,1,1.86,1.95,3.14,3.14,0,0,1,.88,2.32,2.57,2.57,0,0,0,4.75,1.38c.5-.82-.8-1.58-1.3-.75-.67,1.09-1.87.26-1.95-.63,0-.31.22-.64.18-1a3.15,3.15,0,0,0-.72-1.42,22.16,22.16,0,0,0-3.59-3.72c-.55-.47-1.64-1.09-.91-2,.47-.58,1.46-.13,1.91.11a11.92,11.92,0,0,1,2.5,2.1c1.78,1.77,3.54,4.1,2.51,6.69C72.2,57.21,73.65,57.6,74,56.71Z"/><path class="cls-3" d="M80.51,53.38c-1.36-3.88-5-11.83-2.15-15.53C79.79,36,76.61,34.22,75.19,36c-3.77,4.85,0,13.32,1.79,18.29.76,2.17,4.31,1.24,3.53-.95Z"/><path class="cls-4" d="M81.24,53.18a60.9,60.9,0,0,1-2.89-8.81A10,10,0,0,1,79,38.23c.24-.71.59-1.08.38-1.89a2.8,2.8,0,0,0-3-1.78c-1.92.26-2.83,2.48-3.24,4.12a16.16,16.16,0,0,0,.38,7.66c.64,2.62,1.42,6,2.81,8.37,1.56,2.62,5.41,1.66,4.91-1.53-.15-1-1.6-.55-1.45.4l-2.37-.22c-.15-.41-.3-.83-.46-1.25a12.09,12.09,0,0,1-.81-2.25,42.25,42.25,0,0,1-1.3-4.42,14.6,14.6,0,0,1-.37-5.92c.3-1.49.3-2.4,2-2.2s.92.3.46,1.53c-1.75,4.67,1.25,10.42,2.81,14.73C80.12,54.48,81.57,54.09,81.24,53.18Z"/><path class="cls-3" d="M89.84,49.76A33.89,33.89,0,0,1,96,36.22c1.4-1.87-1.78-3.66-3.17-1.82A36.49,36.49,0,0,0,86.3,48.8c-.48,2.26,3.06,3.22,3.54,1Z"/><path class="cls-4" d="M90.56,50a34.88,34.88,0,0,1,3.63-9.57c.83-1.46,3.21-3.62,2.91-5.45a2.7,2.7,0,0,0-2.58-2c-1.75,0-2.6,1.48-3.47,2.78a36.88,36.88,0,0,0-3.76,7.21c-.73,1.88-2.23,4.89-1.68,7a2.58,2.58,0,0,0,5,.12c.34-.91-1.11-1.3-1.44-.4q-2.57-.69-1.62-2.5c.17-.65.36-1.28.57-1.91a33.1,33.1,0,0,1,1.79-4.41,34.73,34.73,0,0,1,1.94-3.48c.55-.87,3.78-5,3.58-1.42,0,.78-1.81,2.62-2.24,3.36a33.54,33.54,0,0,0-1.81,3.53,36.3,36.3,0,0,0-2.21,6.83C88.9,50.5,90.35,50.9,90.56,50Z"/><path class="cls-3" d="M54.8,91.68A7.85,7.85,0,0,0,62,92.74c1.81-.64,1-3.54-.8-2.9a5,5,0,0,1-4.91-.75c-1.56-1.15-3,1.46-1.52,2.59Z"/><path class="cls-3" d="M57.71,98.46a7.37,7.37,0,0,0,6.5-.74c1.62-1,.11-3.63-1.52-2.59a4.53,4.53,0,0,1-4.18.44c-1.82-.66-2.6,2.24-.8,2.89Z"/><path class="cls-3" d="M61.62,104.36a13.64,13.64,0,0,0,6.72-2.55c1.54-1.13,0-3.74-1.51-2.59a10.71,10.71,0,0,1-5.21,2.14c-1.9.22-1.92,3.22,0,3Z"/><path class="cls-3" d="M107.41,70.36a3.5,3.5,0,0,0,4.84-2.42,1.5,1.5,0,0,0-2.89-.79s-.13.36-.07.22-.1.16-.12.18c.12-.17,0,0-.07.06s-.06.06,0,0l-.06,0s-.22.11,0,0c0,0-.37.11-.15.07s-.11,0-.16,0c.31,0-.1-.07.17,0a1.53,1.53,0,0,0-2.05.54,1.51,1.51,0,0,0,.53,2Z"/><path class="cls-3" d="M107.15,74.69a6.58,6.58,0,0,0,4.91-.32,1.51,1.51,0,0,0,.54-2.05,1.54,1.54,0,0,0-2-.54,3.47,3.47,0,0,1-2.61,0,1.5,1.5,0,0,0-.79,2.9Z"/><path class="cls-3" d="M105.73,79.29c2.13.82,5.29,1.94,7.11,0,1.31-1.41-.8-3.54-2.12-2.12-.39.42-1.06.18-1.56.07a17.11,17.11,0,0,1-2.64-.8c-1.8-.69-2.58,2.21-.79,2.89Z"/><path class="cls-3" d="M55.38,109.5,56.77,118a1.51,1.51,0,0,0,1.85,1A28.35,28.35,0,0,0,66,115.86c1.64-1,.13-3.6-1.52-2.59a25.2,25.2,0,0,1-6.69,2.91l1.84,1-1.38-8.53c-.31-1.9-3.21-1.1-2.9.8Z"/><path class="cls-3" d="M103,49.3a12.21,12.21,0,0,1,3-1.42c.84-.32,2-.55,2.51-1.35a1.51,1.51,0,0,0-.89-2.2,1.29,1.29,0,0,0-.48-.06,1.52,1.52,0,0,0-1.5,1.5,18.47,18.47,0,0,0,1,5.37c.71,1.77,3.61,1,2.9-.79a15.65,15.65,0,0,1-.95-4.58l-1.5,1.5-.32-.05L106,45c.55-.46.69-.61.42-.47.2-.08.21-.08,0,0a5.55,5.55,0,0,0-.52.2l-1.47.57a12.07,12.07,0,0,0-2.89,1.4c-1.52,1.16,0,3.76,1.51,2.59Z"/><path class="cls-3" d="M61.35,83.75c7.21-1.09,13.51-5.24,20.8-5.93.47,0,.48-.79,0-.75-7.36.69-13.73,4.86-21,6-.47.07-.27.79.2.72Z"/><path class="cls-3" d="M67.39,97.63c-.44-4.86-.88-9.71-1.24-14.57-.18-2.41-.35-4.83-.47-7.25-.05-1-.1-2-.13-3.07,0-.72,0-1.45-.06-2.18q.29-1.17-.51-.42c.08.48.8.28.73-.2l-.26-1.55c-.07-.43-.74-.32-.74.1.08,9.73,1.06,19.45,1.93,29.14,0,.47.79.48.75,0Z"/><path class="cls-3" d="M68.42,66.39c.73,11.42,1.8,22.84,2.93,34.23,0,.48.79.48.75,0C71,89.23,69.9,77.81,69.17,66.39c0-.48-.78-.49-.75,0Z"/><path class="cls-3" d="M73.32,65.68c.52,11.4,1.13,22.81,2.19,34.18a.38.38,0,0,0,.74.1,2.4,2.4,0,0,0,.21-1.67c0-.48-.79-.48-.75,0-.69-9.78-1.15-21.94-1.64-32.61,0-.48-.77-.48-.75,0Z"/><path class="cls-3" d="M78.9,72.56q.48,11.06,1.29,22.1c0,.48.79.48.75,0q-.82-11-1.29-22.1c0-.48-.77-.48-.75,0Z"/><path class="cls-3" d="M60.88,79.05q4.92-1.33,9.86-2.65c1.63-.43,8-1.16,9-2.5-.29.38.36.76.64.38l.47-.63c.21-.27-.13-.62-.42-.55q-9.89,2.55-19.73,5.22a.38.38,0,0,0,.2.73Z"/><path class="cls-3" d="M61.25,87.92q11.19-2.7,22.17-6.14c.46-.14.26-.87-.2-.72q-11,3.43-22.17,6.13a.38.38,0,0,0,.2.73Z"/><path class="cls-3" d="M63.91,94A63.31,63.31,0,0,0,73,90.77c3.34-1.49,6.46-3.78,10.11-4.37.48-.07.28-.8-.2-.72-2.89.46-5.2,1.95-7.78,3.25a61.28,61.28,0,0,1-11.42,4.33.38.38,0,0,0,.2.73Z"/><path class="cls-3" d="M66.88,98.47c5-2.68,10.22-4.74,15.18-7.42.42-.23,0-.88-.38-.65-5,2.68-10.22,4.74-15.18,7.42-.42.23,0,.88.38.65Z"/><path class="cls-3" d="M62.27,74.92c5.55-.28,10.94-3.06,16.18-4.69.46-.15.26-.87-.2-.73-5.16,1.61-10.52,4.39-16,4.67-.48,0-.48.77,0,.75Z"/><path class="cls-3" d="M93.63,66.06c4.77-.58,8.73-3.88,13.55-4.09.49,0,.49-.77,0-.75-4.85.22-8.78,3.51-13.55,4.09-.47.06-.48.81,0,.75Z"/><path class="cls-3" d="M96.78,76.53q-.11-5.53,0-11.09c0-3.35.89-7.81-.4-10.89.12.29.67.42.73,0l-.66-.15c.19.44.91.24.73-.2l0-.09c-.12-.29-.66-.41-.72,0l.65.16a.37.37,0,0,0-.73.1Q95.83,65.44,96,76.53a.38.38,0,0,0,.75,0Z"/><path class="cls-3" d="M98.61,53.93q0,11.64.33,23.27a.38.38,0,0,0,.75,0q-.31-11.62-.33-23.27a.38.38,0,0,0-.75,0Z"/><path class="cls-3" d="M101.77,53.57q-.15,13.59.17,27.18c0,.4.68.53.74.1l.18-1.36c.07-.47-.66-.67-.72-.2,1.1-8,.29-17.3.38-25.72a.38.38,0,0,0-.75,0Z"/><path class="cls-3" d="M105.17,57.2q-.14,9.63,0,19.27a.38.38,0,0,0,.75,0q-.09-9.63,0-19.27a.38.38,0,0,0-.75,0Z"/><path class="cls-3" d="M93.62,61.93q6.38-1.82,12.78-3.52l-.43-.55-.32.52c-.26.41.39.78.65.38l.32-.52a.38.38,0,0,0-.42-.55q-6.4,1.71-12.78,3.52a.37.37,0,0,0,.2.72Z"/><path class="cls-3" d="M93.5,69.66c4.86-1.18,9.64-2.59,14.38-4.19.45-.16.25-.88-.2-.73-4.74,1.61-9.52,3-14.38,4.2-.47.11-.27.84.2.72Z"/><path class="cls-3" d="M95,75.07a31.71,31.71,0,0,0,6-2.34c2.14-1.1,4.15-2.93,6.59-3.26.48-.07.27-.79-.2-.73-2,.27-3.45,1.46-5.12,2.44a32.22,32.22,0,0,1-7.42,3.17.37.37,0,0,0,.2.72Z"/><path class="cls-3" d="M98.71,78.61l8-5.17c.41-.26,0-.91-.37-.64l-8,5.16c-.4.26,0,.91.38.65Z"/><path class="cls-3" d="M96.17,57.23a19.8,19.8,0,0,0,7-.9c.46-.14.26-.87-.2-.72a19.6,19.6,0,0,1-6.76.87c-.48,0-.48.72,0,.75Z"/><path class="cls-7" d="M70.76,199.79A231.76,231.76,0,0,0,129.68,164L127.33,150a65.6,65.6,0,0,1-11.06,11.28,125.34,125.34,0,0,1-12.48,8.45c-7.47,4.61-26,14-33.54,18.52"/><path class="cls-3" d="M71.51,201.08a236,236,0,0,0,50.68-29.23q2.25-1.71,4.47-3.48c1.14-.92,3.71-2.3,4.31-3.64.41-.9,0-2.06-.15-3l-2-12.1a1.51,1.51,0,0,0-2.51-.66C111.88,167.22,89,175.54,69.49,187A1.5,1.5,0,0,0,71,189.58c19.73-11.58,42.81-20,57.38-38.48l-2.5-.66L127.67,161a8.68,8.68,0,0,1,.44,2.63c-.39,1.48.5-1.23-.84.37-3,3.51-7.84,6.23-11.56,8.9A236.81,236.81,0,0,1,70,198.49c-1.77.76-.25,3.34,1.51,2.59Z"/><path class="cls-4" d="M125.6,105.79a5.84,5.84,0,0,1-5.07-1.45,16.32,16.32,0,0,1-3.75-3.76,10.59,10.59,0,0,1-.77-3.43,2.55,2.55,0,0,1,4-2.72,6.43,6.43,0,0,1,2,2.26c.69,1.14.12,2.37.55,3.63.57,1.73,1.15,5.26,3,5.47"/><path class="cls-3" d="M125.3,104.71c-2.67.46-6.35-2.34-7.55-4.69a6.76,6.76,0,0,1-.65-3.51c.77-2.94,3.12-.65,3.65.23a4.89,4.89,0,0,1,.56,2.46c.16,2.45,1.2,7,4,7.68a1.13,1.13,0,0,0,.59-2.17c-1.35-.34-1.72-2.9-2-4.07-.45-1.78-.16-3.45-1.18-5-1.42-2.23-4.9-4.08-7-1.53-1.78,2.19-.68,6.28.94,8.23,2.29,2.75,5.52,5.22,9.24,4.58,1.43-.25.82-2.42-.59-2.17Z"/><path class="cls-4" d="M128.61,104.12c-2.51-3-4.37-8.36-3.1-11.8a7.48,7.48,0,0,1,3-3.6c1.14-.51,3,.18,3.93,1.34a6.94,6.94,0,0,1,.59,2.56,3.12,3.12,0,0,1-.88,1.94A25.35,25.35,0,0,0,128.76,99a5.11,5.11,0,0,0-.15,5.08"/><path class="cls-3" d="M129.41,103.32a14.53,14.53,0,0,1-3.17-7.92,6.24,6.24,0,0,1,1-3.9c1.73-2.61,5.93-1.41,4.4,1.92-1,2.19-3.31,3.53-4.21,5.89a6.44,6.44,0,0,0,.12,5.11c.53,1.33,2.71.75,2.17-.6-2.17-5.38,4.67-7,4.43-11.76a4.68,4.68,0,0,0-5.27-4.59c-3,.51-4.79,4.41-4.88,7.11-.12,3.75,1.59,7.43,3.83,10.34.89,1.14,2.47-.46,1.6-1.6Z"/><path class="cls-8" d="M135,101.72a1.5,1.5,0,0,0,0-3,1.5,1.5,0,0,0,0,3Z"/><path class="cls-7" d="M132.41,102.88c-.59-2.34,2.56-8.4,4.58-9.5s4.52-1,5.75,1.1a2.94,2.94,0,0,1-.13,4c-1.92,2-6-.94-10.2,4.35"/><path class="cls-3" d="M133.49,102.58c-.6-3.42,5.43-12.69,8.52-7.16a1.85,1.85,0,0,1-1.47,2.8c-.87.14-1.79.07-2.67.19a9.74,9.74,0,0,0-6.26,3.68c-.93,1.09.65,2.69,1.59,1.59a8,8,0,0,1,5.81-3.13,8.31,8.31,0,0,0,3.67-.65c2.85-1.68,2.17-5.45-.09-7.28-5.78-4.68-12.15,5.54-11.27,10.56.25,1.43,2.42.82,2.17-.6Z"/><path class="cls-2" d="M108.69,230.56a4.53,4.53,0,0,0,.59,4.77,22,22,0,0,0,.25-8.56,16.85,16.85,0,0,0-1,8.07"/><path class="cls-3" d="M107.4,229.8a6.22,6.22,0,0,0,.82,6.59,1.5,1.5,0,0,0,2.5-.66,25.19,25.19,0,0,0,.26-9.36c-.25-1.61-2.44-1.22-2.89,0a18.65,18.65,0,0,0-1,8.47c.2,1.9,3.21,1.92,3,0a16.69,16.69,0,0,1,.94-7.67h-2.89a21.1,21.1,0,0,1-.26,7.76l2.51-.66a3,3,0,0,1-.35-3c.74-1.76-1.84-3.29-2.59-1.52Z"/><path class="cls-2" d="M97.93,136.58c-3.66,1.21-4.6,4.22-5.09,7.12s1,6.48,2.89,8.54a7,7,0,0,0,6.73,2,7.31,7.31,0,0,0,3.65-1.72c2.73-2.51,3.29-8.27,1.21-12.32S101.66,135.44,97.93,136.58Z"/><path class="cls-3" d="M97.53,135.13c-11.11,4.45-5.8,24,6.31,20.35,5.41-1.65,7-7.82,5.91-12.86-1.35-6.08-6.29-9.06-12.22-7.49a1.51,1.51,0,0,0,.8,2.9c4.09-1.09,7.31.68,8.4,4.91.9,3.49.26,8.36-3.69,9.64-8.3,2.69-12.26-11.53-4.71-14.55C100.1,137.32,99.33,134.42,97.53,135.13Z"/><path class="cls-6" d="M99.71,140.4c-2.07.68-2.6,2.38-2.88,4a6.35,6.35,0,0,0,1.63,4.83,4,4,0,0,0,3.81,1.15,4.19,4.19,0,0,0,2.07-1c1.54-1.42,1.86-4.68.68-7S101.82,139.75,99.71,140.4Z"/><path class="cls-3" d="M76.89,161.76c0-2.47,0-4.93,0-7.4a4.67,4.67,0,0,1,1.64-3.84,16.52,16.52,0,0,0,1.65-1.38c.94-1.1-.65-2.7-1.59-1.59-1.48,1.73-3.37,2-3.84,4.5-.57,3.06-.08,6.6-.06,9.71a1.13,1.13,0,0,0,2.25,0Z"/><path class="cls-3" d="M112.44,127.68l2.86-1c1-.34,1.36-.44,1.59.64.47,2.12.79,4.28,1.18,6.42.26,1.42,2.43.82,2.17-.6L119.3,128a6.63,6.63,0,0,0-1-3c-1.56-2-4.7-.06-6.5.58-1.35.49-.77,2.66.6,2.17Z"/><path class="cls-3" d="M76.8,203.16a31.16,31.16,0,0,1,5.24-2.9c1.32-.57.18-2.51-1.14-1.94a30,30,0,0,0-5.23,2.9c-1.19.81-.06,2.76,1.13,1.94Z"/><path class="cls-3" d="M123.86,175.45l3.06-2.07c1.2-.8.08-2.75-1.13-1.94l-3.07,2.07c-1.19.8-.07,2.75,1.14,1.94Z"/><path class="cls-3" d="M75.25,216.38l.49,4.85a17.07,17.07,0,0,0,.62,4.15c.49,1.35,2.66.77,2.17-.6a17,17,0,0,1-.6-4.2l-.43-4.2c-.14-1.43-2.39-1.44-2.25,0Z"/><path class="cls-3" d="M78.29,220l1.22,3.57c.47,1.36,2.64.77,2.17-.6l-1.22-3.57c-.46-1.36-2.64-.77-2.17.6Z"/><path class="cls-3" d="M81.38,220.23l.52,1.51a1.15,1.15,0,0,0,1.39.79,1.14,1.14,0,0,0,.78-1.38l-.52-1.52a1.16,1.16,0,0,0-1.38-.79,1.14,1.14,0,0,0-.79,1.39Z"/><path class="cls-3" d="M125,189.33a11.49,11.49,0,0,0,.15,3.1,1.12,1.12,0,1,0,2.17-.59,9.17,9.17,0,0,1-.07-2.51,1.13,1.13,0,0,0-1.12-1.12,1.15,1.15,0,0,0-1.13,1.12Z"/><path class="cls-3" d="M126.94,187.3a10.79,10.79,0,0,1,.8,3.55c.07,1.44,2.32,1.45,2.25,0a12.83,12.83,0,0,0-.88-4.15,1.17,1.17,0,0,0-1.39-.79,1.13,1.13,0,0,0-.78,1.39Z"/><path class="cls-3" d="M129.35,181.79l1.34,7.33c.26,1.42,2.43.82,2.17-.6l-1.34-7.33c-.26-1.42-2.43-.82-2.17.6Z"/><path class="cls-3" d="M106.36,216.22a107.8,107.8,0,0,1,10.19,4.24c1.73.83,3.25-1.75,1.51-2.59a112.79,112.79,0,0,0-10.9-4.54c-1.83-.65-2.61,2.24-.8,2.89Z"/><path class="cls-3" d="M110.76,213.42l8.76,3.58c1.78.73,2.56-2.17.8-2.89l-8.76-3.58c-1.79-.73-2.57,2.17-.8,2.89Z"/><path class="cls-3" d="M78.29,119.83c2.74-.18,5.53.29,8-1A10.58,10.58,0,0,0,91,114.12c.83-1.73-1.76-3.26-2.59-1.51a7.79,7.79,0,0,1-3.64,3.64c-2,.91-4.35.44-6.45.58-1.92.12-1.93,3.12,0,3Z"/><path class="cls-3" d="M64.42,20.33c1.32,4.71,3,9.51,7.48,12.07,3.34,1.9,8.3,2.53,11.53.05C90.33,27.14,79.71,20,78,25.89a1.5,1.5,0,0,0,2.89.8c.09-.3.82.12,1,.17,2.28.76-.74,3.44-1.57,3.8-2.1.91-5,.22-6.89-.85-3.77-2.11-5-6.4-6.11-10.28a1.5,1.5,0,0,0-2.89.8Z"/><path class="cls-9" d="M67.63,21.46c-3.7,1.13-5.64,1.12-9.44,1.88-1.66.33-2.36.63-4,.26-.83-.19-1.28-.05-2-.53-.53-.39-1.23-2.26-.47-2.76a13.9,13.9,0,0,1,4.14-1.57c-.64-2.5-2.56-6.46-2.35-9a8,8,0,0,1,3.74-6.47c3.31-1.82,7.8,0,9.82,3.1s.55,6.72-.35,10.33C68,16.13,71,16.12,72,17s.55,2.64-.52,3.44a7.16,7.16,0,0,1-3.85,1"/><path class="cls-3" d="M67.23,20c-2.68.76-5.37,1.14-8.1,1.63-1.14.2-3.48.94-4.55.51-2.32-.93.42-1.61,1.72-2a1.53,1.53,0,0,0,1.05-1.85c-1.18-4.07-4.28-9.47-.22-12.95,2.49-2.14,6.07-1.49,8.14,1.06,2.37,2.94.89,6.61,0,9.81a1.52,1.52,0,0,0,1.85,1.85,5.85,5.85,0,0,1,2.31-.31q.68,2.67-1.84,2.16c-1.91.15-1.93,3.15,0,3,2.85-.24,7.22-1.46,6.33-5.35-.73-3.23-5.13-3.12-7.6-2.4l1.85,1.85c1.09-4.15,2.55-8.58-.42-12.31A9.65,9.65,0,0,0,59,1.11a8.46,8.46,0,0,0-6.6,6.55c-1,4,1,7.69,2.06,11.48l1-1.84c-1.77.48-4.76,1-5.43,3a4,4,0,0,0,1.41,4c1.58,1.14,4.2,1,6,.66A96.85,96.85,0,0,0,68,22.9a1.5,1.5,0,0,0-.8-2.89Z"/><path class="cls-3" d="M57,24.68c1.5,4.25,3,9,.44,13.2-1.06,1.76-2.85,3.37-5.07,3.19a3.27,3.27,0,0,1-1-.22,1.36,1.36,0,0,1-1.3-1.22Q48.79,38,51.74,38.32c1.35,1.38,3.47-.74,2.12-2.12-2.11-2.17-6.17-1.64-7,1.49s1.64,5.69,4.6,6.25c3.62.67,6.83-1.51,8.63-4.54,3-5,1.66-10.41-.14-15.52-.64-1.81-3.54-1-2.89.8Z"/><path class="cls-4" d="M60.71,15.41c-1-2.18-2.12-4.68-1.21-7,.7-1.8-2.2-2.58-2.89-.8-1.21,3.16.25,6.47,1.51,9.37.77,1.76,3.36.24,2.59-1.52Z"/><path class="cls-3" d="M131.37,118.29a12.54,12.54,0,0,0,9.14-4.57c1.2-1.49-.91-3.63-2.12-2.12a9.64,9.64,0,0,1-7,3.69c-1.92.12-1.93,3.12,0,3Z"/><path class="cls-3" d="M136.8,125.17a8.58,8.58,0,0,0,5.29-1.14,11.32,11.32,0,0,0,3.38-4c1-1.65-1.58-3.16-2.59-1.52a8.53,8.53,0,0,1-2.31,3,5.75,5.75,0,0,1-3.77.73c-1.92-.18-1.9,2.82,0,3Z"/><path class="cls-3" d="M138,133.18c4.83,3.74,10.24.07,12.08-4.89.68-1.82-2.22-2.6-2.89-.8-1,2.61-4.14,5.84-7.07,3.56-1.51-1.16-3.65.94-2.12,2.13Z"/><path class="cls-3" d="M137.06,140.05c1.09,2.17,2.55,4.63,4.56,6a9.08,9.08,0,0,0,7.06,1,1.5,1.5,0,0,0-.8-2.89c-4.27,1.13-6.56-2.29-8.23-5.62-.86-1.73-3.45-.21-2.59,1.51Z"/><path class="cls-3" d="M129.28,143c.43,4.44.53,9.53,5.28,11.49,1.78.74,2.55-2.16.79-2.89-3-1.27-2.81-5.9-3.07-8.6-.18-1.91-3.18-1.93-3,0Z"/><path class="cls-3" d="M83.22,13.79,90.39,3.13C91.47,1.52,88.87,0,87.8,1.62L80.63,12.28c-1.08,1.6,1.52,3.11,2.59,1.51Z"/><path class="cls-3" d="M87.47,20.52a34.76,34.76,0,0,1,9.73-7.1c1.73-.85.21-3.44-1.51-2.59A37.41,37.41,0,0,0,85.35,18.4c-1.34,1.39.78,3.52,2.12,2.12Z"/><path class="cls-3" d="M26.72,25.59A92.49,92.49,0,0,1,41.78,28.2c1.87.48,2.67-2.41.8-2.89a97,97,0,0,0-15.86-2.72c-1.92-.17-1.91,2.83,0,3Z"/><path class="cls-3" d="M30.28,10.55q7.28,5.58,14.53,11.18c1.52,1.18,3-1.43,1.51-2.59Q39.06,13.55,31.79,8c-1.53-1.18-3,1.43-1.51,2.59Z"/><path class="cls-4" d="M61,7.67a1.5,1.5,0,0,0,0-3,1.5,1.5,0,0,0,0,3Z"/><path class="cls-7" d="M45.45,151.06c-15.68,9-25.67,23.72-25.34,37.36.07,3.1-.18,5.08,1.88,6.47.73.48,5.63.57,6.66.32,2-.48,3.4-1.56,3.38-3-.08-6.61.32-12.13,4.26-18.51a42.64,42.64,0,0,1,6.31-6.88c4-3.59,6.49-5,11.16-8.07,1.34-.89,2.7-2,3-3.22S56,153,54.94,152a9.62,9.62,0,0,0-3-2.2c-1.24-.51-5.15.64-6.53,1.27"/><path class="cls-3" d="M44.7,149.77c-11.52,6.81-22.06,17.33-25.22,30.74-.94,4-2.35,10.89.36,14.39,2.08,2.69,7.71,2.54,10.56,1.29a4.78,4.78,0,0,0,3.08-3.61c.83-4.09.06-8.21,1.39-12.34,2.47-7.7,9-13.23,15.56-17.56,3.65-2.43,10.43-5.54,6.55-10.69-3.29-4.37-7.18-4.31-11.93-2.37-1.76.72-1,3.62.8,2.89,1.95-.8,5.34-2.18,7.15-.28,2.79,2.9-1.08,5.89-3.46,7.45a63.06,63.06,0,0,0-9.87,7.82,29.05,29.05,0,0,0-7.09,10.25A28.73,28.73,0,0,0,31,184c-.3,2,.11,4.69-.44,6.6-.8,2.83-3.2,3.84-5.85,3.25-1.94-.44-2.31.6-3-2.63a14,14,0,0,1-.06-2.75,32.17,32.17,0,0,1,3-13.61c4.45-9.67,12.54-17.11,21.58-22.45a1.5,1.5,0,0,0-1.51-2.59Z"/><path class="cls-7" d="M25.1,201.31c-3.9-.93-10.18,3.3-11.76,7.38a8.1,8.1,0,0,0,.24,4.74,4,4,0,0,0,3,2.74,4.34,4.34,0,0,0,3.92-1.71,9,9,0,0,0,1.63-4.05,22,22,0,0,0,.34-5.06,6.39,6.39,0,0,1,.24-2.89,1.94,1.94,0,0,1,2.4-1.15"/><path class="cls-3" d="M25.4,200.22c-6.85-1.14-15.14,6.07-13,13.15,1.09,3.61,5,5.16,8.05,2.71A8.18,8.18,0,0,0,23,211.57a20.68,20.68,0,0,0,.54-3.68c.05-.83-.37-5.79,1.24-5.5,1.42.26,2-1.91.6-2.17a3.19,3.19,0,0,0-3.78,1.94c-.55,1.33-.26,2.82-.26,4.21a13.78,13.78,0,0,1-1,6.13c-.86,1.69-3.24,4.42-5.43,1.14a5.89,5.89,0,0,1-.68-3,6.58,6.58,0,0,1,2.15-4.43c2-2.13,5.35-4.32,8.44-3.81,1.42.24,2-1.93.6-2.17Z"/><path class="cls-4" d="M29.24,201.09a43.14,43.14,0,0,0-2.64,6.39c-.6,1.88-1.07,4-.41,5.84A5.46,5.46,0,0,0,28.3,216a4.58,4.58,0,0,0,3.53.77,3.75,3.75,0,0,0,2.7-2.51c.51-1.66-.14-3.45-.78-5-1.12-2.82-3.38-5.28-4.51-8.09"/><path class="cls-3" d="M28.27,200.52c-1.73,3.48-4.18,8.13-3.4,12.15a6.4,6.4,0,0,0,6.5,5.24,5,5,0,0,0,4.42-5.72c-.42-4.38-3.85-7.8-5.58-11.67-.59-1.32-2.53-.17-1.94,1.14,1.36,3,8.1,11,3.81,13.39s-5.36-3.47-4.68-6.31a34.82,34.82,0,0,1,2.81-7.08c.65-1.29-1.29-2.44-1.94-1.14Z"/><path class="cls-4" d="M33.17,198c0,3.95,3.33,7.91,5.7,9.26a10.42,10.42,0,0,0,7.94,1.08,1.82,1.82,0,0,0,.8-.39,1.66,1.66,0,0,0,.36-1.3,5.82,5.82,0,0,0-3-4.4,13.92,13.92,0,0,0-5.34-1.6A14.24,14.24,0,0,1,33.17,198"/><path class="cls-3" d="M32,198a13.16,13.16,0,0,0,5.2,9.5c2.55,1.95,7.54,3.5,10.54,1.62,2.81-1.78.6-5.66-1.38-7.22a12.47,12.47,0,0,0-5.57-2.2,18,18,0,0,1-7.1-2.67c-1.21-.8-2.33,1.14-1.13,1.94a16.79,16.79,0,0,0,5.8,2.61c2.26.48,7.81.85,8.11,4,.37,3.79-6.43,1.26-8,0a10.75,10.75,0,0,1-4.2-7.61c-.08-1.44-2.33-1.45-2.25,0Z"/><path class="cls-7" d="M19.09,197.05c-3.64-1.7-8.72-.45-11,1.07a10,10,0,0,0-4.41,6.56,1.71,1.71,0,0,0,0,.87,1.71,1.71,0,0,0,1,.89,6.1,6.1,0,0,0,5.35-.79,13.88,13.88,0,0,0,3.78-4,14,14,0,0,1,5.2-4.56"/><path class="cls-3" d="M19.39,196a13.6,13.6,0,0,0-10.72.55c-2.88,1.39-6.44,5.1-6.09,8.59s4.83,3.1,7.15,2a11.48,11.48,0,0,0,4-3.45c1.83-2.31,3.27-4.16,5.88-5.66a1.12,1.12,0,0,0-1.13-1.94,16.76,16.76,0,0,0-4.9,4c-1.46,1.81-5.2,7.68-7.85,4.79-1-1.06-.74-1.32-.06-2.56a9.44,9.44,0,0,1,1.45-1.94,8.74,8.74,0,0,1,3.21-2.12,11.4,11.4,0,0,1,8.42-.11c1.34.54,1.93-1.64.6-2.17Z"/><path class="cls-3" d="M20.6,188.62a33.68,33.68,0,0,1,10.88.35c1.88.4,2.68-2.41.8-2.89l-.7-.18c-1.88-.48-2.67,2.41-.8,2.89l.7.18.8-2.89a36.06,36.06,0,0,0-11.68-.46c-1.89.23-1.91,3.23,0,3Z"/><path class="cls-3" d="M23.36,177.87a26.07,26.07,0,0,1,5.79,0c1.61.19,3.17.84,4.77.95a1.51,1.51,0,0,0,1.44-1.9l0-.08a1.52,1.52,0,0,0-1.44-1.1h-.11c-1.91.17-1.93,3.17,0,3h.11l-1.45-1.1,0,.08,1.45-1.9c-1.62-.11-3.29-.8-4.93-1a27.88,27.88,0,0,0-5.63,0c-1.91.17-1.93,3.18,0,3Z"/><path class="cls-3" d="M29.33,166.71a29.11,29.11,0,0,1,5,2.66c1,.66,2.38,2.39,3.66,2.26a1.53,1.53,0,0,0,1.45-1.9l0-.1a1.52,1.52,0,0,0-1.84-1l-.07,0c-1.84.59-1.05,3.49.79,2.9l.07,0-1.84-1,0,.1,1.45-1.9c.62-.07.2-.12-.21-.44l-.81-.62c-.74-.54-1.5-1-2.28-1.52a33.62,33.62,0,0,0-4.55-2.23c-1.78-.74-2.56,2.16-.8,2.89Z"/><path class="cls-3" d="M37.75,158.65A14.7,14.7,0,0,1,43,163.34c1.08,1.58,3.68.09,2.59-1.52a18.1,18.1,0,0,0-6.29-5.76c-1.7-.92-3.21,1.67-1.52,2.59Z"/><path class="cls-3" d="M44.66,153.45a17.15,17.15,0,0,1,3.39,2.86A15.43,15.43,0,0,1,49.39,158c.17.25.34.51.5.77s.44,1.21.56.35l1-1.05-.15,0,1.7.69-.07-.11a1.5,1.5,0,0,0-2.59,1.52l.07.1a1.52,1.52,0,0,0,1.69.69l.15,0a1.44,1.44,0,0,0,1-1c.25-1.76-1.37-3.55-2.42-4.84a20.38,20.38,0,0,0-4.74-4.19c-1.63-1.06-3.13,1.54-1.52,2.59Z"/><path class="cls-3" d="M85.41,50.74a16.41,16.41,0,0,1,.67-9.2c.8-2.18-2.74-3.12-3.54-.95a19.92,19.92,0,0,0-.67,11.11c.48,2.26,4,1.3,3.54-1Z"/><path class="cls-4" d="M86.13,50.54c-.61-3.19,0-5.72.67-8.8a2.31,2.31,0,0,0-.73-2.54c-2.59-2.08-4.31,1-4.84,3.13a20.69,20.69,0,0,0-.49,7c.13,1.32.13,3.19,1.35,4,1.89,1.3,4.28-.5,4.07-2.59-.1-1-1.61-1-1.5,0,.13,1.29-1.3,2-2.07.76-.54-.9-.43-2.75-.45-3.81,0-1.61,0-6.79,1.8-7.43,2.39-.84.62,3.86.48,5a18.25,18.25,0,0,0,.26,5.71C84.86,51.89,86.31,51.49,86.13,50.54Z"/><path class="cls-4" d="M73.69,145.57q-2.14-1.11-4.34-2.14c-3.33-1.58-6.72-3-10.16-4.3l-16.51-4.74a1.86,1.86,0,0,0-2.32,1.73c0,.37-.09.74-.13,1.11a129.55,129.55,0,0,1,27.51,9.42c1.37.65,2.74,1.32,4.1,2C73.92,149.76,75.78,146.66,73.69,145.57Z"/><path class="cls-4" d="M24.59,67.26a67.27,67.27,0,0,1,16.75,1.15c1.88.37,2.69-2.52.79-2.9a70.67,70.67,0,0,0-17.54-1.25c-1.92.1-1.94,3.1,0,3Z"/><path class="cls-4" d="M31.16,72.35a30.4,30.4,0,0,1,8.92.82c1.88.46,2.68-2.44.8-2.89a33.48,33.48,0,0,0-9.72-.93c-1.92.09-1.93,3.09,0,3Z"/><path class="cls-4" d="M36.22,77.9a5.94,5.94,0,0,1,3.15.31,1.5,1.5,0,1,0,.8-2.9A9.23,9.23,0,0,0,35.42,75a1.52,1.52,0,0,0-1.05,1.85,1.54,1.54,0,0,0,1.85,1.05Z"/><path class="cls-4" d="M49.12,218.09a149.84,149.84,0,0,1,16.75,7c1.72.85,3.24-1.73,1.51-2.59a157.22,157.22,0,0,0-17.46-7.35c-1.83-.64-2.61,2.26-.8,2.89Z"/><path class="cls-4" d="M62,216.46l3.89,2c1.72.86,3.24-1.72,1.52-2.59l-3.89-2c-1.72-.87-3.24,1.72-1.52,2.59Z"/><path class="cls-4" d="M28.32,114.93l19.58,4.72c1.88.45,2.68-2.44.8-2.89L29.12,112c-1.87-.45-2.68,2.44-.8,2.89Z"/><path class="cls-4" d="M28.05,109.23l5.42,1.25c1.88.44,2.69-2.45.8-2.89l-5.42-1.25c-1.88-.43-2.68,2.46-.8,2.89Z"/><path class="cls-4" d="M100.38,112.14a26.77,26.77,0,0,1,12.15,4.74c1.59,1.11,3.09-1.49,1.52-2.59a30,30,0,0,0-13.67-5.15c-1.91-.24-1.89,2.76,0,3Z"/><g class="cls-10"><path class="cls-11" d="M48.21,227.67c7.55,3.3,17.53,10.05,26.09,7.46,1.84-.55,1.06-3.45-.8-2.89C66,234.5,56.44,228,49.72,225.08c-1.75-.76-3.28,1.82-1.51,2.59Z"/></g><g class="cls-10"><path class="cls-11" d="M109.74,217.63a29.44,29.44,0,0,1,6.06,3.12c1.61,1.07,3.11-1.53,1.51-2.59a31.88,31.88,0,0,0-6.77-3.42c-1.81-.67-2.6,2.23-.8,2.89Z"/></g><g class="cls-10"><path class="cls-11" d="M110.15,215.24a23.18,23.18,0,0,1,5.45.54c1.88.42,2.68-2.47.8-2.89a26.81,26.81,0,0,0-6.25-.65c-1.93,0-1.93,3,0,3Z"/></g><g class="cls-10"><path class="cls-11" d="M113.22,210.77l3.86,1.12a1.5,1.5,0,0,0,.8-2.89L114,207.87c-1.85-.54-2.65,2.36-.79,2.9Z"/></g><g class="cls-10"><path class="cls-11" d="M118,211.36l9-8c1.44-1.29-.69-3.4-2.12-2.13l-9,8c-1.45,1.29.68,3.4,2.12,2.12Z"/></g><path class="cls-12" d="M159.78,10.9q-7,16.53-15.06,32.55a126.54,126.54,0,0,0,21.46,1.74L152.77,74c7.4-4.14,13.78-9.84,20.1-15.5l22.27-19.94a76.32,76.32,0,0,0-20-8.75l14.33-15.73a79.28,79.28,0,0,0-30.22-3.43"/><path d="M158.49,10.14q-7,16.53-15.07,32.55a1.51,1.51,0,0,0,.9,2.2,141.68,141.68,0,0,0,21.86,1.8l-1.29-2.26L151.48,73.25a1.51,1.51,0,0,0,2.05,2c15.86-9.17,29.11-23.53,42.67-35.67a1.51,1.51,0,0,0-.31-2.35,83.26,83.26,0,0,0-20.37-8.91l.67,2.51,14.32-15.73a1.52,1.52,0,0,0-.66-2.51,84.58,84.58,0,0,0-30.62-3.48c-1.91.13-1.93,3.13,0,3a82.18,82.18,0,0,1,29.82,3.37l-.66-2.5L174.06,28.76a1.52,1.52,0,0,0,.67,2.5,80.6,80.6,0,0,1,19.65,8.61l-.3-2.36c-13.38,12-26.44,26.16-42.06,35.2l2,2.05L167.48,46a1.52,1.52,0,0,0-1.3-2.26A136.35,136.35,0,0,1,145.12,42l.89,2.2q8.07-16,15.07-32.55c.74-1.75-1.84-3.29-2.59-1.51Z"/><path class="cls-13" d="M234,96.34q-18.15,10.14-35.56,21.55a146.87,146.87,0,0,1-4.78-24.51L162.2,112.54c3.82-9.05,9.56-17.14,15.26-25.14l20.11-28.22A88.58,88.58,0,0,1,210.23,81.1l16.28-18.53a91.83,91.83,0,0,1,7.84,34.37"/><path d="M233.25,95q-18.13,10.18-35.56,21.55l2.2.9a156.86,156.86,0,0,1-4.72-24.11,1.51,1.51,0,0,0-2.25-1.29l-31.47,19.16,2.05,2c4.08-9.36,9.92-17.65,15.82-25.93l19.54-27.44-2.36.31A91,91,0,0,1,208.78,81.5a1.52,1.52,0,0,0,2.51.66l16.28-18.53-2.36-.3a93.6,93.6,0,0,1,7.64,33.61c.08,1.93,3.08,1.94,3,0a97.68,97.68,0,0,0-8-35.13,1.5,1.5,0,0,0-2.35-.3L209.17,80l2.51.66a96.71,96.71,0,0,0-13.05-22.59c-.65-.83-1.87-.38-2.36.31L176.73,85.86c-5.9,8.28-11.74,16.57-15.82,25.93-.56,1.27.65,2.9,2.05,2l31.47-19.16-2.26-1.3A162.36,162.36,0,0,0,197,118.29a1.52,1.52,0,0,0,2.21.89q17.41-11.36,35.55-21.55c1.69-.94.18-3.53-1.51-2.59Z"/></g></g></svg>