<svg xmlns="http://www.w3.org/2000/svg" viewBox="0 0 492 170.88"><defs><style>.cls-1{fill:#1d76b8;}.cls-2{fill:#f7c402;}.cls-3{fill:#ffda83;}.cls-4{fill:#fff;}.cls-5{fill:#e1262f;}.cls-6{fill:#e66869;}.cls-7{fill:#4386c6;}.cls-8{fill:#7dc4ca;}</style></defs><title>Mini marco teorico refuerzo - Mblock</title><g id="contenido"><path class="cls-1" d="M486.23,85.29c.35,1.6.15-.54-.06-2.51C486.24,83.62,486.21,84.46,486.23,85.29Z"/><path class="cls-1" d="M486.17,82.78,486,81A16.58,16.58,0,0,0,486.17,82.78Z"/><path class="cls-1" d="M480.62,67.29a27.09,27.09,0,0,1,3,5.11c.41.87.74,1.73,1.08,2.49a20,20,0,0,0,.88,2,24.85,24.85,0,0,0-2.4-6.11,23.53,23.53,0,0,0-1.51-2.34A5.62,5.62,0,0,0,480.62,67.29Z"/><path class="cls-1" d="M483.22,72.4l.42.33c-.6-1-1.18-1.9-1.86-2.79C482.31,70.73,482.76,71.56,483.22,72.4Z"/><path class="cls-1" d="M484,74.67l-.1-.47L483.31,73l-.62-1.14c-.4-.76-.88-1.48-1.34-2.21.49.8,1,1.6,1.4,2.45S483.58,73.81,484,74.67Z"/><path class="cls-1" d="M472.3,57.45c.94.86,1.88,1.73,2.77,2.64,2.25,2.8-1.94-1.4-.45.47a11.8,11.8,0,0,0,2.49,2.26,4.52,4.52,0,0,1,.93.81A18.58,18.58,0,0,1,479.92,66a6.92,6.92,0,0,0-.89-1.44c-.57-.71-1.25-1.65-2-2.47-1.43-1.7-2.88-3.14-2.36-3C471.17,55.51,474.32,59.15,472.3,57.45Z"/><path class="cls-1" d="M254,6.68l-.53,0A1.17,1.17,0,0,0,254,6.68Z"/><path class="cls-1" d="M191.82,9c-.86,0-1.71.07-2.54.11a8.63,8.63,0,0,0,1,0Z"/><path class="cls-1" d="M293,7.29l2.45.29A16.8,16.8,0,0,0,293,7.29Z"/><path class="cls-1" d="M64.09,138.61a.64.64,0,0,0-.35,0l.1,0,.69.13Z"/><path class="cls-1" d="M123,19.12c-1,.19-1.9.41-2.73.61C121.87,19.4,122.64,19.23,123,19.12Z"/><path class="cls-1" d="M315.41,9.13,314.47,9l1.15.16-.17-.06Z"/><path class="cls-1" d="M212.13,8.41c-.85,0-1.61,0-2.26.05C210.64,8.46,211.39,8.44,212.13,8.41Z"/><path class="cls-1" d="M421.79,29.18a22,22,0,0,0-2.62-.89A15,15,0,0,0,421.79,29.18Z"/><path class="cls-1" d="M400.42,22.44l.13,0C400.44,22.38,400.37,22.37,400.42,22.44Z"/><path class="cls-1" d="M386.58,18.78l.25,0C386.68,18.75,386.59,18.72,386.58,18.78Z"/><path class="cls-1" d="M419.17,28.29c-1.69-.77-2-1.54-4.51-1.66l.43.23a45.45,45.45,0,0,0-5-1.47,4.54,4.54,0,0,0,.53.33c.8.25,1.84.61,3.45,1.18A38.11,38.11,0,0,0,419.17,28.29Z"/><path class="cls-1" d="M254.23,6.56c.21.13,1.71.08,0,0Z"/><path class="cls-1" d="M273.44,6.55l-1.89-.1C272.15,6.5,272.75,6.55,273.44,6.55Z"/><path class="cls-1" d="M345.44,13.42l-.34-.08C345,13.39,345.27,13.43,345.44,13.42Z"/><path class="cls-1" d="M269.81,6.39l1.74.06A15.83,15.83,0,0,0,269.81,6.39Z"/><path class="cls-1" d="M324,10.18l-.29,0A1.41,1.41,0,0,0,324,10.18Z"/><path class="cls-1" d="M359.36,159.16c-1.44.32-2.31.3-3.69.49-3,1,6.32-1.11,1.95.06,1.35-.25,2.41-.49,3.4-.73l-2-.06C356.36,159.55,360.83,158.74,359.36,159.16Z"/><path class="cls-1" d="M81,145.43l-.59-.22c.35.3,0,.24,2.23,1,2,.34-.88-1,2.63-.27-.67-.16-1.65-.48-2.57-.81C84,145.86,82.55,145.69,81,145.43Z"/><path class="cls-1" d="M82.68,145.18l-.09-.05a4,4,0,0,0-.47-.25c-.49-.16-1-.32-1.34-.47A15.51,15.51,0,0,0,82.68,145.18Z"/><path class="cls-1" d="M311.15,165.48l-1.63.11A8.54,8.54,0,0,0,311.15,165.48Z"/><path class="cls-1" d="M126.4,13.12l1.91-.49A14.16,14.16,0,0,0,126.4,13.12Z"/><path class="cls-1" d="M48.84,132.54c-.48-.27-1-.53-1.53-.82l-1-.46Z"/><path class="cls-1" d="M160.35,157.74c-1.28.31.93.08,3.32.66l2.28,0C163.89,158.11,162,157.93,160.35,157.74Z"/><path class="cls-1" d="M361.17,159a0,0,0,0,1,0,0l-.17,0Z"/><path class="cls-1" d="M227.31,162.7l1.1.09C228.19,162.76,227.84,162.73,227.31,162.7Z"/><path class="cls-1" d="M69.9,140.69q-4.09-1.49-8.13-3.12l2.32,1C65.3,138.83,68.66,140.56,69.9,140.69Z"/><path class="cls-1" d="M124,151.55l-.7-.43c-8.55-1.08-17.93-4.18-24.73-5.1-4.92-1.83-6.61-2.1-8.22-2.31a25,25,0,0,1-7.56-2.24l.27.23c-15-4.79-30.11-10.83-43.71-18.8a98.08,98.08,0,0,1-18.51-13.74C15.57,104,11.28,97.93,9.56,91.41h.21a24.92,24.92,0,0,1-.66-7.92A26.45,26.45,0,0,1,11,75.75a41.75,41.75,0,0,1,9.32-13.53A83.46,83.46,0,0,1,33.55,51.54a141,141,0,0,1,15-8.57,237,237,0,0,1,32.33-12.9c11.1-3.58,22.43-6.54,33.93-9,4.24-1.12,1.56-1,5.23-2,1.61-.34,5.26-1.07,5.33-.84-3.11.75-1.3.62-2.35.92,5.18-1.09,12-2,16.58-3.09l-4,.35c1.79-.46,4.66-.82,6.3-1.09-.67.27,1.78.23.37.53a45.15,45.15,0,0,1,8.56-1.48,52.13,52.13,0,0,0,7.45-.84c1.57-.9,11.95-2.76,18.82-3.9l3.65-.18c-4.83.47.13.47-5.85,1,5-.31,9.61-1.05,14.35-1.32-.94-.09-.72-.33,1.17-.56,2.92-.15,3.2.19,6.52,0L193.71,9a46.22,46.22,0,0,0,6.14-.56c.69.24,5.65,0,4.79.35,4.44-.64,6-.5,10.84-1-5-.06,1.27-.44.7-.63l-5.64.37c8-.18-2.59.16-2,.63-3.76,0,5.09-1.07-1.17-.65,7.48-.63,9.07-.49,16.73-1.14-4.63.23.87-.33-1.62-.41,5.88-.19,1.47.13,3.29.38,3.2-.11,4.38.16,7.32-.26,5.19.06-.77.36,1.85.52-.95.17-4.56.15-7.75.21s-6,.25-5.24.75c-2.7.11-6,.63-9.86.8,3.4,0,8.26.12,12.45-.24l.2-.6c3.19-.11,3.83-.52,6.14-.52-1.22.2,1,.4,3.56.31-.74-.08-1.76,0-1.48-.15,4.75-.11,5.41-.54,11.07-.67-4.67-.14-5.64-.29-10-.5,1.17-.43,3.08-.1,5.66-.18-.39.06-.92.08-.17.15l2.74-.21c5.84.15-.72.6,4.08.79,3.32.36,4.55-.19,7.1,0L253,6.52l1.26,0s0,0,0,0c3.09,0,6.41.07,7.3-.21a21.59,21.59,0,0,0,3.71-.06c1.73-.07,5.88-.32,8.43.29h-.19c3.85.19,6.84.51,6,.64q3.1.19,6.21.44L285,8a64.33,64.33,0,0,0,9-.22c4,.52,11.12.88,13.8,1,.45.05,1.13.12,2.25.2l-2.34-.38c4.4.42,3.89.16,6.79.45-.6-.1-.68-.13.94.09l1.66.2a8.8,8.8,0,0,1-1.45-.13l.52.19c3.47.8,5.42.32,9.16.91-.36,0-1-.07-1.35-.12,2.1.36,5.06,1.28,6,1.06a10.92,10.92,0,0,0,2,.14l1.54.25-1.52-.25a9.85,9.85,0,0,1,2,.08l5.37.81c1,.21,2.4.36,3.53.47l.89.3c2,.26,2,.38,1.72.38,6.69,1.63,10.53,1.39,17.73,3.24,1.45,0-1.54-.7-1.75-.9,1.18,0,5.39.6,7.5.88,3.18,1,13,3.52,11.28,3.72,5.94,1.43-1.77-.76,1.25-.26l.68.18a38.56,38.56,0,0,1-4.73-1.55c-.38-.41,4.91.7,6.5,1.17l-1.23.16c5.53,1.15,4.53.26,8.05.69,4.32,1.29,1.71,1,2.54,1.63l4.59,1.12-.09.31a67.75,67.75,0,0,1,7.78,2c-1.51-.29,0,.24,1.35.73s2.56,1,.48.56c2.21.81,3.05.41,4.07,1.18,1.66.18-2-.8-3.07-1.25-.77-.77,5,1.31,7.73,2.11.14.32-1.88-.32,1.21.92a14.43,14.43,0,0,1,4.46,1.45c.11-.31,3.56,1.24,5.31,1.94-2-.81-4.75-2.11-3.35-1.89a53.19,53.19,0,0,1,6.44,2.33l-2.36-1.1c3.25.78,4.94,2.31,9.1,4-1.8-.59-2.89-1-4.5-1.46,2,.66,5.79,2,8.85,3.31l3.2,2.06c.53,0,3.78,1.93,3.92,1.66,2,1.21,1.14.84-.3.18a36,36,0,0,0-3.76-1.55,47.58,47.58,0,0,0,4.74,2.3,21.71,21.71,0,0,1,4.4,2.53l-1.78-.66a58.22,58.22,0,0,1,5.05,3A8.45,8.45,0,0,0,455,46.93a5.75,5.75,0,0,1,1.75.64c.76.39,1.66.89,2.51,1.36,1.68,1,3.16,1.84,3.06,1.37l-2.14-1.49c3.41,2.09,6,3.46,8.22,5.59,1.69,1.67-1.55-.73-2.79-1.4a16.51,16.51,0,0,0,3,1.9,13.34,13.34,0,0,1,3.28,2.41c-1.7-1.65-1.21-1.53,0-.71-1.88-1.86-6.18-5.28-5.58-4.47l.71.63a13.59,13.59,0,0,1-2.08-1.18c-2.9-2.08-1.18-1.22-1.69-1.74-2.43-1.73-2.63-1.64-2.77-1.53s-.24.26-2.52-1.2l-.53-.49c-2.31-1.22-5.82-3.19-6.65-3.16-1.88-1.51-5.49-2.72-7.72-4.05,0-.53,2.06.47,4.47,1.79s5.14,3,6.6,3.53c-2.37-1.58,1.65.42,2.77.88-2.63-1.46-5.33-2.79-8-4.08a14.62,14.62,0,0,0-4.33-2.48l.63.33c-3.26-1.46-2.55-.71-5.3-2.11-.4-.28.52,0,.77,0-2.55-1.27-2.25-.78-4-1.47-2.57-1.21,1.46.22-.68-.83-3.17-1-4.77-2.1-7.45-3.12.48.46-2.24-.38-4.38-1s-3.7-1-.89.29q-3.27-1-6.55-1.92c-1.93-1,4.68.81,3.05-.23,1.71.62,3.42,1.23,5.12,1.88-.31-.48-3-1.37-6.08-2.32a57.85,57.85,0,0,1-8-2.85c-2.77-.9-2.11-.61-7.31-2.5l.74.84c-2.71-.93-3.51-1.48-3.61-1.62-1.62-.43-3.08-.83-4.58-1.26a10.44,10.44,0,0,1,2,.33,7.68,7.68,0,0,0-3.4-1,44.3,44.3,0,0,1-4.61-1.06l1.62.19a12.8,12.8,0,0,0-2.54-.41q-1.08-.27-2.07-.45a22.73,22.73,0,0,0,3.95,1.6c-6.37-1.85-11.46-2.87-16.92-4.53.25-.13,2.61.15,1.92,0-2.77-.67-5.85-1-5.65-.69l-1.54-.28a9.43,9.43,0,0,0-2.45-.83,12.75,12.75,0,0,0-1.74-.45c-1,.28-6.33-.94-7.54-.92,1.26.28,2.81.54,4.38.82a23.74,23.74,0,0,1-6.07-.66c4.23.43-4.38-1.25,1.94-.29-4.33-1.36-2.38,0-7-1l-3-.71c.52-.28,4.95.6,4.26.37l-2.12-.3c2.16.07,10.08,1.56,15,2.14-3.26-.69-6.52-1.33-9.78-1.95C342,9.43,326.53,7,315.85,6.68l.45,0a.74.74,0,0,0-.44.18l-.47-.13-2.12.05c-2.35-.56-6.81-1-10.59-1.59,2.37.41,2.37.41,2.58.68-.5.31-.88.42-4.41,0,0-.25,2.17-.07-.43-.47,1.34.23.12.29-1.43.22-2-.31-5.31-.59-5.33-.83a14.68,14.68,0,0,1,2.29.22c.93,0-3.74-.49-1-.5l-3.62-.16c-2.09-.34,1.42-.23.59-.42-6-.22-9.13.19-14.57.11.26-.12.34-.67.28-.51-4.18-.35-9,.24-13.76.16.7-.15,2.48,0,3.92-.06-14.57-.64-26.5-.63-40.2-.84l-3.54.67-3.58-.26c-14.41.18-25.44,1.25-39.05,2.66-4.25.44-2.59-.14-4.6-.1-9.33.91-11.53,1.8-20.35,3.08,1.19-.34,3.2-1.1-.61-.6a9.42,9.42,0,0,1-3.53.8l1.2-.34c-2.24.06-4.32.6-8.88,1.19a169.59,169.59,0,0,0-22,5c-7,1.38.61-.75-.75-.59,5-.78,3.43-.78,4.47-1.18-2.6.67-5.75,1.39-7.18,1.3a87.36,87.36,0,0,0-8.85,2.21c1.78-.56,3.39-.67,1.73-.13-3,.52-10.53,2.51-10.24,1.93-17.13,4.4-36.17,10.24-53.42,18.48-2.78,1.64,2.24-1,.73,0-4.06,2.33-3.4,1.45-6.62,3.4.41-.33.84-.63,1.25-1a95.41,95.41,0,0,0-14.2,9.2c.56-.78-3.81,2.32-.21-.4a21.71,21.71,0,0,1-3.79,1.93,10.69,10.69,0,0,0-3.25,2c1-.32,2.12-.56,3.17-.84A11.52,11.52,0,0,1,24,52.45a7.71,7.71,0,0,0-1.18,1,39.6,39.6,0,0,0-5.46,4.12c-.4.16.15-.46,1-1.3s2.07-1.87,2.92-2.6c-.06-.33-1.54.86-2.74,1.81s-2.07,1.76-1,.44c-3.44,3.45.67-.3-1.26,1.89l-1.51,1.48L13.3,60.86c.77-.78,1.54-1.56,2.35-2.29-.59.66-1.05,1.24-1.46,1.79s-.8,1-1.18,1.6-.81,1.12-1.33,1.77-1.11,1.42-1.84,2.37a44.8,44.8,0,0,0-2.06,4.52c-.61.25-1.71,3.2-2.52,5.65l.26-1.62a50.47,50.47,0,0,0-1.87,6.73c-.1-2,.64-3.1.52-4a17.8,17.8,0,0,0-.5,1.87c-.13.64-.32,1.26-.39,1.91.24,0,.15,2.46.61-.25a50.06,50.06,0,0,0,.29,5.17A37.56,37.56,0,0,0,6,94.84c.43,1.92,0,1-.51-.29s-1-2.84-1-2a22.2,22.2,0,0,0,4,8.7c1.34,1.85,2.61,3.12,4.12,5.18l1.32,1.7c.4.48.76.88,1.09,1.24a22.9,22.9,0,0,0,1.78,1.78c.56.53,1.13,1,1.88,1.69s1.64,1.45,2.87,2.52c-.86-.59-.08.26,1.08,1.28s2.66,2.3,3.06,2.78l-2.23-1.35c1.62,1.16,3.09,2.4,2.49,2.21,0-.28,1.72.95,4,2.4s5.15,3.18,7.13,4.24l-.5-.68c3.06,1.69,7.42,3.78,10.7,5.47a27.9,27.9,0,0,0,4.38,1.76c.87.26,1.61.44,3.61,1.11,2,1.21,1.65,1.43.8,1.44-1.29-.73-3.61-1.64-5.76-2.76-3.2-1.36-6.08-2.51-8.9-3.82a62.82,62.82,0,0,1-8.51-4.66c-1.49-.49-.49.14,1.25,1.11s4.23,2.22,5.65,3.17a1.9,1.9,0,0,1-.56-.24l.73.44-3.86-2a10.52,10.52,0,0,0-2.77-1.15c3.67,2.09,3,.92,7.41,3.74,3.49,1.65,6,3.56,8.13,4.63,2.47.79,2.81.32,8.54,2.9-.91-.21-1.81-.44-2.71-.67,6.57,2.79,3.32.73,9.43,3.18-2.13-.89,2.24.42-1.84-1.21,2.08.6,6.58,2.22,9.89,3.53.9.23.24-.08.45-.17-3.61-1.6-6-1.83-8.83-3.41l-2.73-.56c-3.34-1.55-3.52-2.06-1.38-1.37a24.75,24.75,0,0,1-2.48-1c-.3-.91,4,1.94,5.37,1.81l-2.42-.91c-.86-.83,5.75,1.86,8.87,3,3.45,1.5,6.7,2.66,6.83,3.08-1.61-.51-3.23-1-4.83-1.52,2.38,1.14,6.16,2,9,2.87a5,5,0,0,0,.75.35c-.14-.07-.21-.13-.2-.16a11.64,11.64,0,0,1,1.54.63c2.46.8,6.16,1.68,8.44,2.43l-.2-.37L90,147c-2.28-.66-5.29-1.78-3.51-1.48,5.16,1.31,6.05,2.13,7.2,2.74-1.31.12-5-1.41-7.66-2,1.44.9,5.19,1.61,10.44,3.31-2.26-.07-6.17-1.7-7.46-1.59,4.26,1.3,5.48,1.27,10,2.58-.64.09-5-1.08-4.84-.71l2.86.92c-7.14-1.9,1.09.95-4.51-.44,2.58.9,3.77.61,7.45,1.88-1-.48-3.89-1.64-.25-.91,1.34.4,2.68.79,4,1.16,1.64.66-4.37-.52-1.77.34l4.3.87c-.11-.18-2.13-.75-.8-.64,2.42.75,4.17.39,7.12.83a37.66,37.66,0,0,1,4.93,1.3c5.93.81,13.36,2.24,18.86,2.75-3.75-.36.05.55,2.23,1.13-4.27-.65-4.38-.22-4.14.14,2.6.42,4.39.2,3.1-.17,4.3.91,3,.19,6.81,1.1,2.44.55-1.31.26-.49.57,4.69.76,1.36-.35,6.45.51-.29,0-.76,0-.36.12a26.46,26.46,0,0,0,6.36.53c2.85,1,8.29,1,7.64,1.52,6.7.63-1-.44.39-.49a89.59,89.59,0,0,1,9.37,1.11c-1.65-.17-3.18-.17-4.77-.44l1.37.57a25.81,25.81,0,0,0,6.8.4,26.79,26.79,0,0,1,6.59.36c-4.17-.16-1.41.18-3.49.29,1.25,0,7.55.7,3.76,0,3,.31,5.12.53,7.21.79,2.7,0,5.63.14,7.21,0,4.24.33,7.36.8,9.38,1.09,8.95.17,17.19,1,26.61.81l-.69,0c7.31.17-3.22-.6,4.36-.48-1,.5,4.55.38,7,.65,9.32.27,16.1-.49,24.68-.41-.06.11-.61.25-2.27.31,6.55,0,11.83-.36,17.73-.66l-.25.08c9.48-.12,18-1.24,27.79-2.3-.78.15-1,.36-1.58.48,4.93-.35,12.81-1.12,16.2-2,5.89-.24,3.84-.6,11.39-1.15.44,0-.74.19-1.23.27,3.7-.33,6.3-.77,10-1.29,8.14-1.64,10-2.6,19.55-4.22.61.6-5.79,1.28-5.9,1.86a45.6,45.6,0,0,1,6.12-1.27c-1.52.58-.31.24-1.34.7a32.27,32.27,0,0,0,4.7-1.22l2.23-.74.68-.23a1.17,1.17,0,0,1,.25-.07c.08-.15-.62-.08-2.48.33,2.12-.87,9.26-2,13.76-3.25-1.48.33-6.15,1.27-4.48.55,6.13-1.27,8-2.41,12.15-3.77,5.65-1.13-4,1.63-2.8,1.82,1-.06,3.32-.27,1,.52,5.06-1.17,8.56-2.58,13-4l-.08.17c6.2-1.86,12.58-4.57,17.78-6.14-.92.28-1.84.55-2.77.81a61.32,61.32,0,0,0,5.66-2.36c-.1.28,3.92-1,2.37-.23a84.65,84.65,0,0,1,8-3.84,54.05,54.05,0,0,0,8.07-4.24c1.63-.59.52.28.12.66a65.17,65.17,0,0,0-6.92,3.23c3.12-1.36,5.45-2.26,5.05-1.88.73-.46,1.73-1,2.83-1.67s2.32-1.31,3.47-2a34.74,34.74,0,0,0,5-3.3c2.29-1,4.38-2.15,3.83-1.37,4.42-2.83,3.13-2.44,2.05-2s-2,.72,2.93-2.5c4.66-2.71-4.07,3.37,2.14-.71-.35.29-.72.56-1.09.83,2.48-1.14,3.16-1.84,3.8-2.71a18.11,18.11,0,0,1,3.63-3.77c1-.11-3,3,.46.61a39.71,39.71,0,0,0,4.65-5c1.27-1.56,2.47-3.17,4.24-5.32-.1.29-.23.56-.35.83a48.4,48.4,0,0,0,3.93-5.88A34.63,34.63,0,0,0,485.62,94c.15-.13,0,.37-.23,1a15.32,15.32,0,0,0,1.17-4.45c0-.56.16-.93.55-3.67l-.2-1.59a39.61,39.61,0,0,1-.79,5.43c-.19,1-.53,2-.76,3s-.56,1.92-.85,2.73c.52-1.65-.15-.45-.92.9s-1.81,2.76-1.62,1.92l-.16.67a61.52,61.52,0,0,1-9.62,11,89.7,89.7,0,0,1-13.06,9.79c-5.59,4.23-10.27,6-16.85,9.57-.8,1.05-1.19.77-7.06,3.48,3.1-1.45.19-.58-1.83.18a43.27,43.27,0,0,1-3.9,1.9,104.3,104.3,0,0,0-11.75,4c-3.79,1.09.8-.48,1.57-.89-1.62.23-2.95,1.28-4.25,1.5,0,0,0-.08.42-.24-5.7,1.92-9.18,2.82-15.22,4.47-.32.74-5.86,1.88-8.51,2.77.83-.42-3.47.66-5.23.95l-3.16,1.23c-3.15,1.13-4.56.78-8.72,1.9l1-.12a108,108,0,0,1-14.31,2.35,271.46,271.46,0,0,1-36.72,5.64c-11.38,1-23,1.75-38.23,2.8-2,.29,1.48.23-.07.58-3.1.25-3.81.27-6.63.4,2.5.05,2.09-.14,1.78.05l4.32-.4c.21,0-.26.07.16.14,1.45-.14,3.15-.36,5-.45-2.67.33-3.39.82-7.07.85a12.4,12.4,0,0,1,1.71-.21c-3,.13-3.16.35-5.44.34-2.79,0-2.1.14-2.47,0l-8.64.09a60.3,60.3,0,0,1-11,.24c.93-.42,5.72-.23,7.83-.69l-3.12-.22-.17.33h-4.44l.25-.06a5.74,5.74,0,0,1-2.2.16c-.19,0-.63-.12-.13-.15l-3.17.22c1.84-.35-2.78-.07-2.32-.47-10.31-.16-13.13.52-22.19-.2,1.47.22-2.9.54-5.69.38-1.61-.14-2-.25-1-.36l-3.67.06c-4.56-.78-9-.61-15.74-1.21l.36-.15a77.89,77.89,0,0,1-8.91-.31l.71-.29c-4.54-.57-3.54.44-8.55-.18,0,.37,3.15.81,3.61,1.2-1.16-.46-6.56-1-5.32-.62-5-.31-3.48-.32-3.9-.45l-3-.07c-3.52-.37-1.07-.59.25-.67A71.44,71.44,0,0,1,167,159h1.52l-4.88-.64A91.19,91.19,0,0,1,151.9,157l2.9-.08c-2.85-.64-1.51,0-2.28-.06a32.06,32.06,0,0,1-7.87-1.55C137.29,154.64,130.34,152.08,124,151.55ZM343.73,12.93l-.66-.17C344.61,12.9,345.49,13,343.73,12.93ZM303.46,8.16c4.89.21,3.32.32,3.68.48-4.78-.55-7.46-.6-11.69-1.06a2.94,2.94,0,0,1,1,.38,16.37,16.37,0,0,1-3.94-.65C294.65,6.93,305.55,8.59,303.46,8.16Zm90.61,12.39-.59,0h0Zm-23.75-5.06a8.43,8.43,0,0,0-1.61-.52A4.73,4.73,0,0,0,370.32,15.49Zm-47.64-8a38.27,38.27,0,0,0-5.47-.69C318.07,6.89,319.61,7.13,322.68,7.47ZM25.88,51.55c1.13-1,3.29-2.73,1.13-1.37-.9.84-3,2.06-3.6,2.92l-.21.14C24.45,52.42,25.53,51.82,25.88,51.55Zm57.47,92.57c-.31.12-1.4,0-.78.35l-.39-.14c.33.17.6.32.32.28,1.1.38,2.25.79,3.06,1C86.12,145.06,88.5,145.69,83.35,144.12Z"/><path class="cls-1" d="M38.08,128.18l1.19.65C38.94,128.66,38.58,128.45,38.08,128.18Z"/><path class="cls-1" d="M85.33,145.51c.11,0-1.19-.46-2.76-1A18.21,18.21,0,0,0,85.33,145.51Z"/><path class="cls-1" d="M465.18,53.51c-.39-.27-.76-.54-1.16-.8l2.12,1.86c1.89,1.37,2.91,2.07,3.58,2.49a15,15,0,0,0,1.58.81c-.84-.65-1.58-1.24-2.29-1.82s-1.42-1.12-2.14-1.7l-2.35-1.79c-.87-.62-1.82-1.32-2.95-2.06C462.79,51.48,464,52.46,465.18,53.51Z"/><path class="cls-1" d="M464.53,50.35a17.5,17.5,0,0,0-1.78-1.65l-.7-.24C462.89,49.07,463.71,49.71,464.53,50.35Z"/><path class="cls-1" d="M414,25.44c1.41.52,2.82,1,4.23,1.6C419.65,27.33,414.78,25.36,414,25.44Z"/><path class="cls-1" d="M431.58,35.48l2.25.71a19.26,19.26,0,0,0-5-2C431.46,35.15,429.4,34.59,431.58,35.48Z"/><path class="cls-1" d="M402.41,21.85c-1.46,0-4.31-1.39-5.31-1.27C398.28,20.77,402.09,22.16,402.41,21.85Z"/><path class="cls-1" d="M404.41,26.26c1.26.75,3.6,1.12,6.27,2.06C408.44,27.61,405.39,26.28,404.41,26.26Z"/><path class="cls-1" d="M378.7,17c.29-.23,2.14.2,4.2.76a20.37,20.37,0,0,1-2.13-.24c3.5.6,3.74.68,6.53,1.24-2.72-.88-6.86-1.94-6.34-2.18C378.84,16.36,376.2,16.17,378.7,17Z"/><path class="cls-1" d="M397.85,24.43c2.24.75,3.54,1.36,6.24,2.14-.41-.32-1.23-.87-4.42-1.72l1.22,0C398,23.8,401.93,25.6,397.85,24.43Z"/><path class="cls-1" d="M366.07,13.6l1.38.42c3.31.38,7.46,1.39,9.38,1.39C372.9,14.57,368,13.77,366.07,13.6Z"/><path class="cls-1" d="M386.8,21l-.54.33c3.19.85-.19-.2,1,0a22.84,22.84,0,0,0,2.95.75C386.53,21.16,390,21.59,386.8,21Z"/><path class="cls-1" d="M376.14,19,372,18.31l3.13,1.16C380,20.37,375.39,19.25,376.14,19Z"/><path class="cls-1" d="M371.12,17.63l-.44-.18-6.35-.57C368.09,17.32,368.3,17.41,371.12,17.63Z"/><path class="cls-1" d="M295.14,4.57c-.72.14,3,.65,1.41.32C297.27,4.78,292.32,4.18,295.14,4.57Z"/><path class="cls-1" d="M310,9.4c-1.78-.32-7.7-.55-10.29-.61C302.79,8.92,310.4,9.69,310,9.4Z"/><path class="cls-1" d="M298.65,8.76l1.06,0Z"/><path class="cls-1" d="M189.94,10c-.27,0-.54.06-.78.11Z"/><path class="cls-1" d="M192.52,9.71A35.52,35.52,0,0,0,198.33,9c-2.75.29-5.18.51-8.39,1C191.15,9.9,192.65,9.93,192.52,9.71Z"/><path class="cls-1" d="M167.66,12c1.27-.28,3.05-.41,2.58-.54C169.5,11.44,166.79,12,167.66,12Z"/><path class="cls-1" d="M10,65.22A23.77,23.77,0,0,0,8.4,67.65c-.27.56-.29.78,0,.55C9.91,65.76,8.93,67,10,65.22Z"/><path class="cls-1" d="M6.89,71.15l-.28.25a15.68,15.68,0,0,0-.89,1.48A18.72,18.72,0,0,1,6.89,71.15Z"/><path class="cls-1" d="M3.28,88.7A7.68,7.68,0,0,1,3,87.61C3.19,88.64,3.33,89.52,3.28,88.7Z"/><path class="cls-1" d="M3,87.08c0,.17,0,.36,0,.53C3,87.44,3,87.25,3,87.08Z"/><path class="cls-1" d="M3,85.87l-.16-.21c0,.3.07.88.11,1.42A3.89,3.89,0,0,1,3,85.87Z"/><path class="cls-1" d="M4.31,94.1a29.13,29.13,0,0,1-.37-3.48c-.86-3.52.54,4.1-.57.67C3.61,92.26,4,93.18,4.31,94.1Z"/><path class="cls-1" d="M9.58,104.78a21.81,21.81,0,0,0,1.53,2.11c.58.71,1.22,1.39,1.81,2a21.7,21.7,0,0,1,2.77,3.24c3.26,3.07,3.08,2.49,2.94,2.12s-.17-.58,3.71,2.59c-3.54-3.15-4.5-3.9-5.46-4.47s-1.84-1.06-4.48-4.48C14.78,111.4,10.4,106,9.58,104.78Z"/><path class="cls-1" d="M9.45,103c-.25-.15.17.62.76,1.56A19.59,19.59,0,0,0,12.09,107,44.44,44.44,0,0,0,9.45,103Z"/><path class="cls-1" d="M21.66,117.41c.66.62,1.3,1.27,2,1.86l.66.3C23.41,118.88,22.53,118.15,21.66,117.41Z"/><path class="cls-1" d="M29.81,123.59c-.78-.41-1.57-.8-2.33-1.24C28.24,122.77,31.5,125,29.81,123.59Z"/><path class="cls-1" d="M41.79,131.12c2.13,1.22,4.4,1.63-.24-.62l1,.58C42.25,131,44.61,132.52,41.79,131.12Z"/><path class="cls-1" d="M72,142.89c-1.57-.56-3.45-1.16-3.17-.91,1.45.48,2.89,1,4.35,1.4Z"/><path class="cls-1" d="M71.91,141.11c-1.29-.91-4-1.4-6.79-2.61C68.3,139.79,67.89,139.7,71.91,141.11Z"/><path class="cls-1" d="M76.75,145.13a28.27,28.27,0,0,1-4.08-1.35A13.42,13.42,0,0,0,76.75,145.13Z"/><path class="cls-1" d="M83.73,147.2c1.38.59-.38.13.67.56A49,49,0,0,0,92.47,150c-.76-.4-1.74-1.18-.41-1-5-1.24-7.68-1.27-9.88-2.58-1.43-.19-2.86-.38-4.29-.6C81.75,147.21,81,146.3,83.73,147.2Z"/><path class="cls-1" d="M74.34,142.72l2.51,1.1c-.44-.39,1.54.21,2.93.59C79.27,143.68,75.82,143.22,74.34,142.72Z"/><polygon class="cls-1" points="111.17 154.12 116.86 155.24 115.02 154.81 111.17 154.12"/><polygon class="cls-1" points="114.76 155.09 114.88 155.27 119.27 155.91 114.76 155.09"/><polygon class="cls-1" points="120.66 156.52 120 156.36 116.63 155.79 120.66 156.52"/><path class="cls-1" d="M132.51,158.89l-1-.4c-1.45-.21-4.29-1-4.07-.65A35,35,0,0,1,132.51,158.89Z"/><path class="cls-1" d="M172.7,158.91c-1,0-.44.23.17.43l1.67-.19A11.38,11.38,0,0,1,172.7,158.91Z"/><path class="cls-1" d="M179.53,160.23l4.29,0c-4.88-.51-5.6-.26-9.86-.62,1.79.33,4.34.26,6.61.61Z"/><path class="cls-1" d="M264.81,163.46c-.37.29.59.23-2.58.48,4.35-.27,8.08-.33,13-.57-.85-.14,2.85-.59.94-.44l-5.53.38.82-.22C267.61,163,269,163.48,264.81,163.46Z"/><path class="cls-1" d="M477.19,108.29c-.26.48.3.06.83-.39C480,105.16,476.8,108.87,477.19,108.29Z"/><path class="cls-2" d="M79.05,107l5.13-.06c2.34,0,4.21-2.44,4.18-5.4l-.24-22.59c0-3-2-5.34-4.29-5.32l-5.13.06c-2.33,0-4.25-2.36-4.29-5.32l-.1-9.49c0-3,1.84-5.38,4.18-5.4L149.05,53c2.33,0,4.25,2.36,4.29,5.32l.1,9.48c0,3,1.95,5.35,4.29,5.32l4.53,0c2.34,0,4.26,2.36,4.29,5.32l.24,22.59c0,3-1.84,5.38-4.18,5.4l-4.53,0c-2.34,0-4.21,2.45-4.18,5.41l.1,9.48c0,3-1.84,5.39-4.18,5.41l-70.55.43c-2.34,0-4.26-2.36-4.29-5.32l-.1-9.49C74.85,109.4,76.72,107,79.05,107Z"/><path d="M79.05,108.46c5.51-.06,10.36-.19,10.81-7,.32-5-.11-10.15-.16-15.15,0-4,1-10.49-2.82-13.16-2.22-1.55-4.13-.59-6.55-1-5.16-.87-4.43-5.16-4.47-9,0-2.66-.81-7,2.8-8.17a11.43,11.43,0,0,1,3,0l14-.09,38.86-.23,12.45-.08c5.65,0,4.94,6.29,5,10.4.06,5.55,1.36,9.67,7.61,9.69,7.4,0,5.59,9,5.65,14.09.05,4.84,2.31,15.13-4.33,16.21-2.49.41-4.34-.33-6.37,1.65s-2,4.4-2,7c0,4.2,1.38,11.22-4.36,11.74-3.94.36-8.05,0-12,.07l-43,.26c-4.06,0-8.85.75-12.87.08-4.7-.78-6.15-16.27-.7-17.26,1.9-.34,1.1-3.23-.79-2.89-6.83,1.24-5.4,10.26-5.19,15.35.19,4.59,2.2,7.65,6.94,7.8,11.35.37,22.79-.14,34.13-.21s22.8.31,34.14-.2c4.72-.22,6.72-3.32,6.81-7.9,0-2.62-.61-5.81-.09-8.38,1.33-6.6,6.38-2.54,10.1-5,4.12-2.77,2.74-10.11,2.7-14.28l-.11-10.34c0-2.27.24-4.88-.7-7-1.2-2.72-3.26-3.58-6-3.71-3.06-.13-5.21,1.1-6.42-3.78a19.55,19.55,0,0,1-.05-4.26c0-4.79.46-11.44-5.92-12-9.86-.93-20.33.12-30.22.18l-37.34.23c-4.71,0-8.16,1.34-8.6,6.92-.39,5.11-1.34,15.22,5.5,16.25,3.8.58,7.09-1.6,8.31,4.32.62,3,.07,6.73.11,9.8,0,3.55.49,7.42.11,11-.23,2.15,1.36,3.82-2.88,5.24-1.34.44-3.48,0-4.91,0A1.5,1.5,0,0,0,79.05,108.46Z"/><path class="cls-3" d="M79,97.37l5.13-.06c2.34,0,4.21-2.44,4.18-5.4L88,69.32c0-3-2-5.34-4.29-5.32l-5.13.06c-2.34,0-4.26-2.36-4.29-5.32l-.1-9.49c0-3,1.84-5.38,4.18-5.4l70.55-.43c2.34,0,4.26,2.36,4.29,5.32l.1,9.48c0,3,2,5.35,4.29,5.32l4.54,0c2.34,0,4.26,2.36,4.29,5.32l.24,22.59c0,3-1.84,5.38-4.18,5.4l-4.54,0c-2.33,0-4.2,2.45-4.17,5.41l.1,9.48c0,3-1.84,5.38-4.18,5.41l-70.55.43c-2.34,0-4.26-2.36-4.29-5.32l-.1-9.49C74.75,99.81,76.62,97.39,79,97.37Z"/><path d="M79,98.87c5.51-.06,10.36-.19,10.8-7,.33-5-.1-10.15-.15-15.15,0-4,1-10.5-2.82-13.16-2.22-1.55-4.13-.59-6.56-1-5.15-.87-4.42-5.16-4.46-9,0-2.66-.81-7,2.8-8.17a11.43,11.43,0,0,1,3,0l14-.09L134.37,45l12.45-.08c5.65,0,4.94,6.29,5,10.39.06,5.56,1.36,9.68,7.61,9.7,7.4,0,5.59,9,5.65,14.09.05,4.84,2.31,15.13-4.34,16.21-2.48.41-4.33-.33-6.36,1.65s-2,4.4-2,7c0,4.2,1.38,11.22-4.37,11.74-3.93.36-8,0-12,.07l-43,.26c-4.07,0-8.85.75-12.87.08-4.7-.78-6.15-16.27-.7-17.26,1.9-.34,1.1-3.23-.8-2.89-6.82,1.24-5.39,10.26-5.18,15.35.18,4.59,2.2,7.64,6.94,7.8,11.34.37,22.79-.14,34.13-.21s22.8.31,34.14-.2c4.72-.22,6.71-3.32,6.81-7.9.05-2.62-.61-5.81-.09-8.38,1.33-6.6,6.37-2.54,10.09-5,4.13-2.77,2.75-10.11,2.71-14.28L168,72.72c0-2.27.24-4.88-.7-7-1.2-2.72-3.26-3.58-6-3.71-3.06-.13-5.21,1.1-6.43-3.78a20.29,20.29,0,0,1,0-4.27c0-4.78.46-11.43-5.92-12-9.86-.93-20.33.12-30.23.18l-37.33.23c-4.72,0-8.16,1.34-8.6,6.92-.39,5.11-1.34,15.22,5.49,16.25,3.81.58,7.1-1.61,8.32,4.32.62,3,.07,6.73.11,9.8,0,3.55.49,7.42.11,11-.23,2.15,1.36,3.82-2.88,5.23-1.34.45-3.48,0-4.91.06A1.5,1.5,0,0,0,79,98.87Z"/><path class="cls-4" d="M148.12,79.2c-7.59,6.7-17.37,13.34-25.76,21.19-.33-5,.34-7.94,0-12.9-4.7,0-14.4.17-19.1.47,0-4.32-.49-9.33-.51-13.65,4.2-.3,15.16-.43,19.37-.31.29-4.77-.46-8.84-.33-12.72,10.42,7.43,16,11.3,26.32,17.92"/><path d="M147.06,78.14c-8.39,7.3-17.57,13.64-25.76,21.19l2.56,1.06c-.19-4.31.21-8.6,0-12.9a1.51,1.51,0,0,0-1.5-1.5c-6.36,0-12.74.1-19.1.47l1.5,1.5c-.07-4.56-.44-9.1-.51-13.65l-1.5,1.5c6.43-.4,12.93-.46,19.37-.31a1.52,1.52,0,0,0,1.5-1.5c.16-4.25-.36-8.47-.33-12.72l-2.25,1.29c8.65,6.17,17.37,12.19,26.31,17.92,1.63,1.05,3.14-1.55,1.52-2.59-8.95-5.73-17.67-11.75-26.32-17.92a1.51,1.51,0,0,0-2.26,1.3c0,4.25.49,8.47.33,12.72l1.5-1.5c-6.44-.15-12.94-.09-19.37.31a1.52,1.52,0,0,0-1.5,1.5c.07,4.55.44,9.09.51,13.65a1.53,1.53,0,0,0,1.5,1.5c6.36-.37,12.74-.44,19.1-.47l-1.5-1.5c.2,4.3-.2,8.59,0,12.9a1.53,1.53,0,0,0,2.57,1.06c8.18-7.55,17.36-13.89,25.75-21.19,1.46-1.27-.67-3.39-2.12-2.12Z"/><path class="cls-5" d="M201.05,107l5.13-.06c2.34,0,4.21-2.44,4.18-5.4l-.24-22.59c0-3-2-5.34-4.29-5.32l-5.13.06c-2.33,0-4.25-2.36-4.29-5.32l-.1-9.49c0-3,1.84-5.38,4.18-5.4L271.05,53c2.33,0,4.25,2.36,4.29,5.32l.1,9.48c0,3,1.95,5.35,4.29,5.32l4.53,0c2.34,0,4.26,2.36,4.29,5.32l.24,22.59c0,3-1.84,5.38-4.18,5.4l-4.53,0c-2.34,0-4.21,2.45-4.18,5.41l.1,9.48c0,3-1.84,5.39-4.18,5.41l-70.55.43c-2.34,0-4.26-2.36-4.29-5.32l-.1-9.49C196.85,109.4,198.72,107,201.05,107Z"/><path d="M201.05,108.46c5.51-.06,10.36-.19,10.81-7,.32-5-.11-10.15-.16-15.15,0-4,1-10.49-2.82-13.16-2.22-1.55-4.13-.59-6.55-1-5.16-.87-4.43-5.16-4.47-9,0-2.66-.81-7,2.8-8.17a11.43,11.43,0,0,1,3,0l14-.09,38.86-.23,12.45-.08c5.65,0,4.94,6.29,5,10.4.06,5.55,1.36,9.67,7.61,9.69,7.4,0,5.59,9,5.65,14.09,0,4.84,2.31,15.13-4.33,16.21-2.49.41-4.34-.33-6.37,1.65s-2,4.4-2,7c-.05,4.2,1.38,11.22-4.36,11.74-3.94.36-8.05,0-12,.07l-43,.26c-4.06,0-8.85.75-12.87.08-4.7-.78-6.15-16.27-.7-17.26,1.9-.34,1.1-3.23-.79-2.89-6.83,1.24-5.4,10.26-5.19,15.35.19,4.59,2.2,7.65,6.94,7.8,11.35.37,22.79-.14,34.13-.21s22.8.31,34.14-.2c4.72-.22,6.72-3.32,6.81-7.9.05-2.62-.61-5.81-.09-8.38,1.33-6.6,6.38-2.54,10.1-5,4.12-2.77,2.74-10.11,2.7-14.28l-.11-10.34c0-2.27.24-4.88-.7-7-1.2-2.72-3.26-3.58-6-3.71-3.06-.13-5.21,1.1-6.42-3.78a19.55,19.55,0,0,1-.05-4.26c-.05-4.79.46-11.44-5.92-12-9.86-.93-20.33.12-30.22.18l-37.34.23c-4.71,0-8.16,1.34-8.6,6.92-.39,5.11-1.34,15.22,5.5,16.25,3.8.58,7.09-1.6,8.31,4.32.62,3,.07,6.73.11,9.8,0,3.55.49,7.42.11,11-.23,2.15,1.36,3.82-2.88,5.24-1.34.44-3.48,0-4.91,0A1.5,1.5,0,0,0,201.05,108.46Z"/><path class="cls-6" d="M201,97.37l5.13-.06c2.34,0,4.21-2.44,4.18-5.4L210,69.32c0-3-2-5.34-4.29-5.32l-5.13.06c-2.34,0-4.26-2.36-4.29-5.32l-.1-9.49c0-3,1.84-5.38,4.18-5.4l70.55-.43c2.34,0,4.26,2.36,4.29,5.32l.1,9.48c0,3,2,5.35,4.29,5.32l4.54,0c2.34,0,4.26,2.36,4.29,5.32l.24,22.59c0,3-1.84,5.38-4.18,5.4l-4.54,0c-2.33,0-4.2,2.45-4.17,5.41l.1,9.48c0,3-1.84,5.38-4.18,5.41l-70.55.43c-2.34,0-4.26-2.36-4.29-5.32l-.1-9.49C196.75,99.81,198.62,97.39,201,97.37Z"/><path d="M201,98.87c5.51-.06,10.36-.19,10.8-7,.33-5-.1-10.15-.15-15.15,0-4,1-10.5-2.82-13.16-2.22-1.55-4.13-.59-6.56-1-5.15-.87-4.42-5.16-4.46-9,0-2.66-.81-7,2.8-8.17a11.43,11.43,0,0,1,3,0l14-.09L256.37,45l12.45-.08c5.65,0,4.94,6.29,5,10.39.06,5.56,1.36,9.68,7.61,9.7,7.4,0,5.59,9,5.65,14.09.05,4.84,2.31,15.13-4.34,16.21-2.48.41-4.33-.33-6.36,1.65s-2,4.4-2,7c-.05,4.2,1.38,11.22-4.37,11.74-3.93.36-8,0-12,.07l-43.05.26c-4.07,0-8.85.75-12.87.08-4.7-.78-6.15-16.27-.7-17.26,1.9-.34,1.1-3.23-.8-2.89-6.82,1.24-5.39,10.26-5.18,15.35.18,4.59,2.2,7.64,6.94,7.8,11.34.37,22.79-.14,34.13-.21s22.8.31,34.14-.2c4.72-.22,6.71-3.32,6.81-7.9.05-2.62-.61-5.81-.09-8.38,1.33-6.6,6.37-2.54,10.09-5,4.13-2.77,2.75-10.11,2.71-14.28L290,72.72c0-2.27.24-4.88-.7-7-1.2-2.72-3.26-3.58-6-3.71-3.06-.13-5.21,1.1-6.43-3.78a20.29,20.29,0,0,1,0-4.27c-.05-4.78.46-11.43-5.92-12-9.86-.93-20.33.12-30.23.18l-37.33.23c-4.72,0-8.16,1.34-8.6,6.92-.39,5.11-1.34,15.22,5.49,16.25,3.81.58,7.1-1.61,8.32,4.32.62,3,.07,6.73.11,9.8,0,3.55.49,7.42.11,11-.23,2.15,1.36,3.82-2.88,5.23-1.34.45-3.48,0-4.91.06A1.5,1.5,0,0,0,201,98.87Z"/><path class="cls-4" d="M242.8,57.15c6.71,7.59,13.34,17.38,21.19,25.76-5,.33-7.93-.34-12.9,0,0,4.7.18,14.41.47,19.1-4.32,0-9.33.49-13.65.51-.29-4.2-.43-15.15-.3-19.37-4.77-.29-8.84.47-12.73.33,7.43-10.42,11.3-16,17.92-26.32"/><path d="M241.74,58.21c7.31,8.4,13.65,17.57,21.19,25.76L264,81.41c-4.3.19-8.59-.21-12.9,0a1.54,1.54,0,0,0-1.5,1.5c0,6.36.11,12.74.47,19.1l1.5-1.5c-4.55.07-9.09.44-13.65.51l1.5,1.5c-.4-6.43-.46-12.92-.3-19.37a1.53,1.53,0,0,0-1.5-1.5c-4.26-.15-8.47.37-12.73.33l1.3,2.26c6.16-8.65,12.19-17.38,17.92-26.32,1-1.63-1.55-3.14-2.59-1.51-5.74,8.94-11.76,17.66-17.92,26.31A1.51,1.51,0,0,0,224.88,85c4.26,0,8.47-.48,12.73-.33l-1.5-1.5c-.16,6.45-.1,12.94.3,19.37a1.52,1.52,0,0,0,1.5,1.5c4.56-.07,9.1-.44,13.65-.51a1.51,1.51,0,0,0,1.5-1.5c-.36-6.36-.43-12.74-.47-19.1l-1.5,1.5c4.31-.2,8.6.2,12.9,0a1.52,1.52,0,0,0,1.07-2.56c-7.55-8.19-13.89-17.36-21.2-25.76-1.27-1.46-3.38.67-2.12,2.12Z"/><path class="cls-7" d="M330.05,107l5.13-.06c2.34,0,4.21-2.44,4.18-5.4l-.24-22.59c0-3-1.95-5.34-4.29-5.32l-5.13.06c-2.33,0-4.25-2.36-4.29-5.32l-.1-9.49c0-3,1.84-5.38,4.18-5.4L400.05,53c2.33,0,4.25,2.36,4.29,5.32l.1,9.48c0,3,1.95,5.35,4.29,5.32l4.53,0c2.34,0,4.26,2.36,4.29,5.32l.24,22.59c0,3-1.84,5.38-4.18,5.4l-4.53,0c-2.34,0-4.21,2.45-4.18,5.41l.1,9.48c0,3-1.84,5.39-4.18,5.41l-70.55.43c-2.34,0-4.26-2.36-4.29-5.32l-.1-9.49C325.85,109.4,327.72,107,330.05,107Z"/><path d="M330.05,108.46c5.51-.06,10.36-.19,10.81-7,.32-5-.11-10.15-.16-15.15-.05-4,1-10.49-2.82-13.16-2.22-1.55-4.13-.59-6.55-1-5.16-.87-4.43-5.16-4.47-9,0-2.66-.81-7,2.8-8.17a11.43,11.43,0,0,1,3,0l14-.09,38.86-.23,12.45-.08c5.65,0,4.94,6.29,5,10.4.06,5.55,1.36,9.67,7.61,9.69,7.4,0,5.59,9,5.65,14.09,0,4.84,2.31,15.13-4.33,16.21-2.49.41-4.34-.33-6.37,1.65s-2,4.4-2,7c-.05,4.2,1.38,11.22-4.36,11.74-3.94.36-8.05,0-12,.07l-43.05.26c-4.06,0-8.85.75-12.87.08-4.7-.78-6.15-16.27-.7-17.26,1.9-.34,1.1-3.23-.79-2.89-6.83,1.24-5.4,10.26-5.19,15.35.19,4.59,2.2,7.65,6.94,7.8,11.35.37,22.79-.14,34.13-.21s22.8.31,34.14-.2c4.72-.22,6.72-3.32,6.81-7.9.05-2.62-.61-5.81-.09-8.38,1.33-6.6,6.38-2.54,10.1-5,4.12-2.77,2.74-10.11,2.7-14.28l-.11-10.34c0-2.27.24-4.88-.7-7-1.2-2.72-3.26-3.58-6-3.71-3.06-.13-5.21,1.1-6.42-3.78a19.55,19.55,0,0,1-.05-4.26c-.05-4.79.46-11.44-5.92-12-9.86-.93-20.33.12-30.22.18l-37.34.23c-4.71,0-8.16,1.34-8.6,6.92-.39,5.11-1.34,15.22,5.5,16.25,3.8.58,7.09-1.6,8.31,4.32.62,3,.07,6.73.11,9.8,0,3.55.49,7.42.11,11-.23,2.15,1.36,3.82-2.88,5.24-1.34.44-3.48,0-4.91,0A1.5,1.5,0,0,0,330.05,108.46Z"/><path class="cls-8" d="M330,97.37l5.13-.06c2.34,0,4.21-2.44,4.18-5.4L339,69.32c0-3-1.95-5.34-4.29-5.32l-5.13.06c-2.34,0-4.26-2.36-4.29-5.32l-.1-9.49c0-3,1.84-5.38,4.18-5.4l70.55-.43c2.34,0,4.26,2.36,4.29,5.32l.1,9.48c0,3,2,5.35,4.29,5.32l4.54,0c2.34,0,4.26,2.36,4.29,5.32l.24,22.59c0,3-1.84,5.38-4.18,5.4l-4.54,0c-2.33,0-4.2,2.45-4.17,5.41l.1,9.48c0,3-1.84,5.38-4.18,5.41l-70.55.43c-2.34,0-4.26-2.36-4.29-5.32l-.1-9.49C325.75,99.81,327.62,97.39,330,97.37Z"/><path d="M330,98.87c5.51-.06,10.36-.19,10.8-7,.33-5-.1-10.15-.15-15.15-.05-4,1-10.5-2.82-13.16-2.22-1.55-4.13-.59-6.56-1-5.15-.87-4.42-5.16-4.46-9,0-2.66-.81-7,2.8-8.17a11.43,11.43,0,0,1,3,0l14-.09L385.37,45l12.45-.08c5.65,0,4.94,6.29,5,10.39.06,5.56,1.36,9.68,7.61,9.7,7.4,0,5.59,9,5.65,14.09.05,4.84,2.31,15.13-4.34,16.21-2.48.41-4.33-.33-6.36,1.65s-2,4.4-2,7c-.05,4.2,1.38,11.22-4.37,11.74-3.93.36-8,0-12,.07l-43.05.26c-4.07,0-8.85.75-12.87.08-4.7-.78-6.15-16.27-.7-17.26,1.9-.34,1.1-3.23-.8-2.89-6.82,1.24-5.39,10.26-5.18,15.35.18,4.59,2.2,7.64,6.94,7.8,11.34.37,22.79-.14,34.13-.21s22.8.31,34.14-.2c4.72-.22,6.71-3.32,6.81-7.9.05-2.62-.61-5.81-.09-8.38,1.33-6.6,6.37-2.54,10.09-5,4.13-2.77,2.75-10.11,2.71-14.28L419,72.72c0-2.27.24-4.88-.7-7-1.2-2.72-3.26-3.58-6-3.71-3.06-.13-5.21,1.1-6.43-3.78a20.29,20.29,0,0,1,0-4.27c-.05-4.78.46-11.43-5.92-12-9.86-.93-20.33.12-30.23.18l-37.33.23c-4.72,0-8.16,1.34-8.6,6.92-.39,5.11-1.34,15.22,5.49,16.25,3.81.58,7.1-1.61,8.32,4.32.62,3,.07,6.73.11,9.8,0,3.55.49,7.42.11,11-.23,2.15,1.36,3.82-2.88,5.23-1.34.45-3.48,0-4.91.06A1.5,1.5,0,0,0,330,98.87Z"/><path class="cls-4" d="M370,107.13c-.53.47-3,2.76-3,2.76s-.07-3.16-.07-4V96.74c-12.25-3.42-21-14.26-17.89-26.86,4-16.23,24-21.88,36.91-12.22l.1.09.18.13c4.27,3.66,8.69,10.19,8.94,15.94.17,3.88-3.6,11.46-7.54,7.94-1.11-1-1.67-4.91-1.91-6.33-.52-3.11-.87-5.63-2.88-8.19A14.43,14.43,0,0,0,357,76.08c.06,6,4.77,10.74,9.9,13.15V80c0-.78.07-3.88.07-3.88s2.42,2.06,3,2.6l16.66,13.34Z"/><path d="M369,106.07l-3,2.76,2.56,1.06c-.09-4.38-.07-8.76-.07-13.15a1.53,1.53,0,0,0-1.1-1.44c-13.24-4-22.34-17.81-14.4-30.88,6.14-10.09,20.31-12.75,30.22-6.83,5.4,3.23,10.86,10.55,10.46,17-.09,1.38-.6,3.7-1.64,4.73l-1.75.53c-1.21,1-1.88.93-2-.22a5.1,5.1,0,0,1-.54-1.85c-.62-2.57-.72-5.24-1.62-7.74-3.52-9.79-16.59-12.75-24.48-6.4-10.27,8.27-5.89,21.48,4.61,26.85a1.51,1.51,0,0,0,2.25-1.29c0-4.37,0-8.73.07-13.1l-2.56,1.06c6.43,5.47,13.1,10.66,19.69,16V91L369,106.07c-1.43,1.3.7,3.42,2.13,2.12l16.65-15a1.51,1.51,0,0,0,0-2.13c-6.59-5.28-13.26-10.47-19.69-15.94a1.52,1.52,0,0,0-2.56,1.06c-.09,4.37-.07,8.73-.07,13.1l2.26-1.3c-4.25-2.18-8.34-5.59-9-10.61a12.86,12.86,0,0,1,6.71-12.64,13,13,0,0,1,14.46,1.7c3.74,3.22,3.85,7.26,4.8,11.69.72,3.38,2.81,7.61,7,5.59,3.94-1.89,5.41-7.74,4.78-11.69-3.91-24.42-40.48-27.69-48.33-4.31-4.73,14.1,5.23,26.52,18.39,30.53l-1.1-1.45c0,4.39,0,8.77.07,13.15a1.52,1.52,0,0,0,2.56,1.06l3-2.76C372.53,106.9,370.4,104.78,369,106.07Z"/></g></svg>