<svg xmlns="http://www.w3.org/2000/svg" viewBox="0 0 387 151.07"><defs><style>.cls-1{fill:#1d76b8;}.cls-2{fill:#e66869;}.cls-3{fill:#1d1d1b;}.cls-4{fill:#fff;}</style></defs><title>Mini marco teorico refuerzo - Mblock</title><g id="contenido"><path class="cls-1" d="M16.75,11.31c-.29.4.14.09.55,0Z"/><path class="cls-1" d="M17.3,11.29h.4A.78.78,0,0,0,17.3,11.29Z"/><path class="cls-1" d="M20.91,11c-.78.41-1.82.19-2.26.69C19.52,11.77,20.78,11.46,20.91,11Z"/><polygon class="cls-1" points="19.63 10.89 19.57 11.13 20.23 10.66 19.63 10.89"/><polygon class="cls-1" points="19.09 10.76 19.2 10.83 20.29 10.41 19.09 10.76"/><path class="cls-1" d="M18.89,11.55l.56-.63c.8-.31-.08.67.45.47.75-.71-.17-.74.81-1.54l.57,1.21h0l.05,0-.6-1.26c-.33,0-1.49,1.43-1.65,1C18.12,11.45,19.19,11,18.89,11.55Z"/><path class="cls-1" d="M7,57.64a.49.49,0,0,0,0,.12C7,57.7,7,57.65,7,57.64Z"/><path class="cls-1" d="M12.17,69.5a3.84,3.84,0,0,0,.19.51.53.53,0,0,0,0-.25Z"/><path class="cls-1" d="M5.18,49.48c0-.19.07-.37.09-.53A1,1,0,0,0,5.18,49.48Z"/><path class="cls-1" d="M22.33,57.75a.29.29,0,0,0,0-.16h0l-.11.17Z"/><path class="cls-1" d="M22.69,78.46a3.91,3.91,0,0,0,.51.18A1.35,1.35,0,0,0,22.69,78.46Z"/><path class="cls-1" d="M5.29,44.63l0,.2a2.46,2.46,0,0,0,.07-.24l0,0Z"/><path class="cls-1" d="M10.7,65.54a1.51,1.51,0,0,0,.15.44C10.81,65.82,10.75,65.69,10.7,65.54Z"/><path class="cls-1" d="M10.5,21.41a1,1,0,0,0-.28.56A.84.84,0,0,0,10.5,21.41Z"/><path class="cls-1" d="M8.19,25.87v0C8.13,25.85,8.14,25.87,8.19,25.87Z"/><path class="cls-1" d="M6.86,28.8v-.06S6.8,28.77,6.86,28.8Z"/><path class="cls-1" d="M10.22,22c-.36.27-1,.09-.63.88l.13-.05c-.29.21-.3.75-.45,1.09a.73.73,0,0,0,.2-.05c.1-.16.23-.36.45-.68S10.13,22.43,10.22,22Z"/><path class="cls-1" d="M6.85,57.61c.11-.07,0-.36,0,0Z"/><path class="cls-1" d="M5.73,53.67c0,.13,0,.27,0,.4A1.09,1.09,0,0,0,5.73,53.67Z"/><path class="cls-1" d="M6.71,38.24l0,.07C6.73,38.35,6.73,38.28,6.71,38.24Z"/><path class="cls-1" d="M5.78,54.45l0-.38A1,1,0,0,0,5.78,54.45Z"/><path class="cls-1" d="M5.57,42.79a.14.14,0,0,0,0,.06A.08.08,0,0,0,5.57,42.79Z"/><path class="cls-1" d="M30.67,112.25c-.32-.12-.41-.36-.66-.56-.83,0,1.27.72.19.55a2.68,2.68,0,0,0,.75.28l-.19-.57C30.14,111.79,31.05,112.27,30.67,112.25Z"/><path class="cls-1" d="M18.13,58.89l.15-.06c-.19-.1-.14-.2-.68.05-.24.51.62.44.12,1.16a2,2,0,0,1,.53-.33C17.82,59.69,17.94,59.28,18.13,58.89Z"/><path class="cls-1" d="M18.25,59.71h0a.39.39,0,0,0,.15,0,1.4,1.4,0,0,1,.3-.15A1,1,0,0,0,18.25,59.71Z"/><path class="cls-1" d="M21.55,105.89l-.27-.27C21.38,105.8,21.46,105.87,21.55,105.89Z"/><path class="cls-1" d="M19.4,82.63l-.47-.13A.86.86,0,0,0,19.4,82.63Z"/><path class="cls-1" d="M26,56.57a2.65,2.65,0,0,0,.42.06l.27,0Z"/><path class="cls-1" d="M12.9,75.35c-.43-.31,0,.19-.3.63l.19.48A4.53,4.53,0,0,0,12.9,75.35Z"/><path class="cls-1" d="M31,112.57l0,0h0Z"/><path class="cls-1" d="M14.62,88.35l0,.22A.49.49,0,0,0,14.62,88.35Z"/><path class="cls-1" d="M21,58.34a15.51,15.51,0,0,1,1.88-.66l-.59.07C22.14,58.05,21.18,58,21,58.34Z"/><path class="cls-1" d="M15.36,68.65h.32a4.63,4.63,0,0,1,1.19-2.18,4.79,4.79,0,0,0,1.16-2c1-.33,1.14-.65,1.22-1s.17-.75,1.17-.9l-.13-.08a10,10,0,0,1,7.92-1.6c2.27.61,4.1,2.67,5.59,5.1l-.18.08a19.37,19.37,0,0,1,1.78,6.4,9.67,9.67,0,0,1-.89,5.65A4,4,0,0,1,33,79.67a5.19,5.19,0,0,1-2.39.61A11.35,11.35,0,0,1,27.43,80a18.14,18.14,0,0,1-3.2-1c-.84-.18-.54.44-1.32.33-.29-.15-1-.43-.86-.67.62.18.41-.19.64-.18-.92-.47-1.93-1.33-2.82-1.66l.45.72a4,4,0,0,1-1.05-.72c.21-.06,0-.61.31-.51a2.32,2.32,0,0,1-1-.44,1.53,1.53,0,0,1-.39-.49,2.29,2.29,0,0,0-1-1.14,2.78,2.78,0,0,1-1.73-.45c-.72-.36-1.48-.92-2.14-1.33-.12-.23-.21-.48-.32-.72.6.82.35-.28,1.12.7-.52-.91-1.26-1.56-1.76-2.41,0,.25-.25.34-.52,0-.24-.57,0-.79-.31-1.4l.53.47c0-.52-.51-.68-.77-1,.17-.25-.25-1.19.11-1.17-.76-.64-.75-1-1.36-1.83.15,1.08-.44-.09-.61.11.2.35.38.7.59,1-.54-1.59.27.48.67.14.16.79-1.21-.6-.53.53a8.15,8.15,0,0,1-.9-1.51,10.54,10.54,0,0,0-1-1.54c.44.88-.36-.06-.3.49-.46-1.18,0-.36.19-.84-.25-.63-.08-1-.63-1.43-.2-1.09.38,0,.4-.54.43.26.66,3,1.55,2.32.24.51.88,1,1.19,1.7a6.3,6.3,0,0,0-.79-2.43l-.57.18c-.24-.62-.67-.6-.78-1.07.25.18.32-.34.1-.82,0,.17.06.36-.06.34-.36-.92-.76-.94-1.22-2.05a14.86,14.86,0,0,1,0,2.21c-.47-.11-.25-.62-.46-1.13.08.06.13.17.16,0l-.36-.5c-.19-1.25.61,0,.53-1,.18-.76-.4-.89-.33-1.45l-.08.12c0-.12,0-.2,0-.27l0,0c-.23-.62-.28-1.32-.63-1.45.13-.09-.13-.56-.26-.76s-.66-1.19-.22-1.79c0,0,0,0,0,0,0-.83.06-1.48.25-1.32A11.82,11.82,0,0,1,6,51l.41.12C6.27,50,6,50.08,5.59,49.26a8.08,8.08,0,0,0-.06-3,1.69,1.69,0,0,0,0-.48l-.17.5c0-1-.14-.85-.1-1.48,0,.13-.07.15,0-.2,0-.11,0-.22.06-.36,0,0,0,.18,0,.32l.14-.11c.5-.71-.16-1.19.1-2a1.41,1.41,0,0,1,0,.29c.18-.44.84-1,.52-1.24a.55.55,0,0,0,0-.44l.11-.32a1.69,1.69,0,0,1-.11.32c-.08-.23-.19-.45-.1-.46a11.06,11.06,0,0,1,.26-1.14,1.9,1.9,0,0,0,.11-.76l.2-.16c.06-.42.16-.41.2-.35C7.55,36.93,7,36,7.85,34.55c-.19-.37-.49.23-.65.24a6,6,0,0,1-.06-1.73c.6-.57,1.61-2.53,2-2,.53-1.19-.48.26-.41-.42l.08-.13a2.54,2.54,0,0,1-.82.84c-.33,0,0-1.15.23-1.45l.3.39c.32-1.19-.37-1.19-.48-2.08.53-.85.67-.17,1.11-.21l.34-1,.29.14c.21-.64,0-.91.52-1.69,0,.37.2.09.42-.15s.45-.43.42.06c.33-.39-.14-.81.36-.84-.13-.47-.37.32-.59.5-.54,0,.33-1.1.52-1.7.24.08.06.5.56,0a.78.78,0,0,1,.41-.93c-.27-.17.39-.73.62-1.06-.3.35-.86.79-.93.39a3.3,3.3,0,0,1,.67-1.35l-.43.4c0-.87.91-.84,1.37-1.71a5,5,0,0,0-.24,1.09,15.86,15.86,0,0,1,.75-2l.86-.39c-.14-.24.59-.72.34-.92.82-.65-.24.87-.08,1.11.94-.88.22-1.13,1.37-1.78l0,.51c.27-.3.65-1,.8-1-.08-.07-.18.11-.34.31-.36-.63.91-1.71.31-2l-.42.4c.5-.73.6-1.51,1.24-1.84s.07.58,0,.92c.6-.56-.1-1,.68-1.66-.46.28-.55.05-.44-.29-.47.36-1.36,1.19-1,1.22l.19-.11c.09.15-.08.43-.13.6-.53.58-.47.07-.67.1-1,.9.41.52-.4,1.39l-.2,0c-.23.56-.78,1.26-.56,1.64-.67.13-.72,1.14-1.24,1.45-.4-.23-.11-.65.33-1.08s1-.89,1-1.32c-.55.37-.12-.56-.11-.91l-1,1.81c-.2,0-.95.21-.88.72l.11-.12c-.38.71.06.77-.45,1.25-.13,0-.13-.23-.15-.31-.44.47-.13.55-.3.94-.44.47-.14-.47-.53-.1-.14.79-.71.92-1,1.47.59.07-.72,2.51.41,1.6a12.58,12.58,0,0,0-.44,1.48c-.47.27-.16-1.28-.75-1.15.2-.35.44-.68.66-1-.33-.08-.61.5-.86,1.17s-.56,1.4-1.08,1.58a5.8,5.8,0,0,1-1,1.42l.62.07c-.39.52-.77.56-.88.54a6.1,6.1,0,0,1-.46,1,.74.74,0,0,1,0-.49c-.51.31-.46.49-.37.71a2.53,2.53,0,0,1-.29,1L7,27.66c0,.24-.1.55,0,.62a1.86,1.86,0,0,0-.13.46,1.94,1.94,0,0,0,.91-.64,29.12,29.12,0,0,1-1.95,3.43c-.15-.1-.18-.67-.25-.53-.29.58-.22,1.34,0,1.36a3.19,3.19,0,0,1-.09.34.8.8,0,0,0-.5.45.76.76,0,0,0-.22.36c.4.34-.15,1.45,0,1.76a5.09,5.09,0,0,0,.29-1c.16.58.39,1.1,0,1.42,0-1-.75.86-.5-.56-.83.83.25.61-.18,1.6l-.37.62c-.32-.18.06-1.14-.1-1l-.06.49c-.18-.55.49-2.25.41-3.45l-.78,2.14c-.28,2.86-1.38,6.33-.75,8.82v-.1A.48.48,0,0,0,3,44.4l-.09.1.22.49a10.08,10.08,0,0,0-.75,2.39c.23-.54.23-.54.49-.59.34.12.48.21.34,1-.25,0-.23-.49-.44.1.13-.3.3,0,.32.32-.19.45-.19,1.2-.43,1.21a.81.81,0,0,1,0-.52c-.07-.21-.19.86-.41.24l.1.82c-.19.49-.33-.31-.46-.12A27.47,27.47,0,0,0,3,53.09a2.17,2.17,0,0,0-.52,0c0,1,.76,2,1,3-.18-.13-.19-.54-.32-.85a79,79,0,0,0,1.57,9.09l.81.57c0,.3,0,.6,0,.9,1,3.2,2.59,5.31,4.56,7.76.61.78,0,.72.19,1.19a8.08,8.08,0,0,0,1.78,1.71A12.29,12.29,0,0,1,14,77.87c-.32-.08-1-.09-.38.58a.78.78,0,0,1,.85.33l-.34-.06c.23.53.78.68,1.53,1.48a12.58,12.58,0,0,0,2.46,1.38,10.91,10.91,0,0,0,2.55.6c1.5.74-.42.47-.19.71-1-.72-.78-.31-1.11-.26.63.21,1.37.42,1.51.92a4.83,4.83,0,0,0,2.14.59c-.48,0-.76-.34-.3-.37.64.36,2.45.79,2.23,1.23,1.07.18,2.13.45,3.27.58a15.32,15.32,0,0,0,3.65,0,9.67,9.67,0,0,0,6.92-4c.31-.89-.48.5-.34,0a3.11,3.11,0,0,1,.55-1,1.37,1.37,0,0,0,.41-.81c0,.16,0,.32.05.49A8,8,0,0,0,40,75.91c.29.26.38-1,.44.07,0-.63,1.46-1.37,1.19-1.93-.44.26-.88.49-1.32.71-.13-.05,0-.93-.11-.85a4.16,4.16,0,0,0,.49-1.64c.32-.22.32.78.31,1.32.57.08.27-1.87.82-1.1-.2-1.19-.27.19-.53-.5,0-.35,0-.7,0-1q0,.4-.09.81c-.26-.84-.7-1-.62-2.19-.25-.35-.51-.68-.78-1,.38-.22-.14-.82-.24-1.41l.38.27a4.48,4.48,0,0,1-.32-1.56c.51.28.17.68.56.75,0-.3-.12-.57-.18-.86-.23.09-.6-.34-.52.28a5.49,5.49,0,0,1-2-2.55c0-1,.78.67,1,.16A3.08,3.08,0,0,0,37,62,3.47,3.47,0,0,1,35.59,61c-.85-1.29-1.08-1-2.25-2,.57.1-.67-.94-.82-1.3l.72.12c-.47-.22-.84-.57-.6-.67-.06.19-.58,0-1.25-.28a8.56,8.56,0,0,0-2.09-.53l.11.37c-.89-.14-2.07-.07-3-.13-1.31.15-1,.45-1.9.92a.65.65,0,0,1-.48-.93c.38.1,1-.09,1.56,0,1.61-.4,3.19-1,4.94-.16.52-.23.22-.33-.33-.42a7.32,7.32,0,0,1-1.72-.31.18.18,0,0,1,.17,0,.81.81,0,0,1-.22-.07c.68,0,1.8.18,2.12-.12a1.63,1.63,0,0,0-1.13.07,1.63,1.63,0,0,1-1.23-.16c-1.05.08-1.87-.51-2.53-.54-.68.37-.64.94-2.22,1.14l.61-.58c-.92.17-1.08.41-1.23.61s-.27.4-1.05.65c.55-.14-.37.58.64.26A8.3,8.3,0,0,1,20.18,58c-.17.16,0,.16.05.31.95-.12,1.23-.87,2.1-.71l.47-.65c.91-.06,1.06.3.61.61a1.07,1.07,0,0,1,.6-.14c.3.66-1.05,0-1.15.67a4.33,4.33,0,0,1,.54-.21c.35.37-1.16.75-1.84,1-.85.12-1.56.42-1.78.15.32-.22.63-.45,1-.65-.68,0-1.26.81-1.81,1.17a.38.38,0,0,0-.21,0,.19.19,0,0,1,.09.05.67.67,0,0,1-.39.1c-.5.32-1.09,1-1.55,1.27l.25.18L17.08,61c.39-.37,1.11-.6.92-.2a1.62,1.62,0,0,1-1.73.62c-.09-.52.88-.82,1.29-1.29-.61-.17-1,.76-2.16,1.38,0-.72,1.13-1,1-1.53a4.08,4.08,0,0,0-.86.86,7.75,7.75,0,0,1-.84.91c0-.13.12-.4.27-.66s.3-.47.17-.56a5.78,5.78,0,0,0-.64.4c1.32-1.26-.7-.24.31-1.3a1.21,1.21,0,0,0-.59.64,1.64,1.64,0,0,1-.74.79c.36-.06,1.15-.33.68.47l-.8.66c-.49.16.33-1.16-.29-.79a8.31,8.31,0,0,0-.58,1c.14.06.51-.3.47.09-.5.39-.15,1.17-.38,1.86-.35.44-.57.82-.83.89a8.63,8.63,0,0,1-.35,1.09l-.37,1.12c-.12.38-.24.74-.33,1.1a6.54,6.54,0,0,0-.13,1c0-.92-.49-.16-.89.26.29-1-.14-1.16-.45-1.2-.18.62.14,1.17.4.92-.56.92.06.78-.5,1.55-.32.53-.37-.42-.59-.27-.33,1.1.46.45,0,1.6,0-.08,0-.19-.15-.12a1.83,1.83,0,0,0,.06,1.56c-.78.57-.21,2-.8,1.73,0,1.61.36-.2.53.14a5.87,5.87,0,0,1-.21,2.2A3.92,3.92,0,0,1,8,76.8l-.43.31c-.37,2,.84,1.28.55,3.16-.25-1-.32-.31-.63-.79.11.3,0,1.8.33.88,0,.72,0,1.22,0,1.72a4.65,4.65,0,0,0,.75,1.61A8.43,8.43,0,0,1,8.47,86c.78,2,1,4,2.25,5.88l-.05-.16c.71,1.55.15-.91.95.65-.56,0,.17,1.1.23,1.73a9.51,9.51,0,0,0,1.63,2.45,15.06,15.06,0,0,1,1.66,2.25c-.1.06-.27,0-.52-.26a11,11,0,0,0,1.28,1.69c.43.52.89,1,1.36,1.48h-.09c1.22,1.89,3.06,2.88,4.88,4.19-.19-.07-.34,0-.5,0,.8.82,2.23,2,3.14,2,.82,1.17.81.39,2,1.75,0,.12-.19,0-.3-.07A15.71,15.71,0,0,0,28.22,111c1.8.7,2.52.36,4.33,1.56-.23.67-1.26-.48-1.56,0a2.49,2.49,0,0,1,1.29.59c-.44.07-.15.11-.49.22.33.38,2,.22,2,.27.08-.11,0-.24-.42-.42.64-.14,1.93.92,3,1.21-.31-.15-1.22-.74-.71-.86,1.21.73,1.91.32,2.91.45,1.06.78-1.11.17-1.08.69.12.26.45.82-.13.77a11.87,11.87,0,0,0,3,.79l-.08.12c1.4.49,3.07.42,4.16,1l-.58-.34a4.36,4.36,0,0,0,1.42.1c-.11.21.76.66.33.74.82-.52,3.35.41,4.2-.16.35.25,0,.48-.16.62-.9-.22-1.16-.46-1.71-.28.75.16,1.27.47,1.12.61.86-.29,2.69-.15,3.14-.57.52.31,1,.5.8.85,2.37,0-1-1.26,1.6-1,1.16.48-1.22.39.43.67l-.31,0c1.15,1.06.9-.65,2.23-.56.18.54-1,.35,0,.76,1.27-.15,1.78-.9,3-.84l-.18.24c.79-.06,2.34-.16,3.12-.31.06.09-.06.1-.21.15,1.5-.06.56-.38,1.82-.25l.28-.31a4.84,4.84,0,0,0-2.51.31c.7-.4-1.26-.52-.94-1l-.12.2c-2-.56-4.4-.6-6.74-1.11a3.49,3.49,0,0,1-2-.09,7.34,7.34,0,0,0-2.11-.34c-.37.56-.33.09-1.71-.11.74.09.19-.44-.24-.63a2.42,2.42,0,0,1-1,0c-.23-.27-1.76-1.23-2.49-1-.74-.44.25-.13.47-.2-.23-.41-.73,0-.93-.26a.16.16,0,0,1,.12-.06,24.68,24.68,0,0,1-3.11-1.36c-.33.53-1.3-.29-1.94-.33.25-.1-.61-.5-.9-.77l-.85.11c-.82.05-.79-.68-1.71-.89l.15.19a6.12,6.12,0,0,1-2.53-1.89,17.85,17.85,0,0,1-6.81-4.1c-1.81-1.67-3.46-3.48-5.8-5.65-.42-.17,0,.44-.43.39a9.34,9.34,0,0,1-1-1c.23.5.33.3.15.36l.76.55c0,.06-.08,0-.08.12a5.3,5.3,0,0,1,.85.66c-.52-.27-.94-.09-1.37-.77.09,0,.17.06.34.18-.41-.49-.6-.36-.84-.8s-.32-.31-.23-.5c-.33-.52-.69-1-1-1.55a2.06,2.06,0,0,1-1-1c-.19-.39-.27-.76-.34-.89.44-.07.78.91,1.39,1L18,94.66l-.29.16c-.16-.26-.3-.53-.45-.8h.08c-.16,0-.33,0-.37-.29,0-.06,0-.18.11-.11l-.52-.44c.48.14-.22-.53.16-.66a8,8,0,0,0-.68-1.14c-.21-.31-.4-.57-.59-.83a3.74,3.74,0,0,1-.82-2c0,.35-.83-.28-.93-.85,0-.34,0-.44.24-.3l-.43-.62a3,3,0,0,0-.06-1.45,6,6,0,0,1-.33-1.69l.18,0A3,3,0,0,1,12.75,82l.35.09c.15-.92-.82-.61-.65-1.64-.38,0-.53.68-.84.82.31-.28.35-1.39.09-1.12-.19-1,0-.72.07-.81a6.37,6.37,0,0,1-.23-.61c.05-.73.49-.22.69,0a3.1,3.1,0,0,1,.06-2.14l.13.32.18-1a3.65,3.65,0,0,1,.24-2.36l.36.66c.36-.51-.1-.32-.15-.49,0-1,.37-1.05.75-1.43a3,3,0,0,1,.8-1.94C15,69.85,15.44,69.37,15.36,68.65ZM6.41,38.57l-.1.13C6.29,38.35,6.26,38.15,6.41,38.57ZM5.27,47.22c-.16-1.06.06-.72.19-.79-.15,1,0,1.61-.19,2.52a.58.58,0,0,1,.31-.22,1.08,1.08,0,0,1-.35.86C4.68,49.13,5.57,46.76,5.27,47.22ZM7.41,27.15a.94.94,0,0,1,0,.16h0ZM5.88,32.39a.63.63,0,0,0-.31.3C5.73,32.63,5.86,32.57,5.88,32.39ZM3,42.85c-.22.23-.21.81-.2,1.23A9.31,9.31,0,0,0,3,42.85Zm36.85,31.9c.08.34.18,1,.4.44-.15-.31.16-.86-.09-1.12l0-.06A4.44,4.44,0,0,0,39.86,74.75Zm-21-14c-.07-.2,0-.51-.2-.55l.08,0c-.1,0-.19,0-.16-.08a1.77,1.77,0,0,0-.61.38C18.29,61,17.92,61.41,18.87,60.75Z"/><path class="cls-1" d="M29.05,55.71l-.36-.05Z"/><path class="cls-1" d="M18,60.43s.29-.08.64-.23C18.56,60.18,18.38,60.23,18,60.43Z"/><path class="cls-1" d="M18.77,13.89l-.16.27.55-.31a1.75,1.75,0,0,0,.35-1.53,13.68,13.68,0,0,1-1.67,2.11Z"/><path class="cls-1" d="M16.84,12.82a1.59,1.59,0,0,0-.6.17l0,.25Z"/><path class="cls-1" d="M8.67,22.6l.64-.82C9.32,21.41,8.48,22.31,8.67,22.6Z"/><path class="cls-1" d="M13.85,20.56c0-.18.06-.37.1-.54-.41.27-.7.82-.56,1C13.6,20.46,13.58,21,13.85,20.56Z"/><path class="cls-1" d="M7.36,25c.21.45-.6.86-.36,1.2C7,26,7.69,25.25,7.36,25Z"/><path class="cls-1" d="M11,26c.45-.12.4-.7.77-1.19C11.49,25.27,10.8,25.72,11,26Z"/><path class="cls-1" d="M6.23,30.49c-.25-.14-.08-.54.16-1a1.57,1.57,0,0,1,.06.54,14.39,14.39,0,0,1,.28-1.49c-.42.52-.9,1.37-1.18,1.15C5.61,30.27,5.8,31,6.23,30.49Z"/><path class="cls-1" d="M10.37,27.37c.32-.41.68-.57.91-1.13-.21,0-.55.07-.81.73l-.19-.37C9.79,27.1,10.78,26.55,10.37,27.37Z"/><path class="cls-1" d="M4.58,33.05l.24-.27c0-.79.43-1.67.18-2.21A8.43,8.43,0,0,0,4.58,33.05Z"/><path class="cls-1" d="M8.83,29.42l.38.26c.32-.63-.16,0-.16-.29a1,1,0,0,0,.26-.6C9.07,29.57,9,28.7,8.83,29.42Z"/><path class="cls-1" d="M8.45,31.78l-.1.92L9,32.19C9.21,31.14,8.79,32.05,8.45,31.78Z"/><path class="cls-1" d="M7.81,32.74l-.11.07c.07.51.11,1,.21,1.5A7.39,7.39,0,0,0,7.81,32.74Z"/><path class="cls-1" d="M2.3,49.1c.19.16.43-.69.21-.33C2.34,48.61,2.13,49.75,2.3,49.1Z"/><path class="cls-1" d="M6,45.83A6.22,6.22,0,0,0,6.19,48C6.11,47.37,6.24,45.75,6,45.83Z"/><path class="cls-1" d="M6.23,48.25s0-.13,0-.22A.87.87,0,0,0,6.23,48.25Z"/><path class="cls-1" d="M13.08,69.39a.45.45,0,0,0,.13.11Z"/><path class="cls-1" d="M12.71,69c-.13-.34-.6-.88-.84-.88a10.85,10.85,0,0,0,1.21,1.27C12.93,69.19,12.9,68.86,12.71,69Z"/><path class="cls-1" d="M15.64,73.1c-.26-.12-.44-.44-.52-.25S15.66,73.32,15.64,73.1Z"/><path class="cls-1" d="M41,69.68c0-.61-.18-.94-.42-.72C40.73,69.62,40.82,69.22,41,69.68Z"/><polygon class="cls-1" points="40.34 68.23 40.45 68.12 40.55 67.67 40.34 68.23"/><path class="cls-1" d="M39.31,64.24a.53.53,0,0,1,.21.18C39.39,64.22,39.27,64.06,39.31,64.24Z"/><path class="cls-1" d="M39.58,64.52l-.06-.1Z"/><path class="cls-1" d="M39.61,64.8h.16c-.05-.06-.12-.17-.19-.27C39.64,64.62,39.67,64.73,39.61,64.8Z"/><path class="cls-1" d="M38.8,63.1c0,.3,0,.6,0,.9.55.64-.21-.93.55-.41Z"/><path class="cls-1" d="M37.22,60.75c-.33-.75-1.61-1.17-1.55-1.84-.92-.73-1-.46-1-.26s-.15.36-1.19-.36c.85.84,1.19.89,1.56.91s.73,0,1.3.95C35.89,59.14,37,60.53,37.22,60.75Z"/><path class="cls-1" d="M36.74,61.54c.28,0-.26-.85-.59-1C36.32,60.8,36.3,61.4,36.74,61.54Z"/><path class="cls-1" d="M34,57.66l-.47-.59-.26,0C33.52,57.27,33.75,57.47,34,57.66Z"/><path class="cls-1" d="M31.66,56.12a7,7,0,0,1,.79.07C32.19,56.15,31.19,55.69,31.66,56.12Z"/><path class="cls-1" d="M27.9,54.73c-.7-.16-1.32.48.09.44l-.32-.06C27.77,55,27,54.71,27.9,54.73Z"/><path class="cls-1" d="M19.88,57.38c.37-.17.78-.45.65-.54-.33.2-.66.4-1,.61Z"/><path class="cls-1" d="M20.74,58.8c.48.23.85-.44,1.54-.53A4.71,4.71,0,0,0,20.74,58.8Z"/><path class="cls-1" d="M18.45,57.48c.18-.31.67-.45.94-.55C19.16,56.78,18.47,57.22,18.45,57.48Z"/><path class="cls-1" d="M17,58.6c-.4.08-.07-.23-.37-.16A2.91,2.91,0,0,0,15,59.82c.28,0,.81.17.7.53.8-.93.92-1.9,1.77-1.77.15-.4.31-.8.49-1.21C17.07,57.85,17.61,58.24,17,58.6Z"/><path class="cls-1" d="M19.83,58.44c-.22,0-.45.06-.68.1.24.14-.18.4-.41.67C19.15,59.55,19.51,58.63,19.83,58.44Z"/><path class="cls-1" d="M12.34,63.73A9.77,9.77,0,0,0,11.67,65l.26-.37A8.48,8.48,0,0,1,12.34,63.73Z"/><polygon class="cls-1" points="11.69 64.37 11.54 64.32 11.22 65.39 11.69 64.37"/><polygon class="cls-1" points="10.77 65.55 10.88 65.42 11.19 64.63 10.77 65.55"/><path class="cls-1" d="M9.38,68.15l.3-.16c.1-.34.63-.88.33-.94A2.22,2.22,0,0,1,9.38,68.15Z"/><path class="cls-1" d="M13,77.81c-.14-.21-.28-.1-.41,0l.36.34C12.9,78.08,12.87,77.88,13,77.81Z"/><path class="cls-1" d="M12.3,79.17l.47.84c0-1-.32-1.1-.35-2-.14.36.12.87,0,1.33Z"/><path class="cls-1" d="M17.84,95.32c-.27.1-.12.24-.67-.18.71.61,1.1,1.29,1.84,2,0-.25.75.13.43-.12s-.59-.5-.88-.77l.26,0C18.49,95.55,18.25,96.1,17.84,95.32Z"/><path class="cls-1" d="M59.12,118.22c-.11.14.05.25.21.36C60.08,118.38,59,118.26,59.12,118.22Z"/><path class="cls-1" d="M19.14,26.07c.34.1.12,0,.08-.08Z"/><path class="cls-1" d="M19.22,26l.07,0C19.23,26,19.21,26,19.22,26Z"/><path class="cls-1" d="M19.55,25.47c.25.17-.15.27.26.41C20.09,25.78,20,25.57,19.55,25.47Z"/><polygon class="cls-1" points="19.24 25.63 19.47 25.68 19.13 25.51 19.24 25.63"/><polygon class="cls-1" points="19.02 25.68 19.11 25.67 18.89 25.46 19.02 25.68"/><path class="cls-1" d="M19.77,25.07l.05.13c-.33.08-.41-.14-.64-.09,0,.16.65.15.52.34.3,0,0-.32.51-.22C20.38,25.08,19.93,25.18,19.77,25.07Z"/><path class="cls-1" d="M18.33,17h0Z"/><path class="cls-1" d="M18.3,14.88l.1,0h-.13Z"/><path class="cls-1" d="M19,18.47l-.13.06C19,18.53,19,18.51,19,18.47Z"/><path class="cls-1" d="M19.19,8.83l.08-.22h0l-.09.21Z"/><path class="cls-1" d="M17.61,14.49l-.05,0Z"/><path class="cls-1" d="M19,19.23v0l-.05,0Z"/><path class="cls-1" d="M17.57,15.47s.07,0,.07-.07A.15.15,0,0,0,17.57,15.47Z"/><path class="cls-1" d="M20.57,23.19c.05,0,0-.07,0-.1S20.45,23.13,20.57,23.19Z"/><path class="cls-1" d="M20.63,22.43h0C20.69,22.44,20.68,22.43,20.63,22.43Z"/><path class="cls-1" d="M20.74,22h0S20.8,22,20.74,22Z"/><path class="cls-1" d="M20.54,23.09c.2,0,.79,0,.15-.14H20.6c.16,0-.09-.13-.1-.19h-.16a.36.36,0,0,1-.09.12C20.11,22.92,20.41,23,20.54,23.09Z"/><path class="cls-1" d="M18.45,17.05c-.12,0-.06.05,0,0Z"/><path class="cls-1" d="M18.85,17.77l0-.06S18.83,17.74,18.85,17.77Z"/><path class="cls-1" d="M18.33,20.19h0C18.29,20.17,18.3,20.18,18.33,20.19Z"/><path class="cls-1" d="M18.89,17.65s0,0,0,.06S18.92,17.68,18.89,17.65Z"/><path class="cls-1" d="M18.79,19.5h0Z"/><path class="cls-1" d="M8.66,11.94c0-.07.11.08.17.11-.07-.44-.19.07-.21-.34,0,0,0,.08-.06.15l.22.36C8.8,12,8.67,12.11,8.66,11.94Z"/><path class="cls-1" d="M18.82,8l0,0c0-.25.08-.35,0-.42-.18.46-.19,1-.43,1.5,0-.06.07-.07.1,0A3.71,3.71,0,0,1,18.82,8Z"/><path class="cls-1" d="M18.51,9.12v.16s0,0,0,0A.27.27,0,0,0,18.51,9.12Z"/><path class="cls-1" d="M10.18,11.49h.06C10.19,11.44,10.17,11.45,10.18,11.49Z"/><path class="cls-1" d="M23.28,11.75l.13,0S23.34,11.73,23.28,11.75Z"/><path class="cls-1" d="M20.09,7.71a.1.1,0,0,0,0,.07l.06-.06Z"/><path class="cls-1" d="M16.89,14.24c-.16-.44,0,0-.12-.2l.07.25C16.89,14.34,16.88,14.26,16.89,14.24Z"/><polygon class="cls-1" points="8.55 11.84 8.56 11.87 8.56 11.86 8.55 11.84"/><path class="cls-1" d="M15.11,15.27l-.06,0S15.09,15.27,15.11,15.27Z"/><path class="cls-1" d="M18.92,9.11l.3-.16,0-.12C19,9.21,19.1,8.66,18.92,9.11Z"/><path class="cls-1" d="M17.16,14.4l0,.32c0-.34,0-.28,0-.24s0,0,.09-.49c-.07.61,0,.34,0,0s.16-.64.05-.07l0-.19c.08.05.07.25.05.36s0,.13.31-.35l-.22.37-.05.09c-.12.23-.11.22-.06.21s.09,0,0,.13c.2-.11.69-.4.93-.5,0,0,0,.06-.27.19s-.38.19-.49.24-.28.16,0,0l.34-.16c.14,0,0,0,0,0l-.62.22c.83-.22-.36.13,0,0a3.28,3.28,0,0,1,1.72,0l-.19.06c0-.08-.49,0-.45-.08-.2.06.08.12,0,.18a1.3,1.3,0,0,1,.46.07c-.1,0-.44,0-.49.13l-.19-.14c-.26,0,.06.15.09.23-.28,0-.35.14-.66.07.36.2.14.23.35.42.32-.12.36.1.6.11l-.08-.2c-.23.24,0-.1-.52-.15.24-.09.76.29.71.07.21.28,0,.31.35.62-.07-.17.3.08.46,0,0,.2-.18,0-.49,0,0,.11-.28.11.06.26-.17.15-.35-.08-.56,0-.32-.11.47-.43-.58-.53,0-.09-.38-.26-.34-.39-.15.1-.52.21-.3.39l.59.09c0,.11.39.19.33.26s-.42,0-.39.07.08-.05.18,0c0,.17.42.25.5.45a2.75,2.75,0,0,1,.63-.25c.41.1.05.11.08.2a.16.16,0,0,0-.14,0l.18.12c-.2.17-.59-.11-.81,0s.17.18,0,.24h.11a.08.08,0,0,1,0,0h0c.05.12,0,.22.3.3-.14,0,0,.09.12.14s.46.27,0,.28h0a.37.37,0,0,1-.41.15l-.15.19-.4-.08c.08.21.32.22.71.41-.25.1-.1.37,0,.48,0,0,0,0,0,.08l.17-.06c0,.15.18.16.16.26s.07,0,0,0l0,.05s0,0,0-.05h-.14c-.44.06.22.22.05.33,0,0,0,0,0-.06s-.7.08-.36.16c0,0,0,.05.11.08l-.07.05.07,0c.11,0,.24.1.16.09l-.1.17c-.06,0,0,.08,0,.13h-.17c0,.07-.08.05-.13,0-.61.15.25.4-.29.58a1.32,1.32,0,0,0,.56,0,2,2,0,0,1,.52.34c-.4.05-.78.35-1.33.22-.07.2.35,0,.53.11l0,0a1.09,1.09,0,0,1,.49-.1c.3,0,.37.22.27.26l-.42-.1c.12.22.77.27,1.18.45-.19.12-.57,0-.95,0l.08.17-.32,0c.07.12.37.18.22.31-.28-.15-.32.17-.71,0-.12.06.5.17.07.16.33.1.18-.05.29-.08.49,0,.21.21.32.32-.25,0-.29-.1-.47,0,.19.05.33.14.08.17.32.05,0,.14,0,.2a.7.7,0,0,1,.59-.05c.12.07.18.13.12.25l.16-.06c.45.17-.37.13-.24.3a3.6,3.6,0,0,0-.4-.22,4.42,4.42,0,0,1,.48.4l-.48.06c.23.05,0,.14.28.19-.24.12-.37-.19-.6-.23-.24.16.51.23,0,.35l-.29-.1c0,.06.12.21,0,.2.11,0,.07,0,.07-.07.64.13.41.36,1.07.43l.06-.08c.1.15.54.31.29.38s-.44-.12-.6-.19c-.06.12.71.21.62.35a.67.67,0,0,1,.51.05c.06-.08.21-.24-.07-.25l-.07,0a1.25,1.25,0,0,1-.31-.12c0-.12.31,0,.44,0,.13-.19-.66-.11-.61-.29h.13c-.16-.11-.16-.25-.56-.33.44,0-.14-.23.12-.28.94.12-.1.3.39.48.21-.07.44.12.65.19l-.36-.36c.13,0,.61,0,.28-.14l0,0c-.09-.14-.48-.16-.33-.25a1.23,1.23,0,0,1,.29.07c.1-.08-.2-.11-.28-.19.1-.08.38.11.5,0-.35-.16.11-.16.1-.26-.54,0-.67-.49-1.17-.35l-.33-.28c.29,0,.72.27,1.18.27l-.05.18c.67.06-.37-.45.38-.47,0-.09-.05-.08.3-.22l-.59-.05a1.32,1.32,0,0,1,.58-.05.15.15,0,0,1,0-.16c.09,0,.17.06.19.1.34,0,.22-.07.05-.12s-.11-.12-.1-.18l.21.09a.38.38,0,0,0-.21-.12.12.12,0,0,0,0-.08,3,3,0,0,0-.62.06c.27-.19.16-.38.68-.5.17,0,.37.14.39.12s-.18-.23-.44-.26a.14.14,0,0,1,0-.06c.15,0,.31,0,.34,0s.11,0,.13,0c-.46-.1-.2-.25-.41-.32a.14.14,0,0,0-.05.15c-.3-.12-.65-.24-.39-.27.28.19.51-.08.61.15.62-.06-.41-.14-.18-.27l.25-.07c.34.07.15.2.28.19l0-.08c.25.11,0,.36.4.58l.24-.31c-.35-.48.19-.94-.5-1.4h0l-.22,0h.09l-.25-.1c.33,0,.42-.18.69-.27a1,1,0,0,1-.48,0c-.34-.07-.48-.1-.34-.2s.23.11.43,0c-.12,0-.29,0-.31-.09.16,0,.21-.15.46-.12.06,0,0,.06-.07.07s.24-.09.42,0l-.05-.13c.21-.05.31.09.45.08-.14-.23-.68-.41-.82-.62l.51.08c.18-.11-.54-.38-.56-.55.15.05.08.1.15.16.28-.46.34-.86.92-1.25l-.54-.2.39-.07a.71.71,0,0,0,.21-.65c0-.11-.06-.21-.09-.34s-.06-.36-.08-.54.42-.13.59-.24c.15-.55-.48-.62-.55-1,.17,0,.65.05.71-.17-.17,0-.43,0-.31-.13l.18,0c.28-.19,0-.24.19-.54.06-.46-.3-.75-.93-.7.11-.38.65-.32.79-.45-.26.39.08.13.28.1-.15-.08-.23-.19.22-.51,0-.2,0-.32-.23-.34.14,0-.11.24-.3.27.18-.26.06-.56.62-.93,0-.94.32-2.18.45-3.26-.29.17-.14.27-.35.42-.37.21.24-.44-.05-.27L24,6.82c.09-.38-.48,0-.75.18.37-.44.35-.64.54-.69,0,0,1.71-2.5,1.37-2.17l-1.63,2.3c-.16.2,0-.12-.14,0a12.43,12.43,0,0,0,.74-1.3c.42-.61.3-.25.27-.11.68-.89.5-1.05,1.1-1.71-.07-.15-.35.53-.58.7l.18-.47-.26.52c-.17.08-.69.77-.27-.05l-.64.73c.55-.84.13-.35.27-.65l.35-.46c0-.14.07-.31.29-.74.5-.69-.12.32.35-.36l.18-.45a13.22,13.22,0,0,0-.78,1.22l-.26.35a7.73,7.73,0,0,1-1.35,1.62c.35-.73.65-.87,1.1-1.67-.24,0-1.82,2.51-1.95,2.54-.08-.15-.48.58-.76.79.37-.58.12-.44.32-.9l.4-.62c-.18.22-.17.08.06-.32A6.55,6.55,0,0,1,21,6.51l-.24.55c-.24.29-.58.76-.67.72a7.82,7.82,0,0,0-.8,1.42,9.64,9.64,0,0,1,.57-1.57c-.05.23.12,0,.15.1.46-.63,1.27-2,1.48-1.95.84-1.5-.31.32-.24-.06a.55.55,0,0,1,.09-.14s0,0,0,0a7,7,0,0,0,.91-1.36c-.32.31-.82,1.5-.82,1.09-.36.5-.08-.43-.18-.43-.35.59-.77,1.62-1,1.62l.41-.8c-.38.24-.56,1.15-.86,1.32.08,0-.33.74-.14.63-.23.43-.43.62-.53.52a2.59,2.59,0,0,0-.14.46c0,.36.39-.62.29,0l.37-.81a2.42,2.42,0,0,1-.35,1.12c.05-.05.12-.18.1-.06-.41,1.13,0-.31-.4.67l.11-.13c-.23.72-.39.74-.48.75a1.75,1.75,0,0,1,.05-.79L18.91,9c0-.34-.31.38-.4.42a.37.37,0,0,0,0-.14.69.69,0,0,1,0,.13s0-.06,0-.16-.29.4-.34.31l-.07.4.06-.24c.08,0,.12.16,0,.51s-.1-.39-.09-.71c.15-.64.19-.11.33-.39.07-.58-.19.06-.34-.2.2-.72.26-.16.43-.81-.18,0-.31.52-.49.48.07-.32.28-.48.34-.87l-.12-.09c.38-.28.05-.77.39-1.14-.11-.16-.29.68-.45.41A1.53,1.53,0,0,1,18,8l-.19,0c-.06-.24.31-.83.19-1l-.27.37c0,.19.1.21,0,.51-.12-.12-.27.83-.4,1.17-.1,0-.19.06-.22-.12-.27.68-.58.84-.73,1.42a.66.66,0,0,0-.24-.72c.18-.18.11-.69.05-1a1,1,0,0,0,0,.82c-.24-.08-.06.41-.3.19s-.06-.51-.14-.67c-.24.11.08.62-.18.63,0-.07,0-.1,0-.17s-.24.27-.18.5c-.35-.51-.35.27-.55-.3-.25.32.18.27.2.5s-.33.24-.43.19c.05-.05.05-.24.17-.19l-.25-.34c-.29,0-.16.18-.11.41s.13.44-.07.34c0-.25-.11-.3-.18-.59,0,.11-.23.1,0,.33a.65.65,0,0,1-.3-.06,1.66,1.66,0,0,0,0,.6c-.15,0-.38-.19-.52-.32-.12.4-.6.06-.73.48l0,0c-.25,0,.34.44.11.54-.2-.47-.29-.24-.48-.45-.39-.1-.31.57-.72.38,0-.1-.08-.22,0-.26-.26-.05-.38.12-.57.17v-.06c-.46-.25-.5.32-.75.56,0-.07-.07-.24-.08-.31-.2,0-.46,0-.38.46-.37-.38-.06.19-.47-.16-.05-.07,0-.08,0-.11-.17-.11-.23,0-.37,0-.12.4.07,1-.3,1-.27-.64.12-.23-.09-.75,0,.14,0,.29-.15.17a4,4,0,0,0-.11-.41c-.13-.14,0,.77,0,.71,0,.13.1.19.15.15.09.42-.28.15-.35.36.05,0,.24.06.31.39-.25-.06-.06.58-.1.89-.29-.22-.08-.59-.29-1a1.79,1.79,0,0,1-.31-.69c-.19,0-.15.39-.26.55l0-.13c-.17.13-.17.77-.44.57l.14.11c0,.09-.11.09-.07.38-.08-.22-.28-.36-.29-.56.17.72-.3.59-.16,1.27A1.8,1.8,0,0,1,6.37,14c.15,0,.24.14.21-.16-.1.05-.24-.1-.28-.26,0,.46-.14.72,0,1.16a1.24,1.24,0,0,1-.37-.64c-.25.34.55,1.05.18,1.17-.29-.29,0-.53-.28-.56l0-.07c-.49-.87.11.69-.09.73-.2-.49,0-.4-.25-.72-.13.19,0,1-.19.86l0-.23c-.1.08-.35.05-.45.13,0-.1,0-.09,0-.13-.27-.12,0,.29-.29,0l0,.26c.14.14.39.34.4,0,0,.33.38.58.47,1l0-.18a2.06,2.06,0,0,0,1.4.76c0-.59.46.07.58-.37-.17-.6,0-.13.18-.33-.09.11.14.45.24.5a.6.6,0,0,1,0-.31c.12.18.56.55.51.12.2.14,0,.2.06.33.16.28,0-.27.13-.09a.19.19,0,0,1,0,.1c.19-.1.37,0,.6,0-.2-.58.12-.29.13-.53.05.19.2.16.3.25l-.06-.47c0-.4.26.2.32-.05l-.08-.09c0-.21.44,0,.67.28.47-1.49,1.72,0,2.58-.75,0-.19-.18-.26-.24-.53.07-.11.1-.09.19-.14-.15-.11-.05.06-.11-.09l-.07.21s0-.06-.06-.13,0,.21-.1.21c0-.19-.15-.61,0-.5a.19.19,0,0,1,0,.13c.11,0,0-.21.14-.13s0-.07.15.1l.37.09c-.09-.55.3-.16.36-.14.15.38-.13.2,0,.59l.22.22-.13-.3.18,0,0,.06c0-.13-.08-.25,0-.16s.08.11.07.13l0-.21c.09.33.13.05.29.4.41,0,.19-.67.71-.34-.13-.14-.18-.59-.06-.57a.39.39,0,0,1,.18.28l0-.24c.41.47.38.05.69.12L16,15c0-.22,0-.4.15-.41l.13.31c.26.14-.22-.69,0-.58-.17-.32-.35-.44-.53-.73.21.31.41.27.24,0,.09-.21.12,0,.17,0V13.4c.12,0,.26.4.32.61-.06-.41.11-.19.17-.16l.06.16.08,0c-.08-.28,0-.34.07-.22l.12.49c.11.23,0-.17-.05-.26,0-.25.08.06.16.33C17.06,13.81,17.23,15.19,17.16,14.4Zm1.41,5.76h.07C18.72,20.21,18.79,20.25,18.57,20.16Zm.33-1.35c.16.19-.06.11-.19.1.15-.14,0-.25.19-.38h-.31c0-.06.15-.1.39-.09C19.45,18.58,18.61,18.84,18.9,18.81Zm1.91,3.42-.1,0h0Zm-.31-.88a.48.48,0,0,0,.21,0C20.58,21.32,20.47,21.32,20.5,21.35Zm.82-1.54c.21,0,.16-.1.12-.17A.36.36,0,0,0,21.32,19.81ZM22.88,7.24a1.8,1.8,0,0,0,.52-.61c-.21.22.18-.39-.14,0l0,0ZM18.1,10.79c.07-.26.17-.57.2-.77h0a1.24,1.24,0,0,1,0-.22s-.05-.07-.09,0C18,10.73,18,10.87,18.1,10.79Z"/><path class="cls-1" d="M21.44,5.51a.29.29,0,0,0-.08.07Z"/><path class="cls-1" d="M18.26,9.83a.34.34,0,0,0,0,.19C18.32,9.91,18.31,9.84,18.26,9.83Z"/><path class="cls-1" d="M18.28,24.58l-.06-.06-.2.07a1.59,1.59,0,0,0,.78.32c-.28-.18-.12-.25-.18-.44Z"/><path class="cls-1" d="M20.42,24.8a1.48,1.48,0,0,0,.33,0l-.19-.06Z"/><path class="cls-1" d="M21.62,23l-.2.13C21.59,23.24,21.91,23.11,21.62,23Z"/><path class="cls-1" d="M18.16,23.24l.2.11c.18-.05.17-.15-.06-.2C18.42,23.27,18.17,23.16,18.16,23.24Z"/><path class="cls-1" d="M21.71,22.64c-.37-.1.2-.12-.16-.21C21.65,22.49,21.33,22.58,21.71,22.64Z"/><path class="cls-1" d="M18.06,22.23c-.37,0-.06.13-.16.21C17.91,22.36,18.31,22.3,18.06,22.23Z"/><path class="cls-1" d="M20.74,21.68c.28,0,.25.1.17.17a1.38,1.38,0,0,1-.24-.11,1.55,1.55,0,0,1,.26.26,1.19,1.19,0,0,1,.69-.13A1.69,1.69,0,0,0,20.74,21.68Z"/><path class="cls-1" d="M18.05,22c-.12.06-.38.07-.37.17.19,0,.47,0,.44-.1l.32.09C18.69,22.09,18,22.14,18.05,22Z"/><path class="cls-1" d="M21.55,21.34l-.16,0c.24.15.09.27.49.39A.6.6,0,0,0,21.55,21.34Z"/><path class="cls-1" d="M18.7,21.69l-.45-.08c-.07.1.15,0,.25.07-.06,0-.11.06,0,.1C18.42,21.64,18.83,21.82,18.7,21.69Z"/><path class="cls-1" d="M18.26,21.25l-.17-.17-.51.05C17.73,21.32,17.86,21.17,18.26,21.25Z"/><path class="cls-1" d="M18.58,21.12h.09L18,20.81A2.13,2.13,0,0,0,18.58,21.12Z"/><path class="cls-1" d="M21.85,18.93c-.19-.05-.45,0-.22,0S22.05,18.86,21.85,18.93Z"/><path class="cls-1" d="M18.2,18.94c.15,0-.09-.28-.21-.39C18.07,18.67,17.94,18.92,18.2,18.94Z"/><path class="cls-1" d="M17.94,18.51l0,0A.11.11,0,0,0,17.94,18.51Z"/><path class="cls-1" d="M17.47,14.75h0Z"/><path class="cls-1" d="M17.58,14.79c-.07.05,0,.19.23.24l-.12-.16a.3.3,0,0,0-.22-.12S17.35,14.75,17.58,14.79Z"/><path class="cls-1" d="M17.7,14.66H18C18,14.64,17.83,14.64,17.7,14.66Z"/><path class="cls-1" d="M25,3.45c.15-.34.06-.28-.3.28C24.66,3.89,24.89,3.49,25,3.45Z"/><polygon class="cls-1" points="24.63 3.66 24.81 3.38 25.1 2.87 24.63 3.66"/><path class="cls-1" d="M24.9,2.46a3.15,3.15,0,0,1,.22-.29A1.2,1.2,0,0,0,24.9,2.46Z"/><path class="cls-1" d="M25.17,2.12l-.05,0Z"/><path class="cls-1" d="M25.11,2.26l.21-.32-.15.18S25.21,2.1,25.11,2.26Z"/><path class="cls-1" d="M24.68,2.55l-.37.76c.45-.55.08-.32.84-1.37Z"/><path class="cls-1" d="M23.92,3.2c0-.16-1,1.3-.54.39-.74.81-.8,1.55-1.47,2.22.16.21,1.24-2,1.38-1.75C23.42,3.6,23.7,3.49,23.92,3.2Z"/><path class="cls-1" d="M23,4.83c.32-.52.15-.44-.1-.07C22.94,4.78,22.62,5.42,23,4.83Z"/><polygon class="cls-1" points="22.75 4.25 22.79 3.98 22.6 4.31 22.75 4.25"/><path class="cls-1" d="M22.3,4.43l.41-.63C22.55,4,22.35,4.14,22.3,4.43Z"/><path class="cls-1" d="M21.8,4.32c-.08-.07-.69,1.14-.3.71h0C21.56,4.84,21.57,4.54,21.8,4.32Z"/><path class="cls-1" d="M19.42,7.16a.83.83,0,0,0,.26-.43l-.29.36Z"/><path class="cls-1" d="M18.72,9.57c-.14.58.15-.13.19,0C18.84,9.53,18.88,9.43,18.72,9.57Z"/><path class="cls-1" d="M19.4,6.48c.13-.29.19-.2.24-.2C19.71,6,19.51,6.16,19.4,6.48Z"/><path class="cls-1" d="M19,6.93c0-.18.09-.34.06-.45s-.33,0-.48.39A3.86,3.86,0,0,1,18.37,8c.27-.34.65-1.49.59-.76l.48-1.16C19.25,6.06,19.09,6.89,19,6.93Z"/><path class="cls-1" d="M18.93,8.57V8.29a1.7,1.7,0,0,1-.25.58C18.5,9.6,18.85,8.66,18.93,8.57Z"/><polygon class="cls-1" points="17.46 8.25 17.17 8.56 17.26 8.54 17.46 8.25"/><polygon class="cls-1" points="17.28 8.16 17.27 7.99 17.05 8.45 17.28 8.16"/><polygon class="cls-1" points="16.96 8.14 17 8.15 17.18 7.89 16.96 8.14"/><path class="cls-1" d="M16.32,8.41l.09.2c.07-.11.24.08.2-.24C16.55,8.52,16.39,8.57,16.32,8.41Z"/><path class="cls-1" d="M16.91,14.55c-.06-.13-.12-.24-.19-.36a2.55,2.55,0,0,1,.14.35S16.87,14.48,16.91,14.55Z"/><path class="cls-1" d="M16.43,14.11l.07.45c.18,0,.05-.33.15-.46-.12-.09-.06.22-.18.16Z"/><path class="cls-1" d="M13.58,15.16c-.1-.25-.12-.2-.09-.41-.07.22-.21.22-.35.33.1.15.11.48.14.38l.1-.23.06.18C13.65,15.54,13.39,15.09,13.58,15.16Z"/><path class="cls-1" d="M5.35,15.32A1,1,0,0,0,5.21,15C5.15,15.15,5.37,15.28,5.35,15.32Z"/><path class="cls-2" d="M89.42,121.4a10.06,10.06,0,0,1-5.84-11,9.72,9.72,0,0,1,9.65-7.65c-.3-9.44,6.59-18.22,15.26-21.2s18.51-.72,26.08,4.56C135.8,82.08,140,80,144,79a40.65,40.65,0,0,1,33.62,6.41A28.55,28.55,0,0,1,200,76.55a28.84,28.84,0,0,1,21.08,11.92,26.4,26.4,0,0,1,43.26-1.26A20.64,20.64,0,0,1,284.5,77c4.29-2,9.16-.13,13.72,0s9.24,6.08,11.17,10.35C319.24,76,334.73,72.46,346.25,82c1.6,1.33,7.76,5.83,6,7-2.21,1.46,8.75-6.69,12-6,9.43,2,16.29,14,9.31,22.42,5.74.23,10.63,6.19,9.91,12.08s-6.89,10.41-12.5,9.16C366.91,142,350,147.39,335,143.75c-6.5-1.57-19.66-7.77-19.66-7.77s-11.24,7.94-14.57,9c-11.68,3.7-20-.66-29.16-9-9.82,10.88-29.24,13.7-38.43,2.25-15.44,10.08-31,9.79-46.47-.25-2.69,5.3-13.94,8.65-19.68,9.41s-11.55-.4-17.22-1.59c-5.34-1.13-11.73-3.34-12.73-8.88-6.2,3.15-12.71,6.36-19.61,6.17s-14.21-5-14.89-12.09a10.24,10.24,0,0,1-13.09-.77c-3.45-3.38-2.33-5.17.31-9.25"/><path class="cls-3" d="M90.17,120.1c-7.84-3.82-6.11-15.65,3.06-15.88a1.52,1.52,0,0,0,1.5-1.5,21.17,21.17,0,0,1,13.06-19.3c8.77-3.66,18.41-1.09,26,4a1.52,1.52,0,0,0,2.2-.9c2.93-7.15,14.19-7.61,20.67-7.16a40.33,40.33,0,0,1,20.15,7.35,1.51,1.51,0,0,0,1.82-.23,27,27,0,0,1,41.17,2.78,1.52,1.52,0,0,0,2.59,0c10.2-14.2,30-14.45,40.91-1a1.51,1.51,0,0,0,2.35-.3c4.8-8,11.71-8.94,20.05-9.83,4.39-.47,9.5-.7,13.82.77,4.1,1.4,6.73,5.45,8.56,9.18a1.5,1.5,0,0,0,2.35.31c6.1-6.73,14.67-11.55,24-10.16,4.43.66,8.05,2.72,11.53,5.45,1.05.81,2.1,1.64,3.07,2.55s1.54,1.87,2.14,1.62L353,90.21c2.6-2.33,7.88-5.95,11.39-5.62,9.35.89,12.79,13.45,7.87,20-.76,1,.31,2.14,1.29,2.26,12,1.4,10,20.06-2.19,18.29a1.55,1.55,0,0,0-1.85,1c-3.62,12.34-15.79,17.9-28,17-8.91-.65-17.41-4.83-25.4-8.57a1.48,1.48,0,0,0-1.51,0c-4.24,3-8.66,6.45-13.43,8.52-10.68,4.63-20.68-1.31-28.49-8.29a1.52,1.52,0,0,0-2.12,0c-9.24,9.75-26.67,13.47-36.31,2.25a1.53,1.53,0,0,0-1.82-.23c-14.78,9.29-30.23,9-44.95-.25a1.52,1.52,0,0,0-2.06.53c-3.6,6-13.76,8.42-20.3,8.85-7.12.48-24.26-.77-26.58-9.54a1.52,1.52,0,0,0-2.21-.9c-6.1,3.08-12.88,6.62-19.94,5.85-6.08-.66-11.38-4.68-12.35-10.88a1.5,1.5,0,0,0-2.2-.89,9.13,9.13,0,0,1-9.49.76c-1.24-.67-3.44-2.66-3.51-4.14s1.55-3.47,2.27-4.59c1-1.63-1.55-3.14-2.59-1.52-2.87,4.49-3.83,8.31.91,11.91a11.92,11.92,0,0,0,13.92.17l-2.2-.9c1,6.58,6.35,11.23,12.7,12.71,8.39,1.95,16.71-2.22,24-5.89l-2.21-.9c2.72,10.25,18.88,11.88,27.56,11.81,8.14-.06,20.31-2.9,24.81-10.39l-2.05.54c15.6,9.77,32.33,10.09,48,.25l-1.82-.24c10.69,12.42,30.25,8.62,40.56-2.25h-2.12c8.7,7.78,19.67,14,31.5,9,4.18-1.74,8-4.66,11.75-7.21.44-.3,1.42-.71,1.67-1.15.57-1,.56.15-.69-.35,1.55.62,3,1.39,4.57,2.06,9.72,4.28,19.47,8.11,30.3,6.49s19.63-8.26,22.75-18.88l-1.85,1c6.71,1,13.48-3.39,14.37-10.41s-4.66-13-11.38-13.78l1.3,2.25c6.08-8.16,2-19.29-6.89-23.46-5.94-2.8-12.58,1.37-17.08,5.4-1.38,1.24.38,3,1.82,2.36,6.32-2.69-10.43-12.94-12.34-13.71-11.69-4.7-24,.69-32.05,9.53l2.36.31c-1.85-3.77-4.57-7.71-8.31-9.82-3.91-2.21-10.42-2.46-14.77-2.12-9.95.8-19,2.62-24.53,11.81l2.36-.3C253.24,71,231,72.08,219.82,87.71h2.59C211,72.69,190,70.9,176.53,84.31l1.81-.23a42.91,42.91,0,0,0-26.47-7.81c-7.17.34-15.76,2.09-18.75,9.42l2.2-.9c-8.61-5.71-19.77-8.28-29.5-3.79a24.24,24.24,0,0,0-14.09,21.72l1.5-1.5c-12,.3-15.34,16.22-4.57,21.48,1.73.84,3.25-1.75,1.51-2.6Z"/><path class="cls-4" d="M111.6,121.09l-.12,0-.23,0-.24,0-.16,0h-.18l-.07,0-.07,0a.27.27,0,0,1-.2-.12.43.43,0,0,0-.14-.14.83.83,0,0,0-.29-.1.33.33,0,0,1-.23-.19c0-.61,0-1.21,0-1.79s0-1.18,0-1.79c0-.42,0-.84.06-1.26s0-.84.06-1.26v-.16s0,0,0-.08,0-.08,0-.13,0-.08,0-.12a.32.32,0,0,1,0-.08v-.34a1.48,1.48,0,0,0,0-.21v-.12a1,1,0,0,0,0-.15,2.23,2.23,0,0,0,0-.23c0-.07,0-.15,0-.22l0-.15c-.09-1.74-.15-3.47-.2-5.19s-.1-3.44-.15-5.18v-.12a.73.73,0,0,1,0-.22,1.36,1.36,0,0,1,.11-.28,2.3,2.3,0,0,1,.15-.23c0-.07.1-.1.14-.1a1.49,1.49,0,0,1,.47.07,1.58,1.58,0,0,0,.47.07h.25a.43.43,0,0,0,.14,0l.14,0a17.54,17.54,0,0,1,2.3-.18l2.3,0c.77,0,1.52,0,2.25.11s1.48.12,2.24.16a.36.36,0,0,1,.13.11l.07.12.08.13a.68.68,0,0,0,.12.12c0,.06,0,.17,0,.32s0,.31,0,.48,0,.33,0,.49,0,.26,0,.32v.25a1.34,1.34,0,0,1,0,.2v.14a.72.72,0,0,1,0,.13s0,.12,0,.18,0,.13,0,.19,0,.1,0,.12l-.18.3a.59.59,0,0,1-.23.21,1.75,1.75,0,0,1-.47.12,6.37,6.37,0,0,1-.89,0h-1.53l-.9,0-1,0-1.22.05-.09.14a1.47,1.47,0,0,0,0,.22c0,.14,0,.29-.06.47s0,.36-.08.55,0,.33,0,.45v.13a.59.59,0,0,1,0,.17v.23a.33.33,0,0,0,.07.21l.08,0,.07,0a10.1,10.1,0,0,0,1.13.1l1.13,0h.35l.32,0,.32,0h.23a3.79,3.79,0,0,1,.91.1c.28.06.59.12.93.17l.24,0a1,1,0,0,1,.25,0,.57.57,0,0,1,.23.08.43.43,0,0,1,.14.2s0,.12.07.21l.08.26c0,.08,0,.16.08.22a.9.9,0,0,1,0,.12,1.85,1.85,0,0,0,0,.47l.07.46a3.89,3.89,0,0,1,0,.47,1.25,1.25,0,0,1-.07.47.77.77,0,0,1-.35.49,2.24,2.24,0,0,1-1,.26h-1.08l-.62,0-.61,0H114.3c0,.4,0,.8-.08,1.2s-.07.81-.07,1.21c0,.06,0,.14,0,.25v.19s0,.11,0,.21a3.39,3.39,0,0,1,0,.35c0,.12,0,.24,0,.36s0,.19,0,.24l0,.14c0,.06,0,.12,0,.17s0,.11,0,.15l0,.06.41.07,5.66,0h.42a1.18,1.18,0,0,1,.25,0,.4.4,0,0,1,.13.06l.06.08a2.62,2.62,0,0,1,0,.27v.4c0,.07,0,.16,0,.28v.34a2.81,2.81,0,0,1,0,.3v.17a.51.51,0,0,1,0,.09.39.39,0,0,1,0,.14.78.78,0,0,0,0,.14.51.51,0,0,0,0,.09v.33a2.28,2.28,0,0,0,0,.37,1.62,1.62,0,0,1,0,.38,1.16,1.16,0,0,1-.07.37.7.7,0,0,1-.25.3c-.67.06-1.34.13-2,.22a14.86,14.86,0,0,1-2,.14c-.33,0-.66,0-1,0s-.64,0-1,0a.68.68,0,0,0-.4,0l-.4.11a2.66,2.66,0,0,1-.37.07.45.45,0,0,1-.34-.12Z"/><path class="cls-4" d="M123.29,117.91a1,1,0,0,0-.08-.44c-.07-.13-.15-.26-.23-.39s0,0-.08-.11l-.1-.12a.11.11,0,0,1,0,0v-.07a.2.2,0,0,1,0-.07.23.23,0,0,0,0-.07l.11-.09.15-.13.15-.13.11-.09.2-.17.32-.25.32-.24.21-.16.1-.07.18-.12.17-.12.1-.06.08,0,.14-.1.14-.09.08-.07.17-.09a1,1,0,0,1,.18-.08h0l0,0,.3.34.46.51.45.52.3.34.15.13.26.24.28.26.23.18.13.11.18.15.17.12s.07.06.09.06l.14,0,.2.06h.07a1.53,1.53,0,0,0,.35,0,1.6,1.6,0,0,0,.44,0,1.23,1.23,0,0,0,.41-.17.58.58,0,0,0,.24-.36l-.15-1.11a.54.54,0,0,0,0-.15.76.76,0,0,1,0-.19L130,115a.14.14,0,0,1,0-.06l0,0s0,0,0,0a4.77,4.77,0,0,0-.51-.71c-.19-.21-.38-.41-.58-.6s-.41-.38-.63-.56l-.65-.57-.57-.55c-.19-.19-.37-.37-.56-.53l-.64-.55a7.7,7.7,0,0,1-.6-.54,10.21,10.21,0,0,1-.79-1,7.78,7.78,0,0,1-.69-1.15,7.12,7.12,0,0,1-.48-1.23,3.56,3.56,0,0,1-.14-1.23,3,3,0,0,1,.2-.92,5.44,5.44,0,0,1,.43-.83s0,0,.06-.06a.09.09,0,0,0,0-.06l.15-.21.18-.26c.06-.08.1-.15.14-.21l.06-.1.13-.12.26-.24.29-.26.22-.2a3.56,3.56,0,0,1,.6-.41c.2-.1.4-.2.61-.28l.65-.22.68-.22a1.68,1.68,0,0,1,.3,0l.39,0a2.41,2.41,0,0,1,.38,0h.32a8,8,0,0,1,.93.13,5.26,5.26,0,0,1,.8.23c.25.1.5.22.75.35s.52.29.79.47l0,0,.05,0,0,0,.4.28a.24.24,0,0,0,.07.1.58.58,0,0,0,.1.11l.19.18.33.32c.12.11.22.22.32.33a1.75,1.75,0,0,1,.18.2l.06.07.11.14.12.15.1.12.17.27a.43.43,0,0,1,.06.29v.12l-.08.09-.14.15-.13.13-.09.09-.06,0-.11.07-.11.08-.07,0-.31.28-.48.42-.49.42-.31.28a.31.31,0,0,1-.25.06l-.17,0a.27.27,0,0,1-.17-.08l0-.07a1.12,1.12,0,0,0-.05-.13.69.69,0,0,0-.05-.13l0-.08a4.23,4.23,0,0,0-.25-.46,4.59,4.59,0,0,0-.33-.44,3.59,3.59,0,0,0-.39-.39,1.81,1.81,0,0,0-.41-.29l-.1,0-.17-.06-.18-.06-.11,0s0,0-.07-.06l-.11,0H129a1.72,1.72,0,0,0-.39,0,.93.93,0,0,0-.35.13.77.77,0,0,0-.29.28s0,.09-.08.16a.24.24,0,0,0-.05.12.51.51,0,0,1,0,.1s0,.1,0,.16,0,.12,0,.17a.58.58,0,0,0,0,.1s0,0,0,.07,0,0,0,.07v.07a2.5,2.5,0,0,0,.31.55c.13.18.27.35.41.51l.46.47.46.45.09.11c.06.06.09.09.09.11l.2.16.35.29.39.29.3.21.12.08.06.07.11.11a.52.52,0,0,0,.1.11s0,.07.07.07l.11.07a4.35,4.35,0,0,1,.75.68c.24.27.46.52.66.77l.16.18.25.32.26.31.14.18.07.08a.45.45,0,0,0,.07.07.69.69,0,0,1,.06.14l.06.15a.42.42,0,0,0,.05.1,1.88,1.88,0,0,0,.12.18,2,2,0,0,1,.11.2l.09.14,0,.06.06.09.07.09,0,0,.07.18.13.3c0,.11.09.21.13.31a.76.76,0,0,0,.09.17.56.56,0,0,0,.08.14.55.55,0,0,0,.1.14s0,.06,0,.13,0,.11,0,.13a.4.4,0,0,0,0,.13.93.93,0,0,0,.08.17l.15.8-.08,1.42a.36.36,0,0,1,0,.11l-.05.11a3.4,3.4,0,0,1-.27.7,2,2,0,0,1-.49.59l-.18.18-.33.28-.36.29-.27.19a9.76,9.76,0,0,1-.91.67,4.7,4.7,0,0,1-1,.51,2.41,2.41,0,0,1-.4.07,2.61,2.61,0,0,0-.42.07c-.25,0-.5.1-.73.17a2.45,2.45,0,0,1-.72.07,4.77,4.77,0,0,1-.66-.1c-.22,0-.45-.1-.67-.16a6.49,6.49,0,0,1-1.55-.69,5.33,5.33,0,0,1-1.16-1l-.15-.16-.25-.26-.26-.27a1.62,1.62,0,0,0-.14-.16l-.16-.19-.25-.28-.25-.27Z"/><path class="cls-4" d="M140.58,121.1l-.05-1.65a.19.19,0,0,1-.05-.1.43.43,0,0,1,0-.1.49.49,0,0,1,0-.1.94.94,0,0,0,0-.1v-.26a.25.25,0,0,1,0-.1v-.39a.13.13,0,0,1-.1-.09.42.42,0,0,1,0-.16.32.32,0,0,1,0-.14s0-.07.08-.07a1.31,1.31,0,0,1,0-.17c0-.09,0-.18,0-.27l0-.27a.74.74,0,0,1,0-.18v-1c0-.37,0-.74,0-1.11a10.28,10.28,0,0,1,0-1.11.83.83,0,0,1-.07-.14,1.09,1.09,0,0,0-.08-.14v-.07s0-.07,0-.1a.36.36,0,0,1,.07-.09V113a2.26,2.26,0,0,1,0-.27c0-.09,0-.18,0-.26v-.18c0-.57,0-1.12,0-1.68s-.06-1.11-.1-1.67a3.43,3.43,0,0,1,0-.36c0-.18,0-.38,0-.59s0-.41,0-.6a2.89,2.89,0,0,0,0-.35.44.44,0,0,0,0-.09,1.36,1.36,0,0,0,0-.17c0-.06,0-.13,0-.19a1,1,0,0,0,0-.16,1.67,1.67,0,0,0-.11-.34.54.54,0,0,0-.22-.27,2.32,2.32,0,0,0-.62-.09l-.63,0h-.37l-.17,0h-.18l-.16,0-.17,0-.12,0h-.14c-.07,0-.12,0-.13,0h0a.89.89,0,0,1-.32-.07.34.34,0,0,1-.18-.23,6.93,6.93,0,0,1-.14-1.25v-1.53c0-.12,0-.25,0-.38s0-.26,0-.38,0-.21,0-.27a.25.25,0,0,1,.21-.15.9.9,0,0,1,.27,0H139c.28,0,.54,0,.81,0a7.42,7.42,0,0,1,.82,0h2.68l.36,0a10.76,10.76,0,0,1,1.5-.07l1.52,0,.17,0a.88.88,0,0,0,.23,0h.47a.34.34,0,0,1,.22.08.26.26,0,0,1,.11.16.78.78,0,0,1,0,.22,1.66,1.66,0,0,0,0,.24c0,.08,0,.22,0,.41s0,.4,0,.62,0,.42,0,.61,0,.32,0,.39v.18a2,2,0,0,0,0,.21,2.41,2.41,0,0,1-.07.7.41.41,0,0,1-.23.29.89.89,0,0,1-.43.06c-.18,0-.4,0-.68,0h-.2l-.33,0c-.12,0-.24,0-.36,0l-.27,0h-.15l-.24,0-.24,0-.16,0a1.48,1.48,0,0,0-.07.31v.53a1.92,1.92,0,0,0,.07.29l0,2.43a1.21,1.21,0,0,1,.05.53,2.41,2.41,0,0,0,0,.54.71.71,0,0,1,0,.12.9.9,0,0,1,0,.18v.18a.88.88,0,0,1,0,.14c0,.29.07.56.09.83s0,.54,0,.8,0,.54,0,.81.05.56.09.85l.06,1.34c0,.25,0,.48,0,.67a4.25,4.25,0,0,0,.06.67.2.2,0,0,0,0,.08.41.41,0,0,1,0,.07v.07l0,0a.13.13,0,0,0,0,.07l0,1.78,0,0a.11.11,0,0,1,0,.07.34.34,0,0,1,0,.11c0,.06,0,.1,0,.11,0,.24-.07.52-.1.83a7.87,7.87,0,0,0,0,.83l-.14.13-4.16.1Z"/><path class="cls-4" d="M150.6,117.35a.27.27,0,0,1-.15,0,.47.47,0,0,1-.11-.1.45.45,0,0,1-.06-.27.45.45,0,0,0-.06-.27l-.17-.37c-.05-.11-.1-.21-.14-.31a2.75,2.75,0,0,1-.14-.3l-.16-.36a.61.61,0,0,1-.07-.13.52.52,0,0,1-.06-.14v-.19a.5.5,0,0,0,0-.15l-.09-.25c0-.09-.06-.17-.08-.25s0-.13-.06-.17a.37.37,0,0,0-.08-.14.14.14,0,0,1-.05-.1v0s0,0,0,0a.33.33,0,0,1,0-.1l0-.09a.39.39,0,0,0,0-.06.44.44,0,0,0,0-.1s0-.07,0-.1a.18.18,0,0,1,0-.06s0-.11,0-.19a2,2,0,0,1,0-.26c0-.09,0-.17,0-.23a.66.66,0,0,1,0-.13v-.17c0-.09,0-.18,0-.28s0-.19,0-.27v-.17a1.19,1.19,0,0,0,0-.17c0-.09,0-.19,0-.3s0-.21,0-.3,0-.15,0-.18v-.86a2.36,2.36,0,0,0,0-.26c0-.12,0-.24,0-.37s0-.25.05-.37a1,1,0,0,1,0-.25.32.32,0,0,1,0-.07l0-.13,0-.13a.62.62,0,0,1,0-.1c.1-.29.21-.55.32-.8s.23-.47.35-.7a7.31,7.31,0,0,1,.41-.66c.15-.22.31-.44.49-.68a2.3,2.3,0,0,0,.17-.19l.27-.36.28-.36.17-.21a3,3,0,0,1,.54-.48l.59-.4c.39-.26.79-.5,1.19-.73a12.23,12.23,0,0,1,1.26-.61l.16-.05.17,0c.32-.09.66-.16,1-.22s.7-.11,1.06-.14h.18l.29,0,.3,0,.18,0,1,0a3.24,3.24,0,0,1,1,.21l.27.1.41.15.43.16.28.1.07,0,.13.08.14.07.09,0a.21.21,0,0,0,.12,0l.14,0a.2.2,0,0,1,.1.07.14.14,0,0,1,0,.13,6.3,6.3,0,0,0,.74.49,7.73,7.73,0,0,1,.74.48,10.14,10.14,0,0,1,1.25,1,8.72,8.72,0,0,1,1.06,1.24s0,0,.07.1.07.1.1.16l.09.15a.44.44,0,0,0,.06.1.26.26,0,0,1,.2.1.31.31,0,0,1,.07.21.31.31,0,0,1,0,.1.28.28,0,0,1-.07.11l.06.11s0,.11.07.17a1.34,1.34,0,0,0,.07.18.51.51,0,0,1,0,.11.87.87,0,0,0,0,.14l.06.24a2,2,0,0,0,0,.24.64.64,0,0,1,0,.15.69.69,0,0,0,.17.27.33.33,0,0,1,.12.25.53.53,0,0,1,0,.2.33.33,0,0,0,0,.15v.06s0,.06,0,.13a2.23,2.23,0,0,0,0,.23,2.23,2.23,0,0,1,0,.23.49.49,0,0,0,0,.13v.06a.49.49,0,0,1,0,.12v.52c0,.18,0,.37,0,.58s0,.4,0,.58v.57c0,.57-.11,1.12-.19,1.67a6.47,6.47,0,0,1-.45,1.6.43.43,0,0,0-.08.17,2.17,2.17,0,0,1-.1.21.91.91,0,0,0-.06.11l-.1.16-.09.16a.29.29,0,0,0-.05.1c-.58.68-1.12,1.28-1.61,1.79a12.46,12.46,0,0,1-1.36,1.22l-.13.08-.14.08q-.47.29-1,.57a4.5,4.5,0,0,1-1.06.42l-.38.07-.58.11-.58.12-.39.06a2,2,0,0,1-.55,0l-.54,0-.73,0a5.76,5.76,0,0,1-.76-.09,9.63,9.63,0,0,1-1.22-.32,13.52,13.52,0,0,1-1.28-.5,12.73,12.73,0,0,1-1.21-.65,7,7,0,0,1-1-.72l-.23-.21c-.11-.1-.22-.22-.34-.34l-.36-.34-.25-.24-.08-.07-.12-.11-.12-.1Zm5.56-.38.25,0,.37,0,.38,0,.26,0h.3l.22,0h.18a6.61,6.61,0,0,0,1.48,0,5.67,5.67,0,0,0,1.37-.38,4.85,4.85,0,0,0,1.19-.72,4.23,4.23,0,0,0,.94-1.07l.08-.14.06-.12a9.29,9.29,0,0,0,.26-1.55c0-.51.06-1,.06-1.58a7.69,7.69,0,0,0,0-.85,5.2,5.2,0,0,0-.13-.84c-.07-.24-.13-.49-.2-.74s-.15-.5-.24-.75a5.78,5.78,0,0,0-.31-.72,2.88,2.88,0,0,0-.43-.66l-.05,0a.12.12,0,0,1,0,0l-.08-.09a.17.17,0,0,0-.12,0h-.13a.11.11,0,0,1-.08-.07l0-.12s0-.09,0-.13a.16.16,0,0,0-.06-.08,6.11,6.11,0,0,0-2.87-1l-.15,0h-.43c-.06,0-.1,0-.11-.06l-.37.07-.54.11-.54.12-.36.08a3.74,3.74,0,0,0-.78.28,2.64,2.64,0,0,0-.62.4,3.76,3.76,0,0,0-.54.52c-.17.19-.34.41-.53.64s-.21.31-.31.47a1.55,1.55,0,0,0-.18.51c-.07.22-.11.42-.15.59s-.06.34-.08.49,0,.3,0,.44a3.08,3.08,0,0,0,0,.43,3,3,0,0,1,.07.49c0,.19,0,.39,0,.6s0,.43,0,.65,0,.43.05.63a.52.52,0,0,1,.26.22.35.35,0,0,1,0,.3,1.06,1.06,0,0,1,.11.22c.05.12.11.24.17.37l.16.38c0,.12.09.2.11.24l0,.09a1.31,1.31,0,0,0,0,.15l.06.15a.25.25,0,0,0,.05.07l.11.12s0,0,.05.1,0,.1.08.16.05.12.08.17a.28.28,0,0,0,.05.1.53.53,0,0,0,.09.11c.05,0,.08.07.09.07l.45.54a.45.45,0,0,0,.13.14l.14,0,.16,0,.19,0a.05.05,0,0,1,0,0,.13.13,0,0,0,0,.08.21.21,0,0,0,.06.08A.23.23,0,0,0,156.16,117Z"/><path class="cls-4" d="M169.66,117.91a1,1,0,0,0-.09-.44,4,4,0,0,0-.23-.39s0,0-.08-.11l-.1-.12a.43.43,0,0,0,0,0v-.07s0,0,0-.07l0-.07.1-.09.15-.13.16-.13.1-.09.2-.17.32-.25.33-.24.21-.16.09-.07.18-.12.18-.12.1-.06.07,0,.14-.1.14-.09a.3.3,0,0,0,.08-.07l.17-.09a1,1,0,0,1,.18-.08h0s0,0,0,0h0l0,0c.06.06.16.17.3.34l.46.51.45.52.3.34.16.13.25.24.29.26.22.18.13.11.19.15.16.12.09.06.14,0,.2.06h.07a2.18,2.18,0,0,0,.79,0,1.23,1.23,0,0,0,.41-.17A.55.55,0,0,0,177,117l-.15-1.11a.54.54,0,0,0,0-.15,1.86,1.86,0,0,1-.05-.19l-.38-.62a.14.14,0,0,0,0-.06l0,0a.08.08,0,0,1,0,0,4.14,4.14,0,0,0-.51-.71c-.19-.21-.38-.41-.58-.6l-.62-.56c-.22-.18-.43-.37-.65-.57l-.58-.55a6.92,6.92,0,0,0-.56-.53l-.64-.55c-.2-.17-.41-.35-.6-.54a10.21,10.21,0,0,1-.79-1,10,10,0,0,1-.69-1.15,7.12,7.12,0,0,1-.48-1.23,3.82,3.82,0,0,1-.14-1.23,2.75,2.75,0,0,1,.21-.92,4.62,4.62,0,0,1,.42-.83s0,0,.06-.06a.09.09,0,0,0,0-.06,1.51,1.51,0,0,0,.14-.21l.18-.26.15-.21.06-.1a1.14,1.14,0,0,1,.12-.12l.26-.24.29-.26a2.63,2.63,0,0,1,.23-.2,3.14,3.14,0,0,1,.59-.41c.2-.1.4-.2.61-.28l.65-.22.68-.22a1.86,1.86,0,0,1,.3,0l.39,0a2.54,2.54,0,0,1,.39,0h.31a7.72,7.72,0,0,1,.93.13,5,5,0,0,1,.8.23,7.43,7.43,0,0,1,.76.35c.25.14.51.29.78.47l0,0,0,0,.05,0,.4.28a.24.24,0,0,0,.07.1.55.55,0,0,0,.11.11l.18.18.33.32a3.27,3.27,0,0,1,.32.33l.19.2s0,0,.05.07a1.71,1.71,0,0,1,.11.14l.12.15.1.12.17.27a.5.5,0,0,1,.07.29v.12l-.09.09-.14.15-.13.13-.09.09-.06,0-.1.07-.12.08-.07,0-.31.28a5.15,5.15,0,0,1-.48.42l-.48.42a3.68,3.68,0,0,0-.31.28.34.34,0,0,1-.26.06l-.17,0a.3.3,0,0,1-.17-.08l0-.07s0-.08,0-.13a.69.69,0,0,1-.05-.13l0-.08a4.23,4.23,0,0,0-.25-.46,3.37,3.37,0,0,0-.33-.44,4.68,4.68,0,0,0-.38-.39,2.11,2.11,0,0,0-.42-.29l-.1,0-.17-.06-.17-.06-.12,0s0,0-.07-.06l-.11,0h-.55a1.75,1.75,0,0,0-.4,0,.93.93,0,0,0-.35.13.85.85,0,0,0-.29.28s0,.09-.08.16a.42.42,0,0,0,0,.12.51.51,0,0,1,0,.1.92.92,0,0,1,0,.16c0,.06,0,.12,0,.17v.1s0,0-.05.07,0,0,0,.07v.07a2.5,2.5,0,0,0,.31.55c.13.18.27.35.41.51l.46.47c.16.15.32.3.46.45l.1.11c0,.06.08.09.08.11l.2.16.36.29.38.29.3.21.12.08.06.07.11.11.1.11s.05.07.07.07l.12.07a5.24,5.24,0,0,1,.75.68c.23.27.45.52.65.77a1.13,1.13,0,0,1,.16.18c.08.11.17.21.26.32l.25.31.14.18.07.08.07.07a.58.58,0,0,1,.07.14c0,.07,0,.12,0,.15l.06.1a1.74,1.74,0,0,0,.11.18l.12.2.08.14,0,.06a.24.24,0,0,0,.06.09l.06.09,0,0,.07.18.13.3c0,.11.09.21.14.31l.08.17a.56.56,0,0,0,.08.14.55.55,0,0,0,.1.14.85.85,0,0,1,0,.13v.13s0,.06,0,.13a.93.93,0,0,0,.08.17l.16.8-.09,1.42a.89.89,0,0,1,0,.11.36.36,0,0,1-.06.11,3.4,3.4,0,0,1-.27.7,2,2,0,0,1-.49.59,1.4,1.4,0,0,1-.18.18l-.33.28-.36.29a2,2,0,0,1-.27.19,8.59,8.59,0,0,1-.91.67,4.7,4.7,0,0,1-1,.51,2.25,2.25,0,0,1-.4.07,2.61,2.61,0,0,0-.42.07c-.25,0-.49.1-.72.17a2.45,2.45,0,0,1-.72.07,4.92,4.92,0,0,1-.67-.1c-.22,0-.44-.1-.67-.16a6.67,6.67,0,0,1-1.55-.69,5.33,5.33,0,0,1-1.16-1l-.14-.16-.26-.26-.25-.27-.14-.16-.17-.19c-.07-.09-.16-.18-.25-.28l-.25-.27Z"/><path class="cls-4" d="M190,117.91a.85.85,0,0,0-.09-.44,4,4,0,0,0-.23-.39s0,0-.08-.11l-.09-.12a.17.17,0,0,1,0,0v-.07a.25.25,0,0,1,0-.07.56.56,0,0,1,0-.07l.1-.09.15-.13.16-.13.1-.09.2-.17.32-.25c.12-.08.22-.17.33-.24l.21-.16.09-.07.18-.12.18-.12.1-.06.07,0,.14-.1.14-.09a.3.3,0,0,0,.08-.07l.17-.09a1,1,0,0,1,.18-.08h0s0,0,0,0h0l0,0c.06.06.16.17.3.34l.46.51.45.52a4.34,4.34,0,0,0,.31.34l.15.13a3.08,3.08,0,0,0,.26.24l.28.26.22.18.13.11.19.15.16.12.09.06.14,0,.2.06h.07a1.63,1.63,0,0,0,.36,0,1.56,1.56,0,0,0,.43,0,1.23,1.23,0,0,0,.41-.17.55.55,0,0,0,.24-.36l-.15-1.11a.54.54,0,0,0,0-.15,1.86,1.86,0,0,1,0-.19l-.38-.62a.14.14,0,0,0,0-.06l0,0a.06.06,0,0,1,0,0,4.81,4.81,0,0,0-.52-.71c-.19-.21-.38-.41-.58-.6l-.62-.56c-.22-.18-.43-.37-.65-.57l-.58-.55a6.92,6.92,0,0,0-.56-.53l-.64-.55c-.2-.17-.41-.35-.6-.54a10.21,10.21,0,0,1-.79-1,10,10,0,0,1-.69-1.15,7.12,7.12,0,0,1-.48-1.23,3.82,3.82,0,0,1-.14-1.23,2.75,2.75,0,0,1,.21-.92,4.62,4.62,0,0,1,.42-.83s0,0,.06-.06a.09.09,0,0,0,0-.06,1.51,1.51,0,0,0,.14-.21l.18-.26.15-.21.06-.1a1.14,1.14,0,0,1,.12-.12l.26-.24.29-.26a2.63,2.63,0,0,1,.23-.2,3.14,3.14,0,0,1,.59-.41c.2-.1.4-.2.61-.28l.65-.22.68-.22a1.86,1.86,0,0,1,.3,0l.39,0a2.54,2.54,0,0,1,.39,0h.31a7.72,7.72,0,0,1,.93.13,5,5,0,0,1,.8.23,7.43,7.43,0,0,1,.76.35c.25.14.51.29.78.47l0,0,.05,0s0,0,0,0l.4.28a.24.24,0,0,0,.07.1.55.55,0,0,0,.11.11l.18.18.33.32a3.27,3.27,0,0,1,.32.33l.19.2s0,0,.05.07a1.71,1.71,0,0,1,.11.14l.12.15a.77.77,0,0,1,.1.12l.17.27a.5.5,0,0,1,.07.29v.12l-.09.09-.14.15-.13.13-.09.09-.06,0-.1.07-.12.08-.07,0c0,.06-.16.15-.3.28s-.31.28-.49.42l-.48.42a3.68,3.68,0,0,0-.31.28.34.34,0,0,1-.26.06l-.17,0a.3.3,0,0,1-.17-.08.15.15,0,0,1,0-.07.5.5,0,0,1-.05-.13.69.69,0,0,1-.05-.13l0-.08a4.23,4.23,0,0,0-.25-.46,3.37,3.37,0,0,0-.33-.44,4.68,4.68,0,0,0-.38-.39,2.11,2.11,0,0,0-.42-.29l-.1,0-.17-.06-.17-.06-.12,0s0,0-.07-.06l-.11,0h-.55a1.75,1.75,0,0,0-.4,0,.93.93,0,0,0-.35.13.85.85,0,0,0-.29.28l-.08.16a.42.42,0,0,0-.05.12.51.51,0,0,1,0,.1,45.13,45.13,0,0,0,0,.33v.1s0,0-.05.07,0,0,0,.07v.07a3,3,0,0,0,.31.55c.13.18.27.35.41.51l.46.47c.16.15.32.3.46.45l.1.11c0,.06.08.09.08.11l.2.16.36.29.38.29.3.21.12.08.06.07.11.11.1.11s0,.07.07.07l.12.07a5.24,5.24,0,0,1,.75.68c.23.27.45.52.65.77a1.13,1.13,0,0,1,.16.18c.08.11.17.21.26.32l.25.31.14.18.07.08.07.07a.58.58,0,0,1,.07.14l.05.15.06.1a1.74,1.74,0,0,0,.11.18l.12.2.08.14a.15.15,0,0,0,0,.06.24.24,0,0,0,.06.09l.06.09,0,0,.07.18.13.3c.05.11.09.21.14.31l.08.17a.56.56,0,0,0,.08.14.55.55,0,0,0,.1.14.85.85,0,0,1,0,.13v.13s0,.06,0,.13a.93.93,0,0,0,.08.17l.16.8-.09,1.42a.28.28,0,0,1,0,.11.36.36,0,0,1-.06.11,3.4,3.4,0,0,1-.27.7,2,2,0,0,1-.49.59,1.4,1.4,0,0,1-.18.18l-.33.28-.36.29a2,2,0,0,1-.27.19,8.59,8.59,0,0,1-.91.67,4.7,4.7,0,0,1-1,.51,2.25,2.25,0,0,1-.4.07,2.61,2.61,0,0,0-.42.07c-.25,0-.49.1-.72.17a2.45,2.45,0,0,1-.72.07,4.92,4.92,0,0,1-.67-.1c-.22,0-.44-.1-.67-.16a6.67,6.67,0,0,1-1.55-.69,5.33,5.33,0,0,1-1.16-1l-.14-.16-.26-.26-.25-.27-.14-.16-.17-.19c-.07-.09-.16-.18-.25-.28l-.25-.27Z"/><path class="cls-4" d="M205.21,117.35a.27.27,0,0,1-.15,0,.33.33,0,0,1-.11-.1.45.45,0,0,1-.06-.27.45.45,0,0,0-.06-.27l-.17-.37-.15-.31-.14-.3q-.06-.17-.15-.36a.61.61,0,0,1-.07-.13.52.52,0,0,1-.06-.14v-.19a1.26,1.26,0,0,0-.05-.15l-.09-.25-.09-.25c0-.08,0-.13-.05-.17a.37.37,0,0,0-.08-.14.14.14,0,0,1,0-.1v0s0,0,0,0a.49.49,0,0,1,0-.1.42.42,0,0,0,0-.09.18.18,0,0,0,0-.06s0-.06,0-.1a.44.44,0,0,1,0-.1.39.39,0,0,1,0-.06.81.81,0,0,0,0-.19l0-.26a1.2,1.2,0,0,0,0-.23c0-.07,0-.11,0-.13v-.17c0-.09,0-.18,0-.28s0-.19,0-.27v-.17a.75.75,0,0,1,0-.17c0-.09,0-.19,0-.3s0-.21,0-.3,0-.15,0-.18v-.86a2.36,2.36,0,0,0,0-.26c0-.12,0-.24,0-.37s0-.25,0-.37a1.52,1.52,0,0,1,0-.25.32.32,0,0,1,0-.07.35.35,0,0,1,0-.13l0-.13a.62.62,0,0,1,0-.1c.1-.29.21-.55.32-.8s.22-.47.35-.7a5.59,5.59,0,0,1,.41-.66c.15-.22.31-.44.49-.68l.17-.19.27-.36.28-.36.17-.21a2.7,2.7,0,0,1,.54-.48l.59-.4c.39-.26.78-.5,1.19-.73a12.23,12.23,0,0,1,1.26-.61l.15-.05.17,0c.33-.09.67-.16,1-.22s.7-.11,1.06-.14h.18l.29,0,.29,0,.19,0,1,0a3.24,3.24,0,0,1,1,.21l.27.1.41.15.42.16.29.1s0,0,.07,0l.13.08.14.07.09,0a.21.21,0,0,0,.12,0l.14,0a.2.2,0,0,1,.1.07.12.12,0,0,1,0,.13,6.4,6.4,0,0,0,.75.49c.24.14.49.3.74.48a10.94,10.94,0,0,1,1.25,1,8.72,8.72,0,0,1,1.06,1.24s0,0,.07.1l.1.16a1.09,1.09,0,0,1,.08.15l.07.1a.26.26,0,0,1,.2.1.31.31,0,0,1,.07.21s0,.07,0,.1a.49.49,0,0,1-.07.11l.05.11a.87.87,0,0,1,.07.17,1.34,1.34,0,0,1,.07.18.8.8,0,0,1,0,.11.87.87,0,0,0,0,.14,1.44,1.44,0,0,1,.05.24l.06.24a.64.64,0,0,1,0,.15.59.59,0,0,0,.17.27.33.33,0,0,1,.12.25.53.53,0,0,1,0,.2.33.33,0,0,0,0,.15v.06s0,.06,0,.13a2.23,2.23,0,0,0,0,.23c0,.08,0,.16,0,.23a.49.49,0,0,0,0,.13v.06a.49.49,0,0,1,0,.12v.52c0,.18,0,.37,0,.58v.58c0,.18,0,.29,0,.34v.23c0,.57-.11,1.12-.19,1.67a6.93,6.93,0,0,1-.45,1.6.57.57,0,0,0-.09.17l-.09.21a.36.36,0,0,0-.06.11l-.1.16-.09.16a.29.29,0,0,0,0,.1c-.58.68-1.12,1.28-1.62,1.79a11.59,11.59,0,0,1-1.35,1.22l-.13.08-.14.08q-.47.29-1,.57a4.5,4.5,0,0,1-1.06.42l-.38.07-.58.11-.59.12-.38.06a2,2,0,0,1-.55,0l-.54,0-.74,0a5.82,5.82,0,0,1-.75-.09,9.63,9.63,0,0,1-1.22-.32,12.55,12.55,0,0,1-1.28-.5,12.73,12.73,0,0,1-1.21-.65,7.75,7.75,0,0,1-1-.72l-.22-.21-.34-.34-.36-.34-.25-.24-.08-.07-.12-.11a1.27,1.27,0,0,1-.12-.1S205.21,117.37,205.21,117.35Zm5.56-.38.25,0,.37,0,.38,0,.26,0h.29l.23,0h.18a6.61,6.61,0,0,0,1.48,0,5.67,5.67,0,0,0,1.37-.38,4.85,4.85,0,0,0,1.19-.72,4.43,4.43,0,0,0,.94-1.07l.08-.14a.57.57,0,0,0,.06-.12,9.29,9.29,0,0,0,.26-1.55c0-.51.06-1,.06-1.58,0-.3,0-.58,0-.85a5.2,5.2,0,0,0-.13-.84c-.07-.24-.14-.49-.2-.74s-.15-.5-.24-.75a5.78,5.78,0,0,0-.31-.72,2.88,2.88,0,0,0-.43-.66l0,0-.06,0-.07-.09a.21.21,0,0,0-.13,0h-.12a.11.11,0,0,1-.08-.07l0-.12a.69.69,0,0,1,0-.13.16.16,0,0,0-.06-.08,6.11,6.11,0,0,0-2.87-1l-.16,0h-.42c-.06,0-.1,0-.11-.06l-.37.07-.54.11-.54.12-.36.08a3.54,3.54,0,0,0-.78.28,2.93,2.93,0,0,0-.63.4,4.31,4.31,0,0,0-.53.52c-.17.19-.34.41-.53.64s-.21.31-.31.47a1.55,1.55,0,0,0-.18.51,4.65,4.65,0,0,0-.15.59c0,.18-.06.34-.08.49l0,.44c0,.14,0,.28,0,.43a4.79,4.79,0,0,1,.07.49c0,.19,0,.39,0,.6s0,.43,0,.65,0,.43,0,.63a.52.52,0,0,1,.26.22.35.35,0,0,1,0,.3,2.11,2.11,0,0,1,.11.22c0,.12.11.24.17.37s.11.26.16.38.09.2.11.24l0,.09a1.31,1.31,0,0,0,.05.15l.06.15s0,.06,0,.07l.11.12a.42.42,0,0,0,0,.1l.08.16c0,.06,0,.12.08.17s0,.09,0,.1l.1.11a.18.18,0,0,0,.09.07l.45.54a.45.45,0,0,0,.13.14l.14,0,.15,0,.2,0a0,0,0,0,1,0,0l0,.08.07.08A.22.22,0,0,0,210.77,117Z"/><path class="cls-4" d="M224.76,121.36c0-.42,0-.84,0-1.24s0-.82-.07-1.25a4.5,4.5,0,0,1,0-.82c0-.28,0-.57,0-.86v-.36c0-.17,0-.37,0-.61s0-.48,0-.75,0-.53,0-.79,0-.48,0-.69,0-.38,0-.51v-.11c0-.07,0-.13,0-.2a1.21,1.21,0,0,0,0-.19v-.12a1.27,1.27,0,0,1,0-.29c0-.15,0-.31,0-.48s0-.33,0-.48,0-.24,0-.28v-.69c0-.31,0-.66,0-1v-1.23c0-.43,0-.84,0-1.23s0-.74,0-1v-.68a.19.19,0,0,1-.08-.13.6.6,0,0,1,0-.19v0a.22.22,0,0,0,0-.1.32.32,0,0,0,0-.08.44.44,0,0,0,.09-.27v-.26c0-.24,0-.45,0-.66s0-.4,0-.6l0-.59c0-.21,0-.42,0-.66s0-.14.17-.17a2,2,0,0,1,.48-.06l.66,0,.71.06c.31,0,.62,0,.92,0s.61,0,.92,0h.24l.24.3.12.18.24.39.27.45.21.39,0,.07.05.12a.67.67,0,0,0,.06.12l0,.07a1.15,1.15,0,0,0,.22.35,1.25,1.25,0,0,1,.21.35l0,.08a.64.64,0,0,1,.05.11.23.23,0,0,0,0,.07.29.29,0,0,0,0,.08.47.47,0,0,0,.09.13l.1.14a.74.74,0,0,1,.08.15l.16.28.17.28a.93.93,0,0,0,.1.16l0,.08.08.12.08.12.06.07a3.35,3.35,0,0,1,.32.66,2.51,2.51,0,0,0,.36.64.46.46,0,0,0,.1.1l.09.09h.14l0,0a0,0,0,0,0,0,0l0,0a.87.87,0,0,1,.07.19,1.72,1.72,0,0,1,0,.21l.14.15.19.23c.07.07.13.15.19.22l.12.16a4.09,4.09,0,0,1,.37.51c.11.18.21.36.31.54l.31.55a3.15,3.15,0,0,0,.35.52,1.1,1.1,0,0,0,.13.17l.13.14h.07a.06.06,0,0,1,.07,0,.17.17,0,0,1,.1.06.52.52,0,0,1,.06.13l0,.14a.37.37,0,0,0,.05.11l.14.15.13.15.1,0,.06,0s0,0,0,0l.63.88.06.08a.77.77,0,0,0,.09.13l.1.12.08.09,0-.48s.05-.11.06-.28,0-.39,0-.66,0-.57,0-.91,0-.67-.07-1-.07-.65-.11-1-.1-.56-.15-.77a.44.44,0,0,0,0-.09v-.15s0-.1,0-.15,0-.07,0-.09v-.21c0-.11,0-.23,0-.36s0-.25,0-.36,0-.19,0-.22c0-.71,0-1.42,0-2.12s0-1.42,0-2.14c0-.07,0-.15,0-.25a2.54,2.54,0,0,1,0-.29c0-.11.05-.23.07-.35l.41-.06,3.25.09a.3.3,0,0,1,.25.15,1.08,1.08,0,0,1,.17.34,1.8,1.8,0,0,1,.08.39,2.16,2.16,0,0,1,0,.29,1.57,1.57,0,0,0,0,.2,1.3,1.3,0,0,0,0,.21l.17,4.42.05.15s0,.11,0,.2,0,.18,0,.29,0,.21,0,.3v.22c0,.06,0,.19,0,.4s0,.45,0,.7,0,.48,0,.7,0,.35,0,.4,0,.3,0,.57,0,.56,0,.86,0,.58,0,.85,0,.46,0,.56a.4.4,0,0,1,.07.12.52.52,0,0,1,0,.11.54.54,0,0,1,0,.22.69.69,0,0,0,0,.22,1.46,1.46,0,0,0,.06.6,2.59,2.59,0,0,1,.1.59V116a1.49,1.49,0,0,0,0,.17.41.41,0,0,0,0,.1.71.71,0,0,0,0,.14s0,.1,0,.15a.78.78,0,0,0,0,.09l0,.68v.17s0,0,0,.08,0,.06,0,.08l.07.8-.07,1.94a.48.48,0,0,0,0,.17l0,.22a.64.64,0,0,1,0,.2.11.11,0,0,1-.11.08h0l-.13,0-.13,0-.13,0-.26,0-.3,0a.8.8,0,0,1-.22,0h0s0,0,0,0h0l-.34,0-.4,0-.33,0-.15,0a1.52,1.52,0,0,0-.37,0l-.28.06-.07,0-.07,0a1.55,1.55,0,0,1-.6,0,1,1,0,0,1-.43-.24,2,2,0,0,1-.36-.49c-.12-.22-.25-.47-.4-.77l-.09-.14-.19-.26c-.06-.1-.13-.19-.19-.28l-.14-.21s0,0,0-.07a.91.91,0,0,0-.07-.14.61.61,0,0,0-.07-.14l-.05-.1a.05.05,0,0,0,0,0,0,0,0,0,0,0,0l-1.53-2.3a1.18,1.18,0,0,1-.26-.32,1.77,1.77,0,0,0-.23-.35l-.33-.33a.37.37,0,0,1-.06-.08l-.1-.14a1.47,1.47,0,0,0-.1-.13l0-.07-.16-.15-.25-.24-.25-.26-.14-.16-.14-.24-.26-.43-.26-.43a2.58,2.58,0,0,1-.16-.25s0,0-.05-.08l-.1-.15-.1-.15-.07-.08a.64.64,0,0,1-.06-.1l-.1-.17-.1-.17a.42.42,0,0,1,0-.1l-.06-.11-.09-.2-.1-.19-.06-.12-.32-.54c-.1-.18-.2-.37-.31-.55s-.06-.07-.07-.06,0,0-.07,0l0,.53.05.72a1.81,1.81,0,0,0,0,.4c0,.13,0,.27,0,.43l.06.61,0,1.15a.47.47,0,0,1,.06.33,1.3,1.3,0,0,0,0,.34s0,.07,0,.14,0,.13,0,.21v.21a.78.78,0,0,1,0,.13l0,.67.14,2.16a.66.66,0,0,0,0,.13c0,.07,0,.11,0,.14s0,.1,0,.21,0,.24,0,.37,0,.24,0,.35,0,.18,0,.21v.79c0,.16,0,.32,0,.46v.29a1.91,1.91,0,0,1,.13.25.38.38,0,0,1,.05.27.17.17,0,0,1-.08.16.46.46,0,0,1-.17.09.58.58,0,0,1-.19,0h-.16l-.25,0-.4,0-.4,0h-.89c-.35,0-.69,0-1,0A6.78,6.78,0,0,1,224.76,121.36Z"/><path class="cls-4" d="M250,120.51v0a1.45,1.45,0,0,0,.12-.28,2,2,0,0,0,.05-.32c0-.09,0-.17,0-.24a.43.43,0,0,0-.06-.22c0-.6.05-1.2,0-1.8a17.37,17.37,0,0,1,0-1.77l-.06-.14.1-2.29-.05-.14V113c0-.13,0-.27,0-.42s0-.29,0-.42,0-.23,0-.29a2.89,2.89,0,0,1,0-.35c0-.2,0-.4,0-.62s0-.43,0-.63v-1.37c0-.24,0-.51,0-.8s0-.57,0-.84v-1.33a.83.83,0,0,1,0-.12v-.22c0-.08,0-.15,0-.21s0-.1,0-.12c0-.51,0-1,0-1.52s0-1,0-1.52V102a.13.13,0,0,1,0-.06c0-.11,0-.19,0-.22a.19.19,0,0,1,.13,0l.16,0s.1-.05.15-.14h1.17l1.06,0h1c.35,0,.72,0,1.1.06l1.51.1a10.24,10.24,0,0,1,1.55.26,6.07,6.07,0,0,1,1.42.55,3.37,3.37,0,0,1,1.12,1,3,3,0,0,1,.29.51,5.93,5.93,0,0,1,.26.63c.07.22.13.45.18.66s.1.42.13.59V106a1.41,1.41,0,0,0,0,.2,1.41,1.41,0,0,1,0,.2v.11s0,.06,0,.14,0,.18-.05.29,0,.22-.05.33a1.76,1.76,0,0,0,0,.25,2.61,2.61,0,0,1-.44,1l-.65.86-.17.21c-.09.09-.17.19-.26.29l-.25.29-.17.18a.09.09,0,0,1,0,0s0,.08.15.11l.18.07a6.24,6.24,0,0,1,.64.49,4.33,4.33,0,0,1,.52.58.1.1,0,0,0,.08.05l.1,0h.09a.1.1,0,0,1,.08.05s0,.07,0,.15a.87.87,0,0,1,0,.13.47.47,0,0,0,.12.18l.17.15.15.13.09.1s0,.06,0,.13a1.09,1.09,0,0,1,0,.13.24.24,0,0,0,.07.17l.13.1a.69.69,0,0,1,.13.11.22.22,0,0,1,.05.14v0l-.08.1-.07.1v.07a1.6,1.6,0,0,0,.08.2,1.27,1.27,0,0,1,.09.2c0,.07,0,.2.08.37s.07.36.1.56.07.38.1.55,0,.3.05.37a.1.1,0,0,1,0,.07l0,.13s0,.09,0,.14a.32.32,0,0,1,0,.07l.06.05v.14a.28.28,0,0,1,0,.08v.07a1,1,0,0,1-.07.16,1.24,1.24,0,0,1-.1.17.26.26,0,0,1,0,.07s0,.07,0,.12,0,.09,0,.13,0,.07,0,.08a3.82,3.82,0,0,1-.66,1.41,8.22,8.22,0,0,1-1.07,1.14l-.08,0-.1.08-.11.07-.06,0a2.13,2.13,0,0,1-.56.23,1.25,1.25,0,0,0-.54.27l-.3.07-.44.08L258,121l-.31.06a10.62,10.62,0,0,1-1.22.11l-1.22,0-2.13.07c-.7,0-1.41,0-2.12,0a.33.33,0,0,0-.12.05l-.09.06-.09,0a.3.3,0,0,1-.14,0h-.13s-.06,0-.1-.09a.58.58,0,0,1-.07-.14.58.58,0,0,1,0-.13s0-.07,0-.16a.81.81,0,0,0,0-.17.76.76,0,0,0-.12-.1.29.29,0,0,0-.15-.06Zm4.4-3.54a1.69,1.69,0,0,1,0,.23,1.11,1.11,0,0,0,0,.19.4.4,0,0,0,.1.15.42.42,0,0,0,.19.09h.56l.13,0,.13,0,.08,0h.39s.06,0,.07,0a2.49,2.49,0,0,0,.79-.25,3.19,3.19,0,0,0,.74-.52,2.83,2.83,0,0,0,.55-.7,1.65,1.65,0,0,0,.24-.79,1.19,1.19,0,0,0,0-.43,1.17,1.17,0,0,0-.19-.39,2.45,2.45,0,0,0-.63-.65,3.05,3.05,0,0,0-.74-.38,4.71,4.71,0,0,0-.84-.22c-.29,0-.59-.1-.9-.16-.12,0-.27-.07-.45-.1a2.4,2.4,0,0,0-.51-.07V113a.14.14,0,0,0,0,.07s0,.06,0,.13,0,.12,0,.14v.11a1.41,1.41,0,0,1,0,.2,1.21,1.21,0,0,1,0,.19v.12a1.76,1.76,0,0,0,.07.49,2.3,2.3,0,0,1,.1.51s0,.08,0,.2,0,.24,0,.38l0,.44c0,.14,0,.25,0,.33v.15a.31.31,0,0,1,.06.13c0,.07,0,.12.07.13v0a.34.34,0,0,1-.05.14A.27.27,0,0,0,254.35,117Zm-.28-11a4.78,4.78,0,0,0,0,.85c0,.27.07.55.12.83s0,.35,0,.52a2.63,2.63,0,0,0,.05.49.21.21,0,0,0,0,.11l.05.05.06,0,.07.1s0,0,0,.1,0,.08.05.08a.93.93,0,0,0,.23.16.78.78,0,0,0,.28.09l.1,0,.11,0,.21-.09a.76.76,0,0,0,.19-.11l.13-.06.21-.12.21-.11a.56.56,0,0,0,.14-.09,3.26,3.26,0,0,0,.35-.19c.14-.09.27-.19.4-.29a2.1,2.1,0,0,0,.33-.34.51.51,0,0,0,.14-.35.29.29,0,0,0,0-.13s0-.07-.08-.11a6,6,0,0,0-.68-.72,3.45,3.45,0,0,0-.72-.5,4.37,4.37,0,0,0-.84-.29,4.78,4.78,0,0,0-1-.12l-.12,0s-.09,0-.1,0Z"/><path class="cls-4" d="M270.49,121.1a.71.71,0,0,0-.22,0l-.19,0h-.28l-.41,0h-.66l-.07,0-.07,0h-.13l-.24,0h-3.93a.29.29,0,0,1-.12-.17.64.64,0,0,0-.07-.16v-.08a.09.09,0,0,1,0-.06.15.15,0,0,1,0-.06v-.58c0-.35,0-.71,0-1.06s0-.71,0-1.07,0-.65,0-1,0-.63,0-1v-.61c0-.14,0-.27,0-.39v-.23c0-.06,0-.19,0-.42s0-.46,0-.72,0-.5,0-.72,0-.36,0-.41v-.25c0-.14,0-.32,0-.53s0-.44,0-.7,0-.51,0-.77,0-.49,0-.72v-1.62c0-.23,0-.47,0-.73s0-.5,0-.73v-1.25c0-.11,0-.21,0-.33s0-.22,0-.32v-.69l-.07-.13v-.18a.26.26,0,0,1,.07-.1l.08-1.27a.5.5,0,0,1,.08-.2.44.44,0,0,1,.21-.15,1.68,1.68,0,0,1,.41-.09,6.06,6.06,0,0,1,.67,0h2.11l.46,0a.45.45,0,0,1,.36.2.9.9,0,0,0,.05.16l.06.24.06.25a.8.8,0,0,1,0,.16v.33s0,.08,0,.17a1.19,1.19,0,0,1,0,.17v2.68a.43.43,0,0,1,.12.16.63.63,0,0,1,0,.16.37.37,0,0,1,0,.12.2.2,0,0,1-.07.11v.37a3.13,3.13,0,0,0,0,.44,3.19,3.19,0,0,1,0,.45,4.07,4.07,0,0,1,0,.5,4.21,4.21,0,0,0,0,.51l-.07.77a.78.78,0,0,1,0,.19V110c0,.1,0,.2,0,.29a.66.66,0,0,1,0,.19v.1s0,.11,0,.17,0,.12,0,.17v.17a.4.4,0,0,1,.08.29,4.12,4.12,0,0,1,0,.48c0,.16,0,.32-.07.46a2.45,2.45,0,0,0-.05.25v.69l0,1.27.07.13s0,.07,0,.14a1.69,1.69,0,0,0,0,.23,1.62,1.62,0,0,0,0,.22c0,.07,0,.12,0,.15s0,.07,0,.15,0,.18,0,.28a2.62,2.62,0,0,1,0,.27,1.39,1.39,0,0,1,0,.17.18.18,0,0,1,0,.06.69.69,0,0,1,0,.1l0,.15s.05,0,.1.06.1,0,.12,0h2l.5,0a8.74,8.74,0,0,1,1,.06,4.8,4.8,0,0,0,1,0,.61.61,0,0,1,.26.24.92.92,0,0,1,0,.33,1.1,1.1,0,0,1,0,.24c0,.11,0,.23,0,.36s0,.25,0,.37v.23l.05.07,0,.07v.07a.84.84,0,0,1,0,.1s0,.09-.05.1V121l-.07.07h-.65l-.21,0h-.74l-.62,0-.6,0Z"/><path class="cls-4" d="M276.1,117.35a.27.27,0,0,1-.15,0,.33.33,0,0,1-.11-.1.45.45,0,0,1-.06-.27.45.45,0,0,0-.06-.27l-.17-.37-.15-.31-.14-.3q-.06-.17-.15-.36a.61.61,0,0,1-.07-.13.52.52,0,0,1-.06-.14v-.19a.5.5,0,0,0-.05-.15l-.09-.25-.09-.25c0-.08,0-.13-.05-.17a.37.37,0,0,0-.08-.14.14.14,0,0,1-.05-.1v0s0,0,0,0a.49.49,0,0,1,0-.1l0-.09a.18.18,0,0,0,0-.06.44.44,0,0,0,0-.1.44.44,0,0,1,0-.1.39.39,0,0,1,0-.06,1.76,1.76,0,0,0,0-.19,2,2,0,0,1,0-.26c0-.09,0-.17,0-.23a.66.66,0,0,1,0-.13v-.17c0-.09,0-.18,0-.28s0-.19,0-.27v-.17s0-.08,0-.17,0-.19,0-.3,0-.21,0-.3,0-.15,0-.18v-.86a2.36,2.36,0,0,0,0-.26c0-.12,0-.24,0-.37s0-.25.05-.37a1,1,0,0,1,0-.25.32.32,0,0,1,0-.07l0-.13,0-.13a.62.62,0,0,1,0-.1c.1-.29.21-.55.32-.8s.22-.47.35-.7a5.59,5.59,0,0,1,.41-.66c.15-.22.31-.44.49-.68a2.3,2.3,0,0,0,.17-.19l.27-.36.28-.36.17-.21a2.7,2.7,0,0,1,.54-.48l.59-.4c.39-.26.78-.5,1.19-.73a12.23,12.23,0,0,1,1.26-.61l.15-.05.17,0c.33-.09.67-.16,1-.22s.7-.11,1.06-.14h.18l.29,0,.29,0,.19,0,1,0a3.24,3.24,0,0,1,1,.21l.27.1.41.15.43.16.28.1s0,0,.07,0l.13.08.14.07.09,0a.21.21,0,0,0,.12,0l.14,0a.2.2,0,0,1,.1.07.14.14,0,0,1,0,.13,6.3,6.3,0,0,0,.74.49,7.73,7.73,0,0,1,.74.48,10.94,10.94,0,0,1,1.25,1A8.72,8.72,0,0,1,292,106s0,0,.07.1l.1.16a1.09,1.09,0,0,1,.08.15l.07.1a.26.26,0,0,1,.2.1.31.31,0,0,1,.07.21s0,.07,0,.1a.28.28,0,0,1-.07.11l.05.11a.87.87,0,0,1,.07.17l.08.18,0,.11a.87.87,0,0,0,0,.14,1.44,1.44,0,0,1,.05.24l.06.24a.64.64,0,0,1,0,.15.69.69,0,0,0,.17.27.33.33,0,0,1,.12.25.53.53,0,0,1,0,.2.33.33,0,0,0,0,.15v.06s0,.06,0,.13a2.23,2.23,0,0,0,0,.23c0,.08,0,.16,0,.23a.49.49,0,0,0,0,.13v.06a.49.49,0,0,1,0,.12v.52c0,.18,0,.37,0,.58s0,.4,0,.58v.57c-.05.57-.11,1.12-.19,1.67a6.47,6.47,0,0,1-.45,1.6.57.57,0,0,0-.09.17c0,.09-.07.16-.09.21a.91.91,0,0,0-.06.11l-.1.16-.09.16a.29.29,0,0,0-.05.1c-.58.68-1.12,1.28-1.62,1.79a11.59,11.59,0,0,1-1.35,1.22l-.13.08-.14.08q-.46.29-1,.57a4.5,4.5,0,0,1-1.06.42l-.38.07-.58.11-.59.12-.38.06a2,2,0,0,1-.55,0l-.54,0-.73,0a5.76,5.76,0,0,1-.76-.09,9.63,9.63,0,0,1-1.22-.32,13.52,13.52,0,0,1-1.28-.5,12.73,12.73,0,0,1-1.21-.65,7.75,7.75,0,0,1-1-.72l-.22-.21c-.11-.1-.22-.22-.34-.34l-.36-.34-.25-.24-.08-.07-.12-.11-.12-.1S276.1,117.37,276.1,117.35Zm5.56-.38.25,0,.37,0,.38,0,.26,0h.3l.22,0h.18a6.61,6.61,0,0,0,1.48,0,5.67,5.67,0,0,0,1.37-.38,4.85,4.85,0,0,0,1.19-.72,4.43,4.43,0,0,0,.94-1.07l.08-.14a.57.57,0,0,0,.06-.12,9.29,9.29,0,0,0,.26-1.55c0-.51.06-1,.06-1.58a7.69,7.69,0,0,0,0-.85,5.2,5.2,0,0,0-.13-.84c-.07-.24-.14-.49-.2-.74s-.15-.5-.24-.75a5.78,5.78,0,0,0-.31-.72,2.88,2.88,0,0,0-.43-.66l0,0-.06,0-.07-.09s0,0-.13,0h-.12a.11.11,0,0,1-.08-.07l0-.12a.69.69,0,0,1,0-.13.16.16,0,0,0-.06-.08,6.11,6.11,0,0,0-2.87-1l-.15,0h-.43c-.06,0-.1,0-.11-.06l-.37.07-.54.11-.54.12-.36.08a3.54,3.54,0,0,0-.78.28,2.64,2.64,0,0,0-.62.4,3.76,3.76,0,0,0-.54.52c-.17.19-.34.41-.53.64s-.21.31-.31.47a1.55,1.55,0,0,0-.18.51c-.07.22-.11.42-.15.59s-.06.34-.08.49l0,.44c0,.14,0,.28,0,.43a3,3,0,0,1,.07.49c0,.19,0,.39,0,.6s0,.43,0,.65,0,.43,0,.63a.52.52,0,0,1,.26.22.35.35,0,0,1,0,.3l.11.22c0,.12.11.24.17.37s.11.26.16.38.09.2.11.24l0,.09a1.31,1.31,0,0,0,.05.15l.06.15a.25.25,0,0,0,.05.07l.11.12a.42.42,0,0,0,0,.1s.05.1.08.16,0,.12.08.17,0,.09,0,.1l.1.11a.18.18,0,0,0,.09.07l.45.54a.45.45,0,0,0,.13.14l.14,0,.15,0,.2,0a0,0,0,0,1,0,0l0,.08.07.08A.22.22,0,0,0,281.66,117Z"/><path class="cls-4" d="M310,121.47v0l0-.06-.05-.11-.06-.13,0-.09s-.05-.12-.11-.23a2,2,0,0,0-.13-.24l-.07-.15s-.05-.06-.13-.06l-.05,0-.92.43a6.44,6.44,0,0,1-1,.34h-.13l-.23,0-.23,0h-.14s0,0,0,0l-.07,0-.15.1-.15.07,0,0-.05,0-.08,0-.06,0,0,0h0q-.35,0-.66,0t-.66,0a5.24,5.24,0,0,1-1.39-.2c-.44-.12-.89-.27-1.36-.42a5.34,5.34,0,0,1-1.11-.35,6.41,6.41,0,0,1-1-.58,1.38,1.38,0,0,0-.37-.16.78.78,0,0,1-.35-.18c-.29-.23-.59-.48-.88-.74s-.57-.52-.85-.79l-.11-.09-.14-.14-.13-.14a.23.23,0,0,1-.07-.08l-.23-.31-.22-.32-.17-.26-.07-.12v-.08a.78.78,0,0,0,0-.09l-.09-.17L296,116l-.08-.17a1.6,1.6,0,0,1-.11-.29c0-.12-.07-.24-.11-.36s-.07-.24-.1-.36l-.08-.3c0-.07,0-.15-.09-.25l-.1-.3-.08-.25a.9.9,0,0,1,0-.12v-.14c-.05-.32-.09-.66-.13-1a9,9,0,0,1,0-1.18,9.32,9.32,0,0,1,.13-1.33,8.21,8.21,0,0,1,.37-1.48.64.64,0,0,1,0-.15.8.8,0,0,1,.06-.17,8.29,8.29,0,0,1,.32-.86,5.5,5.5,0,0,1,.36-.73,7.15,7.15,0,0,1,.44-.68c.17-.23.36-.48.58-.75l.4-.46c.19-.22.42-.46.68-.72s.55-.53.86-.79a7.67,7.67,0,0,1,.89-.67,11.16,11.16,0,0,1,5.32-1.33,11.09,11.09,0,0,1,1.17.09l1.17.13h.38a.18.18,0,0,0,0,.08s.06.06.08.06l.12,0a1.89,1.89,0,0,1,.21.09l.19.08.11.06.92.45.1.06.2.08.2.09a.31.31,0,0,0,.12,0,2.46,2.46,0,0,1,.3.17,1,1,0,0,1,.27.23l.3.31.37.39c.13.13.24.24.33.35a1.39,1.39,0,0,1,.17.19l.24.33q.18.23.36.48c.13.16.24.32.35.48l.23.32,0,0,0,0c.12.2.25.41.38.64a7.49,7.49,0,0,1,.36.69,6.46,6.46,0,0,1,.28.73,3.75,3.75,0,0,1,.19.75c0,.11,0,.26,0,.46s.05.4.07.61.05.38.07.55,0,.26,0,.29v.08s0,.1,0,.17V111a1,1,0,0,0,0,.16,9.18,9.18,0,0,1-.31,1.91c-.18.62-.37,1.24-.58,1.86a.62.62,0,0,0-.05.14.66.66,0,0,0,0,.13.38.38,0,0,0-.05.11.23.23,0,0,0,0,.09l-1.41,2.34v.12a5.8,5.8,0,0,1,.49.53,4.87,4.87,0,0,1,.34.47q.15.21.24.36a.81.81,0,0,0,.19.21c.13.31.26.6.4.87l.47.84s0,.06-.06.11l-.1.08-.05,0-.09.09-.09.08-.06,0-.14,0-.17.06-.14.07-.08,0-.12.06-.22.1-.22.1-.12.06h-.25l-.14,0-.24.05-.22,0-.12,0h-.55l-.12,0-.2,0-.21,0-.12,0h-.07a.26.26,0,0,1-.24-.12,1.29,1.29,0,0,0-.19-.21Zm-9.33-6.28.13.16.21.24.2.24a1.17,1.17,0,0,0,.16.16l.26.22a.77.77,0,0,0,.32.17.25.25,0,0,0,.11,0l.12,0s0,0,.08.07l.07.07.07,0,.11.06.11.06.09,0a5.11,5.11,0,0,0,1.17.35,6.53,6.53,0,0,0,1.25.11h.57l.19,0a.25.25,0,0,0,.19-.11v-.07l-.1-.19a.62.62,0,0,0-.1-.19l-.1-.21q-.09-.16-.18-.36l-.19-.35-.11-.2a.35.35,0,0,0,0-.1s-.05-.11-.07-.17a1.3,1.3,0,0,1-.08-.17.43.43,0,0,0-.05-.1.57.57,0,0,0-.07-.13l-.1-.19-.11-.2-.08-.13a.24.24,0,0,1-.15-.1.58.58,0,0,1-.05-.14,1,1,0,0,1,0-.17,1.21,1.21,0,0,0-.05-.18c-.11-.24-.22-.44-.32-.62a1.8,1.8,0,0,0-.49-.51v-.07l.17-.12.15,0h.16l.2,0h.08l.14,0,.14,0,.09,0h.12l.21,0,.21,0,.12,0,.21-.06.36-.12.36-.11.21-.07h.6l.13,0h.07l.17,0,.14,0,.07.06.13.11.14.12.09.1a.21.21,0,0,1,0,.07.28.28,0,0,1,0,.08.49.49,0,0,1,.08.1l.11.16.11.16.08.1s0,0,.06.07l.06.07.06,0s.07,0,.07,0a.87.87,0,0,1,.06.13l.06.12.14.19.17.2a.35.35,0,0,0,.09.1l.13.14.12.14.09.08s0,0,.06,0l.06,0a.19.19,0,0,1,0,.1.84.84,0,0,1,0,.1h.07a.2.2,0,0,0,.15-.09.72.72,0,0,0,.12-.21,2.44,2.44,0,0,0,.1-.24l.07-.19a.38.38,0,0,0,.05-.14l.05-.2.06-.23a.27.27,0,0,1,0-.08l0-.16,0-.14a.39.39,0,0,0,0-.09s0-.08,0-.16a1.31,1.31,0,0,0,0-.14s0-.09,0-.21,0-.21,0-.26a1.7,1.7,0,0,0,0-.24v-.16s0-.13,0-.27,0-.28-.05-.45,0-.33-.05-.49a2.9,2.9,0,0,0-.06-.36.65.65,0,0,0,0-.1,1.36,1.36,0,0,0,0-.17l-.06-.19,0-.14a.09.09,0,0,0,0-.06l0-.07c-.12-.38-.24-.76-.38-1.12a4.33,4.33,0,0,0-.56-1.06l0,0a0,0,0,0,0,0,0h-.12s0,0-.05-.07L309,107l-.3-.38a2,2,0,0,0-.37-.34.58.58,0,0,0-.25-.15l-.25-.12a.59.59,0,0,0-.11-.1l-.11-.1a3,3,0,0,0-.58-.27l-.66-.19-.19,0h-.47a.26.26,0,0,1-.15-.06h-.49a4.43,4.43,0,0,0-.9.09,5.5,5.5,0,0,0-.88.25,6.94,6.94,0,0,0-.83.39c-.27.15-.53.31-.79.48a.92.92,0,0,0-.16.12.41.41,0,0,0-.1.1c-.28.24-.54.49-.78.74a2.53,2.53,0,0,0-.55.9,10.34,10.34,0,0,0-.4,1.09,5.22,5.22,0,0,0-.18,1.14v.09a.53.53,0,0,0,0,.13.45.45,0,0,0,0,.11V111l.25,2.48a1,1,0,0,0,.06.27,3.12,3.12,0,0,0,.15.39q.09.19.18.36a1.15,1.15,0,0,0,.13.21.28.28,0,0,0,.11.05l.08,0a.2.2,0,0,1,.08.12s0,.09.05.13,0,0,0,.07S300.6,115.18,300.62,115.19Z"/><path class="cls-4" d="M316.67,101.81a1,1,0,0,1,.09-.4.4.4,0,0,1,.34-.21c.22,0,.44,0,.67.08l.67.09a4.33,4.33,0,0,0,.62,0,1.33,1.33,0,0,0,.54-.11h.19l.34,0h.65a.29.29,0,0,1,.25.17l.14.33c0,.06,0,.13,0,.19a.6.6,0,0,1,0,.19q0,.32,0,.57c0,.17,0,.34,0,.51a4.41,4.41,0,0,0,0,.52c0,.17,0,.36,0,.58,0,.4,0,.84,0,1.31s0,.91.07,1.32c0,0,0,.08,0,.17s0,.17,0,.27,0,.18,0,.26a1.14,1.14,0,0,1,0,.15v.08a.49.49,0,0,1,0,.12v.13a.33.33,0,0,0,0,.16s0,.1,0,.15,0,.11,0,.16a.72.72,0,0,1,0,.13c.09.73.19,1.44.29,2.14s.24,1.4.37,2.13c0,0,0,0,0,.09l0,.14a.75.75,0,0,0,0,.16.22.22,0,0,0,0,.08v.06s0,.07,0,.11,0,.08,0,.11a.18.18,0,0,1,0,.06v.07a.29.29,0,0,0,0,.09.52.52,0,0,0,0,.11l.19.68c0,.11,0,.23.07.38s.07.29.11.44a4.13,4.13,0,0,0,.14.42,2.45,2.45,0,0,0,.18.33,1.6,1.6,0,0,0,.68.59,1,1,0,0,0,.86,0h0l.07,0,.06,0,.15-.13.2-.19.21-.19.13-.12a.38.38,0,0,0,.08-.09.47.47,0,0,0,.09-.12,7.59,7.59,0,0,0,.55-1.07,4.49,4.49,0,0,0,.33-1.17c0-.09,0-.23,0-.4s0-.34,0-.52,0-.34,0-.48,0-.24,0-.29v-.29c0-.07,0-.14,0-.22v-.17a10.91,10.91,0,0,0,0-1.4c0-.46-.06-.92-.07-1.39v-.19c0-.1,0-.22,0-.34s0-.23,0-.34a1.8,1.8,0,0,0,0-.2,3.24,3.24,0,0,0,0-.38q0-.27,0-.57c0-.21,0-.4,0-.57s0-.3,0-.37,0-.12,0-.25,0-.28,0-.44l-.06-.42c0-.13,0-.21,0-.24s0-.13,0-.33-.06-.43-.09-.69-.06-.53-.09-.81,0-.5,0-.68v0s0,0,0,0v0a.35.35,0,0,0,0-.12.06.06,0,0,1,0,0l0,0,.11,0,1.43-.08c.5,0,1,0,1.41,0a1.19,1.19,0,0,0,.28,0h.32l.28,0a.3.3,0,0,1,.18.08.19.19,0,0,0,.13.07l.15,0,.12,0a.1.1,0,0,1,.07.08c0,.16.05.31.07.45s0,.27,0,.4l0,.4c0,.14,0,.29,0,.46v.34a.76.76,0,0,1,0,.18c0,.09,0,.15,0,.17a.66.66,0,0,0-.06.33l0,.5c0,.18,0,.35.06.5a1.85,1.85,0,0,1,0,.3c0,.31,0,.62-.05.93l-.06.94c0,.3,0,.59,0,.88s0,.54,0,.78c0,0,0,.1,0,.22s0,.26,0,.41,0,.28,0,.4,0,.2,0,.22,0,.09,0,.17,0,.16,0,.24v.41l-.06.14-.36,4.61a8.32,8.32,0,0,1-.44,1.58,5.7,5.7,0,0,1-.65,1.2,4.46,4.46,0,0,1-.9.89,6.12,6.12,0,0,1-1.15.68,2.51,2.51,0,0,0-.5.18l-.51.22a5.34,5.34,0,0,1-.52.18,1.54,1.54,0,0,1-.51.06c-.25,0-.47.07-.65.08l-.49,0a2.7,2.7,0,0,1-.41,0l-.4-.07-.79-.12a2.07,2.07,0,0,1-.77-.26,8.45,8.45,0,0,1-.8-.47,5.94,5.94,0,0,1-.67-.55,7,7,0,0,1-.58-.63,9.09,9.09,0,0,1-.55-.75,3.28,3.28,0,0,1-.32-.66c-.07-.2-.14-.44-.23-.71,0-.11-.08-.24-.13-.38a2.08,2.08,0,0,1-.12-.39s0-.11,0-.25,0-.29-.05-.45,0-.31,0-.46a1.64,1.64,0,0,0,0-.26s0-.08,0-.17,0-.18-.05-.27l-.06-.28c0-.09,0-.14,0-.16a23,23,0,0,1-.15-2.34c0-.77-.05-1.55-.08-2.35v-.12s0-.1,0-.17a1.94,1.94,0,0,0,0-.24c0-.08,0-.15,0-.21v-.12s0-.15,0-.31,0-.33-.07-.52,0-.36-.06-.52,0-.26,0-.31a1,1,0,0,1,0-.14v-.25a2.17,2.17,0,0,1,0-.26v-.14c0-.39,0-.75-.06-1.07s-.05-.67-.08-1a1.05,1.05,0,0,1,0-.18.37.37,0,0,0,0-.16.13.13,0,0,0,0-.07.41.41,0,0,1,0-.07,3.25,3.25,0,0,1-.1-.77C316.66,102.32,316.66,102.06,316.67,101.81Z"/><path class="cls-4" d="M334.46,121.09l-.13,0-.23,0-.24,0-.15,0h-.19l-.07,0s-.05,0-.07,0a.27.27,0,0,1-.19-.12.55.55,0,0,0-.15-.14.71.71,0,0,0-.28-.1.3.3,0,0,1-.23-.19c0-.61,0-1.21,0-1.79s0-1.18,0-1.79q0-.63.06-1.26c0-.42.05-.84.05-1.26v-.16a.32.32,0,0,0,0-.08s0-.08,0-.13,0-.08,0-.12l0-.08v-.13c0-.06,0-.13,0-.21s0-.14,0-.21v-.12s0-.08,0-.15a1,1,0,0,0,0-.23c0-.07,0-.15-.05-.22a1,1,0,0,0,0-.15c-.09-1.74-.15-3.47-.2-5.19s-.1-3.44-.15-5.18v-.12a.73.73,0,0,1,0-.22,1,1,0,0,1,.11-.28,2.32,2.32,0,0,1,.14-.23c.06-.07.1-.1.15-.1a1.53,1.53,0,0,1,.47.07,1.53,1.53,0,0,0,.47.07h.25a.43.43,0,0,0,.14,0l.14,0a17.41,17.41,0,0,1,2.3-.18l2.3,0c.77,0,1.52,0,2.25.11s1.48.12,2.24.16a.32.32,0,0,1,.12.11.5.5,0,0,1,.08.12l.08.13a.34.34,0,0,0,.12.12c0,.06,0,.17,0,.32s0,.31,0,.48l0,.49c0,.16,0,.26,0,.32v.08s0,.11,0,.17,0,.13,0,.2v.14s0,.07,0,.13,0,.12,0,.18a1.28,1.28,0,0,0,0,.19.68.68,0,0,0,0,.12l-.18.3a.56.56,0,0,1-.24.21,1.66,1.66,0,0,1-.46.12,6.37,6.37,0,0,1-.89,0h-1.53l-.91,0-1,0-1.22.05-.09.14a1.47,1.47,0,0,0,0,.22c0,.14,0,.29-.07.47s0,.36-.07.55,0,.33-.06.45v.13a.72.72,0,0,1,0,.17v.23a.33.33,0,0,0,.07.21l.07,0,.07,0a10.5,10.5,0,0,0,1.14.1l1.12,0h.36l.32,0,.31,0h.23a3.82,3.82,0,0,1,.92.1c.28.06.59.12.92.17l.24,0a1.09,1.09,0,0,1,.26,0,.53.53,0,0,1,.22.08.38.38,0,0,1,.15.2,1.42,1.42,0,0,1,.06.21l.09.26c0,.08.05.16.07.22a.48.48,0,0,1,0,.12,1.24,1.24,0,0,0,0,.47l.07.46a3.89,3.89,0,0,1,0,.47,1.26,1.26,0,0,1-.08.47.76.76,0,0,1-.34.49,2.28,2.28,0,0,1-1,.26h-1.08l-.62,0-.61,0h-2.69c0,.4,0,.8-.08,1.2s-.07.81-.08,1.21v.25c0,.11,0,.17,0,.19a1.43,1.43,0,0,1,0,.21c0,.11,0,.22,0,.35l0,.36c0,.11,0,.19,0,.24l0,.14a.85.85,0,0,0,0,.17c0,.06,0,.11,0,.15s0,.06,0,.06l.41.07,5.66,0h.42a1.31,1.31,0,0,1,.25,0l.13.06.06.08c0,.1,0,.19,0,.27v.4c0,.07,0,.16,0,.28v.34c0,.11,0,.21,0,.3a1.49,1.49,0,0,0,0,.17.34.34,0,0,1,0,.09l0,.14,0,.14a.34.34,0,0,0,0,.09v.33a2.28,2.28,0,0,0,0,.37,2.42,2.42,0,0,1,0,.38,1.51,1.51,0,0,1-.07.37.7.7,0,0,1-.25.3c-.68.06-1.34.13-2,.22a14.86,14.86,0,0,1-2,.14c-.34,0-.66,0-1,0s-.64,0-1,0a.69.69,0,0,0-.4,0l-.4.11a2.79,2.79,0,0,1-.38.07.43.43,0,0,1-.33-.12Z"/><path class="cls-4" d="M346.15,117.91a.85.85,0,0,0-.09-.44,2.65,2.65,0,0,0-.23-.39s0,0-.07-.11l-.1-.12a.11.11,0,0,1,0,0v-.07a.2.2,0,0,1,0-.07.23.23,0,0,0,0-.07l.11-.09a1,1,0,0,1,.15-.13l.15-.13.11-.09.2-.17.32-.25.32-.24.21-.16.09-.07.19-.12.17-.12.1-.06a.21.21,0,0,1,.08,0l.14-.1.13-.09.09-.07.17-.09.18-.08h0l0,0,.3.34.45.51.45.52.31.34.15.13.26.24.28.26.22.18.14.11.18.15.16.12c.05,0,.08.06.1.06l.14,0,.2.06h.07a1.46,1.46,0,0,0,.35,0,1.63,1.63,0,0,0,.44,0,1.18,1.18,0,0,0,.4-.17.56.56,0,0,0,.25-.36l-.15-1.11s0-.07,0-.15l-.06-.19-.37-.62,0-.06,0,0a.06.06,0,0,1,0,0,4.81,4.81,0,0,0-.52-.71,8.21,8.21,0,0,0-.58-.6c-.2-.19-.4-.38-.62-.56l-.65-.57-.57-.55c-.19-.19-.38-.37-.56-.53l-.64-.55c-.21-.17-.41-.35-.61-.54a12,12,0,0,1-.78-1,7.78,7.78,0,0,1-.69-1.15,5.8,5.8,0,0,1-.48-1.23,3.56,3.56,0,0,1-.14-1.23,3,3,0,0,1,.2-.92,4.67,4.67,0,0,1,.43-.83l.06-.06a.16.16,0,0,0,0-.06l.15-.21.17-.26.15-.21.06-.1.13-.12.26-.24.28-.26.23-.2a3.5,3.5,0,0,1,.59-.41c.2-.1.41-.2.62-.28l.64-.22.68-.22a1.82,1.82,0,0,1,.31,0l.38,0a2.54,2.54,0,0,1,.39,0h.32a7.84,7.84,0,0,1,.92.13,5.39,5.39,0,0,1,.81.23c.25.1.5.22.75.35s.51.29.79.47l0,0,.05,0a.1.1,0,0,0,0,0l.39.28.07.1.11.11.19.18.33.32.32.33a1.75,1.75,0,0,1,.18.2l.06.07.1.14.13.15.1.12.17.27a.43.43,0,0,1,.06.29v.12a.73.73,0,0,1-.09.09l-.13.15-.14.13-.08.09-.06,0-.11.07-.12.08-.07,0a3.13,3.13,0,0,1-.3.28l-.48.42c-.17.14-.34.28-.49.42l-.31.28a.33.33,0,0,1-.26.06l-.17,0a.3.3,0,0,1-.17-.08.67.67,0,0,1,0-.07s0-.08-.05-.13a.69.69,0,0,0-.05-.13l0-.08c-.07-.15-.16-.3-.25-.46a4.59,4.59,0,0,0-.33-.44,3.59,3.59,0,0,0-.39-.39,2.06,2.06,0,0,0-.41-.29l-.1,0-.17-.06-.18-.06-.12,0s0,0-.07-.06l-.1,0h-.56a1.61,1.61,0,0,0-.39,0,1,1,0,0,0-.65.41,1.58,1.58,0,0,1-.07.16.31.31,0,0,0-.06.12v.1a.81.81,0,0,0,0,.16,1,1,0,0,0,0,.17.58.58,0,0,0,0,.1s0,0,0,.07,0,0,0,.07v.07a2.5,2.5,0,0,0,.31.55,5.08,5.08,0,0,0,.41.51c.14.16.29.31.46.47l.46.45.09.11c.06.06.08.09.08.11l.21.16.35.29.39.29.3.21.11.08.07.07.1.11.1.11s.06.07.07.07l.12.07a4.35,4.35,0,0,1,.75.68l.66.77.15.18.26.32c.09.11.18.21.25.31l.14.18.08.08a.45.45,0,0,0,.07.07l.06.14a1.26,1.26,0,0,1,.05.15l.06.1a1.74,1.74,0,0,0,.11.18,2.12,2.12,0,0,1,.12.2,1.16,1.16,0,0,0,.09.14l0,.06.06.09.06.09.05,0a1.32,1.32,0,0,0,.07.18c0,.09.08.19.12.3s.1.21.14.31a.76.76,0,0,0,.09.17.4.4,0,0,0,.07.14,1.07,1.07,0,0,0,.1.14V115a.85.85,0,0,0,0,.13s0,.06,0,.13a.54.54,0,0,0,.08.17l.15.8-.08,1.42a.36.36,0,0,1,0,.11l-.05.11a3.4,3.4,0,0,1-.27.7,2.07,2.07,0,0,1-.5.59,1.4,1.4,0,0,1-.18.18l-.32.28-.36.29-.27.19a10,10,0,0,1-.92.67,4.49,4.49,0,0,1-1,.51,2.25,2.25,0,0,1-.4.07,3,3,0,0,0-.42.07c-.25,0-.49.1-.72.17a2.45,2.45,0,0,1-.72.07,4.92,4.92,0,0,1-.67-.1c-.22,0-.44-.1-.66-.16a6.32,6.32,0,0,1-1.55-.69,5.1,5.1,0,0,1-1.16-1l-.15-.16-.26-.26-.25-.27-.14-.16-.16-.19-.25-.28-.26-.27Z"/></g></svg>