<svg xmlns="http://www.w3.org/2000/svg" viewBox="0 0 260 205"><defs><style>.cls-1{fill:#173e41;}.cls-2{fill:#45b7c0;}.cls-3{fill:#44b6c0;}.cls-4{fill:#e3f1f4;}.cls-5{fill:#7cc6cd;}.cls-6{fill:#fff;}.cls-7{fill:#fbfbfb;}.cls-8{fill:#e73947;}.cls-9{fill:#47b5bf;}.cls-10{fill:#fac706;}</style></defs><title>Mini marco teorico refuerzo - Binario</title><g id="contenido"><path class="cls-1" d="M255.32,199.89c1.62-1.56,1.46-3.32.71-5.26-7.78-20.25-15.68-40.46-22.67-61a6.92,6.92,0,0,0-.49-1.34,2.56,2.56,0,0,1,0-3.2,7,7,0,0,0,1-4.12c0-3.34.1-6.69.12-10,.08-12.25.12-24.5.23-36.76q.1-12.65.34-25.3c.2-9.78.47-19.56.74-29.34.09-3.34.28-6.68.44-10A15.13,15.13,0,0,0,235.4,9a8.82,8.82,0,0,0-8.13-6.91C225,2,222.65,2,220.35,2l-30.56-.06q-17.67,0-35.33-.12c-11.62-.05-23.24,0-34.85-.15-21.73-.24-43.45.4-65.17.78-1.83,0-3.66.1-5.49.11a10.76,10.76,0,0,0-10.1,8.32,31.74,31.74,0,0,0-.64,3.76c-.42,4.43-.73,8.87-.73,13.34,0,8.67-.3,17.34-.71,26-.27,5.48-.48,11-.77,16.45-.37,6.75-.81,13.5-1.2,20.25q-.4,7-.76,14.06-.47,9.06-.86,18.12c-.06,1.19-.07,2.39-.06,3.58a3.26,3.26,0,0,0,.24,1.4c.58,1.11.62,2-.49,2.86a2.19,2.19,0,0,0-.54,1C30,138.4,27,144.81,24.16,151.28c-6,13.52-12,27-17.44,40.78C5.81,194.35,5,196.67,4.09,199a5.22,5.22,0,0,0-.46,2.77s-1.52,1.3,3.69,1.65S253,201.29,253,201.29Z"/><path class="cls-2" d="M6.48,200.78H9.76c8,0,16.08,0,24.11.07,8.6.05,17.19.1,25.78.28,12.34.25,24.67-.21,37-.33,15-.15,29.92-.38,44.88-.57l45.36-.6,47.26-.63c5-.07,10-.09,15-.12a8.35,8.35,0,0,0,3.29-.47,5.73,5.73,0,0,0,1.21-.73,1,1,0,0,0,.3-1.08c-.12-.38-.3-.73-.44-1.11-6.17-16.54-12.66-33-18.59-49.58-1.42-4-2.81-7.95-4.07-12a3.38,3.38,0,0,0-3.23-2.65c-.64,0-1.28,0-1.91,0q-12.28.35-24.59.2c-2.46,0-4.93,0-7.4,0l-32.94.13-21,.05q-11.82,0-23.63,0c-15.36.06-30.72.2-46.08.18-8.83,0-17.66,0-26.5.14-1.9,0-3.81-.24-5.71-.3-3.1-.09-2.81-.08-3.77,2.48-2.47,6.55-5.43,12.9-8.26,19.3-5.26,11.85-10.54,23.69-15.38,35.72-1.25,3.09-2.41,6.23-3.58,9.35A3.09,3.09,0,0,0,6.48,200.78Z"/><path class="cls-3" d="M137.47,4.16c-8.51-.25-17,.06-25.54-.06-7.16-.11-14.32.07-21.48.17q-19.7.3-39.39.65a13.33,13.33,0,0,0-4,.42,8.05,8.05,0,0,0-5.75,6.13,39,39,0,0,0-.7,4.71c-.45,4.51-.59,9.05-.65,13.58-.08,5.33-.08,10.67-.28,16-.29,7.79-.73,15.57-1.12,23.36-.25,5-.5,10-.79,15-.39,6.75-.82,13.5-1.22,20.25q-.2,3.45-.35,6.91-.3,6.91-.58,13.83a5.86,5.86,0,0,0,.23,2.12,2.58,2.58,0,0,0,2.39,2c1,.06,1.9.17,2.85.17q11.58,0,23.16-.07l29.84-.17c7.32,0,14.65,0,22,0l22.68-.05,21.72-.05,22.92,0c7.16,0,14.33-.08,21.49,0s14.32,0,21.48-.08a11.73,11.73,0,0,1,2.37.19,1.6,1.6,0,0,0,1.8-.83,5.91,5.91,0,0,0,.85-3.18c0-3.18.12-6.37.13-9.55.05-8.67.05-17.35.11-26q.09-14.33.27-28.65.15-11,.43-22c.14-5.73.33-11.46.53-17.18.11-3,.3-6,.48-9a8.44,8.44,0,0,0-.45-3.53A6.66,6.66,0,0,0,227,4.52a13.58,13.58,0,0,0-1.43,0l-13.13,0q-13.37,0-26.73,0-16.71,0-33.43-.12C147.34,4.27,142.41,4.21,137.47,4.16Z"/><path class="cls-1" d="M128.67,173.18l24.83,0h17.67c8.52,0,17-.11,25.55,0,8.68.07,17.35-.15,26-.24.95,0,1.91-.06,2.86-.11a6.08,6.08,0,0,0,2.73-.79,2.87,2.87,0,0,0,1.62-2.72,13.86,13.86,0,0,0-.22-2.13A165.69,165.69,0,0,0,225,148.67c-1-3.34-2.1-6.68-2.82-10.11-.41-2-1.43-3.34-4.2-3.36-1.67,0-3.34.12-5,.14l-46.09.41q-11.7.1-23.4.17c-11.54.09-23.08.24-34.62.24-14,0-28,.42-42,.56-7.32.07-14.64.09-22,.13-3.18,0-3.73.36-4.92,3.42-1.39,3.55-2.72,7.13-4.09,10.69-.43,1.11-.9,2.21-1.37,3.31a73.32,73.32,0,0,0-3.13,8.5,55.11,55.11,0,0,1-3,8,6.09,6.09,0,0,0-.37.88,1.25,1.25,0,0,0,.69,1.59,6.83,6.83,0,0,0,2.78.58,23.18,23.18,0,0,0,2.63-.08c6.27-.47,12.56-.51,18.85-.52,3.82,0,7.64-.07,11.46-.09q15.75-.06,31.52-.09,9.08,0,18.14,0c4.86,0,9.71.07,14.57.11Z"/><path class="cls-1" d="M140.82,196.5c6.84.07,15.59-.16,24.34-.5,1.43-.06,2.86-.17,4.29-.31.87-.09,1.22-.64,1-1.52a9.38,9.38,0,0,0-.41-1.37l-4.83-13.73c-.05-.15-.11-.3-.15-.45A3.22,3.22,0,0,0,161.6,176c-1.35,0-2.71-.11-4.06-.09-13.92.11-27.85,0-41.78.45-3.17.1-3.06-.24-4.08,3.08-1.35,4.41-2.74,8.8-4.12,13.21-.12.38-.22.76-.33,1.14-.7,2.47-.44,2.83,2.07,2.83Z"/><path class="cls-1" d="M36.86,134.94a1.21,1.21,0,1,0,2.42-.07,1.21,1.21,0,1,0-2.42.07Z"/><path class="cls-1" d="M225.44,134.54a1.18,1.18,0,1,0,2.31-.52,1.14,1.14,0,0,0-1.41-.92A1.19,1.19,0,0,0,225.44,134.54Z"/><path class="cls-1" d="M135.7,121.14c4,.15,9.79,0,15.6,0,12.18,0,24.36,0,36.53,0,9.48,0,18.95-.1,28.42-.16,1,0,2.08,0,3.1-.1,3.43-.34,4.91-2.52,5.19-4.73a20.93,20.93,0,0,0,.24-2.61c.06-7.32.09-14.65.15-22,.09-9.31.18-18.62.32-27.93q.15-10.28.45-20.53c.2-6.36.52-12.72.77-19.08.06-1.43,0-2.87.1-4.3a7.87,7.87,0,0,0-7-7.81,30.93,30.93,0,0,0-5-.28q-7.53.08-15.05.1-8,0-16,0c-8.36,0-16.72-.09-25.08-.13l-6,0c-9.07,0-18.15.12-27.22,0-16.4-.22-32.79.08-49.19.42-5.09.11-10.19.1-15.28.17-1.27,0-2.55,0-3.82.17a10,10,0,0,0-9.14,8.38,49.76,49.76,0,0,0-.73,7.6c-.17,3.49-.21,7-.25,10.5-.09,7.32-.41,14.63-.84,21.94-.29,4.69-.51,9.38-.8,14.06s-.62,9.05-.93,13.57c-.13,1.91-.26,3.81-.37,5.72q-.53,9.65-1,19.3a25.66,25.66,0,0,0,0,2.63,5.19,5.19,0,0,0,4.8,5.06c2,.16,4,.12,6,.12,2.95,0,5.89-.06,8.84-.07Q78.7,121.07,95,121q9.42,0,18.86,0C120.5,121.06,127.18,121.1,135.7,121.14Z"/><path class="cls-1" d="M134,7.39a2.4,2.4,0,0,0-2.45-2.33,2.44,2.44,0,0,0-2.33,2.7A2.4,2.4,0,1,0,134,7.39Z"/><path class="cls-4" d="M141.72,165.05c-4.77.12-9.54.36-14.31.31-5.57-.07-11.14,0-16.71.08-2.3,0-2.29,0-1.87,2.27.13.7.23,1.41.34,2.12a.89.89,0,0,0,1,.81l6.21,0c8,0,16.07-.12,24.1,0,5.65.1,11.3-.1,16.94,0,5.17.11,10.34,0,15.51,0,.64,0,1.28,0,1.91,0,1.17-.06,1.33-.23,1.26-1.47a20.64,20.64,0,0,0-.3-2.61c-.22-1.12-.45-1.29-1.61-1.32-2.46-.05-4.93-.11-7.39-.11q-6.09,0-12.18.14C150.32,165.34,146,165,141.72,165.05Z"/><path class="cls-4" d="M213.62,170.64l10.5-.25a17.15,17.15,0,0,0,1.9-.1,1.46,1.46,0,0,0,1.36-1.84c0-.08,0-.15-.07-.23-.72-3.32.16-3.05-3.68-3.05q-10.5,0-21,0c-2.61,0-2.44-.1-2.33,2.5.15,3.23-.28,2.85,3.06,2.87S210.21,170.6,213.62,170.64Z"/><path class="cls-4" d="M60.46,158.47c-1.52-.06-3-.2-4.5-.18-6.35.11-12.7.3-19.06.38a1.84,1.84,0,0,0-2,1.52c-.27,1-.6,2-.85,3a.51.51,0,0,0,.48.66,13.65,13.65,0,0,0,1.43,0l21.2-.41c2.3,0,2.21.14,2.81-2.27A8.4,8.4,0,0,0,60.46,158.47Z"/><path class="cls-4" d="M31.25,170.84a3.14,3.14,0,0,0,2,.31l24.3-.5c.39,0,.79,0,1.18-.07a.75.75,0,0,0,.71-.8c0-.95,0-1.91-.06-2.86a.83.83,0,0,0-.93-.84c-2,0-4-.1-6-.07-5.71.08-11.43.2-17.15.31-.55,0-1.11,0-1.66.06a1,1,0,0,0-1,.58C32.16,168.24,31.76,169.58,31.25,170.84Z"/><path class="cls-4" d="M80.83,158,79,158l-13.08.23c-.56,0-1.11,0-1.67.06a1.13,1.13,0,0,0-1.06.81,6.75,6.75,0,0,0-.2.68c-1.11,4-1.51,3.53,2.52,3.51l11.9,0c.55,0,1.11,0,1.66,0a1,1,0,0,0,1-.8A22.72,22.72,0,0,0,80.83,158Z"/><path class="cls-4" d="M71.49,170.74c2.46-.06,4.93-.1,7.39-.17,1.69,0,1.69-.08,1.55-1.84,0-.24,0-.48-.07-.71-.33-2.74-.58-2.3-2.64-2.27-4.45.05-8.91.14-13.36.22-.48,0-1,0-1.43.06s-.77.28-.77.73c0,1.11,0,2.22.1,3.33a.68.68,0,0,0,.64.6,11.46,11.46,0,0,0,1.43.05l7.16-.17Z"/><path class="cls-4" d="M221.41,162.72c1.5,0,2.77-.05,4-.1A.56.56,0,0,0,226,162c-.24-1.16-.51-2.31-.81-3.46a1,1,0,0,0-.87-.71,15.3,15.3,0,0,0-1.65-.14l-11.89.06a6,6,0,0,0-1,.08.64.64,0,0,0-.54.66,2.46,2.46,0,0,0,0,.47c1.05,4.27-.49,3.65,4.27,3.67C216.25,162.62,219,162.68,221.41,162.72Z"/><path class="cls-4" d="M168.35,162.72c1.74,0,3.48-.07,5.22-.13,1.2,0,1.34-.19,1.25-1.45a20.18,20.18,0,0,0-.39-2.57c-.18-.9-.32-1-1.27-1.09a5.74,5.74,0,0,0-.71,0c-3.49,0-7,0-10.45.07-.94,0-1.14.25-1.08,1.13a14.69,14.69,0,0,0,.48,3.29.92.92,0,0,0,1,.77l5.94-.13Z"/><path class="cls-4" d="M82.23,151.6a1.43,1.43,0,0,0-1.17-.32q-7.17.12-14.32.26c-1.37,0-1.48.11-1.84,1.38-.78,2.76-1.06,2.71,2,2.66,3.9-.06,7.79-.15,11.69-.09,3.14.06,2.9.51,3.53-3C82.18,152.17,82.2,151.86,82.23,151.6Z"/><path class="cls-4" d="M66.3,148.74a9,9,0,0,0,1,.12c4.51,0,9,0,13.53-.07,2,0,2.06-.06,2.38-2.09.1-.61.15-1.23.22-1.79a2.1,2.1,0,0,0-1.46-.3c-4.43.09-8.87.17-13.3.27-1.46,0-1.46.06-1.92,1.54-.16.53-.31,1.06-.44,1.6A3.94,3.94,0,0,0,66.3,148.74Z"/><path class="cls-4" d="M114.14,162.94l4.51-.1a.87.87,0,0,0,.95-.82,14.08,14.08,0,0,0,.07-3.78.67.67,0,0,0-.62-.6,1.91,1.91,0,0,0-.47,0c-3,0-6,.06-9,.13-1,0-1.08.16-1.2,1.08s-.26,2-.32,3.06c-.05.87.19,1.1,1.12,1.1,1.66,0,3.32-.07,5-.11Z"/><path class="cls-4" d="M153.14,162.6c1.47.06,2.89.14,4.32.15,1.07,0,1.3-.25,1.23-1.24s-.16-1.9-.3-2.83-.43-1.11-1.25-1.13c-2.85-.05-5.7-.08-8.55-.11a3.71,3.71,0,0,0-.94.1.51.51,0,0,0-.44.48,4.94,4.94,0,0,0,0,.94c.76,4.42-.4,3.66,3.86,3.69C151.76,162.65,152.47,162.62,153.14,162.6Z"/><path class="cls-4" d="M167.3,155c1.91,0,3.82-.08,5.73-.14a.63.63,0,0,0,.67-.77,4.06,4.06,0,0,0-.09-.7c-.8-2.73.07-2.74-3.37-2.7l-8.36.07c-.31,0-.63,0-.95,0-.78.06-1,.32-.93,1s.2,1.42.31,2.12c.14.87.29,1,1.26,1,1.91,0,3.82-.08,5.73-.13Z"/><path class="cls-4" d="M88.73,170.68c1.43,0,2.85-.06,4.27-.11a.72.72,0,0,0,.75-.75,11.53,11.53,0,0,0-.5-3.74.78.78,0,0,0-.72-.53,5.54,5.54,0,0,0-.71,0c-2.61,0-5.22.06-7.84.13-1.17,0-1.34.23-1.23,1.46.39,4.24.21,3.53,3.84,3.57.72,0,1.43,0,2.14-.05Z"/><path class="cls-4" d="M36.81,156.12a7.7,7.7,0,0,0,1,.09c3.58-.08,7.16-.15,10.74-.25,1.36,0,1.37-.07,1.69-1.46.13-.54.22-1.09.31-1.64.12-.82-.07-1.12-.78-1.11-3.51.06-7,.15-10.51.23a1.4,1.4,0,0,0-1.47,1C37.49,154,36.71,154.9,36.81,156.12Z"/><path class="cls-4" d="M82.79,163a3.23,3.23,0,0,0,.73.18c2.86,0,5.71-.06,8.57-.11,1,0,1.07-.13,1.16-1.11.46-5,.93-4.08-3.79-4.1-1.59,0-3.18,0-4.77.09-.92,0-1,.1-1.24,1.09A12.05,12.05,0,0,0,82.79,163Z"/><path class="cls-4" d="M165.18,144c-1.67,0-3.33.06-5,.12a.78.78,0,0,0-.85.9,2.48,2.48,0,0,0,0,.47c.59,2.79-.28,2.81,3.14,2.8,2.85,0,5.71,0,8.56-.07,1.38,0,1.4-.06,1.2-1.3-.5-3.06.13-3-3.51-2.9l-3.57.08Z"/><path class="cls-4" d="M145,162.42c-.09-1.23-.16-2.49-.28-3.74-.09-1-.27-1.17-1.12-1.17q-4.16,0-8.31.09c-.61,0-.87.3-.8.92.54,5-.86,4.27,4.36,4.27,1.58,0,3.16,0,4.74-.06A2,2,0,0,0,145,162.42Z"/><path class="cls-4" d="M76.22,142.29c2.22,0,4.44-.09,6.66-.16,1,0,1.06-.12,1.28-1,.5-2.11.44-2.19-1.63-2.16l-12.12.23c-1.54,0-1.55.06-2,1.48-.09.3-.16.61-.22.92-.1.51.21.74.64.77a15.47,15.47,0,0,0,1.67,0l5.7-.13Z"/><path class="cls-4" d="M95.89,163c2.06,0,3.87,0,5.67-.08,1.24-.07,2.73.62,3.65-.29s.23-2.44.63-3.64a1.81,1.81,0,0,0,0-.47.77.77,0,0,0-.69-.81,5,5,0,0,0-1-.07c-2.21,0-4.43,0-6.64.09-1.49,0-1.54.09-1.61,1.67C95.93,160.47,95.92,161.57,95.89,163Z"/><path class="cls-4" d="M127.36,162.76c1.26,0,2.53,0,3.8-.1a.72.72,0,0,0,.76-.74c0-1.26-.06-2.53-.13-3.8a.7.7,0,0,0-.63-.61,2.42,2.42,0,0,0-.47,0c-2.46,0-4.92,0-7.38.1-.93,0-1,.19-1.09,1.16a1.93,1.93,0,0,0,0,.24c.14,4.5-.62,3.79,3.72,3.8l1.43,0Z"/><path class="cls-4" d="M101.18,170.5c1.6.07,2.86.15,4.13.17s1.52-.28,1.27-1.35c-1-4.33.26-3.79-4.49-3.76-1.66,0-3.33,0-5,.06-1,0-1.13.15-1,1.31.06.71.1,1.42.16,2.13.12,1.5.12,1.51,1.73,1.51C99.14,170.57,100.32,170.52,101.18,170.5Z"/><path class="cls-4" d="M182.85,170.79c1.18,0,2.29,0,3.4-.09a.8.8,0,0,0,.87-.89c-.07-1.18-.15-2.37-.31-3.54-.11-.83-.44-1.11-1.26-1.11-2.14,0-4.27,0-6.41.07-.63,0-.9.29-.82.88.19,1.4.44,2.79.66,4.19C180.24,170.94,181.63,170.46,182.85,170.79Z"/><path class="cls-4" d="M152.54,155c1.51,0,3-.05,4.52-.11a.67.67,0,0,0,.71-.76c-.18-3.22-.3-3.35-3.6-3.39-2.22,0-4.44,0-6.67.07-.79,0-1,.25-1,1a11.71,11.71,0,0,0,.06,1.19c.19,1.89.31,2,2.14,2,1.28,0,2.55-.06,3.82-.09Z"/><path class="cls-4" d="M186.22,162.45c-.18-1.39-.34-2.72-.51-4a.88.88,0,0,0-.93-.87q-3.45,0-6.89.08c-.59,0-.82.39-.78.94.06.87.12,1.74.2,2.61.13,1.38.27,1.55,1.54,1.56,2.14,0,4.28,0,6.42-.06A5.48,5.48,0,0,0,186.22,162.45Z"/><path class="cls-4" d="M156.55,144.32a18.71,18.71,0,0,0-4.48-.3c-1.74,0-3.48,0-5.22.08-.76,0-.95.27-.93,1a11.31,11.31,0,0,0,.11,1.42c.24,1.63.32,1.72,1.9,1.71,2.61,0,5.22,0,7.83-.09,1.09,0,1.24-.19,1.17-1.29A5.42,5.42,0,0,0,156.55,144.32Z"/><path class="cls-4" d="M194.08,170.66c.95,0,1.91,0,2.86-.07.74-.05,1-.28.95-1.06,0-1.11-.06-2.22-.16-3.33a.94.94,0,0,0-.9-.94c-2.23-.06-4.45-.11-6.67-.13-.62,0-.9.3-.83.89.15,1.34.34,2.68.54,4,.07.47.44.63.87.62,1.11,0,2.22-.05,3.34-.07Z"/><path class="cls-4" d="M52,145.46a5.61,5.61,0,0,0-1-.18c-3,.06-6,.16-9,.18a1.6,1.6,0,0,0-1.75,1.25,4,4,0,0,1-.17.44c-.91,2.34-.91,2.35,1.5,2.3,2.84-.06,5.69-.12,8.54-.21,1.08,0,1.22-.15,1.45-1.16C51.72,147.24,51.83,146.38,52,145.46Z"/><path class="cls-4" d="M114.74,155.21l4.05-.1a.84.84,0,0,0,.87-.91c0-.16,0-.32,0-.48-.09-3.12.22-2.86-2.84-2.82-2.22,0-4.45,0-6.67.11-.87,0-1.14.3-1.28,1.1a2,2,0,0,0,0,.24c-.17,2.82-.38,2.73,2.32,2.7.55,0,1.11,0,1.66,0Z"/><path class="cls-4" d="M101.37,155.2c1.19,0,2.38,0,3.56-.09s1.29-.19,1.38-1.43c0-.64.06-1.27,0-1.9a.81.81,0,0,0-.91-.86c-2.69,0-5.38.05-8.07.12-.69,0-.92.32-1,1.06,0,.08,0,.16,0,.24-.09,3.11-.41,2.91,2.64,2.87l2.38-.05Z"/><path class="cls-4" d="M188.89,162.64c2.67,0,5.19-.07,7.72-.13a.64.64,0,0,0,.66-.79c-.17-1.17-.38-2.34-.59-3.51-.07-.36-.37-.49-.69-.54s-.47,0-.71,0l-5.23-.14c-1.84-.05-2,.16-1.73,2.06C188.47,160.49,188.66,161.42,188.89,162.64Z"/><path class="cls-4" d="M106.6,148.32c.08-.54.13-.85.16-1.16.32-3.1.71-2.67-2.56-2.87-2-.11-4,0-6,0-1,0-1.18.17-1.37,1.24a13,13,0,0,0-.17,1.65c0,1.1.13,1.31,1.16,1.29C100.72,148.47,103.56,148.39,106.6,148.32Z"/><path class="cls-4" d="M165.53,141.68c1.66,0,3.32-.06,5-.12.76,0,.92-.25.94-1.06,0-.24,0-.47,0-.71-.07-1.5-.13-1.58-1.68-1.57-3.09,0-6.17.07-9.26.13-1.39,0-1.51.19-1.48,1.49,0,.16,0,.32,0,.48.08,1,.29,1.29,1.27,1.3,1.74,0,3.48-.07,5.22-.11Z"/><path class="cls-4" d="M139.43,155.11l3.82-.1c.55,0,.93-.28.9-.86-.18-3.81.23-3.36-3.13-3.34-2,0-4,0-6,.09-.75,0-1,.28-1,1s0,1.27.07,1.91c.07.86.27,1,1.22,1.07l4.06.09Z"/><path class="cls-4" d="M114.31,148.5c1.42,0,2.84-.05,4.26-.11a.87.87,0,0,0,.89-.92c0-.47,0-.95,0-1.42-.09-1.72-.2-1.84-2-1.83q-3.45,0-6.88.13c-.91,0-1,.19-1.13,1.15-.29,2.85-.29,2.86,2.48,2.83.79,0,1.58,0,2.37-.05Z"/><path class="cls-4" d="M127.15,155.05c1.19,0,2.38,0,3.56-.09.77,0,1-.25.94-1.06-.11-3.32.21-3.19-3.07-3.14-1.83,0-3.65,0-5.47.09-.78,0-1,.25-1,1s0,1.59.06,2.38a.81.81,0,0,0,.94.82c1.35,0,2.69-.06,4-.09Z"/><path class="cls-4" d="M89,155.37l3.81-.09a1,1,0,0,0,1-.89,7.45,7.45,0,0,0,.07-.95c.13-2.36.12-2.37-2.24-2.34-1.91,0-3.81.07-5.71.1a1,1,0,0,0-1.11,1c-.11.79-.31,1.56-.41,2.34-.07.56.23.88.84.88,1.27,0,2.54-.05,3.8-.08Z"/><path class="cls-4" d="M179,144.12c-1.19,0-2.38,0-3.57.09-.7,0-.93.36-.87,1.09a4.26,4.26,0,0,0,.12.95c.58,2,.07,2,2.45,2,2.06,0,4.12.11,6.18.12,1,0,1.26-.26,1.05-1.09s.2-2.23-.67-2.9-1.85-.17-2.79-.21c-.63,0-1.27,0-1.9,0Z"/><path class="cls-4" d="M142.08,148.33c1.55,0,1.55,0,1.4-2.28,0-.39,0-.78-.1-1.17a.77.77,0,0,0-.79-.72c-.63,0-1.27,0-1.9,0-2.05,0-4.11,0-6.16.08-.75,0-1.06.35-.94,1,.54,3.27-.34,2.93,3.08,3C138.25,148.22,139.83,148.28,142.08,148.33Z"/><path class="cls-4" d="M126.73,148.34l3.57-.09a.79.79,0,0,0,.84-.91c0-.39,0-.79,0-1.19-.11-2.06-.11-2.08-2.21-2.06-1.9,0-3.81,0-5.71.08-1.19,0-1.3.18-1.3,1.44,0,.48,0,.95,0,1.43.09,1.21.18,1.31,1.45,1.31,1.11,0,2.22,0,3.34-.07Z"/><path class="cls-4" d="M204.29,162.62c.63-.15,1.86.45,2.92-.34.2-1.13-.32-2.17-.43-3.26-.12-1.3-.34-1.45-1.65-1.46-1.74,0-3.48,0-5.21.09a.62.62,0,0,0-.62.8c.15,1.09.34,2.18.52,3.27a1.05,1.05,0,0,0,1.13,1C201.9,162.69,202.84,162.66,204.29,162.62Z"/><path class="cls-4" d="M224,154.94a8.54,8.54,0,0,0-.81-3.35.92.92,0,0,0-.94-.6c-2.44,0-4.89,0-7.34.06-.48,0-.65.35-.61.81a4.24,4.24,0,0,0,.11.7c.88,2.78.13,2.69,3.41,2.65,1.51,0,3,0,4.51,0A2.82,2.82,0,0,0,224,154.94Z"/><path class="cls-4" d="M175.84,151.17a1.88,1.88,0,0,0,.07,1.15c.52,2.67.51,2.7,3.3,2.74,1.73,0,3.47,0,5.21-.05a.68.68,0,0,0,.71-.76,5.79,5.79,0,0,0-.06-.94c-.61-2.72,0-2.48-2.91-2.48-1.66,0-3.32,0-5,0A1.81,1.81,0,0,0,175.84,151.17Z"/><path class="cls-4" d="M222.13,148.33a7.44,7.44,0,0,0-.17-1c-1.06-3.57-.54-3.05-3.87-3-1.8,0-3.61.07-5.35.12a1.26,1.26,0,0,0-.05,1.2c.86,3.3.42,2.9,3.71,2.88A34.56,34.56,0,0,0,222.13,148.33Z"/><path class="cls-4" d="M64.36,145.38c-.16-.16-.2-.26-.25-.26a71.93,71.93,0,0,0-8.81.1.7.7,0,0,0-.68.56q-.13.47-.24.93c-.59,2.59-.32,2.44,1.89,2.39l6.21-.14a1.1,1.1,0,0,0,1.19-.93C63.89,147.11,64.15,146.2,64.36,145.38Z"/><path class="cls-4" d="M151.17,141.61l4.5-.12a.8.8,0,0,0,.89-.87v-.24c0-2-.24-2.19-2.16-2.14-2.53.06-5.06.06-7.58.12-1.08,0-1.22.21-1.21,1.28,0,.32,0,.63,0,1,.07.76.28,1,1,1,1.5,0,3-.06,4.5-.1Z"/><path class="cls-4" d="M89.94,148.67c1,0,2.06,0,3.08-.08s1.11-.2,1.2-1.1c0-.15,0-.31,0-.47.12-2.78.22-2.65-2.46-2.59l-4.75.1a.93.93,0,0,0-1,.82c-.06.31-.16.61-.22.92-.45,2.49-.24,2.5,2,2.43l2.14,0Z"/><path class="cls-4" d="M220.09,141.79a8.11,8.11,0,0,0-.57-3.17,1.21,1.21,0,0,0-1.25-.9q-3.2,0-6.39.14c-.47,0-.65.39-.66.82a2.8,2.8,0,0,0,0,.71c.56,2.68.22,2.47,2.73,2.48C216,141.88,218.05,141.87,220.09,141.79Z"/><path class="cls-4" d="M180.85,141.73l1.37,0c1.57,0,1.63-.1,1.41-1.65-.27-1.87.16-2.07-2.3-2-2.15.05-4.3.06-6.45.12-.76,0-1,.28-1,1v.24c0,2,0,2.08,2.13,2.13C177.61,141.59,179.19,141.67,180.85,141.73Z"/><path class="cls-4" d="M52.61,155.84c2.9,0,5.51-.08,8.12-.17a.93.93,0,0,0,.89-.66c0-.07.07-.14.09-.22,1-3.29,1.22-3.21-2.13-3.12-1.67,0-3.34,0-5,0-.93,0-1.13.14-1.33,1S52.86,154.55,52.61,155.84Z"/><path class="cls-4" d="M192.25,155c1,0,2.05,0,3.07-.08.59,0,.81-.33.66-1-.74-3.17.31-3.05-3.38-3.06-1.34,0-2.68-.11-4-.11-.94,0-1.19.25-1.13,1.1.24,3.47-.1,3.13,3.13,3.11l1.66,0Z"/><path class="cls-4" d="M47.36,142.7c1.35,0,2.7,0,4-.1,1,0,1.28-.27,1.48-1.19a6.56,6.56,0,0,0,.13-1.18.64.64,0,0,0-.51-.69l-.24,0c-2.54-.06-5.08-.09-7.62-.2a1.88,1.88,0,0,0-2.14,1.44c-.13.45-.34.89-.43,1.35a.52.52,0,0,0,.51.65c1.59,0,3.18-.06,4.76-.1Z"/><path class="cls-4" d="M191.1,148.33c1,0,2.05,0,3.07-.08a.53.53,0,0,0,.57-.59,13.63,13.63,0,0,0-.19-1.41c-.4-2.32-.73-2-2.21-2-1.65,0-3.31-.09-5-.1a.7.7,0,0,0-.77.92c.68,3.62-.48,3.27,3.54,3.27l.95,0Z"/><path class="cls-4" d="M202.28,155.12a3.65,3.65,0,0,0,.47,0c.91-.12,1.89.28,2.72-.36-.15-1.08-.28-2.17-.47-3.25a.68.68,0,0,0-.67-.56c-1.89,0-3.78,0-5.66,0a.54.54,0,0,0-.53.64c.16,1,.36,2,.58,3a.67.67,0,0,0,.73.48c.94,0,1.89,0,2.83-.06Z"/><path class="cls-4" d="M138.18,141.6c1.34,0,2.68,0,4,0,.69,0,1-.4.91-1.1,0-.47-.13-.93-.21-1.4a.73.73,0,0,0-.81-.67l-8,.11a.8.8,0,0,0-.84.91v.24c.07,1.73.07,1.87,1.9,1.83l3.08-.07Z"/><path class="cls-4" d="M65.94,139.38a6.57,6.57,0,0,0-.89-.12c-2.63,0-5.25.08-7.88.15-1.19,0-1.35.18-1.6,1.31a9.24,9.24,0,0,0-.11,1.18.51.51,0,0,0,.42.5,3.74,3.74,0,0,0,.95.08c2.38,0,4.77-.09,7.16-.16,1.23,0,1.34-.13,1.71-1.23A3.21,3.21,0,0,0,65.94,139.38Z"/><path class="cls-4" d="M126.4,141.69c1.18,0,2.36,0,3.54-.09a.77.77,0,0,0,.82-.92,13,13,0,0,0-.24-1.39.84.84,0,0,0-.84-.69,61.65,61.65,0,0,0-7.32-.08.85.85,0,0,0-.86.93,6.65,6.65,0,0,0,.13,1.17c.18.93.31,1.07,1.22,1.07,1.18,0,2.36-.05,3.55-.08Z"/><path class="cls-4" d="M199.93,144.21h-.47c-2.66,0-3-.34-2.15,3,.32,1.2.36,1.25,1.6,1.26,1.5,0,3,0,4.51-.07.59,0,.81-.33.78-.93,0-.08,0-.16,0-.24-.3-2.83-.48-3-3.3-3l-.95,0Z"/><path class="cls-4" d="M115,141.83l2.14-.05c1.89-.05,2.42-.86,1.79-2.72a.72.72,0,0,0-.74-.47c-2.46,0-4.91,0-7.37.09a.87.87,0,0,0-.92.88c0,.24,0,.48,0,.71,0,1.22.07,1.34,1.33,1.41C112.57,141.76,114,141.79,115,141.83Z"/><path class="cls-4" d="M102.29,141.82c1.26,0,2.53-.08,3.79-.09a1,1,0,0,0,1.14-.94c0-.3.11-.62.13-.93.06-.83-.19-1.12-1.1-1.11q-3.78,0-7.57.09c-1.16,0-1.2.1-1.32,1.18,0,.23-.06.47-.08.71-.07,1,0,1.12,1,1.12,1.34,0,2.68-.06,4-.09Z"/><path class="cls-4" d="M86.82,141.87a7.41,7.41,0,0,0,2.78.13c1.35,0,2.69,0,4-.07.52,0,.94-.16,1-.76.27-2.38.94-2.5-2-2.42-1.42,0-2.84,0-4.27.07-1.18,0-1.26.11-1.43,1.39A2.91,2.91,0,0,0,86.82,141.87Z"/><path class="cls-4" d="M195.6,138.32c.5,4,.28,3.41,3.76,3.45.55,0,1.1,0,1.66,0,1.66-.06,1.82-.24,1.49-1.78-.1-.46-.26-.91-.4-1.36a.79.79,0,0,0-.64-.61A31,31,0,0,0,195.6,138.32Z"/><path class="cls-4" d="M189.8,141.61c1,0,2.06,0,3.09-.08.36,0,.52-.31.52-.66a1,1,0,0,0,0-.24c-.72-2.7-.09-2.53-3-2.51l-2.38,0c-.32,0-.64,0-.95,0-.69.07-.89.34-.89,1.13,0,1.81.17,2.23,1,2.32h.48l2.14,0Z"/><path class="cls-4" d="M210.51,155.07c1.91,0,1.89,0,1.49-1.82-.57-2.6-.73-2.18-2.79-2.22a5,5,0,0,0-1,.07.59.59,0,0,0-.57.62,6.63,6.63,0,0,0,.12,1.17C208.22,155.1,208.22,155.1,210.51,155.07Z"/><path class="cls-4" d="M210.52,148.23a9.13,9.13,0,0,0-.7-3.3.82.82,0,0,0-.69-.56c-2.65-.56-3.11-.09-2.47,2.54.08.3.19.6.3.9a.73.73,0,0,0,.7.54A11.05,11.05,0,0,0,210.52,148.23Z"/><path class="cls-4" d="M209,141.66c-.13-1.28-.21-2.23-.33-3.17a.66.66,0,0,0-.65-.58l-.48,0c-2.75.06-3.19-.27-2.2,2.85.29.89.39,1,1.36,1C207.37,141.73,208.08,141.69,209,141.66Z"/><path class="cls-4" d="M167.43,193c-.69-2-1.34-3.88-2-5.75-.84-2.4-1.67-4.8-2.54-7.19-.55-1.5-.6-1.49-2.27-1.52-11.38-.23-22.75.07-34.13.23-3.18,0-6.36,0-9.54.05-.48,0-1,0-1.43,0a1.22,1.22,0,0,0-1.27.88l-.13.46q-2,6.26-3.93,12.51a8.3,8.3,0,0,0-.21,1.09c.47.48,1,.32,1.42.32,3.11,0,6.21-.14,9.31-.1,12.5.2,25-.19,37.48-.42,2.38,0,4.77-.14,7.15-.23A4,4,0,0,0,167.43,193Z"/><path class="cls-1" d="M211.6,28.79c-2.7.06-5.41.14-8.11.18a15.73,15.73,0,0,1-4.74-.26,6.35,6.35,0,0,0-1.9,0L181.33,29a10.29,10.29,0,0,1-3.31-.24,7.19,7.19,0,0,0-2.13-.09l-10.74.24a12.45,12.45,0,0,1-4-.27,6,6,0,0,0-1.9-.05c-2.78.05-5.56.14-8.35.18a16.89,16.89,0,0,1-5.21-.27,5.48,5.48,0,0,0-1.67,0c-2.62.05-5.25.13-7.87.17a15.11,15.11,0,0,1-4.74-.27,5.41,5.41,0,0,0-1.66,0c-2.87.06-5.73.14-8.59.19a14.49,14.49,0,0,1-4.5-.27,6,6,0,0,0-1.9,0c-3.27.06-6.53.15-9.79.21a13,13,0,0,1-4-.26,7,7,0,0,0-2.14-.05l-13.37.29a8.46,8.46,0,0,1-2.83-.22,4.85,4.85,0,0,0-1.66-.12q-14.55.32-29.12.67c-.24,0-.48,0-.71,0-1.19.11-1.6.46-1.61,1.62,0,1.59.07,3.18.08,4.77a13.91,13.91,0,0,1-.26,4.26,8,8,0,0,0-.06,2.14c0,2.45.31,4.9-.23,7.36a16.4,16.4,0,0,0,0,3.57,7.13,7.13,0,0,1-.24,2.83,1.57,1.57,0,0,0-.12.7c.31,2.87-.41,5.69-.31,8.55a7.34,7.34,0,0,1-.26,2.83A3.3,3.3,0,0,0,48,68.58a16.23,16.23,0,0,1-.34,5.2c.34,2.71-.48,5.37-.32,8.07A5.65,5.65,0,0,1,47.1,84a5.09,5.09,0,0,0-.16,1.41,12.8,12.8,0,0,1-.34,4.49c.28,2.47-.44,4.89-.35,7.35a10,10,0,0,1-.26,3.31,7.54,7.54,0,0,0-.08,2.13,19.19,19.19,0,0,1-.26,4.27,17.6,17.6,0,0,0,0,3.56,8.82,8.82,0,0,1-.26,3.31,4.52,4.52,0,0,0-.1,1.18,3.22,3.22,0,0,0,3.63,3.67c2.62-.11,5.25-.13,7.87-.18a6.92,6.92,0,0,1,2.6.21,6.3,6.3,0,0,0,2.37.12l18.14-.4a9.64,9.64,0,0,1,3.07.23,7.61,7.61,0,0,0,2.14.1l15.51-.35a9.42,9.42,0,0,1,2.84.23,7.55,7.55,0,0,0,2.13.11l13.6-.3a11.19,11.19,0,0,1,3.55.26,7.25,7.25,0,0,0,2.14.07l13.6-.31a6.93,6.93,0,0,1,2.6.22,6.51,6.51,0,0,0,2.37.12l13.84-.3a9.72,9.72,0,0,1,3.08.23,7.53,7.53,0,0,0,2.13.1l15.51-.35a10.1,10.1,0,0,1,2.84.22,9.34,9.34,0,0,0,2.37.12l17.66-.4a10.14,10.14,0,0,1,3.55.26,4.82,4.82,0,0,0,1.66.07l12.17-.27c.32,0,.64,0,.95,0a2.94,2.94,0,0,0,2.82-2.75,36,36,0,0,0,.4-6.15c-.16-2.06-.13-4.14-.16-6.21a15.05,15.05,0,0,1,.28-4.73,5.47,5.47,0,0,0,0-1.67c0-2.78-.13-5.57-.18-8.35a13.28,13.28,0,0,1,.27-4.26,6.34,6.34,0,0,0,.05-1.9c-.06-2.79-.13-5.57-.18-8.36a11.61,11.61,0,0,1,.27-4,5.09,5.09,0,0,0,0-1.66c0-2.15-.1-4.29-.13-6.44a10.78,10.78,0,0,1,.26-3.79,5.08,5.08,0,0,0,.07-1.66c0-1.75-.09-3.5-.11-5.25a10.09,10.09,0,0,1,.26-3.54,4.84,4.84,0,0,0,.08-1.66c0-1.75-.08-3.5-.11-5.25a6.27,6.27,0,0,1,.22-2.36A7,7,0,0,0,223.5,36c0-2-.35-4,.29-5.92a1.54,1.54,0,0,0,0-.48c0-.68-.33-1.06-1-1.08s-1.12,0-1.67,0l-9.55.22Z"/><path class="cls-5" d="M136.33,26c.82,0,1.53.07,2.25.07,8.19,0,16.39,0,24.58.13,6.37.1,12.74,0,19.1.08,6.53.13,13.05,0,19.57-.07,5.81,0,11.62-.07,17.43-.14a26.59,26.59,0,0,0,3.32-.3c.91-.13.92-.21,1.11-1.23a15.75,15.75,0,0,0,.3-4.74,5.73,5.73,0,0,0-5.34-5.48,14,14,0,0,0-2.15-.09q-11.33,0-22.67.07c-9.23,0-18.46.16-27.69.07-6.93-.06-13.85.08-20.77.1-8.83,0-17.66.16-26.49.07-7.72-.08-15.44.14-23.16.15s-15.27-.14-22.91-.16c-4.69,0-9.39.08-14.08.12a9.76,9.76,0,0,0-5.2,1.52,5,5,0,0,0-2,2.05,12.21,12.21,0,0,0-1.32,6.92c.05.45.26.75.73.78s.79,0,1.19,0c9.94-.09,19.89-.22,29.84-.27,7.63,0,15.27-.09,22.91,0,4.78.08,9.55,0,14.32.07C125,25.88,130.71,26,136.33,26Z"/><path class="cls-6" d="M102.4,53.88c.4.65.84,1.31,1.25,2l7.91,13.33c.28.48.53,1,.85,1.44a2.26,2.26,0,0,0,2.91.9,2.49,2.49,0,0,0,1.5-2.92,5.36,5.36,0,0,0-.57-1.3q-5.48-9.64-11.4-19a5.78,5.78,0,0,0-.86-1.14,2.42,2.42,0,0,0-3.59.16,17.36,17.36,0,0,0-1.14,1.53,86.07,86.07,0,0,0-5.62,9.42Q91.06,63.11,88.5,68a8.53,8.53,0,0,0-.44.85,2.27,2.27,0,0,0,1,3.06,2.38,2.38,0,0,0,3.22-.5,12,12,0,0,0,1.11-1.83c1.82-3.35,3.61-6.72,5.43-10.08.84-1.54,1.71-3.05,2.59-4.57C101.61,54.49,101.77,54,102.4,53.88Z"/><path class="cls-6" d="M169.07,52c.58.92,1,1.58,1.42,2.26l7.91,13.32c.32.54.61,1.11,1,1.63a2.2,2.2,0,0,0,2.73.81,2.56,2.56,0,0,0,1.67-2.38,3.56,3.56,0,0,0-.59-1.78q-5.53-9.75-11.52-19.21a6.05,6.05,0,0,0-.7-1,2.48,2.48,0,0,0-3.76.15c-.36.52-.76,1-1.13,1.54a77.81,77.81,0,0,0-4.59,7.52c-1.86,3.41-3.7,6.84-5.55,10.27-.11.21-.24.41-.33.63a2.31,2.31,0,0,0,.95,3.09,2.38,2.38,0,0,0,3.36-.65,20.75,20.75,0,0,0,1.2-2c2-3.71,4-7.42,6-11.12A18.71,18.71,0,0,1,169.07,52Z"/><path class="cls-6" d="M146.71,79.23a6.78,6.78,0,0,0-.15-1.25,2.43,2.43,0,0,0-4.83.57,10.82,10.82,0,0,1-.2,2.84,5.18,5.18,0,0,1-4.39,4.12,5.45,5.45,0,0,1-5.64-3.14,15,15,0,0,1-1.17-4.11,2.45,2.45,0,0,0-1.47-2,2.38,2.38,0,0,0-3.46,2.31c.36,3.35,1.18,6.58,3.75,9a10.29,10.29,0,0,0,11.26,2.11A10.8,10.8,0,0,0,146.71,79.23Z"/><path class="cls-7" d="M60.44,116.16c1.9,0,3.81-.07,5.71-.15a1.12,1.12,0,0,0,1.07-1.65,1.15,1.15,0,0,0-.87-.74,6.56,6.56,0,0,0-1.18-.1H54.94a6.75,6.75,0,0,0-1.19.1,1.07,1.07,0,0,0-.93,1.18,1.17,1.17,0,0,0,1,1.19,9.64,9.64,0,0,0,1.42.06l5.23-.12Z"/><path class="cls-8" d="M214.54,19.8a2.39,2.39,0,0,0,4.77-.22,2.29,2.29,0,0,0-2.6-2.4A2.35,2.35,0,0,0,214.54,19.8Z"/><path class="cls-9" d="M202.67,22.34A2.09,2.09,0,0,0,205,20c0-1.58-.77-2.47-2.17-2.48a2.64,2.64,0,0,0-2.58,2.5A2.27,2.27,0,0,0,202.67,22.34Z"/><path class="cls-10" d="M210.06,22.21a2.13,2.13,0,0,0,2.18-2.53,2.18,2.18,0,0,0-2.41-2.33,2.4,2.4,0,0,0-2.28,2.55A2.35,2.35,0,0,0,210.06,22.21Z"/></g></svg>