<svg xmlns="http://www.w3.org/2000/svg" viewBox="0 0 32.86 72.67"><defs><style>.cls-1{fill:#1d76b8;}</style></defs><title>Mini marco teorico refuerzo - Automata 2</title><g id="contenido"><path class="cls-1" d="M17.72,19.29l-.06,0A.08.08,0,0,0,17.72,19.29Z"/><path class="cls-1" d="M19.14,24.16l-.05,0S19.13,24.16,19.14,24.16Z"/><path class="cls-1" d="M16.67,16.43h0l-.08-.2Z"/><path class="cls-1" d="M21.4,34.58l0-.06S21.38,34.57,21.4,34.58Z"/><path class="cls-1" d="M20.31,28.37a.23.23,0,0,1,.07.07S20.36,28.37,20.31,28.37Z"/><path class="cls-1" d="M17.26,14.37l-.05.12A.1.1,0,0,0,17.26,14.37Z"/><path class="cls-1" d="M15.53,11.73v0S15.53,11.74,15.53,11.73Z"/><path class="cls-1" d="M15.74,13l.08.06S15.78,13,15.74,13Z"/><path class="cls-1" d="M15.86,13.08l0,0A.05.05,0,0,0,15.86,13.08Z"/><path class="cls-1" d="M7.51,67.5a.41.41,0,0,0-.11.25Z"/><path class="cls-1" d="M21.75,44l0,0A.05.05,0,0,0,21.75,44Z"/><path class="cls-1" d="M7.93,68.22l-.06,0A.06.06,0,0,0,7.93,68.22Z"/><path class="cls-1" d="M18.2,15.77c.12,0,.09.26.17.22S18.33,15.75,18.2,15.77Z"/><path class="cls-1" d="M24.94,46.54v.06S25,46.56,24.94,46.54Z"/><path class="cls-1" d="M7.93,68.22l.07,0,0,0S8,68.21,7.93,68.22Z"/><polygon class="cls-1" points="19.27 53.46 19.27 53.45 19.27 53.43 19.27 53.46"/><path class="cls-1" d="M18.94,53.88l0-.11A.12.12,0,0,0,18.94,53.88Z"/><path class="cls-1" d="M7.4,67.75l-.07.15A.52.52,0,0,0,7.4,67.75Z"/><path class="cls-1" d="M16.47,58.68a.08.08,0,0,1,0,0A.06.06,0,0,0,16.47,58.68Z"/><path class="cls-1" d="M20.26,28a.07.07,0,0,1,0,0S20.23,27.92,20.26,28Z"/><polygon class="cls-1" points="23.66 31.29 23.66 31.29 23.67 31.29 23.66 31.29"/><path class="cls-1" d="M23.5,31.1c0,.07.08.15.16.19S23.61,31.16,23.5,31.1Z"/><path class="cls-1" d="M23.72,31.76v0A0,0,0,0,0,23.72,31.76Z"/><polygon class="cls-1" points="22.82 27.4 22.81 27.4 22.82 27.4 22.82 27.4"/><path class="cls-1" d="M23.07,28.25s0,0,0,.07A.11.11,0,0,0,23.07,28.25Z"/><polygon class="cls-1" points="24.39 33.88 24.39 33.88 24.39 33.88 24.39 33.88"/><path class="cls-1" d="M25.69,42.31c0-.88-.24-2-.19-2.85-.2-.17-.21-.44-.28-.71l.25,0-.1-.22c.07-.1.06.17.15,0l-.17-.07c.09,0,0-.59.23-.22l-.07-.88c0-.19-.22-.09-.18-.31.07,0,.06.07.15,0,.14-.67-.58-.68-.53-1.28l0,0c-.08-.09-.1-.28-.14-.28-.24.11.16.09,0,.29-.22,0-.15-.21-.31-.18.06-.14-.07-.21-.1-.33s0-.5.12-.67c-.09-.09-.3-.17-.35-.38.14-.18.17,0,.19-.21H24.3c0-.18,0-.16.09-.16,0-.18-.2-.12-.16-.36l.14.1a1.16,1.16,0,0,1-.1-.46c.07,0,.08.08.08.16.16-.17-.12-.21-.12-.28s0,.2-.18.14-.21-.22-.08-.33l.14.11c-.14-.23-.18-.1-.18-.39H24c-.19-.14-.09-.4-.13-.66l.05,0c-.07-.1-.19-.13-.2-.19,0,.16-.08.13-.19.17.15-.24-.31-.24-.26-.58.07,0,.18,0,.12.15.23.06.41,0,.55.21-.07-.11-.13-.25,0-.24h-.2c0-.07,0-.13,0-.19s-.16.19-.28,0,.17-.14.08-.15c-.14-.24-.23-.06-.23-.33,0,0,.07.07.06.09,0-.2-.14-.43.08-.54.06,0,.13,0,.13.08h0c.22.16-.08-.15.14-.14-.12.05-.15-.21-.15-.33l-.14.07c-.51-.28.29,0,.15-.41s0,.1-.15,0,.09-.26,0-.48c0-.08.08-.23.23-.28-.1-.13-.05-.45-.22-.49-.07.27.23.2.1.53l-.17,0c0-.19-.2-.42-.18-.57a.12.12,0,0,1-.09.05c-.14-.27-.31-.3-.34-.59.13-.07.15.09.19.21.07-.21,0-.19-.06-.47.12-.05,0,.18.17.18l-.12-.29h0c-.22,0,0-.23-.16-.4-.13-.43-.42-.41-.66-.6,0-.08.08-.11.14-.1s0,.09.07.11c-.06-.14.11-.38.21-.32-.13-.21-.08.11-.19,0l-.08-.32c-.09.07-.08.19-.21,0a1.42,1.42,0,0,1-.12-.38c.06,0,.14-.11.17,0a.21.21,0,0,0-.14-.26c0,.23-.19-.29-.3-.09l0-.23c0,.05.08,0,.08.1.14-.1-.09-.14-.13-.2s0-.26,0-.3a.19.19,0,0,1,0-.26c-.06-.08-.1,0-.16,0l-.09-.32c.08,0,.31-.15.36-.12-.12-.09-.27.05-.33-.13.21,0,.05-.28.3-.2.09-.15,0-.44-.12-.58s0,.2-.15.23c-.21-.43-.59-.32-.64-.67v.1c-.14-.18-.12-.16-.28-.24.19,0,.36-.39.2-.71-.09,0-.09.24-.24.24l-.11-.21s0,0,.07,0c-.13-.18.08-.45-.14-.43l.17-.3-.07.12c-.1,0-.21-.21-.26-.24a.38.38,0,0,1-.07-.47c-.06.07-.18.23-.27.06.27-.1,0-.41.1-.46,0-.07,0-.23-.12-.2l.17,0c-.24.08-.33-.19-.46-.37.34-.08-.11-.21.14-.41-.23.05-.23-.32-.43-.28-.07-.15.13-.22.18-.29l-.11,0c.07-.12,0-.42,0-.62l-.26-.08.06-.09c-.06,0-.14-.12-.18,0l0-.09c-.21.08-.11-.1-.28-.23a.08.08,0,0,1,.12,0c0-.08.08-.09.13-.17,0,.08-.5-.14-.5.13-.07.05-.19-.06-.19-.16l.16-.13h-.24c-.09-.12,0-.23,0-.34.06.1.46.08.33-.2.09.14.23.16.3.22s0-.09.11,0c-.16-.19-.15,0-.27-.23.17-.06.2-.14.17-.36l-.06.2h-.06c0,.06,0,.09-.07.13s-.31-.16-.23-.24c-.16.33-.37-.29-.46-.08-.06,0-.14-.15-.06-.2.2.12.13-.22.25-.25-.07,0-.05.2-.16.14s0-.23,0-.31l.06,0v-.2c-.09,0-.06.22-.18.09s-.1-.19,0-.21.27-.1.36,0c-.06-.1-.24-.43-.33-.22l-.06-.13c0,.11,0,.39-.19.15l0,0-.21-.12,0-.11s-.09,0-.12-.06,0-.11.1-.14c-.1-.18-.17-.13-.23-.13S16.91,14,17,14c-.05-.16-.19-.41-.15-.55-.17-.16,0,.06-.18,0,.2-.31-.2-.7-.4-1-.21.21-.07-.07-.33,0,.11,0,0-.39.25-.15l-.11-.16c.08-.18.24.23.34,0-.11-.18-.44-.17-.46-.44.21,0-.15-.14.07-.18s.1.08.15.14v-.06c-.16-.44-.26,0-.49-.17s0-.27.11-.32-.08-.17-.16-.22c.18.1,0,.34-.11.33.14-.21-.18-.38-.29-.41,0,.47.12.25.07.71.08,0,.26-.09.29.15-.16-.08-.1.06-.11.11s.12.12.19.16-.3,0-.24.23l.26-.09c0,.1-.19.06,0,.2-.18,0-.19.13-.34-.08-.07.38.32.36.52.53h-.09c.09,0,.13.1.18.15s-.17-.05-.22,0l.12.22v0c.06,0,.11.09.07.14a1.78,1.78,0,0,0-.3,0l.29.15c-.09,0,0,.27-.18.13l.2.34-.15.11c.07.07.11.06.08-.05,0,.14.55.4.19.49.27.22.27.35.51.65-.28-.19-.05.39-.25.15,0,.19.2.14.29.26s-.2.17-.32.07l.14.12h0l.16.09c0,.18-.16.11-.11.26l.16,0,0,.14c.05-.07.12,0,.17.1h0l.09.12c-.15-.09,0,.13-.11.12a.88.88,0,0,0,.16.3l.08-.08c.21.23-.14.08-.06.3l.11-.07c-.06.39.34.47.32.75-.09-.12-.21,0-.17,0,.12.18.24.5.46.64a.44.44,0,0,0-.17.43c.07.14.1.16.22.17,0,.17.2.4.08.46.11,0,0,.14.15.19l0,0,.11-.07c-.15.37.33.38.21.74l0,0,.09.1s-.09,0-.16,0l.18.52.05-.13c.06.1.2.13.17.28-.25-.13.06.18-.06.26l-.09-.09c.07.15.07.15.18.09.12.18-.17.22,0,.35l0-.13c.06-.06.19,0,.22.08s0,.11-.08.05c.1.13.13.39.2.44s-.1.1-.15.07c.23.29,0,.16.27.45l-.07,0,.12.08-.08.22.07-.09c0,.1.13.15.13.29H19c.16.28,0,.41.2.66,0,0-.06,0-.08,0,.25.22-.11.27.18.47,0,0-.08,0-.11,0l.11.1-.14,0,.24,0-.12.13.09,0c-.22.23,0,.35-.09.59l.16-.08c.53.33.14,1.11.48,1.62l-.14,0,.23.18c-.07.15-.14,0-.2,0,.16.22.24,0,.37.31-.05.18-.12,0-.19-.07a1.86,1.86,0,0,1,.33.84h.05a2.89,2.89,0,0,1,.18.61c-.07,0-.09,0-.12-.08s0,.19.07.23l-.14,0c0,.16.21.42.08.49a.11.11,0,0,1,.18.08c-.19.13.19.34.13.58-.06,0-.11-.16-.1-.12s.1.19.19.27H20.7l.24.46c-.2.13.14.46,0,.47,0,.18.06-.17.14,0-.08.09.09.2-.05.22l0,0,0,.15-.16-.06a.35.35,0,0,0,.33.18c-.05.14.06.31-.06.39l0,0c.14.35-.24.68.05.91a0,0,0,0,1-.06,0l0,.22-.12,0,.23.33h-.07a5.4,5.4,0,0,0,.2.93l0,0c.17.32,0,.34.11.57,0,0,0,0,0,0l0,.22-.08,0c.19.14-.13.5,0,.38.08.08.18.23.27.25,0,.24-.08.07-.12.23s.14.19.11.44h-.07c0,.11.08.17.12.33l0,0c.18.24-.17.35.17.51,0,.11,0,.31-.12.32a8.52,8.52,0,0,1,.26.86c-.23.07,0,.07-.1.27l.13,0c.05.45-.21,1-.16,1.47l-.13,0,.14.09c0,.53-.08,1.21-.08,1.62a.87.87,0,0,1,.14.57v0a3.45,3.45,0,0,1,0,1.2c-.06,0-.1,0-.13,0,.14.1,0,.24,0,.32l.1-.09c.11.13,0,.28-.13.33l.12.2-.06,0,.06,0-.18.08s.05.3.2.39c-.06,0-.12.18-.14,0l-.13.66.07-.09c.13,0,.19.22.12.31-.09-.15-.18,0-.28,0,.05.1.12-.06.18,0s.06.37,0,.42l0-.08c0,.16-.22.19-.24.34s0,.24.18.25c0,.21-.16,0-.19.11a.3.3,0,0,1-.16.38c.29.18-.21.49,0,.6l-.19.12c.07,0,.22.1.21.24s-.22.05-.3.07l.24.15c-.47.66-.54,1.67-1,2.38A4.59,4.59,0,0,1,20,51.62l0,0-.21.37.22-.25a.74.74,0,0,1,0,.26,3.93,3.93,0,0,0-.65,1.5c.15.45-.35.13-.27.53,0,0-.05-.06-.07-.1a8.17,8.17,0,0,0-.05,1c-.27-.16-.1.22-.23.13l.1.08c-.1,0-.21.2-.28.14l.07.21-.12,0c-.09.2-.21.65-.49.63a2.88,2.88,0,0,1-.34.9c-.19.3-.41.6-.6.86a.59.59,0,0,1-.14.43l-.22,0c-.05.15,0,.4-.15.45s0,0,0,0-.22.21-.19.41c-.12.13-.29.2-.37.07.19.18-.25.26-.25.26s-.36.4-1,1-1.5,1.38-2.46,2.22c-2,1.68-4.21,3.62-4.7,4.88,0,.15-.1.34,0,.41-.1.14-.3,0-.25.13.23-.07.15.3.42.29l-.1.11c0,.09.09-.2.17,0l-.12-.21a.39.39,0,0,1,.28,0c0-.13-.11-.43.18-.48l-.05.06c.16-.14.19,0,.25,0l0,0,.22,0c-.16,0-.22.31-.13.23s-.09,0,0-.15.14,0,.18.1l.16-.13c.06.09-.12.08,0,.11l.14-.25c.21.19.15-.28.4-.15-.11.17.07.06.1.15l.36-.3c.06,0,0,.14,0,.09s.07-.14.11-.17.28-.22.38-.07c.32-.1,0-.26.26-.36.09.06-.17.16,0,.17l.22-.22c0,.06.06.18,0,.23.74-.39,1.45-.22,1.95-.81.17,0,0,.11,0,.23.33-.48.79-.27,1.15-.58l-.06-.09c.73-.16,1.21-.85,1.87-1.25H15.5c0-.15.13-.27.19-.39s.09.23.22,0c-.06,0-.16,0-.17,0a5.31,5.31,0,0,0,1.18-.81l1.29-1.21A24.46,24.46,0,0,0,21,58.43c-.1.2-.29,0-.16-.14.62-.19.32-.74.81-1,.23-.84.92-1.39.88-2.25l.12,0c.1-.09,0-.15.06-.27h0c.15-.25.17-.63.27-.76L22.84,54c0-.17.13,0,.11-.24l.07,0L23,53.52c.23.1.17-.45.32-.54a3.48,3.48,0,0,1,.21-1c.14,0,.25-.42.39-.65.12-.49.28-1.2.48-1.8l-.16,0,0-.17s.06,0,.07,0c.21-.07,0-.38.19-.48-.16,0,0,.1-.08.2s-.23-.06-.1-.22l0,0-.05-.15c.13,0,.21-.07.34-.06a14.05,14.05,0,0,1,.15-1.54c.13.08,0-.43.27-.26,0-.37-.21,0-.35-.18,0-.09,0-.21.07-.21s.17,0,.17,0l0-.24s.05,0,.06.07c0-.5.29-.82.2-1.28-.08,0,0,.17-.13.13-.13-.46.21-.36.13-.78l.11.09c-.07-.14-.17-.2,0-.41.15,0,.1.2.15.31,0-.15,0-.53-.11-.43,0-.18.11-.23.15-.32s-.11.15-.16,0a4.15,4.15,0,0,0,.13-.9s.09,0,.11,0C25.39,42.6,25.71,42.64,25.69,42.31Z"/><path class="cls-1" d="M22.81,27.28v.12a.1.1,0,0,1,.12,0Z"/><path class="cls-1" d="M24,32.57l0,0S24,32.57,24,32.57Z"/><path class="cls-1" d="M24.49,33.83c0-.09-.07,0-.1.05A.14.14,0,0,0,24.49,33.83Z"/><path class="cls-1" d="M21.54,24.48a.08.08,0,0,0,.07,0S21.55,24.47,21.54,24.48Z"/><path class="cls-1" d="M18.57,16.62v0A0,0,0,0,0,18.57,16.62Z"/><path class="cls-1" d="M18.56,17.13a.15.15,0,0,0,.05.08A.16.16,0,0,0,18.56,17.13Z"/><path class="cls-1" d="M22.2,26.41a.16.16,0,0,0,.07.07A.1.1,0,0,0,22.2,26.41Z"/><path class="cls-1" d="M18.68,17.28l0,.12h0Z"/><path class="cls-1" d="M18.53,16.47a.42.42,0,0,1,0,.15A.13.13,0,0,0,18.53,16.47Z"/><path class="cls-1" d="M20.32,21.64h0C20.42,21.71,20.38,21.67,20.32,21.64Z"/><polygon class="cls-1" points="19.12 17.66 19.12 17.67 19.17 17.69 19.12 17.66"/><path class="cls-1" d="M18.37,16l.05,0V16S18.39,16,18.37,16Z"/><path class="cls-1" d="M19.9,19.92a.23.23,0,0,0-.12,0S19.83,20,19.9,19.92Z"/><path class="cls-1" d="M10.33,25.37l.07,0Z"/><path class="cls-1" d="M11.49,21.94l0,0A.06.06,0,0,0,11.49,21.94Z"/><path class="cls-1" d="M9.62,27.4h0l0,.14Z"/><path class="cls-1" d="M12.87,14.35v.05S12.88,14.36,12.87,14.35Z"/><path class="cls-1" d="M12.12,18.87a.09.09,0,0,1,0-.07S12.08,18.86,12.12,18.87Z"/><path class="cls-1" d="M8,28.07l.1,0A.09.09,0,0,0,8,28.07Z"/><path class="cls-1" d="M7.65,30.21h0Z"/><path class="cls-1" d="M8.28,29.54a.25.25,0,0,0,0-.07S8.25,29.53,8.28,29.54Z"/><path class="cls-1" d="M8.25,29.44v0S8.26,29.44,8.25,29.44Z"/><path class="cls-1" d="M25,19.61c0,.05.12.05.2.06Z"/><path class="cls-1" d="M13.16,8.36l0,0Z"/><path class="cls-1" d="M25.74,19.18v0S25.75,19.19,25.74,19.18Z"/><path class="cls-1" d="M8,26.93c-.07-.09.07-.18,0-.2S7.9,26.87,8,26.93Z"/><path class="cls-1" d="M11.58,4.65l.06,0Z"/><path class="cls-1" d="M25.74,19.18v-.06l0,0A.05.05,0,0,1,25.74,19.18Z"/><polygon class="cls-1" points="15.84 10.19 15.84 10.18 15.81 10.19 15.84 10.19"/><path class="cls-1" d="M16,10.55l-.07,0A.07.07,0,0,0,16,10.55Z"/><path class="cls-1" d="M25.23,19.67l.12,0A.24.24,0,0,0,25.23,19.67Z"/><path class="cls-1" d="M18.91,13.23l0,0Z"/><path class="cls-1" d="M12,19.15l0,0S12,19.19,12,19.15Z"/><polygon class="cls-1" points="9.87 16.08 9.87 16.08 9.87 16.08 9.87 16.08"/><path class="cls-1" d="M10,16.24s0-.11-.11-.16S9.88,16.18,10,16.24Z"/><path class="cls-1" d="M10,15.77v0Z"/><polygon class="cls-1" points="9.45 18.7 9.46 18.7 9.45 18.69 9.45 18.7"/><path class="cls-1" d="M9.51,18.11s0,0,0,0Z"/><polygon class="cls-1" points="9.79 14.3 9.79 14.3 9.79 14.3 9.79 14.3"/><path class="cls-1" d="M9.28,8.57c0,.69.19,1.53.13,2,.19.11.2.29.24.46l-.26,0,.09.14c-.08.06-.05-.11-.15,0l.16,0c-.09,0-.07.37-.25.13V12c0,.12.21.08.14.21s0,0-.14,0c-.2.4.49.49.35.87l0,0c.06.07,0,.19.08.2.26,0-.13-.08,0-.19s.12.15.28.15c-.08.09,0,.15.05.23-.15.13-.06.32-.23.42.06.07.27.15.27.29-.17.1-.16,0-.23.11l.13,0c0,.11-.07.09-.12.08s.16.11.07.26l-.12-.09a.54.54,0,0,1,0,.31c-.07,0-.06-.07,0-.11-.19.07.07.15,0,.19s.08-.11.2,0,.16.18,0,.22l-.11-.09c.08.17.15.1.09.28l-.07,0c.15.13,0,.28,0,.45l0,0c0,.08.14.13.13.16s.11-.06.24-.06c-.22.12.22.22.08.43-.08,0-.16-.07-.08-.12-.2-.1-.38-.12-.47-.26,0,.09.06.18,0,.16l.19,0a.37.37,0,0,1,0,.12c.13,0,.22-.08.29,0s-.21.05-.12.08c.06.19.2.1.12.26,0,0-.05-.06,0-.07s0,.31-.23.32c-.05,0-.12,0-.1-.08h0c-.16-.15,0,.11-.17.05.13,0,.08.17.05.25h.14c.41.3-.28-.05-.25.21s0-.05.13.06-.17.13-.12.29a.45.45,0,0,1-.31.11c0,.11-.11.29,0,.36.16-.15-.15-.18.08-.35l.16.07c0,.13,0,.31,0,.4a.11.11,0,0,1,.11,0c0,.19.19.27.11.45-.14,0-.1-.1-.11-.18-.13.1,0,.12-.09.3-.13,0,0-.12-.1-.16v.21h0c.2.05,0,.15,0,.28,0,.3.24.39.39.58a.17.17,0,0,1-.17,0c.1-.06,0-.06,0-.09s-.24.19-.31.12c0,.17.12,0,.17.07l0,.21c.11,0,.15-.08.21,0a.54.54,0,0,1,0,.27c-.05,0-.17,0-.15-.08-.05.06-.07.15,0,.2.12-.12.06.24.24.16l-.12.13s-.06-.05,0-.09c-.17,0,0,.12,0,.17s-.07.16-.14.16,0,.15-.1.16.11,0,.16.05l-.06.21a.94.94,0,0,1-.37-.07c.07.1.26.08.23.2-.16-.1-.17.14-.36,0-.14.05-.17.25-.14.37s.1-.11.24-.07c0,.32.38.41.27.63l.05-.05a.36.36,0,0,0,.14.24.42.42,0,0,0-.52.32c.09,0,.2-.1.33,0V23a.08.08,0,0,1-.06,0c0,.15-.29.21-.09.29l-.28.09.12,0c.08,0,.07.2.1.24s0,.22-.16.28c.08,0,.26,0,.26.09-.29-.06-.17.24-.32.2,0,.06-.11.12,0,.16l-.17,0c.24.07.19.25.2.4-.32-.11,0,.16-.33.15.22.08,0,.27.21.35,0,.11-.22,0-.3.05l.07.07c-.12,0-.18.23-.29.33l.17.17h-.1s.06.14.14.1l0,.06c.21.06,0,.1.09.24a.09.09,0,0,1-.11,0c0,.06-.12,0-.21,0,.07,0,.33.33.48.19a.1.1,0,0,1,.07.17h-.2l.18.12c0,.11-.13.11-.17.18s-.33-.27-.38-.07c0-.12-.09-.2-.12-.26s0,0-.11,0c0,.17.11.08.09.24-.17-.06-.24,0-.33.09l.15-.07s0,0,0,0,.06,0,.13,0,.17.24.06.23c.31-.07.13.33.32.28s0,.14-.07.13c-.09-.17-.22,0-.34,0,0,.07.16-.06.21,0s-.14.11-.2.13l0,0-.11.1c.08,0,.18-.07.19.05s0,.14-.1.11-.27-.09-.27-.19c0,.08-.06.33.13.28l0,.09c.09,0,.27-.16.24,0h0l.09.17-.11,0s.08.05.07.09-.09,0-.16,0c0,.14.06.16.1.19s-.06.1-.15,0c0,.1-.09.29-.2.33s0,0,.13.1c-.34,0-.26.43-.3.67.28,0,0,.07.23.19-.06-.07-.28.15-.28-.07l0,.12c-.17,0,0-.23-.27-.17,0,.13.21.32.06.45-.17-.12,0,.14-.17,0s0-.09,0-.14H7c-.16.28.18.16.25.36s-.19.09-.28.07,0,.12,0,.18c-.07-.15.19-.16.29-.07-.24,0-.12.26,0,.34.31-.17.07-.17.4-.33-.06-.06-.25-.12-.12-.24.06.13.11,0,.15,0-.12,0,0-.12,0-.18s.22.18.32,0L7.68,30c.06-.05.18.09.16-.06.11.12.22.05.2.24.29-.13,0-.35,0-.54,0,0,0,0,0,.06a.22.22,0,0,1,0-.17c.09-.08.09.12.17.12l.05-.17h0c0-.06,0-.11,0-.1a1.62,1.62,0,0,0,.2.18l-.12-.24c.08,0,.19-.09.21,0l.05-.27.18,0c0-.07,0-.08-.09,0s-.17-.49.16-.33c-.08-.26,0-.31,0-.59.11.24.27-.16.29.07.11-.1-.07-.18-.07-.29a.22.22,0,0,1,.29.14l0-.13h0l-.07-.13c.13-.08.18,0,.24-.07l-.15-.07.12-.05c-.08,0-.1-.06-.08-.14h0v-.1c.07.12.06-.08.15,0a.73.73,0,0,0,.05-.24H9.53c0-.22.16,0,.21-.12l-.12,0c.27-.17,0-.41.17-.54,0,.1.15.11.11.1s.1-.38,0-.57c.19,0,.25,0,.37-.14s0-.13-.09-.19c.1-.1,0-.32.17-.3-.09-.05.05-.09,0-.17h0l-.12,0c.32-.13-.08-.36.2-.5l0,0,0-.09c.06,0,.08,0,.15.06l.11-.38-.11.06c0-.08-.1-.16,0-.24.15.19,0-.12.18-.12l0,.09c0-.11,0-.11-.11-.13s.26,0,.15-.21l0,.1c-.08,0-.17-.08-.15-.14s.09,0,.09,0c0-.12.08-.28,0-.34a.11.11,0,0,1,.16,0c-.06-.26,0-.1,0-.37l.07,0L11,23l.17-.09-.1,0c0-.08,0-.14,0-.23l.09.06c0-.24.24-.23.13-.47,0,0,.05,0,.06,0-.13-.23.21-.11.05-.35,0,0,.08,0,.11,0l-.05-.1.14,0-.2-.11.16,0-.06-.05c.29-.05.11-.23.34-.33h-.19c-.31-.41.34-.75.23-1.19l.14,0L11.86,20c.13-.08.11.07.19.05-.05-.19-.2-.1-.2-.32s.1.05.14.11a1,1,0,0,1,0-.65H12c0-.14.05-.31.06-.45a.09.09,0,0,1,.08.08c0-.05.07-.11,0-.17l.11.07c0-.11,0-.34.11-.35-.06,0-.17,0-.15-.1.22,0-.06-.28.07-.42,0,0,0,.14.06.1s0-.15-.09-.23l.08,0-.08-.37c.23,0,0-.35.17-.31,0-.13-.11.1-.12-.07s0-.15.11-.13l0,0v-.12l.13.09a.34.34,0,0,0-.26-.21c.09-.08,0-.22.17-.25l0,0c0-.26.42-.4.2-.63,0,0,.06,0,.05,0l0-.16.1,0-.14-.29h.07a3.83,3.83,0,0,0,0-.69l0,0c-.1-.26.08-.24,0-.42,0,0,0,0,0,0v-.17l.07,0c-.15-.13.22-.34.09-.27s-.15-.2-.23-.22c0-.19.09,0,.16-.15s-.11-.16,0-.34H13c0-.09-.05-.14-.06-.26l0,0c-.14-.19.23-.23-.09-.39.07-.07,0-.23.17-.21a4.34,4.34,0,0,1-.18-.66c.24,0,0,0,.13-.19h-.13c0-.33.3-.71.26-1.08h.12l-.14-.08c.07-.42.11-.85.13-1.1-.06-.09-.21-.23-.15-.36V9a2.21,2.21,0,0,1,0-.35.44.44,0,0,1,0-.17l0,0,.12,0c-.13,0,0,0,0,0l-.1,0c-.11-.06,0,0,.1,0l-.12-.09.05,0-.06,0,.15.08-.19-.19s.1,0,.12.08a.11.11,0,0,1,.08,0l0,0c-.1-.11-.14-.22-.08-.18a1,1,0,0,0,.19.26,1.92,1.92,0,0,0-.13-.17c0-.1,0-.18,0-.12l0,.06c0-.07.12.17.13.15A.88.88,0,0,0,13.28,8c0-.06.07.17.08.19s.05-.05.07.08c0-.15,0-.16,0-.13s0,.15.05,0v.18a1.43,1.43,0,0,1,0-.29,1.58,1.58,0,0,1,0,.31L13.58,8a.86.86,0,0,0,.09.28l0,0,.13.14a1.64,1.64,0,0,1,.25.36,2.57,2.57,0,0,1,.75.46h-.05L15,9.5l-.08-.23c.07,0,.14,0,.19.06a1.77,1.77,0,0,0,.78.85c.4,0-.06.32.27.32l-.11.05a3.12,3.12,0,0,0,.73.21c-.24.2.13.12,0,.22l.1-.08c0,.1.07.21,0,.26l.19,0-.08.1c.1.12.41.28.29.52a2.83,2.83,0,0,1,1.1,1,.39.39,0,0,1,.31.15l0,.19c.11,0,.33,0,.33.14l0,0c.11.06.12.19.3.17s.1.25,0,.31c.19-.16.15.22.15.22s1,1.27,2.15,2.63S24,19.37,25,19.61c.13,0,.28,0,.37-.1.1.07,0,.24.07.18s.29-.15.32-.36l.09.06c.08,0-.16-.05,0-.13l-.2.12a.25.25,0,0,1,0-.22c-.12,0-.4.15-.4-.08l0,0c-.09-.11.07-.16.08-.2l0,0,0-.17c0,.13.24.13.18.08s0,.07-.12,0,.06-.11.12-.15l-.1-.11c.09-.07.06.08.11,0l-.2-.08c.2-.19-.23-.07-.07-.3.13.07.07-.06.15-.1l-.21-.25s.12,0,.08,0-.12,0-.13-.07-.15-.19,0-.29c0-.25-.24.07-.29-.16s.12.12.16,0L25,17.09c.05,0,.16-.08.19,0-.24-.54,0-1.15-.43-1.47.06-.14.1,0,.21,0-.38-.19-.12-.61-.35-.85l-.08.07c0-.57-.55-.87-.78-1.35l0,.1c-.12,0-.21-.07-.3-.1s.22-.11.09-.19,0,.12-.05.14c-.08-.52-.76-1.18-1.16-1.81C21.56,10.94,21,10,20.23,9.37c.11.1-.12.25-.16.12.1-.53-.43-.31-.44-.75-.51-.29-.61-.93-1.23-1l.07-.1c0-.1-.09,0-.16-.09l0,0c-.12-.17-.38-.23-.42-.35l-.1.1c-.1-.07,0-.12-.12-.14l.05,0h-.19c.18-.18-.23-.24-.23-.39a1.39,1.39,0,0,1-.57-.36c.06-.12-.16-.31-.25-.47L16,5.44c-.33-.25-.69-.51-1-.73l0,.17-.18-.09s0-.06,0-.07c-.09-.26-.44-.14-.56-.3.07.18.12.06.23.11s-.05.23-.23.08v0l-.15,0c0-.14-.11-.24-.12-.37a2.12,2.12,0,0,0-.91,0,6.45,6.45,0,0,1-.79.16c0-.16-.43.18-.39-.1-.33.25.13.16,0,.4-.09,0-.16.15-.21.08s-.15-.1-.08-.16a1.06,1.06,0,0,0-.21.16s0-.07,0-.1c-.36.4-.84.47-1,1,.05.09.13-.15.17,0-.12.52-.35.26-.45.76L10,6.26c0,.19.09.31-.09.5-.15,0,0-.27-.05-.42-.07.17-.19.62,0,.54,0,.22-.15.25-.22.36s.14-.17.17,0a3,3,0,0,0-.27,1s-.1,0-.11,0C9.59,8.36,9.26,8.31,9.28,8.57Z"/><path class="cls-1" d="M9.41,18.77l0-.07a.15.15,0,0,1-.1-.06Z"/><path class="cls-1" d="M9.88,15.2l0,0S9.86,15.2,9.88,15.2Z"/><path class="cls-1" d="M9.68,14.32c0,.06.07,0,.11,0A.26.26,0,0,0,9.68,14.32Z"/><path class="cls-1" d="M9.49,20.84a.07.07,0,0,0-.06,0Z"/><path class="cls-1" d="M8.19,26.33l0,0A0,0,0,0,0,8.19,26.33Z"/><path class="cls-1" d="M8.49,26.09V26S8.48,26.07,8.49,26.09Z"/><path class="cls-1" d="M9.65,19.48a.13.13,0,0,0,0-.07S9.63,19.47,9.65,19.48Z"/><path class="cls-1" d="M8.47,26l0-.07h0Z"/><path class="cls-1" d="M8.14,26.42a.73.73,0,0,1,0-.09S8.13,26.39,8.14,26.42Z"/><path class="cls-1" d="M9.3,22.92h0C9.24,22.83,9.26,22.88,9.3,22.92Z"/><polygon class="cls-1" points="8.32 25.55 8.32 25.54 8.29 25.51 8.32 25.55"/><path class="cls-1" d="M8,26.73a0,0,0,0,0,0,0l0,0Z"/><path class="cls-1" d="M8.83,24l.1,0S8.92,24,8.83,24Z"/></g></svg>