<svg xmlns="http://www.w3.org/2000/svg" viewBox="0 0 32.86 72.67"><defs><style>.cls-1{fill:#1d76b8;}</style></defs><title>Mini marco teorico refuerzo - Automata 2</title><g id="contenido"><path class="cls-1" d="M14.81,18.15l-.05,0Z"/><path class="cls-1" d="M12.56,22.83v-.07S12.55,22.82,12.56,22.83Z"/><path class="cls-1" d="M16.21,15.39h0l.1-.19Z"/><path class="cls-1" d="M9.27,33.49v-.07S9.27,33.47,9.27,33.49Z"/><path class="cls-1" d="M11.05,27.09a.16.16,0,0,1,0,.1S11.09,27.11,11.05,27.09Z"/><path class="cls-1" d="M18.17,14.52l-.12,0A.11.11,0,0,0,18.17,14.52Z"/><path class="cls-1" d="M19.2,11.58h0Z"/><path class="cls-1" d="M18.31,12.48a.34.34,0,0,0,0,.1S18.34,12.5,18.31,12.48Z"/><path class="cls-1" d="M18.31,12.63v-.05S18.29,12.62,18.31,12.63Z"/><path class="cls-1" d="M25,68.85a.57.57,0,0,0,.27.05Z"/><path class="cls-1" d="M8.78,43.78l0,0S8.77,43.78,8.78,43.78Z"/><path class="cls-1" d="M25.58,68.26l0,.06A.09.09,0,0,0,25.58,68.26Z"/><path class="cls-1" d="M17.72,16.1c0,.12-.13.24,0,.28S17.81,16.2,17.72,16.1Z"/><path class="cls-1" d="M12.56,45.35v0A.2.2,0,0,0,12.56,45.35Z"/><path class="cls-1" d="M25.58,68.26l0-.06v0Z"/><polygon class="cls-1" points="11.4 54.18 11.4 54.17 11.37 54.16 11.4 54.18"/><path class="cls-1" d="M11.47,54.77l-.07-.1A.12.12,0,0,0,11.47,54.77Z"/><path class="cls-1" d="M25.25,68.9l.16,0A.29.29,0,0,0,25.25,68.9Z"/><path class="cls-1" d="M14.64,60.25l0,0Z"/><path class="cls-1" d="M11.21,26.7l0-.05S11.21,26.64,11.21,26.7Z"/><polygon class="cls-1" points="12.62 31.25 12.62 31.25 12.62 31.25 12.62 31.25"/><path class="cls-1" d="M12.55,31a.24.24,0,0,0,.07.23A.26.26,0,0,0,12.55,31Z"/><path class="cls-1" d="M12.47,31.69l0,0S12.47,31.68,12.47,31.69Z"/><polygon class="cls-1" points="13.69 27.58 13.68 27.58 13.69 27.58 13.69 27.58"/><path class="cls-1" d="M13.48,28.4l-.05.05A.12.12,0,0,0,13.48,28.4Z"/><polygon class="cls-1" points="12.34 33.8 12.33 33.8 12.34 33.8 12.34 33.8"/><path class="cls-1" d="M12.46,41.6a11.89,11.89,0,0,1-.19-2.53.92.92,0,0,1-.21-.67h.26l-.07-.21c.09-.08,0,.16.15,0l-.16-.09c.1,0,.11-.52.26-.17l.07-.79c0-.17-.21-.12-.13-.31.08,0,.05.08.14.07.23-.56-.41-.73-.23-1.26l0,.05c0-.11,0-.28,0-.29-.27,0,.12.12-.05.27-.21,0-.09-.23-.25-.24.09-.12,0-.21,0-.33.16-.17.1-.46.29-.58,0-.1-.26-.24-.23-.44.2-.12.16.06.26-.13l-.12-.05c.05-.16.08-.13.13-.11,0-.17-.14-.17,0-.38l.1.14a1,1,0,0,1,.07-.44c.07,0,0,.1,0,.16.21-.08,0-.22,0-.28s-.11.16-.22.06c.05-.1-.12-.27,0-.32l.1.15c-.06-.25-.13-.16,0-.41l.07,0c-.13-.19.05-.39.11-.63l0,.05c0-.1-.11-.18-.09-.23-.1.12-.13.08-.25.06.24-.14-.17-.33,0-.61.07,0,.14.11,0,.18.19.15.36.2.41.4,0-.12,0-.26.07-.21l-.19-.08c0-.07,0-.13,0-.18s-.24.1-.28-.08.22-.05.14-.1c0-.27-.18-.15-.06-.38,0,0,0,.08,0,.1.12-.16.06-.43.31-.43,0,0,.11.06.08.12h0c.13.23,0-.17.19-.06-.13,0-.05-.25,0-.36h-.15c-.34-.46.28.09.31-.28s-.06.08-.13-.09.2-.17.2-.41a.47.47,0,0,1,.35-.13c0-.15.18-.39,0-.51-.2.2.1.28-.18.49L13.29,29c.06-.19,0-.45.14-.56s-.09,0-.11,0c0-.28-.12-.4,0-.65.15,0,.08.15.06.26.16-.13.06-.17.18-.42.12,0-.06.18,0,.24l0-.3h0c-.19-.1.07-.22.07-.41.13-.42-.13-.56-.22-.84.08,0,.13,0,.18,0-.13.08-.05.08,0,.13,0-.15.3-.24.36-.14,0-.24-.14.05-.16-.11l.11-.3c-.11,0-.17.1-.2-.08a1.06,1.06,0,0,1,.12-.37s.17,0,.12.12a.2.2,0,0,0,0-.28c-.15.16,0-.34-.2-.26l.16-.16c0,.05.05.08,0,.13.17,0,0-.17,0-.24s.13-.23.19-.22.06-.21.15-.21-.1,0-.14-.08l.12-.3c.09,0,.34.07.36.13,0-.15-.24-.13-.17-.3.13.15.21-.18.36,0,.15-.06.25-.34.26-.51s-.14.14-.27.08c.1-.45-.26-.61-.08-.91l-.07.07a.63.63,0,0,0-.07-.36c.15.12.54-.06.63-.4-.08-.05-.23.13-.35,0l.06-.22s0,0,.05.06c0-.22.36-.28.18-.41l.32-.1-.13,0c-.07-.06,0-.28,0-.34a.36.36,0,0,1,.25-.39c-.08,0-.28.05-.23-.14.27.11.24-.33.38-.27s.16-.16.05-.21l.16.08c-.23-.11-.11-.36-.07-.57.3.17.07-.23.39-.19-.2-.13.06-.39-.11-.5.05-.15.25-.05.33-.06l0-.1c.13,0,.27-.31.4-.45l-.12-.24.11,0s0-.18-.11-.13l.05-.08c-.21-.1,0-.14,0-.35.05,0,.09,0,.11.06s.12,0,.21,0c-.08,0-.23-.46-.42-.28-.09,0-.1-.18,0-.24l.2,0-.15-.19c0-.14.18-.14.24-.23,0,.11.25.39.37.12a.78.78,0,0,0,0,.36s.06-.07.1.05c0-.24-.08-.12,0-.35.16.09.24.06.38-.1l-.19.08,0,0s-.07,0-.14,0-.09-.33,0-.32c-.35.09,0-.47-.24-.4,0-.05,0-.2.1-.18.05.24.25,0,.35,0,0-.09-.18.08-.2,0s.17-.14.25-.17v0l.15-.12c-.07-.07-.22.09-.19-.08.06,0,.09-.19.15-.16s.25.15.22.28c0-.11.18-.45,0-.38l.07-.13c-.11.05-.34.21-.24,0l0,0,0-.24.12,0a.08.08,0,0,1,0-.13c.05,0,.1,0,.17,0,.08-.19,0-.22-.05-.26s.1-.14.17,0c.09-.14.19-.4.32-.45,0-.23-.05,0-.11-.15.36,0,.42-.58.55-.91-.29,0,0-.1-.18-.27,0,.11.34-.19.27.11l.06-.18c.19,0,0,.33.23.25.09-.19-.12-.45.08-.62.14.16,0-.2.19-.05s0,.13,0,.2l.05,0c.26-.38-.14-.22-.15-.5s.23-.12.32-.09a.32.32,0,0,0,.08-.25c0,.2-.25.22-.33.09.26,0,.21-.36.17-.47-.4.25-.14.25-.54.46,0,.08.22.17.05.33,0-.17-.1,0-.15,0,.12,0,0,.16,0,.24s-.17-.24-.32-.06l.22.16c-.07.07-.16-.12-.19.08-.08-.16-.21-.07-.13-.32-.34.17-.1.48-.12.73,0,0,0-.05,0-.07s0,.15,0,.22-.05-.16-.13-.16l-.11.23h0c0,.08,0,.14-.08.13a2.75,2.75,0,0,0-.15-.25l.05.33c-.07-.07-.24.13-.21-.07l-.14.37-.18-.05q0,.16.09,0c-.1.11,0,.68-.27.46a3.21,3.21,0,0,1-.18.81c0-.34-.34.21-.28-.1-.15.13,0,.24,0,.38s-.26,0-.26-.2v.19l0,0,0,.18c-.16.1-.18-.05-.27.09l.13.1-.13.06c.08,0,.07.1,0,.21l0,0,0,.14c0-.17-.08.11-.16,0a1,1,0,0,0-.12.33h.12c0,.3-.16-.06-.26.15l.12,0c-.33.22-.12.57-.35.74,0-.14-.12-.17-.09-.15,0,.21-.22.51-.16.78a.45.45,0,0,0-.43.17c-.05.16,0,.19,0,.28-.12.12-.14.44-.27.4.09.07-.07.12,0,.24h-.06l.12,0c-.37.15,0,.5-.38.68v.07c-.06,0-.07-.06-.14-.1l-.23.52.13-.07c0,.11.06.23-.07.33-.09-.28-.07.17-.22.15v-.13c0,.16,0,.16.07.19,0,.22-.28.05-.22.29l.06-.13c.08,0,.14.12.1.2s-.1.06-.09,0c0,.17-.16.38-.14.47a.09.09,0,0,1-.16-.05c0,.38-.08.15-.11.52l-.06,0,0,.15-.2.11.11,0a.79.79,0,0,1-.1.32l-.08-.09c-.06.34-.3.31-.26.66,0,0,0-.05-.05-.08.06.34-.25.15-.16.5,0,0-.08,0-.11,0l0,.15-.14-.06.17.17-.17,0,.05.08c-.31,0-.18.3-.44.42l.18,0c.18.59-.55,1-.57,1.65l-.14-.05.09.29c-.15.09-.09-.12-.18-.1,0,.28.17.17.12.48-.14.12-.08-.08-.11-.17a2.1,2.1,0,0,1-.21.9l0,0a3.15,3.15,0,0,1-.16.64c-.07,0-.06-.08-.06-.13s-.1.16-.05.24l-.1-.11c-.07.15,0,.49-.2.48.06,0,.17,0,.12.17-.23,0,0,.4-.18.59-.05,0,0-.21,0-.16s0,.22,0,.33l-.08-.05c0,.18,0,.36,0,.55-.24,0-.08.5-.23.42-.05.19.13-.13.1.11-.11,0,0,.22-.14.18l0,0,0,.17-.12-.14a.36.36,0,0,0,.22.32c-.11.11-.09.32-.23.35l0-.06c0,.39-.53.54-.35.89,0,0-.06,0,0,0l-.05.24-.1-.08.09.42-.07,0a6.62,6.62,0,0,0-.15,1l0-.05c0,.38-.13.33-.1.61l0,0,0,.24-.06-.07c.13.21-.27.48-.13.39.06.12.12.3.2.34,0,.27-.1.06-.18.21s.08.24,0,.49l-.07,0a3.67,3.67,0,0,1,0,.38l0-.06c.11.3-.26.32,0,.57-.08.11-.06.33-.2.31a8.28,8.28,0,0,1,.12,1c-.24,0,0,.08-.14.27h.13c0,.48-.4,1-.35,1.57H8.44l.13.11A17.71,17.71,0,0,0,8.43,41a1.1,1.1,0,0,1,.21.63l0,0a4.16,4.16,0,0,1,.11,1.33c-.05,0-.09,0-.13,0,.15.1,0,.27,0,.37l.08-.12c.14.12,0,.31,0,.39l.16.2-.05,0,.07,0-.15.13s.11.31.28.38c-.05,0-.07.22-.12.08l0,.76L9,45c.12,0,.23.18.19.3-.12-.13-.18,0-.27.1.09.09.1-.11.18-.06s.2.37.16.45l-.07-.07c.09.17-.12.29-.07.46s.06.27.27.19c.09.22-.13.12-.13.19a.39.39,0,0,1,0,.48c.34.05,0,.63.28.61l-.1.21a.28.28,0,0,1,.31.11c-.05.15-.18.15-.24.21l.29,0a22.75,22.75,0,0,0,.4,2.69,7.34,7.34,0,0,1,.53,1.23l0,0,.08.46v-.36a.91.91,0,0,1,.16.24,3.78,3.78,0,0,0,.5,1.72c.43.26-.16.35.19.62l-.12,0a4.07,4.07,0,0,0,.72.85c-.3.08.12.24,0,.27l.13,0c0,.12,0,.33-.06.34l.22.1-.11.07c.09.24.43.66.26.89a4.35,4.35,0,0,1,.66.93c.22.36.43.75.62,1.09.15,0,.28.22.39.36v.24c.15.12.42.16.44.36h0c.14.13.18.32.39.38s.18.35,0,.4c.21-.15.25.35.25.35a12.86,12.86,0,0,0,1,1.28A27.06,27.06,0,0,0,19,65.26C21.17,67,23.65,68.67,25,68.85c.14,0,.36,0,.38-.15.16.06.09.28.19.21-.13-.21.26-.22.18-.48l.13.07c.07,0-.22,0-.09-.15l-.18.16a.3.3,0,0,1-.07-.26c-.14,0-.39.21-.51-.06l.07,0c-.18-.13,0-.2,0-.26l0,0L25,67.8c.06.14.35.13.25.07s0,.09-.15,0,0-.14.05-.19L25,67.55c.07-.09.11.09.11,0l-.28-.08c.13-.24-.31-.07-.25-.35.19.07.05-.08.13-.13l-.38-.28s.15,0,.08,0-.15,0-.19-.07-.27-.21-.15-.34c-.18-.3-.25.1-.42-.17,0-.11.2.13.17,0l-.26-.15c.05,0,.15-.11.23,0-.57-.62-.54-1.35-1.22-1.7,0-.17.11,0,.22,0-.53-.2-.41-.7-.77-1l-.07.08c-.28-.66-1-1-1.42-1.58l0,.11c-.15,0-.27-.08-.39-.12s.21-.11,0-.22c0,.06,0,.15,0,.17a3.62,3.62,0,0,0-.77-1,15,15,0,0,1-1-1.21,17.89,17.89,0,0,1-2.2-3.23c.1.16-.17.22-.19.06.21-.57-.4-.57-.31-1.08-.44-.62-.37-1.36-.93-1.9l.11-.06c0-.12-.08-.11-.13-.21h0c-.05-.26-.3-.5-.28-.67l-.14,0c-.06-.14.08-.11-.05-.24l.07,0-.19-.13c.24-.07-.13-.43-.06-.59a2.16,2.16,0,0,1-.38-.82c.11-.1,0-.46,0-.71A9.43,9.43,0,0,1,13.3,48l-.16,0-.05-.15s.05,0,.07,0c.15-.16-.15-.34-.07-.49-.12.11,0,.11,0,.2s-.23.07-.2-.12h0l-.12-.09c.13,0,.15-.17.27-.22a5.31,5.31,0,0,1-.48-1.29c.15,0-.11-.35.16-.3-.16-.28-.19.09-.39,0,0-.08-.1-.16,0-.19s.13-.1.17,0l-.06-.2s.06,0,.08,0c-.24-.38.05-.76-.15-1.11-.09,0,0,.15-.1.14-.22-.36.12-.36-.05-.7l.14.06c-.1-.1-.21-.14-.14-.34.14,0,.14.15.22.23,0-.13-.09-.45-.21-.34-.06-.15.05-.21.09-.3s-.08.15-.16.07a3,3,0,0,0,.06-.81s.09,0,.1,0C12.19,41.88,12.51,41.88,12.46,41.6Z"/><path class="cls-1" d="M13.74,27.48l-.05.1a.11.11,0,0,1,.08.08Z"/><path class="cls-1" d="M12.43,32.5s0,0,0,0A.06.06,0,0,0,12.43,32.5Z"/><path class="cls-1" d="M12.45,33.78c0-.09-.07,0-.11,0A.12.12,0,0,0,12.45,33.78Z"/><path class="cls-1" d="M14.25,24.54a.08.08,0,0,0,.05.05S14.27,24.54,14.25,24.54Z"/><path class="cls-1" d="M17.34,16.93l0,0S17.33,17,17.34,16.93Z"/><path class="cls-1" d="M17,17.26a.2.2,0,0,0,0,.09A.15.15,0,0,0,17,17.26Z"/><path class="cls-1" d="M13.7,26.45a.2.2,0,0,0,0,.1A.1.1,0,0,0,13.7,26.45Z"/><path class="cls-1" d="M16.92,17.45l-.06.1h0Z"/><path class="cls-1" d="M17.42,16.81a1.25,1.25,0,0,1-.08.12A.12.12,0,0,0,17.42,16.81Z"/><path class="cls-1" d="M15.09,21.64h0C15.12,21.76,15.11,21.69,15.09,21.64Z"/><path class="cls-1" d="M17,18h0l0,.05Z"/><path class="cls-1" d="M17.67,16.38s0,0,0,.06l0-.05Z"/><path class="cls-1" d="M15.92,20.11a.73.73,0,0,0-.09-.09S15.83,20.09,15.92,20.11Z"/><path class="cls-1" d="M25.13,24.46h0Z"/><path class="cls-1" d="M24.83,21l0,0S24.84,21,24.83,21Z"/><path class="cls-1" d="M25.49,26.53h0l0,.14Z"/><path class="cls-1" d="M24.43,13.6v.05S24.44,13.61,24.43,13.6Z"/><path class="cls-1" d="M24.52,18a.08.08,0,0,1-.05,0S24.48,18,24.52,18Z"/><path class="cls-1" d="M24.46,28l.07-.08A.08.08,0,0,0,24.46,28Z"/><path class="cls-1" d="M25.5,30l0,0Z"/><path class="cls-1" d="M25.59,29l-.06,0S25.55,29,25.59,29Z"/><path class="cls-1" d="M25.5,29l0,0S25.52,29,25.5,29Z"/><path class="cls-1" d="M7,17.63c0,.05,0,.14,0,.22Z"/><path class="cls-1" d="M23.88,6h0S23.89,6,23.88,6Z"/><path class="cls-1" d="M7.63,18.19l0,0A.05.05,0,0,0,7.63,18.19Z"/><path class="cls-1" d="M23.88,27c-.1,0,0-.19-.12-.16S23.75,27,23.88,27Z"/><path class="cls-1" d="M20.63,7.69h0Z"/><path class="cls-1" d="M7.63,18.19l0,0,0,0Z"/><polygon class="cls-1" points="15.74 7.04 15.74 7.04 15.74 7.02 15.74 7.04"/><path class="cls-1" d="M15.35,7.19l0-.08S15.34,7.16,15.35,7.19Z"/><path class="cls-1" d="M7,17.85V18A.24.24,0,0,0,7,17.85Z"/><path class="cls-1" d="M12.48,10.22v0A0,0,0,0,0,12.48,10.22Z"/><path class="cls-1" d="M24.51,18.26l0,0S24.53,18.29,24.51,18.26Z"/><polygon class="cls-1" points="21.73 15.75 21.73 15.74 21.73 15.74 21.73 15.75"/><path class="cls-1" d="M21.86,15.89c0-.05-.06-.11-.13-.14S21.76,15.84,21.86,15.89Z"/><path class="cls-1" d="M21.75,15.41v0Z"/><polygon class="cls-1" points="21.89 18.49 21.9 18.49 21.89 18.49 21.89 18.49"/><path class="cls-1" d="M21.8,17.89a.09.09,0,0,0,0-.05S21.8,17.87,21.8,17.89Z"/><polygon class="cls-1" points="21.37 13.92 21.38 13.92 21.38 13.92 21.37 13.92"/><path class="cls-1" d="M20.52,8.39a5.59,5.59,0,0,1,.23,1.68.66.66,0,0,1,.24.49l-.25,0,.08.16c-.08.06-.05-.12-.14,0l.16.06c-.1,0-.05.39-.25.14l0,.59c0,.14.21.07.15.22s-.05-.05-.14,0c-.18.44.51.48.41.89l0,0c.08.07.07.2.11.2.25-.06-.14-.07,0-.2s.13.15.29.14c-.07.09.05.14.07.23-.13.14,0,.34-.19.45.07.07.29.13.3.28-.16.12-.16,0-.21.13l.12,0c0,.12,0,.1-.1.1s.18.1.11.26l-.13-.08a.65.65,0,0,1,0,.33c-.08,0-.08-.07-.06-.12-.18.1.09.15.08.2s.07-.13.19-.09.19.16,0,.23l-.13-.08c.11.16.17.08.13.28h-.07c.17.11,0,.28,0,.47l0,0c.05.07.16.1.16.14s.1-.08.22-.1c-.2.16.26.19.15.42-.07,0-.16,0-.09-.11-.22-.06-.4,0-.51-.18.06.08.09.18,0,.16h.2c0,.05,0,.1,0,.13s.19-.12.28,0-.19.09-.1.11c.09.17.22.05.17.23,0,0-.06,0,0-.06s.06.31-.17.37c-.06,0-.13,0-.11-.06h0c-.18-.13.06.11-.16.08.13,0,.12.16.11.25l.14,0c.46.22-.29,0-.21.27s0-.07.15,0-.14.18-.06.33a.45.45,0,0,1-.28.19c.08.09,0,.31.13.35.12-.19-.19-.15,0-.38l.16,0c0,.14.11.31.06.41a.2.2,0,0,1,.11,0c.08.19.25.23.22.43-.14,0-.13-.07-.15-.15-.1.14,0,.13,0,.33-.13,0,0-.13-.14-.14l.07.21h0c.22,0,0,.17.08.29,0,.31.33.32.53.46a.15.15,0,0,1-.16.06c.08-.08,0-.06-.05-.08s-.17.26-.26.21c.08.16.1-.07.18,0l0,.23c.1-.05.12-.13.22,0a.79.79,0,0,1,0,.28c-.06,0-.16.06-.17,0a.12.12,0,0,0,.09.18c.08-.15.13.22.28.09l-.08.16s-.07,0-.06-.08c-.15.07.07.11.09.15s0,.19-.08.21,0,.15,0,.19.11,0,.16,0l0,.23a1,1,0,0,1-.38.06c.1.07.27,0,.29.12-.19-.05-.11.19-.33.12a.33.33,0,0,0,0,.41c.15.05.06-.14.2-.15.11.31.5.26.48.51L23,22c.11.13.09.12.23.18a.41.41,0,0,0-.36.49c.09,0,.14-.17.29-.15l.06.15s0,0-.07,0-.18.31,0,.31l-.23.2.1-.08c.09,0,.15.16.19.19s.07.21,0,.33c.07,0,.21-.15.27,0-.28.06,0,.3-.19.32,0,.06-.06.17.06.15l-.17,0c.24,0,.28.15.35.28-.34.05.07.16-.22.29.23,0,.15.24.35.22,0,.11-.18.15-.24.19l.1,0c-.1.08-.06.29-.1.44l.23.06-.08.07c.05,0,.11.09.16,0v.07c.22-.05.08.07.21.17a.1.1,0,0,1-.12,0c0,.06-.1.06-.17.12s.45.12.51-.08a.11.11,0,0,1,.15.12l-.18.09.22,0c.06.08-.06.16-.06.24,0-.07-.42-.07-.36.13-.06-.1-.18-.12-.23-.17s0,.07-.11,0c.1.14.13,0,.2.17-.18,0-.22.1-.24.26l.1-.14h.05c0-.05,0-.07.1-.09s.26.12.16.18c.23-.24.29.21.42.07a.07.07,0,0,1,0,.14c-.17-.09-.17.16-.3.17.07,0,.1-.14.19-.09s-.06.16-.1.22l0,0-.05.14c.1,0,.12-.16.19-.06s.06.14,0,.16-.29.06-.34,0,.13.32.26.17l0,.09c.06-.08.14-.28.22-.1h0l.17.09-.07.09a.07.07,0,0,1,.1,0c-.05,0-.05.08-.12.1s.13.1.19.1,0,.11-.11.11.1.29,0,.4c.12.12,0,0,.17,0-.26.22,0,.52.15.74.24-.15,0,.05.31,0-.1,0-.13.29-.27.11l.07.12c-.12.13-.18-.17-.34,0,.06.13.38.13.34.32-.2,0,.11.11-.11.14s-.07-.06-.11-.11l0,0c.05.33.25,0,.43.13s-.09.2-.18.24,0,.13.1.16c-.15-.07.05-.25.18-.24-.18.16.08.28.18.3.13-.34-.05-.19.1-.52-.08,0-.27.06-.24-.11.12.06.1-.05.12-.08s-.08-.09-.14-.12.28,0,.27-.16l-.26.06c0-.08.19,0,.09-.15.16,0,.2-.09.3.06.15-.27-.23-.26-.37-.39h.07c-.07,0-.09-.07-.12-.12s.14.05.2,0L25.48,29h0c-.05,0-.09-.07,0-.1s.19,0,.27,0l-.23-.12c.09,0,.1-.19.2-.08l-.12-.25.16-.08c-.05-.05-.08,0-.08,0,0-.1-.43-.3-.07-.36-.21-.16-.17-.26-.34-.48.22.14.14-.28.28-.1,0-.14-.16-.11-.22-.2a.23.23,0,0,1,.33,0l-.11-.09h0l-.13-.06c.07-.13.17-.08.17-.19l-.17,0,.07-.1c-.06,0-.11,0-.14-.08h0l-.06-.09c.12.07,0-.09.14-.08a.59.59,0,0,0-.09-.22l-.1.05c-.14-.16.16-.05.13-.21l-.12.05c.14-.28-.22-.35-.13-.55,0,.09.19,0,.15,0s-.11-.37-.29-.48c.16-.1.21-.12.25-.29s-.05-.12-.17-.13c.05-.12-.1-.3,0-.33-.1,0,0-.1-.1-.14l0,0-.12,0c.23-.25-.23-.27,0-.52l0,0-.07-.07c.05,0,.09,0,.16,0L25,23.38l-.07.09c0-.07-.16-.1-.11-.21.22.11,0-.12.12-.18l.07.07c0-.1,0-.1-.16-.07-.08-.13.21-.15,0-.25l0,.1c-.07,0-.19,0-.2-.07s.06-.07.09,0,0-.28-.1-.32a.11.11,0,0,1,.16,0c-.16-.22,0-.11-.15-.33h.07l-.1-.06.12-.15-.08.06c0-.08-.09-.12-.07-.22l.12,0c-.1-.21.12-.29-.06-.47,0,0,.05,0,.07,0-.2-.16.16-.18-.07-.34,0,0,.08,0,.11,0l-.09-.08h.15l-.23,0,.14-.08-.07,0c.25-.15,0-.24.21-.41l-.18.05c-.43-.26.09-.78-.14-1.15l.14,0-.19-.13c.1-.11.13,0,.2,0-.11-.16-.23,0-.3-.24.08-.12.11,0,.17.06a.88.88,0,0,1-.15-.6s0,0,0,0,0-.3-.07-.44a.1.1,0,0,1,.1.06c0-.05,0-.12,0-.16l.13,0c0-.11-.13-.31,0-.35,0,0-.16,0-.17-.07.22-.07-.12-.24,0-.4.05,0,.07.12.07.09s-.06-.14-.13-.2h.09l-.16-.34c.21-.07-.07-.33.09-.32,0-.12-.08.12-.13,0s-.05-.14.09-.15l0,0,0-.11.14.06c0-.1-.18-.15-.29-.15.07-.09,0-.22.12-.27l0,0c-.08-.25.35-.45.09-.63,0,0,.06,0,.06,0v-.15l.11,0-.18-.24h.07A2.65,2.65,0,0,0,24.4,14l0,0c-.13-.23,0-.23,0-.41l0,0v-.16l.07,0c-.16-.1.19-.34.06-.26S24.39,13,24.3,13c0-.17.09,0,.15-.16s-.13-.14-.07-.31h.07c0-.08-.07-.12-.08-.23l0,0c-.16-.18.2-.23-.12-.36.06-.08,0-.22.16-.22a3.48,3.48,0,0,1-.21-.62c.23,0,0,0,.11-.18h-.12c0-.31.29-.68.23-1h.13l-.14-.07a7.68,7.68,0,0,0,.1-1.27c-.08-.11-.24-.27-.21-.46h0a3.51,3.51,0,0,1-.13-.49l0-.27c0-.13,0-.27-.05-.42.06,0,.09,0,.13,0-.16-.09-.08-.31-.11-.44l0,.17c-.16-.11-.1-.36-.05-.47l-.2-.17a.07.07,0,0,1,0-.06h-.07l.09-.21s-.23-.3-.4-.27c0-.06-.05-.27.06-.15a3.64,3.64,0,0,0-.47-.71.88.88,0,0,1,.05.15c-.07.1-.28,0-.34-.13.18,0,.12-.14.11-.27s0,.16-.07.18-.41-.14-.44-.24h.09c-.17-.07-.16-.3-.33-.38s-.29-.09-.33.12c-.24,0,0-.17-.11-.21s-.46,0-.48-.16a.27.27,0,0,1-.31.1c-.18,0-.38-.11-.42.07l-.2-.13a.36.36,0,0,1-.19.32c-.15,0-.13-.17-.19-.24l-.06.31a2.59,2.59,0,0,0-1.42.56l-.59.41a1.86,1.86,0,0,1-.44.23,3,3,0,0,1-.59.71V6l-.28.15.25,0c0,.06,0,.14-.09.18a1.86,1.86,0,0,0-1,.73c0,.41-.32-.08-.36.26,0,0,0-.07,0-.11a2.72,2.72,0,0,0-.29.74c-.19-.25-.13.13-.22,0l.07.11c-.1,0-.22.07-.27,0l0,.2-.1-.09c-.12.11-.3.43-.54.3A3.56,3.56,0,0,1,13,9.6a.42.42,0,0,1-.15.32h-.19c-.05.11,0,.34-.15.35a.06.06,0,0,1,0,0c-.07.11-.2.14-.18.32s-.24.12-.31,0c.17.18-.22.18-.22.18a27.44,27.44,0,0,0-2.49,2.59C8.07,14.77,6.93,16.57,7,17.63c.07.12,0,.29.19.33,0,.12-.24,0-.15.13.16-.08.23.23.45.2l0,.09c.06.07,0-.17.12-.05l-.17-.16a.28.28,0,0,1,.22,0c0-.11-.25-.34,0-.4v.05c.08-.13.17,0,.22,0l0,0,.17,0c-.12,0-.06.27,0,.19s-.07,0,0-.12.12,0,.18.07l.08-.12c.08.07-.06.07.06.09l0-.22c.24.14,0-.23.27-.14,0,.14.08,0,.14.11l.18-.26c.05,0,0,.12,0,.07s0-.12,0-.15.14-.19.28-.07c.23-.1-.13-.21.08-.31s-.08.14.07.14l.09-.19c0,.05.12.14.05.19.47-.36,1.11-.23,1.32-.72.15,0,0,.09.07.19.1-.4.55-.23.74-.48L11.53,16c.54-.13.73-.66,1.16-.94h-.1a.58.58,0,0,1,.05-.3s.14.19.2.06-.12,0-.15,0c.49-.13,1-.85,1.61-1.27.59-.75,1.45-1.34,2.06-2-.1.11-.24-.13-.13-.16.53.12.31-.41.74-.39.29-.48.91-.53,1-1.12l.09.08c.1,0,0-.08.1-.14l0,0c.17-.09.25-.34.37-.36l-.09-.11c.07-.09.12,0,.14-.1l.05.06V9.05c.16.2.24-.19.39-.16a1.15,1.15,0,0,1,.4-.5c.12.07.32-.1.49-.16s.25-.26.37-.37a0,0,0,0,1,.06,0l-.06-.15v0l0,.08c.07.18,0-.08.05,0,0-.16,0,0,0,0s-.06-.25,0-.18V7.51c0,.14,0,.2.06.34a1.28,1.28,0,0,1,.05-.17c0-.06.06-.1.08-.06s.05,0-.06.25c.06-.09.08-.23.18-.42,0,0,.06-.06,0,0a1.79,1.79,0,0,1-.09.19h0l-.05.07c.14-.11-.07.19.05.09s0,0,.09-.1-.12.15,0,.1l-.11.06c.07,0,.17-.09.09,0L20.55,8a.46.46,0,0,0,.16-.06c.05,0-.07,0-.11.06a.76.76,0,0,1,.16,0c-.07.07-.08,0-.07.2,0,0-.09,0-.11,0C20.78,8.21,20.47,8.23,20.52,8.39Z"/><path class="cls-1" d="M21.88,18.57v-.08a.12.12,0,0,1-.11,0Z"/><path class="cls-1" d="M21.58,14.84l0,0A0,0,0,0,0,21.58,14.84Z"/><path class="cls-1" d="M21.27,14c0,.07.07,0,.1,0Z"/><path class="cls-1" d="M22.57,20.61a.06.06,0,0,0-.06,0S22.56,20.62,22.57,20.61Z"/><path class="cls-1" d="M23.72,26.34v0A0,0,0,0,0,23.72,26.34Z"/><path class="cls-1" d="M23.85,26a.07.07,0,0,0,0-.06A.07.07,0,0,0,23.85,26Z"/><path class="cls-1" d="M22.3,19.22a.08.08,0,0,0-.05,0A.08.08,0,0,0,22.3,19.22Z"/><path class="cls-1" d="M23.77,25.85v-.08h0Z"/><path class="cls-1" d="M23.73,26.44a.17.17,0,0,1,0-.1C23.69,26.39,23.7,26.42,23.73,26.44Z"/><path class="cls-1" d="M23.15,22.68h0C23.07,22.62,23.1,22.65,23.15,22.68Z"/><polygon class="cls-1" points="23.44 25.57 23.44 25.56 23.39 25.54 23.44 25.57"/><path class="cls-1" d="M23.76,26.8a0,0,0,0,0,0,0v0Z"/><path class="cls-1" d="M23.18,23.92h.13S23.27,23.89,23.18,23.92Z"/></g></svg>