<?xml version="1.0" encoding="utf-8"?>
<!-- Generator: Adobe Illustrator 24.2.0, SVG Export Plug-In . SVG Version: 6.00 Build 0)  -->
<svg version="1.1" id="Layer_1" xmlns="http://www.w3.org/2000/svg" xmlns:xlink="http://www.w3.org/1999/xlink" x="0px" y="0px"
	 viewBox="0 0 184 166" style="enable-background:new 0 0 184 166;" xml:space="preserve">
<style type="text/css">
	.st0{fill:#FFFFFF;}
	.st1{fill:#FAC706;}
	.st2{fill:#E76969;}
</style>
<g>
	<g>
		<g>
			<path d="M129.2,152.7H56.8c-13.9,0-25.2-9.4-25.2-20.9v-67c0-11.5,60-39.8,60-39.8c13.9,0,62.8,28.3,62.8,39.8v67
				C154.4,143.3,143.1,152.7,129.2,152.7z"/>
			<path class="st0" d="M129.2,159.8H56.8c-17.8,0-32.3-12.5-32.3-27.9v-67c0-6.8,5.7-14.5,33.6-30.3C73.1,26,87.9,19,88.6,18.7
				l1.4-0.7h1.6c9.6,0,27.7,8.9,40.3,16.6c29.6,18,29.6,27.2,29.6,30.2v67C161.5,147.3,147,159.8,129.2,159.8z M38.7,65.6v66.3
				c0,7.5,8.3,13.8,18.1,13.8h72.4c9.8,0,18.1-6.3,18.1-13.8V65.3C144.2,57,105.9,34,93,32.3C63.5,46.4,41.6,60.6,38.7,65.6z
				 M38.5,65.9L38.5,65.9L38.5,65.9z"/>
		</g>
		<g>
			<path d="M172.2,63L99,11.1c-1.8-1.3-3.9-1.8-6-1.8c-2.1-0.1-4.2,0.5-6,1.8L13.8,63c-4.4,3.2-5.5,9.4-2.3,13.8l0.5,0.7
				c3.2,4.4,9.4,5.5,13.8,2.3L93,32.2l67.3,47.7c4.4,3.2,10.7,2.1,13.8-2.3l0.5-0.7C177.7,72.4,176.7,66.2,172.2,63z"/>
			<path class="st0" d="M20,88.8c-5.3,0-10.6-2.5-13.9-7.2l-0.5-0.7C3,77.3,2,72.8,2.8,68.3s3.2-8.4,6.9-11l73.3-52
				c2.9-2.1,6.4-3.2,10.1-3.1c3.7-0.1,7.1,1,10.1,3.1l73.3,52c3.7,2.6,6.1,6.5,6.9,11c0.8,4.5-0.3,9-2.9,12.7l-0.5,0.7
				c-2.6,3.7-6.5,6.1-11,6.9c-4.5,0.8-9-0.3-12.7-2.9L93,40.9L29.8,85.7C26.9,87.8,23.4,88.8,20,88.8z M93,25.1
				c1.4,0,2.9,0.4,4.1,1.3l67.3,47.7c0.8,0.6,1.7,0.5,2.1,0.5c0.4-0.1,1.2-0.3,1.8-1.1l0.5-0.7c0.6-0.8,0.5-1.7,0.5-2.1
				c-0.1-0.4-0.3-1.2-1.1-1.8l0,0l-73.3-52c-0.5-0.3-1-0.5-1.7-0.5c-0.1,0-0.2,0-0.4,0c-0.7,0-1.2,0.1-1.7,0.5l-73.3,52
				c-0.8,0.6-1.1,1.4-1.1,1.8c-0.1,0.4-0.1,1.3,0.5,2.1l0.5,0.7c0.9,1.2,2.7,1.6,3.9,0.7l67.3-47.7C90.1,25.6,91.6,25.1,93,25.1z"/>
		</g>
		<g>
			<g>
				<path d="M106.7,128.8c-0.9,0-1.8-0.2-2.6-0.7l-9-4.9c-0.7-0.4-1.6-0.6-2.4-0.6c-0.8,0-1.7,0.2-2.4,0.6l-9.1,4.7
					c-0.8,0.4-1.7,0.6-2.6,0.6c-1.6,0-3.2-0.8-4.3-2c-1-1.3-1.5-2.9-1.2-4.5l1.8-10.1c0.3-1.7-0.2-3.4-1.4-4.6l-7.3-7.2
					c-1.5-1.5-2-3.7-1.3-5.7c0.7-2,2.4-3.5,4.5-3.7l10.1-1.4c1.7-0.2,3.2-1.3,3.9-2.8l4.6-9.1c1-1.9,2.9-3.1,5-3.1
					c2.1,0,4,1.2,5,3.2l4.4,9.2c0.7,1.5,2.2,2.6,3.9,2.9l10.1,1.6c2.1,0.3,3.8,1.8,4.5,3.8c0.6,2,0.1,4.2-1.5,5.7l-7.4,7.1
					c-1.2,1.2-1.8,2.9-1.5,4.6l1.6,10.1c0.3,1.6-0.2,3.3-1.3,4.5C110,128.1,108.4,128.9,106.7,128.8
					C106.7,128.8,106.7,128.8,106.7,128.8z"/>
				<path class="st0" d="M106.8,135.9c0,0-0.1,0-0.1,0v0c-2.1,0-4-0.5-5.9-1.5l-8.1-4.4l-8.2,4.2c-1.9,1-3.9,1.4-5.9,1.4
					c-3.7,0-7.2-1.7-9.6-4.6c-2.4-2.9-3.3-6.6-2.7-10.3l1.7-9.1l-6.5-6.5c-3.4-3.4-4.6-8.4-3.1-13c1.6-4.6,5.5-7.9,10.3-8.5l9.1-1.2
					l4.2-8.2c2.2-4.3,6.6-7.1,11.4-6.9c4.9,0,9.2,2.8,11.3,7.2l4,8.3l9.1,1.4c4.8,0.7,8.7,4.1,10.1,8.7c1.5,4.6,0.2,9.6-3.3,12.9
					l-6.7,6.4l1.5,9.1c0.6,3.7-0.5,7.4-2.9,10.3C114,134.3,110.5,135.9,106.8,135.9z M92.7,115.6c0,0,0.1,0,0.1,0c2,0,4,0.5,5.7,1.5
					l6.3,3.4l-1.1-7.1c-0.6-4,0.7-8,3.6-10.8l5.2-4.9l-7.1-1.1c-4-0.6-7.4-3.2-9.2-6.8l-3.1-6.5l-3.2,6.4c-1.8,3.6-5.3,6.1-9.3,6.6
					l-7.1,1l5.1,5.1c2.9,2.9,4.1,6.9,3.4,10.9l-1.3,7.1l6.4-3.3C88.8,116.1,90.7,115.6,92.7,115.6z"/>
			</g>
			<g>
				<path d="M106.7,127.4c-2.7-0.2-5.6-2.5-7.8-3.7c-2.4-1.3-4.9-3-7.8-2.3c-2.4,0.6-4.7,2.2-6.8,3.3c-2.8,1.4-6.7,4.2-9.1,0.5
					c-1.5-2.4,0.1-6.7,0.5-9.2c0.5-2.6,1.4-5.4,0.2-7.9c-1.1-2.2-3.5-4-5.2-5.7c-2-2-5.5-4.4-4.3-7.7c1.1-3.2,5.4-3,8.2-3.4
					c2.4-0.3,5.5-0.3,7.6-1.5c2.4-1.4,3.4-4.2,4.6-6.5c1.1-2.1,2.2-5.7,4.3-7.1c6-3.8,8.7,9,11.1,12.1c1.8,2.4,4.7,2.6,7.4,3
					c2.4,0.4,5,0.5,7.3,1.2c3.2,0.9,4,4.7,1.8,7.1c-0.8,0.8-1.6,1.6-2.5,2.4c-2,1.9-5,4-6.2,6.5c-1.4,2.8-0.2,6.5,0.3,9.4
					C110.7,121.2,112.3,127.5,106.7,127.4c-1.8,0-1.8,2.8,0,2.8c4.6,0,7.5-4.1,6.9-8.4c-0.4-2.9-0.9-5.8-1.4-8.7
					c-0.3-1.7-0.3-3.1,1-4.5c0.8-0.8,1.7-1.6,2.5-2.4c2-1.9,4.7-3.8,6.1-6.2c2.5-4.2-0.2-9.5-4.8-10.4c-2.6-0.5-5.4-0.8-8-1.3
					c-1.3-0.2-2.8-0.3-3.9-1.1c-1.1-0.8-1.6-2.2-2.2-3.4c-1.2-2.4-2.2-4.9-3.5-7.3c-2.3-4.3-8.4-5.2-11.7-1.3
					C86,77.5,85,80.5,83.7,83c-0.5,0.9-0.9,1.8-1.4,2.7c-1,1.7-2.5,2.1-4.2,2.3c-2.9,0.4-5.9,0.7-8.8,1.2c-4.2,0.7-7.1,5-5.7,9.2
					c0.9,2.7,3.8,4.8,5.8,6.8c2,2,4.6,3.8,4.2,6.9c-0.4,3-1.1,6-1.6,9c-0.7,4.1,1.4,8.3,5.9,8.8c3.1,0.4,6-1.7,8.7-3.1
					c2.5-1.3,5.3-3.5,8.2-2.2c2.7,1.3,5.3,2.8,7.9,4.2c1.4,0.7,2.6,1.2,4.2,1.3C108.6,130.4,108.6,127.5,106.7,127.4z"/>
				<path class="st0" d="M106.9,137.4c-0.1,0-0.3,0-0.4,0c-0.3,0-0.6,0-0.9-0.1c-2.7-0.3-4.8-1.3-6.4-2.1c-0.9-0.5-1.8-1-2.7-1.5
					c-1.3-0.7-2.6-1.5-3.9-2.1c-0.4,0.2-0.9,0.5-1.3,0.7c-0.5,0.3-1.1,0.6-1.6,0.9c-0.4,0.2-0.9,0.5-1.3,0.7
					c-2.8,1.6-6.7,3.7-11.5,3.1c-3.8-0.5-7.2-2.4-9.4-5.4c-2.4-3.2-3.4-7.5-2.6-11.7c0.2-1.3,0.5-2.5,0.7-3.8c0.3-1.3,0.5-2.7,0.7-4
					c-0.3-0.3-0.6-0.6-0.8-0.8c-0.4-0.4-0.8-0.7-1.1-1.1c-0.4-0.4-0.8-0.7-1.2-1.1c-2.1-1.9-5-4.6-6.3-8.4
					c-1.3-3.9-0.8-8.1,1.3-11.6c2.2-3.6,5.8-6.1,9.9-6.8c2.1-0.4,4.2-0.6,6.2-0.9c0.8-0.1,1.7-0.2,2.5-0.3c0-0.1,0.1-0.1,0.1-0.2
					c0.2-0.4,0.3-0.7,0.5-1c0.3-0.6,0.6-1.3,0.9-2c1-2.2,2.1-4.7,4-6.9c2.9-3.6,7.5-5.5,12.1-5c4.8,0.5,9,3.2,11.3,7.5
					c1,1.8,1.8,3.6,2.6,5.3c0.4,0.8,0.7,1.6,1.1,2.3l0.2,0.4l0.5,0.1c0.9,0.1,1.7,0.3,2.6,0.4c1.9,0.3,3.8,0.5,5.8,0.9
					c4.5,0.9,8.3,4,10.2,8.2c1.9,4.2,1.6,8.8-0.7,12.8c-1.6,2.7-3.9,4.8-5.8,6.4c-0.5,0.5-1,0.9-1.5,1.4c-0.3,0.3-0.6,0.6-0.9,0.9
					c-0.1,0.1-0.2,0.2-0.3,0.3l0.4,2.3c0.3,2,0.7,4,0.9,6c0.6,4.3-0.7,8.6-3.5,11.8c-2.5,2.9-6,4.5-9.8,4.7
					C107.2,137.4,107,137.4,106.9,137.4z M92.6,114.2c3.8,0,6.7,1.7,8.9,2.8l0.8,0.4c0.2,0.1,0.4,0.2,0.7,0.4c0-0.1,0-0.2-0.1-0.3
					c-0.6-3.1-1.6-7.8,0.7-12.3c1.5-2.9,3.8-5,5.8-6.7c-0.3,0-0.6-0.1-0.9-0.1l-0.8-0.1c-2.9-0.4-7.8-1.1-11.2-5.6
					c-1.2-1.6-2-3.5-3-5.7c-0.1-0.2-0.2-0.5-0.3-0.7c0,0.1-0.1,0.2-0.1,0.2c-0.2,0.3-0.3,0.7-0.5,1.1c-1.2,2.5-3,6.2-6.9,8.4
					c-2.9,1.6-6.2,1.9-8.6,2.1c-0.1,0-0.3,0-0.4,0c0.1,0.1,0.1,0.1,0.2,0.2c1.8,1.6,4,3.7,5.4,6.6c2.1,4.3,1.2,8.5,0.6,11.2
					c-0.1,0.4-0.2,0.7-0.2,1.1c0,0.1,0,0.2,0,0.2c0,0,0,0,0,0c1.8-1,4.1-2.3,6.7-3C90.5,114.3,91.6,114.2,92.6,114.2z"/>
			</g>
		</g>
	</g>
	<g>
		<g>
			<path class="st1" d="M129.3,152.7H56.9c-13.9,0-25.2-9.4-25.2-20.9v-67c0-11.5,60-39.8,60-39.8c13.9,0,62.8,28.3,62.8,39.8v67
				C154.5,143.3,143.2,152.7,129.3,152.7z"/>
			<path d="M129.3,155.1H56.9c-15.2,0-27.6-10.4-27.6-23.2v-67c0-3.7,3.2-10.4,31.2-26.2c14.9-8.4,30-15.6,30.2-15.7l0.5-0.2h0.5
				c14.1,0,65.2,28.6,65.2,42.1v67C156.9,144.7,144.5,155.1,129.3,155.1z M92.2,27.5C55.8,44.7,34,60,34,64.9v67
				c0,10.2,10.3,18.5,22.9,18.5h72.4c12.6,0,22.9-8.3,22.9-18.5v-67C152.2,56.3,106.9,28.2,92.2,27.5z"/>
		</g>
		<g>
			<path class="st2" d="M172.4,63l-73.3-52c-1.8-1.3-3.9-1.8-6-1.8c-2.1-0.1-4.2,0.5-6,1.8L13.9,63c-4.4,3.2-5.5,9.4-2.3,13.8
				l0.5,0.7c3.2,4.4,9.4,5.5,13.8,2.3l67.3-47.7l67.3,47.7c4.4,3.2,10.7,2.1,13.8-2.3l0.5-0.7C177.9,72.4,176.8,66.2,172.4,63z"/>
			<path d="M166.1,84.1c-2.5,0-4.9-0.7-7.1-2.3L93.1,35.1L27.2,81.8c-2.7,1.9-5.9,2.6-9.1,2.1c-3.2-0.6-6.1-2.3-7.9-5l-0.5-0.7
				c-1.9-2.7-2.6-5.9-2.1-9.1c0.5-3.2,2.3-6.1,5-7.9l73.3-52c2.1-1.5,4.7-2.3,7.4-2.2c2.6-0.1,5.1,0.7,7.3,2.2l73.3,52v0
				c2.7,1.9,4.4,4.7,5,7.9c0.5,3.2-0.2,6.5-2.1,9.1l-0.5,0.7C173.7,82.3,169.9,84.1,166.1,84.1z M93.1,29.9c0.5,0,1,0.1,1.4,0.4
				L161.7,78c3.4,2.4,8.1,1.6,10.5-1.8l0.5-0.7c1.2-1.6,1.6-3.6,1.3-5.6c-0.3-2-1.4-3.7-3.1-4.9c0,0,0,0,0,0L97.7,13
				c-1.3-0.9-2.9-1.4-4.5-1.3c-1.8,0-3.4,0.4-4.7,1.3l-73.3,52c-1.6,1.2-2.7,2.9-3.1,4.9c-0.3,2,0.1,4,1.3,5.6l0.5,0.7
				c1.2,1.6,2.9,2.7,4.9,3.1c2,0.3,4-0.1,5.6-1.3l67.3-47.7C92.2,30,92.6,29.9,93.1,29.9z"/>
		</g>
	</g>
</g>
<g>
	<path class="st0" d="M108,127.8c-1,0-1.9-0.3-2.8-0.7l-9.8-5.3c-0.8-0.4-1.7-0.7-2.6-0.7c-0.9,0-1.8,0.2-2.6,0.6l-9.9,5.1
		c-0.9,0.5-1.8,0.7-2.8,0.7c-1.8,0-3.5-0.8-4.6-2.2c-1.1-1.4-1.6-3.2-1.3-4.9l2-10.9c0.3-1.8-0.3-3.7-1.6-5l-7.9-7.8
		c-1.6-1.6-2.2-4-1.5-6.2c0.7-2.2,2.6-3.8,4.9-4.1l11-1.5c1.8-0.2,3.4-1.4,4.3-3l5-9.9c1-2.1,3.1-3.3,5.5-3.3c2.3,0,4.4,1.3,5.4,3.4
		l4.8,10c0.8,1.7,2.4,2.8,4.2,3.1l11,1.7c2.3,0.4,4.1,2,4.8,4.2c0.7,2.2,0.1,4.6-1.6,6.2l-8,7.7c-1.3,1.3-2,3.1-1.7,5l1.8,11
		c0.3,1.8-0.2,3.6-1.4,4.9C111.4,127,109.7,127.8,108,127.8C108,127.8,108,127.8,108,127.8z"/>
	<path d="M108,128.9C108,128.9,108,128.9,108,128.9L108,128.9c-1.2,0-2.4-0.3-3.4-0.9l-9.8-5.3c-0.6-0.3-1.3-0.5-2.1-0.5
		c-0.8,0-1.4,0.2-2.1,0.5l-9.9,5.1c-1.1,0.5-2.2,0.8-3.4,0.8c-2.1,0-4.1-1-5.5-2.6c-1.3-1.6-1.9-3.8-1.5-5.9l2-10.9
		c0.3-1.4-0.2-2.9-1.2-4l-7.9-7.8c-2-2-2.6-4.8-1.7-7.4c0.9-2.6,3.1-4.5,5.9-4.8l11-1.5c1.5-0.2,2.7-1.1,3.4-2.4l5-9.9
		c1.2-2.5,3.7-3.9,6.5-4c2.8,0,5.2,1.6,6.4,4.1l4.8,10c0.6,1.3,1.9,2.3,3.3,2.5l11,1.7c2.7,0.4,4.9,2.3,5.8,5
		c0.8,2.6,0.1,5.5-1.9,7.4l-8,7.7c-1.1,1-1.6,2.5-1.3,3.9l1.8,11c0.3,2.1-0.3,4.2-1.6,5.8C112.1,128,110.1,128.9,108,128.9z
		 M108,126.6c1.4,0.1,2.8-0.6,3.8-1.7c0.9-1.1,1.3-2.5,1.1-3.9l-1.8-11c-0.4-2.2,0.4-4.5,2-6l8-7.7c1.4-1.3,1.8-3.2,1.3-5
		c-0.6-1.8-2.1-3.1-3.9-3.4l-11-1.7c-2.2-0.3-4.1-1.8-5.1-3.8l-4.8-10c-0.8-1.7-2.5-2.7-4.3-2.8c0,0,0,0-0.1,0c-1.8,0-3.5,1-4.3,2.7
		l-5,9.9c-1,2-2.9,3.4-5.2,3.7l-11,1.5c-1.9,0.2-3.4,1.5-4,3.3c-0.6,1.8-0.1,3.7,1.2,5l7.9,7.8c1.6,1.6,2.3,3.8,1.9,6l-2,10.9
		c-0.3,1.4,0.1,2.9,1,4c0.9,1.1,2.3,1.8,3.7,1.8c0.8,0,1.6-0.2,2.3-0.5l9.9-5.1c1-0.5,2-0.7,3.2-0.7c1.1,0,2.2,0.3,3.2,0.8l9.8,5.3
		C106.4,126.4,107.2,126.6,108,126.6L108,126.6z"/>
</g>
</svg>
