<svg xmlns="http://www.w3.org/2000/svg" xmlns:xlink="http://www.w3.org/1999/xlink" viewBox="0 0 519 198" xmlns:v="https://vecta.io/nano"><style><![CDATA[.G{fill:#4386c6}.H{enable-background:new}.I{fill:#f7c402}.J{fill:#7dc4ca}.K{stroke-miterlimit:10}.L{stroke-width:3}]]></style><path d="M191.5 24.8h125a12.04 12.04 0 0 1 12 12v143.5a12.04 12.04 0 0 1-12 12h-125a12.04 12.04 0 0 1-12-12V36.8c0-6.7 5.4-12 12-12z" fill="#f8dad4"/><path d="M316.5 190.8H196.6h-5.1c-6.4-.3-10.4-5.1-10.5-11.2s0-12.5 0-18.8V84c0-15.7-.8-31.6 0-47.3.6-11.5 11.4-10.5 19.6-10.5h105.7c7.5 0 18.4-1.6 20.5 8.3 1 4.8.2 10.3.2 15.1v129.5c-.1 6.3-3.8 11.3-10.5 11.7-1.9.1-1.9 3.1 0 3a13.84 13.84 0 0 0 13.5-13.5c.1-1.5 0-3 0-4.5V39.9c0-8.6-3.9-16.2-13.6-16.6-19.5-.9-39.3 0-58.9 0-21.6 0-43.2-.3-64.9 0-8.8.1-14.5 6.1-14.6 14.8v22.3 112.4c0 7.2-.6 14.9 6.7 19.2 5.2 3 13.1 1.9 18.8 1.9h113a1.54 1.54 0 0 0 1.5-1.5c0-1-.7-1.6-1.5-1.6z"/><circle cx="295.5" cy="48.8" r="45" fill="#e66869"/><path d="M339 48.8c-.3 18.3-11.7 35-29.2 41.1-22.7 7.9-47.5-4.1-55.4-26.8-4.2-12.2-2.9-25.6 3.7-36.6C267.7 10.7 286 2.6 304 6.1c20.3 4.1 34.7 22.1 35 42.7 0 1.9 3 1.9 3 0 0-25.7-20.8-46.5-46.5-46.5S249 23.1 249 48.8c0 8.4 2.3 16.6 6.6 23.8 10.1 16.6 29.4 25.3 48.6 21.8 21.9-4.1 37.5-23.7 37.9-45.7-.1-1.9-3.1-1.9-3.1.1z"/><path d="M287.3 77.1c-1.1 0-5.1-.5-6.2-.5-4.7 0-11.1-.6-13.2-3.4-1.5-2-1.7-4.6-1.9-7.1a231.9 231.9 0 0 1 1.8-40.8c0-.8.3-1.6.7-2.3.8-1 1.9-1.6 3.1-1.8 3-.8 6-1.1 9.1-.9 12.9.9 25.7-.3 38.5 1.1 1 0 1.9.3 2.7.8.8.7 1.3 1.7 1.5 2.7 1.8 6.6 2.1 15.9 1.6 22.7-.6 7.8-.4 15.5-1 23.3a8.49 8.49 0 0 1-.9 3.8c-1.4 2-5.7 2.4-8.2 2.4-8.6.1-18.4.4-27.6 0z" class="I"/><path d="M287.3 75.6c-5.6-.4-17 .9-19.3-5.4-1.4-3.7-.7-8.9-.7-12.8 0-4.2.1-8.4.3-12.7.2-4.5.6-9.1 1-13.6.2-1.5.2-5.4.9-6.6 1.5-2.6 6.1-2.7 8.5-2.8 8.5-.3 17.3.4 25.9.4 4 0 9.7-.7 13.5.6 3.1 1 4.7 2.4 5.3 5.4.4 1.9.6 3.8.8 5.7.7 7.8-.1 15.7-.4 23.5-.1 3.8.2 7.9-.4 11.6-.7 3.9-1.6 6.1-5.6 6.5-1.3.1-2.6.1-3.9.1-8.7.2-17.3.4-25.9.1-2-.1-2 2.9 0 3 9.2.3 18.4.2 27.5-.1 4.6-.2 9.4-.7 10.4-5.9.8-3.9.5-8.4.6-12.4.1-4.9.4-9.8.6-14.7.3-6.8.5-15-1.9-21.5-2.2-5.9-10.9-4.6-16.1-4.8l-28.9-.5c-5.3-.1-12.2.2-13.4 6.4-1.8 9.5-2 19.7-2 29.3 0 5.9-1.8 17.1 4 21.1 5 3.5 13.2 2.7 19.1 3.1 2.1.2 2.1-2.8.1-3z"/><path d="M289.3 70.4c-.9 0-3.9-.4-4.8-.4-3.6 0-8.5-.4-10.1-2.6-1.2-1.5-1.3-3.5-1.4-5.5-.5-10.4 0-20.8 1.4-31.2 0-.6.2-1.2.5-1.8a4.18 4.18 0 0 1 2.4-1.4c2.3-.6 4.6-.9 7-.7 9.8.7 19.6-.2 29.4.9.7 0 1.5.2 2.1.6.6.5 1 1.3 1.1 2.1 1.4 5 1.6 12.1 1.2 17.3-.5 5.9-.3 11.8-.8 17.8 0 1-.2 2-.7 2.8-1 1.6-4.4 1.8-6.2 1.8-6.7.3-14.1.6-21.1.3z" class="J"/><path d="M289.3 68.9c-3.5-.2-9.7.5-12.6-1.6-3.2-2.2-2.3-7.8-2.4-11.2s0-6.5.2-9.8l.7-9.7c.4-3.8 0-6.9 4.2-7.9 3.4-.8 7.3-.1 10.7 0 3.6.1 7.2 0 10.8 0 3.2 0 6.7-.3 9.8.3 1 0 2.1.3 2.8 1 1.5.1 2.3.9 2.2 2.3.7 1.4.6 3.6.8 5.1.5 5.8-.1 11.5-.3 17.3-.1 3.1.4 6.8-.4 9.9-1.1 4.7-4.3 4.2-8 4.2-6.2.2-12.3.3-18.5.1-1.9-.1-1.9 2.9 0 3 4.7.1 9.5.1 14.2 0 3.4-.1 7.3.4 10.6-.5 6.6-1.7 4.9-10.3 5-15.7.2-8.1 2-17.8-.9-25.6-2.3-6.2-12.1-4.3-17.4-4.4-4.9 0-9.8 0-14.7-.2-3.4-.1-8-.6-11 1.3-2.2 1.4-2.2 3.5-2.5 5.9-.6 4.8-1 9.7-1.2 14.6-.3 4.9-.3 9.8 0 14.6.2 2.6.4 5.3 2.5 7.1 3.7 3.2 10.7 2.4 15.3 2.8 2 .3 2-2.7.1-2.9z"/><path d="M364,24.8h125c6.6,0,12,5.4,12,12v143.5c0,6.6-5.4,12-12,12H364c-6.6,0-12-5.4-12-12V36.8   C352,30.1,357.4,24.8,364,24.8z" fill="#c2e1e3"/><path d="M489 190.8H369.1 364c-6.4-.3-10.4-5.1-10.5-11.2s0-12.5 0-18.8V84c0-15.7-.8-31.6 0-47.3.6-11.5 11.4-10.5 19.6-10.5h105.7c7.5 0 18.4-1.6 20.5 8.3 1 4.8.2 10.3.2 15.1v129.5c-.1 6.3-3.8 11.3-10.5 11.7-1.9.1-1.9 3.1 0 3a13.84 13.84 0 0 0 13.5-13.5c.1-1.5 0-3 0-4.5V39.9c0-8.6-3.9-16.2-13.6-16.6-19.5-.9-39.3 0-58.9 0-21.6 0-43.2-.3-64.9 0-8.8.1-14.5 6.1-14.6 14.8v22.3 112.4c0 7.2-.6 14.9 6.7 19.2 5.2 3 13.1 1.9 18.8 1.9h113a1.54 1.54 0 0 0 1.5-1.5c0-1-.7-1.6-1.5-1.6z"/><circle cx="468" cy="48.8" r="45" class="J"/><path d="M511.5 48.8c-.3 18.3-11.7 35-29.2 41.1-22.7 7.9-47.5-4.1-55.4-26.8-4.2-12.2-2.9-25.6 3.7-36.6 9.5-15.7 27.8-23.8 45.8-20.3 20.4 4 34.8 22 35.1 42.6 0 1.9 3 1.9 3 0 0-25.7-20.8-46.5-46.5-46.5s-46.5 20.8-46.5 46.5c0 8.4 2.3 16.6 6.6 23.8 10.1 16.6 29.4 25.3 48.6 21.8 21.9-4.1 37.5-23.7 37.9-45.7-.1-1.9-3.1-1.9-3.1.1z"/><path d="M18.5,24.8h125c6.6,0,12,5.4,12,12v143.5c0,6.6-5.4,12-12,12h-125c-6.6,0-12-5.4-12-12V36.8   C6.5,30.1,11.9,24.8,18.5,24.8z" fill="#ffda83"/><path d="M143.5 190.8H23.6h-5.1c-6.4-.3-10.4-5.1-10.5-11.2s0-12.5 0-18.8V84c0-15.7-.8-31.6 0-47.3.6-11.5 11.4-10.5 19.6-10.5h105.7c7.5 0 18.4-1.6 20.5 8.3 1 4.8.2 10.3.2 15.1v129.5c-.1 6.3-3.8 11.3-10.5 11.7-1.9.1-1.9 3.1 0 3a13.84 13.84 0 0 0 13.5-13.5c.1-1.5 0-3 0-4.5V39.9c0-8.6-3.9-16.2-13.6-16.6-19.6-.9-39.3 0-58.9 0-21.6 0-43.2-.3-64.9 0-8.7.1-14.5 6-14.6 14.7v22.3 112.4c0 7.2-.6 14.9 6.7 19.2 5.2 3 13.1 1.9 18.8 1.9h113a1.54 1.54 0 0 0 1.5-1.5 1.47 1.47 0 0 0-1.5-1.5z"/><g class="H"><path d="M24.1 114.6c-.6 0-.8-.3-.8-.9v-7h-2.5c-.5 0-.7-.2-.7-.7s.2-.7.7-.7h6.7c.5 0 .7.2.7.7s-.2.7-.7.7H25v7c-.1.6-.4.9-.9.9zm6.7.1c-.7 0-1.2-.1-1.7-.4s-.9-.7-1.1-1.2c-.3-.5-.4-1.1-.4-1.8s.1-1.3.4-1.8.6-.9 1.1-1.1c.5-.3 1.1-.4 1.7-.4.7 0 1.2.1 1.7.4s.9.7 1.1 1.1a4.36 4.36 0 0 1 .4 1.8c0 .7-.1 1.3-.4 1.8s-.6.9-1.1 1.2c-.5.2-1 .4-1.7.4zm0-1.3c.5 0 .9-.2 1.2-.5.3-.4.4-.9.4-1.6s-.1-1.2-.4-1.6c-.3-.3-.7-.5-1.2-.5s-.9.2-1.2.5-.4.9-.4 1.6.1 1.2.4 1.6c.3.3.7.5 1.2.5zm5.4 1.2c-.5 0-.8-.3-.8-.8v-4.9c0-.5.3-.8.8-.8s.8.3.8.8v.3c.2-.3.5-.6.8-.8s.7-.3 1.2-.3c1 0 1.6.4 1.9 1.2a1.96 1.96 0 0 1 .9-.9c.4-.2.8-.3 1.3-.3 1.4 0 2.1.9 2.1 2.6v3.1c0 .6-.3.8-.8.8s-.8-.3-.8-.8v-3.1c0-.5-.1-.8-.2-1.1-.2-.2-.4-.3-.8-.3a1.53 1.53 0 0 0-1 .4c-.2.3-.4.7-.4 1.2v2.8c0 .6-.3.8-.8.8s-.8-.3-.8-.8v-3.1c0-.5-.1-.8-.2-1.1-.2-.2-.4-.3-.8-.3a1.53 1.53 0 0 0-1 .4c-.2.3-.4.7-.4 1.2v2.8c-.1.7-.4 1-1 1zm12.7.1c-.5 0-.9-.1-1.2-.3s-.6-.4-.8-.7a1.69 1.69 0 0 1-.3-1c0-.5.1-.8.4-1.1.2-.3.6-.5 1.2-.6s1.3-.2 2.2-.2h.5v-.3c0-.4-.1-.7-.3-.9s-.5-.3-1-.3c-.3 0-.5 0-.8.1l-.9.3c-.2.1-.4.1-.5 0s-.2-.2-.3-.4v-.5a.78.78 0 0 1 .4-.4c.4-.2.8-.3 1.2-.4s.7-.1 1-.1c.9 0 1.6.2 2.1.6s.7 1.1.7 2v3.1c0 .6-.3.8-.8.8s-.8-.3-.8-.8v-.3c-.1.4-.4.6-.7.8-.5.4-.9.6-1.3.6zm.3-1.2c.4 0 .8-.1 1.1-.4s.4-.7.4-1.1v-.3h-.4c-.8 0-1.4.1-1.7.2s-.5.4-.5.7.1.5.3.7c.2.1.5.2.8.2zm10.5 1.2c-1.6 0-2.3-.9-2.3-2.6V109c0-.5.3-.8.8-.8s.8.3.8.8v3.2c0 .4.1.8.3 1s.5.3.9.3.8-.2 1.1-.4.4-.7.4-1.2V109c0-.5.3-.8.8-.8s.8.3.8.8v4.9c0 .6-.3.8-.8.8s-.8-.3-.8-.8v-.2c-.4.6-1.1 1-2 1z"/><use xlink:href="#A"/><path d="M74.7 114.7c-.5 0-.9-.1-1.2-.3s-.6-.4-.8-.7a1.69 1.69 0 0 1-.3-1c0-.5.1-.8.4-1.1.2-.3.6-.5 1.2-.6s1.3-.2 2.2-.2h.5v-.3c0-.4-.1-.7-.3-.9s-.5-.3-1-.3c-.3 0-.5 0-.8.1l-.9.3c-.2.1-.4.1-.5 0s-.2-.2-.3-.4v-.5a.78.78 0 0 1 .4-.4c.4-.2.8-.3 1.2-.4s.7-.1 1-.1c.9 0 1.6.2 2.1.6s.7 1.1.7 2v3.1c0 .6-.3.8-.8.8s-.8-.3-.8-.8v-.3c-.1.4-.4.6-.7.8-.5.4-.9.6-1.3.6zm.3-1.2c.4 0 .8-.1 1.1-.4s.4-.7.4-1.1v-.3H76c-.8 0-1.4.1-1.7.2s-.5.4-.5.7.1.5.3.7c.3.1.5.2.9.2zm9.5 1.1c-.5 0-.8-.3-.8-.8v-4.4H83c-.4 0-.6-.2-.6-.6s.2-.6.6-.6h.6 0c0-.9.2-1.6.7-2s1.1-.7 2-.8h.4c.2 0 .4 0 .5.1s.2.2.2.4 0 .3-.1.4-.2.2-.4.2h-.2c-.5 0-.9.2-1.1.4s-.3.5-.3 1v.3h1.1c.4 0 .7.2.7.6s-.2.6-.7.6h-1.1v4.4c0 .5-.3.8-.8.8zm6.2.1c-.7 0-1.2-.1-1.7-.4s-.9-.7-1.1-1.2c-.3-.5-.4-1.1-.4-1.8s.1-1.3.4-1.8.6-.9 1.1-1.1c.5-.3 1.1-.4 1.7-.4.7 0 1.2.1 1.7.4s.9.7 1.1 1.1a4.36 4.36 0 0 1 .4 1.8c0 .7-.1 1.3-.4 1.8s-.6.9-1.1 1.2c-.5.2-1.1.4-1.7.4zm0-1.3c.5 0 .9-.2 1.2-.5.3-.4.4-.9.4-1.6s-.1-1.2-.4-1.6c-.3-.3-.7-.5-1.2-.5s-.9.2-1.2.5-.4.9-.4 1.6.1 1.2.4 1.6c.3.3.7.5 1.2.5zm7.4 1.3c-1.7 0-2.5-.8-2.5-2.5v-2.8h-.7c-.4 0-.6-.2-.6-.6s.2-.6.6-.6h.7V107c0-.5.3-.8.8-.8s.8.3.8.8v1.2h1.4c.4 0 .7.2.7.6s-.2.6-.7.6h-1.4v2.7c0 .4.1.7.3.9s.5.3.9.3h.4c.1 0 .2 0 .3-.1.1 0 .2 0 .3.1s.1.2.1.4 0 .3-.1.5l-.3.3c-.1 0-.3.1-.4.1-.3 0-.5.1-.6.1zm4.9 0c-.7 0-1.2-.1-1.7-.4s-.9-.7-1.1-1.2c-.3-.5-.4-1.1-.4-1.8s.1-1.3.4-1.8.6-.9 1.1-1.1c.5-.3 1.1-.4 1.7-.4s1.2.1 1.7.4.9.7 1.1 1.1a4.36 4.36 0 0 1 .4 1.8c0 .7-.1 1.3-.4 1.8s-.6.9-1.1 1.2c-.5.2-1 .4-1.7.4zm0-1.3c.5 0 .9-.2 1.2-.5s.4-.9.4-1.6-.1-1.2-.4-1.6-.7-.5-1.2-.5-.9.2-1.2.5-.4.9-.4 1.6.1 1.2.4 1.6.7.5 1.2.5z"/><use xlink:href="#B"/><path d="M122.9 114.6c-.5 0-.8-.3-.8-.8v-7.7c0-.5.3-.8.8-.8s.8.3.8.8v3a2.36 2.36 0 0 1 .9-.8c.4-.2.8-.3 1.2-.3 1.5 0 2.2.9 2.2 2.6v3.1c0 .6-.3.8-.8.8s-.8-.3-.8-.8v-3.1c0-.5-.1-.9-.3-1.1s-.5-.3-.9-.3c-.5 0-.9.2-1.1.4s-.4.7-.4 1.2v2.8c.1.7-.2 1-.8 1zm8.9.1c-.5 0-.9-.1-1.2-.3s-.6-.4-.8-.7a1.69 1.69 0 0 1-.3-1c0-.5.1-.8.4-1.1.2-.3.6-.5 1.2-.6s1.3-.2 2.2-.2h.5v-.3c0-.4-.1-.7-.3-.9s-.5-.3-1-.3c-.3 0-.5 0-.8.1l-.9.3c-.2.1-.4.1-.5 0s-.2-.2-.3-.4v-.5a.78.78 0 0 1 .4-.4c.4-.2.8-.3 1.2-.4s.7-.1 1-.1c.9 0 1.6.2 2.1.6s.7 1.1.7 2v3.1c0 .6-.3.8-.8.8s-.8-.3-.8-.8v-.3c-.1.4-.4.6-.7.8-.4.4-.8.6-1.3.6zm.4-1.2c.4 0 .8-.1 1.1-.4s.4-.7.4-1.1v-.3h-.4c-.8 0-1.4.1-1.7.2s-.5.4-.5.7.1.5.3.7c.1.1.4.2.8.2zm5 1c-.2 0-.4-.1-.5-.2s-.2-.3-.1-.5c0-.2.1-.4.3-.6l3.1-3.8h-2.8c-.4 0-.6-.2-.6-.6s.2-.6.6-.6h3.8c.3 0 .5.1.6.2s.2.3.2.5-.1.4-.3.6l-3.1 3.9h2.9c.4 0 .6.2.6.6s-.2.6-.6.6h-4.1z"/><use xlink:href="#C"/><use xlink:href="#D"/><use xlink:href="#E"/><use xlink:href="#F"/><use xlink:href="#G"/><path d="M62.2 130.2c-.7 0-1.3-.1-1.9-.4-.5-.3-.9-.6-1.2-1.1s-.4-1.1-.4-1.8.1-1.2.4-1.7.7-.9 1.1-1.2 1-.4 1.6-.4c.9 0 1.6.3 2.1.9s.8 1.4.8 2.3c0 .3-.2.5-.6.5h-3.9c.1 1.1.8 1.7 1.9 1.7.2 0 .5 0 .8-.1l.8-.3c.2-.1.4-.2.6-.1.2 0 .3.1.3.3.1.1.1.3 0 .5 0 .2-.2.3-.4.4-.3.2-.7.3-1 .4s-.7.1-1 .1zm-.2-5.5c-.5 0-.9.1-1.2.4s-.5.7-.5 1.2h3.2c0-.5-.2-.9-.4-1.2-.3-.2-.7-.4-1.1-.4z"/><use xlink:href="#H"/><path d="M80.1 130.2c-.7 0-1.2-.1-1.7-.4s-.9-.7-1.1-1.2c-.3-.5-.4-1.1-.4-1.8s.1-1.3.4-1.7c.3-.5.6-.9 1.1-1.1.5-.3 1.1-.4 1.7-.4.3 0 .6 0 .9.1s.6.2.9.4c.2.1.3.2.3.4s0 .3-.1.5-.2.2-.3.3-.3 0-.5-.1c-.4-.2-.8-.3-1.2-.3-.6 0-1 .2-1.3.5-.3.4-.5.9-.5 1.5s.2 1.1.5 1.5.7.6 1.3.6c.4 0 .8-.1 1.2-.3.2-.1.3-.1.5-.1l.3.3c.1.1.1.3 0 .5 0 .2-.1.3-.3.4-.3.2-.6.3-.9.4s-.6 0-.8 0zm5.9 0c-.7 0-1.2-.1-1.7-.4s-.9-.7-1.1-1.2c-.3-.5-.4-1.1-.4-1.8s.1-1.3.4-1.8.6-.9 1.1-1.1 1.1-.4 1.7-.4c.7 0 1.2.1 1.7.4s.9.7 1.1 1.1c.3.5.4 1.1.4 1.8s-.1 1.3-.4 1.8-.6.9-1.1 1.2c-.4.3-1 .4-1.7.4zm0-1.2c.5 0 .9-.2 1.2-.5.3-.4.4-.9.4-1.6s-.1-1.2-.4-1.6c-.3-.3-.7-.5-1.2-.5s-.9.2-1.2.5-.4.9-.4 1.6.1 1.2.4 1.6c.4.3.7.5 1.2.5z"/><use xlink:href="#I"/><path d="M99 130.2c-1.7 0-2.5-.8-2.5-2.5V125h-.7c-.4 0-.6-.2-.6-.6s.2-.6.6-.6h.7v-1.2c0-.5.3-.8.8-.8s.8.3.8.8v1.2h1.4c.4 0 .7.2.7.6s-.2.6-.7.6h-1.4v2.7c0 .4.1.7.3.9s.5.3.9.3h.4c.1 0 .2 0 .3-.1.1 0 .2 0 .3.1s.1.2.1.4 0 .3-.1.5l-.3.3c-.1 0-.3.1-.4.1H99z"/><use xlink:href="#H" x="34.9"/><path d="M114.5 130.2c-.6 0-1-.1-1.5-.4-.4-.3-.7-.7-1-1.2-.2-.5-.4-1.1-.4-1.8s.1-1.3.4-1.8a2.17 2.17 0 0 1 1-1.1c.4-.3.9-.4 1.5-.4.5 0 .9.1 1.2.3.4.2.6.5.8.8v-3.1c0-.5.3-.8.8-.8s.8.3.8.8v7.7c0 .6-.3.8-.8.8s-.8-.3-.8-.8v-.3c-.2.3-.5.6-.8.8a1.58 1.58 0 0 1-1.2.5zm.4-1.2c.5 0 .9-.2 1.2-.5.3-.4.4-.9.4-1.6s-.1-1.2-.4-1.6c-.3-.3-.7-.5-1.2-.5s-.9.2-1.2.5-.4.9-.4 1.6.1 1.2.4 1.6c.3.3.7.5 1.2.5zm8 1.2c-.7 0-1.3-.1-1.9-.4-.5-.3-.9-.6-1.2-1.1s-.4-1.1-.4-1.8.1-1.2.4-1.7.7-.9 1.1-1.2 1-.4 1.6-.4c.9 0 1.6.3 2.1.9s.8 1.4.8 2.3c0 .3-.2.5-.6.5H121c.1 1.1.8 1.7 1.9 1.7.2 0 .5 0 .8-.1l.8-.3c.2-.1.4-.2.6-.1.2 0 .3.1.3.3.1.1.1.3 0 .5 0 .2-.2.3-.4.4-.3.2-.7.3-1 .4s-.7.1-1.1.1zm-.2-5.5c-.5 0-.9.1-1.2.4s-.5.7-.5 1.2h3.2c0-.5-.2-.9-.4-1.2-.3-.2-.6-.4-1.1-.4zm10.6 5.5c-1.7 0-2.5-.8-2.5-2.5V125h-.7c-.4 0-.6-.2-.6-.6s.2-.6.6-.6h.7v-1.2c0-.5.3-.8.8-.8s.8.3.8.8v1.2h1.4c.4 0 .7.2.7.6s-.2.6-.7.6h-1.4v2.7c0 .4.1.7.3.9s.5.3.9.3h.4c.1 0 .2 0 .3-.1.1 0 .2 0 .3.1s.1.2.1.4 0 .3-.1.5l-.3.3c-.1 0-.3.1-.4.1h-.6z"/><use xlink:href="#J"/><path d="M25.1 148.2c-.5 0-.8-.3-.8-.8v-7.3c0-.5.3-.8.8-.8s.8.3.8.8v.3c.2-.3.5-.6.8-.8.4-.2.8-.3 1.2-.3.6 0 1 .1 1.5.4.4.3.7.6 1 1.1s.4 1.1.4 1.8-.1 1.3-.4 1.8c-.2.5-.6.9-1 1.2s-.9.4-1.5.4c-.5 0-.9-.1-1.2-.3-.4-.2-.6-.5-.8-.8v2.6c0 .4-.3.7-.8.7zm2.4-3.6c.5 0 .9-.2 1.2-.5.3-.4.4-.9.4-1.6s-.1-1.2-.4-1.6c-.3-.3-.7-.5-1.2-.5s-.9.2-1.2.5-.4.9-.4 1.6.1 1.2.4 1.6c.3.3.7.5 1.2.5z"/><use xlink:href="#K"/><use xlink:href="#L"/><path d="M46 148.2c-.3 0-.5-.1-.6-.3s-.1-.5 0-.7l.7-1.6-2.2-5.1a1.1 1.1 0 0 1 0-.8c.1-.2.4-.3.7-.3.2 0 .4 0 .5.1s.2.3.3.5l1.6 3.9 1.6-3.9c.1-.2.2-.4.3-.5s.3-.1.5-.1c.3 0 .5.1.6.3s.1.5 0 .7l-3.2 7.2c-.1.2-.2.4-.4.5 0 0-.1.1-.4.1zm8.3-2.4c-.7 0-1.3-.1-1.9-.4-.5-.3-.9-.6-1.2-1.1s-.4-1.1-.4-1.8.1-1.2.4-1.7.7-.9 1.1-1.2 1-.4 1.6-.4c.9 0 1.6.3 2.1.9s.8 1.4.8 2.3c0 .3-.2.5-.6.5h-3.9c.1 1.1.8 1.7 1.9 1.7.2 0 .5 0 .8-.1l.8-.3c.2-.1.4-.2.6-.1.2 0 .3.1.3.3.1.1.1.3 0 .5 0 .2-.2.3-.4.4-.3.2-.7.3-1 .4s-.7.1-1 .1zm-.3-5.5c-.5 0-.9.1-1.2.4s-.5.7-.5 1.2h3.2c0-.5-.2-.9-.4-1.2-.2-.2-.6-.4-1.1-.4z"/><use xlink:href="#M"/><path d="M67.3 145.8c-1.7 0-2.5-.8-2.5-2.5v-2.8h-.7c-.4 0-.6-.2-.6-.6s.2-.6.6-.6h.7v-1.2c0-.5.3-.8.8-.8s.8.3.8.8v1.2h1.4c.4 0 .7.2.7.6s-.2.6-.7.6h-1.4v2.7c0 .4.1.7.3.9s.5.3.9.3h.4c.1 0 .2 0 .3-.1.1 0 .2 0 .3.1s.1.2.1.4 0 .3-.1.5l-.3.3c-.1 0-.3.1-.4.1-.3.1-.5.1-.6.1z"/><use xlink:href="#L" x="32.2"/><use xlink:href="#N"/><path d="M84.1 141.2c-.3 0-.5-.1-.7-.3s-.3-.4-.3-.7.1-.5.3-.7.4-.3.7-.3.5.1.7.3.3.4.3.7-.1.5-.3.7-.4.3-.7.3zm0 7c-.3 0-.6-.1-.7-.3s-.2-.5-.2-.8l.4-4.5c0-.4.2-.6.5-.6s.5.2.5.6l.4 4.5c0 .3 0 .6-.2.8s-.4.3-.7.3zm10.2-1c.1.2.2.4.1.6a.78.78 0 0 1-.4.4c-.2.1-.4.1-.6.1s-.4-.2-.5-.4l-.9-1.4c-.2-.4-.7-.6-1.2-.6-.9 0-1.7-.2-2.3-.6-.7-.4-1.2-.9-1.5-1.6-.4-.7-.5-1.5-.5-2.5s.2-1.8.5-2.5a4.63 4.63 0 0 1 1.5-1.6 4.38 4.38 0 0 1 2.3-.6c.9 0 1.7.2 2.3.6.7.4 1.2.9 1.5 1.6.4.7.5 1.5.5 2.5s-.2 1.9-.6 2.7c-.4.7-1 1.3-1.8 1.6.2.1.4.2.5.3.2.1.3.3.4.6l.7.8zm-3.5-2.8c.8 0 1.5-.3 2-.9s.7-1.4.7-2.4-.2-1.8-.7-2.4-1.1-.9-2-.9c-.8 0-1.5.3-2 .9s-.7 1.4-.7 2.4.2 1.8.7 2.4 1.1.9 2 .9z"/><use xlink:href="#J" x="-38.7" y="15.6"/><path d="M107.4 145.8c-.7 0-1.3-.1-1.9-.4-.5-.3-.9-.6-1.2-1.1s-.4-1.1-.4-1.8.1-1.2.4-1.7.7-.9 1.1-1.2 1-.4 1.6-.4c.9 0 1.6.3 2.1.9s.8 1.4.8 2.3c0 .3-.2.5-.6.5h-3.9c.1 1.1.8 1.7 1.9 1.7.2 0 .5 0 .8-.1l.8-.3c.2-.1.4-.2.6-.1.2 0 .3.1.3.3.1.1.1.3 0 .5 0 .2-.2.3-.4.4-.3.2-.7.3-1 .4s-.7.1-1 .1zm-.3-5.5c-.5 0-.9.1-1.2.4s-.5.7-.5 1.2h3.2c0-.5-.2-.9-.4-1.2-.3-.2-.6-.4-1.1-.4z"/><use xlink:href="#O"/><use xlink:href="#P"/><use xlink:href="#Q"/><use xlink:href="#H" x="66.6" y="15.6"/><path d="M27.6 161.5c-.4 0-.8 0-1.2-.1s-.8-.2-1.1-.4c-.2-.1-.3-.2-.3-.4v-.4l.3-.3c.1-.1.3 0 .5 0a1.93 1.93 0 0 0 1 .3c.3.1.6.1.9.1.4 0 .7-.1.9-.2s.3-.3.3-.6c0-.4-.3-.6-.8-.7l-1.3-.2c-1.1-.2-1.7-.8-1.7-1.7 0-.4.1-.8.3-1.1s.5-.5 1-.7c.4-.2.9-.2 1.4-.2.8 0 1.4.2 2 .5.2.1.3.2.3.4s0 .3-.1.4l-.3.3c-.1.1-.3 0-.5 0l-.8-.3c-.3-.1-.4-.2-.6-.2-.4 0-.7.1-.9.2s-.3.3-.3.6c0 .4.2.6.7.7l1.3.2c.6.1 1 .3 1.3.6s.4.6.4 1.1c0 .6-.2 1.1-.7 1.5s-1.2.6-2 .6zm7.2 0c-.7 0-1.3-.1-1.9-.4-.5-.3-.9-.6-1.2-1.1s-.4-1.1-.4-1.8.1-1.2.4-1.7.7-.9 1.1-1.2 1-.4 1.6-.4c.9 0 1.6.3 2.1.9s.8 1.4.8 2.3c0 .3-.2.5-.6.5h-3.9c.1 1.1.8 1.7 1.9 1.7.2 0 .5 0 .8-.1l.8-.3c.2-.1.4-.2.6-.1.2 0 .3.1.3.3.1.1.1.3 0 .5 0 .2-.2.3-.4.4-.3.2-.7.3-1 .4-.3 0-.7.1-1 .1zm-.3-5.6c-.5 0-.9.1-1.2.4s-.5.7-.5 1.2H36c0-.5-.2-.9-.4-1.2-.3-.2-.6-.4-1.1-.4z"/><use xlink:href="#E" x="1.1" y="31.2"/><path d="M52.1 161.5c-.7 0-1.3-.1-1.9-.4-.5-.3-.9-.6-1.2-1.1s-.4-1.1-.4-1.8.1-1.2.4-1.7.7-.9 1.1-1.2 1-.4 1.6-.4c.9 0 1.6.3 2.1.9s.8 1.4.8 2.3c0 .3-.2.5-.6.5h-3.9c.1 1.1.8 1.7 1.9 1.7.2 0 .5 0 .8-.1l.8-.3c.2-.1.4-.2.6-.1.2 0 .3.1.3.3.1.1.1.3 0 .5 0 .2-.2.3-.4.4-.3.2-.7.3-1 .4-.3 0-.7.1-1 .1zm-.3-5.6c-.5 0-.9.1-1.2.4s-.5.7-.5 1.2h3.2c0-.5-.2-.9-.4-1.2-.3-.2-.6-.4-1.1-.4zm6.3 5.6c-.5 0-.9-.1-1.2-.3a1.85 1.85 0 0 1-.8-.7 1.69 1.69 0 0 1-.3-1c0-.5.1-.8.4-1.1.2-.3.6-.5 1.2-.6s1.3-.2 2.2-.2h.5v-.3c0-.4-.1-.7-.3-.9s-.5-.3-1-.3c-.3 0-.5 0-.8.1l-.9.3c-.2.1-.4.1-.5 0s-.2-.2-.3-.4v-.5c0-.2.2-.3.4-.4.4-.2.8-.3 1.2-.4s.7-.1 1-.1c.9 0 1.6.2 2.1.6s.7 1.1.7 2v3.1c0 .6-.3.8-.8.8s-.8-.3-.8-.8v-.3c-.1.4-.4.6-.7.8-.5.4-.9.6-1.3.6zm.3-1.2c.4 0 .8-.1 1.1-.4s.4-.7.4-1.1v-.3h-.4c-.8 0-1.4.1-1.7.2s-.5.4-.5.7.1.5.3.7c.2.1.4.2.8.2z"/><use xlink:href="#D" x="33.1" y="31.2"/><path d="M77.1 161.5c-1.7 0-2.5-.8-2.5-2.5v-2.8h-.7c-.4 0-.6-.2-.6-.6s.2-.6.6-.6h.7v-1.2c0-.5.3-.8.8-.8s.8.3.8.8v1.2h1.4c.4 0 .7.2.7.6s-.2.6-.7.6h-1.4v2.7c0 .4.1.7.3.9s.5.3.9.3h.4c.1 0 .2 0 .3-.1.1 0 .2 0 .3.1s.1.2.1.4 0 .3-.1.5l-.3.3c-.1 0-.3.1-.4.1-.3 0-.4.1-.6.1zm4.4 0c-1.6 0-2.3-.9-2.3-2.6v-3.1c0-.5.3-.8.8-.8s.8.3.8.8v3.2c0 .5.1.8.3 1s.5.3.9.3.8-.2 1.1-.4.4-.7.4-1.2v-2.9c0-.5.3-.8.8-.8s.8.3.8.8v4.9c0 .6-.3.8-.8.8s-.8-.3-.8-.8v-.2c-.5.6-1.1 1-2 1z"/><use xlink:href="#O" x="-28.1" y="15.7"/><path d="M97.4 161.4c-.5 0-.8-.3-.8-.8v-4.9c0-.5.3-.8.8-.8s.8.3.8.8v.3c.2-.3.5-.6.8-.8s.7-.3 1.2-.3c1 0 1.6.4 1.9 1.2a1.96 1.96 0 0 1 .9-.9c.4-.2.8-.3 1.3-.3 1.4 0 2.1.9 2.1 2.6v3.1c0 .6-.3.8-.8.8s-.8-.3-.8-.8v-3.1c0-.5-.1-.8-.2-1.1-.2-.2-.4-.3-.8-.3s-.8.1-1 .4-.4.7-.4 1.2v2.8c0 .6-.3.8-.8.8s-.8-.3-.8-.8v-3.1c0-.5-.1-.8-.2-1.1-.2-.2-.4-.3-.8-.3s-.8.1-1 .4-.4.7-.4 1.2v2.8c-.2.7-.4 1-1 1zm12.7.1c-.5 0-.9-.1-1.2-.3a1.85 1.85 0 0 1-.8-.7 1.69 1.69 0 0 1-.3-1c0-.5.1-.8.4-1.1.2-.3.6-.5 1.2-.6s1.3-.2 2.2-.2h.5v-.3c0-.4-.1-.7-.3-.9s-.5-.3-1-.3c-.3 0-.5 0-.8.1l-.9.3c-.2.1-.4.1-.5 0s-.2-.2-.3-.4v-.5c0-.2.2-.3.4-.4.4-.2.8-.3 1.2-.4s.7-.1 1-.1c.9 0 1.6.2 2.1.6s.7 1.1.7 2v3.1c0 .6-.3.8-.8.8s-.8-.3-.8-.8v-.3c-.1.4-.4.6-.7.8-.5.4-.9.6-1.3.6zm.3-1.2c.4 0 .8-.1 1.1-.4s.4-.7.4-1.1v-.3h-.4c-.8 0-1.4.1-1.7.2s-.5.4-.5.7.1.5.3.7c.2.1.5.2.8.2zm5.5 1.1c-.5 0-.8-.3-.8-.8v-4.9c0-.5.3-.8.8-.8s.8.3.8.8v.3c.2-.4.5-.6.9-.8s.8-.3 1.2-.3c1.5 0 2.2.9 2.2 2.6v3.1c0 .6-.3.8-.8.8s-.8-.3-.8-.8v-3.1c0-.5-.1-.9-.3-1.1s-.5-.3-.9-.3c-.5 0-.9.1-1.1.4-.3.3-.4.7-.4 1.2v2.8c0 .6-.2.9-.8.9zm9.7.1c-.7 0-1.2-.1-1.7-.4s-.9-.7-1.1-1.2c-.3-.5-.4-1.1-.4-1.8s.1-1.3.4-1.8.6-.9 1.1-1.1 1.1-.4 1.7-.4c.7 0 1.2.1 1.7.4s.9.7 1.1 1.1c.3.5.4 1.1.4 1.8s-.1 1.3-.4 1.8-.6.9-1.1 1.2c-.5.2-1 .4-1.7.4zm0-1.3c.5 0 .9-.2 1.2-.5.3-.4.4-.9.4-1.6s-.1-1.2-.4-1.6c-.3-.3-.7-.5-1.2-.5s-.9.2-1.2.5-.4.9-.4 1.6.1 1.2.4 1.6c.3.3.7.5 1.2.5z"/><use xlink:href="#R"/><use xlink:href="#S"/><path d="M49.4 177c-.5 0-.8-.3-.8-.8v-7.7c0-.3.1-.5.2-.6s.3-.2.5-.2.3 0 .4.1l.4.4 4.6 6v-5.7c0-.5.3-.8.8-.8s.8.3.8.8v7.8c0 .2-.1.4-.2.6-.1.1-.3.2-.5.2s-.4 0-.5-.1l-.4-.4-4.6-6v5.7c.1.5-.1.7-.7.7zm13.1 0c-.9 0-1.7-.2-2.3-.6s-1.2-.9-1.5-1.6c-.4-.7-.5-1.5-.5-2.5s.2-1.8.5-2.5a4.63 4.63 0 0 1 1.5-1.6 4.38 4.38 0 0 1 2.3-.6c.9 0 1.7.2 2.3.6.7.4 1.2.9 1.5 1.6.4.7.5 1.5.5 2.5s-.2 1.8-.5 2.5c-.4.7-.9 1.3-1.5 1.6s-1.4.6-2.3.6zm0-1.4c.8 0 1.5-.3 2-.9s.7-1.4.7-2.4-.2-1.8-.7-2.4-1.1-.9-2-.9c-.8 0-1.5.3-2 .9s-.7 1.4-.7 2.4.2 1.8.7 2.4 1.2.9 2 .9zm12.4 1.4c-1.7 0-2.5-.8-2.5-2.5v-2.8h-.7c-.4 0-.6-.2-.6-.6s.2-.6.6-.6h.7v-1.2c0-.5.3-.8.8-.8s.8.3.8.8v1.2h1.4c.4 0 .7.2.7.6s-.2.6-.7.6H74v2.7c0 .4.1.7.3.9s.5.3.9.3h.4c.1 0 .2 0 .3-.1.1 0 .2 0 .3.1s.1.2.1.4 0 .3-.1.5l-.3.3c-.1 0-.3.1-.4.1-.3.1-.5.1-.6.1z"/><use xlink:href="#C" x="54.5" y="46.8"/><use xlink:href="#M" x="29.8" y="31.2"/><path d="M96.2 177c-.5 0-.9-.1-1.2-.3a1.85 1.85 0 0 1-.8-.7 1.69 1.69 0 0 1-.3-1c0-.5.1-.8.4-1.1.2-.3.6-.5 1.2-.6s1.3-.2 2.2-.2h.3v-.3c0-.4-.1-.7-.3-.9s-.5-.3-1-.3c-.3 0-.5 0-.8.1l-.9.3c-.2.1-.4.1-.5 0s-.2-.2-.3-.4v-.5c0-.2.2-.3.4-.4.4-.2.8-.3 1.2-.4s.7-.1 1-.1c.9 0 1.6.2 2.1.6s.7 1.1.7 2v3.1c0 .6-.3.8-.8.8s-.8-.3-.8-.8v-.3c-.1.4-.4.6-.7.8-.3.5-.7.6-1.1.6zm.3-1.1c.4 0 .8-.1 1.1-.4s.4-.7.4-1.1v-.3h-.4c-.8 0-1.4.1-1.7.2s-.5.4-.5.7.1.5.3.7c.2.1.5.2.8.2z"/><use xlink:href="#I" x="10.6" y="46.8"/><use xlink:href="#T"/><path d="M114.1 177c-.3 0-.5-.1-.7-.3s-.3-.4-.3-.7.1-.5.3-.7.4-.3.7-.3.5.1.7.3.3.4.3.7-.1.5-.3.7-.4.3-.7.3zm0-2.7c-.3 0-.5-.2-.5-.6l-.4-5c0-.3 0-.6.2-.8s.4-.3.7-.3.5.1.7.3.2.5.2.8l-.4 5c0 .4-.2.6-.5.6z"/></g><circle cx="122.5" cy="48.8" r="45" class="I"/><path d="M166 48.8c-.3 18.3-11.7 35-29.2 41.1-22.7 7.9-47.5-4.1-55.4-26.8-4.2-12.2-2.9-25.6 3.7-36.6C94.7 10.7 113 2.6 131 6.1c20.3 4.1 34.7 22.1 35 42.7 0 1.9 3 1.9 3 0 0-25.7-20.8-46.5-46.5-46.5S76 23.1 76 48.8c0 8.4 2.3 16.6 6.6 23.8 10.1 16.6 29.4 25.3 48.6 21.8 21.9-4.1 37.5-23.7 37.9-45.7-.1-1.9-3.1-1.9-3.1.1z"/><g class="H"><path d="M207.8 121.6c-.6 0-.8-.3-.8-.9v-7.6c0-.6.3-.8.8-.8h3.1c1 0 1.8.3 2.3.8s.8 1.2.8 2.1-.3 1.6-.8 2.1-1.3.8-2.3.8h-2.3v2.7c.1.5-.2.8-.8.8zm.9-4.8h2.1c1.2 0 1.8-.5 1.8-1.6 0-1-.6-1.5-1.8-1.5h-2.1v3.1zm9.2 4.9c-.7 0-1.2-.1-1.7-.4s-.9-.7-1.1-1.2c-.3-.5-.4-1.1-.4-1.8s.1-1.3.4-1.8.6-.9 1.1-1.1c.5-.3 1.1-.4 1.7-.4s1.2.1 1.7.4.9.7 1.1 1.1a4.36 4.36 0 0 1 .4 1.8c0 .7-.1 1.3-.4 1.8s-.6.9-1.1 1.2c-.5.2-1.1.4-1.7.4zm0-1.3c.5 0 .9-.2 1.2-.5s.4-.9.4-1.6-.1-1.2-.4-1.6-.7-.5-1.2-.5-.9.2-1.2.5-.4.9-.4 1.6.1 1.2.4 1.6.7.5 1.2.5z"/><use xlink:href="#A" x="157.5" y="7"/><use xlink:href="#U"/><path d="M240.9 121.7c-1.6 0-2.3-.9-2.3-2.6V116c0-.5.3-.8.8-.8s.8.3.8.8v3.2c0 .4.1.8.3 1s.5.3.9.3.8-.2 1.1-.4.4-.7.4-1.2V116c0-.5.3-.8.8-.8s.8.3.8.8v4.9c0 .6-.3.8-.8.8s-.8-.3-.8-.8v-.2c-.5.6-1.1 1-2 1zm9.5 2.3c-.5 0-.8-.3-.8-.8v-7.3c0-.5.3-.8.8-.8s.8.3.8.8v.3c.2-.3.5-.6.8-.8.4-.2.8-.3 1.2-.3.6 0 1 .1 1.5.4.4.3.7.6 1 1.1.2.5.4 1.1.4 1.8s-.1 1.3-.4 1.8c-.2.5-.6.9-1 1.2s-.9.4-1.5.4c-.5 0-.9-.1-1.2-.3-.4-.2-.6-.5-.8-.8v2.6c.1.4-.2.7-.8.7zm2.5-3.6c.5 0 .9-.2 1.2-.5s.4-.9.4-1.6-.1-1.2-.4-1.6-.7-.5-1.2-.5-.9.2-1.2.5-.4.9-.4 1.6.1 1.2.4 1.6.7.5 1.2.5zm5.4 1.2c-.6 0-.8-.3-.8-.8v-4.9c0-.5.3-.8.8-.8s.8.3.8.8v.4c.3-.7 1-1.2 2-1.2.4 0 .6.2.6.6 0 .5-.2.7-.7.8h-.3c-1.1.1-1.6.7-1.6 1.6v2.7c0 .5-.3.8-.8.8z"/><use xlink:href="#B" x="151.3" y="7"/><path d="M271.4 124c-.3 0-.5-.1-.6-.3s-.1-.5 0-.7l.7-1.6-2.2-5.1a1.1 1.1 0 0 1 0-.8c.1-.2.4-.3.7-.3.2 0 .4 0 .5.1s.2.3.3.5l1.6 3.9 1.6-3.9c.1-.2.2-.4.3-.5s.3-.1.5-.1c.3 0 .5.1.6.3s.1.5 0 .7l-3.2 7.2c-.1.2-.2.4-.4.5s-.2.1-.4.1zm8.2-2.3c-.7 0-1.3-.1-1.9-.4-.5-.3-.9-.6-1.2-1.1s-.4-1.1-.4-1.8.1-1.2.4-1.7.7-.9 1.1-1.2c.5-.3 1-.4 1.6-.4.9 0 1.6.3 2.1.9s.8 1.4.8 2.3c0 .3-.2.5-.6.5h-3.9c.1 1.1.8 1.7 2 1.7.2 0 .5 0 .8-.1l.8-.3c.2-.1.4-.2.6-.1.2 0 .3.1.3.3.1.1.1.3 0 .5 0 .2-.2.3-.4.4-.3.2-.7.3-1 .4s-.7.1-1.1.1zm-.2-5.6c-.5 0-.9.1-1.2.4s-.5.7-.5 1.2h3.2c0-.5-.2-.9-.4-1.2s-.6-.4-1.1-.4zm7.1 5.6c-.7 0-1.2-.1-1.7-.4s-.9-.7-1.1-1.2c-.3-.5-.4-1.1-.4-1.8s.1-1.3.4-1.7.7-.9 1.1-1.1 1.1-.4 1.7-.4c.3 0 .6 0 .9.1s.6.2.9.4c.2.1.3.2.3.4s0 .3-.1.5l-.3.3c-.1.1-.3 0-.5-.1-.4-.2-.8-.3-1.2-.3-.6 0-1 .2-1.3.5s-.5.9-.5 1.5.2 1.1.5 1.5.7.6 1.3.6c.4 0 .8-.1 1.2-.3.2-.1.3-.1.5-.1l.3.3c.1.1.1.3 0 .5 0 .2-.1.3-.3.4-.3.2-.6.3-.9.4-.2-.1-.5 0-.8 0z"/><use xlink:href="#U" x="56.1"/><path d="M297.5 121.7c-.7 0-1.2-.1-1.7-.4s-.9-.7-1.1-1.2c-.3-.5-.4-1.1-.4-1.8s.1-1.3.4-1.8.6-.9 1.1-1.1c.5-.3 1.1-.4 1.7-.4.7 0 1.2.1 1.7.4s.9.7 1.1 1.1a4.36 4.36 0 0 1 .4 1.8c0 .7-.1 1.3-.4 1.8s-.6.9-1.1 1.2c-.4.2-1 .4-1.7.4zm0-1.3c.5 0 .9-.2 1.2-.5.3-.4.4-.9.4-1.6s-.1-1.2-.4-1.6c-.3-.3-.7-.5-1.2-.5s-.9.2-1.2.5-.4.9-.4 1.6.1 1.2.4 1.6c.4.3.7.5 1.2.5z"/><use xlink:href="#V"/><use xlink:href="#Q" x="90.6" y="-8.6"/><use xlink:href="#W"/><use xlink:href="#T" x="124.8" y="-39.8"/><use xlink:href="#G" x="186.9" y="7"/><use xlink:href="#L" x="208.9" y="-8.6"/><use xlink:href="#G" x="205.7" y="7"/><path d="M267.9 137.2c-.7 0-1.3-.1-1.9-.4-.5-.3-.9-.6-1.2-1.1s-.4-1.1-.4-1.8.1-1.2.4-1.7.7-.9 1.1-1.2c.5-.3 1-.4 1.6-.4.9 0 1.6.3 2.1.9s.8 1.4.8 2.3c0 .3-.2.5-.6.5H266c.1 1.1.8 1.7 2 1.7.2 0 .5 0 .8-.1l.8-.3c.2-.1.4-.2.6-.1s.3.1.3.3c.1.1.1.3 0 .5 0 .2-.2.3-.4.4-.3.2-.7.3-1 .4-.5.1-.9.1-1.2.1zm-.2-5.5c-.5 0-.9.1-1.2.4s-.5.7-.5 1.2h3.2c0-.5-.2-.9-.4-1.2-.3-.2-.7-.4-1.1-.4z"/><use xlink:href="#C" x="252.9" y="7"/><use xlink:href="#D" x="252.9" y="7"/><path d="M292.6 137.2c-.5 0-.9-.1-1.2-.3a1.85 1.85 0 0 1-.8-.7 1.69 1.69 0 0 1-.3-1c0-.5.1-.8.4-1.1.2-.3.6-.5 1.2-.6s1.3-.2 2.2-.2h.5v-.3c0-.4-.1-.7-.3-.9s-.5-.3-1-.3c-.3 0-.5 0-.8.1l-.9.3c-.2.1-.4.1-.5 0a1.38 1.38 0 0 1-.3-.4v-.5c0-.2.2-.3.4-.4.4-.2.8-.3 1.2-.4s.7-.1 1-.1c.9 0 1.6.2 2.1.6s.7 1.1.7 2v3.1c0 .6-.3.8-.8.8s-.8-.3-.8-.8v-.3c-.1.4-.4.6-.7.8-.5.5-.9.6-1.3.6zm.3-1.1c.4 0 .8-.1 1.1-.4s.4-.7.4-1.1v-.3h-.4c-.8 0-1.4.1-1.7.2s-.5.4-.5.7.1.5.3.7c.2.1.4.2.8.2zm-96.2 16.7a1.04 1.04 0 0 1-1-.7l-2.1-4.8a1.1 1.1 0 0 1 0-.8c.1-.2.4-.3.7-.3.2 0 .4 0 .5.1s.2.3.3.5l1.6 3.9 1.6-3.9c.1-.2.2-.4.3-.5s.3-.1.5-.1c.3 0 .5.1.6.3s.1.5 0 .7l-2.1 4.8c-.1.6-.4.8-.9.8zm7.3 0c-.7 0-1.3-.1-1.9-.4-.5-.3-.9-.6-1.2-1.1s-.4-1.1-.4-1.8.1-1.2.4-1.7.7-.9 1.1-1.2 1-.4 1.6-.4c.9 0 1.6.3 2.1.9s.8 1.4.8 2.3c0 .3-.2.5-.6.5H202c.1 1.1.8 1.7 1.9 1.7.2 0 .5 0 .8-.1l.8-.3c.2-.1.4-.2.6-.1.2 0 .3.1.3.3.1.1.1.3 0 .5 0 .2-.2.3-.4.4-.3.2-.7.3-1 .4s-.6.1-1 .1zm-.2-5.5c-.5 0-.9.1-1.2.4s-.5.7-.5 1.2h3.2c0-.5-.2-.9-.4-1.2-.3-.2-.7-.4-1.1-.4z"/><use xlink:href="#X"/><use xlink:href="#Y"/><path d="M222.6 152.8c-.5 0-.9-.1-1.2-.3a1.85 1.85 0 0 1-.8-.7 1.69 1.69 0 0 1-.3-1c0-.5.1-.8.4-1.1.2-.3.6-.5 1.2-.6s1.3-.2 2.2-.2h.5v-.3c0-.4-.1-.7-.3-.9s-.5-.3-1-.3c-.3 0-.5 0-.8.1l-.9.3c-.2.1-.4.1-.5 0a1.38 1.38 0 0 1-.3-.4v-.5c0-.2.2-.3.4-.4.4-.2.8-.3 1.2-.4s.7-.1 1-.1c.9 0 1.6.2 2.1.6s.7 1.1.7 2v3.1c0 .6-.3.8-.8.8s-.8-.3-.8-.8v-.3c-.1.4-.4.6-.7.8-.5.5-.8.6-1.3.6zm.4-1.1c.4 0 .8-.1 1.1-.4s.4-.7.4-1.1v-.3h-.5c-.8 0-1.4.1-1.7.2s-.5.4-.5.7.1.5.3.7c.2.1.5.2.9.2z"/><use xlink:href="#X" x="19.7"/><path d="M237.3 152.8c-.5 0-.9-.1-1.2-.3a1.85 1.85 0 0 1-.8-.7 1.69 1.69 0 0 1-.3-1c0-.5.1-.8.4-1.1.2-.3.6-.5 1.2-.6s1.3-.2 2.2-.2h.5v-.3c0-.4-.1-.7-.3-.9s-.5-.3-1-.3c-.3 0-.5 0-.8.1l-.9.3c-.2.1-.4.1-.5 0a1.38 1.38 0 0 1-.3-.4v-.5c0-.2.2-.3.4-.4.4-.2.8-.3 1.2-.4s.7-.1 1-.1c.9 0 1.6.2 2.1.6s.7 1.1.7 2v3.1c0 .6-.3.8-.8.8s-.8-.3-.8-.8v-.3c-.1.4-.4.6-.7.8-.4.5-.8.6-1.3.6zm.4-1.1c.4 0 .8-.1 1.1-.4s.4-.7.4-1.1v-.3h-.4c-.8 0-1.4.1-1.7.2s-.5.4-.5.7.1.5.3.7c.1.1.4.2.8.2z"/><use xlink:href="#S" x="105.8" y="-8.6"/><use xlink:href="#V" x="37" y="15.6"/><use xlink:href="#O" x="141.4" y="7"/><path d="M263.4 152.8c-.3 0-.5-.1-.6-.2-.1-.2-.2-.4-.2-.7v-4.8c0-.6.3-.9.8-.9s.8.3.8.9v4.8c0 .3-.1.5-.2.7-.2.1-.4.2-.6.2zm.6-7.4c-.1.1-.2.2-.3.2s-.2 0-.4-.1c-.1-.1-.2-.1-.2-.3v-.4l1-1.9c.1-.2.2-.3.4-.3a.9.9 0 0 1 .5.1c.2.1.3.2.3.4s0 .3-.1.5l-1.2 1.8zm8.3 7.4c-1.7 0-2.5-.8-2.5-2.5v-2.8h-.7c-.4 0-.7-.2-.7-.6s.2-.6.7-.6h.7v-1.2c0-.5.3-.8.8-.8s.8.3.8.8v1.2h1.4c.4 0 .7.2.7.6s-.2.6-.7.6h-1.4v2.7c0 .4.1.7.3.9s.5.3.9.3h.4c.1 0 .2 0 .3-.1.1 0 .2 0 .3.1s.1.2.1.4 0 .3-.1.5l-.3.3c-.1 0-.3.1-.4.1-.3.1-.5.1-.6.1zm5.2 0c-.7 0-1.3-.1-1.9-.4-.5-.3-.9-.6-1.2-1.1s-.4-1.1-.4-1.8.1-1.2.4-1.7.7-.9 1.1-1.2c.5-.3 1-.4 1.6-.4.9 0 1.6.3 2.1.9s.8 1.4.8 2.3c0 .3-.2.5-.6.5h-3.9c.1 1.1.8 1.7 1.9 1.7.2 0 .5 0 .8-.1l.8-.3c.2-.1.4-.2.6-.1.2 0 .3.1.3.3s.1.3 0 .5c0 .2-.2.3-.4.4-.3.2-.7.3-1 .4s-.7.1-1 .1zm-.3-5.5c-.5 0-.9.1-1.2.4s-.5.7-.5 1.2h3.2c0-.5-.2-.9-.4-1.2-.3-.2-.6-.4-1.1-.4z"/><use xlink:href="#Z"/><use xlink:href="#a"/><use xlink:href="#K" x="264.7" y="7"/><path d="M304 152.8c-.5 0-.9-.1-1.2-.3a1.85 1.85 0 0 1-.8-.7 1.69 1.69 0 0 1-.3-1c0-.5.1-.8.4-1.1.2-.3.6-.5 1.2-.6s1.3-.2 2.2-.2h.5v-.3c0-.4-.1-.7-.3-.9s-.5-.3-1-.3c-.3 0-.5 0-.8.1l-.9.3c-.2.1-.4.1-.5 0a1.38 1.38 0 0 1-.3-.4c-.1-.2 0-.3 0-.5a.78.78 0 0 1 .4-.4c.4-.2.8-.3 1.2-.4s.7-.1 1-.1c.9 0 1.6.2 2.1.6s.7 1.1.7 2v3.1c0 .6-.3.8-.8.8s-.8-.3-.8-.8v-.3c-.1.4-.4.6-.7.8-.5.5-.9.6-1.3.6zm.3-1.1c.4 0 .8-.1 1.1-.4s.4-.7.4-1.1v-.3h-.4c-.8 0-1.4.1-1.7.2s-.5.4-.5.7.1.5.3.7c.2.1.4.2.8.2zm1-6.3c-.1.1-.2.2-.3.2s-.2 0-.4-.1-.2-.1-.2-.3v-.4l1-1.9c.1-.2.2-.3.4-.3a.9.9 0 0 1 .5.1c.2.1.3.2.3.4s0 .3-.1.5l-1.2 1.8z"/><use xlink:href="#R" x="178.8" y="-8.7"/><path d="M201.7 168.5c-1.6 0-2.3-.9-2.3-2.6v-3.1c0-.5.3-.8.8-.8s.8.3.8.8v3.2c0 .5.1.8.3 1s.5.3.9.3.8-.2 1.1-.4.4-.7.4-1.2v-2.9c0-.5.3-.8.8-.8s.8.3.8.8v4.9c0 .6-.3.8-.8.8s-.8-.3-.8-.8v-.2c-.5.6-1.2 1-2 1z"/><use xlink:href="#D" x="176.9" y="38.2"/><path d="M216.6 168.5c-.5 0-.9-.1-1.2-.3a1.85 1.85 0 0 1-.8-.7 1.69 1.69 0 0 1-.3-1c0-.5.1-.8.4-1.1.2-.3.6-.5 1.2-.6s1.3-.2 2.2-.2h.5v-.3c0-.4-.1-.7-.3-.9s-.5-.3-1-.3c-.3 0-.5 0-.8.1l-.9.3c-.2.1-.4.1-.5 0s-.2-.2-.3-.4 0-.3 0-.5a.78.78 0 0 1 .4-.4c.4-.2.8-.3 1.2-.4s.7-.1 1-.1c.9 0 1.6.2 2.1.6s.7 1.1.7 2v3.1c0 .6-.3.8-.8.8s-.8-.3-.8-.8v-.3c-.1.4-.4.6-.7.8-.5.4-.9.6-1.3.6zm.3-1.2c.4 0 .8-.1 1.1-.4s.4-.7.4-1.1v-.3h-.4c-.8 0-1.4.1-1.7.2s-.5.4-.5.7.1.5.3.7c.2.1.5.2.8.2zm9-6.6c-.3 0-.5-.1-.7-.2-.2-.2-.3-.4-.3-.6 0-.3.1-.5.3-.6s.4-.2.7-.2c.6 0 1 .3 1 .9 0 .4-.3.7-1 .7zm0 7.7c-.3 0-.5-.1-.6-.2-.1-.2-.2-.4-.2-.7v-4.8c0-.6.3-.9.8-.9s.8.3.8.9v4.8c0 .3-.1.5-.2.7-.1.1-.3.2-.6.2zm3.4 0c-.5 0-.8-.3-.8-.8v-4.9c0-.5.3-.8.8-.8s.8.3.8.8v.3c.2-.3.5-.6.8-.8s.7-.3 1.2-.3c1 0 1.6.4 1.9 1.2a1.96 1.96 0 0 1 .9-.9c.4-.2.8-.3 1.3-.3 1.4 0 2.1.9 2.1 2.6v3.1c0 .6-.3.8-.8.8s-.8-.3-.8-.8v-3.1c0-.5-.1-.8-.2-1.1s-.4-.3-.8-.3-.8.1-1 .4-.4.7-.4 1.2v2.8c0 .6-.3.8-.8.8s-.8-.3-.8-.8v-3.1c0-.5-.1-.8-.2-1.1s-.4-.3-.8-.3-.8.1-1 .4-.4.7-.4 1.2v2.8c-.2.7-.5 1-1 1zm12.6.1c-.5 0-.9-.1-1.2-.3a1.85 1.85 0 0 1-.8-.7 1.69 1.69 0 0 1-.3-1c0-.5.1-.8.4-1.1.2-.3.6-.5 1.2-.6s1.3-.2 2.2-.2h.5v-.3c0-.4-.1-.7-.3-.9s-.5-.3-1-.3c-.3 0-.5 0-.8.1l-.9.3c-.2.1-.4.1-.5 0s-.2-.2-.3-.4 0-.3 0-.5a.78.78 0 0 1 .4-.4c.4-.2.8-.3 1.2-.4s.7-.1 1-.1c.9 0 1.6.2 2.1.6s.7 1.1.7 2v3.1c0 .6-.3.8-.8.8s-.8-.3-.8-.8v-.3c-.1.4-.4.6-.7.8-.4.4-.8.6-1.3.6zm.4-1.2c.4 0 .8-.1 1.1-.4s.4-.7.4-1.1v-.3h-.4c-.8 0-1.4.1-1.7.2s-.5.4-.5.7.1.5.3.7c.1.1.4.2.8.2zm7.6 3.5c-.5 0-.9 0-1.4-.1-.4-.1-.8-.2-1.2-.4a.78.78 0 0 1-.4-.4v-.5c0-.2.2-.3.3-.3.1-.1.3-.1.5 0 .4.2.7.3 1.1.4.3.1.6.1.9.1 1.2 0 1.7-.6 1.7-1.7v-.9c-.2.4-.5.6-.8.8s-.8.3-1.3.3c-.6 0-1.1-.1-1.5-.4s-.8-.6-1-1.1-.4-1-.4-1.7.1-1.2.4-1.7c.2-.5.6-.8 1-1.1s.9-.4 1.5-.4c.5 0 .9.1 1.2.3.4.2.6.5.8.8v-.3c0-.3.1-.5.2-.6s.3-.2.6-.2c.5 0 .8.3.8.8v5c0 1-.3 1.8-.8 2.3-.4.7-1.1 1-2.2 1zm0-3.9c.5 0 .9-.2 1.2-.5s.4-.8.4-1.4-.1-1.1-.4-1.4-.7-.5-1.2-.5-.9.2-1.2.5-.4.8-.4 1.4.1 1.1.4 1.4.7.5 1.2.5zm8 1.6c-.7 0-1.3-.1-1.9-.4-.5-.3-.9-.6-1.2-1.1s-.4-1.1-.4-1.8.1-1.2.4-1.7.7-.9 1.1-1.2c.5-.3 1-.4 1.6-.4.9 0 1.6.3 2.1.9s.8 1.4.8 2.3c0 .3-.2.5-.6.5H256c.1 1.1.8 1.7 1.9 1.7.2 0 .5 0 .8-.1l.8-.3c.2-.1.4-.2.6-.1.2 0 .3.1.3.3s.1.3 0 .5c0 .2-.2.3-.4.4-.3.2-.7.3-1 .4-.4 0-.7.1-1.1.1zm-.2-5.6c-.5 0-.9.1-1.2.4s-.5.7-.5 1.2h3.2c0-.5-.2-.9-.4-1.2-.3-.2-.6-.4-1.1-.4z"/><use xlink:href="#Z" x="-19.5" y="15.6"/><use xlink:href="#Z" x="-8.4" y="15.6"/><path d="M281.4 168.4c-.3 0-.5-.1-.6-.2-.1-.2-.2-.4-.2-.7v-4.8c0-.6.3-.9.8-.9s.8.3.8.9v4.8c0 .3-.1.5-.2.7-.1.1-.3.2-.6.2zm.6-7.4c-.1.1-.2.2-.3.2s-.2 0-.4-.1-.2-.1-.2-.3v-.4l1-1.9c.1-.2.2-.3.4-.3a.9.9 0 0 1 .5.1c.2.1.3.2.3.4s0 .3-.1.5L282 161zm4.8 7.5c-1.7 0-2.5-.8-2.5-2.5v-2.8h-.7c-.4 0-.7-.2-.7-.6s.2-.6.7-.6h.7v-1.2c0-.5.3-.8.8-.8s.8.3.8.8v1.2h1.4c.4 0 .7.2.7.6s-.2.6-.7.6h-1.4v2.7c0 .4.1.7.3.9s.5.3.9.3h.4c.1 0 .2 0 .3-.1.1 0 .2 0 .3.1s.1.2.1.4 0 .3-.1.5l-.3.3c-.1 0-.3.1-.4.1-.3 0-.5.1-.6.1z"/><use xlink:href="#F" x="241.1" y="38.2"/><path d="M294.8 168.5c-.6 0-1-.1-1.5-.4-.4-.3-.7-.7-1-1.2-.2-.5-.4-1.1-.4-1.8s.1-1.3.4-1.8.6-.9 1-1.1.9-.4 1.5-.4c.5 0 .9.1 1.2.3.4.2.6.5.8.8v-3.1c0-.5.3-.8.8-.8s.8.3.8.8v7.7c0 .6-.3.8-.8.8s-.8-.3-.8-.8v-.3c-.2.3-.5.6-.8.8-.3.3-.7.5-1.2.5zm.5-1.3c.5 0 .9-.2 1.2-.5.3-.4.4-.9.4-1.6s-.1-1.2-.4-1.6c-.3-.3-.7-.5-1.2-.5s-.9.2-1.2.5-.4.9-.4 1.6.1 1.2.4 1.6c.3.3.7.5 1.2.5zm7 1.3c-.5 0-.9-.1-1.2-.3a1.85 1.85 0 0 1-.8-.7 1.69 1.69 0 0 1-.3-1c0-.5.1-.8.4-1.1.2-.3.6-.5 1.2-.6s1.3-.2 2.2-.2h.5v-.3c0-.4-.1-.7-.3-.9s-.5-.3-1-.3c-.3 0-.5 0-.8.1l-.9.3c-.2.1-.4.1-.5 0a1.38 1.38 0 0 1-.3-.4c-.1-.2 0-.3 0-.5a.78.78 0 0 1 .4-.4c.4-.2.8-.3 1.2-.4s.7-.1 1-.1c.9 0 1.6.2 2.1.6s.7 1.1.7 2v3.1c0 .6-.3.8-.8.8s-.8-.3-.8-.8v-.3c-.1.4-.4.6-.7.8-.5.4-.9.6-1.3.6zm.3-1.2c.4 0 .8-.1 1.1-.4s.4-.7.4-1.1v-.3h-.4c-.8 0-1.4.1-1.7.2s-.5.4-.5.7.1.5.3.7c.2.1.4.2.8.2z"/><use xlink:href="#N" x="230.8" y="22.6"/><path d="M381 124.3c-.6 0-1.1-.1-1.7-.2s-1-.3-1.4-.6c-.2-.1-.3-.3-.4-.5v-.5a.78.78 0 0 1 .4-.4c.2-.1.3 0 .6.1.4.2.8.4 1.2.5s.9.2 1.3.2c.7 0 1.2-.1 1.5-.3s.5-.5.5-.9c0-.3-.1-.5-.3-.7s-.6-.3-1.1-.4l-1.4-.3c-1.6-.3-2.4-1.2-2.4-2.5 0-.6.2-1.1.5-1.5s.7-.8 1.3-1 1.2-.4 1.9-.4c.5 0 1 .1 1.5.2s.9.3 1.3.6c.2.1.3.3.3.4s0 .3-.1.5-.2.3-.4.3-.4 0-.6-.1c-.3-.2-.6-.3-1-.4s-.7-.1-1.1-.1c-.6 0-1.1.1-1.4.4s-.5.6-.5 1c0 .3.1.6.3.7.2.2.6.3 1.1.4l1.4.3c.9.2 1.5.5 1.9.9s.6.9.6 1.6c0 .5-.1 1-.4 1.4s-.7.7-1.3 1c-.7.2-1.4.3-2.1.3zm7.2 0c-1.6 0-2.3-.9-2.3-2.6v-3.1c0-.5.3-.8.8-.8s.8.3.8.8v3.2c0 .4.1.8.3 1s.5.3.9.3.8-.2 1.1-.4.4-.7.4-1.2v-2.9c0-.5.3-.8.8-.8s.8.3.8.8v4.9c0 .6-.3.8-.8.8s-.8-.3-.8-.8v-.2c-.5.7-1.1 1-2 1zm8.9 0c-.5 0-.9-.1-1.2-.3-.4-.2-.6-.5-.8-.8v.3c0 .6-.3.8-.8.8s-.8-.3-.8-.8v-7.7c0-.5.3-.8.8-.8s.8.3.8.8v3c.2-.3.5-.6.8-.8.4-.2.8-.3 1.2-.3.6 0 1.1.1 1.5.4s.7.6 1 1.1c.2.5.4 1.1.4 1.8s-.1 1.3-.4 1.8c-.2.5-.6.9-1 1.2-.5.2-1 .3-1.5.3zm-.5-1.2c.5 0 .9-.2 1.2-.5s.4-.9.4-1.6-.1-1.2-.4-1.6-.7-.5-1.2-.5-.9.2-1.2.5-.4.9-.4 1.6.1 1.2.4 1.6.8.5 1.2.5zm7.8 1.2c-.7 0-1.3-.1-1.9-.4-.5-.3-.9-.6-1.2-1.1s-.4-1.1-.4-1.8.1-1.2.4-1.7.7-.9 1.1-1.2c.5-.3 1-.4 1.6-.4.9 0 1.6.3 2.1.9s.8 1.4.8 2.3c0 .3-.2.5-.6.5h-3.9c.1 1.1.8 1.7 2 1.7.2 0 .5 0 .8-.1l.8-.3c.2-.1.4-.2.6-.1.2 0 .3.1.3.3.1.1.1.3 0 .5 0 .2-.2.3-.4.4-.3.2-.7.3-1 .4s-.8.1-1.1.1zm-.3-5.5c-.5 0-.9.1-1.2.4s-.5.7-.5 1.2h3.2c0-.5-.2-.9-.4-1.2s-.6-.4-1.1-.4z"/><use xlink:href="#W" x="184.9" y="-12.9"/><path d="M418 124.3c-.5 0-.9-.1-1.2-.3s-.6-.4-.8-.7a1.69 1.69 0 0 1-.3-1c0-.5.1-.8.4-1.1.2-.3.6-.5 1.2-.6s1.3-.2 2.2-.2h.5v-.3c0-.4-.1-.7-.3-.9s-.5-.3-1-.3c-.3 0-.5 0-.8.1l-.9.3c-.2.1-.4.1-.5 0a1.38 1.38 0 0 1-.3-.4v-.5a.78.78 0 0 1 .4-.4c.4-.2.8-.3 1.2-.4s.7-.1 1-.1c.9 0 1.6.2 2.1.6s.7 1.1.7 2v3.1c0 .6-.3.8-.8.8s-.8-.3-.8-.8v-.3c-.1.4-.4.6-.7.8-.4.5-.8.6-1.3.6zm.4-1.1c.4 0 .8-.1 1.1-.4s.4-.7.4-1.1v-.3h-.4c-.8 0-1.4.1-1.7.2s-.5.4-.5.7.1.5.3.7c.1.1.4.2.8.2zm9.4 1.1c-.5 0-.8-.3-.8-.8v-4.4h-.6c-.4 0-.7-.2-.7-.6s.2-.6.7-.6h.6 0c0-.9.2-1.6.7-2s1.1-.7 1.9-.8h.4c.2 0 .4 0 .5.1s.2.2.2.4 0 .3-.1.4-.2.2-.4.2h-.2c-.5 0-.9.2-1.1.4s-.3.5-.3 1v.3h1.1c.4 0 .6.2.6.6s-.2.6-.6.6h-1.1v4.4c0 .5-.2.8-.8.8zm6.2 0c-.7 0-1.2-.1-1.7-.4s-.9-.7-1.1-1.2c-.3-.5-.4-1.1-.4-1.8s.1-1.3.4-1.8.6-.9 1.1-1.1c.5-.3 1.1-.4 1.7-.4s1.2.1 1.7.4.9.7 1.1 1.1a4.36 4.36 0 0 1 .4 1.8c0 .7-.1 1.3-.4 1.8s-.6.9-1.1 1.2c-.4.3-1 .4-1.7.4zm0-1.2c.5 0 .9-.2 1.2-.5s.4-.9.4-1.6-.1-1.2-.4-1.6-.7-.5-1.2-.5-.9.2-1.2.5-.4.9-.4 1.6.1 1.2.4 1.6.8.5 1.2.5zm7.5 1.2c-1.7 0-2.5-.8-2.5-2.5V119h-.7c-.4 0-.6-.2-.6-.6s.2-.6.6-.6h.7v-1.2c0-.5.3-.8.8-.8s.8.3.8.8v1.2h1.4c.4 0 .7.2.7.6s-.2.6-.7.6h-1.4v2.7c0 .4.1.7.3.9s.5.3.9.3h.4c.1 0 .2 0 .3-.1.1 0 .2 0 .3.1s.1.2.1.4 0 .3-.1.5l-.3.3c-.1 0-.3.1-.4.1-.3.1-.5.1-.6.1zm4.9 0c-.7 0-1.2-.1-1.7-.4s-.9-.7-1.1-1.2c-.3-.5-.4-1.1-.4-1.8s.1-1.3.4-1.8.6-.9 1.1-1.1c.5-.3 1.1-.4 1.7-.4.7 0 1.2.1 1.7.4s.9.7 1.1 1.1a4.36 4.36 0 0 1 .4 1.8c0 .7-.1 1.3-.4 1.8s-.6.9-1.1 1.2-1.1.4-1.7.4zm0-1.2c.5 0 .9-.2 1.2-.5.3-.4.4-.9.4-1.6s-.1-1.2-.4-1.6c-.3-.3-.7-.5-1.2-.5s-.9.2-1.2.5-.4.9-.4 1.6.1 1.2.4 1.6c.3.3.7.5 1.2.5zm11 1.2c-.7 0-1.2-.1-1.7-.4s-.9-.7-1.1-1.2c-.3-.5-.4-1.1-.4-1.8s.1-1.3.4-1.8.6-.9 1.1-1.1c.5-.3 1.1-.4 1.7-.4.7 0 1.2.1 1.7.4s.9.7 1.1 1.1a4.36 4.36 0 0 1 .4 1.8c0 .7-.1 1.3-.4 1.8s-.6.9-1.1 1.2-1 .4-1.7.4zm0-1.2c.5 0 .9-.2 1.2-.5.3-.4.4-.9.4-1.6s-.1-1.2-.4-1.6c-.3-.3-.7-.5-1.2-.5s-.9.2-1.2.5-.4.9-.4 1.6.1 1.2.4 1.6c.3.3.7.5 1.2.5zm11.2 1.2c-.7 0-1.3-.1-1.9-.4-.5-.3-.9-.6-1.2-1.1s-.4-1.1-.4-1.8.1-1.2.4-1.7.7-.9 1.1-1.2c.5-.3 1-.4 1.6-.4.9 0 1.6.3 2.1.9s.8 1.4.8 2.3c0 .3-.2.5-.6.5h-3.9c.1 1.1.8 1.7 2 1.7.2 0 .5 0 .8-.1l.8-.3c.2-.1.4-.2.6-.1.2 0 .3.1.3.3.1.1.1.3 0 .5 0 .2-.2.3-.4.4-.3.2-.7.3-1 .4s-.7.1-1.1.1zm-.2-5.5c-.5 0-.9.1-1.2.4s-.5.7-.5 1.2h3.2c0-.5-.2-.9-.4-1.2s-.6-.4-1.1-.4z"/><use xlink:href="#Q" x="343.9" y="-21.5"/><path d="M378.4 139.9a1.04 1.04 0 0 1-1-.7l-2.1-4.8a1.1 1.1 0 0 1 0-.8c.1-.3.4-.3.7-.3.2 0 .4 0 .5.1s.2.3.3.5l1.6 3.9 1.6-3.9c.1-.2.2-.4.3-.5s.3-.1.5-.1c.3 0 .5.1.6.3s.1.5 0 .7l-2.1 4.8c-.1.6-.5.8-.9.8zm5.1-7.8c-.3 0-.5-.1-.7-.2-.2-.2-.3-.4-.3-.6 0-.3.1-.5.3-.6s.4-.2.7-.2c.6 0 1 .3 1 .9-.1.4-.4.7-1 .7zm0 7.8c-.3 0-.5-.1-.6-.2-.1-.2-.2-.4-.2-.7v-4.8c0-.6.3-.9.8-.9s.8.3.8.9v4.8c0 .3-.1.5-.2.7-.2.1-.4.2-.6.2zm4.9 0c-.6 0-1-.1-1.5-.4-.4-.3-.7-.7-1-1.2-.2-.5-.4-1.1-.4-1.8s.1-1.3.4-1.8.6-.9 1-1.1c.4-.3.9-.4 1.5-.4.5 0 .9.1 1.2.3.4.2.6.5.8.8v-3.1c0-.5.3-.8.8-.8s.8.3.8.8v7.7c0 .6-.3.8-.8.8s-.8-.3-.8-.8v-.3c-.2.3-.5.6-.8.8-.3.4-.7.5-1.2.5zm.5-1.2c.5 0 .9-.2 1.2-.5.3-.4.4-.9.4-1.6s-.1-1.2-.4-1.6c-.3-.3-.7-.5-1.2-.5s-.9.2-1.2.5-.4.9-.4 1.6.1 1.2.4 1.6c.3.3.7.5 1.2.5zm8 1.2c-.7 0-1.3-.1-1.9-.4-.5-.3-.9-.6-1.2-1.1s-.4-1.1-.4-1.8.1-1.2.4-1.7.7-.9 1.1-1.2c.5-.3 1-.4 1.6-.4.9 0 1.6.3 2.1.9s.8 1.4.8 2.3c0 .3-.2.5-.6.5H395c.1 1.1.8 1.7 1.9 1.7.2 0 .5 0 .8-.1l.8-.3c.2-.1.4-.2.6-.1.2 0 .3.1.3.3.1.1.1.3 0 .5 0 .2-.2.3-.4.4-.3.2-.7.3-1 .4-.4.1-.8.1-1.1.1zm-.2-5.5c-.5 0-.9.1-1.2.4s-.5.7-.5 1.2h3.2c0-.5-.2-.9-.4-1.2-.3-.3-.7-.4-1.1-.4z"/><use xlink:href="#b"/><path d="M412.7 139.9c-.5 0-.8-.3-.8-.8v-4.9c0-.5.3-.8.8-.8s.8.3.8.8v.3c.2-.3.5-.6.8-.8s.7-.3 1.2-.3c1 0 1.6.4 1.9 1.2a1.96 1.96 0 0 1 .9-.9c.4-.2.8-.3 1.3-.3 1.4 0 2.1.9 2.1 2.6v3.1c0 .6-.3.8-.8.8s-.8-.3-.8-.8V136c0-.5-.1-.8-.2-1.1s-.4-.3-.8-.3-.8.1-1 .4-.4.7-.4 1.2v2.8c0 .6-.3.8-.8.8s-.8-.3-.8-.8v-3c0-.5-.1-.8-.2-1.1s-.4-.3-.8-.3-.8.1-1 .4-.4.7-.4 1.2v2.8c-.2.6-.5.9-1 .9zm12.6 0c-.5 0-.9-.1-1.2-.3a1.85 1.85 0 0 1-.8-.7 1.69 1.69 0 0 1-.3-1c0-.5.1-.8.4-1.1.2-.3.6-.5 1.2-.6s1.3-.2 2.2-.2h.5v-.3c0-.4-.1-.7-.3-.9s-.5-.3-1-.3c-.3 0-.5 0-.8.1l-.9.3c-.2.1-.4.1-.5 0a1.38 1.38 0 0 1-.3-.4v-.5c0-.2.2-.3.4-.4.4-.2.8-.3 1.2-.4s.7-.1 1-.1c.9 0 1.6.2 2.1.6s.7 1.1.7 2v3.1c0 .6-.3.8-.8.8s-.8-.3-.8-.8v-.3c-.1.4-.4.6-.7.8-.5.5-.8.6-1.3.6zm.4-1.1c.4 0 .8-.1 1.1-.4s.4-.7.4-1.1v-.3h-.4c-.8 0-1.4.1-1.7.2s-.5.4-.5.7.1.5.3.7c.1.1.4.2.8.2zm.9-6.3c-.1.1-.2.2-.3.2s-.2 0-.3-.1-.2-.1-.2-.3v-.4l1-1.9c.1-.2.2-.3.4-.3a.9.9 0 0 1 .5.1c.2.1.3.2.3.4s0 .3-.1.5l-1.3 1.8zm6.1 7.4c-.4 0-.8 0-1.2-.1s-.8-.2-1.1-.4c-.2-.1-.3-.2-.3-.4v-.4l.3-.3c.1-.1.3 0 .5 0a1.93 1.93 0 0 0 1 .3c.3.1.6.1.9.1.4 0 .7-.1.9-.2s.3-.3.3-.6c0-.4-.3-.6-.8-.7l-1.3-.2c-1.1-.2-1.7-.8-1.7-1.7 0-.4.1-.8.3-1.1s.5-.5 1-.7c.4-.2.9-.2 1.4-.2.8 0 1.4.2 2 .5.2.1.3.2.3.4s0 .3-.1.4l-.3.3c-.1.1-.3 0-.5 0l-.8-.3c-.2-.1-.5-.1-.7-.1-.4 0-.7.1-.9.2s-.3.3-.3.6c0 .4.2.6.7.7l1.3.2c.6.1 1 .3 1.3.6s.4.6.4 1.1c0 .6-.2 1.1-.7 1.5s-1.1.5-1.9.5zm11.2 0c-.5 0-.9-.1-1.2-.3-.4-.2-.6-.5-.8-.8v.3c0 .6-.3.8-.8.8s-.8-.3-.8-.8v-7.7c0-.5.3-.8.8-.8s.8.3.8.8v3c.2-.3.5-.6.8-.8.4-.2.8-.3 1.2-.3.6 0 1.1.1 1.5.4s.7.6 1 1.1.4 1.1.4 1.8-.1 1.3-.4 1.8c-.2.5-.6.9-1 1.2-.5.2-1 .3-1.5.3zm-.5-1.2c.5 0 .9-.2 1.2-.5.3-.4.4-.9.4-1.6s-.1-1.2-.4-1.6c-.3-.3-.7-.5-1.2-.5s-.9.2-1.2.5-.4.9-.4 1.6.1 1.2.4 1.6c.3.3.7.5 1.2.5z"/><use xlink:href="#b" x="47.2"/><path d="M456.3 139.9c-.5 0-.8-.3-.8-.8v-4.9c0-.5.3-.8.8-.8s.8.3.8.8v.3c.2-.4.5-.6.9-.8s.8-.3 1.2-.3c1.5 0 2.2.9 2.2 2.6v3.1c0 .6-.3.8-.8.8s-.8-.3-.8-.8V136c0-.5-.1-.9-.3-1.1s-.5-.3-.9-.3c-.5 0-.9.1-1.1.4s-.4.7-.4 1.2v2.8c0 .6-.3.9-.8.9zm7.6-7.8c-.3 0-.5-.1-.7-.2-.2-.2-.3-.4-.3-.6 0-.3.1-.5.3-.6s.4-.2.7-.2c.6 0 1 .3 1 .9 0 .4-.4.7-1 .7zm0 7.8c-.3 0-.5-.1-.6-.2-.1-.2-.2-.4-.2-.7v-4.8c0-.6.3-.9.8-.9s.8.3.8.9v4.8c0 .3-.1.5-.2.7-.1.1-.3.2-.6.2z"/><use xlink:href="#Y" x="250.9" y="-12.9"/><use xlink:href="#P" x="350.2" y="-5.9"/><path d="M390 157.8c-.3 0-.5-.1-.6-.3s-.1-.5 0-.7l.7-1.6-2.2-5.1a1.1 1.1 0 0 1 0-.8c.1-.3.4-.3.7-.3.2 0 .4 0 .5.1s.2.3.3.5l1.6 3.9 1.6-3.9c.1-.2.2-.4.3-.5s.3-.1.5-.1c.3 0 .5.1.6.3s.1.5 0 .7l-3.2 7.2c-.1.2-.2.4-.4.5 0 .1-.2.1-.4.1z"/><use xlink:href="#a" x="109.8" y="2.7"/><path d="M408.7 155.5c-.5 0-.9-.1-1.2-.3s-.6-.4-.8-.7a1.69 1.69 0 0 1-.3-1c0-.5.1-.8.4-1.1.2-.3.6-.5 1.2-.6s1.3-.2 2.2-.2h.5v-.3c0-.4-.1-.7-.3-.9s-.5-.3-1-.3c-.3 0-.5 0-.8.1l-.9.3c-.2.1-.4.1-.5 0a1.38 1.38 0 0 1-.3-.4v-.5a.78.78 0 0 1 .4-.4c.4-.2.8-.3 1.2-.4s.7-.1 1-.1c.9 0 1.6.2 2.1.6s.7 1.1.7 2v3.1c0 .6-.3.8-.8.8s-.8-.3-.8-.8v-.3c-.1.4-.4.6-.7.8-.5.5-.9.6-1.3.6zm.3-1.1c.4 0 .8-.1 1.1-.4s.4-.7.4-1.1v-.3h-.5c-.8 0-1.4.1-1.7.2s-.5.4-.5.7.1.5.3.7c.3.1.5.2.9.2z"/><use xlink:href="#c"/><path d="M420.9 155.5c-.7 0-1.3-.1-1.9-.4-.5-.3-.9-.6-1.2-1.1s-.4-1.1-.4-1.8.1-1.2.4-1.7.7-.9 1.1-1.2c.5-.3 1-.4 1.6-.4.9 0 1.6.3 2.1.9s.8 1.4.8 2.3c0 .3-.2.5-.6.5H419c.1 1.1.8 1.7 1.9 1.7.2 0 .5 0 .8-.1l.8-.3c.2-.1.4-.2.6-.1.2 0 .3.1.3.3s.1.3 0 .5c0 .2-.2.3-.4.4-.3.2-.7.3-1 .4-.4.1-.8.1-1.1.1zm-.2-5.5c-.5 0-.9.1-1.2.4s-.5.7-.5 1.2h3.2c0-.5-.2-.9-.4-1.2-.3-.3-.7-.4-1.1-.4z"/><use xlink:href="#d"/><use xlink:href="#c" x="20.8"/><path d="M439.4 147.7c-.3 0-.5-.1-.7-.2-.2-.2-.3-.4-.3-.6 0-.3.1-.5.3-.6s.4-.2.7-.2c.6 0 1 .3 1 .9 0 .4-.3.7-1 .7zm0 7.8c-.3 0-.5-.1-.6-.2-.1-.2-.2-.4-.2-.7v-4.8c0-.6.3-.9.8-.9s.8.3.8.9v4.8c0 .3-.1.5-.2.7-.1.1-.3.2-.6.2z"/><use xlink:href="#d" x="13.6"/><path d="M454.7 155.5c-.7 0-1.3-.1-1.9-.4-.5-.3-.9-.6-1.2-1.1s-.4-1.1-.4-1.8.1-1.2.4-1.7.7-.9 1.1-1.2c.5-.3 1-.4 1.6-.4.9 0 1.6.3 2.1.9s.8 1.4.8 2.3c0 .3-.2.5-.6.5h-3.9c.1 1.1.8 1.7 1.9 1.7.2 0 .5 0 .8-.1l.8-.3c.2-.1.4-.2.6-.1.2 0 .3.1.3.3s.1.3 0 .5c0 .2-.2.3-.4.4-.3.2-.7.3-1 .4s-.6.1-1 .1zm-.2-5.5c-.5 0-.9.1-1.2.4s-.5.7-.5 1.2h3.2c0-.5-.2-.9-.4-1.2-.3-.3-.7-.4-1.1-.4zm4.9 5.5c-.5 0-.8-.3-.8-.8v-4.9c0-.5.3-.8.8-.8s.8.3.8.8v.3c.2-.4.5-.6.9-.8s.8-.3 1.2-.3c1.5 0 2.2.9 2.2 2.6v3.1c0 .6-.3.8-.8.8s-.8-.3-.8-.8v-3.1c0-.5-.1-.9-.3-1.1s-.5-.3-.9-.3c-.5 0-.9.1-1.1.4s-.4.7-.4 1.2v2.8c.1.6-.2.9-.8.9zM402.3 171c-.6 0-.9-.3-.9-.9v-7.4c0-.6.3-.9.9-.9h4.6c.5 0 .7.2.7.7s-.2.7-.7.7H403v2.5h3.6c.5 0 .7.2.7.7 0 .4-.2.7-.7.7H403v2.7h3.9c.5 0 .7.2.7.7s-.2.7-.7.7h-4.6zm7.6.1c-.5 0-.8-.3-.8-.8v-7.7c0-.3.1-.5.2-.6s.3-.2.5-.2.3 0 .4.1l.4.4 4.6 6v-5.7c0-.5.3-.8.8-.8s.8.3.8.8v7.8c0 .2-.1.4-.2.6-.1.1-.3.2-.5.2s-.4 0-.5-.1l-.4-.4-4.6-6v5.7c.1.4-.2.7-.7.7zm12.6 0c-.4 0-.8-.2-.9-.6l-3.4-7.6c-.1-.3-.1-.6 0-.8.2-.2.4-.3.7-.3s.4.1.6.2.2.3.3.5l2.8 6.5 2.8-6.5c.1-.2.2-.4.3-.5s.3-.2.5-.2c.3 0 .5.1.6.3s.1.5 0 .8l-3.4 7.6c-.1.2-.2.4-.4.5s-.2.1-.5.1zm6.5 0c-.6 0-.8-.3-.8-.9v-7.7c0-.6.3-.9.8-.9s.8.3.8.9v7.7c0 .6-.3.9-.8.9zm2.9 0c-.3 0-.5-.1-.7-.3s-.1-.5 0-.8l3.4-7.6c.1-.3.2-.4.4-.5s.3-.2.6-.2c.2 0 .4.1.5.2.2.1.3.3.4.5l3.4 7.6c.1.3.1.6 0 .8s-.3.3-.6.3c-.2 0-.4-.1-.6-.2s-.3-.3-.4-.5l-.7-1.5h-4.5l-.6 1.5c-.1.3-.2.4-.4.5.2.1 0 .2-.2.2zm3.7-7.5l-1.7 3.9h3.3l-1.6-3.9h0zm6.7 7.5c-.6 0-.8-.3-.8-.9v-7.6c0-.6.3-.8.8-.8h3.1c1 0 1.8.2 2.3.7s.8 1.2.8 2c0 .7-.2 1.2-.5 1.7s-.9.7-1.5.9c.4.1.8.5 1.1 1l1 1.8c.1.3.2.5.1.8s-.3.4-.7.4c-.2 0-.4 0-.6-.1s-.3-.3-.4-.5l-1.3-2.4c-.2-.3-.3-.5-.6-.6-.2-.1-.5-.1-.8-.1h-1.2v2.9c0 .5-.2.8-.8.8zm.8-5h2c1.2 0 1.8-.5 1.8-1.5s-.6-1.5-1.8-1.5h-2v3z"/><use xlink:href="#N" x="373.8" y="25.3"/></g><path d="M113.7 34c-.7-2.7-1-5.5-.9-8.3 6.2-1.1 12.5-2.2 18.8-1.4l.5 7-.2-.5" class="G"/><path d="M114.8 33.7a35.68 35.68 0 0 1-.9-8l-.8 1.1c6.2-1.1 12.2-2 18.5-1.4l-1.1-1.1.5 7.1 2.2-.3-.2-.5c-.5-1.3-2.7-.8-2.2.6l.2.6c.4 1.1 2.3 1.1 2.2-.3l-.5-7a1.11 1.11 0 0 0-1.1-1.1c-6.5-.7-12.8.3-19.1 1.5-.5.1-.8.6-.8 1.1 0 2.9.3 5.8.9 8.6.3 1.2 2.5.6 2.2-.9h0z"/><path d="M92.1 33.7c-.2-.5-.3-.9-.4-1.4s.1-1 .4-1.4c.4-.3.8-.5 1.2-.5 1.9-.4 3.9-.6 5.9-.6.1 0 .2 0 .3.1s.1.2.1.3l.2 2.5" class="G"/><path d="M93.1 33.4c-.2-.5-.5-1.3 0-1.8.3-.3 1.4-.3 1.9-.4 1.4-.3 2.8-.4 4.2-.3l-.8-.8a10.68 10.68 0 0 1 .3 2.5c.1 1.4 2.3 1.5 2.2 0 0-1.1.1-3.2-1-3.8s-3.3-.1-4.6.1-3.1.2-4 1.2-.8 2.6-.3 3.9 2.7.8 2.1-.6h0z"/><path d="M139.4 29.7c-.1 0-.2-.2-.2-.3-.2-1.2.7-2.3 1.9-2.5.6-.1 1.1.1 1.6.4.9.8 1.3 1.9 1.3 3.1" class="G"/><path d="M140 28.7l-.2-.1.5.7c-.3-.9.8-1.5 1.5-1.2s.9 1.5.9 2.2c.1 1.4 2.4 1.5 2.2 0-.1-2.3-1.3-4.8-4-4.6-1.1.1-2.1.8-2.6 1.8s-.7 2.5.4 3.1c1.4.7 2.6-1.2 1.3-1.9h0z"/><path d="M145.8 30c-.3-.8-.2-1.7.2-2.5.2-.6.7-1.1 1.3-1.4.6-.2 1.2-.1 1.8.2.5.4.9.8 1.1 1.4.4.9.6 1.9.5 2.9" class="G"/><path d="M146.8 29.7c-.2-.8.2-3.1 1.5-2.5 1.1.6 1.3 2.3 1.2 3.4-.1 1.4 2.1 1.4 2.2 0 .2-2.3-1-5.6-3.8-5.7s-4 3.2-3.4 5.4c.2.6.9.9 1.5.7s.9-.8.8-1.3z"/><path d="M117 34.2a52.28 52.28 0 0 1-1.2-5.4c2.5-.2 5.1-.5 7.6-1.1 1.1-.4 2.3-.5 3.4-.4.2 0 .4.1.6.2.1.1.2.3.2.5l.6 4.2" fill="#fac706"/><path d="M118 33.9a52.28 52.28 0 0 1-1.2-5.4l-1.1 1.4c2.5-.2 5-.5 7.4-1.1 1.1-.2 2.7-.9 3.3-.1s.4 2.8.6 3.7c.2 1.4 2.4.8 2.2-.6-.3-2 .1-5.2-2.4-5.7-1.5-.3-3.2.3-4.6.6l-6.3.9c-.6 0-1.1.5-1.1 1.2v.3a52.28 52.28 0 0 0 1.2 5.4c.3 1.3 2.5.7 2-.6z"/><path d="M156.6 59.7c-.4-9.3-.1-18.6-4-27.1-.3-.7-.7-1.3-1.3-1.8-.7-.4-1.6-.6-2.4-.5-11-.1-24.6 2.4-34.7 4.2-1.5.3-3 1.1-4.4.6-.9-.5-1.8-1.1-2.7-1.7h-.1c-.8 4.7-1.9 9.4-1.4 14.1.6 6 1.9 14 7.2 18 1.1.8 2.3 1.4 3.6 1.9.1-.3.1-.7.1-1 12.4-1.7 24.7-1.2 37-2.9.9 0 1.7-.3 2.4-.9.6-.8.9-1.8.7-2.9z" fill="#f8dad4"/><path d="M157.8 59.7c-.2-7-.2-14-1.9-20.9-1-4.3-2-9.3-7-9.7-6.7-.5-13.9.8-20.6 1.8s-14.7 4-20.8 1.4c-.6-.2-1.5-.1-1.7.7-2 12.1-3.3 29.1 9.9 35.3.6.3 1.2.1 1.5-.4.1-.2.1-.4.1-.6l.1-1-1.1 1.1c9.7-1.2 19.5-1.3 29.2-2 4.9-.3 12.2.6 12.3-5.7 0-.7-.6-1.1-1.2-1-.5.1-1 .5-1 1 0 2-5.5 3.2-6.9 3.3l-3.9.3-9.7.5c-6.2.3-12.4.6-18.5 1.4a1.11 1.11 0 0 0-1.1 1.1l-.1 1 1.7-1c-12.2-5.8-10.7-21.7-8.8-32.8l-1.7.7c1.5.6 2.4 1.8 4.1 2 2.2.2 4.8-.8 7-1.2 6.6-1.2 13.2-2.3 19.8-3a118.54 118.54 0 0 1 8.4-.6c5.5-.2 6.9 3.1 8 8 1.6 6.6 1.5 13.5 1.8 20.3-.1 1.5 2.1 1.5 2.1 0z"/><path d="M105.5 47.5c-.5-4.7.7-9.4 1.4-14.1-1.3-.7-2.8 0-4.3 0-4.2.1-8.4.8-12.4 2.2-.6.1-1.1.4-1.5.8-.4.6-.5 1.4-.3 2.1.9 11 1.4 22.6 6 32.6.3.8.7 1.4 1.3 2 .9.5 1.9.7 2.9.5 4.6-.3 11.1-.8 15.6-2.1 1.2-.6 1.9-2.6 2.2-3.9-1.2-.5-2.4-1.2-3.6-1.9-5.3-4.2-6.6-12.2-7.3-18.2z" fill="#e66869"/><path d="M106.7 47.5c-.3-4.7.6-9.2 1.4-13.8.2-.6-.2-1.2-.8-1.4-3.5-.7-7.7.1-11.2.7-2.3.4-6.8.7-8.3 2.9-1.7 2.4-.1 7.8.2 10.5.4 4.8 1 9.6 2 14.3.8 3.6 1.7 9.1 4.1 12 1.8 2.2 4.1 1.9 6.8 1.7 6.1-.5 14.7.4 16.6-6.7a1.3 1.3 0 0 0-.5-1.3c-7.8-3.6-9.4-11.1-10.3-18.9-.1-1.5-2.4-1.5-2.2-.1.6 5.5 1.5 11.4 4.8 16 .8 1.1 1.7 2.1 2.7 2.9.7.5 2.7 1.1 3 1.9 1.2 3-12.4 3.8-13.4 3.9-6.4.5-7.6-4.2-8.9-9.5-1.1-4.5-1.9-9-2.3-13.6-.3-2.9-2.3-10.2.1-12.4 1.4-1.3 6.9-1.7 8.5-1.9 2.3-.2 5.4-.8 7.6-.3l-.8-1.4c-.8 4.8-1.8 9.5-1.5 14.4.2 1.5 2.5 1.5 2.4.1z"/><path d="M127 62.2c-4.4 1.3-8.9.8-12-2.6a14.11 14.11 0 0 1-2.9-12.8c1.1-4.2 4-7.6 7.9-9.4 3.9-1.7 8.5-1.5 12.2.7 3.7 2.3 5.9 6.3 5.9 10.6-.1 1.7-.4 3.3-.9 4.9-.4 1.4-.7 3-1.7 4.1-2.3 2.3-5.3 3.8-8.5 4.5z" class="G"/><path d="M126.7 61.1c-16.3 4.1-18.5-20.6-3.5-23.4 6.5-1.2 13 3.1 13.6 9.8.8 6.9-3.5 12-10.1 13.6-.6.2-.9.9-.7 1.5.2.5.7.8 1.3.7 7.9-1.9 12.8-7.8 11.8-16.3-1-8.2-9.3-13.4-17.2-11.4-17.3 4.3-13.4 32.4 5.4 27.7.6-.2.9-.9.7-1.5-.2-.5-.7-.8-1.3-.7z"/><path d="M126.2 57.4c-2.7.8-5.6.5-7.5-1.6-1.9-2.2-2.6-5.2-1.8-8 .7-2.6 2.5-4.7 4.9-5.8 2.5-1.1 5.3-.9 7.6.4a7.72 7.72 0 0 1 3.7 6.6c-.1 1-.2 2.1-.6 3.1-.2.9-.5 1.8-1.1 2.5-1.3 1.5-3.2 2.4-5.2 2.8z" class="J"/><path d="M125.9 56.4c-9.6 2.4-10.8-12.2-2-13.8 3.6-.8 7.2 1.5 8 5.1 0 .2.1.4.1.6.4 4.1-2.1 7.1-6.1 8.1-1.3.3-.7 2.5.7 2.2 5.2-1.3 8.4-5.2 7.7-10.7-.7-4.9-5.4-8.4-10.3-7.6-.3 0-.6.1-.9.2-11.3 2.8-8.7 21.2 3.6 18.1.6-.2.9-.8.8-1.4-.3-.7-1-1-1.6-.8h0z"/><path d="M141.4 40.1l-.5-5.4c2.2.2 4.4.8 6.4 1.7-1.4 1.6-3 2.9-4.7 4-.1.1-.2.1-.3.1s-.2-.1-.1-.2" class="G"/><path d="M142.5 40.1l-.5-5.4-1.1 1.1c2.1.3 4.2.8 6.1 1.7l-.5-1.9c-.6.7-1.3 1.4-2.1 2-.7.7-1.6 1.3-2.5 1.8l.9.1-.1-.1.6 1v-.2c-.1-1.4-2.4-1.5-2.2 0 .3 3.9 6.2-2.2 7.1-3.1.4-.5.4-1.2 0-1.6-.1-.1-.3-.2-.5-.3-2.2-.9-4.4-1.5-6.8-1.7a1.11 1.11 0 0 0-1.1 1.1l.5 5.4c.1 1.5 2.4 1.5 2.2.1h0z"/><path d="M149.5 60.2c-.8.3-1.8.1-2.4-.5-.6-.7-.8-1.7-.6-2.6.2-.8.8-1.5 1.6-1.9s1.7-.3 2.5.1c.7.5 1.2 1.3 1.2 2.2 0 .3-.1.7-.2 1l-.3.8a3.1 3.1 0 0 1-1.8.9z" class="G"/><path d="M149.2 59.2c-2.1.5-2.2-2.6-.4-3 .8-.2 1.5.3 1.7 1v.2c.3.8-.3 1.6-1.3 1.8h0c-1.4.3-.8 2.5.6 2.2 2-.4 3.4-2.4 3-4.4s-2.3-3.3-4.3-3c-.1 0-.2 0-.2.1-2 .5-3.2 2.5-2.9 4.5a3.55 3.55 0 0 0 3.9 3c.2 0 .4-.1.6-.1.6-.2 1-.8.8-1.4-.2-.8-.9-1.1-1.5-.9z"/><path d="M97.1 43.2c-.8.3-1.8.1-2.4-.5-.6-.7-.8-1.7-.6-2.6.2-.8.8-1.5 1.6-1.9s1.7-.3 2.5.1c.7.5 1.2 1.3 1.2 2.1 0 .3-.1.7-.2 1l-.3.8c-.5.6-1.1.9-1.8 1z" class="G"/><path d="M96.8 42.2c-2.1.5-2.2-2.6-.4-3 .8-.2 1.5.3 1.7 1v.2c.2.8-.4 1.6-1.3 1.8h0c-1.4.3-.8 2.5.6 2.2 2-.4 3.4-2.4 3-4.4s-2.3-3.3-4.3-3c-.1 0-.2 0-.2.1-2 .5-3.2 2.5-2.9 4.5a3.55 3.55 0 0 0 3.9 3c.2 0 .4-.1.6-.1.6-.2 1-.8.8-1.4-.3-.8-.9-1.1-1.5-.9z"/><g class="G H"><use xlink:href="#e"/><use xlink:href="#f"/></g><g fill="none" stroke="#000" class="H K L"><use xlink:href="#e"/><use xlink:href="#f"/></g><g class="G H"><use xlink:href="#g"/><use xlink:href="#f" x="181.2"/></g><g fill="none" stroke="#000" class="H K L"><use xlink:href="#g"/><use xlink:href="#f" x="181.2"/></g><g class="G H"><use xlink:href="#h"/><use xlink:href="#f" x="353.9"/></g><g fill="none" stroke="#000" class="H K L"><use xlink:href="#h"/><use xlink:href="#f" x="353.9"/></g><path d="M501.2 44c-2.6-4.7-8.7-7.3-15.7-3.3 1-7.8-4-11.6-9.6-15.6-5.6-3.9-13-3.9-18.7-.1-5.7 3.7-7.1 8-8.7 15.7-4-4.2-9.2-1.2-12 .9-1.9 1.4-2.4 4.4-3.3 7-2 6 1 12.4 5 15.5h17l8.1-.2c-.1-3.3-.1-7.8-.1-9.9-3.1-.2-5.8.3-8.4.2 4.9-6.8 7.4-10.5 11.8-17.3 4.4 5 8.8 11.4 13.9 16.9-3.3.2-5.2-.2-8.5 0 0 2.4.1 6.8.2 10 7.9.1 14.9.7 25.9 1.3 7.1-4.1 6.1-15.8 3.1-21.1z" fill="#fff"/><path d="M502.5 43.3c-4.2-6.5-11.2-7.1-17.7-3.8l2.3 1.3c.9-10.3-9.8-19.6-19.7-20-12.2-.5-18 9.1-20.3 19.6l2.5-.7c-4.1-3.6-8.8-2.9-13 .1s-5.8 9.3-5.4 14.1c.3 4 2.8 10.4 7 11.8 3.1 1.1 8.5 0 11.8 0 4.4 0 8.9-.2 13.3-.2a1.54 1.54 0 0 0 1.5-1.5c-.1-3.3-.1-6.6-.1-9.9a1.54 1.54 0 0 0-1.5-1.5c-2.8-.1-5.6.2-8.4.2l1.3 2.3 11.8-17.3-2.4.3c4.8 5.5 9 11.5 13.9 16.9l1.1-2.6c-2.8.1-5.6-.1-8.5 0a1.54 1.54 0 0 0-1.5 1.5c0 3.3.1 6.7.2 10a1.54 1.54 0 0 0 1.5 1.5c5.5.1 10.9.4 16.3.7 4.8.3 9.8 2 13.2-2.1 4.7-5.5 3.9-14.7.8-20.7-.9-1.7-3.5-.2-2.6 1.5 2.9 5.5 4.1 18.4-4.5 18.8-7.6.4-15.5-1-23.1-1.1l1.5 1.5-.2-10-1.5 1.5c2.8-.1 5.6.1 8.5 0 .8 0 1.5-.7 1.5-1.6 0-.4-.2-.7-.4-1-4.9-5.4-9.1-11.4-13.9-16.9-.6-.6-1.6-.6-2.1 0-.1.1-.2.2-.2.3-3.8 5.9-7.7 11.6-11.8 17.3-.4.7-.1 1.7.6 2.1.2.1.5.2.7.2 2.8 0 5.6-.3 8.4-.2l-1.5-1.5c-.1 3.3 0 6.6.1 9.9l1.5-1.5-13.3.2c-3.4 0-9.4 1.1-12.2-.9-8.8-6.5.1-28.3 9.6-20 .6.6 1.6.6 2.1 0 .2-.2.3-.4.4-.6 1.9-8.7 5.6-16.9 15.9-17.4 8.8-.5 19 7.9 18.2 17-.1 1.2 1.3 1.8 2.3 1.3 5.1-2.6 10.3-2.4 13.6 2.7.8 1.5 3.4 0 2.4-1.6z"/><path d="M317.5 45.2h-18.4l.3-17.6-6-.2-.3 17.8h-19.6v6h19.4l-.3 18.7 6 .2.3-18.9h18.6z" class="I"/><path d="M317.5 43.8h-18.4l1.5 1.5.3-17.7a1.54 1.54 0 0 0-1.5-1.5l-6-.1a1.54 1.54 0 0 0-1.5 1.5l-.3 17.8 1.5-1.5h-19.6a1.54 1.54 0 0 0-1.5 1.5v6a1.54 1.54 0 0 0 1.5 1.5h19.4l-1.5-1.5-.3 18.7a1.54 1.54 0 0 0 1.5 1.5l6 .2a1.54 1.54 0 0 0 1.5-1.5l.3-18.8-1.5 1.5h18.6a1.54 1.54 0 0 0 1.5-1.5v-6c0-1-.7-1.6-1.5-1.6a1.54 1.54 0 0 0-1.5 1.5v6l1.5-1.5h-18.6a1.54 1.54 0 0 0-1.5 1.5l-.3 18.8 1.5-1.5-6-.2 1.5 1.5.3-18.7a1.54 1.54 0 0 0-1.5-1.5h-19.4l1.5 1.5v-6l-1.5 1.5h19.6a1.54 1.54 0 0 0 1.5-1.5l.3-17.8-1.5 1.5 6 .1-1.5-1.5-.3 17.7a1.54 1.54 0 0 0 1.5 1.5h18.4a1.54 1.54 0 0 0 1.5-1.5c0-.8-.7-1.4-1.5-1.4z"/><defs><path id="A" d="M65.8 114.6c-.5 0-.8-.3-.8-.8v-4.9c0-.5.3-.8.8-.8s.8.3.8.8v.3c.2-.4.5-.6.9-.8s.8-.3 1.2-.3c1.5 0 2.2.9 2.2 2.6v3.1c0 .6-.3.8-.8.8s-.8-.3-.8-.8v-3.1c0-.5-.1-.9-.3-1.1s-.5-.3-.9-.3c-.5 0-.9.2-1.1.4-.3.3-.4.7-.4 1.2v2.8c0 .6-.3.9-.8.9z"/><path id="B" d="M114 114.7c-.7 0-1.2-.1-1.7-.4s-.9-.7-1.1-1.2c-.3-.5-.4-1.1-.4-1.8s.1-1.3.4-1.8.6-.9 1.1-1.1c.5-.3 1.1-.4 1.7-.4s1.2.1 1.7.4.9.7 1.1 1.1a4.36 4.36 0 0 1 .4 1.8c0 .7-.1 1.3-.4 1.8s-.6.9-1.1 1.2c-.4.2-1 .4-1.7.4zm0-1.3c.5 0 .9-.2 1.2-.5s.4-.9.4-1.6-.1-1.2-.4-1.6-.7-.5-1.2-.5-.9.2-1.2.5-.4.9-.4 1.6.1 1.2.4 1.6.7.5 1.2.5z"/><path id="C" d="M24.7 130.2c-1.6 0-2.3-.9-2.3-2.6v-3.1c0-.5.3-.8.8-.8s.8.3.8.8v3.2c0 .5.1.8.3 1s.5.3.9.3.8-.2 1.1-.4.4-.7.4-1.2v-2.9c0-.5.3-.8.8-.8s.8.3.8.8v4.9c0 .6-.3.8-.8.8s-.8-.3-.8-.8v-.2c-.4.7-1.1 1-2 1z"/><path id="D" d="M30.8 130.2c-.5 0-.8-.3-.8-.8v-4.9c0-.5.3-.8.8-.8s.8.3.8.8v.3c.2-.4.5-.6.9-.8s.8-.3 1.2-.3c1.5 0 2.2.9 2.2 2.6v3.1c0 .6-.3.8-.8.8s-.8-.3-.8-.8v-3.1c0-.5-.1-.9-.3-1.1s-.5-.3-.9-.3c-.5 0-.9.1-1.1.4-.3.3-.4.7-.4 1.2v2.8c0 .6-.3.9-.8.9z"/><path id="E" d="M43.7 130.2a1.04 1.04 0 0 1-1-.7l-2.1-4.8a1.1 1.1 0 0 1 0-.8c.1-.2.4-.3.7-.3.2 0 .4 0 .5.1s.2.3.3.5l1.6 3.9 1.6-3.9c.1-.2.2-.4.3-.5s.3-.1.5-.1c.3 0 .5.1.6.3s.1.5 0 .7l-2.1 4.8c-.2.6-.5.8-.9.8z"/><path id="F" d="M48.8 122.5c-.3 0-.5-.1-.7-.2-.2-.2-.3-.4-.3-.6 0-.3.1-.5.3-.6s.4-.2.7-.2c.6 0 1 .3 1 .9-.1.4-.4.7-1 .7zm0 7.7c-.3 0-.5-.1-.6-.2-.1-.2-.2-.4-.2-.7v-4.8c0-.6.3-.9.8-.9s.8.3.8.9v4.8c0 .3-.1.5-.2.7-.2.1-.4.2-.6.2z"/><path id="G" d="M53.7 130.2c-.6 0-1-.1-1.5-.4-.4-.3-.7-.7-1-1.2-.2-.5-.4-1.1-.4-1.8s.1-1.3.4-1.8a2.17 2.17 0 0 1 1-1.1c.4-.3.9-.4 1.5-.4.5 0 .9.1 1.2.3.4.2.6.5.8.8v-3.1c0-.5.3-.8.8-.8s.8.3.8.8v7.7c0 .6-.3.8-.8.8s-.8-.3-.8-.8v-.3c-.2.3-.5.6-.8.8-.3.4-.7.5-1.2.5zm.5-1.2c.5 0 .9-.2 1.2-.5.3-.4.4-.9.4-1.6s-.1-1.2-.4-1.6c-.3-.3-.7-.5-1.2-.5s-.9.2-1.2.5-.4.9-.4 1.6.1 1.2.4 1.6c.3.3.7.5 1.2.5z"/><path id="H" d="M69 130.2c-.7 0-1.2-.1-1.7-.4s-.9-.7-1.1-1.2c-.3-.5-.4-1.1-.4-1.8s.1-1.3.4-1.8.6-.9 1.1-1.1 1.1-.4 1.7-.4c.7 0 1.2.1 1.7.4s.9.7 1.1 1.1c.3.5.4 1.1.4 1.8s-.1 1.3-.4 1.8-.6.9-1.1 1.2-1 .4-1.7.4zm0-1.2c.5 0 .9-.2 1.2-.5.3-.4.4-.9.4-1.6s-.1-1.2-.4-1.6c-.3-.3-.7-.5-1.2-.5s-.9.2-1.2.5-.4.9-.4 1.6.1 1.2.4 1.6c.3.3.7.5 1.2.5z"/><path id="I" d="M91.4 130.2c-.6 0-.8-.3-.8-.8v-4.9c0-.5.3-.8.8-.8s.8.3.8.8v.4c.3-.7 1-1.2 2-1.2.4 0 .6.2.6.6 0 .5-.2.7-.7.8h-.3c-1.1.1-1.6.6-1.6 1.6v2.7c.1.5-.2.8-.8.8z"/><path id="J" d="M137.7 130.2c-1.6 0-2.3-.9-2.3-2.6v-3.1c0-.5.3-.8.8-.8s.8.3.8.8v3.2c0 .5.1.8.3 1s.5.3.9.3.8-.2 1.1-.4.4-.7.4-1.2v-2.9c0-.5.3-.8.8-.8s.8.3.8.8v4.9c0 .6-.3.8-.8.8s-.8-.3-.8-.8v-.2c-.5.7-1.1 1-2 1z"/><path id="K" d="M32.9 145.8c-.6 0-.8-.3-.8-.8v-4.9c0-.5.3-.8.8-.8s.8.3.8.8v.4c.3-.7 1-1.2 2-1.2.4 0 .6.2.6.6 0 .5-.2.7-.7.8h-.3c-1.1.1-1.6.6-1.6 1.6v2.7c0 .5-.2.8-.8.8z"/><path id="L" d="M40 145.8c-.7 0-1.2-.1-1.7-.4s-.9-.7-1.1-1.2c-.3-.5-.4-1.1-.4-1.8s.1-1.3.4-1.8.6-.9 1.1-1.1 1.1-.4 1.7-.4c.7 0 1.2.1 1.7.4s.9.7 1.1 1.1c.3.5.4 1.1.4 1.8s-.1 1.3-.4 1.8-.6.9-1.1 1.2-1.1.4-1.7.4zm0-1.2c.5 0 .9-.2 1.2-.5.3-.4.4-.9.4-1.6s-.1-1.2-.4-1.6c-.3-.3-.7-.5-1.2-.5s-.9.2-1.2.5-.4.9-.4 1.6.1 1.2.4 1.6c.3.3.7.5 1.2.5z"/><path id="M" d="M61.1 145.8c-.7 0-1.2-.1-1.7-.4s-.9-.7-1.1-1.2c-.3-.5-.4-1.1-.4-1.8s.1-1.3.4-1.7c.3-.5.6-.9 1.1-1.1.5-.3 1.1-.4 1.7-.4.3 0 .6 0 .9.1s.6.2.9.4c.2.1.3.2.3.4s0 .3-.1.5-.2.2-.3.3-.3 0-.5-.1c-.4-.2-.8-.3-1.2-.3-.6 0-1 .2-1.3.5-.3.4-.5.9-.5 1.5s.2 1.1.5 1.5.7.6 1.3.6c.4 0 .8-.1 1.2-.3.2-.1.3-.1.5-.1l.3.3c.1.1.1.3 0 .5 0 .2-.1.3-.3.4-.3.2-.6.3-.9.4s-.5 0-.8 0z"/><path id="N" d="M77.3 145.8c-.3 0-.5-.1-.7-.3s-.3-.4-.3-.7.1-.5.3-.7.4-.3.7-.3.5.1.7.3.3.4.3.7-.1.5-.3.7-.4.3-.7.3z"/><path id="O" d="M117.1 145.8c-.4 0-.8 0-1.2-.1s-.8-.2-1.1-.4c-.2-.1-.3-.2-.3-.4v-.4l.3-.3c.1-.1.3 0 .5 0a1.93 1.93 0 0 0 1 .3c.3.1.6.1.9.1.4 0 .7-.1.9-.2s.3-.3.3-.6c0-.4-.3-.6-.8-.7l-1.3-.2c-1.1-.2-1.7-.8-1.7-1.7 0-.4.1-.8.3-1.1s.5-.5 1-.7c.4-.2.9-.2 1.4-.2.8 0 1.4.2 2 .5.2.1.3.2.3.4s0 .3-.1.4l-.3.3c-.1.1-.3 0-.5 0l-.8-.3c-.3-.1-.5-.1-.7-.1-.4 0-.7.1-.9.2s-.3.3-.3.6c0 .4.2.6.7.7l1.3.2c.6.1 1 .3 1.3.6s.4.6.4 1.1c0 .6-.2 1.1-.7 1.5s-1 .5-1.9.5z"/><path id="P" d="M124 145.8c-.7 0-1.2-.1-1.7-.4s-.9-.7-1.1-1.2c-.3-.5-.4-1.1-.4-1.8s.1-1.3.4-1.8.6-.9 1.1-1.1 1.1-.4 1.7-.4c.7 0 1.2.1 1.7.4s.9.7 1.1 1.1c.3.5.4 1.1.4 1.8s-.1 1.3-.4 1.8-.6.9-1.1 1.2c-.4.3-1 .4-1.7.4zm0-1.2c.5 0 .9-.2 1.2-.5.3-.4.4-.9.4-1.6s-.1-1.2-.4-1.6c-.3-.3-.7-.5-1.2-.5s-.9.2-1.2.5-.4.9-.4 1.6.1 1.2.4 1.6c.4.3.8.5 1.2.5z"/><path id="Q" d="M130.8 145.8c-1.4 0-2.2-.8-2.2-2.4v-6.1c0-.5.3-.8.8-.8s.8.3.8.8v6.1c0 .8.3 1.2 1 1.2h.2.2c.1 0 .2 0 .2.1s.1.2.1.5c0 .2 0 .4-.1.5s-.2.2-.4.2c-.2-.1-.4-.1-.6-.1z"/><path id="R" d="M132.5 161.5c-.4 0-.8 0-1.2-.1s-.8-.2-1.1-.4c-.2-.1-.3-.2-.3-.4v-.4l.3-.3c.1-.1.3 0 .5 0a1.93 1.93 0 0 0 1 .3c.3.1.6.1.9.1.4 0 .7-.1.9-.2s.3-.3.3-.6c0-.4-.3-.6-.8-.7l-1.3-.2c-1.1-.2-1.7-.8-1.7-1.7 0-.4.1-.8.3-1.1s.5-.5 1-.7c.4-.2.9-.2 1.4-.2.8 0 1.4.2 2 .5.2.1.3.2.3.4s0 .3-.1.4l-.3.3c-.1.1-.3 0-.5 0l-.8-.3c-.3-.1-.5-.1-.7-.1-.4 0-.7.1-.9.2s-.3.3-.3.6c0 .4.2.6.7.7l1.3.2c.6.1 1 .3 1.3.6s.4.6.4 1.1c0 .6-.2 1.1-.7 1.5s-1.1.5-1.9.5z"/><path id="S" d="M137.5 162.7c-.1.1-.2.2-.4.2-.1 0-.2 0-.3-.1s-.1-.2-.2-.3c0-.1 0-.3.2-.4a.76.76 0 0 0 .2-.4c0-.1.1-.3.1-.4-.3 0-.5-.1-.6-.3-.2-.2-.2-.4-.2-.7s.1-.5.3-.7.4-.3.7-.3.5.1.7.3.3.5.3.9c0 .3 0 .6-.1 1-.2.5-.4.8-.7 1.2z"/><path id="T" d="M108.3 177c-.5 0-.9-.1-1.2-.3a1.85 1.85 0 0 1-.8-.7 1.69 1.69 0 0 1-.3-1c0-.5.1-.8.4-1.1.2-.3.6-.5 1.2-.6s1.3-.2 2.2-.2h.5v-.3c0-.4-.1-.7-.3-.9s-.5-.3-1-.3c-.3 0-.5 0-.8.1l-.9.3c-.2.1-.4.1-.5 0s-.2-.2-.3-.4v-.5c0-.2.2-.3.4-.4.4-.2.8-.3 1.2-.4s.7-.1 1-.1c.9 0 1.6.2 2.1.6s.7 1.1.7 2v3.1c0 .6-.3.8-.8.8s-.8-.3-.8-.8v-.3c-.1.4-.4.6-.7.8-.4.5-.8.6-1.3.6zm.4-1.1c.4 0 .8-.1 1.1-.4s.4-.7.4-1.1v-.3h-.4c-.8 0-1.4.1-1.7.2s-.5.4-.5.7.1.5.3.7c.1.1.4.2.8.2z"/><path id="U" d="M236.5 121.7c-1.7 0-2.5-.8-2.5-2.5v-2.8h-.7c-.4 0-.6-.2-.6-.6s.2-.6.6-.6h.7V114c0-.5.3-.8.8-.8s.8.3.8.8v1.2h1.4c.4 0 .7.2.7.6s-.2.6-.7.6h-1.4v2.7c0 .4.1.7.3.9s.5.3.9.3h.4c.1 0 .2 0 .3-.1.1 0 .2 0 .3.1s.1.2.1.4 0 .3-.1.5l-.3.3c-.1 0-.3.1-.4.1-.3 0-.4.1-.6.1z"/><path id="V" d="M214.2 137.2c-.5 0-.9-.1-1.2-.3a1.85 1.85 0 0 1-.8-.7 1.69 1.69 0 0 1-.3-1c0-.5.1-.8.4-1.1.2-.3.6-.5 1.2-.6s1.3-.2 2.2-.2h.5v-.3c0-.4-.1-.7-.3-.9s-.5-.3-1-.3c-.3 0-.5 0-.8.1l-.9.3c-.2.1-.4.1-.5 0s-.2-.2-.3-.4v-.5c0-.2.2-.3.4-.4.4-.2.8-.3 1.2-.4s.7-.1 1-.1c.9 0 1.6.2 2.1.6s.7 1.1.7 2v3.1c0 .6-.3.8-.8.8s-.8-.3-.8-.8v-.3c-.1.4-.4.6-.7.8-.5.5-.9.6-1.3.6zm.3-1.1c.4 0 .8-.1 1.1-.4s.4-.7.4-1.1v-.3h-.4c-.8 0-1.4.1-1.7.2s-.5.4-.5.7.1.5.3.7c.2.1.5.2.8.2z"/><path id="W" d="M229.1 137.2c-1.4 0-2.2-.8-2.2-2.4v-6.1c0-.5.3-.8.8-.8s.8.3.8.8v6.1c0 .8.3 1.2 1 1.2h.2.2c.1 0 .2 0 .2.1s.1.2.1.5c0 .2 0 .4-.1.5s-.2.2-.4.2c-.3-.1-.4-.1-.6-.1z"/><path id="X" d="M208.7 152.8c-.5 0-.8-.3-.8-.8v-4.9c0-.5.3-.8.8-.8s.8.3.8.8v.3c.2-.4.5-.6.9-.8s.8-.3 1.2-.3c1.5 0 2.2.9 2.2 2.6v3.1c0 .6-.3.8-.8.8s-.8-.3-.8-.8v-3.1c0-.5-.1-.9-.3-1.1s-.5-.3-.9-.3c-.5 0-.9.1-1.1.4-.3.3-.4.7-.4 1.2v2.8c.1.6-.2.9-.8.9z"/><path id="Y" d="M218.4 152.8c-1.7 0-2.5-.8-2.5-2.5v-2.8h-.7c-.4 0-.6-.2-.6-.6s.2-.6.6-.6h.7v-1.2c0-.5.3-.8.8-.8s.8.3.8.8v1.2h1.4c.4 0 .7.2.7.6s-.2.6-.7.6h-1.4v2.7c0 .4.1.7.3.9s.5.3.9.3h.4c.1 0 .2 0 .3-.1.1 0 .2 0 .3.1s.1.2.1.4 0 .3-.1.5l-.3.3c-.1 0-.3.1-.4.1-.3.1-.4.1-.6.1z"/><path id="Z" d="M282.2 152.8c-.5 0-.8-.3-.8-.8v-4.9c0-.5.3-.8.8-.8s.8.3.8.8v.3c.2-.4.5-.6.9-.8s.8-.3 1.2-.3c1.5 0 2.2.9 2.2 2.6v3.1c0 .6-.3.8-.8.8s-.8-.3-.8-.8v-3.1c0-.5-.1-.9-.3-1.1s-.5-.3-.9-.3c-.5 0-.9.1-1.1.4s-.4.7-.4 1.2v2.8c0 .6-.3.9-.8.9z"/><path id="a" d="M291.4 152.8c-.6 0-1-.1-1.5-.4-.4-.3-.7-.7-1-1.2-.2-.5-.4-1.1-.4-1.8s.1-1.3.4-1.8.6-.9 1-1.1.9-.4 1.5-.4c.5 0 .9.1 1.2.3.4.2.6.5.8.8v-3.1c0-.5.3-.8.8-.8s.8.3.8.8v7.7c0 .6-.3.8-.8.8s-.8-.3-.8-.8v-.3c-.2.3-.5.6-.8.8-.3.4-.7.5-1.2.5zm.5-1.2c.5 0 .9-.2 1.2-.5.3-.4.4-.9.4-1.6s-.1-1.2-.4-1.6c-.3-.3-.7-.5-1.2-.5s-.9.2-1.2.5-.4.9-.4 1.6.1 1.2.4 1.6c.3.3.7.5 1.2.5z"/><path id="b" d="M403.7 139.9c-.7 0-1.2-.1-1.7-.4s-.9-.7-1.1-1.2c-.3-.5-.4-1.1-.4-1.8s.1-1.3.4-1.8.6-.9 1.1-1.1c.5-.3 1.1-.4 1.7-.4.7 0 1.2.1 1.7.4s.9.7 1.1 1.1c.3.5.4 1.1.4 1.8s-.1 1.3-.4 1.8-.6.9-1.1 1.2-1 .4-1.7.4zm0-1.2c.5 0 .9-.2 1.2-.5.3-.4.4-.9.4-1.6s-.1-1.2-.4-1.6c-.3-.3-.7-.5-1.2-.5s-.9.2-1.2.5-.4.9-.4 1.6.1 1.2.4 1.6c.3.3.7.5 1.2.5z"/><path id="c" d="M415.8 155.5c-1.4 0-2.2-.8-2.2-2.4V147c0-.5.3-.8.8-.8s.8.3.8.8v6.1c0 .8.3 1.2 1 1.2h.2.2c.1 0 .2 0 .2.1s.1.2.1.5c0 .2 0 .4-.1.5s-.2.2-.4.2c-.2-.1-.4-.1-.6-.1z"/><path id="d" d="M431.3 155.5c-.7 0-1.2-.1-1.7-.4s-.9-.7-1.1-1.2c-.3-.5-.4-1.1-.4-1.8s.1-1.3.4-1.7c.3-.5.7-.9 1.1-1.1.5-.3 1.1-.4 1.7-.4.3 0 .6 0 .9.1s.6.2.9.4c.2.1.3.2.3.4s0 .3-.1.5l-.3.3c-.1.1-.3 0-.5-.1-.4-.2-.8-.3-1.2-.3-.6 0-1 .2-1.3.5-.3.4-.5.9-.5 1.5s.2 1.1.5 1.5.7.6 1.3.6c.4 0 .8-.1 1.2-.3.2-.1.3-.1.5-.1l.3.3c.1.1.1.3 0 .5 0 .2-.1.3-.3.4-.3.2-.6.3-.9.4h-.8z"/><path id="e" d="M42.2 82.4h-.5-.9-.9-.4-.1-.9-.8-.6c-.1 0-.4 0-.7.1 0 0-.1.1-.2.1H36h0c-.2 0-.4-.1-.5-.2 0-.1 0-.2-.1-.3s-.1-.3-.1-.5-.1-.3-.1-.5-.1-.3-.1-.3h0v-.1-1.6-1.9-1.6-.7-.3-.4-.4-.3-9.8l-.2-2.5v-2.5-2.5-2.6-.6-.9-.9-.5-.9-.9-2.5l-.1-2.5c0-.1.1-.2.2-.2h.4.1.1.2.5.8.8.5.8.8c.3 0 .7 0 1-.1s.7-.1 1-.1h.8.7 0s.1.1.3.2.2.2.3.2l.3.1a1.44 1.44 0 0 0 .2.3c.1.1.1.3.1.3v.5c0 .3.1.4.1.5s0 .2-.1.5-.1.5-.1.8-.1.5-.1.8-.1.4-.1.5c.1.1.1.2.2.4s.1.3.1.4c0 0 0 .1-.1.3s-.1.2-.2.3v.5.5s0 .2.1.3.1.4.1.6.1.4.1.6v.3V55l.2 2.6.2 3.1c.1 1.1.1 2.2.1 3.4l.1 3.4.1 3.1c.1 1 0 1.9 0 2.7v2c0 .6 0 .9-.1 1v1.1 1.1c0 .1-.1.3-.1.7v1 .9.4c0 .3-.2.6-.5.7s-.6.3-1 .4-.7.1-.9.2-.4 0-.4 0l-.2-.4z"/><path id="f" d="M62.6 78.7v.7c0 .3 0 .5-.1.7-.2.3-.3.7-.4 1s-.3.6-.6.9l-.3.3c-.1.1-.3.2-.4.3s-.3.2-.4.3l-.2.2c-.3.3-.7.5-1.2.5h-1.3-.7c-.2 0-.4-.1-.7-.2-.1 0-.3-.1-.5-.2s-.4-.2-.5-.3c-.6-.4-1.2-.9-1.6-1.5s-.7-1.3-.8-2.1V78c0-.4.1-.7.2-1s.3-.6.5-.9.5-.6.9-.9c.3-.3.7-.6 1.2-.9s1-.4 1.4-.4h.2.4.4.2.3c.1 0 .3.1.4.1s.3.1.4.1h.2s.1.1.2.1.2.1.4.1.3.1.4.1.2.1.3.1c.3.3.6.5.9.8s.4.6.5.9l.3 1c.1.3 0 1.1 0 1.5z"/><path id="g" d="M199.8 79.7v-.1l-.1-.1h0c0-.1 0-.2.1-.3s.1-.2.1-.2c0-.5 0-1 .1-1.5s.1-1 .1-1.5c0-.1.1-.3.3-.4a3.04 3.04 0 0 0 .7-.5c.2-.2.6-.3.9-.5s.5-.3.7-.4l.7-.7 1.2-1.1c.4-.4.8-.8 1.3-1.1s.7-.6.9-.8l1.2-1.3c.4-.5.8-.9 1.1-1.4s.7-.9 1.1-1.4.8-.9 1.2-1.3c.1-.2.4-.5.8-1s.8-.9 1.2-1.5.8-1 1.2-1.5l.8-1s.1 0 .2-.2.3-.4.5-.8l.6-1.1.5-1.1c.2-.2.3-.6.4-1a7.18 7.18 0 0 0 .2-1.7 3.73 3.73 0 0 0-.2-1.2c-.1-.3-.3-.8-.5-1.2a1.08 1.08 0 0 0-.3-.7c-.2-.2-.4-.4-.7-.6s-.5-.3-.8-.4-.5-.1-.6 0c-.5 0-1.1.1-1.6.4s-1 .6-1.5 1.1-.9 1-1.4 1.6-.8 1.3-1.1 1.9v.1s-.1.2-.1.3-.1.2-.1.3 0 .1-.1.1c-.1.2-.2.4-.4.5s-.4.3-.5.4h-.9c-.5 0-1 .1-1.4.1s-.8.1-1.2.1-.8.1-1.2.1h-1.4 0s-.1-.1-.2-.1h-.2-1.7l-.1-.1-.2-.2c-.1-.1-.2-.2-.2-.3 0-.5.1-1 .2-1.4l.3-1.4c.1-.3.1-.5.2-.8s.1-.5.2-.8c.3-.7.6-1.4 1-2s.8-1.2 1.3-1.7.9-1 1.5-1.5l1.7-1.4c.1 0 .2-.1.3-.2s.3-.2.4-.3a.76.76 0 0 1 .4-.2c.1 0 .2-.1.2-.2.1 0 .2-.1.5-.2l.8-.3.8-.3c.3-.1.5-.2.6-.2.5-.2 1-.3 1.6-.3s1.2-.1 1.7-.1c1.3 0 2.6.1 3.9.3s2.5.6 3.7 1.2h.3c.1 0 .2.1.4.2s.2.2.4.3.2.2.3.2c0 0 .1.1.2.1s.2.1.3.2.2.1.3.2.1.1.2.1c.6.5 1.1 1.1 1.5 1.7s.7 1.2.9 2c0 0 .1.2.1.3s.1.3.2.5.2.4.2.5.1.3.1.3c.1.2.1.4.2.6s.1.4.1.7.1.6.1 1V55c0 .5-.1 1-.2 1.5s-.3.9-.4 1.3-.3.8-.5 1.1-.3.6-.4.8l-1.1 2.4c-.4.8-.8 1.5-1.3 2.3 0 0-.1 0-.1.1v.2s-.1.1-.2.1-.2.1-.2.2-.2.2-.3.2-.1.1-.1.1l-.2.2a.76.76 0 0 0-.2.4c0 .1-.2.3-.3.4s-.1.2-.1.2-.1.1-.2.3-.2.2-.2.3c-.1.2-.3.4-.4.6s-.2.4-.4.6l-2 2.8-2.2 2.6-.1.1-.1.1h0l.1.1h.1.5.9.9.5.2 1.5 1.5.3.6c.2 0 .6 0 .9.1s.6 0 .8.1.4 0 .5.1c0 0 .1 0 .2.1s.2.1.3.1.2.1.3.1.1 0 .2.1c.2.1.4.2.4.4s.1.4.2.6.1.4.1.6.1.4.2.5v.6.9.9.6.2.3.3.2.1.1.1c0 .4-.1.8-.2 1.1s-.4.4-.9.4h-3.6-.2-.4-.4-.2-3.5c-.1 0-.1.1-.2.1h-.2c-.1 0-.2 0-.3-.1s-.2.4-.3.4h-.1l-2.7.1h-2.7c-.9 0-1.8 0-2.7-.1s-1.8 0-2.7 0h-.3-.6-.6-.4-.4-.4-.5-.5-.3-.3c-.1 0-.3-.1-.3-.1h0-.1v-.3-.3c0-.1-.1-.3-.1-.5s-.1-.5-.1-.8-.1-.5-.1-.8-.2-.4-.2-.5z"/><path id="h" d="M385.7 82.8c-.4 0-.9 0-1.4-.1s-1.1-.1-1.6-.2-1.1-.2-1.6-.4-1-.3-1.4-.5-.7-.4-.9-.6c0 0-.1-.1-.3-.2s-.3-.2-.4-.3-.3-.2-.4-.3l-.2-.2-.3-.3-.5-.5c-.2-.2-.4-.3-.5-.5s-.3-.3-.4-.3c-.6-.6-1.1-1.4-1.5-2.3s-.7-1.8-1-2.6l-.6-1.4c-.2-.4-.3-.9-.4-1.5 0-.3.1-.5.2-.6a1.38 1.38 0 0 1 .4-.3c.2-.1.4-.1.6-.1s.4-.1.7-.1c.2 0 .5 0 .8-.1s.7-.1 1.1-.2.9-.1 1.3-.1h1.6c.5-.1.9 0 1.2.2s.6.5.9.9.5.8.8 1.3.5.9.9 1.4a13.07 13.07 0 0 0 1.1 1.2c.4.4.9.6 1.5.8a1.76 1.76 0 0 1 .6.1c.3.1.4.1.5.1h.1.2.3.2 0 .1l1.9-.6c.5-.2.9-.6 1.2-.9s.5-.8.6-1.4.2-1.2.2-2c0-.6-.1-1.1-.3-1.6l-.6-1.4c-.2-.5-.6-.8-.9-1.2s-.7-.8-1.2-1.1c-.3-.2-.6-.4-.9-.4s-.7-.1-1.1-.2l-1.6.2c-.5.1-.8.1-1.1.1s-.5 0-.6-.1-.2-.2-.1-.3l-.1-.3.1-4.8V59v-.1-.1-.1l.1-.1.8-.3c.2-.1.5-.2.7-.3s.5-.2.7-.3.5-.3.8-.5c.4-.2.8-.6 1.1-.9s.6-.8.7-1.2c.1-.2.1-.4.2-.8s.1-.7.1-1v-.9c0-.3-.1-.4-.2-.4l-.3-.9c-.1-.3-.2-.5-.4-.7s-.3-.4-.6-.5-.5-.2-.9-.2c-.1-.1-.4-.2-.6-.2s-.6.1-.8.2h-.1-.1-.1c-.3.1-.6.2-.8.4s-.5.4-.7.7-.4.5-.6.8-.4.5-.6.8c-.2.2-.3.4-.6.4s-.4.1-.7.1h-1.4c-.4 0-.9-.1-1.5-.2h-.3c-.1 0-.3-.1-.6-.1s-.4-.1-.6-.1-.3-.1-.3-.1-.1-.1-.2-.1-.2-.1-.3-.2-.2-.1-.3-.2-.2-.1-.2-.1l-.2-.2-.3-.3c-.1-.1-.2-.2-.2-.3s-.1-.1-.1-.2v-.1c0-.1.1-.2.2-.3s.2-.2.3-.4c.1-.3.2-.6.3-.7a.76.76 0 0 0 .2-.4c0-.1.2-.2.3-.3s.3-.3.5-.6.4-.5.6-.8.5-.5.6-.7l.9-1.2c.3-.4.7-.7 1.1-1 0 0 .1-.1.3-.2s.4-.2.7-.3.5-.2.8-.4.5-.2.6-.3c.4-.2.7-.4 1.1-.4s.8-.1 1.2-.1h.3c.2 0 .3-.1.5-.1s.3-.1.5-.1h.2.2.3.2.2c.1 0 .4 0 .7.1s.8.1 1.2.1.8.1 1.2.1.6.1.7.1h.3c.2 0 .3.1.4.1h.3c.2 0 .2.1.3.1 0 0 .2 0 .3.1s.3.1.3.1l1.3.7c.3.2.6.4.7.6s.3.3.4.4.2.2.3.2l.1.1h.1c.1 0 .1.1.1.1v.1.1s.1.1.1.2c0 0 .1.1.2.3a.78.78 0 0 0 .4.4c.2.1.2.3.3.4s.2.2.2.3c.2.3.3.6.4.9s.2.7.2 1 .1.7.1 1v1c0 .8-.1 1.5-.2 2.3s-.4 1.6-.7 2.3-.7 1.5-1.1 2.1-.9 1.3-1.5 1.8c0 .1.1.1.2.1s.2.1.3.1.2.1.4.1.2.1.3.2l.9.6c.3.2.6.5.8.8.3.3.6.7.9 1s.6.7.7 1.1c.1.1.2.3.3.6s.2.7.4 1.1.2.8.4 1.2.2.7.2.9c0 .1 0 .2.1.3s.1.3.1.5.1.4.1.5v.3.2.4.5.4c0 .5 0 .9-.1 1.3s-.1.8-.2 1.3-.2 1-.4 1.5-.4 1-.7 1.5l-.8 1.3c-.3.4-.6.7-.9 1-.2.3-.5.6-.9.9s-.7.5-.9.8l-1.3 1c-.4.3-.8.4-1.2.6s-.8.3-1.3.4l-1.7.3c-.1 0-.2.1-.4.1h-.6-.5-.3-.4c.3.4 0 .4-.5.4z"/></defs></svg>