<svg xmlns="http://www.w3.org/2000/svg" xmlns:xlink="http://www.w3.org/1999/xlink" viewBox="0 0 69 68" xmlns:v="https://vecta.io/nano"><style><![CDATA[.U{stroke:#fff}.V{stroke-width:8.031}.W{stroke-linejoin:round}.X{stroke-miterlimit:10}.Y{stroke-linecap:round}.Z{fill:#183e42}.a{fill:#fac706}.b{fill:#183e41}.c{fill:#fff}.d{fill:#7ec7cd}.e{fill:#e4252e}]]></style><g class="U V W X"><use xlink:href="#G" fill="#f8dad4" class="Y" href="#A"/><use xlink:href="#B"/></g><defs><path id="A" d="M63 34.5c0 15.4-13 27.9-28.9 27.8-15.9 0-28.9-12.5-28.9-27.9S18.1 6.4 34 6.5c15.9 0 29 12.6 29 28"/><path id="B" d="M62.2 34.5C62 46.1 54.4 56.2 43.7 60c-10.9 3.9-23.6.6-31.3-8-7.5-8.7-8.7-21.5-2.7-31.3C15.8 10.7 28 5.8 39.4 7.9c13 2.3 22.8 13.4 22.8 26.6 0 1 1.4 1 1.4 0-.2-12-8-22.6-19.3-26.8-11.6-4.2-25.2-.8-33.2 8.7C3.2 25.5 2.2 39 8.7 49.3c6.6 10.4 19.1 15.6 31.2 13.2 13.5-2.6 23.6-14.3 23.8-27.9-.1-1.1-1.5-1.1-1.5-.1h0z"/><path id="C" d="M34.8 123.6c.6 0 2.1 2.1 1.9 2.6-.2.6-.6 1.1-1.1 1.4-2.7 2.2-5.9 3.7-9.3 4.8-1.3.5-2.6.8-3.7.5s-2.4-1.3-2.4-2.6c0-1.4 1.4-2.4 2.7-3.2l5.6-3.2"/><path id="D" d="M34.7 124.1c.5.2.8.6 1.1 1 .3.6.5.6.2 1.4-.5 1.1-2.1 1.9-3.1 2.6-1.9 1.3-4.2 2.1-6.4 2.9-1.3.5-2.6 1-4 .5-1-.3-1.8-.8-1.9-1.9-.2-1 1-1.8 1.6-2.2 1.9-1.4 4.3-2.6 6.4-3.7.5-.3 0-1.1-.5-.8l-6.4 3.7c-1 .6-1.8 1.4-2.1 2.6-.2 1.3.6 2.6 1.8 3.1 1.4.8 3.2.3 4.8-.2 3.5-1.1 7.9-2.7 10.3-5.6 1.3-1.4.3-3.9-1.4-4.3-.7 0-1.1.8-.4.9h0z"/><path id="E" d="M24.2 126.8c-1.6.5-4.8 2.6-3.2 4.7.3.5 1-.2.6-.6-.5-.6.5-1.6 1-2.1s1.1-.8 1.8-1c.7-.3.3-1.1-.2-1h0z"/><path id="F" d="M27.1 122.7c-.6 1.6.5 3.4 1.9 4 1.6.8 3.5.5 5-.6 1.3-1.1 1.9-3.1 1.4-4.8"/><path id="G" d="M26.7 122.5c-.8 3.1 2.1 5.3 5 5 3.1-.3 5-3.4 4.3-6.3-.2-.6-1-.3-1 .3.5 2.2-.8 4.7-3.2 5.1-2.2.5-5-1.3-4.2-3.9 0-.5-.8-.8-.9-.2h0z"/><path id="H" d="M26.8 119c-.6 1 0 2.6 1 3.2 1.1.6 2.4.6 3.5.6s2.2-.2 2.9-.8c1-1 .8-2.7 0-3.9"/><path id="I" d="M26.5 118.8c-.6 1.1-.3 2.2.5 3.2 1.1 1.1 2.9 1.3 4.3 1.1 1.4 0 3.1-.2 3.9-1.4s.5-2.9-.3-4c-.3-.5-1.1 0-.8.5.5 1 .8 1.9.3 2.9-.6 1.1-1.9 1.1-3.1 1.1-.8 0-1.6 0-2.4-.2-1.1-.3-2.2-1.6-1.6-2.9.2-.4-.6-.9-.8-.3h0z"/><path id="J" d="M24.9 99.9c-.3.2-.6.6-.6 1.3s.3 1.4.8 1.8c.5.3 1.1.5 1.6.6 2.1.5 4.5.5 6.1-1.4.2-.3.5-.6.5-1s0-.8-.3-1"/><path id="K" d="M24.6 99.5c-1 .8-1 2.2-.2 3.2 1 1.1 2.9 1.4 4.3 1.4 1.8 0 6.9-1.9 4.7-4.5-.3-.5-1 .2-.6.6 1 1.1-1.4 2.4-2.1 2.6-.5.2-1.1.2-1.6.2s-1.1 0-1.6-.2c-.2 0-.3 0-.5-.2-1.3-.2-1.8-1.1-1.6-2.9.3.2-.3-.5-.8-.2h0z"/><path id="L" d="M25.4 102.6c-.6.6-1 1.8-.6 2.6.3.8 1 1.4 1.8 1.8s1.6.5 2.4.5c1.1 0 2.2 0 3.2-.5s1.8-1.6 1.8-2.7c0-.6-.3-1.3-.6-1.6"/><path id="M" d="M25.1 102.3c-1 1.1-1.3 2.6-.3 3.9 1 1.6 3.1 1.9 4.8 1.9 2.9 0 6.6-2.6 4.2-5.6-.3-.5-1 .2-.6.6 2.1 2.6-1.4 4.2-3.5 4.2s-6.1-1.4-3.9-4.2c.2-.7-.4-1.3-.7-.8h0z"/><path id="N" d="M25.9 106.9c-.8.5-.8 1.6-.6 2.6 0 .3 0 .5.2.8a3.17 3.17 0 0 0 .6.5c1.9.8 4.2 1 6.1.2.6-.2 1.1-.5 1.4-1.1.3-.5.3-1 .3-1.4s.5-1.6-.5-2.4"/><path id="O" d="M25.5 106.6c-1 .8-1.3 2.7-.6 3.9 1 1.4 3.9 1.4 5.3 1.3 1.4-.2 3.4-.5 3.9-2.1.5-1.3.6-3.1-.5-4-.5-.5-1.1.2-.6.6.6.6.5 1.8.3 2.6-.3 1.4-2.1 2.1-3.5 2.1-1 0-1.9 0-2.7-.3-.6-.2-1.4-.5-1.6-1.3-.2-.6.2-1.8.5-2.1.7-.5 0-1.2-.5-.7h0z"/><path id="P" d="M25.5 111.4c-.2.8-.3 1.6-.2 2.4.3.8 1.1 1.4 1.9 1.8s1.8.3 2.6.3c1.4 0 3.4-.3 4-1.6.5-1.1 0-2.4-.6-3.5"/><path id="Q" d="M25.2 111.3c-1 4 2.2 5.3 5.8 5 1.1-.2 2.4-.5 3.2-1.6 1-1.3.3-3.1-.3-4.3-.3-.5-1.1 0-.8.5.6 1.1 1.1 2.7 0 3.7-.6.5-1.6.6-2.4.6s-1.6 0-2.4-.2c-1.9-.5-2.4-1.9-2.1-3.7 0-.4-1-.7-1 0h0z"/><path id="R" d="M26 115.4c-.5 1.1.2 2.6 1.3 3.2s2.4.6 3.5.8c.6 0 1.3 0 1.9-.2.8-.3 1.4-1.3 1.6-2.2.2-1 0-1.9-.3-2.7"/><path id="S" d="M25.5 115.3c-1.1 3.2 2.6 4.5 5 4.7 1.4 0 2.6 0 3.5-1.3 1-1.3.8-3.1.3-4.5-.2-.5-1.1-.3-.8.3.3 1 .5 2.1.2 3.1-.5 1.4-1.8 1.6-3.1 1.6-1.9-.2-5-.8-4.2-3.4.3-.8-.5-1-.9-.5h0z"/><path id="T" d="M24.1 101.3c.6 3.1 5.3 2.4 7.4 1.6.5-.2.3-1.1-.3-1-1.6.6-5.8 1.4-6.3-1 0-.4-1-.2-.8.4h0z"/><path id="U" d="M24.4 104.5c1 3.2 4.8 2.9 7.4 2.1.6-.2.3-1.1-.3-1-2.1.6-5.5 1.3-6.3-1.4 0-.5-1-.3-.8.3h0z"/><path id="V" d="M25.1 108.2c-.6 3.9 4.5 3.4 6.7 2.6.5-.2.3-1.1-.3-1-1.4.5-6.1 1.4-5.6-1.4.1-.5-.7-.8-.8-.2h0z"/><path id="W" d="M25.2 112.2c.2 3.5 5 4 7.5 2.4.5-.3 0-1.1-.5-.8-1.8 1.1-5.9 1.3-6.1-1.6.1-.6-.9-.6-.9 0h0z"/><path id="X" d="M25.5 115.9c-.6 3.5 5 3.4 7.1 2.9.6-.2.3-1-.3-1-1.3.3-6.4.8-5.9-1.8.1-.4-.7-.7-.9-.1h0z"/><path id="Y" d="M26.3 119.8c-.3 3.5 5.3 3.4 7.5 2.7.5-.2.3-1.1-.3-1-1.6.5-6.6 1.1-6.4-1.8.2-.6-.8-.6-.8.1h0z"/><path id="Z" d="M27 123.5c.3 1.8 1.3 2.7 3.2 3.1 2.1.3 3.7-.3 5.1-1.6.5-.3 0-1.1-.5-.8-2.1 1.6-6.3 2.7-7.1-1 .1-.5-.9-.2-.7.3h0z"/><path id="a" d="M46.9 123.6c-.6.2-1.4 2.6-1.3 3.2.2.6.8 1 1.4 1.3 3.2 1.6 6.6 2.4 10.1 2.7 1.3.2 2.6.2 3.9-.3 1.1-.5 2.1-1.9 1.8-3.2-.3-1.4-1.9-2.2-3.4-2.6-2.1-.6-4-1.3-6.1-1.9"/><path id="b" d="M46.6 123.2c-1.6.8-1.9 3.5-.6 4.7 1.6 1.3 4 1.9 5.9 2.4 2.1.5 4.2.8 6.3 1 2.4.2 6.3-1.4 5-4.7-.5-1.1-1.6-1.8-2.7-2.2-2.2-1-4.7-1.6-7.1-2.2-.6-.2-.8.6-.3.8 2.4.8 5 1.3 7.4 2.4 1.3.6 2.4 1.9 1.6 3.4-1 1.6-2.9 1.6-4.5 1.4-2.4-.2-5-.6-7.4-1.4-1-.3-2.6-.8-3.4-1.4-.8-.8-1-2.7.2-3.4.7-.4.2-1.2-.4-.8h0z"/><path id="c" d="M46.6 121.2c-.6 1.6.5 3.5 1.9 4.2 1.6.8 3.5.5 5-.6 1.4-1.1 1.9-3.2 1.4-5"/><path id="d" d="M46.1 121.2c-.8 2.9 1.9 5.5 4.8 5.3 3.4-.3 5.1-3.5 4.5-6.6-.2-.6-1-.3-1 .3.5 2.2-.6 4.8-3.1 5.5-2.4.6-5.1-1.3-4.5-4 .4-.8-.5-1.1-.7-.5h0z"/><path id="e" d="M46.3 117.5c-.6 1.1 0 2.6 1 3.2s2.4.6 3.5.6 2.2-.2 2.9-.8c1-1 .8-2.9 0-4"/><path id="f" d="M45.9 117.2c-.6 1.1-.3 2.4.5 3.4 1.1 1.3 2.9 1.3 4.5 1.3 1.4 0 3.1-.3 3.9-1.8.6-1.3.2-2.7-.5-3.9-.3-.5-1.1 0-.8.5.5.8.8 1.8.5 2.7-.5 1.4-1.9 1.4-3.1 1.6-1.6 0-5.6-.5-4.2-3.2.4-.6-.4-1.1-.8-.6h0z"/><path id="g" d="M44.5 97.5c-.3.3-.6.8-.6 1.3 0 .8.3 1.4.8 1.9s1.1.5 1.6.6c2.1.5 4.5.5 6.1-1.4.2-.3.5-.6.5-1 0-.5 0-1-.3-1.1"/><path id="h" d="M44.2 97.1c-1 1-1.1 2.2-.2 3.4 1 1.3 2.9 1.4 4.3 1.4 1.9 0 6.7-1.9 4.7-4.7-.3-.5-1 .2-.6.6 1.6 1.8-2.9 3.1-3.7 3.1-.5 0-1.1 0-1.6-.2-1-.2-4.3-1-2.1-3.2.1 0-.5-.7-.8-.4h0z"/><path id="i" d="M44.8 100.3c-.6.6-1 1.8-.6 2.7.3 1 1 1.6 1.8 1.9s1.6.5 2.4.5c1.1 0 2.2 0 3.2-.6 1.1-.5 1.9-1.6 1.9-2.7 0-.6-.3-1.3-.6-1.8"/><path id="j" d="M44.5 100c-1 1.1-1.3 2.7-.3 4 1 1.6 3.1 1.9 4.8 1.9 3.1 0 6.6-2.7 4.2-5.9-.3-.5-1 .2-.6.6 2.1 2.6-1.3 4.3-3.5 4.3s-6.1-1.6-3.9-4.3c.4-.4-.2-1.1-.7-.6h0z"/><path id="k" d="M45.3 104.8c-.8.5-.8 1.8-.6 2.7 0 .3 0 .5.2.8s.3.3.6.5c1.9 1 4.2 1 6.1.2.6-.2 1.1-.5 1.4-1.1.3-.5.3-1 .3-1.6s.5-1.8-.5-2.6"/><path id="l" d="M45 104.5c-1 .8-1.3 2.9-.6 4 .8 1.3 3.5 1.6 5 1.4 1.4-.2 3.5-.5 4.2-1.9.6-1.3.6-3.4-.3-4.5-.5-.5-1.1.2-.6.6.6.6.5 1.8.3 2.6-.3 1.8-2.2 2.2-3.9 2.2-1 0-2.2 0-2.9-.5-1.1-.8-1.6-2.4-.5-3.4.4-.3-.3-1-.7-.5h0z"/><path id="m" d="M45.1 109.5c-.2.8-.3 1.8-.2 2.6.3.8 1.1 1.4 1.9 1.8s1.8.3 2.6.3c1.4 0 3.4-.3 4-1.8.5-1.1 0-2.6-.6-3.7"/><path id="n" d="M44.6 109.3c-1 3.9 1.9 5.5 5.5 5.1 1.3-.2 2.7-.3 3.5-1.6 1-1.4.3-3.1-.3-4.5-.3-.5-1 0-.8.5.6 1.3 1.1 2.9 0 4-.6.6-1.8.6-2.7.6-1 0-1.9 0-2.7-.3-1.6-.6-1.9-2.2-1.4-3.7-.1-.4-.9-.5-1.1-.1h0z"/><path id="o" d="M45.6 113.8c-.5 1.3.2 2.7 1.3 3.4 1.1.6 2.4.8 3.5.8.6 0 1.3 0 1.9-.2.8-.3 1.4-1.3 1.6-2.2.2-1 0-1.9-.3-2.9"/><path id="p" d="M45.1 113.7c-1.1 3.2 2.4 4.7 5 4.8 1.3 0 2.6 0 3.4-1.1 1.1-1.4.8-3.2.3-4.8-.2-.6-1.1-.3-1 .3.3 1 .5 2.1.2 3.2-.5 1.4-1.8 1.8-3.1 1.8-1.9-.2-5-1-4.2-3.7.4-.8-.4-1-.6-.5h0z"/><path id="q" d="M43.5 98.9c.5 3.2 5.3 2.6 7.4 1.6.5-.2.3-1.1-.3-1-1.6.6-5.9 1.4-6.3-1 0-.4-.8-.1-.8.4h0z"/><path id="r" d="M44 102.3c1 3.4 4.7 3.1 7.4 2.2.6-.2.3-1.1-.3-1-2.1.6-5.5 1.3-6.3-1.6-.2-.4-1-.3-.8.4h0z"/><path id="s" d="M44.5 106.1c-.6 3.9 4.3 3.5 6.7 2.7.5-.2.3-1.1-.3-1-1.6.6-6.1 1.4-5.6-1.6.1-.4-.7-.6-.8-.1h0z"/><path id="t" d="M44.8 110.5c.2 3.7 5 4.2 7.5 2.6.5-.3 0-1.1-.5-.8-1.9 1.3-5.9 1.1-6.1-1.8-.1-.7-.9-.7-.9 0h0z"/><path id="u" d="M45.1 114.3c-.6 3.7 4.8 3.5 7.1 3.1.6-.2.3-1-.3-1-1.4.3-6.4.8-5.9-1.9.1-.5-.9-.8-.9-.2h0z"/><path id="v" d="M45.9 118.3c-.3 3.7 5.3 3.5 7.5 2.7.5-.2.3-1.1-.3-1-1.6.6-6.6 1.1-6.4-1.9.2-.4-.8-.4-.8.2h0z"/><path id="w" d="M46.4 122.2c.3 1.8 1.3 2.9 3.2 3.2 2.1.3 3.7-.5 5.3-1.8.5-.3-.2-1-.6-.6-2.2 1.8-6.3 2.7-6.9-1-.2-.6-1.1-.3-1 .2h0z"/><path id="x" d="M58 125.2c.8 0 1.4.3 2.1.6.6.3 1.8 1.1 1.4 1.9-.3.5.5 1 .8.5 1-2.2-2.6-3.7-4.2-3.9-.8 0-.8.9-.1.9h0z"/><path id="y" d="M69.1 30.6c.2 4.7 0 9.5-.3 14.1-.2 1.9-.3 4-1.3 5.8-.8 1.4-1.9 2.7-3.2 3.7-2.6 2.1-5.5 3.9-8.8 4.2 0 0-5.3 3.2-3.2 5.6 1.9 2.4 6.4 0 6.4 0 6.6-1 12.2-5.8 14.6-12 2.4-6.3 1.9-14 1-20.6 0 0-.5-3.2-2.2-2.7-1.9.5-3-.3-3 1.9z"/><path id="z" d="M68.4 30.6c.2 5.1.2 10.3-.5 15.3-.3 2.7-1.1 5-3.1 6.9-1.8 1.9-4.2 3.5-6.6 4.3-1.1.5-2.4.3-3.5 1-1 .5-1.9 1.4-2.6 2.2-1.4 1.8-1.6 4 .6 5.1s4.3-.2 6.4-.8c3.5-1 6.6-2.1 9.3-4.7 6.3-5.6 7.4-14.3 6.9-22.3-.2-2.1-.3-4.3-.8-6.4-.2-1-.5-2.1-1.3-2.7-1-.8-2.2-.5-3.4-.3-.9.2-1.4 1-1.4 2.4 0 1 1.3 1 1.4 0 0-1.4 2.4-1.8 3.2-.6.5.6.5 1.6.6 2.2a56.44 56.44 0 0 1 .6 11.6c-.5 7.1-3.2 13.8-9.6 17.5-2.2 1.3-4.5 1.6-6.7 2.4-1 .3-1.9.8-3.1.8-1.8 0-2.9-1.3-1.8-2.9.5-.8 1.4-1.4 2.1-1.9.8-.5 1.4-.5 2.4-.6 3.1-.8 5.9-2.7 8.2-4.8 2.7-2.6 3.4-5.6 3.7-9.2.3-4.7.5-9.5.3-14.1 0-1.3-1.4-1.3-1.3-.4z"/><path id="AA" d="M59.4 57.5a13.28 13.28 0 0 1 1.9 5c.2.8 1.4.5 1.3-.3-.3-1.9-1-3.7-2.1-5.3-.4-.7-1.6-.1-1.1.6h0z"/><path id="AB" d="M63.3 55.7c.8.2 1.4 1.3 1.9 1.9s1 1.4 1.4 2.2c.3.5 1 .3 1.1 0 .2-.3.3-.6.2-1-.2-.8-1.6-.5-1.3.3h0 1.1c-.6-1-1.1-2.1-1.9-2.9-.6-.8-1.3-1.6-2.2-1.9-.8-.1-1.1 1.2-.3 1.4h0z"/><path id="AC" d="M66.7 52.8c1.1.2 2.1.6 2.9 1.4.6.6 1 1.4 1.9 1.6.8.2 1.3-1.1.3-1.3-.5-.2-.8-.6-1.1-1.1l-1-1c-.8-.6-1.8-1-2.7-1.1-.8-.1-1.2 1.3-.3 1.5h0z"/><path id="AD" d="M69.1 45.9c-.2 0-.3-.2-.5-.2 0 .5-.2 1-.2 1.3 1.8.2 3.4.8 4.8 1.9.6.5 1.4-.6.6-1.1-1.6-1.3-3.5-1.9-5.5-2.1-.8 0-1 1.1-.2 1.3.2 0 .3.2.5.2.9.3 1.4-1 .5-1.3h0z"/><path id="AE" d="M69.7 41.9a9.65 9.65 0 0 1 4.5.5c.8.2 1.3-1.1.3-1.3-1.6-.5-3.2-.6-5-.5-.8 0-.8 1.4.2 1.3h0z"/><path id="AF" d="M69.5 36.9c1.4 0 2.9.2 4.3.5.8.2 1.3-1.1.3-1.3-1.4-.3-3.1-.5-4.7-.5-.7 0-.7 1.3.1 1.3h0z"/><path id="AG" d="M69.7 33h1.8c.3 0 1.6 0 1.8.3 0-.2-.2-.5-.2-.6v.2c-.3.8 1 1.1 1.3.3V33c.2-.2 0-.5-.2-.6-.5-.5-1.3-.5-1.9-.6a5.71 5.71 0 0 0-2.6 0c-1 0-1 1.2 0 1.2h0z"/><path id="AH" d="M24.1 99.7c-3.2-1-6.9-2.9-8.2-6.7-1.3-3.9-1.4-8.2-1.6-12.4-.2-6.4-.8-16.4 1-22.5.6-2.1 1.4-4 2.9-5.1 2.4-1.9 5.3-1 8-.3 3.9.8 7.7.8 11.6.2 3.2-.6 6.4-1.8 9.6-1.4s6.7 2.1 8 5.8"/><path id="AI" d="M24.2 99.1c-2.4-.8-4.8-1.9-6.4-3.9-1.9-2.4-2.2-5.9-2.6-9-.5-5.5-.6-11.1-.5-16.5 0-2.7.2-5.6.6-8.4.5-2.6 1.1-5.8 3.1-7.5 2.6-2.4 6.3-.8 9.2-.3 3.1.5 6.1.5 9.2.2 3.5-.5 6.9-1.9 10.6-1.8 3.4.2 6.4 2.1 7.5 5.3.3.8 1.6.5 1.3-.3-2.2-5.9-8.2-7.1-14-5.8-4 .8-7.9 1.8-12 1.3-3.2-.3-6.7-1.9-10-1.1-5.6 1.4-6.4 9.6-6.6 14.5-.5 6.6-.3 13.5.2 19.9.3 3.5.6 7.5 2.9 10.4 1.8 2.2 4.5 3.5 7.2 4.3.8.3 1.3-1 .3-1.3h0z"/><path id="AJ" d="M25.1 51.5c-3.2-.2-4.3-.2-6.9 1.1 1.1.8 2.4 1.4 3.5 2.1.5.3 1 .5 1.4.5.6.2.5 1.6 1 1.4 3.2-.5 5.1-1.1 8.4-.6 2.2.3 7.1 0 9.3 0 4.5.2 9.3-.6 13.5 1-1.9-3.4-6.3-6.7-10.1-6.3-1.9.2-3.7 1-5.5 1.4-2.9.8-5.8 1.1-8.7.6-1.9-.4-3.9-1.2-5.9-1.2"/><path id="AK" d="M25.1 50.7c-2.7-.2-4.8 0-7.2 1.3-.5.3-.5 1 0 1.1a17.55 17.55 0 0 0 4.2 2.4c1 .5.8.5 1.3 1.3.2.3.3.5.6.5.5.2 1.3-.2 1.8-.2l2.9-.5c1.8-.2 3.4.2 5.1.2 2.9.2 5.9-.2 8.8-.2 4.3 0 8.5-.5 12.7.8.6.2 1.1-.5.8-1-2.4-4-6.9-7.4-11.9-6.4-3.4.6-6.3 2.1-9.8 2.1-3.2.4-6-1.2-9.3-1.4-1 0-.8 1.3 0 1.4 2.7.2 5.3 1.4 8 1.6s5.3-.3 7.9-1.1c2.7-.8 5.3-1.8 8.2-.5 2.4 1.1 4.5 3.1 5.8 5.3.3-.3.5-.6.8-1-3.7-1.3-7.5-1-11.4-1-3.2 0-6.3.2-9.5.2-1.6 0-3.1-.3-4.7-.3s-3.2.4-4.7.7c-1.1.2-.8.2-1.3-.6-.2-.3-.3-.5-.6-.6-.8-.5-1.6-.6-2.4-1.1s-1.8-1-2.6-1.6v1.1c2.2-1.1 4.2-1.1 6.6-1.1.8.1.8-1.2-.1-1.4h0z"/><path id="AL" d="M23 48.5l-3.4-4.7-1-1.6c-.3-.8-.3-1.6-.3-2.4.2-7.2.2-14.5 1.6-21.5 7.4-.6 14.8-1.1 22-1.1.5 0 1 0 1.3.2s.6.5 1 1l2.4 3.4c-.2 0-.3 0-.6-.2"/><path id="AM" d="M23.6 48.1c-1.4-2.1-4-4.5-4.3-7.1-.3-2.2 0-4.8.2-7.2.2-5.1.5-10.3 1.4-15.4-.2.2-.5.3-.6.5 4.7-.5 9.3-.8 13.8-1 2.2-.2 4.5-.2 6.7-.2 1.6 0 2.6 0 3.5 1.3.6 1 1.3 1.9 2.1 2.9.3-.3.5-.6.8-1-.2 0-.3 0-.6-.2-.8-.2-1.3 1.1-.3 1.3.2 0 .3 0 .6.2.5.2 1.1-.5.8-1-1-1.4-2.1-3.9-3.9-4.7-.8-.3-1.8-.2-2.6-.2-1.4 0-2.9 0-4.3.2-5.6.2-11.1.5-16.7 1-.3 0-.6.2-.6.5-1.1 5.6-1.5 11-1.6 16.5 0 2.4-.5 5.3.2 7.5.6 2.4 2.9 4.7 4.3 6.6.3.8 1.6.2 1.1-.5h0z"/><path id="AN" d="M41.6 48.1l-16.4.8c-.3 0-.6 0-1-.2-.6-.3-.6-1.1-.8-1.8a89.9 89.9 0 0 1 1.4-22.6c.2-.6.3-1.4.8-1.8.5-.3 1.1-.3 1.6-.3h18.5c.6 0 1.4 0 1.8.5.3.3.3.8.3 1.3l1.9 21.2c0 .5 0 1-.2 1.3-.3.3-1.3 1-1.8 1-2.1.5-4.2.6-6.1.6"/><path id="AO" d="M41.6 47.5l-8.8.5-4.2.2c-.6 0-1.4 0-2.1.2-.3 0-.8.2-1.1 0-.8-.2-1-.6-1.1-1.1-.3-1.3-.2-2.9-.2-4.3v-4.7l.8-8.8c.2-1.4.2-3.4.8-4.8.8-2.1 3.2-1.6 5-1.6h9.2 4.2c.6 0 1.4-.2 2.1 0 1.1.3 1.1 1.4 1.1 2.4l.8 8.8 1 10c0 .8.3 1.8-.5 2.4-.6.5-1.8.5-2.6.6l-4.4.2c-1 0-1 1.4 0 1.4 1.6 0 3.4-.2 5-.3 1.3-.2 2.4-.2 3.4-1.1.8-.8.6-1.8.6-2.7l-.6-6.4c-.3-4-.8-8-1.1-12-.2-1.1 0-2.7-.6-3.7s-2.1-.8-3.1-.8h-12-5.6c-1.3 0-2.2.3-2.7 1.4-.6 1.3-.6 3.2-1 4.7-.3 1.8-.5 3.7-.6 5.5-.3 4-.5 8-.3 12 0 1.1-.2 2.9.8 3.9s3.1.5 4.3.5l13.8-.6c.5-.5.5-1.8-.3-1.8h0z"/><path id="AP" d="M28.3 33.4v-6.7c0-.3 0-.6.3-.8.2-.2.3-.2.5-.2 4.8-.3 9.6-.2 14.3.3.2 0 .3 0 .5.2.3.2.3.5.3.8.3 2.1.3 4.3.3 6.4-5 .5-9.8.8-14.8 1-.3-.1-1.4-.4-1.4-1"/><path id="AQ" d="M28.7 33.4V30c0-.8-.3-2.2 0-3.1.6-1.6 5.3-1.1 6.9-1.1 2.1 0 4.5-.2 6.4.3s1.9 1.8 2.1 3.5c0 1.1.2 2.4.2 3.5l.5-.5-8 .6c-1.3.3-7.9 1.3-8.1.2-.2-.6-1-.5-1 .2.3 2.1 4.3 1.1 5.6 1.1 3.7-.2 7.5-.5 11.2-.8a.47.47 0 0 0 .5-.5c0-1.6 0-3.4-.2-5 0-.6 0-2.1-.6-2.6s-2.1-.5-2.9-.5c-1.8-.2-3.5-.2-5.5-.3h-5c-.8 0-2.1-.2-2.7.5-.6.6-.5 2.1-.5 2.9v5c.2.6 1.1.6 1.1 0h0z"/><path id="AR" d="M33.2 37.9c2.1.2 5.3 0 7.2-.2.6 1.4.6 3.2 0 4.8-.6 1.4-2.1 2.6-3.5 2.7h-1.1c-.6-.2-1.6-.6-2.1-1.1-1.1-1.4-1.1-2.4-1-4.3.1-.3.2-1.8.5-1.9"/><path id="AS" d="M33.2 38.3c2.4.2 4.8 0 7.2-.2-.1-.1-.3-.1-.4-.2.6 1.6.6 3.4-.2 4.8s-2.6 2.6-4.2 2.1-2.4-1.9-2.4-3.5c0-.6-.2-2.4.3-2.9s-.2-1.1-.6-.6c-1 .8-.6 3.4-.5 4.3.3 1.8 1.4 3.1 3.2 3.7 1.8.5 3.5-.5 4.7-1.8 1.4-1.8 1.6-4.2.8-6.3 0-.2-.2-.3-.5-.3-2.4.3-4.8.3-7.2.2-.8-.2-.8.7-.2.7h0z"/><path id="AT" d="M21.5 58.4c.5-3.1 3.1-3.1 4.3-3.1 7.2.2 14.5 1.1 21.7.2 2.4-.3 4.8-.8 6.9.6 2.1 1.3 3.2 4.2 3.5 7.1s.2 5.8.2 8.7c0 5.1.5 10.3 1 15.6.2 2.4.3 5-.8 6.9s-3.1 2.7-4.8 3.2c-2.6.6-5.3 1-7.9 1.3l-7.9.8c-4.2.5-8.4.8-12.7.3-.6 0-1.3-.2-1.8-.6-1.4-1.1-1.6-3.5-1.6-5.6l-.1-35.4"/><path id="AU" d="M22.2 58.6c.3-1.8 1.4-2.4 3.2-2.6 2.2-.2 4.7.2 7.1.3 5 .3 10.1.5 15.1-.2 2.1-.3 4.7-.8 6.6.5s2.7 3.9 3.2 6.1c.8 4.8 0 9.8.3 14.6l.5 7.1c.2 2.4.6 5 .2 7.4-1 5.1-7.2 5.5-11.4 5.9-5 .5-10 1.1-14.8 1.4-2.2.2-5 .3-7.2-.2-2.9-.6-2.6-3.9-2.6-6.1V58.4c0-1-1.4-1-1.4 0V77c0 5.9-.3 12.2.2 18.2.2 1.6.5 3.5 1.9 4.7 1.8 1.3 4.8 1 6.7 1 5.9 0 12-1 18-1.6 3.9-.5 9.2-.8 11.2-4.7 1.1-1.9 1.1-4.5 1-6.7-.2-2.9-.5-5.8-.6-8.7a141.33 141.33 0 0 1-.3-9.2c0-2.6.2-5.1-.3-7.7-.8-4.2-3.2-7.9-7.9-7.9-3.2 0-6.4.8-9.8.8s-6.7-.2-10.1-.3c-3.5-.2-9.2-1.3-10 3.4-.3.9 1 1.2 1.2.3h0z"/><path id="AV" d="M8 97.6c-.2-.8-.8-1.3-1.3-1.8-.6-.6-1.4-1.1-2.2-1.1-1.3-.2-2.4.8-2.6 2.1s.2 2.6 1.1 3.4"/><path id="AW" d="M8.7 97.5c-.8-2.1-3.5-4.3-5.8-3.1-2.4 1.4-2.1 4.5-.5 6.3.6.6 1.6-.3 1-1-1-1.1-1.4-3.4.2-4.2 1.4-.8 3.4 1 3.7 2.2.4.9 1.7.6 1.4-.2h0z"/><path id="AX" d="M2.1 109.3c.2-2.2-.8-4.3-.5-6.6.3-1.1 1-2.2 1.8-3.1 1-1 2.1-1.8 3.5-2.1 1.3-.3 2.9 0 3.9 1 .5.6 1 1.3 1.1 2.1 1.1 2.7 1.8 5.6 1.9 8.5-1 .5-2.1.6-3.2.8l-1-4c-.2-.6-.3-1.3-.6-1.8s-1.1-1-1.6-.8c-.6.2-1 .6-1.1 1.3s0 1.3 0 1.8c.2 1.4.5 3.1 1 4.5l-4.2.5h-.5c-.2-.2-.2-.3-.2-.5 0-.6-.3-1.3-.3-2.1"/><path id="AY" d="M2.9 109.3c0-2.1-.8-4.3-.5-6.3.5-2.2 2.6-4.3 4.8-4.8 5-1 5.9 7.5 6.1 10.9.2-.2.3-.5.5-.6-1 .3-1.9.6-3.1.8.2.2.5.3.6.5-.5-1.9-1-7.9-4.3-7.1-3.2.8-1.1 6.4-.6 8.4.2-.3.5-.6.6-.8-1.1.2-2.4.2-3.5.5-.8.2-.3.2-.6-.3-.2-.5-.2-1.1-.2-1.6 0-.8-1.4-1-1.4 0 0 .8 0 2.7.8 3.2.5.3 1.1.2 1.6 0 1.1-.2 2.1-.3 3.2-.5.5 0 .8-.3.6-.8-.2-.8-.5-1.8-.6-2.6-.2-.5-.2-.8-.2-1.3.2-.2.2-.5.2-.6-.5-1-.2-1.3.8-1.3 1.3-.2 1.1-.2 1.3.8.2.5.2.8.3 1.3.3 1 .6 2.1.8 3.1 0 .3.3.5.6.5 1.1-.2 2.2-.3 3.4-.8.3-.2.5-.3.5-.6-.3-4.2-1.3-12.8-7.2-12.4-2.4.2-4.5 1.9-5.8 4-1.6 2.7-.3 5.6-.3 8.5.1.7 1.4.7 1.6-.1h0z"/><path id="AZ" d="M3 109l2.9-.5c.6-.2 1.3-.5 1.1-1.1-.2-.8-1.4-.5-1.3.3v.2c0-.2.2-.5.2-.6-.2.2-1.1.2-1.4.3-.6.2-1.1.2-1.8.3-.9 0-.6 1.3.3 1.1h0z"/><path id="Aa" d="M10.9 107.6l2.6-.6c.8-.2.5-1.6-.3-1.3l-2.6.6c-.8.1-.5 1.4.3 1.3h0z"/><path id="Ab" d="M67.8 25.5c0 .8.3 1.4.6 2.1.3.8 1 1.4 1.6 1.8 1.1.5 2.6 0 3.2-1.1.6-1 .6-2.4.2-3.5"/><path id="Ac" d="M67 25.5c0 2.2 1.8 5.1 4.3 4.8 2.7-.3 3.5-3.4 2.7-5.6-.3-.8-1.6-.5-1.3.3.6 1.4.5 3.5-1.4 3.9-1.8.3-2.9-2.1-2.9-3.5 0-.9-1.4-.9-1.4.1h0z"/><path id="Ad" d="M76.4 15.1c-.5 2.1.3 4.5-.3 6.6-.3 1.1-1.1 2.1-2.1 2.9-1.1 1-2.4 1.6-3.7 1.6s-2.9-.3-3.7-1.4c-.5-.6-.8-1.4-1-2.1-.8-2.9-1.1-5.8-1-8.7 1-.6 2.1-.6 3.2-.6l.5 4.2c.2.6.2 1.3.5 1.9s1 1 1.6 1 1.1-.6 1.3-1.1c.2-.6.2-1.1.2-1.8 0-1.4-.2-3.1-.3-4.5h4.2c.2 0 .3 0 .5.2s.2.3 0 .5c-.2.6.2 1.4 0 2.1"/><path id="Ae" d="M75.8 14.9c-.3 2.1.3 4.2-.3 6.3s-2.7 3.9-4.8 4.3c-5.5 1.1-5.5-8.2-5.3-11.7-.2.2-.3.5-.5.6 1-.3 2.1-.3 3.1-.3l-.6-.6c.3 1.9 0 7.9 3.4 7.7s2.1-6.3 1.8-8.2l-.6.6h3.5c.8 0 .3-.2.5.5v1.6c0 .8 1.3.8 1.4 0 0-.8.3-2.7-.5-3.2-1.1-.6-3.5-.2-4.8-.2-.3 0-.8.3-.6.6.2.8.2 1.8.3 2.6 0 .5 0 .8.2 1.3 0 1.1.2 1.1-.8 1.8-1.1.6-1 .6-1.3-.5-.2-.5-.2-1.1-.2-1.6-.2-1-.3-2.1-.5-3.1a.65.65 0 0 0-.6-.6c-1.1 0-2.2.2-3.5.5-.3 0-.5.3-.5.6-.2 4.2-.2 13 5.8 13.2 2.2 0 4.5-1.4 5.9-3.2 2.1-2.6 1-5.5 1.4-8.5-.4-1.2-1.7-1.5-1.9-.5h0z"/><path id="Af" d="M75.6 15.1c-1 0-1.9.2-2.9.2-.6 0-1.4.2-1.4 1s1.4 1 1.4 0v-.2c0 .2-.2.3-.2.5h.6.8c.5 0 1.1 0 1.6-.2 1.1.1 1.1-1.3.1-1.3h0z"/><path id="Ag" d="M67.6 15.7c-1 .2-1.8.2-2.7.3a.65.65 0 0 0-.6.6c0 .3.3.8.6.6 1-.2 1.8-.2 2.7-.3a.65.65 0 0 0 .6-.6c.1-.3-.3-.6-.6-.6h0z"/><path id="Ah" d="M26.7 67.1c.3-1.9 2.2-2.1 3.2-1.9 5.3.2 10.6.6 15.7.2 1.8-.2 3.5-.5 5 .3 1.4.8 2.2 2.7 2.6 4.5.3 1.8.2 3.7.2 5.6 0 3.4.5 6.7.6 10 .2 1.6.2 3.2-.6 4.5s-2.2 1.8-3.5 2.1c-1.9.5-3.9.6-5.8.8s-3.9.3-5.8.5c-3.1.3-6.1.6-9.2.2-.5 0-1-.2-1.3-.3-1.1-.6-1.1-2.2-1.1-3.7V67.1"/><path id="Ai" d="M27.5 67.4c.6-2.2 5.3-1.3 6.9-1.1 3.4.2 6.7.3 10.1 0 1.3-.2 2.6-.5 4-.3 1.9.2 3.2 1.6 3.7 3.4.8 3.1.2 6.6.3 9.6.2 2.9 1 6.1.6 9.2-.3 3.9-5.5 3.9-8.4 4l-9.6.8c-1.6.2-3.1.2-4.7 0-.8 0-2.1 0-2.6-.6s-.5-1.8-.5-2.6c-.2-7.5 0-15.1 0-22.6 0-1.1-1.8-1.1-1.8 0v13.2V87c0 1.8-.2 3.9.3 5.5 1 3.2 5.1 2.6 7.7 2.6 4.2-.2 8.5-.6 12.7-1.1 2.9-.3 6.6-.6 8-3.7.6-1.3.6-2.7.5-4.2-.2-2.2-.5-4.5-.6-6.7-.3-3.7.6-8-.8-11.6-1.3-2.9-3.7-3.9-6.7-3.5-4.8.6-9.3.5-14.1.3-2.6-.2-6.1-.6-6.9 2.6-.2.9 1.5 1.3 1.9.2h0z"/><path id="Aj" d="M49 60.5c-.3.6 0 1.3.6 1.3s1.3-.8 1-1.4c-.3-.7-1.5-.7-1.6.1"/><path id="Ak" d="M41.8 60.3c-.3.8 0 1.6 1 1.8 1 0 1.8-1.1 1.3-1.9-.6-.8-2-.8-2.3.1"/><path id="Al" d="M45.6 60.3c-.3.8 0 1.6 1 1.8 1 0 1.8-1.1 1.3-1.9s-2.1-.8-2.3.1"/><path id="Am" d="M32.9 31.1c-.2-.5-.3-.8-.2-1.3-.2.2-.2.3-.3.5-.2.2 0 0 0 .2v.5.5.2h0c.2 0 .2 0 .3-.2.2.2.2.2 0 0v-.2c0-.2-.1-.3-.1-.3 0-.3 0-.5.2-.8.3-.8-.8-1.4-1.1-.6-.5 1-.5 2.2.3 3.1.3.3 1 .5 1.3.2.5-.3.6-.8.6-1.3.2-1-.3-2.4-1.6-2.2-1.4 0-1 2.1-.6 2.9.4.3 1.5-.4 1.2-1.2h0z"/><path id="An" d="M41 30.8c-.3-.5-.3-1.1 0-1.8-.3 0-.6.2-1.1.2.5.5.6 1 .3 1.6.3-.2.5-.2.8-.3-.2 0-.3-.2-.3-.5.3-.8-1-1.1-1.3-.3-.3 1 .3 1.8 1.3 2.1.3.2.6 0 .8-.3.5-1.1.3-2.4-.6-3.2-.3-.3-1-.3-1.1.2a3.39 3.39 0 0 0 0 3.1c.3.6 1.6 0 1.2-.8h0z"/><path id="Ao" d="M28.9 27.7c0-.2.2-.5.2-.6 0-.2 0-.5.2-.6.2-.2.5 0 .6 0 .3 0 .6 0 .8.2.3 0 .5-.3.2-.5-.5-.2-1.3-.3-1.9 0-.2.2-.3.3-.3.5-.2.3-.2.8-.2 1.1-.1.1.4.3.4-.1h0z"/><path id="Ap" d="M42.9 33.4c.5 0 1.1 0 1.4-.5.2-.2.2-.5.2-.8V31c0-.3-.5-.3-.5 0v1.3c0 .3-.2.3-.5.3s-.5 0-.8.2c-.3.1-.1.6.2.6h0z"/><path id="Aq" d="M34.7 39.5l4.3-.2a2.62 2.62 0 0 1 0 2.7c-.5.8-1.1 1.4-2.1 1.6h-.6c-.3-.2-1-.3-1.3-.6-.6-.8-.6-1.4-.6-2.6.1-.1.1-.9.3-.9"/><path id="Ar" d="M45.6 39v-3.2c0-.6-1-.6-1 0V39c0 .5 1 .5 1 0h0z"/><path id="As" d="M43.4 37.5h3.1c.6 0 .6-1 0-1h-3.1c-.7.2-.7 1 0 1h0z"/><path id="At" d="M26.8 38h2.6c.6 0 .6-.8 0-1-.8 0-1.8-.2-2.6 0-.6.1-.6 1 0 1h0z"/><path id="Au" d="M29.4 69.8c-.5 1.1 0 2.2 1.1 2.2 1.3.2 2.2-1.4 1.8-2.6-.5-1-2.4-.9-2.9.4"/><path id="Av" d="M48.3 86.8c-.5 1.1 0 2.2 1.1 2.2 1.3.2 2.2-1.4 1.8-2.6-.4-.8-2.4-.7-2.9.4"/><path id="Aw" d="M46.4 69.8c-.5 1.1 0 2.2 1.1 2.2 1.3.2 2.2-1.4 1.8-2.6-.6-.9-2.6-.9-2.9.4"/><path id="Ax" d="M30.4 88.9c-.5 1.1 0 2.2 1.1 2.2 1.3.2 2.2-1.4 1.8-2.6-.7-.8-2.6-.8-2.9.4"/><path id="Ay" d="M31.3 78.7c2.2-1 2.1 2.6 2.7 3.9.5.8 1.3 1.4 2.2 1.6 3.2.5 2.4-3.2 2.4-5.1 0-1.3.8-3.2 2.6-3.1 1.6.2 1.4 2.2 1.6 3.4s.5 2.6 1.6 3.2c.6.5 1.6.2 2.2 0 .3-.2.6-.2.8-.5 0-.2.2-.2.2-.3v-.5c-.2-.8.3-1.4 1.6-1.6.5.3 1.1-.3.6-.6-.8-.6-1.8-.8-2.6-.2-.3.3-.6.6-.6 1.1-.2 1 .3 1.9-1 1.9-3.2 0-.6-7.4-5-6.7-1.1.2-2.1.8-2.6 1.8-.3.8-.3 1.6-.3 2.4 0 .6.3 2.1 0 2.9-.6 1.3-1.8 1.3-2.6.5-.5-.5-.8-1.1-1-1.8-.2-.6 0-1.6-.3-2.2-.6-1.3-1.9-1.1-3.1-.6-.2-.2 0 .8.6.5h0z"/><path id="Az" d="M25.5 23.2c-2.2-1.1-3.2-4.3-5.6-5.1a238.21 238.21 0 0 1 23.9-.3c.3 0 .5 0 .8.2s.5.5.6.8l1.9 4c-2.4-.5-5-.6-7.5-.6-4.7-.2-9.5-.3-14 1"/><path id="BA" d="M25.9 22.6c-2.2-1.3-3.1-4-5.6-5.1-.2.5-.2.8-.3 1.3 5-.3 10-.5 14.8-.5H42c1.4 0 2.4 0 3.1 1.4a42.33 42.33 0 0 1 1.4 3.1c.3-.3.5-.6.8-1-3.7-.6-7.4-.6-11.1-.8-3.7 0-7.2.2-10.8 1-.8.2-.5 1.6.3 1.3 3.4-.8 6.9-1 10.4-1s7.2 0 10.8.6c.6.2 1-.5.8-1-.6-1.4-1.4-4.3-3.1-5.1-1-.3-2.1-.2-3.1-.2h-4.3c-5.8 0-11.6.2-17.3.5-.6 0-1 1-.3 1.3 2.4 1.1 3.2 3.9 5.6 5.1.7.7 1.5-.4.7-.9h0z"/><path id="BB" d="M26.8 20l5.5-.2h.3c.2 0 .2-.2.2-.3.2-1.1.2-2.4.3-3.5l-5.9-.2c-.2 1.3-.4 2.8-.4 4.2-.6-.2-1.3-.5-1.4-1-.2-.3 0-.6 0-1.1.2-1.1.5-2.2.8-3.4.2-.3.3-.6.5-1"/><path id="BC" d="M26.8 20.5H30c.6 0 1.9.2 2.6-.2.3-.2.3-.3.5-.8.3-1.1.2-2.4.3-3.5a.47.47 0 0 0-.5-.5c-1.9 0-4-.2-5.9-.2-.2 0-.5.2-.5.5.2 1.4 0 2.9-.2 4.3.2-.2.5-.2.6-.3-1.9-1-.8-4.5.2-5.9.3-.5-.5-1-.8-.5-.8 1.3-1.3 3.1-1.4 4.7-.2 1.4.3 2.1 1.6 2.6.2.2.6 0 .6-.3.2-1.4.3-3.1.2-4.5l-.5.5 5.9.2-.5-.5c0 .8 0 1.6-.2 2.4-.2 1-.3 1.1-1.3 1.1-1.3 0-2.7.2-4 0-.5-.1-.5.9.1.9h0z"/><path id="BD" d="M36.5 19.9c1.9 0 3.9 0 5.9-.3.2 0 .2 0 .2-.2v-.2l.8-3.5-6.7-.3c.1 1.6.1 3-.2 4.5-.5-.2-1.1-.5-1.3-1.1-.2-.3 0-.6 0-1.1.2-1.1.5-2.2.8-3.4.2-.3.3-.6.5-1"/><path id="BE" d="M36.5 20.2H40c.6 0 2.1.2 2.6-.3 1-.6 1-3.1 1.1-4 0-.3-.2-.6-.5-.6l-6.7-.3c-.2 0-.5.2-.5.5.2 1.4 0 2.9-.2 4.3.2-.2.5-.2.6-.3-1.9-1-.6-4.7.2-5.9.3-.5-.5-1-.8-.5-.8 1.3-1.3 3.1-1.4 4.7.1 1.3.6 1.9 2.1 2.4.2.2.5 0 .5-.3.2-1.4.3-3.1.2-4.5l-.5.5 6.7.3a3.17 3.17 0 0 1-.5-.6l-.5 2.4c-.2 1-.2 1.1-1.1 1.1l-4.8.2c-.7.1-.7.9 0 .9h0z"/><path id="BF" d="M26.5 16.2c.3-1-.2-2.2.2-3.1 0 0 0-.2.2-.2h.3c1.8.2 3.4.2 5.1.3h.3l.2.2c.3.8.5 1.8.3 2.7 0 .2 0 .2-.2.2h-.3c-2.1 0-4-.1-6.1-.1"/><path id="BG" d="M27 16.3c.2-.5.2-.8.2-1.3v-1c0-.5 0-.5.3-.6.5-.2 1.6 0 2.1.2.6 0 1.6 0 2.2.2s1.1 1.3 1 1.9c-.2.3 0 .2-.5.2h-1c-1.4 0-3.1 0-4.5-.2-.6 0-.6 1 0 1 1.3 0 2.7 0 4 .2.6 0 1.9.3 2.6 0 .8-.5.3-3.2-.2-3.7s-1.1-.3-1.8-.3c-1.3 0-2.9-.3-4.2-.2-1.6.2-.8 2.4-1 3.5-.2.5.6.6.8.1h0z"/><path id="BH" d="M36.8 16.2c.3-1-.2-2.2.2-3.1 0 0 0-.2.2-.2h.3c1.8.2 3.4.2 5.1.3h.3l.2.2c.3.8.5 1.8.3 2.7 0 .2 0 .2-.2.2h-.3c-2.1 0-4.2 0-6.1-.1"/><path id="BI" d="M37.3 16.3c.2-.5.2-.8.2-1.3v-1c0-.5 0-.5.3-.6.5-.2 1.6 0 2.1.2.6 0 1.6 0 2.2.2s1.1 1.3 1 1.9c-.2.3 0 .2-.5.2h-1c-1.4 0-3.1 0-4.5-.2-.6 0-.6 1 0 1 1.3 0 2.7 0 4 .2.6 0 1.9.3 2.6 0 .8-.5.3-3.2-.2-3.7s-1.1-.3-1.8-.3c-1.3 0-2.9-.3-4.2-.2-1.6.2-.8 2.4-1 3.5-.4.5.6.8.8.1h0z"/><path id="BJ" d="M27.8 18.6c.5-.5.8-1 1.3-1.4.3-.5-.3-1.1-.6-.6-.5.5-.8 1-1.3 1.4-.4.4.3 1.1.6.6h0z"/><path id="BK" d="M29.1 19.5l2.6-2.4c.5-.3-.2-1-.6-.6-1 .8-1.8 1.4-2.6 2.4-.6.3.1 1 .6.6h0z"/><path id="BL" d="M31.3 19.9c.2-.2.3-.5.5-.6.2-.2.3-.3.2-.6-.2-.2-.5-.3-.6-.2-.3.2-.5.5-.8.6-.2.2-.2.5 0 .6.2.3.6.3.7.2h0z"/><path id="BM" d="M37.9 18.3l1-1c.2-.2.3-.5.2-.6 0-.2-.3-.3-.5-.2-.5.3-.8.6-1.3 1.1-.2.2-.2.5 0 .6.1.2.4.2.6.1h0z"/><path id="BN" d="M39.2 19.5c.8-.6 1.4-1.3 2.2-1.8.5-.3 0-1.1-.5-.8l-2.4 1.9c-.4.4.2 1.1.7.7h0z"/><path id="BO" d="M41.1 19.7c.5-.2.8-.5 1.1-.8.5-.5-.2-1.1-.6-.6-.3.3-.6.5-1 .8-.5.1-.1.9.5.6h0z"/><path id="BP" d="M21.5 44.6a76.79 76.79 0 0 1 .6-21.4c.2-.6-.8-.8-.8-.3-1.3 7.1-1.4 14.3-.6 21.5-.1.8.8.8.8.2h0z"/><path id="BQ" d="M19.1 29.8l2.4.8c.6.2.8-.8.3-.8-.8-.2-1.4-.5-2.2-.8-.5-.1-1 .5-.5.8h0z"/><path id="BR" d="M19.6 28.7c.8 0 1.6.2 2.2.5.5.2.8-.6.3-.8-.8-.3-1.6-.5-2.6-.5-.6-.2-.6.8.1.8h0z"/><path id="BS" d="M18.6 39.9c.8.5 1.8 1 2.6 1.3.5.3 1-.5.5-.8-.8-.5-1.8-1-2.6-1.3-.6-.1-1 .7-.5.8h0z"/><path id="BT" d="M18.6 38.5l2.4 1.6c.5.3 1-.5.5-.8l-2.4-1.6c-.5-.3-1 .5-.5.8h0z"/><path id="BU" d="M18.9 96.2c-1.4-5.5-2.2-10.9-2.4-16.5-.2-5.3.2-10.8 2.1-15.9.2-.5-.6-.8-.8-.3-2.1 5.1-2.2 10.6-2.1 16.1.2 5.6 1 11.2 2.4 16.9.2.5 1 .3.8-.3h0z"/><path id="BV" d="M14.3 75.4l3.9 2.4c.5.3 1-.5.5-.8-1.3-.6-2.6-1.4-3.9-2.4-.5-.4-1 .4-.5.8h0z"/><path id="BW" d="M14.4 78.8c.8.6 1.6 1.3 2.6 1.6.5.2.8-.6.3-.8-.8-.3-1.6-.8-2.2-1.4-.5-.3-1.1.3-.7.6h0z"/><path id="BX" d="M5.5 93c-.6-4.7-1.1-9.3-1.3-14.1 0-2.1-.2-4 .6-5.9.6-1.6 1.6-2.9 2.7-4 2.2-2.4 5-4.5 8.2-5.1 0 0 5-3.9 2.6-5.9s-6.3.4-6.3.4C5.6 60.2.5 65.5-1.1 72.1S-1.4 86.2.3 92.7c0 0 .8 3.1 2.6 2.6 1.6-.6 2.9-.3 2.6-2.3z"/><path id="BY" d="M6.1 92.8c-.6-5.3-1.4-10.6-1.3-15.9.2-5 3.7-9.2 8-11.4 1.1-.6 2.6-.8 3.7-1.6a11.46 11.46 0 0 0 2.2-2.2c1.3-1.8 1.4-3.9-.8-5-2.2-1-4.5.5-6.6 1.3-3.2 1.3-6.1 2.7-8.5 5.5-5.5 6-5.9 14.5-4.6 22.4.3 2.4.8 4.8 1.6 7.1.3 1 .8 1.9 1.6 2.6 1 .8 2.4.3 3.5 0 1.4-.6 1.7-1.4 1.5-2.6 0-.8-1.4-.8-1.4 0 .2 1.4-2.1 2.1-3.1 1.3-.6-.5-.8-1.4-1-2.2-.9-4-1.7-8-1.9-11.8-.3-7.1 2-14.2 7.9-18.3 1.9-1.4 4.2-1.9 6.3-3.1 1-.5 2.1-1 3.1-1 1.9 0 2.6 1.4 1.6 2.9-.5.8-1.1 1.4-1.8 2.1-.8.6-1.6.6-2.6 1.1-2.7 1.1-5.3 3.2-7.2 5.5-2.6 3.1-2.9 6.4-2.7 10.3.2 4.5.6 9 1.3 13.5.1.6 1.4.3 1.2-.5z"/><path id="BZ" d="M11.9 65c-1.1-1.3-1.9-2.9-2.4-4.7-.2-.8-1.6-.5-1.3.3.5 1.9 1.4 3.7 2.7 5.1.7.9 1.6-.1 1-.7h0z"/><path id="Ba" d="M8.2 67.3c-.8 0-1.6-1.1-2.1-1.6-.6-.7-1.1-1.3-1.6-2.1-.3-.5-1-.5-1.1 0-.2.3-.3.6-.2 1 .3.8 1.6.5 1.3-.3h0-1.1c.6 1 1.4 1.9 2.2 2.7s1.4 1.4 2.6 1.6c.9.1.9-1.2 0-1.3h0z"/><path id="Bb" d="M5.1 70.6c-1.3-.2-2.2-.5-3.2-1.4-.6-.6-1.1-1.1-1.9-1.1s-.8 1.3 0 1.4c.5 0 1 .6 1.3 1 .3.3.8.6 1.3.8.8.5 1.8.6 2.7.8.8 0 .8-1.5-.2-1.5h0z"/><path id="Bc" d="M3.5 77.7c.2 0 .3 0 .5.2 0-.5.2-1 .2-1.3-1.8 0-3.4-.3-5-1.3-.8-.5-1.4.8-.6 1.1 1.8 1 3.7 1.4 5.6 1.4.8 0 1-1.3.2-1.3-.2 0-.3 0-.5-.2-.9-.2-1.2 1.2-.4 1.4h0z"/><path id="Bd" d="M3.4 81.7c-1.5.3-2.9.3-4.4 0-.8-.2-1.3 1.1-.3 1.3 1.8.3 3.4.2 5.1 0 .9-.2.5-1.5-.4-1.3h0z"/><path id="Be" d="M4.3 86.5a16.95 16.95 0 0 1-4.5 0c-.8 0-.8 1.3 0 1.4a16.95 16.95 0 0 0 4.5 0c.8-.1.8-1.4 0-1.4h0z"/><path id="Bf" d="M4.5 90.5c-.6.2-1.3.2-1.9.2-.3 0-1.4.2-1.6 0 0 .2.2.5.2.6v-.2c.3-.8-1.1-1.3-1.3-.3v.2c0 .2 0 .5.2.6.5.5 1.4.5 2.1.5 1 0 1.8-.2 2.7-.3.7-.1.4-1.4-.4-1.3h0z"/><path id="Bg" d="M13.3 58.6c1 1.3 1.4 3.1 1.4 4.7 0 1 1.3 1 1.4 0 0-1.8-.5-3.9-1.6-5.3-.5-.7-1.7-.1-1.2.6h0z"/><path id="Bh" d="M39 48.6c.8.2 1 1 1 1.3s0 .6-.2.8c-.2.3-.6.5-1.1.6-1.4.5-3.2.3-4.7-.2-.2 0-.3-.2-.5-.3-.2-.2-.2-.3-.2-.5 0-.5 0-1.1.5-1.4.2.2 1.4-1.2 5.2-.3z"/><path id="Bi" d="M38.9 49.1c1.3.5.3 1.6-.5 1.9-.8.2-1.4.2-2.2.2-1 0-3.2-.3-1.8-1.8.9-1.1 3.3-.6 4.5-.3.6.2.8-.8.3-.8-1.6-.5-3.7-.8-5.1.2-.8.6-1.6 1.9-.8 2.9.6.6 2.1.8 2.9.8 1.1 0 2.6 0 3.5-.6 1.4-1 .8-2.7-.5-3.2-.5-.4-.8.5-.3.7z"/><path id="Bj" d="M33.7 51.7c-.2.5-.3 1 0 1.4.2.5.8.8 1.4 1s1.3.2 1.9.2c1.1 0 2.6-.2 3.1-1 .3-.6 0-1.4-.5-1.9"/><path id="Bk" d="M33.4 51.5c-.8 2.7 2.1 3.2 4.2 3.1 1 0 2.1-.2 2.7-.8.8-.8.3-1.9-.2-2.7-.3-.5-1.1 0-.8.5 1.3 1.9-.6 2.2-1.9 2.2-1.1 0-3.7 0-3.1-1.9.1-.7-.7-.9-.9-.4h0z"/><path id="Bl" d="M33.2 50.1c-.5 2.4 4.2 1.8 5.3 1.4.6-.2.3-1-.3-1-.3.2-4.5.8-4.2-.3.2-.5-.8-.8-.8-.1h0z"/><path id="Bm" d="M33.6 53c.8 1.8 4.2 1.6 5.6.8.5-.3 0-1.1-.5-.8-1 .5-3.9.8-4.3-.5-.2-.5-1 0-.8.5h0z"/></defs><clipPath id="Bn"><use xlink:href="#A"/></clipPath><g clip-path="url(#Bn)" class="U V W X"><g class="Z"><use xlink:href="#C" class="Y"/><use xlink:href="#D"/></g><use xlink:href="#E" class="a"/><g class="Z"><use xlink:href="#F" class="Y"/><use xlink:href="#G"/><use xlink:href="#H" class="Y"/><use xlink:href="#I"/><use xlink:href="#J" class="Y"/><use xlink:href="#K"/><use xlink:href="#L" class="Y"/><use xlink:href="#M"/><use xlink:href="#N" class="Y"/><use xlink:href="#O"/><use xlink:href="#P" class="Y"/><use xlink:href="#Q"/><use xlink:href="#R" class="Y"/><use xlink:href="#S"/></g><g class="a"><use xlink:href="#T"/><use xlink:href="#U"/><use xlink:href="#V"/><use xlink:href="#W"/><use xlink:href="#X"/><use xlink:href="#Y"/><use xlink:href="#Z"/></g><g class="Z"><use xlink:href="#a" class="Y"/><use xlink:href="#b"/><use xlink:href="#c" class="Y"/><use xlink:href="#d"/><use xlink:href="#e" class="Y"/><use xlink:href="#f"/><use xlink:href="#g" class="Y"/><use xlink:href="#h"/><use xlink:href="#i" class="Y"/><use xlink:href="#j"/><use xlink:href="#k" class="Y"/><use xlink:href="#l"/><use xlink:href="#m" class="Y"/><use xlink:href="#n"/><use xlink:href="#o" class="Y"/><use xlink:href="#p"/></g><g class="a"><use xlink:href="#q"/><use xlink:href="#r"/><use xlink:href="#s"/><use xlink:href="#t"/><use xlink:href="#u"/><use xlink:href="#v"/><use xlink:href="#w"/><use xlink:href="#x"/></g><use xlink:href="#y" class="c"/><use xlink:href="#z" class="b"/><path d="M59.9,57.1c1.1,1.6,1.8,3.4,1.9,5.1" class="Y c"/><g class="b"><use xlink:href="#AA"/><use xlink:href="#AB"/><use xlink:href="#AC"/><use xlink:href="#AD"/><use xlink:href="#AE"/><use xlink:href="#AF"/><use xlink:href="#AG"/></g><g class="Z"><use xlink:href="#AH" class="Y"/><use xlink:href="#AI"/></g><use xlink:href="#AJ" class="Y d"/><g class="Z"><use xlink:href="#AK"/><use xlink:href="#AL" class="Y"/><use xlink:href="#AM"/></g><use xlink:href="#AN" class="Y c"/><use xlink:href="#AO" class="b"/><g class="a"><use xlink:href="#AP" class="Y"/><use xlink:href="#AQ"/></g><use xlink:href="#AR" class="Y d"/><use xlink:href="#AS" class="Z"/><use xlink:href="#AT" class="Y c"/><use xlink:href="#AU" class="b"/><use xlink:href="#AV" class="Y c"/><use xlink:href="#AW" class="b"/><use xlink:href="#AX" class="Y d"/><use xlink:href="#AY" class="Z"/><g class="b"><use xlink:href="#AZ"/><use xlink:href="#Aa"/></g><use xlink:href="#Ab" class="Y c"/><use xlink:href="#Ac" class="b"/><use xlink:href="#Ad" class="Y d"/><use xlink:href="#Ae" class="Z"/><g class="b"><use xlink:href="#Af"/><use xlink:href="#Ag"/></g><use xlink:href="#Ah" fill="#7cc6cd" class="Y"/><use xlink:href="#Ai" class="b"/><g class="Y Z"><use xlink:href="#Aj"/><use xlink:href="#Ak"/><use xlink:href="#Al"/></g><g class="b"><use xlink:href="#Am"/><use xlink:href="#An"/><use xlink:href="#Ao"/><use xlink:href="#Ap"/></g><use xlink:href="#Aq" class="Y Z"/><g class="e"><use xlink:href="#Ar"/><use xlink:href="#As"/><use xlink:href="#At"/></g><g class="Y"><g class="a"><use xlink:href="#Au"/><use xlink:href="#Av"/></g><g class="b"><use xlink:href="#Aw"/><use xlink:href="#Ax"/></g></g><use xlink:href="#Ay" class="e"/><use xlink:href="#Az" class="Y d"/><g class="Z"><use xlink:href="#BA"/><use xlink:href="#BB" class="Y"/><use xlink:href="#BC"/><use xlink:href="#BD" class="Y"/><use xlink:href="#BE"/></g><use xlink:href="#BF" class="Y a"/><use xlink:href="#BG" class="Z"/><use xlink:href="#BH" class="Y a"/><g class="Z"><use xlink:href="#BI"/><path d="M27.5 18.3c.5-.5.8-1 1.3-1.4" class="Y"/></g><use xlink:href="#BJ" class="a"/><path d="M28.7 19.2l2.6-2.4" class="Y Z"/><use xlink:href="#BK" class="a"/><path d="M31 19.5l.6-.6" class="Y Z"/><use xlink:href="#BL" class="a"/><path d="M37.6 17.9c.3-.5.6-.8 1.1-1" class="Y Z"/><use xlink:href="#BM" class="a"/><path d="M38.9 19.2l2.4-1.8" class="Y Z"/><use xlink:href="#BN" class="a"/><path d="M40.8 19.4c.3-.2.8-.5 1-.8" class="Y Z"/><g class="a"><use xlink:href="#BO"/><use xlink:href="#BP"/><use xlink:href="#BQ"/><use xlink:href="#BR"/><use xlink:href="#BS"/><use xlink:href="#BT"/><use xlink:href="#BU"/><use xlink:href="#BV"/><use xlink:href="#BW"/></g><use xlink:href="#BX" class="c"/><use xlink:href="#BY" class="b"/><path d="M11.4,65.5c-1.3-1.4-2.1-3.1-2.6-5" class="Y c"/><g class="b"><use xlink:href="#BZ"/><use xlink:href="#Ba"/><use xlink:href="#Bb"/><use xlink:href="#Bc"/><use xlink:href="#Bd"/><use xlink:href="#Be"/><use xlink:href="#Bf"/></g><path d="M13.8 58.3c.8 1.1 1.6 3.5 1.4 5" class="Y c"/><use xlink:href="#Bg" class="b"/><g class="Z"><use xlink:href="#Bh"/><use xlink:href="#Bi"/><use xlink:href="#Bj" class="Y"/><use xlink:href="#Bk"/></g><g class="a"><use xlink:href="#Bl"/><use xlink:href="#Bm"/></g></g><g class="U V W X"><use xlink:href="#G" fill="none" class="Y" href="#A"/><use xlink:href="#B"/></g><use xlink:href="#G" fill="#f8dad4" href="#A"/><use xlink:href="#B"/><defs><path id="Bo" d="M63 34.5c0 15.4-13 27.9-28.9 27.8-15.9 0-28.9-12.5-28.9-27.9S18.1 6.4 34 6.5c15.9 0 29 12.6 29 28"/></defs><clipPath id="Bp"><use xlink:href="#Bo"/></clipPath><g clip-path="url(#Bp)"><g class="Z"><use xlink:href="#C"/><use xlink:href="#D"/></g><use xlink:href="#E" class="a"/><g class="Z"><use xlink:href="#F"/><use xlink:href="#G"/><use xlink:href="#H"/><use xlink:href="#I"/><use xlink:href="#J"/><use xlink:href="#K"/><use xlink:href="#L"/><use xlink:href="#M"/><use xlink:href="#N"/><use xlink:href="#O"/><use xlink:href="#P"/><use xlink:href="#Q"/><use xlink:href="#R"/><use xlink:href="#S"/></g><g class="a"><use xlink:href="#T"/><use xlink:href="#U"/><use xlink:href="#V"/><use xlink:href="#W"/><use xlink:href="#X"/><use xlink:href="#Y"/><use xlink:href="#Z"/></g><g class="Z"><use xlink:href="#a"/><use xlink:href="#b"/><use xlink:href="#c"/><use xlink:href="#d"/><use xlink:href="#e"/><use xlink:href="#f"/><use xlink:href="#g"/><use xlink:href="#h"/><use xlink:href="#i"/><use xlink:href="#j"/><use xlink:href="#k"/><use xlink:href="#l"/><use xlink:href="#m"/><use xlink:href="#n"/><use xlink:href="#o"/><use xlink:href="#p"/></g><g class="a"><use xlink:href="#q"/><use xlink:href="#r"/><use xlink:href="#s"/><use xlink:href="#t"/><use xlink:href="#u"/><use xlink:href="#v"/><use xlink:href="#w"/><use xlink:href="#x"/></g><use xlink:href="#y" class="c"/><use xlink:href="#z" class="b"/><path d="M59.9,57.1c1.1,1.6,1.8,3.4,1.9,5.1" class="c"/><g class="b"><use xlink:href="#AA"/><use xlink:href="#AB"/><use xlink:href="#AC"/><use xlink:href="#AD"/><use xlink:href="#AE"/><use xlink:href="#AF"/><use xlink:href="#AG"/></g><g class="Z"><use xlink:href="#AH"/><use xlink:href="#AI"/></g><use xlink:href="#AJ" class="d"/><g class="Z"><use xlink:href="#AK"/><use xlink:href="#AL"/><use xlink:href="#AM"/></g><use xlink:href="#AN" class="c"/><use xlink:href="#AO" class="b"/><g class="a"><use xlink:href="#AP"/><use xlink:href="#AQ"/></g><use xlink:href="#AR" class="d"/><use xlink:href="#AS" class="Z"/><use xlink:href="#AT" class="c"/><use xlink:href="#AU" class="b"/><use xlink:href="#AV" class="c"/><use xlink:href="#AW" class="b"/><use xlink:href="#AX" class="d"/><use xlink:href="#AY" class="Z"/><g class="b"><use xlink:href="#AZ"/><use xlink:href="#Aa"/></g><use xlink:href="#Ab" class="c"/><use xlink:href="#Ac" class="b"/><use xlink:href="#Ad" class="d"/><use xlink:href="#Ae" class="Z"/><g class="b"><use xlink:href="#Af"/><use xlink:href="#Ag"/></g><use xlink:href="#Ah" fill="#7cc6cd"/><use xlink:href="#Ai" class="b"/><g class="Z"><use xlink:href="#Aj"/><use xlink:href="#Ak"/><use xlink:href="#Al"/></g><g class="b"><use xlink:href="#Am"/><use xlink:href="#An"/><use xlink:href="#Ao"/><use xlink:href="#Ap"/></g><use xlink:href="#Aq" class="Z"/><g class="e"><use xlink:href="#Ar"/><use xlink:href="#As"/><use xlink:href="#At"/></g><g class="a"><use xlink:href="#Au"/><use xlink:href="#Av"/></g><g class="b"><use xlink:href="#Aw"/><use xlink:href="#Ax"/></g><use xlink:href="#Ay" class="e"/><use xlink:href="#Az" class="d"/><g class="Z"><use xlink:href="#BA"/><use xlink:href="#BB"/><use xlink:href="#BC"/><use xlink:href="#BD"/><use xlink:href="#BE"/></g><use xlink:href="#BF" class="a"/><use xlink:href="#BG" class="Z"/><use xlink:href="#BH" class="a"/><g class="Z"><use xlink:href="#BI"/><path d="M27.5 18.3c.5-.5.8-1 1.3-1.4"/></g><use xlink:href="#BJ" class="a"/><path d="M28.7 19.2l2.6-2.4" class="Z"/><use xlink:href="#BK" class="a"/><path d="M31 19.5l.6-.6" class="Z"/><use xlink:href="#BL" class="a"/><path d="M37.6 17.9c.3-.5.6-.8 1.1-1" class="Z"/><use xlink:href="#BM" class="a"/><path d="M38.9 19.2l2.4-1.8" class="Z"/><use xlink:href="#BN" class="a"/><path d="M40.8 19.4c.3-.2.8-.5 1-.8" class="Z"/><g class="a"><use xlink:href="#BO"/><use xlink:href="#BP"/><use xlink:href="#BQ"/><use xlink:href="#BR"/><use xlink:href="#BS"/><use xlink:href="#BT"/><use xlink:href="#BU"/><use xlink:href="#BV"/><use xlink:href="#BW"/></g><use xlink:href="#BX" class="c"/><use xlink:href="#BY" class="b"/><path d="M11.4,65.5c-1.3-1.4-2.1-3.1-2.6-5" class="c"/><g class="b"><use xlink:href="#BZ"/><use xlink:href="#Ba"/><use xlink:href="#Bb"/><use xlink:href="#Bc"/><use xlink:href="#Bd"/><use xlink:href="#Be"/><use xlink:href="#Bf"/></g><path d="M13.8 58.3c.8 1.1 1.6 3.5 1.4 5" class="c"/><use xlink:href="#Bg" class="b"/><g class="Z"><use xlink:href="#Bh"/><use xlink:href="#Bi"/><use xlink:href="#Bj"/><use xlink:href="#Bk"/></g><g class="a"><use xlink:href="#Bl"/><use xlink:href="#Bm"/></g></g><use xlink:href="#B"/><path d="M61.1 34.4c-.1 11.1-7.4 21-17.9 24.7-10.8 3.8-23.1.7-30.5-7.9-7.3-8.5-8.3-20.9-2.4-30.3 6-9.6 17.8-14.4 28.8-12.3C50 10.7 58.9 19.2 60.7 30.2c.3 1.4.4 2.7.4 4.2 0 1.8 2.9 1.8 2.9 0C64 22 55.8 11.1 44.2 7c-11.7-4.2-25.6-.7-33.7 8.8-8 9.4-9.1 23.1-2.6 33.6C14.6 60 27.5 65.3 39.8 63c11.9-2.3 21.9-11.9 23.8-24 .3-1.5.4-3.1.4-4.6.1-1.9-2.8-1.9-2.9 0h0z"/></svg>