<svg xmlns="http://www.w3.org/2000/svg" viewBox="0 0 381.28 380.33"><defs><style>.cls-1{fill:#4386c6;}.cls-2{fill:#8eb6e0;}.cls-3{fill:#e66869;}</style></defs><title>Plastilina mapa conceptual</title><g id="gráficos"><rect class="cls-1" x="4.14" y="3.67" width="373" height="373" rx="23.02" ry="23.02"/><path d="M354.12,375.17H33.62c-7.27,0-14.13.11-20.23-5-7.09-5.91-7.75-13.81-7.75-22.12V63.81c0-12.34-.38-24.75,0-37.09C6.06,13,17,5.17,29.81,5.17h278.9c14.84,0,29.68-.14,44.51,0,12.75.11,22.3,9.5,22.42,22.3,0,4.81,0,9.62,0,14.43V350.79c0,12.86-7.62,24-21.52,24.38-1.93.05-1.93,3.05,0,3,14.41-.44,24.44-11.7,24.52-25.81,0-5.5,0-11,0-16.51V71.73c0-14.8.15-29.62,0-44.42A24.94,24.94,0,0,0,354,2.17c-4-.09-8,0-12.06,0H29.62c-11.38,0-21.84,5.32-25.7,16.72C2.25,23.8,2.64,29.14,2.64,34.26v314.1c0,7.21.37,14,5,20.15,5.85,7.69,14.43,9.66,23.46,9.66h323A1.5,1.5,0,0,0,354.12,375.17Z"/><rect class="cls-2" x="27.63" y="29.15" width="326.03" height="326.03" rx="23.02" ry="23.02"/><path d="M330.64,353.68H74.24c-12,0-30.23,2.95-39.27-6.77-8.71-9.38-5.84-27.12-5.84-38.94V154.58c0-34.08-1.06-68.34,0-102.41.41-13.42,11-21.52,23.74-21.52H293.44c12.23,0,24.5-.3,36.73,0,12.51.31,21.85,9.62,22,22.19.05,4.16,0,8.32,0,12.48V330.13c0,12.66-8.23,23.15-21.51,23.55-1.93.06-1.94,3.06,0,3,14-.42,24.37-11.28,24.51-25.19.05-4.31,0-8.63,0-12.94v-227c0-12.94.25-25.89,0-38.82-.26-13.81-10.57-24.68-24.52-25-3-.08-6,0-8.95,0h-269c-9.9,0-19.11,4.13-23.83,13.3-2.72,5.29-2.71,10.73-2.71,16.43V327.53c0,6.4.33,12.5,4,18.12,5.26,8,13.78,11,22.9,11H330.64A1.5,1.5,0,0,0,330.64,353.68Z"/><path class="cls-3" d="M158.21,119.34c-18.58,52-24.29,123.24-29,178.23-.31,3.55-.92,7.56-3.86,9.56-3.66,2.47-9.62.85-12.13,4.48-2.73,3.93,2,9.7,6.78,10a41.73,41.73,0,0,0,15.74-1.81c4.67-1.64,6.61-6.57,9.84-10.31,6.47-7.49,6.95-22.48,14.9-28.36,14-10.36,33.16-8.81,50.45-6.8a6.09,6.09,0,0,1,3.11,1c1.59,1.25,1.52,3.62,1.5,5.64-.11,10.85,7.5,28.13,18,35.59,5.68,4,12.81,2,18.68,1.79a7,7,0,0,0,3.66-.9c3.15-2.09,1.6-7.33-1.49-9.51s-3.27.07-6.44-2c-8.1-5.27-3.57-19.94-1.9-29.46,4.63-26.34,1.35-52.9,1.18-79.64s-5-53.9-17.75-77.42"/><path d="M156.76,118.94C141.89,160.94,136.4,206,132,250.12c-1.13,11.25-2.14,22.51-3.11,33.77-.43,4.94-.68,9.93-1.31,14.84-.44,3.36-1.31,6.64-4.82,7.95-2.31.86-4.92.6-7.23,1.49-6.71,2.59-5.14,10.41.26,13.58,3.58,2.1,8.41,1.55,12.32,1.14,4.17-.43,8.74-1.19,12-4.05,6-5.27,10.09-13.28,12.73-20.64,1.46-4.08,2.71-8.41,5.1-12.07,3.36-5.15,9.69-8,15.42-9.64,10.86-3.16,22.52-2.33,33.63-1.14,3.3.35,6.83.23,7.07,4.3.11,1.92.06,3.81.33,5.73a49,49,0,0,0,3.45,12.11c3.13,7.51,8,15.72,15,20.28,3.74,2.45,7.9,2.86,12.26,2.6,3.42-.2,9,.26,11.9-1.94,5.36-4.07.26-11.44-4.49-13-2.57-.86-4.53-.76-6.1-3.33a13.82,13.82,0,0,1-1.57-6.84c-.15-5,1.07-10,2-14.94,5.6-28.06,2.34-56.94,1.89-85.3-.42-26.45-5.43-52.9-17.94-76.39-.91-1.71-3.5-.2-2.59,1.51,11.11,20.87,16.22,44.22,17.31,67.74.56,12.07.6,24.17,1,36.25.47,12.28.8,24.6-.11,36.87-.74,9.89-3.27,19.38-4.37,29.19-.66,5.83-.57,13.53,5.12,17a10.66,10.66,0,0,0,3.58,1.16c3.81,1,9,6.51,1.45,8.45-4.66,1.18-12.29,1.49-16.59-.76-8.24-4.32-13.75-15.11-16.51-23.55A40.43,40.43,0,0,1,217,280.89c-.09-3-.17-6-3.19-7.46S206.24,272.25,203,272a118.94,118.94,0,0,0-16.12-.54c-9,.41-18.28,2.32-25.84,7.47-6.22,4.23-8.46,11.11-10.86,17.9a42.89,42.89,0,0,1-5.63,11.61c-3,4.13-5.6,8.88-10.79,10.44-4.79,1.43-14.16,3.13-18.08-1-6.68-7,6.24-7.3,9.4-8.84,6.74-3.28,5.84-13.51,6.37-19.72.87-10,1.74-20.08,2.69-30.12,4.46-46.84,9.78-94.82,25.57-139.42.64-1.82-2.25-2.61-2.9-.8Z"/><path class="cls-3" d="M233,136c13.74,10,28,33,33.46,51,4,13.05,6.1,27.06,5,40.67-.42,5.12-6.66,6.59-9.05,2.15-7.15-13.27-10-28.31-20.21-40.33"/><path d="M232.26,137.3C251.69,151.87,264,177.65,268.4,201a102.61,102.61,0,0,1,1.82,22c-.06,2.16.31,4.74-1.21,6.44-1.79,2-3.65,1.64-5.3-.4-2.06-2.54-3.34-6.85-4.59-9.85-4.49-10.78-8.35-21.62-15.85-30.78-1.22-1.49-3.33.64-2.12,2.12,5.74,7,9.32,15.16,12.67,23.5,2.18,5.43,4.17,13.41,8.15,17.75a6.25,6.25,0,0,0,9.46-.13c1.41-1.7,1.53-3.75,1.67-5.86a92.45,92.45,0,0,0-.21-14,115.8,115.8,0,0,0-13.06-44.31c-6.49-12.24-14.87-24.36-26.06-32.75-1.54-1.16-3,1.45-1.51,2.59Z"/><path class="cls-3" d="M147.9,167.91a101,101,0,0,0-19.2-22.77c-5.17-4.58-11-8.89-14-14.73-2-3.82-2.67-8-3.23-12.22-2.3-17-3.21-34.51,1.2-51.09,1.21-4.53,9-3.88,9.06.76V68a155,155,0,0,0,2.85,27c1.79,9.1,4.64,18.48,11.86,25.25,6.07,5.69,14.57,8.91,22.82,12"/><path d="M149.2,167.15a105.16,105.16,0,0,0-15.52-19.41C127.8,142,119.83,137.16,116,129.66c-4.15-8-4.16-19.07-4.67-28a114.23,114.23,0,0,1,1.56-28.84c.46-2.32.57-6.33,3.35-7.24,2-.65,3.34.81,4,2.38.8,1.86.19,5.67.33,7.74.18,2.59.41,5.16.72,7.73,1,8.06,2.22,16.35,5.16,24,5.77,14.91,18.25,20.94,32.42,26.22,1.81.68,2.6-2.22.8-2.89-7.55-2.81-15.43-5.68-21.58-11.07s-9.17-12.9-11-20.55a137.17,137.17,0,0,1-3.63-26.3c-.19-3.74.49-8.1-3.65-9.81-11.29-4.67-11.16,17.11-11.5,23a153.47,153.47,0,0,0,.83,24.81c.69,6.48,1.11,13.6,4,19.56,3.3,6.86,9.78,11.38,15.28,16.35a102.38,102.38,0,0,1,18.31,21.87c1,1.63,3.61.13,2.59-1.52Z"/><path class="cls-3" d="M186.52,144.08a48.44,48.44,0,0,1-31.74-16.85c-8.52-10.15-12.54-24.24-9.57-37.16s13.29-24.15,26.19-27.2c6-1.4,20.93-4.84,27-4.09,15.75,1.95,23,6.62,33.89,18.16s15.33,34.61,7.4,48.36c-9,15.56-30.26,23-53.17,18.78"/><path d="M186.52,142.58c-21.5-2.6-39.92-20.09-40.74-42.29a36.37,36.37,0,0,1,10.86-27.47c6.29-6.14,13.9-8.33,22.23-10.1,7.85-1.66,15.62-3.26,23.61-1.82a44.14,44.14,0,0,1,22.06,10.53c13.26,11.72,21.69,30,16.16,47.77-6.8,21.88-34.19,26.77-53.78,23.43-1.89-.32-2.7,2.57-.8,2.89,19.45,3.32,43.56-.52,54.53-18.91,9.91-16.61,3.4-39.93-9.43-52.95-6.49-6.58-13.62-12-22.63-14.46-9.2-2.56-17.49-1.94-26.74-.14s-17.92,3.61-25.23,9.74a39.17,39.17,0,0,0-13.68,26c-2.58,26.05,18.64,47.81,43.58,50.82,1.92.23,1.9-2.77,0-3Z"/><path d="M189.7,164h8.66l10.77,32.21,2.64.48v3.17H196.63v-3.17l3.41-.48-1.63-5.77H186.92l-1.64,5.82,3.75.43v3.17H176.24l-.05-3.17,2.79-.53Zm3.56,8.37-.72-3.37-.77,3.41-3.89,14.33h9.52Z"/><path d="M180,123.07a34.74,34.74,0,0,0,43.37-17.53,3,3,0,0,0-1.8-4.4l-.83-.2a3,3,0,0,0-2.91.77l-.57.63c-2.58,2.87,1.65,7.12,4.24,4.24l.57-.63-2.92.77.83.2-1.8-4.4c-6.74,14-22,20.08-36.58,14.77-3.63-1.33-5.2,4.47-1.6,5.78Z"/><path d="M172.91,93.81A6,6,0,0,0,179,98a5.25,5.25,0,0,0,4.71-6A4.72,4.72,0,0,0,177.33,88c-2.6,1.09-4.34,4.46-2.58,7a3,3,0,1,0,5.18-3c-.17-.27-.15-.18.07.26,0,.53.06.64.06.31q-.13.75,0,.39c.07-.21,0-.11-.13.33.17-.27.11-.21-.16.18.18-.17.17-.17,0,0-.66.28,1-.23-.26.13-.52,0-.61.06-.29.05l-.46-.05a1.43,1.43,0,0,1-.72-.44c.22.22.17.14-.14-.24.28.46-.17-.67,0-.11s0-.75,0,0c0,.24,0,.12.07-.36a2,2,0,0,1-.09.33c.19-.42.24-.52.13-.32a1.59,1.59,0,0,1-.13.22,1.37,1.37,0,0,1,.59-.6c-.26.16-.19.14.22,0-.55.16.67,0,.05,0s.61.17,0,0c-.3-.1-.25-.07.17.09a2.9,2.9,0,0,1-.34-.19c.32.26.39.31.22.17l-.21-.21c.26.36.3.4.13.13s-.13-.22.06.19a3,3,0,1,0-5.78,1.59Z"/><path d="M201.87,89.58a5.17,5.17,0,0,0-4.8,1.21l5.12,2.12a1.93,1.93,0,0,1,0-.24,2,2,0,0,1-.29,1.08c.22-.39-.62.61-.13.17-.47.34-.58.43-.33.28s.13-.09-.39.15l.23-.07c.3-.06.16,0-.44,0a1.34,1.34,0,0,0,.49,0c-.6-.09-.75-.11-.45,0s.15,0-.4-.18c.26.15.15.06-.33-.28.21.2.13.08-.24-.37.14.26.09.12-.16-.41,0,.21,0,.16,0-.16s-.05-.36,0-.15c.11-.6.12-.75,0-.46.25-.54.3-.68.15-.43.37-.45.45-.57.25-.36.46-.34.57-.43.32-.27s-.13.09.4-.15l-.23.07c-.3.07-.16.06.43,0a1.55,1.55,0,0,0-.48,0c.6.09.75.11.45,0s-.16,0,.39.19a1.22,1.22,0,0,1-.19-.12A2,2,0,0,1,202,92c-.22-.37.22.86.09.18a3,3,0,0,0-3.69-2.1,3.09,3.09,0,0,0-2.1,3.69,4.5,4.5,0,0,0,4.89,3.33c2.58-.25,4.82-2.23,4.44-5a4.46,4.46,0,0,0-4.86-3.76c-2.38.19-4.77,2-4.58,4.58A3,3,0,0,0,201.31,95a.88.88,0,0,1-.46.3c-.24.08-.23.09,0,0-.18,0-1.12-.1-.6,0a3,3,0,0,0,1.6-5.79Z"/></g></svg>