<svg xmlns="http://www.w3.org/2000/svg" viewBox="0 0 381.28 380.33"><defs><style>.cls-1{fill:#ffda83;}.cls-2{fill:#ffe9b5;}.cls-3{fill:#e4252e;}.cls-4{fill:#183e41;}</style></defs><title>Plastilina mapa conceptual</title><g id="gráficos"><rect class="cls-1" x="4.14" y="3.88" width="373" height="372.57" rx="23.02" ry="23.02"/><path d="M354.12,375H33.62c-7.27,0-14.13.11-20.23-5-7.1-5.92-7.75-13.83-7.75-22.13V64.12c0-12.38-.38-24.82,0-37.19C6.06,13.17,17,5.38,29.81,5.38H308c15,0,30.07-.12,45.1,0,12.72.09,22.41,9.35,22.54,22.19.05,4.71,0,9.42,0,14.13V350.57c0,12.86-7.61,24-21.52,24.38-1.93.06-1.93,3.06,0,3,14.41-.43,24.44-11.7,24.52-25.81,0-5.43,0-10.87,0-16.31V71.7c0-14.74.25-29.49,0-44.22C378.41,13.58,368,2.69,354,2.38c-4.09-.09-8.18,0-12.26,0H29.62C18.24,2.38,7.78,7.71,3.92,19.1,2.25,24,2.64,29.36,2.64,34.49V348.27c0,7.39.47,14.4,5.45,20.54C14,376.17,22.41,378,31.27,378H354.12A1.5,1.5,0,0,0,354.12,375Z"/><rect class="cls-2" x="27.63" y="27.34" width="326.03" height="325.66" rx="23.02" ry="23.02"/><path d="M330.64,351.49H74.24c-12,0-30.23,3-39.27-6.77-8.71-9.37-5.84-27.08-5.84-38.9V152.63c0-34-1.06-68.25,0-102.27.41-13.43,11-21.52,23.74-21.52H293.44c12.23,0,24.5-.31,36.73,0,12.51.31,21.85,9.62,22,22.19.05,4.15,0,8.3,0,12.46V328c0,12.66-8.23,23.15-21.51,23.54-1.93.06-1.94,3.06,0,3,14-.42,24.37-11.28,24.51-25.19.05-4.3,0-8.61,0-12.91V89.64c0-12.91.25-25.86,0-38.77-.26-13.8-10.57-24.67-24.52-25-3-.08-6,0-8.95,0h-269c-9.9,0-19.11,4.13-23.83,13.3-2.72,5.28-2.71,10.73-2.71,16.42V325.35c0,6.4.33,12.5,4,18.12,5.26,7.95,13.78,11,22.9,11H330.64A1.5,1.5,0,0,0,330.64,351.49Z"/><ellipse class="cls-3" cx="118.16" cy="208.48" rx="64.13" ry="64.06"/><path class="cls-4" d="M179.31,222c-5.89,25.1-26.38,44.57-52,48.39a62.59,62.59,0,1,1,16.08-119.21c27.21,12,42.06,41.92,35.95,70.82-.4,1.88,2.49,2.69,2.89.79,5.63-26.61-5.36-54.41-28.32-69.32A65.59,65.59,0,1,0,116.08,274c31.3,1.05,59-20.93,66.12-51.21C182.64,220.93,179.75,220.13,179.31,222Z"/><path d="M112,238.48c-.3-.06-.62-.14-.92-.23-7.64-2.12-13.68-9.32-15.4-18.35a4.79,4.79,0,0,1,9.42-1.78c1,5.38,4.46,9.77,8.54,10.92,3.88.93,8.86-.85,12.14-4.89a4.79,4.79,0,1,1,7.46,6C127.7,237,119.46,240.15,112,238.48Z"/><path class="cls-3" d="M95.07,178.41c-.74,3.6,1.72,7.37,5.11,8.79a12.23,12.23,0,0,0,10.58-1.09"/><path d="M90.73,177.21a12.91,12.91,0,0,0,6,13.28c5,3.08,11.27,2.15,16.25-.49s.58-10.49-4.54-7.78c-1.94,1-4.36,1.77-6.49.85-1.21-.52-2.8-1.95-2.59-3.46.34-2.43-.59-4.81-3.14-5.54-2.1-.6-5.2.74-5.54,3.14Z"/><path class="cls-3" d="M136.39,193.46c-.74,3.59,1.72,7.37,5.11,8.79a12.25,12.25,0,0,0,10.59-1.09"/><path d="M132.06,192.26a12.88,12.88,0,0,0,6,13.28c5.05,3.08,11.27,2.15,16.26-.49s.58-10.49-4.55-7.78c-1.93,1-4.36,1.77-6.49.85-1.21-.52-2.8-2-2.59-3.46.34-2.43-.59-4.81-3.14-5.54-2.1-.6-5.2.74-5.53,3.14Z"/><ellipse class="cls-3" cx="263.14" cy="271.77" rx="64.13" ry="64.06"/><path class="cls-4" d="M325.76,271.77c-.27,26.06-16.51,49.78-41.13,58.78a62.59,62.59,0,1,1-9-120.08c29,5.93,49.79,31.86,50.1,61.3a1.5,1.5,0,0,0,3,0,65.63,65.63,0,0,0-116.38-41.55c-17.34,21.22-19.69,51.88-5.47,75.38a66.34,66.34,0,0,0,68.89,30.5c30.63-5.9,52.63-33.42,53-64.33A1.5,1.5,0,0,0,325.76,271.77Z"/><path d="M238.66,256.51a1.5,1.5,0,0,0,0-3,1.5,1.5,0,0,0,0,3Z"/><path d="M238.66,266.52c14.83,0,14.86-23,0-23s-14.86,23,0,23Z"/><path d="M238.66,268c16.42-.57,16.53-26,0-26s-16.42,25.45,0,26c1.93.07,1.93-2.93,0-3-12.56-.43-12.66-20,0-20s12.56,19.59,0,20C236.74,265.09,236.73,268.09,238.66,268Z"/><path d="M287.61,256.51a1.5,1.5,0,0,0,0-3,1.5,1.5,0,0,0,0,3Z"/><path d="M287.61,266.52c14.83,0,14.86-23,0-23s-14.86,23,0,23Z"/><path d="M287.61,268c16.41-.57,16.52-26,0-26s-16.43,25.45,0,26c1.93.07,1.93-2.93,0-3-12.57-.43-12.66-20,0-20s12.56,19.59,0,20C285.68,265.09,285.67,268.09,287.61,268Z"/><path d="M263.61,302.4c-.31,0-.63,0-.94,0-7.93-.41-15.39-6.13-19-14.56a4.8,4.8,0,1,1,8.81-3.79c2.17,5,6.47,8.57,10.71,8.81,4,.06,8.46-2.76,10.78-7.42a4.79,4.79,0,0,1,8.59,4.24C278.65,297.49,271.3,302.4,263.61,302.4Z"/><ellipse class="cls-3" cx="250" cy="108.43" rx="68.8" ry="63.93"/><path class="cls-4" d="M317.3,108.43c-.3,27-18.85,50.06-44.12,58.63-26,8.82-56.34,1.91-74.88-18.67a59.57,59.57,0,0,1-6.06-72c15-23.21,44.09-34.15,70.88-29.19C292.91,52.7,317,77.48,317.3,108.43c0,1.93,3,1.93,3,0-.31-28.16-19.44-52.12-45.68-61.3-27.3-9.54-59.57-2.15-78.88,19.7-18.41,20.83-21.26,51.68-6.09,75.17,15.61,24.18,45.59,35.62,73.58,30.69,31.39-5.52,56.71-31.79,57.07-64.26C320.33,106.5,317.33,106.5,317.3,108.43Z"/><path d="M211.25,93.5c11.37,10,33.95,15.64,45.64,6a17.82,17.82,0,0,0,4.72-5.55,17.78,17.78,0,0,0,1.66-6.5,31.71,31.71,0,0,0-3.22-17c-1.45-2.88-4.07-5.86-7.26-5.36a8.91,8.91,0,0,0-3.1,1.35L213.91,88c-2,1.22-4.28,3.8-2.66,5.5"/><path d="M210.72,94c8.75,7.45,21,11.92,32.53,11.13,12.08-.84,21.17-8.68,20.88-21.23-.13-5.78-1.62-13.32-6-17.46-5.2-4.88-10.8.57-15.61,3.46L218.64,84.28c-2.89,1.74-10.63,4.91-8,9.6.47.85,1.77.09,1.3-.76-2-3.59,11.81-10.13,14.32-11.64l15.33-9.23c2.42-1.46,5.06-3.62,7.67-4.62,2.42-.92,6.79-.85,8.66,1,1.38,1.33,2.19,3.55,2.83,5.3,2.14,5.77,3.2,14,.26,19.67-9.25,17.9-37.43,9.43-49.19-.58-.73-.62-1.8.44-1.06,1.06Z"/><path d="M284.14,114a1.5,1.5,0,0,0,0-3,1.5,1.5,0,0,0,0,3Z"/><path d="M279.42,104.61c-10.19,6.06-.78,21.9,9.43,15.83s.79-21.89-9.43-15.83Z"/><path d="M278.67,103.32c-11.38,7.3-.76,25.36,10.94,18.42s.92-24.92-10.94-18.42c-1.7.93-.18,3.52,1.51,2.59,8.47-4.64,16.28,8.25,7.91,13.24s-16-8-7.91-13.24C281.8,104.87,280.3,102.27,278.67,103.32Z"/><path d="M246.57,131.57a1.5,1.5,0,0,0,0-3,1.5,1.5,0,0,0,0,3Z"/><path d="M241.85,122.16c-10.19,6.06-.79,21.89,9.43,15.83s.79-21.9-9.43-15.83Z"/><path d="M241.1,120.87c-11.38,7.3-.76,25.36,10.93,18.41s.93-24.92-10.93-18.41c-1.7.92-.18,3.52,1.51,2.59,8.47-4.64,16.28,8.25,7.91,13.23s-16.05-8-7.91-13.23C244.23,122.42,242.73,119.82,241.1,120.87Z"/></g></svg>