<svg xmlns="http://www.w3.org/2000/svg" viewBox="0 0 381.28 380.33"><defs><style>.cls-1{fill:#8eb6e0;}.cls-2{fill:#bbd3ec;}.cls-3{fill:#fff;stroke:#000;stroke-miterlimit:10;}.cls-4{fill:#4386c6;}.cls-5{fill:#e66869;}.cls-6{fill:#f7c402;}</style></defs><title>Plastilina mapa conceptual</title><g id="gráficos"><rect class="cls-1" x="4.14" y="3.67" width="373" height="373" rx="23.02" ry="23.02"/><path d="M354.12,375.17H33.62c-7.27,0-14.13.11-20.23-5-7.09-5.91-7.75-13.81-7.75-22.12V63.81c0-12.34-.38-24.75,0-37.09C6.06,13,17,5.17,29.81,5.17h278.9c14.84,0,29.68-.14,44.51,0,12.75.11,22.3,9.5,22.42,22.3,0,4.81,0,9.62,0,14.43V350.79c0,12.86-7.62,24-21.52,24.38-1.93.05-1.93,3.05,0,3,14.41-.44,24.44-11.7,24.52-25.81,0-5.5,0-11,0-16.51V71.73c0-14.8.15-29.62,0-44.42A24.94,24.94,0,0,0,354,2.17c-4-.09-8,0-12.06,0H29.62c-11.38,0-21.84,5.32-25.7,16.72C2.25,23.8,2.64,29.14,2.64,34.26v314.1c0,7.21.37,14,5,20.15,5.85,7.69,14.43,9.66,23.46,9.66h323A1.5,1.5,0,0,0,354.12,375.17Z"/><rect class="cls-2" x="27.63" y="27.15" width="326.03" height="326.03" rx="23.02" ry="23.02"/><path d="M330.64,351.68H74.24c-12,0-30.23,2.95-39.27-6.77-8.71-9.38-5.84-27.12-5.84-38.94V152.58c0-34.08-1.06-68.34,0-102.41.41-13.42,11-21.52,23.74-21.52H293.44c12.23,0,24.5-.3,36.73,0,12.51.31,21.85,9.62,22,22.19.05,4.16,0,8.32,0,12.48V328.13c0,12.66-8.23,23.15-21.51,23.55-1.93.06-1.94,3.06,0,3,14-.42,24.37-11.28,24.51-25.19.05-4.31,0-8.63,0-12.94v-227c0-12.94.25-25.89,0-38.82-.26-13.81-10.57-24.68-24.52-25-3-.08-6,0-8.95,0h-269c-9.9,0-19.11,4.13-23.83,13.3-2.72,5.29-2.71,10.73-2.71,16.43V325.53c0,6.4.33,12.5,4,18.12,5.26,8,13.78,11,22.9,11H330.64A1.5,1.5,0,0,0,330.64,351.68Z"/><rect class="cls-3" x="96.14" y="95.67" width="189" height="189"/><path class="cls-4" d="M269.4,137V111.4H111.88V134h34.41a9.06,9.06,0,0,1,8.8-7.95,9.18,9.18,0,0,1,9.23,8.79,9.05,9.05,0,0,1-18,1.41H111.88v14.56h26.85V153H111.88v31.06h65.65c.1,0,6.5.09,10.73-4.05,2.54-2.49,3.83-6,3.83-10.5V156.15a9.07,9.07,0,0,1-8-8.8,9.18,9.18,0,0,1,8.8-9.23,9.05,9.05,0,0,1,1.4,18v13.39c0,5.12-1.52,9.2-4.5,12.12-4.61,4.49-11.1,4.68-12.18,4.68H111.88V206H190a9.06,9.06,0,0,1,8.79-8,9.19,9.19,0,0,1,9.25,8.78,9.06,9.06,0,0,1-18,1.42H111.88v13.17h54c.16,0,12.21.57,12.21,14.89v32.63h35V244.81h2.25v24.12h12.24V238.5a9,9,0,0,1-7.95-8.78,9.19,9.19,0,0,1,8.78-9.25,9.05,9.05,0,0,1,1.42,18v30.43h11.23v-18h2.25v18h26V162.67H235a9,9,0,0,1-8.78,7.94,9.07,9.07,0,1,1-.18-18.14,9,9,0,0,1,9,7.95H269.4V139.24H244.18V137Z"/><path d="M270.9,137V111.4a1.52,1.52,0,0,0-1.5-1.5H111.88a1.52,1.52,0,0,0-1.5,1.5V134a1.52,1.52,0,0,0,1.5,1.5h34.41a1.52,1.52,0,0,0,1.45-1.1c1.71-8.57,14.71-9,15.08.44.37,9.65-13.28,10-15.08,1a1.51,1.51,0,0,0-1.45-1.1H111.88a1.52,1.52,0,0,0-1.5,1.5v14.56a1.52,1.52,0,0,0,1.5,1.5h26.85l-1.5-1.5V153l1.5-1.5H111.88a1.52,1.52,0,0,0-1.5,1.5v31.06a1.52,1.52,0,0,0,1.5,1.5H174c5.29,0,10.57-.28,14.8-4,6.78-6,4.82-17.31,4.82-25.42a1.52,1.52,0,0,0-1.1-1.45c-8.58-1.71-9.06-14.71.44-15.08,9.66-.38,10,13.28,1,15.08a1.52,1.52,0,0,0-1.1,1.45c0,7.16,1.7,17.8-3.3,23.54-4.43,5.1-10.52,5.15-16.61,5.15h-61a1.52,1.52,0,0,0-1.5,1.5V206a1.52,1.52,0,0,0,1.5,1.5H190a1.52,1.52,0,0,0,1.45-1.1c1.71-8.58,14.64-9,15.09.43.45,9.66-13.29,10-15.09,1a1.52,1.52,0,0,0-1.45-1.1H111.88a1.52,1.52,0,0,0-1.5,1.5v13.17a1.52,1.52,0,0,0,1.5,1.5h44.43c3.84,0,8.3-.67,12.05.51,9,2.85,8.24,12.54,8.24,20.18v25.33a1.52,1.52,0,0,0,1.5,1.5h35a1.52,1.52,0,0,0,1.5-1.5V244.81l-1.5,1.5h2.25l-1.5-1.5v24.12a1.52,1.52,0,0,0,1.5,1.5h12.24a1.52,1.52,0,0,0,1.5-1.5V238.5a1.5,1.5,0,0,0-1.1-1.44c-8.57-1.71-9.05-14.71.43-15.09,9.66-.38,10,13.28,1,15.09a1.51,1.51,0,0,0-1.1,1.44v30.43a1.52,1.52,0,0,0,1.5,1.5h11.23a1.52,1.52,0,0,0,1.5-1.5v-18l-1.5,1.5h2.25l-1.5-1.5v18a1.52,1.52,0,0,0,1.5,1.5h26a1.52,1.52,0,0,0,1.5-1.5V162.67a1.52,1.52,0,0,0-1.5-1.5H235a1.51,1.51,0,0,0-1.44,1.1c-1.71,8.57-14.72,9-15.09-.44-.38-9.66,13.28-10,15.09-1a1.51,1.51,0,0,0,1.44,1.1H269.4a1.52,1.52,0,0,0,1.5-1.5V139.24a1.52,1.52,0,0,0-1.5-1.5H244.18l1.5,1.5V137l-1.5,1.5H269.4a1.5,1.5,0,0,0,0-3H244.18a1.52,1.52,0,0,0-1.5,1.5v2.25a1.52,1.52,0,0,0,1.5,1.5H269.4l-1.5-1.5v21.18l1.5-1.5H235l1.45,1.1c-2.49-12.43-21.36-11.27-21,1.81.38,12.72,18.57,13.35,21,1.24l-1.45,1.1H269.4l-1.5-1.5V268.93l1.5-1.5h-26l1.5,1.5v-18a1.52,1.52,0,0,0-1.5-1.5h-2.25a1.52,1.52,0,0,0-1.5,1.5v18l1.5-1.5H229.88l1.5,1.5V238.5l-1.1,1.45c12.43-2.49,11.26-21.37-1.82-21-12.72.38-13.34,18.57-1.23,21l-1.1-1.45v30.43l1.5-1.5H215.39l1.5,1.5V244.81a1.52,1.52,0,0,0-1.5-1.5h-2.25a1.52,1.52,0,0,0-1.5,1.5v24.12l1.5-1.5h-35l1.5,1.5v-24c0-7.54,1.06-16.54-5.55-21.82-3.61-2.88-7.47-3.18-11.81-3.18H111.88l1.5,1.5V208.24l-1.5,1.5H190l-1.45-1.1c2.5,12.44,21.38,11.27,21-1.82-.39-12.74-18.56-13.32-21-1.23l1.45-1.1H111.88l1.5,1.5V186.34l-1.5,1.5h62.75c5.88,0,11.81-.75,16.26-5.12,6.77-6.66,4.94-17.94,4.94-26.57l-1.1,1.44c12.43-2.49,11.28-21.35-1.8-21-12.74.37-13.36,18.56-1.24,21l-1.1-1.44c0,6.71,1.82,17.73-3.39,22.82-4.08,4-9.62,3.62-14.81,3.62H111.88l1.5,1.5V153l-1.5,1.5h26.85a1.52,1.52,0,0,0,1.5-1.5v-2.24a1.52,1.52,0,0,0-1.5-1.5H111.88l1.5,1.5V136.23l-1.5,1.5h34.41l-1.44-1.1c2.48,12.43,21.35,11.27,21-1.81-.37-12.73-18.56-13.35-21-1.24l1.44-1.1H111.88l1.5,1.5V111.4l-1.5,1.5H269.4l-1.5-1.5V137A1.5,1.5,0,0,0,270.9,137Z"/><path class="cls-4" d="M138.52,247.69a9,9,0,0,1-8.76-7.94H111.88v29.18h64V236.3c0-12.16-9.59-12.62-10-12.63h-54v13.82h17.88a9,9,0,0,1,18,1.45A9.17,9.17,0,0,1,138.52,247.69Z"/><path d="M138.52,246.19c-4.06-.39-6.56-3-7.32-6.84a1.5,1.5,0,0,0-1.44-1.1H111.88a1.52,1.52,0,0,0-1.5,1.5v29.18a1.52,1.52,0,0,0,1.5,1.5h64a1.52,1.52,0,0,0,1.5-1.5V246.27c0-6.91,1.42-16.14-4.38-21.21-3.49-3.05-7.42-2.89-11.7-2.89H111.88a1.52,1.52,0,0,0-1.5,1.5v13.82a1.52,1.52,0,0,0,1.5,1.5h17.88a1.5,1.5,0,0,0,1.44-1.1c1.24-6.2,8.65-9.48,13.22-4.13,4.37,5.12.35,12.1-5.9,12.43-1.92.1-1.93,3.1,0,3,8.55-.45,14.29-10.16,8.33-17.31s-16.82-3.41-18.54,5.22l1.45-1.11H111.88l1.5,1.5V223.67l-1.5,1.5h43c4,0,8.68-.74,12.58.28,8.27,2.15,6.92,12.38,6.92,19v24.47l1.5-1.5h-64l1.5,1.5V239.75l-1.5,1.5h17.88l-1.45-1.11c1.06,5.34,4.88,8.54,10.21,9.05C140.44,249.37,140.43,246.37,138.52,246.19Z"/><path class="cls-5" d="M321.4,127v-7H293.6V102.58A15.38,15.38,0,0,0,278.22,87.2H260.84V59.41h-7V87.2H238.6V59.41h-7V87.2H216.38V59.41h-7V87.2H194.15V59.41h-7V87.2H171.91V59.41h-7V87.2h-15.2V59.41h-7V87.2H127.45V59.41h-7V87.2H103.06a15.38,15.38,0,0,0-15.38,15.38V120H59.88v7h27.8v15.21H59.88v7h27.8v15.21H59.88v7h27.8v15.22H59.88v7h27.8v15.22H59.88v7h27.8v15.21H59.88v7h27.8v15.21H59.88v7h27.8v17.38a15.37,15.37,0,0,0,15.38,15.38h17.37v27.79h7V293.13h15.22v27.79h7V293.13h15.2v27.79h7V293.13h15.22v27.79h7V293.13h15.21v27.79h7V293.13h15.21v27.79h7V293.13h15.22v27.79h7V293.13h17.38a15.37,15.37,0,0,0,15.38-15.38V260.37h27.8v-7H293.6V238.14h27.8v-7H293.6V215.91h27.8v-7H293.6V193.67h27.8v-7H293.6V171.44h27.8v-7H293.6V149.21h27.8v-7H293.6V127ZM277.22,276.75H104.05V103.58H277.22Z"/><path d="M322.9,127v-7a1.52,1.52,0,0,0-1.5-1.5H293.6l1.5,1.5c0-9.35,2.33-22-5-29.31s-20-5-29.31-5l1.5,1.5V59.41a1.52,1.52,0,0,0-1.5-1.5h-7a1.52,1.52,0,0,0-1.5,1.5V87.2l1.5-1.5H238.6l1.5,1.5V59.41a1.51,1.51,0,0,0-1.5-1.5h-7a1.52,1.52,0,0,0-1.5,1.5V87.2l1.5-1.5H216.38l1.5,1.5V59.41a1.52,1.52,0,0,0-1.5-1.5h-7a1.52,1.52,0,0,0-1.5,1.5V87.2l1.5-1.5H194.15l1.5,1.5V59.41a1.52,1.52,0,0,0-1.5-1.5h-7a1.51,1.51,0,0,0-1.5,1.5V87.2l1.5-1.5H171.91l1.5,1.5V59.41a1.52,1.52,0,0,0-1.5-1.5h-7a1.52,1.52,0,0,0-1.5,1.5V87.2l1.5-1.5h-15.2l1.5,1.5V59.41a1.52,1.52,0,0,0-1.5-1.5h-7a1.52,1.52,0,0,0-1.5,1.5V87.2l1.5-1.5H127.45l1.5,1.5V59.41a1.51,1.51,0,0,0-1.5-1.5h-7a1.52,1.52,0,0,0-1.5,1.5V87.2l1.5-1.5c-9.35,0-22-2.33-29.3,5s-4.95,20-4.95,29.31l1.5-1.5H59.88a1.52,1.52,0,0,0-1.5,1.5v7a1.52,1.52,0,0,0,1.5,1.5h27.8l-1.5-1.5v15.21l1.5-1.5H59.88a1.52,1.52,0,0,0-1.5,1.5v7a1.52,1.52,0,0,0,1.5,1.5h27.8l-1.5-1.5v15.21l1.5-1.5H59.88a1.52,1.52,0,0,0-1.5,1.5v7a1.52,1.52,0,0,0,1.5,1.5h27.8l-1.5-1.5v15.22l1.5-1.5H59.88a1.52,1.52,0,0,0-1.5,1.5v7a1.52,1.52,0,0,0,1.5,1.5h27.8l-1.5-1.5v15.22l1.5-1.5H59.88a1.52,1.52,0,0,0-1.5,1.5v7a1.52,1.52,0,0,0,1.5,1.5h27.8l-1.5-1.5v15.21l1.5-1.5H59.88a1.52,1.52,0,0,0-1.5,1.5v7a1.52,1.52,0,0,0,1.5,1.5h27.8l-1.5-1.5v15.21l1.5-1.5H59.88a1.52,1.52,0,0,0-1.5,1.5v7a1.52,1.52,0,0,0,1.5,1.5h27.8l-1.5-1.5c0,9.35-2.33,22,4.95,29.31s20,4.95,29.3,4.95l-1.5-1.5v27.79a1.52,1.52,0,0,0,1.5,1.5h7a1.52,1.52,0,0,0,1.5-1.5V293.13l-1.5,1.5h15.22l-1.5-1.5v27.79a1.51,1.51,0,0,0,1.5,1.5h7a1.52,1.52,0,0,0,1.5-1.5V293.13l-1.5,1.5h15.2l-1.5-1.5v27.79a1.52,1.52,0,0,0,1.5,1.5h7a1.52,1.52,0,0,0,1.5-1.5V293.13l-1.5,1.5h15.22l-1.5-1.5v27.79a1.51,1.51,0,0,0,1.5,1.5h7a1.52,1.52,0,0,0,1.5-1.5V293.13l-1.5,1.5h15.21l-1.5-1.5v27.79a1.52,1.52,0,0,0,1.5,1.5h7a1.52,1.52,0,0,0,1.5-1.5V293.13l-1.5,1.5h15.21l-1.5-1.5v27.79a1.51,1.51,0,0,0,1.5,1.5h7a1.52,1.52,0,0,0,1.5-1.5V293.13l-1.5,1.5h15.22l-1.5-1.5v27.79a1.51,1.51,0,0,0,1.5,1.5h7a1.52,1.52,0,0,0,1.5-1.5V293.13l-1.5,1.5c9.35,0,22,2.33,29.31-4.95s5-20,5-29.31l-1.5,1.5h27.8a1.52,1.52,0,0,0,1.5-1.5v-7a1.52,1.52,0,0,0-1.5-1.5H293.6l1.5,1.5V238.14l-1.5,1.5h27.8a1.52,1.52,0,0,0,1.5-1.5v-7a1.52,1.52,0,0,0-1.5-1.5H293.6l1.5,1.5V215.91l-1.5,1.5h27.8a1.52,1.52,0,0,0,1.5-1.5v-7a1.52,1.52,0,0,0-1.5-1.5H293.6l1.5,1.5V193.67l-1.5,1.5h27.8a1.52,1.52,0,0,0,1.5-1.5v-7a1.52,1.52,0,0,0-1.5-1.5H293.6l1.5,1.5V171.44l-1.5,1.5h27.8a1.52,1.52,0,0,0,1.5-1.5v-7a1.52,1.52,0,0,0-1.5-1.5H293.6l1.5,1.5V149.21l-1.5,1.5h27.8a1.52,1.52,0,0,0,1.5-1.5v-7a1.52,1.52,0,0,0-1.5-1.5H293.6l1.5,1.5V127l-1.5,1.5h27.8a1.5,1.5,0,0,0,0-3H293.6a1.52,1.52,0,0,0-1.5,1.5v15.21a1.52,1.52,0,0,0,1.5,1.5h27.8l-1.5-1.5v7l1.5-1.5H293.6a1.52,1.52,0,0,0-1.5,1.5v15.21a1.52,1.52,0,0,0,1.5,1.5h27.8l-1.5-1.5v7l1.5-1.5H293.6a1.52,1.52,0,0,0-1.5,1.5v15.22a1.52,1.52,0,0,0,1.5,1.5h27.8l-1.5-1.5v7l1.5-1.5H293.6a1.52,1.52,0,0,0-1.5,1.5v15.22a1.52,1.52,0,0,0,1.5,1.5h27.8l-1.5-1.5v7l1.5-1.5H293.6a1.52,1.52,0,0,0-1.5,1.5v15.21a1.52,1.52,0,0,0,1.5,1.5h27.8l-1.5-1.5v7l1.5-1.5H293.6a1.52,1.52,0,0,0-1.5,1.5v15.21a1.52,1.52,0,0,0,1.5,1.5h27.8l-1.5-1.5v7l1.5-1.5H293.6a1.52,1.52,0,0,0-1.5,1.5c0,8.25,2.31,20.81-4.07,27.19s-18.95,4.07-27.19,4.07a1.52,1.52,0,0,0-1.5,1.5v27.79l1.5-1.5h-7l1.5,1.5V293.13a1.52,1.52,0,0,0-1.5-1.5H238.6a1.52,1.52,0,0,0-1.5,1.5v27.79l1.5-1.5h-7l1.5,1.5V293.13a1.52,1.52,0,0,0-1.5-1.5H216.38a1.52,1.52,0,0,0-1.5,1.5v27.79l1.5-1.5h-7l1.5,1.5V293.13a1.52,1.52,0,0,0-1.5-1.5H194.15a1.52,1.52,0,0,0-1.5,1.5v27.79l1.5-1.5h-7l1.5,1.5V293.13a1.52,1.52,0,0,0-1.5-1.5H171.91a1.52,1.52,0,0,0-1.5,1.5v27.79l1.5-1.5h-7l1.5,1.5V293.13a1.52,1.52,0,0,0-1.5-1.5h-15.2a1.52,1.52,0,0,0-1.5,1.5v27.79l1.5-1.5h-7l1.5,1.5V293.13a1.52,1.52,0,0,0-1.5-1.5H127.45a1.52,1.52,0,0,0-1.5,1.5v27.79l1.5-1.5h-7l1.5,1.5V293.13a1.52,1.52,0,0,0-1.5-1.5c-8.24,0-20.8,2.3-27.18-4.07s-4.07-18.95-4.07-27.19a1.52,1.52,0,0,0-1.5-1.5H59.88l1.5,1.5v-7l-1.5,1.5h27.8a1.52,1.52,0,0,0,1.5-1.5V238.14a1.52,1.52,0,0,0-1.5-1.5H59.88l1.5,1.5v-7l-1.5,1.5h27.8a1.52,1.52,0,0,0,1.5-1.5V215.91a1.52,1.52,0,0,0-1.5-1.5H59.88l1.5,1.5v-7l-1.5,1.5h27.8a1.52,1.52,0,0,0,1.5-1.5V193.67a1.52,1.52,0,0,0-1.5-1.5H59.88l1.5,1.5v-7l-1.5,1.5h27.8a1.52,1.52,0,0,0,1.5-1.5V171.44a1.52,1.52,0,0,0-1.5-1.5H59.88l1.5,1.5v-7l-1.5,1.5h27.8a1.52,1.52,0,0,0,1.5-1.5V149.21a1.52,1.52,0,0,0-1.5-1.5H59.88l1.5,1.5v-7l-1.5,1.5h27.8a1.52,1.52,0,0,0,1.5-1.5V127a1.52,1.52,0,0,0-1.5-1.5H59.88l1.5,1.5v-7l-1.5,1.5h27.8a1.52,1.52,0,0,0,1.5-1.5c0-8.24-2.31-20.81,4.07-27.19s18.94-4.07,27.18-4.07a1.52,1.52,0,0,0,1.5-1.5V59.41l-1.5,1.5h7l-1.5-1.5V87.2a1.52,1.52,0,0,0,1.5,1.5h15.22a1.52,1.52,0,0,0,1.5-1.5V59.41l-1.5,1.5h7l-1.5-1.5V87.2a1.52,1.52,0,0,0,1.5,1.5h15.2a1.52,1.52,0,0,0,1.5-1.5V59.41l-1.5,1.5h7l-1.5-1.5V87.2a1.52,1.52,0,0,0,1.5,1.5h15.22a1.52,1.52,0,0,0,1.5-1.5V59.41l-1.5,1.5h7l-1.5-1.5V87.2a1.52,1.52,0,0,0,1.5,1.5h15.21a1.52,1.52,0,0,0,1.5-1.5V59.41l-1.5,1.5h7l-1.5-1.5V87.2a1.52,1.52,0,0,0,1.5,1.5h15.21a1.52,1.52,0,0,0,1.5-1.5V59.41l-1.5,1.5h7l-1.5-1.5V87.2a1.52,1.52,0,0,0,1.5,1.5h15.22a1.52,1.52,0,0,0,1.5-1.5V59.41l-1.5,1.5h7l-1.5-1.5V87.2a1.52,1.52,0,0,0,1.5,1.5c8.24,0,20.81-2.31,27.19,4.07s4.07,19,4.07,27.19a1.52,1.52,0,0,0,1.5,1.5h27.8l-1.5-1.5v7A1.5,1.5,0,0,0,322.9,127Z"/><path d="M277.22,275.25H104.05l1.5,1.5V103.58l-1.5,1.5H277.22l-1.5-1.5V276.75a1.5,1.5,0,0,0,3,0V103.58a1.52,1.52,0,0,0-1.5-1.5H104.05a1.52,1.52,0,0,0-1.5,1.5V276.75a1.52,1.52,0,0,0,1.5,1.5H277.22A1.5,1.5,0,0,0,277.22,275.25Z"/><path class="cls-6" d="M277.23,276.75V103.58H104.05V276.75ZM116.88,236.6V116.41H264.4V263.93H116.88Z"/><path d="M278.73,276.75V103.58a1.52,1.52,0,0,0-1.5-1.5H104.05a1.52,1.52,0,0,0-1.5,1.5V276.75a1.52,1.52,0,0,0,1.5,1.5H277.23a1.5,1.5,0,0,0,0-3H104.05l1.5,1.5V103.58l-1.5,1.5H277.23l-1.5-1.5V276.75A1.5,1.5,0,0,0,278.73,276.75Z"/><path d="M118.38,236.6V116.41l-1.5,1.5H264.4l-1.5-1.5V263.93l1.5-1.5H116.88l1.5,1.5V236.6a1.5,1.5,0,0,0-3,0v27.33a1.52,1.52,0,0,0,1.5,1.5H264.4a1.52,1.52,0,0,0,1.5-1.5V116.41a1.52,1.52,0,0,0-1.5-1.5H116.88a1.52,1.52,0,0,0-1.5,1.5V236.6A1.5,1.5,0,0,0,118.38,236.6Z"/><path class="cls-6" d="M146.52,134.74a8.74,8.74,0,0,0-.12,1.17,9.09,9.09,0,0,0,.12,1.17,9.44,9.44,0,1,0,0-2.34Z"/><path d="M145,134.74a10.9,10.9,0,1,0,0-.4c-.33,1.89,2.56,2.7,2.9.8.7-3.95,3.64-7.17,7.86-7.17a8,8,0,0,1,7.86,8.75c-1.05,10.37-16.72,8.41-15.67-2C148.21,132.82,145.21,132.83,145,134.74Z"/><path class="cls-6" d="M189.92,206.62a9.09,9.09,0,0,0-.12,1.17,8.91,8.91,0,0,0,.12,1.17,9.43,9.43,0,1,0,0-2.34Z"/><path d="M188.42,206.62a10.9,10.9,0,1,0,.05-.4c-.34,1.89,2.55,2.7,2.89.8.71-4,3.65-7.16,7.88-7.16a8,8,0,0,1,7.86,8.75c-1,10.37-16.73,8.4-15.68-2C191.61,204.7,188.61,204.72,188.42,206.62Z"/><path class="cls-6" d="M218.83,229.12a9.4,9.4,0,0,0,8.27,9.31,9.09,9.09,0,0,0,1.17.12,9.25,9.25,0,0,0,1.18-.12,9.41,9.41,0,1,0-10.62-9.31Z"/><path d="M217.33,229.12c.32,5.88,4.78,10.93,10.94,10.93a10.93,10.93,0,0,0,.51-21.84c-6.39-.3-11.12,4.77-11.45,10.91-.1,1.93,2.9,1.92,3,0,.55-10.16,15.88-10.26,15.88,0s-15.33,10.11-15.88,0C220.23,227.2,217.23,227.19,217.33,229.12Z"/></g></svg>