<svg xmlns="http://www.w3.org/2000/svg" viewBox="0 0 381.28 380.33"><defs><style>.cls-1{fill:#e1262f;}.cls-2{fill:#ed7d82;}.cls-3{fill:#fac706;}</style></defs><title>Plastilina mapa conceptual</title><g id="gráficos"><rect class="cls-1" x="4.14" y="3.67" width="373" height="373" rx="23.02" ry="23.02"/><path d="M354.12,375.17H33.62c-7.27,0-14.13.11-20.23-5-7.09-5.91-7.75-13.81-7.75-22.12V63.81c0-12.34-.38-24.75,0-37.09C6.06,13,17,5.17,29.81,5.17h278.9c14.84,0,29.68-.14,44.51,0,12.75.11,22.3,9.5,22.42,22.3,0,4.81,0,9.62,0,14.43V350.79c0,12.86-7.62,24-21.52,24.38-1.93.05-1.93,3.05,0,3,14.41-.44,24.44-11.7,24.52-25.81,0-5.5,0-11,0-16.51V71.73c0-14.8.15-29.62,0-44.42A24.94,24.94,0,0,0,354,2.17c-4-.09-8,0-12.06,0H29.62c-11.38,0-21.84,5.32-25.7,16.72C2.25,23.8,2.64,29.14,2.64,34.26v314.1c0,7.21.37,14,5,20.15,5.85,7.69,14.43,9.66,23.46,9.66h323A1.5,1.5,0,0,0,354.12,375.17Z"/><rect class="cls-2" x="27.63" y="27.15" width="326.03" height="326.03" rx="23.02" ry="23.02"/><path d="M330.64,351.68H74.24c-12,0-30.23,2.95-39.27-6.77-8.71-9.38-5.84-27.12-5.84-38.94V152.58c0-34.08-1.06-68.34,0-102.41.41-13.42,11-21.52,23.74-21.52H293.44c12.23,0,24.5-.3,36.73,0,12.51.31,21.85,9.62,22,22.19.05,4.16,0,8.32,0,12.48V328.13c0,12.66-8.23,23.15-21.51,23.55-1.93.06-1.94,3.06,0,3,14-.42,24.37-11.28,24.51-25.19.05-4.31,0-8.63,0-12.94v-227c0-12.94.25-25.89,0-38.82-.26-13.81-10.57-24.68-24.52-25-3-.08-6,0-8.95,0h-269c-9.9,0-19.11,4.13-23.83,13.3-2.72,5.29-2.71,10.73-2.71,16.43V325.53c0,6.4.33,12.5,4,18.12,5.26,8,13.78,11,22.9,11H330.64A1.5,1.5,0,0,0,330.64,351.68Z"/><path class="cls-3" d="M157.41,119.34c-18.59,52-24.29,123.24-29,178.23-.3,3.55-.91,7.56-3.86,9.56-3.65,2.47-9.62.85-12.13,4.48-2.72,3.93,2,9.7,6.79,10a41.68,41.68,0,0,0,15.73-1.81c4.67-1.64,6.62-6.57,9.85-10.31,6.46-7.49,6.94-22.48,14.89-28.36,14-10.36,33.17-8.81,50.45-6.8a6.06,6.06,0,0,1,3.11,1c1.59,1.25,1.52,3.62,1.5,5.64-.11,10.85,7.5,28.13,18,35.59,5.69,4,12.82,2,18.68,1.79a7,7,0,0,0,3.66-.9c3.16-2.09,1.6-7.33-1.49-9.51s-3.27.07-6.44-2c-8.09-5.27-3.56-19.94-1.89-29.46,4.62-26.34,1.35-52.9,1.18-79.64s-5-53.9-17.75-77.42"/><path d="M156.32,119c-14.86,42-20.36,87-24.77,131.08-1.13,11.25-2.14,22.51-3.11,33.77-.43,4.95-.69,10-1.32,14.89-.45,3.51-1.42,6.9-5.09,8.26-2.31.86-4.92.59-7.23,1.49-6.38,2.5-4.77,9.89.35,12.9,3.52,2.06,8.3,1.49,12.14,1.09,4.07-.43,8.54-1.16,11.71-3.95,5.94-5.2,10-13.17,12.63-20.47,1.48-4.11,2.73-8.47,5.14-12.16,3.41-5.23,9.82-8.13,15.64-9.82,10.9-3.16,22.59-2.33,33.73-1.15,3.5.38,7.2.38,7.45,4.68.11,1.92.06,3.81.33,5.73a48.94,48.94,0,0,0,3.4,11.92c3.1,7.45,7.93,15.61,14.84,20.15,3.68,2.42,7.77,2.8,12.07,2.55,3.27-.2,8.85.27,11.63-1.83,5.13-3.89.17-10.88-4.33-12.42-2.67-.91-4.7-.84-6.32-3.5a14.26,14.26,0,0,1-1.62-7c-.15-5.06,1.08-10.11,2.06-15,5.59-28,2.33-56.88,1.88-85.2-.42-26.38-5.41-52.77-17.89-76.21-.68-1.27-2.63-.14-1.95,1.14,11.15,20.94,16.27,44.35,17.37,67.93.56,12.07.6,24.17,1.05,36.25.47,12.28.8,24.6-.11,36.87-.74,9.89-3.27,19.38-4.37,29.19-.64,5.68-.62,13.28,4.93,16.68a10,10,0,0,0,3.39,1.11c2.24.6,3.84,1,4.93,3.11,1.47,2.81.9,5-3.48,6.09-4.76,1.17-12.38,1.51-16.77-.81-8.33-4.39-13.89-15.23-16.69-23.78a40.58,40.58,0,0,1-2.1-11.66c-.09-2.85-.11-5.74-3-7.13s-7.46-1.14-10.69-1.44a118.82,118.82,0,0,0-16.12-.53c-8.94.4-18.14,2.3-25.65,7.42-6.12,4.17-8.32,11-10.69,17.67-1.48,4.18-3,8.23-5.72,11.78-3.2,4.17-5.59,8.92-11,10.53-4.95,1.48-14.42,3.14-18.45-1.08-7.14-7.5,6.12-7.81,9.48-9.43,6.58-3.18,5.66-13.37,6.18-19.4q1.29-15.06,2.69-30.12c4.46-46.87,9.78-94.89,25.58-139.52.48-1.37-1.69-2-2.17-.6Z"/><path class="cls-3" d="M156.9,130.46c-8.28,9.51-22,16.24-32.67,23S103.39,170.39,103.14,183a9.16,9.16,0,0,0,.94,4.74,11.22,11.22,0,0,0,3.91,3.51l10.06,6.52c3.16,2,6.43,4.2,8.4,7.41s2.25,7.79-.41,10.46c-3.16,3.18-8.78,2.35-12.24,5.2a2.1,2.1,0,0,0-.86,1.31,2.27,2.27,0,0,0,1,1.79c7.22,6.13,19.62,3.2,24.49-4.92s2.52-19.36-4.25-26c-2.26-2.22-5-4-6.79-6.62s-2.51-6.4-.46-8.82a10.17,10.17,0,0,1,3.9-2.46l17.33-7.49"/><path d="M156.1,129.66c-11.91,13.2-29.64,18.47-42.44,30.52-5.36,5-9.9,11.44-11.23,18.82-1.58,8.81,2.38,11.53,9.18,15.94,4.35,2.81,9.81,5.46,13,9.66,2.65,3.53,3.45,8.26-.78,11.09-2,1.38-4.43,1.52-6.72,2.29-4.3,1.43-7.29,4.43-2.71,7.68,10.64,7.54,25.57-1,27.52-12.89a24.07,24.07,0,0,0-6.39-20c-4.51-4.74-14.23-11-4.07-16.64,5.41-3,11.65-5,17.33-7.49,1.32-.58.18-2.52-1.14-2l-12.13,5.25c-3.05,1.31-7.37,2.34-9.5,5.1-3.67,4.76.3,10.34,3.86,13.64,6.57,6.07,11.83,13.35,9.6,22.88a16.47,16.47,0,0,1-18.7,12.33c-1.36-.24-3.79-.74-4.73-1.83-2.5-2.91.82-3.64,3-4.26,2.74-.79,5.76-1.21,7.85-3.34,3.65-3.74,2.41-9.64-.51-13.37-2.06-2.62-5-4.47-7.71-6.27-4.26-2.8-11.93-6-14.07-10.86-1.66-3.82.81-10.28,2.55-13.69a38.78,38.78,0,0,1,8.15-10.48c12.77-12.06,30.52-17.3,42.45-30.52,1-1.07-.62-2.67-1.6-1.59Z"/><path class="cls-3" d="M232.42,132c6.8,10.62,19.43,19.28,29,27.52s18.15,19.78,16.56,32.29a9,9,0,0,1-1.62,4.55,11.23,11.23,0,0,1-4.37,2.91l-10.91,5c-3.43,1.56-7,3.22-9.39,6.1s-3.35,7.38-1.12,10.41c2.67,3.61,8.35,3.6,11.36,6.93a2.1,2.1,0,0,1,.66,1.42c0,.72-.67,1.24-1.28,1.62-8,5-19.87.31-23.51-8.43s.32-19.53,8-25.09c2.57-1.87,5.51-3.27,7.69-5.57s3.41-6,1.73-8.66a10.18,10.18,0,0,0-3.5-3l-16-9.93"/><path d="M231.44,132.54c8.84,13.23,22.95,20.89,33.81,32.13,6.19,6.42,11.76,14.76,11.77,24,0,6.73-4,8.84-9.27,11.25-4.11,1.88-8.47,3.53-12.33,5.89-4.5,2.74-8.67,7.75-6.86,13.37a8.2,8.2,0,0,0,3.64,4.49c2.12,1.35,11.41,3.78,6.45,7-6.38,4.2-16.47-2.29-19.39-7.89-4.21-8.06-.45-18.45,6.17-24,4.45-3.71,13.7-7.39,11.38-15-.89-2.9-3.78-4.38-6.18-5.87-4.8-3-9.63-6-14.44-8.94-1.23-.76-2.37,1.18-1.14,1.94L247.89,179c3.45,2.13,7.15,4,6.59,8.84-.41,3.54-5.46,5.81-8,7.52a24.77,24.77,0,0,0-10.89,16.36c-2,12,7.72,23.69,20.32,22.07,3.1-.39,10-2.59,6.86-6.75-1.36-1.82-3.8-2.67-5.81-3.53-3.16-1.34-6-2.72-6.57-6.58-.67-4.22,3.74-7.69,6.85-9.53,4.22-2.51,9-4.26,13.46-6.31,3-1.36,6.05-2.52,7.47-5.66,2.86-6.31.4-14.77-2.61-20.53-9.59-18.36-30.82-26.43-42.18-43.45-.8-1.19-2.75-.07-1.95,1.14Z"/><path class="cls-3" d="M188.75,144.08A48.44,48.44,0,0,1,157,127.23c-8.53-10.15-12.54-24.24-9.57-37.16s13.29-24.15,26.19-27.2c6-1.4,20.92-4.84,27-4.09,15.75,1.95,23,6.62,33.89,18.16s15.32,34.61,7.4,48.36c-9,15.56-30.27,23-53.17,18.78"/><path d="M188.75,143c-21.71-2.62-40.29-20.24-41.12-42.66a36.75,36.75,0,0,1,11-27.74c6.34-6.18,14-8.4,22.4-10.19,7.92-1.68,15.74-3.28,23.81-1.82A44.54,44.54,0,0,1,227,71.16c13.36,11.81,21.82,30.2,16.25,48.14-6.86,22.09-34.44,27.07-54.23,23.69-1.42-.24-2,1.93-.6,2.17,19.27,3.29,43.23-.5,54.11-18.74,9.82-16.47,3.34-39.59-9.38-52.49-6.44-6.54-13.51-11.88-22.46-14.37-9.13-2.54-17.36-1.92-26.55-.14-9,1.76-17.8,3.56-25,9.64a38.78,38.78,0,0,0-13.58,25.7C143,120.58,164,142.22,188.75,145.2c1.44.17,1.42-2.08,0-2.25Z"/><path d="M197.9,186a26.71,26.71,0,0,0,2.15-9.29q.28-4.65-1.79-7.38c-1.38-1.81-3.61-2.82-6.68-3s-5.65.55-7.34,2.23-2.64,4.22-2.84,7.65a20.22,20.22,0,0,0,.6,6.34,20.6,20.6,0,0,0,2.24,5.56,11.09,11.09,0,0,0,3.15,3.59l-.27,4.46-16.51-1-.3-10.14,3.6.22,1.32,5.19,7.72.66a20,20,0,0,1-4-4.19,25.28,25.28,0,0,1-3.26-6.08,15.62,15.62,0,0,1-1.07-6.56,14.94,14.94,0,0,1,2.85-8.52,13.33,13.33,0,0,1,6.34-4.53,21.21,21.21,0,0,1,8.18-1,19.94,19.94,0,0,1,8.27,2.16,12.68,12.68,0,0,1,5.34,5.24,14.59,14.59,0,0,1,1.54,8,17.65,17.65,0,0,1-1.62,6.14,28.48,28.48,0,0,1-3.59,5.93,19.06,19.06,0,0,1-4.35,4.16l7.27.11,1.87-4.71,3.7.23-1.67,10-16.12-1,.27-4.46A12.72,12.72,0,0,0,197.9,186Z"/><path d="M172.7,96.09a6.47,6.47,0,0,0-.2,8.63,6.1,6.1,0,1,0,8.17-9,6.39,6.39,0,0,0-8.2.61,3,3,0,0,0,4.24,4.24c.24-.23.22-.23-.07,0,.3-.16.27-.16-.08,0,.38-.11.6,0,.14-.06a2.57,2.57,0,0,1,.48,0c-.4-.06-.43,0-.09,0,.62.08-.46-.12.16.08.29.19.27.18,0,0,.23.25.22.23,0-.06.11.49,0-.14,0-.31,0,.36,0,.36,0,0-.1.3-.11.35,0,.16s.06-.14-.09.14c.2-.22.18-.2-.05.06s-.28.26-.05.06l-.24.15c.3-.11.28-.11-.05,0,.34,0,.34,0,0,0,.1,0,.82.28.3,0,.28.25.3.26.05,0s-.21-.23,0,0c0-.69.06.55-.09-.15a4.05,4.05,0,0,1-.12-.47c0,.4.07.42,0,.08-.12-.63.15.51.05-.14-.17.35-.17.37,0,.07-.24.29-.25.31,0,.06,2.73-2.75-1.52-7-4.24-4.24Z"/><path d="M213,96a4.61,4.61,0,0,0-1.78,6,4.24,4.24,0,0,0,5.75,1.5,5.36,5.36,0,0,0,2.8-4.77,7,7,0,0,0-3.09-5.08,5.08,5.08,0,0,0-2.94-1.41,5.23,5.23,0,0,0-3.27,1.64,6.66,6.66,0,0,0-2,5.11c.27,4.1,5.2,6.93,8.74,4.5,3.91-2.69,2-9.23-2.78-9.32-3.86-.09-3.86,5.91,0,6a1.55,1.55,0,0,1-.66-.21s-.57-.6-.39-.38-.07-.41,0-.09.07-.55,0,0A1.32,1.32,0,0,1,214,98.4c.33-.23-.4.12,0,0s.27.23.15-.06l.21.09-.23-.14c.06.18.17.21,0-.06.12.19.15.32.24.49s0-.39,0-.09.16-.44,0,0a2.11,2.11,0,0,1,.31-.52c-.27.33.34-.18.09,0a4.91,4.91,0,0,0,.48-.24h-3a7.79,7.79,0,0,1,1.05.72s.65.63.41.38c.29.31,0,.27.1,0a6,6,0,0,0,.16-.64c-.13.39-.16.08.11-.06a1.35,1.35,0,0,1,.74-.2l1.92,1.87a1.47,1.47,0,0,1-.68,1.22A3.07,3.07,0,0,0,217.09,97,3,3,0,0,0,213,96Z"/><path d="M185.82,126.82a21.89,21.89,0,0,0,29.31-6c2.26-3.14-2.94-6.14-5.18-3-4.81,6.71-14.23,8.18-21.1,3.88-3.28-2-6.3,3.14-3,5.18Z"/><path d="M167,97.33h20.22a1.5,1.5,0,0,0,0-3H167a1.5,1.5,0,0,0,0,3Z"/><path d="M202.19,84.52c6.78-3.13,13.88-5.57,20.41-.4,1.49,1.19,3.63-.92,2.12-2.12-7.69-6.09-15.82-3.87-24.05-.07-1.75.8-.23,3.39,1.52,2.59Z"/></g></svg>