<svg xmlns="http://www.w3.org/2000/svg" viewBox="0 0 381.28 380.33"><defs><style>.cls-1{fill:#f7c402;}.cls-2{fill:#ffe9b5;}.cls-3{fill:#7cc6cd;}</style></defs><title>Plastilina mapa conceptual</title><g id="gráficos"><rect class="cls-1" x="4.14" y="3.67" width="373" height="373" rx="23.02" ry="23.02"/><path d="M354.12,375.17H33.62c-7.27,0-14.13.11-20.23-5-7.09-5.91-7.75-13.81-7.75-22.12V63.81c0-12.34-.38-24.75,0-37.09C6.06,13,17,5.17,29.81,5.17h278.9c14.84,0,29.68-.14,44.51,0,12.75.11,22.3,9.5,22.42,22.3,0,4.81,0,9.62,0,14.43V350.79c0,12.86-7.62,24-21.52,24.38-1.93.05-1.93,3.05,0,3,14.41-.44,24.44-11.7,24.52-25.81,0-5.5,0-11,0-16.51V71.73c0-14.8.15-29.62,0-44.42A24.94,24.94,0,0,0,354,2.17c-4-.09-8,0-12.06,0H29.62c-11.38,0-21.84,5.32-25.7,16.72C2.25,23.8,2.64,29.14,2.64,34.26v314.1c0,7.21.37,14,5,20.15,5.85,7.69,14.43,9.66,23.46,9.66h323A1.5,1.5,0,0,0,354.12,375.17Z"/><rect class="cls-2" x="27.63" y="27.15" width="326.03" height="326.03" rx="23.02" ry="23.02"/><path d="M330.64,351.68H74.24c-12,0-30.23,2.95-39.27-6.77-8.71-9.38-5.84-27.12-5.84-38.94V152.58c0-34.08-1.06-68.34,0-102.41.41-13.42,11-21.52,23.74-21.52H293.44c12.23,0,24.5-.3,36.73,0,12.51.31,21.85,9.62,22,22.19.05,4.16,0,8.32,0,12.48V328.13c0,12.66-8.23,23.15-21.51,23.55-1.93.06-1.94,3.06,0,3,14-.42,24.37-11.28,24.51-25.19.05-4.31,0-8.63,0-12.94v-227c0-12.94.25-25.89,0-38.82-.26-13.81-10.57-24.68-24.52-25-3-.08-6,0-8.95,0h-269c-9.9,0-19.11,4.13-23.83,13.3-2.72,5.29-2.71,10.73-2.71,16.43V325.53c0,6.4.33,12.5,4,18.12,5.26,8,13.78,11,22.9,11H330.64A1.5,1.5,0,0,0,330.64,351.68Z"/><path class="cls-3" d="M220.91,117.51c18.58,52,16.7,123.23,21.44,178.23.31,3.54.92,7.55,3.86,9.55,3.66,2.47,9.62.85,12.13,4.48,2.72,3.93-2,9.7-6.78,10a41.73,41.73,0,0,1-15.74-1.8c-4.67-1.64-6.61-6.57-9.85-10.32-6.46-7.48-6.94-22.48-14.89-28.36-14-10.35-33.16-8.81-50.45-6.8a6.09,6.09,0,0,0-3.11,1c-1.59,1.25-1.52,3.62-1.5,5.64.11,10.86-7.5,28.13-18,35.59-5.69,4-12.81,2-18.68,1.79a7.07,7.07,0,0,1-3.66-.89c-3.15-2.09-1.6-7.33,1.49-9.51s3.27.06,6.44-2c8.1-5.28,3.57-19.95,1.9-29.47-4.63-26.34,6.23-52.89,6.4-79.64s5-53.9,17.75-77.41"/><path d="M219.83,117.8c14.11,40,16,83.51,18.21,125.51.54,10.3,1,20.61,1.66,30.91q.41,7,.92,14c.32,4.26.18,9.09,1.59,13.18A9,9,0,0,0,247,307c1.92.87,4,.88,6.06,1.32a8.78,8.78,0,0,1,3.08,1c4,2.74.77,7-1.65,8.42-4.61,2.7-14.83,1.12-19.27-1.22-4-2.1-7.13-7.52-9.63-11.24-4.53-6.76-5.24-15.37-9.64-22.22-4.27-6.63-12.57-10-20-11.62-9.75-2.16-19.89-1.63-29.74-.63-2.65.27-7.08,0-9.35,1.81-2.43,1.94-1.83,5.44-2,8.15-.53,9.2-4.74,18.54-10.26,25.81-3.45,4.52-7.67,8.84-13.63,9.44-4,.4-18.76.23-15.11-6.72,1.81-3.43,6.61-2.66,9.43-5a12.52,12.52,0,0,0,3.92-8.1c1-7.3-1.4-14.68-2.62-21.81-4.53-26.56,5.94-52.83,6.44-79.34.51-26.68,4.94-53.06,17.6-76.85.68-1.27-1.26-2.41-1.94-1.13-11.19,21-16.43,44.49-17.63,68.17-.66,13.06-1.23,25.66-3.4,38.61-2,12.06-4.37,24.18-4.42,36.45,0,10.11,2.89,19.48,3.76,29.43.38,4.37.47,10.91-4,13.46-1.7,1-3.39.57-5.11,1.23a8.52,8.52,0,0,0-4,3.79c-1.21,2.2-1.66,5.21,0,7.31,2.14,2.74,6.64,2.23,9.67,2.51,9.56.86,15.72-1.28,21.87-8.83a54.12,54.12,0,0,0,11.15-24,35.27,35.27,0,0,0,.55-4.92c.16-3.89.33-6.16,5.08-6.72a167.27,167.27,0,0,1,16.88-1.27C190,272,203.9,273.29,212,281.56c6.46,6.6,6.6,17.21,11.61,24.77a68.73,68.73,0,0,0,7.21,9.51c3.07,3.18,7.16,4.14,11.44,4.71,6.14.82,17.24,1.19,18-7.6a6.05,6.05,0,0,0-4-6.14c-5.39-2.31-10.74-.23-12.32-8-2.12-10.45-1.81-21.95-2.39-32.58-2.73-49.63-2.77-101.62-19.49-149-.48-1.36-2.66-.78-2.17.59Z"/><path class="cls-3" d="M137.6,162.4a181.65,181.65,0,0,1-21.09-13.81c-5.6-4.26-11.21-9.22-13.31-15.93-1.23-4-1.13-8.2-1-12.34q.89-25.08,3.37-50.07c.24-2.37.79-5.18,3-6.08,3.11-1.28,5.93,2.41,7,5.61,2.87,9,2.44,18.59,3.2,28s3.12,19.31,10.09,25.64c5.55,5,13.17,7,20.47,8.8"/><path d="M138.16,161.42A175.59,175.59,0,0,1,116,146.77c-7.78-6.13-12.68-12.58-12.73-22.88a389.56,389.56,0,0,1,3.46-53.64c-.14-2.92,1.63-4.31,5.33-4.16A7.58,7.58,0,0,1,114,69a25.88,25.88,0,0,1,1.77,6.18,94.19,94.19,0,0,1,1.36,13.72c.36,7,.6,14.15,2.58,21,1.71,5.89,4.72,11.45,9.56,15.34,5.65,4.53,12.86,6.35,19.75,8.06a1.13,1.13,0,0,0,.59-2.17c-7.46-1.85-15.48-3.84-21-9.55s-7.62-13.9-8.48-21.58c-.81-7.24-.59-14.55-1.57-21.78-.64-4.7-1.42-11.75-5.94-14.55-10.23-6.34-9.34,20.12-9.63,23.91q-1,12.51-1.54,25c-.32,7.11-1.42,15,1.22,21.77,2.32,5.95,7.2,10.42,12.12,14.26A180.55,180.55,0,0,0,137,163.37a1.13,1.13,0,0,0,1.13-2Z"/><path class="cls-3" d="M223.26,136.4a115.52,115.52,0,0,0,29-11.25c2.83-1.56,5.65-3.29,7.64-5.83,3.25-4.11,3.84-9.67,4.12-14.9q.51-9.67.19-19.37c-.27-8.26-1-16.8,1.94-24.54,6,.86,8.09,8.25,8.84,14.22q2.25,17.91,3.82,35.88a34.58,34.58,0,0,1-.11,10.11,30.85,30.85,0,0,1-3.58,8.63A118.2,118.2,0,0,1,229.31,175"/><path d="M223.56,137.48A120.44,120.44,0,0,0,248,128.67c6.49-3.19,13.07-6.57,15.56-13.83,2.64-7.71,2-16.93,1.93-25-.11-9.76-1.41-19.64,1.79-29.08l-1.38.79c5.53,1.23,7.1,7.32,7.89,12.22,1,6.23,1.54,12.57,2.2,18.83,1.3,12.14,4.39,25-1.79,36.13a117.64,117.64,0,0,1-45.43,45.27,1.13,1.13,0,0,0,1.14,1.94A121.35,121.35,0,0,0,259,153.31c7.76-8.28,16.08-18.5,19.94-29.3,2.21-6.16,1.11-12.72.51-19.07q-1.05-11.35-2.39-22.67c-.9-7.69-1-20.7-10.58-22.84a1.16,1.16,0,0,0-1.39.78c-2.35,6.94-2.35,14-2.1,21.29a211.28,211.28,0,0,1-.23,25.29c-.4,4.63-1.31,9.48-4.68,12.94-2.85,2.92-6.83,4.79-10.42,6.59a117.89,117.89,0,0,1-24.69,9,1.13,1.13,0,0,0,.6,2.17Z"/><path class="cls-3" d="M197.15,146.79a48.44,48.44,0,0,0,31.74-16.85c8.53-10.15,12.54-24.24,9.57-37.16s-13.29-24.15-26.19-27.19c-6-1.41-20.92-4.85-27-4.1-15.75,1.95-23,6.62-33.89,18.16S136.05,114.26,144,128c9,15.56,30.26,23,53.17,18.78"/><path d="M197.15,147.91c21.9-2.64,40.63-19.34,43.13-41.75a39.19,39.19,0,0,0-8.52-29.34c-6.33-7.72-14.43-11.3-23.93-13.41-8.45-1.87-17.23-4-25.9-2.57a47.11,47.11,0,0,0-24.16,11c-14.46,12.52-23.67,32.87-16.93,52,7.95,22.49,35.95,27.59,56.61,24.06,1.42-.24.82-2.41-.6-2.17-18.29,3.13-41.2-.4-51.57-17.71-9.32-15.57-2.95-37.59,9-49.76,5.82-5.91,12.2-11,20.24-13.43,8.43-2.59,16-2.43,24.62-.86,7.52,1.37,15.66,2.61,22.25,6.71a36.4,36.4,0,0,1,16.28,24c4.7,25.39-16.14,48.08-40.55,51-1.42.18-1.44,2.43,0,2.25Z"/><path d="M164.49,166.9h15.72v3.36l-3.94.63L183,191.8l1.2,4.23,1-4.28,6.4-20.82-3.75-.67V166.9H200v3.36l-3.13.67L186,203H179.3l-12-32-2.84-.67Z"/><path d="M207,108.93a32,32,0,0,1-4.49,10.82c-3.43,5.76-8.27,11.67-15,12.29-5.58.52-10.92-3-14.14-7.58s-4.71-10.14-6.12-15.56Z"/><path d="M205.56,108.53c-1.69,8-8.11,20.11-17,21.85-12.49,2.46-17.42-12.78-19.81-21.88l-1.45,1.9,39.7,0a1.5,1.5,0,0,0,0-3l-39.7,0a1.51,1.51,0,0,0-1.44,1.9c2.74,10.45,8.23,25.3,21.7,24.24,11-.86,18.87-14.66,20.89-24.21C208.85,107.44,206,106.64,205.56,108.53Z"/><path d="M173.07,92c-1.39-1.48-1.64-2.73-.75-3.73a2.48,2.48,0,0,1,2.64-.87l1.33.78-.09-.08L177,91a1.24,1.24,0,0,1-.34.66c-.18.21-.21.26-.11.15s-.65.4-.24.19c-.15.08-.73.19-.28.13s-.84,0-.31,0c.71,0-.64-.17-.05,0,.33.09-.7-.35-.3-.1l-.4-.31c.15.16.13.13-.06-.1a.89.89,0,0,1-.25-.43c-.1-.28-.12-.31,0-.08a2,2,0,0,1,0-1c-.14.53.26-.51.1-.22s.48-.54.13-.18.47-.3.17-.13.74-.21.21-.09c.07,0,.75,0,.34-.06.52.1.66.12.42,0s-.1,0,.36.14a3,3,0,0,0-3,5.18,4.83,4.83,0,0,0,5.66-.74,4.61,4.61,0,0,0,1-5.62,4.87,4.87,0,0,0-8.75.91,2.91,2.91,0,0,0,.77,2.92,3.48,3.48,0,0,0,3.19.88,3.63,3.63,0,0,0,2.12-1.62c.9-1.53.67-4-1.18-4.79a3.25,3.25,0,0,0-2.31-.3A3.08,3.08,0,0,0,172,87.85c-.68,1.29-.47,3.46,1.08,4.11Z"/><path d="M202.38,91.44q0-.5-.06.27l-.18.38c.29-.51-.47.45,0,0-.36.25-.44.32-.24.2s.1-.06-.31.14c-.47,0-.59,0-.35,0s.11,0-.38,0l-.42-.18c.26.16.19.1-.22-.18.39.33-.37-.57-.1-.08l-.18-.42c.05.24.06.21,0-.08s0-.32,0-.08a1.57,1.57,0,0,1,.25-.9l1.79-1.38-.25.1c-.23.06-.11.06.35,0-.17,0-.88-.13.07,0-.53-.09.53.34,0,0l.32.24a2.16,2.16,0,0,1-.25-.27l-2.12,5.12,2,0a3,3,0,0,0,3-3,3.07,3.07,0,0,0-3-3l-2,0a3,3,0,0,0-2.74,1.85,3.09,3.09,0,0,0,.62,3.27,5.16,5.16,0,0,0,5.29,1.53,3.64,3.64,0,0,0,2.61-3.44,4.82,4.82,0,0,0-.64-2.68A4.68,4.68,0,0,0,200,86.69a4.93,4.93,0,0,0-3.59,4.75,3,3,0,0,0,6,0Z"/></g></svg>