<svg xmlns="http://www.w3.org/2000/svg" viewBox="0 0 381.28 380.33"><defs><style>.cls-1{fill:#e66869;}.cls-2{fill:#f0a4a5;}.cls-3{fill:#fac706;}.cls-4{fill:#7cc6cd;}.cls-5{fill:#e4252e;}</style></defs><title>Plastilina mapa conceptual</title><g id="gráficos"><rect class="cls-1" x="4.14" y="3.67" width="373" height="373" rx="23.02" ry="23.02"/><path d="M354.12,375.17H33.62c-7.27,0-14.13.11-20.23-5-7.09-5.91-7.75-13.81-7.75-22.12V63.81c0-12.34-.38-24.75,0-37.09C6.06,13,17,5.17,29.81,5.17h278.9c14.84,0,29.68-.14,44.51,0,12.75.11,22.3,9.5,22.42,22.3,0,4.81,0,9.62,0,14.43V350.79c0,12.86-7.62,24-21.52,24.38-1.93.05-1.93,3.05,0,3,14.41-.44,24.44-11.7,24.52-25.81,0-5.5,0-11,0-16.51V71.73c0-14.8.15-29.62,0-44.42A24.94,24.94,0,0,0,354,2.17c-4-.09-8,0-12.06,0H29.62c-11.38,0-21.84,5.32-25.7,16.72C2.25,23.8,2.64,29.14,2.64,34.26v314.1c0,7.21.37,14,5,20.15,5.85,7.69,14.43,9.66,23.46,9.66h323A1.5,1.5,0,0,0,354.12,375.17Z"/><rect class="cls-2" x="27.63" y="27.15" width="326.03" height="326.03" rx="23.02" ry="23.02"/><path d="M330.64,351.68H74.24c-12,0-30.23,2.95-39.27-6.77-8.71-9.38-5.84-27.12-5.84-38.94V152.58c0-34.08-1.06-68.34,0-102.41.41-13.42,11-21.52,23.74-21.52H293.44c12.23,0,24.5-.3,36.73,0,12.51.31,21.85,9.62,22,22.19.05,4.16,0,8.32,0,12.48V328.13c0,12.66-8.23,23.15-21.51,23.55-1.93.06-1.94,3.06,0,3,14-.42,24.37-11.28,24.51-25.19.05-4.31,0-8.63,0-12.94v-227c0-12.94.25-25.89,0-38.82-.26-13.81-10.57-24.68-24.52-25-3-.08-6,0-8.95,0h-269c-9.9,0-19.11,4.13-23.83,13.3-2.72,5.29-2.71,10.73-2.71,16.43V325.53c0,6.4.33,12.5,4,18.12,5.26,8,13.78,11,22.9,11H330.64A1.5,1.5,0,0,0,330.64,351.68Z"/><path class="cls-3" d="M174.31,101.59c-12.25,34.28-16,81.26-19.13,117.53-.21,2.34-.61,5-2.55,6.3-2.41,1.63-6.34.56-8,3-1.8,2.59,1.33,6.4,4.47,6.57a27.34,27.34,0,0,0,10.38-1.19c3.08-1.08,4.36-4.33,6.49-6.8,4.27-4.94,4.58-14.82,9.82-18.7,9.23-6.83,21.87-5.81,33.27-4.48a3.93,3.93,0,0,1,2.05.63c1,.82,1,2.39,1,3.72-.07,7.16,5,18.55,11.88,23.47,3.75,2.65,8.45,1.31,12.32,1.17a4.65,4.65,0,0,0,2.41-.58c2.08-1.38,1.06-4.84-1-6.27s-2.16,0-4.25-1.32c-5.34-3.48-2.35-13.16-1.25-19.43,3.05-17.37.89-34.88.78-52.52s-3.31-35.54-11.71-51"/><path d="M173.23,101.29c-10,28.37-13.63,58.78-16.55,88.57-.71,7.22-1.35,14.44-2,21.66-.41,4.75.22,11.21-4.72,13.7-2.07,1-4.53.21-6.15,2.36-2.31,3.06.52,7,3.54,8.11,4.11,1.57,11.85.42,15.17-2.53,3.79-3.38,6.46-8.43,8.17-13.13,1.06-2.91,1.9-6.09,3.69-8.66,2.63-3.76,7.83-5.68,12.14-6.57,5.63-1.18,22.29-3.25,24.45,3.84.63,2.1.5,4.53,1.14,6.7a38.66,38.66,0,0,0,3.27,7.77c2.36,4.26,6,9.35,10.9,10.8,3.21,1,11.56,1.35,13.91-1.65,2-2.48,0-6.43-2.53-7.64-3.08-1.49-5.52-1.52-6-5.79-.42-3.48.43-7,1.1-10.41,3.68-18.71,1.68-37.75,1.38-56.66-.27-17.61-3.57-35.07-11.85-50.74-.67-1.28-2.61-.14-1.94,1.14,7.38,14,10.76,29.47,11.43,45.19.67,15.89,1.81,32.26.55,48.14-.5,6.26-2.1,12.27-2.81,18.48-.45,3.9-.49,8.94,3.18,11.41,1.41,1,4.91,1.05,5.53,2.72,1.59,4.36-6.86,4.11-8.82,4-7.66-.43-12.53-9.66-14.7-16.1a32.92,32.92,0,0,1-1.46-7.87c-.15-1.63.07-3.29-1.32-4.52-1.15-1-3-1-4.41-1.14a101.2,101.2,0,0,0-11.14-.78c-9.94-.07-21.44,2.12-25.75,12.14-2.28,5.29-3.8,10.1-7.29,14.8-3.1,4.18-7.18,5.63-12.43,5.25l-3.5-.63q-2-5.64,1.9-5.64c1.3-.56,2.67-.36,3.91-1.21,3.58-2.45,3.16-8,3.49-11.79.59-6.88,1.19-13.75,1.84-20.62,2.94-31,6.48-62.61,16.87-92.09.48-1.37-1.69-2-2.17-.6Z"/><path class="cls-3" d="M174,108.92c-5.46,6.27-14.53,10.71-21.55,15.17s-13.73,11.16-13.9,19.48a6,6,0,0,0,.62,3.12,7.5,7.5,0,0,0,2.58,2.32l6.63,4.3c2.09,1.35,4.24,2.77,5.54,4.88s1.48,5.14-.27,6.9c-2.08,2.1-5.79,1.55-8.07,3.43a1.42,1.42,0,0,0-.57.86,1.52,1.52,0,0,0,.68,1.19c4.76,4,12.94,2.11,16.15-3.25s1.66-12.77-2.8-17.14c-1.49-1.46-3.28-2.65-4.48-4.36s-1.65-4.23-.3-5.82a6.74,6.74,0,0,1,2.57-1.62l11.42-4.94"/><path d="M173.18,108.12c-10,10.92-28.7,14.52-34.5,29.29-1.91,4.87-2,9.4,2.48,12.57,3.58,2.55,9.51,4.76,11.77,8.78,4,7.21-5,5.88-7.94,8.79-2.83,2.76,1,5,3.58,5.83a12.92,12.92,0,0,0,13.34-4.24c3.32-4.14,3.41-10.06,1.32-14.78a16.53,16.53,0,0,0-2.44-3.91c-1.23-1.46-3.52-2.61-4.46-4.23-4.13-7.14,8.45-10.07,12.47-11.81,1.33-.57.18-2.51-1.13-1.94-3.75,1.62-7.83,3-11.43,4.94-1.55.83-3.05,1.56-3.69,3.34-1.94,5.43,4.87,8.63,7.34,12.22,5.09,7.35,1.57,19.33-8.63,18.61-1.64-.11-5.65-.88-3.17-3.11.75-.67,2.91-.67,3.86-1.08a6.2,6.2,0,0,0,3.48-3c2-4-1-8-4-10.39-2.88-2.22-6.15-3.9-9.12-6-4.55-3.22-2.19-9.47.31-13.31,7.57-11.61,22.94-15,32.18-25,1-1.06-.61-2.66-1.6-1.59Z"/><path class="cls-3" d="M223.78,109.92c4.49,7,12.81,12.71,19.1,18.15s12,13,10.92,21.29a6,6,0,0,1-1.06,3,7.52,7.52,0,0,1-2.89,1.92l-7.19,3.29c-2.26,1-4.6,2.12-6.19,4s-2.22,4.87-.74,6.87c1.76,2.37,5.5,2.37,7.49,4.56a1.41,1.41,0,0,1,.43.94,1.5,1.5,0,0,1-.84,1.07c-5.3,3.3-13.11.2-15.51-5.56s.22-12.88,5.27-16.55c1.69-1.23,3.63-2.15,5.07-3.67s2.25-3.93,1.14-5.71a6.59,6.59,0,0,0-2.31-2L225.89,135"/><path d="M222.8,110.49c7.63,11.21,22.06,16.77,28.06,29.11,2.25,4.63,3.24,10.23-1.58,13.71-3.29,2.37-7.78,3-11.16,5.37-2.84,2-5.4,5.52-4,9.14.76,1.94,2.3,2.84,4.09,3.71.95.47,4.61,1.05,2.05,3.4-1,.89-4.28.18-5.41-.16-9.3-2.82-8.9-14.62-2.54-20.21,3.07-2.7,9.17-4.91,8-10.19-.41-1.84-1.86-2.74-3.27-3.77-3.31-2.43-7.1-4.4-10.58-6.55-1.24-.77-2.37,1.18-1.14,1.94,3.16,1.95,14.18,6.55,12.12,11.69-1.07,2.68-6.57,4.76-8.55,7.23-3.27,4.07-4.7,9.91-2.67,14.86A12.87,12.87,0,0,0,237,177.46c2.47.19,9-.79,7.44-4.54-1-2.49-4.34-2.45-6.21-3.87-7.83-6,6.17-11,9.52-12.57,2.66-1.22,5.54-2.06,6.72-5,1-2.37.72-5.31.22-7.75-3.22-15.75-21.52-22.07-29.91-34.41-.81-1.19-2.76-.06-1.95,1.14Z"/><path class="cls-3" d="M195,117.9a32,32,0,0,1-20.93-11.11c-5.62-6.69-8.27-16-6.31-24.5S176.5,66.36,185,64.35c3.93-.92,13.8-3.19,17.8-2.69,10.39,1.28,15.17,4.36,22.35,12s10.11,22.82,4.88,31.89c-5.91,10.26-19.95,15.14-35.06,12.38"/><path d="M195,116.78c-17.78-2.3-33.06-21.37-24.41-39.12,3.55-7.3,9.85-11.15,17.5-12.86,6.51-1.45,12.8-2.75,19.42-1.2,14.11,3.29,24.5,17.12,24.07,31.54-.57,18.63-20.87,24.22-36.28,21.68-1.41-.24-2,1.93-.6,2.17,12.85,2.11,28.65-.27,36-12.36,6.58-10.82,2.58-26.26-5.78-34.9-9.36-9.66-20.21-12.53-33.25-10-6.23,1.22-12.16,2.55-17,6.9a26,26,0,0,0-8.5,16.67C164.37,102.7,178.46,116.89,195,119c1.43.18,1.42-2.07,0-2.25Z"/><path d="M201,145.57a17.5,17.5,0,0,0,1.42-6.13,7.06,7.06,0,0,0-1.18-4.86,5.66,5.66,0,0,0-4.4-2,6.09,6.09,0,0,0-4.84,1.47,7.51,7.51,0,0,0-1.88,5.05A14.21,14.21,0,0,0,192,147a7.2,7.2,0,0,0,2.08,2.36l-.18,2.94L183,151.6l-.2-6.68,2.38.15.87,3.42,5.09.43a12.76,12.76,0,0,1-2.63-2.76,16.76,16.76,0,0,1-2.16-4,10.39,10.39,0,0,1-.7-4.33,9.92,9.92,0,0,1,1.88-5.62,8.76,8.76,0,0,1,4.18-3,13.89,13.89,0,0,1,5.39-.67,13.17,13.17,0,0,1,5.46,1.42,8.39,8.39,0,0,1,3.52,3.46,9.69,9.69,0,0,1,1,5.28,11.55,11.55,0,0,1-1.08,4,18.34,18.34,0,0,1-2.36,3.9,12.41,12.41,0,0,1-2.87,2.75l4.8.07,1.23-3.1,2.44.15-1.1,6.6-10.63-.64.18-3A8.33,8.33,0,0,0,201,145.57Z"/><path d="M183.68,85.53a5.3,5.3,0,0,0-.13,7.14,5,5,0,1,0,6.62-7.54,5.25,5.25,0,0,0-6.65.56,3,3,0,1,0,4.24,4.25c.23-.22.14-.17-.25.16.28-.15.18-.12-.29.1a.9.9,0,0,1,.22-.06c.24,0,.1,0-.41,0h.32c-.53-.08-.64-.09-.33,0,.52.13-.63-.32-.13-.05.25.17.18.11-.24-.19.21.23.15.15-.17-.24l.08.13a1.38,1.38,0,0,1-.23-.86c0,.33,0,.25.07-.25-.08.23-.06.23,0,0s.11-.25,0,0c.3-.35.34-.4.13-.17-.44.42.52-.27,0,0,.44-.17.51-.2.2-.11.51,0,.59-.06.26-.05a1.11,1.11,0,0,1,.65.14c.25.12.28.13.07,0q.58.49.24.18t.18.24c-.28-.44.15.67,0,.14-.17-.8,0,.55,0,0s-.19.71,0,.18c-.22.47-.26.57-.11.29-.33.39-.38.47-.17.25a3,3,0,1,0-4.24-4.25Z"/><path d="M210.45,85.28a4.08,4.08,0,0,0-1.54,5.37A3.81,3.81,0,0,0,214.09,92a4.55,4.55,0,0,0,2.35-4A5.54,5.54,0,0,0,214,83.83a4.49,4.49,0,0,0-2.56-1.15,4.37,4.37,0,0,0-2.88,1.38,5.39,5.39,0,0,0-1.65,4.09c.2,3.41,4.32,5.93,7.3,3.85,3.38-2.35,1.87-8-2.34-8a3,3,0,0,0-3,3,3.06,3.06,0,0,0,3,3,2.24,2.24,0,0,1-1.58-.89c.17.3-.23-.65-.12-.31s0-.76,0-.26a1.83,1.83,0,0,1,1.11-1.64c.42-.22-.23,0,.27-.08.15,0,.9.11.5,0,.13,0,.57.29.23.07.11.07.48.41.2.12a1.53,1.53,0,0,1,.44.91c.1.48.08-.27,0,.21,0,.27,0,.27,0,0l-.16.34a1.48,1.48,0,0,0,.21-.34l-.21.29c.19-.17.2-.18,0,0-.43.18.16-.06.21-.08h-3a4.18,4.18,0,0,1,.56.37s-.43-.39-.08,0c.14.12.53.63.11,0,.28.39,0-.13-.05-.35a1.83,1.83,0,0,1,.23-1.07c-.22.41.19-.22.33-.32a1.65,1.65,0,0,1,1.11-.36l2.29,2.26a2,2,0,0,1-1,1.68,3,3,0,1,0-3-5.18Z"/><path d="M192.54,107.41a15.48,15.48,0,0,0,20.72-4.35c2.26-3.14-2.94-6.14-5.18-3a9.39,9.39,0,0,1-12.52,2.2c-3.28-2.06-6.29,3.13-3,5.18Z"/><path d="M180.65,87.59c4.53-.14,8.81-1.87,13.33-2,1.93-.06,1.93-3.06,0-3-4.53.13-8.81,1.86-13.33,2-1.93.06-1.94,3.06,0,3Z"/><path d="M204.1,79.07c4.23-1.95,8.75-3.58,12.84-.34,1.5,1.19,3.63-.92,2.12-2.12-5.27-4.18-10.81-2.74-16.47-.13-1.76.8-.23,3.39,1.51,2.59Z"/><path class="cls-4" d="M121.41,182c15.34,33,18.42,79.91,24.85,115.74.42,2.31,1.06,4.91,3.12,6,2.55,1.4,6.36,0,8.23,2.21,2,2.41-.73,6.49-3.85,6.95a27.63,27.63,0,0,1-10.44-.23c-3.17-.8-4.74-3.92-7.09-6.18-4.7-4.53-5.92-14.34-11.5-17.73-9.81-5.95-22.31-3.77-33.54-1.41a4,4,0,0,0-2,.82c-1,.92-.78,2.47-.64,3.8.72,7.11-3.23,18.92-9.68,24.45-3.49,3-8.29,2.09-12.16,2.31a4.63,4.63,0,0,1-2.45-.37c-2.2-1.18-1.5-4.72.4-6.33s2.15-.16,4.11-1.71c5-3.95,1.13-13.31-.54-19.46-4.63-17,.9-35.11-.61-52.68s0-35.7,7-51.91"/><path d="M120.44,182.53c11.24,24.58,15.21,52,19.08,78.49,1.84,12.63,2.69,26,5.94,38.39.53,2,1.32,4,3.12,5.13s3.78.47,5.62,1.2l1.11.12,1.33,3.73c-.54,1-4.46,2.27-5.55,2.47a16.54,16.54,0,0,1-6-.23c-3.83-.83-6.5-4-8.91-7-3.51-4.31-4.48-10.15-8-14.43-3.28-4-8.83-5.6-13.74-6.27-6.22-.84-12.56,0-18.7,1.15-4.37.81-8.43.8-8.38,6a34.87,34.87,0,0,1-3.93,17.36c-1.49,2.79-3.54,6.05-6.35,7.67-1.88,1.09-4.17,1.2-6.28,1.26-.7,0-1.4,0-2.09,0-2.35,0-2,.66-1.87-2.65.24-4.61,0-1.67,1.89-3.28a13.78,13.78,0,0,0,1.75-1.44,8.63,8.63,0,0,0,1.83-4.9c.48-5.31-2-10.58-3.23-15.62-4.27-17.1.86-35-.42-52.38s.31-34.61,7-50.73c.56-1.34-1.62-1.92-2.17-.6-6.17,14.85-8.16,30.93-7.37,46.92a201.5,201.5,0,0,1,0,25.42c-.63,8.47-1.42,17-.38,25.45.82,6.79,4.35,13.46,4.38,20.29,0,3.4-1.09,4.39-4.15,6.09a11.16,11.16,0,0,0-2,1,6.23,6.23,0,0,0-2.21,4.74c.2,4.83,5.63,4,9,3.94,5.54-.11,9.19-2.09,12.43-6.6a35.92,35.92,0,0,0,6.31-16.45c.28-2.38-.52-5.46,1-7.25,2.21-2.67,10.63-2.94,13.82-3.22,8.06-.72,18.63-.2,23.39,7.39,3.12,5,4.67,10.17,8.65,14.61,1.59,1.77,3,3.86,5.22,4.92,3,1.46,7.13,1.33,10.37,1,3.51-.33,7.65-2.35,7.4-6.55a4.27,4.27,0,0,0-2.26-3.52c-3.77-2.19-7.91.58-9.5-5.36-1.8-6.73-2.39-14-3.41-20.91-4.78-32.43-8.05-66.36-21.84-96.5-.6-1.32-2.54-.18-1.94,1.13Z"/><path class="cls-4" d="M69.42,216.48a118.63,118.63,0,0,1-14.69-7.8c-3.93-2.45-7.91-5.37-9.7-9.65a24.27,24.27,0,0,1-1.39-8q-.93-16.53-.81-33.08c0-1.57.21-3.45,1.6-4.18,2-1,4,1.23,4.91,3.27,2.42,5.71,2.72,12.06,3.78,18.17s3.22,12.49,8.18,16.22c4,3,9.07,3.81,14,4.55"/><path d="M70,215.51a123.44,123.44,0,0,1-14.68-7.8c-6.31-4-9.89-8.26-10.48-15.9-.45-5.77-.58-11.58-.72-17.36q-.1-4.38-.15-8.76c0-1.91-1.18-11.09,3-10.23,1.78.37,3,7.59,3.35,9.11.49,2.5.79,5,1.17,7.54a46.35,46.35,0,0,0,3,12C58.36,193,65.94,195.63,75,197c1.42.22,2-2,.6-2.17-7.67-1.18-14.84-3.1-18.54-10.6-2.73-5.53-3.1-11.79-4.07-17.78-.65-4-1.4-11.49-5.64-13.59-2.63-1.31-4.79.27-5.41,2.92-1.4,5.95-.2,13.54,0,19.63.17,6.57,0,13.44,1.06,19.95,1.91,11.9,16.23,17.67,25.92,22.07,1.31.59,2.45-1.35,1.13-1.94Z"/><path class="cls-4" d="M124.09,194.23a76.57,76.57,0,0,0,18.38-9.14,16.25,16.25,0,0,0,4.67-4.29c1.88-2.9,1.93-6.58,1.79-10q-.24-6.37-1-12.73c-.68-5.4-1.64-11-.21-16.23,4,.2,5.81,4.93,6.67,8.81q2.55,11.61,4.68,23.32a23.31,23.31,0,0,1,.53,6.65,20.09,20.09,0,0,1-1.83,5.88,77.86,77.86,0,0,1-27.33,32.76"/><path d="M124.39,195.31a81.51,81.51,0,0,0,15.77-7.39c3.61-2.22,7.49-4.64,9-8.79,1.78-4.83.86-10.67.43-15.65-.62-7.12-2.42-14.27-.83-21.38l-1.39.79c6.75,1.14,7.29,14.45,8.33,19.66,1.72,8.55,4.19,16.51.39,24.8a77.2,77.2,0,0,1-26.27,30.9c-1.18.82-.06,2.77,1.14,1.94a81.11,81.11,0,0,0,17.77-16.63c4.72-6,9.92-13.57,11.64-21.16.81-3.59,0-7.17-.63-10.72q-1.42-7.8-3.07-15.56c-1.13-5.4-1.91-14.26-8.7-15.4a1.13,1.13,0,0,0-1.38.78c-2.18,9.79,1,20.11,1.23,30C148,178.66,145,182.3,139,186a78.4,78.4,0,0,1-15.23,7.16c-1.36.48-.77,2.65.6,2.17Z"/><path class="cls-4" d="M107.58,202.63a31.94,31.94,0,0,0,19.82-13c5-7.19,6.77-16.68,4-25s-10.18-15.06-18.84-16.28c-4-.56-14-1.91-18-1-10.23,2.23-14.7,5.73-21.16,14s-8,23.65-1.93,32.2c6.83,9.68,21.26,13.25,36.05,9.12"/><path d="M107.87,203.71c14.15-3.16,25.5-15.11,25.95-30,.43-13.87-9.45-24.92-23-26.72-12.46-1.66-24.2-1.39-33.58,8.14-9,9.14-13.94,23-8.61,35.43,6.41,14.88,25.51,16.68,39.22,13.11a1.13,1.13,0,0,0-.59-2.17c-15.37,4-36.37.13-38.29-18.79-1.45-14.35,7.86-28.89,21.69-33.23,6-1.87,11.84-1.28,18-.53,8.48,1,15.83,4.32,20.07,12.24,9.16,17.09-4.13,36.44-21.44,40.31-1.42.32-.82,2.49.59,2.17Z"/><path d="M87.35,217.81l10.32-.95.2,2.2-2.55.65L101,233l1,2.71.37-2.87,2.94-14.06-2.5-.21-.2-2.21,8-.74.21,2.21-2,.63-5.19,21.68-4.39.41-9.8-20.31-1.9-.26Z"/><path d="M111.76,177.17a21.13,21.13,0,0,1-2.29,7.38c-1.9,4-4.73,8.16-9.08,9-3.63.68-7.35-1.3-9.74-4.12s-3.7-6.37-5-9.85Z"/><path d="M110.26,177.17c-.69,5.17-4.09,13.25-9.71,14.59-7.63,1.82-11.32-6.88-13.41-12.61l-1.45,1.9,26.07-2.38c1.91-.17,1.93-3.18,0-3l-26.07,2.38c-.88.08-1.81.91-1.44,1.9,2.54,7,7.2,16.65,16.34,15.05,7.59-1.34,11.77-11.09,12.67-17.83C113.52,175.26,110.51,175.28,110.26,177.17Z"/><path d="M88.49,169.18l.07,0-1.32-.78-.39-.5-.3-.72,0,.07-.11-.8v.07l.1-.8a.33.33,0,0,1,0,.15l.3-.71a2.71,2.71,0,0,1,.87-.88l.71-.3h1.47l.72.3-.07-.05,1.38,3.39,0-.1-.3.72c.22-.53-.37.4-.23.25s-.76.46-.23.23l-.72.31a1.57,1.57,0,0,1,.29-.08l-.8.1a2.81,2.81,0,0,1,.41,0l-.8-.1a1.78,1.78,0,0,1,.38.1l-.72-.3c.37.19-.54-.52-.33-.28s-.47-.71-.26-.33l-.31-.71a.57.57,0,0,1,.07.22l-.11-.8a1,1,0,0,1,0,.34l.11-.8a1.42,1.42,0,0,1-.07.22l.31-.72c-.26.56.32-.31.17-.17s.74-.45.18-.16l.72-.3a1.78,1.78,0,0,1-.33.09l.8-.11a.89.89,0,0,1-.23,0l.8.11a.9.9,0,0,1-.22-.06l.72.31-.11,0a3.26,3.26,0,0,0-2.31-.3,3.08,3.08,0,0,0-1.8,1.38,3,3,0,0,0-.3,2.31,2.9,2.9,0,0,0,1.38,1.79,4.28,4.28,0,0,0,3,.38A4.65,4.65,0,0,0,93,170a4,4,0,0,0-3.1-6.9,4.25,4.25,0,0,0-3.83,3,3.07,3.07,0,0,0,1.38,3.38,3.31,3.31,0,1,0,2.59-6,3,3,0,0,0-3.69,2.09,3.08,3.08,0,0,0,2.1,3.69Z"/><path d="M108.69,166.15a1.13,1.13,0,0,1,0-.26l-.11.79a1.27,1.27,0,0,1,.11-.38l-.3.72c.21-.41-.45.47-.2.23s-.67.43-.23.21l-.71.3a1,1,0,0,1,.25-.07l-.8.1H107l-.79-.1a.69.69,0,0,1,.24,0l-.72-.3c.34.14.24.27-.19-.2l-.31-.42a1.19,1.19,0,0,1,.12.22l-.3-.71a1.48,1.48,0,0,1,.1.36l-.11-.8a1,1,0,0,1,0,.25l.11-.8a1,1,0,0,1-.07.24l1.38-1.79-.12.06.72-.3a2,2,0,0,1-.4.11l.8-.11a2.81,2.81,0,0,1-.41,0l.79.1a1.76,1.76,0,0,1-.39-.12l.72.31c-.46-.24.53.51.16.14l-2.12,5.12,1.32-.09a3.22,3.22,0,0,0,2.12-.88,3,3,0,0,0-2.12-5.12l-1.32.09a3.06,3.06,0,0,0-2.74,1.85,3,3,0,0,0,.62,3.28,4.5,4.5,0,0,0,4.56,1.11,3.48,3.48,0,0,0,1.92-1.45,3.81,3.81,0,0,0,.47-1.81,4.24,4.24,0,0,0-.63-2.28A4.13,4.13,0,0,0,105.7,162a4.25,4.25,0,0,0-3,4.2,3.27,3.27,0,0,0,.88,2.12,3.06,3.06,0,0,0,2.12.88,3,3,0,0,0,2.12-.88,2.85,2.85,0,0,0,.88-2.12Z"/><path class="cls-5" d="M263.59,181.59c-12.26,34.28-16,81.26-19.14,117.53-.2,2.34-.61,5-2.55,6.3-2.41,1.63-6.34.56-8,2.95-1.79,2.59,1.33,6.4,4.48,6.57a27.31,27.31,0,0,0,10.37-1.19c3.09-1.08,4.37-4.33,6.5-6.8,4.26-4.94,4.57-14.82,9.82-18.7,9.22-6.83,21.87-5.81,33.27-4.48a3.93,3.93,0,0,1,2.05.63c1.05.82,1,2.39,1,3.72-.08,7.16,4.94,18.55,11.87,23.47,3.75,2.65,8.45,1.31,12.32,1.17a4.66,4.66,0,0,0,2.42-.58c2.07-1.38,1.05-4.84-1-6.27s-2.16,0-4.25-1.32c-5.33-3.48-2.35-13.16-1.25-19.43,3.05-17.37.89-34.88.78-52.52s-3.3-35.54-11.7-51"/><path d="M262.5,181.29c-10,28.37-13.62,58.78-16.55,88.57-.71,7.22-1.35,14.44-2,21.66-.41,4.75.22,11.21-4.73,13.7-2.07,1-4.52.21-6.14,2.36-2.31,3.06.52,7,3.53,8.11,4.12,1.57,11.86.42,15.17-2.53,3.8-3.38,6.46-8.43,8.18-13.13,1.06-2.91,1.89-6.09,3.69-8.66,2.62-3.76,7.83-5.68,12.13-6.57,5.63-1.18,22.3-3.25,24.45,3.84.64,2.1.5,4.53,1.14,6.7a39.24,39.24,0,0,0,3.27,7.77c2.36,4.26,6,9.35,10.91,10.8,3.21.95,11.56,1.35,13.91-1.65,1.95-2.48,0-6.43-2.54-7.64-3.08-1.49-5.51-1.52-6-5.79-.43-3.48.42-7,1.09-10.41,3.68-18.71,1.68-37.75,1.39-56.66-.28-17.61-3.58-35.07-11.85-50.74-.68-1.28-2.62-.14-1.94,1.14,7.37,14,10.75,29.47,11.42,45.19.68,15.89,1.81,32.26.55,48.14-.49,6.26-2.1,12.27-2.81,18.48-.45,3.9-.48,8.94,3.19,11.41,1.41.95,4.91,1.05,5.52,2.72,1.59,4.36-6.85,4.11-8.82,4-7.65-.43-12.52-9.66-14.69-16.1a32.93,32.93,0,0,1-1.47-7.87c-.15-1.63.08-3.29-1.32-4.52-1.15-1-3-1-4.41-1.14a101.2,101.2,0,0,0-11.14-.78c-9.94-.07-21.44,2.12-25.75,12.14-2.27,5.29-3.8,10.1-7.28,14.8-3.1,4.18-7.18,5.63-12.44,5.25l-3.49-.63q-2-5.64,1.89-5.64c1.3-.56,2.67-.36,3.91-1.21,3.58-2.45,3.17-8,3.49-11.79.59-6.88,1.19-13.75,1.84-20.62,2.94-31,6.48-62.61,16.87-92.09.48-1.37-1.69-2-2.17-.6Z"/><path class="cls-5" d="M312.91,192.58c9.07,6.59,18.44,21.73,22.07,33.61A72.43,72.43,0,0,1,338.27,253a3.16,3.16,0,0,1-6,1.42c-4.71-8.75-6.61-18.67-13.32-26.59"/><path d="M312.35,193.55c12.45,9.48,20.49,25.78,23.55,40.83a69.18,69.18,0,0,1,1.43,14.12c0,.91,0,1.81-.07,2.71q-3.57,5.23-4.75,1.18c-1.37-1.54-2.13-4.69-2.87-6.52-2.73-6.67-5.31-13.15-9.86-18.83-.91-1.13-2.49.47-1.6,1.59,4.12,5.13,6.53,11,9,17.08,1.28,3.15,2.56,8.47,5.27,10.61a4.27,4.27,0,0,0,5.81-.45c2.61-2.89,1.41-9.37,1.14-12.79-1.47-18.94-10.48-39.74-25.9-51.47-1.15-.88-2.27,1.08-1.13,1.94Z"/><path class="cls-5" d="M256.79,213.62a66.46,66.46,0,0,0-12.66-15c-3.41-3-7.25-5.86-9.26-9.71a23.89,23.89,0,0,1-2.13-8.06c-1.52-11.18-2.11-22.76.79-33.68.8-3,5.92-2.56,6,.49v.09a101.55,101.55,0,0,0,1.88,17.8c1.17,6,3.05,12.18,7.81,16.64,4,3.76,9.61,5.88,15.05,7.9"/><path d="M257.76,213.05a71,71,0,0,0-9.21-11.79c-3.8-3.9-9.05-7-12-11.69-3.36-5.34-3.38-12.93-3.76-19.07a92.72,92.72,0,0,1-.14-9.43c.12-3.1-.23-8.17,1.3-10.88,0-1.24.76-1.8,2.3-1.69q2.92-2.19,2.16,1a18.48,18.48,0,0,1,.19,3.58c.17,2.48.44,5,.79,7.42A56.34,56.34,0,0,0,243,175c3.94,9.12,12.16,12.87,21,16.16,1.36.51,1.95-1.67.6-2.17-7.1-2.65-14.25-5.47-18.26-12.35-3.69-6.35-4.65-14.6-5.28-21.76-.27-3,.93-8.53-2.33-10.36a4.39,4.39,0,0,0-6.12,2.06c-2.53,5.31-2.28,13.5-2.2,19.2.11,6.56.36,13.93,2.21,20.28,1.5,5.12,5.11,8.44,9,11.84a72.78,72.78,0,0,1,14.22,16.29c.77,1.22,2.72.09,1.94-1.14Z"/><path class="cls-5" d="M282.26,197.9a32,32,0,0,1-20.94-11.11c-5.62-6.69-8.26-16-6.3-24.5s8.76-15.93,17.27-17.94c3.92-.92,13.79-3.19,17.8-2.69,10.39,1.28,15.16,4.36,22.35,12s10.1,22.82,4.87,31.89c-5.91,10.26-19.95,15.14-35.05,12.38"/><path d="M282.26,196.78c-17.78-2.3-33.07-21.37-24.42-39.12,3.56-7.3,9.85-11.15,17.5-12.86,6.51-1.45,12.8-2.75,19.42-1.2,14.11,3.29,24.51,17.12,24.07,31.54-.56,18.63-20.87,24.22-36.27,21.68-1.42-.24-2,1.93-.6,2.17,12.84,2.11,28.64-.27,36-12.36,6.58-10.82,2.59-26.26-5.78-34.9-9.36-9.66-20.21-12.53-33.24-10-6.24,1.22-12.17,2.55-17,6.9a25.94,25.94,0,0,0-8.5,16.67c-1.75,17.38,12.34,31.57,28.87,33.71,1.43.18,1.42-2.07,0-2.25Z"/><path d="M284.35,211.05h5.71l7.1,21.24,1.75.32v2.09h-10v-2.09l2.25-.32-1.08-3.8h-7.57l-1.08,3.83,2.47.29v2.09h-8.43l0-2.09,1.84-.35Zm2.35,5.52-.48-2.22-.5,2.25-2.57,9.45h6.28Z"/><path d="M277.68,185a24,24,0,0,0,29.75-12,3,3,0,0,0-1.8-4.41l-.54-.13a3,3,0,0,0-2.92.77l-.38.42c-2.57,2.86,1.66,7.12,4.25,4.24l.37-.42-2.92.77.55.14L302.25,170c-4.41,8.87-13.56,12.53-23,9.27-3.65-1.27-5.22,4.53-1.59,5.79Z"/><path d="M272.29,165a5,5,0,0,0,5,3.51,4.48,4.48,0,0,0,3.47-2,4.53,4.53,0,0,0,.63-3.11,4.12,4.12,0,0,0-5.6-3.39c-2.24.95-3.7,3.88-2.19,6.08a3.19,3.19,0,0,0,1.8,1.38,3,3,0,0,0,3.38-4.41c-.26-.37.22.74.13.32l.1.79a1.15,1.15,0,0,1,0-.32l-.11.8c.06-.3.24-.44-.15.29.2-.38-.47.51-.22.29s-.69.47-.29.21-.76.25-.29.15l-.8.11a1.29,1.29,0,0,1,.34,0l-.8-.1c.41.09-.49-.27-.6-.36s-.28-.23-.18-.13.08,0-.29-.4c.18.32-.16-.42-.16-.43s.08.29.08.33l-.1-.8a3.53,3.53,0,0,1,0,.46l.11-.8c0,.11-.07.23-.08.34.24-.52.31-.67.19-.46a.42.42,0,0,1-.09.14l.33-.43c.47-.34.58-.42.34-.26l.48-.2a1.05,1.05,0,0,1-.24.06l.8-.1a2.09,2.09,0,0,1-.5,0l.79.11c-.12,0-.25-.08-.37-.09.51.24.64.29.37.15s-.15-.09.09.09c.59.46-.29-.43.17.17.17.25.2.28.08.1s-.09-.15.15.36a3,3,0,0,0-5.79,1.6Z"/><path d="M292.65,161a4.53,4.53,0,0,0-4.16,1.06l5.12,2.12a.49.49,0,0,1,0-.17l-.11.79a1.2,1.2,0,0,1,.06-.24l-.3.72c.24-.5-.53.58-.23.29-.64.62-.57.39-.25.26l-.71.3a1.89,1.89,0,0,1,.34-.09l-.8.11a2.16,2.16,0,0,1,.44,0l-.8-.11a1.78,1.78,0,0,1,.33.09l-.72-.3c.29.13.24.25-.33-.3.29.27-.47-.73-.28-.36l-.3-.71a.72.72,0,0,1,.07.25l-.1-.8a2.26,2.26,0,0,1,0,.26l.11-.79a.88.88,0,0,1,0,.15l.3-.72c-.23.5.53-.57.24-.28.64-.63.56-.39.25-.25l.71-.31a1.91,1.91,0,0,1-.34.1l.8-.11a2.16,2.16,0,0,1-.44,0l.8.11A1.77,1.77,0,0,1,292,162l.71.3c-.29-.13-.23-.25.33.3-.28-.27.48.72.28.36l.3.71a1,1,0,0,1-.07-.25,3,3,0,0,0-3.69-2.09,3.08,3.08,0,0,0-2.1,3.69,4,4,0,0,0,4.21,2.94,4,4,0,0,0,3.93-4.45,4,4,0,0,0-4.21-3.36c-2.1.15-4.19,1.74-4,4a3.06,3.06,0,0,0,1.84,2.75,3.1,3.1,0,0,0,3.28-.62c-.42.29-.5.37-.24.22l-.71.31a1.31,1.31,0,0,1,.28-.09l-.8.11a1.69,1.69,0,0,1,.45,0l-.8-.11.14,0a3,3,0,0,0,1.6-5.79Z"/></g></svg>