<svg xmlns="http://www.w3.org/2000/svg" xmlns:xlink="http://www.w3.org/1999/xlink" viewBox="0 0 328 271" xmlns:v="https://vecta.io/nano"><style><![CDATA[.R{fill:#183e42}.S{fill:#fff}.T{fill:#e4252e}.U{fill:#fac706}.V{fill:#7ec7cd}.W{fill:#ffda83}.X{fill:#183e41}.Y{fill:#f0a4a5}.Z{font-family:Pangram-Medium}.a{font-size:16.032px}]]></style><path d="M308.2 266.3H18.7a15.88 15.88 0 0 1-15.9-15.9v-231A15.88 15.88 0 0 1 18.7 3.5h289.5a15.88 15.88 0 0 1 15.9 15.9v231a15.88 15.88 0 0 1-15.9 15.9z" class="W"/><path d="M308.2 265.3h-6.9-18.8-28H220h-38.5-39.6-38.3-34.1-27.3-17.8c-3.4 0-7.1.3-10.4-.7-6.2-2-10.2-7.9-10.3-14.4v-3.5-18.2-29.4-36.6-39.6-38.3-32.7-23.2-9.3A15.07 15.07 0 0 1 18.6 4.5h1.9 13.4 23.9 31.8 36.8 39.5 39.3 36.3 31 22.8 11.9c2.3 0 4.6.2 6.7 1.1 5.7 2.3 9.3 8 9.3 14.1v11.2 24.6 33.6 38.7 39.4 36 28.3 16.4 2.5c-.2 8.2-6.8 14.8-15 14.9-1.3 0-1.3 2 0 2 8.8-.1 16.3-6.9 16.9-15.8.1-1.1 0-2.1 0-3.2v-16-28.2V168v-39.7-39.2-34-24.6-11c0-6.1-3.2-11.9-8.6-14.9-2.8-1.6-5.9-2.2-9.1-2.2h-11.3-22.5-30.9-36.6-39.6-39.8-37.4-31.9-23.9-13.1-2.8c-8.8.7-15.7 8.1-15.8 16.9v8.6 22.9 32.9 38.5 39.9V199v29.7 18.1 3.4c.1 6.4 3.6 12.4 9.4 15.3 4.1 2 8.3 1.8 12.6 1.8h17.4 27.2 34.2 38.5 40.2 38.8 34.8H283h18.7 6.5c1.3 0 1.3-2 0-2z"/><path d="M304.2 17.2c-2.2 1.2-3.5 3.9-3 6.3s2.5 4.5 5 5c2.6.5 5.5-.9 6.7-3.2s.7-5.4-1.2-7.2c-2.6-2.2-5.5-2.1-7.5-.9" class="Y"/><path d="M303.7 16.3c-2.6 1.5-4 4.5-3.5 7.4.5 2.8 3 5.3 5.8 5.7 2.9.5 6-.9 7.5-3.5s1.1-6-.9-8.2c-2.2-2.4-6-3.1-8.9-1.4-1.1.6-.1 2.4 1 1.7 1.9-1.1 4.2-.9 5.8.5 1.7 1.4 2.4 3.8 1.6 5.8-.8 1.9-2.8 3.1-4.8 3.2-2.1 0-4.2-1.4-4.9-3.4-.8-2.3.2-4.9 2.3-6.1 1.1-.6.1-2.3-1-1.7h0z"/><path d="M303.1 18l8.1 9.3" class="Y"/><path d="M302.4 18.7l8.1 9.3c.4.4 1.1.4 1.4 0 .4-.4.4-1 0-1.4l-8.1-9.3c-.4-.4-1.1-.4-1.4 0-.4.4-.4 1 0 1.4h0z"/><text><tspan x="167.487" y="80.432" class="Z a">Perfecto! Ahora </tspan><tspan x="164.687" y="99.632" class="Z a">a esperar a que </tspan><tspan x="231.187" y="118.932" class="Z a">tu profe </tspan><tspan x="205.187" y="138.132" class="Z a">apruebe tu </tspan><tspan x="168.887" y="157.432" class="Z a">carga para que </tspan></text><path d="M304.4 243.8c-2.2 1.2-3.5 3.9-3 6.3.4 2.4 2.5 4.5 5 5 2.6.5 5.5-.9 6.7-3.2s.7-5.4-1.2-7.2c-2.5-2.2-5.4-2.1-7.5-.9" class="Y"/><path d="M303.9 242.9c-2.6 1.5-4 4.5-3.5 7.4.5 2.8 3 5.3 5.8 5.7 2.9.5 6-.9 7.5-3.5s1.1-6-.9-8.2c-2.1-2.5-5.9-3.1-8.9-1.4-1.1.6-.1 2.4 1 1.7 1.9-1.1 4.2-.9 5.8.5 1.7 1.4 2.4 3.8 1.6 5.8-.8 1.9-2.8 3.1-4.8 3.2-2.1 0-4.2-1.4-4.9-3.4-.8-2.3.2-4.9 2.3-6.1 1.2-.6.2-2.4-1-1.7h0z"/><path d="M303.3 244.6l8.1 9.3" class="Y"/><path d="M302.6 245.3l8.1 9.3c.4.4 1.1.4 1.4 0 .4-.4.4-1 0-1.4l-8.1-9.3c-.4-.4-1.1-.4-1.4 0-.4.4-.3 1 0 1.4h0z"/><path d="M16.5 16.9c-2.2 1.2-3.5 3.9-3 6.3s2.5 4.5 5 5c2.6.5 5.5-.9 6.7-3.2s.7-5.4-1.2-7.2c-2.5-2.2-5.5-2.1-7.5-.9" class="Y"/><path d="M16 16c-2.6 1.5-4 4.5-3.5 7.4.5 2.8 3 5.3 5.8 5.7 2.9.5 6-.9 7.5-3.5s1.1-6-.9-8.2C22.8 14.9 19 14.3 16 16c-1.1.6-.1 2.4 1 1.7 1.9-1.1 4.2-.9 5.8.5 1.7 1.4 2.4 3.8 1.6 5.8-.8 1.9-2.8 3.1-4.8 3.2-2.1 0-4.2-1.4-4.9-3.4-.8-2.3.2-4.9 2.3-6.1 1.2-.6.1-2.4-1-1.7h0z"/><path d="M15.4 17.7l8.1 9.3" class="Y"/><path d="M14.7 18.4l8.1 9.3c.4.4 1.1.4 1.4 0 .4-.4.4-1 0-1.4L16.1 17c-.4-.4-1.1-.4-1.4 0-.4.4-.3 1 0 1.4h0z"/><path d="M16.5 243.8c-2.2 1.2-3.5 3.9-3 6.3.4 2.4 2.5 4.5 5 5 2.6.5 5.5-.9 6.7-3.2s.7-5.4-1.2-7.2c-2.5-2.2-5.5-2.1-7.5-.9" class="Y"/><path d="M16 242.9c-2.6 1.5-4 4.5-3.5 7.4.5 2.8 3 5.3 5.8 5.7 2.9.5 6-.9 7.5-3.5s1.1-6-.9-8.2c-2.1-2.5-5.9-3.1-8.9-1.4-1.1.6-.1 2.4 1 1.7 1.9-1.1 4.2-.9 5.8.5 1.7 1.4 2.4 3.8 1.6 5.8-.8 1.9-2.8 3.1-4.8 3.2-2.1 0-4.2-1.4-4.9-3.4-.8-2.3.2-4.9 2.3-6.1 1.2-.6.1-2.4-1-1.7h0z"/><path d="M15.4 244.6l8.1 9.3" class="Y"/><path d="M14.7 245.3l8.1 9.3c.4.4 1.1.4 1.4 0 .4-.4.4-1 0-1.4l-8.1-9.3c-.4-.4-1.1-.4-1.4 0-.4.4-.3 1 0 1.4h0z"/><g class="S"><path d="M64.7 178.3c-3.7 0-8.2-1.6-13.7-5-.3-.2-.7-.4-1.1-.6-3.6-2-9-4.9-9.2-9.6-.1-1.9.3-4.1 1.1-6.7-.6.1-1.2.1-1.9.1h-.5-.9c-2 0-4.3-.2-5.8-1.8-1.9-2-1.5-4.8-1.2-6.6.1-.8.8-1.5 1.7-1.7 3.2-.5 6.4-1 8.8-2.4 2.8-1.6 3.3-4.4 3.7-8.4l.3-3.9c.3-4.1.7-8.3 1.8-12.3 1.3-4.7 3.8-8 8.3-11.1.4-.3.8-.6 1.3-.8l-.3-.7v-.1c-.5-.8-.3-1.8.5-2.5 1.9-1.5 4.2-2.7 6.4-3.3.3-1.4.7-2.6 1.6-3.4.3-.4.7-.6 1.1-.8 4.4-1.3 8.5-2.3 12.3-3.2l-4.1-2c-.4-.2-.9-.4-1.4-.6-1.4-.6-3-1.2-4-2.2-2.2-2-2-5.8-1.9-8.5v-1.4c0-8.6.7-17.6 2.2-27.6.1-.7.6-1.2 1.2-1.5.8-1.1 2.5-1.4 3.9-1.7.4-.1.8-.1 1-.2 4.8-1.4 10.2-2.4 17-3 .1-.1.2-.1.3-.2.3-.1.6-.2.9-.2s.6.1.9.2c.4 0 .8-.1 1.2-.1.2-.2.4-.3.6-.4.3-.1.6-.2.9-.2.2 0 .5 0 .7.1.3-1.4 1-3.1 2.7-3.1.6 0 1 .2 1.4.5.4-.9 1.1-1.6 2.2-1.6 2.4 0 2.7 3 2.8 4.3 0 0 .1.4.1.5.9.3 1.7.8 2.6 1.2.7.4 1.4.7 2.1 1 .5.2 1.2.5 1.9.7 2.3.8 4.8 1.6 6.3 3.2l.1.1c.1.1.1.1.1.2.4.5.5 1 .4 1.6 1.8 11.9 2.8 23.6 2.9 34.9.4.7.3 1.6-.3 2.3-1.5 1.8-4.2 1.9-6.4 2-.5 0-1 0-1.4.1 1.9.9 3.7 1.9 5.5 3 .5-3.5 3.2-6.5 7-7.4.2 0 .3-.1.5-.1.5 0 1 .2 1.4.6.3.2.5.5.6.9l.6 1.8c4.2-1.4 7.1-3.1 9.5-5.3 4-3.9 5.6-9.4 4.6-16.5-.4-2.9-1.1-5.8-1.8-8.6-.7-3.1-1.5-6.4-1.9-9.7-.6-4.8-1.3-10.2 1.1-15 0-.1.1-.2.2-.3.2-.3.4-.6.7-.7 1.2-.9 3-1 4.1-1s2 .1 2.7.4c1 .4 1.3.7 1.8 1.7.4.9.3 2.3-.1 4.3-.1.6-.2 1.2-.2 1.4 0 1.4 0 2.9.1 4.3.2 4.1 1.3 8.3 2.4 12.7 1.9 7.3 3.8 14.8 1.6 22.2-2.7 9.1-10 16.7-19.7 20.4l-1.1.4c.2.9-.2 1.8-1.1 2.3-1.4.7-2.9 1.1-4.4 1.1h-.4c0 .3.1 1.7.1 1.7.2 3.4.3 6.8.4 9.6l.2 10.7h1.1c1.1 0 2.1.1 3 .4 2.4.6 3.4 2.6 4.2 4.4.2.4.4.8.6 1.1.6 1 1.1 2.1 1.7 3.3a3.15 3.15 0 0 1 .8 1.5c2.3 4.9 4 9.8 5 14.7.1.3.1.7.2 1.1.5 2.4 1.2 5.5.6 7.8-.6 2.2-3 3.6-4 4.1-1.6.8-3.6 1.2-5.3 1.5l-1.5.3c-.9.2-1.8.4-2.7.5-.9.3-1.9.5-3.1.5-4.6 0-10.5-2.7-13.6-4.4-.4-.2-.8-.4-1.3-.6-3.1-1.4-7.7-3.5-9-7-3.6.8-7.4 1.6-11.3 2.3-5.3.9-9.8 1.4-14 1.6h-.5c.4 2.7.8 5.1.9 7.4.2 3-.4 4.4-2.8 6.1-1.5 1.1-3.2 1.6-4.9 2.1-.6.2-1.2.4-1.7.6l-.8.3c-1.3.5-2.7 1-4.2 1.4-.6.2-1.3.4-2 .4-.5.1-.7.1-1 .1zm-4.6-55.7c-1.4 2.5-2.3 5.4-2.7 8.6-.1.8-.2 1.6-.2 2.4.3 0 .6-.1.9-.1.3-1.2.5-2.4.7-3.5.5-2.4.9-4.9 1.3-7.4z"/><path d="M147.6 35c.9 0 1.7.1 2.2.3.7.3.8.3 1.1 1 .4.9-.3 4-.4 5.1l.1 4.4c.6 11.3 7.4 23.1 4.1 34.5-2.7 9.2-10.2 16.2-18.9 19.6-.6.2-1.4.5-2.3.9.1.3.2.7.4 1a.76.76 0 0 1-.3.8 8.49 8.49 0 0 1-3.8.9c-.7 0-1.3-.1-1.9-.2.2 1.1.2 2.3.3 3.4.2 3.2.3 6.4.4 9.6l.2 12.1c.8-.1 1.6-.2 2.5-.2a10.9 10.9 0 0 1 2.6.3c2.3.6 2.9 2.9 4 4.9.6 1.2 1.3 2.3 1.8 3.5.3.2.5.6.5.9 2.2 4.7 4 9.6 5 14.7.5 2.4 1.5 5.9.8 8.3-.4 1.5-2 2.6-3.3 3.3-1.9.9-4.4 1.2-6.5 1.6-.9.2-1.8.4-2.8.5-.8.3-1.7.5-2.7.5-4.4 0-10.2-2.7-13-4.2-3.1-1.5-9.6-3.8-10-8-4.2 1-8.3 1.9-12.5 2.6-4.6.8-9.2 1.4-13.8 1.6-.6 0-1.3.1-2 .1h-.1c.5 2.9 1 5.8 1.2 8.8.2 2.5-.2 3.5-2.3 4.9-1.9 1.3-4.2 1.8-6.3 2.6-1.6.6-3.2 1.3-4.9 1.6-.5.2-1 .3-1.7.4h-.6c-4.4 0-9.4-2.6-13-4.8-3.3-1.8-9.5-4.7-9.7-9.1-.1-2.6.7-5.5 1.7-8.3-1.2.3-2.5.4-3.9.4h-1.4c-1.7 0-3.6-.2-4.8-1.4-1.4-1.5-1.2-3.7-.9-5.5 0-.2.3-.5.5-.5 3.1-.5 6.6-1 9.3-2.6 3.6-2 4-5.7 4.4-9.5.5-5.3.6-10.8 2.1-16 1.3-4.7 3.8-7.6 7.7-10.3.8-.5 1.5-1 2.3-1.5l-.9-1.8v-.1c-.2-.3-.2-.6.1-.8 1.8-1.4 4.2-2.7 6.7-3.2.4-1.7.6-3 1.5-3.6.1-.2.2-.3.5-.4 5-1.4 10-2.7 15-3.8-.2-.2-.3-.4-.3-.6v-.3l-6.3-3c-1.5-.7-3.9-1.4-5.1-2.5-2.1-2-1.5-6.4-1.5-9 0-9.2.8-18.3 2.2-27.4.1-.4.4-.5.8-.5.4-1.3 3.2-1.4 4.4-1.8 5.6-1.6 11.4-2.5 17.2-3 .1-.1.2-.2.4-.3.1 0 .2-.1.3-.1s.2 0 .2.1c.1.1.2.1.2.2.7-.1 1.5-.1 2.2-.2.1-.2.3-.4.5-.5.1 0 .2-.1.3-.1s.2 0 .2.1c.2.1.3.3.4.4.4 0 .7 0 1.1-.1.2-1.9.6-3.4 1.6-3.4 1.2 0 1.4 2.2 1.5 3.2h.4c.1-2.3.6-4.3 1.6-4.3 1.3 0 1.4 2.6 1.5 3.4 0 .3.1.7.1 1h.1c1.8.6 3.5 1.7 5.3 2.4 2.2.9 6.1 1.7 7.7 3.6l.1.1.1.1c.2.2.1.4 0 .7 1.8 11.7 2.8 23.5 3 35.4 0 .1.1.1.1.2.2.3.1.6-.1.9-1.4 1.8-5 1.4-7 1.6-.4 0-.8.1-1.2.1l-.3 1.9c2.9 1.2 5.8 3 8.6 4.7-.6-3.9 2-7.5 6-8.4h.2c.2 0 .4.1.5.2s.2.2.2.3c.4 1 .7 2 1.1 3 4.1-1.3 8.1-3 11.2-6 4.9-4.7 5.9-11.1 5-17.6-.9-6.2-2.9-12.1-3.7-18.2-.6-4.7-1.2-9.9 1-14.3 0-.1 0-.1.1-.2l.3-.3c.8-.6 2.2-.8 3.5-.8M55.7 135.1c.3-.1.6-.1.9-.1h.4.1c.7-.1 1.3-.1 2-.2.3-1.5.7-2.9.9-4.4.8-4.2 1.5-8.5 2.2-12.8-3.5 3.4-5.5 8.2-6.2 13.5 0 1.3-.1 2.6-.3 4m91.9-102.8c-1.4 0-3.4.2-4.8 1.2-.5.3-.8.7-1.1 1.2-.1.2-.2.3-.2.5-2.5 5.1-1.8 10.7-1.2 15.7.4 3.4 1.2 6.6 2 9.8.7 2.9 1.3 5.7 1.8 8.5 1 6.6-.4 11.8-4.2 15.3-2 1.9-4.4 3.4-7.8 4.6l-.2-.5c-.2-.5-.5-1-1-1.4-.6-.6-1.4-.9-2.3-.9-.3 0-.5 0-.8.1-1 .2-1.9.6-2.8 1-.2-11.2-1.2-22.8-2.9-34.6a3.48 3.48 0 0 0-.6-2.4c-.1-.1-.1-.2-.2-.2-.1-.1-.1-.2-.2-.2-1.7-1.9-4.4-2.8-6.8-3.6-.7-.2-1.4-.5-1.9-.7-.6-.3-1.3-.6-1.9-1-.6-.3-1.3-.7-2-1-.2-1.5-.8-5.1-4-5.2h-.1c-1.2 0-2.1.5-2.7 1.2-.2-.1-.5-.1-.8-.1h-.1c-1.7 0-2.9 1-3.6 3-.4 0-.8.2-1.2.3-.2.1-.4.2-.5.3h-.4c-.4-.1-.7-.2-1.1-.2-.5 0-1 .1-1.5.4-.1 0-.1.1-.2.1-6.7.6-12.1 1.6-16.9 3-.2.1-.6.1-.9.2-1.4.3-3.4.7-4.5 1.9-.9.5-1.5 1.3-1.7 2.4-1.5 10-2.2 19.1-2.2 27.8v1.4c-.1 3-.3 7.1 2.3 9.6 1.2 1.1 2.9 1.8 4.4 2.4.5.2 1 .4 1.4.6l.7.3c-2.8.7-5.7 1.4-8.7 2.3-.7.2-1.3.6-1.7 1.1-.9.9-1.4 2-1.7 3.3-2.2.7-4.3 1.9-6.1 3.3-1.1.9-1.5 2.4-1 3.8-.1.1-.2.1-.3.2-4.8 3.2-7.4 6.7-8.8 11.8-1.2 4.2-1.5 8.4-1.8 12.6l-.3 3.8c-.4 3.7-.8 6.1-3 7.4-2.3 1.3-5.4 1.8-8.4 2.3-1.4.2-2.6 1.4-2.8 2.8-.3 2-.7 5.3 1.6 7.7 2.1 2.2 5.4 2.2 6.7 2.2h1 .5.1c-.5 2-.7 3.7-.6 5.3.2 5.5 6.1 8.6 9.9 10.7.4.2.8.4 1.1.6 5.7 3.5 10.4 5.2 14.3 5.2h.8c.8 0 1.6-.2 2.3-.5 1.5-.4 3-.9 4.2-1.4.3-.1.5-.2.8-.3.5-.2 1.1-.4 1.7-.6 1.7-.5 3.5-1.1 5.2-2.3 2.8-2 3.7-3.8 3.4-7.3-.1-1.9-.4-3.9-.7-6 4-.2 8.2-.7 13.2-1.6 3.5-.6 7-1.4 10.3-2.1 1.9 3.3 6.2 5.3 9.2 6.6.5.2.9.4 1.3.6 3.9 2.1 9.6 4.5 14.2 4.5a11.59 11.59 0 0 0 3.4-.5c.9-.1 1.8-.3 2.6-.5l1.4-.3c1.8-.3 3.9-.7 5.7-1.6 1.5-.7 4-2.3 4.7-5s0-5.9-.6-8.5c-.1-.4-.2-.7-.2-1-1-4.9-2.7-9.9-5-14.8-.1-.8-.4-1.5-1-2-.6-1.1-1.1-2.2-1.6-3.1-.2-.3-.4-.7-.6-1.1-.9-1.8-2.1-4.3-5.1-5.1-1-.3-2-.4-3.1-.4 0-3.6-.1-6.5-.2-9.4l-.4-9.7v-.3c1.4-.1 2.8-.5 4-1.2 1-.5 1.6-1.5 1.8-2.5l.2-.1c10.1-3.9 17.8-11.8 20.5-21.3 2.3-7.8.3-15.5-1.6-22.9-1.1-4.4-2.2-8.5-2.4-12.5-.1-1.4-.1-2.9-.1-4.2 0-.2.1-.8.2-1.3.4-2.2.5-3.8-.1-5.1s-1.2-1.8-2.5-2.3c-1.1-.1-2.5-.1-3.2-.1h0z"/><path d="M151.4 35.6c-.7 0-1.4-.4-1.7-1.1-.4-.6-.4-1.4 0-2.1.5-.8.6-1.8.8-2.9.2-1.3.5-2.8 1.3-4.1 1-1.6 2.8-2.6 4.5-2.6.9 0 1.7.3 2.4.8 1 .7 1.6 1.7 1.8 2.9.2 1.4-.2 3.1-1.2 4.4-1.8 2.4-4.5 3.7-6.9 4.6-.1 0-.2.1-.3.1-.2-.1-.5 0-.7 0h0z"/><path d="M156.3 24.1c.6 0 1.1.2 1.6.5 1.8 1.3 1.5 3.8.3 5.3-1.5 2.1-4 3.3-6.4 4.2 0 0-.1 0-.1.1-.1 0-.2.1-.3.1-.3 0-.5-.2-.6-.4s-.2-.5 0-.8c1.2-2.1.7-4.9 2.1-7 .7-1.2 2-2 3.4-2m0-2.7c-2.1 0-4.3 1.3-5.6 3.2-1 1.6-1.3 3.2-1.5 4.7-.2 1-.3 1.9-.6 2.4-.6 1.1-.6 2.4 0 3.4.6 1.1 1.7 1.8 2.9 1.8.4 0 .8-.1 1.2-.2.1 0 .2-.1.3-.1 2.6-1 5.5-2.4 7.5-5.1 1.2-1.6 1.7-3.6 1.4-5.4a5.42 5.42 0 0 0-2.3-3.7c-1.1-.7-2.2-1-3.3-1h0z"/><path d="M147.3 34.9a1.92 1.92 0 0 1-1.2-.4c-.4-.2-.7-.6-.9-1.1-.1-.4-.4-1-.7-1.7-1.3-3.1-3.2-7.3-1.5-10 .7-1.2 2-1.9 3.9-2h.3c2.6 0 4.4 2.3 4.8 4.5.6 3.3-1.3 6.7-2.7 9.2l-.1.1c-.1.3-.3.5-.5.7-.3.5-.8.7-1.4.7h0z"/><path d="M147.2 21.1c1.8 0 3.2 1.7 3.5 3.4.5 2.9-1.3 6.1-2.7 8.5 0 .1-.1.2-.2.3-.1.2-.3.2-.5.2s-.3-.1-.4-.1c-.1-.1-.3-.2-.3-.4-1-2.9-6-11.5.5-11.9h.1m0-2.7h-.4c-2.8.2-4.2 1.6-4.9 2.7-2 3.3 0 7.9 1.4 11.2.3.6.5 1.2.7 1.6.3.8.8 1.4 1.4 1.8s1.2.5 1.9.5c.9 0 1.8-.4 2.4-1 .3-.3.6-.7.7-1.1h0c1.5-2.7 3.5-6.3 2.9-10.1-.5-3.2-3.1-5.6-6.1-5.6h0z"/><path d="M144.3 35.3c-.2 0-.5 0-.7-.1l-2.7-.8-1.8-.3c-1.1-.1-2.2-.2-3.3-.7-1.4-.6-2.3-1.7-2.7-3s-.1-2.8.8-4.1c1.1-1.6 2.8-2.4 4.7-2.4 1.2 0 2.4.4 3.4 1 2.5 1.7 4.3 4.9 4.4 8.1 0 .6-.2 1.2-.7 1.6-.5.5-.9.7-1.4.7h0z"/><path d="M138.5 25.3c.9 0 1.8.3 2.6.8 2.3 1.6 3.7 4.4 3.8 7.1 0 .3-.1.4-.2.6-.1.1-.3.2-.5.2h-.3l-2.9-.9c-1.6-.4-3.4-.2-4.9-.8-2.1-.9-2.7-3.2-1.4-5.1 1-1.3 2.4-1.9 3.8-1.9m0-2.7c-2.3 0-4.5 1.1-5.8 3-1.1 1.6-1.4 3.5-.9 5.2s1.8 3.1 3.5 3.9c1.3.6 2.6.7 3.7.8l1.6.2c.8.2 1.7.5 2.6.8.4.1.7.2 1.1.2.8 0 1.6-.3 2.2-.9.8-.7 1.2-1.6 1.1-2.7-.2-3.6-2.2-7.2-5-9.2-1.2-.9-2.6-1.3-4.1-1.3h0zm-18.3 74c-1.6 0-3-1.1-3.5-2.6-.3-.9-.2-1.9.2-2.8.5-.8 1.2-1.4 2.1-1.7.3-.1.6-.1 1-.1 1.3 0 2.5.7 3.1 1.8.1.1.1.1.1.2l.1.2c0 .1.1.2.1.3.5 1.9-.3 3.8-2.1 4.4-.3.3-.7.3-1.1.3h0z"/><path d="M120 90.8c.8 0 1.6.4 2 1.2v.1.1.2c.3 1.1 0 2.4-1.3 2.8-.2.1-.5.1-.7.1-1 0-1.9-.7-2.3-1.7-.4-1.2.2-2.4 1.4-2.7.5-.1.7-.1.9-.1m0-2.7c-.4 0-.9.1-1.3.2a4.69 4.69 0 0 0-3 2.3c-.6 1.2-.7 2.6-.3 3.8.7 2.1 2.6 3.5 4.8 3.5.5 0 1-.1 1.5-.2 2.5-.8 3.7-3.3 3-5.9 0-.2-.1-.3-.1-.5 0-.1-.1-.1-.1-.2V91v-.1c-.1-.1-.1-.2-.2-.4-.9-1.4-2.5-2.4-4.3-2.4h0zm-95.9 69.6a4.79 4.79 0 0 1-3.8-1.8c-.7-1-.9-2.1-.7-3.3.3-1.4 1.2-2.7 2.4-3.5 1.5-1 3.4-1.4 5.9-1.4.9 0 1.9.1 3.1.2h.1c.6 0 1.2.3 1.6.8s.5 1.2.4 1.8A1.92 1.92 0 0 1 32 152c-.7.5-1.3 1.3-1.9 2-.9 1.1-1.9 2.4-3.4 3.2-.9.3-1.7.5-2.6.5h0z"/><path d="M28 148.9c1 0 2.1.1 3 .2h.1c.5 0 .8.5.7 1 0 .2-.2.5-.4.5-2.1 1.4-2.9 4.1-5.3 5.2-.6.3-1.3.5-2 .5-1 0-2-.4-2.7-1.3-1.2-1.7-.2-3.9 1.4-4.9 1.5-.9 3.3-1.2 5.2-1.2m0-2.6h0c-2.7 0-4.8.5-6.6 1.7-1.6 1-2.7 2.6-3 4.4-.3 1.5 0 3.1.9 4.3 1.1 1.5 2.8 2.4 4.8 2.4 1.1 0 2.2-.3 3.2-.7 1.8-.9 3-2.4 3.9-3.6.5-.7 1-1.3 1.5-1.7.9-.5 1.6-1.3 1.7-2.4.2-1 0-2-.7-2.8a3.32 3.32 0 0 0-2.6-1.3c-1.2-.3-2.2-.3-3.1-.3h0z"/><path d="M26.8 149.7c-2.1 0-3.8-.4-5.2-1.2-2.2-1.3-3.7-4.2-2.3-6.7 1.2-2.2 2.8-2.7 4-2.7.5 0 .9.1 1.4.2.2-1.9 1.4-3.6 3.2-4.5.7-.4 1.5-.5 2.2-.5 2.2 0 4.1 1.6 4.5 4 .2.9.2 1.9.1 2.7v1.9c.1.8.3 1.7.5 2.7v.3c.1 1-.6 1.9-1.6 2.2h-.2-.4-.1a2.36 2.36 0 0 1-.9.8c-.2.1-.5.2-.8.3h-.4c-1.1.3-2.5.5-4 .5z"/><path d="M30.1 135.7c1.6 0 2.9 1.1 3.2 2.9.3 1.5 0 3 .1 4.5.1.9.3 1.9.5 2.8v.1c0 .4-.3.7-.6.8h-.2-.2c-.5-.1-1-.2-1.5-.4l.1.1c.2.1.3.2.3.3.3.4 0 .8-.3 1-.1.1-.2.1-.3.1-1.3.2-2.9.4-4.4.4-1.6 0-3.2-.2-4.5-1-1.7-.9-2.8-3.1-1.8-4.9.8-1.4 1.8-2 2.8-2s2 .5 3 1.2c-.8-2.1.1-4.6 2.2-5.6.6-.2 1.1-.3 1.6-.3m0-2.7h0c-.9 0-1.9.2-2.8.7-1.8.9-3 2.4-3.6 4.1h-.4c-1.2 0-3.5.4-5.2 3.4-1.8 3.2.1 6.9 2.8 8.5 1.6.9 3.5 1.3 5.8 1.3 1.5 0 3-.2 4.3-.3h.4c.5-.1.9-.2 1.4-.5.3-.2.6-.4.8-.7h.1.2c1.6-.4 2.7-1.9 2.6-3.6 0-.2-.1-.4-.1-.5l-.5-2.6c-.1-.5 0-1 0-1.7 0-.9.1-1.9-.1-3-.4-3-2.8-5.1-5.7-5.1h0z"/></g><path d="M144.6 36.4c-1.6 2.6-1.6 5.9-1.4 9a71.36 71.36 0 0 0 1.5 11.3c.9 4 2.1 7.9 2.6 12 .6 4.1.6 8.3-1 12.1-1.8 4.4-5.4 7.7-9.4 9.8s-8.4 3.2-12.8 4.2c-.6 1.5.3 5.4 1.8 5.9s5-.3 6.4-.7c4.8-1.3 9.8-3.9 13.4-7.4 3.8-3.6 5.6-6.2 7.5-11 2.9-7.1.7-15.4-1.4-22.8s-2.8-15-1.9-22.7c.3-.5-5.3-.3-5.3.3" class="V"/><g class="R"><path d="M143.9 36.1c-1.4 2.5-1.7 5.4-1.6 8.2.1 3.3.5 6.6 1.1 9.9 1.2 6.7 3.8 13.3 3.5 20.3-.3 6.5-3.8 11.7-9.3 15-2.8 1.6-5.9 2.7-9 3.6l-2.4.6c-.7.2-1.6.2-2.2.5-.7.4-.8 1.3-.7 2.1 0 1.6.5 4.1 2 5.1 1.6 1.1 4.4.3 6.1-.1 5.5-1.2 10.9-4 15-7.9 3.9-3.7 7-8.2 8.4-13.4 1.6-6.1.3-12.5-1.3-18.4-1-3.8-2-7.5-2.5-11.4s-.6-7.8-.3-11.6c.1-.9.7-2.4-.3-3-.6-.3-1.5-.3-2.2-.3-1 0-3.9-.2-4.2 1.1-.2.9 1.2 1.3 1.4.4-.2.7-.4.2-.1.2.1 0 .4-.1.5-.1.4-.1.7-.1 1.1-.1.6 0 2-.3 2.6.1.4.2-.2-.4-.2 0 0 .5-.1 1-.1 1.4-.1.8-.1 1.6-.2 2.4-.1 1.9-.1 3.8.1 5.7.2 3.5.8 7.1 1.6 10.5s1.9 6.7 2.5 10.1c.7 3.4 1.1 7 .6 10.5-.5 3.1-1.7 6-3.3 8.7-3 5.1-8 9.1-13.4 11.6-2.8 1.3-6.1 2.4-9.2 2.6-1.5.1-2.1-.2-2.6-1.6-.4-1.1-.7-2.4-.3-3.5l-.5.5c8.5-2 18-4.8 22.1-13.3 4.5-9.2-.1-19.4-1.7-28.8-.5-2.9-.8-5.9-1-8.9-.1-2.7 0-5.5 1.4-7.9.4-.9-.9-1.7-1.4-.8h0z"/><path d="M149.6 43.7c-2-.7-4.3-.9-6.4-.5-.4.1-.6.6-.5.9.1.4.5.6.9.5 1.8-.3 3.8-.1 5.6.5.4.1.8-.2.9-.5.2-.3-.1-.7-.5-.9h0zm.6 8.6l-3 .7c-1 .3-2 .8-2.9 1.5-.3.3-.3.8 0 1.1s.7.3 1.1 0c.2-.1-.1.1 0 0l.1-.1c.1-.1.2-.1.3-.2l.6-.3c.4-.2.8-.4 1.3-.5.9-.3 1.9-.5 2.8-.7.4-.1.6-.6.5-.9 0-.5-.4-.7-.8-.6h0zm2.7 9.5c-2.2.4-4.3 1-6.3 1.8-.4.2-.5.7-.3 1 .2.4.7.4 1 .3 1.9-.8 3.9-1.4 5.9-1.7.4-.1.6-.6.5-.9 0-.4-.4-.6-.8-.5h0zm-5.7 11.5c.2.3.4.4.7.6s.6.3.8.5c.6.3 1.2.5 1.8.6 1.2.3 2.5.3 3.7.1.4-.1.6-.6.5-.9-.1-.4-.5-.6-.9-.5-.9.2-1.9.2-2.9 0-.5-.1-1-.2-1.4-.4-.5-.2-.9-.4-1.4-.7l.3.3v-.1c-.2-.3-.7-.5-1-.3-.2 0-.4.5-.2.8h0zm-1.2 9.3c1.1 1.5 2.5 2.8 4.2 3.6.4.2.8.1 1-.3.2-.3.1-.8-.3-1l-1.1-.6c-.2-.1-.3-.2-.5-.3l-.1-.1c.1.1 0 0 0 0-.1-.1-.2-.1-.2-.2l-.9-.9c-.1-.2-.3-.3-.4-.5l-.1-.1c.1.1 0 0 0 0-.1-.1-.1-.2-.2-.3-.2-.3-.7-.5-1-.3-.4.1-.6.6-.4 1h0zm-5.6 6c.1.4.2.9.4 1.3.2.6.5 1.2.8 1.7.5.9 1.1 1.9 1.9 2.7.3.3.8.3 1.1 0s.3-.8 0-1.1l-.4-.4-.1-.1c.1.1 0 0 0 0-.1-.1-.1-.2-.2-.3l-.9-1.5c-.1-.3-.3-.5-.4-.8-.1-.1-.1-.3-.2-.4 0 0-.1-.2-.1-.1s0-.1 0-.1c-.2-.4-.3-.8-.4-1.3-.1-.4-.6-.6-.9-.5-.5.1-.7.5-.6.9h0zm-6.9 3.3c-.4 1.4-.1 2.9.5 4.2.5 1.1 1.1 2.3 2.1 3 .8.5 1.6-.8.8-1.3l-.1-.1c.1 0 .1.1 0 0l-.2-.2c-.1-.1-.2-.2-.2-.3-.1-.1.1.1 0 0 0-.1-.1-.1-.1-.2-.3-.4-.6-1-.8-1.4-.2-.6-.4-1.2-.5-1.8a2.62 2.62 0 0 1 .1-1.5c.2-.9-1.3-1.3-1.6-.4h0z"/></g><path d="M151.5 33.5c1.8-.7 3.6-1.6 5.1-2.9.8-.7 1.5-1.6 1.8-2.6.2-1-.1-2.3-1-2.8-1-.6-2.5-.2-3.3.7s-1.2 2.1-1.5 3.3-.4 3.3-1.1 4.3z" class="T"/><path d="M151.7 34.2c1.9-.7 3.6-1.6 5.2-2.8 1.4-1.2 2.6-2.8 2.3-4.8-.3-1.8-2-2.9-3.8-2.4-1.9.5-2.8 2.2-3.3 4-.3.9-.4 1.7-.5 2.6-.1.8-.2 1.7-.7 2.3-.5.8.8 1.6 1.3.8.7-1.1.8-2.5 1-3.8s.6-2.9 1.6-3.9c.8-.8 2.3-1 2.8.3.5 1.4-.5 2.7-1.5 3.6-1.4 1.2-3.1 2-4.8 2.7-.4.1-.6.5-.5.9s.5.7.9.5z" class="R"/><path d="M147.3 32.9c1.3-2.3 2.8-5.2 2.8-7.8 0-1.3-1.1-3-2.4-3.2-.8-.1-2.4.4-2.8 1.2s-.4 1.7-.3 2.5c0 2.1 2 5.2 2.7 7.3z" class="T"/><path d="M147.9 33.2c1.7-3 4.7-8.2 1.5-11.2-1.3-1.2-3.3-1.1-4.6 0-1.4 1.1-1.1 3.7-.7 5.2.6 2 1.8 3.8 2.4 5.8.3.9 1.8.5 1.4-.4-.5-1.4-1.2-2.8-1.8-4.2s-1.1-2.9-.8-4.5c.1-.7.5-1 1.1-1.2s1.1-.3 1.6.1c1.3 1 1.3 2.6 1 4.1-.5 2-1.5 3.8-2.4 5.5-.5.9.8 1.7 1.3.8z" class="R"/><path d="M144.2 33.2c0-1.3-.4-2.6-1-3.4-1-1.7-2.3-3.4-4.1-3.7-1.7-.3-3.5.8-4.1 2.4-.2.5-.2 1-.1 1.5.2.9 1.1 1.5 1.9 1.8.9.3 1.8.3 2.7.3 1.7.1 4.7 1.1 4.7 1.1z" class="T"/><g class="R"><path d="M145 33.2c0-2.2-1.1-4.3-2.5-5.9-1.3-1.5-3.3-2.5-5.3-1.8-1.9.7-3.6 2.8-2.8 4.9.4 1 1.2 1.6 2.1 2 1.1.4 2.2.3 3.4.5 1.4.2 2.8.7 4.2 1.2.9.3 1.3-1.1.4-1.4l-2.9-.9c-.7-.2-1.4-.3-2.1-.4-.9-.1-1.9-.1-2.7-.5s-1.1-1.1-.9-1.9c.2-.7.7-1.3 1.3-1.6 1.4-.8 2.9-.3 4 .8 1.4 1.4 2.4 3.3 2.5 5.3-.2.7 1.3.7 1.3-.3zm-16.4 56.5c-2.6.4-4.8 2.5-5.4 5s.4 5.4 2.5 6.9 5.1 1.7 7.3.3l-4.4-12.2z"/><path d="M128.4 89c-3.3.6-5.9 3.5-6.1 6.8-.2 3.4 2.1 6.7 5.4 7.6 1.9.5 4 .2 5.7-.8.3-.2.5-.5.3-.8l-3.9-10.7-.6-1.5c-.3-.9-1.8-.5-1.4.4l3.9 10.7.6 1.5.3-.8c-3.2 1.9-7.5.3-8.6-3.3-1.1-3.4 1.2-6.9 4.7-7.6 1-.3.6-1.7-.3-1.5z"/></g><path d="M118.5 52.4c-.1.1.2.2.2.1s-.1-.2-.2-.3c-4-2.2-7.4-2.9-11.5-5.1-.4-.2-.9-.5-1.4-.6-.4-.1-.9-.1-1.4-.1-7 .3-13.7.9-20.5 1.9-3.8.6-7.5 1.7-11.4 3 0 0-1.2.4 10.6 7.4" class="S"/><path d="M117.8 52.4c0 .4.2.7.5.8a.78.78 0 0 0 .8-.1c.3-.2.5-.5.3-.8-.3-1-1.8-1.4-2.7-1.8-1.2-.6-2.5-1.1-3.8-1.6l-4.1-1.7c-1.2-.6-2.4-1.4-3.7-1.5-1.4-.1-2.9.1-4.3.2l-5 .4-9.2 1c-3 .4-6 .9-8.9 1.7l-4.4 1.3c-.4.1-1.2.2-1.5.6-.6.7.1 1.5.7 2 3 2.6 6.7 4.6 10.1 6.6.8.5 1.6-.8.8-1.3-3-1.8-6.1-3.6-8.9-5.7-.5-.3-.9-.7-1.3-1.1-.2-.3-.2-.4-.2-.4s.1.4 0 .6c0 .1-.3.3-.3.3s.8-.3 1.1-.3l3.9-1.2c2.6-.7 5.1-1.2 7.8-1.6 5.5-.8 11.1-1.3 16.7-1.6 1.6-.1 3.1-.3 4.6.5l3.7 1.8 3.8 1.5c.8.3 1.5.6 2.3 1 .3.1.6.3.8.4s.9.7.7.3c.1-.3.2-.6.3-.8h.4c.2.2.4.5.6.7v-.1c-.1-1.1-1.6-1.1-1.6-.1h0z" class="X"/><path d="M82.4 93l-11.1-5.3c-.4-.2-.7-.4-1-.7-.2-.2-.3-.5-.3-.8-.4-1.7-.4-3.5-.5-5.3-.1-10.2.6-18.9 2.1-29.1 1 0 1.8.6 2.6 1.2 2.7 1.8 5.6 1.8 8.6 3.1" class="V"/><path d="M82.8 92.3L77 89.5l-5.5-2.6c-1.5-.9-1.2-3.7-1.3-5.2v-6.1c.2-7.9.9-15.8 2.1-23.6-.2.2-.5.4-.7.6 1.1.1 2 1 3 1.5.8.4 1.6.8 2.5 1 1.9.6 3.8.9 5.6 1.6.9.4 1.3-1.1.4-1.4-2-.8-4-1.1-6-1.8-1.9-.7-3.4-2.2-5.4-2.5-.3 0-.7.3-.7.6-1.2 8.4-2 16.9-2.1 25.4 0 2.2-.1 4.4.1 6.5.1 1.4.1 3.4 1.3 4.4.7.6 1.7.9 2.6 1.3l3.1 1.5 6.2 3c.7.4 1.5-.9.6-1.4h0z" class="R"/><path d="M124.8 129.6c2.5-.3 6.4-.9 8.8-.4.5.1 1 .2 1.3.6.4.3.4.9.7 1.3 4.9 7.9 9.3 19 9.7 28.3 0 .8 0 1.6-.6 2.1-.3.3-2.4 1.9-2.8 2-2.8.7-10 2.6-12.9 2.1" class="V"/><path d="M124.8 130.4l6-.6c.9 0 1.8 0 2.6.2s1 .4 1.3 1.1c.2.4.5.8.7 1.3 2.3 3.8 4.2 7.8 5.8 12 1.5 4.1 2.7 8.4 3.2 12.8.1.9.2 1.9.2 2.8 0 1-.6 1.3-1.3 1.9-.5.3-.9.8-1.5 1-.5.2-1.2.3-1.8.4-1.8.4-3.7.9-5.5 1.2-1.7.3-3.6.7-5.3.4-.9-.1-1.4 1.3-.4 1.4 3.5.5 7.4-.6 10.7-1.4 1.5-.3 2.7-.6 4-1.5s2.5-1.6 2.5-3.4c.1-2.2-.4-4.6-.8-6.8-.5-2.6-1.2-5.1-2-7.6a73.65 73.65 0 0 0-6.2-13.7c-.3-.6-.7-1.1-1-1.7-.2-.4-.3-.8-.6-1.1-.7-.7-1.9-.8-2.8-.9-2.6-.2-5.2.3-7.8.6-1 .2-1 1.7 0 1.6h0z" class="R"/><path d="M118.1 161.8c-2.5-1.2-5-2.6-7.3-4.2-.9-.6-1.8-1.3-2.2-2.4-.3-1-.1-2.1.2-3.1 1.8-6.4 4-10.8 7.1-16.4 1.4-2.5 3-3.9 5.2-5.5.8-.6 2.8-.1 3.7.1 1.1.2 2.7 1.5 3.2 2.6 3.4 8.2 5.6 16.7 7.4 25.5.4 2 .4 5.5-1.2 6.8-1.2.9-2.8.8-4.2.6-3.9-.6-8.5-2.2-11.9-4z" class="V"/><g class="R"><path d="M118.4 161.1c-1.5-.7-3.1-1.5-4.5-2.4-1.3-.8-3-1.6-4-2.8-1.3-1.4-.5-3.3 0-4.9.4-1.5 1-3 1.5-4.4 1.1-2.8 2.5-5.5 3.9-8.2 1.4-2.6 2.7-4.8 5.1-6.7.6-.5 1.1-1 1.9-1a6.28 6.28 0 0 1 1.9.3c1.2.3 2.5 1 3.1 2.1.8 1.3 1.2 3 1.7 4.4l1.6 4.8c1 3.3 1.9 6.6 2.7 9.9.6 2.8 1.6 5.7 1.6 8.6 0 1.2-.1 2.8-1 3.7-1.3 1.2-3.7.6-5.2.3-3.6-.7-7.1-2-10.3-3.7-.9-.5-1.6.8-.8 1.3 3.2 1.7 6.6 3 10.1 3.7 2.7.6 6.4 1.3 7.9-1.8 1.2-2.6.6-5.6 0-8.3-.9-4-1.8-8-3-12-1.1-3.8-2.3-7.8-4-11.4-1.1-2.4-3.9-3.6-6.5-3.5-1.4 0-2.3 1-3.4 1.8-1.2 1-2.3 2.1-3.1 3.5-1.9 3-3.5 6.4-4.9 9.7-.8 1.8-1.4 3.6-2 5.4s-1.5 3.9-.9 5.8c.5 1.7 2.3 2.7 3.7 3.6 2 1.3 4 2.4 6.1 3.4.9.5 1.7-.8.8-1.2z"/><path d="M133.5 146.4c1.2.1 2.5-.5 2.9-1.7.2-.7 0-1.4-.3-2.1s-.6-1.5-.8-2.2c-.2-.6-.5-1.2-.2-1.8.2-.4.6-.8 1-.9.5-.1 1 .2 1.5.4.6.3 1.3.5 2 .2.9-.3.5-1.8-.4-1.4-.5.2-1-.2-1.5-.4-.6-.3-1.2-.4-1.9-.3-1.2.2-2.2 1.4-2.3 2.6-.1.8.1 1.5.4 2.2l.8 2.1c.2.5.5 1 .1 1.4-.3.3-.8.4-1.2.3-.4 0-.8.4-.8.8s.3.7.7.8h0zm1.8 9.2c1 0 2-.4 2.8-1 .8-.5 1.5-1.2 1.9-2 .4-.9.4-1.9.2-2.8-.1-.8-.4-1.7-.2-2.6-.2.2-.5.4-.7.6.4 0 .6.1.9.3s.6.4 1 .5c.7.2 1.5 0 1.9-.7.5-.8-.8-1.6-1.3-.8 0-.1-.1 0 0 0s-.1 0-.2 0c-.2 0-.4-.1-.5-.2-.6-.3-1.1-.7-1.8-.6-.3 0-.6.2-.7.6-.2.8-.1 1.7 0 2.5.1.7.4 1.5.2 2.2s-.7 1.2-1.3 1.7c-.7.5-1.4.9-2.2.9-.9-.1-.9 1.4 0 1.4h0z"/></g><path d="M130.6 152.2c-1.7-1-3.3-2.1-4.8-3.4-.2-.2-.5-.4-.6-.7a1.39 1.39 0 0 1 .2-1.1c.6-1.5 1.4-2.9 2.2-4.3l-2.3-5.6c-.3-.7-1.4-1.6-2.1-1.8-.6-.1-1.3.3-1.8.7-1.5 1.2-2.6 2.1-3.5 3.8-2.1 3.9-3.6 6.9-4.8 11.3-.2.7-.3 1.4-.1 2.1s.9 1.2 1.5 1.6c1.6 1.1 3.2 2 4.9 2.9 2.3 1.3 5.1 1.6 7.7 2 .9.1 3.1 1.2 3.9.6 1.1-.9 0-3.6 0-5-.1-1-.2-2-.4-3.1z" fill="#2f5454"/><path d="M130.9 151.5a27 27 0 0 1-3.9-2.7c-.7-.6-1.3-.9-.8-1.9.3-.7.6-1.3 1-2 .3-.6.9-1.3 1.1-1.9s-.1-.9-.3-1.5l-1.8-4.3c-.8-1.8-2.7-3.5-4.7-2.2-2.1 1.3-3.6 3.2-4.8 5.4l-3.3 7.1c-.8 2.1-2.3 5.1-.6 7.1.8.9 2 1.5 3 2.1 1.3.8 2.6 1.5 4 2.1 2.5 1.1 5.1 1 7.7 1.8 1.6.5 4.1 1.4 4.6-.9.2-1-.1-2.2-.2-3.2-.3-1.5-.3-3.1-.6-4.6-.2-1-1.6-.5-1.4.4.2 1.2.3 2.3.4 3.5l.4 2.5c0 .3.1 1-.1 1.2-.3.3-.8.1-1.2 0-.7-.2-1.4-.5-2.2-.6-2.3-.5-4.6-.6-6.8-1.6-2-.9-4.6-2.1-6.2-3.7-1.1-1-.4-2.5 0-3.7.3-1.1.7-2.2 1.2-3.3.8-2.1 1.9-4 2.9-6 .5-.9 1-1.8 1.7-2.6.7-.7 1.9-2 2.9-2.1 1.3-.1 1.8 1.3 2.2 2.3.5 1.2 1.3 2.5 1.5 3.7.2 1-1 2.4-1.4 3.4-.4.8-1 1.8-.7 2.8.3.9 1.5 1.6 2.2 2.2l3.5 2.3c.8.7 1.6-.6.7-1.1z" class="X"/><path d="M124.5 148.6c.1.3.3.5.6.7 1.5 1.3 3.8 1.8 5.5 2.8-.6-3.1-1.7-6.4-3-9.5-.9 1.4-2.3 3.4-2.9 4.9-.2.4-.3.8-.2 1.1z" fill="#7bc5cc"/><g class="X"><path d="M123.8 148.8c.5 1.2 1.8 1.9 2.9 2.4l3.5 1.6c.6.4 1.2-.2 1.1-.8-.6-3.3-1.7-6.4-3-9.5-.2-.6-1-.8-1.4-.2l-1.9 3c-.6 1-1.5 2.3-1.2 3.5.2.9 1.7.5 1.4-.4-.1-.4.3-1 .5-1.4l.8-1.4 1.7-2.7c-.5-.1-.9-.1-1.4-.2 1.2 3.1 2.3 6.3 3 9.5.4-.3.7-.6 1.1-.8-1-.6-2-1-3.1-1.4-.5-.2-1-.5-1.5-.7-.3-.2-1-.6-1.2-.9-.2-.4-.5-.6-.9-.5-.3.1-.6.5-.4.9z"/><path d="M115.4 152.9c3.1-1.1 6.2-2 9.4-2.6.9-.2.5-1.6-.4-1.4-3.2.6-6.3 1.5-9.4 2.6-.9.3-.5 1.8.4 1.4h0z"/></g><g class="R"><path d="M126.6 142.2c-.7.2-1.5.3-2.3.3-1.5 0-3-.5-3.8-1.6s-.7-2.9.6-3.6c0 0 .6-2.4 2.2-1.2 1.6 1.3 3.3 6.1 3.3 6.1z"/><path d="M126.4 141.5c-1.6.5-3.8.5-5.1-.8-.3-.3-.4-.5-.5-.8-.1-.2-.1-.3-.1-.4v-.3-.1c0 .1 0 0 0 0 0-.1 0-.2.1-.3 0 0 .1-.2.1-.1 0-.1.1-.2.1-.2.1-.1 0-.1.1-.2l.3-.3c.2-.1.3-.3.4-.5 0-.1.1-.2.1-.4 0 0-.1.2 0 0 0 0 0-.1.1-.1l.1-.1s.1-.2.1-.1c-.1.1.1-.1.1-.1l.1-.1c-.1.1 0 0 0 0 .1-.1-.1.1 0 0s-.1 0 0 0-.1 0 0 0c0 0 .2.1.2 0-.1 0 0 0 0 0 .1 0 .1.1.2.1 0 0 .1 0 .1.1-.1-.1-.1-.1 0 0l.1.1.3.3c0 .1.1.1.1.2-.1-.1 0 0 0 .1.1.1.2.3.3.4.4.6.7 1.2 1 1.9.1.2.2.4.2.5s.1.2.1.3l.1.2c0-.1 0 0 0 0v.1c0 .1.1.2.1.2.1.1.1.3.2.4l.3.9c.1.4.5.6.9.5s.7-.5.5-.9l-1.7-3.9c-.7-1.4-2.5-4.2-4.4-2.6-.5.4-.8 1-.9 1.6.1-.1.2-.3.3-.4-1.8 1.1-1.8 3.7-.4 5.1 1.7 1.6 4.4 1.8 6.5 1.1 1.2-.3.8-1.7-.1-1.4z"/></g><path d="M121.4 136.3c-1.2.6-1.9 2.1-1.9 3.5 0 .7.2 1.4.8 1.9.5.5 1.1.7 1.8.8s1.4.2 2 0c.8-.2 1.3-.7 1.6-1.4.5-1.3.1-2.9-.7-4-.4-.5-.9-.7-1.5-.8-.5-.1-1.1-.2-1.7-.1-.4.1-.8.3-.8.8 0 .4.3.8.8.8h1 .2c.1 0-.2 0 0 0 .1 0 .2 0 .3.1.1 0 .2 0 .2.1h.1c.1 0-.1-.1 0 0 .1 0 .3.2.1 0l.1.1v-.1s0 .1.1.1c.1.2.3.5.4.7.2.6.3.9.2 1.5v.1c0-.1 0 0 0 .1s0 .2-.1.3c.1-.1-.2.2-.1.1l-.1.1c.1-.1-.1 0-.1.1 0 0-.2.1 0 0h-.1c-.1 0-.1 0-.2.1 0 0-.1 0 0 0h-.8-.2 0c-.1 0-.2 0-.4-.1-.1 0-.2-.1-.4-.1 0 0-.1-.1 0 0-.1 0-.1-.1-.2-.1s-.1-.1-.1-.1c-.1-.1.1.1 0 0l-.1-.1s-.1-.2-.1-.1l-.1-.1s-.1-.2-.1-.1 0-.1 0-.1v-.1-.5-.2c0 .1 0-.1 0-.1.1-.3.1-.5.2-.8-.1.1 0-.1 0-.1 0-.1.1-.1.1-.2.1-.1.1-.2.2-.3-.1.1.1-.1.1-.1 0-.1.1-.1.2-.2s0 0 0 0c.1-.1.2-.1.3-.2.4-.2.5-.7.3-1-.5-.3-.9-.4-1.3-.2h0z" class="S"/><path d="M124.7 99.5l-10.4-5.6c-1.1-.6-2.2-1.2-3.4-1.5s-2.5-.3-3.7-.3c-13.6.1-27 2.9-40 6.7 0 0 9 9.4 15.3 12.3" class="V"/><path d="M125 98.9l-10.7-5.8c-1.4-.8-2.9-1.4-4.5-1.6-1.9-.2-4-.1-5.9 0-8 .3-15.9 1.5-23.7 3.2-4.4 1-8.8 2.1-13.2 3.4-.6.2-.7.8-.3 1.3 1.7 1.8 3.5 3.5 5.4 5.2 3.1 2.7 6.3 5.5 10.1 7.2.9.4 1.6-.9.8-1.3-3.7-1.7-7-4.5-10-7.2-1.8-1.6-3.5-3.2-5.2-5-.1.4-.2.8-.3 1.3 9.5-2.7 19.2-5 29.1-6 2.5-.3 4.9-.4 7.4-.5 2.4-.1 5-.4 7.2.3s4.2 2.1 6.3 3.1l6.9 3.7c.7.4 1.5-.9.6-1.3h0z" class="R"/><path d="M77.7 157.8c-4.4-1.1-8.1-4.5-11.1-6.7-4.9-3.6-5.2-5.7-7.3-6.9-.4-.3-.9-.5-1.2-.9-.2-.3-.3-.7-.2-1.1 4-12.8 4.8-26.8 8.3-42.4.1-.5.4-.9.8-1.1.3-.1.7-.1 1.1 0 4.1.8 7.6 3.6 12.3 4.7" class="V"/><path d="M77.9 157c-2.7-.7-5-2.2-7.2-3.8l-6.1-4.8c-1.2-1.1-2.2-2.5-3.4-3.7a6.42 6.42 0 0 0-1.3-1c-.3-.2-.8-.4-1-.6-.2-.4-.1-1 0-1.4.1-.8.5-1.6.7-2.4 3-11.3 4.1-23 6.4-34.4l.6-2.9c.2-.9.2-2.4 1.4-2.5.6-.1 1.6.4 2.1.6.6.2 1.3.5 1.9.8 2.7 1.2 5.4 2.7 8.3 3.4.9.2 1.3-1.2.4-1.4-3.1-.7-5.8-2.3-8.7-3.5-1.7-.7-5.2-2.5-6.3-.1-.6 1.3-.7 3-1 4.3l-1.1 5.6c-.6 3.3-1.1 6.6-1.6 9.9-1 6.3-2 12.6-3.6 18.8-.4 1.4-.9 2.8-1.2 4.2s.7 2.2 1.8 2.8c1.3.8 2.1 2.1 3.2 3.2 2 2.2 4.5 3.9 6.9 5.7 2.6 2 5.3 3.7 8.4 4.6.9.3 1.3-1.1.4-1.4h0z" class="R"/><path d="M113.4 90.6c-.1 1.1-.3 2.3-.8 3.2s-1.4 1.5-2.2 1c-.8-.6-1-2.1-1.1-3.4" class="S"/><path d="M112.7 90.6v.3.1c0 .2 0 .3-.1.5-.1.3-.1.7-.2 1 0 .2-.1.3-.1.5v.1s0 .1 0 0 0 0 0 0c0 .1 0 .1-.1.2s-.1.2-.2.4c0 0-.1.1 0 0l-.1.1-.2.2s-.2.1-.1.1l-.1.1s-.2.1-.1.1h0-.1c-.1 0-.1 0 0 0h0-.1c-.1 0 .1 0 0 0h-.2s.1.1.1 0c0 0-.1 0-.1-.1-.1 0 .1.1 0 0h-.1l-.1-.1V94s.1.1 0 0c0-.1-.1-.1-.1-.2 0 0 0-.1-.1-.1-.1-.1 0 0 0 0v-.1c-.1-.1-.1-.3-.1-.4 0-.2-.1-.3-.1-.5v-.2s0-.1 0 0 0 0 0-.1c0-.3-.1-.7-.1-1 0-.4-.3-.8-.8-.8-.4 0-.8.3-.8.8a8.33 8.33 0 0 0 .3 2.2c.2.6.5 1.3 1 1.8.7.5 1.6.6 2.3.1s1.2-1.2 1.4-2c.3-.9.4-1.9.5-2.8 0-.4-.4-.8-.8-.8a.68.68 0 0 0-.7.7h0z" class="X"/><path d="M92.3 93.1c-.1 1.1-.3 2.3-.8 3.2s-1.4 1.5-2.2 1c-.8-.6-1-2.1-1.1-3.4" class="S"/><path d="M91.5 93.1v.3.1c0 .2 0 .3-.1.5-.1.3-.1.7-.2 1 0 .2-.1.3-.1.5v.1s0 .1 0 0 0 0 0 0c0 .1 0 .1-.1.2s-.1.2-.2.4c0 0-.1.1 0 0l-.1.1-.2.2s-.2.1-.1.1l-.1.1s-.2.1-.1.1h0-.1c-.1 0-.1 0 0 0h0-.1c-.1 0 .1 0 0 0h-.2s.1.1.1 0c0 0-.1 0-.1-.1-.1 0 .1.1 0 0h-.1l-.1-.1v-.1s.1.1 0 0c0-.1-.1-.1-.1-.2 0 0 0-.1-.1-.1-.1-.1 0 0 0 0v-.1c-.1-.1-.1-.3-.1-.4 0-.2-.1-.3-.1-.5V95s0-.1 0 0 0 0 0-.1c0-.3-.1-.7-.1-1 0-.4-.3-.8-.8-.8-.4 0-.8.3-.8.8a8.33 8.33 0 0 0 .3 2.2c.2.6.5 1.3 1 1.8.7.5 1.6.6 2.3.1s1.2-1.2 1.4-2c.3-.9.4-1.9.5-2.8 0-.4-.4-.8-.8-.8-.4-.1-.6.2-.7.7h0z" class="X"/><path d="M109.8 53.7c.1-1.5.3-3.1-.1-4.6-.4-1.4-1.4-2.3-2.1-1.3-.7 1.1-.3 3.3-.6 4.8" class="T"/><path d="M110.3 53.7c.1-1.1.2-2.2.1-3.3-.1-1-.3-2-.9-2.8-.5-.6-1.3-1-2-.4-.6.5-.7 1.5-.8 2.2-.1 1 0 2-.2 3-.1.6.8.9 1 .3.2-.8.2-1.6.2-2.4 0-.7 0-1.5.3-2.1 0-.1.1-.2.2-.3l.1-.1h0c.1 0 .1 0 .2.1l.3.3c.5.6.6 1.5.7 2.3.1 1.1 0 2.2-.1 3.2a.47.47 0 0 0 .5.5c.2 0 .4-.2.4-.5h0z" class="R"/><path d="M105.8 52.7c.2-2.9 0-5.8-.4-8.6-.1-.6-.2-1.3-.4-1.8s-.6-.7-.8-.4-.3.7-.3 1.2c-.4 3-.6 6.3-.3 9.5" class="T"/><path d="M106.3 52.7c.1-2.2.1-4.4-.2-6.6l-.4-3.1c-.1-.6-.5-1.7-1.3-1.7s-1 1.1-1.1 1.7a16.28 16.28 0 0 0-.3 3.1c-.2 2.2-.1 4.4 0 6.5 0 .6 1 .6 1 0l-.1-5.3c0-.9.1-1.7.2-2.6.1-.5.1-1 .2-1.4 0-.2.1-.4.1-.5s0-.2.1-.3.1-.2 0-.2-.1 0 0 .1.1.2.1.3c.1.2.1.3.1.5.1.4.2.8.2 1.2l.3 2.7.1 5.5c0 .7 1 .7 1 .1h0z" class="R"/><path d="M98.8 53.1c.4-2.3 0-5-.9-6.8-.1-.2-.2-.4-.4-.4s-.4.4-.5.8c-.5 2-.8 4.2-.7 6.4" class="T"/><path d="M99.3 53.2c.3-2.1.2-4.3-.5-6.3-.2-.4-.3-.9-.6-1.3a.75.75 0 0 0-1.2 0c-.3.4-.4 1-.5 1.5l-.3 1.7c-.2 1.4-.3 2.8-.3 4.2 0 .6 1 .6 1 0 0-1.3 0-2.6.2-3.9l.3-1.8c.1-.3.1-.6.2-.8 0-.1 0-.1.1-.2s.1-.1-.1-.1-.2 0-.1.1c0 .1.1.1.1.2.9 1.9 1.1 4.3.8 6.3-.2.8.8 1.1.9.4h0z" class="R"/><path d="M91.9 54.3c0-1.3.1-2.6-.3-3.7s-1.3-1.5-1.6-.5c-.4 1.1.2 2.8-.3 3.8" class="T"/><path d="M92.4 54.3c0-.9.1-1.7 0-2.6-.1-.8-.3-1.6-.8-2.2-.5-.5-1.3-.6-1.7 0-.5.6-.5 1.4-.5 2.1v1.3c0 .4 0 .6-.2 1-.1.2.1.6.3.6.3.1.5-.1.6-.3.2-.6.2-1.2.2-1.8s-.1-1.3 0-1.8c0-.1.1-.3.1-.3s0-.1.1-.1c0 0 0 .1 0 0l.1-.1s-.1.1 0 0c0 0-.1 0 0 0h0c-.1 0 0 0 0 0s-.1 0 0 0h0 .1 0c.2.2.3.4.4.6.1.3.2.6.2.9.1.9.1 1.7 0 2.6a.47.47 0 0 0 .5.5c.4.1.6-.2.6-.4h0z" class="R"/><path d="M102.2 53.8c.2-2.9 0-5.8-.4-8.6-.1-.6-.2-1.3-.4-1.8s-.6-.7-.8-.4-.3.7-.3 1.2c-.4 3-.6 6.3-.3 9.5" class="T"/><path d="M102.7 53.8c.1-2.2.1-4.4-.2-6.6l-.4-3.1c-.1-.6-.5-1.7-1.3-1.7s-1 1.1-1.1 1.7a16.28 16.28 0 0 0-.3 3.1c-.2 2.2-.1 4.4 0 6.5 0 .6 1 .6 1 0l-.1-5.3c0-.9.1-1.7.2-2.6.1-.5.1-1 .2-1.4 0-.2.1-.4.1-.5s0-.2.1-.3.1-.2 0-.2-.1 0 0 .1.1.2.1.3a.9.9 0 0 1 .1.5c.1.4.2.8.2 1.2l.3 2.7.1 5.5c0 .7 1 .7 1 .1h0z" class="R"/><path d="M95.3 53.6c.4-2.3 0-5-.9-6.8-.1-.2-.2-.4-.4-.4s-.4.4-.5.8c-.5 2-.8 4.2-.7 6.4" class="T"/><path d="M95.7 53.7c.3-2.1.2-4.3-.5-6.3-.2-.4-.3-.9-.6-1.3a.75.75 0 0 0-1.2 0c-.3.4-.4 1-.5 1.5l-.3 1.7c-.2 1.4-.3 2.8-.3 4.2 0 .6 1 .6 1 0 0-1.3 0-2.6.2-3.9l.3-1.8c.1-.3.1-.6.2-.8 0-.1 0-.1.1-.2s.1-.1-.1-.1-.2 0-.1.1c0 .1.1.1.1.2.9 1.9 1.1 4.3.8 6.3-.1.8.8 1.1.9.4h0z" class="R"/><path d="M121.6 88.3c-.1-11.1-1.3-25.1-3-36-11.6 0-24 2-35.7 3.7-.7 11.7-.7 26-.4 37.8l38.4-4.4c.6-.1 1.4-.9.7-1.1" class="S"/><path d="M122.4 88.3c-.1-12.1-1.2-24.2-3.1-36.2 0-.3-.4-.6-.7-.6-12 0-24 2-35.9 3.7-.3 0-.5.4-.6.7-.8 12.6-.7 25.2-.4 37.8 0 .4.3.8.8.8l23.4-2.7 11.3-1.3 2.8-.3c.6-.1 1.3-.1 1.9-.4.8-.5 1.2-1.6.3-2.2-.8-.5-1.6.8-.8 1.3 0-.5-.2-.6-.5-.4-.3.1-.5.2-.8.2s-.6.1-.9.1l-2.5.3c-1.6.2-3.2.4-4.8.5-3.1.3-6.3.7-9.4 1.1L82.8 93l.8.8c-.6-12.6-.7-25.2.1-37.8-.2.2-.4.5-.6.7C94.9 55 106.7 53 118.6 53c-.2-.2-.5-.4-.7-.6 1.8 11.8 2.9 23.8 3 35.8 0 1 1.5 1 1.5.1h0z" class="X"/><path d="M113.3 69.9c.3-2.8-.1-7.8-.4-10.6-7.5.3-14.9 2.2-22.4 2.5.1 3.4.1 6.7-.2 10.2 0 .2.1.4.2.5.2.1.4.1.6.1 7 0 15.3-2.6 22.2-2.7" class="V"/><path d="M114.1 69.9c.4-3.5-.1-7.1-.4-10.6 0-.4-.3-.8-.8-.8-7.5.4-14.9 2.2-22.4 2.5-.4 0-.8.3-.8.8.1 1.7.1 3.3.1 5 0 1.6-.2 3.3-.2 4.9 0 1.3.8 1.6 1.9 1.6 1.4 0 2.8-.2 4.2-.3 5.9-.7 11.7-2.3 17.6-2.4 1 0 1-1.5 0-1.5-5.2.1-10.3 1.3-15.5 2.1-1.4.2-2.7.4-4.1.5-.6.1-1.2.1-1.9.1-.1 0-.6.1-.7 0-.2-.1 0-.8 0-1 .2-3 .2-6 .1-9l-.8.8c7.5-.4 14.9-2.2 22.4-2.5l-.8-.8c.3 3.5.8 7.1.4 10.6.1 1 1.6 1 1.7 0h0z" class="R"/><path d="M124.8 149.9c1.8-.3 3.3-1.6 3.3-3.4-.1-11.3 0-30.8-.9-41.7-.2-1.8-.4-3.9-1.8-5.1-1.2-1-2.8-1.2-4.3-1.4-12.4-1.1-24.8 1.9-37.2 3.7-.8.1-1.7.1-2.4.6-1 .7-1.2 2.1-1.4 3.3-1.5 13.3-2.9 36-3.9 49.4-.1 1-.1 2.1 1.6 2.6.4.1.8.1 1.2.1 15.1-.2 30.5-5.3 45.8-8.1z" class="S"/><path d="M125 150.6c1.2-.3 2.4-.9 3.2-2 .7-1.1.6-2.4.6-3.7l-.1-8.8a660.28 660.28 0 0 0-.3-19.9l-.4-8.9c-.2-2.6 0-5.8-1.8-7.9-1-1.2-2.5-1.6-4-1.8-1.9-.3-3.9-.3-5.8-.4-4.1-.1-8.3.3-12.4.8s-8.1 1.2-12.1 1.9c-2.1.3-4.1.7-6.2 1-1.5.2-3.6.1-4.8 1-2.1 1.5-1.8 5.2-2 7.4l-.8 9.1-1.5 20.2-.7 9.6-.3 4.3c-.1 1.1-.3 2.4-.2 3.5.3 3.3 5.1 2.5 7.3 2.4 4-.2 7.9-.7 11.9-1.4 8.2-1.4 16.2-3.5 24.4-5.3 1.9-.3 4-.7 6-1.1.9-.2.5-1.6-.4-1.4-14.8 2.8-29.5 7.8-44.7 8-1.5 0-3.1.1-3-1.7 0-1.2.2-2.4.3-3.6l.6-8.4 1.3-18.3a461.22 461.22 0 0 1 1.5-16.9c.1-1.3.1-2.7.5-3.9.6-1.9 2.8-1.6 4.4-1.9l11.2-1.8c7.6-1.2 15.2-2.2 22.9-1.8 1.6.1 3.4.1 4.8.9 1.6.9 1.8 2.9 2 4.5l.5 7.6c.3 6.7.3 13.4.4 20.1l.1 9.4v4.1c0 2-.7 3.1-2.7 3.6-1 .2-.6 1.7.3 1.5z" class="X"/><path d="M120.4 131.1c1.3-.1 2.3-1 2.2-1.9-.5-5.7-.7-14.2-1.2-19.9-.1-.9-.4-2-1.5-2.5-.9-.5-2.1-.5-3.2-.5-9 .1-18.8 2.8-27.7 3.7-.6.1-1.2.1-1.7.4-.7.4-.8 1.1-.9 1.8-.6 6.9-.8 15.3-1 22.2 0 .5 0 1.1 1.2 1.2h.9c11.1-.8 21.9-3.3 32.9-4.5z" class="U"/><g class="R"><path d="M120.6 131.9c1.4-.2 2.8-1.1 2.8-2.6 0-1.8-.3-3.6-.4-5.4l-.6-12c-.1-1.5 0-3.4-.9-4.7-1-1.4-2.8-1.5-4.5-1.5-4.4 0-8.8.7-13.1 1.4-4.6.8-9.2 1.7-13.9 2.2-1.5.2-3.3.2-4 1.8-.3.7-.3 1.5-.3 2.3-.1 1.1-.1 2.1-.2 3.2-.3 4.4-.4 8.9-.6 13.3 0 1-.1 2-.1 3 0 .7-.2 1.6 0 2.3.4 1.6 2.4 1.4 3.6 1.3 10.8-.9 21.3-3.3 32-4.4 1-.1 1-1.6 0-1.5-8 .8-15.9 2.4-23.8 3.5-2.1.3-4.2.6-6.3.8-1 .1-1.9.2-2.9.2-.3 0-1 .1-1.2-.2-.1-.2 0-.8 0-1.1l.4-10.9.3-5.6c.1-.9.1-1.7.2-2.6.1-.8 0-1.9.2-2.7.4-1.1 1.9-1 2.9-1.1l2.7-.3 5.7-.9c3.9-.7 7.8-1.4 11.8-1.9 1.9-.2 3.8-.4 5.6-.4s4.4-.3 4.8 2c.3 1.7.3 3.5.3 5.2l.3 5.8.3 5.7c.1.9.1 1.7.2 2.6 0 .4.2.9 0 1.3-.3.5-1.1.7-1.6.8-1.1-.2-.7 1.2.3 1.1zm-4.6-20c.6.2.8 1 .5 1.5s-1 .7-1.6.6c-.8-.1-1.4-.8-1.5-1.6s.5-1.6 1.3-1.6c.8-.1 1.5.7 1.4 1.5"/><path d="M115.8 112.6c-.3-.1-.1 0 0 0-.2 0-.1-.1 0 0-.1 0-.1-.1 0 0 0 0 0 .1 0 0 .1.2-.1-.1 0 0 0 .1 0 .1.1.2 0 .1 0 .1 0 0v.1.1c0 .1 0-.1 0-.1v.2c0 .1.1-.2 0 0l-.1.1s0-.1.1-.1l-.1.1-.1.1c-.1.1 0 0 0 0h-.1s-.1 0-.1.1c-.1 0-.1 0 .1 0-.1 0-.2.1-.3.1s-.2 0 0 0h-.1-.2c-.1 0-.1 0 .1 0h-.1c-.1 0-.2-.1-.3-.1.1 0 .1.1 0 0 0 0-.1 0-.1-.1 0 0-.1-.1-.2-.1.1 0 .1.1 0 0 0 0-.1 0-.1-.1l-.1-.1c-.1-.1 0 0 0 0 0-.1-.1-.1-.1-.2 0 0 0-.1-.1-.1 0-.1.1.2 0 0 0-.1 0-.1-.1-.2 0 0 0-.2 0 0 0 .1 0 0 0-.1v-.1c0-.2 0 .2 0 0 0-.1 0-.1.1-.2v-.1c0 .2 0 .1 0 0v-.1-.1c0-.1 0 0 0 0 .1 0 .1-.1.1-.2 0 0 .1 0 .1-.1 0 0-.1 0-.1.1h.1c.1 0 .1-.1.2-.1-.1.1-.1 0-.1 0h.2c.1 0 0 0-.1 0h.2 0 .1c.1 0 .1.1 0 0 0 0 .1 0 .1.1l.1.1s-.1 0-.1-.1l.1.1.1.1c.1.1-.1-.1 0 0 0 0 0 .1.1.1 0 .1.1.2 0 0v.1.1c0 .1 0 .1 0-.1v.1c0 .1 0 .3 0 0 0 .2 0 .4.1.6s.3.3.4.3c.4.1.9-.1.9-.5.1-.6-.1-1.2-.4-1.7-.3-.4-.9-.7-1.4-.7-1-.1-2 .8-2.2 1.7-.2 1.1.3 2.1 1.3 2.6.9.5 2.2.4 2.9-.4.4-.5.6-1.1.5-1.7s-.6-1.1-1.1-1.3c-.4-.1-.8.2-.9.5-.1.6.2.9.6 1.1h0zm-22.2 1.3c.9.4 1.3 1.7.7 2.5s-2 .8-2.6 0c-.7-.7-.5-2 .3-2.6.4-.4 1.3-.4 1.6.1"/><path d="M93.4 114.7c-.3-.1 0-.1 0 0h0c.2.1 0-.1 0 0l.2.2.1.1c-.2-.2-.1-.1 0 0 0 .1.1.1.1.2v.1c0 .1-.1-.2 0-.1 0 .1.1.3.1.4v-.2.5-.2c0 .1 0 .2-.1.2v.1c0 .1.1-.2 0 0 0 .1-.1.1-.1.2-.1.1.1-.2 0 0l-.1.1s-.1 0-.1.1c.2-.2.1-.1 0 0-.1 0-.1.1-.2.1.2-.1.1 0 0 0h-.1c-.1 0-.2 0-.3.1h.2-.5.2c-.1 0-.2 0-.3-.1h-.1c-.1 0 .2.1.1 0-.1 0-.2-.1-.2-.1-.2-.1.1.1 0 0l-.1-.1-.1-.1c-.1-.1.1.1 0 0 0-.1-.1-.1-.1-.2-.1-.1.1.2 0 0v-.1c0-.1 0-.2-.1-.3v.2-.5.2c0-.1 0-.2.1-.3v-.1c0-.1.1-.2 0 0 0-.1.1-.2.1-.2s0-.1.1-.1c.1-.1-.1.2 0 0l.2-.2c.1-.1-.1.1 0 0 0 0 .1 0 .1-.1h.1c-.2.1-.1 0 0 0s.2 0 .3-.1h-.2.3-.2.2c.1 0-.2-.1-.1 0h.1c.1.1-.1-.1-.1 0l.1.1s-.1-.2-.1-.1c0 0 0 .1.1.1.2.4.7.5 1 .3.4-.2.5-.6.3-1-.3-.5-.8-.8-1.4-.8-.5 0-1.1.2-1.5.5-.8.6-1 1.8-.7 2.8.2.5.5 1 1 1.3.4.3.9.4 1.4.4 1 0 2-.7 2.3-1.7.1-.6 0-1.1-.2-1.7-.1-.2-.3-.4-.4-.6-.2-.2-.5-.4-.8-.5-.2-.1-.4 0-.6.1s-.3.3-.3.4c0 .2 0 .4.1.6-.1-.1 0 0 .2.1h0zm31.2-9.1a3.74 3.74 0 0 0-.5-3.1c-.7-1-1.7-1.6-2.8-1.7-.4 0-.8.4-.8.8s.3.7.8.8h0 .1c.1 0 .2.1.3.1 0 0 .2.1.1 0s0 0 .1 0 .2.1.3.1l.1.1c.2.1-.1-.1 0 0s.2.1.2.2l.2.2c.1.1 0 .1 0 0l.1.1c.1.1.1.2.2.3 0 .1.1.2.1.3v-.1.1.1c0 .1.1.2.1.3v.1c0-.1 0-.1 0 0v.1.3.2c0 .2 0-.1 0 0s0 .2-.1.3c-.1.4.1.8.5.9.5.1.9-.1 1-.5h0zm-36.8-.8c-1.3-.3-2.7.3-3.5 1.4-.9 1.1-1.1 2.5-1.3 3.9-.1.4.1.8.5.9s.9-.1.9-.5c.2-1.1.3-2.3.9-3.2l.1-.1c-.1.1.1-.1.1-.1.1-.1.2-.2.2-.3.1 0 .1-.1.2-.1-.1.1 0 0 0 0 .1-.1.2-.1.3-.2 0 0 .2-.1.1 0-.1 0 .1 0 .1 0 .1 0 .3-.1.4-.1-.1 0 0 0 0 0h.2.1.2c.4.1.8-.1.9-.5.2-.6 0-1-.4-1.1h0z"/></g><path d="M116 123.2c.2-1.5-.3-3.9-.7-5.4-6.1 3.4-13.9 3.8-21.2 2.1 0 2 .3 4.6.4 6.5 0 .1.1.2.2.2.2.1.4-.1.6 0 8.2 2.4 16.1.7 20.7-3.4" class="V"/><g class="R"><path d="M116.7 123.2c.2-1.9-.2-3.8-.7-5.6-.1-.5-.7-.7-1.1-.4-6.3 3.4-13.8 3.6-20.6 2-.5-.1-1 .2-1 .7 0 1.4.2 2.8.3 4.1.1.9-.2 2.5.6 3.1.4.3 1.2.3 1.7.4.7.2 1.4.3 2.1.5 1.4.3 2.9.4 4.4.4 5.1.1 10.2-1.3 14.1-4.7.7-.6-.3-1.7-1.1-1.1-3.4 3-8 4.2-12.5 4.3-1.3 0-2.6-.1-3.9-.3-1.2-.2-2.4-.7-3.6-.8-.6-.1-.2-.1-.2.2 0-.3 0-.5-.1-.8 0-.6-.1-1.2-.1-1.7-.1-1.2-.2-2.4-.2-3.6-.3.2-.6.5-1 .7 7.2 1.7 15.2 1.5 21.8-2.1-.4-.1-.7-.3-1.1-.4.4 1.7.8 3.4.7 5.2-.1.9 1.4.9 1.5-.1h0z"/><path d="M112.9 125.2l-.5-3.8c-.1-.6 0-1.5-.7-1.8-.5-.2-.9.1-1.1.6-.1.5.3 1 .8 1 .4 0 .8-.3.8-.8 0-.4-.3-.8-.8-.8.2.1.4.2.6.4 0 .1.1.3.1.4v.1c-.1.1-.1.2-.2.3s-.2.1-.3.2c-.2 0-.4-.1-.6-.1l-.3-.3c0-.1 0-.1 0 0v.2.3c0 .2.1.4.1.7.1.4.1.8.2 1.3l.4 2.6c.1.4.6.6.9.5.6-.2.7-.6.6-1h0zm-4.7 1l-.4-4.5c0-.4-.3-.8-.8-.8-.4 0-.8.3-.8.8l.4 4.5c0 .4.3.8.8.8.4-.1.8-.4.8-.8h0zm-4.6 1.1a50.5 50.5 0 0 1-.6-5.6c0-.4-.3-.8-.8-.8-.4 0-.8.3-.8.8.1 2 .3 4 .7 6 .1.4.6.6.9.5.5-.1.7-.5.6-.9h0zm-4.5-.3l-.5-6.1c0-.4-.3-.8-.8-.8-.4 0-.8.3-.8.8v.4c0 .4.3.8.8.8.4 0 .8-.3.8-.8v-.4h-1.5l.5 6.1c0 .4.3.8.8.8.4-.1.8-.4.7-.8h0zm14.3-44.4l-.5-7.6c-5.9 4.2-14 3-21.3 2 .1 2.2.1 5.4.1 7.6 8.4 2.3 16.3 2.3 21.7-2"/><path d="M114.2 82.6l-.5-7.6c0-.5-.6-1-1.1-.6-6 4.2-13.9 2.9-20.7 1.9-.5-.1-1 .2-1 .7.1 2.5.1 5.1.1 7.6 0 .3.2.6.6.7 7.2 2 15.9 2.8 22.2-2 .8-.6 0-1.9-.8-1.3-6 4.6-14.2 3.7-21.1 1.9.2.2.4.5.6.7-.1-2.5-.1-5.1-.1-7.6-.3.2-.6.5-1 .7 7.2 1 15.5 2.4 21.9-2-.4-.2-.8-.4-1.1-.6.1 2.6.4 5.1.5 7.6 0 .9 1.5.9 1.5-.1h0z"/></g><path d="M114.2 77.8c-1.4.9-2.5 2.6-4.2 2.9.2 0 .3.1.5.1-.5-.6-.9-1.4-1.3-2.1-.1-.1-.3-.3-.4-.2-.9.1-1.1.9-1.4 1.6-.5 1.2-.4 2.5-.9 3.7h1c-.4-1.7-1.2-3.2-2.1-4.7-.3-.5-.9-.2-.9.3-.1.6-.2 1.3-.4 1.9-.2.5-.2.7-.8.8-.3.1-.6 0-.9 0-1.4 0-2.7-.4-4.1-.5.2.1.3.2.5.4-.2-1-.6-1.8-1.3-2.5-.3-.3-.7-.1-.8.2l-1.4 3.7h1c-.3-.8-.6-1.4-.7-2.2 0-.4 0-1-.4-1.2-.5-.3-1.4.1-1.9.1-1 .1-2.1 0-3.1-.1-.6 0-.6 1 0 1l2.4.1h1.1c.2 0 .7-.2.9-.1s.1.5.2.9c.1.6.4 1.2.6 1.8.2.5.8.5 1 0l1.4-3.7c-.3.1-.6.1-.8.2.6.6.9 1.2 1 2 0 .2.3.3.5.4 1.7.2 4 1 5.7.4 1.2-.4 1.3-2.6 1.4-3.6l-.9.3c.8 1.4 1.5 2.9 2 4.4.1.5.8.4 1 0 .4-.9.3-1.8.5-2.7 0-.2.5-1.9.8-2a.76.76 0 0 0-.4-.2c.4.8.8 1.6 1.4 2.3.1.1.3.2.5.1 1.9-.4 2.9-2.1 4.4-3 .3-.3-.2-1.2-.7-.8h0z" class="S"/><path d="M107.3 65.8s0 .1 0 0c0 0 0-.1-.1-.1l.1.1v-.1.2-.1s0 .1-.1.1c.1 0 .1-.1.1-.1s-.1.1-.1.2c0 0 .1-.1.1-.2 0 .1-.1.1-.2.2.1 0 .2-.1.2-.2l-.2.2c.1 0 .1 0 .2-.2-.1.1-.1.1-.2.1h.2-.2.2c-.1 0-.1 0-.2-.1.1 0 .1.1.2.1-.1 0-.1-.1-.2-.1.1 0 .1.1.2.1-.1 0-.1-.1-.2-.2 0 .1.1.1.1.2 0-.1-.1-.1-.1-.2 0 .1.1.1.1.2 0-.1 0-.1-.1-.2v.2-.2.2c.1 0 .1 0 .2-.1l-.2.2c.1 0 .1-.1.2-.2l-.2.2.1-.1c-.1 0-.1.1-.2.1 0 0 .1-.1.2-.1-.1 0-.1.1-.2.1.1 0 .1 0 .2-.1h-.2.2-.2c.1 0 .1 0 .2.1-.1 0-.1-.1-.2-.1.1 0 .1.1.2.1-.1 0-.1-.1-.2-.1l.1.1c0-.1-.1-.1-.1-.2l.1.1c0-.1-.1-.1-.1-.2.1.2.2.3.3.4.2.1.4.1.6.1.2-.1.4-.2.4-.3.1-.2.1-.4.1-.6-.1-.2-.2-.3-.3-.5l-.1-.1c-.1-.1-.2-.1-.2-.2-.2-.1-.5-.2-.8-.2-.6 0-1.2.4-1.4 1v.3.1.3c0 .1.1.2.1.3.1.1.2.3.3.4l.3.3s.1 0 .1.1c.1 0 .2.1.3.1.2 0 .4.1.6 0 .2 0 .3-.1.5-.2.1-.1.3-.2.4-.3.2-.2.4-.5.5-.8 0-.2.1-.3 0-.5 0-.2-.1-.4-.2-.6s-.3-.3-.4-.3c-.2 0-.4 0-.6.1s-.3.3-.3.4c0 .5 0 .6.1.8h0z" class="R"/><path d="M109.8 63.7c.6 1.1.1 2.2-1.2 2.4-1.2.1-2.3-1.4-1.8-2.5.6-1.1 2.6-1.1 3 .1" class="S"/><path d="M109.2 64.1s.1.2 0 0c0-.1 0 .1 0 .1 0 .1.1.2.1.3v.1c0 .1 0-.1 0-.1v.1.3-.1.1.1.1s.1-.2 0-.1v.1c0 .1-.1.1-.1.2.1-.2.1-.1 0 0l-.1.1h-.1s.2-.1.1-.1c0 0-.1 0-.1.1 0 0-.1 0-.1.1 0 0-.1 0 0 0 .1-.1 0 0 0 0-.1 0-.2.1-.2.1h-.1.1-.2-.1c-.2 0 .2 0 0 0-.1 0-.2 0-.2-.1h-.1c-.1 0 .1 0 .1 0s-.1 0-.1-.1c-.1 0-.1-.1-.2-.1s.1.1.1.1l-.1-.1-.2-.2.1.1s0-.1-.1-.1c0 0 0-.1-.1-.1 0 0-.1-.2 0-.1s0 0 0 0v-.1-.1-.1c0-.1 0 .1 0 .1v-.2-.1c0-.1 0 .1 0 .1v-.1-.1-.1c0-.1 0 .1 0 .1l.1-.2c.1-.1-.1.1 0 0l.1-.1s.1 0 .1-.1c.1-.1-.2.1 0 0 .1 0 .1-.1.2-.1 0 0 .2-.1 0 0-.1.1 0 0 0 0 .1 0 .1 0 .2-.1h.1c.1 0-.2 0 0 0h.2.1c.1 0-.2 0 0 0 .1 0 .2 0 .2.1h.1c.1 0-.1 0-.1 0h.1c.1 0 .1.1.2.1.1.1-.1-.1 0 0l.1.1.1.1s-.1-.2-.1-.1v.1s0 .1.1.1v.1c0 .1-.1-.2 0-.1.1.2.2.3.3.4.2.1.4.1.6.1.4-.1.7-.5.5-.9-.2-.5-.5-.8-.9-1.1-.4-.2-.8-.3-1.3-.4-.9 0-1.8.4-2.2 1.2-.2.5-.3 1.1-.1 1.6.1.5.4.9.8 1.3.4.3.8.6 1.3.7.6.1 1.2 0 1.6-.3.5-.3.9-.8 1-1.3.1-.6 0-1.2-.3-1.8-.2-.4-.7-.5-1-.3-.6-.1-.7.3-.5.7h0zM96 67.3s0 .1 0 0c0 0 0-.1-.1-.1l.1.1v-.1.2-.1s0 .1-.1.1c.1 0 .1-.1.1-.1s-.1.1-.1.2c0-.1.1-.1.1-.2 0 .1-.1.1-.2.2.1 0 .2-.1.2-.2l-.2.2c.1 0 .1-.1.2-.2-.1.1-.1.1-.2.1h.2-.2.2c-.1 0-.1 0-.2-.1.1 0 .1.1.2.1-.1 0-.1-.1-.2-.1.1 0 .1.1.2.1-.1 0-.1-.1-.2-.2 0 .1.1.1.1.2 0-.1-.1-.1-.1-.2 0 .1.1.1.1.2 0-.1 0-.1-.1-.2v.2-.2.2c.1 0 .1 0 .2-.1l-.2.2c.1 0 .1-.1.2-.2l-.2.2.1-.1c-.1 0-.1.1-.2.1 0 0 .1-.1.2-.1-.1 0-.1.1-.2.1.1 0 .1 0 .2-.1h-.2.2-.2c.1 0 .1 0 .2.1-.1 0-.1-.1-.2-.1.1 0 .1.1.2.1-.1 0-.1-.1-.2-.1l.1.1c0-.1-.1-.1-.1-.2l.1.1c0-.1-.1-.1-.1-.2.1.2.2.3.3.4.2.1.4.1.6.1.2-.1.4-.2.4-.3.1-.2.1-.4.1-.6-.1-.2-.2-.3-.3-.5l-.1-.1c-.1-.1-.2-.1-.2-.2h-.7c-.6 0-1.2.4-1.4 1v.3.1.3c0 .1.1.2.1.3.1.1.2.3.3.4l.3.3s.1 0 .1.1c.1 0 .2.1.3.1.2 0 .4.1.6 0 .2 0 .3-.1.5-.2.1-.1.3-.2.4-.3.2-.2.4-.5.5-.8 0-.2.1-.3 0-.5 0-.2-.1-.4-.2-.6s-.3-.3-.4-.3c-.2 0-.4 0-.6.1s-.3.3-.3.4c-.1.2-.1.4 0 .6h0z" class="R"/><path d="M98.3 65.3c.6 1.1.1 2.2-1.2 2.4-1.2.1-2.3-1.4-1.8-2.5.6-1.1 2.6-1 3 .1" class="S"/><path d="M97.6 65.7c.1 0 .1.2 0 0 0-.1 0 .1 0 .1 0 .1.1.2.1.3v.1c0 .1 0-.1 0-.1v.1.3-.1.1.1.1s.1-.2 0-.1v.1c0 .1-.1.1-.1.2.1-.2.1-.1 0 0l-.1.1h-.1s.2-.1.1-.1c0 0-.1 0-.1.1 0 0-.1 0-.1.1 0 0-.1 0 0 0 .1-.1 0 0 0 0-.1 0-.2.1-.2.1H97h.1-.2-.1c-.2 0 .2 0 0 0-.1 0-.2 0-.2-.1h-.1c-.1 0 .1 0 .1 0s-.1 0-.1-.1c-.1 0-.1-.1-.2-.1s.1.1.1.1l-.1-.1-.2-.2.1.1s0-.1-.1-.1c0 0 0-.1-.1-.1 0 0-.1-.2 0-.1s0 0 0 0v-.1-.1-.1c0-.1 0 .1 0 .1v-.2-.1c0-.1 0 .1 0 .1V66v-.1-.1c0-.1 0 .1 0 .1l.1-.2c.1-.1-.1.1 0 0l.1-.1s.1 0 .1-.1c.1-.1-.2.1 0 0 .1 0 .1-.1.2-.1 0 0 .2-.1 0 0-.1.1 0 0 0 0 .1 0 .1 0 .2-.1h.1c.1 0-.2 0 0 0h.2.1c.1 0-.2 0 0 0 .1 0 .2 0 .2.1h.1c.1 0-.1 0-.1 0h.1c.1 0 .1.1.2.1.1.1-.1-.1 0 0l.1.1.1.1s-.1-.2-.1-.1v.1s0 .1.1.1v.1c0 .1-.1-.2 0-.1.1.2.2.3.3.4.2.1.4.1.6.1.4-.1.7-.5.5-.9-.2-.5-.5-.8-.9-1.1-.4-.2-.8-.3-1.3-.4-.9 0-1.8.4-2.2 1.2-.2.5-.3 1.1-.1 1.6.1.5.4.9.8 1.3.4.3.8.6 1.3.7.6.1 1.2 0 1.6-.3.5-.3.9-.8 1-1.3.1-.6 0-1.2-.3-1.8-.2-.4-.7-.5-1-.3-.5-.1-.6.3-.5.7h0zm8.5-9.3c.3.4.1.8-.4.9s-.9-.4-.8-.9c.3-.3 1-.4 1.2 0" class="R"/><path d="M105.3 56.9s0 .1.1.1c0-.1-.1-.2-.1-.2-.1.1 0 .2 0 .1v-.2c-.1.1-.1.2 0 .2v-.3.1c0-.1.1-.2.1-.2s0 .1-.1.1l.2-.2-.1.1.2-.2-.1.1c.1 0 .2-.1.2-.1h-.2.3-.1.3-.2c.1 0 .2.1.2.1-.1 0-.1-.1-.2-.1l.2.2c-.1 0-.1-.1-.1-.1l.2.2c0-.1-.1-.1-.1-.2 0 .1.1.2.1.2v-.2.3-.2.3-.1c0 .1-.1.2-.1.2s0-.1.1-.1l-.2.2.1-.1-.2.2.1-.1c-.1 0-.2.1-.2.1h.2-.3.2-.3.2c-.1 0-.2-.1-.2-.1s.1 0 .1.1c-.2 0-.3-.1-.3-.2 0 .1.1.1.1.1-.1 0-.2-.1-.1-.1-.1 0-.1 0 0 0 .1.1.1.2.3.3.1.1.2.1.3.2h.4c.1 0 .3 0 .4-.1.2-.1.4-.3.5-.6v-.3c0-.2 0-.3-.1-.5v-.1c-.1-.1-.1-.2-.2-.3s-.2-.1-.3-.2h-.1c-.1-.1-.3-.1-.4-.2-.1 0-.3-.1-.4 0-.1 0-.3 0-.4.1a.76.76 0 0 0-.4.2l-.3.3c-.1.1-.1.2-.2.3 0 .1-.1.2-.1.3v.1.4.1.3.1c0 .1.1.2.1.3.1.1.1.2.2.3a1.38 1.38 0 0 0 .4.3.76.76 0 0 0 .4.2h.1.4.4.1c.1 0 .2-.1.3-.1.1-.1.2-.1.3-.2 0 0 .1 0 .1-.1.1-.1.1-.2.2-.2.1-.2.2-.4.2-.7V57c0-.1 0-.3-.1-.4 0-.1-.1-.2-.1-.2 0-.1-.1-.2-.1-.2-.1-.2-.3-.4-.6-.5h-.4c-.1 0-.3 0-.4.1-.2.1-.4.3-.5.6-.2 0-.2.3 0 .5h0z" class="S"/><path d="M99.3 57.3c.3.4.1.8-.4.9s-.9-.4-.8-.9c.2-.4 1-.4 1.2 0" class="R"/><path d="M98.4 57.8s0 .1.1.1c0-.1-.1-.2-.1-.2 0 .1.1.1 0 .1v-.2.2-.3.1c0-.1.1-.2.1-.2s0 .1-.1.1l.2-.2-.1.1.2-.2-.1.1c.1 0 .2-.1.2-.1h-.2.3-.1.3-.2c.1 0 .2.1.2.1-.1 0-.1-.1-.2-.1l.2.2c-.1 0-.1-.1-.1-.1l.2.2c0-.1-.1-.1-.1-.2 0 .1.1.2.1.2v-.2.3-.2.3-.1c0 .1-.1.2-.1.2s0-.1.1-.1c-.1.1-.2.2-.2.3l.1-.1c-.1 0-.2.1-.2.1l.1-.1c-.1 0-.2.1-.2.1h.2-.3.2-.3.2c-.1 0-.2-.1-.2-.1s.1 0 .1.1c-.1 0-.2-.1-.3-.2 0 .1.1.1.1.1l-.1-.1c.1.1.1.2.3.3.1.1.2.1.3.2h.4c.1 0 .3 0 .4-.1.2-.1.4-.3.5-.6v-.3c0-.2 0-.3-.1-.5v-.1c-.1-.1-.1-.2-.2-.3s-.2-.1-.3-.2h-.1c-.1-.1-.3-.1-.4-.2-.1 0-.3-.1-.4 0-.1 0-.3 0-.4.1a.76.76 0 0 0-.4.2l-.3.3c-.1.1-.1.2-.2.3 0 .1-.1.2-.1.3v.1.4.1.3.1c0 .1.1.2.1.3.1.1.1.2.2.3a1.38 1.38 0 0 0 .4.3.76.76 0 0 0 .4.2h.1.4.4.1c.1 0 .2-.1.3-.1.1-.1.2-.1.3-.2 0 0 .1 0 .1-.1.1-.1.1-.2.2-.2.1-.2.2-.4.2-.7v-.1c0-.1 0-.3-.1-.4 0-.1-.1-.2-.1-.2 0-.1-.1-.2-.1-.2-.1-.2-.3-.4-.6-.5h-.4c-.1 0-.3 0-.4.1-.2.1-.4.3-.5.6-.1 0-.1.3 0 .5h0z" class="S"/><path d="M104 56.6c.3.5.1 1.1-.5 1.2s-1.2-.6-1-1.1c.3-.6 1.3-.6 1.5-.1" class="R"/><path d="M103.2 57.1c0 .1.1.1.1.2-.1-.1-.1-.2-.1-.2s0 .1.1.2c-.1-.1-.1-.2-.1-.2v.1-.3.2c0-.1.1-.1.1-.2 0 .1-.1.1-.1.2.1-.1.1-.2.2-.3l-.1.1.2-.2c-.1 0-.1.1-.2.1.1 0 .2-.1.2-.1-.1 0-.2.1-.2.1h.3-.2.3c-.1 0-.1 0-.2-.1.1 0 .2.1.2.1-.1 0-.1-.1-.2-.1l.2.2-.2-.2.2.2c0-.1-.1-.1-.1-.2 0 .1.1.2.1.2 0-.1 0-.1-.1-.2v.3-.2.3-.2c0 .1-.1.2-.1.2 0-.1.1-.1.1-.1l-.2.2.1-.1-.2.2c.1 0 .1-.1.2-.1-.1 0-.2.1-.2.1.1 0 .2-.1.2-.1h-.3.2c0 0-.1 0-.2-.1.1.1.2.1.3.1-.1 0-.2 0-.3-.1.1.1.1.1.2.1-.1 0-.2 0-.2-.1 0 0 0 .1 0 0l-.1-.1c0 .1.1.1.1.1.1.1.1.2.3.3.1.1.2.1.3.2h.4c.1 0 .3 0 .4-.1.2-.1.4-.3.5-.6v-.3c0-.2 0-.3-.1-.5 0 0 0-.1-.1-.1-.1-.1-.1-.2-.2-.3s-.2-.2-.3-.2c0 0-.1 0-.1-.1-.1-.1-.3-.1-.4-.2-.2 0-.3-.1-.5 0-.3 0-.7.1-.9.3-.1.1-.3.2-.4.3-.2.2-.3.4-.4.6v.1.4c0 .1 0 .3.1.4v.1c0 .1.1.2.2.3s.2.2.2.3c.1.1.3.2.4.4.1.1.3.2.5.2h.1.4c.2 0 .4 0 .6-.1.1 0 .2-.1.4-.2.1-.1.2-.2.3-.2l.1-.1c.1-.1.2-.2.2-.3.1-.3.2-.5.2-.7v-.2c0-.1 0-.3-.1-.4 0-.1-.1-.2-.1-.3s-.1-.2-.1-.3c-.1-.2-.3-.4-.6-.5h-.4c-.1 0-.3 0-.4.1-.2.1-.4.3-.5.6-.2.6-.2.9 0 1.1h0z" class="S"/><path d="M101.6 56.9c.3.5.1 1.1-.5 1.2s-1.2-.6-1-1.1 1.2-.6 1.5-.1" class="R"/><path d="M100.7 57.4c0 .1.1.1.1.2 0-.1-.1-.1-.1-.2 0 0 0 .1.1.2 0-.1-.1-.2-.1-.2v.1-.3c.1.2 0 .2 0 .2 0-.1.1-.1.1-.2 0 .1 0 .1-.1.2.1-.1.1-.2.2-.3l-.1.1.2-.2c-.1 0-.1.1-.2.1.1 0 .2-.1.2-.1-.1 0-.2.1-.2.1h.3-.2.3c-.1 0-.1 0-.2-.1.1 0 .2.1.2.1-.1 0-.1-.1-.2-.1l.2.2-.2-.2.2.2c0-.1-.1-.1-.1-.2 0 .1.1.2.1.2 0-.1 0-.1-.1-.2v.3-.2.3-.2c0 .1-.1.2-.1.2 0-.1.1-.1.1-.1l-.2.2.1-.1-.2.2c.1 0 .1-.1.2-.1-.1 0-.2.1-.2.1.1 0 .2-.1.2-.1h-.3.2c0 .1-.1 0-.2-.1.1.1.2.1.3.1-.1.1-.2 0-.3-.1.1.1.1.1.2.1-.1 0-.1 0-.2-.1 0 .1.1.1 0 0l-.1-.1.1.1c.1.1.1.2.3.3.1.1.2.1.3.2h.4c.1 0 .3 0 .4-.1.2-.1.4-.3.5-.6v-.3c0-.2 0-.3-.1-.5 0 0 0-.1-.1-.1-.1-.1-.1-.2-.2-.3s-.2-.2-.3-.2c0 0-.1 0-.1-.1-.1-.1-.3-.1-.4-.2-.2 0-.3-.1-.5 0-.3 0-.7.1-.9.3-.1.1-.3.2-.4.3-.2.2-.3.4-.4.6v.1.4c0 .1 0 .3.1.4v.1c0 .1.1.2.2.3s.2.2.2.3c.1.1.3.2.4.4.1.1.3.2.5.2h.1.4c.2 0 .4 0 .6-.1.1 0 .2-.1.4-.2.1-.1.2-.1.3-.2l.1-.1c.1-.1.2-.2.2-.3.1-.3.2-.5.2-.7v-.2c0-.1 0-.3-.1-.4 0-.1-.1-.2-.1-.3s-.1-.2-.1-.3c-.1-.2-.3-.4-.6-.5h-.4c-.1 0-.3 0-.4.1-.2.1-.4.3-.5.6-.1.6-.1.9 0 1.1h0z" class="S"/><path d="M118.4 84.8c.4.2.7.8.6 1.3s-.5.9-1 1-1.1-.1-1.3-.6c-.3-.5-.2-1.1.2-1.5.5-.4 1.1-.4 1.5-.2" class="U"/><path d="M118.3 85c.4.2.6.6.5 1s-.4.7-.8.8-.8-.1-1-.5c-.2-.3-.2-.8.1-1.1.2-.2.4-.3.6-.4.2.1.4.1.6.2.3.2.5-.3.3-.4-.5-.3-1.2-.2-1.7.2s-.7 1.1-.4 1.7c.2.6.8 1 1.4.9.6 0 1.2-.4 1.4-1 .2-.7-.1-1.4-.7-1.8-.4-.2-.6.3-.3.4h0z" class="R"/><path d="M118.6 85l-1.6 1.9" class="U"/><path d="M118.4 84.8l-1.6 1.9c-.1.1-.1.3 0 .4s.3.1.4 0l1.6-1.9c.1-.1.1-.3 0-.4s-.3-.1-.4 0h0z" class="R"/><path d="M116.2 54.5c.4.2.7.8.6 1.3s-.5.9-1 1-1.1-.1-1.3-.6c-.3-.5-.2-1.1.2-1.5.5-.4 1.1-.4 1.5-.2" class="U"/><path d="M116.1 54.8c.4.2.6.6.5 1s-.4.7-.8.8-.8-.1-1-.5c-.2-.3-.2-.8.1-1.1.2-.2.4-.3.6-.4.2 0 .4.1.6.2.3.2.5-.3.3-.4-.5-.3-1.2-.2-1.7.2s-.7 1.1-.4 1.7c.2.6.8 1 1.4.9.6 0 1.2-.4 1.4-1 .2-.7-.1-1.4-.7-1.8-.3-.2-.6.2-.3.4h0z" class="R"/><path d="M116.4 54.7l-1.6 1.9" class="U"/><path d="M116.3 54.5l-1.6 1.9c-.1.1-.1.3 0 .4s.3.1.4 0l1.6-1.9c.1-.1.1-.3 0-.4-.2-.1-.4-.1-.4 0h0z" class="R"/><path d="M87.8 57c.5.3.9.9.8 1.5s-.6 1.1-1.2 1.3c-.6.1-1.3-.2-1.6-.7-.3-.6-.2-1.3.3-1.8a1.28 1.28 0 0 1 1.7-.3" class="U"/><path d="M87.7 57.2c.5.3.7.8.7 1.3-.1.5-.5 1-1 1-.5.1-1-.2-1.3-.6s-.2-1 .1-1.4.9-.6 1.5-.3c.3.2.5-.3.3-.4-.6-.4-1.4-.3-2 .2s-.8 1.3-.5 2 1 1.1 1.7 1.1 1.4-.5 1.6-1.2c.3-.8-.1-1.7-.8-2.1-.4-.2-.6.3-.3.4h0z" class="R"/><path d="M88.1 57.2l-1.9 2.3" class="U"/><path d="M87.9 57L86 59.3c-.1.1-.1.3 0 .4s.3.1.4 0l1.9-2.3c.1-.1.1-.3 0-.4-.2-.1-.3-.1-.4 0h0z" class="R"/><path d="M86.8 88.5c.6.3.9 1 .8 1.6s-.6 1.2-1.2 1.3-1.4-.2-1.7-.8-.2-1.4.3-1.8c.5-.6 1.2-.6 1.8-.3" class="U"/><path d="M86.6 88.7c.5.3.8.8.7 1.4-.1.5-.5 1-1.1 1.1-.5.1-1.1-.2-1.3-.6-.3-.4-.2-1.1.1-1.5.4-.5 1.1-.7 1.6-.4.3.2.5-.3.3-.4-.7-.4-1.4-.3-2 .2s-.8 1.3-.5 2 1 1.2 1.7 1.1c.7 0 1.4-.5 1.7-1.2.3-.8-.1-1.7-.8-2.2-.4-.1-.7.3-.4.5h0z" class="R"/><path d="M87 88.7l-1.9 2.4" class="U"/><path d="M86.9 88.5L85 90.9c-.1.1-.1.3 0 .4s.3.1.4 0l1.9-2.4c.1-.1.1-.3 0-.4-.2-.1-.4-.1-.4 0h0z" class="R"/><path d="M123.3 141.3c1 .6 1.6 1.8 1.4 2.9s-1.1 2.1-2.2 2.3c-1.2.2-2.5-.4-3-1.5s-.3-2.5.6-3.3c.9-1 2.2-.9 3.2-.4" class="U"/><path d="M122.9 142c.1 0 .1.1.2.1.1.1.1 0 0 0l.3.3.1.1.1.1a.76.76 0 0 1 .2.4c0-.1 0 0 0 0 0 .1 0 .1.1.2v.1.1.4.2c0 .2 0-.1 0 .1 0 .1-.1.2-.1.4-.1.2.1-.1 0 .1 0 0 0 .1-.1.1l-.4.6c-.2.2-.2.2-.5.4 0 0-.1 0-.1.1.1-.1-.1 0-.1 0-.1 0-.3.1-.4.1s.2 0-.1 0h-.1-.2c-.1 0-.1 0 0 0-.1 0-.2 0-.4-.1-.1 0-.1 0-.2-.1h-.1c-.1-.1-.2-.1-.3-.2l-.1-.1c.1.1-.1-.1-.1-.1l-.3-.3s-.1-.1 0 0c-.1-.1-.1-.1-.1-.2s-.1-.1-.1-.2c-.1-.1 0-.1 0 0 0-.1-.1-.2-.1-.4v-.1-.1-.4c0-.2 0 .1 0-.1v-.2c0-.1.1-.2.1-.4 0 .1 0 0 0 0 0-.1.1-.1.1-.2l.1-.1.1-.1c.2-.2.4-.4.7-.5.1 0 .1-.1.2-.1 0 0 .1 0 .1-.1h.1.1 0c-.1 0 .1 0 .1 0h.2.2c-.1 0 0 0 .1 0s.3.1.4.1c0 0-.1-.1 0 0 .1 0 .2 0 .3.1.8.5 1.6-.8.8-1.3-1.3-.8-2.9-.6-4.1.4-1.1.9-1.5 2.6-1 3.9.5 1.4 1.9 2.3 3.4 2.3s2.8-1 3.3-2.4c.6-1.6-.2-3.4-1.6-4.2-.9-.5-1.7.8-.8 1.3h0z" class="R"/><path d="M123.7 141.7l-3.6 4.2" class="U"/><path d="M123.2 141.2l-3.6 4.2c-.3.3-.3.8 0 1.1s.8.3 1.1 0l3.6-4.2c.3-.3.3-.8 0-1.1s-.8-.3-1.1 0h0z" class="R"/><path d="M84.3 146.3c1 .6 1.6 1.8 1.4 2.9s-1.1 2.1-2.2 2.3c-1.2.2-2.5-.4-3-1.5s-.3-2.5.6-3.3c1-1 2.3-.9 3.2-.4" class="U"/><path d="M83.9 147c.1 0 .1.1.2.1.1.1.1 0 0 0l.3.3.1.1.1.1a.76.76 0 0 1 .2.4c0-.1 0 0 0 0 0 .1 0 .1.1.2v.1.1.4.2c0 .2 0-.1 0 .1 0 .1-.1.2-.1.4-.1.2.1-.1 0 .1 0 0 0 .1-.1.1l-.4.6c-.2.2-.2.2-.5.4 0 0-.1 0-.1.1.1-.1-.1 0-.1 0-.1 0-.3.1-.4.1s.2 0-.1 0H83h-.2c-.1 0-.1 0 0 0-.1 0-.2 0-.4-.1-.1 0-.1 0-.2-.1h-.1c-.1-.1-.2-.1-.3-.2l-.1-.1c.1.1-.1-.1-.1-.1l-.3-.3s-.1-.1 0 0c-.1-.1-.1-.1-.1-.2s-.1-.1-.1-.2c-.1-.1 0-.1 0 0 0-.1-.1-.2-.1-.4v-.1-.1-.4c0-.2 0 .1 0-.1v-.2c0-.1.1-.2.1-.4 0 .1 0 0 0 0 0-.1.1-.1.1-.2l.1-.1.1-.1c.2-.2.4-.4.7-.5.1 0 .1-.1.2-.1 0 0 .1 0 .1-.1h.1.1 0c-.1 0 .1 0 .1 0h.2.2c-.1 0 0 0 .1 0s.3.1.4.1c0 0-.1-.1 0 0 .2 0 .2 0 .3.1.8.5 1.6-.8.8-1.3-1.3-.8-2.9-.6-4.1.4-1.1.9-1.5 2.6-1 3.9.5 1.4 1.9 2.3 3.4 2.3s2.8-1 3.3-2.4c.6-1.6-.2-3.4-1.6-4.2-.9-.5-1.6.8-.8 1.3h0z" class="R"/><path d="M84.8 146.7l-3.6 4.2" class="U"/><path d="M84.3 146.2l-3.6 4.2c-.3.3-.3.8 0 1.1s.8.3 1.1 0l3.6-4.2c.3-.3.3-.8 0-1.1-.4-.3-.9-.3-1.1 0h0z" class="R"/><path d="M121.4 92.5c.5 1 0 2-1.1 2.1s-2.1-1.3-1.5-2.3c.5-1 2.3-.9 2.6.2" class="T"/><path d="M120.8 92.8c0 .2-.1-.1 0 0v.1c0 .1 0 .2.1.3V93v.4-.2.2.1c0 .1.1-.2 0-.1 0 .1-.1.1-.1.2-.1.1.1-.1 0-.1l-.1.1-.1.1c-.1.1.2-.1.1 0-.1 0-.1.1-.2.1-.1.1.2-.1.1 0h-.1c-.1 0-.2 0-.2.1h.2-.4.2c-.1 0-.2 0-.3-.1-.1 0-.2-.1 0 0 0 0-.1 0-.1-.1 0 0-.1 0-.1-.1-.1 0-.2-.1 0 0l-.2-.2-.1-.1c-.1-.1.1.2 0 0-.1-.1-.1-.1-.1-.2s-.1-.2 0 0V93c0-.1 0-.2-.1-.3v.2-.4.2-.2c.1-.2-.1.1 0 0v-.1s0-.1.1-.1c.1-.1-.1.2 0 .1l.1-.1c.1-.1-.2.1-.1.1 0 0 .1 0 .1-.1.1 0 .3-.1 0 0 .1 0 .2-.1.4-.1h-.2.5-.2c.1 0 .2 0 .4.1.1 0 .1.1-.1 0h.1c.1 0 .1.1.2.1.1.1-.1-.1-.1-.1l.1.1.1.1c-.2-.2-.1-.1 0 0v.1c.1.1-.1-.2 0 0 .1.4.5.7.9.5.4-.1.7-.5.5-.9-.3-.9-1.1-1.4-2-1.4-.8 0-1.7.4-2.1 1.1-.2.5-.3 1-.2 1.5.1.4.4.9.7 1.2s.7.6 1.2.7 1.1 0 1.6-.2c.5-.3.8-.7.9-1.2.1-.6 0-1.2-.2-1.7-.1-.2-.3-.3-.4-.3-.2 0-.4 0-.6.1-.3 0-.4.4-.2.8h0z" class="R"/><path d="M57.2 135.7c2.6-.2 9-1.1 11.6-.5.5.1 1 .3 1.4.6.4.4.5 1 .8 1.4 5.5 8.5 8.2 21.2 8.9 31.1.1.8.1 1.7-.5 2.3-.3.3-2.5 1.9-3 2-3 .6-9.5 4-12.7 3.4" class="V"/><path d="M57.2 136.5c3.6-.3 7.5-1.2 11-.6.7.1 1.3.3 1.7 1 .2.4.3.7.6 1.1l1.8 3.1a51.05 51.05 0 0 1 2.8 6.8c1.6 4.7 2.7 9.5 3.4 14.4.3 2.2.9 4.7.7 6.9-.1 1.3-2 2.5-3.2 2.9l-5.7 2c-1.9.7-4.2 1.7-6.3 1.3-.9-.2-1.4 1.3-.4 1.4 2 .3 4-.3 5.8-.9 2.1-.7 4.1-1.6 6.2-2.2 1.5-.5 2.7-1.2 4-2.2 1.7-1.4 1-4 .8-6-.6-5.4-1.6-10.7-3.2-15.9-.8-2.6-1.7-5.2-2.9-7.7-.5-1.1-1.1-2.2-1.7-3.2-.3-.5-.6-1.1-1-1.6-.3-.5-.4-1.1-.8-1.5-1.3-1.7-4.5-1.3-6.4-1.3-2.5.1-4.9.4-7.3.7-.9.1-.9 1.6.1 1.5h0z" class="R"/><path d="M52.2 171.5c-2.4-1.3-4.8-2.9-7-4.7-.9-.7-1.8-1.5-2.1-2.7-.3-1.1-.1-2.3.1-3.4 1.7-7.2 3.9-12.1 6.8-18.5 1.3-2.8 2.9-4.3 5-6.2.8-.7 2.7-.1 3.6.2 1.1.3 2.6 1.7 3.1 2.9 3.3 9.2 5.5 18.8 7.2 28.6.4 2.3.4 6.2-1.2 7.6-1.1 1-2.7.9-4 .7-3.8-.6-8.2-2.4-11.5-4.5z" class="V"/><g class="R"><path d="M52.5 170.9l-4.5-2.8c-1.4-.9-3.3-2-4-3.5-.9-1.6-.1-3.7.4-5.4.4-1.7.9-3.3 1.5-4.9 1-3 2.3-5.9 3.6-8.8 1.3-2.8 2.5-5.4 4.8-7.6.5-.5 1.1-1.2 1.8-1.3.5-.1 1.2.1 1.7.2 1.4.3 2.6 1.1 3.3 2.5.7 1.5 1.2 3.3 1.7 5l1.6 5.4c1 3.5 1.8 7.1 2.5 10.7.7 3.2 1.6 6.6 1.6 9.9 0 1.4 0 3.1-.8 4.2-1.1 1.6-3.3 1.1-4.8.7-3.8-.9-7.2-2.4-10.4-4.3-.8-.5-1.6.8-.8 1.3a35.47 35.47 0 0 0 10.6 4.4c2.9.6 6 .6 7-2.6 1-3.1.3-6.4-.3-9.5-.8-4.3-1.7-8.6-2.8-12.9-1.1-4.2-2.2-8.4-3.8-12.5-1-2.6-3.9-4.3-6.7-4.1-1.3.1-2.3 1.4-3.2 2.3-1.2 1.2-2.2 2.5-2.9 3.9-1.8 3.3-3.2 6.9-4.5 10.4-.8 2-1.4 4-2 6.1-.6 2-1.4 4.4-.9 6.5.4 1.9 2.1 3 3.6 4.2 1.9 1.4 3.9 2.7 6 3.9.8.4 1.6-.9.7-1.4z"/><path d="M67.1 154.1c1.3.1 2.7-.5 3.1-1.8.3-.8 0-1.6-.3-2.4l-.9-2.4c-.3-.7-.6-1.4-.3-2.1.2-.5.7-1 1.3-1.2.6-.1 1.2.2 1.7.5.7.3 1.4.5 2.2.3.9-.3.5-1.8-.4-1.4-.6.2-1.3-.2-1.8-.4-.7-.3-1.4-.5-2.1-.3-1.3.3-2.3 1.6-2.5 2.9-.1.8.2 1.6.5 2.4l.9 2.4c.2.5.5 1.2 0 1.6-.4.4-1 .5-1.5.4-.4 0-.8.4-.8.8.2.4.5.7.9.7h0zm1.8 10.4c1.2 0 2.2-.4 3.2-1 .9-.6 1.9-1.3 2.4-2.3s.5-2 .3-3.1c-.2-1-.5-2-.3-3-.2.2-.5.4-.7.6.8-.1 1.5.7 2.4.9.8.2 1.7 0 2.2-.7.5-.8-.8-1.6-1.3-.8-.2.3-.9-.1-1.1-.2-.7-.4-1.4-.8-2.2-.7-.3 0-.6.2-.7.6-.2.9-.1 1.9.1 2.8.2.8.4 1.7.2 2.6s-1 1.4-1.7 1.9c-.8.5-1.7 1-2.7 1a.71.71 0 0 0-.1 1.4h0z"/></g><path d="M64.3 160.8c-1.6-1.1-3.2-2.4-4.6-3.9-.2-.2-.5-.5-.6-.8-.1-.4 0-.9.2-1.3.6-1.7 1.3-3.3 2.2-4.8l-2.2-6.3c-.3-.8-1.3-1.8-2.1-2-.6-.2-1.2.3-1.7.8-1.4 1.3-2.5 2.3-3.4 4.3-2 4.4-3.5 7.8-4.7 12.7-.2.8-.3 1.6-.1 2.4s.8 1.4 1.4 1.8c1.5 1.2 3.1 2.3 4.7 3.2 2.2 1.4 5 1.8 7.5 2.3.9.2 3 1.4 3.8.7 1.1-1 0-4 0-5.6-.1-1.1-.2-2.3-.4-3.5z" fill="#2f5454"/><path d="M64.6 160.1c-1.3-.9-2.5-1.9-3.7-3-.7-.7-1.3-1-1-2.1.2-.8.6-1.7 1-2.5.3-.7.9-1.4 1.1-2.2.2-.6-.1-1-.2-1.5l-1.7-5c-.7-2-2.7-3.9-4.7-2.3-2.1 1.6-3.5 3.7-4.5 6l-3 7.6c-.7 2.3-2.3 5.8-.7 8 .7.9 1.7 1.6 2.6 2.3l4 2.5c1.2.6 2.4 1 3.7 1.3s2.7.4 3.9.8c1.8.6 4.2 1.4 4.5-1.3.1-1.2-.2-2.5-.4-3.7l-.5-4.7c-.1-1-1.6-.5-1.4.4l.8 6.6c.1.8.3 2.1-.9 1.8-.8-.2-1.5-.6-2.3-.8-2.4-.6-4.8-.7-7.1-2l-3-1.8c-1-.7-2.4-1.5-3-2.5-.6-1.1-.1-2.6.2-3.7.3-1.2.7-2.4 1.1-3.6l2.7-6.7c.5-1.1 1-2.2 1.7-3.1.6-.7 1.6-2.1 2.5-2.5 1.5-.6 2.2 1.6 2.5 2.5l1.4 4.1c.2.8 0 1.2-.4 1.9l-.8 1.7c-.4 1-1.2 2.3-.9 3.4s1.6 1.9 2.3 2.6c1 .9 2.1 1.7 3.2 2.5 1.1.9 1.8-.4 1-1z" class="X"/><path d="M58.4 156.8c.1.3.3.6.6.8 1.4 1.4 3.7 2 5.3 3.2-.6-3.5-1.7-7.2-2.9-10.7-.8 1.5-2.2 3.8-2.8 5.5-.2.3-.3.7-.2 1.2z" fill="#7bc5cc"/><g class="X"><path d="M57.7 157c.4 1.2 1.7 2 2.8 2.6l3.4 1.8c.6.4 1.2-.3 1.1-.8-.6-3.7-1.7-7.2-2.9-10.7-.2-.6-1-.8-1.4-.2-.6 1.2-1.3 2.3-1.9 3.5-.5 1-1.4 2.4-1.1 3.8.2.9 1.6.5 1.4-.4-.1-.5.3-1.1.5-1.6a11.94 11.94 0 0 1 .8-1.6c.5-1 1.1-2 1.7-3-.5-.1-.9-.1-1.4-.2 1.2 3.5 2.3 7.1 2.9 10.7.4-.3.7-.6 1.1-.8-.9-.6-2-1.1-2.9-1.6-.5-.2-.9-.5-1.4-.8-.4-.3-1-.7-1.2-1.2-.4-.9-1.9-.5-1.5.5z"/><path d="M49.8 161.5c2.9-1.2 5.9-2.2 8.9-2.9.9-.2.5-1.7-.4-1.4-3.2.7-6.3 1.8-9.3 3-.4.2-.5.7-.3 1 .3.4.7.4 1.1.3h0z"/></g><g class="R"><path d="M60.4 149.5c-.7.3-1.5.4-2.2.4-1.4 0-2.9-.6-3.7-1.8s-.7-3.2.5-4c0 0 .6-2.7 2.2-1.3s3.2 6.7 3.2 6.7z"/><path d="M60.2 148.8c-1.7.6-4.1.5-5.1-1.1-.4-.6-.5-1.4-.3-2.1.1-.3.2-.6.5-.8.1-.1.4-.3.4-.5v-.1c0-.2.1-.3.2-.5 0-.1-.1.1 0 0 0 0 0-.1.1-.1 0-.1.1-.1.1-.2v-.1c.1-.1-.1.1 0 0l.1-.1c.1-.1-.1 0 0 0h0 .1c-.1 0-.1.1 0 0h0c-.1 0 0 0 0 0h0c-.1 0 .1 0 .1 0 .1.1.2.1.3.2s.2.2.2.3l.1.1c0 .1.1.1.1.2.2.3.4.6.5.9l.9 1.9c.4 1 .7 2 1 3 .3.9 1.7.5 1.4-.4-.4-1.5-1-2.9-1.6-4.3-.4-.9-.9-1.8-1.5-2.6-.7-.8-1.8-1.2-2.7-.5-.5.4-.8 1.2-1 1.8.1-.1.2-.3.3-.4-1.8 1.2-1.8 3.9-.5 5.5 1.5 1.9 4.3 2.2 6.5 1.4.4-.1.6-.5.5-.9.1-.5-.3-.8-.7-.6zm10.4-12.1l1.4-.8c.1-.1.3-.2.5-.1.1 0 .2.1.3.2 1.5 1.8 2 4.4 1.4 6.7"/><path d="M71 137.4l1.1-.6c.1 0 .2-.1.3-.2h.1-.3s.2.2.2.3c.4.6.7 1.2.9 1.8.4 1.3.5 2.7.2 4-.2.9 1.2 1.3 1.4.4.4-1.7.3-3.6-.3-5.3-.3-.8-.8-1.7-1.4-2.3-.5-.4-1-.4-1.5-.1s-1 .5-1.4.8c-.9.4-.1 1.7.7 1.2h0z"/></g><path d="M55.4 142.9c-1.2.7-1.8 2.3-1.8 3.7 0 .8.2 1.5.7 2.1a2.99 2.99 0 0 0 1.7 1c.7.1 1.4.2 2 0 .8-.2 1.3-.8 1.6-1.6.4-1.4.1-3.1-.7-4.3-.3-.5-.9-.8-1.5-.9s-1.2-.2-1.8-.1c-.4.1-.6.6-.5.9.1.4.5.6.9.5-.3 0 0 0 .1 0h.3.6c-.2 0 .2 0 .2 0 .1 0 .2 0 .3.1.1 0 .2 0 .2.1-.2-.1 0 0 0 0s.2.1.1 0 0 0 0 0c.1.1-.1-.2 0 0 .1.1.1.2.2.3.1.2.2.5.3.7.1.5.2 1 .2 1.6 0 .1 0 .4-.1.6-.1.1-.2.3-.3.4-.1 0-.4.1-.5.1h-.8c.1 0-.1 0-.2 0s-.2-.1-.3-.1c0 0-.2-.1-.1 0 0 0-.1 0-.1-.1 0 0-.1 0-.1-.1 0 0-.2-.1-.1-.1l-.4-.4c-.1-.1-.1-.4-.1-.6 0-.6.1-1 .3-1.6.2-.4.4-.9.8-1.1.3-.2.5-.7.3-1-.6-.2-1.1-.3-1.4-.1h0z" class="S"/><path d="M69.3 112.5c-5.6 1.7-10.3 6.1-12.4 11.5-1.9 4.9-1.7 10.2-2.3 15.4-.7 5.2-2.6 10.7-7.1 13.3-3 1.7-6.7 1.8-10.1 1.6-1-.1-2-.2-2.8-.8-1.5-1.1-1.3-3.3-1-5.1 2.4-.3 4.7-.9 7-1.6 1.7-.6 3.4-1.3 4.6-2.6 1.6-1.8 2.1-4.3 2.4-6.7.7-6.1.7-12.3 2.4-18.2.5-1.8 1.3-3.6 2.4-5.2 1-1.4 2.4-2.4 3.8-3.4 3.2-2.3 6.7-4.2 10.4-5.6.2-.1.5-.1.6 0 .1.2-.3.4-.3.2" class="V"/><path d="M69.1 111.8c-3.8 1.2-7.1 3.4-9.6 6.5-2.8 3.4-4.1 7.4-4.7 11.7-1 7.7-.2 19.5-9.2 22.9-2.4.9-5.1 1-7.6.8-1.3-.1-2.9-.1-3.5-1.4-.5-1.1-.3-2.5-.2-3.6l-.5.5c3.7-.5 8.2-1.3 11.2-3.8 2.7-2.2 3.2-5.8 3.5-9.1.5-4.4.6-8.8 1.4-13.1.7-4 2-7.9 5.2-10.6 1.7-1.4 3.7-2.7 5.6-3.8 1-.6 2.1-1.1 3.1-1.6.5-.2.9-.4 1.4-.6.3-.1 1.4-.8 1.9-.6-.2-.2-.4-.5-.6-.7v.2c.1-.2.2-.4.4-.6-.1 0-.1.1-.2.1.3 0 .6.1.9.1l-.1-.1c-.7-.7-1.7.4-1.1 1.1l.1.1c.2.2.6.3.9.1.4-.2.5-.5.5-.9s-.3-.6-.6-.7c-.8-.3-1.5.2-2.2.5l-2.6 1.2c-1.8.9-3.6 1.9-5.4 3.1-3.1 2.1-5.8 4.3-7.3 7.9-1.6 3.9-2.1 8.1-2.4 12.3-.2 2.2-.3 4.4-.6 6.6-.2 2-.4 4-1.1 5.8-1 2.3-2.9 3.5-5.1 4.3-2.4.8-4.9 1.4-7.4 1.8-.2 0-.5.3-.5.5-.3 1.8-.5 3.9.7 5.4 1.3 1.6 3.8 1.5 5.7 1.5 4.5.1 9-1 12-4.7 6.4-7.9 2.8-18.8 7-27.4 2.2-4.7 6.4-8.3 11.4-9.8.9-.8.6-2.2-.4-1.9h0z" class="R"/><path d="M31.1 149.9c-2-.3-4-.3-5.9.1-1 .2-2.1.7-2.8 1.5s-1 2.1-.4 3c.6 1.1 2.1 1.3 3.3.9s2.1-1.3 2.9-2.2c.7-.9 1.8-2.7 2.9-3.3z" class="T"/><path d="M31.1 149.2c-2.1-.3-4.2-.3-6.2.2-1.7.4-3.5 1.4-3.9 3.3-.4 1.7.7 3.3 2.4 3.7 1.8.3 3.4-.7 4.6-1.9a16.32 16.32 0 0 0 1.7-2c.5-.6 1-1.4 1.7-1.8.9-.5.1-1.8-.8-1.3-1.2.6-1.9 1.9-2.7 2.9s-1.8 2.2-3.1 2.6c-1.1.3-2.5-.1-2.5-1.4 0-1.5 1.5-2.2 2.7-2.5 1.9-.5 4-.4 6-.2.4.1.8-.4.8-.8 0-.5-.3-.8-.7-.8z" class="R"/><path d="M31.2 147.3c-2.6.3-5.9.7-8.3-.4-1.2-.5-2.3-2.1-2-3.4.2-.8 1.3-2.1 2.2-2.2.8 0 1.7.3 2.4.6 1.9 1 4.1 4 5.7 5.4z" class="T"/><path d="M31.2 146.5c-1.7.2-3.4.4-5.1.3-1.5-.1-3.2-.4-4.1-1.7-.3-.5-.6-1.1-.3-1.7.2-.5.7-1.2 1.3-1.3.7-.2 1.7.3 2.3.7.6.3 1.2.8 1.7 1.3l3.6 3.7c.7.6 1.8-.4 1.1-1.1-1.4-1.2-2.5-2.7-3.9-3.9-.6-.6-1.3-1.2-2.1-1.5-.9-.4-2.1-.9-3.1-.7-1.6.4-2.8 2.4-2.4 4 .5 1.9 2.2 3 4 3.4 2.3.5 4.7.2 7 0 .4-.1.7-.3.8-.8 0-.3-.4-.7-.8-.7z" class="R"/><path d="M33.2 146.2c-1.3-.2-2.5-.7-3.3-1.4-1.5-1.2-3.1-2.6-3.2-4.6-.1-1.7 1.2-3.4 2.9-3.8.5-.1 1-.1 1.5.1.8.3 1.4 1.2 1.5 2.1.2.9 0 1.8 0 2.7 0 1.8.6 4.9.6 4.9z" class="T"/><path d="M33.4 145.5c-1.8-.2-3.3-1.3-4.6-2.6-1.1-1.1-1.9-2.7-1.1-4.1.6-1.2 2.6-2.4 3.6-.9.5.8.5 1.7.5 2.6 0 .8-.1 1.6 0 2.4.1 1.2.3 2.4.6 3.6.2.9 1.7.5 1.4-.4-.3-1.2-.5-2.4-.6-3.6-.2-2 .5-4.4-1.2-5.9s-4.2-.5-5.4 1.2-.9 3.9.3 5.5c1.4 1.9 3.6 3.4 5.9 3.8.4.1.8-.1.9-.5.4-.6.1-1.1-.3-1.1zM62 116.1c-.8-1.2-1.6-2.3-2.7-3.2s-2.5-1.5-4-1.4c-.4 0-.8.3-.8.8 0 .4.3.8.8.8 2.5-.2 4.2 2 5.4 3.8.2.3.7.5 1 .3.4-.3.5-.8.3-1.1h0zm-4.3 4.9c-1.3-.5-2.5-1.2-3.9-1.4-1.4-.3-2.8-.2-4.2.1-.4.1-.7.7-.4 1.1.2.3.4.5.8.6.9.2 1.3-1.2.4-1.4l.1.1c-.1.4-.3.7-.4 1.1 1.2-.3 2.5-.3 3.7-.1 1.3.3 2.4.9 3.6 1.4.4.1.8-.2.9-.5 0-.5-.2-.9-.6-1h0zm-2.4 9.1c-1.3-.4-2.7-.6-4.1-.5l-2 .3c-.7.2-1.6.5-1.4 1.5.1.4.5.6.9.5s.6-.5.5-.9v-.1.4c-.1.3-.2.2.1.2.1 0 .3-.1.4-.1.2-.1.5-.1.7-.2.5-.1 1-.1 1.5-.1 1 0 2 .1 3 .4s1.4-1.1.4-1.4h0zm-.4 11c-1.2-1.2-2.9-1.7-4.6-1.7a13.33 13.33 0 0 0-2.8.3c-.5.1-1 .1-1.2.6-.3.6.2 1.1.8 1.1.4 0 .7-.4.8-.8 0-.4-.4-.8-.8-.8s-.7.3-.8.8l.8-.8c.1 0 .3.1.4.1.1.2.2.4.4.6-.1.2-.2.4-.4.6-.2.1-.2.1.1 0 .1 0 .2 0 .3-.1.1 0 .3 0 .4-.1.3 0 .6-.1.9-.1.7-.1 1.3-.1 2 0 1 .1 2 .5 2.8 1.2.6.8 1.6-.3.9-.9h0zm-6.1 9.8c-.3-1.2-.9-2.4-1.6-3.4l-1.3-1.5c-.6-.5-1.3-1.2-2.1-.7-.4.2-.5.7-.3 1 .2.4.7.5 1 .3h-.2l.1.1c-.1 0 0 0 0 0 .1 0 .1.1.2.1.2.2.4.3.6.5.4.4.7.7.9 1.1.3.4.5.9.8 1.3.2.4.4.9.5 1.4.1.4.5.6.9.5.4.1.6-.3.5-.7h0zm-9 3.2a13.41 13.41 0 0 0 0-4c-.1-.6-.2-1.3-.4-1.8-.3-.7-1-1.2-1.7-.8-.8.5-.1 1.8.8 1.3-.2.1-.3.1-.5-.1.1.1.1.1 0 0 0 .1 0 0 .1.1.1.2.1.5.2.7.1.4.2.9.2 1.3.1.9.1 1.9-.1 2.8-.1.4.1.8.5.9.3.2.8 0 .9-.4h0z" class="R"/><path d="M75.8 101.7c.3 1.1-.3 2-1.4 1.9s-1.9-1.6-1.2-2.5 2.4-.5 2.6.6" class="T"/><g class="R"><path d="M75.1 101.9c0 .1.1.2.1.4v-.2.5-.2.2.1c0 .1.1-.2 0-.1 0 .1-.1.1-.1.2-.1.1.1-.1 0 0l-.1.1-.1.1c-.1.1 0 0 .1 0 0 0-.1.1-.2.1s-.2 0 .1 0h-.1-.2.2-.4.2c-.1 0-.2 0-.3-.1h-.1c-.1 0 .2.1.1 0 0 0-.1 0-.1-.1 0 0-.1 0-.1-.1 0 0 .2.1.1.1l-.2-.2s-.1-.1 0 0 0 0 0 0c0-.1-.1-.2-.1-.2 0-.1 0 .1 0 .1v-.1-.1c0-.1 0-.2-.1-.3v.2-.4.2-.2-.1s-.1.2 0 .1c0 0 0-.1.1-.1 0-.1.1-.1 0 .1l.1-.1c.1-.1 0 0-.1 0 0 0 .1 0 .1-.1.1 0 .3-.1 0 0 .1 0 .2-.1.4-.1h-.2.4-.2c.1 0 .3.1.4.1s-.2-.1-.1 0c0 0 .1 0 .1.1.1 0 .2.2 0 0l.1.1s0 .1.1.1c-.2-.2-.1-.1 0 0 0 .1.1.3 0 0 .1-.3.1-.2.1-.1.1.4.6.6.9.5.4-.1.6-.5.5-.9-.2-.8-.9-1.4-1.8-1.6-.4-.1-.8-.1-1.2.1s-.8.5-1.1.9c-.5.9-.2 1.9.4 2.6.3.3.7.6 1.1.7s1 .1 1.4 0c.3-.1.5-.2.7-.5.2-.2.3-.5.5-.7a2.21 2.21 0 0 0 0-1.6c-.1-.4-.5-.7-.9-.5-.3.2-.6.6-.5 1h0zm-16.2 3.9c3.1-2.7 7.3-3.9 10.3-2.9s4.6 4.1 3.8 7.6c-.7 3.5-3.7 7.1-7.3 8.8l-6.8-13.5z"/><path d="M59.4 106.4c3.2-2.8 10.2-5.1 12.5 0 2.2 4.9-2.5 10.3-6.6 12.3.3.1.7.2 1 .3l-5.9-11.8c-.3-.6-.6-1.1-.9-1.7-.4-.9-1.7-.1-1.3.8l5.9 11.8c.3.6.6 1.1.9 1.7.2.4.7.4 1 .3 4.1-2 7.8-6.3 7.9-11 0-2.1-.8-4.2-2.4-5.6-1.6-1.3-3.7-1.7-5.8-1.5-2.7.3-5.3 1.6-7.3 3.4-.8.5.3 1.6 1 1z"/></g><g class="S"><path d="M211.3 242.2c-28.9 0-58.2-.4-86.5-.7h-1.2l-63.5-1.1-18.8-.5c-3.3-.1-6-1.9-8.3-3.5-.4-.2-.7-.5-1.1-.7l-.6-.4c-3.4-2.2-8.6-5.6-9.4-10.5-.1-.2-.1-.4-.1-.7v-.4-1.1h0v-.4c-.1-6.6 0-12 .2-17v-2.4c.1-5.5.1-13.1 7.5-15.7 2.8-1 5.9-1.1 8.7-1.1h2.2 2 1.4l13.2-.2h1.3c6.6 0 13.2.2 19.7.3l10.1.2 43.1.6h4.5l125.3.8h3.4l17.6-.1c.5 0 1.1 0 1.6-.1.7 0 1.5-.1 2.2-.1a12.02 12.02 0 0 1 2.8.3l2.1.6c.3.1.6.2.9.4 4.4 2.2 7.5 7.3 10 11.4l.4.7c1.5 2.5 1.5 4.1 1.6 6.5v.6l.3 10.7v1.5l.2 7.2c0 .5.1 1.1.1 1.8.2 2.5.4 5.6-1.1 7.9-2.1 3.4-6.6 3.5-9.9 3.6-.5 0-1 0-1.5.1-7.6.5-15.3.7-22.5.8-17.8.5-36.8.7-57.9.7z"/><path d="M58.3 187.8c9.9 0 19.8.4 29.7.6l47.6.6 125.3.8h2.9l18.2-.1c1.2 0 2.5-.1 3.8-.1.8 0 1.6 0 2.3.2.7.1 1.3.3 1.8.6.2.1.5.2.7.3 4.2 2.1 7.3 7.5 9.7 11.3 1.3 2.2 1.2 3.4 1.3 6.1l.3 10.7.3 8.6c.1 2.6.8 6.3-.7 8.6-1.8 2.9-6.7 2.5-9.8 2.7-7.5.5-15 .7-22.4.8l-57.9.6c-29.2 0-58.4-.4-87.6-.7l-63.5-1.1-18.7-.5c-3.1-.1-5.8-2.2-8.4-3.9-3.3-2.2-8.5-5.3-9.1-9.6 0-.1-.1-.2-.1-.3v-.2-1.3-.5c-.1-5.6-.1-11.2.2-16.8.2-6-.7-13.8 6.2-16.3 2.4-.8 5.2-1 8-1h4.2 1.5l13.1-.2c.3.1.7.1 1.1.1m0-4H57c-4.4 0-8.9.1-13.2.2h-1.3-2-2.2c-2.9 0-6.3.1-9.4 1.2-8.7 3-8.8 11.8-8.8 17.6v2.3c-.2 5.1-.2 10.5-.2 17v.2.4 1 .6c0 .3.1.6.1.9 1 5.7 6.6 9.4 10.3 11.8l.6.4c.3.2.7.5 1 .7 2.5 1.7 5.5 3.7 9.4 3.9l18.8.5 63.5 1.1h1l86.7.7 58-.6 22.6-.9c.4 0 .9 0 1.4-.1 3.5-.1 8.8-.3 11.5-4.6 1.8-2.9 1.6-6.4 1.4-9.2 0-.6-.1-1.2-.1-1.7l-.2-7.1v-1.5l-.3-10.7v-.6c0-2.5-.1-4.6-1.9-7.5l-.4-.7c-2.5-4.1-5.9-9.6-10.8-12.1-.3-.2-.7-.3-1.1-.5-.8-.3-1.6-.6-2.4-.7-.9-.2-2-.3-3.2-.3-.8 0-1.6 0-2.3.1-.5 0-1 .1-1.5.1l-17.5.1h-.6-2.9c-41.4 0-82.9-.4-125.3-.8h-4.4l-43.1-.6-10-.2-19.9-.4h0z"/></g><path d="M25 224.1c-.2-11.4 6.4-7.5 6.9-21 .2-4.5 3.5-7.4 7.7-7.6 16.4-.8 31.4-.8 49-.2 17 .6 183.2-3.4 200.2-4.1 4.1-.2 11.9 13 11.9 13.3l.7 27.8c0 1.2 0 2.4-.6 3.4-.9 1.4-2.6 1.7-4.1 1.9-37.2 3.5-224.7.7-256.6-.5-.2-.2-15.1-7.9-15.1-13z" fill="#c2e1e3"/><path d="M26 224.1c0-2.7.3-5.3 1.9-7.6 1.2-1.8 2.6-3.3 3.5-5.2.6-1.4 1-2.9 1.2-4.4.3-1.9.1-4.1.8-5.9.6-1.7 1.9-3.1 3.6-3.8 2-.9 4.3-.7 6.5-.8 9.8-.4 19.5-.6 29.3-.4l17.8.4c5.5.1 11 0 16.5-.1l26.6-.4 32.8-.6 35.3-.8 33.8-.8 28.6-.7 19.5-.6c1.7-.1 3.4-.3 5.1-.2 2 .1 3.7 2.4 4.9 3.8 1.8 2.1 3.3 4.3 4.8 6.6.4.6.9 1.3 1.2 2 0 .1.1.2.1.2-.1-.2-.1.1-.1.4 0 1.2 0 2.5.1 3.7l.3 10.3.2 7.8c0 1.6.1 3.2.1 4.7 0 1 .2 2.3-.4 3.3s-1.9 1.2-3 1.3c-6.1.8-12.3.8-18.3 1l-27.2.5-33.5.2c-12.4 0-24.7 0-37.1-.1l-37.9-.3-36.1-.5-31.3-.5-23.9-.5-8.3-.2c-.6 0-1.1 0-1.7-.1H41c-.2 0-.8-.1-.3 0 .2.1-.3-.1-.3-.2-.3-.2-.6-.3-.9-.5-.9-.5-1.8-1-2.7-1.6-2.3-1.4-4.6-2.9-6.6-4.6-1.8-.9-4.1-2.8-4.2-4.8-.1-1.3-2.1-1.3-2 0 .1 2.3 1.9 4.1 3.4 5.6 2.1 1.9 4.5 3.6 6.9 5.1 1.6 1 3.3 2 5 2.9.9.4 2 .3 2.9.3l19 .5 28.3.5 34.7.5 37.9.4 38.6.2h36.2l30.9-.4 22.7-.8 4-.3c2.1-.2 4.7-.2 6.3-1.7 1.4-1.4 1.4-3.4 1.4-5.3 0-1.6 0-3.1-.1-4.7l-.2-8-.3-11c0-1.4.3-3.1-.3-4.3-.3-.7-.8-1.3-1.2-2-1.4-2.3-3-4.5-4.6-6.5-1.5-1.8-3.2-3.9-5.5-4.8-1.7-.6-3.9-.1-5.7-.1l-8.2.3-24.6.7-32.3.8-35.8.8-35.2.7-30.4.5-21.8.2c-9.6 0-19.2-.4-28.8-.5l-14.7.2-7.5.2c-2.3.1-4.7 0-7 .4-3.4.6-6.2 3.1-7 6.5-.5 2-.3 4.1-.7 6.1-.3 1.4-.7 2.8-1.4 4.1-.9 1.7-2.4 3.1-3.4 4.8-1.4 2.4-1.7 5.2-1.7 8 .2 1.4 2.2 1.4 2.2.1z"/><path d="M25 222.1c-.2-11.4 0-11.6.5-25 .2-4.5 3.5-7.4 7.7-7.6 16.4-.8 31.4-.8 49-.2 17 .6 187.2 2.2 204.2 1.4 4.1-.2 7.9 3.2 7.9 7.7l.7 27.8c0 1.2 0 2.4-.6 3.4-.9 1.4-2.6 1.7-4.1 1.9-37.2 3.5-221-2.2-256.6-.5-4.7.2-8.7-3.8-8.7-8.9z" fill="#7dc4ca"/><path d="M26 222.1c-.1-5.8 0-11.5.2-17.3.1-1.9.1-3.8.2-5.7.1-2.1.1-4 1.3-5.8 2.5-3.5 7.1-3 10.9-3.1 15.1-.6 30.2-.3 45.3.1l14.9.3 24.2.3 30.5.3 33.4.3 33 .2 29.7.1h23c4.4 0 8.8 0 13.2-.2 2.7-.1 5.2 1 6.6 3.4 1.1 1.9.9 4 .9 6.1 0 2 .1 4.1.1 6.1l.4 16.2c0 1.6.5 4.1-.4 5.5-.8 1.2-2.5 1.3-3.8 1.4l-3.6.3c-3 .2-6 .3-9 .4-8.1.3-16.3.4-24.4.4h-30.8l-35-.3-36.7-.5-35.7-.5-32.6-.4-26.8-.2-18.9.2c-1.4 0-2.9.3-4.3-.1-3.5-.6-5.7-4-5.8-7.5 0-1.3-2-1.3-2 0 .1 3.4 1.7 6.6 4.6 8.4 2 1.3 4.2 1.4 6.5 1.3l8-.2h23.2l30.4.3 35.1.5 37.4.5 36.7.4 33.7.2 28-.2c6.6-.1 13.2-.3 19.8-.7 1.6-.1 3.4-.1 4.9-.6 4-1.3 3.5-5.3 3.4-8.7l-.5-16.7c-.1-2.1-.1-4.2-.1-6.3 0-2 0-3.8-.9-5.7-1.4-3.1-4.6-5.1-7.9-5.1-1.6 0-3.3.1-4.9.1l-18.2.1c-9 0-18.1 0-27.1-.1-10.8 0-21.5-.1-32.3-.2l-34.3-.3-32.8-.3-28.1-.3-19.8-.3-27.6-.6c-9.4 0-19-.1-28.4.7-3.3.3-6.4 2.1-7.7 5.2-.8 1.7-.8 3.6-.8 5.4-.1 2-.2 4-.2 6-.2 5.6-.2 11.3-.2 16.9.1 1.6 2.1 1.6 2.1.3z"/><text transform="translate(97.359 219.29)" font-family="Pangram-Bold" font-size="24.048">Continuar</text><use xlink:href="#B" class="W"/><path d="M283.6 219.4c-1.4.8-2.2 2.4-1.9 4 .3 1.5 1.6 2.8 3.2 3.1s3.2-.5 4-1.9a3.78 3.78 0 0 0-.5-4.4c-1.2-1.4-3.2-1.7-4.8-.8-.6.3-.1 1.2.5.9 1-.6 2.3-.5 3.2.3s1.3 2.1.9 3.2-1.6 1.7-2.7 1.8a2.93 2.93 0 0 1-2.7-1.9c-.5-1.3.1-2.7 1.3-3.4.6-.4.1-1.3-.5-.9h0z"/><path d="M283.3 220.2l4.4 5" class="W"/><use xlink:href="#C"/><use xlink:href="#B" x="-0.2" y="-24.8" class="W"/><path d="M283.4 194.5c-1.4.8-2.2 2.4-1.9 4 .3 1.5 1.6 2.8 3.2 3.1s3.2-.5 4-1.9a3.78 3.78 0 0 0-.5-4.4c-1.1-1.3-3.2-1.7-4.8-.8-.6.3-.1 1.2.5.9 1-.6 2.3-.5 3.2.3s1.3 2.1.9 3.2-1.6 1.7-2.7 1.8a2.93 2.93 0 0 1-2.7-1.9c-.5-1.3.1-2.7 1.3-3.4.6-.3.1-1.2-.5-.9h0z"/><path d="M283.1 195.4l4.4 5" class="W"/><use xlink:href="#C" x="-0.2" y="-24.8"/><use xlink:href="#B" x="-252.2" class="W"/><path d="M31.4 219.4c-1.4.8-2.2 2.4-1.9 4 .3 1.5 1.6 2.8 3.2 3.1s3.2-.5 4-1.9a3.78 3.78 0 0 0-.5-4.4c-1.2-1.4-3.2-1.8-4.8-.8-.6.3-.1 1.2.5.9 1-.6 2.3-.5 3.2.3s1.3 2.1.9 3.2-1.6 1.7-2.7 1.8a2.93 2.93 0 0 1-2.7-1.9c-.5-1.3.1-2.7 1.3-3.4.6-.4.1-1.3-.5-.9h0z"/><path d="M31.1 220.2l4.4 5" class="W"/><use xlink:href="#C" x="-252.2"/><path d="M33.1 194.2c-1.2.7-1.9 2.1-1.7 3.4s1.4 2.5 2.7 2.7c1.4.3 3-.5 3.6-1.7s.4-2.9-.7-3.9c-1.2-1.2-2.8-1.2-3.9-.5" class="W"/><path d="M32.9 193.8c-1.4.8-2.2 2.4-1.9 4 .3 1.5 1.6 2.8 3.2 3.1s3.2-.5 4-1.9a3.78 3.78 0 0 0-.5-4.4c-1.2-1.4-3.3-1.8-4.8-.8-.6.3-.1 1.2.5.9 1-.6 2.3-.5 3.2.3s1.3 2.1.9 3.2-1.6 1.7-2.7 1.8a2.93 2.93 0 0 1-2.7-1.9c-.5-1.3.1-2.7 1.3-3.4.5-.4 0-1.3-.5-.9h0z"/><path d="M32.5 194.6l4.4 5" class="W"/><path d="M32.2 195l4.4 5c.4.5 1.1-.2.7-.7l-4.4-5a.5.5 0 0 0-.7.7h0z"/><defs ><path id="B" d="M283.9 219.8c-1.2.7-1.9 2.1-1.7 3.4s1.4 2.5 2.7 2.7c1.4.3 3-.5 3.6-1.7.7-1.3.4-2.9-.7-3.9-1.2-1.2-2.8-1.2-3.9-.5"/><path id="C" d="M282.9 220.6l4.4 5c.4.5 1.1-.2.7-.7l-4.4-5c-.4-.5-1.1.2-.7.7h0z"/></defs></svg>