<svg xmlns="http://www.w3.org/2000/svg" xmlns:xlink="http://www.w3.org/1999/xlink" viewBox="0 0 431 190" xmlns:v="https://vecta.io/nano"><style><![CDATA[.M{stroke-linecap:round}.N{stroke-linejoin:round}.O{stroke-miterlimit:10}.P{fill:#f2f2f2}.Q{stroke:#707070}.R{stroke:#656565}.S{fill:#bebebe}]]></style><path d="M406.6 181.5H24.4c-9.6 0-17.4-7.8-17.4-17.4V25.9c0-9.6 7.8-17.4 17.4-17.4h382.2c9.6 0 17.4 7.8 17.4 17.4v138.2c0 9.6-7.8 17.4-17.4 17.4z" fill="#d0d0d0"/><path d="M406.6 180h-20.3-52.2-71.8H183h-74.2-56.7-27c-9.3 0-16.6-6.9-16.7-16.4V146 72.5 25.9c.1-8.8 7.1-15.8 15.9-15.9h1.5 10.4H82h68.2 78.4H305h62.4 35.3c4.1 0 8-.1 11.8 2.1 5.2 3 8 8.4 8 14.3v6.1 65.8 62 3.7c-.1 8.9-7.1 15.9-15.9 16-1.9 0-1.9 3 0 3 9-.1 17.1-6.6 18.6-15.6.3-2 .3-4 .3-6.1v-23.5-76.5-28.2-6.6c0-5.3-1.8-10.4-5.7-14.2C415.3 8 409.7 7 403.7 7H391h-49.5-71.1-80.1-75.8-59.2-29.6-2.4C14.4 7.6 7 14.4 5.7 23.2c-.7 4.9-.2 10.2-.2 15.1v72 53.2c0 10.8 8.3 19.4 19.2 19.5h7.9 42.5H142h79.2 77.9 64.6 38 5c1.8 0 1.8-3-.1-3z"/><path d="M243.1 64.7l14.1 10.9c4.4 3.4 8.7 6.1 14.3 7 7.3 1.2 15.1-.4 21.8-3.3 3.6-1.5 7.2-3.7 9.2-7.2 1.5-2.5-2.4-4.8-3.9-2.3-1.3 2.3-4 3.9-6.6 5.1-3.1 1.5-6.5 2.4-9.9 3-2.7.5-5.5.8-8.3.5-5-.6-9-2.7-12.9-5.7l-14.6-11.3c-1-.7-2.2-.9-3.2 0-.7.9-.9 2.6 0 3.3h0zm-87.3 80.2c1.1 8.1 1.6 16.4 1.4 24.6.6-.7 1.1-1.4 1.7-2.2-2.6.8-5.3 1.4-8 1.6-1.2.1-2.2.9-2.2 2.2 0 1.1 1 2.4 2.2 2.2a48.29 48.29 0 0 0 9.2-1.8c1-.3 1.6-1.2 1.7-2.2a159.55 159.55 0 0 0-1.5-25.8c-.2-1.2-1.7-1.9-2.8-1.6-1.4.6-1.8 1.8-1.7 3h0z" fill="#333"/><path d="M257.8 106.2c1.7 5.4 3 8.3-1.1 9.7L209 132.2c-25.8 8.2-63.6 22-91.3 28-3.2-3.7-5.8-14.4-7.3-19L87 71.2c-1.6-4.8 1.3-10 6.4-11.6l118.8-38.1c4.9-1.6 10.1-3.2 15-2.3 1.1.2 2.3.6 3 1.3.8.8 1.1 2 1.4 3.2 8.6 28.6 17.6 54.9 26.2 82.5z" class="P"/><path d="M256.4 106.6c.6 1.9 1.6 4.1 1.5 6-.1 1.5-1.6 1.8-2.8 2.3l-13.7 4.8-32.4 10.9-58.8 19.2c-10.9 3.3-21.9 6.5-33 8.9.5.1 1 .3 1.5.4-1.8-2.2-2.8-5.2-3.7-7.9-1-3-1.9-6.1-2.8-9.1-2.8-9-6-17.9-9-26.9l-9.5-28.4L89 72.6c-.6-1.8-1.2-3.4-.9-5.3.3-1.6 1-3.1 2.2-4.2 1.4-1.4 3.1-2 4.9-2.6 1.7-.6 3.5-1.1 5.2-1.7l19.6-6.3 26.8-8.6 28-9 23.6-7.6 13.2-4.2c3-1 6.1-2 9.3-2.5 2.2-.4 4.6-.5 6.8.1.9.2 1.6.6 2.1 1.4.5 1 .7 2.2 1 3.3l4.3 14 17.4 54.1c1.1 4.3 2.5 8.7 3.9 13.1.6 1.8 3.5 1.1 2.9-.8l-17.7-55.3-8.7-28.1c-.6-2-1.6-3.5-3.6-4.3s-4.3-.9-6.4-.7c-3.8.2-7.5 1.4-11.1 2.5l-9.3 3-21.8 7-28.1 9-28.1 9-21.9 7-9.5 3c-2.6.9-4.9 2.5-6.4 4.9-.9 1.5-1.4 3.2-1.6 4.9-.1 2 .5 3.7 1.1 5.6l9.7 29.1 9.7 29.1c1.4 4.1 2.8 8.1 4 12.2 1 3.2 1.9 6.4 3 9.5 1 2.8 2.1 5.6 4 7.9.4.4 1 .5 1.5.4 21.1-4.5 41.6-11.5 62-18.3l62.1-20.7c5.1-1.8 10.4-3.4 15.4-5.4 5-2.1 2.8-7.4 1.6-11.3-.5-1.9-3.4-1.1-2.8.8z" fill="#333"/><path d="M119.9 145.7c16.9-4.5 33.5-9.9 50-15.5l50.1-16.7c9.5-2.9 19-5.7 28.6-8.1.9-.2.5-1.7-.4-1.4-17.1 4.3-33.8 9.6-50.5 15.2L147.8 136c-9.4 3-18.8 5.8-28.3 8.4-.9.1-.5 1.6.4 1.3h0z" fill="#656565"/><path d="M123.6 155.5c16.9-4.5 33.5-9.8 50.1-15.3l49.9-16.7 28.3-8.7c.9-.3.5-1.7-.4-1.4-16.8 4.8-33.4 10.3-50 15.9l-49.9 16.5c-9.4 2.9-18.9 5.7-28.4 8.3-.9.2-.5 1.7.4 1.4h0z" fill="#707070"/><path d="M94.6 65.3c16.8-4.5 33.3-9.9 49.7-15.5l49.6-16.5c9.4-2.9 19-5.7 28.5-8.1.9-.2.5-1.7-.4-1.4-17 4.3-33.7 9.6-50.2 15.1l-49.5 16.6c-9.3 3-18.7 5.8-28.2 8.3-.8.3-.4 1.8.5 1.5h0z" fill="#656565"/><path d="M97.4 75.4c16.9-4.5 33.5-9.8 50.1-15.3l49.9-16.7 28.7-8.9c.9-.3.5-1.7-.4-1.4-17 4.9-33.8 10.5-50.5 16.1l-49.8 16.5C116 68.6 106.5 71.4 97 74c-1 .2-.6 1.7.4 1.4h0z" fill="#707070"/><g fill="none" class="M N O"><g class="Q"><path d="M94 77.1l-.9-2.9"/><path d="M92.2 76.1l2.7-.9"/></g><path d="M92.1 67.7l-.9-2.9" class="R"/><g class="Q"><path d="M229.6 34c-.3-.8-.6-1.7-.8-2.6"/><path d="M228 33.2c.8-.2 1.6-.5 2.4-.8"/></g><path d="M226.6 25.4l-.8-2.4" class="R"/><g class="Q"><path d="M255.3 113.7c-.3-.8-.6-1.7-.8-2.6"/><path d="M253.8 112.8c.8-.2 1.6-.5 2.4-.8"/></g><path d="M252.3 105.1l-.8-2.4" class="R"/><g class="Q"><path d="M119.5 156.2c-.3-.8-.6-1.7-.8-2.6"/><path d="M118 155.4c.8-.2 1.6-.5 2.4-.8"/></g><path d="M117.2 147.5l-.8-2.4" class="R"/></g><g fill="#333"><path d="M100.6 111.3c18.8-5.6 37.6-11.7 56.3-17.8l56-18.2 32.1-9.8c.9-.3.5-1.7-.4-1.4-19 5.6-37.9 11.6-56.7 17.7L132 100l-31.8 9.8c-.9.3-.5 1.8.4 1.5h0zm2 4.2c18.6-5.6 37.1-11.5 55.6-17.6l55-18c10.6-3.4 21.2-6.6 31.9-9.7.9-.3.5-1.7-.4-1.4-18.8 5.5-37.4 11.5-56.1 17.6l-54.9 18-31.5 9.8c-1 .2-.6 1.6.4 1.3h0z"/><use xlink:href="#B"/><use xlink:href="#B" x="1.3" y="4.1"/><use xlink:href="#C"/><use xlink:href="#C" x="1.3" y="4.1"/><use xlink:href="#D"/><use xlink:href="#B" x="10.3" y="1.3"/><use xlink:href="#B" x="13.5" y="-4.2"/><use xlink:href="#B" x="14.8" y="-0.1"/><use xlink:href="#C" x="12.8" y="-4.1"/><use xlink:href="#C" x="14.1"/><use xlink:href="#E"/><use xlink:href="#B" x="23.1" y="-2.8"/><use xlink:href="#F"/><use xlink:href="#C" x="26.5" y="-4.1"/><use xlink:href="#D" x="25.7" y="-8.2"/><use xlink:href="#B" x="36" y="-6.9"/><use xlink:href="#C" x="34.2" y="-10.9"/><use xlink:href="#G"/><use xlink:href="#F" x="13.5" y="-4.2"/><use xlink:href="#C" x="40" y="-8.3"/><use xlink:href="#G" x="7.3" y="-6.8"/><use xlink:href="#H"/><use xlink:href="#G" x="15.1" y="-9.3"/><use xlink:href="#C" x="51.9" y="-12.1"/><use xlink:href="#D" x="51.1" y="-16.2"/><use xlink:href="#B" x="61.4" y="-14.9"/><use xlink:href="#C" x="59.6" y="-18.9"/><use xlink:href="#G" x="25.4" y="-8"/><use xlink:href="#G" x="28.6" y="-13.5"/><use xlink:href="#C" x="65.4" y="-16.3"/><use xlink:href="#I"/><use xlink:href="#H" x="25.4" y="-8"/><use xlink:href="#C" x="75.6" y="-24.4"/><use xlink:href="#G" x="41.4" y="-13.5"/><use xlink:href="#D" x="76.1" y="-24.5"/><use xlink:href="#B" x="86.4" y="-23.2"/><use xlink:href="#H" x="40.5" y="-17.6"/><use xlink:href="#J"/><use xlink:href="#E" x="72" y="-23.2"/><use xlink:href="#B" x="95.1" y="-26"/><use xlink:href="#E" x="76.1" y="-24.5"/><use xlink:href="#B" x="99.2" y="-27.3"/><use xlink:href="#B" x="106" y="-34"/><use xlink:href="#D" x="98.3" y="-27.2"/><use xlink:href="#H" x="61.9" y="-24.4"/><use xlink:href="#I" x="39.1" y="-8.3"/><use xlink:href="#C" x="110.2" y="-35.4"/><use xlink:href="#C" x="111.5" y="-31.3"/><use xlink:href="#C" x="114.7" y="-36.8"/><use xlink:href="#G" x="80.5" y="-25.9"/><use xlink:href="#C" x="118.8" y="-38.1"/><use xlink:href="#G" x="84.6" y="-27.2"/><path d="M122.2 146.2c-.2.4-.3.7-.2 1.1.1.3.4.6.8.6s.7-.1 1-.4c.2-.2.4-.6.3-.9s-.3-.7-.6-.7c-.3-.1-1 0-1.3.3z"/><use xlink:href="#K"/><use xlink:href="#L"/><use xlink:href="#L" x="1.2" y="4.1"/><use xlink:href="#M"/><use xlink:href="#M" x="1.2" y="4.1"/><use xlink:href="#N"/><use xlink:href="#L" x="10" y="1.5"/><use xlink:href="#K" x="16.5" y="-9.2"/><path d="M141.1 145.2c-.2.4-.3.7-.2 1.1.1.3.4.6.8.6s.7-.1 1-.4c.2-.2.4-.6.3-.9s-.3-.7-.6-.7c-.4-.1-1 0-1.3.3zm3.1-5.4c-.2.4-.3.7-.2 1.1.1.3.4.6.8.6s.7-.1 1-.4c.2-.2.4-.6.3-.9 0-.3-.3-.7-.6-.7-.4 0-1 .1-1.3.3z"/><use xlink:href="#M" x="14.1" y="0.3"/><use xlink:href="#M" x="20.7" y="-6.5"/><use xlink:href="#N" x="17.4" y="-1.1"/><use xlink:href="#K" x="33.3" y="-14.5"/><path d="M157.9 139.9c-.2.4-.3.7-.2 1.1.1.3.4.6.8.6s.7-.1 1-.4c.2-.2.4-.6.3-.9 0-.3-.3-.7-.6-.7-.3-.1-.9 0-1.3.3z"/><use xlink:href="#L" x="34" y="-10.4"/><use xlink:href="#K" x="38.8" y="-11.7"/><use xlink:href="#N" x="29.7" y="-9.2"/><path d="M166.7 137.2c-.2.4-.3.7-.2 1.1.1.3.4.6.8.6s.7-.1 1-.4c.2-.2.4-.6.3-.9 0-.3-.3-.7-.6-.7s-1 0-1.3.3z"/><use xlink:href="#L" x="42.6" y="-13"/><use xlink:href="#K" x="47.4" y="-14.3"/><use xlink:href="#O"/><use xlink:href="#P"/><use xlink:href="#Q"/><use xlink:href="#R"/><use xlink:href="#P" x="7.6" y="-6.9"/><path d="M187.9 130c-.2.4-.3.7-.2 1.1.1.3.4.6.8.6s.7-.1 1-.4c.2-.3.4-.6.3-.9s-.3-.6-.7-.7c-.2 0-.8 0-1.2.3z"/><use xlink:href="#Q" x="8.7" y="-2.9"/><use xlink:href="#P" x="13.4" y="-4.3"/><use xlink:href="#Q" x="12.8" y="-4.2"/><use xlink:href="#P" x="17.5" y="-5.7"/><use xlink:href="#R" x="19.9" y="-11"/><use xlink:href="#S"/><use xlink:href="#S" x="3.4" y="-5.5"/><use xlink:href="#Q" x="27.3" y="-4.4"/><use xlink:href="#Q" x="30.2" y="-9.8"/><use xlink:href="#R" x="30.2" y="-9.8"/><use xlink:href="#S" x="12.1" y="-8.4"/><use xlink:href="#O" x="40.7" y="-8.7"/><use xlink:href="#P" x="42.1" y="-18.1"/><use xlink:href="#Q" x="40.1" y="-8.6"/><use xlink:href="#T"/><use xlink:href="#U"/><use xlink:href="#T" x="4.8" y="-1.2"/><use xlink:href="#U" x="4.8" y="-1.2"/><use xlink:href="#T" x="9.1" y="-2.4"/><use xlink:href="#T" x="10.2" y="1.7"/><path d="M242.8 108.4c-.2.4-.4.7-.2 1.1.1.3.4.6.8.7.4 0 .7-.1 1-.4.2-.2.4-.6.4-.9s-.3-.7-.6-.7c-.4-.1-1.1 0-1.4.2zm1.2 4.1c-.2.4-.4.7-.2 1.1.1.3.4.6.8.7.4 0 .7-.1 1-.4.2-.2.4-.6.4-.9s-.3-.7-.6-.7c-.5-.1-1.1 0-1.4.2zm3-5.2c-.2.4-.4.7-.2 1.1.1.3.4.6.8.7.4 0 .7-.1 1-.4.2-.2.4-.6.4-.9s-.3-.7-.6-.7c-.5-.1-1.1-.1-1.4.2z"/><use xlink:href="#T" x="18.9" y="-0.7"/><use xlink:href="#B" x="7" y="17.8"/><use xlink:href="#D" x="-0.7" y="24.6"/><use xlink:href="#H" x="-37.1" y="27.4"/><use xlink:href="#I" x="-59.9" y="43.5"/><use xlink:href="#C" x="11.2" y="16.4"/><use xlink:href="#C" x="12.5" y="20.5"/><use xlink:href="#C" x="15.7" y="15"/><use xlink:href="#G" x="-18.5" y="25.9"/><use xlink:href="#C" x="19.8" y="13.7"/><use xlink:href="#G" x="-14.4" y="24.6"/><use xlink:href="#B" x="28.8" y="10.9"/><use xlink:href="#B" x="30.1" y="15"/><use xlink:href="#H" x="-39" y="37.7"/><use xlink:href="#I" x="-61.8" y="53.8"/><use xlink:href="#G" x="-25.7" y="33.5"/><use xlink:href="#C" x="11.1" y="30.7"/><use xlink:href="#B" x="18.8" y="23.9"/><use xlink:href="#E" x="-1.7" y="34.8"/><use xlink:href="#E" x="1.5" y="29.3"/><use xlink:href="#B" x="24.6" y="26.5"/><use xlink:href="#E" x="5.6" y="28"/><use xlink:href="#B" x="28.7" y="25.2"/><use xlink:href="#H" x="-17.2" y="30.8"/><use xlink:href="#H" x="-15.9" y="34.9"/><use xlink:href="#J" x="-78" y="60"/><use xlink:href="#G" x="-22.9" y="42.3"/><use xlink:href="#B" x="21.6" y="32.7"/><use xlink:href="#D" x="17.1" y="34"/><use xlink:href="#D" x="21.2" y="32.7"/><use xlink:href="#H" x="-14.4" y="39.6"/><use xlink:href="#V"/><use xlink:href="#W"/><path d="M134.1 74.2c-.2.4-.3.7-.2 1.1.1.3.4.6.8.6s.7-.1.9-.4.4-.6.3-.9-.3-.7-.6-.7-.9.1-1.2.3z"/><use xlink:href="#X"/><use xlink:href="#V" x="8.8" y="-2.7"/><use xlink:href="#W" x="8.8" y="-2.7"/><use xlink:href="#V" x="13.2" y="-4.1"/><use xlink:href="#W" x="13.2" y="-4.1"/><use xlink:href="#X" x="11.3" y="-8.1"/><use xlink:href="#Y"/><use xlink:href="#Z"/><use xlink:href="#Y" x="4.1" y="-1.3"/><use xlink:href="#X" x="-3.1" y="6.2"/><use xlink:href="#Y" x="-14.4" y="14.3"/><use xlink:href="#Z" x="-13.9" y="14.2"/><use xlink:href="#a"/><use xlink:href="#Y" x="-6.9" y="7.5"/><use xlink:href="#Y" x="-5.6" y="11.6"/><use xlink:href="#Y" x="-2.5" y="6.1"/><use xlink:href="#Y" x="-1.2" y="10.2"/><use xlink:href="#X" x="14.1" y="0.8"/><use xlink:href="#Y" x="2.8" y="8.9"/><use xlink:href="#W" x="22.9" y="-1.9"/><use xlink:href="#a" x="16.7" y="-5.3"/><use xlink:href="#Y" x="-12.9" y="19"/><use xlink:href="#Z" x="-11.1" y="23"/><use xlink:href="#Y" x="-4.1" y="16.3"/><use xlink:href="#Y" x="0.3" y="14.9"/><use xlink:href="#X" x="16.9" y="9.6"/><use xlink:href="#W" x="25.7" y="6.9"/><use xlink:href="#Z" x="4.1" y="-1.4"/><use xlink:href="#a" x="18" y="-15.6"/><use xlink:href="#a" x="21.4" y="-21.1"/><use xlink:href="#a" x="22.7" y="-17"/><use xlink:href="#a" x="25.6" y="-22.4"/><use xlink:href="#Z" x="14.3" y="-0.1"/><use xlink:href="#W" x="37.5" y="-16.3"/><use xlink:href="#V" x="40.1" y="-8.2"/><use xlink:href="#Y" x="24.3" y="-12.2"/><use xlink:href="#X" x="38.2" y="-12.2"/><use xlink:href="#X" x="41.1" y="-17.6"/><use xlink:href="#Y" x="29.8" y="-9.5"/><use xlink:href="#Y" x="9.8" y="2.1"/><use xlink:href="#Y" x="11.1" y="6.2"/><use xlink:href="#W" x="31.7" y="-4.7"/><use xlink:href="#W" x="33" y="-0.6"/><use xlink:href="#W" x="35.9" y="-6"/><use xlink:href="#Z" x="17.1" y="8.8"/><use xlink:href="#X" x="35.7" y="-6.1"/><use xlink:href="#Y" x="24.4" y="2"/><use xlink:href="#b"/><use xlink:href="#a" x="38.2" y="-12.2"/><use xlink:href="#a" x="41.1" y="-17.6"/><use xlink:href="#a" x="42.4" y="-13.5"/><use xlink:href="#Y" x="12.6" y="10.9"/><use xlink:href="#W" x="34.5" y="4.1"/><use xlink:href="#V" x="40" y="6.8"/><use xlink:href="#X" x="38.5" y="2.7"/><use xlink:href="#Z" x="27.1" y="10.8"/><use xlink:href="#a" x="43.9" y="-8.8"/><use xlink:href="#c"/><use xlink:href="#d"/><use xlink:href="#d" x="3.3" y="-5.4"/><use xlink:href="#c" x="5.9" y="2.7"/><use xlink:href="#e"/><use xlink:href="#c" x="10" y="1.4"/><use xlink:href="#f"/><use xlink:href="#g"/><use xlink:href="#h"/><use xlink:href="#d" x="17" y="-5.3"/><use xlink:href="#f" x="8.1" y="-2.6"/><use xlink:href="#i"/><use xlink:href="#g" x="-11.5" y="8.9"/><use xlink:href="#f" x="-8.9" y="17"/><use xlink:href="#i" x="-15" y="10.1"/><use xlink:href="#f" x="-4.3" y="15.6"/><use xlink:href="#g" x="-2.8" y="6.2"/><use xlink:href="#f" x="-0.2" y="14.3"/><use xlink:href="#i" x="-6.6" y="7.4"/><use xlink:href="#g" x="2.8" y="8.9"/><use xlink:href="#f" x="6.8" y="7.6"/><use xlink:href="#i" x="-1.3" y="10.2"/><use xlink:href="#f" x="10.9" y="6.3"/><use xlink:href="#g" x="10.9" y="6.3"/><use xlink:href="#f" x="-7.4" y="21.7"/><use xlink:href="#g" x="-4.1" y="16.3"/><use xlink:href="#g" y="15"/><use xlink:href="#c" x="18.7" y="13.6"/><use xlink:href="#f" x="9.6" y="16.4"/><use xlink:href="#f" x="13.7" y="15.1"/><use xlink:href="#D" x="100.5" y="-12.3"/><use xlink:href="#B" x="110.8" y="-11"/><use xlink:href="#G" x="74" y="-8.2"/><use xlink:href="#C" x="110.8" y="-11"/><use xlink:href="#B" x="118.5" y="-17.8"/><use xlink:href="#D" x="110.8" y="-11"/><use xlink:href="#D" x="114" y="-16.5"/><use xlink:href="#B" x="124.3" y="-15.2"/><use xlink:href="#G" x="86.8" y="-12.3"/><use xlink:href="#C" x="123.6" y="-15.1"/><use xlink:href="#B" x="131.3" y="-21.9"/><use xlink:href="#D" x="123.6" y="-15.1"/><use xlink:href="#G" x="72.1" y="2.1"/><use xlink:href="#C" x="108.9" y="-0.7"/><use xlink:href="#B" x="117.1" y="-7.6"/><use xlink:href="#B" x="118.4" y="-3.5"/><use xlink:href="#I" x="48.4" y="14.1"/><use xlink:href="#H" x="73.8" y="6.1"/><use xlink:href="#B" x="125.8" y="-10.4"/><use xlink:href="#B" x="127.1" y="-6.3"/><use xlink:href="#B" x="129.9" y="-11.7"/><use xlink:href="#B" x="131.2" y="-7.6"/><use xlink:href="#F" x="104.2" y="-3.5"/><use xlink:href="#C" x="130.7" y="-7.6"/><use xlink:href="#C" x="110.4" y="4"/><use xlink:href="#B" x="119.9" y="1.2"/><use xlink:href="#I" x="51.2" y="22.9"/><use xlink:href="#H" x="79.8" y="9.4"/><use xlink:href="#B" x="132.7" y="-2.9"/><use xlink:href="#G" x="96.7" y="4"/><use xlink:href="#B" x="17.3" y="49"/><use xlink:href="#B" x="18.6" y="53.1"/><use xlink:href="#H" x="-26.8" y="58.6"/><use xlink:href="#J" x="-67.3" y="76.2"/><use xlink:href="#F" x="-3.7" y="55.8"/><use xlink:href="#C" x="22.8" y="51.7"/><use xlink:href="#D" x="21.7" y="47.6"/><use xlink:href="#B" x="32" y="48.9"/><use xlink:href="#D" x="25.8" y="46.3"/><use xlink:href="#C" x="31.3" y="49"/><use xlink:href="#B" x="39" y="42.2"/><use xlink:href="#D" x="31.3" y="49"/><use xlink:href="#C" x="15.4" y="59.3"/><use xlink:href="#F" x="-8.5" y="71.5"/><use xlink:href="#C" x="20.1" y="57.9"/><use xlink:href="#G" x="-14.1" y="68.8"/><use xlink:href="#D" x="20.1" y="57.9"/><use xlink:href="#C" x="25.6" y="60.6"/><use xlink:href="#C" x="28.8" y="55.1"/><use xlink:href="#C" x="30.1" y="59.2"/><use xlink:href="#B" x="37.6" y="52.4"/><use xlink:href="#B" x="38.9" y="56.5"/><use xlink:href="#H" x="-7" y="62.1"/><use xlink:href="#I" x="-29.8" y="78.2"/><use xlink:href="#C" x="18.2" y="68.1"/><use xlink:href="#C" x="22.9" y="66.7"/><use xlink:href="#D" x="22.9" y="66.7"/><use xlink:href="#C" x="31.6" y="63.9"/><use xlink:href="#B" x="40.4" y="61.2"/><use xlink:href="#J" x="-46" y="84.4"/><use xlink:href="#c" x="-41" y="47.6"/><use xlink:href="#d" x="-41" y="47.6"/><use xlink:href="#j"/><use xlink:href="#d" x="-36.4" y="46.2"/><use xlink:href="#g" x="-46.6" y="44.9"/><use xlink:href="#f" x="-44" y="53"/><use xlink:href="#j" x="8.5" y="-2.7"/><use xlink:href="#h" x="-43.6" y="52.9"/><use xlink:href="#e" x="-32.6" y="44.9"/><use xlink:href="#c" x="-22.6" y="46.3"/><use xlink:href="#g" x="-34.1" y="40.9"/><use xlink:href="#f" x="-31.5" y="49"/><use xlink:href="#f" x="-51.2" y="60.5"/><use xlink:href="#f" x="-49.9" y="64.6"/><use xlink:href="#g" x="-47.9" y="55.1"/><use xlink:href="#f" x="-45.3" y="63.2"/><use xlink:href="#f" x="-42.5" y="57.8"/><use xlink:href="#f" x="-41.2" y="61.9"/><use xlink:href="#f" x="-38.1" y="56.4"/><use xlink:href="#f" x="-36.8" y="60.5"/><use xlink:href="#g" x="-35.4" y="51.1"/><use xlink:href="#f" x="-32.8" y="59.2"/><use xlink:href="#g" x="-31.3" y="49.8"/><use xlink:href="#f" x="-28.7" y="57.9"/><use xlink:href="#f" x="-48.4" y="69.3"/><use xlink:href="#f" x="-43.8" y="67.9"/><use xlink:href="#f" x="-39.7" y="66.6"/><use xlink:href="#f" x="-35.3" y="65.2"/><use xlink:href="#g" x="-32.6" y="59.9"/><use xlink:href="#f" x="-27.2" y="62.6"/><use xlink:href="#X" x="29.6" y="20.5"/><use xlink:href="#W" x="35.5" y="23.2"/><use xlink:href="#Z" x="18.8" y="28.5"/><use xlink:href="#a" x="32.7" y="14.3"/><use xlink:href="#X" x="38.4" y="17.8"/><use xlink:href="#Y" x="27.1" y="25.9"/><use xlink:href="#Y" x="30.2" y="20.4"/><use xlink:href="#Y" x="31.5" y="24.5"/><use xlink:href="#Z" x="31.4" y="24.5"/><use xlink:href="#a" x="45.3" y="10.3"/><use xlink:href="#Y" x="38.4" y="17.8"/><path d="M187.7 96.1c-.2.4-.3.7-.2 1.1.1.3.4.6.8.6s.7-.1.9-.4.4-.6.3-.9-.3-.7-.6-.7-.9.1-1.2.3z"/><use xlink:href="#X" x="32.4" y="29.4"/><use xlink:href="#Y" x="21.1" y="37.5"/><use xlink:href="#X" x="37.1" y="28"/><use xlink:href="#W" x="43" y="30.7"/><use xlink:href="#a" x="38.4" y="17.8"/><use xlink:href="#b" x="2.8" y="38.1"/><use xlink:href="#a" x="42.8" y="16.4"/><use xlink:href="#b" x="7.2" y="36.7"/><use xlink:href="#Y" x="37.1" y="28"/><use xlink:href="#Y" x="38.4" y="32.1"/><use xlink:href="#a" x="51" y="13.8"/><use xlink:href="#Z" x="39.7" y="36.1"/><use xlink:href="#Y" x="22.6" y="42.2"/><use xlink:href="#X" x="39.9" y="36.8"/><use xlink:href="#a" x="41.2" y="26.6"/><use xlink:href="#W" x="53.1" y="32.7"/><use xlink:href="#Y" x="39.9" y="36.8"/><use xlink:href="#a" x="53.8" y="22.6"/><use xlink:href="#f" x="-3.2" y="35.4"/><use xlink:href="#f" x="-1.9" y="39.5"/><use xlink:href="#g" x="0.1" y="30"/><use xlink:href="#f" x="2.7" y="38.1"/><use xlink:href="#g" x="4.2" y="28.7"/><use xlink:href="#f" x="6.8" y="36.8"/><use xlink:href="#f" x="9.8" y="31.4"/><use xlink:href="#g" x="9.8" y="31.4"/><use xlink:href="#d" x="25.5" y="22"/><use xlink:href="#d" x="26.8" y="26.1"/><use xlink:href="#f" x="17.8" y="28.8"/><use xlink:href="#f" x="19.1" y="32.9"/><use xlink:href="#f" x="-0.3" y="44.3"/><use xlink:href="#i" x="-8.4" y="46.9"/><use xlink:href="#g" x="2.9" y="38.9"/><use xlink:href="#f" x="5.5" y="47"/><use xlink:href="#g" x="7" y="37.6"/><use xlink:href="#f" x="9.6" y="45.7"/><use xlink:href="#c" x="25.7" y="36.2"/><use xlink:href="#f" x="13.9" y="44.3"/><use xlink:href="#f" x="16.6" y="39"/><use xlink:href="#i" x="8.5" y="41.6"/><use xlink:href="#f" x="20.7" y="37.7"/><use xlink:href="#j" x="71.4" y="-8.5"/><use xlink:href="#f" x="2.5" y="53.1"/><use xlink:href="#g" x="5.7" y="47.7"/><use xlink:href="#g" x="9.8" y="46.4"/><use xlink:href="#c" x="28.5" y="45"/><use xlink:href="#f" x="19.4" y="47.8"/><use xlink:href="#f" x="23.5" y="46.5"/><use xlink:href="#F" x="89.3" y="25.9"/><use xlink:href="#C" x="115.8" y="21.8"/><use xlink:href="#G" x="83.7" y="23.2"/><use xlink:href="#C" x="120.5" y="20.4"/><use xlink:href="#B" x="128.2" y="13.6"/><use xlink:href="#C" x="124.7" y="19.1"/><use xlink:href="#C" x="127.9" y="13.6"/><use xlink:href="#G" x="93.7" y="24.5"/><use xlink:href="#B" x="136.7" y="10.9"/><use xlink:href="#D" x="129" y="17.7"/><use xlink:href="#I" x="68" y="32.6"/><use xlink:href="#H" x="93.4" y="24.6"/><use xlink:href="#D" x="113.1" y="28"/><use xlink:href="#B" x="123.4" y="29.3"/><use xlink:href="#D" x="117.8" y="26.6"/><use xlink:href="#B" x="128.1" y="27.9"/><use xlink:href="#B" x="131" y="22.5"/><use xlink:href="#D" x="123.3" y="29.3"/><use xlink:href="#F" x="105.5" y="30.6"/><use xlink:href="#C" x="132" y="26.5"/><use xlink:href="#F" x="109.6" y="29.3"/><use xlink:href="#G" x="100.6" y="32.1"/><use xlink:href="#C" x="139" y="19.8"/><use xlink:href="#C" x="140.3" y="23.9"/><use xlink:href="#D" x="115.9" y="36.8"/><use xlink:href="#B" x="129.6" y="32.6"/><use xlink:href="#B" x="133.8" y="31.3"/><use xlink:href="#D" x="129.3" y="32.6"/><use xlink:href="#G" x="102.1" y="36.8"/><use xlink:href="#C" x="141.8" y="28.6"/></g><g fill="none" stroke="#333" stroke-width=".75" class="M N O"><path d="M116.7 136.1l-3.2-.3c.3-.4.6-.6 1-.9.6-.5.7-.8 1.4-1.2"/><path d="M115.8 135.7l-.6-1.5m-.1-3.2l-2.8.9m-.1-.2c-.2-.2-.3-.6-.2-.8.1-.3.4-.4.7-.3s.5.3.7.5c-.2-.4-.2-1 .2-1.2.3-.2.8-.1 1.1.2.1.1.1.2.2.3s.1.2.2.4M111 126c-.2-.1-.4.1-.5.3-.1.4.3.9.6 1.1.4.2.8.1 1.2 0 .2-.1.5-.1.7-.2s.4-.3.5-.5v-.3c0-.5-.4-.9-1-1m-2.9-2.2c.8-.3 1.7-.5 2.6-.7m-2.7.7c-.2-.5-.2-1.2.1-1.6s.8-.7 1.3-.5c.5.1 1 .6 1.1 1.1 0 .1.1.2.2.3m-1.4-4.7l-2.9.7a3.08 3.08 0 0 1-.3-1.3"/><path d="M110.9 117.8c-.2-.5-.3-1-.5-1.4m-1.3 1.5c-.1-.3-.1-.6-.2-.8m-5.9-13.4c.1.4.3.9.4 1.3l2.9-.7m-1.6.2l-.3-.9m-2.4-4.1c-.2.1-.2.3-.2.5 0 .4.3.7.7.9.3.1.7.1 1 0s.5-.2.7-.4c.3-.3.5-.6.4-1 0-.4-.3-.7-.7-.9-.2-.1-.5-.1-.7 0-.1 0-.2.1-.3.2s0 .3 0 .5c.1.2.2.4.3.5v-.1m-1.4-9.6l-2.9.7M97.3 86c.8-.3 1.6-.5 2.5-.6h.3c.2.1.4.4.4.7s-.2.5-.4.6-.5 0-.7-.1m3.7 7.3l-3 .8m2.1 1.4c-.2-.6-.4-1.2-.5-1.8m1.9 1.4c-.9.3-1.9.6-2.9.8"/><use xlink:href="#k"/><path d="M103.4 78.8l-.3-1"/><use xlink:href="#l"/><use xlink:href="#k" x="39.9" y="-11.1"/><path d="M143.3 67.7l-.3-1m-.4-1.1c.1.2 0 .3-.1.5-.1.1-.3.3-.5.3-.3.1-.7.2-1.1.1-.2-.1-.4-.3-.5-.5 0-.2 0-.5.2-.6.2-.3.6-.4 1-.5.2 0 .4 0 .6.1.1.1.3.3.4.6"/><use xlink:href="#k" x="60.8" y="-17.4"/><path d="M164.2 61.4l-.3-1"/><use xlink:href="#m"/><use xlink:href="#n"/><use xlink:href="#o"/><use xlink:href="#p"/><use xlink:href="#m" x="42.5" y="-13.5"/><use xlink:href="#q"/><path d="M227.8 38.8c.1.1 0 .3-.1.5-.1.1-.3.3-.6.3-.4.2-.8.3-1.1.2s-.4-.2-.5-.5c0-.2 0-.5.2-.6.3-.3.7-.4 1.1-.5.2 0 .4 0 .6.1.2 0 .3.2.4.5"/><use xlink:href="#k" x="19" y="59.5"/><path d="M122.4 138.3l-.3-1"/><use xlink:href="#l" x="19" y="59.6"/><use xlink:href="#k" x="58.9" y="48.4"/><path d="M162.3 127.2l-.3-1"/><use xlink:href="#o" x="-23.1" y="72.9"/><use xlink:href="#k" x="79.8" y="42.2"/><path d="M183.2 121l-.3-1"/><use xlink:href="#m" x="19" y="59.5"/><use xlink:href="#n" x="19" y="59.5"/><path d="M203.7 111.7c.1.2 0 .3-.1.5a.55.55 0 0 1-.5.3c-.3.1-.7.2-1.1.1-.2-.1-.4-.3-.5-.5 0-.2 0-.5.2-.6.2-.3.6-.4 1-.5.2 0 .4 0 .6.1.2.2.3.3.4.6"/><use xlink:href="#p" x="19" y="59.5"/><use xlink:href="#m" x="61.5" y="46"/><use xlink:href="#q" x="19" y="59.5"/><path d="M246.8 98.3c.1.1 0 .3-.1.5-.1.1-.3.3-.6.3-.4.2-.8.3-1.1.2s-.4-.2-.5-.5c0-.2 0-.5.2-.6.3-.3.7-.4 1.1-.5.2 0 .4 0 .6.1s.3.2.4.5m3.8-4.9c-1.2-.3-1.5-.3-2.7-.5.2-.3.5-.6.8-.9.5-.4.6-.7 1.1-1.2"/><path d="M249.9 92.9l-.6-1.5m-.2-3.1c-.8.2-1.5.5-2.3.7m-.1-.1c-.2-.2-.3-.6-.2-.8.1-.3.3-.4.6-.3.2.1.5.3.6.6-.2-.4-.2-1 .1-1.2s.7-.1.9.3c.1.1.1.2.1.3.1.1.1.2.2.4m-3.7-5c-.2-.1-.4.1-.4.3 0 .4.3.9.6 1.1s.7.1 1 0c.2-.1.4-.1.6-.2.1-.1.3-.3.4-.5v-.3c-.1-.5-.4-.9-.9-1m-2.6-2.3c.7-.2 1.4-.4 2.2-.5m-2.2.5c-.2-.5-.2-1.2 0-1.6s.7-.6 1.1-.5.8.6 1 1.1c0 .1.1.2.2.3m-1.5-4.5c-.8.1-1.6.3-2.4.5-.1-.4-.3-.9-.3-1.3"/><path d="M244.8 75.1c-.2-.5-.3-1-.5-1.4m-.9 1.4c-.1-.3-.2-.6-.2-.8m-5.7-13.5c.1.4.3.9.4 1.3.8-.1 1.6-.3 2.4-.6"/><path d="M239 61.7l-.3-.9m-2.2-4.2c-.1.1-.2.3-.1.5.1.4.3.7.6.9.3.1.6.1.9 0l.6-.3c.2-.2.4-.6.3-1s-.3-.7-.6-.9c-.2-.1-.4-.1-.6 0-.1 0-.2.1-.2.2-.1.1 0 .3.1.5s.2.4.3.5v-.1m-2-9.5l-2.4.5m-1.5-4.8c.6-.3 1.3-.4 2.1-.5h.3c.2.1.4.5.4.8s-.1.5-.3.6-.4 0-.6-.1m3.3 7.3l-2.5.6m1.9 1.5c-.2-.6-.4-1.2-.5-1.8m1.6 1.5c-.8.3-1.6.5-2.4.6"/></g><path d="M158.2 72.5c1-2.2 3.2-3.5 5.3-4.7.9-.5 1.7-.9 2.7-1.2 2.7-.7 5.5.5 8 1.6l-2.2 3.4c-1.8-.8-4.4-.5-6.7.5a14.1 14.1 0 0 0-5.5 4.7l-1.6-4.3z" class="S"/><path d="M159.5 73.3c1.1-2.3 3.6-3.6 5.8-4.7 2.7-1.3 5.5-.1 8.1 1l-.5-2.1-2.2 3.4 2.1-.5c-5.3-2.3-11.2 1.5-14.2 5.8.9.1 1.8.2 2.7.4-.5-1.5-1.1-2.9-1.6-4.4-.3-.8-1-1.3-1.8-1-.7.2-1.3 1.1-1 1.8.5 1.5 1.1 2.9 1.6 4.4.5 1.3 2 1.4 2.7.4 1.2-1.7 2.8-3 4.6-4 1.5-.8 3.8-1.4 5.5-.7.8.3 1.6.2 2.1-.5.7-1.1 1.4-2.3 2.2-3.4.4-.6.2-1.7-.5-2.1-3.4-1.5-7-2.8-10.6-1.2-2.9 1.2-6 3.1-7.4 6-1 1.6 1.6 3.1 2.4 1.4z"/><path d="M175.6 72.1c-4.9 1.9-9.4-6.6-.3-14 1.8-1.5 4.3-1.7 6.6-2.1 4.6-.8 9.1-1.9 13.6-3.1 3.4-1 6.9-2.1 9.9-4s5.5-4.9 6.3-8.3c3.9 4.1 9 18.6 1 23.6" class="S"/><path d="M175.2 70.6c-1.9.7-3.3-.7-3.6-2.7-.5-3.4 2.1-6.9 4.7-8.8 1.7-1.2 4-1.4 6-1.7 2.5-.4 5-1 7.5-1.6 4.8-1.1 9.7-2.3 14.2-4.5 4.2-2.1 7.9-5.7 9.1-10.4-.8.2-1.7.4-2.5.7 2.5 2.7 3.9 6.8 4.5 10.4.7 3.8.4 8.6-3.2 10.9-1.6 1-.1 3.6 1.5 2.6 4.6-3 5.4-8.4 4.7-13.4-.6-4.4-2.3-9.3-5.4-12.5-.8-.8-2.2-.4-2.5.7-1.2 4.8-5.4 7.9-9.8 9.6-5.1 2-10.7 3.2-16.1 4.3-2.5.5-5.1.7-7.4 1.5-2.2.8-4 2.5-5.5 4.3-2.1 2.7-3.6 6.4-2.4 9.9 1 2.9 3.9 4.9 7 3.8 1.8-.8 1-3.7-.8-3.1h0z"/><path d="M174.6 67.1c2 6.4 6.3 16 12.4 17.5s12.3-.2 17.1-3.7c1.5-1.1 2.9-2.3 3.8-3.9 1-1.7 1.6-3.6 2-5.6 1-4.5.6-10.6.6-15.3-12 3.5-30.9 2-35.9 11"/><path d="M173.1 67.5c1.2 4 2.8 7.9 5.1 11.4 2.1 3.3 4.9 6.4 8.8 7.3 5 1.1 10.3.2 14.9-2.1 2.2-1.1 4.3-2.6 5.9-4.4 1.7-1.9 2.7-4.2 3.3-6.6 1.5-5.5.9-11.3.9-16.9 0-1-1-1.7-1.9-1.4-5.3 1.5-10.9 2-16.3 2.8-5.1.7-10.6 1.5-15.2 3.9-2.2 1.2-4.1 2.8-5.3 5-1 1.7 1.6 3.2 2.6 1.5 2.8-5 9.8-6.1 14.9-6.9 6.7-1.1 13.6-1.5 20.2-3.4a23.07 23.07 0 0 0-1.9-1.4c0 4.4.4 8.9-.2 13.2-.3 2.2-.9 4.6-2 6.5s-2.8 3.3-4.5 4.5c-3.8 2.5-8.4 3.8-13 3.2-3.7-.5-6.1-2.6-8.2-5.6-2.3-3.4-3.9-7.3-5.1-11.3-.7-2-3.6-1.2-3 .7h0z"/><path d="M158.5 78.1c5.1-1 4.4-10.6-7.3-12-2.3-.3-4.6.9-6.7 1.8-4.3 1.8-8.7 3.3-13.1 4.7-3.4 1-6.9 2-10.5 1.9s-7.2-1.1-9.8-3.7c-1.1 5.5 2.4 20.5 11.8 20.4" class="S"/><path d="M158.9 79.6c2.4-.5 4-2.7 4.1-5.1.1-2.9-1.7-5.5-4-7.1-3.6-2.6-8.5-3.4-12.6-1.8-5.5 2.2-11 4.4-16.7 6s-12.7 2.8-17.4-1.8c-.8-.7-2.3-.5-2.5.7-.8 4.5.4 9.5 2.2 13.6 2 4.6 5.8 8.7 11.1 8.7 1.9 0 1.9-3 0-3-4.3 0-7-3.8-8.6-7.4-1.4-3.3-2.5-7.8-1.8-11.2-.8.2-1.7.4-2.5.7 7.9 7.6 20 2.9 28.8-.2 2.6-.9 5.1-1.9 7.6-3 1.1-.5 2.3-1 3.4-1.1s2.3.1 3.4.4c2.6.7 5.4 2.1 6.4 4.7.4 1 .4 1.8.1 2.7-.2.6-.8 1.1-1.7 1.3-2 .4-1.2 3.3.7 2.9h0z"/><path d="M156.6 73.4c1.8 6.5 3.3 16.9-1.1 21.4-4.4 4.6-10.5 6.5-16.4 6.1-1.8-.1-3.7-.4-5.4-1.3-1.8-.8-3.3-2.2-4.7-3.6-3.3-3.2-6.1-8.6-8.7-12.6 12.2-3.5 27.3-14.9 36.3-10"/><path d="M155.2 73.7c1 3.6 1.7 7.3 1.7 11 .1 3.3-.3 6.9-2.8 9.4-3.1 3-7.2 4.8-11.5 5.2-2.2.2-4.5.1-6.6-.5-2.3-.7-4.2-2.2-5.9-3.9-3.5-3.5-5.8-8.1-8.5-12.3-.3.7-.6 1.5-.9 2.2 6.5-1.9 12.5-5.3 18.8-8 4.7-2 11.3-4.9 16.3-2.2 1.7.9 3.2-1.7 1.5-2.6-5.6-2.9-12.2-.7-17.6 1.5-6.6 2.7-12.9 6.4-19.8 8.4-.9.3-1.4 1.4-.9 2.2 2.7 4.2 5 8.7 8.4 12.4 1.8 1.9 3.9 3.7 6.3 4.7 2.3.9 4.8 1.2 7.3 1.2 4.8-.1 9.6-1.7 13.4-4.7 1.6-1.3 3.1-2.8 4-4.7.8-1.8 1.2-3.8 1.3-5.8.4-4.8-.5-9.7-1.8-14.3-.3-1.8-3.2-1-2.7.8h0z"/><g fill="#fff"><use xlink:href="#r"/><use xlink:href="#r" x="8.7" y="-0.8"/><path d="M129.6 90.7c-.8-.7-.9-1.9-.3-2.8 2.4-3.6 5.1-7.3 8.5-9.9.1-.1.2-.2.4-.2s.3.1.5.2c.3.2.5.4.8.6 1 .8 1.1 2.2.2 3.1-2.9 3.1-5.4 6.5-7.6 10.1-.1.2-.3.5-.5.4a.76.76 0 0 1-.4-.2c-.4-.2-1-.7-1.6-1.3zm9.1-.8c-.8-.7-.9-1.9-.3-2.8 2.4-3.6 5.1-7.3 8.5-9.9.1-.1.2-.2.4-.2s.3.1.5.2c.3.2.5.4.8.6 1 .8 1.1 2.2.2 3.1-2.9 3.1-5.4 6.5-7.6 10.1-.1.2-.3.5-.5.4a.76.76 0 0 1-.4-.2c-.5-.2-1-.8-1.6-1.3z"/></g><path d="M209.4 74.5l7 1.5c.8.2 1.7-.2 1.8-1 .2-.8-.2-1.7-1-1.8l-7-1.5c-.8-.2-1.7.2-1.8 1-.2.8.2 1.7 1 1.8h0zm1.7-3.3c2.4-.3 4.8-.5 7.3-.5a1.54 1.54 0 0 0 1.5-1.5 1.54 1.54 0 0 0-1.5-1.5l-7.3.5c-.8.1-1.5.6-1.5 1.5 0 .7.6 1.6 1.5 1.5h0zM131.5 95l-6.6 2.7c-.4.2-.7.3-.9.7a1.64 1.64 0 0 0-.2 1.2c.2.7 1.1 1.4 1.8 1l6.6-2.7c.4-.2.7-.3.9-.7a1.64 1.64 0 0 0 .2-1.2c-.2-.7-1.1-1.3-1.8-1h0zm.2 3.9l-2.7 2.3-1.4 1.1-.3.3c-.2.2.1-.1 0 0-.1 0-.1.1-.2.1-.2.2-.5.4-.7.6-.3.2-.6.5-.7.9s-.1.8.2 1.2c.4.6 1.4 1 2.1.5l6-4.8c.6-.5.6-1.6 0-2.1-.8-.7-1.6-.6-2.3-.1h0zM273.5 140l-2.1-45.2 67.8-6.2c.6-.1 1.3-.1 1.8.2.8.4 1.1 1.4 1.1 2.2.1 13.7.9 30 1.7 42.2-22.2 3-49.7 5.1-70.3 6.8"/><path d="M275 140l-2.1-45.2-1.5 1.5 47-4.3 11.4-1 5.4-.5 3-.3c.7-.1 1.9-.5 2.2.2.2.5.1 1.3.1 1.8v2.6l.1 5.3.4 10.8 1.2 22.3c.4-.5.7-1 1.1-1.4-18.4 2.6-36.9 4.1-55.4 5.6l-14.4 1.2c-1.9.2-1.9 3.2 0 3l55.2-5 15.5-1.9c.6-.1 1.1-.9 1.1-1.4-.5-7-.8-14-1.1-21-.2-3.7-.3-7.5-.4-11.2-.1-3.4.1-6.9-.2-10.3-.1-1.4-.8-2.8-2.1-3.3-1.7-.7-3.9-.1-5.6.1l-12.4 1.1-24.2 2.2-27.7 2.5c-.8.1-1.5.6-1.5 1.5l2.1 45.2c-.1 1.8 2.9 1.8 2.8-.1h0z"/><path d="M279 107.8l56.6-4.3c1.9-.2 1.9-3.2 0-3l-56.6 4.3c-1.9.2-2 3.2 0 3h0zm31 28.3c.3-4.3.4-8.7.2-13-.1-1.9-3.1-1.9-3 0 .1 4.3 0 8.7-.2 13-.1.8.7 1.5 1.5 1.5s1.4-.7 1.5-1.5h0zm-36.5-12.9a663.21 663.21 0 0 0 52.8-4.5l14.8-2c1.9-.3 1.1-3.2-.8-2.9-17.3 2.5-34.7 4.4-52.1 5.6l-14.8.8c-1.8 0-1.8 3 .1 3h0zm43.2 3.9c2.5-.2 4.3-2.5 3.9-4.9-.2-1.3-2.3-1-2.2.3l.4 9.4c.3-.4.6-.7.8-1.1-.7.1-1.4.3-2 .4a1.1 1.1 0 0 0-.8 1.2c.1.6.5.9 1.1 1 1.7.1 3.4-.1 5.1-.5 1.4-.3.8-2.5-.6-2.2-1.5.3-3 .5-4.5.4l.3 2.2c.7-.1 1.4-.3 2-.4.5-.1.8-.6.8-1.1l-.4-9.4-2.2.3c.1.4-.1 1-.4 1.4-.2.2-.4.4-.6.5s-.5.2-.7.2a1.11 1.11 0 0 0-1.1 1.1c0 .7.5 1.3 1.1 1.2h0zm10.9-3.1l1.3-.6c.5-.1.8-.2 1.3-.1h1.1c-.1 0-.1 0 0 0 .2 0 .1.1 0 0 .2.1-.1-.1-.1-.1v-.1c0 .1 0 .1 0 0l.6-1c-.7.4-1.2 1-1.8 1.5l-.8.8-.4.4c.1-.1 0 0 0 0-.1.1-.2.1-.3.2-.4.3-.7.8-.5 1.3.1.4.6.9 1.1.8.4 0 .8-.1 1.3 0h.1c.1 0 .2 0 .3.1.1 0 .2 0 .3.1 0 0 .3.1.1 0 .1 0 .2.1.3.1 0 0 .2.2.1 0l.2.2c-.2-.2 0 0 0 .1.1.2 0-.2 0 .1 0 .2.1-.1 0 .1-.1.4.1-.2 0 .1s.1-.1-.1.1c-.4.7-1.1 1-2 1.2-.1 0-.2.1-.3.1h-.1-.5c-.1 0-.1 0 0 0h-.2c-.1 0-.2 0-.3-.1-.2-.1-.5-.2-.7-.3-.6-.2-1.2-.2-1.5.4-.3.5-.2 1.3.4 1.5.7.3 1.4.6 2.2.7.6 0 1.2-.1 1.8-.2 1.4-.3 2.7-1.1 3.3-2.4.6-1.4.1-2.9-1.2-3.7-1-.6-2.3-.7-3.5-.6l.6 2.1c.7-.4 1.2-1 1.8-1.5l.8-.8.4-.4c-.1.1 0 0 0 0 .1-.1.2-.1.3-.2.3-.2.6-.6.6-1 0-.7-.3-1.3-1-1.7-.5-.3-1.2-.3-1.8-.3l-2.1.1c-.7.2-1.4.5-2.1.9-.5.3-.7 1-.4 1.5.2.7.9.9 1.4.6h0zm-41.1 4v.3c-.1.1 0 .1 0 0v.1c.1-.1.1-.1 0 0 0 0 .1 0 .1-.1-.1 0-.1 0 .1 0-.1 0-.1 0 0 0s-.1-.1 0 0 .1.1.2.1c.1.1.2.3.4.5.5.9.7 2.2.6 3.3 0 .5-.2 1-.5 1.4 0 0-.2.3-.1.2l-.3.3-.2.1c-.1.1-.2.1-.3.2l-.2.1c-.1 0-.2.1-.3.1 0 0-.4.1-.2 0h-.3c-.1 0-.2 0 0 0h-.2s-.3-.1-.2-.1c-.2-.1-.2-.1-.4-.3-.2.6-.3 1.3-.5 1.9 1.5-.5 3.1 0 4.7.2 1.8.3 3.6.4 5.2-.6 1.2-.8.1-2.7-1.1-1.9s-2.7.5-4.1.3c-1.7-.3-3.5-.6-5.2-.1-.8.3-1.1 1.3-.5 1.9.9 1 2.4 1.2 3.6.9 1.4-.4 2.4-1.4 2.9-2.7.6-1.4.4-3.1.1-4.5-.4-1.4-1-2.9-2.5-3.4-1.8-.5-3.6 1.4-2.7 3.1.6 1.1 2.6-.1 1.9-1.3h0zm-3.6-11.3c2.3-1.7 4.2-3.6 5.9-5.9l-2.1-.9c-.5 2.2-.2 4.4.9 6.4.5.8 1.8.7 2.1-.3.3-1.1 1.3-1.9 2.5-1.7s2 1 3.2.2c.4-.2.6-.6.9-.9.5-.6.7-.7 1.6-.5l4.8 1.1c2.7.6 5.2 1.4 7.7-.2 1.1-.7 2.1-1.6 3.4-1.8s2.6.2 3.6 1c.3.2.8.2 1.1 0 3.6-2.2 7.7-3.2 11.8-2.8 1.4.1 1.4-2.1 0-2.2-4.5-.4-9.1.7-13 3.1h1.1a6.78 6.78 0 0 0-7.7-.3c-1.5.9-2.7 2-4.6 1.7-1.8-.3-3.6-.8-5.4-1.2-1.4-.3-3.3-1.1-4.7-.6-.6.2-1 .6-1.4 1-.6.7-.6.7-1.6.4-2.4-.9-5.1.6-5.7 3.1l2.1-.3c-.8-1.5-1.1-3-.7-4.7.3-1.3-1.3-1.9-2.1-.9-1.4 2-3.1 3.7-5.1 5.1-.9 1 .3 3 1.4 2.1h0zm59.3-22.2l-.5-6.9c-.2-.3-.4-.5-.7-.7-.5-.2-1.2-.2-1.8-.2l-67.8 5.5.5 9.5h.1c20.6-1.5 48-3.3 70.2-6.1v-1.1z" fill="#fff"/><path d="M343.7 94.5l-.3-3.6c-.1-1.1.1-2.6-.3-3.7-.7-2.3-3.6-2-5.4-1.8l-16.2 1.3-31.9 2.6-18.2 1.5c-.8.1-1.5.6-1.5 1.5l.5 9.5a1.54 1.54 0 0 0 1.5 1.5c4.1-.1 8.3-.6 12.4-.9l13.8-1 28.5-2.5 15.5-1.7c.8-.1 1.5-.6 1.5-1.5.1-.4.1-.8.1-1.2-.1-1.9-3.1-1.9-3 0v1.1l1.5-1.5c-18.6 2.3-37.3 3.7-56 5.1-4.7.3-9.5.9-14.3 1l1.5 1.5-.5-9.5-1.5 1.5 59.8-4.8c2.8-.2 5.6-.6 8.3-.7h.5c.2.1.2 0 .1-.2v.5c0 .6.1 1.3.1 1.9l.3 4.1c.3 1.9 3.3 2 3.2 0z"/><use xlink:href="#s"/><path d="M282.6 92l-4.5 7.8c-.3.4.1 1.2.6 1.1 3-.4 6-.6 9-.6.6 0 1.3.1 1.9-.1s.8-.7 1-1.2l2-4.2 1-2.1c.2-.5.7-1.1.4-1.6-.5-1.2-2.4-.5-3.3-.4a32.53 32.53 0 0 1-4.4.3h-2.2c-.6 0-1.1-.1-1.6.3-.2.2-.3.6-.1.9.3.5.8.5 1.3.3.4-.2.5-.9.2-1.2-.7-.7-1.8.4-1.1 1.1.1-.4.1-.8.2-1.2.1 0 .2 0 .3-.1.1.1.3.2.4.3v-.1c0 .3-.1.6-.1.9-.2.2.1.1.2.1h.7 1.3l2.5-.1 2.3-.2c.4 0 .8-.1 1.1-.2.2 0 1-.3 1.2-.2-.1-.1-.2-.3-.3-.4 0-.1-.4.6-.4.7-.2.4-.4.8-.5 1.2l-1 2.1-1 2.2c-.1.2-.3.9-.5 1s-.7.1-1 .1l-9.4.6.6 1.1 4.5-7.8c.4-.4-.9-1.2-1.3-.4h0zm21.3-.7l-4.5 7.8c3.2-.4 6.5-.6 9.9-.6.4 0 .8 0 1-.2.1-.1.1-.2.2-.2l3.5-7.6c0-.1.1-.2 0-.3s-.5-.1-.7-.1c-2.9.5-5.9.7-9.1.6-.2 0-.4 0-.5.1s.4.1.2 0"/><path d="M303.3 90.9l-4.5 7.8c-.3.4.1 1.2.6 1.1 3-.4 6-.6 9-.6.6 0 1.3.1 1.9-.1s.8-.7 1-1.2l2-4.2 1-2.1c.2-.5.7-1.1.4-1.6-.5-1.2-2.4-.5-3.3-.4a32.53 32.53 0 0 1-4.4.3h-2.2c-.6 0-1.1-.1-1.6.3-.2.2-.3.6-.1.9.3.5.8.5 1.3.3.4-.2.5-.9.2-1.2-.7-.7-1.8.4-1.1 1.1.1-.4.1-.8.2-1.2.1 0 .2 0 .3-.1.1.1.3.2.4.3v-.1c0 .3-.1.6-.1.9-.2.2.1.1.2.1h.7 1.3l2.5-.1 2.3-.2c.4 0 .8-.1 1.1-.2.2 0 1-.3 1.2-.2-.1-.1-.2-.3-.3-.4 0-.1-.4.6-.4.7-.2.4-.4.8-.5 1.2l-1 2.1-1 2.2c-.1.2-.3.9-.5 1s-.7.1-1 .1l-9.4.6.6 1.1 4.5-7.8c.5-.5-.8-1.3-1.3-.4h0z"/><use xlink:href="#s" x="41.5" y="-2.8"/><path d="M324.1 89.2l-4.5 7.8c-.3.4.1 1.2.6 1.1 3-.4 6-.6 9-.6.6 0 1.3.1 1.9-.1s.8-.7 1-1.2l2-4.2 1-2.1c.2-.5.7-1.1.4-1.6-.5-1.2-2.4-.5-3.3-.4a32.53 32.53 0 0 1-4.4.3h-2.2c-.6 0-1.1-.1-1.6.3-.2.2-.3.6-.1.9.3.5.8.5 1.3.3.4-.2.5-.9.2-1.2-.7-.7-1.8.4-1.1 1.1.1-.4.1-.8.2-1.2.1 0 .2 0 .3-.1.1.1.3.2.4.3v-.1c0 .3-.1.6-.1.9-.2.2.1.1.2.1h.7 1.3l2.5-.1 2.3-.2c.4 0 .8-.1 1.1-.2.2 0 1-.3 1.2-.2-.1-.1-.2-.3-.3-.4 0-.1-.4.6-.4.7-.2.4-.4.8-.5 1.2l-1 2.1-1 2.2c-.1.2-.3.9-.5 1s-.7.1-1 .1l-9.4.6.6 1.1 4.5-7.8c.4-.5-.9-1.2-1.3-.4h0z"/><path d="M277.8 52.4c-2.2 4.6-2.9 9.9-4 14.6l64.4 21.3c.6.2 1.2.4 1.7.4.8.1 1.1-.1 1.2-.4 1.5-4.3 2.1-8.7 3.4-13.7-21-7.4-47.1-15.8-66.7-22.2" fill="#fff"/><path d="M276.5 51.6c-2.2 4.7-3 9.9-4.1 14.9-.2.8.2 1.6 1 1.8l34.1 11.3 16.8 5.5 8.5 2.8c1.3.4 2.7.9 4 1.3 1.2.4 2.6 1 3.9.8 1.2-.2 1.7-1 2-2.1.4-1.3.8-2.7 1.1-4.1l2-9c.2-.8-.3-1.6-1-1.8L292 55.3l-13.8-4.5c-1.8-.6-2.6 2.3-.8 2.9l52.1 17.2 14.6 5c-.3-.6-.7-1.2-1-1.8l-1.7 7.5c-.2 1.1-.5 2.2-.8 3.3a9.83 9.83 0 0 1-.5 1.6c0 .1-.3.8-.3.8.1-.1.3-.2.4-.3-.2 0-.4 0-.6-.1-2.7-.6-5.3-1.7-8-2.6l-7.8-2.6-31.7-10.5-18-5.9c.3.6.7 1.2 1 1.8 1.1-4.8 1.8-9.7 3.8-14.2 1-1.5-1.6-3-2.4-1.3h0z"/><use xlink:href="#t"/><use xlink:href="#u"/><use xlink:href="#t" x="20.4" y="6.4"/><use xlink:href="#u" x="20.4" y="6.3"/><use xlink:href="#t" x="40.8" y="13.6"/><path d="M326.6 82.4l-3.4-14.3c-.4.3-.7.6-1.1.8l5.8 2.2 2.9.8 1.4.3c.5.2.4.6.5 1.1l1.2 6.3.6 3.4.3 1.6c.1.5.4 1.3.3 1.8.1-.1.2-.3.3-.4-.1.1-1.9-.9-2.1-1-.7-.3-1.5-.6-2.2-.8-.8-.3-1.6-.5-2.4-.7-.3-.1-2.3-.3-2.3-.4v.8s0-.1.1-.1c-.2.1-.4.2-.6.4h-.2l-.3-1v.1c-.5.8.8 1.6 1.3.8V84c.2-.4.1-.8-.3-1-.8-.5-1.7.3-1.3 1.1.3.5.7.5 1.2.6.8.1 1.7.3 2.5.5 1.5.4 3 .9 4.4 1.5.8.4 2.2 1.5 3.1.7.4-.3.4-.8.3-1.3-.1-.8-.3-1.6-.5-2.5l-.9-4.9-.9-4.8c-.2-1.2-.2-2.5-1.5-3-1.5-.6-3.2-.8-4.7-1.3l-5.2-1.9c-.6-.3-1.3.2-1.1.8l3.4 14.3c.2 1 1.6.6 1.4-.4h0zM165.3 95.6c2.5.6 5.2 0 7.3-1.4 2.1-1.5 3.5-3.8 3.8-6.4 2.6 3.6 4.5 7.6 6 11.7.9 2.6 1.7 5.5.9 8.2s-3.5 5-6.2 4.3c-1.7-.4-3-1.9-4.1-3.4-3.1-4-5.9-8.2-7.8-12.9"/><path d="M164.9 97.1c6 1.2 12-2.7 12.9-8.8-.9.1-1.8.2-2.7.4 2.3 3.3 4.2 6.8 5.5 10.6 1.2 3.3 2.8 8-.4 10.7s-5.9-1.6-7.6-3.9c-2.4-3.3-4.5-6.7-6.1-10.4-.7-1.8-3.6-1-2.9.8 1.4 3.5 3.3 6.8 5.5 9.9 1.9 2.6 4 6.3 7.3 7.3 3.1.9 6.4-1.2 7.7-4 1.7-3.5.7-7.5-.6-11-1.5-4.1-3.4-7.9-5.9-11.5-.6-.9-2.5-1.1-2.7.4-.6 4.5-4.7 7.7-9.2 6.7-1.8-.5-2.6 2.4-.8 2.8h0z"/><path d="M181 96.1a8.18 8.18 0 0 0-2.4 1c-2.4 1.3-4.1 3.5-5.2 6-.6 1.5-1.1 3-1.3 4.6.3.4.6.7.8 1.1 1.1 1.4 2.4 2.9 4.1 3.4 2.7.7 5.5-1.6 6.2-4.3s0-5.6-.9-8.2c-.3-1.3-.8-2.4-1.3-3.6z" fill="#8f8f8f"/><path d="M180.6 94.7c-3.2 1-5.7 2.9-7.5 5.7-.8 1.3-1.5 2.8-1.9 4.3l-.6 2.3c-.1.6-.1 1 .2 1.5l.9 1.2c1.9 2.4 4.3 4.7 7.6 3.9 2.9-.7 5.1-3.5 5.5-6.4.7-4.1-1-8.1-2.6-11.8-.3-.7-1.4-.9-2.1-.5-.8.5-.9 1.3-.5 2.1.9 2.1 1.7 4.2 2.1 6.4.4 1.9.3 4-.9 5.7-.8 1.1-2.3 2.1-3.7 1.6-1.7-.5-2.9-2.4-3.9-3.7.1.4.1.8.2 1.2.8-4.7 3.1-9 7.9-10.4 2-.8 1.2-3.7-.7-3.1z"/><g fill="#333"><path d="M102.9 120c-5.9 1.3-9.2 7.4-9.6 13-.5 5.9 2.2 11.6 6.9 15 4.5 3.3 10.5 4.2 15.8 2.3s9.5-5.9 12.8-10.4c4.1-5.6 7.7-12.7 6.7-19.7-.2-1.2-.9-2.2-2.2-2.2-1.1 0-2.4 1-2.2 2.2.7 5.4-1.5 10.3-4.3 14.8-2.3 3.8-5.3 7.4-9.1 9.7-3.7 2.2-8.1 2.9-12.1 1.2-4.1-1.7-7-5.4-7.6-9.8-.6-4.5 1.3-10.7 6.3-11.8 2.7-.5 1.5-4.9-1.4-4.3h0z"/><path d="M134.4 117.9c-3-1.7-6-3.5-8.8-5.4-1-.7-2.5-.2-3.1.8-.6 1.1-.2 2.4.8 3.1 2.8 2 5.8 3.8 8.8 5.4 1 .6 2.5.3 3.1-.8.6-1 .3-2.5-.8-3.1h0z"/><path d="M135.9 119.3l-.1-4.2c0-.7 0-1.3.1-2 0-.3.1-.7.1-1 0-.2 0-.4.1-.6 0-.1.1-.8 0-.1.1-.6.1-1.2-.2-1.7s-.8-.9-1.3-1c-.6-.1-1.2-.1-1.7.2s-1 .8-1 1.3c-.4 3-.6 6.1-.3 9.1.1.6.2 1.1.7 1.6.4.4 1 .7 1.6.7.9-.1 2.1-1 2-2.3h0z"/><path d="M135.3 121.1l4.9-2.7 2.5-1.3 1.2-.6c.2-.1.4-.2.5-.3s.2-.1.4-.2c.5-.2.2-.2-1 .1l-1-.6.1.1-.6-1c0-.1 0-.3-.1-.4l.3-1.1v.1l.8-.8h-.1l1.1-.3h-.1c-1.2-.1-2.3 1.1-2.2 2.2.1 1.3 1 2.2 2.2 2.2 1.3.1 2.5-1.2 2.4-2.5a2.42 2.42 0 0 0-2.6-2.4c-.9 0-1.6.5-2.4.9l-1.8.9-6.9 3.7c-1 .6-1.5 2.1-.8 3.1.8 1.1 2.1 1.5 3.2.9h0zm75.7 11.4c2.5 10.7 4.4 21.5 5.6 32.5.1 1 .6 1.9 1.7 2.2 2.8.8 5.6 1.2 8.5 1.1s2.9-4.6 0-4.5c-2.5.1-4.9-.2-7.3-.9.6.7 1.1 1.4 1.7 2.2-1.3-11.3-3.2-22.6-5.8-33.7-.8-2.9-5.1-1.7-4.4 1.1h0zm85.2-66.8c.1-.2.1-.5.2-.7 0-.1.1-.2.1-.3-.2.6-.1.3-.1.2.2-.4.4-.8.7-1.2 0-.1.2-.2.2-.3-.1.4-.3.3-.1.1s.3-.4.5-.6.3-.3.5-.4c.3-.3-.4.3-.1.1.1-.1.2-.2.3-.2.4-.3.9-.5 1.3-.7-.5.3-.2.1-.1 0s.3-.1.4-.2l.9-.3c.3-.1.6-.1.9-.2.2 0 .4-.1.5-.1.2 0 .1 0-.2 0h.3c.8-.1 1.6-.1 2.4-.1 1.2 0 2.3-1 2.2-2.2s-1-2.3-2.2-2.2c-3 0-6.3.5-8.9 2.2-2.1 1.4-3.5 3.5-4.3 5.9-.3 1.1.4 2.5 1.6 2.8 1.5.2 2.6-.4 3-1.6h0z"/><path d="M303.7 69.4l1.6-4.8c.3-.8.5-1.6.7-2.4.1-.4.2-.8.4-1.2.1-.2.1-.4.2-.6 0-.1.1-.2.1-.4.1-.4 0-.3-.3.5l-1 .6h.1l-1.7-.2h.1l-1-1.3v.1-1.2c.1-.1.1-.3.2-.4l.8-.8 2.7.4c-.8-.8-2.4-.9-3.2 0s-.9 2.3 0 3.2c.8.8 1.8.8 2.7.4 1.1-.5 1.4-2 1-3-.7-1.6-2.6-1.8-3.8-.7-.6.6-.8 1.4-1 2.1-.2.6-.3 1.2-.5 1.8l-2.3 6.9c-.4 1.1.5 2.5 1.6 2.8 1.1.1 2.2-.6 2.6-1.8h0z"/><path d="M304.5 60.7l1.1.3c.1 0 .2.1.3.1-.2-.1-.3-.1-.1 0 .1.1.3.1.4.2 0 0 .4.2.4.3 0-.1-.4-.3-.1 0l.2.2c.3.3-.2-.4 0 0 0 .1.1.2.2.3.2.3-.1-.4 0-.1.1.2.1.4.2.7 0 .1 0 .2.1.3 0 .1.1.6 0 .1-.1-.4 0 .3 0 .4 0 .4.1.9.1 1.3s.1.7.1 1c.1.4.1.7.2.9.2 2 .1 3.9-.1 5.9-.1 1.2 1.1 2.3 2.2 2.2 1.3-.1 2.2-1 2.2-2.2.2-2.2.3-4.5 0-6.7 0-.4 0-1.1-.2-1.4.1.1.1.6 0 .1v-.4c0-.5-.1-1-.1-1.5-.2-1.5-.6-2.8-1.5-4-1.1-1.3-2.7-2-4.4-2.4-1.1-.2-2.5.3-2.8 1.6-.3 1.2.3 2.6 1.6 2.8h0z"/></g><path d="M374 57.1c6.1.3 11.3-1.5 14.5-6.8s7.1-17.5 8.3-23.5c-.7 5.4-.6 17.9.8 23.2s3.8 8.9 9.2 9.8c-7.6 1-13.4 7.7-15.6 15.3-2.5 8.9-3.9 14.3-5.3 20.8.4-6.7.8-14.4-.1-23.8-.5-5.2-.7-11.9-11.8-15z" fill="#afafaf"/><path d="M374 58.6c6.1.3 12-1.8 15.5-7 1.4-2.1 2.4-4.6 3.4-6.9a124.73 124.73 0 0 0 3-8.6c.9-2.9 1.7-5.8 2.3-8.8-1-.1-2-.3-2.9-.4-.9 6.6-.6 13.6.2 20.1.4 3.1 1.1 6.2 2.8 8.9 1.8 2.9 4.7 4.7 8 5.3v-2.9c-7.6 1.1-13.2 7.2-15.8 14.1-1.5 3.9-2.4 8.2-3.5 12.3-.9 3.6-1.8 7.2-2.5 10.8 1 .1 2 .3 2.9.4.4-7.5.7-15 .1-22.5-.4-4.5-.8-9.2-4-12.7-2.4-2.6-5.7-4.1-9.1-5-1.9-.5-2.7 2.4-.8 2.9 4.8 1.4 8.9 3.9 10.1 9 .5 2 .6 4.1.8 6.1.3 3.7.4 7.5.4 11.2s-.2 7.4-.4 11.1c-.1 1.7 2.6 2.1 2.9.4 1.5-7.3 3.3-14.6 5.6-21.7 2.1-6.5 7.2-12.3 14.2-13.4 1.5-.2 1.4-2.6 0-2.9-3-.5-5.3-2-6.7-4.7-1.3-2.5-1.8-5.4-2.1-8.1-.7-6.1-.9-12.5-.1-18.6.2-1.7-2.6-2-2.9-.4-1.3 6.5-3.4 13.1-6.1 19.1-1.2 2.8-2.7 5.7-5.2 7.5-2.9 2.1-6.5 2.6-10 2.5-2-.2-2 2.8-.1 2.9z"/><path d="M359.1 29.8c3.5.2 6.4-.4 8.2-2.5s3.7-7.2 4.3-9.6c-.3 2.3 0 7.4.9 9.7s2.3 3.8 5.4 4.3c-4.3.3-7.5 2.9-8.6 6.1-1.3 3.7-2 5.9-2.6 8.6.1-2.8.2-6-.5-9.9-.5-2.4-.8-5.2-7.1-6.7z" class="P"/><path d="M359.1 31.3c3.8.2 7.6-.5 9.9-3.8 1.9-2.7 3.2-6.2 4-9.5-1-.1-2-.3-2.9-.4-.4 3-.1 6.6.8 9.5 1 3.2 3.4 5.3 6.7 5.9.1-1 .3-2 .4-2.9-3.7.3-7.1 2-9.1 5.2-1 1.6-1.5 3.5-2 5.3-.6 1.8-1.1 3.5-1.5 5.3 1 .1 2 .3 2.9.4.1-3.9.2-8.2-.9-12-1-3.6-4.4-5.1-7.8-5.9-1.9-.5-2.7 2.4-.8 2.9 2.6.6 5.2 1.6 5.8 4.3.8 3.5.8 7.1.7 10.7 0 1.7 2.5 2.1 2.9.4.7-3 1.5-6.3 2.8-9.1 1.2-2.7 4.1-4.3 7-4.5 1.6-.1 2.2-2.6.4-2.9-2.7-.5-4.2-1.9-4.8-4.6-.6-2.5-.8-5.3-.5-7.9.2-1.7-2.6-2-2.9-.4-.7 2.8-1.8 5.6-3.2 8-1.7 2.8-4.6 3.3-7.7 3.1-2.2-.3-2.2 2.7-.2 2.9zm-8.8 22.8L350 50v-2-1-.5-.3c0-.4-.1-.2-.3.5-.2.1-.4.3-.7.4h.1-.8.1c-.2-.1-.4-.3-.7-.4-.1-.2-.3-.4-.4-.7 0-.3.1-.6.1-1 .3-.2.6-.5.9-.7.4.1.8.1 1.2.2-.7-.4-1.7-.2-2.1.5s-.2 1.6.5 2.1c.9.6 2 0 2.3-.9a1.55 1.55 0 0 0-1.1-2c-.9-.3-1.8.4-2.1 1.2-.2.6-.1 1.3-.1 1.9-.1 2.3 0 4.6.3 6.9.1.8.6 1.5 1.5 1.5.8-.2 1.6-.8 1.6-1.6h0z"/><path d="M344.5 50.6l4.2-.1h2 .9.4c-.2 0-.2 0 0 0-.2-.1-.2-.1 0 0 .6.4 1.7.1 2.1-.5.4-.8.2-1.6-.5-2.1s-1.5-.5-2.3-.5h-2.2l-4.5.1a1.54 1.54 0 0 0-1.5 1.5c0 .9.6 1.6 1.4 1.6h0z"/><path d="M20.5 133.9c6-1.1 10.6-4.1 12.6-9.9 1.9-5.8 2.9-18.6 2.7-24.8.5 5.5 3.5 17.5 6.1 22.4 2.5 4.9 5.7 7.8 11.2 7.4-7.1 2.7-11.3 10.5-11.7 18.5-.4 9.2-.6 14.8-.4 21.5-1.2-6.6-2.5-14.2-5.5-23.1-1.8-5.1-3.6-11.6-15-12z" fill="#afafaf"/><path d="M20.9 135.3c5.8-1.1 10.9-4.3 13.2-9.9 1-2.4 1.4-5 1.8-7.6.5-3.1.8-6.3 1-9.5.2-3 .4-6.1.3-9.1h-3c.7 6.6 2.4 13.4 4.8 19.7 1.1 2.9 2.5 5.9 4.7 8.2 2.4 2.5 5.7 3.6 9.2 3.5-.1-1-.3-2-.4-2.9-7.2 2.8-11.5 9.9-12.5 17.3-.6 4.2-.5 8.6-.6 12.8-.1 3.8-.1 7.5 0 11.3 1-.1 2-.3 2.9-.4-1.3-7.5-2.8-14.9-5.2-22.2-1.4-4.3-2.9-8.6-6.8-11.3-2.9-2-6.5-2.6-9.9-2.8-1.9-.1-1.9 2.9 0 3 5 .2 9.5 1.8 11.8 6.4.9 1.8 1.5 3.7 2.1 5.6a100.62 100.62 0 0 1 3 11.1c.8 3.6 1.4 7.3 2.1 10.9.3 1.7 3 1.3 2.9-.4-.2-7.4-.1-14.9.5-22.2.5-6.6 4.1-13.7 10.5-16.3 1.4-.6 1.4-3-.4-2.9-3.1.2-5.7-.9-7.7-3.3-1.8-2.1-2.9-4.7-3.8-7.3-2-5.7-3.6-11.7-4.2-17.7-.2-1.9-3.1-2-3 0 .2 6.7-.3 13.7-1.6 20.3-.6 3.1-1.4 6.2-3.6 8.5-2.4 2.5-5.6 3.7-8.9 4.4-1.9.3-1.1 3.2.8 2.8z"/><path d="M42.9 47c3.4-.9 5.9-2.5 6.8-5.1s1.1-8 .8-10.5c.5 2.2 2.5 7 4.1 8.8s3.5 2.8 6.6 2.2c-4 1.7-6.1 5.3-6.1 8.6 0 3.9.1 6.2.4 9-.9-2.7-1.8-5.7-3.8-9.2-1.1-2-2.3-4.6-8.8-3.8z" class="P"/><path d="M43.3 48.4c3.5-1 7-2.9 8.1-6.6 1-3.2 1.1-7.1.7-10.4-1 .1-2 .3-2.9.4.6 3 2 6.1 3.8 8.6 2.1 3 5.1 4.1 8.7 3.5l-1.2-2.7c-3.2 1.5-5.9 4.4-6.6 7.9-.4 1.9-.2 3.9-.1 5.8l.3 5.2c1-.1 2-.3 2.9-.4-1.2-3.8-2.5-7.8-4.9-11-2.2-3-5.8-3.4-9.2-3-1.9.2-1.9 3.2 0 3 2.5-.3 5.5-.3 6.9 2 2 3 3.2 6.5 4.3 9.9.5 1.5 3.1 1.4 2.9-.4-.3-3.1-.6-6.5-.4-9.6.3-3.1 2.6-5.5 5.3-6.7 1.7-.7.4-3-1.2-2.7-2.7.5-4.6-.8-6-3.1-1.3-2.1-2.3-4.5-2.9-6.9-.4-1.6-3.1-1.3-2.9.4.3 2.9.2 6-.4 8.8-.7 3.2-3.2 4.6-6.2 5.4-1.6.2-.9 3.1 1 2.6zm30.4 110.5v-12.3c0-1.9-3-1.9-3 0v12.3c0 2 3 2 3 0h0z"/><path d="M66.8 154.8h10.7a1.54 1.54 0 0 0 1.5-1.5 1.54 1.54 0 0 0-1.5-1.5H66.8a1.54 1.54 0 0 0-1.5 1.5 1.54 1.54 0 0 0 1.5 1.5h0z"/><path d="M372.8 148.1c3.5-.6 6.1-2 7.3-4.5s1.8-7.9 1.7-10.4c.3 2.3 1.9 7.2 3.3 9.2s3.2 3.1 6.3 2.8c-4.1 1.3-6.5 4.7-6.8 8-.3 3.9-.4 6.2-.4 9-.6-2.7-1.3-5.8-3-9.5-.8-2.1-1.8-4.7-8.4-4.6z" class="P"/><path d="M373.2 149.6c3.7-.7 7.2-2.4 8.6-6.1 1.2-3.1 1.6-6.9 1.5-10.2h-3c.4 3.1 1.5 6.4 3 9.2 1.7 3 4.6 4.5 8.1 4.3-.1-1-.3-2-.4-2.9-3.5 1.2-6.4 3.8-7.5 7.4-.6 1.8-.5 3.8-.6 5.7-.1 1.8-.2 3.6-.1 5.4 1-.1 2-.3 2.9-.4-.9-3.9-1.8-8-3.9-11.4-1.9-3.2-5.6-3.8-9-3.7-1.9 0-1.9 3 0 3 2.6 0 5.4.2 6.7 2.7 1.7 3.2 2.5 6.8 3.3 10.2.4 1.7 3 1.3 2.9-.4 0-3.1-.1-6.3.4-9.4.5-3 2.9-5.2 5.7-6.2 1.5-.5 1.4-3.1-.4-2.9-2.7.2-4.5-.9-5.8-3.3-1.1-2.2-2.1-4.7-2.4-7.2-.2-1.9-3-2-3 0 .1 2.9-.3 5.9-1.2 8.6-1 3.1-3.7 4.3-6.7 4.8-1.8.2-1 3.1.9 2.8z"/><defs ><path id="B" d="M96.4 66.3c-.2.4-.3.7-.2 1.1.1.3.4.6.8.6s.7-.1 1-.4c.2-.3.4-.6.3-.9s-.3-.7-.6-.7c-.3-.1-1 0-1.3.3z"/><path id="C" d="M101.2 64.9c-.2.4-.3.7-.2 1.1.1.3.4.6.8.6s.7-.1 1-.4c.2-.3.4-.6.3-.9s-.3-.7-.6-.7c-.4-.1-1 0-1.3.3z"/><path id="D" d="M105.4 63.5c-.2.4-.3.7-.2 1.1.1.3.4.6.8.6s.7-.1 1-.4c.2-.3.4-.6.3-.9s-.3-.7-.6-.7-1 0-1.3.3z"/><path id="E" d="M118.2 59.4c-.2.4-.3.7-.2 1.1.1.3.4.6.8.6s.7-.1 1-.4c.2-.3.4-.6.3-.9s-.3-.7-.6-.7-1 .1-1.3.3z"/><path id="F" d="M126.4 56.7c-.2.4-.3.7-.2 1.1.1.3.4.6.8.6s.7-.1 1-.4c.2-.3.4-.6.3-.9s-.3-.7-.6-.7c-.4 0-1 .1-1.3.3z"/><path id="G" d="M136.7 58c-.2.4-.3.7-.2 1.1.1.3.4.6.8.6s.7-.1 1-.4c.2-.3.4-.6.3-.9s-.3-.7-.6-.7c-.4 0-1 0-1.3.3z"/><path id="H" d="M145.2 55.3c-.2.4-.3.7-.2 1.1.1.3.4.6.8.6s.7-.1 1-.4c.2-.3.4-.6.3-.9s-.3-.7-.6-.7c-.3-.1-.9 0-1.3.3z"/><path id="I" d="M169.3 43.2c-.2.4-.3.7-.2 1.1.1.3.4.6.8.6s.7-.1 1-.4c.2-.3.4-.6.3-.9s-.3-.7-.6-.7-.9 0-1.3.3z"/><path id="J" d="M187 41.7c-.2.4-.3.7-.2 1.1.1.3.4.6.8.6s.7-.1 1-.4c.2-.3.4-.6.3-.9s-.3-.7-.6-.7-.9.1-1.3.3z"/><path id="K" d="M123.4 150.3c-.2.4-.3.7-.2 1.1.1.3.4.6.8.6s.7-.1 1-.4c.2-.2.4-.6.3-.9 0-.3-.3-.7-.6-.7-.3-.1-1 0-1.3.3z"/><path id="L" d="M127 144.9c-.2.4-.3.7-.2 1.1.1.3.4.6.8.6s.7-.1 1-.4c.2-.2.4-.6.3-.9 0-.3-.3-.7-.6-.7-.4-.1-1 0-1.3.3z"/><path id="M" d="M131.2 143.6c-.2.4-.3.7-.2 1.1.1.3.4.6.8.6s.7-.1 1-.4c.2-.2.4-.6.3-.9 0-.3-.3-.7-.6-.7s-.9 0-1.3.3z"/><path id="N" d="M135.8 142.3c-.2.4-.3.7-.2 1.1.1.3.4.6.8.6s.7-.1 1-.4c.2-.2.4-.6.3-.9 0-.3-.3-.7-.6-.7-.4 0-1 0-1.3.3z"/><path id="O" d="M177.7 128.8c-.2.4-.3.7-.2 1.1.1.3.4.6.8.6s.7-.1 1-.4c.2-.3.4-.6.3-.9s-.3-.6-.7-.7c-.3 0-.9.1-1.2.3z"/><path id="P" d="M179 132.9c-.2.4-.3.7-.2 1.1.1.3.4.6.8.6s.7-.1 1-.4c.2-.3.4-.6.3-.9s-.3-.6-.7-.7c-.2-.1-.9 0-1.2.3z"/><path id="Q" d="M182.4 127.4c-.2.4-.3.7-.2 1.1.1.3.4.6.8.6s.7-.1 1-.4c.2-.3.4-.6.3-.9s-.3-.6-.7-.7c-.3-.1-.9 0-1.2.3z"/><path id="R" d="M183.7 131.4c-.2.4-.3.7-.2 1.1.1.3.4.6.8.6s.7-.1 1-.4c.2-.3.4-.6.3-.9s-.3-.6-.7-.7c-.2 0-.9 0-1.2.3z"/><path id="S" d="M204.9 124.5c-.2.4-.3.7-.2 1.1.1.3.4.6.8.6s.7-.1 1-.4c.2-.3.4-.6.3-.9s-.3-.6-.7-.7c-.2-.1-.8 0-1.2.3z"/><path id="T" d="M229.2 112.1c-.2.4-.4.7-.2 1.1.1.3.4.6.8.7.4 0 .7-.1 1-.4.2-.2.4-.6.4-.9s-.3-.7-.6-.7c-.4-.1-1.1-.1-1.4.2z"/><path id="U" d="M230.3 116.2c-.2.4-.4.7-.2 1.1.1.3.4.6.8.7.4 0 .7-.1 1-.4.2-.2.4-.6.4-.9s-.3-.7-.6-.7c-.4-.1-1-.1-1.4.2z"/><path id="V" d="M129.4 75.6c-.2.4-.3.7-.2 1.1.1.3.4.6.8.6s.7-.1.9-.4.4-.6.3-.9-.3-.7-.6-.7c-.2 0-.8 0-1.2.3z"/><path id="W" d="M130.7 79.7c-.2.4-.3.7-.2 1.1.1.3.4.6.8.6s.7-.1.9-.4.4-.6.3-.9-.3-.7-.6-.7c-.2-.1-.8 0-1.2.3z"/><path id="X" d="M135.4 78.3c-.2.4-.3.7-.2 1.1.1.3.4.6.8.6s.7-.1.9-.4.4-.6.3-.9-.3-.7-.6-.7-.9 0-1.2.3z"/><path id="Y" d="M148 74.3c-.2.4-.3.7-.2 1.1.1.3.4.6.8.6s.7-.1.9-.4.4-.6.3-.9-.3-.7-.6-.7c-.3-.1-.9 0-1.2.3z"/><path id="Z" d="M150.8 68.9c-.2.4-.3.7-.2 1.1.1.3.4.6.8.6s.7-.1.9-.4.4-.6.3-.9-.3-.7-.6-.7c-.2 0-.9 0-1.2.3z"/><path id="a" d="M138.2 87.2c-.2.4-.3.7-.2 1.1.1.3.4.6.8.6s.7-.1.9-.4.4-.6.3-.9-.3-.7-.6-.7c-.2-.1-.9 0-1.2.3z"/><path id="b" d="M175.1 70.9c-.2.4-.3.7-.2 1.1.1.3.4.6.8.6s.7-.1.9-.4.4-.6.3-.9-.3-.7-.6-.7c-.2 0-.9.1-1.2.3z"/><path id="c" d="M180.6 59.3c-.2.4-.3.7-.2 1.1.1.3.4.6.8.6.3 0 .7-.1.9-.4.2-.2.4-.6.3-.9s-.3-.7-.6-.7c-.2 0-.9 0-1.2.3z"/><path id="d" d="M181.9 63.4c-.2.4-.3.7-.2 1.1.1.3.4.6.8.6.3 0 .7-.1.9-.4.2-.2.4-.6.3-.9s-.3-.7-.6-.7c-.2-.1-.9 0-1.2.3z"/><path id="e" d="M189.3 56.6c-.2.4-.3.7-.2 1.1.1.3.4.6.8.6.3 0 .7-.1.9-.4.2-.2.4-.6.3-.9s-.3-.7-.6-.7c-.2 0-.9.1-1.2.3z"/><path id="f" d="M193.7 55.3c-.2.4-.3.7-.2 1.1.1.3.4.6.8.6.3 0 .7-.1.9-.4.2-.2.4-.6.3-.9s-.3-.7-.6-.7c-.3-.1-.9 0-1.2.3z"/><path id="g" d="M195 59.3c-.2.4-.3.7-.2 1.1.1.3.4.6.8.6.3 0 .7-.1.9-.4.2-.2.4-.6.3-.9s-.3-.7-.6-.7-.9 0-1.2.3z"/><path id="h" d="M197.6 54c-.2.4-.3.7-.2 1.1.1.3.4.6.8.6.3 0 .7-.1.9-.4.2-.2.4-.6.3-.9s-.3-.7-.6-.7c-.2-.1-.8 0-1.2.3z"/><path id="i" d="M203.1 56.7c-.2.4-.3.7-.2 1.1.1.3.4.6.8.6.3 0 .7-.1.9-.4.2-.2.4-.6.3-.9s-.3-.7-.6-.7-.9.1-1.2.3z"/><path id="j" d="M144.2 105.5c-.2.4-.3.7-.2 1.1.1.3.4.6.8.6.3 0 .7-.1.9-.4.2-.2.4-.6.3-.9s-.3-.7-.6-.7c-.2 0-.8 0-1.2.3z"/><path id="k" d="M101.9 79.5a.78.78 0 0 0-.4-.4c-.2-.1-.3-.1-.5-.1l2-.6"/><path id="l" d="M118.4 72.8c.1.4.3.9.4 1.3v.1h.1c.3-.1.6-.3 1-.4-.2-.2-.4-.5-.5-.9 0-.3.1-.7.4-.8h.3c.3 0 .6.2.7.5s.1.8-.1 1"/><path id="m" d="M161.1 59.4l.3 1.1h.1c.3-.1.6-.3 1-.4-.2-.2-.4-.4-.4-.7s.2-.6.5-.7h.3c.3 0 .5.2.7.4.1.2 0 .7-.1.9"/><path id="n" d="M184.2 55.1c-.2.3-.5.2-.8.1-.2-.1-.3-.7-.1-.9.2-.1.4-.2.5-.2.2 0 .4.1.7.2l1 .5c-.2-.7-.2-.7-.5-1.4"/><path id="o" d="M184.7 52.2c.1.2 0 .3-.1.5-.1.1-.3.3-.5.3-.3.1-.7.2-1.1.1-.2-.1-.4-.3-.5-.5 0-.2 0-.5.2-.6.2-.3.6-.4 1-.5.2 0 .4 0 .6.1.2.2.3.3.4.6"/><path id="p" d="M205.4 48.7a.53.53 0 0 1-.8.1c-.2-.1-.3-.7-.1-.9.2-.1.4-.2.6-.2s.5 0 .7.2l1.1.5c-.2-.7-.2-.7-.5-1.4"/><path id="q" d="M226.3 42c-.1-.3-.2-.7-.3-1.1.3.2.7.3 1 .5-.1-.2-.2-.4-.1-.6.1-.3.4-.5.7-.5s.6.3.7.6.1.6-.1.9h-.1"/><path id="r" d="M183 74.5c-.7-.7-.9-1.8-.3-2.7 2.3-3.4 4.9-6.9 8.1-9.5.1-.1.2-.2.4-.2s.3.1.5.2a3.04 3.04 0 0 0 .7.5c.9.7 1 2.1.2 3-2.7 3-5.2 6.2-7.2 9.7-.1.2-.3.4-.5.4-.1 0-.2-.1-.3-.2-.5-.2-1-.7-1.6-1.2z"/><path id="s" d="M283.2 92.4l-4.5 7.8c3.2-.4 6.5-.6 9.9-.6.4 0 .8 0 1-.2.1-.1.1-.2.2-.2l3.5-7.6c0-.1.1-.2 0-.3s-.5-.1-.7-.1c-2.9.5-5.9.7-9.1.6-.2 0-.4 0-.5.1 0 .1.4.1.2 0"/><path id="t" d="M285.1 69l-3.4-14.3c3.1 1.4 6.4 2.4 9.7 3.2.4.1.8.2 1 .5.1.1.1.3.1.5l2.5 13.8c0 .2.1.3 0 .5-.2.2-.5.1-.7 0-2.8-1.5-5.8-2.4-8.9-2.9-.2 0-.4-.1-.4-.3s.4 0 .2 0"/><path id="u" d="M285.8 68.9l-3.4-14.3c-.4.3-.7.6-1.1.8l5.8 2.2 2.9.8 1.4.3c.5.2.4.6.5 1.1l1.2 6.3.6 3.4.3 1.6c.1.5.4 1.3.3 1.8.1-.1.2-.3.3-.4-.1.1-1.9-.9-2.1-1-.7-.3-1.5-.6-2.2-.8-.8-.3-1.6-.5-2.4-.7-.3-.1-2.3-.3-2.3-.4v.8s0-.1.1-.1c-.2.1-.4.2-.6.4h-.2l-.3-1v.1c-.5.8.8 1.6 1.3.8v-.1c.2-.4.1-.8-.3-1-.8-.5-1.7.3-1.3 1.1.3.5.7.5 1.2.6.8.1 1.7.3 2.5.5 1.5.4 3 .9 4.4 1.5.8.4 2.2 1.5 3.1.7.4-.3.4-.8.3-1.3-.1-.8-.3-1.6-.5-2.5l-.9-4.9-.9-4.8c-.2-1.2-.2-2.5-1.5-3-1.5-.6-3.2-.8-4.7-1.3l-5.2-1.9c-.6-.3-1.3.2-1.1.8l3.4 14.3c.2.9 1.6.5 1.4-.4h0z"/></defs></svg>