<svg xmlns="http://www.w3.org/2000/svg" xmlns:xlink="http://www.w3.org/1999/xlink" viewBox="0 0 186 181" xmlns:v="https://vecta.io/nano"><style><![CDATA[.O{stroke-miterlimit:10}.P{stroke-linecap:round}.Q{stroke-linejoin:round}.R{clip-path:url(#t)}.S{fill:#183e41}.T{stroke:#e73b49}.U{stroke:#376eb4}.V{stroke:#183e41}.W{stroke-width:.75}.X{fill:#f7c402}]]></style><path d="M182.8 90.5c0 47.8-40.2 86.6-89.8 86.6S3.2 138.3 3.2 90.5 43.4 3.9 93 3.9s89.8 38.8 89.8 86.6" fill="#e5e5e5"/><path d="M182.8 90.5c0 47.8-40.2 86.6-89.8 86.6S3.2 138.4 3.2 90.5C3.2 42.7 43.4 3.9 93 3.9s89.8 38.7 89.8 86.6" fill="#f7bfc2"/><path d="M181.3 90.5c0 17.7-5.8 35-16.3 49.3-10.4 14.1-25.2 24.9-41.7 30.7-17.4 6.1-36.6 6.8-54.4 1.9-17-4.6-32.5-14.3-44-27.7C13.5 131.3 6.3 114.5 5 97.1 3.6 79.3 8 61.5 17.4 46.5 26.7 31.7 40.5 20 56.5 13c16.9-7.5 36.2-9.5 54.3-5.9 17.4 3.4 33.6 12 46.1 24.6 12.3 12.4 20.6 28.4 23.4 45.6.7 4.3 1 8.8 1 13.2 0 1.9 3 1.9 3 0 0-18.3-6-36.3-16.8-51-10.8-14.6-25.9-25.7-43.1-31.8-18-6.4-37.9-7-56.3-2-17.5 4.8-33.6 14.8-45.4 28.7C10.8 48.2 3.4 65.5 2 83.7.5 102 5.1 120.6 14.9 136.1c9.6 15.3 23.9 27.4 40.4 34.6 17.5 7.6 37.2 9.7 56 6.1 18-3.5 34.8-12.4 47.7-25.4 12.7-12.8 21.4-29.4 24.2-47.3.7-4.5 1.1-9.1 1.1-13.6 0-2-3-2-3 0h0z"/><defs><path id="A" d="M182.8 90.5c0 47.8-40.2 86.5-89.8 86.6S3.2 138.3 3.2 90.5 43.4 4 93 4s89.8 38.7 89.8 86.5"/><path id="B" d="M10.9 51.9c-.2.4-.3.7-.2 1.1.1.3.4.6.8.6s.7-.1 1-.4c.2-.3.4-.6.3-.9s-.3-.7-.6-.7c-.4-.1-1 0-1.3.3z"/><path id="C" d="M12.2 55.9c-.2.4-.3.7-.2 1.1.1.3.4.6.8.6s.7-.1 1-.4c.2-.3.4-.6.3-.9s-.3-.7-.6-.7c-.4 0-1 0-1.3.3z"/><path id="D" d="M15.6 50.5c-.2.4-.3.7-.2 1.1.1.3.4.6.8.6s.7-.1 1-.4c.2-.3.4-.6.3-.9s-.3-.7-.6-.7c-.3-.1-1 0-1.3.3z"/><path id="E" d="M16.9 54.5c-.2.4-.3.7-.2 1.1.1.3.4.6.8.6s.7-.1 1-.4c.2-.3.4-.6.3-.9s-.3-.7-.6-.7-1 0-1.3.3z"/><path id="F" d="M25.6 51.7c-.2.4-.3.7-.2 1.1.1.3.4.6.8.6s.7-.1 1-.4c.2-.3.4-.6.3-.9s-.3-.7-.6-.7-.9 0-1.3.3z"/><path id="G" d="M28.4 46.4c-.2.4-.3.7-.2 1.1.1.3.4.6.8.6s.7-.1 1-.4c.2-.3.4-.6.3-.9s-.3-.7-.6-.7c-.3-.1-.9 0-1.3.3z"/><path id="H" d="M49.8 39.5c-.2.4-.3.7-.2 1.1.1.3.4.6.8.6s.7-.1 1-.4c.2-.3.4-.6.3-.9s-.3-.7-.6-.7-1 .1-1.3.3z"/><path id="I" d="M72.3 36.9c-.2.4-.3.7-.2 1.1.1.3.4.6.8.6s.7-.1 1-.4c.2-.3.4-.6.3-.9s-.3-.7-.6-.7c-.4 0-1 .1-1.3.3z"/><path id="J" d="M41.4 130.4c-.2.4-.3.7-.2 1.1.1.3.4.6.8.6s.7-.1 1-.4c.2-.2.4-.6.3-.9 0-.3-.3-.7-.6-.7s-1 0-1.3.3z"/><path id="K" d="M45.7 129.2c-.2.4-.3.7-.2 1.1.1.3.4.6.8.6s.7-.1 1-.4c.2-.2.4-.6.3-.9 0-.3-.3-.7-.6-.7-.3-.1-1 0-1.3.3z"/><path id="L" d="M55.5 130.7c-.2.4-.3.7-.2 1.1.1.3.4.6.8.6s.7-.1 1-.4c.2-.2.4-.6.3-.9 0-.3-.3-.7-.6-.7s-.9.1-1.3.3z"/><path id="M" d="M92.1 114.4c-.2.4-.3.7-.2 1.1.1.3.4.6.8.6s.7-.1 1-.4c.2-.3.4-.6.3-.9s-.3-.6-.7-.7c-.2-.1-.9 0-1.2.3z"/><path id="N" d="M93.5 118.5c-.2.4-.3.7-.2 1.1.1.3.4.6.8.6s.7-.1 1-.4c.2-.3.4-.6.3-.9s-.3-.6-.7-.7c-.3-.1-.9 0-1.2.3z"/><path id="O" d="M96.8 113c-.2.4-.3.7-.2 1.1.1.3.4.6.8.6s.7-.1 1-.4c.2-.3.4-.6.3-.9s-.3-.6-.7-.7c-.2-.1-.8 0-1.2.3z"/><path id="P" d="M109.6 108.7c-.2.4-.3.7-.2 1.1.1.3.4.6.8.6s.7-.1 1-.4c.2-.3.4-.6.3-.9s-.3-.6-.7-.7c-.2 0-.9 0-1.2.3z"/><path id="Q" d="M144.8 101.8c-.2.4-.4.7-.2 1.1.1.3.4.6.8.7.4 0 .7-.1 1-.4.2-.2.4-.6.4-.9s-.3-.7-.6-.7c-.4-.1-1.1-.1-1.4.2z"/><path id="R" d="M149.6 100.6c-.2.4-.4.7-.2 1.1.1.3.4.6.8.7.4 0 .7-.1 1-.4.2-.2.4-.6.4-.9s-.3-.7-.6-.7c-.4-.2-1.1-.1-1.4.2z"/><path id="S" d="M153.9 99.4c-.2.4-.4.7-.2 1.1.1.3.4.6.8.7.4 0 .7-.1 1-.4.2-.2.4-.6.4-.9s-.3-.7-.6-.7c-.5-.2-1.1-.1-1.4.2z"/><path id="T" d="M43.9 61.2c-.2.4-.3.7-.2 1.1.1.3.4.6.8.6s.7-.1.9-.4.4-.6.3-.9-.3-.7-.6-.7c-.3-.1-.9 0-1.2.3z"/><path id="U" d="M48.6 59.8c-.2.4-.3.7-.2 1.1.1.3.4.6.8.6s.7-.1.9-.4.4-.6.3-.9-.3-.7-.6-.7-.9 0-1.2.3z"/><path id="V" d="M49.8 63.9c-.2.4-.3.7-.2 1.1.1.3.4.6.8.6s.7-.1.9-.4.4-.6.3-.9-.3-.7-.6-.7c-.2-.1-.8 0-1.2.3z"/><path id="W" d="M54 62.5c-.2.4-.3.7-.2 1.1.1.3.4.6.8.6s.7-.1.9-.4.4-.6.3-.9-.3-.7-.6-.7-.9.1-1.2.3z"/><path id="X" d="M61.1 55.8c-.2.4-.3.7-.2 1.1.1.3.4.6.8.6s.7-.1.9-.4.4-.6.3-.9-.3-.7-.6-.7c-.2-.1-.9 0-1.2.3z"/><path id="Y" d="M48 74.1c-.2.4-.3.7-.2 1.1.1.3.4.6.8.6s.7-.1.9-.4.4-.6.3-.9-.3-.7-.6-.7c-.2 0-.9.1-1.2.3z"/><path id="Z" d="M56.8 71.4c-.2.4-.3.7-.2 1.1.1.3.4.6.8.6s.7-.1.9-.4.4-.6.3-.9-.3-.7-.6-.7c-.2 0-.9 0-1.2.3z"/><path id="a" d="M65.2 68.7c-.2.4-.3.7-.2 1.1.1.3.4.6.8.6s.7-.1.9-.4.4-.6.3-.9-.3-.7-.6-.7a3.46 3.46 0 0 0-1.2.3z"/><path id="b" d="M95.1 44.9c-.2.4-.3.7-.2 1.1.1.3.4.6.8.6.3 0 .7-.1.9-.4.2-.2.4-.6.3-.9s-.3-.7-.6-.7c-.3-.1-.9 0-1.2.3z"/><path id="c" d="M99.7 43.5c-.2.4-.3.7-.2 1.1.1.3.4.6.8.6.3 0 .7-.1.9-.4.2-.2.4-.6.3-.9s-.3-.7-.6-.7-.9 0-1.2.3z"/><path id="d" d="M108.1 40.8c-.2.4-.3.7-.2 1.1.1.3.4.6.8.6.3 0 .7-.1.9-.4.2-.2.4-.6.3-.9s-.3-.7-.6-.7c-.2 0-.9 0-1.2.3z"/><path id="e" d="M109.4 44.9c-.2.4-.3.7-.2 1.1.1.3.4.6.8.6.3 0 .7-.1.9-.4.2-.2.4-.6.3-.9s-.3-.7-.6-.7c-.2-.1-.9 0-1.2.3z"/><path id="f" d="M114.9 48.4c-.2.4-.3.7-.2 1.1.1.3.4.6.8.6.3 0 .7-.1.9-.4.2-.2.4-.6.3-.9s-.3-.7-.6-.7c-.2 0-.9.1-1.2.3z"/><path id="g" d="M55.4 96.5c-.2.4-.3.7-.2 1.1.1.3.4.6.8.6.3 0 .7-.1.9-.4.2-.2.4-.6.3-.9s-.3-.7-.6-.7-.9.1-1.2.3z"/><path id="h" d="M72.8 106.1c-.2.4-.3.7-.2 1.1.1.3.4.6.8.6.3 0 .7-.1.9-.4.2-.2.4-.6.3-.9s-.3-.7-.6-.7c-.2-.1-.8 0-1.2.3z"/><path id="i" d="M16.4 65.1a.78.78 0 0 0-.4-.4c-.2-.1-.3-.1-.5-.1l2-.6"/><path id="j" d="M32.9 58.4c.1.4.3.9.4 1.3v.1h.1c.3-.1.6-.3 1-.4-.2-.2-.4-.5-.5-.9 0-.3.1-.7.4-.8h.3c.3 0 .6.2.7.5s.1.8-.1 1"/><path id="k" d="M75.5 45l.3 1.1h.1c.3-.1.6-.3 1-.4-.2-.2-.4-.4-.4-.7s.2-.6.5-.7h.3c.3 0 .5.2.7.4.1.2 0 .7-.1.9"/><path id="l" d="M98.6 40.7c-.2.3-.5.2-.8.1-.2-.1-.3-.7-.1-.9.2-.1.4-.2.5-.2.2 0 .4.1.7.2l1 .5c-.2-.7-.2-.7-.5-1.4"/><path id="m" d="M99.1 37.8c.1.2 0 .3-.1.5-.1.1-.3.3-.5.3-.3.1-.7.2-1.1.1-.2-.1-.4-.3-.5-.5 0-.2 0-.5.2-.6.2-.3.6-.4 1-.5.2 0 .4 0 .6.1s.4.3.4.6"/><path id="n" d="M119.8 34.3a.53.53 0 0 1-.8.1c-.2-.1-.3-.7-.1-.9.2-.1.4-.2.6-.2s.5 0 .7.2l1.1.5c-.2-.7-.2-.7-.5-1.4"/><path id="o" d="M140.8 27.5c-.1-.3-.2-.7-.3-1.1.3.2.7.3 1 .5-.1-.2-.2-.4-.1-.6.1-.3.4-.5.7-.5s.6.3.7.6.1.6-.1.9h-.1"/><path id="p" d="M142.2 24.4c.1.1 0 .3-.1.5-.1.1-.3.3-.6.3-.4.2-.8.3-1.1.2s-.4-.2-.5-.5c0-.2 0-.5.2-.6.3-.3.7-.4 1.1-.5.2 0 .4 0 .6.1.2 0 .4.2.4.5"/><path id="q" d="M92.5 59c-.7-.7-.9-1.8-.3-2.7 2.3-3.4 4.9-6.9 8.1-9.5.1-.1.2-.2.4-.2s.3.1.5.2a3.04 3.04 0 0 0 .7.5c.9.7 1 2.1.2 3-2.7 3-5.2 6.2-7.2 9.7-.1.2-.3.4-.5.4-.1 0-.2-.1-.3-.2-.5-.1-1.1-.7-1.6-1.2z"/><path id="r" d="M109.8 119.1l-5.1 7.5 9.9.1c.4 0 .8 0 1-.1l.2-.2 4.1-7.3c0-.1.1-.2 0-.3-.1-.2-.5-.2-.7-.1-2.9.3-6 .2-9.1-.1-.2 0-.4 0-.5.1 0 .1.4.1.2 0"/><path id="s" d="M113.5 95.9l-2.3-14.5c3 1.6 6.2 2.9 9.4 3.9.4.1.8.3.9.6.1.1.1.3.1.5l1.5 13.9c0 .2 0 .3-.1.5-.2.2-.5.1-.7-.1-2.7-1.7-5.6-2.9-8.7-3.5-.2 0-.4-.1-.4-.3s.4 0 .2.1"/></defs><clipPath id="t"><use xlink:href="#A"/></clipPath><g class="R S"><path d="M70.3 130.5c1.1 8.1 1.6 16.4 1.4 24.6.6-.7 1.1-1.4 1.7-2.2-2.6.8-5.3 1.4-8 1.6-1.2.1-2.3.9-2.3 2.2 0 1.1 1 2.4 2.3 2.2a48.29 48.29 0 0 0 9.2-1.8c1-.3 1.6-1.2 1.7-2.2a159.55 159.55 0 0 0-1.5-25.8c-.2-1.2-1.7-1.9-2.8-1.6-1.4.6-1.9 1.8-1.7 3h0z"/></g><g class="R"><path d="M172.3 91.7c1.7 5.4 3 8.3-1.1 9.7l-47.7 16.3c-25.8 8.2-63.6 22-91.3 28-3.2-3.7-5.8-14.4-7.3-19L1.4 56.6c-1.6-4.8 1.3-10 6.4-11.6L126.5 6.9c4.9-1.6 10.1-3.2 15-2.3 1.1.2 2.3.6 3 1.3.8.8 1.1 2 1.4 3.2l26.4 82.6z" fill="#fff6bd"/><path d="M170.8 92.1c.6 1.9 1.6 4.1 1.5 6-.1 1.5-1.6 1.8-2.8 2.3l-13.7 4.8-32.4 10.9-58.8 19.2c-10.9 3.3-21.9 6.5-33 8.9.5.1 1 .3 1.5.4-1.8-2.2-2.8-5.2-3.7-7.9-1-3-1.9-6.1-2.8-9.1-2.8-9-6-17.9-9-26.9L8.1 72.3 3.4 58.1c-.6-1.8-1.2-3.4-.9-5.3.3-1.6 1-3.1 2.2-4.2 1.4-1.4 3.1-2 4.9-2.6 1.7-.6 3.5-1.1 5.2-1.7L34.4 38l26.8-8.6 28-9 23.6-7.6L126 8.6c3-1 6.1-2 9.3-2.5 2.2-.4 4.6-.5 6.8.1.9.2 1.6.6 2.1 1.4.5 1 .7 2.2 1 3.3l4.3 14L166.7 79l4.1 13.1c.6 1.8 3.5 1.1 2.9-.8L156 36l-8.7-28.1c-.6-2-1.6-3.5-3.6-4.3s-4.3-.9-6.4-.7c-3.8.2-7.5 1.4-11.1 2.5l-9.3 3-21.8 7-28.1 9-28.1 9-21.9 7-9.5 3c-2.6.9-4.9 2.5-6.4 4.9-.9 1.5-1.4 3.2-1.6 4.9-.1 2 .5 3.7 1.1 5.6L10.3 88l9.7 29.1c1.4 4.1 2.8 8.1 4 12.2 1 3.2 1.9 6.4 3 9.5 1 2.8 2.1 5.6 4 7.9.4.4 1 .5 1.5.4 21.1-4.5 41.6-11.5 62-18.3l62.1-20.7c5.1-1.8 10.4-3.4 15.4-5.4 5-2.1 2.8-7.4 1.6-11.3-.5-1.9-3.4-1.1-2.8.7z" class="S"/><path d="M34.4 131.3c16.9-4.5 33.5-9.9 50-15.5l50.1-16.7c9.5-2.9 19-5.7 28.6-8.1.9-.2.5-1.7-.4-1.4-17.1 4.3-33.8 9.6-50.5 15.2l-49.9 16.8c-9.4 3-18.8 5.8-28.3 8.4-1 .1-.6 1.5.4 1.3h0z" fill="#376eb4"/><path d="M38 141.1c16.9-4.5 33.5-9.8 50.1-15.3l49.9-16.7 28.3-8.7c.9-.3.5-1.7-.4-1.4-16.8 4.8-33.4 10.3-50 15.9L66 131.4c-9.4 2.9-18.9 5.7-28.4 8.3-.9.2-.5 1.6.4 1.4h0z" fill="#e73b49"/><path d="M9.1 50.9c16.8-4.5 33.3-9.9 49.7-15.5l49.6-16.5c9.4-2.9 19-5.7 28.5-8.1.9-.2.5-1.7-.4-1.4-17 4.3-33.7 9.6-50.2 15.1L36.9 41.1c-9.3 3-18.7 5.8-28.2 8.3-1 .3-.6 1.7.4 1.5h0z" fill="#376eb4"/><path d="M11.8 61c16.9-4.5 33.5-9.8 50.1-15.3L111.8 29l28.7-8.9c.9-.3.5-1.7-.4-1.4-17 4.9-33.8 10.5-50.5 16.1L39.8 51.3c-9.4 2.9-18.9 5.7-28.4 8.3-.9.2-.5 1.7.4 1.4h0z" fill="#e73b49"/><g fill="none" class="O P Q"><g class="T"><path d="M8.4 62.6l-.9-2.9"/><path d="M6.7 61.7l2.7-.9"/></g><path d="M6.6 53.2l-.9-2.9" class="U"/><g class="T"><path d="M144 19.6c-.3-.8-.6-1.7-.8-2.6"/><path d="M142.5 18.8c.8-.2 1.6-.5 2.4-.8"/></g><path d="M141 11l-.8-2.4" class="U"/><g class="T"><path d="M169.8 99.2c-.3-.8-.6-1.7-.8-2.6"/><path d="M168.2 98.4c.8-.2 1.6-.5 2.4-.8"/></g><path d="M166.8 90.6l-.8-2.4" class="U"/><g class="T"><path d="M34 141.8c-.3-.8-.6-1.7-.8-2.6"/><path d="M32.5 141c.8-.2 1.6-.5 2.4-.8"/></g><path d="M31.7 133.1l-.8-2.4" class="U"/></g><g class="S"><path d="M15 96.9c18.8-5.6 37.6-11.7 56.3-17.8l56-18.2 32.1-9.8c.9-.3.5-1.7-.4-1.4-19 5.6-37.9 11.6-56.7 17.7L46.4 85.6l-31.8 9.8c-.9.3-.5 1.7.4 1.5h0zm2 4.2c18.6-5.6 37.1-11.5 55.6-17.6l55-18c10.6-3.4 21.2-6.6 31.9-9.7.9-.3.5-1.7-.4-1.4-18.8 5.5-37.4 11.5-56.1 17.6L48.1 90l-31.5 9.8c-.9.1-.5 1.6.4 1.3h0z"/><use xlink:href="#B"/><use xlink:href="#C"/><use xlink:href="#D"/><use xlink:href="#E"/><path d="M19.9 49.1c-.2.4-.3.7-.2 1.1.1.3.4.6.8.6s.7-.1 1-.4c.2-.3.4-.6.3-.9s-.3-.7-.6-.7c-.4-.1-1 0-1.3.3zm1.3 4.1c-.2.4-.3.7-.2 1.1.1.3.4.6.8.6s.7-.1 1-.4c.2-.3.4-.6.3-.9s-.3-.7-.6-.7c-.4-.1-1 0-1.3.3zm3.2-5.5c-.2.4-.3.7-.2 1.1.1.3.4.6.8.6s.7-.1 1-.4c.2-.3.4-.6.3-.9s-.3-.7-.6-.7c-.4-.1-1 0-1.3.3z"/><use xlink:href="#F"/><use xlink:href="#G"/><path d="M29.7 50.4c-.2.4-.3.7-.2 1.1.1.3.4.6.8.6s.7-.1 1-.4c.2-.3.4-.6.3-.9s-.3-.7-.6-.7-.9 0-1.3.3zm3-5.4c-.2.4-.3.7-.2 1.1.1.3.4.6.8.6s.7-.1 1-.4c.2-.3.4-.6.3-.9s-.3-.7-.6-.7c-.4 0-1 0-1.3.3zm1.3 4.1c-.2.4-.3.7-.2 1.1.1.3.4.6.8.6s.7-.1 1-.4c.2-.3.4-.6.3-.9s-.3-.7-.6-.7c-.4-.1-1 0-1.3.3zm6.8-6.8c-.2.4-.3.7-.2 1.1.1.3.4.6.8.6s.7-.1 1-.4c.2-.3.4-.6.3-.9s-.3-.7-.6-.7-.9 0-1.3.3zm1.3 4.1c-.2.4-.3.7-.2 1.1.1.3.4.6.8.6s.7-.1 1-.4c.2-.3.4-.6.3-.9s-.3-.7-.6-.7c-.3-.1-.9 0-1.3.3zm3.5-5.5c-.2.4-.3.7-.2 1.1.1.3.4.6.8.6s.7-.1 1-.4c.2-.3.4-.6.3-.9s-.3-.7-.6-.7c-.4-.1-1 0-1.3.3zm1.3 4.1c-.2.4-.3.7-.2 1.1.1.3.4.6.8.6s.7-.1 1-.4c.2-.3.4-.6.3-.9s-.3-.7-.6-.7c-.4-.1-1 0-1.3.3z"/><use xlink:href="#H"/><path d="M51.1 43.6c-.2.4-.3.7-.2 1.1.1.3.4.6.8.6s.7-.1 1-.4c.2-.3.4-.6.3-.9s-.3-.7-.6-.7c-.3-.1-1 0-1.3.3zm3.2-5.5c-.2.4-.3.7-.2 1.1.1.3.4.6.8.6s.7-.1 1-.4c.2-.3.4-.6.3-.9s-.3-.7-.6-.7c-.3-.1-1 0-1.3.3zm1.3 4.1c-.2.4-.3.7-.2 1.1.1.3.4.6.8.6s.7-.1 1-.4c.2-.3.4-.6.3-.9s-.3-.7-.6-.7c-.3-.1-1 0-1.3.3zm2.8-5.4c-.2.4-.3.7-.2 1.1.1.3.4.6.8.6s.7-.1 1-.4c.2-.3.4-.6.3-.9s-.3-.7-.6-.7c-.3-.1-1 0-1.3.3zm1.3 4.1c-.2.4-.3.7-.2 1.1.1.3.4.6.8.6s.7-.1 1-.4c.2-.3.4-.6.3-.9s-.3-.7-.6-.7c-.3-.1-1 0-1.3.3zm6.5-6.6c-.2.4-.3.7-.2 1.1.1.3.4.6.8.6s.7-.1 1-.4c.2-.3.4-.6.3-.9s-.3-.7-.6-.7c-.3-.1-.9 0-1.3.3zm1.3 4.1c-.2.4-.3.7-.2 1.1.1.3.4.6.8.6s.7-.1 1-.4c.2-.3.4-.6.3-.9s-.3-.7-.6-.7c-.3-.1-.9 0-1.3.3zm3.5-5.5c-.2.4-.3.7-.2 1.1.1.3.4.6.8.6s.7-.1 1-.4c.2-.3.4-.6.3-.9s-.3-.7-.6-.7c-.4-.1-1 0-1.3.3z"/><use xlink:href="#I"/><path d="M75.2 31.5c-.2.4-.3.7-.2 1.1.1.3.4.6.8.6s.7-.1 1-.4c.2-.3.4-.6.3-.9s-.3-.7-.6-.7-1 0-1.3.3zm1.3 4.1c-.2.4-.3.7-.2 1.1.1.3.4.6.8.6s.7-.1 1-.4c.2-.3.4-.6.3-.9s-.3-.7-.6-.7c-.3-.1-1 0-1.3.3zm3.2-5.5c-.2.4-.3.7-.2 1.1.1.3.4.6.8.6s.7-.1 1-.4c.2-.3.4-.6.3-.9s-.3-.7-.6-.7c-.3-.1-1 0-1.3.3zm1.3 4.1c-.2.4-.3.7-.2 1.1.1.3.4.6.8.6s.7-.1 1-.4c.2-.3.4-.6.3-.9s-.3-.7-.6-.7c-.3-.1-1 0-1.3.3zm2.8-5.4c-.2.4-.3.7-.2 1.1.1.3.4.6.8.6s.7-.1 1-.4c.2-.3.4-.6.3-.9s-.3-.7-.6-.7c-.3-.1-1 0-1.3.3zm1.3 4.1c-.2.4-.3.7-.2 1.1.1.3.4.6.8.6s.7-.1 1-.4c.2-.3.4-.6.3-.9s-.3-.7-.6-.7c-.3-.1-1 0-1.3.3zm6.1-6.9c-.2.4-.3.7-.2 1.1.1.3.4.6.8.6s.7-.1 1-.4c.2-.3.4-.6.3-.9s-.3-.7-.6-.7-1 0-1.3.3zm1.3 4.1c-.2.4-.3.7-.2 1.1.1.3.4.6.8.6s.7-.1 1-.4c.2-.3.4-.6.3-.9s-.3-.7-.6-.7c-.3-.1-1 0-1.3.3zm3.5-5.5c-.2.4-.3.7-.2 1.1.1.3.4.6.8.6s.7-.1 1-.4c.2-.3.4-.6.3-.9s-.3-.7-.6-.7c-.4-.1-1 0-1.3.3zm1.3 4.1c-.2.4-.3.7-.2 1.1.1.3.4.6.8.6s.7-.1 1-.4c.2-.3.4-.6.3-.9s-.3-.7-.6-.7c-.4-.1-1 0-1.3.3zm2.9-5.5c-.2.4-.3.7-.2 1.1.1.3.4.6.8.6s.7-.1 1-.4c.2-.3.4-.6.3-.9s-.3-.7-.6-.7-1 .1-1.3.3zm1.3 4.1c-.2.4-.3.7-.2 1.1.1.3.4.6.8.6s.7-.1 1-.4c.2-.3.4-.6.3-.9s-.3-.7-.6-.7c-.3-.1-1 0-1.3.3zm3.2-5.5c-.2.4-.3.7-.2 1.1.1.3.4.6.8.6s.7-.1 1-.4c.2-.3.4-.6.3-.9s-.3-.7-.6-.7-1 0-1.3.3zm1.3 4.1c-.2.4-.3.7-.2 1.1.1.3.4.6.8.6s.7-.1 1-.4c.2-.3.4-.6.3-.9s-.3-.7-.6-.7c-.4-.1-1 0-1.3.3zm2.8-5.4c-.2.4-.3.7-.2 1.1.1.3.4.6.8.6s.7-.1 1-.4c.2-.3.4-.6.3-.9s-.3-.7-.6-.7c-.4-.1-1 0-1.3.3zm1.3 4.1c-.2.4-.3.7-.2 1.1.1.3.4.6.8.6s.7-.1 1-.4c.2-.3.4-.6.3-.9s-.3-.7-.6-.7c-.4-.1-1 0-1.3.3zm6.8-6.8c-.2.4-.3.7-.2 1.1.1.3.4.6.8.6s.7-.1 1-.4c.2-.3.4-.6.3-.9s-.3-.7-.6-.7c-.4 0-1 0-1.3.3zm1.3 4.1c-.2.4-.3.7-.2 1.1.1.3.4.6.8.6s.7-.1 1-.4c.2-.3.4-.6.3-.9s-.3-.7-.6-.7c-.4-.1-1 0-1.3.3zm3.4-5.5c-.2.4-.3.7-.2 1.1.1.3.4.6.8.6s.7-.1 1-.4c.2-.3.4-.6.3-.9s-.3-.7-.6-.7-1 0-1.3.3zm1.3 4.1c-.2.4-.3.7-.2 1.1.1.3.4.6.8.6s.7-.1 1-.4c.2-.3.4-.6.3-.9s-.3-.7-.6-.7c-.3-.1-1 0-1.3.3zm2.9-5.4c-.2.4-.3.7-.2 1.1.1.3.4.6.8.6s.7-.1 1-.4c.2-.3.4-.6.3-.9s-.3-.7-.6-.7c-.3-.1-.9 0-1.3.3zm1.3 4c-.2.4-.3.7-.2 1.1.1.3.4.6.8.6s.7-.1 1-.4c.2-.3.4-.6.3-.9s-.3-.7-.6-.7-.9 0-1.3.3zm3.2-5.5c-.2.4-.3.7-.2 1.1.1.3.4.6.8.6s.7-.1 1-.4c.2-.3.4-.6.3-.9s-.3-.7-.6-.7-1 0-1.3.3zm1.3 4.1c-.2.4-.3.7-.2 1.1.1.3.4.6.8.6s.7-.1 1-.4c.2-.3.4-.6.3-.9s-.3-.7-.6-.7c-.3-.1-1 0-1.3.3zm2.8-5.4c-.2.4-.3.7-.2 1.1.1.3.4.6.8.6s.7-.1 1-.4c.2-.3.4-.6.3-.9s-.3-.7-.6-.7-1 0-1.3.3zm1.3 4.1c-.2.4-.3.7-.2 1.1.1.3.4.6.8.6s.7-.1 1-.4c.2-.3.4-.6.3-.9s-.3-.7-.6-.7c-.3-.1-1 0-1.3.3zM36.6 131.7c-.2.4-.3.7-.2 1.1.1.3.4.6.8.6s.7-.1 1-.4c.2-.2.4-.6.3-.9s-.3-.7-.6-.7-.9.1-1.3.3zm1.2 4.1c-.2.4-.3.7-.2 1.1.1.3.4.6.8.6s.7-.1 1-.4c.2-.2.4-.6.3-.9 0-.3-.3-.7-.6-.7s-.9 0-1.3.3z"/><use xlink:href="#J"/><path d="M42.6 134.5c-.2.4-.3.7-.2 1.1.1.3.4.6.8.6s.7-.1 1-.4c.2-.2.4-.6.3-.9 0-.3-.3-.7-.6-.7s-1 0-1.3.3z"/><use xlink:href="#K"/><path d="M46.9 133.3c-.2.4-.3.7-.2 1.1.1.3.4.6.8.6s.7-.1 1-.4c.2-.2.4-.6.3-.9 0-.3-.3-.7-.6-.7-.3-.1-1 0-1.3.3zm3.3-5.4c-.2.4-.3.7-.2 1.1.1.3.4.6.8.6s.7-.1 1-.4c.2-.2.4-.6.3-.9 0-.3-.3-.7-.6-.7-.3-.1-1 0-1.3.3zm1.2 4c-.2.4-.3.7-.2 1.1.1.3.4.6.8.6s.7-.1 1-.4c.2-.2.4-.6.3-.9s-.3-.7-.6-.7-1 .1-1.3.3zm2.9-5.2c-.2.4-.3.7-.2 1.1.1.3.4.6.8.6s.7-.1 1-.4c.2-.2.4-.6.3-.9 0-.3-.3-.7-.6-.7-.3-.1-.9 0-1.3.3z"/><use xlink:href="#L"/><path d="M58.6 125.4c-.2.4-.3.7-.2 1.1.1.3.4.6.8.6s.7-.1 1-.4c.2-.2.4-.6.3-.9s-.3-.7-.6-.7-1 0-1.3.3zm1.2 4.1c-.2.4-.3.7-.2 1.1.1.3.4.6.8.6s.7-.1 1-.4c.2-.2.4-.6.3-.9 0-.3-.3-.7-.6-.7s-1 0-1.3.3zm6.6-6.8c-.2.4-.3.7-.2 1.1.1.3.4.6.8.6s.7-.1 1-.4c.2-.2.4-.6.3-.9 0-.3-.3-.7-.6-.7-.3-.1-1 0-1.3.3zm1.2 4.1c-.2.4-.3.7-.2 1.1.1.3.4.6.8.6s.7-.1 1-.4c.2-.2.4-.6.3-.9 0-.3-.3-.7-.6-.7-.3-.1-1 0-1.3.3zm3.6-5.5c-.2.4-.3.7-.2 1.1.1.3.4.6.8.6s.7-.1 1-.4c.2-.2.4-.6.3-.9 0-.3-.3-.7-.6-.7-.4 0-1 .1-1.3.3zm1.2 4.1c-.2.4-.3.7-.2 1.1.1.3.4.6.8.6s.7-.1 1-.4c.2-.2.4-.6.3-.9 0-.3-.3-.7-.6-.7s-1 0-1.3.3zm3-5.3c-.2.4-.3.7-.2 1.1.1.3.4.6.8.6s.7-.1 1-.4c.2-.2.4-.6.3-.9 0-.3-.3-.7-.6-.7-.3-.1-1 0-1.3.3zm1.2 4c-.2.4-.3.7-.2 1.1.1.3.4.6.8.6s.7-.1 1-.4c.2-.2.4-.6.3-.9 0-.3-.3-.7-.6-.7s-.9.1-1.3.3zm3.3-5.4c-.2.4-.3.7-.2 1.1.1.3.4.6.8.6s.7-.1 1-.4c.2-.2.4-.6.3-.9 0-.3-.3-.7-.6-.7-.3-.1-1 0-1.3.3zm1.3 4.1c-.2.4-.3.7-.2 1.1.1.3.4.6.8.6s.7-.1 1-.4c.2-.2.4-.6.3-.9 0-.3-.3-.7-.6-.7-.4-.1-1 0-1.3.3zm2.8-5.4c-.2.4-.3.7-.2 1.1.1.3.4.6.8.6s.7-.1 1-.4c.2-.2.4-.6.3-.9 0-.3-.3-.7-.6-.7s-.9.1-1.3.3zm1.3 4.1c-.2.4-.3.7-.2 1.1.1.3.4.6.8.6s.7-.1 1-.4c.2-.2.4-.6.3-.9 0-.3-.3-.7-.6-.7-.4 0-1 0-1.3.3z"/><use xlink:href="#M"/><use xlink:href="#N"/><use xlink:href="#O"/><path d="M98.2 117c-.2.4-.3.7-.2 1.1.1.3.4.6.8.6s.7-.1 1-.4c.2-.3.4-.6.3-.9s-.3-.6-.7-.7c-.3-.1-.9 0-1.2.3zm2.9-5.4c-.2.4-.3.7-.2 1.1.1.3.4.6.8.6s.7-.1 1-.4c.2-.3.4-.6.3-.9s-.3-.6-.7-.7c-.3-.1-.9 0-1.2.3zm1.3 4c-.2.4-.3.7-.2 1.1.1.3.4.6.8.6s.7-.1 1-.4c.2-.3.4-.6.3-.9s-.3-.6-.7-.7c-.2-.1-.9 0-1.2.3zm3.1-5.5c-.2.4-.3.7-.2 1.1.1.3.4.6.8.6s.7-.1 1-.4c.2-.3.4-.6.3-.9s-.3-.6-.7-.7c-.2-.1-.8 0-1.2.3zm1.4 4c-.2.4-.3.7-.2 1.1.1.3.4.6.8.6s.7-.1 1-.4c.2-.3.4-.6.3-.9s-.3-.6-.7-.7c-.3 0-.9 0-1.2.3z"/><use xlink:href="#P"/><path d="M111 112.8c-.2.4-.3.7-.2 1.1.1.3.4.6.8.6s.7-.1 1-.4c.2-.3.4-.6.3-.9s-.3-.6-.7-.7c-.3-.1-.9 0-1.2.3zm7.1-6.8c-.2.4-.3.7-.2 1.1.1.3.4.6.8.6s.7-.1 1-.4c.2-.3.4-.6.3-.9s-.3-.6-.7-.7c-.3-.1-.9 0-1.2.3zm1.3 4c-.2.4-.3.7-.2 1.1.1.3.4.6.8.6s.7-.1 1-.4c.2-.3.4-.6.3-.9s-.3-.6-.7-.7c-.2 0-.9.1-1.2.3zm3.4-5.5c-.2.4-.3.7-.2 1.1.1.3.4.6.8.6s.7-.1 1-.4c.2-.3.4-.6.3-.9s-.3-.6-.7-.7c-.2 0-.9 0-1.2.3zm1.3 4.1c-.2.4-.3.7-.2 1.1.1.3.4.6.8.6s.7-.1 1-.4c.2-.3.4-.6.3-.9s-.3-.6-.7-.7c-.2-.1-.9 0-1.2.3zm2.9-5.5c-.2.4-.3.7-.2 1.1.1.3.4.6.8.6s.7-.1 1-.4c.2-.3.4-.6.3-.9s-.3-.6-.7-.7c-.2 0-.9 0-1.2.3z"/><path d="M128.4 107.2c-.2.4-.3.7-.2 1.1.1.3.4.6.8.6s.7-.1 1-.4c.2-.3.4-.6.3-.9s-.3-.6-.7-.7c-.3-.1-.9 0-1.2.3zm3.1-5.5c-.2.4-.3.7-.2 1.1.1.3.4.6.8.6s.7-.1 1-.4c.2-.3.4-.6.3-.9s-.3-.6-.7-.7c-.2-.1-.9 0-1.2.3zm1.3 4c-.2.4-.3.7-.2 1.1.1.3.4.6.8.6s.7-.1 1-.4c.2-.3.4-.6.3-.9s-.3-.6-.7-.7c-.2-.1-.9 0-1.2.3zm2.8-5.4c-.2.4-.3.7-.2 1.1.1.3.4.6.8.6s.7-.1 1-.4c.2-.3.4-.6.3-.9s-.3-.6-.7-.7c-.3-.1-.9 0-1.2.3zm1.3 4.1c-.2.4-.3.7-.2 1.1.1.3.4.6.8.6s.7-.1 1-.4c.2-.3.4-.6.3-.9s-.3-.6-.7-.7c-.2-.1-.9 0-1.2.3zm6.8-6.7c-.2.4-.4.7-.2 1.1.1.3.4.6.8.7.4 0 .7-.1 1-.4.2-.2.4-.6.4-.9s-.3-.7-.6-.7c-.5-.1-1.1-.1-1.4.2z"/><use xlink:href="#Q"/><path d="M148.4 96.4c-.2.4-.4.7-.2 1.1.1.3.4.6.8.7.4 0 .7-.1 1-.4.2-.2.4-.6.4-.9s-.3-.7-.6-.7c-.4-.1-1 0-1.4.2z"/><use xlink:href="#R"/><path d="M152.7 95.3c-.2.4-.4.7-.2 1.1.1.3.4.6.8.7.4 0 .7-.1 1-.4.2-.2.4-.6.4-.9s-.3-.7-.6-.7c-.4-.2-1-.1-1.4.2z"/><use xlink:href="#S"/><path d="M157.3 94c-.2.4-.4.7-.2 1.1.1.3.4.6.8.7.4 0 .7-.1 1-.4.2-.2.4-.6.4-.9s-.3-.7-.6-.7c-.4-.1-1.1-.1-1.4.2zm1.1 4.1c-.2.4-.4.7-.2 1.1.1.3.4.6.8.7.4 0 .7-.1 1-.4.2-.2.4-.6.4-.9s-.3-.7-.6-.7c-.4-.1-1.1-.1-1.4.2zm3-5.2c-.2.4-.4.7-.2 1.1.1.3.4.6.8.7.4 0 .7-.1 1-.4.2-.2.4-.6.4-.9s-.3-.7-.6-.7c-.4-.2-1.1-.1-1.4.2zm1.2 4.1c-.2.4-.4.7-.2 1.1.1.3.4.6.8.7.4 0 .7-.1 1-.4.2-.2.4-.6.4-.9s-.3-.7-.6-.7c-.5-.2-1.1-.1-1.4.2zM17.9 69.6c-.2.4-.3.7-.2 1.1.1.3.4.6.8.6s.7-.1 1-.4c.2-.3.4-.6.3-.9s-.3-.7-.6-.7c-.4 0-1 0-1.3.3zm1.3 4.1c-.2.4-.3.7-.2 1.1.1.3.4.6.8.6s.7-.1 1-.4c.2-.3.4-.6.3-.9s-.3-.7-.6-.7c-.4-.1-1 0-1.3.3zm3.4-5.5c-.2.4-.3.7-.2 1.1.1.3.4.6.8.6s.7-.1 1-.4c.2-.3.4-.6.3-.9s-.3-.7-.6-.7-1 0-1.3.3zm1.3 4.1c-.2.4-.3.7-.2 1.1.1.3.4.6.8.6s.7-.1 1-.4c.2-.3.4-.6.3-.9s-.3-.7-.6-.7c-.3-.1-1 0-1.3.3zm2.9-5.4c-.2.4-.3.7-.2 1.1.1.3.4.6.8.6s.7-.1 1-.4c.2-.3.4-.6.3-.9s-.3-.7-.6-.7c-.3-.1-.9 0-1.3.3zm1.3 4c-.2.4-.3.7-.2 1.1.1.3.4.6.8.6s.7-.1 1-.4c.2-.3.4-.6.3-.9s-.3-.7-.6-.7-.9 0-1.3.3zm3.2-5.5c-.2.4-.3.7-.2 1.1.1.3.4.6.8.6s.7-.1 1-.4c.2-.3.4-.6.3-.9s-.3-.7-.6-.7-.9 0-1.3.3zm1.3 4.1c-.2.4-.3.7-.2 1.1.1.3.4.6.8.6s.7-.1 1-.4c.2-.3.4-.6.3-.9s-.3-.7-.6-.7c-.3-.1-1 0-1.3.3zm2.8-5.4c-.2.4-.3.7-.2 1.1.1.3.4.6.8.6s.7-.1 1-.4c.2-.3.4-.6.3-.9s-.3-.7-.6-.7-1 0-1.3.3zm1.3 4.1c-.2.4-.3.7-.2 1.1.1.3.4.6.8.6s.7-.1 1-.4c.2-.3.4-.6.3-.9s-.3-.7-.6-.7c-.3-.1-1 0-1.3.3zm3-5.4c-.2.4-.3.7-.2 1.1.1.3.4.6.8.6s.7-.1 1-.4c.2-.3.4-.6.3-.9s-.3-.7-.6-.7c-.4-.1-1 0-1.3.3zm1.3 4c-.2.4-.3.7-.2 1.1.1.3.4.6.8.6s.7-.1 1-.4c.2-.3.4-.6.3-.9s-.3-.7-.6-.7c-.4 0-1 0-1.3.3zM20.7 78.5c-.2.4-.3.7-.2 1.1.1.3.4.6.8.6s.7-.1 1-.4c.2-.3.4-.6.3-.9s-.3-.7-.6-.7-1 0-1.3.3zm1.3 4.1c-.2.4-.3.7-.2 1.1.1.3.4.6.8.6s.7-.1 1-.4c.2-.3.4-.6.3-.9s-.3-.7-.6-.7c-.3-.1-1 0-1.3.3zm3.4-5.5c-.2.4-.3.7-.2 1.1.1.3.4.6.8.6s.7-.1 1-.4c.2-.3.4-.6.3-.9s-.3-.7-.6-.7c-.3-.1-.9 0-1.3.3zm1.3 4.1c-.2.4-.3.7-.2 1.1.1.3.4.6.8.6s.7-.1 1-.4c.2-.3.4-.6.3-.9s-.3-.7-.6-.7c-.3-.1-.9 0-1.3.3zm3-5.5c-.2.4-.3.7-.2 1.1.1.3.4.6.8.6s.7-.1 1-.4c.2-.3.4-.6.3-.9s-.3-.7-.6-.7c-.4 0-1 .1-1.3.3zm1.3 4.1c-.2.4-.3.7-.2 1.1.1.3.4.6.8.6s.7-.1 1-.4c.2-.3.4-.6.3-.9s-.3-.7-.6-.7c-.4 0-1 0-1.3.3zm3.2-5.5c-.2.4-.3.7-.2 1.1.1.3.4.6.8.6s.7-.1 1-.4c.2-.3.4-.6.3-.9s-.3-.7-.6-.7c-.4 0-1 0-1.3.3zm1.3 4.1c-.2.4-.3.7-.2 1.1.1.3.4.6.8.6s.7-.1 1-.4c.2-.3.4-.6.3-.9s-.3-.7-.6-.7c-.4-.1-1 0-1.3.3z"/><path d="M38.3 73c-.2.4-.3.7-.2 1.1.1.3.4.6.8.6s.7-.1 1-.4c.2-.3.4-.6.3-.9s-.3-.7-.6-.7c-.4-.1-1 0-1.3.3zm1.3 4.1c-.2.4-.3.7-.2 1.1.1.3.4.6.8.6s.7-.1 1-.4c.2-.3.4-.6.3-.9s-.3-.7-.6-.7c-.4-.1-1 0-1.3.3zm2.9-5.4c-.2.4-.3.7-.2 1.1.1.3.4.6.8.6s.7-.1 1-.4c.2-.3.4-.6.3-.9s-.3-.7-.6-.7c-.3-.1-1 0-1.3.3zm1.3 4c-.2.4-.3.7-.2 1.1.1.3.4.6.8.6s.7-.1 1-.4c.2-.3.4-.6.3-.9s-.3-.7-.6-.7-1 0-1.3.3zM23.5 87.3c-.2.4-.3.7-.2 1.1.1.3.4.6.8.6s.7-.1 1-.4c.2-.3.4-.6.3-.9s-.3-.7-.6-.7c-.3-.1-1 0-1.3.3zm4.7-1.4c-.2.4-.3.7-.2 1.1.1.3.4.6.8.6s.7-.1 1-.4c.2-.3.4-.6.3-.9s-.3-.7-.6-.7c-.3-.1-.9 0-1.3.3zm4.3-1.4c-.2.4-.3.7-.2 1.1.1.3.4.6.8.6s.7-.1 1-.4c.2-.3.4-.6.3-.9s-.3-.7-.6-.7c-.4 0-1 0-1.3.3zm4.5-1.4c-.2.4-.3.7-.2 1.1.1.3.4.6.8.6s.7-.1 1-.4c.2-.3.4-.6.3-.9s-.3-.7-.6-.7c-.4-.1-1 0-1.3.3zm4.1-1.3c-.2.4-.3.7-.2 1.1.1.3.4.6.8.6s.7-.1 1-.4c.2-.3.4-.6.3-.9s-.3-.7-.6-.7c-.4-.1-1 0-1.3.3zm4.2-1.4c-.2.4-.3.7-.2 1.1.1.3.4.6.8.6s.7-.1 1-.4c.2-.3.4-.6.3-.9s-.3-.7-.6-.7-1 .1-1.3.3z"/><use xlink:href="#T"/><path d="M45.2 65.3a1.39 1.39 0 0 0-.2 1.1c.1.3.4.6.8.6s.7-.1.9-.4.4-.6.3-.9c0-.4-.3-.7-.6-.7-.3-.1-.9 0-1.2.3z"/><use xlink:href="#U"/><use xlink:href="#V"/><path d="M52.7 58.5c-.2.4-.3.7-.2 1.1.1.3.4.6.8.6s.7-.1.9-.4.4-.6.3-.9-.3-.7-.6-.7c-.3-.1-.9 0-1.2.3z"/><use xlink:href="#W"/><path d="M57.1 57.1c-.2.4-.3.7-.2 1.1.1.3.4.6.8.6s.7-.1.9-.4.4-.6.3-.9-.3-.7-.6-.7c-.3-.1-.9 0-1.2.3zm1.3 4c-.2.4-.3.7-.2 1.1.1.3.4.6.8.6s.7-.1.9-.4.4-.6.3-.9-.3-.7-.6-.7-.9.1-1.2.3z"/><use xlink:href="#X"/><path d="M62.4 59.9c-.2.4-.3.7-.2 1.1.1.3.4.6.8.6s.7-.1.9-.4.4-.6.3-.9-.3-.7-.6-.7c-.2-.1-.9 0-1.2.3zm2.9-5.4c-.2.4-.3.7-.2 1.1.1.3.4.6.8.6s.7-.1.9-.4.4-.6.3-.9-.3-.7-.6-.7c-.3-.1-.9 0-1.2.3zm1.3 4c-.2.4-.3.7-.2 1.1.1.3.4.6.8.6s.7-.1.9-.4.4-.6.3-.9-.3-.7-.6-.7-.9.1-1.2.3zM46.7 70.1c-.2.4-.3.7-.2 1.1.1.3.4.6.8.6s.7-.1.9-.4.4-.6.3-.9-.3-.7-.6-.7c-.2-.1-.9 0-1.2.3z"/><use xlink:href="#Y"/><path d="M51.4 68.7c-.2.4-.3.7-.2 1.1.1.3.4.6.8.6s.7-.1.9-.4.4-.6.3-.9-.3-.7-.6-.7c-.3-.1-.9 0-1.2.3zm1.3 4.1c-.2.4-.3.7-.2 1.1.1.3.4.6.8.6s.7-.1.9-.4.4-.6.3-.9-.3-.7-.6-.7c-.3-.1-.9 0-1.2.3zm2.8-5.4c-.2.4-.3.7-.2 1.1.1.3.4.6.8.6s.7-.1.9-.4.4-.6.3-.9-.3-.7-.6-.7c-.2-.1-.9 0-1.2.3z"/><use xlink:href="#Z"/><path d="M59.9 66c-.2.4-.3.7-.2 1.1.1.3.4.6.8.6s.7-.1.9-.4.4-.6.3-.9-.3-.7-.6-.7c-.2-.1-.9 0-1.2.3zm1.3 4c-.2.4-.3.7-.2 1.1.1.3.4.6.8.6s.7-.1.9-.4.4-.6.3-.9-.3-.7-.6-.7c-.2 0-.9 0-1.2.3zm2.7-5.3c-.2.4-.3.7-.2 1.1.1.3.4.6.8.6s.7-.1.9-.4.4-.6.3-.9-.3-.7-.6-.7c-.2-.1-.8 0-1.2.3z"/><use xlink:href="#a"/><path d="M68.1 63.4c-.2.4-.3.7-.2 1.1.1.3.4.6.8.6s.7-.1.9-.4.4-.6.3-.9-.3-.7-.6-.7c-.3-.1-.9 0-1.2.3zm1.3 4c-.2.4-.3.7-.2 1.1.1.3.4.6.8.6s.7-.1.9-.4.4-.6.3-.9-.3-.7-.6-.7-.9 0-1.2.3zM49.5 78.9c-.2.4-.3.7-.2 1.1.1.3.4.6.8.6s.7-.1.9-.4.4-.6.3-.9-.3-.7-.6-.7c-.2-.1-.8 0-1.2.3zm4.7-1.4c-.2.4-.3.7-.2 1.1.1.3.4.6.8.6s.7-.1.9-.4.4-.6.3-.9-.3-.7-.6-.7c-.3-.1-.9 0-1.2.3zm4.1-1.3c-.2.4-.3.7-.2 1.1.1.3.4.6.8.6s.7-.1.9-.4.4-.6.3-.9-.3-.7-.6-.7c-.2-.1-.8 0-1.2.3zm4.4-1.4c-.2.4-.3.7-.2 1.1.1.3.4.6.8.6s.7-.1.9-.4.4-.6.3-.9-.3-.7-.6-.7c-.2-.1-.8 0-1.2.3zm4.1-1.3c-.2.4-.3.7-.2 1.1.1.3.4.6.8.6s.7-.1.9-.4.4-.6.3-.9-.3-.7-.6-.7c-.3-.1-.9 0-1.2.3zm4.1-1.4c-.2.4-.3.7-.2 1.1.1.3.4.6.8.6s.7-.1.9-.4.4-.6.3-.9-.3-.7-.6-.7-.9.1-1.2.3zm-1.5-19c-.2.4-.3.7-.2 1.1.1.3.4.6.8.6s.7-.1.9-.4.4-.6.3-.9-.3-.7-.6-.7c-.3-.1-.9 0-1.2.3zm1.3 4c-.2.4-.3.7-.2 1.1.1.3.4.6.8.6s.7-.1.9-.4.4-.6.3-.9-.3-.7-.6-.7-.9.1-1.2.3zm3.4-5.4c-.2.4-.3.7-.2 1.1.1.3.4.6.8.6s.7-.1.9-.4.4-.6.3-.9-.3-.7-.6-.7c-.3-.1-.9 0-1.2.3zm1.3 4c-.2.4-.3.7-.2 1.1.1.3.4.6.8.6s.7-.1.9-.4.4-.6.3-.9-.3-.7-.6-.7-.9 0-1.2.3zm2.9-5.4c-.2.4-.3.7-.2 1.1.1.3.4.6.8.6s.7-.1.9-.4.4-.6.3-.9-.3-.7-.6-.7-.9 0-1.2.3zm1.3 4.1c-.2.4-.3.7-.2 1.1.1.3.4.6.8.6s.7-.1.9-.4.4-.6.3-.9-.3-.7-.6-.7c-.3-.1-.9 0-1.2.3zm3.1-5.5c-.2.4-.3.7-.2 1.1.1.3.4.6.8.6s.7-.1.9-.4.4-.6.3-.9-.3-.7-.6-.7c-.2 0-.9 0-1.2.3zM84 53c-.2.4-.3.7-.2 1.1.1.3.4.6.8.6s.7-.1.9-.4.4-.6.3-.9-.3-.7-.6-.7c-.2-.1-.9 0-1.2.3z"/><path d="M86.8 47.6c-.2.4-.3.7-.2 1.1.1.3.4.6.8.6s.7-.1.9-.4.4-.6.3-.9-.3-.7-.6-.7-.9 0-1.2.3zm1.3 4.1c-.2.4-.3.7-.2 1.1.1.3.4.6.8.6s.7-.1.9-.4.4-.6.3-.9-.3-.7-.6-.7c-.3-.1-.9 0-1.2.3zm2.8-5.4c-.2.4-.3.7-.2 1.1.1.3.4.6.8.6s.7-.1.9-.4.4-.6.3-.9-.3-.7-.6-.7c-.2-.1-.8 0-1.2.3zm1.3 4.1c-.2.4-.3.7-.2 1.1.1.3.4.6.8.6s.7-.1.9-.4.4-.6.3-.9-.3-.7-.6-.7c-.2-.1-.8 0-1.2.3zM72.2 62c-.2.4-.3.7-.2 1.1.1.3.4.6.8.6s.7-.1.9-.4.4-.6.3-.9-.3-.7-.6-.7c-.2-.1-.9 0-1.2.3zm1.3 4c-.2.4-.3.7-.2 1.1.1.3.4.6.8.6s.7-.1.9-.4.4-.6.3-.9-.3-.7-.6-.7c-.2 0-.9 0-1.2.3zm3.4-5.4c-.2.4-.3.7-.2 1.1.1.3.4.6.8.6s.7-.1.9-.4.4-.6.3-.9-.3-.7-.6-.7c-.2-.1-.9 0-1.2.3zm1.3 4c-.2.4-.3.7-.2 1.1.1.3.4.6.8.6s.7-.1.9-.4.4-.6.3-.9-.3-.7-.6-.7-.9 0-1.2.3zm2.9-5.4c-.2.4-.3.7-.2 1.1.1.3.4.6.8.6s.7-.1.9-.4.4-.6.3-.9-.3-.7-.6-.7-.9 0-1.2.3zm1.3 4.1c-.2.4-.3.7-.2 1.1.1.3.4.6.8.6s.7-.1.9-.4.4-.6.3-.9-.3-.7-.6-.7c-.3-.1-.9 0-1.2.3zm3.1-5.5c-.2.4-.3.7-.2 1.1.1.3.4.6.8.6s.7-.1.9-.4.4-.6.3-.9-.3-.7-.6-.7c-.2-.1-.8 0-1.2.3zm1.3 4.1c-.2.4-.3.7-.2 1.1.1.3.4.6.8.6s.7-.1.9-.4.4-.6.3-.9-.3-.7-.6-.7c-.2-.1-.9 0-1.2.3zm2.8-5.4c-.2.4-.3.7-.2 1.1.1.3.4.6.8.6s.7-.1.9-.4.4-.6.3-.9-.3-.7-.6-.7-.9 0-1.2.3zm1.3 4.1c-.2.4-.3.7-.2 1.1.1.3.4.6.8.6s.7-.1.9-.4.4-.6.3-.9-.3-.7-.6-.7c-.3-.1-.9 0-1.2.3zm2.9-5.4c-.2.4-.3.7-.2 1.1.1.3.4.6.8.6s.7-.1.9-.4.4-.6.3-.9-.3-.7-.6-.7c-.3-.1-.9 0-1.2.3zm1.3 4c-.2.4-.3.7-.2 1.1.1.3.4.6.8.6s.7-.1.9-.4.4-.6.3-.9-.3-.7-.6-.7-.9 0-1.2.3zM75 70.7c-.2.4-.3.7-.2 1.1.1.3.4.6.8.6s.7-.1.9-.4.4-.6.3-.9-.3-.7-.6-.7c-.2 0-.9.1-1.2.3zm4.7-1.4c-.2.4-.3.7-.2 1.1.1.3.4.6.8.6s.7-.1.9-.4.4-.6.3-.9-.3-.7-.6-.7c-.2 0-.9.1-1.2.3zm4.2-1.3c-.2.4-.3.7-.2 1.1.1.3.4.6.8.6s.7-.1.9-.4.4-.6.3-.9-.3-.7-.6-.7c-.2-.1-.9 0-1.2.3zm4.4-1.4c-.2.4-.3.7-.2 1.1.1.3.4.6.8.6s.7-.1.9-.4.4-.6.3-.9-.3-.7-.6-.7c-.2-.1-.8 0-1.2.3zm4.1-1.3c-.2.4-.3.7-.2 1.1.1.3.4.6.8.6s.7-.1.9-.4.4-.6.3-.9-.3-.7-.6-.7c-.3-.1-.9 0-1.2.3zm4.2-1.3c-.2.4-.3.7-.2 1.1.1.3.4.6.8.6s.7-.1.9-.4.4-.6.3-.9-.3-.7-.6-.7c-.3-.1-.9 0-1.2.3z"/><use xlink:href="#b"/><path d="M96.4 49c-.2.4-.3.7-.2 1.1.1.3.4.6.8.6.3 0 .7-.1.9-.4.2-.2.4-.6.3-.9s-.3-.7-.6-.7c-.3-.1-.9 0-1.2.3z"/><use xlink:href="#c"/><path d="M101 47.6c-.2.4-.3.7-.2 1.1.1.3.4.6.8.6.3 0 .7-.1.9-.4.2-.2.4-.6.3-.9s-.3-.7-.6-.7c-.3-.1-.9 0-1.2.3zm2.8-5.4c-.2.4-.3.7-.2 1.1.1.3.4.6.8.6.3 0 .7-.1.9-.4.2-.2.4-.6.3-.9s-.3-.7-.6-.7-.9 0-1.2.3zm1.3 4.1c-.2.4-.3.7-.2 1.1.1.3.4.6.8.6.3 0 .7-.1.9-.4.2-.2.4-.6.3-.9s-.3-.7-.6-.7c-.3-.1-.9 0-1.2.3z"/><use xlink:href="#d"/><use xlink:href="#e"/><path d="M112.1 39.6c-.2.4-.3.7-.2 1.1.1.3.4.6.8.6.3 0 .7-.1.9-.4.2-.2.4-.6.3-.9s-.3-.7-.6-.7c-.3-.1-.9 0-1.2.3zm1.3 4c-.2.4-.3.7-.2 1.1.1.3.4.6.8.6.3 0 .7-.1.9-.4.2-.2.4-.6.3-.9s-.3-.7-.6-.7-.9 0-1.2.3zm2.8-5.3c-.2.4-.3.7-.2 1.1.1.3.4.6.8.6.3 0 .7-.1.9-.4.2-.2.4-.6.3-.9s-.3-.7-.6-.7c-.3-.1-.9 0-1.2.3zm1.3 4c-.2.4-.3.7-.2 1.1.1.3.4.6.8.6.3 0 .7-.1.9-.4.2-.2.4-.6.3-.9s-.3-.7-.6-.7-.9 0-1.2.3zM97.9 53.8c-.2.4-.3.7-.2 1.1.1.3.4.6.8.6.3 0 .7-.1.9-.4.2-.2.4-.6.3-.9s-.3-.7-.6-.7c-.2-.1-.9 0-1.2.3zm1.3 4c-.2.4-.3.7-.2 1.2.1.3.4.6.8.6.3 0 .7-.1.9-.4.2-.2.4-.6.3-.9s-.3-.7-.6-.7c-.2-.1-.9 0-1.2.2zm3.3-5.4c-.2.4-.3.7-.2 1.1.1.3.4.6.8.6.3 0 .7-.1.9-.4.2-.2.4-.6.3-.9s-.3-.7-.6-.7-.9 0-1.2.3zm1.3 4.1c-.2.4-.3.7-.2 1.1.1.3.4.6.8.6.3 0 .7-.1.9-.4.2-.2.4-.6.3-.9s-.3-.7-.6-.7c-.3-.1-.9 0-1.2.3zm2.8-5.4c-.2.4-.3.7-.2 1.1.1.3.4.6.8.6.3 0 .7-.1.9-.4.2-.2.4-.6.3-.9s-.3-.7-.6-.7c-.2-.1-.9 0-1.2.3zm1.3 4.1c-.2.4-.3.7-.2 1.1.1.3.4.6.8.6.3 0 .7-.1.9-.4.2-.2.4-.6.3-.9s-.3-.7-.6-.7c-.2-.1-.9 0-1.2.3zm3.1-5.5c-.2.4-.3.7-.2 1.1.1.3.4.6.8.6.3 0 .7-.1.9-.4.2-.2.4-.6.3-.9s-.3-.7-.6-.7-.9 0-1.2.3zm1.3 4.1c-.2.4-.3.7-.2 1.1.1.3.4.6.8.6.3 0 .7-.1.9-.4.2-.2.4-.6.3-.9s-.3-.7-.6-.7c-.3-.1-.9 0-1.2.3z"/><use xlink:href="#f"/><path d="M116.2 52.5c-.2.4-.3.7-.2 1.1.1.3.4.6.8.6.3 0 .7-.1.9-.4.2-.2.4-.6.3-.9s-.3-.7-.6-.7c-.2 0-.9 0-1.2.3zm2.8-5.4c-.2.4-.3.7-.2 1.1.1.3.4.6.8.6.3 0 .7-.1.9-.4.2-.2.4-.6.3-.9s-.3-.7-.6-.7c-.2 0-.8 0-1.2.3zm1.3 4.1c-.2.4-.3.7-.2 1.1.1.3.4.6.8.6.3 0 .7-.1.9-.4.2-.2.4-.6.3-.9s-.3-.7-.6-.7c-.2-.1-.9 0-1.2.3zm-19.6 11.4c-.2.4-.3.7-.2 1.1.1.3.4.6.8.6.3 0 .7-.1.9-.4.2-.2.4-.6.3-.9s-.3-.7-.6-.7c-.2-.1-.9 0-1.2.3zm4.6-1.4c-.2.4-.3.7-.2 1.1.1.3.4.6.8.6.3 0 .7-.1.9-.4.2-.2.4-.6.3-.9s-.3-.7-.6-.7c-.2-.1-.9 0-1.2.3zm4.1-1.3c-.2.4-.3.7-.2 1.1.1.3.4.6.8.6.3 0 .7-.1.9-.4.2-.2.4-.6.3-.9s-.3-.7-.6-.7c-.2-.1-.9 0-1.2.3zm4.4-1.4c-.2.4-.3.7-.2 1.1.1.3.4.6.8.6.3 0 .7-.1.9-.4.2-.2.4-.6.3-.9s-.3-.7-.6-.7c-.3-.1-.9 0-1.2.3zm3.9-1.3c-.2.4-.3.7-.2 1.1.1.3.4.6.8.6.3 0 .7-.1.9-.4.2-.2.4-.6.3-.9s-.3-.7-.6-.7c-.2 0-.9 0-1.2.3zm4.2-1.3c-.2.4-.3.7-.2 1.1.1.3.4.6.8.6.3 0 .7-.1.9-.4.2-.2.4-.6.3-.9s-.3-.7-.6-.7-.9 0-1.2.3zm-1.5-19.1c-.2.4-.3.7-.2 1.1.1.3.4.6.8.6s.7-.1 1-.4c.2-.3.4-.6.3-.9s-.3-.7-.6-.7c-.4-.1-1 0-1.3.3z"/><path d="M121.7 40.9c-.2.4-.3.7-.2 1.1.1.3.4.6.8.6s.7-.1 1-.4c.2-.3.4-.6.3-.9s-.3-.7-.6-.7c-.4-.1-1 0-1.3.3zm3.4-5.5c-.2.4-.3.7-.2 1.1.1.3.4.6.8.6s.7-.1 1-.4c.2-.3.4-.6.3-.9s-.3-.7-.6-.7c-.3-.1-1 0-1.3.3zm1.3 4c-.2.4-.3.7-.2 1.1.1.3.4.6.8.6s.7-.1 1-.4c.2-.3.4-.6.3-.9s-.3-.7-.6-.7-1 .1-1.3.3zm3-5.4c-.2.4-.3.7-.2 1.1.1.3.4.6.8.6s.7-.1 1-.4c.2-.3.4-.6.3-.9s-.3-.7-.6-.7c-.4 0-1 0-1.3.3zm1.3 4.1c-.2.4-.3.7-.2 1.1.1.3.4.6.8.6s.7-.1 1-.4c.2-.3.4-.6.3-.9s-.3-.7-.6-.7c-.4-.1-1 0-1.3.3zm3.2-5.5c-.2.4-.3.7-.2 1.1.1.3.4.6.8.6s.7-.1 1-.4c.2-.3.4-.6.3-.9s-.3-.7-.6-.7c-.4-.1-1 0-1.3.3zm1.3 4.1c-.2.4-.3.7-.2 1.1.1.3.4.6.8.6s.7-.1 1-.4c.2-.3.4-.6.3-.9s-.3-.7-.6-.7c-.4-.1-1 0-1.3.3zm2.7-5.4c-.2.4-.3.7-.2 1.1.1.3.4.6.8.6s.7-.1 1-.4c.2-.3.4-.6.3-.9s-.3-.7-.6-.7c-.3-.1-.9 0-1.3.3z"/><path d="M139.2 35.3c-.2.4-.3.7-.2 1.1.1.3.4.6.8.6s.7-.1 1-.4c.2-.3.4-.6.3-.9s-.3-.7-.6-.7-.9.1-1.3.3zm3-5.4c-.2.4-.3.7-.2 1.1.1.3.4.6.8.6s.7-.1 1-.4c.2-.3.4-.6.3-.9s-.3-.7-.6-.7c-.4 0-1 0-1.3.3zm1.3 4.1c-.2.4-.3.7-.2 1.1.1.3.4.6.8.6s.7-.1 1-.4c.2-.3.4-.6.3-.9s-.3-.7-.6-.7c-.4-.1-1 0-1.3.3zm-20.3 11.7c-.2.4-.3.7-.2 1.1.1.3.4.6.8.6s.7-.1 1-.4c.2-.3.4-.6.3-.9s-.3-.7-.6-.7c-.3-.1-1 0-1.3.3zm1.3 4c-.2.4-.3.7-.2 1.1.1.3.4.6.8.6s.7-.1 1-.4c.2-.3.4-.6.3-.9s-.3-.7-.6-.7-1 .1-1.3.3zm3.5-5.4c-.2.4-.3.7-.2 1.1.1.3.4.6.8.6s.7-.1 1-.4c.2-.3.4-.6.3-.9s-.3-.7-.6-.7c-.4-.1-1 0-1.3.3zm1.3 4c-.2.4-.3.7-.2 1.1.1.3.4.6.8.6s.7-.1 1-.4c.2-.3.4-.6.3-.9s-.3-.7-.6-.7c-.4 0-1 0-1.3.3zm2.9-5.4c-.2.4-.3.7-.2 1.1.1.3.4.6.8.6s.7-.1 1-.4c.2-.3.4-.6.3-.9s-.3-.7-.6-.7c-.3-.1-1 0-1.3.3z"/><path d="M133.5 47c-.2.4-.3.7-.2 1.1.1.3.4.6.8.6s.7-.1 1-.4c.2-.3.4-.6.3-.9s-.3-.7-.6-.7c-.3-.1-1 0-1.3.3zm3.2-5.5c-.2.4-.3.7-.2 1.1.1.3.4.6.8.6s.7-.1 1-.4c.2-.3.4-.6.3-.9s-.3-.7-.6-.7c-.3-.1-1 0-1.3.3zm1.3 4c-.2.4-.3.7-.2 1.1.1.3.4.6.8.6s.7-.1 1-.4c.2-.3.4-.6.3-.9s-.3-.7-.6-.7c-.4 0-1 0-1.3.3zm2.8-5.3c-.2.4-.3.7-.2 1.1.1.3.4.6.8.6s.7-.1 1-.4c.2-.3.4-.6.3-.9s-.3-.7-.6-.7c-.4-.1-1 0-1.3.3zm1.3 4c-.2.4-.3.7-.2 1.1.1.3.4.6.8.6s.7-.1 1-.4c.2-.3.4-.6.3-.9s-.3-.7-.6-.7c-.4 0-1 0-1.3.3zm2.9-5.4c-.2.4-.3.7-.2 1.1.1.3.4.6.8.6s.7-.1 1-.4c.2-.3.4-.6.3-.9s-.3-.7-.6-.7-1 0-1.3.3zm1.3 4.1c-.2.4-.3.7-.2 1.1.1.3.4.6.8.6s.7-.1 1-.4c.2-.3.4-.6.3-.9s-.3-.7-.6-.7c-.3-.1-1 0-1.3.3zM126 54.5c-.2.4-.3.7-.2 1.1.1.3.4.6.8.6s.7-.1 1-.4c.2-.3.4-.6.3-.9s-.3-.7-.6-.7c-.3-.1-1 0-1.3.3zm4.8-1.5c-.2.4-.3.7-.2 1.1.1.3.4.6.8.6s.7-.1 1-.4c.2-.3.4-.6.3-.9s-.3-.7-.6-.7c-.4 0-1 .1-1.3.3zm4.2-1.3c-.2.4-.3.7-.2 1.1.1.3.4.6.8.6s.7-.1 1-.4c.2-.3.4-.6.3-.9s-.3-.7-.6-.7c-.3-.1-1 0-1.3.3zm4.5-1.4c-.2.4-.3.7-.2 1.1.1.3.4.6.8.6s.7-.1 1-.4c.2-.3.4-.6.3-.9s-.3-.7-.6-.7c-.3-.1-1 0-1.3.3zm4.1-1.3c-.2.4-.3.7-.2 1.1.1.3.4.6.8.6s.7-.1 1-.4c.2-.3.4-.6.3-.9s-.3-.7-.6-.7c-.4-.1-1 0-1.3.3zm4.2-1.4c-.2.4-.3.7-.2 1.1.1.3.4.6.8.6s.7-.1 1-.4c.2-.3.4-.6.3-.9s-.3-.7-.6-.7c-.3-.1-1 0-1.3.3zM28.2 100.9c-.2.4-.3.7-.2 1.1.1.3.4.6.8.6s.7-.1 1-.4c.2-.3.4-.6.3-.9s-.3-.7-.6-.7c-.4-.1-1 0-1.3.3zm1.3 4c-.2.4-.3.7-.2 1.1.1.3.4.6.8.6s.7-.1 1-.4c.2-.3.4-.6.3-.9s-.3-.7-.6-.7c-.4 0-1 0-1.3.3zm3.4-5.4c-.2.4-.3.7-.2 1.1.1.3.4.6.8.6s.7-.1 1-.4c.2-.3.4-.6.3-.9s-.3-.7-.6-.7c-.3-.1-1 0-1.3.3zm1.3 4c-.2.4-.3.7-.2 1.1.1.3.4.6.8.6s.7-.1 1-.4c.2-.3.4-.6.3-.9s-.3-.7-.6-.7-1 0-1.3.3zm2.9-5.4c-.2.4-.3.7-.2 1.1.1.3.4.6.8.6s.7-.1 1-.4c.2-.3.4-.6.3-.9s-.3-.7-.6-.7-1 0-1.3.3zm1.3 4.1c-.2.4-.3.7-.2 1.1.1.3.4.6.8.6s.7-.1 1-.4c.2-.3.4-.6.3-.9s-.3-.7-.6-.7c-.3-.1-1 0-1.3.3zm3.2-5.5c-.2.4-.3.7-.2 1.1.1.3.4.6.8.6s.7-.1 1-.4c.2-.3.4-.6.3-.9s-.3-.7-.6-.7c-.4-.1-1 0-1.3.3zm1.3 4c-.2.4-.3.7-.2 1.1.1.3.4.6.8.6s.7-.1 1-.4c.2-.3.4-.6.3-.9s-.3-.7-.6-.7c-.4 0-1 .1-1.3.3zm2.8-5.3c-.2.4-.3.7-.2 1.1.1.3.4.6.8.6s.7-.1 1-.4c.2-.3.4-.6.3-.9s-.3-.7-.6-.7c-.4-.1-1 0-1.3.3zm1.3 4c-.2.4-.3.7-.2 1.1.1.3.4.6.8.6s.7-.1 1-.4c.2-.3.4-.6.3-.9s-.3-.7-.6-.7c-.4 0-1 .1-1.3.3zm2.9-5.4c-.2.4-.3.7-.2 1.1.1.3.4.6.8.6s.7-.1 1-.4c.2-.3.4-.6.3-.9s-.3-.7-.6-.7c-.4 0-1 .1-1.3.3z"/><path d="M51.2 98.1c-.2.4-.3.7-.2 1.1.1.3.4.6.8.6s.7-.1 1-.4c.2-.3.4-.6.3-.9s-.3-.7-.6-.7c-.4-.1-1 0-1.3.3zM31 109.7c-.2.4-.3.7-.2 1.1.1.3.4.6.8.6s.7-.1 1-.4c.2-.3.4-.6.3-.9s-.3-.7-.6-.7-1 .1-1.3.3zm1.3 4.1c-.2.4-.3.7-.2 1.1.1.3.4.6.8.6s.7-.1 1-.4c.2-.3.4-.6.3-.9s-.3-.7-.6-.7-1 0-1.3.3zm3.4-5.5c-.2.4-.3.7-.2 1.1.1.3.4.6.8.6s.7-.1 1-.4c.2-.3.4-.6.3-.9s-.3-.7-.6-.7-.9 0-1.3.3zm1.3 4.1c-.2.4-.3.7-.2 1.1.1.3.4.6.8.6s.7-.1 1-.4c.2-.3.4-.6.3-.9s-.3-.7-.6-.7c-.3-.1-.9 0-1.3.3zm3-5.4c-.2.4-.3.7-.2 1.1.1.3.4.6.8.6s.7-.1 1-.4c.2-.3.4-.6.3-.9s-.3-.7-.6-.7c-.4-.1-1 0-1.3.3zm1.3 4.1c-.2.4-.3.7-.2 1.1.1.3.4.6.8.6s.7-.1 1-.4c.2-.3.4-.6.3-.9s-.3-.7-.6-.7c-.4-.1-1 0-1.3.3zm3.1-5.5c-.2.4-.3.7-.2 1.1.1.3.4.6.8.6s.7-.1 1-.4c.2-.3.4-.6.3-.9s-.3-.7-.6-.7c-.3-.1-1 0-1.3.3z"/><path d="M45.7 109.6c-.2.4-.3.7-.2 1.1.1.3.4.6.8.6s.7-.1 1-.4c.2-.3.4-.6.3-.9s-.3-.7-.6-.7-1 0-1.3.3zm2.8-5.3c-.2.4-.3.7-.2 1.1.1.3.4.6.8.6s.7-.1 1-.4c.2-.3.4-.6.3-.9s-.3-.7-.6-.7c-.4-.1-1 0-1.3.3zm1.3 4c-.2.4-.3.7-.2 1.1.1.3.4.6.8.6s.7-.1 1-.4c.2-.3.4-.6.3-.9s-.3-.7-.6-.7c-.4 0-1 0-1.3.3zm2.9-5.4c-.2.4-.3.7-.2 1.1.1.3.4.6.8.6s.7-.1 1-.4c.2-.3.4-.6.3-.9s-.3-.7-.6-.7-1 0-1.3.3zM54 107c-.2.4-.3.7-.2 1.1.1.3.4.6.8.6s.7-.1 1-.4c.2-.3.4-.6.3-.9s-.3-.7-.6-.7c-.3-.1-1 0-1.3.3zm-20.2 11.5c-.2.4-.3.7-.2 1.1.1.3.4.6.8.6s.7-.1 1-.4c.2-.3.4-.6.3-.9s-.3-.7-.6-.7-1 0-1.3.3zm4.7-1.4c-.2.4-.3.7-.2 1.1.1.3.4.6.8.6s.7-.1 1-.4c.2-.3.4-.6.3-.9s-.3-.7-.6-.7-.9 0-1.3.3zm4.3-1.3c-.2.4-.3.7-.2 1.1.1.3.4.6.8.6s.7-.1 1-.4c.2-.3.4-.6.3-.9s-.3-.7-.6-.7c-.4-.1-1 0-1.3.3z"/><path d="M47.2 114.4c-.2.4-.3.7-.2 1.1.1.3.4.6.8.6s.7-.1 1-.4c.2-.3.4-.6.3-.9s-.3-.7-.6-.7c-.3-.1-1 0-1.3.3zm4.1-1.3c-.2.4-.3.7-.2 1.1.1.3.4.6.8.6s.7-.1 1-.4c.2-.3.4-.6.3-.9s-.3-.7-.6-.7c-.4-.1-1 0-1.3.3zm4.2-1.4c-.2.4-.3.7-.2 1.1.1.3.4.6.8.6s.7-.1 1-.4c.2-.3.4-.6.3-.9s-.3-.7-.6-.7-1 0-1.3.3zm-1.4-19.2c-.2.4-.3.7-.2 1.1.1.3.4.6.8.6.3 0 .7-.1.9-.4.2-.2.4-.6.3-.9s-.3-.7-.6-.7c-.3-.1-.9 0-1.2.3z"/><use xlink:href="#g"/><path d="M58.7 91.1c-.2.4-.3.7-.2 1.1.1.3.4.6.8.6.3 0 .7-.1.9-.4.2-.2.4-.6.3-.9s-.3-.7-.6-.7c-.3-.1-.9 0-1.2.3zm1.3 4.1c-.2.4-.3.7-.2 1.1.1.3.4.6.8.6.3 0 .7-.1.9-.4.2-.2.4-.6.3-.9s-.3-.7-.6-.7c-.3-.1-.9 0-1.2.3zm2.8-5.4c-.2.4-.3.7-.2 1.1.1.3.4.6.8.6.3 0 .7-.1.9-.4.2-.2.4-.6.3-.9s-.3-.7-.6-.7c-.2-.1-.9 0-1.2.3zm1.3 4c-.2.4-.3.7-.2 1.1.1.3.4.6.8.6.3 0 .7-.1.9-.4.2-.2.4-.6.3-.9s-.3-.7-.6-.7c-.2 0-.9.1-1.2.3zm3.1-5.4c-.2.4-.3.7-.2 1.1.1.3.4.6.8.6.3 0 .7-.1.9-.4.2-.2.4-.6.3-.9s-.3-.7-.6-.7c-.3-.1-.9 0-1.2.3zm1.3 4c-.2.4-.3.7-.2 1.1.1.3.4.6.8.6.3 0 .7-.1.9-.4.2-.2.4-.6.3-.9s-.3-.7-.6-.7-.9.1-1.2.3zm2.7-5.3c-.2.4-.3.7-.2 1.1.1.3.4.6.8.6.3 0 .7-.1.9-.4.2-.2.4-.6.3-.9s-.3-.7-.6-.7-.9 0-1.2.3zm1.3 4.1c-.2.4-.3.7-.2 1.1.1.3.4.6.8.6.3 0 .7-.1.9-.4.2-.2.4-.6.3-.9s-.3-.7-.6-.7c-.3-.1-.9 0-1.2.3z"/><path d="M75.3 85.8c-.2.4-.3.7-.2 1.1.1.3.4.6.8.6.3 0 .7-.1.9-.4.2-.2.4-.6.3-.9s-.3-.7-.6-.7c-.2-.1-.9 0-1.2.3zm1.3 4.1c-.2.4-.3.7-.2 1.1.1.3.4.6.8.6.3 0 .7-.1.9-.4.2-.2.4-.6.3-.9s-.3-.7-.6-.7c-.2-.1-.9 0-1.2.3zm-19.7 11.5c-.2.4-.3.7-.2 1.1.1.3.4.6.8.6.3 0 .7-.1.9-.4.2-.2.4-.6.3-.9s-.3-.7-.6-.7c-.2-.1-.9 0-1.2.3zm1.3 4c-.2.4-.3.7-.2 1.1.1.3.4.6.8.6.3 0 .7-.1.9-.4.2-.2.4-.6.3-.9s-.3-.7-.6-.7-.9 0-1.2.3zm3.3-5.4c-.2.4-.3.7-.2 1.1.1.3.4.6.8.6.3 0 .7-.1.9-.4.2-.2.4-.6.3-.9s-.3-.7-.6-.7c-.2-.1-.9 0-1.2.3zm1.3 4c-.2.4-.3.7-.2 1.1.1.3.4.6.8.6.3 0 .7-.1.9-.4.2-.2.4-.6.3-.9s-.3-.7-.6-.7c-.2 0-.9.1-1.2.3zm2.9-5.3c-.2.4-.3.7-.2 1.1.1.3.4.6.8.6.3 0 .7-.1.9-.4.2-.2.4-.6.3-.9s-.3-.7-.6-.7c-.3-.1-.9 0-1.2.3zm1.3 4c-.2.4-.3.7-.2 1.1.1.3.4.6.8.6.3 0 .7-.1.9-.4.2-.2.4-.6.3-.9s-.3-.7-.6-.7-.9 0-1.2.3z"/><path d="M70 97.3c-.2.4-.3.7-.2 1.1.1.3.4.6.8.6.3 0 .7-.1.9-.4.2-.2.4-.6.3-.9s-.3-.7-.6-.7c-.2-.1-.9 0-1.2.3zm1.3 4c-.2.4-.3.7-.2 1.1.1.3.4.6.8.6.3 0 .7-.1.9-.4.2-.2.4-.6.3-.9s-.3-.7-.6-.7c-.2 0-.9 0-1.2.3zM74 96c-.2.4-.3.7-.2 1.1.1.3.4.6.8.6.3 0 .7-.1.9-.4.2-.2.4-.6.3-.9s-.3-.7-.6-.7c-.2-.1-.9 0-1.2.3zm1.3 4.1c-.2.4-.3.7-.2 1.1.1.3.4.6.8.6.3 0 .7-.1.9-.4.2-.2.4-.6.3-.9s-.3-.7-.6-.7c-.2-.1-.9 0-1.2.3zm2.9-5.4c-.2.4-.3.7-.2 1.1.1.3.4.6.8.6.3 0 .7-.1.9-.4.2-.2.4-.6.3-.9s-.3-.7-.6-.7c-.3-.1-.9 0-1.2.3zm1.3 4c-.2.4-.3.7-.2 1.1.1.3.4.6.8.6.3 0 .7-.1.9-.4.2-.2.4-.6.3-.9s-.3-.7-.6-.7-.9 0-1.2.3zm-19.8 11.4c-.2.4-.3.7-.2 1.1.1.3.4.6.8.6.3 0 .7-.1.9-.4.2-.2.4-.6.3-.9s-.3-.7-.6-.7c-.2 0-.9.1-1.2.3zm4.6-1.3c-.2.4-.3.7-.2 1.1.1.3.4.6.8.6.3 0 .7-.1.9-.4.2-.2.4-.6.3-.9s-.3-.7-.6-.7c-.2-.1-.9 0-1.2.3zm4.2-1.4c-.2.4-.3.7-.2 1.1.1.3.4.6.8.6.3 0 .7-.1.9-.4.2-.2.4-.6.3-.9s-.3-.7-.6-.7-.9.1-1.2.3z"/><use xlink:href="#h"/><path d="M76.8 104.8c-.2.4-.3.7-.2 1.1.1.3.4.6.8.6.3 0 .7-.1.9-.4.2-.2.4-.6.3-.9s-.3-.7-.6-.7c-.2-.1-.9 0-1.2.3zm4.2-1.3c-.2.4-.3.7-.2 1.1.1.3.4.6.8.6.3 0 .7-.1.9-.4.2-.2.4-.6.3-.9s-.3-.7-.6-.7c-.3-.1-.9 0-1.2.3zm-1.6-19.1c-.2.4-.3.7-.2 1.1.1.3.4.6.8.6s.7-.1.9-.4.4-.6.3-.9-.3-.7-.6-.7c-.2-.1-.9 0-1.2.3zm1.3 4.1c-.2.4-.3.7-.2 1.1.1.3.4.6.8.6s.7-.1.9-.4.4-.6.3-.9-.3-.7-.6-.7c-.2-.1-.9 0-1.2.3zm3.4-5.5c-.2.4-.3.7-.2 1.1.1.3.4.6.8.6s.7-.1.9-.4.4-.6.3-.9-.3-.7-.6-.7c-.3-.1-.9 0-1.2.3zm1.3 4.1c-.2.4-.3.7-.2 1.1.1.3.4.6.8.6s.7-.1.9-.4.4-.6.3-.9-.3-.7-.6-.7c-.3-.1-.9 0-1.2.3zm2.8-5.4a1.39 1.39 0 0 0-.2 1.1c.1.3.4.6.8.6s.7-.1.9-.4.4-.6.3-.9-.3-.7-.6-.7c-.2-.1-.8 0-1.2.3zm1.3 4c-.2.4-.3.7-.2 1.1.1.3.4.6.8.6s.7-.1.9-.4.4-.6.3-.9-.3-.7-.6-.7c-.2 0-.8 0-1.2.3z"/><path d="M92.7 80.3c-.2.4-.3.7-.2 1.1.1.3.4.6.8.6s.7-.1.9-.4.4-.6.3-.9-.3-.7-.6-.7c-.3-.1-.9 0-1.2.3zm1.3 4c-.2.4-.3.7-.2 1.1.1.3.4.6.8.6s.7-.1.9-.4.4-.6.3-.9-.3-.7-.6-.7-.9 0-1.2.3zm2.7-5.3c-.2.4-.3.7-.2 1.1.1.3.4.6.8.6s.7-.1.9-.4.4-.6.3-.9-.3-.7-.6-.7c-.3-.1-.9 0-1.2.3zm1.3 4c-.2.4-.3.7-.2 1.1.1.3.4.6.8.6s.7-.1.9-.4.4-.6.3-.9-.3-.7-.6-.7-.9.1-1.2.3zm2.9-5.4c-.2.4-.3.7-.2 1.1.1.3.4.6.8.6s.7-.1.9-.4.4-.6.3-.9-.3-.7-.6-.7-.9.1-1.2.3zm1.3 4.1c-.2.4-.3.7-.2 1.1.1.3.4.6.8.6s.7-.1.9-.4.4-.6.3-.9-.3-.7-.6-.7-.9 0-1.2.3zm-20 11.6c-.2.4-.3.7-.2 1.1.1.3.4.6.8.6s.7-.1.9-.4.4-.6.3-.9-.3-.7-.6-.7c-.2-.1-.8 0-1.2.3zm1.3 4c-.2.4-.3.7-.2 1.1.1.3.4.6.8.6s.7-.1.9-.4.4-.6.3-.9-.3-.7-.6-.7a3.46 3.46 0 0 0-1.2.3zm3.4-5.4c-.2.4-.3.7-.2 1.1.1.3.4.6.8.6s.7-.1.9-.4.4-.6.3-.9-.3-.7-.6-.7c-.2-.1-.9 0-1.2.3zm1.3 4c-.2.4-.3.7-.2 1.1.1.3.4.6.8.6s.7-.1.9-.4.4-.6.3-.9-.3-.7-.6-.7-.9.1-1.2.3zm2.9-5.3c-.2.4-.3.7-.2 1.1.1.3.4.6.8.6s.7-.1.9-.4.4-.6.3-.9-.3-.7-.6-.7c-.3-.1-.9 0-1.2.3zm1.3 4c-.2.4-.3.7-.2 1.1.1.3.4.6.8.6s.7-.1.9-.4.4-.6.3-.9-.3-.7-.6-.7-.9 0-1.2.3zm3.1-5.5c-.2.4-.3.7-.2 1.1.1.3.4.6.8.6s.7-.1.9-.4.4-.6.3-.9-.3-.7-.6-.7-.9.1-1.2.3zm1.3 4.1c-.2.4-.3.7-.2 1.1.1.3.4.6.8.6s.7-.1.9-.4.4-.6.3-.9-.3-.7-.6-.7-.9 0-1.2.3zm2.7-5.3c-.2.4-.3.7-.2 1.1.1.3.4.6.8.6s.7-.1.9-.4.4-.6.3-.9-.3-.7-.6-.7c-.2-.1-.9 0-1.2.3zm1.3 4c-.2.4-.3.7-.2 1.1.1.3.4.6.8.6s.7-.1.9-.4.4-.6.3-.9-.3-.7-.6-.7c-.2 0-.9 0-1.2.3z"/><path d="M103.7 86.5c-.2.4-.3.7-.2 1.1.1.3.4.6.8.6s.7-.1.9-.4.4-.6.3-.9-.3-.7-.6-.7-.9 0-1.2.3zm1.3 4.1c-.2.4-.3.7-.2 1.1.1.3.4.6.8.6s.7-.1.9-.4.4-.6.3-.9-.3-.7-.6-.7c-.3-.1-.9 0-1.2.3zm-19.9 11.5c-.2.4-.3.7-.2 1.1.1.3.4.6.8.6s.7-.1.9-.4.4-.6.3-.9-.3-.7-.6-.7c-.3-.1-.9 0-1.2.3zm4.6-1.4c-.2.4-.3.7-.2 1.1.1.3.4.6.8.6s.7-.1.9-.4.4-.6.3-.9-.3-.7-.6-.7c-.2-.1-.9 0-1.2.3zm4.2-1.4c-.2.4-.3.7-.2 1.1.1.3.4.6.8.6s.7-.1.9-.4.4-.6.3-.9-.3-.7-.6-.7-.9.1-1.2.3zm4.4-1.4c-.2.4-.3.7-.2 1.1.1.3.4.6.8.6s.7-.1.9-.4.4-.6.3-.9-.3-.7-.6-.7-.9 0-1.2.3zm4-1.2c-.2.4-.3.7-.2 1.1.1.3.4.6.8.6s.7-.1.9-.4.4-.6.3-.9-.3-.7-.6-.7c-.2-.1-.9 0-1.2.3zm4.2-1.4c-.2.4-.3.7-.2 1.1.1.3.4.6.8.6s.7-.1.9-.4.4-.6.3-.9-.3-.7-.6-.7-.9 0-1.2.3zm-1.5-19c-.2.4-.3.7-.2 1.1.1.3.4.6.8.6.3 0 .7-.1.9-.4.2-.2.4-.6.3-.9s-.3-.7-.6-.7c-.3-.1-.9 0-1.2.3zm1.3 4c-.2.4-.3.7-.2 1.1.1.3.4.6.8.6.3 0 .7-.1.9-.4.2-.2.4-.6.3-.9s-.3-.7-.6-.7-.9 0-1.2.3zm3.2-5.4c-.2.4-.3.7-.2 1.1.1.3.4.6.8.6.3 0 .7-.1.9-.4.2-.2.4-.6.3-.9s-.3-.7-.6-.7c-.2 0-.9 0-1.2.3zm1.3 4.1c-.2.4-.3.7-.2 1.1.1.3.4.6.8.6.3 0 .7-.1.9-.4.2-.2.4-.6.3-.9s-.3-.7-.6-.7c-.2-.1-.9 0-1.2.3zm2.8-5.4c-.2.4-.3.7-.2 1.1.1.3.4.6.8.6.3 0 .7-.1.9-.4.2-.2.4-.6.3-.9s-.3-.7-.6-.7c-.2-.1-.9 0-1.2.3zm1.3 4.1c-.2.4-.3.7-.2 1.1.1.3.4.6.8.6.3 0 .7-.1.9-.4.2-.2.4-.6.3-.9s-.3-.7-.6-.7c-.3-.1-.9 0-1.2.3zm3.1-5.5c-.2.4-.3.7-.2 1.1.1.3.4.6.8.6.3 0 .7-.1.9-.4.2-.2.4-.6.3-.9s-.3-.7-.6-.7-.9 0-1.2.3zm1.2 4.1c-.2.4-.3.7-.2 1.1.1.3.4.6.8.6.3 0 .7-.1.9-.4.2-.2.4-.6.3-.9s-.3-.7-.6-.7c-.2-.1-.8 0-1.2.3z"/><path d="M121.9 71c-.2.4-.3.7-.2 1.1.1.3.4.6.8.6.3 0 .7-.1.9-.4.2-.2.4-.6.3-.9s-.3-.7-.6-.7c-.3-.1-.9 0-1.2.3zm1.3 4c-.2.4-.3.7-.2 1.1.1.3.4.6.8.6.3 0 .7-.1.9-.4.2-.2.4-.6.3-.9s-.3-.7-.6-.7-.9 0-1.2.3zm2.8-5.3c-.2.4-.3.7-.2 1.1.1.3.4.6.8.6.3 0 .7-.1.9-.4.2-.2.4-.6.3-.9s-.3-.7-.6-.7c-.3-.1-.9 0-1.2.3zm1.3 4c-.2.4-.3.7-.2 1.1.1.3.4.6.8.6.3 0 .7-.1.9-.4.2-.2.4-.6.3-.9s-.3-.7-.6-.7-.9 0-1.2.3zm-19.5 11.4c-.2.4-.3.7-.2 1.1.1.3.4.6.8.6.3 0 .7-.1.9-.4.2-.2.4-.6.3-.9s-.3-.7-.6-.7-.9.1-1.2.3zm1.3 4.1c-.2.4-.3.7-.2 1.1.1.3.4.6.8.6.3 0 .7-.1.9-.4.2-.2.4-.6.3-.9s-.3-.7-.6-.7-.9 0-1.2.3zm3.3-5.4c-.2.4-.3.7-.2 1.1.1.3.4.6.8.6.3 0 .7-.1.9-.4.2-.2.4-.6.3-.9s-.3-.7-.6-.7c-.3-.1-.9 0-1.2.3zm1.3 4c-.2.4-.3.7-.2 1.1.1.3.4.6.8.6.3 0 .7-.1.9-.4.2-.2.4-.6.3-.9s-.3-.7-.6-.7-.9.1-1.2.3zm2.8-5.3c-.2.4-.3.7-.2 1.1.1.3.4.6.8.6.3 0 .7-.1.9-.4.2-.2.4-.6.3-.9s-.3-.7-.6-.7c-.3-.1-.9 0-1.2.3zm1.3 4c-.2.4-.3.7-.2 1.1.1.3.4.6.8.6.3 0 .7-.1.9-.4.2-.2.4-.6.3-.9s-.3-.7-.6-.7-.9.1-1.2.3zm3-5.4c-.2.4-.3.7-.2 1.1.1.3.4.6.8.6.3 0 .7-.1.9-.4.2-.2.4-.6.3-.9s-.3-.7-.6-.7-.9 0-1.2.3zm1.3 4.1c-.2.4-.3.7-.2 1.1.1.3.4.6.8.6.3 0 .7-.1.9-.4.2-.2.4-.6.3-.9s-.3-.7-.6-.7c-.3-.1-.9 0-1.2.3zm2.6-5.4c-.2.4-.3.7-.2 1.1.1.3.4.6.8.6.3 0 .7-.1.9-.4.2-.2.4-.6.3-.9s-.3-.7-.6-.7c-.2 0-.9.1-1.2.3zm1.3 4.1c-.2.4-.3.7-.2 1.1.1.3.4.6.8.6.3 0 .7-.1.9-.4.2-.2.4-.6.3-.9s-.3-.7-.6-.7-.9 0-1.2.3zm2.8-5.4c-.2.4-.3.7-.2 1.1.1.3.4.6.8.6.3 0 .7-.1.9-.4.2-.2.4-.6.3-.9s-.3-.7-.6-.7-.9.1-1.2.3zm1.3 4.1c-.2.4-.3.7-.2 1.1.1.3.4.6.8.6.3 0 .7-.1.9-.4.2-.2.4-.6.3-.9s-.3-.7-.6-.7-.9 0-1.2.3z"/><path d="M110.6 93.9c-.2.4-.3.7-.2 1.1.1.3.4.6.8.6.3 0 .7-.1.9-.4.2-.2.4-.6.3-.9s-.3-.7-.6-.7-.9 0-1.2.3zm4.6-1.3c-.2.4-.3.7-.2 1.1.1.3.4.6.8.6.3 0 .7-.1.9-.4.2-.2.4-.6.3-.9s-.3-.7-.6-.7c-.3-.1-.9 0-1.2.3zm4.1-1.3c-.2.4-.3.7-.2 1.1.1.3.4.6.8.6.3 0 .7-.1.9-.4.2-.2.4-.6.3-.9s-.3-.7-.6-.7c-.3-.1-.9 0-1.2.3zm4.3-1.4c-.2.4-.3.7-.2 1.1.1.3.4.6.8.6.3 0 .7-.1.9-.4.2-.2.4-.6.3-.9s-.3-.7-.6-.7c-.3-.1-.9 0-1.2.3zm3.9-1.3c-.2.4-.3.7-.2 1.1.1.3.4.6.8.6.3 0 .7-.1.9-.4.2-.2.4-.6.3-.9s-.3-.7-.6-.7c-.2 0-.9 0-1.2.3zm4.1-1.3c-.2.4-.3.7-.2 1.1.1.3.4.6.8.6.3 0 .7-.1.9-.4.2-.2.4-.6.3-.9s-.3-.7-.6-.7-.9 0-1.2.3zm-1.5-19.1c-.2.4-.3.7-.2 1.1.1.3.4.6.8.6s.7-.1 1-.4c.2-.3.4-.6.3-.9s-.3-.7-.6-.7-1 0-1.3.3zm1.3 4.1c-.2.4-.3.7-.2 1.1.1.3.4.6.8.6s.7-.1 1-.4c.2-.3.4-.6.3-.9s-.3-.7-.6-.7c-.3-.1-1 0-1.3.3zm3.4-5.5c-.2.4-.3.7-.2 1.1.1.3.4.6.8.6s.7-.1 1-.4c.2-.3.4-.6.3-.9s-.3-.7-.6-.7c-.3-.1-.9 0-1.3.3zm1.3 4.1c-.2.4-.3.7-.2 1.1.1.3.4.6.8.6s.7-.1 1-.4c.2-.3.4-.6.3-.9s-.3-.7-.6-.7c-.3-.1-1 0-1.3.3zm3-5.4c-.2.4-.3.7-.2 1.1.1.3.4.6.8.6s.7-.1 1-.4c.2-.3.4-.6.3-.9s-.3-.7-.6-.7c-.4-.1-1 0-1.3.3zm1.3 4c-.2.4-.3.7-.2 1.1.1.3.4.6.8.6s.7-.1 1-.4c.2-.3.4-.6.3-.9s-.3-.7-.6-.7c-.4 0-1 0-1.3.3zm3.1-5.5c-.2.4-.3.7-.2 1.1.1.3.4.6.8.6s.7-.1 1-.4c.2-.3.4-.6.3-.9s-.3-.7-.6-.7-1 0-1.3.3zm1.3 4.1c-.2.4-.3.7-.2 1.1.1.3.4.6.8.6s.7-.1 1-.4c.2-.3.4-.6.3-.9s-.3-.7-.6-.7c-.3-.1-1 0-1.3.3zm2.8-5.4c-.2.4-.3.7-.2 1.1.1.3.4.6.8.6s.7-.1 1-.4c.2-.3.4-.6.3-.9s-.3-.7-.6-.7c-.4 0-1 0-1.3.3zm1.3 4.1c-.2.4-.3.7-.2 1.1.1.3.4.6.8.6s.7-.1 1-.4c.2-.3.4-.6.3-.9s-.3-.7-.6-.7c-.4-.1-1 0-1.3.3z"/><path d="M151.8 61.4c-.2.4-.3.7-.2 1.1.1.3.4.6.8.6s.7-.1 1-.4c.2-.3.4-.6.3-.9s-.3-.7-.6-.7c-.3-.1-1 0-1.3.3zm1.3 4.1c-.2.4-.3.7-.2 1.1.1.3.4.6.8.6s.7-.1 1-.4c.2-.3.4-.6.3-.9s-.3-.7-.6-.7c-.3-.1-1 0-1.3.3zM133 77.1c-.2.4-.3.7-.2 1.1.1.3.4.6.8.6s.7-.1 1-.4c.2-.3.4-.6.3-.9s-.3-.7-.6-.7c-.4-.1-1 0-1.3.3zm1.3 4.1c-.2.4-.3.7-.2 1.1.1.3.4.6.8.6s.7-.1 1-.4c.2-.3.4-.6.3-.9s-.3-.7-.6-.7c-.4-.1-1 0-1.3.3zm3.4-5.5c-.2.4-.3.7-.2 1.1.1.3.4.6.8.6s.7-.1 1-.4c.2-.3.4-.6.3-.9s-.3-.7-.6-.7c-.4-.1-1 0-1.3.3zm1.3 4c-.2.4-.3.7-.2 1.1.1.3.4.6.8.6s.7-.1 1-.4c.2-.3.4-.6.3-.9s-.3-.7-.6-.7c-.4 0-1 .1-1.3.3zm2.9-5.4c-.2.4-.3.7-.2 1.1.1.3.4.6.8.6s.7-.1 1-.4c.2-.3.4-.6.3-.9s-.3-.7-.6-.7c-.4 0-1 0-1.3.3zm1.3 4.1c-.2.4-.3.7-.2 1.1.1.3.4.6.8.6s.7-.1 1-.4c.2-.3.4-.6.3-.9s-.3-.7-.6-.7c-.4-.1-1 0-1.3.3z"/><path d="M146.4 72.9c-.2.4-.3.7-.2 1.1.1.3.4.6.8.6s.7-.1 1-.4c.2-.3.4-.6.3-.9s-.3-.7-.6-.7c-.4 0-1 0-1.3.3zm1.2 4.1c-.2.4-.3.7-.2 1.1.1.3.4.6.8.6s.7-.1 1-.4c.2-.3.4-.6.3-.9s-.3-.7-.6-.7c-.3-.1-.9 0-1.3.3zm2.8-5.4c-.2.4-.3.7-.2 1.1.1.3.4.6.8.6s.7-.1 1-.4c.2-.3.4-.6.3-.9s-.3-.7-.6-.7-1 0-1.3.3zm1.3 4.1c-.2.4-.3.7-.2 1.1.1.3.4.6.8.6s.7-.1 1-.4c.2-.3.4-.6.3-.9s-.3-.7-.6-.7c-.3-.1-1 0-1.3.3zm2.9-5.4c-.2.4-.3.7-.2 1.1.1.3.4.6.8.6s.7-.1 1-.4c.2-.3.4-.6.3-.9s-.3-.7-.6-.7c-.3-.1-.9 0-1.3.3zm1.3 4c-.2.4-.3.7-.2 1.1.1.3.4.6.8.6s.7-.1 1-.4c.2-.3.4-.6.3-.9s-.3-.7-.6-.7-1 0-1.3.3zm-20.1 11.6c-.2.4-.3.7-.2 1.1.1.3.4.6.8.6s.7-.1 1-.4c.2-.3.4-.6.3-.9s-.3-.7-.6-.7c-.4-.1-1 0-1.3.3zm4.7-1.4c-.2.4-.3.7-.2 1.1.1.3.4.6.8.6s.7-.1 1-.4c.2-.3.4-.6.3-.9s-.3-.7-.6-.7c-.4-.1-1 0-1.3.3zm4.2-1.4c-.2.4-.3.7-.2 1.1.1.3.4.6.8.6s.7-.1 1-.4c.2-.3.4-.6.3-.9s-.3-.7-.6-.7c-.4 0-1 0-1.3.3zm4.5-1.4c-.2.4-.3.7-.2 1.1.1.3.4.6.8.6s.7-.1 1-.4c.2-.3.4-.6.3-.9s-.3-.7-.6-.7c-.4-.1-1 0-1.3.3zm4-1.3c-.2.4-.3.7-.2 1.1.1.3.4.6.8.6s.7-.1 1-.4c.2-.3.4-.6.3-.9s-.3-.7-.6-.7c-.3-.1-1 0-1.3.3zm4.2-1.3c-.2.4-.3.7-.2 1.1.1.3.4.6.8.6s.7-.1 1-.4c.2-.3.4-.6.3-.9s-.3-.7-.6-.7c-.3-.1-.9 0-1.3.3z"/></g><g fill="none" class="O V W"><g class="P Q"><path d="M31.1 121.7l-3.2-.3c.3-.4.6-.6 1-.9.6-.5.7-.8 1.4-1.2"/><path d="M30.2 121.3l-.6-1.5m-.1-3.2l-2.8.9m0-.2c-.2-.2-.3-.6-.2-.8.1-.3.4-.4.7-.3s.5.3.7.5c-.2-.4-.2-1 .2-1.2.3-.2.8-.1 1.1.2.1.1.1.2.2.3s.1.2.2.4m-4.2-4.8c-.2-.1-.4.1-.5.3-.1.4.3.9.6 1.1.4.2.8.1 1.2 0 .2-.1.5-.1.7-.2s.4-.3.5-.5v-.3c0-.5-.4-.9-1-1m-2.9-2.2c.8-.3 1.7-.5 2.6-.7m-2.6.6c-.2-.5-.2-1.2.1-1.6s.8-.7 1.3-.5c.5.1 1 .6 1.1 1.1 0 .1.1.2.2.3m-1.4-4.6l-2.9.7a3.08 3.08 0 0 1-.3-1.3m3.2.5c-.2-.5-.3-1-.5-1.4m-1.2 1.5c-.1-.3-.1-.6-.2-.8m-6-13.4c.1.4.3.9.4 1.3l2.9-.7m-1.6.3l-.3-.9M16.5 85c-.2.1-.2.3-.2.5 0 .4.3.7.7.9.3.1.7.1 1 0s.5-.2.7-.4c.3-.3.5-.6.4-1 0-.4-.3-.7-.7-.9-.2-.1-.5-.1-.7 0-.1 0-.2.1-.3.2s0 .3 0 .5c.1.2.2.4.3.5v-.1m-1.4-9.5l-2.9.7m-1.6-4.8c.8-.3 1.6-.5 2.5-.6h.3c.2.1.4.4.4.7s-.2.5-.4.6-.5 0-.7-.1m3.6 7.3l-3 .8"/><path d="M16.7 81.6c-.2-.6-.4-1.2-.5-1.8m1.8 1.5c-.9.3-1.9.6-2.9.8"/><use xlink:href="#i"/><path d="M17.9 64.4l-.3-1"/><use xlink:href="#j"/><path d="M56.3 53.9a.78.78 0 0 0-.4-.4c-.2-.1-.3-.1-.5-.1l2-.6m.4.4l-.3-1m-.5-1.1c.1.2 0 .3-.1.5-.1.1-.3.3-.5.3-.3.1-.7.2-1.1.1-.2-.1-.4-.3-.5-.5 0-.2 0-.5.2-.6.2-.3.6-.4 1-.5.2 0 .4 0 .6.1.2.2.4.4.4.6m20.2-3.4a.78.78 0 0 0-.4-.4c-.2-.1-.3-.1-.5-.1l2-.6m.4.4l-.3-1"/><use xlink:href="#k"/><use xlink:href="#l"/><use xlink:href="#m"/><use xlink:href="#n"/><path d="M118.1 31.5l.3 1.1h.1c.3-.1.6-.3 1-.4-.2-.2-.4-.4-.4-.7s.2-.6.5-.7h.3c.3 0 .5.2.7.4.1.2 0 .7-.1.9"/><use xlink:href="#o"/><use xlink:href="#p"/><path d="M35.4 124.6a.78.78 0 0 0-.4-.4c-.2-.1-.3-.1-.5-.1l2-.6m.4.4l-.3-1m15.3-5c.1.4.3.9.4 1.3v.1h.1c.3-.1.6-.3 1-.4-.2-.2-.4-.5-.5-.9 0-.3.1-.7.4-.8h.3c.3 0 .6.2.7.5s.1.8-.1 1m21.1-5.2a.78.78 0 0 0-.4-.4c-.2-.1-.3-.1-.5-.1l2-.6m.4.4l-.3-1m-.5-1.1c.1.2 0 .3-.1.5-.1.1-.3.3-.5.3-.3.1-.7.2-1.1.1-.2-.1-.4-.3-.5-.5 0-.2 0-.5.2-.6.2-.3.6-.4 1-.5.2 0 .4 0 .6.1s.4.3.4.6m20.2-3.5a.78.78 0 0 0-.4-.4c-.2-.1-.3-.1-.5-.1l2-.6m.4.4l-.3-1m-2.8-1l.3 1.1h.1c.3-.1.6-.3 1-.4-.2-.2-.4-.4-.4-.7s.2-.6.5-.7h.3c.3 0 .5.2.7.4.1.2 0 .7-.1.9m20.6-4.9c-.2.3-.5.2-.8.1-.2-.1-.3-.7-.1-.9.2-.1.4-.2.5-.2.2 0 .4.1.7.2l1 .5c-.2-.7-.2-.7-.5-1.4m-.2-1.2c.1.2 0 .3-.1.5a.55.55 0 0 1-.5.3c-.3.1-.7.2-1.1.1-.2-.1-.4-.3-.5-.5 0-.2 0-.5.2-.6.2-.3.6-.4 1-.5.2 0 .4 0 .6.1.1.1.3.3.4.6m20.6-3.5a.53.53 0 0 1-.8.1c-.2-.1-.3-.7-.1-.9.2-.1.4-.2.6-.2s.5 0 .7.2l1.1.5c-.2-.7-.2-.7-.5-1.4m-2.7-1.1l.3 1.1h.1c.3-.1.6-.3 1-.4-.2-.2-.4-.4-.4-.7s.2-.6.5-.7h.3c.3 0 .5.2.7.4.1.2 0 .7-.1.9m20.3-4.5c-.1-.3-.2-.7-.3-1.1.3.2.7.3 1 .5-.1-.2-.2-.4-.1-.6.1-.3.4-.5.7-.5s.6.3.7.6.1.6-.1.9h-.1m-.4-3c.1.1 0 .3-.1.5-.1.1-.3.3-.6.3-.4.2-.8.3-1.1.2s-.4-.2-.5-.5c0-.2 0-.5.2-.6.3-.3.7-.4 1.1-.5.2 0 .4 0 .6.1.2 0 .4.2.4.5"/></g><path d="M165.1 78.9c-1.2-.3-1.5-.3-2.7-.5.2-.3.5-.6.8-.9.5-.4.6-.7 1.1-1.2"/><path d="M164.3 78.5l-.6-1.5m-.2-3.2c-.8.2-1.5.5-2.3.7m-.1-.1c-.2-.2-.3-.6-.2-.8.1-.3.3-.4.6-.3.2.1.5.3.6.6-.2-.4-.2-1 .1-1.2s.7-.1.9.3c.1.1.1.2.1.3.1.1.1.2.2.4m-3.6-5c-.2-.1-.4.1-.4.3 0 .4.3.9.6 1.1s.7.1 1 0c.2-.1.4-.1.6-.2.1-.1.3-.3.4-.5v-.3c-.1-.5-.4-.9-.9-1m-2.6-2.2c.7-.2 1.4-.4 2.2-.5m-2.3.5c-.2-.5-.2-1.2 0-1.6s.7-.6 1.1-.5.8.6 1 1.1c0 .1.1.2.2.3m-1.4-4.5c-.8.1-1.6.3-2.4.5-.1-.4-.3-.9-.3-1.3m2.7.7c-.2-.5-.3-1-.5-1.4m-.9 1.4c-.1-.3-.2-.6-.2-.8M152 46.3c.1.4.3.9.4 1.3.8-.1 1.6-.3 2.4-.6"/><path d="M153.4 47.2l-.3-.9m-2.1-4.1c-.1.1-.2.3-.1.5.1.4.3.7.6.9.3.1.6.1.9 0l.6-.3c.2-.2.4-.6.3-1s-.3-.7-.6-.9c-.2-.1-.4-.1-.6 0-.1 0-.2.1-.2.2-.1.1 0 .3.1.5s.2.4.3.5v-.1m-2-9.6l-2.4.5m-1.6-4.7c.6-.3 1.3-.4 2.1-.5h.3c.2.1.4.5.4.8s-.1.5-.3.6-.4 0-.6-.1m3.3 7.2l-2.5.6m1.9 1.5c-.2-.6-.4-1.2-.5-1.8m1.7 1.5c-.8.3-1.6.5-2.4.6"/></g><path d="M67.7 57.1c1-2.2 3.2-3.5 5.3-4.7.9-.5 1.7-.9 2.7-1.2 2.7-.7 5.5.5 8 1.6l-2.2 3.4c-1.8-.8-4.4-.5-6.7.5a14.1 14.1 0 0 0-5.5 4.7l-1.6-4.3z" class="X"/><path d="M69 57.9c1.1-2.3 3.6-3.6 5.8-4.7 2.7-1.3 5.5-.1 8.1 1l-.5-2.1-2.2 3.4 2.1-.5c-5.3-2.3-11.2 1.5-14.2 5.8.9.1 1.8.2 2.7.4-.5-1.5-1.1-2.9-1.6-4.4-.3-.8-1-1.3-1.8-1-.7.2-1.3 1.1-1 1.8.5 1.5 1.1 2.9 1.6 4.4.5 1.3 2 1.4 2.7.4 1.2-1.7 2.8-3 4.6-4 1.5-.8 3.8-1.4 5.5-.7.8.3 1.6.2 2.1-.5.7-1.1 1.4-2.3 2.2-3.4.4-.6.2-1.7-.5-2.1-3.4-1.5-7-2.8-10.6-1.2-2.9 1.2-6 3.1-7.4 6-1 1.6 1.5 3.1 2.4 1.4z"/><path d="M85 56.6c-4.9 1.9-9.4-6.6-.3-14 1.8-1.5 4.3-1.7 6.6-2.1 4.6-.8 9.1-1.9 13.6-3.1 3.4-1 6.9-2.1 9.9-4s5.5-4.9 6.3-8.3c3.9 4.1 9 18.6 1 23.6" class="X"/><path d="M84.6 55.2c-1.9.7-3.3-.7-3.6-2.7-.5-3.4 2.1-6.9 4.7-8.8 1.7-1.2 4-1.4 6-1.7 2.5-.4 5-1 7.5-1.6 4.8-1.1 9.7-2.3 14.2-4.5 4.2-2.1 7.9-5.7 9.1-10.4-.8.2-1.7.4-2.5.7 2.5 2.7 3.9 6.8 4.5 10.4.7 3.8.4 8.6-3.2 10.9-1.6 1-.1 3.6 1.5 2.6 4.6-3 5.4-8.4 4.7-13.4-.6-4.4-2.3-9.3-5.4-12.5-.8-.8-2.2-.4-2.5.7-1.2 4.8-5.4 7.9-9.8 9.6-5.1 2-10.7 3.2-16.1 4.3-2.5.5-5.1.7-7.4 1.5-2.2.8-4 2.5-5.5 4.3-2.1 2.7-3.6 6.4-2.4 9.9 1 2.9 3.9 4.9 7 3.8 1.8-.9 1.1-3.8-.8-3.1h0z"/><path d="M84 51.6c2 6.4 6.3 16 12.4 17.5s12.3-.2 17.1-3.7c1.5-1.1 2.9-2.3 3.8-3.9 1-1.7 1.6-3.6 2-5.6 1-4.5.6-10.6.6-15.3-12 3.6-30.9 2-35.9 11"/><path d="M82.6 52c1.2 4 2.8 7.9 5.1 11.4 2.1 3.3 4.9 6.4 8.8 7.3 5 1.1 10.3.2 14.9-2.1 2.2-1.1 4.3-2.6 5.9-4.4 1.7-1.9 2.7-4.2 3.3-6.6 1.5-5.5.9-11.3.9-16.9 0-1-1-1.7-1.9-1.4-5.3 1.5-10.9 2-16.3 2.8-5.1.7-10.6 1.5-15.2 3.9-2.2 1.2-4.1 2.8-5.3 5-1 1.7 1.6 3.2 2.6 1.5 2.8-5 9.8-6.1 14.9-6.9 6.7-1.1 13.6-1.5 20.2-3.4a23.07 23.07 0 0 0-1.9-1.4c0 4.4.4 8.9-.2 13.2-.3 2.2-.9 4.6-2 6.5s-2.8 3.3-4.5 4.5c-3.8 2.5-8.4 3.8-13 3.2-3.7-.5-6.1-2.6-8.2-5.6-2.3-3.4-3.9-7.3-5.1-11.3-.7-1.9-3.6-1.1-3 .7h0z"/><path d="M67.9 62.7c5.1-1 4.4-10.6-7.3-12-2.3-.3-4.6.9-6.7 1.8-4.3 1.8-8.7 3.3-13.1 4.7-3.4 1-6.9 2-10.5 1.9s-7.2-1.1-9.8-3.7c-1.1 5.5 2.4 20.5 11.8 20.4" class="X"/><path d="M68.3 64.1c2.4-.5 4-2.7 4.1-5.1.1-2.9-1.7-5.5-4-7.1-3.6-2.6-8.5-3.4-12.6-1.8-5.5 2.2-11 4.4-16.7 6s-12.7 2.8-17.4-1.8c-.8-.7-2.3-.5-2.5.7-.8 4.5.4 9.5 2.2 13.6 2 4.6 5.8 8.7 11.1 8.7 1.9 0 1.9-3 0-3-4.3 0-7-3.8-8.6-7.4-1.4-3.3-2.5-7.8-1.8-11.2-.8.2-1.7.4-2.5.7 7.9 7.6 20 2.9 28.8-.2 2.6-.9 5.1-1.9 7.6-3 1.1-.5 2.3-1 3.4-1.1s2.3.1 3.4.4c2.6.7 5.4 2.1 6.4 4.7.4 1 .4 1.8.1 2.7-.2.6-.8 1.1-1.7 1.3-1.9.4-1.1 3.3.7 2.9h0z"/><path d="M66.1 57.9c1.8 6.5 3.3 16.9-1.1 21.4-4.4 4.6-10.5 6.5-16.4 6.1-1.8-.1-3.7-.4-5.4-1.3-1.8-.8-3.3-2.2-4.7-3.6-3.3-3.2-6.1-8.6-8.7-12.6C41.9 64.5 57 53 66.1 57.9"/><path d="M64.7 58.3c1 3.6 1.7 7.3 1.7 11 .1 3.3-.3 6.9-2.8 9.4-3.1 3-7.2 4.8-11.5 5.2-2.2.2-4.5.1-6.6-.5-2.3-.7-4.2-2.2-5.9-3.9-3.5-3.5-5.8-8.1-8.5-12.3-.3.7-.6 1.5-.9 2.2 6.5-1.9 12.5-5.3 18.8-8 4.7-2 11.3-4.9 16.3-2.2 1.7.9 3.2-1.7 1.5-2.6-5.6-2.9-12.2-.7-17.6 1.5-6.6 2.7-12.9 6.4-19.8 8.4-.9.3-1.4 1.4-.9 2.2 2.7 4.2 5 8.7 8.4 12.4 1.8 1.9 3.9 3.7 6.3 4.7 2.3.9 4.8 1.2 7.3 1.2 4.8-.1 9.6-1.7 13.4-4.7 1.6-1.3 3.1-2.8 4-4.7.8-1.8 1.2-3.8 1.3-5.8.4-4.8-.5-9.7-1.8-14.3-.4-1.8-3.3-1.1-2.7.8h0z"/><g fill="#fff"><use xlink:href="#q"/><path d="M101.2 58.2c-.7-.7-.9-1.8-.3-2.7 2.3-3.4 4.9-6.9 8.1-9.5.1-.1.2-.2.4-.2s.3.1.5.2a3.04 3.04 0 0 0 .7.5c.9.7 1 2.1.2 3-2.7 3-5.2 6.2-7.2 9.7-.1.2-.3.4-.5.4-.1 0-.2-.1-.3-.2-.5-.1-1.1-.7-1.6-1.2zM39.1 75.3c-.8-.7-.9-1.9-.3-2.8 2.4-3.6 5.1-7.3 8.5-9.9.1-.1.2-.2.4-.2s.3.1.5.2c.3.2.5.4.8.6 1 .8 1.1 2.2.2 3.1-2.9 3.1-5.4 6.5-7.6 10.1-.1.2-.3.5-.5.4a.76.76 0 0 1-.4-.2c-.5-.2-1.1-.8-1.6-1.3zm9.1-.8c-.8-.7-.9-1.9-.3-2.8 2.4-3.6 5.1-7.3 8.5-9.9.1-.1.2-.2.4-.2s.3.1.5.2c.3.2.5.4.8.6 1 .8 1.1 2.2.2 3.1-2.9 3.1-5.4 6.5-7.6 10.1-.1.2-.3.5-.5.4a.76.76 0 0 1-.4-.2c-.5-.3-1.1-.8-1.6-1.3z"/></g><path d="M118.9 59.1l7 1.5c.8.2 1.7-.2 1.8-1 .2-.8-.2-1.7-1-1.8l-7-1.5c-.8-.2-1.7.2-1.8 1-.3.7.1 1.6 1 1.8h0zm1.6-3.4c2.4-.3 4.8-.5 7.3-.5a1.54 1.54 0 0 0 1.5-1.5 1.54 1.54 0 0 0-1.5-1.5l-7.3.5c-.8.1-1.5.6-1.5 1.5 0 .8.7 1.6 1.5 1.5h0zM40.9 79.6l-6.6 2.7c-.4.2-.7.3-.9.7a1.64 1.64 0 0 0-.2 1.2c.2.7 1.1 1.4 1.8 1l6.6-2.7c.4-.2.7-.3.9-.7a1.64 1.64 0 0 0 .2-1.2c-.2-.7-1-1.4-1.8-1h0zm.3 3.9l-2.7 2.3-1.4 1.1-.3.3c-.2.2.1-.1 0 0-.1 0-.1.1-.2.1-.2.2-.5.4-.7.6-.3.2-.6.5-.7.9s-.1.8.2 1.2c.4.6 1.4 1 2.1.5l6-4.8c.6-.5.6-1.6 0-2.1-.8-.7-1.7-.7-2.3-.1h0z"/><path d="M117 146.4c-2.2 3.8-3.5 8-4.9 12.1-.4 1.1-.9 2.4.4 3.2.9.5 2.2.7 3.2 1l6.6 1.9c1.9.5 2.7-2.4.8-2.9-1.6-.5-3.2-.9-4.8-1.4-1.5-.4-3.1-.8-4.6-1.4.2.1.4.3.7.4l-.1-.1c.1.4.3.7.4 1.1 0-.5.4-1.1.6-1.6s.4-1.1.6-1.6c.4-1.1.7-2.1 1.1-3.2.8-2.1 1.6-4.1 2.8-6 .7-1.7-1.9-3.2-2.8-1.5h0z"/><path d="M96.5 165.8l1.4-45.3 68.1-1c.6 0 1.3 0 1.8.3.8.5.9 1.4.9 2.3-.9 13.7-1.4 30-1.5 42.2-22.5 1.4-50 1.4-70.7 1.5"/><path d="M98 165.8l1.4-45.3-1.5 1.5 47.2-.7 11.4-.2 5.5-.1h3c.7 0 2-.4 2.1.5.1.5 0 1.3-.1 1.8l-.2 2.6-.3 5.3-.5 10.8c-.3 7.4-.4 14.9-.5 22.3l1.5-1.5c-18.7 1.2-37.4 1.3-56.1 1.4l-14.5.1c-1.9 0-1.9 3 0 3l55.2-.7 15.4-.7c.8-.1 1.5-.6 1.5-1.5l.5-21c.1-3.7.3-7.5.5-11.2l.3-4.9c.1-1.8.4-3.7.3-5.5 0-1.4-.6-2.8-2-3.4-1.6-.8-3.9-.3-5.7-.3l-12.4.2-24.3.4-27.8.4a1.54 1.54 0 0 0-1.5 1.5L95 165.9c0 1.8 3 1.8 3-.1h0z"/><g fill="#fff"><path d="M104.6 134.1a1786.16 1786.16 0 0 0 56.7 0c1.9 0 1.9-3 0-3h-56.7c-2 0-2 3 0 3h0zm28.6 30.8c.6-4.4 1.1-8.9 1.3-13.4a1.54 1.54 0 0 0-1.5-1.5 1.54 1.54 0 0 0-1.5 1.5 134.18 134.18 0 0 1-1.2 12.6c-.1.8.2 1.6 1 1.8.7.3 1.7-.1 1.9-1h0zM97.9 149c17.6.5 35.1.4 52.7-.4a372.08 372.08 0 0 0 14.9-.9c1.9-.1 1.9-3.1 0-3-17.5 1.2-35.1 1.8-52.7 1.6a370.28 370.28 0 0 1-14.9-.3c-1.9 0-1.9 3 0 3h0zm42.8 7.3c2.3 0 4.4-2.1 4.2-4.4-.1-.6-.5-1.1-1.1-1.1a1.11 1.11 0 0 0-1.1 1.1l-.3 9.4 1.1-1.1-2.1.2c-1.5.2-1.4 2.1 0 2.2 1.7.2 3.4.2 5.1-.1.6-.1.9-.8.8-1.4-.2-.6-.8-.9-1.4-.8a16.95 16.95 0 0 1-4.5 0v2.2l2.1-.2c.6-.1 1.1-.5 1.1-1.1l.3-9.4h-2.2c.1 1.1-.8 2.2-1.9 2.2-1.5 0-1.5 2.3-.1 2.3h0zm11.1-2.4c.5-.2.9-.4 1.4-.5.4-.1.8 0 1.3 0h.5.3c-.3 0 0 0 .1 0s.1 0 .2.1c.1 0-.2-.1 0 0-.1-.1-.2-.2-.2-.3.1.2 0-.2 0 .1l.6-1c-.7.4-1.3.9-1.9 1.4-.3.2-.6.5-.9.7.1-.1-.1.1-.1.1-.1.1-.2.1-.2.2-.1.1-.3.2-.4.3-1 .5-.5 2.1.6 2.1h.6.3c.3 0-.1 0 .1 0s.4.1.6.1c.1 0 .2.1.3.1-.2-.1 0 0 .1.1.1 0 .2.1.2.2-.2-.1 0 0 .1.1.2.1 0-.1.1.1 0 .1.1.2.1.1 0 .1.1.2.1.3 0-.2 0 .1 0 .1 0-.2 0 .1 0 .1.1-.2-.1.1-.1.2l-.1.1c0-.1 0-.1 0 0l-.2.2c-.1 0-.1.1 0 0l-.1.1c-.1.1-.2.1-.3.2-.1 0-.1.1-.2.1h0c-.1 0-.2.1-.3.1-.2.1-.5.1-.7.1h-.2 0-.3-.3-.1.1a3.49 3.49 0 0 1-1.3-.5c-.5-.3-1.2-.1-1.5.4s-.1 1.2.4 1.5c.6.3 1.3.7 2 .8s1.3 0 2-.1c1.4-.2 2.8-.9 3.4-2.2.7-1.4.3-2.9-1-3.8-1-.7-2.3-.9-3.5-.8l.6 2.1c.7-.4 1.3-.9 1.9-1.4.3-.2.6-.5.9-.7-.1.1.1-.1.1-.1.1-.1.2-.1.2-.2.1-.1.3-.2.4-.3.3-.2.6-.6.6-1 0-.7-.3-1.4-.9-1.7-.5-.3-1.1-.3-1.7-.4-.7-.1-1.3-.1-2 0-.8.1-1.5.4-2.3.7-.6.2-.7 1.1-.4 1.5-.2.8.4.9 1 .6h0zm-41.5.8c.1.3 0 .2 0 .4.1-.1.1-.1 0 0l.1-.1s.1-.1.1 0h-.1c.1 0 .1.1.2.1-.1-.1.1.2 0 0l.3.6c.4 1 .6 2.2.4 3.2-.1.6-.3 1.1-.6 1.5.1-.1-.4.3-.3.3-.1.1-.2.1-.3.2 0 0-.3.2-.2.1-.5.2-.7.2-1.2.2.2 0-.1 0-.1 0-.2-.1 0 0-.1-.1-.2-.1-.2-.1-.5-.4-.2.6-.3 1.3-.5 1.9.7-.2 1.4-.1 2.1 0l2.6.6c1.8.4 3.6.6 5.2-.3 1.3-.7.1-2.6-1.1-1.9-.6.3-1.1.4-1.9.3-.7 0-1.5-.3-2.3-.5-1.7-.4-3.4-.9-5.2-.5-.9.2-1 1.3-.5 1.9 1.9 2.3 5.6 1 6.6-1.4.7-1.4.7-3 .4-4.5-.3-1.4-.8-3.1-2.3-3.6-.8-.3-1.7 0-2.3.5-.7.6-.9 1.6-.5 2.4.3.6 1.1.7 1.5.4.7-.1.8-.7.5-1.3h0zm-2.5-11.4c2.3-1.4 4.4-3.2 6.1-5.3-.6-.4-1.3-.7-1.9-1.1a8.35 8.35 0 0 0 .5 6.4c.4.9 1.8.6 2.1-.3.3-1 1.4-1.7 2.4-1.5 1.2.2 1.9 1.1 3.2.6.4-.2.7-.4 1-.7.5-.5.6-.8 1.4-.6 1.6.3 3.1.9 4.6 1.4 2.6.8 5.1 1.9 7.8.7 1.2-.6 2.3-1.5 3.6-1.6 1.3-.2 2.6.3 3.6 1.1.4.3.9.4 1.4.2 3.6-1.9 7.7-2.6 11.7-1.9 1.4.2 2-1.9.6-2.2a21.13 21.13 0 0 0-13.5 2.1c.5.1.9.1 1.4.2-2.2-2-5.2-2.3-7.9-1-1.5.8-2.7 1.7-4.5 1.3s-3.7-1.1-5.5-1.6c-1.4-.4-3.2-1.4-4.6-.9-.6.2-1 .6-1.4 1-.1.1-.5.6-.6.6-.2 0-.9-.4-1.2-.5-2.4-.9-5 .5-5.7 2.9l2.1-.3c-.7-1.5-.7-3.1-.3-4.7.3-1-1.1-2-1.9-1.1-1.6 1.9-3.5 3.6-5.7 4.9-1.2.7-.1 2.7 1.2 1.9h0zm60.7-17.6l.1-6.9c-.1-.3-.3-.5-.7-.7-.5-.3-1.2-.3-1.8-.3l-68 .3-.2 9.5h.1c20.6.1 48.1.3 70.5-.7-.1-.4 0-.8 0-1.2z"/></g><path d="M170 125.7v-3.6c0-1.1.3-2.6 0-3.7-.7-2.3-3.5-2.1-5.4-2.1l-16.2.1-32 .1-18.2.1a1.54 1.54 0 0 0-1.5 1.5l-.2 9.5a1.54 1.54 0 0 0 1.5 1.5c4.2.2 8.4 0 12.5.1h13.9l28.6-.3 15.5-.5a1.54 1.54 0 0 0 1.5-1.5c-.1-.4 0-.8 0-1.2.1-1.9-2.9-1.9-3 0 0 .4 0 .8-.1 1.1l1.5-1.5c-18.8.9-37.5.9-56.3.8-4.7 0-9.5.1-14.2-.1l1.5 1.5.2-9.5-1.5 1.5 60-.3c2.8 0 5.6-.2 8.4 0 .6 0 .6-.1.5.5s0 1.3 0 1.9v4.1c0 1.9 3 1.9 3 0z"/><use xlink:href="#r"/><path d="M109.2 118.7l-5.1 7.5c-.3.5.1 1.2.6 1.1l9 .1c.6 0 1.3.2 1.9 0s.8-.7 1.1-1.2l2.2-3.9 1.2-2.1c.2-.4.7-1 .6-1.5-.3-1.3-2.3-.7-3.2-.7-1.5.1-2.9.1-4.4 0-.8 0-1.6-.1-2.4-.2-.6-.1-1.1-.2-1.6.2-.3.2-.3.6-.1.9.2.4.7.6 1.1.4.5-.2.7-.8.3-1.3-.7-.7-1.7.4-1.1 1.1l.3-1.3h.2c.1.1.3.2.4.3v-.1c0 .3-.1.6-.1.9l.1-.1c-.2.1-.4.1-.5.2.7-.1 1.6.1 2.3.2.9.1 1.8.1 2.7.1h2.5c.4 0 .8 0 1.1-.1.3 0 .9-.2 1.2 0-.1-.1-.2-.3-.3-.4 0-.1-.5.6-.5.7l-.6 1-1.2 2.1-1.2 2.1c-.1.2-.4.9-.6 1s-.8 0-1-.1c-3.1-.2-6.3-.2-9.4-.1l.6 1.1 5.1-7.5c.6-.4-.7-1.2-1.2-.4h0zm21.4.8l-5.1 7.5 9.9.1c.4 0 .8 0 1-.1l.2-.2 4.1-7.3c0-.1.1-.2 0-.3-.1-.2-.5-.2-.7-.1-2.9.3-6 .2-9.1-.1-.2 0-.4 0-.5.1 0 .1.4.1.2 0"/><path d="M129.9 119.2l-5.1 7.5c-.3.5.1 1.2.6 1.1l9 .1c.6 0 1.3.2 1.9 0s.8-.7 1.1-1.2l2.2-3.9 1.2-2.1c.2-.4.7-1 .6-1.5-.3-1.3-2.3-.7-3.2-.7-1.5.1-2.9.1-4.4 0-.8 0-1.6-.1-2.4-.2-.6-.1-1.1-.2-1.6.2-.3.2-.3.6-.1.9.2.4.7.6 1.1.4.5-.2.7-.8.3-1.3-.7-.7-1.7.4-1.1 1.1l.3-1.3h.2c.1.1.3.2.4.3v-.1c0 .3-.1.6-.1.9l.1-.1c-.2.1-.4.1-.5.2.7-.1 1.6.1 2.3.2.9.1 1.8.1 2.7.1h2.5c.4 0 .8 0 1.1-.1.3 0 .9-.2 1.2 0-.1-.1-.2-.3-.3-.4 0-.1-.5.6-.5.7l-.6 1-1.2 2.1-1.2 2.1c-.1.2-.4.9-.6 1s-.8 0-1-.1c-3.1-.2-6.3-.2-9.4-.1l.6 1.1 5.1-7.5c.7-.5-.6-1.2-1.2-.4h0zm21.5.3l-5.1 7.5 9.9.1c.4 0 .8 0 1-.1l.2-.2 4.1-7.3c0-.1.1-.2 0-.3-.1-.2-.5-.2-.7-.1-2.9.3-6 .2-9.1-.1-.2 0-.4 0-.5.1 0 .1.4.1.2 0"/><path d="M150.8 119.1l-5.1 7.5c-.3.5.1 1.2.6 1.1l9 .1c.6 0 1.3.2 1.9 0s.8-.7 1.1-1.2l2.2-3.9 1.2-2.1c.2-.4.7-1 .6-1.5-.3-1.3-2.3-.7-3.2-.7-1.5.1-2.9.1-4.4 0-.8 0-1.6-.1-2.4-.2-.6-.1-1.1-.2-1.6.2-.3.2-.3.6-.1.9.2.4.7.6 1.1.4.5-.2.7-.8.3-1.3-.7-.7-1.7.4-1.1 1.1l.3-1.3h.2c.1.1.3.2.4.3v-.1c0 .3-.1.6-.1.9l.1-.1c-.2.1-.4.1-.5.2.7-.1 1.6.1 2.3.2.9.1 1.8.1 2.7.1h2.5c.4 0 .8 0 1.1-.1.3 0 .9-.2 1.2 0-.1-.1-.2-.3-.3-.4 0-.1-.5.6-.5.7l-.6 1-1.2 2.1-1.2 2.1c-.1.2-.4.9-.6 1s-.8 0-1-.1c-3.1-.2-6.3-.2-9.4-.1l.6 1.1 5.1-7.5c.6-.5-.7-1.2-1.2-.4h0z"/><path d="M107.5 78.8c-2.5 4.4-3.6 9.6-5.1 14.2l62.6 26.1c.6.2 1.2.5 1.7.6.8.2 1.2 0 1.3-.3 1.9-4.2 2.7-8.5 4.4-13.4-20.4-8.9-45.8-19.4-64.9-27.2" fill="#fff"/><path d="M106.2 78c-2.5 4.6-3.7 9.6-5.2 14.6-.3.8.3 1.5 1 1.8l32.9 13.7 16.3 6.8 8.3 3.5c1.3.5 2.6 1.1 3.9 1.6 1.2.5 2.5 1.2 3.8 1.2 1.4 0 1.9-.9 2.4-2 .5-1.3 1-2.7 1.4-4 .9-2.9 1.7-5.9 2.7-8.8.2-.6-.1-1.4-.7-1.7-17-7.5-34.3-14.7-51.6-21.8L108 77.3c-1.8-.7-2.6 2.2-.8 2.9l50.5 21 13.9 6c-.2-.6-.5-1.1-.7-1.7-.8 2.4-1.5 4.9-2.2 7.4-.3 1.1-.7 2.2-1 3.3-.2.5-.4 1.1-.6 1.6 0 .1-.3.8-.3.8.2-.1.3-.3.5-.4-.2 0-.4-.1-.6-.2-2.6-.8-5.2-2.1-7.7-3.2s-5.1-2.1-7.6-3.2l-30.8-12.9-17.5-7.3c.3.6.7 1.2 1 1.8 1.4-4.7 2.5-9.5 4.9-13.9.8-1.5-1.8-3-2.8-1.3h0z"/><use xlink:href="#s"/><path d="M114.2 95.7l-2.3-14.5c-.4.3-.7.6-1.1.8l5.5 2.5 2.9 1.1c.4.1 1.1.2 1.4.5.4.3.3 1.1.4 1.6l.7 6.4.3 3.2c.1.5.1 1 .2 1.5s.3 1.3.1 1.8c.1-.1.2-.3.3-.4l-2-1.2c-.7-.4-1.4-.7-2.2-1l-2.4-.9c-.7-.2-1.8-.3-2.4-.7.1.1.2.3.3.4 0-.1 0-.1-.1-.2-.1.2-.1.5-.2.7 0 0 0-.1.1-.1-.2.1-.4.1-.5.2h.1c-.2-.1-.4-.1-.5-.2 0 0 .1 0 .1.1 0-.3-.1-.6-.1-.9v.1c-.5.8.8 1.6 1.3.8v-.1c.2-.2.1-.7-.1-.9-.7-.5-1.8-.2-1.5.8s2.2 1.1 3 1.3c1.5.5 2.9 1 4.3 1.8.7.3 1.3.7 1.9 1.1.4.2.9.5 1.4.3 1.2-.4.6-2.4.5-3.3l-.5-5.1-.5-5.1c-.1-1.1 0-2.5-1-3.2-.6-.4-1.4-.5-2.1-.7a27.73 27.73 0 0 1-2.6-1 50.54 50.54 0 0 1-5.3-2.4c-.6-.3-1.2.2-1.1.8l2.3 14.5c.1 1 1.6.6 1.4-.4h0zm19.1 8.1L131 89.3c3 1.6 6.2 2.9 9.4 3.9.4.1.8.3.9.6.1.1.1.3.1.5l1.5 13.9c0 .2 0 .3-.1.5-.2.2-.5.1-.7-.1-2.7-1.7-5.6-2.9-8.7-3.5-.2 0-.4-.1-.4-.3s.4 0 .2.1"/><path d="M134.1 103.6l-2.3-14.5c-.4.3-.7.6-1.1.8l5.5 2.5 2.9 1.1c.4.1 1.1.2 1.4.5.4.3.3 1.1.4 1.6l.7 6.4.3 3.2c.1.5.1 1 .2 1.5s.3 1.3.1 1.8c.1-.1.2-.3.3-.4l-2-1.2c-.7-.4-1.4-.7-2.2-1l-2.4-.9c-.7-.2-1.8-.3-2.4-.7.1.1.2.3.3.4 0-.1 0-.1-.1-.2-.1.2-.1.5-.2.7 0 0 0-.1.1-.1-.2.1-.4.1-.5.2h.1c-.2-.1-.4-.1-.5-.2 0 0 .1 0 .1.1 0-.3-.1-.6-.1-.9v.1c-.5.8.8 1.6 1.3.8v-.1c.2-.2.1-.7-.1-.9-.7-.5-1.8-.2-1.5.8s2.2 1.1 3 1.3c1.5.5 2.9 1 4.3 1.8.7.3 1.3.7 1.9 1.1.4.2.9.5 1.4.3 1.2-.4.6-2.4.5-3.3l-.5-5.1-.5-5.1c-.1-1.1 0-2.5-1-3.2-.6-.4-1.4-.5-2.1-.7a27.73 27.73 0 0 1-2.6-1 50.54 50.54 0 0 1-5.3-2.4c-.6-.3-1.2.2-1.1.8l2.3 14.5c.1 1 1.5.6 1.4-.4h0zm19 9l-2.3-14.5c3 1.6 6.2 2.9 9.4 3.9.4.1.8.3.9.6.1.1.1.3.1.5l1.5 13.9c0 .2 0 .3-.1.5-.2.2-.5.1-.7-.1-2.7-1.7-5.6-2.9-8.7-3.5-.2 0-.4-.1-.4-.3s.4 0 .2.1"/><path d="M153.8 112.4l-2.3-14.5c-.4.3-.7.6-1.1.8l5.5 2.5 2.9 1.1c.4.1 1.1.2 1.4.5.4.3.3 1.1.4 1.6l.7 6.4.3 3.2c.1.5.1 1 .2 1.5s.3 1.3.1 1.8c.1-.1.2-.3.3-.4l-2-1.2c-.7-.4-1.4-.7-2.2-1l-2.4-.9c-.7-.2-1.8-.3-2.4-.7.1.1.2.3.3.4 0-.1 0-.1-.1-.2-.1.2-.1.5-.2.7 0 0 0-.1.1-.1-.2.1-.4.1-.5.2h.1c-.2-.1-.4-.1-.5-.2 0 0 .1 0 .1.1 0-.3-.1-.6-.1-.9v.1c-.5.8.8 1.6 1.3.8v-.1c.2-.2.1-.7-.1-.9-.7-.5-1.8-.2-1.5.8s2.2 1.1 3 1.3c1.5.5 2.9 1 4.3 1.8.7.3 1.3.7 1.9 1.1.4.2.9.5 1.4.3 1.2-.4.6-2.4.5-3.3l-.5-5.1-.5-5.1c-.1-1.1 0-2.5-1-3.2-.6-.4-1.4-.5-2.1-.7a27.73 27.73 0 0 1-2.6-1 50.54 50.54 0 0 1-5.3-2.4c-.6-.3-1.2.2-1.1.8l2.3 14.5c.2 1 1.6.6 1.4-.4h0z"/><path d="M74.8 80.2c2.5.6 5.2 0 7.3-1.4 2.1-1.5 3.5-3.8 3.8-6.4 2.6 3.6 4.5 7.6 6 11.7.9 2.6 1.7 5.5.9 8.2s-3.5 5-6.2 4.3c-1.7-.4-3-1.9-4.1-3.4-3.1-4-5.9-8.2-7.8-12.9"/><path d="M74.4 81.7c6 1.2 12-2.7 12.9-8.8-.9.1-1.8.2-2.7.4 2.3 3.3 4.2 6.8 5.5 10.6 1.2 3.3 2.8 8-.4 10.7s-5.9-1.6-7.6-3.9c-2.4-3.3-4.5-6.7-6.1-10.4-.7-1.8-3.6-1-2.9.8 1.4 3.5 3.3 6.8 5.5 9.9 1.9 2.6 4 6.3 7.3 7.3 3.1.9 6.4-1.2 7.7-4 1.7-3.5.7-7.5-.6-11-1.5-4.1-3.4-7.9-5.9-11.5-.6-.9-2.5-1.1-2.7.4-.6 4.5-4.7 7.7-9.2 6.7-1.9-.5-2.7 2.4-.8 2.8h0z"/><path d="M90.5 80.7a8.18 8.18 0 0 0-2.4 1c-2.4 1.3-4.1 3.5-5.2 6-.6 1.5-1.1 3-1.3 4.6.3.4.6.7.8 1.1 1.1 1.4 2.4 2.9 4.1 3.4 2.7.7 5.5-1.6 6.2-4.3s0-5.6-.9-8.2l-1.3-3.6z" fill="#e76969"/><path d="M90.1 79.3c-3.2 1-5.7 2.9-7.5 5.7-.8 1.3-1.5 2.8-1.9 4.3l-.6 2.3c-.1.6-.1 1 .2 1.5l.9 1.2c1.9 2.4 4.3 4.7 7.6 3.9 2.9-.7 5.1-3.5 5.5-6.4.7-4.1-1-8.1-2.6-11.8-.3-.7-1.4-.9-2.1-.5-.8.5-.9 1.3-.5 2.1.9 2.1 1.7 4.2 2.1 6.4.4 1.9.3 4-.9 5.7-.8 1.1-2.3 2.1-3.7 1.6-1.7-.5-2.9-2.4-3.9-3.7.1.4.1.8.2 1.2.8-4.7 3.1-9 7.9-10.4 1.9-.8 1.2-3.7-.7-3.1z"/><g class="S"><path d="M17.4 105.6c-5.9 1.3-9.2 7.4-9.6 13-.5 5.9 2.2 11.6 6.9 15 4.5 3.3 10.5 4.2 15.8 2.3s9.5-5.9 12.8-10.4c4.1-5.6 7.7-12.7 6.7-19.7-.2-1.2-.9-2.2-2.2-2.2-1.1 0-2.4 1-2.2 2.2.7 5.4-1.5 10.3-4.3 14.8-2.3 3.8-5.3 7.4-9.1 9.7-3.7 2.2-8.1 2.9-12.1 1.2-4.1-1.7-7-5.4-7.6-9.8-.6-4.5 1.3-10.7 6.3-11.8 2.6-.6 1.4-4.9-1.4-4.3h0z"/><path d="M48.9 103.5c-3-1.7-6-3.5-8.8-5.4-1-.7-2.5-.2-3.1.8-.6 1.1-.2 2.4.8 3.1 2.8 2 5.8 3.8 8.8 5.4 1 .6 2.5.3 3.1-.8.5-1.1.3-2.5-.8-3.1h0z"/><path d="M50.3 104.9l-.1-4.2c0-.7 0-1.3.1-2 0-.3.1-.7.1-1 0-.2 0-.4.1-.6 0-.1.1-.8 0-.1.1-.6.1-1.2-.2-1.7s-.8-.9-1.3-1c-.6-.1-1.2-.1-1.7.2s-1 .8-1 1.3c-.4 3-.6 6.1-.3 9.1.1.6.2 1.1.7 1.6.4.4 1 .7 1.6.7.9-.1 2.1-1.1 2-2.3h0z"/><path d="M49.8 106.6l4.9-2.7 2.5-1.3 1.2-.6c.2-.1.4-.2.5-.3s.2-.1.4-.2c.5-.2.2-.2-1 .1l-1-.6.1.1-.6-1c0-.1 0-.3-.1-.4l.3-1.1v.1l.8-.8h-.1l1.1-.3h-.1c-1.2-.1-2.3 1.1-2.2 2.2.1 1.3 1 2.2 2.2 2.2 1.3.1 2.5-1.2 2.4-2.5a2.42 2.42 0 0 0-2.6-2.4c-.9 0-1.6.5-2.4.9l-1.8.9-6.9 3.7c-1 .6-1.5 2.1-.8 3.1.8 1.2 2.1 1.5 3.2.9h0z"/><path d="M163.6 59.2c1-.2 1.9.5 2.7 1.1s1.7 1.1 2.4 1.8c1.2 1.2 1.9 2.8 2.3 4.4.6 3 0 6.8-1.9 9.3-2.4 3.1-6.6 4.5-10.1 5.8-2.2.9-4.5 1.8-6.8 2.5l-7.7 2.3c-2 .6-4.5.9-5.9 2.6-1.6 1.8-2.5 4.2-3.1 6.5-.7 2.8 3.6 4 4.3 1.2.3-1.1.7-2.2 1.2-3.3.5-.9.7-1.1 1.2-1.7.2-.3-.2.1-.2.2l2.2-.7c1.5-.4 3-.9 4.4-1.3 5.1-1.5 10.1-3.3 14.9-5.3 4.1-1.7 8.4-4 10.5-8.2 1.8-3.7 2.3-8.2 1.1-12.2a12.09 12.09 0 0 0-4.1-6.1c-2.4-1.9-5.3-4-8.5-3.2-2.9.7-1.7 5 1.1 4.3h0z"/><path d="M144.7 88.7c-.6 3.1-.9 6.3-.9 9.4 0 1.2 1 2.3 2.2 2.2s2.3-1 2.2-2.2l.1-4.4c0-.3.1-.7.1-1 0-.1.1-.7 0-.4 0 .4 0-.3.1-.4l.4-2.1c.2-1.1-.3-2.5-1.6-2.8-1-.1-2.4.5-2.6 1.7h0z"/><path d="M134.5 88.8v-.2 1.2c-.1.1-.2.3-.3.4l.3-.3.3-.3c-.2.1-.2.1 0 0 .4-.3.8-.5 1.2-.7.1-.1.2-.1.4-.2-.2.1-.2.1 0 0l.8-.3c.2-.1.4-.1.6-.2.1 0 .9-.1.4-.1.5-.1 1-.1 1.5 0 .1 0 .9.1.5 0 .3 0 .6.1.9.2.2.1.4.1.6.2.1 0 .8.3.5.2.3.1.5.3.8.4.1.1.3.1.4.2.6.4.4 0-.5-1.2-.1 1.2 1.1 2.3 2.2 2.2 1.3-.1 2.2-1 2.2-2.2.1-2.2-2.5-3.3-4.2-3.9-1.6-.5-3.3-.8-5-.6a13.45 13.45 0 0 0-4.8 1.5c-1.7.9-3.8 2.5-3.2 4.7.3 1.1 1.6 1.9 2.8 1.6 1.2-.2 1.9-1.3 1.6-2.6h0z"/></g></g><path d="M181.3 90.5c0 17.7-5.8 35-16.3 49.3-10.4 14.1-25.2 24.8-41.7 30.6-17.4 6.1-36.6 6.8-54.4 1.9-17-4.6-32.5-14.3-44-27.7C13.5 131.3 6.3 114.5 5 97.1 3.6 79.3 8 61.5 17.4 46.5c9.3-14.8 23.1-26.4 39-33.4 16.9-7.5 36.2-9.5 54.3-5.9 17.4 3.4 33.6 12 46.1 24.5 12.3 12.4 20.6 28.3 23.4 45.6.8 4.3 1.1 8.8 1.1 13.2 0 1.9 3 1.9 3 0 0-18.3-6-36.2-16.8-50.9-10.8-14.6-25.9-25.7-43.1-31.7-18-6.4-37.9-7-56.3-2-17.5 4.8-33.6 14.8-45.4 28.7C10.8 48.3 3.4 65.5 2 83.7.5 102 5.1 120.6 14.9 136.1c9.6 15.3 23.9 27.4 40.4 34.6 17.5 7.6 37.2 9.7 56 6.1 18-3.5 34.8-12.4 47.7-25.4 12.7-12.8 21.4-29.4 24.2-47.2.7-4.5 1.1-9.1 1.1-13.6 0-2.1-3-2.1-3-.1h0z"/></svg>