<svg xmlns="http://www.w3.org/2000/svg" viewBox="0 0 381.28 380.33"><defs><style>.cls-1{fill:#ffda83;}.cls-2{fill:#ffe9b5;}.cls-3{fill:#4386c6;}.cls-4{fill:#e66869;}.cls-5{fill:#7dc4ca;}.cls-6{fill:#f0a4a5;}</style></defs><title>Recarga limón mapa conceptual</title><g id="gráficos"><rect class="cls-1" x="4.14" y="3.67" width="373" height="373" rx="23.02" ry="23.02"/><path d="M354.12,375.17H33.62c-7.27,0-14.13.11-20.23-5-7.09-5.91-7.75-13.81-7.75-22.12V63.81c0-12.34-.38-24.75,0-37.09C6.06,13,17,5.17,29.81,5.17h278.9c14.84,0,29.68-.14,44.51,0,12.75.11,22.3,9.5,22.42,22.3,0,4.81,0,9.62,0,14.43V350.79c0,12.86-7.62,24-21.52,24.38-1.93.05-1.93,3.05,0,3,14.41-.44,24.44-11.7,24.52-25.81,0-5.5,0-11,0-16.51V71.73c0-14.8.15-29.62,0-44.42A24.94,24.94,0,0,0,354,2.17c-4-.09-8,0-12.06,0H29.62c-11.38,0-21.84,5.32-25.7,16.72C2.25,23.8,2.64,29.14,2.64,34.26v314.1c0,7.21.37,14,5,20.15,5.85,7.69,14.43,9.66,23.46,9.66h323A1.5,1.5,0,0,0,354.12,375.17Z"/><rect class="cls-2" x="27.63" y="27.15" width="326.03" height="326.03" rx="23.02" ry="23.02"/><path d="M330.64,351.68H74.24c-12,0-30.23,2.95-39.27-6.77-8.71-9.38-5.84-27.12-5.84-38.94V152.58c0-34.08-1.06-68.34,0-102.41.41-13.42,11-21.52,23.74-21.52H293.44c12.23,0,24.5-.3,36.73,0,12.51.31,21.85,9.62,22,22.19.05,4.16,0,8.32,0,12.48V328.13c0,12.66-8.23,23.15-21.51,23.55-1.93.06-1.94,3.06,0,3,14-.42,24.37-11.28,24.51-25.19.05-4.31,0-8.63,0-12.94v-227c0-12.94.25-25.89,0-38.82-.26-13.81-10.57-24.68-24.52-25-3-.08-6,0-8.95,0h-269c-9.9,0-19.11,4.13-23.83,13.3-2.72,5.29-2.71,10.73-2.71,16.43V325.53c0,6.4.33,12.5,4,18.12,5.26,8,13.78,11,22.9,11H330.64A1.5,1.5,0,0,0,330.64,351.68Z"/><path class="cls-3" d="M97.49,158.42A509,509,0,0,0,53.7,212.77c-1.88,2.69-3.82,5.73-3.4,9,.32,2.54,2,4.66,3.67,6.63,16.76,20.05,34.9,48.51,52.24,68.07l40.42-33.05c7.52,25,15,40.94,24.68,65.15a84.23,84.23,0,0,0,18.19-16.71c6-33.18-6.23-80.62-6-112.59a500.22,500.22,0,0,0-56.66,22.83c.24-26.73,14.55-77.28,11.79-103.87C130,123.62,103,151.86,97,158.14"/><path d="M96.43,157.36q-16.34,17.71-31,36.84c-4.77,6.24-9.8,12.51-14,19.18-3.25,5.23-3.47,9.56.23,14.55,8.65,11.67,17.8,23,26.36,34.72s17.36,23.8,27.09,34.86a1.53,1.53,0,0,0,2.12,0l40.42-33.05-2.5-.66c6.76,22.28,16,43.56,24.68,65.15a1.52,1.52,0,0,0,2.2.9,96.29,96.29,0,0,0,14.59-12.45c1.41-1.49,3.45-3.23,4.29-5.16,2-4.56,1.49-11.95,1.63-16.79.19-6.46,0-12.93-.46-19.38C190.42,250.44,185,225,185,199.25a1.52,1.52,0,0,0-1.9-1.45,519.42,519.42,0,0,0-57,23l2.25,1.29c.28-17.81,4.28-35.55,7.21-53.05,2.78-16.58,6.17-34,4.58-50.82a1.52,1.52,0,0,0-2.26-1.3c-8.05,5.21-14.9,12.73-21.67,19.44s-13.6,13.76-20.3,20.73c-1.34,1.39.78,3.52,2.12,2.12,6.42-6.67,12.86-13.33,19.42-19.86,6.85-6.81,13.79-14.56,21.95-19.84l-2.26-1.29c1.66,17.59-2,35.68-5,53-2.86,16.79-6.56,33.83-6.83,50.92a1.52,1.52,0,0,0,2.26,1.3,512,512,0,0,1,56.3-22.69l-1.9-1.44c-.07,23.58,4.6,47,6.6,70.41,1,11.7,1.58,23.57.34,35.27-.21,2-.15,4.72-1,6.48a15.41,15.41,0,0,1-2.68,3.08,90.94,90.94,0,0,1-14.72,12.77l2.21.9c-8.63-21.6-17.91-42.87-24.68-65.16a1.52,1.52,0,0,0-2.51-.66l-40.42,33.05h2.12C89.74,275.46,75.53,252.91,59,232.18c-1.86-2.34-5.53-5.5-6.45-8.32-1.65-5.1,1.29-8.71,4-12.59Q63.11,202,70,193.11q13.53-17.43,28.53-33.63c1.31-1.41-.8-3.54-2.12-2.12Z"/><path class="cls-4" d="M313.78,132.2c-7.58,19.65-9.61,34.21-9.61,55.24,0,0-11.9,11.9-17.85,19.65a282.41,282.41,0,0,1-37.13-30.39c-4.78,13.91-.81,35.78-5.6,49.68a212,212,0,0,1-17.44,17.28c-5.47-18.08-6.89-37.09-8.27-55.92q-2.46-33.21-4.9-66.41c5.73-6.37,17.63-17.18,17.63-17.18,11.33,3.37,17.62,28.42,28,34.07.44-15.79.89-52.58,1.33-68.38,8.52-7.25,17.18-18.06,17.18-18.06,16.6,9.54,23.92,65.92,36.6,80.28"/><path d="M312.34,131.8a144,144,0,0,0-9.53,46.75c-.08,2.27.69,6.58-.15,8.28s-3.31,3.39-4.59,4.73c-4.45,4.65-8.84,9.39-12.81,14.47l1.82-.23a291,291,0,0,1-36.83-30.16,1.52,1.52,0,0,0-2.5.66c-4,12.34-2.3,25.68-3.44,38.41-.46,5.13-.75,9.55-4.24,13.3a202.19,202.19,0,0,1-15,14.59l2.51.66c-5.88-20-7.13-40.74-8.66-61.38q-1.14-15.63-2.3-31.25L215.49,135c-.28-3.75-2.05-10.5-.35-13.8,1.25-2.43,4.69-4.81,6.65-6.7q3.36-3.27,6.82-6.47a12.63,12.63,0,0,1,2.22-2c1.78-.91-.39-.14.61.09,2.55.59,5.1,4.13,6.57,6.08,6.5,8.65,10.13,21.6,19.85,27.37a1.52,1.52,0,0,0,2.26-1.3c.44-16,.62-32,.9-48q.11-5.64.22-11.28c0-1.79.07-3.59.12-5.38.05-2,.14-2.69,1.48-4.24,4.89-5.67,10.62-10.57,15.35-16.45l-1.82.23c5.5,3.36,8.62,10,11.16,15.66,3.56,8,6.2,16.35,8.85,24.66,4.11,12.94,7.26,29.12,16.29,39.73,1.25,1.47,3.37-.66,2.12-2.12-4.51-5.3-6.89-12.45-9.17-18.9-2.95-8.35-5.45-16.85-8.2-25.26a174,174,0,0,0-8.6-22.41c-2.58-5.27-5.8-10.81-10.94-14a1.5,1.5,0,0,0-1.81.24,192.76,192.76,0,0,1-16,17c-2.32,2.26-1.73,4.69-1.8,7.87q-.13,6-.24,12c-.31,16.9-.49,33.79-.95,50.68l2.25-1.29c-12.86-7.64-13.44-29.06-28.36-34.23a1.5,1.5,0,0,0-1.46.39c-5.52,5-11,10.14-16.15,15.57-3.79,4-1.29,11.19-.91,16.34l1.65,22.46c2.13,28.8,2.35,58.72,10.56,86.6a1.52,1.52,0,0,0,2.51.66,200.64,200.64,0,0,0,15.34-15c3-3.24,3.67-6.53,4.3-11,2-13.76-.51-28.26,3.79-41.66l-2.51.66a294.78,294.78,0,0,0,37.44,30.63,1.49,1.49,0,0,0,1.81-.24A200.9,200.9,0,0,1,301,192.87c1.17-1.22,2.87-2.49,3.81-3.92,1.11-1.69.88-2.94.91-5.15a146.92,146.92,0,0,1,9.54-51.21c.69-1.8-2.21-2.58-2.89-.79Z"/><path class="cls-5" d="M114.8,141.12A507.93,507.93,0,0,0,71,195.46c-1.88,2.69-3.82,5.73-3.4,9,.32,2.54,2,4.65,3.67,6.62q25.14,30.08,51.16,59.42l40.42-33.05q11.26,37.44,25.76,73.81c13.45-38.74,11.88-88.3,12.22-129.31a500.22,500.22,0,0,0-56.66,22.83c.24-26.73-2.25-60.06-5-86.65-8.66,5.41-18.83,16.43-24.88,22.71"/><path d="M113.74,140.05q-15,16.22-28.53,33.63-6,7.77-11.78,15.77c-3,4.24-8,9.5-7.3,15.2.68,5.17,6,9.74,9.13,13.49q7.56,9,15.21,17.94,15.3,17.86,30.9,35.47a1.54,1.54,0,0,0,2.13,0l40.42-33.05-2.51-.67q11.31,37.44,25.76,73.81a1.52,1.52,0,0,0,2.9,0c14.12-41.4,11.94-86.59,12.27-129.7a1.52,1.52,0,0,0-1.9-1.45,520.38,520.38,0,0,0-57,23l2.26,1.29c.2-28.93-2-57.89-5-86.65a1.52,1.52,0,0,0-2.26-1.3c-9.56,6.2-17.34,14.79-25.18,23-1.34,1.4.78,3.52,2.12,2.12,7.65-8,15.24-16.43,24.57-22.48l-2.25-1.29c3,28.76,5.2,57.72,5,86.65a1.52,1.52,0,0,0,2.26,1.3,513.09,513.09,0,0,1,56.3-22.68l-1.9-1.45c-.33,42.86,1.87,87.75-12.17,128.91h2.9Q175.63,274.51,164.31,237a1.52,1.52,0,0,0-2.51-.66l-40.43,33.05h2.13q-13.65-15.4-27.08-31Q90,231,83.7,223.51q-3.17-3.75-6.32-7.49c-2.21-2.64-5.72-5.68-7.12-8.81-3.08-7,4-13.9,7.91-19.23q6.12-8.39,12.57-16.51,12-15.12,25.12-29.29c1.31-1.42-.81-3.55-2.12-2.13Z"/><path class="cls-6" d="M330.59,94.09c-9.59,24.85-19.12,70.23-27,95.7a282.63,282.63,0,0,1-37.13-30.4l-23,67c-5.47-18.07-6.89-37.09-8.28-55.92L230.29,104a169.42,169.42,0,0,1,45.63,16.9c.45-15.8.9-52.59,1.34-68.39A176.66,176.66,0,0,1,331,93.75"/><path d="M329.15,93.69c-11.83,31-17.3,64-27,95.7l2.21-.9a291,291,0,0,1-36.83-30.16,1.51,1.51,0,0,0-2.5.67L242,226h2.9c-5.79-19.65-7.09-40.08-8.59-60.4L231.79,104l-1.9,1.45a174.36,174.36,0,0,1,45.28,16.74,1.51,1.51,0,0,0,2.25-1.29c.63-22.79.71-45.6,1.34-68.39l-2.26,1.3a179.27,179.27,0,0,1,53.48,41c1.29,1.45,3.4-.68,2.12-2.12A181.35,181.35,0,0,0,278,51.24a1.52,1.52,0,0,0-2.26,1.29c-.63,22.79-.71,45.6-1.34,68.39l2.26-1.3a177,177,0,0,0-46-17,1.51,1.51,0,0,0-1.9,1.44l4.68,63.48c1.47,19.94,2.87,40,8.54,59.25a1.52,1.52,0,0,0,2.9,0l23-67-2.51.67a296.18,296.18,0,0,0,37.43,30.62,1.52,1.52,0,0,0,2.21-.9c9.66-31.65,15.14-64.7,27-95.69.69-1.81-2.21-2.59-2.89-.8Z"/><line class="cls-3" x1="106.21" y1="296.7" x2="122.98" y2="270.2"/><path d="M107.5,297.46,124.27,271c1-1.63-1.56-3.14-2.59-1.51l-16.77,26.5c-1,1.64,1.56,3.15,2.59,1.52Z"/><line class="cls-3" x1="146.96" y1="264.46" x2="162.46" y2="237.2"/><path d="M148.25,265.22,163.76,238a1.5,1.5,0,0,0-2.6-1.51l-15.5,27.25a1.5,1.5,0,0,0,2.59,1.52Z"/></g></svg>