<svg xmlns="http://www.w3.org/2000/svg" viewBox="0 0 381.28 380.33"><defs><style>.cls-1{fill:#e1262f;}.cls-2{fill:#ed7d82;}.cls-3{fill:#4386c6;}.cls-4{fill:#1f0c0d;}.cls-5{fill:#ffda83;}.cls-6{fill:#1fa3ab;}.cls-7{fill:#f7c402;}.cls-8{fill:#7dc4ca;}</style></defs><title>Recarga limón mapa conceptual</title><g id="gráficos"><rect class="cls-1" x="4.14" y="3.67" width="373" height="373" rx="23.02" ry="23.02"/><path d="M354.12,375.17H33.62c-7.27,0-14.13.11-20.23-5-7.09-5.91-7.75-13.81-7.75-22.12V63.81c0-12.34-.38-24.75,0-37.09C6.06,13,17,5.17,29.81,5.17h278.9c14.84,0,29.68-.14,44.51,0,12.75.11,22.3,9.5,22.42,22.3,0,4.81,0,9.62,0,14.43V350.79c0,12.86-7.62,24-21.52,24.38-1.93.05-1.93,3.05,0,3,14.41-.44,24.44-11.7,24.52-25.81,0-5.5,0-11,0-16.51V71.73c0-14.8.15-29.62,0-44.42A24.94,24.94,0,0,0,354,2.17c-4-.09-8,0-12.06,0H29.62c-11.38,0-21.84,5.32-25.7,16.72C2.25,23.8,2.64,29.14,2.64,34.26v314.1c0,7.21.37,14,5,20.15,5.85,7.69,14.43,9.66,23.46,9.66h323A1.5,1.5,0,0,0,354.12,375.17Z"/><rect class="cls-2" x="27.63" y="27.15" width="326.03" height="326.03" rx="23.02" ry="23.02"/><path d="M330.64,351.68H74.24c-12,0-30.23,2.95-39.27-6.77-8.71-9.38-5.84-27.12-5.84-38.94V152.58c0-34.08-1.06-68.34,0-102.41.41-13.42,11-21.52,23.74-21.52H293.44c12.23,0,24.5-.3,36.73,0,12.51.31,21.85,9.62,22,22.19.05,4.16,0,8.32,0,12.48V328.13c0,12.66-8.23,23.15-21.51,23.55-1.93.06-1.94,3.06,0,3,14-.42,24.37-11.28,24.51-25.19.05-4.31,0-8.63,0-12.94v-227c0-12.94.25-25.89,0-38.82-.26-13.81-10.57-24.68-24.52-25-3-.08-6,0-8.95,0h-269c-9.9,0-19.11,4.13-23.83,13.3-2.72,5.29-2.71,10.73-2.71,16.43V325.53c0,6.4.33,12.5,4,18.12,5.26,8,13.78,11,22.9,11H330.64A1.5,1.5,0,0,0,330.64,351.68Z"/><path class="cls-3" d="M247.11,170.66c-6.71-2-14.58-7.32-17.34-12.1s-3.42-14.24-1.8-21.07c2.15-9.07,15.27-25.51,8.94-36.47C223.56,77.88,111.51,68.33,110.5,68.18c-5.94-.86-10-3-12-6.47-3.53-6.05-.26-14.57-.23-14.66l-3.83-1.51L90.66,44c-.19.5-4.76,12.24.74,21.77,3.31,5.74,9.34,9.29,17.91,10.54,33.05,4.81,101.44,20.5,109.8,35,4.69,8.13.77,12.42-1.2,20.74-1.85,7.81-6.9,20.44,1.18,32.69,6.56,13.13,20,15.06,27.72,17.37,8.19,2.45,13.87,1.2,18.56,9.33C273.72,205.89,253.11,273,240.76,304c-3.2,8.05-3.15,15,.17,20.78,5.5,9.53,17.95,11.44,18.48,11.53l.59-4.08.61-4.06c-.09,0-9.1-1.46-12.58-7.53-2-3.45-1.85-8,.37-13.59.38-1,48.13-102.77,34.77-125.9C276.85,170.19,256,173.33,247.11,170.66Z"/><path d="M247.51,169.21c-6-2-13.18-5.74-16.45-11.41s-3.18-14.59-1.41-20.78c2.76-9.65,9.94-17.78,10.44-28.16.63-12.81-13-18.56-23-22.37-29-11-61.24-14.82-91.91-18.29-4.47-.5-9-.88-13.41-1.39a20.23,20.23,0,0,1-8.5-2.5c-5.78-3.61-5.61-11.1-3.51-16.86a1.52,1.52,0,0,0-1-1.84l-7.65-3a1.54,1.54,0,0,0-1.85,1c-4.85,12.65-.86,27.27,12.42,32.31,6.52,2.48,14,2.84,20.86,4.08q11.74,2.13,23.39,4.76a396.15,396.15,0,0,1,45.64,12.7c9,3.19,25.54,7.77,28,18.71,1.07,4.77-1.4,9.36-2.65,13.85-1.1,3.94-2.21,8-2.95,12a33.77,33.77,0,0,0,4.57,24.79c7.5,12.58,22.07,15.47,35.32,18.44,14.28,3.2,12.59,17.5,11.05,28.9-2.07,15.24-6.09,30.25-10.42,45q-3.85,13.08-8.31,26c-2.53,7.3-5.85,14.48-8,21.88-4.46,15.38,5.6,28.29,20.87,30.76.72.12,1.72-.18,1.84-1q.6-4.08,1.21-8.14a1.53,1.53,0,0,0-1.05-1.85,20.76,20.76,0,0,1-8.08-3.14c-5.62-3.83-5.47-10.18-3.17-15.92.89-2.22,2-4.38,3-6.56q7.53-16.83,14.26-34A420.39,420.39,0,0,0,282.25,222c3-11.18,6.4-24.11,4.23-35.74-3.41-18.31-25.75-13.41-39-17a1.5,1.5,0,0,0-.8,2.89c12.77,3.48,35.08-1.57,37.12,16.63,1.46,13-2.79,27-6.42,39.38-7.55,25.68-17.81,50.65-28.86,75-1.85,4.07-3.69,8.25-3.38,12.85.53,7.82,7.93,12.41,15,13.64l-1-1.84-1.2,8.14,1.84-1.05a27.23,27.23,0,0,1-14.57-7c-7.95-7.85-5.11-18-1.59-27.14,5.23-13.6,9.8-27.47,13.89-41.46,4.17-14.26,8-28.75,10.11-43.48,1.21-8.37,3.2-19.57-2.17-27-3.92-5.4-9.55-6-15.62-7.49-6.46-1.55-13.43-3.2-19.21-6.55A30.3,30.3,0,0,1,216.15,149c.16-8.63,3.57-16.87,5.83-25.08,3.08-11.21-4.38-17.91-13.41-22.52-12.1-6.19-25.45-10.1-38.51-13.68-16.51-4.52-33.27-8.23-50.14-11.16-8.13-1.41-17.65-1.55-24-7.48C89.22,62.83,89,52.49,92.11,44.42l-1.85,1,7.65,3-1-1.84c-3,8.2-1.55,17.73,7.16,21.36,3.51,1.46,7.1,1.72,10.8,2.08q20.07,2,40,5c17.48,2.69,35,5.87,52,11,11.63,3.55,32.89,9.3,29.92,25.32-2.26,12.17-11.19,21.4-11.14,34.2,0,5.51.86,11.48,4.46,15.85,4.18,5.08,10.48,8.53,16.64,10.55C248.55,172.71,249.34,169.81,247.51,169.21Z"/><path class="cls-4" d="M248.08,318.93l-8.43,4.87a1.91,1.91,0,0,1-1.91-3.3l8.44-4.88a1.91,1.91,0,1,1,1.9,3.31Z"/><path d="M247.33,317.63l-4.22,2.44-2.9,1.67c-.53.31-1.15,1-1.49.4s.56-.8,1.1-1.11l2.9-1.67,2.9-1.68c.22-.12.71-.54,1-.55l.27-.16c.31-.21.37.09.17.9-1.5,1.21.64,3.32,2.12,2.12a3.42,3.42,0,0,0-.48-5.75c-1.46-.73-2.73-.18-4,.54a68.93,68.93,0,0,0-7.82,4.54,3.43,3.43,0,0,0-.16,5.55c1.41,1.07,2.9.66,4.29-.09,2.66-1.45,5.26-3,7.88-4.56A1.5,1.5,0,0,0,247.33,317.63Z"/><path class="cls-4" d="M249.82,321.93l-8.44,4.87a1.91,1.91,0,0,1-1.91-3.3l8.45-4.87a1.9,1.9,0,1,1,1.9,3.3Z"/><path d="M249.06,320.63l-4.22,2.44-2.9,1.67c-.53.31-1.16,1-1.49.4s.57-.8,1.1-1.11l2.9-1.67,2.9-1.68c.22-.12.71-.54,1-.55l.27-.15c.31-.22.37.08.18.88-1.5,1.22.63,3.33,2.12,2.13a3.42,3.42,0,0,0-.49-5.75c-1.46-.73-2.73-.18-4,.54a67.93,67.93,0,0,0-7.81,4.54,3.42,3.42,0,0,0-.16,5.55c1.4,1.07,2.89.66,4.28-.09,2.66-1.45,5.26-3,7.89-4.56A1.5,1.5,0,0,0,249.06,320.63Z"/><path class="cls-4" d="M251.55,324.93l-8.43,4.87a1.91,1.91,0,1,1-1.91-3.3l8.44-4.87a1.9,1.9,0,0,1,1.9,3.3Z"/><path d="M250.79,323.63l-4.21,2.44-2.9,1.67c-.53.31-1.16,1-1.49.39s.56-.79,1.09-1.1l2.91-1.67,2.9-1.68c.21-.12.7-.54,1-.55l.26-.15c.32-.21.38.08.18.89-1.49,1.22.64,3.33,2.12,2.12a3.43,3.43,0,0,0-.48-5.75c-1.47-.73-2.74-.17-4,.54a68.79,68.79,0,0,0-7.81,4.54,3.43,3.43,0,0,0-.16,5.55c1.4,1.07,2.9.66,4.29-.1,2.66-1.44,5.25-3,7.88-4.55A1.5,1.5,0,0,0,250.79,323.63Z"/><path class="cls-4" d="M102,65.82l-8.45,4.87a1.9,1.9,0,1,1-1.9-3.3l8.44-4.87a1.91,1.91,0,0,1,1.91,3.3Z"/><path d="M101.2,64.52,97,67l-2.9,1.67c-.53.31-1.16,1-1.49.4s.57-.8,1.1-1.11l2.9-1.67,2.9-1.68c.21-.12.7-.54,1-.55l.27-.15c.32-.21.38.08.18.89-1.49,1.22.64,3.33,2.13,2.12a3.43,3.43,0,0,0-.49-5.75c-1.46-.73-2.74-.18-4,.54a69.67,69.67,0,0,0-7.81,4.54,3.43,3.43,0,0,0-.16,5.55c1.4,1.06,2.89.66,4.28-.09,2.67-1.45,5.27-3,7.89-4.56A1.5,1.5,0,0,0,101.2,64.52Z"/><path class="cls-4" d="M100.22,62.82l-8.44,4.87a1.9,1.9,0,0,1-1.9-3.3l8.43-4.87a1.91,1.91,0,1,1,1.91,3.3Z"/><path d="M99.47,61.52,95.25,64l-2.9,1.67c-.53.31-1.16,1-1.49.4s.56-.8,1.09-1.11l2.9-1.67,2.9-1.68c.22-.12.71-.54,1-.55l.27-.15c.31-.21.37.08.18.88-1.49,1.23.64,3.34,2.12,2.13a3.42,3.42,0,0,0-.48-5.75c-1.46-.73-2.74-.18-4,.54A70.32,70.32,0,0,0,89,63.21a3.42,3.42,0,0,0-.16,5.55c1.4,1.07,2.9.66,4.29-.1,2.66-1.44,5.26-3,7.88-4.55A1.5,1.5,0,0,0,99.47,61.52Z"/><path class="cls-4" d="M98.49,59.82l-8.44,4.87a1.91,1.91,0,1,1-1.91-3.3l8.45-4.87a1.9,1.9,0,0,1,2.6.69A1.92,1.92,0,0,1,98.49,59.82Z"/><path d="M97.73,58.52,93.51,61l-2.9,1.67c-.53.31-1.16,1-1.49.4s.57-.8,1.1-1.11l2.9-1.67L96,58.57c.22-.12.71-.54,1-.55l.27-.15c.31-.21.37.08.18.89-1.5,1.22.64,3.33,2.12,2.12a3.42,3.42,0,0,0-.49-5.75c-1.46-.73-2.73-.17-4,.54a68.93,68.93,0,0,0-7.82,4.54,3.43,3.43,0,0,0-.16,5.55c1.41,1.06,2.9.66,4.29-.1,2.66-1.44,5.26-3,7.89-4.55A1.5,1.5,0,0,0,97.73,58.52Z"/><path class="cls-4" d="M243.87,321.36a1.9,1.9,0,0,1-2.6-.69L95.13,67.56a1.91,1.91,0,1,1,3.3-1.91L244.57,318.76A1.9,1.9,0,0,1,243.87,321.36Z"/><path d="M243.47,319.92c-1.76.46-4.16-5.64-4.84-6.82l-10.7-18.53-34.85-60.36L114.33,97.82,102.52,77.35l-3.88-6.71c-.49-.85-1.83-2.38-1.94-3.37s.1-.82.73-.35c.85.64,1.53,2.65,2.06,3.56l9.27,16.06,75.1,130.08,37.6,65.12L234.86,305c2.44,4.22,5.43,8.44,7.44,12.89.41.9,1.42,1.55.51,2.46a1.5,1.5,0,0,0,2.12,2.12c3-3-.38-6.68-2-9.51l-10.15-17.58-35.68-61.8L116,93,104.2,72.65c-1.42-2.46-2.66-5.53-4.46-7.74-2.8-3.42-7.47-.72-5.89,3.43a17.54,17.54,0,0,0,1.35,2.34l8.33,14.43,77,133.42,39.05,67.63c6.59,11.41,12.59,23.55,19.92,34.51,1.18,1.75,2.4,2.76,4.74,2.14A1.5,1.5,0,0,0,243.47,319.92Z"/><path class="cls-5" d="M285.46,190.48a1,1,0,0,1,0-.17c0-.53-.08-1.05-.13-1.55l0-.31q-.07-.67-.18-1.32l-.06-.4q-.1-.58-.24-1.14l-.09-.45c-.09-.34-.19-.67-.29-1-.05-.15-.09-.31-.14-.46-.11-.32-.23-.63-.35-.93-.06-.13-.1-.27-.16-.4-.19-.42-.39-.82-.61-1.2-6.32-11-27.13-7.82-36.06-10.49-6.71-2-14.58-7.32-17.34-12.1s-3.42-14.24-1.8-21.07c2.15-9.07,15.27-25.51,8.94-36.47a12.86,12.86,0,0,0-.74-1.13c-.07-.1-.15-.19-.22-.28-.21-.28-.43-.56-.68-.84l-.27-.28c-.25-.28-.51-.55-.79-.82l-.27-.25c-.3-.28-.61-.56-.94-.83l-.25-.2c-.36-.29-.73-.59-1.12-.87l-.19-.14c-.43-.31-.88-.62-1.34-.93l-.08,0C217.31,86.09,191.8,80,167.58,75.72L166.3,88.23c14.51,3.86,28.28,8.27,38.24,12.84h0c5.45,2.51,9.76,5.07,12.43,7.61a.94.94,0,0,1,.1.1c.18.17.34.34.5.5s.14.15.2.23l.38.42.26.34c.09.11.17.22.25.34s.31.45.45.68c4.69,8.13.77,12.42-1.2,20.74-1.85,7.81-6.9,20.44,1.18,32.69,6.56,13.13,20,15.06,27.72,17.37,8.19,2.45,13.87,1.2,18.56,9.33.13.23.26.47.38.73,0,.1.08.21.13.31l.2.5c.05.13.09.28.14.42s.09.29.14.44.1.35.14.53a2.22,2.22,0,0,1,.09.37c.06.22.11.43.15.66l0,.16a50.9,50.9,0,0,1,.16,13.6h0c-1,10.91-4.08,25-8,39.54l11.47,5.14C278.85,230.78,286.29,205.64,285.46,190.48Z"/><path d="M287,190.48c-.57-11.17-7.33-16.95-18.09-18.78-5.77-1-11.63-.95-17.42-1.71-7.59-1-17.38-5.89-20.8-13.08-7.45-15.63,4.9-28.46,8.58-42.77,3-11.85-3.65-19-13.65-24-17.72-8.85-38.27-12.47-57.6-15.88a1.53,1.53,0,0,0-1.9,1.44L164.8,88.23a1.51,1.51,0,0,0,1.1,1.44c12.85,3.45,25.74,7.22,37.88,12.7l-.69-1.7h0a1.52,1.52,0,0,0,.69,1.69c4.92,2.32,11,4.9,14,9.69,4.37,6.84-.08,14.75-1.89,21.72-3.47,13.36-4,25.46,5.19,36.84,6.81,8.39,17.87,11.21,27.94,13.62,6.15,1.47,12.5,2.11,15.4,8.68,2.17,4.91,1.41,11.09,1,16.23a1.51,1.51,0,0,0,1.1,1.45h0l-1.1-1.44c-1.33,13.25-4.5,26.29-7.94,39.14a1.51,1.51,0,0,0,.69,1.69l11.47,5.15a1.55,1.55,0,0,0,2.21-.9c7.22-19.87,16-42.24,15.09-63.76-.08-1.92-3.08-1.93-3,0,.4,9.84-1.77,19.68-4.21,29.15-3,11.46-6.73,22.7-10.78,33.81l2.21-.89L259.7,247.4l.69,1.7c3.51-13.12,6.7-26.41,8.05-39.94a1.51,1.51,0,0,0-1.1-1.45h0l1.1,1.44c.81-9.58,1-21.34-9.63-25.6-5.33-2.14-11.45-2.83-17-4.38-6.14-1.73-12.23-4-16.8-8.69a30.7,30.7,0,0,1-8.65-24.5c.8-7.59,3.62-14.79,5.63-22.1,3.52-12.78-6.54-19.31-16.69-24.1l.69,1.7h0a1.52,1.52,0,0,0-.69-1.69c-12.39-5.59-25.49-9.48-38.6-13l1.1,1.45,1.28-12.51-1.9,1.45c17.21,3,34.79,6.44,51.06,13,5.21,2.09,10.83,4.61,14.91,8.59,5.46,5.31,4.21,12.48,1.76,19-2.26,6-5.85,11.51-7.86,17.61a35.1,35.1,0,0,0-.3,19.62c3.07,11.15,16,17.25,26.73,18.27,6.72.64,13.72.54,20.19,2.73,6.94,2.35,9.93,7.53,10.29,14.55C284.05,192.4,287.06,192.41,287,190.48Z"/><path class="cls-6" d="M229.77,158.56a16.07,16.07,0,0,1-1.37-3.39l-11.08,6.4a25.65,25.65,0,0,0,1.77,3.16,27.84,27.84,0,0,0,2.07,3.43l11.13-6.43A16.65,16.65,0,0,1,229.77,158.56Z"/><path d="M231.06,157.8a18.06,18.06,0,0,1-1.21-3,1.51,1.51,0,0,0-2.2-.89l-11.09,6.4a1.54,1.54,0,0,0-.54,2.05,59.13,59.13,0,0,0,3.84,6.58,1.52,1.52,0,0,0,2,.54L233,163a1.53,1.53,0,0,0,.31-2.36,19.75,19.75,0,0,1-2.29-2.87c-1-1.62-3.63-.11-2.59,1.52a24.88,24.88,0,0,0,2.76,3.47l.3-2.35-11.13,6.42,2,.54a57.54,57.54,0,0,1-3.83-6.58l-.54,2.05,11.08-6.4-2.2-.9a23,23,0,0,0,1.51,3.75C229.37,161,232,159.52,231.06,157.8Z"/><path class="cls-7" d="M227.2,142.86,214.7,148a29.15,29.15,0,0,0,.65,8l12.14-5A39.22,39.22,0,0,1,227.2,142.86Z"/><path d="M226.8,141.42l-12.5,5.16a1.59,1.59,0,0,0-1.1,1.45,35.21,35.21,0,0,0,.7,8.38,1.52,1.52,0,0,0,1.85,1.05l12.14-5c.55-.23,1.19-.75,1.1-1.45a44.18,44.18,0,0,1-.29-8.13c.1-1.93-2.9-1.92-3,0A44.15,44.15,0,0,0,226,151l1.1-1.45-12.14,5,1.85,1.05a31.14,31.14,0,0,1-.6-7.58l-1.1,1.44,12.49-5.16C229.35,143.58,228.58,140.68,226.8,141.42Z"/><path class="cls-7" d="M232.07,127.64l-14,3.78c0,.21-.11.41-.16.62-.53,2.26-1.33,4.93-2,7.86l12.34-3.33A63.8,63.8,0,0,1,232.07,127.64Z"/><path d="M231.67,126.2l-14,3.78a1.48,1.48,0,0,0-1,1c-.75,2.83-1.5,5.65-2.18,8.49a1.51,1.51,0,0,0,1.85,1.84l9.67-2.61a10.09,10.09,0,0,0,3-.87c.93-.67,1.09-2.15,1.48-3.15.85-2.15,1.88-4.24,2.89-6.32.84-1.73-1.75-3.25-2.59-1.51a71.59,71.59,0,0,0-4,9.28l1.05-1-12.34,3.34,1.84,1.84c.68-2.83,1.44-5.66,2.18-8.48l-1.05,1.05,14-3.78A1.5,1.5,0,0,0,231.67,126.2Z"/><path class="cls-7" d="M235.51,164.56l-10.46,8a29.6,29.6,0,0,0,6.68,4.48l10.74-8.25A39.51,39.51,0,0,1,235.51,164.56Z"/><path d="M234.75,163.26l-10.46,8a1.52,1.52,0,0,0-.3,2.36,35.73,35.73,0,0,0,7,4.7,1.48,1.48,0,0,0,1.52,0l10.74-8.24a1.53,1.53,0,0,0,0-2.6,45.12,45.12,0,0,1-7-4.26c-1.55-1.15-3,1.45-1.51,2.59a46.37,46.37,0,0,0,7,4.27v-2.6L231,175.77h1.52a32,32,0,0,1-6.38-4.24l-.31,2.36,10.46-8C237.77,164.69,236.28,162.09,234.75,163.26Z"/><path class="cls-7" d="M248.47,171,239.4,180c2.73.82,5.29,1.43,7.41,2.07l1,.28,10.35-10.31A75.09,75.09,0,0,1,248.47,171Z"/><path d="M247.41,169.92,238.34,179a1.51,1.51,0,0,0,.66,2.5c2.8.82,5.62,1.58,8.43,2.35a1.49,1.49,0,0,0,1.46-.38l10.35-10.31a1.51,1.51,0,0,0-1.06-2.56,78.65,78.65,0,0,1-9.31-1c-1.88-.37-2.69,2.52-.8,2.89a83.84,83.84,0,0,0,10.11,1.14L257.12,171l-10.35,10.31,1.46-.39c-2.81-.77-5.63-1.53-8.43-2.35l.66,2.51,9.07-9.05A1.5,1.5,0,0,0,247.41,169.92Z"/><polygon class="cls-4" points="132.56 217.23 130.54 213.74 275.76 129.91 277.77 133.4 132.56 217.23"/><path d="M133.86,216.47l-2-3.48-.54,2,127.48-73.6,17.73-10.23-2.05-.54,2,3.48.54-2.05L149.54,205.7l-17.73,10.23a1.5,1.5,0,0,0,1.51,2.59l127.47-73.59,17.73-10.24a1.51,1.51,0,0,0,.54-2.05l-2-3.49a1.52,1.52,0,0,0-2.05-.53L147.52,202.21l-17.73,10.24a1.51,1.51,0,0,0-.54,2.05l2,3.48A1.5,1.5,0,0,0,133.86,216.47Z"/><polygon class="cls-7" points="294.09 121.65 251.89 127.04 266.28 137.7 268.33 155.49 294.09 121.65"/><path d="M294.09,120.15l-42.2,5.39a1.52,1.52,0,0,0-.75,2.8l6.79,5,5.2,3.85c.53.39,2.77,2.47,2,1.15s-.07,1.71,0,2.3l.69,5.93,1,8.89a1.51,1.51,0,0,0,2.79.76l25.76-33.84c1.17-1.54-1.43-3-2.59-1.52L267,154.73l2.8.76-1.19-10.37c-.27-2.29.12-6.13-1.06-8.17s-4.7-3.62-6.54-5l-8.39-6.22-.76,2.8,42.2-5.39C296,122.91,296,119.9,294.09,120.15Z"/><polygon class="cls-3" points="120.55 221.84 113.43 225.95 96.57 217.07 103.68 212.96 120.55 221.84"/><path d="M119.79,220.55c-1.44.83-5.73,2.32-6.41,3.7-.51,1-.36-.24.75.37-.13-.07-.49-.18-.59-.31-.49-.66-2.26-1.19-3-1.58l-13.22-7v2.59c1.44-.83,5.73-2.32,6.4-3.7.51-1,.37.24-.75-.38.14.08.5.19.59.31.5.66,2.27,1.2,3,1.58l13.22,7c1.71.9,3.23-1.69,1.52-2.59l-14.83-7.81c-1.38-.74-2.15-1.39-3.67-1-2.34.58-4.89,2.83-7,4a1.52,1.52,0,0,0,0,2.59l14.83,7.81c1.38.73,2.15,1.38,3.67,1,2.34-.58,4.89-2.82,7-4A1.5,1.5,0,0,0,119.79,220.55Z"/><polygon class="cls-8" points="116.71 205.44 112.36 207.94 103.68 212.96 120.55 221.84 129.23 216.83 133.57 214.32 116.71 205.44"/><path d="M116,204.15l-13,7.51a1.51,1.51,0,0,0,0,2.59l8,4.22c2.52,1.32,6,4.09,8.85,4.65,2.36.48,5.1-2,7.08-3.18l7.48-4.32a1.52,1.52,0,0,0,0-2.59l-16.86-8.88c-1.71-.9-3.23,1.69-1.52,2.59l16.86,8.88V213l-6.35,3.67c-1.64,1-3.42,1.8-5,2.88-.5.33-1.06.63-1.59.91.56-.29,1.78.52.91-.21-2.48-2.07-6.37-3.36-9.23-4.86l-7.13-3.76v2.59l13-7.51A1.5,1.5,0,0,0,116,204.15Z"/><polygon class="cls-5" points="144.51 208 127.65 199.12 123.57 201.48 123.57 201.48 116.45 205.59 133.32 214.47 140.17 210.51 140.18 210.51 144.51 208"/><path d="M145.27,206.71,136.41,202c-2.36-1.24-5.38-3.73-8-4.21-1.33-.25-1.59.12-2.81.74a18.26,18.26,0,0,0-2.61,1.51l1.33.1a1.5,1.5,0,0,0-.75-.2c-2.37,1.58-5.36,2.86-7.88,4.31a1.52,1.52,0,0,0,0,2.59l8,4.22c2.51,1.32,6,4.1,8.84,4.65,2,.39,6.49-2,7.61-3.49,1-1.26-.85,0-.36-.3.2-.13.92,0,1.25-.21,1.43-.78,2.83-1.63,4.24-2.45a1.5,1.5,0,0,0-1.51-2.59,41.46,41.46,0,0,0-4.15,2.4l1.32.11a1.43,1.43,0,0,0-.76-.21c-.19.11-.65.18-.89.28a44.61,44.61,0,0,0-4.54,2.63c-.68.39-1.34.83-2,1.18.46-.23,1.83.46.87-.19-5-3.41-11-5.8-16.36-8.62v2.59l4-2.29a10.31,10.31,0,0,0,2.19-1.26c.52-.64.7-1.26-.55-.56.41-.23,2.08-.37,2.81-.74a9.37,9.37,0,0,0,2.15-1.25c.74-1-1.14-.55-.51-.17,5.33,3.15,11,5.8,16.5,8.69C145.46,210.2,147,207.61,145.27,206.71Z"/><polygon class="cls-3" points="120.55 221.84 113.43 225.95 112.7 245 119.81 240.89 120.55 221.84"/><path d="M119.79,220.55c-2.12,1.22-4.88,2.28-6.72,3.88-1.32,1.14-1.15,1.94-1.22,3.69L111.2,245a1.51,1.51,0,0,0,2.25,1.3c2.13-1.23,4.88-2.29,6.73-3.89,1.31-1.14,1.15-1.94,1.22-3.69l.65-16.87c.08-1.94-2.92-1.93-3,0L118.46,237a11,11,0,0,0-.11,3,3.77,3.77,0,0,1,0,.81c.15-1.27,1.23-1-.1-.75-2,.31-4.54,2.62-6.28,3.63L114.2,245l.58-15.17a10.91,10.91,0,0,0,.12-3,3.19,3.19,0,0,1,0-.81c-.15,1.27-1.23,1,.1.75,1.94-.3,4.54-2.62,6.28-3.62A1.5,1.5,0,0,0,119.79,220.55Z"/><polygon class="cls-8" points="129.23 216.83 120.55 221.84 119.81 240.89 128.49 235.88 132.84 233.37 133.57 214.32 129.23 216.83"/><path d="M128.47,215.53c-3.26,1.89-9.11,3.47-9.47,7.56-.51,5.89-.46,11.88-.69,17.8a1.52,1.52,0,0,0,2.26,1.29l8.31-4.79c1.84-1.06,4.75-2,5.46-4,.89-2.6.26-6.8.36-9.49l.37-9.53a1.51,1.51,0,0,0-2.26-1.29l-4.34,2.5a1.5,1.5,0,0,0,1.52,2.59l4.34-2.5-2.26-1.3c-.24,6.16-.57,12.32-.71,18.48,0,1.08-.18-.13.53-.62-.62.43-1.33.77-2,1.15l-3,1.72-7.88,4.54,2.25,1.3.63-16.25c0-.84.14-1.7.1-2.54,0-.22-1.07,1-.36.82a7,7,0,0,0,1.64-.94l6.67-3.86A1.5,1.5,0,0,0,128.47,215.53Z"/><polygon class="cls-5" points="144.51 208 140.43 210.37 140.43 210.36 133.32 214.47 132.58 233.52 139.69 229.41 139.69 229.41 143.78 227.05 144.51 208"/><path d="M143.76,206.71l-4.09,2.36,2.26,1.3h0a1.51,1.51,0,0,0-2.26-1.29c-2.07,1.2-5.13,2.28-6.82,3.94-1.18,1.16-1,1.89-1.11,3.57l-.66,16.94a1.51,1.51,0,0,0,2.26,1.3c2.5-1.45,5.11-3.42,7.65-4.65a1.12,1.12,0,0,0,.18-.56q.15-.95-.54,1a19.43,19.43,0,0,0,2.61-1.51c1.11-.71,1.59-.78,2-2,.88-2.48.24-6.39.35-9l.38-10c.08-1.93-2.92-1.93-3,0-.24,6.2-.75,12.44-.72,18.64,0,.84,1.37-.88.09-.51a9.61,9.61,0,0,0-2.15,1.24c-.78.49-1.43,1.45-2,1.84,2.31-1.55-1.6.24-2.43.72l-4,2.3,2.26,1.29.59-15.09a11.38,11.38,0,0,0,.12-3.18c-.34-1.05-.83.3,0,.11,2.11-.48,4.51-2.61,6.41-3.7l-2.26-1.3h0a1.51,1.51,0,0,0,2.26,1.29l4.08-2.36A1.5,1.5,0,0,0,143.76,206.71Z"/></g></svg>