<svg xmlns="http://www.w3.org/2000/svg" viewBox="0 0 381.28 380.33"><defs><style>.cls-1{fill:#4386c6;}.cls-2{fill:#8eb6e0;}.cls-3{fill:#f7c402;}.cls-4{fill:#e66869;}.cls-5{fill:#e1262f;}</style></defs><title>Recarga limón mapa conceptual</title><g id="gráficos"><rect class="cls-1" x="4.14" y="3.67" width="373" height="373" rx="23.02" ry="23.02"/><path d="M354.12,375.17H33.62c-7.27,0-14.13.11-20.23-5-7.09-5.91-7.75-13.81-7.75-22.12V63.81c0-12.34-.38-24.75,0-37.09C6.06,13,17,5.17,29.81,5.17h278.9c14.84,0,29.68-.14,44.51,0,12.75.11,22.3,9.5,22.42,22.3,0,4.81,0,9.62,0,14.43V350.79c0,12.86-7.62,24-21.52,24.38-1.93.05-1.93,3.05,0,3,14.41-.44,24.44-11.7,24.52-25.81,0-5.5,0-11,0-16.51V71.73c0-14.8.15-29.62,0-44.42A24.94,24.94,0,0,0,354,2.17c-4-.09-8,0-12.06,0H29.62c-11.38,0-21.84,5.32-25.7,16.72C2.25,23.8,2.64,29.14,2.64,34.26v314.1c0,7.21.37,14,5,20.15,5.85,7.69,14.43,9.66,23.46,9.66h323A1.5,1.5,0,0,0,354.12,375.17Z"/><rect class="cls-2" x="27.63" y="29.15" width="326.03" height="326.03" rx="23.02" ry="23.02"/><path d="M330.64,353.68H74.24c-12,0-30.23,2.95-39.27-6.77-8.71-9.38-5.84-27.12-5.84-38.94V154.58c0-34.08-1.06-68.34,0-102.41.41-13.42,11-21.52,23.74-21.52H293.44c12.23,0,24.5-.3,36.73,0,12.51.31,21.85,9.62,22,22.19.05,4.16,0,8.32,0,12.48V330.13c0,12.66-8.23,23.15-21.51,23.55-1.93.06-1.94,3.06,0,3,14-.42,24.37-11.28,24.51-25.19.05-4.31,0-8.63,0-12.94v-227c0-12.94.25-25.89,0-38.82-.26-13.81-10.57-24.68-24.52-25-3-.08-6,0-8.95,0h-269c-9.9,0-19.11,4.13-23.83,13.3-2.72,5.29-2.71,10.73-2.71,16.43V327.53c0,6.4.33,12.5,4,18.12,5.26,8,13.78,11,22.9,11H330.64A1.5,1.5,0,0,0,330.64,353.68Z"/><path class="cls-3" d="M143.48,147.15c-11.77,13.15-26.59,26.38-36.64,45.81-6.47,12.51-10.7,27.59-10.68,46.12,0,1.63.09,3.14.2,4.55l.06.6c.07.38.15.74.22,1.11a7.17,7.17,0,0,0,0,2,91.32,91.32,0,0,0,31.93,55.56A95.26,95.26,0,1,0,246.36,153.2h0l-.1-.08a.75.75,0,0,0-.18-.13,94.59,94.59,0,0,0-8.32-6,8,8,0,0,0-5.93-1A268.92,268.92,0,0,0,205.92,94.9c-10.2-15.54-21.45-28.74-33.13-38a8,8,0,0,0-12.57,8.66c4,12.57,5.61,23,5.61,31.9A59.75,59.75,0,0,1,159.47,125C155.53,132.88,149.94,140,143.48,147.15Z"/><path d="M142.42,146.09c-11.66,12.95-24.38,25-33.46,40a100.7,100.7,0,0,0-14.25,49.31c-1,33.07,20.47,64,48.9,79.46A96.73,96.73,0,0,0,285,247.49c6.65-36.46-8.38-73.45-37.9-95.59l-.75,2.8h0c1.2,0,2.11-1.71,1.06-2.57-4.47-3.63-9.46-8.38-15.59-7.61l1.45,1.11c-11-28.73-26.39-57-47.92-79.28-5.58-5.77-18.73-20.34-25.77-7.85-3.15,5.58.86,12.6,2.15,18.2a90.8,90.8,0,0,1,2.58,21.65c-.26,19-9.6,34-21.9,47.74-1.28,1.43.83,3.56,2.12,2.12,10.79-12.07,20-25.29,22.19-41.69a77.15,77.15,0,0,0-.28-20.92c-.54-3.84-1.3-7.65-2.22-11.42-1.3-5.27-6.3-15.41,2.13-17.37,5-1.15,10.2,5.1,13.47,8.25,2.75,2.65,5.38,5.42,7.91,8.28a193.9,193.9,0,0,1,16.88,22.32,266.73,266.73,0,0,1,25.76,50.76c.22.56.77,1.19,1.45,1.1,5.1-.64,9.84,3.79,13.47,6.74l1.06-2.56h0a1.51,1.51,0,0,0-.76,2.79,93.77,93.77,0,0,1-89.93,162.72c-29.68-11.71-55.45-40.5-57.78-73.28a95.94,95.94,0,0,1,11.49-52.55c9.08-16.5,22.69-29.32,35.16-43.17C145.83,146.78,143.72,144.65,142.42,146.09Z"/><path class="cls-4" d="M150.16,301.16a63.29,63.29,0,0,0,88.17-4,70.28,70.28,0,0,0,2.08-94.11c.1,1.47.18,2.94.18,4.44a60.93,60.93,0,0,1-2.91,18.5,6.57,6.57,0,0,1-6.9,4.66,6.73,6.73,0,0,1-5.86-6,188.43,188.43,0,0,0-10.15-42h0a221,221,0,0,0-20.36-42.12,162.56,162.56,0,0,0-9.3-13.35c.26,2.76.41,5.44.41,8A67.43,67.43,0,0,1,178.89,165c-4.06,8.45-9.5,15.5-15.15,22h0c-10.41,12-21.41,22.52-28.25,36.46-4.43,9-7.32,19.48-7.34,33.37,0,.82,0,1.66.11,2.52a51.79,51.79,0,0,0,2.84,10.69,7,7,0,0,1,.37,3.7A65.94,65.94,0,0,0,150.16,301.16Z"/><path d="M149.1,302.22c20.69,17.64,50,21.64,74.09,8.47,23.82-13,37.51-40,35.6-66.82A72.23,72.23,0,0,0,241.47,202a1.51,1.51,0,0,0-2.56,1.06,59.64,59.64,0,0,1-1.6,18.78,18.29,18.29,0,0,1-1.45,4.64c-2,3.23-5.77,2.83-8,.59s-1.9-6.23-2.35-9.13a196.93,196.93,0,0,0-9.31-35.74,1.5,1.5,0,0,0-2.94.4h0l2.94-.4c-7.24-19.88-16.9-39-29.8-55.82-.8-1-2.94-.91-2.8.75a72.09,72.09,0,0,1-14,50.18c-10.35,14.17-24.14,25.62-33,40.9-7.14,12.3-12.18,29.16-9.49,43.41,3,15.89,9.7,29.6,22,40.59,1.43,1.28,3.56-.83,2.12-2.12a66.94,66.94,0,0,1-15.28-19.7c-1.79-3.53-2.46-7-3.4-10.71-1.26-5-3-9.37-2.87-14.69.32-17.25,6.39-32.62,17-46.11,9.86-12.54,22-23.28,30.24-37.06s11.07-28.92,9.71-44.69l-2.79.76c12.73,16.62,22.35,35.48,29.5,55.11a1.51,1.51,0,0,0,3-.4h0l-3,.39a207.53,207.53,0,0,1,7.83,27.56c1,4.79,1.35,9.71,2.32,14.48a8.68,8.68,0,0,0,3.59,5.78c4.2,2.84,9.51.94,11.65-3.44,3.44-7,3.7-16.67,3.2-24.31l-2.57,1.07c21.91,25.64,22.13,65-.53,90.31a62.68,62.68,0,0,1-87.59,5.65C149.76,298.85,147.63,301,149.1,302.22Z"/><path class="cls-5" d="M188.44,213.36c-7.31,15.91-29.18,39.68-24.4,67.51.19.59.4,1.17.62,1.73a27.72,27.72,0,0,0,48.83,13h.19c.44-.63.83-1.27,1.24-1.92l.3-.46c.18-.29.36-.58.53-.87.38-.63.73-1.27,1.06-1.93,15.48-29.42-8.3-59.89-26.11-86.5C190.05,207.32,189.28,210.44,188.44,213.36Z"/><path d="M187.14,212.6c-6.5,13.79-16.26,25.7-21.49,40.17s-6.18,33.07,4.9,45.13a29.47,29.47,0,0,0,40,2.75c10.58-8.69,14.24-24.67,12.14-38.18-3.46-22.2-18.5-41.16-30.68-59.31-.66-1-2.47-1-2.74.36-.64,3.18-1.39,6.32-2.27,9.44a1.5,1.5,0,0,0,2.89.8c.88-3.12,1.63-6.26,2.27-9.44l-2.74.36c16.62,24.76,44.14,59,23.61,89.21-.09.13.5-.29.07.26-.1.13-.38.11-.51.27a29.89,29.89,0,0,1-3.08,3.19,26.19,26.19,0,0,1-34.95,0c-12.24-10.94-11.11-29.94-6-44.06s14.8-25.9,21.19-39.45C190.55,212.38,188,210.86,187.14,212.6Z"/></g></svg>