<svg xmlns="http://www.w3.org/2000/svg" xmlns:xlink="http://www.w3.org/1999/xlink" viewBox="0 0 381.28 380.33"><defs><style>.cls-1{fill:none;}.cls-2{isolation:isolate;}.cls-3{fill:#e66869;}.cls-4{mix-blend-mode:color;}.cls-5{clip-path:url(#clip-path);}.cls-6{fill:#ffda83;}.cls-7{fill:#7dc4ca;}.cls-8{fill:#f7c402;}.cls-9{fill:#e1262f;}.cls-10{fill:#fff;}.cls-11{fill:#4386c6;}.cls-12{fill:#f0a4a5;}.cls-13{fill:#c2e1e3;}</style><clipPath id="clip-path"><path class="cls-1" d="M349.59,190.11c0,89-71.11,161.15-158.9,161.18s-159-72.08-159-161.07S102.8,29.07,190.59,29s159,72.08,159,161.07"/></clipPath></defs><title>Recarga limón mapa conceptual</title><g class="cls-2"><g id="gráficos"><path class="cls-3" d="M375.14,190.17c0,102.44-82.6,185.5-184.5,185.5S6.14,292.61,6.14,190.17,88.74,4.67,190.64,4.67s184.5,83.05,184.5,185.5"/><path d="M373.64,190.17c-.28,76.35-48.5,146.76-120.55,173-72.26,26.32-155,3.29-203.71-56S-5.74,161.36,33.74,95.4,151.83-5.6,227.26,9.85C301.44,25,359.71,86.74,371.43,161.42a190.76,190.76,0,0,1,2.21,28.75,1.5,1.5,0,0,0,3,0c-.29-77.29-48.83-148.38-121.5-175.45-73.64-27.43-158.71-4-208.29,56.83S-9,220,31.49,287c40.32,66.81,120,102.05,196.57,86.38,75.57-15.48,135.09-78.84,146.47-155a195.56,195.56,0,0,0,2.11-28.18,1.5,1.5,0,0,0-3,0Z"/><ellipse class="cls-4" cx="190.64" cy="190.09" rx="158.43" ry="160.03"/><g class="cls-5"><path class="cls-6" d="M349.59,190.11c0,89-71.11,161.15-158.9,161.18s-159-72.08-159-161.07S102.8,29.07,190.59,29s159,72.08,159,161.07"/><path d="M348.09,190.11c-.25,65.8-41.18,127-103.3,150S111.7,343.31,69.7,292.4C27,240.66,21.49,165.09,55.88,107.56,89.82,50.81,157.23,20.29,222.22,33.75c64,13.24,113.71,66.77,123.9,131a166.44,166.44,0,0,1,2,25.33,1.5,1.5,0,0,0,3,0c-.3-67.22-42.2-129.39-105.6-152.82S109.13,34.52,66.68,86.91C23.9,139.71,18.43,216,53.35,274.38c34.55,57.73,103,88.65,169.11,75.21,65.4-13.3,116.58-68.31,126.68-134a171.92,171.92,0,0,0,1.95-25.44,1.5,1.5,0,0,0-3,0Z"/><path d="M120.29,285.69A27.8,27.8,0,0,0,102.19,309c-.68,6.67,1.47,13.1,3.85,19.23,2.72,7.05,5.81,13.95,9.17,20.72l2.59-4.52a169.64,169.64,0,0,0-24.8,3c-3.38.67-2.51,5.86.8,5.89l4.9.05c3.87,0,3.87-6,0-6l-4.9-.05.8,5.9a158.7,158.7,0,0,1,23.2-2.8,3,3,0,0,0,2.6-4.51c-4.86-9.76-11.06-20.95-12.2-31.95-1-9.54,4.56-19.18,13.69-22.5,3.6-1.31,2-7.11-1.6-5.79Z"/><path d="M222.6,299.42c3.69-.88,9.27,8.71,10.76,10.92,2.58,3.86,4.77,8,5.47,12.67.8,5.31-.55,10.5-2.43,15.44-1.67,4.4-4.55,8.76-5.7,13.32-2,7.77,11.39,8.48,16.25,9.48,2.85.58,18,4.26,14.84-3.94-1.38-3.56-7.19-2-5.78,1.6l.25.66.77-2.92c-1.17,1.49-12-1.95-13.84-2.39-.77-.18-6.93-1.27-7.08-1.88.1.41,2.83-4.68,3-5.16,3.23-7.27,6.5-14.89,5.86-23-.59-7.55-4.36-14.21-8.81-20.16-3.68-4.92-8.1-12.08-15.19-10.4-3.76.89-2.17,6.68,1.59,5.79Z"/><path class="cls-7" d="M93.53,251.77c-4.25-3.15-20.25-13.4-23-18.08s-3.25-11.19.09-15.39c3.71-4.66,10.31-4.77,16-6,14-3,18.9-18,29.87-27.53,19.21-16.75,37-26.73,62-27.94s62.56,11.71,74.6,34.69c8,15.27,10.91,35.87,26,43.19,6.56,3.19,15.27,3.76,18.65,10.47,2.86,5.67-.15,13.06-5.13,16.78s-11.31,4.65-17.39,5.23c-2.53.24-5.16.48-7.35,1.83-2.6,1.6-4.17,4.52-5.84,7.15-13.89,21.81-40.74,29.6-65.54,32.54-16.86,2-34.3,2.46-50.42-3.09-29.16-10-43.62-27.81-52.48-53.86"/><path d="M94.29,250.48c-6-4.35-12.25-8.23-17.9-13-2.84-2.39-5.08-4.63-6-8.38C68.2,220.9,73.61,216.32,81,214.86c8.45-1.67,14.68-3.77,20.64-10.3,6.33-6.95,11.2-14.74,18.45-20.87,16-13.48,34-23.45,55.18-25.14,17.52-1.41,35.8,3,51.34,11,7.64,4,14.92,9,20.45,15.68,5.86,7,8.7,15.91,12,24.31,2.94,7.48,6.15,15.27,11.87,21.09,6,6.1,13.72,6.52,20.74,10.63,6,3.52,7.05,10.25,3.27,16-3.45,5.21-9.75,7.08-15.61,8-4,.61-8.68.31-12.29,2.52-4.06,2.49-6,7.5-8.81,11.16-12.33,16.29-32.69,23.49-52.12,26.91-25.61,4.51-52.17,4.47-75.4-8.56-18-10.11-29.1-26.66-35.74-45.87-.63-1.81-3.52-1-2.89.8,6.09,17.63,15.73,33.51,31.4,44.14,20.09,13.62,43.78,16.74,67.5,14.5,20.72-2,42.76-6.43,59.43-19.7a58.79,58.79,0,0,0,10.08-10.23c1.62-2.12,2.94-4.41,4.44-6.61,3.1-4.51,6.53-5.1,11.74-5.73,8.92-1.06,18.47-3.49,22.33-12.55,3.46-8.16-.79-15.27-8.46-18.55-4.69-2-9.78-3-14-5.93-4.67-3.27-7.86-8.14-10.39-13.15-4.52-8.93-7.06-18.75-11.78-27.59-4-7.49-10.22-13.5-17.14-18.31-15.33-10.67-34.94-16.71-53.57-17.17-21.31-.53-41.11,7.39-57.95,20.08a108,108,0,0,0-13.27,11.26c-4.11,4.3-7.4,9.27-11.2,13.82s-8,8.41-13.66,10.08c-5.25,1.55-11.16,1.22-15.76,4.63-7.36,5.46-5.81,16.61.16,22.44,6.18,6,13.87,10.41,20.81,15.47,1.56,1.14,3.06-1.46,1.51-2.59Z"/><path class="cls-8" d="M160.13,140.83a429.56,429.56,0,0,0-21.41-43.48L157.2,89.2a95.24,95.24,0,0,0-22.32-26.52,2,2,0,0,1-.94-1.4c0-.63.53-1.09,1-1.45a187.87,187.87,0,0,1,34.53-20.37q7.88,29.17,16.9,58l-19.58,4.31c-1.62.36-3.38.81-4.37,2.19a7.62,7.62,0,0,0-.92,4.45c0,9.63-1.55,22.94-1.57,32.58"/><path d="M161.43,140.07A444.76,444.76,0,0,0,140,96.59l-.54,2L158,90.5a1.52,1.52,0,0,0,.53-2.06,103.65,103.65,0,0,0-9.69-14q-2.91-3.51-6.14-6.73c-.92-.92-6.68-5-6.72-6.08-.07-1.79,5.94-4.9,7.25-5.78q4.56-3.06,9.28-5.85a198.12,198.12,0,0,1,17.77-9.24l-2.2-.89q7.88,29.16,16.89,58L186,96c-6.51,1.43-13.13,2.64-19.58,4.31-3.7,1-5.88,2.52-6.35,6.52-.65,5.57-.4,11.41-.77,17s-.79,11.4-.84,17.11a1.5,1.5,0,0,0,3,0c.08-8.93,1-17.81,1.41-26.73.08-1.79-.28-4.13.16-5.85,1.17-4.63,3.93-5.13,7.75-6l16-3.53a1.51,1.51,0,0,0,1-1.85q-9-28.83-16.89-58a1.52,1.52,0,0,0-2.2-.9,194.51,194.51,0,0,0-20.9,11.13q-5.46,3.36-10.67,7.09c-1.41,1-4,2.25-4.51,4.09-.42,1.48.24,2.23,1.17,3.27,2.31,2.63,5.43,4.73,7.88,7.26a97,97,0,0,1,14.2,19l.54-2L138,96.05a1.52,1.52,0,0,0-.54,2,445.88,445.88,0,0,1,21.42,43.48c.75,1.77,3.34.25,2.59-1.51Z"/><path class="cls-8" d="M188.2,145.09c.93-11.8,5.6-32.28,6.53-44.07a205.38,205.38,0,0,1,28-1,244.19,244.19,0,0,1-4.17-46.91A314,314,0,0,1,258.8,83.62a6.21,6.21,0,0,1,2.22,3c.35,1.57-.49,3.15-1.31,4.52a386.74,386.74,0,0,1-29.41,42.75l-19.06-16.56-22.59,27.46,2-2"/><path d="M189.7,145.09C191,130.28,195,115.83,196.23,101l-1.5,1.5a219.14,219.14,0,0,1,28-1,1.52,1.52,0,0,0,1.44-1.9A251.84,251.84,0,0,1,220,53.11l-2.26,1.3c7.09,4.54,14,9.32,20.72,14.41q5.63,4.25,11,8.76c2.4,2,7.71,5.19,9.17,8,2,3.92-4.16,11.34-6.09,14.38-2.31,3.65-4.69,7.28-7.13,10.86q-7.71,11.33-16.21,22.07h2.12L212.3,116.31a1.52,1.52,0,0,0-2.12,0l-22.59,27.46c-1.2,1.47.71,3.49,2.13,2.12l2-1.95c1.4-1.34-.73-3.46-2.12-2.12l-2,2,2.13,2.12,22.58-27.46h-2.12L229.24,135a1.5,1.5,0,0,0,2.12,0c6.19-7.86,12.13-15.92,17.72-24.21q4.41-6.56,8.56-13.27c1.78-2.9,5.61-7.26,4.85-11.05-.65-3.21-4.46-5.55-6.72-7.49q-5.84-5-11.9-9.75-11.88-9.28-24.6-17.4A1.51,1.51,0,0,0,217,53.11a256.21,256.21,0,0,0,4.22,47.31l1.45-1.9a219.14,219.14,0,0,0-28,1,1.55,1.55,0,0,0-1.5,1.5c-1.28,14.8-5.25,29.26-6.53,44.07-.16,1.92,2.84,1.91,3,0Z"/><path class="cls-3" d="M275.68,175.66c13.58-19.78,40.31-27.45,61.76-16,23.89,12.7,35,39.48,44.88,63.13.74,1.76,3.64,1,2.9-.8-10.64-25.54-23.12-55.18-50.35-66.87-22.27-9.56-48.3-.56-61.78,19.08-1.09,1.6,1.51,3.1,2.59,1.51Z"/><path class="cls-9" d="M246.65,225.79l-9.43-10.2a294.07,294.07,0,0,1,34.89-48.86l9,13.59a2.92,2.92,0,0,1,.68,2c-.11.62-.64,1-1,1.49-10.4,12.1-22.78,28.86-33.4,41.89"/><path d="M247.71,224.73l-9.43-10.2.24,1.82a300.52,300.52,0,0,1,34.65-48.56l-2.35-.3c2.19,3.31,10.32,12.23,8.38,15.81-1.16,2.14-3.47,4.13-5,6q-2.91,3.57-5.75,7.18c-7.4,9.35-14.62,18.84-22.13,28.09-1.21,1.49.9,3.63,2.12,2.13,8.93-11,17.43-22.34,26.33-33.36,2-2.48,4-5,6.09-7.38.91-1.06,2.28-2.22,2.46-3.7.24-2.11-1.84-4.17-2.89-5.75l-7-10.57a1.52,1.52,0,0,0-2.36-.3,304.39,304.39,0,0,0-35.12,49.16,1.56,1.56,0,0,0,.23,1.82l9.43,10.2c1.31,1.42,3.43-.71,2.12-2.12Z"/><path d="M161,256.74c-.34-8.52-.17-17.34,3.11-25.14s10.38-14.38,18.49-14.39a10.56,10.56,0,0,1,5.65,1.43c3.49,2.15,5,6.55,6.12,10.63a190.44,190.44,0,0,1,5.73,30.37,2.26,2.26,0,0,1-.35,1.85,2,2,0,0,1-1.59.37q-16.67-1-33.27-2.89c-.93-.11-2.2-.78-1.79-1.67"/><path d="M162.45,256.74c-.34-9.73-.33-20.64,5.4-29,2.89-4.2,7.13-7.88,12.28-8.82,7.35-1.33,10.74,3.84,12.55,10.07,1.42,4.86,2.53,9.82,3.49,14.79q.74,3.79,1.32,7.62c.14,1,1.95,7.81.62,9-.87.76-6.57-.42-7.84-.51-2.61-.19-5.22-.39-7.83-.62-1.37-.11-17.81-1.09-17.89-1.93-.18-1.91-3.18-1.93-3,0,.46,4.9,9.69,3.88,13.06,4.21q6.84.67,13.7,1.2c3.17.23,7.59,1.4,10.66.63,4.7-1.19,2.05-8.42,1.56-11.78a155.84,155.84,0,0,0-5.37-24.74c-1.52-4.78-4-9.44-9.29-10.74s-10.63.65-14.72,3.77c-11.3,8.62-12.16,23.86-11.7,36.89.06,1.92,3.06,1.93,3,0Z"/><path class="cls-10" d="M193.08,196.14c7.29,1,14.52-1.61,21.76-2.94a64.31,64.31,0,0,1,11.41-1c.82,9.26-3.83,19.53-12.26,22.36a16,16,0,0,1-15.29-3.26,19.83,19.83,0,0,1-6.46-15.08"/><path d="M193.08,197.64c11.17,1.06,22-3.8,33.17-4l-1.5-1.5c.48,8.08-2.71,18-11.16,20.91-11,3.77-19.61-6.77-19.85-16.89-.05-1.93-3.05-1.93-3,0,.27,11.16,8.65,22,20.77,20.42,11.49-1.54,16.85-14,16.24-24.44a1.53,1.53,0,0,0-1.5-1.5c-11.17.18-22.06,5-33.17,4-1.92-.18-1.91,2.82,0,3Z"/><path class="cls-10" d="M140.14,183.64c8.18,3.55,19,9.71,27.22,13.25a3.28,3.28,0,0,1,1.49,1,3.19,3.19,0,0,1,.39,1.91,12.16,12.16,0,0,1-5.32,9.6,18.82,18.82,0,0,1-6.62,2.4,25.15,25.15,0,0,1-7,.68,16.25,16.25,0,0,1-13.57-10.57A17.64,17.64,0,0,1,140,184.51"/><path d="M139.38,184.94c5.9,2.6,11.6,5.62,17.36,8.52,2.8,1.42,5.84,2.57,8.55,4.14,2.15,1.25,2.85,1.84,2.05,4.65a10.84,10.84,0,0,1-4.17,5.87c-6.22,4.24-16.24,4-21.59-1.35-5.79-5.81-5.56-15.06-.49-21.2,1.22-1.48-.89-3.61-2.12-2.12-5.36,6.48-6.5,15.88-1.56,23,5.53,7.95,15.09,8.86,23.71,5.91,4.91-1.67,13.52-10.3,8.46-15.81-1.3-1.41-3.83-2-5.52-2.8-2.45-1.17-4.88-2.39-7.3-3.62-5.26-2.67-10.48-5.39-15.87-7.77-1.75-.77-3.27,1.81-1.51,2.59Z"/><path d="M94.68,236a10.32,10.32,0,0,0,8.71-5.4,8.65,8.65,0,0,0,1.25-5c-.19-1.43-1.3-2.71-2.84-2.22-1.82.6-1,3.5.8,2.9l.3-.1-1.16-.15a9.41,9.41,0,0,1-.53,2.22,8,8,0,0,1-1.59,2.49A7,7,0,0,1,94.68,233c-1.93.05-1.94,3.05,0,3Z"/><path d="M106.17,217.06c5.08.44,7.82-5.09,5.72-9.31-.87-1.72-3.45-.21-2.59,1.52a3.23,3.23,0,0,1-3.13,4.79c-1.92-.16-1.91,2.84,0,3Z"/><path d="M114.44,230.19a9.73,9.73,0,0,0,5.22-9.13c-.09-1.92-3.09-1.94-3,0a6.8,6.8,0,0,1-3.74,6.54c-1.73.86-.21,3.45,1.52,2.59Z"/><path d="M106.94,248.85a13.33,13.33,0,0,0,6.85-8.33c.55-1.85-2.35-2.65-2.89-.79a10.4,10.4,0,0,1-5.48,6.53c-1.73.85-.21,3.44,1.52,2.59Z"/><path d="M115.75,260.42,118,259a1.5,1.5,0,1,0-1.52-2.59l-2.21,1.4a1.5,1.5,0,1,0,1.51,2.59Z"/><path d="M245.46,272.5A16,16,0,0,0,250.94,261c.09-1.93-2.91-1.93-3,0a13,13,0,0,1-4.6,9.36c-1.47,1.26.66,3.37,2.12,2.12Z"/><path d="M263.5,260a30.47,30.47,0,0,0,.37-7.86c-.16-1.91-3.16-1.93-3,0a27.81,27.81,0,0,1-.26,7.06c-.33,1.89,2.56,2.7,2.89.8Z"/><path d="M253.68,247l.5-2.78a1.55,1.55,0,0,0-1.05-1.85,1.52,1.52,0,0,0-1.85,1l-.49,2.78a1.55,1.55,0,0,0,1.05,1.85,1.51,1.51,0,0,0,1.84-1.05Z"/><path d="M146.9,189.48c-3.29,3.7-2.94,10.21,1.6,12.86s11.83,1.35,13.38-4.07c1.06-3.72-4.73-5.31-5.79-1.6-.39,1.38-3.68,1.1-4.56.49a2.53,2.53,0,0,1-.39-3.44c2.56-2.88-1.67-7.14-4.24-4.24Z"/><path d="M199.75,198.16c-.22,6.18,6.28,10,11.9,8.68,6-1.4,8.88-7.8,7.58-13.49-.86-3.76-6.65-2.17-5.79,1.59.52,2.27-.32,5-2.66,5.91-2,.79-5.12-.18-5-2.69.13-3.86-5.87-3.86-6,0Z"/><path d="M132.85,182.55c14.3,5,26.69,14.08,40.94,19.23,2,.72,3.65-1.11,3.8-2.89a52.12,52.12,0,0,1,2.35-11.53c1.18-3.69-4.61-5.27-5.78-1.6a58.81,58.81,0,0,0-2.57,13.13l3.8-2.89c-14.24-5.15-26.63-14.24-40.95-19.24-3.65-1.27-5.22,4.52-1.59,5.79Z"/><path d="M185.32,187.14c-.11,3.39-1.91,10.31,1.27,12.66,3.4,2.51,10-1.77,13.36-2.82,10.32-3.21,27-9.09,36-.5,2.79,2.66,7-1.58,4.24-4.25-6.28-6-14.43-6.63-22.67-5.45a123.09,123.09,0,0,0-14.84,3.14q-3.49,1-6.93,2.11c-1.43.48-2.85,1-4.27,1.51-1,.36-2.94.49-1.88,1.08l1.48,2.59c-.42-3.23.12-6.82.22-10.07.13-3.86-5.87-3.86-6,0Z"/><path d="M269.05,230.57c15.86-10.92,27.18-29.52,33.34-47.48,6.62-19.32,6.55-40.67-2.33-59.25-1.67-3.48-6.84-.44-5.18,3,8.19,17.14,7.8,36.89,1.72,54.63-5.6,16.34-16.12,33.94-30.58,43.89-3.16,2.17-.16,7.37,3,5.18Z"/><path d="M298.25,127.27c-6.93-.22-12.61-4.43-15.64-10.55-1.72-3.46-6.89-.42-5.18,3a24.07,24.07,0,0,0,20.82,13.52c3.86.13,3.86-5.87,0-6Z"/><path d="M302.16,126.55l-2-16.72c-.45-3.78-6.46-3.83-6,0l2,16.72c.45,3.79,6.46,3.84,6,0Z"/><path d="M300.77,133a30.67,30.67,0,0,0,19-19.13c1.3-3.64-4.49-5.21-5.78-1.6a24.27,24.27,0,0,1-14.82,14.94c-3.63,1.25-2.07,7.05,1.59,5.79Z"/><path class="cls-11" d="M91.2,163.05c-13.49-19.63-39.52-28.61-61.78-19-27.23,11.71-39.69,41.37-50.31,66.92-.74,1.78,2.16,2.55,2.89.79,9.84-23.66,21-50.44,44.84-63.16,21.45-11.42,48.18-3.77,61.77,16,1.09,1.58,3.69.08,2.59-1.52Z"/><path class="cls-11" d="M117.68,214.67l9.42-10.21a294,294,0,0,0-34.92-48.83l-9,13.6a2.86,2.86,0,0,0-.67,2c.1.62.63,1,1,1.49C94,184.78,106.35,201.53,117,214.55"/><path d="M118.74,215.73l9.42-10.2a1.53,1.53,0,0,0,.23-1.82,304,304,0,0,0-35.15-49.14,1.52,1.52,0,0,0-2.36.3l-6.49,9.82c-1.13,1.72-3.44,4-3.35,6.31.07,1.62,1.43,2.74,2.43,3.9,2.08,2.41,4.09,4.89,6.09,7.37,8.91,11,17.42,22.35,26.36,33.34,1.22,1.5,3.33-.64,2.12-2.12-7.52-9.25-14.74-18.74-22.15-28.08-3.3-4.17-7.39-8.19-10.3-12.63-2.06-3.14.5-5.23,2.39-8.08l5.49-8.31-2.35.3a299.83,299.83,0,0,1,34.68,48.53l.24-1.82-9.42,10.21c-1.31,1.42.81,3.54,2.12,2.12Z"/><path d="M84.42,216.59A85.85,85.85,0,0,1,75,163.26a83.89,83.89,0,0,1,8.07-25.95c3.54-7,11.31-14.31,8.82-22.74-1.1-3.69-6.89-2.12-5.79,1.6,1.51,5.08-4,10.58-6.41,14.74A88.88,88.88,0,0,0,74.48,142a93.12,93.12,0,0,0,4.75,77.64c1.86,3.38,7,.36,5.19-3Z"/><path d="M88.22,115.52a21.43,21.43,0,0,1-13.16-12.4c-1.52-3.53-6.69-.48-5.18,3A27,27,0,0,0,86.63,121.3c3.69,1.17,5.27-4.62,1.59-5.78Z"/><path d="M92.78,118.1,90.91,97.72c-.35-3.81-6.35-3.85-6,0l1.87,20.38c.35,3.81,6.36,3.85,6,0Z"/><path d="M93.63,121.88a63.92,63.92,0,0,0,14-15.7c2.07-3.27-3.12-6.29-5.18-3a59.31,59.31,0,0,1-13,14.49c-3,2.41,1.26,6.64,4.24,4.24Z"/><path class="cls-3" d="M160.89,256c3.53-8.62,12.09-15.1,21-14.49s17,9.31,16.19,18.65"/><path d="M162.18,256.74c3.33-7.47,10.3-14.08,19-13.77,8.95.33,15.74,8.48,15.39,17.17-.07,1.93,2.93,1.93,3,0,.38-9.5-6.61-18.48-16.16-20-10.44-1.64-19.77,6-23.82,15.05-.78,1.75,1.8,3.28,2.59,1.52Z"/><path class="cls-10" d="M128.92,277.07c8,12.08,21.63,16,35,19.13,1.88.44,2.68-2.45.8-2.89-12.52-2.92-25.72-6.4-33.23-17.75-1.06-1.6-3.66-.1-2.59,1.51Z"/><path class="cls-10" d="M175.93,292.89l2,1.17.36-2.74-1.18.25,1.69.69a1.09,1.09,0,0,1-.21-1,1.5,1.5,0,0,0-1.5-1.5,1.53,1.53,0,0,0-1.5,1.5,4,4,0,0,0,.62,2.48,1.56,1.56,0,0,0,1.69.69l1.19-.25a1.52,1.52,0,0,0,.35-2.74l-2-1.17a1.54,1.54,0,0,0-2.06.54,1.52,1.52,0,0,0,.54,2.05Z"/><path class="cls-10" d="M191.16,167.84a2.41,2.41,0,0,0,2.72,1.15,2.29,2.29,0,0,0,1.45-2.79,1.75,1.75,0,0,0-2.93-.77c-.83.86-.71,2.65.69,2.87a1.5,1.5,0,0,0,.79-2.9l.25.11.69.9a1.15,1.15,0,0,1-.77,1.42h-.8l-.45-.23-.39-.66c0-.13.15-.54,0-.27l.54-.54a.67.67,0,0,1,.8.2,1.5,1.5,0,1,0-2.59,1.51Z"/><path class="cls-10" d="M205.78,170.39a32.44,32.44,0,0,1,21.12,9.29c1.39,1.34,3.52-.78,2.12-2.12a35.72,35.72,0,0,0-23.24-10.17c-1.93-.1-1.93,2.9,0,3Z"/><path class="cls-10" d="M271.28,243.12l12.44,4.16c1.84.62,2.62-2.28.8-2.89l-12.44-4.17c-1.84-.61-2.63,2.29-.8,2.9Z"/><path class="cls-10" d="M76.2,229.94a6.76,6.76,0,0,1,.25-5.68c.9-1.71-1.69-3.23-2.59-1.52a9.69,9.69,0,0,0-.55,8c.67,1.78,3.58,1,2.89-.8Z"/></g><path class="cls-12" d="M349.59,190.11c0,89-71.11,161.15-158.9,161.18s-159-72.08-159-161.07S102.8,29.07,190.59,29s159,72.08,159,161.07"/><path d="M348.09,190.11c-.25,65.8-41.18,127-103.3,150S111.7,343.31,69.7,292.4C27,240.66,21.49,165.09,55.88,107.56,89.82,50.81,157.23,20.29,222.22,33.75c64,13.24,113.71,66.77,123.9,131a166.44,166.44,0,0,1,2,25.33,1.5,1.5,0,0,0,3,0c-.3-67.22-42.2-129.39-105.6-152.82S109.13,34.52,66.68,86.91C23.9,139.71,18.43,216,53.35,274.38c34.55,57.73,103,88.65,169.11,75.21,65.4-13.3,116.58-68.31,126.68-134a171.92,171.92,0,0,0,1.95-25.44,1.5,1.5,0,0,0-3,0Z"/><polygon class="cls-11" points="194.11 321.47 174 321.47 179.94 122.76 188.18 122.76 194.11 321.47"/><path d="M194.11,320H174l1.5,1.5,2-67,3.2-106.95.74-24.77-1.5,1.5h8.24l-1.5-1.5,2,67,3.19,107,.74,24.77c.06,1.93,3.06,1.93,3,0l-2-67-3.19-106.95-.74-24.77a1.53,1.53,0,0,0-1.5-1.5h-8.24a1.52,1.52,0,0,0-1.5,1.5l-2,67-3.19,107-.74,24.77A1.52,1.52,0,0,0,174,323h20.11A1.5,1.5,0,0,0,194.11,320Z"/><path class="cls-7" d="M269.62,112.56c-.14-1.42-1.12-3-2.68-2.82L193.27,116a27.77,27.77,0,0,0-3.75.32,5.36,5.36,0,0,0-1.88.84,2.36,2.36,0,0,0-.33-1.34,2.33,2.33,0,0,0-.63-.92L145.92,58.69,140,50.55c-.81-1.12-2.38-2-3.66-1l-3.52,2.68a2.94,2.94,0,0,0-1,3.86l41.95,64a29.88,29.88,0,0,0,2.14,3.25,6.11,6.11,0,0,0,1.78,1.36l-.27.16a2.5,2.5,0,0,0-1.28,1.79l-26.14,65.82-3.75,9.45a2.86,2.86,0,0,0,1.23,3.18l4,1.86a2.64,2.64,0,0,0,3.66-1l31.71-70.18a31.77,31.77,0,0,0,1.62-3.57,6.41,6.41,0,0,0,.25-2.15,2.09,2.09,0,0,0,1.28.37,2.16,2.16,0,0,0,1.05-.11l66.65-9,9.66-1.3c1.32-.18,2.85-1.16,2.68-2.82Z"/><path d="M271.07,112.16c-1.42-5.78-7.57-3.63-12.09-3.24l-26.88,2.26-25.89,2.19c-4.31.36-8.62.8-12.94,1.09-2.33.16-4.31.2-6.39,1.36l2.2.9c-.82-3.4-3.72-6.23-5.76-9l-8.15-11.23L158.86,74,143.28,52.5c-3.49-4.8-5.65-6.23-10.62-2-5.13,4.35-.76,8.39,2.21,12.91l15.07,23,15.06,23c2.51,3.82,5.08,7.61,7.53,11.48,1.31,2.07,2.35,3.83,4.45,5.14v-2.59c-2.09,1.22-2.48,3.47-3.33,5.6l-5.44,13.71L158,168.25,148,193.6c-2.15,5.4-5.87,10.56.78,13.67,6.4,3,7.51-.17,10.15-6l11.38-25.2q5.7-12.59,11.38-25.19c1.9-4.2,3.78-8.41,5.7-12.59,1.25-2.73,2.78-5.23,2.88-8.28l-1.9,1.44c2.89.84,6.08-.14,9-.53l13.72-1.86,26.47-3.58,26.38-3.58c7-.94,7.88-2.37,7.19-9.33-.19-1.9-3.19-1.92-3,0s.91,4.51-1.13,5.92c-.74.51-2.95.4-3.86.52l-10.7,1.45-20.58,2.79-19.6,2.65-10.78,1.46c-3.48.47-9,2.17-12.32,1.2a1.52,1.52,0,0,0-1.9,1.45c-.1,3.17-2.41,6.61-3.69,9.46l-4.48,9.9q-4.26,9.45-8.53,18.89T162,187.15L157.54,197c-1.23,2.72-3.68,10.19-7.93,7.33-3.81-2.57,3.91-16.65,5.15-19.78q3.83-9.6,7.63-19.19,4-10.07,8-20.11l3.63-9.15c.93-2.34,2.29-8.91,4.49-10.2a1.52,1.52,0,0,0,0-2.59c-2.67-1.66-4.4-5.62-6.07-8.17l-5.92-9q-5.37-8.2-10.76-16.4l-11.83-18c-1.73-2.63-13.49-17.3-8.58-19.54s11.43,10.23,13.94,13.68l12.23,16.86,12.23,16.85,5.82,8c2.08,2.87,5.79,6.46,6.63,9.93a1.5,1.5,0,0,0,2.2.89c2.45-1.37,6.13-1,8.86-1.28l10-.85,19.91-1.68L246,113c2.73-.23,21.34-3.34,22.14-.05C268.63,114.83,271.52,114,271.07,112.16Z"/><path class="cls-8" d="M190.42,118A8.92,8.92,0,0,1,188.6,130a8,8,0,0,1-11.48-1.91A8.93,8.93,0,0,1,179,116.05,8,8,0,0,1,190.42,118Z"/><path d="M189.13,118.72a7.57,7.57,0,0,1-1,9.76,6.55,6.55,0,0,1-9.71-1.12c-5.07-7.09,5.13-16,10.71-8.64,1.15,1.53,3.75,0,2.59-1.51-3.24-4.28-9-5.77-13.53-2.46a10.49,10.49,0,0,0-2.36,14.12,9.57,9.57,0,0,0,13.53,2.46c4.5-3.29,5.23-9.55,2.36-14.12C190.69,115.58,188.09,117.08,189.13,118.72Z"/><path class="cls-7" d="M193.81,323H174.3a4.76,4.76,0,0,1-4.64-4.88V303.77a4.76,4.76,0,0,1,4.64-4.87h19.51a4.76,4.76,0,0,1,4.64,4.87V318.1A4.76,4.76,0,0,1,193.81,323Z"/><path d="M193.81,321.48H186c-3.36,0-7.45.64-10.75,0-5-1-4.09-5-4.09-8.61s-1-8,1.6-10.78,6.26-1.69,9.84-1.69c3.19,0,7.35-.71,10.46,0,5,1.13,3.89,5.45,3.89,9.08,0,3.14,1.57,11.33-3.54,12-1.9.27-1.09,3.16.8,2.9,8.2-1.16,5.93-13.83,5.74-19.67-.29-8.78-8.51-7.36-14.92-7.36-6.05,0-16.1-2.08-16.87,6.46-.34,3.81,0,7.8,0,11.63,0,3.3.15,6.76,3.6,8.36,2.94,1.37,7.24.63,10.36.63h11.69A1.5,1.5,0,0,0,193.81,321.48Z"/><path class="cls-13" d="M206.61,323h-45.1v-11.4a5.16,5.16,0,0,1,5-5.29h35a5.17,5.17,0,0,1,5,5.29Z"/><path d="M206.61,321.48h-45.1L163,323c0-4.62-1.93-13.6,4.1-15.19,1.79-.48,4.42,0,6.26,0h10.69c5.34,0,11.68-1,16.95,0,6.09,1.11,4.1,10.93,4.1,15.19a1.5,1.5,0,0,0,3,0c0-5.4,2.15-16.11-5-18-1.91-.5-4.19-.19-6.13-.19H171.11c-1.93,0-4.22-.31-6.12.19-7.13,1.88-5,12.6-5,18a1.52,1.52,0,0,0,1.5,1.5h45.1A1.5,1.5,0,0,0,206.61,321.48Z"/><polygon class="cls-11" points="253.88 321.91 239.58 321.91 243.8 180.54 249.66 180.54 253.88 321.91"/><path d="M253.88,320.41h-14.3l1.5,1.5,3.69-123.76.53-17.61-1.5,1.5h5.86l-1.5-1.5,3.7,123.75.52,17.62c.06,1.92,3.06,1.93,3,0l-3.69-123.76-.53-17.61a1.52,1.52,0,0,0-1.5-1.5H243.8a1.52,1.52,0,0,0-1.5,1.5l-3.7,123.75-.52,17.62a1.51,1.51,0,0,0,1.5,1.5h14.3A1.5,1.5,0,0,0,253.88,320.41Z"/><path class="cls-7" d="M252.57,323H240.89a4.52,4.52,0,0,1-4.4-4.62v-7.89a4.52,4.52,0,0,1,4.4-4.62h11.68a4.52,4.52,0,0,1,4.4,4.62v7.89A4.52,4.52,0,0,1,252.57,323Z"/><path d="M252.57,321.48h-5c-1.84,0-4.41.48-6.2,0a7.51,7.51,0,0,1-3.33-3.22,9.62,9.62,0,0,1,0-2.68c0-2.76-1-7.1,2.9-8.23,1.3-.39,3.31,0,4.65,0,2,0,4.44-.36,6.44,0,3.58.63,3.49,3.31,3.49,5.89,0,2.33.93,7.78-2.9,8.24-1.89.23-1.91,3.23,0,3,4-.48,5.78-3.11,5.9-6.94.09-2.92.68-7.13-.65-9.86-1.49-3.05-4.41-3.33-7.38-3.33a92.19,92.19,0,0,0-9.55,0c-4,.41-5.78,3.15-5.9,6.94-.09,2.85-.63,6.81.5,9.5,2.42,5.74,12.2,3.69,17.08,3.69A1.5,1.5,0,0,0,252.57,321.48Z"/><path class="cls-13" d="M262.77,323H230.69v-7.55a4.23,4.23,0,0,1,4.12-4.33h23.84a4.23,4.23,0,0,1,4.12,4.33Z"/><path d="M262.77,321.48H230.69l1.5,1.5c0-3.53-1.23-9.42,3.43-10.38,3.38-.69,7.66,0,11.11,0s7.7-.69,11.11,0c4.68,1,3.43,6.85,3.43,10.38a1.5,1.5,0,0,0,3,0c0-4.19,1.33-11.15-3.74-13-3.93-1.46-9.72-.35-13.8-.35s-9.66-1.05-13.62.28c-5.27,1.76-3.92,8.86-3.92,13.1a1.52,1.52,0,0,0,1.5,1.5h32.08A1.5,1.5,0,0,0,262.77,321.48Z"/><polygon class="cls-11" points="130.62 322.18 119.9 322.18 123.06 216.21 127.46 216.21 130.62 322.18"/><path d="M130.62,320.67H119.9l1.5,1.5,2.76-92.63.4-13.33-1.5,1.5h4.4l-1.5-1.5,2.76,92.63.4,13.33c.06,1.93,3.06,1.94,3,0l-2.77-92.63L129,216.21a1.53,1.53,0,0,0-1.5-1.5h-4.4a1.53,1.53,0,0,0-1.5,1.5l-2.77,92.63-.39,13.33a1.5,1.5,0,0,0,1.5,1.5h10.72A1.5,1.5,0,0,0,130.62,320.67Z"/><path class="cls-7" d="M129.44,323h-8.36a3.6,3.6,0,0,1-3.5-3.68v-5.49a3.59,3.59,0,0,1,3.5-3.67h8.36a3.58,3.58,0,0,1,3.49,3.67v5.49A3.59,3.59,0,0,1,129.44,323Z"/><path d="M129.44,321.48c-2.41,0-5.73.64-8,0s-2.34-2.27-2.34-4.06-.66-5,2-5.78a13.41,13.41,0,0,1,3.29,0c1.37,0,3.28-.35,4.6,0,2.13.55,2.46,2.21,2.46,4.05,0,1.6.66,5.47-2,5.79-1.9.23-1.92,3.23,0,3,3.31-.4,4.89-2.59,5-5.83.07-2.19.44-5.18-.56-7.21-1.22-2.48-3.63-2.8-6.09-2.8-2.19,0-4.52-.22-6.7,0-3.11.31-4.87,2.43-5,5.48-.09,2.15-.44,5.14.41,7.2,1.91,4.62,9,3.16,13,3.16A1.5,1.5,0,0,0,129.44,321.48Z"/><path class="cls-13" d="M137.28,323h-24v-5.49a3.33,3.33,0,0,1,3.25-3.41H134a3.32,3.32,0,0,1,3.24,3.41Z"/><path d="M137.28,321.48h-24l1.5,1.5c0-2.6-.88-6.47,2.31-7.4,2.31-.67,5.82,0,8.22,0s5.93-.68,8.22,0c3.1.92,2.3,4.82,2.3,7.4a1.5,1.5,0,0,0,3,0c0-3.36.93-8.37-3-10-2.93-1.25-7.49-.38-10.56-.38s-7.44-.84-10.39.3c-4.07,1.57-3.14,6.66-3.14,10.1a1.52,1.52,0,0,0,1.5,1.5h24A1.5,1.5,0,0,0,137.28,321.48Z"/><path class="cls-7" d="M304.81,172.93c-.1-1-.76-2-1.83-1.91l-50.16,4.23a21.74,21.74,0,0,0-2.55.21A3.78,3.78,0,0,0,249,176a1.63,1.63,0,0,0-.23-.92,1.52,1.52,0,0,0-.42-.62l-27.76-38.25-4-5.54a1.8,1.8,0,0,0-2.5-.69l-2.39,1.83a2,2,0,0,0-.66,2.62L239.58,178a20.51,20.51,0,0,0,1.45,2.21,4.09,4.09,0,0,0,1.22.92l-.19.11a1.74,1.74,0,0,0-.87,1.23q-8.9,22.4-17.8,44.81l-2.55,6.43a1.94,1.94,0,0,0,.84,2.17l2.7,1.27a1.82,1.82,0,0,0,2.5-.69q10.8-23.9,21.59-47.79a21.25,21.25,0,0,0,1.1-2.43,4.18,4.18,0,0,0,.17-1.46,1.43,1.43,0,0,0,.88.25,1.53,1.53,0,0,0,.71-.08l45.39-6.14,6.57-.89a1.9,1.9,0,0,0,1.83-1.92C305,175,304.91,174,304.81,172.93Z"/><path d="M306.26,172.53c-1.08-3.64-3.86-3-7.13-2.69l-18.33,1.55-18.33,1.55c-4.55.38-10-.08-14.24,1.8l2.2.9c-.48-2-1.93-3.46-3.11-5.09L241,161.79l-12.15-16.73c-3.52-4.87-6.76-10.81-11-15.11-2.22-2.27-3.94-1.88-6.34.15-2.25,1.9-2.66,3.31-1.26,5.94,3.11,5.88,7.45,11.37,11.11,16.93q5.28,8.07,10.58,16.13c2.84,4.33,5.38,10.19,9.55,13.36v-2.59c-3.13,1.83-4.07,8.08-5.3,11.19q-3.57,9-7.12,17.93-3.88,9.76-7.76,19.53c-1.39,3.51-3.47,6.62.29,9,2.32,1.47,4.74,2,6.58-.27s2.8-6.2,4-8.85q2.21-4.87,4.4-9.74l8.4-18.58c2.15-4.77,5.66-10,6.27-15.27l-1.89,1.44c4.17,1.21,10-.85,14.22-1.42L284.29,182c6.14-.83,12.51-1.25,18.58-2.51,3.9-.81,3.8-2.95,3.44-6.58-.19-1.9-3.19-1.92-3,0,.35,3.52-.61,3.6-3.7,4l-5.27.71-14.79,2-13.82,1.87-6.9.94c-2.39.32-6.35,1.57-8.69.89a1.53,1.53,0,0,0-1.9,1.45c-.56,4.76-4.29,10.29-6.26,14.64l-6,13.27q-2.79,6.19-5.6,12.39l-2.4,5.31-1.6,3.54c-2.28,2.2-3.44,1.72-3.46-1.43,0-1.64,1.66-4.16,2.28-5.72l2.49-6.27,5-12.55,5-12.55,2.85-7.17c.5-1.26,1.31-5.12,2.51-5.81a1.52,1.52,0,0,0,0-2.59c-3.37-2.56-5.65-8-7.95-11.47l-7.94-12.1c-1.56-2.38-16.26-22.37-13.5-24.07,3-1.85,15.29,18,17.23,20.71L239,164.1l4.62,6.37c1.27,1.75,3.45,3.83,4,6a1.52,1.52,0,0,0,2.2.89c3.59-1.6,8.81-1.06,12.73-1.39L276,174.8c2.93-.25,26.75-3.63,27.39-1.47C303.91,175.18,306.8,174.39,306.26,172.53Z"/><path class="cls-8" d="M250.88,176.62a6.07,6.07,0,0,1-1.24,8.21,5.41,5.41,0,0,1-7.81-1.3,6.07,6.07,0,0,1,1.24-8.22A5.41,5.41,0,0,1,250.88,176.62Z"/><path d="M249.59,177.37a4.68,4.68,0,0,1-.61,6.07,4,4,0,0,1-5.86-.67c-3.17-4.28,3-9.92,6.47-5.4,1.15,1.52,3.75,0,2.59-1.51-2.36-3.12-6.53-4.25-9.87-1.85a7.63,7.63,0,0,0-1.78,10.27,7,7,0,0,0,9.87,1.85,7.65,7.65,0,0,0,1.78-10.27C251.15,174.23,248.56,175.73,249.59,177.37Z"/><path class="cls-7" d="M170.92,212c-.07-.74-.59-1.55-1.41-1.48l-38.77,3.27a16.19,16.19,0,0,0-2,.17,3.06,3.06,0,0,0-1,.44,1.17,1.17,0,0,0-.17-.7,1.21,1.21,0,0,0-.33-.49l-21.45-29.56-3.11-4.28a1.39,1.39,0,0,0-1.93-.53l-1.85,1.41a1.56,1.56,0,0,0-.51,2q11.06,16.83,22.09,33.66a15.25,15.25,0,0,0,1.12,1.71,3,3,0,0,0,.94.71l-.15.09a1.32,1.32,0,0,0-.67.94Q114.88,236.68,108,254q-1,2.49-2,5a1.5,1.5,0,0,0,.65,1.68l2.09,1a1.4,1.4,0,0,0,1.93-.54l16.69-36.93a18.65,18.65,0,0,0,.85-1.88,3.28,3.28,0,0,0,.13-1.13,1.11,1.11,0,0,0,.67.19,1.16,1.16,0,0,0,.56-.05l35.08-4.75,5.08-.69c.69-.1,1.5-.61,1.41-1.48Z"/><path d="M172.37,211.56c-1-2.46-2.2-2.58-4.8-2.42-5.17.32-10.34.88-15.51,1.31l-15.5,1.31c-3.13.27-6.64,0-9.54,1.31l2.2.89c-.86-3.55-4.72-7.16-6.86-10.1l-9.6-13.23c-2.79-3.84-5.45-8.91-8.87-12.21-1.79-1.73-3.34-1.49-5.25.14-1.52,1.3-2.23,2.39-1.51,4.43s2.93,4.47,4.21,6.42l4.73,7.21L115,210.24c2,3.13,3.79,7.09,6.8,9.38V217c-2.34,1.37-3.13,6-4,8.31q-3.26,8.19-6.52,16.4c-2,5-4.14,10.07-6,15.17-1,2.68-.93,4.16,1.73,5.51,1.76.9,3.5,1.28,4.91-.43s2.34-5.07,3.29-7.18l3.18-7,7.16-15.83c1.54-3.4,3.92-7.05,4.36-10.8l-1.9,1.45c3.25.94,7.51-.61,10.8-1.06l16.56-2.24c4.62-.62,10.43-.47,14.83-2,2.66-.93,2.52-2.82,2.27-5.32-.19-1.9-3.19-1.92-3,0,.42,4.19-15.41,4.51-18.79,5l-9.75,1.32c-3.23.43-9,2.34-12.12,1.44a1.53,1.53,0,0,0-1.9,1.45c-.39,3.31-3,7.16-4.35,10.17L118.14,241c-.89,2-7.8,19.6-9.67,18.85s6-18.15,6.76-20l3.62-9.12,2.18-5.47c.5-1.27,1.27-5,2.3-5.6a1.52,1.52,0,0,0,0-2.59c-2.49-1.89-4-5.72-5.73-8.3l-5.79-8.82c-1.45-2.2-13-17.15-11.2-19.11,1-1,12,14.64,13,16l6.77,9.34c1.72,2.36,5.3,5.73,6,8.61a1.52,1.52,0,0,0,2.2.9c2.52-1.13,6.29-.75,9-1l10.67-.9c2.16-.18,20.68-2.91,21.28-1.42C170.19,214.13,173.09,213.35,172.37,211.56Z"/><path class="cls-8" d="M129.24,214.81a4.69,4.69,0,0,1-1,6.35,4.2,4.2,0,0,1-6-1,4.7,4.7,0,0,1,1-6.35A4.19,4.19,0,0,1,129.24,214.81Z"/><path d="M128,215.57a3.27,3.27,0,0,1-.42,4.27,2.73,2.73,0,0,1-4-.45c-2.22-2.93,2-7,4.41-3.82,1.14,1.52,3.75,0,2.59-1.52-1.93-2.56-5.35-3.51-8.09-1.55a6.24,6.24,0,0,0-1.5,8.41,5.75,5.75,0,0,0,8.09,1.54,6.24,6.24,0,0,0,1.5-8.4C129.51,212.42,126.91,213.92,128,215.57Z"/></g></g></svg>