<svg xmlns="http://www.w3.org/2000/svg" viewBox="0 0 381.28 380.33"><defs><style>.cls-1{fill:#f7c402;}.cls-2{fill:#fadc67;}.cls-3{fill:#7dc4ca;}.cls-4{fill:#4386c6;}</style></defs><title>Recarga limón mapa conceptual</title><g id="gráficos"><rect class="cls-1" x="4.14" y="3.67" width="373" height="373" rx="23.02" ry="23.02"/><path d="M354.12,375.17H33.62c-7.27,0-14.13.11-20.23-5-7.09-5.91-7.75-13.81-7.75-22.12V63.81c0-12.34-.38-24.75,0-37.09C6.06,13,17,5.17,29.81,5.17h278.9c14.84,0,29.68-.14,44.51,0,12.75.11,22.3,9.5,22.42,22.3,0,4.81,0,9.62,0,14.43V350.79c0,12.86-7.62,24-21.52,24.38-1.93.05-1.93,3.05,0,3,14.41-.44,24.44-11.7,24.52-25.81,0-5.5,0-11,0-16.51V71.73c0-14.8.15-29.62,0-44.42A24.94,24.94,0,0,0,354,2.17c-4-.09-8,0-12.06,0H29.62c-11.38,0-21.84,5.32-25.7,16.72C2.25,23.8,2.64,29.14,2.64,34.26v314.1c0,7.21.37,14,5,20.15,5.85,7.69,14.43,9.66,23.46,9.66h323A1.5,1.5,0,0,0,354.12,375.17Z"/><rect class="cls-2" x="27.63" y="27.15" width="326.03" height="326.03" rx="23.02" ry="23.02"/><path d="M330.64,351.68H74.24c-12,0-30.23,2.95-39.27-6.77-8.71-9.38-5.84-27.12-5.84-38.94V152.58c0-34.08-1.06-68.34,0-102.41.41-13.42,11-21.52,23.74-21.52H293.44c12.23,0,24.5-.3,36.73,0,12.51.31,21.85,9.62,22,22.19.05,4.16,0,8.32,0,12.48V328.13c0,12.66-8.23,23.15-21.51,23.55-1.93.06-1.94,3.06,0,3,14-.42,24.37-11.28,24.51-25.19.05-4.31,0-8.63,0-12.94v-227c0-12.94.25-25.89,0-38.82-.26-13.81-10.57-24.68-24.52-25-3-.08-6,0-8.95,0h-269c-9.9,0-19.11,4.13-23.83,13.3-2.72,5.29-2.71,10.73-2.71,16.43V325.53c0,6.4.33,12.5,4,18.12,5.26,8,13.78,11,22.9,11H330.64A1.5,1.5,0,0,0,330.64,351.68Z"/><path class="cls-3" d="M271,157.09l-56.83-16q-1.78-13.28-3.44-26.64h30.5v17.4h3.19v-17.4H246V97.34L207.4,86.57q-2-18.36-3.75-36.86l-.4-4.34H178l-.4,4.34q-1.74,18.56-3.76,37L135.31,97.34v17.1h1.6v17.4h3.19v-17.4h30.5q-1.64,13.36-3.44,26.64l-56.83,16V177h1.6v17.43h3.18V177h46.94C153.92,230.94,144,283.77,132.23,335H142q3.74-16.29,7.21-32.78H232q3.5,16.49,7.21,32.78h9.8c-11.77-51.19-21.69-104-29.82-157.94h46.94v17.43h3.19V177H271Zm-53.79,67.2L195,200.36l15.57-16.65Q213.71,204.11,217.16,224.29ZM200.3,108.07H181c.64-5.43,1.33-10.83,1.94-16.28h15.44C199,97.24,199.66,102.64,200.3,108.07Zm.76,6.37c0,.28.06.55.1.82l-.67-.39-9.85,16.65-9.85-16.65-.67.39c0-.27.07-.54.1-.82ZM165.61,239.6h50.06l-25,18.72Zm-1.08-6.37L190.64,205l26.11,28.19Zm26.11-37.57h0L173.18,177H208.1l-17.45,18.65Zm0-51.62.09-.15,16.89,26.76h-34l16.89-26.76Zm3.74-6.31,7.87-13.31q2.07,16.42,4.38,32.72ZM179,124.42l7.87,13.31-12.25,19.41Q176.95,140.84,179,124.42Zm-8.32,59.29,15.57,16.65-22.16,23.93Q167.6,204.13,170.71,183.71Zm-10.07,60.14,24.66,18.44-32.92,24.43Q156.7,265.43,160.64,243.85Zm30,22.43h0l39.8,29.53H150.83Zm5.35-4,24.66-18.44q3.93,21.59,8.26,42.87Zm37.5-109.13-15.65,14.59Q216.39,157.88,215,148Zm5.92,3.19,11,14.3H224.08Zm-25.08-48.28,7.8-8.9,6.45,8.9Zm25.27,0h-3.15l-6.14-8.48,9.29,2.59Zm-23-12.3L209.45,104c-.41-3.51-.85-7-1.24-10.54ZM194.54,54.94Q196,70.27,197.7,85.5l-14.11-.06c1.1-10.15,2.18-20.3,3.15-30.5Zm-22.71,49-7.17-8.19,8.41-2.35C172.68,96.94,172.24,100.45,171.83,104ZM167,108.07H152.71l6.45-8.9Zm-25.27-5.89L151,99.59l-6.14,8.48h-3.15Zm21.76,65.57L147.8,153.16,166.24,148Q164.88,157.89,163.45,167.75Zm-6.25,2.9H130.92l11-14.3Zm-40.49-8.73,16.41-4.62-10.24,13.35h-6.17Zm147.86,8.73H258.4L248.16,157.3l16.41,4.62Z"/><path d="M271.35,155.65l-56.84-16,1.11,1.44q-1.78-13.31-3.44-26.64l-1.5,1.5h30.5l-1.5-1.5v17.4a1.52,1.52,0,0,0,1.5,1.5h3.19a1.52,1.52,0,0,0,1.5-1.5v-17.4l-1.5,1.5H246a1.52,1.52,0,0,0,1.5-1.5V97.34a1.54,1.54,0,0,0-1.11-1.45L207.8,85.13l1.1,1.44q-2.25-20.58-4.15-41.2a1.54,1.54,0,0,0-1.5-1.5H178a1.54,1.54,0,0,0-1.5,1.5Q174.6,66,172.37,86.69l1.1-1.45L134.92,95.89a1.54,1.54,0,0,0-1.11,1.45v17.1a1.52,1.52,0,0,0,1.5,1.5h1.6l-1.5-1.5v17.4a1.52,1.52,0,0,0,1.5,1.5h3.19a1.52,1.52,0,0,0,1.5-1.5v-17.4l-1.5,1.5h30.5l-1.5-1.5q-1.64,13.34-3.44,26.64l1.11-1.44-56.84,16a1.53,1.53,0,0,0-1.1,1.44V177a1.52,1.52,0,0,0,1.5,1.5h1.6l-1.5-1.5v17.43a1.52,1.52,0,0,0,1.5,1.5h3.18a1.52,1.52,0,0,0,1.5-1.5V177l-1.5,1.5h46.94l-1.45-1.89c-8,53-17.83,105.69-29.81,157.93a1.52,1.52,0,0,0,1.44,1.9H142a1.53,1.53,0,0,0,1.45-1.1q3.74-16.37,7.2-32.78l-1.44,1.1H232l-1.44-1.1q3.48,16.41,7.2,32.78a1.53,1.53,0,0,0,1.45,1.1h9.8a1.52,1.52,0,0,0,1.44-1.9c-12-52.24-21.8-104.95-29.81-157.93l-1.45,1.89h46.94l-1.5-1.5v17.43a1.52,1.52,0,0,0,1.5,1.5h3.19a1.52,1.52,0,0,0,1.5-1.5V177l-1.5,1.5H271a1.52,1.52,0,0,0,1.5-1.5V157.09a1.5,1.5,0,0,0-3,0V177l1.5-1.5h-1.59a1.52,1.52,0,0,0-1.5,1.5v17.43l1.5-1.5h-3.19l1.5,1.5V177a1.52,1.52,0,0,0-1.5-1.5H219.23a1.52,1.52,0,0,0-1.44,1.9c8,53,17.83,105.7,29.81,157.94l1.45-1.9h-9.8l1.44,1.1q-3.74-16.37-7.2-32.78a1.52,1.52,0,0,0-1.45-1.1h-82.8a1.52,1.52,0,0,0-1.45,1.1q-3.48,16.43-7.2,32.78l1.44-1.1h-9.8l1.45,1.9c12-52.24,21.81-105,29.81-157.94a1.52,1.52,0,0,0-1.44-1.9H115.11a1.52,1.52,0,0,0-1.5,1.5v17.43l1.5-1.5h-3.18l1.5,1.5V177a1.52,1.52,0,0,0-1.5-1.5h-1.6l1.5,1.5V157.09l-1.1,1.45,56.83-16a1.55,1.55,0,0,0,1.1-1.45q1.78-13.31,3.44-26.64a1.52,1.52,0,0,0-1.5-1.5H140.1a1.52,1.52,0,0,0-1.5,1.5v17.4l1.5-1.5h-3.19l1.5,1.5v-17.4a1.52,1.52,0,0,0-1.5-1.5h-1.6l1.5,1.5V97.34l-1.1,1.45,38.56-10.66a1.56,1.56,0,0,0,1.1-1.44q2.25-20.64,4.16-41.32l-1.5,1.5h25.22l-1.5-1.5q1.94,20.63,4.15,41.2A1.57,1.57,0,0,0,207,88l38.57,10.77-1.1-1.45v17.1l1.5-1.5h-1.6a1.52,1.52,0,0,0-1.5,1.5v17.4l1.5-1.5h-3.19l1.5,1.5v-17.4a1.52,1.52,0,0,0-1.5-1.5h-30.5a1.51,1.51,0,0,0-1.5,1.5q1.63,13.34,3.44,26.64a1.57,1.57,0,0,0,1.1,1.45l56.83,16A1.5,1.5,0,0,0,271.35,155.65Z"/><path d="M218.22,223.23,196.06,199.3v2.12l15.57-16.65-2.5-.66q3.12,20.32,6.58,40.58c.33,1.9,3.22,1.09,2.9-.8q-3.48-20.25-6.59-40.58a1.51,1.51,0,0,0-2.51-.66L193.94,199.3a1.53,1.53,0,0,0,0,2.12l22.16,23.93C217.42,226.77,219.53,224.65,218.22,223.23Z"/><path d="M200.3,106.57H181l1.5,1.5c.65-5.43,1.33-10.85,1.94-16.28l-1.5,1.5h15.44l-1.5-1.5c.61,5.43,1.29,10.85,1.94,16.28.23,1.89,3.23,1.91,3,0-.65-5.43-1.33-10.85-1.94-16.28a1.53,1.53,0,0,0-1.5-1.5H182.92a1.54,1.54,0,0,0-1.5,1.5c-.61,5.43-1.29,10.85-1.94,16.28a1.52,1.52,0,0,0,1.5,1.5H200.3A1.5,1.5,0,0,0,200.3,106.57Z"/><path d="M199.56,114.44l.1.82,2.25-1.29-.66-.4a1.53,1.53,0,0,0-2.05.54l-9.85,16.65h2.59l-9.86-16.65a1.53,1.53,0,0,0-2.05-.54l-.66.4,2.25,1.29.1-.82-1.5,1.5h20.84a1.5,1.5,0,0,0,0-3H180.22a1.55,1.55,0,0,0-1.5,1.5l-.1.82c-.14,1.17,1.37,1.82,2.26,1.3l.66-.4-2-.54,9.86,16.66a1.52,1.52,0,0,0,2.59,0l9.85-16.66-2,.54.66.4c.89.52,2.4-.13,2.26-1.3l-.1-.82C202.33,112.55,199.33,112.53,199.56,114.44Z"/><path d="M165.61,241.1h50.06l-.75-2.79-12.12,9.06L194,254a32.43,32.43,0,0,0-2.76,2.06c-.54.5-1.93.95-.55.95s.13-.29-.36-.81a23.45,23.45,0,0,0-2.94-2.2l-8.46-6.32-12.52-9.36c-1.54-1.16-3,1.45-1.51,2.59l25,18.72a1.48,1.48,0,0,0,1.52,0l25-18.72a1.52,1.52,0,0,0-.76-2.8H165.61A1.5,1.5,0,0,0,165.61,241.1Z"/><path d="M165.59,234.29,191.7,206.1h-2.12l26.11,28.19,1.06-2.56H164.53a1.5,1.5,0,0,0,0,3h52.22a1.52,1.52,0,0,0,1.06-2.56L191.7,204a1.51,1.51,0,0,0-2.12,0l-26.11,28.19C162.16,233.58,164.28,235.71,165.59,234.29Z"/><path d="M189.58,194.6h2.11L174.24,176l-1.06,2.56H208.1L207,176l-17.45,18.65h2.11c-1.33-1.4-3.45.72-2.12,2.12h0a1.51,1.51,0,0,0,2.12,0l17.45-18.65a1.52,1.52,0,0,0-1.06-2.56H173.18a1.52,1.52,0,0,0-1.06,2.56l17.45,18.65a1.51,1.51,0,0,0,2.12,0h0C193,195.3,190.89,193.18,189.58,194.6Z"/><path d="M191.94,144.8l.08-.15h-2.59l16.9,26.76,1.29-2.26h-34l1.29,2.26,16.9-26.76h-2.59l.09.15a1.5,1.5,0,0,0,2.59-1.51l-.09-.15a1.51,1.51,0,0,0-2.59,0l-16.9,26.75a1.52,1.52,0,0,0,1.3,2.26h34a1.52,1.52,0,0,0,1.3-2.26L192,143.14a1.51,1.51,0,0,0-2.59,0l-.08.15A1.5,1.5,0,0,0,191.94,144.8Z"/><path d="M195.67,138.49l7.87-13.31-2.79-.76q2.1,16.58,4.44,33.12l2.74-1.16L195.67,137c-1-1.63-3.62-.12-2.59,1.52l12.26,19.41a1.51,1.51,0,0,0,2.74-1.16q-2.27-16.14-4.33-32.32a1.52,1.52,0,0,0-2.8-.75L193.08,137A1.5,1.5,0,0,0,195.67,138.49Z"/><path d="M177.74,125.18l5.38,9.1c.7,1.18,1.35,3,2.33,3.94-.76-.73.85-1.74-.8.27-4.37,5.32-7.62,12.06-11.3,17.89l2.74,1.16q2.32-16.54,4.44-33.12c.24-1.91-2.76-1.89-3,0q-2,16.19-4.33,32.32a1.51,1.51,0,0,0,2.74,1.16l12.26-19.41a1.5,1.5,0,0,0,0-1.52l-7.87-13.3A1.5,1.5,0,0,0,177.74,125.18Z"/><path d="M169.65,184.77l15.57,16.65V199.3l-22.16,23.93,2.51,1.46q3.48-20.26,6.58-40.58c.29-1.89-2.6-2.7-2.89-.8q-3.12,20.33-6.59,40.58c-.23,1.37,1.4,2.66,2.51,1.46l22.17-23.93a1.54,1.54,0,0,0,0-2.12l-15.58-16.65C170.45,181.24,168.33,183.36,169.65,184.77Z"/><path d="M159.88,245.15l24.67,18.44V261l-32.93,24.42,2.2,1.7q4.35-21.4,8.27-42.87c.34-1.89-2.55-2.7-2.89-.8q-3.93,21.48-8.27,42.87c-.23,1.14,1.06,2.54,2.21,1.69l32.92-24.42a1.53,1.53,0,0,0,0-2.59L161.4,242.56C159.85,241.4,158.35,244,159.88,245.15Z"/><path d="M189.88,267.57h0a1.46,1.46,0,0,0,1.52,0c-1.19.84-1.47-.69-1,.37.13.3,1,.75,1.25.93l4.31,3.2,13.83,10.26L229.7,297.1l.75-2.79H150.83l.75,2.79,39.81-29.53c1.53-1.14,0-3.74-1.51-2.59l-39.81,29.53a1.52,1.52,0,0,0,.76,2.8h79.62a1.52,1.52,0,0,0,.76-2.8L191.41,265a1.46,1.46,0,0,0-1.52,0h1.5C189.84,263.83,188.34,266.44,189.88,267.57Z"/><path d="M196.73,263.59l24.67-18.44-2.21-.9q3.92,21.48,8.27,42.87l2.2-1.7L196.73,261c-1.55-1.15-3,1.45-1.51,2.59L228.14,288c1.15.85,2.44-.55,2.21-1.69q-4.35-21.39-8.27-42.87a1.5,1.5,0,0,0-2.2-.89L195.22,261C193.69,262.14,195.19,264.74,196.73,263.59Z"/><path d="M232.41,152.1l-15.64,14.59,2.51.66q-1.44-9.89-2.8-19.78l-1.84,1.84,18.44,5.2a1.5,1.5,0,0,0,.79-2.9l-18.43-5.19c-1.22-.34-2,.76-1.85,1.85q1.36,9.88,2.8,19.78c.17,1.18,1.77,1.35,2.5.66l15.65-14.59C236,152.9,233.83,150.78,232.41,152.1Z"/><path d="M238.11,157.11l11,14.3,1.29-2.26H224.08l1.06,2.56,15.32-14.29c1.42-1.32-.71-3.44-2.12-2.13L223,169.59a1.51,1.51,0,0,0,1.06,2.56h26.28c1,0,2-1.32,1.3-2.26l-11-14.29C239.54,154.09,236.93,155.58,238.11,157.11Z"/><path d="M215.38,109.13l7.8-8.9-2.36-.3,6.45,8.9,1.3-2.26H214.32a1.5,1.5,0,0,0,0,3h14.25a1.51,1.51,0,0,0,1.29-2.26l-6.45-8.9a1.52,1.52,0,0,0-2.35-.3l-7.8,8.9C212,108.45,214.11,110.58,215.38,109.13Z"/><path d="M239.59,106.57h-3.15l1.29.74-6.14-8.48L229.9,101l9.29,2.6-1.1-1.45v5.89a1.5,1.5,0,0,0,3,0v-5.89a1.52,1.52,0,0,0-1.1-1.44l-9.29-2.6c-1.18-.33-2.49,1.11-1.7,2.21l4.8,6.62a8.61,8.61,0,0,0,1.88,2.39c1,.59,2.82.21,3.91.21A1.5,1.5,0,0,0,239.59,106.57Z"/><path d="M215.56,94.71l-7.17,8.19L211,104c-.42-3.51-.84-7-1.24-10.54l-1.9,1.45,8.41,2.35a1.51,1.51,0,0,0,.8-2.9L208.61,92a1.51,1.51,0,0,0-1.9,1.45c.4,3.52.82,7,1.24,10.54.13,1.16,1.61,2.14,2.56,1.06l7.17-8.19C219,95.38,216.84,93.25,215.56,94.71Z"/><path d="M193,54.94q1.47,15.28,3.16,30.56l1.5-1.5-14.11-.06,1.5,1.5c1.1-10.16,2.17-20.33,3.15-30.5l-1.5,1.5h7.8a1.5,1.5,0,0,0,0-3h-7.8a1.54,1.54,0,0,0-1.5,1.5c-1,10.17-2.05,20.34-3.15,30.5a1.52,1.52,0,0,0,1.5,1.5L197.7,87a1.5,1.5,0,0,0,1.5-1.5Q197.54,70.23,196,54.94C195.86,53,192.86,53,193,54.94Z"/><path d="M172.89,102.9l-7.17-8.19-.66,2.51,8.41-2.35-1.9-1.45c-.4,3.52-.82,7-1.24,10.54-.22,1.91,2.78,1.9,3,0,.42-3.51.84-7,1.24-10.54a1.51,1.51,0,0,0-1.9-1.45l-8.41,2.35a1.52,1.52,0,0,0-.66,2.51l7.17,8.19C172.05,106.47,174.16,104.35,172.89,102.9Z"/><path d="M167,106.57H152.71l1.3,2.26,6.45-8.9-2.36.3,7.8,8.9c1.27,1.45,3.38-.68,2.12-2.12l-7.8-8.9a1.52,1.52,0,0,0-2.35.3l-6.45,8.9a1.51,1.51,0,0,0,1.29,2.26H167A1.5,1.5,0,0,0,167,106.57Z"/><path d="M142.09,103.63l9.29-2.6-1.69-2.2-6.14,8.48,1.29-.74h-3.15l1.5,1.5v-5.89a1.5,1.5,0,0,0-3,0v5.89a1.52,1.52,0,0,0,1.5,1.5c1.09,0,2.91.37,3.91-.21a8.61,8.61,0,0,0,1.88-2.39l4.8-6.62c.79-1.1-.52-2.54-1.7-2.21l-9.29,2.6A1.5,1.5,0,0,0,142.09,103.63Z"/><path d="M164.51,166.69,148.87,152.1l-.67,2.51,18.44-5.2-1.84-1.84q-1.37,9.9-2.8,19.78c-.28,1.89,2.61,2.71,2.89.8q1.44-9.89,2.8-19.78c.15-1.09-.63-2.19-1.85-1.85l-18.43,5.19a1.52,1.52,0,0,0-.67,2.51l15.65,14.59C163.8,170.13,165.92,168,164.51,166.69Z"/><path d="M157.2,169.15H130.92l1.29,2.26,11-14.3-2.35.31,15.32,14.29c1.41,1.31,3.54-.8,2.12-2.12l-15.32-14.3a1.53,1.53,0,0,0-2.36.31l-11,14.29c-.72.94.27,2.26,1.3,2.26H157.2A1.5,1.5,0,0,0,157.2,169.15Z"/><path d="M117.11,163.37l16.41-4.63-1.69-2.2-10.24,13.35,1.29-.74h-6.17l1.5,1.5v-8.73a1.5,1.5,0,0,0-3,0v8.73a1.52,1.52,0,0,0,1.5,1.5c1.84,0,4.4.47,6.17,0,1.39-.37,2.12-1.82,3-2.93l8.57-11.17c.83-1.08-.54-2.52-1.7-2.2l-16.41,4.62A1.51,1.51,0,0,0,117.11,163.37Z"/><path d="M264.57,169.15H258.4l1.29.74-10.24-13.35-1.69,2.2,16.41,4.63-1.1-1.45v8.73a1.5,1.5,0,0,0,3,0v-8.73a1.53,1.53,0,0,0-1.1-1.45l-16.41-4.62c-1.15-.32-2.53,1.12-1.7,2.2l8.57,11.17c.86,1.12,1.57,2.56,3,2.93,1.78.47,4.33,0,6.17,0A1.5,1.5,0,0,0,264.57,169.15Z"/><path class="cls-4" d="M144,121.78H133a2.39,2.39,0,1,1,0-4.78H144a2.39,2.39,0,1,1,0,4.78Z"/><path d="M144,120.28h-9.22c-1.14,0-1.8.42-1.8-.89s.65-.89,1.8-.89h7.37a3.66,3.66,0,0,1,1.19,0h.48c.72,0,.65.57-.22,1.83-1.9.31-1.1,3.2.8,2.9,5.09-.83,4.05-7.47-.78-7.73a62.86,62.86,0,0,0-10.89,0c-5.11.66-4.48,7.44.48,7.76,3.56.23,7.21,0,10.79,0A1.5,1.5,0,0,0,144,120.28Z"/><path class="cls-4" d="M248.31,121.78H237.24a2.39,2.39,0,0,1,0-4.78h11.07a2.39,2.39,0,0,1,0,4.78Z"/><path d="M248.31,120.28h-9.22c-1.13,0-1.8.42-1.8-.89s.65-.89,1.8-.89h7.37a3.65,3.65,0,0,1,1.19,0h.49c.71,0,.64.57-.23,1.83-1.9.31-1.09,3.2.8,2.9,5.09-.83,4.06-7.47-.78-7.73a62.86,62.86,0,0,0-10.89,0c-5.1.66-4.48,7.44.48,7.76,3.57.23,7.22,0,10.79,0A1.5,1.5,0,0,0,248.31,120.28Z"/><path class="cls-4" d="M144,128.88H133a2.4,2.4,0,0,1,0-4.79H144a2.4,2.4,0,0,1,0,4.79Z"/><path d="M144,127.38h-9.22c-1.14,0-1.8.41-1.8-.89s.65-.9,1.8-.9h7.37a4,4,0,0,1,1.19,0h.48c.72,0,.65.57-.22,1.84-1.9.31-1.1,3.2.8,2.89,5.09-.82,4.05-7.46-.78-7.73a62.86,62.86,0,0,0-10.89,0c-5.11.66-4.48,7.44.48,7.76,3.56.22,7.21,0,10.79,0A1.5,1.5,0,0,0,144,127.38Z"/><path class="cls-4" d="M248.31,128.88H237.24a2.4,2.4,0,0,1,0-4.79h11.07a2.4,2.4,0,0,1,0,4.79Z"/><path d="M248.31,127.38h-9.22c-1.13,0-1.8.42-1.8-.89s.65-.9,1.8-.9h7.37a4,4,0,0,1,1.19,0h.49c.71,0,.64.57-.23,1.84-1.9.31-1.09,3.2.8,2.89,5.09-.82,4.06-7.46-.78-7.73a62.86,62.86,0,0,0-10.89,0c-5.1.66-4.48,7.44.48,7.76,3.57.22,7.22,0,10.79,0A1.5,1.5,0,0,0,248.31,127.38Z"/><path class="cls-4" d="M119.05,184H108a2.4,2.4,0,0,1,0-4.79h11.06a2.4,2.4,0,0,1,0,4.79Z"/><path d="M119.05,182.49h-9.22c-1.13,0-1.8.41-1.8-.9s.66-.89,1.8-.89h7.38a4,4,0,0,1,1.19,0h.48c.72,0,.64.57-.23,1.84-1.9.31-1.09,3.2.8,2.89,5.09-.82,4.06-7.46-.78-7.73a62.74,62.74,0,0,0-10.88,0c-5.11.66-4.49,7.44.47,7.76,3.57.22,7.22,0,10.79,0A1.5,1.5,0,0,0,119.05,182.49Z"/><path class="cls-4" d="M273.29,184H262.23a2.4,2.4,0,0,1,0-4.79h11.06a2.4,2.4,0,0,1,0,4.79Z"/><path d="M273.29,182.49h-9.22c-1.13,0-1.8.41-1.8-.9s.66-.89,1.8-.89h7.38a4,4,0,0,1,1.19,0h.48c.72,0,.64.57-.22,1.84-1.91.31-1.1,3.2.79,2.89,5.09-.82,4.06-7.46-.78-7.73a62.74,62.74,0,0,0-10.88,0c-5.11.66-4.49,7.44.47,7.76,3.57.22,7.22,0,10.79,0A1.5,1.5,0,0,0,273.29,182.49Z"/><path class="cls-4" d="M119.05,191.08H108a2.39,2.39,0,1,1,0-4.78h11.06a2.39,2.39,0,1,1,0,4.78Z"/><path d="M119.05,189.58h-9.22c-1.13,0-1.8.42-1.8-.89s.66-.89,1.8-.89h7.38a4,4,0,0,1,1.19,0h.48c.72,0,.64.57-.23,1.84-1.9.3-1.09,3.19.8,2.89,5.09-.82,4.06-7.46-.78-7.73a61.77,61.77,0,0,0-10.88,0c-5.11.65-4.49,7.44.47,7.75,3.57.23,7.22,0,10.79,0A1.5,1.5,0,0,0,119.05,189.58Z"/><path class="cls-4" d="M273.29,191.08H262.23a2.39,2.39,0,0,1,0-4.78h11.06a2.39,2.39,0,1,1,0,4.78Z"/><path d="M273.29,189.58h-9.22c-1.13,0-1.8.42-1.8-.89s.66-.89,1.8-.89h7.38a4,4,0,0,1,1.19,0h.48c.72,0,.64.57-.22,1.84-1.91.3-1.1,3.19.79,2.89,5.09-.82,4.06-7.46-.78-7.73a61.77,61.77,0,0,0-10.88,0c-5.11.65-4.49,7.44.47,7.75,3.57.23,7.22,0,10.79,0A1.5,1.5,0,0,0,273.29,189.58Z"/><path d="M242.32,132.65c26.45,8.81,58.2-.45,79.85-16.27C335.26,106.81,346,94.55,355,81.15c1.09-1.6-1.51-3.1-2.59-1.51-14.33,21.26-33.64,39.74-58.31,48.1a90,90,0,0,1-43,3.82,50.61,50.61,0,0,1-8-1.8c-1.84-.62-2.62,2.28-.8,2.89Z"/><path d="M269.46,195.69c7.26,5.14,16.44,8.28,25,10.22,20.31,4.61,41,1.5,60-6.72,1.76-.76.24-3.35-1.52-2.59-25,10.83-58.57,13.07-82-3.5-1.58-1.12-3.08,1.48-1.52,2.59Z"/><path d="M137.32,129.76C112.45,138,82.63,129.7,61.9,115.3c-13.59-9.45-24.67-22-33.89-35.66-1.07-1.59-3.67-.09-2.59,1.51C39.83,102.52,59,121,83.54,129.93a93.44,93.44,0,0,0,45.59,4.68,54.19,54.19,0,0,0,9-2c1.82-.61,1-3.51-.8-2.89Z"/><path d="M109.46,193.1c-23.41,16.57-57,14.33-82,3.5-1.76-.76-3.29,1.83-1.52,2.59,19,8.22,39.69,11.33,60,6.72,8.57-1.94,17.76-5.08,25-10.22,1.56-1.1.06-3.71-1.52-2.59Z"/></g></svg>