<svg xmlns="http://www.w3.org/2000/svg" viewBox="0 0 381.28 380.33"><defs><style>.cls-1{fill:#7dc4ca;}.cls-2{fill:#b1dcdf;}.cls-3{fill:#f7c402;}.cls-4{fill:#f8dad4;}.cls-5{fill:#e1262f;}.cls-6{fill:#ed7d82;}.cls-7{fill:#fadc67;}</style></defs><title>Recarga limón mapa conceptual</title><g id="gráficos"><rect class="cls-1" x="4.14" y="3.67" width="373" height="373" rx="23.02" ry="23.02"/><path d="M354.12,375.17H33.62c-7.27,0-14.13.11-20.23-5-7.09-5.91-7.75-13.81-7.75-22.12V63.81c0-12.34-.38-24.75,0-37.09C6.06,13,17,5.17,29.81,5.17h278.9c14.84,0,29.68-.14,44.51,0,12.75.11,22.3,9.5,22.42,22.3,0,4.81,0,9.62,0,14.43V350.79c0,12.86-7.62,24-21.52,24.38-1.93.05-1.93,3.05,0,3,14.41-.44,24.44-11.7,24.52-25.81,0-5.5,0-11,0-16.51V71.73c0-14.8.15-29.62,0-44.42A24.94,24.94,0,0,0,354,2.17c-4-.09-8,0-12.06,0H29.62c-11.38,0-21.84,5.32-25.7,16.72C2.25,23.8,2.64,29.14,2.64,34.26v314.1c0,7.21.37,14,5,20.15,5.85,7.69,14.43,9.66,23.46,9.66h323A1.5,1.5,0,0,0,354.12,375.17Z"/><rect class="cls-2" x="27.63" y="27.15" width="326.03" height="326.03" rx="23.02" ry="23.02"/><path d="M330.64,351.68H74.24c-12,0-30.23,2.95-39.27-6.77-8.71-9.38-5.84-27.12-5.84-38.94V152.58c0-34.08-1.06-68.34,0-102.41.41-13.42,11-21.52,23.74-21.52H293.44c12.23,0,24.5-.3,36.73,0,12.51.31,21.85,9.62,22,22.19.05,4.16,0,8.32,0,12.48V328.13c0,12.66-8.23,23.15-21.51,23.55-1.93.06-1.94,3.06,0,3,14-.42,24.37-11.28,24.51-25.19.05-4.31,0-8.63,0-12.94v-227c0-12.94.25-25.89,0-38.82-.26-13.81-10.57-24.68-24.52-25-3-.08-6,0-8.95,0h-269c-9.9,0-19.11,4.13-23.83,13.3-2.72,5.29-2.71,10.73-2.71,16.43V325.53c0,6.4.33,12.5,4,18.12,5.26,8,13.78,11,22.9,11H330.64A1.5,1.5,0,0,0,330.64,351.68Z"/><circle class="cls-3" cx="186.92" cy="190.17" r="35.2"/><path d="M220.62,190.17c-.27,14.05-8.83,26.9-22.22,31.71a33.71,33.71,0,1,1-5.11-64.81c15.91,3,27,17.16,27.33,33.1,0,1.93,3,1.94,3,0a36.7,36.7,0,1,0-29.53,36c17.2-3.35,29.2-18.73,29.53-36C223.66,188.24,220.66,188.24,220.62,190.17Z"/><path class="cls-4" d="M310.18,220.37c-9.09-18.18-23.45-33.69-38.46-47.14a321.26,321.26,0,0,0-65.76-45c-23.45-12.23-48.6-22.2-74.67-27.1-19.68-3.71-44.92-6.07-62.06,6.57-15.3,11.27-14.74,30.65-8,46.7,9.63,23,28.4,42.16,47.17,58a326.65,326.65,0,0,0,81.37,50c24.89,10.7,51.93,19.23,79.26,19.41,17.62-.16,39.05-4.55,46.21-22.95C320.17,246.23,316,232,310.18,220.37ZM293.93,267.9c-17,7.93-39,4.48-56.61.47-46-10.5-90.53-35-125.95-65.91-17.81-15.55-37.26-35.24-43.76-58.63-2.63-9.48-2.3-20,5.49-27,8.37-7.53,21-8.76,31.73-8.84,20.53.14,40.84,5.46,60,12.44a316.17,316.17,0,0,1,65.23,33.06c17.6,11.58,34.24,24.88,48.68,40.27,11,11.72,21.85,25.31,26.88,40.82C309.94,247.86,307.79,261.44,293.93,267.9Z"/><path d="M311.47,219.61c-11-21.52-28.32-39.09-46.75-54.38a331.06,331.06,0,0,0-62.82-40.72c-22.64-11.39-46.6-20.49-71.6-25.05-19.28-3.51-42-5.68-59.39,5.31-16.59,10.48-18.49,30.3-12.16,47.51,8,21.6,24.25,39.55,41.08,54.71,36.74,33.09,82.75,59.28,130.9,71.27,21.6,5.37,48.09,9.21,69-1,9-4.4,15.85-12.09,18.23-21.94,2.95-12.23-1.09-24.76-6.45-35.71-.85-1.74-3.44-.22-2.59,1.51,5.23,10.68,9.24,23.17,5.71,35-2.76,9.24-9.83,15.82-18.55,19.49-18.86,7.93-41.65,5-61,.58-44.94-10.3-88.27-33.8-123.61-63.12-16.84-14-33-29.72-43.85-49-9-16.1-15.63-39.27.37-53.5,15.69-13.94,40.26-12,59.4-8.66,23.11,4,45.36,11.85,66.49,21.93a332.63,332.63,0,0,1,65.27,40.63c19.58,15.75,38.19,34,49.72,56.58C309.76,222.84,312.35,221.33,311.47,219.61Z"/><path d="M293.18,266.6c-18.15,8.06-39.35,4.19-57.92-.25a269.63,269.63,0,0,1-56.47-20.64,310,310,0,0,1-50.27-31.19C113.26,202.92,98.38,190,86.31,175A95.47,95.47,0,0,1,71,149.45c-3.22-8.46-5.58-19-.46-27.26,10.69-17.22,40.44-13.46,57-10.54C169.2,119,209.27,139.48,243,164.33c18.5,13.61,36.33,29.62,49.62,48.48,10.84,15.39,23.21,42.52.53,53.79-1.73.86-.21,3.45,1.51,2.59,16-8,16.68-25.14,10.5-40.11-8.39-20.33-24.92-37.31-41.16-51.66C229.61,147,186.7,123.19,142.11,111.73c-18.8-4.83-42.46-9.12-61.12-1.45-7.69,3.15-13.93,9-15.73,17.33-1.9,8.79.77,17.9,4.23,25.94,8.18,19,23.23,34.38,38.49,47.92a316.89,316.89,0,0,0,52.59,37.91,283.71,283.71,0,0,0,68.15,28.42c21,5.56,45.28,10.58,66,1.39C296.45,268.41,294.93,265.82,293.18,266.6Z"/><path class="cls-4" d="M312,115.22c-11.44-16.47-35.08-17.84-53.19-16.3-25.15,2.13-49.72,10.34-72.65,20.55A334.63,334.63,0,0,0,116,161.64c-17.1,13.41-33.26,28.79-45.39,46.94-8.77,13.13-17,30.13-13.21,46.34,5,21.23,28.5,26.8,47.46,27,24.58-.17,49-7.16,71.62-16.24a332.52,332.52,0,0,0,73.84-41.22c20.08-14.86,39.2-32.19,53.12-53.09C313.77,155.78,324.1,132.71,312,115.22ZM66.22,243.44c1.57-14.73,11-28.45,20.08-39.63,12.6-15.53,27.77-29,43.84-40.83A319.18,319.18,0,0,1,201,123.5c21.54-8.59,44.67-15.34,68-15.5,18.16.13,40.8,6.23,38.61,28.71-2.08,21.29-19,40.41-33.48,54.88-33.42,33.38-77.29,59-122.4,72.71C129.75,271,61.73,285.52,66.22,243.44Z"/><path d="M313.25,114.47c-11-15.14-30.6-18.1-48.13-17.44-25.1.93-49.64,8.39-72.65,18.06a337.93,337.93,0,0,0-65.84,36.71c-19.45,13.93-37.91,29.82-52.36,49-12.36,16.41-26,40.25-16,61,7.45,15.49,26,20.49,41.79,21.41,25,1.45,50.39-5.86,73.42-14.78A333.55,333.55,0,0,0,240.75,233c22-15,43-32.51,59-53.95,13.14-17.54,27.32-43.59,13.49-64.61-1.06-1.61-3.66-.11-2.59,1.51,12.37,18.81.45,42-11,58.13-13.24,18.72-30.5,34.35-48.79,48a333.53,333.53,0,0,1-58.66,35.09C170.35,267.39,147,275.84,123,279.07c-17.51,2.36-39.59,2.94-54.25-8.82C50,255.19,59.37,229,70.07,212.11c12.07-19.08,28.65-35,46.29-48.87a331.83,331.83,0,0,1,59.21-37.19c23.91-11.74,49.51-21.39,76-24.85,19.75-2.59,46-3.2,59.05,14.78C311.78,117.53,314.39,116,313.25,114.47Z"/><path d="M67.72,243.44c1.56-12.34,8-23.28,15.34-33.08A200.77,200.77,0,0,1,108,183.07,302.06,302.06,0,0,1,167.44,141c21.68-11.85,45-21.73,69.08-27.36,18.25-4.26,43.7-8.56,60.52,2.82,19.29,13,4.27,40.4-6.16,54.19-13.81,18.28-31.71,34.06-50.15,47.51-31.15,22.72-67.52,40.78-105.4,48.81-21.38,4.54-70.91,11.82-67.61-23.49.18-1.92-2.83-1.91-3,0-3,32.29,35.57,31.93,57.91,28.78,39.23-5.54,77.17-22.8,109.86-44.69,20.24-13.56,39.2-29.59,55.09-48.1,7.37-8.59,14.09-18,18.15-28.64,3.3-8.63,5.44-19.17,1.13-27.84-7.8-15.66-30.05-17.15-45.21-16.18-26.54,1.69-52.36,10.79-76.34,21.85a313.58,313.58,0,0,0-74.17,47.62A212.37,212.37,0,0,0,82,206.87c-8.34,10.84-15.51,22.78-17.25,36.57C64.47,245.35,67.48,245.33,67.72,243.44Z"/><path class="cls-4" d="M249,159.12c-2.55-28.17-8.23-57.37-21.68-82.53-8.2-15.32-21.42-32-40.38-32.27-16.29.24-28.47,12.82-36.6,25.76-13.18,21-19.56,46.17-23.21,70.41a335.47,335.47,0,0,0-1,91.78c3.15,24.9,8.93,50.45,21.1,72.62,7.42,13.51,18.83,28.21,35.07,30.76,15.5,2.43,28.54-7.8,37.3-19.54,13.77-18.46,20.73-41.88,25.11-64.17A329.08,329.08,0,0,0,249,159.12ZM186.92,326.49c-20.28-.38-32.12-25.83-38.28-41.77-11.29-29.23-15.3-61.17-15.6-92.35,0,0,0-.09,0-.13a282.61,282.61,0,0,1,9.5-77.94c4.91-18,11.93-37.75,25.41-51.19,9.92-9.89,22.84-12.32,34.25-3.3,13.86,11,21.35,29.66,26.57,46,8.83,27.61,12.62,57.52,12,86.47a1.08,1.08,0,0,0,0,.31c-.31,31.1-4.3,63-15.6,92.17C219,300.65,207.21,326.11,186.92,326.49Z"/><path d="M250.48,159.12c-2.22-24-6.43-48-15.75-70.3-7.11-17-17.92-36.78-36.19-43.76C179.33,37.73,162,50.49,151.42,65.7c-13.5,19.36-20.27,42.93-24.37,65.9a335,335,0,0,0-4.59,77.77c1.42,24.72,5,49.9,13.27,73.33,6.53,18.57,16.66,40.52,34.77,50.44,18.49,10.13,37.29.43,49.21-14.8,15.73-20.12,22.81-45.95,27.26-70.67a334.68,334.68,0,0,0,3.51-88.55c-.17-1.91-3.17-1.93-3,0a341.23,341.23,0,0,1-.91,71.23c-2.75,22.46-7.47,45.56-17.16,66.14-8,17-22.6,39.17-44.11,38-20.91-1.16-33.87-22.83-41.58-39.81-9.57-21.08-14.16-44.24-16.73-67.14a336.22,336.22,0,0,1-.31-71.83c2.29-22.11,6.42-44.53,14.88-65.18,7.23-17.62,19.44-39.89,39.84-44.1,23.85-4.92,40,20.4,48.48,38.76,10.66,23.19,15.26,48.7,17.6,74C247.66,161,250.66,161,250.48,159.12Z"/><path d="M186.92,325c-16.65-.73-26.5-17.45-32.74-30.94-8.44-18.25-13.52-38.07-16.43-57.92-6.35-43.2-4.18-88.75,8.9-130.52a129.16,129.16,0,0,1,11.53-27.18c5-8.59,12.06-18.06,21.85-21.46,21.46-7.48,36,19.5,42.47,35.6,15.89,39.59,19.16,83.52,15.64,125.7-2,24-6.8,47.84-16,70.12-6.24,15.11-16.48,35.77-35.21,36.6-1.92.09-1.93,3.09,0,3,16.3-.72,26.68-15.14,33.42-28.47,9.69-19.17,15.32-40.43,18.51-61.58,7-46.47,4.69-95.94-11.27-140.39-5.83-16.24-15.75-38.82-34.1-44-20.08-5.62-34.71,15.73-42,31.19-9.5,20-14.5,42.56-17.38,64.42a323.09,323.09,0,0,0-1,72.63c2.35,24.7,7.65,49.33,17.8,72.06,6.75,15.11,17.59,33.28,36.09,34.1C188.85,328.08,188.85,325.08,186.92,325Z"/><path class="cls-5" d="M166.72,74.2a13.29,13.29,0,1,1-13.29-13.29A13.29,13.29,0,0,1,166.72,74.2Z"/><path d="M165.22,74.2c-.76,15-23.58,15.29-23.58,0s22.82-15.06,23.58,0c.1,1.92,3.1,1.93,3,0-.4-8-6.44-14.79-14.79-14.79a14.79,14.79,0,0,0,0,29.58c8.35,0,14.39-6.76,14.79-14.79C168.32,72.27,165.32,72.27,165.22,74.2Z"/><path class="cls-6" d="M324.88,126.31a16,16,0,1,1-16-16A16,16,0,0,1,324.88,126.31Z"/><path d="M323.38,126.31c-.34,7.94-6.35,14.4-14.49,14.49a14.49,14.49,0,0,1,0-29c8.16,0,14.15,6.6,14.49,14.48.08,1.93,3.08,1.94,3,0-.41-9.53-7.67-17.44-17.49-17.48a17.49,17.49,0,0,0,0,35c9.82,0,17.08-8,17.49-17.49C326.46,124.38,323.46,124.39,323.38,126.31Z"/><path class="cls-7" d="M120.73,204.88a11.59,11.59,0,1,1-11.59-11.59A11.59,11.59,0,0,1,120.73,204.88Z"/><path d="M119.23,204.88c-.69,12.92-20.18,13-20.18,0s19.49-12.93,20.18,0c.11,1.92,3.11,1.93,3,0-.38-7.1-5.68-13.09-13.09-13.09a13.08,13.08,0,0,0-.63,26.15c7.66.36,13.33-5.7,13.72-13.06C122.34,203,119.34,203,119.23,204.88Z"/></g></svg>