<?xml version="1.0" encoding="utf-8"?>
<!-- Generator: Adobe Illustrator 24.2.0, SVG Export Plug-In . SVG Version: 6.00 Build 0)  -->
<svg version="1.1" id="Layer_1" xmlns="http://www.w3.org/2000/svg" xmlns:xlink="http://www.w3.org/1999/xlink" x="0px" y="0px"
	 viewBox="0 0 143 144" style="enable-background:new 0 0 143 144;" xml:space="preserve">
<style type="text/css">
	.st0{fill:#F0A4A5;}
	.st1{fill:#4384C4;}
	.st2{fill:#FFFFFF;}
	.st3{fill:#45B5BE;}
	.st4{fill:#2F5454;}
	.st5{fill:#E2252E;}
	.st6{fill:#F8C508;}
	.st7{fill:#7EC5CB;}
	.st8{fill:#E66869;}
	.st9{fill:#E1262F;}
	.st10{fill:#F7C402;}
	.st11{fill:#C2E1E3;}
</style>
<g id="Capa_14">
	<path class="st0" d="M18.9,6h107.1c6.9,0,12.4,5.6,12.4,12.4v107.1c0,6.9-5.6,12.4-12.4,12.4H18.9c-6.9,0-12.4-5.6-12.4-12.4V18.4
		C6.5,11.6,12.1,6,18.9,6z"/>
</g>
<g id="Capa_16">
	<path class="st1" d="M73.8,35.1c-1,8.1-1.2,12.9-2.1,19.4c-0.7,4.8-1.7,9.5-3.1,14.1c-0.1,0.5-0.3,0.9-0.6,1.2
		c-0.7,0.5-1.8,0.2-2.5,0.7c-0.5,0.4-0.7,1.1-0.7,1.7l-1.4,11c-0.3,2-0.4,4.3,0.9,5.8c1,1.2,2.7,1.7,4.3,2c6.6,1.4,13.5,1.4,20.3,2
		c6.6,0.5,13.1,1.4,19.7,2.3c2.2,0.3,4.3-0.7,6.5-1.2c0.6-0.1,1.1-0.3,1.5-0.7c0.6-0.7,0.9-1.5,0.9-2.4c0.5-4.3,1.5-8.6,1.8-12.9
		c0.1-1.5,1-1.8,0.2-3.1c-0.9-1.1-1.8-2.2-2.8-3.3c-0.5-0.9,0.1-4.6,0.1-5.6c0.3-9.7,0.7-17.2,1-26.9c0.1-1.7-0.2-3.4,1.4-3.9
		c0.7-0.2,0.6-0.1,1.2-0.5c0.5-0.5,0.7-1.1,0.6-1.8c0.1-3.5,0.2-6.9,0.2-10.4c0-0.4,0-0.8-0.3-1.2c-0.3-0.3-0.6-0.4-1-0.5
		c-15.2-3.8-28.9-4.3-44.6-2.7c-0.7,0-1.4,0.2-1.9,0.7c-0.3,0.4-0.4,1-0.4,1.5c-0.1,1.9-0.6,3.4-0.7,5.3c-0.1,1.7-0.5,3.5-0.7,5.2
		C71.6,32.7,73,33.9,73.8,35.1z"/>
	<path d="M73.3,35.1c-1,8.5-1.3,17.2-3.1,25.5c-0.5,2.3-1.1,4.7-1.7,7c-0.2,0.8-0.4,1.6-1.2,2c-0.4,0.1-0.9,0.2-1.3,0.2
		c-0.6,0.1-1,0.5-1.3,1c-0.3,0.8-0.4,1.6-0.5,2.4l-0.5,3.9c-0.3,2.5-0.7,5-0.9,7.5c-0.1,1.7,0.1,3.6,1.3,4.9c1.2,1.3,3,1.7,4.7,2
		c4.7,0.9,9.5,1.4,14.3,1.5c4.9,0.3,9.9,0.7,14.8,1.3c2.5,0.3,4.9,0.6,7.4,1c2.4,0.3,4.5,0.7,6.9,0.1c1.1-0.3,2.1-0.6,3.2-0.9
		c0.7-0.1,1.3-0.5,1.8-1c1-1.3,0.9-3.5,1.1-5c0.4-2.5,0.8-5,1.2-7.5c0.1-1.2,0.2-2.4,0.5-3.5c0.2-0.5,0.3-1,0.3-1.6
		c-0.1-1.1-1.2-2.1-2-2.9c-0.4-0.4-0.7-0.8-1.1-1.2c-0.2-0.5-0.3-1.1-0.2-1.6c0-1.5,0.3-3,0.3-4.4c0.1-2.4,0.2-4.8,0.3-7.1
		c0.2-4.6,0.4-9.2,0.6-13.8c0.1-2.3,0.1-4.6,0.2-6.9c0-0.4,0.1-0.8,0.2-1.2c0.3-0.6,0.9-0.7,1.5-1c0.5-0.2,0.8-0.5,1.1-0.9
		c0.3-0.7,0.5-1.4,0.4-2.2c0-1.3,0.1-2.5,0.1-3.8s0.1-2.5,0.1-3.8c0-1,0.2-2.2-0.1-3.1c-0.5-1.5-3.2-1.6-4.5-1.9
		c-2.1-0.5-4.1-0.9-6.2-1.2c-8.8-1.4-17.7-1.9-26.7-1.5c-2.1,0.1-4.3,0.3-6.4,0.4c-1.5,0.1-4.1-0.1-4.9,1.5
		c-0.3,0.7-0.4,1.4-0.3,2.1c-0.1,1.1-0.4,2.2-0.5,3.3c-0.1,1.1-0.2,2.1-0.3,3.1c-0.2,1.2-0.4,2.3-0.5,3.5c0,1.7,1.2,2.9,2.1,4.1
		c0.3,0.4,1-0.1,0.6-0.6c-0.6-0.7-1.1-1.5-1.6-2.4c-0.5-1.1-0.2-2.2,0-3.3c0.3-2.1,0.5-4.1,0.8-6.2c0.1-0.9,0.2-1.9,0.3-2.8
		c0.5-1.7,2.1-1.5,3.5-1.6c2.3-0.2,4.6-0.4,7-0.5c8.1-0.4,16.2-0.1,24.2,1c2,0.3,3.9,0.6,5.8,1c1.1,0.2,2.2,0.5,3.3,0.7
		c1.3,0.3,3.1,0.3,3.5,1.8c0.2,1,0,2.3,0,3.3c0,1,0,2.2-0.1,3.3s-0.1,2.2-0.1,3.3c-0.1,1.3-0.2,2-1.5,2.5c-0.9,0.3-1.6,1.1-1.7,2.1
		c-0.3,1.9-0.2,4.1-0.2,6c-0.2,4.2-0.3,8.4-0.5,12.6c-0.2,3.9-0.1,7.8-0.5,11.6c-0.2,1.2-0.2,2.5-0.2,3.7c0.1,0.7,0.4,1.4,1,1.9
		c0.7,0.7,1.4,1.5,2,2.3c0.5,0.9,0,1.5-0.2,2.4c-0.2,1-0.2,2.1-0.4,3.2c-0.3,2.2-0.7,4.3-1,6.5c-0.2,1.1-0.3,2.1-0.5,3.2
		c0,0.5-0.1,1-0.2,1.5c-0.3,1-1,1.3-1.9,1.6c-2,0.6-4.2,1.4-6.4,1.2c-2.4-0.2-4.7-0.7-7.1-1c-4.5-0.6-9.1-1.1-13.6-1.4
		c-4.4-0.3-8.7-0.5-13.1-0.9c-2.2-0.2-4.4-0.5-6.5-1c-2.6-0.6-4.5-2-4.6-5c0-2.4,0.5-4.9,0.8-7.4l0.5-3.9c0.2-1.5,0-3.4,1.7-3.9
		c0.7-0.2,1.3-0.1,1.9-0.7c0.4-0.7,0.7-1.4,0.8-2.2c0.6-2.4,1.3-4.8,1.8-7.2c1.8-8.3,2.1-16.9,3.1-25.2c-0.1-0.2-0.3-0.4-0.5-0.3
		C73.5,34.8,73.4,34.9,73.3,35.1z"/>
	<path class="st2" d="M112.5,89.8c-0.3-10.8,1.6-20.9,1.3-31.7c-0.2-5.8,0.5-13.1,1.1-18.9c0.6-5.4,1.4-8,1.4-10.4
		c0-3.3-0.5-3.7-4.4-4.2c-2.1-0.3-5.4-0.6-7.5-0.6c-8.6-0.3-15.7-1.7-24.3-1c-0.5-0.7-1.7,1.9-2.2,5.1c-2.7,17.7-3.6,34.9-7.5,52.4
		c-0.2,0.7-0.2,1.5,0,2.2l0.1,0.5c0.3,1.3,1.5,3.5,2.8,3.6l9.7,0.6c9.9,0.6,15.7,1.5,27.4,2.9C110.4,90.3,112.5,90.9,112.5,89.8z"/>
	<path d="M112.9,89.8c-0.2-8.5,1-16.9,1.3-25.3c0.1-4-0.1-7.9,0.1-11.9s0.5-7.8,0.9-11.6c0.3-3.3,0.9-6.6,1.4-9.8
		c0.3-1.6,0.7-4.1-0.4-5.6c-1.2-1.6-4.3-1.5-6.1-1.6c-3.7-0.4-7.4-0.5-11.1-0.8c-3.9-0.3-7.8-0.7-11.6-0.8c-1.8,0-3.7,0-5.5,0.1
		c-0.5,0-1.1,0-1.6,0c-0.3,0-0.4-0.1-0.6,0.1c-0.8,0.4-1.1,1.8-1.4,2.6c-0.5,1.8-0.8,3.7-1,5.6c-0.6,4.3-1.1,8.6-1.6,12.9
		c-1,8.4-1.9,16.7-3.2,25c-0.3,2-0.7,3.9-1,5.9c-0.4,2.2-1.2,4.5-1.3,6.8c-0.1,2,0.9,5.2,3.1,5.8c1.6,0.5,3.6,0.3,5.2,0.4l5.3,0.3
		c3.6,0.2,7.2,0.5,10.8,0.9c3.8,0.4,7.7,0.9,11.5,1.4c1.7,0.2,3.5,0.4,5.2,0.7C111.8,90.9,112.7,90.8,112.9,89.8
		c0.1-0.6-0.8-0.6-0.8-0.1c-0.1,0.6-8.2-0.7-9.1-0.8c-2.9-0.4-5.8-0.7-8.7-1c-5.9-0.6-11.9-1-17.8-1.4c-1.2-0.1-3.1,0.2-4.1-0.7
		c-1.1-1.2-1.7-2.8-1.7-4.4c0.1-1.7,0.7-3.5,1-5.2c0.4-1.9,0.7-3.9,1.1-5.9c1.3-7.6,2.2-15.2,3-22.9c0.4-3.8,0.9-7.7,1.4-11.5
		c0.5-3.7,0.6-7.8,2-11.3c0.1-0.5,0.3-1,0.6-1.4c-0.2,0.1,1.4,0.1,0.9,0.1c2-0.1,4-0.2,6-0.1c3.5,0.1,7,0.4,10.4,0.7
		s6.8,0.4,10.1,0.7c1.4,0.1,2.9,0.2,4.3,0.4c1.1,0.1,2.7,0.2,3.6,0.9c1.4,1.1,0.7,4.1,0.5,5.7c-0.5,3-1,5.9-1.3,9
		c-0.4,3.9-0.8,7.9-0.9,11.8c-0.2,4,0.1,8.1-0.1,12.1c-0.3,8.4-1.4,16.9-1.3,25.3C112,90.3,112.9,90.4,112.9,89.8z"/>
	<path class="st3" d="M92.3,48.4L92.3,48.4h-0.2c-8.6,1.4-12.2,13.5-4.6,18.5c3.8,2.5,8.6,2.5,12.4,0.1c3.8-2.4,5.2-7.3,4.4-11.6
		C103.4,50.2,97.3,47.7,92.3,48.4z M94.4,49.5c2,0,3.9,0.6,5.6,1.7c2.5,1.5,3.4,4.1,3.3,6.9c-0.1,5.4-3.9,9.2-9.4,9.5
		c-4.5,0.3-8.9-2.9-9.3-7.5c-0.5-5,2.9-9.5,7.8-10.4c0.1,0,0.3,0,0.4,0C93.3,49.5,93.9,49.5,94.4,49.5z"/>
	<path d="M92.2,48c-1.9,0.4-3.7,1.2-5.2,2.4c-1.5,1.3-2.7,3.1-3.4,5c-1.3,3.8-0.6,8.2,2.5,10.9c4.1,3.5,9.9,3.8,14.4,0.9
		c3.9-2.6,5.4-8.1,4.1-12.5C103.1,49.5,97.1,47.4,92.2,48c-0.6,0.1-0.4,0.9,0.1,0.8c4.1-0.5,8.9,0.9,10.9,4.7s0.7,9.6-2.5,12.4
		c-3.7,3.2-9.6,3.2-13.4,0.3c-3-2.3-4.2-6.2-3.1-9.8c1-4,4.2-7,8.2-7.6C92.9,48.7,92.7,47.9,92.2,48z"/>
	<path d="M94.4,50c2.6,0.1,5.6,1,7.2,3.2c1.5,2.1,1.6,5,1,7.3c-1.2,4.2-5.2,6.9-9.5,6.6c-4.5-0.1-8.1-3.9-8-8.4c0-0.3,0-0.6,0.1-0.9
		C85.8,53.2,89.7,49.8,94.4,50c0.5,0,0.6-0.8,0.1-0.8c-3.8-0.1-7.4,1.9-9.1,5.3c-1.8,3.6-1.5,8.1,1.5,11c3,2.7,7.3,3.4,11,1.7
		c3.5-1.5,5.8-5,5.9-8.8c0.2-2.4-0.6-4.7-2.2-6.4c-1.9-1.8-4.6-2.6-7.1-2.8C93.9,49.1,93.8,49.9,94.4,50z"/>
	<path class="st3" d="M93.5,47.1c-0.3,0.1-0.6,0-0.8-0.2l-0.1-0.1c-0.2-0.1-0.3-0.4-0.3-0.6c0-0.3,0.1-0.5,0.2-0.7
		c0.1-0.1,0.3-0.2,0.5-0.3c0.3,0,0.6,0,0.8,0.2l0.1,0.1c0.2,0.1,0.3,0.4,0.3,0.6c0,0.3-0.1,0.5-0.2,0.7C93.8,47,93.7,47.1,93.5,47.1
		L93.5,47.1z"/>
	<path d="M93.4,46.7c-0.3,0-0.5-0.1-0.6-0.3c-0.1-0.2-0.1-0.5,0.2-0.7c0,0,0.1,0,0.1-0.1C93.7,45.5,94.1,46.5,93.4,46.7
		c-0.5,0.1-0.4,1,0.2,0.8c0.7-0.2,1.2-0.9,1-1.6c0,0,0-0.1,0-0.1c-0.3-0.7-1-1.1-1.7-1c-0.7,0.2-1.2,0.9-1,1.6c0,0,0,0,0,0.1
		c0.2,0.7,1,1.1,1.7,1C94.1,47.5,93.9,46.6,93.4,46.7z"/>
	<path class="st3" d="M98.3,48.1c-0.1,0-0.3,0-0.4,0h-0.1C97.3,48,97,47.5,97.1,47c0.1-0.5,0.6-0.8,1.1-0.7l0,0h0.1
		c0.5,0.1,0.8,0.6,0.7,1.1C99,47.8,98.7,48,98.3,48.1z"/>
	<path d="M98.2,47.7c-0.3,0-0.5-0.1-0.7-0.3c-0.1-0.2,0-0.5,0.2-0.6c0,0,0,0,0,0c0,0,0.1,0,0.1,0C98.6,46.6,99,47.5,98.2,47.7
		c-0.5,0.1-0.4,1,0.2,0.8c0.7-0.1,1.2-0.8,1.1-1.6c0,0,0,0,0,0c0,0,0-0.1,0-0.1c-0.2-0.7-0.9-1.1-1.6-1c-0.7,0.1-1.2,0.8-1.1,1.6
		c0,0,0,0,0,0v0.1c0.2,0.7,0.9,1.1,1.7,1C98.9,48.4,98.8,47.6,98.2,47.7z"/>
	<path class="st3" d="M104.6,52.3c-0.1,0-0.3,0-0.4,0h-0.1c-0.5-0.1-0.8-0.6-0.7-1.1c0.1-0.5,0.6-0.8,1.1-0.7h0.1
		c0.5,0.1,0.8,0.6,0.7,1.1C105.2,51.9,104.9,52.2,104.6,52.3L104.6,52.3z"/>
	<path d="M104.5,51.8c-0.7,0.1-0.9-1-0.2-1C104.9,50.8,105.1,51.7,104.5,51.8c-0.2,0-0.4,0.3-0.3,0.5c0,0,0,0,0,0
		c0,0.2,0.2,0.4,0.5,0.3c0,0,0,0,0,0c0.7-0.1,1.2-0.8,1.1-1.5l0,0c-0.2-0.7-0.8-1.2-1.6-1.1c-0.7,0.1-1.2,0.8-1.2,1.5
		c0,0,0,0.1,0,0.1c0.2,0.7,0.9,1.2,1.6,1.1C105.2,52.6,105,51.8,104.5,51.8z"/>
	<path class="st3" d="M106.5,60.6c-0.1,0-0.3,0-0.4,0c-0.2,0-0.4-0.2-0.6-0.4c-0.1-0.2-0.2-0.5-0.1-0.7v-0.1
		c0.1-0.4,0.4-0.6,0.7-0.7c0.1,0,0.3,0,0.4,0c0.2,0,0.4,0.2,0.6,0.4c0.1,0.2,0.2,0.5,0.1,0.7l0,0.1
		C107.1,60.3,106.8,60.5,106.5,60.6L106.5,60.6z"/>
	<path d="M106.4,60.2c-0.7,0.1-0.8-1-0.1-1.1C107,59.1,107,60.1,106.4,60.2c-0.2,0-0.4,0.3-0.3,0.5c0,0.2,0.3,0.4,0.5,0.3l0,0
		c0.7-0.1,1.1-0.7,1.1-1.4c0-0.8-0.6-1.4-1.4-1.4h-0.2c-0.7,0.1-1.2,0.7-1.2,1.4c0,0.8,0.6,1.4,1.4,1.4c0.1,0,0.2,0,0.2,0
		C107.1,61,107,60.1,106.4,60.2z"/>
	<path class="st3" d="M87.3,70c-0.1,0-0.3,0-0.4,0h-0.1c-0.5-0.1-0.8-0.6-0.7-1.1s0.6-0.8,1.1-0.7h0.1c0.5,0.1,0.8,0.6,0.7,1.1
		C87.9,69.7,87.6,70,87.3,70z"/>
	<path d="M87.2,69.6c-0.6,0.1-0.9-0.9-0.2-1c0.3,0,0.5,0.2,0.6,0.4C87.5,69.3,87.4,69.5,87.2,69.6c-0.5,0.1-0.4,1,0.2,0.8
		c0.7-0.2,1.2-0.8,1.1-1.6c0,0,0,0,0,0c-0.2-0.7-0.9-1.2-1.6-1c-0.7,0.1-1.2,0.8-1.1,1.5c0,0,0,0,0,0l0,0c0.1,0.8,0.9,1.3,1.6,1.1
		C87.9,70.4,87.7,69.5,87.2,69.6z"/>
	<path class="st3" d="M84.3,67.7c-0.1,0-0.3,0-0.4,0c-0.2-0.1-0.4-0.2-0.6-0.4c-0.1-0.2-0.2-0.5-0.1-0.7v-0.1
		c0.1-0.4,0.4-0.6,0.7-0.7c0.1,0,0.3,0,0.4,0c0.2,0,0.4,0.2,0.6,0.4c0.1,0.2,0.2,0.5,0.1,0.7v0.1C85,67.3,84.7,67.6,84.3,67.7
		L84.3,67.7z"/>
	<path d="M84.3,67.2c-0.3,0.1-0.6-0.1-0.6-0.4c-0.1-0.3,0.1-0.6,0.4-0.6c0,0,0.1,0,0.1,0C84.8,66.1,84.9,67.1,84.3,67.2
		c-0.6,0.2-0.4,1,0.2,0.8c0.7-0.1,1.2-0.8,1.1-1.5c-0.1-0.7-0.7-1.3-1.5-1.2h-0.1c-0.7,0.1-1.1,0.7-1.1,1.4c0,0.7,0.7,1.3,1.4,1.3
		c0.1,0,0.1,0,0.2,0C85,68,84.8,67.2,84.3,67.2z"/>
	<path class="st3" d="M82.5,54.6c-0.1,0-0.3,0-0.4,0h-0.1c-0.5-0.1-0.8-0.6-0.7-1.1c0.1-0.5,0.6-0.8,1.1-0.7l0,0h0.1
		c0.5,0.1,0.8,0.6,0.7,1.1C83.2,54.3,82.9,54.5,82.5,54.6L82.5,54.6z"/>
	<path d="M82.4,54.1c-0.6,0.1-0.9-0.8-0.2-1c0.3-0.1,0.5,0.1,0.6,0.4C82.9,53.8,82.7,54.1,82.4,54.1c-0.5,0.1-0.4,1,0.2,0.8
		c0.7-0.2,1.2-0.8,1.1-1.6c0,0,0,0,0-0.1c-0.2-0.7-0.9-1.2-1.6-1c-0.7,0.1-1.2,0.8-1.1,1.6l0,0c0.2,0.7,0.9,1.2,1.6,1.1
		C83.1,54.9,83,54.1,82.4,54.1z"/>
	<path class="st3" d="M84.9,50.8c-0.1,0-0.3,0-0.4,0h-0.1c-0.5-0.1-0.8-0.6-0.7-1.1c0.1-0.5,0.6-0.8,1.1-0.7H85
		c0.5,0.1,0.8,0.6,0.7,1.1C85.6,50.4,85.3,50.7,84.9,50.8L84.9,50.8z"/>
	<path d="M84.9,50.3c-0.6,0.1-0.9-0.9-0.2-1c0.3-0.1,0.5,0.1,0.6,0.4C85.3,50,85.1,50.3,84.9,50.3c-0.5,0.1-0.4,1,0.2,0.8
		c0.7-0.2,1.2-0.8,1.1-1.6c0,0,0,0,0,0c-0.2-0.7-0.9-1.2-1.6-1c-0.7,0.1-1.2,0.8-1.1,1.6l0,0c0.2,0.7,0.9,1.2,1.6,1.1c0,0,0,0,0,0
		C85.6,51.1,85.4,50.3,84.9,50.3z"/>
	<path class="st3" d="M92.2,71.4c-0.1,0-0.3,0-0.4,0h-0.1c-0.5-0.1-0.8-0.6-0.7-1.1c0.1-0.5,0.6-0.8,1.1-0.7h0.1
		c0.5,0.1,0.8,0.6,0.7,1.1C92.8,71.1,92.5,71.4,92.2,71.4L92.2,71.4z"/>
	<path d="M92.1,71c-0.6,0.1-0.9-0.9-0.2-1c0.3,0,0.5,0.2,0.6,0.4C92.4,70.7,92.3,70.9,92.1,71c-0.5,0.1-0.4,1,0.2,0.8
		c0.7-0.1,1.2-0.8,1.1-1.6c0,0,0,0,0,0c0,0,0,0,0-0.1c-0.2-0.7-0.9-1.2-1.6-1c-0.7,0.2-1.2,0.8-1.1,1.6l0,0c0.2,0.7,0.9,1.2,1.6,1.1
		C92.8,71.8,92.6,71,92.1,71z"/>
	<path class="st3" d="M96.6,71.2c-0.1,0-0.3,0-0.4,0h-0.1c-0.5-0.1-0.8-0.6-0.7-1.1c0.1-0.5,0.6-0.8,1.1-0.7h0.1
		c0.5,0.1,0.8,0.6,0.7,1.1C97.2,70.9,97,71.2,96.6,71.2z"/>
	<path d="M96.5,70.8c-0.6,0.1-0.9-0.9-0.2-1c0.3,0,0.5,0.2,0.6,0.4C96.9,70.5,96.8,70.7,96.5,70.8c-0.5,0.1-0.4,1,0.2,0.8
		c0.7-0.1,1.2-0.8,1.1-1.6c0,0,0,0,0,0c0,0,0,0,0-0.1c-0.2-0.7-0.9-1.2-1.6-1c-0.7,0.1-1.2,0.8-1.1,1.6l0,0c0.2,0.7,0.9,1.2,1.6,1.1
		C97.2,71.6,97.1,70.8,96.5,70.8z"/>
	<path class="st3" d="M101.6,69.7c-0.1,0-0.3,0-0.4,0h-0.1c-0.5-0.1-0.8-0.6-0.7-1.1c0.1-0.5,0.6-0.8,1.1-0.7h0.1
		c0.5,0.1,0.8,0.6,0.7,1.1C102.3,69.4,102,69.7,101.6,69.7z"/>
	<path d="M101.6,69.3c-0.6,0.1-0.9-0.9-0.2-1c0.3,0,0.5,0.2,0.6,0.4C101.9,69,101.8,69.2,101.6,69.3c-0.5,0.1-0.4,1,0.2,0.8
		c0.7-0.2,1.2-0.8,1.1-1.6c0,0,0,0,0,0c-0.2-0.7-0.9-1.2-1.6-1c-0.7,0.2-1.2,0.8-1.1,1.6l0,0c0.2,0.7,0.9,1.2,1.6,1.1
		C102.3,70.1,102.1,69.3,101.6,69.3z"/>
	<path class="st3" d="M105.1,65.8c-0.1,0-0.3,0-0.4,0h-0.1c-0.5-0.1-0.8-0.6-0.7-1.1c0.1-0.5,0.6-0.8,1.1-0.7c0,0,0,0,0,0h0.1
		c0.5,0.1,0.8,0.6,0.7,1.1C105.8,65.5,105.5,65.8,105.1,65.8L105.1,65.8z"/>
	<path d="M105.1,65.4c-0.6,0.1-0.9-0.9-0.2-1c0.3-0.1,0.5,0.1,0.6,0.4C105.5,65.1,105.3,65.3,105.1,65.4L105.1,65.4
		c-0.5,0.1-0.4,1,0.2,0.8c0.7-0.2,1.2-0.9,1-1.6c0,0,0,0,0-0.1c-0.2-0.7-0.9-1.2-1.6-1.1c-0.7,0.1-1.2,0.8-1.1,1.6c0,0,0,0,0,0l0,0
		c0.2,0.7,0.9,1.2,1.6,1.1c0,0,0,0,0,0C105.8,66.2,105.6,65.3,105.1,65.4z"/>
	<path class="st3" d="M106.5,56.1c-0.1,0-0.3,0-0.4,0H106c-0.5-0.1-0.8-0.6-0.7-1.1c0.1-0.5,0.6-0.8,1.1-0.7c0,0,0,0,0.1,0h0.1
		c0.5,0.1,0.8,0.6,0.7,1.1C107.1,55.8,106.8,56,106.5,56.1L106.5,56.1z"/>
	<path d="M106.4,55.6c-0.6,0.1-0.9-0.9-0.2-1c0.3-0.1,0.5,0.1,0.6,0.4C106.8,55.3,106.7,55.6,106.4,55.6c-0.5,0.1-0.4,1,0.2,0.8
		c0.7-0.1,1.2-0.8,1.1-1.6c0,0,0,0,0,0c-0.2-0.7-0.9-1.2-1.6-1c-0.7,0.1-1.2,0.8-1.1,1.6c0,0,0,0,0,0l0,0c0.2,0.7,0.9,1.2,1.6,1.1
		C107.1,56.4,107,55.6,106.4,55.6z"/>
	<path class="st3" d="M101.3,49.3c-0.1,0-0.3,0-0.4,0h-0.1c-0.5-0.1-0.8-0.6-0.7-1.1c0.1-0.4,0.4-0.6,0.7-0.7c0.1,0,0.3,0,0.4,0h0.1
		c0.5,0.1,0.8,0.6,0.7,1.1C102,49,101.7,49.2,101.3,49.3L101.3,49.3z"/>
	<path d="M101.2,48.9c-0.6,0.1-0.9-0.9-0.2-1c0.3-0.1,0.5,0.1,0.6,0.4C101.7,48.5,101.5,48.8,101.2,48.9L101.2,48.9
		c-0.5,0.1-0.4,1,0.2,0.8c0.7-0.2,1.2-0.8,1.1-1.6c0,0,0,0,0,0c-0.2-0.7-0.9-1.2-1.6-1c-0.7,0.1-1.2,0.8-1.1,1.5c0,0,0,0,0,0l0,0
		c0.2,0.8,0.9,1.2,1.6,1.1C102,49.6,101.8,48.8,101.2,48.9z"/>
	<path class="st3" d="M81.4,58.5c-0.1,0-0.3,0-0.4,0H81c-0.5-0.1-0.8-0.6-0.7-1.1c0.1-0.4,0.4-0.6,0.7-0.7c0.1,0,0.3,0,0.4,0h0.1
		c0.5,0.1,0.8,0.6,0.7,1.1C82.1,58.1,81.8,58.4,81.4,58.5L81.4,58.5z"/>
	<path d="M81.3,58c-0.7,0.1-0.9-1-0.2-1C81.8,57,82,57.9,81.3,58c-0.2,0.1-0.4,0.3-0.3,0.5c0.1,0.2,0.2,0.3,0.4,0.3
		c0.7-0.2,1.2-0.8,1.1-1.5l0,0c-0.2-0.7-0.8-1.2-1.6-1.1c-0.7,0.1-1.2,0.8-1.2,1.5c0,0,0,0.1,0,0.1c0.2,0.7,0.9,1.2,1.6,1.1
		C82.1,58.8,81.9,58,81.3,58z"/>
	<path class="st3" d="M81.9,63c-0.1,0-0.3,0-0.4,0h-0.1c-0.5-0.1-0.8-0.6-0.7-1.1c0.1-0.5,0.6-0.8,1.1-0.7H82
		c0.5,0.1,0.8,0.6,0.7,1.1C82.6,62.7,82.3,63,81.9,63L81.9,63z"/>
	<path d="M81.8,62.6c-0.6,0.1-0.9-0.9-0.2-1c0.3-0.1,0.6,0,0.7,0.3c0.1,0.3,0,0.6-0.3,0.7C81.9,62.6,81.9,62.6,81.8,62.6
		c-0.5,0.1-0.4,1,0.2,0.8c0.7-0.2,1.2-0.8,1.1-1.6c0,0,0,0,0,0c-0.2-0.7-0.9-1.2-1.6-1c-0.7,0.2-1.2,0.8-1.1,1.6l0,0
		c0.2,0.7,0.9,1.2,1.6,1.1C82.5,63.4,82.4,62.6,81.8,62.6z"/>
	<path class="st3" d="M89.1,48.5c-0.1,0-0.3,0-0.4,0h-0.1c-0.5-0.1-0.8-0.6-0.7-1.1c0.1-0.4,0.4-0.6,0.7-0.7c0.1,0,0.3,0,0.4,0h0.1
		c0.5,0.1,0.8,0.6,0.7,1.1C89.8,48.1,89.5,48.4,89.1,48.5L89.1,48.5z"/>
	<path d="M89,48c-0.6,0.1-0.9-0.9-0.2-1c0.3-0.1,0.5,0.1,0.6,0.4C89.4,47.7,89.3,48,89,48L89,48c-0.5,0.1-0.4,1,0.2,0.8
		c0.7-0.1,1.2-0.8,1.1-1.6c0,0,0,0,0-0.1c-0.2-0.7-0.9-1.2-1.6-1c-0.7,0.2-1.2,0.8-1.1,1.6l0,0c0.2,0.7,0.9,1.2,1.6,1.1
		C89.7,48.8,89.6,48,89,48z"/>
	<path class="st4" d="M80.3,83.3c-1.7,0.1-3.3-1-3.8-2.7c-0.4-1.7,0.3-3.4,1.7-4.4c0.4-0.3,0.8-0.5,1.2-0.6c0.9-0.1,1.7,0,2.5,0.4
		c1.2,0.5,2.4,1.4,2.7,2.7c0.1,0.8,0,1.6-0.3,2.4c-0.1,0.5-0.4,0.9-0.7,1.2c-0.3,0.2-0.6,0.4-0.9,0.5c-0.7,0.2-1.4,0.4-2.1,0.5"/>
	<path d="M80.4,82.9c-4.3,0.2-4.6-6.5-0.5-6.8c1.5-0.1,3.7,0.9,4.2,2.4c0.3,0.9,0.2,1.9-0.2,2.8c-0.7,1.2-2,1.4-3.2,1.6
		c-0.2,0.1-0.4,0.3-0.3,0.5c0.1,0.2,0.2,0.3,0.4,0.3c1.2-0.2,2.9-0.4,3.6-1.5c0.6-1,0.9-2.3,0.7-3.5c-0.5-2.1-3.2-3.6-5.3-3.5
		c-2.3,0.2-3.9,2.5-3.8,4.7c0.1,2.2,2.1,4,4.3,3.9C80.8,83.7,80.9,82.8,80.4,82.9L80.4,82.9z"/>
	<path class="st5" d="M92.3,83.9c-1.7-0.1-3.2-1.4-3.5-3.1c-0.2-1.7,0.6-3.4,2.1-4.2c0.4-0.2,0.8-0.4,1.3-0.4c0.9,0,1.7,0.2,2.5,0.6
		c1.2,0.6,2.2,1.6,2.4,3c0,0.8-0.1,1.6-0.5,2.3c-0.2,0.4-0.4,0.8-0.8,1.1c-0.3,0.2-0.6,0.3-0.9,0.3c-0.7,0.2-1.4,0.3-2.2,0.3"/>
	<path d="M92.3,83.5c-4.3-0.3-3.8-6.9,0.3-6.9c1.7,0,3.6,1.5,4,3.1c0.1,1-0.1,2-0.7,2.8c-0.8,0.8-2.2,0.9-3.3,0.9
		c-0.5,0-0.4,0.9,0.2,0.8c1.2-0.1,2.8-0.1,3.6-1c0.8-1,1.2-2.2,1.2-3.5c-0.2-2.3-3.1-4.2-5.2-4c-5,0.4-5.1,8.2,0,8.6
		c0.2,0,0.4-0.2,0.4-0.4C92.7,83.7,92.5,83.5,92.3,83.5L92.3,83.5z"/>
	<path class="st3" d="M103.5,86.5c-1.7-0.2-3.1-1.9-3.2-3.8c-0.1-1.9,0.9-3.6,2.5-4.5c0.4-0.2,0.8-0.3,1.3-0.4c0.9,0,1.7,0.4,2.4,1
		c1.2,0.8,2,2.1,2.1,3.5c0,0.9-0.3,1.8-0.7,2.6c-0.2,0.5-0.5,0.9-0.9,1.2c-0.3,0.2-0.6,0.3-1,0.3c-0.7,0.1-1.4,0.1-2.2,0.1"/>
	<path d="M103.6,86.1c-4.1-0.7-3.3-7.9,0.8-7.7c1.7,0.1,3.7,1.9,3.9,3.6c0.1,1.1-0.2,2.1-0.8,3c-0.8,1.1-2.2,1.1-3.5,1
		c-0.5,0-0.6,0.8-0.1,0.8c1.2,0,2.9,0.2,3.8-0.8c0.9-1,1.4-2.3,1.4-3.7c0-2.3-2.4-4.8-4.7-4.9c-5.2-0.3-6.1,8.6-0.9,9.4
		C104,87,104.1,86.1,103.6,86.1L103.6,86.1z"/>
	<path class="st6" d="M104,84.3c-0.9-0.2-1.5-0.9-1.5-1.8c0-0.9,0.4-1.7,1.2-2.2c0.2-0.1,0.4-0.2,0.6-0.2c0.4,0,0.8,0.2,1.2,0.5
		c0.6,0.4,0.9,1,1,1.7c0,0.4-0.1,0.8-0.3,1.2c-0.1,0.2-0.2,0.4-0.4,0.6c-0.1,0.1-0.3,0.1-0.5,0.1c-0.3,0-0.7,0.1-1,0"/>
	<path d="M104.1,83.8c-1.9-0.4-1.1-3.8,0.6-3.2c0.8,0.3,1.4,1,1.4,1.9c-0.1,1-0.9,1.4-1.8,1.3c-0.5,0-0.6,0.8-0.1,0.8
		c1.4,0.2,2.6-0.8,2.7-2.2c0.2-1.4-0.8-2.6-2.2-2.7c0,0-0.1,0-0.1,0c-2.8-0.4-3.5,4.4-0.6,5C104.5,84.8,104.6,83.9,104.1,83.8
		L104.1,83.8z"/>
	<path d="M72.5,73.4c4-0.5,8.1-0.5,12.2-0.2c3.5,0.2,7,0.4,10.5,0.8c5.7,0.7,11.2,2,16.8,2.9c0.5,0.1,0.6-0.8,0.1-0.8
		c-5.7-0.9-11.4-2.2-17.2-2.9c-3.6-0.4-7.2-0.6-10.7-0.8c-4-0.3-7.9-0.2-11.9,0.2C71.8,72.6,71.9,73.4,72.5,73.4L72.5,73.4z"/>
	<path class="st3" d="M95.4,67.2c-0.9,0.2-1.8,0.3-2.7,0.2c-0.2-1.4-0.3-2.8-0.3-4.2l-0.4-14c0-0.1,0-0.2,0.1-0.3
		c0.1-0.1,0.2-0.1,0.3-0.1c0.7,0,1.3-0.1,2-0.1c0.2,0,0.3,0,0.5,0.1c0.3,0.2,0.3,0.6,0.3,0.9c-0.2,5.8,0.1,11.5,0.8,17.3"/>
	<path d="M95.3,66.8c-0.9,0.2-1.7,0.3-2.6,0.2l0.4,0.3c-0.3-3.2-0.5-6.5-0.4-9.7l-0.1-4.8l-0.1-2.2c0-0.6-0.1-0.7,0.4-1.1
		c0.4-0.3,0.9-0.4,1.4-0.3c0.8,0.4,0.3,3.5,0.3,4.3c0,1.5,0,3.1,0.1,4.6c0.1,3,0.4,6,0.8,9c0.1,0.5,0.9,0.4,0.8-0.2
		c-0.6-4.1-0.9-8.2-0.9-12.3c0-1,0-2,0-3c0.1-0.8,0.1-1.6,0-2.4c-0.3-1.1-1.1-1-2.1-1c-1.2,0-1.8,0-1.8,1.4c0,2.1,0.1,4.1,0.2,6.2
		c0.1,3.8,0,7.8,0.5,11.6c0,0.2,0.2,0.3,0.4,0.3c1,0,1.9,0,2.8-0.2C95.9,67.5,95.8,66.7,95.3,66.8L95.3,66.8z"/>
	<path class="st6" d="M78.4,49.3c0.3-1.8,0.5-4,0.6-5.1c0-0.1,0.1-0.2,0.2-0.3c0.1,0,0.1,0,0.2,0c1.7,0.5,3.4,1.1,5.1,1.8
		C82.7,47.4,80.5,48.4,78.4,49.3"/>
	<path d="M78.8,49.4c0.1-0.9,0.2-1.7,0.3-2.6c0-0.4,0-1.8,0.2-2.1c0.6-0.6,4.1,1.1,4.9,1.5l-0.1-0.7c-1.8,1.5-3.8,2.6-5.9,3.5
		c-0.5,0.2-0.1,1,0.4,0.8c2.2-1,4.3-2,6.1-3.6c0.2-0.2,0.2-0.4,0-0.6c0-0.1-0.1-0.1-0.2-0.1c-1.3-0.6-2.6-1-3.9-1.4
		c-0.5-0.2-1.4-0.7-1.9-0.2c-0.4,0.4-0.3,1.2-0.3,1.7c-0.1,1.3-0.3,2.5-0.5,3.8C77.9,49.8,78.7,49.9,78.8,49.4L78.8,49.4z"/>
	<path class="st6" d="M108.9,47.3c-0.3-0.1-0.7-0.1-0.9,0.2c-0.2,0.2-0.4,0.5-0.5,0.8c-0.2,0.4-0.3,0.7-0.3,1.1
		c0,0.4,0.1,0.8,0.3,1.1c0.2,0.3,0.6,0.5,0.9,0.5c0.7,0.2,1.5-0.1,2.1-0.6c0.5-0.6,0.6-1.4,0.3-2.1c-0.3-0.4-0.7-0.7-1.1-0.9
		c-0.2-0.1-0.5-0.2-0.6,0"/>
	<path d="M109.1,46.9c-1.4-0.5-2.2,1.3-2.3,2.5c-0.1,1.5,1.2,2.3,2.5,2.1c1.3-0.1,2.2-1.3,2.1-2.5c0,0,0,0,0-0.1
		c-0.1-0.8-1.6-2.6-2.6-1.7c-0.4,0.4,0.2,1,0.6,0.6c0.2,0.1,0.5,0.3,0.7,0.4c0.3,0.2,0.5,0.5,0.5,0.8c0.1,0.8-0.4,1.5-1.2,1.6
		c-2.8,0.7-1.5-3.2-0.6-2.9C109.3,47.9,109.6,47.1,109.1,46.9L109.1,46.9z"/>
	<path class="st6" d="M79.8,40.5c0.3-4.4,0.6-8.8,1.1-13.1c0-0.2,0.1-0.5,0.2-0.7c0.2-0.2,0.5-0.4,0.8-0.4c1-0.1,1.9-0.1,2.9-0.1
		c8.8,0.5,17.6,1.1,26.3,1.9c0.9,0.1,2.1,0.6,2.3,1.5c0.2,0.9-1.1,14.4-1.1,14.4c-0.4,0.3-0.9,0.5-1.4,0.5
		c-4.9,0.4-9.8,0.2-14.6-0.5c-5.4-0.8-9.4-1-15.2-2.1C80.3,41.9,79.7,41.3,79.8,40.5C79.8,40.5,79.8,40.5,79.8,40.5z"/>
	<path d="M80.2,40.5c0.2-3.9,0.5-7.8,0.9-11.7c0.1-1.3,0.3-2.1,1.7-2.2c1,0,2,0,3,0.1c1.9,0.1,3.8,0.2,5.8,0.3
		c3.9,0.2,7.9,0.5,11.8,0.8c1.8,0.1,3.7,0.3,5.5,0.5c1.3,0.1,3.9-0.1,4.1,1.6c0.2,1.3-0.2,2.9-0.3,4.2c-0.2,2-0.3,3.9-0.5,5.9
		l-0.2,2.3c0,0.5,0,1-0.1,1.5c-0.3,0.6-2.9,0.4-3.6,0.5c-1.9,0.1-3.8,0.1-5.7,0c-4-0.2-7.9-0.9-11.9-1.3c-1.8-0.2-3.7-0.4-5.5-0.7
		c-1-0.2-2-0.3-3-0.5C81.4,41.6,80.2,41.7,80.2,40.5c0-0.5-0.9-0.5-0.9,0c-0.1,0.9,0.5,1.6,1.4,1.8c1.7,0.4,3.3,0.7,5,0.8
		c4,0.6,8,1,12,1.5c4.3,0.5,8.6,0.6,12.9,0.3c0.8-0.1,1.8-0.2,2.1-1c0.1-0.5,0.1-1.1,0.1-1.6c0.4-4.1,1-8.2,0.9-12.3
		c0-2.8-4.1-2.6-6-2.7c-4.7-0.4-9.3-0.8-14-1.1c-2.6-0.2-5.1-0.3-7.7-0.5c-1.4-0.1-4.4-0.7-5.4,0.5c-0.5,0.5-0.4,1.4-0.5,2.1
		c-0.1,1.3-0.3,2.5-0.4,3.8c-0.2,2.7-0.4,5.5-0.6,8.2c0,0.2,0.2,0.5,0.4,0.5C80,41,80.2,40.8,80.2,40.5L80.2,40.5z"/>
	<path class="st7" d="M82.1,39.2c0.3-3.5,0.2-6,0.7-9.6c0-0.2,0.1-0.4,0.2-0.6c0.2-0.2,0.5-0.3,0.8-0.3c0.8-0.1,1.7-0.1,2.5-0.1
		c7.7,0.2,14.9,1.1,22.6,1.6c0.8,0,1.8,0.5,2,1.2s-0.6,10.3-0.6,10.3c-0.3,0.3-0.8,0.4-1.2,0.5c-4.4,0.3-8.8,0.2-13.1-0.3
		c-4.7-0.5-7.6-0.6-12.7-1.5C83.2,40.4,82,40.3,82.1,39.2z"/>
	<path d="M82.5,39.3c0.2-2.8,0.3-5.7,0.6-8.5c0.1-1,0.2-1.5,1.2-1.7c0.9-0.1,1.8-0.1,2.8,0c1.5,0.1,3.1,0.1,4.6,0.2
		c3,0.2,6,0.4,9.1,0.7l4.6,0.4c1.3,0.1,3.6-0.2,4.7,0.6c0.9,0.6,0.4,2.7,0.3,3.6c-0.1,1.6-0.2,3.2-0.3,4.8c0,0.6,0,1.1-0.1,1.7
		c-0.2,0.8-0.2,0.5-1.2,0.6c-3.1,0.3-6.3,0.3-9.4,0c-3-0.2-6-0.6-9-0.9c-1.4-0.1-2.8-0.3-4.1-0.4C85.5,40.3,82.6,40.4,82.5,39.3
		c0-0.5-0.9-0.6-0.9-0.1c0.1,2.1,3.2,1.9,4.7,2.1c3.1,0.4,6.3,0.6,9.5,1c3.7,0.4,7.4,0.6,11,0.5c1.3-0.1,3.7,0.3,3.8-1.5
		s0.2-3.4,0.3-5.1c0.1-1.5,0.4-3.2,0.2-4.7c-0.4-2.3-4.6-1.8-6.2-1.9c-3.7-0.3-7.5-0.6-11.2-0.9c-2.2-0.2-4.3-0.3-6.5-0.4
		c-1.2,0-3.7-0.5-4.7,0.5c-0.3,0.4-0.4,0.9-0.4,1.4c-0.1,1-0.2,2-0.3,3c-0.1,2-0.2,4-0.4,6c0,0.2,0.2,0.4,0.4,0.5c0,0,0,0,0,0
		C82.3,39.7,82.5,39.5,82.5,39.3C82.5,39.3,82.5,39.3,82.5,39.3L82.5,39.3z"/>
	<path class="st5" d="M90.1,90.2l3.6,0.2c0.3-3.5,0.6-7,1-10.5c-1.2,0-2.4-0.2-3.6-0.4c-0.1,3.4-0.4,6.8-1.1,10.1"/>
	<path d="M90.1,90.6l3.6,0.2c0.2,0,0.4-0.2,0.5-0.4c0.3-3.5,0.6-7,1-10.5c0-0.2-0.1-0.4-0.4-0.5c-1.2-0.1-2.4-0.2-3.6-0.4
		c-0.2,0-0.4,0.1-0.5,0.4c-0.1,3.4-0.5,6.8-1.1,10.1c-0.1,0.5,0.8,0.6,0.8,0.1c0.6-3.3,1-6.7,1.1-10.1L91,80
		c1.2,0.2,2.4,0.3,3.6,0.4l-0.4-0.5c-0.4,3.5-0.7,7-1,10.5l0.5-0.4l-3.6-0.2C89.6,89.8,89.6,90.6,90.1,90.6L90.1,90.6z"/>
	<path class="st4" d="M78.9,89.8l3.6-0.2c-0.1-3.5-0.2-7-0.2-10.5c-1.2,0.1-2.4,0.1-3.7,0c0.3,3.4,0.3,6.8,0.1,10.2"/>
	<path d="M79,90.2l3.6-0.2c0.2,0,0.3-0.2,0.3-0.4c-0.1-3.5-0.2-7-0.2-10.5c0-0.2-0.2-0.4-0.4-0.5c0,0,0,0,0,0h-0.1
		c-1.2,0.1-2.4,0.1-3.5,0c-0.2,0-0.4,0.2-0.5,0.4c0,0,0,0.1,0,0.1c0.3,3.3,0.3,6.7,0.1,10.1c0,0.2,0.2,0.4,0.4,0.4
		c0.2,0,0.4-0.2,0.4-0.4c0.2-3.4,0.2-6.9-0.1-10.3l-0.4,0.5c1.3,0.1,2.5,0,3.8-0.1L81.9,79c0,3.5,0.1,7,0.2,10.5l0.3-0.4l-3.6,0.2
		C78.3,89.4,78.5,90.2,79,90.2L79,90.2z"/>
	<path class="st2" d="M90.6,37.9c-0.8,0.1-1.5-0.2-2.1-0.8c-0.5-0.6-0.7-1.3-0.6-2c0.1-0.7,0.4-1.4,0.9-1.9c0.7-0.8,1.6-1.3,2.6-1.4
		c0.9,0.1,1.7,0.6,2.2,1.3c0.2,0.2,0.3,0.4,0.3,0.7c0.1,0.5,0,0.9-0.2,1.3c-0.4,1.1-1.2,2-2.2,2.5C91.3,37.8,91,37.9,90.6,37.9z"/>
	<path d="M90.6,37.4c-0.6,0.1-1.3-0.2-1.7-0.6c-0.4-0.5-0.6-1.3-0.4-1.9c0.4-1.4,1.6-2.3,3.1-2.5h-0.3c0.6,0.1,1.2,0.4,1.7,0.8
		c0.2,0.2,0.4,0.5,0.5,0.8c0,0.3,0,0.7-0.2,1C92.9,36.2,92,37.3,90.6,37.4c-0.7,0-0.7,1.1,0,1c1.4-0.2,2.7-1,3.4-2.3
		c0.4-0.6,0.6-1.4,0.6-2.1c-0.1-0.7-0.5-1.4-1.1-1.8c-0.5-0.4-1.2-0.7-1.9-0.9c-0.4,0-0.8,0.1-1.1,0.2c-0.3,0.1-0.7,0.3-1,0.5
		c-1.3,0.8-2,2.1-2.1,3.6c0,0.8,0.4,1.6,1,2.1c0.6,0.5,1.4,0.7,2.2,0.7C91.3,38.4,91.3,37.4,90.6,37.4z"/>
	<path class="st2" d="M102.9,39c0.5,0,0.9,0,1.3-0.2c1.1-0.4,1.9-1.3,2.3-2.4c0.3-0.7,0.3-1.5,0-2.2c-0.4-1-1.4-1.6-2.4-1.4
		c-0.4-0.2-0.8-0.1-1.2,0.2c-1.6,0.9-2.7,2.5-2.5,4.1c0,0.3,0.2,0.7,0.3,1C101.4,38.7,102.1,39,102.9,39z"/>
	<path d="M102.9,39.5c2,0,3.8-1.4,4.3-3.4c0.3-1,0.1-2.1-0.6-2.9c-0.6-0.7-1.5-1.1-2.5-1l0.3,0.1c-1-0.5-2,0.3-2.8,1
		c-0.7,0.6-1.2,1.4-1.5,2.3c-0.3,0.9-0.2,1.9,0.3,2.7C101,39.1,101.9,39.5,102.9,39.5c0.7,0,0.7-1,0-1c-0.5,0-1-0.2-1.4-0.5
		c-0.3-0.4-0.5-0.9-0.4-1.4c0.1-1.1,0.7-2,1.6-2.6c0.2-0.2,0.4-0.3,0.7-0.5c0.1-0.1,0.3-0.1,0.4-0.2c0.2,0,0.3,0.1,0.5,0.1
		c0.2,0,0.5,0,0.7,0c0.2,0.1,0.5,0.2,0.7,0.3c0.9,0.7,0.8,2,0.4,2.9c-0.5,1.2-1.7,1.9-3,1.9C102.2,38.5,102.2,39.5,102.9,39.5z"/>
	<path d="M103.2,38.6c0.4-0.2,0.6-0.6,0.6-1c0-0.2,0-0.4-0.1-0.6c0-0.1-0.1-0.2-0.1-0.3c-0.1-0.2-0.1-0.4-0.2-0.5
		c-0.1-0.1-0.1-0.2-0.2-0.3c-0.2-0.2-0.4-0.3-0.6-0.3c-0.2,0-0.3-0.1-0.5-0.1c-0.1,0-0.3,0-0.4,0.1c-0.1,0-0.3,0.1-0.4,0.1
		c-0.3,0.2-0.5,0.4-0.7,0.7c-0.3,0.5-0.4,1.1-0.1,1.6c0.1,0.2,0.3,0.4,0.5,0.5c0.2,0.1,0.4,0.2,0.7,0.2c0.2,0,0.5-0.1,0.7-0.2
		c0.1-0.1,0.2-0.2,0.3-0.3c0.1-0.1,0.2-0.2,0.2-0.4c0-0.1,0-0.3,0-0.4c0-0.1-0.1-0.3-0.1-0.4c-0.1-0.2-0.4-0.4-0.6-0.5l-0.3,0
		c-0.2,0-0.4,0.1-0.5,0.1l0,0l0.2-0.1h-0.1l0.3,0c0,0-0.1,0-0.1,0l0.3,0h-0.1l0.2,0.1c0,0-0.1,0-0.1-0.1l0.2,0.2
		c0,0-0.1-0.1-0.1-0.1l0.2,0.2c0,0,0-0.1-0.1-0.1l0.1,0.2c0,0,0-0.1,0-0.1l0,0.3v-0.1l0,0.3c0,0,0-0.1,0-0.1l-0.1,0.2
		c0-0.1,0.1-0.1,0.1-0.2l-0.2,0.2c0.1-0.1,0.1-0.1,0.2-0.2l-0.2,0.2c0.1,0,0.1-0.1,0.2-0.1l-0.2,0.1c0.1,0,0.1,0,0.2-0.1H102h0.1
		h-0.3c0,0,0.1,0,0.1,0l-0.2-0.1c0,0,0,0,0.1,0l-0.2-0.2l0,0l-0.2-0.2c0.1,0.1,0.1,0.2,0.2,0.3l-0.1-0.2c0.1,0.2,0.1,0.3,0.2,0.5
		v-0.3c0,0,0,0.1,0,0.1v-0.3c0,0,0,0,0,0l0.1-0.2l0,0l0.2-0.2l0,0l0.2-0.2l0,0c-0.2,0.1-0.4,0.4-0.5,0.6c0,0.1,0,0.3,0,0.4
		c0,0.1,0,0.3,0.1,0.4c0.1,0.2,0.4,0.4,0.6,0.5C102.7,38.8,102.9,38.7,103.2,38.6L103.2,38.6z"/>
	<path d="M91.1,36.2c-0.1-0.1-0.2-0.3-0.3-0.4l-0.2-0.2c-0.1-0.1-0.2-0.3-0.3-0.4C90.2,35,90.1,35,90,34.9l-0.1-0.1
		c-0.1-0.1-0.2-0.1-0.3-0.1c-0.2,0-0.4,0-0.6,0c-0.3,0.1-0.5,0.2-0.7,0.4c-0.2,0.2-0.3,0.3-0.3,0.6c0,0.1,0,0.2,0,0.3v0
		c0,0.1,0,0.2,0,0.3c0.1,0.4,0.4,0.7,0.7,0.8c0.1,0.1,0.2,0.1,0.3,0.1c0.1,0,0.2,0,0.4,0c0.1,0,0.2,0,0.2,0c0.3,0,0.5-0.1,0.7-0.3
		c0.1-0.1,0.2-0.2,0.2-0.3c0.1-0.1,0.1-0.3,0.1-0.4c0-0.3-0.1-0.5-0.3-0.7c-0.2-0.2-0.5-0.3-0.7-0.3c-0.1,0-0.2,0-0.2,0l0.3,0
		l-0.2,0l0.2,0.1l-0.1,0l0.2,0.2l-0.1-0.1l0.2,0.2c0,0,0,0,0-0.1l0.1,0.2v-0.1V36V36v0.3c0,0,0,0,0-0.1l-0.1,0.2v0l-0.2,0.2l0.1-0.1
		l-0.2,0.2l0.1,0l-0.2,0.1c0,0,0.1,0,0.1,0l-0.3,0h0.1l-0.3,0h0.1l-0.2-0.1l0.1,0.1l-0.2-0.2c0.1,0.1,0.2,0.2,0.2,0.2l-0.2-0.2
		c0.2,0.2,0.3,0.5,0.5,0.7c0.1,0.1,0.2,0.2,0.3,0.3c0.1,0.1,0.2,0.2,0.4,0.2c0.3,0.1,0.6,0,0.8-0.1C91.2,37.3,91.4,36.7,91.1,36.2
		L91.1,36.2z"/>
	<path class="st8" d="M29.3,110.1c11.6-0.8,23.2-1.3,34.8-1.6c1-0.1,1.9,0,2.9,0.1c1.2,0,1.6,1.4,1.6,2.3c0,0.8,0,2.6-1.5,3
		c-0.3,0.1-26.1,3.1-37.6,3.9"/>
	<path d="M29.3,110.9c8-0.5,16-1,24-1.3c4-0.2,8-0.4,12-0.4c0.6,0,1.6-0.1,2.1,0.4c0.3,0.5,0.4,1,0.4,1.6c0,0.8-0.2,1.6-1,1.9
		c-0.2,0.1,0.2,0-0.1,0l-0.5,0.1l-1.6,0.2l-5,0.6c-4.8,0.6-9.7,1.1-14.6,1.6c-5.2,0.5-10.4,1-15.6,1.4c-1,0.1-1,1.6,0,1.6
		c10.1-0.7,20.1-1.8,30.2-3l5.3-0.6c0.8,0,1.6-0.1,2.3-0.3c2.3-0.6,2.6-4,1.5-5.7c-0.9-1.4-2.9-1.2-4.4-1.2c-2.1,0-4.2,0.1-6.3,0.2
		c-9.6,0.3-19.2,0.8-28.8,1.4C28.3,109.4,28.3,110.9,29.3,110.9L29.3,110.9z"/>
	<path class="st8" d="M29.1,110.2c-1.3,1-2.1,2.4-2.4,4c-0.3,1.1,0,2.2,0.8,3c1,0.7,2.4,0.6,3.3-0.2c1.3-1.6,1.5-3.8,0.4-5.5
		c-0.5-0.7-1.2-1-2-1.1"/>
	<path d="M28.5,109.6c-1.2,1-2.1,2.4-2.5,3.9c-0.4,1.4-0.3,3.2,1,4.2c1.3,0.9,3,0.9,4.2-0.2c1.2-1.1,1.7-2.7,1.5-4.3
		c-0.2-1.9-1.4-3.8-3.5-3.8c-0.4,0-0.7,0.4-0.7,0.8c0,0.4,0.3,0.7,0.7,0.7c1.2,0,1.8,1.2,2,2.2c0.2,1-0.1,2.1-0.7,2.9
		c-0.6,0.7-1.6,0.8-2.3,0.3c-0.8-0.6-0.7-1.8-0.5-2.7c0.3-1.3,1-2.4,2.1-3.2c0.3-0.3,0.3-0.8,0-1.1
		C29.3,109.3,28.8,109.3,28.5,109.6L28.5,109.6L28.5,109.6z"/>
	<path class="st8" d="M56.9,126.4c-1.7-0.6-17.1-17.9-23.6-24.9c-0.6-1.4-0.1-3,1.2-3.8c1.3-0.7,3-0.6,4.1,0.4
		c9.1,6.8,25,23.2,24.8,23.3"/>
	<path d="M57.1,125.6c0.3,0.1-0.1-0.1-0.2-0.2l-0.2-0.1l-0.4-0.3c-0.6-0.5-1.1-1-1.7-1.6c-1.7-1.7-3.3-3.4-4.9-5.1
		c-3.9-4.2-7.8-8.5-11.7-12.8l-2.6-2.9c-0.8-0.9-1.9-1.7-1.6-3c0.6-2,2.9-2,4.4-1c1.1,0.8,2.1,1.6,3.1,2.5
		c4.6,3.8,8.9,7.9,13.2,12.1c2,1.9,3.9,3.9,5.8,5.9c0.6,0.6,1.2,1.2,1.8,1.9c0.2,0.2,0.3,0.4,0.5,0.6c0,0.1,0.1,0.1,0.2,0.2
		c-0.2-0.2-0.2-0.6,0-0.8c-0.5,0.9,0.9,1.7,1.3,0.8c0.5-0.9-1.2-2.2-1.8-2.8c-1.6-1.7-3.3-3.4-5-5.1c-4.6-4.6-9.3-9.1-14.3-13.3
		c-1.1-0.9-2.2-1.8-3.3-2.7c-1.4-1.1-3-1.8-4.7-1.3c-1.7,0.5-2.8,2-2.8,3.7c0,1.5,1.1,2.3,2.1,3.3c4.1,4.5,8.3,9.1,12.4,13.6
		c2.1,2.3,4.2,4.5,6.4,6.7c0.7,0.7,1.4,1.4,2.2,2.1c0.4,0.4,0.9,0.8,1.4,1C57.7,127.5,58.1,126,57.1,125.6L57.1,125.6z"/>
	<path class="st8" d="M64,122.9c0.2,1-1.4,5.2-5.2,4.5c-2.1-0.4-6.3-5.8-1-8.8C58.4,118.2,62.8,117.8,64,122.9z"/>
	<path d="M63.2,123.1C63.2,123.2,63.2,122.9,63.2,123.1c0,0.1,0,0.1,0,0.2c0,0.2,0-0.1,0,0s0,0.2-0.1,0.3c0,0.2-0.1,0.3-0.1,0.5
		c0,0-0.1,0.3-0.1,0.2c0,0.1-0.1,0.2-0.1,0.3c-0.4,0.7-0.9,1.4-1.6,1.8c-0.8,0.4-1.7,0.6-2.5,0.3c-0.2-0.1,0,0-0.1,0l-0.2-0.1
		c-0.2-0.1-0.3-0.2-0.4-0.3c-0.1-0.1,0.1,0.1,0,0l-0.1-0.1l-0.2-0.2c-0.2-0.1-0.3-0.3-0.4-0.5c-1-1.2-1.7-3-1-4.4
		c0.3-0.4,0.6-0.8,1-1.2c0.2-0.2,0.5-0.3,0.7-0.5c0.2-0.1,0.1,0,0,0c0,0,0.1,0,0.1,0l0.3-0.1c0.1,0,0.1,0,0,0h0.2c0.3,0,0.6,0,0.9,0
		c0.1,0,0,0,0,0h0.2l0.3,0.1c0.2,0,0.4,0.1,0.6,0.2c0.1,0,0.1,0.1,0.2,0.1c0.1,0,0.2,0.1,0.3,0.1c0.2,0.1,0.4,0.2,0.5,0.3
		C62.4,120.9,63,122,63.2,123.1c0.3,1,1.8,0.6,1.5-0.4c-0.6-2.3-2.1-4.4-4.5-4.9c-0.7-0.2-1.5-0.2-2.2,0c-1,0.3-1.9,0.9-2.5,1.8
		c-1.5,1.9-1.1,4.5,0.3,6.4c0.6,0.8,1.3,1.5,2.1,2c1.1,0.5,2.3,0.5,3.4,0.1c1.2-0.5,2.2-1.4,2.8-2.5c0.5-0.8,0.8-1.8,0.7-2.8
		C64.5,121.7,63,122.1,63.2,123.1z"/>
	<path d="M54.1,119.7c-0.4-0.2-0.8-0.5-1.2-0.8l-1.3-1l-2.5-2.1c-0.3-0.2-0.6,0.2-0.4,0.4l2.6,2.1l1.3,1c0.4,0.3,0.8,0.6,1.2,0.8
		C54.2,120.3,54.4,119.8,54.1,119.7L54.1,119.7z"/>
	<path d="M54.2,117.7c-1.6-1.3-3.4-2.5-5.2-3.6c-0.9-0.5-1.8-1-2.8-1.5s-1.8-1-2.2-2.1c-0.6-1.6-0.6-3.1-1.9-4.3
		c-1.6-1.6-3.5-3-5.3-4.5c-0.3-0.2-0.6,0.1-0.4,0.4c1.7,1.5,3.6,2.9,5.3,4.5c1.4,1.4,1.2,3.2,2.1,4.8c0.3,0.6,0.9,1.1,1.5,1.4
		c0.9,0.5,1.9,1,2.8,1.5c2,1.1,3.8,2.4,5.6,3.8C54.1,118.3,54.5,117.9,54.2,117.7L54.2,117.7z"/>
	<path d="M58.3,120.9c-0.6,0.5-1.1,1.3-1.2,2.1c-0.1,0.7-0.1,1.8,0.6,2.3c0.4,0.3,0.8,0.5,1.3,0.5c0.5,0.1,1,0.1,1.4,0.1
		c0.8-0.1,1.5-0.7,1.8-1.5c0.1-0.5,0.1-1,0.1-1.4c0-0.4-0.2-0.9-0.4-1.3c-0.4-0.6-1.2-1-2-0.9c-0.8,0.1-1.5,0.6-1.7,1.4
		c-0.3,0.8,0,1.7,0.6,2.2c0.5,0.5,1.3,0.4,1.8-0.1c0.2-0.2,0.3-0.4,0.3-0.6c0-0.5-0.3-0.9-0.8-1c-0.3,0-0.5,0.1-0.7,0.3
		c-0.2,0.3,0.2,0.6,0.4,0.4c0.1-0.2,0.4-0.2,0.5,0c0.2,0.2,0.2,0.4,0.1,0.6c-0.4,0.6-1.2,0.2-1.5-0.3c-0.4-0.8-0.1-1.7,0.6-2.1
		c0.3-0.2,0.6-0.2,0.9-0.2c0.6,0.1,1.1,0.5,1.2,1.1c0.1,0.3,0.1,0.7,0.1,1c0,0.4,0,0.7-0.2,1.1c-0.3,0.5-0.9,0.9-1.5,0.9
		c-0.4,0-0.7,0-1.1-0.1c-0.3-0.1-0.7-0.2-1-0.4c-0.5-0.4-0.5-1.3-0.4-1.9c0.1-0.7,0.5-1.3,1-1.7C59,121.2,58.6,120.8,58.3,120.9
		L58.3,120.9z"/>
	<path d="M28.6,112.3c-0.9,0.5-1.4,1.4-1.4,2.3c0,0.9,0.7,1.9,1.7,1.7c1.1-0.1,1.5-1.5,1.5-2.4c0.1-0.5-0.2-0.9-0.7-1.1
		c-0.5-0.1-0.9,0-1.3,0.3c-0.4,0.3-0.5,0.9-0.3,1.3c0.2,0.4,0.8,0.6,1.2,0.4c0.3-0.2,0-0.6-0.3-0.4s-0.4,0-0.5-0.2
		c-0.1-0.3,0-0.6,0.3-0.7c0.3-0.2,0.6-0.2,0.9-0.1c0.3,0.2,0.2,0.6,0.2,0.9c0,0.6-0.3,1.6-1.1,1.6c-0.6,0-1-0.8-1-1.3
		c0-0.8,0.4-1.5,1.1-1.8C29.2,112.6,28.9,112.2,28.6,112.3L28.6,112.3z"/>
	<path d="M33.2,113.1c2.7-0.4,5.3-0.7,8-0.7c0.1,0,0.2-0.2,0.2-0.3c0-0.1-0.1-0.2-0.2-0.2c-2.7,0-5.5,0.3-8.1,0.7
		C32.8,112.7,32.9,113.1,33.2,113.1L33.2,113.1z"/>
	<path d="M44.3,113.9c-0.9,0-1.7,0-2.5,0.2c-0.3,0.1-0.6,0.3-0.8,0.5c-0.3,0.3-0.7,0.5-1.1,0.6c-0.8,0.2-1.7,0.1-2.4-0.2
		c-0.7-0.3-1.4-0.4-2.2-0.2c-0.1,0-0.2,0.2-0.2,0.3c0,0.1,0.2,0.2,0.3,0.2c0.8-0.3,1.7,0.2,2.5,0.4c0.6,0.2,1.3,0.2,2,0.1
		c0.6-0.2,1.2-0.5,1.7-1c0.4-0.3,0.9-0.4,1.4-0.4c0.4,0,0.9-0.1,1.3-0.1c0.1,0,0.2-0.2,0.2-0.3C44.5,114,44.4,114,44.3,113.9
		L44.3,113.9z"/>
	<path d="M54.8,111.4c1.9,0.2,3.8-0.4,5.7-0.7c0.8-0.2,1.8-0.4,2.4,0.2c0.3,0.2,0.4,0.5,0.8,0.6c0.4,0.1,0.7-0.2,1.1-0.1
		c0.1,0,0.3,0,0.3-0.2c0-0.1,0-0.3-0.2-0.3c-0.4-0.1-0.7,0.1-1,0.1c-0.3,0-0.7-0.6-1-0.7c-0.6-0.3-1.4-0.3-2-0.2
		c-2,0.3-4,1.1-6.1,0.8C54.4,110.9,54.4,111.4,54.8,111.4z"/>
	<path d="M56.3,113.6l4.6-0.6c0.3,0,0.3-0.6,0-0.5l-4.6,0.6C56,113.1,55.9,113.6,56.3,113.6z"/>
	<path d="M54.8,116c-1.1-0.4-2.1-1.1-2.9-2l-2.8-2.6c-0.9-0.9-1.8-1.7-2.7-2.6c-0.5-0.5-0.9-1-1.1-1.6c-0.2-0.4-0.4-0.8-0.6-1.1
		c-0.5-0.7-1.1-1.3-1.8-1.8c-0.9-0.6-1-1.6-1.8-2.4c-1.2-1.1-3.1-1.4-3.9-2.9c-0.2-0.3-0.6,0-0.4,0.3c0.8,1.5,2.6,1.8,3.8,2.9
		c0.8,0.6,0.9,1.7,1.6,2.3c1,0.8,1.9,1.4,2.5,2.7c0.4,0.9,1,1.7,1.7,2.4l2.9,2.8c1.6,1.5,3.1,3.5,5.2,4.1
		C55,116.6,55.1,116.1,54.8,116L54.8,116z"/>
	<path d="M79.6,90.3c0,2.7-2.8,3.9-5.1,4c-2.6,0-5.1-0.6-7.4-1.7c-2.3-1.1-4.4-2.7-6.2-4.6c-1.7-1.9-3.2-4-5.1-5.7
		c-3.6-3.3-8.4-4.9-13.2-4.4c-2.3,0.2-4.6,0.9-6.5,2.1c-1.9,1.2-3.5,3.2-3.1,5.5c0.3,2.3,2.6,4,4.8,4.3c2.9,0.4,5.6-1.2,8-2.8
		c1.1-0.7,0.1-2.5-1-1.8c-1.9,1.2-4.1,2.8-6.6,2.5c-1.8-0.2-3.7-1.7-3.1-3.7s3-3.1,4.8-3.6c4.3-1.3,8.9-0.6,12.7,1.9
		c2,1.4,3.6,3.3,5.1,5.1c1.5,1.9,3.2,3.5,5.1,5c2,1.4,4.2,2.5,6.5,3.2c2.5,0.7,5.5,1.2,8,0.3c2.4-0.8,4.3-2.9,4.3-5.6
		c0-0.6-0.5-1-1-1C80.1,89.1,79.6,89.6,79.6,90.3L79.6,90.3z"/>
	<path class="st9" d="M47.7,110.5C47.7,110.5,47.7,110.5,47.7,110.5l-0.2,1.6c0.4,0.1,0.8-0.4,0.9-0.8c0-0.2,0-0.3,0.1-0.5
		c0.1-0.2,0.4-0.2,0.6-0.2c0.2,0,0.4,0,0.6,0c0.2-0.1,0.4-0.3,0.2-0.5s-0.2-0.1-0.2-0.2c-0.3-0.3-0.1-0.7,0.1-1
		c0.3-0.3,0.5-0.6,0.6-0.9c0,0,0-0.1,0-0.1c-0.1-0.1-0.2,0.1-0.4,0c-0.9-0.1-2,0.6-2.5,0.2c-0.5-0.4-2.5-0.2-3,0.2l1.2,1
		c0.1,0.1,0.2,0.1,0.2,0.2c0,0.1,0,0.2-0.1,0.3c-0.2,0.4-0.6,0.6-1.1,0.6c0.6,0.1,1.2,0.1,1.8-0.1c0.2-0.1,0.4-0.2,0.6-0.3
		c0.2-0.1,0.5,0,0.6,0.2C47.7,110.3,47.7,110.4,47.7,110.5L47.7,110.5z"/>
	<path d="M47.4,110.5c0,0.5-0.1,1.1-0.2,1.6c0,0.1,0.1,0.2,0.3,0.3c0.5,0,0.9-0.3,1-0.8c0.1-0.2,0-0.6,0.2-0.7s0.6,0,0.9,0
		c0.4-0.1,0.8-0.6,0.4-1c-0.2-0.2-0.3-0.3-0.2-0.6c0.1-0.3,0.3-0.5,0.5-0.7c0.2-0.2,0.5-1.1-0.1-1.1c-0.1,0-0.2,0-0.2,0.1
		c-0.1,0-0.2,0-0.3,0c-0.3,0-0.5,0.1-0.8,0.1c-0.4,0.1-0.9,0.3-1.3,0.1c-0.3-0.2-0.6-0.2-0.9-0.3c-0.5,0-0.9,0-1.4,0.1
		c-0.4,0-0.7,0.2-1,0.4c-0.1,0.1-0.1,0.3,0,0.4c0,0,0,0,0,0c0.4,0.3,0.8,0.6,1.2,1c0.1,0.1,0.1,0.1,0.1,0.2c0,0.1-0.1,0.2-0.2,0.3
		c-0.2,0.1-0.4,0.2-0.6,0.2c-0.3,0-0.4,0.5-0.1,0.5c0.5,0.1,1,0.1,1.5,0c0.2,0,0.5-0.1,0.7-0.2C47,110.4,47.5,110.1,47.4,110.5
		c0.1,0.1,0.2,0.2,0.3,0.2c0.1,0,0.2-0.1,0.2-0.2c0-0.6-0.6-0.8-1.1-0.6c-0.3,0.2-0.6,0.3-1,0.4c-0.4,0-0.7,0-1.1-0.1l-0.1,0.5
		c0.6,0,1.2-0.4,1.4-1c0-0.3-0.2-0.5-0.5-0.7l-1-0.8v0.4c0.2-0.2,0.5-0.3,0.7-0.3c0.4-0.1,0.7-0.1,1.1-0.1c0.3,0,0.6,0,0.8,0.2
		c0.3,0.2,0.6,0.2,0.9,0.2c0.4-0.1,0.8-0.2,1.3-0.3c0.2,0,0.4,0,0.6,0c0,0,0.2,0,0.2-0.1h-0.1c-0.1-0.1-0.1,0-0.1,0.1
		c0,0.1-0.1,0.1-0.1,0.2c-0.3,0.3-0.5,0.7-0.6,1.1c0,0.2,0,0.3,0.1,0.5c0.1,0.1,0.4,0.3,0.2,0.4s-0.6,0-0.8,0.1
		c-0.2,0-0.4,0.1-0.5,0.3c-0.1,0.2-0.1,0.5-0.2,0.7c0,0.3-0.3,0.5-0.6,0.5l0.3,0.3c0.1-0.5,0.1-1.1,0.2-1.6
		C48,110.1,47.5,110.1,47.4,110.5z"/>
	<path class="st10" d="M47.6,108.7l-0.5,0.3c0,0-0.1,0.1-0.1,0.1c0,0,0,0.1,0,0.1c0.1,0.1,0.2,0.3,0.3,0.3c0.1,0,0.1,0,0.2,0
		c0.1,0,0.2,0,0.3,0.1c0.1,0,0.2,0.1,0.2,0.1c0.1,0.1,0.2,0.2,0.3,0.3c0.1,0.1,0.3,0,0.4-0.1c0-0.1,0-0.2,0-0.2c0-0.2,0-0.4,0.1-0.5
		c0.1-0.1,0.1-0.1,0.2-0.2c0.1-0.1,0-0.3-0.1-0.4c-0.1,0-0.1,0-0.2,0"/>
	<path class="st11" d="M48,107.7c-0.4-0.8-1.6-1.3-1.6-2.2c0-0.6,0.3-1.1,0.7-1.5c0.4-0.3,0.9-0.6,1.4-0.8c0.5-0.4,0.7-1,0.4-1.6
		c-0.1-0.4-0.3-1.1-0.9-1c-0.5,0-1.3,0.8-1.5,0.1c-0.1-0.3,0-0.7,0.1-1c0.3-0.9,0.2-1.8,0-2.6c-0.7-1.7-2.6-2.4-4.2-3
		c-0.3-0.1-0.4,0.4-0.1,0.5c1.5,0.5,3.4,1.2,3.9,2.9c0.2,0.8,0.1,1.7-0.1,2.5c-0.1,0.8,0.1,1.8,1.1,1.5c0.3-0.1,0.5-0.2,0.7-0.3
		c0,0,0.2-0.1,0.2-0.1c0.1,0,0.3,0.5,0.3,0.6c0.2,0.5,0.1,0.9-0.4,1.2c-0.4,0.1-0.7,0.3-1.1,0.6c-0.8,0.5-1.2,1.4-1,2.4
		c0.2,0.9,1.3,1.3,1.7,2.1C47.7,108.3,48.1,108,48,107.7L48,107.7z"/>
	<polygon class="st2" points="48.4,109 47.3,105.7 47.4,96.8 49.3,96.8 49.5,105.6 	"/>
	<path d="M48.8,108.9c-0.4-1-0.8-2-1.1-3.1c-0.1-0.7-0.1-1.5,0-2.2l0.1-6.8l-0.4,0.4h1.9L49,96.8l0.1,6.8c0.1,0.7,0.1,1.4,0,2.1
		c-0.3,1.1-0.6,2.2-1,3.2c-0.1,0.5,0.6,0.6,0.7,0.2c0.4-1.1,0.7-2.1,1-3.2c0.1-0.7,0.1-1.3,0-2l-0.1-7c0-0.2-0.2-0.4-0.4-0.4h-1.9
		c-0.2,0-0.3,0.2-0.3,0.4l-0.1,7c-0.1,0.7-0.1,1.4,0,2.1c0.3,1.1,0.7,2.1,1.1,3.2C48.2,109.5,48.9,109.3,48.8,108.9z"/>
	<path class="st4" d="M50.8,92.9c-0.1,1.6,0.5,3.6,0.3,5.2c-1.5,0.3-3.7,0.2-5.3,0.5c-0.1,0-0.2,0-0.3,0c-0.1-0.1-0.1-0.2-0.1-0.3
		c0-1.7,0-3.3,0.1-5"/>
	<path d="M50.4,92.9c0,1.8,0.4,3.5,0.3,5.2l0.3-0.4c-0.8,0.1-1.7,0.2-2.5,0.2l-1.2,0.1c-0.4,0.1-0.8,0.1-1.2,0.1
		c-0.1,0-0.2,0-0.3,0.1c0-0.2,0-0.4,0-0.7c0-0.4,0-0.9,0-1.4c0-1,0-2,0.1-3c0-0.5-0.7-0.4-0.7,0c-0.1,1.4-0.1,2.8-0.1,4.1
		c0,0.5-0.2,1.3,0.4,1.6c0.2,0.1,0.3,0,0.5,0c0.6,0,1.3-0.2,1.9-0.2c1.1,0,2.2-0.1,3.3-0.3c0.2-0.1,0.3-0.2,0.3-0.4
		c0.1-1.8-0.4-3.5-0.3-5.2C51.2,92.4,50.5,92.4,50.4,92.9L50.4,92.9z"/>
	<path class="st4" d="M50.8,92.9c-1-6.3-0.8-21-2.2-27c-0.8,0-1.7,0-2.5,0.1c-0.2,0-0.4,0.1-0.6,0.2c-0.2,0.2-0.2,0.4-0.2,0.6
		c-0.4,5.7,0.3,19.8,0.2,26.8"/>
	<path d="M51.2,92.9c-0.7-4.6-0.7-9.2-1-13.8c-0.2-4.4-0.3-9-1.3-13.3c0-0.2-0.2-0.3-0.4-0.3c-1,0-3.1-0.3-3.6,0.8
		c-0.3,0.8-0.2,2-0.2,2.8c-0.1,2.6,0,5.2,0,7.9c0.1,5.5,0.3,11.1,0.3,16.6c0,0.2,0.2,0.3,0.4,0.3c0.2,0,0.3-0.2,0.3-0.3
		c0-4.9-0.1-9.8-0.2-14.7c-0.1-2.5-0.1-5-0.1-7.6c0-1,0-2,0-3c-0.1-0.4,0-0.9,0.1-1.3c0.5-1,2.1-0.8,3-0.8L48.2,66
		c1,4.4,1,9,1.3,13.5s0.3,9,0.9,13.4C50.5,93.4,51.2,93.4,51.2,92.9L51.2,92.9z"/>
	<path class="st4" d="M43,90.5c3.3-0.4,7.1-0.2,10.5-0.2c0.1,0.7,0.2,1.3,0.2,2c0,0.1,0,0.3-0.1,0.4c-0.1,0.1-0.3,0.2-0.4,0.2
		l-10.1,0.5c-0.1,0-0.2,0-0.2,0c-0.1-0.1-0.1-0.3-0.1-0.4L43,90.5"/>
	<path d="M43,90.9c3.5-0.4,7-0.2,10.5-0.2l-0.4-0.4c0.1,0.5,0.2,1.1,0.2,1.6c0,0.7-0.3,0.5-1,0.6l-3.8,0.2l-3.8,0.2l-1,0
		c-0.5,0.1-0.6-0.1-0.4-0.5c0-0.6,0-1.3,0.2-1.9c0-0.5-0.7-0.4-0.7,0c-0.1,0.8-0.7,2.8,0.3,3.1c0.6,0.2,1.9-0.1,2.6-0.1l2.9-0.1
		l2.9-0.2c0.7,0.1,1.5,0,2.2-0.1c1-0.4,0.3-2.1,0.2-2.8c0-0.2-0.2-0.4-0.4-0.4c-3.5,0-7-0.2-10.5,0.2C42.5,90.2,42.5,90.9,43,90.9
		L43,90.9z"/>
	<path class="st9" d="M90.8,91.7c0.2,1.9,0.1,3.9-0.1,5.8c-0.3,2.7-0.9,5.7-2.6,7.9c-1.4,1.9-3.7,2.7-5.9,3.1
		c-2.3,0.4-4.7,0.2-6.9-0.5c-1.9-0.7-3.6-2.1-3.9-4.2c-0.1-1.3,0-2.6,0.4-3.8c0.3-1.4,0.3-2.8,0.2-4.1c-0.5-6.1-3.9-11.9-8-16.3
		c-2.1-2.4-4.7-4.3-7.5-5.7c-2.4-1.1-5.1-1.8-7.7-1c-1.3,0.4-0.7,2.4,0.6,2c2.1-0.7,4.4-0.1,6.3,0.8c2.6,1.3,4.9,3.1,6.9,5.3
		c4,4.3,7.5,10.2,7.4,16.2c0,2.8-1.3,5.3-0.4,8c0.8,2.3,2.7,3.9,5,4.7c2.4,0.8,5,1.1,7.5,0.7c2.4-0.3,4.9-1.1,6.7-2.8
		c2.4-2.3,3.5-5.8,3.9-9c0.4-2.4,0.4-4.8,0.3-7.1C92.8,90.3,90.7,90.3,90.8,91.7L90.8,91.7z"/>
	<path d="M44.3,65.7c-1,0.7-1.2,2.1-0.5,3.1c0.1,0.1,0.2,0.2,0.3,0.1c0.1-0.1,0.2-0.2,0.1-0.3c0,0,0,0,0-0.1
		c-0.5-0.8-0.4-1.8,0.4-2.4c0.1-0.1,0.2-0.2,0.1-0.3C44.7,65.7,44.5,65.6,44.3,65.7C44.4,65.7,44.3,65.7,44.3,65.7z"/>
	<path d="M43,64.8c-0.7,0-1,0.9-1.2,1.4c-0.3,0.8-0.3,1.8,0.1,2.6c0.2,0.5,0.6,0.8,1,1c0.3,0.1,0.6-0.3,0.3-0.4
		c-1.4-0.6-1.2-2.6-0.6-3.7c0.1-0.1,0.2-0.2,0.3-0.3c0,0,0.1-0.1,0.1-0.1H43c0.1,0,0.2-0.2,0.2-0.3C43.2,64.9,43.1,64.8,43,64.8
		L43,64.8z"/>
	<path d="M54,101.1c0.6,0,1-0.7,1.1-1.2c0.1-0.6-0.1-1.2-0.5-1.7c-0.1-0.1-0.3-0.1-0.4,0s-0.1,0.3,0,0.4c0.3,0.3,0.4,0.8,0.3,1.2
		c0,0.3-0.2,0.9-0.6,0.8C53.7,100.6,53.7,101.1,54,101.1L54,101.1z"/>
	<path d="M55.7,101.3c0.8-0.9,0.9-2.3,0.3-3.4c-0.2-0.3-0.6,0-0.4,0.3c0.5,0.9,0.5,2-0.2,2.8C55.1,101.2,55.5,101.6,55.7,101.3
		L55.7,101.3z"/>
	<path class="st11" d="M49.7,109.3c0.6-0.2,2-1.2,1.2-1.9c-0.2-0.1-0.3-0.3-0.3-0.6c-0.1-0.4-0.1-0.7,0.1-1.1c0.3-0.3,0.6-0.5,1-0.7
		c0.4-0.3,0.8-0.5,1.2-0.8c0.3-0.2,0.6-0.4,0.7-0.8c0.2-0.4,0.1-0.9-0.1-1.2c-0.3-0.2-0.7-0.4-1.1-0.6c-0.1,0-0.2-0.1-0.3-0.2
		c-0.1-0.1-0.1,0,0-0.1c0.1-0.1,0.2-0.3,0.3-0.4c0.1-0.2,0.2-0.5,0.3-0.7s0.1-0.5,0.3-0.6c0.1-0.1,0.1-0.3,0-0.4
		c-0.1-0.1-0.2-0.1-0.3-0.1c-0.3,0.2-0.4,0.5-0.5,0.8c-0.1,0.3-0.1,0.4-0.2,0.6c-0.1,0.2-0.2,0.2-0.4,0.4c-0.7,0.7,0.8,1.2,1.2,1.4
		c0.2,0.1,0.4,0.2,0.4,0.4c0,0.3-0.1,0.6-0.3,0.7c-0.4,0.3-0.7,0.5-1.1,0.7c-0.6,0.4-1.5,0.8-1.7,1.6c-0.1,0.6,0,1.1,0.3,1.6
		c0.2,0.2,0.3,0.1,0.2,0.4c-0.2,0.4-0.6,0.7-1,0.8c-0.1,0.1-0.2,0.2-0.1,0.3C49.4,109.3,49.5,109.3,49.7,109.3L49.7,109.3z"/>
	<path class="st11" d="M46.8,108.8c-0.1-0.8-0.5-2.5-1.5-2.4c-0.2,0.1-0.5,0.2-0.7,0.3c-0.5,0.2-0.2-0.3-0.1-0.6
		c0.2-0.4,0.2-0.9,0-1.2c-0.2-0.3-0.7-0.3-1.1-0.3c-0.3,0-0.7,0-1-0.1c-0.3-0.1-0.4-0.6-0.4-0.9c-0.1-0.5-0.1-1-0.1-1.5
		c0.1-1.5,0.8-3,1.9-4.1c0.2-0.2-0.1-0.6-0.4-0.4c-1.6,1.5-2.6,4.3-1.8,6.5c0.1,0.3,0.2,0.6,0.5,0.8c0.3,0.1,0.6,0.2,0.9,0.1h0.8
		c0.3,0,0.5,0.1,0.4,0.5c-0.1,0.4-0.6,0.8-0.3,1.3c0.2,0.5,0.9,0.3,1.3,0.1c0.5-0.2,0.8,0.2,1,0.6c0.2,0.4,0.3,0.8,0.3,1.2
		C46.3,109.1,46.9,109.1,46.8,108.8L46.8,108.8z"/>
</g>
<g id="Layer_1_1_">
	<g>
		<path class="st8" d="M131.7,4.3H11.8c-4.5,0.1-8.1,3.7-8,8.2c0,0,0,0,0,0v118.8c-0.1,4.5,3.5,8.2,8,8.2c0,0,0,0,0,0h119.9
			c4.5-0.1,8.1-3.7,8-8.2c0,0,0,0,0,0V12.5C139.8,8,136.2,4.4,131.7,4.3C131.7,4.3,131.7,4.3,131.7,4.3z M133.9,125.4
			c0.1,4.6-3.6,8.4-8.2,8.4H17.8c-4.6-0.1-8.3-3.8-8.2-8.4V18.5c-0.1-4.6,3.6-8.4,8.2-8.4h107.9c4.6,0.1,8.3,3.8,8.2,8.4V125.4z"/>
		<path d="M11.8,140.6l-0.1,0c-5-0.1-9-4.3-8.9-9.3V12.5c-0.1-5,4-9.2,9-9.3h119.9c5.1,0.1,9.1,4.2,9,9.3v118.8c0.1,5-4,9.2-9,9.3
			H11.8z M11.9,138.5h119.8c3.9,0,7-3.3,7-7.2V12.5c0-3.9-3.1-7.1-7-7.2H11.8c-3.9,0-7,3.3-7,7.2v118.8c0,1.9,0.7,3.7,2,5
			C8.1,137.8,9.9,138.5,11.9,138.5L11.9,138.5z M17.8,134.8c-5.2-0.1-9.3-4.3-9.3-9.5V18.5c-0.1-5.2,4.1-9.4,9.3-9.5h107.9
			c5.2,0.1,9.3,4.3,9.3,9.5v106.8c0.1,5.2-4.1,9.4-9.3,9.5H17.8z M125.7,11.1H17.8c-4,0-7.2,3.4-7.2,7.4v106.8c0,4,3.2,7.3,7.2,7.4
			h107.9c4,0,7.2-3.4,7.2-7.4V18.5C132.9,14.5,129.7,11.2,125.7,11.1z"/>
	</g>
</g>
</svg>
