<?xml version="1.0" encoding="utf-8"?>
<!-- Generator: Adobe Illustrator 24.2.0, SVG Export Plug-In . SVG Version: 6.00 Build 0)  -->
<svg version="1.1" id="Layer_1" xmlns="http://www.w3.org/2000/svg" xmlns:xlink="http://www.w3.org/1999/xlink" x="0px" y="0px"
	 viewBox="0 0 186 181" style="enable-background:new 0 0 186 181;" xml:space="preserve">
<style type="text/css">
	.st0{fill:#C2E1E3;stroke:#000005;stroke-miterlimit:10;}
	.st1{fill:#C2E1E3;}
	.st2{fill:#000005;}
	.st3{clip-path:url(#SVGID_2_);}
	.st4{fill:#E1262F;}
	.st5{fill:#FFFFFF;}
	.st6{fill:#183D3D;}
	.st7{fill:#E66869;}
	.st8{fill:#F9B903;}
	.st9{fill:#04A4AE;}
	.st10{fill:#E4252E;}
</style>
<g>
	<path class="st0" d="M182.8,90.7c0,47.8-40.2,86.6-89.8,86.6S3.2,138.5,3.2,90.7S43.4,4.1,93,4.1S182.8,42.9,182.8,90.7"/>
	<g>
		<g>
			<path class="st1" d="M182.8,90.3c0,47.8-40.2,86.6-89.8,86.6S3.3,138.1,3.2,90.3C3.2,42.5,43.4,3.7,93,3.7
				C142.6,3.7,182.8,42.4,182.8,90.3"/>
			<g>
				<path class="st2" d="M181.3,90.3c0,17.7-5.8,35-16.3,49.3c-10.4,14.1-25.2,24.9-41.7,30.7c-17.4,6.1-36.6,6.8-54.4,1.9
					c-17-4.6-32.5-14.3-44-27.7C13.5,131.1,6.4,114.3,5,96.8C3.6,79.1,8,61.3,17.5,46.3c9.3-14.8,23.1-26.4,39-33.5
					c16.9-7.5,36.2-9.5,54.3-5.9c17.4,3.4,33.6,12,46.1,24.6c12.3,12.4,20.6,28.4,23.4,45.6C181,81.4,181.3,85.8,181.3,90.3
					c0,1.9,3,1.9,3,0c0-18.3-6-36.3-16.8-51c-10.8-14.6-25.9-25.7-43.1-31.8c-18-6.4-37.9-7-56.3-2c-17.5,4.8-33.6,14.8-45.4,28.7
					C10.8,48,3.5,65.3,2,83.5c-1.5,18.3,3.1,36.9,12.9,52.4c9.6,15.3,23.9,27.4,40.4,34.6c17.5,7.6,37.2,9.7,56,6.1
					c18-3.5,34.8-12.4,47.7-25.4c12.7-12.8,21.4-29.4,24.2-47.3c0.7-4.5,1.1-9.1,1.1-13.6C184.4,88.3,181.4,88.3,181.3,90.3
					L181.3,90.3z"/>
			</g>
		</g>
		<g>
			<path class="st1" d="M182.8,90.3c0,47.8-40.2,86.6-89.8,86.6S3.3,138.1,3.2,90.3C3.2,42.5,43.4,3.7,93,3.7
				C142.6,3.7,182.8,42.4,182.8,90.3"/>
			<g>
				<path class="st2" d="M181.3,90.3c0,17.7-5.8,35-16.3,49.3c-10.4,14.1-25.2,24.9-41.7,30.7c-17.4,6.1-36.6,6.8-54.4,1.9
					c-17-4.6-32.5-14.3-44-27.7C13.5,131.1,6.4,114.3,5,96.8C3.6,79.1,8,61.3,17.5,46.3c9.3-14.8,23.1-26.4,39-33.5
					c16.9-7.5,36.2-9.5,54.3-5.9c17.4,3.4,33.6,12,46.1,24.6c12.3,12.4,20.6,28.4,23.4,45.6C181,81.4,181.3,85.8,181.3,90.3
					c0,1.9,3,1.9,3,0c0-18.3-6-36.3-16.8-51c-10.8-14.6-25.9-25.7-43.1-31.8c-18-6.4-37.9-7-56.3-2c-17.5,4.8-33.6,14.8-45.4,28.7
					C10.8,48,3.5,65.3,2,83.5c-1.5,18.3,3.1,36.9,12.9,52.4c9.6,15.3,23.9,27.4,40.4,34.6c17.5,7.6,37.2,9.7,56,6.1
					c18-3.5,34.8-12.4,47.7-25.4c12.7-12.8,21.4-29.4,24.2-47.3c0.7-4.5,1.1-9.1,1.1-13.6C184.4,88.3,181.4,88.3,181.3,90.3
					L181.3,90.3z"/>
			</g>
		</g>
	</g>
</g>
<g>
	<defs>
		<path id="SVGID_1_" d="M182.8,90.5c0,47.8-40.2,86.6-89.8,86.6S3.2,138.3,3.2,90.5C3.2,42.7,43.4,4,93,4
			C142.6,3.9,182.8,42.7,182.8,90.5"/>
	</defs>
	<clipPath id="SVGID_2_">
		<use xlink:href="#SVGID_1_"  style="overflow:visible;"/>
	</clipPath>
	<g class="st3">
		<g>
			<g>
				<g>
					<path class="st4" d="M132,117.2c4.6-5.9,12.5-8.5,19.5-10.1c7.5-1.7,15.4-1.8,23-0.3c4.3,0.8,8.6,2.1,12.6,3.9
						c1.7,0.8,3.3-1.8,1.5-2.6c-15.1-6.7-32.8-7.1-48-0.6c-4.1,1.7-8,4.1-10.7,7.6C128.7,116.5,130.8,118.7,132,117.2L132,117.2z"/>
				</g>
			</g>
			<g>
				<g>
					<path d="M137.5,121.2c6.5-3.5,14.8-3,21.8-1.5c7.1,1.5,13.9,4.3,20,8.2c3.5,2.2,6.7,4.8,9.7,7.6c1.4,1.3,3.5-0.8,2.1-2.1
						c-11.1-10.7-26.3-17.8-41.9-17.8c-4.6,0-9.2,0.8-13.3,3C134.3,119.5,135.8,122.1,137.5,121.2L137.5,121.2z"/>
				</g>
			</g>
			<g>
				<g>
					<path d="M99.9,157.2c-2,1.7-3.7,3.7-4.8,6.1c-1,2.3-1.3,5-1.1,7.5c0.4,5.6,2.8,10.5,5.4,15.3c0.9-1.5,1.7-3,2.6-4.5
						c-2.9,0.1-5.9,0.2-8.8,0.3c-3.8,0.1-3.9,6.1,0,6c1,0,1.8-0.2,2.6-0.8c1.3-0.9,1.9-2.6,1.1-4.1c-0.8-1.3-2.8-2-4.1-1.1
						c0.1,0,0.3,0,0.4,0c0,2,0,4,0,6c2.9-0.1,5.9-0.2,8.8-0.3c2.3-0.1,3.7-2.5,2.6-4.5c-2-3.7-4.1-7.6-4.5-11.9
						c-0.2-1.9-0.1-3.8,0.6-5.6c0.7-1.7,2.1-3,3.5-4.2c1.3-1,1.1-3.2,0-4.2C102.9,156,101.2,156.2,99.9,157.2L99.9,157.2z"/>
				</g>
			</g>
			<g>
				<g>
					<path d="M134.9,140c0.6-0.1,1.5-0.1,1.9,0c-0.2,0-0.1,0,0.2,0.1c0.2,0,0.4,0.1,0.6,0.2c0.1,0,0.9,0.3,0.5,0.1
						c1.3,0.5,2.1,1.1,3,2.1c1.9,1.9,2.9,4.4,3.7,7.1c0.5,1.7,2.8,3,4.4,1.8c3-2.2,5.9-4.5,8.6-7c1.2-1.1,1.1-3.1,0-4.2
						c-1.2-1.2-3.1-1.1-4.2,0c-2.4,2.2-4.8,4.2-7.4,6.1c1.5,0.6,2.9,1.2,4.4,1.8c-1.1-3.6-2.7-7.3-5.5-10c-2.7-2.6-6.5-4.3-10.2-3.9
						c-1.6,0.2-3,1.3-3,3C131.9,138.5,133.3,140.1,134.9,140L134.9,140z"/>
				</g>
			</g>
			<g>
				<g>
					<path d="M79.7,149c-2.7,2.3-6.7,3.1-10.1,2.1c-3.3-0.9-5.9-3.4-7.3-6.8c-0.6-1.5-2.8-1.8-4.1-1.1c-1.5,0.9-1.7,2.6-1.1,4.1
						c2,4.7,6.3,8.3,11.2,9.6c5.5,1.5,11.4-0.1,15.7-3.8c1.2-1,1.1-3.2,0-4.2C82.7,147.7,81,147.9,79.7,149L79.7,149z"/>
				</g>
			</g>
			<g>
				<g>
					<path d="M56.8,155c2.6,0.8,5.6,0.1,7.7-1.5c2.2-1.6,3.6-3.7,5-6c0.8-1.4,0.4-3.3-1.1-4.1c-1.4-0.8-3.3-0.4-4.1,1.1
						c-0.6,1-1.2,2-1.9,2.9c0.2-0.2,0.3-0.4,0.5-0.6c-0.6,0.7-1.2,1.3-1.9,1.9c0.2-0.2,0.4-0.3,0.6-0.5c-0.5,0.4-1.1,0.7-1.7,1
						c0.2-0.1,0.5-0.2,0.7-0.3c-0.5,0.2-1.1,0.4-1.7,0.5c0.3,0,0.5-0.1,0.8-0.1c-0.4,0-0.9,0.1-1.3,0c0.3,0,0.5,0.1,0.8,0.1
						c-0.3,0-0.6-0.1-0.9-0.2c-1.5-0.5-3.3,0.5-3.7,2.1C54.3,152.9,55.2,154.5,56.8,155L56.8,155z"/>
				</g>
			</g>
			<g>
				<g>
					<path d="M119.8,102c-3.4-11.1-6.5-22.3-9.4-33.6c-1-3.7-6.8-2.2-5.8,1.6c2.9,11.3,6.1,22.5,9.4,33.6
						C115.1,107.3,120.9,105.7,119.8,102L119.8,102z"/>
				</g>
			</g>
			<g>
				<g>
					<path class="st5" d="M124.8,99.2c15.5,6.7,22.5,25.9,15.2,40.9c-7.4,15.2-22.8,26.1-39.9,22.4c-16-3.4-26.4-18.3-27.3-34.6
						c-0.6-11.8,5.3-19.9,14.3-26.3C97.7,94.2,112.8,93.3,124.8,99.2z"/>
					<g>
						<path d="M124.1,100.5c11.7,5.2,18.8,17.9,17.1,30.5c-0.8,6.6-4.3,12.7-8.6,17.7c-4.4,5.1-10,9.3-16.4,11.4
							c-6.6,2.2-13.7,2-20.2-0.4c-6-2.3-11.2-6.5-14.9-11.8c-7.5-10.8-9.9-26.6-1.4-37.5c4.3-5.4,10.3-9.8,16.9-11.9
							c7.1-2.3,14.9-2.3,22-0.1C120.6,99,122.4,99.7,124.1,100.5c1.7,0.8,3.3-1.7,1.5-2.6c-7.4-3.6-15.7-4.8-23.8-3.6
							c-7.9,1.2-14.9,4.9-20.7,10.4c-5.3,5-8.9,11.4-9.6,18.7c-0.7,7.3,1.1,15.1,4.4,21.6c3.2,6.3,8.1,11.8,14.2,15.3
							c6.4,3.7,14,5.2,21.3,4.1c7.3-1,14-4.6,19.5-9.5c5.4-4.9,10-11.4,12.2-18.5c4.1-13.3-1.5-28.3-12.9-36c-1.4-1-3-1.8-4.6-2.5
							C123.8,97.1,122.3,99.7,124.1,100.5z"/>
					</g>
				</g>
				<g>
					<path d="M120.9,106.6c6.6,2.9,12.2,9.8,13.5,17.1c1.6,9.1-2.8,17.1-8.7,23.2c-11.4,11.7-30.8,10.6-39.9-4.6
						c-6.6-11-5.2-23.6,3.9-31.5C98.2,103.3,110.3,101.6,120.9,106.6z"/>
					<g>
						<path d="M120.2,107.9c4.9,2.2,8.9,6.3,11.2,11.1c2.4,5,2.4,10.8,0.5,15.9c-3.3,8.8-11.3,16.4-20.6,18
							c-8.5,1.5-17.2-2.1-22.4-8.9c-6.4-8.3-7.9-20.1-1.4-28.7C94.8,105.3,109.1,102.8,120.2,107.9c1.7,0.8,3.3-1.8,1.5-2.6
							c-11.2-5.2-24.6-3.6-33.7,4.9c-4.2,3.9-7,9.2-7.7,15c-0.7,5.8,0.7,11.7,3.5,16.8c4.9,8.9,14.2,14.7,24.5,14.3
							c10.7-0.4,19.7-7.4,24.7-16.6c3.2-6,4.3-13.1,2-19.6c-2.2-6.3-7.1-11.9-13.3-14.7C119.9,104.6,118.4,107.2,120.2,107.9z"/>
					</g>
				</g>
				<g>
					<path class="st6" d="M114.9,117.3c3.4,1.5,6.4,5.1,7,8.9c0.8,4.8-1.5,8.9-4.6,12.1c-5.9,6.1-16.1,5.5-20.8-2.4
						c-3.4-5.8-2.7-12.3,2-16.5C103.1,115.5,109.4,114.7,114.9,117.3z"/>
					<g>
						<path d="M114.2,118.6c5.1,2.3,7.7,8.1,5.7,13.3c-1.7,4.3-5.6,8-10.2,8.8c-4.1,0.7-8.3-1-10.9-4.2c-3.2-4-4-9.8-0.9-14.1
							C101.6,117.3,108.7,116,114.2,118.6c1.7,0.8,3.3-1.8,1.5-2.6c-6.1-2.8-13.4-2-18.4,2.6c-4.9,4.5-5.4,11.6-2.4,17.3
							c2.6,4.9,7.8,8.2,13.5,8c5.9-0.2,11-4.1,13.6-9.3c1.7-3.3,2.2-7.1,1-10.6c-1.3-3.4-3.9-6.5-7.2-8
							C114,115.2,112.4,117.8,114.2,118.6z"/>
					</g>
				</g>
				<g>
					<path class="st6" d="M99.5,108.2c1.4,0.6,2.7,2.2,3,3.7c0.4,2-0.6,3.8-1.9,5.1c-2.5,2.6-6.8,2.3-8.8-1
						c-1.4-2.4-1.1-5.2,0.9-6.9C94.5,107.5,97.1,107.1,99.5,108.2z"/>
					<g>
						<path d="M98.7,109.5c1.9,0.9,2.7,2.7,2,4.5c-0.1,0.4,0.1-0.2-0.1,0.2c-0.1,0.1-0.1,0.2-0.2,0.3c-0.1,0.2-0.3,0.5-0.4,0.7
							c-0.1,0.1-0.2,0.3-0.4,0.5c-0.2,0.2-0.4,0.4-0.6,0.6c0,0-0.2,0.2,0,0c-0.1,0.1-0.2,0.1-0.3,0.2c-0.2,0.1-0.3,0.2-0.5,0.3
							c0,0-0.4,0.2-0.1,0.1c-0.1,0-0.2,0.1-0.2,0.1c-0.2,0.1-0.5,0.2-0.7,0.2c0,0-0.4,0.1-0.2,0c0.2,0-0.2,0-0.2,0
							c-0.2,0-0.4,0-0.6,0c-0.1,0-0.2,0-0.3,0c0.4,0,0,0-0.1,0c-0.2,0-0.5-0.1-0.7-0.2c-0.1,0-0.3-0.1-0.1,0c-0.1,0-0.2-0.1-0.2-0.1
							c-0.2-0.1-0.4-0.2-0.6-0.3c0,0-0.4-0.3-0.1-0.1c-0.1-0.1-0.1-0.1-0.2-0.2c-0.2-0.2-0.4-0.4-0.6-0.6c0.1,0.2,0,0,0,0
							c-0.1-0.1-0.2-0.2-0.2-0.4c-0.1-0.2-0.3-0.5-0.4-0.8c0,0.1,0,0.1,0-0.1c0-0.2-0.1-0.3-0.1-0.5c0-0.1,0-0.2-0.1-0.3
							c-0.1-0.3,0,0.1,0-0.2c0-0.3,0-0.5,0-0.8c0-0.5-0.1,0.2,0-0.2c0-0.1,0-0.2,0.1-0.3c0-0.1,0.1-0.2,0.1-0.4c0-0.1,0.1-0.4,0-0.1
							c0.1-0.3,0.3-0.5,0.5-0.8c0.2-0.3,0.6-0.7,1-0.9c0.6-0.4,0.9-0.5,1.6-0.7C96.6,109,97.8,109.1,98.7,109.5
							c0.7,0.3,1.6,0.2,2.1-0.5c0.4-0.6,0.2-1.7-0.5-2.1c-3-1.4-6.5-1-8.9,1.3c-2.3,2.2-2.5,5.6-1,8.3c1.3,2.3,3.8,3.9,6.4,3.7
							c2.8-0.2,5.1-1.9,6.4-4.3c0.8-1.6,1.1-3.5,0.5-5.2c-0.6-1.6-1.8-3.1-3.4-3.8c-0.7-0.3-1.6-0.2-2.1,0.5
							C97.8,108.1,98,109.2,98.7,109.5z"/>
					</g>
				</g>
				<g>
					<path class="st6" d="M121.9,140.2c1.4,0.6,2.7,2.2,3,3.7c0.4,2-0.6,3.8-1.9,5.1c-2.5,2.6-6.8,2.3-8.8-1
						c-1.4-2.4-1.1-5.2,0.9-6.9C116.9,139.4,119.6,139.1,121.9,140.2z"/>
					<g>
						<path d="M121.2,141.5c1.9,0.9,2.7,2.7,2,4.5c-0.1,0.4,0.1-0.2-0.1,0.2c-0.1,0.1-0.1,0.2-0.2,0.3c-0.1,0.2-0.3,0.5-0.4,0.7
							c-0.1,0.1-0.2,0.3-0.4,0.5c-0.2,0.2-0.4,0.4-0.6,0.6c0,0-0.2,0.2,0,0c-0.1,0.1-0.2,0.1-0.3,0.2c-0.2,0.1-0.3,0.2-0.5,0.3
							c0,0-0.4,0.2-0.1,0.1c-0.1,0-0.2,0.1-0.2,0.1c-0.2,0.1-0.5,0.2-0.7,0.2c0,0-0.4,0.1-0.2,0c0.2,0-0.2,0-0.2,0
							c-0.2,0-0.4,0-0.6,0c-0.1,0-0.2,0-0.3,0c0.4,0,0,0-0.1,0c-0.2,0-0.5-0.1-0.7-0.2c-0.1,0-0.3-0.1-0.1,0c-0.1,0-0.2-0.1-0.2-0.1
							c-0.2-0.1-0.4-0.2-0.6-0.3c0,0-0.4-0.3-0.1-0.1c-0.1-0.1-0.1-0.1-0.2-0.2c-0.2-0.2-0.4-0.4-0.6-0.6c0.1,0.2,0,0,0,0
							c-0.1-0.1-0.2-0.2-0.2-0.4c-0.1-0.2-0.3-0.5-0.4-0.8c0,0.1,0,0.1,0-0.1c0-0.2-0.1-0.3-0.1-0.5c0-0.1,0-0.2-0.1-0.3
							c-0.1-0.3,0,0.1,0-0.2c0-0.3,0-0.5,0-0.8c0-0.5-0.1,0.2,0-0.2c0-0.1,0-0.2,0.1-0.3c0-0.1,0.1-0.2,0.1-0.4c0-0.1,0.1-0.4,0-0.1
							c0.1-0.3,0.3-0.5,0.5-0.8c0.2-0.3,0.6-0.7,1-0.9c0.6-0.4,0.9-0.5,1.6-0.7C119,140.9,120.2,141,121.2,141.5
							c0.7,0.3,1.6,0.2,2.1-0.5c0.4-0.6,0.2-1.7-0.5-2.1c-3-1.4-6.5-1-8.9,1.3c-2.3,2.2-2.5,5.6-1,8.3c1.3,2.3,3.8,3.9,6.4,3.7
							c2.8-0.2,5.1-1.9,6.4-4.3c0.8-1.6,1.1-3.5,0.5-5.2c-0.6-1.6-1.8-3.1-3.4-3.8c-0.7-0.3-1.6-0.2-2.1,0.5
							C120.3,140,120.4,141.1,121.2,141.5z"/>
					</g>
				</g>
				<g>
					<path class="st6" d="M127.3,113.2c1.4,0.6,2.7,2.2,3,3.7c0.4,2-0.6,3.8-1.9,5.1c-2.5,2.6-6.8,2.3-8.8-1
						c-1.4-2.4-1.1-5.2,0.9-6.9C122.3,112.5,125,112.1,127.3,113.2z"/>
					<g>
						<path d="M126.6,114.5c1.9,0.9,2.7,2.7,2,4.5c-0.1,0.4,0.1-0.2-0.1,0.2c-0.1,0.1-0.1,0.2-0.2,0.3c-0.1,0.2-0.3,0.5-0.4,0.7
							c-0.1,0.1-0.2,0.3-0.4,0.5c-0.2,0.2-0.4,0.4-0.6,0.6c0,0-0.2,0.2,0,0c-0.1,0.1-0.2,0.1-0.3,0.2c-0.2,0.1-0.3,0.2-0.5,0.3
							c0,0-0.4,0.2-0.1,0.1c-0.1,0-0.2,0.1-0.2,0.1c-0.2,0.1-0.5,0.2-0.7,0.2c0,0-0.4,0.1-0.2,0c0.2,0-0.2,0-0.2,0
							c-0.2,0-0.4,0-0.6,0c-0.1,0-0.2,0-0.3,0c0.4,0,0,0-0.1,0c-0.2,0-0.5-0.1-0.7-0.2c-0.1,0-0.3-0.1-0.1,0c-0.1,0-0.2-0.1-0.2-0.1
							c-0.2-0.1-0.4-0.2-0.6-0.3c0,0-0.4-0.3-0.1-0.1c-0.1-0.1-0.1-0.1-0.2-0.2c-0.2-0.2-0.4-0.4-0.6-0.6c0.1,0.2,0,0,0,0
							c-0.1-0.1-0.2-0.2-0.2-0.4c-0.1-0.2-0.3-0.5-0.4-0.8c0,0.1,0,0.1,0-0.1c0-0.2-0.1-0.3-0.1-0.5c0-0.1,0-0.2-0.1-0.3
							c-0.1-0.3,0,0.1,0-0.2c0-0.3,0-0.5,0-0.8c0-0.5-0.1,0.2,0-0.2c0-0.1,0-0.2,0.1-0.3c0-0.1,0.1-0.2,0.1-0.4c0-0.1,0.1-0.4,0-0.1
							c0.1-0.3,0.3-0.5,0.5-0.8c0.2-0.3,0.6-0.7,1-0.9c0.6-0.4,0.9-0.5,1.6-0.7C124.4,114,125.6,114.1,126.6,114.5
							c0.7,0.3,1.6,0.2,2.1-0.5c0.4-0.6,0.2-1.7-0.5-2.1c-3-1.4-6.5-1-8.9,1.3c-2.3,2.2-2.5,5.6-1,8.3c1.3,2.3,3.8,3.9,6.4,3.7
							c2.8-0.2,5.1-1.9,6.4-4.3c0.8-1.6,1.1-3.5,0.5-5.2c-0.6-1.6-1.8-3.1-3.4-3.8c-0.7-0.3-1.6-0.2-2.1,0.5
							C125.7,113.1,125.8,114.2,126.6,114.5z"/>
					</g>
				</g>
				<g>
					<path class="st6" d="M94.1,135.1c1.4,0.6,2.7,2.2,3,3.7c0.4,2-0.6,3.8-1.9,5.1c-2.5,2.6-6.8,2.3-8.8-1
						c-1.4-2.4-1.1-5.2,0.9-6.9C89.1,134.4,91.8,134,94.1,135.1z"/>
					<g>
						<path d="M93.3,136.4c1.9,0.9,2.7,2.7,2,4.5c-0.1,0.4,0.1-0.2-0.1,0.2c-0.1,0.1-0.1,0.2-0.2,0.3c-0.1,0.2-0.3,0.5-0.4,0.7
							c-0.1,0.1-0.2,0.3-0.4,0.5c-0.2,0.2-0.4,0.4-0.6,0.6c0,0-0.2,0.2,0,0c-0.1,0.1-0.2,0.1-0.3,0.2c-0.2,0.1-0.3,0.2-0.5,0.3
							c0,0-0.4,0.2-0.1,0.1c-0.1,0-0.2,0.1-0.2,0.1c-0.2,0.1-0.5,0.2-0.7,0.2c0,0-0.4,0.1-0.2,0c0.2,0-0.2,0-0.2,0
							c-0.2,0-0.4,0-0.6,0c-0.1,0-0.2,0-0.3,0c0.4,0,0,0-0.1,0c-0.2,0-0.5-0.1-0.7-0.2c-0.1,0-0.3-0.1-0.1,0c-0.1,0-0.2-0.1-0.2-0.1
							c-0.2-0.1-0.4-0.2-0.6-0.3c0,0-0.4-0.3-0.1-0.1c-0.1-0.1-0.1-0.1-0.2-0.2c-0.2-0.2-0.4-0.4-0.6-0.6c0.1,0.2,0,0,0,0
							c-0.1-0.1-0.2-0.2-0.2-0.4c-0.1-0.2-0.3-0.5-0.4-0.8c0,0.1,0,0.1,0-0.1c0-0.2-0.1-0.3-0.1-0.5c0-0.1,0-0.2-0.1-0.3
							c-0.1-0.3,0,0.1,0-0.2c0-0.3,0-0.5,0-0.8c0-0.5-0.1,0.2,0-0.2c0-0.1,0-0.2,0.1-0.3c0-0.1,0.1-0.2,0.1-0.4c0-0.1,0.1-0.4,0-0.1
							c0.1-0.3,0.3-0.5,0.5-0.8c0.2-0.3,0.6-0.7,1-0.9c0.6-0.4,0.9-0.5,1.6-0.7C91.2,135.9,92.4,136,93.3,136.4
							c0.7,0.3,1.6,0.2,2.1-0.5c0.4-0.6,0.2-1.7-0.5-2.1c-3-1.4-6.5-1-8.9,1.3c-2.3,2.2-2.5,5.6-1,8.3c1.3,2.3,3.8,3.9,6.4,3.7
							c2.8-0.2,5.1-1.9,6.4-4.3c0.8-1.6,1.1-3.5,0.5-5.2c-0.6-1.6-1.8-3.1-3.4-3.8c-0.7-0.3-1.6-0.2-2.1,0.5
							C92.4,135,92.6,136.1,93.3,136.4z"/>
					</g>
				</g>
				<g>
					<path class="st6" d="M90.7,121.4c1.4,0.6,2.7,2.2,3,3.7c0.4,2-0.6,3.8-1.9,5.1c-2.5,2.6-6.8,2.3-8.8-1
						c-1.4-2.4-1.1-5.2,0.9-6.9C85.7,120.7,88.4,120.3,90.7,121.4z"/>
					<g>
						<path d="M90,122.7c1.9,0.9,2.7,2.7,2,4.5c-0.1,0.4,0.1-0.2-0.1,0.2c-0.1,0.1-0.1,0.2-0.2,0.3c-0.1,0.2-0.3,0.5-0.4,0.7
							c-0.1,0.1-0.2,0.3-0.4,0.5c-0.2,0.2-0.4,0.4-0.6,0.6c0,0-0.2,0.2,0,0c-0.1,0.1-0.2,0.1-0.3,0.2c-0.2,0.1-0.3,0.2-0.5,0.3
							c0,0-0.4,0.2-0.1,0.1c-0.1,0-0.2,0.1-0.2,0.1c-0.2,0.1-0.5,0.2-0.7,0.2c0,0-0.4,0.1-0.2,0c0.2,0-0.2,0-0.2,0
							c-0.2,0-0.4,0-0.6,0c-0.1,0-0.2,0-0.3,0c0.4,0,0,0-0.1,0c-0.2,0-0.5-0.1-0.7-0.2c-0.1,0-0.3-0.1-0.1,0c-0.1,0-0.2-0.1-0.2-0.1
							c-0.2-0.1-0.4-0.2-0.6-0.3c0,0-0.4-0.3-0.1-0.1c-0.1-0.1-0.1-0.1-0.2-0.2c-0.2-0.2-0.4-0.4-0.6-0.6c0.1,0.2,0,0,0,0
							c-0.1-0.1-0.2-0.2-0.2-0.4c-0.1-0.2-0.3-0.5-0.4-0.8c0,0.1,0,0.1,0-0.1c0-0.2-0.1-0.3-0.1-0.5c0-0.1,0-0.2-0.1-0.3
							c-0.1-0.3,0,0.1,0-0.2c0-0.3,0-0.5,0-0.8c0-0.5-0.1,0.2,0-0.2c0-0.1,0-0.2,0.1-0.3c0-0.1,0.1-0.2,0.1-0.4c0-0.1,0.1-0.4,0-0.1
							c0.1-0.3,0.3-0.5,0.5-0.8c0.2-0.3,0.6-0.7,1-0.9c0.6-0.4,0.9-0.5,1.6-0.7C87.8,122.2,89,122.3,90,122.7
							c0.7,0.3,1.6,0.2,2.1-0.5c0.4-0.6,0.2-1.7-0.5-2.1c-3-1.4-6.5-1-8.9,1.3c-2.3,2.2-2.5,5.6-1,8.3c1.3,2.3,3.8,3.9,6.4,3.7
							c2.8-0.2,5.1-1.9,6.4-4.3c0.8-1.6,1.1-3.5,0.5-5.2c-0.6-1.6-1.8-3.1-3.4-3.8c-0.7-0.3-1.6-0.2-2.1,0.5
							C89.1,121.3,89.2,122.4,90,122.7z"/>
					</g>
				</g>
				<g>
					<path class="st6" d="M130.1,128.3c1.4,0.6,2.7,2.2,3,3.7c0.4,2-0.6,3.8-1.9,5.1c-2.5,2.6-6.8,2.3-8.8-1
						c-1.4-2.4-1.1-5.2,0.9-6.9C125.1,127.5,127.8,127.2,130.1,128.3z"/>
					<g>
						<path d="M129.4,129.6c1.9,0.9,2.7,2.7,2,4.5c-0.1,0.4,0.1-0.2-0.1,0.2c-0.1,0.1-0.1,0.2-0.2,0.3c-0.1,0.2-0.3,0.5-0.4,0.7
							c-0.1,0.1-0.2,0.3-0.4,0.5c-0.2,0.2-0.4,0.4-0.6,0.6c0,0-0.2,0.2,0,0c-0.1,0.1-0.2,0.1-0.3,0.2c-0.2,0.1-0.3,0.2-0.5,0.3
							c0,0-0.4,0.2-0.1,0.1c-0.1,0-0.2,0.1-0.2,0.1c-0.2,0.1-0.5,0.2-0.7,0.2c0,0-0.4,0.1-0.2,0c0.2,0-0.2,0-0.2,0
							c-0.2,0-0.4,0-0.6,0c-0.1,0-0.2,0-0.3,0c0.4,0,0,0-0.1,0c-0.2,0-0.5-0.1-0.7-0.2c-0.1,0-0.3-0.1-0.1,0c-0.1,0-0.2-0.1-0.2-0.1
							c-0.2-0.1-0.4-0.2-0.6-0.3c0,0-0.4-0.3-0.1-0.1c-0.1-0.1-0.1-0.1-0.2-0.2c-0.2-0.2-0.4-0.4-0.6-0.6c0.1,0.2,0,0,0,0
							c-0.1-0.1-0.2-0.2-0.2-0.4c-0.1-0.2-0.3-0.5-0.4-0.8c0,0.1,0,0.1,0-0.1c0-0.2-0.1-0.3-0.1-0.5c0-0.1,0-0.2-0.1-0.3
							c-0.1-0.3,0,0.1,0-0.2c0-0.3,0-0.5,0-0.8c0-0.5-0.1,0.2,0-0.2c0-0.1,0-0.2,0.1-0.3c0-0.1,0.1-0.2,0.1-0.4c0-0.1,0.1-0.4,0-0.1
							c0.1-0.3,0.3-0.5,0.5-0.8c0.2-0.3,0.6-0.7,1-0.9c0.6-0.4,0.9-0.5,1.6-0.7C127.2,129,128.4,129.1,129.4,129.6
							c0.7,0.3,1.6,0.2,2.1-0.5c0.4-0.6,0.2-1.7-0.5-2.1c-3-1.4-6.5-1-8.9,1.3c-2.3,2.2-2.5,5.6-1,8.3c1.3,2.3,3.8,3.9,6.4,3.7
							c2.8-0.2,5.1-1.9,6.4-4.3c0.8-1.6,1.1-3.5,0.5-5.2c-0.6-1.6-1.8-3.1-3.4-3.8c-0.7-0.3-1.6-0.2-2.1,0.5
							C128.4,128.2,128.6,129.2,129.4,129.6z"/>
					</g>
				</g>
				<g>
					<path class="st6" d="M114.5,105.4c1.4,0.6,2.7,2.2,3,3.7c0.4,2-0.6,3.8-1.9,5.1c-2.5,2.6-6.8,2.3-8.8-1
						c-1.4-2.4-1.1-5.2,0.9-6.9C109.5,104.7,112.2,104.3,114.5,105.4z"/>
					<g>
						<path d="M113.8,106.7c1.9,0.9,2.7,2.7,2,4.5c-0.1,0.4,0.1-0.2-0.1,0.2c-0.1,0.1-0.1,0.2-0.2,0.3c-0.1,0.2-0.3,0.5-0.4,0.7
							c-0.1,0.1-0.2,0.3-0.4,0.5c-0.2,0.2-0.4,0.4-0.6,0.6c0,0-0.2,0.2,0,0c-0.1,0.1-0.2,0.1-0.3,0.2c-0.2,0.1-0.3,0.2-0.5,0.3
							c0,0-0.4,0.2-0.1,0.1c-0.1,0-0.2,0.1-0.2,0.1c-0.2,0.1-0.5,0.2-0.7,0.2c0,0-0.4,0.1-0.2,0c0.2,0-0.2,0-0.2,0
							c-0.2,0-0.4,0-0.6,0c-0.1,0-0.2,0-0.3,0c0.4,0,0,0-0.1,0c-0.2,0-0.5-0.1-0.7-0.2c-0.1,0-0.3-0.1-0.1,0c-0.1,0-0.2-0.1-0.2-0.1
							c-0.2-0.1-0.4-0.2-0.6-0.3c0,0-0.4-0.3-0.1-0.1c-0.1-0.1-0.1-0.1-0.2-0.2c-0.2-0.2-0.4-0.4-0.6-0.6c0.1,0.2,0,0,0,0
							c-0.1-0.1-0.2-0.2-0.2-0.4c-0.1-0.2-0.3-0.5-0.4-0.8c0,0.1,0,0.1,0-0.1c0-0.2-0.1-0.3-0.1-0.5c0-0.1,0-0.2-0.1-0.3
							c-0.1-0.3,0,0.1,0-0.2c0-0.3,0-0.5,0-0.8c0-0.5-0.1,0.2,0-0.2c0-0.1,0-0.2,0.1-0.3c0-0.1,0.1-0.2,0.1-0.4c0-0.1,0.1-0.4,0-0.1
							c0.1-0.3,0.3-0.5,0.5-0.8c0.2-0.3,0.6-0.7,1-0.9c0.6-0.4,0.9-0.5,1.6-0.7C111.6,106.2,112.8,106.3,113.8,106.7
							c0.7,0.3,1.6,0.2,2.1-0.5c0.4-0.6,0.2-1.7-0.5-2.1c-3-1.4-6.5-1-8.9,1.3c-2.3,2.2-2.5,5.6-1,8.3c1.3,2.3,3.8,3.9,6.4,3.7
							c2.8-0.2,5.1-1.9,6.4-4.3c0.8-1.6,1.1-3.5,0.5-5.2c-0.6-1.6-1.8-3.1-3.4-3.8c-0.7-0.3-1.6-0.2-2.1,0.5
							C112.8,105.3,113,106.4,113.8,106.7z"/>
					</g>
				</g>
				<g>
					<path class="st6" d="M106.9,142.9c1.4,0.6,2.7,2.2,3,3.7c0.4,2-0.6,3.8-1.9,5.1c-2.5,2.6-6.8,2.3-8.8-1
						c-1.4-2.4-1.1-5.2,0.9-6.9C101.9,142.2,104.6,141.8,106.9,142.9z"/>
					<g>
						<path d="M106.1,144.2c1.9,0.9,2.7,2.7,2,4.5c-0.1,0.4,0.1-0.2-0.1,0.2c-0.1,0.1-0.1,0.2-0.2,0.3c-0.1,0.2-0.3,0.5-0.4,0.7
							c-0.1,0.1-0.2,0.3-0.4,0.5c-0.2,0.2-0.4,0.4-0.6,0.6c0,0-0.2,0.2,0,0c-0.1,0.1-0.2,0.1-0.3,0.2c-0.2,0.1-0.3,0.2-0.5,0.3
							c0,0-0.4,0.2-0.1,0.1c-0.1,0-0.2,0.1-0.2,0.1c-0.2,0.1-0.5,0.2-0.7,0.2c0,0-0.4,0.1-0.2,0c0.2,0-0.2,0-0.2,0
							c-0.2,0-0.4,0-0.6,0c-0.1,0-0.2,0-0.3,0c0.4,0,0,0-0.1,0c-0.2,0-0.5-0.1-0.7-0.2c-0.1,0-0.3-0.1-0.1,0c-0.1,0-0.2-0.1-0.2-0.1
							c-0.2-0.1-0.4-0.2-0.6-0.3c0,0-0.4-0.3-0.1-0.1c-0.1-0.1-0.1-0.1-0.2-0.2c-0.2-0.2-0.4-0.4-0.6-0.6c0.1,0.2,0,0,0,0
							c-0.1-0.1-0.2-0.2-0.2-0.4c-0.1-0.2-0.3-0.5-0.4-0.8c0,0.1,0,0.1,0-0.1c0-0.2-0.1-0.3-0.1-0.5c0-0.1,0-0.2-0.1-0.3
							c-0.1-0.3,0,0.1,0-0.2c0-0.3,0-0.5,0-0.8c0-0.5-0.1,0.2,0-0.2c0-0.1,0-0.2,0.1-0.3c0-0.1,0.1-0.2,0.1-0.4c0-0.1,0.1-0.4,0-0.1
							c0.1-0.3,0.3-0.5,0.5-0.8c0.2-0.3,0.6-0.7,1-0.9c0.6-0.4,0.9-0.5,1.6-0.7C104,143.7,105.2,143.8,106.1,144.2
							c0.7,0.3,1.6,0.2,2.1-0.5c0.4-0.6,0.2-1.7-0.5-2.1c-3-1.4-6.5-1-8.9,1.3c-2.3,2.2-2.5,5.6-1,8.3c1.3,2.3,3.8,3.9,6.4,3.7
							c2.8-0.2,5.1-1.9,6.4-4.3c0.8-1.6,1.1-3.5,0.5-5.2c-0.6-1.6-1.8-3.1-3.4-3.8c-0.7-0.3-1.6-0.2-2.1,0.5
							C105.2,142.8,105.4,143.9,106.1,144.2z"/>
					</g>
				</g>
			</g>
			<g>
				<g>
					<path d="M109.3,74.6c-2.2-1.5-4.3-3.1-6.5-4.6c-0.6-0.4-1.7-0.5-2.3-0.3c-0.6,0.2-1.2,0.5-1.6,1.1c-0.9,1.1-0.9,2.9,0.2,3.9
						c0.1,0.1,0.3,0.2,0.4,0.3c0.6,0.5,1.3,0.9,2.1,0.9c0.7,0,1.6-0.3,2.1-0.9c0.5-0.6,0.9-1.3,0.9-2.1c0-0.8-0.3-1.6-0.9-2.1
						c-0.1-0.1-0.3-0.2-0.4-0.3c-1.2,1.6-2.4,3.1-3.6,4.7c2.2,1.5,4.3,3.1,6.5,4.6c0.6,0.4,1.6,0.5,2.3,0.3c0.7-0.2,1.4-0.7,1.8-1.4
						c0.4-0.7,0.6-1.5,0.3-2.3c-0.1-0.2-0.2-0.5-0.3-0.7C110.1,75.3,109.7,74.9,109.3,74.6L109.3,74.6z"/>
				</g>
			</g>
			<g>
				<g>
					<path d="M112.7,79c1.1-1.3,2.2-2.6,3.3-3.8c1.1-1.2,2.2-2.5,3.5-3.5c-0.2,0.2-0.4,0.3-0.6,0.5c0,0,0.1,0,0.1,0
						c-0.5,0.1-1,0.3-1.5,0.4c0,0,0.1,0,0.1,0c-0.5-0.1-1-0.3-1.5-0.4c0,0,0,0,0.1,0c-0.4-0.4-0.7-0.7-1.1-1.1c0,0,0,0,0,0.1
						c-0.1-0.5-0.3-1-0.4-1.5c0,0,0,0,0,0.1c0.3-0.7,0.6-1.4,0.9-2.1c0,0,0,0,0,0c-0.6,0.5-0.9,1.4-0.9,2.1c0,0.7,0.3,1.6,0.9,2.1
						c0.6,0.5,1.3,0.9,2.1,0.9c0.3,0,0.5-0.1,0.8-0.1c0.5-0.1,0.9-0.4,1.3-0.8c0.4-0.3,0.7-0.9,0.8-1.4c0.1-0.5,0.2-1.2,0-1.7
						c-0.3-0.9-0.9-1.7-1.8-2c-0.9-0.4-2-0.3-2.8,0.2c-0.4,0.2-0.7,0.6-1,0.9c-0.7,0.7-1.5,1.5-2.2,2.2c-1.4,1.5-2.8,3.1-4.1,4.7
						c-0.5,0.6-0.9,1.3-0.9,2.1c0,0.7,0.3,1.6,0.9,2.1c0.6,0.5,1.3,0.9,2.1,0.9C111.3,79.8,112.2,79.6,112.7,79L112.7,79z"/>
				</g>
			</g>
		</g>
		<g>
			<g>
				<path class="st5" d="M96.4,128.7c2.4,0,4.6-2.1,4.5-4.5c-0.1-2.4-2-4.5-4.5-4.5c-2.4,0-4.6,2.1-4.5,4.5
					C92,126.6,93.8,128.7,96.4,128.7L96.4,128.7z"/>
			</g>
		</g>
		<g>
			<g>
				<path class="st5" d="M111,120.9c2.4,0,4.6-2.1,4.5-4.5c-0.1-2.4-2-4.5-4.5-4.5c-2.4,0-4.6,2.1-4.5,4.5
					C106.6,118.8,108.5,120.9,111,120.9L111,120.9z"/>
			</g>
		</g>
		<g>
			<g>
				<path class="st7" d="M112.4,141c2.1,0.9,4.9,0.6,6.2-1.3c0.8-1.1,1-2.5,0.8-3.9c-0.2-1.3-0.7-2.6-1.2-3.8
					c-0.2-0.5-0.4-1.1-0.7-1.6c-3.7,1.4-7.1,3.5-10.1,6C108.8,138.3,110.3,140.1,112.4,141z"/>
				<g>
					<path class="st5" d="M112.2,141.7c2.5,1,5.7,0.5,7.2-1.9c1.9-3.1,0-6.7-1.2-9.6c-0.1-0.3-0.5-0.7-0.9-0.5
						c-3.8,1.5-7.3,3.6-10.5,6.2c-0.2,0.2-0.3,0.7-0.1,0.9c1.4,1.9,3,3.8,5.3,4.8c0.9,0.4,1.6-0.9,0.8-1.3c-2-0.9-3.5-2.5-4.8-4.3
						c0,0.3-0.1,0.6-0.1,0.9c2.9-2.5,6.2-4.5,9.8-5.8c-0.3-0.2-0.6-0.3-0.9-0.5c1,2.4,2.8,5.5,1.5,8.1c-1,2.1-3.8,2.3-5.7,1.5
						C111.8,139.9,111.4,141.4,112.2,141.7z"/>
				</g>
			</g>
			<g>
				<path class="st5" d="M104.5,131.9c0.8,1.4,1.9,3.3,2.9,4.6c0,0,0,0,0,0c3-2.6,6.5-4.6,10.1-6c-0.7-1.7-1.4-3.3-2.1-5
					C112.5,128.9,109.1,131.6,104.5,131.9z"/>
				<g>
					<path class="st5" d="M103.9,132.3c0.9,1.6,1.8,3.3,3,4.7c0.3,0.3,0.8,0.2,1.1,0c2.9-2.5,6.2-4.5,9.8-5.8
						c0.3-0.1,0.7-0.5,0.5-0.9c-0.7-1.7-1.4-3.3-2.1-5c-0.2-0.5-0.8-0.8-1.3-0.3c-2.7,3.2-6.1,5.9-10.4,6.2c-1,0.1-1,1.6,0,1.5
						c4.7-0.3,8.5-3.1,11.5-6.6c-0.4-0.1-0.8-0.2-1.3-0.3c0.7,1.7,1.4,3.3,2.1,5c0.2-0.3,0.3-0.6,0.5-0.9c-3.8,1.5-7.3,3.6-10.5,6.2
						c0.4,0,0.7,0,1.1,0c-1.1-1.3-1.9-3-2.8-4.4C104.7,130.7,103.4,131.4,103.9,132.3z"/>
				</g>
			</g>
		</g>
	</g>
	<g class="st3">
		<g>
			<path class="st8" d="M54.6,42.9c-1.4-4.2-1.9-8.8-1.5-13.3c0.3-3.1,1.1-6.3,2.9-8.6c1.8-2.3,4.9-3.6,7.5-2.5
				c2,0.9,3.4,3.1,4.4,5.3c3,6.5,4.2,12.7,2.7,19.9c-0.5,2.3,0.6,4.4,0.8,6.8c0,0.6-0.3,3.1,0,3.5c1,1.4,3,1.1,3.4,2.9
				c0.2,0.9-1.4,1.2-2,1.8c-3.3,3.3-8,4.2-12.4,4.6c-1.1,0.1-2.3,0.1-2.9-0.9c-0.4-0.7-0.4-1.6-0.1-2.4s0.9-1.3,1.4-1.9
				c0.6-0.5,1.2-1.1,1.2-2c0-0.4-0.1-0.8-0.3-1.1c-1.9-5.1-6.2-10-6.2-15.5"/>
		</g>
		<g>
			<path d="M79.9,68.8c-0.9,0.3-0.7,1.5,0,1.9c0.5,0.2,1.3,0.2,1.7,0.6c0.6,0.6,0.3,2.4,0.1,3.1c-0.3,1.5-0.9,2.1-1.8,2.4
				c-2.3-1-3.9-4.3-4.8-6.2c-1.4-2.8-2.8-5.7-4.2-8.5c1.1-0.5,2.2-1.5,3.2-2.2c1-0.8,1.8-1.6,1.5-3.1c-0.3-1.7-2-3.6-3.5-3.5
				c0.8-8.9,0.8-20-1.7-28.5c-1.4-4.8-4.9-8.2-9.3-8.3c-0.1-0.1-0.3-0.2-0.5-0.2c-5.6,0.2-8.7,9.3-9.2,14.6
				c-0.9,9.2,4.8,17.4,6.7,26.2c-1.2,0.6-2.4,1.4-2.7,2.7c-0.3,1.2,0.1,2.7,1,3.5c0,0,0,0.1,0.1,0.1c1.7,2.1,4.5,2.4,7.2,1.9
				c3.2,11.1,8.4,23.6,6.4,35.3c-0.1,0.3-0.3,0.6-0.5,0.8c-0.2,0.3-0.4,0.8-0.7,1c-0.6,0.3-1.1-0.2-1.5-0.7
				c-0.9-1.3-0.8-3.4,0.1-4.6c0.5-0.7,0.1-1.9-0.8-1.6c-3,1-2.4,6.2-0.7,8.2c1,1.2,2.6,1.9,3.9,1c1.3-0.9,2.4-2.9,2.5-4.5
				c0-0.2,0-0.4-0.1-0.6c1.1-4.3,0.4-8.9-0.6-13.2c-1.6-7.3-3.9-14.4-6-21.5c1.2-0.4,2.3-0.9,3.3-1.5c2.1,4.8,3.8,6.6,6.2,11.1
				c1.1,2,2.2,4.6,4,4.8c2.4,0.9,4.3-2.6,4.6-4.9c0.2-1.5,0.4-3.2-0.6-4.4C82.5,68.9,81.1,68.5,79.9,68.8z M64.3,62.4
				c0.3-0.8,0.4-1.7,0.3-2.7c0.3-0.1,0.6-0.2,0.9-0.4c0.9-0.5,1.8-1.1,2.7-1.4c0.1,0,0.1,0,0.2,0c0.4,0.9,0.8,1.7,1.3,2.5
				C67.9,61.1,66.1,61.9,64.3,62.4z M62.3,47.9c0.1,0.1,0.2,0.1,0.4,0.1c0.1,0,0.1-0.1,0.1-0.2c0.2-1.5,0.4-3.2-0.5-4.4
				c-0.1-0.1-0.2-0.2-0.2-0.3c0.1-0.3,0.3-0.6,0.6-0.7c0,0,0.1,0.1,0.1,0.1c0.3,0,0.6,0.1,0.8,0.2c-0.2,1.1-0.3,3.1,0.5,3.6
				c0,0.1,0.1,0.3,0.2,0.3c0.1,0,0.1-0.1,0.2-0.1c0,0,0,0,0,0c0.1,0,0.2-0.1,0.2-0.3c0.4-0.7,0.3-1.9,0.2-2.5
				c-0.1-0.6-0.4-1-0.7-1.3c0.3-0.9,0.9-2,1.7-1.3c1.3,2,0.5,9.2,0.8,11.3c0.2,1.3,0.5,2.5,0.9,3.7c-0.1,0.1-0.3,0.2-0.4,0.3
				c-0.2,0.1-0.1,0.5,0.1,0.4c0.1-0.1,0.3-0.1,0.4-0.2c0.1,0.4,0.3,0.7,0.4,1.1c-1.3,0.4-2.5,1-3.7,1.5c-0.2-1-0.4-2-0.6-2.7
				c-0.4-1.5-1-2.7-1.8-4c-1.6-3-2.5-5.7-2.1-9.2c0.6-0.3,1.1-0.2,1.6,0.1c-0.1,0.3-0.1,0.6-0.1,0.9C61.4,45.5,61.2,47.2,62.3,47.9z
				 M62.6,47.4c-0.7-0.5-0.8-1.6-0.7-2.5c0-0.4,0-0.9,0.1-1.3c0.2,0.3,0.4,0.6,0.5,1C62.7,45.6,62.4,46.6,62.6,47.4z M64.1,43.1
				c0-0.1,0-0.1,0-0.2c0.2,0.2,0.4,0.5,0.4,0.8c0.1,0.5,0.1,1.4-0.1,2C64,45.3,64.1,43.7,64.1,43.1z M68.9,57.8
				c0.8-0.1,1.5-0.1,2.3-0.1c0.3,0,0.3-0.5,0-0.5c-0.9,0-1.7,0.1-2.4,0.3c-0.2-0.4-0.3-0.8-0.4-1.2c0.3-0.2,0.6-0.3,0.9-0.5
				c0.3-0.2,0-0.6-0.2-0.4c-0.3,0.2-0.5,0.3-0.8,0.5c-0.1-0.5-0.3-1-0.4-1.5c0,0,0.1,0,0.1-0.1c0.2-0.2,0.4-0.4,0.7-0.4
				c0.3,0,0.2-0.6-0.1-0.5c-0.3,0.1-0.6,0.2-0.7,0.5c-0.5-2.8-0.6-5.6-0.3-8.8c0.2-2.1,0.3-3.7-1.6-4.8c-0.2-0.1-0.3,0.1-0.3,0.2
				c-0.7,0-1.5,0.8-1.7,1.6c0,0,0,0,0,0.1C63.6,42.1,63.3,42,63,42c0,0,0,0,0,0c-0.7-0.2-1,0.2-1.3,0.8c-0.5-0.4-1.2-0.4-1.7-0.2
				c-0.1-0.2-0.3-0.2-0.4,0c0,0.1,0,0.1,0,0.2c0,0-0.1,0.1-0.1,0.1c-0.1,0.1-0.1,0.3,0.1,0.4c-0.3,2.5-0.1,4.8,0.9,7.1
				c1,2.3,3.3,5.6,3.8,8.8c-0.8,0.3-1.5,0.5-2.4,0.6c-0.2,0-0.3,0.5,0,0.4c0.8,0,1.6-0.2,2.4-0.5c0.1,0.9-0.1,1.9-0.5,2.7
				c-2,0.5-4,0.4-6.1-0.9c-0.3-0.5-0.5-1-0.1-1.4c0.5-0.7,1.8-1.2,2.5-1.3c1-0.2,0.9-1.6,0.3-2.1c-1.1-5.4-2.9-10-4.9-15
				c-2.7-7-2.7-18.1,3.9-22.6c0,0,0,0,0,0c14-0.5,10.1,25.4,11,35.5c0,0,0,0,0,0c-0.1,0.5,0.1,0.9,0.6,1c0.7,0,1.4-0.1,2,0.4
				c0.2,0.2,0.6,0.5,0.7,0.9c0.2,0.7,0,0.9-0.5,1.4c-1,0.9-2.2,1.2-3.2,2.1C69.6,59.4,69.2,58.6,68.9,57.8z"/>
		</g>
		<g>
			<g>
				<path d="M58.3,13c-0.3-5.8-0.9-12.3-3-17.8c-0.5-1.2-2.2-0.8-2,0.5c0.8,5.9,2.3,11.6,3.1,17.5C56.5,14.3,58.3,14.1,58.3,13z"/>
			</g>
			<g>
				<path d="M66.5,11.3c1.7-5,3.7-10.2,4.5-15.4c0.2-1.2-1.4-1.7-1.8-0.5c-1.9,4.9-2.9,10.3-4.3,15.4C64.6,11.9,66.2,12.3,66.5,11.3
					z"/>
			</g>
			<g>
				<path d="M72.3,15.6c2.2-2.5,4.8-4.7,6.8-7.3c0.6-0.8-0.5-1.9-1.3-1.4c-2.8,1.8-5,4.9-6.9,7.6C70.3,15.3,71.6,16.3,72.3,15.6z"/>
			</g>
			<g>
				<path d="M75.8,22.2c1.4-0.3,2.9-0.5,4.3-0.8c1.3-0.2,2.6-0.2,3.6-1c0.5-0.4,0.2-1.2-0.3-1.4c-1.2-0.4-2.6,0.1-3.8,0.4
					c-1.4,0.3-2.8,0.6-4.3,1C74.1,20.7,74.6,22.4,75.8,22.2z"/>
			</g>
		</g>
		<g>
			<path class="st5" d="M64.9,31.6c-0.6,0.5-0.6,1.4,0,1.9c0.9,0.7,1.2,1.6,1.4,2.8c0.2,1.2-0.1,2.5,0.3,3.6c0.2,0.7,1,1,1.4,0.4
				C69.7,38.3,68.2,29.3,64.9,31.6z"/>
		</g>
		<g>
			<path class="st5" d="M66.1,28.2c0.5-0.9,0.6-2.1,0.2-3.1c-0.4-1-1.3-1.7-2.2-1.7l0.1,0.1c-0.4,0-0.9,0.2-1.2,0.5
				c-0.6,0.5-1.1,1-1.4,1.7c-0.3,0.7-0.3,1.6,0,2.2c0.2,0.4,0.5,0.6,0.8,0.9c0.9,0.7,2.3,1,3.1,0.2C65.8,28.7,65.9,28.4,66.1,28.2z"
				/>
		</g>
	</g>
	<g class="st3">
		<g>
			<path class="st9" d="M21.7,83.3C21.1,75,23.8,67,27.6,59.5c1.1-2.1,3.1-4.1,5.5-5.1c4-1.6,7.6,0.3,10.1,3.5
				c2.6,3.2,3,7.1,3.1,10.9c0.4,10.7-3.1,19-6.6,29.1c2,0.1,2.4,2.6,3.1,4.2c0.8,1.7-1.1,1.9-3,2.7c-4.6,1.9-8.2,1-13.5,0.3
				c-1.7-0.2-4.7-1.3-6-2.3c-1.3-1-1.1-3-0.1-4.1c1-1.3,2.9,0.6,3.8-0.8c0.7-0.9,1.4-1.6,1.1-2.7c-1.4-5.4-0.8-9.3-2.2-14.7"/>
		</g>
		<g>
			<g>
				<path d="M45.8,120.4c-1.2,0-1.4,1.4-0.6,2c0.5,0.4,1.6,0.7,1.9,1.2c0.5,0.9-0.4,2.7-0.8,3.5c-0.8,1.6-1.7,2-3,2
					c-2.5-1.9-3.3-9.5-3.9-11.9c-0.9-3.6-1.6-7.2-2.5-10.8c1.6-0.1,3.2-0.9,4.7-1.3c1.5-0.5,2.7-1.1,2.9-2.9
					c0.2-1.9-1.3-4.6-3.2-5.1c3.8-9.5,7.3-21.7,6.9-31.8c-0.2-5.8-3.4-10.7-8.8-12.4c-0.1-0.2-0.3-0.3-0.6-0.4
					c-6.9-1.8-13.7,7.1-16,12.7c-4,9.8,0.4,20.8-0.1,31.1c-1.6,0.2-3.4,0.7-4.2,2c-0.8,1.2-0.7,3,0.1,4.2c0,0,0,0.1,0,0.1
					c1.5,2.9,4.7,4.3,8.3,4.7c0.4,13.3,1,39.8-5.2,52c-0.3,0.2-0.5,0.5-0.8,0.7c-0.3,0.2-0.8,0.8-1.2,0.8c-0.9,0.1-1.3-0.7-1.6-1.3
					c-0.7-1.8,0.1-4,1.6-5c0.8-0.6,0.7-2-0.5-2c-4,0-4.9,5.9-3.5,8.7c0.9,1.7,2.6,3,4.5,2.4c1.8-0.5,3.8-2.3,4.5-4
					c0.1-0.2,0.1-0.5,0-0.7c2.7-4.3,5.1-20.6,5.3-25.7c0.4-8.5-0.2-17.1-0.5-25.7c1.5,0,3.1-0.2,4.5-0.4c1.1,6,2.5,11.9,4.1,17.8
					c0.7,2.5,1.2,5.8,3.5,6.7c2.7,1.9,6.1-1.3,7.2-3.7c0.7-1.6,1.5-3.4,0.7-5C49,121.3,47.3,120.4,45.8,120.4z M28.7,104.4
					c0.6-0.7,1-1.7,1.2-2.8c0.4,0,0.8,0,1.2-0.1c1.3-0.2,2.5-0.6,3.8-0.5c0.1,0,0.2,0,0.3,0c0.2,1.1,0.4,2.2,0.8,3.3
					C33.5,104.2,31,104.5,28.7,104.4z M30.8,87.7c0.1,0.1,0.2,0.2,0.4,0.2c0.1,0,0.2,0,0.2-0.1c0.7-1.5,1.5-3.3,0.8-5
					c-0.1-0.1-0.1-0.3-0.2-0.4c0.3-0.3,0.6-0.5,1-0.5c0,0,0.1,0.1,0.1,0.1c0.4,0.1,0.7,0.3,1,0.5c-0.6,1.2-1.3,3.3-0.5,4.1
					c-0.1,0.1,0,0.4,0.2,0.4c0.1,0,0.2,0,0.3-0.1c0,0,0,0,0,0c0.2,0.1,0.3-0.1,0.3-0.2c0.7-0.6,1-1.9,1.1-2.6c0-0.7-0.2-1.2-0.5-1.6
					c0.6-0.9,1.7-1.9,2.5-0.8c1,2.7-2.3,10.3-2.6,12.7c-0.2,1.5-0.2,2.9-0.1,4.3c-0.2,0-0.4,0.1-0.6,0.1c-0.2,0.1-0.2,0.5,0.1,0.5
					c0.2,0,0.4-0.1,0.6-0.1c0,0.5,0.1,0.9,0.2,1.4c-1.7,0-3.4,0.2-5.1,0.3c0.1-1.1,0.1-2.3,0.1-3.2c0-1.8-0.4-3.3-0.9-5
					c-1.1-3.9-1.3-7.2,0.3-10.9c0.8-0.1,1.5,0.2,1.9,0.7c-0.2,0.3-0.3,0.6-0.4,0.9C30.4,84.8,29.6,86.5,30.8,87.7z M31.2,84.4
					c0.2-0.4,0.3-0.9,0.5-1.4c0.2,0.4,0.3,0.8,0.3,1.3c0,1.1-0.7,2.1-0.7,3.1C30.5,86.5,30.8,85.4,31.2,84.4z M34.6,83.1
					c0-0.1,0.1-0.1,0.1-0.2c0.2,0.3,0.3,0.6,0.3,1.1c0,0.6-0.3,1.6-0.8,2.1C33.7,85.4,34.3,83.8,34.6,83.1z M35.8,101
					c1,0.1,1.9,0.4,2.8,0.7c0.3,0.1,0.5-0.4,0.2-0.5c-1-0.4-2.1-0.5-3.1-0.6c-0.1-0.5-0.1-1-0.1-1.5c0.4-0.1,0.8-0.2,1.2-0.2
					c0.4-0.1,0.2-0.6-0.1-0.6c-0.4,0.1-0.7,0.1-1.1,0.2c0-0.6,0-1.2,0-1.8c0,0,0.1,0,0.1,0c0.3-0.2,0.6-0.2,1-0.2
					c0.4,0.1,0.4-0.5,0-0.6c-0.4-0.1-0.8,0.1-1.1,0.3c0.2-3.2,1.1-6.3,2.4-9.8c0.9-2.3,1.5-4-0.4-5.8c-0.2-0.2-0.4,0-0.5,0.1
					c-0.9-0.3-2.1,0.3-2.6,1.2c0,0,0,0,0,0.1c-0.3-0.2-0.6-0.3-0.9-0.4c0,0,0,0,0-0.1c-0.8-0.4-1.3-0.1-1.8,0.4
					c-0.5-0.6-1.3-0.9-2.1-0.8c-0.1-0.2-0.4-0.3-0.5-0.1c0,0.1-0.1,0.1-0.1,0.2c-0.1,0-0.1,0-0.2,0.1c-0.2,0.1-0.2,0.3,0,0.4
					c-1.2,2.6-1.6,5.3-1.1,8.2c0.5,2.9,2.3,7.4,1.8,10.9c-1,0-2,0-3.1-0.2c-0.3-0.1-0.5,0.4-0.1,0.5c1,0.3,2.1,0.4,3.1,0.4
					c-0.2,1.1-0.7,2-1.5,2.8c-2.6-0.2-5.1-1-7.2-3.2c-0.2-0.6-0.3-1.2,0.3-1.6c0.9-0.6,2.6-0.6,3.6-0.6c1.3,0.1,1.7-1.4,1-2.2
					c0.4-6.3-0.4-12-1.2-18.3c-1.1-8.6,2.4-20.8,12-23.4c0,0,0,0,0,0c17.4,4.5,4.4,31.5,2.3,42.9c0,0,0,0,0,0.1
					c-0.3,0.5-0.1,1.1,0.5,1.3c0.9,0.3,1.7,0.4,2.3,1.2c0.2,0.3,0.5,0.8,0.5,1.2c0.1,0.9-0.3,1-1.1,1.3c-1.5,0.6-3.2,0.5-4.6,1.1
					C36.1,103,35.9,102,35.8,101z"/>
			</g>
			<g>
				<path class="st5" d="M39.2,70.8c-0.9,0.3-1.2,1.3-0.6,2.1c0.9,1.1,1,2.2,0.9,3.6c-0.1,1.4-0.9,2.7-0.8,4c0,0.8,0.9,1.5,1.7,1
					C43,79.8,43.9,69.4,39.2,70.8z"/>
			</g>
			<g>
				<path class="st5" d="M40.8,68c0.3-0.1,0.6-0.3,0.8-0.6c0.9-0.8,1.4-2.1,1.3-3.3c-0.2-1.2-1-2.4-2.2-2.7l0.1,0.1
					c-0.5-0.2-1.1-0.1-1.6,0.1c-0.8,0.3-1.6,0.7-2.2,1.4c-0.6,0.7-0.9,1.6-0.7,2.5c0.1,0.5,0.4,0.9,0.7,1.2
					C38,67.8,39.5,68.6,40.8,68z"/>
			</g>
		</g>
	</g>
	<g class="st3">
		<g>
			<path class="st10" d="M109.6,37.6c-0.3,4.3-1.7,8.5-3.9,12.2c-1.5,2.6-3.6,4.9-6.4,6.1c-2.7,1.2-6.3,0.9-8.3-1.3
				c-1.6-1.7-2.1-4.2-2.2-6.6c-0.3-7.1,1-12.9,5.4-18.5c1.4-1.8,1.1-4.1,1.9-6.3c0.2-0.5,1.6-2.5,1.4-3c-0.4-1.6-2.5-2.4-2.2-4
				c0.1-0.9,1.9-0.4,2.7-0.6c4.6-1.4,9.5,0,14,1.7c1.1,0.4,2.3,1,2.5,2.1c0.1,0.8-0.3,1.6-0.9,2.1c-0.6,0.5-1.4,0.8-2.2,1
				c-0.8,0.2-1.6,0.5-2,1.2c-0.2,0.3-0.2,0.7-0.2,1.1c-0.2,5.3,0.6,10.8-1.6,15.6"/>
		</g>
		<g>
			<path d="M95.4,0.8c1,0.2,1.3-1,0.8-1.6c-0.4-0.4-1.2-0.8-1.4-1.3c-0.3-0.8,0.7-2.2,1.1-2.8c0.9-1.2,1.7-1.4,2.8-1.2
				c1.9,1.9,1.6,8.3,1.7,10.4c0.3,3.1,0.4,6.2,0.7,9.3c-1.3-0.1-2.8,0.3-4.1,0.5c-1.3,0.2-2.4,0.6-2.8,2c-0.4,1.6,0.5,4,2,4.7
				c-4.4,7.4-8.9,17.1-9.8,25.7c-0.6,4.9,1.5,9.4,5.8,11.5c0.1,0.2,0.2,0.3,0.4,0.4c5.6,2.4,12.3-4.1,14.9-8.5
				c4.6-7.7,2.4-17.4,4-25.9c1.4,0.1,2.9-0.2,3.8-1.2c0.8-0.9,1-2.4,0.4-3.5c0,0,0-0.1,0-0.1c-0.9-2.6-3.4-4.2-6.3-5
				c1.4-11.2,1.3-24.4,8.1-33.7c0.3-0.2,0.5-0.3,0.8-0.5c0.3-0.2,0.7-0.5,1.1-0.5c0.7,0,1,0.7,1.2,1.3c0.4,1.6-0.6,3.3-2,4
				c-0.8,0.4-0.8,1.6,0.2,1.7c3.4,0.5,4.9-4.3,4-6.8c-0.5-1.5-1.8-2.8-3.5-2.6c-1.6,0.2-3.5,1.5-4.3,2.8c-0.1,0.2-0.1,0.4-0.1,0.6
				c-2.8,3.2-4,7.6-4.8,11.8c-1.4,7.1-2,14.3-2.9,21.5c-1.3-0.2-2.6-0.3-3.8-0.2c-0.1-5.1-0.6-10.2-1.1-15.3c-0.2-2.2-0.3-5-2-6
				c-2-1.9-5.3,0.3-6.5,2.2C93-4.6,92-3.2,92.5-1.7C92.9-0.4,94.1,0.5,95.4,0.8z M107.6,16.3c-0.6,0.5-1.1,1.3-1.3,2.2
				c-0.3,0-0.7-0.1-1-0.1c-1.1,0-2.2,0.2-3.3,0c-0.1,0-0.1,0-0.2-0.1c0-0.9-0.1-1.9-0.2-2.8C103.6,15.8,105.7,15.9,107.6,16.3z
				 M103.7,29.9c0-0.1-0.1-0.2-0.3-0.3c-0.1,0-0.2,0-0.2,0.1c-0.8,1.2-1.7,2.6-1.3,4.1c0,0.1,0.1,0.2,0.1,0.4
				c-0.2,0.2-0.5,0.3-0.9,0.3c0,0,0-0.1-0.1-0.1c-0.3-0.2-0.5-0.3-0.7-0.5c0.6-0.9,1.5-2.6,1-3.4c0.1-0.1,0.1-0.3-0.1-0.3
				c-0.1,0-0.2,0-0.2,0c0,0,0,0,0,0c-0.1-0.1-0.3,0-0.3,0.1c-0.6,0.4-1.1,1.5-1.2,2.1c-0.1,0.6,0,1,0.2,1.4
				c-0.6,0.7-1.7,1.3-2.2,0.3c-0.5-2.4,3.3-8.3,3.8-10.2c0.3-1.2,0.5-2.4,0.6-3.6c0.2,0,0.4,0,0.5,0c0.2,0,0.2-0.4,0-0.4
				c-0.2,0-0.3,0-0.5,0c0-0.4,0-0.8,0-1.2c1.4,0.2,2.8,0.3,4.3,0.4c-0.2,0.9-0.4,1.9-0.5,2.7c-0.2,1.5-0.1,2.8,0.1,4.3
				c0.4,3.4,0.1,6.2-1.7,9c-0.7,0-1.2-0.3-1.5-0.8c0.2-0.2,0.4-0.5,0.5-0.7C103.7,32.4,104.6,31.1,103.7,29.9z M103.3,30.2
				c0.5,0.8,0.1,1.7-0.3,2.5c-0.2,0.3-0.4,0.7-0.6,1.1c-0.1-0.3-0.1-0.7-0.1-1.1C102.4,31.7,103.2,31,103.3,30.2z M100,33.3
				c0,0-0.1,0.1-0.1,0.1c-0.1-0.3-0.2-0.6-0.1-0.9c0.1-0.5,0.5-1.3,0.9-1.7C101.1,31.5,100.3,32.7,100,33.3z M101.3,18.2
				c-0.8-0.2-1.5-0.6-2.3-0.9c-0.3-0.1-0.5,0.3-0.2,0.4c0.8,0.4,1.6,0.7,2.5,0.9c0,0.4,0,0.8-0.1,1.3c-0.4,0-0.7,0-1.1,0
				c-0.3,0-0.3,0.5,0,0.5c0.3,0,0.6,0,1,0c-0.1,0.5-0.1,1-0.2,1.5c0,0-0.1,0-0.1,0c-0.3,0.1-0.5,0.1-0.8,0c-0.3-0.1-0.4,0.4-0.1,0.5
				c0.3,0.1,0.7,0,0.9-0.1c-0.6,2.6-1.7,5.2-3.2,7.9c-1,1.8-1.8,3.1-0.4,4.9c0.1,0.2,0.3,0.1,0.4,0c0.7,0.4,1.8,0,2.3-0.7
				c0,0,0,0,0,0c0.2,0.2,0.4,0.3,0.7,0.4c0,0,0,0,0,0.1c0.6,0.5,1.1,0.3,1.5-0.1c0.4,0.6,1,0.9,1.6,1c0,0.2,0.3,0.3,0.4,0.1
				c0-0.1,0.1-0.1,0.1-0.2c0.1,0,0.1,0,0.2,0c0.2,0,0.2-0.2,0.1-0.4c1.3-2,2-4.2,2-6.7c-0.1-2.5-1-6.4-0.1-9.4
				c0.9,0.1,1.7,0.3,2.6,0.5c0.3,0.1,0.4-0.3,0.2-0.4c-0.8-0.3-1.7-0.6-2.6-0.7c0.3-0.8,0.8-1.6,1.6-2.1c2.2,0.5,4.1,1.5,5.6,3.6
				c0.1,0.5,0.1,1-0.4,1.3c-0.8,0.4-2.2,0.2-3,0c-1.1-0.2-1.6,1-1.1,1.7c-1.1,5.2-1.2,10.1-1.3,15.4c-0.2,7.3-4.7,17.1-13,18
				c0,0,0,0,0,0c-13.9-5.9,0.4-26.8,3.6-36c0,0,0,0,0,0c0.3-0.4,0.2-0.9-0.2-1.1c-0.7-0.4-1.4-0.6-1.8-1.3c-0.2-0.3-0.3-0.7-0.3-1.1
				c0.1-0.7,0.4-0.8,1-1c1.3-0.3,2.7-0.1,4-0.3C101.3,16.5,101.3,17.4,101.3,18.2z"/>
		</g>
		<g>
			<path class="st5" d="M94.6,42.9c0.8-0.1,1.2-1,0.8-1.6c-0.6-1-0.6-1.9-0.2-3.1c0.3-1.1,1.1-2.1,1.2-3.3c0.1-0.7-0.6-1.3-1.2-1
				C92.6,34.9,90.4,43.5,94.6,42.9z"/>
		</g>
		<g>
			<path class="st5" d="M92.1,45.4C91.2,46,90.6,47,90.6,48c0,1,0.6,2.1,1.5,2.5L92,50.5c0.4,0.2,0.9,0.2,1.4,0.1
				c0.7-0.1,1.5-0.4,2-0.9s1-1.2,0.9-2c0-0.4-0.2-0.8-0.4-1.1c-0.6-1-1.8-1.9-3-1.6C92.6,45.1,92.3,45.3,92.1,45.4z"/>
		</g>
	</g>
	<g class="st3">
		<g>
			<path d="M132.1,45.4c-2.5-1.1-7-2.2-9.7-1.6c-2.7,0.7-5.1,3.3-4.5,6c0.4,1.9,2.1,3.3,3.9,3.7c1.9,0.4,3.8-0.1,5.5-1
				c1.6-0.9,2.1-1.4,2.9-3C131.1,48.2,131.7,47,132.1,45.4z"/>
		</g>
		<g>
			<path class="st8" d="M130.4,45.3c1.8-7.8,3.2-15.4,5-23.2L130.4,45.3z"/>
			<g>
				<path d="M131.9,45.7c1.8-7.7,3.2-15.5,5-23.2c-1-0.3-1.9-0.5-2.9-0.8c-1.5,6.8-2.9,13.5-4.4,20.3c-0.2,1-0.4,1.9-0.6,2.9
					C128.6,46.8,131.5,47.6,131.9,45.7c1.5-6.8,2.9-13.5,4.4-20.3c0.2-1,0.4-1.9,0.6-2.9c0.4-1.9-2.5-2.7-2.9-0.8
					c-1.8,7.7-3.2,15.5-5,23.2C128.5,46.8,131.4,47.6,131.9,45.7z"/>
			</g>
		</g>
		<g>
			<path d="M137.6,41.3c0.4,0.4,2.3,0.8,2.8,0.9c-0.4-0.2-2.8-0.5-3.2-0.8c-0.3-0.4-0.5-0.9-0.4-1.4c0.1-0.3,0.2-0.5,0.4-0.8
				c1-1.6,2.5-5.7,3.6-7.1c0.4-0.6,1-1.8,1-2.5c0-0.6-0.4-1.1-0.9-1.4c-0.8-0.5-4.4-2.4-5.3-2l0.9-3c1.2,0,4.4,1.6,5.8,2.9
				c0.9,0.8,2,1.5,2.1,2.8c0.1,1.2,0,2.5-0.8,3.5c-0.8,1,0,0-2,2c-1,1-2,2-3,3C138.6,37.3,136.6,40.3,137.6,41.3z"/>
			<g>
				<path d="M136.6,42.4c1,0.8,2.3,1,3.5,1.3c1.6,0.4,2.8-2,1.2-2.7c-0.9-0.4-1.8-0.5-2.8-0.7c-0.1,0-0.2-0.1-0.3-0.1
					c0,0,0.1,0,0.1,0.1c0.2,0.2,0.3,0.3,0.2,0.1c0.1-0.1,0.1-0.2,0.2-0.4c0.2-0.4,0.5-0.8,0.7-1.2c1-2.1,1.9-4.2,3.1-6.1
					c0.7-1.1,1.3-2.5,1-3.8c-0.3-1.2-1.2-1.9-2.2-2.5c-1.5-0.9-3.9-2.3-5.8-1.8c0.6,0.6,1.2,1.2,1.8,1.8c0.3-1,0.6-2,0.9-3
					c-0.5,0.4-1,0.7-1.4,1.1c-0.3,0,0.3,0.1,0.4,0.1c0.3,0.1,0.6,0.2,0.8,0.3c0.5,0.2,1,0.5,1.5,0.8c1,0.6,1.9,1.2,2.8,2
					c0.9,0.8,1.2,1.9,0.7,3.1c-0.2,0.4-0.5,0.7-0.8,1.1c-0.7,0.7-1.5,1.4-2.2,2.1c-0.9,0.9-2,1.7-2.6,2.8
					C136.2,38.4,135.2,40.7,136.6,42.4c1.2,1.5,3.4-0.7,2.1-2.1c0.3,0.4,0.1,0.5,0.2,0.1c0,0,0.1-0.4,0.2-0.5
					c0.1-0.4,0.3-0.8,0.6-1.1c0.5-0.9,1.4-1.5,2.1-2.3c1.2-1.2,2.7-2.3,3.6-3.8c0.7-1.3,1-3,0.6-4.5c-0.3-1.4-1.4-2.3-2.5-3.2
					c-1.8-1.5-4.4-3.1-6.9-3.3c-0.7,0-1.3,0.5-1.4,1.1c-0.3,1-0.6,2-0.9,3c-0.3,1.1,0.8,2.2,1.8,1.8c0.1,0,0,0,0,0
					c0.1,0.1,0.4,0.1,0.5,0.1c0.4,0.1,0.9,0.3,1.3,0.5c0.7,0.3,1.7,0.7,2.3,1.2c0.3,0.3,0.3,0.2,0.2,0.6c-0.2,0.5-0.4,0.9-0.7,1.4
					c-0.6,0.9-1,1.8-1.5,2.7c-0.5,1-1,2.1-1.5,3.1c-0.5,1-1.3,2-1.3,3.2c0,1.4,0.8,2.4,2.1,2.8c0.5,0.1,0.9,0.2,1.4,0.3
					c0.2,0,0.4,0.1,0.6,0.1c0.1,0,0.7,0.2,0.3,0c0.4-0.9,0.8-1.8,1.2-2.7c-0.4-0.1-0.8-0.2-1.2-0.3c-0.2-0.1-0.4-0.1-0.7-0.2
					c-0.1,0-0.6-0.3-0.3,0c-0.6-0.5-1.5-0.6-2.1,0C136.1,40.8,135.9,41.9,136.6,42.4z"/>
			</g>
		</g>
	</g>
	<g class="st3">
		<g>
			<path d="M154.4,58.9c-1.3-1.3-1.6-3.4-1-5.1c0.6-1.7,2.1-3,3.8-3.8c1.7-0.8,4-1,5.5,0.2c1.9,1.6,1.4,4.9-0.4,6.6
				s-5.7,1.7-8.2,1.8"/>
			<g>
				<path d="M155.4,57.9c-0.1-0.1-0.2-0.2-0.3-0.3c0.2,0.2-0.1-0.1-0.1-0.1c-0.1-0.1-0.1-0.2-0.2-0.3c0-0.1-0.2-0.3,0-0.1
					c-0.1-0.2-0.2-0.5-0.2-0.8c0-0.1,0-0.2,0-0.3c0.1,0.3,0-0.2,0-0.3c0-0.2,0-0.4,0-0.7c0,0.3,0-0.1,0-0.1c0-0.1,0.1-0.3,0.1-0.4
					c0-0.1,0.1-0.2,0.1-0.3c0-0.1,0.2-0.3,0-0.1c0.1-0.3,0.3-0.5,0.4-0.8c0.1-0.1,0.1-0.2,0.2-0.3c-0.2,0.2,0.1-0.1,0.1-0.1
					c0.2-0.2,0.3-0.3,0.5-0.5c0.1-0.1,0.2-0.2,0.3-0.3c0.3-0.3-0.2,0.1,0.1-0.1c0.2-0.2,0.5-0.3,0.7-0.5c0.2-0.1,0.5-0.2,0.7-0.4
					c0.2-0.1-0.3,0.1,0.1,0c0.1,0,0.3-0.1,0.4-0.1c0.2-0.1,0.5-0.1,0.7-0.2c0,0,0.5-0.1,0.2,0c0.2,0,0.4,0,0.6,0c0.2,0,0.5,0,0.7,0
					c-0.3,0,0.1,0,0.1,0c0.1,0,0.2,0.1,0.3,0.1c0.1,0,0.3,0.1,0.1,0c0.1,0.1,0.2,0.1,0.4,0.2c0,0,0.4,0.3,0.1,0.1
					c0.1,0.1,0.2,0.2,0.3,0.2c0.1,0.1,0.2,0.4,0.1,0.1c0.1,0.1,0.1,0.2,0.2,0.3c0,0.1,0.1,0.1,0.1,0.2c-0.2-0.3,0,0,0,0.1
					c0,0.1,0.1,0.2,0.1,0.3c0,0,0.1,0.4,0,0.1c0-0.2,0,0.1,0,0.1c0,0.2,0,0.3,0,0.5c0,0.1,0,0.2,0,0.3c0,0.2,0.1-0.3,0,0
					c-0.1,0.2-0.1,0.5-0.2,0.7c0,0.1-0.1,0.2-0.1,0.2c0.1-0.3,0,0,0,0.1c-0.1,0.2-0.2,0.4-0.4,0.6c-0.2,0.3,0.2-0.2-0.1,0.1
					c-0.1,0.1-0.2,0.2-0.2,0.3c-0.1,0.1-0.5,0.4-0.2,0.2c-0.2,0.1-0.4,0.3-0.6,0.4c-0.1,0-0.1,0.1-0.2,0.1c-0.1,0-0.1,0.1-0.2,0.1
					c0.2-0.1,0.2-0.1,0,0c-0.5,0.2-1,0.3-1.6,0.4c-0.3,0.1-0.5,0.1-0.8,0.1c0.4-0.1-0.1,0-0.1,0c-0.1,0-0.3,0-0.4,0
					c-1.1,0.1-2.1,0.1-3.2,0.2c-0.8,0-1.5,0.7-1.5,1.5c0,0.8,0.7,1.5,1.5,1.5c2.3-0.1,4.8-0.1,7-0.9c1.3-0.5,2.3-1.2,3.1-2.3
					c0.8-1,1.2-2.3,1.3-3.6c0.1-1.2-0.3-2.5-1-3.5c-0.9-1.2-2.3-1.8-3.8-2c-2.7-0.2-5.5,1.2-7.2,3.3c-1,1.3-1.7,2.8-1.7,4.5
					c0,1.6,0.6,3.2,1.7,4.4c0.6,0.6,1.6,0.6,2.1,0C156,59.4,156,58.4,155.4,57.9L155.4,57.9z"/>
			</g>
		</g>
		<g>
			<g>
				<path d="M135.2,73.5c3,6.6,6.1,13.3,9,19.9c0.3,0.6,1.1,0.9,1.7,0.7c4.7-1.5,9.4-3,14.1-4.5c2.2-0.7,4.4-1.3,6.6-2.1
					c2.4-0.9,1.1-3.1,0.4-4.7c-3.6-8.6-7.7-17.1-12.2-25.3c-0.9-1.7-3.5-0.2-2.6,1.5c2.4,4.4,4.7,8.9,6.9,13.4
					c1.1,2.2,2.1,4.5,3.1,6.7c0.5,1.2,1,2.3,1.5,3.5c0.3,0.6,0.5,1.2,0.8,1.8c0.1,0.3,0.6,1,0.5,1.4c0.1-0.4,0.3-0.7,0.4-1.1
					c0.4-0.2,0.5-0.2,0.1-0.1c-0.2,0.1-0.5,0.2-0.7,0.2c-0.5,0.2-0.9,0.3-1.4,0.5c-0.8,0.3-1.6,0.5-2.4,0.8
					c-1.8,0.6-3.6,1.2-5.4,1.7c-3.5,1.1-7.1,2.3-10.6,3.4c0.6,0.2,1.1,0.5,1.7,0.7c-3-6.7-6-13.3-9-19.9
					C137,70.3,134.4,71.8,135.2,73.5L135.2,73.5z"/>
			</g>
		</g>
		<g>
			<path d="M137,73c-1.3-1.3-1.6-3.4-1-5.1s2.1-3,3.8-3.8c1.7-0.8,4-1,5.5,0.2c1.9,1.6,1.4,4.9-0.4,6.6c-1.8,1.7-5.7,1.7-8.2,1.8"/>
			<g>
				<path d="M138,71.9c-0.1-0.1-0.2-0.2-0.3-0.3c0.2,0.2-0.1-0.1-0.1-0.1c-0.1-0.1-0.1-0.2-0.2-0.3c0-0.1-0.2-0.3,0-0.1
					c-0.1-0.2-0.2-0.5-0.2-0.8c0-0.1,0-0.2,0-0.3c0.1,0.3,0-0.2,0-0.3c0-0.2,0-0.4,0-0.7c0,0.3,0-0.1,0-0.1c0-0.1,0.1-0.3,0.1-0.4
					c0-0.1,0.1-0.2,0.1-0.3c0-0.1,0.2-0.3,0-0.1c0.1-0.3,0.3-0.5,0.4-0.8c0.1-0.1,0.1-0.2,0.2-0.3c-0.2,0.2,0.1-0.1,0.1-0.1
					c0.2-0.2,0.3-0.3,0.5-0.5c0.1-0.1,0.2-0.2,0.3-0.3c0.3-0.3-0.2,0.1,0.1-0.1c0.2-0.2,0.5-0.3,0.7-0.5c0.2-0.1,0.5-0.2,0.7-0.4
					c0.2-0.1-0.3,0.1,0.1,0c0.1,0,0.3-0.1,0.4-0.1c0.2-0.1,0.5-0.1,0.7-0.2c0,0,0.5-0.1,0.2,0c0.2,0,0.4,0,0.6,0c0.2,0,0.5,0,0.7,0
					c-0.3,0,0.1,0,0.1,0c0.1,0,0.2,0.1,0.3,0.1c0.1,0,0.3,0.1,0.1,0c0.1,0.1,0.2,0.1,0.4,0.2c0,0,0.4,0.3,0.1,0.1
					c0.1,0.1,0.2,0.2,0.3,0.2c0.1,0.1,0.2,0.4,0.1,0.1c0.1,0.1,0.1,0.2,0.2,0.3c0,0.1,0.1,0.1,0.1,0.2c-0.2-0.3,0,0,0,0.1
					c0,0.1,0.1,0.2,0.1,0.3c0,0,0.1,0.4,0,0.1c0-0.2,0,0.1,0,0.1c0,0.2,0,0.3,0,0.5c0,0.1,0,0.2,0,0.3c0,0.2,0.1-0.3,0,0
					c-0.1,0.2-0.1,0.5-0.2,0.7c0,0.1-0.1,0.2-0.1,0.2c0.1-0.3,0,0,0,0.1c-0.1,0.2-0.2,0.4-0.4,0.6c-0.2,0.3,0.2-0.2-0.1,0.1
					c-0.1,0.1-0.2,0.2-0.2,0.3c-0.1,0.1-0.5,0.4-0.2,0.2c-0.2,0.1-0.4,0.3-0.6,0.4c-0.1,0-0.1,0.1-0.2,0.1c-0.1,0-0.1,0.1-0.2,0.1
					c0.2-0.1,0.2-0.1,0,0c-0.5,0.2-1,0.3-1.6,0.4c-0.3,0.1-0.5,0.1-0.8,0.1c0.4-0.1-0.1,0-0.1,0c-0.1,0-0.3,0-0.4,0
					c-1.1,0.1-2.1,0.1-3.2,0.2c-0.8,0-1.5,0.7-1.5,1.5c0,0.8,0.7,1.5,1.5,1.5c2.3-0.1,4.8-0.1,7-0.9c1.3-0.5,2.3-1.2,3.1-2.3
					c0.8-1,1.2-2.3,1.3-3.6c0.1-1.2-0.3-2.5-1-3.5c-0.9-1.2-2.3-1.8-3.8-2c-2.7-0.2-5.5,1.2-7.2,3.3c-1,1.3-1.7,2.8-1.7,4.5
					c0,1.6,0.6,3.2,1.7,4.4c0.6,0.6,1.6,0.6,2.1,0C138.6,73.5,138.6,72.5,138,71.9L138,71.9z"/>
			</g>
		</g>
		<g>
			<g>
				<path d="M143.9,88.9c3.7-1.4,7.4-2.7,11.1-4c1.8-0.6,3.7-1.2,5.5-1.7c0.9-0.3,1.8-0.5,2.7-0.8c0.9-0.2,2-0.3,2.5-1.2
					c0.3-0.4,0.3-1.1,0-1.5c0,0,0,0-0.1-0.1c-1.1-1.5-3.7-0.1-2.6,1.5c0,0,0,0,0.1,0.1c0-0.5,0-1,0-1.5c0,0,0,0,0,0.1
					c0.3-0.2,0.6-0.5,0.9-0.7c-7.1,1.8-14,4.3-20.9,6.8C141.3,86.7,142.1,89.6,143.9,88.9L143.9,88.9z"/>
			</g>
		</g>
	</g>
	<g class="st3">
		<g>
			<path d="M36.6,46.6c-0.4-5.8-0.6-12.3,0.7-18c0.3-1.3,2.1-1.1,2,0.2c-0.1,5.9-0.8,11.8-0.9,17.7C38.5,47.7,36.7,47.7,36.6,46.6z"
				/>
		</g>
		<g>
			<path d="M28.3,46c-2.3-4.7-5-9.6-6.4-14.7c-0.3-1.2,1.1-1.8,1.7-0.8c2.5,4.6,4.2,9.9,6.2,14.8C30.2,46.3,28.7,46.9,28.3,46z"/>
		</g>
		<g>
			<path d="M23.1,50.9c-2.4-2.2-5.3-4.1-7.6-6.4c-0.7-0.7,0.3-1.9,1.1-1.5c3,1.5,5.6,4.2,7.8,6.7C25,50.4,23.8,51.6,23.1,50.9z"/>
		</g>
		<g>
			<path d="M20.4,57.9c-1.5-0.1-2.9-0.2-4.4-0.2c-1.3-0.1-2.6,0.1-3.7-0.5c-0.6-0.3-0.4-1.2,0.2-1.5c1.1-0.5,2.6-0.2,3.8-0.1
				c1.5,0.1,2.9,0.3,4.3,0.4C21.9,56.2,21.6,58,20.4,57.9z"/>
		</g>
	</g>
</g>
</svg>
