<svg xmlns="http://www.w3.org/2000/svg" xmlns:xlink="http://www.w3.org/1999/xlink" viewBox="0 0 431 190" xmlns:v="https://vecta.io/nano"><path d="M406.6 181.5H24.4c-9.6 0-17.4-7.8-17.4-17.4V25.9c0-9.6 7.8-17.4 17.4-17.4h382.2c9.6 0 17.4 7.8 17.4 17.4v138.2c0 9.6-7.8 17.4-17.4 17.4z" fill="#c2e1e3"/><use xlink:href="#B" fill="#000005"/><path d="M109.9 85.8c1.1-4.9 1.1-10.1.1-15.1-.7-3.5-1.9-6.9-4.3-9.3-2.3-2.4-5.9-3.5-8.7-1.9-2.2 1.2-3.5 3.8-4.4 6.4-2.7 7.7-3.3 14.7-.8 22.6.8 2.6-.2 5-.1 7.7 0 .6.7 3.4.4 3.9-1 1.7-3.2 1.6-3.5 3.6-.1 1 1.8 1.2 2.5 1.8 4.1 3.3 9.4 3.8 14.4 3.8 1.2 0 2.6-.2 3.2-1.4.4-.8.2-1.9-.2-2.7s-1.1-1.4-1.8-1.9-1.5-1.2-1.6-2.1c-.1-.4 0-.9.2-1.3 1.6-5.9 5.9-11.9 5.2-18.1" fill="#f9b903"/><path d="M108.9 49.3c1.5-6.4 3.5-13.5 6.9-19.2.8-1.3 2.6-.5 2.1 1-2.1 6.3-4.9 12.4-7 18.8-.4 1.2-2.3.6-2-.6zm-8.8-3.6c-.8-5.9-2.1-12.1-1.9-18 0-1.4 1.9-1.6 2.1-.2 1.2 5.8 1.2 12.1 1.6 18 .1 1.2-1.7 1.4-1.8.2zm-7.3 3.6c-1.9-3.2-4.4-6.2-6-9.5-.5-1 .9-2 1.7-1.2 2.7 2.6 4.5 6.4 6.1 9.8.4 1-1.3 1.9-1.8.9zm-5.3 6.6l-4.6-1.7c-1.4-.5-2.8-.8-3.8-1.8-.5-.6 0-1.4.7-1.5 1.4-.2 2.9.7 4.1 1.2l4.5 2c1.3.5.4 2.3-.9 1.8z"/><path d="M97 74.3c.8.4.9 1.5.2 2.1-1 .9-1.2 1.9-1.3 3.4-.1 1.4.4 2.8.1 4.1-.1.8-1 1.2-1.6.6-2-2.2-1.3-12.5 2.6-10.2zm-1.7-3.7c-.7-1-.9-2.3-.6-3.5S96 65 97 64.9l-.1.1c.4-.1 1 .1 1.4.4.7.4 1.3 1 1.7 1.8s.5 1.7.2 2.5a4.44 4.44 0 0 1-.8 1.1c-1 .9-2.4 1.3-3.5.5-.2-.2-.4-.5-.6-.7z" fill="#fff"/><path d="M95.4 110.3l.2-.6.6.3c1.2.5 2.5.9 3.7 1.2l.5.1-.1.5-1.1 5.9c-1.2 6.2-2.4 12.6-3.1 18.9-.5 4.7-.9 10 .8 14.7l.1.2-.1.2c0 .1-.1.2 0 .3.3 1.7 1.7 3.7 3.1 4.4 1.3.7 2.7-.2 3.6-1.3 1-1.4 1.5-4.3.6-6.4-.4-1-1.1-1.7-2-1.9-.1 0-.2 0-.3.1-.1.2-.1.6.1.8 1.4 1.6 1.7 4.1.7 5.9-.8 1.4-1.7 1.5-2.3 1.3-.4-.2-.7-.6-1-1-.1-.1-.1-.2-.1-.2-.2-.3-.4-.6-.6-.8l-.1-.2c-3-10.7-.6-22.2 1.6-33.3l1.5-7.4.1-.5h.5c2.4.2 5.6-.2 7.4-2.8v-.1l.1-.1c.8-.8 1-2.4.6-3.5-.5-1.3-1.9-2-3-2.4l-.4-.1.1-.4c.4-3.7 1.4-7.5 2.4-11.1 1.7-6.2 3.4-12.5 2.1-19-1.2-6.2-5.6-15.3-11.4-14.9-.1 0-.2 0-.2.1l-.1.1h-.2c-4.5.6-8 4.4-9 9.9-2.1 11.2-.1 24.9 1.3 32v.8h-.6c-1.4.1-2.9 2.2-3 3.8-.1 1.4.6 2.1 1.8 2.8.3.2.7.4 1 .6.9.6 1.9 1.2 2.8 1.5l.6.2-.2.6m14.6-2l-.2.2c-1.6 1.3-3.4 1.9-5.6 1.9-.4 0-.7 0-1.1-.1h0l-1.1-.2c-1.3-.2-2.7-.6-4-1l-2.2-.6-.1.1-.3-.2-.3-.1v-.1c-.5-.4-1.1-.6-1.8-.9s-1.4-.6-2.1-1.1c-.6-.5-1.2-.9-.9-2.1.1-.6.6-1.1.8-1.3.6-.6 1.4-.7 2-.8.2 0 .3 0 .5-.1.1 0 .1-.1.2-.1.1-.1.1-.2 0-.3v-.1-.2c0-2.3-.4-5.3-.7-8.8-1.1-10.4-2.5-23.3 2.6-29.5 1.7-2 4.1-3.2 7-3.4h.2l.2.1c8.6 4.6 9.4 17.8 7.2 25.6l-.3 1.2c-1.5 5.4-2.9 10.5-3.4 16.2v.2l-.1.1c-.2.2-.3.7-.2 1 .1.2.2.4.5.4.7.1 2.5.4 3.4 1.4.5 1.2 0 2.2-.2 2.6z"/><path d="M96.3 111.2c.9.4 1.9.7 2.8.9l-1 5.3c-1.2 6.2-2.4 12.6-3.1 19-.5 4.7-.9 10.2.8 15a1.1 1.1 0 0 0 0 .8c.4 2 2 4.3 3.6 5.2.5.3 1.1.4 1.6.4 1.4 0 2.7-.9 3.5-2.1 1.3-1.9 1.6-5.2.8-7.4-.5-1.4-1.5-2.3-2.8-2.6-.6-.1-1.2.1-1.5.7-.4.7-.3 1.6.2 2.1 1.1 1.2 1.3 3.2.6 4.6-.5.9-.8.8-.9.7s-.3-.4-.5-.6c-.1-.1-.1-.2-.2-.3-.2-.2-.3-.5-.5-.8-2.9-10.4-.6-21.7 1.7-32.6l1.4-7c3.6.2 6.3-1 7.9-3.3l.1-.1c1-1.2 1.3-3.1.8-4.6-.6-1.6-2-2.4-3.3-2.9.4-3.5 1.4-7 2.3-10.5 1.7-6.3 3.5-12.8 2.2-19.5-1-5.2-5.3-15.8-12.1-15.8h-.5c-.3 0-.5.1-.8.3-4.9.7-8.7 4.9-9.8 10.8-2.1 11.1-.2 24.5 1.2 31.9-1.8.5-3.3 2.9-3.4 4.8-.1 2.1 1.1 3.1 2.3 3.8.3.2.6.4 1 .6.8.5 1.6 1 2.5 1.4m.5-.1c-1.3-.4-2.7-1.4-3.9-2.1-1.3-.7-2.2-1.6-2.1-3.3.1-1.9 1.8-4.3 3.5-4.4-1.9-10-3.1-22.4-1.3-32.2 1.1-5.6 4.6-9.7 9.5-10.4.1-.1.3-.2.6-.3 6.3-.4 10.8 9.4 12 15.3 2 10.3-3.4 20.1-4.5 30.2 1.4.5 2.8 1.4 3.3 2.8.5 1.3.2 3.1-.7 4.1v.1c-1.7 2.5-4.7 3.2-7.9 3-2.3 12.9-6.8 27.5-3.1 40.4l.6.9c.2.3.5.9.9 1 .7.3 1.3-.4 1.6-1 .9-1.6.5-3.9-.7-5.2-.6-.7-.3-2.1.7-1.9 3.5.8 3.4 6.6 1.7 9.1-1 1.4-2.7 2.4-4.3 1.5-1.5-.8-3-3-3.4-4.8-.1-.3 0-.5.1-.7-1.8-4.7-1.4-10-.9-15 .9-8.3 2.7-16.6 4.3-24.8-1.3-.3-2.7-.7-3.8-1.3"/><path d="M105.6 103.8c-.2 0-.4-.2-.5-.4-.1-.3 0-.8.2-1l.1-.1v-.2c.5-5.7 2-10.8 3.4-16.2l.3-1.2c2.2-7.8 1.4-21-7.2-25.6l-.2-.1h-.2c-2.9.2-5.2 1.3-7 3.4-5.1 6.1-3.7 19.1-2.6 29.5.4 3.5.7 6.6.7 8.8v.2.1.3s-.1.1-.2.1c-.2 0-.3 0-.5.1-.7.1-1.4.2-2 .8-.2.2-.7.7-.8 1.3-.2 1.2.3 1.6.9 2.1.7.5 1.4.8 2.1 1.1.6.3 1.2.5 1.8.9v.1l.3.1.3.2.1-.1 2.2.6c1.3.4 2.7.7 4 1l1.1.2h0c.4 0 .7.1 1.1.1 2.2 0 4-.6 5.6-1.9l.2-.2c.2-.3.7-1.4-.1-2.2-.7-1.4-2.4-1.7-3.1-1.8zM95 107.3c.5-1 .8-2 1.2-3h.2c1.1.2 2.2.8 3.2 1.2.3.1.7.2 1 .3 0 1.1.1 2.1.6 3-2.1-.3-4.2-1-6.2-1.5zm2.2-4.9c-.2-.1-.3-.2-.5-.3a30.34 30.34 0 0 0 .6-4.2c.1-2.4-1.6-10.4-.4-12.8.9-.9 1.7.2 2.1 1.2-.4.3-.6.8-.7 1.5s0 2.1.5 2.8c0 .1.1.3.2.3s.1.1.2.1c.2 0 .3-.2.2-.3.8-.7.5-2.8.2-4.1l.9-.3c.1 0 .1 0 .1-.1.4.1.6.4.8.7-.1.1-.2.2-.2.4-.9 1.5-.5 3.4-.1 5 0 .1.1.2.2.2.2 0 .3 0 .4-.2 1.2-.9.8-2.8.6-4.2-.1-.3-.1-.7-.2-1 .5-.4 1.1-.6 1.8-.3.8 3.9.2 7.1-1.3 10.6-.7 1.5-1.2 3-1.5 4.7-.1.9-.3 2-.4 3.1-1.5-.4-2.9-.9-4.4-1.2.1-.4.3-.9.4-1.3.2.1.3.1.5.2.1 0 .2-.4 0-.5zm2-15.5v.2c.1.7.4 2.4-.1 3-.3-.6-.4-1.7-.4-2.2.1-.4.3-.8.5-1zm2.5.6l.3 1.4c.2 1 .3 2.2-.5 2.9.1-1-.4-2.1-.2-3.1.1-.5.2-.9.4-1.2zm6.8 19.7c-2.1 1.7-4.4 2-6.7 1.7-.6-.9-.8-1.9-.9-3 .9.2 1.8.3 2.8.2.3 0 .2-.5-.1-.5-.9 0-1.8-.2-2.7-.4.1-3.6 2.3-7.6 3.2-10.3s.9-5.4.2-8.1c.1-.1.2-.3 0-.4-.1 0-.1-.1-.2-.1 0-.1 0-.1-.1-.2-.1-.3-.3-.2-.4 0-.7-.2-1.4-.1-1.9.4-.3-.6-.8-1-1.5-.7-.3 0-.6.1-.8.2v-.1c-.3-.9-1.3-1.8-2.1-1.6 0-.2-.2-.4-.4-.2-1.9 1.4-1.6 3.2-1.2 5.5.6 3.6.9 6.8.6 9.9-.2-.3-.5-.5-.9-.5-.3 0-.4.6-.1.6s.6.1.8.4h.1c-.1.6-.1 1.2-.3 1.7-.3-.1-.6-.3-.9-.4s-.5.4-.2.5c.3.2.7.3 1 .5l-.3 1.4c-.9-.1-1.8-.2-2.7 0-.3 0-.3.6.1.5.9-.1 1.7-.2 2.6-.1-.3 1-.6 1.9-1 2.9-1.2-.8-2.7-1.1-3.9-1.9-.6-.4-.9-.6-.7-1.5.1-.4.4-.8.6-1 .6-.6 1.4-.6 2.2-.7.6-.1.8-.7.6-1.2v-.1c-.1-11.5-7.4-40.1 8.4-41.2 7.9 4.3 9.2 16.8 6.9 25-1.6 5.9-3.2 11.3-3.8 17.5-.7.7-.6 2.2.6 2.4.9.1 2.3.5 3 1.2.5.6.4 1.1.1 1.7zM96 110.4c1.2.5 2.5 1 3.8 1.3-1.5 8.2-3.3 16.5-4.3 24.8-.6 5-.9 10.3.9 15-.1.2-.1.4-.1.7.4 1.8 1.8 4 3.4 4.8 1.6.9 3.3-.1 4.3-1.5 1.7-2.5 1.8-8.3-1.7-9.1-1-.2-1.4 1.2-.7 1.9 1.2 1.3 1.6 3.6.7 5.2-.3.6-.8 1.3-1.6 1-.3-.1-.7-.7-.9-1l-.6-.9c-3.6-13 .8-27.6 3.1-40.4 3.2.2 6.2-.5 7.9-3v-.1c.9-1 1.2-2.7.7-4.1s-1.9-2.3-3.3-2.8c1.1-10.1 6.6-19.9 4.5-30.2-1.1-5.9-5.7-15.8-12-15.3-.2 0-.4.1-.6.3-4.9.7-8.5 4.8-9.5 10.4-1.8 9.8-.6 22.3 1.3 32.2-1.8.1-3.4 2.5-3.5 4.4-.1 1.7.8 2.6 2.1 3.3 1.2.7 2.5 1.7 3.9 2.1m.5.1l.2-.6-.6-.2c-.9-.3-1.8-.9-2.8-1.5-.3-.2-.7-.4-1-.6-1.2-.7-1.9-1.4-1.8-2.8.1-1.6 1.6-3.8 3-3.8h.6l-.1-.6c-1.4-7.1-3.4-20.8-1.3-32 1-5.5 4.5-9.3 9-9.9h.2l.1-.1s.1-.1.2-.1c5.8-.4 10.2 8.6 11.4 14.9 1.2 6.4-.5 12.8-2.1 19-1 3.6-2 7.3-2.4 11.1l-.1.4.4.1c1.1.4 2.5 1.1 3 2.4.4 1.1.1 2.6-.6 3.5l-.1.1v.1c-1.8 2.6-5 2.9-7.4 2.8h-.5l-.1.5c-.4 2.4-.9 4.9-1.5 7.4-2.3 11.1-4.6 22.6-1.6 33.3l.1.2c.2.3.4.6.6.8 0 .1.1.1.1.2a2.41 2.41 0 0 0 1 1c.6.2 1.5.2 2.3-1.3 1-1.8.7-4.3-.7-5.9-.2-.2-.2-.6-.1-.8.1-.1.1-.1.3-.1.9.2 1.6.8 2 1.9.8 2.1.3 5-.6 6.4-.8 1.2-2.2 2.1-3.6 1.3-1.3-.7-2.7-2.7-3.1-4.4v-.3l.1-.2-.1-.2c-1.8-4.7-1.3-10-.8-14.7.7-6.3 1.9-12.7 3.1-18.9.4-2 .8-3.9 1.1-5.9l.1-.5-.5-.1c-1.3-.3-2.6-.7-3.7-1.2l-.6-.3-.2.6"/><path d="M93.3 108.4c-3.6 1.8-7.7 3.4-10.9 6s-4.1 6.4-4.2 10.4c-.1 4.4.8 8.8 1.3 13.2.2 2 .6 4.3.3 6.4-.3 1.7-2.3 2.3-3.7 2.8-1.8.6-1 3.5.8 2.9 1.6-.5 3.3-1.2 4.5-2.5 1.3-1.4 1.4-3.1 1.4-4.9-.1-4.6-1.1-9.1-1.5-13.7-.3-3.9-.7-8.9 2.4-11.9 1.4-1.3 3.1-2.2 4.7-3l6.3-3.2c1.8-.8.3-3.4-1.4-2.5h0z"/><path d="M32.6 61c-.7-9 2.3-17.8 6.4-26 1.2-2.3 3.4-4.5 6.1-5.5 4.3-1.7 8.3.3 11.1 3.8s3.3 7.8 3.4 11.9c.4 11.7-3.4 20.8-7.3 31.9 2.2.1 2.6 2.9 3.4 4.6.9 1.9-1.3 2.1-3.3 3-5.1 2-9 1.1-14.8.4-1.9-.2-5.1-1.4-6.6-2.5s-1.2-3.2-.2-4.5c1.1-1.4 3.1.6 4.2-.8.7-1 1.5-1.7 1.2-2.9-1.5-5.9-.9-10.2-2.4-16.1" fill="#04a4ae"/><path d="M59 101.6c-1.3 0-1.5 1.5-.6 2.2.5.4 1.7.8 2.1 1.4.6 1-.4 3-.9 3.8-.9 1.7-1.9 2.1-3.3 2.1-2.8-2.1-3.6-10.4-4.3-13-1-3.9-1.8-7.9-2.7-11.8 1.7-.2 3.5-.9 5.1-1.4 1.7-.5 2.9-1.2 3.1-3.1.2-2.1-1.4-5.1-3.5-5.6 4.2-10.4 8-23.7 7.6-34.8-.2-6.4-3.8-11.7-9.7-13.6-.1-.2-.3-.3-.6-.4-7.6-2-15 7.7-17.5 13.9-4.4 10.8.4 22.7-.1 34-1.8.2-3.7.8-4.6 2.2-.8 1.3-.8 3.3.2 4.6v.1c1.6 3.1 5.2 4.7 9.1 5.2.4 14.6 1.1 43.6-5.7 56.9-.3.3-.6.5-.9.8s-.8.8-1.3.9c-1 .1-1.5-.8-1.8-1.5-.8-2 .1-4.3 1.8-5.5.9-.6.7-2.2-.6-2.2-4.4 0-5.4 6.4-3.8 9.5.9 1.8 2.8 3.3 5 2.7 2-.5 4.2-2.6 5-4.4a1.1 1.1 0 0 0 0-.8c3-4.7 5.6-22.6 5.8-28.2.4-9.3-.2-18.8-.6-28.1 1.7 0 3.4-.2 4.9-.5 1.2 6.5 2.8 13 4.5 19.4.7 2.8 1.3 6.4 3.8 7.3 2.9 2.1 6.7-1.5 7.9-4.1.8-1.7 1.7-3.7.8-5.5-.8-1.5-2.5-2.5-4.2-2.5zM40.2 84.1c.7-.8 1.1-1.9 1.3-3.1.4 0 .8-.1 1.3-.1 1.4-.2 2.8-.6 4.2-.6h.3c.2 1.2.5 2.4.8 3.6-2.6 0-5.3.3-7.9.2zm2.4-18.2c.1.2.2.3.5.3.1 0 .2-.1.3-.1.8-1.7 1.6-3.6.9-5.5-.1-.2-.1-.3-.2-.4.3-.3.6-.5 1.1-.6l.1.1c.4.2.7.3 1 .5-.6 1.3-1.4 3.6-.6 4.5-.1.1 0 .4.2.4.1 0 .2 0 .3-.1.2.1.3-.1.3-.2.7-.6 1.1-2.1 1.2-2.9 0-.7-.2-1.3-.6-1.8.7-1 1.9-2 2.8-.8C51 62.1 47.3 70.4 47 73c-.2 1.6-.2 3.2-.1 4.7-.2.1-.5.1-.7.2s-.2.6.1.6c.2 0 .4-.1.7-.1 0 .5.1 1 .2 1.5-1.9 0-3.7.2-5.6.3.1-1.3.1-2.5.1-3.5 0-1.9-.5-3.6-1-5.4-1.2-4.2-1.4-7.9.4-11.9.9-.1 1.6.2 2.1.8a4.67 4.67 0 0 0-.5 1c-.6 1.4-1.4 3.3-.1 4.7zm.4-3.7c.2-.5.3-1 .6-1.5.2.4.3.9.3 1.4 0 1.2-.8 2.3-.8 3.4-.9-1-.6-2.2-.1-3.3zm3.7-1.4c0-.1.1-.1.1-.2.2.3.3.7.3 1.2a4.23 4.23 0 0 1-.9 2.4c-.5-.8.2-2.6.5-3.4zM48 80.3c1.1.1 2.1.4 3.1.7.4.1.5-.4.2-.6a10.04 10.04 0 0 0-3.3-.6c-.1-.5-.1-1.1-.1-1.6.4-.1.9-.2 1.3-.3s.2-.7-.2-.6-.8.2-1.2.2v-2h.2c.3-.2.6-.3 1-.2s.4-.6 0-.7c-.5-.1-.8.1-1.2.3.2-3.5 1.2-6.9 2.6-10.7 1-2.5 1.7-4.4-.4-6.3-.2-.2-.5-.1-.5.1-1-.3-2.2.4-2.8 1.3v.1c-.3-.2-.6-.3-1-.4v-.1c-.8-.5-1.5-.1-2 .4-.6-.7-1.4-1-2.3-.9-.1-.2-.4-.4-.5-.1 0 .1-.1.2-.1.2-.1 0-.1 0-.2.1-.2.1-.2.3 0 .5-1.3 2.8-1.8 5.8-1.2 8.9s2.5 8.1 2 12c-1.1 0-2.2 0-3.4-.2-.3-.1-.5.4-.2.5 1.1.3 2.3.4 3.4.4a5.48 5.48 0 0 1-1.6 3.1c-2.9-.2-5.6-1.1-7.9-3.5-.2-.7-.3-1.3.3-1.7 1-.7 2.8-.7 3.9-.6 1.4.1 1.8-1.6 1.1-2.5.4-6.9-.5-13.2-1.4-20-1.2-9.4 2.6-22.8 13.1-25.6 19 4.9 4.8 34.4 2.5 46.9v.1c-.3.5-.1 1.2.5 1.4 1 .3 1.9.5 2.6 1.3.3.3.6.8.6 1.3.1 1-.3 1.1-1.1 1.4-1.6.6-3.5.6-5.1 1.2-.3-.9-.6-2-.7-3.2z"/><path d="M51.7 47.4c-1 .3-1.3 1.5-.7 2.2 1 1.2 1.1 2.4.9 4-.2 1.5-1 2.9-.9 4.4 0 .9 1 1.6 1.8 1.1 3.1-1.9 4.1-13.2-1.1-11.7zm1.8-3.1c.3-.1.6-.4.9-.6 1-.9 1.6-2.3 1.4-3.6s-1.1-2.6-2.4-3l.1.1c-.5-.2-1.2-.1-1.8.1-.9.3-1.8.8-2.4 1.5s-1 1.8-.7 2.7c.1.5.4 1 .8 1.4 1 1.2 2.7 2 4.1 1.4z" fill="#fff"/><path d="M142.9 82.3c-.6-5.8.1-11.8 2.2-17.3 1.4-3.8 3.6-7.5 6.9-9.8s8.1-2.8 11.4-.4c2.6 1.9 3.9 5.1 4.6 8.2 2.2 9.4 1.9 17.5-2.5 26-1.4 2.8-.5 5.8-1 8.8-.1.7-1.4 3.8-1.1 4.4 1 2.1 3.9 2.5 3.9 4.8 0 1.2-2.4 1-3.5 1.5-5.8 3-12.7 2.5-19.1 1.3-1.5-.3-3.3-.8-3.9-2.2-.4-1 0-2.2.7-3s1.7-1.4 2.7-1.8c1-.5 2.1-1 2.4-2.1.1-.5.1-1 0-1.5-1.1-7.1-3.6-14.3-1.8-21.3" fill="#e4252e"/><path d="M160.3 112.2c1.8-.2 3.7-1.1 5.3-1.7 1.7-.6 3-1.4 3.2-3.4.2-2.2-1.6-5.3-3.9-5.7 4-11 7.5-25.1 6.7-36.7-.5-6.7-4.4-12.1-10.6-13.9-.2-.2-.4-.3-.7-.4-8-1.8-15.4 8.6-17.8 15.1-4.2 11.4 1.2 23.8 1.1 35.6-1.9.3-3.8 1-4.7 2.5-.8 1.4-.7 3.5.3 4.8v.1c1.8 3.2 5.6 4.7 9.7 5.1.9 15.2 4.4 32.9-2.3 47.1l-.9.9c-.3.3-.8.9-1.3 1-1 .2-1.6-.7-1.9-1.5-.9-2-.1-4.5 1.7-5.8.9-.7.7-2.3-.7-2.3-4.6.2-5.4 6.9-3.6 10.1 1 1.9 3.1 3.3 5.3 2.6 2.1-.6 4.3-2.8 5-4.8.1-.3.1-.6 0-.8 3-5 3.4-11.2 3.4-17 .1-9.8-.9-19.6-1.6-29.3 1.8-.1 3.5-.3 5.1-.7m-6.2-2.9c.7-.9 1.1-2 1.2-3.3.4 0 .9-.1 1.3-.2 1.5-.2 2.9-.8 4.4-.8h.3c.3 1.2.6 2.5 1 3.7-2.8.2-5.5.6-8.2.6zm1.8-19.1c.1.2.2.3.5.3.1 0 .2-.1.3-.2.8-1.8 1.6-3.9.7-5.8-.1-.2-.2-.3-.3-.5.3-.3.6-.6 1.1-.6l.1.1c.4.2.8.3 1.1.5-.6 1.4-1.3 3.8-.4 4.7-.1.2 0 .4.2.4.1 0 .2-.1.3-.1.2.1.3-.1.4-.3.7-.7 1.1-2.3 1.1-3 0-.8-.2-1.4-.7-1.9.7-1.1 1.9-2.2 2.9-1 1.2 3-2.3 11.9-2.5 14.6-.1 1.7-.1 3.3.1 5-.2.1-.5.1-.7.2-.3.1-.2.6.1.5.2 0 .5-.1.7-.1l.3 1.6c-1.9 0-3.9.4-5.8.5.1-1.3 0-2.6 0-3.7-.1-2-.6-3.7-1.2-5.7-1.4-4.4-1.7-8.2 0-12.5.9-.2 1.7.1 2.2.7-.2.4-.4.7-.5 1.1-.7 1.8-1.4 3.8 0 5.2zm.5-.5c-.9-1-.6-2.2-.2-3.4.2-.5.3-1.1.6-1.6.2.4.4.9.4 1.4-.1 1.3-.8 2.5-.8 3.6zm3.6-4.9c0-.1.1-.1.1-.2.2.3.4.7.3 1.2 0 .7-.3 1.8-.8 2.5-.6-.8.1-2.8.4-3.5zm2 20.3c1.1.1 2.2.4 3.3.7.4.1.5-.5.2-.6-1.2-.4-2.4-.5-3.5-.5-.1-.6-.2-1.1-.2-1.7l1.4-.3c.4-.1.2-.7-.2-.6s-.8.2-1.3.3c0-.7-.1-1.4-.1-2.1h.2c.4-.2.7-.3 1.1-.3s.4-.6 0-.7c-.5-.1-.9.1-1.2.4.1-3.7 1-7.3 2.3-11.3.9-2.6 1.6-4.6-.7-6.6-.2-.2-.5 0-.6.2-1-.3-2.3.4-2.9 1.5v.1c-.3-.2-.6-.3-1-.4l-.1-.1c-.9-.5-1.5-.1-2 .5-.6-.7-1.5-1-2.4-.9-.1-.2-.4-.4-.6-.1 0 .1-.1.2-.1.2-.1 0-.1 0-.2.1-.2.1-.2.4 0 .5-1.2 3-1.7 6.1-1 9.4s2.9 8.3 2.5 12.5c-1.2.1-2.3.1-3.6-.1-.4 0-.5.5-.1.6 1.2.3 2.4.3 3.6.3-.2 1.2-.7 2.3-1.6 3.2-3-.1-5.9-.9-8.4-3.3-.3-.7-.4-1.4.3-1.8 1-.7 2.9-.8 4.1-.8 1.5.1 1.9-1.7 1.1-2.6.2-7.2-1-13.7-2.1-20.8-1.6-9.8 1.9-23.9 12.8-27.3 20 4.4 6.3 35.8 4.3 49v.1c-.3.5-.1 1.2.6 1.5 1 .3 2 .4 2.7 1.3.3.3.6.9.7 1.3.1 1-.3 1.2-1.1 1.5-1.6.7-3.6.8-5.3 1.4-.4-1.3-.7-2.5-.9-3.7z"/><path d="M161.6 71.4c-1 .3-1.3 1.6-.6 2.4 1.1 1.2 1.2 2.5 1.1 4.1s-.9 3.1-.8 4.7c.1.9 1.1 1.6 1.9 1.1 3.1-2.1 3.8-14.1-1.6-12.3zm2.7-3.9c1-1 1.6-2.5 1.3-3.8-.2-1.4-1.3-2.7-2.6-3l.2.1c-.6-.2-1.3-.1-1.9.2-.9.4-1.9.9-2.5 1.7s-1 1.9-.7 2.9c.2.5.5 1 .9 1.4 1.1 1.2 2.9 2 4.4 1.3.3-.3.6-.6.9-.8z" fill="#fff"/><path d="M158.8 112.1c1.9 8.3 5.2 16.2 8.9 23.9 1.9 3.9 3.9 7.7 5.9 11.4 1.9 3.5 3.5 7.6 6.6 10.2a13.59 13.59 0 0 0 11.3 2.8c1.9-.4 1.1-3.3-.8-2.9-3.1.6-6.5-.3-8.8-2.4-1.4-1.3-2.3-2.9-3.2-4.6-1-1.7-1.9-3.5-2.8-5.2-3.7-6.9-7.3-13.9-10.1-21.1-1.6-4.2-3-8.5-4-12.8-.6-1.9-3.5-1.1-3 .7h0z"/><path d="M353.8 76.4c4.8-2.7 10.3-3.4 15.7-3.3 4.7.1 9.3.9 13.8 2.2 9.8 2.8 19 7.5 27.3 13.4 4.4 3.1 8.6 6.6 12.3 10.5 1.3 1.4 3.5-.7 2.1-2.1-7.1-7.5-15.8-13.6-25-18.3-9.1-4.7-19.1-8.3-29.4-8.6-6.3-.2-12.8.5-18.4 3.7-1.6.9-.1 3.5 1.6 2.5h0z" fill="#e1262f"/><path d="M357.4 87c12.2-1.3 23.3 6.4 32.1 13.9 9.1 7.7 17.4 16.5 24.5 26 3.3 4.3 6.4 8.9 8.6 13.9.8 1.8 3.4.2 2.6-1.5-2-4.5-4.8-8.6-7.6-12.6a156.64 156.64 0 0 0-11.6-14c-7.7-8.4-16.3-16.7-26.1-22.6-6.6-4-14.7-6.9-22.5-6.1-1.9.3-1.9 3.3 0 3h0zm-51.6 48.2c-2.6 1.6-5 3.6-6.5 6.2-1.6 2.7-2.3 5.8-2.5 8.9-.5 6.5 1.7 12.6 4 18.6l2.9-3.8-10.6-1c-1.5-.1-2.8 1.2-2.9 2.6-.2 1.3.7 3.1 2.1 3.3s2.4.1 3.7-.6c3.3-1.9.3-7.1-3-5.2h.9l-.8 5.9 10.6 1c1.8.2 3.6-2.1 2.9-3.8-2-5-4-10.2-3.8-15.7.1-2.2.4-4.5 1.4-6.4 1.1-2.1 2.8-3.5 4.7-4.8 1.4-.9 1.9-2.7 1.1-4.1-.9-1.4-2.8-2-4.2-1.1h0zm44-16.4c2.7.1 5.3 1.6 7 3.8 2.2 2.8 3.1 6.4 3.7 9.8.3 2 2.9 2.6 4.4 1.8 3.7-2 7.2-4.2 10.6-6.7 1.3-.9 2-2.6 1.1-4.1-.8-1.3-2.8-2-4.1-1.1-3.4 2.4-6.9 4.7-10.6 6.7l4.4 1.8c-.7-4.5-2.2-8.9-5.2-12.5-2.8-3.3-6.9-5.5-11.3-5.6-3.8 0-3.8 6 0 6.1h0zm-71.9-5.5c-3.9 2.6-9 3.2-13.3 1.4-3.9-1.6-6.9-5.1-8-9.1-1.1-3.7-6.9-2.1-5.8 1.6 1.7 5.8 5.9 10.7 11.5 13 6 2.5 13.2 1.9 18.7-1.7 1.4-.9 1.9-2.7 1.1-4.1-.9-1.4-2.9-2-4.2-1.1h0z"/><path d="M248.7 116.2c1.5.7 3.1 1.1 4.8.9s3.3-.6 4.8-1.5c2.7-1.5 4.6-4 6.5-6.4.4-.6.5-1.6.3-2.3s-.7-1.4-1.4-1.8-1.5-.6-2.3-.3-1.3.7-1.8 1.4c-.2.2-.3.4-.5.6.5-.7-.1.1-.2.3-.4.4-.7.9-1.1 1.3l-1.2 1.2-.3.3c-.3.3.5-.3.1-.1-.2.2-.5.3-.7.5-.2.1-.4.3-.7.4-.1.1-.3.1-.3.2.1-.1.6-.2.2-.1-.5.2-1 .3-1.6.4-.4.1.8-.1.1 0h-.4-.8c-.5 0 .2 0 .2 0-.1-.1-.4-.1-.5-.1-.2-.1-1.1-.4-.3 0-.8-.3-1.5-.5-2.3-.3-.7.2-1.4.7-1.8 1.4-.6 1.2-.3 3.3 1.2 4h0zm95.9-49.5c-2.3-13.5-4.4-27.1-6.3-40.7-.2-1.6-1.2-3-3-3-1.5 0-3.2 1.4-3 3 1.9 14.2 4 28.3 6.5 42.3.3 1.6 2.2 2.5 3.7 2.1 1.7-.5 2.4-2.1 2.1-3.7h0z"/><path d="M343.3 69.1c17.5 10.3 23.1 34.2 12.2 51.1-11.1 17.1-31.1 27.8-51 21-18.7-6.4-28.9-25.7-27.5-45.4 1-14.2 9.3-23 20.9-29.3 13.7-7.3 32-6.2 45.4 2.6z" fill="#fff"/><path d="M342.6 70.4c13.1 7.8 19.7 24 16.1 38.8-2 8.1-7.1 15-13.1 20.6-6.2 5.8-13.9 10-22.3 11.5s-17.2-.1-24.5-4.3c-6.9-4-12.3-10.1-15.7-17.2-3.6-7.4-5-15.7-4.4-23.8.6-8 4-15.2 9.8-20.7 6-5.7 13.8-9.8 21.9-11.3 8.8-1.6 18.3-.4 26.4 3.3 1.9.8 3.9 1.9 5.8 3.1 1.6 1.1 3.1-1.5 1.5-2.6-8.2-5.3-18-8-27.7-7.6-9.4.3-18.2 3.6-25.7 9.1-6.7 4.9-12 11.6-14 19.7-2.2 8.5-1.4 17.9 1.4 26.1 2.7 8.1 7.5 15.5 14.2 20.9 7.1 5.6 16 8.8 25.1 8.7s17.9-3.4 25.2-8.6c7.2-5.2 13.7-12.3 17.2-20.5 6.4-15.1 2-33.7-10.6-44.3-1.6-1.3-3.2-2.5-5-3.5-1.8-.9-3.3 1.6-1.6 2.6zm-5 7.1c7.4 4.4 13.1 13.5 13.6 22.3.6 11.2-5.9 20-13.8 26.5-15.3 12.3-38.4 8.1-47-11.4-6.3-14.1-2.8-28.9 9.3-37.1 11.2-7.6 25.9-7.9 37.9-.3z"/><path d="M336.8 78.8c5.6 3.4 9.8 9.1 11.8 15.3 2 6.3 1.2 13-1.8 18.9-2.8 5.4-7.3 10.2-12.4 13.7-4.3 2.9-9.2 4.7-14.4 5.1-10.6.8-20.7-4.4-26.3-13.4-6.5-10.5-7.1-24.8 1.3-34.4 9-10.4 24.6-13 37-7.6a21.55 21.55 0 0 1 4.8 2.4c1.6 1 3.1-1.6 1.5-2.6-12.9-8.1-30-7.6-41.9 2.1-5.2 4.2-8.8 10.2-10.1 16.8-1.3 6.9-.2 14 2.6 20.4 4.8 11 15.2 18.5 27.2 19.2 12.6.7 24.1-6.6 31.1-16.8 4-5.8 6.1-12.9 5.2-20s-4.6-13.9-10-18.7c-1.3-1.2-2.7-2.2-4.2-3.1s-3 1.7-1.4 2.7z"/><path d="M328.9 89.3c3.9 2.3 6.9 7.1 7.1 11.7.3 5.8-3.1 10.5-7.2 13.8-8 6.4-20 4.2-24.6-5.9-3.3-7.4-1.4-15.1 4.8-19.4 5.9-4 13.7-4.1 19.9-.2z" fill="#183d3d"/><path d="M328.1 90.6c5.8 3.5 8.1 11.1 4.8 17.1-2.7 4.9-7.8 8.9-13.5 9.2-5.2.3-10.2-2.3-12.9-6.8-3.2-5.3-3.5-12.4.8-17.1 5.3-5.9 14.3-6.4 20.8-2.4 1.6 1 3.2-1.6 1.5-2.6-7-4.3-16.1-4.1-22.6 1.1-6.1 4.9-7.3 13.2-4.3 20.1 2.6 6 8.2 10.2 14.8 10.6 6.9.5 13.2-3.5 17-9.1 2.5-3.6 3.5-8 2.6-12.3s-3.8-8.2-7.5-10.5c-1.6-.9-3.1 1.7-1.5 2.7z"/><use xlink:href="#C" fill="#183d3d"/><path d="M310.9 77.5c2 1.2 2.9 3.9 1.7 6-.5 1-1.5 2-2.3 2.6l-1.1.6c-.3.1-.5.2-.8.2-.1 0-.3.1-.4.1s-.1 0 0 0h-.3c-1.8.1-3.6-.7-4.6-2.3-1.2-1.9-1.4-4.5.1-6.3 2-2.2 5.3-2.4 7.7-.9 1.6 1 3.2-1.6 1.5-2.6-3.3-2-7.5-1.8-10.6.6-2.9 2.4-3.4 6.4-1.9 9.7 1.3 2.8 4 4.6 7.1 4.8 3.2.1 6.1-1.8 7.8-4.4 2.3-3.6 1.1-8.4-2.5-10.6-1.5-1.1-3 1.5-1.4 2.5z"/><use xlink:href="#D" fill="#183d3d"/><use xlink:href="#E"/><path d="M344.3 86.3c1.6 1 2.9 3 3 4.9.1 2.5-1.3 4.4-3 5.8-3.4 2.7-8.4 1.8-10.3-2.5-1.4-3.1-.6-6.3 2-8.1 2.4-1.7 5.6-1.8 8.3-.1z" fill="#183d3d"/><use xlink:href="#E" x="10.4" y="-31.4"/><use xlink:href="#F" fill="#183d3d"/><path d="M300.6 108.9c2 1.2 2.9 3.9 1.7 6-.5 1-1.5 2-2.3 2.6l-1.1.6c-.3.1-.5.2-.8.2-.1 0-.3.1-.4.1s-.1 0 0 0h-.3c-1.8.1-3.6-.7-4.6-2.3-1.2-1.9-1.4-4.5.1-6.3 1.9-2.2 5.3-2.4 7.7-.9 1.6 1 3.2-1.6 1.5-2.6-3.3-2-7.5-1.8-10.6.6-2.9 2.4-3.4 6.4-1.9 9.7 1.3 2.8 4 4.6 7.1 4.8 3.2.1 6.1-1.8 7.8-4.4 2.3-3.6 1.1-8.4-2.5-10.6-1.6-1.1-3.1 1.5-1.4 2.5z"/><use xlink:href="#F" x="-2" y="-16.9" fill="#183d3d"/><path d="M298.6 92c2 1.2 2.9 3.9 1.7 6-.5 1-1.5 2-2.3 2.6l-1.1.6c-.3.1-.5.2-.8.2-.1 0-.3.1-.4.1s-.1 0 0 0h-.3c-1.8.1-3.6-.7-4.6-2.3-1.2-1.9-1.4-4.5.1-6.3 1.9-2.3 5.3-2.4 7.7-.9 1.6 1 3.2-1.6 1.5-2.6-3.3-2-7.5-1.8-10.6.6-2.9 2.4-3.4 6.4-1.9 9.7 1.3 2.8 4 4.6 7.1 4.8 3.2.1 6.1-1.8 7.8-4.4 2.3-3.6 1.1-8.4-2.5-10.6-1.5-1.1-3.1 1.5-1.4 2.5z"/><use xlink:href="#D" x="11.5" y="-13" fill="#183d3d"/><use xlink:href="#E" x="11.5" y="-13"/><use xlink:href="#D" x="-3.8" y="-42.6" fill="#183d3d"/><use xlink:href="#E" x="-3.8" y="-42.6"/><use xlink:href="#C" x="3.8" y="42.6" fill="#183d3d"/><path d="M314.8 120.1c2 1.2 2.9 3.9 1.7 6-.5 1-1.5 2-2.3 2.6l-1.1.6c-.3.1-.5.2-.8.2-.1 0-.3.1-.4.1s-.1 0 0 0h-.3c-1.8.1-3.6-.7-4.6-2.3-1.2-1.9-1.4-4.5.1-6.3 1.9-2.3 5.2-2.4 7.7-.9 1.6 1 3.2-1.6 1.5-2.6-3.3-2-7.5-1.8-10.6.6-2.9 2.4-3.4 6.4-1.9 9.7 1.3 2.8 4 4.6 7.1 4.8 3.2.1 6.1-1.8 7.8-4.4 2.3-3.6 1.1-8.4-2.5-10.6-1.6-1.1-3.1 1.5-1.4 2.5zm21.9-86.6l-7.1-6.5c-.6-.5-1.3-.9-2.1-.9-.7 0-1.6.3-2.1.9s-.9 1.3-.9 2.1.3 1.5.9 2.1c.1.2.3.3.4.5.5.6 1.4.9 2.1.9s1.6-.3 2.1-.9.9-1.3.9-2.1-.3-1.5-.9-2.1c-.1-.2-.3-.3-.4-.5l-4.2 4.2 7.1 6.5c.6.5 1.3.9 2.1.9.7 0 1.6-.3 2.1-.9s.9-1.3.9-2.1c-.1-.8-.3-1.6-.9-2.1h0z"/><path d="M340.1 37.7c2.6-2.5 5.3-4.8 8.1-7-.2.2-.4.3-.6.5.4-.3.7-.6 1.1-.8-.5.1-1 .3-1.5.4h.2c-.5-.1-1-.3-1.5-.4h.1c-.5-.6-.9-1.2-1.4-1.8v.1-1.6.1c.5-.6.9-1.2 1.4-1.8h-.1c-1.3.8-2 2.7-1.1 4.1.9 1.3 2.7 2 4.1 1.1.8-.5 1.4-1.3 1.5-2.3.2-1.2-.4-2.4-1.5-3.1a3.28 3.28 0 0 0-2.9-.2c-.4.2-.7.4-1.1.7-1.2.9-2.3 1.8-3.4 2.7a69.1 69.1 0 0 0-5.7 5.1c-1.1 1.1-1.2 3.2 0 4.2 1.3 1.1 3.1 1.1 4.3 0h0z"/><path d="M305.7 99.4c2.4 0 4.6-2.1 4.5-4.5s-2-4.5-4.5-4.5c-2.4 0-4.6 2.1-4.5 4.5s1.9 4.5 4.5 4.5h0zm18.6-7.3c2.4 0 4.6-2.1 4.5-4.5s-2-4.5-4.5-4.5c-2.4 0-4.6 2.1-4.5 4.5.1 2.5 2 4.5 4.5 4.5h0z" fill="#fff"/><path d="M322.4 117.3c2.4 1.4 5.8 1.4 7.6-.6 1.1-1.2 1.5-2.9 1.5-4.5s-.5-3.2-.9-4.8l-.6-2c-4.6 1.2-9 3.1-13 5.7 1.4 2.5 3 4.9 5.4 6.2z" fill="#e66869"/><g fill="#fff"><path d="M322.1 118c2.8 1.5 6.8 1.6 8.9-1.2 2.6-3.4.9-7.9-.1-11.5-.1-.4-.5-.6-.9-.5-4.7 1.2-9.1 3.2-13.2 5.8-.3.2-.5.7-.3 1 1.4 2.4 3 4.9 5.6 6.4.8.5 1.6-.8.8-1.3-2.3-1.4-3.8-3.6-5.1-5.9-.1.3-.2.7-.3 1 3.9-2.6 8.3-4.5 12.8-5.7-.3-.2-.6-.3-.9-.5.9 3 2.5 6.9.7 9.8-1.5 2.5-4.9 2.5-7.2 1.2-.9-.4-1.7.9-.8 1.4z"/><path d="M314.3 105.3l2.8 5.9c4-2.6 8.4-4.6 13-5.7l-1.8-6.3c-4 3.7-8.5 6.4-14 6.1z"/><path d="M313.7 105.6c.9 2 1.6 4.1 2.8 5.9.2.3.7.5 1 .3 3.9-2.6 8.3-4.5 12.8-5.7.4-.1.6-.5.5-.9l-1.8-6.3c-.2-.6-.8-.7-1.3-.3-3.8 3.5-8.2 6.2-13.5 5.9-1-.1-1 1.4 0 1.5 5.7.3 10.5-2.6 14.6-6.3-.4-.1-.8-.2-1.3-.3l1.8 6.3c.2-.3.3-.6.5-.9-4.7 1.2-9.1 3.2-13.2 5.8.3.1.7.2 1 .3-1.1-1.8-1.9-3.9-2.8-5.9-.2-1-1.5-.2-1.1.6z"/></g><path d="M223.8 76.8l-15.9 6.7c-.5.2-.9.4-1.4.3-.7-.1-1.2-.7-1.6-1.2-1-1.2-3-2.7-3.4-4.2-.3-1.5 1.3-3.2 2.8-3.7 1.1-.4 2.7-.4 2.9-1.5.1-.4-.2-.9-.4-1.3-2.7-4.7-5.1-9.5-7.2-14.4-1.8-4.2-3.3-8.6-2.2-13.2.5-2 1.1-7 2.8-8.2 4.6-3.3 12.3-3.7 16 0 3.8 3.8 7 21 8 28 .6 4 4 0 5 1 .9.9 1.5 1.9 2 3.1 1.4 3.3-.4 7-3.8 8-2 .6-3.9 1.1-5.5 1.4" fill="#4386c6"/><path d="M223 75.5l-9.1 3.8-4.3 1.8-2 .9c-1 .4-1 .3-1.7-.5s-1.5-1.5-2.2-2.2c-.9-1-1-1.7.2-2.7 1.5-1.3 4.4-.7 4.7-3.3.2-1.3-.7-2.4-1.3-3.5l-2.3-4.2-4.1-8.6c-1.2-2.8-2.4-5.7-2.5-8.8-.1-2.3.5-4.5.9-6.7.3-1.6.6-3.7 2-4.7 1.9-1.2 4.2-1.9 6.4-2 2.1-.1 4.3.2 6.1 1.3 1.3.8 1.9 1.8 2.5 3.1 1.7 3.4 2.6 7.2 3.5 10.8 1 4 1.7 8 2.4 12 .3 1.8.3 4.3 2.3 5 .8.3 1.7.1 2.5-.2.4-.1.8-.3 1.2-.5.1 0 .3-.1.4-.1.2 0 .2-.1.1 0-.2 0-.4-.1-.6-.3.5-.3 1.9 3.3 2 3.7.2 1.1-.1 2.2-.7 3.1-.8 1.1-1.8 1.6-3.1 2a42.09 42.09 0 0 1-4.8 1.2c-1.9.4-1.1 3.3.8 2.9 2.8-.6 6.2-1.1 8.4-3.1 1.8-1.6 2.7-4.2 2.3-6.6-.2-1.3-.7-2.5-1.4-3.6-.6-1-1.4-2.3-2.8-2.3-.8 0-1.5.4-2.3.7-.2.1-.7.2-.8.3h-.1c.3.1.2.2.1-.1-1.5-8.6-2.7-17.6-6.2-25.6-.6-1.4-1.4-2.9-2.5-3.9-1.8-1.7-4.3-2.5-6.8-2.8s-5.1.1-7.5 1c-2.1.8-4.1 1.9-5.1 4-.9 2-1.2 4.3-1.6 6.4-.7 3.2-.6 6.3.3 9.5.9 3.3 2.4 6.5 3.9 9.6 1.5 3.2 3.1 6.3 4.8 9.3.2.3.4.9.6 1.1-.2-.2.6-.3-.3-.1-.6.1-1.3.3-1.8.6-1.4.6-2.6 1.7-3.2 3.1-1.4 3.1 1.7 5.2 3.5 7.2 1 1.2 2.2 2 3.8 1.5 1.9-.5 3.8-1.6 5.6-2.3l11.4-4.8c.8-.3.9-1.4.5-2.1-.5-.5-1.4-.6-2.1-.3h0z" fill="#000005"/><path d="M212 82c3.5 7.6 5.1 16.1 7.1 24.2 1.4 6.1 5 17.5-3.7 20.1-2 .6-3.2-.5-3.8-2.4-.3-.9-.7-2 0-2.8.2-.3 1.1-.7 1.1-.2.3 1.9 3.2 1.1 2.9-.8-.4-2.1-3.4-3-5.1-2-2.3 1.3-2.6 4-1.9 6.3.6 2.2 2.1 4.5 4.4 5 2.3.6 5-.7 6.8-2 4.1-3.1 4.6-8.9 4-13.7-.3-2.5-1.1-5-1.6-7.5l-1.9-8.1c-1.5-6-3.1-12-5.6-17.6-.9-1.7-3.5-.2-2.7 1.5h0zm11.1-2.3c1.3 2.2 2.7 4.3 5.1 5.4 2.8 1.3 5.7 1 8.4-.5 3-1.6 5.3-4.2 7.7-6.5 1.3-1.2 2.5-2.5 3.8-3.7.4-.3 1-.9 1.5-.7.6.3.9 1.4 1.2 1.9 2.6 5 7.3 10.1 13.6 8.6 2.5-.6 4.6-2.5 5.2-5 .5-2.3 0-4.8-1.8-6.4-2.5-2.1-7-1.3-7.4 2.4-.3 3 3.7 5.3 5.8 2.6 1.2-1.5-.9-3.6-2.1-2.1-.4.6-.9 0-.5-.5.5-.8 1.8-.5 2.4 0 1.1.9 1.2 2.8.6 4-.8 1.8-2.8 2.4-4.6 2.3-2.1-.1-4-1.3-5.4-2.8-1.5-1.6-2.4-3.6-3.5-5.5-1-1.9-2.8-3.1-5-2.2-1.1.4-1.9 1.3-2.8 2.1-1.1 1-2.1 2-3.2 3.1-1.8 1.7-3.5 3.6-5.6 5-2 1.4-4.3 2.3-6.7 1.3-1.9-.8-2.9-2.6-4-4.3-1.1-1.6-3.7-.1-2.7 1.5h0z"/><path d="M204.6 56.4c-.3-1.8-1-3.5-1.5-5.2l-.5-2.4c0-.4 0-.8.1-1.2 0-.2.1-.4.1-.5.2-.5.1.1-.5-.1-.2-.1-.3-.2-.5-.3l.1.1c1 1.1 2.6-.5 1.6-1.6-.5-.5-1.2-.6-1.8-.3s-.9.8-1.1 1.4c-.4 1.2-.4 2.5-.2 3.7.4 2.4 1.6 4.6 2 7 .1.6.9.9 1.4.8.6-.1.8-.7.8-1.4h0zm-.3-14.5l-.6.3c-.1.1-.1.2-.2.2 0 .1-.1.2-.1.3v.1.4c0 .1 0 .3.1.4a.76.76 0 0 0 .2.4c.1.1.1.2.2.3s.2.1.3.2c.1 0 .2.1.3.1.3.1.4 0 .7 0l-1.1-.3c.1.1.2.2.3.2h.1c.1.1.2.1.4.1.1 0 .3 0 .4.1h.2c.2 0 .3 0 .5-.1.1-.1.3-.1.4-.2s.3-.2.4-.3.2-.2.2-.3c.1-.1.1-.2.2-.4v-.1c0-.1.1-.3 0-.4v-.4-.1c-.1-.2-.1-.3-.2-.5-.1-.1-.1-.2-.2-.3l-.3-.3c-.1-.1-.3-.2-.5-.2h-.1-.3-.1-.4-.1c-.1 0-.2.1-.3.1 0 0-.1 0-.1.1-.1.1-.3.2-.4.3s-.2.2-.2.3c-.1.1-.1.2-.2.4s-.1.3-.1.5v.1c0 .1 0 .3.1.4v.1a.76.76 0 0 0 .2.4c.1.2.4.4.7.5.1 0 .3.1.4 0 .1 0 .3-.1.4-.1.2-.2.5-.4.5-.7.1-.3 0-.6-.1-.9v-.1c0 .1.1.2.1.3v-.2.3-.2.3c0-.1 0-.2.1-.2 0 .1-.1.2-.1.3 0-.1.1-.1.1-.2-.1.1-.1.2-.2.2 0-.1.1-.1.1-.1-.1.1-.2.1-.2.2l.1-.1c-.1 0-.2.1-.3.1h.2-.3.2-.3.2c-.1 0-.2-.1-.3-.1.1 0 .1.1.2.1-.1-.1-.2-.1-.2-.2.1 0 .1.1.1.1-.1-.1-.1-.2-.2-.2 0 .1.1.1.1.2 0-.1-.1-.2-.1-.3v.2-.3.2-.3.1c0-.1.1-.2.1-.3 0 0 0 .1-.1.1.1-.1.1-.2.2-.2l-.1.1c.1-.1.2-.1.2-.2-.1 0-.1.1-.2.1.1 0 .2-.1.3-.1-.1 0-.1 0-.2.1h.3-.2.3-.2c.1 0 .2.1.3.1 0 0-.1 0-.1-.1.1.1.2.1.2.2-.1 0-.1-.1-.2-.1-.1-.1-.2-.1-.2-.1-.1-.1-.2-.1-.3-.1h-.3-.2.3-.1.3-.1c.1 0 .2.1.3.1h-.1c.1.1.2.1.2.2l-.1-.1c.1.1.1.2.2.2 0 0 0-.1-.1-.1 0 .1.1.2.1.3v-.1.3-.1.3-.1c0 .1-.1.2-.1.3-.1.1-.1.2-.2.2-.1.1-.2.1-.2.2h.1c-.1 0-.2.1-.3.1a.76.76 0 0 0 .4-.2l.3-.3c.1-.1.1-.3.1-.4v-.4c-.1-.3-.3-.5-.5-.7-.1 0-.2-.1-.3-.1-.3.1-.5.1-.7.1h0z" fill="#fff"/><path d="M176.6 53.6c3.5-1.2 7.2-2.1 10.8-2.5.8-.1 1.5-.6 1.5-1.5 0-.7-.7-1.6-1.5-1.5-4 .5-7.9 1.4-11.6 2.6-.8.3-1.3 1-1 1.8.2.8 1.1 1.4 1.8 1.1h0zm1.6-15.7c3.8 1.4 7.4 3.1 10.9 5 1.7.9 3.2-1.7 1.5-2.6-3.7-2.1-7.6-3.8-11.6-5.3-.8-.3-1.6.3-1.8 1-.3.9.2 1.6 1 1.9h0zm7.3-11.2l7.4 9.6c.5.6 1.3 1 2.1.5.6-.4 1-1.4.5-2.1l-7.4-9.6c-.5-.6-1.3-1-2.1-.5-.6.4-1 1.5-.5 2.1h0z"/><path d="M214.9 81.1c.8-3.5.7-6.9-.9-10s-4.9-6.3-6-9.7c-.3-.9-.5-1.9-.1-2.7a1.59 1.59 0 0 1 1-.8c1-.2 2 .4 2.7 1.3s1.2 2.2 1.5 3.4c.1.6.2 1.3-.1 1.6-.5.4-1.1-.3-1.4-1-.5-1.1-.8-2.3-1.1-3.6-.2-.9-.2-2 0-2.8s.9-1.6 1.6-1.5c.4.1.8.4 1.2.7 1.2 1.2 2.3 2.8 3 4.6.2.4.3.8.3 1.2s-.3.8-.6.7-.5-.5-.6-.8a25.65 25.65 0 0 1-1.5-5.6c-.1-.5-.1-1 0-1.4.2-.4.5-.6.8-.7 1-.2 2.1.6 2.8 1.8s1 2.6 1.1 4c.6 5.1.4 11.1 5.4 17.1" fill="none" stroke="#000" stroke-miterlimit="10"/><path d="M285.7 46.9c-3.3.5-8.4 2-10.7 4.2s-2.9 5.9-.6 8c1.6 1.5 4.2 1.8 6.3 1.1s3.8-2.3 4.9-4.1c1-1.7 1.1-2.5 1-4.4-.1-1.7-.3-3.2-.9-4.8z"/><path d="M284.5 48.2l-11-26.8 11 26.8z" fill="#f9b903"/><path d="M285.9 47.8c-3.5-9-7.5-17.8-11-26.8-1 .3-1.9.5-2.9.8l9.6 23.4c.5 1.1.9 2.2 1.4 3.4.8 1.7 3.7.9 2.9-.8l-9.6-23.4c-.5-1.1-.9-2.2-1.4-3.4-.7-1.8-3.6-1-2.9.8 3.5 9 7.5 17.8 11 26.8.7 1.7 3.7 1 2.9-.8z"/><path d="M275.4 25.8c.9-1.1 7.2-1.7 8.6-1.6.9 0 1.8.3 2.4 1 .6.8.9 2.7.8 3.7-.2 2.6-1.3 5-1.3 7.6 0 .4 0 .8.2 1.2.3.7 1 1.2 1.7 1.4s1.5.1 2.2.1c-.8.2-1.6.2-2.4-.1-.1-.1-.3-.1-.4-.3-.1-.1-.1-.3-.1-.5.2-2 .9-4 1.6-5.9.7-1.6 1.4-3.3 1.6-5 .2-1.8-.1-3.7-1.3-5.1-1.3-1.5-3.3-1.5-5.1-1.7-3-.4-8.4.1-10 1l1.5 4.2z"/><path d="M276.5 26.9c.1-.1-.3.1.1-.1.3-.1.1 0 .3-.1l1.2-.3 2.9-.5c1.2-.1 3.9-.8 4.5.8.9 2.8-.6 5.8-1 8.6-.2 1.6-.1 3.3 1.1 4.4s2.8 1.2 4.4 1.1l-.4-2.9c-.3.1-1.1.2-1.3 0 .1.2.3.4.4.7-.2-.6.3-1.7.5-2.3.2-.9.5-1.7.9-2.6.6-1.6 1.4-3.3 1.8-5 .6-3 0-6.9-3.1-8.4-1.4-.7-2.9-.8-4.4-1-1.3-.2-2.5-.2-3.8-.1-2.3.1-5.1.2-7.2 1.3-.6.3-.9 1.1-.7 1.7l1.3 4.1c.6 1.8 3.5 1 2.9-.8l-1.3-4.1c-.2.6-.5 1.1-.7 1.7.2-.1-.1 0 .2-.1.2-.1.3-.1.5-.2l1.3-.3a16.28 16.28 0 0 1 3.1-.3c2-.1 4.1 0 6.1.3 6.1 1.1 1.4 9.2.4 12.6-.4 1.3-1.2 3.5-.3 4.8s3 1.3 4.4.9c1.6-.4 1.3-3.1-.4-2.9-.7 0-1.5.2-2.2-.2-.6-.4-.5-1.1-.4-1.7.1-1.7.7-3.3 1-4.9.5-2.6.6-6.4-2.2-7.8-1.8-.9-4.2-.5-6.2-.2-1.8.2-4.4.4-5.7 1.8-1.4 1.3.7 3.4 2 2z"/><use xlink:href="#G"/><path d="M389.6 27.7a.76.76 0 0 1-.2-.4s-.1-.3 0-.1c-.1-.2-.2-.5-.2-.7 0 .2 0 0 0-.1V26v-.4c0 .3 0-.2 0-.2.2-1 .6-1.6 1.4-2.3.6-.5 1.5-1 2.4-1.2.2-.1.4-.1.7-.2.1 0 .2 0 .4-.1-.3 0 0 0 0 0h.7.4.2c-.2 0-.1 0 0 0 .2.1.4.1.6.2.1 0 .3.1.1 0 .1 0 .2.1.3.1.1.1.2.1.3.2.1 0 .3.2.1.1l.2.2.2.2c-.1-.1-.1-.1 0 0s.3.6.2.3c.1.2.1.4.2.6-.1-.3 0-.1 0 0v.3.3c0 .3.1-.2 0 .1-.1.2-.1.4-.2.6-.1.4.1-.2 0 .1 0 .1-.1.2-.1.3-.1.2-.2.4-.4.6 0 0-.2.2 0 0l-.3.3-.2.2s-.3.2-.1.1c-.2.1-.4.3-.6.4-.1 0-.2.1-.2.1.3-.1 0 0-.1 0-.2.1-.5.1-.7.2 0 0-.4.1-.2 0 .1 0-.3 0-.4 0h-.8c-.6 0-1.1 0-1.7-.1-.2 0-.3 0-.5-.1.3 0-.2 0-.2 0-.2 0-.5-.1-.7-.1l-1.6-.3c-.8-.2-1.6.2-1.8 1-.2.7.2 1.7 1 1.8 2.5.5 5 1 7.6.6 2.5-.4 4.5-2.4 5.1-4.9.3-1.3.2-2.6-.4-3.8s-1.8-2-3.1-2.4c-2.5-.8-5.5 0-7.6 1.5-1.3 1-2.3 2.3-2.8 4-.4 1.6-.2 3.3.7 4.8.4.7 1.3 1 2.1.5.4-.2.7-1.2.2-1.9h0z"/><path d="M366.5 38.6L371 60c.1.6.8 1.2 1.4 1.1l14.3-1.3 7.4-.7c2.4-.3 1.9-2.4 1.6-4.2-1.7-9.3-3.9-18.6-6.5-27.7-.5-1.9-3.4-1.1-2.9.8 1.4 4.8 2.7 9.7 3.8 14.6.5 2.4 1.1 4.7 1.6 7.1.3 1.3.5 2.5.7 3.8.1.6.2 1.3.4 1.9.1.3.4 1.3.3 1.6.2-.3.5-.6.7-.9-.1.1-1 .1-1.1.1-.4 0-.8.1-1.2.1l-2.7.3c-1.8.2-3.6.3-5.4.5l-10.8 1c.5.4 1 .7 1.4 1.1l-4.5-21.4c-.6-1.9-3.5-1.1-3 .8h0z"/><use xlink:href="#G" x="-20" y="10"/><path d="M369.6 37.7a.76.76 0 0 1-.2-.4s-.1-.3 0-.1c-.1-.2-.2-.5-.2-.7 0 .2 0 0 0-.1V36v-.4c0 .3 0-.2 0-.2.2-1 .6-1.6 1.4-2.3.6-.5 1.5-1 2.4-1.2.2-.1.4-.1.7-.2.1 0 .2 0 .4-.1-.3 0 0 0 0 0h.7.4.2c-.2 0-.1 0 0 0 .2.1.4.1.6.2.1 0 .3.1.1 0 .1 0 .2.1.3.1.1.1.2.1.3.2.1 0 .3.2.1.1l.2.2.2.2c-.1-.1-.1-.1 0 0s.3.6.2.3c.1.2.1.4.2.6-.1-.3 0-.1 0 0v.3.3c0 .3.1-.2 0 .1-.1.2-.1.4-.2.6-.1.4.1-.2 0 .1 0 .1-.1.2-.1.3-.1.2-.2.4-.4.6 0 0-.2.2 0 0l-.3.3-.2.2s-.3.2-.1.1c-.2.1-.4.3-.6.4-.1 0-.2.1-.2.1.3-.1 0 0-.1 0-.2.1-.5.1-.7.2 0 0-.4.1-.2 0 .1 0-.3 0-.4 0h-.8c-.6 0-1.1 0-1.7-.1-.2 0-.3 0-.5-.1.3 0-.2 0-.2 0-.2 0-.5-.1-.7-.1l-1.6-.3c-.8-.2-1.6.2-1.8 1-.2.7.2 1.7 1 1.8 2.5.5 5 1 7.6.6 2.5-.4 4.5-2.4 5.1-4.9.3-1.3.2-2.6-.4-3.8s-1.8-2-3.1-2.4c-2.5-.8-5.5 0-7.6 1.5-1.3 1-2.3 2.3-2.8 4-.4 1.6-.2 3.3.7 4.8.4.7 1.3 1 2.1.5.4-.2.7-1.2.2-1.9h0zm2.4 17.7l11.6-1.4 5.6-.5 3-.2c.8 0 1.8.1 2.4-.5.5-.5.5-1.2.2-1.8v-.1c-.8-1.8-3.4-.2-2.6 1.5v.1c.1-.6.2-1.2.2-1.8l-.1.1c.4-.1.7-.3 1.1-.4-7.5.2-14.9 1.2-22.3 2.2-.8.1-1.2 1.1-1 1.8.3.9 1.1 1.2 1.9 1h0zm12 84.7c2.5 1.7 6.9 3.7 9.7 3.7 2.8-.1 5.6-2.2 5.3-5-.2-1.9-1.7-3.7-3.6-4.6-1.9-.8-3.9-.8-5.8-.2-1.7.5-2.3 1-3.4 2.4-.8 1.2-1.6 2.3-2.2 3.7z"/><path d="M385.5 141.6l-8.8 24.7 8.8-24.7z" fill="#f9b903"/><path d="M384 141.2c-3.1 8.2-5.8 16.5-8.8 24.7 1 .3 1.9.5 2.9.8l7.7-21.6c.4-1 .7-2.1 1.1-3.1.7-1.8-2.2-2.6-2.9-.8l-7.7 21.6c-.4 1-.7 2.1-1.1 3.1-.7 1.8 2.2 2.6 2.9.8 3.1-8.2 5.8-16.5 8.8-24.7.7-1.8-2.2-2.6-2.9-.8z"/><path d="M378.1 162.6c.5 1.1 4.8 2 5.8 2 .6 0 1.3-.2 1.8-.7.6-.6 1.1-2.4 1.2-3.2.3-2.3-.1-4.5.3-6.9l.3-1.1c.3-.6.9-1 1.4-1.1s1.1 0 1.6.1c-.5-.3-1.1-.3-1.7-.1-.1 0-.2.1-.3.2s-.1.3-.1.4c-.2 1.8 0 3.6.2 5.3.2 1.5.4 3 .3 4.6s-.7 3.3-1.7 4.4c-1.1 1.2-2.6 1.1-3.9 1.2-2.2.1-5.9-.7-6.9-1.6l1.7-3.5z"/><path d="M376.8 163.3c.8 1.4 2.9 1.9 4.3 2.3 1.7.4 3.6.9 5.2-.2 1.8-1.4 2.2-4.2 2.2-6.3 0-1.4-.1-2.9.1-4.3.1-.5.1-1.2.5-1.5.3-.2.8-.1 1.1-.1.7.1 1.5-.1 1.8-.9.3-.6.1-1.6-.6-1.9-1.2-.5-3.3-.7-4.1.7-.7 1.1-.4 2.9-.4 4.2.2 2.7 1.1 5.6.3 8.2-.2.9-.7 2-1.6 2.4-.8.4-2.1.3-3.1.3s-2-.2-2.9-.4c-.5-.1-1-.2-1.4-.4-.2-.1-.3-.1-.5-.2-.1 0-.5-.4-.3-.1.1.6.2 1.2.2 1.8l1.6-3.6c.3-.7.2-1.6-.5-2.1-.6-.4-1.7-.2-2.1.5l-1.6 3.6c-.3.6-.3 1.4.2 1.8 1.6 1.3 3.9 1.7 5.9 1.9 2.2.3 4.9.3 6.7-1.2 2.1-1.7 2.7-4.8 2.6-7.4l-.5-4.2c-.1-.7-.1-1.4-.1-2.1s-.1-1.5.1-2.1c-.1.2-.3.4-.4.7-.2.2.1 0 .2.1l1.2-2.7c-1.2-.2-2.5-.3-3.5.5-1.2.8-1.6 2-1.7 3.3-.3 2.5.2 5.1-.5 7.5-.2.7-.4 1.5-1.1 1.6h-.4c-.3 0 .3.1-.1 0-.3-.1-.7-.1-1-.2l-2.3-.6c-.4-.1-.4-.1-.8-.3-.1-.1-.2-.2-.3-.2.1 0 .2.2.1.1-.8-1.7-3.4-.2-2.5 1.5z"/><use xlink:href="#H"/><use xlink:href="#I"/><path d="M252.9 160.1l3.7-19.3c.2-.8-.2-1.6-1-1.8l-12.6-3.9-6.1-1.9c-2-.4-2.4 1.3-2.7 2.8-1.9 8.4-3.3 17-4.3 25.6-.2 1.9 2.8 1.9 3 0 .9-7.8 2.2-15.5 3.8-23.1.2-.8.6-1.8.6-2.6.3-.9-.1-.8-1.2.2.2 0 .3.1.5.1.4.2 1 .3 1.4.4l5.6 1.8 11.2 3.5c-.3-.6-.7-1.2-1-1.8l-3.7 19.3c-.5 1.8 2.4 2.6 2.8.7h0z"/><use xlink:href="#H" x="20" y="-1.3"/><use xlink:href="#I" x="20" y="-1.3"/><path d="M254.3 143.9c-3.4-.9-6.8-1.8-10.2-2.9-1.6-.5-3.3-1-4.9-1.6l-2.4-.9c-.9-.3-1.6-.8-2.6-.3-.5.2-.7.8-.7 1.3v.1c0 1.9 3 1.9 3 0v-.1c-.2.4-.5.9-.7 1.3h.1c-.4.1-.8.1-1.2.2 6.2 2.4 12.5 4.1 18.9 5.8 1.8.5 2.6-2.4.7-2.9h0z"/><use xlink:href="#B"/><defs ><path id="B" d="M406.6 180h-20.3-52.2-71.8H183h-74.2-56.7-27c-9.3 0-16.6-6.9-16.7-16.4V146 72.5 25.9c.1-8.8 7.1-15.8 15.9-15.9h1.5 10.4H82h68.2 78.4H305h62.4 35.3c4.1 0 8-.1 11.8 2.1 5.2 3 8 8.4 8 14.3v6.1 65.8 62 3.7c-.1 8.9-7.1 15.9-15.9 16-1.9 0-1.9 3 0 3 9-.1 17.1-6.6 18.6-15.6.3-2 .3-4 .3-6.1v-23.5-76.5-28.2-6.6c0-5.3-1.8-10.4-5.7-14.2C415.3 8 409.7 7 403.7 7H391h-49.5-71.1-80.1-75.8-59.2-29.6-2.4C14.4 7.6 7 14.4 5.7 23.2c-.7 4.9-.2 10.2-.2 15.1v72 53.2c0 10.8 8.3 19.4 19.2 19.5h7.9 42.5H142h79.2 77.9 64.6 38 5c1.8 0 1.8-3-.1-3z"/><path id="C" d="M311.7 76.2c1.6 1 2.9 3 3 4.9.1 2.5-1.3 4.4-3 5.8-3.4 2.7-8.4 1.8-10.3-2.5-1.4-3.1-.6-6.3 2-8.1 2.4-1.7 5.7-1.7 8.3-.1z"/><path id="D" d="M333.9 117.7c1.6 1 2.9 3 3 4.9.1 2.5-1.3 4.4-3 5.8-3.4 2.7-8.4 1.8-10.3-2.5-1.4-3.1-.6-6.3 2-8.1 2.4-1.7 5.7-1.8 8.3-.1z"/><path id="E" d="M333.1 119c2 1.2 2.9 3.9 1.7 6-.5 1-1.5 2-2.3 2.6l-1.1.6c-.3.1-.5.2-.8.2-.1 0-.3.1-.4.1s-.1 0 0 0h-.3c-1.8.1-3.6-.7-4.6-2.3-1.2-1.9-1.4-4.5.1-6.3 2-2.3 5.3-2.4 7.7-.9 1.6 1 3.2-1.6 1.5-2.6-3.3-2-7.5-1.8-10.6.6-2.9 2.4-3.4 6.4-1.9 9.7 1.3 2.8 4 4.6 7.1 4.8 3.2.1 6.1-1.8 7.8-4.4 2.3-3.6 1.1-8.4-2.5-10.6-1.5-1.1-3 1.5-1.4 2.5z"/><path id="F" d="M301.3 107.6c1.6 1 2.9 3 3 4.9.1 2.5-1.3 4.4-3 5.8-3.4 2.7-8.4 1.8-10.3-2.5-1.4-3.1-.6-6.3 2-8.1 2.5-1.7 5.7-1.7 8.3-.1z"/><path id="G" d="M388.3 28.5c-1-1.5-.8-3.7.2-5.2s2.7-2.5 4.5-2.9c1.9-.4 4.1-.2 5.3 1.4 1.5 2 .3 5.1-1.8 6.3s-6 .5-8.4 0"/><path id="H" d="M231.2 160.6c.3 1.6-.6 3.3-1.9 4.2-1.4.9-3.1 1.1-4.7.8-1.7-.3-3.5-1.3-3.9-3-.6-2.2 1.5-4.3 3.7-4.6s5.1 1.7 6.9 2.9"/><path id="I" d="M229.7 161c0-.2 0 0 0 0v.4.1c0 .1 0 .2-.1.3 0 .1-.1.2-.1.3 0 0-.1.3 0 .1l-.3.6c-.1.1-.1.2-.2.3.1-.1-.1.1-.1.1-.1.2-.3.3-.5.4.1-.1-.1 0-.1.1-.1.1-.2.1-.3.2-.2.1-.4.2-.5.3-.9.3-1.6.4-2.6.3-.1 0-.2 0-.4-.1-.2 0-.4-.1-.6-.2s-.3-.1-.5-.2c.2.1 0 0-.1 0-.1-.1-.3-.1-.4-.2-.4-.2-.4-.2-.7-.5 0 0-.2-.3-.1-.1.1.1-.1-.1-.1-.1 0-.1-.1-.1-.1-.2-.2-.3 0 .2-.1-.2 0-.1-.1-.2-.1-.3 0 .1 0 .3 0 0v-.3-.1c0 .2 0-.1 0-.2s.1-.2.1-.3c.1-.2-.1.2 0 0 .1-.1.1-.2.2-.3.1-.2.1-.1 0-.1.1-.1.1-.2.2-.2l.4-.4c-.2.1.2-.1.3-.2s.2-.1.3-.2c.1 0 .3-.2.1-.1.2-.1.4-.1.6-.2.1 0 .2 0 .3-.1-.1 0-.2 0 0 0h.6c-.1 0-.3-.1 0 0 .1 0 .2.1.4.1 1 .2 1.6.6 2.5 1.1l2.4 1.6c.7.5 1.7.1 2.1-.5.4-.7.1-1.6-.5-2.1-1.8-1.2-3.8-2.6-6-3-2.4-.4-4.9.6-6.2 2.7-1.5 2.3-.6 5 1.5 6.5 1.9 1.4 4.7 1.7 6.9 1 2.9-.9 4.9-3.7 4.4-6.7-.1-.8-1.1-1.2-1.8-1-.6 0-.9.8-.8 1.6h0z"/></defs></svg>