<svg xmlns="http://www.w3.org/2000/svg" viewBox="0 0 365 415"><defs><style>.cls-1{fill:#fff;}.cls-2{fill:#7ec7cd;}.cls-3{fill:#183e42;}.cls-4{fill:#e4252e;}.cls-5{fill:#183e41;}.cls-6,.cls-7,.cls-9{fill:#fac706;}.cls-7,.cls-9{stroke:#183e42;stroke-miterlimit:10;}.cls-7{stroke-width:2px;}.cls-8{fill:#e56869;}.cls-10{font-size:21px;font-family:Pangram-Medium, Pangram;}.cls-11{letter-spacing:-0.09em;}.cls-12{letter-spacing:-0.04em;}.cls-13{letter-spacing:-0.07em;}.cls-14{letter-spacing:-0.06em;}.cls-15{letter-spacing:-0.07em;}.cls-16{letter-spacing:-0.08em;}.cls-17{letter-spacing:-0.07em;}.cls-18{letter-spacing:-0.05em;}.cls-19{letter-spacing:-0.06em;}.cls-20{letter-spacing:-0.09em;}.cls-21{letter-spacing:-0.08em;}.cls-22{letter-spacing:-0.06em;}.cls-23{letter-spacing:-0.03em;}.cls-24{letter-spacing:-0.05em;}.cls-25{letter-spacing:-0.05em;}.cls-26{letter-spacing:-0.05em;}.cls-27{letter-spacing:-0.02em;}.cls-28{letter-spacing:-0.06em;}.cls-29{letter-spacing:-0.1em;}.cls-30{letter-spacing:-0.09em;}.cls-31{letter-spacing:-0.04em;}.cls-32{letter-spacing:-0.02em;}.cls-33{letter-spacing:-0.02em;}.cls-34{letter-spacing:-0.12em;}.cls-35{letter-spacing:-0.07em;}.cls-36{letter-spacing:-0.08em;}.cls-37{letter-spacing:-0.05em;}.cls-38{letter-spacing:-0.09em;}.cls-39{letter-spacing:-0.09em;}.cls-40{letter-spacing:-0.07em;}.cls-41{letter-spacing:0em;}</style></defs><title>Plataforma menu insignias</title><g id="contenido"><path class="cls-1" d="M70.94,5c53.32,1.35,188.33-.11,233.81,1,53.33,1.35,41.09,50.87,27.42,94.81S313.23,151.46,274,150.47l-9.84-.25c-1.45,9-7.2,48.26-49.2,51.26,0,0,31-17,14-52.15-36.65-.92-99.19-2-127.07-2.7-40.78-1-64.1-9.6-75.35-61.26S17.61,3.66,70.94,5Z"/><path d="M70.94,6.5c62.9,1.57,125.88.42,188.8.59,12.55,0,25.11.09,37.66.3,13.3.22,28.57.64,37.76,11.79,8.69,10.55,8,26.08,6.2,38.79-2.29,15.94-7.13,31.49-12,46.8-4.06,12.82-8.16,30.23-20,38.41-12.4,8.6-31.13,5.9-45.23,5.54a1.51,1.51,0,0,0-1.44,1.1c-1.49,9.19-3.88,18.22-8.56,26.34C245.82,190.7,231.53,198.62,215,200l.76,2.79a41.16,41.16,0,0,0,14.38-14.17c7.76-12.58,6.19-27.1.13-40a1.51,1.51,0,0,0-1.3-.74c-27.24-.68-54.49-1.19-81.73-1.73q-18.75-.37-37.5-.79c-10.55-.24-21.17-.37-31.59-2.23-9-1.62-17.95-4.6-25.35-10.2-8.49-6.43-14.2-15.75-18.15-25.51-4.92-12.19-7.58-25.31-9.76-38.25-1.75-10.4-3.1-21.23-1.85-31.77C24.13,28,27.83,19.1,35.84,13.71,45.94,6.9,59.17,6.27,70.94,6.5c1.93,0,1.93-3,0-3-12.53-.25-26.69.58-37.29,8.08-8,5.7-12.09,14.63-13.43,24.2-1.87,13.44.39,27.36,2.92,40.56,3,15.48,6.64,31.53,15.23,45,14.15,22.19,39.06,26.13,63.51,26.8,33.58.91,67.16,1.37,100.74,2.1,5,.1,10.1.22,15.14.33l6.38.15a15.42,15.42,0,0,1,2.44.06c2,.46,2,1.31,2.83,3.32,3.27,8.38,4.33,17.58,1.36,26.21a37.46,37.46,0,0,1-16.54,19.88c-1.25.69-.76,2.92.75,2.8,16.58-1.36,31.26-8.78,40.37-23,5.71-8.89,8.61-19.07,10.28-29.4l-1.45,1.1c13.63.35,29.51,2.24,42.37-3.52,10.24-4.58,15.49-14.68,19.46-24.62a352,352,0,0,0,15.41-50.14c3.21-13.75,6-29,2.46-43-7.3-28.91-40-26.09-63.6-26.27-34.15-.26-68.3-.11-102.45-.08-35.62,0-71.28.28-106.89-.61C69,3.46,69,6.46,70.94,6.5Z"/><path class="cls-2" d="M93.14,288.13c1-2.28-.1-4.91-1.24-7.14-3.49-6.87-7-13.75-11.67-19.91C67.17,243.74,46,232.81,36.49,213.28a30.68,30.68,0,0,1-3-9.17,29.72,29.72,0,0,1,.8-11c2-8,6.43-15.64,13.47-19.88,6.81-4.09,15.17-4.6,23.11-4.18,5.94.32,10.29.74,15.48,3.66,3.69,2.07,6.55,5.27,9.15,8.6a34.43,34.43,0,0,1,6.59,15.39c.46,2.9.94,7.31-.74,9.71s-3.53,2-6,.35a8.52,8.52,0,0,1-2.63-3.58c-2.74-5.81-4.61-12.28-9.16-16.83-6.45-6.46-17.28-6.24-26-3.59-4.9,1.49-7.34,3.69-8.68,8.63-1,3.66-1.93,7.23-.4,10.71A79.72,79.72,0,0,0,66,227.19c4.53,4.4,9.6,8.26,13.82,13,2.83,3.14,6.91,7.47,9.38,10.9,8.7,12.09,14.25,20.49,17.25,33.24"/><path class="cls-3" d="M95,288.63c1.45-5.31-2.3-10.41-4.7-14.91a97.41,97.41,0,0,0-11.48-17.43C71,247.18,61.44,239.92,52.9,231.61,43.22,222.19,33,209.82,35.74,195.4c1.28-6.78,4.46-13.52,9.7-18.13,6.53-5.76,15.4-6.7,23.76-6.44,7.1.23,14.13,1.13,19.69,5.94a34.35,34.35,0,0,1,11.43,20.41,23.85,23.85,0,0,1,.37,4.54c-.15,3.8-3,5.39-5.59,1.84-1.8-2.48-2.66-6-3.92-8.77-2.25-5-5.12-9.83-10-12.66-8-4.64-21.87-4.26-29.37,1.29C48.31,186,47,190.34,46.24,194.5c-1.21,6.61,2.06,12.12,5.39,17.62,7.85,13,19.95,21.69,30,32.82,10.25,11.38,19.31,24.84,23,39.85.58,2.34,4.2,1.35,3.62-1-3.21-13-10.24-24.32-18.32-34.87-9-11.75-21.48-20.1-30.38-31.83a80.15,80.15,0,0,1-6.37-9.83c-2.61-4.79-4.11-9-2.66-14.49,2-7.73,9.3-9.47,16.55-9.85,8.8-.46,15.41,3,19.51,10.84,2.54,4.89,3.79,12.59,9.09,15.3,3.39,1.73,6.66.39,8.08-3.17,1.93-4.82.19-11.61-1.51-16.23-4.39-12-14.28-20.91-27.12-22.21s-26.95-.12-35.61,10.67c-8.21,10.2-10.32,24.28-4.62,36.09C41,226.9,52.1,236.1,62.38,245.31c5.77,5.18,11.54,10.51,16.23,16.72a92.35,92.35,0,0,1,6.7,10.46c2.1,3.74,7.24,10.69,6,15.14-.64,2.33,3,3.33,3.62,1Z"/><path class="cls-2" d="M224.43,300.87c9.15-7.37,15.46-13.72,22.33-8.33,24.39,19.13,38.06,17,49.49,10.1,7.76-4.69,13.64-10.42,17-19.33s4.68-18.58,5.7-28.2c.32-3,.58-6.2-.66-9s-4.57-4.76-7-3.27c-.69,8.76-1.39,17.62-4,25.9S300,284.8,293,289.08c-6,3.67-13.31,4.5-20.34,4.05s-11.57-6.78-19.53-11c-6-3.22-11.68-5.87-17.88-3.87-11.85,3.83-14.11,11.68-18.16,15.25Z"/><path class="cls-3" d="M225.76,302.2c3.69-3,7.33-6.56,11.64-8.66,5.44-2.65,8.73,1,12.95,4a70.83,70.83,0,0,0,18.57,10,32.59,32.59,0,0,0,26.06-2c13-6.86,19.89-17.91,23-32,1.68-7.52,3.84-16.74,2.91-24.47-.59-4.92-4.77-10.12-10.15-8a2,2,0,0,0-1.38,1.81c-1.06,13.58-2.11,29-11.62,39.73-4.84,5.46-11.4,8.12-18.58,8.66a22.05,22.05,0,0,1-16.13-4.67c-8.45-6.23-18.91-13.68-29.85-9.62a27.88,27.88,0,0,0-10.56,6.87c-2.49,2.6-4.26,5.84-6.88,8.32a1.9,1.9,0,0,0,0,2.65l7.33,7.39c1.71,1.72,4.36-.94,2.66-2.65l-7.34-7.39v2.65c2.63-2.49,4.39-5.71,6.88-8.32,5-5.19,12.16-8.37,19.27-6.23,11.56,3.46,18.78,14.83,31.36,14.86,11.54,0,21.57-4.58,27.93-14.37,7.24-11.17,8.27-25,9.28-37.88l-1.38,1.81c8.84-3.54,3.94,21.16,3.36,24.29-1.35,7.15-3.15,14.63-7.27,20.72-5.41,8-15.45,14.95-25.28,15.91-11.08,1.08-21.66-5.08-30.33-11.27-4.46-3.19-8.1-6.85-13.94-5.19s-10.7,6.76-15.2,10.41C221.23,301.07,223.9,303.71,225.76,302.2Z"/><path class="cls-3" d="M265.67,303.13a46.55,46.55,0,0,1,1.75-10.67c.66-2.32-3-3.31-3.62-1a51.13,51.13,0,0,0-1.88,11.66c-.11,2.42,3.64,2.41,3.75,0Z"/><path class="cls-3" d="M294.68,288.39a24.93,24.93,0,0,1,7.8,8.44,1.88,1.88,0,0,0,3.24-1.9,29.13,29.13,0,0,0-9.15-9.78c-2-1.33-3.9,1.92-1.89,3.24Z"/><path class="cls-3" d="M305.5,276.22c3.12.3,5.69,2.18,7.72,4.45,1.62,1.8,4.26-.86,2.66-2.65a15.93,15.93,0,0,0-10.38-5.55c-2.4-.24-2.38,3.51,0,3.75Z"/><path class="cls-3" d="M310.58,259.64l6.12,1.85c2.31.7,3.3-2.92,1-3.61L311.58,256c-2.31-.7-3.3,2.92-1,3.62Z"/><path class="cls-4" d="M304,238.33a17,17,0,0,1-11.14-10.6c-.43-1.25-.68-2.74.12-3.8,1.06-1.42,3.32-1.15,4.82-.22,3.82,2.36,5,7.31,5.63,11.75.08.55.39,1.27.93,1.15"/><path class="cls-3" d="M304.37,237.12a16.2,16.2,0,0,1-7.72-5.18,15.26,15.26,0,0,1-2.29-3.92,7,7,0,0,1-.48-1.4l2.2-2.31c.74-.1,2,1.08,2.39,1.49,2,2,2.85,4.91,3.39,7.61.34,1.7.22,3.88,2.21,4.41a1.25,1.25,0,0,0,.67-2.41c-.25-.07-1.08-5.22-1.28-5.81a14.76,14.76,0,0,0-2.45-4.72c-1.89-2.33-6-4.68-8.62-2.09s-.16,7.24,1.54,9.66a18.71,18.71,0,0,0,9.77,7.08c1.54.5,2.2-1.92.67-2.41Z"/><path class="cls-4" d="M310.29,234.21a2.46,2.46,0,0,1-1-1.69,50.2,50.2,0,0,1-2-10,16.93,16.93,0,0,1,2-9.82c.68-1.13,1.89-2.28,3.15-1.89a2.72,2.72,0,0,1,1.13.77c2.35,2.37,3,6,2.38,9.34a26.1,26.1,0,0,1-4.13,9.06,7.08,7.08,0,0,0-1.45,3.44"/><path class="cls-3" d="M311.17,233.33c-2-2.07-2.51-8.11-2.66-10.78-.09-1.56-.2-4.07.39-5.47,0-1.56.94-2.27,2.72-2.12,2-1.46,3-1,3.06,1.31,1.6,6.86-4.3,10.84-5.51,16.85-.31,1.57,2.1,2.24,2.41.66.61-3,3.05-5.6,4.27-8.44a17,17,0,0,0,1.58-6.91c0-3.09-1.66-8.88-5.59-8.81s-5.43,6.27-5.75,9.29c-.48,4.58,0,12.72,3.32,16.19,1.11,1.16,2.87-.61,1.76-1.77Z"/><path class="cls-4" d="M317.18,234a13.9,13.9,0,0,1,2.89-8.32,25,25,0,0,1,6.65-5.94,10.19,10.19,0,0,1,4.51-1.88,4.16,4.16,0,0,1,4.16,2.06,4.3,4.3,0,0,1-1,4.53,14,14,0,0,1-4.11,2.67A110,110,0,0,0,316,235.6"/><path class="cls-3" d="M318.43,234a14.7,14.7,0,0,1,5.1-10.27,25.09,25.09,0,0,1,4.35-3.24,10.69,10.69,0,0,1,2.48-1.19q6.39,3,1.45,5.58c-2.54,1.74-5.63,2.9-8.3,4.44s-5.51,3.39-8.17,5.23c-1.31.91-.06,3.08,1.26,2.16,3-2.11,6.15-4.1,9.38-5.92,2.6-1.46,5.75-2.59,8.1-4.44,2.73-2.15,4.22-6.34.9-8.73-3.7-2.66-8.27.41-11.25,2.7-4.45,3.43-7.57,8-7.8,13.68-.07,1.61,2.43,1.61,2.5,0Z"/><path class="cls-3" d="M287.86,306.27c.31-4.48.26-10.41-2.4-14.26-1.36-2-4.62-.1-3.24,1.89,2.3,3.32,2.16,8.51,1.89,12.37-.16,2.41,3.59,2.39,3.75,0Z"/><path class="cls-3" d="M250.62,292.21c-1.44-3.42-.32-7.15,1.24-10.33,1-2.16-2.18-4.06-3.24-1.89-2,4-3.43,8.89-1.62,13.22.92,2.19,4.55,1.23,3.62-1Z"/><path class="cls-3" d="M237.14,289.45a5.46,5.46,0,0,1-2.65-3.83,14.69,14.69,0,0,1-.4-2.88c0-.28.1-2.17-.3-1.84,1.88-1.51-.79-4.15-2.66-2.65s-.77,6.08-.34,8c.59,2.6,2,5.25,4.46,6.45,2.16,1,4.07-2.2,1.89-3.24Z"/><path class="cls-3" d="M218.32,362.57c1.52,2,5-.18,7.48.41l.6-8.94a49.53,49.53,0,0,0-10-.83A10.92,10.92,0,0,0,218.32,362.57Z"/><path class="cls-3" d="M217,363.9c2.47,2.65,5.37.39,8.3.89a1.91,1.91,0,0,0,2.37-1.81l.61-8.94a1.87,1.87,0,0,0-1.38-1.8,56.31,56.31,0,0,0-10.45-.91,1.91,1.91,0,0,0-1.8,1.38,12.75,12.75,0,0,0,2,10.81c1.39,2,4.64.08,3.24-1.89a9.25,9.25,0,0,1-1.68-7.92l-1.81,1.37a50.72,50.72,0,0,1,9.45.77L224.53,354l-.61,8.94,2.38-1.81a10.34,10.34,0,0,0-3.51.05c-.9.14-2.46.76-3.14,0C218,359.48,215.35,362.14,217,363.9Z"/><path class="cls-1" d="M117.19,381.75a6.75,6.75,0,0,1-6.46-6.84c.28-22.38-.1-47.38,1.74-69.12.31-3.67.82-7.71,3.57-10.16,2.3-2,5.57-2.42,8.63-2.69a577,577,0,0,1,74.14-1.84,8.69,8.69,0,0,1,4.81,1.14c2,1.42,2.43,4.15,2.7,6.58q4.32,39.76,7.15,79.66c.14,2,.24,4.18-3.18,5.07a9,9,0,0,1-2.48.27Q162.5,383.67,117.19,381.75Z"/><path class="cls-5" d="M117.69,379.94c-7-1-5-10.57-5-15.8,0-5.53.06-11.06.11-16.59.09-10.72.27-21.43.87-32.13.26-4.74.07-10.1,1.47-14.67,2.14-7,11.39-6.13,17.3-6.58q17-1.29,34.14-1.57,8.29-.14,16.6,0c2.6,0,5.21.08,7.81.15s6.51-.43,9.07.32c6.12,1.8,5.08,12.34,5.61,17.42q.9,8.73,1.73,17.47,1.62,17,3,34,.34,4.38.67,8.76c.18,2.35.94,5.44.57,7.78-.58,3.6-2.8,3.41-5.76,3.46-3.28.05-6.57,0-9.85-.06q-39.42-.33-78.8-2c-2.41-.1-2.41,3.65,0,3.75q43.82,1.85,87.67,2.07c3.25,0,7.83.36,9.78-2.94a7.17,7.17,0,0,0,.73-3.84c0-4-.58-8.11-.88-12.1q-1.63-21.4-3.7-42.76-.94-9.71-2-19.41c-.45-4.22-.07-10.74-3.87-13.73-3.18-2.49-8.26-1.78-12-1.89q-11.72-.34-23.43-.21-21.48.24-42.91,2.08c-4.33.38-9.15.57-12.36,3.91s-3.45,8.34-3.8,12.72c-1.22,15.15-1.34,30.39-1.44,45.59,0,7.17-.78,14.67-.16,21.8.4,4.61,3.1,8,7.84,8.65C119.05,383.89,120.07,380.28,117.69,379.94Z"/><path class="cls-2" d="M239,409.74a9,9,0,0,1-7.55-7.55,470.66,470.66,0,0,1-6.2-51.95,7.42,7.42,0,0,1,6.31-8c3.6-.43,11.27-3.19,13.81-.52,1.8,1.88,2.68,4.5,3.49,7,5.35,16.61,8.16,30.91,12.39,47.85.18.72,1.66,8.73,1.41,9.4-.35.9-1.31,3.36-2.22,3.33C253.24,409.06,246.47,410.69,239,409.74Z"/><path class="cls-3" d="M239.48,407.94c-7.86-1.62-7.4-12.88-8.34-19.25q-1.66-11.35-2.8-22.77c-.53-5.35-4-19.11,2.48-21.6a41.38,41.38,0,0,1,7.28-1.47c1.73-.29,4.3-.91,5.93.2s2.4,4.42,3,6.21c4.88,14.39,7.87,29.39,11.47,44.13.71,2.9,3.22,9.44,2.28,12.34s-6.64,1.87-9.22,2a73.52,73.52,0,0,1-12.59.09c-2.4-.24-2.38,3.51,0,3.75a73.52,73.52,0,0,0,12.59-.09c2.81-.2,7.27.61,9.79-.57,3.58-1.68,3.19-6,2.71-9.14-2.21-14.35-6.28-28.8-10.19-42.77-1.51-5.43-2.8-15.63-7.88-19.17-3.65-2.55-9.12-.56-13,.23-4.93,1-8.82,3.06-9.54,8.55-.92,7,.93,15.4,1.71,22.43q1.44,13.07,3.55,26.05c1.07,6.54,2.36,12.88,9.8,14.41C240.84,412,241.85,408.42,239.48,407.94Z"/><path class="cls-3" d="M221.84,278.87a13.18,13.18,0,1,0,6.85,25Z"/><path class="cls-3" d="M221.34,277.07C212.29,278.33,206,287,208.46,296s12.31,13.22,20.73,9.68a1.93,1.93,0,0,0,1.31-2.31l-6.85-25a1.88,1.88,0,0,0-3.62,1l6.86,25,1.3-2.31c-6.48,2.72-14.13.16-16.11-7s3.29-13.33,10.26-14.3C224.72,280.35,223.7,276.74,221.34,277.07Z"/><path class="cls-6" d="M127.48,347c-2.64-.08-4.72-1.63-4.68-3.5.21-11.44-.07-24.23,1.26-35.34.22-1.88.59-3.95,2.59-5.2,1.66-1,4-1.24,6.24-1.38,17.84-1.12,35.78-1.44,53.68-.94a8.55,8.55,0,0,1,3.48.59c1.45.72,1.76,2.12,1.95,3.36q3.13,20.34,5.18,40.73c.1,1,.18,2.14-2.3,2.6a9.68,9.68,0,0,1-1.79.14Q160.27,347.93,127.48,347Z"/><path class="cls-3" d="M127.81,345.74c-6.24-.89-3.59-20.5-3.4-25.48a114.83,114.83,0,0,1,.86-11.72c1-6.56,8.42-5.83,13.57-6.1q13.41-.72,26.84-.81,6.47,0,12.93,0c4.14.06,10.33-1.17,12.19,3.21,1.58,3.72,1.43,9.59,2,13.56q.9,6.62,1.68,13.24c.3,2.59.6,5.18.88,7.77.14,1.3,1.18,4.87.6,5.82-1.77,3-12,1.45-14.78,1.43q-26.84-.19-53.67-1c-1.61-.05-1.61,2.45,0,2.5q29.31.85,58.64,1c3.44,0,11.58,1.71,12.35-3.34.56-3.7-.87-8.57-1.3-12.27q-.79-7-1.73-13.91c-.61-4.52-1.23-9-1.94-13.56-.33-2.16-.47-4.37-2.37-5.72-2.06-1.47-5.18-1.11-7.55-1.16q-7.46-.18-14.92-.15-14.91,0-29.82.82c-5,.26-13-.64-15.33,5-1.44,3.48-1.22,8.06-1.43,11.76-.27,4.78-.35,9.57-.4,14.36-.07,6.16-2.82,15.9,5.47,17.08C128.72,348.38,129.4,346,127.81,345.74Z"/><path class="cls-3" d="M131.62,309.74a2.13,2.13,0,0,0-.94,3,3.07,3.07,0,0,0,3.14,1.29,3.63,3.63,0,0,0,3-3.09,3,3,0,0,0-2.6-3.25,2.63,2.63,0,0,0-2.74,2.91"/><path class="cls-3" d="M131,308.66c-2.4,1.09-2.32,4.48-.3,5.89a4.83,4.83,0,0,0,6.67-1.49,4.33,4.33,0,0,0-1.87-6.3,3.85,3.85,0,0,0-5.26,3.85c.17,1.59,2.67,1.61,2.5,0a1.36,1.36,0,0,1,1.94-1.48,1.83,1.83,0,0,1,.52,2.68,2.36,2.36,0,0,1-2.67.9c-.88-.34-1.25-1.45-.27-1.89,1.47-.66.2-2.82-1.26-2.16Z"/><path class="cls-3" d="M181.58,307.61a3.33,3.33,0,0,0-1.3,4.93,3.53,3.53,0,0,0,5.19.08,3.77,3.77,0,0,0-.59-5.25c-1-.75-2.73-.78-3.25.37"/><path class="cls-3" d="M180.94,306.53a4.6,4.6,0,0,0-2,6.23,4.73,4.73,0,0,0,6.37,1.58,4.86,4.86,0,0,0,1.52-6.6c-1.25-2.15-4.84-3.22-6.27-.63-.79,1.4,1.37,2.67,2.15,1.26.66-1.19,2.09.7,2.24,1.32a2.15,2.15,0,0,1-1.3,2.66,2,2,0,1,1-1.44-3.66c1.46-.65.19-2.8-1.27-2.16Z"/><path class="cls-3" d="M120.1,306.51a5,5,0,0,1,4.06-6.13c1.58-.18,1.6-2.68,0-2.5a7.55,7.55,0,0,0-6.47,9.29,1.25,1.25,0,0,0,2.41-.66Z"/><path class="cls-3" d="M190.45,297.92c4.61-.92,5.7,5.3,6.14,8.5.22,1.59,2.62.91,2.41-.67-.68-4.87-3-11.48-9.22-10.24-1.58.31-.91,2.72.67,2.41Z"/><path class="cls-2" d="M136.67,333.06c-.78-3-.2-9.17.18-12.19,16.06-2.93,27.86-2.74,42.88.41a22.57,22.57,0,0,1,.92,10.82.65.65,0,0,1-.36.54,2.1,2.1,0,0,1-1.22.18c-13.68-2.41-27.43-1.64-42.4.24"/><path class="cls-3" d="M137.87,332.72c-.42-2.16-1.25-8.36,0-10.28,1.52-2.25,10.21-2,13.29-2.18,7.69-.51,17.21-.85,24.64,1.52,3.34,1.07,3.61,2,3.79,5.8.15,3.22-.68,3.62-3.81,3.47-3.71-.17-7.38-.81-11.11-.93a182.78,182.78,0,0,0-28.05,1.69c-1.58.19-1.6,2.69,0,2.5,11.68-1.43,23.5-2.41,35.25-1.22,2.26.23,7.5,2.29,9.45.18,2.4-2.57.42-9.39-.44-12.32a1.25,1.25,0,0,0-.87-.88,114.5,114.5,0,0,0-43.54-.4,1.28,1.28,0,0,0-.92,1.2c-.49,4.13-.94,8.41-.14,12.52.31,1.58,2.72.91,2.41-.67Z"/><path class="cls-3" d="M146.71,331.18V321.13c.11-1,0-1.1-.2-.38h-1.77l.15.12-.19-1.52-.08.13a1.25,1.25,0,0,0,2.16,1.26l.07-.13a1.26,1.26,0,0,0-.19-1.51l-.15-.12a1.27,1.27,0,0,0-1.77,0c-1,1.2-.53,3.22-.53,4.67v7.53a1.25,1.25,0,0,0,2.5,0Z"/><path class="cls-3" d="M156.32,331.49l-.5-11.92-1.88,1.08.81.38c1.45.67,2.72-1.48,1.26-2.16l-.8-.38a1.27,1.27,0,0,0-1.89,1.08l.5,11.92c.07,1.6,2.57,1.61,2.5,0Z"/><path class="cls-3" d="M165.61,330.57a86,86,0,0,0-.32-11c-.15-1.59-2.65-1.6-2.5,0a86,86,0,0,1,.32,11c-.05,1.61,2.45,1.61,2.5,0Z"/><path class="cls-3" d="M175.83,331.43a83.72,83.72,0,0,1-1.45-10.59h-2.5l.08.92c.15,1.58,2.65,1.6,2.5,0l-.08-.92c-.15-1.58-2.62-1.61-2.5,0a90.7,90.7,0,0,0,1.54,11.26c.32,1.57,2.73.9,2.41-.67Z"/><path class="cls-7" d="M120.29,364.81a5.58,5.58,0,1,0,6.59.85,5.34,5.34,0,0,0-6.59-.85"/><path class="cls-7" d="M119.3,365.54l7.26,8.45"/><path class="cls-7" d="M196.75,366.31a5.56,5.56,0,1,0,7.69,7.39,5.66,5.66,0,0,0-1.1-6.53,5.35,5.35,0,0,0-6.59-.86"/><path class="cls-7" d="M195.76,367.05l7.25,8.44"/><path class="cls-4" d="M207,277.44c-.56,2.16.74,3.95,3,3.69s3.56-3.34,2.15-5.07-4.84-.85-5.11,1.38"/><path class="cls-3" d="M206.38,277.27c-.44,2,.37,4.13,2.57,4.46a3.85,3.85,0,0,0,4.27-3.21,3.24,3.24,0,0,0-2.73-4,3.61,3.61,0,0,0-4.11,2.71c-.14.79,1.07,1.12,1.2.33.45-2.6,4.85-2.36,4.43.55a2.63,2.63,0,0,1-2.49,2.37c-1.66,0-2.26-1.48-1.94-2.92.18-.78-1-1.12-1.2-.33Z"/><path class="cls-4" d="M118.75,283.58c-1,2,0,4,2.2,4.19s4.14-2.59,3.08-4.57-4.59-1.75-5.28.38"/><path class="cls-3" d="M118.21,283.27c-.83,1.9-.46,4.21,1.73,4.94a3.89,3.89,0,0,0,4.79-2.54,3.24,3.24,0,0,0-2.22-4.32,3.6,3.6,0,0,0-4.36,2.07c-.29.75.92,1.07,1.2.33.88-2.33,5-1.29,4.25,1.34a2.67,2.67,0,0,1-2.86,2c-1.64-.26-2-1.83-1.45-3.21.32-.73-.76-1.37-1.08-.63Z"/><path class="cls-3" d="M227.43,369.88c3.69,1.08,6.78,8.75,11.25,5,1.86-1.54,4.24-5.7,5-8a2.06,2.06,0,0,0,.44-2.71l1.63,1.1c2.22.81,4.57,3.05,6.54,4.37s3.89-1.91,1.89-3.24c-3-2-9-8.72-12.25-4.41-1.36,1.78-3.51,9.74-6,9.9-2,.13-5-4.93-7.49-5.66-2.32-.68-3.31,2.94-1,3.62Z"/><path class="cls-3" d="M226.77,381.3a124.55,124.55,0,0,0,7.8,9.8c1.11,1.24,2.37,2.95,4.29,2.57s3.2-3.25,4-4.71a62.23,62.23,0,0,0,5-11.52l-2.3,1.31c4.17.88,8.2,5,11.73,7.27,2,1.31,3.92-1.94,1.9-3.24-3.91-2.51-8-6.67-12.64-7.65a1.92,1.92,0,0,0-2.3,1.31,60,60,0,0,1-3,7.59c-.49,1-1.79,4.59-2.69,5.1-.19,1.1-.64.87-1.35-.68-.76-.86-1.5-1.73-2.24-2.61-1.73-2.09-3.38-4.24-5-6.43-1.42-1.93-4.67-.06-3.24,1.89Z"/><path class="cls-3" d="M110.22,361.7a20.47,20.47,0,0,0-7.48.4l-.6-8.93a36.41,36.41,0,0,1,8.59-.72"/><path class="cls-3" d="M110.22,359.82a24,24,0,0,0-8,.47l2.37,1.81-.6-8.93-1.38,1.8a41.41,41.41,0,0,1,8.09-.65c2.41,0,2.41-3.72,0-3.75a46,46,0,0,0-9.08.79,1.88,1.88,0,0,0-1.38,1.81l.6,8.93a1.9,1.9,0,0,0,2.37,1.81,20.74,20.74,0,0,1,7-.34c2.4.27,2.38-3.48,0-3.75Z"/><path class="cls-2" d="M88.05,409a9,9,0,0,0,7.88-7.22,470.28,470.28,0,0,0,8.46-51.63,7.42,7.42,0,0,0-6-8.25c-3.59-.59-11.12-3.68-13.78-1.13-1.88,1.8-2.88,4.38-3.8,6.87C74.8,364,70.65,385.15,65.68,401.89a14.22,14.22,0,0,0-.16,4.31c.3.92.44,1.89,1.3,2.21C73.88,411,80.53,409.59,88.05,409Z"/><path class="cls-3" d="M88.55,410.79c5.56-.89,8.34-4.94,9.54-10.13,1.77-7.67,3.15-15.45,4.45-23.22S105,362,105.83,354.23c.59-5.19.74-10.75-4.69-13.4-3.62-1.78-9.93-3.31-14-2.92-5.33.51-7.09,6.34-8.65,10.67C73.34,363,70.18,378.14,66.23,393c-1.09,4.11-4.78,11.78-1.6,15.9,1.91,2.46,6.28,2.67,9.16,2.86,4.76.32,9.54-.44,14.26-.87,2.39-.21,2.41-4,0-3.75-3.58.33-7.18.84-10.78.92s-9.49.47-10-4c-.26-2.53,1.46-6.11,2.11-8.52.87-3.21,1.7-6.43,2.52-9.65,1.75-6.9,3.45-13.82,5.35-20.68,1.77-6.39,3.29-13.71,6.39-19.61,2.2-4.19,4.68-4.23,8.87-3.23,2.19.52,5.31.82,7.25,2,3.87,2.26,2.6,7.13,2.19,10.75q-.67,5.81-1.53,11.6-1.56,10.65-3.59,21.25c-1.23,6.43-1.26,18-9.32,19.25C85.18,407.55,86.19,411.17,88.55,410.79Z"/><path class="cls-3" d="M100.42,366c-2.22.55-6,5.55-7.72,5.35-2.32-.27-4.37-8.72-5.55-10.27-3.23-4.27-9.32,2.07-12.46,4-2.06,1.25-.18,4.5,1.89,3.24s5-2.42,6.72-4.08l1.68-1q-2.1-.92-.41,1.31a26.84,26.84,0,0,0,4.77,9.05c4.2,5.18,8.09-3,12.08-3.94,2.34-.58,1.35-4.2-1-3.62Z"/><path class="cls-3" d="M98.59,378.75c-1.43,1.8-2.9,3.58-4.42,5.3-.73.82-4.29,5.1-4.44,5.09s-2.35-4.87-2.76-5.81a58.68,58.68,0,0,1-2.78-7.93,1.93,1.93,0,0,0-2.31-1.31c-3.49.58-6.76,3.14-9.79,4.85-2.1,1.18-.21,4.42,1.89,3.24,2.68-1.52,5.81-4,8.9-4.48l-2.31-1.31a64.85,64.85,0,0,0,3.76,10.19c.89,1.88,2.07,5.59,4.4,6.27,1.73.5,2.85-.64,4-1.74a101.93,101.93,0,0,0,8.52-9.7c1.49-1.87-1.15-4.54-2.66-2.66Z"/><path class="cls-1" d="M139.49,281.34a18.91,18.91,0,0,0,3.56,5.54c1.5,1.41,3.61,1.86,4.67.41,1.2-1.66.54-4.68-.17-7.18"/><path class="cls-5" d="M138.42,282c1.46,3,4.06,8.33,8.28,7.37s2.85-6.71,2.05-9.56a1.25,1.25,0,0,0-2.41.66c.38,1.34,2.06,6.93-.89,6.43-2.47-.42-3.93-4.23-4.88-6.16-.71-1.45-2.86-.18-2.15,1.26Z"/><path class="cls-1" d="M185.26,265.07a18.74,18.74,0,0,0,3.55,5.55c1.5,1.4,3.61,1.85,4.67.4,1.21-1.65.54-4.67-.17-7.17"/><path class="cls-5" d="M184.18,265.7c1.46,3,4.06,8.33,8.28,7.38s2.85-6.72,2-9.57a1.25,1.25,0,0,0-2.41.67c.38,1.34,2.06,6.92-.88,6.42-2.47-.42-3.94-4.23-4.88-6.16-.71-1.44-2.87-.18-2.16,1.26Z"/><path class="cls-8" d="M127.41,209.77c-1.25-2.75-2.57-5.74-2.81-8.64s1.22-5.33,3-3.84c2,1.63,2.59,6,4.27,8.57"/><path class="cls-5" d="M128.49,209.14a35.77,35.77,0,0,1-2.21-5.72c-.19-.73-1.13-6.64,1.07-4.56,1,.9,1.36,2.8,1.81,4a22.22,22.22,0,0,0,1.66,3.65,1.25,1.25,0,0,0,2.16-1.26c-1.37-2.3-3-11.15-7.36-9.43-5.23,2.08-.69,11.51.71,14.6.67,1.46,2.82.19,2.16-1.26Z"/><path class="cls-8" d="M134.57,205.51a85.25,85.25,0,0,1-4.75-16.43,13.62,13.62,0,0,1-.31-3.59c.12-1,.63-1.68,1.31-1.21a6,6,0,0,1,1.43,2.07A86.67,86.67,0,0,1,139,204"/><path class="cls-5" d="M135.78,205.17c-.66-1.67-6.4-18.12-5-18.58,1.56-.52,6.49,15.84,7,17.76a1.25,1.25,0,0,0,2.41-.66c-.77-2.87-5.72-22.46-10.44-20.67-2.3.87-1.39,4.69-1.1,6.39a82.35,82.35,0,0,0,4.74,16.43c.58,1.48,3,.84,2.42-.67Z"/><path class="cls-8" d="M147.89,201.54c-2.21-4-3.3-9.42-2.7-13.29.07-.48.19-.95.47-1.09.44-.21,1.05.53,1.52,1.23A46,46,0,0,1,152.71,200"/><path class="cls-5" d="M149,200.91a23.7,23.7,0,0,1-2.28-6.41c-.34-1.72-1.11-5.17,0-6.71l-1.41.58c1.31.19,3,4.28,3.44,5.22a48.18,48.18,0,0,1,2.74,6.75c.5,1.52,2.92.86,2.41-.67a52.23,52.23,0,0,0-3.67-8.65c-.89-1.62-2.15-4.76-4.25-5.06a1.34,1.34,0,0,0-1.41.57c-1.31,1.75-.86,4.88-.59,6.89a26.71,26.71,0,0,0,2.82,8.75c.74,1.43,2.9.17,2.16-1.26Z"/><path class="cls-8" d="M161,197.64a21.69,21.69,0,0,1-1.84-7.11c0-2.25,1.45-3.66,2.78-1.94s1.54,5.44,3,7"/><path class="cls-5" d="M162.17,197.31a31,31,0,0,1-1.56-4.78c-.14-.65-.54-2.07-.18-2.71,0-.63.23-.72.62-.26a4.77,4.77,0,0,1,.34.63c1.09,2.07,1.11,4.44,2.63,6.32,1,1.25,2.78-.53,1.77-1.77-1.59-2-1.67-9.11-5.69-8.08-4.44,1.14-1.28,8.86-.34,11.31.57,1.49,3,.84,2.41-.66Z"/><path class="cls-8" d="M141.35,203.39A85.15,85.15,0,0,1,136.6,187a13.7,13.7,0,0,1-.31-3.6c.11-1,.62-1.67,1.31-1.21a6.23,6.23,0,0,1,1.43,2.07,86.29,86.29,0,0,1,6.7,17.67"/><path class="cls-5" d="M142.55,203.06c-.65-1.68-6.39-18.13-5-18.58,1.56-.52,6.49,15.84,7,17.75a1.25,1.25,0,0,0,2.41-.66c-.77-2.86-5.72-22.45-10.44-20.67-2.3.87-1.39,4.69-1.11,6.4a82.29,82.29,0,0,0,4.75,16.42c.58,1.48,3,.84,2.41-.66Z"/><path class="cls-8" d="M154.46,199c-2.21-4-3.3-9.43-2.7-13.29.08-.48.19-1,.47-1.09.44-.21,1.05.53,1.52,1.23a45.65,45.65,0,0,1,5.53,11.61"/><path class="cls-5" d="M155.54,198.39a24,24,0,0,1-2.28-6.41c-.33-1.72-1.1-5.17.05-6.71l-1.41.58c1.3.18,3,4.28,3.44,5.22a49.77,49.77,0,0,1,2.73,6.74c.51,1.52,2.92.87,2.42-.66a52.27,52.27,0,0,0-3.68-8.65c-.88-1.63-2.15-4.76-4.25-5.06a1.34,1.34,0,0,0-1.41.57c-1.31,1.75-.86,4.88-.59,6.89a26.71,26.71,0,0,0,2.82,8.75c.74,1.43,2.9.17,2.16-1.26Z"/><path class="cls-1" d="M128.92,280.83c-6.91-20.88-11.34-45.1-15.19-66.76q32.6-11.2,65.68-20.93,13.44,32.36,24.07,65.77a408.51,408.51,0,0,1-72.34,23.5c-1.25.28-3.24-.81-2.22-1.58"/><path class="cls-5" d="M130.73,280.33c-7.09-21.73-11.2-44.29-15.19-66.76l-1.31,2.31q32.61-11.19,65.68-20.93l-2.31-1.31Q191,226,201.67,259.41l.87-2.12q-17.72,7.59-36.06,13.53-8.4,2.71-16.92,5.05c-3,.82-6,1.61-9,2.37-1.57.39-9.45,3.14-10.59,1.87l.29,2.28.26-.61c.94-2.2-2.29-4.11-3.24-1.9l-.26.61a2,2,0,0,0,.29,2.28c3.11,3.43,9.74.2,13.35-.69q11.26-2.81,22.36-6.24a422.41,422.41,0,0,0,41.39-15.31,1.87,1.87,0,0,0,.86-2.11Q194.64,225,181.22,192.64a1.93,1.93,0,0,0-2.31-1.31q-33.06,9.73-65.68,20.93a2,2,0,0,0-1.31,2.31c4,22.46,8.1,45,15.19,66.76.75,2.28,4.37,1.31,3.62-1Z"/><path class="cls-2" d="M135.79,244.69c-2.43-5.09-5.29-16.26-6.59-21.75,16.25.28,27.77-16.26,42.71-12.54a74.26,74.26,0,0,1,6.93,19,1.28,1.28,0,0,1-1.17,1.77c-16,1.62-30.33,7.83-41.88,13.54"/><path class="cls-3" d="M137.41,243.74c-3-6.71-4.69-14.15-6.4-21.29l-1.81,2.37c7.48-.09,14-3.11,20.46-6.56a78.32,78.32,0,0,1,10.59-5.14,22.56,22.56,0,0,1,6.05-1.35c3.06-.18,4.19.09,5.63,2.88,1.22,2.34,6.44,13.08,3.65,14.86-1.52,1-5.64.86-7.44,1.24-2.33.48-4.64,1.06-6.93,1.71a157.79,157.79,0,0,0-26.37,10.61c-2.16,1.06-.26,4.3,1.9,3.24,10.9-5.35,22.18-10,34.17-12.3,3.13-.59,9.3.16,9.78-4.09.52-4.71-2.9-11.25-4.76-15.48-2-4.63-2.7-6.26-7.79-6.45a26.83,26.83,0,0,0-11.44,2.52c-9.13,3.89-17.16,10.43-27.5,10.56a1.89,1.89,0,0,0-1.8,2.37c1.79,7.48,3.59,15.17,6.77,22.2,1,2.19,4.23.29,3.24-1.9Z"/><path class="cls-3" d="M146.65,266.69c-1.11-3.62-3-9.71-4.12-13.33,11.6-8.77,23.12-12.8,36.45-10.51l3.93,12.49c-19-1.35-24.3,3.29-36.26,11.35"/><path class="cls-3" d="M148.46,266.2q-2.06-6.68-4.12-13.34l-.87,2.12c6.31-4.66,13.14-8.6,20.91-10.16,3.25-.65,8-1.38,11.3-.54,3.53.89,4.43,8.42,5.42,11.55l1.81-2.37c-7.16-.44-14.51-.38-21.29,2.22-5.79,2.21-10.82,5.94-15.91,9.4-2,1.34-.12,4.59,1.89,3.23,4.8-3.25,9.57-6.9,15-9,6.47-2.52,13.46-2.5,20.29-2.08a1.88,1.88,0,0,0,1.8-2.37l-3.93-12.49a1.86,1.86,0,0,0-1.31-1.31c-14.15-2.16-26.54,2.32-37.89,10.7a2,2,0,0,0-.86,2.12c1.37,4.45,2.76,8.89,4.13,13.33.7,2.3,4.33,1.32,3.61-1Z"/><path class="cls-3" d="M138.63,231.06c-.6,2.06,1.39,3.39,3.24,3.38s3.77-1.12,4.2-2.91c1-4-6-3.29-6.87-.23a1.25,1.25,0,0,0,2.41.66c.09-.32.88-.59,1.24-.68s.53,0,.75-.08a.32.32,0,0,1,.21.05c0-.05-.35-.19-.16-.3-.07,0-.25.34-.33.42a2.2,2.2,0,0,1-.93.49,2.29,2.29,0,0,1-1.19,0,.45.45,0,0,1-.19-.11c-.1-.11,0,.13,0,0a1.25,1.25,0,0,0-2.41-.67Z"/><path class="cls-1" d="M138.59,229.19c-.31,2.21,2.56,3.44,4.74,2.94s3.94-3.5,1.45-7.11a14.08,14.08,0,0,1-6.19,4.17"/><path class="cls-3" d="M138,229.19c-.22,3,3.66,4.34,6.06,3.36,3.33-1.35,2.9-5.36,1.29-7.85a.64.64,0,0,0-1.08,0c-1.22,1.66-3.76,3.08-5.81,3.88-.74.29-.42,1.5.33,1.21a14.79,14.79,0,0,0,6.56-4.45h-1.08c1.14,1.77,1.9,4.7-.43,5.94-1.62.86-4.75.1-4.59-2.09.06-.81-1.19-.8-1.25,0Z"/><path class="cls-3" d="M160.59,223.11c.14,1.81,1,4.07,2.81,4.86s3.09-.91,3.23-2.6-.59-4-2.34-4.67c-2-.73-3.37,1.17-3.21,3,.13,1.59,2.64,1.61,2.5,0,0-.19,0-.4,0-.58a.19.19,0,0,1,.05-.14c.07-.11,0-.1-.07,0-.08-.14,0,.24,0,.16,0,.29.37.67.45,1a3.24,3.24,0,0,1,.09,1.2c0,.17-.12.36-.06.4a.55.55,0,0,0,.29-.08s-.19-.15-.2-.18c-.15-.37-.55-.71-.73-1.1a4.16,4.16,0,0,1-.34-1.3c-.12-1.6-2.62-1.61-2.5,0Z"/><path class="cls-1" d="M162.21,220.86c-.09,2.94,1.62,5.29,3.81,4.84s2.89-4.64,1.07-6.91-5.09-.93-4.88,2.07"/><path class="cls-3" d="M161.59,220.86c0,2.3,1,5.41,3.79,5.52,2.3.08,3.35-2.3,3.38-4.27,0-2.12-1.09-4.71-3.43-5s-3.8,1.68-3.74,3.79a.63.63,0,0,0,1.25,0c0-1.44,1-3,2.6-2.5s2.1,2.35,2.07,3.75c0,1.25-.55,3.11-2.13,3-2-.13-2.54-2.7-2.54-4.27a.63.63,0,0,0-1.25,0Z"/><path class="cls-3" d="M139.9,210.64c-.14.94.49,1.64,1.42,1.42a1.41,1.41,0,0,0,.66-2.24,1.28,1.28,0,0,0-2.08.82"/><path class="cls-3" d="M152.93,206.57c-.13.94.5,1.64,1.42,1.42a1.41,1.41,0,0,0,.67-2.24,1.29,1.29,0,0,0-2.09.82"/><path class="cls-3" d="M143.79,209.27a1.49,1.49,0,0,0,1.83,1.83,1.82,1.82,0,0,0,.86-2.89,1.66,1.66,0,0,0-2.69,1.06"/><path class="cls-3" d="M148.52,207.79c-.17,1.21.64,2.11,1.83,1.83a1.81,1.81,0,0,0,.86-2.88,1.66,1.66,0,0,0-2.69,1"/><path class="cls-9" d="M132.83,272.2a2.45,2.45,0,1,0,2.88-.51,2.36,2.36,0,0,0-2.88.51"/><path class="cls-9" d="M132.51,272.64l4.15,2.59"/><path class="cls-9" d="M119,216.81a2.44,2.44,0,1,0,4.2,2.09,2.49,2.49,0,0,0-1.32-2.59,2.34,2.34,0,0,0-2.88.5"/><path class="cls-9" d="M118.7,217.25l4.15,2.59"/><path class="cls-9" d="M173.26,199.88a2.5,2.5,0,0,0-.39,2.77,2.44,2.44,0,0,0,4.58-.68,2.49,2.49,0,0,0-1.32-2.6,2.34,2.34,0,0,0-2.87.51"/><path class="cls-9" d="M172.94,200.32l4.15,2.59"/><path class="cls-9" d="M192.56,253.55a2.44,2.44,0,0,0,2.08,4.09,2.43,2.43,0,0,0,.8-4.6,2.36,2.36,0,0,0-2.88.51"/><path class="cls-9" d="M192.24,254l4.15,2.59"/><path class="cls-1" d="M144.51,263.36c.93-3.26,1.9-7.25,5.09-9.1s5.25-.59,8.13-.08c2.22.4,4.44.58,6.36-.86.63-.47.95-1.29,1.55-1.74,2.21-1.66,5.44-.91,8-1,4-.08,8-.64,11.91-1,.8-.07.8-1.32,0-1.25a115.69,115.69,0,0,1-16.1.65c-5-.28-5.52,4.48-11.34,3.93-3.34-.32-5.94-1.76-9.09.2-3.41,2.12-4.63,6.22-5.66,9.85a.62.62,0,0,0,1.2.33Z"/><path class="cls-3" d="M110.65,274.59A13.18,13.18,0,1,1,89.6,289.67Z"/><path class="cls-3" d="M109.32,275.92c4.84,5.18,4.64,13.63-1.66,17.64-6,3.84-13.21,1.18-16.44-4.84l-.67,2.57,21-15.08c1.94-1.39.07-4.64-1.9-3.23l-21,15.07a1.93,1.93,0,0,0-.68,2.56c4.45,8.31,15,11.25,22.72,5.37,7.43-5.68,7.43-16.13,1.28-22.71C110.32,271.5,107.68,274.16,109.32,275.92Z"/><path class="cls-4" d="M106.15,211.14c2.8-.31,5.39,2.86,6.18,5.56s.32,5.58-.06,8.36a4.21,4.21,0,0,0,.35,3.06c1.14,1.64,3.8.93,5.22-.47,3.25-3.2,3.35-8.88.59-12.5A12.05,12.05,0,0,0,106.15,211.14Z"/><path class="cls-3" d="M106.15,212.39c4.7,0,5.57,6.15,5.25,9.66-.2,2.11-1.21,5.09.33,7,2.9,3.51,7.59-.39,9-3.32,4.52-9.78-5.81-17.59-14.86-15.75-1.58.32-.91,2.73.66,2.41,4.47-.91,9.73.59,11.82,5a8.92,8.92,0,0,1,0,7.51,4.4,4.4,0,0,1-2.25,2.41c-2.51.86-2.68-1.19-2.43-3.22.67-5.38-.25-14.08-7.51-14.14A1.25,1.25,0,0,0,106.15,212.39Z"/><path class="cls-4" d="M106.45,207.43c4.57.55,10.71,1.63,14.27,4.56,1.91,1.57,4.08,3.8,6.44,4.54a2.46,2.46,0,0,0,1.73,0,6,6,0,0,0,1.57-1.25c2.15-3.19-.29-7.46-3.46-9.62s-7.24-2.46-11.09-2.45C112.62,203.25,109.1,205.47,106.45,207.43Z"/><path class="cls-3" d="M106.45,208.68c4.23.54,9,1.22,12.61,3.64,2.29,1.52,4,3.8,6.6,4.93,3.61,1.61,6.88-.73,6.83-4.77-.07-4.9-4.71-8.52-9.05-9.71-6.59-1.82-12.17-.31-17.63,3.58-1.29.92,0,3.09,1.27,2.15,4.46-3.18,8.78-4.68,14.29-3.63a11.51,11.51,0,0,1,6.71,3.43q3.24,3.06-.59,7a12.79,12.79,0,0,1-3.89-2.51c-5.22-4.26-10.49-5.78-17.15-6.64C104.85,206,104.87,208.47,106.45,208.68Z"/><path class="cls-4" d="M103.41,213.57c-1.61,4-5.94,5.25-10.15,6-1.27.22-2.87.76-2.9,2.05a9.11,9.11,0,0,0-.12,2.32c.91,2.39,4.16,2.48,6.14,2.32a8.22,8.22,0,0,0,5.42-3.34c1.33-2,1.44-6.12,1.27-8.6Z"/><path class="cls-3" d="M102.33,212.94c-1.21,2.59-3.41,3.89-6.09,4.66-1.93.56-4.43.51-6,1.85-2.59,2.19-1.21,6.42,1.64,7.54A9.53,9.53,0,0,0,102,224.58a8.91,8.91,0,0,0,2.13-5.1c.22-1.56-.29-4,.33-5.28s-1.47-2.71-2.16-1.26c-1.15,2.42-.14,5.35-1,8-1,3.12-5.81,5.55-8.9,3.63-1.78-1.11-1-3.26.84-3.72,1.57-.39,3.16-.59,4.7-1.13a10.66,10.66,0,0,0,6.52-5.48C105.16,212.76,103,211.48,102.33,212.94Z"/><path class="cls-3" d="M93.32,200.05a11.76,11.76,0,0,1,5.83-4.92c1-.39,2.2-.54,2.86-1.55a2.4,2.4,0,0,0-.37-3c-1.64-1.78-4.29.88-2.65,2.65l.18.2-.55-1.33c.75-.84.75-1.08,0-.74l-.48.17c-.47.17-.94.37-1.39.58a14,14,0,0,0-2.63,1.58,16,16,0,0,0-4,4.47c-1.27,2.07,2,3.95,3.24,1.9Z"/><path class="cls-3" d="M87.57,188.87a9.13,9.13,0,0,1,5.18-8.51c2.16-1.08.26-4.31-1.9-3.24a12.82,12.82,0,0,0-7,11.75c.06,2.41,3.81,2.42,3.75,0Z"/><path class="cls-3" d="M76.86,180.5A6.7,6.7,0,0,1,79,172.35c2-1.38.08-4.63-1.89-3.24a10.56,10.56,0,0,0-3.51,13.28c1,2.19,4.26.29,3.24-1.89Z"/><path class="cls-3" d="M64,179.92a9.21,9.21,0,0,1-3.4-8.49c.37-2.36-3.24-3.38-3.61-1a12.94,12.94,0,0,0,4.36,12.13c1.84,1.54,4.5-1.1,2.65-2.65Z"/><path class="cls-3" d="M40.42,180.56a13,13,0,0,0,8.3,8.2c2.3.76,3.29-2.86,1-3.61A9,9,0,0,1,44,179.56c-.79-2.26-4.41-1.29-3.62,1Z"/><path class="cls-3" d="M34.06,205.85c6,2.79,10.94,0,15.51-3.94,1.84-1.57-.82-4.21-2.65-2.65-3.12,2.68-6.75,5.33-11,3.35-2.17-1-4.07,2.22-1.89,3.24Z"/><path class="cls-3" d="M46.3,228.08c2.36.82,4.79-.92,6.59-2.29,2.15-1.63,3.58-3.89,5.64-5.59,1.85-1.55-.81-4.19-2.66-2.66-1.4,1.17-2.43,2.68-3.72,4-.86.85-3.48,3.44-4.85,3-2.28-.8-3.26,2.82-1,3.62Z"/><path class="cls-3" d="M64,244.22c5.52-.08,8.18-6.23,10.77-10.21,1.32-2-1.92-3.91-3.24-1.9-1.12,1.73-2.23,3.47-3.37,5.18-1,1.49-2.19,3.15-4.16,3.18-2.41,0-2.42,3.79,0,3.75Z"/><path class="cls-3" d="M78.3,260.86c2.32-.2,3.82-2,5.45-3.52.94-.87,1.87-1.75,2.8-2.63.56-.53,1.11-1.07,1.66-1.61.23-.22,1-1.22,1.09-1.24l-2.38-1.8v.11l1.88-1.87h-.09c-2.37.29-2.39,4,0,3.75h.09c.94-.12,2-.77,1.87-1.88v-.11c-.08-1.1-1.15-2.28-2.37-1.81-1.93.73-3.48,2.93-5,4.34-.84.79-1.68,1.58-2.53,2.36-.46.43-1.84,2.11-2.51,2.16-2.38.21-2.4,4,0,3.75Z"/><path class="cls-3" d="M92.4,279.8a28.51,28.51,0,0,0,9.57-6.39c1.69-1.72-1-4.38-2.66-2.65a23.8,23.8,0,0,1-7.91,5.42c-2.19.91-1.23,4.54,1,3.62Z"/><text class="cls-10" transform="translate(64.67 45.38)"><tspan class="cls-11">A</tspan><tspan class="cls-12" x="14.26" y="0">ú</tspan><tspan x="26.75" y="0">n </tspan><tspan class="cls-13" x="45.36" y="0">n</tspan><tspan x="57.25" y="0">o </tspan><tspan class="cls-13" x="77.09" y="0">h</tspan><tspan class="cls-14" x="88.98" y="0">a</tspan><tspan x="102.65" y="0">s </tspan><tspan class="cls-15" x="119.95" y="0">e</tspan><tspan class="cls-13" x="132.49" y="0">n</tspan><tspan class="cls-16" x="144.38" y="0">c</tspan><tspan class="cls-17" x="154.67" y="0">o</tspan><tspan class="cls-18" x="167.9" y="0">n</tspan><tspan class="cls-19" x="180.39" y="0">t</tspan><tspan class="cls-20" x="187.53" y="0">r</tspan><tspan class="cls-21" x="193.96" y="0">a</tspan><tspan class="cls-22" x="207.21" y="0">d</tspan><tspan x="220.98" y="0">o </tspan><tspan class="cls-23" x="-17.07" y="25.2">i</tspan><tspan class="cls-17" x="-12.79" y="25.2">n</tspan><tspan class="cls-24" x="-0.8" y="25.2">s</tspan><tspan class="cls-25" x="10.31" y="25.2">i</tspan><tspan class="cls-26" x="14.22" y="25.2">g</tspan><tspan class="cls-27" x="25.96" y="25.2">n</tspan><tspan class="cls-22" x="38.89" y="25.2">i</tspan><tspan class="cls-28" x="42.74" y="25.2">a</tspan><tspan x="56.41" y="25.2">s </tspan><tspan class="cls-22" x="73.71" y="25.2">d</tspan><tspan x="87.49" y="25.2">e </tspan><tspan class="cls-29" x="106.64" y="25.2">e</tspan><tspan class="cls-13" x="118.54" y="25.2">s</tspan><tspan class="cls-30" x="129.13" y="25.2">t</tspan><tspan x="135.51" y="25.2">a </tspan><tspan class="cls-16" x="155.61" y="25.2">c</tspan><tspan class="cls-31" x="165.9" y="25.2">a</tspan><tspan class="cls-30" x="180.01" y="25.2">t</tspan><tspan class="cls-21" x="186.39" y="25.2">e</tspan><tspan class="cls-30" x="198.7" y="25.2">g</tspan><tspan class="cls-17" x="209.49" y="25.2">o</tspan><tspan class="cls-32" x="222.72" y="25.2">r</tspan><tspan class="cls-22" x="230.7" y="25.2">í</tspan><tspan class="cls-33" x="234.25" y="25.2">a</tspan><tspan x="248.7" y="25.2">. </tspan><tspan x="1.85" y="50.4">¡</tspan><tspan class="cls-15" x="6.85" y="50.4">S</tspan><tspan class="cls-25" x="18.5" y="50.4">i</tspan><tspan class="cls-17" x="22.41" y="50.4">g</tspan><tspan class="cls-21" x="33.73" y="50.4">u</tspan><tspan x="45.49" y="50.4">e </tspan><tspan class="cls-21" x="64.64" y="50.4">a</tspan><tspan class="cls-34" x="77.89" y="50.4">v</tspan><tspan class="cls-12" x="89.82" y="50.4">a</tspan><tspan class="cls-35" x="103.8" y="50.4">n</tspan><tspan class="cls-36" x="115.75" y="50.4">z</tspan><tspan class="cls-18" x="126.02" y="50.4">a</tspan><tspan class="cls-13" x="140.01" y="50.4">n</tspan><tspan class="cls-37" x="151.89" y="50.4">d</tspan><tspan x="165.67" y="50.4">o </tspan><tspan class="cls-38" x="185.51" y="50.4">p</tspan><tspan class="cls-12" x="198.47" y="50.4">a</tspan><tspan class="cls-39" x="212.46" y="50.4">r</tspan><tspan x="218.88" y="50.4">a </tspan><tspan class="cls-15" x="20.64" y="75.6">e</tspan><tspan class="cls-40" x="33.18" y="75.6">n</tspan><tspan class="cls-16" x="45.07" y="75.6">c</tspan><tspan class="cls-15" x="55.36" y="75.6">o</tspan><tspan class="cls-18" x="68.59" y="75.6">n</tspan><tspan class="cls-19" x="81.08" y="75.6">t</tspan><tspan class="cls-39" x="88.22" y="75.6">r</tspan><tspan class="cls-12" x="94.65" y="75.6">a</tspan><tspan class="cls-31" x="108.63" y="75.6">r</tspan><tspan class="cls-37" x="116.19" y="75.6">l</tspan><tspan class="cls-28" x="120.37" y="75.6">a</tspan><tspan class="cls-41" x="134.04" y="75.6">s </tspan><tspan class="cls-30" x="151.35" y="75.6">to</tspan><tspan class="cls-22" x="170.43" y="75.6">d</tspan><tspan class="cls-28" x="184.21" y="75.6">a</tspan><tspan x="197.88" y="75.6">s!</tspan></text></g></svg>