<svg xmlns="http://www.w3.org/2000/svg" xmlns:xlink="http://www.w3.org/1999/xlink" width="582.667" height="353.836" viewBox="0 0 154.164 93.619" xmlns:v="https://vecta.io/nano"><defs><clipPath id="A"><path d="M169.888 972.942h24.481V948.37h-24.481z"/></clipPath><clipPath id="B"><path d="M510.247 1162.88h24.481v-24.57h-24.481z"/></clipPath><path id="C" d="M41.674 55.363l1.178 26.888-4.943.367-.679-15.489-4.922 11.498-1.803.134-5.895-10.694.679 15.489-4.943.367-1.178-26.888 4.943-.367 6.863 12.142 5.757-13.08z"/></defs><path d="M148.758 36.466s-13.288 8.75-46.349 3.375-29.299-13.367-61.46-13.978S3.591 31.934.611 32.758s5.837.34 7.111-.335S2.215 36.72.789 36.337s4.996 1.674 8.527-.88-1.108 3.061-6.22 4.039 4.855 1.808 7.121.725-5.227 3.764-8.071 3.925 3.858 1.686 6.551.598S4.604 48.1 3.18 47.981s4.714 1.942 8.549 1.241-6.936 3.648-7.652 3.125 5.714 2.33 8.55 1.374-7.354 4.448-8.641 3.798 3.714 1.554 8.256.449-6.79 4.045-8.072 3.792 3.995 1.154 6.69.332-5.934 4.169-7.36 3.918 1.581 1.575 7.124.99-5.23 3.499-6.366 3.643 1.011 1.581 5.416 1.007-4.947 3.231-5.942 3.374.168.712 4.281-.654-.256 4.857-1.532 5.268.437 1.057 6.656-3.115 37.104-3.018 41.529-1.603 47.051 10.142 47.051 10.142 27.533 7.418 50.805 1.222c0 0-3.132-.234-5.13-.877s6.227-3.376 6.493-5.235c0 0-3.833.833-6.116.193s4.939-4.159 4.939-4.159-4.974.58-5.691.056 3.944-4.017 5.504-4.562-4.263.572-5.833.058 1.95-4.262 3.799-4.281-4.834.313-5.698-.739 5.094-2.835 5.932-4.434-5.253 1.113-6.262-.204 6.939-3.25 7.204-5.242c0 0-6.531 1.391-7.819.608s6.225-3.509 7.069-4.578c0 0-5.256.847-6.685.199s4.531-2.166 6.223-3.774c0 0-4.976.447-6.403-.069 0 0 6.659-2.85 6.076-4.17 0 0-4.26.838-5.547.187 0 0 5.38-2.705 5.648-4.431 0 0-4.111 1.499-5.539.983 0 0 7.485-5.643 4.073-5.344" fill="#fff"/><path d="M148.456 35.25s-13.318 8.392-46.188 2.84-36.543-12.265-61.064-14.202C9.27 21.367 3.942 29.44.966 30.215s5.809.387 7.084-.258-5.526 4.131-6.942 3.744 4.959 1.679 8.501-.775-1.133 2.97-6.234 3.874 4.817 1.807 7.084.774-5.242 3.615-8.075 3.744 3.825 1.678 6.517.646-4.108 3.228-5.525 3.098 4.675 1.937 8.501 1.291-6.943 3.486-7.651 2.97 5.667 2.324 8.501 1.42-7.367 4.261-8.642 3.615 3.684 1.549 8.218.516S5.5 58.748 4.225 58.49s3.967 1.162 6.659.387-5.951 4.002-7.367 3.744 1.559 1.549 7.084 1.033-5.242 3.357-6.376 3.486.992 1.549 5.384 1.033-4.959 3.098-5.951 3.228 2.125 1.678 6.234.387-2.267 3.744-3.542 4.131.425 1.033 6.659-2.97 36.979-2.582 41.371-1.162 46.754 10.329 46.754 10.329 27.345 7.488 50.58 1.678c0 0-3.117-.258-5.1-.904s6.234-3.228 6.518-5.035c0 0-3.826.775-6.092.129s4.959-4.003 4.959-4.003-4.959.516-5.667 0 3.967-3.873 5.526-4.39-4.251.516-5.809 0 1.984-4.131 3.826-4.131-4.817.258-5.667-.775 5.1-2.711 5.951-4.26-5.242 1.033-6.234-.258 6.943-3.099 7.226-5.036c0 0-6.517 1.291-7.793.516s6.234-3.357 7.084-4.39c0 0-5.242.775-6.659.129s4.534-2.066 6.234-3.615c0 0-4.959.387-6.375-.129 0 0 6.659-2.711 6.092-4.002 0 0-4.251.774-5.526.129 0 0 5.384-2.582 5.667-4.26 0 0-4.109 1.42-5.526.904 0 0 7.509-5.423 4.109-5.164" fill="#3e2858"/><path d="M149.489 34.604s-12.729 8.684-45.677 3.615c-33.568-5.165-42.606-13.686-61.575-14.977-31.959-2.175-37.262 5.552-40.237 6.326s5.809.387 7.084-.258-5.526 4.131-6.942 3.744 4.959 1.679 8.501-.774-1.133 2.969-6.234 3.873 4.817 1.808 7.084.775-5.242 3.615-8.075 3.744 3.825 1.678 6.517.646-4.109 3.228-5.526 3.098 4.675 1.937 8.501 1.291-6.942 3.486-7.651 2.97 5.667 2.324 8.501 1.42-7.367 4.261-8.642 3.615 3.684 1.549 8.218.516-6.801 3.873-8.076 3.615 3.967 1.162 6.659.387-5.95 4.002-7.367 3.744 1.559 1.549 7.084 1.033-5.242 3.357-6.376 3.486.992 1.549 5.384 1.033-4.959 3.099-5.951 3.228 2.125 1.678 6.234.387-2.267 3.744-3.542 4.131.425 1.033 6.659-2.97 36.979-2.582 41.371-1.162 46.754 10.329 46.754 10.329 27.345 7.488 50.58 1.679c0 0-3.117-.259-5.1-.904s6.234-3.228 6.518-5.036c0 0-3.826.775-6.092.129s4.959-4.003 4.959-4.003-4.959.516-5.667 0 3.967-3.873 5.526-4.39-4.251.516-5.809 0 1.984-4.131 3.826-4.131-4.817.258-5.667-.775 5.1-2.711 5.951-4.26-5.242 1.033-6.234-.258 6.942-3.099 7.226-5.035c0 0-6.517 1.291-7.792.516s6.234-3.357 7.084-4.39c0 0-5.242.775-6.659.129s4.534-2.066 6.234-3.615c0 0-4.959.387-6.375-.129 0 0 6.659-2.711 6.092-4.002 0 0-4.251.774-5.526.129 0 0 5.384-2.582 5.667-4.26 0 0-4.109 1.42-5.526.903 0 0 7.509-5.423 4.109-5.164" fill="#fbddd7"/><g fill="#fff"><path d="M37.257 20.167l6.446 7.543c.326.351.851-.175.525-.525l-6.446-7.543c-.295-.376-.817.153-.525.525"/><path d="M38.382 27.666a61.96 61.96 0 0 1 5.851-6.807c.337-.34-.188-.866-.525-.526a63.25 63.25 0 0 0-5.967 6.957c-.285.385.36.756.641.375"/><path d="M40.209 17.804a43.77 43.77 0 0 1-.394 11.562c-.079.468.637.669.716.198.657-3.887.805-7.835.42-11.759-.046-.472-.79-.476-.743 0"/><path d="M34.997 24.776h11.62c.478 0 .479-.743 0-.743h-11.62c-.478 0-.479.743 0 .743"/></g><g transform="matrix(.352778 0 0 -.352778 -43.391555 428.18226)"><g clip-path="url(#B)" opacity=".63" fill="#fff"><path d="M515.444 1157.49a233.62 233.62 0 0 1 12.789-14.968c.648-.696 1.689.348 1.043 1.043-4.472 4.807-8.738 9.801-12.79 14.967-.585.747-1.621-.303-1.042-1.042"/><path d="M517.676 1142.611c3.536 4.778 7.422 9.289 11.609 13.507.67.674-.372 1.717-1.042 1.042-4.278-4.308-8.229-8.924-11.839-13.805-.565-.763.713-1.499 1.272-.744"/><path d="M521.301 1162.179c.75-7.649.5-15.361-.781-22.941-.156-.928 1.263-1.327 1.422-.392 1.303 7.713 1.596 15.546.834 23.333-.092.936-1.567.945-1.475 0"/><path d="M510.959 1148.344h23.057c.948 0 .95 1.475 0 1.475h-23.057c-.949 0-.95-1.475 0-1.475"/></g><g clip-path="url(#A)" opacity=".38" fill="#fff"><path d="M175.085 967.548c4.051-5.167 8.318-10.16 12.79-14.967.648-.697 1.689.348 1.042 1.042a233.6 233.6 0 0 0-12.789 14.967c-.585.747-1.622-.303-1.043-1.042"/><path d="M177.317 952.668c3.535 4.779 7.421 9.289 11.609 13.507.669.674-.373 1.717-1.043 1.042a125.65 125.65 0 0 1-11.839-13.805c-.565-.763.714-1.499 1.273-.744"/><path d="M180.942 972.236a86.85 86.85 0 0 0-.781-22.941c-.157-.928 1.263-1.327 1.422-.392 1.303 7.713 1.596 15.547.834 23.333-.092.936-1.568.945-1.475 0"/><path d="M170.6 958.402h23.057c.949 0 .95 1.474 0 1.474H170.6c-.948 0-.95-1.474 0-1.474"/></g></g><g fill="#183e41"><use xlink:href="#C"/><path d="M55.611 83.091c-6.145-.545-9.376-4.387-8.771-12.511l1.024-13.776 5.498.488-1.025 13.776c-.339 4.556.815 6.117 3.693 6.372s4.248-1.081 4.587-5.637l1.025-13.776 5.498.488-1.025 13.776c-.604 8.124-4.36 11.346-10.505 10.801m36.42-19.993l-3.308 23.665-5.027-.893-7.089-15.845-1.99 14.232-5.027-.893 3.308-23.666 5.027.893 7.089 15.845 1.99-14.232zm16.771 15.511c.321-4.541-1.986-6.638-4.715-6.886l-2.7-.245-.907 12.833 2.7.245c2.729.248 5.3-1.407 5.621-5.947m4.935.448c-.462 6.548-5.064 11.296-10.928 10.764l-7.636-.693 1.651-23.362 7.635.693c5.865.532 9.741 6.05 9.278 12.598m19.21 1.204c.269-3.994-1.807-7.465-5.255-7.697s-5.969 2.93-6.237 6.924 1.807 7.465 5.254 7.697 5.97-2.93 6.239-6.924m-16.503-1.11c.487-7.239 5.649-12.695 11.631-12.293s10.368 6.5 9.881 13.739-5.649 12.694-11.631 12.292-10.367-6.5-9.881-13.739"/></g><use xlink:href="#C" x="1.162" y="-1.009" fill="#fac706"/><path d="M56.906 82.148c-6.145-.545-9.375-4.387-8.771-12.511l1.025-13.776 5.498.488-1.024 13.776c-.339 4.556.815 6.117 3.693 6.372s4.248-1.081 4.587-5.637l1.025-13.776 5.498.488-1.025 13.776c-.604 8.124-4.36 11.346-10.505 10.801" fill="#e4252e"/><path d="M93.225 62.201l-3.308 23.665-5.027-.893L77.8 69.129l-1.99 14.233-5.027-.893 3.309-23.665 5.027.893 7.089 15.845 1.99-14.233z" fill="#fac706"/><path d="M109.963 77.732c.321-4.541-1.986-6.638-4.715-6.886l-2.7-.245-.907 12.833 2.7.245c2.729.248 5.301-1.407 5.622-5.947m4.935.448c-.462 6.548-5.064 11.296-10.928 10.764l-7.636-.693 1.651-23.362 7.635.693c5.865.532 9.741 6.05 9.278 12.598" fill="#e4252e"/><path d="M134.184 79.393c.269-3.994-1.807-7.465-5.255-7.697s-5.969 2.93-6.238 6.924 1.807 7.465 5.254 7.697 5.97-2.93 6.239-6.924m-16.503-1.11c.487-7.239 5.649-12.695 11.631-12.293s10.368 6.5 9.881 13.739-5.649 12.694-11.631 12.292-10.368-6.5-9.881-13.739" fill="#fac706"/><path d="M58.206 79.544c-2.286 0-4.392-.583-5.15-.924-1.742-.859-2.868-3.563-2.63-6.296l1.15-16.273.691.048-1.151 16.283c-.211 2.425.77 4.89 2.236 5.612 1.003.45 4.927 1.436 7.933.396 2.496-.908 2.732-5.242 2.735-5.286l1.512-15.962.688.065-1.51 15.946c-.008.181-.259 4.821-3.193 5.889-1.058.366-2.205.502-3.31.502" fill="#fbddd7"/><path d="M23.423 83.087l-1.03-26.696.635-.179 9.346 16.716 7.605-17.861.651.116 1.291 26.55-.677.033-1.22-25.073-7.297 17.137-.609.032-8.994-16.086.975 25.285zm63.592 2.326L76.836 60.747l-3.585 22.371-.64-.102 3.767-23.505.62-.072L87.16 84.064l3.13-22.177.642.091-3.297 23.356z" fill="#183e41"/><path d="M99.113 85.816l6.218.698c.219-.008 6.39-.257 6.944-8.414.554-8.165-5.49-9.422-5.747-9.472l-6.168-.616zm6.19 1.329l-6.863-.768 1.312-18.74.252.018.031-.311 6.584.658c.096.017 6.881 1.401 6.288 10.141-.594 8.748-7.533 9-7.603 9.001" fill="#fbddd7"/><path d="M136.918 79.525h.006zm-7.995-10.472c-1.936 0-3.804.882-5.304 2.513-1.63 1.774-2.626 4.216-2.805 6.876-.367 5.461 2.865 10.142 7.206 10.433 4.334.294 8.171-3.913 8.538-9.374s-2.866-10.141-7.206-10.433a6.47 6.47 0 0 0-.429-.014m-.478 20.559a6.86 6.86 0 0 1-.473-.016c-4.738-.319-8.272-5.344-7.877-11.202.189-2.823 1.252-5.421 2.993-7.316 1.761-1.916 3.999-2.887 6.313-2.731 4.737.319 8.271 5.344 7.878 11.202-.381 5.662-4.295 10.063-8.834 10.063" fill="#183e41"/><g fill="#3e2858"><path d="M26.434 33.671c1.868.785 3.974-.476 4.473-2.367.568-2.157-.683-4.236-2.487-5.35-1.895-1.169-4.523-1.548-6.442-.231-1.849 1.268-2.705 3.549-3.214 5.64-.639 2.624-.737 5.345-.696 8.034.04 2.6-.044 5.421.905 7.885.713 1.852 2.102 3.574 4.071 4.144a5.16 5.16 0 0 0 5.594-1.966c.672-.956 1.051-2.196.919-3.367-.103-.917-.822-2.005-1.896-1.618-.746.269-.933 1.305-.246 1.772s1.623-.217 1.321-1.006c-.191-.499-1.002-.283-.809.223.063.165-.394-.075.117-.219.277-.078.563.431.612.569.141.4.101.941.034 1.352a4.44 4.44 0 0 1-1.065 2.228c-1.124 1.26-2.989 1.704-4.576 1.154-3.34-1.158-3.937-5.259-4.063-8.285-.154-3.682-.271-7.483.686-11.075.4-1.5.973-3.056 2.08-4.185 1.304-1.329 3.151-1.529 4.87-.963 1.751.577 3.421 1.972 3.57 3.921.147 1.932-1.58 3.723-3.536 2.901-.497-.209-.715.603-.223.809"/><path d="M27.355 44.625c-.171.633.072 1.099.316 1.675.29.689.246 1.37-.117 2.025-.72 1.298-2.214 1.799-3.6 1.364-3.234-1.016-3.874-4.845-4.204-7.74-.353-3.097-.555-6.307.163-9.369.642-2.732 2.258-6.471 5.657-6.104 1.584.171 3.361 1.114 3.956 2.674.56 1.469-.472 3.438-2.188 3.226-.534-.066-.53.774 0 .839 1.455.18 2.693-.951 3.079-2.294.441-1.536-.391-3.052-1.582-3.99-1.274-1.003-3.046-1.54-4.656-1.238-1.682.314-2.915 1.636-3.718 3.072-1.92 3.433-2.046 7.559-1.73 11.384.289 3.501.589 8.083 4.087 9.963 1.51.812 3.317.797 4.64-.359.591-.516 1.046-1.233 1.198-2.008.075-.386.078-.786-.007-1.171-.124-.564-.645-1.133-.484-1.727.141-.522-.669-.745-.809-.223"/><path d="M27.403 33.567c1.717-.258 2.724-2.153 2.498-3.771-.26-1.858-1.856-3.349-3.514-4.056-1.002-.428-2.203-.593-3.152.053-.444.302-.025 1.029.423.725.875-.595 1.995-.26 2.849.211.841.463 1.617 1.108 2.111 1.941.464.781.616 1.671.315 2.538-.277.797-.905 1.424-1.753 1.551-.532.08-.306.889.223.809"/><path d="M27.206 33.295c2.029-.635 2.853-3.197 1.899-5.027-1.154-2.214-4.249-2.568-6.272-1.441-2.523 1.407-3.438 4.345-3.583 7.055l-.056 5.571c-.008 1.713-.08 3.446.143 5.15.386 2.952 2.212 6.198 5.56 6.237.54.006.54-.833 0-.839-2.577-.031-4.142-2.457-4.607-4.739-.545-2.674-.258-5.574-.246-8.286.011-2.531-.143-5.239 1.24-7.48 1.183-1.917 3.562-3.148 5.739-2.083 1.034.506 1.679 1.482 1.633 2.642-.042 1.061-.625 2.103-1.675 2.432-.514.161-.294.971.223.809"/><path d="M23.747 49.86c-1.019-.373-1.651-1.32-2.117-2.249-.594-1.184-1.034-2.452-1.526-3.679-.173-.432-.792-.383-.824.111-.213 3.234 2.302 6.394 5.51 6.888.226.035.449-.057.516-.293.057-.198-.069-.482-.293-.516-2.865-.441-5.085-3.18-4.894-6.078l-.824.112 1.697 4.047c.567 1.081 1.358 2.038 2.532 2.467.508.186.727-.625.223-.809"/><path d="M23.827 49.782c-1.603-.101-3.019-1.582-3.064-3.187-.015-.539-.854-.541-.839 0 .059 2.089 1.824 3.896 3.903 4.027.226.014.419-.203.419-.42 0-.239-.192-.405-.419-.419m4.207-4.08c.05.08.092.163.134.247.019.044.019.042 0-.004l.025.065.035.099a2.33 2.33 0 0 1 .07.272c.004.02.024.17.012.062l.011.122c.006.088.007.176.003.264l-.01.14c-.006.049-.005.047.002-.007l-.009.052a2.19 2.19 0 0 1-.059.256l-.044.133-.025.066c.02-.046.02-.047.001-.004-.09.2-.065.461.151.574.183.097.478.064.574-.15.376-.839.344-1.822-.145-2.611-.116-.186-.38-.276-.574-.15-.187.12-.274.374-.151.574"/><path d="M27.639 45.687c.821.966.016 2.299-.923 2.794-1.032.543-2.605.679-3.669.165-1.118-.541-1.819-1.83-2.297-2.92-.558-1.274-.821-2.66-.809-4.048.005-.54-.834-.541-.839 0-.012 1.328.213 2.657.687 3.899.434 1.137 1.046 2.314 1.943 3.157.943.885 2.183 1.134 3.442 1.014 1.12-.107 2.297-.488 3.017-1.404.743-.944.837-2.315.041-3.251-.351-.412-.942.184-.593.593"/><path d="M26.012 49.456h-1.64c-.219 0-.43.193-.42.419s.185.42.42.42h1.64c.219 0 .43-.193.419-.42s-.185-.419-.419-.419m-.828-23.831c-4.19.019-4.54 5.331-4.811 8.377a73.85 73.85 0 0 0 .05 13.448l.824-.111c-1.316-4.837-1.688-9.865-1.115-14.844l-.824.111a18.16 18.16 0 0 1 .439 5.918h.839l.045-7.79c.006-.54-.833-.54-.839 0l-.045 7.79c0 .548.792.53.839 0 .182-2.067.02-4.126-.469-6.141-.12-.494-.774-.328-.824.111a40 40 0 0 0 1.145 15.067c.12.442.87.372.824-.111a74.03 74.03 0 0 1-.183-11.715c.123-1.899.22-3.877.66-5.733.402-1.694 1.489-3.528 3.444-3.537.54-.002.541-.842 0-.839m12.761 9.883c-2.273-.641-4.564.901-5.497 2.94-.56 1.222-.743 2.572-.747 3.906-.005 1.36.048 2.841.429 4.155.312 1.077.967 2.114 2.018 2.594 1.121.511 2.426.193 3.435-.431 2.153-1.333 3.042-3.891 3.121-6.313.076-2.324-.107-7.03-3.383-7.034-.54-.001-.541.839 0 .839 2.438.004 2.509 3.768 2.547 5.466.046 2.079-.411 4.267-1.974 5.75-.742.704-1.844 1.291-2.897 1.118-1.097-.18-1.77-1.22-2.058-2.211-.303-1.041-.351-2.176-.388-3.254s.007-2.172.291-3.219c.565-2.084 2.542-4.156 4.88-3.496.521.147.743-.663.223-.809"/><path d="M36.469 36.262c3.329.505 3.908 4.492 3.714 7.235-.089 1.269-.387 2.665-1.243 3.652-.929 1.072-2.45 1.378-3.727.751-1.46-.716-1.865-2.408-1.9-3.903-.02-.869.062-1.735.075-2.603.013-.834-.175-1.738.039-2.553.331-1.262 1.81-1.915 3.024-1.71 1.391.235 2.414 1.484 2.849 2.757.609 1.779.237 3.822-.352 5.558-.252.74-.629 1.504-1.342 1.893-.797.434-1.789.334-2.657.266-.539-.042-.536.797 0 .839 1.8.141 3.517-.074 4.42-1.835.858-1.674 1.251-3.895 1.005-5.755-.217-1.643-1.074-3.275-2.558-4.105-1.323-.74-3.008-.628-4.19.343-1.556 1.279-1.027 3.361-1.104 5.13-.081 1.853-.169 3.925 1.083 5.451 1.035 1.261 2.887 1.726 4.405 1.141 1.483-.571 2.351-2.004 2.731-3.484.873-3.401.276-9.222-4.047-9.878-.528-.08-.756.728-.223.809"/><path d="M34.779 36.186c-.701.952-.417 2.235.325 3.071.764.861 1.98 1.345 3.092 1.538 2.281.396 4.678-.3 6.342-1.922.387-.378-.207-.971-.594-.593-1.345 1.312-3.24 1.936-5.105 1.762-.906-.084-1.841-.376-2.593-.896-.814-.563-1.41-1.629-.743-2.535.321-.435-.407-.854-.725-.424"/><path d="M34.05 37.591c.401 2.517 3.046 3.511 5.287 3.635 2.21.123 5.279-.095 6.013-2.651.101-.353-.303-.657-.617-.474-1.76 1.027-3.646 2.515-5.783 2.428-1.747-.071-3.404-1.048-4.28-2.562-.271-.467-.996-.045-.725.424.98 1.695 2.774 2.775 4.712 2.958 2.429.229 4.51-1.362 6.499-2.523l-.616-.474c-.613 2.134-3.419 2.134-5.204 2.035-1.898-.105-4.138-.882-4.478-3.019-.085-.532-.894-.306-.809.223"/><path d="M44.569 39.168c.179-.365.404-.793.761-1.015.445-.277.715.131.806.534.216.95-.006 2.028-.21 2.961-.413 1.882-1.035 3.746-.659 5.69.082.424.698.374.809 0 .661-2.231.991-4.56.948-6.889-.016-.893.033-2.052-.618-2.759-.521-.567-1.488-.708-2.033-.101-.359.401.232.997.593.593.231-.258.6-.157.817.075.276.294.325.755.356 1.138.067.829.064 1.669.025 2.5-.084 1.772-.393 3.52-.897 5.22h.809c-.476-2.46.84-4.836.956-7.272.042-.874-.001-2.206-1.002-2.556-1.019-.356-1.795.662-2.185 1.458-.237.483.487.909.725.424"/><path d="M46.944 42.229c.179-1.433 1.254-2.735 2.642-3.154.71-.214 1.55-.096 2.045.523.343.429.126 1.444.052 1.947-.23 1.554-1.203 2.961-1.338 4.533-.122 1.413 1.035 2.383 2.357 2.516 1.748.176 3.147-1.021 4.302-2.174.383-.382-.211-.975-.593-.593-1.064 1.063-2.495 2.365-4.131 1.832-.854-.278-1.229-.995-1.048-1.86.175-.835.526-1.671.805-2.477.246-.712.455-1.38.527-2.132.056-.579.183-1.356-.118-1.887-.307-.543-1.049-1.004-1.646-1.137-.695-.156-1.444.053-2.072.351-1.459.693-2.425 2.13-2.623 3.714-.067.534.773.53.839 0"/><path d="M55.973 45.39c-.49.548-.913 1.174-1.482 1.648-.445.37-.937.458-1.5.389-.423-.052-1.039-.2-1.267-.605-.134-.239-.039-.491.036-.736.149-.488.355-.955.554-1.425.346-.817.614-1.623.701-2.511.075-.761.184-1.746-.142-2.462-.465-1.021-1.607-1.179-2.602-1.025-1.173.182-2.346.705-3.346 1.336-.456.288-.035 1.014.423.725.892-.562 1.906-1.017 2.944-1.217.451-.086 1.005-.138 1.422.097.642.363.518 1.247.501 1.872-.026.958-.239 1.827-.606 2.71-.301.725-.803 1.573-.796 2.377.011 1.172 1.338 1.649 2.315 1.715 1.64.111 2.461-1.203 3.438-2.295.359-.401-.233-.997-.594-.593"/><path d="M44.477 39.174c.279-.506 1.033-1.46 1.367-.464.281.837.299 1.815.302 2.69.003.914-.073 1.826-.183 2.733l-.199 1.422c-.048.322-.019.837-.29 1.059l.408-.108-.025-.007.251.193c-.125-.241-.037-.726.037-.971.182-.603.446-1.192.651-1.789l1.27-3.623c.196-.503-.615-.721-.809-.223l-1.634 4.65c-.213.579-.406 1.075-.391 1.7.01.39.196 1.134.75.837s.537-1.135.617-1.665l.302-2.415a17.71 17.71 0 0 0 .062-2.559c-.04-.72-.089-1.519-.33-2.204-.211-.601-.689-1.102-1.374-1.01-.702.095-1.188.755-1.507 1.331-.261.473.463.897.725.424m13.364 3.552c.99-.004 2.022-.077 2.955-.433.704-.268 1.796-.876 1.949-1.704.057-.307-.005-.829-.119-1.121-.169-.436-.784-.651-1.198-.763-.979-.263-2.083-.08-2.955.426-1.696.984-2.69 3.024-3.01 4.895-.175 1.025-.208 2.137.2 3.113.393.942 1.222 1.6 2.201 1.859 2.109.558 4.064-1.024 5.438-2.456.374-.39-.219-.984-.593-.594a11.32 11.32 0 0 1-1.642 1.409c-.558.394-1.21.843-1.907.918-.797.086-1.669-.164-2.245-.734-.657-.651-.767-1.633-.726-2.514.073-1.537.661-3.17 1.696-4.324.538-.6 1.194-1.049 1.992-1.214.389-.08.808-.09 1.197-.006a2.3 2.3 0 0 1 .586.207c.217.113.183.105.217.35.019.134.071.307.026.429-.056.154-.265.334-.38.44-.305.28-.679.481-1.068.617-.839.295-1.732.356-2.614.36-.54.002-.541.841 0 .839"/><path d="M62.709 45.798c-.487.611-1.132 1.071-1.828 1.416-.679.337-1.507.609-2.275.492-1.512-.229-2.391-2.018-2.251-3.415.054-.537-.786-.533-.839 0-.175 1.746.988 3.84 2.795 4.211.919.189 1.871-.06 2.711-.431.859-.379 1.692-.94 2.281-1.68.333-.418-.257-1.016-.593-.593"/><path d="M62.824 45.915l-1.868 1.067c-.608.312-1.31.676-2.011.669-.902-.008-1.564-.421-2.004-1.203-.446-.793-.64-1.711-.634-2.616.011-1.671.666-3.358 2.129-4.269.655-.408 1.474-.667 2.249-.531.742.13 1.421.698 1.066 1.506-.36.822-1.195 1.018-2.007 1.024s-1.632-.093-2.43-.247c-.528-.102-.754.707-.223.809 1.629.314 3.981.756 5.142-.772.555-.73.64-1.742-.011-2.447-.639-.692-1.675-.831-2.561-.692-2.022.318-3.526 2.03-3.99 3.958-.261 1.082-.279 2.231-.006 3.312.254 1.01.815 2.17 1.782 2.674 1.978 1.031 4.152-.546 5.8-1.519.465-.274.043-1-.424-.725"/><path d="M56.819 42.52l.911.182c.111.022.223.017.323-.042a.43.43 0 0 0 .193-.251c.024-.107.019-.228-.042-.323-.057-.088-.144-.172-.251-.193l-.911-.182c-.112-.022-.223-.017-.323.042-.087.051-.17.151-.193.251-.024.107-.019.228.042.323.057.088.144.171.251.193"/><path d="M56.802 42.791c1.244.199 2.595.204 3.804-.194.906-.298 1.842-.907 2.001-1.919s-.6-1.95-1.543-2.236c-1.102-.334-2.272.138-3.137.818-1.582 1.242-2.436 3.433-2.187 5.422.18 1.432.921 2.944 2.332 3.476 1.921.725 3.923-.519 5.323-1.735.408-.355-.188-.947-.594-.593-1.053.915-2.481 1.897-3.961 1.667-.931-.144-1.455-.692-1.852-1.528-.736-1.548-.513-3.385.375-4.824.407-.661.967-1.229 1.65-1.605.792-.437 1.943-.596 2.553.224.635.853-.193 1.634-.964 1.947-1.098.445-2.423.457-3.576.272-.528-.084-.756.724-.223.809"/><path d="M68.964 42.712c.758-1.169-.276-2.62-1.552-2.698-1.645-.101-2.669 1.375-3.254 2.705-.66 1.5-1.232 3.163-.833 4.813.296 1.222 1.209 2.524 2.565 2.596 1.306.068 2.886-.651 3.731-1.64.349-.409-.242-1.005-.593-.594-.704.824-2.038 1.469-3.138 1.394-1.355-.091-1.889-1.921-1.858-3.032.024-.855.279-1.685.587-2.476.28-.721.589-1.495 1.091-2.094.438-.522 1.136-.964 1.847-.811.611.132 1.046.852.683 1.413-.295.455.431.876.725.424"/><path d="M64.397 41.325c-1.345 2.176-2.444 4.934-1.055 7.366.56.98 1.54 1.765 2.693 1.854 1.26.097 2.361-.713 3.131-1.632.344-.411-.247-1.008-.594-.593-.624.746-1.495 1.49-2.538 1.386-.978-.097-1.737-.896-2.128-1.746-.97-2.112.093-4.398 1.215-6.211.285-.46-.441-.883-.725-.424"/><path d="M68.745 43.117c.312-.701.889-1.363.663-2.182-.167-.606-.649-1.046-1.218-1.275-1.283-.518-2.634.064-3.46 1.09-.536.667-.892 1.441-1.23 2.222-.09.208-.061.45.151.574.177.104.484.059.574-.151.515-1.191 1.218-2.91 2.708-3.073.525-.058 1.162.066 1.501.507.479.622-.159 1.292-.414 1.864-.092.207-.06.451.151.574.179.104.481.058.574-.151m-.967 6.984c4.751-3.454 6.718-9.118 8.472-14.479.168-.514-.642-.735-.809-.223-1.676 5.123-3.537 10.67-8.086 13.978-.433.315-.014 1.043.424.725"/><path d="M72.92 42.135l-1.338 4.247c-.385 1.221-.969 2.594-.6 3.889.272.954 1.067 1.776 2.112 1.743 1.138-.035 2.016-.96 2.682-1.787.335-.417-.255-1.015-.594-.593-.513.638-1.246 1.556-2.153 1.543-1.025-.015-1.382-1.211-1.309-2.049.097-1.125.585-2.249.922-3.319l1.087-3.451c.163-.516-.647-.737-.809-.223m-2.98-2.525c2.263.817 4.582 1.465 6.94 1.942.527.107.753-.702.223-.809a49.07 49.07 0 0 1-6.94-1.942c-.509-.183-.728.627-.223.809"/><path d="M81.382 45.174c-.382-.635-1.108-.97-1.842-.932-.815.043-1.527.515-2.066 1.101-1.083 1.177-1.895 2.866-1.869 4.49.023 1.434.856 2.902 2.453 2.885 1.776-.018 2.847-1.595 3.286-3.139.289-1.017.431-2.092.467-3.147.024-.73-.075-2.005-1.131-1.798-.53.104-.305.913.223.809-.074.014-.07-.038-.027.031.031.049.046.097.064.152.04.129.039.257.039.391l-.048 1.105c-.061.714-.178 1.428-.365 2.121-.312 1.157-.974 2.451-2.298 2.624-1.156.151-1.766-.865-1.819-1.887-.063-1.219.449-2.435 1.129-3.423.382-.556.877-1.136 1.528-1.377.54-.2 1.234-.108 1.55.418.278.462 1.004.041.725-.423"/><path d="M80.998 44.528c-1.42-.767-3.164-.149-4.115 1.068-.527.674-.846 1.486-1.019 2.318-.169.81-.257 1.669-.129 2.491.121.775.503 1.506 1.186 1.924.622.38 1.392.444 2.095.3 1.624-.334 2.577-1.853 3.02-3.338.288-.963.485-2.062.188-3.047-.252-.832-.845-1.531-1.685-1.796-.516-.163-.737.647-.223.809 1.433.452 1.298 2.303 1.01 3.448-.293 1.165-.881 2.511-2.082 2.983-.502.197-1.081.246-1.594.064-.586-.208-.923-.72-1.058-1.308-.143-.622-.087-1.302.011-1.927.105-.663.283-1.326.613-1.916.633-1.13 2.084-2.037 3.358-1.348.475.257.9-.467.423-.725"/><path d="M82.259 45.434a30.38 30.38 0 0 1-.447 3.021l-.673 2.92c-.111.773.025 1.597.724 2.048.536.346 1.317.384 1.746-.151.335-.417-.255-1.015-.593-.593-.29.361-.831.061-.987-.292-.298-.675.094-1.57.261-2.234a32.32 32.32 0 0 0 .809-4.718c.053-.537-.787-.533-.839 0"/><path d="M82.533 52.596c-.909-.95-.498-2.466-.07-3.545.551-1.387 1.271-2.852.771-4.366-.103-.314-.602-.448-.767-.1-.606 1.278-.889 2.665-.797 4.079.035.536.874.54.839 0-.083-1.262.139-2.511.682-3.655l-.767-.1c.527 1.596-.562 3.111-1.005 4.589-.374 1.246-.438 2.692.52 3.693.374.391.967-.203.593-.593"/><path d="M82.641 53.826c1.136.084 1.749-1.074 2.061-1.993l1.386-4.378c.05-.158.121-.586.339-.516.179.057.278.492.306.645.116.639.075 1.348.037 1.992-.089 1.472-.438 2.934-1.021 4.289-.212.491.511.919.724.424.495-1.148.846-2.341 1.02-3.58.087-.625.138-1.253.139-1.885.002-.554.023-1.174-.155-1.705-.135-.401-.379-.829-.796-.986-.451-.169-.92.06-1.155.464-.306.526-.427 1.202-.609 1.778l-.61 1.929c-.195.616-.346 1.276-.639 1.855-.211.418-.506.866-1.026.828-.539-.04-.537.799 0 .839"/><path d="M87.348 52.519c.113-1.308.322-2.727.843-3.942.204-.476.533-.982 1.083-1.077.498-.086 1.004.174 1.344.523.879.903.571 2.36.232 3.428-.356 1.122-.766 2.335-.188 3.461.511.996 1.946 1.431 2.774.551.37-.393-.222-.988-.593-.593-.341.363-.933.269-1.253-.081-.415-.454-.439-1.148-.332-1.722.241-1.294.889-2.46.744-3.817-.12-1.132-.771-2.148-1.893-2.503-1.09-.345-2.08.268-2.566 1.242-.68 1.362-.904 3.031-1.033 4.531-.046.538.793.535.839 0"/><path d="M93.259 54.812c-.588.225-1.191.001-1.607-.452-.488-.533-.564-1.314-.499-2.003.074-.785.361-1.535.6-2.281.213-.662.465-1.4.389-2.106-.16-1.498-1.834-1.673-2.971-1.165-1.205.539-1.767 1.707-1.927 2.958-.177 1.378.087 2.947-.746 4.151l.782.212.645-6.894c.05-.538-.79-.534-.839 0l-.645 6.894c-.042.451.569.52.782.212.698-1.009.723-2.256.774-3.437.052-1.197.166-2.568 1.322-3.233.467-.269 1.353-.52 1.798-.074.478.478.059 1.515-.105 2.047-.418 1.352-.999 2.787-.567 4.214.376 1.242 1.719 2.273 3.038 1.766.499-.192.283-1.003-.223-.809"/><path d="M89.906 47.484c1.357.179 1.739 1.807 1.665 2.928-.099 1.512-.719 2.945-.58 4.48.048.534.888.539.839 0-.165-1.82.762-3.543.566-5.364-.151-1.395-1.026-2.691-2.491-2.884-.534-.07-.528.77 0 .839"/><path d="M91.843 52.452l.529-1.96c.169-.624.358-1.277.307-1.931-.084-1.077-.956-2.143-2.128-1.887-.527.115-.304.925.223.809.338-.074.652.156.838.421.253.361.266.824.21 1.248-.065.497-.224.985-.355 1.469l-.434 1.609c-.141.522.669.745.809.223m7.514-2.806c-.174-.77-.916-1.218-1.672-1.244-.889-.03-1.613.59-2.111 1.265-.605.822-1.036 1.804-1.336 2.776-.306.988-.543 2.103-.297 3.129.2.831.804 1.609 1.649 1.85.869.248 1.716-.19 2.296-.821.672-.731 1.123-1.672 1.484-2.588.349-.883.616-1.83.655-2.783.038-.911-.158-1.891-.809-2.569-.534-.557-1.751-.814-1.88.226-.066.535.774.53.839 0-.024.199-.081.064.13.131a.72.72 0 0 1 .278.197 1.87 1.87 0 0 1 .436.699c.203.568.206 1.201.125 1.792-.189 1.384-.773 2.873-1.603 3.998-.345.468-.869.991-1.5.949-.622-.041-1.085-.602-1.253-1.162-.228-.756-.071-1.584.119-2.329a9.67 9.67 0 0 1 .796-2.094c.331-.634.736-1.361 1.402-1.694.51-.254 1.299-.139 1.442.495.119.527.928.304.809-.223"/><path d="M99.983 52.381l2.679-6.708 1.171-3.543c.195-.746.165-1.704-.671-2.044-.826-.336-1.348.434-1.664 1.076-.523 1.063-.831 2.216-1.029 3.38-.416 2.45-.389 4.961-.456 7.438l-.119 4.359c-.024.868-.163 2.046.769 2.506.181.09.357.063.508-.066l1.641-1.399c.412-.351-.185-.942-.593-.593l-1.641 1.399.508-.066c-.532-.263-.37-1.159-.357-1.636l.048-1.744.099-3.633c.068-2.483.038-5.023.629-7.451.128-.527.282-1.05.486-1.553.083-.205.233-.708.421-.879.106-.306.334-.32.685-.043a1.4 1.4 0 0 1-.042.608c-.225 1.101-.692 2.206-1.062 3.266l-2.733 6.903c-.217.489.506.917.725.423"/><path d="M107.163 51.576c-1.629-.415-2.981.774-3.722 2.108-.756 1.361-1.459 3.101-.849 4.643.564 1.426 2.03 2.075 3.448 1.455 1.519-.663 2.123-2.267 2.543-3.752.263-.93.574-1.954.29-2.917-.218-.737-.761-1.381-1.529-1.56-.526-.122-.75.687-.223.809 1.397.325 1.009 2.158.74 3.131-.315 1.141-.649 2.483-1.651 3.228-.957.711-2.202.605-2.761-.521-.574-1.155-.062-2.505.454-3.581.549-1.143 1.556-2.613 3.037-2.236.524.133.747-.676.223-.809"/><path d="M105.011 52.324c-.115 1.419.726 2.882 2.034 3.462 1.331.59 2.96.271 3.971-.779.375-.389-.218-.983-.593-.593-.759.788-2.013 1.076-3.024.616-1.031-.469-1.639-1.591-1.549-2.706.044-.538-.796-.536-.839 0"/><path d="M110.464 54.123c-1.234.923-3.1.909-4.239-.183-.311-.298-.605-.702-.611-1.152-.005-.407.248-.83.695-.818.873.024 1.313 1.082 1.424 1.804.128.834.011 1.712-.14 2.534-.163.888-.428 1.827-1.091 2.478-.58.568-1.473.905-2.232.485-.813-.45-1.135-1.403-1.144-2.284-.01-1.032.254-2.202.772-3.101.497-.862 1.449-1.546 2.478-1.256.521.146.743-.663.223-.809-1.143-.322-2.335.203-3.057 1.106-.782.978-1.121 2.301-1.232 3.529-.106 1.179.178 2.453 1.117 3.247.882.744 2.084.758 3.052.162 1.039-.64 1.578-1.768 1.84-2.922.253-1.113.413-2.32.213-3.453-.186-1.054-.895-2.19-2.041-2.34-1.166-.152-1.894.997-1.664 2.054.262 1.204 1.502 2.049 2.638 2.313 1.172.272 2.451.059 3.422-.667.428-.32.01-1.048-.424-.725"/><path d="M106.334 51.08c-1.237-.102-2.477.838-2.717 2.055-.042.214.061.463.293.516.208.047.471-.063.516-.293.024-.124.062-.241.105-.359.011-.029.008-.02-.011.025l.021-.044.036-.073.098-.168.055-.08c.013-.019.077-.095.013-.019l.118-.135.128-.126.074-.064c.013-.011.101-.072.018-.016l.304-.192.087-.044c.016-.007.117-.047.019-.01l.184-.065.173-.045.08-.016.064-.01-.047.007c.006-.031.355-.007.39-.005.219.018.429-.206.419-.419-.011-.243-.185-.4-.419-.419m-6.456-.465c.039-1.862-2.416-2.413-3.661-1.385-.668.551-1.059 1.457-1.378 2.24-.345.848-.59 1.754-.672 2.668-.077.862.085 1.763.695 2.411.555.588 1.378.794 2.132.485.779-.319 1.264-1.018 1.619-1.75.429-.883.785-1.821 1.014-2.776.231-.965.287-2.052-.26-2.928-.486-.779-1.373-1.208-2.279-1.004-.526.119-.304.928.223.809.606-.137 1.159.252 1.422.78.304.611.26 1.329.118 1.977-.144.654-.361 1.297-.609 1.919-.234.586-.494 1.232-.913 1.713-.392.45-1.008.758-1.573.428-.544-.318-.752-.967-.767-1.564-.032-1.311.471-2.708 1.093-3.843.345-.63.756-1.196 1.531-1.248.672-.045 1.443.301 1.427 1.068-.011.54.828.54.839 0"/><path d="M98.397 48.408a1.52 1.52 0 0 0-.647-.142 1.67 1.67 0 0 0-.593.119c-.373.151-.684.391-.971.67-.158.153-.165.441 0 .593s.425.163.593 0l.17-.159.089-.075.045-.037-.039.03c.049-.053.13-.093.191-.131s.126-.069.191-.102a.39.39 0 0 0-.034.014l.055-.02.111-.035.114-.025c.085-.018-.093.007.019-.001l.101-.002.058.002c.047.005.039.003-.025-.005.013-.01.096.019.112.024.025.007.146.054.036.006.107.047.205.075.323.042a.43.43 0 0 0 .251-.193c.096-.181.065-.481-.151-.574m1.848 2.303l.389-1.136a.64.64 0 0 0-.006.013l.03-.069.063-.138.138-.268.156-.258.085-.124.045-.061a.44.44 0 0 0 .004-.005c.137-.171.18-.429 0-.593-.152-.14-.447-.183-.593 0-.567.71-.855 1.559-1.12 2.417-.065.21.077.467.293.516.228.052.447-.068.516-.293"/><path d="M102.908 40.056c-.769-.134-1.273.307-1.586.982-.422.908-.724 1.886-.94 2.862-.478 2.158-.425 4.381-.446 6.578-.021 2.158-.249 4.444.048 6.586.077.553.204 1.316.868 1.411.788.113 1.534-.513 1.963-1.097.32-.436-.408-.855-.724-.424-.137.187-.795.859-1.086.696-.211-.119-.216-.863-.231-1.062-.06-.766-.04-1.543-.035-2.311l.044-4.642c.015-1.53-.004-3.076.233-4.592a15.08 15.08 0 0 1 .521-2.211c.141-.445.515-2.078 1.148-1.968.528.092.755-.716.223-.809"/><path d="M101.111 57.925c-.681-1.049-.713-2.315-.742-3.526-.034-1.365-.034-2.736.369-4.054.158-.518-.652-.739-.809-.223-.438 1.434-.436 2.938-.395 4.422.035 1.31.119 2.674.853 3.805.293.451 1.02.031.725-.424"/><path d="M102.585 40.027c-1.722.149-2.209 1.818-2.481 3.267l-.827 6.037c-.101 1.235-.865 10.475 1.804 9.457.5-.191.283-1.003-.223-.809-.82.313-.885-4.21-.89-4.668l.172-4.264.573-4.409c.199-1.171.29-3.636 1.873-3.773.534-.046.539-.886 0-.839m2.897 11.262c-2.197.835-2.668 3.361-3.216 5.372-.143.522.667.744.809.223.268-.985.479-2.024.909-2.955.354-.768.903-1.52 1.721-1.831.211-.08.357-.283.293-.516-.055-.203-.303-.374-.516-.293"/><path d="M108.369 52.52c-.627-.859-1.724-1.048-2.667-.605-1.026.483-1.581 1.528-2 2.525-.467 1.109-.806 2.284-.881 3.489-.056.914.17 1.988 1.103 2.379.553.232 1.169.153 1.709-.074.531-.223 1.191-.559 1.488-1.073.271-.468-.454-.892-.725-.424-.224.387-.94.713-1.357.822-.423.11-.895.058-1.154-.33-.513-.764-.168-2.062.041-2.867.262-1.009.637-2.119 1.276-2.957.524-.687 1.771-1.382 2.444-.461.315.432 1.044.014.725-.423m-16.445 3.105a3.01 3.01 0 0 0 2.46-.936c.15-.161.171-.436 0-.593-.162-.149-.434-.172-.593 0a2.42 2.42 0 0 1-.206.199l-.052.043c-.045.041.054-.039.005-.003l-.124.087c-.08.053-.162.101-.248.144l-.121.059c-.055.028.064-.024.007-.002l-.079.03-.258.08-.148.033-.066.012-.028.005c.063-.009-.043.004-.045.004l-.067.006-.135.006c-.101.001-.202-.004-.303-.014-.219-.023-.429.209-.419.42.011.246.185.395.419.419"/><path d="M93.796 54.405l-.112.102-.022.018c.059-.046-.011.007-.023.016-.08.056-.164.105-.252.147l-.064.03c.11-.056.042-.018.014-.007l-.132.046a1.98 1.98 0 0 1-.296.064l.111-.015a1.9 1.9 0 0 1-.395.01c-.219-.018-.429.206-.42.42.011.242.185.401.42.419.646.051 1.304-.205 1.764-.657.157-.154.166-.441 0-.593s-.426-.164-.593 0"/><path d="M92.653 54.791h-.074c-.046 0-.033-.007.004.002l-.087-.022c-.008-.002-.079-.029-.035-.01s-.024-.014-.032-.018l-.063-.037c-.015-.01-.077-.062-.02-.011l-.056-.049a1.5 1.5 0 0 1-.102-.11c.028.031.017.024-.002-.005l-.05-.079-.036-.065-.023-.046c.011.027-.016-.044-.018-.052l-.033-.104a2.45 2.45 0 0 1-.071-.343c.008.058-.001-.02-.003-.041l-.008-.088-.013-.176-.052-.822c-.014-.218-.183-.43-.42-.419-.216.01-.434.185-.419.419l.06.932c.024.312.06.632.173.926.222.575.725 1.076 1.38 1.057.219-.007.43-.188.419-.42-.01-.222-.185-.427-.419-.419m-.855-4.261c-.03-.592.078-1.193-.085-1.774-.137-.489-.445-.914-.845-1.222-.878-.677-2.103-.654-3.029-.08-.459.284-.037 1.01.423.725.667-.413 1.538-.435 2.111.027.289.234.469.504.55.85.111.478.011.989.036 1.475.011.226.185.419.419.419.218 0 .431-.192.419-.419"/><path d="M91.253 46.743c-1.317-.372-2.806-.235-3.826.751-.389.376.205.969.593.594.804-.777 1.986-.824 3.01-.535.521.147.743-.663.223-.809"/><path d="M88.15 47.807c-.107-.433-.271-.849-.563-1.191-.285-.335-.721-.558-1.164-.555-.219.002-.43.192-.419.42s.184.422.419.419a1.06 1.06 0 0 1 .134.007l-.111-.015c.074.01.144.03.216.053s-.073-.035-.028-.012l.051.024.097.056.047.031c.03.021.048.056-.022-.018.026.027.059.049.086.074l.079.081.037.043c.032.035-.065-.089-.015-.019s.091.135.131.207l.055.109.02.045c.036.079-.027-.069-.009-.021l.15.483c.053.213.304.361.516.293.221-.072.349-.288.293-.516"/><path d="M87.553 48.369l-.235 2.893-.166 1.42-.09.61-.053.282c-.01.054-.028.104-.055.152-.039.029-.026.039.04.029-.48-.245-.905.479-.424.725.532.271 1.052-.063 1.223-.595.175-.544.196-1.171.264-1.736l.334-3.781c.032-.539-.808-.538-.839 0m-3.911 3.728c-.242.297-.632.462-1.003.295-.396-.178-.504-.571-.512-.971-.022-1.107.26-2.192.528-3.256.132-.524-.677-.748-.809-.223l-.45 2.085c-.098.666-.218 1.445-.011 2.101.384 1.225 2.032 1.57 2.851.562.143-.176.172-.422 0-.593-.147-.147-.45-.177-.594 0"/><path d="M82.004 47.802c-.378.995-.448 2.078-.428 3.133.018.918.29 2.103 1.367 2.283.223.037.452-.059.516-.293.055-.201-.068-.478-.293-.516-.807-.135-.756-1.212-.754-1.828.002-.872.089-1.734.401-2.555.08-.212-.089-.46-.293-.516-.236-.065-.435.08-.516.293"/><path d="M82.73 45.135l.226.059.1.026.043.012c.052.016.026.003-.079-.039l-.108-.185c.016.046.018.045.004-.002.006-.043.006-.046-.001-.008-.017.058-.026.12-.04.179l-.079.304-.211.648-.496 1.212c-.09.208-.061.45.15.574.177.104.483.058.574-.151l.724-1.834c.092-.293.218-.633.218-.943 0-.226-.123-.43-.33-.524-.149-.067-.316-.097-.473-.138-.219-.058-.456.073-.516.293s.073.458.293.516m-.741 1.537c.016-.663-.273-1.336-.78-1.767-.16-.137-.377-.167-.551-.033s-.205.353-.108.542l.119.249.004.008.029.073.041.11c.062.173.114.349.155.528l.054.27.018.116c-.013-.091.007.068.009.084a4.77 4.77 0 0 1 .022.55c-.004.22.196.43.42.42.23-.011.416-.185.419-.42a5.14 5.14 0 0 0-.565-2.413l-.659.508a1.87 1.87 0 0 1 .151.143l.058.064c.025.03.045.057.01.01a2.48 2.48 0 0 1 .203.343c.023.044-.023-.063.005.012l.035.098a1.85 1.85 0 0 1 .049.185l.016.085c-.022-.098 0 .006.002.026.006.069.007.139.005.208-.006.22.197.43.42.419.232-.01.413-.184.419-.419"/><path d="M76.357 46.452a8.93 8.93 0 0 0-.716 1.931c-.136.562-.228 1.144-.589 1.613-.139.18-.027.47.151.574.217.127.435.029.574-.151.379-.491.509-1.111.647-1.703.15-.639.363-1.255.659-1.841.102-.202.053-.455-.151-.574-.187-.109-.472-.053-.574.15m5.509.765c.074-.658-.052-1.314-.317-1.917-.04-.09-.161-.168-.251-.193a.43.43 0 0 0-.323.042c-.089.057-.169.144-.193.251-.027.117-.006.214.042.323a.35.35 0 0 0-.006-.016l.023.057.032.086.065.204a4.03 4.03 0 0 1 .088.404c.005.032.004.02-.005-.036l.008.061.008.091.011.214a3.41 3.41 0 0 1-.022.428c-.011.1.055.229.123.297s.192.128.297.123c.248-.011.393-.185.419-.419"/><path d="M73.81 40.059a31.35 31.35 0 0 0-1.72 4.715c-.437 1.56-.817 3.19-.582 4.816.094.651.287 1.308.868 1.686.466.303 1.067.385 1.603.251 1.376-.344 1.995-1.732 2.466-2.927.198-.502-.613-.72-.809-.223-.363.919-.901 2.275-2.062 2.371-1.467.121-1.356-1.943-1.269-2.916.113-1.264.482-2.511.853-3.72.381-1.239.832-2.453 1.377-3.629.225-.487-.498-.914-.725-.424m-35.716-3.016c.015-.368-.28-.637-.562-.822a1.95 1.95 0 0 0-.728-.289c-.141-.024-.284-.041-.427-.037-.149.004-.298.018-.41.13a.46.46 0 0 0-.068.549c.107.187.299.246.496.28.17.03.343.051.516.06.22.011.429-.201.42-.42a.43.43 0 0 0-.42-.419l-.271-.024.111.015c-.105-.014-.228-.023-.328-.065l.1.042c-.063-.036-.03-.001.099.107l.042.1c0 .024.006.061.01.098l-.056.198-.356.194c.12-.011.241-.01.361.005l-.111-.015a1.72 1.72 0 0 1 .436.118l-.1-.042a1.89 1.89 0 0 1 .315.177.5.5 0 0 0-.031-.025l.035.029.067.061.032.033c.028.033.021.023-.022-.031.008.025.032.053.044.077l-.042-.1c.011.028.018.054.022.084l-.015-.112c.001.015.001.029 0 .044-.009.22.199.43.42.419.235-.01.41-.184.419-.419m-3.828-.336c-1.121 1.029-1.577 2.183-1.61 3.69-.035 1.56-.104 3.174.262 4.703.309 1.286.991 2.523 2.127 3.25.992.635 2.541.913 3.463.012.387-.378-.207-.971-.593-.593-.835.816-2.345.072-3.013-.609-.841-.856-1.206-2.066-1.341-3.231s-.092-2.358-.067-3.531c.028-1.29.406-2.218 1.365-3.097.399-.366-.196-.958-.594-.593m10.604 1.937a1.5 1.5 0 0 1 .094-.322l-.043.1a1.46 1.46 0 0 1 .16-.283l-.725-.424-.3.604c-.031.048-.047.1-.049.156-.013.055-.01.111.007.167a.43.43 0 0 0 .193.251c.097.051.215.077.323.042.1-.032.202-.095.251-.193l.3-.604c.031-.048.047-.1.049-.156.013-.056.01-.111-.007-.167-.026-.097-.102-.203-.193-.251a.42.42 0 0 0-.323-.042l-.1.042a.42.42 0 0 0-.151.151 1.9 1.9 0 0 0-.202.384 1.52 1.52 0 0 0-.094.322c-.017.056-.02.111-.007.167.002.056.019.108.049.156a.43.43 0 0 0 .251.193c.108.024.228.019.323-.042.086-.056.174-.145.193-.251"/><path d="M44.812 38.839l.045-.037c.037-.031-.089.063-.02.017l.087-.058.091-.052c.026-.014.073-.048.104-.05-.011.001-.091.036-.036.016l.054-.02.1-.032a1.73 1.73 0 0 1 .228-.048l-.112.015c.147-.019.294-.02.44-.001l-.111-.015c.069.01.137.024.205.042.211.058.466-.071.516-.293s-.067-.455-.293-.516c-.666-.18-1.37-.004-1.892.439-.168.143-.158.449 0 .593a.43.43 0 0 0 .594 0"/><path d="M45.18 37.632l-.605.219c-.055.013-.102.038-.143.075a.32.32 0 0 0-.108.117c-.026.048-.047.1-.05.156-.013.056-.01.111.007.167.033.102.096.199.193.251s.218.08.323.042l.605-.219c.055-.013.102-.038.143-.075.046-.03.082-.069.108-.118a.31.31 0 0 0 .05-.156c.013-.056.01-.111-.007-.167-.033-.102-.096-.2-.193-.251s-.218-.08-.323-.042m-16.518 7.272c-.149-.283-.395-.531-.715-.603a.8.8 0 0 0-.839.344c-.169.259-.205.586-.121.882.089.309.297.557.427.846.227.504.232 1.096.045 1.613-.172.476-.574.971-1.123.941-.54-.03-.538.81 0 .839 1.238.068 1.994-1.233 2.086-2.314a2.94 2.94 0 0 0-.35-1.633c-.105-.193-.314-.423-.29-.657.002-.016.037-.061.034-.07-.001-.004-.042.054-.061.024.01.015.084.059.092.068.039.042.064.093.09.144.251.478.976.054.725-.424m-3.053 4.92c-2.723.911-5.14-1.54-5.704-4.063-.316-1.415-.461-2.823.092-4.19.241-.597.443-1.174.509-1.82.077-.744-.144-1.436-.128-2.17.012-.54-.828-.54-.839 0-.02.89.252 1.7.055 2.599-.17.778-.607 1.466-.747 2.253-.251 1.41.009 3.237.562 4.552 1.063 2.528 3.592 4.594 6.423 3.647.51-.17.291-.981-.223-.809m-5.331-19.7l-.755 1.956.809.223.337-1.04c.076-.206-.085-.469-.293-.516a.43.43 0 0 0-.516.293l-.337 1.04c-.059.211.073.466.293.516a.43.43 0 0 0 .516-.293l.333-.918.172-.437.096-.234.042-.1c.018-.044.018-.044 0 0l.028-.066c.046-.108.075-.205.042-.323a.43.43 0 0 0-.193-.251c-.18-.095-.482-.065-.574.151m2.038-4.09l-.826.755c-.078.068-.123.196-.123.297s.046.226.123.297.185.128.297.123a.46.46 0 0 0 .297-.123l.825-.755a.43.43 0 0 0 .123-.297.43.43 0 0 0-.123-.297c-.077-.071-.185-.128-.297-.123a.45.45 0 0 0-.297.123m6.199 5.52c.037-.091-.006-.002-.016.018-.038.078.044-.037-.013.019l-.071.07c-.064.066.05-.029-.021.018a3.5 3.5 0 0 1-.357.204l-.225.109-.114.052c.068-.029-.041.015-.054.02-.158.058-.32.09-.483.127-.359.08-.712.266-.895.601-.137.251-.125.558.113.741a.5.5 0 0 0 .734-.14c.11-.19.05-.468-.15-.574s-.456-.053-.574.15l-.012.019.151-.151c.136-.1.371.603.482.345.02-.046-.054.052.013-.016l.052-.051c.07-.067-.031.009.016-.012.026-.012.056-.032.081-.046-.036.02-.027.01.007-.002l.186-.052c.278-.064.533-.135.795-.252.209-.093.424-.192.616-.319a1.36 1.36 0 0 0 .55-.655c.081-.204-.089-.47-.293-.516-.242-.055-.429.074-.516.293"/><path d="M24.204 25.98c-.494.351-1.088.523-1.569.896-.525.407-.931.975-1.332 1.498l.725.424.17-.293.095-.14.05-.068c-.023.029-.019.024.012-.016a3.85 3.85 0 0 1 .452-.473l.113-.096.015-.013.068-.051.283-.186.298-.16.093-.043.158-.06c.213-.077.356-.285.293-.516-.056-.206-.302-.37-.516-.293-.983.355-1.82 1.056-2.309 1.985-.105.2-.051.456.151.574.216.126.436.03.574-.151l.56-.691c.17-.2.392-.449.569-.582.452-.338 1.011-.494 1.47-.821.185-.131.272-.366.151-.574-.107-.182-.388-.283-.574-.151m100.351 48.395c1.521.757 2.677-.692 2.872-2.086.267-1.911-.513-3.784-1.447-5.407-.998-1.734-2.294-3.364-2.834-5.322-.469-1.703-.224-3.694 1.224-4.847.422-.336-.175-.926-.593-.593-2.485 1.978-1.797 5.512-.481 7.944.865 1.599 1.998 3.05 2.715 4.729.386.905.655 1.875.631 2.866-.02.802-.466 2.588-1.662 1.992-.482-.24-.907.484-.423.725"/><path d="M124.138 56.361c-2.155 2.48-1.278 5.852.083 8.483.84 1.623 1.883 3.163 2.463 4.908.278.838.517 1.775.365 2.66-.212 1.23-1.186 1.393-2.25 1.073-.374-.112-.625.303-.474.617a.67.67 0 0 0 .715.41c.534-.043.539-.883 0-.839l.009.006-.474.616c1.482.446 2.943.059 3.277-1.613.337-1.686-.393-3.486-1.123-4.972-1.511-3.074-4.883-7.436-1.997-10.755.353-.406-.238-1.002-.594-.593"/><path d="M125.051 73.183c-.265.062-.473.247-.642.452s-.407.504-.254.789c.087.162.251.209.422.227a4 4 0 0 0 .468.02c.327-.004.655-.044.974-.115.117-.026.186-.162.156-.274-.034-.121-.157-.182-.274-.156a4.09 4.09 0 0 1-.72.096 4.18 4.18 0 0 1-.393-.001l-.181-.012c.009.001-.081-.008-.046-.005-.019-.002-.031-.007-.034-.01.008.014.02.025.026.043.003-.019.02-.077.007-.043.008-.022.02-.042.032-.062.05-.086.087-.127.156-.209a1.44 1.44 0 0 1 .211-.212c-.024.019.032-.02.031-.02l.06-.035c.042-.023.057-.027.121-.042.117-.027.187-.161.156-.274-.033-.12-.157-.183-.274-.156"/><path d="M124.994 73.441c.245.353.707.467 1.108.339.44-.14.738-.525.956-.912.141-.25-.244-.475-.385-.225-.085.15-.176.296-.287.418a1.45 1.45 0 0 1-.17.161c-.035.026-.073.05-.111.072l-.059.031c-.005.003-.052.022-.02.01-.036.013-.071.024-.108.033l-.044.01c-.065.014.036 0-.031.004l-.113.002-.045-.003c.037.003-.01-.001-.018-.003a.93.93 0 0 1-.107-.028c-.012-.004-.046-.019-.017-.006-.017-.007-.032-.016-.048-.025l-.046-.029c.025.017-.005-.003-.014-.012l-.038-.038c-.031-.03.008.015-.019-.024-.069-.099-.195-.144-.305-.08-.098.058-.149.206-.08.305"/><path d="M125.204 73.453a1.3 1.3 0 0 0 1.35.013c.389-.243.63-.699.604-1.157-.007-.12-.097-.223-.223-.223-.115 0-.23.102-.223.223.018.305-.125.611-.383.772-.276.173-.624.162-.9-.012-.102-.065-.246-.022-.305.08s-.022.241.08.305m-1.046 1.181c1.192.179 2.559.266 3.324-.858s.402-2.535-.193-3.639c-.136-.252-.521-.028-.385.225.513.952.854 2.152.227 3.138-.621.975-1.862.853-2.854.704-.28-.042-.402.387-.119.43m-21.815-17.44c.054.647.147 1.318.483 1.887.287.485.754.889 1.318.996.28.054.4-.376.119-.43-1.12-.213-1.395-1.496-1.474-2.454-.024-.284-.47-.286-.446 0"/><path d="M107.482 52.162c-1.494-.205-2.775.86-3.322 2.187-.327.794-.428 1.66-.454 2.512-.024.782-.101 1.697.347 2.381l.385-.225c-.416-.548-.611-1.211-.513-1.898l-.438-.059a9.61 9.61 0 0 0 .241 1.835c.056.242.455.194.438-.059l-.029-.419-.415.113a10.35 10.35 0 0 1 .659 1.159l.305-.305a1.98 1.98 0 0 1-.523-.407c-.196-.211-.51.105-.315.315a2.34 2.34 0 0 0 .613.476c.204.111.401-.107.306-.305a10.35 10.35 0 0 0-.659-1.159c-.113-.172-.431-.123-.415.112l.028.419.438-.059a8.99 8.99 0 0 1-.225-1.717c-.008-.238-.4-.319-.438-.059-.115.803.065 1.591.557 2.241.169.222.546.02.385-.225-.381-.581-.305-1.364-.29-2.03.016-.733.083-1.47.312-2.17.397-1.215 1.514-2.416 2.903-2.226.281.038.402-.391.119-.43m2.903 3.355c1.767-1.875 4.452.376 5.35 2.044 1.167 2.169 1.043 4.732.328 7.022-.412 1.32-1.022 2.548-1.664 3.768-.461.876-.793 1.725-.665 2.73.253 1.994 1.907 2.648 3.621 3.163.661.198.943-.834.284-1.032-.886-.266-2.03-.513-2.554-1.36-.722-1.168-.077-2.353.48-3.413 1.207-2.298 2.204-4.843 2.115-7.481-.074-2.194-.893-4.48-2.617-5.916-1.538-1.28-3.906-1.904-5.435-.281-.472.501.283 1.259.757.757M47.438 40.822a8.38 8.38 0 0 1 3.071-1.198c.369-.065.959-.205 1.288.047s.225.836.185 1.187c-.026.225.212.419.419.419.248 0 .394-.193.42-.419.066-.569.073-1.196-.315-1.661-.406-.487-1.07-.533-1.656-.464-1.365.162-2.675.624-3.835 1.363-.454.29-.034 1.016.424.725"/><path d="M49.91 39.086c.536.058 1.076-.06 1.61.007.403.05.762.229.887.637.127.414.078.88-.013 1.297-.102.464-.284.915-.592 1.281-.146.173-.17.423 0 .593.15.15.447.174.594 0 .402-.478.673-1.041.808-1.651.126-.574.192-1.233-.005-1.8a1.73 1.73 0 0 0-1.302-1.139c-.658-.145-1.323.006-1.986-.065-.226-.024-.419.21-.419.42 0 .247.193.395.419.419m6.933 1.311c-1.712 2.602-.839 6.855 2.257 7.954.51.181.73-.629.223-.809-2.601-.924-3.148-4.606-1.756-6.721.298-.453-.429-.873-.725-.424"/><path d="M56.306 46.45c-.563-2.328-.248-5.195 2.048-6.482.471-.264.048-.989-.424-.725-2.633 1.475-3.084 4.736-2.433 7.429.127.525.936.303.809-.223m18.827-11.052c-1.966 4.67-4.375 9.507-4.163 14.705.022.538.861.541.839 0-.209-5.112 2.199-9.889 4.133-14.482.21-.497-.602-.714-.809-.223"/><path d="M86.189 54.524c.196-.024.394-.023.59.004l-.112-.015c.085.012.168.028.251.049a.44.44 0 0 0 .323-.042.43.43 0 0 0 .193-.251c.025-.107.019-.228-.042-.323a.43.43 0 0 0-.251-.193c-.309-.078-.635-.106-.952-.068-.058-.002-.111.01-.162.036-.052.017-.097.046-.135.087a.43.43 0 0 0-.123.297c.004.105.041.221.123.296.076.07.189.136.297.123m-40.955-8.558l-.078.775-.038.381-.02.198c-.008.137.053.271.155.362.265.238.687.206.933-.046.226-.232.247-.549.286-.853l.111-.878a.42.42 0 0 0-.122-.297.43.43 0 0 0-.297-.123.43.43 0 0 0-.297.123c-.08.088-.108.18-.123.297l-.135 1.066.015-.111-.025.138c-.005.023-.013.044-.019.067-.02.075.049-.091 0-.007-.044.075.031-.034.013-.014-.054.06.064-.044.03-.022-.067.044.072-.017.035-.012-.02.002-.04.01-.061.013l.112-.015a.32.32 0 0 1-.069-.002l.112.015c-.044-.009-.061-.031.037.022.03.017.064.051.089.096l.057.212.14-1.382a.42.42 0 0 0-.123-.297c-.073-.073-.192-.128-.297-.123s-.221.04-.296.123-.111.18-.123.297m4.916-6.82c.515-.199 1.057-.355 1.554-.03.416.272.662.754.741 1.233.105.638-.044 1.292-.224 1.902a13.41 13.41 0 0 1-.681 1.819c-.223.488.5.915.725.424a14.22 14.22 0 0 0 .838-2.28c.201-.761.314-1.595.086-2.364-.18-.61-.577-1.177-1.131-1.5-.677-.396-1.432-.283-2.132-.012-.498.193-.282 1.005.223.809m-5.438-1.643c-.51.243-.895.718-1.065 1.252-.066.21.078.467.293.516a.43.43 0 0 0 .516-.293l.052-.143-.042.1c.055-.131.127-.253.213-.367l-.066.085a1.79 1.79 0 0 1 .31-.311l-.085.066c.093-.071.192-.132.297-.182.091-.043.167-.158.193-.251a.43.43 0 0 0-.042-.323c-.058-.09-.144-.168-.251-.193a.47.47 0 0 0-.323.042"/><path d="M45.429 37.777a4.1 4.1 0 0 0-1.109.792c-.156.155-.167.44 0 .593s.427.166.593 0a3.87 3.87 0 0 1 .36-.317l-.085.066a3.85 3.85 0 0 1 .665-.41c.09-.043.167-.157.193-.251a.43.43 0 0 0-.042-.323c-.057-.089-.144-.169-.25-.193a.47.47 0 0 0-.323.042m86.186 5.611c.92.496 1.763 1.44 2.518 2.171 1.296 1.253 2.452 2.636 3.551 4.063.589.764 1.723 1.821 1.963 2.724 1.088 1.047.738 1.416-1.051 1.105l-1.036-1.447-2.532-3.292-4.279-4.816c-.001-.028.008-.05.002-.079-.175-.991-.545-1.188.864-.429m-8.292 15.887l.242.187c.756.573 1.786 1.162 2.581.645.249-.162.451-.427.745-.472.32-.049.606.181.878.357 1.144.737 2.675.627 3.913.064s2.25-1.519 3.236-2.457l3.013-2.865c.394.431.822.782 1.298.975 2.113.857 2.903-1.119 2.158-2.75-.297-.649-.538-1.125-.964-1.845 1.203-.676.323-.077 1.281-.696.858-.555 1.772-1.041 1.719-2.271-.049-1.115-1.241-1.31-2.067-.917-1.757.835-.695.464-2.314 1.544-.025.016-.195-.091.002.18-.418-.599-2.346-2.602-2.816-3.189 1.404-.811.333-.091 1.628-1.054.694-.515 1.381-1.459.66-2.278-.803-.913-1.963-.101-2.744.365l-1.402.831c-.906-.954-1.368-1.245-2.867-2.005-2.177-1.104-2.547.346-2.125 1.988-.016.096.004.199.083.297l.037.117c-.866.907-1.953 1.608-3.025 2.277-1.366.851-2.772 1.719-3.743 3.003s-1.418 3.099-.667 4.522c.092.174.204.359.174.554-.036.227-.247.376-.412.537-.662.649-.639 1.766-.2 2.583a3.69 3.69 0 0 0 .438.629"/></g><g fill="#fff"><path d="M128.736 49.081c-1.392-.276-3.689.127-4.135 1.748-.182.66.163 1.286.709 1.648.75.498 1.69.369 2.53.243.248-.037.19-.45-.059-.438-.926.045-2.065.154-2.667.96-.629.842-.517 2.448.06 3.288s1.64 1.192 2.618 1.048c1.2-.176 2.216-.983 2.935-1.923.736-.962 1.204-2.1 1.562-3.25.38-1.22.802-2.647.352-3.906-.123-.346-.386-.69-.79-.489-.432.215-.603.971-.76 1.387a14.71 14.71 0 0 0-.898 4.103c-.089 1.209-.186 2.78.68 3.756.651.734 1.944.861 2.535-.005.162-.237-.224-.461-.385-.225-.554.812-1.704.254-2.068-.43-.447-.838-.383-1.93-.332-2.847.058-1.032.23-2.055.51-3.049a14.06 14.06 0 0 1 .448-1.339c.085-.218.171-.599.331-.769.324-.344.394.327.429.548.163 1.033-.158 2.097-.459 3.076-.266.866-.591 1.718-1.055 2.499-.888 1.49-2.825 3.189-4.645 2.146-.484-.277-.801-.721-.924-1.266-.127-.56-.173-1.354.086-1.882.422-.861 1.603-.944 2.438-.984l-.059-.438c-.65.097-1.403.219-2.015-.096-.602-.311-.904-.945-.534-1.562.654-1.09 2.308-1.346 3.445-1.12.28.055.4-.374.119-.43"/><path d="M128.741 49.525l.027-.012-.172.022c-.067-.026.043-.247-.035-.281-.03-.013-.087.001-.122.002l-.215.001-.497.004-.865.037c-.538.059-1.07.205-1.485.568-.354.309-.615.781-.587 1.261.029.488.34.894.751 1.138.568.337 1.249.324 1.887.298.286-.011.288-.457 0-.446-.547.022-1.147.056-1.639-.225-.404-.231-.654-.646-.51-1.112.352-1.133 1.825-1.07 2.766-1.077.243-.002.67.084.836-.147.183-.254-.105-.536-.365-.417s-.034.502.225.385"/><path d="M127.657 52.04c-.28.062-.565.026-.842-.035-.235-.052-.471-.117-.684-.231-.358-.191-.722-.612-.553-1.049.163-.42.786-.511 1.163-.601.575-.137 1.158-.226 1.747-.271.284-.021.287-.467 0-.446-.551.041-1.099.118-1.639.235-.445.096-.957.187-1.329.467s-.507.738-.37 1.179.491.761.909.943c.521.228 1.154.363 1.716.237.28-.062.162-.492-.119-.43"/><path d="M128.346 49.783c.47.191.841-.484.434-.787-.179-.133-.415-.134-.627-.103a6.14 6.14 0 0 0-.835.185 6.71 6.71 0 0 0-1.577.684c-.47.282-.815.682-.869 1.244-.055.577.272 1.135.778 1.404.253.135.479-.25.225-.385-.372-.198-.61-.592-.557-1.02.063-.512.48-.776.897-1a6.29 6.29 0 0 1 1.374-.54c.224-.059.46-.123.691-.141.072-.006.18-.015.241.033.012.009.016-.018-.004-.009-.038.019.024.038-.054.006-.266-.108-.381.323-.119.43m-.756 2.519a8.73 8.73 0 0 0-1.253.419c-.318.134-.614.302-.817.588-.437.617-.485 1.589-.301 2.298.173.664.622 1.271 1.256 1.554.697.312 1.562.224 2.272-.003.805-.257 1.526-.744 2.056-1.402.179-.221-.135-.539-.315-.315-.51.632-1.194 1.099-1.977 1.323-.769.22-1.712.265-2.325-.331s-.72-1.52-.524-2.324c.104-.427.297-.716.698-.914.424-.208.892-.347 1.348-.464.278-.071.16-.501-.119-.43"/><path d="M127.72 52.212c-1.137.327-2.153 1.114-2.316 2.353-.145 1.097.533 2.223 1.635 2.484 1.208.286 2.763-.272 3.698-1.039 1.051-.861 1.54-2.291 1.97-3.535.48-1.387.685-2.999-.217-4.265-.165-.232-.552-.01-.385.225.889 1.248.582 2.8.093 4.141-.482 1.324-1.004 2.742-2.3 3.466-1.128.629-3.014 1.104-3.82-.229-.365-.605-.315-1.383.038-1.98.373-.633 1.036-.993 1.722-1.191.275-.079.158-.509-.119-.43"/><path d="M132.356 47.936c-1.872.004-2.251 2.115-2.296 3.569-.058 1.849-.082 3.758.763 5.454.128.257.513.031.385-.225-.716-1.437-.754-3.058-.719-4.63.029-1.282.023-3.719 1.867-3.723.286-.001.287-.446 0-.446"/><path d="M133.083 56.934c-.662.263-1.235-.27-1.561-.794-.382-.615-.646-1.302-.815-2.005l-.43.119c.392 1.115.213 2.535 1.308 3.288.187.129.416-.122.305-.305l-.384-.633-.305.305c.349.219.537.666.997.693.261.015.501-.135.713-.27.237-.151.458-.326.661-.52l-.38-.157c-.017.173-.177.314-.347.324-.285.016-.287.461 0 .446.429-.023.752-.346.792-.769.019-.203-.251-.28-.381-.158-.17.161-.351.308-.548.435-.14.091-.347.258-.525.22-.143-.03-.253-.167-.348-.267-.127-.133-.253-.262-.41-.361-.19-.119-.419.117-.305.305l.384.634.305-.305c-.416-.286-.616-.783-.73-1.257-.14-.586-.173-1.192-.373-1.764-.095-.268-.498-.163-.43.119.192.796.502 1.613.976 2.286.428.609 1.18 1.13 1.949.824.264-.105.149-.536-.119-.43"/><path d="M131.876 48.07c-1.814 1.985-1.625 4.789-1.373 7.273.029.283.475.286.446 0-.239-2.347-.48-5.073 1.242-6.957.193-.212-.121-.528-.315-.315"/><path d="M131.034 56.747c-.778-1.133-.833-2.656-.689-3.981.152-1.397.637-2.738 1.388-3.924.154-.243-.232-.467-.385-.225a9.71 9.71 0 0 0-1.45 4.149c-.151 1.397-.069 3.012.75 4.206.161.235.548.012.385-.225m.981-8.244c.128-.077.29 0 .378.108.132.163.153.4.167.602a9.34 9.34 0 0 1-.034 1.629c-.012.12.112.223.223.223.131 0 .21-.103.223-.223.068-.643.108-1.335-.007-1.976-.049-.279-.178-.545-.418-.708a.71.71 0 0 0-.758-.04c-.246.147-.022.533.225.385"/><path d="M133.019 50.265a5.31 5.31 0 0 0-.085-1.42c-.062-.311-.123-.846-.48-.964-.301-.1-.665.11-.9.279-.274.196-.498.453-.676.738-.419.67-.604 1.471-.716 2.244-.138.951-.131 1.905.004 2.855.04.283.47.163.43-.119-.195-1.372-.133-2.907.388-4.206.206-.512.529-1.019 1.035-1.275.204-.103.314-.09.382.142.051.175.093.352.124.532.068.395.078.794.049 1.194-.02.286.425.285.446 0"/><path d="M132.424 47.874c-1.388-.253-2.249 1.056-2.439 2.261-.249 1.573-.172 3.245-.059 4.827.02.284.466.286.446 0-.097-1.348-.114-2.704-.024-4.052.042-.625.122-1.281.458-1.825.311-.504.89-.892 1.5-.781.28.051.401-.379.119-.43"/><path d="M130.267 49.48c-.576 1.735-.781 3.601-.538 5.417.095.716.295 1.468.81 2.003.48.499 1.192.753 1.866.546.273-.084.157-.515-.119-.43-.731.225-1.415-.251-1.75-.883-.332-.624-.4-1.372-.44-2.065a11.97 11.97 0 0 1 .601-4.47c.09-.273-.34-.39-.43-.119m-1.838.075c.022.041.025.084.041.124-.006.029.007.05.04.066.093.086.037.096-.171.03-.117.18.123.436.305.305.377-.271.32-.831-.042-1.095-.444-.325-1.117-.151-1.606-.037-1.047.243-2.074.892-2.223 2.04-.016.12.114.222.223.223.133.001.207-.104.223-.223.101-.78.827-1.285 1.521-1.507.374-.12.788-.219 1.183-.229.158-.004.367.009.473.145.052.067.112.235.024.298l.305.305c.133-.204.023-.517-.226-.564-.26-.05-.441.208-.374.446.073.26.373.335.586.195.261-.172.235-.501.105-.746-.134-.254-.519-.029-.385.225"/><path d="M127.633 49.904c.215-.079.477.178.685.229.282.068.563-.058.669-.334a.66.66 0 0 0-.264-.779c-.313-.214-.693-.173-1.044-.097-.769.167-1.613.317-2.31.698-.578.316-1.059.921-.958 1.613.103.71.781 1.198 1.448 1.327.28.054.4-.376.119-.43-.539-.104-1.175-.509-1.135-1.134.047-.717.812-1.07 1.405-1.254l1.158-.301c.307-.071.822-.278 1.094-.035.068.061.142.219.033.287-.089.055-.237-.044-.314-.083-.221-.113-.454-.229-.705-.137-.267.098-.152.529.119.43m.225 2.521c.17 0 .17-.265 0-.265s-.17.265 0 .265"/><path d="M127.907 52.618c.17 0 .17-.265 0-.265s-.17.265 0 .265m.483-3.008l-1.645-.064c-.121-.005-.223.106-.223.223 0 .125.102.218.223.223l1.645.064c.121.005.223-.106.223-.223 0-.125-.102-.218-.223-.223"/><path d="M128.773 49.569c-.099-.603-.808-.786-1.326-.788-.703-.002-1.371.273-1.993.575-.498.242-1.076.558-1.154 1.166-.08.628.37 1.26.793 1.678.204.201.52-.114.315-.315-.316-.311-.726-.82-.671-1.297.053-.45.587-.675.941-.847.486-.236 1.008-.459 1.553-.506.361-.03 1.035-.015 1.111.452.047.283.476.163.43-.119"/></g><path d="M123.788 7.605L50.148 0c-1.221 8.083-2.117 14.151-2.725 22.307 16.958 2.659 56.038 3.944 75.518 6.481-.87-7.121.528-13.891.847-21.182" fill="#e4252e"/><path d="M51.055 3.563l36.204 3.418 17.544 1.766 8.769.91 4.06.291c-.176-.016-.199.192-.022.207l3.633.313c.176.015.199-.188.022-.207L51.077 3.356c-.176-.016-.199.191-.022.207m69.043 22.711c-23.277-3.145-46.648-4.172-69.997-6.645-.177-.019-.205.187-.028.206 23.349 2.472 46.72 3.5 69.997 6.645.176.024.205-.182.028-.206" fill="#fac709"/><g fill="#3d2758"><path d="M78.077.622l-.325 3.199c-.006.054.036.111.093.115 4.205.224 8.39.619 12.562 1.187.058.008.106-.038.114-.093.196-1.229.303-2.433.325-3.678.001-.053-.032-.113-.092-.114-4.084-.125-8.178.627-12.172-.538-.128-.037-.205.156-.076.194 2.152.628 4.288.739 6.522.676 1.158-.032 2.707-.336 3.809-.15.804-.228 1.399.05 1.786.835a19.85 19.85 0 0 1-.162 1.841c-1.009 1.507-6.129.094-7.75-.042-1-.084-2.993.164-3.874-.273-1.269-.629-.665-2.025-.552-3.136.013-.133-.194-.155-.207-.022"/><path d="M78.355.851c.155.191.332.391.46.603a.72.72 0 0 1 .205.513c.108.192.09.367-.054.523-.146.445-.482.9-.704 1.314l.401.098a15.08 15.08 0 0 1 .136-2.21c.031-.227-.338-.327-.401-.098a9.5 9.5 0 0 0-.269 1.346l.414.043.114-1.728c.018-.268-.377-.31-.414-.044-.061.433-.061.839-.005 1.272.03.229.407.226.413-.012L78.615.953l-.395.12.592 1.106c.107.199.442.123.395-.12a1.91 1.91 0 0 0-.37-.835c-.132-.176-.386-.03-.367.165l.137 1.365c.027.27.428.196.411-.068-.033-.52-.129-1.005-.284-1.5-.054-.171-.331-.151-.384.01-.18.552-.243 1.093-.2 1.672.018.232.41.223.413-.012l.019-1.632c.002-.219-.32-.336-.401-.098a3.35 3.35 0 0 0-.123 1.798.21.21 0 0 0 .412-.012l.045-.307-.415-.043-.056 1.293.331-.146-.185-.119c-.119-.077-.256-.034-.317.092-.11.228-.125.405.084.559.059.043.143.054.209.022.24-.115.309-.355.43-.585l.795-1.512c.125-.237-.265-.387-.388-.152l-.489.931-.244.465c-.161.146-.163.288-.009.425l-.317.092.185.119c.124.08.323.022.33-.146l.057-1.294c.012-.267-.376-.31-.415-.043l-.044.307.413-.012c-.11-.555-.081-1.045.101-1.578l-.401-.098-.019 1.632.413-.012a3.67 3.67 0 0 1 .177-1.452l-.384.01a5.91 5.91 0 0 1 .252 1.397l.411-.068-.137-1.365-.367.165a1.15 1.15 0 0 1 .283.641l.395-.12-.592-1.106c-.114-.213-.412-.116-.395.12l.034 1.406.412-.012c-.051-.394-.047-.768.008-1.16l-.414-.044-.115 1.729c-.017.267.381.311.414.043.053-.422.13-.826.243-1.237l-.401-.098c-.099.735-.145 1.468-.136 2.209.003.24.288.309.401.098l.586-1.095c.125-.234.336-.502.346-.781.019-.514-.616-1.133-.904-1.49-.169-.208-.492.054-.324.262"/><path d="M78.211 4.146c.237.272.583.33.938.276.504-.076.668-.46.923-.861l.575-.907c.093-.147.345-.415.35-.619.003-.136-.037-.151-.109-.26-.217-.325-.564-.488-.77-.859a.21.21 0 0 0-.38.172c.09.253.204.407.398.589.156.147.398-.077.313-.254-.283-.588-.79-.872-1.435-.841-.245.012-.207.377.013.413.365.059 1.122.066 1.389.358.117.128.126.29.273.417.157.135.409-.073.313-.254a1.84 1.84 0 0 0-.596-.683c-.139-.097-.374.018-.329.202a1.96 1.96 0 0 0 1.042 1.334c.146.079.304-.086.282-.228-.075-.487-.261-.87-.608-1.22-.159-.162-.451-.013-.351.217a3.45 3.45 0 0 0 .672 1.024c.13.138.42.053.367-.165-.11-.453-.299-.826-.612-1.171a.21.21 0 0 0-.324.262 13.67 13.67 0 0 1 1.076 1.749l.351-.217-.6-.772c-.157-.201-.416.006-.352.217a3.42 3.42 0 0 0 .299.697l.352-.217a2.02 2.02 0 0 0-.732-.673c-.102-.056-.282-.054-.318.092-.099.404.031 1.116.609.779l-.254-.313-.569.83c-.152.221.179.465.336.247.202-.283.423-.534.681-.767l-.325-.238-.113.395c-.063.222.208.392.362.199l.013-.122c.017.144.171.197.291.156l.169-.059-.254-.313c-.295.407-.697 1.091-1.178 1.226-.489.138-1.237-.089-1.757-.103-.264-.007-.314.388-.043.414.486.048 1.263.215 1.73.01.374-.164.55-.756.727-1.084.11-.204-.174-.336-.325-.238-.183.12-.329.237-.485.39l.325.238.252-.649c.069-.18-.174-.394-.325-.238l-.543.56.299.285.49-.605c.169-.209-.166-.452-.336-.247l-.641.778c-.153.186.117.428.299.285l.781-.615-.321-.076.084.333c.016.145.172.195.291.156.133-.037.26-.086.382-.15l-.254-.313c-.349.408-.801.583-1.328.538-.266-.023-.311.391-.043.414.687.059 1.262-.185 1.707-.705.14-.163-.073-.395-.253-.313a1.99 1.99 0 0 1-.382.15l.291.156c-.026-.232-.025-.221-.115-.436-.053-.126-.218-.157-.321-.076l-.781.615.299.285.641-.778-.336-.247-.49.605c-.146.181.133.457.299.285l.543-.56-.325-.238-.252.649c-.071.183.17.389.325.238s.303-.27.485-.389l-.325-.238c-.236.439-.368.806-.967.875-.337.039-.723-.03-1.059-.063l-.043.414a10.04 10.04 0 0 1 1.293.113c.27.042.514.123.77.002.502-.239.938-.973 1.251-1.406.13-.18-.065-.379-.254-.313l-.168.059.291.156c-.056-.481-.546-.325-.76-.056l.362.199.113-.395c.052-.183-.157-.391-.325-.238a5.2 5.2 0 0 0-.754.845l.336.247.569-.83c.109-.158-.062-.424-.254-.313l-.049-.247-.318.092a1.8 1.8 0 0 1 .656.6c.131.194.468-.011.351-.217a3.44 3.44 0 0 1-.299-.697l-.352.217.6.772c.143.184.462-.004.352-.217-.332-.642-.708-1.253-1.131-1.839l-.324.262a2.11 2.11 0 0 1 .525.978l.367-.165a3.18 3.18 0 0 1-.616-.933l-.352.217c.296.3.457.61.52 1.026l.282-.228c-.418-.223-.67-.556-.783-1.014l-.329.202a1.1 1.1 0 0 1 .463.519l.313-.254c-.189-.163-.173-.438-.401-.582C80.163.616 79.489.648 79.07.58l.012.412c.445-.022.799.212.987.601l.313-.254-.265-.425-.38.172c.125.225.26.435.438.623.262.275.332.31.134.697-.226.445-1.151 2.194-1.776 1.477-.176-.202-.5.059-.324.262"/><path d="M78.189 4.385c3.979.088 7.942.349 11.899.784.266.029.31-.385.043-.415-3.956-.434-7.92-.695-11.898-.783-.266-.006-.312.408-.043.414"/><path d="M82.924.876c.101.288.224.563.397.816.079.115.616.569.623.665.034.466-1.312 1.212-1.638 1.545-.142.145-.055.393.165.368a6.55 6.55 0 0 1 1.376-.03c.235.022.573.127.812.024.442-.191.281-.818.277-1.193a.21.21 0 0 0-.338-.183c-.337.223-.624.477-.896.775l.336.247.441-.745c.121-.204-.098-.422-.299-.285-.313.213-.578.457-.823.745l.336.247.609-.848c.135-.189-.116-.443-.299-.285a9.22 9.22 0 0 0-.959.955l.336.247 1.18-1.547-.362-.199a8.59 8.59 0 0 0-.353 1.445c-.034.219.25.29.375.145.279-.325.483-.658.651-1.051l-.388-.152-.324 1.171c-.065.212.225.41.362.199.143-.219.279-.394.469-.581l-.325-.238c-.08.289-.179.56-.303.833-.097.212.236.4.362.199a7.06 7.06 0 0 1 .821-1.068l-.336-.246c-.283.378-.537.748-.727 1.181-.097.223.219.38.362.199l1.122-1.413-.336-.247-1.011 1.488.335.247 1.078-1.72c.159-.317.174-.509-.073-.776-.402-.436-.972-.966-1.491-1.257-.416-.233-.83-.156-1.273-.032-.145.041-.236.206-.128.337l1.268 1.389c.151.151.486.002.352-.217L84.031.957c-.116-.189-.436-.132-.395.12.098.619.371 1.107.83 1.529.145.134.346-.04.329-.202a2.15 2.15 0 0 0-.601-1.308c-.185-.194-.479.042-.323.262a4.3 4.3 0 0 0 .999 1.018c.142.104.366-.022.329-.202a1.96 1.96 0 0 0-.861-1.3c-.147-.099-.361.018-.329.202.101.581.283 1.106.568 1.623.075.137.256.168.357.038.199-.256.252-.478.179-.795-.039-.171-.262-.239-.373-.089a1 1 0 0 0-.136 1.046c.062.161.259.142.358.037.214-.228.346-.446.454-.738l-.401-.098-.033.392c-.017.195.19.275.338.183.784-.485-.08-1.203-.492-1.542-.187-.154-.425.116-.285.299.147.192.291.328.492.465s.416-.106.285-.299c-.28-.413-.596-.757-.975-1.079-.154-.131-.418.074-.313.254l.358.614.313-.254c-.199-.129-.363-.282-.526-.455l-.285.299.813.655c.116.093 1.183.836.633 1.074-.246.107-.075.486.171.38 1.393-.602-.984-2.132-1.371-2.444-.182-.146-.448.125-.285.299.189.202.37.378.603.529.158.102.427-.059.313-.254l-.358-.614-.313.254c.352.299.641.625.898 1.005l.285-.299c-.17-.095-.309-.225-.416-.392l-.285.299c.149.122.896.622.476.882l.338.184.033-.392c.019-.23-.318-.323-.401-.098a1.81 1.81 0 0 1-.402.643l.358.038.092-.628-.374-.089-.104.48.358.037c-.266-.483-.441-.975-.537-1.519l-.328.202c.384.26.603.575.696 1.033l.329-.202a3.97 3.97 0 0 1-.922-.944l-.323.262a1.77 1.77 0 0 1 .514 1.114l.329-.202a2.08 2.08 0 0 1-.666-1.262l-.395.12.657 1.073.351-.217-1.268-1.39-.128.337c.78-.218 1.661.259 2.131.927.487.693-.378 1.607-.776 2.2-.149.223.185.469.335.247l1.011-1.488c.151-.222-.169-.457-.336-.247l-1.121 1.414.362.199c.175-.398.416-.741.675-1.087.165-.22-.158-.437-.336-.246-.31.332-.579.683-.822 1.068l.362.199c.124-.273.223-.544.303-.833.049-.177-.161-.4-.325-.238-.207.204-.383.414-.543.658l.362.199.324-1.171c.064-.253-.279-.406-.388-.152-.153.358-.347.663-.599.956l.375.145a7.94 7.94 0 0 1 .326-1.337c.074-.221-.215-.392-.362-.199l-1.18 1.547c-.165.216.162.446.336.247.275-.316.568-.605.885-.878l-.299-.285-.609.848c-.158.22.164.449.336.247a3.61 3.61 0 0 1 .749-.669l-.299-.285-.441.745c-.138.232.155.445.336.247.251-.276.513-.494.822-.699l-.338-.183c.001.096.063.667.008.741-.139.191-.592.058-.77.045-.454-.034-.906-.008-1.358.045l.165.368c.474-.485 1.617-.987 1.772-1.721a.42.42 0 0 0-.083-.408c-.122-.187-.346-.314-.487-.494-.213-.273-.354-.575-.467-.9-.088-.253-.467-.08-.38.172"/><path d="M85.444 2.342a.88.88 0 0 0-.383.423l.384-.01-.011-.02-.059.248-.098.029-.184-.173c-.069-.007-.125.022-.167.086-.214.163.049.486.262.323.181-.137.327-.243.316-.478-.005-.098-.101-.154-.184-.173s-.149.006-.208.061-.104.164-.059.248l.011.02c.087.159.307.158.383-.01l.167-.196c.226-.138.058-.519-.171-.38m1.944-1.091c.207.231.558.513.692.792.216.137.231.306.044.506l-.221.276a13.51 13.51 0 0 1-1.35 1.409c-.105.096-.106.31.055.356.433.123.973.24 1.33-.096.456-.429.776-1.094 1.054-1.648.098-.195-.172-.357-.325-.238a14.83 14.83 0 0 0-1.816 1.673l.336.247a13.52 13.52 0 0 1 1.344-1.457l-.262-.324a5.63 5.63 0 0 0-1.009 1.318c-.084.153.006.358.202.329.653-.097 1.131-1.017 1.523-1.481l-.336-.246a18.16 18.16 0 0 0-1.268 1.718c-.146.224.185.47.335.247a9.21 9.21 0 0 1 1.427-1.658l-.262-.324a8.09 8.09 0 0 0-.961 1.173c-.15.222.17.458.336.246L89 3.114c.156-.199.411-.428.423-.695.021-.434-.433-.745-.78-.895-.134-.058-.328.074-.282.228.078.26.164.505.273.754.094.215.438.114.395-.12a1.45 1.45 0 0 0-.406-.812c-.094-.099-.315-.111-.356.055a.77.77 0 0 0 .254.856c.134.124.366-.034.328-.202A1.91 1.91 0 0 0 87.645.856l-.152.388c.296.083.752.129.984.326.224.191.322.596.439.866.077.178.4.149.397-.064a1.32 1.32 0 0 0-.471-1.054c-.165-.151-.383.078-.313.254.181.455.71.595.431 1.154-.245.491-.746.955-1.099 1.373-.174.206.163.45.335.247l.814-1.001c.178-.228.475-.509.533-.809.1-.523-.468-.715-.635-1.136l-.313.253.303.675.397-.064c-.133-.309-.242-.814-.51-1.041-.283-.24-.797-.272-1.14-.368-.253-.071-.406.286-.152.388.502.201.827.575.944 1.107l.329-.202-.113-.368-.356.055a.91.91 0 0 1 .318.618l.395-.12a4.07 4.07 0 0 1-.241-.651l-.282.228c.214.092.52.296.472.574-.025.145-.286.365-.373.477l-.671.859.336.246a7.58 7.58 0 0 1 .887-1.096c.183-.187-.06-.508-.262-.324a9.63 9.63 0 0 0-1.501 1.735l.335.247a18.22 18.22 0 0 1 1.268-1.719c.172-.207-.164-.45-.336-.246-.261.309-.832 1.253-1.255 1.316l.202.329a5.25 5.25 0 0 1 .936-1.241c.189-.185-.064-.508-.262-.324a14.26 14.26 0 0 0-1.417 1.534c-.171.214.159.439.336.247a14.23 14.23 0 0 1 1.743-1.595l-.325-.238a8.46 8.46 0 0 1-.618 1.051c-.346.497-.607.633-1.226.456l.055.356c.608-.554 1.421-1.237 1.801-1.973.309-.599-.549-1.199-.904-1.595-.179-.199-.503.062-.323.262"/><path d="M89.634 4.728l.757-1.107c.178-.261.425-.534.462-.861.066-.574-.397-1.121-.813-1.451-.211-.167-.454.168-.246.336.487.394 1.082.899.755 1.607-.168.364-.515.643-.731.981l.375.145c.019-.309.137-.567.373-.772l-.299-.285c-.268.314-.467.642-.628 1.021-.061.143.074.314.228.282l.159-.034c.261-.055.195-.467-.068-.411l-.159.034.228.282c.147-.347.333-.642.576-.926.154-.18-.122-.439-.299-.285a1.43 1.43 0 0 0-.525 1.052c-.012.193.258.329.375.145.338-.529.941-.956.919-1.644-.022-.67-.552-1.136-1.034-1.526l-.246.336c.571.453.774.978.324 1.637l-.82 1.199c-.151.221.184.468.336.247"/><path d="M89.691 4.968c.359.05 1.18.278 1.463-.048.343-.396.165-1.462.119-1.951-.023-.246-.374-.207-.412.013-.089.513-.231.991-.431 1.469l.4.042.059-.538c.095-.251-.293-.403-.388-.152a2.95 2.95 0 0 0-.181.759c-.019.185.196.289.338.183.291-.216.332-.511.395-.853.117-.635.187-1.276.231-1.919.018-.266-.388-.312-.414-.043l-.217 2.232c-.026.27.367.304.414.043a18.32 18.32 0 0 0 .292-2.792c.004-.145-.099-.236-.241-.227-.185.019-.368.013-.55-.02l.013.413c.13-.036.146 1.184.149 1.323.005.264.42.311.414.043-.008-.439.231-2.016-.631-1.778-.217.06-.235.382.012.413a3.4 3.4 0 0 0 .661.016l-.241-.227a18.32 18.32 0 0 1-.292 2.792l.414.043.217-2.232-.414-.043-.123 1.237c-.049.359-.046 1.029-.352 1.255l.338.184a1.7 1.7 0 0 1 .155-.651l-.388-.152a1.36 1.36 0 0 0-.081.758c.03.208.322.227.399.042.216-.515.362-1.029.457-1.578l-.412.012c.03.321.159 1.056-.004 1.383-.189.379-.796.18-1.123.134-.266-.037-.309.377-.043.414"/><path d="M89.754 4.934c.502.14 1.625.605 1.844-.096.178-.572.097-1.399.1-1.988l-.06-1.761c-.018-.267-.429-.198-.411.068l.041 2.36c-.009.252.06.775-.059.994-.242.446-.948.134-1.302.035-.256-.071-.41.316-.152.388M78.849.606c1.479.199 2.931.002 4.414.067 1.402.062 2.796.318 4.183.518.095.013.11-.134.016-.147L83.279.526c-1.477-.063-2.941.131-4.414-.067-.095-.013-.11.134-.016.147"/><path d="M88.064.783L83.397.1c-1.5-.092-2.94.411-4.446.327-.189-.011-.221.284-.031.294 1.412.078 2.763-.345 4.17-.319 1.645.032 3.318.425 4.943.675.188.029.219-.265.031-.294"/><path d="M87.492.79C85.844.191 84.274.084 82.526.119c-.187.004-.223.26-.031.294l4.748.954c.175.036.206-.215.069-.285a7.09 7.09 0 0 0-1.706-.608l-.031.294c.471.081.932.188 1.391.324l.069-.285c-.643-.06-1.252-.531-1.885-.409-.187.036-.139.328.048.292.512-.099 1.253.359 1.805.411.16.015.234-.236.069-.285a12.66 12.66 0 0 0-1.467-.343c-.191-.032-.212.254-.031.294.587.131 1.098.319 1.63.589l.069-.285-4.749-.954-.031.294c1.711-.034 3.266.064 4.888.653.179.065.287-.211.108-.276"/><path d="M83.341.112l-.876.038c-.203.009-.235.346-.042.4.494.137.899.392 1.228.787l.323-.262a4.28 4.28 0 0 0-.881-.766c-.205-.134-.414.103-.285.299a4.6 4.6 0 0 0 .639.772c.187.182.504-.055.324-.262L82.944.17c-.156-.178-.443-.005-.352.217.266.645.703 1.178 1.284 1.564.223.148.471-.187.247-.336A3.02 3.02 0 0 1 82.972.216l-.351.217.827.947.324-.262a4.6 4.6 0 0 1-.639-.772l-.285.299a3.89 3.89 0 0 1 .803.693c.177.201.496-.055.323-.262a2.74 2.74 0 0 0-1.399-.913l-.042.399.876-.038c.267-.012.197-.423-.068-.411m3.557.614a21.45 21.45 0 0 1 1.475 1.776c.16.216.483-.047.323-.262-.46-.619-.951-1.21-1.474-1.776-.182-.196-.507.065-.324.262m-6.835.283l1.049.86c.118.09.449.247.51.375.159.331-.264.625-.464.802l.299.285a4.5 4.5 0 0 0 .522-.856l-.401-.098a.55.55 0 0 1-.157.424l.362.199c.321-.687.277-1.156-.132-1.79-.145-.225-.387-.733-.663-.823-.121-.04-.48.15-.474.153-.236-.126-.386.263-.152.388.112.06.169.038.29.018.037-.006.079-.063.109-.064.154-.007.174.052.294.195a3.31 3.31 0 0 1 .448.698c.18.385.059.716-.108 1.074-.102.219.222.382.362.199a1.08 1.08 0 0 0 .236-.627c.015-.238-.301-.31-.401-.098a3.94 3.94 0 0 1-.47.761c-.144.185.12.443.299.285.324-.285.966-.84.607-1.317-.173-.23-.514-.399-.741-.573L80.31.674c-.202-.177-.447.16-.247.336"/></g><g fill="#fff"><path d="M79.03 1.071c.125.203.282.423.361.649.123.353-.001.495-.14.8-.169.371-.432.772-.49 1.178-.01.069.026.151.084.189a.32.32 0 0 0 .434-.021c.079-.065.161-.286.201-.365a5.5 5.5 0 0 1 .501-.806c.162-.218.361-.404.29-.695-.093-.385-.458-.729-.621-1.096l-.351.217.485.713c.149.266.231.388.091.682-.201.421-.54.815-.796 1.202-.148.223.187.47.336.247l.625-.944c.131-.198.347-.432.401-.67.04-.176-.006-.27-.092-.422-.209-.37-.488-.717-.727-1.069-.135-.199-.446.006-.352.217a4.67 4.67 0 0 0 .288.558c.206.335.277.446.087.815-.12.233-.308.442-.435.675l-.117.226c.134.209.219.197.255-.037.152-.155.243-.533.335-.733.081-.177.223-.393.231-.594.015-.361-.323-.797-.502-1.087-.138-.225-.52-.057-.38.171m2.302-.159l.459.762c.09.15.349.447.345.621s-.278.448-.379.593l-.507.724c-.098.14-.006.297.146.331.24.052.676.244.916.144.191-.079.309-.327.437-.476.272-.318.639-.487.923-.776.124-.126.184-.226.136-.421-.052-.209-.257-.384-.377-.556-.216-.31-.334-.785-.581-1.058-.273-.302-.869-.129-1.226-.11-.188.01-.22.274-.089.373.497.379.818.878 1.135 1.408.11.183.46.13.395-.12a3.93 3.93 0 0 0-.492-1.131c-.132-.207-.435.007-.352.217a8.34 8.34 0 0 0 .412.879c.096.176.372.151.397-.064s.024-.215-.012-.425c-.034-.199-.328-.238-.4-.042a11.96 11.96 0 0 1-.77 1.705c-.117.213.223.379.362.199.121-.156.206-.305.283-.485.092-.218-.224-.391-.362-.199a1.92 1.92 0 0 1-.27.333l.362.199.187-.253c.204-.175-.058-.498-.262-.324-.148.127-.235.246-.312.424-.1.231.213.364.362.199.102-.101.192-.212.27-.333l-.362-.199a1.14 1.14 0 0 1-.231.391l.362.199a11.92 11.92 0 0 0 .771-1.705l-.399-.042.008.313.397-.064a8.17 8.17 0 0 1-.412-.879l-.351.217c.188.299.315.595.404.937l.395-.12c-.353-.589-.715-1.151-1.268-1.572l-.089.373c.198-.011.544-.098.732-.028s.209.238.311.434l.266.455c.075.116.325.343.336.459.025.275-.556.553-.756.759-.093.095-.183.258-.292.336-.082.184-.21.221-.384.113l-.466-.102.146.33.634-.905c.119-.17.325-.374.355-.592s-.126-.398-.232-.574l-.63-1.048c-.137-.227-.518-.058-.38.172m3.566-.015l.536.805c.111.167.368.418.402.604.058.319-.193.519-.36.741l-.561.822c-.065.103-.047.278.092.317.289.083.677.28.985.235.223-.032.446-.282.608-.413.401-.325 1.308-.859 1.377-1.433.054-.443-.485-1.142-.776-1.417-.43-.407-1.312-.421-1.864-.542-.173-.038-.303.213-.183.338l.804.839c.362.382.421.742.181 1.223l.401.098c.054-.56.349-1.476-.089-1.942-.164-.175-.431-.008-.352.217a1.3 1.3 0 0 0 .724.793c.178.087.322-.125.266-.28a1.5 1.5 0 0 0-.255-.451l-.076.321.212-.049-.228-.282c-.167.505-.389 1.336-.797 1.663-.292.234-.475.273-.442.718.015.199.266.206.373.089.176-.189.153-.161.253-.398.107-.253-.267-.384-.388-.152-.247.474.404.784.524.325l-.356.055-.019-.028c-.121.24.268.389.388.152l.047-.093c.034-.068.008-.15-.032-.207l-.06-.086c-.084-.12-.316-.095-.356.055l.252-.021-.388-.152-.201.304.374.089c.006.073.557-.623.582-.669a9.08 9.08 0 0 0 .634-1.491c.054-.163-.068-.289-.228-.282s-.168.011-.315.081a.21.21 0 0 0-.076.321.82.82 0 0 1 .199.36l.266-.28c-.27-.123-.436-.315-.496-.577l-.352.217c.283.302.034 1.272-.002 1.637-.023.244.3.301.401.097.176-.353.344-.755.161-1.141-.237-.5-.832-.94-1.211-1.336l-.184.338 1.13.247c.485.109 1.131.713 1.023 1.253-.08.4-.527.669-.835.928-.491.413-.809.523-1.452.34l.092.317c.244-.386.503-.76.791-1.116.131-.162.337-.333.336-.56-.001-.205-.249-.442-.352-.597L85.225.63c-.149-.223-.471.041-.324.262"/><path d="M85.63 4.211c.268.105.551.309.824.164.386-.205.874-.752 1.117-1.12.138-.21.507-.62.499-.874-.012-.353-.545-.834-.755-1.097-.167-.21-.491.052-.323.262.155.194.516.525.573.762l.084.059a.99.99 0 0 0-.155.2c-.08.118-.136.249-.212.37-.182.287-.43.509-.677.739-.069.065-.282.349-.381.356-.075.006-.36-.177-.44-.209-.25-.098-.402.29-.152.388m3.376-2.619c.092.186.295.452.327.662.054.355-.205.555-.4.805l-.942 1.23c-.092.122-.012.322.146.331.404.021.939.182 1.23-.17.416-.506.634-1.193 1.016-1.731.268-.378.108-.51-.156-.876-.154-.214-.3-.504-.559-.611-.188-.077-.367-.02-.566-.032-.215-.013-.299.24-.145.375.83.727.2 1.804-.401 2.426-.182.188.042.489.262.323l.311-.234-.325-.238-.132.295c-.137.227.189.474.336.247a4.52 4.52 0 0 1 .313-.429c.17-.207-.166-.453-.336-.247-.115.14-.216.277-.313.429l.336.247c.105-.175.119-.196.184-.389a.21.21 0 0 0-.325-.238l-.312.234.262.323c.81-.839 1.441-2.161.386-3.086l-.145.375c.397.024.611.171.845.491.116.158.189.205.144.367-.032.113-.245.331-.304.428-.139.226-.253.467-.376.702-.317.61-.566.636-1.186.603l.146.331.723-.948c.216-.279.59-.616.735-.938.182-.403-.222-.872-.398-1.229-.118-.24-.498-.07-.38.171"/><path d="M88.629 1.335l.723 1.311c.128.233.509.064.38-.171l-.723-1.311c-.128-.233-.509-.064-.38.171"/><path d="M88.866 1.453l.376.053c.349.065.424.171.609.447.095.143.436.567.431.733-.005.149-.525.563-.635.681l-.793.852c-.183.196.155.44.336.247l1.27-1.363c.206-.231.291-.301.198-.598-.085-.276-.34-.577-.488-.826-.067-.113-.135-.277-.237-.365-.247-.217-.713-.238-1.023-.274-.266-.031-.31.383-.043.414M59.045 9.645l-2.251-.236-.811 7.738-2.391-.25.811-7.739-2.251-.236.236-2.251 6.894.722zm4.103 3.759c.01-.369-.391-.752-1.094-.826s-1.175.218-1.241.581zm2.222 1.869l-4.728-.495c-.007.34.234.892 1.219.995.563.059 1.011-.15 1.298-.447l2.061.429c-.241.942-1.512 2.345-3.594 2.127-2.265-.237-3.503-2.131-3.294-4.129.206-1.97 1.748-3.515 3.943-3.285 2.209.231 3.379 2.104 3.16 4.186zm4.972-1.684c-.689-.072-1.559.349-1.657 1.291s.664 1.535 1.354 1.607a2.12 2.12 0 0 0 1.596-.43l-.236 2.251c-.441.267-1.103.482-2.018.386-2.124-.223-3.437-2.081-3.228-4.08.206-1.97 1.879-3.544 4.004-3.321.914.096 1.518.443 1.894.796l-.233 2.223a2.14 2.14 0 0 0-1.475-.724m10.009 1.818l-.446 4.249-2.391-.251.324-3.095c.158-1.505-.193-1.954-.967-2.036-.675-.071-1.514.197-1.663 1.618l-.339 3.236-2.392-.251.746-7.119 2.251.236.05.873c.766-.518 1.639-.838 2.567-.741 1.801.189 2.455 1.409 2.259 3.281m6.093 1.335c.081-.774-.383-1.505-1.297-1.601s-1.548.52-1.629 1.294.411 1.508 1.326 1.604 1.52-.524 1.601-1.298m-5.318-.557c.213-2.04 1.935-3.538 4.257-3.295s3.667 2.063 3.453 4.102-1.907 3.542-4.229 3.298-3.695-2.066-3.481-4.106m13.726.971l2.786 4.36-2.969-.311-1.675-2.608-.992.778-.161 1.534-2.392-.25 1.106-10.552 2.392.25-.609 5.811 2.712-2.12 3.334.35zm4.364-4.578c.066-.633.61-1.074 1.244-1.008s1.074.61 1.008 1.243-.611 1.074-1.244 1.008-1.074-.61-1.008-1.244m1.378 9.248l-2.392-.251.746-7.119 2.392.251zm4.936-1.616c.914.096 1.52-.524 1.601-1.298s-.383-1.505-1.297-1.601-1.548.52-1.629 1.294.411 1.508 1.326 1.604m.117-5.194c1.083.114 1.804.701 2.039 1.309l.459-4.376 2.392.25-1.105 10.553-2.251-.236-.042-.957c-.356.546-1.183.971-2.266.858-2.04-.214-3.273-2.021-3.059-4.062s1.795-3.553 3.835-3.339m7.41 5.7c-.037.352.391.61 1.052.679.268.028.722.033.749-.22.029-.267-.333-.348-1.675-.844-1.368-.513-2.156-1.278-2.031-2.474.146-1.393 1.627-2.091 3.161-1.93 2.04.214 3.076 1.461 2.942 2.74l-2.392-.25c.038-.366-.447-.488-.672-.512-.282-.03-.627.006-.647.202s.231.238 1.77.897c1.825.774 2.006 1.761 1.931 2.478-.155 1.477-1.723 2.052-3.397 1.877-2.026-.212-3.364-1.149-3.182-2.894z"/></g></svg>