<svg xmlns="http://www.w3.org/2000/svg" viewBox="0 0 44 43" xmlns:v="https://vecta.io/nano"><path d="M22.2 2.7h0C11.9 2.7 3.6 11 3.6 21.3h0c0 10.3 8.3 18.6 18.6 18.6h0c10.3 0 18.6-8.3 18.6-18.6h0c0-10.3-8.4-18.6-18.6-18.6z" fill="#fff" stroke="#fff" stroke-width="5" stroke-linejoin="round" stroke-miterlimit="10"/><path d="M22.6 39.9h-.8c-10 0-18.2-8.1-18.2-18.2v-.8c0-10 8.1-18.2 18.2-18.2h.8c10 0 18.2 8.1 18.2 18.2v.8c0 10-8.2 18.2-18.2 18.2z" fill="#e63947"/><g fill="#fff"><path d="M33.2 15.5a5.59 5.59 0 0 1-5.6-5.6h-4.2v16.3a3.37 3.37 0 0 1-3.4 3.4 3.37 3.37 0 0 1-3.4-3.4 3.37 3.37 0 0 1 3.4-3.4c.4 0 .8.1 1.1.2v-4.3c-.4 0-.7-.1-1.1-.1-4.2 0-7.7 3.4-7.7 7.7S15.7 34 20 34s7.7-3.4 7.7-7.7v-8.6c1.5 1.3 3.5 2 5.6 2l-.1-4.2h0z" opacity=".5"/><path d="M32 14.3a5.59 5.59 0 0 1-5.6-5.6h-4.2V25a3.37 3.37 0 0 1-3.4 3.4 3.37 3.37 0 0 1-3.4-3.4 3.37 3.37 0 0 1 3.4-3.4c.4 0 .8.1 1.1.2v-4.3c-.4-.1-.7-.1-1.1-.1-4.2 0-7.7 3.4-7.7 7.7s3.4 7.7 7.7 7.7 7.7-3.4 7.7-7.7v-8.6c1.5 1.3 3.5 2 5.6 2l-.1-4.2h0z" opacity=".5"/><path d="M32 15.4c-1.4-.3-2.5-1.1-3.3-2.2-1.1-.8-1.9-2-2.2-3.3h-3.2v16.3a3.37 3.37 0 0 1-3.4 3.4c-1.3 0-2.4-.7-3-1.7-1-.6-1.7-1.7-1.7-3a3.37 3.37 0 0 1 3.4-3.4c.4 0 .8.1 1.1.2v-3.2c-4.2.1-7.5 3.5-7.5 7.7 0 1.8.6 3.5 1.7 4.8 1.3 1 3 1.7 4.8 1.7 4.2 0 7.7-3.4 7.7-7.7v-8.6c1.5 1.3 3.5 2 5.6 2v-3z"/></g></svg>