<svg xmlns="http://www.w3.org/2000/svg" viewBox="0 0 44 43" xmlns:v="https://vecta.io/nano"><path d="M24.7 3.8C12.7 2.3 2.5 12.5 4 24.5c1 8.2 7.7 14.9 15.9 15.9a18.46 18.46 0 0 0 20.7-20.7c-1-8.2-7.6-14.8-15.9-15.9z" fill="#fff" stroke="#fff" stroke-width="5" stroke-linejoin="round" stroke-miterlimit="10"/><path d="M22.3 40.6h0c-10.2 0-18.4-8.3-18.4-18.4C3.9 12 12.2 3.8 22.3 3.8c10.2 0 18.4 8.3 18.4 18.4.1 10.1-8.2 18.4-18.4 18.4" fill="#e63947"/><path d="M35.5 15.5c-.3-1.2-1.2-2.1-2.4-2.4-2.1-.6-10.7-.6-10.7-.6s-8.6 0-10.7.6c-1.2.3-2.1 1.3-2.4 2.4-.6 2.2-.6 6.6-.6 6.6s0 4.5.6 6.6c.3 1.2 1.2 2.1 2.4 2.4 2.1.6 10.7.6 10.7.6s8.6 0 10.7-.6c1.2-.3 2.1-1.3 2.4-2.4.6-2.2.6-6.6.6-6.6s0-4.5-.6-6.6" fill="#fff"/><path d="M19.3 26.5v-8.8l7.7 4.4z" fill="#e63947"/></svg>