<?xml version="1.0" encoding="utf-8"?>
<!-- Generator: Adobe Illustrator 24.2.0, SVG Export Plug-In . SVG Version: 6.00 Build 0)  -->
<svg version="1.1" id="Layer_1" xmlns="http://www.w3.org/2000/svg" xmlns:xlink="http://www.w3.org/1999/xlink" x="0px" y="0px"
	 viewBox="0 0 212 82" style="enable-background:new 0 0 212 82;" xml:space="preserve">
<style type="text/css">
	.st0{opacity:0.32;}
	.st1{fill:#E1262F;}
	.st2{fill:#E66869;}
	.st3{fill:none;stroke:#000000;stroke-width:2.8252;stroke-miterlimit:10;}
	.st4{fill:#FFFFFF;}
	.st5{fill:#FFD2D6;}
	.st6{fill:#700F19;}
	.st7{fill:#F7A9B0;}
	.st8{fill:#5B0C14;}
</style>
<g>
	<path class="st0" d="M162.9,78.9H38.6c-18,0-32.7-14.7-32.7-32.7v0c0-18,14.7-32.7,32.7-32.7h124.3c18,0,32.7,14.7,32.7,32.7v0
		C195.6,64.2,180.9,78.9,162.9,78.9z"/>
	<path class="st1" d="M168.1,72.7H43.5c-18.1,0-32.9-14.8-32.9-32.9v-0.5c0-18.1,14.8-32.9,32.9-32.9h124.5
		c18.1,0,32.9,14.8,32.9,32.9v0.5C201,57.9,186.2,72.7,168.1,72.7z"/>
	<path class="st2" d="M167.6,64.7H44.2C30.4,64.7,19,53.4,19,39.5v0c0-13.9,11.3-25.2,25.2-25.2h123.4c13.9,0,25.2,11.3,25.2,25.2v0
		C192.8,53.4,181.5,64.7,167.6,64.7z"/>
	<path class="st3" d="M167.6,64.7H44.2C30.4,64.7,19,53.4,19,39.5v0c0-13.9,11.3-25.2,25.2-25.2h123.4c13.9,0,25.2,11.3,25.2,25.2v0
		C192.8,53.4,181.5,64.7,167.6,64.7z"/>
	<path class="st3" d="M168.5,73.8h-125c-18.9,0-34.3-15.4-34.3-34.3v0c0-18.9,15.4-34.3,34.3-34.3h125c18.9,0,34.3,15.4,34.3,34.3v0
		C202.8,58.4,187.3,73.8,168.5,73.8z"/>
	<g>
		<path class="st4" d="M46.6,42.5c0-0.1,0-0.2-0.1-0.3c-0.1-0.1-0.1-0.2-0.2-0.3c0,0,0,0-0.1-0.1c0,0-0.1-0.1-0.1-0.1c0,0,0,0,0,0
			v-0.1c0,0,0,0,0-0.1c0,0,0,0,0-0.1c0,0,0,0,0.1-0.1c0,0,0.1-0.1,0.1-0.1c0,0,0.1-0.1,0.1-0.1c0,0,0.1-0.1,0.1-0.1
			c0,0,0.1-0.1,0.2-0.1c0.1-0.1,0.2-0.1,0.2-0.2c0.1-0.1,0.2-0.1,0.2-0.2s0.1-0.1,0.2-0.1c0,0,0,0,0.1-0.1c0,0,0.1-0.1,0.1-0.1
			c0.1,0,0.1-0.1,0.1-0.1c0,0,0.1,0,0.1,0c0,0,0,0,0.1,0c0,0,0.1,0,0.1-0.1c0,0,0.1-0.1,0.1-0.1c0,0,0.1,0,0.1,0c0,0,0.1,0,0.1-0.1
			c0.1,0,0.1-0.1,0.1-0.1l0,0c0,0,0,0,0,0s0,0,0,0l0,0c0,0,0.1,0.1,0.2,0.3c0.1,0.1,0.2,0.3,0.3,0.4c0.1,0.1,0.2,0.3,0.3,0.4
			c0.1,0.1,0.2,0.2,0.2,0.3c0,0,0.1,0,0.1,0.1c0.1,0.1,0.1,0.1,0.2,0.2s0.1,0.1,0.2,0.2c0.1,0.1,0.1,0.1,0.2,0.1c0,0,0.1,0,0.1,0.1
			c0,0,0.1,0.1,0.1,0.1c0,0,0.1,0.1,0.1,0.1c0,0,0.1,0,0.1,0c0,0,0,0,0.1,0c0.1,0,0.1,0,0.2,0h0.1c0.1,0,0.2,0,0.3,0
			c0.1,0,0.2,0,0.3,0c0.1,0,0.2-0.1,0.3-0.1s0.2-0.2,0.2-0.3L52.1,41c0,0,0-0.1,0-0.1c0-0.1,0-0.1,0-0.1l-0.3-0.5c0,0,0,0,0,0
			c0,0,0,0,0,0c0,0,0,0,0,0c-0.1-0.2-0.3-0.4-0.4-0.5c-0.1-0.2-0.3-0.3-0.4-0.5c-0.2-0.1-0.3-0.3-0.5-0.4c-0.2-0.1-0.3-0.3-0.5-0.4
			c-0.1-0.1-0.3-0.3-0.4-0.4c-0.1-0.1-0.3-0.3-0.4-0.4c-0.2-0.1-0.3-0.3-0.5-0.4s-0.3-0.3-0.5-0.4c-0.2-0.2-0.4-0.5-0.6-0.7
			c-0.2-0.3-0.4-0.6-0.5-0.9c-0.2-0.3-0.3-0.6-0.4-0.9c-0.1-0.3-0.1-0.6-0.1-0.9c0-0.3,0.1-0.5,0.2-0.7c0.1-0.2,0.2-0.4,0.3-0.6
			c0,0,0,0,0,0c0,0,0,0,0,0c0,0,0.1-0.1,0.1-0.2c0-0.1,0.1-0.1,0.1-0.2s0.1-0.1,0.1-0.2c0,0,0-0.1,0-0.1c0,0,0,0,0.1-0.1
			s0.1-0.1,0.2-0.2c0.1-0.1,0.1-0.1,0.2-0.2c0.1-0.1,0.1-0.1,0.2-0.2c0.1-0.1,0.3-0.2,0.5-0.3c0.2-0.1,0.3-0.2,0.5-0.2
			c0.2-0.1,0.3-0.1,0.5-0.2c0.2,0,0.3-0.1,0.5-0.2c0.1,0,0.1,0,0.2,0s0.2,0,0.3,0s0.2,0,0.3,0s0.2,0,0.2,0c0.3,0,0.5,0,0.7,0.1
			c0.2,0,0.4,0.1,0.6,0.2c0.2,0.1,0.4,0.2,0.6,0.3s0.4,0.2,0.6,0.4c0,0,0,0,0,0c0,0,0,0,0,0c0,0,0,0,0,0l0.3,0.2c0,0,0,0,0.1,0.1
			s0.1,0.1,0.1,0.1c0,0,0.1,0.1,0.1,0.1c0.1,0.1,0.2,0.2,0.3,0.2c0.1,0.1,0.2,0.2,0.2,0.3s0.1,0.1,0.1,0.2c0,0,0,0,0,0.1
			c0,0,0.1,0.1,0.1,0.1c0,0,0.1,0.1,0.1,0.1c0,0,0.1,0.1,0.1,0.1c0,0.1,0.1,0.1,0.1,0.2s0.1,0.1,0,0.2v0.1c0,0,0,0-0.1,0.1
			c0,0-0.1,0.1-0.1,0.1c0,0-0.1,0.1-0.1,0.1s-0.1,0.1-0.1,0.1c0,0,0,0,0,0c0,0-0.1,0-0.1,0.1c0,0-0.1,0-0.1,0.1c0,0,0,0-0.1,0
			c0,0-0.1,0.1-0.2,0.2c-0.1,0.1-0.2,0.2-0.4,0.3s-0.3,0.2-0.4,0.3s-0.2,0.2-0.2,0.2c0,0-0.1,0.1-0.2,0c0,0-0.1,0-0.1,0
			s-0.1,0-0.1-0.1c0,0,0,0,0-0.1c0,0,0-0.1,0-0.1c0,0,0-0.1,0-0.1c0,0,0,0,0-0.1c-0.1-0.1-0.1-0.2-0.2-0.3c-0.1-0.1-0.2-0.2-0.3-0.3
			s-0.2-0.2-0.3-0.3s-0.2-0.2-0.3-0.2c0,0,0,0-0.1,0c0,0-0.1,0-0.1,0s-0.1,0-0.1,0c0,0-0.1,0-0.1,0c0,0,0,0-0.1,0c0,0-0.1,0-0.1,0h0
			c0,0,0,0,0,0c0,0,0,0,0,0c-0.1,0-0.2,0-0.3,0s-0.2,0-0.3,0c-0.1,0-0.2,0.1-0.3,0.1c-0.1,0-0.2,0.1-0.2,0.2c0,0,0,0.1-0.1,0.1
			s0,0.1,0,0.1s0,0,0,0.1s0,0.1,0,0.1c0,0,0,0.1,0,0.1s0,0.1,0,0.1c0,0,0,0,0,0.1c0,0,0,0,0,0.1v0v0c0.1,0.1,0.1,0.3,0.2,0.4
			c0.1,0.1,0.2,0.3,0.3,0.4c0.1,0.1,0.2,0.2,0.3,0.4c0.1,0.1,0.2,0.2,0.4,0.3c0,0,0,0,0.1,0.1s0.1,0.1,0.1,0.1c0,0,0.1,0.1,0.2,0.1
			c0.1,0.1,0.2,0.1,0.3,0.2c0.1,0.1,0.2,0.2,0.3,0.2s0.2,0.1,0.2,0.2l0.1,0.1c0,0,0,0,0,0s0.1,0.1,0.1,0.1c0,0,0.1,0.1,0.1,0.1
			c0,0,0,0,0.1,0.1l0.1,0.1c0.2,0.1,0.4,0.3,0.6,0.5c0.2,0.2,0.3,0.4,0.5,0.6c0,0,0.1,0.1,0.1,0.1c0.1,0.1,0.1,0.2,0.2,0.2
			c0.1,0.1,0.1,0.2,0.2,0.2c0.1,0.1,0.1,0.1,0.1,0.1c0,0,0,0,0.1,0.1c0,0,0,0,0.1,0.1c0,0,0,0,0,0.1s0,0.1,0,0.1c0,0,0,0,0,0.1
			c0,0,0.1,0.1,0.1,0.1s0.1,0.1,0.1,0.1s0,0.1,0.1,0.1c0,0,0,0,0,0c0,0,0,0,0,0.1c0,0,0,0,0,0.1c0,0,0,0,0,0c0,0,0,0.1,0.1,0.1
			c0,0.1,0.1,0.1,0.1,0.2c0,0.1,0.1,0.2,0.1,0.2c0,0.1,0.1,0.1,0.1,0.1c0,0,0,0,0.1,0.1c0,0.1,0.1,0.1,0.1,0.1c0,0,0,0,0,0.1
			c0,0.1,0,0.1,0,0.1c0,0,0,0,0,0.1c0,0.1,0,0.1,0.1,0.1l0.1,0.6l-0.1,1.1c0,0,0,0,0,0.1c0,0,0,0.1,0,0.1c-0.1,0.2-0.1,0.4-0.2,0.5
			c-0.1,0.2-0.2,0.3-0.4,0.5c0,0-0.1,0.1-0.1,0.1c-0.1,0.1-0.2,0.1-0.3,0.2c-0.1,0.1-0.2,0.2-0.3,0.2c-0.1,0.1-0.2,0.1-0.2,0.1
			c-0.2,0.2-0.4,0.3-0.7,0.5c-0.3,0.2-0.5,0.3-0.8,0.4c-0.1,0-0.2,0-0.3,0.1c-0.1,0-0.2,0-0.3,0.1c-0.2,0-0.4,0.1-0.6,0.1
			c-0.2,0-0.4,0.1-0.6,0.1c-0.2,0-0.3,0-0.5-0.1c-0.2,0-0.3-0.1-0.5-0.1c-0.4-0.1-0.8-0.3-1.2-0.5c-0.3-0.2-0.6-0.5-0.9-0.8
			c0,0,0-0.1-0.1-0.1c-0.1-0.1-0.1-0.1-0.2-0.2c-0.1-0.1-0.1-0.1-0.2-0.2c-0.1-0.1-0.1-0.1-0.1-0.1c0,0-0.1-0.1-0.1-0.1
			C47,43,47,42.9,46.9,42.9c-0.1-0.1-0.1-0.1-0.2-0.2C46.6,42.6,46.6,42.5,46.6,42.5z"/>
		<path class="st4" d="M56.6,38.9c0-0.2,0.1-0.4,0.1-0.7s0.1-0.4,0.2-0.6c0-0.2,0.1-0.3,0.1-0.4c0-0.1,0.1-0.3,0.1-0.4
			c0,0,0,0,0-0.1c0-0.1,0-0.1,0.1-0.2s0-0.1,0.1-0.2c0-0.1,0-0.1,0-0.1c0.1-0.2,0.2-0.4,0.3-0.6c0.1-0.2,0.3-0.3,0.4-0.5
			c0,0,0,0,0.1-0.1c0,0,0.1-0.1,0.1-0.1c0,0,0.1-0.1,0.1-0.1c0,0,0.1-0.1,0.1-0.1c0,0,0,0,0,0c0,0,0-0.1,0.1-0.1s0-0.1,0.1-0.1
			c0,0,0,0,0,0c0.3-0.2,0.5-0.4,0.8-0.6c0.3-0.2,0.6-0.3,0.9-0.4s0.7-0.2,1-0.3c0.3-0.1,0.7-0.1,1-0.1c0.4,0,0.8,0,1.2,0
			s0.8,0.1,1.1,0.3c0.3,0.1,0.5,0.2,0.8,0.3c0.2,0.1,0.4,0.2,0.5,0.3s0.3,0.2,0.4,0.3c0.1,0.1,0.2,0.1,0.3,0.2
			c0.2,0.2,0.4,0.3,0.5,0.5c0.1,0.2,0.3,0.3,0.4,0.5c0.1,0.2,0.2,0.3,0.3,0.5c0.1,0.2,0.2,0.4,0.3,0.6c0,0.1,0,0.2,0.1,0.3
			c0,0.1,0.1,0.3,0.1,0.4c0,0.2,0.1,0.3,0.1,0.4c0,0.1,0,0.2,0.1,0.3c0,0,0,0,0,0.1s0,0.1,0,0.2c0,0.1,0,0.1,0,0.2
			c0,0.1,0,0.1,0,0.1c0,0,0,0.1,0,0.1s0,0.1,0,0.2s0,0.1,0,0.2s0,0.1,0,0.1c0,0,0,0.1,0,0.1c0,0.1,0,0.1-0.1,0.2c0,0.1,0,0.1,0,0.2
			c0,0.1,0,0.1,0,0.1c-0.1,0.1-0.2,0.2-0.4,0.2s-0.3,0.1-0.4,0.1c-0.2,0-0.4,0-0.6,0c-0.2,0-0.5,0-0.8,0.1c0,0-0.1,0-0.2,0
			c-0.1,0-0.2,0-0.3,0c-0.1,0-0.2,0-0.3,0c-0.1,0-0.1,0-0.2,0h-0.1c0,0,0,0-0.1,0c0,0-0.1,0-0.1,0s-0.1,0-0.1,0c0,0-0.1,0-0.1-0.1
			c0,0,0,0-0.1,0c0,0-0.1,0-0.2,0c-0.1,0-0.1,0-0.2,0c-0.1,0-0.1,0-0.1,0c0,0,0,0,0,0h0c-0.1,0-0.3,0-0.5,0s-0.4,0-0.6,0
			s-0.4,0-0.6,0c-0.2,0-0.3,0-0.5,0c-0.2,0-0.4,0-0.6,0c-0.2,0-0.3,0-0.5,0c-0.2,0-0.3,0-0.5,0c-0.2,0-0.4,0-0.6,0c0,0-0.1,0-0.1,0
			c0,0-0.1,0-0.1,0c0,0,0,0.1,0,0.1c0,0.1,0,0.1,0,0.1c0.1,0.2,0.1,0.4,0.1,0.5s0,0.2,0.1,0.2c0,0,0,0.1,0.1,0.1
			c0,0,0.1,0.1,0.1,0.2c0,0,0,0,0,0c0,0,0,0,0.1,0.1c0,0,0.1,0,0.1,0.1c0,0,0,0,0,0c0.2,0.3,0.5,0.5,0.8,0.7s0.7,0.2,1,0.2
			c0,0,0.1,0,0.2,0c0.1,0,0.1,0,0.1,0c0.1,0,0.2,0,0.3,0c0.1,0,0.1,0,0.1,0c0,0,0.1,0,0.1,0c0,0,0.1,0,0.2,0c0.1,0,0.2,0,0.4-0.1
			c0.2,0,0.4-0.1,0.6-0.1c0,0,0,0,0.1,0c0.1,0,0.1-0.1,0.2-0.1c0.1,0,0.1-0.1,0.2-0.1c0.1,0,0.1-0.1,0.1-0.1
			c0.2-0.1,0.3-0.2,0.4-0.3s0.2-0.2,0.3-0.3c0.1-0.1,0.2-0.1,0.3-0.2c0.1-0.1,0.2-0.1,0.3-0.1h0h0c0,0,0,0,0.1,0c0,0,0,0,0,0
			c0.1,0,0.1,0.1,0.2,0.2c0.1,0.1,0.2,0.2,0.3,0.2c0.1,0.1,0.2,0.2,0.3,0.2c0.1,0.1,0.2,0.1,0.2,0.2c0,0,0.1,0,0.1,0.1
			c0.1,0,0.1,0.1,0.2,0.2s0.1,0.1,0.2,0.2c0.1,0.1,0.1,0.1,0.1,0.1v0c0,0,0,0,0,0s0,0,0,0c0,0.1,0,0.3-0.1,0.4
			c-0.1,0.1-0.2,0.2-0.3,0.3c-0.3,0.3-0.6,0.6-0.9,0.9s-0.7,0.5-1,0.7C65.5,45,65.3,45,65.2,45c-0.1,0-0.2,0.1-0.4,0.1
			c-0.2,0-0.3,0.1-0.4,0.1c-0.1,0-0.3,0-0.4,0s-0.3,0-0.4,0s-0.3,0-0.5,0c-0.4,0-0.8,0-1.2,0c-0.4,0-0.8-0.1-1.2-0.2
			c-0.2,0-0.3-0.1-0.4-0.2c-0.1-0.1-0.3-0.1-0.4-0.2c-0.1-0.1-0.2-0.1-0.3-0.2c-0.1-0.1-0.2-0.2-0.4-0.3c-0.2-0.2-0.4-0.4-0.6-0.5
			c-0.2-0.2-0.4-0.4-0.6-0.6c0,0,0,0-0.1-0.1c0-0.1-0.1-0.1-0.1-0.1c0,0,0,0-0.1-0.1c0,0-0.1-0.1-0.1-0.1c0-0.1-0.1-0.1-0.1-0.1
			c0,0-0.1-0.1-0.1-0.1c0,0,0-0.1-0.1-0.1c0-0.1-0.1-0.2-0.1-0.3s-0.1-0.2-0.1-0.3s-0.1-0.2-0.1-0.2c0,0,0,0,0-0.1c0,0,0-0.1,0-0.1
			c-0.1-0.4-0.1-0.8-0.2-1.2C56.7,39.8,56.6,39.4,56.6,38.9L56.6,38.9z M63,36c-0.3,0-0.6,0-0.9,0.1c-0.3,0.1-0.5,0.2-0.8,0.4
			c-0.1,0.1-0.2,0.1-0.3,0.2c-0.1,0.1-0.2,0.2-0.3,0.3s-0.2,0.2-0.2,0.3c-0.1,0.1-0.1,0.2-0.1,0.3c0.2,0,0.3,0,0.4-0.1
			c0.1,0,0.3,0,0.4,0h0c0,0,0,0,0.1,0c0.1,0,0.1,0,0.2,0s0.1,0,0.2,0s0.1,0,0.1,0c0,0,0,0,0.1,0s0.2,0,0.2,0c0.1,0,0.2,0,0.3,0
			s0.2,0,0.2,0s0.1,0,0.2,0c0.1,0,0.2,0,0.3,0s0.2,0,0.3,0c0.1,0,0.1,0,0.1,0c0.1,0,0.2,0,0.3,0c0.2,0,0.3,0,0.5,0s0.3,0,0.5,0
			c0.2,0,0.3,0,0.3,0c0,0,0,0,0,0l0,0c0,0,0,0,0-0.1c0,0,0,0,0-0.1c0,0,0-0.1,0-0.1c0,0,0-0.1-0.1-0.1s0-0.1-0.1-0.1c0,0,0,0,0,0
			c-0.3-0.3-0.6-0.6-1-0.7C63.8,36.1,63.4,36,63,36z"/>
		<path class="st4" d="M72.7,44.8c0,0-0.1,0-0.1,0s-0.2,0-0.3,0c-0.1,0-0.2,0-0.3,0c-0.1,0-0.1,0-0.1,0c-0.3,0-0.5,0-0.8,0
			c-0.3,0-0.5,0-0.8,0c0,0-0.1,0-0.1,0s0,0-0.1,0c0,0,0,0-0.1-0.1c0,0-0.1-0.1-0.1-0.1v-0.1c0,0,0,0,0-0.1s0-0.1,0-0.1s0-0.1,0-0.1
			c0,0,0-0.1,0-0.1c0,0,0-0.1,0-0.2c0-0.1,0-0.2,0-0.3s0-0.2,0-0.2c0-0.1,0-0.1,0-0.2c0-0.1,0-0.3,0-0.5c0-0.2,0-0.5,0-0.8
			s0-0.6,0-1c0-0.3,0-0.7,0-1s0-0.6,0-0.8s0-0.4,0-0.5c0,0,0-0.1,0-0.2s0-0.2,0-0.3s0-0.2,0-0.3s0-0.2,0-0.2l-0.3-7.4c0,0,0,0,0-0.1
			c0,0,0-0.1,0-0.1s0-0.1,0-0.1s0-0.1,0-0.1c0-0.1,0-0.2,0-0.2c0-0.1,0.1-0.1,0.1-0.1c0,0,0.1,0,0.1,0c0.1,0,0.1,0,0.2,0
			c0.1,0,0.1,0,0.2,0c0.1,0,0.1,0,0.1,0H72c0,0,0,0,0.1,0c0,0,0.1,0,0.1,0c0.1,0,0.1,0,0.2,0s0.1,0,0.1,0c0.1,0,0.2,0,0.3,0.1
			c0.1,0.1,0.1,0.1,0.2,0.3c0,0.1,0,0.2,0,0.3c0,0.1,0,0.2,0,0.3c0,0,0,0.1,0,0.1c0,0.1,0,0.1,0,0.2c0,0.1,0,0.2,0,0.3
			c0,0.1,0,0.1,0,0.2v0.1c0,0,0,0.1,0,0.1c0,0,0,0.1,0,0.1l0.1,1.4c0,0,0,0,0,0.1s0,0.1,0,0.2c0,0.1,0,0.1,0,0.2s0,0.1,0,0.1
			c0,0.3,0,0.5,0,0.6c0,0.1,0,0.2,0,0.2c0,0,0,0,0,0s0,0,0,0c0,0,0,0.1,0,0.2c0,0.1,0,0.3,0,0.5v0.5v0v0c0,0,0,0.1,0,0.2
			c0,0.1,0,0.2,0,0.2l0.1,0.8v0c0,0,0,0,0,0.1c0,0.1,0,0.1,0,0.2c0,0.1,0,0.1,0,0.2s0,0.1,0,0.1c0,0.1,0,0.3,0,0.5s0,0.5,0,0.7
			c0,0.3,0,0.5,0,0.7c0,0.2,0,0.4,0,0.5v0.4v0.4l0,1v0.2c0,0,0,0.1,0,0.2s0,0.2,0,0.4c0,0.1,0,0.2,0,0.4c0,0.1,0,0.2,0,0.2v0.5
			c0,0,0,0,0,0c0,0,0,0,0,0.1v0.1v0.2c0,0.1,0,0.2,0,0.2c0,0.1,0,0.1,0,0.2s0,0.1-0.1,0.2c0,0.1-0.1,0.1-0.2,0.1c-0.1,0-0.1,0-0.2,0
			C72.8,44.9,72.8,44.9,72.7,44.8z"/>
		<path class="st4" d="M74.5,38.9c0-0.2,0.1-0.4,0.1-0.7s0.1-0.4,0.2-0.6c0-0.2,0.1-0.3,0.1-0.4c0-0.1,0.1-0.3,0.1-0.4
			c0,0,0,0,0-0.1c0-0.1,0-0.1,0.1-0.2s0-0.1,0.1-0.2c0-0.1,0-0.1,0-0.1c0.1-0.2,0.2-0.4,0.3-0.6c0.1-0.2,0.3-0.3,0.4-0.5
			c0,0,0,0,0.1-0.1c0,0,0.1-0.1,0.1-0.1c0,0,0.1-0.1,0.1-0.1c0,0,0.1-0.1,0.1-0.1c0,0,0,0,0,0c0,0,0-0.1,0.1-0.1s0-0.1,0.1-0.1
			c0,0,0,0,0,0c0.3-0.2,0.5-0.4,0.8-0.6c0.3-0.2,0.6-0.3,0.9-0.4s0.7-0.2,1-0.3c0.3-0.1,0.7-0.1,1-0.1c0.4,0,0.8,0,1.2,0
			s0.8,0.1,1.1,0.3c0.3,0.1,0.5,0.2,0.8,0.3c0.2,0.1,0.4,0.2,0.5,0.3s0.3,0.2,0.4,0.3c0.1,0.1,0.2,0.1,0.3,0.2
			c0.2,0.2,0.4,0.3,0.5,0.5c0.1,0.2,0.3,0.3,0.4,0.5c0.1,0.2,0.2,0.3,0.3,0.5c0.1,0.2,0.2,0.4,0.3,0.6c0,0.1,0,0.2,0.1,0.3
			c0,0.1,0.1,0.3,0.1,0.4c0,0.2,0.1,0.3,0.1,0.4c0,0.1,0,0.2,0.1,0.3c0,0,0,0,0,0.1s0,0.1,0,0.2c0,0.1,0,0.1,0,0.2
			c0,0.1,0,0.1,0,0.1c0,0,0,0.1,0,0.1s0,0.1,0,0.2s0,0.1,0,0.2s0,0.1,0,0.1c0,0,0,0.1,0,0.1c0,0.1,0,0.1-0.1,0.2c0,0.1,0,0.1,0,0.2
			c0,0.1,0,0.1,0,0.1c-0.1,0.1-0.2,0.2-0.4,0.2s-0.3,0.1-0.4,0.1c-0.2,0-0.4,0-0.6,0c-0.2,0-0.5,0-0.8,0.1c0,0-0.1,0-0.2,0
			c-0.1,0-0.2,0-0.3,0c-0.1,0-0.2,0-0.3,0c-0.1,0-0.1,0-0.2,0H83c0,0,0,0-0.1,0c0,0-0.1,0-0.1,0s-0.1,0-0.1,0c0,0-0.1,0-0.1-0.1
			c0,0,0,0-0.1,0c0,0-0.1,0-0.2,0c-0.1,0-0.1,0-0.2,0c-0.1,0-0.1,0-0.1,0c0,0,0,0,0,0h0c-0.1,0-0.3,0-0.5,0s-0.4,0-0.6,0
			s-0.4,0-0.6,0c-0.2,0-0.3,0-0.5,0c-0.2,0-0.4,0-0.6,0c-0.2,0-0.3,0-0.5,0c-0.2,0-0.3,0-0.5,0c-0.2,0-0.4,0-0.6,0c0,0-0.1,0-0.1,0
			c0,0-0.1,0-0.1,0c0,0,0,0.1,0,0.1c0,0.1,0,0.1,0,0.1c0.1,0.2,0.1,0.4,0.1,0.5s0,0.2,0.1,0.2c0,0,0,0.1,0.1,0.1
			c0,0,0.1,0.1,0.1,0.2c0,0,0,0,0,0c0,0,0,0,0.1,0.1c0,0,0.1,0,0.1,0.1c0,0,0,0,0,0c0.2,0.3,0.5,0.5,0.8,0.7s0.7,0.2,1,0.2
			c0,0,0.1,0,0.2,0c0.1,0,0.1,0,0.1,0c0.1,0,0.2,0,0.3,0c0.1,0,0.1,0,0.1,0c0,0,0.1,0,0.1,0c0,0,0.1,0,0.2,0c0.1,0,0.2,0,0.4-0.1
			c0.2,0,0.4-0.1,0.6-0.1c0,0,0,0,0.1,0c0.1,0,0.1-0.1,0.2-0.1c0.1,0,0.1-0.1,0.2-0.1c0.1,0,0.1-0.1,0.1-0.1
			c0.2-0.1,0.3-0.2,0.4-0.3s0.2-0.2,0.3-0.3c0.1-0.1,0.2-0.1,0.3-0.2c0.1-0.1,0.2-0.1,0.3-0.1h0h0c0,0,0,0,0.1,0c0,0,0,0,0,0
			c0.1,0,0.1,0.1,0.2,0.2c0.1,0.1,0.2,0.2,0.3,0.2c0.1,0.1,0.2,0.2,0.3,0.2c0.1,0.1,0.2,0.1,0.2,0.2c0,0,0.1,0,0.1,0.1
			c0.1,0,0.1,0.1,0.2,0.2s0.1,0.1,0.2,0.2c0.1,0.1,0.1,0.1,0.1,0.1v0c0,0,0,0,0,0s0,0,0,0c0,0.1,0,0.3-0.1,0.4
			c-0.1,0.1-0.2,0.2-0.3,0.3c-0.3,0.3-0.6,0.6-0.9,0.9s-0.7,0.5-1,0.7C83.4,45,83.2,45,83.1,45c-0.1,0-0.2,0.1-0.4,0.1
			c-0.2,0-0.3,0.1-0.4,0.1c-0.1,0-0.3,0-0.4,0s-0.3,0-0.4,0s-0.3,0-0.5,0c-0.4,0-0.8,0-1.2,0c-0.4,0-0.8-0.1-1.2-0.2
			c-0.2,0-0.3-0.1-0.4-0.2c-0.1-0.1-0.3-0.1-0.4-0.2c-0.1-0.1-0.2-0.1-0.3-0.2c-0.1-0.1-0.2-0.2-0.4-0.3c-0.2-0.2-0.4-0.4-0.6-0.5
			c-0.2-0.2-0.4-0.4-0.6-0.6c0,0,0,0-0.1-0.1c0-0.1-0.1-0.1-0.1-0.1c0,0,0,0-0.1-0.1c0,0-0.1-0.1-0.1-0.1c0-0.1-0.1-0.1-0.1-0.1
			c0,0-0.1-0.1-0.1-0.1c0,0,0-0.1-0.1-0.1c0-0.1-0.1-0.2-0.1-0.3s-0.1-0.2-0.1-0.3s-0.1-0.2-0.1-0.2c0,0,0,0,0-0.1c0,0,0-0.1,0-0.1
			c-0.1-0.4-0.1-0.8-0.2-1.2C74.6,39.8,74.5,39.4,74.5,38.9L74.5,38.9z M80.9,36c-0.3,0-0.6,0-0.9,0.1c-0.3,0.1-0.5,0.2-0.8,0.4
			c-0.1,0.1-0.2,0.1-0.3,0.2c-0.1,0.1-0.2,0.2-0.3,0.3s-0.2,0.2-0.2,0.3c-0.1,0.1-0.1,0.2-0.1,0.3c0.2,0,0.3,0,0.4-0.1
			c0.1,0,0.3,0,0.4,0h0c0,0,0,0,0.1,0c0.1,0,0.1,0,0.2,0s0.1,0,0.2,0s0.1,0,0.1,0c0,0,0,0,0.1,0s0.2,0,0.2,0c0.1,0,0.2,0,0.3,0
			s0.2,0,0.2,0s0.1,0,0.2,0c0.1,0,0.2,0,0.3,0s0.2,0,0.3,0c0.1,0,0.1,0,0.1,0c0.1,0,0.2,0,0.3,0c0.2,0,0.3,0,0.5,0s0.3,0,0.5,0
			c0.2,0,0.3,0,0.3,0c0,0,0,0,0,0l0,0c0,0,0,0,0-0.1c0,0,0,0,0-0.1c0,0,0-0.1,0-0.1c0,0,0-0.1-0.1-0.1s0-0.1-0.1-0.1c0,0,0,0,0,0
			c-0.3-0.3-0.6-0.6-1-0.7C81.7,36.1,81.3,36,80.9,36z"/>
		<path class="st4" d="M87.9,41.7c0,0,0-0.1-0.1-0.2s-0.1-0.2-0.1-0.3c0-0.1-0.1-0.2-0.1-0.3c0-0.1-0.1-0.2-0.1-0.2c0,0,0-0.1,0-0.1
			c0-0.1,0-0.1,0-0.2c-0.1-0.6-0.1-1.1,0-1.7c0.1-0.6,0.2-1.1,0.3-1.7c0.1-0.4,0.3-0.8,0.5-1.3s0.4-0.8,0.7-1.1
			c0.3-0.3,0.6-0.6,1-0.9s0.8-0.4,1.2-0.5c0.3-0.1,0.6-0.1,1-0.2c0.3-0.1,0.7-0.1,1-0.1c0,0,0.1,0,0.1,0c0.1,0,0.1,0,0.1,0
			c0,0,0.1,0,0.1,0c0,0,0.1,0,0.1,0c0.3,0,0.6,0,0.9,0c0.3,0,0.6,0.1,0.9,0.1c0.3,0.1,0.5,0.1,0.8,0.2c0.3,0.1,0.6,0.2,0.8,0.3
			c0,0,0.1,0,0.1,0.1c0.1,0,0.1,0.1,0.2,0.1c0.1,0,0.2,0.1,0.2,0.1c0.1,0,0.1,0.1,0.1,0.1c0.2,0.1,0.3,0.2,0.3,0.3s0.1,0.1,0.2,0.2
			c0.1,0.1,0.1,0.1,0.2,0.2c0.1,0.1,0.2,0.2,0.4,0.4c0,0,0,0.1,0.1,0.1s0.1,0.1,0.1,0.1s0,0.1,0,0.2c0,0.1-0.1,0.2-0.2,0.2
			c0,0-0.1,0-0.2,0.1c-0.1,0.1-0.2,0.2-0.3,0.3s-0.3,0.2-0.4,0.3c-0.1,0.1-0.2,0.2-0.3,0.3c-0.1,0.2-0.3,0.4-0.4,0.4
			c-0.1,0.1-0.3,0.1-0.4,0h0h0c-0.1,0-0.2,0-0.2-0.1c-0.1,0-0.1,0-0.1-0.1c0,0-0.1-0.1-0.1-0.1c0,0-0.1-0.1-0.2-0.1
			c-0.1-0.1-0.2-0.1-0.4-0.2s-0.3-0.1-0.4-0.1c-0.1,0-0.2,0-0.3-0.1c-0.1,0-0.3,0-0.4-0.1c-0.1,0-0.2,0-0.3-0.1c-0.1,0-0.1,0-0.2,0
			c0,0-0.1,0-0.1,0c0,0-0.1,0-0.1,0c0,0-0.1,0-0.1,0c-0.1,0-0.2,0-0.3,0s-0.2,0-0.3,0.1c-0.2,0.1-0.4,0.2-0.6,0.4
			c-0.2,0.2-0.3,0.4-0.4,0.6c-0.1,0.2-0.2,0.4-0.3,0.6c-0.1,0.2-0.2,0.4-0.2,0.7c-0.1,0.2-0.1,0.4-0.1,0.5s0,0.4,0,0.6
			c0,0.3,0.1,0.5,0.2,0.7s0.2,0.4,0.3,0.6c0.1,0.2,0.3,0.3,0.5,0.4c0.2,0.1,0.4,0.2,0.7,0.2c0.1,0,0.1,0,0.2,0c0.1,0,0.2,0,0.3,0
			c0.1,0,0.2,0,0.2,0c0.1,0,0.1,0,0.1,0c0,0,0,0,0.1,0s0.1,0,0.2,0c0.1,0,0.1,0,0.2,0c0.1,0,0.1,0,0.1,0c0,0,0.1,0,0.1,0
			c0.1,0,0.1,0,0.2,0c0.1,0,0.1,0,0.2,0c0.1,0,0.1,0,0.1,0c0.1,0,0.2-0.1,0.3-0.1c0.1,0,0.2-0.1,0.2-0.1c0.1-0.1,0.3-0.1,0.4-0.2
			c0.2-0.1,0.3-0.2,0.4-0.3c0.1-0.1,0.2-0.2,0.3-0.2c0.1-0.1,0.2-0.1,0.4-0.1c0.1,0,0.1,0,0.2,0s0.1,0,0.2,0c0,0,0,0,0.1,0.1
			s0.1,0.1,0.1,0.1c0,0,0.1,0,0.1,0.1s0.1,0.1,0.2,0.2s0.2,0.1,0.2,0.2c0.1,0,0.1,0.1,0.1,0.1l0.1,0c0,0,0.1,0,0.1,0.1
			c0.1,0,0.1,0.1,0.2,0.1s0.1,0.1,0.2,0.1c0.1,0,0.1,0.1,0.1,0.1c0,0,0.1,0.1,0.1,0.1c0,0,0,0,0,0c0,0,0,0,0,0c0,0,0,0,0,0.1
			c0,0.1,0,0.1,0,0.2c0,0,0,0.1-0.1,0.1c-0.3,0.4-0.6,0.8-1,1.1s-0.7,0.7-1.1,1c-0.3,0.2-0.5,0.3-0.8,0.4c-0.2,0.1-0.5,0.2-0.7,0.2
			c-0.2,0-0.4,0.1-0.6,0.1c-0.2,0-0.4,0-0.6,0c0,0-0.1,0-0.2,0s-0.1,0-0.2,0s-0.2,0-0.2,0s-0.1,0-0.2,0c-0.3,0-0.6,0-0.9-0.1
			c-0.3,0-0.6-0.1-0.9-0.2c0,0-0.1,0-0.1,0c-0.1,0-0.2,0-0.2-0.1s-0.2,0-0.3-0.1c-0.1,0-0.1,0-0.2,0c-0.3-0.1-0.5-0.2-0.8-0.4
			c-0.3-0.1-0.5-0.3-0.7-0.5c-0.2-0.2-0.5-0.4-0.7-0.6c-0.2-0.2-0.4-0.4-0.6-0.6c0,0,0-0.1-0.1-0.1c0-0.1-0.1-0.1-0.1-0.2
			c-0.1-0.1-0.1-0.2-0.1-0.2c0-0.1-0.1-0.1-0.1-0.1C88,41.8,88,41.8,87.9,41.7C87.9,41.7,87.9,41.7,87.9,41.7z"/>
		<path class="st4" d="M100.9,41.7c0,0,0-0.1-0.1-0.2s-0.1-0.2-0.1-0.3c0-0.1-0.1-0.2-0.1-0.3c0-0.1-0.1-0.2-0.1-0.2
			c0,0,0-0.1,0-0.1c0-0.1,0-0.1,0-0.2c-0.1-0.6-0.1-1.1,0-1.7c0.1-0.6,0.2-1.1,0.3-1.7c0.1-0.4,0.3-0.8,0.5-1.3s0.4-0.8,0.7-1.1
			c0.3-0.3,0.6-0.6,1-0.9s0.8-0.4,1.2-0.5c0.3-0.1,0.6-0.1,1-0.2c0.3-0.1,0.7-0.1,1-0.1c0,0,0.1,0,0.1,0s0.1,0,0.1,0
			c0,0,0.1,0,0.1,0s0.1,0,0.1,0c0.3,0,0.6,0,0.9,0s0.6,0.1,0.9,0.1c0.3,0.1,0.5,0.1,0.8,0.2c0.3,0.1,0.6,0.2,0.8,0.3
			c0,0,0.1,0,0.1,0.1c0.1,0,0.1,0.1,0.2,0.1s0.2,0.1,0.2,0.1c0.1,0,0.1,0.1,0.1,0.1c0.2,0.1,0.3,0.2,0.3,0.3
			c0.1,0.1,0.1,0.1,0.2,0.2s0.1,0.1,0.2,0.2c0.1,0.1,0.2,0.2,0.4,0.4c0,0,0,0.1,0.1,0.1s0.1,0.1,0.1,0.1s0,0.1,0,0.2
			c0,0.1-0.1,0.2-0.2,0.2c0,0-0.1,0-0.2,0.1c-0.1,0.1-0.2,0.2-0.3,0.3s-0.3,0.2-0.4,0.3c-0.1,0.1-0.2,0.2-0.3,0.3
			c-0.1,0.2-0.3,0.4-0.4,0.4c-0.1,0.1-0.3,0.1-0.4,0h0h0c-0.1,0-0.2,0-0.2-0.1c-0.1,0-0.1,0-0.1-0.1c0,0-0.1-0.1-0.1-0.1
			s-0.1-0.1-0.2-0.1c-0.1-0.1-0.2-0.1-0.4-0.2s-0.3-0.1-0.4-0.1c-0.1,0-0.2,0-0.3-0.1c-0.1,0-0.3,0-0.4-0.1c-0.1,0-0.2,0-0.3-0.1
			c-0.1,0-0.2,0-0.2,0c0,0-0.1,0-0.1,0c0,0-0.1,0-0.1,0c0,0-0.1,0-0.1,0c-0.1,0-0.2,0-0.3,0c-0.1,0-0.2,0-0.3,0.1
			c-0.2,0.1-0.4,0.2-0.6,0.4c-0.2,0.2-0.3,0.4-0.4,0.6c-0.1,0.2-0.2,0.4-0.3,0.6c-0.1,0.2-0.2,0.4-0.2,0.7c-0.1,0.2-0.1,0.4-0.1,0.5
			s0,0.4,0,0.6c0,0.3,0.1,0.5,0.2,0.7s0.2,0.4,0.3,0.6c0.1,0.2,0.3,0.3,0.5,0.4c0.2,0.1,0.4,0.2,0.7,0.2c0.1,0,0.1,0,0.2,0
			c0.1,0,0.2,0,0.3,0c0.1,0,0.2,0,0.2,0c0.1,0,0.1,0,0.1,0c0,0,0,0,0.1,0s0.1,0,0.2,0s0.1,0,0.2,0c0.1,0,0.1,0,0.1,0
			c0,0,0.1,0,0.1,0c0.1,0,0.1,0,0.2,0c0.1,0,0.1,0,0.2,0c0.1,0,0.1,0,0.1,0c0.1,0,0.2-0.1,0.3-0.1c0.1,0,0.2-0.1,0.2-0.1
			c0.1-0.1,0.3-0.1,0.4-0.2c0.2-0.1,0.3-0.2,0.4-0.3c0.1-0.1,0.2-0.2,0.3-0.2c0.1-0.1,0.2-0.1,0.4-0.1c0.1,0,0.1,0,0.2,0
			c0.1,0,0.1,0,0.2,0c0,0,0,0,0.1,0.1c0.1,0,0.1,0.1,0.1,0.1c0,0,0.1,0,0.1,0.1c0.1,0,0.1,0.1,0.2,0.2c0.1,0.1,0.2,0.1,0.2,0.2
			c0.1,0,0.1,0.1,0.1,0.1l0.1,0c0,0,0.1,0,0.1,0.1s0.1,0.1,0.2,0.1c0.1,0,0.1,0.1,0.2,0.1c0.1,0,0.1,0.1,0.1,0.1
			c0,0,0.1,0.1,0.1,0.1c0,0,0,0,0,0c0,0,0,0,0,0c0,0,0,0,0,0.1c0,0.1,0,0.1,0,0.2c0,0,0,0.1-0.1,0.1c-0.3,0.4-0.6,0.8-1,1.1
			c-0.3,0.3-0.7,0.7-1.1,1c-0.3,0.2-0.5,0.3-0.8,0.4c-0.2,0.1-0.5,0.2-0.7,0.2c-0.2,0-0.4,0.1-0.6,0.1c-0.2,0-0.4,0-0.6,0
			c0,0-0.1,0-0.2,0s-0.1,0-0.2,0s-0.2,0-0.2,0s-0.1,0-0.2,0c-0.3,0-0.6,0-0.9-0.1c-0.3,0-0.6-0.1-0.9-0.2c0,0-0.1,0-0.1,0
			c-0.1,0-0.2,0-0.2-0.1s-0.2,0-0.2-0.1c-0.1,0-0.1,0-0.2,0c-0.3-0.1-0.5-0.2-0.8-0.4c-0.3-0.1-0.5-0.3-0.7-0.5
			c-0.2-0.2-0.5-0.4-0.7-0.6c-0.2-0.2-0.4-0.4-0.6-0.6c0,0,0-0.1-0.1-0.1c0-0.1-0.1-0.1-0.1-0.2c-0.1-0.1-0.1-0.2-0.1-0.2
			c0-0.1-0.1-0.1-0.1-0.1C101,41.8,101,41.8,100.9,41.7C100.9,41.7,100.9,41.7,100.9,41.7z"/>
		<path class="st4" d="M113.5,31c0-0.1,0-0.2,0-0.3s0-0.2,0.1-0.3c0.1-0.1,0.1-0.2,0.2-0.4c0.1-0.1,0.1-0.2,0.2-0.3
			c0,0,0.1-0.1,0.1-0.1s0.1-0.1,0.2-0.1c0.1,0,0.1-0.1,0.1-0.1c0,0,0.1-0.1,0.1-0.1c0.1-0.1,0.1-0.1,0.2-0.1c0.1,0,0.2,0,0.2,0
			s0.2,0,0.2,0c0.1,0,0.2,0,0.2,0c0.1,0,0.2,0,0.3,0c0.1,0,0.2,0.1,0.3,0.1c0,0,0.1,0,0.2,0.1s0.1,0.1,0.2,0.1
			c0.2,0.2,0.4,0.4,0.6,0.6c0.2,0.2,0.3,0.5,0.3,0.8c0,0.2,0,0.4,0,0.5c0,0.1,0,0.3-0.1,0.4c0,0.1-0.1,0.2-0.2,0.3s-0.2,0.2-0.3,0.3
			c-0.1,0.1-0.3,0.2-0.5,0.3c-0.2,0.1-0.4,0.1-0.5,0.1c0,0,0,0-0.1,0s-0.1,0-0.1,0s-0.1,0-0.1,0s-0.1,0-0.1,0c0,0-0.1,0-0.1,0
			s-0.1,0-0.1,0c0,0-0.1,0-0.1,0s-0.1,0-0.1,0c0,0,0,0-0.1,0c0,0-0.1,0-0.1-0.1c-0.1,0-0.1,0-0.2-0.1s-0.1,0-0.1,0
			c-0.1-0.1-0.2-0.2-0.3-0.3c-0.1-0.1-0.1-0.2-0.2-0.3s-0.1-0.3-0.1-0.4C113.5,31.3,113.5,31.1,113.5,31z M113.8,37.8
			c0,0,0-0.2,0-0.3c0-0.2,0-0.4,0-0.6c0-0.2,0-0.4,0-0.7c0-0.2,0-0.4,0-0.5c0,0,0-0.1,0-0.1s0-0.1,0-0.2s0-0.1,0-0.2
			c0,0,0-0.1,0-0.1v-1.1c0-0.1,0.1-0.1,0.2-0.1c0.1,0,0.2,0,0.2,0h2.6c0,0,0.1,0,0.1,0c0,0,0.1,0,0.1,0.1c0,0,0.1,0.1,0.1,0.2
			c0,0.1,0,0.2,0,0.4c0,0,0,0,0,0.1c0,0,0,0.1,0,0.1s0,0.1,0,0.1s0,0.1,0,0.1c0,0.1,0,0.2,0,0.5c0,0.2,0,0.5,0,0.7s0,0.5,0,0.7
			c0,0.2,0,0.4,0,0.5c0,0,0,0.2,0,0.3c0,0.2,0,0.3,0,0.5c0,0.2,0,0.4,0,0.5c0,0.2,0,0.3,0,0.3c0,0.1,0,0.2,0,0.3c0,0.2,0,0.3,0,0.5
			c0,0.2,0,0.4,0,0.6c0,0.2,0,0.4,0,0.6c0,0.2,0,0.4,0,0.5s0,0.3,0,0.3c0,0.1,0,0.2,0,0.4s0,0.4,0,0.6s0,0.4,0,0.6s0,0.3,0,0.4v0.1
			c0,0.2,0,0.4,0,0.5c-0.1,0.1-0.2,0.2-0.4,0.1l-2.8,0c-0.1,0-0.2,0-0.3-0.1c-0.1-0.1-0.1-0.2-0.1-0.3c0-0.1,0-0.3,0-0.4
			c0-0.2,0-0.3,0-0.5c0-0.1,0-0.3,0-0.4c0-0.2,0-0.3,0-0.5c0-0.2,0-0.3,0-0.5c0-0.2,0-0.3,0-0.4c0-0.3,0-0.7,0-1c0-0.3,0-0.6,0-0.9
			s0-0.6,0-0.9C113.8,38.5,113.8,38.2,113.8,37.8z"/>
		<path class="st4" d="M123.7,44.8c0,0-0.1,0-0.2,0c-0.1,0-0.2,0-0.3-0.1c0,0,0,0-0.1,0s-0.1,0-0.2,0c-0.1,0-0.1,0-0.2-0.1
			c-0.1,0-0.1-0.1-0.2-0.1c0,0,0,0-0.1,0c0,0-0.1,0-0.1-0.1c0,0-0.1,0-0.1-0.1s-0.1,0-0.1,0c-0.1,0-0.2-0.1-0.3-0.2
			c-0.1-0.1-0.2-0.1-0.3-0.2c-0.1-0.1-0.2-0.2-0.3-0.2c-0.1-0.1-0.2-0.2-0.2-0.2c-0.3-0.3-0.5-0.6-0.8-0.9c-0.2-0.3-0.4-0.6-0.6-1
			c-0.1-0.3-0.2-0.5-0.3-0.8c-0.1-0.2-0.1-0.5-0.2-0.7c0-0.2-0.1-0.5-0.1-0.7c0-0.2,0-0.5,0-0.8v-0.7c0.1-0.3,0.2-0.7,0.3-1
			s0.2-0.6,0.4-0.9c0.1-0.3,0.3-0.5,0.5-0.8s0.4-0.5,0.7-0.7c0.2-0.2,0.4-0.3,0.6-0.5c0.2-0.1,0.4-0.3,0.6-0.4c0,0,0,0,0.1,0
			c0,0,0.1,0,0.1,0s0.1,0,0.1,0s0.1,0,0.1,0c0,0,0.1,0,0.1,0c0.1,0,0.1,0,0.1,0c0,0,0.1,0,0.1-0.1s0.1-0.1,0.1-0.1c0,0,0,0,0.1,0
			c0,0,0.1,0,0.1,0c0,0,0.1,0,0.1,0s0,0,0.1,0c0,0,0.1,0,0.2,0c0.1,0,0.2,0,0.3-0.1c0.1,0,0.2,0,0.3-0.1c0.1,0,0.1,0,0.2,0
			c0,0,0.1,0,0.3,0c0.1,0,0.3,0,0.4,0c0.1,0,0.3,0,0.4,0c0.1,0,0.2,0,0.3,0h0.1c0,0,0.1,0,0.1,0c0,0,0.1,0,0.1,0c0.1,0,0.3,0,0.4,0
			c0.1,0,0.2,0,0.3,0.1c0.2,0,0.3,0.1,0.5,0.1c0.2,0,0.3,0.1,0.5,0.1c0,0,0.1,0.1,0.2,0.1s0.2,0.1,0.3,0.2c0.1,0.1,0.2,0.1,0.3,0.2
			c0.1,0.1,0.2,0.1,0.2,0.1c0,0,0.1,0.1,0.1,0.1c0.1,0.1,0.2,0.2,0.2,0.2c0.1,0.1,0.2,0.2,0.3,0.3c0.1,0.1,0.1,0.2,0.2,0.2
			c0,0,0,0,0.1,0.1c0,0,0.1,0.1,0.1,0.1s0.1,0.1,0.1,0.2c0,0.1,0.1,0.1,0.1,0.1c0.2,0.3,0.4,0.7,0.5,1c0.1,0.3,0.3,0.6,0.3,1
			c0.1,0.3,0.1,0.7,0.2,1s0.1,0.7,0.1,1.1v0c0,0.1,0,0.2,0,0.4c0,0.2,0,0.4,0,0.5c0,0.2,0,0.3,0,0.5c0,0.1,0,0.2,0,0.2
			c0,0.3-0.1,0.6-0.2,0.9c-0.1,0.3-0.2,0.5-0.3,0.8c-0.1,0.1-0.2,0.3-0.3,0.4s-0.1,0.2-0.2,0.3c-0.1,0.1-0.2,0.2-0.2,0.3
			c-0.1,0.1-0.2,0.2-0.4,0.4c-0.2,0.2-0.4,0.3-0.7,0.4c-0.2,0.1-0.5,0.2-0.7,0.3s-0.5,0.2-0.8,0.2s-0.5,0.1-0.8,0.1c0,0-0.1,0-0.1,0
			s-0.1,0-0.2,0c-0.1,0-0.1,0-0.2,0c-0.1,0-0.1,0-0.1,0c0,0,0,0-0.1,0c0,0-0.1,0-0.1,0s0,0-0.1,0s-0.1,0-0.1,0c-0.1,0-0.1,0-0.1,0
			s-0.1,0-0.1,0c0,0-0.1,0-0.2,0s-0.2,0-0.3,0s-0.2,0-0.3,0c-0.1,0-0.1,0-0.2,0h-0.1L123.7,44.8z M122.5,38.7c0,0.2,0,0.3,0,0.5
			c0,0.2,0.1,0.3,0.1,0.5c0,0,0,0,0,0.1c0,0.1,0,0.1,0,0.1c0,0.1,0,0.2,0.1,0.3c0,0.1,0,0.2,0.1,0.3c0,0.1,0.1,0.2,0.1,0.3
			c0,0.1,0.1,0.2,0.1,0.2c0,0,0,0,0.1,0.1c0,0,0.1,0.1,0.1,0.1s0.1,0.1,0.1,0.1c0,0,0.1,0.1,0.1,0.1c0,0,0,0,0.1,0
			c0,0,0.1,0,0.1,0.1c0,0,0.1,0.1,0.1,0.1c0,0,0.1,0.1,0.1,0.1l0.1,0.1c0,0,0.1,0,0.1,0.1c0.1,0,0.1,0.1,0.1,0.1c0,0,0,0,0.1,0
			c0,0,0.1,0,0.1,0c0.1,0.1,0.2,0.1,0.3,0.1c0.1,0,0.1,0,0.2,0c0,0,0.1,0,0.1,0c0.1,0,0.1,0,0.2,0c0,0,0,0,0.1,0s0.1,0,0.1,0
			c0,0,0.1,0,0.1,0s0.1,0,0.1,0c0.3,0,0.5-0.1,0.8-0.3s0.5-0.3,0.6-0.6c0.2-0.2,0.3-0.5,0.4-0.7c0.1-0.3,0.2-0.5,0.2-0.8
			c0,0,0-0.1,0-0.2c0-0.1,0-0.4,0-0.7c0-0.2,0-0.3-0.1-0.5s-0.1-0.3-0.2-0.5c-0.1-0.2-0.2-0.4-0.4-0.6c-0.2-0.2-0.4-0.3-0.6-0.5
			c-0.1-0.1-0.2-0.2-0.3-0.2c-0.1-0.1-0.2-0.1-0.3-0.1c-0.1,0-0.2-0.1-0.3-0.1c-0.1,0-0.2,0-0.4,0c-0.1,0-0.3,0-0.4,0
			c-0.1,0-0.2,0-0.4,0c-0.1,0-0.3,0.1-0.5,0.1s-0.3,0.1-0.5,0.2c-0.1,0.1-0.3,0.2-0.4,0.3c-0.1,0.1-0.2,0.2-0.3,0.4l-0.2,0.4
			c0,0-0.1,0.1-0.1,0.2s-0.1,0.2-0.1,0.3c0,0.1,0,0.2,0,0.3S122.5,38.6,122.5,38.7z"/>
		<path class="st4" d="M132.2,45.1c-0.1,0-0.1,0-0.2-0.1c-0.1,0-0.1-0.1-0.1-0.1c0-0.1,0-0.1-0.1-0.2s0-0.1,0-0.2s0-0.1,0-0.1
			c0-0.5,0-0.9,0-1.4c0-0.5,0-0.9,0-1.4c0-0.5,0-0.9,0-1.4s0-0.9,0.1-1.4l0-0.4c0,0,0-0.1,0-0.1c0,0,0-0.1,0-0.1s0-0.1,0-0.1v-0.5
			c0,0,0-0.1,0-0.2c0-0.1,0-0.3,0-0.4s0-0.3,0-0.4c0-0.1,0-0.2,0-0.3c0,0,0-0.1,0-0.2c0-0.1,0-0.3,0-0.4c0-0.1,0-0.3,0-0.4
			c0-0.1,0-0.2,0-0.3c0-0.1,0-0.3,0-0.4c0-0.2,0-0.3,0-0.5l0-0.3c0-0.1,0-0.1,0.1-0.1c0,0,0.1,0,0.1,0s0.1,0,0.1,0c0,0,0.1,0,0.1,0
			c0,0,0.1,0,0.1,0s0.1,0,0.2,0s0.1,0,0.2,0s0.1,0,0.1,0c0.1,0,0.2,0,0.3,0c0.1,0,0.2,0,0.3,0s0.2,0,0.3,0s0.2,0,0.3,0l0.1,0
			c0,0,0,0,0.1,0c0,0,0.1,0,0.1,0c0,0,0.1,0,0.1,0c0,0,0.1,0,0.1,0c0.1,0,0.2,0.1,0.3,0.1c0.1,0,0.1,0.1,0.1,0.1c0,0.1,0,0.1,0,0.2
			c0,0.1,0,0.2,0,0.3c0.3-0.2,0.5-0.4,0.8-0.6s0.6-0.3,0.9-0.3c0.3-0.1,0.6-0.1,0.9-0.1c0.3,0,0.6,0,1,0c0.1,0,0.2,0,0.3,0
			c0.1,0,0.2,0,0.3,0.1c0.1,0,0.2,0.1,0.3,0.1s0.2,0.1,0.3,0.1c0.1,0,0.1,0.1,0.2,0.2c0.1,0.1,0.2,0.1,0.3,0.2
			c0.1,0.1,0.2,0.1,0.2,0.2s0.1,0.1,0.1,0.1c0.2,0.1,0.3,0.3,0.4,0.4c0.1,0.2,0.2,0.3,0.3,0.5c0.1,0.2,0.2,0.4,0.2,0.6
			c0.1,0.2,0.1,0.4,0.2,0.6c0,0,0,0.1,0.1,0.2c0,0.1,0,0.2,0.1,0.3c0,0.1,0,0.2,0.1,0.4c0,0.1,0,0.2,0,0.3v0.2c0,0,0,0.1,0,0.2
			s0,0.2,0,0.3c0,0.1,0,0.2,0,0.3s0,0.2,0,0.2l0,1.5l0,0.3c0,0,0,0.1,0,0.1s0,0.1,0,0.2c0,0.1,0,0.1,0,0.2s0,0.1,0,0.1l0,0.2
			c0,0.1,0,0.3,0,0.4c0,0.2,0,0.4,0,0.6s0,0.4,0,0.6c0,0.2,0,0.4,0,0.6c0,0.2,0,0.3,0,0.4c0,0.1,0,0.2,0,0.2c0,0,0,0.1,0,0.1
			s0,0.1,0,0.2s0,0.1,0,0.2s0,0.1,0,0.1l0,0.1c0,0.1,0,0.1-0.1,0.1c-0.1,0-0.1,0-0.2,0c0,0,0,0-0.1,0c0,0-0.1,0-0.1,0s-0.1,0-0.1,0
			c0,0,0,0,0,0c0,0-0.1,0-0.1,0c-0.1,0-0.1,0-0.2,0c-0.1,0-0.2,0-0.2,0s-0.1,0-0.1,0c-0.3,0-0.5,0-0.8,0c-0.2,0-0.5,0-0.8,0
			c-0.1,0-0.2,0-0.2-0.1c0-0.1-0.1-0.1-0.1-0.2c0-0.1,0-0.1,0-0.2c0-0.1,0-0.2,0-0.2c0,0,0-0.1,0-0.2c0-0.1,0-0.2,0-0.4
			c0-0.1,0-0.3,0-0.5s0-0.3,0-0.5c0-0.1,0-0.3,0-0.4s0-0.2,0-0.2l0-2.1c0-0.2,0-0.5,0-0.7c0-0.3,0-0.6-0.1-0.9
			c0-0.3-0.1-0.6-0.2-0.9s-0.2-0.5-0.3-0.7c-0.1-0.2-0.2-0.4-0.4-0.5c-0.1-0.1-0.3-0.2-0.5-0.2l-0.3,0c-0.2,0-0.4,0-0.5,0.1
			c-0.1,0.1-0.3,0.1-0.5,0.2c0,0,0,0,0,0c0,0,0,0,0,0c-0.2,0.1-0.3,0.3-0.4,0.5c-0.1,0.2-0.2,0.5-0.3,0.8c-0.1,0.3-0.1,0.6-0.2,0.9
			c-0.1,0.3-0.1,0.6-0.1,1c0,0,0,0.1,0,0.2c0,0.1,0,0.3,0,0.4s0,0.3,0,0.4c0,0.1,0,0.3,0,0.3c0,0,0,0,0,0.1s0,0.1,0,0.2
			c0,0.1,0,0.1,0,0.2c0,0.1,0,0.1,0,0.2c0,0,0,0.1,0,0.1c0,0.1,0,0.1,0,0.2c0,0.1,0,0.1,0,0.2c0,0.1,0,0.1,0,0.1l0,1.3
			c0,0,0,0.1,0,0.1c0,0.1,0,0.1,0,0.1c0,0,0,0,0,0c0,0,0,0.1,0,0.1c0,0,0,0.1,0,0.1c0,0,0,0,0,0.1c0,0,0,0.1,0,0.2
			c0,0.1,0,0.1,0,0.2c0,0.1,0,0.1-0.1,0.2s-0.1,0.1-0.2,0.1c-0.1,0-0.3,0-0.5,0c-0.2,0-0.3,0-0.5,0c-0.2,0-0.4,0-0.5,0
			C132.5,45.1,132.4,45.1,132.2,45.1z"/>
		<path class="st4" d="M152.1,45c-0.1,0-0.1-0.1-0.1-0.2c0-0.1,0-0.2,0-0.2c0,0,0,0,0-0.1c0,0,0,0,0-0.1v-0.1c0-0.1,0-0.2,0.1-0.2
			c0-0.1,0.1-0.1,0.1-0.2V44c0,0,0,0-0.1,0c0,0-0.1,0-0.1,0c0,0-0.1,0.1-0.2,0.1s-0.2,0.1-0.3,0.2c-0.1,0.1-0.2,0.1-0.3,0.2
			s-0.2,0.1-0.2,0.1l-0.7,0.3h-0.1c0,0,0,0-0.1,0c0,0-0.1,0-0.1,0s-0.1,0-0.1,0s-0.1,0-0.1,0h-0.5c-0.1,0-0.2,0-0.3,0s-0.2,0-0.3,0
			c-0.1,0-0.2,0-0.3,0c-0.1,0-0.2,0-0.3,0c0,0,0,0-0.1,0c-0.1,0-0.1,0-0.2,0c-0.1,0-0.1,0-0.2,0c-0.1,0-0.1,0-0.1,0h-0.5l-0.3-0.1
			c0,0-0.1-0.1-0.2-0.1c-0.1,0-0.2-0.1-0.3-0.2s-0.2-0.1-0.3-0.2s-0.2-0.1-0.2-0.1c0,0-0.1,0-0.2-0.1c-0.1,0-0.1-0.1-0.2-0.1
			c-0.1,0-0.1-0.1-0.2-0.1c-0.1,0-0.1-0.1-0.1-0.1c0,0,0,0,0,0c0,0-0.1,0-0.1-0.1c0,0-0.1-0.1-0.1-0.1c0,0-0.1,0-0.1-0.1
			c-0.1-0.1-0.3-0.3-0.4-0.5c-0.1-0.2-0.3-0.3-0.4-0.5c-0.1-0.1-0.2-0.3-0.3-0.6c-0.1-0.2-0.2-0.5-0.2-0.8c-0.1-0.3-0.1-0.5-0.1-0.8
			c0-0.3,0-0.5,0-0.7c0-0.2,0-0.5,0-0.7s0-0.4,0-0.6c0-0.2,0.1-0.4,0.1-0.6s0.1-0.4,0.2-0.7c0,0,0-0.1,0.1-0.2
			c0-0.1,0.1-0.2,0.1-0.3c0-0.1,0.1-0.2,0.1-0.3c0-0.1,0-0.1,0,0c0.1-0.3,0.2-0.5,0.4-0.8s0.3-0.5,0.5-0.7s0.4-0.4,0.6-0.6
			c0.2-0.2,0.5-0.3,0.7-0.5c0,0,0.1,0,0.2-0.1c0.1,0,0.2-0.1,0.3-0.1s0.2-0.1,0.3-0.1s0.2-0.1,0.2-0.1c0,0,0,0,0.1,0
			c0,0,0.1,0,0.1,0c0,0,0.1,0,0.1,0c0,0,0.1,0,0.1,0c0,0,0.1,0,0.1,0c0.1,0,0.1,0,0.1,0h1.8c0.2,0.1,0.4,0.1,0.6,0.2
			s0.4,0.1,0.6,0.2c0.2,0.1,0.4,0.2,0.5,0.3c0.2,0.1,0.3,0.2,0.5,0.4h0c0,0,0,0,0-0.1c0,0,0-0.1,0-0.1c0,0,0-0.1,0-0.1
			c0,0,0-0.1,0-0.1c0,0,0,0,0-0.1c0,0,0-0.1,0-0.1c0,0,0-0.1,0-0.1s0-0.1,0-0.1c0,0,0-0.1,0-0.1c0,0,0.1-0.1,0.1-0.1
			c0,0,0.1,0,0.1-0.1c0.1,0,0.1,0,0.1,0c0.3,0,0.6,0,0.8,0c0.2,0,0.4,0,0.7,0c0.2,0,0.4,0,0.7,0c0.2,0,0.5,0.1,0.8,0.1
			c0,0,0,0,0.1,0c0,0,0.1,0,0.1,0.1c0,0.1,0,0.1,0,0.2c0,0.1,0,0.2,0,0.2s0,0.2,0,0.3c0,0.1,0,0.2,0,0.2c0,0,0,0,0,0.1s0,0.1,0,0.2
			c0,0.1,0,0.1,0,0.2c0,0.1,0,0.1,0,0.1c0,0,0,0.1,0,0.1c0,0.1,0,0.1,0,0.1c0,0,0,0.1,0,0.1s0,0.1,0,0.2c0,0.1,0,0.1,0,0.2
			s0,0.1,0,0.1c0,0,0,0,0,0.1c0,0,0,0.1,0,0.1l0,2.1v0.1c0,0,0,0.2,0,0.4s0,0.5,0,0.8c0,0.3,0,0.7,0,1.1c0,0.4,0,0.8,0,1.2
			c0,0.4,0,0.8,0,1.2c0,0.4,0,0.7,0,0.9c0,0,0,0.1,0,0.1c0,0.1,0,0.2,0,0.2s0,0.2,0,0.2c0,0.1,0,0.1,0,0.1v0.1v0.1
			c0,0-0.1,0-0.1,0.1c-0.1,0-0.1,0-0.1,0.1c-0.2,0-0.3,0-0.4,0c-0.1,0-0.2,0-0.3,0c-0.1,0-0.2,0-0.3,0s-0.2,0-0.4,0h-0.4
			c0,0-0.1,0-0.2,0c-0.1,0-0.2,0-0.3,0c-0.1,0-0.2,0-0.3,0S152.1,45,152.1,45z M146.8,39.1c0,0.3,0.1,0.6,0.2,0.9
			c0.1,0.3,0.2,0.5,0.4,0.8c0,0,0,0,0.1,0.1c0,0,0,0.1,0.1,0.1c0.1,0.2,0.3,0.3,0.4,0.4s0.3,0.3,0.5,0.4c0.2,0.1,0.4,0.2,0.5,0.3
			c0.2,0.1,0.4,0.1,0.6,0.1c0.2,0,0.4,0,0.6-0.1c0.2-0.1,0.4-0.1,0.6-0.2c0,0,0.1,0,0.1,0c0,0,0.1,0,0.1-0.1c0,0,0.1,0,0.1-0.1
			c0,0,0.1,0,0.1,0c0.2-0.2,0.4-0.4,0.5-0.6c0.1-0.2,0.3-0.5,0.3-0.7c0.1-0.3,0.1-0.5,0.2-0.8c0-0.3,0.1-0.5,0.1-0.8
			c0,0,0-0.1,0-0.2c0-0.1,0-0.1,0-0.2c0-0.1,0-0.2,0-0.2s0-0.1,0-0.1l-0.1-0.2c0,0,0-0.1-0.1-0.1c0,0,0-0.1-0.1-0.1
			c-0.1-0.2-0.2-0.4-0.4-0.7c-0.1-0.2-0.3-0.4-0.5-0.5c0,0-0.1-0.1-0.2-0.1s-0.1-0.1-0.2-0.1c-0.1,0-0.1-0.1-0.2-0.1
			c-0.1,0-0.1-0.1-0.2-0.1c0,0-0.1,0-0.1,0c-0.1,0-0.1,0-0.2-0.1c-0.1,0-0.1,0-0.2,0s-0.1,0-0.1,0c0-0.1-0.1-0.1-0.2-0.1
			c-0.1,0-0.2,0-0.2,0c-0.1,0-0.2,0-0.3,0c-0.1,0-0.2,0-0.2,0c-0.1,0-0.2,0-0.3,0c-0.1,0-0.2,0.1-0.3,0.1s-0.2,0.1-0.3,0.2
			c-0.1,0.1-0.2,0.1-0.2,0.2c0,0,0,0-0.1,0.1c0,0-0.1,0.1-0.1,0.1s-0.1,0.1-0.1,0.1s-0.1,0.1-0.1,0.1c-0.2,0.3-0.4,0.5-0.5,0.9
			c-0.1,0.2-0.1,0.5-0.1,0.7S146.8,38.9,146.8,39.1z"/>
		<path class="st4" d="M157.3,45.1l-0.5,0c0,0-0.1,0-0.1,0c0,0,0,0,0-0.1c0-0.1,0-0.1,0-0.2s0-0.1,0-0.2c0-0.1,0-0.1,0-0.2
			s0-0.1,0-0.1c0,0,0-0.1,0-0.1c0,0,0-0.1,0-0.1c0-0.1,0-0.3,0-0.6s0-0.6,0-1.1c0-0.4,0-0.9,0-1.4c0-0.5,0-1,0-1.5s0-1,0-1.4
			s0-0.8,0-1.1c0-0.1,0-0.1,0-0.2c0-0.1,0-0.2,0-0.3c0-0.1,0-0.2,0-0.3s0-0.2,0-0.3c0,0,0,0,0-0.1c0,0,0-0.1,0-0.1c0,0,0,0,0,0
			c0,0,0-0.1,0-0.1l0-0.1l0.1-0.1c0-0.2,0-0.3,0-0.4c0-0.1,0-0.2,0-0.4c0,0,0-0.1,0-0.1c0,0,0-0.1,0-0.1c0,0,0-0.1,0-0.1
			c0,0,0,0,0-0.1c0,0,0-0.1,0-0.1s0,0,0-0.1s0-0.1,0-0.1c0,0,0,0,0-0.1s0-0.1,0-0.1s0-0.1,0-0.1c0,0,0-0.1,0-0.1l0,0c0,0,0,0,0,0
			c0.2,0,0.4-0.1,0.6-0.1s0.4-0.1,0.6-0.1c0.2,0,0.5,0,0.7,0c0.2,0,0.5,0.1,0.7,0.1c0,0,0.1,0,0.1,0c0.1,0,0.1,0,0.2,0
			c0.1,0,0.1,0,0.2,0.1c0,0,0.1,0.1,0.1,0.1c0,0.1,0,0.2,0,0.3c0,0.1,0,0.2,0,0.3v0c0,0,0,0,0,0s0,0,0,0c0,0,0.1,0,0.2-0.1
			c0.1,0,0.1-0.1,0.2-0.1c0.1,0,0.1-0.1,0.2-0.1c0.1,0,0.1-0.1,0.2-0.1c0,0,0,0,0.1-0.1c0.1,0,0.1-0.1,0.1-0.1c0,0,0,0,0.1,0
			s0.1,0,0.1,0c0.1,0,0.1-0.1,0.2-0.1c0.1,0,0.2-0.1,0.2-0.1c0.1,0,0.2-0.1,0.2-0.1c0.1,0,0.1,0,0.1-0.1c0.1-0.1,0.3-0.1,0.5-0.1
			c0.2,0,0.3,0,0.5,0c0.3,0,0.5,0,0.8,0.1c0.3,0.1,0.6,0.1,0.8,0.2c0.3,0.1,0.5,0.2,0.7,0.4c0.2,0.1,0.4,0.3,0.5,0.4
			c0,0,0.1,0.1,0.1,0.2c0.1,0.1,0.1,0.1,0.1,0.2s0.1,0.1,0.1,0.2c0,0.1,0.1,0.1,0.1,0.2c0,0,0,0.1-0.1,0.1s-0.1,0.1-0.1,0.2
			c-0.1,0.1-0.1,0.1-0.2,0.2s-0.1,0.1-0.1,0.1c0,0,0,0,0,0c0,0,0,0-0.1,0.1c0,0-0.1,0-0.1,0.1c0,0,0,0,0,0c0,0-0.1,0-0.1,0.1
			s-0.1,0.1-0.1,0.1c0,0-0.1,0.1-0.1,0.1c0,0-0.1,0-0.1,0.1c-0.1,0.1-0.2,0.2-0.3,0.3c-0.1,0.1-0.2,0.2-0.3,0.3
			c-0.1,0.1-0.2,0.1-0.3,0.2s-0.2,0.1-0.4,0.1H163c0,0,0,0,0,0c0,0,0,0-0.1,0c-0.2-0.1-0.5-0.2-0.8-0.3c-0.3-0.1-0.5-0.2-0.8-0.2
			c-0.2,0-0.4,0.1-0.5,0.2s-0.3,0.3-0.4,0.4c0,0,0,0.1-0.1,0.1c-0.1,0.1-0.1,0.1-0.1,0.1c0,0,0,0.1-0.1,0.1s-0.1,0.1-0.1,0.2
			c0,0.1-0.1,0.1-0.1,0.2s-0.1,0.1-0.1,0.2c-0.1,0.1-0.1,0.3-0.1,0.5c0,0.2,0,0.3,0,0.5c-0.1,0.6-0.1,1.2-0.1,1.6s0,1,0.1,1.4
			c0,0.3,0.1,0.6,0.1,1c0,0.3,0.1,0.6,0.1,1c0,0,0,0.1,0,0.2s0,0.2,0,0.3s0,0.2,0,0.3s0,0.2,0,0.2c0,0,0,0,0,0c0,0,0,0,0,0l0,0h0h0
			c0,0,0,0-0.1,0c0,0,0,0-0.1,0L157.3,45.1z"/>
	</g>
	<path class="st5" d="M168.3,6.7H44c-5.8,0-11.2,1.5-15.9,4.1c3.3-1.1,6.1-2.7,9.7-2.7h124.3c18,0,36.5,9.7,36.5,32.1l0,0
		c0,12-7.6,24.4-17,29.4c7.4-2.2,20.2-14.1,19.3-30.6v0C201,21.2,186.3,6.7,168.3,6.7z"/>
	<path class="st6" d="M44.7,71.3c-18,0-31.6-14.4-31.6-32.5v-3.1c0-12.3,10-21.6,20-27.3c-14.2,5-22.3,16.8-22.3,31.3v0
		c0,18.2,14.7,33,32.7,33h124.3c5.8,0,11.2-1.5,15.9-4.2c-3.3,1.1-8.6,2.8-12.3,2.8H44.7z"/>
	<path class="st7" d="M191.7,39.2c0-13-10.6-23.6-23.6-23.6H44.4c-8.6,0-16.1,4.6-20.2,11.5c4.3-5.8,10.9-8.8,18.7-8.8l124,0.5
		c13,0,23.5,9.3,23.5,22.3v0c0,4.4-1.2,8.5-3.3,12.1C190,49.2,191.7,44.4,191.7,39.2L191.7,39.2z"/>
	<path class="st8" d="M168.5,60.2L46.1,59.8c-13,0-24.3-9.1-24.3-22.1v0c0-4.4,1.2-8.5,3.3-12.1c-2.9,3.9-4.6,8.7-4.6,13.9v0
		c0,13,10,23.6,23,23.6h123.4c8.6,0,16.1-2.8,21.1-11.6C183.7,57.4,176.3,60.2,168.5,60.2z"/>
</g>
</svg>
