<?xml version="1.0" encoding="utf-8"?>
<!-- Generator: Adobe Illustrator 24.2.0, SVG Export Plug-In . SVG Version: 6.00 Build 0)  -->
<svg version="1.1" id="Layer_1" xmlns="http://www.w3.org/2000/svg" xmlns:xlink="http://www.w3.org/1999/xlink" x="0px" y="0px"
	 viewBox="0 0 338.4 93" style="enable-background:new 0 0 338.4 93;" xml:space="preserve">
<style type="text/css">
	.st0{fill:#FFFFFF;}
	.st1{fill:none;stroke:#000000;stroke-width:3;stroke-miterlimit:10;}
	.st2{fill:#4386C6;}
	.st3{opacity:0.19;}
	.st4{clip-path:url(#SVGID_2_);}
	.st5{opacity:0.46;}
	.st6{clip-path:url(#SVGID_4_);fill:#FFFFFF;}
	.st7{clip-path:url(#SVGID_6_);fill:#FFFFFF;}
	.st8{fill:#034D7F;}
	.st9{fill:#034D7F;stroke:#034D7F;stroke-miterlimit:10;}
	.st10{clip-path:url(#SVGID_8_);}
	.st11{clip-path:url(#SVGID_10_);fill:#FFFFFF;}
	.st12{clip-path:url(#SVGID_12_);fill:#FFFFFF;}
	.st13{clip-path:url(#SVGID_14_);fill:#FFFFFF;}
	.st14{fill:#E86766;}
	.st15{clip-path:url(#SVGID_16_);}
	.st16{fill:#9B3635;}
	.st17{clip-path:url(#SVGID_18_);fill:#FFFFFF;}
	.st18{clip-path:url(#SVGID_20_);fill:#FFFFFF;}
</style>
<path class="st0" d="M289.9,90H48.2c-22.5,0-41-19.6-41-43.6l0,0C7.2,22.6,25.7,3,48.2,3h241.7c22.5,0,41,19.6,41,43.5l0,0
	C331.1,70.4,312.6,90,289.9,90"/>
<path d="M289.9,91.5H48.2c-23.5,0-42.5-20.2-42.5-45.1c0-24.8,19.1-45,42.5-45h241.7c23.5,0,42.5,20.2,42.5,45
	c0,12.3-4.8,24.2-13.3,32.7C311.3,87.2,300.9,91.5,289.9,91.5z M48.2,4.5c-21.8,0-39.5,18.8-39.5,42c0,23.2,17.7,42.1,39.5,42.1
	h241.7c10.1,0,19.8-4.1,27.2-11.5c7.9-7.9,12.4-19.1,12.4-30.6c0-23.2-17.7-42-39.5-42H48.2z"/>
<g>
	<path class="st2" d="M290,80.3H48.2c-17.6,0-32-15.2-32-33.9l0,0c0-18.6,14.3-33.9,32-33.9H290c17.5,0,32,15.2,32,33.9l0,0
		C322,65.2,307.6,80.3,290,80.3"/>
	<path d="M290,81.3H48.2c-18.2,0-33-15.7-33-34.9c0-19.2,14.8-34.9,33-34.9H290c18.2,0,33,15.7,33,34.9
		C323,65.7,308.2,81.3,290,81.3z M48.2,13.5c-17.1,0-31,14.8-31,32.9c0,18.1,13.9,32.9,31,32.9H290c17.1,0,31-14.8,31-32.9
		c0-18.1-13.9-32.9-31-32.9H48.2z"/>
</g>
<g class="st3">
	<g>
		<g>
			<defs>
				<rect id="SVGID_7_" x="16.6" y="24.1" width="302.7" height="55.9"/>
			</defs>
			<clipPath id="SVGID_2_">
				<use xlink:href="#SVGID_7_"  style="overflow:visible;"/>
			</clipPath>
			<path class="st4" d="M294.9,72.5H53.1c-17.5,0-32-15.2-32-33.9c0-5.2,1.1-10.2,3.1-14.6c-4.8,5.9-7.7,13.6-7.7,22l0,0
				c0,18.6,14.3,33.9,32,33.9h241.8c12.6,0,23.7-7.9,28.8-19.3C313.3,67.9,304.7,72.5,294.9,72.5"/>
		</g>
	</g>
</g>
<g class="st5">
	<g>
		<g>
			<defs>
				<rect id="SVGID_9_" x="166.7" y="16.7" width="120.8" height="6.5"/>
			</defs>
			<clipPath id="SVGID_4_">
				<use xlink:href="#SVGID_9_"  style="overflow:visible;"/>
			</clipPath>
			<path class="st6" d="M284.2,23.2H170c-1.8,0-3.3-1.5-3.3-3.3s1.5-3.3,3.3-3.3h114.2c1.8,0,3.3,1.5,3.3,3.3
				C287.5,21.7,286,23.2,284.2,23.2"/>
		</g>
	</g>
</g>
<g class="st5">
	<g>
		<g>
			<defs>
				<rect id="SVGID_11_" x="290.1" y="17.6" width="5.6" height="5.6"/>
			</defs>
			<clipPath id="SVGID_6_">
				<use xlink:href="#SVGID_11_"  style="overflow:visible;"/>
			</clipPath>
			<path class="st7" d="M295.7,20.4c0,1.6-1.3,2.8-2.8,2.8c-1.6,0-2.8-1.3-2.8-2.8c0-1.6,1.3-2.8,2.8-2.8
				C294.5,17.6,295.7,18.8,295.7,20.4"/>
		</g>
	</g>
</g>
<g>
	<path class="st8" d="M145.4,50.4c0,0,0-0.1-0.1-0.1l0-0.2c0-0.1,0-0.2-0.1-0.2c0,0,0,0-0.1-0.2c0,0,0,0,0-0.1c0,0,0-0.1-0.1-0.1
		l-0.3-0.6c0-0.1-0.1-0.1-0.1-0.2c0-0.1,0-0.1-0.1-0.1l-0.3,0.2l0,0l0.3-0.3c0,0,0,0-0.1-0.1c0,0,0-0.1-0.1-0.1c0,0,0-0.1-0.1-0.1
		c0-0.1-0.1-0.1-0.1-0.2c0-0.1-0.1-0.1-0.1-0.2l-0.1-0.2c0-0.1-0.1-0.2-0.2-0.3l0,0c0,0-0.1-0.1-0.2-0.2l-0.5-0.6
		c-0.1-0.1-0.2-0.2-0.2-0.2c-0.2-0.3-0.4-0.5-0.7-0.8c-0.3-0.3-0.5-0.5-0.9-0.8l-0.2-0.2c0,0-0.1-0.1-0.2-0.2l-0.3,0.2c0,0,0,0,0,0
		l0.2-0.3l-0.1-0.1c-0.1,0-0.2-0.1-0.3-0.2c-0.1-0.1-0.3-0.2-0.4-0.3l-0.4-0.3c-0.1-0.1-0.1-0.1-0.2-0.1c0-0.1-0.1-0.1-0.1-0.1
		c0,0,0-0.1-0.1-0.1c-0.2-0.2-0.3-0.3-0.5-0.5c-0.2-0.1-0.3-0.3-0.4-0.5c-0.1-0.2-0.3-0.3-0.4-0.5c-0.1-0.1-0.2-0.3-0.2-0.4
		c0-0.1,0.1-0.1,0.1-0.2l-0.4,0c0,0,0,0,0,0l0.4-0.1l0-0.3c0-0.1,0-0.1,0-0.1c0-0.1,0.1-0.2,0.1-0.1c0.1-0.1,0.1-0.1,0.2-0.2
		c0.1,0,0.2-0.1,0.2-0.1c0.1,0,0.2,0,0.3,0h0.4c0,0,0.1,0,0.1,0c0.1,0.1,0.1,0.1,0.2,0.1l0.4,0.1c0,0,0.1,0,0.1,0
		c0.1,0.1,0.2,0.1,0.3,0.2c0.1,0.1,0.2,0.2,0.4,0.4c0.1,0.1,0.2,0.3,0.3,0.4c0.1,0.1,0.2,0.3,0.3,0.5c0,0,0.1,0.1,0.1,0.1
		c0,0.1,0,0.1,0.1,0.2c0,0,0.1,0.2,0.1,0.2c0.1,0.1,0.2,0.2,0.4,0.2c0.1,0,0.2,0,0.2,0c0.3,0,0.5-0.1,0.6-0.2
		c0.1-0.1,0.2-0.1,0.3-0.3c0.2-0.1,0.3-0.3,0.5-0.4c0.2-0.2,0.3-0.3,0.5-0.4c0.1-0.1,0.2-0.2,0.3-0.3c0,0,0,0,0,0
		c0,0,0.1-0.1,0.1-0.1l0.1-0.1c0.1-0.1,0.1-0.1,0.1-0.1c0,0,0.1-0.1,0.1-0.1c0,0,0.1-0.1,0.1-0.1l0.3-0.3c0.1-0.1,0.1-0.2,0.1-0.3
		l0-0.1c0-0.2,0-0.4-0.1-0.5c0-0.1-0.1-0.2-0.2-0.3l-0.4-0.5c0,0-0.1-0.1-0.2-0.2c-0.1-0.1-0.2-0.2-0.3-0.4l-0.6-0.6
		c0-0.1-0.1-0.1-0.1-0.1l-0.4-0.3c0,0-0.1-0.1-0.1-0.1c-0.3-0.2-0.6-0.3-0.8-0.5c-0.3-0.1-0.5-0.3-0.8-0.4c-0.3-0.1-0.6-0.2-0.9-0.3
		c-0.3-0.1-0.6-0.1-1-0.1c-0.1,0-0.2,0-0.3,0c-0.1,0-0.3,0-0.4,0c-0.1,0-0.3,0-0.4,0c-0.2,0-0.3,0-0.4,0.1c-0.2,0.1-0.5,0.2-0.7,0.2
		c-0.2,0.1-0.5,0.1-0.7,0.2c-0.2,0.1-0.5,0.2-0.7,0.3c-0.2,0.1-0.5,0.3-0.7,0.5l-0.2,0.2c-0.1,0.1-0.2,0.2-0.3,0.3
		c-0.1,0.1-0.2,0.2-0.3,0.2c-0.1,0.1-0.1,0.1-0.1,0.1c0,0-0.1,0.1-0.1,0.2l0,0l-0.1,0.2c-0.1,0.1-0.1,0.2-0.2,0.3
		c-0.1,0.1-0.1,0.2-0.1,0.2c0,0,0,0,0,0c0,0-0.1,0.1-0.1,0.1c-0.2,0.3-0.3,0.6-0.5,0.9c-0.1,0.3-0.2,0.7-0.2,1.1
		c0,0.4,0,0.9,0.2,1.4c0.1,0.5,0.3,0.9,0.5,1.3c0.2,0.4,0.5,0.8,0.7,1.2c0.3,0.4,0.6,0.7,0.9,1.1c0.2,0.2,0.4,0.4,0.6,0.6l0.7,0.6
		c0.2,0.2,0.4,0.3,0.6,0.5c0.2,0.2,0.4,0.4,0.6,0.6c0.2,0.2,0.5,0.4,0.7,0.6c0.2,0.2,0.4,0.4,0.6,0.6c0.2,0.2,0.4,0.4,0.6,0.6
		c0.2,0.2,0.3,0.4,0.5,0.6c0,0,0,0,0,0.1c0,0,0,0.1,0.1,0.1l0.4,0.6c0,0,0,0.1,0,0.2c0,0,0,0.1,0,0.1l0.1,1.1c0,0,0,0.1-0.1,0.1
		c-0.1,0.1-0.2,0.1-0.3,0.1c-0.1,0-0.2,0-0.4,0c-0.2,0-0.2,0-0.3,0c0,0-0.1,0-0.1,0l-0.2,0c-0.1,0-0.1,0-0.1,0l0,0l-0.2-0.1
		c-0.1,0-0.1-0.1-0.2-0.1c-0.1-0.1-0.1-0.1-0.2-0.1c0,0-0.1-0.1-0.2-0.2l-0.5-0.5c-0.1-0.1-0.2-0.1-0.2-0.1
		c-0.1-0.1-0.2-0.2-0.3-0.3c-0.1-0.2-0.3-0.3-0.5-0.5l-0.8-0.9c-0.1-0.1-0.3-0.1-0.4-0.1c0,0,0,0,0,0c-0.1,0-0.1,0-0.2,0.1
		c-0.1,0.1-0.2,0.1-0.2,0.1c0,0-0.1,0.1-0.1,0.1l-0.3,0.2c0,0-0.1,0-0.1,0.1c0,0-0.1,0-0.1,0.1l-0.2,0.1c-0.1,0-0.1,0.1-0.2,0.1
		c0,0-0.1,0.1-0.1,0.1c0,0-0.1,0.1-0.2,0.2l-0.3,0.3c-0.1,0.1-0.2,0.2-0.3,0.3c-0.1,0.1-0.2,0.2-0.2,0.2c0,0,0,0,0,0
		c0,0-0.1,0.1-0.1,0.1l-0.3,0.3c0,0-0.1,0.1-0.1,0.1c-0.1,0.1-0.2,0.2-0.2,0.3c0,0,0,0.2,0,0.2c0,0.1,0,0.2,0.1,0.3
		c0,0,0.1,0.1,0.2,0.2c0,0,0,0,0,0.1c0.1,0.1,0.1,0.2,0.2,0.4c0,0.1,0.1,0.2,0.1,0.3c0,0.1,0,0.2,0.1,0.2c0,0,0.1,0.1,0.2,0.2
		l0.3,0.3c0.1,0.1,0.2,0.2,0.3,0.3c0.1,0.1,0.1,0.2,0.1,0.2c0,0,0.1,0.1,0.2,0.2c0.1,0.1,0.2,0.2,0.3,0.3l0.3,0.3
		c0.1,0.1,0.1,0.1,0.1,0.1c0.4,0.4,0.8,0.8,1.3,1.1c0.5,0.3,1,0.6,1.7,0.8c0.2,0.1,0.5,0.1,0.7,0.2c0.2,0.1,0.5,0.1,0.7,0.1
		c0.1,0,0.1,0,0.2,0c0.2,0,0.5,0,0.7-0.1c0.2-0.1,0.5-0.1,0.7-0.2c0.1,0,0.3-0.1,0.4-0.1c0.1,0,0.3,0,0.5-0.1
		c0.4-0.1,0.8-0.3,1.1-0.6c0.4-0.2,0.7-0.5,0.9-0.7c0.1,0,0.2-0.1,0.3-0.2c0.1-0.1,0.3-0.2,0.4-0.3c0.1-0.1,0.2-0.2,0.3-0.3
		c0.2-0.1,0.2-0.2,0.2-0.2c0.3-0.2,0.5-0.5,0.6-0.7c0.1-0.2,0.2-0.5,0.3-0.7c0,0,0-0.1,0.1-0.1c0-0.1,0.1-0.2,0.1-0.2l0.1-1.5
		l-0.2-0.8C145.5,50.5,145.5,50.4,145.4,50.4z M144.3,48.6C144.3,48.6,144.3,48.6,144.3,48.6L144.3,48.6L144.3,48.6z"/>
	<path class="st8" d="M162.4,41c0-0.2-0.1-0.3-0.2-0.4c-0.1-0.2-0.3-0.3-0.5-0.3l-0.1,0c0,0-0.1,0-0.1,0l-0.5,0c-0.1,0-0.2,0-0.3,0
		c-0.1,0-0.1,0-0.2,0c0,0-0.1,0-0.2,0h-0.3c-0.1,0-0.2,0-0.4,0c0,0-0.1,0-0.1,0l-1.5-0.1c0,0-0.1,0-0.1,0l-0.3,0.1c0,0-0.1,0-0.1,0
		c-0.1,0-0.2,0-0.3,0c-0.1,0-0.2,0-0.3,0.1c-0.2,0-0.3,0.1-0.4,0.3c0,0,0,0.1,0,0.1l-0.1,1.1c0,0,0,0.1,0,0.3l0.2,1.4
		c0,0.2,0,0.3,0.1,0.4c0,0.2,0,0.2,0,0.2l0,3.3c0,0.4,0,0.8,0,1.2c0,0.4,0,0.7-0.1,1c0,0.3-0.1,0.6-0.3,0.9
		c-0.1,0.3-0.3,0.6-0.5,0.8c-0.2,0.1-0.4,0.2-0.6,0.3c-0.3,0.1-0.4,0.1-0.5,0.1c0,0-0.1,0-0.2,0c0,0-0.1,0-0.2-0.1l-0.2-0.1
		c0,0-0.1,0-0.2-0.1c-0.1,0-0.2-0.1-0.3-0.2c-0.1-0.1-0.2-0.1-0.3-0.2c-0.1-0.1-0.1-0.2-0.2-0.2c0,0,0-0.1-0.1-0.1c0,0,0.1,0.1,0,0
		l-0.2-0.6c-0.1-0.2-0.1-0.4-0.1-0.6c0-0.2-0.1-0.4-0.1-0.6c0-0.2,0-0.4-0.1-0.6c0-0.2,0-0.4-0.1-0.6l-0.1-0.8c0-0.6,0-1.2,0-1.7
		c0-0.5,0-1,0-1.5c0-0.3,0-0.6,0-0.9c0-0.3,0-0.5,0.1-0.9v-0.5c0-0.1,0-0.1,0-0.1c0-0.1,0-0.1,0-0.2c0-0.1,0-0.2-0.1-0.2
		c0-0.1-0.1-0.1-0.2-0.2c0,0-0.1-0.1-0.1-0.1c0,0-0.1,0-0.3,0c-0.2,0-0.4,0-0.6,0c0,0-0.1,0-0.1,0c0,0-0.1,0-0.2,0l-0.6-0.1
		c-0.1,0-0.1,0-0.1,0c0,0-0.1,0-0.2,0l-0.3-0.1c-0.1,0-0.3,0-0.4-0.1c-0.1,0-0.3,0-0.4,0h-0.6c-0.2,0-0.4,0-0.6,0.1
		c-0.3,0.1-0.5,0.3-0.5,0.5l-0.1,0.6c0,0.2,0,0.4,0,0.6c0,0.2,0,0.4,0,0.7c0,0.2,0,0.5,0,0.8v0.7c0,0.3,0,0.5,0,0.8l0,0.8
		c0,0.3,0,0.5,0,0.7l0,0.1c0,0.1,0,0.2,0,0.2v0.2c0,0.1,0,0.2,0,0.3l0.1,0.7c0,0,0,0.1,0,0.1c0,0.1,0,0.2,0,0.4l0,0.3
		c0,0.1,0,0.2,0,0.2h0c0,0.1,0,0.2,0.1,0.4l0.3,1.4c0,0.1,0,0.3,0.1,0.5c0,0.2,0.1,0.4,0.1,0.6c0.1,0.2,0.1,0.4,0.2,0.6
		c0.1,0.2,0.1,0.3,0.2,0.4c0.1,0.2,0.2,0.4,0.2,0.6c0,0,0,0,0,0c0,0.1,0,0.2,0.1,0.3c0,0,0.1,0,0.1,0c0,0,0,0,0.1,0.1
		c0.1,0.1,0.2,0.1,0.2,0.2l0.2,0.3c0.1,0.1,0.2,0.2,0.2,0.2c0.4,0.3,0.8,0.7,1.3,0.9c0.4,0.3,0.9,0.5,1.4,0.8
		c0.2,0.1,0.5,0.2,0.8,0.2c0.3,0.1,0.5,0.1,0.8,0.1c0.2,0,0.4,0,0.6,0c0.1,0,0.1,0,0.2,0c0.5,0,1,0,1.6,0c0.3,0,0.6-0.1,0.9-0.2
		c0.1-0.1,0.3-0.1,0.5-0.2c0.2-0.1,0.4-0.1,0.7-0.2c0.2-0.1,0.5-0.2,0.7-0.3c0.2-0.1,0.4-0.3,0.5-0.4c0.1-0.1,0.2-0.2,0.4-0.4
		c0.2-0.2,0.3-0.4,0.5-0.6c0.2-0.2,0.3-0.4,0.5-0.7c0.2-0.2,0.3-0.5,0.3-0.7c0.1-0.3,0.2-0.6,0.3-0.9c0.1-0.3,0.1-0.5,0.2-0.8
		l0.1-0.8c0-0.3,0.1-0.5,0.2-0.9l0.1-0.3c0,0,0,0,0-0.1c0-0.1,0-0.2,0-0.2c0-0.1,0-0.1,0-0.2v-0.2c0,0,0-0.1,0-0.1l0.1-0.5
		c0-0.1,0-0.2,0-0.2c0,0,0,0,0,0c0-0.1,0-0.2,0-0.4c0-0.2,0-0.4,0.1-0.6l0-0.5c0-0.2,0-0.3,0-0.2c0,0,0-0.1,0-0.3l0.1-0.9
		c0-0.1,0-0.2,0-0.2c0,0,0,0,0,0c0-0.1,0-0.2,0-0.4c0-0.2,0-0.4,0-0.6c0-0.2,0-0.4,0-0.5c0-0.1,0-0.2,0-0.3l0-0.5c0-0.2,0-0.3,0-0.5
		v-0.2c0-0.2,0-0.4,0-0.6C162.5,41.3,162.4,41.1,162.4,41z"/>
	<path class="st8" d="M182.2,46.6c0-0.2-0.1-0.4-0.1-0.6c0-0.2-0.1-0.4-0.2-0.6c-0.1-0.2-0.1-0.4-0.2-0.5c-0.1-0.2-0.2-0.5-0.3-0.7
		c-0.1-0.2-0.2-0.4-0.4-0.6c-0.1-0.2-0.3-0.4-0.5-0.6c-0.2-0.2-0.3-0.4-0.5-0.6l-0.7-0.6c-0.2-0.1-0.3-0.2-0.4-0.4l-0.4-0.3
		c-0.7-0.4-1.3-0.6-2-0.9c-0.7-0.2-1.3-0.3-2-0.3c-0.4,0-0.8,0.1-1.1,0.1c-0.3,0.1-0.7,0.1-1,0.2c-0.4,0.1-0.7,0.2-1,0.3
		c-0.3,0.2-0.5,0.3-0.7,0.5c0,0-0.1,0.1-0.1,0.1l0.1-0.6l0.2-3.1c0,0,0-0.1,0-0.1v-0.1c0,0,0-0.1,0-0.3c0-0.2,0-0.3-0.1-0.5
		c0-0.2-0.1-0.3-0.1-0.5c-0.1-0.2-0.2-0.4-0.4-0.5c0,0-0.2,0-0.2,0c-0.1,0-0.2,0-0.3,0c0,0,0,0,0,0c-0.1,0-0.1,0-0.2,0
		c-0.2,0-0.3,0-0.3,0l-0.2,0c-0.3,0-0.5,0-0.8,0.1c-0.3,0-0.6,0.1-0.9,0.1c-0.2,0-0.4,0.1-0.6,0.1c-0.2,0-0.4,0.1-0.6,0.1
		c-0.1,0-0.1,0-0.2,0c-0.1,0-0.3,0-0.4,0c-0.1,0-0.2,0-0.3,0c-0.1,0-0.3,0.1-0.4,0.5c0,0.1,0,0.4,0,0.7c0,0.3,0,0.6,0,0.9l0,2.2
		c0,0.5,0,0.9,0.1,1.4c0,0.5,0,0.9,0,1.3l0,0.4c0,0.2,0,0.4,0,0.7s0,0.5,0,0.7l0,0.4c0,0.5,0,1-0.1,1.6c0,0.6-0.1,1.1-0.1,1.7
		l-0.2,5.7c0,0,0,0.1,0,0.1c0,0,0,0.1,0,0.2c0,0.1,0,0.2,0,0.2l0,0.9c0,0.3,0.1,0.5,0.1,0.8c0,0.1,0.1,0.2,0.2,0.3
		c0.1,0.1,0.2,0.2,0.3,0.3c0.1,0,0.1,0.1,0.2,0.1l0.3,0.1c0.1,0,0.2,0.1,0.3,0.1c0.1,0,0.2,0,0.3,0c0.1,0,0.2,0,0.2,0l0.9,0.1
		c0.1,0,0.1,0,0.2,0c0.1,0,0.1,0,0.2,0c0,0,0,0,0,0l2.7-0.1c0.1,0,0.2-0.1,0.3-0.1l0.1-0.2c0.1-0.1,0.1-0.2,0.1-0.2v-0.2
		c0-0.1,0-0.1,0-0.2l0-0.2c0,0,0-0.1,0-0.1c0,0,0.1,0.1,0.1,0.1c0,0,0.1,0.1,0.1,0.1c0.1,0,0.1,0.1,0.2,0.1l0.1,0.1
		c0,0,0.1,0.1,0.1,0.1c0.1,0.1,0.2,0.1,0.3,0.2l0.4,0.2c0.1,0.1,0.3,0.1,0.4,0.2c0.1,0.1,0.3,0.1,0.4,0.1c0,0,0,0,0,0
		c0.1,0,0.2,0,0.4,0c0.2,0,0.3,0,0.5,0l1,0c0.1,0,0.2,0,0.2,0c0,0,0.1,0,0.1,0l0-0.4c0,0,0,0,0,0l0.2,0.4c0.3-0.1,0.6-0.1,0.9-0.2
		c0.3-0.1,0.5-0.2,0.8-0.3c0.2-0.1,0.5-0.2,0.7-0.4c0.2-0.1,0.5-0.3,0.7-0.5c1-0.8,1.8-1.8,2.3-2.9c0.5-1.1,0.9-2.2,1.1-3.5l0.1-1
		c0-0.2,0-0.3,0-0.5c0-0.2,0-0.3,0-0.5C182.2,47,182.2,46.8,182.2,46.6z M175.8,45.8c0,0.1,0.1,0.2,0.2,0.2c0,0,0.1,0,0.1,0.1
		l0.1,0.2l0,0.2c0,0.1,0.1,0.2,0.2,0.3c0,0,0.1,0.1,0.1,0.1l0.1,0.1c0,0,0,0,0,0l0,0.2c0,0.1,0,0.2,0,0.2l0,0.3c0,0,0,0.1,0,0.1
		l0,0.2c0,0.1,0,0.3,0,0.4l0,0.3c0,0,0,0.1,0,0.1c0,0,0,0.1,0,0.1l-0.1,0.3c0,0.1-0.1,0.2-0.1,0.3c0,0.1,0,0.1-0.1,0.2
		c0,0,0,0.1-0.1,0.1c0,0.1-0.1,0.2-0.2,0.3c-0.1,0.1-0.1,0.2-0.2,0.3c-0.1,0.1-0.1,0.1-0.1,0.2c-0.2,0.3-0.4,0.5-0.6,0.7
		c-0.2,0.2-0.4,0.3-0.7,0.5l-0.5,0.1c-0.1,0-0.1,0-0.2,0.1c0,0-0.1,0-0.1,0c0,0-0.1,0-0.2,0c-0.1,0-0.2,0-0.2,0
		c-0.2,0-0.3-0.1-0.5-0.1c-0.2-0.1-0.4-0.2-0.5-0.3c-0.2-0.1-0.4-0.3-0.6-0.4c-0.2-0.1-0.3-0.3-0.4-0.4c-0.1-0.2-0.2-0.3-0.3-0.5
		c-0.1-0.2-0.2-0.4-0.2-0.7c0-0.1,0-0.1-0.1-0.2c0,0,0-0.1,0-0.1c0,0,0,0,0,0c0-0.3,0-0.7,0.1-1.1c0.1-0.4,0.2-0.8,0.3-1.2
		c0.1-0.4,0.3-0.7,0.6-1.1c0.2-0.3,0.5-0.5,0.7-0.6c0.4-0.1,0.8-0.2,1.1-0.2c0.3,0,0.5,0,0.7,0.1c0.2,0.1,0.4,0.1,0.6,0.2
		c0.2,0.1,0.5,0.3,0.8,0.5C175.8,45.7,175.8,45.8,175.8,45.8z"/>
	<path class="st8" d="M185.3,40c0.1,0.1,0.1,0.1,0.3,0.2l0.2,0.1c0.1,0,0.1,0,0.2,0.1l0.1,0.1c0,0,0.1,0,0.2,0.1c0,0,0.1,0,0.2,0.1
		c0.1,0,0.2,0.1,0.2,0.1c0.1,0,0.1,0,0.1,0c0,0,0.1,0,0.2,0l0.2,0c0.1,0,0.1,0,0.2,0c0.1,0,0.1,0,0.2,0c0.3,0,0.6-0.1,0.9-0.2
		c0.3-0.1,0.5-0.3,0.7-0.5c0.2-0.2,0.4-0.3,0.5-0.5c0.1-0.2,0.2-0.3,0.3-0.5c0.1-0.2,0.1-0.4,0.1-0.6c0-0.2,0-0.4,0-0.7
		c0-0.5-0.2-0.9-0.5-1.3c-0.3-0.3-0.6-0.6-0.9-0.9c-0.1-0.1-0.2-0.1-0.3-0.2c-0.1-0.1-0.2-0.1-0.3-0.1l-0.3-0.1
		c-0.2-0.1-0.5-0.1-0.8-0.1c-0.1,0-0.3,0-0.4,0c-0.1,0-0.3,0-0.4,0.1c-0.2,0-0.3,0.1-0.4,0.2l-0.5,0.4c-0.1,0.1-0.1,0.1-0.2,0.2
		c-0.2,0.2-0.3,0.4-0.4,0.6c-0.1,0.1-0.1,0.3-0.2,0.5c-0.1,0.2-0.1,0.3-0.1,0.5v0.3c0,0.3,0,0.5,0,0.7c0,0.2,0.1,0.4,0.1,0.6
		c0.1,0.2,0.2,0.4,0.3,0.6C184.9,39.7,185.1,39.9,185.3,40z"/>
	<path class="st8" d="M190.5,55.2c0-0.1,0-0.3,0-0.5c0-0.3,0-0.5,0-0.8c0-0.3,0-0.6,0-0.8c0-0.3,0-0.5,0-0.6c0-0.1,0-0.2,0-0.4
		c0-0.2,0-0.4,0-0.8l-0.1-1.7c0-0.3,0-0.5,0-0.7c0-0.2,0-0.3,0-0.4c0-0.1,0-0.2,0-0.5c0-0.2,0-0.5-0.1-0.7c0-0.3,0-0.5-0.1-0.7
		c0-0.2,0-0.3,0-0.4c0-0.1,0-0.3,0-0.6l-0.1-1.9c0-0.3,0-0.5,0-0.6c0,0,0-0.1,0-0.1c0-0.1,0-0.1,0-0.2l0-0.2c0,0,0-0.1,0-0.1
		c0-0.2,0-0.4,0-0.6c0-0.2-0.1-0.3-0.2-0.4c-0.1-0.1-0.2-0.2-0.4-0.2c0,0,0,0-0.1,0c0,0-0.1,0-0.1,0h-3.4c-0.1,0-0.2,0-0.4,0.1
		c-0.2,0.1-0.4,0.2-0.5,0.3c0,0.1-0.1,0.1-0.1,0.2v1.5l-0.1,0.6c0,0,0,0.1,0,0.1c0,0.2,0,0.4,0,0.7c0,0.3,0,0.6,0,0.9
		c0,0.3,0,0.6,0,0.8c0,0.2,0,0.4,0,0.4c0,0.5,0,0.9,0,1.3c0,0.4,0,0.8,0,1.2c0,0.4,0,0.8,0,1.2c0,0.4,0,0.9,0.1,1.3
		c0,0.2,0,0.4,0,0.6l0,0.6c0,0.2,0,0.4,0,0.6c0,0.2,0,0.4,0,0.6c0,0.2,0,0.4,0,0.7c0,0.2,0,0.5,0,0.6c0,0.2,0.1,0.4,0.2,0.6
		s0.3,0.3,0.7,0.3l3.7,0c0.1,0,0.2,0,0.2,0c0.4,0,0.6-0.3,0.7-0.4c0.1-0.2,0.2-0.5,0.1-0.9L190.5,55.2z"/>
	<path class="st8" d="M205.6,42.8c-0.1-0.1-0.1-0.2-0.2-0.3c-0.1-0.1-0.1-0.2-0.2-0.3c-0.2-0.2-0.5-0.4-0.8-0.6
		c-0.3-0.2-0.6-0.4-1-0.5c-0.4-0.1-0.8-0.3-1.1-0.3c-0.4-0.1-0.8-0.1-1.2-0.1c-0.2,0-0.5,0-0.7,0c-0.2,0-0.5,0.1-0.8,0.2
		c0,0-0.1,0-0.1,0c-0.1,0-0.2,0.1-0.3,0.1c-0.1,0-0.2,0.1-0.3,0.1c-0.1,0.1-0.2,0.1-0.3,0.2c0,0-0.1,0.1-0.1,0.1
		c0.1-0.1,0.1-0.1,0-0.1c-0.1,0-0.1,0-0.2,0.1c0,0-0.1,0-0.1,0.1l-0.5,0.3c0-0.1,0-0.1,0-0.2c0-0.2-0.1-0.4-0.3-0.5
		c-0.1-0.1-0.2-0.1-0.4-0.1c-0.1,0-0.2,0-0.3,0c-0.1,0-0.1,0-0.1,0c-0.3,0-0.6-0.1-0.9-0.1c-0.3,0-0.7,0-1,0c-0.3,0-0.6,0-0.9,0.1
		c-0.2,0.1-0.5,0.1-0.8,0.1c-0.1,0-0.3,0.1-0.3,0.2c0,0,0,0,0,0c0,0.1-0.1,0.2-0.1,0.2l0,0.2c0,0.1,0,0.1,0,0.2c0,0,0,0.1,0,0.1
		c0,0.1,0,0.1,0,0.2c0,0.1,0,0.2,0.1,0.3c0,0.1,0,0.1,0,0.2l0,0.1l0.4,0c0,0,0,0,0,0l-0.4,0.1c0,0.2,0,0.4,0,0.5c0,0.1,0,0.2,0,0.4
		l0,0c0,0.1-0.1,0.2-0.1,0.2l0,0.1c0,0,0,0.1,0,0.1c0,0.1,0,0.2,0.1,0.2c0,0.1,0,0.3,0,0.4l0.1,0.8c0,0.1,0,0.2,0,0.3
		c0,0.4,0,0.9,0,1.5c0,0.6,0,1.2,0.1,1.9c0,0.7,0,1.3,0.1,2l0.1,1.8c0,0.6,0,1,0,1.4c0,0.3,0,0.5,0,0.6c-0.1,0.1-0.1,0.2-0.1,0.3
		c0,0.1,0,0.1,0,0.2c0,0.1,0.1,0.2,0.1,0.4c0,0.1,0,0.1,0,0.2c0,0.1,0,0.2,0,0.3c0,0,0.1,0.2,0.1,0.2c0.1,0.2,0.4,0.2,0.4,0.2
		l0.7,0.1c0,0,0,0,0,0c0,0,0,0,0,0l3.2-0.1c0,0,0,0,0,0c0.1,0,0.1,0,0.3,0c0.1,0,0.2,0,0.2-0.1c0,0,0.1,0,0.1,0
		c0.1-0.1,0.2-0.2,0.2-0.3c0-0.1,0-0.2,0-0.3l0-0.4c0-0.1,0-0.3,0-0.4c0-0.1,0-0.2,0-0.3c0-0.4-0.1-0.9-0.1-1.3
		c-0.1-0.4-0.1-0.8-0.1-1.3c-0.1-0.6-0.1-1.2-0.1-1.8c0-0.6,0-1.4,0.1-2.2l0-0.6c0-0.2,0.1-0.3,0.1-0.5c0,0,0,0,0.1-0.1l0.2-0.3
		c0-0.1,0.1-0.2,0.1-0.2c0.1-0.1,0.1-0.2,0.1-0.2c0,0,0-0.1,0.1-0.1c0.1-0.1,0.2-0.2,0.2-0.2c0.1-0.2,0.3-0.4,0.5-0.5
		c0.1-0.1,0.2-0.2,0.4-0.2c0.3,0,0.6,0.1,1,0.2c0.4,0.1,0.7,0.3,1,0.5c0.1,0,0.1,0,0.1,0c0,0,0.1,0,0.1,0c0,0,0.1,0,0.1,0l0.3,0
		c0.2,0,0.5-0.1,0.7-0.2c0.2-0.1,0.4-0.2,0.5-0.3c0.2-0.1,0.3-0.2,0.4-0.4c0.1-0.1,0.2-0.2,0.4-0.3c0,0,0.1-0.1,0.1-0.1l0.5-0.4
		l-0.2-0.3l0.3,0.2l0.1-0.1c0,0,0,0,0,0c0.1,0,0.1-0.1,0.2-0.2c0.1-0.1,0.2-0.2,0.2-0.2c0.1-0.1,0.1-0.2,0.2-0.3
		c0.1-0.1,0.1-0.3,0.1-0.4c0-0.1,0-0.2-0.1-0.4C205.7,43,205.7,42.9,205.6,42.8z"/>
	<path class="st8" d="M226.1,36.6c-0.1-0.1-0.3-0.2-0.4-0.3c0,0-0.1,0-0.1,0c-0.3-0.1-0.5-0.3-0.8-0.4c-0.2-0.1-0.5-0.2-0.7-0.3
		c-0.2-0.1-0.5-0.1-0.7-0.2c-0.2,0-0.4-0.1-0.7-0.1l-0.5-0.1l-1.2,0c-0.3,0-0.5,0.1-0.8,0.2c-0.3,0.1-0.5,0.2-0.8,0.3
		c-0.2,0.1-0.5,0.3-0.7,0.5c-0.2,0.2-0.4,0.4-0.5,0.6c0,0.1-0.1,0.1-0.1,0.2l-0.3,0.5c0,0.1-0.1,0.1-0.1,0.2c0,0.1,0,0.1,0,0.2
		c0,0.1,0,0.1-0.1,0.2l-0.2,0.6c0,0.1-0.1,0.2-0.1,0.2c0,0,0,0.1,0,0.1l-0.1,0.3l0,1.7c-0.2,0-0.4,0-0.6,0.1
		c-0.3,0.1-0.6,0.1-0.8,0.1c-0.1,0-0.2-0.1-0.4-0.1c-0.1,0-0.2,0-0.3,0.1c-0.1,0.1-0.1,0.1-0.1,0.3c0,0.1,0,0.2,0,0.2v2.4
		c0,0.1,0,0.2,0,0.3c0,0.1,0,0.3,0,0.4l0,0.3c0,0.1,0,0.3,0.2,0.4l0,0c0.1,0.1,0.2,0.1,0.3,0.1h0.2c0.2,0,0.3,0,0.5,0
		c0.1,0,0.2,0,0.4,0h0.2c0.1,0,0.1,0,0.2,0c0,0,0,0,0,0l0,0.4c0,1.5,0,3,0.1,4.4c0.1,1.4,0.1,2.9,0.2,4.4v0.1c0,0.2,0,0.3,0,0.5
		c0,0.2,0,0.4,0,0.6c0,0.2,0,0.4,0.1,0.6c0.1,0.2,0.3,0.4,0.7,0.4c0,0,0.1,0,0.1,0c0,0,0.1,0,0.2,0l0.3,0c0.1,0,0.2,0,0.3,0
		c0.1,0,0.1,0,0.2,0h0.7c0.1,0.1,0.3,0.1,0.4,0.1c0.1,0,0.1,0,0.2,0c0.1,0,0.2,0,0.3,0c0.1,0,0.3,0,0.4-0.1c0.1,0,0.2,0,0.2,0
		c0,0,0.1,0,0.1,0c0.1,0,0.3,0,0.4,0c0.1,0,0.1,0,0.2,0c0.1,0,0.3-0.1,0.5-0.2c0.1,0,0.1-0.1,0.2-0.1s0.1-0.1,0.1-0.2l0.1-0.3
		c0,0,0-0.1,0-0.1v-0.6c0-0.2,0-0.5,0-0.7l0-0.6c0-0.2,0-0.4,0-0.7c0-0.2,0-0.5,0-0.7c0-0.1,0-0.4,0-0.7l0-3.3c0-0.2,0-0.4,0-0.7
		v-0.7c0-0.2,0-0.3,0-0.5l0-0.8c0-0.2,0-0.3,0-0.5c0,0,0,0,0,0c0.1,0,0.2,0,0.2,0c0.2,0,0.5,0,0.7,0c0.1,0,0.2-0.1,0.3-0.1
		c0.1,0,0.2-0.1,0.2-0.1c0.2-0.1,0.2-0.2,0.3-0.3c0,0,0-0.1,0.1-0.2c0,0,0-0.1,0-0.1l0-3.5c0-0.2,0-0.3-0.1-0.5
		c-0.1-0.1-0.2-0.3-0.3-0.3c-0.1,0-0.2-0.1-0.3-0.1l-1.5,0l0-0.1c0-0.1,0-0.2,0-0.2c0-0.1,0-0.1,0-0.1c0-0.2,0.1-0.2,0.1-0.2
		c0.1-0.1,0.2-0.1,0.3-0.2c0,0,0,0,0,0l0.1,0c0.1,0,0.1,0,0.2,0c0.2,0,0.4,0,0.6,0c0.2,0,0.4,0.1,0.7,0.1c0.2,0,0.3-0.1,0.4-0.1
		c0.1-0.1,0.1-0.2,0.2-0.3c0-0.1,0-0.1,0.1-0.2l-0.4-0.1l0.4,0c0-0.2,0.1-0.3,0.1-0.4l0.2-0.5c0.1-0.2,0.1-0.4,0.3-0.6
		c0.1-0.2,0.2-0.5,0.3-0.7c0.1-0.2,0-0.4-0.1-0.5C226.1,36.7,226.1,36.6,226.1,36.6z"/>
	<path class="st8" d="M242.6,45.8c-0.1-0.5-0.3-0.9-0.5-1.4c-0.2-0.5-0.4-0.9-0.7-1.4l-0.5-0.7c0,0,0-0.1-0.1-0.1l-0.3-0.3
		c-0.1-0.1-0.2-0.2-0.4-0.4l-0.3-0.3c-0.1-0.1-0.2-0.2-0.2-0.2c-0.1,0-0.1-0.1-0.3-0.2l-0.4-0.2c-0.2-0.1-0.3-0.2-0.4-0.2
		c-0.1-0.1-0.2-0.1-0.3-0.1c0,0-0.1,0-0.1,0c-0.2,0-0.4-0.1-0.7-0.1c-0.2,0-0.5-0.1-0.7-0.2c-0.2,0-0.4-0.1-0.5-0.1l-0.6,0
		c-0.1,0-0.1,0-0.2,0l-1.1,0.1c-0.2,0-0.4,0-0.6,0.1c-0.2,0-0.3,0-0.4,0.1c-0.1,0-0.1,0-0.2,0l-0.9,0.2c0,0,0,0-0.1,0
		c0,0-0.1,0-0.1,0l-0.1,0c-0.1,0-0.2,0-0.3,0.1c0,0,0,0-0.1,0.1l-0.1,0c0,0,0,0-0.1,0c-0.1,0-0.1,0-0.1,0c0,0-0.2,0-0.2,0.1
		l-0.1,0.1c-0.1,0-0.1,0.1-0.3,0.1c-0.3,0.2-0.6,0.3-0.9,0.5c-0.3,0.2-0.6,0.4-0.8,0.7c-0.4,0.3-0.7,0.7-0.9,1
		c-0.3,0.4-0.5,0.7-0.7,1.1c-0.2,0.4-0.4,0.8-0.5,1.2c-0.1,0.4-0.3,0.9-0.4,1.4v0.9c0,0.4,0,0.8,0,1.2c0,0.3,0.1,0.7,0.1,1
		c0.1,0.3,0.1,0.7,0.3,1c0.1,0.3,0.3,0.7,0.4,1.1c0.2,0.5,0.5,1,0.8,1.4c0.3,0.4,0.7,0.8,1.1,1.2c0.1,0.1,0.2,0.2,0.3,0.3
		c0.1,0.1,0.2,0.2,0.4,0.3c0.1,0.1,0.3,0.2,0.4,0.3c0.2,0.1,0.3,0.2,0.5,0.3l0.1,0.1c0,0,0.1,0,0.2,0.1c0.1,0,0.1,0.1,0.2,0.1
		c0.1,0.1,0.2,0.1,0.3,0.2c0.1,0.1,0.2,0.1,0.3,0.1s0.2,0.1,0.3,0.1c0,0,0.1,0,0.1,0l0.4,0.1c0.1,0,0.2,0,0.2,0h0l0.3,0.1
		c0,0,0.1,0,0.1,0h0.1c0.1,0,0.1,0,0.3,0l0.3,0c0.1,0,0.3,0,0.4,0c0.1,0,0.2,0,0.2,0c0.1,0,0.2,0,0.2,0l0.4-0.1
		c0.1,0,0.1,0.1,0.2,0.1l0.4,0c0.1,0,0.2,0,0.3,0h0.1c0.1,0,0.1,0,0.2,0c0.3,0,0.6,0,0.9-0.1c0.4-0.1,0.7-0.2,1.1-0.3
		c0.3-0.1,0.7-0.3,1-0.5c0.3-0.2,0.7-0.4,1-0.6c0.2-0.2,0.4-0.4,0.5-0.6c0.1-0.2,0.2-0.3,0.3-0.4c0.1-0.1,0.2-0.3,0.3-0.4
		c0.1-0.1,0.2-0.3,0.4-0.5c0.2-0.4,0.3-0.8,0.4-1.1c0.1-0.4,0.2-0.8,0.3-1.2c0,0,0-0.2,0-0.4l0.1-1.3c0-0.2,0-0.4,0.1-0.6
		c0-0.5,0-1-0.1-1.5C242.8,46.8,242.7,46.3,242.6,45.8z M232.1,49.2C232.1,49.2,232.1,49.2,232.1,49.2c-0.1-0.2-0.1-0.4-0.2-0.6
		c0-0.2,0-0.4-0.1-0.6c0,0,0,0,0-0.1c0-0.1,0-0.2,0-0.3c0-0.1,0-0.2,0-0.4c0-0.1,0-0.2,0.1-0.3c0-0.1,0.1-0.2,0.1-0.2
		c0,0,0-0.1,0.1-0.1l0.2-0.6c0.1-0.1,0.1-0.3,0.3-0.4c0.1-0.1,0.3-0.2,0.4-0.3c0.2-0.1,0.4-0.2,0.6-0.2c0.2-0.1,0.4-0.1,0.6-0.2
		c0.2,0,0.3-0.1,0.4-0.1c0.1,0,0.3,0,0.5,0c0.2,0,0.3,0,0.5,0c0.1,0,0.3,0.1,0.4,0.1c0.1,0,0.2,0.1,0.4,0.2c0.1,0.1,0.3,0.2,0.4,0.3
		c0.3,0.2,0.5,0.4,0.8,0.6c0.2,0.2,0.3,0.4,0.4,0.6c0.1,0.2,0.1,0.4,0.2,0.6c0.1,0.2,0.1,0.3,0.1,0.4c0,0.4-0.1,0.8-0.1,0.9l0,0.3
		c0,0.3-0.1,0.7-0.2,1c-0.1,0.3-0.3,0.6-0.5,0.9c-0.2,0.3-0.5,0.5-0.8,0.7c-0.3,0.2-0.6,0.3-1,0.3c0,0-0.1,0-0.1,0l-0.2,0
		c0,0-0.1,0-0.1,0c-0.2,0-0.3,0-0.4,0l-0.3,0c0,0-0.1,0-0.3-0.1c0,0-0.1,0-0.1,0c0,0-0.1,0-0.1,0c-0.1-0.1-0.1-0.1-0.2-0.1l-0.3-0.2
		c0,0-0.1-0.1-0.2-0.1c-0.1,0-0.1-0.1-0.2-0.1c0,0-0.1-0.1-0.2-0.1c0,0,0-0.1-0.1-0.1l-0.3-0.4c-0.1-0.1-0.1-0.1-0.1-0.1
		c0,0,0,0,0,0c-0.1-0.1-0.1-0.1-0.1-0.2c0-0.1-0.1-0.2-0.1-0.3c0-0.1-0.1-0.2-0.1-0.3c0-0.1-0.1-0.2-0.1-0.3
		C232.2,49.4,232.1,49.3,232.1,49.2z"/>
	<path class="st8" d="M254.5,42.9c0-0.4,0-0.8,0-1.3l-0.1-0.4c0-0.2-0.2-0.3-0.4-0.3c-0.1,0-0.1,0-0.2,0l-0.1,0c-0.1,0-0.1,0-0.1,0
		h-0.8c-0.3,0-0.6,0-0.8,0.1c0,0,0,0,0,0c0-0.1,0-0.2,0-0.3l0-1.5c0-0.4,0-0.7,0-1s0-0.6-0.1-0.9c0-0.1,0-0.2-0.1-0.2c0,0,0,0,0,0
		l0-0.3c0-0.1,0-0.1,0-0.2c0-0.1,0-0.2-0.1-0.3l-0.1-0.1c-0.1-0.1-0.2-0.1-0.3-0.1l-0.3,0c-0.1,0-0.2,0-0.3,0c-0.1,0-0.2,0-0.2,0
		l-0.3,0c-0.2,0-0.5,0-0.7,0l-0.3,0c0,0-0.1,0-0.2,0l-0.8,0.1c-0.1,0-0.2,0-0.2,0c-0.3-0.1-0.4-0.1-0.6,0c-0.2,0.1-0.4,0.2-0.4,0.5
		l0,0.4c0,0.1,0,0.2,0,0.3v0.2c0,0.6,0,1.2,0.1,1.9c0.1,0.6,0.1,1.1,0.1,1.7c-0.3,0-0.6,0-0.9,0.1c-0.3,0-0.5,0-0.8,0
		c0,0-0.1,0-0.1,0c-0.2,0.1-0.4,0.2-0.5,0.3c-0.1,0.2-0.2,0.4-0.2,0.6l0,0.2c0,0.1,0,0.2,0,0.3l0.1,2.4c0,0.1,0,0.2,0,0.3
		c0,0.1,0,0.2,0,0.2c0,0,0.1,0.1,0.1,0.1c0,0.1,0.2,0.2,0.3,0.2c0.3,0,0.7,0.1,1,0.1c0.2,0,0.5,0,0.7,0c0,0.1,0,0.2,0,0.3l0.1,3.3
		c0,0.2,0,0.4,0,0.5c0,0,0,0.1,0,0.2l0.1,0.7c0,0.1,0,0.1,0,0.2c0,0,0,0.1,0,0.1c0,0.1,0,0.2,0,0.3l0,0.5l0,1c0,0.2,0,0.4,0,0.6V54
		c0,0.1,0,0.2,0,0.3l0,0.3c0,0.1,0,0.2,0,0.3v0.2c0,0.1,0,0.2,0,0.3l0,0.5l0,0c0,0.1-0.1,0.2-0.1,0.2c0,0.3,0.2,0.5,0.5,0.6
		c0.1,0,0.2,0,0.3,0.1c0,0,0.1,0,0.2,0l0.4,0c0.1,0,0.1,0,0.2,0c0.1,0,0.2,0.1,0.2,0.1c0,0,0.1,0,0.2,0c0.1,0,0.1,0,0.2,0l2.6,0
		c0.1,0,0.3,0,0.4-0.1c0.3-0.2,0.3-0.4,0.3-0.5l0.1-6.3c0-0.3-0.1-0.5-0.1-0.7c0-0.2-0.1-0.4-0.1-0.7c0-0.2,0-0.4,0-0.7
		c0-0.2,0-0.5,0-0.7c0,0,0-0.1,0-0.1l0-0.2c0-0.1,0-0.1,0-0.2c0-0.1,0-0.1,0-0.2l0-0.7l1,0l0.5-0.1c0.1,0,0.2,0,0.2-0.1
		c0.1,0,0.2-0.1,0.3-0.2c0.1-0.1,0.1-0.3,0.1-0.5l0-0.9C254.5,43.6,254.5,43.3,254.5,42.9z"/>
	<path class="st8" d="M272.8,47.3c-0.1-0.5-0.1-1-0.3-1.4c-0.1-0.5-0.3-0.9-0.5-1.4c-0.2-0.5-0.4-0.9-0.7-1.4l-0.5-0.7
		c0,0,0-0.1-0.1-0.1l-0.3-0.3c-0.1-0.1-0.2-0.2-0.4-0.4l-0.3-0.3c-0.1-0.1-0.2-0.2-0.2-0.2c-0.1,0-0.1-0.1-0.3-0.2l-0.4-0.2
		c-0.2-0.1-0.3-0.2-0.4-0.2c-0.1-0.1-0.2-0.1-0.3-0.1c0,0-0.1,0-0.1,0c-0.2,0-0.4-0.1-0.7-0.1c-0.2,0-0.5-0.1-0.7-0.2
		c-0.2,0-0.4-0.1-0.5-0.1l-0.6,0c-0.1,0-0.1,0-0.2,0l-1.1,0.1c-0.2,0-0.4,0-0.6,0.1c-0.2,0-0.3,0-0.4,0.1c-0.1,0-0.1,0-0.2,0
		l-0.9,0.2c0,0,0,0-0.1,0c0,0-0.1,0-0.1,0l-0.1,0c-0.1,0-0.2,0-0.3,0.1c0,0,0,0-0.1,0.1l-0.1,0c0,0,0,0-0.1,0c-0.1,0-0.1,0-0.1,0
		c0,0-0.2,0-0.2,0.1l-0.1,0.1c-0.1,0-0.1,0.1-0.3,0.1c-0.3,0.2-0.6,0.3-0.9,0.5c-0.3,0.2-0.6,0.4-0.8,0.7c-0.4,0.3-0.7,0.7-0.9,1
		c-0.3,0.4-0.5,0.7-0.7,1.1c-0.2,0.4-0.4,0.8-0.5,1.2c-0.1,0.4-0.3,0.9-0.4,1.4v0.9c0,0.4,0,0.8,0,1.2c0,0.3,0.1,0.7,0.1,1
		c0.1,0.3,0.1,0.7,0.3,1c0.1,0.3,0.3,0.7,0.4,1.1c0.2,0.5,0.5,1,0.8,1.4c0.3,0.4,0.7,0.8,1.1,1.2c0.1,0.1,0.2,0.2,0.3,0.3
		c0.1,0.1,0.2,0.2,0.4,0.3c0.1,0.1,0.3,0.2,0.4,0.3c0.2,0.1,0.3,0.2,0.5,0.3l0.1,0.1c0,0,0.1,0,0.2,0.1c0.1,0,0.1,0.1,0.2,0.1
		c0.1,0.1,0.2,0.1,0.3,0.2c0.1,0.1,0.2,0.1,0.3,0.1s0.2,0.1,0.3,0.1c0,0,0.1,0,0.1,0l0.4,0.1c0.1,0,0.2,0,0.2,0h0l0.3,0.1
		c0,0,0.1,0,0.1,0h0.1c0.1,0,0.1,0,0.3,0l0.3,0c0.1,0,0.3,0,0.4,0c0.1,0,0.2,0,0.2,0c0.1,0,0.2,0,0.2,0l0.4-0.1
		c0.1,0,0.1,0.1,0.2,0.1l0.4,0c0.1,0,0.2,0,0.3,0h0.1c0.1,0,0.1,0,0.2,0c0.3,0,0.6,0,0.9-0.1c0.4-0.1,0.7-0.2,1.1-0.3
		c0.3-0.1,0.7-0.3,1-0.5c0.3-0.2,0.7-0.4,1-0.6c0.2-0.2,0.4-0.4,0.5-0.6c0.1-0.2,0.2-0.3,0.3-0.4c0.1-0.1,0.2-0.3,0.3-0.4
		c0.1-0.1,0.2-0.3,0.4-0.5c0.2-0.4,0.3-0.8,0.4-1.1c0.1-0.4,0.2-0.8,0.3-1.2c0,0,0-0.2,0-0.4l0.1-1.3c0-0.2,0-0.4,0.1-0.6
		C272.9,48.2,272.8,47.7,272.8,47.3z M262,49.2C262,49.2,262,49.2,262,49.2c-0.1-0.2-0.1-0.4-0.2-0.6c0-0.2,0-0.4-0.1-0.6
		c0,0,0,0,0-0.1c0-0.1,0-0.2,0-0.3c0-0.1,0-0.2,0-0.4c0-0.1,0-0.2,0.1-0.3c0-0.1,0.1-0.2,0.1-0.2c0,0,0-0.1,0.1-0.1l0.2-0.6
		c0.1-0.1,0.1-0.3,0.3-0.4c0.1-0.1,0.3-0.2,0.4-0.3c0.2-0.1,0.4-0.2,0.6-0.2c0.2-0.1,0.4-0.1,0.6-0.2c0.2,0,0.3-0.1,0.4-0.1
		c0.1,0,0.3,0,0.5,0c0.2,0,0.3,0,0.5,0c0.1,0,0.3,0.1,0.4,0.1c0.1,0,0.2,0.1,0.4,0.2c0.1,0.1,0.3,0.2,0.4,0.3
		c0.3,0.2,0.5,0.4,0.8,0.6c0.2,0.2,0.3,0.4,0.4,0.6c0.1,0.2,0.1,0.4,0.2,0.6c0.1,0.2,0.1,0.3,0.1,0.4c0,0.4-0.1,0.8-0.1,0.9l0,0.3
		c0,0.3-0.1,0.7-0.2,1c-0.1,0.3-0.3,0.6-0.5,0.9c-0.2,0.3-0.5,0.5-0.8,0.7c-0.3,0.2-0.6,0.3-1,0.3c0,0-0.1,0-0.1,0l-0.2,0
		c0,0-0.1,0-0.1,0c-0.2,0-0.3,0-0.4,0l-0.3,0c0,0-0.1,0-0.3-0.1c0,0-0.1,0-0.1,0c0,0-0.1,0-0.1,0c-0.1-0.1-0.1-0.1-0.2-0.1l-0.3-0.2
		c0,0-0.1-0.1-0.2-0.1c-0.1,0-0.1-0.1-0.2-0.1c0,0-0.1-0.1-0.2-0.1c0,0,0-0.1-0.1-0.1l-0.3-0.4c-0.1-0.1-0.1-0.1-0.1-0.1
		c0,0,0,0,0,0c-0.1-0.1-0.1-0.1-0.1-0.2c0-0.1-0.1-0.2-0.1-0.3c0-0.1-0.1-0.2-0.1-0.3c0-0.1-0.1-0.2-0.1-0.3
		C262.1,49.4,262.1,49.3,262,49.2z"/>
</g>
<g>
	<path class="st0" d="M135.1,51.9c0-0.2,0-0.3-0.1-0.5c-0.1-0.1-0.1-0.3-0.2-0.4c0,0,0-0.1-0.1-0.1c-0.1-0.1-0.1-0.1-0.1-0.1
		c0,0,0,0,0,0v-0.1c0,0,0,0,0-0.1c0,0,0-0.1,0-0.1c0,0,0.1,0,0.1-0.1c0,0,0.1-0.1,0.2-0.1c0.1,0,0.1-0.1,0.2-0.1
		c0,0,0.1-0.1,0.1-0.1c0,0,0.1-0.1,0.2-0.2c0.1-0.1,0.2-0.2,0.3-0.3c0.1-0.1,0.2-0.2,0.3-0.3c0.1-0.1,0.2-0.1,0.2-0.2
		c0,0,0,0,0.1-0.1c0.1,0,0.1-0.1,0.2-0.1c0.1,0,0.1-0.1,0.2-0.1s0.1-0.1,0.1-0.1c0,0,0,0,0.1-0.1c0,0,0.1-0.1,0.1-0.1
		s0.1-0.1,0.1-0.1c0,0,0.1,0,0.1-0.1c0,0,0.1,0,0.2-0.1s0.2-0.1,0.2-0.1l0,0c0,0,0,0,0,0c0,0,0,0,0,0l0,0c0.1,0.1,0.2,0.2,0.3,0.3
		c0.1,0.2,0.3,0.3,0.5,0.5c0.2,0.2,0.3,0.4,0.5,0.5c0.1,0.2,0.2,0.3,0.3,0.3c0,0,0.1,0.1,0.2,0.1s0.2,0.2,0.3,0.2
		c0.1,0.1,0.2,0.2,0.3,0.3c0.1,0.1,0.2,0.1,0.2,0.2c0,0,0.1,0.1,0.1,0.1c0.1,0.1,0.1,0.1,0.2,0.2c0.1,0,0.1,0.1,0.2,0.1
		s0.1,0.1,0.1,0.1c0,0,0.1,0,0.1,0c0.1,0,0.1,0,0.2,0.1h0.1c0.1,0,0.2,0,0.4,0c0.2,0,0.3,0,0.5,0c0.1,0,0.3-0.1,0.4-0.2
		c0.1-0.1,0.2-0.2,0.3-0.4l-0.2-1.1c0,0,0-0.1,0-0.2s0-0.2-0.1-0.2l-0.4-0.6c0,0,0,0,0-0.1c0,0,0,0,0,0c0,0,0,0,0,0
		c-0.2-0.3-0.3-0.5-0.5-0.7c-0.2-0.2-0.4-0.4-0.6-0.6s-0.4-0.4-0.6-0.6c-0.2-0.2-0.4-0.4-0.7-0.6c-0.2-0.2-0.4-0.4-0.6-0.6
		c-0.2-0.2-0.4-0.4-0.6-0.5c-0.2-0.2-0.4-0.4-0.7-0.6c-0.2-0.2-0.4-0.4-0.6-0.6c-0.3-0.3-0.5-0.6-0.8-1c-0.3-0.4-0.5-0.8-0.7-1.2
		c-0.2-0.4-0.4-0.8-0.5-1.3c-0.1-0.4-0.2-0.9-0.1-1.3c0-0.3,0.1-0.7,0.2-0.9c0.1-0.3,0.3-0.6,0.4-0.8c0,0,0,0,0.1-0.1c0,0,0,0,0-0.1
		c0-0.1,0.1-0.1,0.2-0.2c0.1-0.1,0.1-0.2,0.2-0.3c0.1-0.1,0.1-0.2,0.2-0.2c0-0.1,0.1-0.1,0.1-0.1c0,0,0.1,0,0.1-0.1s0.2-0.2,0.3-0.2
		c0.1-0.1,0.2-0.2,0.3-0.3c0.1-0.1,0.2-0.2,0.2-0.2c0.2-0.2,0.4-0.3,0.6-0.4c0.2-0.1,0.4-0.2,0.6-0.3c0.2-0.1,0.4-0.2,0.7-0.2
		c0.2-0.1,0.5-0.1,0.7-0.2c0.1,0,0.2,0,0.3-0.1c0.1,0,0.3,0,0.4,0c0.1,0,0.3,0,0.4,0c0.1,0,0.2,0,0.3,0c0.3,0,0.7,0.1,0.9,0.1
		c0.3,0.1,0.6,0.1,0.8,0.2c0.3,0.1,0.5,0.2,0.8,0.4c0.3,0.1,0.5,0.3,0.8,0.5c0,0,0,0,0,0c0,0,0,0,0,0c0,0,0,0,0,0l0.4,0.3
		c0,0,0,0.1,0.1,0.1c0,0.1,0.1,0.1,0.1,0.1c0,0,0.1,0.1,0.2,0.2c0.1,0.1,0.2,0.2,0.3,0.3c0.1,0.1,0.2,0.2,0.3,0.3
		c0.1,0.1,0.2,0.2,0.2,0.2c0,0,0,0,0.1,0.1s0.1,0.1,0.1,0.1c0,0.1,0.1,0.1,0.1,0.2c0,0.1,0.1,0.1,0.1,0.1c0.1,0.1,0.1,0.2,0.2,0.3
		c0.1,0.1,0.1,0.2,0.1,0.3v0.1c0,0,0,0-0.1,0.1c0,0-0.1,0.1-0.1,0.1s-0.1,0.1-0.1,0.1c0,0-0.1,0.1-0.1,0.1c0,0,0,0-0.1,0
		c0,0-0.1,0.1-0.1,0.1c0,0-0.1,0.1-0.1,0.1s-0.1,0-0.1,0c-0.1,0.1-0.2,0.2-0.3,0.3s-0.3,0.3-0.5,0.4c-0.2,0.1-0.3,0.3-0.5,0.4
		s-0.3,0.2-0.3,0.3c-0.1,0.1-0.1,0.1-0.3,0.1c0,0-0.1,0-0.2,0c-0.1,0-0.1,0-0.2-0.1c0,0,0,0,0-0.1c0,0,0-0.1,0-0.1
		c0,0,0-0.1-0.1-0.1c0,0,0-0.1,0-0.1c-0.1-0.2-0.2-0.3-0.3-0.5c-0.1-0.2-0.2-0.3-0.3-0.5s-0.3-0.3-0.4-0.4c-0.1-0.1-0.3-0.2-0.4-0.3
		c0,0-0.1,0-0.1,0s-0.1,0-0.2-0.1c-0.1,0-0.1,0-0.2-0.1s-0.1,0-0.1,0c0,0,0,0-0.1-0.1c-0.1,0-0.1,0-0.1,0h0c0,0,0,0,0,0s0,0,0,0
		c-0.1,0-0.3,0-0.4,0c-0.1,0-0.3,0-0.4,0c-0.1,0-0.2,0.1-0.4,0.1c-0.1,0.1-0.2,0.2-0.3,0.3c0,0,0,0.1-0.1,0.2s-0.1,0.1-0.1,0.1
		s0,0.1,0,0.1c0,0.1,0,0.1,0,0.2c0,0.1,0,0.1,0,0.2c0,0.1,0,0.1,0,0.1c0,0,0,0,0,0.1c0,0,0,0.1,0,0.1v0v0c0.1,0.2,0.2,0.4,0.3,0.6
		s0.3,0.4,0.4,0.5c0.1,0.2,0.3,0.3,0.5,0.5s0.3,0.3,0.5,0.5c0,0,0,0.1,0.1,0.1c0.1,0.1,0.1,0.1,0.1,0.1c0,0,0.1,0.1,0.2,0.2
		c0.1,0.1,0.2,0.2,0.4,0.3c0.1,0.1,0.3,0.2,0.4,0.3c0.1,0.1,0.2,0.2,0.3,0.2l0.1,0.1c0,0,0,0,0.1,0.1s0.1,0.1,0.1,0.1
		c0,0,0.1,0.1,0.1,0.1s0.1,0.1,0.1,0.1l0.1,0.1c0.3,0.2,0.5,0.4,0.8,0.7s0.5,0.5,0.7,0.8c0,0,0.1,0.1,0.2,0.2s0.2,0.2,0.3,0.3
		c0.1,0.1,0.2,0.2,0.3,0.3c0.1,0.1,0.1,0.2,0.1,0.2c0,0,0,0,0.1,0.1c0,0,0.1,0.1,0.1,0.1c0,0,0,0.1,0.1,0.1c0,0.1,0,0.1,0.1,0.1
		c0,0,0,0.1,0.1,0.1s0.1,0.1,0.1,0.2c0,0.1,0.1,0.1,0.1,0.2c0,0.1,0.1,0.1,0.1,0.1c0,0,0,0,0,0.1c0,0,0,0.1,0.1,0.1
		c0,0,0,0.1,0.1,0.1c0,0,0,0,0,0.1c0,0,0,0.1,0.1,0.2s0.1,0.2,0.1,0.3c0,0.1,0.1,0.2,0.1,0.3c0,0.1,0.1,0.2,0.1,0.2
		c0,0,0,0.1,0.1,0.1s0.1,0.1,0.1,0.1c0,0,0,0.1,0,0.1c0,0.1,0,0.1,0,0.1c0,0,0,0.1,0,0.1s0.1,0.1,0.1,0.2l0.2,0.8l-0.1,1.5
		c0,0,0,0.1,0,0.1c0,0.1,0,0.1-0.1,0.1c-0.1,0.3-0.2,0.5-0.3,0.7s-0.3,0.4-0.5,0.6c0,0-0.1,0.1-0.2,0.2c-0.1,0.1-0.2,0.2-0.3,0.3
		c-0.1,0.1-0.2,0.2-0.4,0.3c-0.1,0.1-0.2,0.2-0.3,0.2c-0.3,0.2-0.6,0.5-0.9,0.7c-0.3,0.2-0.7,0.4-1.1,0.5c-0.2,0-0.3,0.1-0.4,0.1
		s-0.3,0-0.4,0.1c-0.3,0-0.5,0.1-0.7,0.2s-0.5,0.1-0.7,0.1c-0.2,0-0.5,0-0.7-0.1c-0.2,0-0.5-0.1-0.7-0.2c-0.6-0.2-1.1-0.4-1.6-0.7
		c-0.5-0.3-0.9-0.6-1.2-1c0,0-0.1-0.1-0.2-0.2c-0.1-0.1-0.2-0.2-0.3-0.3c-0.1-0.1-0.2-0.2-0.3-0.3s-0.1-0.1-0.1-0.2
		c0,0-0.1-0.1-0.2-0.2s-0.2-0.2-0.3-0.3c-0.1-0.1-0.2-0.2-0.3-0.3C135.2,52,135.2,52,135.1,51.9z"/>
	<path class="st0" d="M150.2,49.7c0-0.1,0-0.2-0.1-0.4c0-0.2-0.1-0.3-0.1-0.5c0-0.2-0.1-0.4-0.1-0.5s-0.1-0.3-0.1-0.4
		c0,0,0-0.1,0-0.2s0-0.2,0-0.3c0-0.1,0-0.2,0-0.3c0-0.1,0-0.2,0-0.2c0,0,0-0.1,0-0.2c0-0.1,0-0.1,0-0.2c0-0.1,0-0.1,0-0.2
		c0-0.1,0-0.1,0-0.1l0-0.1c0,0,0-0.1,0-0.1c0-0.1,0-0.1,0-0.2c0-0.1,0-0.2,0-0.2c0-0.1,0-0.1,0-0.1c0-0.2,0-0.4,0-0.7s0-0.5,0-0.8
		s0-0.5,0-0.8c0-0.2,0-0.5,0-0.7c0-0.3,0-0.5,0-0.8s0-0.4,0-0.6c0-0.2,0-0.4,0-0.6c0-0.2,0-0.4,0.1-0.6c0-0.1,0.1-0.2,0.3-0.2
		c0.2-0.1,0.3-0.1,0.5-0.1h0.6c0.1,0,0.2,0,0.3,0s0.2,0,0.4,0.1c0.1,0,0.2,0,0.3,0.1c0.1,0,0.2,0,0.2,0c0,0,0.1,0,0.2,0
		c0.1,0,0.2,0,0.3,0c0.1,0,0.2,0,0.3,0c0.1,0,0.2,0,0.2,0c0,0,0.1,0,0.2,0c0.1,0,0.2,0,0.3,0s0.2,0,0.3,0c0.1,0,0.2,0,0.2,0
		c0,0,0.1,0.1,0.1,0.1c0,0,0,0.1,0,0.1c0,0,0,0.1,0,0.1c0,0,0,0.1,0,0.2v0.5c0,0.3-0.1,0.6-0.1,0.9s0,0.6,0,0.9c0,0.5,0,1,0,1.5
		c0,0.5,0,1,0,1.6l0.1,0.6v0.2c0,0.2,0.1,0.4,0.1,0.6c0,0.2,0,0.4,0.1,0.6c0,0.2,0,0.4,0.1,0.6c0,0.2,0.1,0.4,0.2,0.6
		c0,0,0,0.1,0.1,0.2c0,0.1,0.1,0.1,0.1,0.2c0,0.1,0.1,0.1,0.1,0.2c0,0.1,0,0.1,0,0.1c0.1,0.2,0.1,0.3,0.3,0.4s0.3,0.2,0.4,0.3
		c0.1,0.1,0.3,0.1,0.4,0.2s0.2,0.1,0.2,0.1c0,0,0.1,0,0.2,0.1c0.1,0,0.2,0.1,0.2,0.1c0,0,0.1,0,0.2,0c0.1,0,0.1,0,0.2,0
		c0.1,0,0.3,0,0.6-0.1c0.2-0.1,0.5-0.2,0.7-0.3c0.3-0.3,0.5-0.6,0.7-1c0.1-0.3,0.2-0.7,0.3-1c0.1-0.3,0.1-0.7,0.1-1.1
		c0-0.4,0-0.8,0-1.2v-0.4c0,0,0-0.1,0-0.3c0-0.2,0-0.4,0-0.5c0-0.2,0-0.4,0-0.5c0-0.2,0-0.3,0-0.3v-1.2c0,0,0-0.1,0-0.2
		c0-0.1,0-0.3-0.1-0.4c0-0.2,0-0.3-0.1-0.5c0-0.2,0-0.4-0.1-0.5c0-0.2,0-0.3-0.1-0.4c0-0.1,0-0.2,0-0.2l0.1-1c0-0.1,0.1-0.1,0.1-0.1
		c0.1,0,0.1,0,0.2,0s0.2,0,0.2,0s0.1,0,0.2,0c0,0,0,0,0.1,0s0.1,0,0.1,0c0,0,0.1,0,0.1,0c0,0,0.1,0,0.1,0l1.5,0.1c0,0,0.1,0,0.2,0
		s0.2,0,0.3,0c0.1,0,0.2,0,0.3,0c0.1,0,0.2,0,0.2,0c0,0,0.1,0,0.2,0c0.1,0,0.2,0,0.3,0c0.1,0,0.2,0,0.3,0c0.1,0,0.2,0,0.2,0l0.1,0
		c0.1,0,0.2,0,0.2,0.1c0.1,0.1,0.1,0.2,0.1,0.3c0,0.1,0,0.3,0.1,0.4c0,0.2,0,0.3,0,0.5v0.2c0,0.2,0,0.3,0,0.5c0,0.2,0,0.3,0,0.5
		c0,0,0,0.2,0,0.3s0,0.4,0,0.5c0,0.2,0,0.4,0,0.5s0,0.3,0,0.3c0,0,0,0.1,0,0.2c0,0.1,0,0.3-0.1,0.4c0,0.2,0,0.3-0.1,0.4
		c0,0.1,0,0.2,0,0.2c0,0,0,0.1,0,0.3c0,0.2,0,0.3,0,0.5c0,0.2,0,0.4-0.1,0.6c0,0.2,0,0.3,0,0.4c0,0,0,0.1,0,0.1c0,0.1,0,0.2,0,0.2
		c0,0.1,0,0.2,0,0.2c0,0.1,0,0.1,0,0.1c0,0,0,0,0,0.1c0,0.1,0,0.1,0,0.2c0,0.1,0,0.1,0,0.2c0,0.1,0,0.1,0,0.1c0,0,0,0,0,0.1
		c0,0,0,0.1,0,0.1c0,0,0,0.1,0,0.1c0,0,0,0.1,0,0.1c-0.1,0.3-0.1,0.6-0.2,0.8c0,0.3-0.1,0.5-0.1,0.8s-0.1,0.5-0.2,0.7
		c-0.1,0.3-0.1,0.5-0.2,0.8c-0.1,0.2-0.2,0.4-0.3,0.6c-0.1,0.2-0.3,0.4-0.4,0.6c-0.2,0.2-0.3,0.4-0.5,0.6s-0.3,0.3-0.4,0.4
		c-0.1,0.2-0.2,0.3-0.4,0.4c-0.2,0.1-0.4,0.2-0.6,0.3c-0.2,0.1-0.4,0.2-0.6,0.2c-0.2,0.1-0.4,0.1-0.6,0.2c-0.3,0.1-0.5,0.2-0.8,0.2
		c-0.3,0-0.5,0-0.8,0c-0.2,0-0.5,0-0.7,0s-0.5,0-0.7,0c-0.2,0-0.5,0-0.7-0.1c-0.2,0-0.5-0.1-0.7-0.2c-0.5-0.2-0.9-0.5-1.3-0.7
		c-0.4-0.3-0.8-0.6-1.2-0.9c0,0-0.1-0.1-0.2-0.2s-0.2-0.2-0.2-0.3c-0.1-0.1-0.2-0.2-0.3-0.2s-0.2-0.1-0.2-0.2c0,0,0,0,0-0.2
		c-0.1-0.1-0.1-0.3-0.3-0.6c0-0.1-0.1-0.2-0.1-0.4c-0.1-0.2-0.1-0.4-0.2-0.6c-0.1-0.2-0.1-0.4-0.1-0.6S150.2,49.8,150.2,49.7z"/>
	<path class="st0" d="M175.5,55.2c-0.1,0-0.2-0.1-0.3-0.1c-0.1-0.1-0.2-0.1-0.4-0.2c-0.1-0.1-0.2-0.1-0.4-0.2
		c-0.1-0.1-0.2-0.1-0.3-0.2c0,0,0,0-0.1-0.1c0,0-0.1-0.1-0.1-0.1s-0.1-0.1-0.1-0.1s-0.1-0.1-0.1-0.1c-0.1-0.1-0.2-0.1-0.2-0.2
		s-0.1-0.1-0.1-0.1s-0.1-0.1-0.1-0.1c-0.1,0-0.1-0.1-0.2-0.1c0,0,0,0,0,0.1s0,0.1,0,0.1c0,0,0,0,0,0.1s0,0.1,0,0.1
		c0,0.1,0,0.1,0,0.1c0,0,0,0.1,0,0.1c0,0,0,0.1,0,0.2s0,0.2,0,0.3c0,0.1,0,0.2,0,0.3s0,0.1,0,0.2l-0.1,0.2l-2.7,0.1
		c-0.1,0-0.1-0.1-0.2-0.1s-0.1,0-0.2,0l-0.8-0.1c-0.1,0-0.2,0-0.3,0s-0.2,0-0.3,0c-0.1,0-0.2,0-0.2,0c-0.1,0-0.2-0.1-0.3-0.1
		c0,0-0.1,0-0.1-0.1s-0.1,0-0.1-0.1c0,0-0.1-0.1-0.1-0.1c0-0.1-0.1-0.1-0.1-0.1c-0.1-0.3-0.1-0.5-0.1-0.7s0-0.5,0-0.7
		c0,0,0-0.1,0-0.2s0-0.1,0-0.2s0-0.1,0-0.2c0-0.1,0-0.1,0-0.1l0.2-5.6v-0.1c0-0.5,0.1-1.1,0.1-1.6c0-0.5,0.1-1.1,0.1-1.6
		c0-0.1,0-0.2,0-0.4c0-0.2,0-0.4,0-0.7s0-0.5,0-0.7c0-0.2,0-0.3,0-0.4c0-0.4,0-0.9,0-1.4s0-0.9-0.1-1.4c0,0,0-0.1,0-0.1
		c0-0.1,0-0.1,0-0.2c0-0.1,0-0.1,0-0.2s0-0.1,0-0.1c0-0.1,0-0.4,0-0.6c0-0.3,0-0.6,0-0.9c0-0.3,0-0.6,0-0.9c0-0.3,0-0.5,0-0.6
		c0-0.1,0.1-0.1,0.1-0.1c0,0,0.1,0,0.2,0c0.1,0,0.2,0,0.3,0c0.1,0,0.2,0,0.3,0c0.2,0,0.4,0,0.6-0.1s0.4-0.1,0.6-0.1
		c0.3,0,0.6-0.1,0.8-0.1c0.3,0,0.5,0,0.8-0.1h0.2c0,0,0.1,0,0.1,0c0,0,0.1,0,0.2,0c0.1,0,0.2,0,0.2,0c0,0,0,0,0.1,0
		c0.1,0,0.1,0,0.2,0c0.1,0,0.1,0,0.2,0c0,0,0.1,0,0.1,0c0.1,0,0.1,0.1,0.2,0.2c0,0.1,0.1,0.3,0.1,0.4c0,0.2,0,0.3,0,0.4
		c0,0.1,0,0.2,0,0.3v0.1c0,0,0,0.1,0,0.1l-0.2,3.1l-0.4,1.8c0.2-0.1,0.3-0.3,0.5-0.4c0.2-0.2,0.3-0.4,0.5-0.5
		c0.2-0.2,0.4-0.3,0.7-0.5s0.5-0.2,0.8-0.3c0.4-0.1,0.7-0.2,1-0.2s0.7-0.1,1.1-0.1c0.6,0,1.3,0.1,1.9,0.3s1.3,0.5,1.9,0.8
		c0.1,0.1,0.2,0.1,0.3,0.3c0.1,0.1,0.3,0.2,0.4,0.4c0.2,0.1,0.3,0.2,0.4,0.4c0.1,0.1,0.2,0.2,0.3,0.2c0.2,0.2,0.4,0.4,0.5,0.5
		s0.3,0.3,0.4,0.5c0.1,0.2,0.3,0.4,0.4,0.6c0.1,0.2,0.2,0.4,0.3,0.6c0.1,0.1,0.1,0.3,0.2,0.5c0.1,0.2,0.1,0.4,0.2,0.6
		s0.1,0.4,0.1,0.6s0,0.4,0.1,0.6c0,0.2,0,0.4,0,0.5c0,0.2,0,0.3,0,0.4c0,0.1,0,0.3-0.1,0.4c0,0.1,0,0.3-0.1,0.5
		c-0.2,1.2-0.5,2.3-1,3.4c-0.5,1-1.3,2-2.2,2.7c-0.2,0.2-0.5,0.4-0.7,0.5c-0.2,0.1-0.4,0.3-0.7,0.4s-0.5,0.2-0.7,0.3
		s-0.5,0.1-0.8,0.2c0,0,0,0-0.1,0c-0.1,0-0.1,0-0.1,0c0,0-0.1,0-0.2,0c-0.1,0-0.1,0-0.1,0c-0.1,0-0.2,0-0.3,0s-0.3,0-0.5,0
		c-0.2,0-0.4,0-0.5,0S175.5,55.3,175.5,55.2z M172.5,48c0,0,0,0.1,0,0.2c0,0.1,0,0.1,0.1,0.2c0.1,0.3,0.2,0.5,0.3,0.7
		c0.1,0.2,0.2,0.4,0.4,0.6c0.1,0.2,0.3,0.3,0.5,0.5c0.2,0.2,0.4,0.3,0.6,0.5c0.2,0.1,0.4,0.2,0.6,0.3c0.2,0.1,0.4,0.2,0.6,0.2
		c0,0,0.1,0,0.2,0c0.1,0,0.2,0,0.3,0c0,0,0,0,0.1,0s0.1,0,0.2-0.1c0.1,0,0.2-0.1,0.3-0.1s0.2,0,0.2-0.1c0.3-0.2,0.6-0.4,0.8-0.5
		c0.2-0.2,0.4-0.4,0.6-0.7c0,0,0.1-0.1,0.1-0.2c0.1-0.1,0.1-0.2,0.2-0.3c0.1-0.1,0.1-0.2,0.2-0.3c0-0.1,0.1-0.2,0.1-0.2
		c0,0,0-0.1,0.1-0.2s0.1-0.2,0.1-0.3c0-0.1,0.1-0.2,0.1-0.3c0-0.1,0-0.2,0-0.2c0,0,0-0.1,0-0.1s0-0.2,0-0.3c0-0.1,0-0.2,0-0.4
		c0-0.1,0-0.2,0-0.3c0,0,0,0,0,0v-0.1v-0.1c0,0,0-0.1,0-0.2c0-0.1,0-0.1,0-0.2c0-0.1,0-0.1,0-0.2s0-0.1,0-0.1c0,0,0,0,0-0.1
		c0,0,0,0-0.1-0.1c0,0,0,0-0.1,0s-0.1,0-0.1-0.1c0,0-0.1-0.1-0.1-0.1c0,0,0,0-0.1-0.1c0,0,0-0.1,0-0.1s0-0.1,0-0.1l0,0c0,0,0,0,0,0
		c0,0,0,0,0,0c0,0-0.1-0.1-0.2-0.2c-0.1-0.1-0.1-0.1-0.2-0.2c0-0.1,0-0.2-0.1-0.2c-0.1-0.1-0.2-0.1-0.2-0.1
		c-0.3-0.2-0.6-0.4-0.8-0.5c-0.2-0.1-0.5-0.2-0.7-0.3s-0.5-0.1-0.8-0.1s-0.7,0.1-1.1,0.2c-0.4,0.2-0.7,0.4-1,0.8
		c-0.3,0.3-0.5,0.7-0.6,1.1c-0.2,0.4-0.3,0.9-0.3,1.3C172.6,47.2,172.5,47.6,172.5,48L172.5,48z"/>
	<path class="st0" d="M186.8,36.4c0-0.1,0-0.2,0-0.3c0-0.1,0-0.2,0.1-0.4c0.1-0.2,0.2-0.3,0.2-0.5c0.1-0.2,0.2-0.3,0.3-0.4
		c0,0,0.1-0.1,0.2-0.1c0.1-0.1,0.1-0.1,0.2-0.2s0.1-0.1,0.2-0.1c0.1,0,0.1-0.1,0.1-0.1c0.1-0.1,0.2-0.1,0.3-0.2c0.1,0,0.2,0,0.3,0
		c0.1,0,0.2,0,0.3,0c0.1,0,0.2,0,0.3,0c0.1,0,0.2,0,0.3,0.1c0.1,0,0.2,0.1,0.3,0.1c0.1,0,0.2,0.1,0.3,0.1s0.2,0.1,0.3,0.2
		c0.3,0.2,0.6,0.5,0.8,0.8s0.4,0.7,0.4,1.1c0,0.3,0,0.5,0,0.6c0,0.2-0.1,0.3-0.1,0.5c-0.1,0.1-0.1,0.3-0.3,0.4
		c-0.1,0.1-0.3,0.3-0.5,0.4c-0.2,0.2-0.4,0.3-0.6,0.4c-0.3,0.1-0.5,0.2-0.7,0.2c0,0-0.1,0-0.1,0c-0.1,0-0.1,0-0.2,0
		c-0.1,0-0.1,0-0.2,0c-0.1,0-0.1,0-0.1,0c0,0-0.1,0-0.2,0s-0.1,0-0.2-0.1s-0.1,0-0.2-0.1c-0.1,0-0.1,0-0.1,0c0,0-0.1,0-0.1-0.1
		c-0.1,0-0.1-0.1-0.2-0.1c-0.1,0-0.1-0.1-0.2-0.1s-0.1,0-0.1-0.1c-0.2-0.1-0.3-0.3-0.4-0.4c-0.1-0.1-0.2-0.3-0.3-0.5
		c-0.1-0.2-0.1-0.3-0.1-0.5C186.8,36.9,186.8,36.7,186.8,36.4z M187.1,45.7c0-0.1,0-0.2,0-0.4s0-0.5,0-0.8s0-0.6,0-0.9s0-0.5,0-0.7
		c0,0,0-0.1,0-0.1c0-0.1,0-0.1,0-0.2s0-0.1,0-0.2c0-0.1,0-0.1,0-0.1v-1.5c0-0.1,0.1-0.1,0.3-0.2c0.1,0,0.2-0.1,0.3-0.1h3.4
		c0.1,0,0.1,0,0.2,0s0.1,0,0.1,0.1s0.1,0.1,0.1,0.2c0,0.1,0,0.3,0,0.5c0,0,0,0.1,0,0.1c0,0.1,0,0.1,0,0.2s0,0.1,0,0.2
		c0,0.1,0,0.1,0,0.1c0,0.1,0,0.3,0,0.6c0,0.3,0,0.6,0,0.9s0,0.6,0,0.9c0,0.3,0,0.5,0,0.6c0,0.1,0,0.2,0,0.4c0,0.2,0,0.5,0.1,0.7
		c0,0.3,0,0.5,0.1,0.7c0,0.2,0,0.4,0,0.4c0,0.1,0,0.2,0,0.4c0,0.2,0,0.4,0,0.7c0,0.3,0,0.6,0,0.9c0,0.3,0,0.6,0,0.9
		c0,0.3,0,0.5,0,0.7s0,0.3,0,0.4c0,0.1,0,0.3,0,0.6c0,0.3,0,0.5,0,0.8s0,0.6,0,0.8c0,0.3,0,0.4,0,0.6v0.2c0,0.3,0,0.6-0.1,0.7
		c-0.1,0.2-0.2,0.2-0.5,0.2l-3.8,0c-0.2,0-0.3-0.1-0.4-0.2c-0.1-0.1-0.1-0.2-0.1-0.4c0-0.2,0-0.4,0-0.6s0-0.5,0-0.7
		c0-0.2,0-0.4,0-0.6c0-0.2,0-0.4,0-0.6c0-0.2,0-0.4,0-0.6c0-0.2,0-0.4,0-0.6c0-0.5,0-0.9-0.1-1.3c0-0.4,0-0.8,0-1.2s0-0.8,0-1.2
		C187.1,46.6,187.1,46.1,187.1,45.7z"/>
	<path class="st0" d="M196.4,55.5l-0.7-0.1c-0.1,0-0.1,0-0.1,0c0,0,0,0,0-0.1c0-0.1,0-0.2,0-0.2s0-0.2,0-0.2c0-0.1,0-0.2-0.1-0.2
		c0-0.1-0.1-0.1-0.1-0.2c0,0,0-0.1,0-0.1s0-0.1,0.1-0.1c0-0.1,0-0.4,0-0.8s0-0.9,0-1.4c0-0.6,0-1.2-0.1-1.8c0-0.7,0-1.3-0.1-2
		c0-0.7,0-1.3-0.1-1.9c0-0.6,0-1.1,0-1.5c0-0.1,0-0.2,0-0.3c0-0.1,0-0.3-0.1-0.4c0-0.1,0-0.3-0.1-0.4c0-0.1,0-0.2,0-0.3
		c0,0,0-0.1,0-0.1s0-0.1,0-0.1c0,0-0.1,0-0.1-0.1s0-0.1,0-0.1l0-0.1l0.1-0.1c0-0.2,0-0.4,0-0.5c0-0.1,0-0.3,0-0.5c0,0,0-0.1,0-0.1
		c0,0,0-0.1,0-0.2c0-0.1,0-0.1,0-0.2c0,0,0-0.1,0-0.1c0-0.1,0-0.1,0-0.1s0-0.1,0-0.1c0-0.1,0-0.1,0-0.1c0,0,0,0,0-0.1s0-0.1,0-0.2
		s0-0.1,0-0.2c0,0,0-0.1,0-0.1l0,0c0,0,0,0,0,0c0.3,0,0.5-0.1,0.8-0.1c0.3-0.1,0.5-0.1,0.8-0.1c0.3,0,0.6,0,0.9,0
		c0.3,0,0.6,0.1,0.9,0.1c0,0,0.1,0,0.2,0s0.2,0,0.2,0s0.1,0,0.2,0.1c0.1,0,0.1,0.1,0.1,0.2c0,0.1,0,0.2,0,0.3c0,0.1,0,0.2,0,0.3v0
		c0,0,0,0,0,0c0,0,0,0,0,0c0.1,0,0.1-0.1,0.2-0.1c0.1,0,0.2-0.1,0.3-0.1c0.1,0,0.2-0.1,0.3-0.1c0.1,0,0.2-0.1,0.2-0.1
		c0,0,0.1,0,0.1-0.1s0.1-0.1,0.2-0.1c0,0,0.1,0,0.1,0s0.1,0,0.1-0.1c0.1,0,0.2-0.1,0.3-0.1c0.1,0,0.2-0.1,0.3-0.1s0.2-0.1,0.3-0.1
		c0.1,0,0.2-0.1,0.2-0.1c0.2-0.1,0.4-0.1,0.6-0.1c0.2,0,0.4,0,0.6,0c0.4,0,0.7,0,1.1,0.1c0.4,0.1,0.7,0.2,1.1,0.3
		c0.3,0.1,0.7,0.3,0.9,0.5c0.3,0.2,0.5,0.4,0.7,0.5c0.1,0.1,0.1,0.1,0.2,0.2c0.1,0.1,0.1,0.2,0.2,0.3c0.1,0.1,0.1,0.2,0.2,0.3
		c0,0.1,0.1,0.2,0.1,0.3c0,0,0,0.1-0.1,0.2c0,0.1-0.1,0.2-0.2,0.2s-0.1,0.2-0.2,0.2C207.1,43,207,43,207,43c0,0,0,0-0.1,0
		c0,0-0.1,0-0.1,0.1s-0.1,0-0.1,0.1c0,0-0.1,0-0.1,0c0,0-0.1,0.1-0.1,0.1c-0.1,0-0.1,0.1-0.2,0.1c-0.1,0-0.1,0.1-0.2,0.1
		c-0.1,0-0.1,0.1-0.1,0.1c-0.1,0.1-0.3,0.2-0.4,0.3s-0.3,0.2-0.4,0.3c-0.1,0.1-0.3,0.2-0.4,0.3s-0.3,0.1-0.5,0.1h-0.2c0,0,0,0-0.1,0
		c0,0-0.1,0-0.1,0c-0.3-0.2-0.7-0.3-1-0.5c-0.4-0.1-0.7-0.2-1.1-0.2c-0.3,0-0.5,0.1-0.7,0.3c-0.2,0.2-0.3,0.4-0.5,0.6
		c0,0-0.1,0.1-0.1,0.2c-0.1,0.1-0.1,0.1-0.1,0.2c0,0,0,0.1-0.1,0.2c0,0.1-0.1,0.2-0.2,0.2c-0.1,0.1-0.1,0.2-0.2,0.3
		c-0.1,0.1-0.1,0.2-0.1,0.2c-0.1,0.2-0.1,0.4-0.1,0.6c0,0.2,0,0.4,0,0.6c-0.1,0.8-0.2,1.5-0.2,2.2c0,0.7,0.1,1.3,0.1,1.9
		c0,0.4,0.1,0.9,0.1,1.3c0.1,0.4,0.1,0.8,0.1,1.3c0,0,0,0.1,0,0.3s0,0.3,0,0.4c0,0.1,0,0.3,0,0.4c0,0.1,0,0.2,0,0.3c0,0,0,0,0,0
		s0,0,0,0l0,0h0h0c0,0,0,0-0.1,0s-0.1,0-0.1,0L196.4,55.5z"/>
	<path class="st0" d="M221.3,55.4c0,0-0.1,0-0.2,0c-0.1,0-0.2,0-0.3,0c-0.1,0-0.2,0-0.3,0c-0.1,0-0.2,0-0.2,0
		c-0.2,0-0.3-0.1-0.4-0.2c0-0.1-0.1-0.2-0.1-0.4c0-0.2,0-0.3,0-0.5c0-0.2,0-0.3,0-0.5v-0.1c-0.1-1.5-0.2-2.9-0.2-4.4
		c-0.1-1.4-0.1-2.9-0.1-4.4l0-0.7c0,0,0-0.1-0.1-0.1c-0.1,0-0.1,0-0.2,0c-0.1,0-0.2,0-0.2,0s-0.1,0-0.2,0c-0.1,0-0.3,0-0.4,0
		c-0.1,0-0.3,0-0.4,0h-0.2l-0.1-0.1c0,0,0,0,0-0.1c0-0.1,0-0.2,0-0.3c0-0.1,0-0.2,0-0.4c0-0.1,0-0.2,0-0.3v-2.4c0,0,0-0.1,0-0.1
		c0-0.1,0-0.1,0-0.1h0c0.1,0,0.2,0,0.2,0c0.1,0,0.2,0,0.2,0c0.2,0,0.5,0,0.8-0.1c0.3-0.1,0.5-0.1,0.8-0.1l0.1-0.1l0-2
		c0,0,0-0.1,0-0.1c0,0,0-0.1,0-0.1s0-0.1,0-0.1c0,0,0-0.1,0.1-0.2s0.1-0.2,0.1-0.3c0-0.1,0.1-0.2,0.1-0.3c0-0.1,0-0.2,0.1-0.2
		c0,0,0-0.1,0-0.1c0,0,0-0.1,0-0.1c0,0,0-0.1,0.1-0.2c0-0.1,0.1-0.1,0.1-0.2s0.1-0.1,0.1-0.2c0-0.1,0-0.1,0.1-0.1
		c0.1-0.2,0.3-0.4,0.5-0.6c0.2-0.2,0.4-0.3,0.6-0.4c0.2-0.1,0.4-0.2,0.7-0.2s0.5-0.1,0.7-0.2h0.3c0,0,0.1,0,0.1,0s0.2,0,0.2,0
		c0.1,0,0.2,0,0.2,0c0.1,0,0.1,0,0.1,0l0.5,0.1c0.2,0,0.5,0.1,0.7,0.1c0.2,0,0.4,0.1,0.6,0.2c0.2,0.1,0.4,0.1,0.7,0.2
		c0.2,0.1,0.5,0.2,0.7,0.3c0.1,0,0.1,0.1,0.2,0.1c0.1,0,0.1,0,0.2,0.1c0,0,0.1,0.1,0.1,0.1c0,0.1,0.1,0.1,0.1,0.1
		c-0.1,0.2-0.2,0.4-0.3,0.6s-0.2,0.5-0.3,0.6c-0.1,0.2-0.1,0.3-0.2,0.5c-0.1,0.1-0.1,0.3-0.2,0.5c0,0,0,0.1-0.1,0.1s0,0.1,0,0.2
		c0,0,0,0.1-0.1,0.1c0,0-0.1,0-0.2,0h0c-0.2,0-0.4-0.1-0.6-0.1c-0.2,0-0.4,0-0.6,0c0,0,0,0-0.1,0c0,0-0.1,0-0.1,0c0,0-0.1,0-0.1,0
		c0,0-0.1,0-0.1,0c-0.2,0.1-0.3,0.1-0.5,0.2c-0.1,0.1-0.2,0.3-0.3,0.5c0,0,0,0.1,0,0.1c0,0.1,0,0.1,0,0.2c0,0.1,0,0.1,0,0.2
		s0,0.1,0,0.1c0,0,0,0.1,0,0.1c0,0,0,0.1,0,0.1l1.7,0c0.1,0,0.1,0,0.2,0c0.1,0,0.1,0,0.2,0s0.1,0.1,0.1,0.1c0,0.1,0,0.2,0,0.3l0,3.5
		c0,0.1,0,0.1,0,0.1c0,0,0,0.1-0.1,0.1s-0.1,0-0.2,0.1c-0.1,0-0.2,0.1-0.3,0.1c-0.2,0-0.4,0-0.6,0s-0.4,0.1-0.6,0.1c0,0,0,0.1,0,0.3
		c0,0.1,0,0.3,0,0.5s0,0.3,0,0.5c0,0.1,0,0.2,0,0.3c0,0.1,0,0.2,0,0.5c0,0.2,0,0.4,0,0.7c0,0.2,0,0.5,0,0.7c0,0.2,0,0.4,0,0.4v0.3
		c0,0.1,0,0.3,0,0.6c0,0.3,0,0.6,0,0.9s0,0.6,0,0.9c0,0.3,0,0.5,0,0.6v0c0,0.3,0,0.5,0,0.7c0,0.2,0,0.4,0,0.6c0,0.2,0,0.4,0,0.6
		c0,0.2,0,0.5,0,0.7V55l-0.1,0.3c-0.1,0-0.1,0.1-0.2,0.1c-0.1,0.1-0.2,0.1-0.3,0.1c0,0-0.1,0-0.2,0c-0.1,0-0.1,0-0.2,0
		c-0.1,0-0.1,0-0.2,0c-0.1,0-0.1,0-0.1,0c-0.1,0-0.2,0-0.3,0c-0.1,0-0.2,0-0.4,0s-0.3,0-0.4,0c-0.1,0-0.3,0-0.3-0.1H221.3z"/>
	<path class="st0" d="M235.1,55c-0.1,0-0.1,0-0.3-0.1c-0.1,0-0.3,0-0.4-0.1c0,0,0,0-0.1,0c-0.1,0-0.1,0-0.2-0.1
		c-0.1,0-0.2-0.1-0.3-0.1c-0.1,0-0.2-0.1-0.3-0.2c0,0,0,0-0.1,0c-0.1,0-0.1,0-0.2-0.1c-0.1,0-0.1-0.1-0.2-0.1c-0.1,0-0.1,0-0.1,0
		c-0.1-0.1-0.3-0.1-0.4-0.2s-0.3-0.2-0.4-0.3c-0.1-0.1-0.2-0.2-0.3-0.3c-0.1-0.1-0.2-0.2-0.3-0.3c-0.4-0.4-0.7-0.7-1-1.1
		c-0.3-0.4-0.6-0.8-0.8-1.3c-0.2-0.4-0.3-0.7-0.4-1.1c-0.1-0.3-0.2-0.6-0.2-0.9c-0.1-0.3-0.1-0.6-0.1-1c0-0.3,0-0.7,0-1.1v-0.9
		c0.1-0.5,0.2-0.9,0.4-1.3c0.1-0.4,0.3-0.8,0.5-1.2c0.2-0.4,0.4-0.7,0.7-1.1c0.3-0.3,0.6-0.7,0.9-1c0.2-0.2,0.5-0.4,0.8-0.6
		c0.3-0.2,0.5-0.3,0.9-0.5c0,0,0.1,0,0.1,0s0.1,0,0.1-0.1c0.1,0,0.1,0,0.1-0.1s0.1,0,0.1,0c0,0,0.1,0,0.2,0c0.1,0,0.2,0,0.2,0
		c0,0,0.1,0,0.1-0.1c0.1-0.1,0.1-0.1,0.1-0.1c0,0,0,0,0.1,0c0,0,0.1,0,0.1,0s0.1,0,0.1,0c0,0,0.1,0,0.1,0c0,0,0.1,0,0.2-0.1
		c0.1,0,0.2-0.1,0.4-0.1c0.1,0,0.2-0.1,0.4-0.1c0.1,0,0.2,0,0.2,0c0.1,0,0.2,0,0.3-0.1c0.2,0,0.3,0,0.5-0.1c0.2,0,0.4,0,0.5,0
		c0.2,0,0.3,0,0.4,0h0.1c0,0,0.1,0,0.1,0c0,0,0.1,0,0.1,0c0.2,0,0.3,0,0.5,0s0.3,0,0.5,0.1c0.2,0.1,0.5,0.1,0.7,0.2
		c0.2,0,0.5,0.1,0.7,0.1c0.1,0,0.2,0.1,0.3,0.1c0.1,0.1,0.3,0.1,0.4,0.2c0.1,0.1,0.3,0.2,0.4,0.2c0.1,0.1,0.2,0.1,0.3,0.2
		c0,0,0.1,0.1,0.2,0.2c0.1,0.1,0.2,0.2,0.3,0.3s0.2,0.2,0.3,0.4c0.1,0.1,0.2,0.2,0.3,0.3c0,0,0,0.1,0.1,0.1c0,0.1,0.1,0.1,0.1,0.2
		c0.1,0.1,0.1,0.2,0.2,0.2c0.1,0.1,0.1,0.1,0.1,0.2c0.3,0.4,0.5,0.9,0.7,1.3c0.2,0.4,0.3,0.9,0.5,1.3c0.1,0.4,0.2,0.9,0.2,1.4
		c0.1,0.5,0.1,1,0.1,1.5v0c0,0.1,0,0.3-0.1,0.6c0,0.2,0,0.5-0.1,0.7c0,0.2,0,0.4-0.1,0.6c0,0.2,0,0.3,0,0.3
		c-0.1,0.4-0.1,0.8-0.3,1.2c-0.1,0.4-0.3,0.7-0.4,1.1c-0.2,0.2-0.3,0.4-0.4,0.5s-0.2,0.3-0.3,0.4c-0.1,0.1-0.2,0.3-0.3,0.4
		s-0.3,0.3-0.5,0.6c-0.3,0.2-0.6,0.4-0.9,0.6c-0.3,0.2-0.6,0.3-1,0.5c-0.3,0.1-0.7,0.2-1,0.3s-0.7,0.1-1,0.1c0,0-0.1,0-0.2,0
		s-0.2,0-0.3,0c-0.1,0-0.2,0-0.3,0c-0.1,0-0.1,0-0.2,0c0,0,0,0-0.1,0c0,0-0.1,0-0.1,0c0,0-0.1,0-0.1,0s-0.1,0-0.2,0
		c-0.1,0-0.1,0-0.2,0c-0.1,0-0.1,0-0.1,0c0,0-0.1,0-0.2,0s-0.2,0-0.4,0c-0.1,0-0.3,0-0.4-0.1c-0.1,0-0.2,0-0.2,0h-0.1L235.1,55z
		 M233.6,46.8c0,0.2,0,0.4,0.1,0.7c0,0.2,0.1,0.4,0.2,0.6c0,0,0,0.1,0.1,0.1s0.1,0.1,0.1,0.1c0,0.1,0.1,0.2,0.1,0.3s0.1,0.2,0.1,0.4
		c0,0.1,0.1,0.2,0.1,0.3c0,0.1,0.1,0.2,0.2,0.3c0,0,0.1,0.1,0.1,0.1c0.1,0.1,0.1,0.1,0.2,0.2c0.1,0.1,0.1,0.1,0.2,0.2
		c0,0.1,0.1,0.1,0.1,0.1c0,0,0,0,0.1,0.1c0,0,0.1,0.1,0.2,0.1c0.1,0,0.1,0.1,0.2,0.1c0.1,0,0.1,0.1,0.2,0.1l0.1,0.1
		c0,0,0.1,0.1,0.2,0.1c0.1,0.1,0.1,0.1,0.1,0.1c0,0,0.1,0,0.1,0.1c0.1,0,0.1,0,0.2,0c0.2,0.1,0.3,0.1,0.4,0.1c0.1,0,0.2,0,0.2,0
		c0.1,0,0.1,0,0.2,0c0.1,0,0.2,0,0.3,0c0,0,0,0,0.1,0c0,0,0.1,0,0.2,0c0.1,0,0.1,0,0.2,0c0.1,0,0.1,0,0.1,0c0.4-0.1,0.7-0.2,1.1-0.4
		c0.3-0.2,0.6-0.4,0.9-0.7c0.2-0.3,0.4-0.6,0.6-1c0.1-0.4,0.2-0.7,0.2-1.1c0,0,0-0.1,0-0.3c0-0.2,0-0.5,0.1-0.9c0-0.2,0-0.4-0.1-0.6
		c-0.1-0.2-0.2-0.4-0.2-0.6c-0.1-0.3-0.3-0.6-0.5-0.8s-0.5-0.4-0.8-0.6c-0.2-0.1-0.3-0.2-0.5-0.3c-0.1-0.1-0.3-0.1-0.4-0.2
		c-0.1,0-0.3-0.1-0.5-0.1s-0.3,0-0.5,0c-0.2,0-0.3,0-0.5,0c-0.1,0-0.3,0-0.5,0.1c-0.2,0-0.4,0.1-0.6,0.2c-0.2,0.1-0.4,0.2-0.6,0.3
		c-0.2,0.1-0.4,0.2-0.5,0.4c-0.2,0.2-0.3,0.3-0.3,0.5l-0.2,0.6c0,0.1-0.1,0.2-0.1,0.3s-0.1,0.3-0.1,0.4c0,0.1,0,0.3,0,0.4
		S233.5,46.7,233.6,46.8z"/>
	<path class="st0" d="M249.4,54.9C249.5,54.9,249.5,54.8,249.4,54.9c0.1-0.1,0.1-0.2,0.1-0.2c0,0,0-0.1,0-0.2c0-0.1,0-0.2,0-0.3
		c0-0.1,0-0.2,0-0.3s0-0.2,0-0.2c0-0.1,0-0.2,0-0.3c0-0.1,0-0.2,0-0.3c0-0.1,0-0.2,0-0.3s0-0.1,0-0.1c0,0,0-0.2,0-0.4s0-0.4,0-0.6
		c0-0.2,0-0.4,0-0.6c0-0.2,0-0.3,0-0.4c0,0,0-0.1,0-0.2c0-0.1,0-0.2,0-0.3s0-0.2,0-0.3c0-0.1,0-0.2,0-0.2c0,0,0-0.1,0-0.2
		c0-0.1,0-0.2,0-0.3s0-0.2,0-0.3c0-0.1,0-0.2,0-0.2c0-0.1,0-0.3,0-0.5c0-0.2,0-0.5,0-0.8s0-0.6,0-0.9c0-0.3,0-0.6,0-0.9
		c0-0.3,0-0.5,0-0.8s0-0.4,0-0.5l0-0.1c-0.3,0-0.6,0-1,0c-0.3,0-0.7,0-1-0.1c0,0,0,0,0-0.1s0,0,0-0.1c0,0,0,0,0,0s0,0,0,0
		c0-0.1,0-0.2,0-0.3s0-0.3,0-0.6c0-0.2,0-0.4,0-0.7c0-0.2,0-0.4,0-0.7c0-0.2,0-0.4,0-0.6c0-0.2,0-0.3,0-0.4v-0.1
		c0-0.1,0-0.3,0.1-0.4c0.1-0.1,0.2-0.2,0.3-0.2c0.3,0,0.6,0,0.9,0c0.3,0,0.6-0.1,0.9-0.1c0.1,0,0.1,0,0.2,0s0.1,0,0.2-0.1v-0.2
		c0-0.6,0-1.2-0.1-1.8s-0.1-1.2-0.1-1.8c0,0,0-0.1,0-0.2s0-0.2,0-0.3c0-0.1,0-0.2,0-0.3c0-0.1,0-0.1,0-0.2c0-0.1,0.1-0.1,0.1-0.1
		s0.2,0,0.5,0c0.1,0,0.2,0,0.3,0c0.1,0,0.3,0,0.4,0s0.3,0,0.4,0c0.1,0,0.2,0,0.3,0c0,0,0.1,0,0.2,0c0.1,0,0.2,0,0.3,0s0.2,0,0.3,0
		c0.1,0,0.2,0,0.2,0h0.1c0,0,0.1,0,0.2,0c0.1,0,0.2,0,0.3,0c0.1,0,0.2,0,0.3,0l0.1,0.1c0,0,0,0.1,0,0.1c0,0.1,0,0.1,0,0.2
		s0,0.1,0,0.2c0,0.1,0,0.1,0,0.1c0,0,0,0,0,0.1c0,0,0,0.1,0,0.1c0,0.3,0.1,0.6,0.1,0.9c0,0.3,0,0.6,0,1c0,0.1,0,0.2,0,0.4
		s0,0.3,0,0.5c0,0.2,0,0.4,0,0.6c0,0.2,0,0.4,0,0.6c0,0,0,0.1,0,0.1c0,0,0.1,0,0.1,0c0,0,0.1,0,0.1,0c0,0,0.1,0,0.1,0h0
		c0.3-0.1,0.5-0.1,0.7-0.1c0.2,0,0.5,0,0.8,0c0,0,0.1,0,0.1,0s0.1,0,0.1,0c0.1,0,0.1,0,0.2,0l0.1,0.4c0,0.4,0,0.8,0,1.2
		c0,0.4,0,0.8,0.1,1.2c0,0,0,0.1,0,0.2c0,0.1,0,0.2,0,0.3c0,0.1,0,0.2,0,0.3c0,0.1,0,0.1,0,0.1v0.1c0,0.1,0,0.2-0.1,0.2
		c0,0-0.1,0.1-0.1,0.1c-0.1,0-0.1,0-0.2,0.1c-0.1,0-0.1,0-0.2,0l-0.3,0.1h-1.3l0,1c0,0,0,0.1,0,0.1c0,0.1,0,0.1,0,0.2
		c0,0.1,0,0.1,0,0.2s0,0.1,0,0.1c0,0.3,0,0.5,0,0.8s0,0.5,0,0.7c0,0.2,0,0.4,0.1,0.7c0,0.2,0.1,0.5,0.1,0.7l-0.1,6.3
		c0,0.1,0,0.1-0.1,0.2c-0.1,0.1-0.2,0.1-0.2,0.1l-2.6,0c0,0-0.1,0-0.1,0c-0.1,0-0.1,0-0.1,0c0,0-0.1,0-0.1,0c-0.1,0-0.1,0-0.1,0
		c0,0-0.1,0-0.1,0c-0.1,0-0.1,0-0.2,0c-0.1,0-0.1,0-0.2,0c-0.1,0-0.1,0-0.1,0c-0.1,0-0.2,0-0.3-0.1S249.4,55.1,249.4,54.9
		L249.4,54.9z"/>
	<path class="st0" d="M265.1,55c-0.1,0-0.1,0-0.3-0.1c-0.1,0-0.3,0-0.4-0.1c0,0,0,0-0.1,0c-0.1,0-0.1,0-0.2-0.1
		c-0.1,0-0.2-0.1-0.3-0.1c-0.1,0-0.2-0.1-0.3-0.2c0,0,0,0-0.1,0c-0.1,0-0.1,0-0.2-0.1c-0.1,0-0.1-0.1-0.2-0.1c-0.1,0-0.1,0-0.1,0
		c-0.1-0.1-0.3-0.1-0.4-0.2s-0.3-0.2-0.4-0.3c-0.1-0.1-0.2-0.2-0.3-0.3c-0.1-0.1-0.2-0.2-0.3-0.3c-0.4-0.4-0.7-0.7-1-1.1
		c-0.3-0.4-0.6-0.8-0.8-1.3c-0.2-0.4-0.3-0.7-0.4-1.1c-0.1-0.3-0.2-0.6-0.2-0.9c-0.1-0.3-0.1-0.6-0.1-1c0-0.3,0-0.7,0-1.1v-0.9
		c0.1-0.5,0.2-0.9,0.4-1.3c0.1-0.4,0.3-0.8,0.5-1.2c0.2-0.4,0.4-0.7,0.7-1.1c0.3-0.3,0.6-0.7,0.9-1c0.2-0.2,0.5-0.4,0.8-0.6
		c0.3-0.2,0.5-0.3,0.9-0.5c0,0,0.1,0,0.1,0s0.1,0,0.1-0.1c0.1,0,0.1,0,0.1-0.1s0.1,0,0.1,0c0,0,0.1,0,0.2,0c0.1,0,0.2,0,0.2,0
		c0,0,0.1,0,0.1-0.1c0.1-0.1,0.1-0.1,0.1-0.1c0,0,0,0,0.1,0c0,0,0.1,0,0.1,0s0.1,0,0.1,0c0,0,0.1,0,0.1,0c0,0,0.1,0,0.2-0.1
		c0.1,0,0.2-0.1,0.4-0.1c0.1,0,0.2-0.1,0.4-0.1c0.1,0,0.2,0,0.2,0c0.1,0,0.2,0,0.3-0.1c0.2,0,0.3,0,0.5-0.1c0.2,0,0.4,0,0.5,0
		c0.2,0,0.3,0,0.4,0h0.1c0,0,0.1,0,0.1,0c0,0,0.1,0,0.1,0c0.2,0,0.3,0,0.5,0s0.3,0,0.5,0.1c0.2,0.1,0.5,0.1,0.7,0.2
		c0.2,0,0.5,0.1,0.7,0.1c0.1,0,0.2,0.1,0.3,0.1c0.1,0.1,0.3,0.1,0.4,0.2c0.1,0.1,0.3,0.2,0.4,0.2c0.1,0.1,0.2,0.1,0.3,0.2
		c0,0,0.1,0.1,0.2,0.2c0.1,0.1,0.2,0.2,0.3,0.3s0.2,0.2,0.3,0.4c0.1,0.1,0.2,0.2,0.3,0.3c0,0,0,0.1,0.1,0.1c0,0.1,0.1,0.1,0.1,0.2
		c0.1,0.1,0.1,0.2,0.2,0.2c0.1,0.1,0.1,0.1,0.1,0.2c0.3,0.4,0.5,0.9,0.7,1.3c0.2,0.4,0.3,0.9,0.5,1.3c0.1,0.4,0.2,0.9,0.2,1.4
		c0.1,0.5,0.1,1,0.1,1.5v0c0,0.1,0,0.3-0.1,0.6c0,0.2,0,0.5-0.1,0.7c0,0.2,0,0.4-0.1,0.6c0,0.2,0,0.3,0,0.3
		c-0.1,0.4-0.1,0.8-0.3,1.2c-0.1,0.4-0.3,0.7-0.4,1.1c-0.2,0.2-0.3,0.4-0.4,0.5s-0.2,0.3-0.3,0.4c-0.1,0.1-0.2,0.3-0.3,0.4
		s-0.3,0.3-0.5,0.6c-0.3,0.2-0.6,0.4-0.9,0.6c-0.3,0.2-0.6,0.3-1,0.5c-0.3,0.1-0.7,0.2-1,0.3s-0.7,0.1-1,0.1c0,0-0.1,0-0.2,0
		s-0.2,0-0.3,0c-0.1,0-0.2,0-0.3,0c-0.1,0-0.1,0-0.2,0c0,0,0,0-0.1,0c0,0-0.1,0-0.1,0c0,0-0.1,0-0.1,0s-0.1,0-0.2,0
		c-0.1,0-0.1,0-0.2,0c-0.1,0-0.1,0-0.1,0c0,0-0.1,0-0.2,0s-0.2,0-0.4,0c-0.1,0-0.3,0-0.4-0.1c-0.1,0-0.2,0-0.2,0h-0.1L265.1,55z
		 M263.5,46.8c0,0.2,0,0.4,0.1,0.7c0,0.2,0.1,0.4,0.2,0.6c0,0,0,0.1,0.1,0.1s0.1,0.1,0.1,0.1c0,0.1,0.1,0.2,0.1,0.3s0.1,0.2,0.1,0.4
		c0,0.1,0.1,0.2,0.1,0.3c0,0.1,0.1,0.2,0.2,0.3c0,0,0.1,0.1,0.1,0.1c0.1,0.1,0.1,0.1,0.2,0.2c0.1,0.1,0.1,0.1,0.2,0.2
		c0,0.1,0.1,0.1,0.1,0.1c0,0,0,0,0.1,0.1c0,0,0.1,0.1,0.2,0.1c0.1,0,0.1,0.1,0.2,0.1c0.1,0,0.1,0.1,0.2,0.1l0.1,0.1
		c0,0,0.1,0.1,0.2,0.1c0.1,0.1,0.1,0.1,0.1,0.1c0,0,0.1,0,0.1,0.1c0.1,0,0.1,0,0.2,0c0.2,0.1,0.3,0.1,0.4,0.1c0.1,0,0.2,0,0.2,0
		c0.1,0,0.1,0,0.2,0c0.1,0,0.2,0,0.3,0c0,0,0,0,0.1,0c0,0,0.1,0,0.2,0c0.1,0,0.1,0,0.2,0c0.1,0,0.1,0,0.1,0c0.4-0.1,0.7-0.2,1.1-0.4
		c0.3-0.2,0.6-0.4,0.9-0.7c0.2-0.3,0.4-0.6,0.6-1c0.1-0.4,0.2-0.7,0.2-1.1c0,0,0-0.1,0-0.3c0-0.2,0-0.5,0.1-0.9c0-0.2,0-0.4-0.1-0.6
		c-0.1-0.2-0.2-0.4-0.2-0.6c-0.1-0.3-0.3-0.6-0.5-0.8s-0.5-0.4-0.8-0.6c-0.2-0.1-0.3-0.2-0.5-0.3c-0.1-0.1-0.3-0.1-0.4-0.2
		c-0.1,0-0.3-0.1-0.5-0.1s-0.3,0-0.5,0c-0.2,0-0.3,0-0.5,0c-0.1,0-0.3,0-0.5,0.1c-0.2,0-0.4,0.1-0.6,0.2c-0.2,0.1-0.4,0.2-0.6,0.3
		c-0.2,0.1-0.4,0.2-0.5,0.4c-0.2,0.2-0.3,0.3-0.3,0.5l-0.2,0.6c0,0.1-0.1,0.2-0.1,0.3s-0.1,0.3-0.1,0.4c0,0.1,0,0.3,0,0.4
		S263.5,46.7,263.5,46.8z"/>
</g>
<g>
	<path class="st8" d="M104.9,37.5c-0.1-0.2-0.1-0.5-0.2-0.8c-0.3-1.5-0.6-3.4-1.8-4.6c0,0-0.1-0.1-0.1-0.1c0-0.4,0-0.8-0.1-1.2
		c-0.2-1-0.6-1.7-1.2-2.2c-0.8-0.8-2-1.1-3-0.9c-0.6,0.2-1.2,0.5-1.6,1.1c-0.2-0.2-0.4-0.4-0.6-0.5c-0.7-0.5-1.7-0.6-2.7-0.4
		c-0.8,0.2-1.5,0.7-2.1,1.5c-0.2,0.3-0.3,0.7-0.4,1.1c-0.6,0-1.3,0-2,0c0-0.5,0-0.9,0.1-1.4c0.1-1,0.1-2,0.2-3
		c0-0.7-0.5-1.5-1.3-1.6c-4-1-8-0.6-11.9-0.2c-1.1,0.1-2.3,0.2-3.4,0.3c-1,0.1-1.6,0.7-1.7,1.7c-0.2,1.7-0.2,3.4-0.1,5.1
		c-0.1-0.1-0.3-0.3-0.4-0.4c-0.3-0.3-0.6-0.6-1-0.8c-0.2-0.1-0.5-0.2-0.8-0.2c-0.7-0.3-1.5-0.3-2.2-0.3l-0.4,0c-0.3,0-0.6,0-0.9,0
		c0,0,0-0.1,0-0.1c0-0.3,0-0.6,0-0.9c0-0.4,0-0.8-0.2-1.4c-0.2-0.5-0.8-0.8-1.1-1c0,0-0.1,0-0.1,0c-0.6-0.2-1.2,0-1.7-0.2
		c-0.1,0-0.1,0-0.2,0h-1.6c-0.5,0-1.1,0-1.6,0.1c-0.7,0.1-1.5,0.2-2.1,0.8c-0.9,0.7-1.2,1.8-0.9,3.2c-0.3,0.1-0.6,0.2-0.8,0.2
		c-2.4,0.8-2.5,2.9-2.5,4.8l-0.3,7.7c-0.1,4,0,9.2,1.1,14.3c0.1,0.2,0.1,0.5,0.2,0.8c0.4,1.8,0.9,4.2,2.5,5.2
		c0.9,0.6,2.1,0.6,2.9,0.6c0,0,0,0,0,0c1.1,0.1,2.2,0.1,3.2,0.1c0.6,0,1.2,0,1.8,0c1.8,0,3.5-0.1,5.4-0.3l0.2,0
		c1.1-0.2,2.1-0.3,3-1.3c0.7-0.8,1.1-1.7,1.4-2.6c4.1,0,8.3,0.2,12.3,0.5c1.5,0.1,3,0.2,4.5,0.3c3,0.2,5.9,0.2,8.9,0.2
		c1.2,0,2.5,0,3.6-0.8c1.2-0.9,1.4-2.4,1.5-3.6c0,0,0-0.1,0-0.1c0.1-0.9,0.1-1.8,0.2-2.7c0.3-3.2,0.6-6.5,0.5-9.8
		C105.5,42,105.3,39.9,104.9,37.5z M101.2,57c0,0.1-0.1,0.2-0.1,0.3c-0.1,0.1-0.7,0.1-0.9,0.1l-0.3,0H96c-2.4-0.1-5.1-0.2-7.8-0.3
		l-1.8-0.1c-1.7-0.1-3.4-0.2-5.1-0.3c0.5,0,1.1-0.1,1.7-0.1c0.1,0,0.2,0,0.3-0.1c2-0.3,4-1,5.5-2c2.1-1.3,2.9-3.4,3.6-5.6
		c1.6-4.5-0.2-9.6-4.1-12.1c-3.8-2.4-8.9-2.1-12.6,0.9c-3.6,2.9-5.1,7.6-4,11.9c0.7,2.7,2.2,4.8,4.2,5.9c0.9,0.6,2,0.9,3.2,1.1
		c-2.2-0.1-4.3-0.1-6.5-0.1c-0.2,0-0.3,0-0.5,0.1c-0.7-0.5-1.2-1.1-1.7-1.7c0,0,0,0,0-0.1c-0.1-0.2-0.3-0.4-0.4-0.6
		c-0.7-1.1-1-2.4-1.3-3.5c-0.7-2.6-0.7-5.5-0.7-8.2c0.1-2.7,0.8-5.3,1.5-7.8c0.7,0.3,1.4,0.5,2.4,0.5c0,0,0,0,0,0
		c0.5-0.1,1.1-0.1,1.6-0.2c1.1-0.1,2.3-0.3,3.4-0.3c3.5-0.2,7.2-0.5,10.8-0.6c3.9-0.1,7.4,0,10.8,0.3c0.2,0,0.4,0,0.6,0
		c0.5,0,1.2,0.1,1.5,0.3c0.3,0.3,0.4,1.1,0.5,1.7c0,0.2,0.1,0.5,0.1,0.6c0.5,2,0.7,4.1,0.7,5.8c0.1,4-0.2,8-0.6,12l-0.1,1.6
		C101.1,56.6,101.1,56.8,101.2,57z M79.5,43.1c0.8-0.8,1.9-1.3,3-1.3c0.5,0,1,0.1,1.5,0.3c1.5,0.7,2.4,2.4,2.1,3.9
		c-0.2,0.6-0.4,1.2-0.6,1.8c-0.1,0.2-0.1,0.4-0.2,0.5c0,0-0.1,0.1-0.1,0.1c0,0.1-0.2,0.2-0.2,0.2c0,0,0,0,0,0
		c-0.7,0.5-1.8,0.9-2.7,1c-0.2,0-0.3,0.1-0.5,0.1c-1.7,0.3-2.9-0.4-3.4-1.8C77.9,46.2,78.3,44.4,79.5,43.1z M86.3,39.6
		c-0.6-0.4-1.3-0.6-2-0.8c0.3,0.1,0.7,0.2,1,0.3c1.1,0.4,2,1.2,2.7,2.1C87.6,40.5,87,40,86.3,39.6z M83.6,38.6c0.2,0,0.3,0,0.5,0.1
		C83.9,38.7,83.8,38.6,83.6,38.6z M75.2,43.9c0.1-0.2,0.1-0.3,0.2-0.5C75.3,43.5,75.2,43.7,75.2,43.9z M75.2,49.4
		c-0.7-1.8-0.7-3.7-0.1-5.5c-0.5,1.4-0.5,2.9-0.2,4.4c0.5,1.8,1.5,3.2,2.9,4.1c0.4,0.2,0.8,0.4,1.3,0.6
		C77.3,52.5,75.9,51.3,75.2,49.4z M57.4,58.9c-0.2-0.9-0.5-1.9-0.7-2.8c-0.7-3.4-1-7.1-1-11.4c0-1.9,0.1-3.7,0.2-5.6l0-0.2
		c0-0.4,0-0.9,0-1.3c0-0.4,0-0.9,0-1.3c0-0.5,0-0.9,0.1-1.5c0-0.1,0-0.2,0-0.3c0-0.2,0-0.6,0.1-0.8c0-0.1,0.3-0.3,1.6-0.4
		c0.2,0,0.3,0,0.4,0c1.1-0.2,2.3-0.3,3.3-0.3c1.1-0.1,2.2,0,3.5,0.1c0.4,0,0.8,0,1.1,0c0.1,0,0.2,0,0.3,0c0,0.1-0.1,0.2-0.1,0.3
		c-0.8,2.9-1.7,6-1.8,9.2c0,0.2,0,0.3,0.1,0.4c-0.1,3.7,0.2,6.7,0.9,9.4c0.5,1.9,1.2,3.3,2,4.5c0.8,1.1,1.8,2,2.8,2.8
		c-0.1,0.2-0.2,0.4-0.3,0.5c-0.2,0.2-0.8,0.3-1.3,0.3c-0.2,0-0.4,0-0.5,0c-1.7,0.2-3.5,0.2-5.2,0.2l-1,0c-1.3,0-2.5,0-3.7-0.2
		c-0.4-0.2-0.5-0.5-0.7-1.2C57.5,59.2,57.4,59,57.4,58.9z M77.4,30.7c0,0,0-0.1,0-0.1c1.4,0,2.7-0.1,4.1-0.3c0.3-0.1,0.6-0.1,1-0.1
		v0.5c0,0,0,0,0,0c-0.7,0-1.4,0.1-2.1,0.1c-1,0-2,0.1-2.9,0.2C77.4,30.9,77.4,30.8,77.4,30.7z M85.8,28.4c-0.1-0.4-0.3-0.8-0.6-1
		c0.2,0,0.5,0.1,0.7,0.1C85.8,27.8,85.8,28.1,85.8,28.4z"/>
	<g>
		<path class="st0" d="M102.5,30.6c0,0,0-0.1,0-0.1C102.4,30.4,102.4,30.4,102.5,30.6z"/>
		<path class="st0" d="M106.9,36.8c-0.3-1.6-0.6-3.9-1.8-5.1c-0.1-0.1-0.3-0.2-0.5-0.3c0-0.3,0-0.7-0.1-1c-0.2-0.7-0.5-1.3-1-1.8
			c-0.6-0.6-1.5-0.8-2.3-0.7c-0.7,0.2-1.2,0.7-1.6,1.4c-0.1,0.2-0.2,0.3-0.3,0.5c-0.2-0.7-0.6-1.3-1.1-1.7c-0.6-0.4-1.3-0.5-2.1-0.3
			c-0.7,0.2-1.2,0.7-1.6,1.2c-0.2,0.3-0.3,0.7-0.3,1.1c0,0,0,0.1,0,0.1c-1.2,0-2.3,0-3.5,0c0.1-1.7,0.2-3.4,0.3-5
			c0-0.4-0.3-0.8-0.7-0.9c-4.9-1.1-10.1-0.2-15.1,0.1c-0.6,0-0.8,0.4-0.9,0.9c-0.2,2-0.2,4.1,0,6.1c-0.2,0-0.4,0-0.6-0.1
			c-0.8-0.2-1.3-1.2-2.1-1.6c-0.1-0.1-0.2-0.1-0.3-0.1c-0.9-0.4-1.7-0.4-2.7-0.4c-0.7,0-1.3,0-1.9-0.1c0-0.3,0.1-0.7,0.1-1.1
			c0-0.3,0-0.7-0.2-1s-0.4-0.5-0.7-0.6c-0.5-0.2-1.1-0.2-1.6-0.2c-0.5,0-1.1,0-1.6,0c-0.5,0-1.1,0-1.6,0.1c-0.6,0.1-1.1,0.2-1.6,0.6
			c-0.8,0.7-0.8,1.7-0.6,2.6c-0.4,0.1-0.9,0.2-1.3,0.3c-2.3,0.7-2.1,2.9-2.2,4.9c-0.1,2.4-0.2,4.8-0.2,7.1
			c-0.1,4.8,0.1,9.5,1.1,14.2c0.4,1.8,0.7,4.6,2.5,5.7c0.8,0.5,1.8,0.6,2.7,0.6c1.1,0.1,2.1,0.1,3.2,0.1c2.4,0.1,4.7,0,7.1-0.2
			c1.1-0.2,2.1-0.2,2.9-1.1c0.6-0.7,1-1.5,1.3-2.4c0.1-0.1,0.1-0.2,0.2-0.2c5.7-0.1,11.5,0.4,17.2,0.8c3,0.2,5.9,0.2,8.9,0.2
			c1.1,0,2.4,0,3.3-0.7c1-0.7,1.2-2.1,1.3-3.3c0.3-4.2,0.8-8.4,0.7-12.6C107.4,40.9,107.2,38.8,106.9,36.8z M101.8,29.8
			C101.8,29.8,101.8,29.8,101.8,29.8L101.8,29.8z M101.2,30.4c0.1-0.1,0.2-0.2,0.2-0.3c0,0.1,0,0,0.1-0.1c0,0,0,0,0.1-0.1
			c0.1,0,0.2-0.1,0.2-0.1c0.1,0,0.2,0,0.2,0.1l0.2,0.1c0.1,0.1,0.1,0.1,0.2,0.2c0.1,0.1,0.1,0.1,0-0.1l0.1,0.1
			c0.1,0.1,0.1,0.2,0.1,0.2c0,0,0,0.1,0,0.1c0,0,0,0,0,0v0.1c0,0.1,0,0.1,0.1,0.2c-0.5-0.1-1-0.1-1.5-0.1c0,0,0,0,0,0
			C101.1,30.5,101.1,30.5,101.2,30.4C101.1,30.5,101.1,30.4,101.2,30.4z M96.3,30c0-0.1,0.1-0.1,0.1-0.2C96.3,29.9,96.3,30,96.3,30
			l0.1-0.2c0,0,0.1,0,0.1-0.1c0.1,0,0.2-0.1,0.2-0.1c0.1,0,0.2,0,0.2-0.1c0,0,0.1,0,0.1,0c0,0,0,0,0.1,0c0.1,0,0.1,0,0.1,0.1
			c0,0,0,0,0,0c0.1,0,0.1,0.1,0.2,0.1c0.1,0.1,0.1,0.1,0.2,0.2c0,0.1,0.1,0.1,0.1,0.2c0,0.1,0.1,0.2,0.1,0.2c-0.1-0.2-0.1-0.2,0-0.1
			v0.1c0,0,0,0.1,0,0.1c-0.5,0-0.9,0-1.4,0c0,0,0-0.1,0-0.1c0,0,0,0,0,0C96.2,30.1,96.3,30,96.3,30z M95.9,29.8
			C95.9,29.8,95.8,29.8,95.9,29.8C95.8,29.8,95.8,29.8,95.9,29.8C95.9,29.8,95.9,29.8,95.9,29.8z M89.2,26c-0.1,1.4-0.2,2.9-0.2,4.3
			c-0.4,0-0.8,0-1.2,0c0-0.2,0-0.4,0-0.6c0-0.6,0-1.2-0.1-1.8c-0.2-1.2-1.7-1.3-2.8-1.3c-1.1,0.1-2.2,0.2-3.3,0.3
			c-1.1,0.1-2.4,0.1-3.5,0c-0.5,0-1,0.4-0.9,0.9c0.1,1,0.1,2.1,0.2,3.1c-0.1,0-0.3,0-0.4,0c-0.2,0-0.5,0.1-0.8,0.1
			c-0.2-1.6-0.2-3.3,0-4.9C80.4,25.9,84.9,25.1,89.2,26z M79.1,30.8c-0.1-0.6-0.1-1.3-0.1-1.9c1.6,0,3.3-0.1,4.8-0.3
			c0.4-0.1,0.8-0.1,1.3-0.1c0.2,0,0.4,0,0.7,0.1l0,0c0,0.2,0,0.5,0,0.6c0,0.2,0,0.5,0,0.7c0,0.2,0,0.3,0,0.5c-1,0.1-2,0.1-3,0.2
			C81.6,30.6,80.3,30.7,79.1,30.8z M60.7,28.6c0,0,0-0.1,0-0.1c0,0,0-0.1,0-0.1c0.1-0.1,0.1-0.1,0.1,0c0,0,0.3-0.1,0.2-0.1
			c0.3,0,0.6-0.1,0.9-0.1c0.6,0,1.2-0.1,1.8,0c0.3,0,0.7,0,1,0.1c0.1,0,0.2,0,0.2,0c0,0.1,0,0.2,0,0.2c0,0.1,0,0.3,0,0.4
			c-1.3,0-2.7,0.1-4.1,0.2C60.8,29,60.7,28.7,60.7,28.6z M70.6,60c-1.7,0.2-3.5,0.2-5.3,0.2c-1.6,0-3.3,0.1-4.8-0.2
			c-0.8-0.3-0.9-1.1-1.1-1.9c-0.2-0.9-0.5-1.9-0.7-2.9c-0.7-3.8-1-7.6-1-11.5c0-2,0.1-3.9,0.2-5.8c0-0.9,0.1-1.7,0.1-2.6
			c0-0.5,0-1,0.1-1.5c0-0.3-0.1-0.9,0.1-1.2c0.2-0.7,1.8-0.7,2.4-0.7c1.1-0.2,2.3-0.3,3.4-0.3c1.1-0.1,2.4,0,3.5,0.1
			c0.6,0.1,1.4-0.1,2.1,0c-0.9,3.3-1.9,6.5-2.1,10c0,0.1,0,0.3,0.1,0.4c-0.1,3.1,0.1,6.3,0.9,9.3c0.4,1.5,1,3,1.9,4.4
			c0.9,1.2,1.9,2.1,3.1,2.9c-0.2,0.4-0.4,0.7-0.6,1C72.2,60,71.2,60,70.6,60z M102.3,57c-1.3,0-2.5,0-3.9,0
			c-2.6-0.1-5.2-0.2-7.8-0.3c-5.2-0.3-10.4-0.7-15.7-0.6c-0.2,0-0.3,0.1-0.5,0.1c-0.9-0.7-1.7-1.4-2.4-2.4c-0.7-1.1-1.1-2.5-1.5-3.9
			c-0.7-2.6-0.7-5.5-0.7-8.4c0.1-2.9,0.9-5.7,1.7-8.5c0.1,0.1,0.1,0.1,0.2,0.2c0.7,0.5,1.6,0.7,2.5,0.7c1.6-0.2,3.4-0.4,5-0.5
			c3.6-0.2,7.2-0.5,10.8-0.6c3.6-0.1,7.2,0,10.8,0.3c0.7,0.1,1.7,0,2.3,0.5s0.7,1.9,0.8,2.5c0.5,2,0.7,3.9,0.7,5.9
			c0.2,4.5-0.3,9-0.7,13.6c0,0.2,0,0.3,0.1,0.5c-0.1,0.3-0.2,0.6-0.4,0.7C103.5,57.1,102.8,57,102.3,57z"/>
		<path class="st0" d="M90.4,36.3c-3.7-2.3-8.5-1.9-11.8,0.7c-3.4,2.6-4.8,7.1-3.9,11.3c0.6,2.2,1.9,4.4,3.9,5.5
			c1.8,1.1,3.9,1.3,6,1c0.1,0,0.3,0.1,0.4,0c2.1-0.2,4.1-0.8,5.8-1.9c1.9-1.2,2.6-3.2,3.4-5.3C95.8,43.5,94.2,38.8,90.4,36.3z
			 M92.2,45.8c-0.2,1-0.6,2-1,2.9c-0.3,0.8-0.7,1.6-1.3,2.1c-1.4,1-3.2,1.6-4.8,1.7c-0.1,0-0.2,0-0.3,0.1c0,0-0.1,0-0.1,0
			c-3.2,0.5-6.2-0.7-7.4-3.9c-1.1-3.1-0.3-6.7,2-9s5.7-3,8.7-1.8C91,39.1,92.9,42.5,92.2,45.8z"/>
		<path class="st0" d="M88,39.5c-2.4-1.5-5.4-1.2-7.6,0.5c-2.1,1.7-3.1,4.6-2.5,7.2c0.3,1.5,1.2,2.8,2.5,3.5
			c1.2,0.7,2.6,0.8,3.9,0.6c0.1,0,0.2,0,0.3,0c1.3-0.1,2.6-0.5,3.7-1.2c1.2-0.7,1.7-2.1,2.1-3.4C91.5,44.1,90.5,41.1,88,39.5z
			 M89.1,45.5c-0.2,0.7-0.4,1.2-0.7,1.8c-0.2,0.5-0.3,0.9-0.7,1.2c-0.7,0.5-1.7,0.9-2.6,1c-0.2,0-0.3-0.1-0.5,0
			c-1.9,0.3-3.7-0.4-4.4-2.3c-0.7-1.9-0.2-4,1.1-5.4c1.4-1.4,3.4-1.9,5.3-1.1C88.4,41.5,89.5,43.5,89.1,45.5z"/>
	</g>
</g>
</svg>
