<?xml version="1.0" encoding="utf-8"?>
<!-- Generator: Adobe Illustrator 24.2.0, SVG Export Plug-In . SVG Version: 6.00 Build 0)  -->
<svg version="1.1" id="Layer_1" xmlns="http://www.w3.org/2000/svg" xmlns:xlink="http://www.w3.org/1999/xlink" x="0px" y="0px"
	 viewBox="0 0 338.4 93" style="enable-background:new 0 0 338.4 93;" xml:space="preserve">
<style type="text/css">
	.st0{fill:#FFFFFF;}
	.st1{fill:none;stroke:#000000;stroke-width:3;stroke-miterlimit:10;}
	.st2{fill:#4386C6;}
	.st3{opacity:0.19;}
	.st4{clip-path:url(#SVGID_2_);}
	.st5{opacity:0.46;}
	.st6{clip-path:url(#SVGID_4_);fill:#FFFFFF;}
	.st7{clip-path:url(#SVGID_6_);fill:#FFFFFF;}
	.st8{fill:#034D7F;}
	.st9{fill:#034D7F;stroke:#034D7F;stroke-miterlimit:10;}
	.st10{clip-path:url(#SVGID_8_);}
	.st11{clip-path:url(#SVGID_10_);fill:#FFFFFF;}
	.st12{clip-path:url(#SVGID_12_);fill:#FFFFFF;}
	.st13{clip-path:url(#SVGID_14_);fill:#FFFFFF;}
	.st14{fill:#E86766;}
	.st15{clip-path:url(#SVGID_16_);}
	.st16{fill:#9B3635;}
	.st17{clip-path:url(#SVGID_18_);fill:#FFFFFF;}
	.st18{clip-path:url(#SVGID_20_);fill:#FFFFFF;}
</style>
<g class="st5">
	<g>
		<g>
			<defs>
				<rect id="SVGID_13_" x="313.8" y="64.6" width="6" height="6"/>
			</defs>
			<clipPath id="SVGID_2_">
				<use xlink:href="#SVGID_13_"  style="overflow:visible;"/>
			</clipPath>
			<path style="clip-path:url(#SVGID_2_);fill:#FFFFFF;" d="M319.8,67.6c0,1.7-1.4,3-3,3c-1.7,0-3-1.4-3-3c0-1.7,1.4-3,3-3
				C318.5,64.6,319.8,65.8,319.8,67.6"/>
		</g>
	</g>
</g>
<path class="st0" d="M289.1,90H48.8C26.4,90,8,70.4,8,46.5l0,0C8,22.6,26.4,3,48.8,3h240.3c22.4,0,40.8,19.6,40.8,43.5l0,0
	C329.9,70.4,311.6,90,289.1,90"/>
<path d="M289.1,91.5H48.8c-23.3,0-42.3-20.2-42.3-45.1c0-24.8,19-45,42.3-45h240.3c23.3,0,42.3,20.2,42.3,45
	c0,12.3-4.8,24.3-13.3,32.8C310.2,87.2,299.9,91.5,289.1,91.5z M48.8,4.5c-21.7,0-39.3,18.8-39.3,42c0,23.2,17.6,42.1,39.3,42.1
	h240.3c10,0,19.6-4.1,26.9-11.4c7.9-8,12.4-19.1,12.4-30.7c0-23.2-17.6-42-39.3-42H48.8z"/>
<g>
	<path class="st14" d="M289.2,80.3H48.8C31.3,80.3,17,65.2,17,46.5l0,0c0-18.6,14.3-33.9,31.8-33.9h240.4
		c17.4,0,31.8,15.2,31.8,33.9l0,0C320.9,65.2,306.6,80.3,289.2,80.3"/>
	<path d="M289.2,81.3H48.8C30.7,81.3,16,65.7,16,46.5c0-19.2,14.7-34.9,32.8-34.9h240.4c18.1,0,32.8,15.7,32.8,34.9
		C321.9,65.7,307.2,81.3,289.2,81.3z M48.8,13.5c-17,0-30.8,14.8-30.8,32.9c0,18.1,13.8,32.9,30.8,32.9h240.4
		c17,0,30.8-14.8,30.8-32.9c0-18.1-13.8-32.9-30.8-32.9H48.8z"/>
</g>
<g class="st3">
	<g>
		<g>
			<defs>
				<rect id="SVGID_15_" x="17.4" y="24.1" width="300.8" height="55.9"/>
			</defs>
			<clipPath id="SVGID_4_">
				<use xlink:href="#SVGID_15_"  style="overflow:visible;"/>
			</clipPath>
			<path style="clip-path:url(#SVGID_4_);" d="M294,72.5H53.7c-17.4,0-31.8-15.2-31.8-33.9c0-5.2,1.1-10.2,3.1-14.6
				c-4.8,5.9-7.7,13.6-7.7,22l0,0c0,18.6,14.3,33.9,31.8,33.9h240.4C302,79.9,313,72,318,60.7C312.3,67.9,303.7,72.5,294,72.5"/>
		</g>
	</g>
</g>
<g>
	<path class="st16" d="M127.8,53.9c0-0.2,0-0.3-0.1-0.5c-0.1-0.1-0.1-0.3-0.2-0.4c0,0,0-0.1-0.1-0.1c-0.1-0.1-0.1-0.1-0.1-0.1
		c0,0,0,0,0,0v-0.1c0,0,0,0,0-0.1c0,0,0-0.1,0-0.1c0,0,0.1,0,0.1-0.1c0,0,0.1-0.1,0.2-0.1c0.1,0,0.1-0.1,0.2-0.1
		c0,0,0.1-0.1,0.1-0.1c0,0,0.1-0.1,0.2-0.2c0.1-0.1,0.2-0.2,0.3-0.3c0.1-0.1,0.2-0.2,0.3-0.3c0.1-0.1,0.2-0.1,0.2-0.2
		c0,0,0,0,0.1-0.1c0.1,0,0.1-0.1,0.2-0.1c0.1,0,0.1-0.1,0.2-0.1s0.1-0.1,0.1-0.1c0,0,0,0,0.1-0.1c0,0,0.1-0.1,0.1-0.1
		s0.1-0.1,0.1-0.1c0,0,0.1,0,0.1-0.1c0,0,0.1,0,0.2-0.1s0.2-0.1,0.2-0.1l0,0c0,0,0,0,0,0c0,0,0,0,0,0l0,0c0.1,0.1,0.2,0.2,0.3,0.3
		c0.1,0.2,0.3,0.3,0.5,0.5c0.2,0.2,0.3,0.4,0.5,0.5c0.1,0.2,0.2,0.3,0.3,0.3c0,0,0.1,0.1,0.2,0.1s0.2,0.2,0.3,0.2
		c0.1,0.1,0.2,0.2,0.3,0.3c0.1,0.1,0.2,0.1,0.2,0.2c0,0,0.1,0.1,0.1,0.1c0.1,0.1,0.1,0.1,0.2,0.2c0.1,0,0.1,0.1,0.2,0.1
		s0.1,0.1,0.1,0.1c0,0,0.1,0,0.1,0c0.1,0,0.1,0,0.2,0.1h0.1c0.1,0,0.2,0,0.4,0c0.2,0,0.3,0,0.5,0c0.1,0,0.3-0.1,0.4-0.2
		c0.1-0.1,0.2-0.2,0.3-0.4l-0.2-1.1c0,0,0-0.1,0-0.2s0-0.2-0.1-0.2l-0.4-0.6c0,0,0,0,0-0.1c0,0,0,0,0,0c0,0,0,0,0,0
		c-0.2-0.3-0.3-0.5-0.5-0.7c-0.2-0.2-0.4-0.4-0.6-0.6s-0.4-0.4-0.6-0.6c-0.2-0.2-0.4-0.4-0.7-0.6c-0.2-0.2-0.4-0.4-0.6-0.6
		c-0.2-0.2-0.4-0.4-0.6-0.5c-0.2-0.2-0.4-0.4-0.7-0.6c-0.2-0.2-0.4-0.4-0.6-0.6c-0.3-0.3-0.5-0.6-0.8-1c-0.3-0.4-0.5-0.8-0.7-1.2
		c-0.2-0.4-0.4-0.8-0.5-1.3c-0.1-0.4-0.2-0.9-0.1-1.3c0-0.3,0.1-0.7,0.2-0.9c0.1-0.3,0.3-0.6,0.4-0.8c0,0,0,0,0.1-0.1c0,0,0,0,0-0.1
		c0-0.1,0.1-0.1,0.2-0.2c0.1-0.1,0.1-0.2,0.2-0.3c0.1-0.1,0.1-0.2,0.2-0.2c0-0.1,0.1-0.1,0.1-0.1c0,0,0.1,0,0.1-0.1s0.2-0.2,0.3-0.2
		c0.1-0.1,0.2-0.2,0.3-0.3c0.1-0.1,0.2-0.2,0.2-0.2c0.2-0.2,0.4-0.3,0.6-0.4c0.2-0.1,0.4-0.2,0.6-0.3c0.2-0.1,0.4-0.2,0.7-0.2
		c0.2-0.1,0.5-0.1,0.7-0.2c0.1,0,0.2,0,0.3-0.1c0.1,0,0.3,0,0.4,0c0.1,0,0.3,0,0.4,0c0.1,0,0.2,0,0.3,0c0.3,0,0.7,0.1,0.9,0.1
		c0.3,0.1,0.6,0.1,0.8,0.2c0.3,0.1,0.5,0.2,0.8,0.4c0.3,0.1,0.5,0.3,0.8,0.5c0,0,0,0,0,0c0,0,0,0,0,0c0,0,0,0,0,0l0.4,0.3
		c0,0,0,0.1,0.1,0.1c0,0.1,0.1,0.1,0.1,0.1c0,0,0.1,0.1,0.2,0.2c0.1,0.1,0.2,0.2,0.3,0.3c0.1,0.1,0.2,0.2,0.3,0.3
		c0.1,0.1,0.2,0.2,0.2,0.2c0,0,0,0,0.1,0.1s0.1,0.1,0.1,0.1c0,0.1,0.1,0.1,0.1,0.2c0,0.1,0.1,0.1,0.1,0.1c0.1,0.1,0.1,0.2,0.2,0.3
		c0.1,0.1,0.1,0.2,0.1,0.3v0.1c0,0,0,0-0.1,0.1c0,0-0.1,0.1-0.1,0.1s-0.1,0.1-0.1,0.1c0,0-0.1,0.1-0.1,0.1c0,0,0,0-0.1,0
		c0,0-0.1,0.1-0.1,0.1c0,0-0.1,0.1-0.1,0.1s-0.1,0-0.1,0c-0.1,0.1-0.2,0.2-0.3,0.3s-0.3,0.3-0.5,0.4c-0.2,0.1-0.3,0.3-0.5,0.4
		s-0.3,0.2-0.3,0.3c-0.1,0.1-0.1,0.1-0.3,0.1c0,0-0.1,0-0.2,0c-0.1,0-0.1,0-0.2-0.1c0,0,0,0,0-0.1c0,0,0-0.1,0-0.1
		c0,0,0-0.1-0.1-0.1c0,0,0-0.1,0-0.1c-0.1-0.2-0.2-0.3-0.3-0.5c-0.1-0.2-0.2-0.3-0.3-0.5s-0.3-0.3-0.4-0.4c-0.1-0.1-0.3-0.2-0.4-0.3
		c0,0-0.1,0-0.1,0s-0.1,0-0.2-0.1c-0.1,0-0.1,0-0.2-0.1s-0.1,0-0.1,0c0,0,0,0-0.1-0.1c-0.1,0-0.1,0-0.1,0h0c0,0,0,0,0,0s0,0,0,0
		c-0.1,0-0.3,0-0.4,0c-0.1,0-0.3,0-0.4,0c-0.1,0-0.2,0.1-0.4,0.1c-0.1,0.1-0.2,0.2-0.3,0.3c0,0,0,0.1-0.1,0.2s-0.1,0.1-0.1,0.1
		s0,0.1,0,0.1c0,0.1,0,0.1,0,0.2c0,0.1,0,0.1,0,0.2c0,0.1,0,0.1,0,0.1c0,0,0,0,0,0.1c0,0,0,0.1,0,0.1v0v0c0.1,0.2,0.2,0.4,0.3,0.6
		s0.3,0.4,0.4,0.5c0.1,0.2,0.3,0.3,0.5,0.5s0.3,0.3,0.5,0.5c0,0,0,0.1,0.1,0.1c0.1,0.1,0.1,0.1,0.1,0.1c0,0,0.1,0.1,0.2,0.2
		c0.1,0.1,0.2,0.2,0.4,0.3c0.1,0.1,0.3,0.2,0.4,0.3c0.1,0.1,0.2,0.2,0.3,0.2l0.1,0.1c0,0,0,0,0.1,0.1s0.1,0.1,0.1,0.1
		c0,0,0.1,0.1,0.1,0.1s0.1,0.1,0.1,0.1l0.1,0.1c0.3,0.2,0.5,0.4,0.8,0.7s0.5,0.5,0.7,0.8c0,0,0.1,0.1,0.2,0.2s0.2,0.2,0.3,0.3
		c0.1,0.1,0.2,0.2,0.3,0.3c0.1,0.1,0.1,0.2,0.1,0.2c0,0,0,0,0.1,0.1c0,0,0.1,0.1,0.1,0.1c0,0,0,0.1,0.1,0.1c0,0.1,0,0.1,0.1,0.2
		c0,0,0,0.1,0.1,0.1c0,0.1,0.1,0.1,0.1,0.2c0,0.1,0.1,0.1,0.1,0.2c0,0.1,0.1,0.1,0.1,0.1c0,0,0,0,0,0.1c0,0,0,0.1,0.1,0.1
		c0,0,0,0.1,0.1,0.1c0,0,0,0,0,0.1c0,0,0,0.1,0.1,0.2s0.1,0.2,0.1,0.3c0,0.1,0.1,0.2,0.1,0.3c0,0.1,0.1,0.2,0.1,0.2
		c0,0,0,0.1,0.1,0.1s0.1,0.1,0.1,0.1c0,0,0,0.1,0,0.1c0,0.1,0,0.1,0,0.1c0,0,0,0.1,0,0.1s0.1,0.1,0.1,0.2l0.2,0.8l-0.1,1.5
		c0,0,0,0.1,0,0.1c0,0.1,0,0.1-0.1,0.1c-0.1,0.3-0.2,0.5-0.3,0.7s-0.3,0.4-0.5,0.6c0,0-0.1,0.1-0.2,0.2c-0.1,0.1-0.2,0.2-0.3,0.3
		c-0.1,0.1-0.2,0.2-0.4,0.3c-0.1,0.1-0.2,0.2-0.3,0.2c-0.3,0.2-0.6,0.5-0.9,0.7c-0.3,0.2-0.7,0.4-1.1,0.5c-0.2,0-0.3,0.1-0.4,0.1
		s-0.3,0-0.4,0.1c-0.3,0-0.5,0.1-0.7,0.2s-0.5,0.1-0.7,0.1c-0.2,0-0.5,0-0.7-0.1c-0.2,0-0.5-0.1-0.7-0.2c-0.6-0.2-1.1-0.4-1.6-0.7
		c-0.5-0.3-0.9-0.6-1.2-1c0,0-0.1-0.1-0.2-0.2c-0.1-0.1-0.2-0.2-0.3-0.3c-0.1-0.1-0.2-0.2-0.3-0.3s-0.1-0.1-0.1-0.2
		c0,0-0.1-0.1-0.2-0.2s-0.2-0.2-0.3-0.3c-0.1-0.1-0.2-0.2-0.3-0.3C127.9,54,127.9,53.9,127.8,53.9z"/>
	<path class="st16" d="M142.9,51.7c0-0.1,0-0.2-0.1-0.4c0-0.2-0.1-0.3-0.1-0.5c0-0.2-0.1-0.4-0.1-0.5s-0.1-0.3-0.1-0.4
		c0,0,0-0.1,0-0.2s0-0.2,0-0.3c0-0.1,0-0.2,0-0.3c0-0.1,0-0.2,0-0.2c0,0,0-0.1,0-0.2c0-0.1,0-0.1,0-0.2s0-0.1,0-0.2
		c0-0.1,0-0.1,0-0.1l0-0.1c0,0,0-0.1,0-0.1c0-0.1,0-0.1,0-0.2c0-0.1,0-0.2,0-0.2c0-0.1,0-0.1,0-0.1c0-0.2,0-0.4,0-0.7s0-0.5,0-0.8
		s0-0.5,0-0.8c0-0.2,0-0.5,0-0.7c0-0.3,0-0.5,0-0.8s0-0.4,0-0.6c0-0.2,0-0.4,0-0.6c0-0.2,0-0.4,0.1-0.6c0-0.1,0.1-0.2,0.3-0.2
		c0.2-0.1,0.3-0.1,0.5-0.1h0.6c0.1,0,0.2,0,0.3,0s0.2,0,0.4,0.1c0.1,0,0.2,0,0.3,0.1c0.1,0,0.2,0,0.2,0c0,0,0.1,0,0.2,0
		c0.1,0,0.2,0,0.3,0c0.1,0,0.2,0,0.3,0c0.1,0,0.2,0,0.2,0c0,0,0.1,0,0.2,0c0.1,0,0.2,0,0.3,0s0.2,0,0.3,0c0.1,0,0.2,0,0.2,0
		c0,0,0.1,0.1,0.1,0.1c0,0,0,0.1,0,0.1c0,0,0,0.1,0,0.1c0,0,0,0.1,0,0.2v0.5c0,0.3-0.1,0.6-0.1,0.9s0,0.6,0,0.9c0,0.5,0,1,0,1.5
		c0,0.5,0,1,0,1.6l0.1,0.6v0.2c0,0.2,0.1,0.4,0.1,0.6c0,0.2,0,0.4,0.1,0.6c0,0.2,0,0.4,0.1,0.6c0,0.2,0.1,0.4,0.2,0.6
		c0,0,0,0.1,0.1,0.2c0,0.1,0.1,0.1,0.1,0.2c0,0.1,0.1,0.1,0.1,0.2c0,0.1,0,0.1,0,0.1c0.1,0.2,0.1,0.3,0.3,0.4s0.3,0.2,0.4,0.3
		c0.1,0.1,0.3,0.1,0.4,0.2s0.2,0.1,0.2,0.1c0,0,0.1,0,0.2,0.1c0.1,0,0.2,0.1,0.2,0.1c0,0,0.1,0,0.2,0c0.1,0,0.1,0,0.2,0
		c0.1,0,0.3,0,0.6-0.1c0.2-0.1,0.5-0.2,0.7-0.3c0.3-0.3,0.5-0.6,0.7-1c0.1-0.3,0.2-0.7,0.3-1c0.1-0.3,0.1-0.7,0.1-1.1
		c0-0.4,0-0.8,0-1.2v-0.4c0,0,0-0.1,0-0.3c0-0.2,0-0.4,0-0.5c0-0.2,0-0.4,0-0.5c0-0.2,0-0.3,0-0.3v-1.2c0,0,0-0.1,0-0.2
		c0-0.1,0-0.3-0.1-0.4c0-0.2,0-0.3-0.1-0.5c0-0.2,0-0.4-0.1-0.5c0-0.2,0-0.3-0.1-0.4c0-0.1,0-0.2,0-0.2l0.1-1c0-0.1,0.1-0.1,0.1-0.1
		c0.1,0,0.1,0,0.2,0s0.2,0,0.2,0s0.1,0,0.2,0c0,0,0,0,0.1,0s0.1,0,0.1,0c0,0,0.1,0,0.1,0c0,0,0.1,0,0.1,0l1.5,0.1c0,0,0.1,0,0.2,0
		s0.2,0,0.3,0c0.1,0,0.2,0,0.3,0c0.1,0,0.2,0,0.2,0c0,0,0.1,0,0.2,0c0.1,0,0.2,0,0.3,0c0.1,0,0.2,0,0.3,0c0.1,0,0.2,0,0.2,0l0.1,0
		c0.1,0,0.2,0,0.2,0.1c0.1,0.1,0.1,0.2,0.1,0.3c0,0.1,0,0.3,0.1,0.4c0,0.2,0,0.3,0,0.5V43c0,0.2,0,0.3,0,0.5c0,0.2,0,0.3,0,0.5
		c0,0,0,0.2,0,0.3s0,0.4,0,0.5c0,0.2,0,0.4,0,0.5s0,0.3,0,0.3c0,0,0,0.1,0,0.2c0,0.1,0,0.3-0.1,0.4c0,0.2,0,0.3-0.1,0.4
		c0,0.1,0,0.2,0,0.2c0,0,0,0.1,0,0.3c0,0.2,0,0.3,0,0.5c0,0.2,0,0.4-0.1,0.6c0,0.2,0,0.3,0,0.4c0,0,0,0.1,0,0.1c0,0.1,0,0.2,0,0.2
		c0,0.1,0,0.2,0,0.2c0,0.1,0,0.1,0,0.1c0,0,0,0,0,0.1c0,0.1,0,0.1,0,0.2c0,0.1,0,0.1,0,0.2c0,0.1,0,0.1,0,0.1c0,0,0,0,0,0.1
		c0,0,0,0.1,0,0.1c0,0,0,0.1,0,0.1c0,0,0,0.1,0,0.1c-0.1,0.3-0.1,0.6-0.2,0.8c0,0.3-0.1,0.5-0.1,0.8s-0.1,0.5-0.2,0.7
		c-0.1,0.3-0.1,0.5-0.2,0.8c-0.1,0.2-0.2,0.4-0.3,0.6c-0.1,0.2-0.3,0.4-0.4,0.6c-0.2,0.2-0.3,0.4-0.5,0.6s-0.3,0.3-0.4,0.4
		c-0.1,0.2-0.2,0.3-0.4,0.4c-0.2,0.1-0.4,0.2-0.6,0.3c-0.2,0.1-0.4,0.2-0.6,0.2c-0.2,0.1-0.4,0.1-0.6,0.2c-0.3,0.1-0.5,0.2-0.8,0.2
		c-0.3,0-0.5,0-0.8,0c-0.2,0-0.5,0-0.7,0s-0.5,0-0.7,0c-0.2,0-0.5,0-0.7-0.1c-0.2,0-0.5-0.1-0.7-0.2c-0.5-0.2-0.9-0.5-1.3-0.7
		c-0.4-0.3-0.8-0.6-1.2-0.9c0,0-0.1-0.1-0.2-0.2s-0.2-0.2-0.2-0.3c-0.1-0.1-0.2-0.2-0.3-0.2s-0.2-0.1-0.2-0.2c0,0,0,0,0-0.2
		c-0.1-0.1-0.1-0.3-0.3-0.6c0-0.1-0.1-0.2-0.1-0.4c-0.1-0.2-0.1-0.4-0.2-0.6c-0.1-0.2-0.1-0.4-0.1-0.6S142.9,51.8,142.9,51.7z"/>
	<path class="st16" d="M168.2,57.2c-0.1,0-0.2-0.1-0.3-0.1c-0.1-0.1-0.2-0.1-0.4-0.2c-0.1-0.1-0.2-0.1-0.4-0.2
		c-0.1-0.1-0.2-0.1-0.3-0.2c0,0,0,0-0.1-0.1c0,0-0.1-0.1-0.1-0.1s-0.1-0.1-0.1-0.1s-0.1-0.1-0.1-0.1c-0.1-0.1-0.2-0.1-0.2-0.2
		s-0.1-0.1-0.1-0.1s-0.1-0.1-0.1-0.1c-0.1,0-0.1-0.1-0.2-0.1c0,0,0,0,0,0.1s0,0.1,0,0.1c0,0,0,0,0,0.1s0,0.1,0,0.1
		c0,0.1,0,0.1,0,0.1c0,0,0,0.1,0,0.1c0,0,0,0.1,0,0.2s0,0.2,0,0.3c0,0.1,0,0.2,0,0.3s0,0.1,0,0.2l-0.1,0.2l-2.7,0.1
		c-0.1,0-0.1-0.1-0.2-0.1s-0.1,0-0.2,0l-0.8-0.1c-0.1,0-0.2,0-0.3,0s-0.2,0-0.3,0c-0.1,0-0.2,0-0.2,0c-0.1,0-0.2-0.1-0.3-0.1
		c0,0-0.1,0-0.1-0.1s-0.1,0-0.1-0.1c0,0-0.1-0.1-0.1-0.1c0-0.1-0.1-0.1-0.1-0.1c-0.1-0.3-0.1-0.5-0.1-0.7s0-0.5,0-0.7
		c0,0,0-0.1,0-0.2s0-0.1,0-0.2s0-0.1,0-0.2c0-0.1,0-0.1,0-0.1L160,49v-0.1c0-0.5,0.1-1.1,0.1-1.6c0-0.5,0.1-1.1,0.1-1.6
		c0-0.1,0-0.2,0-0.4c0-0.2,0-0.4,0-0.7s0-0.5,0-0.7c0-0.2,0-0.3,0-0.4c0-0.4,0-0.9,0-1.4s0-0.9-0.1-1.4c0,0,0-0.1,0-0.1
		c0-0.1,0-0.1,0-0.2c0-0.1,0-0.1,0-0.2s0-0.1,0-0.1c0-0.1,0-0.4,0-0.6c0-0.3,0-0.6,0-0.9c0-0.3,0-0.6,0-0.9c0-0.3,0-0.5,0-0.6
		c0-0.1,0.1-0.1,0.1-0.1c0,0,0.1,0,0.2,0c0.1,0,0.2,0,0.3,0c0.1,0,0.2,0,0.3,0c0.2,0,0.4,0,0.6-0.1s0.4-0.1,0.6-0.1
		c0.3,0,0.6-0.1,0.8-0.1c0.3,0,0.5,0,0.8-0.1h0.2c0,0,0.1,0,0.1,0c0,0,0.1,0,0.2,0c0.1,0,0.2,0,0.2,0c0,0,0,0,0.1,0
		c0.1,0,0.1,0,0.2,0c0.1,0,0.1,0,0.2,0c0,0,0.1,0,0.1,0c0.1,0,0.1,0.1,0.2,0.2c0,0.1,0.1,0.3,0.1,0.4c0,0.2,0,0.3,0,0.4
		c0,0.1,0,0.2,0,0.3v0.1c0,0,0,0.1,0,0.1l-0.2,3.1l-0.4,1.8c0.2-0.1,0.3-0.3,0.5-0.4c0.2-0.2,0.3-0.4,0.5-0.5
		c0.2-0.2,0.4-0.3,0.7-0.5s0.5-0.2,0.8-0.3c0.4-0.1,0.7-0.2,1-0.2s0.7-0.1,1.1-0.1c0.6,0,1.3,0.1,1.9,0.3s1.3,0.5,1.9,0.8
		c0.1,0.1,0.2,0.1,0.3,0.3c0.1,0.1,0.3,0.2,0.4,0.4c0.2,0.1,0.3,0.2,0.4,0.4c0.1,0.1,0.2,0.2,0.3,0.2c0.2,0.2,0.4,0.4,0.5,0.5
		s0.3,0.3,0.4,0.5c0.1,0.2,0.3,0.4,0.4,0.6c0.1,0.2,0.2,0.4,0.3,0.6c0.1,0.1,0.1,0.3,0.2,0.5c0.1,0.2,0.1,0.4,0.2,0.6
		s0.1,0.4,0.1,0.6s0,0.4,0.1,0.6c0,0.2,0,0.4,0,0.5c0,0.2,0,0.3,0,0.4c0,0.1,0,0.3-0.1,0.4c0,0.1,0,0.3-0.1,0.5
		c-0.2,1.2-0.5,2.3-1,3.4c-0.5,1-1.3,2-2.2,2.7c-0.2,0.2-0.5,0.4-0.7,0.5c-0.2,0.1-0.4,0.3-0.7,0.4s-0.5,0.2-0.7,0.3
		s-0.5,0.1-0.8,0.2c0,0,0,0-0.1,0c-0.1,0-0.1,0-0.1,0c0,0-0.1,0-0.2,0c-0.1,0-0.1,0-0.1,0c-0.1,0-0.2,0-0.3,0s-0.3,0-0.5,0
		c-0.2,0-0.4,0-0.5,0S168.2,57.2,168.2,57.2z M165.2,50c0,0,0,0.1,0,0.2c0,0.1,0,0.1,0.1,0.2c0.1,0.3,0.2,0.5,0.3,0.7
		c0.1,0.2,0.2,0.4,0.4,0.6c0.1,0.2,0.3,0.3,0.5,0.5c0.2,0.2,0.4,0.3,0.6,0.5c0.2,0.1,0.4,0.2,0.6,0.3c0.2,0.1,0.4,0.2,0.6,0.2
		c0,0,0.1,0,0.2,0c0.1,0,0.2,0,0.3,0c0,0,0,0,0.1,0s0.1,0,0.2-0.1c0.1,0,0.2-0.1,0.3-0.1s0.2,0,0.2-0.1c0.3-0.2,0.6-0.4,0.8-0.5
		c0.2-0.2,0.4-0.4,0.6-0.7c0,0,0.1-0.1,0.1-0.2c0.1-0.1,0.1-0.2,0.2-0.3c0.1-0.1,0.1-0.2,0.2-0.3c0-0.1,0.1-0.2,0.1-0.2
		c0,0,0-0.1,0.1-0.2s0.1-0.2,0.1-0.3c0-0.1,0.1-0.2,0.1-0.3c0-0.1,0-0.2,0-0.2c0,0,0-0.1,0-0.1s0-0.2,0-0.3c0-0.1,0-0.2,0-0.4
		c0-0.1,0-0.2,0-0.3c0,0,0,0,0,0v-0.1v-0.1c0,0,0-0.1,0-0.2c0-0.1,0-0.1,0-0.2c0-0.1,0-0.1,0-0.2s0-0.1,0-0.1c0,0,0,0,0-0.1
		c0,0,0,0-0.1-0.1c0,0,0,0-0.1,0s-0.1,0-0.1-0.1c0,0-0.1-0.1-0.1-0.1c0,0,0,0-0.1-0.1c0,0,0-0.1,0-0.1s0-0.1,0-0.1l0,0c0,0,0,0,0,0
		c0,0,0,0,0,0c0,0-0.1-0.1-0.2-0.2c-0.1-0.1-0.1-0.1-0.2-0.2c0-0.1,0-0.2-0.1-0.2c-0.1-0.1-0.2-0.1-0.2-0.1
		c-0.3-0.2-0.6-0.4-0.8-0.5c-0.2-0.1-0.5-0.2-0.7-0.3s-0.5-0.1-0.8-0.1s-0.7,0.1-1.1,0.2c-0.4,0.2-0.7,0.4-1,0.8
		c-0.3,0.3-0.5,0.7-0.6,1.1c-0.2,0.4-0.3,0.9-0.3,1.3C165.2,49.1,165.2,49.5,165.2,50L165.2,50z"/>
	<path class="st16" d="M179.5,38.4c0-0.1,0-0.2,0-0.3c0-0.1,0-0.2,0.1-0.4c0.1-0.2,0.2-0.3,0.2-0.5c0.1-0.2,0.2-0.3,0.3-0.4
		c0,0,0.1-0.1,0.2-0.1c0.1-0.1,0.1-0.1,0.2-0.2s0.1-0.1,0.2-0.1c0.1,0,0.1-0.1,0.1-0.1c0.1-0.1,0.2-0.1,0.3-0.2c0.1,0,0.2,0,0.3,0
		c0.1,0,0.2,0,0.3,0c0.1,0,0.2,0,0.3,0c0.1,0,0.2,0,0.3,0.1c0.1,0,0.2,0.1,0.3,0.1c0.1,0,0.2,0.1,0.3,0.1s0.2,0.1,0.3,0.2
		c0.3,0.2,0.6,0.5,0.8,0.8s0.4,0.7,0.4,1.1c0,0.3,0,0.5,0,0.6c0,0.2-0.1,0.3-0.1,0.5c-0.1,0.1-0.1,0.3-0.3,0.4
		c-0.1,0.1-0.3,0.3-0.5,0.4c-0.2,0.2-0.4,0.3-0.6,0.4c-0.3,0.1-0.5,0.2-0.7,0.2c0,0-0.1,0-0.1,0c-0.1,0-0.1,0-0.2,0
		c-0.1,0-0.1,0-0.2,0c-0.1,0-0.1,0-0.1,0c0,0-0.1,0-0.2,0s-0.1,0-0.2-0.1s-0.1,0-0.2-0.1c-0.1,0-0.1,0-0.1,0c0,0-0.1,0-0.1-0.1
		c-0.1,0-0.1-0.1-0.2-0.1c-0.1,0-0.1-0.1-0.2-0.1s-0.1,0-0.1-0.1c-0.2-0.1-0.3-0.3-0.4-0.4c-0.1-0.1-0.2-0.3-0.3-0.5
		c-0.1-0.2-0.1-0.3-0.1-0.5C179.5,38.9,179.5,38.6,179.5,38.4z M179.8,47.6c0-0.1,0-0.2,0-0.4s0-0.5,0-0.8s0-0.6,0-0.9s0-0.5,0-0.7
		c0,0,0-0.1,0-0.1c0-0.1,0-0.1,0-0.2s0-0.1,0-0.2c0-0.1,0-0.1,0-0.1v-1.5c0-0.1,0.1-0.1,0.3-0.2c0.1,0,0.2-0.1,0.3-0.1h3.4
		c0.1,0,0.1,0,0.2,0s0.1,0,0.1,0.1s0.1,0.1,0.1,0.2c0,0.1,0,0.3,0,0.5c0,0,0,0.1,0,0.1c0,0.1,0,0.1,0,0.2s0,0.1,0,0.2
		c0,0.1,0,0.1,0,0.1c0,0.1,0,0.3,0,0.6c0,0.3,0,0.6,0,0.9s0,0.6,0,0.9c0,0.3,0,0.5,0,0.6c0,0.1,0,0.2,0,0.4c0,0.2,0,0.5,0.1,0.7
		c0,0.3,0,0.5,0.1,0.7c0,0.2,0,0.4,0,0.4c0,0.1,0,0.2,0,0.4c0,0.2,0,0.4,0,0.7c0,0.3,0,0.6,0,0.9c0,0.3,0,0.6,0,0.9
		c0,0.3,0,0.5,0,0.7s0,0.3,0,0.4c0,0.1,0,0.3,0,0.6c0,0.3,0,0.5,0,0.8s0,0.6,0,0.8c0,0.3,0,0.4,0,0.6v0.2c0,0.3,0,0.6-0.1,0.7
		c-0.1,0.2-0.2,0.2-0.5,0.2l-3.8,0c-0.2,0-0.3-0.1-0.4-0.2c-0.1-0.1-0.1-0.2-0.1-0.4c0-0.2,0-0.4,0-0.6s0-0.5,0-0.7
		c0-0.2,0-0.4,0-0.6c0-0.2,0-0.4,0-0.6c0-0.2,0-0.4,0-0.6c0-0.2,0-0.4,0-0.6c0-0.5,0-0.9-0.1-1.3c0-0.4,0-0.8,0-1.2s0-0.8,0-1.2
		C179.8,48.5,179.8,48.1,179.8,47.6z"/>
	<path class="st16" d="M189.1,57.4l-0.7-0.1c-0.1,0-0.1,0-0.1,0c0,0,0,0,0-0.1c0-0.1,0-0.2,0-0.2s0-0.2,0-0.2c0-0.1,0-0.2-0.1-0.2
		c0-0.1-0.1-0.1-0.1-0.2c0,0,0-0.1,0-0.1s0-0.1,0.1-0.1c0-0.1,0-0.4,0-0.8s0-0.9,0-1.4c0-0.6,0-1.2-0.1-1.8c0-0.7,0-1.3-0.1-2
		c0-0.7,0-1.3-0.1-1.9c0-0.6,0-1.1,0-1.5c0-0.1,0-0.2,0-0.3c0-0.1,0-0.3-0.1-0.4c0-0.1,0-0.3-0.1-0.4c0-0.1,0-0.2,0-0.3
		c0,0,0-0.1,0-0.1s0-0.1,0-0.1c0,0-0.1,0-0.1-0.1s0-0.1,0-0.1l0-0.1l0.1-0.1c0-0.2,0-0.4,0-0.5c0-0.1,0-0.3,0-0.5c0,0,0-0.1,0-0.1
		c0,0,0-0.1,0-0.2c0-0.1,0-0.1,0-0.2c0,0,0-0.1,0-0.1c0-0.1,0-0.1,0-0.1s0-0.1,0-0.1c0-0.1,0-0.1,0-0.1c0,0,0,0,0-0.1s0-0.1,0-0.2
		s0-0.1,0-0.2c0,0,0-0.1,0-0.1l0,0c0,0,0,0,0,0c0.3,0,0.5-0.1,0.8-0.1c0.3-0.1,0.5-0.1,0.8-0.1c0.3,0,0.6,0,0.9,0
		c0.3,0,0.6,0.1,0.9,0.1c0,0,0.1,0,0.2,0s0.2,0,0.2,0s0.1,0,0.2,0.1c0.1,0,0.1,0.1,0.1,0.2c0,0.1,0,0.2,0,0.3c0,0.1,0,0.2,0,0.3v0
		c0,0,0,0,0,0c0,0,0,0,0,0c0.1,0,0.1-0.1,0.2-0.1c0.1,0,0.2-0.1,0.3-0.1c0.1,0,0.2-0.1,0.3-0.1c0.1,0,0.2-0.1,0.2-0.1
		c0,0,0.1,0,0.1-0.1s0.1-0.1,0.2-0.1c0,0,0.1,0,0.1,0s0.1,0,0.1-0.1c0.1,0,0.2-0.1,0.3-0.1c0.1,0,0.2-0.1,0.3-0.1s0.2-0.1,0.3-0.1
		c0.1,0,0.2-0.1,0.2-0.1c0.2-0.1,0.4-0.1,0.6-0.1c0.2,0,0.4,0,0.6,0c0.4,0,0.7,0,1.1,0.1c0.4,0.1,0.7,0.2,1.1,0.3
		c0.3,0.1,0.7,0.3,0.9,0.5c0.3,0.2,0.5,0.4,0.7,0.5c0.1,0.1,0.1,0.1,0.2,0.2c0.1,0.1,0.1,0.2,0.2,0.3c0.1,0.1,0.1,0.2,0.2,0.3
		c0,0.1,0.1,0.2,0.1,0.3c0,0,0,0.1-0.1,0.2c0,0.1-0.1,0.2-0.2,0.2s-0.1,0.2-0.2,0.2c-0.1,0.1-0.1,0.1-0.2,0.1c0,0,0,0-0.1,0
		c0,0-0.1,0-0.1,0.1s-0.1,0-0.1,0.1c0,0-0.1,0-0.1,0c0,0-0.1,0.1-0.1,0.1c-0.1,0-0.1,0.1-0.2,0.1c-0.1,0-0.1,0.1-0.2,0.1
		c-0.1,0-0.1,0.1-0.1,0.1c-0.1,0.1-0.3,0.2-0.4,0.3s-0.3,0.2-0.4,0.3c-0.1,0.1-0.3,0.2-0.4,0.3s-0.3,0.1-0.5,0.1h-0.2c0,0,0,0-0.1,0
		c0,0-0.1,0-0.1,0c-0.3-0.2-0.7-0.3-1-0.5c-0.4-0.1-0.7-0.2-1.1-0.2c-0.3,0-0.5,0.1-0.7,0.3c-0.2,0.2-0.3,0.4-0.5,0.6
		c0,0-0.1,0.1-0.1,0.2c-0.1,0.1-0.1,0.1-0.1,0.2c0,0,0,0.1-0.1,0.2c0,0.1-0.1,0.2-0.2,0.2c-0.1,0.1-0.1,0.2-0.2,0.3
		c-0.1,0.1-0.1,0.2-0.1,0.2c-0.1,0.2-0.1,0.4-0.1,0.6c0,0.2,0,0.4,0,0.6c-0.1,0.8-0.2,1.5-0.2,2.2c0,0.7,0.1,1.3,0.1,1.9
		c0,0.4,0.1,0.9,0.1,1.3c0.1,0.4,0.1,0.8,0.1,1.3c0,0,0,0.1,0,0.3s0,0.3,0,0.4c0,0.1,0,0.3,0,0.4c0,0.1,0,0.2,0,0.3c0,0,0,0,0,0
		s0,0,0,0l0,0h0h0c0,0,0,0-0.1,0s-0.1,0-0.1,0L189.1,57.4z"/>
	<path class="st16" d="M210.3,42.2C210.3,42.2,210.3,42.2,210.3,42.2c0-0.1,0-0.1,0-0.1c0,0,0,0,0-0.1c0,0,0.1-0.1,0.2-0.1
		c0.1,0,0.2-0.1,0.2-0.1h0.1c0.1,0,0.1,0,0.2,0s0.1,0,0.2,0h0.1c0.6,0,1.1-0.1,1.7-0.1c0.6,0,1.1,0,1.7,0c0.2,0,0.4,0.1,0.5,0.2
		c0.1,0.1,0.3,0.3,0.3,0.4c0,0.1,0.1,0.1,0.1,0.2c0.1,0.1,0.1,0.2,0.2,0.3c0.1,0.1,0.1,0.2,0.1,0.3s0.1,0.1,0.1,0.1c0,0,0,0,0.1,0.1
		s0,0.1,0,0.1c0.1,0.3,0.2,0.5,0.3,0.8c0.1,0.3,0.2,0.5,0.4,0.8c0.1,0.1,0.1,0.3,0.2,0.4c0.1,0.1,0.1,0.3,0.2,0.4c0,0,0,0.1,0,0.1
		c0,0.1,0,0.1,0,0.1c0,0,0,0,0.1,0.1c0,0,0.1,0.1,0.1,0.1c0,0,0.1,0.1,0.1,0.1s0,0.1,0.1,0.1c0,0,0,0.1,0,0.1c0,0.1,0,0.1,0,0.1
		c0.1,0.3,0.3,0.7,0.4,1s0.3,0.6,0.5,0.9c0,0,0,0.1,0.1,0.1c0.1,0.1,0.1,0.1,0.1,0.1c0,0,0,0,0,0.1c0,0,0,0.1,0,0.1h0h0.1
		c0.2-0.4,0.4-0.9,0.6-1.3s0.4-0.9,0.6-1.3c0-0.1,0.1-0.2,0.2-0.3c0.1-0.1,0.2-0.3,0.3-0.5c0.1-0.2,0.2-0.3,0.3-0.5
		c0.1-0.1,0.1-0.2,0.2-0.3c0.2-0.4,0.4-0.8,0.6-1.2s0.4-0.8,0.6-1.2c0-0.1,0.1-0.2,0.1-0.3c0-0.1,0.1-0.2,0.1-0.3s0.1-0.2,0.2-0.3
		s0.1-0.1,0.2-0.1c0.2,0,0.5,0,0.7,0.1s0.5,0.1,0.7,0.1h2.6c0.2,0,0.4,0.1,0.4,0.3c0,0.1,0.1,0.3,0,0.5l-0.1,0.4
		c0,0.1-0.1,0.2-0.1,0.4c-0.1,0.2-0.1,0.4-0.2,0.5c-0.1,0.2-0.1,0.4-0.2,0.6c-0.1,0.2-0.1,0.3-0.1,0.4c0,0,0,0.1,0,0.1
		c0,0.1,0,0.1-0.1,0.2c0,0.1-0.1,0.1-0.1,0.2s0,0.1-0.1,0.2c-0.1,0.3-0.3,0.6-0.4,0.9c-0.1,0.3-0.2,0.6-0.4,0.9c0,0-0.1,0.1-0.1,0.2
		c-0.1,0.1-0.1,0.3-0.2,0.4c-0.1,0.2-0.2,0.3-0.3,0.5c-0.1,0.2-0.2,0.4-0.3,0.5s-0.2,0.3-0.2,0.4c-0.1,0.1-0.1,0.2-0.1,0.2
		c0,0,0,0.1-0.1,0.1c0,0.1-0.1,0.1-0.1,0.2c0,0.1-0.1,0.1-0.1,0.2c0,0.1,0,0.1-0.1,0.1c0,0-0.1,0.1-0.1,0.2
		c-0.1,0.1-0.1,0.2-0.2,0.4c-0.1,0.1-0.1,0.3-0.2,0.4c-0.1,0.1-0.1,0.2-0.1,0.2c0,0,0,0,0,0.1c0,0,0,0.1,0,0.2c0,0.1,0,0.1,0,0.2
		c0,0.1,0,0.1,0,0.1c0,0,0,0-0.1,0.1s-0.1,0.1-0.1,0.1c-0.1,0.2-0.3,0.4-0.4,0.6c-0.1,0.2-0.2,0.4-0.3,0.7c-0.1,0.2-0.2,0.4-0.3,0.7
		c-0.1,0.2-0.2,0.5-0.3,0.7c0,0.1-0.1,0.2-0.2,0.4c-0.1,0.2-0.2,0.4-0.3,0.6s-0.2,0.4-0.3,0.6c-0.1,0.2-0.2,0.3-0.2,0.3
		c0,0.1-0.1,0.2-0.1,0.3c0,0.1-0.1,0.2-0.2,0.3c-0.4-0.1-0.7-0.1-1.1-0.1c-0.4,0-0.7,0-1.1,0c-0.2,0-0.3,0-0.4,0
		c-0.1,0-0.2,0-0.4,0.1c0,0,0,0-0.1,0c0,0-0.1,0-0.1,0h-0.1h-0.1c-0.1-0.2-0.2-0.4-0.3-0.6c-0.1-0.2-0.2-0.4-0.3-0.6
		c0,0,0-0.1,0-0.1c0-0.1,0-0.1-0.1-0.1c0,0,0,0,0-0.1c0,0,0-0.1,0-0.1c-0.1-0.2-0.3-0.5-0.5-0.7c-0.2-0.3-0.3-0.5-0.4-0.8
		c0,0-0.1-0.2-0.1-0.3s-0.2-0.4-0.3-0.6c-0.1-0.2-0.2-0.4-0.3-0.6s-0.1-0.3-0.1-0.3c-0.1-0.2-0.2-0.4-0.3-0.6s-0.2-0.4-0.3-0.6
		c-0.1-0.2-0.2-0.5-0.3-0.7c-0.1-0.2-0.2-0.5-0.3-0.7c-0.1-0.1-0.1-0.3-0.2-0.6c-0.1-0.2-0.2-0.5-0.3-0.7c-0.1-0.2-0.2-0.4-0.3-0.6
		c-0.1-0.2-0.1-0.3-0.1-0.3c0,0,0,0,0-0.1c0-0.1,0-0.1-0.1-0.2c0-0.1-0.1-0.1-0.1-0.2c0-0.1,0-0.1,0-0.1c0-0.2-0.1-0.4-0.2-0.6
		c-0.1-0.3-0.2-0.5-0.3-0.8c-0.1-0.3-0.2-0.5-0.3-0.7c-0.1-0.2-0.1-0.3-0.1-0.4c0,0-0.1-0.1-0.1-0.3c-0.1-0.2-0.2-0.3-0.3-0.5
		c-0.1-0.2-0.2-0.4-0.3-0.5s-0.2-0.3-0.2-0.4c0,0,0,0-0.1-0.1c0,0-0.1-0.1-0.1-0.1c0,0-0.1-0.1-0.1-0.1c0,0,0-0.1-0.1-0.1
		c0,0,0,0,0-0.1C210.3,42.3,210.3,42.3,210.3,42.2C210.3,42.3,210.3,42.2,210.3,42.2z"/>
	<path class="st16" d="M230.1,38.4c0-0.1,0-0.2,0-0.3c0-0.1,0-0.2,0.1-0.4c0.1-0.2,0.2-0.3,0.2-0.5c0.1-0.2,0.2-0.3,0.3-0.4
		c0,0,0.1-0.1,0.2-0.1c0.1-0.1,0.1-0.1,0.2-0.2s0.1-0.1,0.2-0.1c0.1,0,0.1-0.1,0.1-0.1c0.1-0.1,0.2-0.1,0.3-0.2c0.1,0,0.2,0,0.3,0
		c0.1,0,0.2,0,0.3,0c0.1,0,0.2,0,0.3,0c0.1,0,0.2,0,0.3,0.1c0.1,0,0.2,0.1,0.3,0.1c0.1,0,0.2,0.1,0.3,0.1s0.2,0.1,0.3,0.2
		c0.3,0.2,0.6,0.5,0.8,0.8s0.4,0.7,0.4,1.1c0,0.3,0,0.5,0,0.6c0,0.2-0.1,0.3-0.1,0.5c-0.1,0.1-0.1,0.3-0.3,0.4
		c-0.1,0.1-0.3,0.3-0.5,0.4c-0.2,0.2-0.4,0.3-0.6,0.4c-0.3,0.1-0.5,0.2-0.7,0.2c0,0-0.1,0-0.1,0c-0.1,0-0.1,0-0.2,0
		c-0.1,0-0.1,0-0.2,0c-0.1,0-0.1,0-0.1,0c0,0-0.1,0-0.2,0s-0.1,0-0.2-0.1s-0.1,0-0.2-0.1c-0.1,0-0.1,0-0.1,0c0,0-0.1,0-0.1-0.1
		c-0.1,0-0.1-0.1-0.2-0.1c-0.1,0-0.1-0.1-0.2-0.1s-0.1,0-0.1-0.1c-0.2-0.1-0.3-0.3-0.4-0.4c-0.1-0.1-0.2-0.3-0.3-0.5
		c-0.1-0.2-0.1-0.3-0.1-0.5C230.1,38.9,230.1,38.6,230.1,38.4z M230.5,47.6c0-0.1,0-0.2,0-0.4s0-0.5,0-0.8s0-0.6,0-0.9s0-0.5,0-0.7
		c0,0,0-0.1,0-0.1c0-0.1,0-0.1,0-0.2s0-0.1,0-0.2c0-0.1,0-0.1,0-0.1v-1.5c0-0.1,0.1-0.1,0.3-0.2c0.1,0,0.2-0.1,0.3-0.1h3.4
		c0.1,0,0.1,0,0.2,0s0.1,0,0.1,0.1s0.1,0.1,0.1,0.2c0,0.1,0,0.3,0,0.5c0,0,0,0.1,0,0.1c0,0.1,0,0.1,0,0.2s0,0.1,0,0.2
		c0,0.1,0,0.1,0,0.1c0,0.1,0,0.3,0,0.6c0,0.3,0,0.6,0,0.9s0,0.6,0,0.9c0,0.3,0,0.5,0,0.6c0,0.1,0,0.2,0,0.4c0,0.2,0,0.5,0.1,0.7
		c0,0.3,0,0.5,0.1,0.7c0,0.2,0,0.4,0,0.4c0,0.1,0,0.2,0,0.4c0,0.2,0,0.4,0,0.7c0,0.3,0,0.6,0,0.9c0,0.3,0,0.6,0,0.9
		c0,0.3,0,0.5,0,0.7s0,0.3,0,0.4c0,0.1,0,0.3,0,0.6c0,0.3,0,0.5,0,0.8s0,0.6,0,0.8c0,0.3,0,0.4,0,0.6v0.2c0,0.3,0,0.6-0.1,0.7
		c-0.1,0.2-0.2,0.2-0.5,0.2l-3.8,0c-0.2,0-0.3-0.1-0.4-0.2c-0.1-0.1-0.1-0.2-0.1-0.4c0-0.2,0-0.4,0-0.6s0-0.5,0-0.7
		c0-0.2,0-0.4,0-0.6c0-0.2,0-0.4,0-0.6c0-0.2,0-0.4,0-0.6c0-0.2,0-0.4,0-0.6c0-0.5,0-0.9-0.1-1.3c0-0.4,0-0.8,0-1.2s0-0.8,0-1.2
		C230.5,48.5,230.5,48.1,230.5,47.6z"/>
	<path class="st16" d="M238.6,51.6c0-0.1,0-0.1,0-0.2c0-0.1,0-0.1,0-0.2c0-0.2,0-0.5,0-0.7c0-0.2,0-0.5,0-0.7v-0.5
		c0-0.5,0.1-1,0.1-1.5c0.1-0.5,0.1-0.9,0.2-1.4c0.1-0.5,0.2-0.9,0.4-1.3s0.4-0.9,0.6-1.3c0,0,0-0.1,0.1-0.1c0-0.1,0.1-0.1,0.1-0.2
		c0-0.1,0.1-0.1,0.1-0.2c0-0.1,0.1-0.1,0.1-0.1c0,0,0.1-0.1,0.1-0.1c0.1-0.1,0.1-0.1,0.1-0.1c0,0,0.1-0.1,0.2-0.2s0.2-0.2,0.2-0.2
		s0.2-0.2,0.2-0.2c0.1-0.1,0.1-0.1,0.1-0.1c0,0,0,0,0.1-0.1c0,0,0.1-0.1,0.2-0.1c0.1,0,0.1-0.1,0.2-0.1c0.1,0,0.1-0.1,0.1-0.1
		c0,0,0.1,0,0.1-0.1c0.1,0,0.1-0.1,0.2-0.1c0.1,0,0.1-0.1,0.2-0.1s0.1,0,0.1,0c0,0,0.1-0.1,0.3-0.1c0.1-0.1,0.3-0.1,0.4-0.2
		s0.3-0.1,0.4-0.1c0.1,0,0.2-0.1,0.3-0.1c0,0,0.1,0,0.1,0s0.1,0,0.2,0c0.1,0,0.1,0,0.2,0c0.1,0,0.1,0,0.1,0h0.6c0.3,0,0.6,0,0.8,0.1
		c0.2,0,0.5,0.1,0.8,0.2c0.3,0.1,0.6,0.1,0.9,0.2c0.3,0.1,0.6,0.2,0.9,0.4s0.5,0.3,0.8,0.4c0.3,0.1,0.5,0.3,0.7,0.4c0,0,0,0,0-0.1
		s0-0.1,0-0.1c0-0.1,0-0.1,0-0.2s0-0.1,0-0.1v-0.1c0-0.4,0-0.8,0-1.1c0-0.4,0-0.7,0-1.1v-0.5c0-0.1,0-0.2,0-0.4c0-0.2,0-0.3,0-0.5
		c0-0.2,0-0.3,0-0.5c0-0.1,0-0.2,0-0.3c0-0.1,0-0.2,0.1-0.3c0-0.1,0-0.2,0-0.2l0.1-0.1c0.1,0,0.1,0,0.2,0c0.1,0,0.1,0,0.2,0
		s0.1,0,0.1,0c0.3,0,0.5,0,0.7,0c0.2,0,0.4,0,0.7,0c0.2,0,0.4,0,0.5,0c0.2,0,0.3,0,0.5,0c0.2,0,0.3,0,0.5,0c0.2,0,0.3,0,0.5,0.1
		c0.2,0.1,0.3,0.2,0.3,0.3c0,0,0,0.1,0,0.1s0,0.1,0,0.2s0,0.1,0,0.2s0,0.1,0,0.1c0,0,0,0.1,0,0.2c0,0.1,0,0.1,0,0.2s0,0.1,0,0.2
		c0,0.1,0,0.1,0,0.1c0,0.4,0,0.8,0,1.2s0,0.8,0,1.2c0,0.4,0,0.8,0,1.2c0,0.4,0,0.8,0,1.2c0,0.5,0,0.9-0.1,1.5c0,0.5,0,1,0,1.5
		c0,0.1,0,0.2,0,0.4c0,0.2,0,0.5,0,0.7c0,0.3,0,0.5,0,0.7s0,0.4,0,0.4c0,0,0,0,0,0.1s0,0.2,0,0.3c0,0.1,0,0.2,0,0.3
		c0,0.1,0,0.2,0,0.2c0,0.1,0,0.1,0,0.3c0,0.1,0,0.2,0,0.3c0,0.1,0,0.2,0,0.3c0,0.1,0,0.1,0,0.1c0,0,0,0.1,0,0.2c0,0.1,0,0.2,0,0.3
		c0,0.1,0,0.2,0,0.3s0,0.1,0,0.2c0,0,0,0.1,0,0.3c0,0.1,0,0.3,0,0.4c0,0.1,0,0.3,0,0.4c0,0.1,0,0.2,0,0.3c0,0,0,0.1,0,0.3
		c0,0.2,0,0.4,0,0.6c0,0.2,0,0.4,0,0.6c0,0.2,0,0.3,0,0.3c0,0,0,0.1,0,0.1c0,0.1,0,0.2,0,0.3c0,0.1,0,0.2,0,0.3c0,0.1,0,0.2,0,0.2
		c0,0,0,0.1,0,0.2c0,0.1,0,0.3,0,0.4c0,0.1,0,0.3,0,0.4s0,0.2,0,0.2c0,0.2-0.1,0.3-0.3,0.4c-0.2,0.1-0.4,0.1-0.6,0.1
		c-0.2,0-0.4,0-0.6,0c-0.2,0-0.3,0-0.3,0c-0.1,0-0.2,0-0.4,0s-0.2,0-0.4,0.1H250l-0.1-0.1l-0.1-1.2c-0.3,0.3-0.7,0.5-1,0.7
		c-0.4,0.2-0.7,0.3-1.1,0.4c-0.3,0.1-0.7,0.2-0.9,0.2s-0.5,0-0.7,0.1h-0.4c-0.1,0-0.3,0-0.5,0s-0.4,0-0.6,0c-0.2,0-0.4,0-0.6,0
		s-0.3,0-0.3,0c-0.1,0-0.1,0-0.3-0.1s-0.2-0.1-0.4-0.1c-0.1,0-0.3-0.1-0.4-0.1s-0.2-0.1-0.2-0.1c0,0-0.1,0-0.2-0.1s-0.2-0.1-0.3-0.1
		c-0.1,0-0.2-0.1-0.2-0.1c-0.1,0-0.1-0.1-0.2-0.1c0,0-0.1-0.1-0.2-0.1c-0.1-0.1-0.2-0.1-0.3-0.2c-0.1-0.1-0.2-0.1-0.3-0.2
		c-0.1-0.1-0.1-0.1-0.2-0.1c0-0.1-0.1-0.1-0.1-0.2c0,0-0.1-0.1-0.1-0.1s-0.1-0.1-0.1-0.1c-0.2-0.3-0.4-0.5-0.5-0.8
		c-0.1-0.3-0.3-0.5-0.4-0.8c-0.1-0.2-0.2-0.4-0.3-0.6c-0.1-0.2-0.2-0.4-0.2-0.6c0,0,0-0.1,0-0.2c0-0.1,0-0.2-0.1-0.3
		c0-0.1,0-0.2-0.1-0.3c0-0.1,0-0.1,0-0.2c0,0,0-0.1-0.1-0.1C238.6,51.7,238.6,51.7,238.6,51.6L238.6,51.6z M244.1,52.1
		C244.1,52.1,244.1,52.2,244.1,52.1c0.1,0.1,0.1,0.2,0.2,0.2c0.1,0.1,0.1,0.1,0.2,0.2c0.1,0.1,0.1,0.1,0.2,0.1c0,0,0.1,0,0.1,0.1
		s0.1,0.1,0.1,0.1c0,0,0.1,0,0.1,0.1c0.1,0,0.1,0.1,0.1,0.1c0,0,0.1,0,0.1,0.1c0.1,0,0.1,0,0.1,0c0.1,0.1,0.3,0.1,0.4,0.1
		c0.1,0,0.2,0,0.4,0c0.4,0,0.8-0.1,1.2-0.2s0.8-0.3,1.2-0.6c0.1-0.1,0.1-0.1,0.2-0.2c0.1-0.1,0.2-0.1,0.2-0.2c0,0,0,0,0.1-0.1
		c0,0,0.1-0.1,0.1-0.2c0.1-0.1,0.1-0.1,0.1-0.2s0.1-0.1,0.1-0.1c0,0,0-0.1,0.1-0.2s0.1-0.2,0.1-0.3s0.1-0.2,0.1-0.2
		c0-0.1,0.1-0.1,0.1-0.2c0-0.1,0-0.1,0.1-0.1c0,0,0-0.1,0-0.2l0-0.2c0-0.1,0.1-0.2,0.1-0.3s0.1-0.4,0.2-0.7c0,0,0-0.1,0-0.2
		c0-0.1,0-0.2,0-0.2c0,0,0-0.1,0-0.2c0-0.1,0-0.2,0-0.3v-0.4c0,0,0-0.1,0-0.1s0-0.1,0-0.2c0-0.1,0-0.2,0-0.2s0-0.1,0-0.2
		c0,0,0,0,0-0.1c0,0,0-0.1,0-0.1c0,0,0,0-0.1-0.1c0,0-0.1-0.1-0.1-0.1c0-0.1-0.1-0.1-0.1-0.2c0,0-0.1-0.1-0.1-0.1
		c-0.2-0.2-0.5-0.4-0.7-0.6s-0.6-0.4-0.9-0.5c0,0-0.1,0-0.1,0c0,0-0.1,0-0.1,0h-1.6c0-0.1-0.1-0.1-0.1-0.1s-0.1,0-0.1,0
		c-0.1,0-0.3,0-0.5,0c-0.2,0-0.3,0.1-0.5,0.2c-0.2,0.1-0.3,0.1-0.5,0.2c-0.1,0.1-0.3,0.2-0.4,0.3c0,0,0,0.1-0.1,0.2
		c-0.1,0.1-0.1,0.2-0.2,0.3s-0.1,0.2-0.2,0.3c-0.1,0.1-0.1,0.2-0.1,0.2c0,0,0,0,0,0.1c0,0,0,0.1,0,0.1c-0.1,0.2-0.3,0.5-0.4,0.7
		s-0.2,0.5-0.2,0.8c0,0,0,0.1,0,0.2c0,0.1,0,0.2,0,0.3c0,0.1,0,0.2,0,0.3c0,0.1,0,0.1,0,0.2c0,0,0,0.1,0,0.2c0,0.1,0,0.1,0,0.2
		c0,0.1,0.1,0.2,0.1,0.3c0,0.1,0.1,0.3,0.1,0.4c0,0.1,0.1,0.3,0.1,0.4c0,0.1,0.1,0.2,0.1,0.2L244.1,52.1z"/>
	<path class="st16" d="M257,49.1c0-0.3,0.1-0.6,0.2-0.9s0.2-0.6,0.2-0.9c0.1-0.2,0.1-0.4,0.2-0.6s0.1-0.3,0.2-0.5c0,0,0-0.1,0-0.1
		c0-0.1,0-0.2,0.1-0.2c0-0.1,0.1-0.2,0.1-0.2c0-0.1,0-0.1,0-0.1c0.1-0.3,0.2-0.5,0.4-0.8c0.2-0.2,0.3-0.4,0.5-0.7c0,0,0,0,0.1-0.1
		c0-0.1,0.1-0.1,0.2-0.2c0.1-0.1,0.1-0.1,0.2-0.2c0-0.1,0.1-0.1,0.1-0.1c0,0,0,0,0-0.1c0,0,0.1-0.1,0.1-0.1c0,0,0.1-0.1,0.1-0.1
		c0,0,0-0.1,0.1-0.1c0.3-0.3,0.7-0.5,1.1-0.8c0.4-0.2,0.8-0.4,1.3-0.6c0.4-0.2,0.9-0.3,1.3-0.4c0.5-0.1,0.9-0.1,1.3-0.1
		c0.5,0,1,0,1.5,0c0.5,0.1,1,0.2,1.5,0.4c0.4,0.1,0.7,0.3,1,0.4c0.3,0.2,0.5,0.3,0.7,0.4s0.4,0.3,0.5,0.4s0.2,0.2,0.3,0.2
		c0.2,0.2,0.5,0.4,0.7,0.6c0.2,0.2,0.4,0.4,0.5,0.6s0.3,0.5,0.5,0.7c0.1,0.3,0.3,0.5,0.4,0.8c0,0.1,0.1,0.2,0.1,0.4
		c0,0.2,0.1,0.4,0.1,0.6c0,0.2,0.1,0.4,0.1,0.6c0,0.2,0.1,0.3,0.1,0.4c0,0,0,0.1,0,0.1s0,0.1,0,0.2s0,0.2,0,0.2s0,0.1,0,0.2
		c0,0,0,0.1,0,0.2s0,0.2,0,0.3s0,0.2,0,0.2c0,0.1,0,0.1,0,0.1c0,0,0,0.1,0,0.2c0,0.1,0,0.2-0.1,0.2s0,0.2-0.1,0.2c0,0.1,0,0.1,0,0.1
		c-0.2,0.2-0.3,0.3-0.5,0.3c-0.2,0.1-0.4,0.1-0.6,0.1c-0.2,0-0.5,0-0.8,0c-0.3,0-0.7,0-1.1,0.1c0,0-0.1,0-0.2,0s-0.3,0-0.4,0
		c-0.1,0-0.3,0-0.4,0s-0.2,0-0.2,0h-0.1c0,0,0,0-0.1,0c-0.1,0-0.1,0-0.2,0c-0.1,0-0.1,0-0.2,0c0,0-0.1,0-0.1-0.1c0,0,0,0-0.1,0
		c-0.1,0-0.1,0-0.2,0s-0.2,0-0.2,0s-0.1,0-0.2,0c0,0,0,0,0,0H267c-0.2,0-0.4,0-0.7,0c-0.2,0-0.5,0-0.8,0c-0.3,0-0.5,0-0.8,0
		c-0.2,0-0.5,0-0.7,0c-0.3,0-0.5,0-0.8,0c-0.2,0-0.4,0-0.7,0c-0.2,0-0.4,0-0.7,0s-0.5,0-0.8,0c0,0-0.1,0-0.1,0s-0.1,0-0.1,0.1
		c0,0,0,0.1,0,0.2c0,0.1,0,0.1,0,0.2c0.1,0.3,0.1,0.5,0.2,0.6c0,0.1,0.1,0.2,0.1,0.3c0,0.1,0.1,0.1,0.1,0.1s0.1,0.1,0.2,0.2
		c0,0,0,0,0,0.1s0.1,0.1,0.1,0.1s0.1,0.1,0.1,0.1c0,0,0,0,0,0.1c0.3,0.4,0.6,0.7,1,0.9c0.4,0.2,0.9,0.3,1.3,0.3c0.1,0,0.2,0,0.3,0
		c0.1,0,0.2,0,0.2,0c0.2,0,0.3,0,0.3,0c0.1,0,0.1,0,0.2,0s0.1,0,0.2,0c0.1,0,0.1,0,0.3,0c0.1,0,0.3,0,0.5-0.1s0.5-0.1,0.8-0.2
		c0,0,0.1,0,0.1-0.1c0.1,0,0.2-0.1,0.3-0.1c0.1,0,0.2-0.1,0.3-0.1s0.1-0.1,0.2-0.1c0.2-0.1,0.4-0.3,0.6-0.4s0.3-0.2,0.5-0.3
		c0.1-0.1,0.3-0.2,0.4-0.3c0.1-0.1,0.2-0.1,0.4-0.2h0h0c0,0,0,0,0.1,0c0,0,0,0,0,0.1c0.1,0.1,0.2,0.1,0.3,0.2
		c0.1,0.1,0.3,0.2,0.4,0.3c0.1,0.1,0.3,0.2,0.4,0.3c0.1,0.1,0.2,0.2,0.3,0.3c0,0,0.1,0.1,0.2,0.1c0.1,0.1,0.2,0.1,0.3,0.2
		c0.1,0.1,0.2,0.1,0.3,0.2c0.1,0.1,0.1,0.1,0.1,0.1v0c0,0,0,0,0,0c0,0,0,0,0,0c0,0.2,0,0.4-0.2,0.5c-0.1,0.2-0.3,0.3-0.4,0.4
		c-0.4,0.4-0.8,0.8-1.2,1.2c-0.4,0.4-0.9,0.7-1.4,1c-0.2,0.1-0.3,0.1-0.5,0.2s-0.3,0.1-0.5,0.1c-0.2,0.1-0.4,0.1-0.6,0.1
		c-0.2,0-0.4,0-0.6,0.1c-0.2,0-0.4,0-0.6,0s-0.4,0-0.6,0c-0.6,0-1.1,0-1.6-0.1c-0.5-0.1-1.1-0.2-1.6-0.3c-0.2-0.1-0.4-0.1-0.6-0.2
		c-0.2-0.1-0.3-0.2-0.5-0.3c-0.2-0.1-0.3-0.2-0.5-0.3s-0.3-0.2-0.5-0.4c-0.3-0.2-0.6-0.5-0.9-0.7c-0.3-0.2-0.6-0.5-0.8-0.8
		c0,0,0-0.1-0.1-0.1c-0.1-0.1-0.1-0.1-0.1-0.2c0,0,0-0.1-0.1-0.1c0-0.1-0.1-0.1-0.2-0.2c-0.1-0.1-0.1-0.1-0.2-0.2
		c-0.1-0.1-0.1-0.1-0.1-0.1c0,0,0-0.1-0.1-0.2c-0.1-0.1-0.1-0.2-0.2-0.3c-0.1-0.1-0.1-0.3-0.2-0.4c-0.1-0.1-0.1-0.2-0.1-0.3
		c0,0,0,0,0-0.1c0,0,0-0.1,0-0.1c-0.1-0.5-0.2-1-0.2-1.5C257,50.2,256.9,49.7,257,49.1L257,49.1z M265.5,45.2
		c-0.4,0-0.8,0.1-1.1,0.2c-0.4,0.1-0.7,0.3-1,0.5c-0.1,0.1-0.2,0.2-0.4,0.3c-0.1,0.1-0.3,0.2-0.4,0.4c-0.1,0.1-0.2,0.3-0.3,0.4
		c-0.1,0.1-0.1,0.3-0.1,0.4c0.2,0,0.4,0,0.6-0.1c0.2,0,0.4-0.1,0.6-0.1h0c0,0,0.1,0,0.1,0c0.1,0,0.2,0,0.3,0c0.1,0,0.2,0,0.3,0
		c0.1,0,0.1,0,0.2,0c0,0,0.1,0,0.2,0c0.1,0,0.2,0,0.3,0s0.2,0,0.4,0s0.2,0,0.3,0s0.2,0,0.3,0s0.3,0,0.4,0s0.2,0,0.4,0s0.2,0,0.2,0
		c0.1,0,0.2,0,0.4,0c0.2,0,0.4,0,0.7,0s0.5,0,0.7,0c0.2,0,0.4,0,0.4,0c0,0,0,0,0,0l0,0c0,0,0,0,0-0.1c0,0,0-0.1,0-0.1
		c0,0,0-0.1-0.1-0.1c0-0.1-0.1-0.1-0.1-0.2c0-0.1-0.1-0.1-0.1-0.1c0,0,0-0.1,0-0.1c-0.4-0.4-0.8-0.8-1.3-1
		C266.6,45.3,266.1,45.2,265.5,45.2z"/>
	<path class="st16" d="M281.5,57c-0.1,0-0.1,0-0.3-0.1c-0.1,0-0.3,0-0.4-0.1c0,0,0,0-0.1,0c-0.1,0-0.1,0-0.2-0.1
		c-0.1,0-0.2-0.1-0.3-0.1c-0.1,0-0.2-0.1-0.3-0.2c0,0,0,0-0.1,0c-0.1,0-0.1,0-0.2-0.1c-0.1,0-0.1-0.1-0.2-0.1c-0.1,0-0.1,0-0.1,0
		c-0.1-0.1-0.3-0.1-0.4-0.2s-0.3-0.2-0.4-0.3c-0.1-0.1-0.2-0.2-0.3-0.3c-0.1-0.1-0.2-0.2-0.3-0.3c-0.4-0.4-0.7-0.7-1-1.1
		c-0.3-0.4-0.6-0.8-0.8-1.3c-0.2-0.4-0.3-0.7-0.4-1.1c-0.1-0.3-0.2-0.6-0.2-0.9c-0.1-0.3-0.1-0.6-0.1-1c0-0.3,0-0.7,0-1.1v-0.9
		c0.1-0.5,0.2-0.9,0.4-1.3c0.1-0.4,0.3-0.8,0.5-1.2c0.2-0.4,0.4-0.7,0.7-1.1c0.3-0.3,0.6-0.7,0.9-1c0.2-0.2,0.5-0.4,0.8-0.6
		c0.3-0.2,0.5-0.3,0.9-0.5c0,0,0.1,0,0.1,0s0.1,0,0.1-0.1c0.1,0,0.1,0,0.1-0.1s0.1,0,0.1,0c0,0,0.1,0,0.2,0c0.1,0,0.2,0,0.2,0
		c0,0,0.1,0,0.1-0.1c0.1-0.1,0.1-0.1,0.1-0.1c0,0,0,0,0.1,0c0,0,0.1,0,0.1,0s0.1,0,0.1,0c0,0,0.1,0,0.1,0c0,0,0.1,0,0.2-0.1
		c0.1,0,0.2-0.1,0.4-0.1c0.1,0,0.2-0.1,0.4-0.1c0.1,0,0.2,0,0.2,0c0.1,0,0.2,0,0.3-0.1c0.2,0,0.3,0,0.5-0.1c0.2,0,0.4,0,0.5,0
		c0.2,0,0.3,0,0.4,0h0.1c0,0,0.1,0,0.1,0c0,0,0.1,0,0.1,0c0.2,0,0.3,0,0.5,0s0.3,0,0.5,0.1c0.2,0.1,0.5,0.1,0.7,0.2
		c0.2,0,0.5,0.1,0.7,0.1c0.1,0,0.2,0.1,0.3,0.1c0.1,0.1,0.3,0.1,0.4,0.2c0.1,0.1,0.3,0.2,0.4,0.2c0.1,0.1,0.2,0.1,0.3,0.2
		c0,0,0.1,0.1,0.2,0.2c0.1,0.1,0.2,0.2,0.3,0.3s0.2,0.2,0.3,0.4c0.1,0.1,0.2,0.2,0.3,0.3c0,0,0,0.1,0.1,0.1c0,0.1,0.1,0.1,0.1,0.2
		c0.1,0.1,0.1,0.2,0.2,0.2c0.1,0.1,0.1,0.1,0.1,0.2c0.3,0.4,0.5,0.9,0.7,1.3c0.2,0.4,0.3,0.9,0.5,1.3c0.1,0.4,0.2,0.9,0.2,1.4
		c0.1,0.5,0.1,1,0.1,1.5v0c0,0.1,0,0.3-0.1,0.6c0,0.2,0,0.5-0.1,0.7c0,0.2,0,0.4-0.1,0.6c0,0.2,0,0.3,0,0.3
		c-0.1,0.4-0.1,0.8-0.3,1.2c-0.1,0.4-0.3,0.7-0.4,1.1c-0.2,0.2-0.3,0.4-0.4,0.5s-0.2,0.3-0.3,0.4c-0.1,0.1-0.2,0.3-0.3,0.4
		s-0.3,0.3-0.5,0.6c-0.3,0.2-0.6,0.4-0.9,0.6c-0.3,0.2-0.6,0.3-1,0.5c-0.3,0.1-0.7,0.2-1,0.3s-0.7,0.1-1,0.1c0,0-0.1,0-0.2,0
		s-0.2,0-0.3,0c-0.1,0-0.2,0-0.3,0c-0.1,0-0.1,0-0.2,0c0,0,0,0-0.1,0c0,0-0.1,0-0.1,0c0,0-0.1,0-0.1,0s-0.1,0-0.2,0
		c-0.1,0-0.1,0-0.2,0c-0.1,0-0.1,0-0.1,0c0,0-0.1,0-0.2,0s-0.2,0-0.4,0c-0.1,0-0.3,0-0.4-0.1c-0.1,0-0.2,0-0.2,0h-0.1L281.5,57z
		 M279.9,48.7c0,0.2,0,0.4,0.1,0.7c0,0.2,0.1,0.4,0.2,0.6c0,0,0,0.1,0.1,0.1s0.1,0.1,0.1,0.1c0,0.1,0.1,0.2,0.1,0.3s0.1,0.2,0.1,0.4
		c0,0.1,0.1,0.2,0.1,0.3c0,0.1,0.1,0.2,0.2,0.3c0,0,0.1,0.1,0.1,0.1c0.1,0.1,0.1,0.1,0.2,0.2c0.1,0.1,0.1,0.1,0.2,0.2
		c0,0.1,0.1,0.1,0.1,0.1c0,0,0,0,0.1,0.1c0,0,0.1,0.1,0.2,0.1c0.1,0,0.1,0.1,0.2,0.1c0.1,0,0.1,0.1,0.2,0.1l0.1,0.1
		c0,0,0.1,0.1,0.2,0.1c0.1,0.1,0.1,0.1,0.1,0.1c0,0,0.1,0,0.1,0.1c0.1,0,0.1,0,0.2,0c0.2,0.1,0.3,0.1,0.4,0.1c0.1,0,0.2,0,0.2,0
		c0.1,0,0.1,0,0.2,0c0.1,0,0.2,0,0.3,0c0,0,0,0,0.1,0c0,0,0.1,0,0.2,0c0.1,0,0.1,0,0.2,0c0.1,0,0.1,0,0.1,0c0.4-0.1,0.7-0.2,1.1-0.4
		c0.3-0.2,0.6-0.4,0.9-0.7c0.2-0.3,0.4-0.6,0.6-1c0.1-0.4,0.2-0.7,0.2-1.1c0,0,0-0.1,0-0.3c0-0.2,0-0.5,0.1-0.9c0-0.2,0-0.4-0.1-0.6
		c-0.1-0.2-0.2-0.4-0.2-0.6c-0.1-0.3-0.3-0.6-0.5-0.8s-0.5-0.4-0.8-0.6c-0.2-0.1-0.3-0.2-0.5-0.3c-0.1-0.1-0.3-0.1-0.4-0.2
		c-0.1,0-0.3-0.1-0.5-0.1s-0.3,0-0.5,0c-0.2,0-0.3,0-0.5,0c-0.1,0-0.3,0-0.5,0.1c-0.2,0-0.4,0.1-0.6,0.2c-0.2,0.1-0.4,0.2-0.6,0.3
		c-0.2,0.1-0.4,0.2-0.5,0.4c-0.2,0.2-0.3,0.3-0.3,0.5l-0.2,0.6c0,0.1-0.1,0.2-0.1,0.3s-0.1,0.3-0.1,0.4c0,0.1,0,0.3,0,0.4
		C279.9,48.5,279.9,48.6,279.9,48.7z"/>
</g>
<g>
	<path class="st0" d="M130,51.8c0-0.2,0-0.3-0.1-0.5c-0.1-0.1-0.1-0.3-0.2-0.4c0,0,0-0.1-0.1-0.1c-0.1-0.1-0.1-0.1-0.1-0.1
		c0,0,0,0,0,0v-0.1c0,0,0,0,0-0.1c0,0,0-0.1,0-0.1c0,0,0.1,0,0.1-0.1c0,0,0.1-0.1,0.2-0.1c0.1,0,0.1-0.1,0.2-0.1
		c0,0,0.1-0.1,0.1-0.1c0,0,0.1-0.1,0.2-0.2c0.1-0.1,0.2-0.2,0.3-0.3c0.1-0.1,0.2-0.2,0.3-0.3c0.1-0.1,0.2-0.1,0.2-0.2
		c0,0,0,0,0.1-0.1c0.1,0,0.1-0.1,0.2-0.1c0.1,0,0.1-0.1,0.2-0.1s0.1-0.1,0.1-0.1c0,0,0,0,0.1-0.1c0,0,0.1-0.1,0.1-0.1
		s0.1-0.1,0.1-0.1c0,0,0.1,0,0.1-0.1c0,0,0.1,0,0.2-0.1s0.2-0.1,0.2-0.1l0,0c0,0,0,0,0,0c0,0,0,0,0,0l0,0c0.1,0.1,0.2,0.2,0.3,0.3
		c0.1,0.2,0.3,0.3,0.5,0.5c0.2,0.2,0.3,0.4,0.5,0.5c0.1,0.2,0.2,0.3,0.3,0.3c0,0,0.1,0.1,0.2,0.1s0.2,0.2,0.3,0.2
		c0.1,0.1,0.2,0.2,0.3,0.3c0.1,0.1,0.2,0.1,0.2,0.2c0,0,0.1,0.1,0.1,0.1c0.1,0.1,0.1,0.1,0.2,0.2c0.1,0,0.1,0.1,0.2,0.1
		s0.1,0.1,0.1,0.1c0,0,0.1,0,0.1,0c0.1,0,0.1,0,0.2,0.1h0.1c0.1,0,0.2,0,0.4,0c0.2,0,0.3,0,0.5,0c0.1,0,0.3-0.1,0.4-0.2
		c0.1-0.1,0.2-0.2,0.3-0.4l-0.2-1.1c0,0,0-0.1,0-0.2s0-0.2-0.1-0.2l-0.4-0.6c0,0,0,0,0-0.1c0,0,0,0,0,0c0,0,0,0,0,0
		c-0.2-0.3-0.3-0.5-0.5-0.7c-0.2-0.2-0.4-0.4-0.6-0.6s-0.4-0.4-0.6-0.6s-0.4-0.4-0.7-0.6c-0.2-0.2-0.4-0.4-0.6-0.6
		c-0.2-0.2-0.4-0.4-0.6-0.5c-0.2-0.2-0.4-0.4-0.7-0.6c-0.2-0.2-0.4-0.4-0.6-0.6c-0.3-0.3-0.5-0.6-0.8-1c-0.3-0.4-0.5-0.8-0.7-1.2
		c-0.2-0.4-0.4-0.8-0.5-1.3c-0.1-0.4-0.2-0.9-0.1-1.3c0-0.3,0.1-0.7,0.2-0.9c0.1-0.3,0.3-0.6,0.4-0.8c0,0,0,0,0.1-0.1c0,0,0,0,0-0.1
		c0-0.1,0.1-0.1,0.2-0.2c0.1-0.1,0.1-0.2,0.2-0.3c0.1-0.1,0.1-0.2,0.2-0.2c0-0.1,0.1-0.1,0.1-0.1c0,0,0.1,0,0.1-0.1s0.2-0.2,0.3-0.2
		c0.1-0.1,0.2-0.2,0.3-0.3c0.1-0.1,0.2-0.2,0.2-0.2c0.2-0.2,0.4-0.3,0.6-0.4c0.2-0.1,0.4-0.2,0.6-0.3c0.2-0.1,0.4-0.2,0.7-0.2
		c0.2-0.1,0.5-0.1,0.7-0.2c0.1,0,0.2,0,0.3-0.1c0.1,0,0.3,0,0.4,0c0.1,0,0.3,0,0.4,0c0.1,0,0.2,0,0.3,0c0.3,0,0.7,0.1,0.9,0.1
		c0.3,0.1,0.6,0.1,0.8,0.2c0.3,0.1,0.5,0.2,0.8,0.4c0.3,0.1,0.5,0.3,0.8,0.5c0,0,0,0,0,0c0,0,0,0,0,0c0,0,0,0,0,0l0.4,0.3
		c0,0,0,0.1,0.1,0.1c0,0.1,0.1,0.1,0.1,0.1c0,0,0.1,0.1,0.2,0.2c0.1,0.1,0.2,0.2,0.3,0.3c0.1,0.1,0.2,0.2,0.3,0.3
		c0.1,0.1,0.2,0.2,0.2,0.2c0,0,0,0,0.1,0.1s0.1,0.1,0.1,0.1c0,0.1,0.1,0.1,0.1,0.2c0,0.1,0.1,0.1,0.1,0.1c0.1,0.1,0.1,0.2,0.2,0.3
		c0.1,0.1,0.1,0.2,0.1,0.3v0.1c0,0,0,0-0.1,0.1c0,0-0.1,0.1-0.1,0.1s-0.1,0.1-0.1,0.1c0,0-0.1,0.1-0.1,0.1c0,0,0,0-0.1,0
		c0,0-0.1,0.1-0.1,0.1c0,0-0.1,0.1-0.1,0.1s-0.1,0-0.1,0c-0.1,0.1-0.2,0.2-0.3,0.3s-0.3,0.3-0.5,0.4c-0.2,0.1-0.3,0.3-0.5,0.4
		s-0.3,0.2-0.3,0.3c-0.1,0.1-0.1,0.1-0.3,0.1c0,0-0.1,0-0.2,0c-0.1,0-0.1,0-0.2-0.1c0,0,0,0,0-0.1c0,0,0-0.1,0-0.1
		c0,0,0-0.1-0.1-0.1c0,0,0-0.1,0-0.1c-0.1-0.2-0.2-0.3-0.3-0.5c-0.1-0.2-0.2-0.3-0.3-0.5s-0.3-0.3-0.4-0.4c-0.1-0.1-0.3-0.2-0.4-0.3
		c0,0-0.1,0-0.1,0s-0.1,0-0.2-0.1c-0.1,0-0.1,0-0.2-0.1s-0.1,0-0.1,0c0,0,0,0-0.1-0.1c-0.1,0-0.1,0-0.1,0h0c0,0,0,0,0,0s0,0,0,0
		c-0.1,0-0.3,0-0.4,0c-0.1,0-0.3,0-0.4,0c-0.1,0-0.2,0.1-0.4,0.1c-0.1,0.1-0.2,0.2-0.3,0.3c0,0,0,0.1-0.1,0.2s-0.1,0.1-0.1,0.1
		s0,0.1,0,0.1c0,0.1,0,0.1,0,0.2c0,0.1,0,0.1,0,0.2c0,0.1,0,0.1,0,0.1c0,0,0,0,0,0.1c0,0,0,0.1,0,0.1v0v0c0.1,0.2,0.2,0.4,0.3,0.6
		s0.3,0.4,0.4,0.5c0.1,0.2,0.3,0.3,0.5,0.5s0.3,0.3,0.5,0.5c0,0,0,0.1,0.1,0.1c0.1,0.1,0.1,0.1,0.1,0.1c0,0,0.1,0.1,0.2,0.2
		c0.1,0.1,0.2,0.2,0.4,0.3c0.1,0.1,0.3,0.2,0.4,0.3c0.1,0.1,0.2,0.2,0.3,0.2l0.1,0.1c0,0,0,0,0.1,0.1s0.1,0.1,0.1,0.1
		c0,0,0.1,0.1,0.1,0.1s0.1,0.1,0.1,0.1l0.1,0.1c0.3,0.2,0.5,0.4,0.8,0.7s0.5,0.5,0.7,0.8c0,0,0.1,0.1,0.2,0.2s0.2,0.2,0.3,0.3
		c0.1,0.1,0.2,0.2,0.3,0.3c0.1,0.1,0.1,0.2,0.1,0.2c0,0,0,0,0.1,0.1c0,0,0.1,0.1,0.1,0.1c0,0,0,0.1,0.1,0.1c0,0.1,0,0.1,0.1,0.1
		c0,0,0,0.1,0.1,0.1s0.1,0.1,0.1,0.2c0,0.1,0.1,0.1,0.1,0.2c0,0.1,0.1,0.1,0.1,0.1c0,0,0,0,0,0.1c0,0,0,0.1,0.1,0.1
		c0,0,0,0.1,0.1,0.1c0,0,0,0,0,0.1c0,0,0,0.1,0.1,0.2s0.1,0.2,0.1,0.3c0,0.1,0.1,0.2,0.1,0.3c0,0.1,0.1,0.2,0.1,0.2
		c0,0,0,0.1,0.1,0.1s0.1,0.1,0.1,0.1c0,0,0,0.1,0,0.1c0,0.1,0,0.1,0,0.1c0,0,0,0.1,0,0.1s0.1,0.1,0.1,0.2l0.2,0.8l-0.1,1.5
		c0,0,0,0.1,0,0.1c0,0.1,0,0.1-0.1,0.1c-0.1,0.3-0.2,0.5-0.3,0.7s-0.3,0.4-0.5,0.6c0,0-0.1,0.1-0.2,0.2c-0.1,0.1-0.2,0.2-0.3,0.3
		c-0.1,0.1-0.2,0.2-0.4,0.3c-0.1,0.1-0.2,0.2-0.3,0.2c-0.3,0.2-0.6,0.5-0.9,0.7c-0.3,0.2-0.7,0.4-1.1,0.5c-0.2,0-0.3,0.1-0.4,0.1
		s-0.3,0-0.4,0.1c-0.3,0-0.5,0.1-0.7,0.2s-0.5,0.1-0.7,0.1c-0.2,0-0.5,0-0.7-0.1c-0.2,0-0.5-0.1-0.7-0.2c-0.6-0.2-1.1-0.4-1.6-0.7
		c-0.5-0.3-0.9-0.6-1.2-1c0,0-0.1-0.1-0.2-0.2c-0.1-0.1-0.2-0.2-0.3-0.3c-0.1-0.1-0.2-0.2-0.3-0.3s-0.1-0.1-0.1-0.2
		c0,0-0.1-0.1-0.2-0.2s-0.2-0.2-0.3-0.3c-0.1-0.1-0.2-0.2-0.3-0.3C130,51.9,130,51.8,130,51.8z"/>
	<path class="st0" d="M145,49.6c0-0.1,0-0.2-0.1-0.4c0-0.2-0.1-0.3-0.1-0.5c0-0.2-0.1-0.4-0.1-0.5s-0.1-0.3-0.1-0.4c0,0,0-0.1,0-0.2
		s0-0.2,0-0.3c0-0.1,0-0.2,0-0.3c0-0.1,0-0.2,0-0.2c0,0,0-0.1,0-0.2c0-0.1,0-0.1,0-0.2c0-0.1,0-0.1,0-0.2c0-0.1,0-0.1,0-0.1l0-0.1
		c0,0,0-0.1,0-0.1c0-0.1,0-0.1,0-0.2c0-0.1,0-0.2,0-0.2c0-0.1,0-0.1,0-0.1c0-0.2,0-0.4,0-0.7s0-0.5,0-0.8s0-0.5,0-0.8
		c0-0.2,0-0.5,0-0.7c0-0.3,0-0.5,0-0.8s0-0.4,0-0.6c0-0.2,0-0.4,0-0.6c0-0.2,0-0.4,0.1-0.6c0-0.1,0.1-0.2,0.3-0.2
		c0.2-0.1,0.3-0.1,0.5-0.1h0.6c0.1,0,0.2,0,0.3,0s0.2,0,0.4,0.1c0.1,0,0.2,0,0.3,0.1c0.1,0,0.2,0,0.2,0c0,0,0.1,0,0.2,0
		c0.1,0,0.2,0,0.3,0c0.1,0,0.2,0,0.3,0c0.1,0,0.2,0,0.2,0c0,0,0.1,0,0.2,0c0.1,0,0.2,0,0.3,0s0.2,0,0.3,0c0.1,0,0.2,0,0.2,0
		c0,0,0.1,0.1,0.1,0.1c0,0,0,0.1,0,0.1c0,0,0,0.1,0,0.1c0,0,0,0.1,0,0.2v0.5c0,0.3-0.1,0.6-0.1,0.9s0,0.6,0,0.9c0,0.5,0,1,0,1.5
		c0,0.5,0,1,0,1.6l0.1,0.6v0.2c0,0.2,0.1,0.4,0.1,0.6c0,0.2,0,0.4,0.1,0.6c0,0.2,0,0.4,0.1,0.6c0,0.2,0.1,0.4,0.2,0.6
		c0,0,0,0.1,0.1,0.2c0,0.1,0.1,0.1,0.1,0.2c0,0.1,0.1,0.1,0.1,0.2c0,0.1,0,0.1,0,0.1c0.1,0.2,0.1,0.3,0.3,0.4s0.3,0.2,0.4,0.3
		c0.1,0.1,0.3,0.1,0.4,0.2s0.2,0.1,0.2,0.1c0,0,0.1,0,0.2,0.1c0.1,0,0.2,0.1,0.2,0.1c0,0,0.1,0,0.2,0c0.1,0,0.1,0,0.2,0
		c0.1,0,0.3,0,0.6-0.1c0.2-0.1,0.5-0.2,0.7-0.3c0.3-0.3,0.5-0.6,0.7-1c0.1-0.3,0.2-0.7,0.3-1c0.1-0.3,0.1-0.7,0.1-1.1
		c0-0.4,0-0.8,0-1.2v-0.4c0,0,0-0.1,0-0.3c0-0.2,0-0.4,0-0.5c0-0.2,0-0.4,0-0.5c0-0.2,0-0.3,0-0.3v-1.2c0,0,0-0.1,0-0.2
		c0-0.1,0-0.3-0.1-0.4c0-0.2,0-0.3-0.1-0.5c0-0.2,0-0.4-0.1-0.5c0-0.2,0-0.3-0.1-0.4c0-0.1,0-0.2,0-0.2l0.1-1c0-0.1,0.1-0.1,0.1-0.1
		c0.1,0,0.1,0,0.2,0s0.2,0,0.2,0s0.1,0,0.2,0c0,0,0,0,0.1,0s0.1,0,0.1,0c0,0,0.1,0,0.1,0c0,0,0.1,0,0.1,0l1.5,0.1c0,0,0.1,0,0.2,0
		s0.2,0,0.3,0c0.1,0,0.2,0,0.3,0c0.1,0,0.2,0,0.2,0c0,0,0.1,0,0.2,0c0.1,0,0.2,0,0.3,0c0.1,0,0.2,0,0.3,0c0.1,0,0.2,0,0.2,0l0.1,0
		c0.1,0,0.2,0,0.2,0.1c0.1,0.1,0.1,0.2,0.1,0.3c0,0.1,0,0.3,0.1,0.4c0,0.2,0,0.3,0,0.5V41c0,0.2,0,0.3,0,0.5c0,0.2,0,0.3,0,0.5
		c0,0,0,0.2,0,0.3s0,0.4,0,0.5c0,0.2,0,0.4,0,0.5s0,0.3,0,0.3c0,0,0,0.1,0,0.2c0,0.1,0,0.3-0.1,0.4c0,0.2,0,0.3-0.1,0.4
		c0,0.1,0,0.2,0,0.2c0,0,0,0.1,0,0.3c0,0.2,0,0.3,0,0.5c0,0.2,0,0.4-0.1,0.6c0,0.2,0,0.3,0,0.4c0,0,0,0.1,0,0.1c0,0.1,0,0.2,0,0.2
		c0,0.1,0,0.2,0,0.2c0,0.1,0,0.1,0,0.1c0,0,0,0,0,0.1c0,0.1,0,0.1,0,0.2c0,0.1,0,0.1,0,0.2c0,0.1,0,0.1,0,0.1c0,0,0,0,0,0.1
		c0,0,0,0.1,0,0.1c0,0,0,0.1,0,0.1c0,0,0,0.1,0,0.1c-0.1,0.3-0.1,0.6-0.2,0.8c0,0.3-0.1,0.5-0.1,0.8s-0.1,0.5-0.2,0.7
		c-0.1,0.3-0.1,0.5-0.2,0.8c-0.1,0.2-0.2,0.4-0.3,0.6c-0.1,0.2-0.3,0.4-0.4,0.6c-0.2,0.2-0.3,0.4-0.5,0.6s-0.3,0.3-0.4,0.4
		c-0.1,0.2-0.2,0.3-0.4,0.4c-0.2,0.1-0.4,0.2-0.6,0.3c-0.2,0.1-0.4,0.2-0.6,0.2c-0.2,0.1-0.4,0.1-0.6,0.2c-0.3,0.1-0.5,0.2-0.8,0.2
		c-0.3,0-0.5,0-0.8,0c-0.2,0-0.5,0-0.7,0s-0.5,0-0.7,0c-0.2,0-0.5,0-0.7-0.1c-0.2,0-0.5-0.1-0.7-0.2c-0.5-0.2-0.9-0.5-1.3-0.7
		c-0.4-0.3-0.8-0.6-1.2-0.9c0,0-0.1-0.1-0.2-0.2s-0.2-0.2-0.2-0.3c-0.1-0.1-0.2-0.2-0.3-0.2s-0.2-0.1-0.2-0.2c0,0,0,0,0-0.2
		c-0.1-0.1-0.1-0.3-0.3-0.6c0-0.1-0.1-0.2-0.1-0.4c-0.1-0.2-0.1-0.4-0.2-0.6c-0.1-0.2-0.1-0.4-0.1-0.6S145.1,49.7,145,49.6z"/>
	<path class="st0" d="M170.3,55.1c-0.1,0-0.2-0.1-0.3-0.1c-0.1-0.1-0.2-0.1-0.4-0.2c-0.1-0.1-0.2-0.1-0.4-0.2
		c-0.1-0.1-0.2-0.1-0.3-0.2c0,0,0,0-0.1-0.1c0,0-0.1-0.1-0.1-0.1s-0.1-0.1-0.1-0.1s-0.1-0.1-0.1-0.1c-0.1-0.1-0.2-0.1-0.2-0.2
		s-0.1-0.1-0.1-0.1s-0.1-0.1-0.1-0.1c-0.1,0-0.1-0.1-0.2-0.1c0,0,0,0,0,0.1s0,0.1,0,0.1c0,0,0,0,0,0.1s0,0.1,0,0.1
		c0,0.1,0,0.1,0,0.1c0,0,0,0.1,0,0.1c0,0,0,0.1,0,0.2s0,0.2,0,0.3c0,0.1,0,0.2,0,0.3s0,0.1,0,0.2l-0.1,0.2l-2.7,0.1
		c-0.1,0-0.1-0.1-0.2-0.1s-0.1,0-0.2,0l-0.8-0.1c-0.1,0-0.2,0-0.3,0s-0.2,0-0.3,0c-0.1,0-0.2,0-0.2,0c-0.1,0-0.2-0.1-0.3-0.1
		c0,0-0.1,0-0.1-0.1s-0.1,0-0.1-0.1c0,0-0.1-0.1-0.1-0.1c0-0.1-0.1-0.1-0.1-0.1c-0.1-0.3-0.1-0.5-0.1-0.7s0-0.5,0-0.7
		c0,0,0-0.1,0-0.2s0-0.1,0-0.2s0-0.1,0-0.2c0-0.1,0-0.1,0-0.1l0.2-5.6v-0.1c0-0.5,0.1-1.1,0.1-1.6c0-0.5,0.1-1.1,0.1-1.6
		c0-0.1,0-0.2,0-0.4c0-0.2,0-0.4,0-0.7s0-0.5,0-0.7c0-0.2,0-0.3,0-0.4c0-0.4,0-0.9,0-1.4s0-0.9-0.1-1.4c0,0,0-0.1,0-0.1
		c0-0.1,0-0.1,0-0.2c0-0.1,0-0.1,0-0.2s0-0.1,0-0.1c0-0.1,0-0.4,0-0.6c0-0.3,0-0.6,0-0.9c0-0.3,0-0.6,0-0.9c0-0.3,0-0.5,0-0.6
		c0-0.1,0.1-0.1,0.1-0.1c0,0,0.1,0,0.2,0c0.1,0,0.2,0,0.3,0c0.1,0,0.2,0,0.3,0c0.2,0,0.4,0,0.6-0.1s0.4-0.1,0.6-0.1
		c0.3,0,0.6-0.1,0.8-0.1c0.3,0,0.5,0,0.8-0.1h0.2c0,0,0.1,0,0.1,0c0,0,0.1,0,0.2,0c0.1,0,0.2,0,0.2,0c0,0,0,0,0.1,0
		c0.1,0,0.1,0,0.2,0c0.1,0,0.1,0,0.2,0c0,0,0.1,0,0.1,0c0.1,0,0.1,0.1,0.2,0.2c0,0.1,0.1,0.3,0.1,0.4c0,0.2,0,0.3,0,0.4
		c0,0.1,0,0.2,0,0.3v0.1c0,0,0,0.1,0,0.1l-0.2,3.1l-0.4,1.8c0.2-0.1,0.3-0.3,0.5-0.4c0.2-0.2,0.3-0.4,0.5-0.5
		c0.2-0.2,0.4-0.3,0.7-0.5s0.5-0.2,0.8-0.3c0.4-0.1,0.7-0.2,1-0.2s0.7-0.1,1.1-0.1c0.6,0,1.3,0.1,1.9,0.3s1.3,0.5,1.9,0.8
		c0.1,0.1,0.2,0.1,0.3,0.3c0.1,0.1,0.3,0.2,0.4,0.4c0.2,0.1,0.3,0.2,0.4,0.4c0.1,0.1,0.2,0.2,0.3,0.2c0.2,0.2,0.4,0.4,0.5,0.5
		s0.3,0.3,0.4,0.5c0.1,0.2,0.3,0.4,0.4,0.6c0.1,0.2,0.2,0.4,0.3,0.6c0.1,0.1,0.1,0.3,0.2,0.5c0.1,0.2,0.1,0.4,0.2,0.6
		s0.1,0.4,0.1,0.6s0,0.4,0.1,0.6c0,0.2,0,0.4,0,0.5c0,0.2,0,0.3,0,0.4c0,0.1,0,0.3-0.1,0.4c0,0.1,0,0.3-0.1,0.5
		c-0.2,1.2-0.5,2.3-1,3.4c-0.5,1-1.3,2-2.2,2.7c-0.2,0.2-0.5,0.4-0.7,0.5c-0.2,0.1-0.4,0.3-0.7,0.4s-0.5,0.2-0.7,0.3
		s-0.5,0.1-0.8,0.2c0,0,0,0-0.1,0c-0.1,0-0.1,0-0.1,0c0,0-0.1,0-0.2,0c-0.1,0-0.1,0-0.1,0c-0.1,0-0.2,0-0.3,0s-0.3,0-0.5,0
		c-0.2,0-0.4,0-0.5,0S170.4,55.1,170.3,55.1z M167.4,47.9c0,0,0,0.1,0,0.2c0,0.1,0,0.1,0.1,0.2c0.1,0.3,0.2,0.5,0.3,0.7
		c0.1,0.2,0.2,0.4,0.4,0.6c0.1,0.2,0.3,0.3,0.5,0.5c0.2,0.2,0.4,0.3,0.6,0.5c0.2,0.1,0.4,0.2,0.6,0.3c0.2,0.1,0.4,0.2,0.6,0.2
		c0,0,0.1,0,0.2,0c0.1,0,0.2,0,0.3,0c0,0,0,0,0.1,0s0.1,0,0.2-0.1c0.1,0,0.2-0.1,0.3-0.1s0.2,0,0.2-0.1c0.3-0.2,0.6-0.4,0.8-0.5
		c0.2-0.2,0.4-0.4,0.6-0.7c0,0,0.1-0.1,0.1-0.2c0.1-0.1,0.1-0.2,0.2-0.3c0.1-0.1,0.1-0.2,0.2-0.3c0-0.1,0.1-0.2,0.1-0.2
		c0,0,0-0.1,0.1-0.2s0.1-0.2,0.1-0.3c0-0.1,0.1-0.2,0.1-0.3c0-0.1,0-0.2,0-0.2c0,0,0-0.1,0-0.1s0-0.2,0-0.3c0-0.1,0-0.2,0-0.4
		c0-0.1,0-0.2,0-0.3c0,0,0,0,0,0v-0.1v-0.1c0,0,0-0.1,0-0.2c0-0.1,0-0.1,0-0.2c0-0.1,0-0.1,0-0.2s0-0.1,0-0.1c0,0,0,0,0-0.1
		c0,0,0,0-0.1-0.1c0,0,0,0-0.1,0s-0.1,0-0.1-0.1c0,0-0.1-0.1-0.1-0.1c0,0,0,0-0.1-0.1c0,0,0-0.1,0-0.1s0-0.1,0-0.1l0,0c0,0,0,0,0,0
		c0,0,0,0,0,0c0,0-0.1-0.1-0.2-0.2c-0.1-0.1-0.1-0.1-0.2-0.2c0-0.1,0-0.2-0.1-0.2c-0.1-0.1-0.2-0.1-0.2-0.1
		c-0.3-0.2-0.6-0.4-0.8-0.5c-0.2-0.1-0.5-0.2-0.7-0.3s-0.5-0.1-0.8-0.1s-0.7,0.1-1.1,0.2c-0.4,0.2-0.7,0.4-1,0.8
		c-0.3,0.3-0.5,0.7-0.6,1.1c-0.2,0.4-0.3,0.9-0.3,1.3C167.4,47.1,167.4,47.5,167.4,47.9L167.4,47.9z"/>
	<path class="st0" d="M181.6,36.3c0-0.1,0-0.2,0-0.3c0-0.1,0-0.2,0.1-0.4c0.1-0.2,0.2-0.3,0.2-0.5c0.1-0.2,0.2-0.3,0.3-0.4
		c0,0,0.1-0.1,0.2-0.1c0.1-0.1,0.1-0.1,0.2-0.2s0.1-0.1,0.2-0.1c0.1,0,0.1-0.1,0.1-0.1c0.1-0.1,0.2-0.1,0.3-0.2c0.1,0,0.2,0,0.3,0
		c0.1,0,0.2,0,0.3,0c0.1,0,0.2,0,0.3,0c0.1,0,0.2,0,0.3,0.1c0.1,0,0.2,0.1,0.3,0.1c0.1,0,0.2,0.1,0.3,0.1s0.2,0.1,0.3,0.2
		c0.3,0.2,0.6,0.5,0.8,0.8s0.4,0.7,0.4,1.1c0,0.3,0,0.5,0,0.6c0,0.2-0.1,0.3-0.1,0.5c-0.1,0.1-0.1,0.3-0.3,0.4
		c-0.1,0.1-0.3,0.3-0.5,0.4c-0.2,0.2-0.4,0.3-0.6,0.4c-0.3,0.1-0.5,0.2-0.7,0.2c0,0-0.1,0-0.1,0c-0.1,0-0.1,0-0.2,0
		c-0.1,0-0.1,0-0.2,0c-0.1,0-0.1,0-0.1,0c0,0-0.1,0-0.2,0s-0.1,0-0.2-0.1s-0.1,0-0.2-0.1c-0.1,0-0.1,0-0.1,0c0,0-0.1,0-0.1-0.1
		c-0.1,0-0.1-0.1-0.2-0.1c-0.1,0-0.1-0.1-0.2-0.1s-0.1,0-0.1-0.1c-0.2-0.1-0.3-0.3-0.4-0.4c-0.1-0.1-0.2-0.3-0.3-0.5
		c-0.1-0.2-0.1-0.3-0.1-0.5C181.6,36.8,181.6,36.6,181.6,36.3z M181.9,45.5c0-0.1,0-0.2,0-0.4s0-0.5,0-0.8s0-0.6,0-0.9s0-0.5,0-0.7
		c0,0,0-0.1,0-0.1c0-0.1,0-0.1,0-0.2s0-0.1,0-0.2c0-0.1,0-0.1,0-0.1v-1.5c0-0.1,0.1-0.1,0.3-0.2c0.1,0,0.2-0.1,0.3-0.1h3.4
		c0.1,0,0.1,0,0.2,0s0.1,0,0.1,0.1s0.1,0.1,0.1,0.2c0,0.1,0,0.3,0,0.5c0,0,0,0.1,0,0.1c0,0.1,0,0.1,0,0.2s0,0.1,0,0.2
		c0,0.1,0,0.1,0,0.1c0,0.1,0,0.3,0,0.6c0,0.3,0,0.6,0,0.9s0,0.6,0,0.9c0,0.3,0,0.5,0,0.6c0,0.1,0,0.2,0,0.4c0,0.2,0,0.5,0.1,0.7
		c0,0.3,0,0.5,0.1,0.7c0,0.2,0,0.4,0,0.4c0,0.1,0,0.2,0,0.4c0,0.2,0,0.4,0,0.7c0,0.3,0,0.6,0,0.9c0,0.3,0,0.6,0,0.9
		c0,0.3,0,0.5,0,0.7s0,0.3,0,0.4c0,0.1,0,0.3,0,0.6c0,0.3,0,0.5,0,0.8s0,0.6,0,0.8c0,0.3,0,0.4,0,0.6v0.2c0,0.3,0,0.6-0.1,0.7
		c-0.1,0.2-0.2,0.2-0.5,0.2l-3.8,0c-0.2,0-0.3-0.1-0.4-0.2c-0.1-0.1-0.1-0.2-0.1-0.4c0-0.2,0-0.4,0-0.6s0-0.5,0-0.7
		c0-0.2,0-0.4,0-0.6c0-0.2,0-0.4,0-0.6c0-0.2,0-0.4,0-0.6c0-0.2,0-0.4,0-0.6c0-0.5,0-0.9-0.1-1.3c0-0.4,0-0.8,0-1.2s0-0.8,0-1.2
		C181.9,46.4,181.9,46,181.9,45.5z"/>
	<path class="st0" d="M191.3,55.3l-0.7-0.1c-0.1,0-0.1,0-0.1,0c0,0,0,0,0-0.1c0-0.1,0-0.2,0-0.2s0-0.2,0-0.2c0-0.1,0-0.2-0.1-0.2
		c0-0.1-0.1-0.1-0.1-0.2c0,0,0-0.1,0-0.1s0-0.1,0.1-0.1c0-0.1,0-0.4,0-0.8s0-0.9,0-1.4c0-0.6,0-1.2-0.1-1.8c0-0.7,0-1.3-0.1-2
		c0-0.7,0-1.3-0.1-1.9c0-0.6,0-1.1,0-1.5c0-0.1,0-0.2,0-0.3c0-0.1,0-0.3-0.1-0.4c0-0.1,0-0.3-0.1-0.4c0-0.1,0-0.2,0-0.3
		c0,0,0-0.1,0-0.1s0-0.1,0-0.1c0,0-0.1,0-0.1-0.1s0-0.1,0-0.1l0-0.1l0.1-0.1c0-0.2,0-0.4,0-0.5c0-0.1,0-0.3,0-0.5c0,0,0-0.1,0-0.1
		c0,0,0-0.1,0-0.2c0-0.1,0-0.1,0-0.2c0,0,0-0.1,0-0.1c0-0.1,0-0.1,0-0.1s0-0.1,0-0.1c0-0.1,0-0.1,0-0.1c0,0,0,0,0-0.1s0-0.1,0-0.2
		s0-0.1,0-0.2c0,0,0-0.1,0-0.1l0,0c0,0,0,0,0,0c0.3,0,0.5-0.1,0.8-0.1c0.3-0.1,0.5-0.1,0.8-0.1c0.3,0,0.6,0,0.9,0
		c0.3,0,0.6,0.1,0.9,0.1c0,0,0.1,0,0.2,0s0.2,0,0.2,0s0.1,0,0.2,0.1c0.1,0,0.1,0.1,0.1,0.2c0,0.1,0,0.2,0,0.3c0,0.1,0,0.2,0,0.3v0
		c0,0,0,0,0,0c0,0,0,0,0,0c0.1,0,0.1-0.1,0.2-0.1c0.1,0,0.2-0.1,0.3-0.1c0.1,0,0.2-0.1,0.3-0.1c0.1,0,0.2-0.1,0.2-0.1
		c0,0,0.1,0,0.1-0.1s0.1-0.1,0.2-0.1c0,0,0.1,0,0.1,0s0.1,0,0.1-0.1c0.1,0,0.2-0.1,0.3-0.1c0.1,0,0.2-0.1,0.3-0.1s0.2-0.1,0.3-0.1
		c0.1,0,0.2-0.1,0.2-0.1c0.2-0.1,0.4-0.1,0.6-0.1c0.2,0,0.4,0,0.6,0c0.4,0,0.7,0,1.1,0.1c0.4,0.1,0.7,0.2,1.1,0.3
		c0.3,0.1,0.7,0.3,0.9,0.5c0.3,0.2,0.5,0.4,0.7,0.5c0.1,0.1,0.1,0.1,0.2,0.2c0.1,0.1,0.1,0.2,0.2,0.3c0.1,0.1,0.1,0.2,0.2,0.3
		c0,0.1,0.1,0.2,0.1,0.3c0,0,0,0.1-0.1,0.2c0,0.1-0.1,0.2-0.2,0.2s-0.1,0.2-0.2,0.2c-0.1,0.1-0.1,0.1-0.2,0.1c0,0,0,0-0.1,0
		c0,0-0.1,0-0.1,0.1s-0.1,0-0.1,0.1c0,0-0.1,0-0.1,0c0,0-0.1,0.1-0.1,0.1c-0.1,0-0.1,0.1-0.2,0.1c-0.1,0-0.1,0.1-0.2,0.1
		c-0.1,0-0.1,0.1-0.1,0.1c-0.1,0.1-0.3,0.2-0.4,0.3s-0.3,0.2-0.4,0.3c-0.1,0.1-0.3,0.2-0.4,0.3s-0.3,0.1-0.5,0.1h-0.2c0,0,0,0-0.1,0
		c0,0-0.1,0-0.1,0c-0.3-0.2-0.7-0.3-1-0.5c-0.4-0.1-0.7-0.2-1.1-0.2c-0.3,0-0.5,0.1-0.7,0.3c-0.2,0.2-0.3,0.4-0.5,0.6
		c0,0-0.1,0.1-0.1,0.2c-0.1,0.1-0.1,0.1-0.1,0.2c0,0,0,0.1-0.1,0.2c0,0.1-0.1,0.2-0.2,0.2c-0.1,0.1-0.1,0.2-0.2,0.3
		c-0.1,0.1-0.1,0.2-0.1,0.2c-0.1,0.2-0.1,0.4-0.1,0.6c0,0.2,0,0.4,0,0.6c-0.1,0.8-0.2,1.5-0.2,2.2c0,0.7,0.1,1.3,0.1,1.9
		c0,0.4,0.1,0.9,0.1,1.3c0.1,0.4,0.1,0.8,0.1,1.3c0,0,0,0.1,0,0.3s0,0.3,0,0.4c0,0.1,0,0.3,0,0.4c0,0.1,0,0.2,0,0.3c0,0,0,0,0,0
		s0,0,0,0l0,0h0h0c0,0,0,0-0.1,0s-0.1,0-0.1,0L191.3,55.3z"/>
	<path class="st0" d="M212.4,40.1C212.4,40.1,212.4,40.1,212.4,40.1c0-0.1,0-0.1,0-0.1c0,0,0,0,0-0.1c0,0,0.1-0.1,0.2-0.1
		c0.1,0,0.2-0.1,0.2-0.1h0.1c0.1,0,0.1,0,0.2,0s0.1,0,0.2,0h0.1c0.6,0,1.1-0.1,1.7-0.1c0.6,0,1.1,0,1.7,0c0.2,0,0.4,0.1,0.5,0.2
		c0.1,0.1,0.3,0.3,0.3,0.4c0,0.1,0.1,0.1,0.1,0.2c0.1,0.1,0.1,0.2,0.2,0.3c0.1,0.1,0.1,0.2,0.1,0.3s0.1,0.1,0.1,0.1c0,0,0,0,0.1,0.1
		s0,0.1,0,0.1c0.1,0.3,0.2,0.5,0.3,0.8c0.1,0.3,0.2,0.5,0.4,0.8c0.1,0.1,0.1,0.3,0.2,0.4c0.1,0.1,0.1,0.3,0.2,0.4c0,0,0,0.1,0,0.1
		c0,0.1,0,0.1,0,0.1c0,0,0,0,0.1,0.1c0,0,0.1,0.1,0.1,0.1c0,0,0.1,0.1,0.1,0.1s0,0.1,0.1,0.1c0,0,0,0.1,0,0.1c0,0.1,0,0.1,0,0.1
		c0.1,0.3,0.3,0.7,0.4,1s0.3,0.6,0.5,0.9c0,0,0,0.1,0.1,0.1c0.1,0.1,0.1,0.1,0.1,0.1c0,0,0,0,0,0.1c0,0,0,0.1,0,0.1h0h0.1
		c0.2-0.4,0.4-0.9,0.6-1.3s0.4-0.9,0.6-1.3c0-0.1,0.1-0.2,0.2-0.3c0.1-0.1,0.2-0.3,0.3-0.5c0.1-0.2,0.2-0.3,0.3-0.5
		c0.1-0.1,0.1-0.2,0.2-0.3c0.2-0.4,0.4-0.8,0.6-1.2s0.4-0.8,0.6-1.2c0-0.1,0.1-0.2,0.1-0.3c0-0.1,0.1-0.2,0.1-0.3s0.1-0.2,0.2-0.3
		s0.1-0.1,0.2-0.1c0.2,0,0.5,0,0.7,0.1s0.5,0.1,0.7,0.1h2.6c0.2,0,0.4,0.1,0.4,0.3c0,0.1,0.1,0.3,0,0.5l-0.1,0.4
		c0,0.1-0.1,0.2-0.1,0.4c-0.1,0.2-0.1,0.4-0.2,0.5c-0.1,0.2-0.1,0.4-0.2,0.6c-0.1,0.2-0.1,0.3-0.1,0.4c0,0,0,0.1,0,0.1
		c0,0.1,0,0.1-0.1,0.2c0,0.1-0.1,0.1-0.1,0.2s0,0.1-0.1,0.2c-0.1,0.3-0.3,0.6-0.4,0.9c-0.1,0.3-0.2,0.6-0.4,0.9c0,0-0.1,0.1-0.1,0.2
		c-0.1,0.1-0.1,0.3-0.2,0.4s-0.2,0.3-0.3,0.5s-0.2,0.4-0.3,0.5s-0.2,0.3-0.2,0.4c-0.1,0.1-0.1,0.2-0.1,0.2c0,0,0,0.1-0.1,0.1
		c0,0.1-0.1,0.1-0.1,0.2c0,0.1-0.1,0.1-0.1,0.2c0,0.1,0,0.1-0.1,0.1c0,0-0.1,0.1-0.1,0.2c-0.1,0.1-0.1,0.2-0.2,0.4
		c-0.1,0.1-0.1,0.3-0.2,0.4c-0.1,0.1-0.1,0.2-0.1,0.2c0,0,0,0,0,0.1c0,0,0,0.1,0,0.2c0,0.1,0,0.1,0,0.2c0,0.1,0,0.1,0,0.1
		c0,0,0,0-0.1,0.1s-0.1,0.1-0.1,0.1c-0.1,0.2-0.3,0.4-0.4,0.6c-0.1,0.2-0.2,0.4-0.3,0.7c-0.1,0.2-0.2,0.4-0.3,0.7
		c-0.1,0.2-0.2,0.5-0.3,0.7c0,0.1-0.1,0.2-0.2,0.4c-0.1,0.2-0.2,0.4-0.3,0.6s-0.2,0.4-0.3,0.6c-0.1,0.2-0.2,0.3-0.2,0.3
		c0,0.1-0.1,0.2-0.1,0.3c0,0.1-0.1,0.2-0.2,0.3c-0.4-0.1-0.7-0.1-1.1-0.1c-0.4,0-0.7,0-1.1,0c-0.2,0-0.3,0-0.4,0
		c-0.1,0-0.2,0-0.4,0.1c0,0,0,0-0.1,0c0,0-0.1,0-0.1,0h-0.1h-0.1c-0.1-0.2-0.2-0.4-0.3-0.6c-0.1-0.2-0.2-0.4-0.3-0.6
		c0,0,0-0.1,0-0.1c0-0.1,0-0.1-0.1-0.1c0,0,0,0,0-0.1c0,0,0-0.1,0-0.1c-0.1-0.2-0.3-0.5-0.5-0.7c-0.2-0.3-0.3-0.5-0.4-0.8
		c0,0-0.1-0.2-0.1-0.3s-0.2-0.4-0.3-0.6c-0.1-0.2-0.2-0.4-0.3-0.6s-0.1-0.3-0.1-0.3c-0.1-0.2-0.2-0.4-0.3-0.6s-0.2-0.4-0.3-0.6
		c-0.1-0.2-0.2-0.5-0.3-0.7c-0.1-0.2-0.2-0.5-0.3-0.7c-0.1-0.1-0.1-0.3-0.2-0.6c-0.1-0.2-0.2-0.5-0.3-0.7c-0.1-0.2-0.2-0.4-0.3-0.6
		c-0.1-0.2-0.1-0.3-0.1-0.3c0,0,0,0,0-0.1c0-0.1,0-0.1-0.1-0.2c0-0.1-0.1-0.1-0.1-0.2c0-0.1,0-0.1,0-0.1c0-0.2-0.1-0.4-0.2-0.6
		c-0.1-0.3-0.2-0.5-0.3-0.8c-0.1-0.3-0.2-0.5-0.3-0.7c-0.1-0.2-0.1-0.3-0.1-0.4c0,0-0.1-0.1-0.1-0.3c-0.1-0.2-0.2-0.3-0.3-0.5
		c-0.1-0.2-0.2-0.4-0.3-0.5s-0.2-0.3-0.2-0.4c0,0,0,0-0.1-0.1c0,0-0.1-0.1-0.1-0.1c0,0-0.1-0.1-0.1-0.1c0,0,0-0.1-0.1-0.1
		c0,0,0,0,0-0.1C212.4,40.2,212.4,40.2,212.4,40.1C212.4,40.2,212.4,40.2,212.4,40.1z"/>
	<path class="st0" d="M232.3,36.3c0-0.1,0-0.2,0-0.3c0-0.1,0-0.2,0.1-0.4c0.1-0.2,0.2-0.3,0.2-0.5c0.1-0.2,0.2-0.3,0.3-0.4
		c0,0,0.1-0.1,0.2-0.1c0.1-0.1,0.1-0.1,0.2-0.2s0.1-0.1,0.2-0.1c0.1,0,0.1-0.1,0.1-0.1c0.1-0.1,0.2-0.1,0.3-0.2c0.1,0,0.2,0,0.3,0
		c0.1,0,0.2,0,0.3,0c0.1,0,0.2,0,0.3,0c0.1,0,0.2,0,0.3,0.1c0.1,0,0.2,0.1,0.3,0.1c0.1,0,0.2,0.1,0.3,0.1s0.2,0.1,0.3,0.2
		c0.3,0.2,0.6,0.5,0.8,0.8s0.4,0.7,0.4,1.1c0,0.3,0,0.5,0,0.6c0,0.2-0.1,0.3-0.1,0.5c-0.1,0.1-0.1,0.3-0.3,0.4
		c-0.1,0.1-0.3,0.3-0.5,0.4c-0.2,0.2-0.4,0.3-0.6,0.4c-0.3,0.1-0.5,0.2-0.7,0.2c0,0-0.1,0-0.1,0c-0.1,0-0.1,0-0.2,0
		c-0.1,0-0.1,0-0.2,0c-0.1,0-0.1,0-0.1,0c0,0-0.1,0-0.2,0s-0.1,0-0.2-0.1s-0.1,0-0.2-0.1c-0.1,0-0.1,0-0.1,0c0,0-0.1,0-0.1-0.1
		c-0.1,0-0.1-0.1-0.2-0.1c-0.1,0-0.1-0.1-0.2-0.1s-0.1,0-0.1-0.1c-0.2-0.1-0.3-0.3-0.4-0.4c-0.1-0.1-0.2-0.3-0.3-0.5
		c-0.1-0.2-0.1-0.3-0.1-0.5C232.3,36.8,232.3,36.6,232.3,36.3z M232.6,45.5c0-0.1,0-0.2,0-0.4s0-0.5,0-0.8s0-0.6,0-0.9s0-0.5,0-0.7
		c0,0,0-0.1,0-0.1c0-0.1,0-0.1,0-0.2s0-0.1,0-0.2c0-0.1,0-0.1,0-0.1v-1.5c0-0.1,0.1-0.1,0.3-0.2c0.1,0,0.2-0.1,0.3-0.1h3.4
		c0.1,0,0.1,0,0.2,0s0.1,0,0.1,0.1s0.1,0.1,0.1,0.2c0,0.1,0,0.3,0,0.5c0,0,0,0.1,0,0.1c0,0.1,0,0.1,0,0.2s0,0.1,0,0.2
		c0,0.1,0,0.1,0,0.1c0,0.1,0,0.3,0,0.6c0,0.3,0,0.6,0,0.9s0,0.6,0,0.9c0,0.3,0,0.5,0,0.6c0,0.1,0,0.2,0,0.4c0,0.2,0,0.5,0.1,0.7
		c0,0.3,0,0.5,0.1,0.7c0,0.2,0,0.4,0,0.4c0,0.1,0,0.2,0,0.4c0,0.2,0,0.4,0,0.7c0,0.3,0,0.6,0,0.9c0,0.3,0,0.6,0,0.9
		c0,0.3,0,0.5,0,0.7s0,0.3,0,0.4c0,0.1,0,0.3,0,0.6c0,0.3,0,0.5,0,0.8s0,0.6,0,0.8c0,0.3,0,0.4,0,0.6v0.2c0,0.3,0,0.6-0.1,0.7
		c-0.1,0.2-0.2,0.2-0.5,0.2l-3.8,0c-0.2,0-0.3-0.1-0.4-0.2c-0.1-0.1-0.1-0.2-0.1-0.4c0-0.2,0-0.4,0-0.6s0-0.5,0-0.7
		c0-0.2,0-0.4,0-0.6c0-0.2,0-0.4,0-0.6c0-0.2,0-0.4,0-0.6c0-0.2,0-0.4,0-0.6c0-0.5,0-0.9-0.1-1.3c0-0.4,0-0.8,0-1.2s0-0.8,0-1.2
		C232.6,46.4,232.6,46,232.6,45.5z"/>
	<path class="st0" d="M240.7,49.5c0-0.1,0-0.1,0-0.2c0-0.1,0-0.1,0-0.2c0-0.2,0-0.5,0-0.7c0-0.2,0-0.5,0-0.7v-0.5
		c0-0.5,0.1-1,0.1-1.5c0.1-0.5,0.1-0.9,0.2-1.4c0.1-0.5,0.2-0.9,0.4-1.3s0.4-0.9,0.6-1.3c0,0,0-0.1,0.1-0.1c0-0.1,0.1-0.1,0.1-0.2
		c0-0.1,0.1-0.1,0.1-0.2c0-0.1,0.1-0.1,0.1-0.1c0,0,0.1-0.1,0.1-0.1c0.1-0.1,0.1-0.1,0.1-0.1c0,0,0.1-0.1,0.2-0.2s0.2-0.2,0.2-0.2
		s0.2-0.2,0.2-0.2c0.1-0.1,0.1-0.1,0.1-0.1c0,0,0,0,0.1-0.1c0,0,0.1-0.1,0.2-0.1c0.1,0,0.1-0.1,0.2-0.1c0.1,0,0.1-0.1,0.1-0.1
		c0,0,0.1,0,0.1-0.1c0.1,0,0.1-0.1,0.2-0.1c0.1,0,0.1-0.1,0.2-0.1s0.1,0,0.1,0c0,0,0.1-0.1,0.3-0.1c0.1-0.1,0.3-0.1,0.4-0.2
		s0.3-0.1,0.4-0.1c0.1,0,0.2-0.1,0.3-0.1c0,0,0.1,0,0.1,0s0.1,0,0.2,0c0.1,0,0.1,0,0.2,0c0.1,0,0.1,0,0.1,0h0.6c0.3,0,0.6,0,0.8,0.1
		c0.2,0,0.5,0.1,0.8,0.2c0.3,0.1,0.6,0.1,0.9,0.2c0.3,0.1,0.6,0.2,0.9,0.4s0.5,0.3,0.8,0.4c0.3,0.1,0.5,0.3,0.7,0.4c0,0,0,0,0-0.1
		s0-0.1,0-0.1c0-0.1,0-0.1,0-0.2s0-0.1,0-0.1v-0.1c0-0.4,0-0.8,0-1.1c0-0.4,0-0.7,0-1.1v-0.5c0-0.1,0-0.2,0-0.4c0-0.2,0-0.3,0-0.5
		c0-0.2,0-0.3,0-0.5c0-0.1,0-0.2,0-0.3c0-0.1,0-0.2,0.1-0.3c0-0.1,0-0.2,0-0.2l0.1-0.1c0.1,0,0.1,0,0.2,0c0.1,0,0.1,0,0.2,0
		s0.1,0,0.1,0c0.3,0,0.5,0,0.7,0c0.2,0,0.4,0,0.7,0c0.2,0,0.4,0,0.5,0c0.2,0,0.3,0,0.5,0c0.2,0,0.3,0,0.5,0c0.2,0,0.3,0,0.5,0.1
		c0.2,0.1,0.3,0.2,0.3,0.3c0,0,0,0.1,0,0.1s0,0.1,0,0.2s0,0.1,0,0.2s0,0.1,0,0.1c0,0,0,0.1,0,0.2c0,0.1,0,0.1,0,0.2s0,0.1,0,0.2
		c0,0.1,0,0.1,0,0.1c0,0.4,0,0.8,0,1.2s0,0.8,0,1.2c0,0.4,0,0.8,0,1.2c0,0.4,0,0.8,0,1.2c0,0.5,0,0.9-0.1,1.5c0,0.5,0,1,0,1.5
		c0,0.1,0,0.2,0,0.4c0,0.2,0,0.5,0,0.7c0,0.3,0,0.5,0,0.7c0,0.2,0,0.4,0,0.4c0,0,0,0,0,0.1c0,0.1,0,0.2,0,0.3c0,0.1,0,0.2,0,0.3
		c0,0.1,0,0.2,0,0.2c0,0.1,0,0.1,0,0.3c0,0.1,0,0.2,0,0.3c0,0.1,0,0.2,0,0.3c0,0.1,0,0.1,0,0.1c0,0,0,0.1,0,0.2c0,0.1,0,0.2,0,0.3
		c0,0.1,0,0.2,0,0.3s0,0.1,0,0.2c0,0,0,0.1,0,0.3c0,0.1,0,0.3,0,0.4c0,0.1,0,0.3,0,0.4c0,0.1,0,0.2,0,0.3c0,0,0,0.1,0,0.3
		c0,0.2,0,0.4,0,0.6c0,0.2,0,0.4,0,0.6c0,0.2,0,0.3,0,0.3c0,0,0,0.1,0,0.1c0,0.1,0,0.2,0,0.3c0,0.1,0,0.2,0,0.3c0,0.1,0,0.2,0,0.2
		c0,0,0,0.1,0,0.2c0,0.1,0,0.3,0,0.4c0,0.1,0,0.3,0,0.4s0,0.2,0,0.2c0,0.2-0.1,0.3-0.3,0.4c-0.2,0.1-0.4,0.1-0.6,0.1
		c-0.2,0-0.4,0-0.6,0c-0.2,0-0.3,0-0.3,0c-0.1,0-0.2,0-0.4,0s-0.2,0-0.4,0.1h-1.5l-0.1-0.1l-0.1-1.2c-0.3,0.3-0.7,0.5-1,0.7
		c-0.4,0.2-0.7,0.3-1.1,0.4c-0.3,0.1-0.7,0.2-0.9,0.2s-0.5,0-0.7,0.1h-0.4c-0.1,0-0.3,0-0.5,0s-0.4,0-0.6,0c-0.2,0-0.4,0-0.6,0
		s-0.3,0-0.3,0c-0.1,0-0.1,0-0.3-0.1s-0.2-0.1-0.4-0.1c-0.1,0-0.3-0.1-0.4-0.1s-0.2-0.1-0.2-0.1c0,0-0.1,0-0.2-0.1s-0.2-0.1-0.3-0.1
		c-0.1,0-0.2-0.1-0.2-0.1c-0.1,0-0.1-0.1-0.2-0.1c0,0-0.1-0.1-0.2-0.1c-0.1-0.1-0.2-0.1-0.3-0.2c-0.1-0.1-0.2-0.1-0.3-0.2
		c-0.1-0.1-0.1-0.1-0.2-0.1c0-0.1-0.1-0.1-0.1-0.2c0,0-0.1-0.1-0.1-0.1s-0.1-0.1-0.1-0.1c-0.2-0.3-0.4-0.5-0.5-0.8
		c-0.1-0.3-0.3-0.5-0.4-0.8c-0.1-0.2-0.2-0.4-0.3-0.6c-0.1-0.2-0.2-0.4-0.2-0.6c0,0,0-0.1,0-0.2c0-0.1,0-0.2-0.1-0.3
		c0-0.1,0-0.2-0.1-0.3c0-0.1,0-0.1,0-0.2c0,0,0-0.1-0.1-0.1C240.7,49.6,240.7,49.6,240.7,49.5L240.7,49.5z M246.2,50
		C246.2,50.1,246.3,50.1,246.2,50c0.1,0.1,0.1,0.2,0.2,0.2c0.1,0.1,0.1,0.1,0.2,0.2c0.1,0.1,0.1,0.1,0.2,0.1c0,0,0.1,0,0.1,0.1
		s0.1,0.1,0.1,0.1c0,0,0.1,0,0.1,0.1c0.1,0,0.1,0.1,0.1,0.1c0,0,0.1,0,0.1,0.1c0.1,0,0.1,0,0.1,0c0.1,0.1,0.3,0.1,0.4,0.1
		c0.1,0,0.2,0,0.4,0c0.4,0,0.8-0.1,1.2-0.2s0.8-0.3,1.2-0.6c0.1-0.1,0.1-0.1,0.2-0.2c0.1-0.1,0.2-0.1,0.2-0.2c0,0,0,0,0.1-0.1
		c0,0,0.1-0.1,0.1-0.2c0.1-0.1,0.1-0.1,0.1-0.2s0.1-0.1,0.1-0.1c0,0,0-0.1,0.1-0.2s0.1-0.2,0.1-0.3s0.1-0.2,0.1-0.2
		c0-0.1,0.1-0.1,0.1-0.2c0-0.1,0-0.1,0.1-0.1c0,0,0-0.1,0-0.2l0-0.2c0-0.1,0.1-0.2,0.1-0.3s0.1-0.4,0.2-0.7c0,0,0-0.1,0-0.2
		c0-0.1,0-0.2,0-0.2c0,0,0-0.1,0-0.2c0-0.1,0-0.2,0-0.3v-0.4c0,0,0-0.1,0-0.1s0-0.1,0-0.2c0-0.1,0-0.2,0-0.2s0-0.1,0-0.2
		c0,0,0,0,0-0.1c0,0,0-0.1,0-0.1c0,0,0,0-0.1-0.1c0,0-0.1-0.1-0.1-0.1c0-0.1-0.1-0.1-0.1-0.2c0,0-0.1-0.1-0.1-0.1
		c-0.2-0.2-0.5-0.4-0.7-0.6s-0.6-0.4-0.9-0.5c0,0-0.1,0-0.1,0c0,0-0.1,0-0.1,0h-1.6c0-0.1-0.1-0.1-0.1-0.1s-0.1,0-0.1,0
		c-0.1,0-0.3,0-0.5,0c-0.2,0-0.3,0.1-0.5,0.2c-0.2,0.1-0.3,0.1-0.5,0.2c-0.1,0.1-0.3,0.2-0.4,0.3c0,0,0,0.1-0.1,0.2
		c-0.1,0.1-0.1,0.2-0.2,0.3s-0.1,0.2-0.2,0.3c-0.1,0.1-0.1,0.2-0.1,0.2c0,0,0,0,0,0.1c0,0,0,0.1,0,0.1c-0.1,0.2-0.3,0.5-0.4,0.7
		s-0.2,0.5-0.2,0.8c0,0,0,0.1,0,0.2c0,0.1,0,0.2,0,0.3c0,0.1,0,0.2,0,0.3c0,0.1,0,0.1,0,0.2c0,0,0,0.1,0,0.2c0,0.1,0,0.1,0,0.2
		c0,0.1,0.1,0.2,0.1,0.3c0,0.1,0.1,0.3,0.1,0.4c0,0.1,0.1,0.3,0.1,0.4c0,0.1,0.1,0.2,0.1,0.2L246.2,50z"/>
	<path class="st0" d="M259.1,47c0-0.3,0.1-0.6,0.2-0.9s0.2-0.6,0.2-0.9c0.1-0.2,0.1-0.4,0.2-0.6s0.1-0.3,0.2-0.5c0,0,0-0.1,0-0.1
		c0-0.1,0-0.2,0.1-0.2c0-0.1,0.1-0.2,0.1-0.2c0-0.1,0-0.1,0-0.1c0.1-0.3,0.2-0.5,0.4-0.8c0.2-0.2,0.3-0.4,0.5-0.7c0,0,0,0,0.1-0.1
		c0-0.1,0.1-0.1,0.2-0.2c0.1-0.1,0.1-0.1,0.2-0.2c0-0.1,0.1-0.1,0.1-0.1c0,0,0,0,0-0.1c0,0,0.1-0.1,0.1-0.1c0,0,0.1-0.1,0.1-0.1
		c0,0,0-0.1,0.1-0.1c0.3-0.3,0.7-0.5,1.1-0.8c0.4-0.2,0.8-0.4,1.3-0.6c0.4-0.2,0.9-0.3,1.3-0.4c0.5-0.1,0.9-0.1,1.3-0.1
		c0.5,0,1,0,1.5,0c0.5,0.1,1,0.2,1.5,0.4c0.4,0.1,0.7,0.3,1,0.4c0.3,0.2,0.5,0.3,0.7,0.4s0.4,0.3,0.5,0.4s0.2,0.2,0.3,0.2
		c0.2,0.2,0.5,0.4,0.7,0.6c0.2,0.2,0.4,0.4,0.5,0.6s0.3,0.5,0.5,0.7c0.1,0.3,0.3,0.5,0.4,0.8c0,0.1,0.1,0.2,0.1,0.4
		c0,0.2,0.1,0.4,0.1,0.6c0,0.2,0.1,0.4,0.1,0.6c0,0.2,0.1,0.3,0.1,0.4c0,0,0,0.1,0,0.1c0,0.1,0,0.1,0,0.2s0,0.2,0,0.2
		c0,0.1,0,0.1,0,0.2c0,0,0,0.1,0,0.2s0,0.2,0,0.3s0,0.2,0,0.2c0,0.1,0,0.1,0,0.1c0,0,0,0.1,0,0.2c0,0.1,0,0.2-0.1,0.2s0,0.2-0.1,0.2
		c0,0.1,0,0.1,0,0.1c-0.2,0.2-0.3,0.3-0.5,0.3c-0.2,0.1-0.4,0.1-0.6,0.1c-0.2,0-0.5,0-0.8,0c-0.3,0-0.7,0-1.1,0.1c0,0-0.1,0-0.2,0
		s-0.3,0-0.4,0c-0.1,0-0.3,0-0.4,0s-0.2,0-0.2,0h-0.1c0,0,0,0-0.1,0c-0.1,0-0.1,0-0.2,0c-0.1,0-0.1,0-0.2,0c0,0-0.1,0-0.1-0.1
		c0,0,0,0-0.1,0c-0.1,0-0.1,0-0.2,0s-0.2,0-0.2,0s-0.1,0-0.2,0c0,0,0,0,0,0h-0.1c-0.2,0-0.4,0-0.7,0c-0.2,0-0.5,0-0.8,0
		c-0.3,0-0.5,0-0.8,0c-0.2,0-0.5,0-0.7,0c-0.3,0-0.5,0-0.8,0c-0.2,0-0.4,0-0.7,0c-0.2,0-0.4,0-0.7,0s-0.5,0-0.8,0c0,0-0.1,0-0.1,0
		s-0.1,0-0.1,0.1c0,0,0,0.1,0,0.2c0,0.1,0,0.1,0,0.2c0.1,0.3,0.1,0.5,0.2,0.6c0,0.1,0.1,0.2,0.1,0.3c0,0.1,0.1,0.1,0.1,0.1
		s0.1,0.1,0.2,0.2c0,0,0,0,0,0.1s0.1,0.1,0.1,0.1s0.1,0.1,0.1,0.1c0,0,0,0,0,0.1c0.3,0.4,0.6,0.7,1,0.9c0.4,0.2,0.9,0.3,1.3,0.3
		c0.1,0,0.2,0,0.3,0c0.1,0,0.2,0,0.2,0c0.2,0,0.3,0,0.3,0c0.1,0,0.1,0,0.2,0s0.1,0,0.2,0c0.1,0,0.1,0,0.3,0c0.1,0,0.3,0,0.5-0.1
		s0.5-0.1,0.8-0.2c0,0,0.1,0,0.1-0.1c0.1,0,0.2-0.1,0.3-0.1c0.1,0,0.2-0.1,0.3-0.1s0.1-0.1,0.2-0.1c0.2-0.1,0.4-0.3,0.6-0.4
		s0.3-0.2,0.5-0.3c0.1-0.1,0.3-0.2,0.4-0.3c0.1-0.1,0.2-0.1,0.4-0.2h0h0c0,0,0,0,0.1,0c0,0,0,0,0,0.1c0.1,0.1,0.2,0.1,0.3,0.2
		c0.1,0.1,0.3,0.2,0.4,0.3c0.1,0.1,0.3,0.2,0.4,0.3c0.1,0.1,0.2,0.2,0.3,0.3c0,0,0.1,0.1,0.2,0.1c0.1,0.1,0.2,0.1,0.3,0.2
		c0.1,0.1,0.2,0.1,0.3,0.2c0.1,0.1,0.1,0.1,0.1,0.1v0c0,0,0,0,0,0c0,0,0,0,0,0c0,0.2,0,0.4-0.2,0.5c-0.1,0.2-0.3,0.3-0.4,0.4
		c-0.4,0.4-0.8,0.8-1.2,1.2c-0.4,0.4-0.9,0.7-1.4,1c-0.2,0.1-0.3,0.1-0.5,0.2s-0.3,0.1-0.5,0.1c-0.2,0.1-0.4,0.1-0.6,0.1
		c-0.2,0-0.4,0-0.6,0.1c-0.2,0-0.4,0-0.6,0s-0.4,0-0.6,0c-0.6,0-1.1,0-1.6-0.1c-0.5-0.1-1.1-0.2-1.6-0.3c-0.2-0.1-0.4-0.1-0.6-0.2
		c-0.2-0.1-0.3-0.2-0.5-0.3c-0.2-0.1-0.3-0.2-0.5-0.3s-0.3-0.2-0.5-0.4c-0.3-0.2-0.6-0.5-0.9-0.7c-0.3-0.2-0.6-0.5-0.8-0.8
		c0,0,0-0.1-0.1-0.1c-0.1-0.1-0.1-0.1-0.1-0.2c0,0,0-0.1-0.1-0.1c0-0.1-0.1-0.1-0.2-0.2c-0.1-0.1-0.1-0.1-0.2-0.2
		c-0.1-0.1-0.1-0.1-0.1-0.1c0,0,0-0.1-0.1-0.2c-0.1-0.1-0.1-0.2-0.2-0.3c-0.1-0.1-0.1-0.3-0.2-0.4c-0.1-0.1-0.1-0.2-0.1-0.3
		c0,0,0,0,0-0.1c0,0,0-0.1,0-0.1c-0.1-0.5-0.2-1-0.2-1.5C259.1,48.1,259.1,47.6,259.1,47L259.1,47z M267.6,43.1
		c-0.4,0-0.8,0.1-1.1,0.2c-0.4,0.1-0.7,0.3-1,0.5c-0.1,0.1-0.2,0.2-0.4,0.3c-0.1,0.1-0.3,0.2-0.4,0.4c-0.1,0.1-0.2,0.3-0.3,0.4
		c-0.1,0.1-0.1,0.3-0.1,0.4c0.2,0,0.4,0,0.6-0.1c0.2,0,0.4-0.1,0.6-0.1h0c0,0,0.1,0,0.1,0c0.1,0,0.2,0,0.3,0c0.1,0,0.2,0,0.3,0
		c0.1,0,0.1,0,0.2,0c0,0,0.1,0,0.2,0c0.1,0,0.2,0,0.3,0s0.2,0,0.4,0s0.2,0,0.3,0s0.2,0,0.3,0s0.3,0,0.4,0s0.2,0,0.4,0s0.2,0,0.2,0
		c0.1,0,0.2,0,0.4,0c0.2,0,0.4,0,0.7,0s0.5,0,0.7,0c0.2,0,0.4,0,0.4,0c0,0,0,0,0,0l0,0c0,0,0,0,0-0.1c0,0,0-0.1,0-0.1
		c0,0,0-0.1-0.1-0.1c0-0.1-0.1-0.1-0.1-0.2c0-0.1-0.1-0.1-0.1-0.1c0,0,0-0.1,0-0.1c-0.4-0.4-0.8-0.8-1.3-1
		C268.7,43.2,268.2,43.1,267.6,43.1z"/>
	<path class="st0" d="M283.6,54.9c-0.1,0-0.1,0-0.3-0.1c-0.1,0-0.3,0-0.4-0.1c0,0,0,0-0.1,0c-0.1,0-0.1,0-0.2-0.1
		c-0.1,0-0.2-0.1-0.3-0.1c-0.1,0-0.2-0.1-0.3-0.2c0,0,0,0-0.1,0c-0.1,0-0.1,0-0.2-0.1c-0.1,0-0.1-0.1-0.2-0.1c-0.1,0-0.1,0-0.1,0
		c-0.1-0.1-0.3-0.1-0.4-0.2s-0.3-0.2-0.4-0.3c-0.1-0.1-0.2-0.2-0.3-0.3c-0.1-0.1-0.2-0.2-0.3-0.3c-0.4-0.4-0.7-0.7-1-1.1
		c-0.3-0.4-0.6-0.8-0.8-1.3c-0.2-0.4-0.3-0.7-0.4-1.1c-0.1-0.3-0.2-0.6-0.2-0.9c-0.1-0.3-0.1-0.6-0.1-1c0-0.3,0-0.7,0-1.1v-0.9
		c0.1-0.5,0.2-0.9,0.4-1.3c0.1-0.4,0.3-0.8,0.5-1.2c0.2-0.4,0.4-0.7,0.7-1.1c0.3-0.3,0.6-0.7,0.9-1c0.2-0.2,0.5-0.4,0.8-0.6
		c0.3-0.2,0.5-0.3,0.9-0.5c0,0,0.1,0,0.1,0s0.1,0,0.1-0.1c0.1,0,0.1,0,0.1-0.1s0.1,0,0.1,0c0,0,0.1,0,0.2,0c0.1,0,0.2,0,0.2,0
		c0,0,0.1,0,0.1-0.1c0.1-0.1,0.1-0.1,0.1-0.1c0,0,0,0,0.1,0c0,0,0.1,0,0.1,0s0.1,0,0.1,0c0,0,0.1,0,0.1,0c0,0,0.1,0,0.2-0.1
		c0.1,0,0.2-0.1,0.4-0.1c0.1,0,0.2-0.1,0.4-0.1c0.1,0,0.2,0,0.2,0c0.1,0,0.2,0,0.3-0.1c0.2,0,0.3,0,0.5-0.1c0.2,0,0.4,0,0.5,0
		c0.2,0,0.3,0,0.4,0h0.1c0,0,0.1,0,0.1,0c0,0,0.1,0,0.1,0c0.2,0,0.3,0,0.5,0s0.3,0,0.5,0.1c0.2,0.1,0.5,0.1,0.7,0.2
		c0.2,0,0.5,0.1,0.7,0.1c0.1,0,0.2,0.1,0.3,0.1c0.1,0.1,0.3,0.1,0.4,0.2c0.1,0.1,0.3,0.2,0.4,0.2c0.1,0.1,0.2,0.1,0.3,0.2
		c0,0,0.1,0.1,0.2,0.2c0.1,0.1,0.2,0.2,0.3,0.3s0.2,0.2,0.3,0.4c0.1,0.1,0.2,0.2,0.3,0.3c0,0,0,0.1,0.1,0.1c0,0.1,0.1,0.1,0.1,0.2
		c0.1,0.1,0.1,0.2,0.2,0.2c0.1,0.1,0.1,0.1,0.1,0.2c0.3,0.4,0.5,0.9,0.7,1.3c0.2,0.4,0.3,0.9,0.5,1.3c0.1,0.4,0.2,0.9,0.2,1.4
		c0.1,0.5,0.1,1,0.1,1.5v0c0,0.1,0,0.3-0.1,0.6c0,0.2,0,0.5-0.1,0.7c0,0.2,0,0.4-0.1,0.6c0,0.2,0,0.3,0,0.3
		c-0.1,0.4-0.1,0.8-0.3,1.2c-0.1,0.4-0.3,0.7-0.4,1.1c-0.2,0.2-0.3,0.4-0.4,0.5s-0.2,0.3-0.3,0.4c-0.1,0.1-0.2,0.3-0.3,0.4
		s-0.3,0.3-0.5,0.6c-0.3,0.2-0.6,0.4-0.9,0.6c-0.3,0.2-0.6,0.3-1,0.5c-0.3,0.1-0.7,0.2-1,0.3s-0.7,0.1-1,0.1c0,0-0.1,0-0.2,0
		s-0.2,0-0.3,0c-0.1,0-0.2,0-0.3,0c-0.1,0-0.1,0-0.2,0c0,0,0,0-0.1,0c0,0-0.1,0-0.1,0c0,0-0.1,0-0.1,0s-0.1,0-0.2,0
		c-0.1,0-0.1,0-0.2,0c-0.1,0-0.1,0-0.1,0c0,0-0.1,0-0.2,0s-0.2,0-0.4,0c-0.1,0-0.3,0-0.4-0.1c-0.1,0-0.2,0-0.2,0h-0.1L283.6,54.9z
		 M282.1,46.7c0,0.2,0,0.4,0.1,0.7c0,0.2,0.1,0.4,0.2,0.6c0,0,0,0.1,0.1,0.1s0.1,0.1,0.1,0.1c0,0.1,0.1,0.2,0.1,0.3s0.1,0.2,0.1,0.4
		c0,0.1,0.1,0.2,0.1,0.3c0,0.1,0.1,0.2,0.2,0.3c0,0,0.1,0.1,0.1,0.1c0.1,0.1,0.1,0.1,0.2,0.2c0.1,0.1,0.1,0.1,0.2,0.2
		c0,0.1,0.1,0.1,0.1,0.1c0,0,0,0,0.1,0.1c0,0,0.1,0.1,0.2,0.1c0.1,0,0.1,0.1,0.2,0.1c0.1,0,0.1,0.1,0.2,0.1l0.1,0.1
		c0,0,0.1,0.1,0.2,0.1c0.1,0.1,0.1,0.1,0.1,0.1c0,0,0.1,0,0.1,0.1c0.1,0,0.1,0,0.2,0c0.2,0.1,0.3,0.1,0.4,0.1c0.1,0,0.2,0,0.2,0
		c0.1,0,0.1,0,0.2,0c0.1,0,0.2,0,0.3,0c0,0,0,0,0.1,0c0,0,0.1,0,0.2,0c0.1,0,0.1,0,0.2,0c0.1,0,0.1,0,0.1,0c0.4-0.1,0.7-0.2,1.1-0.4
		c0.3-0.2,0.6-0.4,0.9-0.7c0.2-0.3,0.4-0.6,0.6-1c0.1-0.4,0.2-0.7,0.2-1.1c0,0,0-0.1,0-0.3c0-0.2,0-0.5,0.1-0.9c0-0.2,0-0.4-0.1-0.6
		c-0.1-0.2-0.2-0.4-0.2-0.6c-0.1-0.3-0.3-0.6-0.5-0.8s-0.5-0.4-0.8-0.6c-0.2-0.1-0.3-0.2-0.5-0.3c-0.1-0.1-0.3-0.1-0.4-0.2
		c-0.1,0-0.3-0.1-0.5-0.1s-0.3,0-0.5,0c-0.2,0-0.3,0-0.5,0c-0.1,0-0.3,0-0.5,0.1c-0.2,0-0.4,0.1-0.6,0.2c-0.2,0.1-0.4,0.2-0.6,0.3
		c-0.2,0.1-0.4,0.2-0.5,0.4c-0.2,0.2-0.3,0.3-0.3,0.5l-0.2,0.6c0,0.1-0.1,0.2-0.1,0.3s-0.1,0.3-0.1,0.4c0,0.1,0,0.3,0,0.4
		S282,46.6,282.1,46.7z"/>
</g>
<g>
	<g>
		<path class="st16" d="M104.4,25.8C104.4,25.8,104.4,25.8,104.4,25.8c-1.8-2.4-4.7-2.1-5.6-2c-0.8,0.1-11.2,0.3-22.1,0.4
			c-11.3,0.1-13.9,0-14.4,0c-0.2,0-0.4,0-0.6-0.1c0,0,0,0,0,0c-0.5-0.1-0.9-0.1-1.5-0.1c0,0-0.1,0-0.1,0c-2.3,0-5.1,1.1-5.2,6.2
			c0,2.1,0.1,10.6,0.3,18.1l0,0.7c0.1,5.4,0.2,10.4,0.2,11.4c0,0.7,0,1.3,0.2,1.8c0.3,1.4,0.9,2.4,1.9,3.2c0.9,0.7,2,1.1,3.3,1.1
			c0.5,0,1,0,1.5-0.1c1.5-0.2,17.3,0.4,25.9,0.7l0.2,0c5.2,0.2,9.6,0.4,10.9,0.4c1.6,0,3-0.1,4.2-1.2c1.1-1,1.6-2.4,1.7-4.8
			c0.3-6.4,0.6-20.5,0.8-26.4l0-0.2c0-1.3,0-2.2,0.1-2.3C106,29.3,105.5,27.2,104.4,25.8z M99,61C99,61.1,99,61.1,99,61
			c0,0.2,0,0.3,0,0.4c-0.8,0-3-0.1-5.9-0.2C95.4,61.2,97.3,61.1,99,61z M99.7,29.7c0.1,0.4,0.2,1.1,0.1,2.5c0,0.1,0,1-0.1,2.5
			C99.7,38.7,99.5,48,99.3,55c-7.5,0.4-19.5,0.2-29.2,0.1c-0.1-0.1-0.2-0.2-0.3-0.3c-0.9-0.8-2-1.2-3.2-1.1c-1.2,0.1-2.3,0.5-3,1.3
			c-0.8,0-1.6,0-2.3,0c0-1.8-0.1-3.9-0.1-6.1l0-0.5c-0.1-6.8-0.3-16.1-0.3-18.1c0-0.1,0-0.1,0-0.2c0,0,0.1,0,0.1,0
			c0.3,0,0.6,0.1,0.9,0.1c1.8,0.1,9.1,0.1,15,0c9-0.1,21.4-0.3,22.6-0.5C99.6,29.7,99.7,29.7,99.7,29.7z"/>
		<path class="st16" d="M72.5,34.8c-1,1.7-1.2,5.7-1.3,8.8c0,2.1,0.1,7.3,1.2,9.2c0,0,0,0.1,0.1,0.1c0.1,0.2,0.3,0.4,0.5,0.6
			c0.6,0.6,1.6,0.9,2.5,0.9c0.6,0,1.3-0.2,1.8-0.4c1.3-0.7,2.5-1.3,3.7-1.9c3.4-1.7,6.1-3,10-6.1c0.2-0.2,0.5-0.4,0.6-0.7
			c0.5-0.7,0.6-1.6,0.3-2.4c-0.3-0.9-1.1-1.6-2.1-1.9c0,0,0,0,0,0c-1.2-0.4-6.4-3.7-8.9-5.2c-1.2-0.8-2.3-1.4-3.1-1.9
			c-0.3-0.2-0.7-0.4-1.1-0.5C75.1,32.9,73.3,33.6,72.5,34.8z M78.2,43.7c0-0.7,0-1.4,0-2.1c1.4,0.9,2.9,1.8,4.4,2.7
			c-1.4,0.9-2.8,1.6-4.4,2.3C78.2,45.7,78.2,44.7,78.2,43.7z"/>
	</g>
	<g>
		<path class="st0" d="M104.2,24.7c-1.2-1.5-2.9-1.6-4.2-1.4c-0.9,0.1-11.8,0.3-22.2,0.4c-8.1,0.1-13.3,0.1-14.6,0
			c-0.2,0-0.5,0-0.7-0.1c0,0,0,0,0,0c-0.4-0.1-0.8-0.1-1.3-0.1c0,0-0.1,0-0.1,0c-2.5,0-3.7,1.5-3.7,4.7c0,2,0.1,10.5,0.3,18.1l0,0.2
			c0.1,5.6,0.2,10.9,0.2,11.9c0,0.6,0,1.1,0.1,1.5c0.2,1,0.7,1.8,1.3,2.3c0.6,0.5,1.4,0.8,2.3,0.8c0.4,0,0.8,0,1.2-0.1
			c1.3-0.3,16.4,0.3,26.4,0.7c5.1,0.2,9.6,0.4,10.8,0.4c0,0,0,0,0,0c1.4,0,2.4-0.1,3.2-0.9c0.8-0.7,1.1-1.8,1.2-3.8
			c0.3-6.4,0.6-20.4,0.8-26.4l0-0.2c0-1.3,0-2.2,0.1-2.4C105.5,27.6,105.1,25.8,104.2,24.7z M101.5,59.1c-0.1,1.4-0.2,1.7-0.2,1.7
			c-0.2,0.1-0.9,0.1-1.3,0.1c-1.1,0-5.2-0.2-10.4-0.3l-0.3,0c-10.6-0.4-19.9-0.7-24.4-0.7c-1.4,0-2.3,0-2.7,0.1
			C62,60,61.8,60,61.6,60c-0.2,0-0.4,0-0.5-0.1c0,0-0.2-0.2-0.3-0.6c-0.1-0.3-0.1-0.6-0.1-0.9c0-0.2,0-0.5,0-1c1.4,0,2.8,0,4.4,0
			c0.1,0.1,0.1,0.2,0.2,0.2c0.6,0.8,1.4,1.2,2.1,1.2c0.1,0,0.1,0,0.2,0c0.7,0,1.4-0.3,2.1-0.9c0.2-0.2,0.3-0.3,0.5-0.5
			c0.2,0,0.5,0,0.7,0c5.4,0.1,11.5,0.2,17.1,0.2c5.1,0,9.8-0.1,13.5-0.3C101.6,58.1,101.6,58.6,101.5,59.1z M102.4,30.3
			c0,0.1,0,1-0.1,2.4c-0.1,4.4-0.3,14.5-0.6,21.7c-7.5,0.6-20.2,0.3-30.7,0.2l-0.2,0c-0.2,0-0.4,0-0.6,0c-0.2-0.3-0.3-0.5-0.6-0.7
			c-0.5-0.5-1.3-0.8-2.1-0.7c-0.8,0-1.6,0.4-2.1,1c-0.1,0.1-0.2,0.2-0.3,0.4c-1.7,0-3.2,0-4.5,0c0-2.2-0.1-5-0.1-8
			c-0.1-7.2-0.3-16.2-0.3-18.2c0-1,0.2-1.4,0.3-1.6c0.1-0.1,0.2-0.2,0.5-0.2c0.3,0,0.6,0.1,1,0.1c0.3,0,0.6,0.1,0.8,0.1
			c1.8,0.1,10.1,0.1,14.9,0c9.7-0.1,21.5-0.4,22.5-0.5c0.9-0.1,1.3,0,1.6,0.3C102.3,27.1,102.4,28.3,102.4,30.3z"/>
		<path class="st0" d="M90.4,40.5c-1.4-0.4-6.1-3.4-9.3-5.4c-1.2-0.8-2.3-1.5-3.1-1.9c-0.2-0.2-0.4-0.3-0.7-0.4
			c-1-0.3-2.1,0.1-2.5,0.8c-0.9,1.6-1,6.6-1,8.1c0,3.1,0.2,7.1,1,8.4c0,0,0,0,0,0.1c0.1,0.1,0.2,0.2,0.3,0.3
			c0.4,0.3,0.9,0.5,1.5,0.5c0.4,0,0.8-0.1,1.1-0.3c1.3-0.7,2.6-1.3,3.8-1.9c3.3-1.6,6-2.9,9.7-5.9c0.1-0.1,0.2-0.2,0.3-0.4
			c0.2-0.3,0.3-0.7,0.1-1.1C91.4,41,91,40.6,90.4,40.5z M79.3,46.3c-0.4,0.2-0.9,0.4-1.3,0.7c-0.2-1.4-0.2-3.3-0.2-5.2
			c0-1.8,0.1-3.5,0.2-4.7c0.2,0.1,0.4,0.3,0.7,0.5c2.4,1.5,5.5,3.5,7.8,4.7C83.9,44,81.9,45,79.3,46.3z"/>
	</g>
</g>
<g class="st5">
	<g>
		<g>
			<defs>
				<rect id="SVGID_17_" x="166.7" y="16.9" width="120.8" height="6.5"/>
			</defs>
			<clipPath id="SVGID_6_">
				<use xlink:href="#SVGID_17_"  style="overflow:visible;"/>
			</clipPath>
			<path class="st7" d="M284.2,23.4H170c-1.8,0-3.3-1.5-3.3-3.3s1.5-3.3,3.3-3.3h114.2c1.8,0,3.3,1.5,3.3,3.3
				C287.5,21.9,286,23.4,284.2,23.4"/>
		</g>
	</g>
</g>
<g class="st5">
	<g>
		<g>
			<defs>
				<rect id="SVGID_19_" x="290.1" y="17.8" width="5.6" height="5.6"/>
			</defs>
			<clipPath id="SVGID_8_">
				<use xlink:href="#SVGID_19_"  style="overflow:visible;"/>
			</clipPath>
			<path style="clip-path:url(#SVGID_8_);fill:#FFFFFF;" d="M295.7,20.6c0,1.6-1.3,2.8-2.8,2.8c-1.6,0-2.8-1.3-2.8-2.8
				c0-1.6,1.3-2.8,2.8-2.8C294.5,17.8,295.7,19,295.7,20.6"/>
		</g>
	</g>
</g>
</svg>
