<?xml version="1.0" encoding="utf-8"?>
<!-- Generator: Adobe Illustrator 24.2.0, SVG Export Plug-In . SVG Version: 6.00 Build 0)  -->
<svg version="1.1" id="Layer_1" xmlns="http://www.w3.org/2000/svg" xmlns:xlink="http://www.w3.org/1999/xlink" x="0px" y="0px"
	 viewBox="0 0 350 93" style="enable-background:new 0 0 350 93;" xml:space="preserve">
<style type="text/css">
	.st0{fill:#FFFFFF;}
	.st1{fill:none;stroke:#000000;stroke-width:3;stroke-miterlimit:10;}
	.st2{fill:#4386C6;}
	.st3{opacity:0.19;}
	.st4{clip-path:url(#SVGID_2_);}
	.st5{opacity:0.46;}
	.st6{clip-path:url(#SVGID_4_);fill:#FFFFFF;}
	.st7{clip-path:url(#SVGID_6_);fill:#FFFFFF;}
	.st8{fill:#034D7F;}
	.st9{fill:#034D7F;stroke:#034D7F;stroke-miterlimit:10;}
</style>
<path class="st0" d="M303.1,89.9H46.9C23,89.9,3.4,70.3,3.4,46.4C3.4,22.4,23,2.8,46.9,2.8h256.2c23.9,0,43.5,19.6,43.5,43.5
	C346.7,70.3,327.1,89.9,303.1,89.9"/>
<path class="st1" d="M303.1,89.9H46.9C23,89.9,3.4,70.3,3.4,46.4C3.4,22.4,23,2.8,46.9,2.8h256.2c23.9,0,43.5,19.6,43.5,43.5
	C346.7,70.3,327.1,89.9,303.1,89.9z"/>
<g>
	<path class="st2" d="M303.2,80.2H46.9C28.2,80.2,13,65,13,46.4c0-18.6,15.2-33.9,33.9-33.9h256.3c18.6,0,33.9,15.2,33.9,33.9
		C337.1,65,321.8,80.2,303.2,80.2"/>
	<g>
		<path d="M303.2,78.7c-3.2,0-6.5,0-9.7,0c-8.5,0-17.1,0-25.6,0c-12.3,0-24.7,0-37,0c-14.4,0-28.8,0-43.2,0c-14.8,0-29.7,0-44.5,0
			c-13.7,0-27.4,0-41,0c-10.9,0-21.8,0-32.6,0c-6.5,0-12.9,0-19.4,0c-1.1,0-2.1,0-3.2,0c-8.9,0-17.4-3.7-23.5-10.1
			c-7.1-7.4-10.3-18-8.4-28.1c1.9-10,8.4-18.6,17.5-23.1C37.2,15,42.3,14,47.6,14c1.7,0,3.3,0,5,0c7.5,0,14.9,0,22.4,0
			c11.5,0,23,0,34.5,0c14.1,0,28.2,0,42.2,0c14.8,0,29.7,0,44.5,0c14.2,0,28.3,0,42.5,0c11.7,0,23.4,0,35.1,0c7.7,0,15.3,0,23,0
			c6.2,0,12-0.1,18,2.1c9.4,3.6,16.8,11.7,19.6,21.4c2.8,9.9,0.7,20.8-5.7,28.9C322.5,74.1,313.1,78.7,303.2,78.7c-1.9,0-1.9,3,0,3
			c10.3-0.1,20.2-4.6,26.9-12.4c6.7-7.9,9.7-18.5,8-28.7C335.3,23.5,320,11,302.8,11c-4.5,0-9,0-13.4,0c-9.7,0-19.4,0-29,0
			c-13.1,0-26.2,0-39.3,0c-14.9,0-29.8,0-44.7,0c-15,0-29.9,0-44.9,0c-13.2,0-26.5,0-39.7,0c-9.9,0-19.8,0-29.8,0
			c-4.8,0-9.6,0-14.5,0c-16,0-30.5,10.5-34.8,26.1c-2.7,10-0.8,21.1,5.2,29.5c5.9,8.3,15.1,13.8,25.3,14.9c4.1,0.4,8.4,0.2,12.6,0.2
			c8.5,0,17.1,0,25.6,0c12.5,0,24.9,0,37.4,0c14.6,0,29.2,0,43.8,0c15.1,0,30.2,0,45.3,0c13.9,0,27.7,0,41.6,0c10.9,0,21.8,0,32.7,0
			c6.2,0,12.4,0,18.6,0c0.8,0,1.6,0,2.4,0C305.1,81.7,305.1,78.7,303.2,78.7L303.2,78.7z"/>
	</g>
</g>
<g class="st3">
	<g>
		<defs>
			<rect id="SVGID_1_" x="13.4" y="23.9" width="320.8" height="55.9"/>
		</defs>
		<clipPath id="SVGID_2_">
			<use xlink:href="#SVGID_1_"  style="overflow:visible;"/>
		</clipPath>
		<path class="st4" d="M308.4,72.4H52.1c-18.6,0-33.9-15.2-33.9-33.9c0-5.2,1.2-10.2,3.3-14.6c-5.1,5.9-8.2,13.6-8.2,22
			c0,18.6,15.2,33.9,33.9,33.9h256.3c13.4,0,25.1-7.9,30.5-19.3C327.9,67.8,318.7,72.4,308.4,72.4"/>
	</g>
</g>
<g class="st5">
	<g>
		<defs>
			<rect id="SVGID_3_" x="181.9" y="17.5" width="120.8" height="6.5"/>
		</defs>
		<clipPath id="SVGID_4_">
			<use xlink:href="#SVGID_3_"  style="overflow:visible;"/>
		</clipPath>
		<path class="st6" d="M299.4,24H185.2c-1.8,0-3.3-1.5-3.3-3.3c0-1.8,1.5-3.3,3.3-3.3h114.2c1.8,0,3.3,1.5,3.3,3.3
			C302.7,22.6,301.2,24,299.4,24"/>
	</g>
</g>
<g class="st5">
	<g>
		<defs>
			<rect id="SVGID_5_" x="305.3" y="18.4" width="5.6" height="5.6"/>
		</defs>
		<clipPath id="SVGID_6_">
			<use xlink:href="#SVGID_5_"  style="overflow:visible;"/>
		</clipPath>
		<path class="st7" d="M310.9,21.2c0,1.6-1.3,2.8-2.8,2.8c-1.6,0-2.8-1.3-2.8-2.8c0-1.6,1.3-2.8,2.8-2.8
			C309.7,18.4,310.9,19.6,310.9,21.2"/>
	</g>
</g>
<g>
	<g>
		<g>
			<path class="st8" d="M64.8,31.7c-0.3-2.5-0.3-5.1,0-7.6c-0.5,0.5-1,1-1.5,1.5c5.8-0.4,11.9-1.6,17.7-0.2c-0.4-0.5-0.7-1-1.1-1.4
				c-0.1,2.4-0.3,4.9-0.4,7.3c1-0.1,2-0.3,2.9-0.4c0-0.2-0.1-0.3-0.1-0.5c-0.5-1.9-3.4-1.1-2.9,0.8c0,0.2,0.1,0.3,0.1,0.5
				c0.4,1.7,2.9,1.3,2.9-0.4c0.1-2.4,0.3-4.9,0.4-7.3c0-0.6-0.5-1.3-1.1-1.4c-6.1-1.5-12.4-0.3-18.5,0.1c-0.9,0.1-1.4,0.6-1.5,1.5
				c-0.3,2.5-0.3,5.1,0,7.6c0.1,0.8,0.6,1.5,1.5,1.5C64,33.2,64.9,32.5,64.8,31.7L64.8,31.7z"/>
		</g>
	</g>
	<g>
		<g>
			<path class="st8" d="M46.1,28.8c0-0.2-0.1-0.4-0.1-0.5c0-0.1,0-0.2-0.1-0.3c0,0.2,0,0.2,0,0c0-0.1,0-0.2,0-0.2c0,0.2,0,0.2,0,0.1
				c0.1-0.2,0-0.1,0,0c0.1-0.1,0.1-0.1,0,0c0.1-0.1,0.1-0.1,0,0c0.1-0.1,0.1-0.1,0,0c0.1,0,0.6-0.2,0.2-0.1c0.3-0.1,0.7-0.1,1.1-0.1
				c0.7,0,1.5-0.1,2.2,0c0.4,0,0.8,0,1.2,0.1c0.2,0,0.4,0,0.6,0c0.1,0,0.2,0,0.3,0c-0.1,0-0.2,0-0.3-0.1c-0.2-0.2-0.4-0.4-0.5-0.5
				c0-0.2-0.1-0.3-0.1-0.5c0,0,0,0.1,0,0.1c0,0.1,0,0.2,0,0.3c0,0.2,0,0.4,0,0.6c0,0.4,0,0.8-0.1,1.2c-0.1,0.8,0.7,1.5,1.5,1.5
				c0.9,0,1.4-0.7,1.5-1.5c0-0.6,0.1-1.2,0.1-1.9c0-0.5,0-0.9-0.2-1.4c-0.2-0.4-0.7-0.7-1.1-0.9c-0.4-0.1-0.8-0.1-1.2-0.1
				c-0.3,0-0.6,0-0.9-0.1c-0.6,0-1.3,0-1.9,0c-0.6,0-1.3,0-1.9,0.1c-0.8,0.1-1.6,0.2-2.2,0.8c-1.2,1-1.1,2.6-0.7,4
				c0.2,0.8,1.1,1.3,1.8,1C45.9,30.4,46.4,29.6,46.1,28.8L46.1,28.8z"/>
		</g>
	</g>
	<g>
		<g>
			<path class="st8" d="M87.9,29C87.8,29,87.8,29,87.9,29c0.2,0.1,0.5,0.1,0.7,0.2c0,0,0,0,0,0c0.1,0.1,0.2,0.2,0.3,0.2c0,0,0,0,0,0
				c0.1,0.1,0.2,0.2,0.2,0.3c0,0,0-0.1,0-0.1c0.1,0.1,0.1,0.2,0.2,0.4c0,0,0-0.1,0-0.1c0,0.1,0,0.3,0.1,0.4c0-0.1,0-0.2,0-0.3
				c0,0.1,0,0.3-0.1,0.4c0-0.2,0.1-0.4,0.1-0.5c-0.1,0.1-0.1,0.2-0.2,0.4c0.1-0.2,0.2-0.3,0.3-0.5c-0.1,0.1-0.2,0.2-0.2,0.3
				c0.1-0.1,0.2-0.3,0.4-0.4c-0.1,0.1-0.2,0.2-0.3,0.2c0.1-0.1,0.3-0.2,0.4-0.2c-0.1,0.1-0.2,0.1-0.4,0.2c0.2-0.1,0.3-0.1,0.5-0.1
				c-0.1,0-0.3,0-0.4,0.1c0.2,0,0.4,0,0.6,0c-0.1,0-0.3,0-0.4-0.1c0.2,0,0.4,0.1,0.5,0.1c-0.1-0.1-0.2-0.1-0.4-0.2
				c0.2,0.1,0.3,0.1,0.4,0.2c-0.1-0.1-0.2-0.2-0.3-0.2c0.1,0.1,0.3,0.2,0.4,0.4c-0.1-0.1-0.2-0.2-0.2-0.3c0.1,0.2,0.2,0.3,0.3,0.5
				c-0.1-0.1-0.1-0.2-0.2-0.4c0.1,0.3,0.2,0.6,0.2,0.9c0-0.1,0-0.3-0.1-0.4c0.1,0.4,0.1,0.8,0,1.2c0,0.8,0.7,1.5,1.5,1.5
				c0.9,0,1.5-0.7,1.5-1.5c0.1-1.7-0.3-3.4-1.8-4.4c-0.8-0.5-1.8-0.6-2.8-0.4c-0.9,0.2-1.7,0.9-2.2,1.6c-0.3,0.5-0.4,1-0.5,1.6
				c0,0.4,0.1,0.8,0.2,1.1c0.1,0.2,0.3,0.4,0.5,0.5c0.1,0.1,0.1,0.1,0.2,0.1c0.3,0.2,0.5,0.2,0.8,0.2c0.4,0,0.8-0.2,1.1-0.4
				c0.3-0.3,0.5-0.7,0.4-1.1c0-0.4-0.1-0.8-0.4-1.1c-0.1-0.1-0.2-0.2-0.3-0.2C88.4,29.1,88.1,29,87.9,29L87.9,29z"/>
		</g>
	</g>
	<g>
		<g>
			<path class="st8" d="M95,31.1c0-0.1,0-0.1,0-0.2c0,0.1,0,0.3,0.1,0.4c0-0.2,0-0.4,0-0.7C95,30.7,95,30.9,95,31.1
				c0-0.4,0.1-0.6,0.2-0.9c-0.1,0.1-0.1,0.2-0.2,0.4c0.1-0.3,0.3-0.6,0.5-0.9c-0.1,0.1-0.2,0.2-0.2,0.3c0.1-0.2,0.3-0.3,0.5-0.5
				c-0.1,0.1-0.2,0.2-0.3,0.2c0.1-0.1,0.3-0.2,0.4-0.2c-0.1,0.1-0.2,0.1-0.4,0.2c0.1-0.1,0.3-0.1,0.4-0.1c-0.1,0-0.3,0-0.4,0.1
				c0.1,0,0.3,0,0.4,0c-0.1,0-0.3,0-0.4-0.1c0.2,0,0.4,0.1,0.5,0.1c-0.1-0.1-0.2-0.1-0.4-0.2c0.2,0.1,0.3,0.2,0.4,0.3
				c-0.1-0.1-0.2-0.2-0.3-0.2c0.2,0.1,0.3,0.3,0.4,0.4c-0.1-0.1-0.2-0.2-0.2-0.3c0.2,0.2,0.3,0.5,0.4,0.7c-0.1-0.1-0.1-0.2-0.2-0.4
				c0.2,0.4,0.3,0.8,0.3,1.2c0-0.1,0-0.3-0.1-0.4c0,0.4,0,0.8,0,1.2c0-0.1,0-0.3,0.1-0.4c0,0.2,0,0.3-0.1,0.5
				c-0.2,0.8,0.2,1.7,1,1.8c0.8,0.2,1.7-0.2,1.8-1c0.2-1,0.2-2,0-3c-0.2-0.9-0.6-1.8-1.3-2.4c-0.8-0.8-2-1.2-3.1-0.9
				c-1,0.3-1.7,1-2.2,1.8c-0.6,1-0.9,2.2-0.6,3.4c0.2,0.8,1.1,1.3,1.8,1C94.7,32.7,95.2,31.9,95,31.1L95,31.1z"/>
		</g>
	</g>
	<g>
		<g>
			<path class="st8" d="M68.6,31.8c0-0.2-0.1-0.3-0.1-0.5c0-0.1-0.1-0.6-0.1-0.3c-0.1-0.4-0.1-0.9-0.1-1.3c-0.1-0.8-0.1-1.6-0.2-2.4
				c-0.5,0.5-1,1-1.5,1.5c2.4,0.1,4.8,0,7.1-0.3c0.5-0.1,1-0.1,1.6-0.1c0.2,0,0.5,0,0.7,0c0.1,0,0.1,0,0.2,0c0.1,0,0.1,0,0,0
				c-0.2,0.2-0.3-1-0.5-0.6c-0.1,0.3,0,0.7,0,1c0,0.3,0,0.6,0,0.8c0,0.6,0,1.3,0.1,1.9c0,0.8,0.7,1.5,1.5,1.5c0.8,0,1.5-0.7,1.5-1.5
				c0-0.7,0-1.4-0.1-2.1c0-0.7,0-1.5-0.1-2.3c-0.4-1.7-2.3-1.9-3.7-1.9c-1.3,0.1-2.7,0.3-4,0.4c-1.4,0.1-2.9,0.1-4.3,0
				c-0.7,0-1.6,0.7-1.5,1.5c0.2,1.8,0.1,3.6,0.6,5.4C66.2,34.5,69.1,33.7,68.6,31.8L68.6,31.8z"/>
		</g>
	</g>
	<g>
		<g>
			<g>
				<path class="st8" d="M101.6,60.8c0.4-5.1,1-10.2,0.9-15.3c0-2.5-0.3-5.1-0.7-7.5c-0.4-1.9-0.7-4.7-2.2-6.2
					c-1.5-1.4-4.2-1.3-6.2-1.5c-2.3-0.2-4.5-0.3-6.8-0.3c-4.7-0.1-9.4,0.1-14.1,0.4c-2.4,0.1-4.8,0.3-7.2,0.5
					c-1.2,0.1-2.7,0.7-3.8,0.4c-1-0.2-1.6-1.5-2.5-2c-0.8-0.5-1.9,0-2.2,0.9c-1,3.6-2.2,7.1-2.7,10.8c-0.4,3-0.3,6.2,0,9.2
					c0.3,2.9,0.8,5.7,2,8.4c1.3,2.9,3.4,4.8,6.1,6.5c0.8,0.5,1.9,0,2.2-0.9c0.1-0.3,0.2-0.6,0.2-0.9c-0.5,0.4-1,0.7-1.4,1.1
					c7.3-0.2,14.7,0.5,22,0.9c3.6,0.2,7.2,0.3,10.8,0.3c1.4,0,2.9,0,4-0.8C101.2,63.9,101.5,62.3,101.6,60.8c0.2-1.9-2.8-1.9-3,0
					c0,0.5-0.1,1.3-0.5,1.6c-0.4,0.3-1.3,0.2-1.8,0.2c-1.6,0-3.1,0-4.7,0c-3.2-0.1-6.3-0.2-9.5-0.4c-6.3-0.4-12.7-0.9-19.1-0.7
					c-0.6,0-1.3,0.5-1.4,1.1c0,0.3-0.1,0.6-0.2,0.9c0.7-0.3,1.5-0.6,2.2-0.9c-2.4-1.5-4.1-3.2-5.2-5.9c-0.9-2.4-1.3-5-1.5-7.5
					c-0.2-2.7-0.3-5.5,0.1-8.2c0.5-3.4,1.6-6.7,2.5-10c-0.7,0.3-1.5,0.6-2.2,0.9c0.7,0.4,1.2,1.2,1.8,1.7c0.9,0.6,1.9,0.8,3,0.8
					c2-0.2,4.1-0.5,6.1-0.6c4.4-0.3,8.8-0.6,13.2-0.7c4.4-0.1,8.8,0,13.2,0.4c0.8,0.1,2.1,0,2.8,0.6c0.7,0.6,0.8,2.3,1,3.1
					c0.6,2.4,0.8,4.8,0.9,7.2c0.2,5.5-0.4,11-0.9,16.5C98.4,62.8,101.4,62.7,101.6,60.8z"/>
			</g>
		</g>
		<g>
			<g>
				<path class="st8" d="M56.8,43.9c0.1-4.4,1.6-8.6,2.8-12.8c0.2-0.6-0.1-1.4-0.7-1.7c-1.2-0.7-2.3-0.6-3.6-0.6
					c-1.5,0.1-2.9-0.2-4.4-0.2c-2.9,0-6.2,0.2-9,1.1c-2.8,0.9-2.6,3.5-2.7,6c-0.1,2.9-0.2,5.8-0.3,8.7c-0.1,5.8,0.1,11.6,1.3,17.3
					c0.5,2.2,0.9,5.6,3,6.9c1,0.6,2.2,0.7,3.3,0.7c1.3,0.1,2.6,0.1,3.9,0.1c2.9,0.1,5.7,0,8.6-0.3c1.4-0.2,2.5-0.3,3.5-1.4
					c0.9-1,1.4-2.2,1.8-3.4c0.2-0.6-0.1-1.3-0.7-1.7c-1.7-1.1-3.1-2.1-4.1-3.8c-0.9-1.4-1.4-3-1.8-4.7
					C56.8,50.8,56.8,47.3,56.8,43.9c0-1.9-3-1.9-3,0c-0.1,3.9,0.1,8,1.1,11.8c0.5,1.8,1.2,3.7,2.3,5.3c1.3,1.8,3,3.1,4.8,4.3
					c-0.2-0.6-0.5-1.1-0.7-1.7c-0.2,0.7-0.6,1.6-1.1,2.2c-0.6,0.6-1.8,0.5-2.6,0.6c-2.1,0.2-4.3,0.2-6.4,0.2c-1.9,0-4,0.1-5.8-0.2
					C44.4,66,44.3,65,44,64.1c-0.3-1.1-0.6-2.3-0.9-3.5c-0.9-4.6-1.2-9.3-1.2-14c0-2.4,0.1-4.7,0.2-7.1c0-1.1,0.1-2.1,0.1-3.2
					c0-0.6,0-1.2,0.1-1.8c0-0.4-0.1-1.1,0.1-1.5c0.3-0.8,2.2-0.8,2.9-0.9c1.4-0.2,2.8-0.4,4.1-0.4c1.4-0.1,2.9,0,4.3,0.1
					c1.1,0.1,2.7-0.3,3.6,0.2c-0.2-0.6-0.5-1.1-0.7-1.7c-1.2,4.5-2.7,8.9-2.9,13.6C53.8,45.8,56.8,45.8,56.8,43.9z"/>
			</g>
		</g>
	</g>
	<g>
		<g>
			<path class="st8" d="M74.9,57.4c-4,0.6-7.7-0.8-9.2-4.8c-1.4-3.8-0.5-8.2,2.4-11.1c2.8-2.8,7-3.8,10.8-2.3
				c3.7,1.5,6.1,5.7,5.3,9.7c-0.3,1.2-0.7,2.4-1.2,3.6c-0.4,1-0.8,1.9-1.7,2.6c-1.7,1.2-4,2-6,2.2c-1.9,0.2-1.9,3.2,0,3
				c2.5-0.2,5.1-1,7.2-2.4c2.4-1.5,3.3-4,4.1-6.5c1.8-5.2-0.1-11.1-4.8-14c-4.5-2.9-10.5-2.3-14.6,1c-4.1,3.3-6,8.8-4.7,13.9
				c0.7,2.8,2.3,5.4,4.8,6.8c2.5,1.5,5.5,1.6,8.4,1.2c0.8-0.1,1.2-1.1,1-1.8C76.5,57.6,75.7,57.2,74.9,57.4z"/>
		</g>
	</g>
	<g>
		<g>
			<path class="st8" d="M74.7,53.3c-2.2,0.4-4.2-0.4-5-2.6c-0.8-2.2-0.3-4.7,1.4-6.4c1.6-1.6,4.1-2.2,6.2-1.3c2,0.9,3.4,3.2,2.9,5.4
				c-0.2,0.8-0.5,1.5-0.8,2.2c-0.1,0.3-0.2,0.6-0.4,0.8c-0.1,0.2-0.3,0.4-0.4,0.5c-1,0.7-2.4,1.2-3.5,1.3c-0.8,0.1-1.5,0.6-1.5,1.5
				c0,0.8,0.7,1.6,1.5,1.5c1.7-0.1,3.4-0.7,4.8-1.5c1.6-1,2.3-2.7,2.9-4.4c1.2-3.5-0.1-7.4-3.3-9.4c-3.1-1.9-7-1.5-9.8,0.7
				c-2.7,2.2-4,5.9-3.1,9.3c0.5,1.9,1.6,3.6,3.3,4.6c1.7,1,3.7,1.1,5.7,0.8c0.8-0.1,1.2-1.1,1-1.8C76.3,53.5,75.5,53.2,74.7,53.3z"
				/>
		</g>
	</g>
</g>
<g>
	<g>
		<g>
			<path class="st0" d="M67.4,30.7c-0.3-2.5-0.3-5.1,0-7.6c-0.4,0.4-0.8,0.8-1.1,1.1c5.9-0.4,12-1.6,17.8-0.2
				c-0.3-0.4-0.6-0.7-0.8-1.1c-0.1,2.4-0.3,4.9-0.4,7.3c0.7-0.1,1.5-0.2,2.2-0.3c0-0.2-0.1-0.3-0.1-0.5c-0.4-1.4-2.5-0.8-2.2,0.6
				c0,0.2,0.1,0.3,0.1,0.5c0.3,1.3,2.2,0.9,2.2-0.3c0.1-2.4,0.3-4.9,0.4-7.3c0-0.5-0.4-1-0.8-1.1c-6-1.4-12.3-0.3-18.4,0.1
				c-0.7,0-1,0.5-1.1,1.1c-0.3,2.5-0.3,5.1,0,7.6C65.3,32.1,67.6,32.1,67.4,30.7L67.4,30.7z"/>
		</g>
	</g>
	<g>
		<g>
			<path class="st0" d="M48.8,27.9c-0.1-0.3-0.2-0.7-0.2-0.9c0-0.1,0-0.2,0-0.2c0,0.1,0,0.1,0,0c0-0.1,0-0.1,0,0
				c0.1-0.1,0.1-0.1,0,0c0.1-0.1,0.1-0.1,0,0c0.1-0.1,0.1-0.1,0.1,0c0,0,0.4-0.1,0.3-0.1c0.4,0,0.7-0.1,1.1-0.1c0.7,0,1.5-0.1,2.2,0
				c0.4,0,0.8,0,1.2,0.1c0.2,0,0.4,0,0.6,0c0.1,0,0.2,0,0.3,0c0,0-0.1,0-0.1,0c-0.1-0.1-0.3-0.3-0.4-0.4c-0.1-0.1-0.1-0.5-0.1-0.2
				c0,0.1,0,0.2,0,0.3c0,0.2,0,0.4,0,0.6c0,0.4,0,0.8-0.1,1.2c0,0.6,0.6,1.2,1.1,1.1c0.6,0,1.1-0.5,1.1-1.1c0-0.6,0.1-1.2,0.1-1.9
				c0-0.4,0-0.8-0.2-1.2c-0.2-0.4-0.5-0.6-0.9-0.7c-0.6-0.2-1.4-0.2-2-0.2c-0.6,0-1.3,0-1.9,0c-0.6,0-1.3,0-1.9,0.1
				c-0.7,0.1-1.4,0.2-1.9,0.7c-1.1,0.9-0.9,2.4-0.6,3.6c0.2,0.6,0.8,0.9,1.4,0.8C48.6,29.1,48.9,28.5,48.8,27.9L48.8,27.9z"/>
		</g>
	</g>
	<g>
		<g>
			<path class="st0" d="M90.9,28.4C90.8,28.4,90.8,28.4,90.9,28.4c0.1,0,0.3,0.1,0.5,0.1c0.2,0.1,0.3,0.3,0.4,0.5c0,0.2,0,0.3,0,0.1
				c0-0.3-0.1,0.2,0,0c0-0.1,0-0.1,0-0.2c0,0,0-0.1,0-0.1c0-0.1,0-0.1,0,0.1c0-0.1,0.1-0.2,0.1-0.2c0-0.1,0.1-0.1,0.1-0.2
				c-0.1,0.1-0.1,0.2-0.1,0.1c0,0,0.1-0.1,0.1-0.1c0,0,0.1-0.1,0.1-0.1c0.1-0.1,0.1-0.1-0.1,0.1c0,0,0.1,0,0.1-0.1
				c0.1,0,0.2-0.1,0.2-0.1c-0.2,0.1-0.2,0.1,0,0c0.1,0,0.2,0,0.2-0.1c-0.2,0-0.2,0-0.1,0c0,0,0.1,0,0.1,0c0.1,0,0.1,0,0.2,0
				c0.1,0,0.1,0-0.1,0c0,0,0.1,0,0.1,0c0.1,0,0.1,0,0.2,0.1c0.3,0.1-0.2-0.1,0,0c0.1,0,0.1,0.1,0.2,0.1c0.2,0.1-0.2-0.2,0,0
				c0.1,0.1,0.1,0.1,0.2,0.2c0,0,0.1,0.1,0.1,0.1c-0.1-0.1-0.1-0.2-0.1-0.1c0,0.1,0.1,0.1,0.1,0.2c0,0.1,0.1,0.2,0.1,0.2
				c-0.1-0.2-0.1-0.2,0-0.1c0,0,0,0.1,0,0.1c0,0.1,0.1,0.3,0.1,0.4c0,0.1,0,0.1,0,0.2c-0.1-0.3,0-0.1,0,0c0,0.3,0,0.6,0,0.9
				c0,0.6,0.5,1.2,1.1,1.1c0.6,0,1.1-0.5,1.1-1.1c0.1-1.5-0.3-3.2-1.6-4.1c-0.7-0.5-1.6-0.6-2.5-0.4c-0.8,0.2-1.5,0.8-1.9,1.5
				c-0.3,0.4-0.4,0.9-0.4,1.4c0,0.3,0,0.6,0.2,0.9c0.1,0.2,0.2,0.3,0.4,0.4c0.2,0.2,0.5,0.2,0.8,0.3c0.3,0,0.6-0.1,0.8-0.3
				c0.2-0.2,0.3-0.5,0.3-0.8c0-0.3-0.1-0.6-0.3-0.8C91.4,28.5,91.2,28.4,90.9,28.4L90.9,28.4z"/>
		</g>
	</g>
	<g>
		<g>
			<path class="st0" d="M97.6,30.2c0,0,0-0.1,0-0.1C97.6,30.2,97.6,30.2,97.6,30.2c0-0.2,0-0.3,0-0.4c0,0,0-0.1,0-0.1
				c0,0.2,0,0.2,0,0.1c0-0.1,0-0.2,0.1-0.3c0-0.1,0.1-0.2,0.1-0.3c-0.1,0.2-0.1,0.2,0,0.1c0,0,0-0.1,0.1-0.1
				c0.1-0.1,0.2-0.3,0.3-0.4c0,0,0.1-0.1,0.1-0.1c-0.1,0.1-0.1,0.2-0.1,0.1c0.1-0.1,0.1-0.1,0.2-0.2c0,0,0.1-0.1,0.1-0.1
				c0.1-0.1,0.1-0.1-0.1,0.1c0.1,0,0.2-0.1,0.2-0.1c0.1-0.1,0.1,0-0.1,0c0,0,0.1,0,0.1,0c0,0,0.1,0,0.1,0c-0.2,0-0.2,0-0.1,0
				c0,0,0.1,0,0.1,0c0.1,0,0.1,0-0.1,0c0.1,0,0.2,0,0.2,0.1c0,0,0.1,0,0.1,0c0.1,0,0.1,0-0.1,0c0,0,0.2,0.1,0.2,0.1
				c0.1,0.1,0.1,0.1-0.1-0.1c0,0,0.1,0.1,0.1,0.1c0.1,0.1,0.1,0.1,0.2,0.2c0.1,0.1,0.1,0.1,0-0.1c0,0,0.1,0.1,0.1,0.1
				c0.1,0.1,0.1,0.2,0.1,0.2c0,0.1,0.1,0.2,0.1,0.3c-0.1-0.2-0.1-0.2,0-0.1c0,0,0,0.1,0,0.1c0.1,0.2,0.1,0.4,0.2,0.6
				c0,0.1,0.1,0.2,0.1,0.3c0-0.2,0-0.2,0-0.1c0,0.1,0,0.1,0,0.2c0,0.2,0,0.4,0,0.6c0,0.1,0,0.1,0,0.2c0-0.2,0-0.2,0-0.1
				c0,0.1,0,0.2-0.1,0.3c-0.1,0.6,0.2,1.2,0.8,1.4c0.6,0.1,1.2-0.2,1.4-0.8c0.2-0.9,0.2-1.9,0-2.8c-0.2-0.8-0.6-1.6-1.2-2.2
				c-0.7-0.7-1.8-1-2.8-0.8c-0.9,0.2-1.5,0.9-2,1.7c-0.6,0.9-0.8,2-0.6,3.1c0.1,0.6,0.8,1,1.4,0.8C97.4,31.4,97.8,30.8,97.6,30.2
				L97.6,30.2z"/>
		</g>
	</g>
	<g>
		<g>
			<path class="st0" d="M71.2,30.9c-0.4-1.5-0.3-3.1-0.5-4.7c-0.4,0.4-0.8,0.8-1.1,1.1c2.4,0.1,4.8,0,7.1-0.3c0.5-0.1,1-0.1,1.6-0.1
				c0.3,0,0.5,0,0.8,0.1c0,0,0.3,0.1,0.3,0.1c0-0.1-0.1-0.1-0.1-0.2c-0.1-0.2-0.1-0.2-0.1-0.1c-0.1,0.2,0,0.7,0,1c0,0.3,0,0.6,0,0.8
				c0,0.6,0,1.3,0.1,1.9c0,1.4,2.3,1.5,2.2,0c0-0.7,0-1.4-0.1-2.1c0-0.7,0-1.5-0.1-2.2c-0.3-1.5-2.1-1.6-3.4-1.6
				c-1.3,0.1-2.7,0.3-4,0.4c-1.4,0.1-2.9,0.1-4.3,0c-0.6,0-1.2,0.5-1.1,1.1c0.2,1.7,0.1,3.6,0.6,5.3C69.4,32.9,71.6,32.3,71.2,30.9
				L71.2,30.9z"/>
		</g>
	</g>
	<g>
		<g>
			<g>
				<path class="st0" d="M104.6,59.8c0.4-5.1,1-10.2,0.9-15.3c0-2.5-0.3-5.1-0.7-7.5c-0.4-1.9-0.7-4.7-2.2-6.2
					c-1.5-1.4-4.2-1.3-6.2-1.5c-2.3-0.2-4.5-0.3-6.8-0.3c-4.7-0.1-9.4,0.1-14.1,0.4c-2.4,0.1-4.8,0.3-7.2,0.5
					c-1.2,0.1-2.7,0.7-3.8,0.4c-1-0.2-1.6-1.5-2.5-2c-0.8-0.5-1.9,0-2.2,0.9c-1,3.6-2.2,7.1-2.7,10.8c-0.4,3-0.3,6.2,0,9.2
					c0.3,2.9,0.8,5.7,2,8.4c1.3,2.9,3.4,4.8,6.1,6.5c0.8,0.5,1.9,0,2.2-0.9c0.1-0.3,0.2-0.6,0.2-0.9c-0.5,0.4-1,0.7-1.4,1.1
					c7.3-0.2,14.7,0.5,22,0.9c3.6,0.2,7.2,0.3,10.8,0.3c1.4,0,2.9,0,4-0.8C104.2,62.9,104.5,61.3,104.6,59.8c0.2-1.9-2.8-1.9-3,0
					c0,0.5-0.1,1.3-0.5,1.6c-0.4,0.3-1.3,0.2-1.8,0.2c-1.6,0-3.1,0-4.7,0c-3.2-0.1-6.3-0.2-9.5-0.4c-6.3-0.4-12.7-0.9-19.1-0.7
					c-0.6,0-1.3,0.5-1.4,1.1c0,0.3-0.1,0.6-0.2,0.9c0.7-0.3,1.5-0.6,2.2-0.9c-2.4-1.5-4.1-3.2-5.2-5.9c-0.9-2.4-1.3-5-1.5-7.5
					c-0.2-2.7-0.3-5.5,0.1-8.2c0.5-3.4,1.6-6.7,2.5-10c-0.7,0.3-1.5,0.6-2.2,0.9c0.7,0.4,1.2,1.2,1.8,1.7c0.9,0.6,1.9,0.8,3,0.8
					c2-0.2,4.1-0.5,6.1-0.6c4.4-0.3,8.8-0.6,13.2-0.7c4.4-0.1,8.8,0,13.2,0.4c0.8,0.1,2.1,0,2.8,0.6c0.7,0.6,0.8,2.3,1,3.1
					c0.6,2.4,0.8,4.8,0.9,7.2c0.2,5.5-0.4,11-0.9,16.5C101.4,61.7,104.4,61.7,104.6,59.8z"/>
			</g>
		</g>
		<g>
			<g>
				<path class="st0" d="M59.8,42.8c0.1-4.4,1.6-8.6,2.8-12.8c0.2-0.6-0.1-1.4-0.7-1.7c-1.2-0.7-2.3-0.6-3.6-0.6
					c-1.5,0.1-2.9-0.2-4.4-0.2c-2.9,0-6.2,0.2-9,1.1c-2.8,0.9-2.6,3.5-2.7,6c-0.1,2.9-0.2,5.8-0.3,8.7c-0.1,5.8,0.1,11.6,1.3,17.3
					c0.5,2.2,0.9,5.6,3,6.9c1,0.6,2.2,0.7,3.3,0.7c1.3,0.1,2.6,0.1,3.9,0.1c2.9,0.1,5.7,0,8.6-0.3c1.4-0.2,2.5-0.3,3.5-1.4
					c0.9-1,1.4-2.2,1.8-3.4c0.2-0.6-0.1-1.3-0.7-1.7c-1.7-1.1-3.1-2.1-4.1-3.8c-0.9-1.4-1.4-3-1.8-4.7
					C59.9,49.8,59.8,46.3,59.8,42.8c0-1.9-3-1.9-3,0c-0.1,3.9,0.1,8,1.1,11.8c0.5,1.8,1.2,3.7,2.3,5.3c1.3,1.8,3,3.1,4.8,4.3
					c-0.2-0.6-0.5-1.1-0.7-1.7c-0.2,0.7-0.6,1.6-1.1,2.2c-0.6,0.6-1.8,0.5-2.6,0.6c-2.1,0.2-4.3,0.2-6.4,0.2c-1.9,0-4,0.1-5.8-0.2
					C47.4,64.9,47.3,64,47,63c-0.3-1.1-0.6-2.3-0.9-3.5c-0.9-4.6-1.2-9.3-1.2-14c0-2.4,0.1-4.7,0.2-7.1c0-1.1,0.1-2.1,0.1-3.2
					c0-0.6,0-1.2,0.1-1.8c0-0.4-0.1-1.1,0.1-1.5c0.3-0.8,2.2-0.8,2.9-0.9c1.4-0.2,2.8-0.4,4.1-0.4c1.4-0.1,2.9,0,4.3,0.1
					c1.1,0.1,2.7-0.3,3.6,0.2c-0.2-0.6-0.5-1.1-0.7-1.7c-1.2,4.5-2.7,8.9-2.9,13.6C56.8,44.8,59.8,44.8,59.8,42.8z"/>
			</g>
		</g>
	</g>
	<g>
		<g>
			<path class="st0" d="M77.8,56.1c-3.9,0.6-7.6-0.8-9-4.7c-1.4-3.8-0.4-8.1,2.4-10.9c2.8-2.8,6.9-3.7,10.6-2.2
				c3.7,1.5,6,5.6,5.2,9.6c-0.2,1.2-0.7,2.4-1.2,3.5c-0.4,1-0.8,1.9-1.6,2.5c-1.7,1.2-3.9,2-5.9,2.1c-1.9,0.2-1.9,3.2,0,3
				c2.5-0.2,5-1,7.1-2.3c2.3-1.5,3.2-3.9,4.1-6.4c1.8-5.1-0.1-10.9-4.7-13.9c-4.5-2.8-10.4-2.3-14.4,0.9c-4.1,3.2-5.9,8.7-4.7,13.7
				c0.7,2.7,2.3,5.3,4.8,6.7c2.5,1.5,5.5,1.6,8.3,1.1c0.8-0.1,1.2-1.1,1-1.8C79.5,56.3,78.6,55.9,77.8,56.1z"/>
		</g>
	</g>
	<g>
		<g>
			<path class="st0" d="M77.7,52.5c-2.3,0.4-4.5-0.5-5.4-2.8c-0.9-2.3-0.3-4.9,1.4-6.6c1.7-1.7,4.2-2.3,6.4-1.3
				c2.2,0.9,3.6,3.4,3.1,5.8c-0.2,0.8-0.5,1.5-0.8,2.2c-0.2,0.6-0.4,1.1-0.9,1.5c-1,0.7-2.4,1.2-3.6,1.3c-1.4,0.1-1.4,2.4,0,2.2
				c1.6-0.1,3.2-0.6,4.5-1.5c1.5-0.9,2.1-2.5,2.6-4.1c1.1-3.3-0.1-7-3.1-8.9c-2.9-1.8-6.6-1.5-9.3,0.6c-2.6,2.1-3.8,5.6-3,8.8
				c0.4,1.8,1.5,3.4,3.1,4.3c1.6,0.9,3.5,1,5.3,0.7c0.6-0.1,0.9-0.8,0.8-1.4C78.9,52.6,78.3,52.4,77.7,52.5z"/>
		</g>
	</g>
</g>
<g>
	<path class="st9" d="M119.4,38.3c0-0.2,0-0.3,0.1-0.4c0.1-0.1,0.2-0.2,0.4-0.2c0.2,0,0.5,0,0.7,0.1s0.5,0.1,0.7,0.1
		c0.2,0,0.4,0,0.7,0c0.2,0,0.4,0,0.6-0.1c0,0,0.1,0,0.2,0c0.1,0,0.2,0,0.4,0c0.1,0,0.2,0,0.3,0s0.2,0,0.2,0c0,0,0,0,0.1,0
		c0,0,0,0,0,0c0,0,0,0,0,0c0.1,0,0.2,0.1,0.3,0.2c0,0.1,0.1,0.2,0.1,0.3c0,0.1,0,0.1,0,0.2c0,0.1,0,0.1,0,0.2c0,0.2,0,0.4,0,0.6
		c0,0.2,0,0.4,0,0.5c0,0.2,0,0.4,0,0.5c0,0.2,0,0.4,0,0.6c0,0.4,0,0.9,0,1.4c0,0.5,0,0.9,0.1,1.4c0,0,0,0.1,0,0.2s0,0.2,0,0.3
		c0,0.1,0,0.2,0,0.3s0,0.1,0,0.2c0,0,0,0,0,0.1s0,0.1,0,0.1c0,0,0,0.1,0,0.1c0,0,0,0.1,0,0.1c0,0,0,0,0,0.1c0,0,0,0.1,0,0.2
		s0,0.1,0,0.2c0,0.1,0,0.1,0,0.1c0.1,0.8,0.2,1.5,0.3,2.2s0.2,1.5,0.4,2.2c0,0,0,0,0,0.1c0,0,0,0.1,0,0.2c0,0.1,0,0.1,0,0.2
		c0,0,0,0.1,0,0.1c0,0,0,0,0,0.1c0,0,0,0.1,0,0.1c0,0,0,0.1,0,0.1c0,0,0,0.1,0,0.1c0,0,0,0,0,0.1c0,0,0,0.1,0,0.1c0,0,0,0.1,0,0.1
		l0.2,0.7c0,0.1,0,0.2,0.1,0.4c0,0.2,0.1,0.3,0.1,0.5c0,0.2,0.1,0.3,0.2,0.4c0.1,0.1,0.1,0.3,0.2,0.3c0.2,0.3,0.4,0.5,0.7,0.6
		c0.3,0.1,0.6,0.1,0.9,0h0c0,0,0,0,0.1,0c0,0,0,0,0.1,0c0,0,0.1-0.1,0.2-0.1s0.1-0.1,0.2-0.2c0.1-0.1,0.1-0.1,0.2-0.2
		c0.1-0.1,0.1-0.1,0.1-0.1c0,0,0,0,0.1-0.1s0.1-0.1,0.1-0.1c0.2-0.3,0.4-0.7,0.6-1.1s0.3-0.8,0.3-1.2c0-0.1,0-0.2,0-0.4
		c0-0.2,0-0.4,0-0.5c0-0.2,0-0.3,0-0.5c0-0.2,0-0.3,0-0.3c0,0,0,0,0-0.1c0-0.1,0-0.1,0-0.2c0-0.1,0-0.1,0-0.2c0-0.1,0-0.1,0-0.2
		c0-0.5,0-1,0-1.5c0-0.5-0.1-1-0.1-1.4c0,0,0-0.1,0-0.2c0-0.1,0-0.2,0-0.4c0-0.1,0-0.2,0-0.4s0-0.2,0-0.2c0-0.1,0-0.2,0-0.4
		c0-0.2,0-0.4,0-0.6c0-0.2,0-0.4,0-0.6c0-0.2,0-0.3,0-0.4c0,0,0-0.1,0-0.3s0-0.3-0.1-0.5c0-0.2,0-0.3-0.1-0.4c0-0.1,0-0.2,0-0.3
		c0,0,0-0.1,0-0.3c0-0.2-0.1-0.4-0.1-0.7c0-0.3-0.1-0.6-0.1-0.8c0-0.3,0-0.5,0-0.7v0c0,0,0,0,0,0c0,0,0,0,0,0c0-0.1,0-0.1,0-0.1
		c0,0,0,0,0-0.1s0,0,0,0c0,0,0.1,0,0.1,0c0.5,0,1-0.1,1.5-0.1c0.5,0,1,0,1.5,0c0.1,0,0.2,0,0.3,0c0.1,0,0.2,0,0.3,0
		c0.1,0,0.2,0,0.3,0c0.1,0,0.1,0,0.2,0.1c0,0,0.1,0.1,0.1,0.1c0.1,0,0.1,0,0.2,0c0,0,0.1,0,0.1,0c0,0,0.1,0,0.1,0.1
		c0,0.2,0.1,0.3,0.1,0.5c0,0.1,0,0.3,0,0.4s0,0.3,0,0.4c0,0.1,0,0.3,0,0.5v0.4c0,0,0,0.1,0,0.2c0,0.1,0,0.2,0,0.2
		c0,0.1-0.1,0.2-0.1,0.3c0,0.2,0,0.3,0,0.5s0,0.4,0.1,0.5c0,0.2,0,0.3,0,0.3c0,0.3,0,0.6-0.1,1c0,0.3,0,0.7-0.1,1
		c0,0.3,0,0.6-0.1,0.9c0,0.3,0,0.6,0,0.8c0,0,0,0.1,0,0.2c0,0.1,0,0.3,0,0.4c0,0.2,0,0.3,0,0.4c0,0.1,0,0.2,0,0.2c0,0,0,0.1,0,0.2
		s0,0.2,0,0.3c0,0.1,0,0.2,0,0.3c0,0.1,0,0.1,0,0.2l-0.1,0.1l-0.4,4.8c-0.1,0.6-0.3,1.2-0.5,1.6s-0.4,0.9-0.7,1.2
		c-0.3,0.4-0.6,0.7-0.9,0.9c-0.4,0.3-0.8,0.5-1.2,0.7c-0.2,0-0.3,0.1-0.5,0.2c-0.2,0.1-0.4,0.2-0.5,0.2c-0.2,0.1-0.4,0.1-0.5,0.2
		c-0.2,0.1-0.4,0.1-0.5,0.1c-0.3,0-0.5,0.1-0.7,0.1c-0.2,0-0.4,0-0.5,0c-0.2,0-0.3,0-0.4,0c-0.1,0-0.3,0-0.4-0.1
		c-0.3,0-0.6-0.1-0.8-0.1c-0.3,0-0.5-0.1-0.8-0.3c-0.3-0.2-0.6-0.3-0.8-0.5c-0.2-0.2-0.5-0.4-0.7-0.6s-0.4-0.4-0.6-0.7
		c-0.2-0.2-0.4-0.5-0.6-0.8c-0.2-0.2-0.3-0.5-0.3-0.7s-0.1-0.5-0.2-0.7c0-0.1-0.1-0.2-0.1-0.4c-0.1-0.2-0.1-0.3-0.1-0.4
		c0,0,0-0.1,0-0.3c0-0.1,0-0.3,0-0.5c0-0.2,0-0.3,0-0.5c0-0.1,0-0.2,0-0.3c0,0,0-0.1,0-0.2c0-0.1,0-0.2-0.1-0.3s0-0.2-0.1-0.3
		c0-0.1,0-0.1,0-0.2c-0.1-0.8-0.1-1.6-0.2-2.4c0-0.8,0-1.6-0.1-2.5v-0.1c0,0,0-0.1,0-0.2c0-0.1,0-0.2,0-0.2s0-0.2,0-0.2
		c0-0.1,0-0.1,0-0.1c0,0,0-0.2,0-0.3c0-0.2,0-0.3-0.1-0.5s0-0.4-0.1-0.5c0-0.2,0-0.3,0-0.3c0,0,0-0.1,0-0.1c0-0.1,0-0.2,0-0.3
		c0-0.1,0-0.2,0-0.3c0-0.1,0-0.1,0-0.1c0-0.4,0-0.8-0.1-1.1s-0.1-0.7-0.1-1.1c0,0,0-0.1,0-0.2s0-0.2,0-0.2c0,0,0,0,0-0.1
		c0,0,0-0.1,0-0.1c-0.1-0.3-0.1-0.5-0.1-0.8C119.4,38.9,119.4,38.6,119.4,38.3z"/>
	<path class="st9" d="M138.6,56c-0.3-0.1-0.5-0.3-0.8-0.4c-0.2-0.1-0.5-0.3-0.7-0.5c-0.1-0.1-0.2-0.2-0.4-0.3
		c-0.1-0.1-0.2-0.2-0.4-0.3c-0.1-0.1-0.2-0.2-0.3-0.3c-0.1-0.1-0.1-0.2-0.1-0.4c0,0,0-0.1,0-0.2c0-0.1,0-0.1,0-0.1
		c0,0,0.1-0.1,0.1-0.1c0,0,0-0.1,0.1-0.1s0,0,0,0c0,0,0.1-0.1,0.1-0.1c0.1-0.1,0.1-0.1,0.2-0.2c0.1-0.1,0.1-0.1,0.2-0.2
		c0.1-0.1,0.1-0.1,0.1-0.1c0,0,0.1-0.1,0.1-0.1c0.1-0.1,0.1-0.1,0.1-0.2c0,0,0.1-0.1,0.2-0.2s0.2-0.1,0.2-0.2
		c0.1-0.1,0.1-0.1,0.2-0.2c0.1-0.1,0.1-0.1,0.1-0.1c0,0,0.1-0.1,0.2-0.1c0.1,0,0.2-0.1,0.2-0.1h0.2c0.1,0,0.1,0,0.2,0.1
		c0.1,0.1,0.1,0.1,0.2,0.2c0.1,0.1,0.1,0.1,0.2,0.2c0.1,0.1,0.1,0.1,0.2,0.2c0.2,0.1,0.4,0.2,0.5,0.3c0.2,0.1,0.4,0.2,0.6,0.4
		c0.2,0.1,0.5,0.2,0.8,0.3c0.3,0.1,0.6,0.1,0.9,0.2c0.1,0,0.1,0.1,0.3,0c0.1,0,0.3-0.1,0.4-0.2s0.2-0.2,0.3-0.3s0.2-0.2,0.2-0.3
		c0-0.1,0-0.1,0-0.2s0-0.2,0-0.3s0-0.2-0.1-0.3c0-0.1-0.1-0.2-0.1-0.2c-0.3-0.4-0.6-0.7-0.9-1s-0.7-0.5-1.1-0.8c0,0-0.1,0-0.2-0.1
		c-0.1-0.1-0.2-0.1-0.3-0.2c-0.1-0.1-0.2-0.1-0.3-0.2c-0.1-0.1-0.2-0.1-0.2-0.1c0,0-0.1,0-0.1-0.1c-0.1,0-0.2-0.1-0.2-0.2
		c-0.1-0.1-0.2-0.1-0.3-0.2c-0.1-0.1-0.1-0.1-0.2-0.1c0-0.1-0.1-0.1-0.3-0.2s-0.2-0.2-0.3-0.2c-0.1-0.1-0.1-0.2-0.3-0.3
		c-0.1-0.2-0.2-0.3-0.4-0.5c-0.1-0.2-0.3-0.4-0.4-0.5c-0.1-0.2-0.2-0.3-0.2-0.3c-0.3-0.4-0.5-0.8-0.6-1.3c-0.1-0.5-0.1-0.9-0.1-1.4
		c0-0.2,0-0.4,0.1-0.6c0.1-0.2,0.1-0.5,0.2-0.7c0.1-0.2,0.2-0.4,0.2-0.5c0.1-0.1,0.1-0.2,0.1-0.2c0-0.1,0.1-0.1,0.2-0.2
		c0.1-0.1,0.1-0.2,0.2-0.2c0.1-0.1,0.1-0.1,0.2-0.2c0.1-0.1,0.1-0.1,0.2-0.2c0.2-0.2,0.4-0.3,0.6-0.4c0.2-0.1,0.4-0.2,0.6-0.2
		c0.2-0.1,0.4-0.1,0.7-0.1s0.5-0.1,0.7-0.1c0.2,0,0.5,0,0.9-0.1s0.8,0,1.3,0.1h0c0.3,0,0.7,0.1,1,0.3c0.3,0.1,0.7,0.3,1,0.4
		c0.3,0.2,0.6,0.4,0.9,0.6c0.3,0.2,0.6,0.5,0.8,0.7c0,0,0.1,0.1,0.2,0.2c0.1,0.1,0.1,0.2,0.2,0.3c0.1,0.1,0.1,0.2,0.2,0.2
		c0.1,0.1,0.1,0.1,0.1,0.1c0,0,0.1,0.1,0.1,0.1c0,0,0,0.1,0,0.1c0,0,0,0.1,0,0.1c0,0,0,0.1-0.1,0.1c-0.1,0-0.2,0.1-0.3,0.3
		c-0.1,0.1-0.2,0.3-0.4,0.4c-0.1,0.1-0.2,0.3-0.3,0.4s-0.2,0.2-0.2,0.1c0,0-0.1,0.1-0.2,0.2c-0.1,0.1-0.2,0.2-0.3,0.3
		c-0.1,0.1-0.2,0.2-0.3,0.3s-0.2,0.1-0.2,0.2c-0.1,0.1-0.1,0.1-0.2,0.2c0,0-0.1,0.1-0.2,0.1h-0.1c0,0,0,0-0.1,0c0,0-0.1,0-0.1-0.1
		c0,0-0.1,0-0.1-0.1c0,0-0.1,0-0.1,0c-0.1,0-0.2-0.1-0.4-0.2c-0.2-0.1-0.4-0.2-0.6-0.4c-0.2-0.1-0.4-0.2-0.5-0.4
		c-0.2-0.1-0.3-0.2-0.4-0.2c0,0-0.1,0-0.2,0s-0.1,0-0.2,0s-0.2,0-0.2,0s-0.1,0-0.2,0h0c-0.1,0-0.1,0-0.2,0.1c-0.1,0-0.1,0.1-0.2,0.1
		c-0.1,0-0.1,0.1-0.1,0.2c0,0.1,0,0.1,0,0.2c0,0.1,0,0.2,0,0.3c0,0.1,0,0.2,0.1,0.3c0.2,0.3,0.5,0.6,0.8,0.8c0.3,0.2,0.6,0.4,1,0.5
		c0.5,0.2,1,0.4,1.5,0.7c0.4,0.3,0.8,0.6,1.3,1c0,0,0.1,0.1,0.2,0.2c0.1,0.1,0.2,0.2,0.3,0.3s0.2,0.2,0.3,0.3
		c0.1,0.1,0.1,0.2,0.2,0.2c0,0,0.1,0.1,0.2,0.2c0.1,0.1,0.1,0.1,0.1,0.1c0,0,0.1,0.1,0.1,0.2c0.1,0.1,0.1,0.2,0.2,0.3
		c0.1,0.1,0.1,0.2,0.2,0.3s0.1,0.1,0.1,0.2c0,0.1,0.1,0.2,0.1,0.3c0,0.1,0,0.3,0.1,0.4c0,0.1,0,0.3,0,0.4s0,0.3,0,0.4c0,0,0,0,0,0.1
		c0,0,0,0.1,0,0.2s0,0.1,0,0.2c0,0.1,0,0.1,0,0.1c-0.1,0.8-0.3,1.4-0.7,2c-0.4,0.6-0.9,1.1-1.5,1.6c-0.2,0.2-0.4,0.3-0.6,0.4
		c-0.2,0.1-0.4,0.2-0.7,0.2c-0.2,0.1-0.5,0.1-0.8,0.1c-0.3,0-0.6,0.1-1,0.1c-0.3,0-0.6,0-0.9-0.1c-0.3-0.1-0.6-0.1-0.9-0.2
		c-0.3-0.1-0.6-0.2-0.9-0.3C139.2,56.2,138.9,56.1,138.6,56z"/>
	<path class="st9" d="M161.7,58.5c-0.1-0.1-0.1-0.1-0.1-0.2c0-0.1,0-0.2,0-0.3c0,0,0,0,0-0.1s0-0.1,0-0.1v-0.1c0-0.1,0-0.2,0.1-0.3
		c0-0.1,0.1-0.2,0.1-0.3v-0.1c0,0-0.1,0-0.1,0c-0.1,0-0.1,0-0.1,0c-0.1,0-0.1,0.1-0.3,0.2c-0.1,0.1-0.3,0.2-0.4,0.3
		c-0.1,0.1-0.3,0.2-0.4,0.2s-0.2,0.1-0.3,0.1l-1,0.4H159c0,0,0,0-0.1,0c0,0-0.1,0-0.1,0s-0.1,0-0.1,0c0,0-0.1,0-0.1,0h-0.7
		c-0.2,0-0.3,0-0.4,0s-0.2,0-0.3,0c-0.1,0-0.2,0-0.3,0c-0.1,0-0.3,0-0.4,0c0,0-0.1,0-0.1,0c-0.1,0-0.1,0-0.2,0c-0.1,0-0.2,0-0.2,0
		c-0.1,0-0.1,0-0.1,0H155l-0.4-0.2c-0.1,0-0.1-0.1-0.3-0.1c-0.1-0.1-0.2-0.1-0.4-0.2c-0.1-0.1-0.3-0.1-0.4-0.2
		c-0.1-0.1-0.2-0.1-0.3-0.1c0,0-0.1-0.1-0.2-0.1c-0.1,0-0.2-0.1-0.3-0.1c-0.1-0.1-0.2-0.1-0.3-0.1c-0.1,0-0.1-0.1-0.2-0.1
		c0,0,0,0-0.1-0.1c0,0-0.1-0.1-0.1-0.1s-0.1-0.1-0.1-0.1c0,0-0.1-0.1-0.1-0.1c-0.2-0.2-0.4-0.4-0.6-0.7c-0.2-0.2-0.4-0.5-0.6-0.7
		c-0.2-0.2-0.3-0.5-0.4-0.8c-0.1-0.3-0.2-0.7-0.3-1.1c-0.1-0.4-0.1-0.7-0.2-1.1c0-0.4,0-0.7,0-0.9c0-0.3,0-0.6,0-0.9
		c0-0.3,0-0.6,0-0.8c0-0.3,0.1-0.5,0.1-0.8c0.1-0.3,0.1-0.6,0.2-0.9c0,0,0-0.2,0.1-0.3c0.1-0.2,0.1-0.3,0.2-0.5s0.1-0.3,0.1-0.4
		s0.1-0.1,0,0c0.1-0.4,0.3-0.7,0.5-1c0.2-0.3,0.5-0.6,0.7-0.9c0.3-0.3,0.6-0.5,0.9-0.8c0.3-0.2,0.6-0.5,1-0.7c0,0,0.1-0.1,0.2-0.1
		s0.2-0.1,0.4-0.2c0.1-0.1,0.3-0.1,0.4-0.2c0.1-0.1,0.2-0.1,0.3-0.1c0,0,0,0,0.1,0c0,0,0.1,0,0.2,0c0.1,0,0.1,0,0.2,0
		c0.1,0,0.1,0,0.2,0c0,0,0.1,0,0.2,0c0.1,0,0.1,0,0.1,0h2.4c0.3,0.1,0.6,0.2,0.8,0.2c0.3,0.1,0.5,0.2,0.8,0.3
		c0.2,0.1,0.5,0.2,0.7,0.4c0.2,0.1,0.5,0.3,0.7,0.6h0c0,0,0-0.1,0-0.1c0,0,0-0.1,0-0.1s0-0.1,0-0.1c0,0,0-0.1,0-0.1c0,0,0,0,0-0.1
		s0-0.1,0-0.2c0-0.1,0-0.1,0-0.2c0,0,0-0.1,0-0.1c0-0.1,0-0.1,0-0.2s0.1-0.1,0.1-0.2c0.1,0,0.1-0.1,0.2-0.1c0.1,0,0.1,0,0.2,0
		c0.4,0,0.8,0,1.1,0c0.3,0,0.6,0,0.9,0c0.3,0,0.6,0,0.9,0.1c0.3,0,0.7,0.1,1.1,0.1c0,0,0.1,0,0.1,0.1c0.1,0,0.1,0.1,0.1,0.1
		c0,0.1,0,0.2,0,0.3c0,0.1,0,0.2,0,0.3c0,0.1,0,0.2,0,0.3c0,0.1,0,0.2,0,0.3c0,0,0,0.1,0,0.1c0,0.1,0,0.2,0,0.3c0,0.1,0,0.2,0,0.3
		c0,0.1,0,0.1,0,0.1c0,0,0,0.1,0,0.2c0,0.1,0,0.1,0,0.2c0,0,0,0.1,0,0.2c0,0.1,0,0.2,0,0.2c0,0.1,0,0.2,0,0.2c0,0.1,0,0.1,0,0.1
		c0,0,0,0.1,0,0.1s0,0.1,0,0.1l0,2.9v0.2c0,0,0,0.2,0,0.5c0,0.3,0,0.7,0,1.2c0,0.5,0,1,0,1.5c0,0.6,0,1.1,0,1.7c0,0.6,0,1.1,0,1.6
		c0,0.5,0,0.9,0,1.2c0,0,0,0.1,0,0.2c0,0.1,0,0.2,0,0.3c0,0.1,0,0.2,0,0.3c0,0.1,0,0.2,0,0.2v0.1v0.1c0,0-0.1,0.1-0.2,0.1
		c-0.1,0-0.1,0.1-0.2,0.1c-0.2,0-0.4,0-0.6,0c-0.2,0-0.3,0-0.5,0.1c-0.1,0-0.3,0-0.4,0.1s-0.3,0-0.6,0h-0.6c-0.1,0-0.2,0-0.3,0
		c-0.1,0-0.3,0-0.4,0c-0.2,0-0.3,0-0.4,0C161.9,58.6,161.8,58.6,161.7,58.5z M154.5,50.5c0,0.4,0.1,0.8,0.2,1.2
		c0.1,0.4,0.3,0.7,0.6,1.1c0,0,0,0.1,0.1,0.1c0,0.1,0.1,0.1,0.1,0.1c0.2,0.2,0.4,0.4,0.6,0.6c0.2,0.2,0.4,0.4,0.7,0.5
		c0.2,0.2,0.5,0.3,0.7,0.4c0.3,0.1,0.5,0.1,0.9,0.1c0.3,0,0.5,0,0.8-0.1s0.5-0.2,0.8-0.3c0,0,0.1,0,0.1-0.1c0.1,0,0.1-0.1,0.2-0.1
		c0.1,0,0.1-0.1,0.2-0.1c0,0,0.1,0,0.1,0c0.3-0.2,0.5-0.5,0.7-0.8c0.2-0.3,0.4-0.6,0.5-1c0.1-0.4,0.2-0.7,0.2-1.1s0.1-0.7,0.1-1.1
		c0,0,0-0.1,0-0.2c0-0.1,0-0.2,0-0.3s0-0.2,0-0.3s0-0.2,0-0.2l-0.1-0.2c0-0.1-0.1-0.1-0.1-0.2c0-0.1-0.1-0.1-0.1-0.1
		c-0.2-0.3-0.3-0.6-0.5-0.9c-0.2-0.3-0.4-0.5-0.7-0.7c-0.1,0-0.1-0.1-0.2-0.2s-0.2-0.1-0.3-0.2s-0.2-0.1-0.3-0.2
		c-0.1-0.1-0.2-0.1-0.2-0.1c0,0-0.1,0-0.2,0c-0.1,0-0.2,0-0.3-0.1s-0.2,0-0.3-0.1c-0.1,0-0.1,0-0.2,0c0-0.1-0.1-0.1-0.2-0.1
		c-0.1,0-0.2,0-0.3,0c-0.1,0-0.2,0-0.3,0.1c-0.1,0-0.2,0-0.3,0c-0.1,0-0.3,0-0.4,0.1c-0.1,0-0.3,0.1-0.4,0.2
		c-0.1,0.1-0.2,0.2-0.4,0.2c-0.1,0.1-0.2,0.2-0.3,0.3c0,0-0.1,0.1-0.1,0.1c-0.1,0.1-0.1,0.1-0.2,0.2c-0.1,0.1-0.1,0.1-0.2,0.2
		c-0.1,0.1-0.1,0.1-0.1,0.1c-0.3,0.3-0.5,0.7-0.6,1.2c-0.1,0.3-0.1,0.7-0.2,1C154.5,49.8,154.5,50.2,154.5,50.5z"/>
	<path class="st9" d="M170.2,56.7l-0.7-0.1c-0.1,0-0.1,0-0.1,0c0,0,0,0,0-0.1c0-0.1,0-0.2,0-0.2c0-0.1,0-0.2,0-0.2
		c0-0.1,0-0.2-0.1-0.2c0-0.1-0.1-0.1-0.1-0.2c0,0,0-0.1,0-0.1s0-0.1,0.1-0.1c0-0.1,0-0.4,0-0.8s0-0.9,0-1.4c0-0.6,0-1.2-0.1-1.9
		s0-1.3-0.1-2c0-0.7,0-1.3-0.1-1.9c0-0.6,0-1.1,0-1.5c0-0.1,0-0.2,0-0.3c0-0.1,0-0.3-0.1-0.4s0-0.3-0.1-0.4s0-0.3,0-0.3
		c0,0,0-0.1,0-0.1c0-0.1,0-0.1,0-0.1c0,0-0.1,0-0.1-0.1s0-0.1,0-0.1l0-0.1l0.1-0.1c0-0.2,0-0.4,0-0.5c0-0.2,0-0.3,0-0.5
		c0,0,0-0.1,0-0.1c0,0,0-0.1,0-0.2s0-0.1,0-0.2c0,0,0-0.1,0-0.1c0-0.1,0-0.1,0-0.1s0-0.1,0-0.1c0-0.1,0-0.1,0-0.1c0,0,0,0,0-0.1
		c0-0.1,0-0.1,0-0.2s0-0.1,0-0.2c0,0,0-0.1,0-0.1l0,0c0,0,0,0,0,0c0.3,0,0.5-0.1,0.8-0.1c0.3-0.1,0.5-0.1,0.8-0.1c0.3,0,0.7,0,1,0
		c0.3,0,0.6,0.1,1,0.1c0,0,0.1,0,0.2,0c0.1,0,0.2,0,0.2,0s0.1,0,0.2,0.1c0.1,0,0.1,0.1,0.1,0.2c0,0.1,0,0.3,0,0.3c0,0.1,0,0.2,0,0.4
		v0c0,0,0,0,0,0s0,0,0,0c0.1,0,0.1-0.1,0.2-0.1c0.1,0,0.2-0.1,0.3-0.1s0.2-0.1,0.3-0.1c0.1,0,0.2-0.1,0.2-0.1c0,0,0.1,0,0.1-0.1
		s0.1-0.1,0.2-0.1c0,0,0.1,0,0.1,0c0.1,0,0.1,0,0.1-0.1c0.1,0,0.2-0.1,0.3-0.1c0.1,0,0.2-0.1,0.3-0.1c0.1,0,0.2-0.1,0.3-0.1
		c0.1,0,0.2-0.1,0.2-0.1c0.2-0.1,0.4-0.1,0.6-0.1c0.2,0,0.4,0,0.7,0c0.4,0,0.7,0,1.1,0.1c0.4,0.1,0.8,0.2,1.1,0.3
		c0.4,0.1,0.7,0.3,1,0.5c0.3,0.2,0.5,0.4,0.7,0.5c0.1,0.1,0.1,0.1,0.2,0.2c0.1,0.1,0.1,0.2,0.2,0.3c0.1,0.1,0.1,0.2,0.2,0.3
		c0,0.1,0.1,0.2,0.1,0.3c0,0,0,0.1-0.1,0.2c0,0.1-0.1,0.2-0.2,0.2c-0.1,0.1-0.1,0.2-0.2,0.2s-0.1,0.1-0.2,0.1c0,0,0,0-0.1,0
		c0,0-0.1,0-0.1,0.1c0,0-0.1,0-0.1,0.1c0,0-0.1,0-0.1,0c0,0-0.1,0.1-0.1,0.1c-0.1,0-0.1,0.1-0.2,0.1c-0.1,0-0.1,0.1-0.2,0.1
		c-0.1,0-0.1,0.1-0.1,0.1c-0.1,0.1-0.3,0.2-0.4,0.3c-0.1,0.1-0.3,0.2-0.4,0.3c-0.1,0.1-0.3,0.2-0.5,0.3c-0.2,0.1-0.3,0.1-0.5,0.1
		h-0.2c0,0,0,0-0.1,0c0,0-0.1,0-0.1,0c-0.3-0.2-0.7-0.3-1.1-0.5c-0.4-0.1-0.7-0.2-1.1-0.2c-0.3,0-0.5,0.1-0.7,0.3
		c-0.2,0.2-0.3,0.4-0.5,0.6c0,0-0.1,0.1-0.1,0.2c-0.1,0.1-0.1,0.1-0.1,0.2c0,0,0,0.1-0.1,0.2c0,0.1-0.1,0.2-0.2,0.2
		c-0.1,0.1-0.1,0.2-0.2,0.3c-0.1,0.1-0.1,0.2-0.1,0.2c-0.1,0.2-0.1,0.4-0.1,0.6c0,0.2,0,0.4,0,0.6c-0.1,0.8-0.2,1.6-0.2,2.2
		c0,0.7,0.1,1.3,0.1,1.9c0,0.4,0.1,0.9,0.1,1.3s0.1,0.9,0.1,1.3c0,0,0,0.1,0,0.3c0,0.1,0,0.3,0,0.4c0,0.1,0,0.3,0,0.4
		c0,0.1,0,0.2,0,0.3c0,0,0,0,0,0c0,0,0,0,0,0l0,0h0h0c0,0,0,0-0.1,0s-0.1,0-0.1,0L170.2,56.7z"/>
	<path class="st9" d="M192.8,54c0,0-0.1-0.1-0.1-0.3c-0.1-0.1-0.1-0.3-0.2-0.4c-0.1-0.1-0.1-0.3-0.2-0.4c0-0.1-0.1-0.2-0.1-0.3
		c0,0,0-0.1,0-0.2c0-0.1,0-0.2,0-0.2c-0.1-0.8-0.1-1.5,0-2.3c0.1-0.8,0.2-1.6,0.4-2.3c0.2-0.6,0.4-1.2,0.7-1.7
		c0.3-0.6,0.6-1.1,1-1.5c0.4-0.5,0.8-0.9,1.3-1.2c0.5-0.3,1.1-0.6,1.7-0.7c0.4-0.1,0.9-0.2,1.3-0.3c0.5-0.1,0.9-0.1,1.4-0.2
		c0,0,0.1,0,0.2,0c0.1,0,0.1,0,0.2,0s0.1,0,0.2,0c0,0,0.1,0,0.1,0c0.4,0,0.8,0,1.2,0c0.4,0,0.8,0.1,1.2,0.2c0.3,0.1,0.7,0.2,1.1,0.3
		s0.8,0.2,1.1,0.4c0,0,0.1,0,0.2,0.1s0.2,0.1,0.3,0.2c0.1,0.1,0.2,0.1,0.3,0.2c0.1,0,0.2,0.1,0.2,0.1c0.2,0.2,0.4,0.3,0.5,0.4
		s0.2,0.2,0.3,0.2c0.1,0.1,0.2,0.2,0.3,0.3c0.1,0.1,0.3,0.3,0.5,0.5c0,0,0.1,0.1,0.1,0.1c0,0,0.1,0.1,0.1,0.2c0,0.1,0,0.2,0,0.3
		s-0.1,0.2-0.2,0.3c0,0-0.1,0.1-0.2,0.2c-0.1,0.1-0.3,0.2-0.5,0.4c-0.2,0.1-0.4,0.3-0.5,0.4c-0.2,0.2-0.3,0.3-0.4,0.4
		c-0.2,0.3-0.4,0.5-0.6,0.5s-0.4,0.1-0.5,0h0h0c-0.1,0-0.3,0-0.3-0.1c-0.1,0-0.1-0.1-0.2-0.1c0,0-0.1-0.1-0.2-0.1s-0.1-0.1-0.3-0.2
		c-0.1-0.1-0.3-0.2-0.5-0.2c-0.2-0.1-0.4-0.1-0.5-0.1c-0.1,0-0.3-0.1-0.4-0.1c-0.2,0-0.3-0.1-0.5-0.1c-0.2,0-0.3-0.1-0.5-0.1
		s-0.2,0-0.2,0c-0.1,0-0.1,0-0.2,0c0,0-0.1,0-0.2,0c-0.1,0-0.1,0-0.1,0c-0.2,0-0.3,0-0.5,0c-0.1,0-0.3,0-0.4,0.1
		c-0.3,0.1-0.6,0.3-0.8,0.6c-0.2,0.2-0.4,0.5-0.6,0.8s-0.3,0.6-0.4,0.9s-0.2,0.6-0.3,0.9c-0.1,0.2-0.1,0.5-0.2,0.7
		c0,0.3,0,0.5,0,0.8c0,0.4,0.1,0.7,0.2,1c0.1,0.3,0.3,0.5,0.4,0.8c0.2,0.2,0.4,0.4,0.7,0.6c0.3,0.2,0.6,0.3,0.9,0.3
		c0.1,0,0.2,0,0.3,0.1c0.1,0,0.3,0,0.4,0.1c0.1,0,0.2,0,0.3,0.1c0.1,0,0.1,0,0.2,0c0,0,0,0,0.1,0c0.1,0,0.1,0,0.2,0
		c0.1,0,0.2,0,0.2,0c0.1,0,0.1,0,0.2,0c0,0,0.1,0,0.1,0c0.1,0,0.1,0,0.2,0c0.1,0,0.2,0,0.2,0c0.1,0,0.1,0,0.1,0
		c0.1-0.1,0.2-0.1,0.3-0.1c0.1,0,0.2-0.1,0.3-0.1c0.2-0.1,0.3-0.2,0.6-0.3c0.2-0.1,0.4-0.3,0.5-0.4c0.2-0.1,0.3-0.2,0.4-0.3
		c0.1-0.1,0.3-0.1,0.5-0.2c0.1,0,0.2,0,0.2,0s0.2,0,0.2,0.1c0,0,0.1,0.1,0.1,0.1c0.1,0.1,0.1,0.1,0.1,0.1c0,0,0.1,0.1,0.2,0.1
		c0.1,0.1,0.2,0.1,0.3,0.2c0.1,0.1,0.2,0.1,0.3,0.2c0.1,0.1,0.2,0.1,0.2,0.1l0.1,0c0,0,0.1,0.1,0.2,0.1c0.1,0.1,0.2,0.1,0.2,0.2
		s0.2,0.1,0.2,0.2s0.1,0.1,0.1,0.1c0,0,0.1,0.1,0.1,0.1s0,0,0,0c0,0,0,0,0,0.1c0,0,0,0.1,0,0.1c0,0.1,0,0.2,0,0.2c0,0,0,0.1-0.1,0.2
		c-0.4,0.6-0.9,1.1-1.3,1.5s-1,0.9-1.5,1.4c-0.4,0.2-0.7,0.4-1,0.5c-0.3,0.1-0.6,0.2-0.9,0.3c-0.3,0.1-0.5,0.1-0.8,0.1
		c-0.3,0-0.5,0-0.8,0.1c0,0-0.1,0-0.2,0c-0.1,0-0.2,0-0.3,0s-0.2,0-0.3,0c-0.1,0-0.2,0-0.2,0c-0.4,0-0.8-0.1-1.2-0.1
		c-0.4,0-0.8-0.1-1.2-0.3c0,0-0.1,0-0.2-0.1c-0.1,0-0.2-0.1-0.3-0.1c-0.1,0-0.2-0.1-0.3-0.1c-0.1,0-0.2,0-0.2-0.1
		c-0.3-0.1-0.7-0.3-1-0.5s-0.7-0.4-1-0.7c-0.3-0.3-0.6-0.5-0.9-0.8c-0.3-0.3-0.5-0.6-0.8-0.9c0,0-0.1-0.1-0.1-0.2
		c-0.1-0.1-0.1-0.2-0.2-0.3s-0.1-0.2-0.2-0.3c-0.1-0.1-0.1-0.2-0.1-0.2C192.9,54.2,192.9,54.1,192.8,54C192.8,54,192.8,54,192.8,54z
		"/>
	<path class="st9" d="M222.9,56.5c-0.1-0.1-0.1-0.1-0.1-0.2c0-0.1,0-0.2,0-0.3c0,0,0,0,0-0.1s0-0.1,0-0.1v-0.1c0-0.1,0-0.2,0.1-0.3
		c0-0.1,0.1-0.2,0.1-0.3v-0.1c0,0-0.1,0-0.1,0c-0.1,0-0.1,0-0.1,0c-0.1,0-0.1,0.1-0.3,0.2c-0.1,0.1-0.3,0.2-0.4,0.3
		c-0.1,0.1-0.3,0.2-0.4,0.2s-0.2,0.1-0.3,0.1l-1,0.4h-0.1c0,0,0,0-0.1,0c0,0-0.1,0-0.1,0s-0.1,0-0.1,0c0,0-0.1,0-0.1,0H219
		c-0.2,0-0.3,0-0.4,0s-0.2,0-0.3,0c-0.1,0-0.2,0-0.3,0c-0.1,0-0.3,0-0.4,0c0,0-0.1,0-0.1,0c-0.1,0-0.1,0-0.2,0c-0.1,0-0.2,0-0.2,0
		c-0.1,0-0.1,0-0.1,0h-0.6l-0.4-0.2c-0.1,0-0.1-0.1-0.3-0.1c-0.1-0.1-0.2-0.1-0.4-0.2c-0.1-0.1-0.3-0.1-0.4-0.2
		c-0.1-0.1-0.2-0.1-0.3-0.1c0,0-0.1-0.1-0.2-0.1c-0.1,0-0.2-0.1-0.3-0.1c-0.1-0.1-0.2-0.1-0.3-0.1c-0.1,0-0.1-0.1-0.2-0.1
		c0,0,0,0-0.1-0.1c0,0-0.1-0.1-0.1-0.1s-0.1-0.1-0.1-0.1c0,0-0.1-0.1-0.1-0.1c-0.2-0.2-0.4-0.4-0.6-0.7c-0.2-0.2-0.4-0.5-0.6-0.7
		c-0.2-0.2-0.3-0.5-0.4-0.8c-0.1-0.3-0.2-0.7-0.3-1.1c-0.1-0.4-0.1-0.7-0.2-1.1c0-0.4,0-0.7,0-0.9c0-0.3,0-0.6,0-0.9
		c0-0.3,0-0.6,0-0.8c0-0.3,0.1-0.5,0.1-0.8c0.1-0.3,0.1-0.6,0.2-0.9c0,0,0-0.2,0.1-0.3c0.1-0.2,0.1-0.3,0.2-0.5s0.1-0.3,0.1-0.4
		s0.1-0.1,0,0c0.1-0.4,0.3-0.7,0.5-1c0.2-0.3,0.5-0.6,0.7-0.9c0.3-0.3,0.6-0.5,0.9-0.8c0.3-0.2,0.6-0.5,1-0.7c0,0,0.1-0.1,0.2-0.1
		s0.2-0.1,0.4-0.2c0.1-0.1,0.3-0.1,0.4-0.2c0.1-0.1,0.2-0.1,0.3-0.1c0,0,0,0,0.1,0c0,0,0.1,0,0.2,0c0.1,0,0.1,0,0.2,0
		c0.1,0,0.1,0,0.2,0c0,0,0.1,0,0.2,0c0.1,0,0.1,0,0.1,0h2.4c0.3,0.1,0.6,0.2,0.8,0.2c0.3,0.1,0.5,0.2,0.8,0.3
		c0.2,0.1,0.5,0.2,0.7,0.4c0.2,0.1,0.5,0.3,0.7,0.6h0c0,0,0-0.1,0-0.1c0,0,0-0.1,0-0.1s0-0.1,0-0.1c0,0,0-0.1,0-0.1c0,0,0,0,0-0.1
		s0-0.1,0-0.2c0-0.1,0-0.1,0-0.2c0,0,0-0.1,0-0.1c0-0.1,0-0.1,0-0.2s0.1-0.1,0.1-0.2c0.1,0,0.1-0.1,0.2-0.1c0.1,0,0.1,0,0.2,0
		c0.4,0,0.8,0,1.1,0c0.3,0,0.6,0,0.9,0c0.3,0,0.6,0,0.9,0.1c0.3,0,0.7,0.1,1.1,0.1c0,0,0.1,0,0.1,0.1c0.1,0,0.1,0.1,0.1,0.1
		c0,0.1,0,0.2,0,0.3c0,0.1,0,0.2,0,0.3c0,0.1,0,0.2,0,0.3c0,0.1,0,0.2,0,0.3c0,0,0,0.1,0,0.1c0,0.1,0,0.2,0,0.3c0,0.1,0,0.2,0,0.3
		c0,0.1,0,0.1,0,0.1c0,0,0,0.1,0,0.2c0,0.1,0,0.1,0,0.2c0,0,0,0.1,0,0.2c0,0.1,0,0.2,0,0.2c0,0.1,0,0.2,0,0.2c0,0.1,0,0.1,0,0.1
		c0,0,0,0.1,0,0.1s0,0.1,0,0.1l0,2.9v0.2c0,0,0,0.2,0,0.5c0,0.3,0,0.7,0,1.2c0,0.5,0,1,0,1.5c0,0.6,0,1.1,0,1.7c0,0.6,0,1.1,0,1.6
		c0,0.5,0,0.9,0,1.2c0,0,0,0.1,0,0.2c0,0.1,0,0.2,0,0.3c0,0.1,0,0.2,0,0.3c0,0.1,0,0.2,0,0.2v0.1v0.1c0,0-0.1,0.1-0.2,0.1
		c-0.1,0-0.1,0.1-0.2,0.1c-0.2,0-0.4,0-0.6,0c-0.2,0-0.3,0-0.5,0.1c-0.1,0-0.3,0-0.4,0.1s-0.3,0-0.6,0h-0.6c-0.1,0-0.2,0-0.3,0
		c-0.1,0-0.3,0-0.4,0c-0.2,0-0.3,0-0.4,0C223,56.6,222.9,56.6,222.9,56.5z M215.6,48.5c0,0.4,0.1,0.8,0.2,1.2
		c0.1,0.4,0.3,0.7,0.6,1.1c0,0,0,0.1,0.1,0.1c0,0.1,0.1,0.1,0.1,0.1c0.2,0.2,0.4,0.4,0.6,0.6c0.2,0.2,0.4,0.4,0.7,0.5
		c0.2,0.2,0.5,0.3,0.7,0.4c0.3,0.1,0.5,0.1,0.9,0.1c0.3,0,0.5,0,0.8-0.1s0.5-0.2,0.8-0.3c0,0,0.1,0,0.1-0.1c0.1,0,0.1-0.1,0.2-0.1
		c0.1,0,0.1-0.1,0.2-0.1c0,0,0.1,0,0.1,0c0.3-0.2,0.5-0.5,0.7-0.8c0.2-0.3,0.4-0.6,0.5-1c0.1-0.4,0.2-0.7,0.2-1.1s0.1-0.7,0.1-1.1
		c0,0,0-0.1,0-0.2c0-0.1,0-0.2,0-0.3s0-0.2,0-0.3s0-0.2,0-0.2l-0.1-0.2c0-0.1-0.1-0.1-0.1-0.2c0-0.1-0.1-0.1-0.1-0.1
		c-0.2-0.3-0.3-0.6-0.5-0.9c-0.2-0.3-0.4-0.5-0.7-0.7c-0.1,0-0.1-0.1-0.2-0.2s-0.2-0.1-0.3-0.2s-0.2-0.1-0.3-0.2
		c-0.1-0.1-0.2-0.1-0.2-0.1c0,0-0.1,0-0.2,0c-0.1,0-0.2,0-0.3-0.1s-0.2,0-0.3-0.1c-0.1,0-0.1,0-0.2,0c0-0.1-0.1-0.1-0.2-0.1
		c-0.1,0-0.2,0-0.3,0c-0.1,0-0.2,0-0.3,0.1c-0.1,0-0.2,0-0.3,0c-0.1,0-0.3,0-0.4,0.1c-0.1,0-0.3,0.1-0.4,0.2
		c-0.1,0.1-0.2,0.2-0.4,0.2c-0.1,0.1-0.2,0.2-0.3,0.3c0,0-0.1,0.1-0.1,0.1c-0.1,0.1-0.1,0.1-0.2,0.2c-0.1,0.1-0.1,0.1-0.2,0.2
		c-0.1,0.1-0.1,0.1-0.1,0.1c-0.3,0.3-0.5,0.7-0.6,1.2c-0.1,0.3-0.1,0.7-0.2,1C215.7,47.8,215.6,48.2,215.6,48.5z M220.5,37.1
		c-0.1,0.2-0.1,0.3-0.2,0.5c-0.1,0.2-0.2,0.5-0.4,0.7c-0.1,0.2-0.2,0.5-0.4,0.7c0,0-0.1,0.1-0.1,0.2c0,0.1-0.1,0.1-0.1,0.2
		c0,0.1-0.1,0.1-0.1,0.2l-0.1,0.1c0,0,0,0-0.1,0c-0.1,0-0.1,0-0.1,0c-0.1,0-0.2,0-0.3,0s-0.2-0.1-0.2-0.1c-0.1,0-0.2-0.1-0.2-0.1
		c-0.1,0-0.2-0.1-0.3-0.1c0,0,0,0-0.1,0c0,0-0.1,0-0.1,0c0,0-0.1,0-0.1,0s-0.1,0-0.1,0c-0.1,0-0.2,0-0.2-0.1c0-0.1,0-0.2,0-0.3
		c0,0,0,0,0-0.1c0,0,0,0,0,0c0,0,0-0.1,0.1-0.1s0.1-0.1,0.1-0.1c0.1-0.1,0.1-0.3,0.2-0.4c0-0.1,0.1-0.2,0.2-0.4c0,0,0,0,0-0.1
		c0,0,0,0,0-0.1s0-0.1,0.1-0.2c0-0.1,0-0.1,0.1-0.2c0-0.1,0-0.1,0-0.1c0,0,0-0.1,0.1-0.1c0-0.1,0.1-0.2,0.2-0.2s0.1-0.2,0.2-0.2
		c0-0.1,0.1-0.1,0.1-0.1c0,0,0,0,0,0c0,0,0,0,0,0c0,0,0.1-0.1,0.1-0.1c0.1,0,0.1,0,0.2,0h0c0,0,0,0,0.1,0c0,0,0.1,0,0.1,0
		c0,0,0,0,0.1,0s0.1,0,0.2,0c0.1,0,0.1,0,0.1,0c0,0,0.1,0,0.1,0s0,0,0.1,0c0,0,0.1,0,0.1,0c0,0,0.1,0,0.2,0s0.2,0,0.2,0h0h0
		c0,0,0.1,0,0.1,0c0.1,0,0.1,0,0.1,0c0,0,0,0,0.1,0c0,0,0.1,0,0.1,0c0,0,0.1,0,0.1,0c0,0,0.1,0,0.1,0.1l0,0.1c0,0,0,0,0,0v0v0
		C220.7,36.7,220.6,36.9,220.5,37.1z"/>
	<path class="st9" d="M230.5,56.4c0-0.2,0-0.4,0-0.8c0-0.3,0-0.7,0-1.2c0-0.4,0-0.9,0-1.4c0-0.5,0-1,0-1.4c0-0.4,0-0.8,0-1.2
		c0-0.3,0-0.6,0-0.8c0,0,0-0.1,0-0.2c0-0.1,0-0.3,0-0.4c0-0.2,0-0.3,0-0.5c0-0.2,0-0.3,0-0.5c0-0.2,0-0.3,0-0.4c0-0.1,0-0.2,0-0.2
		c0,0,0-0.1,0-0.2c0-0.1,0-0.3,0-0.4c0-0.2,0-0.3,0-0.5c0-0.2,0-0.3,0-0.4c0-0.1,0-0.2,0-0.3c0-0.2,0-0.3,0-0.5c0-0.2,0-0.4,0-0.5
		c0-0.2,0-0.3,0-0.3c0,0,0-0.1,0-0.1c0-0.1,0-0.1,0-0.1c0,0,0.1-0.1,0.2-0.1c0.1,0,0.2,0,0.3,0c0,0,0.1,0,0.1,0s0.1,0,0.2,0
		c0.1,0,0.2,0,0.2,0c0.1,0,0.1,0,0.1,0c0,0,0.1,0,0.2,0c0.1,0,0.2,0,0.4-0.1c0.1,0,0.3,0,0.4-0.1c0.1,0,0.2,0,0.2,0c0,0,0.2,0,0.4,0
		c0.2,0,0.4,0,0.6-0.1c0.2,0,0.4,0,0.6-0.1c0.2,0,0.3,0,0.4,0c0,0,0,0,0.1,0c0,0,0,0,0,0c0,0,0,0,0,0c0.1,0,0.2,0,0.2,0.1
		c0,0.1,0.1,0.2,0.1,0.3s0,0.3,0,0.5c0,0.2,0,0.4,0,0.6c0,0,0.1-0.1,0.2-0.2c0.1-0.1,0.3-0.2,0.4-0.4s0.4-0.3,0.6-0.4
		c0.2-0.1,0.4-0.2,0.6-0.3c0.2-0.1,0.4-0.1,0.6-0.2c0.2-0.1,0.3-0.1,0.5-0.1c0.2,0,0.3-0.1,0.5-0.1c0.2,0,0.4,0,0.6,0
		c0.3,0,0.6,0,1,0.1c0.3,0.1,0.7,0.2,0.9,0.3c0,0,0.1,0,0.2,0.1s0.2,0.1,0.3,0.2c0.1,0.1,0.2,0.1,0.3,0.2s0.2,0.1,0.2,0.1
		c0,0,0,0,0.1,0.1c0,0,0.1,0.1,0.2,0.1c0.1,0,0.1,0.1,0.2,0.1c0.1,0,0.1,0.1,0.1,0.1c0,0,0.1,0,0.1,0.1c0.1,0,0.1,0.1,0.1,0.1
		c0,0,0.1,0.1,0.2,0.2c0.1,0.1,0.2,0.2,0.3,0.3c0.1,0.1,0.2,0.2,0.3,0.3s0.1,0.2,0.2,0.2h0h0c0,0,0.1-0.1,0.1-0.1s0.1-0.1,0.1-0.1
		c0.3-0.3,0.6-0.5,0.9-0.7c0.3-0.2,0.6-0.4,0.8-0.6c0.3-0.2,0.6-0.3,0.9-0.4c0.3-0.1,0.7-0.2,1.1-0.3c0.2,0,0.4,0,0.6,0
		c0.2,0,0.4,0,0.6,0c0.3,0,0.5,0,0.8,0.1c0.2,0.1,0.5,0.2,0.7,0.3c0,0,0,0,0.1,0c0,0,0.1,0,0.1,0.1c0,0,0.1,0,0.1,0.1
		c0,0,0.1,0,0.1,0c0,0,0,0,0.1,0s0.1,0,0.1,0c0,0,0.1,0,0.1,0c0,0,0,0,0,0c0.2,0.1,0.3,0.2,0.4,0.3c0.1,0.1,0.2,0.2,0.3,0.3
		c0.1,0.1,0.1,0.2,0.2,0.3c0.1,0.1,0.1,0.2,0.2,0.2c0.2,0.2,0.3,0.4,0.4,0.6c0.1,0.2,0.2,0.4,0.3,0.6c0.1,0.2,0.1,0.4,0.2,0.5
		c0.1,0.2,0.1,0.4,0.2,0.5c0.1,0.6,0.3,1.2,0.3,1.8c0.1,0.6,0.2,1.1,0.2,1.6s0.1,1.1,0.2,1.6c0,0.5,0.1,1,0.2,1.5c0,0.1,0,0.3,0,0.6
		c0,0.3,0,0.6,0,1c0,0.3,0,0.7,0,1c0,0.3,0,0.5,0,0.6c0,0,0,0.1,0,0.2c0,0.1,0,0.2,0,0.3c0,0.1,0,0.2,0,0.3s0,0.2,0,0.2v0.1
		c0,0.1,0,0.2-0.1,0.2c0,0-0.1,0.1-0.2,0.1c-0.1,0-0.2,0-0.2,0.1c-0.1,0-0.2,0-0.2,0.1c-0.1,0-0.2,0.1-0.3,0c0,0-0.1,0-0.2,0l-2.3,0
		c-0.1,0-0.2,0-0.2,0c-0.1,0-0.1-0.1-0.2-0.1c0-0.1-0.1-0.1-0.1-0.2c0-0.1,0-0.1,0-0.1c0-0.6,0-1.1,0-1.7c0-0.6,0-1.1,0-1.7
		c0,0,0-0.1,0-0.2c0-0.1,0-0.2,0-0.4c0-0.1,0-0.3,0-0.4c0-0.1,0-0.2,0-0.2c0-0.1,0-0.3,0-0.5s0-0.4,0-0.6c0-0.2,0-0.4,0-0.5
		c0-0.2,0-0.3,0-0.3c0,0,0-0.1,0-0.3c0-0.2-0.1-0.3-0.1-0.5c0-0.2-0.1-0.4-0.1-0.6s-0.1-0.4-0.1-0.5c0-0.2-0.1-0.3-0.1-0.4
		c0-0.1-0.1-0.2-0.2-0.4c-0.2-0.4-0.5-0.8-0.9-1.1c-0.4-0.3-0.8-0.4-1.3-0.4c-0.1,0-0.2,0-0.3,0s-0.2,0-0.4,0.1c0,0-0.1,0.1-0.2,0.1
		c-0.1,0-0.2,0-0.3,0.1c-0.1,0-0.2,0.1-0.2,0.1c-0.1,0-0.1,0.1-0.1,0.1c0,0-0.1,0.1-0.1,0.2c-0.1,0.1-0.1,0.1-0.1,0.1
		c0,0,0,0.1-0.1,0.2c0,0.1-0.1,0.2-0.2,0.3s-0.1,0.2-0.2,0.3c0,0.1-0.1,0.1-0.1,0.2c-0.1,0.2-0.1,0.3-0.2,0.5
		c-0.1,0.1-0.1,0.3-0.1,0.4s-0.1,0.3-0.1,0.4c0,0.1-0.1,0.3-0.1,0.5c0,0.1-0.1,0.2-0.1,0.4c0,0.2,0,0.3,0,0.5c0,0.2,0,0.3,0,0.5
		c0,0.2,0,0.3,0,0.4v0.5c0,0,0,0.1,0,0.2s0,0.2,0,0.3c0,0.1,0,0.2,0,0.3c0,0.1,0,0.2,0,0.2c0,0,0,0.2,0,0.4s0,0.4,0,0.7s0,0.5,0,0.7
		c0,0.2,0,0.3,0,0.4c0,0.3,0,0.5,0,0.7c0,0.2,0,0.5,0,0.7c0,0.1,0,0.2,0,0.3s-0.1,0.2-0.2,0.2c-0.1,0-0.2,0-0.3,0
		c-0.1,0-0.2,0-0.3,0c-0.1,0-0.2,0-0.3,0.1c-0.1,0-0.2,0-0.3,0.1c-0.2,0-0.4,0-0.6,0c-0.2,0-0.4,0-0.6,0c-0.2,0-0.3,0-0.4,0
		c-0.1,0-0.1,0-0.1,0c0,0-0.1,0-0.2,0c-0.1,0-0.1,0-0.2-0.1c-0.1,0-0.1-0.1-0.2-0.1c0-0.1-0.1-0.1-0.1-0.2c0-0.1,0-0.1,0-0.2
		c0,0,0-0.1,0-0.2v-0.2c0,0,0-0.1,0-0.2c0-0.1,0-0.3,0-0.4s0-0.3,0-0.4s0-0.2,0-0.2c0-0.1,0-0.3,0-0.5s0-0.3,0-0.5
		c0-0.2,0-0.4,0-0.5c0-0.2,0-0.3,0-0.5c0,0,0-0.2,0-0.3c0-0.2,0-0.3,0-0.5c0-0.2,0-0.4,0-0.5c0-0.2,0-0.3,0-0.3c0,0,0-0.1,0-0.2
		s0-0.3,0-0.5c0-0.2,0-0.3,0-0.5c0-0.2,0-0.3,0-0.4c0-0.2,0-0.3-0.1-0.5c0-0.2-0.1-0.3-0.1-0.4s-0.1-0.3-0.2-0.4s-0.1-0.3-0.2-0.5
		c-0.2-0.5-0.5-0.9-1-1.1c-0.4-0.2-0.9-0.4-1.5-0.4c-0.2,0-0.4,0-0.5,0.1c-0.2,0.1-0.3,0.1-0.5,0.2s-0.3,0.2-0.4,0.3
		c-0.1,0.1-0.3,0.3-0.4,0.4c-0.1,0.1-0.3,0.3-0.3,0.5c-0.1,0.2-0.2,0.4-0.2,0.7s-0.1,0.5-0.2,0.7c0,0.2-0.1,0.5-0.1,0.7
		c0,0.1,0,0.2,0,0.3c0,0.1,0,0.3,0,0.5c0,0.2,0,0.3,0,0.5c0,0.1,0,0.2,0,0.3v0.7v0.7c0,0,0,0.1,0,0.2c0,0.1,0,0.2,0,0.3
		c0,0.1,0,0.2,0,0.3c0,0.1,0,0.1,0,0.2v0.6c0,0.1,0,0.1,0,0.3c0,0.1,0,0.2,0,0.4s0,0.3,0,0.4c0,0.1,0,0.2,0,0.2c0,0,0,0.1,0,0.3
		c0,0.1,0,0.3,0,0.4s0,0.3,0,0.4c0,0.1,0,0.2,0,0.2v0.2c0,0,0,0.1-0.1,0.1c0,0.1-0.1,0.1-0.1,0.1c-0.2,0-0.3,0-0.3,0
		c-0.1,0-0.1,0-0.1,0c0,0-0.1,0-0.1,0c-0.1,0-0.1,0-0.1,0h-0.3c-0.2,0-0.5,0-0.6,0c-0.2,0-0.4,0-0.6,0c-0.2,0-0.4,0-0.6,0
		c-0.2,0-0.4,0-0.6,0h-0.1c-0.1,0.1-0.2,0.1-0.3,0c-0.1,0-0.1-0.1-0.2-0.3c-0.1-0.2-0.1-0.4-0.1-0.7
		C230.5,57.3,230.5,56.9,230.5,56.4z"/>
	<path class="st9" d="M268.8,56.5c-0.1-0.1-0.1-0.1-0.1-0.2c0-0.1,0-0.2,0-0.3c0,0,0,0,0-0.1s0-0.1,0-0.1v-0.1c0-0.1,0-0.2,0.1-0.3
		c0-0.1,0.1-0.2,0.1-0.3v-0.1c0,0-0.1,0-0.1,0c-0.1,0-0.1,0-0.1,0c-0.1,0-0.1,0.1-0.3,0.2c-0.1,0.1-0.3,0.2-0.4,0.3
		c-0.1,0.1-0.3,0.2-0.4,0.2s-0.2,0.1-0.3,0.1l-1,0.4h-0.1c0,0,0,0-0.1,0c0,0-0.1,0-0.1,0s-0.1,0-0.1,0c0,0-0.1,0-0.1,0h-0.7
		c-0.2,0-0.3,0-0.4,0s-0.2,0-0.3,0c-0.1,0-0.2,0-0.3,0c-0.1,0-0.3,0-0.4,0c0,0-0.1,0-0.1,0c-0.1,0-0.1,0-0.2,0c-0.1,0-0.2,0-0.2,0
		c-0.1,0-0.1,0-0.1,0h-0.6l-0.4-0.2c-0.1,0-0.1-0.1-0.3-0.1c-0.1-0.1-0.2-0.1-0.4-0.2c-0.1-0.1-0.3-0.1-0.4-0.2
		c-0.1-0.1-0.2-0.1-0.3-0.1c0,0-0.1-0.1-0.2-0.1c-0.1,0-0.2-0.1-0.3-0.1c-0.1-0.1-0.2-0.1-0.3-0.1c-0.1,0-0.1-0.1-0.2-0.1
		c0,0,0,0-0.1-0.1c0,0-0.1-0.1-0.1-0.1s-0.1-0.1-0.1-0.1c0,0-0.1-0.1-0.1-0.1c-0.2-0.2-0.4-0.4-0.6-0.7c-0.2-0.2-0.4-0.5-0.6-0.7
		c-0.2-0.2-0.3-0.5-0.4-0.8c-0.1-0.3-0.2-0.7-0.3-1.1c-0.1-0.4-0.1-0.7-0.2-1.1c0-0.4,0-0.7,0-0.9c0-0.3,0-0.6,0-0.9
		c0-0.3,0-0.6,0-0.8c0-0.3,0.1-0.5,0.1-0.8c0.1-0.3,0.1-0.6,0.2-0.9c0,0,0-0.2,0.1-0.3c0.1-0.2,0.1-0.3,0.2-0.5s0.1-0.3,0.1-0.4
		s0.1-0.1,0,0c0.1-0.4,0.3-0.7,0.5-1c0.2-0.3,0.5-0.6,0.7-0.9c0.3-0.3,0.6-0.5,0.9-0.8c0.3-0.2,0.6-0.5,1-0.7c0,0,0.1-0.1,0.2-0.1
		s0.2-0.1,0.4-0.2c0.1-0.1,0.3-0.1,0.4-0.2c0.1-0.1,0.2-0.1,0.3-0.1c0,0,0,0,0.1,0c0,0,0.1,0,0.2,0c0.1,0,0.1,0,0.2,0
		c0.1,0,0.1,0,0.2,0c0,0,0.1,0,0.2,0c0.1,0,0.1,0,0.1,0h2.4c0.3,0.1,0.6,0.2,0.8,0.2c0.3,0.1,0.5,0.2,0.8,0.3
		c0.2,0.1,0.5,0.2,0.7,0.4c0.2,0.1,0.5,0.3,0.7,0.6h0c0,0,0-0.1,0-0.1c0,0,0-0.1,0-0.1s0-0.1,0-0.1c0,0,0-0.1,0-0.1c0,0,0,0,0-0.1
		s0-0.1,0-0.2c0-0.1,0-0.1,0-0.2c0,0,0-0.1,0-0.1c0-0.1,0-0.1,0-0.2s0.1-0.1,0.1-0.2c0.1,0,0.1-0.1,0.2-0.1c0.1,0,0.1,0,0.2,0
		c0.4,0,0.8,0,1.1,0c0.3,0,0.6,0,0.9,0c0.3,0,0.6,0,0.9,0.1c0.3,0,0.7,0.1,1.1,0.1c0,0,0.1,0,0.1,0.1c0.1,0,0.1,0.1,0.1,0.1
		c0,0.1,0,0.2,0,0.3c0,0.1,0,0.2,0,0.3c0,0.1,0,0.2,0,0.3c0,0.1,0,0.2,0,0.3c0,0,0,0.1,0,0.1c0,0.1,0,0.2,0,0.3c0,0.1,0,0.2,0,0.3
		c0,0.1,0,0.1,0,0.1c0,0,0,0.1,0,0.2c0,0.1,0,0.1,0,0.2c0,0,0,0.1,0,0.2c0,0.1,0,0.2,0,0.2c0,0.1,0,0.2,0,0.2c0,0.1,0,0.1,0,0.1
		c0,0,0,0.1,0,0.1s0,0.1,0,0.1l0,2.9v0.2c0,0,0,0.2,0,0.5c0,0.3,0,0.7,0,1.2c0,0.5,0,1,0,1.5c0,0.6,0,1.1,0,1.7c0,0.6,0,1.1,0,1.6
		c0,0.5,0,0.9,0,1.2c0,0,0,0.1,0,0.2c0,0.1,0,0.2,0,0.3c0,0.1,0,0.2,0,0.3c0,0.1,0,0.2,0,0.2v0.1v0.1c0,0-0.1,0.1-0.2,0.1
		c-0.1,0-0.1,0.1-0.2,0.1c-0.2,0-0.4,0-0.6,0c-0.2,0-0.3,0-0.5,0.1c-0.1,0-0.3,0-0.4,0.1s-0.3,0-0.6,0h-0.6c-0.1,0-0.2,0-0.3,0
		c-0.1,0-0.3,0-0.4,0c-0.2,0-0.3,0-0.4,0C268.9,56.6,268.8,56.6,268.8,56.5z M261.6,48.5c0,0.4,0.1,0.8,0.2,1.2
		c0.1,0.4,0.3,0.7,0.6,1.1c0,0,0,0.1,0.1,0.1c0,0.1,0.1,0.1,0.1,0.1c0.2,0.2,0.4,0.4,0.6,0.6c0.2,0.2,0.4,0.4,0.7,0.5
		c0.2,0.2,0.5,0.3,0.7,0.4c0.3,0.1,0.5,0.1,0.9,0.1c0.3,0,0.5,0,0.8-0.1s0.5-0.2,0.8-0.3c0,0,0.1,0,0.1-0.1c0.1,0,0.1-0.1,0.2-0.1
		c0.1,0,0.1-0.1,0.2-0.1c0,0,0.1,0,0.1,0c0.3-0.2,0.5-0.5,0.7-0.8c0.2-0.3,0.4-0.6,0.5-1c0.1-0.4,0.2-0.7,0.2-1.1s0.1-0.7,0.1-1.1
		c0,0,0-0.1,0-0.2c0-0.1,0-0.2,0-0.3s0-0.2,0-0.3s0-0.2,0-0.2l-0.1-0.2c0-0.1-0.1-0.1-0.1-0.2c0-0.1-0.1-0.1-0.1-0.1
		c-0.2-0.3-0.3-0.6-0.5-0.9c-0.2-0.3-0.4-0.5-0.7-0.7c-0.1,0-0.1-0.1-0.2-0.2s-0.2-0.1-0.3-0.2s-0.2-0.1-0.3-0.2
		c-0.1-0.1-0.2-0.1-0.2-0.1c0,0-0.1,0-0.2,0c-0.1,0-0.2,0-0.3-0.1s-0.2,0-0.3-0.1c-0.1,0-0.1,0-0.2,0c0-0.1-0.1-0.1-0.2-0.1
		c-0.1,0-0.2,0-0.3,0c-0.1,0-0.2,0-0.3,0.1c-0.1,0-0.2,0-0.3,0c-0.1,0-0.3,0-0.4,0.1c-0.1,0-0.3,0.1-0.4,0.2
		c-0.1,0.1-0.2,0.2-0.4,0.2c-0.1,0.1-0.2,0.2-0.3,0.3c0,0-0.1,0.1-0.1,0.1c-0.1,0.1-0.1,0.1-0.2,0.2c-0.1,0.1-0.1,0.1-0.2,0.2
		c-0.1,0.1-0.1,0.1-0.1,0.1c-0.3,0.3-0.5,0.7-0.6,1.2c-0.1,0.3-0.1,0.7-0.2,1C261.6,47.8,261.6,48.2,261.6,48.5z"/>
	<path class="st9" d="M277.2,58.7l-0.7-0.1c-0.1,0-0.1,0-0.1,0c0,0,0,0,0-0.1c0-0.1,0-0.2,0-0.2c0-0.1,0-0.2,0-0.2
		c0-0.1,0-0.2-0.1-0.2c0-0.1-0.1-0.1-0.1-0.2c0,0,0-0.1,0-0.1s0-0.1,0.1-0.1c0-0.1,0-0.4,0-0.8s0-0.9,0-1.4c0-0.6,0-1.2-0.1-1.9
		s0-1.3-0.1-2c0-0.7,0-1.3-0.1-1.9c0-0.6,0-1.1,0-1.5c0-0.1,0-0.2,0-0.3c0-0.1,0-0.3-0.1-0.4s0-0.3-0.1-0.4s0-0.3,0-0.3
		c0,0,0-0.1,0-0.1c0-0.1,0-0.1,0-0.1c0,0-0.1,0-0.1-0.1s0-0.1,0-0.1l0-0.1l0.1-0.1c0-0.2,0-0.4,0-0.5c0-0.2,0-0.3,0-0.5
		c0,0,0-0.1,0-0.1c0,0,0-0.1,0-0.2s0-0.1,0-0.2c0,0,0-0.1,0-0.1c0-0.1,0-0.1,0-0.1s0-0.1,0-0.1c0-0.1,0-0.1,0-0.1c0,0,0,0,0-0.1
		c0-0.1,0-0.1,0-0.2s0-0.1,0-0.2c0,0,0-0.1,0-0.1l0,0c0,0,0,0,0,0c0.3,0,0.5-0.1,0.8-0.1c0.3-0.1,0.5-0.1,0.8-0.1c0.3,0,0.7,0,1,0
		c0.3,0,0.6,0.1,1,0.1c0,0,0.1,0,0.2,0c0.1,0,0.2,0,0.2,0s0.1,0,0.2,0.1c0.1,0,0.1,0.1,0.1,0.2c0,0.1,0,0.3,0,0.3c0,0.1,0,0.2,0,0.4
		v0c0,0,0,0,0,0s0,0,0,0c0.1,0,0.1-0.1,0.2-0.1c0.1,0,0.2-0.1,0.3-0.1s0.2-0.1,0.3-0.1c0.1,0,0.2-0.1,0.2-0.1c0,0,0.1,0,0.1-0.1
		s0.1-0.1,0.2-0.1c0,0,0.1,0,0.1,0c0.1,0,0.1,0,0.1-0.1c0.1,0,0.2-0.1,0.3-0.1c0.1,0,0.2-0.1,0.3-0.1c0.1,0,0.2-0.1,0.3-0.1
		c0.1,0,0.2-0.1,0.2-0.1c0.2-0.1,0.4-0.1,0.6-0.1c0.2,0,0.4,0,0.7,0c0.4,0,0.7,0,1.1,0.1c0.4,0.1,0.8,0.2,1.1,0.3
		c0.4,0.1,0.7,0.3,1,0.5c0.3,0.2,0.5,0.4,0.7,0.5c0.1,0.1,0.1,0.1,0.2,0.2c0.1,0.1,0.1,0.2,0.2,0.3c0.1,0.1,0.1,0.2,0.2,0.3
		c0,0.1,0.1,0.2,0.1,0.3c0,0,0,0.1-0.1,0.2c0,0.1-0.1,0.2-0.2,0.2c-0.1,0.1-0.1,0.2-0.2,0.2s-0.1,0.1-0.2,0.1c0,0,0,0-0.1,0
		c0,0-0.1,0-0.1,0.1c0,0-0.1,0-0.1,0.1c0,0-0.1,0-0.1,0c0,0-0.1,0.1-0.1,0.1c-0.1,0-0.1,0.1-0.2,0.1c-0.1,0-0.1,0.1-0.2,0.1
		c-0.1,0-0.1,0.1-0.1,0.1c-0.1,0.1-0.3,0.2-0.4,0.3c-0.1,0.1-0.3,0.2-0.4,0.3c-0.1,0.1-0.3,0.2-0.5,0.3c-0.2,0.1-0.3,0.1-0.5,0.1
		H285c0,0,0,0-0.1,0c0,0-0.1,0-0.1,0c-0.3-0.2-0.7-0.3-1.1-0.5c-0.4-0.1-0.7-0.2-1.1-0.2c-0.3,0-0.5,0.1-0.7,0.3
		c-0.2,0.2-0.3,0.4-0.5,0.6c0,0-0.1,0.1-0.1,0.2c-0.1,0.1-0.1,0.1-0.1,0.2c0,0,0,0.1-0.1,0.2c0,0.1-0.1,0.2-0.2,0.2
		c-0.1,0.1-0.1,0.2-0.2,0.3c-0.1,0.1-0.1,0.2-0.1,0.2c-0.1,0.2-0.1,0.4-0.1,0.6c0,0.2,0,0.4,0,0.6c-0.1,0.8-0.2,1.6-0.2,2.2
		c0,0.7,0.1,1.3,0.1,1.9c0,0.4,0.1,0.9,0.1,1.3s0.1,0.9,0.1,1.3c0,0,0,0.1,0,0.3c0,0.1,0,0.3,0,0.4c0,0.1,0,0.3,0,0.4
		c0,0.1,0,0.2,0,0.3c0,0,0,0,0,0c0,0,0,0,0,0l0,0h0h0c0,0,0,0-0.1,0s-0.1,0-0.1,0L277.2,58.7z"/>
	<path class="st9" d="M301.8,56.5c-0.1-0.1-0.1-0.1-0.1-0.2c0-0.1,0-0.2,0-0.3c0,0,0,0,0-0.1s0-0.1,0-0.1v-0.1c0-0.1,0-0.2,0.1-0.3
		c0-0.1,0.1-0.2,0.1-0.3v-0.1c0,0-0.1,0-0.1,0c-0.1,0-0.1,0-0.1,0c-0.1,0-0.1,0.1-0.3,0.2c-0.1,0.1-0.3,0.2-0.4,0.3
		c-0.1,0.1-0.3,0.2-0.4,0.2s-0.2,0.1-0.3,0.1l-1,0.4h-0.1c0,0,0,0-0.1,0c0,0-0.1,0-0.1,0s-0.1,0-0.1,0c0,0-0.1,0-0.1,0h-0.7
		c-0.2,0-0.3,0-0.4,0s-0.2,0-0.3,0c-0.1,0-0.2,0-0.3,0c-0.1,0-0.3,0-0.4,0c0,0-0.1,0-0.1,0c-0.1,0-0.1,0-0.2,0c-0.1,0-0.2,0-0.2,0
		c-0.1,0-0.1,0-0.1,0h-0.6l-0.4-0.2c-0.1,0-0.1-0.1-0.3-0.1c-0.1-0.1-0.2-0.1-0.4-0.2c-0.1-0.1-0.3-0.1-0.4-0.2
		c-0.1-0.1-0.2-0.1-0.3-0.1c0,0-0.1-0.1-0.2-0.1c-0.1,0-0.2-0.1-0.3-0.1c-0.1-0.1-0.2-0.1-0.3-0.1c-0.1,0-0.1-0.1-0.2-0.1
		c0,0,0,0-0.1-0.1c0,0-0.1-0.1-0.1-0.1s-0.1-0.1-0.1-0.1c0,0-0.1-0.1-0.1-0.1c-0.2-0.2-0.4-0.4-0.6-0.7c-0.2-0.2-0.4-0.5-0.6-0.7
		c-0.2-0.2-0.3-0.5-0.4-0.8c-0.1-0.3-0.2-0.7-0.3-1.1c-0.1-0.4-0.1-0.7-0.2-1.1c0-0.4,0-0.7,0-0.9c0-0.3,0-0.6,0-0.9
		c0-0.3,0-0.6,0-0.8c0-0.3,0.1-0.5,0.1-0.8c0.1-0.3,0.1-0.6,0.2-0.9c0,0,0-0.2,0.1-0.3c0.1-0.2,0.1-0.3,0.2-0.5s0.1-0.3,0.1-0.4
		s0.1-0.1,0,0c0.1-0.4,0.3-0.7,0.5-1c0.2-0.3,0.5-0.6,0.7-0.9c0.3-0.3,0.6-0.5,0.9-0.8c0.3-0.2,0.6-0.5,1-0.7c0,0,0.1-0.1,0.2-0.1
		s0.2-0.1,0.4-0.2c0.1-0.1,0.3-0.1,0.4-0.2c0.1-0.1,0.2-0.1,0.3-0.1c0,0,0,0,0.1,0c0,0,0.1,0,0.2,0c0.1,0,0.1,0,0.2,0
		c0.1,0,0.1,0,0.2,0c0,0,0.1,0,0.2,0c0.1,0,0.1,0,0.1,0h2.4c0.3,0.1,0.6,0.2,0.8,0.2c0.3,0.1,0.5,0.2,0.8,0.3
		c0.2,0.1,0.5,0.2,0.7,0.4c0.2,0.1,0.5,0.3,0.7,0.6h0c0,0,0-0.1,0-0.1c0,0,0-0.1,0-0.1s0-0.1,0-0.1c0,0,0-0.1,0-0.1c0,0,0,0,0-0.1
		s0-0.1,0-0.2c0-0.1,0-0.1,0-0.2c0,0,0-0.1,0-0.1c0-0.1,0-0.1,0-0.2s0.1-0.1,0.1-0.2c0.1,0,0.1-0.1,0.2-0.1c0.1,0,0.1,0,0.2,0
		c0.4,0,0.8,0,1.1,0c0.3,0,0.6,0,0.9,0c0.3,0,0.6,0,0.9,0.1c0.3,0,0.7,0.1,1.1,0.1c0,0,0.1,0,0.1,0.1c0.1,0,0.1,0.1,0.1,0.1
		c0,0.1,0,0.2,0,0.3c0,0.1,0,0.2,0,0.3c0,0.1,0,0.2,0,0.3c0,0.1,0,0.2,0,0.3c0,0,0,0.1,0,0.1c0,0.1,0,0.2,0,0.3c0,0.1,0,0.2,0,0.3
		c0,0.1,0,0.1,0,0.1c0,0,0,0.1,0,0.2c0,0.1,0,0.1,0,0.2c0,0,0,0.1,0,0.2c0,0.1,0,0.2,0,0.2c0,0.1,0,0.2,0,0.2c0,0.1,0,0.1,0,0.1
		c0,0,0,0.1,0,0.1s0,0.1,0,0.1l0,2.9v0.2c0,0,0,0.2,0,0.5c0,0.3,0,0.7,0,1.2c0,0.5,0,1,0,1.5c0,0.6,0,1.1,0,1.7c0,0.6,0,1.1,0,1.6
		c0,0.5,0,0.9,0,1.2c0,0,0,0.1,0,0.2c0,0.1,0,0.2,0,0.3c0,0.1,0,0.2,0,0.3c0,0.1,0,0.2,0,0.2v0.1v0.1c0,0-0.1,0.1-0.2,0.1
		c-0.1,0-0.1,0.1-0.2,0.1c-0.2,0-0.4,0-0.6,0c-0.2,0-0.3,0-0.5,0.1c-0.1,0-0.3,0-0.4,0.1s-0.3,0-0.6,0h-0.6c-0.1,0-0.2,0-0.3,0
		c-0.1,0-0.3,0-0.4,0c-0.2,0-0.3,0-0.4,0C302,56.6,301.9,56.6,301.8,56.5z M294.6,48.5c0,0.4,0.1,0.8,0.2,1.2
		c0.1,0.4,0.3,0.7,0.6,1.1c0,0,0,0.1,0.1,0.1c0,0.1,0.1,0.1,0.1,0.1c0.2,0.2,0.4,0.4,0.6,0.6c0.2,0.2,0.4,0.4,0.7,0.5
		c0.2,0.2,0.5,0.3,0.7,0.4c0.3,0.1,0.5,0.1,0.9,0.1c0.3,0,0.5,0,0.8-0.1s0.5-0.2,0.8-0.3c0,0,0.1,0,0.1-0.1c0.1,0,0.1-0.1,0.2-0.1
		c0.1,0,0.1-0.1,0.2-0.1c0,0,0.1,0,0.1,0c0.3-0.2,0.5-0.5,0.7-0.8c0.2-0.3,0.4-0.6,0.5-1c0.1-0.4,0.2-0.7,0.2-1.1s0.1-0.7,0.1-1.1
		c0,0,0-0.1,0-0.2c0-0.1,0-0.2,0-0.3s0-0.2,0-0.3s0-0.2,0-0.2l-0.1-0.2c0-0.1-0.1-0.1-0.1-0.2c0-0.1-0.1-0.1-0.1-0.1
		c-0.2-0.3-0.3-0.6-0.5-0.9c-0.2-0.3-0.4-0.5-0.7-0.7c-0.1,0-0.1-0.1-0.2-0.2s-0.2-0.1-0.3-0.2s-0.2-0.1-0.3-0.2
		c-0.1-0.1-0.2-0.1-0.2-0.1c0,0-0.1,0-0.2,0c-0.1,0-0.2,0-0.3-0.1s-0.2,0-0.3-0.1c-0.1,0-0.1,0-0.2,0c0-0.1-0.1-0.1-0.2-0.1
		c-0.1,0-0.2,0-0.3,0c-0.1,0-0.2,0-0.3,0.1c-0.1,0-0.2,0-0.3,0c-0.1,0-0.3,0-0.4,0.1c-0.1,0-0.3,0.1-0.4,0.2
		c-0.1,0.1-0.2,0.2-0.4,0.2c-0.1,0.1-0.2,0.2-0.3,0.3c0,0-0.1,0.1-0.1,0.1c-0.1,0.1-0.1,0.1-0.2,0.2c-0.1,0.1-0.1,0.1-0.2,0.2
		c-0.1,0.1-0.1,0.1-0.1,0.1c-0.3,0.3-0.5,0.7-0.6,1.2c-0.1,0.3-0.1,0.7-0.2,1C294.6,47.8,294.6,48.2,294.6,48.5z"/>
</g>
<g>
	<path class="st0" d="M122.4,36.3c0-0.2,0-0.3,0.1-0.4c0.1-0.1,0.2-0.2,0.4-0.2c0.2,0,0.5,0,0.7,0.1s0.5,0.1,0.7,0.1
		c0.2,0,0.4,0,0.7,0c0.2,0,0.4,0,0.6-0.1c0,0,0.1,0,0.2,0c0.1,0,0.2,0,0.4,0c0.1,0,0.2,0,0.3,0s0.2,0,0.2,0c0,0,0,0,0.1,0
		c0,0,0,0,0,0c0,0,0,0,0,0c0.1,0,0.2,0.1,0.3,0.2c0,0.1,0.1,0.2,0.1,0.3c0,0.1,0,0.1,0,0.2c0,0.1,0,0.1,0,0.2c0,0.2,0,0.4,0,0.6
		c0,0.2,0,0.4,0,0.5c0,0.2,0,0.4,0,0.5c0,0.2,0,0.4,0,0.6c0,0.4,0,0.9,0,1.4c0,0.5,0,0.9,0.1,1.4c0,0,0,0.1,0,0.2s0,0.2,0,0.3
		c0,0.1,0,0.2,0,0.3s0,0.1,0,0.2c0,0,0,0,0,0.1s0,0.1,0,0.1c0,0,0,0.1,0,0.1c0,0,0,0.1,0,0.1c0,0,0,0,0,0.1c0,0,0,0.1,0,0.2
		s0,0.1,0,0.2c0,0.1,0,0.1,0,0.1c0.1,0.8,0.2,1.5,0.3,2.2s0.2,1.5,0.4,2.2c0,0,0,0,0,0.1c0,0,0,0.1,0,0.2c0,0.1,0,0.1,0,0.2
		c0,0,0,0.1,0,0.1c0,0,0,0,0,0.1c0,0,0,0.1,0,0.1c0,0,0,0.1,0,0.1c0,0,0,0.1,0,0.1c0,0,0,0,0,0.1c0,0,0,0.1,0,0.1c0,0,0,0.1,0,0.1
		l0.2,0.7c0,0.1,0,0.2,0.1,0.4c0,0.2,0.1,0.3,0.1,0.5c0,0.2,0.1,0.3,0.2,0.4c0.1,0.1,0.1,0.3,0.2,0.3c0.2,0.3,0.4,0.5,0.7,0.6
		c0.3,0.1,0.6,0.1,0.9,0h0c0,0,0,0,0.1,0c0,0,0,0,0.1,0c0,0,0.1-0.1,0.2-0.1s0.1-0.1,0.2-0.2c0.1-0.1,0.1-0.1,0.2-0.2
		c0.1-0.1,0.1-0.1,0.1-0.1c0,0,0,0,0.1-0.1s0.1-0.1,0.1-0.1c0.2-0.3,0.4-0.7,0.6-1.1s0.3-0.8,0.3-1.2c0-0.1,0-0.2,0-0.4
		c0-0.2,0-0.4,0-0.5c0-0.2,0-0.3,0-0.5c0-0.2,0-0.3,0-0.3c0,0,0,0,0-0.1c0-0.1,0-0.1,0-0.2c0-0.1,0-0.1,0-0.2c0-0.1,0-0.1,0-0.2
		c0-0.5,0-1,0-1.5c0-0.5-0.1-1-0.1-1.4c0,0,0-0.1,0-0.2c0-0.1,0-0.2,0-0.4c0-0.1,0-0.2,0-0.4s0-0.2,0-0.2c0-0.1,0-0.2,0-0.4
		c0-0.2,0-0.4,0-0.6c0-0.2,0-0.4,0-0.6c0-0.2,0-0.3,0-0.4c0,0,0-0.1,0-0.3s0-0.3-0.1-0.5c0-0.2,0-0.3-0.1-0.4c0-0.1,0-0.2,0-0.3
		c0,0,0-0.1,0-0.3c0-0.2-0.1-0.4-0.1-0.7c0-0.3-0.1-0.6-0.1-0.8c0-0.3,0-0.5,0-0.7v0c0,0,0,0,0,0c0,0,0,0,0,0c0-0.1,0-0.1,0-0.1
		c0,0,0,0,0-0.1s0,0,0,0c0,0,0.1,0,0.1,0c0.5,0,1-0.1,1.5-0.1c0.5,0,1,0,1.5,0c0.1,0,0.2,0,0.3,0c0.1,0,0.2,0,0.3,0
		c0.1,0,0.2,0,0.3,0c0.1,0,0.1,0,0.2,0.1c0,0,0.1,0.1,0.1,0.1c0.1,0,0.1,0,0.2,0c0,0,0.1,0,0.1,0c0,0,0.1,0,0.1,0.1
		c0,0.2,0.1,0.3,0.1,0.5c0,0.1,0,0.3,0,0.4s0,0.3,0,0.4c0,0.1,0,0.3,0,0.5v0.4c0,0,0,0.1,0,0.2c0,0.1,0,0.2,0,0.2
		c0,0.1-0.1,0.2-0.1,0.3c0,0.2,0,0.3,0,0.5s0,0.4,0.1,0.5c0,0.2,0,0.3,0,0.3c0,0.3,0,0.6-0.1,1c0,0.3,0,0.7-0.1,1
		c0,0.3,0,0.6-0.1,0.9c0,0.3,0,0.6,0,0.8c0,0,0,0.1,0,0.2c0,0.1,0,0.3,0,0.4c0,0.2,0,0.3,0,0.4c0,0.1,0,0.2,0,0.2c0,0,0,0.1,0,0.2
		s0,0.2,0,0.3c0,0.1,0,0.2,0,0.3c0,0.1,0,0.1,0,0.2l-0.1,0.1l-0.4,4.8c-0.1,0.6-0.3,1.2-0.5,1.6s-0.4,0.9-0.7,1.2
		c-0.3,0.4-0.6,0.7-0.9,0.9c-0.4,0.3-0.8,0.5-1.2,0.7c-0.2,0-0.3,0.1-0.5,0.2c-0.2,0.1-0.4,0.2-0.5,0.2c-0.2,0.1-0.4,0.1-0.5,0.2
		c-0.2,0.1-0.4,0.1-0.5,0.1c-0.3,0-0.5,0.1-0.7,0.1c-0.2,0-0.4,0-0.5,0c-0.2,0-0.3,0-0.4,0c-0.1,0-0.3,0-0.4-0.1
		c-0.3,0-0.6-0.1-0.8-0.1c-0.3,0-0.5-0.1-0.8-0.3c-0.3-0.2-0.6-0.3-0.8-0.5c-0.2-0.2-0.5-0.4-0.7-0.6s-0.4-0.4-0.6-0.7
		c-0.2-0.2-0.4-0.5-0.6-0.8c-0.2-0.2-0.3-0.5-0.3-0.7s-0.1-0.5-0.2-0.7c0-0.1-0.1-0.2-0.1-0.4c-0.1-0.2-0.1-0.3-0.1-0.4
		c0,0,0-0.1,0-0.3c0-0.1,0-0.3,0-0.5c0-0.2,0-0.3,0-0.5c0-0.1,0-0.2,0-0.3c0,0,0-0.1,0-0.2c0-0.1,0-0.2-0.1-0.3s0-0.2-0.1-0.3
		c0-0.1,0-0.1,0-0.2c-0.1-0.8-0.1-1.6-0.2-2.4c0-0.8,0-1.6-0.1-2.5v-0.1c0,0,0-0.1,0-0.2c0-0.1,0-0.2,0-0.2s0-0.2,0-0.2
		c0-0.1,0-0.1,0-0.1c0,0,0-0.2,0-0.3c0-0.2,0-0.3-0.1-0.5s0-0.4-0.1-0.5c0-0.2,0-0.3,0-0.3c0,0,0-0.1,0-0.1c0-0.1,0-0.2,0-0.3
		c0-0.1,0-0.2,0-0.3c0-0.1,0-0.1,0-0.1c0-0.4,0-0.8-0.1-1.1s-0.1-0.7-0.1-1.1c0,0,0-0.1,0-0.2s0-0.2,0-0.2c0,0,0,0,0-0.1
		c0,0,0-0.1,0-0.1c-0.1-0.3-0.1-0.5-0.1-0.8C122.4,36.9,122.4,36.6,122.4,36.3z"/>
	<path class="st0" d="M141.6,54c-0.3-0.1-0.5-0.3-0.8-0.4c-0.2-0.1-0.5-0.3-0.7-0.5c-0.1-0.1-0.2-0.2-0.4-0.3
		c-0.1-0.1-0.2-0.2-0.4-0.3c-0.1-0.1-0.2-0.2-0.3-0.3c-0.1-0.1-0.1-0.2-0.1-0.4c0,0,0-0.1,0-0.2c0-0.1,0-0.1,0-0.1
		c0,0,0.1-0.1,0.1-0.1c0,0,0-0.1,0.1-0.1s0,0,0,0c0,0,0.1-0.1,0.1-0.1c0.1-0.1,0.1-0.1,0.2-0.2c0.1-0.1,0.1-0.1,0.2-0.2
		c0.1-0.1,0.1-0.1,0.1-0.1c0,0,0.1-0.1,0.1-0.1c0.1-0.1,0.1-0.1,0.1-0.2c0,0,0.1-0.1,0.2-0.2s0.2-0.1,0.2-0.2
		c0.1-0.1,0.1-0.1,0.2-0.2c0.1-0.1,0.1-0.1,0.1-0.1c0,0,0.1-0.1,0.2-0.1c0.1,0,0.2-0.1,0.2-0.1h0.2c0.1,0,0.1,0,0.2,0.1
		c0.1,0.1,0.1,0.1,0.2,0.2c0.1,0.1,0.1,0.1,0.2,0.2c0.1,0.1,0.1,0.1,0.2,0.2c0.2,0.1,0.4,0.2,0.5,0.3c0.2,0.1,0.4,0.2,0.6,0.4
		c0.2,0.1,0.5,0.2,0.8,0.3c0.3,0.1,0.6,0.1,0.9,0.2c0.1,0,0.1,0.1,0.3,0c0.1,0,0.3-0.1,0.4-0.2s0.2-0.2,0.3-0.3s0.2-0.2,0.2-0.3
		c0-0.1,0-0.1,0-0.2s0-0.2,0-0.3s0-0.2-0.1-0.3c0-0.1-0.1-0.2-0.1-0.2c-0.3-0.4-0.6-0.7-0.9-1s-0.7-0.5-1.1-0.8c0,0-0.1,0-0.2-0.1
		c-0.1-0.1-0.2-0.1-0.3-0.2c-0.1-0.1-0.2-0.1-0.3-0.2c-0.1-0.1-0.2-0.1-0.2-0.1c0,0-0.1,0-0.1-0.1c-0.1,0-0.2-0.1-0.2-0.2
		c-0.1-0.1-0.2-0.1-0.3-0.2c-0.1-0.1-0.1-0.1-0.2-0.1c0-0.1-0.1-0.1-0.3-0.2s-0.2-0.2-0.3-0.2c-0.1-0.1-0.1-0.2-0.3-0.3
		c-0.1-0.2-0.2-0.3-0.4-0.5c-0.1-0.2-0.3-0.4-0.4-0.5c-0.1-0.2-0.2-0.3-0.2-0.3c-0.3-0.4-0.5-0.8-0.6-1.3c-0.1-0.5-0.1-0.9-0.1-1.4
		c0-0.2,0-0.4,0.1-0.6c0.1-0.2,0.1-0.5,0.2-0.7c0.1-0.2,0.2-0.4,0.2-0.5c0.1-0.1,0.1-0.2,0.1-0.2c0-0.1,0.1-0.1,0.2-0.2
		c0.1-0.1,0.1-0.2,0.2-0.2c0.1-0.1,0.1-0.1,0.2-0.2c0.1-0.1,0.1-0.1,0.2-0.2c0.2-0.2,0.4-0.3,0.6-0.4c0.2-0.1,0.4-0.2,0.6-0.2
		c0.2-0.1,0.4-0.1,0.7-0.1s0.5-0.1,0.7-0.1c0.2,0,0.5,0,0.9-0.1s0.8,0,1.3,0.1h0c0.3,0,0.7,0.1,1,0.3c0.3,0.1,0.7,0.3,1,0.4
		c0.3,0.2,0.6,0.4,0.9,0.6c0.3,0.2,0.6,0.5,0.8,0.7c0,0,0.1,0.1,0.2,0.2c0.1,0.1,0.1,0.2,0.2,0.3c0.1,0.1,0.1,0.2,0.2,0.2
		c0.1,0.1,0.1,0.1,0.1,0.1c0,0,0.1,0.1,0.1,0.1c0,0,0,0.1,0,0.1c0,0,0,0.1,0,0.1c0,0,0,0.1-0.1,0.1c-0.1,0-0.2,0.1-0.3,0.3
		c-0.1,0.1-0.2,0.3-0.4,0.4c-0.1,0.1-0.2,0.3-0.3,0.4s-0.2,0.2-0.2,0.1c0,0-0.1,0.1-0.2,0.2c-0.1,0.1-0.2,0.2-0.3,0.3
		c-0.1,0.1-0.2,0.2-0.3,0.3s-0.2,0.1-0.2,0.2c-0.1,0.1-0.1,0.1-0.2,0.2c0,0-0.1,0.1-0.2,0.1h-0.1c0,0,0,0-0.1,0c0,0-0.1,0-0.1-0.1
		c0,0-0.1,0-0.1-0.1c0,0-0.1,0-0.1,0c-0.1,0-0.2-0.1-0.4-0.2c-0.2-0.1-0.4-0.2-0.6-0.4c-0.2-0.1-0.4-0.2-0.5-0.4
		c-0.2-0.1-0.3-0.2-0.4-0.2c0,0-0.1,0-0.2,0s-0.1,0-0.2,0s-0.2,0-0.2,0s-0.1,0-0.2,0h0c-0.1,0-0.1,0-0.2,0.1c-0.1,0-0.1,0.1-0.2,0.1
		c-0.1,0-0.1,0.1-0.1,0.2c0,0.1,0,0.1,0,0.2c0,0.1,0,0.2,0,0.3c0,0.1,0,0.2,0.1,0.3c0.2,0.3,0.5,0.6,0.8,0.8c0.3,0.2,0.6,0.4,1,0.5
		c0.5,0.2,1,0.4,1.5,0.7c0.4,0.3,0.8,0.6,1.3,1c0,0,0.1,0.1,0.2,0.2c0.1,0.1,0.2,0.2,0.3,0.3s0.2,0.2,0.3,0.3
		c0.1,0.1,0.1,0.2,0.2,0.2c0,0,0.1,0.1,0.2,0.2c0.1,0.1,0.1,0.1,0.1,0.1c0,0,0.1,0.1,0.1,0.2c0.1,0.1,0.1,0.2,0.2,0.3
		c0.1,0.1,0.1,0.2,0.2,0.3s0.1,0.1,0.1,0.2c0,0.1,0.1,0.2,0.1,0.3c0,0.1,0,0.3,0.1,0.4c0,0.1,0,0.3,0,0.4s0,0.3,0,0.4c0,0,0,0,0,0.1
		c0,0,0,0.1,0,0.2s0,0.1,0,0.2c0,0.1,0,0.1,0,0.1c-0.1,0.8-0.3,1.4-0.7,2c-0.4,0.6-0.9,1.1-1.5,1.6c-0.2,0.2-0.4,0.3-0.6,0.4
		c-0.2,0.1-0.4,0.2-0.7,0.2c-0.2,0.1-0.5,0.1-0.8,0.1c-0.3,0-0.6,0.1-1,0.1c-0.3,0-0.6,0-0.9-0.1c-0.3-0.1-0.6-0.1-0.9-0.2
		c-0.3-0.1-0.6-0.2-0.9-0.3C142.2,54.2,141.9,54.1,141.6,54z"/>
	<path class="st0" d="M164.7,56.5c-0.1-0.1-0.1-0.1-0.1-0.2c0-0.1,0-0.2,0-0.3c0,0,0,0,0-0.1s0-0.1,0-0.1v-0.1c0-0.1,0-0.2,0.1-0.3
		c0-0.1,0.1-0.2,0.1-0.3v-0.1c0,0-0.1,0-0.1,0c-0.1,0-0.1,0-0.1,0c-0.1,0-0.1,0.1-0.3,0.2c-0.1,0.1-0.3,0.2-0.4,0.3
		c-0.1,0.1-0.3,0.2-0.4,0.2s-0.2,0.1-0.3,0.1l-1,0.4H162c0,0,0,0-0.1,0c0,0-0.1,0-0.1,0s-0.1,0-0.1,0c0,0-0.1,0-0.1,0h-0.7
		c-0.2,0-0.3,0-0.4,0s-0.2,0-0.3,0c-0.1,0-0.2,0-0.3,0c-0.1,0-0.3,0-0.4,0c0,0-0.1,0-0.1,0c-0.1,0-0.1,0-0.2,0c-0.1,0-0.2,0-0.2,0
		c-0.1,0-0.1,0-0.1,0H158l-0.4-0.2c-0.1,0-0.1-0.1-0.3-0.1c-0.1-0.1-0.2-0.1-0.4-0.2c-0.1-0.1-0.3-0.1-0.4-0.2
		c-0.1-0.1-0.2-0.1-0.3-0.1c0,0-0.1-0.1-0.2-0.1c-0.1,0-0.2-0.1-0.3-0.1c-0.1-0.1-0.2-0.1-0.3-0.1c-0.1,0-0.1-0.1-0.2-0.1
		c0,0,0,0-0.1-0.1c0,0-0.1-0.1-0.1-0.1s-0.1-0.1-0.1-0.1c0,0-0.1-0.1-0.1-0.1c-0.2-0.2-0.4-0.4-0.6-0.7c-0.2-0.2-0.4-0.5-0.6-0.7
		c-0.2-0.2-0.3-0.5-0.4-0.8c-0.1-0.3-0.2-0.7-0.3-1.1c-0.1-0.4-0.1-0.7-0.2-1.1c0-0.4,0-0.7,0-0.9c0-0.3,0-0.6,0-0.9
		c0-0.3,0-0.6,0-0.8c0-0.3,0.1-0.5,0.1-0.8c0.1-0.3,0.1-0.6,0.2-0.9c0,0,0-0.2,0.1-0.3c0.1-0.2,0.1-0.3,0.2-0.5s0.1-0.3,0.1-0.4
		s0.1-0.1,0,0c0.1-0.4,0.3-0.7,0.5-1c0.2-0.3,0.5-0.6,0.7-0.9c0.3-0.3,0.6-0.5,0.9-0.8c0.3-0.2,0.6-0.5,1-0.7c0,0,0.1-0.1,0.2-0.1
		s0.2-0.1,0.4-0.2c0.1-0.1,0.3-0.1,0.4-0.2c0.1-0.1,0.2-0.1,0.3-0.1c0,0,0,0,0.1,0c0,0,0.1,0,0.2,0c0.1,0,0.1,0,0.2,0
		c0.1,0,0.1,0,0.2,0c0,0,0.1,0,0.2,0c0.1,0,0.1,0,0.1,0h2.4c0.3,0.1,0.6,0.2,0.8,0.2c0.3,0.1,0.5,0.2,0.8,0.3
		c0.2,0.1,0.5,0.2,0.7,0.4c0.2,0.1,0.5,0.3,0.7,0.6h0c0,0,0-0.1,0-0.1c0,0,0-0.1,0-0.1s0-0.1,0-0.1c0,0,0-0.1,0-0.1c0,0,0,0,0-0.1
		s0-0.1,0-0.2c0-0.1,0-0.1,0-0.2c0,0,0-0.1,0-0.1c0-0.1,0-0.1,0-0.2s0.1-0.1,0.1-0.2c0.1,0,0.1-0.1,0.2-0.1c0.1,0,0.1,0,0.2,0
		c0.4,0,0.8,0,1.1,0c0.3,0,0.6,0,0.9,0c0.3,0,0.6,0,0.9,0.1c0.3,0,0.7,0.1,1.1,0.1c0,0,0.1,0,0.1,0.1c0.1,0,0.1,0.1,0.1,0.1
		c0,0.1,0,0.2,0,0.3c0,0.1,0,0.2,0,0.3c0,0.1,0,0.2,0,0.3c0,0.1,0,0.2,0,0.3c0,0,0,0.1,0,0.1c0,0.1,0,0.2,0,0.3c0,0.1,0,0.2,0,0.3
		c0,0.1,0,0.1,0,0.1c0,0,0,0.1,0,0.2c0,0.1,0,0.1,0,0.2c0,0,0,0.1,0,0.2c0,0.1,0,0.2,0,0.2c0,0.1,0,0.2,0,0.2c0,0.1,0,0.1,0,0.1
		c0,0,0,0.1,0,0.1s0,0.1,0,0.1l0,2.9v0.2c0,0,0,0.2,0,0.5c0,0.3,0,0.7,0,1.2c0,0.5,0,1,0,1.5c0,0.6,0,1.1,0,1.7c0,0.6,0,1.1,0,1.6
		c0,0.5,0,0.9,0,1.2c0,0,0,0.1,0,0.2c0,0.1,0,0.2,0,0.3c0,0.1,0,0.2,0,0.3c0,0.1,0,0.2,0,0.2v0.1v0.1c0,0-0.1,0.1-0.2,0.1
		c-0.1,0-0.1,0.1-0.2,0.1c-0.2,0-0.4,0-0.6,0c-0.2,0-0.3,0-0.5,0.1c-0.1,0-0.3,0-0.4,0.1s-0.3,0-0.6,0h-0.6c-0.1,0-0.2,0-0.3,0
		c-0.1,0-0.3,0-0.4,0c-0.2,0-0.3,0-0.4,0C164.9,56.6,164.8,56.6,164.7,56.5z M157.5,48.5c0,0.4,0.1,0.8,0.2,1.2
		c0.1,0.4,0.3,0.7,0.6,1.1c0,0,0,0.1,0.1,0.1c0,0.1,0.1,0.1,0.1,0.1c0.2,0.2,0.4,0.4,0.6,0.6c0.2,0.2,0.4,0.4,0.7,0.5
		c0.2,0.2,0.5,0.3,0.7,0.4c0.3,0.1,0.5,0.1,0.9,0.1c0.3,0,0.5,0,0.8-0.1s0.5-0.2,0.8-0.3c0,0,0.1,0,0.1-0.1c0.1,0,0.1-0.1,0.2-0.1
		c0.1,0,0.1-0.1,0.2-0.1c0,0,0.1,0,0.1,0c0.3-0.2,0.5-0.5,0.7-0.8c0.2-0.3,0.4-0.6,0.5-1c0.1-0.4,0.2-0.7,0.2-1.1s0.1-0.7,0.1-1.1
		c0,0,0-0.1,0-0.2c0-0.1,0-0.2,0-0.3s0-0.2,0-0.3s0-0.2,0-0.2l-0.1-0.2c0-0.1-0.1-0.1-0.1-0.2c0-0.1-0.1-0.1-0.1-0.1
		c-0.2-0.3-0.3-0.6-0.5-0.9c-0.2-0.3-0.4-0.5-0.7-0.7c-0.1,0-0.1-0.1-0.2-0.2s-0.2-0.1-0.3-0.2s-0.2-0.1-0.3-0.2
		c-0.1-0.1-0.2-0.1-0.2-0.1c0,0-0.1,0-0.2,0c-0.1,0-0.2,0-0.3-0.1s-0.2,0-0.3-0.1c-0.1,0-0.1,0-0.2,0c0-0.1-0.1-0.1-0.2-0.1
		c-0.1,0-0.2,0-0.3,0c-0.1,0-0.2,0-0.3,0.1c-0.1,0-0.2,0-0.3,0c-0.1,0-0.3,0-0.4,0.1c-0.1,0-0.3,0.1-0.4,0.2
		c-0.1,0.1-0.2,0.2-0.4,0.2c-0.1,0.1-0.2,0.2-0.3,0.3c0,0-0.1,0.1-0.1,0.1c-0.1,0.1-0.1,0.1-0.2,0.2c-0.1,0.1-0.1,0.1-0.2,0.2
		c-0.1,0.1-0.1,0.1-0.1,0.1c-0.3,0.3-0.5,0.7-0.6,1.2c-0.1,0.3-0.1,0.7-0.2,1C157.5,47.8,157.5,48.2,157.5,48.5z"/>
	<path class="st0" d="M173.2,54.7l-0.7-0.1c-0.1,0-0.1,0-0.1,0c0,0,0,0,0-0.1c0-0.1,0-0.2,0-0.2c0-0.1,0-0.2,0-0.2
		c0-0.1,0-0.2-0.1-0.2c0-0.1-0.1-0.1-0.1-0.2c0,0,0-0.1,0-0.1s0-0.1,0.1-0.1c0-0.1,0-0.4,0-0.8s0-0.9,0-1.4c0-0.6,0-1.2-0.1-1.9
		s0-1.3-0.1-2c0-0.7,0-1.3-0.1-1.9c0-0.6,0-1.1,0-1.5c0-0.1,0-0.2,0-0.3c0-0.1,0-0.3-0.1-0.4s0-0.3-0.1-0.4s0-0.3,0-0.3
		c0,0,0-0.1,0-0.1c0-0.1,0-0.1,0-0.1c0,0-0.1,0-0.1-0.1s0-0.1,0-0.1l0-0.1l0.1-0.1c0-0.2,0-0.4,0-0.5c0-0.2,0-0.3,0-0.5
		c0,0,0-0.1,0-0.1c0,0,0-0.1,0-0.2s0-0.1,0-0.2c0,0,0-0.1,0-0.1c0-0.1,0-0.1,0-0.1s0-0.1,0-0.1c0-0.1,0-0.1,0-0.1c0,0,0,0,0-0.1
		c0-0.1,0-0.1,0-0.2s0-0.1,0-0.2c0,0,0-0.1,0-0.1l0,0c0,0,0,0,0,0c0.3,0,0.5-0.1,0.8-0.1c0.3-0.1,0.5-0.1,0.8-0.1c0.3,0,0.7,0,1,0
		c0.3,0,0.6,0.1,1,0.1c0,0,0.1,0,0.2,0c0.1,0,0.2,0,0.2,0s0.1,0,0.2,0.1c0.1,0,0.1,0.1,0.1,0.2c0,0.1,0,0.3,0,0.3c0,0.1,0,0.2,0,0.4
		v0c0,0,0,0,0,0s0,0,0,0c0.1,0,0.1-0.1,0.2-0.1c0.1,0,0.2-0.1,0.3-0.1s0.2-0.1,0.3-0.1c0.1,0,0.2-0.1,0.2-0.1c0,0,0.1,0,0.1-0.1
		s0.1-0.1,0.2-0.1c0,0,0.1,0,0.1,0c0.1,0,0.1,0,0.1-0.1c0.1,0,0.2-0.1,0.3-0.1c0.1,0,0.2-0.1,0.3-0.1c0.1,0,0.2-0.1,0.3-0.1
		c0.1,0,0.2-0.1,0.2-0.1c0.2-0.1,0.4-0.1,0.6-0.1c0.2,0,0.4,0,0.7,0c0.4,0,0.7,0,1.1,0.1c0.4,0.1,0.8,0.2,1.1,0.3
		c0.4,0.1,0.7,0.3,1,0.5c0.3,0.2,0.5,0.4,0.7,0.5c0.1,0.1,0.1,0.1,0.2,0.2c0.1,0.1,0.1,0.2,0.2,0.3c0.1,0.1,0.1,0.2,0.2,0.3
		c0,0.1,0.1,0.2,0.1,0.3c0,0,0,0.1-0.1,0.2c0,0.1-0.1,0.2-0.2,0.2c-0.1,0.1-0.1,0.2-0.2,0.2s-0.1,0.1-0.2,0.1c0,0,0,0-0.1,0
		c0,0-0.1,0-0.1,0.1c0,0-0.1,0-0.1,0.1c0,0-0.1,0-0.1,0c0,0-0.1,0.1-0.1,0.1c-0.1,0-0.1,0.1-0.2,0.1c-0.1,0-0.1,0.1-0.2,0.1
		c-0.1,0-0.1,0.1-0.1,0.1c-0.1,0.1-0.3,0.2-0.4,0.3c-0.1,0.1-0.3,0.2-0.4,0.3c-0.1,0.1-0.3,0.2-0.5,0.3c-0.2,0.1-0.3,0.1-0.5,0.1
		h-0.2c0,0,0,0-0.1,0c0,0-0.1,0-0.1,0c-0.3-0.2-0.7-0.3-1.1-0.5c-0.4-0.1-0.7-0.2-1.1-0.2c-0.3,0-0.5,0.1-0.7,0.3
		c-0.2,0.2-0.3,0.4-0.5,0.6c0,0-0.1,0.1-0.1,0.2c-0.1,0.1-0.1,0.1-0.1,0.2c0,0,0,0.1-0.1,0.2c0,0.1-0.1,0.2-0.2,0.2
		c-0.1,0.1-0.1,0.2-0.2,0.3c-0.1,0.1-0.1,0.2-0.1,0.2c-0.1,0.2-0.1,0.4-0.1,0.6c0,0.2,0,0.4,0,0.6c-0.1,0.8-0.2,1.6-0.2,2.2
		c0,0.7,0.1,1.3,0.1,1.9c0,0.4,0.1,0.9,0.1,1.3s0.1,0.9,0.1,1.3c0,0,0,0.1,0,0.3c0,0.1,0,0.3,0,0.4c0,0.1,0,0.3,0,0.4
		c0,0.1,0,0.2,0,0.3c0,0,0,0,0,0c0,0,0,0,0,0l0,0h0h0c0,0,0,0-0.1,0s-0.1,0-0.1,0L173.2,54.7z"/>
	<path class="st0" d="M195.8,52c0,0-0.1-0.1-0.1-0.3c-0.1-0.1-0.1-0.3-0.2-0.4c-0.1-0.1-0.1-0.3-0.2-0.4c0-0.1-0.1-0.2-0.1-0.3
		c0,0,0-0.1,0-0.2c0-0.1,0-0.2,0-0.2c-0.1-0.8-0.1-1.5,0-2.3c0.1-0.8,0.2-1.6,0.4-2.3c0.2-0.6,0.4-1.2,0.7-1.7
		c0.3-0.6,0.6-1.1,1-1.5c0.4-0.5,0.8-0.9,1.3-1.2c0.5-0.3,1.1-0.6,1.7-0.7c0.4-0.1,0.9-0.2,1.3-0.3c0.5-0.1,0.9-0.1,1.4-0.2
		c0,0,0.1,0,0.2,0c0.1,0,0.1,0,0.2,0s0.1,0,0.2,0c0,0,0.1,0,0.1,0c0.4,0,0.8,0,1.2,0c0.4,0,0.8,0.1,1.2,0.2c0.3,0.1,0.7,0.2,1.1,0.3
		s0.8,0.2,1.1,0.4c0,0,0.1,0,0.2,0.1s0.2,0.1,0.3,0.2c0.1,0.1,0.2,0.1,0.3,0.2c0.1,0,0.2,0.1,0.2,0.1c0.2,0.2,0.4,0.3,0.5,0.4
		s0.2,0.2,0.3,0.2c0.1,0.1,0.2,0.2,0.3,0.3c0.1,0.1,0.3,0.3,0.5,0.5c0,0,0.1,0.1,0.1,0.1c0,0,0.1,0.1,0.1,0.2c0,0.1,0,0.2,0,0.3
		s-0.1,0.2-0.2,0.3c0,0-0.1,0.1-0.2,0.2c-0.1,0.1-0.3,0.2-0.5,0.4c-0.2,0.1-0.4,0.3-0.5,0.4c-0.2,0.2-0.3,0.3-0.4,0.4
		c-0.2,0.3-0.4,0.5-0.6,0.5s-0.4,0.1-0.5,0h0h0c-0.1,0-0.3,0-0.3-0.1c-0.1,0-0.1-0.1-0.2-0.1c0,0-0.1-0.1-0.2-0.1s-0.1-0.1-0.3-0.2
		c-0.1-0.1-0.3-0.2-0.5-0.2c-0.2-0.1-0.4-0.1-0.5-0.1c-0.1,0-0.3-0.1-0.4-0.1c-0.2,0-0.3-0.1-0.5-0.1c-0.2,0-0.3-0.1-0.5-0.1
		s-0.2,0-0.2,0c-0.1,0-0.1,0-0.2,0c0,0-0.1,0-0.2,0c-0.1,0-0.1,0-0.1,0c-0.2,0-0.3,0-0.5,0c-0.1,0-0.3,0-0.4,0.1
		c-0.3,0.1-0.6,0.3-0.8,0.6c-0.2,0.2-0.4,0.5-0.6,0.8s-0.3,0.6-0.4,0.9s-0.2,0.6-0.3,0.9c-0.1,0.2-0.1,0.5-0.2,0.7
		c0,0.3,0,0.5,0,0.8c0,0.4,0.1,0.7,0.2,1c0.1,0.3,0.3,0.5,0.4,0.8c0.2,0.2,0.4,0.4,0.7,0.6c0.3,0.2,0.6,0.3,0.9,0.3
		c0.1,0,0.2,0,0.3,0.1c0.1,0,0.3,0,0.4,0.1c0.1,0,0.2,0,0.3,0.1c0.1,0,0.1,0,0.2,0c0,0,0,0,0.1,0c0.1,0,0.1,0,0.2,0
		c0.1,0,0.2,0,0.2,0c0.1,0,0.1,0,0.2,0c0,0,0.1,0,0.1,0c0.1,0,0.1,0,0.2,0c0.1,0,0.2,0,0.2,0c0.1,0,0.1,0,0.1,0
		c0.1-0.1,0.2-0.1,0.3-0.1c0.1,0,0.2-0.1,0.3-0.1c0.2-0.1,0.3-0.2,0.6-0.3c0.2-0.1,0.4-0.3,0.5-0.4c0.2-0.1,0.3-0.2,0.4-0.3
		c0.1-0.1,0.3-0.1,0.5-0.2c0.1,0,0.2,0,0.2,0s0.2,0,0.2,0.1c0,0,0.1,0.1,0.1,0.1c0.1,0.1,0.1,0.1,0.1,0.1c0,0,0.1,0.1,0.2,0.1
		c0.1,0.1,0.2,0.1,0.3,0.2c0.1,0.1,0.2,0.1,0.3,0.2c0.1,0.1,0.2,0.1,0.2,0.1l0.1,0c0,0,0.1,0.1,0.2,0.1c0.1,0.1,0.2,0.1,0.2,0.2
		s0.2,0.1,0.2,0.2s0.1,0.1,0.1,0.1c0,0,0.1,0.1,0.1,0.1s0,0,0,0c0,0,0,0,0,0.1c0,0,0,0.1,0,0.1c0,0.1,0,0.2,0,0.2c0,0,0,0.1-0.1,0.2
		c-0.4,0.6-0.9,1.1-1.3,1.5s-1,0.9-1.5,1.4c-0.4,0.2-0.7,0.4-1,0.5c-0.3,0.1-0.6,0.2-0.9,0.3c-0.3,0.1-0.5,0.1-0.8,0.1
		c-0.3,0-0.5,0-0.8,0.1c0,0-0.1,0-0.2,0c-0.1,0-0.2,0-0.3,0s-0.2,0-0.3,0c-0.1,0-0.2,0-0.2,0c-0.4,0-0.8-0.1-1.2-0.1
		c-0.4,0-0.8-0.1-1.2-0.3c0,0-0.1,0-0.2-0.1c-0.1,0-0.2-0.1-0.3-0.1c-0.1,0-0.2-0.1-0.3-0.1c-0.1,0-0.2,0-0.2-0.1
		c-0.3-0.1-0.7-0.3-1-0.5s-0.7-0.4-1-0.7c-0.3-0.3-0.6-0.5-0.9-0.8c-0.3-0.3-0.5-0.6-0.8-0.9c0,0-0.1-0.1-0.1-0.2
		c-0.1-0.1-0.1-0.2-0.2-0.3s-0.1-0.2-0.2-0.3c-0.1-0.1-0.1-0.2-0.1-0.2C195.9,52.2,195.9,52.1,195.8,52C195.8,52,195.8,52,195.8,52z
		"/>
	<path class="st0" d="M225.9,54.5c-0.1-0.1-0.1-0.1-0.1-0.2c0-0.1,0-0.2,0-0.3c0,0,0,0,0-0.1s0-0.1,0-0.1v-0.1c0-0.1,0-0.2,0.1-0.3
		c0-0.1,0.1-0.2,0.1-0.3v-0.1c0,0-0.1,0-0.1,0c-0.1,0-0.1,0-0.1,0c-0.1,0-0.1,0.1-0.3,0.2c-0.1,0.1-0.3,0.2-0.4,0.3
		c-0.1,0.1-0.3,0.2-0.4,0.2s-0.2,0.1-0.3,0.1l-1,0.4h-0.1c0,0,0,0-0.1,0c0,0-0.1,0-0.1,0s-0.1,0-0.1,0c0,0-0.1,0-0.1,0H222
		c-0.2,0-0.3,0-0.4,0s-0.2,0-0.3,0c-0.1,0-0.2,0-0.3,0c-0.1,0-0.3,0-0.4,0c0,0-0.1,0-0.1,0c-0.1,0-0.1,0-0.2,0c-0.1,0-0.2,0-0.2,0
		c-0.1,0-0.1,0-0.1,0h-0.6l-0.4-0.2c-0.1,0-0.1-0.1-0.3-0.1c-0.1-0.1-0.2-0.1-0.4-0.2c-0.1-0.1-0.3-0.1-0.4-0.2
		c-0.1-0.1-0.2-0.1-0.3-0.1c0,0-0.1-0.1-0.2-0.1c-0.1,0-0.2-0.1-0.3-0.1c-0.1-0.1-0.2-0.1-0.3-0.1c-0.1,0-0.1-0.1-0.2-0.1
		c0,0,0,0-0.1-0.1c0,0-0.1-0.1-0.1-0.1s-0.1-0.1-0.1-0.1c0,0-0.1-0.1-0.1-0.1c-0.2-0.2-0.4-0.4-0.6-0.7c-0.2-0.2-0.4-0.5-0.6-0.7
		c-0.2-0.2-0.3-0.5-0.4-0.8c-0.1-0.3-0.2-0.7-0.3-1.1c-0.1-0.4-0.1-0.7-0.2-1.1c0-0.4,0-0.7,0-0.9c0-0.3,0-0.6,0-0.9
		c0-0.3,0-0.6,0-0.8c0-0.3,0.1-0.5,0.1-0.8c0.1-0.3,0.1-0.6,0.2-0.9c0,0,0-0.2,0.1-0.3c0.1-0.2,0.1-0.3,0.2-0.5s0.1-0.3,0.1-0.4
		s0.1-0.1,0,0c0.1-0.4,0.3-0.7,0.5-1c0.2-0.3,0.5-0.6,0.7-0.9c0.3-0.3,0.6-0.5,0.9-0.8c0.3-0.2,0.6-0.5,1-0.7c0,0,0.1-0.1,0.2-0.1
		s0.2-0.1,0.4-0.2c0.1-0.1,0.3-0.1,0.4-0.2c0.1-0.1,0.2-0.1,0.3-0.1c0,0,0,0,0.1,0c0,0,0.1,0,0.2,0c0.1,0,0.1,0,0.2,0
		c0.1,0,0.1,0,0.2,0c0,0,0.1,0,0.2,0c0.1,0,0.1,0,0.1,0h2.4c0.3,0.1,0.6,0.2,0.8,0.2c0.3,0.1,0.5,0.2,0.8,0.3
		c0.2,0.1,0.5,0.2,0.7,0.4c0.2,0.1,0.5,0.3,0.7,0.6h0c0,0,0-0.1,0-0.1c0,0,0-0.1,0-0.1s0-0.1,0-0.1c0,0,0-0.1,0-0.1c0,0,0,0,0-0.1
		s0-0.1,0-0.2c0-0.1,0-0.1,0-0.2c0,0,0-0.1,0-0.1c0-0.1,0-0.1,0-0.2s0.1-0.1,0.1-0.2c0.1,0,0.1-0.1,0.2-0.1c0.1,0,0.1,0,0.2,0
		c0.4,0,0.8,0,1.1,0c0.3,0,0.6,0,0.9,0c0.3,0,0.6,0,0.9,0.1c0.3,0,0.7,0.1,1.1,0.1c0,0,0.1,0,0.1,0.1c0.1,0,0.1,0.1,0.1,0.1
		c0,0.1,0,0.2,0,0.3c0,0.1,0,0.2,0,0.3c0,0.1,0,0.2,0,0.3c0,0.1,0,0.2,0,0.3c0,0,0,0.1,0,0.1c0,0.1,0,0.2,0,0.3c0,0.1,0,0.2,0,0.3
		c0,0.1,0,0.1,0,0.1c0,0,0,0.1,0,0.2c0,0.1,0,0.1,0,0.2c0,0,0,0.1,0,0.2c0,0.1,0,0.2,0,0.2c0,0.1,0,0.2,0,0.2c0,0.1,0,0.1,0,0.1
		c0,0,0,0.1,0,0.1s0,0.1,0,0.1l0,2.9v0.2c0,0,0,0.2,0,0.5c0,0.3,0,0.7,0,1.2c0,0.5,0,1,0,1.5c0,0.6,0,1.1,0,1.7c0,0.6,0,1.1,0,1.6
		c0,0.5,0,0.9,0,1.2c0,0,0,0.1,0,0.2c0,0.1,0,0.2,0,0.3c0,0.1,0,0.2,0,0.3c0,0.1,0,0.2,0,0.2v0.1v0.1c0,0-0.1,0.1-0.2,0.1
		c-0.1,0-0.1,0.1-0.2,0.1c-0.2,0-0.4,0-0.6,0c-0.2,0-0.3,0-0.5,0.1c-0.1,0-0.3,0-0.4,0.1s-0.3,0-0.6,0h-0.6c-0.1,0-0.2,0-0.3,0
		c-0.1,0-0.3,0-0.4,0c-0.2,0-0.3,0-0.4,0C226,54.6,225.9,54.6,225.9,54.5z M218.6,46.5c0,0.4,0.1,0.8,0.2,1.2
		c0.1,0.4,0.3,0.7,0.6,1.1c0,0,0,0.1,0.1,0.1c0,0.1,0.1,0.1,0.1,0.1c0.2,0.2,0.4,0.4,0.6,0.6c0.2,0.2,0.4,0.4,0.7,0.5
		c0.2,0.2,0.5,0.3,0.7,0.4c0.3,0.1,0.5,0.1,0.9,0.1c0.3,0,0.5,0,0.8-0.1s0.5-0.2,0.8-0.3c0,0,0.1,0,0.1-0.1c0.1,0,0.1-0.1,0.2-0.1
		c0.1,0,0.1-0.1,0.2-0.1c0,0,0.1,0,0.1,0c0.3-0.2,0.5-0.5,0.7-0.8c0.2-0.3,0.4-0.6,0.5-1c0.1-0.4,0.2-0.7,0.2-1.1s0.1-0.7,0.1-1.1
		c0,0,0-0.1,0-0.2c0-0.1,0-0.2,0-0.3s0-0.2,0-0.3s0-0.2,0-0.2l-0.1-0.2c0-0.1-0.1-0.1-0.1-0.2c0-0.1-0.1-0.1-0.1-0.1
		c-0.2-0.3-0.3-0.6-0.5-0.9c-0.2-0.3-0.4-0.5-0.7-0.7c-0.1,0-0.1-0.1-0.2-0.2s-0.2-0.1-0.3-0.2s-0.2-0.1-0.3-0.2
		c-0.1-0.1-0.2-0.1-0.2-0.1c0,0-0.1,0-0.2,0c-0.1,0-0.2,0-0.3-0.1s-0.2,0-0.3-0.1c-0.1,0-0.1,0-0.2,0c0-0.1-0.1-0.1-0.2-0.1
		c-0.1,0-0.2,0-0.3,0c-0.1,0-0.2,0-0.3,0.1c-0.1,0-0.2,0-0.3,0c-0.1,0-0.3,0-0.4,0.1c-0.1,0-0.3,0.1-0.4,0.2
		c-0.1,0.1-0.2,0.2-0.4,0.2c-0.1,0.1-0.2,0.2-0.3,0.3c0,0-0.1,0.1-0.1,0.1c-0.1,0.1-0.1,0.1-0.2,0.2c-0.1,0.1-0.1,0.1-0.2,0.2
		c-0.1,0.1-0.1,0.1-0.1,0.1c-0.3,0.3-0.5,0.7-0.6,1.2c-0.1,0.3-0.1,0.7-0.2,1C218.7,45.8,218.6,46.2,218.6,46.5z M223.5,35.1
		c-0.1,0.2-0.1,0.3-0.2,0.5c-0.1,0.2-0.2,0.5-0.4,0.7c-0.1,0.2-0.2,0.5-0.4,0.7c0,0-0.1,0.1-0.1,0.2c0,0.1-0.1,0.1-0.1,0.2
		c0,0.1-0.1,0.1-0.1,0.2l-0.1,0.1c0,0,0,0-0.1,0c-0.1,0-0.1,0-0.1,0c-0.1,0-0.2,0-0.3,0s-0.2-0.1-0.2-0.1c-0.1,0-0.2-0.1-0.2-0.1
		c-0.1,0-0.2-0.1-0.3-0.1c0,0,0,0-0.1,0c0,0-0.1,0-0.1,0c0,0-0.1,0-0.1,0s-0.1,0-0.1,0c-0.1,0-0.2,0-0.2-0.1c0-0.1,0-0.2,0-0.3
		c0,0,0,0,0-0.1c0,0,0,0,0,0c0,0,0-0.1,0.1-0.1s0.1-0.1,0.1-0.1c0.1-0.1,0.1-0.3,0.2-0.4c0-0.1,0.1-0.2,0.2-0.4c0,0,0,0,0-0.1
		c0,0,0,0,0-0.1s0-0.1,0.1-0.2c0-0.1,0-0.1,0.1-0.2c0-0.1,0-0.1,0-0.1c0,0,0-0.1,0.1-0.1c0-0.1,0.1-0.2,0.2-0.2s0.1-0.2,0.2-0.2
		c0-0.1,0.1-0.1,0.1-0.1c0,0,0,0,0,0c0,0,0,0,0,0c0,0,0.1-0.1,0.1-0.1c0.1,0,0.1,0,0.2,0h0c0,0,0,0,0.1,0c0,0,0.1,0,0.1,0
		c0,0,0,0,0.1,0s0.1,0,0.2,0c0.1,0,0.1,0,0.1,0c0,0,0.1,0,0.1,0s0,0,0.1,0c0,0,0.1,0,0.1,0c0,0,0.1,0,0.2,0s0.2,0,0.2,0h0h0
		c0,0,0.1,0,0.1,0c0.1,0,0.1,0,0.1,0c0,0,0,0,0.1,0c0,0,0.1,0,0.1,0c0,0,0.1,0,0.1,0c0,0,0.1,0,0.1,0.1l0,0.1c0,0,0,0,0,0v0v0
		C223.7,34.7,223.6,34.9,223.5,35.1z"/>
	<path class="st0" d="M233.5,54.4c0-0.2,0-0.4,0-0.8c0-0.3,0-0.7,0-1.2c0-0.4,0-0.9,0-1.4c0-0.5,0-1,0-1.4c0-0.4,0-0.8,0-1.2
		c0-0.3,0-0.6,0-0.8c0,0,0-0.1,0-0.2c0-0.1,0-0.3,0-0.4c0-0.2,0-0.3,0-0.5c0-0.2,0-0.3,0-0.5c0-0.2,0-0.3,0-0.4c0-0.1,0-0.2,0-0.2
		c0,0,0-0.1,0-0.2c0-0.1,0-0.3,0-0.4c0-0.2,0-0.3,0-0.5c0-0.2,0-0.3,0-0.4c0-0.1,0-0.2,0-0.3c0-0.2,0-0.3,0-0.5c0-0.2,0-0.4,0-0.5
		c0-0.2,0-0.3,0-0.3c0,0,0-0.1,0-0.1c0-0.1,0-0.1,0-0.1c0,0,0.1-0.1,0.2-0.1c0.1,0,0.2,0,0.3,0c0,0,0.1,0,0.1,0s0.1,0,0.2,0
		c0.1,0,0.2,0,0.2,0c0.1,0,0.1,0,0.1,0c0,0,0.1,0,0.2,0c0.1,0,0.2,0,0.4-0.1c0.1,0,0.3,0,0.4-0.1c0.1,0,0.2,0,0.2,0c0,0,0.2,0,0.4,0
		c0.2,0,0.4,0,0.6-0.1c0.2,0,0.4,0,0.6-0.1c0.2,0,0.3,0,0.4,0c0,0,0,0,0.1,0c0,0,0,0,0,0c0,0,0,0,0,0c0.1,0,0.2,0,0.2,0.1
		c0,0.1,0.1,0.2,0.1,0.3s0,0.3,0,0.5c0,0.2,0,0.4,0,0.6c0,0,0.1-0.1,0.2-0.2c0.1-0.1,0.3-0.2,0.4-0.4s0.4-0.3,0.6-0.4
		c0.2-0.1,0.4-0.2,0.6-0.3c0.2-0.1,0.4-0.1,0.6-0.2c0.2-0.1,0.3-0.1,0.5-0.1c0.2,0,0.3-0.1,0.5-0.1c0.2,0,0.4,0,0.6,0
		c0.3,0,0.6,0,1,0.1c0.3,0.1,0.7,0.2,0.9,0.3c0,0,0.1,0,0.2,0.1s0.2,0.1,0.3,0.2c0.1,0.1,0.2,0.1,0.3,0.2s0.2,0.1,0.2,0.1
		c0,0,0,0,0.1,0.1c0,0,0.1,0.1,0.2,0.1c0.1,0,0.1,0.1,0.2,0.1c0.1,0,0.1,0.1,0.1,0.1c0,0,0.1,0,0.1,0.1c0.1,0,0.1,0.1,0.1,0.1
		c0,0,0.1,0.1,0.2,0.2c0.1,0.1,0.2,0.2,0.3,0.3c0.1,0.1,0.2,0.2,0.3,0.3s0.1,0.2,0.2,0.2h0h0c0,0,0.1-0.1,0.1-0.1s0.1-0.1,0.1-0.1
		c0.3-0.3,0.6-0.5,0.9-0.7c0.3-0.2,0.6-0.4,0.8-0.6c0.3-0.2,0.6-0.3,0.9-0.4c0.3-0.1,0.7-0.2,1.1-0.3c0.2,0,0.4,0,0.6,0
		c0.2,0,0.4,0,0.6,0c0.3,0,0.5,0,0.8,0.1c0.2,0.1,0.5,0.2,0.7,0.3c0,0,0,0,0.1,0c0,0,0.1,0,0.1,0.1c0,0,0.1,0,0.1,0.1
		c0,0,0.1,0,0.1,0c0,0,0,0,0.1,0s0.1,0,0.1,0c0,0,0.1,0,0.1,0c0,0,0,0,0,0c0.2,0.1,0.3,0.2,0.4,0.3c0.1,0.1,0.2,0.2,0.3,0.3
		c0.1,0.1,0.1,0.2,0.2,0.3c0.1,0.1,0.1,0.2,0.2,0.2c0.2,0.2,0.3,0.4,0.4,0.6c0.1,0.2,0.2,0.4,0.3,0.6c0.1,0.2,0.1,0.4,0.2,0.5
		c0.1,0.2,0.1,0.4,0.2,0.5c0.1,0.6,0.3,1.2,0.3,1.8c0.1,0.6,0.2,1.1,0.2,1.6s0.1,1.1,0.2,1.6c0,0.5,0.1,1,0.2,1.5c0,0.1,0,0.3,0,0.6
		c0,0.3,0,0.6,0,1c0,0.3,0,0.7,0,1c0,0.3,0,0.5,0,0.6c0,0,0,0.1,0,0.2c0,0.1,0,0.2,0,0.3c0,0.1,0,0.2,0,0.3s0,0.2,0,0.2v0.1
		c0,0.1,0,0.2-0.1,0.2c0,0-0.1,0.1-0.2,0.1c-0.1,0-0.2,0-0.2,0.1c-0.1,0-0.2,0-0.2,0.1c-0.1,0-0.2,0.1-0.3,0c0,0-0.1,0-0.2,0l-2.3,0
		c-0.1,0-0.2,0-0.2,0c-0.1,0-0.1-0.1-0.2-0.1c0-0.1-0.1-0.1-0.1-0.2c0-0.1,0-0.1,0-0.1c0-0.6,0-1.1,0-1.7c0-0.6,0-1.1,0-1.7
		c0,0,0-0.1,0-0.2c0-0.1,0-0.2,0-0.4c0-0.1,0-0.3,0-0.4c0-0.1,0-0.2,0-0.2c0-0.1,0-0.3,0-0.5s0-0.4,0-0.6c0-0.2,0-0.4,0-0.5
		c0-0.2,0-0.3,0-0.3c0,0,0-0.1,0-0.3c0-0.2-0.1-0.3-0.1-0.5c0-0.2-0.1-0.4-0.1-0.6s-0.1-0.4-0.1-0.5c0-0.2-0.1-0.3-0.1-0.4
		c0-0.1-0.1-0.2-0.2-0.4c-0.2-0.4-0.5-0.8-0.9-1.1c-0.4-0.3-0.8-0.4-1.3-0.4c-0.1,0-0.2,0-0.3,0s-0.2,0-0.4,0.1c0,0-0.1,0.1-0.2,0.1
		c-0.1,0-0.2,0-0.3,0.1c-0.1,0-0.2,0.1-0.2,0.1c-0.1,0-0.1,0.1-0.1,0.1c0,0-0.1,0.1-0.1,0.2c-0.1,0.1-0.1,0.1-0.1,0.1
		c0,0,0,0.1-0.1,0.2c0,0.1-0.1,0.2-0.2,0.3s-0.1,0.2-0.2,0.3c0,0.1-0.1,0.1-0.1,0.2c-0.1,0.2-0.1,0.3-0.2,0.5
		c-0.1,0.1-0.1,0.3-0.1,0.4s-0.1,0.3-0.1,0.4c0,0.1-0.1,0.3-0.1,0.5c0,0.1-0.1,0.2-0.1,0.4c0,0.2,0,0.3,0,0.5c0,0.2,0,0.3,0,0.5
		c0,0.2,0,0.3,0,0.4v0.5c0,0,0,0.1,0,0.2s0,0.2,0,0.3c0,0.1,0,0.2,0,0.3c0,0.1,0,0.2,0,0.2c0,0,0,0.2,0,0.4s0,0.4,0,0.7s0,0.5,0,0.7
		c0,0.2,0,0.3,0,0.4c0,0.3,0,0.5,0,0.7c0,0.2,0,0.5,0,0.7c0,0.1,0,0.2,0,0.3s-0.1,0.2-0.2,0.2c-0.1,0-0.2,0-0.3,0
		c-0.1,0-0.2,0-0.3,0c-0.1,0-0.2,0-0.3,0.1c-0.1,0-0.2,0-0.3,0.1c-0.2,0-0.4,0-0.6,0c-0.2,0-0.4,0-0.6,0c-0.2,0-0.3,0-0.4,0
		c-0.1,0-0.1,0-0.1,0c0,0-0.1,0-0.2,0c-0.1,0-0.1,0-0.2-0.1c-0.1,0-0.1-0.1-0.2-0.1c0-0.1-0.1-0.1-0.1-0.2c0-0.1,0-0.1,0-0.2
		c0,0,0-0.1,0-0.2v-0.2c0,0,0-0.1,0-0.2c0-0.1,0-0.3,0-0.4s0-0.3,0-0.4s0-0.2,0-0.2c0-0.1,0-0.3,0-0.5s0-0.3,0-0.5
		c0-0.2,0-0.4,0-0.5c0-0.2,0-0.3,0-0.5c0,0,0-0.2,0-0.3c0-0.2,0-0.3,0-0.5c0-0.2,0-0.4,0-0.5c0-0.2,0-0.3,0-0.3c0,0,0-0.1,0-0.2
		s0-0.3,0-0.5c0-0.2,0-0.3,0-0.5c0-0.2,0-0.3,0-0.4c0-0.2,0-0.3-0.1-0.5c0-0.2-0.1-0.3-0.1-0.4s-0.1-0.3-0.2-0.4s-0.1-0.3-0.2-0.5
		c-0.2-0.5-0.5-0.9-1-1.1c-0.4-0.2-0.9-0.4-1.5-0.4c-0.2,0-0.4,0-0.5,0.1c-0.2,0.1-0.3,0.1-0.5,0.2s-0.3,0.2-0.4,0.3
		c-0.1,0.1-0.3,0.3-0.4,0.4c-0.1,0.1-0.3,0.3-0.3,0.5c-0.1,0.2-0.2,0.4-0.2,0.7s-0.1,0.5-0.2,0.7c0,0.2-0.1,0.5-0.1,0.7
		c0,0.1,0,0.2,0,0.3c0,0.1,0,0.3,0,0.5c0,0.2,0,0.3,0,0.5c0,0.1,0,0.2,0,0.3v0.7v0.7c0,0,0,0.1,0,0.2c0,0.1,0,0.2,0,0.3
		c0,0.1,0,0.2,0,0.3c0,0.1,0,0.1,0,0.2v0.6c0,0.1,0,0.1,0,0.3c0,0.1,0,0.2,0,0.4s0,0.3,0,0.4c0,0.1,0,0.2,0,0.2c0,0,0,0.1,0,0.3
		c0,0.1,0,0.3,0,0.4s0,0.3,0,0.4c0,0.1,0,0.2,0,0.2v0.2c0,0,0,0.1-0.1,0.1c0,0.1-0.1,0.1-0.1,0.1c-0.2,0-0.3,0-0.3,0
		c-0.1,0-0.1,0-0.1,0c0,0-0.1,0-0.1,0c-0.1,0-0.1,0-0.1,0h-0.3c-0.2,0-0.5,0-0.6,0c-0.2,0-0.4,0-0.6,0c-0.2,0-0.4,0-0.6,0
		c-0.2,0-0.4,0-0.6,0h-0.1c-0.1,0.1-0.2,0.1-0.3,0c-0.1,0-0.1-0.1-0.2-0.3c-0.1-0.2-0.1-0.4-0.1-0.7
		C233.5,55.3,233.5,54.9,233.5,54.4z"/>
	<path class="st0" d="M271.8,54.5c-0.1-0.1-0.1-0.1-0.1-0.2c0-0.1,0-0.2,0-0.3c0,0,0,0,0-0.1s0-0.1,0-0.1v-0.1c0-0.1,0-0.2,0.1-0.3
		c0-0.1,0.1-0.2,0.1-0.3v-0.1c0,0-0.1,0-0.1,0c-0.1,0-0.1,0-0.1,0c-0.1,0-0.1,0.1-0.3,0.2c-0.1,0.1-0.3,0.2-0.4,0.3
		c-0.1,0.1-0.3,0.2-0.4,0.2s-0.2,0.1-0.3,0.1l-1,0.4h-0.1c0,0,0,0-0.1,0c0,0-0.1,0-0.1,0s-0.1,0-0.1,0c0,0-0.1,0-0.1,0h-0.7
		c-0.2,0-0.3,0-0.4,0s-0.2,0-0.3,0c-0.1,0-0.2,0-0.3,0c-0.1,0-0.3,0-0.4,0c0,0-0.1,0-0.1,0c-0.1,0-0.1,0-0.2,0c-0.1,0-0.2,0-0.2,0
		c-0.1,0-0.1,0-0.1,0h-0.6l-0.4-0.2c-0.1,0-0.1-0.1-0.3-0.1c-0.1-0.1-0.2-0.1-0.4-0.2c-0.1-0.1-0.3-0.1-0.4-0.2
		c-0.1-0.1-0.2-0.1-0.3-0.1c0,0-0.1-0.1-0.2-0.1c-0.1,0-0.2-0.1-0.3-0.1c-0.1-0.1-0.2-0.1-0.3-0.1c-0.1,0-0.1-0.1-0.2-0.1
		c0,0,0,0-0.1-0.1c0,0-0.1-0.1-0.1-0.1s-0.1-0.1-0.1-0.1c0,0-0.1-0.1-0.1-0.1c-0.2-0.2-0.4-0.4-0.6-0.7c-0.2-0.2-0.4-0.5-0.6-0.7
		c-0.2-0.2-0.3-0.5-0.4-0.8c-0.1-0.3-0.2-0.7-0.3-1.1c-0.1-0.4-0.1-0.7-0.2-1.1c0-0.4,0-0.7,0-0.9c0-0.3,0-0.6,0-0.9
		c0-0.3,0-0.6,0-0.8c0-0.3,0.1-0.5,0.1-0.8c0.1-0.3,0.1-0.6,0.2-0.9c0,0,0-0.2,0.1-0.3c0.1-0.2,0.1-0.3,0.2-0.5s0.1-0.3,0.1-0.4
		s0.1-0.1,0,0c0.1-0.4,0.3-0.7,0.5-1c0.2-0.3,0.5-0.6,0.7-0.9c0.3-0.3,0.6-0.5,0.9-0.8c0.3-0.2,0.6-0.5,1-0.7c0,0,0.1-0.1,0.2-0.1
		s0.2-0.1,0.4-0.2c0.1-0.1,0.3-0.1,0.4-0.2c0.1-0.1,0.2-0.1,0.3-0.1c0,0,0,0,0.1,0c0,0,0.1,0,0.2,0c0.1,0,0.1,0,0.2,0
		c0.1,0,0.1,0,0.2,0c0,0,0.1,0,0.2,0c0.1,0,0.1,0,0.1,0h2.4c0.3,0.1,0.6,0.2,0.8,0.2c0.3,0.1,0.5,0.2,0.8,0.3
		c0.2,0.1,0.5,0.2,0.7,0.4c0.2,0.1,0.5,0.3,0.7,0.6h0c0,0,0-0.1,0-0.1c0,0,0-0.1,0-0.1s0-0.1,0-0.1c0,0,0-0.1,0-0.1c0,0,0,0,0-0.1
		s0-0.1,0-0.2c0-0.1,0-0.1,0-0.2c0,0,0-0.1,0-0.1c0-0.1,0-0.1,0-0.2s0.1-0.1,0.1-0.2c0.1,0,0.1-0.1,0.2-0.1c0.1,0,0.1,0,0.2,0
		c0.4,0,0.8,0,1.1,0c0.3,0,0.6,0,0.9,0c0.3,0,0.6,0,0.9,0.1c0.3,0,0.7,0.1,1.1,0.1c0,0,0.1,0,0.1,0.1c0.1,0,0.1,0.1,0.1,0.1
		c0,0.1,0,0.2,0,0.3c0,0.1,0,0.2,0,0.3c0,0.1,0,0.2,0,0.3c0,0.1,0,0.2,0,0.3c0,0,0,0.1,0,0.1c0,0.1,0,0.2,0,0.3c0,0.1,0,0.2,0,0.3
		c0,0.1,0,0.1,0,0.1c0,0,0,0.1,0,0.2c0,0.1,0,0.1,0,0.2c0,0,0,0.1,0,0.2c0,0.1,0,0.2,0,0.2c0,0.1,0,0.2,0,0.2c0,0.1,0,0.1,0,0.1
		c0,0,0,0.1,0,0.1s0,0.1,0,0.1l0,2.9v0.2c0,0,0,0.2,0,0.5c0,0.3,0,0.7,0,1.2c0,0.5,0,1,0,1.5c0,0.6,0,1.1,0,1.7c0,0.6,0,1.1,0,1.6
		c0,0.5,0,0.9,0,1.2c0,0,0,0.1,0,0.2c0,0.1,0,0.2,0,0.3c0,0.1,0,0.2,0,0.3c0,0.1,0,0.2,0,0.2v0.1v0.1c0,0-0.1,0.1-0.2,0.1
		c-0.1,0-0.1,0.1-0.2,0.1c-0.2,0-0.4,0-0.6,0c-0.2,0-0.3,0-0.5,0.1c-0.1,0-0.3,0-0.4,0.1s-0.3,0-0.6,0h-0.6c-0.1,0-0.2,0-0.3,0
		c-0.1,0-0.3,0-0.4,0c-0.2,0-0.3,0-0.4,0C271.9,54.6,271.8,54.6,271.8,54.5z M264.6,46.5c0,0.4,0.1,0.8,0.2,1.2
		c0.1,0.4,0.3,0.7,0.6,1.1c0,0,0,0.1,0.1,0.1c0,0.1,0.1,0.1,0.1,0.1c0.2,0.2,0.4,0.4,0.6,0.6c0.2,0.2,0.4,0.4,0.7,0.5
		c0.2,0.2,0.5,0.3,0.7,0.4c0.3,0.1,0.5,0.1,0.9,0.1c0.3,0,0.5,0,0.8-0.1s0.5-0.2,0.8-0.3c0,0,0.1,0,0.1-0.1c0.1,0,0.1-0.1,0.2-0.1
		c0.1,0,0.1-0.1,0.2-0.1c0,0,0.1,0,0.1,0c0.3-0.2,0.5-0.5,0.7-0.8c0.2-0.3,0.4-0.6,0.5-1c0.1-0.4,0.2-0.7,0.2-1.1s0.1-0.7,0.1-1.1
		c0,0,0-0.1,0-0.2c0-0.1,0-0.2,0-0.3s0-0.2,0-0.3s0-0.2,0-0.2l-0.1-0.2c0-0.1-0.1-0.1-0.1-0.2c0-0.1-0.1-0.1-0.1-0.1
		c-0.2-0.3-0.3-0.6-0.5-0.9c-0.2-0.3-0.4-0.5-0.7-0.7c-0.1,0-0.1-0.1-0.2-0.2s-0.2-0.1-0.3-0.2s-0.2-0.1-0.3-0.2
		c-0.1-0.1-0.2-0.1-0.2-0.1c0,0-0.1,0-0.2,0c-0.1,0-0.2,0-0.3-0.1s-0.2,0-0.3-0.1c-0.1,0-0.1,0-0.2,0c0-0.1-0.1-0.1-0.2-0.1
		c-0.1,0-0.2,0-0.3,0c-0.1,0-0.2,0-0.3,0.1c-0.1,0-0.2,0-0.3,0c-0.1,0-0.3,0-0.4,0.1c-0.1,0-0.3,0.1-0.4,0.2
		c-0.1,0.1-0.2,0.2-0.4,0.2c-0.1,0.1-0.2,0.2-0.3,0.3c0,0-0.1,0.1-0.1,0.1c-0.1,0.1-0.1,0.1-0.2,0.2c-0.1,0.1-0.1,0.1-0.2,0.2
		c-0.1,0.1-0.1,0.1-0.1,0.1c-0.3,0.3-0.5,0.7-0.6,1.2c-0.1,0.3-0.1,0.7-0.2,1C264.6,45.8,264.6,46.2,264.6,46.5z"/>
	<path class="st0" d="M280.2,56.7l-0.7-0.1c-0.1,0-0.1,0-0.1,0c0,0,0,0,0-0.1c0-0.1,0-0.2,0-0.2c0-0.1,0-0.2,0-0.2
		c0-0.1,0-0.2-0.1-0.2c0-0.1-0.1-0.1-0.1-0.2c0,0,0-0.1,0-0.1s0-0.1,0.1-0.1c0-0.1,0-0.4,0-0.8s0-0.9,0-1.4c0-0.6,0-1.2-0.1-1.9
		s0-1.3-0.1-2c0-0.7,0-1.3-0.1-1.9c0-0.6,0-1.1,0-1.5c0-0.1,0-0.2,0-0.3c0-0.1,0-0.3-0.1-0.4s0-0.3-0.1-0.4s0-0.3,0-0.3
		c0,0,0-0.1,0-0.1c0-0.1,0-0.1,0-0.1c0,0-0.1,0-0.1-0.1s0-0.1,0-0.1l0-0.1l0.1-0.1c0-0.2,0-0.4,0-0.5c0-0.2,0-0.3,0-0.5
		c0,0,0-0.1,0-0.1c0,0,0-0.1,0-0.2s0-0.1,0-0.2c0,0,0-0.1,0-0.1c0-0.1,0-0.1,0-0.1s0-0.1,0-0.1c0-0.1,0-0.1,0-0.1c0,0,0,0,0-0.1
		c0-0.1,0-0.1,0-0.2s0-0.1,0-0.2c0,0,0-0.1,0-0.1l0,0c0,0,0,0,0,0c0.3,0,0.5-0.1,0.8-0.1c0.3-0.1,0.5-0.1,0.8-0.1c0.3,0,0.7,0,1,0
		c0.3,0,0.6,0.1,1,0.1c0,0,0.1,0,0.2,0c0.1,0,0.2,0,0.2,0s0.1,0,0.2,0.1c0.1,0,0.1,0.1,0.1,0.2c0,0.1,0,0.3,0,0.3c0,0.1,0,0.2,0,0.4
		v0c0,0,0,0,0,0s0,0,0,0c0.1,0,0.1-0.1,0.2-0.1c0.1,0,0.2-0.1,0.3-0.1s0.2-0.1,0.3-0.1c0.1,0,0.2-0.1,0.2-0.1c0,0,0.1,0,0.1-0.1
		s0.1-0.1,0.2-0.1c0,0,0.1,0,0.1,0c0.1,0,0.1,0,0.1-0.1c0.1,0,0.2-0.1,0.3-0.1c0.1,0,0.2-0.1,0.3-0.1c0.1,0,0.2-0.1,0.3-0.1
		c0.1,0,0.2-0.1,0.2-0.1c0.2-0.1,0.4-0.1,0.6-0.1c0.2,0,0.4,0,0.7,0c0.4,0,0.7,0,1.1,0.1c0.4,0.1,0.8,0.2,1.1,0.3
		c0.4,0.1,0.7,0.3,1,0.5c0.3,0.2,0.5,0.4,0.7,0.5c0.1,0.1,0.1,0.1,0.2,0.2c0.1,0.1,0.1,0.2,0.2,0.3c0.1,0.1,0.1,0.2,0.2,0.3
		c0,0.1,0.1,0.2,0.1,0.3c0,0,0,0.1-0.1,0.2c0,0.1-0.1,0.2-0.2,0.2c-0.1,0.1-0.1,0.2-0.2,0.2s-0.1,0.1-0.2,0.1c0,0,0,0-0.1,0
		c0,0-0.1,0-0.1,0.1c0,0-0.1,0-0.1,0.1c0,0-0.1,0-0.1,0c0,0-0.1,0.1-0.1,0.1c-0.1,0-0.1,0.1-0.2,0.1c-0.1,0-0.1,0.1-0.2,0.1
		c-0.1,0-0.1,0.1-0.1,0.1c-0.1,0.1-0.3,0.2-0.4,0.3c-0.1,0.1-0.3,0.2-0.4,0.3c-0.1,0.1-0.3,0.2-0.5,0.3c-0.2,0.1-0.3,0.1-0.5,0.1
		H288c0,0,0,0-0.1,0c0,0-0.1,0-0.1,0c-0.3-0.2-0.7-0.3-1.1-0.5c-0.4-0.1-0.7-0.2-1.1-0.2c-0.3,0-0.5,0.1-0.7,0.3
		c-0.2,0.2-0.3,0.4-0.5,0.6c0,0-0.1,0.1-0.1,0.2c-0.1,0.1-0.1,0.1-0.1,0.2c0,0,0,0.1-0.1,0.2c0,0.1-0.1,0.2-0.2,0.2
		c-0.1,0.1-0.1,0.2-0.2,0.3c-0.1,0.1-0.1,0.2-0.1,0.2c-0.1,0.2-0.1,0.4-0.1,0.6c0,0.2,0,0.4,0,0.6c-0.1,0.8-0.2,1.6-0.2,2.2
		c0,0.7,0.1,1.3,0.1,1.9c0,0.4,0.1,0.9,0.1,1.3s0.1,0.9,0.1,1.3c0,0,0,0.1,0,0.3c0,0.1,0,0.3,0,0.4c0,0.1,0,0.3,0,0.4
		c0,0.1,0,0.2,0,0.3c0,0,0,0,0,0c0,0,0,0,0,0l0,0h0h0c0,0,0,0-0.1,0s-0.1,0-0.1,0L280.2,56.7z"/>
	<path class="st0" d="M304.8,54.5c-0.1-0.1-0.1-0.1-0.1-0.2c0-0.1,0-0.2,0-0.3c0,0,0,0,0-0.1s0-0.1,0-0.1v-0.1c0-0.1,0-0.2,0.1-0.3
		c0-0.1,0.1-0.2,0.1-0.3v-0.1c0,0-0.1,0-0.1,0c-0.1,0-0.1,0-0.1,0c-0.1,0-0.1,0.1-0.3,0.2c-0.1,0.1-0.3,0.2-0.4,0.3
		c-0.1,0.1-0.3,0.2-0.4,0.2s-0.2,0.1-0.3,0.1l-1,0.4h-0.1c0,0,0,0-0.1,0c0,0-0.1,0-0.1,0s-0.1,0-0.1,0c0,0-0.1,0-0.1,0h-0.7
		c-0.2,0-0.3,0-0.4,0s-0.2,0-0.3,0c-0.1,0-0.2,0-0.3,0c-0.1,0-0.3,0-0.4,0c0,0-0.1,0-0.1,0c-0.1,0-0.1,0-0.2,0c-0.1,0-0.2,0-0.2,0
		c-0.1,0-0.1,0-0.1,0h-0.6l-0.4-0.2c-0.1,0-0.1-0.1-0.3-0.1c-0.1-0.1-0.2-0.1-0.4-0.2c-0.1-0.1-0.3-0.1-0.4-0.2
		c-0.1-0.1-0.2-0.1-0.3-0.1c0,0-0.1-0.1-0.2-0.1c-0.1,0-0.2-0.1-0.3-0.1c-0.1-0.1-0.2-0.1-0.3-0.1c-0.1,0-0.1-0.1-0.2-0.1
		c0,0,0,0-0.1-0.1c0,0-0.1-0.1-0.1-0.1s-0.1-0.1-0.1-0.1c0,0-0.1-0.1-0.1-0.1c-0.2-0.2-0.4-0.4-0.6-0.7c-0.2-0.2-0.4-0.5-0.6-0.7
		c-0.2-0.2-0.3-0.5-0.4-0.8c-0.1-0.3-0.2-0.7-0.3-1.1c-0.1-0.4-0.1-0.7-0.2-1.1c0-0.4,0-0.7,0-0.9c0-0.3,0-0.6,0-0.9
		c0-0.3,0-0.6,0-0.8c0-0.3,0.1-0.5,0.1-0.8c0.1-0.3,0.1-0.6,0.2-0.9c0,0,0-0.2,0.1-0.3c0.1-0.2,0.1-0.3,0.2-0.5s0.1-0.3,0.1-0.4
		s0.1-0.1,0,0c0.1-0.4,0.3-0.7,0.5-1c0.2-0.3,0.5-0.6,0.7-0.9c0.3-0.3,0.6-0.5,0.9-0.8c0.3-0.2,0.6-0.5,1-0.7c0,0,0.1-0.1,0.2-0.1
		s0.2-0.1,0.4-0.2c0.1-0.1,0.3-0.1,0.4-0.2c0.1-0.1,0.2-0.1,0.3-0.1c0,0,0,0,0.1,0c0,0,0.1,0,0.2,0c0.1,0,0.1,0,0.2,0
		c0.1,0,0.1,0,0.2,0c0,0,0.1,0,0.2,0c0.1,0,0.1,0,0.1,0h2.4c0.3,0.1,0.6,0.2,0.8,0.2c0.3,0.1,0.5,0.2,0.8,0.3
		c0.2,0.1,0.5,0.2,0.7,0.4c0.2,0.1,0.5,0.3,0.7,0.6h0c0,0,0-0.1,0-0.1c0,0,0-0.1,0-0.1s0-0.1,0-0.1c0,0,0-0.1,0-0.1c0,0,0,0,0-0.1
		s0-0.1,0-0.2c0-0.1,0-0.1,0-0.2c0,0,0-0.1,0-0.1c0-0.1,0-0.1,0-0.2s0.1-0.1,0.1-0.2c0.1,0,0.1-0.1,0.2-0.1c0.1,0,0.1,0,0.2,0
		c0.4,0,0.8,0,1.1,0c0.3,0,0.6,0,0.9,0c0.3,0,0.6,0,0.9,0.1c0.3,0,0.7,0.1,1.1,0.1c0,0,0.1,0,0.1,0.1c0.1,0,0.1,0.1,0.1,0.1
		c0,0.1,0,0.2,0,0.3c0,0.1,0,0.2,0,0.3c0,0.1,0,0.2,0,0.3c0,0.1,0,0.2,0,0.3c0,0,0,0.1,0,0.1c0,0.1,0,0.2,0,0.3c0,0.1,0,0.2,0,0.3
		c0,0.1,0,0.1,0,0.1c0,0,0,0.1,0,0.2c0,0.1,0,0.1,0,0.2c0,0,0,0.1,0,0.2c0,0.1,0,0.2,0,0.2c0,0.1,0,0.2,0,0.2c0,0.1,0,0.1,0,0.1
		c0,0,0,0.1,0,0.1s0,0.1,0,0.1l0,2.9v0.2c0,0,0,0.2,0,0.5c0,0.3,0,0.7,0,1.2c0,0.5,0,1,0,1.5c0,0.6,0,1.1,0,1.7c0,0.6,0,1.1,0,1.6
		c0,0.5,0,0.9,0,1.2c0,0,0,0.1,0,0.2c0,0.1,0,0.2,0,0.3c0,0.1,0,0.2,0,0.3c0,0.1,0,0.2,0,0.2v0.1v0.1c0,0-0.1,0.1-0.2,0.1
		c-0.1,0-0.1,0.1-0.2,0.1c-0.2,0-0.4,0-0.6,0c-0.2,0-0.3,0-0.5,0.1c-0.1,0-0.3,0-0.4,0.1s-0.3,0-0.6,0h-0.6c-0.1,0-0.2,0-0.3,0
		c-0.1,0-0.3,0-0.4,0c-0.2,0-0.3,0-0.4,0C305,54.6,304.9,54.6,304.8,54.5z M297.6,46.5c0,0.4,0.1,0.8,0.2,1.2
		c0.1,0.4,0.3,0.7,0.6,1.1c0,0,0,0.1,0.1,0.1c0,0.1,0.1,0.1,0.1,0.1c0.2,0.2,0.4,0.4,0.6,0.6c0.2,0.2,0.4,0.4,0.7,0.5
		c0.2,0.2,0.5,0.3,0.7,0.4c0.3,0.1,0.5,0.1,0.9,0.1c0.3,0,0.5,0,0.8-0.1s0.5-0.2,0.8-0.3c0,0,0.1,0,0.1-0.1c0.1,0,0.1-0.1,0.2-0.1
		c0.1,0,0.1-0.1,0.2-0.1c0,0,0.1,0,0.1,0c0.3-0.2,0.5-0.5,0.7-0.8c0.2-0.3,0.4-0.6,0.5-1c0.1-0.4,0.2-0.7,0.2-1.1s0.1-0.7,0.1-1.1
		c0,0,0-0.1,0-0.2c0-0.1,0-0.2,0-0.3s0-0.2,0-0.3s0-0.2,0-0.2l-0.1-0.2c0-0.1-0.1-0.1-0.1-0.2c0-0.1-0.1-0.1-0.1-0.1
		c-0.2-0.3-0.3-0.6-0.5-0.9c-0.2-0.3-0.4-0.5-0.7-0.7c-0.1,0-0.1-0.1-0.2-0.2s-0.2-0.1-0.3-0.2s-0.2-0.1-0.3-0.2
		c-0.1-0.1-0.2-0.1-0.2-0.1c0,0-0.1,0-0.2,0c-0.1,0-0.2,0-0.3-0.1s-0.2,0-0.3-0.1c-0.1,0-0.1,0-0.2,0c0-0.1-0.1-0.1-0.2-0.1
		c-0.1,0-0.2,0-0.3,0c-0.1,0-0.2,0-0.3,0.1c-0.1,0-0.2,0-0.3,0c-0.1,0-0.3,0-0.4,0.1c-0.1,0-0.3,0.1-0.4,0.2
		c-0.1,0.1-0.2,0.2-0.4,0.2c-0.1,0.1-0.2,0.2-0.3,0.3c0,0-0.1,0.1-0.1,0.1c-0.1,0.1-0.1,0.1-0.2,0.2c-0.1,0.1-0.1,0.1-0.2,0.2
		c-0.1,0.1-0.1,0.1-0.1,0.1c-0.3,0.3-0.5,0.7-0.6,1.2c-0.1,0.3-0.1,0.7-0.2,1C297.6,45.8,297.6,46.2,297.6,46.5z"/>
</g>
</svg>
